%TF.GenerationSoftware,KiCad,Pcbnew,(5.1.9-0-10_14)*%
%TF.CreationDate,2021-03-23T19:07:49+01:00*%
%TF.ProjectId,itho_rv_sensor,6974686f-5f72-4765-9f73-656e736f722e,rev?*%
%TF.SameCoordinates,Original*%
%TF.FileFunction,Legend,Top*%
%TF.FilePolarity,Positive*%
%FSLAX46Y46*%
G04 Gerber Fmt 4.6, Leading zero omitted, Abs format (unit mm)*
G04 Created by KiCad (PCBNEW (5.1.9-0-10_14)) date 2021-03-23 19:07:49*
%MOMM*%
%LPD*%
G01*
G04 APERTURE LIST*
%ADD10C,0.120000*%
%ADD11C,0.150000*%
G04 APERTURE END LIST*
D10*
%TO.C,J1*%
X136060000Y-95698000D02*
X136060000Y-108518000D01*
X136060000Y-108518000D02*
X138720000Y-108518000D01*
X138720000Y-108518000D02*
X138720000Y-95698000D01*
X138720000Y-95698000D02*
X136060000Y-95698000D01*
X138720000Y-96648000D02*
X144720000Y-96648000D01*
X144720000Y-96648000D02*
X144720000Y-97408000D01*
X144720000Y-97408000D02*
X138720000Y-97408000D01*
X138720000Y-96708000D02*
X144720000Y-96708000D01*
X138720000Y-96828000D02*
X144720000Y-96828000D01*
X138720000Y-96948000D02*
X144720000Y-96948000D01*
X138720000Y-97068000D02*
X144720000Y-97068000D01*
X138720000Y-97188000D02*
X144720000Y-97188000D01*
X138720000Y-97308000D02*
X144720000Y-97308000D01*
X135662929Y-96648000D02*
X136060000Y-96648000D01*
X135662929Y-97408000D02*
X136060000Y-97408000D01*
X133190000Y-96648000D02*
X133577071Y-96648000D01*
X133190000Y-97408000D02*
X133577071Y-97408000D01*
X136060000Y-98298000D02*
X138720000Y-98298000D01*
X138720000Y-99188000D02*
X144720000Y-99188000D01*
X144720000Y-99188000D02*
X144720000Y-99948000D01*
X144720000Y-99948000D02*
X138720000Y-99948000D01*
X135662929Y-99188000D02*
X136060000Y-99188000D01*
X135662929Y-99948000D02*
X136060000Y-99948000D01*
X133122929Y-99188000D02*
X133577071Y-99188000D01*
X133122929Y-99948000D02*
X133577071Y-99948000D01*
X136060000Y-100838000D02*
X138720000Y-100838000D01*
X138720000Y-101728000D02*
X144720000Y-101728000D01*
X144720000Y-101728000D02*
X144720000Y-102488000D01*
X144720000Y-102488000D02*
X138720000Y-102488000D01*
X135662929Y-101728000D02*
X136060000Y-101728000D01*
X135662929Y-102488000D02*
X136060000Y-102488000D01*
X133122929Y-101728000D02*
X133577071Y-101728000D01*
X133122929Y-102488000D02*
X133577071Y-102488000D01*
X136060000Y-103378000D02*
X138720000Y-103378000D01*
X138720000Y-104268000D02*
X144720000Y-104268000D01*
X144720000Y-104268000D02*
X144720000Y-105028000D01*
X144720000Y-105028000D02*
X138720000Y-105028000D01*
X135662929Y-104268000D02*
X136060000Y-104268000D01*
X135662929Y-105028000D02*
X136060000Y-105028000D01*
X133122929Y-104268000D02*
X133577071Y-104268000D01*
X133122929Y-105028000D02*
X133577071Y-105028000D01*
X136060000Y-105918000D02*
X138720000Y-105918000D01*
X138720000Y-106808000D02*
X144720000Y-106808000D01*
X144720000Y-106808000D02*
X144720000Y-107568000D01*
X144720000Y-107568000D02*
X138720000Y-107568000D01*
X135662929Y-106808000D02*
X136060000Y-106808000D01*
X135662929Y-107568000D02*
X136060000Y-107568000D01*
X133122929Y-106808000D02*
X133577071Y-106808000D01*
X133122929Y-107568000D02*
X133577071Y-107568000D01*
X130810000Y-97028000D02*
X130810000Y-95758000D01*
X130810000Y-95758000D02*
X132080000Y-95758000D01*
%TO.C,U1*%
X119052000Y-100825000D02*
X120792000Y-100825000D01*
X119492000Y-103645000D02*
X120792000Y-103645000D01*
%TO.C,C1*%
X123827000Y-102388580D02*
X123827000Y-102107420D01*
X122807000Y-102388580D02*
X122807000Y-102107420D01*
%TO.C,R3*%
X127427258Y-104125500D02*
X126952742Y-104125500D01*
X127427258Y-105170500D02*
X126952742Y-105170500D01*
%TO.C,R2*%
X123841742Y-100344500D02*
X124316258Y-100344500D01*
X123841742Y-99299500D02*
X124316258Y-99299500D01*
%TO.C,R1*%
X123841742Y-105170500D02*
X124316258Y-105170500D01*
X123841742Y-104125500D02*
X124316258Y-104125500D01*
%TO.C,R5*%
X127427258Y-100950500D02*
X126952742Y-100950500D01*
X127427258Y-101995500D02*
X126952742Y-101995500D01*
%TO.C,R4*%
X126953742Y-100344500D02*
X127428258Y-100344500D01*
X126953742Y-99299500D02*
X127428258Y-99299500D01*
%TO.C,R5*%
X127427258Y-85265500D02*
X126952742Y-85265500D01*
X127427258Y-84220500D02*
X126952742Y-84220500D01*
%TO.C,R4*%
X126953742Y-82569500D02*
X127428258Y-82569500D01*
X126953742Y-83614500D02*
X127428258Y-83614500D01*
%TO.C,R3*%
X127427258Y-88440500D02*
X126952742Y-88440500D01*
X127427258Y-87395500D02*
X126952742Y-87395500D01*
%TO.C,R2*%
X123841742Y-82569500D02*
X124316258Y-82569500D01*
X123841742Y-83614500D02*
X124316258Y-83614500D01*
%TO.C,R1*%
X123841742Y-87395500D02*
X124316258Y-87395500D01*
X123841742Y-88440500D02*
X124316258Y-88440500D01*
%TO.C,C1*%
X122807000Y-85658580D02*
X122807000Y-85377420D01*
X123827000Y-85658580D02*
X123827000Y-85377420D01*
%TO.C,U1*%
X119492000Y-86915000D02*
X120792000Y-86915000D01*
X119052000Y-84095000D02*
X120792000Y-84095000D01*
%TO.C,J1*%
X130810000Y-79028000D02*
X132080000Y-79028000D01*
X130810000Y-80298000D02*
X130810000Y-79028000D01*
X133122929Y-90838000D02*
X133577071Y-90838000D01*
X133122929Y-90078000D02*
X133577071Y-90078000D01*
X135662929Y-90838000D02*
X136060000Y-90838000D01*
X135662929Y-90078000D02*
X136060000Y-90078000D01*
X144720000Y-90838000D02*
X138720000Y-90838000D01*
X144720000Y-90078000D02*
X144720000Y-90838000D01*
X138720000Y-90078000D02*
X144720000Y-90078000D01*
X136060000Y-89188000D02*
X138720000Y-89188000D01*
X133122929Y-88298000D02*
X133577071Y-88298000D01*
X133122929Y-87538000D02*
X133577071Y-87538000D01*
X135662929Y-88298000D02*
X136060000Y-88298000D01*
X135662929Y-87538000D02*
X136060000Y-87538000D01*
X144720000Y-88298000D02*
X138720000Y-88298000D01*
X144720000Y-87538000D02*
X144720000Y-88298000D01*
X138720000Y-87538000D02*
X144720000Y-87538000D01*
X136060000Y-86648000D02*
X138720000Y-86648000D01*
X133122929Y-85758000D02*
X133577071Y-85758000D01*
X133122929Y-84998000D02*
X133577071Y-84998000D01*
X135662929Y-85758000D02*
X136060000Y-85758000D01*
X135662929Y-84998000D02*
X136060000Y-84998000D01*
X144720000Y-85758000D02*
X138720000Y-85758000D01*
X144720000Y-84998000D02*
X144720000Y-85758000D01*
X138720000Y-84998000D02*
X144720000Y-84998000D01*
X136060000Y-84108000D02*
X138720000Y-84108000D01*
X133122929Y-83218000D02*
X133577071Y-83218000D01*
X133122929Y-82458000D02*
X133577071Y-82458000D01*
X135662929Y-83218000D02*
X136060000Y-83218000D01*
X135662929Y-82458000D02*
X136060000Y-82458000D01*
X144720000Y-83218000D02*
X138720000Y-83218000D01*
X144720000Y-82458000D02*
X144720000Y-83218000D01*
X138720000Y-82458000D02*
X144720000Y-82458000D01*
X136060000Y-81568000D02*
X138720000Y-81568000D01*
X133190000Y-80678000D02*
X133577071Y-80678000D01*
X133190000Y-79918000D02*
X133577071Y-79918000D01*
X135662929Y-80678000D02*
X136060000Y-80678000D01*
X135662929Y-79918000D02*
X136060000Y-79918000D01*
X138720000Y-80578000D02*
X144720000Y-80578000D01*
X138720000Y-80458000D02*
X144720000Y-80458000D01*
X138720000Y-80338000D02*
X144720000Y-80338000D01*
X138720000Y-80218000D02*
X144720000Y-80218000D01*
X138720000Y-80098000D02*
X144720000Y-80098000D01*
X138720000Y-79978000D02*
X144720000Y-79978000D01*
X144720000Y-80678000D02*
X138720000Y-80678000D01*
X144720000Y-79918000D02*
X144720000Y-80678000D01*
X138720000Y-79918000D02*
X144720000Y-79918000D01*
X138720000Y-78968000D02*
X136060000Y-78968000D01*
X138720000Y-91788000D02*
X138720000Y-78968000D01*
X136060000Y-91788000D02*
X138720000Y-91788000D01*
X136060000Y-78968000D02*
X136060000Y-91788000D01*
D11*
X137401666Y-94210380D02*
X137401666Y-94924666D01*
X137354047Y-95067523D01*
X137258809Y-95162761D01*
X137115952Y-95210380D01*
X137020714Y-95210380D01*
X138401666Y-95210380D02*
X137830238Y-95210380D01*
X138115952Y-95210380D02*
X138115952Y-94210380D01*
X138020714Y-94353238D01*
X137925476Y-94448476D01*
X137830238Y-94496095D01*
X137401666Y-77480380D02*
X137401666Y-78194666D01*
X137354047Y-78337523D01*
X137258809Y-78432761D01*
X137115952Y-78480380D01*
X137020714Y-78480380D01*
X138401666Y-78480380D02*
X137830238Y-78480380D01*
X138115952Y-78480380D02*
X138115952Y-77480380D01*
X138020714Y-77623238D01*
X137925476Y-77718476D01*
X137830238Y-77766095D01*
%TD*%
M02*
