%TF.GenerationSoftware,KiCad,Pcbnew,(5.1.9-0-10_14)*%
%TF.CreationDate,2021-03-23T19:07:49+01:00*%
%TF.ProjectId,itho_rv_sensor,6974686f-5f72-4765-9f73-656e736f722e,rev?*%
%TF.SameCoordinates,Original*%
%TF.FileFunction,Profile,NP*%
%FSLAX46Y46*%
G04 Gerber Fmt 4.6, Leading zero omitted, Abs format (unit mm)*
G04 Created by KiCad (PCBNEW (5.1.9-0-10_14)) date 2021-03-23 19:07:49*
%MOMM*%
%LPD*%
G01*
G04 APERTURE LIST*
%TA.AperFunction,Profile*%
%ADD10C,0.050000*%
%TD*%
G04 APERTURE END LIST*
D10*
X112173000Y-78012000D02*
X108176000Y-78012000D01*
X112173000Y-83265000D02*
X112173000Y-78012000D01*
X108173000Y-109475000D02*
X108176000Y-78012000D01*
X112173000Y-109475000D02*
X108173000Y-109475000D01*
X112173000Y-109475000D02*
X112173000Y-109395000D01*
X112173000Y-104395000D02*
X112173000Y-109395000D01*
X112173000Y-99995000D02*
X112173000Y-87665000D01*
X130302000Y-96266000D02*
G75*
G02*
X129413000Y-97155000I-889000J0D01*
G01*
X130302000Y-108458000D02*
X130302000Y-107950000D01*
X114173000Y-104395000D02*
X114173000Y-104521000D01*
X136906000Y-94742000D02*
X136106000Y-94744000D01*
X114173000Y-99695000D02*
X114173000Y-99995000D01*
X131318000Y-109474000D02*
X131706000Y-109474000D01*
X114173000Y-99695000D02*
G75*
G02*
X116713000Y-97155000I2540000J0D01*
G01*
X116713000Y-97155000D02*
X129413000Y-97155000D01*
X116713000Y-107061000D02*
G75*
G02*
X114173000Y-104521000I0J2540000D01*
G01*
X129413000Y-107061000D02*
X116713000Y-107061000D01*
X136906000Y-109474000D02*
X136906000Y-106553000D01*
X136906000Y-106553000D02*
X138684000Y-106553000D01*
X138684000Y-106553000D02*
X138684000Y-105283000D01*
X138684000Y-105283000D02*
X136906000Y-105283000D01*
X136906000Y-105283000D02*
X136906000Y-98933000D01*
X136906000Y-98933000D02*
X138684000Y-98933000D01*
X138684000Y-98933000D02*
X138684000Y-97663000D01*
X138684000Y-97663000D02*
X136906000Y-97663000D01*
X136906000Y-97663000D02*
X136906000Y-94742000D01*
X112173000Y-104395000D02*
G75*
G02*
X114173000Y-104395000I1000000J0D01*
G01*
X114173000Y-99995000D02*
G75*
G02*
X112173000Y-99995000I-1000000J0D01*
G01*
X131706000Y-94742000D02*
X131318000Y-94742000D01*
X131706000Y-92742000D02*
G75*
G02*
X131706000Y-94742000I0J-1000000D01*
G01*
X130302000Y-107950000D02*
G75*
G03*
X129413000Y-107061000I-889000J0D01*
G01*
X130302000Y-108458000D02*
G75*
G03*
X131318000Y-109474000I1016000J0D01*
G01*
X130302000Y-95758000D02*
G75*
G02*
X131318000Y-94742000I1016000J0D01*
G01*
X130302000Y-95758000D02*
X130302000Y-96266000D01*
X131706000Y-109474000D02*
X136906000Y-109474000D01*
X136106000Y-92744000D02*
X136906000Y-92744000D01*
X136106000Y-94744000D02*
G75*
G02*
X136106000Y-92744000I0J1000000D01*
G01*
X114173000Y-87665000D02*
X114173000Y-87791000D01*
X114173000Y-82965000D02*
X114173000Y-83265000D01*
X112173000Y-87665000D02*
G75*
G02*
X114173000Y-87665000I1000000J0D01*
G01*
X114173000Y-83265000D02*
G75*
G02*
X112173000Y-83265000I-1000000J0D01*
G01*
X136906000Y-78012000D02*
X131318000Y-78012000D01*
X130302000Y-91220000D02*
G75*
G03*
X129413000Y-90331000I-889000J0D01*
G01*
X130302000Y-91728000D02*
G75*
G03*
X131318000Y-92744000I1016000J0D01*
G01*
X130302000Y-91728000D02*
X130302000Y-91220000D01*
X130302000Y-79028000D02*
X130302000Y-79536000D01*
X130302000Y-79536000D02*
G75*
G02*
X129413000Y-80425000I-889000J0D01*
G01*
X130302000Y-79028000D02*
G75*
G02*
X131318000Y-78012000I1016000J0D01*
G01*
X136906000Y-80933000D02*
X136906000Y-78012000D01*
X138684000Y-80933000D02*
X136906000Y-80933000D01*
X138684000Y-82203000D02*
X138684000Y-80933000D01*
X136906000Y-82203000D02*
X138684000Y-82203000D01*
X136906000Y-88553000D02*
X136906000Y-82203000D01*
X138684000Y-88553000D02*
X136906000Y-88553000D01*
X138684000Y-89823000D02*
X138684000Y-88553000D01*
X136906000Y-89823000D02*
X138684000Y-89823000D01*
X136906000Y-92744000D02*
X136906000Y-89823000D01*
X129413000Y-90331000D02*
X116713000Y-90331000D01*
X116713000Y-90331000D02*
G75*
G02*
X114173000Y-87791000I0J2540000D01*
G01*
X116713000Y-80425000D02*
X129413000Y-80425000D01*
X114173000Y-82965000D02*
G75*
G02*
X116713000Y-80425000I2540000J0D01*
G01*
X131318000Y-92744000D02*
X131706000Y-92742000D01*
M02*
