M48
; DRILL file {KiCad (5.1.9-0-10_14)} date Tuesday, March 23, 2021 at 07:07:52 PM
; FORMAT={-:-/ absolute / metric / decimal}
; #@! TF.CreationDate,2021-03-23T19:07:52+01:00
; #@! TF.GenerationSoftware,Kicad,Pcbnew,(5.1.9-0-10_14)
FMAT,2
METRIC
T1C0.400
T2C1.000
T3C0.500
%
G90
G05
T1
X117.973Y-85.265
X117.973Y-101.995
X121.031Y-83.092
X121.031Y-99.822
X122.174Y-84.235
X122.174Y-87.029
X122.174Y-100.965
X122.174Y-103.759
T2
X132.08Y-80.298
X132.08Y-82.838
X132.08Y-85.378
X132.08Y-87.918
X132.08Y-90.458
X132.08Y-97.028
X132.08Y-99.568
X132.08Y-102.108
X132.08Y-104.648
X132.08Y-107.188
X134.62Y-80.298
X134.62Y-82.838
X134.62Y-85.378
X134.62Y-87.918
X134.62Y-90.458
X134.62Y-97.028
X134.62Y-99.568
X134.62Y-102.108
X134.62Y-104.648
X134.62Y-107.188
T3
X114.223Y-83.465
X114.223Y-84.465
X114.223Y-85.465
X114.223Y-86.465
X114.223Y-87.465
X114.223Y-100.195
X114.223Y-101.195
X114.223Y-102.195
X114.223Y-103.195
X114.223Y-104.195
X131.906Y-92.692
X131.906Y-94.792
X132.906Y-92.692
X132.906Y-94.792
X133.906Y-92.692
X133.906Y-94.792
X134.906Y-92.692
X134.906Y-94.792
X135.906Y-92.692
X135.906Y-94.792
T0
M30
