%TF.GenerationSoftware,KiCad,Pcbnew,(5.1.9-0-10_14)*%
%TF.CreationDate,2021-03-23T19:07:49+01:00*%
%TF.ProjectId,itho_rv_sensor,6974686f-5f72-4765-9f73-656e736f722e,rev?*%
%TF.SameCoordinates,Original*%
%TF.FileFunction,Legend,Bot*%
%TF.FilePolarity,Positive*%
%FSLAX46Y46*%
G04 Gerber Fmt 4.6, Leading zero omitted, Abs format (unit mm)*
G04 Created by KiCad (PCBNEW (5.1.9-0-10_14)) date 2021-03-23 19:07:49*
%MOMM*%
%LPD*%
G01*
G04 APERTURE LIST*
%ADD10C,0.150000*%
%ADD11C,0.120000*%
G04 APERTURE END LIST*
D10*
X117389666Y-98485476D02*
X117389666Y-99104523D01*
X117761095Y-98361666D02*
X116461095Y-98795000D01*
X117761095Y-99228333D01*
X117699190Y-104923571D02*
X117761095Y-105109285D01*
X117761095Y-105418809D01*
X117699190Y-105542619D01*
X117637285Y-105604523D01*
X117513476Y-105666428D01*
X117389666Y-105666428D01*
X117265857Y-105604523D01*
X117203952Y-105542619D01*
X117142047Y-105418809D01*
X117080142Y-105171190D01*
X117018238Y-105047380D01*
X116956333Y-104985476D01*
X116832523Y-104923571D01*
X116708714Y-104923571D01*
X116584904Y-104985476D01*
X116523000Y-105047380D01*
X116461095Y-105171190D01*
X116461095Y-105480714D01*
X116523000Y-105666428D01*
X117699190Y-88193571D02*
X117761095Y-88379285D01*
X117761095Y-88688809D01*
X117699190Y-88812619D01*
X117637285Y-88874523D01*
X117513476Y-88936428D01*
X117389666Y-88936428D01*
X117265857Y-88874523D01*
X117203952Y-88812619D01*
X117142047Y-88688809D01*
X117080142Y-88441190D01*
X117018238Y-88317380D01*
X116956333Y-88255476D01*
X116832523Y-88193571D01*
X116708714Y-88193571D01*
X116584904Y-88255476D01*
X116523000Y-88317380D01*
X116461095Y-88441190D01*
X116461095Y-88750714D01*
X116523000Y-88936428D01*
X117389666Y-81755476D02*
X117389666Y-82374523D01*
X117761095Y-81631666D02*
X116461095Y-82065000D01*
X117761095Y-82498333D01*
D11*
%TO.C,Address*%
X118051000Y-100631000D02*
G75*
G03*
X117351000Y-99931000I-700000J0D01*
G01*
X116751000Y-99931000D02*
G75*
G03*
X116051000Y-100631000I0J-700000D01*
G01*
X116051000Y-103331000D02*
G75*
G03*
X116751000Y-104031000I700000J0D01*
G01*
X117351000Y-104031000D02*
G75*
G03*
X118051000Y-103331000I0J700000D01*
G01*
X115851000Y-103181000D02*
X115551000Y-102881000D01*
X115551000Y-103481000D02*
X115551000Y-102881000D01*
X115851000Y-103181000D02*
X115551000Y-103481000D01*
X116751000Y-104031000D02*
X117351000Y-104031000D01*
X116051000Y-100581000D02*
X116051000Y-103381000D01*
X117351000Y-99931000D02*
X116751000Y-99931000D01*
X118051000Y-103381000D02*
X118051000Y-100581000D01*
X118051000Y-86651000D02*
X118051000Y-83851000D01*
X117351000Y-83201000D02*
X116751000Y-83201000D01*
X116051000Y-83851000D02*
X116051000Y-86651000D01*
X116751000Y-87301000D02*
X117351000Y-87301000D01*
X115851000Y-86451000D02*
X115551000Y-86751000D01*
X115551000Y-86751000D02*
X115551000Y-86151000D01*
X115851000Y-86451000D02*
X115551000Y-86151000D01*
X117351000Y-87301000D02*
G75*
G03*
X118051000Y-86601000I0J700000D01*
G01*
X116051000Y-86601000D02*
G75*
G03*
X116751000Y-87301000I700000J0D01*
G01*
X116751000Y-83201000D02*
G75*
G03*
X116051000Y-83901000I0J-700000D01*
G01*
X118051000Y-83901000D02*
G75*
G03*
X117351000Y-83201000I-700000J0D01*
G01*
D10*
X119017666Y-99290523D02*
X119017666Y-99766714D01*
X119303380Y-99195285D02*
X118303380Y-99528619D01*
X119303380Y-99861952D01*
X119303380Y-100623857D02*
X118303380Y-100623857D01*
X119255761Y-100623857D02*
X119303380Y-100528619D01*
X119303380Y-100338142D01*
X119255761Y-100242904D01*
X119208142Y-100195285D01*
X119112904Y-100147666D01*
X118827190Y-100147666D01*
X118731952Y-100195285D01*
X118684333Y-100242904D01*
X118636714Y-100338142D01*
X118636714Y-100528619D01*
X118684333Y-100623857D01*
X119303380Y-101528619D02*
X118303380Y-101528619D01*
X119255761Y-101528619D02*
X119303380Y-101433380D01*
X119303380Y-101242904D01*
X119255761Y-101147666D01*
X119208142Y-101100047D01*
X119112904Y-101052428D01*
X118827190Y-101052428D01*
X118731952Y-101100047D01*
X118684333Y-101147666D01*
X118636714Y-101242904D01*
X118636714Y-101433380D01*
X118684333Y-101528619D01*
X119303380Y-102004809D02*
X118636714Y-102004809D01*
X118827190Y-102004809D02*
X118731952Y-102052428D01*
X118684333Y-102100047D01*
X118636714Y-102195285D01*
X118636714Y-102290523D01*
X119255761Y-103004809D02*
X119303380Y-102909571D01*
X119303380Y-102719095D01*
X119255761Y-102623857D01*
X119160523Y-102576238D01*
X118779571Y-102576238D01*
X118684333Y-102623857D01*
X118636714Y-102719095D01*
X118636714Y-102909571D01*
X118684333Y-103004809D01*
X118779571Y-103052428D01*
X118874809Y-103052428D01*
X118970047Y-102576238D01*
X119255761Y-103433380D02*
X119303380Y-103528619D01*
X119303380Y-103719095D01*
X119255761Y-103814333D01*
X119160523Y-103861952D01*
X119112904Y-103861952D01*
X119017666Y-103814333D01*
X118970047Y-103719095D01*
X118970047Y-103576238D01*
X118922428Y-103481000D01*
X118827190Y-103433380D01*
X118779571Y-103433380D01*
X118684333Y-103481000D01*
X118636714Y-103576238D01*
X118636714Y-103719095D01*
X118684333Y-103814333D01*
X119255761Y-104242904D02*
X119303380Y-104338142D01*
X119303380Y-104528619D01*
X119255761Y-104623857D01*
X119160523Y-104671476D01*
X119112904Y-104671476D01*
X119017666Y-104623857D01*
X118970047Y-104528619D01*
X118970047Y-104385761D01*
X118922428Y-104290523D01*
X118827190Y-104242904D01*
X118779571Y-104242904D01*
X118684333Y-104290523D01*
X118636714Y-104385761D01*
X118636714Y-104528619D01*
X118684333Y-104623857D01*
X119017666Y-82560523D02*
X119017666Y-83036714D01*
X119303380Y-82465285D02*
X118303380Y-82798619D01*
X119303380Y-83131952D01*
X119303380Y-83893857D02*
X118303380Y-83893857D01*
X119255761Y-83893857D02*
X119303380Y-83798619D01*
X119303380Y-83608142D01*
X119255761Y-83512904D01*
X119208142Y-83465285D01*
X119112904Y-83417666D01*
X118827190Y-83417666D01*
X118731952Y-83465285D01*
X118684333Y-83512904D01*
X118636714Y-83608142D01*
X118636714Y-83798619D01*
X118684333Y-83893857D01*
X119303380Y-84798619D02*
X118303380Y-84798619D01*
X119255761Y-84798619D02*
X119303380Y-84703380D01*
X119303380Y-84512904D01*
X119255761Y-84417666D01*
X119208142Y-84370047D01*
X119112904Y-84322428D01*
X118827190Y-84322428D01*
X118731952Y-84370047D01*
X118684333Y-84417666D01*
X118636714Y-84512904D01*
X118636714Y-84703380D01*
X118684333Y-84798619D01*
X119303380Y-85274809D02*
X118636714Y-85274809D01*
X118827190Y-85274809D02*
X118731952Y-85322428D01*
X118684333Y-85370047D01*
X118636714Y-85465285D01*
X118636714Y-85560523D01*
X119255761Y-86274809D02*
X119303380Y-86179571D01*
X119303380Y-85989095D01*
X119255761Y-85893857D01*
X119160523Y-85846238D01*
X118779571Y-85846238D01*
X118684333Y-85893857D01*
X118636714Y-85989095D01*
X118636714Y-86179571D01*
X118684333Y-86274809D01*
X118779571Y-86322428D01*
X118874809Y-86322428D01*
X118970047Y-85846238D01*
X119255761Y-86703380D02*
X119303380Y-86798619D01*
X119303380Y-86989095D01*
X119255761Y-87084333D01*
X119160523Y-87131952D01*
X119112904Y-87131952D01*
X119017666Y-87084333D01*
X118970047Y-86989095D01*
X118970047Y-86846238D01*
X118922428Y-86751000D01*
X118827190Y-86703380D01*
X118779571Y-86703380D01*
X118684333Y-86751000D01*
X118636714Y-86846238D01*
X118636714Y-86989095D01*
X118684333Y-87084333D01*
X119255761Y-87512904D02*
X119303380Y-87608142D01*
X119303380Y-87798619D01*
X119255761Y-87893857D01*
X119160523Y-87941476D01*
X119112904Y-87941476D01*
X119017666Y-87893857D01*
X118970047Y-87798619D01*
X118970047Y-87655761D01*
X118922428Y-87560523D01*
X118827190Y-87512904D01*
X118779571Y-87512904D01*
X118684333Y-87560523D01*
X118636714Y-87655761D01*
X118636714Y-87798619D01*
X118684333Y-87893857D01*
%TD*%
M02*
