G04 #@! TF.GenerationSoftware,KiCad,Pcbnew,(6.0.8-1)-1*
G04 #@! TF.CreationDate,2022-10-25T17:52:03+02:00*
G04 #@! TF.ProjectId,ithowifi_4l,6974686f-7769-4666-995f-346c2e6b6963,rev?*
G04 #@! TF.SameCoordinates,Original*
G04 #@! TF.FileFunction,Legend,Bot*
G04 #@! TF.FilePolarity,Positive*
%FSLAX46Y46*%
G04 Gerber Fmt 4.6, Leading zero omitted, Abs format (unit mm)*
G04 Created by KiCad (PCBNEW (6.0.8-1)-1) date 2022-10-25 17:52:03*
%MOMM*%
%LPD*%
G01*
G04 APERTURE LIST*
%ADD10C,0.100000*%
%ADD11C,0.200000*%
%ADD12C,0.150000*%
G04 APERTURE END LIST*
D10*
G36*
X103202000Y-135417558D02*
G01*
X85955400Y-135417558D01*
X85930000Y-118450358D01*
X103202000Y-118450358D01*
X103202000Y-135417558D01*
G37*
X103202000Y-135417558D02*
X85955400Y-135417558D01*
X85930000Y-118450358D01*
X103202000Y-118450358D01*
X103202000Y-135417558D01*
D11*
X113075393Y-143011000D02*
X114321393Y-143011000D01*
X113906060Y-142595666D02*
X113906060Y-142121000D01*
X114321393Y-142417666D02*
X113253393Y-142417666D01*
X113134726Y-142358333D01*
X113075393Y-142239666D01*
X113075393Y-142121000D01*
X113075393Y-141705666D02*
X114321393Y-141705666D01*
X113075393Y-141171666D02*
X113728060Y-141171666D01*
X113846726Y-141231000D01*
X113906060Y-141349666D01*
X113906060Y-141527666D01*
X113846726Y-141646333D01*
X113787393Y-141705666D01*
X113075393Y-140400333D02*
X113134726Y-140519000D01*
X113194060Y-140578333D01*
X113312726Y-140637666D01*
X113668726Y-140637666D01*
X113787393Y-140578333D01*
X113846726Y-140519000D01*
X113906060Y-140400333D01*
X113906060Y-140222333D01*
X113846726Y-140103666D01*
X113787393Y-140044333D01*
X113668726Y-139985000D01*
X113312726Y-139985000D01*
X113194060Y-140044333D01*
X113134726Y-140103666D01*
X113075393Y-140222333D01*
X113075393Y-140400333D01*
X113075393Y-138501666D02*
X114321393Y-138501666D01*
X113075393Y-137789666D01*
X114321393Y-137789666D01*
X114321393Y-136959000D02*
X114321393Y-136721666D01*
X114262060Y-136603000D01*
X114143393Y-136484333D01*
X113906060Y-136425000D01*
X113490726Y-136425000D01*
X113253393Y-136484333D01*
X113134726Y-136603000D01*
X113075393Y-136721666D01*
X113075393Y-136959000D01*
X113134726Y-137077666D01*
X113253393Y-137196333D01*
X113490726Y-137255666D01*
X113906060Y-137255666D01*
X114143393Y-137196333D01*
X114262060Y-137077666D01*
X114321393Y-136959000D01*
X113075393Y-135891000D02*
X114321393Y-135891000D01*
X113075393Y-135179000D01*
X114321393Y-135179000D01*
X113550060Y-134585666D02*
X113550060Y-133636333D01*
X113194060Y-132331000D02*
X113134726Y-132390333D01*
X113075393Y-132568333D01*
X113075393Y-132687000D01*
X113134726Y-132865000D01*
X113253393Y-132983666D01*
X113372060Y-133043000D01*
X113609393Y-133102333D01*
X113787393Y-133102333D01*
X114024726Y-133043000D01*
X114143393Y-132983666D01*
X114262060Y-132865000D01*
X114321393Y-132687000D01*
X114321393Y-132568333D01*
X114262060Y-132390333D01*
X114202726Y-132331000D01*
X114321393Y-131975000D02*
X113075393Y-131559666D01*
X114321393Y-131144333D01*
X113728060Y-130729000D02*
X113728060Y-130313666D01*
X113075393Y-130135666D02*
X113075393Y-130729000D01*
X114321393Y-130729000D01*
X114321393Y-130135666D01*
X114321393Y-128771000D02*
X113075393Y-128474333D01*
X113965393Y-128237000D01*
X113075393Y-127999666D01*
X114321393Y-127703000D01*
X113075393Y-127228333D02*
X113906060Y-127228333D01*
X114321393Y-127228333D02*
X114262060Y-127287666D01*
X114202726Y-127228333D01*
X114262060Y-127169000D01*
X114321393Y-127228333D01*
X114202726Y-127228333D01*
X113728060Y-126219666D02*
X113728060Y-126635000D01*
X113075393Y-126635000D02*
X114321393Y-126635000D01*
X114321393Y-126041666D01*
X113075393Y-125567000D02*
X113906060Y-125567000D01*
X114321393Y-125567000D02*
X114262060Y-125626333D01*
X114202726Y-125567000D01*
X114262060Y-125507666D01*
X114321393Y-125567000D01*
X114202726Y-125567000D01*
X113194060Y-123312333D02*
X113134726Y-123371666D01*
X113075393Y-123549666D01*
X113075393Y-123668333D01*
X113134726Y-123846333D01*
X113253393Y-123965000D01*
X113372060Y-124024333D01*
X113609393Y-124083666D01*
X113787393Y-124083666D01*
X114024726Y-124024333D01*
X114143393Y-123965000D01*
X114262060Y-123846333D01*
X114321393Y-123668333D01*
X114321393Y-123549666D01*
X114262060Y-123371666D01*
X114202726Y-123312333D01*
X113075393Y-122600333D02*
X113134726Y-122719000D01*
X113194060Y-122778333D01*
X113312726Y-122837666D01*
X113668726Y-122837666D01*
X113787393Y-122778333D01*
X113846726Y-122719000D01*
X113906060Y-122600333D01*
X113906060Y-122422333D01*
X113846726Y-122303666D01*
X113787393Y-122244333D01*
X113668726Y-122185000D01*
X113312726Y-122185000D01*
X113194060Y-122244333D01*
X113134726Y-122303666D01*
X113075393Y-122422333D01*
X113075393Y-122600333D01*
X113906060Y-121651000D02*
X113075393Y-121651000D01*
X113787393Y-121651000D02*
X113846726Y-121591666D01*
X113906060Y-121473000D01*
X113906060Y-121295000D01*
X113846726Y-121176333D01*
X113728060Y-121117000D01*
X113075393Y-121117000D01*
X113906060Y-120701666D02*
X113906060Y-120227000D01*
X114321393Y-120523666D02*
X113253393Y-120523666D01*
X113134726Y-120464333D01*
X113075393Y-120345666D01*
X113075393Y-120227000D01*
X113075393Y-119811666D02*
X113906060Y-119811666D01*
X113668726Y-119811666D02*
X113787393Y-119752333D01*
X113846726Y-119693000D01*
X113906060Y-119574333D01*
X113906060Y-119455666D01*
X113075393Y-118862333D02*
X113134726Y-118981000D01*
X113194060Y-119040333D01*
X113312726Y-119099666D01*
X113668726Y-119099666D01*
X113787393Y-119040333D01*
X113846726Y-118981000D01*
X113906060Y-118862333D01*
X113906060Y-118684333D01*
X113846726Y-118565666D01*
X113787393Y-118506333D01*
X113668726Y-118447000D01*
X113312726Y-118447000D01*
X113194060Y-118506333D01*
X113134726Y-118565666D01*
X113075393Y-118684333D01*
X113075393Y-118862333D01*
X113075393Y-117735000D02*
X113134726Y-117853666D01*
X113253393Y-117913000D01*
X114321393Y-117913000D01*
X113075393Y-117082333D02*
X113134726Y-117201000D01*
X113253393Y-117260333D01*
X114321393Y-117260333D01*
X113134726Y-116133000D02*
X113075393Y-116251666D01*
X113075393Y-116489000D01*
X113134726Y-116607666D01*
X113253393Y-116667000D01*
X113728060Y-116667000D01*
X113846726Y-116607666D01*
X113906060Y-116489000D01*
X113906060Y-116251666D01*
X113846726Y-116133000D01*
X113728060Y-116073666D01*
X113609393Y-116073666D01*
X113490726Y-116667000D01*
X113075393Y-115539666D02*
X113906060Y-115539666D01*
X113668726Y-115539666D02*
X113787393Y-115480333D01*
X113846726Y-115421000D01*
X113906060Y-115302333D01*
X113906060Y-115183666D01*
X111425333Y-144316333D02*
X111425333Y-143723000D01*
X111069333Y-144435000D02*
X112315333Y-144019666D01*
X111069333Y-143604333D01*
X111069333Y-143189000D02*
X111900000Y-143189000D01*
X111662666Y-143189000D02*
X111781333Y-143129666D01*
X111840666Y-143070333D01*
X111900000Y-142951666D01*
X111900000Y-142833000D01*
X111900000Y-142417666D02*
X110832000Y-142417666D01*
X110713333Y-142477000D01*
X110654000Y-142595666D01*
X110654000Y-142655000D01*
X112315333Y-142417666D02*
X112256000Y-142477000D01*
X112196666Y-142417666D01*
X112256000Y-142358333D01*
X112315333Y-142417666D01*
X112196666Y-142417666D01*
X111128666Y-141349666D02*
X111069333Y-141468333D01*
X111069333Y-141705666D01*
X111128666Y-141824333D01*
X111247333Y-141883666D01*
X111722000Y-141883666D01*
X111840666Y-141824333D01*
X111900000Y-141705666D01*
X111900000Y-141468333D01*
X111840666Y-141349666D01*
X111722000Y-141290333D01*
X111603333Y-141290333D01*
X111484666Y-141883666D01*
X111900000Y-140756333D02*
X111069333Y-140756333D01*
X111781333Y-140756333D02*
X111840666Y-140697000D01*
X111900000Y-140578333D01*
X111900000Y-140400333D01*
X111840666Y-140281666D01*
X111722000Y-140222333D01*
X111069333Y-140222333D01*
X111069333Y-138679666D02*
X112315333Y-138679666D01*
X111722000Y-138679666D02*
X111722000Y-137967666D01*
X111069333Y-137967666D02*
X112315333Y-137967666D01*
X111069333Y-137374333D02*
X111900000Y-137374333D01*
X112315333Y-137374333D02*
X112256000Y-137433666D01*
X112196666Y-137374333D01*
X112256000Y-137315000D01*
X112315333Y-137374333D01*
X112196666Y-137374333D01*
X111128666Y-136306333D02*
X111069333Y-136425000D01*
X111069333Y-136662333D01*
X111128666Y-136781000D01*
X111247333Y-136840333D01*
X111722000Y-136840333D01*
X111840666Y-136781000D01*
X111900000Y-136662333D01*
X111900000Y-136425000D01*
X111840666Y-136306333D01*
X111722000Y-136247000D01*
X111603333Y-136247000D01*
X111484666Y-136840333D01*
X111069333Y-135713000D02*
X111900000Y-135713000D01*
X111781333Y-135713000D02*
X111840666Y-135653666D01*
X111900000Y-135535000D01*
X111900000Y-135357000D01*
X111840666Y-135238333D01*
X111722000Y-135179000D01*
X111069333Y-135179000D01*
X111722000Y-135179000D02*
X111840666Y-135119666D01*
X111900000Y-135001000D01*
X111900000Y-134823000D01*
X111840666Y-134704333D01*
X111722000Y-134645000D01*
X111069333Y-134645000D01*
X111128666Y-134111000D02*
X111069333Y-133992333D01*
X111069333Y-133755000D01*
X111128666Y-133636333D01*
X111247333Y-133577000D01*
X111306666Y-133577000D01*
X111425333Y-133636333D01*
X111484666Y-133755000D01*
X111484666Y-133933000D01*
X111544000Y-134051666D01*
X111662666Y-134111000D01*
X111722000Y-134111000D01*
X111840666Y-134051666D01*
X111900000Y-133933000D01*
X111900000Y-133755000D01*
X111840666Y-133636333D01*
X111900000Y-133221000D02*
X111900000Y-132746333D01*
X112315333Y-133043000D02*
X111247333Y-133043000D01*
X111128666Y-132983666D01*
X111069333Y-132865000D01*
X111069333Y-132746333D01*
X111069333Y-132331000D02*
X111900000Y-132331000D01*
X111662666Y-132331000D02*
X111781333Y-132271666D01*
X111840666Y-132212333D01*
X111900000Y-132093666D01*
X111900000Y-131975000D01*
X111069333Y-131025666D02*
X111722000Y-131025666D01*
X111840666Y-131085000D01*
X111900000Y-131203666D01*
X111900000Y-131441000D01*
X111840666Y-131559666D01*
X111128666Y-131025666D02*
X111069333Y-131144333D01*
X111069333Y-131441000D01*
X111128666Y-131559666D01*
X111247333Y-131619000D01*
X111366000Y-131619000D01*
X111484666Y-131559666D01*
X111544000Y-131441000D01*
X111544000Y-131144333D01*
X111603333Y-131025666D01*
X111544000Y-129483000D02*
X111544000Y-128533666D01*
X112256000Y-126338333D02*
X112315333Y-126457000D01*
X112315333Y-126635000D01*
X112256000Y-126813000D01*
X112137333Y-126931666D01*
X112018666Y-126991000D01*
X111781333Y-127050333D01*
X111603333Y-127050333D01*
X111366000Y-126991000D01*
X111247333Y-126931666D01*
X111128666Y-126813000D01*
X111069333Y-126635000D01*
X111069333Y-126516333D01*
X111128666Y-126338333D01*
X111188000Y-126279000D01*
X111603333Y-126279000D01*
X111603333Y-126516333D01*
X111069333Y-125745000D02*
X112315333Y-125745000D01*
X111069333Y-125033000D01*
X112315333Y-125033000D01*
X112315333Y-124439666D02*
X111306666Y-124439666D01*
X111188000Y-124380333D01*
X111128666Y-124321000D01*
X111069333Y-124202333D01*
X111069333Y-123965000D01*
X111128666Y-123846333D01*
X111188000Y-123787000D01*
X111306666Y-123727666D01*
X112315333Y-123727666D01*
X112256000Y-121532333D02*
X112315333Y-121651000D01*
X112315333Y-121829000D01*
X112256000Y-122007000D01*
X112137333Y-122125666D01*
X112018666Y-122185000D01*
X111781333Y-122244333D01*
X111603333Y-122244333D01*
X111366000Y-122185000D01*
X111247333Y-122125666D01*
X111128666Y-122007000D01*
X111069333Y-121829000D01*
X111069333Y-121710333D01*
X111128666Y-121532333D01*
X111188000Y-121473000D01*
X111603333Y-121473000D01*
X111603333Y-121710333D01*
X111069333Y-120939000D02*
X112315333Y-120939000D01*
X112315333Y-120464333D01*
X112256000Y-120345666D01*
X112196666Y-120286333D01*
X112078000Y-120227000D01*
X111900000Y-120227000D01*
X111781333Y-120286333D01*
X111722000Y-120345666D01*
X111662666Y-120464333D01*
X111662666Y-120939000D01*
X111069333Y-119099666D02*
X111069333Y-119693000D01*
X112315333Y-119693000D01*
X112315333Y-117853666D02*
X112315333Y-117082333D01*
X111840666Y-117497666D01*
X111840666Y-117319666D01*
X111781333Y-117201000D01*
X111722000Y-117141666D01*
X111603333Y-117082333D01*
X111306666Y-117082333D01*
X111188000Y-117141666D01*
X111128666Y-117201000D01*
X111069333Y-117319666D01*
X111069333Y-117675666D01*
X111128666Y-117794333D01*
X111188000Y-117853666D01*
X111188000Y-116548333D02*
X111128666Y-116489000D01*
X111069333Y-116548333D01*
X111128666Y-116607666D01*
X111188000Y-116548333D01*
X111069333Y-116548333D01*
X112315333Y-115717666D02*
X112315333Y-115599000D01*
X112256000Y-115480333D01*
X112196666Y-115421000D01*
X112078000Y-115361666D01*
X111840666Y-115302333D01*
X111544000Y-115302333D01*
X111306666Y-115361666D01*
X111188000Y-115421000D01*
X111128666Y-115480333D01*
X111069333Y-115599000D01*
X111069333Y-115717666D01*
X111128666Y-115836333D01*
X111188000Y-115895666D01*
X111306666Y-115955000D01*
X111544000Y-116014333D01*
X111840666Y-116014333D01*
X112078000Y-115955000D01*
X112196666Y-115895666D01*
X112256000Y-115836333D01*
X112315333Y-115717666D01*
X109063273Y-155055666D02*
X110309273Y-155055666D01*
X109063273Y-154521666D02*
X109715940Y-154521666D01*
X109834606Y-154581000D01*
X109893940Y-154699666D01*
X109893940Y-154877666D01*
X109834606Y-154996333D01*
X109775273Y-155055666D01*
X109893940Y-154106333D02*
X109893940Y-153631666D01*
X110309273Y-153928333D02*
X109241273Y-153928333D01*
X109122606Y-153869000D01*
X109063273Y-153750333D01*
X109063273Y-153631666D01*
X109893940Y-153394333D02*
X109893940Y-152919666D01*
X110309273Y-153216333D02*
X109241273Y-153216333D01*
X109122606Y-153157000D01*
X109063273Y-153038333D01*
X109063273Y-152919666D01*
X109893940Y-152504333D02*
X108647940Y-152504333D01*
X109834606Y-152504333D02*
X109893940Y-152385666D01*
X109893940Y-152148333D01*
X109834606Y-152029666D01*
X109775273Y-151970333D01*
X109656606Y-151911000D01*
X109300606Y-151911000D01*
X109181940Y-151970333D01*
X109122606Y-152029666D01*
X109063273Y-152148333D01*
X109063273Y-152385666D01*
X109122606Y-152504333D01*
X109122606Y-151436333D02*
X109063273Y-151317666D01*
X109063273Y-151080333D01*
X109122606Y-150961666D01*
X109241273Y-150902333D01*
X109300606Y-150902333D01*
X109419273Y-150961666D01*
X109478606Y-151080333D01*
X109478606Y-151258333D01*
X109537940Y-151377000D01*
X109656606Y-151436333D01*
X109715940Y-151436333D01*
X109834606Y-151377000D01*
X109893940Y-151258333D01*
X109893940Y-151080333D01*
X109834606Y-150961666D01*
X109181940Y-150368333D02*
X109122606Y-150309000D01*
X109063273Y-150368333D01*
X109122606Y-150427666D01*
X109181940Y-150368333D01*
X109063273Y-150368333D01*
X109834606Y-150368333D02*
X109775273Y-150309000D01*
X109715940Y-150368333D01*
X109775273Y-150427666D01*
X109834606Y-150368333D01*
X109715940Y-150368333D01*
X110368606Y-148885000D02*
X108766606Y-149953000D01*
X110368606Y-147579666D02*
X108766606Y-148647666D01*
X109893940Y-146630333D02*
X108885273Y-146630333D01*
X108766606Y-146689666D01*
X108707273Y-146749000D01*
X108647940Y-146867666D01*
X108647940Y-147045666D01*
X108707273Y-147164333D01*
X109122606Y-146630333D02*
X109063273Y-146749000D01*
X109063273Y-146986333D01*
X109122606Y-147105000D01*
X109181940Y-147164333D01*
X109300606Y-147223666D01*
X109656606Y-147223666D01*
X109775273Y-147164333D01*
X109834606Y-147105000D01*
X109893940Y-146986333D01*
X109893940Y-146749000D01*
X109834606Y-146630333D01*
X109063273Y-146037000D02*
X109893940Y-146037000D01*
X110309273Y-146037000D02*
X110249940Y-146096333D01*
X110190606Y-146037000D01*
X110249940Y-145977666D01*
X110309273Y-146037000D01*
X110190606Y-146037000D01*
X109893940Y-145621666D02*
X109893940Y-145147000D01*
X110309273Y-145443666D02*
X109241273Y-145443666D01*
X109122606Y-145384333D01*
X109063273Y-145265666D01*
X109063273Y-145147000D01*
X109063273Y-144731666D02*
X110309273Y-144731666D01*
X109063273Y-144197666D02*
X109715940Y-144197666D01*
X109834606Y-144257000D01*
X109893940Y-144375666D01*
X109893940Y-144553666D01*
X109834606Y-144672333D01*
X109775273Y-144731666D01*
X109893940Y-143070333D02*
X109063273Y-143070333D01*
X109893940Y-143604333D02*
X109241273Y-143604333D01*
X109122606Y-143545000D01*
X109063273Y-143426333D01*
X109063273Y-143248333D01*
X109122606Y-143129666D01*
X109181940Y-143070333D01*
X109063273Y-142477000D02*
X110309273Y-142477000D01*
X109834606Y-142477000D02*
X109893940Y-142358333D01*
X109893940Y-142121000D01*
X109834606Y-142002333D01*
X109775273Y-141943000D01*
X109656606Y-141883666D01*
X109300606Y-141883666D01*
X109181940Y-141943000D01*
X109122606Y-142002333D01*
X109063273Y-142121000D01*
X109063273Y-142358333D01*
X109122606Y-142477000D01*
X109181940Y-141349666D02*
X109122606Y-141290333D01*
X109063273Y-141349666D01*
X109122606Y-141409000D01*
X109181940Y-141349666D01*
X109063273Y-141349666D01*
X109122606Y-140222333D02*
X109063273Y-140341000D01*
X109063273Y-140578333D01*
X109122606Y-140697000D01*
X109181940Y-140756333D01*
X109300606Y-140815666D01*
X109656606Y-140815666D01*
X109775273Y-140756333D01*
X109834606Y-140697000D01*
X109893940Y-140578333D01*
X109893940Y-140341000D01*
X109834606Y-140222333D01*
X109063273Y-139510333D02*
X109122606Y-139629000D01*
X109181940Y-139688333D01*
X109300606Y-139747666D01*
X109656606Y-139747666D01*
X109775273Y-139688333D01*
X109834606Y-139629000D01*
X109893940Y-139510333D01*
X109893940Y-139332333D01*
X109834606Y-139213666D01*
X109775273Y-139154333D01*
X109656606Y-139095000D01*
X109300606Y-139095000D01*
X109181940Y-139154333D01*
X109122606Y-139213666D01*
X109063273Y-139332333D01*
X109063273Y-139510333D01*
X109063273Y-138561000D02*
X109893940Y-138561000D01*
X109775273Y-138561000D02*
X109834606Y-138501666D01*
X109893940Y-138383000D01*
X109893940Y-138205000D01*
X109834606Y-138086333D01*
X109715940Y-138027000D01*
X109063273Y-138027000D01*
X109715940Y-138027000D02*
X109834606Y-137967666D01*
X109893940Y-137849000D01*
X109893940Y-137671000D01*
X109834606Y-137552333D01*
X109715940Y-137493000D01*
X109063273Y-137493000D01*
X110368606Y-136009666D02*
X108766606Y-137077666D01*
X109063273Y-135060333D02*
X109715940Y-135060333D01*
X109834606Y-135119666D01*
X109893940Y-135238333D01*
X109893940Y-135475666D01*
X109834606Y-135594333D01*
X109122606Y-135060333D02*
X109063273Y-135179000D01*
X109063273Y-135475666D01*
X109122606Y-135594333D01*
X109241273Y-135653666D01*
X109359940Y-135653666D01*
X109478606Y-135594333D01*
X109537940Y-135475666D01*
X109537940Y-135179000D01*
X109597273Y-135060333D01*
X109063273Y-134467000D02*
X109893940Y-134467000D01*
X109656606Y-134467000D02*
X109775273Y-134407666D01*
X109834606Y-134348333D01*
X109893940Y-134229666D01*
X109893940Y-134111000D01*
X109893940Y-133695666D02*
X108825940Y-133695666D01*
X108707273Y-133755000D01*
X108647940Y-133873666D01*
X108647940Y-133933000D01*
X110309273Y-133695666D02*
X110249940Y-133755000D01*
X110190606Y-133695666D01*
X110249940Y-133636333D01*
X110309273Y-133695666D01*
X110190606Y-133695666D01*
X109122606Y-132627666D02*
X109063273Y-132746333D01*
X109063273Y-132983666D01*
X109122606Y-133102333D01*
X109241273Y-133161666D01*
X109715940Y-133161666D01*
X109834606Y-133102333D01*
X109893940Y-132983666D01*
X109893940Y-132746333D01*
X109834606Y-132627666D01*
X109715940Y-132568333D01*
X109597273Y-132568333D01*
X109478606Y-133161666D01*
X109893940Y-132034333D02*
X109063273Y-132034333D01*
X109775273Y-132034333D02*
X109834606Y-131975000D01*
X109893940Y-131856333D01*
X109893940Y-131678333D01*
X109834606Y-131559666D01*
X109715940Y-131500333D01*
X109063273Y-131500333D01*
X109063273Y-130907000D02*
X110309273Y-130907000D01*
X109063273Y-130373000D02*
X109715940Y-130373000D01*
X109834606Y-130432333D01*
X109893940Y-130551000D01*
X109893940Y-130729000D01*
X109834606Y-130847666D01*
X109775273Y-130907000D01*
X109063273Y-129779666D02*
X109893940Y-129779666D01*
X110309273Y-129779666D02*
X110249940Y-129839000D01*
X110190606Y-129779666D01*
X110249940Y-129720333D01*
X110309273Y-129779666D01*
X110190606Y-129779666D01*
X109122606Y-128711666D02*
X109063273Y-128830333D01*
X109063273Y-129067666D01*
X109122606Y-129186333D01*
X109241273Y-129245666D01*
X109715940Y-129245666D01*
X109834606Y-129186333D01*
X109893940Y-129067666D01*
X109893940Y-128830333D01*
X109834606Y-128711666D01*
X109715940Y-128652333D01*
X109597273Y-128652333D01*
X109478606Y-129245666D01*
X109063273Y-128118333D02*
X109893940Y-128118333D01*
X109775273Y-128118333D02*
X109834606Y-128059000D01*
X109893940Y-127940333D01*
X109893940Y-127762333D01*
X109834606Y-127643666D01*
X109715940Y-127584333D01*
X109063273Y-127584333D01*
X109715940Y-127584333D02*
X109834606Y-127525000D01*
X109893940Y-127406333D01*
X109893940Y-127228333D01*
X109834606Y-127109666D01*
X109715940Y-127050333D01*
X109063273Y-127050333D01*
X109122606Y-126516333D02*
X109063273Y-126397666D01*
X109063273Y-126160333D01*
X109122606Y-126041666D01*
X109241273Y-125982333D01*
X109300606Y-125982333D01*
X109419273Y-126041666D01*
X109478606Y-126160333D01*
X109478606Y-126338333D01*
X109537940Y-126457000D01*
X109656606Y-126516333D01*
X109715940Y-126516333D01*
X109834606Y-126457000D01*
X109893940Y-126338333D01*
X109893940Y-126160333D01*
X109834606Y-126041666D01*
X109893940Y-125626333D02*
X109893940Y-125151666D01*
X110309273Y-125448333D02*
X109241273Y-125448333D01*
X109122606Y-125389000D01*
X109063273Y-125270333D01*
X109063273Y-125151666D01*
X109063273Y-124736333D02*
X109893940Y-124736333D01*
X109656606Y-124736333D02*
X109775273Y-124677000D01*
X109834606Y-124617666D01*
X109893940Y-124499000D01*
X109893940Y-124380333D01*
X109063273Y-123431000D02*
X109715940Y-123431000D01*
X109834606Y-123490333D01*
X109893940Y-123609000D01*
X109893940Y-123846333D01*
X109834606Y-123965000D01*
X109122606Y-123431000D02*
X109063273Y-123549666D01*
X109063273Y-123846333D01*
X109122606Y-123965000D01*
X109241273Y-124024333D01*
X109359940Y-124024333D01*
X109478606Y-123965000D01*
X109537940Y-123846333D01*
X109537940Y-123549666D01*
X109597273Y-123431000D01*
X110368606Y-121947666D02*
X108766606Y-123015666D01*
X109063273Y-121532333D02*
X109893940Y-121532333D01*
X110309273Y-121532333D02*
X110249940Y-121591666D01*
X110190606Y-121532333D01*
X110249940Y-121473000D01*
X110309273Y-121532333D01*
X110190606Y-121532333D01*
X109893940Y-121117000D02*
X109893940Y-120642333D01*
X110309273Y-120939000D02*
X109241273Y-120939000D01*
X109122606Y-120879666D01*
X109063273Y-120761000D01*
X109063273Y-120642333D01*
X109063273Y-120227000D02*
X110309273Y-120227000D01*
X109063273Y-119693000D02*
X109715940Y-119693000D01*
X109834606Y-119752333D01*
X109893940Y-119871000D01*
X109893940Y-120049000D01*
X109834606Y-120167666D01*
X109775273Y-120227000D01*
X109063273Y-118921666D02*
X109122606Y-119040333D01*
X109181940Y-119099666D01*
X109300606Y-119159000D01*
X109656606Y-119159000D01*
X109775273Y-119099666D01*
X109834606Y-119040333D01*
X109893940Y-118921666D01*
X109893940Y-118743666D01*
X109834606Y-118625000D01*
X109775273Y-118565666D01*
X109656606Y-118506333D01*
X109300606Y-118506333D01*
X109181940Y-118565666D01*
X109122606Y-118625000D01*
X109063273Y-118743666D01*
X109063273Y-118921666D01*
X109893940Y-118091000D02*
X109063273Y-117853666D01*
X109656606Y-117616333D01*
X109063273Y-117379000D01*
X109893940Y-117141666D01*
X109063273Y-116667000D02*
X109893940Y-116667000D01*
X110309273Y-116667000D02*
X110249940Y-116726333D01*
X110190606Y-116667000D01*
X110249940Y-116607666D01*
X110309273Y-116667000D01*
X110190606Y-116667000D01*
X109893940Y-116251666D02*
X109893940Y-115777000D01*
X109063273Y-116073666D02*
X110131273Y-116073666D01*
X110249940Y-116014333D01*
X110309273Y-115895666D01*
X110309273Y-115777000D01*
X109063273Y-115361666D02*
X109893940Y-115361666D01*
X110309273Y-115361666D02*
X110249940Y-115421000D01*
X110190606Y-115361666D01*
X110249940Y-115302333D01*
X110309273Y-115361666D01*
X110190606Y-115361666D01*
X68638363Y-119224333D02*
X69884363Y-119224333D01*
X69291030Y-119224333D02*
X69291030Y-118512333D01*
X68638363Y-118512333D02*
X69884363Y-118512333D01*
X69884363Y-118037666D02*
X68638363Y-117741000D01*
X69528363Y-117503666D01*
X68638363Y-117266333D01*
X69884363Y-116969666D01*
X68638363Y-115545666D02*
X69469030Y-115545666D01*
X69231696Y-115545666D02*
X69350363Y-115486333D01*
X69409696Y-115427000D01*
X69469030Y-115308333D01*
X69469030Y-115189666D01*
X68697696Y-114299666D02*
X68638363Y-114418333D01*
X68638363Y-114655666D01*
X68697696Y-114774333D01*
X68816363Y-114833666D01*
X69291030Y-114833666D01*
X69409696Y-114774333D01*
X69469030Y-114655666D01*
X69469030Y-114418333D01*
X69409696Y-114299666D01*
X69291030Y-114240333D01*
X69172363Y-114240333D01*
X69053696Y-114833666D01*
X69469030Y-113825000D02*
X68638363Y-113528333D01*
X69469030Y-113231666D01*
X68757030Y-112757000D02*
X68697696Y-112697666D01*
X68638363Y-112757000D01*
X68697696Y-112816333D01*
X68757030Y-112757000D01*
X68638363Y-112757000D01*
X68757030Y-112163666D02*
X68697696Y-112104333D01*
X68638363Y-112163666D01*
X68697696Y-112223000D01*
X68757030Y-112163666D01*
X68638363Y-112163666D01*
X69409696Y-112163666D02*
X69350363Y-112104333D01*
X69291030Y-112163666D01*
X69350363Y-112223000D01*
X69409696Y-112163666D01*
X69291030Y-112163666D01*
X68638363Y-109968333D02*
X68638363Y-110680333D01*
X68638363Y-110324333D02*
X69884363Y-110324333D01*
X69706363Y-110443000D01*
X69587696Y-110561666D01*
X69528363Y-110680333D01*
X67284970Y-124505000D02*
X67225636Y-124327000D01*
X67166303Y-124267666D01*
X67047636Y-124208333D01*
X66869636Y-124208333D01*
X66750970Y-124267666D01*
X66691636Y-124327000D01*
X66632303Y-124445666D01*
X66632303Y-124920333D01*
X67878303Y-124920333D01*
X67878303Y-124505000D01*
X67818970Y-124386333D01*
X67759636Y-124327000D01*
X67640970Y-124267666D01*
X67522303Y-124267666D01*
X67403636Y-124327000D01*
X67344303Y-124386333D01*
X67284970Y-124505000D01*
X67284970Y-124920333D01*
X66632303Y-123140333D02*
X67284970Y-123140333D01*
X67403636Y-123199666D01*
X67462970Y-123318333D01*
X67462970Y-123555666D01*
X67403636Y-123674333D01*
X66691636Y-123140333D02*
X66632303Y-123259000D01*
X66632303Y-123555666D01*
X66691636Y-123674333D01*
X66810303Y-123733666D01*
X66928970Y-123733666D01*
X67047636Y-123674333D01*
X67106970Y-123555666D01*
X67106970Y-123259000D01*
X67166303Y-123140333D01*
X67462970Y-122725000D02*
X67462970Y-122250333D01*
X67878303Y-122547000D02*
X66810303Y-122547000D01*
X66691636Y-122487666D01*
X66632303Y-122369000D01*
X66632303Y-122250333D01*
X66691636Y-121301000D02*
X66632303Y-121419666D01*
X66632303Y-121657000D01*
X66691636Y-121775666D01*
X66750970Y-121835000D01*
X66869636Y-121894333D01*
X67225636Y-121894333D01*
X67344303Y-121835000D01*
X67403636Y-121775666D01*
X67462970Y-121657000D01*
X67462970Y-121419666D01*
X67403636Y-121301000D01*
X66632303Y-120767000D02*
X67878303Y-120767000D01*
X66632303Y-120233000D02*
X67284970Y-120233000D01*
X67403636Y-120292333D01*
X67462970Y-120411000D01*
X67462970Y-120589000D01*
X67403636Y-120707666D01*
X67344303Y-120767000D01*
X66750970Y-119639666D02*
X66691636Y-119580333D01*
X66632303Y-119639666D01*
X66691636Y-119699000D01*
X66750970Y-119639666D01*
X66632303Y-119639666D01*
X67403636Y-119639666D02*
X67344303Y-119580333D01*
X67284970Y-119639666D01*
X67344303Y-119699000D01*
X67403636Y-119639666D01*
X67284970Y-119639666D01*
X67878303Y-117859666D02*
X67878303Y-117741000D01*
X67818970Y-117622333D01*
X67759636Y-117563000D01*
X67640970Y-117503666D01*
X67403636Y-117444333D01*
X67106970Y-117444333D01*
X66869636Y-117503666D01*
X66750970Y-117563000D01*
X66691636Y-117622333D01*
X66632303Y-117741000D01*
X66632303Y-117859666D01*
X66691636Y-117978333D01*
X66750970Y-118037666D01*
X66869636Y-118097000D01*
X67106970Y-118156333D01*
X67403636Y-118156333D01*
X67640970Y-118097000D01*
X67759636Y-118037666D01*
X67818970Y-117978333D01*
X67878303Y-117859666D01*
X67878303Y-117029000D02*
X67878303Y-116198333D01*
X66632303Y-116732333D01*
X67106970Y-115723666D02*
X67106970Y-114774333D01*
X67462970Y-113647000D02*
X66632303Y-113647000D01*
X67937636Y-113943666D02*
X67047636Y-114240333D01*
X67047636Y-113469000D01*
X67878303Y-113113000D02*
X67878303Y-112341666D01*
X67403636Y-112757000D01*
X67403636Y-112579000D01*
X67344303Y-112460333D01*
X67284970Y-112401000D01*
X67166303Y-112341666D01*
X66869636Y-112341666D01*
X66750970Y-112401000D01*
X66691636Y-112460333D01*
X66632303Y-112579000D01*
X66632303Y-112935000D01*
X66691636Y-113053666D01*
X66750970Y-113113000D01*
X67759636Y-111867000D02*
X67818970Y-111807666D01*
X67878303Y-111689000D01*
X67878303Y-111392333D01*
X67818970Y-111273666D01*
X67759636Y-111214333D01*
X67640970Y-111155000D01*
X67522303Y-111155000D01*
X67344303Y-111214333D01*
X66632303Y-111926333D01*
X66632303Y-111155000D01*
X67759636Y-110680333D02*
X67818970Y-110621000D01*
X67878303Y-110502333D01*
X67878303Y-110205666D01*
X67818970Y-110087000D01*
X67759636Y-110027666D01*
X67640970Y-109968333D01*
X67522303Y-109968333D01*
X67344303Y-110027666D01*
X66632303Y-110739666D01*
X66632303Y-109968333D01*
D12*
X104118848Y-135474298D02*
X104071229Y-135521917D01*
X104023610Y-135664774D01*
X104023610Y-135760012D01*
X104071229Y-135902869D01*
X104166467Y-135998107D01*
X104261705Y-136045726D01*
X104452181Y-136093346D01*
X104595038Y-136093346D01*
X104785514Y-136045726D01*
X104880752Y-135998107D01*
X104975991Y-135902869D01*
X105023610Y-135760012D01*
X105023610Y-135664774D01*
X104975991Y-135521917D01*
X104928371Y-135474298D01*
X104118848Y-134474298D02*
X104071229Y-134521917D01*
X104023610Y-134664774D01*
X104023610Y-134760012D01*
X104071229Y-134902869D01*
X104166467Y-134998107D01*
X104261705Y-135045726D01*
X104452181Y-135093346D01*
X104595038Y-135093346D01*
X104785514Y-135045726D01*
X104880752Y-134998107D01*
X104975991Y-134902869D01*
X105023610Y-134760012D01*
X105023610Y-134664774D01*
X104975991Y-134521917D01*
X104928371Y-134474298D01*
X104023610Y-133521917D02*
X104023610Y-134093346D01*
X104023610Y-133807631D02*
X105023610Y-133807631D01*
X104880752Y-133902869D01*
X104785514Y-133998107D01*
X104737895Y-134093346D01*
X104023610Y-132569536D02*
X104023610Y-133140965D01*
X104023610Y-132855250D02*
X105023610Y-132855250D01*
X104880752Y-132950488D01*
X104785514Y-133045726D01*
X104737895Y-133140965D01*
X105023610Y-131950488D02*
X105023610Y-131855250D01*
X104975991Y-131760012D01*
X104928371Y-131712393D01*
X104833133Y-131664774D01*
X104642657Y-131617155D01*
X104404562Y-131617155D01*
X104214086Y-131664774D01*
X104118848Y-131712393D01*
X104071229Y-131760012D01*
X104023610Y-131855250D01*
X104023610Y-131950488D01*
X104071229Y-132045726D01*
X104118848Y-132093346D01*
X104214086Y-132140965D01*
X104404562Y-132188584D01*
X104642657Y-132188584D01*
X104833133Y-132140965D01*
X104928371Y-132093346D01*
X104975991Y-132045726D01*
X105023610Y-131950488D01*
X104023610Y-130664774D02*
X104023610Y-131236203D01*
X104023610Y-130950488D02*
X105023610Y-130950488D01*
X104880752Y-131045726D01*
X104785514Y-131140965D01*
X104737895Y-131236203D01*
X104404562Y-130236203D02*
X104404562Y-129474298D01*
X104595038Y-128855250D02*
X104642657Y-128950488D01*
X104690276Y-128998107D01*
X104785514Y-129045726D01*
X104833133Y-129045726D01*
X104928371Y-128998107D01*
X104975991Y-128950488D01*
X105023610Y-128855250D01*
X105023610Y-128664774D01*
X104975991Y-128569536D01*
X104928371Y-128521917D01*
X104833133Y-128474298D01*
X104785514Y-128474298D01*
X104690276Y-128521917D01*
X104642657Y-128569536D01*
X104595038Y-128664774D01*
X104595038Y-128855250D01*
X104547419Y-128950488D01*
X104499800Y-128998107D01*
X104404562Y-129045726D01*
X104214086Y-129045726D01*
X104118848Y-128998107D01*
X104071229Y-128950488D01*
X104023610Y-128855250D01*
X104023610Y-128664774D01*
X104071229Y-128569536D01*
X104118848Y-128521917D01*
X104214086Y-128474298D01*
X104404562Y-128474298D01*
X104499800Y-128521917D01*
X104547419Y-128569536D01*
X104595038Y-128664774D01*
X105023610Y-127617155D02*
X105023610Y-127807631D01*
X104975991Y-127902869D01*
X104928371Y-127950488D01*
X104785514Y-128045726D01*
X104595038Y-128093346D01*
X104214086Y-128093346D01*
X104118848Y-128045726D01*
X104071229Y-127998107D01*
X104023610Y-127902869D01*
X104023610Y-127712393D01*
X104071229Y-127617155D01*
X104118848Y-127569536D01*
X104214086Y-127521917D01*
X104452181Y-127521917D01*
X104547419Y-127569536D01*
X104595038Y-127617155D01*
X104642657Y-127712393D01*
X104642657Y-127902869D01*
X104595038Y-127998107D01*
X104547419Y-128045726D01*
X104452181Y-128093346D01*
X104595038Y-126950488D02*
X104642657Y-127045726D01*
X104690276Y-127093346D01*
X104785514Y-127140965D01*
X104833133Y-127140965D01*
X104928371Y-127093346D01*
X104975991Y-127045726D01*
X105023610Y-126950488D01*
X105023610Y-126760012D01*
X104975991Y-126664774D01*
X104928371Y-126617155D01*
X104833133Y-126569536D01*
X104785514Y-126569536D01*
X104690276Y-126617155D01*
X104642657Y-126664774D01*
X104595038Y-126760012D01*
X104595038Y-126950488D01*
X104547419Y-127045726D01*
X104499800Y-127093346D01*
X104404562Y-127140965D01*
X104214086Y-127140965D01*
X104118848Y-127093346D01*
X104071229Y-127045726D01*
X104023610Y-126950488D01*
X104023610Y-126760012D01*
X104071229Y-126664774D01*
X104118848Y-126617155D01*
X104214086Y-126569536D01*
X104404562Y-126569536D01*
X104499800Y-126617155D01*
X104547419Y-126664774D01*
X104595038Y-126760012D01*
X104023610Y-126140965D02*
X105023610Y-126140965D01*
X104309324Y-125807631D01*
X105023610Y-125474298D01*
X104023610Y-125474298D01*
X104023610Y-124998107D02*
X105023610Y-124998107D01*
X104547419Y-124998107D02*
X104547419Y-124426679D01*
X104023610Y-124426679D02*
X105023610Y-124426679D01*
X104690276Y-124045726D02*
X104690276Y-123521917D01*
X104023610Y-124045726D01*
X104023610Y-123521917D01*
X104404562Y-123140965D02*
X104404562Y-122379060D01*
X104023610Y-121902869D02*
X105023610Y-121902869D01*
X104309324Y-121569536D01*
X105023610Y-121236203D01*
X104023610Y-121236203D01*
X104023610Y-120617155D02*
X104071229Y-120712393D01*
X104118848Y-120760012D01*
X104214086Y-120807631D01*
X104499800Y-120807631D01*
X104595038Y-120760012D01*
X104642657Y-120712393D01*
X104690276Y-120617155D01*
X104690276Y-120474298D01*
X104642657Y-120379060D01*
X104595038Y-120331441D01*
X104499800Y-120283822D01*
X104214086Y-120283822D01*
X104118848Y-120331441D01*
X104071229Y-120379060D01*
X104023610Y-120474298D01*
X104023610Y-120617155D01*
X104023610Y-119426679D02*
X105023610Y-119426679D01*
X104071229Y-119426679D02*
X104023610Y-119521917D01*
X104023610Y-119712393D01*
X104071229Y-119807631D01*
X104118848Y-119855250D01*
X104214086Y-119902869D01*
X104499800Y-119902869D01*
X104595038Y-119855250D01*
X104642657Y-119807631D01*
X104690276Y-119712393D01*
X104690276Y-119521917D01*
X104642657Y-119426679D01*
X104690276Y-118521917D02*
X104023610Y-118521917D01*
X104690276Y-118950488D02*
X104166467Y-118950488D01*
X104071229Y-118902869D01*
X104023610Y-118807631D01*
X104023610Y-118664774D01*
X104071229Y-118569536D01*
X104118848Y-118521917D01*
X104023610Y-117902869D02*
X104071229Y-117998107D01*
X104166467Y-118045726D01*
X105023610Y-118045726D01*
X104071229Y-117140965D02*
X104023610Y-117236203D01*
X104023610Y-117426679D01*
X104071229Y-117521917D01*
X104166467Y-117569536D01*
X104547419Y-117569536D01*
X104642657Y-117521917D01*
X104690276Y-117426679D01*
X104690276Y-117236203D01*
X104642657Y-117140965D01*
X104547419Y-117093346D01*
X104452181Y-117093346D01*
X104356943Y-117569536D01*
X85920000Y-117197358D02*
X85920000Y-136497358D01*
X85920000Y-136497358D02*
X86670000Y-136497358D01*
X89945000Y-117197358D02*
X85920000Y-117197358D01*
X103220000Y-136497358D02*
X103220000Y-117197358D01*
X103220000Y-117197358D02*
X97195000Y-117197358D01*
X102470000Y-136497358D02*
X103220000Y-136497358D01*
M02*
