M48
; DRILL file {KiCad (6.0.1-0)} date 2022 March 21, Monday 19:15:50
; FORMAT={-:-/ absolute / metric / decimal}
; #@! TF.CreationDate,2022-03-21T19:15:50+01:00
; #@! TF.GenerationSoftware,Kicad,Pcbnew,(6.0.1-0)
; #@! TF.FileFunction,Plated,1,4,PTH
FMAT,2
METRIC
; #@! TA.AperFunction,Plated,PTH,ViaDrill
T1C0.400
; #@! TA.AperFunction,Plated,PTH,ComponentDrill
T2C1.000
%
G90
G05
T1
X84.531Y-144.805
X85.039Y-143.561
X86.741Y-128.27
X89.154Y-138.43
X89.154Y-148.59
X89.281Y-133.35
X89.309Y-147.345
X89.408Y-115.672
X89.662Y-136.398
X91.525Y-129.295
X93.726Y-123.317
X95.148Y-139.751
X95.148Y-141.275
X95.148Y-142.799
X95.504Y-133.668
X96.647Y-139.751
X96.647Y-141.275
X96.647Y-142.799
X98.171Y-139.751
X98.171Y-141.275
X98.171Y-142.799
X98.552Y-123.317
X99.187Y-105.918
X99.187Y-107.442
X99.187Y-109.093
X99.187Y-110.871
X99.187Y-112.522
X99.187Y-114.173
X100.965Y-114.173
X101.092Y-112.014
X101.727Y-132.715
X102.432Y-138.568
X102.489Y-114.173
X103.378Y-121.92
X104.14Y-114.173
X104.902Y-126.492
X105.918Y-114.173
X106.172Y-147.32
X106.172Y-148.59
X106.849Y-137.185
X107.569Y-114.173
X108.175Y-139.725
X108.631Y-148.751
X109.132Y-127.668
X109.22Y-112.014
X109.22Y-114.173
X110.532Y-124.168
X110.532Y-134.268
X111.125Y-105.918
X111.125Y-107.442
X111.125Y-109.093
X111.125Y-110.871
X111.125Y-112.522
X111.125Y-114.173
X111.632Y-124.168
X111.632Y-134.268
X112.032Y-139.368
X112.395Y-118.872
X112.732Y-124.168
X112.732Y-134.268
X113.132Y-132.568
X115.232Y-121.539
X116.697Y-120.539
X118.618Y-127.698
X120.532Y-120.468
X120.813Y-116.687
X122.682Y-119.761
X122.682Y-127.698
T2
X85.725Y-107.798
X85.725Y-110.338
X85.725Y-112.878
X85.725Y-115.418
X85.725Y-117.958
X85.725Y-120.498
X85.725Y-123.038
X105.182Y-109.251
X111.292Y-151.928
X111.292Y-154.468
X113.832Y-151.928
X113.832Y-154.468
X116.18Y-142.951
X118.72Y-142.951
X119.507Y-130.175
X119.507Y-132.715
X119.507Y-135.255
X119.507Y-137.795
X121.26Y-142.951
X122.047Y-130.175
X122.047Y-132.715
X122.047Y-135.255
X122.047Y-137.795
T0
M30
