G04 #@! TF.GenerationSoftware,KiCad,Pcbnew,(6.0.8-1)-1*
G04 #@! TF.CreationDate,2022-12-08T10:34:48+01:00*
G04 #@! TF.ProjectId,ithowifi_4l,6974686f-7769-4666-995f-346c2e6b6963,rev?*
G04 #@! TF.SameCoordinates,Original*
G04 #@! TF.FileFunction,Legend,Top*
G04 #@! TF.FilePolarity,Positive*
%FSLAX46Y46*%
G04 Gerber Fmt 4.6, Leading zero omitted, Abs format (unit mm)*
G04 Created by KiCad (PCBNEW (6.0.8-1)-1) date 2022-12-08 10:34:48*
%MOMM*%
%LPD*%
G01*
G04 APERTURE LIST*
%ADD10C,0.150000*%
%ADD11C,0.120000*%
%ADD12C,0.223242*%
%ADD13C,0.254000*%
%ADD14C,0.100000*%
%ADD15C,0.200000*%
G04 APERTURE END LIST*
D10*
X90043000Y-118364000D02*
X90043000Y-118491000D01*
X91389905Y-119253000D02*
G75*
G03*
X91389905Y-119253000I-457905J0D01*
G01*
X93726000Y-121158000D02*
G75*
G03*
X93726000Y-121158000I-457905J0D01*
G01*
X93726000Y-119253000D02*
G75*
G03*
X93726000Y-119253000I-457905J0D01*
G01*
D11*
X99651693Y-116889581D02*
X99740710Y-116629383D01*
X102694384Y-116385188D02*
X102694384Y-116385188D01*
X101214941Y-118170605D02*
X101192894Y-118161511D01*
X100232672Y-116554961D02*
X100191605Y-116554961D01*
X104816910Y-117136774D02*
X104566364Y-118237000D01*
X100164321Y-116351558D02*
X100232672Y-116351558D01*
X99972500Y-117923361D02*
X100068964Y-118025621D01*
X102358713Y-117731286D02*
X102358713Y-117789401D01*
X100569740Y-117662655D02*
X100590964Y-117400273D01*
X99875487Y-117225267D02*
X99875487Y-117312897D01*
X101486960Y-117058542D02*
X101697805Y-117148356D01*
X99076500Y-115791031D02*
X105179825Y-115791031D01*
X102222285Y-118111067D02*
X102195000Y-118134232D01*
X100673372Y-118074389D02*
X100506078Y-118213327D01*
X101456917Y-118244722D02*
X101434869Y-118240048D01*
X101266477Y-117195499D02*
X101198405Y-117076982D01*
X102119211Y-117694050D02*
X102058297Y-117547187D01*
X101437902Y-117318130D02*
X101305339Y-117234919D01*
X100814205Y-117735147D02*
X100724629Y-117995040D01*
X104685389Y-116893696D02*
X104946907Y-116893696D01*
X100520683Y-116758923D02*
X100506626Y-116729967D01*
X101475667Y-117047772D02*
X101486960Y-117058542D01*
X102195000Y-118134232D02*
X102167715Y-118157346D01*
X102119211Y-117747237D02*
X102119211Y-117694050D01*
X101617602Y-117381528D02*
X101437902Y-117318130D01*
X103883917Y-118237000D02*
X103632000Y-118237000D01*
X101718750Y-118273119D02*
X101653157Y-118273119D01*
X99896153Y-116963139D02*
X99875487Y-117225267D01*
X100396385Y-118025875D02*
X100492570Y-117924733D01*
X100301023Y-118272865D02*
X100232672Y-118272865D01*
X104474569Y-117888360D02*
X104685389Y-116893696D01*
X100506078Y-116411096D02*
X100673372Y-116550034D01*
X101762296Y-116555266D02*
X101633309Y-116576196D01*
X100699006Y-116589709D02*
X100724629Y-116629383D01*
X101659766Y-118069716D02*
X101718750Y-118069716D01*
X100724629Y-116629383D02*
X100814205Y-116889581D01*
X102013928Y-117985388D02*
X102031292Y-117971062D01*
X100492570Y-116700757D02*
X100396385Y-116598548D01*
X101169460Y-116842997D02*
X101210806Y-116675713D01*
X100191605Y-116554961D02*
X100068964Y-116598548D01*
X99740710Y-117996107D02*
X99651693Y-117736519D01*
X100569740Y-116963139D02*
X100520683Y-116758923D01*
X100506078Y-118213327D02*
X100301023Y-118272865D01*
X101728671Y-117155824D02*
X101860136Y-117185593D01*
X101169460Y-116898928D02*
X101169460Y-116842997D01*
X101835605Y-116352117D02*
X101984160Y-116372793D01*
X101887421Y-118048481D02*
X101996286Y-117999459D01*
X101994081Y-118238372D02*
X101787371Y-118273119D01*
X103632000Y-117144241D02*
X103632000Y-116385188D01*
X101434321Y-116734692D02*
X101408687Y-116828926D01*
X101363490Y-116476983D02*
X101530231Y-116389353D01*
X102058297Y-117547187D02*
X102046171Y-117535046D01*
X100590964Y-117225267D02*
X100569740Y-116963139D01*
X100164046Y-118272865D02*
X99958997Y-118213327D01*
X106250029Y-118757639D02*
X99076500Y-118757639D01*
X99958444Y-117894456D02*
X99972500Y-117923361D01*
X102252053Y-116448586D02*
X102252053Y-116702993D01*
X100590964Y-117312897D02*
X100590964Y-117312897D01*
X101478694Y-118249395D02*
X101456917Y-118244722D01*
X100396385Y-116598548D02*
X100273464Y-116554961D01*
X102946301Y-118237000D02*
X102694384Y-118237000D01*
X99896153Y-117661538D02*
X99944382Y-117865246D01*
X105305504Y-118237000D02*
X105068471Y-118237000D01*
X103632000Y-118237000D02*
X103632000Y-117355061D01*
X102022747Y-116592452D02*
X102003723Y-116586153D01*
X102031292Y-117971062D02*
X102092750Y-117882873D01*
X102328944Y-117530372D02*
X102358713Y-117680842D01*
D10*
X90932000Y-119253000D02*
X89408000Y-119253000D01*
D11*
X102946301Y-117144241D02*
X103632000Y-117144241D01*
X102092750Y-117882873D02*
X102119211Y-117781172D01*
X100520683Y-117866617D02*
X100569740Y-117662655D01*
X100232672Y-118272865D02*
X100164046Y-118272865D01*
X101633309Y-116576196D02*
X101528859Y-116624456D01*
X99958997Y-118213327D02*
X99791703Y-118075253D01*
X101286046Y-117215361D02*
X101266477Y-117195499D01*
X101408687Y-116860371D02*
X101408687Y-116907209D01*
X105179825Y-115473531D02*
X98759000Y-115473531D01*
X104297073Y-116385188D02*
X104474569Y-117888360D01*
X105179825Y-115791031D02*
X105179825Y-115473531D01*
X105068471Y-118237000D02*
X104816910Y-117136774D01*
X104329281Y-118237000D02*
X104052878Y-116385188D01*
X99651693Y-117736519D02*
X99613654Y-117418714D01*
X102003997Y-116376958D02*
X102023570Y-116380819D01*
X100273464Y-116554961D02*
X100232672Y-116554961D01*
X100852788Y-117312897D02*
X100852788Y-117312897D01*
X102085033Y-117263571D02*
X102219800Y-117354807D01*
X105761079Y-115009371D02*
X106005274Y-115009371D01*
X101792059Y-116555266D02*
X101762296Y-116555266D01*
X99791703Y-118075253D02*
X99766343Y-118035832D01*
X101528859Y-116624456D02*
X101511770Y-116638477D01*
X100724629Y-117995040D02*
X100699006Y-118034715D01*
X100590964Y-117312897D02*
X100590964Y-117225267D01*
X101464364Y-117037003D02*
X101475667Y-117047772D01*
X101408687Y-116907209D02*
X101464364Y-117037003D01*
X100232672Y-116351558D02*
X100301023Y-116351558D01*
D10*
X90043000Y-118491000D02*
X90043000Y-122047000D01*
D11*
X101408687Y-116828926D02*
X101408687Y-116860371D01*
D10*
X91389905Y-121158000D02*
G75*
G03*
X91389905Y-121158000I-457905J0D01*
G01*
D11*
X101946954Y-117470276D02*
X101824033Y-117428925D01*
X106256633Y-115473531D02*
X106250029Y-118757639D01*
X101824033Y-117428925D02*
X101794264Y-117422321D01*
X102167715Y-118157346D02*
X101994081Y-118238372D01*
X106005274Y-115009371D02*
X105305504Y-118237000D01*
X103632000Y-116385188D02*
X103883917Y-116385188D01*
X101779659Y-116352117D02*
X101835605Y-116352117D01*
X100492570Y-117924733D02*
X100506626Y-117895827D01*
X102023570Y-116380819D02*
X102230280Y-116440611D01*
X103883917Y-116385188D02*
X103883917Y-118237000D01*
X104052878Y-116385188D02*
X104052878Y-116385188D01*
X100852788Y-117207081D02*
X100852788Y-117312897D01*
X102239648Y-117376550D02*
X102259490Y-117398089D01*
X102219800Y-117354807D02*
X102239648Y-117376550D01*
X99875487Y-117312897D02*
X99875487Y-117400019D01*
X101434869Y-118240048D02*
X101214941Y-118170605D01*
X106567529Y-115473531D02*
X106256633Y-115473531D01*
X101483104Y-118034461D02*
X101659766Y-118069716D01*
X101811353Y-116555266D02*
X101792059Y-116555266D01*
X101335657Y-116502079D02*
X101363490Y-116476983D01*
X100068964Y-116598548D02*
X99972500Y-116700757D01*
X101996286Y-117999459D02*
X102013928Y-117985388D01*
X99766343Y-118035832D02*
X99740710Y-117996107D01*
X100068964Y-118025621D02*
X100191605Y-118069462D01*
X100506626Y-117895827D02*
X100520683Y-117866617D01*
X101461885Y-118027552D02*
X101483104Y-118034461D01*
X99613654Y-117312897D02*
X99613654Y-117207081D01*
X101511770Y-116638477D02*
X101494407Y-116651989D01*
X101198405Y-117076982D02*
X101169460Y-116943327D01*
X102946301Y-116385188D02*
X102946301Y-117144241D01*
X101718750Y-118069716D02*
X101760914Y-118069716D01*
D10*
X94234000Y-122047000D02*
X94234000Y-118364000D01*
D11*
X101307819Y-116526869D02*
X101335657Y-116502079D01*
X98759000Y-119075139D02*
X106567529Y-119075139D01*
X100273464Y-118069462D02*
X100396385Y-118025875D01*
X99076500Y-118757639D02*
X99076500Y-115791031D01*
X101530231Y-116389353D02*
X101717094Y-116352117D01*
X99613654Y-117207081D02*
X99651693Y-116889581D01*
X100814205Y-116889581D02*
X100852788Y-117207081D01*
X101494407Y-116651989D02*
X101434321Y-116734692D01*
X101653157Y-118273119D02*
X101478694Y-118249395D01*
X98759000Y-115473531D02*
X98759000Y-115473531D01*
X102003723Y-116586153D02*
X101811353Y-116555266D01*
X102694384Y-118237000D02*
X102694384Y-116385188D01*
X101440661Y-118020389D02*
X101461885Y-118027552D01*
X101697805Y-117148356D02*
X101728671Y-117155824D01*
X99958444Y-116729967D02*
X99944382Y-116758923D01*
X102946301Y-117355061D02*
X102946301Y-118237000D01*
X101984160Y-116372793D02*
X102003997Y-116376958D01*
X102259490Y-117398089D02*
X102328944Y-117530372D01*
X99740710Y-116629383D02*
X99766343Y-116589709D01*
X99959820Y-116411096D02*
X100164321Y-116351558D01*
X99875487Y-117400019D02*
X99896153Y-117661538D01*
X104566364Y-118237000D02*
X104329281Y-118237000D01*
D10*
X94234000Y-118364000D02*
X90043000Y-118364000D01*
D11*
X101169460Y-116943327D02*
X101169460Y-116898928D01*
X101210806Y-116675713D02*
X101307819Y-116526869D01*
X102230280Y-116440611D02*
X102252053Y-116448891D01*
X100191605Y-118069462D02*
X100232672Y-118069462D01*
X101660599Y-117391180D02*
X101617602Y-117381528D01*
X102358713Y-117680842D02*
X102358713Y-117731286D01*
D10*
X93268095Y-121158000D02*
X94869000Y-121158000D01*
D11*
X99766343Y-116589709D02*
X99791977Y-116550034D01*
X101192894Y-118161511D02*
X101192894Y-117894964D01*
X101903408Y-117195499D02*
X102085033Y-117263571D01*
X102252053Y-116702993D02*
X102233029Y-116690597D01*
X103632000Y-117355061D02*
X102946301Y-117355061D01*
X99791977Y-116550034D02*
X99959820Y-116411096D01*
X100301023Y-116351558D02*
X100506078Y-116411096D01*
X98759000Y-115473531D02*
X98759000Y-119075139D01*
X100852788Y-117418460D02*
X100814205Y-117735147D01*
X99944382Y-116758923D02*
X99896153Y-116963139D01*
D10*
X90932000Y-121158000D02*
X89281000Y-121158000D01*
D11*
X102034040Y-117522651D02*
X101946954Y-117470276D01*
X102041762Y-116598548D02*
X102022747Y-116592452D01*
X101305339Y-117234919D02*
X101286046Y-117215361D01*
X102358713Y-117789401D02*
X102317646Y-117963899D01*
X101717094Y-116352117D02*
X101779659Y-116352117D01*
X101216592Y-117909848D02*
X101440661Y-118020389D01*
X102046171Y-117535046D02*
X102034040Y-117522651D01*
X101787371Y-118273119D02*
X101718750Y-118273119D01*
X104052878Y-116385188D02*
X104297073Y-116385188D01*
X102694384Y-116385188D02*
X102946301Y-116385188D01*
X106567529Y-119075139D02*
X106567529Y-115473531D01*
X104946907Y-116893696D02*
X105160267Y-117890849D01*
X100673372Y-116550034D02*
X100699006Y-116589709D01*
D10*
X93268095Y-119253000D02*
X94869000Y-119253000D01*
D11*
X102233029Y-116690597D02*
X102041762Y-116598548D01*
X99613654Y-117418714D02*
X99613654Y-117312897D01*
X100699006Y-118034715D02*
X100673372Y-118074389D01*
X102317646Y-117963899D02*
X102222285Y-118111067D01*
X101794264Y-117422321D02*
X101660599Y-117391180D01*
X100852788Y-117312897D02*
X100852788Y-117418460D01*
D10*
X90043000Y-122047000D02*
X94234000Y-122047000D01*
D11*
X102252053Y-116448891D02*
X102252053Y-116448586D01*
X101760914Y-118069716D02*
X101887421Y-118048481D01*
X101192894Y-117894964D02*
X101216592Y-117909848D01*
X99972500Y-116700757D02*
X99958444Y-116729967D01*
X105160267Y-117890849D02*
X105761079Y-115009371D01*
X101860136Y-117185593D02*
X101903408Y-117195499D01*
X99944382Y-117865246D02*
X99958444Y-117894456D01*
X100232672Y-118069462D02*
X100273464Y-118069462D01*
X102119211Y-117781172D02*
X102119211Y-117747237D01*
X100590964Y-117400273D02*
X100590964Y-117312897D01*
X100506626Y-116729967D02*
X100492570Y-116700757D01*
D10*
X77905123Y-154608161D02*
X78047980Y-154655780D01*
X78286076Y-154655780D01*
X78381314Y-154608161D01*
X78428933Y-154560542D01*
X78476552Y-154465304D01*
X78476552Y-154370066D01*
X78428933Y-154274828D01*
X78381314Y-154227209D01*
X78286076Y-154179590D01*
X78095600Y-154131971D01*
X78000361Y-154084352D01*
X77952742Y-154036733D01*
X77905123Y-153941495D01*
X77905123Y-153846257D01*
X77952742Y-153751019D01*
X78000361Y-153703400D01*
X78095600Y-153655780D01*
X78333695Y-153655780D01*
X78476552Y-153703400D01*
X79476552Y-154560542D02*
X79428933Y-154608161D01*
X79286076Y-154655780D01*
X79190838Y-154655780D01*
X79047980Y-154608161D01*
X78952742Y-154512923D01*
X78905123Y-154417685D01*
X78857504Y-154227209D01*
X78857504Y-154084352D01*
X78905123Y-153893876D01*
X78952742Y-153798638D01*
X79047980Y-153703400D01*
X79190838Y-153655780D01*
X79286076Y-153655780D01*
X79428933Y-153703400D01*
X79476552Y-153751019D01*
X80381314Y-154655780D02*
X79905123Y-154655780D01*
X79905123Y-153655780D01*
X77881314Y-152068161D02*
X78024171Y-152115780D01*
X78262266Y-152115780D01*
X78357504Y-152068161D01*
X78405123Y-152020542D01*
X78452742Y-151925304D01*
X78452742Y-151830066D01*
X78405123Y-151734828D01*
X78357504Y-151687209D01*
X78262266Y-151639590D01*
X78071790Y-151591971D01*
X77976552Y-151544352D01*
X77928933Y-151496733D01*
X77881314Y-151401495D01*
X77881314Y-151306257D01*
X77928933Y-151211019D01*
X77976552Y-151163400D01*
X78071790Y-151115780D01*
X78309885Y-151115780D01*
X78452742Y-151163400D01*
X78881314Y-152115780D02*
X78881314Y-151115780D01*
X79119409Y-151115780D01*
X79262266Y-151163400D01*
X79357504Y-151258638D01*
X79405123Y-151353876D01*
X79452742Y-151544352D01*
X79452742Y-151687209D01*
X79405123Y-151877685D01*
X79357504Y-151972923D01*
X79262266Y-152068161D01*
X79119409Y-152115780D01*
X78881314Y-152115780D01*
X79833695Y-151830066D02*
X80309885Y-151830066D01*
X79738457Y-152115780D02*
X80071790Y-151115780D01*
X80405123Y-152115780D01*
X68808695Y-151036400D02*
X68713457Y-150988780D01*
X68570600Y-150988780D01*
X68427742Y-151036400D01*
X68332504Y-151131638D01*
X68284885Y-151226876D01*
X68237266Y-151417352D01*
X68237266Y-151560209D01*
X68284885Y-151750685D01*
X68332504Y-151845923D01*
X68427742Y-151941161D01*
X68570600Y-151988780D01*
X68665838Y-151988780D01*
X68808695Y-151941161D01*
X68856314Y-151893542D01*
X68856314Y-151560209D01*
X68665838Y-151560209D01*
X69284885Y-151988780D02*
X69284885Y-150988780D01*
X69856314Y-151988780D01*
X69856314Y-150988780D01*
X70332504Y-151988780D02*
X70332504Y-150988780D01*
X70570600Y-150988780D01*
X70713457Y-151036400D01*
X70808695Y-151131638D01*
X70856314Y-151226876D01*
X70903933Y-151417352D01*
X70903933Y-151560209D01*
X70856314Y-151750685D01*
X70808695Y-151845923D01*
X70713457Y-151941161D01*
X70570600Y-151988780D01*
X70332504Y-151988780D01*
X68507123Y-153655780D02*
X69126171Y-153655780D01*
X68792838Y-154036733D01*
X68935695Y-154036733D01*
X69030933Y-154084352D01*
X69078552Y-154131971D01*
X69126171Y-154227209D01*
X69126171Y-154465304D01*
X69078552Y-154560542D01*
X69030933Y-154608161D01*
X68935695Y-154655780D01*
X68649980Y-154655780D01*
X68554742Y-154608161D01*
X68507123Y-154560542D01*
X69459504Y-153989114D02*
X69697600Y-154655780D01*
X69935695Y-153989114D01*
X70221409Y-153655780D02*
X70840457Y-153655780D01*
X70507123Y-154036733D01*
X70649980Y-154036733D01*
X70745219Y-154084352D01*
X70792838Y-154131971D01*
X70840457Y-154227209D01*
X70840457Y-154465304D01*
X70792838Y-154560542D01*
X70745219Y-154608161D01*
X70649980Y-154655780D01*
X70364266Y-154655780D01*
X70269028Y-154608161D01*
X70221409Y-154560542D01*
X86868095Y-118753000D02*
X86772857Y-118705380D01*
X86630000Y-118705380D01*
X86487142Y-118753000D01*
X86391904Y-118848238D01*
X86344285Y-118943476D01*
X86296666Y-119133952D01*
X86296666Y-119276809D01*
X86344285Y-119467285D01*
X86391904Y-119562523D01*
X86487142Y-119657761D01*
X86630000Y-119705380D01*
X86725238Y-119705380D01*
X86868095Y-119657761D01*
X86915714Y-119610142D01*
X86915714Y-119276809D01*
X86725238Y-119276809D01*
X87344285Y-119705380D02*
X87344285Y-118705380D01*
X87915714Y-119705380D01*
X87915714Y-118705380D01*
X88391904Y-119705380D02*
X88391904Y-118705380D01*
X88630000Y-118705380D01*
X88772857Y-118753000D01*
X88868095Y-118848238D01*
X88915714Y-118943476D01*
X88963333Y-119133952D01*
X88963333Y-119276809D01*
X88915714Y-119467285D01*
X88868095Y-119562523D01*
X88772857Y-119657761D01*
X88630000Y-119705380D01*
X88391904Y-119705380D01*
X86439523Y-120610380D02*
X87058571Y-120610380D01*
X86725238Y-120991333D01*
X86868095Y-120991333D01*
X86963333Y-121038952D01*
X87010952Y-121086571D01*
X87058571Y-121181809D01*
X87058571Y-121419904D01*
X87010952Y-121515142D01*
X86963333Y-121562761D01*
X86868095Y-121610380D01*
X86582380Y-121610380D01*
X86487142Y-121562761D01*
X86439523Y-121515142D01*
X87391904Y-120943714D02*
X87630000Y-121610380D01*
X87868095Y-120943714D01*
X88153809Y-120610380D02*
X88772857Y-120610380D01*
X88439523Y-120991333D01*
X88582380Y-120991333D01*
X88677619Y-121038952D01*
X88725238Y-121086571D01*
X88772857Y-121181809D01*
X88772857Y-121419904D01*
X88725238Y-121515142D01*
X88677619Y-121562761D01*
X88582380Y-121610380D01*
X88296666Y-121610380D01*
X88201428Y-121562761D01*
X88153809Y-121515142D01*
X95845333Y-119705380D02*
X95512000Y-119229190D01*
X95273904Y-119705380D02*
X95273904Y-118705380D01*
X95654857Y-118705380D01*
X95750095Y-118753000D01*
X95797714Y-118800619D01*
X95845333Y-118895857D01*
X95845333Y-119038714D01*
X95797714Y-119133952D01*
X95750095Y-119181571D01*
X95654857Y-119229190D01*
X95273904Y-119229190D01*
X96178666Y-118705380D02*
X96845333Y-119705380D01*
X96845333Y-118705380D02*
X96178666Y-119705380D01*
X95250095Y-120610380D02*
X95821523Y-120610380D01*
X95535809Y-121610380D02*
X95535809Y-120610380D01*
X96059619Y-120610380D02*
X96726285Y-121610380D01*
X96726285Y-120610380D02*
X96059619Y-121610380D01*
X89963666Y-117054380D02*
X89963666Y-117768666D01*
X89916047Y-117911523D01*
X89820809Y-118006761D01*
X89677952Y-118054380D01*
X89582714Y-118054380D01*
X90868428Y-117387714D02*
X90868428Y-118054380D01*
X90630333Y-117006761D02*
X90392238Y-117721047D01*
X91011285Y-117721047D01*
D12*
X99427132Y-121050837D02*
X99427132Y-119264897D01*
X100345616Y-121050837D01*
X100345616Y-119264897D01*
X101876421Y-121050837D02*
X101111019Y-121050837D01*
X101111019Y-119264897D01*
X103177606Y-119264897D02*
X102412203Y-119264897D01*
X102335663Y-120115344D01*
X102412203Y-120030300D01*
X102565284Y-119945255D01*
X102947985Y-119945255D01*
X103101066Y-120030300D01*
X103177606Y-120115344D01*
X103254147Y-120285434D01*
X103254147Y-120710658D01*
X103177606Y-120880747D01*
X103101066Y-120965792D01*
X102947985Y-121050837D01*
X102565284Y-121050837D01*
X102412203Y-120965792D01*
X102335663Y-120880747D01*
D10*
X86288571Y-149470380D02*
X86288571Y-149137047D01*
X86812380Y-148994190D02*
X86812380Y-149470380D01*
X85812380Y-149470380D01*
X85812380Y-148994190D01*
X86764761Y-148613238D02*
X86812380Y-148470380D01*
X86812380Y-148232285D01*
X86764761Y-148137047D01*
X86717142Y-148089428D01*
X86621904Y-148041809D01*
X86526666Y-148041809D01*
X86431428Y-148089428D01*
X86383809Y-148137047D01*
X86336190Y-148232285D01*
X86288571Y-148422761D01*
X86240952Y-148518000D01*
X86193333Y-148565619D01*
X86098095Y-148613238D01*
X86002857Y-148613238D01*
X85907619Y-148565619D01*
X85860000Y-148518000D01*
X85812380Y-148422761D01*
X85812380Y-148184666D01*
X85860000Y-148041809D01*
X86812380Y-147613238D02*
X85812380Y-147613238D01*
X85812380Y-147232285D01*
X85860000Y-147137047D01*
X85907619Y-147089428D01*
X86002857Y-147041809D01*
X86145714Y-147041809D01*
X86240952Y-147089428D01*
X86288571Y-147137047D01*
X86336190Y-147232285D01*
X86336190Y-147613238D01*
X85812380Y-146708476D02*
X85812380Y-146089428D01*
X86193333Y-146422761D01*
X86193333Y-146279904D01*
X86240952Y-146184666D01*
X86288571Y-146137047D01*
X86383809Y-146089428D01*
X86621904Y-146089428D01*
X86717142Y-146137047D01*
X86764761Y-146184666D01*
X86812380Y-146279904D01*
X86812380Y-146565619D01*
X86764761Y-146660857D01*
X86717142Y-146708476D01*
X85907619Y-145708476D02*
X85860000Y-145660857D01*
X85812380Y-145565619D01*
X85812380Y-145327523D01*
X85860000Y-145232285D01*
X85907619Y-145184666D01*
X86002857Y-145137047D01*
X86098095Y-145137047D01*
X86240952Y-145184666D01*
X86812380Y-145756095D01*
X86812380Y-145137047D01*
X86431428Y-144708476D02*
X86431428Y-143946571D01*
X85812380Y-143565619D02*
X86812380Y-143327523D01*
X86098095Y-143137047D01*
X86812380Y-142946571D01*
X85812380Y-142708476D01*
X86812380Y-141756095D02*
X86336190Y-142089428D01*
X86812380Y-142327523D02*
X85812380Y-142327523D01*
X85812380Y-141946571D01*
X85860000Y-141851333D01*
X85907619Y-141803714D01*
X86002857Y-141756095D01*
X86145714Y-141756095D01*
X86240952Y-141803714D01*
X86288571Y-141851333D01*
X86336190Y-141946571D01*
X86336190Y-142327523D01*
X85812380Y-141137047D02*
X85812380Y-140946571D01*
X85860000Y-140851333D01*
X85955238Y-140756095D01*
X86145714Y-140708476D01*
X86479047Y-140708476D01*
X86669523Y-140756095D01*
X86764761Y-140851333D01*
X86812380Y-140946571D01*
X86812380Y-141137047D01*
X86764761Y-141232285D01*
X86669523Y-141327523D01*
X86479047Y-141375142D01*
X86145714Y-141375142D01*
X85955238Y-141327523D01*
X85860000Y-141232285D01*
X85812380Y-141137047D01*
X85812380Y-140089428D02*
X85812380Y-139898952D01*
X85860000Y-139803714D01*
X85955238Y-139708476D01*
X86145714Y-139660857D01*
X86479047Y-139660857D01*
X86669523Y-139708476D01*
X86764761Y-139803714D01*
X86812380Y-139898952D01*
X86812380Y-140089428D01*
X86764761Y-140184666D01*
X86669523Y-140279904D01*
X86479047Y-140327523D01*
X86145714Y-140327523D01*
X85955238Y-140279904D01*
X85860000Y-140184666D01*
X85812380Y-140089428D01*
X86812380Y-139232285D02*
X85812380Y-139232285D01*
X86526666Y-138898952D01*
X85812380Y-138565619D01*
X86812380Y-138565619D01*
X112751142Y-140186380D02*
X112417809Y-139710190D01*
X112179714Y-140186380D02*
X112179714Y-139186380D01*
X112560666Y-139186380D01*
X112655904Y-139234000D01*
X112703523Y-139281619D01*
X112751142Y-139376857D01*
X112751142Y-139519714D01*
X112703523Y-139614952D01*
X112655904Y-139662571D01*
X112560666Y-139710190D01*
X112179714Y-139710190D01*
X113703523Y-140186380D02*
X113132095Y-140186380D01*
X113417809Y-140186380D02*
X113417809Y-139186380D01*
X113322571Y-139329238D01*
X113227333Y-139424476D01*
X113132095Y-139472095D01*
X114322571Y-139186380D02*
X114417809Y-139186380D01*
X114513047Y-139234000D01*
X114560666Y-139281619D01*
X114608285Y-139376857D01*
X114655904Y-139567333D01*
X114655904Y-139805428D01*
X114608285Y-139995904D01*
X114560666Y-140091142D01*
X114513047Y-140138761D01*
X114417809Y-140186380D01*
X114322571Y-140186380D01*
X114227333Y-140138761D01*
X114179714Y-140091142D01*
X114132095Y-139995904D01*
X114084476Y-139805428D01*
X114084476Y-139567333D01*
X114132095Y-139376857D01*
X114179714Y-139281619D01*
X114227333Y-139234000D01*
X114322571Y-139186380D01*
X72183666Y-148677380D02*
X72183666Y-149391666D01*
X72136047Y-149534523D01*
X72040809Y-149629761D01*
X71897952Y-149677380D01*
X71802714Y-149677380D01*
X73136047Y-148677380D02*
X72659857Y-148677380D01*
X72612238Y-149153571D01*
X72659857Y-149105952D01*
X72755095Y-149058333D01*
X72993190Y-149058333D01*
X73088428Y-149105952D01*
X73136047Y-149153571D01*
X73183666Y-149248809D01*
X73183666Y-149486904D01*
X73136047Y-149582142D01*
X73088428Y-149629761D01*
X72993190Y-149677380D01*
X72755095Y-149677380D01*
X72659857Y-149629761D01*
X72612238Y-149582142D01*
X80351333Y-130278142D02*
X80303714Y-130325761D01*
X80160857Y-130373380D01*
X80065619Y-130373380D01*
X79922761Y-130325761D01*
X79827523Y-130230523D01*
X79779904Y-130135285D01*
X79732285Y-129944809D01*
X79732285Y-129801952D01*
X79779904Y-129611476D01*
X79827523Y-129516238D01*
X79922761Y-129421000D01*
X80065619Y-129373380D01*
X80160857Y-129373380D01*
X80303714Y-129421000D01*
X80351333Y-129468619D01*
X81256095Y-129373380D02*
X80779904Y-129373380D01*
X80732285Y-129849571D01*
X80779904Y-129801952D01*
X80875142Y-129754333D01*
X81113238Y-129754333D01*
X81208476Y-129801952D01*
X81256095Y-129849571D01*
X81303714Y-129944809D01*
X81303714Y-130182904D01*
X81256095Y-130278142D01*
X81208476Y-130325761D01*
X81113238Y-130373380D01*
X80875142Y-130373380D01*
X80779904Y-130325761D01*
X80732285Y-130278142D01*
X112831642Y-145168880D02*
X112498309Y-144692690D01*
X112260214Y-145168880D02*
X112260214Y-144168880D01*
X112641166Y-144168880D01*
X112736404Y-144216500D01*
X112784023Y-144264119D01*
X112831642Y-144359357D01*
X112831642Y-144502214D01*
X112784023Y-144597452D01*
X112736404Y-144645071D01*
X112641166Y-144692690D01*
X112260214Y-144692690D01*
X113784023Y-145168880D02*
X113212595Y-145168880D01*
X113498309Y-145168880D02*
X113498309Y-144168880D01*
X113403071Y-144311738D01*
X113307833Y-144406976D01*
X113212595Y-144454595D01*
X114164976Y-144264119D02*
X114212595Y-144216500D01*
X114307833Y-144168880D01*
X114545928Y-144168880D01*
X114641166Y-144216500D01*
X114688785Y-144264119D01*
X114736404Y-144359357D01*
X114736404Y-144454595D01*
X114688785Y-144597452D01*
X114117357Y-145168880D01*
X114736404Y-145168880D01*
X88644642Y-129957380D02*
X88311309Y-129481190D01*
X88073214Y-129957380D02*
X88073214Y-128957380D01*
X88454166Y-128957380D01*
X88549404Y-129005000D01*
X88597023Y-129052619D01*
X88644642Y-129147857D01*
X88644642Y-129290714D01*
X88597023Y-129385952D01*
X88549404Y-129433571D01*
X88454166Y-129481190D01*
X88073214Y-129481190D01*
X89597023Y-129957380D02*
X89025595Y-129957380D01*
X89311309Y-129957380D02*
X89311309Y-128957380D01*
X89216071Y-129100238D01*
X89120833Y-129195476D01*
X89025595Y-129243095D01*
X89930357Y-128957380D02*
X90549404Y-128957380D01*
X90216071Y-129338333D01*
X90358928Y-129338333D01*
X90454166Y-129385952D01*
X90501785Y-129433571D01*
X90549404Y-129528809D01*
X90549404Y-129766904D01*
X90501785Y-129862142D01*
X90454166Y-129909761D01*
X90358928Y-129957380D01*
X90073214Y-129957380D01*
X89977976Y-129909761D01*
X89930357Y-129862142D01*
X53870266Y-114793780D02*
X53870266Y-115508066D01*
X53822647Y-115650923D01*
X53727409Y-115746161D01*
X53584552Y-115793780D01*
X53489314Y-115793780D01*
X54870266Y-115793780D02*
X54298838Y-115793780D01*
X54584552Y-115793780D02*
X54584552Y-114793780D01*
X54489314Y-114936638D01*
X54394076Y-115031876D01*
X54298838Y-115079495D01*
X112719333Y-147774642D02*
X112671714Y-147822261D01*
X112528857Y-147869880D01*
X112433619Y-147869880D01*
X112290761Y-147822261D01*
X112195523Y-147727023D01*
X112147904Y-147631785D01*
X112100285Y-147441309D01*
X112100285Y-147298452D01*
X112147904Y-147107976D01*
X112195523Y-147012738D01*
X112290761Y-146917500D01*
X112433619Y-146869880D01*
X112528857Y-146869880D01*
X112671714Y-146917500D01*
X112719333Y-146965119D01*
X113052666Y-146869880D02*
X113719333Y-146869880D01*
X113290761Y-147869880D01*
X73945761Y-142152619D02*
X73850523Y-142105000D01*
X73755285Y-142009761D01*
X73612428Y-141866904D01*
X73517190Y-141819285D01*
X73421952Y-141819285D01*
X73469571Y-142057380D02*
X73374333Y-142009761D01*
X73279095Y-141914523D01*
X73231476Y-141724047D01*
X73231476Y-141390714D01*
X73279095Y-141200238D01*
X73374333Y-141105000D01*
X73469571Y-141057380D01*
X73660047Y-141057380D01*
X73755285Y-141105000D01*
X73850523Y-141200238D01*
X73898142Y-141390714D01*
X73898142Y-141724047D01*
X73850523Y-141914523D01*
X73755285Y-142009761D01*
X73660047Y-142057380D01*
X73469571Y-142057380D01*
X74279095Y-141152619D02*
X74326714Y-141105000D01*
X74421952Y-141057380D01*
X74660047Y-141057380D01*
X74755285Y-141105000D01*
X74802904Y-141152619D01*
X74850523Y-141247857D01*
X74850523Y-141343095D01*
X74802904Y-141485952D01*
X74231476Y-142057380D01*
X74850523Y-142057380D01*
X73945761Y-146216619D02*
X73850523Y-146169000D01*
X73755285Y-146073761D01*
X73612428Y-145930904D01*
X73517190Y-145883285D01*
X73421952Y-145883285D01*
X73469571Y-146121380D02*
X73374333Y-146073761D01*
X73279095Y-145978523D01*
X73231476Y-145788047D01*
X73231476Y-145454714D01*
X73279095Y-145264238D01*
X73374333Y-145169000D01*
X73469571Y-145121380D01*
X73660047Y-145121380D01*
X73755285Y-145169000D01*
X73850523Y-145264238D01*
X73898142Y-145454714D01*
X73898142Y-145788047D01*
X73850523Y-145978523D01*
X73755285Y-146073761D01*
X73660047Y-146121380D01*
X73469571Y-146121380D01*
X74850523Y-146121380D02*
X74279095Y-146121380D01*
X74564809Y-146121380D02*
X74564809Y-145121380D01*
X74469571Y-145264238D01*
X74374333Y-145359476D01*
X74279095Y-145407095D01*
X83018333Y-147772380D02*
X82685000Y-147296190D01*
X82446904Y-147772380D02*
X82446904Y-146772380D01*
X82827857Y-146772380D01*
X82923095Y-146820000D01*
X82970714Y-146867619D01*
X83018333Y-146962857D01*
X83018333Y-147105714D01*
X82970714Y-147200952D01*
X82923095Y-147248571D01*
X82827857Y-147296190D01*
X82446904Y-147296190D01*
X83970714Y-147772380D02*
X83399285Y-147772380D01*
X83685000Y-147772380D02*
X83685000Y-146772380D01*
X83589761Y-146915238D01*
X83494523Y-147010476D01*
X83399285Y-147058095D01*
X83018333Y-143708380D02*
X82685000Y-143232190D01*
X82446904Y-143708380D02*
X82446904Y-142708380D01*
X82827857Y-142708380D01*
X82923095Y-142756000D01*
X82970714Y-142803619D01*
X83018333Y-142898857D01*
X83018333Y-143041714D01*
X82970714Y-143136952D01*
X82923095Y-143184571D01*
X82827857Y-143232190D01*
X82446904Y-143232190D01*
X83399285Y-142803619D02*
X83446904Y-142756000D01*
X83542142Y-142708380D01*
X83780238Y-142708380D01*
X83875476Y-142756000D01*
X83923095Y-142803619D01*
X83970714Y-142898857D01*
X83970714Y-142994095D01*
X83923095Y-143136952D01*
X83351666Y-143708380D01*
X83970714Y-143708380D01*
X68667333Y-147772380D02*
X68334000Y-147296190D01*
X68095904Y-147772380D02*
X68095904Y-146772380D01*
X68476857Y-146772380D01*
X68572095Y-146820000D01*
X68619714Y-146867619D01*
X68667333Y-146962857D01*
X68667333Y-147105714D01*
X68619714Y-147200952D01*
X68572095Y-147248571D01*
X68476857Y-147296190D01*
X68095904Y-147296190D01*
X69000666Y-146772380D02*
X69619714Y-146772380D01*
X69286380Y-147153333D01*
X69429238Y-147153333D01*
X69524476Y-147200952D01*
X69572095Y-147248571D01*
X69619714Y-147343809D01*
X69619714Y-147581904D01*
X69572095Y-147677142D01*
X69524476Y-147724761D01*
X69429238Y-147772380D01*
X69143523Y-147772380D01*
X69048285Y-147724761D01*
X69000666Y-147677142D01*
X68286333Y-128976380D02*
X67953000Y-128500190D01*
X67714904Y-128976380D02*
X67714904Y-127976380D01*
X68095857Y-127976380D01*
X68191095Y-128024000D01*
X68238714Y-128071619D01*
X68286333Y-128166857D01*
X68286333Y-128309714D01*
X68238714Y-128404952D01*
X68191095Y-128452571D01*
X68095857Y-128500190D01*
X67714904Y-128500190D01*
X69191095Y-127976380D02*
X68714904Y-127976380D01*
X68667285Y-128452571D01*
X68714904Y-128404952D01*
X68810142Y-128357333D01*
X69048238Y-128357333D01*
X69143476Y-128404952D01*
X69191095Y-128452571D01*
X69238714Y-128547809D01*
X69238714Y-128785904D01*
X69191095Y-128881142D01*
X69143476Y-128928761D01*
X69048238Y-128976380D01*
X68810142Y-128976380D01*
X68714904Y-128928761D01*
X68667285Y-128881142D01*
X82296095Y-112736380D02*
X82296095Y-113545904D01*
X82343714Y-113641142D01*
X82391333Y-113688761D01*
X82486571Y-113736380D01*
X82677047Y-113736380D01*
X82772285Y-113688761D01*
X82819904Y-113641142D01*
X82867523Y-113545904D01*
X82867523Y-112736380D01*
X83772285Y-113069714D02*
X83772285Y-113736380D01*
X83534190Y-112688761D02*
X83296095Y-113403047D01*
X83915142Y-113403047D01*
X62079633Y-151429980D02*
X61746300Y-150953790D01*
X61508204Y-151429980D02*
X61508204Y-150429980D01*
X61889157Y-150429980D01*
X61984395Y-150477600D01*
X62032014Y-150525219D01*
X62079633Y-150620457D01*
X62079633Y-150763314D01*
X62032014Y-150858552D01*
X61984395Y-150906171D01*
X61889157Y-150953790D01*
X61508204Y-150953790D01*
X62936776Y-150429980D02*
X62746300Y-150429980D01*
X62651061Y-150477600D01*
X62603442Y-150525219D01*
X62508204Y-150668076D01*
X62460585Y-150858552D01*
X62460585Y-151239504D01*
X62508204Y-151334742D01*
X62555823Y-151382361D01*
X62651061Y-151429980D01*
X62841538Y-151429980D01*
X62936776Y-151382361D01*
X62984395Y-151334742D01*
X63032014Y-151239504D01*
X63032014Y-151001409D01*
X62984395Y-150906171D01*
X62936776Y-150858552D01*
X62841538Y-150810933D01*
X62651061Y-150810933D01*
X62555823Y-150858552D01*
X62508204Y-150906171D01*
X62460585Y-151001409D01*
X74549095Y-126960380D02*
X74549095Y-127769904D01*
X74596714Y-127865142D01*
X74644333Y-127912761D01*
X74739571Y-127960380D01*
X74930047Y-127960380D01*
X75025285Y-127912761D01*
X75072904Y-127865142D01*
X75120523Y-127769904D01*
X75120523Y-126960380D01*
X76072904Y-126960380D02*
X75596714Y-126960380D01*
X75549095Y-127436571D01*
X75596714Y-127388952D01*
X75691952Y-127341333D01*
X75930047Y-127341333D01*
X76025285Y-127388952D01*
X76072904Y-127436571D01*
X76120523Y-127531809D01*
X76120523Y-127769904D01*
X76072904Y-127865142D01*
X76025285Y-127912761D01*
X75930047Y-127960380D01*
X75691952Y-127960380D01*
X75596714Y-127912761D01*
X75549095Y-127865142D01*
D13*
X56327523Y-149076833D02*
X57234666Y-149076833D01*
X57416095Y-149137309D01*
X57537047Y-149258261D01*
X57597523Y-149439690D01*
X57597523Y-149560642D01*
X56448476Y-148532547D02*
X56388000Y-148472071D01*
X56327523Y-148351119D01*
X56327523Y-148048738D01*
X56388000Y-147927785D01*
X56448476Y-147867309D01*
X56569428Y-147806833D01*
X56690380Y-147806833D01*
X56871809Y-147867309D01*
X57597523Y-148593023D01*
X57597523Y-147806833D01*
D10*
X68667333Y-143708380D02*
X68334000Y-143232190D01*
X68095904Y-143708380D02*
X68095904Y-142708380D01*
X68476857Y-142708380D01*
X68572095Y-142756000D01*
X68619714Y-142803619D01*
X68667333Y-142898857D01*
X68667333Y-143041714D01*
X68619714Y-143136952D01*
X68572095Y-143184571D01*
X68476857Y-143232190D01*
X68095904Y-143232190D01*
X69524476Y-143041714D02*
X69524476Y-143708380D01*
X69286380Y-142660761D02*
X69048285Y-143375047D01*
X69667333Y-143375047D01*
X80478333Y-140565142D02*
X80430714Y-140612761D01*
X80287857Y-140660380D01*
X80192619Y-140660380D01*
X80049761Y-140612761D01*
X79954523Y-140517523D01*
X79906904Y-140422285D01*
X79859285Y-140231809D01*
X79859285Y-140088952D01*
X79906904Y-139898476D01*
X79954523Y-139803238D01*
X80049761Y-139708000D01*
X80192619Y-139660380D01*
X80287857Y-139660380D01*
X80430714Y-139708000D01*
X80478333Y-139755619D01*
X81335476Y-139660380D02*
X81145000Y-139660380D01*
X81049761Y-139708000D01*
X81002142Y-139755619D01*
X80906904Y-139898476D01*
X80859285Y-140088952D01*
X80859285Y-140469904D01*
X80906904Y-140565142D01*
X80954523Y-140612761D01*
X81049761Y-140660380D01*
X81240238Y-140660380D01*
X81335476Y-140612761D01*
X81383095Y-140565142D01*
X81430714Y-140469904D01*
X81430714Y-140231809D01*
X81383095Y-140136571D01*
X81335476Y-140088952D01*
X81240238Y-140041333D01*
X81049761Y-140041333D01*
X80954523Y-140088952D01*
X80906904Y-140136571D01*
X80859285Y-140231809D01*
X86209142Y-116371666D02*
X86256761Y-116419285D01*
X86304380Y-116562142D01*
X86304380Y-116657380D01*
X86256761Y-116800238D01*
X86161523Y-116895476D01*
X86066285Y-116943095D01*
X85875809Y-116990714D01*
X85732952Y-116990714D01*
X85542476Y-116943095D01*
X85447238Y-116895476D01*
X85352000Y-116800238D01*
X85304380Y-116657380D01*
X85304380Y-116562142D01*
X85352000Y-116419285D01*
X85399619Y-116371666D01*
X85304380Y-116038333D02*
X85304380Y-115419285D01*
X85685333Y-115752619D01*
X85685333Y-115609761D01*
X85732952Y-115514523D01*
X85780571Y-115466904D01*
X85875809Y-115419285D01*
X86113904Y-115419285D01*
X86209142Y-115466904D01*
X86256761Y-115514523D01*
X86304380Y-115609761D01*
X86304380Y-115895476D01*
X86256761Y-115990714D01*
X86209142Y-116038333D01*
X94607142Y-129357380D02*
X94273809Y-128881190D01*
X94035714Y-129357380D02*
X94035714Y-128357380D01*
X94416666Y-128357380D01*
X94511904Y-128405000D01*
X94559523Y-128452619D01*
X94607142Y-128547857D01*
X94607142Y-128690714D01*
X94559523Y-128785952D01*
X94511904Y-128833571D01*
X94416666Y-128881190D01*
X94035714Y-128881190D01*
X95559523Y-129357380D02*
X94988095Y-129357380D01*
X95273809Y-129357380D02*
X95273809Y-128357380D01*
X95178571Y-128500238D01*
X95083333Y-128595476D01*
X94988095Y-128643095D01*
X96511904Y-129357380D02*
X95940476Y-129357380D01*
X96226190Y-129357380D02*
X96226190Y-128357380D01*
X96130952Y-128500238D01*
X96035714Y-128595476D01*
X95940476Y-128643095D01*
X93376761Y-124499619D02*
X93281523Y-124452000D01*
X93186285Y-124356761D01*
X93043428Y-124213904D01*
X92948190Y-124166285D01*
X92852952Y-124166285D01*
X92900571Y-124404380D02*
X92805333Y-124356761D01*
X92710095Y-124261523D01*
X92662476Y-124071047D01*
X92662476Y-123737714D01*
X92710095Y-123547238D01*
X92805333Y-123452000D01*
X92900571Y-123404380D01*
X93091047Y-123404380D01*
X93186285Y-123452000D01*
X93281523Y-123547238D01*
X93329142Y-123737714D01*
X93329142Y-124071047D01*
X93281523Y-124261523D01*
X93186285Y-124356761D01*
X93091047Y-124404380D01*
X92900571Y-124404380D01*
X94186285Y-123737714D02*
X94186285Y-124404380D01*
X93948190Y-123356761D02*
X93710095Y-124071047D01*
X94329142Y-124071047D01*
X103154761Y-124539619D02*
X103059523Y-124492000D01*
X102964285Y-124396761D01*
X102821428Y-124253904D01*
X102726190Y-124206285D01*
X102630952Y-124206285D01*
X102678571Y-124444380D02*
X102583333Y-124396761D01*
X102488095Y-124301523D01*
X102440476Y-124111047D01*
X102440476Y-123777714D01*
X102488095Y-123587238D01*
X102583333Y-123492000D01*
X102678571Y-123444380D01*
X102869047Y-123444380D01*
X102964285Y-123492000D01*
X103059523Y-123587238D01*
X103107142Y-123777714D01*
X103107142Y-124111047D01*
X103059523Y-124301523D01*
X102964285Y-124396761D01*
X102869047Y-124444380D01*
X102678571Y-124444380D01*
X103440476Y-123444380D02*
X104059523Y-123444380D01*
X103726190Y-123825333D01*
X103869047Y-123825333D01*
X103964285Y-123872952D01*
X104011904Y-123920571D01*
X104059523Y-124015809D01*
X104059523Y-124253904D01*
X104011904Y-124349142D01*
X103964285Y-124396761D01*
X103869047Y-124444380D01*
X103583333Y-124444380D01*
X103488095Y-124396761D01*
X103440476Y-124349142D01*
X75144333Y-120372142D02*
X75096714Y-120419761D01*
X74953857Y-120467380D01*
X74858619Y-120467380D01*
X74715761Y-120419761D01*
X74620523Y-120324523D01*
X74572904Y-120229285D01*
X74525285Y-120038809D01*
X74525285Y-119895952D01*
X74572904Y-119705476D01*
X74620523Y-119610238D01*
X74715761Y-119515000D01*
X74858619Y-119467380D01*
X74953857Y-119467380D01*
X75096714Y-119515000D01*
X75144333Y-119562619D01*
X76001476Y-119800714D02*
X76001476Y-120467380D01*
X75763380Y-119419761D02*
X75525285Y-120134047D01*
X76144333Y-120134047D01*
X98766333Y-124371380D02*
X98433000Y-123895190D01*
X98194904Y-124371380D02*
X98194904Y-123371380D01*
X98575857Y-123371380D01*
X98671095Y-123419000D01*
X98718714Y-123466619D01*
X98766333Y-123561857D01*
X98766333Y-123704714D01*
X98718714Y-123799952D01*
X98671095Y-123847571D01*
X98575857Y-123895190D01*
X98194904Y-123895190D01*
X99242523Y-124371380D02*
X99433000Y-124371380D01*
X99528238Y-124323761D01*
X99575857Y-124276142D01*
X99671095Y-124133285D01*
X99718714Y-123942809D01*
X99718714Y-123561857D01*
X99671095Y-123466619D01*
X99623476Y-123419000D01*
X99528238Y-123371380D01*
X99337761Y-123371380D01*
X99242523Y-123419000D01*
X99194904Y-123466619D01*
X99147285Y-123561857D01*
X99147285Y-123799952D01*
X99194904Y-123895190D01*
X99242523Y-123942809D01*
X99337761Y-123990428D01*
X99528238Y-123990428D01*
X99623476Y-123942809D01*
X99671095Y-123895190D01*
X99718714Y-123799952D01*
X112815033Y-142546342D02*
X112767414Y-142593961D01*
X112624557Y-142641580D01*
X112529319Y-142641580D01*
X112386461Y-142593961D01*
X112291223Y-142498723D01*
X112243604Y-142403485D01*
X112195985Y-142213009D01*
X112195985Y-142070152D01*
X112243604Y-141879676D01*
X112291223Y-141784438D01*
X112386461Y-141689200D01*
X112529319Y-141641580D01*
X112624557Y-141641580D01*
X112767414Y-141689200D01*
X112815033Y-141736819D01*
X113386461Y-142070152D02*
X113291223Y-142022533D01*
X113243604Y-141974914D01*
X113195985Y-141879676D01*
X113195985Y-141832057D01*
X113243604Y-141736819D01*
X113291223Y-141689200D01*
X113386461Y-141641580D01*
X113576938Y-141641580D01*
X113672176Y-141689200D01*
X113719795Y-141736819D01*
X113767414Y-141832057D01*
X113767414Y-141879676D01*
X113719795Y-141974914D01*
X113672176Y-142022533D01*
X113576938Y-142070152D01*
X113386461Y-142070152D01*
X113291223Y-142117771D01*
X113243604Y-142165390D01*
X113195985Y-142260628D01*
X113195985Y-142451104D01*
X113243604Y-142546342D01*
X113291223Y-142593961D01*
X113386461Y-142641580D01*
X113576938Y-142641580D01*
X113672176Y-142593961D01*
X113719795Y-142546342D01*
X113767414Y-142451104D01*
X113767414Y-142260628D01*
X113719795Y-142165390D01*
X113672176Y-142117771D01*
X113576938Y-142070152D01*
X107407523Y-128685153D02*
X106974190Y-128685153D01*
X106974190Y-129366106D02*
X106974190Y-128066106D01*
X107593238Y-128066106D01*
X108645619Y-129366106D02*
X108645619Y-128685153D01*
X108583714Y-128561344D01*
X108459904Y-128499439D01*
X108212285Y-128499439D01*
X108088476Y-128561344D01*
X108645619Y-129304201D02*
X108521809Y-129366106D01*
X108212285Y-129366106D01*
X108088476Y-129304201D01*
X108026571Y-129180391D01*
X108026571Y-129056582D01*
X108088476Y-128932772D01*
X108212285Y-128870868D01*
X108521809Y-128870868D01*
X108645619Y-128808963D01*
X109264666Y-129366106D02*
X109264666Y-128499439D01*
X109264666Y-128066106D02*
X109202761Y-128128011D01*
X109264666Y-128189915D01*
X109326571Y-128128011D01*
X109264666Y-128066106D01*
X109264666Y-128189915D01*
X110069428Y-129366106D02*
X109945619Y-129304201D01*
X109883714Y-129180391D01*
X109883714Y-128066106D01*
X111493238Y-129304201D02*
X111617047Y-129366106D01*
X111864666Y-129366106D01*
X111988476Y-129304201D01*
X112050380Y-129180391D01*
X112050380Y-129118487D01*
X111988476Y-128994677D01*
X111864666Y-128932772D01*
X111678952Y-128932772D01*
X111555142Y-128870868D01*
X111493238Y-128747058D01*
X111493238Y-128685153D01*
X111555142Y-128561344D01*
X111678952Y-128499439D01*
X111864666Y-128499439D01*
X111988476Y-128561344D01*
X113164666Y-129366106D02*
X113164666Y-128685153D01*
X113102761Y-128561344D01*
X112978952Y-128499439D01*
X112731333Y-128499439D01*
X112607523Y-128561344D01*
X113164666Y-129304201D02*
X113040857Y-129366106D01*
X112731333Y-129366106D01*
X112607523Y-129304201D01*
X112545619Y-129180391D01*
X112545619Y-129056582D01*
X112607523Y-128932772D01*
X112731333Y-128870868D01*
X113040857Y-128870868D01*
X113164666Y-128808963D01*
X113598000Y-128499439D02*
X114093238Y-128499439D01*
X113783714Y-129366106D02*
X113783714Y-128251820D01*
X113845619Y-128128011D01*
X113969428Y-128066106D01*
X114093238Y-128066106D01*
X115021809Y-129304201D02*
X114898000Y-129366106D01*
X114650380Y-129366106D01*
X114526571Y-129304201D01*
X114464666Y-129180391D01*
X114464666Y-128685153D01*
X114526571Y-128561344D01*
X114650380Y-128499439D01*
X114898000Y-128499439D01*
X115021809Y-128561344D01*
X115083714Y-128685153D01*
X115083714Y-128808963D01*
X114464666Y-128932772D01*
X61555333Y-120626142D02*
X61507714Y-120673761D01*
X61364857Y-120721380D01*
X61269619Y-120721380D01*
X61126761Y-120673761D01*
X61031523Y-120578523D01*
X60983904Y-120483285D01*
X60936285Y-120292809D01*
X60936285Y-120149952D01*
X60983904Y-119959476D01*
X61031523Y-119864238D01*
X61126761Y-119769000D01*
X61269619Y-119721380D01*
X61364857Y-119721380D01*
X61507714Y-119769000D01*
X61555333Y-119816619D01*
X62031523Y-120721380D02*
X62222000Y-120721380D01*
X62317238Y-120673761D01*
X62364857Y-120626142D01*
X62460095Y-120483285D01*
X62507714Y-120292809D01*
X62507714Y-119911857D01*
X62460095Y-119816619D01*
X62412476Y-119769000D01*
X62317238Y-119721380D01*
X62126761Y-119721380D01*
X62031523Y-119769000D01*
X61983904Y-119816619D01*
X61936285Y-119911857D01*
X61936285Y-120149952D01*
X61983904Y-120245190D01*
X62031523Y-120292809D01*
X62126761Y-120340428D01*
X62317238Y-120340428D01*
X62412476Y-120292809D01*
X62460095Y-120245190D01*
X62507714Y-120149952D01*
X66524142Y-129293857D02*
X66571761Y-129341476D01*
X66619380Y-129484333D01*
X66619380Y-129579571D01*
X66571761Y-129722428D01*
X66476523Y-129817666D01*
X66381285Y-129865285D01*
X66190809Y-129912904D01*
X66047952Y-129912904D01*
X65857476Y-129865285D01*
X65762238Y-129817666D01*
X65667000Y-129722428D01*
X65619380Y-129579571D01*
X65619380Y-129484333D01*
X65667000Y-129341476D01*
X65714619Y-129293857D01*
X66619380Y-128341476D02*
X66619380Y-128912904D01*
X66619380Y-128627190D02*
X65619380Y-128627190D01*
X65762238Y-128722428D01*
X65857476Y-128817666D01*
X65905095Y-128912904D01*
X65619380Y-127722428D02*
X65619380Y-127627190D01*
X65667000Y-127531952D01*
X65714619Y-127484333D01*
X65809857Y-127436714D01*
X66000333Y-127389095D01*
X66238428Y-127389095D01*
X66428904Y-127436714D01*
X66524142Y-127484333D01*
X66571761Y-127531952D01*
X66619380Y-127627190D01*
X66619380Y-127722428D01*
X66571761Y-127817666D01*
X66524142Y-127865285D01*
X66428904Y-127912904D01*
X66238428Y-127960523D01*
X66000333Y-127960523D01*
X65809857Y-127912904D01*
X65714619Y-127865285D01*
X65667000Y-127817666D01*
X65619380Y-127722428D01*
X59229666Y-108926380D02*
X59229666Y-109640666D01*
X59182047Y-109783523D01*
X59086809Y-109878761D01*
X58943952Y-109926380D01*
X58848714Y-109926380D01*
X60134428Y-109259714D02*
X60134428Y-109926380D01*
X59896333Y-108878761D02*
X59658238Y-109593047D01*
X60277285Y-109593047D01*
X59495333Y-117832142D02*
X59447714Y-117879761D01*
X59304857Y-117927380D01*
X59209619Y-117927380D01*
X59066761Y-117879761D01*
X58971523Y-117784523D01*
X58923904Y-117689285D01*
X58876285Y-117498809D01*
X58876285Y-117355952D01*
X58923904Y-117165476D01*
X58971523Y-117070238D01*
X59066761Y-116975000D01*
X59209619Y-116927380D01*
X59304857Y-116927380D01*
X59447714Y-116975000D01*
X59495333Y-117022619D01*
X59876285Y-117022619D02*
X59923904Y-116975000D01*
X60019142Y-116927380D01*
X60257238Y-116927380D01*
X60352476Y-116975000D01*
X60400095Y-117022619D01*
X60447714Y-117117857D01*
X60447714Y-117213095D01*
X60400095Y-117355952D01*
X59828666Y-117927380D01*
X60447714Y-117927380D01*
X63506833Y-108148380D02*
X63173500Y-107672190D01*
X62935404Y-108148380D02*
X62935404Y-107148380D01*
X63316357Y-107148380D01*
X63411595Y-107196000D01*
X63459214Y-107243619D01*
X63506833Y-107338857D01*
X63506833Y-107481714D01*
X63459214Y-107576952D01*
X63411595Y-107624571D01*
X63316357Y-107672190D01*
X62935404Y-107672190D01*
X63840166Y-107148380D02*
X64506833Y-108148380D01*
X64506833Y-107148380D02*
X63840166Y-108148380D01*
X73730333Y-111230380D02*
X73397000Y-110754190D01*
X73158904Y-111230380D02*
X73158904Y-110230380D01*
X73539857Y-110230380D01*
X73635095Y-110278000D01*
X73682714Y-110325619D01*
X73730333Y-110420857D01*
X73730333Y-110563714D01*
X73682714Y-110658952D01*
X73635095Y-110706571D01*
X73539857Y-110754190D01*
X73158904Y-110754190D01*
X74063666Y-110230380D02*
X74730333Y-110230380D01*
X74301761Y-111230380D01*
X73730333Y-108690380D02*
X73397000Y-108214190D01*
X73158904Y-108690380D02*
X73158904Y-107690380D01*
X73539857Y-107690380D01*
X73635095Y-107738000D01*
X73682714Y-107785619D01*
X73730333Y-107880857D01*
X73730333Y-108023714D01*
X73682714Y-108118952D01*
X73635095Y-108166571D01*
X73539857Y-108214190D01*
X73158904Y-108214190D01*
X74301761Y-108118952D02*
X74206523Y-108071333D01*
X74158904Y-108023714D01*
X74111285Y-107928476D01*
X74111285Y-107880857D01*
X74158904Y-107785619D01*
X74206523Y-107738000D01*
X74301761Y-107690380D01*
X74492238Y-107690380D01*
X74587476Y-107738000D01*
X74635095Y-107785619D01*
X74682714Y-107880857D01*
X74682714Y-107928476D01*
X74635095Y-108023714D01*
X74587476Y-108071333D01*
X74492238Y-108118952D01*
X74301761Y-108118952D01*
X74206523Y-108166571D01*
X74158904Y-108214190D01*
X74111285Y-108309428D01*
X74111285Y-108499904D01*
X74158904Y-108595142D01*
X74206523Y-108642761D01*
X74301761Y-108690380D01*
X74492238Y-108690380D01*
X74587476Y-108642761D01*
X74635095Y-108595142D01*
X74682714Y-108499904D01*
X74682714Y-108309428D01*
X74635095Y-108214190D01*
X74587476Y-108166571D01*
X74492238Y-108118952D01*
X68326095Y-123404380D02*
X68326095Y-124213904D01*
X68373714Y-124309142D01*
X68421333Y-124356761D01*
X68516571Y-124404380D01*
X68707047Y-124404380D01*
X68802285Y-124356761D01*
X68849904Y-124309142D01*
X68897523Y-124213904D01*
X68897523Y-123404380D01*
X69278476Y-123404380D02*
X69897523Y-123404380D01*
X69564190Y-123785333D01*
X69707047Y-123785333D01*
X69802285Y-123832952D01*
X69849904Y-123880571D01*
X69897523Y-123975809D01*
X69897523Y-124213904D01*
X69849904Y-124309142D01*
X69802285Y-124356761D01*
X69707047Y-124404380D01*
X69421333Y-124404380D01*
X69326095Y-124356761D01*
X69278476Y-124309142D01*
X62515809Y-128627190D02*
X62515809Y-129103380D01*
X62182476Y-128103380D02*
X62515809Y-128627190D01*
X62849142Y-128103380D01*
X63706285Y-129103380D02*
X63134857Y-129103380D01*
X63420571Y-129103380D02*
X63420571Y-128103380D01*
X63325333Y-128246238D01*
X63230095Y-128341476D01*
X63134857Y-128389095D01*
X62911595Y-108642880D02*
X63483023Y-108642880D01*
X63197309Y-109642880D02*
X63197309Y-108642880D01*
X63721119Y-108642880D02*
X64387785Y-109642880D01*
X64387785Y-108642880D02*
X63721119Y-109642880D01*
X59650333Y-123801142D02*
X59602714Y-123848761D01*
X59459857Y-123896380D01*
X59364619Y-123896380D01*
X59221761Y-123848761D01*
X59126523Y-123753523D01*
X59078904Y-123658285D01*
X59031285Y-123467809D01*
X59031285Y-123324952D01*
X59078904Y-123134476D01*
X59126523Y-123039238D01*
X59221761Y-122944000D01*
X59364619Y-122896380D01*
X59459857Y-122896380D01*
X59602714Y-122944000D01*
X59650333Y-122991619D01*
X60602714Y-123896380D02*
X60031285Y-123896380D01*
X60317000Y-123896380D02*
X60317000Y-122896380D01*
X60221761Y-123039238D01*
X60126523Y-123134476D01*
X60031285Y-123182095D01*
X109388469Y-118825095D02*
X108955135Y-118206047D01*
X108645612Y-118825095D02*
X108645612Y-117525095D01*
X109140850Y-117525095D01*
X109264659Y-117587000D01*
X109326564Y-117648904D01*
X109388469Y-117772714D01*
X109388469Y-117958428D01*
X109326564Y-118082238D01*
X109264659Y-118144142D01*
X109140850Y-118206047D01*
X108645612Y-118206047D01*
X110440850Y-118763190D02*
X110317040Y-118825095D01*
X110069421Y-118825095D01*
X109945612Y-118763190D01*
X109883707Y-118639380D01*
X109883707Y-118144142D01*
X109945612Y-118020333D01*
X110069421Y-117958428D01*
X110317040Y-117958428D01*
X110440850Y-118020333D01*
X110502754Y-118144142D01*
X110502754Y-118267952D01*
X109883707Y-118391761D01*
X110997993Y-118763190D02*
X111121802Y-118825095D01*
X111369421Y-118825095D01*
X111493231Y-118763190D01*
X111555135Y-118639380D01*
X111555135Y-118577476D01*
X111493231Y-118453666D01*
X111369421Y-118391761D01*
X111183707Y-118391761D01*
X111059897Y-118329857D01*
X110997993Y-118206047D01*
X110997993Y-118144142D01*
X111059897Y-118020333D01*
X111183707Y-117958428D01*
X111369421Y-117958428D01*
X111493231Y-118020333D01*
X112607516Y-118763190D02*
X112483707Y-118825095D01*
X112236088Y-118825095D01*
X112112278Y-118763190D01*
X112050373Y-118639380D01*
X112050373Y-118144142D01*
X112112278Y-118020333D01*
X112236088Y-117958428D01*
X112483707Y-117958428D01*
X112607516Y-118020333D01*
X112669421Y-118144142D01*
X112669421Y-118267952D01*
X112050373Y-118391761D01*
X113040850Y-117958428D02*
X113536088Y-117958428D01*
X113226564Y-117525095D02*
X113226564Y-118639380D01*
X113288469Y-118763190D01*
X113412278Y-118825095D01*
X113536088Y-118825095D01*
D11*
X106993200Y-156105406D02*
X106993200Y-149355406D01*
X106243200Y-130605406D02*
X104493200Y-130605406D01*
X88993200Y-131355406D02*
X88993200Y-130605406D01*
X88993200Y-150165406D02*
X106993200Y-150165406D01*
X106993200Y-131355406D02*
X106993200Y-130605406D01*
X88993200Y-156105406D02*
X88993200Y-149355406D01*
X106993200Y-130605406D02*
X106243200Y-130605406D01*
X88993200Y-130605406D02*
X89743200Y-130605406D01*
X89743200Y-130605406D02*
X91493200Y-130605406D01*
X106993200Y-156105406D02*
X88993200Y-156105406D01*
X110446064Y-140469000D02*
X109991936Y-140469000D01*
X110446064Y-138999000D02*
X109991936Y-138999000D01*
X76996600Y-154025600D02*
X76996600Y-155355600D01*
X74396600Y-155355600D02*
X71796600Y-155355600D01*
X71796600Y-155355600D02*
X71796600Y-150155600D01*
X76996600Y-152755600D02*
X74396600Y-152755600D01*
X76996600Y-155355600D02*
X75666600Y-155355600D01*
X74396600Y-152755600D02*
X74396600Y-155355600D01*
X76996600Y-152755600D02*
X76996600Y-150155600D01*
X76996600Y-150155600D02*
X71796600Y-150155600D01*
X81380000Y-132260748D02*
X81380000Y-132783252D01*
X79910000Y-132260748D02*
X79910000Y-132783252D01*
X110015436Y-145489600D02*
X110469564Y-145489600D01*
X110015436Y-144019600D02*
X110469564Y-144019600D01*
X89514564Y-128590000D02*
X89060436Y-128590000D01*
X89514564Y-127120000D02*
X89060436Y-127120000D01*
X110493252Y-148147500D02*
X109970748Y-148147500D01*
X110493252Y-146677500D02*
X109970748Y-146677500D01*
X77213202Y-141674092D02*
X75063202Y-141674092D01*
X75063202Y-144894092D02*
X75063202Y-143984092D01*
X77638202Y-144894092D02*
X75063202Y-144894092D01*
X75063202Y-142584092D02*
X75063202Y-141674092D01*
X75063200Y-146646600D02*
X75063200Y-145736600D01*
X77213200Y-145736600D02*
X75063200Y-145736600D01*
X75063200Y-148956600D02*
X75063200Y-148046600D01*
X77638200Y-148956600D02*
X75063200Y-148956600D01*
X80161636Y-146585000D02*
X80615764Y-146585000D01*
X80161636Y-148055000D02*
X80615764Y-148055000D01*
X80161636Y-142584500D02*
X80615764Y-142584500D01*
X80161636Y-144054500D02*
X80615764Y-144054500D01*
X71935264Y-148107000D02*
X71481136Y-148107000D01*
X71935264Y-146637000D02*
X71481136Y-146637000D01*
X69338564Y-127481000D02*
X68884436Y-127481000D01*
X69338564Y-126011000D02*
X68884436Y-126011000D01*
X75101400Y-111539500D02*
X76361400Y-111539500D01*
X81921400Y-111539500D02*
X80661400Y-111539500D01*
X81921400Y-115299500D02*
X81921400Y-111539500D01*
X75101400Y-117549500D02*
X75101400Y-111539500D01*
X65417864Y-150242600D02*
X64963736Y-150242600D01*
X65417864Y-151712600D02*
X64963736Y-151712600D01*
X77714900Y-140297000D02*
X78954900Y-140297000D01*
X70094900Y-140057000D02*
X78714900Y-140057000D01*
X78714900Y-140057000D02*
X78714900Y-128336000D01*
X78954900Y-140297000D02*
X78954900Y-139057000D01*
X70094900Y-140057000D02*
X70094900Y-128336000D01*
X70094900Y-128336000D02*
X78714900Y-128336000D01*
D14*
X51432500Y-146736500D02*
X58832500Y-146736500D01*
D15*
X58372500Y-147376500D02*
X58372500Y-147376500D01*
X58372500Y-147176500D02*
X58372500Y-147176500D01*
D14*
X67182500Y-130456500D02*
X67182500Y-146736500D01*
X62332500Y-130456500D02*
X67182500Y-130456500D01*
X51432500Y-130476500D02*
X51432500Y-146736500D01*
X67182500Y-146736500D02*
X62332500Y-146736500D01*
X58832500Y-130476500D02*
X51432500Y-130476500D01*
D15*
X58372500Y-147176500D02*
G75*
G03*
X58372500Y-147376500I0J-100000D01*
G01*
X58372500Y-147376500D02*
G75*
G03*
X58372500Y-147176500I0J100000D01*
G01*
D11*
X71882764Y-143978500D02*
X71428636Y-143978500D01*
X71882764Y-142508500D02*
X71428636Y-142508500D01*
X81405400Y-137371148D02*
X81405400Y-137893652D01*
X79935400Y-137371148D02*
X79935400Y-137893652D01*
X83008800Y-115882748D02*
X83008800Y-116405252D01*
X84478800Y-115882748D02*
X84478800Y-116405252D01*
X98404564Y-127120000D02*
X97950436Y-127120000D01*
X98404564Y-128590000D02*
X97950436Y-128590000D01*
X92380000Y-125792000D02*
X92380000Y-124882000D01*
X94955000Y-128102000D02*
X92380000Y-128102000D01*
X94530000Y-124882000D02*
X92380000Y-124882000D01*
X92380000Y-128102000D02*
X92380000Y-127192000D01*
X104325000Y-124882000D02*
X104325000Y-125792000D01*
X101750000Y-124882000D02*
X104325000Y-124882000D01*
X102175000Y-128102000D02*
X104325000Y-128102000D01*
X104325000Y-127192000D02*
X104325000Y-128102000D01*
X76523800Y-120285637D02*
X77588237Y-119221200D01*
X76523800Y-120285637D02*
X76523800Y-121571200D01*
X76523800Y-124976763D02*
X76523800Y-123691200D01*
X77588237Y-119221200D02*
X83343800Y-119221200D01*
X83343800Y-126041200D02*
X83343800Y-123691200D01*
X83343800Y-119221200D02*
X83343800Y-121571200D01*
X77588237Y-126041200D02*
X83343800Y-126041200D01*
X76523800Y-124976763D02*
X77588237Y-126041200D01*
X97950436Y-126304000D02*
X98404564Y-126304000D01*
X97950436Y-124834000D02*
X98404564Y-124834000D01*
X109989948Y-141454200D02*
X110512452Y-141454200D01*
X109989948Y-142924200D02*
X110512452Y-142924200D01*
X63253252Y-122655000D02*
X62730748Y-122655000D01*
X63253252Y-121185000D02*
X62730748Y-121185000D01*
X65432000Y-125148748D02*
X65432000Y-125671252D01*
X66902000Y-125148748D02*
X66902000Y-125671252D01*
X64576000Y-114300000D02*
X64576000Y-115630000D01*
X59376000Y-115630000D02*
X59376000Y-110430000D01*
X64576000Y-115630000D02*
X63246000Y-115630000D01*
X64576000Y-110430000D02*
X59376000Y-110430000D01*
X64576000Y-113030000D02*
X61976000Y-113030000D01*
X61976000Y-113030000D02*
X61976000Y-115630000D01*
X64576000Y-113030000D02*
X64576000Y-110430000D01*
X61976000Y-115630000D02*
X59376000Y-115630000D01*
X62811252Y-116740000D02*
X62288748Y-116740000D01*
X62811252Y-118210000D02*
X62288748Y-118210000D01*
X65514500Y-109626000D02*
X68199500Y-109626000D01*
X68199500Y-107706000D02*
X65514500Y-107706000D01*
X65514500Y-107706000D02*
X65514500Y-109626000D01*
X71276564Y-111827000D02*
X70822436Y-111827000D01*
X71276564Y-110357000D02*
X70822436Y-110357000D01*
X71276564Y-107931000D02*
X70822436Y-107931000D01*
X71276564Y-109401000D02*
X70822436Y-109401000D01*
X69013400Y-112799600D02*
X70963400Y-112799600D01*
X69013400Y-122919600D02*
X67063400Y-122919600D01*
X69013400Y-112799600D02*
X65563400Y-112799600D01*
X69013400Y-122919600D02*
X70963400Y-122919600D01*
X64642000Y-123603000D02*
X61342000Y-123603000D01*
X61342000Y-123603000D02*
X61342000Y-127603000D01*
X90303400Y-110032800D02*
G75*
G03*
X90303400Y-110032800I-1251000J0D01*
G01*
X65514500Y-110132000D02*
X65514500Y-112052000D01*
X68199500Y-110132000D02*
X65514500Y-110132000D01*
X65514500Y-112052000D02*
X68199500Y-112052000D01*
X60552000Y-126179252D02*
X60552000Y-125656748D01*
X59082000Y-126179252D02*
X59082000Y-125656748D01*
M02*
