  0
SECTION
  2
HEADER
  9
$ANGBASE
  50
0.0
  9
$ANGDIR
  70
1
  9
$MEASUREMENT
  70
1
  0
ENDSEC
  0
SECTION
  2
TABLES
  0
TABLE
  2
LTYPE
  70
4
  0
LTYPE
  5
40F
  2
CONTINUOUS
  70
0
  3
Solid line
  72
65
  73
0
  40
0.0
  0
LTYPE
  5
410
  2
DASHDOT
 70
0
  3
Dash Dot ____ _ ____ _
 72
65
 73
4
 40
2.0
 49
1.25
 49
-0.25
 49
0.25
 49
-0.25
  0
LTYPE
  5
411
  2
DASHED
 70
0
  3
Dashed __ __ __ __ __
 72
65
 73
2
 40
0.75
 49
0.5
 49
-0.25
  0
LTYPE
  5
43B
  2
DOTTED
 70
0
  3
Dotted .  .  .  .
 72
65
 73
2
 40
0.2
 49
0.0
 49
-0.2
  0
ENDTAB
  0
TABLE
  2
STYLE
  70
4
  0
STYLE
  2
KICAD
  70
0
  40
0
  41
1
  42
1
  50
0
  71
0
  3
isocp.shx
  0
STYLE
  2
KICADB
  70
0
  40
0
  41
1
  42
1
  50
0
  71
0
  3
isocp.shx
  0
STYLE
  2
KICADI
  70
0
  40
0
  41
1
  42
1
  50
15
  71
0
  3
isocp.shx
  0
STYLE
  2
KICADBI
  70
0
  40
0
  41
1
  42
1
  50
15
  71
0
  3
isocp.shx
  0
ENDTAB
  0
TABLE
  2
LAYER
  70
1
  0
LAYER
  2
BLACK
  70
0
  62
7
  6
CONTINUOUS
  0
ENDTAB
  0
ENDSEC
  0
SECTION
  2
ENTITIES
0
ARC
8
BLACK
10
83.532
20
-155.968
40
0.5
50
-180
51
-90
0
ARC
8
BLACK
10
123.332
20
-106.968
40
2
50
-0
51
90
0
LINE
8
BLACK
6
CONTINUOUS
10
123.332
20
-104.968
11
85.032
21
-104.968
0
ARC
8
BLACK
10
124.832
20
-149.468
40
0.5
50
-90
51
-0
0
LINE
8
BLACK
6
CONTINUOUS
10
86.832
20
-156.468
11
83.532
21
-156.468
0
LINE
8
BLACK
6
CONTINUOUS
10
115.332
20
-156.468
11
105.132
21
-156.468
0
ARC
8
BLACK
10
105.132
20
-155.968
40
0.5
50
-180
51
-90
0
ARC
8
BLACK
10
115.332
20
-155.968
40
0.5
50
-90
51
-0
0
LINE
8
BLACK
6
CONTINUOUS
10
115.832
20
-155.968
11
115.832
21
-150.468
0
LINE
8
BLACK
6
CONTINUOUS
10
104.632
20
-149.968
11
87.332
21
-149.968
0
ARC
8
BLACK
10
116.332
20
-150.468
40
0.5
50
90
51
180
0
LINE
8
BLACK
6
CONTINUOUS
10
87.332
20
-149.968
11
87.332
21
-155.968
0
LINE
8
BLACK
6
CONTINUOUS
10
104.632
20
-155.968
11
104.632
21
-149.968
0
ARC
8
BLACK
10
86.832
20
-155.968
40
0.5
50
-90
51
-0
0
LINE
8
BLACK
6
CONTINUOUS
10
83.032
20
-155.968
11
83.032
21
-106.968
0
ARC
8
BLACK
10
85.032
20
-106.968
40
2
50
90
51
180
0
LINE
8
BLACK
6
CONTINUOUS
10
125.332
20
-106.968
11
125.332
21
-149.468
0
LINE
8
BLACK
6
CONTINUOUS
10
124.832
20
-149.968
11
116.332
21
-149.968
0
LINE
8
BLACK
6
CONTINUOUS
10
84.3312
20
-144.605
11
84.7312
21
-145.005
0
LINE
8
BLACK
6
CONTINUOUS
10
84.7312
20
-144.605
11
84.3312
21
-145.005
0
LINE
8
BLACK
6
CONTINUOUS
10
84.8392
20
-143.361
11
85.2392
21
-143.761
0
LINE
8
BLACK
6
CONTINUOUS
10
85.2392
20
-143.361
11
84.8392
21
-143.761
0
LINE
8
BLACK
6
CONTINUOUS
10
86.541
20
-128.07
11
86.941
21
-128.47
0
LINE
8
BLACK
6
CONTINUOUS
10
86.941
20
-128.07
11
86.541
21
-128.47
0
LINE
8
BLACK
6
CONTINUOUS
10
88.954
20
-138.23
11
89.354
21
-138.63
0
LINE
8
BLACK
6
CONTINUOUS
10
89.354
20
-138.23
11
88.954
21
-138.63
0
LINE
8
BLACK
6
CONTINUOUS
10
88.954
20
-148.39
11
89.354
21
-148.79
0
LINE
8
BLACK
6
CONTINUOUS
10
89.354
20
-148.39
11
88.954
21
-148.79
0
LINE
8
BLACK
6
CONTINUOUS
10
89.081
20
-133.15
11
89.481
21
-133.55
0
LINE
8
BLACK
6
CONTINUOUS
10
89.481
20
-133.15
11
89.081
21
-133.55
0
LINE
8
BLACK
6
CONTINUOUS
10
89.1094
20
-147.145
11
89.5094
21
-147.545
0
LINE
8
BLACK
6
CONTINUOUS
10
89.5094
20
-147.145
11
89.1094
21
-147.545
0
LINE
8
BLACK
6
CONTINUOUS
10
89.208
20
-115.472
11
89.608
21
-115.872
0
LINE
8
BLACK
6
CONTINUOUS
10
89.608
20
-115.472
11
89.208
21
-115.872
0
LINE
8
BLACK
6
CONTINUOUS
10
89.462
20
-136.198
11
89.862
21
-136.598
0
LINE
8
BLACK
6
CONTINUOUS
10
89.862
20
-136.198
11
89.462
21
-136.598
0
LINE
8
BLACK
6
CONTINUOUS
10
91.3246
20
-129.095
11
91.7246
21
-129.495
0
LINE
8
BLACK
6
CONTINUOUS
10
91.7246
20
-129.095
11
91.3246
21
-129.495
0
LINE
8
BLACK
6
CONTINUOUS
10
93.526
20
-123.117
11
93.926
21
-123.517
0
LINE
8
BLACK
6
CONTINUOUS
10
93.926
20
-123.117
11
93.526
21
-123.517
0
LINE
8
BLACK
6
CONTINUOUS
10
94.9484
20
-139.551
11
95.3484
21
-139.951
0
LINE
8
BLACK
6
CONTINUOUS
10
95.3484
20
-139.551
11
94.9484
21
-139.951
0
LINE
8
BLACK
6
CONTINUOUS
10
94.9484
20
-141.075
11
95.3484
21
-141.475
0
LINE
8
BLACK
6
CONTINUOUS
10
95.3484
20
-141.075
11
94.9484
21
-141.475
0
LINE
8
BLACK
6
CONTINUOUS
10
94.9484
20
-142.599
11
95.3484
21
-142.999
0
LINE
8
BLACK
6
CONTINUOUS
10
95.3484
20
-142.599
11
94.9484
21
-142.999
0
LINE
8
BLACK
6
CONTINUOUS
10
95.304
20
-133.468
11
95.704
21
-133.868
0
LINE
8
BLACK
6
CONTINUOUS
10
95.704
20
-133.468
11
95.304
21
-133.868
0
LINE
8
BLACK
6
CONTINUOUS
10
96.447
20
-139.551
11
96.847
21
-139.951
0
LINE
8
BLACK
6
CONTINUOUS
10
96.847
20
-139.551
11
96.447
21
-139.951
0
LINE
8
BLACK
6
CONTINUOUS
10
96.447
20
-141.075
11
96.847
21
-141.475
0
LINE
8
BLACK
6
CONTINUOUS
10
96.847
20
-141.075
11
96.447
21
-141.475
0
LINE
8
BLACK
6
CONTINUOUS
10
96.447
20
-142.599
11
96.847
21
-142.999
0
LINE
8
BLACK
6
CONTINUOUS
10
96.847
20
-142.599
11
96.447
21
-142.999
0
LINE
8
BLACK
6
CONTINUOUS
10
97.971
20
-139.551
11
98.371
21
-139.951
0
LINE
8
BLACK
6
CONTINUOUS
10
98.371
20
-139.551
11
97.971
21
-139.951
0
LINE
8
BLACK
6
CONTINUOUS
10
97.971
20
-141.075
11
98.371
21
-141.475
0
LINE
8
BLACK
6
CONTINUOUS
10
98.371
20
-141.075
11
97.971
21
-141.475
0
LINE
8
BLACK
6
CONTINUOUS
10
97.971
20
-142.599
11
98.371
21
-142.999
0
LINE
8
BLACK
6
CONTINUOUS
10
98.371
20
-142.599
11
97.971
21
-142.999
0
LINE
8
BLACK
6
CONTINUOUS
10
98.352
20
-123.117
11
98.752
21
-123.517
0
LINE
8
BLACK
6
CONTINUOUS
10
98.752
20
-123.117
11
98.352
21
-123.517
0
LINE
8
BLACK
6
CONTINUOUS
10
98.987
20
-105.718
11
99.387
21
-106.118
0
LINE
8
BLACK
6
CONTINUOUS
10
99.387
20
-105.718
11
98.987
21
-106.118
0
LINE
8
BLACK
6
CONTINUOUS
10
98.987
20
-107.242
11
99.387
21
-107.642
0
LINE
8
BLACK
6
CONTINUOUS
10
99.387
20
-107.242
11
98.987
21
-107.642
0
LINE
8
BLACK
6
CONTINUOUS
10
98.987
20
-108.893
11
99.387
21
-109.293
0
LINE
8
BLACK
6
CONTINUOUS
10
99.387
20
-108.893
11
98.987
21
-109.293
0
LINE
8
BLACK
6
CONTINUOUS
10
98.987
20
-110.671
11
99.387
21
-111.071
0
LINE
8
BLACK
6
CONTINUOUS
10
99.387
20
-110.671
11
98.987
21
-111.071
0
LINE
8
BLACK
6
CONTINUOUS
10
98.987
20
-112.322
11
99.387
21
-112.722
0
LINE
8
BLACK
6
CONTINUOUS
10
99.387
20
-112.322
11
98.987
21
-112.722
0
LINE
8
BLACK
6
CONTINUOUS
10
98.987
20
-113.973
11
99.387
21
-114.373
0
LINE
8
BLACK
6
CONTINUOUS
10
99.387
20
-113.973
11
98.987
21
-114.373
0
LINE
8
BLACK
6
CONTINUOUS
10
100.765
20
-113.973
11
101.165
21
-114.373
0
LINE
8
BLACK
6
CONTINUOUS
10
101.165
20
-113.973
11
100.765
21
-114.373
0
LINE
8
BLACK
6
CONTINUOUS
10
100.892
20
-111.814
11
101.292
21
-112.214
0
LINE
8
BLACK
6
CONTINUOUS
10
101.292
20
-111.814
11
100.892
21
-112.214
0
LINE
8
BLACK
6
CONTINUOUS
10
101.527
20
-132.515
11
101.927
21
-132.915
0
LINE
8
BLACK
6
CONTINUOUS
10
101.927
20
-132.515
11
101.527
21
-132.915
0
LINE
8
BLACK
6
CONTINUOUS
10
102.232
20
-138.368
11
102.632
21
-138.768
0
LINE
8
BLACK
6
CONTINUOUS
10
102.632
20
-138.368
11
102.232
21
-138.768
0
LINE
8
BLACK
6
CONTINUOUS
10
102.289
20
-113.973
11
102.689
21
-114.373
0
LINE
8
BLACK
6
CONTINUOUS
10
102.689
20
-113.973
11
102.289
21
-114.373
0
LINE
8
BLACK
6
CONTINUOUS
10
103.178
20
-121.72
11
103.578
21
-122.12
0
LINE
8
BLACK
6
CONTINUOUS
10
103.578
20
-121.72
11
103.178
21
-122.12
0
LINE
8
BLACK
6
CONTINUOUS
10
103.94
20
-113.973
11
104.34
21
-114.373
0
LINE
8
BLACK
6
CONTINUOUS
10
104.34
20
-113.973
11
103.94
21
-114.373
0
LINE
8
BLACK
6
CONTINUOUS
10
104.702
20
-126.292
11
105.102
21
-126.692
0
LINE
8
BLACK
6
CONTINUOUS
10
105.102
20
-126.292
11
104.702
21
-126.692
0
LINE
8
BLACK
6
CONTINUOUS
10
105.718
20
-113.973
11
106.118
21
-114.373
0
LINE
8
BLACK
6
CONTINUOUS
10
106.118
20
-113.973
11
105.718
21
-114.373
0
LINE
8
BLACK
6
CONTINUOUS
10
105.972
20
-147.12
11
106.372
21
-147.52
0
LINE
8
BLACK
6
CONTINUOUS
10
106.372
20
-147.12
11
105.972
21
-147.52
0
LINE
8
BLACK
6
CONTINUOUS
10
105.972
20
-148.39
11
106.372
21
-148.79
0
LINE
8
BLACK
6
CONTINUOUS
10
106.372
20
-148.39
11
105.972
21
-148.79
0
LINE
8
BLACK
6
CONTINUOUS
10
106.649
20
-136.985
11
107.049
21
-137.385
0
LINE
8
BLACK
6
CONTINUOUS
10
107.049
20
-136.985
11
106.649
21
-137.385
0
LINE
8
BLACK
6
CONTINUOUS
10
107.369
20
-113.973
11
107.769
21
-114.373
0
LINE
8
BLACK
6
CONTINUOUS
10
107.769
20
-113.973
11
107.369
21
-114.373
0
LINE
8
BLACK
6
CONTINUOUS
10
107.975
20
-139.525
11
108.375
21
-139.925
0
LINE
8
BLACK
6
CONTINUOUS
10
108.375
20
-139.525
11
107.975
21
-139.925
0
LINE
8
BLACK
6
CONTINUOUS
10
108.431
20
-148.551
11
108.831
21
-148.951
0
LINE
8
BLACK
6
CONTINUOUS
10
108.831
20
-148.551
11
108.431
21
-148.951
0
LINE
8
BLACK
6
CONTINUOUS
10
108.932
20
-127.468
11
109.332
21
-127.868
0
LINE
8
BLACK
6
CONTINUOUS
10
109.332
20
-127.468
11
108.932
21
-127.868
0
LINE
8
BLACK
6
CONTINUOUS
10
109.02
20
-111.814
11
109.42
21
-112.214
0
LINE
8
BLACK
6
CONTINUOUS
10
109.42
20
-111.814
11
109.02
21
-112.214
0
LINE
8
BLACK
6
CONTINUOUS
10
109.02
20
-113.973
11
109.42
21
-114.373
0
LINE
8
BLACK
6
CONTINUOUS
10
109.42
20
-113.973
11
109.02
21
-114.373
0
LINE
8
BLACK
6
CONTINUOUS
10
110.332
20
-123.968
11
110.732
21
-124.368
0
LINE
8
BLACK
6
CONTINUOUS
10
110.732
20
-123.968
11
110.332
21
-124.368
0
LINE
8
BLACK
6
CONTINUOUS
10
110.332
20
-134.068
11
110.732
21
-134.468
0
LINE
8
BLACK
6
CONTINUOUS
10
110.732
20
-134.068
11
110.332
21
-134.468
0
LINE
8
BLACK
6
CONTINUOUS
10
110.925
20
-105.718
11
111.325
21
-106.118
0
LINE
8
BLACK
6
CONTINUOUS
10
111.325
20
-105.718
11
110.925
21
-106.118
0
LINE
8
BLACK
6
CONTINUOUS
10
110.925
20
-107.242
11
111.325
21
-107.642
0
LINE
8
BLACK
6
CONTINUOUS
10
111.325
20
-107.242
11
110.925
21
-107.642
0
LINE
8
BLACK
6
CONTINUOUS
10
110.925
20
-108.893
11
111.325
21
-109.293
0
LINE
8
BLACK
6
CONTINUOUS
10
111.325
20
-108.893
11
110.925
21
-109.293
0
LINE
8
BLACK
6
CONTINUOUS
10
110.925
20
-110.671
11
111.325
21
-111.071
0
LINE
8
BLACK
6
CONTINUOUS
10
111.325
20
-110.671
11
110.925
21
-111.071
0
LINE
8
BLACK
6
CONTINUOUS
10
110.925
20
-112.322
11
111.325
21
-112.722
0
LINE
8
BLACK
6
CONTINUOUS
10
111.325
20
-112.322
11
110.925
21
-112.722
0
LINE
8
BLACK
6
CONTINUOUS
10
110.925
20
-113.973
11
111.325
21
-114.373
0
LINE
8
BLACK
6
CONTINUOUS
10
111.325
20
-113.973
11
110.925
21
-114.373
0
LINE
8
BLACK
6
CONTINUOUS
10
111.432
20
-123.968
11
111.832
21
-124.368
0
LINE
8
BLACK
6
CONTINUOUS
10
111.832
20
-123.968
11
111.432
21
-124.368
0
LINE
8
BLACK
6
CONTINUOUS
10
111.432
20
-134.068
11
111.832
21
-134.468
0
LINE
8
BLACK
6
CONTINUOUS
10
111.832
20
-134.068
11
111.432
21
-134.468
0
LINE
8
BLACK
6
CONTINUOUS
10
111.832
20
-139.168
11
112.232
21
-139.568
0
LINE
8
BLACK
6
CONTINUOUS
10
112.232
20
-139.168
11
111.832
21
-139.568
0
LINE
8
BLACK
6
CONTINUOUS
10
112.195
20
-118.672
11
112.595
21
-119.072
0
LINE
8
BLACK
6
CONTINUOUS
10
112.595
20
-118.672
11
112.195
21
-119.072
0
LINE
8
BLACK
6
CONTINUOUS
10
112.532
20
-123.968
11
112.932
21
-124.368
0
LINE
8
BLACK
6
CONTINUOUS
10
112.932
20
-123.968
11
112.532
21
-124.368
0
LINE
8
BLACK
6
CONTINUOUS
10
112.532
20
-134.068
11
112.932
21
-134.468
0
LINE
8
BLACK
6
CONTINUOUS
10
112.932
20
-134.068
11
112.532
21
-134.468
0
LINE
8
BLACK
6
CONTINUOUS
10
112.932
20
-132.368
11
113.332
21
-132.768
0
LINE
8
BLACK
6
CONTINUOUS
10
113.332
20
-132.368
11
112.932
21
-132.768
0
LINE
8
BLACK
6
CONTINUOUS
10
115.032
20
-121.339
11
115.432
21
-121.739
0
LINE
8
BLACK
6
CONTINUOUS
10
115.432
20
-121.339
11
115.032
21
-121.739
0
LINE
8
BLACK
6
CONTINUOUS
10
116.497
20
-120.339
11
116.897
21
-120.739
0
LINE
8
BLACK
6
CONTINUOUS
10
116.897
20
-120.339
11
116.497
21
-120.739
0
LINE
8
BLACK
6
CONTINUOUS
10
118.418
20
-127.498
11
118.818
21
-127.898
0
LINE
8
BLACK
6
CONTINUOUS
10
118.818
20
-127.498
11
118.418
21
-127.898
0
LINE
8
BLACK
6
CONTINUOUS
10
120.332
20
-120.268
11
120.732
21
-120.668
0
LINE
8
BLACK
6
CONTINUOUS
10
120.732
20
-120.268
11
120.332
21
-120.668
0
LINE
8
BLACK
6
CONTINUOUS
10
120.613
20
-116.487
11
121.013
21
-116.887
0
LINE
8
BLACK
6
CONTINUOUS
10
121.013
20
-116.487
11
120.613
21
-116.887
0
LINE
8
BLACK
6
CONTINUOUS
10
122.482
20
-119.561
11
122.882
21
-119.961
0
LINE
8
BLACK
6
CONTINUOUS
10
122.882
20
-119.561
11
122.482
21
-119.961
0
LINE
8
BLACK
6
CONTINUOUS
10
122.482
20
-127.498
11
122.882
21
-127.898
0
LINE
8
BLACK
6
CONTINUOUS
10
122.882
20
-127.498
11
122.482
21
-127.898
0
CIRCLE
8
BLACK
10
85.725
20
-107.798
40
0.5
0
CIRCLE
8
BLACK
10
85.725
20
-110.338
40
0.5
0
CIRCLE
8
BLACK
10
85.725
20
-112.878
40
0.5
0
CIRCLE
8
BLACK
10
85.725
20
-115.418
40
0.5
0
CIRCLE
8
BLACK
10
85.725
20
-117.958
40
0.5
0
CIRCLE
8
BLACK
10
85.725
20
-120.498
40
0.5
0
CIRCLE
8
BLACK
10
85.725
20
-123.038
40
0.5
0
CIRCLE
8
BLACK
10
105.182
20
-109.251
40
0.5
0
CIRCLE
8
BLACK
10
111.292
20
-151.928
40
0.5
0
CIRCLE
8
BLACK
10
111.292
20
-154.468
40
0.5
0
CIRCLE
8
BLACK
10
113.832
20
-151.928
40
0.5
0
CIRCLE
8
BLACK
10
113.832
20
-154.468
40
0.5
0
CIRCLE
8
BLACK
10
116.18
20
-142.951
40
0.5
0
CIRCLE
8
BLACK
10
118.72
20
-142.951
40
0.5
0
CIRCLE
8
BLACK
10
119.507
20
-130.175
40
0.5
0
CIRCLE
8
BLACK
10
119.507
20
-132.715
40
0.5
0
CIRCLE
8
BLACK
10
119.507
20
-135.255
40
0.5
0
CIRCLE
8
BLACK
10
119.507
20
-137.795
40
0.5
0
CIRCLE
8
BLACK
10
121.26
20
-142.951
40
0.5
0
CIRCLE
8
BLACK
10
122.047
20
-130.175
40
0.5
0
CIRCLE
8
BLACK
10
122.047
20
-132.715
40
0.5
0
CIRCLE
8
BLACK
10
122.047
20
-135.255
40
0.5
0
CIRCLE
8
BLACK
10
122.047
20
-137.795
40
0.5
0
LINE
8
BLACK
6
CONTINUOUS
10
85.5582
20
-159.623
11
85.5582
21
-157.623
0
LINE
8
BLACK
6
CONTINUOUS
10
85.5582
20
-157.623
11
86.0344
21
-157.623
0
LINE
8
BLACK
6
CONTINUOUS
10
86.0344
20
-157.623
11
86.3201
21
-157.718
0
LINE
8
BLACK
6
CONTINUOUS
10
86.3201
20
-157.718
11
86.5106
21
-157.908
0
LINE
8
BLACK
6
CONTINUOUS
10
86.5106
20
-157.908
11
86.6058
21
-158.099
0
LINE
8
BLACK
6
CONTINUOUS
10
86.6058
20
-158.099
11
86.701
21
-158.48
0
LINE
8
BLACK
6
CONTINUOUS
10
86.701
20
-158.48
11
86.701
21
-158.766
0
LINE
8
BLACK
6
CONTINUOUS
10
86.701
20
-158.766
11
86.6058
21
-159.147
0
LINE
8
BLACK
6
CONTINUOUS
10
86.6058
20
-159.147
11
86.5106
21
-159.337
0
LINE
8
BLACK
6
CONTINUOUS
10
86.5106
20
-159.337
11
86.3201
21
-159.528
0
LINE
8
BLACK
6
CONTINUOUS
10
86.3201
20
-159.528
11
86.0344
21
-159.623
0
LINE
8
BLACK
6
CONTINUOUS
10
86.0344
20
-159.623
11
85.5582
21
-159.623
0
LINE
8
BLACK
6
CONTINUOUS
10
87.5582
20
-159.623
11
87.5582
21
-158.289
0
LINE
8
BLACK
6
CONTINUOUS
10
87.5582
20
-158.67
11
87.6534
21
-158.48
0
LINE
8
BLACK
6
CONTINUOUS
10
87.6534
20
-158.48
11
87.7487
21
-158.385
0
LINE
8
BLACK
6
CONTINUOUS
10
87.7487
20
-158.385
11
87.9391
21
-158.289
0
LINE
8
BLACK
6
CONTINUOUS
10
87.9391
20
-158.289
11
88.1296
21
-158.289
0
LINE
8
BLACK
6
CONTINUOUS
10
88.7963
20
-159.623
11
88.7963
21
-158.289
0
LINE
8
BLACK
6
CONTINUOUS
10
88.7963
20
-157.623
11
88.701
21
-157.718
0
LINE
8
BLACK
6
CONTINUOUS
10
88.701
20
-157.718
11
88.7963
21
-157.813
0
LINE
8
BLACK
6
CONTINUOUS
10
88.7963
20
-157.813
11
88.8915
21
-157.718
0
LINE
8
BLACK
6
CONTINUOUS
10
88.8915
20
-157.718
11
88.7963
21
-157.623
0
LINE
8
BLACK
6
CONTINUOUS
10
88.7963
20
-157.623
11
88.7963
21
-157.813
0
LINE
8
BLACK
6
CONTINUOUS
10
90.0344
20
-159.623
11
89.8439
21
-159.528
0
LINE
8
BLACK
6
CONTINUOUS
10
89.8439
20
-159.528
11
89.7487
21
-159.337
0
LINE
8
BLACK
6
CONTINUOUS
10
89.7487
20
-159.337
11
89.7487
21
-157.623
0
LINE
8
BLACK
6
CONTINUOUS
10
91.082
20
-159.623
11
90.8915
21
-159.528
0
LINE
8
BLACK
6
CONTINUOUS
10
90.8915
20
-159.528
11
90.7963
21
-159.337
0
LINE
8
BLACK
6
CONTINUOUS
10
90.7963
20
-159.337
11
90.7963
21
-157.623
0
LINE
8
BLACK
6
CONTINUOUS
10
93.3677
20
-159.623
11
93.3677
21
-157.623
0
LINE
8
BLACK
6
CONTINUOUS
10
93.3677
20
-157.623
11
94.0344
21
-159.051
0
LINE
8
BLACK
6
CONTINUOUS
10
94.0344
20
-159.051
11
94.701
21
-157.623
0
LINE
8
BLACK
6
CONTINUOUS
10
94.701
20
-157.623
11
94.701
21
-159.623
0
LINE
8
BLACK
6
CONTINUOUS
10
96.5106
20
-159.623
11
96.5106
21
-158.575
0
LINE
8
BLACK
6
CONTINUOUS
10
96.5106
20
-158.575
11
96.4153
21
-158.385
0
LINE
8
BLACK
6
CONTINUOUS
10
96.4153
20
-158.385
11
96.2249
21
-158.289
0
LINE
8
BLACK
6
CONTINUOUS
10
96.2249
20
-158.289
11
95.8439
21
-158.289
0
LINE
8
BLACK
6
CONTINUOUS
10
95.8439
20
-158.289
11
95.6534
21
-158.385
0
LINE
8
BLACK
6
CONTINUOUS
10
96.5106
20
-159.528
11
96.3201
21
-159.623
0
LINE
8
BLACK
6
CONTINUOUS
10
96.3201
20
-159.623
11
95.8439
21
-159.623
0
LINE
8
BLACK
6
CONTINUOUS
10
95.8439
20
-159.623
11
95.6534
21
-159.528
0
LINE
8
BLACK
6
CONTINUOUS
10
95.6534
20
-159.528
11
95.5582
21
-159.337
0
LINE
8
BLACK
6
CONTINUOUS
10
95.5582
20
-159.337
11
95.5582
21
-159.147
0
LINE
8
BLACK
6
CONTINUOUS
10
95.5582
20
-159.147
11
95.6534
21
-158.956
0
LINE
8
BLACK
6
CONTINUOUS
10
95.6534
20
-158.956
11
95.8439
21
-158.861
0
LINE
8
BLACK
6
CONTINUOUS
10
95.8439
20
-158.861
11
96.3201
21
-158.861
0
LINE
8
BLACK
6
CONTINUOUS
10
96.3201
20
-158.861
11
96.5106
21
-158.766
0
LINE
8
BLACK
6
CONTINUOUS
10
97.463
20
-158.289
11
97.463
21
-160.289
0
LINE
8
BLACK
6
CONTINUOUS
10
97.463
20
-158.385
11
97.6534
21
-158.289
0
LINE
8
BLACK
6
CONTINUOUS
10
97.6534
20
-158.289
11
98.0344
21
-158.289
0
LINE
8
BLACK
6
CONTINUOUS
10
98.0344
20
-158.289
11
98.2249
21
-158.385
0
LINE
8
BLACK
6
CONTINUOUS
10
98.2249
20
-158.385
11
98.3201
21
-158.48
0
LINE
8
BLACK
6
CONTINUOUS
10
98.3201
20
-158.48
11
98.4153
21
-158.67
0
LINE
8
BLACK
6
CONTINUOUS
10
98.4153
20
-158.67
11
98.4153
21
-159.242
0
LINE
8
BLACK
6
CONTINUOUS
10
98.4153
20
-159.242
11
98.3201
21
-159.432
0
LINE
8
BLACK
6
CONTINUOUS
10
98.3201
20
-159.432
11
98.2249
21
-159.528
0
LINE
8
BLACK
6
CONTINUOUS
10
98.2249
20
-159.528
11
98.0344
21
-159.623
0
LINE
8
BLACK
6
CONTINUOUS
10
98.0344
20
-159.623
11
97.6534
21
-159.623
0
LINE
8
BLACK
6
CONTINUOUS
10
97.6534
20
-159.623
11
97.463
21
-159.528
0
LINE
8
BLACK
6
CONTINUOUS
10
99.2725
20
-159.432
11
99.3677
21
-159.528
0
LINE
8
BLACK
6
CONTINUOUS
10
99.3677
20
-159.528
11
99.2725
21
-159.623
0
LINE
8
BLACK
6
CONTINUOUS
10
99.2725
20
-159.623
11
99.1772
21
-159.528
0
LINE
8
BLACK
6
CONTINUOUS
10
99.1772
20
-159.528
11
99.2725
21
-159.432
0
LINE
8
BLACK
6
CONTINUOUS
10
99.2725
20
-159.432
11
99.2725
21
-159.623
0
LINE
8
BLACK
6
CONTINUOUS
10
99.2725
20
-158.385
11
99.3677
21
-158.48
0
LINE
8
BLACK
6
CONTINUOUS
10
99.3677
20
-158.48
11
99.2725
21
-158.575
0
LINE
8
BLACK
6
CONTINUOUS
10
99.2725
20
-158.575
11
99.1772
21
-158.48
0
LINE
8
BLACK
6
CONTINUOUS
10
99.1772
20
-158.48
11
99.2725
21
-158.385
0
LINE
8
BLACK
6
CONTINUOUS
10
99.2725
20
-158.385
11
99.2725
21
-158.575
0
LINE
8
BLACK
6
CONTINUOUS
10
82.582
20
-162.718
11
82.982
21
-163.118
0
LINE
8
BLACK
6
CONTINUOUS
10
82.982
20
-162.718
11
82.582
21
-163.118
0
LINE
8
BLACK
6
CONTINUOUS
10
85.9391
20
-161.823
11
86.1296
21
-161.823
0
LINE
8
BLACK
6
CONTINUOUS
10
86.1296
20
-161.823
11
86.3201
21
-161.918
0
LINE
8
BLACK
6
CONTINUOUS
10
86.3201
20
-161.918
11
86.4153
21
-162.013
0
LINE
8
BLACK
6
CONTINUOUS
10
86.4153
20
-162.013
11
86.5106
21
-162.204
0
LINE
8
BLACK
6
CONTINUOUS
10
86.5106
20
-162.204
11
86.6058
21
-162.585
0
LINE
8
BLACK
6
CONTINUOUS
10
86.6058
20
-162.585
11
86.6058
21
-163.061
0
LINE
8
BLACK
6
CONTINUOUS
10
86.6058
20
-163.061
11
86.5106
21
-163.442
0
LINE
8
BLACK
6
CONTINUOUS
10
86.5106
20
-163.442
11
86.4153
21
-163.632
0
LINE
8
BLACK
6
CONTINUOUS
10
86.4153
20
-163.632
11
86.3201
21
-163.728
0
LINE
8
BLACK
6
CONTINUOUS
10
86.3201
20
-163.728
11
86.1296
21
-163.823
0
LINE
8
BLACK
6
CONTINUOUS
10
86.1296
20
-163.823
11
85.9391
21
-163.823
0
LINE
8
BLACK
6
CONTINUOUS
10
85.9391
20
-163.823
11
85.7487
21
-163.728
0
LINE
8
BLACK
6
CONTINUOUS
10
85.7487
20
-163.728
11
85.6534
21
-163.632
0
LINE
8
BLACK
6
CONTINUOUS
10
85.6534
20
-163.632
11
85.5582
21
-163.442
0
LINE
8
BLACK
6
CONTINUOUS
10
85.5582
20
-163.442
11
85.463
21
-163.061
0
LINE
8
BLACK
6
CONTINUOUS
10
85.463
20
-163.061
11
85.463
21
-162.585
0
LINE
8
BLACK
6
CONTINUOUS
10
85.463
20
-162.585
11
85.5582
21
-162.204
0
LINE
8
BLACK
6
CONTINUOUS
10
85.5582
20
-162.204
11
85.6534
21
-162.013
0
LINE
8
BLACK
6
CONTINUOUS
10
85.6534
20
-162.013
11
85.7487
21
-161.918
0
LINE
8
BLACK
6
CONTINUOUS
10
85.7487
20
-161.918
11
85.9391
21
-161.823
0
LINE
8
BLACK
6
CONTINUOUS
10
87.463
20
-163.632
11
87.5582
21
-163.728
0
LINE
8
BLACK
6
CONTINUOUS
10
87.5582
20
-163.728
11
87.463
21
-163.823
0
LINE
8
BLACK
6
CONTINUOUS
10
87.463
20
-163.823
11
87.3677
21
-163.728
0
LINE
8
BLACK
6
CONTINUOUS
10
87.3677
20
-163.728
11
87.463
21
-163.632
0
LINE
8
BLACK
6
CONTINUOUS
10
87.463
20
-163.632
11
87.463
21
-163.823
0
LINE
8
BLACK
6
CONTINUOUS
10
89.2725
20
-162.489
11
89.2725
21
-163.823
0
LINE
8
BLACK
6
CONTINUOUS
10
88.7963
20
-161.728
11
88.3201
21
-163.156
0
LINE
8
BLACK
6
CONTINUOUS
10
88.3201
20
-163.156
11
89.5582
21
-163.156
0
LINE
8
BLACK
6
CONTINUOUS
10
90.701
20
-161.823
11
90.8915
21
-161.823
0
LINE
8
BLACK
6
CONTINUOUS
10
90.8915
20
-161.823
11
91.082
21
-161.918
0
LINE
8
BLACK
6
CONTINUOUS
10
91.082
20
-161.918
11
91.1772
21
-162.013
0
LINE
8
BLACK
6
CONTINUOUS
10
91.1772
20
-162.013
11
91.2725
21
-162.204
0
LINE
8
BLACK
6
CONTINUOUS
10
91.2725
20
-162.204
11
91.3677
21
-162.585
0
LINE
8
BLACK
6
CONTINUOUS
10
91.3677
20
-162.585
11
91.3677
21
-163.061
0
LINE
8
BLACK
6
CONTINUOUS
10
91.3677
20
-163.061
11
91.2725
21
-163.442
0
LINE
8
BLACK
6
CONTINUOUS
10
91.2725
20
-163.442
11
91.1772
21
-163.632
0
LINE
8
BLACK
6
CONTINUOUS
10
91.1772
20
-163.632
11
91.082
21
-163.728
0
LINE
8
BLACK
6
CONTINUOUS
10
91.082
20
-163.728
11
90.8915
21
-163.823
0
LINE
8
BLACK
6
CONTINUOUS
10
90.8915
20
-163.823
11
90.701
21
-163.823
0
LINE
8
BLACK
6
CONTINUOUS
10
90.701
20
-163.823
11
90.5106
21
-163.728
0
LINE
8
BLACK
6
CONTINUOUS
10
90.5106
20
-163.728
11
90.4153
21
-163.632
0
LINE
8
BLACK
6
CONTINUOUS
10
90.4153
20
-163.632
11
90.3201
21
-163.442
0
LINE
8
BLACK
6
CONTINUOUS
10
90.3201
20
-163.442
11
90.2249
21
-163.061
0
LINE
8
BLACK
6
CONTINUOUS
10
90.2249
20
-163.061
11
90.2249
21
-162.585
0
LINE
8
BLACK
6
CONTINUOUS
10
90.2249
20
-162.585
11
90.3201
21
-162.204
0
LINE
8
BLACK
6
CONTINUOUS
10
90.3201
20
-162.204
11
90.4153
21
-162.013
0
LINE
8
BLACK
6
CONTINUOUS
10
90.4153
20
-162.013
11
90.5106
21
-161.918
0
LINE
8
BLACK
6
CONTINUOUS
10
90.5106
20
-161.918
11
90.701
21
-161.823
0
LINE
8
BLACK
6
CONTINUOUS
10
92.6058
20
-161.823
11
92.7963
21
-161.823
0
LINE
8
BLACK
6
CONTINUOUS
10
92.7963
20
-161.823
11
92.9868
21
-161.918
0
LINE
8
BLACK
6
CONTINUOUS
10
92.9868
20
-161.918
11
93.082
21
-162.013
0
LINE
8
BLACK
6
CONTINUOUS
10
93.082
20
-162.013
11
93.1772
21
-162.204
0
LINE
8
BLACK
6
CONTINUOUS
10
93.1772
20
-162.204
11
93.2725
21
-162.585
0
LINE
8
BLACK
6
CONTINUOUS
10
93.2725
20
-162.585
11
93.2725
21
-163.061
0
LINE
8
BLACK
6
CONTINUOUS
10
93.2725
20
-163.061
11
93.1772
21
-163.442
0
LINE
8
BLACK
6
CONTINUOUS
10
93.1772
20
-163.442
11
93.082
21
-163.632
0
LINE
8
BLACK
6
CONTINUOUS
10
93.082
20
-163.632
11
92.9868
21
-163.728
0
LINE
8
BLACK
6
CONTINUOUS
10
92.9868
20
-163.728
11
92.7963
21
-163.823
0
LINE
8
BLACK
6
CONTINUOUS
10
92.7963
20
-163.823
11
92.6058
21
-163.823
0
LINE
8
BLACK
6
CONTINUOUS
10
92.6058
20
-163.823
11
92.4153
21
-163.728
0
LINE
8
BLACK
6
CONTINUOUS
10
92.4153
20
-163.728
11
92.3201
21
-163.632
0
LINE
8
BLACK
6
CONTINUOUS
10
92.3201
20
-163.632
11
92.2249
21
-163.442
0
LINE
8
BLACK
6
CONTINUOUS
10
92.2249
20
-163.442
11
92.1296
21
-163.061
0
LINE
8
BLACK
6
CONTINUOUS
10
92.1296
20
-163.061
11
92.1296
21
-162.585
0
LINE
8
BLACK
6
CONTINUOUS
10
92.1296
20
-162.585
11
92.2249
21
-162.204
0
LINE
8
BLACK
6
CONTINUOUS
10
92.2249
20
-162.204
11
92.3201
21
-162.013
0
LINE
8
BLACK
6
CONTINUOUS
10
92.3201
20
-162.013
11
92.4153
21
-161.918
0
LINE
8
BLACK
6
CONTINUOUS
10
92.4153
20
-161.918
11
92.6058
21
-161.823
0
LINE
8
BLACK
6
CONTINUOUS
10
94.1296
20
-163.823
11
94.1296
21
-162.489
0
LINE
8
BLACK
6
CONTINUOUS
10
94.1296
20
-162.68
11
94.2249
21
-162.585
0
LINE
8
BLACK
6
CONTINUOUS
10
94.2249
20
-162.585
11
94.4153
21
-162.489
0
LINE
8
BLACK
6
CONTINUOUS
10
94.4153
20
-162.489
11
94.701
21
-162.489
0
LINE
8
BLACK
6
CONTINUOUS
10
94.701
20
-162.489
11
94.8915
21
-162.585
0
LINE
8
BLACK
6
CONTINUOUS
10
94.8915
20
-162.585
11
94.9868
21
-162.775
0
LINE
8
BLACK
6
CONTINUOUS
10
94.9868
20
-162.775
11
94.9868
21
-163.823
0
LINE
8
BLACK
6
CONTINUOUS
10
94.9868
20
-162.775
11
95.082
21
-162.585
0
LINE
8
BLACK
6
CONTINUOUS
10
95.082
20
-162.585
11
95.2725
21
-162.489
0
LINE
8
BLACK
6
CONTINUOUS
10
95.2725
20
-162.489
11
95.5582
21
-162.489
0
LINE
8
BLACK
6
CONTINUOUS
10
95.5582
20
-162.489
11
95.7487
21
-162.585
0
LINE
8
BLACK
6
CONTINUOUS
10
95.7487
20
-162.585
11
95.8439
21
-162.775
0
LINE
8
BLACK
6
CONTINUOUS
10
95.8439
20
-162.775
11
95.8439
21
-163.823
0
LINE
8
BLACK
6
CONTINUOUS
10
96.7963
20
-163.823
11
96.7963
21
-162.489
0
LINE
8
BLACK
6
CONTINUOUS
10
96.7963
20
-162.68
11
96.8915
21
-162.585
0
LINE
8
BLACK
6
CONTINUOUS
10
96.8915
20
-162.585
11
97.082
21
-162.489
0
LINE
8
BLACK
6
CONTINUOUS
10
97.082
20
-162.489
11
97.3677
21
-162.489
0
LINE
8
BLACK
6
CONTINUOUS
10
97.3677
20
-162.489
11
97.5582
21
-162.585
0
LINE
8
BLACK
6
CONTINUOUS
10
97.5582
20
-162.585
11
97.6534
21
-162.775
0
LINE
8
BLACK
6
CONTINUOUS
10
97.6534
20
-162.775
11
97.6534
21
-163.823
0
LINE
8
BLACK
6
CONTINUOUS
10
97.6534
20
-162.775
11
97.7487
21
-162.585
0
LINE
8
BLACK
6
CONTINUOUS
10
97.7487
20
-162.585
11
97.9391
21
-162.489
0
LINE
8
BLACK
6
CONTINUOUS
10
97.9391
20
-162.489
11
98.2249
21
-162.489
0
LINE
8
BLACK
6
CONTINUOUS
10
98.2249
20
-162.489
11
98.4153
21
-162.585
0
LINE
8
BLACK
6
CONTINUOUS
10
98.4153
20
-162.585
11
98.5106
21
-162.775
0
LINE
8
BLACK
6
CONTINUOUS
10
98.5106
20
-162.775
11
98.5106
21
-163.823
0
LINE
8
BLACK
6
CONTINUOUS
10
102.415
20
-161.728
11
100.701
21
-164.299
0
LINE
8
BLACK
6
CONTINUOUS
10
104.987
20
-161.823
11
105.177
21
-161.823
0
LINE
8
BLACK
6
CONTINUOUS
10
105.177
20
-161.823
11
105.368
21
-161.918
0
LINE
8
BLACK
6
CONTINUOUS
10
105.368
20
-161.918
11
105.463
21
-162.013
0
LINE
8
BLACK
6
CONTINUOUS
10
105.463
20
-162.013
11
105.558
21
-162.204
0
LINE
8
BLACK
6
CONTINUOUS
10
105.558
20
-162.204
11
105.653
21
-162.585
0
LINE
8
BLACK
6
CONTINUOUS
10
105.653
20
-162.585
11
105.653
21
-163.061
0
LINE
8
BLACK
6
CONTINUOUS
10
105.653
20
-163.061
11
105.558
21
-163.442
0
LINE
8
BLACK
6
CONTINUOUS
10
105.558
20
-163.442
11
105.463
21
-163.632
0
LINE
8
BLACK
6
CONTINUOUS
10
105.463
20
-163.632
11
105.368
21
-163.728
0
LINE
8
BLACK
6
CONTINUOUS
10
105.368
20
-163.728
11
105.177
21
-163.823
0
LINE
8
BLACK
6
CONTINUOUS
10
105.177
20
-163.823
11
104.987
21
-163.823
0
LINE
8
BLACK
6
CONTINUOUS
10
104.987
20
-163.823
11
104.796
21
-163.728
0
LINE
8
BLACK
6
CONTINUOUS
10
104.796
20
-163.728
11
104.701
21
-163.632
0
LINE
8
BLACK
6
CONTINUOUS
10
104.701
20
-163.632
11
104.606
21
-163.442
0
LINE
8
BLACK
6
CONTINUOUS
10
104.606
20
-163.442
11
104.511
21
-163.061
0
LINE
8
BLACK
6
CONTINUOUS
10
104.511
20
-163.061
11
104.511
21
-162.585
0
LINE
8
BLACK
6
CONTINUOUS
10
104.511
20
-162.585
11
104.606
21
-162.204
0
LINE
8
BLACK
6
CONTINUOUS
10
104.606
20
-162.204
11
104.701
21
-162.013
0
LINE
8
BLACK
6
CONTINUOUS
10
104.701
20
-162.013
11
104.796
21
-161.918
0
LINE
8
BLACK
6
CONTINUOUS
10
104.796
20
-161.918
11
104.987
21
-161.823
0
LINE
8
BLACK
6
CONTINUOUS
10
106.511
20
-163.632
11
106.606
21
-163.728
0
LINE
8
BLACK
6
CONTINUOUS
10
106.606
20
-163.728
11
106.511
21
-163.823
0
LINE
8
BLACK
6
CONTINUOUS
10
106.511
20
-163.823
11
106.415
21
-163.728
0
LINE
8
BLACK
6
CONTINUOUS
10
106.415
20
-163.728
11
106.511
21
-163.632
0
LINE
8
BLACK
6
CONTINUOUS
10
106.511
20
-163.632
11
106.511
21
-163.823
0
LINE
8
BLACK
6
CONTINUOUS
10
107.844
20
-161.823
11
108.034
21
-161.823
0
LINE
8
BLACK
6
CONTINUOUS
10
108.034
20
-161.823
11
108.225
21
-161.918
0
LINE
8
BLACK
6
CONTINUOUS
10
108.225
20
-161.918
11
108.32
21
-162.013
0
LINE
8
BLACK
6
CONTINUOUS
10
108.32
20
-162.013
11
108.415
21
-162.204
0
LINE
8
BLACK
6
CONTINUOUS
10
108.415
20
-162.204
11
108.511
21
-162.585
0
LINE
8
BLACK
6
CONTINUOUS
10
108.511
20
-162.585
11
108.511
21
-163.061
0
LINE
8
BLACK
6
CONTINUOUS
10
108.511
20
-163.061
11
108.415
21
-163.442
0
LINE
8
BLACK
6
CONTINUOUS
10
108.415
20
-163.442
11
108.32
21
-163.632
0
LINE
8
BLACK
6
CONTINUOUS
10
108.32
20
-163.632
11
108.225
21
-163.728
0
LINE
8
BLACK
6
CONTINUOUS
10
108.225
20
-163.728
11
108.034
21
-163.823
0
LINE
8
BLACK
6
CONTINUOUS
10
108.034
20
-163.823
11
107.844
21
-163.823
0
LINE
8
BLACK
6
CONTINUOUS
10
107.844
20
-163.823
11
107.653
21
-163.728
0
LINE
8
BLACK
6
CONTINUOUS
10
107.653
20
-163.728
11
107.558
21
-163.632
0
LINE
8
BLACK
6
CONTINUOUS
10
107.558
20
-163.632
11
107.463
21
-163.442
0
LINE
8
BLACK
6
CONTINUOUS
10
107.463
20
-163.442
11
107.368
21
-163.061
0
LINE
8
BLACK
6
CONTINUOUS
10
107.368
20
-163.061
11
107.368
21
-162.585
0
LINE
8
BLACK
6
CONTINUOUS
10
107.368
20
-162.585
11
107.463
21
-162.204
0
LINE
8
BLACK
6
CONTINUOUS
10
107.463
20
-162.204
11
107.558
21
-162.013
0
LINE
8
BLACK
6
CONTINUOUS
10
107.558
20
-162.013
11
107.653
21
-161.918
0
LINE
8
BLACK
6
CONTINUOUS
10
107.653
20
-161.918
11
107.844
21
-161.823
0
LINE
8
BLACK
6
CONTINUOUS
10
110.415
20
-163.823
11
109.272
21
-163.823
0
LINE
8
BLACK
6
CONTINUOUS
10
109.844
20
-163.823
11
109.844
21
-161.823
0
LINE
8
BLACK
6
CONTINUOUS
10
109.844
20
-161.823
11
109.653
21
-162.108
0
LINE
8
BLACK
6
CONTINUOUS
10
109.653
20
-162.108
11
109.463
21
-162.299
0
LINE
8
BLACK
6
CONTINUOUS
10
109.463
20
-162.299
11
109.272
21
-162.394
0
LINE
8
BLACK
6
CONTINUOUS
10
112.225
20
-161.823
11
111.272
21
-161.823
0
LINE
8
BLACK
6
CONTINUOUS
10
111.272
20
-161.823
11
111.177
21
-162.775
0
LINE
8
BLACK
6
CONTINUOUS
10
111.177
20
-162.775
11
111.272
21
-162.68
0
LINE
8
BLACK
6
CONTINUOUS
10
111.272
20
-162.68
11
111.463
21
-162.585
0
LINE
8
BLACK
6
CONTINUOUS
10
111.463
20
-162.585
11
111.939
21
-162.585
0
LINE
8
BLACK
6
CONTINUOUS
10
111.939
20
-162.585
11
112.13
21
-162.68
0
LINE
8
BLACK
6
CONTINUOUS
10
112.13
20
-162.68
11
112.225
21
-162.775
0
LINE
8
BLACK
6
CONTINUOUS
10
112.225
20
-162.775
11
112.32
21
-162.966
0
LINE
8
BLACK
6
CONTINUOUS
10
112.32
20
-162.966
11
112.32
21
-163.442
0
LINE
8
BLACK
6
CONTINUOUS
10
112.32
20
-163.442
11
112.225
21
-163.632
0
LINE
8
BLACK
6
CONTINUOUS
10
112.225
20
-163.632
11
112.13
21
-163.728
0
LINE
8
BLACK
6
CONTINUOUS
10
112.13
20
-163.728
11
111.939
21
-163.823
0
LINE
8
BLACK
6
CONTINUOUS
10
111.939
20
-163.823
11
111.463
21
-163.823
0
LINE
8
BLACK
6
CONTINUOUS
10
111.463
20
-163.823
11
111.272
21
-163.728
0
LINE
8
BLACK
6
CONTINUOUS
10
111.272
20
-163.728
11
111.177
21
-163.632
0
LINE
8
BLACK
6
CONTINUOUS
10
112.987
20
-161.823
11
114.32
21
-161.823
0
LINE
8
BLACK
6
CONTINUOUS
10
114.32
20
-161.823
11
113.463
21
-163.823
0
LINE
8
BLACK
6
CONTINUOUS
10
114.987
20
-161.823
11
114.987
21
-162.204
0
LINE
8
BLACK
6
CONTINUOUS
10
115.749
20
-161.823
11
115.749
21
-162.204
0
LINE
8
BLACK
6
CONTINUOUS
10
118.701
20
-164.585
11
118.606
21
-164.489
0
LINE
8
BLACK
6
CONTINUOUS
10
118.606
20
-164.489
11
118.415
21
-164.204
0
LINE
8
BLACK
6
CONTINUOUS
10
118.415
20
-164.204
11
118.32
21
-164.013
0
LINE
8
BLACK
6
CONTINUOUS
10
118.32
20
-164.013
11
118.225
21
-163.728
0
LINE
8
BLACK
6
CONTINUOUS
10
118.225
20
-163.728
11
118.13
21
-163.251
0
LINE
8
BLACK
6
CONTINUOUS
10
118.13
20
-163.251
11
118.13
21
-162.87
0
LINE
8
BLACK
6
CONTINUOUS
10
118.13
20
-162.87
11
118.225
21
-162.394
0
LINE
8
BLACK
6
CONTINUOUS
10
118.225
20
-162.394
11
118.32
21
-162.108
0
LINE
8
BLACK
6
CONTINUOUS
10
118.32
20
-162.108
11
118.415
21
-161.918
0
LINE
8
BLACK
6
CONTINUOUS
10
118.415
20
-161.918
11
118.606
21
-161.632
0
LINE
8
BLACK
6
CONTINUOUS
10
118.606
20
-161.632
11
118.701
21
-161.537
0
LINE
8
BLACK
6
CONTINUOUS
10
120.32
20
-161.823
11
119.939
21
-161.823
0
LINE
8
BLACK
6
CONTINUOUS
10
119.939
20
-161.823
11
119.749
21
-161.918
0
LINE
8
BLACK
6
CONTINUOUS
10
119.749
20
-161.918
11
119.653
21
-162.013
0
LINE
8
BLACK
6
CONTINUOUS
10
119.653
20
-162.013
11
119.463
21
-162.299
0
LINE
8
BLACK
6
CONTINUOUS
10
119.463
20
-162.299
11
119.368
21
-162.68
0
LINE
8
BLACK
6
CONTINUOUS
10
119.368
20
-162.68
11
119.368
21
-163.442
0
LINE
8
BLACK
6
CONTINUOUS
10
119.368
20
-163.442
11
119.463
21
-163.632
0
LINE
8
BLACK
6
CONTINUOUS
10
119.463
20
-163.632
11
119.558
21
-163.728
0
LINE
8
BLACK
6
CONTINUOUS
10
119.558
20
-163.728
11
119.749
21
-163.823
0
LINE
8
BLACK
6
CONTINUOUS
10
119.749
20
-163.823
11
120.13
21
-163.823
0
LINE
8
BLACK
6
CONTINUOUS
10
120.13
20
-163.823
11
120.32
21
-163.728
0
LINE
8
BLACK
6
CONTINUOUS
10
120.32
20
-163.728
11
120.415
21
-163.632
0
LINE
8
BLACK
6
CONTINUOUS
10
120.415
20
-163.632
11
120.511
21
-163.442
0
LINE
8
BLACK
6
CONTINUOUS
10
120.511
20
-163.442
11
120.511
21
-162.966
0
LINE
8
BLACK
6
CONTINUOUS
10
120.511
20
-162.966
11
120.415
21
-162.775
0
LINE
8
BLACK
6
CONTINUOUS
10
120.415
20
-162.775
11
120.32
21
-162.68
0
LINE
8
BLACK
6
CONTINUOUS
10
120.32
20
-162.68
11
120.13
21
-162.585
0
LINE
8
BLACK
6
CONTINUOUS
10
120.13
20
-162.585
11
119.749
21
-162.585
0
LINE
8
BLACK
6
CONTINUOUS
10
119.749
20
-162.585
11
119.558
21
-162.68
0
LINE
8
BLACK
6
CONTINUOUS
10
119.558
20
-162.68
11
119.463
21
-162.775
0
LINE
8
BLACK
6
CONTINUOUS
10
119.463
20
-162.775
11
119.368
21
-162.966
0
LINE
8
BLACK
6
CONTINUOUS
10
121.653
20
-162.68
11
121.463
21
-162.585
0
LINE
8
BLACK
6
CONTINUOUS
10
121.463
20
-162.585
11
121.368
21
-162.489
0
LINE
8
BLACK
6
CONTINUOUS
10
121.368
20
-162.489
11
121.272
21
-162.299
0
LINE
8
BLACK
6
CONTINUOUS
10
121.272
20
-162.299
11
121.272
21
-162.204
0
LINE
8
BLACK
6
CONTINUOUS
10
121.272
20
-162.204
11
121.368
21
-162.013
0
LINE
8
BLACK
6
CONTINUOUS
10
121.368
20
-162.013
11
121.463
21
-161.918
0
LINE
8
BLACK
6
CONTINUOUS
10
121.463
20
-161.918
11
121.653
21
-161.823
0
LINE
8
BLACK
6
CONTINUOUS
10
121.653
20
-161.823
11
122.034
21
-161.823
0
LINE
8
BLACK
6
CONTINUOUS
10
122.034
20
-161.823
11
122.225
21
-161.918
0
LINE
8
BLACK
6
CONTINUOUS
10
122.225
20
-161.918
11
122.32
21
-162.013
0
LINE
8
BLACK
6
CONTINUOUS
10
122.32
20
-162.013
11
122.415
21
-162.204
0
LINE
8
BLACK
6
CONTINUOUS
10
122.415
20
-162.204
11
122.415
21
-162.299
0
LINE
8
BLACK
6
CONTINUOUS
10
122.415
20
-162.299
11
122.32
21
-162.489
0
LINE
8
BLACK
6
CONTINUOUS
10
122.32
20
-162.489
11
122.225
21
-162.585
0
LINE
8
BLACK
6
CONTINUOUS
10
122.225
20
-162.585
11
122.034
21
-162.68
0
LINE
8
BLACK
6
CONTINUOUS
10
122.034
20
-162.68
11
121.653
21
-162.68
0
LINE
8
BLACK
6
CONTINUOUS
10
121.653
20
-162.68
11
121.463
21
-162.775
0
LINE
8
BLACK
6
CONTINUOUS
10
121.463
20
-162.775
11
121.368
21
-162.87
0
LINE
8
BLACK
6
CONTINUOUS
10
121.368
20
-162.87
11
121.272
21
-163.061
0
LINE
8
BLACK
6
CONTINUOUS
10
121.272
20
-163.061
11
121.272
21
-163.442
0
LINE
8
BLACK
6
CONTINUOUS
10
121.272
20
-163.442
11
121.368
21
-163.632
0
LINE
8
BLACK
6
CONTINUOUS
10
121.368
20
-163.632
11
121.463
21
-163.728
0
LINE
8
BLACK
6
CONTINUOUS
10
121.463
20
-163.728
11
121.653
21
-163.823
0
LINE
8
BLACK
6
CONTINUOUS
10
121.653
20
-163.823
11
122.034
21
-163.823
0
LINE
8
BLACK
6
CONTINUOUS
10
122.034
20
-163.823
11
122.225
21
-163.728
0
LINE
8
BLACK
6
CONTINUOUS
10
122.225
20
-163.728
11
122.32
21
-163.632
0
LINE
8
BLACK
6
CONTINUOUS
10
122.32
20
-163.632
11
122.415
21
-163.442
0
LINE
8
BLACK
6
CONTINUOUS
10
122.415
20
-163.442
11
122.415
21
-163.061
0
LINE
8
BLACK
6
CONTINUOUS
10
122.415
20
-163.061
11
122.32
21
-162.87
0
LINE
8
BLACK
6
CONTINUOUS
10
122.32
20
-162.87
11
122.225
21
-162.775
0
LINE
8
BLACK
6
CONTINUOUS
10
122.225
20
-162.775
11
122.034
21
-162.68
0
LINE
8
BLACK
6
CONTINUOUS
10
124.796
20
-163.823
11
124.796
21
-161.823
0
LINE
8
BLACK
6
CONTINUOUS
10
125.653
20
-163.823
11
125.653
21
-162.775
0
LINE
8
BLACK
6
CONTINUOUS
10
125.653
20
-162.775
11
125.558
21
-162.585
0
LINE
8
BLACK
6
CONTINUOUS
10
125.558
20
-162.585
11
125.368
21
-162.489
0
LINE
8
BLACK
6
CONTINUOUS
10
125.368
20
-162.489
11
125.082
21
-162.489
0
LINE
8
BLACK
6
CONTINUOUS
10
125.082
20
-162.489
11
124.892
21
-162.585
0
LINE
8
BLACK
6
CONTINUOUS
10
124.892
20
-162.585
11
124.796
21
-162.68
0
LINE
8
BLACK
6
CONTINUOUS
10
126.892
20
-163.823
11
126.701
21
-163.728
0
LINE
8
BLACK
6
CONTINUOUS
10
126.701
20
-163.728
11
126.606
21
-163.632
0
LINE
8
BLACK
6
CONTINUOUS
10
126.606
20
-163.632
11
126.511
21
-163.442
0
LINE
8
BLACK
6
CONTINUOUS
10
126.511
20
-163.442
11
126.511
21
-162.87
0
LINE
8
BLACK
6
CONTINUOUS
10
126.511
20
-162.87
11
126.606
21
-162.68
0
LINE
8
BLACK
6
CONTINUOUS
10
126.606
20
-162.68
11
126.701
21
-162.585
0
LINE
8
BLACK
6
CONTINUOUS
10
126.701
20
-162.585
11
126.892
21
-162.489
0
LINE
8
BLACK
6
CONTINUOUS
10
126.892
20
-162.489
11
127.177
21
-162.489
0
LINE
8
BLACK
6
CONTINUOUS
10
127.177
20
-162.489
11
127.368
21
-162.585
0
LINE
8
BLACK
6
CONTINUOUS
10
127.368
20
-162.585
11
127.463
21
-162.68
0
LINE
8
BLACK
6
CONTINUOUS
10
127.463
20
-162.68
11
127.558
21
-162.87
0
LINE
8
BLACK
6
CONTINUOUS
10
127.558
20
-162.87
11
127.558
21
-163.442
0
LINE
8
BLACK
6
CONTINUOUS
10
127.558
20
-163.442
11
127.463
21
-163.632
0
LINE
8
BLACK
6
CONTINUOUS
10
127.463
20
-163.632
11
127.368
21
-163.728
0
LINE
8
BLACK
6
CONTINUOUS
10
127.368
20
-163.728
11
127.177
21
-163.823
0
LINE
8
BLACK
6
CONTINUOUS
10
127.177
20
-163.823
11
126.892
21
-163.823
0
LINE
8
BLACK
6
CONTINUOUS
10
128.701
20
-163.823
11
128.511
21
-163.728
0
LINE
8
BLACK
6
CONTINUOUS
10
128.511
20
-163.728
11
128.415
21
-163.537
0
LINE
8
BLACK
6
CONTINUOUS
10
128.415
20
-163.537
11
128.415
21
-161.823
0
LINE
8
BLACK
6
CONTINUOUS
10
130.225
20
-163.728
11
130.034
21
-163.823
0
LINE
8
BLACK
6
CONTINUOUS
10
130.034
20
-163.823
11
129.653
21
-163.823
0
LINE
8
BLACK
6
CONTINUOUS
10
129.653
20
-163.823
11
129.463
21
-163.728
0
LINE
8
BLACK
6
CONTINUOUS
10
129.463
20
-163.728
11
129.368
21
-163.537
0
LINE
8
BLACK
6
CONTINUOUS
10
129.368
20
-163.537
11
129.368
21
-162.775
0
LINE
8
BLACK
6
CONTINUOUS
10
129.368
20
-162.775
11
129.463
21
-162.585
0
LINE
8
BLACK
6
CONTINUOUS
10
129.463
20
-162.585
11
129.653
21
-162.489
0
LINE
8
BLACK
6
CONTINUOUS
10
129.653
20
-162.489
11
130.034
21
-162.489
0
LINE
8
BLACK
6
CONTINUOUS
10
130.034
20
-162.489
11
130.225
21
-162.585
0
LINE
8
BLACK
6
CONTINUOUS
10
130.225
20
-162.585
11
130.32
21
-162.775
0
LINE
8
BLACK
6
CONTINUOUS
10
130.32
20
-162.775
11
130.32
21
-162.966
0
LINE
8
BLACK
6
CONTINUOUS
10
130.32
20
-162.966
11
129.368
21
-163.156
0
LINE
8
BLACK
6
CONTINUOUS
10
131.082
20
-163.728
11
131.272
21
-163.823
0
LINE
8
BLACK
6
CONTINUOUS
10
131.272
20
-163.823
11
131.653
21
-163.823
0
LINE
8
BLACK
6
CONTINUOUS
10
131.653
20
-163.823
11
131.844
21
-163.728
0
LINE
8
BLACK
6
CONTINUOUS
10
131.844
20
-163.728
11
131.939
21
-163.537
0
LINE
8
BLACK
6
CONTINUOUS
10
131.939
20
-163.537
11
131.939
21
-163.442
0
LINE
8
BLACK
6
CONTINUOUS
10
131.939
20
-163.442
11
131.844
21
-163.251
0
LINE
8
BLACK
6
CONTINUOUS
10
131.844
20
-163.251
11
131.653
21
-163.156
0
LINE
8
BLACK
6
CONTINUOUS
10
131.653
20
-163.156
11
131.368
21
-163.156
0
LINE
8
BLACK
6
CONTINUOUS
10
131.368
20
-163.156
11
131.177
21
-163.061
0
LINE
8
BLACK
6
CONTINUOUS
10
131.177
20
-163.061
11
131.082
21
-162.87
0
LINE
8
BLACK
6
CONTINUOUS
10
131.082
20
-162.87
11
131.082
21
-162.775
0
LINE
8
BLACK
6
CONTINUOUS
10
131.082
20
-162.775
11
131.177
21
-162.585
0
LINE
8
BLACK
6
CONTINUOUS
10
131.177
20
-162.585
11
131.368
21
-162.489
0
LINE
8
BLACK
6
CONTINUOUS
10
131.368
20
-162.489
11
131.653
21
-162.489
0
LINE
8
BLACK
6
CONTINUOUS
10
131.653
20
-162.489
11
131.844
21
-162.585
0
LINE
8
BLACK
6
CONTINUOUS
10
132.606
20
-164.585
11
132.701
21
-164.489
0
LINE
8
BLACK
6
CONTINUOUS
10
132.701
20
-164.489
11
132.892
21
-164.204
0
LINE
8
BLACK
6
CONTINUOUS
10
132.892
20
-164.204
11
132.987
21
-164.013
0
LINE
8
BLACK
6
CONTINUOUS
10
132.987
20
-164.013
11
133.082
21
-163.728
0
LINE
8
BLACK
6
CONTINUOUS
10
133.082
20
-163.728
11
133.177
21
-163.251
0
LINE
8
BLACK
6
CONTINUOUS
10
133.177
20
-163.251
11
133.177
21
-162.87
0
LINE
8
BLACK
6
CONTINUOUS
10
133.177
20
-162.87
11
133.082
21
-162.394
0
LINE
8
BLACK
6
CONTINUOUS
10
133.082
20
-162.394
11
132.987
21
-162.108
0
LINE
8
BLACK
6
CONTINUOUS
10
132.987
20
-162.108
11
132.892
21
-161.918
0
LINE
8
BLACK
6
CONTINUOUS
10
132.892
20
-161.918
11
132.701
21
-161.632
0
LINE
8
BLACK
6
CONTINUOUS
10
132.701
20
-161.632
11
132.606
21
-161.537
0
CIRCLE
8
BLACK
10
82.482
20
-165.558
40
0.5
0
LINE
8
BLACK
6
CONTINUOUS
10
86.6058
20
-166.463
11
85.463
21
-166.463
0
LINE
8
BLACK
6
CONTINUOUS
10
86.0344
20
-166.463
11
86.0344
21
-164.463
0
LINE
8
BLACK
6
CONTINUOUS
10
86.0344
20
-164.463
11
85.8439
21
-164.748
0
LINE
8
BLACK
6
CONTINUOUS
10
85.8439
20
-164.748
11
85.6534
21
-164.939
0
LINE
8
BLACK
6
CONTINUOUS
10
85.6534
20
-164.939
11
85.463
21
-165.034
0
LINE
8
BLACK
6
CONTINUOUS
10
87.463
20
-166.272
11
87.5582
21
-166.368
0
LINE
8
BLACK
6
CONTINUOUS
10
87.5582
20
-166.368
11
87.463
21
-166.463
0
LINE
8
BLACK
6
CONTINUOUS
10
87.463
20
-166.463
11
87.3677
21
-166.368
0
LINE
8
BLACK
6
CONTINUOUS
10
87.3677
20
-166.368
11
87.463
21
-166.272
0
LINE
8
BLACK
6
CONTINUOUS
10
87.463
20
-166.272
11
87.463
21
-166.463
0
LINE
8
BLACK
6
CONTINUOUS
10
88.7963
20
-164.463
11
88.9868
21
-164.463
0
LINE
8
BLACK
6
CONTINUOUS
10
88.9868
20
-164.463
11
89.1772
21
-164.558
0
LINE
8
BLACK
6
CONTINUOUS
10
89.1772
20
-164.558
11
89.2725
21
-164.653
0
LINE
8
BLACK
6
CONTINUOUS
10
89.2725
20
-164.653
11
89.3677
21
-164.844
0
LINE
8
BLACK
6
CONTINUOUS
10
89.3677
20
-164.844
11
89.463
21
-165.225
0
LINE
8
BLACK
6
CONTINUOUS
10
89.463
20
-165.225
11
89.463
21
-165.701
0
LINE
8
BLACK
6
CONTINUOUS
10
89.463
20
-165.701
11
89.3677
21
-166.082
0
LINE
8
BLACK
6
CONTINUOUS
10
89.3677
20
-166.082
11
89.2725
21
-166.272
0
LINE
8
BLACK
6
CONTINUOUS
10
89.2725
20
-166.272
11
89.1772
21
-166.368
0
LINE
8
BLACK
6
CONTINUOUS
10
89.1772
20
-166.368
11
88.9868
21
-166.463
0
LINE
8
BLACK
6
CONTINUOUS
10
88.9868
20
-166.463
11
88.7963
21
-166.463
0
LINE
8
BLACK
6
CONTINUOUS
10
88.7963
20
-166.463
11
88.6058
21
-166.368
0
LINE
8
BLACK
6
CONTINUOUS
10
88.6058
20
-166.368
11
88.5106
21
-166.272
0
LINE
8
BLACK
6
CONTINUOUS
10
88.5106
20
-166.272
11
88.4153
21
-166.082
0
LINE
8
BLACK
6
CONTINUOUS
10
88.4153
20
-166.082
11
88.3201
21
-165.701
0
LINE
8
BLACK
6
CONTINUOUS
10
88.3201
20
-165.701
11
88.3201
21
-165.225
0
LINE
8
BLACK
6
CONTINUOUS
10
88.3201
20
-165.225
11
88.4153
21
-164.844
0
LINE
8
BLACK
6
CONTINUOUS
10
88.4153
20
-164.844
11
88.5106
21
-164.653
0
LINE
8
BLACK
6
CONTINUOUS
10
88.5106
20
-164.653
11
88.6058
21
-164.558
0
LINE
8
BLACK
6
CONTINUOUS
10
88.6058
20
-164.558
11
88.7963
21
-164.463
0
LINE
8
BLACK
6
CONTINUOUS
10
90.701
20
-164.463
11
90.8915
21
-164.463
0
LINE
8
BLACK
6
CONTINUOUS
10
90.8915
20
-164.463
11
91.082
21
-164.558
0
LINE
8
BLACK
6
CONTINUOUS
10
91.082
20
-164.558
11
91.1772
21
-164.653
0
LINE
8
BLACK
6
CONTINUOUS
10
91.1772
20
-164.653
11
91.2725
21
-164.844
0
LINE
8
BLACK
6
CONTINUOUS
10
91.2725
20
-164.844
11
91.3677
21
-165.225
0
LINE
8
BLACK
6
CONTINUOUS
10
91.3677
20
-165.225
11
91.3677
21
-165.701
0
LINE
8
BLACK
6
CONTINUOUS
10
91.3677
20
-165.701
11
91.2725
21
-166.082
0
LINE
8
BLACK
6
CONTINUOUS
10
91.2725
20
-166.082
11
91.1772
21
-166.272
0
LINE
8
BLACK
6
CONTINUOUS
10
91.1772
20
-166.272
11
91.082
21
-166.368
0
LINE
8
BLACK
6
CONTINUOUS
10
91.082
20
-166.368
11
90.8915
21
-166.463
0
LINE
8
BLACK
6
CONTINUOUS
10
90.8915
20
-166.463
11
90.701
21
-166.463
0
LINE
8
BLACK
6
CONTINUOUS
10
90.701
20
-166.463
11
90.5106
21
-166.368
0
LINE
8
BLACK
6
CONTINUOUS
10
90.5106
20
-166.368
11
90.4153
21
-166.272
0
LINE
8
BLACK
6
CONTINUOUS
10
90.4153
20
-166.272
11
90.3201
21
-166.082
0
LINE
8
BLACK
6
CONTINUOUS
10
90.3201
20
-166.082
11
90.2249
21
-165.701
0
LINE
8
BLACK
6
CONTINUOUS
10
90.2249
20
-165.701
11
90.2249
21
-165.225
0
LINE
8
BLACK
6
CONTINUOUS
10
90.2249
20
-165.225
11
90.3201
21
-164.844
0
LINE
8
BLACK
6
CONTINUOUS
10
90.3201
20
-164.844
11
90.4153
21
-164.653
0
LINE
8
BLACK
6
CONTINUOUS
10
90.4153
20
-164.653
11
90.5106
21
-164.558
0
LINE
8
BLACK
6
CONTINUOUS
10
90.5106
20
-164.558
11
90.701
21
-164.463
0
LINE
8
BLACK
6
CONTINUOUS
10
92.6058
20
-164.463
11
92.7963
21
-164.463
0
LINE
8
BLACK
6
CONTINUOUS
10
92.7963
20
-164.463
11
92.9868
21
-164.558
0
LINE
8
BLACK
6
CONTINUOUS
10
92.9868
20
-164.558
11
93.082
21
-164.653
0
LINE
8
BLACK
6
CONTINUOUS
10
93.082
20
-164.653
11
93.1772
21
-164.844
0
LINE
8
BLACK
6
CONTINUOUS
10
93.1772
20
-164.844
11
93.2725
21
-165.225
0
LINE
8
BLACK
6
CONTINUOUS
10
93.2725
20
-165.225
11
93.2725
21
-165.701
0
LINE
8
BLACK
6
CONTINUOUS
10
93.2725
20
-165.701
11
93.1772
21
-166.082
0
LINE
8
BLACK
6
CONTINUOUS
10
93.1772
20
-166.082
11
93.082
21
-166.272
0
LINE
8
BLACK
6
CONTINUOUS
10
93.082
20
-166.272
11
92.9868
21
-166.368
0
LINE
8
BLACK
6
CONTINUOUS
10
92.9868
20
-166.368
11
92.7963
21
-166.463
0
LINE
8
BLACK
6
CONTINUOUS
10
92.7963
20
-166.463
11
92.6058
21
-166.463
0
LINE
8
BLACK
6
CONTINUOUS
10
92.6058
20
-166.463
11
92.4153
21
-166.368
0
LINE
8
BLACK
6
CONTINUOUS
10
92.4153
20
-166.368
11
92.3201
21
-166.272
0
LINE
8
BLACK
6
CONTINUOUS
10
92.3201
20
-166.272
11
92.2249
21
-166.082
0
LINE
8
BLACK
6
CONTINUOUS
10
92.2249
20
-166.082
11
92.1296
21
-165.701
0
LINE
8
BLACK
6
CONTINUOUS
10
92.1296
20
-165.701
11
92.1296
21
-165.225
0
LINE
8
BLACK
6
CONTINUOUS
10
92.1296
20
-165.225
11
92.2249
21
-164.844
0
LINE
8
BLACK
6
CONTINUOUS
10
92.2249
20
-164.844
11
92.3201
21
-164.653
0
LINE
8
BLACK
6
CONTINUOUS
10
92.3201
20
-164.653
11
92.4153
21
-164.558
0
LINE
8
BLACK
6
CONTINUOUS
10
92.4153
20
-164.558
11
92.6058
21
-164.463
0
LINE
8
BLACK
6
CONTINUOUS
10
94.1296
20
-166.463
11
94.1296
21
-165.129
0
LINE
8
BLACK
6
CONTINUOUS
10
94.1296
20
-165.32
11
94.2249
21
-165.225
0
LINE
8
BLACK
6
CONTINUOUS
10
94.2249
20
-165.225
11
94.4153
21
-165.129
0
LINE
8
BLACK
6
CONTINUOUS
10
94.4153
20
-165.129
11
94.701
21
-165.129
0
LINE
8
BLACK
6
CONTINUOUS
10
94.701
20
-165.129
11
94.8915
21
-165.225
0
LINE
8
BLACK
6
CONTINUOUS
10
94.8915
20
-165.225
11
94.9868
21
-165.415
0
LINE
8
BLACK
6
CONTINUOUS
10
94.9868
20
-165.415
11
94.9868
21
-166.463
0
LINE
8
BLACK
6
CONTINUOUS
10
94.9868
20
-165.415
11
95.082
21
-165.225
0
LINE
8
BLACK
6
CONTINUOUS
10
95.082
20
-165.225
11
95.2725
21
-165.129
0
LINE
8
BLACK
6
CONTINUOUS
10
95.2725
20
-165.129
11
95.5582
21
-165.129
0
LINE
8
BLACK
6
CONTINUOUS
10
95.5582
20
-165.129
11
95.7487
21
-165.225
0
LINE
8
BLACK
6
CONTINUOUS
10
95.7487
20
-165.225
11
95.8439
21
-165.415
0
LINE
8
BLACK
6
CONTINUOUS
10
95.8439
20
-165.415
11
95.8439
21
-166.463
0
LINE
8
BLACK
6
CONTINUOUS
10
96.7963
20
-166.463
11
96.7963
21
-165.129
0
LINE
8
BLACK
6
CONTINUOUS
10
96.7963
20
-165.32
11
96.8915
21
-165.225
0
LINE
8
BLACK
6
CONTINUOUS
10
96.8915
20
-165.225
11
97.082
21
-165.129
0
LINE
8
BLACK
6
CONTINUOUS
10
97.082
20
-165.129
11
97.3677
21
-165.129
0
LINE
8
BLACK
6
CONTINUOUS
10
97.3677
20
-165.129
11
97.5582
21
-165.225
0
LINE
8
BLACK
6
CONTINUOUS
10
97.5582
20
-165.225
11
97.6534
21
-165.415
0
LINE
8
BLACK
6
CONTINUOUS
10
97.6534
20
-165.415
11
97.6534
21
-166.463
0
LINE
8
BLACK
6
CONTINUOUS
10
97.6534
20
-165.415
11
97.7487
21
-165.225
0
LINE
8
BLACK
6
CONTINUOUS
10
97.7487
20
-165.225
11
97.9391
21
-165.129
0
LINE
8
BLACK
6
CONTINUOUS
10
97.9391
20
-165.129
11
98.2249
21
-165.129
0
LINE
8
BLACK
6
CONTINUOUS
10
98.2249
20
-165.129
11
98.4153
21
-165.225
0
LINE
8
BLACK
6
CONTINUOUS
10
98.4153
20
-165.225
11
98.5106
21
-165.415
0
LINE
8
BLACK
6
CONTINUOUS
10
98.5106
20
-165.415
11
98.5106
21
-166.463
0
LINE
8
BLACK
6
CONTINUOUS
10
102.415
20
-164.368
11
100.701
21
-166.939
0
LINE
8
BLACK
6
CONTINUOUS
10
104.987
20
-164.463
11
105.177
21
-164.463
0
LINE
8
BLACK
6
CONTINUOUS
10
105.177
20
-164.463
11
105.368
21
-164.558
0
LINE
8
BLACK
6
CONTINUOUS
10
105.368
20
-164.558
11
105.463
21
-164.653
0
LINE
8
BLACK
6
CONTINUOUS
10
105.463
20
-164.653
11
105.558
21
-164.844
0
LINE
8
BLACK
6
CONTINUOUS
10
105.558
20
-164.844
11
105.653
21
-165.225
0
LINE
8
BLACK
6
CONTINUOUS
10
105.653
20
-165.225
11
105.653
21
-165.701
0
LINE
8
BLACK
6
CONTINUOUS
10
105.653
20
-165.701
11
105.558
21
-166.082
0
LINE
8
BLACK
6
CONTINUOUS
10
105.558
20
-166.082
11
105.463
21
-166.272
0
LINE
8
BLACK
6
CONTINUOUS
10
105.463
20
-166.272
11
105.368
21
-166.368
0
LINE
8
BLACK
6
CONTINUOUS
10
105.368
20
-166.368
11
105.177
21
-166.463
0
LINE
8
BLACK
6
CONTINUOUS
10
105.177
20
-166.463
11
104.987
21
-166.463
0
LINE
8
BLACK
6
CONTINUOUS
10
104.987
20
-166.463
11
104.796
21
-166.368
0
LINE
8
BLACK
6
CONTINUOUS
10
104.796
20
-166.368
11
104.701
21
-166.272
0
LINE
8
BLACK
6
CONTINUOUS
10
104.701
20
-166.272
11
104.606
21
-166.082
0
LINE
8
BLACK
6
CONTINUOUS
10
104.606
20
-166.082
11
104.511
21
-165.701
0
LINE
8
BLACK
6
CONTINUOUS
10
104.511
20
-165.701
11
104.511
21
-165.225
0
LINE
8
BLACK
6
CONTINUOUS
10
104.511
20
-165.225
11
104.606
21
-164.844
0
LINE
8
BLACK
6
CONTINUOUS
10
104.606
20
-164.844
11
104.701
21
-164.653
0
LINE
8
BLACK
6
CONTINUOUS
10
104.701
20
-164.653
11
104.796
21
-164.558
0
LINE
8
BLACK
6
CONTINUOUS
10
104.796
20
-164.558
11
104.987
21
-164.463
0
LINE
8
BLACK
6
CONTINUOUS
10
106.511
20
-166.272
11
106.606
21
-166.368
0
LINE
8
BLACK
6
CONTINUOUS
10
106.606
20
-166.368
11
106.511
21
-166.463
0
LINE
8
BLACK
6
CONTINUOUS
10
106.511
20
-166.463
11
106.415
21
-166.368
0
LINE
8
BLACK
6
CONTINUOUS
10
106.415
20
-166.368
11
106.511
21
-166.272
0
LINE
8
BLACK
6
CONTINUOUS
10
106.511
20
-166.272
11
106.511
21
-166.463
0
LINE
8
BLACK
6
CONTINUOUS
10
107.844
20
-164.463
11
108.034
21
-164.463
0
LINE
8
BLACK
6
CONTINUOUS
10
108.034
20
-164.463
11
108.225
21
-164.558
0
LINE
8
BLACK
6
CONTINUOUS
10
108.225
20
-164.558
11
108.32
21
-164.653
0
LINE
8
BLACK
6
CONTINUOUS
10
108.32
20
-164.653
11
108.415
21
-164.844
0
LINE
8
BLACK
6
CONTINUOUS
10
108.415
20
-164.844
11
108.511
21
-165.225
0
LINE
8
BLACK
6
CONTINUOUS
10
108.511
20
-165.225
11
108.511
21
-165.701
0
LINE
8
BLACK
6
CONTINUOUS
10
108.511
20
-165.701
11
108.415
21
-166.082
0
LINE
8
BLACK
6
CONTINUOUS
10
108.415
20
-166.082
11
108.32
21
-166.272
0
LINE
8
BLACK
6
CONTINUOUS
10
108.32
20
-166.272
11
108.225
21
-166.368
0
LINE
8
BLACK
6
CONTINUOUS
10
108.225
20
-166.368
11
108.034
21
-166.463
0
LINE
8
BLACK
6
CONTINUOUS
10
108.034
20
-166.463
11
107.844
21
-166.463
0
LINE
8
BLACK
6
CONTINUOUS
10
107.844
20
-166.463
11
107.653
21
-166.368
0
LINE
8
BLACK
6
CONTINUOUS
10
107.653
20
-166.368
11
107.558
21
-166.272
0
LINE
8
BLACK
6
CONTINUOUS
10
107.558
20
-166.272
11
107.463
21
-166.082
0
LINE
8
BLACK
6
CONTINUOUS
10
107.463
20
-166.082
11
107.368
21
-165.701
0
LINE
8
BLACK
6
CONTINUOUS
10
107.368
20
-165.701
11
107.368
21
-165.225
0
LINE
8
BLACK
6
CONTINUOUS
10
107.368
20
-165.225
11
107.463
21
-164.844
0
LINE
8
BLACK
6
CONTINUOUS
10
107.463
20
-164.844
11
107.558
21
-164.653
0
LINE
8
BLACK
6
CONTINUOUS
10
107.558
20
-164.653
11
107.653
21
-164.558
0
LINE
8
BLACK
6
CONTINUOUS
10
107.653
20
-164.558
11
107.844
21
-164.463
0
LINE
8
BLACK
6
CONTINUOUS
10
109.177
20
-164.463
11
110.415
21
-164.463
0
LINE
8
BLACK
6
CONTINUOUS
10
110.415
20
-164.463
11
109.749
21
-165.225
0
LINE
8
BLACK
6
CONTINUOUS
10
109.749
20
-165.225
11
110.034
21
-165.225
0
LINE
8
BLACK
6
CONTINUOUS
10
110.034
20
-165.225
11
110.225
21
-165.32
0
LINE
8
BLACK
6
CONTINUOUS
10
110.225
20
-165.32
11
110.32
21
-165.415
0
LINE
8
BLACK
6
CONTINUOUS
10
110.32
20
-165.415
11
110.415
21
-165.606
0
LINE
8
BLACK
6
CONTINUOUS
10
110.415
20
-165.606
11
110.415
21
-166.082
0
LINE
8
BLACK
6
CONTINUOUS
10
110.415
20
-166.082
11
110.32
21
-166.272
0
LINE
8
BLACK
6
CONTINUOUS
10
110.32
20
-166.272
11
110.225
21
-166.368
0
LINE
8
BLACK
6
CONTINUOUS
10
110.225
20
-166.368
11
110.034
21
-166.463
0
LINE
8
BLACK
6
CONTINUOUS
10
110.034
20
-166.463
11
109.463
21
-166.463
0
LINE
8
BLACK
6
CONTINUOUS
10
109.463
20
-166.463
11
109.272
21
-166.368
0
LINE
8
BLACK
6
CONTINUOUS
10
109.272
20
-166.368
11
109.177
21
-166.272
0
LINE
8
BLACK
6
CONTINUOUS
10
111.368
20
-166.463
11
111.749
21
-166.463
0
LINE
8
BLACK
6
CONTINUOUS
10
111.749
20
-166.463
11
111.939
21
-166.368
0
LINE
8
BLACK
6
CONTINUOUS
10
111.939
20
-166.368
11
112.034
21
-166.272
0
LINE
8
BLACK
6
CONTINUOUS
10
112.034
20
-166.272
11
112.225
21
-165.987
0
LINE
8
BLACK
6
CONTINUOUS
10
112.225
20
-165.987
11
112.32
21
-165.606
0
LINE
8
BLACK
6
CONTINUOUS
10
112.32
20
-165.606
11
112.32
21
-164.844
0
LINE
8
BLACK
6
CONTINUOUS
10
112.32
20
-164.844
11
112.225
21
-164.653
0
LINE
8
BLACK
6
CONTINUOUS
10
112.225
20
-164.653
11
112.13
21
-164.558
0
LINE
8
BLACK
6
CONTINUOUS
10
112.13
20
-164.558
11
111.939
21
-164.463
0
LINE
8
BLACK
6
CONTINUOUS
10
111.939
20
-164.463
11
111.558
21
-164.463
0
LINE
8
BLACK
6
CONTINUOUS
10
111.558
20
-164.463
11
111.368
21
-164.558
0
LINE
8
BLACK
6
CONTINUOUS
10
111.368
20
-164.558
11
111.272
21
-164.653
0
LINE
8
BLACK
6
CONTINUOUS
10
111.272
20
-164.653
11
111.177
21
-164.844
0
LINE
8
BLACK
6
CONTINUOUS
10
111.177
20
-164.844
11
111.177
21
-165.32
0
LINE
8
BLACK
6
CONTINUOUS
10
111.177
20
-165.32
11
111.272
21
-165.51
0
LINE
8
BLACK
6
CONTINUOUS
10
111.272
20
-165.51
11
111.368
21
-165.606
0
LINE
8
BLACK
6
CONTINUOUS
10
111.368
20
-165.606
11
111.558
21
-165.701
0
LINE
8
BLACK
6
CONTINUOUS
10
111.558
20
-165.701
11
111.939
21
-165.701
0
LINE
8
BLACK
6
CONTINUOUS
10
111.939
20
-165.701
11
112.13
21
-165.606
0
LINE
8
BLACK
6
CONTINUOUS
10
112.13
20
-165.606
11
112.225
21
-165.51
0
LINE
8
BLACK
6
CONTINUOUS
10
112.225
20
-165.51
11
112.32
21
-165.32
0
LINE
8
BLACK
6
CONTINUOUS
10
114.034
20
-165.129
11
114.034
21
-166.463
0
LINE
8
BLACK
6
CONTINUOUS
10
113.558
20
-164.368
11
113.082
21
-165.796
0
LINE
8
BLACK
6
CONTINUOUS
10
113.082
20
-165.796
11
114.32
21
-165.796
0
LINE
8
BLACK
6
CONTINUOUS
10
114.987
20
-164.463
11
114.987
21
-164.844
0
LINE
8
BLACK
6
CONTINUOUS
10
115.749
20
-164.463
11
115.749
21
-164.844
0
LINE
8
BLACK
6
CONTINUOUS
10
118.701
20
-167.225
11
118.606
21
-167.129
0
LINE
8
BLACK
6
CONTINUOUS
10
118.606
20
-167.129
11
118.415
21
-166.844
0
LINE
8
BLACK
6
CONTINUOUS
10
118.415
20
-166.844
11
118.32
21
-166.653
0
LINE
8
BLACK
6
CONTINUOUS
10
118.32
20
-166.653
11
118.225
21
-166.368
0
LINE
8
BLACK
6
CONTINUOUS
10
118.225
20
-166.368
11
118.13
21
-165.891
0
LINE
8
BLACK
6
CONTINUOUS
10
118.13
20
-165.891
11
118.13
21
-165.51
0
LINE
8
BLACK
6
CONTINUOUS
10
118.13
20
-165.51
11
118.225
21
-165.034
0
LINE
8
BLACK
6
CONTINUOUS
10
118.225
20
-165.034
11
118.32
21
-164.748
0
LINE
8
BLACK
6
CONTINUOUS
10
118.32
20
-164.748
11
118.415
21
-164.558
0
LINE
8
BLACK
6
CONTINUOUS
10
118.415
20
-164.558
11
118.606
21
-164.272
0
LINE
8
BLACK
6
CONTINUOUS
10
118.606
20
-164.272
11
118.701
21
-164.177
0
LINE
8
BLACK
6
CONTINUOUS
10
119.368
20
-164.653
11
119.463
21
-164.558
0
LINE
8
BLACK
6
CONTINUOUS
10
119.463
20
-164.558
11
119.653
21
-164.463
0
LINE
8
BLACK
6
CONTINUOUS
10
119.653
20
-164.463
11
120.13
21
-164.463
0
LINE
8
BLACK
6
CONTINUOUS
10
120.13
20
-164.463
11
120.32
21
-164.558
0
LINE
8
BLACK
6
CONTINUOUS
10
120.32
20
-164.558
11
120.415
21
-164.653
0
LINE
8
BLACK
6
CONTINUOUS
10
120.415
20
-164.653
11
120.511
21
-164.844
0
LINE
8
BLACK
6
CONTINUOUS
10
120.511
20
-164.844
11
120.511
21
-165.034
0
LINE
8
BLACK
6
CONTINUOUS
10
120.511
20
-165.034
11
120.415
21
-165.32
0
LINE
8
BLACK
6
CONTINUOUS
10
120.415
20
-165.32
11
119.272
21
-166.463
0
LINE
8
BLACK
6
CONTINUOUS
10
119.272
20
-166.463
11
120.511
21
-166.463
0
LINE
8
BLACK
6
CONTINUOUS
10
121.177
20
-164.463
11
122.415
21
-164.463
0
LINE
8
BLACK
6
CONTINUOUS
10
122.415
20
-164.463
11
121.749
21
-165.225
0
LINE
8
BLACK
6
CONTINUOUS
10
121.749
20
-165.225
11
122.034
21
-165.225
0
LINE
8
BLACK
6
CONTINUOUS
10
122.034
20
-165.225
11
122.225
21
-165.32
0
LINE
8
BLACK
6
CONTINUOUS
10
122.225
20
-165.32
11
122.32
21
-165.415
0
LINE
8
BLACK
6
CONTINUOUS
10
122.32
20
-165.415
11
122.415
21
-165.606
0
LINE
8
BLACK
6
CONTINUOUS
10
122.415
20
-165.606
11
122.415
21
-166.082
0
LINE
8
BLACK
6
CONTINUOUS
10
122.415
20
-166.082
11
122.32
21
-166.272
0
LINE
8
BLACK
6
CONTINUOUS
10
122.32
20
-166.272
11
122.225
21
-166.368
0
LINE
8
BLACK
6
CONTINUOUS
10
122.225
20
-166.368
11
122.034
21
-166.463
0
LINE
8
BLACK
6
CONTINUOUS
10
122.034
20
-166.463
11
121.463
21
-166.463
0
LINE
8
BLACK
6
CONTINUOUS
10
121.463
20
-166.463
11
121.272
21
-166.368
0
LINE
8
BLACK
6
CONTINUOUS
10
121.272
20
-166.368
11
121.177
21
-166.272
0
LINE
8
BLACK
6
CONTINUOUS
10
124.796
20
-166.463
11
124.796
21
-164.463
0
LINE
8
BLACK
6
CONTINUOUS
10
125.653
20
-166.463
11
125.653
21
-165.415
0
LINE
8
BLACK
6
CONTINUOUS
10
125.653
20
-165.415
11
125.558
21
-165.225
0
LINE
8
BLACK
6
CONTINUOUS
10
125.558
20
-165.225
11
125.368
21
-165.129
0
LINE
8
BLACK
6
CONTINUOUS
10
125.368
20
-165.129
11
125.082
21
-165.129
0
LINE
8
BLACK
6
CONTINUOUS
10
125.082
20
-165.129
11
124.892
21
-165.225
0
LINE
8
BLACK
6
CONTINUOUS
10
124.892
20
-165.225
11
124.796
21
-165.32
0
LINE
8
BLACK
6
CONTINUOUS
10
126.892
20
-166.463
11
126.701
21
-166.368
0
LINE
8
BLACK
6
CONTINUOUS
10
126.701
20
-166.368
11
126.606
21
-166.272
0
LINE
8
BLACK
6
CONTINUOUS
10
126.606
20
-166.272
11
126.511
21
-166.082
0
LINE
8
BLACK
6
CONTINUOUS
10
126.511
20
-166.082
11
126.511
21
-165.51
0
LINE
8
BLACK
6
CONTINUOUS
10
126.511
20
-165.51
11
126.606
21
-165.32
0
LINE
8
BLACK
6
CONTINUOUS
10
126.606
20
-165.32
11
126.701
21
-165.225
0
LINE
8
BLACK
6
CONTINUOUS
10
126.701
20
-165.225
11
126.892
21
-165.129
0
LINE
8
BLACK
6
CONTINUOUS
10
126.892
20
-165.129
11
127.177
21
-165.129
0
LINE
8
BLACK
6
CONTINUOUS
10
127.177
20
-165.129
11
127.368
21
-165.225
0
LINE
8
BLACK
6
CONTINUOUS
10
127.368
20
-165.225
11
127.463
21
-165.32
0
LINE
8
BLACK
6
CONTINUOUS
10
127.463
20
-165.32
11
127.558
21
-165.51
0
LINE
8
BLACK
6
CONTINUOUS
10
127.558
20
-165.51
11
127.558
21
-166.082
0
LINE
8
BLACK
6
CONTINUOUS
10
127.558
20
-166.082
11
127.463
21
-166.272
0
LINE
8
BLACK
6
CONTINUOUS
10
127.463
20
-166.272
11
127.368
21
-166.368
0
LINE
8
BLACK
6
CONTINUOUS
10
127.368
20
-166.368
11
127.177
21
-166.463
0
LINE
8
BLACK
6
CONTINUOUS
10
127.177
20
-166.463
11
126.892
21
-166.463
0
LINE
8
BLACK
6
CONTINUOUS
10
128.701
20
-166.463
11
128.511
21
-166.368
0
LINE
8
BLACK
6
CONTINUOUS
10
128.511
20
-166.368
11
128.415
21
-166.177
0
LINE
8
BLACK
6
CONTINUOUS
10
128.415
20
-166.177
11
128.415
21
-164.463
0
LINE
8
BLACK
6
CONTINUOUS
10
130.225
20
-166.368
11
130.034
21
-166.463
0
LINE
8
BLACK
6
CONTINUOUS
10
130.034
20
-166.463
11
129.653
21
-166.463
0
LINE
8
BLACK
6
CONTINUOUS
10
129.653
20
-166.463
11
129.463
21
-166.368
0
LINE
8
BLACK
6
CONTINUOUS
10
129.463
20
-166.368
11
129.368
21
-166.177
0
LINE
8
BLACK
6
CONTINUOUS
10
129.368
20
-166.177
11
129.368
21
-165.415
0
LINE
8
BLACK
6
CONTINUOUS
10
129.368
20
-165.415
11
129.463
21
-165.225
0
LINE
8
BLACK
6
CONTINUOUS
10
129.463
20
-165.225
11
129.653
21
-165.129
0
LINE
8
BLACK
6
CONTINUOUS
10
129.653
20
-165.129
11
130.034
21
-165.129
0
LINE
8
BLACK
6
CONTINUOUS
10
130.034
20
-165.129
11
130.225
21
-165.225
0
LINE
8
BLACK
6
CONTINUOUS
10
130.225
20
-165.225
11
130.32
21
-165.415
0
LINE
8
BLACK
6
CONTINUOUS
10
130.32
20
-165.415
11
130.32
21
-165.606
0
LINE
8
BLACK
6
CONTINUOUS
10
130.32
20
-165.606
11
129.368
21
-165.796
0
LINE
8
BLACK
6
CONTINUOUS
10
131.082
20
-166.368
11
131.272
21
-166.463
0
LINE
8
BLACK
6
CONTINUOUS
10
131.272
20
-166.463
11
131.653
21
-166.463
0
LINE
8
BLACK
6
CONTINUOUS
10
131.653
20
-166.463
11
131.844
21
-166.368
0
LINE
8
BLACK
6
CONTINUOUS
10
131.844
20
-166.368
11
131.939
21
-166.177
0
LINE
8
BLACK
6
CONTINUOUS
10
131.939
20
-166.177
11
131.939
21
-166.082
0
LINE
8
BLACK
6
CONTINUOUS
10
131.939
20
-166.082
11
131.844
21
-165.891
0
LINE
8
BLACK
6
CONTINUOUS
10
131.844
20
-165.891
11
131.653
21
-165.796
0
LINE
8
BLACK
6
CONTINUOUS
10
131.653
20
-165.796
11
131.368
21
-165.796
0
LINE
8
BLACK
6
CONTINUOUS
10
131.368
20
-165.796
11
131.177
21
-165.701
0
LINE
8
BLACK
6
CONTINUOUS
10
131.177
20
-165.701
11
131.082
21
-165.51
0
LINE
8
BLACK
6
CONTINUOUS
10
131.082
20
-165.51
11
131.082
21
-165.415
0
LINE
8
BLACK
6
CONTINUOUS
10
131.082
20
-165.415
11
131.177
21
-165.225
0
LINE
8
BLACK
6
CONTINUOUS
10
131.177
20
-165.225
11
131.368
21
-165.129
0
LINE
8
BLACK
6
CONTINUOUS
10
131.368
20
-165.129
11
131.653
21
-165.129
0
LINE
8
BLACK
6
CONTINUOUS
10
131.653
20
-165.129
11
131.844
21
-165.225
0
LINE
8
BLACK
6
CONTINUOUS
10
132.606
20
-167.225
11
132.701
21
-167.129
0
LINE
8
BLACK
6
CONTINUOUS
10
132.701
20
-167.129
11
132.892
21
-166.844
0
LINE
8
BLACK
6
CONTINUOUS
10
132.892
20
-166.844
11
132.987
21
-166.653
0
LINE
8
BLACK
6
CONTINUOUS
10
132.987
20
-166.653
11
133.082
21
-166.368
0
LINE
8
BLACK
6
CONTINUOUS
10
133.082
20
-166.368
11
133.177
21
-165.891
0
LINE
8
BLACK
6
CONTINUOUS
10
133.177
20
-165.891
11
133.177
21
-165.51
0
LINE
8
BLACK
6
CONTINUOUS
10
133.177
20
-165.51
11
133.082
21
-165.034
0
LINE
8
BLACK
6
CONTINUOUS
10
133.082
20
-165.034
11
132.987
21
-164.748
0
LINE
8
BLACK
6
CONTINUOUS
10
132.987
20
-164.748
11
132.892
21
-164.558
0
LINE
8
BLACK
6
CONTINUOUS
10
132.892
20
-164.558
11
132.701
21
-164.272
0
LINE
8
BLACK
6
CONTINUOUS
10
132.701
20
-164.272
11
132.606
21
-164.177
  0
ENDSEC
  0
EOF
