  0
SECTION
  2
HEADER
  9
$ANGBASE
  50
0.0
  9
$ANGDIR
  70
1
  9
$MEASUREMENT
  70
1
  0
ENDSEC
  0
SECTION
  2
TABLES
  0
TABLE
  2
LTYPE
  70
4
  0
LTYPE
  5
40F
  2
CONTINUOUS
  70
0
  3
Solid line
  72
65
  73
0
  40
0.0
  0
LTYPE
  5
410
  2
DASHDOT
 70
0
  3
Dash Dot ____ _ ____ _
 72
65
 73
4
 40
2.0
 49
1.25
 49
-0.25
 49
0.25
 49
-0.25
  0
LTYPE
  5
411
  2
DASHED
 70
0
  3
Dashed __ __ __ __ __
 72
65
 73
2
 40
0.75
 49
0.5
 49
-0.25
  0
LTYPE
  5
43B
  2
DOTTED
 70
0
  3
Dotted .  .  .  .
 72
65
 73
2
 40
0.2
 49
0.0
 49
-0.2
  0
ENDTAB
  0
TABLE
  2
STYLE
  70
4
  0
STYLE
  2
KICAD
  70
0
  40
0
  41
1
  42
1
  50
0
  71
0
  3
isocp.shx
  0
STYLE
  2
KICADB
  70
0
  40
0
  41
1
  42
1
  50
0
  71
0
  3
isocp.shx
  0
STYLE
  2
KICADI
  70
0
  40
0
  41
1
  42
1
  50
15
  71
0
  3
isocp.shx
  0
STYLE
  2
KICADBI
  70
0
  40
0
  41
1
  42
1
  50
15
  71
0
  3
isocp.shx
  0
ENDTAB
  0
TABLE
  2
LAYER
  70
1
  0
LAYER
  2
BLACK
  70
0
  62
7
  6
CONTINUOUS
  0
ENDTAB
  0
ENDSEC
  0
SECTION
  2
ENTITIES
0
ARC
8
BLACK
10
83.532
20
-155.968
40
0.5
50
-180
51
-90
0
ARC
8
BLACK
10
123.332
20
-106.968
40
2
50
-0
51
90
0
LINE
8
BLACK
6
CONTINUOUS
10
123.332
20
-104.968
11
85.032
21
-104.968
0
ARC
8
BLACK
10
124.832
20
-149.468
40
0.5
50
-90
51
-0
0
LINE
8
BLACK
6
CONTINUOUS
10
86.832
20
-156.468
11
83.532
21
-156.468
0
LINE
8
BLACK
6
CONTINUOUS
10
115.332
20
-156.468
11
105.132
21
-156.468
0
ARC
8
BLACK
10
105.132
20
-155.968
40
0.5
50
-180
51
-90
0
ARC
8
BLACK
10
115.332
20
-155.968
40
0.5
50
-90
51
-0
0
LINE
8
BLACK
6
CONTINUOUS
10
115.832
20
-155.968
11
115.832
21
-150.468
0
LINE
8
BLACK
6
CONTINUOUS
10
104.632
20
-149.968
11
87.332
21
-149.968
0
ARC
8
BLACK
10
116.332
20
-150.468
40
0.5
50
90
51
180
0
LINE
8
BLACK
6
CONTINUOUS
10
87.332
20
-149.968
11
87.332
21
-155.968
0
LINE
8
BLACK
6
CONTINUOUS
10
104.632
20
-155.968
11
104.632
21
-149.968
0
ARC
8
BLACK
10
86.832
20
-155.968
40
0.5
50
-90
51
-0
0
LINE
8
BLACK
6
CONTINUOUS
10
83.032
20
-155.968
11
83.032
21
-106.968
0
ARC
8
BLACK
10
85.032
20
-106.968
40
2
50
90
51
180
0
LINE
8
BLACK
6
CONTINUOUS
10
125.332
20
-106.968
11
125.332
21
-149.468
0
LINE
8
BLACK
6
CONTINUOUS
10
124.832
20
-149.968
11
116.332
21
-149.968
0
LINE
8
BLACK
6
CONTINUOUS
10
89.0007
20
-107.406
11
89.9913
21
-108.397
0
LINE
8
BLACK
6
CONTINUOUS
10
89.9913
20
-107.406
11
89.0007
21
-108.397
0
LINE
8
BLACK
6
CONTINUOUS
10
94.0807
20
-106.39
11
95.0713
21
-107.381
0
LINE
8
BLACK
6
CONTINUOUS
10
95.0713
20
-106.39
11
94.0807
21
-107.381
0
LINE
8
BLACK
6
CONTINUOUS
10
94.0807
20
-108.422
11
95.0713
21
-109.413
0
LINE
8
BLACK
6
CONTINUOUS
10
95.0713
20
-108.422
11
94.0807
21
-109.413
0
CIRCLE
8
BLACK
10
94.488
20
-113.538
40
1.6
0
CIRCLE
8
BLACK
10
121.63
20
-108.12
40
1.6
0
LINE
8
BLACK
6
CONTINUOUS
10
85.5582
20
-159.623
11
85.5582
21
-157.623
0
LINE
8
BLACK
6
CONTINUOUS
10
85.5582
20
-157.623
11
86.0344
21
-157.623
0
LINE
8
BLACK
6
CONTINUOUS
10
86.0344
20
-157.623
11
86.3201
21
-157.718
0
LINE
8
BLACK
6
CONTINUOUS
10
86.3201
20
-157.718
11
86.5106
21
-157.908
0
LINE
8
BLACK
6
CONTINUOUS
10
86.5106
20
-157.908
11
86.6058
21
-158.099
0
LINE
8
BLACK
6
CONTINUOUS
10
86.6058
20
-158.099
11
86.701
21
-158.48
0
LINE
8
BLACK
6
CONTINUOUS
10
86.701
20
-158.48
11
86.701
21
-158.766
0
LINE
8
BLACK
6
CONTINUOUS
10
86.701
20
-158.766
11
86.6058
21
-159.147
0
LINE
8
BLACK
6
CONTINUOUS
10
86.6058
20
-159.147
11
86.5106
21
-159.337
0
LINE
8
BLACK
6
CONTINUOUS
10
86.5106
20
-159.337
11
86.3201
21
-159.528
0
LINE
8
BLACK
6
CONTINUOUS
10
86.3201
20
-159.528
11
86.0344
21
-159.623
0
LINE
8
BLACK
6
CONTINUOUS
10
86.0344
20
-159.623
11
85.5582
21
-159.623
0
LINE
8
BLACK
6
CONTINUOUS
10
87.5582
20
-159.623
11
87.5582
21
-158.289
0
LINE
8
BLACK
6
CONTINUOUS
10
87.5582
20
-158.67
11
87.6534
21
-158.48
0
LINE
8
BLACK
6
CONTINUOUS
10
87.6534
20
-158.48
11
87.7487
21
-158.385
0
LINE
8
BLACK
6
CONTINUOUS
10
87.7487
20
-158.385
11
87.9391
21
-158.289
0
LINE
8
BLACK
6
CONTINUOUS
10
87.9391
20
-158.289
11
88.1296
21
-158.289
0
LINE
8
BLACK
6
CONTINUOUS
10
88.7963
20
-159.623
11
88.7963
21
-158.289
0
LINE
8
BLACK
6
CONTINUOUS
10
88.7963
20
-157.623
11
88.701
21
-157.718
0
LINE
8
BLACK
6
CONTINUOUS
10
88.701
20
-157.718
11
88.7963
21
-157.813
0
LINE
8
BLACK
6
CONTINUOUS
10
88.7963
20
-157.813
11
88.8915
21
-157.718
0
LINE
8
BLACK
6
CONTINUOUS
10
88.8915
20
-157.718
11
88.7963
21
-157.623
0
LINE
8
BLACK
6
CONTINUOUS
10
88.7963
20
-157.623
11
88.7963
21
-157.813
0
LINE
8
BLACK
6
CONTINUOUS
10
90.0344
20
-159.623
11
89.8439
21
-159.528
0
LINE
8
BLACK
6
CONTINUOUS
10
89.8439
20
-159.528
11
89.7487
21
-159.337
0
LINE
8
BLACK
6
CONTINUOUS
10
89.7487
20
-159.337
11
89.7487
21
-157.623
0
LINE
8
BLACK
6
CONTINUOUS
10
91.082
20
-159.623
11
90.8915
21
-159.528
0
LINE
8
BLACK
6
CONTINUOUS
10
90.8915
20
-159.528
11
90.7963
21
-159.337
0
LINE
8
BLACK
6
CONTINUOUS
10
90.7963
20
-159.337
11
90.7963
21
-157.623
0
LINE
8
BLACK
6
CONTINUOUS
10
93.3677
20
-159.623
11
93.3677
21
-157.623
0
LINE
8
BLACK
6
CONTINUOUS
10
93.3677
20
-157.623
11
94.0344
21
-159.051
0
LINE
8
BLACK
6
CONTINUOUS
10
94.0344
20
-159.051
11
94.701
21
-157.623
0
LINE
8
BLACK
6
CONTINUOUS
10
94.701
20
-157.623
11
94.701
21
-159.623
0
LINE
8
BLACK
6
CONTINUOUS
10
96.5106
20
-159.623
11
96.5106
21
-158.575
0
LINE
8
BLACK
6
CONTINUOUS
10
96.5106
20
-158.575
11
96.4153
21
-158.385
0
LINE
8
BLACK
6
CONTINUOUS
10
96.4153
20
-158.385
11
96.2249
21
-158.289
0
LINE
8
BLACK
6
CONTINUOUS
10
96.2249
20
-158.289
11
95.8439
21
-158.289
0
LINE
8
BLACK
6
CONTINUOUS
10
95.8439
20
-158.289
11
95.6534
21
-158.385
0
LINE
8
BLACK
6
CONTINUOUS
10
96.5106
20
-159.528
11
96.3201
21
-159.623
0
LINE
8
BLACK
6
CONTINUOUS
10
96.3201
20
-159.623
11
95.8439
21
-159.623
0
LINE
8
BLACK
6
CONTINUOUS
10
95.8439
20
-159.623
11
95.6534
21
-159.528
0
LINE
8
BLACK
6
CONTINUOUS
10
95.6534
20
-159.528
11
95.5582
21
-159.337
0
LINE
8
BLACK
6
CONTINUOUS
10
95.5582
20
-159.337
11
95.5582
21
-159.147
0
LINE
8
BLACK
6
CONTINUOUS
10
95.5582
20
-159.147
11
95.6534
21
-158.956
0
LINE
8
BLACK
6
CONTINUOUS
10
95.6534
20
-158.956
11
95.8439
21
-158.861
0
LINE
8
BLACK
6
CONTINUOUS
10
95.8439
20
-158.861
11
96.3201
21
-158.861
0
LINE
8
BLACK
6
CONTINUOUS
10
96.3201
20
-158.861
11
96.5106
21
-158.766
0
LINE
8
BLACK
6
CONTINUOUS
10
97.463
20
-158.289
11
97.463
21
-160.289
0
LINE
8
BLACK
6
CONTINUOUS
10
97.463
20
-158.385
11
97.6534
21
-158.289
0
LINE
8
BLACK
6
CONTINUOUS
10
97.6534
20
-158.289
11
98.0344
21
-158.289
0
LINE
8
BLACK
6
CONTINUOUS
10
98.0344
20
-158.289
11
98.2249
21
-158.385
0
LINE
8
BLACK
6
CONTINUOUS
10
98.2249
20
-158.385
11
98.3201
21
-158.48
0
LINE
8
BLACK
6
CONTINUOUS
10
98.3201
20
-158.48
11
98.4153
21
-158.67
0
LINE
8
BLACK
6
CONTINUOUS
10
98.4153
20
-158.67
11
98.4153
21
-159.242
0
LINE
8
BLACK
6
CONTINUOUS
10
98.4153
20
-159.242
11
98.3201
21
-159.432
0
LINE
8
BLACK
6
CONTINUOUS
10
98.3201
20
-159.432
11
98.2249
21
-159.528
0
LINE
8
BLACK
6
CONTINUOUS
10
98.2249
20
-159.528
11
98.0344
21
-159.623
0
LINE
8
BLACK
6
CONTINUOUS
10
98.0344
20
-159.623
11
97.6534
21
-159.623
0
LINE
8
BLACK
6
CONTINUOUS
10
97.6534
20
-159.623
11
97.463
21
-159.528
0
LINE
8
BLACK
6
CONTINUOUS
10
99.2725
20
-159.432
11
99.3677
21
-159.528
0
LINE
8
BLACK
6
CONTINUOUS
10
99.3677
20
-159.528
11
99.2725
21
-159.623
0
LINE
8
BLACK
6
CONTINUOUS
10
99.2725
20
-159.623
11
99.1772
21
-159.528
0
LINE
8
BLACK
6
CONTINUOUS
10
99.1772
20
-159.528
11
99.2725
21
-159.432
0
LINE
8
BLACK
6
CONTINUOUS
10
99.2725
20
-159.432
11
99.2725
21
-159.623
0
LINE
8
BLACK
6
CONTINUOUS
10
99.2725
20
-158.385
11
99.3677
21
-158.48
0
LINE
8
BLACK
6
CONTINUOUS
10
99.3677
20
-158.48
11
99.2725
21
-158.575
0
LINE
8
BLACK
6
CONTINUOUS
10
99.2725
20
-158.575
11
99.1772
21
-158.48
0
LINE
8
BLACK
6
CONTINUOUS
10
99.1772
20
-158.48
11
99.2725
21
-158.385
0
LINE
8
BLACK
6
CONTINUOUS
10
99.2725
20
-158.385
11
99.2725
21
-158.575
0
LINE
8
BLACK
6
CONTINUOUS
10
81.9914
20
-162.423
11
82.982
21
-163.413
0
LINE
8
BLACK
6
CONTINUOUS
10
82.982
20
-162.423
11
81.9914
21
-163.413
0
LINE
8
BLACK
6
CONTINUOUS
10
85.9391
20
-161.823
11
86.1296
21
-161.823
0
LINE
8
BLACK
6
CONTINUOUS
10
86.1296
20
-161.823
11
86.3201
21
-161.918
0
LINE
8
BLACK
6
CONTINUOUS
10
86.3201
20
-161.918
11
86.4153
21
-162.013
0
LINE
8
BLACK
6
CONTINUOUS
10
86.4153
20
-162.013
11
86.5106
21
-162.204
0
LINE
8
BLACK
6
CONTINUOUS
10
86.5106
20
-162.204
11
86.6058
21
-162.585
0
LINE
8
BLACK
6
CONTINUOUS
10
86.6058
20
-162.585
11
86.6058
21
-163.061
0
LINE
8
BLACK
6
CONTINUOUS
10
86.6058
20
-163.061
11
86.5106
21
-163.442
0
LINE
8
BLACK
6
CONTINUOUS
10
86.5106
20
-163.442
11
86.4153
21
-163.632
0
LINE
8
BLACK
6
CONTINUOUS
10
86.4153
20
-163.632
11
86.3201
21
-163.728
0
LINE
8
BLACK
6
CONTINUOUS
10
86.3201
20
-163.728
11
86.1296
21
-163.823
0
LINE
8
BLACK
6
CONTINUOUS
10
86.1296
20
-163.823
11
85.9391
21
-163.823
0
LINE
8
BLACK
6
CONTINUOUS
10
85.9391
20
-163.823
11
85.7487
21
-163.728
0
LINE
8
BLACK
6
CONTINUOUS
10
85.7487
20
-163.728
11
85.6534
21
-163.632
0
LINE
8
BLACK
6
CONTINUOUS
10
85.6534
20
-163.632
11
85.5582
21
-163.442
0
LINE
8
BLACK
6
CONTINUOUS
10
85.5582
20
-163.442
11
85.463
21
-163.061
0
LINE
8
BLACK
6
CONTINUOUS
10
85.463
20
-163.061
11
85.463
21
-162.585
0
LINE
8
BLACK
6
CONTINUOUS
10
85.463
20
-162.585
11
85.5582
21
-162.204
0
LINE
8
BLACK
6
CONTINUOUS
10
85.5582
20
-162.204
11
85.6534
21
-162.013
0
LINE
8
BLACK
6
CONTINUOUS
10
85.6534
20
-162.013
11
85.7487
21
-161.918
0
LINE
8
BLACK
6
CONTINUOUS
10
85.7487
20
-161.918
11
85.9391
21
-161.823
0
LINE
8
BLACK
6
CONTINUOUS
10
87.463
20
-163.632
11
87.5582
21
-163.728
0
LINE
8
BLACK
6
CONTINUOUS
10
87.5582
20
-163.728
11
87.463
21
-163.823
0
LINE
8
BLACK
6
CONTINUOUS
10
87.463
20
-163.823
11
87.3677
21
-163.728
0
LINE
8
BLACK
6
CONTINUOUS
10
87.3677
20
-163.728
11
87.463
21
-163.632
0
LINE
8
BLACK
6
CONTINUOUS
10
87.463
20
-163.632
11
87.463
21
-163.823
0
LINE
8
BLACK
6
CONTINUOUS
10
88.5106
20
-163.823
11
88.8915
21
-163.823
0
LINE
8
BLACK
6
CONTINUOUS
10
88.8915
20
-163.823
11
89.082
21
-163.728
0
LINE
8
BLACK
6
CONTINUOUS
10
89.082
20
-163.728
11
89.1772
21
-163.632
0
LINE
8
BLACK
6
CONTINUOUS
10
89.1772
20
-163.632
11
89.3677
21
-163.347
0
LINE
8
BLACK
6
CONTINUOUS
10
89.3677
20
-163.347
11
89.463
21
-162.966
0
LINE
8
BLACK
6
CONTINUOUS
10
89.463
20
-162.966
11
89.463
21
-162.204
0
LINE
8
BLACK
6
CONTINUOUS
10
89.463
20
-162.204
11
89.3677
21
-162.013
0
LINE
8
BLACK
6
CONTINUOUS
10
89.3677
20
-162.013
11
89.2725
21
-161.918
0
LINE
8
BLACK
6
CONTINUOUS
10
89.2725
20
-161.918
11
89.082
21
-161.823
0
LINE
8
BLACK
6
CONTINUOUS
10
89.082
20
-161.823
11
88.701
21
-161.823
0
LINE
8
BLACK
6
CONTINUOUS
10
88.701
20
-161.823
11
88.5106
21
-161.918
0
LINE
8
BLACK
6
CONTINUOUS
10
88.5106
20
-161.918
11
88.4153
21
-162.013
0
LINE
8
BLACK
6
CONTINUOUS
10
88.4153
20
-162.013
11
88.3201
21
-162.204
0
LINE
8
BLACK
6
CONTINUOUS
10
88.3201
20
-162.204
11
88.3201
21
-162.68
0
LINE
8
BLACK
6
CONTINUOUS
10
88.3201
20
-162.68
11
88.4153
21
-162.87
0
LINE
8
BLACK
6
CONTINUOUS
10
88.4153
20
-162.87
11
88.5106
21
-162.966
0
LINE
8
BLACK
6
CONTINUOUS
10
88.5106
20
-162.966
11
88.701
21
-163.061
0
LINE
8
BLACK
6
CONTINUOUS
10
88.701
20
-163.061
11
89.082
21
-163.061
0
LINE
8
BLACK
6
CONTINUOUS
10
89.082
20
-163.061
11
89.2725
21
-162.966
0
LINE
8
BLACK
6
CONTINUOUS
10
89.2725
20
-162.966
11
89.3677
21
-162.87
0
LINE
8
BLACK
6
CONTINUOUS
10
89.3677
20
-162.87
11
89.463
21
-162.68
0
LINE
8
BLACK
6
CONTINUOUS
10
90.4153
20
-163.823
11
90.7963
21
-163.823
0
LINE
8
BLACK
6
CONTINUOUS
10
90.7963
20
-163.823
11
90.9868
21
-163.728
0
LINE
8
BLACK
6
CONTINUOUS
10
90.9868
20
-163.728
11
91.082
21
-163.632
0
LINE
8
BLACK
6
CONTINUOUS
10
91.082
20
-163.632
11
91.2725
21
-163.347
0
LINE
8
BLACK
6
CONTINUOUS
10
91.2725
20
-163.347
11
91.3677
21
-162.966
0
LINE
8
BLACK
6
CONTINUOUS
10
91.3677
20
-162.966
11
91.3677
21
-162.204
0
LINE
8
BLACK
6
CONTINUOUS
10
91.3677
20
-162.204
11
91.2725
21
-162.013
0
LINE
8
BLACK
6
CONTINUOUS
10
91.2725
20
-162.013
11
91.1772
21
-161.918
0
LINE
8
BLACK
6
CONTINUOUS
10
91.1772
20
-161.918
11
90.9868
21
-161.823
0
LINE
8
BLACK
6
CONTINUOUS
10
90.9868
20
-161.823
11
90.6058
21
-161.823
0
LINE
8
BLACK
6
CONTINUOUS
10
90.6058
20
-161.823
11
90.4153
21
-161.918
0
LINE
8
BLACK
6
CONTINUOUS
10
90.4153
20
-161.918
11
90.3201
21
-162.013
0
LINE
8
BLACK
6
CONTINUOUS
10
90.3201
20
-162.013
11
90.2249
21
-162.204
0
LINE
8
BLACK
6
CONTINUOUS
10
90.2249
20
-162.204
11
90.2249
21
-162.68
0
LINE
8
BLACK
6
CONTINUOUS
10
90.2249
20
-162.68
11
90.3201
21
-162.87
0
LINE
8
BLACK
6
CONTINUOUS
10
90.3201
20
-162.87
11
90.4153
21
-162.966
0
LINE
8
BLACK
6
CONTINUOUS
10
90.4153
20
-162.966
11
90.6058
21
-163.061
0
LINE
8
BLACK
6
CONTINUOUS
10
90.6058
20
-163.061
11
90.9868
21
-163.061
0
LINE
8
BLACK
6
CONTINUOUS
10
90.9868
20
-163.061
11
91.1772
21
-162.966
0
LINE
8
BLACK
6
CONTINUOUS
10
91.1772
20
-162.966
11
91.2725
21
-162.87
0
LINE
8
BLACK
6
CONTINUOUS
10
91.2725
20
-162.87
11
91.3677
21
-162.68
0
LINE
8
BLACK
6
CONTINUOUS
10
93.2725
20
-163.823
11
92.1296
21
-163.823
0
LINE
8
BLACK
6
CONTINUOUS
10
92.701
20
-163.823
11
92.701
21
-161.823
0
LINE
8
BLACK
6
CONTINUOUS
10
92.701
20
-161.823
11
92.5106
21
-162.108
0
LINE
8
BLACK
6
CONTINUOUS
10
92.5106
20
-162.108
11
92.3201
21
-162.299
0
LINE
8
BLACK
6
CONTINUOUS
10
92.3201
20
-162.299
11
92.1296
21
-162.394
0
LINE
8
BLACK
6
CONTINUOUS
10
94.1296
20
-163.823
11
94.1296
21
-162.489
0
LINE
8
BLACK
6
CONTINUOUS
10
94.1296
20
-162.68
11
94.2249
21
-162.585
0
LINE
8
BLACK
6
CONTINUOUS
10
94.2249
20
-162.585
11
94.4153
21
-162.489
0
LINE
8
BLACK
6
CONTINUOUS
10
94.4153
20
-162.489
11
94.701
21
-162.489
0
LINE
8
BLACK
6
CONTINUOUS
10
94.701
20
-162.489
11
94.8915
21
-162.585
0
LINE
8
BLACK
6
CONTINUOUS
10
94.8915
20
-162.585
11
94.9868
21
-162.775
0
LINE
8
BLACK
6
CONTINUOUS
10
94.9868
20
-162.775
11
94.9868
21
-163.823
0
LINE
8
BLACK
6
CONTINUOUS
10
94.9868
20
-162.775
11
95.082
21
-162.585
0
LINE
8
BLACK
6
CONTINUOUS
10
95.082
20
-162.585
11
95.2725
21
-162.489
0
LINE
8
BLACK
6
CONTINUOUS
10
95.2725
20
-162.489
11
95.5582
21
-162.489
0
LINE
8
BLACK
6
CONTINUOUS
10
95.5582
20
-162.489
11
95.7487
21
-162.585
0
LINE
8
BLACK
6
CONTINUOUS
10
95.7487
20
-162.585
11
95.8439
21
-162.775
0
LINE
8
BLACK
6
CONTINUOUS
10
95.8439
20
-162.775
11
95.8439
21
-163.823
0
LINE
8
BLACK
6
CONTINUOUS
10
96.7963
20
-163.823
11
96.7963
21
-162.489
0
LINE
8
BLACK
6
CONTINUOUS
10
96.7963
20
-162.68
11
96.8915
21
-162.585
0
LINE
8
BLACK
6
CONTINUOUS
10
96.8915
20
-162.585
11
97.082
21
-162.489
0
LINE
8
BLACK
6
CONTINUOUS
10
97.082
20
-162.489
11
97.3677
21
-162.489
0
LINE
8
BLACK
6
CONTINUOUS
10
97.3677
20
-162.489
11
97.5582
21
-162.585
0
LINE
8
BLACK
6
CONTINUOUS
10
97.5582
20
-162.585
11
97.6534
21
-162.775
0
LINE
8
BLACK
6
CONTINUOUS
10
97.6534
20
-162.775
11
97.6534
21
-163.823
0
LINE
8
BLACK
6
CONTINUOUS
10
97.6534
20
-162.775
11
97.7487
21
-162.585
0
LINE
8
BLACK
6
CONTINUOUS
10
97.7487
20
-162.585
11
97.9391
21
-162.489
0
LINE
8
BLACK
6
CONTINUOUS
10
97.9391
20
-162.489
11
98.2249
21
-162.489
0
LINE
8
BLACK
6
CONTINUOUS
10
98.2249
20
-162.489
11
98.4153
21
-162.585
0
LINE
8
BLACK
6
CONTINUOUS
10
98.4153
20
-162.585
11
98.5106
21
-162.775
0
LINE
8
BLACK
6
CONTINUOUS
10
98.5106
20
-162.775
11
98.5106
21
-163.823
0
LINE
8
BLACK
6
CONTINUOUS
10
102.415
20
-161.728
11
100.701
21
-164.299
0
LINE
8
BLACK
6
CONTINUOUS
10
104.987
20
-161.823
11
105.177
21
-161.823
0
LINE
8
BLACK
6
CONTINUOUS
10
105.177
20
-161.823
11
105.368
21
-161.918
0
LINE
8
BLACK
6
CONTINUOUS
10
105.368
20
-161.918
11
105.463
21
-162.013
0
LINE
8
BLACK
6
CONTINUOUS
10
105.463
20
-162.013
11
105.558
21
-162.204
0
LINE
8
BLACK
6
CONTINUOUS
10
105.558
20
-162.204
11
105.653
21
-162.585
0
LINE
8
BLACK
6
CONTINUOUS
10
105.653
20
-162.585
11
105.653
21
-163.061
0
LINE
8
BLACK
6
CONTINUOUS
10
105.653
20
-163.061
11
105.558
21
-163.442
0
LINE
8
BLACK
6
CONTINUOUS
10
105.558
20
-163.442
11
105.463
21
-163.632
0
LINE
8
BLACK
6
CONTINUOUS
10
105.463
20
-163.632
11
105.368
21
-163.728
0
LINE
8
BLACK
6
CONTINUOUS
10
105.368
20
-163.728
11
105.177
21
-163.823
0
LINE
8
BLACK
6
CONTINUOUS
10
105.177
20
-163.823
11
104.987
21
-163.823
0
LINE
8
BLACK
6
CONTINUOUS
10
104.987
20
-163.823
11
104.796
21
-163.728
0
LINE
8
BLACK
6
CONTINUOUS
10
104.796
20
-163.728
11
104.701
21
-163.632
0
LINE
8
BLACK
6
CONTINUOUS
10
104.701
20
-163.632
11
104.606
21
-163.442
0
LINE
8
BLACK
6
CONTINUOUS
10
104.606
20
-163.442
11
104.511
21
-163.061
0
LINE
8
BLACK
6
CONTINUOUS
10
104.511
20
-163.061
11
104.511
21
-162.585
0
LINE
8
BLACK
6
CONTINUOUS
10
104.511
20
-162.585
11
104.606
21
-162.204
0
LINE
8
BLACK
6
CONTINUOUS
10
104.606
20
-162.204
11
104.701
21
-162.013
0
LINE
8
BLACK
6
CONTINUOUS
10
104.701
20
-162.013
11
104.796
21
-161.918
0
LINE
8
BLACK
6
CONTINUOUS
10
104.796
20
-161.918
11
104.987
21
-161.823
0
LINE
8
BLACK
6
CONTINUOUS
10
106.511
20
-163.632
11
106.606
21
-163.728
0
LINE
8
BLACK
6
CONTINUOUS
10
106.606
20
-163.728
11
106.511
21
-163.823
0
LINE
8
BLACK
6
CONTINUOUS
10
106.511
20
-163.823
11
106.415
21
-163.728
0
LINE
8
BLACK
6
CONTINUOUS
10
106.415
20
-163.728
11
106.511
21
-163.632
0
LINE
8
BLACK
6
CONTINUOUS
10
106.511
20
-163.632
11
106.511
21
-163.823
0
LINE
8
BLACK
6
CONTINUOUS
10
107.844
20
-161.823
11
108.034
21
-161.823
0
LINE
8
BLACK
6
CONTINUOUS
10
108.034
20
-161.823
11
108.225
21
-161.918
0
LINE
8
BLACK
6
CONTINUOUS
10
108.225
20
-161.918
11
108.32
21
-162.013
0
LINE
8
BLACK
6
CONTINUOUS
10
108.32
20
-162.013
11
108.415
21
-162.204
0
LINE
8
BLACK
6
CONTINUOUS
10
108.415
20
-162.204
11
108.511
21
-162.585
0
LINE
8
BLACK
6
CONTINUOUS
10
108.511
20
-162.585
11
108.511
21
-163.061
0
LINE
8
BLACK
6
CONTINUOUS
10
108.511
20
-163.061
11
108.415
21
-163.442
0
LINE
8
BLACK
6
CONTINUOUS
10
108.415
20
-163.442
11
108.32
21
-163.632
0
LINE
8
BLACK
6
CONTINUOUS
10
108.32
20
-163.632
11
108.225
21
-163.728
0
LINE
8
BLACK
6
CONTINUOUS
10
108.225
20
-163.728
11
108.034
21
-163.823
0
LINE
8
BLACK
6
CONTINUOUS
10
108.034
20
-163.823
11
107.844
21
-163.823
0
LINE
8
BLACK
6
CONTINUOUS
10
107.844
20
-163.823
11
107.653
21
-163.728
0
LINE
8
BLACK
6
CONTINUOUS
10
107.653
20
-163.728
11
107.558
21
-163.632
0
LINE
8
BLACK
6
CONTINUOUS
10
107.558
20
-163.632
11
107.463
21
-163.442
0
LINE
8
BLACK
6
CONTINUOUS
10
107.463
20
-163.442
11
107.368
21
-163.061
0
LINE
8
BLACK
6
CONTINUOUS
10
107.368
20
-163.061
11
107.368
21
-162.585
0
LINE
8
BLACK
6
CONTINUOUS
10
107.368
20
-162.585
11
107.463
21
-162.204
0
LINE
8
BLACK
6
CONTINUOUS
10
107.463
20
-162.204
11
107.558
21
-162.013
0
LINE
8
BLACK
6
CONTINUOUS
10
107.558
20
-162.013
11
107.653
21
-161.918
0
LINE
8
BLACK
6
CONTINUOUS
10
107.653
20
-161.918
11
107.844
21
-161.823
0
LINE
8
BLACK
6
CONTINUOUS
10
109.177
20
-161.823
11
110.415
21
-161.823
0
LINE
8
BLACK
6
CONTINUOUS
10
110.415
20
-161.823
11
109.749
21
-162.585
0
LINE
8
BLACK
6
CONTINUOUS
10
109.749
20
-162.585
11
110.034
21
-162.585
0
LINE
8
BLACK
6
CONTINUOUS
10
110.034
20
-162.585
11
110.225
21
-162.68
0
LINE
8
BLACK
6
CONTINUOUS
10
110.225
20
-162.68
11
110.32
21
-162.775
0
LINE
8
BLACK
6
CONTINUOUS
10
110.32
20
-162.775
11
110.415
21
-162.966
0
LINE
8
BLACK
6
CONTINUOUS
10
110.415
20
-162.966
11
110.415
21
-163.442
0
LINE
8
BLACK
6
CONTINUOUS
10
110.415
20
-163.442
11
110.32
21
-163.632
0
LINE
8
BLACK
6
CONTINUOUS
10
110.32
20
-163.632
11
110.225
21
-163.728
0
LINE
8
BLACK
6
CONTINUOUS
10
110.225
20
-163.728
11
110.034
21
-163.823
0
LINE
8
BLACK
6
CONTINUOUS
10
110.034
20
-163.823
11
109.463
21
-163.823
0
LINE
8
BLACK
6
CONTINUOUS
10
109.463
20
-163.823
11
109.272
21
-163.728
0
LINE
8
BLACK
6
CONTINUOUS
10
109.272
20
-163.728
11
109.177
21
-163.632
0
LINE
8
BLACK
6
CONTINUOUS
10
111.368
20
-163.823
11
111.749
21
-163.823
0
LINE
8
BLACK
6
CONTINUOUS
10
111.749
20
-163.823
11
111.939
21
-163.728
0
LINE
8
BLACK
6
CONTINUOUS
10
111.939
20
-163.728
11
112.034
21
-163.632
0
LINE
8
BLACK
6
CONTINUOUS
10
112.034
20
-163.632
11
112.225
21
-163.347
0
LINE
8
BLACK
6
CONTINUOUS
10
112.225
20
-163.347
11
112.32
21
-162.966
0
LINE
8
BLACK
6
CONTINUOUS
10
112.32
20
-162.966
11
112.32
21
-162.204
0
LINE
8
BLACK
6
CONTINUOUS
10
112.32
20
-162.204
11
112.225
21
-162.013
0
LINE
8
BLACK
6
CONTINUOUS
10
112.225
20
-162.013
11
112.13
21
-161.918
0
LINE
8
BLACK
6
CONTINUOUS
10
112.13
20
-161.918
11
111.939
21
-161.823
0
LINE
8
BLACK
6
CONTINUOUS
10
111.939
20
-161.823
11
111.558
21
-161.823
0
LINE
8
BLACK
6
CONTINUOUS
10
111.558
20
-161.823
11
111.368
21
-161.918
0
LINE
8
BLACK
6
CONTINUOUS
10
111.368
20
-161.918
11
111.272
21
-162.013
0
LINE
8
BLACK
6
CONTINUOUS
10
111.272
20
-162.013
11
111.177
21
-162.204
0
LINE
8
BLACK
6
CONTINUOUS
10
111.177
20
-162.204
11
111.177
21
-162.68
0
LINE
8
BLACK
6
CONTINUOUS
10
111.177
20
-162.68
11
111.272
21
-162.87
0
LINE
8
BLACK
6
CONTINUOUS
10
111.272
20
-162.87
11
111.368
21
-162.966
0
LINE
8
BLACK
6
CONTINUOUS
10
111.368
20
-162.966
11
111.558
21
-163.061
0
LINE
8
BLACK
6
CONTINUOUS
10
111.558
20
-163.061
11
111.939
21
-163.061
0
LINE
8
BLACK
6
CONTINUOUS
10
111.939
20
-163.061
11
112.13
21
-162.966
0
LINE
8
BLACK
6
CONTINUOUS
10
112.13
20
-162.966
11
112.225
21
-162.87
0
LINE
8
BLACK
6
CONTINUOUS
10
112.225
20
-162.87
11
112.32
21
-162.68
0
LINE
8
BLACK
6
CONTINUOUS
10
113.558
20
-161.823
11
113.749
21
-161.823
0
LINE
8
BLACK
6
CONTINUOUS
10
113.749
20
-161.823
11
113.939
21
-161.918
0
LINE
8
BLACK
6
CONTINUOUS
10
113.939
20
-161.918
11
114.034
21
-162.013
0
LINE
8
BLACK
6
CONTINUOUS
10
114.034
20
-162.013
11
114.13
21
-162.204
0
LINE
8
BLACK
6
CONTINUOUS
10
114.13
20
-162.204
11
114.225
21
-162.585
0
LINE
8
BLACK
6
CONTINUOUS
10
114.225
20
-162.585
11
114.225
21
-163.061
0
LINE
8
BLACK
6
CONTINUOUS
10
114.225
20
-163.061
11
114.13
21
-163.442
0
LINE
8
BLACK
6
CONTINUOUS
10
114.13
20
-163.442
11
114.034
21
-163.632
0
LINE
8
BLACK
6
CONTINUOUS
10
114.034
20
-163.632
11
113.939
21
-163.728
0
LINE
8
BLACK
6
CONTINUOUS
10
113.939
20
-163.728
11
113.749
21
-163.823
0
LINE
8
BLACK
6
CONTINUOUS
10
113.749
20
-163.823
11
113.558
21
-163.823
0
LINE
8
BLACK
6
CONTINUOUS
10
113.558
20
-163.823
11
113.368
21
-163.728
0
LINE
8
BLACK
6
CONTINUOUS
10
113.368
20
-163.728
11
113.272
21
-163.632
0
LINE
8
BLACK
6
CONTINUOUS
10
113.272
20
-163.632
11
113.177
21
-163.442
0
LINE
8
BLACK
6
CONTINUOUS
10
113.177
20
-163.442
11
113.082
21
-163.061
0
LINE
8
BLACK
6
CONTINUOUS
10
113.082
20
-163.061
11
113.082
21
-162.585
0
LINE
8
BLACK
6
CONTINUOUS
10
113.082
20
-162.585
11
113.177
21
-162.204
0
LINE
8
BLACK
6
CONTINUOUS
10
113.177
20
-162.204
11
113.272
21
-162.013
0
LINE
8
BLACK
6
CONTINUOUS
10
113.272
20
-162.013
11
113.368
21
-161.918
0
LINE
8
BLACK
6
CONTINUOUS
10
113.368
20
-161.918
11
113.558
21
-161.823
0
LINE
8
BLACK
6
CONTINUOUS
10
114.987
20
-161.823
11
114.987
21
-162.204
0
LINE
8
BLACK
6
CONTINUOUS
10
115.749
20
-161.823
11
115.749
21
-162.204
0
LINE
8
BLACK
6
CONTINUOUS
10
118.701
20
-164.585
11
118.606
21
-164.489
0
LINE
8
BLACK
6
CONTINUOUS
10
118.606
20
-164.489
11
118.415
21
-164.204
0
LINE
8
BLACK
6
CONTINUOUS
10
118.415
20
-164.204
11
118.32
21
-164.013
0
LINE
8
BLACK
6
CONTINUOUS
10
118.32
20
-164.013
11
118.225
21
-163.728
0
LINE
8
BLACK
6
CONTINUOUS
10
118.225
20
-163.728
11
118.13
21
-163.251
0
LINE
8
BLACK
6
CONTINUOUS
10
118.13
20
-163.251
11
118.13
21
-162.87
0
LINE
8
BLACK
6
CONTINUOUS
10
118.13
20
-162.87
11
118.225
21
-162.394
0
LINE
8
BLACK
6
CONTINUOUS
10
118.225
20
-162.394
11
118.32
21
-162.108
0
LINE
8
BLACK
6
CONTINUOUS
10
118.32
20
-162.108
11
118.415
21
-161.918
0
LINE
8
BLACK
6
CONTINUOUS
10
118.415
20
-161.918
11
118.606
21
-161.632
0
LINE
8
BLACK
6
CONTINUOUS
10
118.606
20
-161.632
11
118.701
21
-161.537
0
LINE
8
BLACK
6
CONTINUOUS
10
119.272
20
-161.823
11
120.511
21
-161.823
0
LINE
8
BLACK
6
CONTINUOUS
10
120.511
20
-161.823
11
119.844
21
-162.585
0
LINE
8
BLACK
6
CONTINUOUS
10
119.844
20
-162.585
11
120.13
21
-162.585
0
LINE
8
BLACK
6
CONTINUOUS
10
120.13
20
-162.585
11
120.32
21
-162.68
0
LINE
8
BLACK
6
CONTINUOUS
10
120.32
20
-162.68
11
120.415
21
-162.775
0
LINE
8
BLACK
6
CONTINUOUS
10
120.415
20
-162.775
11
120.511
21
-162.966
0
LINE
8
BLACK
6
CONTINUOUS
10
120.511
20
-162.966
11
120.511
21
-163.442
0
LINE
8
BLACK
6
CONTINUOUS
10
120.511
20
-163.442
11
120.415
21
-163.632
0
LINE
8
BLACK
6
CONTINUOUS
10
120.415
20
-163.632
11
120.32
21
-163.728
0
LINE
8
BLACK
6
CONTINUOUS
10
120.32
20
-163.728
11
120.13
21
-163.823
0
LINE
8
BLACK
6
CONTINUOUS
10
120.13
20
-163.823
11
119.558
21
-163.823
0
LINE
8
BLACK
6
CONTINUOUS
10
119.558
20
-163.823
11
119.368
21
-163.728
0
LINE
8
BLACK
6
CONTINUOUS
10
119.368
20
-163.728
11
119.272
21
-163.632
0
LINE
8
BLACK
6
CONTINUOUS
10
122.892
20
-163.823
11
122.892
21
-161.823
0
LINE
8
BLACK
6
CONTINUOUS
10
123.749
20
-163.823
11
123.749
21
-162.775
0
LINE
8
BLACK
6
CONTINUOUS
10
123.749
20
-162.775
11
123.653
21
-162.585
0
LINE
8
BLACK
6
CONTINUOUS
10
123.653
20
-162.585
11
123.463
21
-162.489
0
LINE
8
BLACK
6
CONTINUOUS
10
123.463
20
-162.489
11
123.177
21
-162.489
0
LINE
8
BLACK
6
CONTINUOUS
10
123.177
20
-162.489
11
122.987
21
-162.585
0
LINE
8
BLACK
6
CONTINUOUS
10
122.987
20
-162.585
11
122.892
21
-162.68
0
LINE
8
BLACK
6
CONTINUOUS
10
124.987
20
-163.823
11
124.796
21
-163.728
0
LINE
8
BLACK
6
CONTINUOUS
10
124.796
20
-163.728
11
124.701
21
-163.632
0
LINE
8
BLACK
6
CONTINUOUS
10
124.701
20
-163.632
11
124.606
21
-163.442
0
LINE
8
BLACK
6
CONTINUOUS
10
124.606
20
-163.442
11
124.606
21
-162.87
0
LINE
8
BLACK
6
CONTINUOUS
10
124.606
20
-162.87
11
124.701
21
-162.68
0
LINE
8
BLACK
6
CONTINUOUS
10
124.701
20
-162.68
11
124.796
21
-162.585
0
LINE
8
BLACK
6
CONTINUOUS
10
124.796
20
-162.585
11
124.987
21
-162.489
0
LINE
8
BLACK
6
CONTINUOUS
10
124.987
20
-162.489
11
125.272
21
-162.489
0
LINE
8
BLACK
6
CONTINUOUS
10
125.272
20
-162.489
11
125.463
21
-162.585
0
LINE
8
BLACK
6
CONTINUOUS
10
125.463
20
-162.585
11
125.558
21
-162.68
0
LINE
8
BLACK
6
CONTINUOUS
10
125.558
20
-162.68
11
125.653
21
-162.87
0
LINE
8
BLACK
6
CONTINUOUS
10
125.653
20
-162.87
11
125.653
21
-163.442
0
LINE
8
BLACK
6
CONTINUOUS
10
125.653
20
-163.442
11
125.558
21
-163.632
0
LINE
8
BLACK
6
CONTINUOUS
10
125.558
20
-163.632
11
125.463
21
-163.728
0
LINE
8
BLACK
6
CONTINUOUS
10
125.463
20
-163.728
11
125.272
21
-163.823
0
LINE
8
BLACK
6
CONTINUOUS
10
125.272
20
-163.823
11
124.987
21
-163.823
0
LINE
8
BLACK
6
CONTINUOUS
10
126.796
20
-163.823
11
126.606
21
-163.728
0
LINE
8
BLACK
6
CONTINUOUS
10
126.606
20
-163.728
11
126.511
21
-163.537
0
LINE
8
BLACK
6
CONTINUOUS
10
126.511
20
-163.537
11
126.511
21
-161.823
0
LINE
8
BLACK
6
CONTINUOUS
10
128.32
20
-163.728
11
128.13
21
-163.823
0
LINE
8
BLACK
6
CONTINUOUS
10
128.13
20
-163.823
11
127.749
21
-163.823
0
LINE
8
BLACK
6
CONTINUOUS
10
127.749
20
-163.823
11
127.558
21
-163.728
0
LINE
8
BLACK
6
CONTINUOUS
10
127.558
20
-163.728
11
127.463
21
-163.537
0
LINE
8
BLACK
6
CONTINUOUS
10
127.463
20
-163.537
11
127.463
21
-162.775
0
LINE
8
BLACK
6
CONTINUOUS
10
127.463
20
-162.775
11
127.558
21
-162.585
0
LINE
8
BLACK
6
CONTINUOUS
10
127.558
20
-162.585
11
127.749
21
-162.489
0
LINE
8
BLACK
6
CONTINUOUS
10
127.749
20
-162.489
11
128.13
21
-162.489
0
LINE
8
BLACK
6
CONTINUOUS
10
128.13
20
-162.489
11
128.32
21
-162.585
0
LINE
8
BLACK
6
CONTINUOUS
10
128.32
20
-162.585
11
128.415
21
-162.775
0
LINE
8
BLACK
6
CONTINUOUS
10
128.415
20
-162.775
11
128.415
21
-162.966
0
LINE
8
BLACK
6
CONTINUOUS
10
128.415
20
-162.966
11
127.463
21
-163.156
0
LINE
8
BLACK
6
CONTINUOUS
10
129.177
20
-163.728
11
129.368
21
-163.823
0
LINE
8
BLACK
6
CONTINUOUS
10
129.368
20
-163.823
11
129.749
21
-163.823
0
LINE
8
BLACK
6
CONTINUOUS
10
129.749
20
-163.823
11
129.939
21
-163.728
0
LINE
8
BLACK
6
CONTINUOUS
10
129.939
20
-163.728
11
130.034
21
-163.537
0
LINE
8
BLACK
6
CONTINUOUS
10
130.034
20
-163.537
11
130.034
21
-163.442
0
LINE
8
BLACK
6
CONTINUOUS
10
130.034
20
-163.442
11
129.939
21
-163.251
0
LINE
8
BLACK
6
CONTINUOUS
10
129.939
20
-163.251
11
129.749
21
-163.156
0
LINE
8
BLACK
6
CONTINUOUS
10
129.749
20
-163.156
11
129.463
21
-163.156
0
LINE
8
BLACK
6
CONTINUOUS
10
129.463
20
-163.156
11
129.272
21
-163.061
0
LINE
8
BLACK
6
CONTINUOUS
10
129.272
20
-163.061
11
129.177
21
-162.87
0
LINE
8
BLACK
6
CONTINUOUS
10
129.177
20
-162.87
11
129.177
21
-162.775
0
LINE
8
BLACK
6
CONTINUOUS
10
129.177
20
-162.775
11
129.272
21
-162.585
0
LINE
8
BLACK
6
CONTINUOUS
10
129.272
20
-162.585
11
129.463
21
-162.489
0
LINE
8
BLACK
6
CONTINUOUS
10
129.463
20
-162.489
11
129.749
21
-162.489
0
LINE
8
BLACK
6
CONTINUOUS
10
129.749
20
-162.489
11
129.939
21
-162.585
0
LINE
8
BLACK
6
CONTINUOUS
10
130.701
20
-164.585
11
130.796
21
-164.489
0
LINE
8
BLACK
6
CONTINUOUS
10
130.796
20
-164.489
11
130.987
21
-164.204
0
LINE
8
BLACK
6
CONTINUOUS
10
130.987
20
-164.204
11
131.082
21
-164.013
0
LINE
8
BLACK
6
CONTINUOUS
10
131.082
20
-164.013
11
131.177
21
-163.728
0
LINE
8
BLACK
6
CONTINUOUS
10
131.177
20
-163.728
11
131.272
21
-163.251
0
LINE
8
BLACK
6
CONTINUOUS
10
131.272
20
-163.251
11
131.272
21
-162.87
0
LINE
8
BLACK
6
CONTINUOUS
10
131.272
20
-162.87
11
131.177
21
-162.394
0
LINE
8
BLACK
6
CONTINUOUS
10
131.177
20
-162.394
11
131.082
21
-162.108
0
LINE
8
BLACK
6
CONTINUOUS
10
131.082
20
-162.108
11
130.987
21
-161.918
0
LINE
8
BLACK
6
CONTINUOUS
10
130.987
20
-161.918
11
130.796
21
-161.632
0
LINE
8
BLACK
6
CONTINUOUS
10
130.796
20
-161.632
11
130.701
21
-161.537
0
LINE
8
BLACK
6
CONTINUOUS
10
134.32
20
-164.585
11
134.225
21
-164.489
0
LINE
8
BLACK
6
CONTINUOUS
10
134.225
20
-164.489
11
134.034
21
-164.204
0
LINE
8
BLACK
6
CONTINUOUS
10
134.034
20
-164.204
11
133.939
21
-164.013
0
LINE
8
BLACK
6
CONTINUOUS
10
133.939
20
-164.013
11
133.844
21
-163.728
0
LINE
8
BLACK
6
CONTINUOUS
10
133.844
20
-163.728
11
133.749
21
-163.251
0
LINE
8
BLACK
6
CONTINUOUS
10
133.749
20
-163.251
11
133.749
21
-162.87
0
LINE
8
BLACK
6
CONTINUOUS
10
133.749
20
-162.87
11
133.844
21
-162.394
0
LINE
8
BLACK
6
CONTINUOUS
10
133.844
20
-162.394
11
133.939
21
-162.108
0
LINE
8
BLACK
6
CONTINUOUS
10
133.939
20
-162.108
11
134.034
21
-161.918
0
LINE
8
BLACK
6
CONTINUOUS
10
134.034
20
-161.918
11
134.225
21
-161.632
0
LINE
8
BLACK
6
CONTINUOUS
10
134.225
20
-161.632
11
134.32
21
-161.537
0
LINE
8
BLACK
6
CONTINUOUS
10
135.082
20
-162.489
11
135.082
21
-163.823
0
LINE
8
BLACK
6
CONTINUOUS
10
135.082
20
-162.68
11
135.177
21
-162.585
0
LINE
8
BLACK
6
CONTINUOUS
10
135.177
20
-162.585
11
135.368
21
-162.489
0
LINE
8
BLACK
6
CONTINUOUS
10
135.368
20
-162.489
11
135.653
21
-162.489
0
LINE
8
BLACK
6
CONTINUOUS
10
135.653
20
-162.489
11
135.844
21
-162.585
0
LINE
8
BLACK
6
CONTINUOUS
10
135.844
20
-162.585
11
135.939
21
-162.775
0
LINE
8
BLACK
6
CONTINUOUS
10
135.939
20
-162.775
11
135.939
21
-163.823
0
LINE
8
BLACK
6
CONTINUOUS
10
137.177
20
-163.823
11
136.987
21
-163.728
0
LINE
8
BLACK
6
CONTINUOUS
10
136.987
20
-163.728
11
136.892
21
-163.632
0
LINE
8
BLACK
6
CONTINUOUS
10
136.892
20
-163.632
11
136.796
21
-163.442
0
LINE
8
BLACK
6
CONTINUOUS
10
136.796
20
-163.442
11
136.796
21
-162.87
0
LINE
8
BLACK
6
CONTINUOUS
10
136.796
20
-162.87
11
136.892
21
-162.68
0
LINE
8
BLACK
6
CONTINUOUS
10
136.892
20
-162.68
11
136.987
21
-162.585
0
LINE
8
BLACK
6
CONTINUOUS
10
136.987
20
-162.585
11
137.177
21
-162.489
0
LINE
8
BLACK
6
CONTINUOUS
10
137.177
20
-162.489
11
137.463
21
-162.489
0
LINE
8
BLACK
6
CONTINUOUS
10
137.463
20
-162.489
11
137.653
21
-162.585
0
LINE
8
BLACK
6
CONTINUOUS
10
137.653
20
-162.585
11
137.749
21
-162.68
0
LINE
8
BLACK
6
CONTINUOUS
10
137.749
20
-162.68
11
137.844
21
-162.87
0
LINE
8
BLACK
6
CONTINUOUS
10
137.844
20
-162.87
11
137.844
21
-163.442
0
LINE
8
BLACK
6
CONTINUOUS
10
137.844
20
-163.442
11
137.749
21
-163.632
0
LINE
8
BLACK
6
CONTINUOUS
10
137.749
20
-163.632
11
137.653
21
-163.728
0
LINE
8
BLACK
6
CONTINUOUS
10
137.653
20
-163.728
11
137.463
21
-163.823
0
LINE
8
BLACK
6
CONTINUOUS
10
137.463
20
-163.823
11
137.177
21
-163.823
0
LINE
8
BLACK
6
CONTINUOUS
10
138.415
20
-162.489
11
139.177
21
-162.489
0
LINE
8
BLACK
6
CONTINUOUS
10
138.701
20
-161.823
11
138.701
21
-163.537
0
LINE
8
BLACK
6
CONTINUOUS
10
138.701
20
-163.537
11
138.796
21
-163.728
0
LINE
8
BLACK
6
CONTINUOUS
10
138.796
20
-163.728
11
138.987
21
-163.823
0
LINE
8
BLACK
6
CONTINUOUS
10
138.987
20
-163.823
11
139.177
21
-163.823
0
LINE
8
BLACK
6
CONTINUOUS
10
141.368
20
-162.489
11
141.368
21
-164.489
0
LINE
8
BLACK
6
CONTINUOUS
10
141.368
20
-162.585
11
141.558
21
-162.489
0
LINE
8
BLACK
6
CONTINUOUS
10
141.558
20
-162.489
11
141.939
21
-162.489
0
LINE
8
BLACK
6
CONTINUOUS
10
141.939
20
-162.489
11
142.13
21
-162.585
0
LINE
8
BLACK
6
CONTINUOUS
10
142.13
20
-162.585
11
142.225
21
-162.68
0
LINE
8
BLACK
6
CONTINUOUS
10
142.225
20
-162.68
11
142.32
21
-162.87
0
LINE
8
BLACK
6
CONTINUOUS
10
142.32
20
-162.87
11
142.32
21
-163.442
0
LINE
8
BLACK
6
CONTINUOUS
10
142.32
20
-163.442
11
142.225
21
-163.632
0
LINE
8
BLACK
6
CONTINUOUS
10
142.225
20
-163.632
11
142.13
21
-163.728
0
LINE
8
BLACK
6
CONTINUOUS
10
142.13
20
-163.728
11
141.939
21
-163.823
0
LINE
8
BLACK
6
CONTINUOUS
10
141.939
20
-163.823
11
141.558
21
-163.823
0
LINE
8
BLACK
6
CONTINUOUS
10
141.558
20
-163.823
11
141.368
21
-163.728
0
LINE
8
BLACK
6
CONTINUOUS
10
143.463
20
-163.823
11
143.272
21
-163.728
0
LINE
8
BLACK
6
CONTINUOUS
10
143.272
20
-163.728
11
143.177
21
-163.537
0
LINE
8
BLACK
6
CONTINUOUS
10
143.177
20
-163.537
11
143.177
21
-161.823
0
LINE
8
BLACK
6
CONTINUOUS
10
145.082
20
-163.823
11
145.082
21
-162.775
0
LINE
8
BLACK
6
CONTINUOUS
10
145.082
20
-162.775
11
144.987
21
-162.585
0
LINE
8
BLACK
6
CONTINUOUS
10
144.987
20
-162.585
11
144.796
21
-162.489
0
LINE
8
BLACK
6
CONTINUOUS
10
144.796
20
-162.489
11
144.415
21
-162.489
0
LINE
8
BLACK
6
CONTINUOUS
10
144.415
20
-162.489
11
144.225
21
-162.585
0
LINE
8
BLACK
6
CONTINUOUS
10
145.082
20
-163.728
11
144.892
21
-163.823
0
LINE
8
BLACK
6
CONTINUOUS
10
144.892
20
-163.823
11
144.415
21
-163.823
0
LINE
8
BLACK
6
CONTINUOUS
10
144.415
20
-163.823
11
144.225
21
-163.728
0
LINE
8
BLACK
6
CONTINUOUS
10
144.225
20
-163.728
11
144.13
21
-163.537
0
LINE
8
BLACK
6
CONTINUOUS
10
144.13
20
-163.537
11
144.13
21
-163.347
0
LINE
8
BLACK
6
CONTINUOUS
10
144.13
20
-163.347
11
144.225
21
-163.156
0
LINE
8
BLACK
6
CONTINUOUS
10
144.225
20
-163.156
11
144.415
21
-163.061
0
LINE
8
BLACK
6
CONTINUOUS
10
144.415
20
-163.061
11
144.892
21
-163.061
0
LINE
8
BLACK
6
CONTINUOUS
10
144.892
20
-163.061
11
145.082
21
-162.966
0
LINE
8
BLACK
6
CONTINUOUS
10
145.749
20
-162.489
11
146.511
21
-162.489
0
LINE
8
BLACK
6
CONTINUOUS
10
146.034
20
-161.823
11
146.034
21
-163.537
0
LINE
8
BLACK
6
CONTINUOUS
10
146.034
20
-163.537
11
146.13
21
-163.728
0
LINE
8
BLACK
6
CONTINUOUS
10
146.13
20
-163.728
11
146.32
21
-163.823
0
LINE
8
BLACK
6
CONTINUOUS
10
146.32
20
-163.823
11
146.511
21
-163.823
0
LINE
8
BLACK
6
CONTINUOUS
10
147.939
20
-163.728
11
147.749
21
-163.823
0
LINE
8
BLACK
6
CONTINUOUS
10
147.749
20
-163.823
11
147.368
21
-163.823
0
LINE
8
BLACK
6
CONTINUOUS
10
147.368
20
-163.823
11
147.177
21
-163.728
0
LINE
8
BLACK
6
CONTINUOUS
10
147.177
20
-163.728
11
147.082
21
-163.537
0
LINE
8
BLACK
6
CONTINUOUS
10
147.082
20
-163.537
11
147.082
21
-162.775
0
LINE
8
BLACK
6
CONTINUOUS
10
147.082
20
-162.775
11
147.177
21
-162.585
0
LINE
8
BLACK
6
CONTINUOUS
10
147.177
20
-162.585
11
147.368
21
-162.489
0
LINE
8
BLACK
6
CONTINUOUS
10
147.368
20
-162.489
11
147.749
21
-162.489
0
LINE
8
BLACK
6
CONTINUOUS
10
147.749
20
-162.489
11
147.939
21
-162.585
0
LINE
8
BLACK
6
CONTINUOUS
10
147.939
20
-162.585
11
148.034
21
-162.775
0
LINE
8
BLACK
6
CONTINUOUS
10
148.034
20
-162.775
11
148.034
21
-162.966
0
LINE
8
BLACK
6
CONTINUOUS
10
148.034
20
-162.966
11
147.082
21
-163.156
0
LINE
8
BLACK
6
CONTINUOUS
10
149.749
20
-163.823
11
149.749
21
-161.823
0
LINE
8
BLACK
6
CONTINUOUS
10
149.749
20
-163.728
11
149.558
21
-163.823
0
LINE
8
BLACK
6
CONTINUOUS
10
149.558
20
-163.823
11
149.177
21
-163.823
0
LINE
8
BLACK
6
CONTINUOUS
10
149.177
20
-163.823
11
148.987
21
-163.728
0
LINE
8
BLACK
6
CONTINUOUS
10
148.987
20
-163.728
11
148.892
21
-163.632
0
LINE
8
BLACK
6
CONTINUOUS
10
148.892
20
-163.632
11
148.796
21
-163.442
0
LINE
8
BLACK
6
CONTINUOUS
10
148.796
20
-163.442
11
148.796
21
-162.87
0
LINE
8
BLACK
6
CONTINUOUS
10
148.796
20
-162.87
11
148.892
21
-162.68
0
LINE
8
BLACK
6
CONTINUOUS
10
148.892
20
-162.68
11
148.987
21
-162.585
0
LINE
8
BLACK
6
CONTINUOUS
10
148.987
20
-162.585
11
149.177
21
-162.489
0
LINE
8
BLACK
6
CONTINUOUS
10
149.177
20
-162.489
11
149.558
21
-162.489
0
LINE
8
BLACK
6
CONTINUOUS
10
149.558
20
-162.489
11
149.749
21
-162.585
0
LINE
8
BLACK
6
CONTINUOUS
10
150.511
20
-164.585
11
150.606
21
-164.489
0
LINE
8
BLACK
6
CONTINUOUS
10
150.606
20
-164.489
11
150.796
21
-164.204
0
LINE
8
BLACK
6
CONTINUOUS
10
150.796
20
-164.204
11
150.892
21
-164.013
0
LINE
8
BLACK
6
CONTINUOUS
10
150.892
20
-164.013
11
150.987
21
-163.728
0
LINE
8
BLACK
6
CONTINUOUS
10
150.987
20
-163.728
11
151.082
21
-163.251
0
LINE
8
BLACK
6
CONTINUOUS
10
151.082
20
-163.251
11
151.082
21
-162.87
0
LINE
8
BLACK
6
CONTINUOUS
10
151.082
20
-162.87
11
150.987
21
-162.394
0
LINE
8
BLACK
6
CONTINUOUS
10
150.987
20
-162.394
11
150.892
21
-162.108
0
LINE
8
BLACK
6
CONTINUOUS
10
150.892
20
-162.108
11
150.796
21
-161.918
0
LINE
8
BLACK
6
CONTINUOUS
10
150.796
20
-161.918
11
150.606
21
-161.632
0
LINE
8
BLACK
6
CONTINUOUS
10
150.606
20
-161.632
11
150.511
21
-161.537
0
CIRCLE
8
BLACK
10
81.982
20
-165.558
40
1
0
LINE
8
BLACK
6
CONTINUOUS
10
85.3677
20
-164.463
11
86.6058
21
-164.463
0
LINE
8
BLACK
6
CONTINUOUS
10
86.6058
20
-164.463
11
85.9391
21
-165.225
0
LINE
8
BLACK
6
CONTINUOUS
10
85.9391
20
-165.225
11
86.2249
21
-165.225
0
LINE
8
BLACK
6
CONTINUOUS
10
86.2249
20
-165.225
11
86.4153
21
-165.32
0
LINE
8
BLACK
6
CONTINUOUS
10
86.4153
20
-165.32
11
86.5106
21
-165.415
0
LINE
8
BLACK
6
CONTINUOUS
10
86.5106
20
-165.415
11
86.6058
21
-165.606
0
LINE
8
BLACK
6
CONTINUOUS
10
86.6058
20
-165.606
11
86.6058
21
-166.082
0
LINE
8
BLACK
6
CONTINUOUS
10
86.6058
20
-166.082
11
86.5106
21
-166.272
0
LINE
8
BLACK
6
CONTINUOUS
10
86.5106
20
-166.272
11
86.4153
21
-166.368
0
LINE
8
BLACK
6
CONTINUOUS
10
86.4153
20
-166.368
11
86.2249
21
-166.463
0
LINE
8
BLACK
6
CONTINUOUS
10
86.2249
20
-166.463
11
85.6534
21
-166.463
0
LINE
8
BLACK
6
CONTINUOUS
10
85.6534
20
-166.463
11
85.463
21
-166.368
0
LINE
8
BLACK
6
CONTINUOUS
10
85.463
20
-166.368
11
85.3677
21
-166.272
0
LINE
8
BLACK
6
CONTINUOUS
10
87.463
20
-166.272
11
87.5582
21
-166.368
0
LINE
8
BLACK
6
CONTINUOUS
10
87.5582
20
-166.368
11
87.463
21
-166.463
0
LINE
8
BLACK
6
CONTINUOUS
10
87.463
20
-166.463
11
87.3677
21
-166.368
0
LINE
8
BLACK
6
CONTINUOUS
10
87.3677
20
-166.368
11
87.463
21
-166.272
0
LINE
8
BLACK
6
CONTINUOUS
10
87.463
20
-166.272
11
87.463
21
-166.463
0
LINE
8
BLACK
6
CONTINUOUS
10
88.3201
20
-164.653
11
88.4153
21
-164.558
0
LINE
8
BLACK
6
CONTINUOUS
10
88.4153
20
-164.558
11
88.6058
21
-164.463
0
LINE
8
BLACK
6
CONTINUOUS
10
88.6058
20
-164.463
11
89.082
21
-164.463
0
LINE
8
BLACK
6
CONTINUOUS
10
89.082
20
-164.463
11
89.2725
21
-164.558
0
LINE
8
BLACK
6
CONTINUOUS
10
89.2725
20
-164.558
11
89.3677
21
-164.653
0
LINE
8
BLACK
6
CONTINUOUS
10
89.3677
20
-164.653
11
89.463
21
-164.844
0
LINE
8
BLACK
6
CONTINUOUS
10
89.463
20
-164.844
11
89.463
21
-165.034
0
LINE
8
BLACK
6
CONTINUOUS
10
89.463
20
-165.034
11
89.3677
21
-165.32
0
LINE
8
BLACK
6
CONTINUOUS
10
89.3677
20
-165.32
11
88.2249
21
-166.463
0
LINE
8
BLACK
6
CONTINUOUS
10
88.2249
20
-166.463
11
89.463
21
-166.463
0
LINE
8
BLACK
6
CONTINUOUS
10
90.701
20
-164.463
11
90.8915
21
-164.463
0
LINE
8
BLACK
6
CONTINUOUS
10
90.8915
20
-164.463
11
91.082
21
-164.558
0
LINE
8
BLACK
6
CONTINUOUS
10
91.082
20
-164.558
11
91.1772
21
-164.653
0
LINE
8
BLACK
6
CONTINUOUS
10
91.1772
20
-164.653
11
91.2725
21
-164.844
0
LINE
8
BLACK
6
CONTINUOUS
10
91.2725
20
-164.844
11
91.3677
21
-165.225
0
LINE
8
BLACK
6
CONTINUOUS
10
91.3677
20
-165.225
11
91.3677
21
-165.701
0
LINE
8
BLACK
6
CONTINUOUS
10
91.3677
20
-165.701
11
91.2725
21
-166.082
0
LINE
8
BLACK
6
CONTINUOUS
10
91.2725
20
-166.082
11
91.1772
21
-166.272
0
LINE
8
BLACK
6
CONTINUOUS
10
91.1772
20
-166.272
11
91.082
21
-166.368
0
LINE
8
BLACK
6
CONTINUOUS
10
91.082
20
-166.368
11
90.8915
21
-166.463
0
LINE
8
BLACK
6
CONTINUOUS
10
90.8915
20
-166.463
11
90.701
21
-166.463
0
LINE
8
BLACK
6
CONTINUOUS
10
90.701
20
-166.463
11
90.5106
21
-166.368
0
LINE
8
BLACK
6
CONTINUOUS
10
90.5106
20
-166.368
11
90.4153
21
-166.272
0
LINE
8
BLACK
6
CONTINUOUS
10
90.4153
20
-166.272
11
90.3201
21
-166.082
0
LINE
8
BLACK
6
CONTINUOUS
10
90.3201
20
-166.082
11
90.2249
21
-165.701
0
LINE
8
BLACK
6
CONTINUOUS
10
90.2249
20
-165.701
11
90.2249
21
-165.225
0
LINE
8
BLACK
6
CONTINUOUS
10
90.2249
20
-165.225
11
90.3201
21
-164.844
0
LINE
8
BLACK
6
CONTINUOUS
10
90.3201
20
-164.844
11
90.4153
21
-164.653
0
LINE
8
BLACK
6
CONTINUOUS
10
90.4153
20
-164.653
11
90.5106
21
-164.558
0
LINE
8
BLACK
6
CONTINUOUS
10
90.5106
20
-164.558
11
90.701
21
-164.463
0
LINE
8
BLACK
6
CONTINUOUS
10
92.6058
20
-164.463
11
92.7963
21
-164.463
0
LINE
8
BLACK
6
CONTINUOUS
10
92.7963
20
-164.463
11
92.9868
21
-164.558
0
LINE
8
BLACK
6
CONTINUOUS
10
92.9868
20
-164.558
11
93.082
21
-164.653
0
LINE
8
BLACK
6
CONTINUOUS
10
93.082
20
-164.653
11
93.1772
21
-164.844
0
LINE
8
BLACK
6
CONTINUOUS
10
93.1772
20
-164.844
11
93.2725
21
-165.225
0
LINE
8
BLACK
6
CONTINUOUS
10
93.2725
20
-165.225
11
93.2725
21
-165.701
0
LINE
8
BLACK
6
CONTINUOUS
10
93.2725
20
-165.701
11
93.1772
21
-166.082
0
LINE
8
BLACK
6
CONTINUOUS
10
93.1772
20
-166.082
11
93.082
21
-166.272
0
LINE
8
BLACK
6
CONTINUOUS
10
93.082
20
-166.272
11
92.9868
21
-166.368
0
LINE
8
BLACK
6
CONTINUOUS
10
92.9868
20
-166.368
11
92.7963
21
-166.463
0
LINE
8
BLACK
6
CONTINUOUS
10
92.7963
20
-166.463
11
92.6058
21
-166.463
0
LINE
8
BLACK
6
CONTINUOUS
10
92.6058
20
-166.463
11
92.4153
21
-166.368
0
LINE
8
BLACK
6
CONTINUOUS
10
92.4153
20
-166.368
11
92.3201
21
-166.272
0
LINE
8
BLACK
6
CONTINUOUS
10
92.3201
20
-166.272
11
92.2249
21
-166.082
0
LINE
8
BLACK
6
CONTINUOUS
10
92.2249
20
-166.082
11
92.1296
21
-165.701
0
LINE
8
BLACK
6
CONTINUOUS
10
92.1296
20
-165.701
11
92.1296
21
-165.225
0
LINE
8
BLACK
6
CONTINUOUS
10
92.1296
20
-165.225
11
92.2249
21
-164.844
0
LINE
8
BLACK
6
CONTINUOUS
10
92.2249
20
-164.844
11
92.3201
21
-164.653
0
LINE
8
BLACK
6
CONTINUOUS
10
92.3201
20
-164.653
11
92.4153
21
-164.558
0
LINE
8
BLACK
6
CONTINUOUS
10
92.4153
20
-164.558
11
92.6058
21
-164.463
0
LINE
8
BLACK
6
CONTINUOUS
10
94.1296
20
-166.463
11
94.1296
21
-165.129
0
LINE
8
BLACK
6
CONTINUOUS
10
94.1296
20
-165.32
11
94.2249
21
-165.225
0
LINE
8
BLACK
6
CONTINUOUS
10
94.2249
20
-165.225
11
94.4153
21
-165.129
0
LINE
8
BLACK
6
CONTINUOUS
10
94.4153
20
-165.129
11
94.701
21
-165.129
0
LINE
8
BLACK
6
CONTINUOUS
10
94.701
20
-165.129
11
94.8915
21
-165.225
0
LINE
8
BLACK
6
CONTINUOUS
10
94.8915
20
-165.225
11
94.9868
21
-165.415
0
LINE
8
BLACK
6
CONTINUOUS
10
94.9868
20
-165.415
11
94.9868
21
-166.463
0
LINE
8
BLACK
6
CONTINUOUS
10
94.9868
20
-165.415
11
95.082
21
-165.225
0
LINE
8
BLACK
6
CONTINUOUS
10
95.082
20
-165.225
11
95.2725
21
-165.129
0
LINE
8
BLACK
6
CONTINUOUS
10
95.2725
20
-165.129
11
95.5582
21
-165.129
0
LINE
8
BLACK
6
CONTINUOUS
10
95.5582
20
-165.129
11
95.7487
21
-165.225
0
LINE
8
BLACK
6
CONTINUOUS
10
95.7487
20
-165.225
11
95.8439
21
-165.415
0
LINE
8
BLACK
6
CONTINUOUS
10
95.8439
20
-165.415
11
95.8439
21
-166.463
0
LINE
8
BLACK
6
CONTINUOUS
10
96.7963
20
-166.463
11
96.7963
21
-165.129
0
LINE
8
BLACK
6
CONTINUOUS
10
96.7963
20
-165.32
11
96.8915
21
-165.225
0
LINE
8
BLACK
6
CONTINUOUS
10
96.8915
20
-165.225
11
97.082
21
-165.129
0
LINE
8
BLACK
6
CONTINUOUS
10
97.082
20
-165.129
11
97.3677
21
-165.129
0
LINE
8
BLACK
6
CONTINUOUS
10
97.3677
20
-165.129
11
97.5582
21
-165.225
0
LINE
8
BLACK
6
CONTINUOUS
10
97.5582
20
-165.225
11
97.6534
21
-165.415
0
LINE
8
BLACK
6
CONTINUOUS
10
97.6534
20
-165.415
11
97.6534
21
-166.463
0
LINE
8
BLACK
6
CONTINUOUS
10
97.6534
20
-165.415
11
97.7487
21
-165.225
0
LINE
8
BLACK
6
CONTINUOUS
10
97.7487
20
-165.225
11
97.9391
21
-165.129
0
LINE
8
BLACK
6
CONTINUOUS
10
97.9391
20
-165.129
11
98.2249
21
-165.129
0
LINE
8
BLACK
6
CONTINUOUS
10
98.2249
20
-165.129
11
98.4153
21
-165.225
0
LINE
8
BLACK
6
CONTINUOUS
10
98.4153
20
-165.225
11
98.5106
21
-165.415
0
LINE
8
BLACK
6
CONTINUOUS
10
98.5106
20
-165.415
11
98.5106
21
-166.463
0
LINE
8
BLACK
6
CONTINUOUS
10
102.415
20
-164.368
11
100.701
21
-166.939
0
LINE
8
BLACK
6
CONTINUOUS
10
104.987
20
-164.463
11
105.177
21
-164.463
0
LINE
8
BLACK
6
CONTINUOUS
10
105.177
20
-164.463
11
105.368
21
-164.558
0
LINE
8
BLACK
6
CONTINUOUS
10
105.368
20
-164.558
11
105.463
21
-164.653
0
LINE
8
BLACK
6
CONTINUOUS
10
105.463
20
-164.653
11
105.558
21
-164.844
0
LINE
8
BLACK
6
CONTINUOUS
10
105.558
20
-164.844
11
105.653
21
-165.225
0
LINE
8
BLACK
6
CONTINUOUS
10
105.653
20
-165.225
11
105.653
21
-165.701
0
LINE
8
BLACK
6
CONTINUOUS
10
105.653
20
-165.701
11
105.558
21
-166.082
0
LINE
8
BLACK
6
CONTINUOUS
10
105.558
20
-166.082
11
105.463
21
-166.272
0
LINE
8
BLACK
6
CONTINUOUS
10
105.463
20
-166.272
11
105.368
21
-166.368
0
LINE
8
BLACK
6
CONTINUOUS
10
105.368
20
-166.368
11
105.177
21
-166.463
0
LINE
8
BLACK
6
CONTINUOUS
10
105.177
20
-166.463
11
104.987
21
-166.463
0
LINE
8
BLACK
6
CONTINUOUS
10
104.987
20
-166.463
11
104.796
21
-166.368
0
LINE
8
BLACK
6
CONTINUOUS
10
104.796
20
-166.368
11
104.701
21
-166.272
0
LINE
8
BLACK
6
CONTINUOUS
10
104.701
20
-166.272
11
104.606
21
-166.082
0
LINE
8
BLACK
6
CONTINUOUS
10
104.606
20
-166.082
11
104.511
21
-165.701
0
LINE
8
BLACK
6
CONTINUOUS
10
104.511
20
-165.701
11
104.511
21
-165.225
0
LINE
8
BLACK
6
CONTINUOUS
10
104.511
20
-165.225
11
104.606
21
-164.844
0
LINE
8
BLACK
6
CONTINUOUS
10
104.606
20
-164.844
11
104.701
21
-164.653
0
LINE
8
BLACK
6
CONTINUOUS
10
104.701
20
-164.653
11
104.796
21
-164.558
0
LINE
8
BLACK
6
CONTINUOUS
10
104.796
20
-164.558
11
104.987
21
-164.463
0
LINE
8
BLACK
6
CONTINUOUS
10
106.511
20
-166.272
11
106.606
21
-166.368
0
LINE
8
BLACK
6
CONTINUOUS
10
106.606
20
-166.368
11
106.511
21
-166.463
0
LINE
8
BLACK
6
CONTINUOUS
10
106.511
20
-166.463
11
106.415
21
-166.368
0
LINE
8
BLACK
6
CONTINUOUS
10
106.415
20
-166.368
11
106.511
21
-166.272
0
LINE
8
BLACK
6
CONTINUOUS
10
106.511
20
-166.272
11
106.511
21
-166.463
0
LINE
8
BLACK
6
CONTINUOUS
10
108.511
20
-166.463
11
107.368
21
-166.463
0
LINE
8
BLACK
6
CONTINUOUS
10
107.939
20
-166.463
11
107.939
21
-164.463
0
LINE
8
BLACK
6
CONTINUOUS
10
107.939
20
-164.463
11
107.749
21
-164.748
0
LINE
8
BLACK
6
CONTINUOUS
10
107.749
20
-164.748
11
107.558
21
-164.939
0
LINE
8
BLACK
6
CONTINUOUS
10
107.558
20
-164.939
11
107.368
21
-165.034
0
LINE
8
BLACK
6
CONTINUOUS
10
109.272
20
-164.653
11
109.368
21
-164.558
0
LINE
8
BLACK
6
CONTINUOUS
10
109.368
20
-164.558
11
109.558
21
-164.463
0
LINE
8
BLACK
6
CONTINUOUS
10
109.558
20
-164.463
11
110.034
21
-164.463
0
LINE
8
BLACK
6
CONTINUOUS
10
110.034
20
-164.463
11
110.225
21
-164.558
0
LINE
8
BLACK
6
CONTINUOUS
10
110.225
20
-164.558
11
110.32
21
-164.653
0
LINE
8
BLACK
6
CONTINUOUS
10
110.32
20
-164.653
11
110.415
21
-164.844
0
LINE
8
BLACK
6
CONTINUOUS
10
110.415
20
-164.844
11
110.415
21
-165.034
0
LINE
8
BLACK
6
CONTINUOUS
10
110.415
20
-165.034
11
110.32
21
-165.32
0
LINE
8
BLACK
6
CONTINUOUS
10
110.32
20
-165.32
11
109.177
21
-166.463
0
LINE
8
BLACK
6
CONTINUOUS
10
109.177
20
-166.463
11
110.415
21
-166.463
0
LINE
8
BLACK
6
CONTINUOUS
10
112.13
20
-164.463
11
111.749
21
-164.463
0
LINE
8
BLACK
6
CONTINUOUS
10
111.749
20
-164.463
11
111.558
21
-164.558
0
LINE
8
BLACK
6
CONTINUOUS
10
111.558
20
-164.558
11
111.463
21
-164.653
0
LINE
8
BLACK
6
CONTINUOUS
10
111.463
20
-164.653
11
111.272
21
-164.939
0
LINE
8
BLACK
6
CONTINUOUS
10
111.272
20
-164.939
11
111.177
21
-165.32
0
LINE
8
BLACK
6
CONTINUOUS
10
111.177
20
-165.32
11
111.177
21
-166.082
0
LINE
8
BLACK
6
CONTINUOUS
10
111.177
20
-166.082
11
111.272
21
-166.272
0
LINE
8
BLACK
6
CONTINUOUS
10
111.272
20
-166.272
11
111.368
21
-166.368
0
LINE
8
BLACK
6
CONTINUOUS
10
111.368
20
-166.368
11
111.558
21
-166.463
0
LINE
8
BLACK
6
CONTINUOUS
10
111.558
20
-166.463
11
111.939
21
-166.463
0
LINE
8
BLACK
6
CONTINUOUS
10
111.939
20
-166.463
11
112.13
21
-166.368
0
LINE
8
BLACK
6
CONTINUOUS
10
112.13
20
-166.368
11
112.225
21
-166.272
0
LINE
8
BLACK
6
CONTINUOUS
10
112.225
20
-166.272
11
112.32
21
-166.082
0
LINE
8
BLACK
6
CONTINUOUS
10
112.32
20
-166.082
11
112.32
21
-165.606
0
LINE
8
BLACK
6
CONTINUOUS
10
112.32
20
-165.606
11
112.225
21
-165.415
0
LINE
8
BLACK
6
CONTINUOUS
10
112.225
20
-165.415
11
112.13
21
-165.32
0
LINE
8
BLACK
6
CONTINUOUS
10
112.13
20
-165.32
11
111.939
21
-165.225
0
LINE
8
BLACK
6
CONTINUOUS
10
111.939
20
-165.225
11
111.558
21
-165.225
0
LINE
8
BLACK
6
CONTINUOUS
10
111.558
20
-165.225
11
111.368
21
-165.32
0
LINE
8
BLACK
6
CONTINUOUS
10
111.368
20
-165.32
11
111.272
21
-165.415
0
LINE
8
BLACK
6
CONTINUOUS
10
111.272
20
-165.415
11
111.177
21
-165.606
0
LINE
8
BLACK
6
CONTINUOUS
10
113.558
20
-164.463
11
113.749
21
-164.463
0
LINE
8
BLACK
6
CONTINUOUS
10
113.749
20
-164.463
11
113.939
21
-164.558
0
LINE
8
BLACK
6
CONTINUOUS
10
113.939
20
-164.558
11
114.034
21
-164.653
0
LINE
8
BLACK
6
CONTINUOUS
10
114.034
20
-164.653
11
114.13
21
-164.844
0
LINE
8
BLACK
6
CONTINUOUS
10
114.13
20
-164.844
11
114.225
21
-165.225
0
LINE
8
BLACK
6
CONTINUOUS
10
114.225
20
-165.225
11
114.225
21
-165.701
0
LINE
8
BLACK
6
CONTINUOUS
10
114.225
20
-165.701
11
114.13
21
-166.082
0
LINE
8
BLACK
6
CONTINUOUS
10
114.13
20
-166.082
11
114.034
21
-166.272
0
LINE
8
BLACK
6
CONTINUOUS
10
114.034
20
-166.272
11
113.939
21
-166.368
0
LINE
8
BLACK
6
CONTINUOUS
10
113.939
20
-166.368
11
113.749
21
-166.463
0
LINE
8
BLACK
6
CONTINUOUS
10
113.749
20
-166.463
11
113.558
21
-166.463
0
LINE
8
BLACK
6
CONTINUOUS
10
113.558
20
-166.463
11
113.368
21
-166.368
0
LINE
8
BLACK
6
CONTINUOUS
10
113.368
20
-166.368
11
113.272
21
-166.272
0
LINE
8
BLACK
6
CONTINUOUS
10
113.272
20
-166.272
11
113.177
21
-166.082
0
LINE
8
BLACK
6
CONTINUOUS
10
113.177
20
-166.082
11
113.082
21
-165.701
0
LINE
8
BLACK
6
CONTINUOUS
10
113.082
20
-165.701
11
113.082
21
-165.225
0
LINE
8
BLACK
6
CONTINUOUS
10
113.082
20
-165.225
11
113.177
21
-164.844
0
LINE
8
BLACK
6
CONTINUOUS
10
113.177
20
-164.844
11
113.272
21
-164.653
0
LINE
8
BLACK
6
CONTINUOUS
10
113.272
20
-164.653
11
113.368
21
-164.558
0
LINE
8
BLACK
6
CONTINUOUS
10
113.368
20
-164.558
11
113.558
21
-164.463
0
LINE
8
BLACK
6
CONTINUOUS
10
114.987
20
-164.463
11
114.987
21
-164.844
0
LINE
8
BLACK
6
CONTINUOUS
10
115.749
20
-164.463
11
115.749
21
-164.844
0
LINE
8
BLACK
6
CONTINUOUS
10
118.701
20
-167.225
11
118.606
21
-167.129
0
LINE
8
BLACK
6
CONTINUOUS
10
118.606
20
-167.129
11
118.415
21
-166.844
0
LINE
8
BLACK
6
CONTINUOUS
10
118.415
20
-166.844
11
118.32
21
-166.653
0
LINE
8
BLACK
6
CONTINUOUS
10
118.32
20
-166.653
11
118.225
21
-166.368
0
LINE
8
BLACK
6
CONTINUOUS
10
118.225
20
-166.368
11
118.13
21
-165.891
0
LINE
8
BLACK
6
CONTINUOUS
10
118.13
20
-165.891
11
118.13
21
-165.51
0
LINE
8
BLACK
6
CONTINUOUS
10
118.13
20
-165.51
11
118.225
21
-165.034
0
LINE
8
BLACK
6
CONTINUOUS
10
118.225
20
-165.034
11
118.32
21
-164.748
0
LINE
8
BLACK
6
CONTINUOUS
10
118.32
20
-164.748
11
118.415
21
-164.558
0
LINE
8
BLACK
6
CONTINUOUS
10
118.415
20
-164.558
11
118.606
21
-164.272
0
LINE
8
BLACK
6
CONTINUOUS
10
118.606
20
-164.272
11
118.701
21
-164.177
0
LINE
8
BLACK
6
CONTINUOUS
10
119.368
20
-164.653
11
119.463
21
-164.558
0
LINE
8
BLACK
6
CONTINUOUS
10
119.463
20
-164.558
11
119.653
21
-164.463
0
LINE
8
BLACK
6
CONTINUOUS
10
119.653
20
-164.463
11
120.13
21
-164.463
0
LINE
8
BLACK
6
CONTINUOUS
10
120.13
20
-164.463
11
120.32
21
-164.558
0
LINE
8
BLACK
6
CONTINUOUS
10
120.32
20
-164.558
11
120.415
21
-164.653
0
LINE
8
BLACK
6
CONTINUOUS
10
120.415
20
-164.653
11
120.511
21
-164.844
0
LINE
8
BLACK
6
CONTINUOUS
10
120.511
20
-164.844
11
120.511
21
-165.034
0
LINE
8
BLACK
6
CONTINUOUS
10
120.511
20
-165.034
11
120.415
21
-165.32
0
LINE
8
BLACK
6
CONTINUOUS
10
120.415
20
-165.32
11
119.272
21
-166.463
0
LINE
8
BLACK
6
CONTINUOUS
10
119.272
20
-166.463
11
120.511
21
-166.463
0
LINE
8
BLACK
6
CONTINUOUS
10
122.892
20
-166.463
11
122.892
21
-164.463
0
LINE
8
BLACK
6
CONTINUOUS
10
123.749
20
-166.463
11
123.749
21
-165.415
0
LINE
8
BLACK
6
CONTINUOUS
10
123.749
20
-165.415
11
123.653
21
-165.225
0
LINE
8
BLACK
6
CONTINUOUS
10
123.653
20
-165.225
11
123.463
21
-165.129
0
LINE
8
BLACK
6
CONTINUOUS
10
123.463
20
-165.129
11
123.177
21
-165.129
0
LINE
8
BLACK
6
CONTINUOUS
10
123.177
20
-165.129
11
122.987
21
-165.225
0
LINE
8
BLACK
6
CONTINUOUS
10
122.987
20
-165.225
11
122.892
21
-165.32
0
LINE
8
BLACK
6
CONTINUOUS
10
124.987
20
-166.463
11
124.796
21
-166.368
0
LINE
8
BLACK
6
CONTINUOUS
10
124.796
20
-166.368
11
124.701
21
-166.272
0
LINE
8
BLACK
6
CONTINUOUS
10
124.701
20
-166.272
11
124.606
21
-166.082
0
LINE
8
BLACK
6
CONTINUOUS
10
124.606
20
-166.082
11
124.606
21
-165.51
0
LINE
8
BLACK
6
CONTINUOUS
10
124.606
20
-165.51
11
124.701
21
-165.32
0
LINE
8
BLACK
6
CONTINUOUS
10
124.701
20
-165.32
11
124.796
21
-165.225
0
LINE
8
BLACK
6
CONTINUOUS
10
124.796
20
-165.225
11
124.987
21
-165.129
0
LINE
8
BLACK
6
CONTINUOUS
10
124.987
20
-165.129
11
125.272
21
-165.129
0
LINE
8
BLACK
6
CONTINUOUS
10
125.272
20
-165.129
11
125.463
21
-165.225
0
LINE
8
BLACK
6
CONTINUOUS
10
125.463
20
-165.225
11
125.558
21
-165.32
0
LINE
8
BLACK
6
CONTINUOUS
10
125.558
20
-165.32
11
125.653
21
-165.51
0
LINE
8
BLACK
6
CONTINUOUS
10
125.653
20
-165.51
11
125.653
21
-166.082
0
LINE
8
BLACK
6
CONTINUOUS
10
125.653
20
-166.082
11
125.558
21
-166.272
0
LINE
8
BLACK
6
CONTINUOUS
10
125.558
20
-166.272
11
125.463
21
-166.368
0
LINE
8
BLACK
6
CONTINUOUS
10
125.463
20
-166.368
11
125.272
21
-166.463
0
LINE
8
BLACK
6
CONTINUOUS
10
125.272
20
-166.463
11
124.987
21
-166.463
0
LINE
8
BLACK
6
CONTINUOUS
10
126.796
20
-166.463
11
126.606
21
-166.368
0
LINE
8
BLACK
6
CONTINUOUS
10
126.606
20
-166.368
11
126.511
21
-166.177
0
LINE
8
BLACK
6
CONTINUOUS
10
126.511
20
-166.177
11
126.511
21
-164.463
0
LINE
8
BLACK
6
CONTINUOUS
10
128.32
20
-166.368
11
128.13
21
-166.463
0
LINE
8
BLACK
6
CONTINUOUS
10
128.13
20
-166.463
11
127.749
21
-166.463
0
LINE
8
BLACK
6
CONTINUOUS
10
127.749
20
-166.463
11
127.558
21
-166.368
0
LINE
8
BLACK
6
CONTINUOUS
10
127.558
20
-166.368
11
127.463
21
-166.177
0
LINE
8
BLACK
6
CONTINUOUS
10
127.463
20
-166.177
11
127.463
21
-165.415
0
LINE
8
BLACK
6
CONTINUOUS
10
127.463
20
-165.415
11
127.558
21
-165.225
0
LINE
8
BLACK
6
CONTINUOUS
10
127.558
20
-165.225
11
127.749
21
-165.129
0
LINE
8
BLACK
6
CONTINUOUS
10
127.749
20
-165.129
11
128.13
21
-165.129
0
LINE
8
BLACK
6
CONTINUOUS
10
128.13
20
-165.129
11
128.32
21
-165.225
0
LINE
8
BLACK
6
CONTINUOUS
10
128.32
20
-165.225
11
128.415
21
-165.415
0
LINE
8
BLACK
6
CONTINUOUS
10
128.415
20
-165.415
11
128.415
21
-165.606
0
LINE
8
BLACK
6
CONTINUOUS
10
128.415
20
-165.606
11
127.463
21
-165.796
0
LINE
8
BLACK
6
CONTINUOUS
10
129.177
20
-166.368
11
129.368
21
-166.463
0
LINE
8
BLACK
6
CONTINUOUS
10
129.368
20
-166.463
11
129.749
21
-166.463
0
LINE
8
BLACK
6
CONTINUOUS
10
129.749
20
-166.463
11
129.939
21
-166.368
0
LINE
8
BLACK
6
CONTINUOUS
10
129.939
20
-166.368
11
130.034
21
-166.177
0
LINE
8
BLACK
6
CONTINUOUS
10
130.034
20
-166.177
11
130.034
21
-166.082
0
LINE
8
BLACK
6
CONTINUOUS
10
130.034
20
-166.082
11
129.939
21
-165.891
0
LINE
8
BLACK
6
CONTINUOUS
10
129.939
20
-165.891
11
129.749
21
-165.796
0
LINE
8
BLACK
6
CONTINUOUS
10
129.749
20
-165.796
11
129.463
21
-165.796
0
LINE
8
BLACK
6
CONTINUOUS
10
129.463
20
-165.796
11
129.272
21
-165.701
0
LINE
8
BLACK
6
CONTINUOUS
10
129.272
20
-165.701
11
129.177
21
-165.51
0
LINE
8
BLACK
6
CONTINUOUS
10
129.177
20
-165.51
11
129.177
21
-165.415
0
LINE
8
BLACK
6
CONTINUOUS
10
129.177
20
-165.415
11
129.272
21
-165.225
0
LINE
8
BLACK
6
CONTINUOUS
10
129.272
20
-165.225
11
129.463
21
-165.129
0
LINE
8
BLACK
6
CONTINUOUS
10
129.463
20
-165.129
11
129.749
21
-165.129
0
LINE
8
BLACK
6
CONTINUOUS
10
129.749
20
-165.129
11
129.939
21
-165.225
0
LINE
8
BLACK
6
CONTINUOUS
10
130.701
20
-167.225
11
130.796
21
-167.129
0
LINE
8
BLACK
6
CONTINUOUS
10
130.796
20
-167.129
11
130.987
21
-166.844
0
LINE
8
BLACK
6
CONTINUOUS
10
130.987
20
-166.844
11
131.082
21
-166.653
0
LINE
8
BLACK
6
CONTINUOUS
10
131.082
20
-166.653
11
131.177
21
-166.368
0
LINE
8
BLACK
6
CONTINUOUS
10
131.177
20
-166.368
11
131.272
21
-165.891
0
LINE
8
BLACK
6
CONTINUOUS
10
131.272
20
-165.891
11
131.272
21
-165.51
0
LINE
8
BLACK
6
CONTINUOUS
10
131.272
20
-165.51
11
131.177
21
-165.034
0
LINE
8
BLACK
6
CONTINUOUS
10
131.177
20
-165.034
11
131.082
21
-164.748
0
LINE
8
BLACK
6
CONTINUOUS
10
131.082
20
-164.748
11
130.987
21
-164.558
0
LINE
8
BLACK
6
CONTINUOUS
10
130.987
20
-164.558
11
130.796
21
-164.272
0
LINE
8
BLACK
6
CONTINUOUS
10
130.796
20
-164.272
11
130.701
21
-164.177
0
LINE
8
BLACK
6
CONTINUOUS
10
134.32
20
-167.225
11
134.225
21
-167.129
0
LINE
8
BLACK
6
CONTINUOUS
10
134.225
20
-167.129
11
134.034
21
-166.844
0
LINE
8
BLACK
6
CONTINUOUS
10
134.034
20
-166.844
11
133.939
21
-166.653
0
LINE
8
BLACK
6
CONTINUOUS
10
133.939
20
-166.653
11
133.844
21
-166.368
0
LINE
8
BLACK
6
CONTINUOUS
10
133.844
20
-166.368
11
133.749
21
-165.891
0
LINE
8
BLACK
6
CONTINUOUS
10
133.749
20
-165.891
11
133.749
21
-165.51
0
LINE
8
BLACK
6
CONTINUOUS
10
133.749
20
-165.51
11
133.844
21
-165.034
0
LINE
8
BLACK
6
CONTINUOUS
10
133.844
20
-165.034
11
133.939
21
-164.748
0
LINE
8
BLACK
6
CONTINUOUS
10
133.939
20
-164.748
11
134.034
21
-164.558
0
LINE
8
BLACK
6
CONTINUOUS
10
134.034
20
-164.558
11
134.225
21
-164.272
0
LINE
8
BLACK
6
CONTINUOUS
10
134.225
20
-164.272
11
134.32
21
-164.177
0
LINE
8
BLACK
6
CONTINUOUS
10
135.082
20
-165.129
11
135.082
21
-166.463
0
LINE
8
BLACK
6
CONTINUOUS
10
135.082
20
-165.32
11
135.177
21
-165.225
0
LINE
8
BLACK
6
CONTINUOUS
10
135.177
20
-165.225
11
135.368
21
-165.129
0
LINE
8
BLACK
6
CONTINUOUS
10
135.368
20
-165.129
11
135.653
21
-165.129
0
LINE
8
BLACK
6
CONTINUOUS
10
135.653
20
-165.129
11
135.844
21
-165.225
0
LINE
8
BLACK
6
CONTINUOUS
10
135.844
20
-165.225
11
135.939
21
-165.415
0
LINE
8
BLACK
6
CONTINUOUS
10
135.939
20
-165.415
11
135.939
21
-166.463
0
LINE
8
BLACK
6
CONTINUOUS
10
137.177
20
-166.463
11
136.987
21
-166.368
0
LINE
8
BLACK
6
CONTINUOUS
10
136.987
20
-166.368
11
136.892
21
-166.272
0
LINE
8
BLACK
6
CONTINUOUS
10
136.892
20
-166.272
11
136.796
21
-166.082
0
LINE
8
BLACK
6
CONTINUOUS
10
136.796
20
-166.082
11
136.796
21
-165.51
0
LINE
8
BLACK
6
CONTINUOUS
10
136.796
20
-165.51
11
136.892
21
-165.32
0
LINE
8
BLACK
6
CONTINUOUS
10
136.892
20
-165.32
11
136.987
21
-165.225
0
LINE
8
BLACK
6
CONTINUOUS
10
136.987
20
-165.225
11
137.177
21
-165.129
0
LINE
8
BLACK
6
CONTINUOUS
10
137.177
20
-165.129
11
137.463
21
-165.129
0
LINE
8
BLACK
6
CONTINUOUS
10
137.463
20
-165.129
11
137.653
21
-165.225
0
LINE
8
BLACK
6
CONTINUOUS
10
137.653
20
-165.225
11
137.749
21
-165.32
0
LINE
8
BLACK
6
CONTINUOUS
10
137.749
20
-165.32
11
137.844
21
-165.51
0
LINE
8
BLACK
6
CONTINUOUS
10
137.844
20
-165.51
11
137.844
21
-166.082
0
LINE
8
BLACK
6
CONTINUOUS
10
137.844
20
-166.082
11
137.749
21
-166.272
0
LINE
8
BLACK
6
CONTINUOUS
10
137.749
20
-166.272
11
137.653
21
-166.368
0
LINE
8
BLACK
6
CONTINUOUS
10
137.653
20
-166.368
11
137.463
21
-166.463
0
LINE
8
BLACK
6
CONTINUOUS
10
137.463
20
-166.463
11
137.177
21
-166.463
0
LINE
8
BLACK
6
CONTINUOUS
10
138.415
20
-165.129
11
139.177
21
-165.129
0
LINE
8
BLACK
6
CONTINUOUS
10
138.701
20
-164.463
11
138.701
21
-166.177
0
LINE
8
BLACK
6
CONTINUOUS
10
138.701
20
-166.177
11
138.796
21
-166.368
0
LINE
8
BLACK
6
CONTINUOUS
10
138.796
20
-166.368
11
138.987
21
-166.463
0
LINE
8
BLACK
6
CONTINUOUS
10
138.987
20
-166.463
11
139.177
21
-166.463
0
LINE
8
BLACK
6
CONTINUOUS
10
141.368
20
-165.129
11
141.368
21
-167.129
0
LINE
8
BLACK
6
CONTINUOUS
10
141.368
20
-165.225
11
141.558
21
-165.129
0
LINE
8
BLACK
6
CONTINUOUS
10
141.558
20
-165.129
11
141.939
21
-165.129
0
LINE
8
BLACK
6
CONTINUOUS
10
141.939
20
-165.129
11
142.13
21
-165.225
0
LINE
8
BLACK
6
CONTINUOUS
10
142.13
20
-165.225
11
142.225
21
-165.32
0
LINE
8
BLACK
6
CONTINUOUS
10
142.225
20
-165.32
11
142.32
21
-165.51
0
LINE
8
BLACK
6
CONTINUOUS
10
142.32
20
-165.51
11
142.32
21
-166.082
0
LINE
8
BLACK
6
CONTINUOUS
10
142.32
20
-166.082
11
142.225
21
-166.272
0
LINE
8
BLACK
6
CONTINUOUS
10
142.225
20
-166.272
11
142.13
21
-166.368
0
LINE
8
BLACK
6
CONTINUOUS
10
142.13
20
-166.368
11
141.939
21
-166.463
0
LINE
8
BLACK
6
CONTINUOUS
10
141.939
20
-166.463
11
141.558
21
-166.463
0
LINE
8
BLACK
6
CONTINUOUS
10
141.558
20
-166.463
11
141.368
21
-166.368
0
LINE
8
BLACK
6
CONTINUOUS
10
143.463
20
-166.463
11
143.272
21
-166.368
0
LINE
8
BLACK
6
CONTINUOUS
10
143.272
20
-166.368
11
143.177
21
-166.177
0
LINE
8
BLACK
6
CONTINUOUS
10
143.177
20
-166.177
11
143.177
21
-164.463
0
LINE
8
BLACK
6
CONTINUOUS
10
145.082
20
-166.463
11
145.082
21
-165.415
0
LINE
8
BLACK
6
CONTINUOUS
10
145.082
20
-165.415
11
144.987
21
-165.225
0
LINE
8
BLACK
6
CONTINUOUS
10
144.987
20
-165.225
11
144.796
21
-165.129
0
LINE
8
BLACK
6
CONTINUOUS
10
144.796
20
-165.129
11
144.415
21
-165.129
0
LINE
8
BLACK
6
CONTINUOUS
10
144.415
20
-165.129
11
144.225
21
-165.225
0
LINE
8
BLACK
6
CONTINUOUS
10
145.082
20
-166.368
11
144.892
21
-166.463
0
LINE
8
BLACK
6
CONTINUOUS
10
144.892
20
-166.463
11
144.415
21
-166.463
0
LINE
8
BLACK
6
CONTINUOUS
10
144.415
20
-166.463
11
144.225
21
-166.368
0
LINE
8
BLACK
6
CONTINUOUS
10
144.225
20
-166.368
11
144.13
21
-166.177
0
LINE
8
BLACK
6
CONTINUOUS
10
144.13
20
-166.177
11
144.13
21
-165.987
0
LINE
8
BLACK
6
CONTINUOUS
10
144.13
20
-165.987
11
144.225
21
-165.796
0
LINE
8
BLACK
6
CONTINUOUS
10
144.225
20
-165.796
11
144.415
21
-165.701
0
LINE
8
BLACK
6
CONTINUOUS
10
144.415
20
-165.701
11
144.892
21
-165.701
0
LINE
8
BLACK
6
CONTINUOUS
10
144.892
20
-165.701
11
145.082
21
-165.606
0
LINE
8
BLACK
6
CONTINUOUS
10
145.749
20
-165.129
11
146.511
21
-165.129
0
LINE
8
BLACK
6
CONTINUOUS
10
146.034
20
-164.463
11
146.034
21
-166.177
0
LINE
8
BLACK
6
CONTINUOUS
10
146.034
20
-166.177
11
146.13
21
-166.368
0
LINE
8
BLACK
6
CONTINUOUS
10
146.13
20
-166.368
11
146.32
21
-166.463
0
LINE
8
BLACK
6
CONTINUOUS
10
146.32
20
-166.463
11
146.511
21
-166.463
0
LINE
8
BLACK
6
CONTINUOUS
10
147.939
20
-166.368
11
147.749
21
-166.463
0
LINE
8
BLACK
6
CONTINUOUS
10
147.749
20
-166.463
11
147.368
21
-166.463
0
LINE
8
BLACK
6
CONTINUOUS
10
147.368
20
-166.463
11
147.177
21
-166.368
0
LINE
8
BLACK
6
CONTINUOUS
10
147.177
20
-166.368
11
147.082
21
-166.177
0
LINE
8
BLACK
6
CONTINUOUS
10
147.082
20
-166.177
11
147.082
21
-165.415
0
LINE
8
BLACK
6
CONTINUOUS
10
147.082
20
-165.415
11
147.177
21
-165.225
0
LINE
8
BLACK
6
CONTINUOUS
10
147.177
20
-165.225
11
147.368
21
-165.129
0
LINE
8
BLACK
6
CONTINUOUS
10
147.368
20
-165.129
11
147.749
21
-165.129
0
LINE
8
BLACK
6
CONTINUOUS
10
147.749
20
-165.129
11
147.939
21
-165.225
0
LINE
8
BLACK
6
CONTINUOUS
10
147.939
20
-165.225
11
148.034
21
-165.415
0
LINE
8
BLACK
6
CONTINUOUS
10
148.034
20
-165.415
11
148.034
21
-165.606
0
LINE
8
BLACK
6
CONTINUOUS
10
148.034
20
-165.606
11
147.082
21
-165.796
0
LINE
8
BLACK
6
CONTINUOUS
10
149.749
20
-166.463
11
149.749
21
-164.463
0
LINE
8
BLACK
6
CONTINUOUS
10
149.749
20
-166.368
11
149.558
21
-166.463
0
LINE
8
BLACK
6
CONTINUOUS
10
149.558
20
-166.463
11
149.177
21
-166.463
0
LINE
8
BLACK
6
CONTINUOUS
10
149.177
20
-166.463
11
148.987
21
-166.368
0
LINE
8
BLACK
6
CONTINUOUS
10
148.987
20
-166.368
11
148.892
21
-166.272
0
LINE
8
BLACK
6
CONTINUOUS
10
148.892
20
-166.272
11
148.796
21
-166.082
0
LINE
8
BLACK
6
CONTINUOUS
10
148.796
20
-166.082
11
148.796
21
-165.51
0
LINE
8
BLACK
6
CONTINUOUS
10
148.796
20
-165.51
11
148.892
21
-165.32
0
LINE
8
BLACK
6
CONTINUOUS
10
148.892
20
-165.32
11
148.987
21
-165.225
0
LINE
8
BLACK
6
CONTINUOUS
10
148.987
20
-165.225
11
149.177
21
-165.129
0
LINE
8
BLACK
6
CONTINUOUS
10
149.177
20
-165.129
11
149.558
21
-165.129
0
LINE
8
BLACK
6
CONTINUOUS
10
149.558
20
-165.129
11
149.749
21
-165.225
0
LINE
8
BLACK
6
CONTINUOUS
10
150.511
20
-167.225
11
150.606
21
-167.129
0
LINE
8
BLACK
6
CONTINUOUS
10
150.606
20
-167.129
11
150.796
21
-166.844
0
LINE
8
BLACK
6
CONTINUOUS
10
150.796
20
-166.844
11
150.892
21
-166.653
0
LINE
8
BLACK
6
CONTINUOUS
10
150.892
20
-166.653
11
150.987
21
-166.368
0
LINE
8
BLACK
6
CONTINUOUS
10
150.987
20
-166.368
11
151.082
21
-165.891
0
LINE
8
BLACK
6
CONTINUOUS
10
151.082
20
-165.891
11
151.082
21
-165.51
0
LINE
8
BLACK
6
CONTINUOUS
10
151.082
20
-165.51
11
150.987
21
-165.034
0
LINE
8
BLACK
6
CONTINUOUS
10
150.987
20
-165.034
11
150.892
21
-164.748
0
LINE
8
BLACK
6
CONTINUOUS
10
150.892
20
-164.748
11
150.796
21
-164.558
0
LINE
8
BLACK
6
CONTINUOUS
10
150.796
20
-164.558
11
150.606
21
-164.272
0
LINE
8
BLACK
6
CONTINUOUS
10
150.606
20
-164.272
11
150.511
21
-164.177
  0
ENDSEC
  0
EOF
