G04 #@! TF.GenerationSoftware,KiCad,Pcbnew,7.0.7*
G04 #@! TF.CreationDate,2023-09-22T23:05:29+02:00*
G04 #@! TF.ProjectId,ithowifi_4l,6974686f-7769-4666-995f-346c2e6b6963,rev?*
G04 #@! TF.SameCoordinates,Original*
G04 #@! TF.FileFunction,Legend,Bot*
G04 #@! TF.FilePolarity,Positive*
%FSLAX46Y46*%
G04 Gerber Fmt 4.6, Leading zero omitted, Abs format (unit mm)*
G04 Created by KiCad (PCBNEW 7.0.7) date 2023-09-22 23:05:29*
%MOMM*%
%LPD*%
G01*
G04 APERTURE LIST*
%ADD10C,0.100000*%
%ADD11C,0.200000*%
%ADD12C,0.150000*%
G04 APERTURE END LIST*
D10*
X103202000Y-135417558D02*
X85955400Y-135417558D01*
X85930000Y-118450358D01*
X103202000Y-118450358D01*
X103202000Y-135417558D01*
G36*
X103202000Y-135417558D02*
G01*
X85955400Y-135417558D01*
X85930000Y-118450358D01*
X103202000Y-118450358D01*
X103202000Y-135417558D01*
G37*
D11*
X113073036Y-143012573D02*
X114319036Y-143012573D01*
X113903703Y-142597240D02*
X113903703Y-142122573D01*
X114319036Y-142419240D02*
X113251036Y-142419240D01*
X113251036Y-142419240D02*
X113132370Y-142359907D01*
X113132370Y-142359907D02*
X113073036Y-142241240D01*
X113073036Y-142241240D02*
X113073036Y-142122573D01*
X113073036Y-141707240D02*
X114319036Y-141707240D01*
X113073036Y-141173240D02*
X113725703Y-141173240D01*
X113725703Y-141173240D02*
X113844370Y-141232573D01*
X113844370Y-141232573D02*
X113903703Y-141351240D01*
X113903703Y-141351240D02*
X113903703Y-141529240D01*
X113903703Y-141529240D02*
X113844370Y-141647907D01*
X113844370Y-141647907D02*
X113785036Y-141707240D01*
X113073036Y-140401907D02*
X113132370Y-140520574D01*
X113132370Y-140520574D02*
X113191703Y-140579907D01*
X113191703Y-140579907D02*
X113310370Y-140639240D01*
X113310370Y-140639240D02*
X113666370Y-140639240D01*
X113666370Y-140639240D02*
X113785036Y-140579907D01*
X113785036Y-140579907D02*
X113844370Y-140520574D01*
X113844370Y-140520574D02*
X113903703Y-140401907D01*
X113903703Y-140401907D02*
X113903703Y-140223907D01*
X113903703Y-140223907D02*
X113844370Y-140105240D01*
X113844370Y-140105240D02*
X113785036Y-140045907D01*
X113785036Y-140045907D02*
X113666370Y-139986574D01*
X113666370Y-139986574D02*
X113310370Y-139986574D01*
X113310370Y-139986574D02*
X113191703Y-140045907D01*
X113191703Y-140045907D02*
X113132370Y-140105240D01*
X113132370Y-140105240D02*
X113073036Y-140223907D01*
X113073036Y-140223907D02*
X113073036Y-140401907D01*
X113073036Y-138503241D02*
X114319036Y-138503241D01*
X114319036Y-138503241D02*
X113073036Y-137791241D01*
X113073036Y-137791241D02*
X114319036Y-137791241D01*
X114319036Y-136960575D02*
X114319036Y-136723241D01*
X114319036Y-136723241D02*
X114259703Y-136604575D01*
X114259703Y-136604575D02*
X114141036Y-136485908D01*
X114141036Y-136485908D02*
X113903703Y-136426575D01*
X113903703Y-136426575D02*
X113488370Y-136426575D01*
X113488370Y-136426575D02*
X113251036Y-136485908D01*
X113251036Y-136485908D02*
X113132370Y-136604575D01*
X113132370Y-136604575D02*
X113073036Y-136723241D01*
X113073036Y-136723241D02*
X113073036Y-136960575D01*
X113073036Y-136960575D02*
X113132370Y-137079241D01*
X113132370Y-137079241D02*
X113251036Y-137197908D01*
X113251036Y-137197908D02*
X113488370Y-137257241D01*
X113488370Y-137257241D02*
X113903703Y-137257241D01*
X113903703Y-137257241D02*
X114141036Y-137197908D01*
X114141036Y-137197908D02*
X114259703Y-137079241D01*
X114259703Y-137079241D02*
X114319036Y-136960575D01*
X113073036Y-135892575D02*
X114319036Y-135892575D01*
X114319036Y-135892575D02*
X113073036Y-135180575D01*
X113073036Y-135180575D02*
X114319036Y-135180575D01*
X113547703Y-134587242D02*
X113547703Y-133637909D01*
X113191703Y-132332575D02*
X113132370Y-132391908D01*
X113132370Y-132391908D02*
X113073036Y-132569908D01*
X113073036Y-132569908D02*
X113073036Y-132688575D01*
X113073036Y-132688575D02*
X113132370Y-132866575D01*
X113132370Y-132866575D02*
X113251036Y-132985242D01*
X113251036Y-132985242D02*
X113369703Y-133044575D01*
X113369703Y-133044575D02*
X113607036Y-133103908D01*
X113607036Y-133103908D02*
X113785036Y-133103908D01*
X113785036Y-133103908D02*
X114022370Y-133044575D01*
X114022370Y-133044575D02*
X114141036Y-132985242D01*
X114141036Y-132985242D02*
X114259703Y-132866575D01*
X114259703Y-132866575D02*
X114319036Y-132688575D01*
X114319036Y-132688575D02*
X114319036Y-132569908D01*
X114319036Y-132569908D02*
X114259703Y-132391908D01*
X114259703Y-132391908D02*
X114200370Y-132332575D01*
X114319036Y-131976575D02*
X113073036Y-131561242D01*
X113073036Y-131561242D02*
X114319036Y-131145908D01*
X113725703Y-130730575D02*
X113725703Y-130315242D01*
X113073036Y-130137242D02*
X113073036Y-130730575D01*
X113073036Y-130730575D02*
X114319036Y-130730575D01*
X114319036Y-130730575D02*
X114319036Y-130137242D01*
X114319036Y-128772576D02*
X113073036Y-128475909D01*
X113073036Y-128475909D02*
X113963036Y-128238576D01*
X113963036Y-128238576D02*
X113073036Y-128001242D01*
X113073036Y-128001242D02*
X114319036Y-127704576D01*
X113073036Y-127229909D02*
X113903703Y-127229909D01*
X114319036Y-127229909D02*
X114259703Y-127289242D01*
X114259703Y-127289242D02*
X114200370Y-127229909D01*
X114200370Y-127229909D02*
X114259703Y-127170576D01*
X114259703Y-127170576D02*
X114319036Y-127229909D01*
X114319036Y-127229909D02*
X114200370Y-127229909D01*
X113725703Y-126221243D02*
X113725703Y-126636576D01*
X113073036Y-126636576D02*
X114319036Y-126636576D01*
X114319036Y-126636576D02*
X114319036Y-126043243D01*
X113073036Y-125568576D02*
X113903703Y-125568576D01*
X114319036Y-125568576D02*
X114259703Y-125627909D01*
X114259703Y-125627909D02*
X114200370Y-125568576D01*
X114200370Y-125568576D02*
X114259703Y-125509243D01*
X114259703Y-125509243D02*
X114319036Y-125568576D01*
X114319036Y-125568576D02*
X114200370Y-125568576D01*
X113191703Y-123313910D02*
X113132370Y-123373243D01*
X113132370Y-123373243D02*
X113073036Y-123551243D01*
X113073036Y-123551243D02*
X113073036Y-123669910D01*
X113073036Y-123669910D02*
X113132370Y-123847910D01*
X113132370Y-123847910D02*
X113251036Y-123966577D01*
X113251036Y-123966577D02*
X113369703Y-124025910D01*
X113369703Y-124025910D02*
X113607036Y-124085243D01*
X113607036Y-124085243D02*
X113785036Y-124085243D01*
X113785036Y-124085243D02*
X114022370Y-124025910D01*
X114022370Y-124025910D02*
X114141036Y-123966577D01*
X114141036Y-123966577D02*
X114259703Y-123847910D01*
X114259703Y-123847910D02*
X114319036Y-123669910D01*
X114319036Y-123669910D02*
X114319036Y-123551243D01*
X114319036Y-123551243D02*
X114259703Y-123373243D01*
X114259703Y-123373243D02*
X114200370Y-123313910D01*
X113073036Y-122601910D02*
X113132370Y-122720577D01*
X113132370Y-122720577D02*
X113191703Y-122779910D01*
X113191703Y-122779910D02*
X113310370Y-122839243D01*
X113310370Y-122839243D02*
X113666370Y-122839243D01*
X113666370Y-122839243D02*
X113785036Y-122779910D01*
X113785036Y-122779910D02*
X113844370Y-122720577D01*
X113844370Y-122720577D02*
X113903703Y-122601910D01*
X113903703Y-122601910D02*
X113903703Y-122423910D01*
X113903703Y-122423910D02*
X113844370Y-122305243D01*
X113844370Y-122305243D02*
X113785036Y-122245910D01*
X113785036Y-122245910D02*
X113666370Y-122186577D01*
X113666370Y-122186577D02*
X113310370Y-122186577D01*
X113310370Y-122186577D02*
X113191703Y-122245910D01*
X113191703Y-122245910D02*
X113132370Y-122305243D01*
X113132370Y-122305243D02*
X113073036Y-122423910D01*
X113073036Y-122423910D02*
X113073036Y-122601910D01*
X113903703Y-121652577D02*
X113073036Y-121652577D01*
X113785036Y-121652577D02*
X113844370Y-121593244D01*
X113844370Y-121593244D02*
X113903703Y-121474577D01*
X113903703Y-121474577D02*
X113903703Y-121296577D01*
X113903703Y-121296577D02*
X113844370Y-121177910D01*
X113844370Y-121177910D02*
X113725703Y-121118577D01*
X113725703Y-121118577D02*
X113073036Y-121118577D01*
X113903703Y-120703244D02*
X113903703Y-120228577D01*
X114319036Y-120525244D02*
X113251036Y-120525244D01*
X113251036Y-120525244D02*
X113132370Y-120465911D01*
X113132370Y-120465911D02*
X113073036Y-120347244D01*
X113073036Y-120347244D02*
X113073036Y-120228577D01*
X113073036Y-119813244D02*
X113903703Y-119813244D01*
X113666370Y-119813244D02*
X113785036Y-119753911D01*
X113785036Y-119753911D02*
X113844370Y-119694577D01*
X113844370Y-119694577D02*
X113903703Y-119575911D01*
X113903703Y-119575911D02*
X113903703Y-119457244D01*
X113073036Y-118863911D02*
X113132370Y-118982578D01*
X113132370Y-118982578D02*
X113191703Y-119041911D01*
X113191703Y-119041911D02*
X113310370Y-119101244D01*
X113310370Y-119101244D02*
X113666370Y-119101244D01*
X113666370Y-119101244D02*
X113785036Y-119041911D01*
X113785036Y-119041911D02*
X113844370Y-118982578D01*
X113844370Y-118982578D02*
X113903703Y-118863911D01*
X113903703Y-118863911D02*
X113903703Y-118685911D01*
X113903703Y-118685911D02*
X113844370Y-118567244D01*
X113844370Y-118567244D02*
X113785036Y-118507911D01*
X113785036Y-118507911D02*
X113666370Y-118448578D01*
X113666370Y-118448578D02*
X113310370Y-118448578D01*
X113310370Y-118448578D02*
X113191703Y-118507911D01*
X113191703Y-118507911D02*
X113132370Y-118567244D01*
X113132370Y-118567244D02*
X113073036Y-118685911D01*
X113073036Y-118685911D02*
X113073036Y-118863911D01*
X113073036Y-117736578D02*
X113132370Y-117855245D01*
X113132370Y-117855245D02*
X113251036Y-117914578D01*
X113251036Y-117914578D02*
X114319036Y-117914578D01*
X113073036Y-117083911D02*
X113132370Y-117202578D01*
X113132370Y-117202578D02*
X113251036Y-117261911D01*
X113251036Y-117261911D02*
X114319036Y-117261911D01*
X113132370Y-116134577D02*
X113073036Y-116253244D01*
X113073036Y-116253244D02*
X113073036Y-116490577D01*
X113073036Y-116490577D02*
X113132370Y-116609244D01*
X113132370Y-116609244D02*
X113251036Y-116668577D01*
X113251036Y-116668577D02*
X113725703Y-116668577D01*
X113725703Y-116668577D02*
X113844370Y-116609244D01*
X113844370Y-116609244D02*
X113903703Y-116490577D01*
X113903703Y-116490577D02*
X113903703Y-116253244D01*
X113903703Y-116253244D02*
X113844370Y-116134577D01*
X113844370Y-116134577D02*
X113725703Y-116075244D01*
X113725703Y-116075244D02*
X113607036Y-116075244D01*
X113607036Y-116075244D02*
X113488370Y-116668577D01*
X113073036Y-115541244D02*
X113903703Y-115541244D01*
X113666370Y-115541244D02*
X113785036Y-115481911D01*
X113785036Y-115481911D02*
X113844370Y-115422577D01*
X113844370Y-115422577D02*
X113903703Y-115303911D01*
X113903703Y-115303911D02*
X113903703Y-115185244D01*
X111422976Y-144317907D02*
X111422976Y-143724574D01*
X111066976Y-144436574D02*
X112312976Y-144021241D01*
X112312976Y-144021241D02*
X111066976Y-143605907D01*
X111066976Y-143190574D02*
X111897643Y-143190574D01*
X111660310Y-143190574D02*
X111778976Y-143131241D01*
X111778976Y-143131241D02*
X111838310Y-143071907D01*
X111838310Y-143071907D02*
X111897643Y-142953241D01*
X111897643Y-142953241D02*
X111897643Y-142834574D01*
X111897643Y-142419241D02*
X110829643Y-142419241D01*
X110829643Y-142419241D02*
X110710976Y-142478574D01*
X110710976Y-142478574D02*
X110651643Y-142597241D01*
X110651643Y-142597241D02*
X110651643Y-142656574D01*
X112312976Y-142419241D02*
X112253643Y-142478574D01*
X112253643Y-142478574D02*
X112194310Y-142419241D01*
X112194310Y-142419241D02*
X112253643Y-142359908D01*
X112253643Y-142359908D02*
X112312976Y-142419241D01*
X112312976Y-142419241D02*
X112194310Y-142419241D01*
X111126310Y-141351241D02*
X111066976Y-141469908D01*
X111066976Y-141469908D02*
X111066976Y-141707241D01*
X111066976Y-141707241D02*
X111126310Y-141825908D01*
X111126310Y-141825908D02*
X111244976Y-141885241D01*
X111244976Y-141885241D02*
X111719643Y-141885241D01*
X111719643Y-141885241D02*
X111838310Y-141825908D01*
X111838310Y-141825908D02*
X111897643Y-141707241D01*
X111897643Y-141707241D02*
X111897643Y-141469908D01*
X111897643Y-141469908D02*
X111838310Y-141351241D01*
X111838310Y-141351241D02*
X111719643Y-141291908D01*
X111719643Y-141291908D02*
X111600976Y-141291908D01*
X111600976Y-141291908D02*
X111482310Y-141885241D01*
X111897643Y-140757908D02*
X111066976Y-140757908D01*
X111778976Y-140757908D02*
X111838310Y-140698575D01*
X111838310Y-140698575D02*
X111897643Y-140579908D01*
X111897643Y-140579908D02*
X111897643Y-140401908D01*
X111897643Y-140401908D02*
X111838310Y-140283241D01*
X111838310Y-140283241D02*
X111719643Y-140223908D01*
X111719643Y-140223908D02*
X111066976Y-140223908D01*
X111066976Y-138681242D02*
X112312976Y-138681242D01*
X111719643Y-138681242D02*
X111719643Y-137969242D01*
X111066976Y-137969242D02*
X112312976Y-137969242D01*
X111066976Y-137375909D02*
X111897643Y-137375909D01*
X112312976Y-137375909D02*
X112253643Y-137435242D01*
X112253643Y-137435242D02*
X112194310Y-137375909D01*
X112194310Y-137375909D02*
X112253643Y-137316576D01*
X112253643Y-137316576D02*
X112312976Y-137375909D01*
X112312976Y-137375909D02*
X112194310Y-137375909D01*
X111126310Y-136307909D02*
X111066976Y-136426576D01*
X111066976Y-136426576D02*
X111066976Y-136663909D01*
X111066976Y-136663909D02*
X111126310Y-136782576D01*
X111126310Y-136782576D02*
X111244976Y-136841909D01*
X111244976Y-136841909D02*
X111719643Y-136841909D01*
X111719643Y-136841909D02*
X111838310Y-136782576D01*
X111838310Y-136782576D02*
X111897643Y-136663909D01*
X111897643Y-136663909D02*
X111897643Y-136426576D01*
X111897643Y-136426576D02*
X111838310Y-136307909D01*
X111838310Y-136307909D02*
X111719643Y-136248576D01*
X111719643Y-136248576D02*
X111600976Y-136248576D01*
X111600976Y-136248576D02*
X111482310Y-136841909D01*
X111066976Y-135714576D02*
X111897643Y-135714576D01*
X111778976Y-135714576D02*
X111838310Y-135655243D01*
X111838310Y-135655243D02*
X111897643Y-135536576D01*
X111897643Y-135536576D02*
X111897643Y-135358576D01*
X111897643Y-135358576D02*
X111838310Y-135239909D01*
X111838310Y-135239909D02*
X111719643Y-135180576D01*
X111719643Y-135180576D02*
X111066976Y-135180576D01*
X111719643Y-135180576D02*
X111838310Y-135121243D01*
X111838310Y-135121243D02*
X111897643Y-135002576D01*
X111897643Y-135002576D02*
X111897643Y-134824576D01*
X111897643Y-134824576D02*
X111838310Y-134705909D01*
X111838310Y-134705909D02*
X111719643Y-134646576D01*
X111719643Y-134646576D02*
X111066976Y-134646576D01*
X111126310Y-134112576D02*
X111066976Y-133993910D01*
X111066976Y-133993910D02*
X111066976Y-133756576D01*
X111066976Y-133756576D02*
X111126310Y-133637910D01*
X111126310Y-133637910D02*
X111244976Y-133578576D01*
X111244976Y-133578576D02*
X111304310Y-133578576D01*
X111304310Y-133578576D02*
X111422976Y-133637910D01*
X111422976Y-133637910D02*
X111482310Y-133756576D01*
X111482310Y-133756576D02*
X111482310Y-133934576D01*
X111482310Y-133934576D02*
X111541643Y-134053243D01*
X111541643Y-134053243D02*
X111660310Y-134112576D01*
X111660310Y-134112576D02*
X111719643Y-134112576D01*
X111719643Y-134112576D02*
X111838310Y-134053243D01*
X111838310Y-134053243D02*
X111897643Y-133934576D01*
X111897643Y-133934576D02*
X111897643Y-133756576D01*
X111897643Y-133756576D02*
X111838310Y-133637910D01*
X111897643Y-133222576D02*
X111897643Y-132747909D01*
X112312976Y-133044576D02*
X111244976Y-133044576D01*
X111244976Y-133044576D02*
X111126310Y-132985243D01*
X111126310Y-132985243D02*
X111066976Y-132866576D01*
X111066976Y-132866576D02*
X111066976Y-132747909D01*
X111066976Y-132332576D02*
X111897643Y-132332576D01*
X111660310Y-132332576D02*
X111778976Y-132273243D01*
X111778976Y-132273243D02*
X111838310Y-132213909D01*
X111838310Y-132213909D02*
X111897643Y-132095243D01*
X111897643Y-132095243D02*
X111897643Y-131976576D01*
X111066976Y-131027243D02*
X111719643Y-131027243D01*
X111719643Y-131027243D02*
X111838310Y-131086576D01*
X111838310Y-131086576D02*
X111897643Y-131205243D01*
X111897643Y-131205243D02*
X111897643Y-131442576D01*
X111897643Y-131442576D02*
X111838310Y-131561243D01*
X111126310Y-131027243D02*
X111066976Y-131145910D01*
X111066976Y-131145910D02*
X111066976Y-131442576D01*
X111066976Y-131442576D02*
X111126310Y-131561243D01*
X111126310Y-131561243D02*
X111244976Y-131620576D01*
X111244976Y-131620576D02*
X111363643Y-131620576D01*
X111363643Y-131620576D02*
X111482310Y-131561243D01*
X111482310Y-131561243D02*
X111541643Y-131442576D01*
X111541643Y-131442576D02*
X111541643Y-131145910D01*
X111541643Y-131145910D02*
X111600976Y-131027243D01*
X111541643Y-129484577D02*
X111541643Y-128535244D01*
X112253643Y-126339910D02*
X112312976Y-126458577D01*
X112312976Y-126458577D02*
X112312976Y-126636577D01*
X112312976Y-126636577D02*
X112253643Y-126814577D01*
X112253643Y-126814577D02*
X112134976Y-126933244D01*
X112134976Y-126933244D02*
X112016310Y-126992577D01*
X112016310Y-126992577D02*
X111778976Y-127051910D01*
X111778976Y-127051910D02*
X111600976Y-127051910D01*
X111600976Y-127051910D02*
X111363643Y-126992577D01*
X111363643Y-126992577D02*
X111244976Y-126933244D01*
X111244976Y-126933244D02*
X111126310Y-126814577D01*
X111126310Y-126814577D02*
X111066976Y-126636577D01*
X111066976Y-126636577D02*
X111066976Y-126517910D01*
X111066976Y-126517910D02*
X111126310Y-126339910D01*
X111126310Y-126339910D02*
X111185643Y-126280577D01*
X111185643Y-126280577D02*
X111600976Y-126280577D01*
X111600976Y-126280577D02*
X111600976Y-126517910D01*
X111066976Y-125746577D02*
X112312976Y-125746577D01*
X112312976Y-125746577D02*
X111066976Y-125034577D01*
X111066976Y-125034577D02*
X112312976Y-125034577D01*
X112312976Y-124441244D02*
X111304310Y-124441244D01*
X111304310Y-124441244D02*
X111185643Y-124381911D01*
X111185643Y-124381911D02*
X111126310Y-124322577D01*
X111126310Y-124322577D02*
X111066976Y-124203911D01*
X111066976Y-124203911D02*
X111066976Y-123966577D01*
X111066976Y-123966577D02*
X111126310Y-123847911D01*
X111126310Y-123847911D02*
X111185643Y-123788577D01*
X111185643Y-123788577D02*
X111304310Y-123729244D01*
X111304310Y-123729244D02*
X112312976Y-123729244D01*
X112253643Y-121533911D02*
X112312976Y-121652578D01*
X112312976Y-121652578D02*
X112312976Y-121830578D01*
X112312976Y-121830578D02*
X112253643Y-122008578D01*
X112253643Y-122008578D02*
X112134976Y-122127245D01*
X112134976Y-122127245D02*
X112016310Y-122186578D01*
X112016310Y-122186578D02*
X111778976Y-122245911D01*
X111778976Y-122245911D02*
X111600976Y-122245911D01*
X111600976Y-122245911D02*
X111363643Y-122186578D01*
X111363643Y-122186578D02*
X111244976Y-122127245D01*
X111244976Y-122127245D02*
X111126310Y-122008578D01*
X111126310Y-122008578D02*
X111066976Y-121830578D01*
X111066976Y-121830578D02*
X111066976Y-121711911D01*
X111066976Y-121711911D02*
X111126310Y-121533911D01*
X111126310Y-121533911D02*
X111185643Y-121474578D01*
X111185643Y-121474578D02*
X111600976Y-121474578D01*
X111600976Y-121474578D02*
X111600976Y-121711911D01*
X111066976Y-120940578D02*
X112312976Y-120940578D01*
X112312976Y-120940578D02*
X112312976Y-120465911D01*
X112312976Y-120465911D02*
X112253643Y-120347245D01*
X112253643Y-120347245D02*
X112194310Y-120287911D01*
X112194310Y-120287911D02*
X112075643Y-120228578D01*
X112075643Y-120228578D02*
X111897643Y-120228578D01*
X111897643Y-120228578D02*
X111778976Y-120287911D01*
X111778976Y-120287911D02*
X111719643Y-120347245D01*
X111719643Y-120347245D02*
X111660310Y-120465911D01*
X111660310Y-120465911D02*
X111660310Y-120940578D01*
X111066976Y-119101245D02*
X111066976Y-119694578D01*
X111066976Y-119694578D02*
X112312976Y-119694578D01*
X112312976Y-117855245D02*
X112312976Y-117083911D01*
X112312976Y-117083911D02*
X111838310Y-117499245D01*
X111838310Y-117499245D02*
X111838310Y-117321245D01*
X111838310Y-117321245D02*
X111778976Y-117202578D01*
X111778976Y-117202578D02*
X111719643Y-117143245D01*
X111719643Y-117143245D02*
X111600976Y-117083911D01*
X111600976Y-117083911D02*
X111304310Y-117083911D01*
X111304310Y-117083911D02*
X111185643Y-117143245D01*
X111185643Y-117143245D02*
X111126310Y-117202578D01*
X111126310Y-117202578D02*
X111066976Y-117321245D01*
X111066976Y-117321245D02*
X111066976Y-117677245D01*
X111066976Y-117677245D02*
X111126310Y-117795911D01*
X111126310Y-117795911D02*
X111185643Y-117855245D01*
X111185643Y-116549911D02*
X111126310Y-116490578D01*
X111126310Y-116490578D02*
X111066976Y-116549911D01*
X111066976Y-116549911D02*
X111126310Y-116609244D01*
X111126310Y-116609244D02*
X111185643Y-116549911D01*
X111185643Y-116549911D02*
X111066976Y-116549911D01*
X112312976Y-115719245D02*
X112312976Y-115600578D01*
X112312976Y-115600578D02*
X112253643Y-115481911D01*
X112253643Y-115481911D02*
X112194310Y-115422578D01*
X112194310Y-115422578D02*
X112075643Y-115363245D01*
X112075643Y-115363245D02*
X111838310Y-115303911D01*
X111838310Y-115303911D02*
X111541643Y-115303911D01*
X111541643Y-115303911D02*
X111304310Y-115363245D01*
X111304310Y-115363245D02*
X111185643Y-115422578D01*
X111185643Y-115422578D02*
X111126310Y-115481911D01*
X111126310Y-115481911D02*
X111066976Y-115600578D01*
X111066976Y-115600578D02*
X111066976Y-115719245D01*
X111066976Y-115719245D02*
X111126310Y-115837911D01*
X111126310Y-115837911D02*
X111185643Y-115897245D01*
X111185643Y-115897245D02*
X111304310Y-115956578D01*
X111304310Y-115956578D02*
X111541643Y-116015911D01*
X111541643Y-116015911D02*
X111838310Y-116015911D01*
X111838310Y-116015911D02*
X112075643Y-115956578D01*
X112075643Y-115956578D02*
X112194310Y-115897245D01*
X112194310Y-115897245D02*
X112253643Y-115837911D01*
X112253643Y-115837911D02*
X112312976Y-115719245D01*
X109060916Y-155057235D02*
X110306916Y-155057235D01*
X109060916Y-154523235D02*
X109713583Y-154523235D01*
X109713583Y-154523235D02*
X109832250Y-154582568D01*
X109832250Y-154582568D02*
X109891583Y-154701235D01*
X109891583Y-154701235D02*
X109891583Y-154879235D01*
X109891583Y-154879235D02*
X109832250Y-154997902D01*
X109832250Y-154997902D02*
X109772916Y-155057235D01*
X109891583Y-154107902D02*
X109891583Y-153633235D01*
X110306916Y-153929902D02*
X109238916Y-153929902D01*
X109238916Y-153929902D02*
X109120250Y-153870569D01*
X109120250Y-153870569D02*
X109060916Y-153751902D01*
X109060916Y-153751902D02*
X109060916Y-153633235D01*
X109891583Y-153395902D02*
X109891583Y-152921235D01*
X110306916Y-153217902D02*
X109238916Y-153217902D01*
X109238916Y-153217902D02*
X109120250Y-153158569D01*
X109120250Y-153158569D02*
X109060916Y-153039902D01*
X109060916Y-153039902D02*
X109060916Y-152921235D01*
X109891583Y-152505902D02*
X108645583Y-152505902D01*
X109832250Y-152505902D02*
X109891583Y-152387235D01*
X109891583Y-152387235D02*
X109891583Y-152149902D01*
X109891583Y-152149902D02*
X109832250Y-152031235D01*
X109832250Y-152031235D02*
X109772916Y-151971902D01*
X109772916Y-151971902D02*
X109654250Y-151912569D01*
X109654250Y-151912569D02*
X109298250Y-151912569D01*
X109298250Y-151912569D02*
X109179583Y-151971902D01*
X109179583Y-151971902D02*
X109120250Y-152031235D01*
X109120250Y-152031235D02*
X109060916Y-152149902D01*
X109060916Y-152149902D02*
X109060916Y-152387235D01*
X109060916Y-152387235D02*
X109120250Y-152505902D01*
X109120250Y-151437902D02*
X109060916Y-151319236D01*
X109060916Y-151319236D02*
X109060916Y-151081902D01*
X109060916Y-151081902D02*
X109120250Y-150963236D01*
X109120250Y-150963236D02*
X109238916Y-150903902D01*
X109238916Y-150903902D02*
X109298250Y-150903902D01*
X109298250Y-150903902D02*
X109416916Y-150963236D01*
X109416916Y-150963236D02*
X109476250Y-151081902D01*
X109476250Y-151081902D02*
X109476250Y-151259902D01*
X109476250Y-151259902D02*
X109535583Y-151378569D01*
X109535583Y-151378569D02*
X109654250Y-151437902D01*
X109654250Y-151437902D02*
X109713583Y-151437902D01*
X109713583Y-151437902D02*
X109832250Y-151378569D01*
X109832250Y-151378569D02*
X109891583Y-151259902D01*
X109891583Y-151259902D02*
X109891583Y-151081902D01*
X109891583Y-151081902D02*
X109832250Y-150963236D01*
X109179583Y-150369902D02*
X109120250Y-150310569D01*
X109120250Y-150310569D02*
X109060916Y-150369902D01*
X109060916Y-150369902D02*
X109120250Y-150429235D01*
X109120250Y-150429235D02*
X109179583Y-150369902D01*
X109179583Y-150369902D02*
X109060916Y-150369902D01*
X109832250Y-150369902D02*
X109772916Y-150310569D01*
X109772916Y-150310569D02*
X109713583Y-150369902D01*
X109713583Y-150369902D02*
X109772916Y-150429235D01*
X109772916Y-150429235D02*
X109832250Y-150369902D01*
X109832250Y-150369902D02*
X109713583Y-150369902D01*
X110366250Y-148886569D02*
X108764250Y-149954569D01*
X110366250Y-147581236D02*
X108764250Y-148649236D01*
X109891583Y-146631903D02*
X108882916Y-146631903D01*
X108882916Y-146631903D02*
X108764250Y-146691236D01*
X108764250Y-146691236D02*
X108704916Y-146750570D01*
X108704916Y-146750570D02*
X108645583Y-146869236D01*
X108645583Y-146869236D02*
X108645583Y-147047236D01*
X108645583Y-147047236D02*
X108704916Y-147165903D01*
X109120250Y-146631903D02*
X109060916Y-146750570D01*
X109060916Y-146750570D02*
X109060916Y-146987903D01*
X109060916Y-146987903D02*
X109120250Y-147106570D01*
X109120250Y-147106570D02*
X109179583Y-147165903D01*
X109179583Y-147165903D02*
X109298250Y-147225236D01*
X109298250Y-147225236D02*
X109654250Y-147225236D01*
X109654250Y-147225236D02*
X109772916Y-147165903D01*
X109772916Y-147165903D02*
X109832250Y-147106570D01*
X109832250Y-147106570D02*
X109891583Y-146987903D01*
X109891583Y-146987903D02*
X109891583Y-146750570D01*
X109891583Y-146750570D02*
X109832250Y-146631903D01*
X109060916Y-146038570D02*
X109891583Y-146038570D01*
X110306916Y-146038570D02*
X110247583Y-146097903D01*
X110247583Y-146097903D02*
X110188250Y-146038570D01*
X110188250Y-146038570D02*
X110247583Y-145979237D01*
X110247583Y-145979237D02*
X110306916Y-146038570D01*
X110306916Y-146038570D02*
X110188250Y-146038570D01*
X109891583Y-145623237D02*
X109891583Y-145148570D01*
X110306916Y-145445237D02*
X109238916Y-145445237D01*
X109238916Y-145445237D02*
X109120250Y-145385904D01*
X109120250Y-145385904D02*
X109060916Y-145267237D01*
X109060916Y-145267237D02*
X109060916Y-145148570D01*
X109060916Y-144733237D02*
X110306916Y-144733237D01*
X109060916Y-144199237D02*
X109713583Y-144199237D01*
X109713583Y-144199237D02*
X109832250Y-144258570D01*
X109832250Y-144258570D02*
X109891583Y-144377237D01*
X109891583Y-144377237D02*
X109891583Y-144555237D01*
X109891583Y-144555237D02*
X109832250Y-144673904D01*
X109832250Y-144673904D02*
X109772916Y-144733237D01*
X109891583Y-143071904D02*
X109060916Y-143071904D01*
X109891583Y-143605904D02*
X109238916Y-143605904D01*
X109238916Y-143605904D02*
X109120250Y-143546571D01*
X109120250Y-143546571D02*
X109060916Y-143427904D01*
X109060916Y-143427904D02*
X109060916Y-143249904D01*
X109060916Y-143249904D02*
X109120250Y-143131237D01*
X109120250Y-143131237D02*
X109179583Y-143071904D01*
X109060916Y-142478571D02*
X110306916Y-142478571D01*
X109832250Y-142478571D02*
X109891583Y-142359904D01*
X109891583Y-142359904D02*
X109891583Y-142122571D01*
X109891583Y-142122571D02*
X109832250Y-142003904D01*
X109832250Y-142003904D02*
X109772916Y-141944571D01*
X109772916Y-141944571D02*
X109654250Y-141885238D01*
X109654250Y-141885238D02*
X109298250Y-141885238D01*
X109298250Y-141885238D02*
X109179583Y-141944571D01*
X109179583Y-141944571D02*
X109120250Y-142003904D01*
X109120250Y-142003904D02*
X109060916Y-142122571D01*
X109060916Y-142122571D02*
X109060916Y-142359904D01*
X109060916Y-142359904D02*
X109120250Y-142478571D01*
X109179583Y-141351238D02*
X109120250Y-141291905D01*
X109120250Y-141291905D02*
X109060916Y-141351238D01*
X109060916Y-141351238D02*
X109120250Y-141410571D01*
X109120250Y-141410571D02*
X109179583Y-141351238D01*
X109179583Y-141351238D02*
X109060916Y-141351238D01*
X109120250Y-140223905D02*
X109060916Y-140342572D01*
X109060916Y-140342572D02*
X109060916Y-140579905D01*
X109060916Y-140579905D02*
X109120250Y-140698572D01*
X109120250Y-140698572D02*
X109179583Y-140757905D01*
X109179583Y-140757905D02*
X109298250Y-140817238D01*
X109298250Y-140817238D02*
X109654250Y-140817238D01*
X109654250Y-140817238D02*
X109772916Y-140757905D01*
X109772916Y-140757905D02*
X109832250Y-140698572D01*
X109832250Y-140698572D02*
X109891583Y-140579905D01*
X109891583Y-140579905D02*
X109891583Y-140342572D01*
X109891583Y-140342572D02*
X109832250Y-140223905D01*
X109060916Y-139511905D02*
X109120250Y-139630572D01*
X109120250Y-139630572D02*
X109179583Y-139689905D01*
X109179583Y-139689905D02*
X109298250Y-139749238D01*
X109298250Y-139749238D02*
X109654250Y-139749238D01*
X109654250Y-139749238D02*
X109772916Y-139689905D01*
X109772916Y-139689905D02*
X109832250Y-139630572D01*
X109832250Y-139630572D02*
X109891583Y-139511905D01*
X109891583Y-139511905D02*
X109891583Y-139333905D01*
X109891583Y-139333905D02*
X109832250Y-139215238D01*
X109832250Y-139215238D02*
X109772916Y-139155905D01*
X109772916Y-139155905D02*
X109654250Y-139096572D01*
X109654250Y-139096572D02*
X109298250Y-139096572D01*
X109298250Y-139096572D02*
X109179583Y-139155905D01*
X109179583Y-139155905D02*
X109120250Y-139215238D01*
X109120250Y-139215238D02*
X109060916Y-139333905D01*
X109060916Y-139333905D02*
X109060916Y-139511905D01*
X109060916Y-138562572D02*
X109891583Y-138562572D01*
X109772916Y-138562572D02*
X109832250Y-138503239D01*
X109832250Y-138503239D02*
X109891583Y-138384572D01*
X109891583Y-138384572D02*
X109891583Y-138206572D01*
X109891583Y-138206572D02*
X109832250Y-138087905D01*
X109832250Y-138087905D02*
X109713583Y-138028572D01*
X109713583Y-138028572D02*
X109060916Y-138028572D01*
X109713583Y-138028572D02*
X109832250Y-137969239D01*
X109832250Y-137969239D02*
X109891583Y-137850572D01*
X109891583Y-137850572D02*
X109891583Y-137672572D01*
X109891583Y-137672572D02*
X109832250Y-137553905D01*
X109832250Y-137553905D02*
X109713583Y-137494572D01*
X109713583Y-137494572D02*
X109060916Y-137494572D01*
X110366250Y-136011239D02*
X108764250Y-137079239D01*
X109060916Y-135061906D02*
X109713583Y-135061906D01*
X109713583Y-135061906D02*
X109832250Y-135121239D01*
X109832250Y-135121239D02*
X109891583Y-135239906D01*
X109891583Y-135239906D02*
X109891583Y-135477239D01*
X109891583Y-135477239D02*
X109832250Y-135595906D01*
X109120250Y-135061906D02*
X109060916Y-135180573D01*
X109060916Y-135180573D02*
X109060916Y-135477239D01*
X109060916Y-135477239D02*
X109120250Y-135595906D01*
X109120250Y-135595906D02*
X109238916Y-135655239D01*
X109238916Y-135655239D02*
X109357583Y-135655239D01*
X109357583Y-135655239D02*
X109476250Y-135595906D01*
X109476250Y-135595906D02*
X109535583Y-135477239D01*
X109535583Y-135477239D02*
X109535583Y-135180573D01*
X109535583Y-135180573D02*
X109594916Y-135061906D01*
X109060916Y-134468573D02*
X109891583Y-134468573D01*
X109654250Y-134468573D02*
X109772916Y-134409240D01*
X109772916Y-134409240D02*
X109832250Y-134349906D01*
X109832250Y-134349906D02*
X109891583Y-134231240D01*
X109891583Y-134231240D02*
X109891583Y-134112573D01*
X109891583Y-133697240D02*
X108823583Y-133697240D01*
X108823583Y-133697240D02*
X108704916Y-133756573D01*
X108704916Y-133756573D02*
X108645583Y-133875240D01*
X108645583Y-133875240D02*
X108645583Y-133934573D01*
X110306916Y-133697240D02*
X110247583Y-133756573D01*
X110247583Y-133756573D02*
X110188250Y-133697240D01*
X110188250Y-133697240D02*
X110247583Y-133637907D01*
X110247583Y-133637907D02*
X110306916Y-133697240D01*
X110306916Y-133697240D02*
X110188250Y-133697240D01*
X109120250Y-132629240D02*
X109060916Y-132747907D01*
X109060916Y-132747907D02*
X109060916Y-132985240D01*
X109060916Y-132985240D02*
X109120250Y-133103907D01*
X109120250Y-133103907D02*
X109238916Y-133163240D01*
X109238916Y-133163240D02*
X109713583Y-133163240D01*
X109713583Y-133163240D02*
X109832250Y-133103907D01*
X109832250Y-133103907D02*
X109891583Y-132985240D01*
X109891583Y-132985240D02*
X109891583Y-132747907D01*
X109891583Y-132747907D02*
X109832250Y-132629240D01*
X109832250Y-132629240D02*
X109713583Y-132569907D01*
X109713583Y-132569907D02*
X109594916Y-132569907D01*
X109594916Y-132569907D02*
X109476250Y-133163240D01*
X109891583Y-132035907D02*
X109060916Y-132035907D01*
X109772916Y-132035907D02*
X109832250Y-131976574D01*
X109832250Y-131976574D02*
X109891583Y-131857907D01*
X109891583Y-131857907D02*
X109891583Y-131679907D01*
X109891583Y-131679907D02*
X109832250Y-131561240D01*
X109832250Y-131561240D02*
X109713583Y-131501907D01*
X109713583Y-131501907D02*
X109060916Y-131501907D01*
X109060916Y-130908574D02*
X110306916Y-130908574D01*
X109060916Y-130374574D02*
X109713583Y-130374574D01*
X109713583Y-130374574D02*
X109832250Y-130433907D01*
X109832250Y-130433907D02*
X109891583Y-130552574D01*
X109891583Y-130552574D02*
X109891583Y-130730574D01*
X109891583Y-130730574D02*
X109832250Y-130849241D01*
X109832250Y-130849241D02*
X109772916Y-130908574D01*
X109060916Y-129781241D02*
X109891583Y-129781241D01*
X110306916Y-129781241D02*
X110247583Y-129840574D01*
X110247583Y-129840574D02*
X110188250Y-129781241D01*
X110188250Y-129781241D02*
X110247583Y-129721908D01*
X110247583Y-129721908D02*
X110306916Y-129781241D01*
X110306916Y-129781241D02*
X110188250Y-129781241D01*
X109120250Y-128713241D02*
X109060916Y-128831908D01*
X109060916Y-128831908D02*
X109060916Y-129069241D01*
X109060916Y-129069241D02*
X109120250Y-129187908D01*
X109120250Y-129187908D02*
X109238916Y-129247241D01*
X109238916Y-129247241D02*
X109713583Y-129247241D01*
X109713583Y-129247241D02*
X109832250Y-129187908D01*
X109832250Y-129187908D02*
X109891583Y-129069241D01*
X109891583Y-129069241D02*
X109891583Y-128831908D01*
X109891583Y-128831908D02*
X109832250Y-128713241D01*
X109832250Y-128713241D02*
X109713583Y-128653908D01*
X109713583Y-128653908D02*
X109594916Y-128653908D01*
X109594916Y-128653908D02*
X109476250Y-129247241D01*
X109060916Y-128119908D02*
X109891583Y-128119908D01*
X109772916Y-128119908D02*
X109832250Y-128060575D01*
X109832250Y-128060575D02*
X109891583Y-127941908D01*
X109891583Y-127941908D02*
X109891583Y-127763908D01*
X109891583Y-127763908D02*
X109832250Y-127645241D01*
X109832250Y-127645241D02*
X109713583Y-127585908D01*
X109713583Y-127585908D02*
X109060916Y-127585908D01*
X109713583Y-127585908D02*
X109832250Y-127526575D01*
X109832250Y-127526575D02*
X109891583Y-127407908D01*
X109891583Y-127407908D02*
X109891583Y-127229908D01*
X109891583Y-127229908D02*
X109832250Y-127111241D01*
X109832250Y-127111241D02*
X109713583Y-127051908D01*
X109713583Y-127051908D02*
X109060916Y-127051908D01*
X109120250Y-126517908D02*
X109060916Y-126399242D01*
X109060916Y-126399242D02*
X109060916Y-126161908D01*
X109060916Y-126161908D02*
X109120250Y-126043242D01*
X109120250Y-126043242D02*
X109238916Y-125983908D01*
X109238916Y-125983908D02*
X109298250Y-125983908D01*
X109298250Y-125983908D02*
X109416916Y-126043242D01*
X109416916Y-126043242D02*
X109476250Y-126161908D01*
X109476250Y-126161908D02*
X109476250Y-126339908D01*
X109476250Y-126339908D02*
X109535583Y-126458575D01*
X109535583Y-126458575D02*
X109654250Y-126517908D01*
X109654250Y-126517908D02*
X109713583Y-126517908D01*
X109713583Y-126517908D02*
X109832250Y-126458575D01*
X109832250Y-126458575D02*
X109891583Y-126339908D01*
X109891583Y-126339908D02*
X109891583Y-126161908D01*
X109891583Y-126161908D02*
X109832250Y-126043242D01*
X109891583Y-125627908D02*
X109891583Y-125153241D01*
X110306916Y-125449908D02*
X109238916Y-125449908D01*
X109238916Y-125449908D02*
X109120250Y-125390575D01*
X109120250Y-125390575D02*
X109060916Y-125271908D01*
X109060916Y-125271908D02*
X109060916Y-125153241D01*
X109060916Y-124737908D02*
X109891583Y-124737908D01*
X109654250Y-124737908D02*
X109772916Y-124678575D01*
X109772916Y-124678575D02*
X109832250Y-124619241D01*
X109832250Y-124619241D02*
X109891583Y-124500575D01*
X109891583Y-124500575D02*
X109891583Y-124381908D01*
X109060916Y-123432575D02*
X109713583Y-123432575D01*
X109713583Y-123432575D02*
X109832250Y-123491908D01*
X109832250Y-123491908D02*
X109891583Y-123610575D01*
X109891583Y-123610575D02*
X109891583Y-123847908D01*
X109891583Y-123847908D02*
X109832250Y-123966575D01*
X109120250Y-123432575D02*
X109060916Y-123551242D01*
X109060916Y-123551242D02*
X109060916Y-123847908D01*
X109060916Y-123847908D02*
X109120250Y-123966575D01*
X109120250Y-123966575D02*
X109238916Y-124025908D01*
X109238916Y-124025908D02*
X109357583Y-124025908D01*
X109357583Y-124025908D02*
X109476250Y-123966575D01*
X109476250Y-123966575D02*
X109535583Y-123847908D01*
X109535583Y-123847908D02*
X109535583Y-123551242D01*
X109535583Y-123551242D02*
X109594916Y-123432575D01*
X110366250Y-121949242D02*
X108764250Y-123017242D01*
X109060916Y-121533909D02*
X109891583Y-121533909D01*
X110306916Y-121533909D02*
X110247583Y-121593242D01*
X110247583Y-121593242D02*
X110188250Y-121533909D01*
X110188250Y-121533909D02*
X110247583Y-121474576D01*
X110247583Y-121474576D02*
X110306916Y-121533909D01*
X110306916Y-121533909D02*
X110188250Y-121533909D01*
X109891583Y-121118576D02*
X109891583Y-120643909D01*
X110306916Y-120940576D02*
X109238916Y-120940576D01*
X109238916Y-120940576D02*
X109120250Y-120881243D01*
X109120250Y-120881243D02*
X109060916Y-120762576D01*
X109060916Y-120762576D02*
X109060916Y-120643909D01*
X109060916Y-120228576D02*
X110306916Y-120228576D01*
X109060916Y-119694576D02*
X109713583Y-119694576D01*
X109713583Y-119694576D02*
X109832250Y-119753909D01*
X109832250Y-119753909D02*
X109891583Y-119872576D01*
X109891583Y-119872576D02*
X109891583Y-120050576D01*
X109891583Y-120050576D02*
X109832250Y-120169243D01*
X109832250Y-120169243D02*
X109772916Y-120228576D01*
X109060916Y-118923243D02*
X109120250Y-119041910D01*
X109120250Y-119041910D02*
X109179583Y-119101243D01*
X109179583Y-119101243D02*
X109298250Y-119160576D01*
X109298250Y-119160576D02*
X109654250Y-119160576D01*
X109654250Y-119160576D02*
X109772916Y-119101243D01*
X109772916Y-119101243D02*
X109832250Y-119041910D01*
X109832250Y-119041910D02*
X109891583Y-118923243D01*
X109891583Y-118923243D02*
X109891583Y-118745243D01*
X109891583Y-118745243D02*
X109832250Y-118626576D01*
X109832250Y-118626576D02*
X109772916Y-118567243D01*
X109772916Y-118567243D02*
X109654250Y-118507910D01*
X109654250Y-118507910D02*
X109298250Y-118507910D01*
X109298250Y-118507910D02*
X109179583Y-118567243D01*
X109179583Y-118567243D02*
X109120250Y-118626576D01*
X109120250Y-118626576D02*
X109060916Y-118745243D01*
X109060916Y-118745243D02*
X109060916Y-118923243D01*
X109891583Y-118092577D02*
X109060916Y-117855243D01*
X109060916Y-117855243D02*
X109654250Y-117617910D01*
X109654250Y-117617910D02*
X109060916Y-117380577D01*
X109060916Y-117380577D02*
X109891583Y-117143243D01*
X109060916Y-116668577D02*
X109891583Y-116668577D01*
X110306916Y-116668577D02*
X110247583Y-116727910D01*
X110247583Y-116727910D02*
X110188250Y-116668577D01*
X110188250Y-116668577D02*
X110247583Y-116609244D01*
X110247583Y-116609244D02*
X110306916Y-116668577D01*
X110306916Y-116668577D02*
X110188250Y-116668577D01*
X109891583Y-116253244D02*
X109891583Y-115778577D01*
X109060916Y-116075244D02*
X110128916Y-116075244D01*
X110128916Y-116075244D02*
X110247583Y-116015911D01*
X110247583Y-116015911D02*
X110306916Y-115897244D01*
X110306916Y-115897244D02*
X110306916Y-115778577D01*
X109060916Y-115363244D02*
X109891583Y-115363244D01*
X110306916Y-115363244D02*
X110247583Y-115422577D01*
X110247583Y-115422577D02*
X110188250Y-115363244D01*
X110188250Y-115363244D02*
X110247583Y-115303911D01*
X110247583Y-115303911D02*
X110306916Y-115363244D01*
X110306916Y-115363244D02*
X110188250Y-115363244D01*
X68636006Y-119225909D02*
X69882006Y-119225909D01*
X69288673Y-119225909D02*
X69288673Y-118513909D01*
X68636006Y-118513909D02*
X69882006Y-118513909D01*
X69882006Y-118039243D02*
X68636006Y-117742576D01*
X68636006Y-117742576D02*
X69526006Y-117505243D01*
X69526006Y-117505243D02*
X68636006Y-117267909D01*
X68636006Y-117267909D02*
X69882006Y-116971243D01*
X68636006Y-115547243D02*
X69466673Y-115547243D01*
X69229340Y-115547243D02*
X69348006Y-115487910D01*
X69348006Y-115487910D02*
X69407340Y-115428576D01*
X69407340Y-115428576D02*
X69466673Y-115309910D01*
X69466673Y-115309910D02*
X69466673Y-115191243D01*
X68695340Y-114301243D02*
X68636006Y-114419910D01*
X68636006Y-114419910D02*
X68636006Y-114657243D01*
X68636006Y-114657243D02*
X68695340Y-114775910D01*
X68695340Y-114775910D02*
X68814006Y-114835243D01*
X68814006Y-114835243D02*
X69288673Y-114835243D01*
X69288673Y-114835243D02*
X69407340Y-114775910D01*
X69407340Y-114775910D02*
X69466673Y-114657243D01*
X69466673Y-114657243D02*
X69466673Y-114419910D01*
X69466673Y-114419910D02*
X69407340Y-114301243D01*
X69407340Y-114301243D02*
X69288673Y-114241910D01*
X69288673Y-114241910D02*
X69170006Y-114241910D01*
X69170006Y-114241910D02*
X69051340Y-114835243D01*
X69466673Y-113826577D02*
X68636006Y-113529910D01*
X68636006Y-113529910D02*
X69466673Y-113233243D01*
X68754673Y-112758577D02*
X68695340Y-112699244D01*
X68695340Y-112699244D02*
X68636006Y-112758577D01*
X68636006Y-112758577D02*
X68695340Y-112817910D01*
X68695340Y-112817910D02*
X68754673Y-112758577D01*
X68754673Y-112758577D02*
X68636006Y-112758577D01*
X68754673Y-112165244D02*
X68695340Y-112105911D01*
X68695340Y-112105911D02*
X68636006Y-112165244D01*
X68636006Y-112165244D02*
X68695340Y-112224577D01*
X68695340Y-112224577D02*
X68754673Y-112165244D01*
X68754673Y-112165244D02*
X68636006Y-112165244D01*
X69407340Y-112165244D02*
X69348006Y-112105911D01*
X69348006Y-112105911D02*
X69288673Y-112165244D01*
X69288673Y-112165244D02*
X69348006Y-112224577D01*
X69348006Y-112224577D02*
X69407340Y-112165244D01*
X69407340Y-112165244D02*
X69288673Y-112165244D01*
X68636006Y-109969911D02*
X68636006Y-110681911D01*
X68636006Y-110325911D02*
X69882006Y-110325911D01*
X69882006Y-110325911D02*
X69704006Y-110444578D01*
X69704006Y-110444578D02*
X69585340Y-110563245D01*
X69585340Y-110563245D02*
X69526006Y-110681911D01*
X67282613Y-124506579D02*
X67223280Y-124328579D01*
X67223280Y-124328579D02*
X67163946Y-124269245D01*
X67163946Y-124269245D02*
X67045280Y-124209912D01*
X67045280Y-124209912D02*
X66867280Y-124209912D01*
X66867280Y-124209912D02*
X66748613Y-124269245D01*
X66748613Y-124269245D02*
X66689280Y-124328579D01*
X66689280Y-124328579D02*
X66629946Y-124447245D01*
X66629946Y-124447245D02*
X66629946Y-124921912D01*
X66629946Y-124921912D02*
X67875946Y-124921912D01*
X67875946Y-124921912D02*
X67875946Y-124506579D01*
X67875946Y-124506579D02*
X67816613Y-124387912D01*
X67816613Y-124387912D02*
X67757280Y-124328579D01*
X67757280Y-124328579D02*
X67638613Y-124269245D01*
X67638613Y-124269245D02*
X67519946Y-124269245D01*
X67519946Y-124269245D02*
X67401280Y-124328579D01*
X67401280Y-124328579D02*
X67341946Y-124387912D01*
X67341946Y-124387912D02*
X67282613Y-124506579D01*
X67282613Y-124506579D02*
X67282613Y-124921912D01*
X66629946Y-123141912D02*
X67282613Y-123141912D01*
X67282613Y-123141912D02*
X67401280Y-123201245D01*
X67401280Y-123201245D02*
X67460613Y-123319912D01*
X67460613Y-123319912D02*
X67460613Y-123557245D01*
X67460613Y-123557245D02*
X67401280Y-123675912D01*
X66689280Y-123141912D02*
X66629946Y-123260579D01*
X66629946Y-123260579D02*
X66629946Y-123557245D01*
X66629946Y-123557245D02*
X66689280Y-123675912D01*
X66689280Y-123675912D02*
X66807946Y-123735245D01*
X66807946Y-123735245D02*
X66926613Y-123735245D01*
X66926613Y-123735245D02*
X67045280Y-123675912D01*
X67045280Y-123675912D02*
X67104613Y-123557245D01*
X67104613Y-123557245D02*
X67104613Y-123260579D01*
X67104613Y-123260579D02*
X67163946Y-123141912D01*
X67460613Y-122726579D02*
X67460613Y-122251912D01*
X67875946Y-122548579D02*
X66807946Y-122548579D01*
X66807946Y-122548579D02*
X66689280Y-122489246D01*
X66689280Y-122489246D02*
X66629946Y-122370579D01*
X66629946Y-122370579D02*
X66629946Y-122251912D01*
X66689280Y-121302579D02*
X66629946Y-121421246D01*
X66629946Y-121421246D02*
X66629946Y-121658579D01*
X66629946Y-121658579D02*
X66689280Y-121777246D01*
X66689280Y-121777246D02*
X66748613Y-121836579D01*
X66748613Y-121836579D02*
X66867280Y-121895912D01*
X66867280Y-121895912D02*
X67223280Y-121895912D01*
X67223280Y-121895912D02*
X67341946Y-121836579D01*
X67341946Y-121836579D02*
X67401280Y-121777246D01*
X67401280Y-121777246D02*
X67460613Y-121658579D01*
X67460613Y-121658579D02*
X67460613Y-121421246D01*
X67460613Y-121421246D02*
X67401280Y-121302579D01*
X66629946Y-120768579D02*
X67875946Y-120768579D01*
X66629946Y-120234579D02*
X67282613Y-120234579D01*
X67282613Y-120234579D02*
X67401280Y-120293912D01*
X67401280Y-120293912D02*
X67460613Y-120412579D01*
X67460613Y-120412579D02*
X67460613Y-120590579D01*
X67460613Y-120590579D02*
X67401280Y-120709246D01*
X67401280Y-120709246D02*
X67341946Y-120768579D01*
X66748613Y-119641246D02*
X66689280Y-119581913D01*
X66689280Y-119581913D02*
X66629946Y-119641246D01*
X66629946Y-119641246D02*
X66689280Y-119700579D01*
X66689280Y-119700579D02*
X66748613Y-119641246D01*
X66748613Y-119641246D02*
X66629946Y-119641246D01*
X67401280Y-119641246D02*
X67341946Y-119581913D01*
X67341946Y-119581913D02*
X67282613Y-119641246D01*
X67282613Y-119641246D02*
X67341946Y-119700579D01*
X67341946Y-119700579D02*
X67401280Y-119641246D01*
X67401280Y-119641246D02*
X67282613Y-119641246D01*
X66629946Y-117445913D02*
X66629946Y-118157913D01*
X66629946Y-117801913D02*
X67875946Y-117801913D01*
X67875946Y-117801913D02*
X67697946Y-117920580D01*
X67697946Y-117920580D02*
X67579280Y-118039247D01*
X67579280Y-118039247D02*
X67519946Y-118157913D01*
X67757280Y-116971246D02*
X67816613Y-116911913D01*
X67816613Y-116911913D02*
X67875946Y-116793246D01*
X67875946Y-116793246D02*
X67875946Y-116496580D01*
X67875946Y-116496580D02*
X67816613Y-116377913D01*
X67816613Y-116377913D02*
X67757280Y-116318580D01*
X67757280Y-116318580D02*
X67638613Y-116259246D01*
X67638613Y-116259246D02*
X67519946Y-116259246D01*
X67519946Y-116259246D02*
X67341946Y-116318580D01*
X67341946Y-116318580D02*
X66629946Y-117030580D01*
X66629946Y-117030580D02*
X66629946Y-116259246D01*
X67104613Y-115725246D02*
X67104613Y-114775913D01*
X67875946Y-114301246D02*
X67875946Y-113529912D01*
X67875946Y-113529912D02*
X67401280Y-113945246D01*
X67401280Y-113945246D02*
X67401280Y-113767246D01*
X67401280Y-113767246D02*
X67341946Y-113648579D01*
X67341946Y-113648579D02*
X67282613Y-113589246D01*
X67282613Y-113589246D02*
X67163946Y-113529912D01*
X67163946Y-113529912D02*
X66867280Y-113529912D01*
X66867280Y-113529912D02*
X66748613Y-113589246D01*
X66748613Y-113589246D02*
X66689280Y-113648579D01*
X66689280Y-113648579D02*
X66629946Y-113767246D01*
X66629946Y-113767246D02*
X66629946Y-114123246D01*
X66629946Y-114123246D02*
X66689280Y-114241912D01*
X66689280Y-114241912D02*
X66748613Y-114301246D01*
X67341946Y-112817912D02*
X67401280Y-112936579D01*
X67401280Y-112936579D02*
X67460613Y-112995912D01*
X67460613Y-112995912D02*
X67579280Y-113055245D01*
X67579280Y-113055245D02*
X67638613Y-113055245D01*
X67638613Y-113055245D02*
X67757280Y-112995912D01*
X67757280Y-112995912D02*
X67816613Y-112936579D01*
X67816613Y-112936579D02*
X67875946Y-112817912D01*
X67875946Y-112817912D02*
X67875946Y-112580579D01*
X67875946Y-112580579D02*
X67816613Y-112461912D01*
X67816613Y-112461912D02*
X67757280Y-112402579D01*
X67757280Y-112402579D02*
X67638613Y-112343245D01*
X67638613Y-112343245D02*
X67579280Y-112343245D01*
X67579280Y-112343245D02*
X67460613Y-112402579D01*
X67460613Y-112402579D02*
X67401280Y-112461912D01*
X67401280Y-112461912D02*
X67341946Y-112580579D01*
X67341946Y-112580579D02*
X67341946Y-112817912D01*
X67341946Y-112817912D02*
X67282613Y-112936579D01*
X67282613Y-112936579D02*
X67223280Y-112995912D01*
X67223280Y-112995912D02*
X67104613Y-113055245D01*
X67104613Y-113055245D02*
X66867280Y-113055245D01*
X66867280Y-113055245D02*
X66748613Y-112995912D01*
X66748613Y-112995912D02*
X66689280Y-112936579D01*
X66689280Y-112936579D02*
X66629946Y-112817912D01*
X66629946Y-112817912D02*
X66629946Y-112580579D01*
X66629946Y-112580579D02*
X66689280Y-112461912D01*
X66689280Y-112461912D02*
X66748613Y-112402579D01*
X66748613Y-112402579D02*
X66867280Y-112343245D01*
X66867280Y-112343245D02*
X67104613Y-112343245D01*
X67104613Y-112343245D02*
X67223280Y-112402579D01*
X67223280Y-112402579D02*
X67282613Y-112461912D01*
X67282613Y-112461912D02*
X67341946Y-112580579D01*
X67757280Y-111868578D02*
X67816613Y-111809245D01*
X67816613Y-111809245D02*
X67875946Y-111690578D01*
X67875946Y-111690578D02*
X67875946Y-111393912D01*
X67875946Y-111393912D02*
X67816613Y-111275245D01*
X67816613Y-111275245D02*
X67757280Y-111215912D01*
X67757280Y-111215912D02*
X67638613Y-111156578D01*
X67638613Y-111156578D02*
X67519946Y-111156578D01*
X67519946Y-111156578D02*
X67341946Y-111215912D01*
X67341946Y-111215912D02*
X66629946Y-111927912D01*
X66629946Y-111927912D02*
X66629946Y-111156578D01*
X67875946Y-110741245D02*
X67875946Y-109969911D01*
X67875946Y-109969911D02*
X67401280Y-110385245D01*
X67401280Y-110385245D02*
X67401280Y-110207245D01*
X67401280Y-110207245D02*
X67341946Y-110088578D01*
X67341946Y-110088578D02*
X67282613Y-110029245D01*
X67282613Y-110029245D02*
X67163946Y-109969911D01*
X67163946Y-109969911D02*
X66867280Y-109969911D01*
X66867280Y-109969911D02*
X66748613Y-110029245D01*
X66748613Y-110029245D02*
X66689280Y-110088578D01*
X66689280Y-110088578D02*
X66629946Y-110207245D01*
X66629946Y-110207245D02*
X66629946Y-110563245D01*
X66629946Y-110563245D02*
X66689280Y-110681911D01*
X66689280Y-110681911D02*
X66748613Y-110741245D01*
D12*
X104116410Y-135474298D02*
X104068791Y-135521917D01*
X104068791Y-135521917D02*
X104021171Y-135664774D01*
X104021171Y-135664774D02*
X104021171Y-135760012D01*
X104021171Y-135760012D02*
X104068791Y-135902869D01*
X104068791Y-135902869D02*
X104164029Y-135998107D01*
X104164029Y-135998107D02*
X104259267Y-136045726D01*
X104259267Y-136045726D02*
X104449743Y-136093345D01*
X104449743Y-136093345D02*
X104592600Y-136093345D01*
X104592600Y-136093345D02*
X104783076Y-136045726D01*
X104783076Y-136045726D02*
X104878314Y-135998107D01*
X104878314Y-135998107D02*
X104973552Y-135902869D01*
X104973552Y-135902869D02*
X105021171Y-135760012D01*
X105021171Y-135760012D02*
X105021171Y-135664774D01*
X105021171Y-135664774D02*
X104973552Y-135521917D01*
X104973552Y-135521917D02*
X104925933Y-135474298D01*
X104116410Y-134474298D02*
X104068791Y-134521917D01*
X104068791Y-134521917D02*
X104021171Y-134664774D01*
X104021171Y-134664774D02*
X104021171Y-134760012D01*
X104021171Y-134760012D02*
X104068791Y-134902869D01*
X104068791Y-134902869D02*
X104164029Y-134998107D01*
X104164029Y-134998107D02*
X104259267Y-135045726D01*
X104259267Y-135045726D02*
X104449743Y-135093345D01*
X104449743Y-135093345D02*
X104592600Y-135093345D01*
X104592600Y-135093345D02*
X104783076Y-135045726D01*
X104783076Y-135045726D02*
X104878314Y-134998107D01*
X104878314Y-134998107D02*
X104973552Y-134902869D01*
X104973552Y-134902869D02*
X105021171Y-134760012D01*
X105021171Y-134760012D02*
X105021171Y-134664774D01*
X105021171Y-134664774D02*
X104973552Y-134521917D01*
X104973552Y-134521917D02*
X104925933Y-134474298D01*
X104021171Y-133521917D02*
X104021171Y-134093345D01*
X104021171Y-133807631D02*
X105021171Y-133807631D01*
X105021171Y-133807631D02*
X104878314Y-133902869D01*
X104878314Y-133902869D02*
X104783076Y-133998107D01*
X104783076Y-133998107D02*
X104735457Y-134093345D01*
X104021171Y-132569536D02*
X104021171Y-133140964D01*
X104021171Y-132855250D02*
X105021171Y-132855250D01*
X105021171Y-132855250D02*
X104878314Y-132950488D01*
X104878314Y-132950488D02*
X104783076Y-133045726D01*
X104783076Y-133045726D02*
X104735457Y-133140964D01*
X105021171Y-131950488D02*
X105021171Y-131855250D01*
X105021171Y-131855250D02*
X104973552Y-131760012D01*
X104973552Y-131760012D02*
X104925933Y-131712393D01*
X104925933Y-131712393D02*
X104830695Y-131664774D01*
X104830695Y-131664774D02*
X104640219Y-131617155D01*
X104640219Y-131617155D02*
X104402124Y-131617155D01*
X104402124Y-131617155D02*
X104211648Y-131664774D01*
X104211648Y-131664774D02*
X104116410Y-131712393D01*
X104116410Y-131712393D02*
X104068791Y-131760012D01*
X104068791Y-131760012D02*
X104021171Y-131855250D01*
X104021171Y-131855250D02*
X104021171Y-131950488D01*
X104021171Y-131950488D02*
X104068791Y-132045726D01*
X104068791Y-132045726D02*
X104116410Y-132093345D01*
X104116410Y-132093345D02*
X104211648Y-132140964D01*
X104211648Y-132140964D02*
X104402124Y-132188583D01*
X104402124Y-132188583D02*
X104640219Y-132188583D01*
X104640219Y-132188583D02*
X104830695Y-132140964D01*
X104830695Y-132140964D02*
X104925933Y-132093345D01*
X104925933Y-132093345D02*
X104973552Y-132045726D01*
X104973552Y-132045726D02*
X105021171Y-131950488D01*
X104021171Y-130664774D02*
X104021171Y-131236202D01*
X104021171Y-130950488D02*
X105021171Y-130950488D01*
X105021171Y-130950488D02*
X104878314Y-131045726D01*
X104878314Y-131045726D02*
X104783076Y-131140964D01*
X104783076Y-131140964D02*
X104735457Y-131236202D01*
X104402124Y-130236202D02*
X104402124Y-129474298D01*
X104592600Y-128855250D02*
X104640219Y-128950488D01*
X104640219Y-128950488D02*
X104687838Y-128998107D01*
X104687838Y-128998107D02*
X104783076Y-129045726D01*
X104783076Y-129045726D02*
X104830695Y-129045726D01*
X104830695Y-129045726D02*
X104925933Y-128998107D01*
X104925933Y-128998107D02*
X104973552Y-128950488D01*
X104973552Y-128950488D02*
X105021171Y-128855250D01*
X105021171Y-128855250D02*
X105021171Y-128664774D01*
X105021171Y-128664774D02*
X104973552Y-128569536D01*
X104973552Y-128569536D02*
X104925933Y-128521917D01*
X104925933Y-128521917D02*
X104830695Y-128474298D01*
X104830695Y-128474298D02*
X104783076Y-128474298D01*
X104783076Y-128474298D02*
X104687838Y-128521917D01*
X104687838Y-128521917D02*
X104640219Y-128569536D01*
X104640219Y-128569536D02*
X104592600Y-128664774D01*
X104592600Y-128664774D02*
X104592600Y-128855250D01*
X104592600Y-128855250D02*
X104544981Y-128950488D01*
X104544981Y-128950488D02*
X104497362Y-128998107D01*
X104497362Y-128998107D02*
X104402124Y-129045726D01*
X104402124Y-129045726D02*
X104211648Y-129045726D01*
X104211648Y-129045726D02*
X104116410Y-128998107D01*
X104116410Y-128998107D02*
X104068791Y-128950488D01*
X104068791Y-128950488D02*
X104021171Y-128855250D01*
X104021171Y-128855250D02*
X104021171Y-128664774D01*
X104021171Y-128664774D02*
X104068791Y-128569536D01*
X104068791Y-128569536D02*
X104116410Y-128521917D01*
X104116410Y-128521917D02*
X104211648Y-128474298D01*
X104211648Y-128474298D02*
X104402124Y-128474298D01*
X104402124Y-128474298D02*
X104497362Y-128521917D01*
X104497362Y-128521917D02*
X104544981Y-128569536D01*
X104544981Y-128569536D02*
X104592600Y-128664774D01*
X105021171Y-127617155D02*
X105021171Y-127807631D01*
X105021171Y-127807631D02*
X104973552Y-127902869D01*
X104973552Y-127902869D02*
X104925933Y-127950488D01*
X104925933Y-127950488D02*
X104783076Y-128045726D01*
X104783076Y-128045726D02*
X104592600Y-128093345D01*
X104592600Y-128093345D02*
X104211648Y-128093345D01*
X104211648Y-128093345D02*
X104116410Y-128045726D01*
X104116410Y-128045726D02*
X104068791Y-127998107D01*
X104068791Y-127998107D02*
X104021171Y-127902869D01*
X104021171Y-127902869D02*
X104021171Y-127712393D01*
X104021171Y-127712393D02*
X104068791Y-127617155D01*
X104068791Y-127617155D02*
X104116410Y-127569536D01*
X104116410Y-127569536D02*
X104211648Y-127521917D01*
X104211648Y-127521917D02*
X104449743Y-127521917D01*
X104449743Y-127521917D02*
X104544981Y-127569536D01*
X104544981Y-127569536D02*
X104592600Y-127617155D01*
X104592600Y-127617155D02*
X104640219Y-127712393D01*
X104640219Y-127712393D02*
X104640219Y-127902869D01*
X104640219Y-127902869D02*
X104592600Y-127998107D01*
X104592600Y-127998107D02*
X104544981Y-128045726D01*
X104544981Y-128045726D02*
X104449743Y-128093345D01*
X104592600Y-126950488D02*
X104640219Y-127045726D01*
X104640219Y-127045726D02*
X104687838Y-127093345D01*
X104687838Y-127093345D02*
X104783076Y-127140964D01*
X104783076Y-127140964D02*
X104830695Y-127140964D01*
X104830695Y-127140964D02*
X104925933Y-127093345D01*
X104925933Y-127093345D02*
X104973552Y-127045726D01*
X104973552Y-127045726D02*
X105021171Y-126950488D01*
X105021171Y-126950488D02*
X105021171Y-126760012D01*
X105021171Y-126760012D02*
X104973552Y-126664774D01*
X104973552Y-126664774D02*
X104925933Y-126617155D01*
X104925933Y-126617155D02*
X104830695Y-126569536D01*
X104830695Y-126569536D02*
X104783076Y-126569536D01*
X104783076Y-126569536D02*
X104687838Y-126617155D01*
X104687838Y-126617155D02*
X104640219Y-126664774D01*
X104640219Y-126664774D02*
X104592600Y-126760012D01*
X104592600Y-126760012D02*
X104592600Y-126950488D01*
X104592600Y-126950488D02*
X104544981Y-127045726D01*
X104544981Y-127045726D02*
X104497362Y-127093345D01*
X104497362Y-127093345D02*
X104402124Y-127140964D01*
X104402124Y-127140964D02*
X104211648Y-127140964D01*
X104211648Y-127140964D02*
X104116410Y-127093345D01*
X104116410Y-127093345D02*
X104068791Y-127045726D01*
X104068791Y-127045726D02*
X104021171Y-126950488D01*
X104021171Y-126950488D02*
X104021171Y-126760012D01*
X104021171Y-126760012D02*
X104068791Y-126664774D01*
X104068791Y-126664774D02*
X104116410Y-126617155D01*
X104116410Y-126617155D02*
X104211648Y-126569536D01*
X104211648Y-126569536D02*
X104402124Y-126569536D01*
X104402124Y-126569536D02*
X104497362Y-126617155D01*
X104497362Y-126617155D02*
X104544981Y-126664774D01*
X104544981Y-126664774D02*
X104592600Y-126760012D01*
X104021171Y-126140964D02*
X105021171Y-126140964D01*
X105021171Y-126140964D02*
X104306886Y-125807631D01*
X104306886Y-125807631D02*
X105021171Y-125474298D01*
X105021171Y-125474298D02*
X104021171Y-125474298D01*
X104021171Y-124998107D02*
X105021171Y-124998107D01*
X104544981Y-124998107D02*
X104544981Y-124426679D01*
X104021171Y-124426679D02*
X105021171Y-124426679D01*
X104687838Y-124045726D02*
X104687838Y-123521917D01*
X104687838Y-123521917D02*
X104021171Y-124045726D01*
X104021171Y-124045726D02*
X104021171Y-123521917D01*
X104402124Y-123140964D02*
X104402124Y-122379060D01*
X104021171Y-121902869D02*
X105021171Y-121902869D01*
X105021171Y-121902869D02*
X104306886Y-121569536D01*
X104306886Y-121569536D02*
X105021171Y-121236203D01*
X105021171Y-121236203D02*
X104021171Y-121236203D01*
X104021171Y-120617155D02*
X104068791Y-120712393D01*
X104068791Y-120712393D02*
X104116410Y-120760012D01*
X104116410Y-120760012D02*
X104211648Y-120807631D01*
X104211648Y-120807631D02*
X104497362Y-120807631D01*
X104497362Y-120807631D02*
X104592600Y-120760012D01*
X104592600Y-120760012D02*
X104640219Y-120712393D01*
X104640219Y-120712393D02*
X104687838Y-120617155D01*
X104687838Y-120617155D02*
X104687838Y-120474298D01*
X104687838Y-120474298D02*
X104640219Y-120379060D01*
X104640219Y-120379060D02*
X104592600Y-120331441D01*
X104592600Y-120331441D02*
X104497362Y-120283822D01*
X104497362Y-120283822D02*
X104211648Y-120283822D01*
X104211648Y-120283822D02*
X104116410Y-120331441D01*
X104116410Y-120331441D02*
X104068791Y-120379060D01*
X104068791Y-120379060D02*
X104021171Y-120474298D01*
X104021171Y-120474298D02*
X104021171Y-120617155D01*
X104021171Y-119426679D02*
X105021171Y-119426679D01*
X104068791Y-119426679D02*
X104021171Y-119521917D01*
X104021171Y-119521917D02*
X104021171Y-119712393D01*
X104021171Y-119712393D02*
X104068791Y-119807631D01*
X104068791Y-119807631D02*
X104116410Y-119855250D01*
X104116410Y-119855250D02*
X104211648Y-119902869D01*
X104211648Y-119902869D02*
X104497362Y-119902869D01*
X104497362Y-119902869D02*
X104592600Y-119855250D01*
X104592600Y-119855250D02*
X104640219Y-119807631D01*
X104640219Y-119807631D02*
X104687838Y-119712393D01*
X104687838Y-119712393D02*
X104687838Y-119521917D01*
X104687838Y-119521917D02*
X104640219Y-119426679D01*
X104687838Y-118521917D02*
X104021171Y-118521917D01*
X104687838Y-118950488D02*
X104164029Y-118950488D01*
X104164029Y-118950488D02*
X104068791Y-118902869D01*
X104068791Y-118902869D02*
X104021171Y-118807631D01*
X104021171Y-118807631D02*
X104021171Y-118664774D01*
X104021171Y-118664774D02*
X104068791Y-118569536D01*
X104068791Y-118569536D02*
X104116410Y-118521917D01*
X104021171Y-117902869D02*
X104068791Y-117998107D01*
X104068791Y-117998107D02*
X104164029Y-118045726D01*
X104164029Y-118045726D02*
X105021171Y-118045726D01*
X104068791Y-117140964D02*
X104021171Y-117236202D01*
X104021171Y-117236202D02*
X104021171Y-117426678D01*
X104021171Y-117426678D02*
X104068791Y-117521916D01*
X104068791Y-117521916D02*
X104164029Y-117569535D01*
X104164029Y-117569535D02*
X104544981Y-117569535D01*
X104544981Y-117569535D02*
X104640219Y-117521916D01*
X104640219Y-117521916D02*
X104687838Y-117426678D01*
X104687838Y-117426678D02*
X104687838Y-117236202D01*
X104687838Y-117236202D02*
X104640219Y-117140964D01*
X104640219Y-117140964D02*
X104544981Y-117093345D01*
X104544981Y-117093345D02*
X104449743Y-117093345D01*
X104449743Y-117093345D02*
X104354505Y-117569535D01*
X85920000Y-136497358D02*
X86670000Y-136497358D01*
X102470000Y-136497358D02*
X103220000Y-136497358D01*
X103220000Y-136497358D02*
X103220000Y-117197358D01*
X85920000Y-117197358D02*
X85920000Y-136497358D01*
X89945000Y-117197358D02*
X85920000Y-117197358D01*
X103220000Y-117197358D02*
X97195000Y-117197358D01*
M02*
