G04 #@! TF.GenerationSoftware,KiCad,Pcbnew,7.0.7*
G04 #@! TF.CreationDate,2023-09-22T23:05:29+02:00*
G04 #@! TF.ProjectId,ithowifi_4l,6974686f-7769-4666-995f-346c2e6b6963,rev?*
G04 #@! TF.SameCoordinates,Original*
G04 #@! TF.FileFunction,Copper,L2,Inr*
G04 #@! TF.FilePolarity,Positive*
%FSLAX46Y46*%
G04 Gerber Fmt 4.6, Leading zero omitted, Abs format (unit mm)*
G04 Created by KiCad (PCBNEW 7.0.7) date 2023-09-22 23:05:29*
%MOMM*%
%LPD*%
G01*
G04 APERTURE LIST*
G04 Aperture macros list*
%AMRoundRect*
0 Rectangle with rounded corners*
0 $1 Rounding radius*
0 $2 $3 $4 $5 $6 $7 $8 $9 X,Y pos of 4 corners*
0 Add a 4 corners polygon primitive as box body*
4,1,4,$2,$3,$4,$5,$6,$7,$8,$9,$2,$3,0*
0 Add four circle primitives for the rounded corners*
1,1,$1+$1,$2,$3*
1,1,$1+$1,$4,$5*
1,1,$1+$1,$6,$7*
1,1,$1+$1,$8,$9*
0 Add four rect primitives between the rounded corners*
20,1,$1+$1,$2,$3,$4,$5,0*
20,1,$1+$1,$4,$5,$6,$7,0*
20,1,$1+$1,$6,$7,$8,$9,0*
20,1,$1+$1,$8,$9,$2,$3,0*%
G04 Aperture macros list end*
G04 #@! TA.AperFunction,ComponentPad*
%ADD10R,1.700000X1.700000*%
G04 #@! TD*
G04 #@! TA.AperFunction,ComponentPad*
%ADD11O,1.700000X1.700000*%
G04 #@! TD*
G04 #@! TA.AperFunction,ComponentPad*
%ADD12RoundRect,0.273000X-0.677000X0.637000X-0.677000X-0.637000X0.677000X-0.637000X0.677000X0.637000X0*%
G04 #@! TD*
G04 #@! TA.AperFunction,ComponentPad*
%ADD13O,1.250000X1.050000*%
G04 #@! TD*
G04 #@! TA.AperFunction,ComponentPad*
%ADD14C,1.446000*%
G04 #@! TD*
G04 #@! TA.AperFunction,ComponentPad*
%ADD15C,2.700000*%
G04 #@! TD*
G04 #@! TA.AperFunction,ComponentPad*
%ADD16C,2.000000*%
G04 #@! TD*
G04 #@! TA.AperFunction,ViaPad*
%ADD17C,0.800000*%
G04 #@! TD*
G04 APERTURE END LIST*
D10*
X75666600Y-154025600D03*
D11*
X73126600Y-154025600D03*
X75666600Y-151485600D03*
X73126600Y-151485600D03*
D12*
X54178200Y-117568000D03*
D13*
X57078200Y-118743000D03*
X57078200Y-123593000D03*
D12*
X54178200Y-124768000D03*
D14*
X59372500Y-142176500D03*
X61152500Y-141156500D03*
X59372500Y-140136500D03*
X61152500Y-139116500D03*
X59372500Y-138096500D03*
X61152500Y-137076500D03*
X59372500Y-136056500D03*
X61152500Y-135036500D03*
X65962500Y-145466500D03*
X65962500Y-143176500D03*
X65962500Y-134036500D03*
X65962500Y-131746500D03*
D15*
X60392500Y-130476500D03*
X60392500Y-146736500D03*
D10*
X63246000Y-114300000D03*
D11*
X60706000Y-114300000D03*
X63246000Y-111760000D03*
X60706000Y-111760000D03*
D16*
X89052400Y-110032800D03*
D17*
X85039200Y-121531200D03*
X85039200Y-123731200D03*
X85039200Y-122631200D03*
X92202000Y-116078000D03*
X89027000Y-112776000D03*
X93599000Y-114935000D03*
X92710000Y-114046000D03*
X91567000Y-112903000D03*
X86995000Y-111887000D03*
X88265000Y-111887000D03*
X85598000Y-111887000D03*
X91694000Y-111887000D03*
X109270800Y-148844000D03*
X76225400Y-114427000D03*
X96578000Y-114173000D03*
X94488000Y-118745000D03*
X79121000Y-134112000D03*
X100177600Y-142824200D03*
X115062000Y-114173000D03*
X100177600Y-141300200D03*
X100177600Y-139750800D03*
X90043000Y-113919000D03*
X94488000Y-116078000D03*
X111838000Y-114173000D03*
X98679000Y-139750800D03*
X101678000Y-114173000D03*
X103378000Y-114173000D03*
X90551000Y-111887000D03*
X97155000Y-139725400D03*
X98679000Y-141300200D03*
X69088000Y-132969000D03*
X108438000Y-114173000D03*
X98278000Y-114173000D03*
X92202000Y-117348000D03*
X79121000Y-135255000D03*
X84201000Y-111887000D03*
X84201000Y-107442000D03*
X94878000Y-114173000D03*
X106738000Y-114173000D03*
X69088000Y-135255000D03*
X82473800Y-114325400D03*
X97155000Y-141274800D03*
X110138000Y-114173000D03*
X69088000Y-134112000D03*
X92710000Y-118745000D03*
X98679000Y-142824200D03*
X91059000Y-114935000D03*
X113538000Y-114173000D03*
X87630000Y-148590000D03*
X84201000Y-108966000D03*
X105038000Y-114173000D03*
X79121000Y-132969000D03*
X105308400Y-148640800D03*
X99978000Y-114173000D03*
X94869000Y-117348000D03*
X97155000Y-142798800D03*
X84201000Y-110490000D03*
X58510873Y-126883727D03*
X79121000Y-131572000D03*
X70739000Y-140538200D03*
X58510873Y-119790990D03*
X79121000Y-124815600D03*
X80010000Y-120904000D03*
X74828400Y-121531200D03*
X74828400Y-123731200D03*
X74828400Y-122631200D03*
X75844400Y-110299500D03*
X75844400Y-108458000D03*
X77495400Y-108458000D03*
X79336900Y-108458000D03*
X81241900Y-108458000D03*
X81241900Y-110236000D03*
X66120300Y-152467600D03*
X113030000Y-133578600D03*
X64770000Y-117221000D03*
X71501000Y-112445800D03*
X70561200Y-128371600D03*
X83312000Y-147320000D03*
X101600000Y-137795000D03*
X77927200Y-145097506D03*
X105206800Y-147370800D03*
X81280000Y-141859000D03*
X111125000Y-146050000D03*
X88392000Y-126365000D03*
X77927200Y-149098000D03*
X93980000Y-140462000D03*
X87376000Y-139700000D03*
X94361000Y-138430000D03*
X86487000Y-137160000D03*
X87376000Y-133350000D03*
X79502000Y-144526000D03*
X103733600Y-133375400D03*
X105029000Y-137160000D03*
X79502000Y-146050000D03*
X66014600Y-136626600D03*
X68943500Y-136634500D03*
X82778600Y-143281400D03*
X68326000Y-114681000D03*
X85852000Y-142036800D03*
X84658200Y-143154400D03*
X68326000Y-115951000D03*
X60071000Y-119761000D03*
X63119000Y-119761000D03*
X72644000Y-145669000D03*
X72567800Y-141681200D03*
X73914000Y-115951000D03*
X98044000Y-122428000D03*
X94615000Y-123825000D03*
X73914000Y-117856000D03*
G04 #@! TA.AperFunction,Conductor*
G36*
X83524531Y-106737713D02*
G01*
X83561076Y-106788013D01*
X83566000Y-106819100D01*
X83566000Y-107252204D01*
X83561265Y-107278050D01*
X83562307Y-107278307D01*
X83560852Y-107284208D01*
X83541693Y-107442000D01*
X83560851Y-107599781D01*
X83562308Y-107605691D01*
X83561262Y-107605948D01*
X83566000Y-107631794D01*
X83566000Y-108776204D01*
X83561265Y-108802050D01*
X83562307Y-108802307D01*
X83560852Y-108808208D01*
X83541693Y-108966000D01*
X83560851Y-109123781D01*
X83562308Y-109129691D01*
X83561262Y-109129948D01*
X83566000Y-109155794D01*
X83566000Y-110300204D01*
X83561265Y-110326050D01*
X83562307Y-110326307D01*
X83560852Y-110332208D01*
X83541693Y-110490000D01*
X83560851Y-110647781D01*
X83562308Y-110653691D01*
X83561262Y-110653948D01*
X83566000Y-110679794D01*
X83566000Y-111697204D01*
X83561265Y-111723050D01*
X83562307Y-111723307D01*
X83560852Y-111729208D01*
X83541693Y-111887000D01*
X83560851Y-112044781D01*
X83562308Y-112050691D01*
X83561262Y-112050948D01*
X83566000Y-112076794D01*
X83566000Y-120015000D01*
X115680900Y-120015000D01*
X115740031Y-120034213D01*
X115776576Y-120084513D01*
X115781500Y-120115600D01*
X115781500Y-149667400D01*
X115762287Y-149726531D01*
X115711987Y-149763076D01*
X115680900Y-149768000D01*
X81532000Y-149768000D01*
X81532000Y-156316900D01*
X81512787Y-156376031D01*
X81462487Y-156412576D01*
X81431400Y-156417500D01*
X53235298Y-156417500D01*
X53228727Y-156417069D01*
X53210655Y-156414690D01*
X53128792Y-156403912D01*
X53103425Y-156397115D01*
X53019487Y-156362347D01*
X52996743Y-156349216D01*
X52924660Y-156293904D01*
X52906095Y-156275339D01*
X52850781Y-156203252D01*
X52837654Y-156180516D01*
X52802884Y-156096574D01*
X52796087Y-156071206D01*
X52782931Y-155971274D01*
X52782500Y-155964702D01*
X52782500Y-153828340D01*
X53981500Y-153828340D01*
X54002421Y-153953711D01*
X54022429Y-154073614D01*
X54035309Y-154111131D01*
X54103171Y-154308809D01*
X54103172Y-154308810D01*
X54221521Y-154527501D01*
X54221523Y-154527503D01*
X54221526Y-154527509D01*
X54306064Y-154636123D01*
X54374266Y-154723749D01*
X54521668Y-154859441D01*
X54557215Y-154892164D01*
X54765393Y-155028173D01*
X54993119Y-155128063D01*
X55234179Y-155189108D01*
X55234182Y-155189108D01*
X55234185Y-155189109D01*
X55373890Y-155200684D01*
X55419933Y-155204500D01*
X55419935Y-155204500D01*
X55544065Y-155204500D01*
X55544067Y-155204500D01*
X55596623Y-155200145D01*
X55729814Y-155189109D01*
X55729816Y-155189108D01*
X55729821Y-155189108D01*
X55970881Y-155128063D01*
X56198607Y-155028173D01*
X56406785Y-154892164D01*
X56589738Y-154723744D01*
X56742474Y-154527509D01*
X56860828Y-154308810D01*
X56941571Y-154073614D01*
X56970775Y-153898599D01*
X71978620Y-153898599D01*
X71978621Y-153898600D01*
X72526000Y-153898600D01*
X72585131Y-153917813D01*
X72621676Y-153968113D01*
X72626600Y-153999200D01*
X72626600Y-154052000D01*
X72607387Y-154111131D01*
X72557087Y-154147676D01*
X72526000Y-154152600D01*
X71978621Y-154152600D01*
X71986599Y-154238698D01*
X72045168Y-154444551D01*
X72045169Y-154444552D01*
X72140560Y-154636123D01*
X72269537Y-154806917D01*
X72427686Y-154951090D01*
X72427695Y-154951096D01*
X72609655Y-155063762D01*
X72609659Y-155063764D01*
X72809219Y-155141073D01*
X72999599Y-155176662D01*
X72999600Y-155176662D01*
X72999600Y-154626200D01*
X73018813Y-154567069D01*
X73069113Y-154530524D01*
X73100200Y-154525600D01*
X73153000Y-154525600D01*
X73212131Y-154544813D01*
X73248676Y-154595113D01*
X73253600Y-154626200D01*
X73253600Y-155176662D01*
X73443980Y-155141073D01*
X73643540Y-155063764D01*
X73643544Y-155063762D01*
X73825504Y-154951096D01*
X73825513Y-154951090D01*
X73880826Y-154900665D01*
X74562100Y-154900665D01*
X74576866Y-154974901D01*
X74576867Y-154974904D01*
X74633114Y-155059082D01*
X74633115Y-155059083D01*
X74633116Y-155059084D01*
X74717299Y-155115334D01*
X74791533Y-155130100D01*
X76541666Y-155130099D01*
X76615901Y-155115334D01*
X76700084Y-155059084D01*
X76756334Y-154974901D01*
X76771100Y-154900667D01*
X76771099Y-153150534D01*
X76756334Y-153076299D01*
X76756332Y-153076297D01*
X76756332Y-153076295D01*
X76700085Y-152992117D01*
X76700083Y-152992115D01*
X76615902Y-152935867D01*
X76615901Y-152935866D01*
X76615900Y-152935865D01*
X76615899Y-152935865D01*
X76560098Y-152924766D01*
X76541667Y-152921100D01*
X76541666Y-152921100D01*
X74791534Y-152921100D01*
X74717298Y-152935866D01*
X74717295Y-152935867D01*
X74633117Y-152992114D01*
X74633115Y-152992116D01*
X74576865Y-153076300D01*
X74562100Y-153150533D01*
X74562100Y-154900665D01*
X73880826Y-154900665D01*
X73983662Y-154806917D01*
X74112638Y-154636123D01*
X74112639Y-154636123D01*
X74208030Y-154444552D01*
X74208031Y-154444551D01*
X74266600Y-154238698D01*
X74274579Y-154152600D01*
X73727200Y-154152600D01*
X73668069Y-154133387D01*
X73631524Y-154083087D01*
X73626600Y-154052000D01*
X73626600Y-153999200D01*
X73645813Y-153940069D01*
X73696113Y-153903524D01*
X73727200Y-153898600D01*
X74274579Y-153898600D01*
X74274579Y-153898599D01*
X74266600Y-153812501D01*
X74208031Y-153606648D01*
X74208030Y-153606647D01*
X74112639Y-153415076D01*
X73983662Y-153244282D01*
X73825513Y-153100109D01*
X73825504Y-153100103D01*
X73643544Y-152987437D01*
X73643540Y-152987435D01*
X73443981Y-152910126D01*
X73253600Y-152874537D01*
X73253600Y-153425000D01*
X73234387Y-153484131D01*
X73184087Y-153520676D01*
X73153000Y-153525600D01*
X73100200Y-153525600D01*
X73041069Y-153506387D01*
X73004524Y-153456087D01*
X72999600Y-153425000D01*
X72999600Y-152874537D01*
X72809218Y-152910126D01*
X72609659Y-152987435D01*
X72609655Y-152987437D01*
X72427695Y-153100103D01*
X72427686Y-153100109D01*
X72269537Y-153244282D01*
X72140561Y-153415076D01*
X72140560Y-153415076D01*
X72045169Y-153606647D01*
X72045168Y-153606648D01*
X71986599Y-153812501D01*
X71978620Y-153898599D01*
X56970775Y-153898599D01*
X56982500Y-153828335D01*
X56982500Y-153579665D01*
X56941571Y-153334386D01*
X56860828Y-153099190D01*
X56764451Y-152921101D01*
X56742478Y-152880498D01*
X56742477Y-152880497D01*
X56742474Y-152880491D01*
X56589738Y-152684256D01*
X56589736Y-152684254D01*
X56589733Y-152684250D01*
X56406788Y-152515839D01*
X56406785Y-152515836D01*
X56198612Y-152379830D01*
X56198610Y-152379829D01*
X56198607Y-152379827D01*
X55970881Y-152279937D01*
X55970881Y-152279936D01*
X55729814Y-152218890D01*
X55563478Y-152205108D01*
X55544067Y-152203500D01*
X55419933Y-152203500D01*
X55401485Y-152205028D01*
X55234185Y-152218890D01*
X54993118Y-152279937D01*
X54869304Y-152334247D01*
X54765393Y-152379827D01*
X54765391Y-152379828D01*
X54765387Y-152379830D01*
X54557214Y-152515836D01*
X54557211Y-152515839D01*
X54374266Y-152684250D01*
X54282755Y-152801823D01*
X54226161Y-152874537D01*
X54221521Y-152880498D01*
X54103172Y-153099189D01*
X54103171Y-153099190D01*
X54022429Y-153334386D01*
X53981500Y-153579659D01*
X53981500Y-153828340D01*
X52782500Y-153828340D01*
X52782500Y-151485600D01*
X72017368Y-151485600D01*
X72036254Y-151689416D01*
X72036254Y-151689417D01*
X72092272Y-151886303D01*
X72092273Y-151886304D01*
X72183509Y-152069530D01*
X72183510Y-152069531D01*
X72183512Y-152069535D01*
X72296301Y-152218892D01*
X72306868Y-152232885D01*
X72458128Y-152370778D01*
X72458132Y-152370781D01*
X72458138Y-152370786D01*
X72632173Y-152478544D01*
X72823044Y-152552488D01*
X72872424Y-152561718D01*
X73024251Y-152590100D01*
X73024253Y-152590100D01*
X73228948Y-152590100D01*
X73304861Y-152575909D01*
X73430156Y-152552488D01*
X73621027Y-152478544D01*
X73795062Y-152370786D01*
X73946332Y-152232885D01*
X74069688Y-152069535D01*
X74160928Y-151886301D01*
X74216945Y-151689421D01*
X74235832Y-151485600D01*
X74557368Y-151485600D01*
X74576254Y-151689416D01*
X74576254Y-151689417D01*
X74632272Y-151886303D01*
X74632273Y-151886304D01*
X74723509Y-152069530D01*
X74723510Y-152069531D01*
X74723512Y-152069535D01*
X74836301Y-152218892D01*
X74846868Y-152232885D01*
X74998128Y-152370778D01*
X74998132Y-152370781D01*
X74998138Y-152370786D01*
X75172173Y-152478544D01*
X75363044Y-152552488D01*
X75412424Y-152561718D01*
X75564251Y-152590100D01*
X75564253Y-152590100D01*
X75768948Y-152590100D01*
X75844861Y-152575909D01*
X75970156Y-152552488D01*
X76161027Y-152478544D01*
X76335062Y-152370786D01*
X76486332Y-152232885D01*
X76609688Y-152069535D01*
X76700928Y-151886301D01*
X76756945Y-151689421D01*
X76775832Y-151485600D01*
X76756945Y-151281779D01*
X76700928Y-151084899D01*
X76609688Y-150901665D01*
X76486332Y-150738315D01*
X76486331Y-150738314D01*
X76335071Y-150600421D01*
X76335066Y-150600417D01*
X76335062Y-150600414D01*
X76161027Y-150492656D01*
X76161023Y-150492654D01*
X75970154Y-150418711D01*
X75970149Y-150418710D01*
X75768949Y-150381100D01*
X75768947Y-150381100D01*
X75564253Y-150381100D01*
X75564251Y-150381100D01*
X75363050Y-150418710D01*
X75363045Y-150418711D01*
X75172176Y-150492654D01*
X75172172Y-150492656D01*
X75064414Y-150559377D01*
X74998138Y-150600414D01*
X74998136Y-150600415D01*
X74998137Y-150600415D01*
X74998128Y-150600421D01*
X74846868Y-150738314D01*
X74723510Y-150901668D01*
X74723509Y-150901669D01*
X74632273Y-151084895D01*
X74632272Y-151084896D01*
X74576254Y-151281782D01*
X74576254Y-151281783D01*
X74557368Y-151485600D01*
X74235832Y-151485600D01*
X74216945Y-151281779D01*
X74160928Y-151084899D01*
X74069688Y-150901665D01*
X73946332Y-150738315D01*
X73946331Y-150738314D01*
X73795071Y-150600421D01*
X73795066Y-150600417D01*
X73795062Y-150600414D01*
X73621027Y-150492656D01*
X73621023Y-150492654D01*
X73430154Y-150418711D01*
X73430149Y-150418710D01*
X73228949Y-150381100D01*
X73228947Y-150381100D01*
X73024253Y-150381100D01*
X73024251Y-150381100D01*
X72823050Y-150418710D01*
X72823045Y-150418711D01*
X72632176Y-150492654D01*
X72632172Y-150492656D01*
X72524414Y-150559377D01*
X72458138Y-150600414D01*
X72458136Y-150600415D01*
X72458137Y-150600415D01*
X72458128Y-150600421D01*
X72306868Y-150738314D01*
X72183510Y-150901668D01*
X72183509Y-150901669D01*
X72092273Y-151084895D01*
X72092272Y-151084896D01*
X72036254Y-151281782D01*
X72036254Y-151281783D01*
X72017368Y-151485600D01*
X52782500Y-151485600D01*
X52782500Y-148590000D01*
X86970693Y-148590000D01*
X86989851Y-148747782D01*
X87046213Y-148896395D01*
X87136502Y-149027201D01*
X87136503Y-149027202D01*
X87136504Y-149027203D01*
X87136505Y-149027204D01*
X87255468Y-149132597D01*
X87255469Y-149132598D01*
X87255471Y-149132599D01*
X87396207Y-149206463D01*
X87550529Y-149244500D01*
X87550533Y-149244500D01*
X87709467Y-149244500D01*
X87709471Y-149244500D01*
X87863793Y-149206463D01*
X88004529Y-149132599D01*
X88123498Y-149027201D01*
X88213787Y-148896395D01*
X88270149Y-148747782D01*
X88283139Y-148640800D01*
X104649093Y-148640800D01*
X104668251Y-148798582D01*
X104724613Y-148947195D01*
X104814902Y-149078001D01*
X104814903Y-149078002D01*
X104814904Y-149078003D01*
X104814905Y-149078004D01*
X104933868Y-149183397D01*
X104933869Y-149183398D01*
X104933871Y-149183399D01*
X105074607Y-149257263D01*
X105228929Y-149295300D01*
X105228933Y-149295300D01*
X105387867Y-149295300D01*
X105387871Y-149295300D01*
X105542193Y-149257263D01*
X105682929Y-149183399D01*
X105801898Y-149078001D01*
X105892187Y-148947195D01*
X105931324Y-148844000D01*
X108611493Y-148844000D01*
X108630651Y-149001782D01*
X108687013Y-149150395D01*
X108777302Y-149281201D01*
X108777303Y-149281202D01*
X108777304Y-149281203D01*
X108777305Y-149281204D01*
X108896268Y-149386597D01*
X108896269Y-149386598D01*
X108896271Y-149386599D01*
X109037007Y-149460463D01*
X109191329Y-149498500D01*
X109191333Y-149498500D01*
X109350267Y-149498500D01*
X109350271Y-149498500D01*
X109504593Y-149460463D01*
X109645329Y-149386599D01*
X109764298Y-149281201D01*
X109854587Y-149150395D01*
X109910949Y-149001782D01*
X109930107Y-148844000D01*
X109910949Y-148686218D01*
X109854587Y-148537605D01*
X109764298Y-148406799D01*
X109764295Y-148406796D01*
X109764294Y-148406795D01*
X109645331Y-148301402D01*
X109645330Y-148301401D01*
X109504595Y-148227538D01*
X109504594Y-148227537D01*
X109504593Y-148227537D01*
X109407457Y-148203595D01*
X109350273Y-148189500D01*
X109350271Y-148189500D01*
X109191329Y-148189500D01*
X109191326Y-148189500D01*
X109077215Y-148217626D01*
X109037007Y-148227537D01*
X109037006Y-148227537D01*
X109037004Y-148227538D01*
X108896269Y-148301401D01*
X108896268Y-148301402D01*
X108777305Y-148406795D01*
X108777304Y-148406796D01*
X108687012Y-148537606D01*
X108667142Y-148589999D01*
X108630651Y-148686218D01*
X108611493Y-148844000D01*
X105931324Y-148844000D01*
X105948549Y-148798582D01*
X105967707Y-148640800D01*
X105948549Y-148483018D01*
X105892187Y-148334405D01*
X105801898Y-148203599D01*
X105801895Y-148203596D01*
X105801894Y-148203595D01*
X105682931Y-148098202D01*
X105682930Y-148098201D01*
X105542195Y-148024338D01*
X105542194Y-148024337D01*
X105542193Y-148024337D01*
X105463946Y-148005051D01*
X105387873Y-147986300D01*
X105387871Y-147986300D01*
X105228929Y-147986300D01*
X105228926Y-147986300D01*
X105114814Y-148014426D01*
X105074607Y-148024337D01*
X105074606Y-148024337D01*
X105074604Y-148024338D01*
X104933869Y-148098201D01*
X104933868Y-148098202D01*
X104814905Y-148203595D01*
X104814904Y-148203596D01*
X104724612Y-148334406D01*
X104720230Y-148345961D01*
X104668251Y-148483018D01*
X104649093Y-148640800D01*
X88283139Y-148640800D01*
X88289307Y-148590000D01*
X88270149Y-148432218D01*
X88213787Y-148283605D01*
X88123498Y-148152799D01*
X88123495Y-148152796D01*
X88123494Y-148152795D01*
X88004531Y-148047402D01*
X88004530Y-148047401D01*
X87863795Y-147973538D01*
X87863794Y-147973537D01*
X87863793Y-147973537D01*
X87785547Y-147954251D01*
X87709473Y-147935500D01*
X87709471Y-147935500D01*
X87550529Y-147935500D01*
X87550526Y-147935500D01*
X87436414Y-147963626D01*
X87396207Y-147973537D01*
X87396206Y-147973537D01*
X87396204Y-147973538D01*
X87255469Y-148047401D01*
X87255468Y-148047402D01*
X87136505Y-148152795D01*
X87136504Y-148152796D01*
X87046212Y-148283606D01*
X87022564Y-148345961D01*
X86989851Y-148432218D01*
X86970693Y-148590000D01*
X52782500Y-148590000D01*
X52782500Y-145025187D01*
X54953238Y-145025187D01*
X54983263Y-145298071D01*
X55052704Y-145563682D01*
X55160077Y-145816353D01*
X55303095Y-146050696D01*
X55478711Y-146261720D01*
X55478715Y-146261725D01*
X55683179Y-146444925D01*
X55912138Y-146596403D01*
X55912143Y-146596405D01*
X56160709Y-146712928D01*
X56160713Y-146712929D01*
X56160721Y-146712933D01*
X56423619Y-146792027D01*
X56423620Y-146792027D01*
X56423623Y-146792028D01*
X56581941Y-146815327D01*
X56695231Y-146832000D01*
X56695233Y-146832000D01*
X56901051Y-146832000D01*
X56934802Y-146829529D01*
X57106305Y-146816977D01*
X57374275Y-146757284D01*
X57428617Y-146736500D01*
X58783039Y-146736500D01*
X58802853Y-146988272D01*
X58802854Y-146988278D01*
X58861810Y-147233849D01*
X58958457Y-147467174D01*
X58958459Y-147467180D01*
X59090420Y-147682519D01*
X59090423Y-147682522D01*
X59254436Y-147874558D01*
X59254441Y-147874563D01*
X59446477Y-148038576D01*
X59446480Y-148038579D01*
X59661819Y-148170540D01*
X59661825Y-148170542D01*
X59895150Y-148267189D01*
X60128535Y-148323219D01*
X60140725Y-148326146D01*
X60392500Y-148345961D01*
X60644275Y-148326146D01*
X60730196Y-148305517D01*
X60889849Y-148267189D01*
X60950794Y-148241944D01*
X61123180Y-148170540D01*
X61338517Y-148038581D01*
X61530561Y-147874561D01*
X61694581Y-147682517D01*
X61826540Y-147467180D01*
X61923188Y-147233851D01*
X61923187Y-147233851D01*
X61923189Y-147233849D01*
X61982145Y-146988278D01*
X61982146Y-146988275D01*
X62001961Y-146736500D01*
X61982146Y-146484725D01*
X61955554Y-146373962D01*
X61923189Y-146239150D01*
X61826542Y-146005825D01*
X61826540Y-146005819D01*
X61694579Y-145790480D01*
X61694576Y-145790477D01*
X61530563Y-145598441D01*
X61530558Y-145598436D01*
X61376078Y-145466499D01*
X64980270Y-145466499D01*
X64999143Y-145658127D01*
X65055039Y-145842387D01*
X65145801Y-146012191D01*
X65145810Y-146012204D01*
X65266625Y-146159416D01*
X65267959Y-146161041D01*
X65267964Y-146161045D01*
X65416795Y-146283189D01*
X65416808Y-146283198D01*
X65586612Y-146373960D01*
X65586614Y-146373960D01*
X65586617Y-146373962D01*
X65714428Y-146412733D01*
X65770872Y-146429856D01*
X65770873Y-146429856D01*
X65770876Y-146429857D01*
X65962500Y-146448730D01*
X66154124Y-146429857D01*
X66338383Y-146373962D01*
X66338387Y-146373960D01*
X66508191Y-146283198D01*
X66508192Y-146283196D01*
X66508198Y-146283194D01*
X66657041Y-146161041D01*
X66779194Y-146012198D01*
X66782601Y-146005825D01*
X66869960Y-145842387D01*
X66869960Y-145842386D01*
X66869962Y-145842383D01*
X66922558Y-145669000D01*
X71984693Y-145669000D01*
X72003851Y-145826782D01*
X72060213Y-145975395D01*
X72150502Y-146106201D01*
X72150503Y-146106202D01*
X72150504Y-146106203D01*
X72150505Y-146106204D01*
X72269468Y-146211597D01*
X72269469Y-146211598D01*
X72269471Y-146211599D01*
X72410207Y-146285463D01*
X72564529Y-146323500D01*
X72564533Y-146323500D01*
X72723467Y-146323500D01*
X72723471Y-146323500D01*
X72877793Y-146285463D01*
X73018529Y-146211599D01*
X73137498Y-146106201D01*
X73176291Y-146050000D01*
X78842693Y-146050000D01*
X78861851Y-146207782D01*
X78918213Y-146356395D01*
X79008502Y-146487201D01*
X79008503Y-146487202D01*
X79008504Y-146487203D01*
X79008505Y-146487204D01*
X79127468Y-146592597D01*
X79127469Y-146592598D01*
X79127471Y-146592599D01*
X79268207Y-146666463D01*
X79422529Y-146704500D01*
X79422533Y-146704500D01*
X79581467Y-146704500D01*
X79581471Y-146704500D01*
X79735793Y-146666463D01*
X79876529Y-146592599D01*
X79995498Y-146487201D01*
X80085787Y-146356395D01*
X80142149Y-146207782D01*
X80161307Y-146050000D01*
X80142149Y-145892218D01*
X80085787Y-145743605D01*
X79995498Y-145612799D01*
X79995495Y-145612796D01*
X79995494Y-145612795D01*
X79876531Y-145507402D01*
X79876530Y-145507401D01*
X79735795Y-145433538D01*
X79735794Y-145433537D01*
X79735793Y-145433537D01*
X79657546Y-145414251D01*
X79581473Y-145395500D01*
X79581471Y-145395500D01*
X79422529Y-145395500D01*
X79422526Y-145395500D01*
X79308414Y-145423626D01*
X79268207Y-145433537D01*
X79268206Y-145433537D01*
X79268204Y-145433538D01*
X79127469Y-145507401D01*
X79127468Y-145507402D01*
X79008505Y-145612795D01*
X79008504Y-145612796D01*
X78918212Y-145743606D01*
X78861850Y-145892217D01*
X78861851Y-145892218D01*
X78842693Y-146050000D01*
X73176291Y-146050000D01*
X73227787Y-145975395D01*
X73284149Y-145826782D01*
X73303307Y-145669000D01*
X73284149Y-145511218D01*
X73227787Y-145362605D01*
X73137498Y-145231799D01*
X73137495Y-145231796D01*
X73137494Y-145231795D01*
X73018531Y-145126402D01*
X73018530Y-145126401D01*
X72877795Y-145052538D01*
X72877794Y-145052537D01*
X72877793Y-145052537D01*
X72799547Y-145033251D01*
X72723473Y-145014500D01*
X72723471Y-145014500D01*
X72564529Y-145014500D01*
X72564526Y-145014500D01*
X72450414Y-145042626D01*
X72410207Y-145052537D01*
X72410206Y-145052537D01*
X72410204Y-145052538D01*
X72269469Y-145126401D01*
X72269468Y-145126402D01*
X72150505Y-145231795D01*
X72150504Y-145231796D01*
X72060212Y-145362606D01*
X72020811Y-145466499D01*
X72003851Y-145511218D01*
X71984693Y-145669000D01*
X66922558Y-145669000D01*
X66925857Y-145658124D01*
X66944730Y-145466500D01*
X66925857Y-145274876D01*
X66869962Y-145090617D01*
X66869960Y-145090614D01*
X66869960Y-145090612D01*
X66779198Y-144920808D01*
X66779189Y-144920795D01*
X66657045Y-144771964D01*
X66657041Y-144771959D01*
X66549598Y-144683782D01*
X66508204Y-144649810D01*
X66508191Y-144649801D01*
X66338387Y-144559039D01*
X66229475Y-144526000D01*
X78842693Y-144526000D01*
X78861851Y-144683782D01*
X78918213Y-144832395D01*
X79008502Y-144963201D01*
X79008503Y-144963202D01*
X79008504Y-144963203D01*
X79008505Y-144963204D01*
X79127468Y-145068597D01*
X79127469Y-145068598D01*
X79127471Y-145068599D01*
X79268207Y-145142463D01*
X79422529Y-145180500D01*
X79422533Y-145180500D01*
X79581467Y-145180500D01*
X79581471Y-145180500D01*
X79735793Y-145142463D01*
X79876529Y-145068599D01*
X79995498Y-144963201D01*
X80085787Y-144832395D01*
X80142149Y-144683782D01*
X80161307Y-144526000D01*
X80142149Y-144368218D01*
X80085787Y-144219605D01*
X79995498Y-144088799D01*
X79995495Y-144088796D01*
X79995494Y-144088795D01*
X79876531Y-143983402D01*
X79876530Y-143983401D01*
X79735795Y-143909538D01*
X79735794Y-143909537D01*
X79735793Y-143909537D01*
X79657547Y-143890251D01*
X79581473Y-143871500D01*
X79581471Y-143871500D01*
X79422529Y-143871500D01*
X79422526Y-143871500D01*
X79315578Y-143897861D01*
X79268207Y-143909537D01*
X79268206Y-143909537D01*
X79268204Y-143909538D01*
X79127469Y-143983401D01*
X79127468Y-143983402D01*
X79008505Y-144088795D01*
X79008504Y-144088796D01*
X78918212Y-144219606D01*
X78917675Y-144221023D01*
X78861851Y-144368218D01*
X78842693Y-144526000D01*
X66229475Y-144526000D01*
X66154127Y-144503143D01*
X65962500Y-144484270D01*
X65770872Y-144503143D01*
X65586612Y-144559039D01*
X65416808Y-144649801D01*
X65416795Y-144649810D01*
X65267964Y-144771954D01*
X65267954Y-144771964D01*
X65145810Y-144920795D01*
X65145801Y-144920808D01*
X65055039Y-145090612D01*
X64999143Y-145274872D01*
X64980270Y-145466499D01*
X61376078Y-145466499D01*
X61338522Y-145434423D01*
X61338519Y-145434420D01*
X61123180Y-145302459D01*
X61123174Y-145302457D01*
X60889849Y-145205810D01*
X60644278Y-145146854D01*
X60644272Y-145146853D01*
X60392500Y-145127039D01*
X60140727Y-145146853D01*
X60140721Y-145146854D01*
X59895150Y-145205810D01*
X59661825Y-145302457D01*
X59661819Y-145302459D01*
X59446480Y-145434420D01*
X59446477Y-145434423D01*
X59254441Y-145598436D01*
X59254436Y-145598441D01*
X59090423Y-145790477D01*
X59090420Y-145790480D01*
X58958459Y-146005819D01*
X58958457Y-146005825D01*
X58861810Y-146239150D01*
X58802854Y-146484721D01*
X58802853Y-146484727D01*
X58783039Y-146736500D01*
X57428617Y-146736500D01*
X57630698Y-146659211D01*
X57870109Y-146524847D01*
X57870114Y-146524842D01*
X57870119Y-146524840D01*
X57993126Y-146429856D01*
X58087404Y-146357057D01*
X58277954Y-146159416D01*
X58437696Y-145936137D01*
X58563227Y-145691979D01*
X58651870Y-145432146D01*
X58701736Y-145162174D01*
X58711762Y-144887820D01*
X58685574Y-144649810D01*
X58681736Y-144614928D01*
X58646684Y-144480854D01*
X58612296Y-144349318D01*
X58504923Y-144096648D01*
X58500130Y-144088795D01*
X58367517Y-143871500D01*
X58361905Y-143862304D01*
X58186291Y-143651282D01*
X58186288Y-143651279D01*
X58186284Y-143651274D01*
X57981820Y-143468074D01*
X57752861Y-143316596D01*
X57752856Y-143316594D01*
X57504290Y-143200071D01*
X57504284Y-143200069D01*
X57504281Y-143200068D01*
X57504279Y-143200067D01*
X57425945Y-143176500D01*
X64980270Y-143176500D01*
X64999143Y-143368127D01*
X65055039Y-143552387D01*
X65145801Y-143722191D01*
X65145810Y-143722204D01*
X65229352Y-143823999D01*
X65267959Y-143871041D01*
X65267964Y-143871045D01*
X65416795Y-143993189D01*
X65416808Y-143993198D01*
X65586612Y-144083960D01*
X65586614Y-144083960D01*
X65586617Y-144083962D01*
X65714428Y-144122733D01*
X65770872Y-144139856D01*
X65770873Y-144139856D01*
X65770876Y-144139857D01*
X65962500Y-144158730D01*
X66154124Y-144139857D01*
X66338383Y-144083962D01*
X66508198Y-143993194D01*
X66657041Y-143871041D01*
X66779194Y-143722198D01*
X66817100Y-143651282D01*
X66869960Y-143552387D01*
X66869960Y-143552386D01*
X66869962Y-143552383D01*
X66925857Y-143368124D01*
X66934398Y-143281400D01*
X82119293Y-143281400D01*
X82138451Y-143439182D01*
X82194813Y-143587795D01*
X82285102Y-143718601D01*
X82285103Y-143718602D01*
X82285104Y-143718603D01*
X82285105Y-143718604D01*
X82404068Y-143823997D01*
X82404069Y-143823998D01*
X82404071Y-143823999D01*
X82544807Y-143897863D01*
X82699129Y-143935900D01*
X82699133Y-143935900D01*
X82858067Y-143935900D01*
X82858071Y-143935900D01*
X83012393Y-143897863D01*
X83153129Y-143823999D01*
X83272098Y-143718601D01*
X83362387Y-143587795D01*
X83418749Y-143439182D01*
X83437907Y-143281400D01*
X83422487Y-143154400D01*
X83998893Y-143154400D01*
X84018051Y-143312182D01*
X84074413Y-143460795D01*
X84164702Y-143591601D01*
X84164703Y-143591602D01*
X84164704Y-143591603D01*
X84164705Y-143591604D01*
X84283668Y-143696997D01*
X84283669Y-143696998D01*
X84283671Y-143696999D01*
X84424407Y-143770863D01*
X84578729Y-143808900D01*
X84578733Y-143808900D01*
X84737667Y-143808900D01*
X84737671Y-143808900D01*
X84891993Y-143770863D01*
X85032729Y-143696999D01*
X85151698Y-143591601D01*
X85241987Y-143460795D01*
X85298349Y-143312182D01*
X85317507Y-143154400D01*
X85298349Y-142996618D01*
X85241987Y-142848005D01*
X85208023Y-142798800D01*
X96495693Y-142798800D01*
X96514851Y-142956582D01*
X96528736Y-142993194D01*
X96563159Y-143083960D01*
X96571213Y-143105195D01*
X96661502Y-143236001D01*
X96661503Y-143236002D01*
X96661504Y-143236003D01*
X96661505Y-143236004D01*
X96780468Y-143341397D01*
X96780469Y-143341398D01*
X96780471Y-143341399D01*
X96921207Y-143415263D01*
X97075529Y-143453300D01*
X97075533Y-143453300D01*
X97234467Y-143453300D01*
X97234471Y-143453300D01*
X97388793Y-143415263D01*
X97529529Y-143341399D01*
X97648498Y-143236001D01*
X97738787Y-143105195D01*
X97795149Y-142956582D01*
X97811223Y-142824200D01*
X98019693Y-142824200D01*
X98038851Y-142981982D01*
X98043105Y-142993198D01*
X98077526Y-143083960D01*
X98095213Y-143130595D01*
X98185502Y-143261401D01*
X98185503Y-143261402D01*
X98185504Y-143261403D01*
X98185505Y-143261404D01*
X98304468Y-143366797D01*
X98304469Y-143366798D01*
X98307001Y-143368127D01*
X98445207Y-143440663D01*
X98599529Y-143478700D01*
X98599533Y-143478700D01*
X98758467Y-143478700D01*
X98758471Y-143478700D01*
X98912793Y-143440663D01*
X99053529Y-143366799D01*
X99172498Y-143261401D01*
X99262787Y-143130595D01*
X99319149Y-142981982D01*
X99328433Y-142905514D01*
X99354634Y-142849132D01*
X99398637Y-142824662D01*
X99456297Y-142824662D01*
X99470693Y-142826410D01*
X99516221Y-142868752D01*
X99528166Y-142905513D01*
X99537451Y-142981982D01*
X99541705Y-142993198D01*
X99576126Y-143083960D01*
X99593813Y-143130595D01*
X99684102Y-143261401D01*
X99684103Y-143261402D01*
X99684104Y-143261403D01*
X99684105Y-143261404D01*
X99803068Y-143366797D01*
X99803069Y-143366798D01*
X99805601Y-143368127D01*
X99943807Y-143440663D01*
X100098129Y-143478700D01*
X100098133Y-143478700D01*
X100257067Y-143478700D01*
X100257071Y-143478700D01*
X100411393Y-143440663D01*
X100552129Y-143366799D01*
X100671098Y-143261401D01*
X100761387Y-143130595D01*
X100817749Y-142981982D01*
X100836907Y-142824200D01*
X100817749Y-142666418D01*
X100761387Y-142517805D01*
X100671098Y-142386999D01*
X100671095Y-142386996D01*
X100671094Y-142386995D01*
X100552131Y-142281602D01*
X100552130Y-142281601D01*
X100411395Y-142207738D01*
X100411394Y-142207737D01*
X100411393Y-142207737D01*
X100333146Y-142188451D01*
X100257073Y-142169700D01*
X100257071Y-142169700D01*
X100098129Y-142169700D01*
X100098126Y-142169700D01*
X99997183Y-142194581D01*
X99943807Y-142207737D01*
X99943806Y-142207737D01*
X99943804Y-142207738D01*
X99803069Y-142281601D01*
X99803068Y-142281602D01*
X99684105Y-142386995D01*
X99684104Y-142386996D01*
X99593812Y-142517806D01*
X99558164Y-142611802D01*
X99537451Y-142666418D01*
X99528663Y-142738801D01*
X99528167Y-142742883D01*
X99501966Y-142799267D01*
X99456297Y-142824662D01*
X99398637Y-142824662D01*
X99400302Y-142823736D01*
X99385907Y-142821989D01*
X99340379Y-142779647D01*
X99328433Y-142742883D01*
X99319149Y-142666418D01*
X99262787Y-142517805D01*
X99172498Y-142386999D01*
X99172495Y-142386996D01*
X99172494Y-142386995D01*
X99053531Y-142281602D01*
X99053530Y-142281601D01*
X98912795Y-142207738D01*
X98912794Y-142207737D01*
X98912793Y-142207737D01*
X98834546Y-142188451D01*
X98758473Y-142169700D01*
X98758471Y-142169700D01*
X98599529Y-142169700D01*
X98599526Y-142169700D01*
X98498583Y-142194581D01*
X98445207Y-142207737D01*
X98445206Y-142207737D01*
X98445204Y-142207738D01*
X98304469Y-142281601D01*
X98304468Y-142281602D01*
X98185505Y-142386995D01*
X98185504Y-142386996D01*
X98095212Y-142517806D01*
X98059564Y-142611802D01*
X98038851Y-142666418D01*
X98019693Y-142824200D01*
X97811223Y-142824200D01*
X97814307Y-142798800D01*
X97795149Y-142641018D01*
X97738787Y-142492405D01*
X97648498Y-142361599D01*
X97648495Y-142361596D01*
X97648494Y-142361595D01*
X97529531Y-142256202D01*
X97529530Y-142256201D01*
X97388795Y-142182338D01*
X97388794Y-142182337D01*
X97388793Y-142182337D01*
X97310546Y-142163051D01*
X97234473Y-142144300D01*
X97234471Y-142144300D01*
X97075529Y-142144300D01*
X97075526Y-142144300D01*
X96972477Y-142169700D01*
X96921207Y-142182337D01*
X96921206Y-142182337D01*
X96921204Y-142182338D01*
X96780469Y-142256201D01*
X96780468Y-142256202D01*
X96661505Y-142361595D01*
X96661504Y-142361596D01*
X96571212Y-142492406D01*
X96538220Y-142579399D01*
X96514851Y-142641018D01*
X96495693Y-142798800D01*
X85208023Y-142798800D01*
X85151698Y-142717199D01*
X85151695Y-142717196D01*
X85151694Y-142717195D01*
X85032731Y-142611802D01*
X85032730Y-142611801D01*
X84891995Y-142537938D01*
X84891994Y-142537937D01*
X84891993Y-142537937D01*
X84813747Y-142518651D01*
X84737673Y-142499900D01*
X84737671Y-142499900D01*
X84578729Y-142499900D01*
X84578726Y-142499900D01*
X84464615Y-142528026D01*
X84424407Y-142537937D01*
X84424406Y-142537937D01*
X84424404Y-142537938D01*
X84283669Y-142611801D01*
X84283668Y-142611802D01*
X84164705Y-142717195D01*
X84164704Y-142717196D01*
X84074412Y-142848006D01*
X84033235Y-142956581D01*
X84018051Y-142996618D01*
X83998893Y-143154400D01*
X83422487Y-143154400D01*
X83418749Y-143123618D01*
X83362387Y-142975005D01*
X83272098Y-142844199D01*
X83272095Y-142844196D01*
X83272094Y-142844195D01*
X83153131Y-142738802D01*
X83153130Y-142738801D01*
X83012395Y-142664938D01*
X83012394Y-142664937D01*
X83012393Y-142664937D01*
X82915350Y-142641018D01*
X82858073Y-142626900D01*
X82858071Y-142626900D01*
X82699129Y-142626900D01*
X82699126Y-142626900D01*
X82592178Y-142653261D01*
X82544807Y-142664937D01*
X82544806Y-142664937D01*
X82544804Y-142664938D01*
X82404069Y-142738801D01*
X82404068Y-142738802D01*
X82285105Y-142844195D01*
X82285104Y-142844196D01*
X82194812Y-142975006D01*
X82138451Y-143123618D01*
X82122646Y-143253789D01*
X82119293Y-143281400D01*
X66934398Y-143281400D01*
X66944730Y-143176500D01*
X66925857Y-142984876D01*
X66869962Y-142800617D01*
X66869960Y-142800614D01*
X66869960Y-142800612D01*
X66779198Y-142630808D01*
X66779189Y-142630795D01*
X66657045Y-142481964D01*
X66657041Y-142481959D01*
X66541333Y-142386999D01*
X66508204Y-142359810D01*
X66508191Y-142359801D01*
X66338387Y-142269039D01*
X66154127Y-142213143D01*
X66010405Y-142198988D01*
X65962500Y-142194270D01*
X65962499Y-142194270D01*
X65770872Y-142213143D01*
X65586612Y-142269039D01*
X65416808Y-142359801D01*
X65416795Y-142359810D01*
X65267964Y-142481954D01*
X65267954Y-142481964D01*
X65145810Y-142630795D01*
X65145801Y-142630808D01*
X65055039Y-142800612D01*
X64999143Y-142984872D01*
X64980270Y-143176500D01*
X57425945Y-143176500D01*
X57356862Y-143155716D01*
X57241376Y-143120971D01*
X57021063Y-143088548D01*
X56969769Y-143081000D01*
X56763953Y-143081000D01*
X56763949Y-143081000D01*
X56678980Y-143087219D01*
X56558695Y-143096023D01*
X56558692Y-143096023D01*
X56558687Y-143096024D01*
X56290729Y-143155714D01*
X56290728Y-143155714D01*
X56034306Y-143253786D01*
X56034294Y-143253792D01*
X55794901Y-143388146D01*
X55794880Y-143388159D01*
X55577599Y-143555940D01*
X55577592Y-143555946D01*
X55387045Y-143753584D01*
X55227304Y-143976862D01*
X55101771Y-144221023D01*
X55013129Y-144480854D01*
X54963263Y-144750832D01*
X54953238Y-145025180D01*
X54953238Y-145025187D01*
X52782500Y-145025187D01*
X52782500Y-142176499D01*
X58390270Y-142176499D01*
X58409143Y-142368127D01*
X58465039Y-142552387D01*
X58555801Y-142722191D01*
X58555810Y-142722204D01*
X58676080Y-142868752D01*
X58677959Y-142871041D01*
X58677964Y-142871045D01*
X58826795Y-142993189D01*
X58826808Y-142993198D01*
X58996612Y-143083960D01*
X58996614Y-143083960D01*
X58996617Y-143083962D01*
X59118618Y-143120971D01*
X59180872Y-143139856D01*
X59180873Y-143139856D01*
X59180876Y-143139857D01*
X59372500Y-143158730D01*
X59564124Y-143139857D01*
X59748383Y-143083962D01*
X59753925Y-143081000D01*
X59918191Y-142993198D01*
X59918192Y-142993196D01*
X59918198Y-142993194D01*
X60067041Y-142871041D01*
X60189194Y-142722198D01*
X60205710Y-142691300D01*
X60279960Y-142552387D01*
X60279960Y-142552386D01*
X60279962Y-142552383D01*
X60335857Y-142368124D01*
X60354730Y-142176500D01*
X60335857Y-141984876D01*
X60335856Y-141984872D01*
X60335856Y-141984871D01*
X60335072Y-141980930D01*
X60342380Y-141919186D01*
X60384584Y-141873531D01*
X60445564Y-141861401D01*
X60497557Y-141883539D01*
X60606796Y-141973189D01*
X60606801Y-141973193D01*
X60606808Y-141973198D01*
X60776612Y-142063960D01*
X60776614Y-142063960D01*
X60776617Y-142063962D01*
X60904428Y-142102733D01*
X60960872Y-142119856D01*
X60960873Y-142119856D01*
X60960876Y-142119857D01*
X61152500Y-142138730D01*
X61344124Y-142119857D01*
X61528383Y-142063962D01*
X61579200Y-142036800D01*
X61698191Y-141973198D01*
X61698192Y-141973196D01*
X61698198Y-141973194D01*
X61847041Y-141851041D01*
X61969194Y-141702198D01*
X61980418Y-141681200D01*
X71908493Y-141681200D01*
X71927651Y-141838982D01*
X71984013Y-141987595D01*
X72074302Y-142118401D01*
X72074303Y-142118402D01*
X72074304Y-142118403D01*
X72074305Y-142118404D01*
X72193268Y-142223797D01*
X72193269Y-142223798D01*
X72193271Y-142223799D01*
X72334007Y-142297663D01*
X72488329Y-142335700D01*
X72488333Y-142335700D01*
X72647267Y-142335700D01*
X72647271Y-142335700D01*
X72801593Y-142297663D01*
X72942329Y-142223799D01*
X73061298Y-142118401D01*
X73117623Y-142036800D01*
X85192693Y-142036800D01*
X85211851Y-142194582D01*
X85268213Y-142343195D01*
X85358502Y-142474001D01*
X85358503Y-142474002D01*
X85358504Y-142474003D01*
X85358505Y-142474004D01*
X85477468Y-142579397D01*
X85477469Y-142579398D01*
X85477471Y-142579399D01*
X85618207Y-142653263D01*
X85772529Y-142691300D01*
X85772533Y-142691300D01*
X85931467Y-142691300D01*
X85931471Y-142691300D01*
X86085793Y-142653263D01*
X86226529Y-142579399D01*
X86345498Y-142474001D01*
X86435787Y-142343195D01*
X86492149Y-142194582D01*
X86511307Y-142036800D01*
X86492149Y-141879018D01*
X86435787Y-141730405D01*
X86345498Y-141599599D01*
X86345495Y-141599596D01*
X86345494Y-141599595D01*
X86226531Y-141494202D01*
X86226530Y-141494201D01*
X86085795Y-141420338D01*
X86085794Y-141420337D01*
X86085793Y-141420337D01*
X86007547Y-141401051D01*
X85931473Y-141382300D01*
X85931471Y-141382300D01*
X85772529Y-141382300D01*
X85772526Y-141382300D01*
X85658414Y-141410426D01*
X85618207Y-141420337D01*
X85618206Y-141420337D01*
X85618204Y-141420338D01*
X85477469Y-141494201D01*
X85477468Y-141494202D01*
X85358505Y-141599595D01*
X85358504Y-141599596D01*
X85268212Y-141730406D01*
X85211851Y-141879018D01*
X85198668Y-141987595D01*
X85192693Y-142036800D01*
X73117623Y-142036800D01*
X73151587Y-141987595D01*
X73207949Y-141838982D01*
X73227107Y-141681200D01*
X73207949Y-141523418D01*
X73151587Y-141374805D01*
X73082558Y-141274800D01*
X96495693Y-141274800D01*
X96514851Y-141432582D01*
X96571213Y-141581195D01*
X96661502Y-141712001D01*
X96661503Y-141712002D01*
X96661504Y-141712003D01*
X96661505Y-141712004D01*
X96780468Y-141817397D01*
X96780469Y-141817398D01*
X96780471Y-141817399D01*
X96921207Y-141891263D01*
X97075529Y-141929300D01*
X97075533Y-141929300D01*
X97234467Y-141929300D01*
X97234471Y-141929300D01*
X97388793Y-141891263D01*
X97529529Y-141817399D01*
X97648498Y-141712001D01*
X97738787Y-141581195D01*
X97795149Y-141432582D01*
X97811223Y-141300200D01*
X98019693Y-141300200D01*
X98038851Y-141457982D01*
X98052587Y-141494201D01*
X98092558Y-141599596D01*
X98095213Y-141606595D01*
X98185502Y-141737401D01*
X98185503Y-141737402D01*
X98185504Y-141737403D01*
X98185505Y-141737404D01*
X98304468Y-141842797D01*
X98304469Y-141842798D01*
X98304471Y-141842799D01*
X98445207Y-141916663D01*
X98599529Y-141954700D01*
X98599533Y-141954700D01*
X98758467Y-141954700D01*
X98758471Y-141954700D01*
X98912793Y-141916663D01*
X99053529Y-141842799D01*
X99172498Y-141737401D01*
X99262787Y-141606595D01*
X99319149Y-141457982D01*
X99328433Y-141381514D01*
X99354634Y-141325132D01*
X99398637Y-141300662D01*
X99456297Y-141300662D01*
X99470693Y-141302410D01*
X99516221Y-141344752D01*
X99528166Y-141381513D01*
X99537451Y-141457982D01*
X99551187Y-141494201D01*
X99591158Y-141599596D01*
X99593813Y-141606595D01*
X99684102Y-141737401D01*
X99684103Y-141737402D01*
X99684104Y-141737403D01*
X99684105Y-141737404D01*
X99803068Y-141842797D01*
X99803069Y-141842798D01*
X99803071Y-141842799D01*
X99943807Y-141916663D01*
X100098129Y-141954700D01*
X100098133Y-141954700D01*
X100257067Y-141954700D01*
X100257071Y-141954700D01*
X100411393Y-141916663D01*
X100552129Y-141842799D01*
X100671098Y-141737401D01*
X100761387Y-141606595D01*
X100817749Y-141457982D01*
X100836907Y-141300200D01*
X100817749Y-141142418D01*
X100761387Y-140993805D01*
X100671098Y-140862999D01*
X100671095Y-140862996D01*
X100671094Y-140862995D01*
X100552131Y-140757602D01*
X100552130Y-140757601D01*
X100411395Y-140683738D01*
X100411394Y-140683737D01*
X100411393Y-140683737D01*
X100333147Y-140664451D01*
X100257073Y-140645700D01*
X100257071Y-140645700D01*
X100098129Y-140645700D01*
X100098126Y-140645700D01*
X99984015Y-140673826D01*
X99943807Y-140683737D01*
X99943806Y-140683737D01*
X99943804Y-140683738D01*
X99803069Y-140757601D01*
X99803068Y-140757602D01*
X99684105Y-140862995D01*
X99684104Y-140862996D01*
X99593812Y-140993806D01*
X99560820Y-141080799D01*
X99537451Y-141142418D01*
X99535965Y-141154661D01*
X99528167Y-141218883D01*
X99501966Y-141275267D01*
X99456297Y-141300662D01*
X99398637Y-141300662D01*
X99400302Y-141299736D01*
X99385907Y-141297989D01*
X99340379Y-141255647D01*
X99328433Y-141218883D01*
X99327736Y-141213143D01*
X99319149Y-141142418D01*
X99262787Y-140993805D01*
X99172498Y-140862999D01*
X99172495Y-140862996D01*
X99172494Y-140862995D01*
X99053531Y-140757602D01*
X99053530Y-140757601D01*
X98912795Y-140683738D01*
X98912794Y-140683737D01*
X98912793Y-140683737D01*
X98834546Y-140664451D01*
X98758473Y-140645700D01*
X98758471Y-140645700D01*
X98599529Y-140645700D01*
X98599526Y-140645700D01*
X98485414Y-140673826D01*
X98445207Y-140683737D01*
X98445206Y-140683737D01*
X98445204Y-140683738D01*
X98304469Y-140757601D01*
X98304468Y-140757602D01*
X98185505Y-140862995D01*
X98185504Y-140862996D01*
X98095212Y-140993806D01*
X98038851Y-141142418D01*
X98023477Y-141269039D01*
X98019693Y-141300200D01*
X97811223Y-141300200D01*
X97814307Y-141274800D01*
X97795149Y-141117018D01*
X97738787Y-140968405D01*
X97648498Y-140837599D01*
X97648495Y-140837596D01*
X97648494Y-140837595D01*
X97529531Y-140732202D01*
X97529530Y-140732201D01*
X97388795Y-140658338D01*
X97388794Y-140658337D01*
X97388793Y-140658337D01*
X97310546Y-140639051D01*
X97234473Y-140620300D01*
X97234471Y-140620300D01*
X97075529Y-140620300D01*
X97075526Y-140620300D01*
X96972477Y-140645700D01*
X96921207Y-140658337D01*
X96921206Y-140658337D01*
X96921204Y-140658338D01*
X96780469Y-140732201D01*
X96780468Y-140732202D01*
X96661505Y-140837595D01*
X96661504Y-140837596D01*
X96571212Y-140968406D01*
X96528587Y-141080799D01*
X96514851Y-141117018D01*
X96495693Y-141274800D01*
X73082558Y-141274800D01*
X73061298Y-141243999D01*
X73061295Y-141243996D01*
X73061294Y-141243995D01*
X72942331Y-141138602D01*
X72942330Y-141138601D01*
X72801595Y-141064738D01*
X72801594Y-141064737D01*
X72801593Y-141064737D01*
X72717306Y-141043962D01*
X72647273Y-141026700D01*
X72647271Y-141026700D01*
X72488329Y-141026700D01*
X72488326Y-141026700D01*
X72374215Y-141054826D01*
X72334007Y-141064737D01*
X72334006Y-141064737D01*
X72334004Y-141064738D01*
X72193269Y-141138601D01*
X72193268Y-141138602D01*
X72074305Y-141243995D01*
X72074304Y-141243996D01*
X71984012Y-141374806D01*
X71938732Y-141494201D01*
X71927651Y-141523418D01*
X71908493Y-141681200D01*
X61980418Y-141681200D01*
X62024037Y-141599595D01*
X62059960Y-141532387D01*
X62059960Y-141532386D01*
X62059962Y-141532383D01*
X62115857Y-141348124D01*
X62134730Y-141156500D01*
X62115857Y-140964876D01*
X62115853Y-140964864D01*
X62085117Y-140863540D01*
X62059962Y-140780617D01*
X62059960Y-140780614D01*
X62059960Y-140780612D01*
X61969198Y-140610808D01*
X61969189Y-140610795D01*
X61909611Y-140538200D01*
X70079693Y-140538200D01*
X70097176Y-140682191D01*
X70098851Y-140695981D01*
X70153803Y-140840879D01*
X70155213Y-140844595D01*
X70245502Y-140975401D01*
X70245503Y-140975402D01*
X70245504Y-140975403D01*
X70245505Y-140975404D01*
X70364468Y-141080797D01*
X70364469Y-141080798D01*
X70364471Y-141080799D01*
X70505207Y-141154663D01*
X70659529Y-141192700D01*
X70659533Y-141192700D01*
X70818467Y-141192700D01*
X70818471Y-141192700D01*
X70972793Y-141154663D01*
X71113529Y-141080799D01*
X71232498Y-140975401D01*
X71322787Y-140844595D01*
X71379149Y-140695982D01*
X71398307Y-140538200D01*
X71389055Y-140462000D01*
X93320693Y-140462000D01*
X93339851Y-140619782D01*
X93396213Y-140768395D01*
X93486502Y-140899201D01*
X93486503Y-140899202D01*
X93486504Y-140899203D01*
X93486505Y-140899204D01*
X93605468Y-141004597D01*
X93605469Y-141004598D01*
X93605471Y-141004599D01*
X93746207Y-141078463D01*
X93900529Y-141116500D01*
X93900533Y-141116500D01*
X94059467Y-141116500D01*
X94059471Y-141116500D01*
X94213793Y-141078463D01*
X94354529Y-141004599D01*
X94473498Y-140899201D01*
X94563787Y-140768395D01*
X94620149Y-140619782D01*
X94639307Y-140462000D01*
X94620149Y-140304218D01*
X94563787Y-140155605D01*
X94473498Y-140024799D01*
X94473495Y-140024796D01*
X94473494Y-140024795D01*
X94354531Y-139919402D01*
X94354530Y-139919401D01*
X94213795Y-139845538D01*
X94213794Y-139845537D01*
X94213793Y-139845537D01*
X94115870Y-139821401D01*
X94059473Y-139807500D01*
X94059471Y-139807500D01*
X93900529Y-139807500D01*
X93900526Y-139807500D01*
X93800658Y-139832116D01*
X93746207Y-139845537D01*
X93746206Y-139845537D01*
X93746204Y-139845538D01*
X93605469Y-139919401D01*
X93605468Y-139919402D01*
X93486505Y-140024795D01*
X93486504Y-140024796D01*
X93396212Y-140155606D01*
X93343954Y-140293399D01*
X93339851Y-140304218D01*
X93320693Y-140462000D01*
X71389055Y-140462000D01*
X71379149Y-140380418D01*
X71322787Y-140231805D01*
X71232498Y-140100999D01*
X71232495Y-140100996D01*
X71232494Y-140100995D01*
X71113531Y-139995602D01*
X71113530Y-139995601D01*
X70972795Y-139921738D01*
X70972794Y-139921737D01*
X70972793Y-139921737D01*
X70894547Y-139902451D01*
X70818473Y-139883700D01*
X70818471Y-139883700D01*
X70659529Y-139883700D01*
X70659526Y-139883700D01*
X70558583Y-139908581D01*
X70505207Y-139921737D01*
X70505206Y-139921737D01*
X70505204Y-139921738D01*
X70364469Y-139995601D01*
X70364468Y-139995602D01*
X70245505Y-140100995D01*
X70245504Y-140100996D01*
X70155212Y-140231806D01*
X70114253Y-140339806D01*
X70098851Y-140380418D01*
X70079693Y-140538200D01*
X61909611Y-140538200D01*
X61847045Y-140461964D01*
X61847041Y-140461959D01*
X61847035Y-140461954D01*
X61698204Y-140339810D01*
X61698191Y-140339801D01*
X61528387Y-140249039D01*
X61512113Y-140244102D01*
X61474745Y-140232767D01*
X61423739Y-140197218D01*
X61403369Y-140138475D01*
X61421418Y-140078978D01*
X61470991Y-140041452D01*
X61474724Y-140040239D01*
X61528383Y-140023962D01*
X61561249Y-140006395D01*
X61698191Y-139933198D01*
X61698192Y-139933196D01*
X61698198Y-139933194D01*
X61847041Y-139811041D01*
X61938171Y-139700000D01*
X86716693Y-139700000D01*
X86735851Y-139857782D01*
X86792213Y-140006395D01*
X86882502Y-140137201D01*
X86882503Y-140137202D01*
X86882504Y-140137203D01*
X86882505Y-140137204D01*
X87001468Y-140242597D01*
X87001469Y-140242598D01*
X87001471Y-140242599D01*
X87142207Y-140316463D01*
X87296529Y-140354500D01*
X87296533Y-140354500D01*
X87455467Y-140354500D01*
X87455471Y-140354500D01*
X87609793Y-140316463D01*
X87750529Y-140242599D01*
X87869498Y-140137201D01*
X87959787Y-140006395D01*
X88016149Y-139857782D01*
X88032223Y-139725400D01*
X96495693Y-139725400D01*
X96514851Y-139883182D01*
X96533818Y-139933193D01*
X96568558Y-140024796D01*
X96571213Y-140031795D01*
X96661502Y-140162601D01*
X96661503Y-140162602D01*
X96661504Y-140162603D01*
X96661505Y-140162604D01*
X96780468Y-140267997D01*
X96780469Y-140267998D01*
X96780471Y-140267999D01*
X96921207Y-140341863D01*
X97075529Y-140379900D01*
X97075533Y-140379900D01*
X97234467Y-140379900D01*
X97234471Y-140379900D01*
X97388793Y-140341863D01*
X97529529Y-140267999D01*
X97648498Y-140162601D01*
X97738787Y-140031795D01*
X97795149Y-139883182D01*
X97811223Y-139750800D01*
X98019693Y-139750800D01*
X98038851Y-139908582D01*
X98048185Y-139933193D01*
X98082925Y-140024796D01*
X98095213Y-140057195D01*
X98185502Y-140188001D01*
X98185503Y-140188002D01*
X98185504Y-140188003D01*
X98185505Y-140188004D01*
X98304468Y-140293397D01*
X98304469Y-140293398D01*
X98304471Y-140293399D01*
X98445207Y-140367263D01*
X98599529Y-140405300D01*
X98599533Y-140405300D01*
X98758467Y-140405300D01*
X98758471Y-140405300D01*
X98912793Y-140367263D01*
X99053529Y-140293399D01*
X99172498Y-140188001D01*
X99262787Y-140057195D01*
X99319149Y-139908582D01*
X99328433Y-139832114D01*
X99354634Y-139775732D01*
X99398637Y-139751262D01*
X99456297Y-139751262D01*
X99470693Y-139753010D01*
X99516221Y-139795352D01*
X99528166Y-139832113D01*
X99537451Y-139908582D01*
X99546785Y-139933193D01*
X99581525Y-140024796D01*
X99593813Y-140057195D01*
X99684102Y-140188001D01*
X99684103Y-140188002D01*
X99684104Y-140188003D01*
X99684105Y-140188004D01*
X99803068Y-140293397D01*
X99803069Y-140293398D01*
X99803071Y-140293399D01*
X99943807Y-140367263D01*
X100098129Y-140405300D01*
X100098133Y-140405300D01*
X100257067Y-140405300D01*
X100257071Y-140405300D01*
X100411393Y-140367263D01*
X100552129Y-140293399D01*
X100671098Y-140188001D01*
X100761387Y-140057195D01*
X100817749Y-139908582D01*
X100836907Y-139750800D01*
X100817749Y-139593018D01*
X100761387Y-139444405D01*
X100671098Y-139313599D01*
X100671095Y-139313596D01*
X100671094Y-139313595D01*
X100552131Y-139208202D01*
X100552130Y-139208201D01*
X100411395Y-139134338D01*
X100411394Y-139134337D01*
X100411393Y-139134337D01*
X100331017Y-139114526D01*
X100257073Y-139096300D01*
X100257071Y-139096300D01*
X100098129Y-139096300D01*
X100098126Y-139096300D01*
X99984014Y-139124426D01*
X99943807Y-139134337D01*
X99943806Y-139134337D01*
X99943804Y-139134338D01*
X99803069Y-139208201D01*
X99803068Y-139208202D01*
X99684105Y-139313595D01*
X99684104Y-139313596D01*
X99593812Y-139444406D01*
X99556717Y-139542218D01*
X99537451Y-139593018D01*
X99529051Y-139662204D01*
X99528167Y-139669483D01*
X99501966Y-139725867D01*
X99456297Y-139751262D01*
X99398637Y-139751262D01*
X99400302Y-139750336D01*
X99385907Y-139748589D01*
X99340379Y-139706247D01*
X99328433Y-139669483D01*
X99319149Y-139593018D01*
X99262787Y-139444405D01*
X99172498Y-139313599D01*
X99172495Y-139313596D01*
X99172494Y-139313595D01*
X99053531Y-139208202D01*
X99053530Y-139208201D01*
X98912795Y-139134338D01*
X98912794Y-139134337D01*
X98912793Y-139134337D01*
X98832417Y-139114526D01*
X98758473Y-139096300D01*
X98758471Y-139096300D01*
X98599529Y-139096300D01*
X98599526Y-139096300D01*
X98485415Y-139124426D01*
X98445207Y-139134337D01*
X98445206Y-139134337D01*
X98445204Y-139134338D01*
X98304469Y-139208201D01*
X98304468Y-139208202D01*
X98185505Y-139313595D01*
X98185504Y-139313596D01*
X98095212Y-139444406D01*
X98058117Y-139542218D01*
X98038851Y-139593018D01*
X98019693Y-139750800D01*
X97811223Y-139750800D01*
X97814307Y-139725400D01*
X97795149Y-139567618D01*
X97738787Y-139419005D01*
X97648498Y-139288199D01*
X97648495Y-139288196D01*
X97648494Y-139288195D01*
X97529531Y-139182802D01*
X97529530Y-139182801D01*
X97388795Y-139108938D01*
X97388794Y-139108937D01*
X97388793Y-139108937D01*
X97310546Y-139089651D01*
X97234473Y-139070900D01*
X97234471Y-139070900D01*
X97075529Y-139070900D01*
X97075526Y-139070900D01*
X96972477Y-139096300D01*
X96921207Y-139108937D01*
X96921206Y-139108937D01*
X96921204Y-139108938D01*
X96780469Y-139182801D01*
X96780468Y-139182802D01*
X96661505Y-139288195D01*
X96661504Y-139288196D01*
X96571212Y-139419006D01*
X96524484Y-139542218D01*
X96514851Y-139567618D01*
X96495693Y-139725400D01*
X88032223Y-139725400D01*
X88035307Y-139700000D01*
X88016149Y-139542218D01*
X87959787Y-139393605D01*
X87869498Y-139262799D01*
X87869495Y-139262796D01*
X87869494Y-139262795D01*
X87750531Y-139157402D01*
X87750530Y-139157401D01*
X87609795Y-139083538D01*
X87609794Y-139083537D01*
X87609793Y-139083537D01*
X87513720Y-139059857D01*
X87455473Y-139045500D01*
X87455471Y-139045500D01*
X87296529Y-139045500D01*
X87296526Y-139045500D01*
X87193477Y-139070900D01*
X87142207Y-139083537D01*
X87142206Y-139083537D01*
X87142204Y-139083538D01*
X87001469Y-139157401D01*
X87001468Y-139157402D01*
X86882505Y-139262795D01*
X86882504Y-139262796D01*
X86792212Y-139393606D01*
X86735851Y-139542218D01*
X86716693Y-139700000D01*
X61938171Y-139700000D01*
X61969194Y-139662198D01*
X62006172Y-139593018D01*
X62059960Y-139492387D01*
X62059960Y-139492386D01*
X62059962Y-139492383D01*
X62115857Y-139308124D01*
X62134730Y-139116500D01*
X62115857Y-138924876D01*
X62115853Y-138924864D01*
X62059960Y-138740612D01*
X61969198Y-138570808D01*
X61969189Y-138570795D01*
X61853640Y-138430000D01*
X93701693Y-138430000D01*
X93720851Y-138587782D01*
X93777213Y-138736395D01*
X93867502Y-138867201D01*
X93867503Y-138867202D01*
X93867504Y-138867203D01*
X93867505Y-138867204D01*
X93986468Y-138972597D01*
X93986469Y-138972598D01*
X93986471Y-138972599D01*
X94127207Y-139046463D01*
X94281529Y-139084500D01*
X94281533Y-139084500D01*
X94440467Y-139084500D01*
X94440471Y-139084500D01*
X94594793Y-139046463D01*
X94735529Y-138972599D01*
X94854498Y-138867201D01*
X94944787Y-138736395D01*
X95001149Y-138587782D01*
X95020307Y-138430000D01*
X95001149Y-138272218D01*
X94944787Y-138123605D01*
X94854498Y-137992799D01*
X94854495Y-137992796D01*
X94854494Y-137992795D01*
X94735531Y-137887402D01*
X94735530Y-137887401D01*
X94594795Y-137813538D01*
X94594794Y-137813537D01*
X94594793Y-137813537D01*
X94513626Y-137793531D01*
X94440473Y-137775500D01*
X94440471Y-137775500D01*
X94281529Y-137775500D01*
X94281526Y-137775500D01*
X94167766Y-137803540D01*
X94127207Y-137813537D01*
X94127206Y-137813537D01*
X94127204Y-137813538D01*
X93986469Y-137887401D01*
X93986468Y-137887402D01*
X93867505Y-137992795D01*
X93867504Y-137992796D01*
X93777212Y-138123606D01*
X93744812Y-138209038D01*
X93720851Y-138272218D01*
X93701693Y-138430000D01*
X61853640Y-138430000D01*
X61847045Y-138421964D01*
X61847041Y-138421959D01*
X61847035Y-138421954D01*
X61698204Y-138299810D01*
X61698191Y-138299801D01*
X61528387Y-138209039D01*
X61512113Y-138204102D01*
X61474745Y-138192767D01*
X61423739Y-138157218D01*
X61403369Y-138098475D01*
X61421418Y-138038978D01*
X61470991Y-138001452D01*
X61474724Y-138000239D01*
X61528383Y-137983962D01*
X61698198Y-137893194D01*
X61847041Y-137771041D01*
X61969194Y-137622198D01*
X62052473Y-137466395D01*
X62059960Y-137452387D01*
X62059960Y-137452386D01*
X62059962Y-137452383D01*
X62115857Y-137268124D01*
X62134730Y-137076500D01*
X62115857Y-136884876D01*
X62115853Y-136884864D01*
X62097583Y-136824637D01*
X62059962Y-136700617D01*
X62059960Y-136700614D01*
X62059960Y-136700612D01*
X62020400Y-136626600D01*
X65355293Y-136626600D01*
X65374451Y-136784382D01*
X65430813Y-136932995D01*
X65521102Y-137063801D01*
X65521103Y-137063802D01*
X65521104Y-137063803D01*
X65521105Y-137063804D01*
X65640068Y-137169197D01*
X65640069Y-137169198D01*
X65640071Y-137169199D01*
X65780807Y-137243063D01*
X65935129Y-137281100D01*
X65935133Y-137281100D01*
X66094067Y-137281100D01*
X66094071Y-137281100D01*
X66248393Y-137243063D01*
X66389129Y-137169199D01*
X66508098Y-137063801D01*
X66598387Y-136932995D01*
X66654749Y-136784382D01*
X66672948Y-136634500D01*
X68284193Y-136634500D01*
X68303351Y-136792282D01*
X68359713Y-136940895D01*
X68450002Y-137071701D01*
X68450003Y-137071702D01*
X68450004Y-137071703D01*
X68450005Y-137071704D01*
X68568968Y-137177097D01*
X68568969Y-137177098D01*
X68568971Y-137177099D01*
X68709707Y-137250963D01*
X68864029Y-137289000D01*
X68864033Y-137289000D01*
X69022967Y-137289000D01*
X69022971Y-137289000D01*
X69177293Y-137250963D01*
X69318029Y-137177099D01*
X69337330Y-137160000D01*
X85827693Y-137160000D01*
X85846851Y-137317782D01*
X85903213Y-137466395D01*
X85993502Y-137597201D01*
X85993503Y-137597202D01*
X85993504Y-137597203D01*
X85993505Y-137597204D01*
X86112468Y-137702597D01*
X86112469Y-137702598D01*
X86112471Y-137702599D01*
X86253207Y-137776463D01*
X86407529Y-137814500D01*
X86407533Y-137814500D01*
X86566467Y-137814500D01*
X86566471Y-137814500D01*
X86720793Y-137776463D01*
X86861529Y-137702599D01*
X86980498Y-137597201D01*
X87070787Y-137466395D01*
X87127149Y-137317782D01*
X87146307Y-137160000D01*
X104369693Y-137160000D01*
X104388851Y-137317782D01*
X104445213Y-137466395D01*
X104535502Y-137597201D01*
X104535503Y-137597202D01*
X104535504Y-137597203D01*
X104535505Y-137597204D01*
X104654468Y-137702597D01*
X104654469Y-137702598D01*
X104654471Y-137702599D01*
X104795207Y-137776463D01*
X104949529Y-137814500D01*
X104949533Y-137814500D01*
X105108467Y-137814500D01*
X105108471Y-137814500D01*
X105262793Y-137776463D01*
X105403529Y-137702599D01*
X105522498Y-137597201D01*
X105612787Y-137466395D01*
X105669149Y-137317782D01*
X105688307Y-137160000D01*
X105669149Y-137002218D01*
X105612787Y-136853605D01*
X105522498Y-136722799D01*
X105522495Y-136722796D01*
X105522494Y-136722795D01*
X105403531Y-136617402D01*
X105403530Y-136617401D01*
X105262795Y-136543538D01*
X105262794Y-136543537D01*
X105262793Y-136543537D01*
X105184547Y-136524251D01*
X105108473Y-136505500D01*
X105108471Y-136505500D01*
X104949529Y-136505500D01*
X104949526Y-136505500D01*
X104835414Y-136533626D01*
X104795207Y-136543537D01*
X104795206Y-136543537D01*
X104795204Y-136543538D01*
X104654469Y-136617401D01*
X104654468Y-136617402D01*
X104535505Y-136722795D01*
X104535504Y-136722796D01*
X104445212Y-136853606D01*
X104388850Y-137002218D01*
X104388851Y-137002218D01*
X104369693Y-137160000D01*
X87146307Y-137160000D01*
X87127149Y-137002218D01*
X87070787Y-136853605D01*
X86980498Y-136722799D01*
X86980495Y-136722796D01*
X86980494Y-136722795D01*
X86861531Y-136617402D01*
X86861530Y-136617401D01*
X86720795Y-136543538D01*
X86720794Y-136543537D01*
X86720793Y-136543537D01*
X86642546Y-136524251D01*
X86566473Y-136505500D01*
X86566471Y-136505500D01*
X86407529Y-136505500D01*
X86407526Y-136505500D01*
X86293414Y-136533626D01*
X86253207Y-136543537D01*
X86253206Y-136543537D01*
X86253204Y-136543538D01*
X86112469Y-136617401D01*
X86112468Y-136617402D01*
X85993505Y-136722795D01*
X85993504Y-136722796D01*
X85903212Y-136853606D01*
X85846851Y-137002218D01*
X85833246Y-137114270D01*
X85827693Y-137160000D01*
X69337330Y-137160000D01*
X69436998Y-137071701D01*
X69527287Y-136940895D01*
X69583649Y-136792282D01*
X69602807Y-136634500D01*
X69583649Y-136476718D01*
X69527287Y-136328105D01*
X69436998Y-136197299D01*
X69436995Y-136197296D01*
X69436994Y-136197295D01*
X69318031Y-136091902D01*
X69318026Y-136091899D01*
X69268313Y-136065807D01*
X69224884Y-136021315D01*
X69215901Y-135959793D01*
X69244795Y-135904741D01*
X69290989Y-135879055D01*
X69321793Y-135871463D01*
X69462529Y-135797599D01*
X69581498Y-135692201D01*
X69671787Y-135561395D01*
X69728149Y-135412782D01*
X69747307Y-135255000D01*
X78461693Y-135255000D01*
X78480851Y-135412782D01*
X78537213Y-135561395D01*
X78627502Y-135692201D01*
X78627503Y-135692202D01*
X78627504Y-135692203D01*
X78627505Y-135692204D01*
X78746468Y-135797597D01*
X78746469Y-135797598D01*
X78746471Y-135797599D01*
X78887207Y-135871463D01*
X79041529Y-135909500D01*
X79041533Y-135909500D01*
X79200467Y-135909500D01*
X79200471Y-135909500D01*
X79354793Y-135871463D01*
X79495529Y-135797599D01*
X79614498Y-135692201D01*
X79704787Y-135561395D01*
X79761149Y-135412782D01*
X79780307Y-135255000D01*
X79761149Y-135097218D01*
X79704787Y-134948605D01*
X79614498Y-134817799D01*
X79614495Y-134817796D01*
X79614494Y-134817795D01*
X79547902Y-134758800D01*
X79516382Y-134705208D01*
X79522383Y-134643324D01*
X79547902Y-134608200D01*
X79614498Y-134549201D01*
X79704787Y-134418395D01*
X79761149Y-134269782D01*
X79780307Y-134112000D01*
X79761149Y-133954218D01*
X79704787Y-133805605D01*
X79614498Y-133674799D01*
X79614495Y-133674796D01*
X79614494Y-133674795D01*
X79547902Y-133615800D01*
X79516382Y-133562208D01*
X79522383Y-133500324D01*
X79547902Y-133465200D01*
X79554432Y-133459415D01*
X79614498Y-133406201D01*
X79653291Y-133350000D01*
X86716693Y-133350000D01*
X86735851Y-133507782D01*
X86792213Y-133656395D01*
X86882502Y-133787201D01*
X86882503Y-133787202D01*
X86882504Y-133787203D01*
X86882505Y-133787204D01*
X87001468Y-133892597D01*
X87001469Y-133892598D01*
X87001471Y-133892599D01*
X87142207Y-133966463D01*
X87296529Y-134004500D01*
X87296533Y-134004500D01*
X87455467Y-134004500D01*
X87455471Y-134004500D01*
X87609793Y-133966463D01*
X87750529Y-133892599D01*
X87869498Y-133787201D01*
X87959787Y-133656395D01*
X88016149Y-133507782D01*
X88032223Y-133375400D01*
X103074293Y-133375400D01*
X103093451Y-133533182D01*
X103104274Y-133561720D01*
X103147158Y-133674796D01*
X103149813Y-133681795D01*
X103240102Y-133812601D01*
X103240103Y-133812602D01*
X103240104Y-133812603D01*
X103240105Y-133812604D01*
X103359068Y-133917997D01*
X103359069Y-133917998D01*
X103359071Y-133917999D01*
X103499807Y-133991863D01*
X103654129Y-134029900D01*
X103654133Y-134029900D01*
X103813067Y-134029900D01*
X103813071Y-134029900D01*
X103967393Y-133991863D01*
X104108129Y-133917999D01*
X104227098Y-133812601D01*
X104317387Y-133681795D01*
X104373749Y-133533182D01*
X104392907Y-133375400D01*
X104373749Y-133217618D01*
X104317387Y-133069005D01*
X104227098Y-132938199D01*
X104227095Y-132938196D01*
X104227094Y-132938195D01*
X104108131Y-132832802D01*
X104108130Y-132832801D01*
X103967395Y-132758938D01*
X103967394Y-132758937D01*
X103967393Y-132758937D01*
X103889147Y-132739651D01*
X103813073Y-132720900D01*
X103813071Y-132720900D01*
X103654129Y-132720900D01*
X103654126Y-132720900D01*
X103540014Y-132749026D01*
X103499807Y-132758937D01*
X103499806Y-132758937D01*
X103499804Y-132758938D01*
X103359069Y-132832801D01*
X103359068Y-132832802D01*
X103240105Y-132938195D01*
X103240104Y-132938196D01*
X103149812Y-133069006D01*
X103093451Y-133217618D01*
X103077293Y-133350696D01*
X103074293Y-133375400D01*
X88032223Y-133375400D01*
X88035307Y-133350000D01*
X88016149Y-133192218D01*
X87959787Y-133043605D01*
X87869498Y-132912799D01*
X87869495Y-132912796D01*
X87869494Y-132912795D01*
X87750531Y-132807402D01*
X87750530Y-132807401D01*
X87609795Y-132733538D01*
X87609794Y-132733537D01*
X87609793Y-132733537D01*
X87513716Y-132709856D01*
X87455473Y-132695500D01*
X87455471Y-132695500D01*
X87296529Y-132695500D01*
X87296526Y-132695500D01*
X87193477Y-132720900D01*
X87142207Y-132733537D01*
X87142206Y-132733537D01*
X87142204Y-132733538D01*
X87001469Y-132807401D01*
X87001468Y-132807402D01*
X86882505Y-132912795D01*
X86882504Y-132912796D01*
X86792212Y-133043606D01*
X86764623Y-133116352D01*
X86735851Y-133192218D01*
X86716693Y-133350000D01*
X79653291Y-133350000D01*
X79704787Y-133275395D01*
X79761149Y-133126782D01*
X79780307Y-132969000D01*
X79761149Y-132811218D01*
X79704787Y-132662605D01*
X79614498Y-132531799D01*
X79614495Y-132531796D01*
X79614494Y-132531795D01*
X79495531Y-132426402D01*
X79495530Y-132426401D01*
X79415471Y-132384383D01*
X79368205Y-132359576D01*
X79324776Y-132315085D01*
X79315793Y-132253563D01*
X79344687Y-132198511D01*
X79368204Y-132181424D01*
X79495529Y-132114599D01*
X79614498Y-132009201D01*
X79704787Y-131878395D01*
X79761149Y-131729782D01*
X79780307Y-131572000D01*
X79761149Y-131414218D01*
X79704787Y-131265605D01*
X79614498Y-131134799D01*
X79614495Y-131134796D01*
X79614494Y-131134795D01*
X79495531Y-131029402D01*
X79495530Y-131029401D01*
X79354795Y-130955538D01*
X79354794Y-130955537D01*
X79354793Y-130955537D01*
X79250415Y-130929810D01*
X79200473Y-130917500D01*
X79200471Y-130917500D01*
X79041529Y-130917500D01*
X79041526Y-130917500D01*
X78927414Y-130945626D01*
X78887207Y-130955537D01*
X78887206Y-130955537D01*
X78887204Y-130955538D01*
X78746469Y-131029401D01*
X78746468Y-131029402D01*
X78627505Y-131134795D01*
X78627504Y-131134796D01*
X78537212Y-131265606D01*
X78532943Y-131276863D01*
X78480851Y-131414218D01*
X78461693Y-131572000D01*
X78480851Y-131729782D01*
X78537213Y-131878395D01*
X78627502Y-132009201D01*
X78627503Y-132009202D01*
X78627504Y-132009203D01*
X78627505Y-132009204D01*
X78746468Y-132114597D01*
X78746469Y-132114598D01*
X78873793Y-132181423D01*
X78917223Y-132225915D01*
X78926206Y-132287437D01*
X78897312Y-132342489D01*
X78873793Y-132359577D01*
X78746469Y-132426401D01*
X78746468Y-132426402D01*
X78627505Y-132531795D01*
X78627504Y-132531796D01*
X78537212Y-132662606D01*
X78510311Y-132733538D01*
X78480851Y-132811218D01*
X78461693Y-132969000D01*
X78480851Y-133126782D01*
X78537213Y-133275395D01*
X78627502Y-133406201D01*
X78627503Y-133406202D01*
X78627504Y-133406203D01*
X78627505Y-133406204D01*
X78694097Y-133465199D01*
X78725617Y-133518791D01*
X78719616Y-133580675D01*
X78694098Y-133615798D01*
X78627506Y-133674794D01*
X78627504Y-133674796D01*
X78537212Y-133805606D01*
X78480851Y-133954218D01*
X78468337Y-134057285D01*
X78461693Y-134112000D01*
X78480851Y-134269782D01*
X78537213Y-134418395D01*
X78627502Y-134549201D01*
X78627503Y-134549202D01*
X78627504Y-134549203D01*
X78627505Y-134549204D01*
X78694097Y-134608200D01*
X78725617Y-134661793D01*
X78719616Y-134723677D01*
X78694097Y-134758800D01*
X78627505Y-134817795D01*
X78627504Y-134817796D01*
X78537212Y-134948606D01*
X78489554Y-135074270D01*
X78480851Y-135097218D01*
X78461693Y-135255000D01*
X69747307Y-135255000D01*
X69728149Y-135097218D01*
X69671787Y-134948605D01*
X69581498Y-134817799D01*
X69581495Y-134817796D01*
X69581494Y-134817795D01*
X69514902Y-134758800D01*
X69483382Y-134705208D01*
X69489383Y-134643324D01*
X69514902Y-134608200D01*
X69581498Y-134549201D01*
X69671787Y-134418395D01*
X69728149Y-134269782D01*
X69747307Y-134112000D01*
X69728149Y-133954218D01*
X69671787Y-133805605D01*
X69581498Y-133674799D01*
X69581495Y-133674796D01*
X69581494Y-133674795D01*
X69514902Y-133615800D01*
X69483382Y-133562208D01*
X69489383Y-133500324D01*
X69514902Y-133465200D01*
X69521432Y-133459415D01*
X69581498Y-133406201D01*
X69671787Y-133275395D01*
X69728149Y-133126782D01*
X69747307Y-132969000D01*
X69728149Y-132811218D01*
X69671787Y-132662605D01*
X69581498Y-132531799D01*
X69581495Y-132531796D01*
X69581494Y-132531795D01*
X69462531Y-132426402D01*
X69462530Y-132426401D01*
X69321795Y-132352538D01*
X69321794Y-132352537D01*
X69321793Y-132352537D01*
X69243547Y-132333251D01*
X69167473Y-132314500D01*
X69167471Y-132314500D01*
X69008529Y-132314500D01*
X69008526Y-132314500D01*
X68894973Y-132342489D01*
X68854207Y-132352537D01*
X68854206Y-132352537D01*
X68854204Y-132352538D01*
X68713469Y-132426401D01*
X68713468Y-132426402D01*
X68594505Y-132531795D01*
X68594504Y-132531796D01*
X68504212Y-132662606D01*
X68477311Y-132733538D01*
X68447851Y-132811218D01*
X68428693Y-132969000D01*
X68447851Y-133126782D01*
X68504213Y-133275395D01*
X68594502Y-133406201D01*
X68594503Y-133406202D01*
X68594504Y-133406203D01*
X68594505Y-133406204D01*
X68661097Y-133465200D01*
X68692617Y-133518793D01*
X68686616Y-133580677D01*
X68661097Y-133615800D01*
X68594505Y-133674795D01*
X68594504Y-133674796D01*
X68504212Y-133805606D01*
X68447851Y-133954218D01*
X68435337Y-134057285D01*
X68428693Y-134112000D01*
X68447851Y-134269782D01*
X68504213Y-134418395D01*
X68594502Y-134549201D01*
X68594503Y-134549202D01*
X68594504Y-134549203D01*
X68594505Y-134549204D01*
X68661097Y-134608200D01*
X68692617Y-134661793D01*
X68686616Y-134723677D01*
X68661097Y-134758800D01*
X68594505Y-134817795D01*
X68594504Y-134817796D01*
X68504212Y-134948606D01*
X68456554Y-135074270D01*
X68447851Y-135097218D01*
X68428693Y-135255000D01*
X68447851Y-135412782D01*
X68504213Y-135561395D01*
X68594502Y-135692201D01*
X68594503Y-135692202D01*
X68594504Y-135692203D01*
X68594505Y-135692204D01*
X68713468Y-135797597D01*
X68713469Y-135797598D01*
X68763185Y-135823691D01*
X68806615Y-135868183D01*
X68815598Y-135929705D01*
X68786704Y-135984757D01*
X68740511Y-136010444D01*
X68709708Y-136018036D01*
X68709704Y-136018038D01*
X68568969Y-136091901D01*
X68568968Y-136091902D01*
X68450005Y-136197295D01*
X68450004Y-136197296D01*
X68359712Y-136328106D01*
X68320165Y-136432383D01*
X68303351Y-136476718D01*
X68284193Y-136634500D01*
X66672948Y-136634500D01*
X66673907Y-136626600D01*
X66654749Y-136468818D01*
X66598387Y-136320205D01*
X66508098Y-136189399D01*
X66508095Y-136189396D01*
X66508094Y-136189395D01*
X66389131Y-136084002D01*
X66389130Y-136084001D01*
X66248395Y-136010138D01*
X66248394Y-136010137D01*
X66248393Y-136010137D01*
X66170147Y-135990851D01*
X66094073Y-135972100D01*
X66094071Y-135972100D01*
X65935129Y-135972100D01*
X65935126Y-135972100D01*
X65839043Y-135995783D01*
X65780807Y-136010137D01*
X65780806Y-136010137D01*
X65780804Y-136010138D01*
X65640069Y-136084001D01*
X65640068Y-136084002D01*
X65521105Y-136189395D01*
X65521104Y-136189396D01*
X65430812Y-136320206D01*
X65374451Y-136468817D01*
X65374451Y-136468818D01*
X65355293Y-136626600D01*
X62020400Y-136626600D01*
X61969198Y-136530808D01*
X61969189Y-136530795D01*
X61847045Y-136381964D01*
X61847041Y-136381959D01*
X61847035Y-136381954D01*
X61698204Y-136259810D01*
X61698191Y-136259801D01*
X61528387Y-136169039D01*
X61512113Y-136164102D01*
X61474745Y-136152767D01*
X61423739Y-136117218D01*
X61403369Y-136058475D01*
X61421418Y-135998978D01*
X61470991Y-135961452D01*
X61474724Y-135960239D01*
X61528383Y-135943962D01*
X61592859Y-135909499D01*
X61698191Y-135853198D01*
X61698192Y-135853196D01*
X61698198Y-135853194D01*
X61847041Y-135731041D01*
X61969194Y-135582198D01*
X61980314Y-135561395D01*
X62059960Y-135412387D01*
X62059960Y-135412386D01*
X62059962Y-135412383D01*
X62115857Y-135228124D01*
X62134730Y-135036500D01*
X62115857Y-134844876D01*
X62059962Y-134660617D01*
X62059960Y-134660614D01*
X62059960Y-134660612D01*
X61969198Y-134490808D01*
X61969189Y-134490795D01*
X61847045Y-134341964D01*
X61847041Y-134341959D01*
X61759094Y-134269782D01*
X61698204Y-134219810D01*
X61698191Y-134219801D01*
X61528387Y-134129039D01*
X61344127Y-134073143D01*
X61152500Y-134054270D01*
X60960872Y-134073143D01*
X60776612Y-134129039D01*
X60606808Y-134219801D01*
X60606795Y-134219810D01*
X60457964Y-134341954D01*
X60457954Y-134341964D01*
X60335810Y-134490795D01*
X60335801Y-134490808D01*
X60245039Y-134660612D01*
X60189143Y-134844872D01*
X60170270Y-135036499D01*
X60189144Y-135228130D01*
X60189929Y-135232078D01*
X60182615Y-135293821D01*
X60140407Y-135339473D01*
X60079427Y-135351597D01*
X60027440Y-135329459D01*
X59918198Y-135239806D01*
X59918191Y-135239801D01*
X59748387Y-135149039D01*
X59564127Y-135093143D01*
X59372500Y-135074270D01*
X59180872Y-135093143D01*
X58996612Y-135149039D01*
X58826808Y-135239801D01*
X58826795Y-135239810D01*
X58677964Y-135361954D01*
X58677954Y-135361964D01*
X58555810Y-135510795D01*
X58555801Y-135510808D01*
X58465039Y-135680612D01*
X58409143Y-135864872D01*
X58390270Y-136056500D01*
X58409143Y-136248127D01*
X58465039Y-136432387D01*
X58555801Y-136602191D01*
X58555810Y-136602204D01*
X58654778Y-136722795D01*
X58677959Y-136751041D01*
X58677964Y-136751045D01*
X58826795Y-136873189D01*
X58826808Y-136873198D01*
X58996612Y-136963960D01*
X58996614Y-136963960D01*
X58996617Y-136963962D01*
X59050252Y-136980232D01*
X59101260Y-137015783D01*
X59121630Y-137074526D01*
X59103581Y-137134022D01*
X59054008Y-137171548D01*
X59050260Y-137172765D01*
X59036017Y-137177085D01*
X58996612Y-137189039D01*
X58826808Y-137279801D01*
X58826795Y-137279810D01*
X58677964Y-137401954D01*
X58677954Y-137401964D01*
X58555810Y-137550795D01*
X58555801Y-137550808D01*
X58465039Y-137720612D01*
X58409143Y-137904872D01*
X58390270Y-138096500D01*
X58409143Y-138288127D01*
X58465039Y-138472387D01*
X58555801Y-138642191D01*
X58555810Y-138642204D01*
X58677954Y-138791035D01*
X58677959Y-138791041D01*
X58677964Y-138791045D01*
X58826795Y-138913189D01*
X58826808Y-138913198D01*
X58996612Y-139003960D01*
X58996614Y-139003960D01*
X58996617Y-139003962D01*
X59050252Y-139020232D01*
X59101260Y-139055783D01*
X59121630Y-139114526D01*
X59103581Y-139174022D01*
X59054008Y-139211548D01*
X59050260Y-139212765D01*
X59036017Y-139217085D01*
X58996612Y-139229039D01*
X58826808Y-139319801D01*
X58826795Y-139319810D01*
X58677964Y-139441954D01*
X58677954Y-139441964D01*
X58555810Y-139590795D01*
X58555801Y-139590808D01*
X58465039Y-139760612D01*
X58409143Y-139944872D01*
X58390270Y-140136500D01*
X58409143Y-140328127D01*
X58465039Y-140512387D01*
X58555801Y-140682191D01*
X58555810Y-140682204D01*
X58677954Y-140831035D01*
X58677959Y-140831041D01*
X58677964Y-140831045D01*
X58826795Y-140953189D01*
X58826808Y-140953198D01*
X58996612Y-141043960D01*
X58996614Y-141043960D01*
X58996617Y-141043962D01*
X59050252Y-141060232D01*
X59101260Y-141095783D01*
X59121630Y-141154526D01*
X59103581Y-141214022D01*
X59054008Y-141251548D01*
X59050260Y-141252765D01*
X59040761Y-141255647D01*
X58996612Y-141269039D01*
X58826808Y-141359801D01*
X58826795Y-141359810D01*
X58677964Y-141481954D01*
X58677954Y-141481964D01*
X58555810Y-141630795D01*
X58555801Y-141630808D01*
X58465039Y-141800612D01*
X58409143Y-141984872D01*
X58390270Y-142176499D01*
X52782500Y-142176499D01*
X52782500Y-132325187D01*
X54953238Y-132325187D01*
X54983263Y-132598071D01*
X55052704Y-132863682D01*
X55160077Y-133116353D01*
X55257138Y-133275393D01*
X55303095Y-133350696D01*
X55461051Y-133540500D01*
X55478711Y-133561720D01*
X55478715Y-133561725D01*
X55683179Y-133744925D01*
X55912138Y-133896403D01*
X55912143Y-133896405D01*
X56160709Y-134012928D01*
X56160713Y-134012929D01*
X56160721Y-134012933D01*
X56423619Y-134092027D01*
X56423620Y-134092027D01*
X56423623Y-134092028D01*
X56559326Y-134111999D01*
X56695231Y-134132000D01*
X56695233Y-134132000D01*
X56901051Y-134132000D01*
X56934802Y-134129529D01*
X57106305Y-134116977D01*
X57374275Y-134057284D01*
X57428620Y-134036499D01*
X64980270Y-134036499D01*
X64999143Y-134228127D01*
X65055039Y-134412387D01*
X65145801Y-134582191D01*
X65145810Y-134582204D01*
X65167145Y-134608200D01*
X65267959Y-134731041D01*
X65267964Y-134731045D01*
X65416795Y-134853189D01*
X65416808Y-134853198D01*
X65586612Y-134943960D01*
X65586614Y-134943960D01*
X65586617Y-134943962D01*
X65714428Y-134982733D01*
X65770872Y-134999856D01*
X65770873Y-134999856D01*
X65770876Y-134999857D01*
X65962500Y-135018730D01*
X66154124Y-134999857D01*
X66338383Y-134943962D01*
X66508198Y-134853194D01*
X66657041Y-134731041D01*
X66779194Y-134582198D01*
X66869962Y-134412383D01*
X66925857Y-134228124D01*
X66944730Y-134036500D01*
X66925857Y-133844876D01*
X66913944Y-133805606D01*
X66876386Y-133681795D01*
X66869962Y-133660617D01*
X66869960Y-133660614D01*
X66869960Y-133660612D01*
X66779198Y-133490808D01*
X66779189Y-133490795D01*
X66657045Y-133341964D01*
X66657041Y-133341959D01*
X66657035Y-133341954D01*
X66508204Y-133219810D01*
X66508191Y-133219801D01*
X66338387Y-133129039D01*
X66154127Y-133073143D01*
X65962500Y-133054270D01*
X65770872Y-133073143D01*
X65586612Y-133129039D01*
X65416808Y-133219801D01*
X65416795Y-133219810D01*
X65267964Y-133341954D01*
X65267954Y-133341964D01*
X65145810Y-133490795D01*
X65145801Y-133490808D01*
X65055039Y-133660612D01*
X64999143Y-133844872D01*
X64980270Y-134036499D01*
X57428620Y-134036499D01*
X57630698Y-133959211D01*
X57870109Y-133824847D01*
X57870114Y-133824842D01*
X57870119Y-133824840D01*
X57973614Y-133744923D01*
X58087404Y-133657057D01*
X58277954Y-133459416D01*
X58437696Y-133236137D01*
X58563227Y-132991979D01*
X58651870Y-132732146D01*
X58701736Y-132462174D01*
X58711762Y-132187820D01*
X58691887Y-132007188D01*
X58681736Y-131914928D01*
X58646089Y-131778579D01*
X58612296Y-131649318D01*
X58504923Y-131396648D01*
X58489033Y-131370612D01*
X58389292Y-131207180D01*
X58361905Y-131162304D01*
X58186291Y-130951282D01*
X58186288Y-130951279D01*
X58186284Y-130951274D01*
X57981820Y-130768074D01*
X57752861Y-130616596D01*
X57752856Y-130616594D01*
X57504290Y-130500071D01*
X57504284Y-130500069D01*
X57504281Y-130500068D01*
X57504279Y-130500067D01*
X57425945Y-130476500D01*
X58783039Y-130476500D01*
X58802853Y-130728272D01*
X58802854Y-130728278D01*
X58861810Y-130973849D01*
X58958457Y-131207174D01*
X58958459Y-131207180D01*
X59090420Y-131422519D01*
X59090423Y-131422522D01*
X59254436Y-131614558D01*
X59254441Y-131614563D01*
X59446477Y-131778576D01*
X59446480Y-131778579D01*
X59661819Y-131910540D01*
X59661825Y-131910542D01*
X59895150Y-132007189D01*
X60128535Y-132063219D01*
X60140725Y-132066146D01*
X60392500Y-132085961D01*
X60644275Y-132066146D01*
X60730196Y-132045517D01*
X60889849Y-132007189D01*
X60950794Y-131981944D01*
X61123180Y-131910540D01*
X61338517Y-131778581D01*
X61376079Y-131746500D01*
X64980270Y-131746500D01*
X64999143Y-131938127D01*
X65055039Y-132122387D01*
X65145801Y-132292191D01*
X65145810Y-132292204D01*
X65255944Y-132426401D01*
X65267959Y-132441041D01*
X65267964Y-132441045D01*
X65416795Y-132563189D01*
X65416808Y-132563198D01*
X65586612Y-132653960D01*
X65586614Y-132653960D01*
X65586617Y-132653962D01*
X65714428Y-132692733D01*
X65770872Y-132709856D01*
X65770873Y-132709856D01*
X65770876Y-132709857D01*
X65962500Y-132728730D01*
X66154124Y-132709857D01*
X66338383Y-132653962D01*
X66508198Y-132563194D01*
X66657041Y-132441041D01*
X66779194Y-132292198D01*
X66814311Y-132226500D01*
X66869960Y-132122387D01*
X66869960Y-132122386D01*
X66869962Y-132122383D01*
X66925857Y-131938124D01*
X66944730Y-131746500D01*
X66925857Y-131554876D01*
X66869962Y-131370617D01*
X66869960Y-131370614D01*
X66869960Y-131370612D01*
X66779198Y-131200808D01*
X66779189Y-131200795D01*
X66657045Y-131051964D01*
X66657041Y-131051959D01*
X66657035Y-131051954D01*
X66508204Y-130929810D01*
X66508191Y-130929801D01*
X66338387Y-130839039D01*
X66154127Y-130783143D01*
X65962500Y-130764270D01*
X65770872Y-130783143D01*
X65586612Y-130839039D01*
X65416808Y-130929801D01*
X65416795Y-130929810D01*
X65267964Y-131051954D01*
X65267954Y-131051964D01*
X65145810Y-131200795D01*
X65145801Y-131200808D01*
X65055039Y-131370612D01*
X64999143Y-131554872D01*
X64980270Y-131746500D01*
X61376079Y-131746500D01*
X61530561Y-131614561D01*
X61694581Y-131422517D01*
X61826540Y-131207180D01*
X61923188Y-130973851D01*
X61923187Y-130973851D01*
X61923189Y-130973849D01*
X61982145Y-130728278D01*
X61982146Y-130728275D01*
X62001961Y-130476500D01*
X61982146Y-130224725D01*
X61979219Y-130212535D01*
X61923189Y-129979150D01*
X61826542Y-129745825D01*
X61826540Y-129745819D01*
X61694579Y-129530480D01*
X61694576Y-129530477D01*
X61530563Y-129338441D01*
X61530558Y-129338436D01*
X61338522Y-129174423D01*
X61338519Y-129174420D01*
X61123180Y-129042459D01*
X61123174Y-129042457D01*
X60889849Y-128945810D01*
X60644278Y-128886854D01*
X60644272Y-128886853D01*
X60392500Y-128867039D01*
X60140727Y-128886853D01*
X60140721Y-128886854D01*
X59895150Y-128945810D01*
X59661825Y-129042457D01*
X59661819Y-129042459D01*
X59446480Y-129174420D01*
X59446477Y-129174423D01*
X59254441Y-129338436D01*
X59254436Y-129338441D01*
X59090423Y-129530477D01*
X59090420Y-129530480D01*
X58958459Y-129745819D01*
X58958457Y-129745825D01*
X58861810Y-129979150D01*
X58802854Y-130224721D01*
X58802853Y-130224727D01*
X58783039Y-130476500D01*
X57425945Y-130476500D01*
X57356862Y-130455716D01*
X57241376Y-130420971D01*
X57021063Y-130388548D01*
X56969769Y-130381000D01*
X56763953Y-130381000D01*
X56763949Y-130381000D01*
X56678980Y-130387219D01*
X56558695Y-130396023D01*
X56558692Y-130396023D01*
X56558687Y-130396024D01*
X56290729Y-130455714D01*
X56290728Y-130455714D01*
X56034306Y-130553786D01*
X56034294Y-130553792D01*
X55794901Y-130688146D01*
X55794880Y-130688159D01*
X55577599Y-130855940D01*
X55577592Y-130855946D01*
X55387045Y-131053584D01*
X55227304Y-131276862D01*
X55101771Y-131521023D01*
X55013129Y-131780854D01*
X54963263Y-132050832D01*
X54953238Y-132325180D01*
X54953238Y-132325187D01*
X52782500Y-132325187D01*
X52782500Y-126883727D01*
X57851566Y-126883727D01*
X57870724Y-127041509D01*
X57927086Y-127190122D01*
X58017375Y-127320928D01*
X58017376Y-127320929D01*
X58017377Y-127320930D01*
X58017378Y-127320931D01*
X58136341Y-127426324D01*
X58136342Y-127426325D01*
X58136344Y-127426326D01*
X58277080Y-127500190D01*
X58431402Y-127538227D01*
X58431406Y-127538227D01*
X58590340Y-127538227D01*
X58590344Y-127538227D01*
X58744666Y-127500190D01*
X58885402Y-127426326D01*
X59004371Y-127320928D01*
X59094660Y-127190122D01*
X59151022Y-127041509D01*
X59170180Y-126883727D01*
X59151022Y-126725945D01*
X59094660Y-126577332D01*
X59004371Y-126446526D01*
X59004368Y-126446523D01*
X59004367Y-126446522D01*
X58885404Y-126341129D01*
X58885403Y-126341128D01*
X58744668Y-126267265D01*
X58744667Y-126267264D01*
X58744666Y-126267264D01*
X58666420Y-126247978D01*
X58590346Y-126229227D01*
X58590344Y-126229227D01*
X58431402Y-126229227D01*
X58431399Y-126229227D01*
X58317288Y-126257353D01*
X58277080Y-126267264D01*
X58277079Y-126267264D01*
X58277077Y-126267265D01*
X58136342Y-126341128D01*
X58136341Y-126341129D01*
X58017378Y-126446522D01*
X58017377Y-126446523D01*
X57927085Y-126577333D01*
X57870724Y-126725944D01*
X57870724Y-126725945D01*
X57851566Y-126883727D01*
X52782500Y-126883727D01*
X52782500Y-125535589D01*
X52801713Y-125476458D01*
X52852013Y-125439913D01*
X52914187Y-125439913D01*
X52964487Y-125476458D01*
X52982983Y-125523597D01*
X52983879Y-125531064D01*
X52983879Y-125531066D01*
X52983880Y-125531067D01*
X53037077Y-125665964D01*
X53124695Y-125781505D01*
X53240236Y-125869123D01*
X53375133Y-125922320D01*
X53459905Y-125932500D01*
X54896494Y-125932499D01*
X54981267Y-125922320D01*
X55116164Y-125869123D01*
X55231705Y-125781505D01*
X55319323Y-125665964D01*
X55372520Y-125531067D01*
X55382700Y-125446295D01*
X55382700Y-124815600D01*
X78461693Y-124815600D01*
X78480851Y-124973382D01*
X78537213Y-125121995D01*
X78627502Y-125252801D01*
X78627503Y-125252802D01*
X78627504Y-125252803D01*
X78627505Y-125252804D01*
X78746468Y-125358197D01*
X78746469Y-125358198D01*
X78746471Y-125358199D01*
X78887207Y-125432063D01*
X79041529Y-125470100D01*
X79041533Y-125470100D01*
X79200467Y-125470100D01*
X79200471Y-125470100D01*
X79354793Y-125432063D01*
X79495529Y-125358199D01*
X79614498Y-125252801D01*
X79704787Y-125121995D01*
X79761149Y-124973382D01*
X79780307Y-124815600D01*
X79761149Y-124657818D01*
X79704787Y-124509205D01*
X79614498Y-124378399D01*
X79614495Y-124378396D01*
X79614494Y-124378395D01*
X79495531Y-124273002D01*
X79495530Y-124273001D01*
X79354795Y-124199138D01*
X79354794Y-124199137D01*
X79354793Y-124199137D01*
X79276546Y-124179851D01*
X79200473Y-124161100D01*
X79200471Y-124161100D01*
X79041529Y-124161100D01*
X79041526Y-124161100D01*
X78927415Y-124189226D01*
X78887207Y-124199137D01*
X78887206Y-124199137D01*
X78887204Y-124199138D01*
X78746469Y-124273001D01*
X78746468Y-124273002D01*
X78627505Y-124378395D01*
X78627504Y-124378396D01*
X78537212Y-124509206D01*
X78480850Y-124657818D01*
X78480851Y-124657818D01*
X78461693Y-124815600D01*
X55382700Y-124815600D01*
X55382699Y-124089706D01*
X55372520Y-124004933D01*
X55319323Y-123870036D01*
X55231705Y-123754495D01*
X55116164Y-123666877D01*
X54981267Y-123613680D01*
X54981265Y-123613679D01*
X54981262Y-123613679D01*
X54896508Y-123603501D01*
X54896499Y-123603500D01*
X54896495Y-123603500D01*
X54896488Y-123603500D01*
X53459913Y-123603500D01*
X53459905Y-123603501D01*
X53375135Y-123613679D01*
X53240236Y-123666877D01*
X53124695Y-123754495D01*
X53037077Y-123870036D01*
X52983880Y-124004933D01*
X52983879Y-124004937D01*
X52982982Y-124012410D01*
X52956856Y-124068829D01*
X52902557Y-124099115D01*
X52840827Y-124091702D01*
X52795243Y-124049420D01*
X52782500Y-124000415D01*
X52782500Y-123593004D01*
X56193768Y-123593004D01*
X56213434Y-123767551D01*
X56249296Y-123870036D01*
X56271451Y-123933352D01*
X56364906Y-124082085D01*
X56489115Y-124206294D01*
X56637848Y-124299749D01*
X56803647Y-124357765D01*
X56934426Y-124372500D01*
X56934434Y-124372500D01*
X57221966Y-124372500D01*
X57221974Y-124372500D01*
X57352753Y-124357765D01*
X57518552Y-124299749D01*
X57667285Y-124206294D01*
X57791494Y-124082085D01*
X57884949Y-123933352D01*
X57942965Y-123767553D01*
X57947061Y-123731200D01*
X84379893Y-123731200D01*
X84399051Y-123888982D01*
X84433485Y-123979777D01*
X84445861Y-124012410D01*
X84455413Y-124037595D01*
X84545702Y-124168401D01*
X84545703Y-124168402D01*
X84545704Y-124168403D01*
X84545705Y-124168404D01*
X84664668Y-124273797D01*
X84664669Y-124273798D01*
X84664671Y-124273799D01*
X84805407Y-124347663D01*
X84959729Y-124385700D01*
X84959733Y-124385700D01*
X85118667Y-124385700D01*
X85118671Y-124385700D01*
X85272993Y-124347663D01*
X85413729Y-124273799D01*
X85532698Y-124168401D01*
X85622987Y-124037595D01*
X85679349Y-123888982D01*
X85687118Y-123825000D01*
X93955693Y-123825000D01*
X93974851Y-123982782D01*
X94031213Y-124131395D01*
X94121502Y-124262201D01*
X94121503Y-124262202D01*
X94121504Y-124262203D01*
X94121505Y-124262204D01*
X94240468Y-124367597D01*
X94240469Y-124367598D01*
X94240471Y-124367599D01*
X94381207Y-124441463D01*
X94535529Y-124479500D01*
X94535533Y-124479500D01*
X94694467Y-124479500D01*
X94694471Y-124479500D01*
X94848793Y-124441463D01*
X94989529Y-124367599D01*
X95108498Y-124262201D01*
X95198787Y-124131395D01*
X95255149Y-123982782D01*
X95274307Y-123825000D01*
X95255149Y-123667218D01*
X95198787Y-123518605D01*
X95108498Y-123387799D01*
X95108495Y-123387796D01*
X95108494Y-123387795D01*
X94989531Y-123282402D01*
X94989530Y-123282401D01*
X94848795Y-123208538D01*
X94848794Y-123208537D01*
X94848793Y-123208537D01*
X94737883Y-123181200D01*
X94694473Y-123170500D01*
X94694471Y-123170500D01*
X94535529Y-123170500D01*
X94535526Y-123170500D01*
X94421414Y-123198626D01*
X94381207Y-123208537D01*
X94381206Y-123208537D01*
X94381204Y-123208538D01*
X94240469Y-123282401D01*
X94240468Y-123282402D01*
X94121505Y-123387795D01*
X94121504Y-123387796D01*
X94031212Y-123518606D01*
X94010425Y-123573418D01*
X93974851Y-123667218D01*
X93955693Y-123825000D01*
X85687118Y-123825000D01*
X85698507Y-123731200D01*
X85679349Y-123573418D01*
X85622987Y-123424805D01*
X85532698Y-123293999D01*
X85532695Y-123293996D01*
X85532694Y-123293995D01*
X85490371Y-123256500D01*
X85458851Y-123202908D01*
X85464852Y-123141024D01*
X85490371Y-123105900D01*
X85505872Y-123092166D01*
X85532698Y-123068401D01*
X85622987Y-122937595D01*
X85679349Y-122788982D01*
X85698507Y-122631200D01*
X85679349Y-122473418D01*
X85662124Y-122428000D01*
X97384693Y-122428000D01*
X97403851Y-122585782D01*
X97460213Y-122734395D01*
X97550502Y-122865201D01*
X97550503Y-122865202D01*
X97550504Y-122865203D01*
X97550505Y-122865204D01*
X97669468Y-122970597D01*
X97669469Y-122970598D01*
X97669471Y-122970599D01*
X97810207Y-123044463D01*
X97964529Y-123082500D01*
X97964533Y-123082500D01*
X98123467Y-123082500D01*
X98123471Y-123082500D01*
X98277793Y-123044463D01*
X98418529Y-122970599D01*
X98537498Y-122865201D01*
X98627787Y-122734395D01*
X98684149Y-122585782D01*
X98703307Y-122428000D01*
X98684149Y-122270218D01*
X98627787Y-122121605D01*
X98537498Y-121990799D01*
X98537495Y-121990796D01*
X98537494Y-121990795D01*
X98418531Y-121885402D01*
X98418530Y-121885401D01*
X98277795Y-121811538D01*
X98277794Y-121811537D01*
X98277793Y-121811537D01*
X98199547Y-121792251D01*
X98123473Y-121773500D01*
X98123471Y-121773500D01*
X97964529Y-121773500D01*
X97964526Y-121773500D01*
X97850415Y-121801626D01*
X97810207Y-121811537D01*
X97810206Y-121811537D01*
X97810204Y-121811538D01*
X97669469Y-121885401D01*
X97669468Y-121885402D01*
X97550505Y-121990795D01*
X97550504Y-121990796D01*
X97460212Y-122121606D01*
X97432759Y-122193994D01*
X97403851Y-122270218D01*
X97384693Y-122428000D01*
X85662124Y-122428000D01*
X85622987Y-122324805D01*
X85532698Y-122193999D01*
X85532695Y-122193996D01*
X85532694Y-122193995D01*
X85490371Y-122156500D01*
X85458851Y-122102908D01*
X85464852Y-122041024D01*
X85490371Y-122005900D01*
X85532693Y-121968405D01*
X85532698Y-121968401D01*
X85622987Y-121837595D01*
X85679349Y-121688982D01*
X85698507Y-121531200D01*
X85679349Y-121373418D01*
X85622987Y-121224805D01*
X85532698Y-121093999D01*
X85532695Y-121093996D01*
X85532694Y-121093995D01*
X85413731Y-120988602D01*
X85413730Y-120988601D01*
X85272995Y-120914738D01*
X85272994Y-120914737D01*
X85272993Y-120914737D01*
X85194747Y-120895451D01*
X85118673Y-120876700D01*
X85118671Y-120876700D01*
X84959729Y-120876700D01*
X84959726Y-120876700D01*
X84848973Y-120903999D01*
X84805407Y-120914737D01*
X84805406Y-120914737D01*
X84805404Y-120914738D01*
X84664669Y-120988601D01*
X84664668Y-120988602D01*
X84545705Y-121093995D01*
X84545704Y-121093996D01*
X84455412Y-121224806D01*
X84399051Y-121373418D01*
X84390166Y-121446597D01*
X84379893Y-121531200D01*
X84399051Y-121688982D01*
X84455413Y-121837595D01*
X84545702Y-121968401D01*
X84545703Y-121968402D01*
X84545704Y-121968403D01*
X84545706Y-121968405D01*
X84588029Y-122005901D01*
X84619548Y-122059493D01*
X84613547Y-122121377D01*
X84588029Y-122156499D01*
X84545706Y-122193994D01*
X84545704Y-122193996D01*
X84455412Y-122324806D01*
X84416276Y-122428000D01*
X84399051Y-122473418D01*
X84379893Y-122631200D01*
X84399051Y-122788982D01*
X84455413Y-122937595D01*
X84545702Y-123068401D01*
X84545703Y-123068402D01*
X84545704Y-123068403D01*
X84545705Y-123068404D01*
X84588028Y-123105899D01*
X84619548Y-123159491D01*
X84613547Y-123221375D01*
X84588030Y-123256498D01*
X84545703Y-123293997D01*
X84455412Y-123424806D01*
X84399050Y-123573417D01*
X84399051Y-123573418D01*
X84379893Y-123731200D01*
X57947061Y-123731200D01*
X57962632Y-123593000D01*
X57962632Y-123592995D01*
X57942965Y-123418448D01*
X57932241Y-123387799D01*
X57884949Y-123252648D01*
X57791494Y-123103915D01*
X57667285Y-122979706D01*
X57518552Y-122886251D01*
X57518551Y-122886250D01*
X57518550Y-122886250D01*
X57352755Y-122828235D01*
X57326597Y-122825287D01*
X57221974Y-122813500D01*
X56934426Y-122813500D01*
X56839313Y-122824216D01*
X56803644Y-122828235D01*
X56637849Y-122886250D01*
X56489116Y-122979705D01*
X56489113Y-122979707D01*
X56364907Y-123103913D01*
X56364905Y-123103916D01*
X56271450Y-123252649D01*
X56213434Y-123418448D01*
X56193768Y-123592995D01*
X56193768Y-123593004D01*
X52782500Y-123593004D01*
X52782500Y-120904000D01*
X79350693Y-120904000D01*
X79369851Y-121061782D01*
X79426213Y-121210395D01*
X79516502Y-121341201D01*
X79516503Y-121341202D01*
X79516504Y-121341203D01*
X79516505Y-121341204D01*
X79635468Y-121446597D01*
X79635469Y-121446598D01*
X79635471Y-121446599D01*
X79776207Y-121520463D01*
X79930529Y-121558500D01*
X79930533Y-121558500D01*
X80089467Y-121558500D01*
X80089471Y-121558500D01*
X80243793Y-121520463D01*
X80384529Y-121446599D01*
X80503498Y-121341201D01*
X80593787Y-121210395D01*
X80650149Y-121061782D01*
X80669307Y-120904000D01*
X80650149Y-120746218D01*
X80593787Y-120597605D01*
X80503498Y-120466799D01*
X80503495Y-120466796D01*
X80503494Y-120466795D01*
X80384531Y-120361402D01*
X80384530Y-120361401D01*
X80243795Y-120287538D01*
X80243794Y-120287537D01*
X80243793Y-120287537D01*
X80165546Y-120268251D01*
X80089473Y-120249500D01*
X80089471Y-120249500D01*
X79930529Y-120249500D01*
X79930526Y-120249500D01*
X79816414Y-120277626D01*
X79776207Y-120287537D01*
X79776206Y-120287537D01*
X79776204Y-120287538D01*
X79635469Y-120361401D01*
X79635468Y-120361402D01*
X79516505Y-120466795D01*
X79516504Y-120466796D01*
X79426212Y-120597606D01*
X79369850Y-120746217D01*
X79369851Y-120746218D01*
X79350693Y-120904000D01*
X52782500Y-120904000D01*
X52782500Y-119790990D01*
X57851566Y-119790990D01*
X57870724Y-119948772D01*
X57927086Y-120097385D01*
X58017375Y-120228191D01*
X58017376Y-120228192D01*
X58017377Y-120228193D01*
X58017378Y-120228194D01*
X58136341Y-120333587D01*
X58136342Y-120333588D01*
X58136344Y-120333589D01*
X58277080Y-120407453D01*
X58431402Y-120445490D01*
X58431406Y-120445490D01*
X58590340Y-120445490D01*
X58590344Y-120445490D01*
X58744666Y-120407453D01*
X58885402Y-120333589D01*
X59004371Y-120228191D01*
X59094660Y-120097385D01*
X59151022Y-119948772D01*
X59170180Y-119790990D01*
X59166539Y-119761000D01*
X59411693Y-119761000D01*
X59430851Y-119918782D01*
X59487213Y-120067395D01*
X59577502Y-120198201D01*
X59577503Y-120198202D01*
X59577504Y-120198203D01*
X59577505Y-120198204D01*
X59696468Y-120303597D01*
X59696469Y-120303598D01*
X59696471Y-120303599D01*
X59837207Y-120377463D01*
X59991529Y-120415500D01*
X59991533Y-120415500D01*
X60150467Y-120415500D01*
X60150471Y-120415500D01*
X60304793Y-120377463D01*
X60445529Y-120303599D01*
X60564498Y-120198201D01*
X60654787Y-120067395D01*
X60711149Y-119918782D01*
X60730307Y-119761000D01*
X62459693Y-119761000D01*
X62478851Y-119918782D01*
X62535213Y-120067395D01*
X62625502Y-120198201D01*
X62625503Y-120198202D01*
X62625504Y-120198203D01*
X62625505Y-120198204D01*
X62744468Y-120303597D01*
X62744469Y-120303598D01*
X62744471Y-120303599D01*
X62885207Y-120377463D01*
X63039529Y-120415500D01*
X63039533Y-120415500D01*
X63198467Y-120415500D01*
X63198471Y-120415500D01*
X63352793Y-120377463D01*
X63493529Y-120303599D01*
X63612498Y-120198201D01*
X63702787Y-120067395D01*
X63759149Y-119918782D01*
X63778307Y-119761000D01*
X63759149Y-119603218D01*
X63702787Y-119454605D01*
X63612498Y-119323799D01*
X63612495Y-119323796D01*
X63612494Y-119323795D01*
X63493531Y-119218402D01*
X63493530Y-119218401D01*
X63352795Y-119144538D01*
X63352794Y-119144537D01*
X63352793Y-119144537D01*
X63274547Y-119125251D01*
X63198473Y-119106500D01*
X63198471Y-119106500D01*
X63039529Y-119106500D01*
X63039526Y-119106500D01*
X62925414Y-119134626D01*
X62885207Y-119144537D01*
X62885206Y-119144537D01*
X62885204Y-119144538D01*
X62744469Y-119218401D01*
X62744468Y-119218402D01*
X62625505Y-119323795D01*
X62625504Y-119323796D01*
X62535212Y-119454606D01*
X62478850Y-119603217D01*
X62478851Y-119603218D01*
X62459693Y-119761000D01*
X60730307Y-119761000D01*
X60711149Y-119603218D01*
X60654787Y-119454605D01*
X60564498Y-119323799D01*
X60564495Y-119323796D01*
X60564494Y-119323795D01*
X60445531Y-119218402D01*
X60445530Y-119218401D01*
X60304795Y-119144538D01*
X60304794Y-119144537D01*
X60304793Y-119144537D01*
X60226546Y-119125251D01*
X60150473Y-119106500D01*
X60150471Y-119106500D01*
X59991529Y-119106500D01*
X59991526Y-119106500D01*
X59877415Y-119134626D01*
X59837207Y-119144537D01*
X59837206Y-119144537D01*
X59837204Y-119144538D01*
X59696469Y-119218401D01*
X59696468Y-119218402D01*
X59577505Y-119323795D01*
X59577504Y-119323796D01*
X59487212Y-119454606D01*
X59430851Y-119603217D01*
X59430851Y-119603218D01*
X59411693Y-119761000D01*
X59166539Y-119761000D01*
X59151022Y-119633208D01*
X59094660Y-119484595D01*
X59004371Y-119353789D01*
X59004368Y-119353786D01*
X59004367Y-119353785D01*
X58885404Y-119248392D01*
X58885403Y-119248391D01*
X58744668Y-119174528D01*
X58744667Y-119174527D01*
X58744666Y-119174527D01*
X58666420Y-119155241D01*
X58590346Y-119136490D01*
X58590344Y-119136490D01*
X58431402Y-119136490D01*
X58431399Y-119136490D01*
X58317287Y-119164616D01*
X58277080Y-119174527D01*
X58277079Y-119174527D01*
X58277077Y-119174528D01*
X58136342Y-119248391D01*
X58136341Y-119248392D01*
X58017378Y-119353785D01*
X58017377Y-119353786D01*
X57927085Y-119484596D01*
X57870724Y-119633208D01*
X57855208Y-119760999D01*
X57851566Y-119790990D01*
X52782500Y-119790990D01*
X52782500Y-118743004D01*
X56193768Y-118743004D01*
X56213434Y-118917551D01*
X56260269Y-119051395D01*
X56271451Y-119083352D01*
X56364906Y-119232085D01*
X56489115Y-119356294D01*
X56637848Y-119449749D01*
X56803647Y-119507765D01*
X56934426Y-119522500D01*
X56934434Y-119522500D01*
X57221966Y-119522500D01*
X57221974Y-119522500D01*
X57352753Y-119507765D01*
X57518552Y-119449749D01*
X57667285Y-119356294D01*
X57791494Y-119232085D01*
X57884949Y-119083352D01*
X57942965Y-118917553D01*
X57962632Y-118743000D01*
X57962632Y-118742995D01*
X57942965Y-118568448D01*
X57909379Y-118472463D01*
X57884949Y-118402648D01*
X57791494Y-118253915D01*
X57667285Y-118129706D01*
X57518552Y-118036251D01*
X57518551Y-118036250D01*
X57518550Y-118036250D01*
X57352755Y-117978235D01*
X57326597Y-117975288D01*
X57221974Y-117963500D01*
X56934426Y-117963500D01*
X56839313Y-117974216D01*
X56803644Y-117978235D01*
X56637849Y-118036250D01*
X56489116Y-118129705D01*
X56489113Y-118129707D01*
X56364907Y-118253913D01*
X56364905Y-118253916D01*
X56271450Y-118402649D01*
X56213434Y-118568448D01*
X56193768Y-118742995D01*
X56193768Y-118743004D01*
X52782500Y-118743004D01*
X52782500Y-118335589D01*
X52801713Y-118276458D01*
X52852013Y-118239913D01*
X52914187Y-118239913D01*
X52964487Y-118276458D01*
X52982983Y-118323597D01*
X52983879Y-118331064D01*
X52983879Y-118331066D01*
X52983880Y-118331067D01*
X53037077Y-118465964D01*
X53124695Y-118581505D01*
X53240236Y-118669123D01*
X53375133Y-118722320D01*
X53459905Y-118732500D01*
X54896494Y-118732499D01*
X54981267Y-118722320D01*
X55116164Y-118669123D01*
X55231705Y-118581505D01*
X55319323Y-118465964D01*
X55372520Y-118331067D01*
X55382700Y-118246295D01*
X55382700Y-117856000D01*
X73254693Y-117856000D01*
X73273851Y-118013782D01*
X73302947Y-118090500D01*
X73317815Y-118129706D01*
X73330213Y-118162395D01*
X73420502Y-118293201D01*
X73420503Y-118293202D01*
X73420504Y-118293203D01*
X73420505Y-118293204D01*
X73539468Y-118398597D01*
X73539469Y-118398598D01*
X73539471Y-118398599D01*
X73680207Y-118472463D01*
X73834529Y-118510500D01*
X73834533Y-118510500D01*
X73993467Y-118510500D01*
X73993471Y-118510500D01*
X74147793Y-118472463D01*
X74288529Y-118398599D01*
X74407498Y-118293201D01*
X74497787Y-118162395D01*
X74554149Y-118013782D01*
X74573307Y-117856000D01*
X74554149Y-117698218D01*
X74497787Y-117549605D01*
X74407498Y-117418799D01*
X74407495Y-117418796D01*
X74407494Y-117418795D01*
X74288531Y-117313402D01*
X74288530Y-117313401D01*
X74147795Y-117239538D01*
X74147794Y-117239537D01*
X74147793Y-117239537D01*
X74069546Y-117220251D01*
X73993473Y-117201500D01*
X73993471Y-117201500D01*
X73834529Y-117201500D01*
X73834526Y-117201500D01*
X73720415Y-117229626D01*
X73680207Y-117239537D01*
X73680206Y-117239537D01*
X73680204Y-117239538D01*
X73539469Y-117313401D01*
X73539468Y-117313402D01*
X73420505Y-117418795D01*
X73420504Y-117418796D01*
X73330212Y-117549606D01*
X73290471Y-117654395D01*
X73273851Y-117698218D01*
X73254693Y-117856000D01*
X55382700Y-117856000D01*
X55382699Y-116889706D01*
X55372520Y-116804933D01*
X55319323Y-116670036D01*
X55231705Y-116554495D01*
X55116164Y-116466877D01*
X54981267Y-116413680D01*
X54981265Y-116413679D01*
X54981262Y-116413679D01*
X54896508Y-116403501D01*
X54896499Y-116403500D01*
X54896495Y-116403500D01*
X54896488Y-116403500D01*
X53459913Y-116403500D01*
X53459905Y-116403501D01*
X53375135Y-116413679D01*
X53240236Y-116466877D01*
X53124695Y-116554495D01*
X53037077Y-116670036D01*
X52983880Y-116804933D01*
X52983879Y-116804937D01*
X52982982Y-116812410D01*
X52956856Y-116868829D01*
X52902557Y-116899115D01*
X52840827Y-116891702D01*
X52795243Y-116849420D01*
X52782500Y-116800415D01*
X52782500Y-115951000D01*
X67666693Y-115951000D01*
X67685851Y-116108782D01*
X67742213Y-116257395D01*
X67832502Y-116388201D01*
X67832503Y-116388202D01*
X67832504Y-116388203D01*
X67832505Y-116388204D01*
X67951468Y-116493597D01*
X67951469Y-116493598D01*
X67951471Y-116493599D01*
X68092207Y-116567463D01*
X68246529Y-116605500D01*
X68246533Y-116605500D01*
X68405467Y-116605500D01*
X68405471Y-116605500D01*
X68559793Y-116567463D01*
X68700529Y-116493599D01*
X68819498Y-116388201D01*
X68909787Y-116257395D01*
X68966149Y-116108782D01*
X68985307Y-115951000D01*
X73254693Y-115951000D01*
X73273851Y-116108782D01*
X73330213Y-116257395D01*
X73420502Y-116388201D01*
X73420503Y-116388202D01*
X73420504Y-116388203D01*
X73420505Y-116388204D01*
X73539468Y-116493597D01*
X73539469Y-116493598D01*
X73539471Y-116493599D01*
X73680207Y-116567463D01*
X73834529Y-116605500D01*
X73834533Y-116605500D01*
X73993467Y-116605500D01*
X73993471Y-116605500D01*
X74147793Y-116567463D01*
X74288529Y-116493599D01*
X74407498Y-116388201D01*
X74497787Y-116257395D01*
X74554149Y-116108782D01*
X74573307Y-115951000D01*
X74554149Y-115793218D01*
X74497787Y-115644605D01*
X74407498Y-115513799D01*
X74407495Y-115513796D01*
X74407494Y-115513795D01*
X74288531Y-115408402D01*
X74288530Y-115408401D01*
X74147795Y-115334538D01*
X74147794Y-115334537D01*
X74147793Y-115334537D01*
X74069547Y-115315251D01*
X73993473Y-115296500D01*
X73993471Y-115296500D01*
X73834529Y-115296500D01*
X73834526Y-115296500D01*
X73720415Y-115324626D01*
X73680207Y-115334537D01*
X73680206Y-115334537D01*
X73680204Y-115334538D01*
X73539469Y-115408401D01*
X73539468Y-115408402D01*
X73420505Y-115513795D01*
X73420504Y-115513796D01*
X73330212Y-115644606D01*
X73282048Y-115771605D01*
X73273851Y-115793218D01*
X73254693Y-115951000D01*
X68985307Y-115951000D01*
X68966149Y-115793218D01*
X68909787Y-115644605D01*
X68819498Y-115513799D01*
X68819495Y-115513796D01*
X68819494Y-115513795D01*
X68700531Y-115408402D01*
X68700527Y-115408399D01*
X68694196Y-115405077D01*
X68650766Y-115360586D01*
X68641782Y-115299064D01*
X68670675Y-115244012D01*
X68694196Y-115226923D01*
X68700527Y-115223600D01*
X68700526Y-115223600D01*
X68700529Y-115223599D01*
X68819498Y-115118201D01*
X68909787Y-114987395D01*
X68966149Y-114838782D01*
X68985307Y-114681000D01*
X68966149Y-114523218D01*
X68929658Y-114427000D01*
X75566093Y-114427000D01*
X75585251Y-114584782D01*
X75641613Y-114733395D01*
X75731902Y-114864201D01*
X75731903Y-114864202D01*
X75731904Y-114864203D01*
X75731905Y-114864204D01*
X75850868Y-114969597D01*
X75850869Y-114969598D01*
X75850871Y-114969599D01*
X75991607Y-115043463D01*
X76145929Y-115081500D01*
X76145933Y-115081500D01*
X76304867Y-115081500D01*
X76304871Y-115081500D01*
X76459193Y-115043463D01*
X76599929Y-114969599D01*
X76718898Y-114864201D01*
X76809187Y-114733395D01*
X76865549Y-114584782D01*
X76884707Y-114427000D01*
X76872371Y-114325400D01*
X81814493Y-114325400D01*
X81833651Y-114483182D01*
X81890013Y-114631795D01*
X81980302Y-114762601D01*
X81980303Y-114762602D01*
X81980304Y-114762603D01*
X81980305Y-114762604D01*
X82099268Y-114867997D01*
X82099269Y-114867998D01*
X82099271Y-114867999D01*
X82240007Y-114941863D01*
X82394329Y-114979900D01*
X82394333Y-114979900D01*
X82553267Y-114979900D01*
X82553271Y-114979900D01*
X82707593Y-114941863D01*
X82848329Y-114867999D01*
X82967298Y-114762601D01*
X83057587Y-114631795D01*
X83113949Y-114483182D01*
X83133107Y-114325400D01*
X83113949Y-114167618D01*
X83057587Y-114019005D01*
X82967298Y-113888199D01*
X82967295Y-113888196D01*
X82967294Y-113888195D01*
X82848331Y-113782802D01*
X82848330Y-113782801D01*
X82707595Y-113708938D01*
X82707594Y-113708937D01*
X82707593Y-113708937D01*
X82628637Y-113689476D01*
X82553273Y-113670900D01*
X82553271Y-113670900D01*
X82394329Y-113670900D01*
X82394326Y-113670900D01*
X82280214Y-113699026D01*
X82240007Y-113708937D01*
X82240006Y-113708937D01*
X82240004Y-113708938D01*
X82099269Y-113782801D01*
X82099268Y-113782802D01*
X81980305Y-113888195D01*
X81980304Y-113888196D01*
X81890012Y-114019006D01*
X81851481Y-114120605D01*
X81833651Y-114167618D01*
X81814493Y-114325400D01*
X76872371Y-114325400D01*
X76865549Y-114269218D01*
X76809187Y-114120605D01*
X76718898Y-113989799D01*
X76718895Y-113989796D01*
X76718894Y-113989795D01*
X76599931Y-113884402D01*
X76599930Y-113884401D01*
X76459195Y-113810538D01*
X76459194Y-113810537D01*
X76459193Y-113810537D01*
X76380947Y-113791251D01*
X76304873Y-113772500D01*
X76304871Y-113772500D01*
X76145929Y-113772500D01*
X76145926Y-113772500D01*
X76034357Y-113800000D01*
X75991607Y-113810537D01*
X75991606Y-113810537D01*
X75991604Y-113810538D01*
X75850869Y-113884401D01*
X75850868Y-113884402D01*
X75731905Y-113989795D01*
X75731904Y-113989796D01*
X75641612Y-114120606D01*
X75614455Y-114192213D01*
X75585251Y-114269218D01*
X75566093Y-114427000D01*
X68929658Y-114427000D01*
X68909787Y-114374605D01*
X68819498Y-114243799D01*
X68819495Y-114243796D01*
X68819494Y-114243795D01*
X68700531Y-114138402D01*
X68700530Y-114138401D01*
X68559795Y-114064538D01*
X68559794Y-114064537D01*
X68559793Y-114064537D01*
X68481546Y-114045251D01*
X68405473Y-114026500D01*
X68405471Y-114026500D01*
X68246529Y-114026500D01*
X68246526Y-114026500D01*
X68167414Y-114046000D01*
X68092207Y-114064537D01*
X68092206Y-114064537D01*
X68092204Y-114064538D01*
X67951469Y-114138401D01*
X67951468Y-114138402D01*
X67832505Y-114243795D01*
X67832504Y-114243796D01*
X67742212Y-114374606D01*
X67685851Y-114523218D01*
X67672668Y-114631795D01*
X67666693Y-114681000D01*
X67685851Y-114838782D01*
X67742213Y-114987395D01*
X67832502Y-115118201D01*
X67832503Y-115118202D01*
X67832504Y-115118203D01*
X67832505Y-115118204D01*
X67951468Y-115223597D01*
X67951469Y-115223597D01*
X67951471Y-115223599D01*
X67956417Y-115226195D01*
X67957806Y-115226924D01*
X68001235Y-115271417D01*
X68010217Y-115332939D01*
X67981322Y-115387991D01*
X67957806Y-115405076D01*
X67951470Y-115408401D01*
X67951468Y-115408402D01*
X67832505Y-115513795D01*
X67832504Y-115513796D01*
X67742212Y-115644606D01*
X67694048Y-115771605D01*
X67685851Y-115793218D01*
X67666693Y-115951000D01*
X52782500Y-115951000D01*
X52782500Y-114172999D01*
X59558020Y-114172999D01*
X59558021Y-114173000D01*
X60105400Y-114173000D01*
X60164531Y-114192213D01*
X60201076Y-114242513D01*
X60206000Y-114273600D01*
X60206000Y-114326400D01*
X60186787Y-114385531D01*
X60136487Y-114422076D01*
X60105400Y-114427000D01*
X59558021Y-114427000D01*
X59565999Y-114513098D01*
X59624568Y-114718951D01*
X59624569Y-114718952D01*
X59719960Y-114910523D01*
X59848937Y-115081317D01*
X60007086Y-115225490D01*
X60007095Y-115225496D01*
X60189055Y-115338162D01*
X60189059Y-115338164D01*
X60388619Y-115415473D01*
X60579000Y-115451062D01*
X60579000Y-114900600D01*
X60598213Y-114841469D01*
X60648513Y-114804924D01*
X60679600Y-114800000D01*
X60732400Y-114800000D01*
X60791531Y-114819213D01*
X60828076Y-114869513D01*
X60833000Y-114900600D01*
X60833000Y-115451062D01*
X61023380Y-115415473D01*
X61222940Y-115338164D01*
X61222944Y-115338162D01*
X61404904Y-115225496D01*
X61404913Y-115225490D01*
X61460226Y-115175065D01*
X62141500Y-115175065D01*
X62156266Y-115249301D01*
X62156267Y-115249304D01*
X62212514Y-115333482D01*
X62212515Y-115333483D01*
X62212516Y-115333484D01*
X62296699Y-115389734D01*
X62370933Y-115404500D01*
X64121066Y-115404499D01*
X64195301Y-115389734D01*
X64279484Y-115333484D01*
X64335734Y-115249301D01*
X64350500Y-115175067D01*
X64350499Y-113424934D01*
X64335734Y-113350699D01*
X64335732Y-113350697D01*
X64335732Y-113350695D01*
X64279485Y-113266517D01*
X64279483Y-113266515D01*
X64195302Y-113210267D01*
X64195301Y-113210266D01*
X64195300Y-113210265D01*
X64195299Y-113210265D01*
X64139498Y-113199166D01*
X64121067Y-113195500D01*
X64121066Y-113195500D01*
X62370934Y-113195500D01*
X62296698Y-113210266D01*
X62296695Y-113210267D01*
X62212517Y-113266514D01*
X62212515Y-113266516D01*
X62156265Y-113350700D01*
X62141500Y-113424933D01*
X62141500Y-115175065D01*
X61460226Y-115175065D01*
X61563062Y-115081317D01*
X61692038Y-114910523D01*
X61692039Y-114910523D01*
X61787430Y-114718952D01*
X61787431Y-114718951D01*
X61846000Y-114513098D01*
X61853979Y-114427000D01*
X61306600Y-114427000D01*
X61247469Y-114407787D01*
X61210924Y-114357487D01*
X61206000Y-114326400D01*
X61206000Y-114273600D01*
X61225213Y-114214469D01*
X61275513Y-114177924D01*
X61306600Y-114173000D01*
X61853979Y-114173000D01*
X61853979Y-114172999D01*
X61846000Y-114086901D01*
X61787431Y-113881048D01*
X61787430Y-113881047D01*
X61692039Y-113689476D01*
X61563062Y-113518682D01*
X61404913Y-113374509D01*
X61404904Y-113374503D01*
X61222944Y-113261837D01*
X61222940Y-113261835D01*
X61023381Y-113184526D01*
X60833000Y-113148937D01*
X60833000Y-113699400D01*
X60813787Y-113758531D01*
X60763487Y-113795076D01*
X60732400Y-113800000D01*
X60679600Y-113800000D01*
X60620469Y-113780787D01*
X60583924Y-113730487D01*
X60579000Y-113699400D01*
X60579000Y-113148937D01*
X60388618Y-113184526D01*
X60189059Y-113261835D01*
X60189055Y-113261837D01*
X60007095Y-113374503D01*
X60007086Y-113374509D01*
X59848937Y-113518682D01*
X59719961Y-113689476D01*
X59719960Y-113689476D01*
X59624569Y-113881047D01*
X59624568Y-113881048D01*
X59565999Y-114086901D01*
X59558020Y-114172999D01*
X52782500Y-114172999D01*
X52782500Y-111760000D01*
X59596768Y-111760000D01*
X59615654Y-111963816D01*
X59615654Y-111963817D01*
X59671672Y-112160703D01*
X59671673Y-112160704D01*
X59762909Y-112343930D01*
X59762910Y-112343931D01*
X59762912Y-112343935D01*
X59883382Y-112503463D01*
X59886268Y-112507285D01*
X60037528Y-112645178D01*
X60037532Y-112645181D01*
X60037538Y-112645186D01*
X60211573Y-112752944D01*
X60402444Y-112826888D01*
X60451824Y-112836118D01*
X60603651Y-112864500D01*
X60603653Y-112864500D01*
X60808348Y-112864500D01*
X60884261Y-112850309D01*
X61009556Y-112826888D01*
X61200427Y-112752944D01*
X61374462Y-112645186D01*
X61525732Y-112507285D01*
X61649088Y-112343935D01*
X61740328Y-112160701D01*
X61796345Y-111963821D01*
X61815232Y-111760000D01*
X61815232Y-111759999D01*
X62136768Y-111759999D01*
X62155654Y-111963816D01*
X62155654Y-111963817D01*
X62211672Y-112160703D01*
X62211673Y-112160704D01*
X62302909Y-112343930D01*
X62302910Y-112343931D01*
X62302912Y-112343935D01*
X62423382Y-112503463D01*
X62426268Y-112507285D01*
X62577528Y-112645178D01*
X62577532Y-112645181D01*
X62577538Y-112645186D01*
X62751573Y-112752944D01*
X62942444Y-112826888D01*
X62991824Y-112836118D01*
X63143651Y-112864500D01*
X63143653Y-112864500D01*
X63348348Y-112864500D01*
X63424261Y-112850309D01*
X63549556Y-112826888D01*
X63740427Y-112752944D01*
X63914462Y-112645186D01*
X64065732Y-112507285D01*
X64189088Y-112343935D01*
X64280328Y-112160701D01*
X64336345Y-111963821D01*
X64355232Y-111760000D01*
X64336345Y-111556179D01*
X64280328Y-111359299D01*
X64189088Y-111176065D01*
X64065732Y-111012715D01*
X64065731Y-111012714D01*
X63914471Y-110874821D01*
X63914466Y-110874817D01*
X63914462Y-110874814D01*
X63740427Y-110767056D01*
X63740423Y-110767054D01*
X63549554Y-110693111D01*
X63549549Y-110693110D01*
X63348349Y-110655500D01*
X63348347Y-110655500D01*
X63143653Y-110655500D01*
X63143651Y-110655500D01*
X62942450Y-110693110D01*
X62942445Y-110693111D01*
X62751576Y-110767054D01*
X62751572Y-110767056D01*
X62643813Y-110833777D01*
X62577538Y-110874814D01*
X62577536Y-110874815D01*
X62577537Y-110874815D01*
X62577528Y-110874821D01*
X62426268Y-111012714D01*
X62302910Y-111176068D01*
X62302909Y-111176069D01*
X62211673Y-111359295D01*
X62211672Y-111359296D01*
X62155654Y-111556182D01*
X62155654Y-111556183D01*
X62136768Y-111759999D01*
X61815232Y-111759999D01*
X61796345Y-111556179D01*
X61740328Y-111359299D01*
X61649088Y-111176065D01*
X61525732Y-111012715D01*
X61525731Y-111012714D01*
X61374471Y-110874821D01*
X61374466Y-110874817D01*
X61374462Y-110874814D01*
X61200427Y-110767056D01*
X61200423Y-110767054D01*
X61009554Y-110693111D01*
X61009549Y-110693110D01*
X60808349Y-110655500D01*
X60808347Y-110655500D01*
X60603653Y-110655500D01*
X60603651Y-110655500D01*
X60402450Y-110693110D01*
X60402445Y-110693111D01*
X60211576Y-110767054D01*
X60211572Y-110767056D01*
X60103813Y-110833777D01*
X60037538Y-110874814D01*
X60037536Y-110874815D01*
X60037537Y-110874815D01*
X60037528Y-110874821D01*
X59886268Y-111012714D01*
X59762910Y-111176068D01*
X59762909Y-111176069D01*
X59671673Y-111359295D01*
X59671672Y-111359296D01*
X59615654Y-111556182D01*
X59615654Y-111556183D01*
X59596768Y-111760000D01*
X52782500Y-111760000D01*
X52782500Y-109505340D01*
X53981500Y-109505340D01*
X54022429Y-109750613D01*
X54103171Y-109985809D01*
X54103172Y-109985810D01*
X54221521Y-110204501D01*
X54221523Y-110204503D01*
X54221526Y-110204509D01*
X54374262Y-110400744D01*
X54374266Y-110400749D01*
X54512221Y-110527744D01*
X54557215Y-110569164D01*
X54765393Y-110705173D01*
X54993119Y-110805063D01*
X55234179Y-110866108D01*
X55234182Y-110866108D01*
X55234185Y-110866109D01*
X55373890Y-110877684D01*
X55419933Y-110881500D01*
X55419935Y-110881500D01*
X55544065Y-110881500D01*
X55544067Y-110881500D01*
X55596623Y-110877145D01*
X55729814Y-110866109D01*
X55729816Y-110866108D01*
X55729821Y-110866108D01*
X55970881Y-110805063D01*
X56198607Y-110705173D01*
X56406785Y-110569164D01*
X56589738Y-110400744D01*
X56742474Y-110204509D01*
X56860828Y-109985810D01*
X56941571Y-109750614D01*
X56982500Y-109505335D01*
X56982500Y-109256665D01*
X56941571Y-109011386D01*
X56860828Y-108776190D01*
X56742474Y-108557491D01*
X56589738Y-108361256D01*
X56589736Y-108361254D01*
X56589733Y-108361250D01*
X56406788Y-108192839D01*
X56406785Y-108192836D01*
X56198612Y-108056830D01*
X56198610Y-108056829D01*
X56198607Y-108056827D01*
X55970881Y-107956937D01*
X55729814Y-107895890D01*
X55563478Y-107882108D01*
X55544067Y-107880500D01*
X55419933Y-107880500D01*
X55401485Y-107882028D01*
X55234185Y-107895890D01*
X54993118Y-107956937D01*
X54930056Y-107984599D01*
X54765393Y-108056827D01*
X54765391Y-108056828D01*
X54765387Y-108056830D01*
X54557214Y-108192836D01*
X54557211Y-108192839D01*
X54374266Y-108361250D01*
X54221521Y-108557498D01*
X54103172Y-108776189D01*
X54103171Y-108776190D01*
X54022429Y-109011386D01*
X53981500Y-109256659D01*
X53981500Y-109505340D01*
X52782500Y-109505340D01*
X52782500Y-107171297D01*
X52782931Y-107164725D01*
X52796087Y-107064793D01*
X52802884Y-107039425D01*
X52837656Y-106955479D01*
X52850778Y-106932750D01*
X52906099Y-106860655D01*
X52924655Y-106842099D01*
X52996750Y-106786778D01*
X53019479Y-106773656D01*
X53103427Y-106738883D01*
X53128791Y-106732087D01*
X53228726Y-106718930D01*
X53235298Y-106718500D01*
X53248408Y-106718500D01*
X83465400Y-106718500D01*
X83524531Y-106737713D01*
G37*
G04 #@! TD.AperFunction*
M02*
