M48
; DRILL file {KiCad 7.0.7} date 2023 September 22, Friday 23:05:31
; FORMAT={-:-/ absolute / metric / decimal}
; #@! TF.CreationDate,2023-09-22T23:05:31+02:00
; #@! TF.GenerationSoftware,Kicad,Pcbnew,7.0.7
; #@! TF.FileFunction,MixedPlating,1,4
FMAT,2
METRIC
; #@! TA.AperFunction,Plated,PTH,ViaDrill
T1C0.400
; #@! TA.AperFunction,Plated,PTH,ComponentDrill
T2C0.650
; #@! TA.AperFunction,Plated,PTH,ComponentDrill
T3C0.830
; #@! TA.AperFunction,Plated,PTH,ComponentDrill
T4C0.890
; #@! TA.AperFunction,Plated,PTH,ComponentDrill
T5C1.000
; #@! TA.AperFunction,Plated,PTH,ComponentDrill
T6C1.800
; #@! TA.AperFunction,NonPlated,NPTH,ComponentDrill
T7C2.500
; #@! TA.AperFunction,NonPlated,NPTH,ComponentDrill
T8C3.250
%
G90
G05
T1
X58.511Y-119.791
X58.511Y-126.884
X60.071Y-119.761
X63.119Y-119.761
X64.77Y-117.221
X66.015Y-136.627
X66.12Y-152.468
X68.326Y-114.681
X68.326Y-115.951
X68.944Y-136.635
X69.088Y-132.969
X69.088Y-134.112
X69.088Y-135.255
X70.561Y-128.372
X70.739Y-140.538
X71.501Y-112.446
X72.568Y-141.681
X72.644Y-145.669
X73.914Y-115.951
X73.914Y-117.856
X74.828Y-121.531
X74.828Y-122.631
X74.828Y-123.731
X75.844Y-108.458
X75.844Y-110.299
X76.225Y-114.427
X77.495Y-108.458
X77.927Y-145.098
X77.927Y-149.098
X79.121Y-124.816
X79.121Y-131.572
X79.121Y-132.969
X79.121Y-134.112
X79.121Y-135.255
X79.337Y-108.458
X79.502Y-144.526
X79.502Y-146.05
X80.01Y-120.904
X81.242Y-108.458
X81.242Y-110.236
X81.28Y-141.859
X82.474Y-114.325
X82.779Y-143.281
X83.312Y-147.32
X84.201Y-107.442
X84.201Y-108.966
X84.201Y-110.49
X84.201Y-111.887
X84.658Y-143.154
X85.039Y-121.531
X85.039Y-122.631
X85.039Y-123.731
X85.598Y-111.887
X85.852Y-142.037
X86.487Y-137.16
X86.995Y-111.887
X87.376Y-133.35
X87.376Y-139.7
X87.63Y-148.59
X88.265Y-111.887
X88.392Y-126.365
X89.027Y-112.776
X90.043Y-113.919
X90.551Y-111.887
X91.059Y-114.935
X91.567Y-112.903
X91.694Y-111.887
X92.202Y-116.078
X92.202Y-117.348
X92.71Y-114.046
X92.71Y-118.745
X93.599Y-114.935
X93.98Y-140.462
X94.361Y-138.43
X94.488Y-116.078
X94.488Y-118.745
X94.615Y-123.825
X94.869Y-117.348
X94.878Y-114.173
X96.578Y-114.173
X97.155Y-139.725
X97.155Y-141.275
X97.155Y-142.799
X98.044Y-122.428
X98.278Y-114.173
X98.679Y-139.751
X98.679Y-141.3
X98.679Y-142.824
X99.978Y-114.173
X100.178Y-139.751
X100.178Y-141.3
X100.178Y-142.824
X101.6Y-137.795
X101.678Y-114.173
X103.378Y-114.173
X103.734Y-133.375
X105.029Y-137.16
X105.038Y-114.173
X105.207Y-147.371
X105.308Y-148.641
X106.738Y-114.173
X108.438Y-114.173
X109.271Y-148.844
X110.138Y-114.173
X111.125Y-146.05
X111.838Y-114.173
X113.03Y-133.579
X113.538Y-114.173
X115.062Y-114.173
T4
X59.372Y-136.056
X59.372Y-138.096
X59.372Y-140.136
X59.372Y-142.177
X61.152Y-135.036
X61.152Y-137.076
X61.152Y-139.117
X61.152Y-141.156
X65.962Y-131.746
X65.962Y-134.036
X65.962Y-143.177
X65.962Y-145.466
T5
X60.706Y-111.76
X60.706Y-114.3
X63.246Y-111.76
X63.246Y-114.3
X73.127Y-151.486
X73.127Y-154.026
X75.667Y-151.486
X75.667Y-154.026
X89.052Y-110.033
T6
X60.392Y-130.476
X60.392Y-146.737
T7
X55.482Y-109.381
X55.482Y-153.704
X113.013Y-109.508
X113.013Y-153.704
T8
X56.832Y-132.256
X56.832Y-144.957
T2
X57.178Y-118.743G85X56.978Y-118.743
G05
X57.178Y-123.593G85X56.978Y-123.593
G05
T3
X54.513Y-117.568G85X53.843Y-117.568
G05
X54.513Y-124.768G85X53.843Y-124.768
G05
T0
M30
