G04 #@! TF.GenerationSoftware,KiCad,Pcbnew,(6.0.1-0)*
G04 #@! TF.CreationDate,2022-01-18T00:45:39+01:00*
G04 #@! TF.ProjectId,ithowifi_4l,6974686f-7769-4666-995f-346c2e6b6963,rev?*
G04 #@! TF.SameCoordinates,Original*
G04 #@! TF.FileFunction,Soldermask,Top*
G04 #@! TF.FilePolarity,Negative*
%FSLAX46Y46*%
G04 Gerber Fmt 4.6, Leading zero omitted, Abs format (unit mm)*
G04 Created by KiCad (PCBNEW (6.0.1-0)) date 2022-01-18 00:45:39*
%MOMM*%
%LPD*%
G01*
G04 APERTURE LIST*
G04 Aperture macros list*
%AMRoundRect*
0 Rectangle with rounded corners*
0 $1 Rounding radius*
0 $2 $3 $4 $5 $6 $7 $8 $9 X,Y pos of 4 corners*
0 Add a 4 corners polygon primitive as box body*
4,1,4,$2,$3,$4,$5,$6,$7,$8,$9,$2,$3,0*
0 Add four circle primitives for the rounded corners*
1,1,$1+$1,$2,$3*
1,1,$1+$1,$4,$5*
1,1,$1+$1,$6,$7*
1,1,$1+$1,$8,$9*
0 Add four rect primitives between the rounded corners*
20,1,$1+$1,$2,$3,$4,$5,0*
20,1,$1+$1,$4,$5,$6,$7,0*
20,1,$1+$1,$6,$7,$8,$9,0*
20,1,$1+$1,$8,$9,$2,$3,0*%
G04 Aperture macros list end*
%ADD10R,2.000000X0.900000*%
%ADD11R,0.900000X2.000000*%
%ADD12R,5.000000X5.000000*%
%ADD13RoundRect,0.243750X0.243750X0.456250X-0.243750X0.456250X-0.243750X-0.456250X0.243750X-0.456250X0*%
%ADD14R,1.700000X1.700000*%
%ADD15O,1.700000X1.700000*%
%ADD16RoundRect,0.243750X-0.456250X0.243750X-0.456250X-0.243750X0.456250X-0.243750X0.456250X0.243750X0*%
%ADD17RoundRect,0.249998X-0.262502X-0.450002X0.262502X-0.450002X0.262502X0.450002X-0.262502X0.450002X0*%
%ADD18RoundRect,0.249998X0.262502X0.450002X-0.262502X0.450002X-0.262502X-0.450002X0.262502X-0.450002X0*%
%ADD19C,2.500000*%
%ADD20R,1.350000X0.400000*%
%ADD21RoundRect,0.273000X-0.677000X0.637000X-0.677000X-0.637000X0.677000X-0.637000X0.677000X0.637000X0*%
%ADD22O,1.250000X1.050000*%
%ADD23RoundRect,0.250000X0.250000X0.475000X-0.250000X0.475000X-0.250000X-0.475000X0.250000X-0.475000X0*%
%ADD24R,0.900000X0.800000*%
%ADD25RoundRect,0.243750X-0.243750X-0.456250X0.243750X-0.456250X0.243750X0.456250X-0.243750X0.456250X0*%
%ADD26R,1.500000X2.000000*%
%ADD27R,3.800000X2.000000*%
%ADD28R,2.300000X1.500000*%
%ADD29O,2.300000X1.500000*%
%ADD30C,1.446000*%
%ADD31C,2.700000*%
%ADD32RoundRect,0.250000X-0.475000X0.250000X-0.475000X-0.250000X0.475000X-0.250000X0.475000X0.250000X0*%
%ADD33RoundRect,0.250000X0.550000X-1.412500X0.550000X1.412500X-0.550000X1.412500X-0.550000X-1.412500X0*%
%ADD34RoundRect,0.250000X-0.250000X-0.475000X0.250000X-0.475000X0.250000X0.475000X-0.250000X0.475000X0*%
%ADD35R,0.750000X1.000000*%
%ADD36RoundRect,0.150000X-0.825000X-0.150000X0.825000X-0.150000X0.825000X0.150000X-0.825000X0.150000X0*%
%ADD37R,1.200000X1.400000*%
%ADD38C,1.500000*%
%ADD39RoundRect,0.250000X0.475000X-0.250000X0.475000X0.250000X-0.475000X0.250000X-0.475000X-0.250000X0*%
%ADD40R,1.000000X0.750000*%
%ADD41R,1.500000X5.080000*%
G04 APERTURE END LIST*
D10*
X104477600Y-148615400D03*
X104477600Y-147345400D03*
X104477600Y-146075400D03*
X104477600Y-144805400D03*
X104477600Y-143535400D03*
X104477600Y-142265400D03*
X104477600Y-140995400D03*
X104477600Y-139725400D03*
X104477600Y-138455400D03*
X104477600Y-137185400D03*
X104477600Y-135915400D03*
X104477600Y-134645400D03*
X104477600Y-133375400D03*
X104477600Y-132105400D03*
D11*
X101692600Y-131105400D03*
X100422600Y-131105400D03*
X99152600Y-131105400D03*
X97882600Y-131105400D03*
X96612600Y-131105400D03*
X95342600Y-131105400D03*
X94072600Y-131105400D03*
X92802600Y-131105400D03*
X91532600Y-131105400D03*
X90262600Y-131105400D03*
D10*
X87477600Y-132105400D03*
X87477600Y-133375400D03*
X87477600Y-134645400D03*
X87477600Y-135915400D03*
X87477600Y-137185400D03*
X87477600Y-138455400D03*
X87477600Y-139725400D03*
X87477600Y-140995400D03*
X87477600Y-142265400D03*
X87477600Y-143535400D03*
X87477600Y-144805400D03*
X87477600Y-146075400D03*
X87477600Y-147345400D03*
X87477600Y-148615400D03*
D12*
X96977600Y-141115400D03*
D13*
X111156500Y-139734000D03*
X109281500Y-139734000D03*
D14*
X77072000Y-153450000D03*
D15*
X74532000Y-153450000D03*
X77072000Y-150910000D03*
X74532000Y-150910000D03*
D16*
X82342500Y-129779500D03*
X82342500Y-131654500D03*
D17*
X109330000Y-144754600D03*
X111155000Y-144754600D03*
D18*
X90200000Y-126619000D03*
X88375000Y-126619000D03*
D19*
X55482000Y-109381000D03*
D20*
X56853200Y-119868000D03*
X56853200Y-120518000D03*
X56853200Y-121168000D03*
X56853200Y-121818000D03*
X56853200Y-122468000D03*
D21*
X54178200Y-124768000D03*
D22*
X57078200Y-123593000D03*
D21*
X54178200Y-117568000D03*
D22*
X57078200Y-118743000D03*
D23*
X111182000Y-147412500D03*
X109282000Y-147412500D03*
D24*
X78061000Y-142617100D03*
X78061000Y-140717100D03*
X76061000Y-141667100D03*
X78061000Y-146679600D03*
X78061000Y-144779600D03*
X76061000Y-145729600D03*
D25*
X80374000Y-145703000D03*
X82249000Y-145703000D03*
X80374000Y-141702500D03*
X82249000Y-141702500D03*
D13*
X73568500Y-145755000D03*
X71693500Y-145755000D03*
D16*
X68656200Y-124460000D03*
X68656200Y-126335000D03*
D26*
X77477300Y-118267500D03*
D27*
X79777300Y-111967500D03*
D26*
X79777300Y-118267500D03*
X82077300Y-118267500D03*
D18*
X68055000Y-150402000D03*
X66230000Y-150402000D03*
D28*
X77580000Y-134908000D03*
D29*
X77580000Y-132368000D03*
X77580000Y-129828000D03*
D19*
X113013000Y-109508000D03*
X113013000Y-153704000D03*
X55482000Y-153704000D03*
D30*
X59372500Y-142176500D03*
X61152500Y-141156500D03*
X59372500Y-140136500D03*
X61152500Y-139116500D03*
X59372500Y-138096500D03*
X61152500Y-137076500D03*
X59372500Y-136056500D03*
X61152500Y-135036500D03*
X65962500Y-145466500D03*
X65962500Y-143176500D03*
X65962500Y-134036500D03*
X65962500Y-131746500D03*
D31*
X60392500Y-130476500D03*
X60392500Y-146736500D03*
D13*
X73516000Y-141626500D03*
X71641000Y-141626500D03*
D32*
X82342500Y-134908000D03*
X82342500Y-136808000D03*
D23*
X82087800Y-121983500D03*
X80187800Y-121983500D03*
D18*
X99090000Y-126619000D03*
X97265000Y-126619000D03*
D24*
X94455000Y-126206000D03*
X94455000Y-124306000D03*
X92455000Y-125256000D03*
X102250000Y-124306000D03*
X102250000Y-126206000D03*
X104250000Y-125256000D03*
D33*
X109807000Y-123526500D03*
X109807000Y-118451500D03*
D17*
X97265000Y-124333000D03*
X99090000Y-124333000D03*
D34*
X109301200Y-142189200D03*
X111201200Y-142189200D03*
D35*
X108471000Y-130638000D03*
X108471000Y-136638000D03*
X112221000Y-136638000D03*
X112221000Y-130638000D03*
D23*
X63942000Y-121920000D03*
X62042000Y-121920000D03*
D32*
X66167000Y-124460000D03*
X66167000Y-126360000D03*
D14*
X63246000Y-114300000D03*
D15*
X60706000Y-114300000D03*
X63246000Y-111760000D03*
X60706000Y-111760000D03*
D23*
X63500000Y-117475000D03*
X61600000Y-117475000D03*
D25*
X66262000Y-108666000D03*
X68137000Y-108666000D03*
D18*
X71962000Y-111092000D03*
X70137000Y-111092000D03*
X71962000Y-108666000D03*
X70137000Y-108666000D03*
D36*
X66538400Y-113414600D03*
X66538400Y-114684600D03*
X66538400Y-115954600D03*
X66538400Y-117224600D03*
X66538400Y-118494600D03*
X66538400Y-119764600D03*
X66538400Y-121034600D03*
X66538400Y-122304600D03*
X71488400Y-122304600D03*
X71488400Y-121034600D03*
X71488400Y-119764600D03*
X71488400Y-118494600D03*
X71488400Y-117224600D03*
X71488400Y-115954600D03*
X71488400Y-114684600D03*
X71488400Y-113414600D03*
D37*
X62142000Y-124503000D03*
X62142000Y-126703000D03*
X63842000Y-126703000D03*
X63842000Y-124503000D03*
D38*
X94881700Y-110909100D03*
D25*
X66262000Y-111092000D03*
X68137000Y-111092000D03*
D39*
X59817000Y-126868000D03*
X59817000Y-124968000D03*
D14*
X76073000Y-124333000D03*
D15*
X76073000Y-121793000D03*
D40*
X104219000Y-117251000D03*
X98219000Y-117251000D03*
X104219000Y-121001000D03*
X98219000Y-121001000D03*
D41*
X99131400Y-109548400D03*
X90631400Y-109548400D03*
M02*
