G04 #@! TF.GenerationSoftware,KiCad,Pcbnew,(6.0.1-0)*
G04 #@! TF.CreationDate,2022-01-18T00:45:39+01:00*
G04 #@! TF.ProjectId,ithowifi_4l,6974686f-7769-4666-995f-346c2e6b6963,rev?*
G04 #@! TF.SameCoordinates,Original*
G04 #@! TF.FileFunction,Soldermask,Bot*
G04 #@! TF.FilePolarity,Negative*
%FSLAX46Y46*%
G04 Gerber Fmt 4.6, Leading zero omitted, Abs format (unit mm)*
G04 Created by KiCad (PCBNEW (6.0.1-0)) date 2022-01-18 00:45:39*
%MOMM*%
%LPD*%
G01*
G04 APERTURE LIST*
G04 Aperture macros list*
%AMRoundRect*
0 Rectangle with rounded corners*
0 $1 Rounding radius*
0 $2 $3 $4 $5 $6 $7 $8 $9 X,Y pos of 4 corners*
0 Add a 4 corners polygon primitive as box body*
4,1,4,$2,$3,$4,$5,$6,$7,$8,$9,$2,$3,0*
0 Add four circle primitives for the rounded corners*
1,1,$1+$1,$2,$3*
1,1,$1+$1,$4,$5*
1,1,$1+$1,$6,$7*
1,1,$1+$1,$8,$9*
0 Add four rect primitives between the rounded corners*
20,1,$1+$1,$2,$3,$4,$5,0*
20,1,$1+$1,$4,$5,$6,$7,0*
20,1,$1+$1,$6,$7,$8,$9,0*
20,1,$1+$1,$8,$9,$2,$3,0*%
G04 Aperture macros list end*
%ADD10R,1.700000X1.700000*%
%ADD11O,1.700000X1.700000*%
%ADD12C,2.500000*%
%ADD13RoundRect,0.273000X-0.677000X0.637000X-0.677000X-0.637000X0.677000X-0.637000X0.677000X0.637000X0*%
%ADD14O,1.250000X1.050000*%
%ADD15R,2.300000X1.500000*%
%ADD16O,2.300000X1.500000*%
%ADD17C,1.446000*%
%ADD18C,2.700000*%
%ADD19C,1.500000*%
%ADD20O,1.300000X1.750000*%
%ADD21R,1.500000X5.080000*%
G04 APERTURE END LIST*
D10*
X77072000Y-153450000D03*
D11*
X74532000Y-153450000D03*
X77072000Y-150910000D03*
X74532000Y-150910000D03*
D12*
X55482000Y-109381000D03*
D13*
X54178200Y-124768000D03*
D14*
X57078200Y-123593000D03*
D13*
X54178200Y-117568000D03*
D14*
X57078200Y-118743000D03*
D15*
X77580000Y-134908000D03*
D16*
X77580000Y-132368000D03*
X77580000Y-129828000D03*
D12*
X113013000Y-109508000D03*
X113013000Y-153704000D03*
X55482000Y-153704000D03*
D17*
X59372500Y-142176500D03*
X61152500Y-141156500D03*
X59372500Y-140136500D03*
X61152500Y-139116500D03*
X59372500Y-138096500D03*
X61152500Y-137076500D03*
X59372500Y-136056500D03*
X61152500Y-135036500D03*
X65962500Y-145466500D03*
X65962500Y-143176500D03*
X65962500Y-134036500D03*
X65962500Y-131746500D03*
D18*
X60392500Y-130476500D03*
X60392500Y-146736500D03*
D10*
X63246000Y-114300000D03*
D11*
X60706000Y-114300000D03*
X63246000Y-111760000D03*
X60706000Y-111760000D03*
D19*
X94881700Y-110909100D03*
D10*
X76073000Y-124333000D03*
D11*
X76073000Y-121793000D03*
D20*
X102872000Y-132739000D03*
X100872000Y-132739000D03*
X98872000Y-132739000D03*
X96872000Y-132739000D03*
X94872000Y-132739000D03*
X92872000Y-132739000D03*
X90872000Y-132739000D03*
X88872000Y-132739000D03*
X92372000Y-113739000D03*
X94872000Y-113739000D03*
X97372000Y-113739000D03*
D21*
X94881400Y-109548400D03*
X90631400Y-109548400D03*
X99131400Y-109548400D03*
M02*
