G04 #@! TF.GenerationSoftware,KiCad,Pcbnew,(5.1.9-0-10_14)*
G04 #@! TF.CreationDate,2021-01-29T16:34:27+01:00*
G04 #@! TF.ProjectId,ithowifi_4l,6974686f-7769-4666-995f-346c2e6b6963,rev?*
G04 #@! TF.SameCoordinates,Original*
G04 #@! TF.FileFunction,Copper,L4,Bot*
G04 #@! TF.FilePolarity,Positive*
%FSLAX46Y46*%
G04 Gerber Fmt 4.6, Leading zero omitted, Abs format (unit mm)*
G04 Created by KiCad (PCBNEW (5.1.9-0-10_14)) date 2021-01-29 16:34:27*
%MOMM*%
%LPD*%
G01*
G04 APERTURE LIST*
G04 #@! TA.AperFunction,ComponentPad*
%ADD10C,1.500000*%
G04 #@! TD*
G04 #@! TA.AperFunction,ComponentPad*
%ADD11O,1.700000X1.700000*%
G04 #@! TD*
G04 #@! TA.AperFunction,ComponentPad*
%ADD12R,1.700000X1.700000*%
G04 #@! TD*
G04 #@! TA.AperFunction,SMDPad,CuDef*
%ADD13R,1.500000X5.080000*%
G04 #@! TD*
G04 #@! TA.AperFunction,SMDPad,CuDef*
%ADD14C,1.750000*%
G04 #@! TD*
G04 #@! TA.AperFunction,SMDPad,CuDef*
%ADD15O,1.300000X1.750000*%
G04 #@! TD*
G04 #@! TA.AperFunction,ComponentPad*
%ADD16O,1.500000X2.300000*%
G04 #@! TD*
G04 #@! TA.AperFunction,ComponentPad*
%ADD17R,1.500000X2.300000*%
G04 #@! TD*
G04 #@! TA.AperFunction,ViaPad*
%ADD18C,0.800000*%
G04 #@! TD*
G04 #@! TA.AperFunction,Conductor*
%ADD19C,0.406400*%
G04 #@! TD*
G04 #@! TA.AperFunction,Conductor*
%ADD20C,0.250000*%
G04 #@! TD*
G04 #@! TA.AperFunction,Conductor*
%ADD21C,0.254000*%
G04 #@! TD*
G04 #@! TA.AperFunction,Conductor*
%ADD22C,1.473200*%
G04 #@! TD*
G04 #@! TA.AperFunction,Conductor*
%ADD23C,0.293370*%
G04 #@! TD*
G04 #@! TA.AperFunction,Conductor*
%ADD24C,0.203200*%
G04 #@! TD*
G04 #@! TA.AperFunction,Conductor*
%ADD25C,0.100000*%
G04 #@! TD*
G04 APERTURE END LIST*
D10*
X105181400Y-109474000D03*
D11*
X85725000Y-123037600D03*
X85725000Y-120497600D03*
X85725000Y-117957600D03*
X85725000Y-115417600D03*
X85725000Y-112877600D03*
X85725000Y-110337600D03*
D12*
X85725000Y-107797600D03*
D13*
X100931400Y-107848400D03*
X109431400Y-107848400D03*
X105181400Y-107848400D03*
D14*
X107672000Y-112039000D03*
X105172000Y-112039000D03*
X102672000Y-112039000D03*
D15*
X99172000Y-131039000D03*
X101172000Y-131039000D03*
X103172000Y-131039000D03*
X105172000Y-131039000D03*
X107172000Y-131039000D03*
X109172000Y-131039000D03*
X111172000Y-131039000D03*
X113172000Y-131039000D03*
D16*
X116179600Y-142951200D03*
X118719600Y-142951200D03*
D17*
X121259600Y-142951200D03*
D12*
X122047000Y-137795000D03*
D11*
X119507000Y-137795000D03*
X122047000Y-135255000D03*
X119507000Y-135255000D03*
X122047000Y-132715000D03*
X119507000Y-132715000D03*
X122047000Y-130175000D03*
X119507000Y-130175000D03*
D18*
X95250000Y-139700000D03*
X98806000Y-139700000D03*
X97028000Y-139700000D03*
X98806000Y-142748000D03*
X97028000Y-142748000D03*
X95250000Y-142748000D03*
X95250000Y-141224000D03*
X98806000Y-141224000D03*
X97028000Y-141224000D03*
X99187000Y-105918000D03*
X99187000Y-107442000D03*
X99187000Y-109093000D03*
X101092000Y-112014000D03*
X109220000Y-112014000D03*
X108229400Y-143002000D03*
X104648000Y-120142000D03*
X107061000Y-137668000D03*
X101727000Y-132715000D03*
X89154000Y-148590000D03*
X106172000Y-148590000D03*
X99187000Y-110871000D03*
X99187000Y-112522000D03*
X99187000Y-114173000D03*
X111125000Y-105918000D03*
X111125000Y-107442000D03*
X111125000Y-109093000D03*
X111125000Y-110871000D03*
X111125000Y-114173000D03*
X111125000Y-112522000D03*
X105918000Y-114173000D03*
X109220000Y-114173000D03*
X102489000Y-114173000D03*
X104140000Y-114173000D03*
X100965000Y-114173000D03*
X107569000Y-114173000D03*
X92202000Y-118872000D03*
X122682000Y-127698500D03*
X118618000Y-127698500D03*
X115811300Y-138036300D03*
X116433600Y-135407400D03*
X112268000Y-144526000D03*
X108077000Y-129540000D03*
X108077000Y-133350000D03*
X109601000Y-146050000D03*
X106172000Y-147320000D03*
X113157000Y-129413000D03*
X120269000Y-116713000D03*
X122936000Y-115316000D03*
X122682000Y-119761000D03*
X120396000Y-119634000D03*
X98679000Y-121920000D03*
X94234000Y-123571000D03*
X91821000Y-123571000D03*
X104648000Y-121793000D03*
X88773000Y-119888000D03*
X111760000Y-133477000D03*
X88265000Y-124587000D03*
X113157000Y-125857000D03*
X89585800Y-146075400D03*
X116697000Y-120539000D03*
X110972600Y-120014982D03*
X89204800Y-142265400D03*
X115252500Y-121666000D03*
X115252500Y-121666000D03*
X112242600Y-121259600D03*
X90424000Y-122301000D03*
X85039200Y-143560804D03*
X84531209Y-144805391D03*
X91109798Y-140843000D03*
X94106998Y-135382000D03*
X89154000Y-138430000D03*
X89027000Y-137160002D03*
X89154000Y-133350000D03*
X92456000Y-117602000D03*
X98473494Y-127810500D03*
D19*
X110946800Y-131039000D02*
X110947200Y-131038600D01*
X101117000Y-112039000D02*
X101092000Y-112014000D01*
X102672000Y-112039000D02*
X101117000Y-112039000D01*
X109195000Y-112039000D02*
X109220000Y-112014000D01*
X107672000Y-112039000D02*
X109195000Y-112039000D01*
D20*
X99593400Y-107848400D02*
X99187000Y-107442000D01*
X100931400Y-107848400D02*
X99593400Y-107848400D01*
X109431400Y-107848400D02*
X109372400Y-107848400D01*
X110718600Y-107848400D02*
X111125000Y-107442000D01*
X109431400Y-107848400D02*
X110718600Y-107848400D01*
D21*
X122682000Y-127698500D02*
X118618000Y-127698500D01*
X115811300Y-136029700D02*
X116433600Y-135407400D01*
X115811300Y-138036300D02*
X115811300Y-136029700D01*
X113172000Y-129428000D02*
X113157000Y-129413000D01*
X113172000Y-131039000D02*
X113172000Y-129428000D01*
X116697000Y-132667500D02*
X103289100Y-146075400D01*
X103289100Y-146075400D02*
X89585800Y-146075400D01*
X116697000Y-120539000D02*
X116697000Y-132667500D01*
X110997982Y-119989600D02*
X110972600Y-120014982D01*
X116147600Y-119989600D02*
X110997982Y-119989600D01*
X116697000Y-120539000D02*
X116147600Y-119989600D01*
X90449400Y-142265400D02*
X89204800Y-142265400D01*
X92710000Y-144526000D02*
X90449400Y-142265400D01*
X103060500Y-144526000D02*
X92710000Y-144526000D01*
X115252500Y-132334000D02*
X103060500Y-144526000D01*
X115252500Y-121666000D02*
X115252500Y-132334000D01*
X114846100Y-121259600D02*
X115252500Y-121666000D01*
X112242600Y-121259600D02*
X114846100Y-121259600D01*
D22*
X105181400Y-112029600D02*
X105172000Y-112039000D01*
D23*
X105172000Y-107857800D02*
X105181400Y-107848400D01*
X105172000Y-112039000D02*
X105172000Y-107857800D01*
D21*
X89687400Y-123037600D02*
X90424000Y-122301000D01*
X85725000Y-123037600D02*
X89687400Y-123037600D01*
D20*
X85725000Y-112877600D02*
X84498611Y-114103989D01*
X84498611Y-114103989D02*
X84498611Y-143020215D01*
X84498611Y-143020215D02*
X85039200Y-143560804D01*
X84048600Y-112014000D02*
X84048600Y-144322782D01*
X85725000Y-110337600D02*
X84048600Y-112014000D01*
X84048600Y-144322782D02*
X84531209Y-144805391D01*
D21*
X109172000Y-133779000D02*
X109172000Y-131039000D01*
X93065600Y-137820400D02*
X105130600Y-137820400D01*
X105130600Y-137820400D02*
X109172000Y-133779000D01*
X91109798Y-139776202D02*
X93065600Y-137820400D01*
X91109798Y-140843000D02*
X91109798Y-139776202D01*
X101958000Y-135382000D02*
X94106998Y-135382000D01*
X105172000Y-131039000D02*
X105172000Y-132168000D01*
X105172000Y-132168000D02*
X101958000Y-135382000D01*
X107172000Y-132985000D02*
X107172000Y-131039000D01*
X103428800Y-136728200D02*
X107172000Y-132985000D01*
X103428800Y-136728200D02*
X91617800Y-136728200D01*
X89916000Y-138430000D02*
X89154000Y-138430000D01*
X91617800Y-136728200D02*
X89916000Y-138430000D01*
X99489000Y-131039000D02*
X99441000Y-131087000D01*
X99172000Y-131039000D02*
X95148002Y-131039000D01*
X95148002Y-131039000D02*
X89027000Y-137160002D01*
X93218000Y-129286000D02*
X89154000Y-133350000D01*
X102616000Y-129286000D02*
X93218000Y-129286000D01*
X103172000Y-129842000D02*
X102616000Y-129286000D01*
X103172000Y-131039000D02*
X103172000Y-129842000D01*
X98473494Y-123619494D02*
X98473494Y-127810500D01*
X92456000Y-117602000D02*
X98473494Y-123619494D01*
D24*
X99593400Y-113538000D02*
X99595352Y-113557821D01*
X99601134Y-113576881D01*
X99610523Y-113594446D01*
X99623158Y-113609842D01*
X99638554Y-113622477D01*
X99656119Y-113631866D01*
X99675179Y-113637648D01*
X99695000Y-113639600D01*
X110617000Y-113639600D01*
X110636821Y-113637648D01*
X110655881Y-113631866D01*
X110673446Y-113622477D01*
X110688842Y-113609842D01*
X110701477Y-113594446D01*
X110710866Y-113576881D01*
X110716648Y-113557821D01*
X110718600Y-113538000D01*
X110718600Y-107927390D01*
X119674400Y-107927390D01*
X119674400Y-108312610D01*
X119749553Y-108690427D01*
X119896970Y-109046324D01*
X120110987Y-109366622D01*
X120383378Y-109639013D01*
X120703676Y-109853030D01*
X121059573Y-110000447D01*
X121437390Y-110075600D01*
X121822610Y-110075600D01*
X122200427Y-110000447D01*
X122556324Y-109853030D01*
X122876622Y-109639013D01*
X123149013Y-109366622D01*
X123363030Y-109046324D01*
X123510447Y-108690427D01*
X123585600Y-108312610D01*
X123585600Y-107927390D01*
X123510447Y-107549573D01*
X123363030Y-107193676D01*
X123149013Y-106873378D01*
X122876622Y-106600987D01*
X122556324Y-106386970D01*
X122200427Y-106239553D01*
X121822610Y-106164400D01*
X121437390Y-106164400D01*
X121059573Y-106239553D01*
X120703676Y-106386970D01*
X120383378Y-106600987D01*
X120110987Y-106873378D01*
X119896970Y-107193676D01*
X119749553Y-107549573D01*
X119674400Y-107927390D01*
X110718600Y-107927390D01*
X110718600Y-105444600D01*
X123296669Y-105444600D01*
X123630576Y-105477340D01*
X123932201Y-105568405D01*
X124210401Y-105716327D01*
X124454565Y-105915462D01*
X124655403Y-106158235D01*
X124805262Y-106435392D01*
X124898434Y-106736383D01*
X124933400Y-107069066D01*
X124933401Y-148696668D01*
X124912755Y-148907233D01*
X124857507Y-149090223D01*
X124767771Y-149258993D01*
X124646958Y-149407124D01*
X124499676Y-149528965D01*
X124331535Y-149619880D01*
X124148933Y-149676404D01*
X123939652Y-149698400D01*
X85110322Y-149698400D01*
X84776424Y-149665660D01*
X84474797Y-149574594D01*
X84196601Y-149426674D01*
X83952435Y-149227538D01*
X83751597Y-148984765D01*
X83601738Y-148707607D01*
X83508566Y-148406619D01*
X83473600Y-148073934D01*
X83473600Y-147245580D01*
X105416400Y-147245580D01*
X105416400Y-147394420D01*
X105445437Y-147540400D01*
X105502396Y-147677911D01*
X105585087Y-147801667D01*
X105690333Y-147906913D01*
X105814089Y-147989604D01*
X105951600Y-148046563D01*
X106097580Y-148075600D01*
X106246420Y-148075600D01*
X106392400Y-148046563D01*
X106529911Y-147989604D01*
X106653667Y-147906913D01*
X106758913Y-147801667D01*
X106841604Y-147677911D01*
X106898563Y-147540400D01*
X106927600Y-147394420D01*
X106927600Y-147245580D01*
X106898563Y-147099600D01*
X106841604Y-146962089D01*
X106758913Y-146838333D01*
X106653667Y-146733087D01*
X106529911Y-146650396D01*
X106392400Y-146593437D01*
X106246420Y-146564400D01*
X106097580Y-146564400D01*
X105951600Y-146593437D01*
X105814089Y-146650396D01*
X105690333Y-146733087D01*
X105585087Y-146838333D01*
X105502396Y-146962089D01*
X105445437Y-147099600D01*
X105416400Y-147245580D01*
X83473600Y-147245580D01*
X83473600Y-146000980D01*
X88830200Y-146000980D01*
X88830200Y-146149820D01*
X88859237Y-146295800D01*
X88916196Y-146433311D01*
X88998887Y-146557067D01*
X89104133Y-146662313D01*
X89227889Y-146745004D01*
X89365400Y-146801963D01*
X89511380Y-146831000D01*
X89660220Y-146831000D01*
X89806200Y-146801963D01*
X89943711Y-146745004D01*
X90067467Y-146662313D01*
X90171780Y-146558000D01*
X103265395Y-146558000D01*
X103289100Y-146560335D01*
X103312805Y-146558000D01*
X103312807Y-146558000D01*
X103383706Y-146551017D01*
X103474677Y-146523422D01*
X103558515Y-146478609D01*
X103632001Y-146418301D01*
X103647117Y-146399882D01*
X104071419Y-145975580D01*
X108845400Y-145975580D01*
X108845400Y-146124420D01*
X108874437Y-146270400D01*
X108931396Y-146407911D01*
X109014087Y-146531667D01*
X109119333Y-146636913D01*
X109243089Y-146719604D01*
X109380600Y-146776563D01*
X109526580Y-146805600D01*
X109675420Y-146805600D01*
X109821400Y-146776563D01*
X109958911Y-146719604D01*
X110082667Y-146636913D01*
X110187913Y-146531667D01*
X110270604Y-146407911D01*
X110327563Y-146270400D01*
X110356600Y-146124420D01*
X110356600Y-145975580D01*
X110327563Y-145829600D01*
X110270604Y-145692089D01*
X110187913Y-145568333D01*
X110082667Y-145463087D01*
X109958911Y-145380396D01*
X109821400Y-145323437D01*
X109675420Y-145294400D01*
X109526580Y-145294400D01*
X109380600Y-145323437D01*
X109243089Y-145380396D01*
X109119333Y-145463087D01*
X109014087Y-145568333D01*
X108931396Y-145692089D01*
X108874437Y-145829600D01*
X108845400Y-145975580D01*
X104071419Y-145975580D01*
X105595419Y-144451580D01*
X111512400Y-144451580D01*
X111512400Y-144600420D01*
X111541437Y-144746400D01*
X111598396Y-144883911D01*
X111681087Y-145007667D01*
X111786333Y-145112913D01*
X111910089Y-145195604D01*
X112047600Y-145252563D01*
X112193580Y-145281600D01*
X112342420Y-145281600D01*
X112488400Y-145252563D01*
X112625911Y-145195604D01*
X112749667Y-145112913D01*
X112854913Y-145007667D01*
X112937604Y-144883911D01*
X112994563Y-144746400D01*
X113023600Y-144600420D01*
X113023600Y-144451580D01*
X112994563Y-144305600D01*
X112937604Y-144168089D01*
X112854913Y-144044333D01*
X112749667Y-143939087D01*
X112625911Y-143856396D01*
X112488400Y-143799437D01*
X112342420Y-143770400D01*
X112193580Y-143770400D01*
X112047600Y-143799437D01*
X111910089Y-143856396D01*
X111786333Y-143939087D01*
X111681087Y-144044333D01*
X111598396Y-144168089D01*
X111541437Y-144305600D01*
X111512400Y-144451580D01*
X105595419Y-144451580D01*
X107550107Y-142496892D01*
X115074000Y-142496892D01*
X115074000Y-143405507D01*
X115089998Y-143567934D01*
X115153217Y-143776341D01*
X115255880Y-143968410D01*
X115394040Y-144136760D01*
X115562390Y-144274920D01*
X115754458Y-144377583D01*
X115962865Y-144440802D01*
X116179600Y-144462149D01*
X116396334Y-144440802D01*
X116604741Y-144377583D01*
X116796810Y-144274920D01*
X116965160Y-144136760D01*
X117103320Y-143968410D01*
X117205983Y-143776342D01*
X117269202Y-143567935D01*
X117285200Y-143405508D01*
X117285200Y-142976600D01*
X117563200Y-142976600D01*
X117563200Y-143376600D01*
X117590375Y-143601714D01*
X117660946Y-143817201D01*
X117772200Y-144014780D01*
X117919862Y-144186858D01*
X118098258Y-144326822D01*
X118300531Y-144429294D01*
X118513656Y-144489114D01*
X118694200Y-144405694D01*
X118694200Y-142976600D01*
X118745000Y-142976600D01*
X118745000Y-144405694D01*
X118925544Y-144489114D01*
X119138669Y-144429294D01*
X119340942Y-144326822D01*
X119519338Y-144186858D01*
X119667000Y-144014780D01*
X119778254Y-143817201D01*
X119848825Y-143601714D01*
X119876000Y-143376600D01*
X119876000Y-142976600D01*
X118745000Y-142976600D01*
X118694200Y-142976600D01*
X117563200Y-142976600D01*
X117285200Y-142976600D01*
X117285200Y-142525800D01*
X117563200Y-142525800D01*
X117563200Y-142925800D01*
X118694200Y-142925800D01*
X118694200Y-141496706D01*
X118745000Y-141496706D01*
X118745000Y-142925800D01*
X119876000Y-142925800D01*
X119876000Y-142525800D01*
X119848825Y-142300686D01*
X119778254Y-142085199D01*
X119667000Y-141887620D01*
X119592843Y-141801200D01*
X120152280Y-141801200D01*
X120152280Y-144101200D01*
X120159146Y-144170910D01*
X120179479Y-144237940D01*
X120212499Y-144299716D01*
X120256937Y-144353863D01*
X120311084Y-144398301D01*
X120372860Y-144431321D01*
X120439890Y-144451654D01*
X120509600Y-144458520D01*
X122009600Y-144458520D01*
X122079310Y-144451654D01*
X122146340Y-144431321D01*
X122208116Y-144398301D01*
X122262263Y-144353863D01*
X122306701Y-144299716D01*
X122339721Y-144237940D01*
X122360054Y-144170910D01*
X122366920Y-144101200D01*
X122366920Y-141801200D01*
X122360054Y-141731490D01*
X122339721Y-141664460D01*
X122306701Y-141602684D01*
X122262263Y-141548537D01*
X122208116Y-141504099D01*
X122146340Y-141471079D01*
X122079310Y-141450746D01*
X122009600Y-141443880D01*
X120509600Y-141443880D01*
X120439890Y-141450746D01*
X120372860Y-141471079D01*
X120311084Y-141504099D01*
X120256937Y-141548537D01*
X120212499Y-141602684D01*
X120179479Y-141664460D01*
X120159146Y-141731490D01*
X120152280Y-141801200D01*
X119592843Y-141801200D01*
X119519338Y-141715542D01*
X119340942Y-141575578D01*
X119138669Y-141473106D01*
X118925544Y-141413286D01*
X118745000Y-141496706D01*
X118694200Y-141496706D01*
X118513656Y-141413286D01*
X118300531Y-141473106D01*
X118098258Y-141575578D01*
X117919862Y-141715542D01*
X117772200Y-141887620D01*
X117660946Y-142085199D01*
X117590375Y-142300686D01*
X117563200Y-142525800D01*
X117285200Y-142525800D01*
X117285200Y-142496893D01*
X117269202Y-142334466D01*
X117205983Y-142126058D01*
X117103320Y-141933990D01*
X116965160Y-141765640D01*
X116796810Y-141627480D01*
X116604742Y-141524817D01*
X116396335Y-141461598D01*
X116179600Y-141440251D01*
X115962866Y-141461598D01*
X115754459Y-141524817D01*
X115562391Y-141627480D01*
X115394041Y-141765640D01*
X115255881Y-141933990D01*
X115153218Y-142126058D01*
X115089998Y-142334465D01*
X115074000Y-142496892D01*
X107550107Y-142496892D01*
X112085119Y-137961880D01*
X115055700Y-137961880D01*
X115055700Y-138110720D01*
X115084737Y-138256700D01*
X115141696Y-138394211D01*
X115224387Y-138517967D01*
X115329633Y-138623213D01*
X115453389Y-138705904D01*
X115590900Y-138762863D01*
X115736880Y-138791900D01*
X115885720Y-138791900D01*
X116031700Y-138762863D01*
X116169211Y-138705904D01*
X116292967Y-138623213D01*
X116398213Y-138517967D01*
X116480904Y-138394211D01*
X116537863Y-138256700D01*
X116566900Y-138110720D01*
X116566900Y-137961880D01*
X116537863Y-137815900D01*
X116480904Y-137678389D01*
X116479481Y-137676259D01*
X118301400Y-137676259D01*
X118301400Y-137913741D01*
X118347731Y-138146660D01*
X118438611Y-138366066D01*
X118570550Y-138563525D01*
X118738475Y-138731450D01*
X118935934Y-138863389D01*
X119155340Y-138954269D01*
X119388259Y-139000600D01*
X119625741Y-139000600D01*
X119858660Y-138954269D01*
X120078066Y-138863389D01*
X120275525Y-138731450D01*
X120443450Y-138563525D01*
X120575389Y-138366066D01*
X120666269Y-138146660D01*
X120712600Y-137913741D01*
X120712600Y-137676259D01*
X120666269Y-137443340D01*
X120575389Y-137223934D01*
X120443450Y-137026475D01*
X120361975Y-136945000D01*
X120839680Y-136945000D01*
X120839680Y-138645000D01*
X120846546Y-138714710D01*
X120866879Y-138781740D01*
X120899899Y-138843516D01*
X120944337Y-138897663D01*
X120998484Y-138942101D01*
X121060260Y-138975121D01*
X121127290Y-138995454D01*
X121197000Y-139002320D01*
X122897000Y-139002320D01*
X122966710Y-138995454D01*
X123033740Y-138975121D01*
X123095516Y-138942101D01*
X123149663Y-138897663D01*
X123194101Y-138843516D01*
X123227121Y-138781740D01*
X123247454Y-138714710D01*
X123254320Y-138645000D01*
X123254320Y-136945000D01*
X123247454Y-136875290D01*
X123227121Y-136808260D01*
X123194101Y-136746484D01*
X123149663Y-136692337D01*
X123095516Y-136647899D01*
X123033740Y-136614879D01*
X122966710Y-136594546D01*
X122897000Y-136587680D01*
X121197000Y-136587680D01*
X121127290Y-136594546D01*
X121060260Y-136614879D01*
X120998484Y-136647899D01*
X120944337Y-136692337D01*
X120899899Y-136746484D01*
X120866879Y-136808260D01*
X120846546Y-136875290D01*
X120839680Y-136945000D01*
X120361975Y-136945000D01*
X120275525Y-136858550D01*
X120078066Y-136726611D01*
X119858660Y-136635731D01*
X119625741Y-136589400D01*
X119388259Y-136589400D01*
X119155340Y-136635731D01*
X118935934Y-136726611D01*
X118738475Y-136858550D01*
X118570550Y-137026475D01*
X118438611Y-137223934D01*
X118347731Y-137443340D01*
X118301400Y-137676259D01*
X116479481Y-137676259D01*
X116398213Y-137554633D01*
X116293900Y-137450320D01*
X116293900Y-136229599D01*
X116360499Y-136163000D01*
X116508020Y-136163000D01*
X116654000Y-136133963D01*
X116791511Y-136077004D01*
X116915267Y-135994313D01*
X117020513Y-135889067D01*
X117103204Y-135765311D01*
X117160163Y-135627800D01*
X117189200Y-135481820D01*
X117189200Y-135332980D01*
X117160163Y-135187000D01*
X117139146Y-135136259D01*
X118301400Y-135136259D01*
X118301400Y-135373741D01*
X118347731Y-135606660D01*
X118438611Y-135826066D01*
X118570550Y-136023525D01*
X118738475Y-136191450D01*
X118935934Y-136323389D01*
X119155340Y-136414269D01*
X119388259Y-136460600D01*
X119625741Y-136460600D01*
X119858660Y-136414269D01*
X120078066Y-136323389D01*
X120275525Y-136191450D01*
X120443450Y-136023525D01*
X120575389Y-135826066D01*
X120666269Y-135606660D01*
X120712600Y-135373741D01*
X120712600Y-135136259D01*
X120841400Y-135136259D01*
X120841400Y-135373741D01*
X120887731Y-135606660D01*
X120978611Y-135826066D01*
X121110550Y-136023525D01*
X121278475Y-136191450D01*
X121475934Y-136323389D01*
X121695340Y-136414269D01*
X121928259Y-136460600D01*
X122165741Y-136460600D01*
X122398660Y-136414269D01*
X122618066Y-136323389D01*
X122815525Y-136191450D01*
X122983450Y-136023525D01*
X123115389Y-135826066D01*
X123206269Y-135606660D01*
X123252600Y-135373741D01*
X123252600Y-135136259D01*
X123206269Y-134903340D01*
X123115389Y-134683934D01*
X122983450Y-134486475D01*
X122815525Y-134318550D01*
X122618066Y-134186611D01*
X122398660Y-134095731D01*
X122165741Y-134049400D01*
X121928259Y-134049400D01*
X121695340Y-134095731D01*
X121475934Y-134186611D01*
X121278475Y-134318550D01*
X121110550Y-134486475D01*
X120978611Y-134683934D01*
X120887731Y-134903340D01*
X120841400Y-135136259D01*
X120712600Y-135136259D01*
X120666269Y-134903340D01*
X120575389Y-134683934D01*
X120443450Y-134486475D01*
X120275525Y-134318550D01*
X120078066Y-134186611D01*
X119858660Y-134095731D01*
X119625741Y-134049400D01*
X119388259Y-134049400D01*
X119155340Y-134095731D01*
X118935934Y-134186611D01*
X118738475Y-134318550D01*
X118570550Y-134486475D01*
X118438611Y-134683934D01*
X118347731Y-134903340D01*
X118301400Y-135136259D01*
X117139146Y-135136259D01*
X117103204Y-135049489D01*
X117020513Y-134925733D01*
X116915267Y-134820487D01*
X116791511Y-134737796D01*
X116654000Y-134680837D01*
X116508020Y-134651800D01*
X116359180Y-134651800D01*
X116213200Y-134680837D01*
X116075689Y-134737796D01*
X115951933Y-134820487D01*
X115846687Y-134925733D01*
X115763996Y-135049489D01*
X115707037Y-135187000D01*
X115678000Y-135332980D01*
X115678000Y-135480501D01*
X115486813Y-135671688D01*
X115468400Y-135686799D01*
X115453289Y-135705212D01*
X115453287Y-135705214D01*
X115408092Y-135760285D01*
X115363278Y-135844124D01*
X115335684Y-135935094D01*
X115326365Y-136029700D01*
X115328701Y-136053415D01*
X115328700Y-137450320D01*
X115224387Y-137554633D01*
X115141696Y-137678389D01*
X115084737Y-137815900D01*
X115055700Y-137961880D01*
X112085119Y-137961880D01*
X117021488Y-133025512D01*
X117039901Y-133010401D01*
X117100209Y-132936915D01*
X117145022Y-132853077D01*
X117172617Y-132762106D01*
X117179600Y-132691207D01*
X117179600Y-132691206D01*
X117181935Y-132667501D01*
X117179600Y-132643796D01*
X117179600Y-132596259D01*
X118301400Y-132596259D01*
X118301400Y-132833741D01*
X118347731Y-133066660D01*
X118438611Y-133286066D01*
X118570550Y-133483525D01*
X118738475Y-133651450D01*
X118935934Y-133783389D01*
X119155340Y-133874269D01*
X119388259Y-133920600D01*
X119625741Y-133920600D01*
X119858660Y-133874269D01*
X120078066Y-133783389D01*
X120275525Y-133651450D01*
X120443450Y-133483525D01*
X120575389Y-133286066D01*
X120666269Y-133066660D01*
X120692141Y-132936591D01*
X120810296Y-132936591D01*
X120819634Y-132983544D01*
X120895608Y-133217831D01*
X121015829Y-133432795D01*
X121175677Y-133620174D01*
X121369010Y-133772768D01*
X121588398Y-133884712D01*
X121825409Y-133951705D01*
X122021600Y-133869544D01*
X122021600Y-132740400D01*
X122072400Y-132740400D01*
X122072400Y-133869544D01*
X122268591Y-133951705D01*
X122505602Y-133884712D01*
X122724990Y-133772768D01*
X122918323Y-133620174D01*
X123078171Y-133432795D01*
X123198392Y-133217831D01*
X123274366Y-132983544D01*
X123283704Y-132936591D01*
X123201521Y-132740400D01*
X122072400Y-132740400D01*
X122021600Y-132740400D01*
X120892479Y-132740400D01*
X120810296Y-132936591D01*
X120692141Y-132936591D01*
X120712600Y-132833741D01*
X120712600Y-132596259D01*
X120692142Y-132493409D01*
X120810296Y-132493409D01*
X120892479Y-132689600D01*
X122021600Y-132689600D01*
X122021600Y-131560456D01*
X122072400Y-131560456D01*
X122072400Y-132689600D01*
X123201521Y-132689600D01*
X123283704Y-132493409D01*
X123274366Y-132446456D01*
X123198392Y-132212169D01*
X123078171Y-131997205D01*
X122918323Y-131809826D01*
X122724990Y-131657232D01*
X122505602Y-131545288D01*
X122268591Y-131478295D01*
X122072400Y-131560456D01*
X122021600Y-131560456D01*
X121825409Y-131478295D01*
X121588398Y-131545288D01*
X121369010Y-131657232D01*
X121175677Y-131809826D01*
X121015829Y-131997205D01*
X120895608Y-132212169D01*
X120819634Y-132446456D01*
X120810296Y-132493409D01*
X120692142Y-132493409D01*
X120666269Y-132363340D01*
X120575389Y-132143934D01*
X120443450Y-131946475D01*
X120275525Y-131778550D01*
X120078066Y-131646611D01*
X119858660Y-131555731D01*
X119625741Y-131509400D01*
X119388259Y-131509400D01*
X119155340Y-131555731D01*
X118935934Y-131646611D01*
X118738475Y-131778550D01*
X118570550Y-131946475D01*
X118438611Y-132143934D01*
X118347731Y-132363340D01*
X118301400Y-132596259D01*
X117179600Y-132596259D01*
X117179600Y-130056259D01*
X118301400Y-130056259D01*
X118301400Y-130293741D01*
X118347731Y-130526660D01*
X118438611Y-130746066D01*
X118570550Y-130943525D01*
X118738475Y-131111450D01*
X118935934Y-131243389D01*
X119155340Y-131334269D01*
X119388259Y-131380600D01*
X119625741Y-131380600D01*
X119858660Y-131334269D01*
X120078066Y-131243389D01*
X120275525Y-131111450D01*
X120443450Y-130943525D01*
X120575389Y-130746066D01*
X120666269Y-130526660D01*
X120712600Y-130293741D01*
X120712600Y-130056259D01*
X120841400Y-130056259D01*
X120841400Y-130293741D01*
X120887731Y-130526660D01*
X120978611Y-130746066D01*
X121110550Y-130943525D01*
X121278475Y-131111450D01*
X121475934Y-131243389D01*
X121695340Y-131334269D01*
X121928259Y-131380600D01*
X122165741Y-131380600D01*
X122398660Y-131334269D01*
X122618066Y-131243389D01*
X122815525Y-131111450D01*
X122983450Y-130943525D01*
X123115389Y-130746066D01*
X123206269Y-130526660D01*
X123252600Y-130293741D01*
X123252600Y-130056259D01*
X123206269Y-129823340D01*
X123115389Y-129603934D01*
X122983450Y-129406475D01*
X122815525Y-129238550D01*
X122618066Y-129106611D01*
X122398660Y-129015731D01*
X122165741Y-128969400D01*
X121928259Y-128969400D01*
X121695340Y-129015731D01*
X121475934Y-129106611D01*
X121278475Y-129238550D01*
X121110550Y-129406475D01*
X120978611Y-129603934D01*
X120887731Y-129823340D01*
X120841400Y-130056259D01*
X120712600Y-130056259D01*
X120666269Y-129823340D01*
X120575389Y-129603934D01*
X120443450Y-129406475D01*
X120275525Y-129238550D01*
X120078066Y-129106611D01*
X119858660Y-129015731D01*
X119625741Y-128969400D01*
X119388259Y-128969400D01*
X119155340Y-129015731D01*
X118935934Y-129106611D01*
X118738475Y-129238550D01*
X118570550Y-129406475D01*
X118438611Y-129603934D01*
X118347731Y-129823340D01*
X118301400Y-130056259D01*
X117179600Y-130056259D01*
X117179600Y-127624080D01*
X117862400Y-127624080D01*
X117862400Y-127772920D01*
X117891437Y-127918900D01*
X117948396Y-128056411D01*
X118031087Y-128180167D01*
X118136333Y-128285413D01*
X118260089Y-128368104D01*
X118397600Y-128425063D01*
X118543580Y-128454100D01*
X118692420Y-128454100D01*
X118838400Y-128425063D01*
X118975911Y-128368104D01*
X119099667Y-128285413D01*
X119203980Y-128181100D01*
X122096020Y-128181100D01*
X122200333Y-128285413D01*
X122324089Y-128368104D01*
X122461600Y-128425063D01*
X122607580Y-128454100D01*
X122756420Y-128454100D01*
X122902400Y-128425063D01*
X123039911Y-128368104D01*
X123163667Y-128285413D01*
X123268913Y-128180167D01*
X123351604Y-128056411D01*
X123408563Y-127918900D01*
X123437600Y-127772920D01*
X123437600Y-127624080D01*
X123408563Y-127478100D01*
X123351604Y-127340589D01*
X123268913Y-127216833D01*
X123163667Y-127111587D01*
X123039911Y-127028896D01*
X122902400Y-126971937D01*
X122756420Y-126942900D01*
X122607580Y-126942900D01*
X122461600Y-126971937D01*
X122324089Y-127028896D01*
X122200333Y-127111587D01*
X122096020Y-127215900D01*
X119203980Y-127215900D01*
X119099667Y-127111587D01*
X118975911Y-127028896D01*
X118838400Y-126971937D01*
X118692420Y-126942900D01*
X118543580Y-126942900D01*
X118397600Y-126971937D01*
X118260089Y-127028896D01*
X118136333Y-127111587D01*
X118031087Y-127216833D01*
X117948396Y-127340589D01*
X117891437Y-127478100D01*
X117862400Y-127624080D01*
X117179600Y-127624080D01*
X117179600Y-121124980D01*
X117283913Y-121020667D01*
X117366604Y-120896911D01*
X117423563Y-120759400D01*
X117452600Y-120613420D01*
X117452600Y-120464580D01*
X117423563Y-120318600D01*
X117366604Y-120181089D01*
X117283913Y-120057333D01*
X117178667Y-119952087D01*
X117054911Y-119869396D01*
X116917400Y-119812437D01*
X116771420Y-119783400D01*
X116623899Y-119783400D01*
X116505617Y-119665118D01*
X116490501Y-119646699D01*
X116417015Y-119586391D01*
X116366856Y-119559580D01*
X119640400Y-119559580D01*
X119640400Y-119708420D01*
X119669437Y-119854400D01*
X119726396Y-119991911D01*
X119809087Y-120115667D01*
X119914333Y-120220913D01*
X120038089Y-120303604D01*
X120175600Y-120360563D01*
X120321580Y-120389600D01*
X120470420Y-120389600D01*
X120616400Y-120360563D01*
X120753911Y-120303604D01*
X120877667Y-120220913D01*
X120982913Y-120115667D01*
X121065604Y-119991911D01*
X121122563Y-119854400D01*
X121151600Y-119708420D01*
X121151600Y-119686580D01*
X121926400Y-119686580D01*
X121926400Y-119835420D01*
X121955437Y-119981400D01*
X122012396Y-120118911D01*
X122095087Y-120242667D01*
X122200333Y-120347913D01*
X122324089Y-120430604D01*
X122461600Y-120487563D01*
X122607580Y-120516600D01*
X122756420Y-120516600D01*
X122902400Y-120487563D01*
X123039911Y-120430604D01*
X123163667Y-120347913D01*
X123268913Y-120242667D01*
X123351604Y-120118911D01*
X123408563Y-119981400D01*
X123437600Y-119835420D01*
X123437600Y-119686580D01*
X123408563Y-119540600D01*
X123351604Y-119403089D01*
X123268913Y-119279333D01*
X123163667Y-119174087D01*
X123039911Y-119091396D01*
X122902400Y-119034437D01*
X122756420Y-119005400D01*
X122607580Y-119005400D01*
X122461600Y-119034437D01*
X122324089Y-119091396D01*
X122200333Y-119174087D01*
X122095087Y-119279333D01*
X122012396Y-119403089D01*
X121955437Y-119540600D01*
X121926400Y-119686580D01*
X121151600Y-119686580D01*
X121151600Y-119559580D01*
X121122563Y-119413600D01*
X121065604Y-119276089D01*
X120982913Y-119152333D01*
X120877667Y-119047087D01*
X120753911Y-118964396D01*
X120616400Y-118907437D01*
X120470420Y-118878400D01*
X120321580Y-118878400D01*
X120175600Y-118907437D01*
X120038089Y-118964396D01*
X119914333Y-119047087D01*
X119809087Y-119152333D01*
X119726396Y-119276089D01*
X119669437Y-119413600D01*
X119640400Y-119559580D01*
X116366856Y-119559580D01*
X116333177Y-119541578D01*
X116242206Y-119513983D01*
X116171307Y-119507000D01*
X116171305Y-119507000D01*
X116147600Y-119504665D01*
X116123895Y-119507000D01*
X111533198Y-119507000D01*
X111454267Y-119428069D01*
X111330511Y-119345378D01*
X111193000Y-119288419D01*
X111047020Y-119259382D01*
X110898180Y-119259382D01*
X110752200Y-119288419D01*
X110614689Y-119345378D01*
X110490933Y-119428069D01*
X110385687Y-119533315D01*
X110302996Y-119657071D01*
X110246037Y-119794582D01*
X110217000Y-119940562D01*
X110217000Y-120089402D01*
X110246037Y-120235382D01*
X110302996Y-120372893D01*
X110385687Y-120496649D01*
X110490933Y-120601895D01*
X110614689Y-120684586D01*
X110752200Y-120741545D01*
X110898180Y-120770582D01*
X111047020Y-120770582D01*
X111193000Y-120741545D01*
X111330511Y-120684586D01*
X111454267Y-120601895D01*
X111559513Y-120496649D01*
X111575849Y-120472200D01*
X115941400Y-120472200D01*
X115941400Y-120613420D01*
X115970437Y-120759400D01*
X116027396Y-120896911D01*
X116110087Y-121020667D01*
X116214400Y-121124980D01*
X116214401Y-132467599D01*
X103089201Y-145592800D01*
X90171780Y-145592800D01*
X90067467Y-145488487D01*
X89943711Y-145405796D01*
X89806200Y-145348837D01*
X89660220Y-145319800D01*
X89511380Y-145319800D01*
X89365400Y-145348837D01*
X89227889Y-145405796D01*
X89104133Y-145488487D01*
X88998887Y-145593733D01*
X88916196Y-145717489D01*
X88859237Y-145855000D01*
X88830200Y-146000980D01*
X83473600Y-146000980D01*
X83473600Y-112014000D01*
X83565675Y-112014000D01*
X83568000Y-112037604D01*
X83568001Y-144299168D01*
X83565675Y-144322782D01*
X83571073Y-144377583D01*
X83574955Y-144416996D01*
X83584202Y-144447480D01*
X83602436Y-144507590D01*
X83647063Y-144591080D01*
X83647064Y-144591081D01*
X83707121Y-144664262D01*
X83725460Y-144679313D01*
X83775859Y-144729712D01*
X83775609Y-144730971D01*
X83775609Y-144879811D01*
X83804646Y-145025791D01*
X83861605Y-145163302D01*
X83944296Y-145287058D01*
X84049542Y-145392304D01*
X84173298Y-145474995D01*
X84310809Y-145531954D01*
X84456789Y-145560991D01*
X84605629Y-145560991D01*
X84751609Y-145531954D01*
X84889120Y-145474995D01*
X85012876Y-145392304D01*
X85118122Y-145287058D01*
X85200813Y-145163302D01*
X85257772Y-145025791D01*
X85286809Y-144879811D01*
X85286809Y-144730971D01*
X85257772Y-144584991D01*
X85200813Y-144447480D01*
X85118122Y-144323724D01*
X85110802Y-144316404D01*
X85113620Y-144316404D01*
X85259600Y-144287367D01*
X85397111Y-144230408D01*
X85520867Y-144147717D01*
X85626113Y-144042471D01*
X85708804Y-143918715D01*
X85765763Y-143781204D01*
X85794800Y-143635224D01*
X85794800Y-143486384D01*
X85765763Y-143340404D01*
X85708804Y-143202893D01*
X85626113Y-143079137D01*
X85520867Y-142973891D01*
X85397111Y-142891200D01*
X85259600Y-142834241D01*
X85113620Y-142805204D01*
X84979211Y-142805204D01*
X84979211Y-142190980D01*
X88449200Y-142190980D01*
X88449200Y-142339820D01*
X88478237Y-142485800D01*
X88535196Y-142623311D01*
X88617887Y-142747067D01*
X88723133Y-142852313D01*
X88846889Y-142935004D01*
X88984400Y-142991963D01*
X89130380Y-143021000D01*
X89279220Y-143021000D01*
X89425200Y-142991963D01*
X89562711Y-142935004D01*
X89686467Y-142852313D01*
X89790780Y-142748000D01*
X90249501Y-142748000D01*
X92351983Y-144850482D01*
X92367099Y-144868901D01*
X92440585Y-144929209D01*
X92524423Y-144974022D01*
X92615394Y-145001617D01*
X92686293Y-145008600D01*
X92686294Y-145008600D01*
X92709999Y-145010935D01*
X92733704Y-145008600D01*
X103036795Y-145008600D01*
X103060500Y-145010935D01*
X103084205Y-145008600D01*
X103084207Y-145008600D01*
X103155106Y-145001617D01*
X103246077Y-144974022D01*
X103329915Y-144929209D01*
X103403401Y-144868901D01*
X103418517Y-144850482D01*
X115576988Y-132692012D01*
X115595401Y-132676901D01*
X115655709Y-132603415D01*
X115700522Y-132519577D01*
X115708460Y-132493409D01*
X115728117Y-132428607D01*
X115737435Y-132334000D01*
X115735100Y-132310293D01*
X115735100Y-122251980D01*
X115839413Y-122147667D01*
X115922104Y-122023911D01*
X115979063Y-121886400D01*
X116008100Y-121740420D01*
X116008100Y-121591580D01*
X115979063Y-121445600D01*
X115922104Y-121308089D01*
X115839413Y-121184333D01*
X115734167Y-121079087D01*
X115610411Y-120996396D01*
X115472900Y-120939437D01*
X115326920Y-120910400D01*
X115181326Y-120910400D01*
X115115515Y-120856391D01*
X115031677Y-120811578D01*
X114940706Y-120783983D01*
X114869807Y-120777000D01*
X114869805Y-120777000D01*
X114846100Y-120774665D01*
X114822395Y-120777000D01*
X112828580Y-120777000D01*
X112724267Y-120672687D01*
X112600511Y-120589996D01*
X112463000Y-120533037D01*
X112317020Y-120504000D01*
X112168180Y-120504000D01*
X112022200Y-120533037D01*
X111884689Y-120589996D01*
X111760933Y-120672687D01*
X111655687Y-120777933D01*
X111572996Y-120901689D01*
X111516037Y-121039200D01*
X111487000Y-121185180D01*
X111487000Y-121334020D01*
X111516037Y-121480000D01*
X111572996Y-121617511D01*
X111655687Y-121741267D01*
X111760933Y-121846513D01*
X111884689Y-121929204D01*
X112022200Y-121986163D01*
X112168180Y-122015200D01*
X112317020Y-122015200D01*
X112463000Y-121986163D01*
X112600511Y-121929204D01*
X112724267Y-121846513D01*
X112828580Y-121742200D01*
X114497254Y-121742200D01*
X114525937Y-121886400D01*
X114582896Y-122023911D01*
X114665587Y-122147667D01*
X114769900Y-122251980D01*
X114769901Y-132134099D01*
X102860601Y-144043400D01*
X92909899Y-144043400D01*
X90807417Y-141940918D01*
X90792301Y-141922499D01*
X90718815Y-141862191D01*
X90634977Y-141817378D01*
X90544006Y-141789783D01*
X90473107Y-141782800D01*
X90473105Y-141782800D01*
X90449400Y-141780465D01*
X90425695Y-141782800D01*
X89790780Y-141782800D01*
X89686467Y-141678487D01*
X89562711Y-141595796D01*
X89425200Y-141538837D01*
X89279220Y-141509800D01*
X89130380Y-141509800D01*
X88984400Y-141538837D01*
X88846889Y-141595796D01*
X88723133Y-141678487D01*
X88617887Y-141783733D01*
X88535196Y-141907489D01*
X88478237Y-142045000D01*
X88449200Y-142190980D01*
X84979211Y-142190980D01*
X84979211Y-137085582D01*
X88271400Y-137085582D01*
X88271400Y-137234422D01*
X88300437Y-137380402D01*
X88357396Y-137517913D01*
X88440087Y-137641669D01*
X88545333Y-137746915D01*
X88669089Y-137829606D01*
X88683546Y-137835594D01*
X88672333Y-137843087D01*
X88567087Y-137948333D01*
X88484396Y-138072089D01*
X88427437Y-138209600D01*
X88398400Y-138355580D01*
X88398400Y-138504420D01*
X88427437Y-138650400D01*
X88484396Y-138787911D01*
X88567087Y-138911667D01*
X88672333Y-139016913D01*
X88796089Y-139099604D01*
X88933600Y-139156563D01*
X89079580Y-139185600D01*
X89228420Y-139185600D01*
X89374400Y-139156563D01*
X89511911Y-139099604D01*
X89635667Y-139016913D01*
X89739980Y-138912600D01*
X89892295Y-138912600D01*
X89916000Y-138914935D01*
X89939705Y-138912600D01*
X89939707Y-138912600D01*
X90010606Y-138905617D01*
X90101577Y-138878022D01*
X90185415Y-138833209D01*
X90258901Y-138772901D01*
X90274017Y-138754482D01*
X91817700Y-137210800D01*
X103405095Y-137210800D01*
X103428800Y-137213135D01*
X103452505Y-137210800D01*
X103452507Y-137210800D01*
X103523406Y-137203817D01*
X103614377Y-137176222D01*
X103698215Y-137131409D01*
X103771701Y-137071101D01*
X103786817Y-137052682D01*
X107336942Y-133502557D01*
X107350437Y-133570400D01*
X107407396Y-133707911D01*
X107490087Y-133831667D01*
X107595333Y-133936913D01*
X107719089Y-134019604D01*
X107856600Y-134076563D01*
X108002580Y-134105600D01*
X108151420Y-134105600D01*
X108165751Y-134102749D01*
X104930701Y-137337800D01*
X93089307Y-137337800D01*
X93065600Y-137335465D01*
X92970993Y-137344783D01*
X92880023Y-137372378D01*
X92796185Y-137417191D01*
X92722699Y-137477499D01*
X92707588Y-137495912D01*
X90785311Y-139418190D01*
X90766898Y-139433301D01*
X90751787Y-139451714D01*
X90751785Y-139451716D01*
X90706590Y-139506787D01*
X90661776Y-139590626D01*
X90634182Y-139681596D01*
X90624863Y-139776202D01*
X90627199Y-139799917D01*
X90627199Y-140257019D01*
X90522885Y-140361333D01*
X90440194Y-140485089D01*
X90383235Y-140622600D01*
X90354198Y-140768580D01*
X90354198Y-140917420D01*
X90383235Y-141063400D01*
X90440194Y-141200911D01*
X90522885Y-141324667D01*
X90628131Y-141429913D01*
X90751887Y-141512604D01*
X90889398Y-141569563D01*
X91035378Y-141598600D01*
X91184218Y-141598600D01*
X91330198Y-141569563D01*
X91467709Y-141512604D01*
X91591465Y-141429913D01*
X91696711Y-141324667D01*
X91779402Y-141200911D01*
X91836361Y-141063400D01*
X91865398Y-140917420D01*
X91865398Y-140768580D01*
X91836361Y-140622600D01*
X91779402Y-140485089D01*
X91696711Y-140361333D01*
X91592398Y-140257020D01*
X91592398Y-139976101D01*
X93265500Y-138303000D01*
X105106895Y-138303000D01*
X105130600Y-138305335D01*
X105154305Y-138303000D01*
X105154307Y-138303000D01*
X105225206Y-138296017D01*
X105316177Y-138268422D01*
X105400015Y-138223609D01*
X105473501Y-138163301D01*
X105488617Y-138144882D01*
X109496488Y-134137012D01*
X109514901Y-134121901D01*
X109575209Y-134048415D01*
X109620022Y-133964577D01*
X109647617Y-133873606D01*
X109654600Y-133802707D01*
X109654600Y-133802706D01*
X109656935Y-133779000D01*
X109654600Y-133755293D01*
X109654600Y-133402580D01*
X111004400Y-133402580D01*
X111004400Y-133551420D01*
X111033437Y-133697400D01*
X111090396Y-133834911D01*
X111173087Y-133958667D01*
X111278333Y-134063913D01*
X111402089Y-134146604D01*
X111539600Y-134203563D01*
X111685580Y-134232600D01*
X111834420Y-134232600D01*
X111980400Y-134203563D01*
X112117911Y-134146604D01*
X112241667Y-134063913D01*
X112346913Y-133958667D01*
X112429604Y-133834911D01*
X112486563Y-133697400D01*
X112515600Y-133551420D01*
X112515600Y-133402580D01*
X112486563Y-133256600D01*
X112429604Y-133119089D01*
X112346913Y-132995333D01*
X112241667Y-132890087D01*
X112117911Y-132807396D01*
X111980400Y-132750437D01*
X111834420Y-132721400D01*
X111685580Y-132721400D01*
X111539600Y-132750437D01*
X111402089Y-132807396D01*
X111278333Y-132890087D01*
X111173087Y-132995333D01*
X111090396Y-133119089D01*
X111033437Y-133256600D01*
X111004400Y-133402580D01*
X109654600Y-133402580D01*
X109654600Y-132146282D01*
X109733384Y-132104171D01*
X109886507Y-131978507D01*
X110012171Y-131825384D01*
X110105548Y-131650688D01*
X110147063Y-131513831D01*
X110205734Y-131691733D01*
X110307747Y-131872023D01*
X110442973Y-132028947D01*
X110606215Y-132156475D01*
X110791200Y-132249706D01*
X110981703Y-132303119D01*
X111146600Y-132218462D01*
X111146600Y-131064400D01*
X111126600Y-131064400D01*
X111126600Y-131013600D01*
X111146600Y-131013600D01*
X111146600Y-129859538D01*
X111197400Y-129859538D01*
X111197400Y-131013600D01*
X111217400Y-131013600D01*
X111217400Y-131064400D01*
X111197400Y-131064400D01*
X111197400Y-132218462D01*
X111362297Y-132303119D01*
X111552800Y-132249706D01*
X111737785Y-132156475D01*
X111901027Y-132028947D01*
X112036253Y-131872023D01*
X112138266Y-131691733D01*
X112196937Y-131513831D01*
X112238452Y-131650688D01*
X112331830Y-131825384D01*
X112457494Y-131978507D01*
X112610617Y-132104171D01*
X112785313Y-132197548D01*
X112974869Y-132255049D01*
X113172000Y-132274465D01*
X113369132Y-132255049D01*
X113558688Y-132197548D01*
X113733384Y-132104171D01*
X113886507Y-131978507D01*
X114012171Y-131825384D01*
X114105548Y-131650688D01*
X114163049Y-131461131D01*
X114177600Y-131313394D01*
X114177600Y-130764605D01*
X114163049Y-130616868D01*
X114105548Y-130427312D01*
X114012171Y-130252616D01*
X113886507Y-130099493D01*
X113733384Y-129973829D01*
X113688658Y-129949922D01*
X113743913Y-129894667D01*
X113826604Y-129770911D01*
X113883563Y-129633400D01*
X113912600Y-129487420D01*
X113912600Y-129338580D01*
X113883563Y-129192600D01*
X113826604Y-129055089D01*
X113743913Y-128931333D01*
X113638667Y-128826087D01*
X113514911Y-128743396D01*
X113377400Y-128686437D01*
X113231420Y-128657400D01*
X113082580Y-128657400D01*
X112936600Y-128686437D01*
X112799089Y-128743396D01*
X112675333Y-128826087D01*
X112570087Y-128931333D01*
X112487396Y-129055089D01*
X112430437Y-129192600D01*
X112401400Y-129338580D01*
X112401400Y-129487420D01*
X112430437Y-129633400D01*
X112487396Y-129770911D01*
X112570087Y-129894667D01*
X112635792Y-129960372D01*
X112610616Y-129973829D01*
X112457493Y-130099493D01*
X112331829Y-130252616D01*
X112238452Y-130427313D01*
X112196937Y-130564169D01*
X112138266Y-130386267D01*
X112036253Y-130205977D01*
X111901027Y-130049053D01*
X111737785Y-129921525D01*
X111552800Y-129828294D01*
X111362297Y-129774881D01*
X111197400Y-129859538D01*
X111146600Y-129859538D01*
X110981703Y-129774881D01*
X110791200Y-129828294D01*
X110606215Y-129921525D01*
X110442973Y-130049053D01*
X110307747Y-130205977D01*
X110205734Y-130386267D01*
X110147063Y-130564169D01*
X110105548Y-130427312D01*
X110012171Y-130252616D01*
X109886507Y-130099493D01*
X109733384Y-129973829D01*
X109558687Y-129880452D01*
X109369131Y-129822951D01*
X109172000Y-129803535D01*
X108974868Y-129822951D01*
X108785312Y-129880452D01*
X108743246Y-129902937D01*
X108746604Y-129897911D01*
X108803563Y-129760400D01*
X108832600Y-129614420D01*
X108832600Y-129465580D01*
X108803563Y-129319600D01*
X108746604Y-129182089D01*
X108663913Y-129058333D01*
X108558667Y-128953087D01*
X108434911Y-128870396D01*
X108297400Y-128813437D01*
X108151420Y-128784400D01*
X108002580Y-128784400D01*
X107856600Y-128813437D01*
X107719089Y-128870396D01*
X107595333Y-128953087D01*
X107490087Y-129058333D01*
X107407396Y-129182089D01*
X107350437Y-129319600D01*
X107321400Y-129465580D01*
X107321400Y-129614420D01*
X107350437Y-129760400D01*
X107377383Y-129825454D01*
X107369131Y-129822951D01*
X107172000Y-129803535D01*
X106974868Y-129822951D01*
X106785312Y-129880452D01*
X106610616Y-129973829D01*
X106457493Y-130099493D01*
X106331829Y-130252616D01*
X106238452Y-130427313D01*
X106180951Y-130616869D01*
X106172000Y-130707748D01*
X106163049Y-130616868D01*
X106105548Y-130427312D01*
X106012171Y-130252616D01*
X105886507Y-130099493D01*
X105733384Y-129973829D01*
X105558687Y-129880452D01*
X105369131Y-129822951D01*
X105172000Y-129803535D01*
X104974868Y-129822951D01*
X104785312Y-129880452D01*
X104610616Y-129973829D01*
X104457493Y-130099493D01*
X104331829Y-130252616D01*
X104238452Y-130427313D01*
X104180951Y-130616869D01*
X104172000Y-130707748D01*
X104163049Y-130616868D01*
X104105548Y-130427312D01*
X104012171Y-130252616D01*
X103886507Y-130099493D01*
X103733384Y-129973829D01*
X103654600Y-129931718D01*
X103654600Y-129865707D01*
X103656935Y-129842000D01*
X103647617Y-129747393D01*
X103620022Y-129656423D01*
X103605311Y-129628901D01*
X103575209Y-129572585D01*
X103514901Y-129499099D01*
X103496487Y-129483987D01*
X102974017Y-128961518D01*
X102958901Y-128943099D01*
X102885415Y-128882791D01*
X102801577Y-128837978D01*
X102710606Y-128810383D01*
X102639707Y-128803400D01*
X102639705Y-128803400D01*
X102616000Y-128801065D01*
X102592295Y-128803400D01*
X93241707Y-128803400D01*
X93218000Y-128801065D01*
X93123393Y-128810383D01*
X93071623Y-128826087D01*
X93032423Y-128837978D01*
X92948585Y-128882791D01*
X92875099Y-128943099D01*
X92859988Y-128961512D01*
X89227101Y-132594400D01*
X89079580Y-132594400D01*
X88933600Y-132623437D01*
X88796089Y-132680396D01*
X88672333Y-132763087D01*
X88567087Y-132868333D01*
X88484396Y-132992089D01*
X88427437Y-133129600D01*
X88398400Y-133275580D01*
X88398400Y-133424420D01*
X88427437Y-133570400D01*
X88484396Y-133707911D01*
X88567087Y-133831667D01*
X88672333Y-133936913D01*
X88796089Y-134019604D01*
X88933600Y-134076563D01*
X89079580Y-134105600D01*
X89228420Y-134105600D01*
X89374400Y-134076563D01*
X89511911Y-134019604D01*
X89635667Y-133936913D01*
X89740913Y-133831667D01*
X89823604Y-133707911D01*
X89880563Y-133570400D01*
X89909600Y-133424420D01*
X89909600Y-133276899D01*
X93417900Y-129768600D01*
X102416101Y-129768600D01*
X102617598Y-129970097D01*
X102610616Y-129973829D01*
X102457493Y-130099493D01*
X102331829Y-130252616D01*
X102238452Y-130427313D01*
X102180951Y-130616869D01*
X102172000Y-130707748D01*
X102163049Y-130616868D01*
X102105548Y-130427312D01*
X102012171Y-130252616D01*
X101886507Y-130099493D01*
X101733384Y-129973829D01*
X101558687Y-129880452D01*
X101369131Y-129822951D01*
X101172000Y-129803535D01*
X100974868Y-129822951D01*
X100785312Y-129880452D01*
X100610616Y-129973829D01*
X100457493Y-130099493D01*
X100331829Y-130252616D01*
X100238452Y-130427313D01*
X100180951Y-130616869D01*
X100172000Y-130707748D01*
X100163049Y-130616868D01*
X100105548Y-130427312D01*
X100012171Y-130252616D01*
X99886507Y-130099493D01*
X99733384Y-129973829D01*
X99558687Y-129880452D01*
X99369131Y-129822951D01*
X99172000Y-129803535D01*
X98974868Y-129822951D01*
X98785312Y-129880452D01*
X98610616Y-129973829D01*
X98457493Y-130099493D01*
X98331829Y-130252616D01*
X98238452Y-130427313D01*
X98199294Y-130556400D01*
X95171706Y-130556400D01*
X95148001Y-130554065D01*
X95124296Y-130556400D01*
X95124295Y-130556400D01*
X95053396Y-130563383D01*
X94962425Y-130590978D01*
X94878587Y-130635791D01*
X94805101Y-130696099D01*
X94789990Y-130714512D01*
X89100101Y-136404402D01*
X88952580Y-136404402D01*
X88806600Y-136433439D01*
X88669089Y-136490398D01*
X88545333Y-136573089D01*
X88440087Y-136678335D01*
X88357396Y-136802091D01*
X88300437Y-136939602D01*
X88271400Y-137085582D01*
X84979211Y-137085582D01*
X84979211Y-124512580D01*
X87509400Y-124512580D01*
X87509400Y-124661420D01*
X87538437Y-124807400D01*
X87595396Y-124944911D01*
X87678087Y-125068667D01*
X87783333Y-125173913D01*
X87907089Y-125256604D01*
X88044600Y-125313563D01*
X88190580Y-125342600D01*
X88339420Y-125342600D01*
X88485400Y-125313563D01*
X88622911Y-125256604D01*
X88746667Y-125173913D01*
X88851913Y-125068667D01*
X88934604Y-124944911D01*
X88991563Y-124807400D01*
X89020600Y-124661420D01*
X89020600Y-124512580D01*
X88991563Y-124366600D01*
X88934604Y-124229089D01*
X88851913Y-124105333D01*
X88746667Y-124000087D01*
X88622911Y-123917396D01*
X88485400Y-123860437D01*
X88339420Y-123831400D01*
X88190580Y-123831400D01*
X88044600Y-123860437D01*
X87907089Y-123917396D01*
X87783333Y-124000087D01*
X87678087Y-124105333D01*
X87595396Y-124229089D01*
X87538437Y-124366600D01*
X87509400Y-124512580D01*
X84979211Y-124512580D01*
X84979211Y-123989242D01*
X85153934Y-124105989D01*
X85373340Y-124196869D01*
X85606259Y-124243200D01*
X85843741Y-124243200D01*
X86076660Y-124196869D01*
X86296066Y-124105989D01*
X86493525Y-123974050D01*
X86661450Y-123806125D01*
X86793389Y-123608666D01*
X86830032Y-123520200D01*
X89663695Y-123520200D01*
X89687400Y-123522535D01*
X89711105Y-123520200D01*
X89711107Y-123520200D01*
X89782006Y-123513217D01*
X89836852Y-123496580D01*
X91065400Y-123496580D01*
X91065400Y-123645420D01*
X91094437Y-123791400D01*
X91151396Y-123928911D01*
X91234087Y-124052667D01*
X91339333Y-124157913D01*
X91463089Y-124240604D01*
X91600600Y-124297563D01*
X91746580Y-124326600D01*
X91895420Y-124326600D01*
X92041400Y-124297563D01*
X92178911Y-124240604D01*
X92302667Y-124157913D01*
X92407913Y-124052667D01*
X92490604Y-123928911D01*
X92547563Y-123791400D01*
X92576600Y-123645420D01*
X92576600Y-123496580D01*
X93478400Y-123496580D01*
X93478400Y-123645420D01*
X93507437Y-123791400D01*
X93564396Y-123928911D01*
X93647087Y-124052667D01*
X93752333Y-124157913D01*
X93876089Y-124240604D01*
X94013600Y-124297563D01*
X94159580Y-124326600D01*
X94308420Y-124326600D01*
X94454400Y-124297563D01*
X94591911Y-124240604D01*
X94715667Y-124157913D01*
X94820913Y-124052667D01*
X94903604Y-123928911D01*
X94960563Y-123791400D01*
X94989600Y-123645420D01*
X94989600Y-123496580D01*
X94960563Y-123350600D01*
X94903604Y-123213089D01*
X94820913Y-123089333D01*
X94715667Y-122984087D01*
X94591911Y-122901396D01*
X94454400Y-122844437D01*
X94308420Y-122815400D01*
X94159580Y-122815400D01*
X94013600Y-122844437D01*
X93876089Y-122901396D01*
X93752333Y-122984087D01*
X93647087Y-123089333D01*
X93564396Y-123213089D01*
X93507437Y-123350600D01*
X93478400Y-123496580D01*
X92576600Y-123496580D01*
X92547563Y-123350600D01*
X92490604Y-123213089D01*
X92407913Y-123089333D01*
X92302667Y-122984087D01*
X92178911Y-122901396D01*
X92041400Y-122844437D01*
X91895420Y-122815400D01*
X91746580Y-122815400D01*
X91600600Y-122844437D01*
X91463089Y-122901396D01*
X91339333Y-122984087D01*
X91234087Y-123089333D01*
X91151396Y-123213089D01*
X91094437Y-123350600D01*
X91065400Y-123496580D01*
X89836852Y-123496580D01*
X89872977Y-123485622D01*
X89956815Y-123440809D01*
X90030301Y-123380501D01*
X90045417Y-123362082D01*
X90350899Y-123056600D01*
X90498420Y-123056600D01*
X90644400Y-123027563D01*
X90781911Y-122970604D01*
X90905667Y-122887913D01*
X91010913Y-122782667D01*
X91093604Y-122658911D01*
X91150563Y-122521400D01*
X91179600Y-122375420D01*
X91179600Y-122232825D01*
X91330794Y-122262900D01*
X91498406Y-122262900D01*
X91662798Y-122230200D01*
X91817652Y-122166058D01*
X91957017Y-122072937D01*
X92075537Y-121954417D01*
X92168658Y-121815052D01*
X92232800Y-121660198D01*
X92265500Y-121495806D01*
X92265500Y-121328194D01*
X92232800Y-121163802D01*
X92168658Y-121008948D01*
X92075537Y-120869583D01*
X91957017Y-120751063D01*
X91817652Y-120657942D01*
X91662798Y-120593800D01*
X91498406Y-120561100D01*
X91330794Y-120561100D01*
X91166402Y-120593800D01*
X91011548Y-120657942D01*
X90872183Y-120751063D01*
X90753663Y-120869583D01*
X90660542Y-121008948D01*
X90596400Y-121163802D01*
X90563700Y-121328194D01*
X90563700Y-121495806D01*
X90576661Y-121560963D01*
X90498420Y-121545400D01*
X90349580Y-121545400D01*
X90218447Y-121571484D01*
X90233500Y-121495806D01*
X90233500Y-121328194D01*
X90200800Y-121163802D01*
X90136658Y-121008948D01*
X90043537Y-120869583D01*
X89925017Y-120751063D01*
X89785652Y-120657942D01*
X89630798Y-120593800D01*
X89466406Y-120561100D01*
X89298794Y-120561100D01*
X89134402Y-120593800D01*
X88979548Y-120657942D01*
X88840183Y-120751063D01*
X88721663Y-120869583D01*
X88628542Y-121008948D01*
X88564400Y-121163802D01*
X88531700Y-121328194D01*
X88531700Y-121495806D01*
X88564400Y-121660198D01*
X88628542Y-121815052D01*
X88721663Y-121954417D01*
X88840183Y-122072937D01*
X88979548Y-122166058D01*
X89134402Y-122230200D01*
X89298794Y-122262900D01*
X89466406Y-122262900D01*
X89630798Y-122230200D01*
X89670992Y-122213551D01*
X89668400Y-122226580D01*
X89668400Y-122374101D01*
X89487501Y-122555000D01*
X86830032Y-122555000D01*
X86793389Y-122466534D01*
X86661450Y-122269075D01*
X86493525Y-122101150D01*
X86296066Y-121969211D01*
X86076660Y-121878331D01*
X85843741Y-121832000D01*
X85606259Y-121832000D01*
X85373340Y-121878331D01*
X85153934Y-121969211D01*
X84979211Y-122085958D01*
X84979211Y-121501856D01*
X85047010Y-121555368D01*
X85266398Y-121667312D01*
X85503409Y-121734305D01*
X85699600Y-121652144D01*
X85699600Y-120523000D01*
X85750400Y-120523000D01*
X85750400Y-121652144D01*
X85946591Y-121734305D01*
X86183602Y-121667312D01*
X86402990Y-121555368D01*
X86596323Y-121402774D01*
X86756171Y-121215395D01*
X86876392Y-121000431D01*
X86952366Y-120766144D01*
X86961704Y-120719191D01*
X86879521Y-120523000D01*
X85750400Y-120523000D01*
X85699600Y-120523000D01*
X85679600Y-120523000D01*
X85679600Y-120472200D01*
X85699600Y-120472200D01*
X85699600Y-119343056D01*
X85750400Y-119343056D01*
X85750400Y-120472200D01*
X86879521Y-120472200D01*
X86961704Y-120276009D01*
X86952366Y-120229056D01*
X86876392Y-119994769D01*
X86775061Y-119813580D01*
X88017400Y-119813580D01*
X88017400Y-119962420D01*
X88046437Y-120108400D01*
X88103396Y-120245911D01*
X88186087Y-120369667D01*
X88291333Y-120474913D01*
X88415089Y-120557604D01*
X88552600Y-120614563D01*
X88698580Y-120643600D01*
X88847420Y-120643600D01*
X88993400Y-120614563D01*
X89130911Y-120557604D01*
X89254667Y-120474913D01*
X89359913Y-120369667D01*
X89442604Y-120245911D01*
X89499563Y-120108400D01*
X89528600Y-119962420D01*
X89528600Y-119813580D01*
X89499563Y-119667600D01*
X89442604Y-119530089D01*
X89359913Y-119406333D01*
X89254667Y-119301087D01*
X89130911Y-119218396D01*
X88993400Y-119161437D01*
X88847420Y-119132400D01*
X88698580Y-119132400D01*
X88552600Y-119161437D01*
X88415089Y-119218396D01*
X88291333Y-119301087D01*
X88186087Y-119406333D01*
X88103396Y-119530089D01*
X88046437Y-119667600D01*
X88017400Y-119813580D01*
X86775061Y-119813580D01*
X86756171Y-119779805D01*
X86596323Y-119592426D01*
X86402990Y-119439832D01*
X86183602Y-119327888D01*
X85946591Y-119260895D01*
X85750400Y-119343056D01*
X85699600Y-119343056D01*
X85503409Y-119260895D01*
X85266398Y-119327888D01*
X85047010Y-119439832D01*
X84979211Y-119493344D01*
X84979211Y-118909242D01*
X85153934Y-119025989D01*
X85373340Y-119116869D01*
X85606259Y-119163200D01*
X85843741Y-119163200D01*
X86076660Y-119116869D01*
X86296066Y-119025989D01*
X86493525Y-118894050D01*
X86661450Y-118726125D01*
X86793389Y-118528666D01*
X86884269Y-118309260D01*
X86930600Y-118076341D01*
X86930600Y-117838859D01*
X86884269Y-117605940D01*
X86851812Y-117527580D01*
X91700400Y-117527580D01*
X91700400Y-117676420D01*
X91729437Y-117822400D01*
X91786396Y-117959911D01*
X91869087Y-118083667D01*
X91974333Y-118188913D01*
X92098089Y-118271604D01*
X92235600Y-118328563D01*
X92381580Y-118357600D01*
X92529101Y-118357600D01*
X97990894Y-123819394D01*
X97990895Y-127224519D01*
X97886581Y-127328833D01*
X97803890Y-127452589D01*
X97746931Y-127590100D01*
X97717894Y-127736080D01*
X97717894Y-127884920D01*
X97746931Y-128030900D01*
X97803890Y-128168411D01*
X97886581Y-128292167D01*
X97991827Y-128397413D01*
X98115583Y-128480104D01*
X98253094Y-128537063D01*
X98399074Y-128566100D01*
X98547914Y-128566100D01*
X98693894Y-128537063D01*
X98831405Y-128480104D01*
X98955161Y-128397413D01*
X99060407Y-128292167D01*
X99143098Y-128168411D01*
X99200057Y-128030900D01*
X99229094Y-127884920D01*
X99229094Y-127736080D01*
X99200057Y-127590100D01*
X99143098Y-127452589D01*
X99060407Y-127328833D01*
X98956094Y-127224520D01*
X98956094Y-125782580D01*
X112401400Y-125782580D01*
X112401400Y-125931420D01*
X112430437Y-126077400D01*
X112487396Y-126214911D01*
X112570087Y-126338667D01*
X112675333Y-126443913D01*
X112799089Y-126526604D01*
X112936600Y-126583563D01*
X113082580Y-126612600D01*
X113231420Y-126612600D01*
X113377400Y-126583563D01*
X113514911Y-126526604D01*
X113638667Y-126443913D01*
X113743913Y-126338667D01*
X113826604Y-126214911D01*
X113883563Y-126077400D01*
X113912600Y-125931420D01*
X113912600Y-125782580D01*
X113883563Y-125636600D01*
X113826604Y-125499089D01*
X113743913Y-125375333D01*
X113638667Y-125270087D01*
X113514911Y-125187396D01*
X113377400Y-125130437D01*
X113231420Y-125101400D01*
X113082580Y-125101400D01*
X112936600Y-125130437D01*
X112799089Y-125187396D01*
X112675333Y-125270087D01*
X112570087Y-125375333D01*
X112487396Y-125499089D01*
X112430437Y-125636600D01*
X112401400Y-125782580D01*
X98956094Y-125782580D01*
X98956094Y-123643201D01*
X98958429Y-123619494D01*
X98949111Y-123524887D01*
X98921516Y-123433917D01*
X98892964Y-123380501D01*
X98876703Y-123350079D01*
X98816395Y-123276593D01*
X98797982Y-123261482D01*
X97382080Y-121845580D01*
X97923400Y-121845580D01*
X97923400Y-121994420D01*
X97952437Y-122140400D01*
X98009396Y-122277911D01*
X98092087Y-122401667D01*
X98197333Y-122506913D01*
X98321089Y-122589604D01*
X98458600Y-122646563D01*
X98604580Y-122675600D01*
X98753420Y-122675600D01*
X98899400Y-122646563D01*
X99036911Y-122589604D01*
X99160667Y-122506913D01*
X99265913Y-122401667D01*
X99348604Y-122277911D01*
X99405563Y-122140400D01*
X99434600Y-121994420D01*
X99434600Y-121845580D01*
X99409339Y-121718580D01*
X103892400Y-121718580D01*
X103892400Y-121867420D01*
X103921437Y-122013400D01*
X103978396Y-122150911D01*
X104061087Y-122274667D01*
X104166333Y-122379913D01*
X104290089Y-122462604D01*
X104427600Y-122519563D01*
X104573580Y-122548600D01*
X104722420Y-122548600D01*
X104868400Y-122519563D01*
X105005911Y-122462604D01*
X105129667Y-122379913D01*
X105234913Y-122274667D01*
X105317604Y-122150911D01*
X105374563Y-122013400D01*
X105403600Y-121867420D01*
X105403600Y-121718580D01*
X105374563Y-121572600D01*
X105317604Y-121435089D01*
X105234913Y-121311333D01*
X105129667Y-121206087D01*
X105005911Y-121123396D01*
X104868400Y-121066437D01*
X104722420Y-121037400D01*
X104573580Y-121037400D01*
X104427600Y-121066437D01*
X104290089Y-121123396D01*
X104166333Y-121206087D01*
X104061087Y-121311333D01*
X103978396Y-121435089D01*
X103921437Y-121572600D01*
X103892400Y-121718580D01*
X99409339Y-121718580D01*
X99405563Y-121699600D01*
X99348604Y-121562089D01*
X99265913Y-121438333D01*
X99160667Y-121333087D01*
X99036911Y-121250396D01*
X98899400Y-121193437D01*
X98753420Y-121164400D01*
X98604580Y-121164400D01*
X98458600Y-121193437D01*
X98321089Y-121250396D01*
X98197333Y-121333087D01*
X98092087Y-121438333D01*
X98009396Y-121562089D01*
X97952437Y-121699600D01*
X97923400Y-121845580D01*
X97382080Y-121845580D01*
X93211600Y-117675101D01*
X93211600Y-117527580D01*
X93182563Y-117381600D01*
X93125604Y-117244089D01*
X93042913Y-117120333D01*
X92937667Y-117015087D01*
X92813911Y-116932396D01*
X92676400Y-116875437D01*
X92530420Y-116846400D01*
X92381580Y-116846400D01*
X92235600Y-116875437D01*
X92098089Y-116932396D01*
X91974333Y-117015087D01*
X91869087Y-117120333D01*
X91786396Y-117244089D01*
X91729437Y-117381600D01*
X91700400Y-117527580D01*
X86851812Y-117527580D01*
X86793389Y-117386534D01*
X86661450Y-117189075D01*
X86493525Y-117021150D01*
X86296066Y-116889211D01*
X86076660Y-116798331D01*
X85843741Y-116752000D01*
X85606259Y-116752000D01*
X85373340Y-116798331D01*
X85153934Y-116889211D01*
X84979211Y-117005958D01*
X84979211Y-116369242D01*
X85153934Y-116485989D01*
X85373340Y-116576869D01*
X85606259Y-116623200D01*
X85843741Y-116623200D01*
X86076660Y-116576869D01*
X86296066Y-116485989D01*
X86493525Y-116354050D01*
X86599381Y-116248194D01*
X89547700Y-116248194D01*
X89547700Y-116415806D01*
X89580400Y-116580198D01*
X89644542Y-116735052D01*
X89737663Y-116874417D01*
X89856183Y-116992937D01*
X89995548Y-117086058D01*
X90150402Y-117150200D01*
X90314794Y-117182900D01*
X90482406Y-117182900D01*
X90646798Y-117150200D01*
X90801652Y-117086058D01*
X90941017Y-116992937D01*
X91059537Y-116874417D01*
X91152658Y-116735052D01*
X91192617Y-116638580D01*
X119513400Y-116638580D01*
X119513400Y-116787420D01*
X119542437Y-116933400D01*
X119599396Y-117070911D01*
X119682087Y-117194667D01*
X119787333Y-117299913D01*
X119911089Y-117382604D01*
X120048600Y-117439563D01*
X120194580Y-117468600D01*
X120343420Y-117468600D01*
X120489400Y-117439563D01*
X120626911Y-117382604D01*
X120750667Y-117299913D01*
X120855913Y-117194667D01*
X120938604Y-117070911D01*
X120995563Y-116933400D01*
X121024600Y-116787420D01*
X121024600Y-116638580D01*
X120995563Y-116492600D01*
X120938604Y-116355089D01*
X120855913Y-116231333D01*
X120750667Y-116126087D01*
X120626911Y-116043396D01*
X120489400Y-115986437D01*
X120343420Y-115957400D01*
X120194580Y-115957400D01*
X120048600Y-115986437D01*
X119911089Y-116043396D01*
X119787333Y-116126087D01*
X119682087Y-116231333D01*
X119599396Y-116355089D01*
X119542437Y-116492600D01*
X119513400Y-116638580D01*
X91192617Y-116638580D01*
X91216800Y-116580198D01*
X91249500Y-116415806D01*
X91249500Y-116248194D01*
X91216800Y-116083802D01*
X91152658Y-115928948D01*
X91059537Y-115789583D01*
X90941017Y-115671063D01*
X90801652Y-115577942D01*
X90646798Y-115513800D01*
X90482406Y-115481100D01*
X90314794Y-115481100D01*
X90150402Y-115513800D01*
X89995548Y-115577942D01*
X89856183Y-115671063D01*
X89737663Y-115789583D01*
X89644542Y-115928948D01*
X89580400Y-116083802D01*
X89547700Y-116248194D01*
X86599381Y-116248194D01*
X86661450Y-116186125D01*
X86793389Y-115988666D01*
X86884269Y-115769260D01*
X86930600Y-115536341D01*
X86930600Y-115298859D01*
X86884269Y-115065940D01*
X86793389Y-114846534D01*
X86661450Y-114649075D01*
X86493525Y-114481150D01*
X86296066Y-114349211D01*
X86076660Y-114258331D01*
X85843741Y-114212000D01*
X85606259Y-114212000D01*
X85373340Y-114258331D01*
X85153934Y-114349211D01*
X84979211Y-114465958D01*
X84979211Y-114303059D01*
X85282873Y-113999397D01*
X85373340Y-114036869D01*
X85606259Y-114083200D01*
X85843741Y-114083200D01*
X86076660Y-114036869D01*
X86296066Y-113945989D01*
X86493525Y-113814050D01*
X86661450Y-113646125D01*
X86793389Y-113448666D01*
X86836166Y-113345390D01*
X92532400Y-113345390D01*
X92532400Y-113730610D01*
X92607553Y-114108427D01*
X92754970Y-114464324D01*
X92968987Y-114784622D01*
X93241378Y-115057013D01*
X93561676Y-115271030D01*
X93917573Y-115418447D01*
X94295390Y-115493600D01*
X94680610Y-115493600D01*
X95058427Y-115418447D01*
X95414324Y-115271030D01*
X95458398Y-115241580D01*
X122180400Y-115241580D01*
X122180400Y-115390420D01*
X122209437Y-115536400D01*
X122266396Y-115673911D01*
X122349087Y-115797667D01*
X122454333Y-115902913D01*
X122578089Y-115985604D01*
X122715600Y-116042563D01*
X122861580Y-116071600D01*
X123010420Y-116071600D01*
X123156400Y-116042563D01*
X123293911Y-115985604D01*
X123417667Y-115902913D01*
X123522913Y-115797667D01*
X123605604Y-115673911D01*
X123662563Y-115536400D01*
X123691600Y-115390420D01*
X123691600Y-115241580D01*
X123662563Y-115095600D01*
X123605604Y-114958089D01*
X123522913Y-114834333D01*
X123417667Y-114729087D01*
X123293911Y-114646396D01*
X123156400Y-114589437D01*
X123010420Y-114560400D01*
X122861580Y-114560400D01*
X122715600Y-114589437D01*
X122578089Y-114646396D01*
X122454333Y-114729087D01*
X122349087Y-114834333D01*
X122266396Y-114958089D01*
X122209437Y-115095600D01*
X122180400Y-115241580D01*
X95458398Y-115241580D01*
X95734622Y-115057013D01*
X96007013Y-114784622D01*
X96221030Y-114464324D01*
X96368447Y-114108427D01*
X96443600Y-113730610D01*
X96443600Y-113345390D01*
X96368447Y-112967573D01*
X96221030Y-112611676D01*
X96007013Y-112291378D01*
X95734622Y-112018987D01*
X95414324Y-111804970D01*
X95058427Y-111657553D01*
X94680610Y-111582400D01*
X94295390Y-111582400D01*
X93917573Y-111657553D01*
X93561676Y-111804970D01*
X93241378Y-112018987D01*
X92968987Y-112291378D01*
X92754970Y-112611676D01*
X92607553Y-112967573D01*
X92532400Y-113345390D01*
X86836166Y-113345390D01*
X86884269Y-113229260D01*
X86930600Y-112996341D01*
X86930600Y-112758859D01*
X86884269Y-112525940D01*
X86793389Y-112306534D01*
X86661450Y-112109075D01*
X86493525Y-111941150D01*
X86296066Y-111809211D01*
X86076660Y-111718331D01*
X85843741Y-111672000D01*
X85606259Y-111672000D01*
X85373340Y-111718331D01*
X85153934Y-111809211D01*
X84956475Y-111941150D01*
X84788550Y-112109075D01*
X84656611Y-112306534D01*
X84565731Y-112525940D01*
X84529200Y-112709592D01*
X84529200Y-112213070D01*
X85282874Y-111459397D01*
X85373340Y-111496869D01*
X85606259Y-111543200D01*
X85843741Y-111543200D01*
X86076660Y-111496869D01*
X86296066Y-111405989D01*
X86493525Y-111274050D01*
X86661450Y-111106125D01*
X86793389Y-110908666D01*
X86884269Y-110689260D01*
X86930600Y-110456341D01*
X86930600Y-110218859D01*
X86884269Y-109985940D01*
X86793389Y-109766534D01*
X86661450Y-109569075D01*
X86493525Y-109401150D01*
X86296066Y-109269211D01*
X86076660Y-109178331D01*
X85843741Y-109132000D01*
X85606259Y-109132000D01*
X85373340Y-109178331D01*
X85153934Y-109269211D01*
X84956475Y-109401150D01*
X84788550Y-109569075D01*
X84656611Y-109766534D01*
X84565731Y-109985940D01*
X84519400Y-110218859D01*
X84519400Y-110456341D01*
X84565731Y-110689260D01*
X84603203Y-110779726D01*
X83725465Y-111657465D01*
X83707120Y-111672520D01*
X83647063Y-111745701D01*
X83602435Y-111829194D01*
X83574954Y-111919787D01*
X83568000Y-111990393D01*
X83565675Y-112014000D01*
X83473600Y-112014000D01*
X83473600Y-107081331D01*
X83486712Y-106947600D01*
X84517680Y-106947600D01*
X84517680Y-108647600D01*
X84524546Y-108717310D01*
X84544879Y-108784340D01*
X84577899Y-108846116D01*
X84622337Y-108900263D01*
X84676484Y-108944701D01*
X84738260Y-108977721D01*
X84805290Y-108998054D01*
X84875000Y-109004920D01*
X86575000Y-109004920D01*
X86644710Y-108998054D01*
X86711740Y-108977721D01*
X86773516Y-108944701D01*
X86827663Y-108900263D01*
X86872101Y-108846116D01*
X86905121Y-108784340D01*
X86925454Y-108717310D01*
X86932320Y-108647600D01*
X86932320Y-106947600D01*
X86925454Y-106877890D01*
X86905121Y-106810860D01*
X86872101Y-106749084D01*
X86827663Y-106694937D01*
X86773516Y-106650499D01*
X86711740Y-106617479D01*
X86644710Y-106597146D01*
X86575000Y-106590280D01*
X84875000Y-106590280D01*
X84805290Y-106597146D01*
X84738260Y-106617479D01*
X84676484Y-106650499D01*
X84622337Y-106694937D01*
X84577899Y-106749084D01*
X84544879Y-106810860D01*
X84524546Y-106877890D01*
X84517680Y-106947600D01*
X83486712Y-106947600D01*
X83506340Y-106747424D01*
X83597405Y-106445799D01*
X83745327Y-106167599D01*
X83944462Y-105923435D01*
X84187235Y-105722597D01*
X84464392Y-105572738D01*
X84765383Y-105479566D01*
X85098066Y-105444600D01*
X99593400Y-105444600D01*
X99593400Y-113538000D01*
G04 #@! TA.AperFunction,Conductor*
D25*
G36*
X99593400Y-113538000D02*
G01*
X99595352Y-113557821D01*
X99601134Y-113576881D01*
X99610523Y-113594446D01*
X99623158Y-113609842D01*
X99638554Y-113622477D01*
X99656119Y-113631866D01*
X99675179Y-113637648D01*
X99695000Y-113639600D01*
X110617000Y-113639600D01*
X110636821Y-113637648D01*
X110655881Y-113631866D01*
X110673446Y-113622477D01*
X110688842Y-113609842D01*
X110701477Y-113594446D01*
X110710866Y-113576881D01*
X110716648Y-113557821D01*
X110718600Y-113538000D01*
X110718600Y-107927390D01*
X119674400Y-107927390D01*
X119674400Y-108312610D01*
X119749553Y-108690427D01*
X119896970Y-109046324D01*
X120110987Y-109366622D01*
X120383378Y-109639013D01*
X120703676Y-109853030D01*
X121059573Y-110000447D01*
X121437390Y-110075600D01*
X121822610Y-110075600D01*
X122200427Y-110000447D01*
X122556324Y-109853030D01*
X122876622Y-109639013D01*
X123149013Y-109366622D01*
X123363030Y-109046324D01*
X123510447Y-108690427D01*
X123585600Y-108312610D01*
X123585600Y-107927390D01*
X123510447Y-107549573D01*
X123363030Y-107193676D01*
X123149013Y-106873378D01*
X122876622Y-106600987D01*
X122556324Y-106386970D01*
X122200427Y-106239553D01*
X121822610Y-106164400D01*
X121437390Y-106164400D01*
X121059573Y-106239553D01*
X120703676Y-106386970D01*
X120383378Y-106600987D01*
X120110987Y-106873378D01*
X119896970Y-107193676D01*
X119749553Y-107549573D01*
X119674400Y-107927390D01*
X110718600Y-107927390D01*
X110718600Y-105444600D01*
X123296669Y-105444600D01*
X123630576Y-105477340D01*
X123932201Y-105568405D01*
X124210401Y-105716327D01*
X124454565Y-105915462D01*
X124655403Y-106158235D01*
X124805262Y-106435392D01*
X124898434Y-106736383D01*
X124933400Y-107069066D01*
X124933401Y-148696668D01*
X124912755Y-148907233D01*
X124857507Y-149090223D01*
X124767771Y-149258993D01*
X124646958Y-149407124D01*
X124499676Y-149528965D01*
X124331535Y-149619880D01*
X124148933Y-149676404D01*
X123939652Y-149698400D01*
X85110322Y-149698400D01*
X84776424Y-149665660D01*
X84474797Y-149574594D01*
X84196601Y-149426674D01*
X83952435Y-149227538D01*
X83751597Y-148984765D01*
X83601738Y-148707607D01*
X83508566Y-148406619D01*
X83473600Y-148073934D01*
X83473600Y-147245580D01*
X105416400Y-147245580D01*
X105416400Y-147394420D01*
X105445437Y-147540400D01*
X105502396Y-147677911D01*
X105585087Y-147801667D01*
X105690333Y-147906913D01*
X105814089Y-147989604D01*
X105951600Y-148046563D01*
X106097580Y-148075600D01*
X106246420Y-148075600D01*
X106392400Y-148046563D01*
X106529911Y-147989604D01*
X106653667Y-147906913D01*
X106758913Y-147801667D01*
X106841604Y-147677911D01*
X106898563Y-147540400D01*
X106927600Y-147394420D01*
X106927600Y-147245580D01*
X106898563Y-147099600D01*
X106841604Y-146962089D01*
X106758913Y-146838333D01*
X106653667Y-146733087D01*
X106529911Y-146650396D01*
X106392400Y-146593437D01*
X106246420Y-146564400D01*
X106097580Y-146564400D01*
X105951600Y-146593437D01*
X105814089Y-146650396D01*
X105690333Y-146733087D01*
X105585087Y-146838333D01*
X105502396Y-146962089D01*
X105445437Y-147099600D01*
X105416400Y-147245580D01*
X83473600Y-147245580D01*
X83473600Y-146000980D01*
X88830200Y-146000980D01*
X88830200Y-146149820D01*
X88859237Y-146295800D01*
X88916196Y-146433311D01*
X88998887Y-146557067D01*
X89104133Y-146662313D01*
X89227889Y-146745004D01*
X89365400Y-146801963D01*
X89511380Y-146831000D01*
X89660220Y-146831000D01*
X89806200Y-146801963D01*
X89943711Y-146745004D01*
X90067467Y-146662313D01*
X90171780Y-146558000D01*
X103265395Y-146558000D01*
X103289100Y-146560335D01*
X103312805Y-146558000D01*
X103312807Y-146558000D01*
X103383706Y-146551017D01*
X103474677Y-146523422D01*
X103558515Y-146478609D01*
X103632001Y-146418301D01*
X103647117Y-146399882D01*
X104071419Y-145975580D01*
X108845400Y-145975580D01*
X108845400Y-146124420D01*
X108874437Y-146270400D01*
X108931396Y-146407911D01*
X109014087Y-146531667D01*
X109119333Y-146636913D01*
X109243089Y-146719604D01*
X109380600Y-146776563D01*
X109526580Y-146805600D01*
X109675420Y-146805600D01*
X109821400Y-146776563D01*
X109958911Y-146719604D01*
X110082667Y-146636913D01*
X110187913Y-146531667D01*
X110270604Y-146407911D01*
X110327563Y-146270400D01*
X110356600Y-146124420D01*
X110356600Y-145975580D01*
X110327563Y-145829600D01*
X110270604Y-145692089D01*
X110187913Y-145568333D01*
X110082667Y-145463087D01*
X109958911Y-145380396D01*
X109821400Y-145323437D01*
X109675420Y-145294400D01*
X109526580Y-145294400D01*
X109380600Y-145323437D01*
X109243089Y-145380396D01*
X109119333Y-145463087D01*
X109014087Y-145568333D01*
X108931396Y-145692089D01*
X108874437Y-145829600D01*
X108845400Y-145975580D01*
X104071419Y-145975580D01*
X105595419Y-144451580D01*
X111512400Y-144451580D01*
X111512400Y-144600420D01*
X111541437Y-144746400D01*
X111598396Y-144883911D01*
X111681087Y-145007667D01*
X111786333Y-145112913D01*
X111910089Y-145195604D01*
X112047600Y-145252563D01*
X112193580Y-145281600D01*
X112342420Y-145281600D01*
X112488400Y-145252563D01*
X112625911Y-145195604D01*
X112749667Y-145112913D01*
X112854913Y-145007667D01*
X112937604Y-144883911D01*
X112994563Y-144746400D01*
X113023600Y-144600420D01*
X113023600Y-144451580D01*
X112994563Y-144305600D01*
X112937604Y-144168089D01*
X112854913Y-144044333D01*
X112749667Y-143939087D01*
X112625911Y-143856396D01*
X112488400Y-143799437D01*
X112342420Y-143770400D01*
X112193580Y-143770400D01*
X112047600Y-143799437D01*
X111910089Y-143856396D01*
X111786333Y-143939087D01*
X111681087Y-144044333D01*
X111598396Y-144168089D01*
X111541437Y-144305600D01*
X111512400Y-144451580D01*
X105595419Y-144451580D01*
X107550107Y-142496892D01*
X115074000Y-142496892D01*
X115074000Y-143405507D01*
X115089998Y-143567934D01*
X115153217Y-143776341D01*
X115255880Y-143968410D01*
X115394040Y-144136760D01*
X115562390Y-144274920D01*
X115754458Y-144377583D01*
X115962865Y-144440802D01*
X116179600Y-144462149D01*
X116396334Y-144440802D01*
X116604741Y-144377583D01*
X116796810Y-144274920D01*
X116965160Y-144136760D01*
X117103320Y-143968410D01*
X117205983Y-143776342D01*
X117269202Y-143567935D01*
X117285200Y-143405508D01*
X117285200Y-142976600D01*
X117563200Y-142976600D01*
X117563200Y-143376600D01*
X117590375Y-143601714D01*
X117660946Y-143817201D01*
X117772200Y-144014780D01*
X117919862Y-144186858D01*
X118098258Y-144326822D01*
X118300531Y-144429294D01*
X118513656Y-144489114D01*
X118694200Y-144405694D01*
X118694200Y-142976600D01*
X118745000Y-142976600D01*
X118745000Y-144405694D01*
X118925544Y-144489114D01*
X119138669Y-144429294D01*
X119340942Y-144326822D01*
X119519338Y-144186858D01*
X119667000Y-144014780D01*
X119778254Y-143817201D01*
X119848825Y-143601714D01*
X119876000Y-143376600D01*
X119876000Y-142976600D01*
X118745000Y-142976600D01*
X118694200Y-142976600D01*
X117563200Y-142976600D01*
X117285200Y-142976600D01*
X117285200Y-142525800D01*
X117563200Y-142525800D01*
X117563200Y-142925800D01*
X118694200Y-142925800D01*
X118694200Y-141496706D01*
X118745000Y-141496706D01*
X118745000Y-142925800D01*
X119876000Y-142925800D01*
X119876000Y-142525800D01*
X119848825Y-142300686D01*
X119778254Y-142085199D01*
X119667000Y-141887620D01*
X119592843Y-141801200D01*
X120152280Y-141801200D01*
X120152280Y-144101200D01*
X120159146Y-144170910D01*
X120179479Y-144237940D01*
X120212499Y-144299716D01*
X120256937Y-144353863D01*
X120311084Y-144398301D01*
X120372860Y-144431321D01*
X120439890Y-144451654D01*
X120509600Y-144458520D01*
X122009600Y-144458520D01*
X122079310Y-144451654D01*
X122146340Y-144431321D01*
X122208116Y-144398301D01*
X122262263Y-144353863D01*
X122306701Y-144299716D01*
X122339721Y-144237940D01*
X122360054Y-144170910D01*
X122366920Y-144101200D01*
X122366920Y-141801200D01*
X122360054Y-141731490D01*
X122339721Y-141664460D01*
X122306701Y-141602684D01*
X122262263Y-141548537D01*
X122208116Y-141504099D01*
X122146340Y-141471079D01*
X122079310Y-141450746D01*
X122009600Y-141443880D01*
X120509600Y-141443880D01*
X120439890Y-141450746D01*
X120372860Y-141471079D01*
X120311084Y-141504099D01*
X120256937Y-141548537D01*
X120212499Y-141602684D01*
X120179479Y-141664460D01*
X120159146Y-141731490D01*
X120152280Y-141801200D01*
X119592843Y-141801200D01*
X119519338Y-141715542D01*
X119340942Y-141575578D01*
X119138669Y-141473106D01*
X118925544Y-141413286D01*
X118745000Y-141496706D01*
X118694200Y-141496706D01*
X118513656Y-141413286D01*
X118300531Y-141473106D01*
X118098258Y-141575578D01*
X117919862Y-141715542D01*
X117772200Y-141887620D01*
X117660946Y-142085199D01*
X117590375Y-142300686D01*
X117563200Y-142525800D01*
X117285200Y-142525800D01*
X117285200Y-142496893D01*
X117269202Y-142334466D01*
X117205983Y-142126058D01*
X117103320Y-141933990D01*
X116965160Y-141765640D01*
X116796810Y-141627480D01*
X116604742Y-141524817D01*
X116396335Y-141461598D01*
X116179600Y-141440251D01*
X115962866Y-141461598D01*
X115754459Y-141524817D01*
X115562391Y-141627480D01*
X115394041Y-141765640D01*
X115255881Y-141933990D01*
X115153218Y-142126058D01*
X115089998Y-142334465D01*
X115074000Y-142496892D01*
X107550107Y-142496892D01*
X112085119Y-137961880D01*
X115055700Y-137961880D01*
X115055700Y-138110720D01*
X115084737Y-138256700D01*
X115141696Y-138394211D01*
X115224387Y-138517967D01*
X115329633Y-138623213D01*
X115453389Y-138705904D01*
X115590900Y-138762863D01*
X115736880Y-138791900D01*
X115885720Y-138791900D01*
X116031700Y-138762863D01*
X116169211Y-138705904D01*
X116292967Y-138623213D01*
X116398213Y-138517967D01*
X116480904Y-138394211D01*
X116537863Y-138256700D01*
X116566900Y-138110720D01*
X116566900Y-137961880D01*
X116537863Y-137815900D01*
X116480904Y-137678389D01*
X116479481Y-137676259D01*
X118301400Y-137676259D01*
X118301400Y-137913741D01*
X118347731Y-138146660D01*
X118438611Y-138366066D01*
X118570550Y-138563525D01*
X118738475Y-138731450D01*
X118935934Y-138863389D01*
X119155340Y-138954269D01*
X119388259Y-139000600D01*
X119625741Y-139000600D01*
X119858660Y-138954269D01*
X120078066Y-138863389D01*
X120275525Y-138731450D01*
X120443450Y-138563525D01*
X120575389Y-138366066D01*
X120666269Y-138146660D01*
X120712600Y-137913741D01*
X120712600Y-137676259D01*
X120666269Y-137443340D01*
X120575389Y-137223934D01*
X120443450Y-137026475D01*
X120361975Y-136945000D01*
X120839680Y-136945000D01*
X120839680Y-138645000D01*
X120846546Y-138714710D01*
X120866879Y-138781740D01*
X120899899Y-138843516D01*
X120944337Y-138897663D01*
X120998484Y-138942101D01*
X121060260Y-138975121D01*
X121127290Y-138995454D01*
X121197000Y-139002320D01*
X122897000Y-139002320D01*
X122966710Y-138995454D01*
X123033740Y-138975121D01*
X123095516Y-138942101D01*
X123149663Y-138897663D01*
X123194101Y-138843516D01*
X123227121Y-138781740D01*
X123247454Y-138714710D01*
X123254320Y-138645000D01*
X123254320Y-136945000D01*
X123247454Y-136875290D01*
X123227121Y-136808260D01*
X123194101Y-136746484D01*
X123149663Y-136692337D01*
X123095516Y-136647899D01*
X123033740Y-136614879D01*
X122966710Y-136594546D01*
X122897000Y-136587680D01*
X121197000Y-136587680D01*
X121127290Y-136594546D01*
X121060260Y-136614879D01*
X120998484Y-136647899D01*
X120944337Y-136692337D01*
X120899899Y-136746484D01*
X120866879Y-136808260D01*
X120846546Y-136875290D01*
X120839680Y-136945000D01*
X120361975Y-136945000D01*
X120275525Y-136858550D01*
X120078066Y-136726611D01*
X119858660Y-136635731D01*
X119625741Y-136589400D01*
X119388259Y-136589400D01*
X119155340Y-136635731D01*
X118935934Y-136726611D01*
X118738475Y-136858550D01*
X118570550Y-137026475D01*
X118438611Y-137223934D01*
X118347731Y-137443340D01*
X118301400Y-137676259D01*
X116479481Y-137676259D01*
X116398213Y-137554633D01*
X116293900Y-137450320D01*
X116293900Y-136229599D01*
X116360499Y-136163000D01*
X116508020Y-136163000D01*
X116654000Y-136133963D01*
X116791511Y-136077004D01*
X116915267Y-135994313D01*
X117020513Y-135889067D01*
X117103204Y-135765311D01*
X117160163Y-135627800D01*
X117189200Y-135481820D01*
X117189200Y-135332980D01*
X117160163Y-135187000D01*
X117139146Y-135136259D01*
X118301400Y-135136259D01*
X118301400Y-135373741D01*
X118347731Y-135606660D01*
X118438611Y-135826066D01*
X118570550Y-136023525D01*
X118738475Y-136191450D01*
X118935934Y-136323389D01*
X119155340Y-136414269D01*
X119388259Y-136460600D01*
X119625741Y-136460600D01*
X119858660Y-136414269D01*
X120078066Y-136323389D01*
X120275525Y-136191450D01*
X120443450Y-136023525D01*
X120575389Y-135826066D01*
X120666269Y-135606660D01*
X120712600Y-135373741D01*
X120712600Y-135136259D01*
X120841400Y-135136259D01*
X120841400Y-135373741D01*
X120887731Y-135606660D01*
X120978611Y-135826066D01*
X121110550Y-136023525D01*
X121278475Y-136191450D01*
X121475934Y-136323389D01*
X121695340Y-136414269D01*
X121928259Y-136460600D01*
X122165741Y-136460600D01*
X122398660Y-136414269D01*
X122618066Y-136323389D01*
X122815525Y-136191450D01*
X122983450Y-136023525D01*
X123115389Y-135826066D01*
X123206269Y-135606660D01*
X123252600Y-135373741D01*
X123252600Y-135136259D01*
X123206269Y-134903340D01*
X123115389Y-134683934D01*
X122983450Y-134486475D01*
X122815525Y-134318550D01*
X122618066Y-134186611D01*
X122398660Y-134095731D01*
X122165741Y-134049400D01*
X121928259Y-134049400D01*
X121695340Y-134095731D01*
X121475934Y-134186611D01*
X121278475Y-134318550D01*
X121110550Y-134486475D01*
X120978611Y-134683934D01*
X120887731Y-134903340D01*
X120841400Y-135136259D01*
X120712600Y-135136259D01*
X120666269Y-134903340D01*
X120575389Y-134683934D01*
X120443450Y-134486475D01*
X120275525Y-134318550D01*
X120078066Y-134186611D01*
X119858660Y-134095731D01*
X119625741Y-134049400D01*
X119388259Y-134049400D01*
X119155340Y-134095731D01*
X118935934Y-134186611D01*
X118738475Y-134318550D01*
X118570550Y-134486475D01*
X118438611Y-134683934D01*
X118347731Y-134903340D01*
X118301400Y-135136259D01*
X117139146Y-135136259D01*
X117103204Y-135049489D01*
X117020513Y-134925733D01*
X116915267Y-134820487D01*
X116791511Y-134737796D01*
X116654000Y-134680837D01*
X116508020Y-134651800D01*
X116359180Y-134651800D01*
X116213200Y-134680837D01*
X116075689Y-134737796D01*
X115951933Y-134820487D01*
X115846687Y-134925733D01*
X115763996Y-135049489D01*
X115707037Y-135187000D01*
X115678000Y-135332980D01*
X115678000Y-135480501D01*
X115486813Y-135671688D01*
X115468400Y-135686799D01*
X115453289Y-135705212D01*
X115453287Y-135705214D01*
X115408092Y-135760285D01*
X115363278Y-135844124D01*
X115335684Y-135935094D01*
X115326365Y-136029700D01*
X115328701Y-136053415D01*
X115328700Y-137450320D01*
X115224387Y-137554633D01*
X115141696Y-137678389D01*
X115084737Y-137815900D01*
X115055700Y-137961880D01*
X112085119Y-137961880D01*
X117021488Y-133025512D01*
X117039901Y-133010401D01*
X117100209Y-132936915D01*
X117145022Y-132853077D01*
X117172617Y-132762106D01*
X117179600Y-132691207D01*
X117179600Y-132691206D01*
X117181935Y-132667501D01*
X117179600Y-132643796D01*
X117179600Y-132596259D01*
X118301400Y-132596259D01*
X118301400Y-132833741D01*
X118347731Y-133066660D01*
X118438611Y-133286066D01*
X118570550Y-133483525D01*
X118738475Y-133651450D01*
X118935934Y-133783389D01*
X119155340Y-133874269D01*
X119388259Y-133920600D01*
X119625741Y-133920600D01*
X119858660Y-133874269D01*
X120078066Y-133783389D01*
X120275525Y-133651450D01*
X120443450Y-133483525D01*
X120575389Y-133286066D01*
X120666269Y-133066660D01*
X120692141Y-132936591D01*
X120810296Y-132936591D01*
X120819634Y-132983544D01*
X120895608Y-133217831D01*
X121015829Y-133432795D01*
X121175677Y-133620174D01*
X121369010Y-133772768D01*
X121588398Y-133884712D01*
X121825409Y-133951705D01*
X122021600Y-133869544D01*
X122021600Y-132740400D01*
X122072400Y-132740400D01*
X122072400Y-133869544D01*
X122268591Y-133951705D01*
X122505602Y-133884712D01*
X122724990Y-133772768D01*
X122918323Y-133620174D01*
X123078171Y-133432795D01*
X123198392Y-133217831D01*
X123274366Y-132983544D01*
X123283704Y-132936591D01*
X123201521Y-132740400D01*
X122072400Y-132740400D01*
X122021600Y-132740400D01*
X120892479Y-132740400D01*
X120810296Y-132936591D01*
X120692141Y-132936591D01*
X120712600Y-132833741D01*
X120712600Y-132596259D01*
X120692142Y-132493409D01*
X120810296Y-132493409D01*
X120892479Y-132689600D01*
X122021600Y-132689600D01*
X122021600Y-131560456D01*
X122072400Y-131560456D01*
X122072400Y-132689600D01*
X123201521Y-132689600D01*
X123283704Y-132493409D01*
X123274366Y-132446456D01*
X123198392Y-132212169D01*
X123078171Y-131997205D01*
X122918323Y-131809826D01*
X122724990Y-131657232D01*
X122505602Y-131545288D01*
X122268591Y-131478295D01*
X122072400Y-131560456D01*
X122021600Y-131560456D01*
X121825409Y-131478295D01*
X121588398Y-131545288D01*
X121369010Y-131657232D01*
X121175677Y-131809826D01*
X121015829Y-131997205D01*
X120895608Y-132212169D01*
X120819634Y-132446456D01*
X120810296Y-132493409D01*
X120692142Y-132493409D01*
X120666269Y-132363340D01*
X120575389Y-132143934D01*
X120443450Y-131946475D01*
X120275525Y-131778550D01*
X120078066Y-131646611D01*
X119858660Y-131555731D01*
X119625741Y-131509400D01*
X119388259Y-131509400D01*
X119155340Y-131555731D01*
X118935934Y-131646611D01*
X118738475Y-131778550D01*
X118570550Y-131946475D01*
X118438611Y-132143934D01*
X118347731Y-132363340D01*
X118301400Y-132596259D01*
X117179600Y-132596259D01*
X117179600Y-130056259D01*
X118301400Y-130056259D01*
X118301400Y-130293741D01*
X118347731Y-130526660D01*
X118438611Y-130746066D01*
X118570550Y-130943525D01*
X118738475Y-131111450D01*
X118935934Y-131243389D01*
X119155340Y-131334269D01*
X119388259Y-131380600D01*
X119625741Y-131380600D01*
X119858660Y-131334269D01*
X120078066Y-131243389D01*
X120275525Y-131111450D01*
X120443450Y-130943525D01*
X120575389Y-130746066D01*
X120666269Y-130526660D01*
X120712600Y-130293741D01*
X120712600Y-130056259D01*
X120841400Y-130056259D01*
X120841400Y-130293741D01*
X120887731Y-130526660D01*
X120978611Y-130746066D01*
X121110550Y-130943525D01*
X121278475Y-131111450D01*
X121475934Y-131243389D01*
X121695340Y-131334269D01*
X121928259Y-131380600D01*
X122165741Y-131380600D01*
X122398660Y-131334269D01*
X122618066Y-131243389D01*
X122815525Y-131111450D01*
X122983450Y-130943525D01*
X123115389Y-130746066D01*
X123206269Y-130526660D01*
X123252600Y-130293741D01*
X123252600Y-130056259D01*
X123206269Y-129823340D01*
X123115389Y-129603934D01*
X122983450Y-129406475D01*
X122815525Y-129238550D01*
X122618066Y-129106611D01*
X122398660Y-129015731D01*
X122165741Y-128969400D01*
X121928259Y-128969400D01*
X121695340Y-129015731D01*
X121475934Y-129106611D01*
X121278475Y-129238550D01*
X121110550Y-129406475D01*
X120978611Y-129603934D01*
X120887731Y-129823340D01*
X120841400Y-130056259D01*
X120712600Y-130056259D01*
X120666269Y-129823340D01*
X120575389Y-129603934D01*
X120443450Y-129406475D01*
X120275525Y-129238550D01*
X120078066Y-129106611D01*
X119858660Y-129015731D01*
X119625741Y-128969400D01*
X119388259Y-128969400D01*
X119155340Y-129015731D01*
X118935934Y-129106611D01*
X118738475Y-129238550D01*
X118570550Y-129406475D01*
X118438611Y-129603934D01*
X118347731Y-129823340D01*
X118301400Y-130056259D01*
X117179600Y-130056259D01*
X117179600Y-127624080D01*
X117862400Y-127624080D01*
X117862400Y-127772920D01*
X117891437Y-127918900D01*
X117948396Y-128056411D01*
X118031087Y-128180167D01*
X118136333Y-128285413D01*
X118260089Y-128368104D01*
X118397600Y-128425063D01*
X118543580Y-128454100D01*
X118692420Y-128454100D01*
X118838400Y-128425063D01*
X118975911Y-128368104D01*
X119099667Y-128285413D01*
X119203980Y-128181100D01*
X122096020Y-128181100D01*
X122200333Y-128285413D01*
X122324089Y-128368104D01*
X122461600Y-128425063D01*
X122607580Y-128454100D01*
X122756420Y-128454100D01*
X122902400Y-128425063D01*
X123039911Y-128368104D01*
X123163667Y-128285413D01*
X123268913Y-128180167D01*
X123351604Y-128056411D01*
X123408563Y-127918900D01*
X123437600Y-127772920D01*
X123437600Y-127624080D01*
X123408563Y-127478100D01*
X123351604Y-127340589D01*
X123268913Y-127216833D01*
X123163667Y-127111587D01*
X123039911Y-127028896D01*
X122902400Y-126971937D01*
X122756420Y-126942900D01*
X122607580Y-126942900D01*
X122461600Y-126971937D01*
X122324089Y-127028896D01*
X122200333Y-127111587D01*
X122096020Y-127215900D01*
X119203980Y-127215900D01*
X119099667Y-127111587D01*
X118975911Y-127028896D01*
X118838400Y-126971937D01*
X118692420Y-126942900D01*
X118543580Y-126942900D01*
X118397600Y-126971937D01*
X118260089Y-127028896D01*
X118136333Y-127111587D01*
X118031087Y-127216833D01*
X117948396Y-127340589D01*
X117891437Y-127478100D01*
X117862400Y-127624080D01*
X117179600Y-127624080D01*
X117179600Y-121124980D01*
X117283913Y-121020667D01*
X117366604Y-120896911D01*
X117423563Y-120759400D01*
X117452600Y-120613420D01*
X117452600Y-120464580D01*
X117423563Y-120318600D01*
X117366604Y-120181089D01*
X117283913Y-120057333D01*
X117178667Y-119952087D01*
X117054911Y-119869396D01*
X116917400Y-119812437D01*
X116771420Y-119783400D01*
X116623899Y-119783400D01*
X116505617Y-119665118D01*
X116490501Y-119646699D01*
X116417015Y-119586391D01*
X116366856Y-119559580D01*
X119640400Y-119559580D01*
X119640400Y-119708420D01*
X119669437Y-119854400D01*
X119726396Y-119991911D01*
X119809087Y-120115667D01*
X119914333Y-120220913D01*
X120038089Y-120303604D01*
X120175600Y-120360563D01*
X120321580Y-120389600D01*
X120470420Y-120389600D01*
X120616400Y-120360563D01*
X120753911Y-120303604D01*
X120877667Y-120220913D01*
X120982913Y-120115667D01*
X121065604Y-119991911D01*
X121122563Y-119854400D01*
X121151600Y-119708420D01*
X121151600Y-119686580D01*
X121926400Y-119686580D01*
X121926400Y-119835420D01*
X121955437Y-119981400D01*
X122012396Y-120118911D01*
X122095087Y-120242667D01*
X122200333Y-120347913D01*
X122324089Y-120430604D01*
X122461600Y-120487563D01*
X122607580Y-120516600D01*
X122756420Y-120516600D01*
X122902400Y-120487563D01*
X123039911Y-120430604D01*
X123163667Y-120347913D01*
X123268913Y-120242667D01*
X123351604Y-120118911D01*
X123408563Y-119981400D01*
X123437600Y-119835420D01*
X123437600Y-119686580D01*
X123408563Y-119540600D01*
X123351604Y-119403089D01*
X123268913Y-119279333D01*
X123163667Y-119174087D01*
X123039911Y-119091396D01*
X122902400Y-119034437D01*
X122756420Y-119005400D01*
X122607580Y-119005400D01*
X122461600Y-119034437D01*
X122324089Y-119091396D01*
X122200333Y-119174087D01*
X122095087Y-119279333D01*
X122012396Y-119403089D01*
X121955437Y-119540600D01*
X121926400Y-119686580D01*
X121151600Y-119686580D01*
X121151600Y-119559580D01*
X121122563Y-119413600D01*
X121065604Y-119276089D01*
X120982913Y-119152333D01*
X120877667Y-119047087D01*
X120753911Y-118964396D01*
X120616400Y-118907437D01*
X120470420Y-118878400D01*
X120321580Y-118878400D01*
X120175600Y-118907437D01*
X120038089Y-118964396D01*
X119914333Y-119047087D01*
X119809087Y-119152333D01*
X119726396Y-119276089D01*
X119669437Y-119413600D01*
X119640400Y-119559580D01*
X116366856Y-119559580D01*
X116333177Y-119541578D01*
X116242206Y-119513983D01*
X116171307Y-119507000D01*
X116171305Y-119507000D01*
X116147600Y-119504665D01*
X116123895Y-119507000D01*
X111533198Y-119507000D01*
X111454267Y-119428069D01*
X111330511Y-119345378D01*
X111193000Y-119288419D01*
X111047020Y-119259382D01*
X110898180Y-119259382D01*
X110752200Y-119288419D01*
X110614689Y-119345378D01*
X110490933Y-119428069D01*
X110385687Y-119533315D01*
X110302996Y-119657071D01*
X110246037Y-119794582D01*
X110217000Y-119940562D01*
X110217000Y-120089402D01*
X110246037Y-120235382D01*
X110302996Y-120372893D01*
X110385687Y-120496649D01*
X110490933Y-120601895D01*
X110614689Y-120684586D01*
X110752200Y-120741545D01*
X110898180Y-120770582D01*
X111047020Y-120770582D01*
X111193000Y-120741545D01*
X111330511Y-120684586D01*
X111454267Y-120601895D01*
X111559513Y-120496649D01*
X111575849Y-120472200D01*
X115941400Y-120472200D01*
X115941400Y-120613420D01*
X115970437Y-120759400D01*
X116027396Y-120896911D01*
X116110087Y-121020667D01*
X116214400Y-121124980D01*
X116214401Y-132467599D01*
X103089201Y-145592800D01*
X90171780Y-145592800D01*
X90067467Y-145488487D01*
X89943711Y-145405796D01*
X89806200Y-145348837D01*
X89660220Y-145319800D01*
X89511380Y-145319800D01*
X89365400Y-145348837D01*
X89227889Y-145405796D01*
X89104133Y-145488487D01*
X88998887Y-145593733D01*
X88916196Y-145717489D01*
X88859237Y-145855000D01*
X88830200Y-146000980D01*
X83473600Y-146000980D01*
X83473600Y-112014000D01*
X83565675Y-112014000D01*
X83568000Y-112037604D01*
X83568001Y-144299168D01*
X83565675Y-144322782D01*
X83571073Y-144377583D01*
X83574955Y-144416996D01*
X83584202Y-144447480D01*
X83602436Y-144507590D01*
X83647063Y-144591080D01*
X83647064Y-144591081D01*
X83707121Y-144664262D01*
X83725460Y-144679313D01*
X83775859Y-144729712D01*
X83775609Y-144730971D01*
X83775609Y-144879811D01*
X83804646Y-145025791D01*
X83861605Y-145163302D01*
X83944296Y-145287058D01*
X84049542Y-145392304D01*
X84173298Y-145474995D01*
X84310809Y-145531954D01*
X84456789Y-145560991D01*
X84605629Y-145560991D01*
X84751609Y-145531954D01*
X84889120Y-145474995D01*
X85012876Y-145392304D01*
X85118122Y-145287058D01*
X85200813Y-145163302D01*
X85257772Y-145025791D01*
X85286809Y-144879811D01*
X85286809Y-144730971D01*
X85257772Y-144584991D01*
X85200813Y-144447480D01*
X85118122Y-144323724D01*
X85110802Y-144316404D01*
X85113620Y-144316404D01*
X85259600Y-144287367D01*
X85397111Y-144230408D01*
X85520867Y-144147717D01*
X85626113Y-144042471D01*
X85708804Y-143918715D01*
X85765763Y-143781204D01*
X85794800Y-143635224D01*
X85794800Y-143486384D01*
X85765763Y-143340404D01*
X85708804Y-143202893D01*
X85626113Y-143079137D01*
X85520867Y-142973891D01*
X85397111Y-142891200D01*
X85259600Y-142834241D01*
X85113620Y-142805204D01*
X84979211Y-142805204D01*
X84979211Y-142190980D01*
X88449200Y-142190980D01*
X88449200Y-142339820D01*
X88478237Y-142485800D01*
X88535196Y-142623311D01*
X88617887Y-142747067D01*
X88723133Y-142852313D01*
X88846889Y-142935004D01*
X88984400Y-142991963D01*
X89130380Y-143021000D01*
X89279220Y-143021000D01*
X89425200Y-142991963D01*
X89562711Y-142935004D01*
X89686467Y-142852313D01*
X89790780Y-142748000D01*
X90249501Y-142748000D01*
X92351983Y-144850482D01*
X92367099Y-144868901D01*
X92440585Y-144929209D01*
X92524423Y-144974022D01*
X92615394Y-145001617D01*
X92686293Y-145008600D01*
X92686294Y-145008600D01*
X92709999Y-145010935D01*
X92733704Y-145008600D01*
X103036795Y-145008600D01*
X103060500Y-145010935D01*
X103084205Y-145008600D01*
X103084207Y-145008600D01*
X103155106Y-145001617D01*
X103246077Y-144974022D01*
X103329915Y-144929209D01*
X103403401Y-144868901D01*
X103418517Y-144850482D01*
X115576988Y-132692012D01*
X115595401Y-132676901D01*
X115655709Y-132603415D01*
X115700522Y-132519577D01*
X115708460Y-132493409D01*
X115728117Y-132428607D01*
X115737435Y-132334000D01*
X115735100Y-132310293D01*
X115735100Y-122251980D01*
X115839413Y-122147667D01*
X115922104Y-122023911D01*
X115979063Y-121886400D01*
X116008100Y-121740420D01*
X116008100Y-121591580D01*
X115979063Y-121445600D01*
X115922104Y-121308089D01*
X115839413Y-121184333D01*
X115734167Y-121079087D01*
X115610411Y-120996396D01*
X115472900Y-120939437D01*
X115326920Y-120910400D01*
X115181326Y-120910400D01*
X115115515Y-120856391D01*
X115031677Y-120811578D01*
X114940706Y-120783983D01*
X114869807Y-120777000D01*
X114869805Y-120777000D01*
X114846100Y-120774665D01*
X114822395Y-120777000D01*
X112828580Y-120777000D01*
X112724267Y-120672687D01*
X112600511Y-120589996D01*
X112463000Y-120533037D01*
X112317020Y-120504000D01*
X112168180Y-120504000D01*
X112022200Y-120533037D01*
X111884689Y-120589996D01*
X111760933Y-120672687D01*
X111655687Y-120777933D01*
X111572996Y-120901689D01*
X111516037Y-121039200D01*
X111487000Y-121185180D01*
X111487000Y-121334020D01*
X111516037Y-121480000D01*
X111572996Y-121617511D01*
X111655687Y-121741267D01*
X111760933Y-121846513D01*
X111884689Y-121929204D01*
X112022200Y-121986163D01*
X112168180Y-122015200D01*
X112317020Y-122015200D01*
X112463000Y-121986163D01*
X112600511Y-121929204D01*
X112724267Y-121846513D01*
X112828580Y-121742200D01*
X114497254Y-121742200D01*
X114525937Y-121886400D01*
X114582896Y-122023911D01*
X114665587Y-122147667D01*
X114769900Y-122251980D01*
X114769901Y-132134099D01*
X102860601Y-144043400D01*
X92909899Y-144043400D01*
X90807417Y-141940918D01*
X90792301Y-141922499D01*
X90718815Y-141862191D01*
X90634977Y-141817378D01*
X90544006Y-141789783D01*
X90473107Y-141782800D01*
X90473105Y-141782800D01*
X90449400Y-141780465D01*
X90425695Y-141782800D01*
X89790780Y-141782800D01*
X89686467Y-141678487D01*
X89562711Y-141595796D01*
X89425200Y-141538837D01*
X89279220Y-141509800D01*
X89130380Y-141509800D01*
X88984400Y-141538837D01*
X88846889Y-141595796D01*
X88723133Y-141678487D01*
X88617887Y-141783733D01*
X88535196Y-141907489D01*
X88478237Y-142045000D01*
X88449200Y-142190980D01*
X84979211Y-142190980D01*
X84979211Y-137085582D01*
X88271400Y-137085582D01*
X88271400Y-137234422D01*
X88300437Y-137380402D01*
X88357396Y-137517913D01*
X88440087Y-137641669D01*
X88545333Y-137746915D01*
X88669089Y-137829606D01*
X88683546Y-137835594D01*
X88672333Y-137843087D01*
X88567087Y-137948333D01*
X88484396Y-138072089D01*
X88427437Y-138209600D01*
X88398400Y-138355580D01*
X88398400Y-138504420D01*
X88427437Y-138650400D01*
X88484396Y-138787911D01*
X88567087Y-138911667D01*
X88672333Y-139016913D01*
X88796089Y-139099604D01*
X88933600Y-139156563D01*
X89079580Y-139185600D01*
X89228420Y-139185600D01*
X89374400Y-139156563D01*
X89511911Y-139099604D01*
X89635667Y-139016913D01*
X89739980Y-138912600D01*
X89892295Y-138912600D01*
X89916000Y-138914935D01*
X89939705Y-138912600D01*
X89939707Y-138912600D01*
X90010606Y-138905617D01*
X90101577Y-138878022D01*
X90185415Y-138833209D01*
X90258901Y-138772901D01*
X90274017Y-138754482D01*
X91817700Y-137210800D01*
X103405095Y-137210800D01*
X103428800Y-137213135D01*
X103452505Y-137210800D01*
X103452507Y-137210800D01*
X103523406Y-137203817D01*
X103614377Y-137176222D01*
X103698215Y-137131409D01*
X103771701Y-137071101D01*
X103786817Y-137052682D01*
X107336942Y-133502557D01*
X107350437Y-133570400D01*
X107407396Y-133707911D01*
X107490087Y-133831667D01*
X107595333Y-133936913D01*
X107719089Y-134019604D01*
X107856600Y-134076563D01*
X108002580Y-134105600D01*
X108151420Y-134105600D01*
X108165751Y-134102749D01*
X104930701Y-137337800D01*
X93089307Y-137337800D01*
X93065600Y-137335465D01*
X92970993Y-137344783D01*
X92880023Y-137372378D01*
X92796185Y-137417191D01*
X92722699Y-137477499D01*
X92707588Y-137495912D01*
X90785311Y-139418190D01*
X90766898Y-139433301D01*
X90751787Y-139451714D01*
X90751785Y-139451716D01*
X90706590Y-139506787D01*
X90661776Y-139590626D01*
X90634182Y-139681596D01*
X90624863Y-139776202D01*
X90627199Y-139799917D01*
X90627199Y-140257019D01*
X90522885Y-140361333D01*
X90440194Y-140485089D01*
X90383235Y-140622600D01*
X90354198Y-140768580D01*
X90354198Y-140917420D01*
X90383235Y-141063400D01*
X90440194Y-141200911D01*
X90522885Y-141324667D01*
X90628131Y-141429913D01*
X90751887Y-141512604D01*
X90889398Y-141569563D01*
X91035378Y-141598600D01*
X91184218Y-141598600D01*
X91330198Y-141569563D01*
X91467709Y-141512604D01*
X91591465Y-141429913D01*
X91696711Y-141324667D01*
X91779402Y-141200911D01*
X91836361Y-141063400D01*
X91865398Y-140917420D01*
X91865398Y-140768580D01*
X91836361Y-140622600D01*
X91779402Y-140485089D01*
X91696711Y-140361333D01*
X91592398Y-140257020D01*
X91592398Y-139976101D01*
X93265500Y-138303000D01*
X105106895Y-138303000D01*
X105130600Y-138305335D01*
X105154305Y-138303000D01*
X105154307Y-138303000D01*
X105225206Y-138296017D01*
X105316177Y-138268422D01*
X105400015Y-138223609D01*
X105473501Y-138163301D01*
X105488617Y-138144882D01*
X109496488Y-134137012D01*
X109514901Y-134121901D01*
X109575209Y-134048415D01*
X109620022Y-133964577D01*
X109647617Y-133873606D01*
X109654600Y-133802707D01*
X109654600Y-133802706D01*
X109656935Y-133779000D01*
X109654600Y-133755293D01*
X109654600Y-133402580D01*
X111004400Y-133402580D01*
X111004400Y-133551420D01*
X111033437Y-133697400D01*
X111090396Y-133834911D01*
X111173087Y-133958667D01*
X111278333Y-134063913D01*
X111402089Y-134146604D01*
X111539600Y-134203563D01*
X111685580Y-134232600D01*
X111834420Y-134232600D01*
X111980400Y-134203563D01*
X112117911Y-134146604D01*
X112241667Y-134063913D01*
X112346913Y-133958667D01*
X112429604Y-133834911D01*
X112486563Y-133697400D01*
X112515600Y-133551420D01*
X112515600Y-133402580D01*
X112486563Y-133256600D01*
X112429604Y-133119089D01*
X112346913Y-132995333D01*
X112241667Y-132890087D01*
X112117911Y-132807396D01*
X111980400Y-132750437D01*
X111834420Y-132721400D01*
X111685580Y-132721400D01*
X111539600Y-132750437D01*
X111402089Y-132807396D01*
X111278333Y-132890087D01*
X111173087Y-132995333D01*
X111090396Y-133119089D01*
X111033437Y-133256600D01*
X111004400Y-133402580D01*
X109654600Y-133402580D01*
X109654600Y-132146282D01*
X109733384Y-132104171D01*
X109886507Y-131978507D01*
X110012171Y-131825384D01*
X110105548Y-131650688D01*
X110147063Y-131513831D01*
X110205734Y-131691733D01*
X110307747Y-131872023D01*
X110442973Y-132028947D01*
X110606215Y-132156475D01*
X110791200Y-132249706D01*
X110981703Y-132303119D01*
X111146600Y-132218462D01*
X111146600Y-131064400D01*
X111126600Y-131064400D01*
X111126600Y-131013600D01*
X111146600Y-131013600D01*
X111146600Y-129859538D01*
X111197400Y-129859538D01*
X111197400Y-131013600D01*
X111217400Y-131013600D01*
X111217400Y-131064400D01*
X111197400Y-131064400D01*
X111197400Y-132218462D01*
X111362297Y-132303119D01*
X111552800Y-132249706D01*
X111737785Y-132156475D01*
X111901027Y-132028947D01*
X112036253Y-131872023D01*
X112138266Y-131691733D01*
X112196937Y-131513831D01*
X112238452Y-131650688D01*
X112331830Y-131825384D01*
X112457494Y-131978507D01*
X112610617Y-132104171D01*
X112785313Y-132197548D01*
X112974869Y-132255049D01*
X113172000Y-132274465D01*
X113369132Y-132255049D01*
X113558688Y-132197548D01*
X113733384Y-132104171D01*
X113886507Y-131978507D01*
X114012171Y-131825384D01*
X114105548Y-131650688D01*
X114163049Y-131461131D01*
X114177600Y-131313394D01*
X114177600Y-130764605D01*
X114163049Y-130616868D01*
X114105548Y-130427312D01*
X114012171Y-130252616D01*
X113886507Y-130099493D01*
X113733384Y-129973829D01*
X113688658Y-129949922D01*
X113743913Y-129894667D01*
X113826604Y-129770911D01*
X113883563Y-129633400D01*
X113912600Y-129487420D01*
X113912600Y-129338580D01*
X113883563Y-129192600D01*
X113826604Y-129055089D01*
X113743913Y-128931333D01*
X113638667Y-128826087D01*
X113514911Y-128743396D01*
X113377400Y-128686437D01*
X113231420Y-128657400D01*
X113082580Y-128657400D01*
X112936600Y-128686437D01*
X112799089Y-128743396D01*
X112675333Y-128826087D01*
X112570087Y-128931333D01*
X112487396Y-129055089D01*
X112430437Y-129192600D01*
X112401400Y-129338580D01*
X112401400Y-129487420D01*
X112430437Y-129633400D01*
X112487396Y-129770911D01*
X112570087Y-129894667D01*
X112635792Y-129960372D01*
X112610616Y-129973829D01*
X112457493Y-130099493D01*
X112331829Y-130252616D01*
X112238452Y-130427313D01*
X112196937Y-130564169D01*
X112138266Y-130386267D01*
X112036253Y-130205977D01*
X111901027Y-130049053D01*
X111737785Y-129921525D01*
X111552800Y-129828294D01*
X111362297Y-129774881D01*
X111197400Y-129859538D01*
X111146600Y-129859538D01*
X110981703Y-129774881D01*
X110791200Y-129828294D01*
X110606215Y-129921525D01*
X110442973Y-130049053D01*
X110307747Y-130205977D01*
X110205734Y-130386267D01*
X110147063Y-130564169D01*
X110105548Y-130427312D01*
X110012171Y-130252616D01*
X109886507Y-130099493D01*
X109733384Y-129973829D01*
X109558687Y-129880452D01*
X109369131Y-129822951D01*
X109172000Y-129803535D01*
X108974868Y-129822951D01*
X108785312Y-129880452D01*
X108743246Y-129902937D01*
X108746604Y-129897911D01*
X108803563Y-129760400D01*
X108832600Y-129614420D01*
X108832600Y-129465580D01*
X108803563Y-129319600D01*
X108746604Y-129182089D01*
X108663913Y-129058333D01*
X108558667Y-128953087D01*
X108434911Y-128870396D01*
X108297400Y-128813437D01*
X108151420Y-128784400D01*
X108002580Y-128784400D01*
X107856600Y-128813437D01*
X107719089Y-128870396D01*
X107595333Y-128953087D01*
X107490087Y-129058333D01*
X107407396Y-129182089D01*
X107350437Y-129319600D01*
X107321400Y-129465580D01*
X107321400Y-129614420D01*
X107350437Y-129760400D01*
X107377383Y-129825454D01*
X107369131Y-129822951D01*
X107172000Y-129803535D01*
X106974868Y-129822951D01*
X106785312Y-129880452D01*
X106610616Y-129973829D01*
X106457493Y-130099493D01*
X106331829Y-130252616D01*
X106238452Y-130427313D01*
X106180951Y-130616869D01*
X106172000Y-130707748D01*
X106163049Y-130616868D01*
X106105548Y-130427312D01*
X106012171Y-130252616D01*
X105886507Y-130099493D01*
X105733384Y-129973829D01*
X105558687Y-129880452D01*
X105369131Y-129822951D01*
X105172000Y-129803535D01*
X104974868Y-129822951D01*
X104785312Y-129880452D01*
X104610616Y-129973829D01*
X104457493Y-130099493D01*
X104331829Y-130252616D01*
X104238452Y-130427313D01*
X104180951Y-130616869D01*
X104172000Y-130707748D01*
X104163049Y-130616868D01*
X104105548Y-130427312D01*
X104012171Y-130252616D01*
X103886507Y-130099493D01*
X103733384Y-129973829D01*
X103654600Y-129931718D01*
X103654600Y-129865707D01*
X103656935Y-129842000D01*
X103647617Y-129747393D01*
X103620022Y-129656423D01*
X103605311Y-129628901D01*
X103575209Y-129572585D01*
X103514901Y-129499099D01*
X103496487Y-129483987D01*
X102974017Y-128961518D01*
X102958901Y-128943099D01*
X102885415Y-128882791D01*
X102801577Y-128837978D01*
X102710606Y-128810383D01*
X102639707Y-128803400D01*
X102639705Y-128803400D01*
X102616000Y-128801065D01*
X102592295Y-128803400D01*
X93241707Y-128803400D01*
X93218000Y-128801065D01*
X93123393Y-128810383D01*
X93071623Y-128826087D01*
X93032423Y-128837978D01*
X92948585Y-128882791D01*
X92875099Y-128943099D01*
X92859988Y-128961512D01*
X89227101Y-132594400D01*
X89079580Y-132594400D01*
X88933600Y-132623437D01*
X88796089Y-132680396D01*
X88672333Y-132763087D01*
X88567087Y-132868333D01*
X88484396Y-132992089D01*
X88427437Y-133129600D01*
X88398400Y-133275580D01*
X88398400Y-133424420D01*
X88427437Y-133570400D01*
X88484396Y-133707911D01*
X88567087Y-133831667D01*
X88672333Y-133936913D01*
X88796089Y-134019604D01*
X88933600Y-134076563D01*
X89079580Y-134105600D01*
X89228420Y-134105600D01*
X89374400Y-134076563D01*
X89511911Y-134019604D01*
X89635667Y-133936913D01*
X89740913Y-133831667D01*
X89823604Y-133707911D01*
X89880563Y-133570400D01*
X89909600Y-133424420D01*
X89909600Y-133276899D01*
X93417900Y-129768600D01*
X102416101Y-129768600D01*
X102617598Y-129970097D01*
X102610616Y-129973829D01*
X102457493Y-130099493D01*
X102331829Y-130252616D01*
X102238452Y-130427313D01*
X102180951Y-130616869D01*
X102172000Y-130707748D01*
X102163049Y-130616868D01*
X102105548Y-130427312D01*
X102012171Y-130252616D01*
X101886507Y-130099493D01*
X101733384Y-129973829D01*
X101558687Y-129880452D01*
X101369131Y-129822951D01*
X101172000Y-129803535D01*
X100974868Y-129822951D01*
X100785312Y-129880452D01*
X100610616Y-129973829D01*
X100457493Y-130099493D01*
X100331829Y-130252616D01*
X100238452Y-130427313D01*
X100180951Y-130616869D01*
X100172000Y-130707748D01*
X100163049Y-130616868D01*
X100105548Y-130427312D01*
X100012171Y-130252616D01*
X99886507Y-130099493D01*
X99733384Y-129973829D01*
X99558687Y-129880452D01*
X99369131Y-129822951D01*
X99172000Y-129803535D01*
X98974868Y-129822951D01*
X98785312Y-129880452D01*
X98610616Y-129973829D01*
X98457493Y-130099493D01*
X98331829Y-130252616D01*
X98238452Y-130427313D01*
X98199294Y-130556400D01*
X95171706Y-130556400D01*
X95148001Y-130554065D01*
X95124296Y-130556400D01*
X95124295Y-130556400D01*
X95053396Y-130563383D01*
X94962425Y-130590978D01*
X94878587Y-130635791D01*
X94805101Y-130696099D01*
X94789990Y-130714512D01*
X89100101Y-136404402D01*
X88952580Y-136404402D01*
X88806600Y-136433439D01*
X88669089Y-136490398D01*
X88545333Y-136573089D01*
X88440087Y-136678335D01*
X88357396Y-136802091D01*
X88300437Y-136939602D01*
X88271400Y-137085582D01*
X84979211Y-137085582D01*
X84979211Y-124512580D01*
X87509400Y-124512580D01*
X87509400Y-124661420D01*
X87538437Y-124807400D01*
X87595396Y-124944911D01*
X87678087Y-125068667D01*
X87783333Y-125173913D01*
X87907089Y-125256604D01*
X88044600Y-125313563D01*
X88190580Y-125342600D01*
X88339420Y-125342600D01*
X88485400Y-125313563D01*
X88622911Y-125256604D01*
X88746667Y-125173913D01*
X88851913Y-125068667D01*
X88934604Y-124944911D01*
X88991563Y-124807400D01*
X89020600Y-124661420D01*
X89020600Y-124512580D01*
X88991563Y-124366600D01*
X88934604Y-124229089D01*
X88851913Y-124105333D01*
X88746667Y-124000087D01*
X88622911Y-123917396D01*
X88485400Y-123860437D01*
X88339420Y-123831400D01*
X88190580Y-123831400D01*
X88044600Y-123860437D01*
X87907089Y-123917396D01*
X87783333Y-124000087D01*
X87678087Y-124105333D01*
X87595396Y-124229089D01*
X87538437Y-124366600D01*
X87509400Y-124512580D01*
X84979211Y-124512580D01*
X84979211Y-123989242D01*
X85153934Y-124105989D01*
X85373340Y-124196869D01*
X85606259Y-124243200D01*
X85843741Y-124243200D01*
X86076660Y-124196869D01*
X86296066Y-124105989D01*
X86493525Y-123974050D01*
X86661450Y-123806125D01*
X86793389Y-123608666D01*
X86830032Y-123520200D01*
X89663695Y-123520200D01*
X89687400Y-123522535D01*
X89711105Y-123520200D01*
X89711107Y-123520200D01*
X89782006Y-123513217D01*
X89836852Y-123496580D01*
X91065400Y-123496580D01*
X91065400Y-123645420D01*
X91094437Y-123791400D01*
X91151396Y-123928911D01*
X91234087Y-124052667D01*
X91339333Y-124157913D01*
X91463089Y-124240604D01*
X91600600Y-124297563D01*
X91746580Y-124326600D01*
X91895420Y-124326600D01*
X92041400Y-124297563D01*
X92178911Y-124240604D01*
X92302667Y-124157913D01*
X92407913Y-124052667D01*
X92490604Y-123928911D01*
X92547563Y-123791400D01*
X92576600Y-123645420D01*
X92576600Y-123496580D01*
X93478400Y-123496580D01*
X93478400Y-123645420D01*
X93507437Y-123791400D01*
X93564396Y-123928911D01*
X93647087Y-124052667D01*
X93752333Y-124157913D01*
X93876089Y-124240604D01*
X94013600Y-124297563D01*
X94159580Y-124326600D01*
X94308420Y-124326600D01*
X94454400Y-124297563D01*
X94591911Y-124240604D01*
X94715667Y-124157913D01*
X94820913Y-124052667D01*
X94903604Y-123928911D01*
X94960563Y-123791400D01*
X94989600Y-123645420D01*
X94989600Y-123496580D01*
X94960563Y-123350600D01*
X94903604Y-123213089D01*
X94820913Y-123089333D01*
X94715667Y-122984087D01*
X94591911Y-122901396D01*
X94454400Y-122844437D01*
X94308420Y-122815400D01*
X94159580Y-122815400D01*
X94013600Y-122844437D01*
X93876089Y-122901396D01*
X93752333Y-122984087D01*
X93647087Y-123089333D01*
X93564396Y-123213089D01*
X93507437Y-123350600D01*
X93478400Y-123496580D01*
X92576600Y-123496580D01*
X92547563Y-123350600D01*
X92490604Y-123213089D01*
X92407913Y-123089333D01*
X92302667Y-122984087D01*
X92178911Y-122901396D01*
X92041400Y-122844437D01*
X91895420Y-122815400D01*
X91746580Y-122815400D01*
X91600600Y-122844437D01*
X91463089Y-122901396D01*
X91339333Y-122984087D01*
X91234087Y-123089333D01*
X91151396Y-123213089D01*
X91094437Y-123350600D01*
X91065400Y-123496580D01*
X89836852Y-123496580D01*
X89872977Y-123485622D01*
X89956815Y-123440809D01*
X90030301Y-123380501D01*
X90045417Y-123362082D01*
X90350899Y-123056600D01*
X90498420Y-123056600D01*
X90644400Y-123027563D01*
X90781911Y-122970604D01*
X90905667Y-122887913D01*
X91010913Y-122782667D01*
X91093604Y-122658911D01*
X91150563Y-122521400D01*
X91179600Y-122375420D01*
X91179600Y-122232825D01*
X91330794Y-122262900D01*
X91498406Y-122262900D01*
X91662798Y-122230200D01*
X91817652Y-122166058D01*
X91957017Y-122072937D01*
X92075537Y-121954417D01*
X92168658Y-121815052D01*
X92232800Y-121660198D01*
X92265500Y-121495806D01*
X92265500Y-121328194D01*
X92232800Y-121163802D01*
X92168658Y-121008948D01*
X92075537Y-120869583D01*
X91957017Y-120751063D01*
X91817652Y-120657942D01*
X91662798Y-120593800D01*
X91498406Y-120561100D01*
X91330794Y-120561100D01*
X91166402Y-120593800D01*
X91011548Y-120657942D01*
X90872183Y-120751063D01*
X90753663Y-120869583D01*
X90660542Y-121008948D01*
X90596400Y-121163802D01*
X90563700Y-121328194D01*
X90563700Y-121495806D01*
X90576661Y-121560963D01*
X90498420Y-121545400D01*
X90349580Y-121545400D01*
X90218447Y-121571484D01*
X90233500Y-121495806D01*
X90233500Y-121328194D01*
X90200800Y-121163802D01*
X90136658Y-121008948D01*
X90043537Y-120869583D01*
X89925017Y-120751063D01*
X89785652Y-120657942D01*
X89630798Y-120593800D01*
X89466406Y-120561100D01*
X89298794Y-120561100D01*
X89134402Y-120593800D01*
X88979548Y-120657942D01*
X88840183Y-120751063D01*
X88721663Y-120869583D01*
X88628542Y-121008948D01*
X88564400Y-121163802D01*
X88531700Y-121328194D01*
X88531700Y-121495806D01*
X88564400Y-121660198D01*
X88628542Y-121815052D01*
X88721663Y-121954417D01*
X88840183Y-122072937D01*
X88979548Y-122166058D01*
X89134402Y-122230200D01*
X89298794Y-122262900D01*
X89466406Y-122262900D01*
X89630798Y-122230200D01*
X89670992Y-122213551D01*
X89668400Y-122226580D01*
X89668400Y-122374101D01*
X89487501Y-122555000D01*
X86830032Y-122555000D01*
X86793389Y-122466534D01*
X86661450Y-122269075D01*
X86493525Y-122101150D01*
X86296066Y-121969211D01*
X86076660Y-121878331D01*
X85843741Y-121832000D01*
X85606259Y-121832000D01*
X85373340Y-121878331D01*
X85153934Y-121969211D01*
X84979211Y-122085958D01*
X84979211Y-121501856D01*
X85047010Y-121555368D01*
X85266398Y-121667312D01*
X85503409Y-121734305D01*
X85699600Y-121652144D01*
X85699600Y-120523000D01*
X85750400Y-120523000D01*
X85750400Y-121652144D01*
X85946591Y-121734305D01*
X86183602Y-121667312D01*
X86402990Y-121555368D01*
X86596323Y-121402774D01*
X86756171Y-121215395D01*
X86876392Y-121000431D01*
X86952366Y-120766144D01*
X86961704Y-120719191D01*
X86879521Y-120523000D01*
X85750400Y-120523000D01*
X85699600Y-120523000D01*
X85679600Y-120523000D01*
X85679600Y-120472200D01*
X85699600Y-120472200D01*
X85699600Y-119343056D01*
X85750400Y-119343056D01*
X85750400Y-120472200D01*
X86879521Y-120472200D01*
X86961704Y-120276009D01*
X86952366Y-120229056D01*
X86876392Y-119994769D01*
X86775061Y-119813580D01*
X88017400Y-119813580D01*
X88017400Y-119962420D01*
X88046437Y-120108400D01*
X88103396Y-120245911D01*
X88186087Y-120369667D01*
X88291333Y-120474913D01*
X88415089Y-120557604D01*
X88552600Y-120614563D01*
X88698580Y-120643600D01*
X88847420Y-120643600D01*
X88993400Y-120614563D01*
X89130911Y-120557604D01*
X89254667Y-120474913D01*
X89359913Y-120369667D01*
X89442604Y-120245911D01*
X89499563Y-120108400D01*
X89528600Y-119962420D01*
X89528600Y-119813580D01*
X89499563Y-119667600D01*
X89442604Y-119530089D01*
X89359913Y-119406333D01*
X89254667Y-119301087D01*
X89130911Y-119218396D01*
X88993400Y-119161437D01*
X88847420Y-119132400D01*
X88698580Y-119132400D01*
X88552600Y-119161437D01*
X88415089Y-119218396D01*
X88291333Y-119301087D01*
X88186087Y-119406333D01*
X88103396Y-119530089D01*
X88046437Y-119667600D01*
X88017400Y-119813580D01*
X86775061Y-119813580D01*
X86756171Y-119779805D01*
X86596323Y-119592426D01*
X86402990Y-119439832D01*
X86183602Y-119327888D01*
X85946591Y-119260895D01*
X85750400Y-119343056D01*
X85699600Y-119343056D01*
X85503409Y-119260895D01*
X85266398Y-119327888D01*
X85047010Y-119439832D01*
X84979211Y-119493344D01*
X84979211Y-118909242D01*
X85153934Y-119025989D01*
X85373340Y-119116869D01*
X85606259Y-119163200D01*
X85843741Y-119163200D01*
X86076660Y-119116869D01*
X86296066Y-119025989D01*
X86493525Y-118894050D01*
X86661450Y-118726125D01*
X86793389Y-118528666D01*
X86884269Y-118309260D01*
X86930600Y-118076341D01*
X86930600Y-117838859D01*
X86884269Y-117605940D01*
X86851812Y-117527580D01*
X91700400Y-117527580D01*
X91700400Y-117676420D01*
X91729437Y-117822400D01*
X91786396Y-117959911D01*
X91869087Y-118083667D01*
X91974333Y-118188913D01*
X92098089Y-118271604D01*
X92235600Y-118328563D01*
X92381580Y-118357600D01*
X92529101Y-118357600D01*
X97990894Y-123819394D01*
X97990895Y-127224519D01*
X97886581Y-127328833D01*
X97803890Y-127452589D01*
X97746931Y-127590100D01*
X97717894Y-127736080D01*
X97717894Y-127884920D01*
X97746931Y-128030900D01*
X97803890Y-128168411D01*
X97886581Y-128292167D01*
X97991827Y-128397413D01*
X98115583Y-128480104D01*
X98253094Y-128537063D01*
X98399074Y-128566100D01*
X98547914Y-128566100D01*
X98693894Y-128537063D01*
X98831405Y-128480104D01*
X98955161Y-128397413D01*
X99060407Y-128292167D01*
X99143098Y-128168411D01*
X99200057Y-128030900D01*
X99229094Y-127884920D01*
X99229094Y-127736080D01*
X99200057Y-127590100D01*
X99143098Y-127452589D01*
X99060407Y-127328833D01*
X98956094Y-127224520D01*
X98956094Y-125782580D01*
X112401400Y-125782580D01*
X112401400Y-125931420D01*
X112430437Y-126077400D01*
X112487396Y-126214911D01*
X112570087Y-126338667D01*
X112675333Y-126443913D01*
X112799089Y-126526604D01*
X112936600Y-126583563D01*
X113082580Y-126612600D01*
X113231420Y-126612600D01*
X113377400Y-126583563D01*
X113514911Y-126526604D01*
X113638667Y-126443913D01*
X113743913Y-126338667D01*
X113826604Y-126214911D01*
X113883563Y-126077400D01*
X113912600Y-125931420D01*
X113912600Y-125782580D01*
X113883563Y-125636600D01*
X113826604Y-125499089D01*
X113743913Y-125375333D01*
X113638667Y-125270087D01*
X113514911Y-125187396D01*
X113377400Y-125130437D01*
X113231420Y-125101400D01*
X113082580Y-125101400D01*
X112936600Y-125130437D01*
X112799089Y-125187396D01*
X112675333Y-125270087D01*
X112570087Y-125375333D01*
X112487396Y-125499089D01*
X112430437Y-125636600D01*
X112401400Y-125782580D01*
X98956094Y-125782580D01*
X98956094Y-123643201D01*
X98958429Y-123619494D01*
X98949111Y-123524887D01*
X98921516Y-123433917D01*
X98892964Y-123380501D01*
X98876703Y-123350079D01*
X98816395Y-123276593D01*
X98797982Y-123261482D01*
X97382080Y-121845580D01*
X97923400Y-121845580D01*
X97923400Y-121994420D01*
X97952437Y-122140400D01*
X98009396Y-122277911D01*
X98092087Y-122401667D01*
X98197333Y-122506913D01*
X98321089Y-122589604D01*
X98458600Y-122646563D01*
X98604580Y-122675600D01*
X98753420Y-122675600D01*
X98899400Y-122646563D01*
X99036911Y-122589604D01*
X99160667Y-122506913D01*
X99265913Y-122401667D01*
X99348604Y-122277911D01*
X99405563Y-122140400D01*
X99434600Y-121994420D01*
X99434600Y-121845580D01*
X99409339Y-121718580D01*
X103892400Y-121718580D01*
X103892400Y-121867420D01*
X103921437Y-122013400D01*
X103978396Y-122150911D01*
X104061087Y-122274667D01*
X104166333Y-122379913D01*
X104290089Y-122462604D01*
X104427600Y-122519563D01*
X104573580Y-122548600D01*
X104722420Y-122548600D01*
X104868400Y-122519563D01*
X105005911Y-122462604D01*
X105129667Y-122379913D01*
X105234913Y-122274667D01*
X105317604Y-122150911D01*
X105374563Y-122013400D01*
X105403600Y-121867420D01*
X105403600Y-121718580D01*
X105374563Y-121572600D01*
X105317604Y-121435089D01*
X105234913Y-121311333D01*
X105129667Y-121206087D01*
X105005911Y-121123396D01*
X104868400Y-121066437D01*
X104722420Y-121037400D01*
X104573580Y-121037400D01*
X104427600Y-121066437D01*
X104290089Y-121123396D01*
X104166333Y-121206087D01*
X104061087Y-121311333D01*
X103978396Y-121435089D01*
X103921437Y-121572600D01*
X103892400Y-121718580D01*
X99409339Y-121718580D01*
X99405563Y-121699600D01*
X99348604Y-121562089D01*
X99265913Y-121438333D01*
X99160667Y-121333087D01*
X99036911Y-121250396D01*
X98899400Y-121193437D01*
X98753420Y-121164400D01*
X98604580Y-121164400D01*
X98458600Y-121193437D01*
X98321089Y-121250396D01*
X98197333Y-121333087D01*
X98092087Y-121438333D01*
X98009396Y-121562089D01*
X97952437Y-121699600D01*
X97923400Y-121845580D01*
X97382080Y-121845580D01*
X93211600Y-117675101D01*
X93211600Y-117527580D01*
X93182563Y-117381600D01*
X93125604Y-117244089D01*
X93042913Y-117120333D01*
X92937667Y-117015087D01*
X92813911Y-116932396D01*
X92676400Y-116875437D01*
X92530420Y-116846400D01*
X92381580Y-116846400D01*
X92235600Y-116875437D01*
X92098089Y-116932396D01*
X91974333Y-117015087D01*
X91869087Y-117120333D01*
X91786396Y-117244089D01*
X91729437Y-117381600D01*
X91700400Y-117527580D01*
X86851812Y-117527580D01*
X86793389Y-117386534D01*
X86661450Y-117189075D01*
X86493525Y-117021150D01*
X86296066Y-116889211D01*
X86076660Y-116798331D01*
X85843741Y-116752000D01*
X85606259Y-116752000D01*
X85373340Y-116798331D01*
X85153934Y-116889211D01*
X84979211Y-117005958D01*
X84979211Y-116369242D01*
X85153934Y-116485989D01*
X85373340Y-116576869D01*
X85606259Y-116623200D01*
X85843741Y-116623200D01*
X86076660Y-116576869D01*
X86296066Y-116485989D01*
X86493525Y-116354050D01*
X86599381Y-116248194D01*
X89547700Y-116248194D01*
X89547700Y-116415806D01*
X89580400Y-116580198D01*
X89644542Y-116735052D01*
X89737663Y-116874417D01*
X89856183Y-116992937D01*
X89995548Y-117086058D01*
X90150402Y-117150200D01*
X90314794Y-117182900D01*
X90482406Y-117182900D01*
X90646798Y-117150200D01*
X90801652Y-117086058D01*
X90941017Y-116992937D01*
X91059537Y-116874417D01*
X91152658Y-116735052D01*
X91192617Y-116638580D01*
X119513400Y-116638580D01*
X119513400Y-116787420D01*
X119542437Y-116933400D01*
X119599396Y-117070911D01*
X119682087Y-117194667D01*
X119787333Y-117299913D01*
X119911089Y-117382604D01*
X120048600Y-117439563D01*
X120194580Y-117468600D01*
X120343420Y-117468600D01*
X120489400Y-117439563D01*
X120626911Y-117382604D01*
X120750667Y-117299913D01*
X120855913Y-117194667D01*
X120938604Y-117070911D01*
X120995563Y-116933400D01*
X121024600Y-116787420D01*
X121024600Y-116638580D01*
X120995563Y-116492600D01*
X120938604Y-116355089D01*
X120855913Y-116231333D01*
X120750667Y-116126087D01*
X120626911Y-116043396D01*
X120489400Y-115986437D01*
X120343420Y-115957400D01*
X120194580Y-115957400D01*
X120048600Y-115986437D01*
X119911089Y-116043396D01*
X119787333Y-116126087D01*
X119682087Y-116231333D01*
X119599396Y-116355089D01*
X119542437Y-116492600D01*
X119513400Y-116638580D01*
X91192617Y-116638580D01*
X91216800Y-116580198D01*
X91249500Y-116415806D01*
X91249500Y-116248194D01*
X91216800Y-116083802D01*
X91152658Y-115928948D01*
X91059537Y-115789583D01*
X90941017Y-115671063D01*
X90801652Y-115577942D01*
X90646798Y-115513800D01*
X90482406Y-115481100D01*
X90314794Y-115481100D01*
X90150402Y-115513800D01*
X89995548Y-115577942D01*
X89856183Y-115671063D01*
X89737663Y-115789583D01*
X89644542Y-115928948D01*
X89580400Y-116083802D01*
X89547700Y-116248194D01*
X86599381Y-116248194D01*
X86661450Y-116186125D01*
X86793389Y-115988666D01*
X86884269Y-115769260D01*
X86930600Y-115536341D01*
X86930600Y-115298859D01*
X86884269Y-115065940D01*
X86793389Y-114846534D01*
X86661450Y-114649075D01*
X86493525Y-114481150D01*
X86296066Y-114349211D01*
X86076660Y-114258331D01*
X85843741Y-114212000D01*
X85606259Y-114212000D01*
X85373340Y-114258331D01*
X85153934Y-114349211D01*
X84979211Y-114465958D01*
X84979211Y-114303059D01*
X85282873Y-113999397D01*
X85373340Y-114036869D01*
X85606259Y-114083200D01*
X85843741Y-114083200D01*
X86076660Y-114036869D01*
X86296066Y-113945989D01*
X86493525Y-113814050D01*
X86661450Y-113646125D01*
X86793389Y-113448666D01*
X86836166Y-113345390D01*
X92532400Y-113345390D01*
X92532400Y-113730610D01*
X92607553Y-114108427D01*
X92754970Y-114464324D01*
X92968987Y-114784622D01*
X93241378Y-115057013D01*
X93561676Y-115271030D01*
X93917573Y-115418447D01*
X94295390Y-115493600D01*
X94680610Y-115493600D01*
X95058427Y-115418447D01*
X95414324Y-115271030D01*
X95458398Y-115241580D01*
X122180400Y-115241580D01*
X122180400Y-115390420D01*
X122209437Y-115536400D01*
X122266396Y-115673911D01*
X122349087Y-115797667D01*
X122454333Y-115902913D01*
X122578089Y-115985604D01*
X122715600Y-116042563D01*
X122861580Y-116071600D01*
X123010420Y-116071600D01*
X123156400Y-116042563D01*
X123293911Y-115985604D01*
X123417667Y-115902913D01*
X123522913Y-115797667D01*
X123605604Y-115673911D01*
X123662563Y-115536400D01*
X123691600Y-115390420D01*
X123691600Y-115241580D01*
X123662563Y-115095600D01*
X123605604Y-114958089D01*
X123522913Y-114834333D01*
X123417667Y-114729087D01*
X123293911Y-114646396D01*
X123156400Y-114589437D01*
X123010420Y-114560400D01*
X122861580Y-114560400D01*
X122715600Y-114589437D01*
X122578089Y-114646396D01*
X122454333Y-114729087D01*
X122349087Y-114834333D01*
X122266396Y-114958089D01*
X122209437Y-115095600D01*
X122180400Y-115241580D01*
X95458398Y-115241580D01*
X95734622Y-115057013D01*
X96007013Y-114784622D01*
X96221030Y-114464324D01*
X96368447Y-114108427D01*
X96443600Y-113730610D01*
X96443600Y-113345390D01*
X96368447Y-112967573D01*
X96221030Y-112611676D01*
X96007013Y-112291378D01*
X95734622Y-112018987D01*
X95414324Y-111804970D01*
X95058427Y-111657553D01*
X94680610Y-111582400D01*
X94295390Y-111582400D01*
X93917573Y-111657553D01*
X93561676Y-111804970D01*
X93241378Y-112018987D01*
X92968987Y-112291378D01*
X92754970Y-112611676D01*
X92607553Y-112967573D01*
X92532400Y-113345390D01*
X86836166Y-113345390D01*
X86884269Y-113229260D01*
X86930600Y-112996341D01*
X86930600Y-112758859D01*
X86884269Y-112525940D01*
X86793389Y-112306534D01*
X86661450Y-112109075D01*
X86493525Y-111941150D01*
X86296066Y-111809211D01*
X86076660Y-111718331D01*
X85843741Y-111672000D01*
X85606259Y-111672000D01*
X85373340Y-111718331D01*
X85153934Y-111809211D01*
X84956475Y-111941150D01*
X84788550Y-112109075D01*
X84656611Y-112306534D01*
X84565731Y-112525940D01*
X84529200Y-112709592D01*
X84529200Y-112213070D01*
X85282874Y-111459397D01*
X85373340Y-111496869D01*
X85606259Y-111543200D01*
X85843741Y-111543200D01*
X86076660Y-111496869D01*
X86296066Y-111405989D01*
X86493525Y-111274050D01*
X86661450Y-111106125D01*
X86793389Y-110908666D01*
X86884269Y-110689260D01*
X86930600Y-110456341D01*
X86930600Y-110218859D01*
X86884269Y-109985940D01*
X86793389Y-109766534D01*
X86661450Y-109569075D01*
X86493525Y-109401150D01*
X86296066Y-109269211D01*
X86076660Y-109178331D01*
X85843741Y-109132000D01*
X85606259Y-109132000D01*
X85373340Y-109178331D01*
X85153934Y-109269211D01*
X84956475Y-109401150D01*
X84788550Y-109569075D01*
X84656611Y-109766534D01*
X84565731Y-109985940D01*
X84519400Y-110218859D01*
X84519400Y-110456341D01*
X84565731Y-110689260D01*
X84603203Y-110779726D01*
X83725465Y-111657465D01*
X83707120Y-111672520D01*
X83647063Y-111745701D01*
X83602435Y-111829194D01*
X83574954Y-111919787D01*
X83568000Y-111990393D01*
X83565675Y-112014000D01*
X83473600Y-112014000D01*
X83473600Y-107081331D01*
X83486712Y-106947600D01*
X84517680Y-106947600D01*
X84517680Y-108647600D01*
X84524546Y-108717310D01*
X84544879Y-108784340D01*
X84577899Y-108846116D01*
X84622337Y-108900263D01*
X84676484Y-108944701D01*
X84738260Y-108977721D01*
X84805290Y-108998054D01*
X84875000Y-109004920D01*
X86575000Y-109004920D01*
X86644710Y-108998054D01*
X86711740Y-108977721D01*
X86773516Y-108944701D01*
X86827663Y-108900263D01*
X86872101Y-108846116D01*
X86905121Y-108784340D01*
X86925454Y-108717310D01*
X86932320Y-108647600D01*
X86932320Y-106947600D01*
X86925454Y-106877890D01*
X86905121Y-106810860D01*
X86872101Y-106749084D01*
X86827663Y-106694937D01*
X86773516Y-106650499D01*
X86711740Y-106617479D01*
X86644710Y-106597146D01*
X86575000Y-106590280D01*
X84875000Y-106590280D01*
X84805290Y-106597146D01*
X84738260Y-106617479D01*
X84676484Y-106650499D01*
X84622337Y-106694937D01*
X84577899Y-106749084D01*
X84544879Y-106810860D01*
X84524546Y-106877890D01*
X84517680Y-106947600D01*
X83486712Y-106947600D01*
X83506340Y-106747424D01*
X83597405Y-106445799D01*
X83745327Y-106167599D01*
X83944462Y-105923435D01*
X84187235Y-105722597D01*
X84464392Y-105572738D01*
X84765383Y-105479566D01*
X85098066Y-105444600D01*
X99593400Y-105444600D01*
X99593400Y-113538000D01*
G37*
G04 #@! TD.AperFunction*
D24*
X106180951Y-131461132D02*
X106238452Y-131650688D01*
X106331830Y-131825384D01*
X106457494Y-131978507D01*
X106610617Y-132104171D01*
X106689400Y-132146282D01*
X106689400Y-132785101D01*
X103228901Y-136245600D01*
X91641507Y-136245600D01*
X91617800Y-136243265D01*
X91523193Y-136252583D01*
X91432223Y-136280178D01*
X91348385Y-136324991D01*
X91274899Y-136385299D01*
X91259788Y-136403712D01*
X89728040Y-137935460D01*
X89635667Y-137843087D01*
X89511911Y-137760396D01*
X89497454Y-137754408D01*
X89508667Y-137746915D01*
X89613913Y-137641669D01*
X89696604Y-137517913D01*
X89753563Y-137380402D01*
X89782600Y-137234422D01*
X89782600Y-137086901D01*
X95347902Y-131521600D01*
X98199294Y-131521600D01*
X98238452Y-131650688D01*
X98331830Y-131825384D01*
X98457494Y-131978507D01*
X98610617Y-132104171D01*
X98785313Y-132197548D01*
X98974869Y-132255049D01*
X99172000Y-132274465D01*
X99369132Y-132255049D01*
X99558688Y-132197548D01*
X99733384Y-132104171D01*
X99886507Y-131978507D01*
X100012171Y-131825384D01*
X100105548Y-131650688D01*
X100163049Y-131461131D01*
X100172000Y-131370252D01*
X100180951Y-131461132D01*
X100238452Y-131650688D01*
X100331830Y-131825384D01*
X100457494Y-131978507D01*
X100610617Y-132104171D01*
X100785313Y-132197548D01*
X100974869Y-132255049D01*
X101172000Y-132274465D01*
X101369132Y-132255049D01*
X101558688Y-132197548D01*
X101733384Y-132104171D01*
X101886507Y-131978507D01*
X102012171Y-131825384D01*
X102105548Y-131650688D01*
X102163049Y-131461131D01*
X102172000Y-131370252D01*
X102180951Y-131461132D01*
X102238452Y-131650688D01*
X102331830Y-131825384D01*
X102457494Y-131978507D01*
X102610617Y-132104171D01*
X102785313Y-132197548D01*
X102974869Y-132255049D01*
X103172000Y-132274465D01*
X103369132Y-132255049D01*
X103558688Y-132197548D01*
X103733384Y-132104171D01*
X103886507Y-131978507D01*
X104012171Y-131825384D01*
X104105548Y-131650688D01*
X104163049Y-131461131D01*
X104172000Y-131370252D01*
X104180951Y-131461132D01*
X104238452Y-131650688D01*
X104331830Y-131825384D01*
X104457494Y-131978507D01*
X104579152Y-132078349D01*
X101758101Y-134899400D01*
X94692978Y-134899400D01*
X94588665Y-134795087D01*
X94464909Y-134712396D01*
X94327398Y-134655437D01*
X94181418Y-134626400D01*
X94032578Y-134626400D01*
X93886598Y-134655437D01*
X93749087Y-134712396D01*
X93625331Y-134795087D01*
X93520085Y-134900333D01*
X93437394Y-135024089D01*
X93380435Y-135161600D01*
X93351398Y-135307580D01*
X93351398Y-135456420D01*
X93380435Y-135602400D01*
X93437394Y-135739911D01*
X93520085Y-135863667D01*
X93625331Y-135968913D01*
X93749087Y-136051604D01*
X93886598Y-136108563D01*
X94032578Y-136137600D01*
X94181418Y-136137600D01*
X94327398Y-136108563D01*
X94464909Y-136051604D01*
X94588665Y-135968913D01*
X94692978Y-135864600D01*
X101934295Y-135864600D01*
X101958000Y-135866935D01*
X101981705Y-135864600D01*
X101981707Y-135864600D01*
X102052606Y-135857617D01*
X102143577Y-135830022D01*
X102227415Y-135785209D01*
X102300901Y-135724901D01*
X102316017Y-135706482D01*
X105496482Y-132526017D01*
X105514901Y-132510901D01*
X105575209Y-132437415D01*
X105620022Y-132353577D01*
X105647617Y-132262606D01*
X105654600Y-132191707D01*
X105654600Y-132191698D01*
X105656934Y-132168001D01*
X105654785Y-132146183D01*
X105733384Y-132104171D01*
X105886507Y-131978507D01*
X106012171Y-131825384D01*
X106105548Y-131650688D01*
X106163049Y-131461131D01*
X106172000Y-131370252D01*
X106180951Y-131461132D01*
G04 #@! TA.AperFunction,Conductor*
D25*
G36*
X106180951Y-131461132D02*
G01*
X106238452Y-131650688D01*
X106331830Y-131825384D01*
X106457494Y-131978507D01*
X106610617Y-132104171D01*
X106689400Y-132146282D01*
X106689400Y-132785101D01*
X103228901Y-136245600D01*
X91641507Y-136245600D01*
X91617800Y-136243265D01*
X91523193Y-136252583D01*
X91432223Y-136280178D01*
X91348385Y-136324991D01*
X91274899Y-136385299D01*
X91259788Y-136403712D01*
X89728040Y-137935460D01*
X89635667Y-137843087D01*
X89511911Y-137760396D01*
X89497454Y-137754408D01*
X89508667Y-137746915D01*
X89613913Y-137641669D01*
X89696604Y-137517913D01*
X89753563Y-137380402D01*
X89782600Y-137234422D01*
X89782600Y-137086901D01*
X95347902Y-131521600D01*
X98199294Y-131521600D01*
X98238452Y-131650688D01*
X98331830Y-131825384D01*
X98457494Y-131978507D01*
X98610617Y-132104171D01*
X98785313Y-132197548D01*
X98974869Y-132255049D01*
X99172000Y-132274465D01*
X99369132Y-132255049D01*
X99558688Y-132197548D01*
X99733384Y-132104171D01*
X99886507Y-131978507D01*
X100012171Y-131825384D01*
X100105548Y-131650688D01*
X100163049Y-131461131D01*
X100172000Y-131370252D01*
X100180951Y-131461132D01*
X100238452Y-131650688D01*
X100331830Y-131825384D01*
X100457494Y-131978507D01*
X100610617Y-132104171D01*
X100785313Y-132197548D01*
X100974869Y-132255049D01*
X101172000Y-132274465D01*
X101369132Y-132255049D01*
X101558688Y-132197548D01*
X101733384Y-132104171D01*
X101886507Y-131978507D01*
X102012171Y-131825384D01*
X102105548Y-131650688D01*
X102163049Y-131461131D01*
X102172000Y-131370252D01*
X102180951Y-131461132D01*
X102238452Y-131650688D01*
X102331830Y-131825384D01*
X102457494Y-131978507D01*
X102610617Y-132104171D01*
X102785313Y-132197548D01*
X102974869Y-132255049D01*
X103172000Y-132274465D01*
X103369132Y-132255049D01*
X103558688Y-132197548D01*
X103733384Y-132104171D01*
X103886507Y-131978507D01*
X104012171Y-131825384D01*
X104105548Y-131650688D01*
X104163049Y-131461131D01*
X104172000Y-131370252D01*
X104180951Y-131461132D01*
X104238452Y-131650688D01*
X104331830Y-131825384D01*
X104457494Y-131978507D01*
X104579152Y-132078349D01*
X101758101Y-134899400D01*
X94692978Y-134899400D01*
X94588665Y-134795087D01*
X94464909Y-134712396D01*
X94327398Y-134655437D01*
X94181418Y-134626400D01*
X94032578Y-134626400D01*
X93886598Y-134655437D01*
X93749087Y-134712396D01*
X93625331Y-134795087D01*
X93520085Y-134900333D01*
X93437394Y-135024089D01*
X93380435Y-135161600D01*
X93351398Y-135307580D01*
X93351398Y-135456420D01*
X93380435Y-135602400D01*
X93437394Y-135739911D01*
X93520085Y-135863667D01*
X93625331Y-135968913D01*
X93749087Y-136051604D01*
X93886598Y-136108563D01*
X94032578Y-136137600D01*
X94181418Y-136137600D01*
X94327398Y-136108563D01*
X94464909Y-136051604D01*
X94588665Y-135968913D01*
X94692978Y-135864600D01*
X101934295Y-135864600D01*
X101958000Y-135866935D01*
X101981705Y-135864600D01*
X101981707Y-135864600D01*
X102052606Y-135857617D01*
X102143577Y-135830022D01*
X102227415Y-135785209D01*
X102300901Y-135724901D01*
X102316017Y-135706482D01*
X105496482Y-132526017D01*
X105514901Y-132510901D01*
X105575209Y-132437415D01*
X105620022Y-132353577D01*
X105647617Y-132262606D01*
X105654600Y-132191707D01*
X105654600Y-132191698D01*
X105656934Y-132168001D01*
X105654785Y-132146183D01*
X105733384Y-132104171D01*
X105886507Y-131978507D01*
X106012171Y-131825384D01*
X106105548Y-131650688D01*
X106163049Y-131461131D01*
X106172000Y-131370252D01*
X106180951Y-131461132D01*
G37*
G04 #@! TD.AperFunction*
M02*
