M48
; DRILL file {KiCad (5.1.5-0-10_14)} date 2020 March 02, Monday 13:53:34
; FORMAT={-:-/ absolute / metric / decimal}
; #@! TF.CreationDate,2020-03-02T13:53:34+01:00
; #@! TF.GenerationSoftware,Kicad,Pcbnew,(5.1.5-0-10_14)
FMAT,2
METRIC
T1C0.800
T2C1.000
T3C3.000
%
G90
G05
T1
X123.19Y-114.935
X123.19Y-117.475
X91.059Y-107.315
X91.059Y-109.855
X91.059Y-112.395
X91.059Y-114.935
X91.059Y-117.475
X91.059Y-120.015
X91.059Y-122.555
X91.059Y-125.095
X91.059Y-127.635
X91.059Y-130.175
X91.059Y-132.715
X91.059Y-135.255
X91.059Y-137.795
X91.059Y-140.335
X91.059Y-142.875
X113.919Y-107.315
X113.919Y-109.855
X113.919Y-112.395
X113.919Y-114.935
X113.919Y-117.475
X113.919Y-120.015
X113.919Y-122.555
X113.919Y-125.095
X113.919Y-127.635
X113.919Y-130.175
X113.919Y-132.715
X113.919Y-135.255
X113.919Y-137.795
X113.919Y-140.335
X113.919Y-142.875
X119.38Y-114.935
X119.38Y-117.475
T2
X118.491Y-145.669
X118.491Y-148.209
X118.491Y-150.749
X119.507Y-130.175
X119.507Y-132.715
X119.507Y-135.255
X119.507Y-137.795
X122.047Y-130.175
X122.047Y-132.715
X122.047Y-135.255
X122.047Y-137.795
T3
X120.65Y-108.331
X86.614Y-132.842
T0
M30
