G04 #@! TF.GenerationSoftware,KiCad,Pcbnew,(5.1.5-0-10_14)*
G04 #@! TF.CreationDate,2020-04-05T09:28:29+02:00*
G04 #@! TF.ProjectId,ithowifi,6974686f-7769-4666-992e-6b696361645f,rev?*
G04 #@! TF.SameCoordinates,Original*
G04 #@! TF.FileFunction,Paste,Top*
G04 #@! TF.FilePolarity,Positive*
%FSLAX46Y46*%
G04 Gerber Fmt 4.6, Leading zero omitted, Abs format (unit mm)*
G04 Created by KiCad (PCBNEW (5.1.5-0-10_14)) date 2020-04-05 09:28:29*
%MOMM*%
%LPD*%
G04 APERTURE LIST*
%ADD10C,0.100000*%
%ADD11R,0.800000X0.900000*%
G04 APERTURE END LIST*
D10*
G36*
X95770504Y-141239204D02*
G01*
X95794773Y-141242804D01*
X95818571Y-141248765D01*
X95841671Y-141257030D01*
X95863849Y-141267520D01*
X95884893Y-141280133D01*
X95904598Y-141294747D01*
X95922777Y-141311223D01*
X95939253Y-141329402D01*
X95953867Y-141349107D01*
X95966480Y-141370151D01*
X95976970Y-141392329D01*
X95985235Y-141415429D01*
X95991196Y-141439227D01*
X95994796Y-141463496D01*
X95996000Y-141488000D01*
X95996000Y-142738000D01*
X95994796Y-142762504D01*
X95991196Y-142786773D01*
X95985235Y-142810571D01*
X95976970Y-142833671D01*
X95966480Y-142855849D01*
X95953867Y-142876893D01*
X95939253Y-142896598D01*
X95922777Y-142914777D01*
X95904598Y-142931253D01*
X95884893Y-142945867D01*
X95863849Y-142958480D01*
X95841671Y-142968970D01*
X95818571Y-142977235D01*
X95794773Y-142983196D01*
X95770504Y-142986796D01*
X95746000Y-142988000D01*
X94996000Y-142988000D01*
X94971496Y-142986796D01*
X94947227Y-142983196D01*
X94923429Y-142977235D01*
X94900329Y-142968970D01*
X94878151Y-142958480D01*
X94857107Y-142945867D01*
X94837402Y-142931253D01*
X94819223Y-142914777D01*
X94802747Y-142896598D01*
X94788133Y-142876893D01*
X94775520Y-142855849D01*
X94765030Y-142833671D01*
X94756765Y-142810571D01*
X94750804Y-142786773D01*
X94747204Y-142762504D01*
X94746000Y-142738000D01*
X94746000Y-141488000D01*
X94747204Y-141463496D01*
X94750804Y-141439227D01*
X94756765Y-141415429D01*
X94765030Y-141392329D01*
X94775520Y-141370151D01*
X94788133Y-141349107D01*
X94802747Y-141329402D01*
X94819223Y-141311223D01*
X94837402Y-141294747D01*
X94857107Y-141280133D01*
X94878151Y-141267520D01*
X94900329Y-141257030D01*
X94923429Y-141248765D01*
X94947227Y-141242804D01*
X94971496Y-141239204D01*
X94996000Y-141238000D01*
X95746000Y-141238000D01*
X95770504Y-141239204D01*
G37*
G36*
X98570504Y-141239204D02*
G01*
X98594773Y-141242804D01*
X98618571Y-141248765D01*
X98641671Y-141257030D01*
X98663849Y-141267520D01*
X98684893Y-141280133D01*
X98704598Y-141294747D01*
X98722777Y-141311223D01*
X98739253Y-141329402D01*
X98753867Y-141349107D01*
X98766480Y-141370151D01*
X98776970Y-141392329D01*
X98785235Y-141415429D01*
X98791196Y-141439227D01*
X98794796Y-141463496D01*
X98796000Y-141488000D01*
X98796000Y-142738000D01*
X98794796Y-142762504D01*
X98791196Y-142786773D01*
X98785235Y-142810571D01*
X98776970Y-142833671D01*
X98766480Y-142855849D01*
X98753867Y-142876893D01*
X98739253Y-142896598D01*
X98722777Y-142914777D01*
X98704598Y-142931253D01*
X98684893Y-142945867D01*
X98663849Y-142958480D01*
X98641671Y-142968970D01*
X98618571Y-142977235D01*
X98594773Y-142983196D01*
X98570504Y-142986796D01*
X98546000Y-142988000D01*
X97796000Y-142988000D01*
X97771496Y-142986796D01*
X97747227Y-142983196D01*
X97723429Y-142977235D01*
X97700329Y-142968970D01*
X97678151Y-142958480D01*
X97657107Y-142945867D01*
X97637402Y-142931253D01*
X97619223Y-142914777D01*
X97602747Y-142896598D01*
X97588133Y-142876893D01*
X97575520Y-142855849D01*
X97565030Y-142833671D01*
X97556765Y-142810571D01*
X97550804Y-142786773D01*
X97547204Y-142762504D01*
X97546000Y-142738000D01*
X97546000Y-141488000D01*
X97547204Y-141463496D01*
X97550804Y-141439227D01*
X97556765Y-141415429D01*
X97565030Y-141392329D01*
X97575520Y-141370151D01*
X97588133Y-141349107D01*
X97602747Y-141329402D01*
X97619223Y-141311223D01*
X97637402Y-141294747D01*
X97657107Y-141280133D01*
X97678151Y-141267520D01*
X97700329Y-141257030D01*
X97723429Y-141248765D01*
X97747227Y-141242804D01*
X97771496Y-141239204D01*
X97796000Y-141238000D01*
X98546000Y-141238000D01*
X98570504Y-141239204D01*
G37*
G36*
X102120504Y-141239204D02*
G01*
X102144773Y-141242804D01*
X102168571Y-141248765D01*
X102191671Y-141257030D01*
X102213849Y-141267520D01*
X102234893Y-141280133D01*
X102254598Y-141294747D01*
X102272777Y-141311223D01*
X102289253Y-141329402D01*
X102303867Y-141349107D01*
X102316480Y-141370151D01*
X102326970Y-141392329D01*
X102335235Y-141415429D01*
X102341196Y-141439227D01*
X102344796Y-141463496D01*
X102346000Y-141488000D01*
X102346000Y-142738000D01*
X102344796Y-142762504D01*
X102341196Y-142786773D01*
X102335235Y-142810571D01*
X102326970Y-142833671D01*
X102316480Y-142855849D01*
X102303867Y-142876893D01*
X102289253Y-142896598D01*
X102272777Y-142914777D01*
X102254598Y-142931253D01*
X102234893Y-142945867D01*
X102213849Y-142958480D01*
X102191671Y-142968970D01*
X102168571Y-142977235D01*
X102144773Y-142983196D01*
X102120504Y-142986796D01*
X102096000Y-142988000D01*
X101346000Y-142988000D01*
X101321496Y-142986796D01*
X101297227Y-142983196D01*
X101273429Y-142977235D01*
X101250329Y-142968970D01*
X101228151Y-142958480D01*
X101207107Y-142945867D01*
X101187402Y-142931253D01*
X101169223Y-142914777D01*
X101152747Y-142896598D01*
X101138133Y-142876893D01*
X101125520Y-142855849D01*
X101115030Y-142833671D01*
X101106765Y-142810571D01*
X101100804Y-142786773D01*
X101097204Y-142762504D01*
X101096000Y-142738000D01*
X101096000Y-141488000D01*
X101097204Y-141463496D01*
X101100804Y-141439227D01*
X101106765Y-141415429D01*
X101115030Y-141392329D01*
X101125520Y-141370151D01*
X101138133Y-141349107D01*
X101152747Y-141329402D01*
X101169223Y-141311223D01*
X101187402Y-141294747D01*
X101207107Y-141280133D01*
X101228151Y-141267520D01*
X101250329Y-141257030D01*
X101273429Y-141248765D01*
X101297227Y-141242804D01*
X101321496Y-141239204D01*
X101346000Y-141238000D01*
X102096000Y-141238000D01*
X102120504Y-141239204D01*
G37*
G36*
X104920504Y-141239204D02*
G01*
X104944773Y-141242804D01*
X104968571Y-141248765D01*
X104991671Y-141257030D01*
X105013849Y-141267520D01*
X105034893Y-141280133D01*
X105054598Y-141294747D01*
X105072777Y-141311223D01*
X105089253Y-141329402D01*
X105103867Y-141349107D01*
X105116480Y-141370151D01*
X105126970Y-141392329D01*
X105135235Y-141415429D01*
X105141196Y-141439227D01*
X105144796Y-141463496D01*
X105146000Y-141488000D01*
X105146000Y-142738000D01*
X105144796Y-142762504D01*
X105141196Y-142786773D01*
X105135235Y-142810571D01*
X105126970Y-142833671D01*
X105116480Y-142855849D01*
X105103867Y-142876893D01*
X105089253Y-142896598D01*
X105072777Y-142914777D01*
X105054598Y-142931253D01*
X105034893Y-142945867D01*
X105013849Y-142958480D01*
X104991671Y-142968970D01*
X104968571Y-142977235D01*
X104944773Y-142983196D01*
X104920504Y-142986796D01*
X104896000Y-142988000D01*
X104146000Y-142988000D01*
X104121496Y-142986796D01*
X104097227Y-142983196D01*
X104073429Y-142977235D01*
X104050329Y-142968970D01*
X104028151Y-142958480D01*
X104007107Y-142945867D01*
X103987402Y-142931253D01*
X103969223Y-142914777D01*
X103952747Y-142896598D01*
X103938133Y-142876893D01*
X103925520Y-142855849D01*
X103915030Y-142833671D01*
X103906765Y-142810571D01*
X103900804Y-142786773D01*
X103897204Y-142762504D01*
X103896000Y-142738000D01*
X103896000Y-141488000D01*
X103897204Y-141463496D01*
X103900804Y-141439227D01*
X103906765Y-141415429D01*
X103915030Y-141392329D01*
X103925520Y-141370151D01*
X103938133Y-141349107D01*
X103952747Y-141329402D01*
X103969223Y-141311223D01*
X103987402Y-141294747D01*
X104007107Y-141280133D01*
X104028151Y-141267520D01*
X104050329Y-141257030D01*
X104073429Y-141248765D01*
X104097227Y-141242804D01*
X104121496Y-141239204D01*
X104146000Y-141238000D01*
X104896000Y-141238000D01*
X104920504Y-141239204D01*
G37*
G36*
X119521504Y-126252204D02*
G01*
X119545773Y-126255804D01*
X119569571Y-126261765D01*
X119592671Y-126270030D01*
X119614849Y-126280520D01*
X119635893Y-126293133D01*
X119655598Y-126307747D01*
X119673777Y-126324223D01*
X119690253Y-126342402D01*
X119704867Y-126362107D01*
X119717480Y-126383151D01*
X119727970Y-126405329D01*
X119736235Y-126428429D01*
X119742196Y-126452227D01*
X119745796Y-126476496D01*
X119747000Y-126501000D01*
X119747000Y-127251000D01*
X119745796Y-127275504D01*
X119742196Y-127299773D01*
X119736235Y-127323571D01*
X119727970Y-127346671D01*
X119717480Y-127368849D01*
X119704867Y-127389893D01*
X119690253Y-127409598D01*
X119673777Y-127427777D01*
X119655598Y-127444253D01*
X119635893Y-127458867D01*
X119614849Y-127471480D01*
X119592671Y-127481970D01*
X119569571Y-127490235D01*
X119545773Y-127496196D01*
X119521504Y-127499796D01*
X119497000Y-127501000D01*
X118247000Y-127501000D01*
X118222496Y-127499796D01*
X118198227Y-127496196D01*
X118174429Y-127490235D01*
X118151329Y-127481970D01*
X118129151Y-127471480D01*
X118108107Y-127458867D01*
X118088402Y-127444253D01*
X118070223Y-127427777D01*
X118053747Y-127409598D01*
X118039133Y-127389893D01*
X118026520Y-127368849D01*
X118016030Y-127346671D01*
X118007765Y-127323571D01*
X118001804Y-127299773D01*
X117998204Y-127275504D01*
X117997000Y-127251000D01*
X117997000Y-126501000D01*
X117998204Y-126476496D01*
X118001804Y-126452227D01*
X118007765Y-126428429D01*
X118016030Y-126405329D01*
X118026520Y-126383151D01*
X118039133Y-126362107D01*
X118053747Y-126342402D01*
X118070223Y-126324223D01*
X118088402Y-126307747D01*
X118108107Y-126293133D01*
X118129151Y-126280520D01*
X118151329Y-126270030D01*
X118174429Y-126261765D01*
X118198227Y-126255804D01*
X118222496Y-126252204D01*
X118247000Y-126251000D01*
X119497000Y-126251000D01*
X119521504Y-126252204D01*
G37*
G36*
X119521504Y-123452204D02*
G01*
X119545773Y-123455804D01*
X119569571Y-123461765D01*
X119592671Y-123470030D01*
X119614849Y-123480520D01*
X119635893Y-123493133D01*
X119655598Y-123507747D01*
X119673777Y-123524223D01*
X119690253Y-123542402D01*
X119704867Y-123562107D01*
X119717480Y-123583151D01*
X119727970Y-123605329D01*
X119736235Y-123628429D01*
X119742196Y-123652227D01*
X119745796Y-123676496D01*
X119747000Y-123701000D01*
X119747000Y-124451000D01*
X119745796Y-124475504D01*
X119742196Y-124499773D01*
X119736235Y-124523571D01*
X119727970Y-124546671D01*
X119717480Y-124568849D01*
X119704867Y-124589893D01*
X119690253Y-124609598D01*
X119673777Y-124627777D01*
X119655598Y-124644253D01*
X119635893Y-124658867D01*
X119614849Y-124671480D01*
X119592671Y-124681970D01*
X119569571Y-124690235D01*
X119545773Y-124696196D01*
X119521504Y-124699796D01*
X119497000Y-124701000D01*
X118247000Y-124701000D01*
X118222496Y-124699796D01*
X118198227Y-124696196D01*
X118174429Y-124690235D01*
X118151329Y-124681970D01*
X118129151Y-124671480D01*
X118108107Y-124658867D01*
X118088402Y-124644253D01*
X118070223Y-124627777D01*
X118053747Y-124609598D01*
X118039133Y-124589893D01*
X118026520Y-124568849D01*
X118016030Y-124546671D01*
X118007765Y-124523571D01*
X118001804Y-124499773D01*
X117998204Y-124475504D01*
X117997000Y-124451000D01*
X117997000Y-123701000D01*
X117998204Y-123676496D01*
X118001804Y-123652227D01*
X118007765Y-123628429D01*
X118016030Y-123605329D01*
X118026520Y-123583151D01*
X118039133Y-123562107D01*
X118053747Y-123542402D01*
X118070223Y-123524223D01*
X118088402Y-123507747D01*
X118108107Y-123493133D01*
X118129151Y-123480520D01*
X118151329Y-123470030D01*
X118174429Y-123461765D01*
X118198227Y-123455804D01*
X118222496Y-123452204D01*
X118247000Y-123451000D01*
X119497000Y-123451000D01*
X119521504Y-123452204D01*
G37*
G36*
X122950504Y-126252204D02*
G01*
X122974773Y-126255804D01*
X122998571Y-126261765D01*
X123021671Y-126270030D01*
X123043849Y-126280520D01*
X123064893Y-126293133D01*
X123084598Y-126307747D01*
X123102777Y-126324223D01*
X123119253Y-126342402D01*
X123133867Y-126362107D01*
X123146480Y-126383151D01*
X123156970Y-126405329D01*
X123165235Y-126428429D01*
X123171196Y-126452227D01*
X123174796Y-126476496D01*
X123176000Y-126501000D01*
X123176000Y-127251000D01*
X123174796Y-127275504D01*
X123171196Y-127299773D01*
X123165235Y-127323571D01*
X123156970Y-127346671D01*
X123146480Y-127368849D01*
X123133867Y-127389893D01*
X123119253Y-127409598D01*
X123102777Y-127427777D01*
X123084598Y-127444253D01*
X123064893Y-127458867D01*
X123043849Y-127471480D01*
X123021671Y-127481970D01*
X122998571Y-127490235D01*
X122974773Y-127496196D01*
X122950504Y-127499796D01*
X122926000Y-127501000D01*
X121676000Y-127501000D01*
X121651496Y-127499796D01*
X121627227Y-127496196D01*
X121603429Y-127490235D01*
X121580329Y-127481970D01*
X121558151Y-127471480D01*
X121537107Y-127458867D01*
X121517402Y-127444253D01*
X121499223Y-127427777D01*
X121482747Y-127409598D01*
X121468133Y-127389893D01*
X121455520Y-127368849D01*
X121445030Y-127346671D01*
X121436765Y-127323571D01*
X121430804Y-127299773D01*
X121427204Y-127275504D01*
X121426000Y-127251000D01*
X121426000Y-126501000D01*
X121427204Y-126476496D01*
X121430804Y-126452227D01*
X121436765Y-126428429D01*
X121445030Y-126405329D01*
X121455520Y-126383151D01*
X121468133Y-126362107D01*
X121482747Y-126342402D01*
X121499223Y-126324223D01*
X121517402Y-126307747D01*
X121537107Y-126293133D01*
X121558151Y-126280520D01*
X121580329Y-126270030D01*
X121603429Y-126261765D01*
X121627227Y-126255804D01*
X121651496Y-126252204D01*
X121676000Y-126251000D01*
X122926000Y-126251000D01*
X122950504Y-126252204D01*
G37*
G36*
X122950504Y-123452204D02*
G01*
X122974773Y-123455804D01*
X122998571Y-123461765D01*
X123021671Y-123470030D01*
X123043849Y-123480520D01*
X123064893Y-123493133D01*
X123084598Y-123507747D01*
X123102777Y-123524223D01*
X123119253Y-123542402D01*
X123133867Y-123562107D01*
X123146480Y-123583151D01*
X123156970Y-123605329D01*
X123165235Y-123628429D01*
X123171196Y-123652227D01*
X123174796Y-123676496D01*
X123176000Y-123701000D01*
X123176000Y-124451000D01*
X123174796Y-124475504D01*
X123171196Y-124499773D01*
X123165235Y-124523571D01*
X123156970Y-124546671D01*
X123146480Y-124568849D01*
X123133867Y-124589893D01*
X123119253Y-124609598D01*
X123102777Y-124627777D01*
X123084598Y-124644253D01*
X123064893Y-124658867D01*
X123043849Y-124671480D01*
X123021671Y-124681970D01*
X122998571Y-124690235D01*
X122974773Y-124696196D01*
X122950504Y-124699796D01*
X122926000Y-124701000D01*
X121676000Y-124701000D01*
X121651496Y-124699796D01*
X121627227Y-124696196D01*
X121603429Y-124690235D01*
X121580329Y-124681970D01*
X121558151Y-124671480D01*
X121537107Y-124658867D01*
X121517402Y-124644253D01*
X121499223Y-124627777D01*
X121482747Y-124609598D01*
X121468133Y-124589893D01*
X121455520Y-124568849D01*
X121445030Y-124546671D01*
X121436765Y-124523571D01*
X121430804Y-124499773D01*
X121427204Y-124475504D01*
X121426000Y-124451000D01*
X121426000Y-123701000D01*
X121427204Y-123676496D01*
X121430804Y-123652227D01*
X121436765Y-123628429D01*
X121445030Y-123605329D01*
X121455520Y-123583151D01*
X121468133Y-123562107D01*
X121482747Y-123542402D01*
X121499223Y-123524223D01*
X121517402Y-123507747D01*
X121537107Y-123493133D01*
X121558151Y-123480520D01*
X121580329Y-123470030D01*
X121603429Y-123461765D01*
X121627227Y-123455804D01*
X121651496Y-123452204D01*
X121676000Y-123451000D01*
X122926000Y-123451000D01*
X122950504Y-123452204D01*
G37*
G36*
X122925104Y-113289204D02*
G01*
X122949373Y-113292804D01*
X122973171Y-113298765D01*
X122996271Y-113307030D01*
X123018449Y-113317520D01*
X123039493Y-113330133D01*
X123059198Y-113344747D01*
X123077377Y-113361223D01*
X123093853Y-113379402D01*
X123108467Y-113399107D01*
X123121080Y-113420151D01*
X123131570Y-113442329D01*
X123139835Y-113465429D01*
X123145796Y-113489227D01*
X123149396Y-113513496D01*
X123150600Y-113538000D01*
X123150600Y-114288000D01*
X123149396Y-114312504D01*
X123145796Y-114336773D01*
X123139835Y-114360571D01*
X123131570Y-114383671D01*
X123121080Y-114405849D01*
X123108467Y-114426893D01*
X123093853Y-114446598D01*
X123077377Y-114464777D01*
X123059198Y-114481253D01*
X123039493Y-114495867D01*
X123018449Y-114508480D01*
X122996271Y-114518970D01*
X122973171Y-114527235D01*
X122949373Y-114533196D01*
X122925104Y-114536796D01*
X122900600Y-114538000D01*
X121650600Y-114538000D01*
X121626096Y-114536796D01*
X121601827Y-114533196D01*
X121578029Y-114527235D01*
X121554929Y-114518970D01*
X121532751Y-114508480D01*
X121511707Y-114495867D01*
X121492002Y-114481253D01*
X121473823Y-114464777D01*
X121457347Y-114446598D01*
X121442733Y-114426893D01*
X121430120Y-114405849D01*
X121419630Y-114383671D01*
X121411365Y-114360571D01*
X121405404Y-114336773D01*
X121401804Y-114312504D01*
X121400600Y-114288000D01*
X121400600Y-113538000D01*
X121401804Y-113513496D01*
X121405404Y-113489227D01*
X121411365Y-113465429D01*
X121419630Y-113442329D01*
X121430120Y-113420151D01*
X121442733Y-113399107D01*
X121457347Y-113379402D01*
X121473823Y-113361223D01*
X121492002Y-113344747D01*
X121511707Y-113330133D01*
X121532751Y-113317520D01*
X121554929Y-113307030D01*
X121578029Y-113298765D01*
X121601827Y-113292804D01*
X121626096Y-113289204D01*
X121650600Y-113288000D01*
X122900600Y-113288000D01*
X122925104Y-113289204D01*
G37*
G36*
X122925104Y-116089204D02*
G01*
X122949373Y-116092804D01*
X122973171Y-116098765D01*
X122996271Y-116107030D01*
X123018449Y-116117520D01*
X123039493Y-116130133D01*
X123059198Y-116144747D01*
X123077377Y-116161223D01*
X123093853Y-116179402D01*
X123108467Y-116199107D01*
X123121080Y-116220151D01*
X123131570Y-116242329D01*
X123139835Y-116265429D01*
X123145796Y-116289227D01*
X123149396Y-116313496D01*
X123150600Y-116338000D01*
X123150600Y-117088000D01*
X123149396Y-117112504D01*
X123145796Y-117136773D01*
X123139835Y-117160571D01*
X123131570Y-117183671D01*
X123121080Y-117205849D01*
X123108467Y-117226893D01*
X123093853Y-117246598D01*
X123077377Y-117264777D01*
X123059198Y-117281253D01*
X123039493Y-117295867D01*
X123018449Y-117308480D01*
X122996271Y-117318970D01*
X122973171Y-117327235D01*
X122949373Y-117333196D01*
X122925104Y-117336796D01*
X122900600Y-117338000D01*
X121650600Y-117338000D01*
X121626096Y-117336796D01*
X121601827Y-117333196D01*
X121578029Y-117327235D01*
X121554929Y-117318970D01*
X121532751Y-117308480D01*
X121511707Y-117295867D01*
X121492002Y-117281253D01*
X121473823Y-117264777D01*
X121457347Y-117246598D01*
X121442733Y-117226893D01*
X121430120Y-117205849D01*
X121419630Y-117183671D01*
X121411365Y-117160571D01*
X121405404Y-117136773D01*
X121401804Y-117112504D01*
X121400600Y-117088000D01*
X121400600Y-116338000D01*
X121401804Y-116313496D01*
X121405404Y-116289227D01*
X121411365Y-116265429D01*
X121419630Y-116242329D01*
X121430120Y-116220151D01*
X121442733Y-116199107D01*
X121457347Y-116179402D01*
X121473823Y-116161223D01*
X121492002Y-116144747D01*
X121511707Y-116130133D01*
X121532751Y-116117520D01*
X121554929Y-116107030D01*
X121578029Y-116098765D01*
X121601827Y-116092804D01*
X121626096Y-116089204D01*
X121650600Y-116088000D01*
X122900600Y-116088000D01*
X122925104Y-116089204D01*
G37*
G36*
X119521504Y-113289204D02*
G01*
X119545773Y-113292804D01*
X119569571Y-113298765D01*
X119592671Y-113307030D01*
X119614849Y-113317520D01*
X119635893Y-113330133D01*
X119655598Y-113344747D01*
X119673777Y-113361223D01*
X119690253Y-113379402D01*
X119704867Y-113399107D01*
X119717480Y-113420151D01*
X119727970Y-113442329D01*
X119736235Y-113465429D01*
X119742196Y-113489227D01*
X119745796Y-113513496D01*
X119747000Y-113538000D01*
X119747000Y-114288000D01*
X119745796Y-114312504D01*
X119742196Y-114336773D01*
X119736235Y-114360571D01*
X119727970Y-114383671D01*
X119717480Y-114405849D01*
X119704867Y-114426893D01*
X119690253Y-114446598D01*
X119673777Y-114464777D01*
X119655598Y-114481253D01*
X119635893Y-114495867D01*
X119614849Y-114508480D01*
X119592671Y-114518970D01*
X119569571Y-114527235D01*
X119545773Y-114533196D01*
X119521504Y-114536796D01*
X119497000Y-114538000D01*
X118247000Y-114538000D01*
X118222496Y-114536796D01*
X118198227Y-114533196D01*
X118174429Y-114527235D01*
X118151329Y-114518970D01*
X118129151Y-114508480D01*
X118108107Y-114495867D01*
X118088402Y-114481253D01*
X118070223Y-114464777D01*
X118053747Y-114446598D01*
X118039133Y-114426893D01*
X118026520Y-114405849D01*
X118016030Y-114383671D01*
X118007765Y-114360571D01*
X118001804Y-114336773D01*
X117998204Y-114312504D01*
X117997000Y-114288000D01*
X117997000Y-113538000D01*
X117998204Y-113513496D01*
X118001804Y-113489227D01*
X118007765Y-113465429D01*
X118016030Y-113442329D01*
X118026520Y-113420151D01*
X118039133Y-113399107D01*
X118053747Y-113379402D01*
X118070223Y-113361223D01*
X118088402Y-113344747D01*
X118108107Y-113330133D01*
X118129151Y-113317520D01*
X118151329Y-113307030D01*
X118174429Y-113298765D01*
X118198227Y-113292804D01*
X118222496Y-113289204D01*
X118247000Y-113288000D01*
X119497000Y-113288000D01*
X119521504Y-113289204D01*
G37*
G36*
X119521504Y-116089204D02*
G01*
X119545773Y-116092804D01*
X119569571Y-116098765D01*
X119592671Y-116107030D01*
X119614849Y-116117520D01*
X119635893Y-116130133D01*
X119655598Y-116144747D01*
X119673777Y-116161223D01*
X119690253Y-116179402D01*
X119704867Y-116199107D01*
X119717480Y-116220151D01*
X119727970Y-116242329D01*
X119736235Y-116265429D01*
X119742196Y-116289227D01*
X119745796Y-116313496D01*
X119747000Y-116338000D01*
X119747000Y-117088000D01*
X119745796Y-117112504D01*
X119742196Y-117136773D01*
X119736235Y-117160571D01*
X119727970Y-117183671D01*
X119717480Y-117205849D01*
X119704867Y-117226893D01*
X119690253Y-117246598D01*
X119673777Y-117264777D01*
X119655598Y-117281253D01*
X119635893Y-117295867D01*
X119614849Y-117308480D01*
X119592671Y-117318970D01*
X119569571Y-117327235D01*
X119545773Y-117333196D01*
X119521504Y-117336796D01*
X119497000Y-117338000D01*
X118247000Y-117338000D01*
X118222496Y-117336796D01*
X118198227Y-117333196D01*
X118174429Y-117327235D01*
X118151329Y-117318970D01*
X118129151Y-117308480D01*
X118108107Y-117295867D01*
X118088402Y-117281253D01*
X118070223Y-117264777D01*
X118053747Y-117246598D01*
X118039133Y-117226893D01*
X118026520Y-117205849D01*
X118016030Y-117183671D01*
X118007765Y-117160571D01*
X118001804Y-117136773D01*
X117998204Y-117112504D01*
X117997000Y-117088000D01*
X117997000Y-116338000D01*
X117998204Y-116313496D01*
X118001804Y-116289227D01*
X118007765Y-116265429D01*
X118016030Y-116242329D01*
X118026520Y-116220151D01*
X118039133Y-116199107D01*
X118053747Y-116179402D01*
X118070223Y-116161223D01*
X118088402Y-116144747D01*
X118108107Y-116130133D01*
X118129151Y-116117520D01*
X118151329Y-116107030D01*
X118174429Y-116098765D01*
X118198227Y-116092804D01*
X118222496Y-116089204D01*
X118247000Y-116088000D01*
X119497000Y-116088000D01*
X119521504Y-116089204D01*
G37*
D11*
X118684000Y-121904000D03*
X117734000Y-119904000D03*
X119634000Y-119904000D03*
X122682000Y-121904000D03*
X121732000Y-119904000D03*
X123632000Y-119904000D03*
M02*
