G04 #@! TF.GenerationSoftware,KiCad,Pcbnew,(5.1.5-0-10_14)*
G04 #@! TF.CreationDate,2020-03-02T13:53:31+01:00*
G04 #@! TF.ProjectId,ithowifi,6974686f-7769-4666-992e-6b696361645f,rev?*
G04 #@! TF.SameCoordinates,Original*
G04 #@! TF.FileFunction,Copper,L1,Top*
G04 #@! TF.FilePolarity,Positive*
%FSLAX46Y46*%
G04 Gerber Fmt 4.6, Leading zero omitted, Abs format (unit mm)*
G04 Created by KiCad (PCBNEW (5.1.5-0-10_14)) date 2020-03-02 13:53:31*
%MOMM*%
%LPD*%
G04 APERTURE LIST*
%ADD10R,1.700000X1.700000*%
%ADD11O,1.700000X1.700000*%
%ADD12C,1.930400*%
%ADD13O,2.300000X1.500000*%
%ADD14R,2.300000X1.500000*%
%ADD15O,1.600000X1.600000*%
%ADD16C,1.600000*%
%ADD17C,0.250000*%
%ADD18C,0.254000*%
G04 APERTURE END LIST*
D10*
X122047000Y-137795000D03*
D11*
X119507000Y-137795000D03*
X122047000Y-135255000D03*
X119507000Y-135255000D03*
X122047000Y-132715000D03*
X119507000Y-132715000D03*
X122047000Y-130175000D03*
X119507000Y-130175000D03*
D12*
X91059000Y-107315000D03*
X91059000Y-109855000D03*
X91059000Y-112395000D03*
X91059000Y-114935000D03*
X91059000Y-117475000D03*
X91059000Y-120015000D03*
X91059000Y-122555000D03*
X91059000Y-125095000D03*
X91059000Y-127635000D03*
X91059000Y-130175000D03*
X91059000Y-132715000D03*
X91059000Y-135255000D03*
X91059000Y-137795000D03*
X91059000Y-140335000D03*
X91059000Y-142875000D03*
X113919000Y-107315000D03*
X113919000Y-109855000D03*
X113919000Y-112395000D03*
X113919000Y-114935000D03*
X113919000Y-117475000D03*
X113919000Y-120015000D03*
X113919000Y-122555000D03*
X113919000Y-125095000D03*
X113919000Y-127635000D03*
X113919000Y-130175000D03*
X113919000Y-132715000D03*
X113919000Y-135255000D03*
X113919000Y-137795000D03*
X113919000Y-140335000D03*
X113919000Y-142875000D03*
D13*
X118491000Y-150749000D03*
X118491000Y-148209000D03*
D14*
X118491000Y-145669000D03*
D15*
X119380000Y-117475000D03*
D16*
X119380000Y-114935000D03*
D15*
X123190000Y-117475000D03*
D16*
X123190000Y-114935000D03*
D17*
X118491000Y-148209000D02*
X118091000Y-148209000D01*
D18*
G36*
X89520294Y-115401761D02*
G01*
X89640921Y-115692979D01*
X89816043Y-115955068D01*
X90038932Y-116177957D01*
X90079405Y-116205000D01*
X90038932Y-116232043D01*
X89816043Y-116454932D01*
X89640921Y-116717021D01*
X89520294Y-117008239D01*
X89458800Y-117317394D01*
X89458800Y-117632606D01*
X89520294Y-117941761D01*
X89640921Y-118232979D01*
X89816043Y-118495068D01*
X90038932Y-118717957D01*
X90079405Y-118745000D01*
X90038932Y-118772043D01*
X89816043Y-118994932D01*
X89640921Y-119257021D01*
X89520294Y-119548239D01*
X89458800Y-119857394D01*
X89458800Y-120172606D01*
X89520294Y-120481761D01*
X89640921Y-120772979D01*
X89816043Y-121035068D01*
X90038932Y-121257957D01*
X90079405Y-121285000D01*
X90038932Y-121312043D01*
X89816043Y-121534932D01*
X89640921Y-121797021D01*
X89520294Y-122088239D01*
X89458800Y-122397394D01*
X89458800Y-122712606D01*
X89520294Y-123021761D01*
X89640921Y-123312979D01*
X89816043Y-123575068D01*
X90038932Y-123797957D01*
X90079405Y-123825000D01*
X90038932Y-123852043D01*
X89816043Y-124074932D01*
X89640921Y-124337021D01*
X89520294Y-124628239D01*
X89458800Y-124937394D01*
X89458800Y-125252606D01*
X89520294Y-125561761D01*
X89640921Y-125852979D01*
X89816043Y-126115068D01*
X90038932Y-126337957D01*
X90079405Y-126365000D01*
X90038932Y-126392043D01*
X89816043Y-126614932D01*
X89640921Y-126877021D01*
X89520294Y-127168239D01*
X89458800Y-127477394D01*
X89458800Y-127792606D01*
X89520294Y-128101761D01*
X89640921Y-128392979D01*
X89816043Y-128655068D01*
X90038932Y-128877957D01*
X90164101Y-128961592D01*
X90128011Y-129064406D01*
X91059000Y-129995395D01*
X91989989Y-129064406D01*
X91953899Y-128961592D01*
X92079068Y-128877957D01*
X92301957Y-128655068D01*
X92477079Y-128392979D01*
X92597706Y-128101761D01*
X92659200Y-127792606D01*
X92659200Y-127477394D01*
X92597706Y-127168239D01*
X92477079Y-126877021D01*
X92301957Y-126614932D01*
X92079068Y-126392043D01*
X92038595Y-126365000D01*
X92079068Y-126337957D01*
X92301957Y-126115068D01*
X92477079Y-125852979D01*
X92597706Y-125561761D01*
X92659200Y-125252606D01*
X92659200Y-124937394D01*
X92597706Y-124628239D01*
X92477079Y-124337021D01*
X92301957Y-124074932D01*
X92079068Y-123852043D01*
X92038595Y-123825000D01*
X92079068Y-123797957D01*
X92301957Y-123575068D01*
X92477079Y-123312979D01*
X92597706Y-123021761D01*
X92659200Y-122712606D01*
X92659200Y-122618971D01*
X112312330Y-122618971D01*
X112355682Y-122931188D01*
X112459112Y-123228948D01*
X112547562Y-123394428D01*
X112808406Y-123485989D01*
X113739395Y-122555000D01*
X112808406Y-121624011D01*
X112547562Y-121715572D01*
X112410149Y-121999256D01*
X112330721Y-122304296D01*
X112312330Y-122618971D01*
X92659200Y-122618971D01*
X92659200Y-122397394D01*
X92597706Y-122088239D01*
X92477079Y-121797021D01*
X92301957Y-121534932D01*
X92079068Y-121312043D01*
X92038595Y-121285000D01*
X92079068Y-121257957D01*
X92301957Y-121035068D01*
X92477079Y-120772979D01*
X92597706Y-120481761D01*
X92659200Y-120172606D01*
X92659200Y-119857394D01*
X92597706Y-119548239D01*
X92477079Y-119257021D01*
X92301957Y-118994932D01*
X92079068Y-118772043D01*
X92038595Y-118745000D01*
X92079068Y-118717957D01*
X92301957Y-118495068D01*
X92477079Y-118232979D01*
X92597706Y-117941761D01*
X92659200Y-117632606D01*
X92659200Y-117317394D01*
X92597706Y-117008239D01*
X92477079Y-116717021D01*
X92301957Y-116454932D01*
X92079068Y-116232043D01*
X92038595Y-116205000D01*
X92079068Y-116177957D01*
X92301957Y-115955068D01*
X92477079Y-115692979D01*
X92597706Y-115401761D01*
X92614765Y-115316000D01*
X112363235Y-115316000D01*
X112380294Y-115401761D01*
X112500921Y-115692979D01*
X112676043Y-115955068D01*
X112898932Y-116177957D01*
X112939405Y-116205000D01*
X112898932Y-116232043D01*
X112676043Y-116454932D01*
X112500921Y-116717021D01*
X112380294Y-117008239D01*
X112318800Y-117317394D01*
X112318800Y-117632606D01*
X112380294Y-117941761D01*
X112500921Y-118232979D01*
X112676043Y-118495068D01*
X112898932Y-118717957D01*
X112939405Y-118745000D01*
X112898932Y-118772043D01*
X112676043Y-118994932D01*
X112500921Y-119257021D01*
X112380294Y-119548239D01*
X112318800Y-119857394D01*
X112318800Y-120172606D01*
X112380294Y-120481761D01*
X112500921Y-120772979D01*
X112676043Y-121035068D01*
X112898932Y-121257957D01*
X113024101Y-121341592D01*
X112988011Y-121444406D01*
X113792000Y-122248395D01*
X113792000Y-122682000D01*
X113794440Y-122706776D01*
X113801667Y-122730601D01*
X113813403Y-122752557D01*
X113829197Y-122771803D01*
X113848443Y-122787597D01*
X113859890Y-122793715D01*
X112988011Y-123665594D01*
X113024101Y-123768408D01*
X112898932Y-123852043D01*
X112676043Y-124074932D01*
X112500921Y-124337021D01*
X112380294Y-124628239D01*
X112318800Y-124937394D01*
X112318800Y-125252606D01*
X112380294Y-125561761D01*
X112500921Y-125852979D01*
X112676043Y-126115068D01*
X112898932Y-126337957D01*
X112939405Y-126365000D01*
X112898932Y-126392043D01*
X112676043Y-126614932D01*
X112500921Y-126877021D01*
X112380294Y-127168239D01*
X112318800Y-127477394D01*
X112318800Y-127792606D01*
X112380294Y-128101761D01*
X112500921Y-128392979D01*
X112676043Y-128655068D01*
X112898932Y-128877957D01*
X112939405Y-128905000D01*
X112898932Y-128932043D01*
X112676043Y-129154932D01*
X112500921Y-129417021D01*
X112380294Y-129708239D01*
X112318800Y-130017394D01*
X112318800Y-130332606D01*
X112380294Y-130641761D01*
X112500921Y-130932979D01*
X112676043Y-131195068D01*
X112898932Y-131417957D01*
X112939405Y-131445000D01*
X112898932Y-131472043D01*
X112676043Y-131694932D01*
X112500921Y-131957021D01*
X112380294Y-132248239D01*
X112318800Y-132557394D01*
X112318800Y-132872606D01*
X112380294Y-133181761D01*
X112500921Y-133472979D01*
X112676043Y-133735068D01*
X112898932Y-133957957D01*
X112939405Y-133985000D01*
X112898932Y-134012043D01*
X112676043Y-134234932D01*
X112500921Y-134497021D01*
X112380294Y-134788239D01*
X112318800Y-135097394D01*
X112318800Y-135412606D01*
X112380294Y-135721761D01*
X112500921Y-136012979D01*
X112676043Y-136275068D01*
X112898932Y-136497957D01*
X112939405Y-136525000D01*
X112898932Y-136552043D01*
X112676043Y-136774932D01*
X112500921Y-137037021D01*
X112380294Y-137328239D01*
X112318800Y-137637394D01*
X112318800Y-137952606D01*
X112380294Y-138261761D01*
X112500921Y-138552979D01*
X112676043Y-138815068D01*
X112898932Y-139037957D01*
X113024101Y-139121592D01*
X112988011Y-139224406D01*
X113919000Y-140155395D01*
X114849989Y-139224406D01*
X114813899Y-139121592D01*
X114939068Y-139037957D01*
X115161957Y-138815068D01*
X115337079Y-138552979D01*
X115457706Y-138261761D01*
X115519200Y-137952606D01*
X115519200Y-137637394D01*
X115457706Y-137328239D01*
X115337079Y-137037021D01*
X115161957Y-136774932D01*
X114939068Y-136552043D01*
X114898595Y-136525000D01*
X114939068Y-136497957D01*
X115161957Y-136275068D01*
X115337079Y-136012979D01*
X115457706Y-135721761D01*
X115519200Y-135412606D01*
X115519200Y-135097394D01*
X115457706Y-134788239D01*
X115337079Y-134497021D01*
X115161957Y-134234932D01*
X114939068Y-134012043D01*
X114898595Y-133985000D01*
X114939068Y-133957957D01*
X115161957Y-133735068D01*
X115337079Y-133472979D01*
X115457706Y-133181761D01*
X115519200Y-132872606D01*
X115519200Y-132557394D01*
X115457706Y-132248239D01*
X115337079Y-131957021D01*
X115161957Y-131694932D01*
X114939068Y-131472043D01*
X114898595Y-131445000D01*
X114939068Y-131417957D01*
X115161957Y-131195068D01*
X115337079Y-130932979D01*
X115457706Y-130641761D01*
X115519200Y-130332606D01*
X115519200Y-130028740D01*
X118022000Y-130028740D01*
X118022000Y-130321260D01*
X118079068Y-130608158D01*
X118191010Y-130878411D01*
X118353525Y-131121632D01*
X118560368Y-131328475D01*
X118734760Y-131445000D01*
X118560368Y-131561525D01*
X118353525Y-131768368D01*
X118191010Y-132011589D01*
X118079068Y-132281842D01*
X118022000Y-132568740D01*
X118022000Y-132861260D01*
X118079068Y-133148158D01*
X118191010Y-133418411D01*
X118353525Y-133661632D01*
X118560368Y-133868475D01*
X118734760Y-133985000D01*
X118560368Y-134101525D01*
X118353525Y-134308368D01*
X118191010Y-134551589D01*
X118079068Y-134821842D01*
X118022000Y-135108740D01*
X118022000Y-135401260D01*
X118079068Y-135688158D01*
X118191010Y-135958411D01*
X118353525Y-136201632D01*
X118560368Y-136408475D01*
X118734760Y-136525000D01*
X118560368Y-136641525D01*
X118353525Y-136848368D01*
X118191010Y-137091589D01*
X118079068Y-137361842D01*
X118022000Y-137648740D01*
X118022000Y-137941260D01*
X118079068Y-138228158D01*
X118191010Y-138498411D01*
X118353525Y-138741632D01*
X118560368Y-138948475D01*
X118803589Y-139110990D01*
X119073842Y-139222932D01*
X119360740Y-139280000D01*
X119653260Y-139280000D01*
X119940158Y-139222932D01*
X120210411Y-139110990D01*
X120453632Y-138948475D01*
X120585487Y-138816620D01*
X120607498Y-138889180D01*
X120666463Y-138999494D01*
X120745815Y-139096185D01*
X120842506Y-139175537D01*
X120952820Y-139234502D01*
X121072518Y-139270812D01*
X121197000Y-139283072D01*
X122897000Y-139283072D01*
X123021482Y-139270812D01*
X123141180Y-139234502D01*
X123251494Y-139175537D01*
X123348185Y-139096185D01*
X123427537Y-138999494D01*
X123486502Y-138889180D01*
X123522812Y-138769482D01*
X123535072Y-138645000D01*
X123535072Y-136945000D01*
X123522812Y-136820518D01*
X123486502Y-136700820D01*
X123427537Y-136590506D01*
X123348185Y-136493815D01*
X123251494Y-136414463D01*
X123141180Y-136355498D01*
X123068620Y-136333487D01*
X123200475Y-136201632D01*
X123362990Y-135958411D01*
X123474932Y-135688158D01*
X123532000Y-135401260D01*
X123532000Y-135108740D01*
X123474932Y-134821842D01*
X123362990Y-134551589D01*
X123200475Y-134308368D01*
X122993632Y-134101525D01*
X122811466Y-133979805D01*
X122928355Y-133910178D01*
X123144588Y-133715269D01*
X123318641Y-133481920D01*
X123443825Y-133219099D01*
X123488476Y-133071890D01*
X123367155Y-132842000D01*
X122174000Y-132842000D01*
X122174000Y-132862000D01*
X121920000Y-132862000D01*
X121920000Y-132842000D01*
X121900000Y-132842000D01*
X121900000Y-132588000D01*
X121920000Y-132588000D01*
X121920000Y-132568000D01*
X122174000Y-132568000D01*
X122174000Y-132588000D01*
X123367155Y-132588000D01*
X123488476Y-132358110D01*
X123443825Y-132210901D01*
X123318641Y-131948080D01*
X123144588Y-131714731D01*
X122928355Y-131519822D01*
X122811466Y-131450195D01*
X122993632Y-131328475D01*
X123200475Y-131121632D01*
X123362990Y-130878411D01*
X123474932Y-130608158D01*
X123532000Y-130321260D01*
X123532000Y-130028740D01*
X123474932Y-129741842D01*
X123362990Y-129471589D01*
X123200475Y-129228368D01*
X122993632Y-129021525D01*
X122750411Y-128859010D01*
X122480158Y-128747068D01*
X122193260Y-128690000D01*
X121900740Y-128690000D01*
X121613842Y-128747068D01*
X121343589Y-128859010D01*
X121100368Y-129021525D01*
X120893525Y-129228368D01*
X120777000Y-129402760D01*
X120660475Y-129228368D01*
X120453632Y-129021525D01*
X120210411Y-128859010D01*
X119940158Y-128747068D01*
X119653260Y-128690000D01*
X119360740Y-128690000D01*
X119073842Y-128747068D01*
X118803589Y-128859010D01*
X118560368Y-129021525D01*
X118353525Y-129228368D01*
X118191010Y-129471589D01*
X118079068Y-129741842D01*
X118022000Y-130028740D01*
X115519200Y-130028740D01*
X115519200Y-130017394D01*
X115457706Y-129708239D01*
X115337079Y-129417021D01*
X115161957Y-129154932D01*
X114939068Y-128932043D01*
X114898595Y-128905000D01*
X114939068Y-128877957D01*
X115161957Y-128655068D01*
X115337079Y-128392979D01*
X115457706Y-128101761D01*
X115519200Y-127792606D01*
X115519200Y-127477394D01*
X115457706Y-127168239D01*
X115337079Y-126877021D01*
X115161957Y-126614932D01*
X114939068Y-126392043D01*
X114898595Y-126365000D01*
X114939068Y-126337957D01*
X115161957Y-126115068D01*
X115337079Y-125852979D01*
X115457706Y-125561761D01*
X115519200Y-125252606D01*
X115519200Y-124937394D01*
X115457706Y-124628239D01*
X115337079Y-124337021D01*
X115161957Y-124074932D01*
X114939068Y-123852043D01*
X114813899Y-123768408D01*
X114849989Y-123665594D01*
X113993395Y-122809000D01*
X114352605Y-122809000D01*
X115029594Y-123485989D01*
X115290438Y-123394428D01*
X115427851Y-123110744D01*
X115506421Y-122809000D01*
X124654000Y-122809000D01*
X124654001Y-153127998D01*
X124637361Y-153297707D01*
X124597951Y-153428238D01*
X124533933Y-153548638D01*
X124447753Y-153654305D01*
X124342690Y-153741221D01*
X124222743Y-153806076D01*
X124092488Y-153846397D01*
X123925005Y-153864000D01*
X85123991Y-153864000D01*
X84830954Y-153835268D01*
X84581782Y-153760038D01*
X84351959Y-153637840D01*
X84150254Y-153473333D01*
X83984339Y-153272776D01*
X83860542Y-153043819D01*
X83783573Y-152795170D01*
X83753000Y-152504286D01*
X83753000Y-150749000D01*
X116699299Y-150749000D01*
X116726040Y-151020507D01*
X116805236Y-151281581D01*
X116933843Y-151522188D01*
X117106919Y-151733081D01*
X117317812Y-151906157D01*
X117558419Y-152034764D01*
X117819493Y-152113960D01*
X118022963Y-152134000D01*
X118959037Y-152134000D01*
X119162507Y-152113960D01*
X119423581Y-152034764D01*
X119664188Y-151906157D01*
X119875081Y-151733081D01*
X120048157Y-151522188D01*
X120176764Y-151281581D01*
X120255960Y-151020507D01*
X120282701Y-150749000D01*
X120255960Y-150477493D01*
X120176764Y-150216419D01*
X120048157Y-149975812D01*
X119875081Y-149764919D01*
X119664188Y-149591843D01*
X119448422Y-149476514D01*
X119538349Y-149439972D01*
X119766061Y-149290028D01*
X119960145Y-149098540D01*
X120113142Y-148872868D01*
X120219173Y-148621684D01*
X120233318Y-148550185D01*
X120110656Y-148336000D01*
X118618000Y-148336000D01*
X118618000Y-148356000D01*
X118364000Y-148356000D01*
X118364000Y-148336000D01*
X116871344Y-148336000D01*
X116748682Y-148550185D01*
X116762827Y-148621684D01*
X116868858Y-148872868D01*
X117021855Y-149098540D01*
X117215939Y-149290028D01*
X117443651Y-149439972D01*
X117533578Y-149476514D01*
X117317812Y-149591843D01*
X117106919Y-149764919D01*
X116933843Y-149975812D01*
X116805236Y-150216419D01*
X116726040Y-150477493D01*
X116699299Y-150749000D01*
X83753000Y-150749000D01*
X83753000Y-144919000D01*
X116702928Y-144919000D01*
X116702928Y-146419000D01*
X116715188Y-146543482D01*
X116751498Y-146663180D01*
X116810463Y-146773494D01*
X116889815Y-146870185D01*
X116986506Y-146949537D01*
X117096820Y-147008502D01*
X117216518Y-147044812D01*
X117325874Y-147055582D01*
X117215939Y-147127972D01*
X117021855Y-147319460D01*
X116868858Y-147545132D01*
X116762827Y-147796316D01*
X116748682Y-147867815D01*
X116871344Y-148082000D01*
X118364000Y-148082000D01*
X118364000Y-148062000D01*
X118618000Y-148062000D01*
X118618000Y-148082000D01*
X120110656Y-148082000D01*
X120233318Y-147867815D01*
X120219173Y-147796316D01*
X120113142Y-147545132D01*
X119960145Y-147319460D01*
X119766061Y-147127972D01*
X119656126Y-147055582D01*
X119765482Y-147044812D01*
X119885180Y-147008502D01*
X119995494Y-146949537D01*
X120092185Y-146870185D01*
X120171537Y-146773494D01*
X120230502Y-146663180D01*
X120266812Y-146543482D01*
X120279072Y-146419000D01*
X120279072Y-144919000D01*
X120266812Y-144794518D01*
X120230502Y-144674820D01*
X120171537Y-144564506D01*
X120092185Y-144467815D01*
X119995494Y-144388463D01*
X119885180Y-144329498D01*
X119765482Y-144293188D01*
X119641000Y-144280928D01*
X117341000Y-144280928D01*
X117216518Y-144293188D01*
X117096820Y-144329498D01*
X116986506Y-144388463D01*
X116889815Y-144467815D01*
X116810463Y-144564506D01*
X116751498Y-144674820D01*
X116715188Y-144794518D01*
X116702928Y-144919000D01*
X83753000Y-144919000D01*
X83753000Y-132631721D01*
X84479000Y-132631721D01*
X84479000Y-133052279D01*
X84561047Y-133464756D01*
X84721988Y-133853302D01*
X84955637Y-134202983D01*
X85253017Y-134500363D01*
X85602698Y-134734012D01*
X85991244Y-134894953D01*
X86403721Y-134977000D01*
X86824279Y-134977000D01*
X87236756Y-134894953D01*
X87625302Y-134734012D01*
X87974983Y-134500363D01*
X88272363Y-134202983D01*
X88506012Y-133853302D01*
X88666953Y-133464756D01*
X88749000Y-133052279D01*
X88749000Y-132631721D01*
X88734216Y-132557394D01*
X89458800Y-132557394D01*
X89458800Y-132872606D01*
X89520294Y-133181761D01*
X89640921Y-133472979D01*
X89816043Y-133735068D01*
X90038932Y-133957957D01*
X90079405Y-133985000D01*
X90038932Y-134012043D01*
X89816043Y-134234932D01*
X89640921Y-134497021D01*
X89520294Y-134788239D01*
X89458800Y-135097394D01*
X89458800Y-135412606D01*
X89520294Y-135721761D01*
X89640921Y-136012979D01*
X89816043Y-136275068D01*
X90038932Y-136497957D01*
X90079405Y-136525000D01*
X90038932Y-136552043D01*
X89816043Y-136774932D01*
X89640921Y-137037021D01*
X89520294Y-137328239D01*
X89458800Y-137637394D01*
X89458800Y-137952606D01*
X89520294Y-138261761D01*
X89640921Y-138552979D01*
X89816043Y-138815068D01*
X90038932Y-139037957D01*
X90079405Y-139065000D01*
X90038932Y-139092043D01*
X89816043Y-139314932D01*
X89640921Y-139577021D01*
X89520294Y-139868239D01*
X89458800Y-140177394D01*
X89458800Y-140492606D01*
X89520294Y-140801761D01*
X89640921Y-141092979D01*
X89816043Y-141355068D01*
X90038932Y-141577957D01*
X90079405Y-141605000D01*
X90038932Y-141632043D01*
X89816043Y-141854932D01*
X89640921Y-142117021D01*
X89520294Y-142408239D01*
X89458800Y-142717394D01*
X89458800Y-143032606D01*
X89520294Y-143341761D01*
X89640921Y-143632979D01*
X89816043Y-143895068D01*
X90038932Y-144117957D01*
X90301021Y-144293079D01*
X90592239Y-144413706D01*
X90901394Y-144475200D01*
X91216606Y-144475200D01*
X91525761Y-144413706D01*
X91816979Y-144293079D01*
X92079068Y-144117957D01*
X92301957Y-143895068D01*
X92477079Y-143632979D01*
X92597706Y-143341761D01*
X92659200Y-143032606D01*
X92659200Y-142717394D01*
X112318800Y-142717394D01*
X112318800Y-143032606D01*
X112380294Y-143341761D01*
X112500921Y-143632979D01*
X112676043Y-143895068D01*
X112898932Y-144117957D01*
X113161021Y-144293079D01*
X113452239Y-144413706D01*
X113761394Y-144475200D01*
X114076606Y-144475200D01*
X114385761Y-144413706D01*
X114676979Y-144293079D01*
X114939068Y-144117957D01*
X115161957Y-143895068D01*
X115337079Y-143632979D01*
X115457706Y-143341761D01*
X115519200Y-143032606D01*
X115519200Y-142717394D01*
X115457706Y-142408239D01*
X115337079Y-142117021D01*
X115161957Y-141854932D01*
X114939068Y-141632043D01*
X114813899Y-141548408D01*
X114849989Y-141445594D01*
X113919000Y-140514605D01*
X112988011Y-141445594D01*
X113024101Y-141548408D01*
X112898932Y-141632043D01*
X112676043Y-141854932D01*
X112500921Y-142117021D01*
X112380294Y-142408239D01*
X112318800Y-142717394D01*
X92659200Y-142717394D01*
X92597706Y-142408239D01*
X92477079Y-142117021D01*
X92301957Y-141854932D01*
X92079068Y-141632043D01*
X92038595Y-141605000D01*
X92079068Y-141577957D01*
X92301957Y-141355068D01*
X92477079Y-141092979D01*
X92597706Y-140801761D01*
X92659200Y-140492606D01*
X92659200Y-140398971D01*
X112312330Y-140398971D01*
X112355682Y-140711188D01*
X112459112Y-141008948D01*
X112547562Y-141174428D01*
X112808406Y-141265989D01*
X113739395Y-140335000D01*
X114098605Y-140335000D01*
X115029594Y-141265989D01*
X115290438Y-141174428D01*
X115427851Y-140890744D01*
X115507279Y-140585704D01*
X115525670Y-140271029D01*
X115482318Y-139958812D01*
X115378888Y-139661052D01*
X115290438Y-139495572D01*
X115029594Y-139404011D01*
X114098605Y-140335000D01*
X113739395Y-140335000D01*
X112808406Y-139404011D01*
X112547562Y-139495572D01*
X112410149Y-139779256D01*
X112330721Y-140084296D01*
X112312330Y-140398971D01*
X92659200Y-140398971D01*
X92659200Y-140177394D01*
X92597706Y-139868239D01*
X92477079Y-139577021D01*
X92301957Y-139314932D01*
X92079068Y-139092043D01*
X92038595Y-139065000D01*
X92079068Y-139037957D01*
X92301957Y-138815068D01*
X92477079Y-138552979D01*
X92597706Y-138261761D01*
X92659200Y-137952606D01*
X92659200Y-137637394D01*
X92597706Y-137328239D01*
X92477079Y-137037021D01*
X92301957Y-136774932D01*
X92079068Y-136552043D01*
X92038595Y-136525000D01*
X92079068Y-136497957D01*
X92301957Y-136275068D01*
X92477079Y-136012979D01*
X92597706Y-135721761D01*
X92659200Y-135412606D01*
X92659200Y-135097394D01*
X92597706Y-134788239D01*
X92477079Y-134497021D01*
X92301957Y-134234932D01*
X92079068Y-134012043D01*
X92038595Y-133985000D01*
X92079068Y-133957957D01*
X92301957Y-133735068D01*
X92477079Y-133472979D01*
X92597706Y-133181761D01*
X92659200Y-132872606D01*
X92659200Y-132557394D01*
X92597706Y-132248239D01*
X92477079Y-131957021D01*
X92301957Y-131694932D01*
X92079068Y-131472043D01*
X91953899Y-131388408D01*
X91989989Y-131285594D01*
X91059000Y-130354605D01*
X90128011Y-131285594D01*
X90164101Y-131388408D01*
X90038932Y-131472043D01*
X89816043Y-131694932D01*
X89640921Y-131957021D01*
X89520294Y-132248239D01*
X89458800Y-132557394D01*
X88734216Y-132557394D01*
X88666953Y-132219244D01*
X88506012Y-131830698D01*
X88272363Y-131481017D01*
X87974983Y-131183637D01*
X87625302Y-130949988D01*
X87236756Y-130789047D01*
X86824279Y-130707000D01*
X86403721Y-130707000D01*
X85991244Y-130789047D01*
X85602698Y-130949988D01*
X85253017Y-131183637D01*
X84955637Y-131481017D01*
X84721988Y-131830698D01*
X84561047Y-132219244D01*
X84479000Y-132631721D01*
X83753000Y-132631721D01*
X83753000Y-130238971D01*
X89452330Y-130238971D01*
X89495682Y-130551188D01*
X89599112Y-130848948D01*
X89687562Y-131014428D01*
X89948406Y-131105989D01*
X90879395Y-130175000D01*
X91238605Y-130175000D01*
X92169594Y-131105989D01*
X92430438Y-131014428D01*
X92567851Y-130730744D01*
X92647279Y-130425704D01*
X92665670Y-130111029D01*
X92622318Y-129798812D01*
X92518888Y-129501052D01*
X92430438Y-129335572D01*
X92169594Y-129244011D01*
X91238605Y-130175000D01*
X90879395Y-130175000D01*
X89948406Y-129244011D01*
X89687562Y-129335572D01*
X89550149Y-129619256D01*
X89470721Y-129924296D01*
X89452330Y-130238971D01*
X83753000Y-130238971D01*
X83753000Y-115316000D01*
X89503235Y-115316000D01*
X89520294Y-115401761D01*
G37*
X89520294Y-115401761D02*
X89640921Y-115692979D01*
X89816043Y-115955068D01*
X90038932Y-116177957D01*
X90079405Y-116205000D01*
X90038932Y-116232043D01*
X89816043Y-116454932D01*
X89640921Y-116717021D01*
X89520294Y-117008239D01*
X89458800Y-117317394D01*
X89458800Y-117632606D01*
X89520294Y-117941761D01*
X89640921Y-118232979D01*
X89816043Y-118495068D01*
X90038932Y-118717957D01*
X90079405Y-118745000D01*
X90038932Y-118772043D01*
X89816043Y-118994932D01*
X89640921Y-119257021D01*
X89520294Y-119548239D01*
X89458800Y-119857394D01*
X89458800Y-120172606D01*
X89520294Y-120481761D01*
X89640921Y-120772979D01*
X89816043Y-121035068D01*
X90038932Y-121257957D01*
X90079405Y-121285000D01*
X90038932Y-121312043D01*
X89816043Y-121534932D01*
X89640921Y-121797021D01*
X89520294Y-122088239D01*
X89458800Y-122397394D01*
X89458800Y-122712606D01*
X89520294Y-123021761D01*
X89640921Y-123312979D01*
X89816043Y-123575068D01*
X90038932Y-123797957D01*
X90079405Y-123825000D01*
X90038932Y-123852043D01*
X89816043Y-124074932D01*
X89640921Y-124337021D01*
X89520294Y-124628239D01*
X89458800Y-124937394D01*
X89458800Y-125252606D01*
X89520294Y-125561761D01*
X89640921Y-125852979D01*
X89816043Y-126115068D01*
X90038932Y-126337957D01*
X90079405Y-126365000D01*
X90038932Y-126392043D01*
X89816043Y-126614932D01*
X89640921Y-126877021D01*
X89520294Y-127168239D01*
X89458800Y-127477394D01*
X89458800Y-127792606D01*
X89520294Y-128101761D01*
X89640921Y-128392979D01*
X89816043Y-128655068D01*
X90038932Y-128877957D01*
X90164101Y-128961592D01*
X90128011Y-129064406D01*
X91059000Y-129995395D01*
X91989989Y-129064406D01*
X91953899Y-128961592D01*
X92079068Y-128877957D01*
X92301957Y-128655068D01*
X92477079Y-128392979D01*
X92597706Y-128101761D01*
X92659200Y-127792606D01*
X92659200Y-127477394D01*
X92597706Y-127168239D01*
X92477079Y-126877021D01*
X92301957Y-126614932D01*
X92079068Y-126392043D01*
X92038595Y-126365000D01*
X92079068Y-126337957D01*
X92301957Y-126115068D01*
X92477079Y-125852979D01*
X92597706Y-125561761D01*
X92659200Y-125252606D01*
X92659200Y-124937394D01*
X92597706Y-124628239D01*
X92477079Y-124337021D01*
X92301957Y-124074932D01*
X92079068Y-123852043D01*
X92038595Y-123825000D01*
X92079068Y-123797957D01*
X92301957Y-123575068D01*
X92477079Y-123312979D01*
X92597706Y-123021761D01*
X92659200Y-122712606D01*
X92659200Y-122618971D01*
X112312330Y-122618971D01*
X112355682Y-122931188D01*
X112459112Y-123228948D01*
X112547562Y-123394428D01*
X112808406Y-123485989D01*
X113739395Y-122555000D01*
X112808406Y-121624011D01*
X112547562Y-121715572D01*
X112410149Y-121999256D01*
X112330721Y-122304296D01*
X112312330Y-122618971D01*
X92659200Y-122618971D01*
X92659200Y-122397394D01*
X92597706Y-122088239D01*
X92477079Y-121797021D01*
X92301957Y-121534932D01*
X92079068Y-121312043D01*
X92038595Y-121285000D01*
X92079068Y-121257957D01*
X92301957Y-121035068D01*
X92477079Y-120772979D01*
X92597706Y-120481761D01*
X92659200Y-120172606D01*
X92659200Y-119857394D01*
X92597706Y-119548239D01*
X92477079Y-119257021D01*
X92301957Y-118994932D01*
X92079068Y-118772043D01*
X92038595Y-118745000D01*
X92079068Y-118717957D01*
X92301957Y-118495068D01*
X92477079Y-118232979D01*
X92597706Y-117941761D01*
X92659200Y-117632606D01*
X92659200Y-117317394D01*
X92597706Y-117008239D01*
X92477079Y-116717021D01*
X92301957Y-116454932D01*
X92079068Y-116232043D01*
X92038595Y-116205000D01*
X92079068Y-116177957D01*
X92301957Y-115955068D01*
X92477079Y-115692979D01*
X92597706Y-115401761D01*
X92614765Y-115316000D01*
X112363235Y-115316000D01*
X112380294Y-115401761D01*
X112500921Y-115692979D01*
X112676043Y-115955068D01*
X112898932Y-116177957D01*
X112939405Y-116205000D01*
X112898932Y-116232043D01*
X112676043Y-116454932D01*
X112500921Y-116717021D01*
X112380294Y-117008239D01*
X112318800Y-117317394D01*
X112318800Y-117632606D01*
X112380294Y-117941761D01*
X112500921Y-118232979D01*
X112676043Y-118495068D01*
X112898932Y-118717957D01*
X112939405Y-118745000D01*
X112898932Y-118772043D01*
X112676043Y-118994932D01*
X112500921Y-119257021D01*
X112380294Y-119548239D01*
X112318800Y-119857394D01*
X112318800Y-120172606D01*
X112380294Y-120481761D01*
X112500921Y-120772979D01*
X112676043Y-121035068D01*
X112898932Y-121257957D01*
X113024101Y-121341592D01*
X112988011Y-121444406D01*
X113792000Y-122248395D01*
X113792000Y-122682000D01*
X113794440Y-122706776D01*
X113801667Y-122730601D01*
X113813403Y-122752557D01*
X113829197Y-122771803D01*
X113848443Y-122787597D01*
X113859890Y-122793715D01*
X112988011Y-123665594D01*
X113024101Y-123768408D01*
X112898932Y-123852043D01*
X112676043Y-124074932D01*
X112500921Y-124337021D01*
X112380294Y-124628239D01*
X112318800Y-124937394D01*
X112318800Y-125252606D01*
X112380294Y-125561761D01*
X112500921Y-125852979D01*
X112676043Y-126115068D01*
X112898932Y-126337957D01*
X112939405Y-126365000D01*
X112898932Y-126392043D01*
X112676043Y-126614932D01*
X112500921Y-126877021D01*
X112380294Y-127168239D01*
X112318800Y-127477394D01*
X112318800Y-127792606D01*
X112380294Y-128101761D01*
X112500921Y-128392979D01*
X112676043Y-128655068D01*
X112898932Y-128877957D01*
X112939405Y-128905000D01*
X112898932Y-128932043D01*
X112676043Y-129154932D01*
X112500921Y-129417021D01*
X112380294Y-129708239D01*
X112318800Y-130017394D01*
X112318800Y-130332606D01*
X112380294Y-130641761D01*
X112500921Y-130932979D01*
X112676043Y-131195068D01*
X112898932Y-131417957D01*
X112939405Y-131445000D01*
X112898932Y-131472043D01*
X112676043Y-131694932D01*
X112500921Y-131957021D01*
X112380294Y-132248239D01*
X112318800Y-132557394D01*
X112318800Y-132872606D01*
X112380294Y-133181761D01*
X112500921Y-133472979D01*
X112676043Y-133735068D01*
X112898932Y-133957957D01*
X112939405Y-133985000D01*
X112898932Y-134012043D01*
X112676043Y-134234932D01*
X112500921Y-134497021D01*
X112380294Y-134788239D01*
X112318800Y-135097394D01*
X112318800Y-135412606D01*
X112380294Y-135721761D01*
X112500921Y-136012979D01*
X112676043Y-136275068D01*
X112898932Y-136497957D01*
X112939405Y-136525000D01*
X112898932Y-136552043D01*
X112676043Y-136774932D01*
X112500921Y-137037021D01*
X112380294Y-137328239D01*
X112318800Y-137637394D01*
X112318800Y-137952606D01*
X112380294Y-138261761D01*
X112500921Y-138552979D01*
X112676043Y-138815068D01*
X112898932Y-139037957D01*
X113024101Y-139121592D01*
X112988011Y-139224406D01*
X113919000Y-140155395D01*
X114849989Y-139224406D01*
X114813899Y-139121592D01*
X114939068Y-139037957D01*
X115161957Y-138815068D01*
X115337079Y-138552979D01*
X115457706Y-138261761D01*
X115519200Y-137952606D01*
X115519200Y-137637394D01*
X115457706Y-137328239D01*
X115337079Y-137037021D01*
X115161957Y-136774932D01*
X114939068Y-136552043D01*
X114898595Y-136525000D01*
X114939068Y-136497957D01*
X115161957Y-136275068D01*
X115337079Y-136012979D01*
X115457706Y-135721761D01*
X115519200Y-135412606D01*
X115519200Y-135097394D01*
X115457706Y-134788239D01*
X115337079Y-134497021D01*
X115161957Y-134234932D01*
X114939068Y-134012043D01*
X114898595Y-133985000D01*
X114939068Y-133957957D01*
X115161957Y-133735068D01*
X115337079Y-133472979D01*
X115457706Y-133181761D01*
X115519200Y-132872606D01*
X115519200Y-132557394D01*
X115457706Y-132248239D01*
X115337079Y-131957021D01*
X115161957Y-131694932D01*
X114939068Y-131472043D01*
X114898595Y-131445000D01*
X114939068Y-131417957D01*
X115161957Y-131195068D01*
X115337079Y-130932979D01*
X115457706Y-130641761D01*
X115519200Y-130332606D01*
X115519200Y-130028740D01*
X118022000Y-130028740D01*
X118022000Y-130321260D01*
X118079068Y-130608158D01*
X118191010Y-130878411D01*
X118353525Y-131121632D01*
X118560368Y-131328475D01*
X118734760Y-131445000D01*
X118560368Y-131561525D01*
X118353525Y-131768368D01*
X118191010Y-132011589D01*
X118079068Y-132281842D01*
X118022000Y-132568740D01*
X118022000Y-132861260D01*
X118079068Y-133148158D01*
X118191010Y-133418411D01*
X118353525Y-133661632D01*
X118560368Y-133868475D01*
X118734760Y-133985000D01*
X118560368Y-134101525D01*
X118353525Y-134308368D01*
X118191010Y-134551589D01*
X118079068Y-134821842D01*
X118022000Y-135108740D01*
X118022000Y-135401260D01*
X118079068Y-135688158D01*
X118191010Y-135958411D01*
X118353525Y-136201632D01*
X118560368Y-136408475D01*
X118734760Y-136525000D01*
X118560368Y-136641525D01*
X118353525Y-136848368D01*
X118191010Y-137091589D01*
X118079068Y-137361842D01*
X118022000Y-137648740D01*
X118022000Y-137941260D01*
X118079068Y-138228158D01*
X118191010Y-138498411D01*
X118353525Y-138741632D01*
X118560368Y-138948475D01*
X118803589Y-139110990D01*
X119073842Y-139222932D01*
X119360740Y-139280000D01*
X119653260Y-139280000D01*
X119940158Y-139222932D01*
X120210411Y-139110990D01*
X120453632Y-138948475D01*
X120585487Y-138816620D01*
X120607498Y-138889180D01*
X120666463Y-138999494D01*
X120745815Y-139096185D01*
X120842506Y-139175537D01*
X120952820Y-139234502D01*
X121072518Y-139270812D01*
X121197000Y-139283072D01*
X122897000Y-139283072D01*
X123021482Y-139270812D01*
X123141180Y-139234502D01*
X123251494Y-139175537D01*
X123348185Y-139096185D01*
X123427537Y-138999494D01*
X123486502Y-138889180D01*
X123522812Y-138769482D01*
X123535072Y-138645000D01*
X123535072Y-136945000D01*
X123522812Y-136820518D01*
X123486502Y-136700820D01*
X123427537Y-136590506D01*
X123348185Y-136493815D01*
X123251494Y-136414463D01*
X123141180Y-136355498D01*
X123068620Y-136333487D01*
X123200475Y-136201632D01*
X123362990Y-135958411D01*
X123474932Y-135688158D01*
X123532000Y-135401260D01*
X123532000Y-135108740D01*
X123474932Y-134821842D01*
X123362990Y-134551589D01*
X123200475Y-134308368D01*
X122993632Y-134101525D01*
X122811466Y-133979805D01*
X122928355Y-133910178D01*
X123144588Y-133715269D01*
X123318641Y-133481920D01*
X123443825Y-133219099D01*
X123488476Y-133071890D01*
X123367155Y-132842000D01*
X122174000Y-132842000D01*
X122174000Y-132862000D01*
X121920000Y-132862000D01*
X121920000Y-132842000D01*
X121900000Y-132842000D01*
X121900000Y-132588000D01*
X121920000Y-132588000D01*
X121920000Y-132568000D01*
X122174000Y-132568000D01*
X122174000Y-132588000D01*
X123367155Y-132588000D01*
X123488476Y-132358110D01*
X123443825Y-132210901D01*
X123318641Y-131948080D01*
X123144588Y-131714731D01*
X122928355Y-131519822D01*
X122811466Y-131450195D01*
X122993632Y-131328475D01*
X123200475Y-131121632D01*
X123362990Y-130878411D01*
X123474932Y-130608158D01*
X123532000Y-130321260D01*
X123532000Y-130028740D01*
X123474932Y-129741842D01*
X123362990Y-129471589D01*
X123200475Y-129228368D01*
X122993632Y-129021525D01*
X122750411Y-128859010D01*
X122480158Y-128747068D01*
X122193260Y-128690000D01*
X121900740Y-128690000D01*
X121613842Y-128747068D01*
X121343589Y-128859010D01*
X121100368Y-129021525D01*
X120893525Y-129228368D01*
X120777000Y-129402760D01*
X120660475Y-129228368D01*
X120453632Y-129021525D01*
X120210411Y-128859010D01*
X119940158Y-128747068D01*
X119653260Y-128690000D01*
X119360740Y-128690000D01*
X119073842Y-128747068D01*
X118803589Y-128859010D01*
X118560368Y-129021525D01*
X118353525Y-129228368D01*
X118191010Y-129471589D01*
X118079068Y-129741842D01*
X118022000Y-130028740D01*
X115519200Y-130028740D01*
X115519200Y-130017394D01*
X115457706Y-129708239D01*
X115337079Y-129417021D01*
X115161957Y-129154932D01*
X114939068Y-128932043D01*
X114898595Y-128905000D01*
X114939068Y-128877957D01*
X115161957Y-128655068D01*
X115337079Y-128392979D01*
X115457706Y-128101761D01*
X115519200Y-127792606D01*
X115519200Y-127477394D01*
X115457706Y-127168239D01*
X115337079Y-126877021D01*
X115161957Y-126614932D01*
X114939068Y-126392043D01*
X114898595Y-126365000D01*
X114939068Y-126337957D01*
X115161957Y-126115068D01*
X115337079Y-125852979D01*
X115457706Y-125561761D01*
X115519200Y-125252606D01*
X115519200Y-124937394D01*
X115457706Y-124628239D01*
X115337079Y-124337021D01*
X115161957Y-124074932D01*
X114939068Y-123852043D01*
X114813899Y-123768408D01*
X114849989Y-123665594D01*
X113993395Y-122809000D01*
X114352605Y-122809000D01*
X115029594Y-123485989D01*
X115290438Y-123394428D01*
X115427851Y-123110744D01*
X115506421Y-122809000D01*
X124654000Y-122809000D01*
X124654001Y-153127998D01*
X124637361Y-153297707D01*
X124597951Y-153428238D01*
X124533933Y-153548638D01*
X124447753Y-153654305D01*
X124342690Y-153741221D01*
X124222743Y-153806076D01*
X124092488Y-153846397D01*
X123925005Y-153864000D01*
X85123991Y-153864000D01*
X84830954Y-153835268D01*
X84581782Y-153760038D01*
X84351959Y-153637840D01*
X84150254Y-153473333D01*
X83984339Y-153272776D01*
X83860542Y-153043819D01*
X83783573Y-152795170D01*
X83753000Y-152504286D01*
X83753000Y-150749000D01*
X116699299Y-150749000D01*
X116726040Y-151020507D01*
X116805236Y-151281581D01*
X116933843Y-151522188D01*
X117106919Y-151733081D01*
X117317812Y-151906157D01*
X117558419Y-152034764D01*
X117819493Y-152113960D01*
X118022963Y-152134000D01*
X118959037Y-152134000D01*
X119162507Y-152113960D01*
X119423581Y-152034764D01*
X119664188Y-151906157D01*
X119875081Y-151733081D01*
X120048157Y-151522188D01*
X120176764Y-151281581D01*
X120255960Y-151020507D01*
X120282701Y-150749000D01*
X120255960Y-150477493D01*
X120176764Y-150216419D01*
X120048157Y-149975812D01*
X119875081Y-149764919D01*
X119664188Y-149591843D01*
X119448422Y-149476514D01*
X119538349Y-149439972D01*
X119766061Y-149290028D01*
X119960145Y-149098540D01*
X120113142Y-148872868D01*
X120219173Y-148621684D01*
X120233318Y-148550185D01*
X120110656Y-148336000D01*
X118618000Y-148336000D01*
X118618000Y-148356000D01*
X118364000Y-148356000D01*
X118364000Y-148336000D01*
X116871344Y-148336000D01*
X116748682Y-148550185D01*
X116762827Y-148621684D01*
X116868858Y-148872868D01*
X117021855Y-149098540D01*
X117215939Y-149290028D01*
X117443651Y-149439972D01*
X117533578Y-149476514D01*
X117317812Y-149591843D01*
X117106919Y-149764919D01*
X116933843Y-149975812D01*
X116805236Y-150216419D01*
X116726040Y-150477493D01*
X116699299Y-150749000D01*
X83753000Y-150749000D01*
X83753000Y-144919000D01*
X116702928Y-144919000D01*
X116702928Y-146419000D01*
X116715188Y-146543482D01*
X116751498Y-146663180D01*
X116810463Y-146773494D01*
X116889815Y-146870185D01*
X116986506Y-146949537D01*
X117096820Y-147008502D01*
X117216518Y-147044812D01*
X117325874Y-147055582D01*
X117215939Y-147127972D01*
X117021855Y-147319460D01*
X116868858Y-147545132D01*
X116762827Y-147796316D01*
X116748682Y-147867815D01*
X116871344Y-148082000D01*
X118364000Y-148082000D01*
X118364000Y-148062000D01*
X118618000Y-148062000D01*
X118618000Y-148082000D01*
X120110656Y-148082000D01*
X120233318Y-147867815D01*
X120219173Y-147796316D01*
X120113142Y-147545132D01*
X119960145Y-147319460D01*
X119766061Y-147127972D01*
X119656126Y-147055582D01*
X119765482Y-147044812D01*
X119885180Y-147008502D01*
X119995494Y-146949537D01*
X120092185Y-146870185D01*
X120171537Y-146773494D01*
X120230502Y-146663180D01*
X120266812Y-146543482D01*
X120279072Y-146419000D01*
X120279072Y-144919000D01*
X120266812Y-144794518D01*
X120230502Y-144674820D01*
X120171537Y-144564506D01*
X120092185Y-144467815D01*
X119995494Y-144388463D01*
X119885180Y-144329498D01*
X119765482Y-144293188D01*
X119641000Y-144280928D01*
X117341000Y-144280928D01*
X117216518Y-144293188D01*
X117096820Y-144329498D01*
X116986506Y-144388463D01*
X116889815Y-144467815D01*
X116810463Y-144564506D01*
X116751498Y-144674820D01*
X116715188Y-144794518D01*
X116702928Y-144919000D01*
X83753000Y-144919000D01*
X83753000Y-132631721D01*
X84479000Y-132631721D01*
X84479000Y-133052279D01*
X84561047Y-133464756D01*
X84721988Y-133853302D01*
X84955637Y-134202983D01*
X85253017Y-134500363D01*
X85602698Y-134734012D01*
X85991244Y-134894953D01*
X86403721Y-134977000D01*
X86824279Y-134977000D01*
X87236756Y-134894953D01*
X87625302Y-134734012D01*
X87974983Y-134500363D01*
X88272363Y-134202983D01*
X88506012Y-133853302D01*
X88666953Y-133464756D01*
X88749000Y-133052279D01*
X88749000Y-132631721D01*
X88734216Y-132557394D01*
X89458800Y-132557394D01*
X89458800Y-132872606D01*
X89520294Y-133181761D01*
X89640921Y-133472979D01*
X89816043Y-133735068D01*
X90038932Y-133957957D01*
X90079405Y-133985000D01*
X90038932Y-134012043D01*
X89816043Y-134234932D01*
X89640921Y-134497021D01*
X89520294Y-134788239D01*
X89458800Y-135097394D01*
X89458800Y-135412606D01*
X89520294Y-135721761D01*
X89640921Y-136012979D01*
X89816043Y-136275068D01*
X90038932Y-136497957D01*
X90079405Y-136525000D01*
X90038932Y-136552043D01*
X89816043Y-136774932D01*
X89640921Y-137037021D01*
X89520294Y-137328239D01*
X89458800Y-137637394D01*
X89458800Y-137952606D01*
X89520294Y-138261761D01*
X89640921Y-138552979D01*
X89816043Y-138815068D01*
X90038932Y-139037957D01*
X90079405Y-139065000D01*
X90038932Y-139092043D01*
X89816043Y-139314932D01*
X89640921Y-139577021D01*
X89520294Y-139868239D01*
X89458800Y-140177394D01*
X89458800Y-140492606D01*
X89520294Y-140801761D01*
X89640921Y-141092979D01*
X89816043Y-141355068D01*
X90038932Y-141577957D01*
X90079405Y-141605000D01*
X90038932Y-141632043D01*
X89816043Y-141854932D01*
X89640921Y-142117021D01*
X89520294Y-142408239D01*
X89458800Y-142717394D01*
X89458800Y-143032606D01*
X89520294Y-143341761D01*
X89640921Y-143632979D01*
X89816043Y-143895068D01*
X90038932Y-144117957D01*
X90301021Y-144293079D01*
X90592239Y-144413706D01*
X90901394Y-144475200D01*
X91216606Y-144475200D01*
X91525761Y-144413706D01*
X91816979Y-144293079D01*
X92079068Y-144117957D01*
X92301957Y-143895068D01*
X92477079Y-143632979D01*
X92597706Y-143341761D01*
X92659200Y-143032606D01*
X92659200Y-142717394D01*
X112318800Y-142717394D01*
X112318800Y-143032606D01*
X112380294Y-143341761D01*
X112500921Y-143632979D01*
X112676043Y-143895068D01*
X112898932Y-144117957D01*
X113161021Y-144293079D01*
X113452239Y-144413706D01*
X113761394Y-144475200D01*
X114076606Y-144475200D01*
X114385761Y-144413706D01*
X114676979Y-144293079D01*
X114939068Y-144117957D01*
X115161957Y-143895068D01*
X115337079Y-143632979D01*
X115457706Y-143341761D01*
X115519200Y-143032606D01*
X115519200Y-142717394D01*
X115457706Y-142408239D01*
X115337079Y-142117021D01*
X115161957Y-141854932D01*
X114939068Y-141632043D01*
X114813899Y-141548408D01*
X114849989Y-141445594D01*
X113919000Y-140514605D01*
X112988011Y-141445594D01*
X113024101Y-141548408D01*
X112898932Y-141632043D01*
X112676043Y-141854932D01*
X112500921Y-142117021D01*
X112380294Y-142408239D01*
X112318800Y-142717394D01*
X92659200Y-142717394D01*
X92597706Y-142408239D01*
X92477079Y-142117021D01*
X92301957Y-141854932D01*
X92079068Y-141632043D01*
X92038595Y-141605000D01*
X92079068Y-141577957D01*
X92301957Y-141355068D01*
X92477079Y-141092979D01*
X92597706Y-140801761D01*
X92659200Y-140492606D01*
X92659200Y-140398971D01*
X112312330Y-140398971D01*
X112355682Y-140711188D01*
X112459112Y-141008948D01*
X112547562Y-141174428D01*
X112808406Y-141265989D01*
X113739395Y-140335000D01*
X114098605Y-140335000D01*
X115029594Y-141265989D01*
X115290438Y-141174428D01*
X115427851Y-140890744D01*
X115507279Y-140585704D01*
X115525670Y-140271029D01*
X115482318Y-139958812D01*
X115378888Y-139661052D01*
X115290438Y-139495572D01*
X115029594Y-139404011D01*
X114098605Y-140335000D01*
X113739395Y-140335000D01*
X112808406Y-139404011D01*
X112547562Y-139495572D01*
X112410149Y-139779256D01*
X112330721Y-140084296D01*
X112312330Y-140398971D01*
X92659200Y-140398971D01*
X92659200Y-140177394D01*
X92597706Y-139868239D01*
X92477079Y-139577021D01*
X92301957Y-139314932D01*
X92079068Y-139092043D01*
X92038595Y-139065000D01*
X92079068Y-139037957D01*
X92301957Y-138815068D01*
X92477079Y-138552979D01*
X92597706Y-138261761D01*
X92659200Y-137952606D01*
X92659200Y-137637394D01*
X92597706Y-137328239D01*
X92477079Y-137037021D01*
X92301957Y-136774932D01*
X92079068Y-136552043D01*
X92038595Y-136525000D01*
X92079068Y-136497957D01*
X92301957Y-136275068D01*
X92477079Y-136012979D01*
X92597706Y-135721761D01*
X92659200Y-135412606D01*
X92659200Y-135097394D01*
X92597706Y-134788239D01*
X92477079Y-134497021D01*
X92301957Y-134234932D01*
X92079068Y-134012043D01*
X92038595Y-133985000D01*
X92079068Y-133957957D01*
X92301957Y-133735068D01*
X92477079Y-133472979D01*
X92597706Y-133181761D01*
X92659200Y-132872606D01*
X92659200Y-132557394D01*
X92597706Y-132248239D01*
X92477079Y-131957021D01*
X92301957Y-131694932D01*
X92079068Y-131472043D01*
X91953899Y-131388408D01*
X91989989Y-131285594D01*
X91059000Y-130354605D01*
X90128011Y-131285594D01*
X90164101Y-131388408D01*
X90038932Y-131472043D01*
X89816043Y-131694932D01*
X89640921Y-131957021D01*
X89520294Y-132248239D01*
X89458800Y-132557394D01*
X88734216Y-132557394D01*
X88666953Y-132219244D01*
X88506012Y-131830698D01*
X88272363Y-131481017D01*
X87974983Y-131183637D01*
X87625302Y-130949988D01*
X87236756Y-130789047D01*
X86824279Y-130707000D01*
X86403721Y-130707000D01*
X85991244Y-130789047D01*
X85602698Y-130949988D01*
X85253017Y-131183637D01*
X84955637Y-131481017D01*
X84721988Y-131830698D01*
X84561047Y-132219244D01*
X84479000Y-132631721D01*
X83753000Y-132631721D01*
X83753000Y-130238971D01*
X89452330Y-130238971D01*
X89495682Y-130551188D01*
X89599112Y-130848948D01*
X89687562Y-131014428D01*
X89948406Y-131105989D01*
X90879395Y-130175000D01*
X91238605Y-130175000D01*
X92169594Y-131105989D01*
X92430438Y-131014428D01*
X92567851Y-130730744D01*
X92647279Y-130425704D01*
X92665670Y-130111029D01*
X92622318Y-129798812D01*
X92518888Y-129501052D01*
X92430438Y-129335572D01*
X92169594Y-129244011D01*
X91238605Y-130175000D01*
X90879395Y-130175000D01*
X89948406Y-129244011D01*
X89687562Y-129335572D01*
X89550149Y-129619256D01*
X89470721Y-129924296D01*
X89452330Y-130238971D01*
X83753000Y-130238971D01*
X83753000Y-115316000D01*
X89503235Y-115316000D01*
X89520294Y-115401761D01*
G36*
X118000147Y-115353574D02*
G01*
X118108320Y-115614727D01*
X118265363Y-115849759D01*
X118465241Y-116049637D01*
X118700273Y-116206680D01*
X118711565Y-116211357D01*
X118642580Y-116243963D01*
X118416586Y-116411481D01*
X118227615Y-116619869D01*
X118082930Y-116861119D01*
X117988091Y-117125960D01*
X118109376Y-117348000D01*
X119253000Y-117348000D01*
X119253000Y-117328000D01*
X119507000Y-117328000D01*
X119507000Y-117348000D01*
X120650624Y-117348000D01*
X120771909Y-117125960D01*
X120677070Y-116861119D01*
X120532385Y-116619869D01*
X120343414Y-116411481D01*
X120117420Y-116243963D01*
X120048435Y-116211357D01*
X120059727Y-116206680D01*
X120294759Y-116049637D01*
X120494637Y-115849759D01*
X120651680Y-115614727D01*
X120759853Y-115353574D01*
X120767327Y-115316000D01*
X121802673Y-115316000D01*
X121810147Y-115353574D01*
X121918320Y-115614727D01*
X122075363Y-115849759D01*
X122275241Y-116049637D01*
X122510273Y-116206680D01*
X122521565Y-116211357D01*
X122452580Y-116243963D01*
X122226586Y-116411481D01*
X122037615Y-116619869D01*
X121892930Y-116861119D01*
X121798091Y-117125960D01*
X121919376Y-117348000D01*
X123063000Y-117348000D01*
X123063000Y-117328000D01*
X123317000Y-117328000D01*
X123317000Y-117348000D01*
X124460624Y-117348000D01*
X124581909Y-117125960D01*
X124487070Y-116861119D01*
X124342385Y-116619869D01*
X124153414Y-116411481D01*
X123927420Y-116243963D01*
X123858435Y-116211357D01*
X123869727Y-116206680D01*
X124104759Y-116049637D01*
X124304637Y-115849759D01*
X124461680Y-115614727D01*
X124569853Y-115353574D01*
X124577327Y-115316000D01*
X124654000Y-115316000D01*
X124654000Y-121158000D01*
X114838614Y-121158000D01*
X114849989Y-121125594D01*
X114046000Y-120321605D01*
X114046000Y-120015000D01*
X114098605Y-120015000D01*
X115029594Y-120945989D01*
X115290438Y-120854428D01*
X115427851Y-120570744D01*
X115507279Y-120265704D01*
X115525670Y-119951029D01*
X115482318Y-119638812D01*
X115378888Y-119341052D01*
X115290438Y-119175572D01*
X115029594Y-119084011D01*
X114098605Y-120015000D01*
X114046000Y-120015000D01*
X114046000Y-119708395D01*
X114849989Y-118904406D01*
X114813899Y-118801592D01*
X114939068Y-118717957D01*
X115161957Y-118495068D01*
X115337079Y-118232979D01*
X115457706Y-117941761D01*
X115481121Y-117824040D01*
X117988091Y-117824040D01*
X118082930Y-118088881D01*
X118227615Y-118330131D01*
X118416586Y-118538519D01*
X118642580Y-118706037D01*
X118896913Y-118826246D01*
X119030961Y-118866904D01*
X119253000Y-118744915D01*
X119253000Y-117602000D01*
X119507000Y-117602000D01*
X119507000Y-118744915D01*
X119729039Y-118866904D01*
X119863087Y-118826246D01*
X120117420Y-118706037D01*
X120343414Y-118538519D01*
X120532385Y-118330131D01*
X120677070Y-118088881D01*
X120771909Y-117824040D01*
X121798091Y-117824040D01*
X121892930Y-118088881D01*
X122037615Y-118330131D01*
X122226586Y-118538519D01*
X122452580Y-118706037D01*
X122706913Y-118826246D01*
X122840961Y-118866904D01*
X123063000Y-118744915D01*
X123063000Y-117602000D01*
X123317000Y-117602000D01*
X123317000Y-118744915D01*
X123539039Y-118866904D01*
X123673087Y-118826246D01*
X123927420Y-118706037D01*
X124153414Y-118538519D01*
X124342385Y-118330131D01*
X124487070Y-118088881D01*
X124581909Y-117824040D01*
X124460624Y-117602000D01*
X123317000Y-117602000D01*
X123063000Y-117602000D01*
X121919376Y-117602000D01*
X121798091Y-117824040D01*
X120771909Y-117824040D01*
X120650624Y-117602000D01*
X119507000Y-117602000D01*
X119253000Y-117602000D01*
X118109376Y-117602000D01*
X117988091Y-117824040D01*
X115481121Y-117824040D01*
X115519200Y-117632606D01*
X115519200Y-117317394D01*
X115457706Y-117008239D01*
X115337079Y-116717021D01*
X115161957Y-116454932D01*
X114939068Y-116232043D01*
X114898595Y-116205000D01*
X114939068Y-116177957D01*
X115161957Y-115955068D01*
X115337079Y-115692979D01*
X115457706Y-115401761D01*
X115474765Y-115316000D01*
X117992673Y-115316000D01*
X118000147Y-115353574D01*
G37*
X118000147Y-115353574D02*
X118108320Y-115614727D01*
X118265363Y-115849759D01*
X118465241Y-116049637D01*
X118700273Y-116206680D01*
X118711565Y-116211357D01*
X118642580Y-116243963D01*
X118416586Y-116411481D01*
X118227615Y-116619869D01*
X118082930Y-116861119D01*
X117988091Y-117125960D01*
X118109376Y-117348000D01*
X119253000Y-117348000D01*
X119253000Y-117328000D01*
X119507000Y-117328000D01*
X119507000Y-117348000D01*
X120650624Y-117348000D01*
X120771909Y-117125960D01*
X120677070Y-116861119D01*
X120532385Y-116619869D01*
X120343414Y-116411481D01*
X120117420Y-116243963D01*
X120048435Y-116211357D01*
X120059727Y-116206680D01*
X120294759Y-116049637D01*
X120494637Y-115849759D01*
X120651680Y-115614727D01*
X120759853Y-115353574D01*
X120767327Y-115316000D01*
X121802673Y-115316000D01*
X121810147Y-115353574D01*
X121918320Y-115614727D01*
X122075363Y-115849759D01*
X122275241Y-116049637D01*
X122510273Y-116206680D01*
X122521565Y-116211357D01*
X122452580Y-116243963D01*
X122226586Y-116411481D01*
X122037615Y-116619869D01*
X121892930Y-116861119D01*
X121798091Y-117125960D01*
X121919376Y-117348000D01*
X123063000Y-117348000D01*
X123063000Y-117328000D01*
X123317000Y-117328000D01*
X123317000Y-117348000D01*
X124460624Y-117348000D01*
X124581909Y-117125960D01*
X124487070Y-116861119D01*
X124342385Y-116619869D01*
X124153414Y-116411481D01*
X123927420Y-116243963D01*
X123858435Y-116211357D01*
X123869727Y-116206680D01*
X124104759Y-116049637D01*
X124304637Y-115849759D01*
X124461680Y-115614727D01*
X124569853Y-115353574D01*
X124577327Y-115316000D01*
X124654000Y-115316000D01*
X124654000Y-121158000D01*
X114838614Y-121158000D01*
X114849989Y-121125594D01*
X114046000Y-120321605D01*
X114046000Y-120015000D01*
X114098605Y-120015000D01*
X115029594Y-120945989D01*
X115290438Y-120854428D01*
X115427851Y-120570744D01*
X115507279Y-120265704D01*
X115525670Y-119951029D01*
X115482318Y-119638812D01*
X115378888Y-119341052D01*
X115290438Y-119175572D01*
X115029594Y-119084011D01*
X114098605Y-120015000D01*
X114046000Y-120015000D01*
X114046000Y-119708395D01*
X114849989Y-118904406D01*
X114813899Y-118801592D01*
X114939068Y-118717957D01*
X115161957Y-118495068D01*
X115337079Y-118232979D01*
X115457706Y-117941761D01*
X115481121Y-117824040D01*
X117988091Y-117824040D01*
X118082930Y-118088881D01*
X118227615Y-118330131D01*
X118416586Y-118538519D01*
X118642580Y-118706037D01*
X118896913Y-118826246D01*
X119030961Y-118866904D01*
X119253000Y-118744915D01*
X119253000Y-117602000D01*
X119507000Y-117602000D01*
X119507000Y-118744915D01*
X119729039Y-118866904D01*
X119863087Y-118826246D01*
X120117420Y-118706037D01*
X120343414Y-118538519D01*
X120532385Y-118330131D01*
X120677070Y-118088881D01*
X120771909Y-117824040D01*
X121798091Y-117824040D01*
X121892930Y-118088881D01*
X122037615Y-118330131D01*
X122226586Y-118538519D01*
X122452580Y-118706037D01*
X122706913Y-118826246D01*
X122840961Y-118866904D01*
X123063000Y-118744915D01*
X123063000Y-117602000D01*
X123317000Y-117602000D01*
X123317000Y-118744915D01*
X123539039Y-118866904D01*
X123673087Y-118826246D01*
X123927420Y-118706037D01*
X124153414Y-118538519D01*
X124342385Y-118330131D01*
X124487070Y-118088881D01*
X124581909Y-117824040D01*
X124460624Y-117602000D01*
X123317000Y-117602000D01*
X123063000Y-117602000D01*
X121919376Y-117602000D01*
X121798091Y-117824040D01*
X120771909Y-117824040D01*
X120650624Y-117602000D01*
X119507000Y-117602000D01*
X119253000Y-117602000D01*
X118109376Y-117602000D01*
X117988091Y-117824040D01*
X115481121Y-117824040D01*
X115519200Y-117632606D01*
X115519200Y-117317394D01*
X115457706Y-117008239D01*
X115337079Y-116717021D01*
X115161957Y-116454932D01*
X114939068Y-116232043D01*
X114898595Y-116205000D01*
X114939068Y-116177957D01*
X115161957Y-115955068D01*
X115337079Y-115692979D01*
X115457706Y-115401761D01*
X115474765Y-115316000D01*
X117992673Y-115316000D01*
X118000147Y-115353574D01*
M02*
