G04 #@! TF.GenerationSoftware,KiCad,Pcbnew,(5.1.5-0-10_14)*
G04 #@! TF.CreationDate,2020-04-05T09:28:29+02:00*
G04 #@! TF.ProjectId,ithowifi,6974686f-7769-4666-992e-6b696361645f,rev?*
G04 #@! TF.SameCoordinates,Original*
G04 #@! TF.FileFunction,Legend,Top*
G04 #@! TF.FilePolarity,Positive*
%FSLAX46Y46*%
G04 Gerber Fmt 4.6, Leading zero omitted, Abs format (unit mm)*
G04 Created by KiCad (PCBNEW (5.1.5-0-10_14)) date 2020-04-05 09:28:29*
%MOMM*%
%LPD*%
G04 APERTURE LIST*
%ADD10C,0.150000*%
%ADD11C,0.120000*%
G04 APERTURE END LIST*
D10*
X109259904Y-117927380D02*
X109259904Y-116927380D01*
X109498000Y-116927380D01*
X109640857Y-116975000D01*
X109736095Y-117070238D01*
X109783714Y-117165476D01*
X109831333Y-117355952D01*
X109831333Y-117498809D01*
X109783714Y-117689285D01*
X109736095Y-117784523D01*
X109640857Y-117879761D01*
X109498000Y-117927380D01*
X109259904Y-117927380D01*
X110212285Y-117022619D02*
X110259904Y-116975000D01*
X110355142Y-116927380D01*
X110593238Y-116927380D01*
X110688476Y-116975000D01*
X110736095Y-117022619D01*
X110783714Y-117117857D01*
X110783714Y-117213095D01*
X110736095Y-117355952D01*
X110164666Y-117927380D01*
X110783714Y-117927380D01*
X111974190Y-117546428D02*
X112736095Y-117546428D01*
X109259904Y-115387380D02*
X109259904Y-114387380D01*
X109498000Y-114387380D01*
X109640857Y-114435000D01*
X109736095Y-114530238D01*
X109783714Y-114625476D01*
X109831333Y-114815952D01*
X109831333Y-114958809D01*
X109783714Y-115149285D01*
X109736095Y-115244523D01*
X109640857Y-115339761D01*
X109498000Y-115387380D01*
X109259904Y-115387380D01*
X110783714Y-115387380D02*
X110212285Y-115387380D01*
X110498000Y-115387380D02*
X110498000Y-114387380D01*
X110402761Y-114530238D01*
X110307523Y-114625476D01*
X110212285Y-114673095D01*
X111974190Y-115006428D02*
X112736095Y-115006428D01*
X85741095Y-127706428D02*
X86503000Y-127706428D01*
X86122047Y-128087380D02*
X86122047Y-127325476D01*
X86883952Y-127087380D02*
X87503000Y-127087380D01*
X87169666Y-127468333D01*
X87312523Y-127468333D01*
X87407761Y-127515952D01*
X87455380Y-127563571D01*
X87503000Y-127658809D01*
X87503000Y-127896904D01*
X87455380Y-127992142D01*
X87407761Y-128039761D01*
X87312523Y-128087380D01*
X87026809Y-128087380D01*
X86931571Y-128039761D01*
X86883952Y-127992142D01*
X87788714Y-127087380D02*
X88122047Y-128087380D01*
X88455380Y-127087380D01*
X88693476Y-127087380D02*
X89312523Y-127087380D01*
X88979190Y-127468333D01*
X89122047Y-127468333D01*
X89217285Y-127515952D01*
X89264904Y-127563571D01*
X89312523Y-127658809D01*
X89312523Y-127896904D01*
X89264904Y-127992142D01*
X89217285Y-128039761D01*
X89122047Y-128087380D01*
X88836333Y-128087380D01*
X88741095Y-128039761D01*
X88693476Y-127992142D01*
X109585285Y-127833428D02*
X110347190Y-127833428D01*
X109966238Y-128214380D02*
X109966238Y-127452476D01*
X111299571Y-127214380D02*
X110823380Y-127214380D01*
X110775761Y-127690571D01*
X110823380Y-127642952D01*
X110918619Y-127595333D01*
X111156714Y-127595333D01*
X111251952Y-127642952D01*
X111299571Y-127690571D01*
X111347190Y-127785809D01*
X111347190Y-128023904D01*
X111299571Y-128119142D01*
X111251952Y-128166761D01*
X111156714Y-128214380D01*
X110918619Y-128214380D01*
X110823380Y-128166761D01*
X110775761Y-128119142D01*
X111632904Y-127214380D02*
X111966238Y-128214380D01*
X112299571Y-127214380D01*
X109490095Y-133866380D02*
X109156761Y-133390190D01*
X108918666Y-133866380D02*
X108918666Y-132866380D01*
X109299619Y-132866380D01*
X109394857Y-132914000D01*
X109442476Y-132961619D01*
X109490095Y-133056857D01*
X109490095Y-133199714D01*
X109442476Y-133294952D01*
X109394857Y-133342571D01*
X109299619Y-133390190D01*
X108918666Y-133390190D01*
X110442476Y-133866380D02*
X109871047Y-133866380D01*
X110156761Y-133866380D02*
X110156761Y-132866380D01*
X110061523Y-133009238D01*
X109966285Y-133104476D01*
X109871047Y-133152095D01*
X110871047Y-133485428D02*
X111632952Y-133485428D01*
X112680571Y-133866380D02*
X112347238Y-133390190D01*
X112109142Y-133866380D02*
X112109142Y-132866380D01*
X112490095Y-132866380D01*
X112585333Y-132914000D01*
X112632952Y-132961619D01*
X112680571Y-133056857D01*
X112680571Y-133199714D01*
X112632952Y-133294952D01*
X112585333Y-133342571D01*
X112490095Y-133390190D01*
X112109142Y-133390190D01*
X113537714Y-133199714D02*
X113537714Y-133866380D01*
X113299619Y-132818761D02*
X113061523Y-133533047D01*
X113680571Y-133533047D01*
X107585333Y-134849714D02*
X107585333Y-135516380D01*
X107347238Y-134468761D02*
X107109142Y-135183047D01*
X107728190Y-135183047D01*
X108109142Y-135421142D02*
X108156761Y-135468761D01*
X108109142Y-135516380D01*
X108061523Y-135468761D01*
X108109142Y-135421142D01*
X108109142Y-135516380D01*
X108490095Y-134516380D02*
X109156761Y-134516380D01*
X108728190Y-135516380D01*
X109537714Y-135516380D02*
X109537714Y-134516380D01*
X109632952Y-135135428D02*
X109918666Y-135516380D01*
X109918666Y-134849714D02*
X109537714Y-135230666D01*
X111109142Y-135135428D02*
X111871047Y-135135428D01*
X113632952Y-135516380D02*
X113061523Y-135516380D01*
X113347238Y-135516380D02*
X113347238Y-134516380D01*
X113252000Y-134659238D01*
X113156761Y-134754476D01*
X113061523Y-134802095D01*
X114252000Y-134516380D02*
X114347238Y-134516380D01*
X114442476Y-134564000D01*
X114490095Y-134611619D01*
X114537714Y-134706857D01*
X114585333Y-134897333D01*
X114585333Y-135135428D01*
X114537714Y-135325904D01*
X114490095Y-135421142D01*
X114442476Y-135468761D01*
X114347238Y-135516380D01*
X114252000Y-135516380D01*
X114156761Y-135468761D01*
X114109142Y-135421142D01*
X114061523Y-135325904D01*
X114013904Y-135135428D01*
X114013904Y-134897333D01*
X114061523Y-134706857D01*
X114109142Y-134611619D01*
X114156761Y-134564000D01*
X114252000Y-134516380D01*
X115013904Y-135516380D02*
X115013904Y-134516380D01*
X115109142Y-135135428D02*
X115394857Y-135516380D01*
X115394857Y-134849714D02*
X115013904Y-135230666D01*
X116800380Y-138945809D02*
X117800380Y-138612476D01*
X116800380Y-138279142D01*
X117800380Y-137945809D02*
X117133714Y-137945809D01*
X116800380Y-137945809D02*
X116848000Y-137993428D01*
X116895619Y-137945809D01*
X116848000Y-137898190D01*
X116800380Y-137945809D01*
X116895619Y-137945809D01*
X117133714Y-137469619D02*
X117800380Y-137469619D01*
X117228952Y-137469619D02*
X117181333Y-137422000D01*
X117133714Y-137326761D01*
X117133714Y-137183904D01*
X117181333Y-137088666D01*
X117276571Y-137041047D01*
X117800380Y-137041047D01*
X123706000Y-133730904D02*
X123658380Y-133826142D01*
X123658380Y-133969000D01*
X123706000Y-134111857D01*
X123801238Y-134207095D01*
X123896476Y-134254714D01*
X124086952Y-134302333D01*
X124229809Y-134302333D01*
X124420285Y-134254714D01*
X124515523Y-134207095D01*
X124610761Y-134111857D01*
X124658380Y-133969000D01*
X124658380Y-133873761D01*
X124610761Y-133730904D01*
X124563142Y-133683285D01*
X124229809Y-133683285D01*
X124229809Y-133873761D01*
X124658380Y-133254714D02*
X123658380Y-133254714D01*
X124658380Y-132683285D01*
X123658380Y-132683285D01*
X124658380Y-132207095D02*
X123658380Y-132207095D01*
X123658380Y-131969000D01*
X123706000Y-131826142D01*
X123801238Y-131730904D01*
X123896476Y-131683285D01*
X124086952Y-131635666D01*
X124229809Y-131635666D01*
X124420285Y-131683285D01*
X124515523Y-131730904D01*
X124610761Y-131826142D01*
X124658380Y-131969000D01*
X124658380Y-132207095D01*
X117752761Y-131111476D02*
X117800380Y-130968619D01*
X117800380Y-130730523D01*
X117752761Y-130635285D01*
X117705142Y-130587666D01*
X117609904Y-130540047D01*
X117514666Y-130540047D01*
X117419428Y-130587666D01*
X117371809Y-130635285D01*
X117324190Y-130730523D01*
X117276571Y-130921000D01*
X117228952Y-131016238D01*
X117181333Y-131063857D01*
X117086095Y-131111476D01*
X116990857Y-131111476D01*
X116895619Y-131063857D01*
X116848000Y-131016238D01*
X116800380Y-130921000D01*
X116800380Y-130682904D01*
X116848000Y-130540047D01*
X117705142Y-129540047D02*
X117752761Y-129587666D01*
X117800380Y-129730523D01*
X117800380Y-129825761D01*
X117752761Y-129968619D01*
X117657523Y-130063857D01*
X117562285Y-130111476D01*
X117371809Y-130159095D01*
X117228952Y-130159095D01*
X117038476Y-130111476D01*
X116943238Y-130063857D01*
X116848000Y-129968619D01*
X116800380Y-129825761D01*
X116800380Y-129730523D01*
X116848000Y-129587666D01*
X116895619Y-129540047D01*
X117800380Y-128635285D02*
X117800380Y-129111476D01*
X116800380Y-129111476D01*
X124610761Y-131135285D02*
X124658380Y-130992428D01*
X124658380Y-130754333D01*
X124610761Y-130659095D01*
X124563142Y-130611476D01*
X124467904Y-130563857D01*
X124372666Y-130563857D01*
X124277428Y-130611476D01*
X124229809Y-130659095D01*
X124182190Y-130754333D01*
X124134571Y-130944809D01*
X124086952Y-131040047D01*
X124039333Y-131087666D01*
X123944095Y-131135285D01*
X123848857Y-131135285D01*
X123753619Y-131087666D01*
X123706000Y-131040047D01*
X123658380Y-130944809D01*
X123658380Y-130706714D01*
X123706000Y-130563857D01*
X124658380Y-130135285D02*
X123658380Y-130135285D01*
X123658380Y-129897190D01*
X123706000Y-129754333D01*
X123801238Y-129659095D01*
X123896476Y-129611476D01*
X124086952Y-129563857D01*
X124229809Y-129563857D01*
X124420285Y-129611476D01*
X124515523Y-129659095D01*
X124610761Y-129754333D01*
X124658380Y-129897190D01*
X124658380Y-130135285D01*
X124372666Y-129182904D02*
X124372666Y-128706714D01*
X124658380Y-129278142D02*
X123658380Y-128944809D01*
X124658380Y-128611476D01*
D11*
X97373064Y-141203000D02*
X96168936Y-141203000D01*
X97373064Y-143023000D02*
X96168936Y-143023000D01*
X105406000Y-140978000D02*
X101521000Y-140978000D01*
X105406000Y-143248000D02*
X105406000Y-140978000D01*
X101521000Y-143248000D02*
X105406000Y-143248000D01*
X117962000Y-124873936D02*
X117962000Y-126078064D01*
X119782000Y-124873936D02*
X119782000Y-126078064D01*
X121391000Y-124873936D02*
X121391000Y-126078064D01*
X123211000Y-124873936D02*
X123211000Y-126078064D01*
X123185600Y-114710936D02*
X123185600Y-115915064D01*
X121365600Y-114710936D02*
X121365600Y-115915064D01*
X119782000Y-115915064D02*
X119782000Y-114710936D01*
X117962000Y-115915064D02*
X117962000Y-114710936D01*
X117104000Y-121664000D02*
X117104000Y-120204000D01*
X120264000Y-121664000D02*
X120264000Y-119504000D01*
X120264000Y-121664000D02*
X119334000Y-121664000D01*
X117104000Y-121664000D02*
X118034000Y-121664000D01*
X121102000Y-121664000D02*
X121102000Y-120204000D01*
X124262000Y-121664000D02*
X124262000Y-119504000D01*
X124262000Y-121664000D02*
X123332000Y-121664000D01*
X121102000Y-121664000D02*
X122032000Y-121664000D01*
X123753000Y-140829000D02*
X122513000Y-140829000D01*
X123753000Y-142069000D02*
X123753000Y-140829000D01*
X111792000Y-149689000D02*
X111792000Y-141069000D01*
X123513000Y-149689000D02*
X123513000Y-141069000D01*
X123513000Y-141069000D02*
X111792000Y-141069000D01*
X123513000Y-149689000D02*
X111792000Y-149689000D01*
D10*
X111379000Y-102235000D02*
X111379000Y-125095000D01*
X93599000Y-102235000D02*
X111379000Y-102235000D01*
X93599000Y-125095000D02*
X93599000Y-102235000D01*
X111379000Y-125095000D02*
X93599000Y-125095000D01*
X96139000Y-123825000D02*
X108839000Y-123825000D01*
X96139000Y-109855000D02*
X96139000Y-123825000D01*
X108839000Y-109855000D02*
X96139000Y-109855000D01*
X108839000Y-123825000D02*
X108839000Y-109855000D01*
X95651952Y-144385380D02*
X95318619Y-143909190D01*
X95080523Y-144385380D02*
X95080523Y-143385380D01*
X95461476Y-143385380D01*
X95556714Y-143433000D01*
X95604333Y-143480619D01*
X95651952Y-143575857D01*
X95651952Y-143718714D01*
X95604333Y-143813952D01*
X95556714Y-143861571D01*
X95461476Y-143909190D01*
X95080523Y-143909190D01*
X96604333Y-144385380D02*
X96032904Y-144385380D01*
X96318619Y-144385380D02*
X96318619Y-143385380D01*
X96223380Y-143528238D01*
X96128142Y-143623476D01*
X96032904Y-143671095D01*
X97223380Y-143385380D02*
X97318619Y-143385380D01*
X97413857Y-143433000D01*
X97461476Y-143480619D01*
X97509095Y-143575857D01*
X97556714Y-143766333D01*
X97556714Y-144004428D01*
X97509095Y-144194904D01*
X97461476Y-144290142D01*
X97413857Y-144337761D01*
X97318619Y-144385380D01*
X97223380Y-144385380D01*
X97128142Y-144337761D01*
X97080523Y-144290142D01*
X97032904Y-144194904D01*
X96985285Y-144004428D01*
X96985285Y-143766333D01*
X97032904Y-143575857D01*
X97080523Y-143480619D01*
X97128142Y-143433000D01*
X97223380Y-143385380D01*
X98175761Y-143385380D02*
X98271000Y-143385380D01*
X98366238Y-143433000D01*
X98413857Y-143480619D01*
X98461476Y-143575857D01*
X98509095Y-143766333D01*
X98509095Y-144004428D01*
X98461476Y-144194904D01*
X98413857Y-144290142D01*
X98366238Y-144337761D01*
X98271000Y-144385380D01*
X98175761Y-144385380D01*
X98080523Y-144337761D01*
X98032904Y-144290142D01*
X97985285Y-144194904D01*
X97937666Y-144004428D01*
X97937666Y-143766333D01*
X97985285Y-143575857D01*
X98032904Y-143480619D01*
X98080523Y-143433000D01*
X98175761Y-143385380D01*
X102478142Y-144385380D02*
X102001952Y-144385380D01*
X102001952Y-143385380D01*
X102811476Y-143861571D02*
X103144809Y-143861571D01*
X103287666Y-144385380D02*
X102811476Y-144385380D01*
X102811476Y-143385380D01*
X103287666Y-143385380D01*
X103716238Y-144385380D02*
X103716238Y-143385380D01*
X103954333Y-143385380D01*
X104097190Y-143433000D01*
X104192428Y-143528238D01*
X104240047Y-143623476D01*
X104287666Y-143813952D01*
X104287666Y-143956809D01*
X104240047Y-144147285D01*
X104192428Y-144242523D01*
X104097190Y-144337761D01*
X103954333Y-144385380D01*
X103716238Y-144385380D01*
X117715380Y-125642666D02*
X117239190Y-125976000D01*
X117715380Y-126214095D02*
X116715380Y-126214095D01*
X116715380Y-125833142D01*
X116763000Y-125737904D01*
X116810619Y-125690285D01*
X116905857Y-125642666D01*
X117048714Y-125642666D01*
X117143952Y-125690285D01*
X117191571Y-125737904D01*
X117239190Y-125833142D01*
X117239190Y-126214095D01*
X116715380Y-125309333D02*
X116715380Y-124690285D01*
X117096333Y-125023619D01*
X117096333Y-124880761D01*
X117143952Y-124785523D01*
X117191571Y-124737904D01*
X117286809Y-124690285D01*
X117524904Y-124690285D01*
X117620142Y-124737904D01*
X117667761Y-124785523D01*
X117715380Y-124880761D01*
X117715380Y-125166476D01*
X117667761Y-125261714D01*
X117620142Y-125309333D01*
X121144380Y-125642666D02*
X120668190Y-125976000D01*
X121144380Y-126214095D02*
X120144380Y-126214095D01*
X120144380Y-125833142D01*
X120192000Y-125737904D01*
X120239619Y-125690285D01*
X120334857Y-125642666D01*
X120477714Y-125642666D01*
X120572952Y-125690285D01*
X120620571Y-125737904D01*
X120668190Y-125833142D01*
X120668190Y-126214095D01*
X120477714Y-124785523D02*
X121144380Y-124785523D01*
X120096761Y-125023619D02*
X120811047Y-125261714D01*
X120811047Y-124642666D01*
X120975380Y-115479666D02*
X120499190Y-115813000D01*
X120975380Y-116051095D02*
X119975380Y-116051095D01*
X119975380Y-115670142D01*
X120023000Y-115574904D01*
X120070619Y-115527285D01*
X120165857Y-115479666D01*
X120308714Y-115479666D01*
X120403952Y-115527285D01*
X120451571Y-115574904D01*
X120499190Y-115670142D01*
X120499190Y-116051095D01*
X120070619Y-115098714D02*
X120023000Y-115051095D01*
X119975380Y-114955857D01*
X119975380Y-114717761D01*
X120023000Y-114622523D01*
X120070619Y-114574904D01*
X120165857Y-114527285D01*
X120261095Y-114527285D01*
X120403952Y-114574904D01*
X120975380Y-115146333D01*
X120975380Y-114527285D01*
X117504380Y-115479666D02*
X117028190Y-115813000D01*
X117504380Y-116051095D02*
X116504380Y-116051095D01*
X116504380Y-115670142D01*
X116552000Y-115574904D01*
X116599619Y-115527285D01*
X116694857Y-115479666D01*
X116837714Y-115479666D01*
X116932952Y-115527285D01*
X116980571Y-115574904D01*
X117028190Y-115670142D01*
X117028190Y-116051095D01*
X117504380Y-114527285D02*
X117504380Y-115098714D01*
X117504380Y-114813000D02*
X116504380Y-114813000D01*
X116647238Y-114908238D01*
X116742476Y-115003476D01*
X116790095Y-115098714D01*
X115752619Y-121594476D02*
X115705000Y-121546857D01*
X115657380Y-121451619D01*
X115657380Y-121213523D01*
X115705000Y-121118285D01*
X115752619Y-121070666D01*
X115847857Y-121023047D01*
X115943095Y-121023047D01*
X116085952Y-121070666D01*
X116657380Y-121642095D01*
X116657380Y-121023047D01*
X116657380Y-120689714D02*
X115990714Y-120165904D01*
X115990714Y-120689714D02*
X116657380Y-120165904D01*
X118213476Y-118546571D02*
X118356333Y-118594190D01*
X118403952Y-118641809D01*
X118451571Y-118737047D01*
X118451571Y-118879904D01*
X118403952Y-118975142D01*
X118356333Y-119022761D01*
X118261095Y-119070380D01*
X117880142Y-119070380D01*
X117880142Y-118070380D01*
X118213476Y-118070380D01*
X118308714Y-118118000D01*
X118356333Y-118165619D01*
X118403952Y-118260857D01*
X118403952Y-118356095D01*
X118356333Y-118451333D01*
X118308714Y-118498952D01*
X118213476Y-118546571D01*
X117880142Y-118546571D01*
X118832523Y-119022761D02*
X118975380Y-119070380D01*
X119213476Y-119070380D01*
X119308714Y-119022761D01*
X119356333Y-118975142D01*
X119403952Y-118879904D01*
X119403952Y-118784666D01*
X119356333Y-118689428D01*
X119308714Y-118641809D01*
X119213476Y-118594190D01*
X119023000Y-118546571D01*
X118927761Y-118498952D01*
X118880142Y-118451333D01*
X118832523Y-118356095D01*
X118832523Y-118260857D01*
X118880142Y-118165619D01*
X118927761Y-118118000D01*
X119023000Y-118070380D01*
X119261095Y-118070380D01*
X119403952Y-118118000D01*
X119784904Y-119022761D02*
X119927761Y-119070380D01*
X120165857Y-119070380D01*
X120261095Y-119022761D01*
X120308714Y-118975142D01*
X120356333Y-118879904D01*
X120356333Y-118784666D01*
X120308714Y-118689428D01*
X120261095Y-118641809D01*
X120165857Y-118594190D01*
X119975380Y-118546571D01*
X119880142Y-118498952D01*
X119832523Y-118451333D01*
X119784904Y-118356095D01*
X119784904Y-118260857D01*
X119832523Y-118165619D01*
X119880142Y-118118000D01*
X119975380Y-118070380D01*
X120213476Y-118070380D01*
X120356333Y-118118000D01*
X121308714Y-119070380D02*
X120737285Y-119070380D01*
X121023000Y-119070380D02*
X121023000Y-118070380D01*
X120927761Y-118213238D01*
X120832523Y-118308476D01*
X120737285Y-118356095D01*
X121642047Y-118070380D02*
X122261095Y-118070380D01*
X121927761Y-118451333D01*
X122070619Y-118451333D01*
X122165857Y-118498952D01*
X122213476Y-118546571D01*
X122261095Y-118641809D01*
X122261095Y-118879904D01*
X122213476Y-118975142D01*
X122165857Y-119022761D01*
X122070619Y-119070380D01*
X121784904Y-119070380D01*
X121689666Y-119022761D01*
X121642047Y-118975142D01*
X122832523Y-118498952D02*
X122737285Y-118451333D01*
X122689666Y-118403714D01*
X122642047Y-118308476D01*
X122642047Y-118260857D01*
X122689666Y-118165619D01*
X122737285Y-118118000D01*
X122832523Y-118070380D01*
X123023000Y-118070380D01*
X123118238Y-118118000D01*
X123165857Y-118165619D01*
X123213476Y-118260857D01*
X123213476Y-118308476D01*
X123165857Y-118403714D01*
X123118238Y-118451333D01*
X123023000Y-118498952D01*
X122832523Y-118498952D01*
X122737285Y-118546571D01*
X122689666Y-118594190D01*
X122642047Y-118689428D01*
X122642047Y-118879904D01*
X122689666Y-118975142D01*
X122737285Y-119022761D01*
X122832523Y-119070380D01*
X123023000Y-119070380D01*
X123118238Y-119022761D01*
X123165857Y-118975142D01*
X123213476Y-118879904D01*
X123213476Y-118689428D01*
X123165857Y-118594190D01*
X123118238Y-118546571D01*
X123023000Y-118498952D01*
X112887714Y-140787380D02*
X112554380Y-140311190D01*
X112316285Y-140787380D02*
X112316285Y-139787380D01*
X112697238Y-139787380D01*
X112792476Y-139835000D01*
X112840095Y-139882619D01*
X112887714Y-139977857D01*
X112887714Y-140120714D01*
X112840095Y-140215952D01*
X112792476Y-140263571D01*
X112697238Y-140311190D01*
X112316285Y-140311190D01*
X113316285Y-140406428D02*
X114078190Y-140406428D01*
X114459142Y-139787380D02*
X115125809Y-139787380D01*
X114697238Y-140787380D01*
X115649619Y-140215952D02*
X115554380Y-140168333D01*
X115506761Y-140120714D01*
X115459142Y-140025476D01*
X115459142Y-139977857D01*
X115506761Y-139882619D01*
X115554380Y-139835000D01*
X115649619Y-139787380D01*
X115840095Y-139787380D01*
X115935333Y-139835000D01*
X115982952Y-139882619D01*
X116030571Y-139977857D01*
X116030571Y-140025476D01*
X115982952Y-140120714D01*
X115935333Y-140168333D01*
X115840095Y-140215952D01*
X115649619Y-140215952D01*
X115554380Y-140263571D01*
X115506761Y-140311190D01*
X115459142Y-140406428D01*
X115459142Y-140596904D01*
X115506761Y-140692142D01*
X115554380Y-140739761D01*
X115649619Y-140787380D01*
X115840095Y-140787380D01*
X115935333Y-140739761D01*
X115982952Y-140692142D01*
X116030571Y-140596904D01*
X116030571Y-140406428D01*
X115982952Y-140311190D01*
X115935333Y-140263571D01*
X115840095Y-140215952D01*
X116459142Y-140263571D02*
X116792476Y-140263571D01*
X116935333Y-140787380D02*
X116459142Y-140787380D01*
X116459142Y-139787380D01*
X116935333Y-139787380D01*
X117840095Y-139787380D02*
X117363904Y-139787380D01*
X117316285Y-140263571D01*
X117363904Y-140215952D01*
X117459142Y-140168333D01*
X117697238Y-140168333D01*
X117792476Y-140215952D01*
X117840095Y-140263571D01*
X117887714Y-140358809D01*
X117887714Y-140596904D01*
X117840095Y-140692142D01*
X117792476Y-140739761D01*
X117697238Y-140787380D01*
X117459142Y-140787380D01*
X117363904Y-140739761D01*
X117316285Y-140692142D01*
X118316285Y-140692142D02*
X118363904Y-140739761D01*
X118316285Y-140787380D01*
X118268666Y-140739761D01*
X118316285Y-140692142D01*
X118316285Y-140787380D01*
X118982952Y-139787380D02*
X119078190Y-139787380D01*
X119173428Y-139835000D01*
X119221047Y-139882619D01*
X119268666Y-139977857D01*
X119316285Y-140168333D01*
X119316285Y-140406428D01*
X119268666Y-140596904D01*
X119221047Y-140692142D01*
X119173428Y-140739761D01*
X119078190Y-140787380D01*
X118982952Y-140787380D01*
X118887714Y-140739761D01*
X118840095Y-140692142D01*
X118792476Y-140596904D01*
X118744857Y-140406428D01*
X118744857Y-140168333D01*
X118792476Y-139977857D01*
X118840095Y-139882619D01*
X118887714Y-139835000D01*
X118982952Y-139787380D01*
X119744857Y-140406428D02*
X120506761Y-140406428D01*
X121506761Y-140787380D02*
X120935333Y-140787380D01*
X121221047Y-140787380D02*
X121221047Y-139787380D01*
X121125809Y-139930238D01*
X121030571Y-140025476D01*
X120935333Y-140073095D01*
X121935333Y-140692142D02*
X121982952Y-140739761D01*
X121935333Y-140787380D01*
X121887714Y-140739761D01*
X121935333Y-140692142D01*
X121935333Y-140787380D01*
X122935333Y-140787380D02*
X122363904Y-140787380D01*
X122649619Y-140787380D02*
X122649619Y-139787380D01*
X122554380Y-139930238D01*
X122459142Y-140025476D01*
X122363904Y-140073095D01*
X95631859Y-105926143D02*
X96346144Y-108926142D01*
X96917573Y-106783285D01*
X97489001Y-108926142D01*
X98203287Y-105926143D01*
X100489000Y-108783285D02*
X100203286Y-108926142D01*
X99631858Y-108926142D01*
X99346143Y-108783285D01*
X99203286Y-108497571D01*
X99203286Y-107354714D01*
X99346143Y-107069000D01*
X99631858Y-106926143D01*
X100203286Y-106926143D01*
X100489000Y-107069000D01*
X100631857Y-107354714D01*
X100631857Y-107640428D01*
X99203286Y-107926142D01*
X101917571Y-108926142D02*
X101917571Y-105926143D01*
X102917571Y-108068999D01*
X103917570Y-105926143D01*
X103917570Y-108926142D01*
X105774713Y-108926142D02*
X105488999Y-108783285D01*
X105346141Y-108640428D01*
X105203284Y-108354714D01*
X105203284Y-107497571D01*
X105346141Y-107211857D01*
X105488999Y-107069000D01*
X105774713Y-106926143D01*
X106203284Y-106926143D01*
X106488998Y-107069000D01*
X106631855Y-107211857D01*
X106774712Y-107497571D01*
X106774712Y-108354714D01*
X106631855Y-108640428D01*
X106488998Y-108783285D01*
X106203284Y-108926142D01*
X105774713Y-108926142D01*
X107917569Y-108783285D02*
X108203283Y-108926142D01*
X108774712Y-108926142D01*
X109060426Y-108783285D01*
X109203283Y-108497571D01*
X109203283Y-108354714D01*
X109060426Y-108068999D01*
X108774712Y-107926142D01*
X108346140Y-107926142D01*
X108060426Y-107783285D01*
X107917569Y-107497571D01*
X107917569Y-107354714D01*
X108060426Y-107069000D01*
X108346140Y-106926143D01*
X108774712Y-106926143D01*
X109060426Y-107069000D01*
M02*
