G04 #@! TF.GenerationSoftware,KiCad,Pcbnew,(5.1.5-0-10_14)*
G04 #@! TF.CreationDate,2020-04-05T09:28:29+02:00*
G04 #@! TF.ProjectId,ithowifi,6974686f-7769-4666-992e-6b696361645f,rev?*
G04 #@! TF.SameCoordinates,Original*
G04 #@! TF.FileFunction,Legend,Bot*
G04 #@! TF.FilePolarity,Positive*
%FSLAX46Y46*%
G04 Gerber Fmt 4.6, Leading zero omitted, Abs format (unit mm)*
G04 Created by KiCad (PCBNEW (5.1.5-0-10_14)) date 2020-04-05 09:28:29*
%MOMM*%
%LPD*%
G04 APERTURE LIST*
%ADD10C,0.200000*%
%ADD11C,0.120000*%
%ADD12C,0.150000*%
G04 APERTURE END LIST*
D10*
X99111571Y-108000000D02*
X97611571Y-108000000D01*
X98111571Y-108500000D02*
X98111571Y-109071428D01*
X97611571Y-108714285D02*
X98897285Y-108714285D01*
X99040142Y-108785714D01*
X99111571Y-108928571D01*
X99111571Y-109071428D01*
X99111571Y-109571428D02*
X97611571Y-109571428D01*
X99111571Y-110214285D02*
X98325857Y-110214285D01*
X98183000Y-110142857D01*
X98111571Y-110000000D01*
X98111571Y-109785714D01*
X98183000Y-109642857D01*
X98254428Y-109571428D01*
X99111571Y-111142857D02*
X99040142Y-111000000D01*
X98968714Y-110928571D01*
X98825857Y-110857142D01*
X98397285Y-110857142D01*
X98254428Y-110928571D01*
X98183000Y-111000000D01*
X98111571Y-111142857D01*
X98111571Y-111357142D01*
X98183000Y-111500000D01*
X98254428Y-111571428D01*
X98397285Y-111642857D01*
X98825857Y-111642857D01*
X98968714Y-111571428D01*
X99040142Y-111500000D01*
X99111571Y-111357142D01*
X99111571Y-111142857D01*
X98968714Y-114285714D02*
X99040142Y-114214285D01*
X99111571Y-114000000D01*
X99111571Y-113857142D01*
X99040142Y-113642857D01*
X98897285Y-113500000D01*
X98754428Y-113428571D01*
X98468714Y-113357142D01*
X98254428Y-113357142D01*
X97968714Y-113428571D01*
X97825857Y-113500000D01*
X97683000Y-113642857D01*
X97611571Y-113857142D01*
X97611571Y-114000000D01*
X97683000Y-114214285D01*
X97754428Y-114285714D01*
X97611571Y-114714285D02*
X99111571Y-115214285D01*
X97611571Y-115714285D01*
X98325857Y-116214285D02*
X98325857Y-116714285D01*
X99111571Y-116928571D02*
X99111571Y-116214285D01*
X97611571Y-116214285D01*
X97611571Y-116928571D01*
X98325857Y-118714285D02*
X98325857Y-119214285D01*
X99111571Y-119428571D02*
X99111571Y-118714285D01*
X97611571Y-118714285D01*
X97611571Y-119428571D01*
X99040142Y-120000000D02*
X99111571Y-120214285D01*
X99111571Y-120571428D01*
X99040142Y-120714285D01*
X98968714Y-120785714D01*
X98825857Y-120857142D01*
X98683000Y-120857142D01*
X98540142Y-120785714D01*
X98468714Y-120714285D01*
X98397285Y-120571428D01*
X98325857Y-120285714D01*
X98254428Y-120142857D01*
X98183000Y-120071428D01*
X98040142Y-120000000D01*
X97897285Y-120000000D01*
X97754428Y-120071428D01*
X97683000Y-120142857D01*
X97611571Y-120285714D01*
X97611571Y-120642857D01*
X97683000Y-120857142D01*
X99111571Y-121500000D02*
X97611571Y-121500000D01*
X97611571Y-122071428D01*
X97683000Y-122214285D01*
X97754428Y-122285714D01*
X97897285Y-122357142D01*
X98111571Y-122357142D01*
X98254428Y-122285714D01*
X98325857Y-122214285D01*
X98397285Y-122071428D01*
X98397285Y-121500000D01*
X97611571Y-124000000D02*
X99111571Y-124357142D01*
X98040142Y-124642857D01*
X99111571Y-124928571D01*
X97611571Y-125285714D01*
X99111571Y-125857142D02*
X98111571Y-125857142D01*
X97611571Y-125857142D02*
X97683000Y-125785714D01*
X97754428Y-125857142D01*
X97683000Y-125928571D01*
X97611571Y-125857142D01*
X97754428Y-125857142D01*
X98325857Y-127071428D02*
X98325857Y-126571428D01*
X99111571Y-126571428D02*
X97611571Y-126571428D01*
X97611571Y-127285714D01*
X99111571Y-127857142D02*
X98111571Y-127857142D01*
X97611571Y-127857142D02*
X97683000Y-127785714D01*
X97754428Y-127857142D01*
X97683000Y-127928571D01*
X97611571Y-127857142D01*
X97754428Y-127857142D01*
X98968714Y-130571428D02*
X99040142Y-130500000D01*
X99111571Y-130285714D01*
X99111571Y-130142857D01*
X99040142Y-129928571D01*
X98897285Y-129785714D01*
X98754428Y-129714285D01*
X98468714Y-129642857D01*
X98254428Y-129642857D01*
X97968714Y-129714285D01*
X97825857Y-129785714D01*
X97683000Y-129928571D01*
X97611571Y-130142857D01*
X97611571Y-130285714D01*
X97683000Y-130500000D01*
X97754428Y-130571428D01*
X99111571Y-131428571D02*
X99040142Y-131285714D01*
X98968714Y-131214285D01*
X98825857Y-131142857D01*
X98397285Y-131142857D01*
X98254428Y-131214285D01*
X98183000Y-131285714D01*
X98111571Y-131428571D01*
X98111571Y-131642857D01*
X98183000Y-131785714D01*
X98254428Y-131857142D01*
X98397285Y-131928571D01*
X98825857Y-131928571D01*
X98968714Y-131857142D01*
X99040142Y-131785714D01*
X99111571Y-131642857D01*
X99111571Y-131428571D01*
X98111571Y-132571428D02*
X99111571Y-132571428D01*
X98254428Y-132571428D02*
X98183000Y-132642857D01*
X98111571Y-132785714D01*
X98111571Y-133000000D01*
X98183000Y-133142857D01*
X98325857Y-133214285D01*
X99111571Y-133214285D01*
X98111571Y-133714285D02*
X98111571Y-134285714D01*
X97611571Y-133928571D02*
X98897285Y-133928571D01*
X99040142Y-134000000D01*
X99111571Y-134142857D01*
X99111571Y-134285714D01*
X99111571Y-134785714D02*
X98111571Y-134785714D01*
X98397285Y-134785714D02*
X98254428Y-134857142D01*
X98183000Y-134928571D01*
X98111571Y-135071428D01*
X98111571Y-135214285D01*
X99111571Y-135928571D02*
X99040142Y-135785714D01*
X98968714Y-135714285D01*
X98825857Y-135642857D01*
X98397285Y-135642857D01*
X98254428Y-135714285D01*
X98183000Y-135785714D01*
X98111571Y-135928571D01*
X98111571Y-136142857D01*
X98183000Y-136285714D01*
X98254428Y-136357142D01*
X98397285Y-136428571D01*
X98825857Y-136428571D01*
X98968714Y-136357142D01*
X99040142Y-136285714D01*
X99111571Y-136142857D01*
X99111571Y-135928571D01*
X99111571Y-137285714D02*
X99040142Y-137142857D01*
X98897285Y-137071428D01*
X97611571Y-137071428D01*
X99111571Y-138071428D02*
X99040142Y-137928571D01*
X98897285Y-137857142D01*
X97611571Y-137857142D01*
X99040142Y-139214285D02*
X99111571Y-139071428D01*
X99111571Y-138785714D01*
X99040142Y-138642857D01*
X98897285Y-138571428D01*
X98325857Y-138571428D01*
X98183000Y-138642857D01*
X98111571Y-138785714D01*
X98111571Y-139071428D01*
X98183000Y-139214285D01*
X98325857Y-139285714D01*
X98468714Y-139285714D01*
X98611571Y-138571428D01*
X99111571Y-139928571D02*
X98111571Y-139928571D01*
X98397285Y-139928571D02*
X98254428Y-140000000D01*
X98183000Y-140071428D01*
X98111571Y-140214285D01*
X98111571Y-140357142D01*
X98111571Y-141857142D02*
X99111571Y-142214285D01*
X98111571Y-142571428D01*
X99111571Y-143928571D02*
X99111571Y-143071428D01*
X99111571Y-143500000D02*
X97611571Y-143500000D01*
X97825857Y-143357142D01*
X97968714Y-143214285D01*
X98040142Y-143071428D01*
X98968714Y-144571428D02*
X99040142Y-144642857D01*
X99111571Y-144571428D01*
X99040142Y-144500000D01*
X98968714Y-144571428D01*
X99111571Y-144571428D01*
X99111571Y-146071428D02*
X99111571Y-145214285D01*
X99111571Y-145642857D02*
X97611571Y-145642857D01*
X97825857Y-145500000D01*
X97968714Y-145357142D01*
X98040142Y-145214285D01*
X101133000Y-118964285D02*
X101133000Y-119678571D01*
X101561571Y-118821428D02*
X100061571Y-119321428D01*
X101561571Y-119821428D01*
X101561571Y-120321428D02*
X100561571Y-120321428D01*
X100847285Y-120321428D02*
X100704428Y-120392857D01*
X100633000Y-120464285D01*
X100561571Y-120607142D01*
X100561571Y-120750000D01*
X100561571Y-121250000D02*
X101847285Y-121250000D01*
X101990142Y-121178571D01*
X102061571Y-121035714D01*
X102061571Y-120964285D01*
X100061571Y-121250000D02*
X100133000Y-121178571D01*
X100204428Y-121250000D01*
X100133000Y-121321428D01*
X100061571Y-121250000D01*
X100204428Y-121250000D01*
X101490142Y-122535714D02*
X101561571Y-122392857D01*
X101561571Y-122107142D01*
X101490142Y-121964285D01*
X101347285Y-121892857D01*
X100775857Y-121892857D01*
X100633000Y-121964285D01*
X100561571Y-122107142D01*
X100561571Y-122392857D01*
X100633000Y-122535714D01*
X100775857Y-122607142D01*
X100918714Y-122607142D01*
X101061571Y-121892857D01*
X100561571Y-123250000D02*
X101561571Y-123250000D01*
X100704428Y-123250000D02*
X100633000Y-123321428D01*
X100561571Y-123464285D01*
X100561571Y-123678571D01*
X100633000Y-123821428D01*
X100775857Y-123892857D01*
X101561571Y-123892857D01*
X101561571Y-125750000D02*
X100061571Y-125750000D01*
X100775857Y-125750000D02*
X100775857Y-126607142D01*
X101561571Y-126607142D02*
X100061571Y-126607142D01*
X101561571Y-127321428D02*
X100561571Y-127321428D01*
X100061571Y-127321428D02*
X100133000Y-127250000D01*
X100204428Y-127321428D01*
X100133000Y-127392857D01*
X100061571Y-127321428D01*
X100204428Y-127321428D01*
X101490142Y-128607142D02*
X101561571Y-128464285D01*
X101561571Y-128178571D01*
X101490142Y-128035714D01*
X101347285Y-127964285D01*
X100775857Y-127964285D01*
X100633000Y-128035714D01*
X100561571Y-128178571D01*
X100561571Y-128464285D01*
X100633000Y-128607142D01*
X100775857Y-128678571D01*
X100918714Y-128678571D01*
X101061571Y-127964285D01*
X101561571Y-129321428D02*
X100561571Y-129321428D01*
X100704428Y-129321428D02*
X100633000Y-129392857D01*
X100561571Y-129535714D01*
X100561571Y-129750000D01*
X100633000Y-129892857D01*
X100775857Y-129964285D01*
X101561571Y-129964285D01*
X100775857Y-129964285D02*
X100633000Y-130035714D01*
X100561571Y-130178571D01*
X100561571Y-130392857D01*
X100633000Y-130535714D01*
X100775857Y-130607142D01*
X101561571Y-130607142D01*
X101490142Y-131250000D02*
X101561571Y-131392857D01*
X101561571Y-131678571D01*
X101490142Y-131821428D01*
X101347285Y-131892857D01*
X101275857Y-131892857D01*
X101133000Y-131821428D01*
X101061571Y-131678571D01*
X101061571Y-131464285D01*
X100990142Y-131321428D01*
X100847285Y-131250000D01*
X100775857Y-131250000D01*
X100633000Y-131321428D01*
X100561571Y-131464285D01*
X100561571Y-131678571D01*
X100633000Y-131821428D01*
X100561571Y-132321428D02*
X100561571Y-132892857D01*
X100061571Y-132535714D02*
X101347285Y-132535714D01*
X101490142Y-132607142D01*
X101561571Y-132750000D01*
X101561571Y-132892857D01*
X101561571Y-133392857D02*
X100561571Y-133392857D01*
X100847285Y-133392857D02*
X100704428Y-133464285D01*
X100633000Y-133535714D01*
X100561571Y-133678571D01*
X100561571Y-133821428D01*
X101561571Y-134964285D02*
X100775857Y-134964285D01*
X100633000Y-134892857D01*
X100561571Y-134750000D01*
X100561571Y-134464285D01*
X100633000Y-134321428D01*
X101490142Y-134964285D02*
X101561571Y-134821428D01*
X101561571Y-134464285D01*
X101490142Y-134321428D01*
X101347285Y-134250000D01*
X101204428Y-134250000D01*
X101061571Y-134321428D01*
X100990142Y-134464285D01*
X100990142Y-134821428D01*
X100918714Y-134964285D01*
X102583000Y-109821428D02*
X102511571Y-109678571D01*
X102511571Y-109464285D01*
X102583000Y-109250000D01*
X102725857Y-109107142D01*
X102868714Y-109035714D01*
X103154428Y-108964285D01*
X103368714Y-108964285D01*
X103654428Y-109035714D01*
X103797285Y-109107142D01*
X103940142Y-109250000D01*
X104011571Y-109464285D01*
X104011571Y-109607142D01*
X103940142Y-109821428D01*
X103868714Y-109892857D01*
X103368714Y-109892857D01*
X103368714Y-109607142D01*
X104011571Y-110535714D02*
X102511571Y-110535714D01*
X104011571Y-111392857D01*
X102511571Y-111392857D01*
X102511571Y-112107142D02*
X103725857Y-112107142D01*
X103868714Y-112178571D01*
X103940142Y-112250000D01*
X104011571Y-112392857D01*
X104011571Y-112678571D01*
X103940142Y-112821428D01*
X103868714Y-112892857D01*
X103725857Y-112964285D01*
X102511571Y-112964285D01*
X102583000Y-115607142D02*
X102511571Y-115464285D01*
X102511571Y-115250000D01*
X102583000Y-115035714D01*
X102725857Y-114892857D01*
X102868714Y-114821428D01*
X103154428Y-114750000D01*
X103368714Y-114750000D01*
X103654428Y-114821428D01*
X103797285Y-114892857D01*
X103940142Y-115035714D01*
X104011571Y-115250000D01*
X104011571Y-115392857D01*
X103940142Y-115607142D01*
X103868714Y-115678571D01*
X103368714Y-115678571D01*
X103368714Y-115392857D01*
X103940142Y-116892857D02*
X104011571Y-116750000D01*
X104011571Y-116464285D01*
X103940142Y-116321428D01*
X103797285Y-116250000D01*
X103225857Y-116250000D01*
X103083000Y-116321428D01*
X103011571Y-116464285D01*
X103011571Y-116750000D01*
X103083000Y-116892857D01*
X103225857Y-116964285D01*
X103368714Y-116964285D01*
X103511571Y-116250000D01*
X103011571Y-117607142D02*
X104011571Y-117607142D01*
X103154428Y-117607142D02*
X103083000Y-117678571D01*
X103011571Y-117821428D01*
X103011571Y-118035714D01*
X103083000Y-118178571D01*
X103225857Y-118250000D01*
X104011571Y-118250000D01*
X103940142Y-119535714D02*
X104011571Y-119392857D01*
X104011571Y-119107142D01*
X103940142Y-118964285D01*
X103797285Y-118892857D01*
X103225857Y-118892857D01*
X103083000Y-118964285D01*
X103011571Y-119107142D01*
X103011571Y-119392857D01*
X103083000Y-119535714D01*
X103225857Y-119607142D01*
X103368714Y-119607142D01*
X103511571Y-118892857D01*
X104011571Y-120250000D02*
X103011571Y-120250000D01*
X103297285Y-120250000D02*
X103154428Y-120321428D01*
X103083000Y-120392857D01*
X103011571Y-120535714D01*
X103011571Y-120678571D01*
X104011571Y-121821428D02*
X103225857Y-121821428D01*
X103083000Y-121750000D01*
X103011571Y-121607142D01*
X103011571Y-121321428D01*
X103083000Y-121178571D01*
X103940142Y-121821428D02*
X104011571Y-121678571D01*
X104011571Y-121321428D01*
X103940142Y-121178571D01*
X103797285Y-121107142D01*
X103654428Y-121107142D01*
X103511571Y-121178571D01*
X103440142Y-121321428D01*
X103440142Y-121678571D01*
X103368714Y-121821428D01*
X104011571Y-122750000D02*
X103940142Y-122607142D01*
X103797285Y-122535714D01*
X102511571Y-122535714D01*
X104011571Y-124464285D02*
X102511571Y-124464285D01*
X102511571Y-125035714D01*
X102583000Y-125178571D01*
X102654428Y-125250000D01*
X102797285Y-125321428D01*
X103011571Y-125321428D01*
X103154428Y-125250000D01*
X103225857Y-125178571D01*
X103297285Y-125035714D01*
X103297285Y-124464285D01*
X103011571Y-126607142D02*
X104011571Y-126607142D01*
X103011571Y-125964285D02*
X103797285Y-125964285D01*
X103940142Y-126035714D01*
X104011571Y-126178571D01*
X104011571Y-126392857D01*
X103940142Y-126535714D01*
X103868714Y-126607142D01*
X104011571Y-127321428D02*
X102511571Y-127321428D01*
X103083000Y-127321428D02*
X103011571Y-127464285D01*
X103011571Y-127750000D01*
X103083000Y-127892857D01*
X103154428Y-127964285D01*
X103297285Y-128035714D01*
X103725857Y-128035714D01*
X103868714Y-127964285D01*
X103940142Y-127892857D01*
X104011571Y-127750000D01*
X104011571Y-127464285D01*
X103940142Y-127321428D01*
X104011571Y-128892857D02*
X103940142Y-128750000D01*
X103797285Y-128678571D01*
X102511571Y-128678571D01*
X104011571Y-129464285D02*
X103011571Y-129464285D01*
X102511571Y-129464285D02*
X102583000Y-129392857D01*
X102654428Y-129464285D01*
X102583000Y-129535714D01*
X102511571Y-129464285D01*
X102654428Y-129464285D01*
X103940142Y-130821428D02*
X104011571Y-130678571D01*
X104011571Y-130392857D01*
X103940142Y-130250000D01*
X103868714Y-130178571D01*
X103725857Y-130107142D01*
X103297285Y-130107142D01*
X103154428Y-130178571D01*
X103083000Y-130250000D01*
X103011571Y-130392857D01*
X103011571Y-130678571D01*
X103083000Y-130821428D01*
X104011571Y-133321428D02*
X104011571Y-132607142D01*
X102511571Y-132607142D01*
X104011571Y-133821428D02*
X103011571Y-133821428D01*
X102511571Y-133821428D02*
X102583000Y-133750000D01*
X102654428Y-133821428D01*
X102583000Y-133892857D01*
X102511571Y-133821428D01*
X102654428Y-133821428D01*
X103940142Y-135178571D02*
X104011571Y-135035714D01*
X104011571Y-134750000D01*
X103940142Y-134607142D01*
X103868714Y-134535714D01*
X103725857Y-134464285D01*
X103297285Y-134464285D01*
X103154428Y-134535714D01*
X103083000Y-134607142D01*
X103011571Y-134750000D01*
X103011571Y-135035714D01*
X103083000Y-135178571D01*
X103940142Y-136392857D02*
X104011571Y-136250000D01*
X104011571Y-135964285D01*
X103940142Y-135821428D01*
X103797285Y-135750000D01*
X103225857Y-135750000D01*
X103083000Y-135821428D01*
X103011571Y-135964285D01*
X103011571Y-136250000D01*
X103083000Y-136392857D01*
X103225857Y-136464285D01*
X103368714Y-136464285D01*
X103511571Y-135750000D01*
X103011571Y-137107142D02*
X104011571Y-137107142D01*
X103154428Y-137107142D02*
X103083000Y-137178571D01*
X103011571Y-137321428D01*
X103011571Y-137535714D01*
X103083000Y-137678571D01*
X103225857Y-137750000D01*
X104011571Y-137750000D01*
X103940142Y-138392857D02*
X104011571Y-138535714D01*
X104011571Y-138821428D01*
X103940142Y-138964285D01*
X103797285Y-139035714D01*
X103725857Y-139035714D01*
X103583000Y-138964285D01*
X103511571Y-138821428D01*
X103511571Y-138607142D01*
X103440142Y-138464285D01*
X103297285Y-138392857D01*
X103225857Y-138392857D01*
X103083000Y-138464285D01*
X103011571Y-138607142D01*
X103011571Y-138821428D01*
X103083000Y-138964285D01*
X103940142Y-140250000D02*
X104011571Y-140107142D01*
X104011571Y-139821428D01*
X103940142Y-139678571D01*
X103797285Y-139607142D01*
X103225857Y-139607142D01*
X103083000Y-139678571D01*
X103011571Y-139821428D01*
X103011571Y-140107142D01*
X103083000Y-140250000D01*
X103225857Y-140321428D01*
X103368714Y-140321428D01*
X103511571Y-139607142D01*
X102511571Y-141964285D02*
X102511571Y-142892857D01*
X103083000Y-142392857D01*
X103083000Y-142607142D01*
X103154428Y-142750000D01*
X103225857Y-142821428D01*
X103368714Y-142892857D01*
X103725857Y-142892857D01*
X103868714Y-142821428D01*
X103940142Y-142750000D01*
X104011571Y-142607142D01*
X104011571Y-142178571D01*
X103940142Y-142035714D01*
X103868714Y-141964285D01*
X103868714Y-143535714D02*
X103940142Y-143607142D01*
X104011571Y-143535714D01*
X103940142Y-143464285D01*
X103868714Y-143535714D01*
X104011571Y-143535714D01*
X102511571Y-144535714D02*
X102511571Y-144678571D01*
X102583000Y-144821428D01*
X102654428Y-144892857D01*
X102797285Y-144964285D01*
X103083000Y-145035714D01*
X103440142Y-145035714D01*
X103725857Y-144964285D01*
X103868714Y-144892857D01*
X103940142Y-144821428D01*
X104011571Y-144678571D01*
X104011571Y-144535714D01*
X103940142Y-144392857D01*
X103868714Y-144321428D01*
X103725857Y-144250000D01*
X103440142Y-144178571D01*
X103083000Y-144178571D01*
X102797285Y-144250000D01*
X102654428Y-144321428D01*
X102583000Y-144392857D01*
X102511571Y-144535714D01*
X105461571Y-108500000D02*
X106675857Y-108500000D01*
X106818714Y-108428571D01*
X106890142Y-108357142D01*
X106961571Y-108214285D01*
X106961571Y-108000000D01*
X106890142Y-107857142D01*
X106390142Y-108500000D02*
X106461571Y-108357142D01*
X106461571Y-108071428D01*
X106390142Y-107928571D01*
X106318714Y-107857142D01*
X106175857Y-107785714D01*
X105747285Y-107785714D01*
X105604428Y-107857142D01*
X105533000Y-107928571D01*
X105461571Y-108071428D01*
X105461571Y-108357142D01*
X105533000Y-108500000D01*
X106461571Y-109214285D02*
X105461571Y-109214285D01*
X104961571Y-109214285D02*
X105033000Y-109142857D01*
X105104428Y-109214285D01*
X105033000Y-109285714D01*
X104961571Y-109214285D01*
X105104428Y-109214285D01*
X105461571Y-109714285D02*
X105461571Y-110285714D01*
X104961571Y-109928571D02*
X106247285Y-109928571D01*
X106390142Y-110000000D01*
X106461571Y-110142857D01*
X106461571Y-110285714D01*
X106461571Y-110785714D02*
X104961571Y-110785714D01*
X106461571Y-111428571D02*
X105675857Y-111428571D01*
X105533000Y-111357142D01*
X105461571Y-111214285D01*
X105461571Y-111000000D01*
X105533000Y-110857142D01*
X105604428Y-110785714D01*
X105461571Y-112785714D02*
X106461571Y-112785714D01*
X105461571Y-112142857D02*
X106247285Y-112142857D01*
X106390142Y-112214285D01*
X106461571Y-112357142D01*
X106461571Y-112571428D01*
X106390142Y-112714285D01*
X106318714Y-112785714D01*
X106461571Y-113500000D02*
X104961571Y-113500000D01*
X105533000Y-113500000D02*
X105461571Y-113642857D01*
X105461571Y-113928571D01*
X105533000Y-114071428D01*
X105604428Y-114142857D01*
X105747285Y-114214285D01*
X106175857Y-114214285D01*
X106318714Y-114142857D01*
X106390142Y-114071428D01*
X106461571Y-113928571D01*
X106461571Y-113642857D01*
X106390142Y-113500000D01*
X106318714Y-114857142D02*
X106390142Y-114928571D01*
X106461571Y-114857142D01*
X106390142Y-114785714D01*
X106318714Y-114857142D01*
X106461571Y-114857142D01*
X106390142Y-116214285D02*
X106461571Y-116071428D01*
X106461571Y-115785714D01*
X106390142Y-115642857D01*
X106318714Y-115571428D01*
X106175857Y-115500000D01*
X105747285Y-115500000D01*
X105604428Y-115571428D01*
X105533000Y-115642857D01*
X105461571Y-115785714D01*
X105461571Y-116071428D01*
X105533000Y-116214285D01*
X106461571Y-117071428D02*
X106390142Y-116928571D01*
X106318714Y-116857142D01*
X106175857Y-116785714D01*
X105747285Y-116785714D01*
X105604428Y-116857142D01*
X105533000Y-116928571D01*
X105461571Y-117071428D01*
X105461571Y-117285714D01*
X105533000Y-117428571D01*
X105604428Y-117500000D01*
X105747285Y-117571428D01*
X106175857Y-117571428D01*
X106318714Y-117500000D01*
X106390142Y-117428571D01*
X106461571Y-117285714D01*
X106461571Y-117071428D01*
X106461571Y-118214285D02*
X105461571Y-118214285D01*
X105604428Y-118214285D02*
X105533000Y-118285714D01*
X105461571Y-118428571D01*
X105461571Y-118642857D01*
X105533000Y-118785714D01*
X105675857Y-118857142D01*
X106461571Y-118857142D01*
X105675857Y-118857142D02*
X105533000Y-118928571D01*
X105461571Y-119071428D01*
X105461571Y-119285714D01*
X105533000Y-119428571D01*
X105675857Y-119500000D01*
X106461571Y-119500000D01*
X104890142Y-121285714D02*
X106818714Y-120000000D01*
X106461571Y-122428571D02*
X105675857Y-122428571D01*
X105533000Y-122357142D01*
X105461571Y-122214285D01*
X105461571Y-121928571D01*
X105533000Y-121785714D01*
X106390142Y-122428571D02*
X106461571Y-122285714D01*
X106461571Y-121928571D01*
X106390142Y-121785714D01*
X106247285Y-121714285D01*
X106104428Y-121714285D01*
X105961571Y-121785714D01*
X105890142Y-121928571D01*
X105890142Y-122285714D01*
X105818714Y-122428571D01*
X106461571Y-123142857D02*
X105461571Y-123142857D01*
X105747285Y-123142857D02*
X105604428Y-123214285D01*
X105533000Y-123285714D01*
X105461571Y-123428571D01*
X105461571Y-123571428D01*
X105461571Y-124071428D02*
X106747285Y-124071428D01*
X106890142Y-124000000D01*
X106961571Y-123857142D01*
X106961571Y-123785714D01*
X104961571Y-124071428D02*
X105033000Y-124000000D01*
X105104428Y-124071428D01*
X105033000Y-124142857D01*
X104961571Y-124071428D01*
X105104428Y-124071428D01*
X106390142Y-125357142D02*
X106461571Y-125214285D01*
X106461571Y-124928571D01*
X106390142Y-124785714D01*
X106247285Y-124714285D01*
X105675857Y-124714285D01*
X105533000Y-124785714D01*
X105461571Y-124928571D01*
X105461571Y-125214285D01*
X105533000Y-125357142D01*
X105675857Y-125428571D01*
X105818714Y-125428571D01*
X105961571Y-124714285D01*
X105461571Y-126071428D02*
X106461571Y-126071428D01*
X105604428Y-126071428D02*
X105533000Y-126142857D01*
X105461571Y-126285714D01*
X105461571Y-126500000D01*
X105533000Y-126642857D01*
X105675857Y-126714285D01*
X106461571Y-126714285D01*
X106461571Y-127428571D02*
X104961571Y-127428571D01*
X106461571Y-128071428D02*
X105675857Y-128071428D01*
X105533000Y-128000000D01*
X105461571Y-127857142D01*
X105461571Y-127642857D01*
X105533000Y-127500000D01*
X105604428Y-127428571D01*
X106461571Y-128785714D02*
X105461571Y-128785714D01*
X104961571Y-128785714D02*
X105033000Y-128714285D01*
X105104428Y-128785714D01*
X105033000Y-128857142D01*
X104961571Y-128785714D01*
X105104428Y-128785714D01*
X106390142Y-130071428D02*
X106461571Y-129928571D01*
X106461571Y-129642857D01*
X106390142Y-129500000D01*
X106247285Y-129428571D01*
X105675857Y-129428571D01*
X105533000Y-129500000D01*
X105461571Y-129642857D01*
X105461571Y-129928571D01*
X105533000Y-130071428D01*
X105675857Y-130142857D01*
X105818714Y-130142857D01*
X105961571Y-129428571D01*
X106461571Y-130785714D02*
X105461571Y-130785714D01*
X105604428Y-130785714D02*
X105533000Y-130857142D01*
X105461571Y-131000000D01*
X105461571Y-131214285D01*
X105533000Y-131357142D01*
X105675857Y-131428571D01*
X106461571Y-131428571D01*
X105675857Y-131428571D02*
X105533000Y-131500000D01*
X105461571Y-131642857D01*
X105461571Y-131857142D01*
X105533000Y-132000000D01*
X105675857Y-132071428D01*
X106461571Y-132071428D01*
X106390142Y-132714285D02*
X106461571Y-132857142D01*
X106461571Y-133142857D01*
X106390142Y-133285714D01*
X106247285Y-133357142D01*
X106175857Y-133357142D01*
X106033000Y-133285714D01*
X105961571Y-133142857D01*
X105961571Y-132928571D01*
X105890142Y-132785714D01*
X105747285Y-132714285D01*
X105675857Y-132714285D01*
X105533000Y-132785714D01*
X105461571Y-132928571D01*
X105461571Y-133142857D01*
X105533000Y-133285714D01*
X105461571Y-133785714D02*
X105461571Y-134357142D01*
X104961571Y-134000000D02*
X106247285Y-134000000D01*
X106390142Y-134071428D01*
X106461571Y-134214285D01*
X106461571Y-134357142D01*
X106461571Y-134857142D02*
X105461571Y-134857142D01*
X105747285Y-134857142D02*
X105604428Y-134928571D01*
X105533000Y-135000000D01*
X105461571Y-135142857D01*
X105461571Y-135285714D01*
X106461571Y-136428571D02*
X105675857Y-136428571D01*
X105533000Y-136357142D01*
X105461571Y-136214285D01*
X105461571Y-135928571D01*
X105533000Y-135785714D01*
X106390142Y-136428571D02*
X106461571Y-136285714D01*
X106461571Y-135928571D01*
X106390142Y-135785714D01*
X106247285Y-135714285D01*
X106104428Y-135714285D01*
X105961571Y-135785714D01*
X105890142Y-135928571D01*
X105890142Y-136285714D01*
X105818714Y-136428571D01*
X104890142Y-138214285D02*
X106818714Y-136928571D01*
X106461571Y-138714285D02*
X105461571Y-138714285D01*
X104961571Y-138714285D02*
X105033000Y-138642857D01*
X105104428Y-138714285D01*
X105033000Y-138785714D01*
X104961571Y-138714285D01*
X105104428Y-138714285D01*
X105461571Y-139214285D02*
X105461571Y-139785714D01*
X104961571Y-139428571D02*
X106247285Y-139428571D01*
X106390142Y-139500000D01*
X106461571Y-139642857D01*
X106461571Y-139785714D01*
X106461571Y-140285714D02*
X104961571Y-140285714D01*
X106461571Y-140928571D02*
X105675857Y-140928571D01*
X105533000Y-140857142D01*
X105461571Y-140714285D01*
X105461571Y-140500000D01*
X105533000Y-140357142D01*
X105604428Y-140285714D01*
X106461571Y-141857142D02*
X106390142Y-141714285D01*
X106318714Y-141642857D01*
X106175857Y-141571428D01*
X105747285Y-141571428D01*
X105604428Y-141642857D01*
X105533000Y-141714285D01*
X105461571Y-141857142D01*
X105461571Y-142071428D01*
X105533000Y-142214285D01*
X105604428Y-142285714D01*
X105747285Y-142357142D01*
X106175857Y-142357142D01*
X106318714Y-142285714D01*
X106390142Y-142214285D01*
X106461571Y-142071428D01*
X106461571Y-141857142D01*
X105461571Y-142857142D02*
X106461571Y-143142857D01*
X105747285Y-143428571D01*
X106461571Y-143714285D01*
X105461571Y-144000000D01*
X106461571Y-144571428D02*
X105461571Y-144571428D01*
X104961571Y-144571428D02*
X105033000Y-144500000D01*
X105104428Y-144571428D01*
X105033000Y-144642857D01*
X104961571Y-144571428D01*
X105104428Y-144571428D01*
X105461571Y-145071428D02*
X105461571Y-145642857D01*
X106461571Y-145285714D02*
X105175857Y-145285714D01*
X105033000Y-145357142D01*
X104961571Y-145500000D01*
X104961571Y-145642857D01*
X106461571Y-146142857D02*
X105461571Y-146142857D01*
X104961571Y-146142857D02*
X105033000Y-146071428D01*
X105104428Y-146142857D01*
X105033000Y-146214285D01*
X104961571Y-146142857D01*
X105104428Y-146142857D01*
D11*
X118177000Y-139125000D02*
X120777000Y-139125000D01*
X118177000Y-139125000D02*
X118177000Y-128845000D01*
X118177000Y-128845000D02*
X123377000Y-128845000D01*
X123377000Y-136525000D02*
X123377000Y-128845000D01*
X120777000Y-136525000D02*
X123377000Y-136525000D01*
X120777000Y-139125000D02*
X120777000Y-136525000D01*
X123377000Y-139125000D02*
X123377000Y-137795000D01*
X122047000Y-139125000D02*
X123377000Y-139125000D01*
D12*
X101980904Y-138277380D02*
X101980904Y-139086904D01*
X101933285Y-139182142D01*
X101885666Y-139229761D01*
X101790428Y-139277380D01*
X101599952Y-139277380D01*
X101504714Y-139229761D01*
X101457095Y-139182142D01*
X101409476Y-139086904D01*
X101409476Y-138277380D01*
X100409476Y-139277380D02*
X100980904Y-139277380D01*
X100695190Y-139277380D02*
X100695190Y-138277380D01*
X100790428Y-138420238D01*
X100885666Y-138515476D01*
X100980904Y-138563095D01*
X121110333Y-140017380D02*
X121110333Y-140731666D01*
X121157952Y-140874523D01*
X121253190Y-140969761D01*
X121396047Y-141017380D01*
X121491285Y-141017380D01*
X120110333Y-141017380D02*
X120681761Y-141017380D01*
X120396047Y-141017380D02*
X120396047Y-140017380D01*
X120491285Y-140160238D01*
X120586523Y-140255476D01*
X120681761Y-140303095D01*
M02*
