G04 #@! TF.GenerationSoftware,KiCad,Pcbnew,(5.1.5-0-10_14)*
G04 #@! TF.CreationDate,2020-04-05T09:28:29+02:00*
G04 #@! TF.ProjectId,ithowifi,6974686f-7769-4666-992e-6b696361645f,rev?*
G04 #@! TF.SameCoordinates,Original*
G04 #@! TF.FileFunction,Copper,L2,Bot*
G04 #@! TF.FilePolarity,Positive*
%FSLAX46Y46*%
G04 Gerber Fmt 4.6, Leading zero omitted, Abs format (unit mm)*
G04 Created by KiCad (PCBNEW (5.1.5-0-10_14)) date 2020-04-05 09:28:29*
%MOMM*%
%LPD*%
G04 APERTURE LIST*
%ADD10O,1.500000X2.300000*%
%ADD11R,1.500000X2.300000*%
%ADD12C,1.800000*%
%ADD13R,1.700000X1.700000*%
%ADD14O,1.700000X1.700000*%
%ADD15C,0.800000*%
%ADD16C,0.406400*%
%ADD17C,0.254000*%
G04 APERTURE END LIST*
D10*
X115062000Y-143129000D03*
X117602000Y-143129000D03*
D11*
X120142000Y-143129000D03*
D12*
X91059000Y-109855000D03*
X91059000Y-112395000D03*
X91059000Y-114935000D03*
X91059000Y-117475000D03*
X91059000Y-120015000D03*
X91059000Y-122555000D03*
X91059000Y-125095000D03*
X91059000Y-127635000D03*
X113919000Y-127635000D03*
X113919000Y-125095000D03*
X113919000Y-122555000D03*
X113919000Y-120015000D03*
X113919000Y-117475000D03*
X113919000Y-114935000D03*
X113919000Y-112395000D03*
X113919000Y-109855000D03*
D13*
X122047000Y-137795000D03*
D14*
X119507000Y-137795000D03*
X122047000Y-135255000D03*
X119507000Y-135255000D03*
X122047000Y-132715000D03*
X119507000Y-132715000D03*
X122047000Y-130175000D03*
X119507000Y-130175000D03*
D15*
X120650000Y-126873000D03*
X123190000Y-118364000D03*
X118872000Y-118364000D03*
D16*
X119888000Y-127635000D02*
X120650000Y-126873000D01*
X113919000Y-127635000D02*
X119888000Y-127635000D01*
D17*
G36*
X89698701Y-113122095D02*
G01*
X89866688Y-113373505D01*
X90080495Y-113587312D01*
X90196763Y-113665000D01*
X90080495Y-113742688D01*
X89866688Y-113956495D01*
X89698701Y-114207905D01*
X89582989Y-114487257D01*
X89524000Y-114783816D01*
X89524000Y-115086184D01*
X89582989Y-115382743D01*
X89698701Y-115662095D01*
X89866688Y-115913505D01*
X90080495Y-116127312D01*
X90196763Y-116205000D01*
X90080495Y-116282688D01*
X89866688Y-116496495D01*
X89698701Y-116747905D01*
X89582989Y-117027257D01*
X89524000Y-117323816D01*
X89524000Y-117626184D01*
X89582989Y-117922743D01*
X89698701Y-118202095D01*
X89866688Y-118453505D01*
X90080495Y-118667312D01*
X90196763Y-118745000D01*
X90080495Y-118822688D01*
X89866688Y-119036495D01*
X89698701Y-119287905D01*
X89582989Y-119567257D01*
X89524000Y-119863816D01*
X89524000Y-120166184D01*
X89582989Y-120462743D01*
X89698701Y-120742095D01*
X89866688Y-120993505D01*
X90080495Y-121207312D01*
X90196763Y-121285000D01*
X90080495Y-121362688D01*
X89866688Y-121576495D01*
X89698701Y-121827905D01*
X89582989Y-122107257D01*
X89524000Y-122403816D01*
X89524000Y-122706184D01*
X89582989Y-123002743D01*
X89698701Y-123282095D01*
X89866688Y-123533505D01*
X90080495Y-123747312D01*
X90196763Y-123825000D01*
X90080495Y-123902688D01*
X89866688Y-124116495D01*
X89698701Y-124367905D01*
X89582989Y-124647257D01*
X89524000Y-124943816D01*
X89524000Y-125246184D01*
X89582989Y-125542743D01*
X89698701Y-125822095D01*
X89866688Y-126073505D01*
X90080495Y-126287312D01*
X90234105Y-126389951D01*
X90174525Y-126570920D01*
X91059000Y-127455395D01*
X91943475Y-126570920D01*
X91883895Y-126389951D01*
X92037505Y-126287312D01*
X92251312Y-126073505D01*
X92419299Y-125822095D01*
X92535011Y-125542743D01*
X92594000Y-125246184D01*
X92594000Y-124943816D01*
X92535011Y-124647257D01*
X92419299Y-124367905D01*
X92251312Y-124116495D01*
X92037505Y-123902688D01*
X91921237Y-123825000D01*
X92037505Y-123747312D01*
X92251312Y-123533505D01*
X92419299Y-123282095D01*
X92535011Y-123002743D01*
X92594000Y-122706184D01*
X92594000Y-122403816D01*
X92535011Y-122107257D01*
X92419299Y-121827905D01*
X92251312Y-121576495D01*
X92037505Y-121362688D01*
X91921237Y-121285000D01*
X92037505Y-121207312D01*
X92251312Y-120993505D01*
X92419299Y-120742095D01*
X92535011Y-120462743D01*
X92594000Y-120166184D01*
X92594000Y-119863816D01*
X92535011Y-119567257D01*
X92419299Y-119287905D01*
X92251312Y-119036495D01*
X92037505Y-118822688D01*
X91921237Y-118745000D01*
X92037505Y-118667312D01*
X92251312Y-118453505D01*
X92419299Y-118202095D01*
X92535011Y-117922743D01*
X92594000Y-117626184D01*
X92594000Y-117323816D01*
X92535011Y-117027257D01*
X92419299Y-116747905D01*
X92251312Y-116496495D01*
X92037505Y-116282688D01*
X91921237Y-116205000D01*
X92037505Y-116127312D01*
X92251312Y-115913505D01*
X92419299Y-115662095D01*
X92535011Y-115382743D01*
X92594000Y-115086184D01*
X92594000Y-114783816D01*
X92535011Y-114487257D01*
X92419299Y-114207905D01*
X92251312Y-113956495D01*
X92037505Y-113742688D01*
X91921237Y-113665000D01*
X92037505Y-113587312D01*
X92251312Y-113373505D01*
X92419299Y-113122095D01*
X92457446Y-113030000D01*
X112520554Y-113030000D01*
X112558701Y-113122095D01*
X112726688Y-113373505D01*
X112940495Y-113587312D01*
X113056763Y-113665000D01*
X112940495Y-113742688D01*
X112726688Y-113956495D01*
X112558701Y-114207905D01*
X112442989Y-114487257D01*
X112384000Y-114783816D01*
X112384000Y-115086184D01*
X112442989Y-115382743D01*
X112558701Y-115662095D01*
X112726688Y-115913505D01*
X112940495Y-116127312D01*
X113056763Y-116205000D01*
X112940495Y-116282688D01*
X112726688Y-116496495D01*
X112558701Y-116747905D01*
X112442989Y-117027257D01*
X112384000Y-117323816D01*
X112384000Y-117626184D01*
X112442989Y-117922743D01*
X112558701Y-118202095D01*
X112726688Y-118453505D01*
X112940495Y-118667312D01*
X113056763Y-118745000D01*
X112940495Y-118822688D01*
X112726688Y-119036495D01*
X112558701Y-119287905D01*
X112442989Y-119567257D01*
X112384000Y-119863816D01*
X112384000Y-120166184D01*
X112442989Y-120462743D01*
X112558701Y-120742095D01*
X112726688Y-120993505D01*
X112940495Y-121207312D01*
X113056763Y-121285000D01*
X112940495Y-121362688D01*
X112726688Y-121576495D01*
X112558701Y-121827905D01*
X112442989Y-122107257D01*
X112384000Y-122403816D01*
X112384000Y-122706184D01*
X112442989Y-123002743D01*
X112558701Y-123282095D01*
X112726688Y-123533505D01*
X112940495Y-123747312D01*
X113056763Y-123825000D01*
X112940495Y-123902688D01*
X112726688Y-124116495D01*
X112558701Y-124367905D01*
X112442989Y-124647257D01*
X112384000Y-124943816D01*
X112384000Y-125246184D01*
X112442989Y-125542743D01*
X112558701Y-125822095D01*
X112726688Y-126073505D01*
X112940495Y-126287312D01*
X113056763Y-126365000D01*
X112940495Y-126442688D01*
X112726688Y-126656495D01*
X112558701Y-126907905D01*
X112442989Y-127187257D01*
X112384000Y-127483816D01*
X112384000Y-127786184D01*
X112442989Y-128082743D01*
X112558701Y-128362095D01*
X112726688Y-128613505D01*
X112940495Y-128827312D01*
X113191905Y-128995299D01*
X113471257Y-129111011D01*
X113767816Y-129170000D01*
X114070184Y-129170000D01*
X114366743Y-129111011D01*
X114646095Y-128995299D01*
X114897505Y-128827312D01*
X115111312Y-128613505D01*
X115205061Y-128473200D01*
X119846837Y-128473200D01*
X119888000Y-128477254D01*
X119929163Y-128473200D01*
X119929170Y-128473200D01*
X120052316Y-128461071D01*
X120210317Y-128413142D01*
X120355932Y-128335309D01*
X120483564Y-128230564D01*
X120509811Y-128198583D01*
X120812425Y-127895969D01*
X120951898Y-127868226D01*
X121140256Y-127790205D01*
X121309774Y-127676937D01*
X121453937Y-127532774D01*
X121567205Y-127363256D01*
X121645226Y-127174898D01*
X121685000Y-126974939D01*
X121685000Y-126771061D01*
X121645226Y-126571102D01*
X121567205Y-126382744D01*
X121453937Y-126213226D01*
X121309774Y-126069063D01*
X121140256Y-125955795D01*
X120951898Y-125877774D01*
X120751939Y-125838000D01*
X120548061Y-125838000D01*
X120348102Y-125877774D01*
X120159744Y-125955795D01*
X119990226Y-126069063D01*
X119846063Y-126213226D01*
X119732795Y-126382744D01*
X119654774Y-126571102D01*
X119627031Y-126710575D01*
X119540807Y-126796800D01*
X115205061Y-126796800D01*
X115111312Y-126656495D01*
X114897505Y-126442688D01*
X114781237Y-126365000D01*
X114897505Y-126287312D01*
X115111312Y-126073505D01*
X115279299Y-125822095D01*
X115395011Y-125542743D01*
X115454000Y-125246184D01*
X115454000Y-124943816D01*
X115395011Y-124647257D01*
X115279299Y-124367905D01*
X115111312Y-124116495D01*
X114897505Y-123902688D01*
X114781237Y-123825000D01*
X114897505Y-123747312D01*
X115111312Y-123533505D01*
X115279299Y-123282095D01*
X115395011Y-123002743D01*
X115454000Y-122706184D01*
X115454000Y-122403816D01*
X115395011Y-122107257D01*
X115279299Y-121827905D01*
X115111312Y-121576495D01*
X114897505Y-121362688D01*
X114781237Y-121285000D01*
X114897505Y-121207312D01*
X115111312Y-120993505D01*
X115279299Y-120742095D01*
X115395011Y-120462743D01*
X115454000Y-120166184D01*
X115454000Y-119863816D01*
X115395011Y-119567257D01*
X115279299Y-119287905D01*
X115111312Y-119036495D01*
X114897505Y-118822688D01*
X114781237Y-118745000D01*
X114897505Y-118667312D01*
X115111312Y-118453505D01*
X115279299Y-118202095D01*
X115395011Y-117922743D01*
X115454000Y-117626184D01*
X115454000Y-117323816D01*
X115395011Y-117027257D01*
X115279299Y-116747905D01*
X115111312Y-116496495D01*
X114897505Y-116282688D01*
X114781237Y-116205000D01*
X114897505Y-116127312D01*
X115111312Y-115913505D01*
X115279299Y-115662095D01*
X115395011Y-115382743D01*
X115454000Y-115086184D01*
X115454000Y-114783816D01*
X115395011Y-114487257D01*
X115279299Y-114207905D01*
X115111312Y-113956495D01*
X114897505Y-113742688D01*
X114781237Y-113665000D01*
X114897505Y-113587312D01*
X115111312Y-113373505D01*
X115279299Y-113122095D01*
X115317446Y-113030000D01*
X124654000Y-113030000D01*
X124654001Y-148682998D01*
X124637361Y-148852707D01*
X124597951Y-148983238D01*
X124533933Y-149103638D01*
X124447753Y-149209305D01*
X124342690Y-149296221D01*
X124222743Y-149361076D01*
X124092488Y-149401397D01*
X123925005Y-149419000D01*
X85123991Y-149419000D01*
X84830954Y-149390268D01*
X84581782Y-149315038D01*
X84351959Y-149192840D01*
X84150254Y-149028333D01*
X83984339Y-148827776D01*
X83860542Y-148598819D01*
X83783573Y-148350170D01*
X83753000Y-148059286D01*
X83753000Y-142660963D01*
X113677000Y-142660963D01*
X113677000Y-143597036D01*
X113697040Y-143800506D01*
X113776236Y-144061580D01*
X113904843Y-144302187D01*
X114077919Y-144513080D01*
X114288812Y-144686157D01*
X114529419Y-144814764D01*
X114790493Y-144893960D01*
X115062000Y-144920701D01*
X115333506Y-144893960D01*
X115594580Y-144814764D01*
X115835187Y-144686157D01*
X116046080Y-144513081D01*
X116219157Y-144302188D01*
X116332000Y-144091073D01*
X116444843Y-144302187D01*
X116617919Y-144513080D01*
X116828812Y-144686157D01*
X117069419Y-144814764D01*
X117330493Y-144893960D01*
X117602000Y-144920701D01*
X117873506Y-144893960D01*
X118134580Y-144814764D01*
X118375187Y-144686157D01*
X118586080Y-144513081D01*
X118756527Y-144305392D01*
X118766188Y-144403482D01*
X118802498Y-144523180D01*
X118861463Y-144633494D01*
X118940815Y-144730185D01*
X119037506Y-144809537D01*
X119147820Y-144868502D01*
X119267518Y-144904812D01*
X119392000Y-144917072D01*
X120892000Y-144917072D01*
X121016482Y-144904812D01*
X121136180Y-144868502D01*
X121246494Y-144809537D01*
X121343185Y-144730185D01*
X121422537Y-144633494D01*
X121481502Y-144523180D01*
X121517812Y-144403482D01*
X121530072Y-144279000D01*
X121530072Y-141979000D01*
X121517812Y-141854518D01*
X121481502Y-141734820D01*
X121422537Y-141624506D01*
X121343185Y-141527815D01*
X121246494Y-141448463D01*
X121136180Y-141389498D01*
X121016482Y-141353188D01*
X120892000Y-141340928D01*
X119392000Y-141340928D01*
X119267518Y-141353188D01*
X119147820Y-141389498D01*
X119037506Y-141448463D01*
X118940815Y-141527815D01*
X118861463Y-141624506D01*
X118802498Y-141734820D01*
X118766188Y-141854518D01*
X118756527Y-141952608D01*
X118586081Y-141744919D01*
X118375188Y-141571843D01*
X118134581Y-141443236D01*
X117873507Y-141364040D01*
X117602000Y-141337299D01*
X117330494Y-141364040D01*
X117069420Y-141443236D01*
X116828813Y-141571843D01*
X116617920Y-141744919D01*
X116444843Y-141955812D01*
X116332000Y-142166927D01*
X116219157Y-141955812D01*
X116046081Y-141744919D01*
X115835188Y-141571843D01*
X115594581Y-141443236D01*
X115333507Y-141364040D01*
X115062000Y-141337299D01*
X114790494Y-141364040D01*
X114529420Y-141443236D01*
X114288813Y-141571843D01*
X114077920Y-141744919D01*
X113904843Y-141955812D01*
X113776236Y-142196419D01*
X113697040Y-142457493D01*
X113677000Y-142660963D01*
X83753000Y-142660963D01*
X83753000Y-132631721D01*
X84479000Y-132631721D01*
X84479000Y-133052279D01*
X84561047Y-133464756D01*
X84721988Y-133853302D01*
X84955637Y-134202983D01*
X85253017Y-134500363D01*
X85602698Y-134734012D01*
X85991244Y-134894953D01*
X86403721Y-134977000D01*
X86824279Y-134977000D01*
X87236756Y-134894953D01*
X87625302Y-134734012D01*
X87974983Y-134500363D01*
X88272363Y-134202983D01*
X88506012Y-133853302D01*
X88666953Y-133464756D01*
X88749000Y-133052279D01*
X88749000Y-132631721D01*
X88666953Y-132219244D01*
X88506012Y-131830698D01*
X88272363Y-131481017D01*
X87974983Y-131183637D01*
X87625302Y-130949988D01*
X87236756Y-130789047D01*
X86824279Y-130707000D01*
X86403721Y-130707000D01*
X85991244Y-130789047D01*
X85602698Y-130949988D01*
X85253017Y-131183637D01*
X84955637Y-131481017D01*
X84721988Y-131830698D01*
X84561047Y-132219244D01*
X84479000Y-132631721D01*
X83753000Y-132631721D01*
X83753000Y-130028740D01*
X118022000Y-130028740D01*
X118022000Y-130321260D01*
X118079068Y-130608158D01*
X118191010Y-130878411D01*
X118353525Y-131121632D01*
X118560368Y-131328475D01*
X118734760Y-131445000D01*
X118560368Y-131561525D01*
X118353525Y-131768368D01*
X118191010Y-132011589D01*
X118079068Y-132281842D01*
X118022000Y-132568740D01*
X118022000Y-132861260D01*
X118079068Y-133148158D01*
X118191010Y-133418411D01*
X118353525Y-133661632D01*
X118560368Y-133868475D01*
X118734760Y-133985000D01*
X118560368Y-134101525D01*
X118353525Y-134308368D01*
X118191010Y-134551589D01*
X118079068Y-134821842D01*
X118022000Y-135108740D01*
X118022000Y-135401260D01*
X118079068Y-135688158D01*
X118191010Y-135958411D01*
X118353525Y-136201632D01*
X118560368Y-136408475D01*
X118734760Y-136525000D01*
X118560368Y-136641525D01*
X118353525Y-136848368D01*
X118191010Y-137091589D01*
X118079068Y-137361842D01*
X118022000Y-137648740D01*
X118022000Y-137941260D01*
X118079068Y-138228158D01*
X118191010Y-138498411D01*
X118353525Y-138741632D01*
X118560368Y-138948475D01*
X118803589Y-139110990D01*
X119073842Y-139222932D01*
X119360740Y-139280000D01*
X119653260Y-139280000D01*
X119940158Y-139222932D01*
X120210411Y-139110990D01*
X120453632Y-138948475D01*
X120585487Y-138816620D01*
X120607498Y-138889180D01*
X120666463Y-138999494D01*
X120745815Y-139096185D01*
X120842506Y-139175537D01*
X120952820Y-139234502D01*
X121072518Y-139270812D01*
X121197000Y-139283072D01*
X122897000Y-139283072D01*
X123021482Y-139270812D01*
X123141180Y-139234502D01*
X123251494Y-139175537D01*
X123348185Y-139096185D01*
X123427537Y-138999494D01*
X123486502Y-138889180D01*
X123522812Y-138769482D01*
X123535072Y-138645000D01*
X123535072Y-136945000D01*
X123522812Y-136820518D01*
X123486502Y-136700820D01*
X123427537Y-136590506D01*
X123348185Y-136493815D01*
X123251494Y-136414463D01*
X123141180Y-136355498D01*
X123068620Y-136333487D01*
X123200475Y-136201632D01*
X123362990Y-135958411D01*
X123474932Y-135688158D01*
X123532000Y-135401260D01*
X123532000Y-135108740D01*
X123474932Y-134821842D01*
X123362990Y-134551589D01*
X123200475Y-134308368D01*
X122993632Y-134101525D01*
X122819240Y-133985000D01*
X122993632Y-133868475D01*
X123200475Y-133661632D01*
X123362990Y-133418411D01*
X123474932Y-133148158D01*
X123532000Y-132861260D01*
X123532000Y-132568740D01*
X123474932Y-132281842D01*
X123362990Y-132011589D01*
X123200475Y-131768368D01*
X122993632Y-131561525D01*
X122819240Y-131445000D01*
X122993632Y-131328475D01*
X123200475Y-131121632D01*
X123362990Y-130878411D01*
X123474932Y-130608158D01*
X123532000Y-130321260D01*
X123532000Y-130028740D01*
X123474932Y-129741842D01*
X123362990Y-129471589D01*
X123200475Y-129228368D01*
X122993632Y-129021525D01*
X122750411Y-128859010D01*
X122480158Y-128747068D01*
X122193260Y-128690000D01*
X121900740Y-128690000D01*
X121613842Y-128747068D01*
X121343589Y-128859010D01*
X121100368Y-129021525D01*
X120893525Y-129228368D01*
X120777000Y-129402760D01*
X120660475Y-129228368D01*
X120453632Y-129021525D01*
X120210411Y-128859010D01*
X119940158Y-128747068D01*
X119653260Y-128690000D01*
X119360740Y-128690000D01*
X119073842Y-128747068D01*
X118803589Y-128859010D01*
X118560368Y-129021525D01*
X118353525Y-129228368D01*
X118191010Y-129471589D01*
X118079068Y-129741842D01*
X118022000Y-130028740D01*
X83753000Y-130028740D01*
X83753000Y-128699080D01*
X90174525Y-128699080D01*
X90258208Y-128953261D01*
X90530775Y-129084158D01*
X90823642Y-129159365D01*
X91125553Y-129175991D01*
X91424907Y-129133397D01*
X91710199Y-129033222D01*
X91859792Y-128953261D01*
X91943475Y-128699080D01*
X91059000Y-127814605D01*
X90174525Y-128699080D01*
X83753000Y-128699080D01*
X83753000Y-127701553D01*
X89518009Y-127701553D01*
X89560603Y-128000907D01*
X89660778Y-128286199D01*
X89740739Y-128435792D01*
X89994920Y-128519475D01*
X90879395Y-127635000D01*
X91238605Y-127635000D01*
X92123080Y-128519475D01*
X92377261Y-128435792D01*
X92508158Y-128163225D01*
X92583365Y-127870358D01*
X92599991Y-127568447D01*
X92557397Y-127269093D01*
X92457222Y-126983801D01*
X92377261Y-126834208D01*
X92123080Y-126750525D01*
X91238605Y-127635000D01*
X90879395Y-127635000D01*
X89994920Y-126750525D01*
X89740739Y-126834208D01*
X89609842Y-127106775D01*
X89534635Y-127399642D01*
X89518009Y-127701553D01*
X83753000Y-127701553D01*
X83753000Y-113030000D01*
X89660554Y-113030000D01*
X89698701Y-113122095D01*
G37*
X89698701Y-113122095D02*
X89866688Y-113373505D01*
X90080495Y-113587312D01*
X90196763Y-113665000D01*
X90080495Y-113742688D01*
X89866688Y-113956495D01*
X89698701Y-114207905D01*
X89582989Y-114487257D01*
X89524000Y-114783816D01*
X89524000Y-115086184D01*
X89582989Y-115382743D01*
X89698701Y-115662095D01*
X89866688Y-115913505D01*
X90080495Y-116127312D01*
X90196763Y-116205000D01*
X90080495Y-116282688D01*
X89866688Y-116496495D01*
X89698701Y-116747905D01*
X89582989Y-117027257D01*
X89524000Y-117323816D01*
X89524000Y-117626184D01*
X89582989Y-117922743D01*
X89698701Y-118202095D01*
X89866688Y-118453505D01*
X90080495Y-118667312D01*
X90196763Y-118745000D01*
X90080495Y-118822688D01*
X89866688Y-119036495D01*
X89698701Y-119287905D01*
X89582989Y-119567257D01*
X89524000Y-119863816D01*
X89524000Y-120166184D01*
X89582989Y-120462743D01*
X89698701Y-120742095D01*
X89866688Y-120993505D01*
X90080495Y-121207312D01*
X90196763Y-121285000D01*
X90080495Y-121362688D01*
X89866688Y-121576495D01*
X89698701Y-121827905D01*
X89582989Y-122107257D01*
X89524000Y-122403816D01*
X89524000Y-122706184D01*
X89582989Y-123002743D01*
X89698701Y-123282095D01*
X89866688Y-123533505D01*
X90080495Y-123747312D01*
X90196763Y-123825000D01*
X90080495Y-123902688D01*
X89866688Y-124116495D01*
X89698701Y-124367905D01*
X89582989Y-124647257D01*
X89524000Y-124943816D01*
X89524000Y-125246184D01*
X89582989Y-125542743D01*
X89698701Y-125822095D01*
X89866688Y-126073505D01*
X90080495Y-126287312D01*
X90234105Y-126389951D01*
X90174525Y-126570920D01*
X91059000Y-127455395D01*
X91943475Y-126570920D01*
X91883895Y-126389951D01*
X92037505Y-126287312D01*
X92251312Y-126073505D01*
X92419299Y-125822095D01*
X92535011Y-125542743D01*
X92594000Y-125246184D01*
X92594000Y-124943816D01*
X92535011Y-124647257D01*
X92419299Y-124367905D01*
X92251312Y-124116495D01*
X92037505Y-123902688D01*
X91921237Y-123825000D01*
X92037505Y-123747312D01*
X92251312Y-123533505D01*
X92419299Y-123282095D01*
X92535011Y-123002743D01*
X92594000Y-122706184D01*
X92594000Y-122403816D01*
X92535011Y-122107257D01*
X92419299Y-121827905D01*
X92251312Y-121576495D01*
X92037505Y-121362688D01*
X91921237Y-121285000D01*
X92037505Y-121207312D01*
X92251312Y-120993505D01*
X92419299Y-120742095D01*
X92535011Y-120462743D01*
X92594000Y-120166184D01*
X92594000Y-119863816D01*
X92535011Y-119567257D01*
X92419299Y-119287905D01*
X92251312Y-119036495D01*
X92037505Y-118822688D01*
X91921237Y-118745000D01*
X92037505Y-118667312D01*
X92251312Y-118453505D01*
X92419299Y-118202095D01*
X92535011Y-117922743D01*
X92594000Y-117626184D01*
X92594000Y-117323816D01*
X92535011Y-117027257D01*
X92419299Y-116747905D01*
X92251312Y-116496495D01*
X92037505Y-116282688D01*
X91921237Y-116205000D01*
X92037505Y-116127312D01*
X92251312Y-115913505D01*
X92419299Y-115662095D01*
X92535011Y-115382743D01*
X92594000Y-115086184D01*
X92594000Y-114783816D01*
X92535011Y-114487257D01*
X92419299Y-114207905D01*
X92251312Y-113956495D01*
X92037505Y-113742688D01*
X91921237Y-113665000D01*
X92037505Y-113587312D01*
X92251312Y-113373505D01*
X92419299Y-113122095D01*
X92457446Y-113030000D01*
X112520554Y-113030000D01*
X112558701Y-113122095D01*
X112726688Y-113373505D01*
X112940495Y-113587312D01*
X113056763Y-113665000D01*
X112940495Y-113742688D01*
X112726688Y-113956495D01*
X112558701Y-114207905D01*
X112442989Y-114487257D01*
X112384000Y-114783816D01*
X112384000Y-115086184D01*
X112442989Y-115382743D01*
X112558701Y-115662095D01*
X112726688Y-115913505D01*
X112940495Y-116127312D01*
X113056763Y-116205000D01*
X112940495Y-116282688D01*
X112726688Y-116496495D01*
X112558701Y-116747905D01*
X112442989Y-117027257D01*
X112384000Y-117323816D01*
X112384000Y-117626184D01*
X112442989Y-117922743D01*
X112558701Y-118202095D01*
X112726688Y-118453505D01*
X112940495Y-118667312D01*
X113056763Y-118745000D01*
X112940495Y-118822688D01*
X112726688Y-119036495D01*
X112558701Y-119287905D01*
X112442989Y-119567257D01*
X112384000Y-119863816D01*
X112384000Y-120166184D01*
X112442989Y-120462743D01*
X112558701Y-120742095D01*
X112726688Y-120993505D01*
X112940495Y-121207312D01*
X113056763Y-121285000D01*
X112940495Y-121362688D01*
X112726688Y-121576495D01*
X112558701Y-121827905D01*
X112442989Y-122107257D01*
X112384000Y-122403816D01*
X112384000Y-122706184D01*
X112442989Y-123002743D01*
X112558701Y-123282095D01*
X112726688Y-123533505D01*
X112940495Y-123747312D01*
X113056763Y-123825000D01*
X112940495Y-123902688D01*
X112726688Y-124116495D01*
X112558701Y-124367905D01*
X112442989Y-124647257D01*
X112384000Y-124943816D01*
X112384000Y-125246184D01*
X112442989Y-125542743D01*
X112558701Y-125822095D01*
X112726688Y-126073505D01*
X112940495Y-126287312D01*
X113056763Y-126365000D01*
X112940495Y-126442688D01*
X112726688Y-126656495D01*
X112558701Y-126907905D01*
X112442989Y-127187257D01*
X112384000Y-127483816D01*
X112384000Y-127786184D01*
X112442989Y-128082743D01*
X112558701Y-128362095D01*
X112726688Y-128613505D01*
X112940495Y-128827312D01*
X113191905Y-128995299D01*
X113471257Y-129111011D01*
X113767816Y-129170000D01*
X114070184Y-129170000D01*
X114366743Y-129111011D01*
X114646095Y-128995299D01*
X114897505Y-128827312D01*
X115111312Y-128613505D01*
X115205061Y-128473200D01*
X119846837Y-128473200D01*
X119888000Y-128477254D01*
X119929163Y-128473200D01*
X119929170Y-128473200D01*
X120052316Y-128461071D01*
X120210317Y-128413142D01*
X120355932Y-128335309D01*
X120483564Y-128230564D01*
X120509811Y-128198583D01*
X120812425Y-127895969D01*
X120951898Y-127868226D01*
X121140256Y-127790205D01*
X121309774Y-127676937D01*
X121453937Y-127532774D01*
X121567205Y-127363256D01*
X121645226Y-127174898D01*
X121685000Y-126974939D01*
X121685000Y-126771061D01*
X121645226Y-126571102D01*
X121567205Y-126382744D01*
X121453937Y-126213226D01*
X121309774Y-126069063D01*
X121140256Y-125955795D01*
X120951898Y-125877774D01*
X120751939Y-125838000D01*
X120548061Y-125838000D01*
X120348102Y-125877774D01*
X120159744Y-125955795D01*
X119990226Y-126069063D01*
X119846063Y-126213226D01*
X119732795Y-126382744D01*
X119654774Y-126571102D01*
X119627031Y-126710575D01*
X119540807Y-126796800D01*
X115205061Y-126796800D01*
X115111312Y-126656495D01*
X114897505Y-126442688D01*
X114781237Y-126365000D01*
X114897505Y-126287312D01*
X115111312Y-126073505D01*
X115279299Y-125822095D01*
X115395011Y-125542743D01*
X115454000Y-125246184D01*
X115454000Y-124943816D01*
X115395011Y-124647257D01*
X115279299Y-124367905D01*
X115111312Y-124116495D01*
X114897505Y-123902688D01*
X114781237Y-123825000D01*
X114897505Y-123747312D01*
X115111312Y-123533505D01*
X115279299Y-123282095D01*
X115395011Y-123002743D01*
X115454000Y-122706184D01*
X115454000Y-122403816D01*
X115395011Y-122107257D01*
X115279299Y-121827905D01*
X115111312Y-121576495D01*
X114897505Y-121362688D01*
X114781237Y-121285000D01*
X114897505Y-121207312D01*
X115111312Y-120993505D01*
X115279299Y-120742095D01*
X115395011Y-120462743D01*
X115454000Y-120166184D01*
X115454000Y-119863816D01*
X115395011Y-119567257D01*
X115279299Y-119287905D01*
X115111312Y-119036495D01*
X114897505Y-118822688D01*
X114781237Y-118745000D01*
X114897505Y-118667312D01*
X115111312Y-118453505D01*
X115279299Y-118202095D01*
X115395011Y-117922743D01*
X115454000Y-117626184D01*
X115454000Y-117323816D01*
X115395011Y-117027257D01*
X115279299Y-116747905D01*
X115111312Y-116496495D01*
X114897505Y-116282688D01*
X114781237Y-116205000D01*
X114897505Y-116127312D01*
X115111312Y-115913505D01*
X115279299Y-115662095D01*
X115395011Y-115382743D01*
X115454000Y-115086184D01*
X115454000Y-114783816D01*
X115395011Y-114487257D01*
X115279299Y-114207905D01*
X115111312Y-113956495D01*
X114897505Y-113742688D01*
X114781237Y-113665000D01*
X114897505Y-113587312D01*
X115111312Y-113373505D01*
X115279299Y-113122095D01*
X115317446Y-113030000D01*
X124654000Y-113030000D01*
X124654001Y-148682998D01*
X124637361Y-148852707D01*
X124597951Y-148983238D01*
X124533933Y-149103638D01*
X124447753Y-149209305D01*
X124342690Y-149296221D01*
X124222743Y-149361076D01*
X124092488Y-149401397D01*
X123925005Y-149419000D01*
X85123991Y-149419000D01*
X84830954Y-149390268D01*
X84581782Y-149315038D01*
X84351959Y-149192840D01*
X84150254Y-149028333D01*
X83984339Y-148827776D01*
X83860542Y-148598819D01*
X83783573Y-148350170D01*
X83753000Y-148059286D01*
X83753000Y-142660963D01*
X113677000Y-142660963D01*
X113677000Y-143597036D01*
X113697040Y-143800506D01*
X113776236Y-144061580D01*
X113904843Y-144302187D01*
X114077919Y-144513080D01*
X114288812Y-144686157D01*
X114529419Y-144814764D01*
X114790493Y-144893960D01*
X115062000Y-144920701D01*
X115333506Y-144893960D01*
X115594580Y-144814764D01*
X115835187Y-144686157D01*
X116046080Y-144513081D01*
X116219157Y-144302188D01*
X116332000Y-144091073D01*
X116444843Y-144302187D01*
X116617919Y-144513080D01*
X116828812Y-144686157D01*
X117069419Y-144814764D01*
X117330493Y-144893960D01*
X117602000Y-144920701D01*
X117873506Y-144893960D01*
X118134580Y-144814764D01*
X118375187Y-144686157D01*
X118586080Y-144513081D01*
X118756527Y-144305392D01*
X118766188Y-144403482D01*
X118802498Y-144523180D01*
X118861463Y-144633494D01*
X118940815Y-144730185D01*
X119037506Y-144809537D01*
X119147820Y-144868502D01*
X119267518Y-144904812D01*
X119392000Y-144917072D01*
X120892000Y-144917072D01*
X121016482Y-144904812D01*
X121136180Y-144868502D01*
X121246494Y-144809537D01*
X121343185Y-144730185D01*
X121422537Y-144633494D01*
X121481502Y-144523180D01*
X121517812Y-144403482D01*
X121530072Y-144279000D01*
X121530072Y-141979000D01*
X121517812Y-141854518D01*
X121481502Y-141734820D01*
X121422537Y-141624506D01*
X121343185Y-141527815D01*
X121246494Y-141448463D01*
X121136180Y-141389498D01*
X121016482Y-141353188D01*
X120892000Y-141340928D01*
X119392000Y-141340928D01*
X119267518Y-141353188D01*
X119147820Y-141389498D01*
X119037506Y-141448463D01*
X118940815Y-141527815D01*
X118861463Y-141624506D01*
X118802498Y-141734820D01*
X118766188Y-141854518D01*
X118756527Y-141952608D01*
X118586081Y-141744919D01*
X118375188Y-141571843D01*
X118134581Y-141443236D01*
X117873507Y-141364040D01*
X117602000Y-141337299D01*
X117330494Y-141364040D01*
X117069420Y-141443236D01*
X116828813Y-141571843D01*
X116617920Y-141744919D01*
X116444843Y-141955812D01*
X116332000Y-142166927D01*
X116219157Y-141955812D01*
X116046081Y-141744919D01*
X115835188Y-141571843D01*
X115594581Y-141443236D01*
X115333507Y-141364040D01*
X115062000Y-141337299D01*
X114790494Y-141364040D01*
X114529420Y-141443236D01*
X114288813Y-141571843D01*
X114077920Y-141744919D01*
X113904843Y-141955812D01*
X113776236Y-142196419D01*
X113697040Y-142457493D01*
X113677000Y-142660963D01*
X83753000Y-142660963D01*
X83753000Y-132631721D01*
X84479000Y-132631721D01*
X84479000Y-133052279D01*
X84561047Y-133464756D01*
X84721988Y-133853302D01*
X84955637Y-134202983D01*
X85253017Y-134500363D01*
X85602698Y-134734012D01*
X85991244Y-134894953D01*
X86403721Y-134977000D01*
X86824279Y-134977000D01*
X87236756Y-134894953D01*
X87625302Y-134734012D01*
X87974983Y-134500363D01*
X88272363Y-134202983D01*
X88506012Y-133853302D01*
X88666953Y-133464756D01*
X88749000Y-133052279D01*
X88749000Y-132631721D01*
X88666953Y-132219244D01*
X88506012Y-131830698D01*
X88272363Y-131481017D01*
X87974983Y-131183637D01*
X87625302Y-130949988D01*
X87236756Y-130789047D01*
X86824279Y-130707000D01*
X86403721Y-130707000D01*
X85991244Y-130789047D01*
X85602698Y-130949988D01*
X85253017Y-131183637D01*
X84955637Y-131481017D01*
X84721988Y-131830698D01*
X84561047Y-132219244D01*
X84479000Y-132631721D01*
X83753000Y-132631721D01*
X83753000Y-130028740D01*
X118022000Y-130028740D01*
X118022000Y-130321260D01*
X118079068Y-130608158D01*
X118191010Y-130878411D01*
X118353525Y-131121632D01*
X118560368Y-131328475D01*
X118734760Y-131445000D01*
X118560368Y-131561525D01*
X118353525Y-131768368D01*
X118191010Y-132011589D01*
X118079068Y-132281842D01*
X118022000Y-132568740D01*
X118022000Y-132861260D01*
X118079068Y-133148158D01*
X118191010Y-133418411D01*
X118353525Y-133661632D01*
X118560368Y-133868475D01*
X118734760Y-133985000D01*
X118560368Y-134101525D01*
X118353525Y-134308368D01*
X118191010Y-134551589D01*
X118079068Y-134821842D01*
X118022000Y-135108740D01*
X118022000Y-135401260D01*
X118079068Y-135688158D01*
X118191010Y-135958411D01*
X118353525Y-136201632D01*
X118560368Y-136408475D01*
X118734760Y-136525000D01*
X118560368Y-136641525D01*
X118353525Y-136848368D01*
X118191010Y-137091589D01*
X118079068Y-137361842D01*
X118022000Y-137648740D01*
X118022000Y-137941260D01*
X118079068Y-138228158D01*
X118191010Y-138498411D01*
X118353525Y-138741632D01*
X118560368Y-138948475D01*
X118803589Y-139110990D01*
X119073842Y-139222932D01*
X119360740Y-139280000D01*
X119653260Y-139280000D01*
X119940158Y-139222932D01*
X120210411Y-139110990D01*
X120453632Y-138948475D01*
X120585487Y-138816620D01*
X120607498Y-138889180D01*
X120666463Y-138999494D01*
X120745815Y-139096185D01*
X120842506Y-139175537D01*
X120952820Y-139234502D01*
X121072518Y-139270812D01*
X121197000Y-139283072D01*
X122897000Y-139283072D01*
X123021482Y-139270812D01*
X123141180Y-139234502D01*
X123251494Y-139175537D01*
X123348185Y-139096185D01*
X123427537Y-138999494D01*
X123486502Y-138889180D01*
X123522812Y-138769482D01*
X123535072Y-138645000D01*
X123535072Y-136945000D01*
X123522812Y-136820518D01*
X123486502Y-136700820D01*
X123427537Y-136590506D01*
X123348185Y-136493815D01*
X123251494Y-136414463D01*
X123141180Y-136355498D01*
X123068620Y-136333487D01*
X123200475Y-136201632D01*
X123362990Y-135958411D01*
X123474932Y-135688158D01*
X123532000Y-135401260D01*
X123532000Y-135108740D01*
X123474932Y-134821842D01*
X123362990Y-134551589D01*
X123200475Y-134308368D01*
X122993632Y-134101525D01*
X122819240Y-133985000D01*
X122993632Y-133868475D01*
X123200475Y-133661632D01*
X123362990Y-133418411D01*
X123474932Y-133148158D01*
X123532000Y-132861260D01*
X123532000Y-132568740D01*
X123474932Y-132281842D01*
X123362990Y-132011589D01*
X123200475Y-131768368D01*
X122993632Y-131561525D01*
X122819240Y-131445000D01*
X122993632Y-131328475D01*
X123200475Y-131121632D01*
X123362990Y-130878411D01*
X123474932Y-130608158D01*
X123532000Y-130321260D01*
X123532000Y-130028740D01*
X123474932Y-129741842D01*
X123362990Y-129471589D01*
X123200475Y-129228368D01*
X122993632Y-129021525D01*
X122750411Y-128859010D01*
X122480158Y-128747068D01*
X122193260Y-128690000D01*
X121900740Y-128690000D01*
X121613842Y-128747068D01*
X121343589Y-128859010D01*
X121100368Y-129021525D01*
X120893525Y-129228368D01*
X120777000Y-129402760D01*
X120660475Y-129228368D01*
X120453632Y-129021525D01*
X120210411Y-128859010D01*
X119940158Y-128747068D01*
X119653260Y-128690000D01*
X119360740Y-128690000D01*
X119073842Y-128747068D01*
X118803589Y-128859010D01*
X118560368Y-129021525D01*
X118353525Y-129228368D01*
X118191010Y-129471589D01*
X118079068Y-129741842D01*
X118022000Y-130028740D01*
X83753000Y-130028740D01*
X83753000Y-128699080D01*
X90174525Y-128699080D01*
X90258208Y-128953261D01*
X90530775Y-129084158D01*
X90823642Y-129159365D01*
X91125553Y-129175991D01*
X91424907Y-129133397D01*
X91710199Y-129033222D01*
X91859792Y-128953261D01*
X91943475Y-128699080D01*
X91059000Y-127814605D01*
X90174525Y-128699080D01*
X83753000Y-128699080D01*
X83753000Y-127701553D01*
X89518009Y-127701553D01*
X89560603Y-128000907D01*
X89660778Y-128286199D01*
X89740739Y-128435792D01*
X89994920Y-128519475D01*
X90879395Y-127635000D01*
X91238605Y-127635000D01*
X92123080Y-128519475D01*
X92377261Y-128435792D01*
X92508158Y-128163225D01*
X92583365Y-127870358D01*
X92599991Y-127568447D01*
X92557397Y-127269093D01*
X92457222Y-126983801D01*
X92377261Y-126834208D01*
X92123080Y-126750525D01*
X91238605Y-127635000D01*
X90879395Y-127635000D01*
X89994920Y-126750525D01*
X89740739Y-126834208D01*
X89609842Y-127106775D01*
X89534635Y-127399642D01*
X89518009Y-127701553D01*
X83753000Y-127701553D01*
X83753000Y-113030000D01*
X89660554Y-113030000D01*
X89698701Y-113122095D01*
M02*
