G04 #@! TF.GenerationSoftware,KiCad,Pcbnew,(5.1.5-0-10_14)*
G04 #@! TF.CreationDate,2020-04-22T00:34:19+02:00*
G04 #@! TF.ProjectId,ithowifi,6974686f-7769-4666-992e-6b696361645f,rev?*
G04 #@! TF.SameCoordinates,Original*
G04 #@! TF.FileFunction,Soldermask,Top*
G04 #@! TF.FilePolarity,Negative*
%FSLAX46Y46*%
G04 Gerber Fmt 4.6, Leading zero omitted, Abs format (unit mm)*
G04 Created by KiCad (PCBNEW (5.1.5-0-10_14)) date 2020-04-22 00:34:19*
%MOMM*%
%LPD*%
G04 APERTURE LIST*
%ADD10C,0.100000*%
%ADD11R,0.700000X1.000000*%
%ADD12R,1.000000X3.150000*%
%ADD13R,0.900000X1.200000*%
%ADD14O,1.500000X2.300000*%
%ADD15R,1.500000X2.300000*%
%ADD16C,1.800000*%
%ADD17R,1.700000X1.700000*%
%ADD18O,1.700000X1.700000*%
G04 APERTURE END LIST*
D10*
G36*
X95645504Y-115451204D02*
G01*
X95669773Y-115454804D01*
X95693571Y-115460765D01*
X95716671Y-115469030D01*
X95738849Y-115479520D01*
X95759893Y-115492133D01*
X95779598Y-115506747D01*
X95797777Y-115523223D01*
X95814253Y-115541402D01*
X95828867Y-115561107D01*
X95841480Y-115582151D01*
X95851970Y-115604329D01*
X95860235Y-115627429D01*
X95866196Y-115651227D01*
X95869796Y-115675496D01*
X95871000Y-115700000D01*
X95871000Y-116450000D01*
X95869796Y-116474504D01*
X95866196Y-116498773D01*
X95860235Y-116522571D01*
X95851970Y-116545671D01*
X95841480Y-116567849D01*
X95828867Y-116588893D01*
X95814253Y-116608598D01*
X95797777Y-116626777D01*
X95779598Y-116643253D01*
X95759893Y-116657867D01*
X95738849Y-116670480D01*
X95716671Y-116680970D01*
X95693571Y-116689235D01*
X95669773Y-116695196D01*
X95645504Y-116698796D01*
X95621000Y-116700000D01*
X94371000Y-116700000D01*
X94346496Y-116698796D01*
X94322227Y-116695196D01*
X94298429Y-116689235D01*
X94275329Y-116680970D01*
X94253151Y-116670480D01*
X94232107Y-116657867D01*
X94212402Y-116643253D01*
X94194223Y-116626777D01*
X94177747Y-116608598D01*
X94163133Y-116588893D01*
X94150520Y-116567849D01*
X94140030Y-116545671D01*
X94131765Y-116522571D01*
X94125804Y-116498773D01*
X94122204Y-116474504D01*
X94121000Y-116450000D01*
X94121000Y-115700000D01*
X94122204Y-115675496D01*
X94125804Y-115651227D01*
X94131765Y-115627429D01*
X94140030Y-115604329D01*
X94150520Y-115582151D01*
X94163133Y-115561107D01*
X94177747Y-115541402D01*
X94194223Y-115523223D01*
X94212402Y-115506747D01*
X94232107Y-115492133D01*
X94253151Y-115479520D01*
X94275329Y-115469030D01*
X94298429Y-115460765D01*
X94322227Y-115454804D01*
X94346496Y-115451204D01*
X94371000Y-115450000D01*
X95621000Y-115450000D01*
X95645504Y-115451204D01*
G37*
G36*
X95645504Y-118251204D02*
G01*
X95669773Y-118254804D01*
X95693571Y-118260765D01*
X95716671Y-118269030D01*
X95738849Y-118279520D01*
X95759893Y-118292133D01*
X95779598Y-118306747D01*
X95797777Y-118323223D01*
X95814253Y-118341402D01*
X95828867Y-118361107D01*
X95841480Y-118382151D01*
X95851970Y-118404329D01*
X95860235Y-118427429D01*
X95866196Y-118451227D01*
X95869796Y-118475496D01*
X95871000Y-118500000D01*
X95871000Y-119250000D01*
X95869796Y-119274504D01*
X95866196Y-119298773D01*
X95860235Y-119322571D01*
X95851970Y-119345671D01*
X95841480Y-119367849D01*
X95828867Y-119388893D01*
X95814253Y-119408598D01*
X95797777Y-119426777D01*
X95779598Y-119443253D01*
X95759893Y-119457867D01*
X95738849Y-119470480D01*
X95716671Y-119480970D01*
X95693571Y-119489235D01*
X95669773Y-119495196D01*
X95645504Y-119498796D01*
X95621000Y-119500000D01*
X94371000Y-119500000D01*
X94346496Y-119498796D01*
X94322227Y-119495196D01*
X94298429Y-119489235D01*
X94275329Y-119480970D01*
X94253151Y-119470480D01*
X94232107Y-119457867D01*
X94212402Y-119443253D01*
X94194223Y-119426777D01*
X94177747Y-119408598D01*
X94163133Y-119388893D01*
X94150520Y-119367849D01*
X94140030Y-119345671D01*
X94131765Y-119322571D01*
X94125804Y-119298773D01*
X94122204Y-119274504D01*
X94121000Y-119250000D01*
X94121000Y-118500000D01*
X94122204Y-118475496D01*
X94125804Y-118451227D01*
X94131765Y-118427429D01*
X94140030Y-118404329D01*
X94150520Y-118382151D01*
X94163133Y-118361107D01*
X94177747Y-118341402D01*
X94194223Y-118323223D01*
X94212402Y-118306747D01*
X94232107Y-118292133D01*
X94253151Y-118279520D01*
X94275329Y-118269030D01*
X94298429Y-118260765D01*
X94322227Y-118254804D01*
X94346496Y-118251204D01*
X94371000Y-118250000D01*
X95621000Y-118250000D01*
X95645504Y-118251204D01*
G37*
G36*
X98820504Y-115451204D02*
G01*
X98844773Y-115454804D01*
X98868571Y-115460765D01*
X98891671Y-115469030D01*
X98913849Y-115479520D01*
X98934893Y-115492133D01*
X98954598Y-115506747D01*
X98972777Y-115523223D01*
X98989253Y-115541402D01*
X99003867Y-115561107D01*
X99016480Y-115582151D01*
X99026970Y-115604329D01*
X99035235Y-115627429D01*
X99041196Y-115651227D01*
X99044796Y-115675496D01*
X99046000Y-115700000D01*
X99046000Y-116450000D01*
X99044796Y-116474504D01*
X99041196Y-116498773D01*
X99035235Y-116522571D01*
X99026970Y-116545671D01*
X99016480Y-116567849D01*
X99003867Y-116588893D01*
X98989253Y-116608598D01*
X98972777Y-116626777D01*
X98954598Y-116643253D01*
X98934893Y-116657867D01*
X98913849Y-116670480D01*
X98891671Y-116680970D01*
X98868571Y-116689235D01*
X98844773Y-116695196D01*
X98820504Y-116698796D01*
X98796000Y-116700000D01*
X97546000Y-116700000D01*
X97521496Y-116698796D01*
X97497227Y-116695196D01*
X97473429Y-116689235D01*
X97450329Y-116680970D01*
X97428151Y-116670480D01*
X97407107Y-116657867D01*
X97387402Y-116643253D01*
X97369223Y-116626777D01*
X97352747Y-116608598D01*
X97338133Y-116588893D01*
X97325520Y-116567849D01*
X97315030Y-116545671D01*
X97306765Y-116522571D01*
X97300804Y-116498773D01*
X97297204Y-116474504D01*
X97296000Y-116450000D01*
X97296000Y-115700000D01*
X97297204Y-115675496D01*
X97300804Y-115651227D01*
X97306765Y-115627429D01*
X97315030Y-115604329D01*
X97325520Y-115582151D01*
X97338133Y-115561107D01*
X97352747Y-115541402D01*
X97369223Y-115523223D01*
X97387402Y-115506747D01*
X97407107Y-115492133D01*
X97428151Y-115479520D01*
X97450329Y-115469030D01*
X97473429Y-115460765D01*
X97497227Y-115454804D01*
X97521496Y-115451204D01*
X97546000Y-115450000D01*
X98796000Y-115450000D01*
X98820504Y-115451204D01*
G37*
G36*
X98820504Y-118251204D02*
G01*
X98844773Y-118254804D01*
X98868571Y-118260765D01*
X98891671Y-118269030D01*
X98913849Y-118279520D01*
X98934893Y-118292133D01*
X98954598Y-118306747D01*
X98972777Y-118323223D01*
X98989253Y-118341402D01*
X99003867Y-118361107D01*
X99016480Y-118382151D01*
X99026970Y-118404329D01*
X99035235Y-118427429D01*
X99041196Y-118451227D01*
X99044796Y-118475496D01*
X99046000Y-118500000D01*
X99046000Y-119250000D01*
X99044796Y-119274504D01*
X99041196Y-119298773D01*
X99035235Y-119322571D01*
X99026970Y-119345671D01*
X99016480Y-119367849D01*
X99003867Y-119388893D01*
X98989253Y-119408598D01*
X98972777Y-119426777D01*
X98954598Y-119443253D01*
X98934893Y-119457867D01*
X98913849Y-119470480D01*
X98891671Y-119480970D01*
X98868571Y-119489235D01*
X98844773Y-119495196D01*
X98820504Y-119498796D01*
X98796000Y-119500000D01*
X97546000Y-119500000D01*
X97521496Y-119498796D01*
X97497227Y-119495196D01*
X97473429Y-119489235D01*
X97450329Y-119480970D01*
X97428151Y-119470480D01*
X97407107Y-119457867D01*
X97387402Y-119443253D01*
X97369223Y-119426777D01*
X97352747Y-119408598D01*
X97338133Y-119388893D01*
X97325520Y-119367849D01*
X97315030Y-119345671D01*
X97306765Y-119322571D01*
X97300804Y-119298773D01*
X97297204Y-119274504D01*
X97296000Y-119250000D01*
X97296000Y-118500000D01*
X97297204Y-118475496D01*
X97300804Y-118451227D01*
X97306765Y-118427429D01*
X97315030Y-118404329D01*
X97325520Y-118382151D01*
X97338133Y-118361107D01*
X97352747Y-118341402D01*
X97369223Y-118323223D01*
X97387402Y-118306747D01*
X97407107Y-118292133D01*
X97428151Y-118279520D01*
X97450329Y-118269030D01*
X97473429Y-118260765D01*
X97497227Y-118254804D01*
X97521496Y-118251204D01*
X97546000Y-118250000D01*
X98796000Y-118250000D01*
X98820504Y-118251204D01*
G37*
D11*
X122682000Y-122104000D03*
X121732000Y-119704000D03*
X123632000Y-119704000D03*
D10*
G36*
X106447504Y-111521204D02*
G01*
X106471773Y-111524804D01*
X106495571Y-111530765D01*
X106518671Y-111539030D01*
X106540849Y-111549520D01*
X106561893Y-111562133D01*
X106581598Y-111576747D01*
X106599777Y-111593223D01*
X106616253Y-111611402D01*
X106630867Y-111631107D01*
X106643480Y-111652151D01*
X106653970Y-111674329D01*
X106662235Y-111697429D01*
X106668196Y-111721227D01*
X106671796Y-111745496D01*
X106673000Y-111770000D01*
X106673000Y-113020000D01*
X106671796Y-113044504D01*
X106668196Y-113068773D01*
X106662235Y-113092571D01*
X106653970Y-113115671D01*
X106643480Y-113137849D01*
X106630867Y-113158893D01*
X106616253Y-113178598D01*
X106599777Y-113196777D01*
X106581598Y-113213253D01*
X106561893Y-113227867D01*
X106540849Y-113240480D01*
X106518671Y-113250970D01*
X106495571Y-113259235D01*
X106471773Y-113265196D01*
X106447504Y-113268796D01*
X106423000Y-113270000D01*
X105673000Y-113270000D01*
X105648496Y-113268796D01*
X105624227Y-113265196D01*
X105600429Y-113259235D01*
X105577329Y-113250970D01*
X105555151Y-113240480D01*
X105534107Y-113227867D01*
X105514402Y-113213253D01*
X105496223Y-113196777D01*
X105479747Y-113178598D01*
X105465133Y-113158893D01*
X105452520Y-113137849D01*
X105442030Y-113115671D01*
X105433765Y-113092571D01*
X105427804Y-113068773D01*
X105424204Y-113044504D01*
X105423000Y-113020000D01*
X105423000Y-111770000D01*
X105424204Y-111745496D01*
X105427804Y-111721227D01*
X105433765Y-111697429D01*
X105442030Y-111674329D01*
X105452520Y-111652151D01*
X105465133Y-111631107D01*
X105479747Y-111611402D01*
X105496223Y-111593223D01*
X105514402Y-111576747D01*
X105534107Y-111562133D01*
X105555151Y-111549520D01*
X105577329Y-111539030D01*
X105600429Y-111530765D01*
X105624227Y-111524804D01*
X105648496Y-111521204D01*
X105673000Y-111520000D01*
X106423000Y-111520000D01*
X106447504Y-111521204D01*
G37*
G36*
X103647504Y-111521204D02*
G01*
X103671773Y-111524804D01*
X103695571Y-111530765D01*
X103718671Y-111539030D01*
X103740849Y-111549520D01*
X103761893Y-111562133D01*
X103781598Y-111576747D01*
X103799777Y-111593223D01*
X103816253Y-111611402D01*
X103830867Y-111631107D01*
X103843480Y-111652151D01*
X103853970Y-111674329D01*
X103862235Y-111697429D01*
X103868196Y-111721227D01*
X103871796Y-111745496D01*
X103873000Y-111770000D01*
X103873000Y-113020000D01*
X103871796Y-113044504D01*
X103868196Y-113068773D01*
X103862235Y-113092571D01*
X103853970Y-113115671D01*
X103843480Y-113137849D01*
X103830867Y-113158893D01*
X103816253Y-113178598D01*
X103799777Y-113196777D01*
X103781598Y-113213253D01*
X103761893Y-113227867D01*
X103740849Y-113240480D01*
X103718671Y-113250970D01*
X103695571Y-113259235D01*
X103671773Y-113265196D01*
X103647504Y-113268796D01*
X103623000Y-113270000D01*
X102873000Y-113270000D01*
X102848496Y-113268796D01*
X102824227Y-113265196D01*
X102800429Y-113259235D01*
X102777329Y-113250970D01*
X102755151Y-113240480D01*
X102734107Y-113227867D01*
X102714402Y-113213253D01*
X102696223Y-113196777D01*
X102679747Y-113178598D01*
X102665133Y-113158893D01*
X102652520Y-113137849D01*
X102642030Y-113115671D01*
X102633765Y-113092571D01*
X102627804Y-113068773D01*
X102624204Y-113044504D01*
X102623000Y-113020000D01*
X102623000Y-111770000D01*
X102624204Y-111745496D01*
X102627804Y-111721227D01*
X102633765Y-111697429D01*
X102642030Y-111674329D01*
X102652520Y-111652151D01*
X102665133Y-111631107D01*
X102679747Y-111611402D01*
X102696223Y-111593223D01*
X102714402Y-111576747D01*
X102734107Y-111562133D01*
X102755151Y-111549520D01*
X102777329Y-111539030D01*
X102800429Y-111530765D01*
X102824227Y-111524804D01*
X102848496Y-111521204D01*
X102873000Y-111520000D01*
X103623000Y-111520000D01*
X103647504Y-111521204D01*
G37*
G36*
X107835703Y-114508722D02*
G01*
X107850264Y-114510882D01*
X107864543Y-114514459D01*
X107878403Y-114519418D01*
X107891710Y-114525712D01*
X107904336Y-114533280D01*
X107916159Y-114542048D01*
X107927066Y-114551934D01*
X107936952Y-114562841D01*
X107945720Y-114574664D01*
X107953288Y-114587290D01*
X107959582Y-114600597D01*
X107964541Y-114614457D01*
X107968118Y-114628736D01*
X107970278Y-114643297D01*
X107971000Y-114658000D01*
X107971000Y-114958000D01*
X107970278Y-114972703D01*
X107968118Y-114987264D01*
X107964541Y-115001543D01*
X107959582Y-115015403D01*
X107953288Y-115028710D01*
X107945720Y-115041336D01*
X107936952Y-115053159D01*
X107927066Y-115064066D01*
X107916159Y-115073952D01*
X107904336Y-115082720D01*
X107891710Y-115090288D01*
X107878403Y-115096582D01*
X107864543Y-115101541D01*
X107850264Y-115105118D01*
X107835703Y-115107278D01*
X107821000Y-115108000D01*
X106171000Y-115108000D01*
X106156297Y-115107278D01*
X106141736Y-115105118D01*
X106127457Y-115101541D01*
X106113597Y-115096582D01*
X106100290Y-115090288D01*
X106087664Y-115082720D01*
X106075841Y-115073952D01*
X106064934Y-115064066D01*
X106055048Y-115053159D01*
X106046280Y-115041336D01*
X106038712Y-115028710D01*
X106032418Y-115015403D01*
X106027459Y-115001543D01*
X106023882Y-114987264D01*
X106021722Y-114972703D01*
X106021000Y-114958000D01*
X106021000Y-114658000D01*
X106021722Y-114643297D01*
X106023882Y-114628736D01*
X106027459Y-114614457D01*
X106032418Y-114600597D01*
X106038712Y-114587290D01*
X106046280Y-114574664D01*
X106055048Y-114562841D01*
X106064934Y-114551934D01*
X106075841Y-114542048D01*
X106087664Y-114533280D01*
X106100290Y-114525712D01*
X106113597Y-114519418D01*
X106127457Y-114514459D01*
X106141736Y-114510882D01*
X106156297Y-114508722D01*
X106171000Y-114508000D01*
X107821000Y-114508000D01*
X107835703Y-114508722D01*
G37*
G36*
X107835703Y-115778722D02*
G01*
X107850264Y-115780882D01*
X107864543Y-115784459D01*
X107878403Y-115789418D01*
X107891710Y-115795712D01*
X107904336Y-115803280D01*
X107916159Y-115812048D01*
X107927066Y-115821934D01*
X107936952Y-115832841D01*
X107945720Y-115844664D01*
X107953288Y-115857290D01*
X107959582Y-115870597D01*
X107964541Y-115884457D01*
X107968118Y-115898736D01*
X107970278Y-115913297D01*
X107971000Y-115928000D01*
X107971000Y-116228000D01*
X107970278Y-116242703D01*
X107968118Y-116257264D01*
X107964541Y-116271543D01*
X107959582Y-116285403D01*
X107953288Y-116298710D01*
X107945720Y-116311336D01*
X107936952Y-116323159D01*
X107927066Y-116334066D01*
X107916159Y-116343952D01*
X107904336Y-116352720D01*
X107891710Y-116360288D01*
X107878403Y-116366582D01*
X107864543Y-116371541D01*
X107850264Y-116375118D01*
X107835703Y-116377278D01*
X107821000Y-116378000D01*
X106171000Y-116378000D01*
X106156297Y-116377278D01*
X106141736Y-116375118D01*
X106127457Y-116371541D01*
X106113597Y-116366582D01*
X106100290Y-116360288D01*
X106087664Y-116352720D01*
X106075841Y-116343952D01*
X106064934Y-116334066D01*
X106055048Y-116323159D01*
X106046280Y-116311336D01*
X106038712Y-116298710D01*
X106032418Y-116285403D01*
X106027459Y-116271543D01*
X106023882Y-116257264D01*
X106021722Y-116242703D01*
X106021000Y-116228000D01*
X106021000Y-115928000D01*
X106021722Y-115913297D01*
X106023882Y-115898736D01*
X106027459Y-115884457D01*
X106032418Y-115870597D01*
X106038712Y-115857290D01*
X106046280Y-115844664D01*
X106055048Y-115832841D01*
X106064934Y-115821934D01*
X106075841Y-115812048D01*
X106087664Y-115803280D01*
X106100290Y-115795712D01*
X106113597Y-115789418D01*
X106127457Y-115784459D01*
X106141736Y-115780882D01*
X106156297Y-115778722D01*
X106171000Y-115778000D01*
X107821000Y-115778000D01*
X107835703Y-115778722D01*
G37*
G36*
X107835703Y-117048722D02*
G01*
X107850264Y-117050882D01*
X107864543Y-117054459D01*
X107878403Y-117059418D01*
X107891710Y-117065712D01*
X107904336Y-117073280D01*
X107916159Y-117082048D01*
X107927066Y-117091934D01*
X107936952Y-117102841D01*
X107945720Y-117114664D01*
X107953288Y-117127290D01*
X107959582Y-117140597D01*
X107964541Y-117154457D01*
X107968118Y-117168736D01*
X107970278Y-117183297D01*
X107971000Y-117198000D01*
X107971000Y-117498000D01*
X107970278Y-117512703D01*
X107968118Y-117527264D01*
X107964541Y-117541543D01*
X107959582Y-117555403D01*
X107953288Y-117568710D01*
X107945720Y-117581336D01*
X107936952Y-117593159D01*
X107927066Y-117604066D01*
X107916159Y-117613952D01*
X107904336Y-117622720D01*
X107891710Y-117630288D01*
X107878403Y-117636582D01*
X107864543Y-117641541D01*
X107850264Y-117645118D01*
X107835703Y-117647278D01*
X107821000Y-117648000D01*
X106171000Y-117648000D01*
X106156297Y-117647278D01*
X106141736Y-117645118D01*
X106127457Y-117641541D01*
X106113597Y-117636582D01*
X106100290Y-117630288D01*
X106087664Y-117622720D01*
X106075841Y-117613952D01*
X106064934Y-117604066D01*
X106055048Y-117593159D01*
X106046280Y-117581336D01*
X106038712Y-117568710D01*
X106032418Y-117555403D01*
X106027459Y-117541543D01*
X106023882Y-117527264D01*
X106021722Y-117512703D01*
X106021000Y-117498000D01*
X106021000Y-117198000D01*
X106021722Y-117183297D01*
X106023882Y-117168736D01*
X106027459Y-117154457D01*
X106032418Y-117140597D01*
X106038712Y-117127290D01*
X106046280Y-117114664D01*
X106055048Y-117102841D01*
X106064934Y-117091934D01*
X106075841Y-117082048D01*
X106087664Y-117073280D01*
X106100290Y-117065712D01*
X106113597Y-117059418D01*
X106127457Y-117054459D01*
X106141736Y-117050882D01*
X106156297Y-117048722D01*
X106171000Y-117048000D01*
X107821000Y-117048000D01*
X107835703Y-117048722D01*
G37*
G36*
X107835703Y-118318722D02*
G01*
X107850264Y-118320882D01*
X107864543Y-118324459D01*
X107878403Y-118329418D01*
X107891710Y-118335712D01*
X107904336Y-118343280D01*
X107916159Y-118352048D01*
X107927066Y-118361934D01*
X107936952Y-118372841D01*
X107945720Y-118384664D01*
X107953288Y-118397290D01*
X107959582Y-118410597D01*
X107964541Y-118424457D01*
X107968118Y-118438736D01*
X107970278Y-118453297D01*
X107971000Y-118468000D01*
X107971000Y-118768000D01*
X107970278Y-118782703D01*
X107968118Y-118797264D01*
X107964541Y-118811543D01*
X107959582Y-118825403D01*
X107953288Y-118838710D01*
X107945720Y-118851336D01*
X107936952Y-118863159D01*
X107927066Y-118874066D01*
X107916159Y-118883952D01*
X107904336Y-118892720D01*
X107891710Y-118900288D01*
X107878403Y-118906582D01*
X107864543Y-118911541D01*
X107850264Y-118915118D01*
X107835703Y-118917278D01*
X107821000Y-118918000D01*
X106171000Y-118918000D01*
X106156297Y-118917278D01*
X106141736Y-118915118D01*
X106127457Y-118911541D01*
X106113597Y-118906582D01*
X106100290Y-118900288D01*
X106087664Y-118892720D01*
X106075841Y-118883952D01*
X106064934Y-118874066D01*
X106055048Y-118863159D01*
X106046280Y-118851336D01*
X106038712Y-118838710D01*
X106032418Y-118825403D01*
X106027459Y-118811543D01*
X106023882Y-118797264D01*
X106021722Y-118782703D01*
X106021000Y-118768000D01*
X106021000Y-118468000D01*
X106021722Y-118453297D01*
X106023882Y-118438736D01*
X106027459Y-118424457D01*
X106032418Y-118410597D01*
X106038712Y-118397290D01*
X106046280Y-118384664D01*
X106055048Y-118372841D01*
X106064934Y-118361934D01*
X106075841Y-118352048D01*
X106087664Y-118343280D01*
X106100290Y-118335712D01*
X106113597Y-118329418D01*
X106127457Y-118324459D01*
X106141736Y-118320882D01*
X106156297Y-118318722D01*
X106171000Y-118318000D01*
X107821000Y-118318000D01*
X107835703Y-118318722D01*
G37*
G36*
X107835703Y-119588722D02*
G01*
X107850264Y-119590882D01*
X107864543Y-119594459D01*
X107878403Y-119599418D01*
X107891710Y-119605712D01*
X107904336Y-119613280D01*
X107916159Y-119622048D01*
X107927066Y-119631934D01*
X107936952Y-119642841D01*
X107945720Y-119654664D01*
X107953288Y-119667290D01*
X107959582Y-119680597D01*
X107964541Y-119694457D01*
X107968118Y-119708736D01*
X107970278Y-119723297D01*
X107971000Y-119738000D01*
X107971000Y-120038000D01*
X107970278Y-120052703D01*
X107968118Y-120067264D01*
X107964541Y-120081543D01*
X107959582Y-120095403D01*
X107953288Y-120108710D01*
X107945720Y-120121336D01*
X107936952Y-120133159D01*
X107927066Y-120144066D01*
X107916159Y-120153952D01*
X107904336Y-120162720D01*
X107891710Y-120170288D01*
X107878403Y-120176582D01*
X107864543Y-120181541D01*
X107850264Y-120185118D01*
X107835703Y-120187278D01*
X107821000Y-120188000D01*
X106171000Y-120188000D01*
X106156297Y-120187278D01*
X106141736Y-120185118D01*
X106127457Y-120181541D01*
X106113597Y-120176582D01*
X106100290Y-120170288D01*
X106087664Y-120162720D01*
X106075841Y-120153952D01*
X106064934Y-120144066D01*
X106055048Y-120133159D01*
X106046280Y-120121336D01*
X106038712Y-120108710D01*
X106032418Y-120095403D01*
X106027459Y-120081543D01*
X106023882Y-120067264D01*
X106021722Y-120052703D01*
X106021000Y-120038000D01*
X106021000Y-119738000D01*
X106021722Y-119723297D01*
X106023882Y-119708736D01*
X106027459Y-119694457D01*
X106032418Y-119680597D01*
X106038712Y-119667290D01*
X106046280Y-119654664D01*
X106055048Y-119642841D01*
X106064934Y-119631934D01*
X106075841Y-119622048D01*
X106087664Y-119613280D01*
X106100290Y-119605712D01*
X106113597Y-119599418D01*
X106127457Y-119594459D01*
X106141736Y-119590882D01*
X106156297Y-119588722D01*
X106171000Y-119588000D01*
X107821000Y-119588000D01*
X107835703Y-119588722D01*
G37*
G36*
X107835703Y-120858722D02*
G01*
X107850264Y-120860882D01*
X107864543Y-120864459D01*
X107878403Y-120869418D01*
X107891710Y-120875712D01*
X107904336Y-120883280D01*
X107916159Y-120892048D01*
X107927066Y-120901934D01*
X107936952Y-120912841D01*
X107945720Y-120924664D01*
X107953288Y-120937290D01*
X107959582Y-120950597D01*
X107964541Y-120964457D01*
X107968118Y-120978736D01*
X107970278Y-120993297D01*
X107971000Y-121008000D01*
X107971000Y-121308000D01*
X107970278Y-121322703D01*
X107968118Y-121337264D01*
X107964541Y-121351543D01*
X107959582Y-121365403D01*
X107953288Y-121378710D01*
X107945720Y-121391336D01*
X107936952Y-121403159D01*
X107927066Y-121414066D01*
X107916159Y-121423952D01*
X107904336Y-121432720D01*
X107891710Y-121440288D01*
X107878403Y-121446582D01*
X107864543Y-121451541D01*
X107850264Y-121455118D01*
X107835703Y-121457278D01*
X107821000Y-121458000D01*
X106171000Y-121458000D01*
X106156297Y-121457278D01*
X106141736Y-121455118D01*
X106127457Y-121451541D01*
X106113597Y-121446582D01*
X106100290Y-121440288D01*
X106087664Y-121432720D01*
X106075841Y-121423952D01*
X106064934Y-121414066D01*
X106055048Y-121403159D01*
X106046280Y-121391336D01*
X106038712Y-121378710D01*
X106032418Y-121365403D01*
X106027459Y-121351543D01*
X106023882Y-121337264D01*
X106021722Y-121322703D01*
X106021000Y-121308000D01*
X106021000Y-121008000D01*
X106021722Y-120993297D01*
X106023882Y-120978736D01*
X106027459Y-120964457D01*
X106032418Y-120950597D01*
X106038712Y-120937290D01*
X106046280Y-120924664D01*
X106055048Y-120912841D01*
X106064934Y-120901934D01*
X106075841Y-120892048D01*
X106087664Y-120883280D01*
X106100290Y-120875712D01*
X106113597Y-120869418D01*
X106127457Y-120864459D01*
X106141736Y-120860882D01*
X106156297Y-120858722D01*
X106171000Y-120858000D01*
X107821000Y-120858000D01*
X107835703Y-120858722D01*
G37*
G36*
X107835703Y-122128722D02*
G01*
X107850264Y-122130882D01*
X107864543Y-122134459D01*
X107878403Y-122139418D01*
X107891710Y-122145712D01*
X107904336Y-122153280D01*
X107916159Y-122162048D01*
X107927066Y-122171934D01*
X107936952Y-122182841D01*
X107945720Y-122194664D01*
X107953288Y-122207290D01*
X107959582Y-122220597D01*
X107964541Y-122234457D01*
X107968118Y-122248736D01*
X107970278Y-122263297D01*
X107971000Y-122278000D01*
X107971000Y-122578000D01*
X107970278Y-122592703D01*
X107968118Y-122607264D01*
X107964541Y-122621543D01*
X107959582Y-122635403D01*
X107953288Y-122648710D01*
X107945720Y-122661336D01*
X107936952Y-122673159D01*
X107927066Y-122684066D01*
X107916159Y-122693952D01*
X107904336Y-122702720D01*
X107891710Y-122710288D01*
X107878403Y-122716582D01*
X107864543Y-122721541D01*
X107850264Y-122725118D01*
X107835703Y-122727278D01*
X107821000Y-122728000D01*
X106171000Y-122728000D01*
X106156297Y-122727278D01*
X106141736Y-122725118D01*
X106127457Y-122721541D01*
X106113597Y-122716582D01*
X106100290Y-122710288D01*
X106087664Y-122702720D01*
X106075841Y-122693952D01*
X106064934Y-122684066D01*
X106055048Y-122673159D01*
X106046280Y-122661336D01*
X106038712Y-122648710D01*
X106032418Y-122635403D01*
X106027459Y-122621543D01*
X106023882Y-122607264D01*
X106021722Y-122592703D01*
X106021000Y-122578000D01*
X106021000Y-122278000D01*
X106021722Y-122263297D01*
X106023882Y-122248736D01*
X106027459Y-122234457D01*
X106032418Y-122220597D01*
X106038712Y-122207290D01*
X106046280Y-122194664D01*
X106055048Y-122182841D01*
X106064934Y-122171934D01*
X106075841Y-122162048D01*
X106087664Y-122153280D01*
X106100290Y-122145712D01*
X106113597Y-122139418D01*
X106127457Y-122134459D01*
X106141736Y-122130882D01*
X106156297Y-122128722D01*
X106171000Y-122128000D01*
X107821000Y-122128000D01*
X107835703Y-122128722D01*
G37*
G36*
X102885703Y-122128722D02*
G01*
X102900264Y-122130882D01*
X102914543Y-122134459D01*
X102928403Y-122139418D01*
X102941710Y-122145712D01*
X102954336Y-122153280D01*
X102966159Y-122162048D01*
X102977066Y-122171934D01*
X102986952Y-122182841D01*
X102995720Y-122194664D01*
X103003288Y-122207290D01*
X103009582Y-122220597D01*
X103014541Y-122234457D01*
X103018118Y-122248736D01*
X103020278Y-122263297D01*
X103021000Y-122278000D01*
X103021000Y-122578000D01*
X103020278Y-122592703D01*
X103018118Y-122607264D01*
X103014541Y-122621543D01*
X103009582Y-122635403D01*
X103003288Y-122648710D01*
X102995720Y-122661336D01*
X102986952Y-122673159D01*
X102977066Y-122684066D01*
X102966159Y-122693952D01*
X102954336Y-122702720D01*
X102941710Y-122710288D01*
X102928403Y-122716582D01*
X102914543Y-122721541D01*
X102900264Y-122725118D01*
X102885703Y-122727278D01*
X102871000Y-122728000D01*
X101221000Y-122728000D01*
X101206297Y-122727278D01*
X101191736Y-122725118D01*
X101177457Y-122721541D01*
X101163597Y-122716582D01*
X101150290Y-122710288D01*
X101137664Y-122702720D01*
X101125841Y-122693952D01*
X101114934Y-122684066D01*
X101105048Y-122673159D01*
X101096280Y-122661336D01*
X101088712Y-122648710D01*
X101082418Y-122635403D01*
X101077459Y-122621543D01*
X101073882Y-122607264D01*
X101071722Y-122592703D01*
X101071000Y-122578000D01*
X101071000Y-122278000D01*
X101071722Y-122263297D01*
X101073882Y-122248736D01*
X101077459Y-122234457D01*
X101082418Y-122220597D01*
X101088712Y-122207290D01*
X101096280Y-122194664D01*
X101105048Y-122182841D01*
X101114934Y-122171934D01*
X101125841Y-122162048D01*
X101137664Y-122153280D01*
X101150290Y-122145712D01*
X101163597Y-122139418D01*
X101177457Y-122134459D01*
X101191736Y-122130882D01*
X101206297Y-122128722D01*
X101221000Y-122128000D01*
X102871000Y-122128000D01*
X102885703Y-122128722D01*
G37*
G36*
X102885703Y-120858722D02*
G01*
X102900264Y-120860882D01*
X102914543Y-120864459D01*
X102928403Y-120869418D01*
X102941710Y-120875712D01*
X102954336Y-120883280D01*
X102966159Y-120892048D01*
X102977066Y-120901934D01*
X102986952Y-120912841D01*
X102995720Y-120924664D01*
X103003288Y-120937290D01*
X103009582Y-120950597D01*
X103014541Y-120964457D01*
X103018118Y-120978736D01*
X103020278Y-120993297D01*
X103021000Y-121008000D01*
X103021000Y-121308000D01*
X103020278Y-121322703D01*
X103018118Y-121337264D01*
X103014541Y-121351543D01*
X103009582Y-121365403D01*
X103003288Y-121378710D01*
X102995720Y-121391336D01*
X102986952Y-121403159D01*
X102977066Y-121414066D01*
X102966159Y-121423952D01*
X102954336Y-121432720D01*
X102941710Y-121440288D01*
X102928403Y-121446582D01*
X102914543Y-121451541D01*
X102900264Y-121455118D01*
X102885703Y-121457278D01*
X102871000Y-121458000D01*
X101221000Y-121458000D01*
X101206297Y-121457278D01*
X101191736Y-121455118D01*
X101177457Y-121451541D01*
X101163597Y-121446582D01*
X101150290Y-121440288D01*
X101137664Y-121432720D01*
X101125841Y-121423952D01*
X101114934Y-121414066D01*
X101105048Y-121403159D01*
X101096280Y-121391336D01*
X101088712Y-121378710D01*
X101082418Y-121365403D01*
X101077459Y-121351543D01*
X101073882Y-121337264D01*
X101071722Y-121322703D01*
X101071000Y-121308000D01*
X101071000Y-121008000D01*
X101071722Y-120993297D01*
X101073882Y-120978736D01*
X101077459Y-120964457D01*
X101082418Y-120950597D01*
X101088712Y-120937290D01*
X101096280Y-120924664D01*
X101105048Y-120912841D01*
X101114934Y-120901934D01*
X101125841Y-120892048D01*
X101137664Y-120883280D01*
X101150290Y-120875712D01*
X101163597Y-120869418D01*
X101177457Y-120864459D01*
X101191736Y-120860882D01*
X101206297Y-120858722D01*
X101221000Y-120858000D01*
X102871000Y-120858000D01*
X102885703Y-120858722D01*
G37*
G36*
X102885703Y-119588722D02*
G01*
X102900264Y-119590882D01*
X102914543Y-119594459D01*
X102928403Y-119599418D01*
X102941710Y-119605712D01*
X102954336Y-119613280D01*
X102966159Y-119622048D01*
X102977066Y-119631934D01*
X102986952Y-119642841D01*
X102995720Y-119654664D01*
X103003288Y-119667290D01*
X103009582Y-119680597D01*
X103014541Y-119694457D01*
X103018118Y-119708736D01*
X103020278Y-119723297D01*
X103021000Y-119738000D01*
X103021000Y-120038000D01*
X103020278Y-120052703D01*
X103018118Y-120067264D01*
X103014541Y-120081543D01*
X103009582Y-120095403D01*
X103003288Y-120108710D01*
X102995720Y-120121336D01*
X102986952Y-120133159D01*
X102977066Y-120144066D01*
X102966159Y-120153952D01*
X102954336Y-120162720D01*
X102941710Y-120170288D01*
X102928403Y-120176582D01*
X102914543Y-120181541D01*
X102900264Y-120185118D01*
X102885703Y-120187278D01*
X102871000Y-120188000D01*
X101221000Y-120188000D01*
X101206297Y-120187278D01*
X101191736Y-120185118D01*
X101177457Y-120181541D01*
X101163597Y-120176582D01*
X101150290Y-120170288D01*
X101137664Y-120162720D01*
X101125841Y-120153952D01*
X101114934Y-120144066D01*
X101105048Y-120133159D01*
X101096280Y-120121336D01*
X101088712Y-120108710D01*
X101082418Y-120095403D01*
X101077459Y-120081543D01*
X101073882Y-120067264D01*
X101071722Y-120052703D01*
X101071000Y-120038000D01*
X101071000Y-119738000D01*
X101071722Y-119723297D01*
X101073882Y-119708736D01*
X101077459Y-119694457D01*
X101082418Y-119680597D01*
X101088712Y-119667290D01*
X101096280Y-119654664D01*
X101105048Y-119642841D01*
X101114934Y-119631934D01*
X101125841Y-119622048D01*
X101137664Y-119613280D01*
X101150290Y-119605712D01*
X101163597Y-119599418D01*
X101177457Y-119594459D01*
X101191736Y-119590882D01*
X101206297Y-119588722D01*
X101221000Y-119588000D01*
X102871000Y-119588000D01*
X102885703Y-119588722D01*
G37*
G36*
X102885703Y-118318722D02*
G01*
X102900264Y-118320882D01*
X102914543Y-118324459D01*
X102928403Y-118329418D01*
X102941710Y-118335712D01*
X102954336Y-118343280D01*
X102966159Y-118352048D01*
X102977066Y-118361934D01*
X102986952Y-118372841D01*
X102995720Y-118384664D01*
X103003288Y-118397290D01*
X103009582Y-118410597D01*
X103014541Y-118424457D01*
X103018118Y-118438736D01*
X103020278Y-118453297D01*
X103021000Y-118468000D01*
X103021000Y-118768000D01*
X103020278Y-118782703D01*
X103018118Y-118797264D01*
X103014541Y-118811543D01*
X103009582Y-118825403D01*
X103003288Y-118838710D01*
X102995720Y-118851336D01*
X102986952Y-118863159D01*
X102977066Y-118874066D01*
X102966159Y-118883952D01*
X102954336Y-118892720D01*
X102941710Y-118900288D01*
X102928403Y-118906582D01*
X102914543Y-118911541D01*
X102900264Y-118915118D01*
X102885703Y-118917278D01*
X102871000Y-118918000D01*
X101221000Y-118918000D01*
X101206297Y-118917278D01*
X101191736Y-118915118D01*
X101177457Y-118911541D01*
X101163597Y-118906582D01*
X101150290Y-118900288D01*
X101137664Y-118892720D01*
X101125841Y-118883952D01*
X101114934Y-118874066D01*
X101105048Y-118863159D01*
X101096280Y-118851336D01*
X101088712Y-118838710D01*
X101082418Y-118825403D01*
X101077459Y-118811543D01*
X101073882Y-118797264D01*
X101071722Y-118782703D01*
X101071000Y-118768000D01*
X101071000Y-118468000D01*
X101071722Y-118453297D01*
X101073882Y-118438736D01*
X101077459Y-118424457D01*
X101082418Y-118410597D01*
X101088712Y-118397290D01*
X101096280Y-118384664D01*
X101105048Y-118372841D01*
X101114934Y-118361934D01*
X101125841Y-118352048D01*
X101137664Y-118343280D01*
X101150290Y-118335712D01*
X101163597Y-118329418D01*
X101177457Y-118324459D01*
X101191736Y-118320882D01*
X101206297Y-118318722D01*
X101221000Y-118318000D01*
X102871000Y-118318000D01*
X102885703Y-118318722D01*
G37*
G36*
X102885703Y-117048722D02*
G01*
X102900264Y-117050882D01*
X102914543Y-117054459D01*
X102928403Y-117059418D01*
X102941710Y-117065712D01*
X102954336Y-117073280D01*
X102966159Y-117082048D01*
X102977066Y-117091934D01*
X102986952Y-117102841D01*
X102995720Y-117114664D01*
X103003288Y-117127290D01*
X103009582Y-117140597D01*
X103014541Y-117154457D01*
X103018118Y-117168736D01*
X103020278Y-117183297D01*
X103021000Y-117198000D01*
X103021000Y-117498000D01*
X103020278Y-117512703D01*
X103018118Y-117527264D01*
X103014541Y-117541543D01*
X103009582Y-117555403D01*
X103003288Y-117568710D01*
X102995720Y-117581336D01*
X102986952Y-117593159D01*
X102977066Y-117604066D01*
X102966159Y-117613952D01*
X102954336Y-117622720D01*
X102941710Y-117630288D01*
X102928403Y-117636582D01*
X102914543Y-117641541D01*
X102900264Y-117645118D01*
X102885703Y-117647278D01*
X102871000Y-117648000D01*
X101221000Y-117648000D01*
X101206297Y-117647278D01*
X101191736Y-117645118D01*
X101177457Y-117641541D01*
X101163597Y-117636582D01*
X101150290Y-117630288D01*
X101137664Y-117622720D01*
X101125841Y-117613952D01*
X101114934Y-117604066D01*
X101105048Y-117593159D01*
X101096280Y-117581336D01*
X101088712Y-117568710D01*
X101082418Y-117555403D01*
X101077459Y-117541543D01*
X101073882Y-117527264D01*
X101071722Y-117512703D01*
X101071000Y-117498000D01*
X101071000Y-117198000D01*
X101071722Y-117183297D01*
X101073882Y-117168736D01*
X101077459Y-117154457D01*
X101082418Y-117140597D01*
X101088712Y-117127290D01*
X101096280Y-117114664D01*
X101105048Y-117102841D01*
X101114934Y-117091934D01*
X101125841Y-117082048D01*
X101137664Y-117073280D01*
X101150290Y-117065712D01*
X101163597Y-117059418D01*
X101177457Y-117054459D01*
X101191736Y-117050882D01*
X101206297Y-117048722D01*
X101221000Y-117048000D01*
X102871000Y-117048000D01*
X102885703Y-117048722D01*
G37*
G36*
X102885703Y-115778722D02*
G01*
X102900264Y-115780882D01*
X102914543Y-115784459D01*
X102928403Y-115789418D01*
X102941710Y-115795712D01*
X102954336Y-115803280D01*
X102966159Y-115812048D01*
X102977066Y-115821934D01*
X102986952Y-115832841D01*
X102995720Y-115844664D01*
X103003288Y-115857290D01*
X103009582Y-115870597D01*
X103014541Y-115884457D01*
X103018118Y-115898736D01*
X103020278Y-115913297D01*
X103021000Y-115928000D01*
X103021000Y-116228000D01*
X103020278Y-116242703D01*
X103018118Y-116257264D01*
X103014541Y-116271543D01*
X103009582Y-116285403D01*
X103003288Y-116298710D01*
X102995720Y-116311336D01*
X102986952Y-116323159D01*
X102977066Y-116334066D01*
X102966159Y-116343952D01*
X102954336Y-116352720D01*
X102941710Y-116360288D01*
X102928403Y-116366582D01*
X102914543Y-116371541D01*
X102900264Y-116375118D01*
X102885703Y-116377278D01*
X102871000Y-116378000D01*
X101221000Y-116378000D01*
X101206297Y-116377278D01*
X101191736Y-116375118D01*
X101177457Y-116371541D01*
X101163597Y-116366582D01*
X101150290Y-116360288D01*
X101137664Y-116352720D01*
X101125841Y-116343952D01*
X101114934Y-116334066D01*
X101105048Y-116323159D01*
X101096280Y-116311336D01*
X101088712Y-116298710D01*
X101082418Y-116285403D01*
X101077459Y-116271543D01*
X101073882Y-116257264D01*
X101071722Y-116242703D01*
X101071000Y-116228000D01*
X101071000Y-115928000D01*
X101071722Y-115913297D01*
X101073882Y-115898736D01*
X101077459Y-115884457D01*
X101082418Y-115870597D01*
X101088712Y-115857290D01*
X101096280Y-115844664D01*
X101105048Y-115832841D01*
X101114934Y-115821934D01*
X101125841Y-115812048D01*
X101137664Y-115803280D01*
X101150290Y-115795712D01*
X101163597Y-115789418D01*
X101177457Y-115784459D01*
X101191736Y-115780882D01*
X101206297Y-115778722D01*
X101221000Y-115778000D01*
X102871000Y-115778000D01*
X102885703Y-115778722D01*
G37*
G36*
X102885703Y-114508722D02*
G01*
X102900264Y-114510882D01*
X102914543Y-114514459D01*
X102928403Y-114519418D01*
X102941710Y-114525712D01*
X102954336Y-114533280D01*
X102966159Y-114542048D01*
X102977066Y-114551934D01*
X102986952Y-114562841D01*
X102995720Y-114574664D01*
X103003288Y-114587290D01*
X103009582Y-114600597D01*
X103014541Y-114614457D01*
X103018118Y-114628736D01*
X103020278Y-114643297D01*
X103021000Y-114658000D01*
X103021000Y-114958000D01*
X103020278Y-114972703D01*
X103018118Y-114987264D01*
X103014541Y-115001543D01*
X103009582Y-115015403D01*
X103003288Y-115028710D01*
X102995720Y-115041336D01*
X102986952Y-115053159D01*
X102977066Y-115064066D01*
X102966159Y-115073952D01*
X102954336Y-115082720D01*
X102941710Y-115090288D01*
X102928403Y-115096582D01*
X102914543Y-115101541D01*
X102900264Y-115105118D01*
X102885703Y-115107278D01*
X102871000Y-115108000D01*
X101221000Y-115108000D01*
X101206297Y-115107278D01*
X101191736Y-115105118D01*
X101177457Y-115101541D01*
X101163597Y-115096582D01*
X101150290Y-115090288D01*
X101137664Y-115082720D01*
X101125841Y-115073952D01*
X101114934Y-115064066D01*
X101105048Y-115053159D01*
X101096280Y-115041336D01*
X101088712Y-115028710D01*
X101082418Y-115015403D01*
X101077459Y-115001543D01*
X101073882Y-114987264D01*
X101071722Y-114972703D01*
X101071000Y-114958000D01*
X101071000Y-114658000D01*
X101071722Y-114643297D01*
X101073882Y-114628736D01*
X101077459Y-114614457D01*
X101082418Y-114600597D01*
X101088712Y-114587290D01*
X101096280Y-114574664D01*
X101105048Y-114562841D01*
X101114934Y-114551934D01*
X101125841Y-114542048D01*
X101137664Y-114533280D01*
X101150290Y-114525712D01*
X101163597Y-114519418D01*
X101177457Y-114514459D01*
X101191736Y-114510882D01*
X101206297Y-114508722D01*
X101221000Y-114508000D01*
X102871000Y-114508000D01*
X102885703Y-114508722D01*
G37*
G36*
X101237504Y-133238204D02*
G01*
X101261773Y-133241804D01*
X101285571Y-133247765D01*
X101308671Y-133256030D01*
X101330849Y-133266520D01*
X101351893Y-133279133D01*
X101371598Y-133293747D01*
X101389777Y-133310223D01*
X101406253Y-133328402D01*
X101420867Y-133348107D01*
X101433480Y-133369151D01*
X101443970Y-133391329D01*
X101452235Y-133414429D01*
X101458196Y-133438227D01*
X101461796Y-133462496D01*
X101463000Y-133487000D01*
X101463000Y-134737000D01*
X101461796Y-134761504D01*
X101458196Y-134785773D01*
X101452235Y-134809571D01*
X101443970Y-134832671D01*
X101433480Y-134854849D01*
X101420867Y-134875893D01*
X101406253Y-134895598D01*
X101389777Y-134913777D01*
X101371598Y-134930253D01*
X101351893Y-134944867D01*
X101330849Y-134957480D01*
X101308671Y-134967970D01*
X101285571Y-134976235D01*
X101261773Y-134982196D01*
X101237504Y-134985796D01*
X101213000Y-134987000D01*
X100463000Y-134987000D01*
X100438496Y-134985796D01*
X100414227Y-134982196D01*
X100390429Y-134976235D01*
X100367329Y-134967970D01*
X100345151Y-134957480D01*
X100324107Y-134944867D01*
X100304402Y-134930253D01*
X100286223Y-134913777D01*
X100269747Y-134895598D01*
X100255133Y-134875893D01*
X100242520Y-134854849D01*
X100232030Y-134832671D01*
X100223765Y-134809571D01*
X100217804Y-134785773D01*
X100214204Y-134761504D01*
X100213000Y-134737000D01*
X100213000Y-133487000D01*
X100214204Y-133462496D01*
X100217804Y-133438227D01*
X100223765Y-133414429D01*
X100232030Y-133391329D01*
X100242520Y-133369151D01*
X100255133Y-133348107D01*
X100269747Y-133328402D01*
X100286223Y-133310223D01*
X100304402Y-133293747D01*
X100324107Y-133279133D01*
X100345151Y-133266520D01*
X100367329Y-133256030D01*
X100390429Y-133247765D01*
X100414227Y-133241804D01*
X100438496Y-133238204D01*
X100463000Y-133237000D01*
X101213000Y-133237000D01*
X101237504Y-133238204D01*
G37*
G36*
X104037504Y-133238204D02*
G01*
X104061773Y-133241804D01*
X104085571Y-133247765D01*
X104108671Y-133256030D01*
X104130849Y-133266520D01*
X104151893Y-133279133D01*
X104171598Y-133293747D01*
X104189777Y-133310223D01*
X104206253Y-133328402D01*
X104220867Y-133348107D01*
X104233480Y-133369151D01*
X104243970Y-133391329D01*
X104252235Y-133414429D01*
X104258196Y-133438227D01*
X104261796Y-133462496D01*
X104263000Y-133487000D01*
X104263000Y-134737000D01*
X104261796Y-134761504D01*
X104258196Y-134785773D01*
X104252235Y-134809571D01*
X104243970Y-134832671D01*
X104233480Y-134854849D01*
X104220867Y-134875893D01*
X104206253Y-134895598D01*
X104189777Y-134913777D01*
X104171598Y-134930253D01*
X104151893Y-134944867D01*
X104130849Y-134957480D01*
X104108671Y-134967970D01*
X104085571Y-134976235D01*
X104061773Y-134982196D01*
X104037504Y-134985796D01*
X104013000Y-134987000D01*
X103263000Y-134987000D01*
X103238496Y-134985796D01*
X103214227Y-134982196D01*
X103190429Y-134976235D01*
X103167329Y-134967970D01*
X103145151Y-134957480D01*
X103124107Y-134944867D01*
X103104402Y-134930253D01*
X103086223Y-134913777D01*
X103069747Y-134895598D01*
X103055133Y-134875893D01*
X103042520Y-134854849D01*
X103032030Y-134832671D01*
X103023765Y-134809571D01*
X103017804Y-134785773D01*
X103014204Y-134761504D01*
X103013000Y-134737000D01*
X103013000Y-133487000D01*
X103014204Y-133462496D01*
X103017804Y-133438227D01*
X103023765Y-133414429D01*
X103032030Y-133391329D01*
X103042520Y-133369151D01*
X103055133Y-133348107D01*
X103069747Y-133328402D01*
X103086223Y-133310223D01*
X103104402Y-133293747D01*
X103124107Y-133279133D01*
X103145151Y-133266520D01*
X103167329Y-133256030D01*
X103190429Y-133247765D01*
X103214227Y-133241804D01*
X103238496Y-133238204D01*
X103263000Y-133237000D01*
X104013000Y-133237000D01*
X104037504Y-133238204D01*
G37*
D11*
X118684000Y-122104000D03*
X117734000Y-119704000D03*
X119634000Y-119704000D03*
D10*
G36*
X102347000Y-142227398D02*
G01*
X102322466Y-142227398D01*
X102273635Y-142222588D01*
X102225510Y-142213016D01*
X102178555Y-142198772D01*
X102133222Y-142179995D01*
X102089949Y-142156864D01*
X102049150Y-142129604D01*
X102011221Y-142098476D01*
X101976524Y-142063779D01*
X101945396Y-142025850D01*
X101918136Y-141985051D01*
X101895005Y-141941778D01*
X101876228Y-141896445D01*
X101861984Y-141849490D01*
X101852412Y-141801365D01*
X101847602Y-141752534D01*
X101847602Y-141728000D01*
X101847000Y-141728000D01*
X101847000Y-141228000D01*
X101847602Y-141228000D01*
X101847602Y-141203466D01*
X101852412Y-141154635D01*
X101861984Y-141106510D01*
X101876228Y-141059555D01*
X101895005Y-141014222D01*
X101918136Y-140970949D01*
X101945396Y-140930150D01*
X101976524Y-140892221D01*
X102011221Y-140857524D01*
X102049150Y-140826396D01*
X102089949Y-140799136D01*
X102133222Y-140776005D01*
X102178555Y-140757228D01*
X102225510Y-140742984D01*
X102273635Y-140733412D01*
X102322466Y-140728602D01*
X102347000Y-140728602D01*
X102347000Y-140728000D01*
X102847000Y-140728000D01*
X102847000Y-142228000D01*
X102347000Y-142228000D01*
X102347000Y-142227398D01*
G37*
G36*
X103147000Y-140728000D02*
G01*
X103647000Y-140728000D01*
X103647000Y-140728602D01*
X103671534Y-140728602D01*
X103720365Y-140733412D01*
X103768490Y-140742984D01*
X103815445Y-140757228D01*
X103860778Y-140776005D01*
X103904051Y-140799136D01*
X103944850Y-140826396D01*
X103982779Y-140857524D01*
X104017476Y-140892221D01*
X104048604Y-140930150D01*
X104075864Y-140970949D01*
X104098995Y-141014222D01*
X104117772Y-141059555D01*
X104132016Y-141106510D01*
X104141588Y-141154635D01*
X104146398Y-141203466D01*
X104146398Y-141228000D01*
X104147000Y-141228000D01*
X104147000Y-141728000D01*
X104146398Y-141728000D01*
X104146398Y-141752534D01*
X104141588Y-141801365D01*
X104132016Y-141849490D01*
X104117772Y-141896445D01*
X104098995Y-141941778D01*
X104075864Y-141985051D01*
X104048604Y-142025850D01*
X104017476Y-142063779D01*
X103982779Y-142098476D01*
X103944850Y-142129604D01*
X103904051Y-142156864D01*
X103860778Y-142179995D01*
X103815445Y-142198772D01*
X103768490Y-142213016D01*
X103720365Y-142222588D01*
X103671534Y-142227398D01*
X103647000Y-142227398D01*
X103647000Y-142228000D01*
X103147000Y-142228000D01*
X103147000Y-140728000D01*
G37*
D12*
X91948000Y-146543000D03*
X91948000Y-141493000D03*
X94488000Y-146543000D03*
X94488000Y-141493000D03*
X97028000Y-146543000D03*
X97028000Y-141493000D03*
D13*
X103666000Y-131064000D03*
X100366000Y-131064000D03*
D10*
G36*
X104034504Y-126507204D02*
G01*
X104058773Y-126510804D01*
X104082571Y-126516765D01*
X104105671Y-126525030D01*
X104127849Y-126535520D01*
X104148893Y-126548133D01*
X104168598Y-126562747D01*
X104186777Y-126579223D01*
X104203253Y-126597402D01*
X104217867Y-126617107D01*
X104230480Y-126638151D01*
X104240970Y-126660329D01*
X104249235Y-126683429D01*
X104255196Y-126707227D01*
X104258796Y-126731496D01*
X104260000Y-126756000D01*
X104260000Y-128006000D01*
X104258796Y-128030504D01*
X104255196Y-128054773D01*
X104249235Y-128078571D01*
X104240970Y-128101671D01*
X104230480Y-128123849D01*
X104217867Y-128144893D01*
X104203253Y-128164598D01*
X104186777Y-128182777D01*
X104168598Y-128199253D01*
X104148893Y-128213867D01*
X104127849Y-128226480D01*
X104105671Y-128236970D01*
X104082571Y-128245235D01*
X104058773Y-128251196D01*
X104034504Y-128254796D01*
X104010000Y-128256000D01*
X103260000Y-128256000D01*
X103235496Y-128254796D01*
X103211227Y-128251196D01*
X103187429Y-128245235D01*
X103164329Y-128236970D01*
X103142151Y-128226480D01*
X103121107Y-128213867D01*
X103101402Y-128199253D01*
X103083223Y-128182777D01*
X103066747Y-128164598D01*
X103052133Y-128144893D01*
X103039520Y-128123849D01*
X103029030Y-128101671D01*
X103020765Y-128078571D01*
X103014804Y-128054773D01*
X103011204Y-128030504D01*
X103010000Y-128006000D01*
X103010000Y-126756000D01*
X103011204Y-126731496D01*
X103014804Y-126707227D01*
X103020765Y-126683429D01*
X103029030Y-126660329D01*
X103039520Y-126638151D01*
X103052133Y-126617107D01*
X103066747Y-126597402D01*
X103083223Y-126579223D01*
X103101402Y-126562747D01*
X103121107Y-126548133D01*
X103142151Y-126535520D01*
X103164329Y-126525030D01*
X103187429Y-126516765D01*
X103211227Y-126510804D01*
X103235496Y-126507204D01*
X103260000Y-126506000D01*
X104010000Y-126506000D01*
X104034504Y-126507204D01*
G37*
G36*
X101234504Y-126507204D02*
G01*
X101258773Y-126510804D01*
X101282571Y-126516765D01*
X101305671Y-126525030D01*
X101327849Y-126535520D01*
X101348893Y-126548133D01*
X101368598Y-126562747D01*
X101386777Y-126579223D01*
X101403253Y-126597402D01*
X101417867Y-126617107D01*
X101430480Y-126638151D01*
X101440970Y-126660329D01*
X101449235Y-126683429D01*
X101455196Y-126707227D01*
X101458796Y-126731496D01*
X101460000Y-126756000D01*
X101460000Y-128006000D01*
X101458796Y-128030504D01*
X101455196Y-128054773D01*
X101449235Y-128078571D01*
X101440970Y-128101671D01*
X101430480Y-128123849D01*
X101417867Y-128144893D01*
X101403253Y-128164598D01*
X101386777Y-128182777D01*
X101368598Y-128199253D01*
X101348893Y-128213867D01*
X101327849Y-128226480D01*
X101305671Y-128236970D01*
X101282571Y-128245235D01*
X101258773Y-128251196D01*
X101234504Y-128254796D01*
X101210000Y-128256000D01*
X100460000Y-128256000D01*
X100435496Y-128254796D01*
X100411227Y-128251196D01*
X100387429Y-128245235D01*
X100364329Y-128236970D01*
X100342151Y-128226480D01*
X100321107Y-128213867D01*
X100301402Y-128199253D01*
X100283223Y-128182777D01*
X100266747Y-128164598D01*
X100252133Y-128144893D01*
X100239520Y-128123849D01*
X100229030Y-128101671D01*
X100220765Y-128078571D01*
X100214804Y-128054773D01*
X100211204Y-128030504D01*
X100210000Y-128006000D01*
X100210000Y-126756000D01*
X100211204Y-126731496D01*
X100214804Y-126707227D01*
X100220765Y-126683429D01*
X100229030Y-126660329D01*
X100239520Y-126638151D01*
X100252133Y-126617107D01*
X100266747Y-126597402D01*
X100283223Y-126579223D01*
X100301402Y-126562747D01*
X100321107Y-126548133D01*
X100342151Y-126535520D01*
X100364329Y-126525030D01*
X100387429Y-126516765D01*
X100411227Y-126510804D01*
X100435496Y-126507204D01*
X100460000Y-126506000D01*
X101210000Y-126506000D01*
X101234504Y-126507204D01*
G37*
G36*
X106574504Y-145684204D02*
G01*
X106598773Y-145687804D01*
X106622571Y-145693765D01*
X106645671Y-145702030D01*
X106667849Y-145712520D01*
X106688893Y-145725133D01*
X106708598Y-145739747D01*
X106726777Y-145756223D01*
X106743253Y-145774402D01*
X106757867Y-145794107D01*
X106770480Y-145815151D01*
X106780970Y-145837329D01*
X106789235Y-145860429D01*
X106795196Y-145884227D01*
X106798796Y-145908496D01*
X106800000Y-145933000D01*
X106800000Y-147183000D01*
X106798796Y-147207504D01*
X106795196Y-147231773D01*
X106789235Y-147255571D01*
X106780970Y-147278671D01*
X106770480Y-147300849D01*
X106757867Y-147321893D01*
X106743253Y-147341598D01*
X106726777Y-147359777D01*
X106708598Y-147376253D01*
X106688893Y-147390867D01*
X106667849Y-147403480D01*
X106645671Y-147413970D01*
X106622571Y-147422235D01*
X106598773Y-147428196D01*
X106574504Y-147431796D01*
X106550000Y-147433000D01*
X105800000Y-147433000D01*
X105775496Y-147431796D01*
X105751227Y-147428196D01*
X105727429Y-147422235D01*
X105704329Y-147413970D01*
X105682151Y-147403480D01*
X105661107Y-147390867D01*
X105641402Y-147376253D01*
X105623223Y-147359777D01*
X105606747Y-147341598D01*
X105592133Y-147321893D01*
X105579520Y-147300849D01*
X105569030Y-147278671D01*
X105560765Y-147255571D01*
X105554804Y-147231773D01*
X105551204Y-147207504D01*
X105550000Y-147183000D01*
X105550000Y-145933000D01*
X105551204Y-145908496D01*
X105554804Y-145884227D01*
X105560765Y-145860429D01*
X105569030Y-145837329D01*
X105579520Y-145815151D01*
X105592133Y-145794107D01*
X105606747Y-145774402D01*
X105623223Y-145756223D01*
X105641402Y-145739747D01*
X105661107Y-145725133D01*
X105682151Y-145712520D01*
X105704329Y-145702030D01*
X105727429Y-145693765D01*
X105751227Y-145687804D01*
X105775496Y-145684204D01*
X105800000Y-145683000D01*
X106550000Y-145683000D01*
X106574504Y-145684204D01*
G37*
G36*
X103774504Y-145684204D02*
G01*
X103798773Y-145687804D01*
X103822571Y-145693765D01*
X103845671Y-145702030D01*
X103867849Y-145712520D01*
X103888893Y-145725133D01*
X103908598Y-145739747D01*
X103926777Y-145756223D01*
X103943253Y-145774402D01*
X103957867Y-145794107D01*
X103970480Y-145815151D01*
X103980970Y-145837329D01*
X103989235Y-145860429D01*
X103995196Y-145884227D01*
X103998796Y-145908496D01*
X104000000Y-145933000D01*
X104000000Y-147183000D01*
X103998796Y-147207504D01*
X103995196Y-147231773D01*
X103989235Y-147255571D01*
X103980970Y-147278671D01*
X103970480Y-147300849D01*
X103957867Y-147321893D01*
X103943253Y-147341598D01*
X103926777Y-147359777D01*
X103908598Y-147376253D01*
X103888893Y-147390867D01*
X103867849Y-147403480D01*
X103845671Y-147413970D01*
X103822571Y-147422235D01*
X103798773Y-147428196D01*
X103774504Y-147431796D01*
X103750000Y-147433000D01*
X103000000Y-147433000D01*
X102975496Y-147431796D01*
X102951227Y-147428196D01*
X102927429Y-147422235D01*
X102904329Y-147413970D01*
X102882151Y-147403480D01*
X102861107Y-147390867D01*
X102841402Y-147376253D01*
X102823223Y-147359777D01*
X102806747Y-147341598D01*
X102792133Y-147321893D01*
X102779520Y-147300849D01*
X102769030Y-147278671D01*
X102760765Y-147255571D01*
X102754804Y-147231773D01*
X102751204Y-147207504D01*
X102750000Y-147183000D01*
X102750000Y-145933000D01*
X102751204Y-145908496D01*
X102754804Y-145884227D01*
X102760765Y-145860429D01*
X102769030Y-145837329D01*
X102779520Y-145815151D01*
X102792133Y-145794107D01*
X102806747Y-145774402D01*
X102823223Y-145756223D01*
X102841402Y-145739747D01*
X102861107Y-145725133D01*
X102882151Y-145712520D01*
X102904329Y-145702030D01*
X102927429Y-145693765D01*
X102951227Y-145687804D01*
X102975496Y-145684204D01*
X103000000Y-145683000D01*
X103750000Y-145683000D01*
X103774504Y-145684204D01*
G37*
G36*
X109615504Y-142254204D02*
G01*
X109639773Y-142257804D01*
X109663571Y-142263765D01*
X109686671Y-142272030D01*
X109708849Y-142282520D01*
X109729893Y-142295133D01*
X109749598Y-142309747D01*
X109767777Y-142326223D01*
X109784253Y-142344402D01*
X109798867Y-142364107D01*
X109811480Y-142385151D01*
X109821970Y-142407329D01*
X109830235Y-142430429D01*
X109836196Y-142454227D01*
X109839796Y-142478496D01*
X109841000Y-142503000D01*
X109841000Y-143253000D01*
X109839796Y-143277504D01*
X109836196Y-143301773D01*
X109830235Y-143325571D01*
X109821970Y-143348671D01*
X109811480Y-143370849D01*
X109798867Y-143391893D01*
X109784253Y-143411598D01*
X109767777Y-143429777D01*
X109749598Y-143446253D01*
X109729893Y-143460867D01*
X109708849Y-143473480D01*
X109686671Y-143483970D01*
X109663571Y-143492235D01*
X109639773Y-143498196D01*
X109615504Y-143501796D01*
X109591000Y-143503000D01*
X108341000Y-143503000D01*
X108316496Y-143501796D01*
X108292227Y-143498196D01*
X108268429Y-143492235D01*
X108245329Y-143483970D01*
X108223151Y-143473480D01*
X108202107Y-143460867D01*
X108182402Y-143446253D01*
X108164223Y-143429777D01*
X108147747Y-143411598D01*
X108133133Y-143391893D01*
X108120520Y-143370849D01*
X108110030Y-143348671D01*
X108101765Y-143325571D01*
X108095804Y-143301773D01*
X108092204Y-143277504D01*
X108091000Y-143253000D01*
X108091000Y-142503000D01*
X108092204Y-142478496D01*
X108095804Y-142454227D01*
X108101765Y-142430429D01*
X108110030Y-142407329D01*
X108120520Y-142385151D01*
X108133133Y-142364107D01*
X108147747Y-142344402D01*
X108164223Y-142326223D01*
X108182402Y-142309747D01*
X108202107Y-142295133D01*
X108223151Y-142282520D01*
X108245329Y-142272030D01*
X108268429Y-142263765D01*
X108292227Y-142257804D01*
X108316496Y-142254204D01*
X108341000Y-142253000D01*
X109591000Y-142253000D01*
X109615504Y-142254204D01*
G37*
G36*
X109615504Y-139454204D02*
G01*
X109639773Y-139457804D01*
X109663571Y-139463765D01*
X109686671Y-139472030D01*
X109708849Y-139482520D01*
X109729893Y-139495133D01*
X109749598Y-139509747D01*
X109767777Y-139526223D01*
X109784253Y-139544402D01*
X109798867Y-139564107D01*
X109811480Y-139585151D01*
X109821970Y-139607329D01*
X109830235Y-139630429D01*
X109836196Y-139654227D01*
X109839796Y-139678496D01*
X109841000Y-139703000D01*
X109841000Y-140453000D01*
X109839796Y-140477504D01*
X109836196Y-140501773D01*
X109830235Y-140525571D01*
X109821970Y-140548671D01*
X109811480Y-140570849D01*
X109798867Y-140591893D01*
X109784253Y-140611598D01*
X109767777Y-140629777D01*
X109749598Y-140646253D01*
X109729893Y-140660867D01*
X109708849Y-140673480D01*
X109686671Y-140683970D01*
X109663571Y-140692235D01*
X109639773Y-140698196D01*
X109615504Y-140701796D01*
X109591000Y-140703000D01*
X108341000Y-140703000D01*
X108316496Y-140701796D01*
X108292227Y-140698196D01*
X108268429Y-140692235D01*
X108245329Y-140683970D01*
X108223151Y-140673480D01*
X108202107Y-140660867D01*
X108182402Y-140646253D01*
X108164223Y-140629777D01*
X108147747Y-140611598D01*
X108133133Y-140591893D01*
X108120520Y-140570849D01*
X108110030Y-140548671D01*
X108101765Y-140525571D01*
X108095804Y-140501773D01*
X108092204Y-140477504D01*
X108091000Y-140453000D01*
X108091000Y-139703000D01*
X108092204Y-139678496D01*
X108095804Y-139654227D01*
X108101765Y-139630429D01*
X108110030Y-139607329D01*
X108120520Y-139585151D01*
X108133133Y-139564107D01*
X108147747Y-139544402D01*
X108164223Y-139526223D01*
X108182402Y-139509747D01*
X108202107Y-139495133D01*
X108223151Y-139482520D01*
X108245329Y-139472030D01*
X108268429Y-139463765D01*
X108292227Y-139457804D01*
X108316496Y-139454204D01*
X108341000Y-139453000D01*
X109591000Y-139453000D01*
X109615504Y-139454204D01*
G37*
G36*
X119521504Y-126252204D02*
G01*
X119545773Y-126255804D01*
X119569571Y-126261765D01*
X119592671Y-126270030D01*
X119614849Y-126280520D01*
X119635893Y-126293133D01*
X119655598Y-126307747D01*
X119673777Y-126324223D01*
X119690253Y-126342402D01*
X119704867Y-126362107D01*
X119717480Y-126383151D01*
X119727970Y-126405329D01*
X119736235Y-126428429D01*
X119742196Y-126452227D01*
X119745796Y-126476496D01*
X119747000Y-126501000D01*
X119747000Y-127251000D01*
X119745796Y-127275504D01*
X119742196Y-127299773D01*
X119736235Y-127323571D01*
X119727970Y-127346671D01*
X119717480Y-127368849D01*
X119704867Y-127389893D01*
X119690253Y-127409598D01*
X119673777Y-127427777D01*
X119655598Y-127444253D01*
X119635893Y-127458867D01*
X119614849Y-127471480D01*
X119592671Y-127481970D01*
X119569571Y-127490235D01*
X119545773Y-127496196D01*
X119521504Y-127499796D01*
X119497000Y-127501000D01*
X118247000Y-127501000D01*
X118222496Y-127499796D01*
X118198227Y-127496196D01*
X118174429Y-127490235D01*
X118151329Y-127481970D01*
X118129151Y-127471480D01*
X118108107Y-127458867D01*
X118088402Y-127444253D01*
X118070223Y-127427777D01*
X118053747Y-127409598D01*
X118039133Y-127389893D01*
X118026520Y-127368849D01*
X118016030Y-127346671D01*
X118007765Y-127323571D01*
X118001804Y-127299773D01*
X117998204Y-127275504D01*
X117997000Y-127251000D01*
X117997000Y-126501000D01*
X117998204Y-126476496D01*
X118001804Y-126452227D01*
X118007765Y-126428429D01*
X118016030Y-126405329D01*
X118026520Y-126383151D01*
X118039133Y-126362107D01*
X118053747Y-126342402D01*
X118070223Y-126324223D01*
X118088402Y-126307747D01*
X118108107Y-126293133D01*
X118129151Y-126280520D01*
X118151329Y-126270030D01*
X118174429Y-126261765D01*
X118198227Y-126255804D01*
X118222496Y-126252204D01*
X118247000Y-126251000D01*
X119497000Y-126251000D01*
X119521504Y-126252204D01*
G37*
G36*
X119521504Y-123452204D02*
G01*
X119545773Y-123455804D01*
X119569571Y-123461765D01*
X119592671Y-123470030D01*
X119614849Y-123480520D01*
X119635893Y-123493133D01*
X119655598Y-123507747D01*
X119673777Y-123524223D01*
X119690253Y-123542402D01*
X119704867Y-123562107D01*
X119717480Y-123583151D01*
X119727970Y-123605329D01*
X119736235Y-123628429D01*
X119742196Y-123652227D01*
X119745796Y-123676496D01*
X119747000Y-123701000D01*
X119747000Y-124451000D01*
X119745796Y-124475504D01*
X119742196Y-124499773D01*
X119736235Y-124523571D01*
X119727970Y-124546671D01*
X119717480Y-124568849D01*
X119704867Y-124589893D01*
X119690253Y-124609598D01*
X119673777Y-124627777D01*
X119655598Y-124644253D01*
X119635893Y-124658867D01*
X119614849Y-124671480D01*
X119592671Y-124681970D01*
X119569571Y-124690235D01*
X119545773Y-124696196D01*
X119521504Y-124699796D01*
X119497000Y-124701000D01*
X118247000Y-124701000D01*
X118222496Y-124699796D01*
X118198227Y-124696196D01*
X118174429Y-124690235D01*
X118151329Y-124681970D01*
X118129151Y-124671480D01*
X118108107Y-124658867D01*
X118088402Y-124644253D01*
X118070223Y-124627777D01*
X118053747Y-124609598D01*
X118039133Y-124589893D01*
X118026520Y-124568849D01*
X118016030Y-124546671D01*
X118007765Y-124523571D01*
X118001804Y-124499773D01*
X117998204Y-124475504D01*
X117997000Y-124451000D01*
X117997000Y-123701000D01*
X117998204Y-123676496D01*
X118001804Y-123652227D01*
X118007765Y-123628429D01*
X118016030Y-123605329D01*
X118026520Y-123583151D01*
X118039133Y-123562107D01*
X118053747Y-123542402D01*
X118070223Y-123524223D01*
X118088402Y-123507747D01*
X118108107Y-123493133D01*
X118129151Y-123480520D01*
X118151329Y-123470030D01*
X118174429Y-123461765D01*
X118198227Y-123455804D01*
X118222496Y-123452204D01*
X118247000Y-123451000D01*
X119497000Y-123451000D01*
X119521504Y-123452204D01*
G37*
G36*
X122950504Y-126252204D02*
G01*
X122974773Y-126255804D01*
X122998571Y-126261765D01*
X123021671Y-126270030D01*
X123043849Y-126280520D01*
X123064893Y-126293133D01*
X123084598Y-126307747D01*
X123102777Y-126324223D01*
X123119253Y-126342402D01*
X123133867Y-126362107D01*
X123146480Y-126383151D01*
X123156970Y-126405329D01*
X123165235Y-126428429D01*
X123171196Y-126452227D01*
X123174796Y-126476496D01*
X123176000Y-126501000D01*
X123176000Y-127251000D01*
X123174796Y-127275504D01*
X123171196Y-127299773D01*
X123165235Y-127323571D01*
X123156970Y-127346671D01*
X123146480Y-127368849D01*
X123133867Y-127389893D01*
X123119253Y-127409598D01*
X123102777Y-127427777D01*
X123084598Y-127444253D01*
X123064893Y-127458867D01*
X123043849Y-127471480D01*
X123021671Y-127481970D01*
X122998571Y-127490235D01*
X122974773Y-127496196D01*
X122950504Y-127499796D01*
X122926000Y-127501000D01*
X121676000Y-127501000D01*
X121651496Y-127499796D01*
X121627227Y-127496196D01*
X121603429Y-127490235D01*
X121580329Y-127481970D01*
X121558151Y-127471480D01*
X121537107Y-127458867D01*
X121517402Y-127444253D01*
X121499223Y-127427777D01*
X121482747Y-127409598D01*
X121468133Y-127389893D01*
X121455520Y-127368849D01*
X121445030Y-127346671D01*
X121436765Y-127323571D01*
X121430804Y-127299773D01*
X121427204Y-127275504D01*
X121426000Y-127251000D01*
X121426000Y-126501000D01*
X121427204Y-126476496D01*
X121430804Y-126452227D01*
X121436765Y-126428429D01*
X121445030Y-126405329D01*
X121455520Y-126383151D01*
X121468133Y-126362107D01*
X121482747Y-126342402D01*
X121499223Y-126324223D01*
X121517402Y-126307747D01*
X121537107Y-126293133D01*
X121558151Y-126280520D01*
X121580329Y-126270030D01*
X121603429Y-126261765D01*
X121627227Y-126255804D01*
X121651496Y-126252204D01*
X121676000Y-126251000D01*
X122926000Y-126251000D01*
X122950504Y-126252204D01*
G37*
G36*
X122950504Y-123452204D02*
G01*
X122974773Y-123455804D01*
X122998571Y-123461765D01*
X123021671Y-123470030D01*
X123043849Y-123480520D01*
X123064893Y-123493133D01*
X123084598Y-123507747D01*
X123102777Y-123524223D01*
X123119253Y-123542402D01*
X123133867Y-123562107D01*
X123146480Y-123583151D01*
X123156970Y-123605329D01*
X123165235Y-123628429D01*
X123171196Y-123652227D01*
X123174796Y-123676496D01*
X123176000Y-123701000D01*
X123176000Y-124451000D01*
X123174796Y-124475504D01*
X123171196Y-124499773D01*
X123165235Y-124523571D01*
X123156970Y-124546671D01*
X123146480Y-124568849D01*
X123133867Y-124589893D01*
X123119253Y-124609598D01*
X123102777Y-124627777D01*
X123084598Y-124644253D01*
X123064893Y-124658867D01*
X123043849Y-124671480D01*
X123021671Y-124681970D01*
X122998571Y-124690235D01*
X122974773Y-124696196D01*
X122950504Y-124699796D01*
X122926000Y-124701000D01*
X121676000Y-124701000D01*
X121651496Y-124699796D01*
X121627227Y-124696196D01*
X121603429Y-124690235D01*
X121580329Y-124681970D01*
X121558151Y-124671480D01*
X121537107Y-124658867D01*
X121517402Y-124644253D01*
X121499223Y-124627777D01*
X121482747Y-124609598D01*
X121468133Y-124589893D01*
X121455520Y-124568849D01*
X121445030Y-124546671D01*
X121436765Y-124523571D01*
X121430804Y-124499773D01*
X121427204Y-124475504D01*
X121426000Y-124451000D01*
X121426000Y-123701000D01*
X121427204Y-123676496D01*
X121430804Y-123652227D01*
X121436765Y-123628429D01*
X121445030Y-123605329D01*
X121455520Y-123583151D01*
X121468133Y-123562107D01*
X121482747Y-123542402D01*
X121499223Y-123524223D01*
X121517402Y-123507747D01*
X121537107Y-123493133D01*
X121558151Y-123480520D01*
X121580329Y-123470030D01*
X121603429Y-123461765D01*
X121627227Y-123455804D01*
X121651496Y-123452204D01*
X121676000Y-123451000D01*
X122926000Y-123451000D01*
X122950504Y-123452204D01*
G37*
G36*
X122925104Y-113289204D02*
G01*
X122949373Y-113292804D01*
X122973171Y-113298765D01*
X122996271Y-113307030D01*
X123018449Y-113317520D01*
X123039493Y-113330133D01*
X123059198Y-113344747D01*
X123077377Y-113361223D01*
X123093853Y-113379402D01*
X123108467Y-113399107D01*
X123121080Y-113420151D01*
X123131570Y-113442329D01*
X123139835Y-113465429D01*
X123145796Y-113489227D01*
X123149396Y-113513496D01*
X123150600Y-113538000D01*
X123150600Y-114288000D01*
X123149396Y-114312504D01*
X123145796Y-114336773D01*
X123139835Y-114360571D01*
X123131570Y-114383671D01*
X123121080Y-114405849D01*
X123108467Y-114426893D01*
X123093853Y-114446598D01*
X123077377Y-114464777D01*
X123059198Y-114481253D01*
X123039493Y-114495867D01*
X123018449Y-114508480D01*
X122996271Y-114518970D01*
X122973171Y-114527235D01*
X122949373Y-114533196D01*
X122925104Y-114536796D01*
X122900600Y-114538000D01*
X121650600Y-114538000D01*
X121626096Y-114536796D01*
X121601827Y-114533196D01*
X121578029Y-114527235D01*
X121554929Y-114518970D01*
X121532751Y-114508480D01*
X121511707Y-114495867D01*
X121492002Y-114481253D01*
X121473823Y-114464777D01*
X121457347Y-114446598D01*
X121442733Y-114426893D01*
X121430120Y-114405849D01*
X121419630Y-114383671D01*
X121411365Y-114360571D01*
X121405404Y-114336773D01*
X121401804Y-114312504D01*
X121400600Y-114288000D01*
X121400600Y-113538000D01*
X121401804Y-113513496D01*
X121405404Y-113489227D01*
X121411365Y-113465429D01*
X121419630Y-113442329D01*
X121430120Y-113420151D01*
X121442733Y-113399107D01*
X121457347Y-113379402D01*
X121473823Y-113361223D01*
X121492002Y-113344747D01*
X121511707Y-113330133D01*
X121532751Y-113317520D01*
X121554929Y-113307030D01*
X121578029Y-113298765D01*
X121601827Y-113292804D01*
X121626096Y-113289204D01*
X121650600Y-113288000D01*
X122900600Y-113288000D01*
X122925104Y-113289204D01*
G37*
G36*
X122925104Y-116089204D02*
G01*
X122949373Y-116092804D01*
X122973171Y-116098765D01*
X122996271Y-116107030D01*
X123018449Y-116117520D01*
X123039493Y-116130133D01*
X123059198Y-116144747D01*
X123077377Y-116161223D01*
X123093853Y-116179402D01*
X123108467Y-116199107D01*
X123121080Y-116220151D01*
X123131570Y-116242329D01*
X123139835Y-116265429D01*
X123145796Y-116289227D01*
X123149396Y-116313496D01*
X123150600Y-116338000D01*
X123150600Y-117088000D01*
X123149396Y-117112504D01*
X123145796Y-117136773D01*
X123139835Y-117160571D01*
X123131570Y-117183671D01*
X123121080Y-117205849D01*
X123108467Y-117226893D01*
X123093853Y-117246598D01*
X123077377Y-117264777D01*
X123059198Y-117281253D01*
X123039493Y-117295867D01*
X123018449Y-117308480D01*
X122996271Y-117318970D01*
X122973171Y-117327235D01*
X122949373Y-117333196D01*
X122925104Y-117336796D01*
X122900600Y-117338000D01*
X121650600Y-117338000D01*
X121626096Y-117336796D01*
X121601827Y-117333196D01*
X121578029Y-117327235D01*
X121554929Y-117318970D01*
X121532751Y-117308480D01*
X121511707Y-117295867D01*
X121492002Y-117281253D01*
X121473823Y-117264777D01*
X121457347Y-117246598D01*
X121442733Y-117226893D01*
X121430120Y-117205849D01*
X121419630Y-117183671D01*
X121411365Y-117160571D01*
X121405404Y-117136773D01*
X121401804Y-117112504D01*
X121400600Y-117088000D01*
X121400600Y-116338000D01*
X121401804Y-116313496D01*
X121405404Y-116289227D01*
X121411365Y-116265429D01*
X121419630Y-116242329D01*
X121430120Y-116220151D01*
X121442733Y-116199107D01*
X121457347Y-116179402D01*
X121473823Y-116161223D01*
X121492002Y-116144747D01*
X121511707Y-116130133D01*
X121532751Y-116117520D01*
X121554929Y-116107030D01*
X121578029Y-116098765D01*
X121601827Y-116092804D01*
X121626096Y-116089204D01*
X121650600Y-116088000D01*
X122900600Y-116088000D01*
X122925104Y-116089204D01*
G37*
G36*
X119521504Y-113289204D02*
G01*
X119545773Y-113292804D01*
X119569571Y-113298765D01*
X119592671Y-113307030D01*
X119614849Y-113317520D01*
X119635893Y-113330133D01*
X119655598Y-113344747D01*
X119673777Y-113361223D01*
X119690253Y-113379402D01*
X119704867Y-113399107D01*
X119717480Y-113420151D01*
X119727970Y-113442329D01*
X119736235Y-113465429D01*
X119742196Y-113489227D01*
X119745796Y-113513496D01*
X119747000Y-113538000D01*
X119747000Y-114288000D01*
X119745796Y-114312504D01*
X119742196Y-114336773D01*
X119736235Y-114360571D01*
X119727970Y-114383671D01*
X119717480Y-114405849D01*
X119704867Y-114426893D01*
X119690253Y-114446598D01*
X119673777Y-114464777D01*
X119655598Y-114481253D01*
X119635893Y-114495867D01*
X119614849Y-114508480D01*
X119592671Y-114518970D01*
X119569571Y-114527235D01*
X119545773Y-114533196D01*
X119521504Y-114536796D01*
X119497000Y-114538000D01*
X118247000Y-114538000D01*
X118222496Y-114536796D01*
X118198227Y-114533196D01*
X118174429Y-114527235D01*
X118151329Y-114518970D01*
X118129151Y-114508480D01*
X118108107Y-114495867D01*
X118088402Y-114481253D01*
X118070223Y-114464777D01*
X118053747Y-114446598D01*
X118039133Y-114426893D01*
X118026520Y-114405849D01*
X118016030Y-114383671D01*
X118007765Y-114360571D01*
X118001804Y-114336773D01*
X117998204Y-114312504D01*
X117997000Y-114288000D01*
X117997000Y-113538000D01*
X117998204Y-113513496D01*
X118001804Y-113489227D01*
X118007765Y-113465429D01*
X118016030Y-113442329D01*
X118026520Y-113420151D01*
X118039133Y-113399107D01*
X118053747Y-113379402D01*
X118070223Y-113361223D01*
X118088402Y-113344747D01*
X118108107Y-113330133D01*
X118129151Y-113317520D01*
X118151329Y-113307030D01*
X118174429Y-113298765D01*
X118198227Y-113292804D01*
X118222496Y-113289204D01*
X118247000Y-113288000D01*
X119497000Y-113288000D01*
X119521504Y-113289204D01*
G37*
G36*
X119521504Y-116089204D02*
G01*
X119545773Y-116092804D01*
X119569571Y-116098765D01*
X119592671Y-116107030D01*
X119614849Y-116117520D01*
X119635893Y-116130133D01*
X119655598Y-116144747D01*
X119673777Y-116161223D01*
X119690253Y-116179402D01*
X119704867Y-116199107D01*
X119717480Y-116220151D01*
X119727970Y-116242329D01*
X119736235Y-116265429D01*
X119742196Y-116289227D01*
X119745796Y-116313496D01*
X119747000Y-116338000D01*
X119747000Y-117088000D01*
X119745796Y-117112504D01*
X119742196Y-117136773D01*
X119736235Y-117160571D01*
X119727970Y-117183671D01*
X119717480Y-117205849D01*
X119704867Y-117226893D01*
X119690253Y-117246598D01*
X119673777Y-117264777D01*
X119655598Y-117281253D01*
X119635893Y-117295867D01*
X119614849Y-117308480D01*
X119592671Y-117318970D01*
X119569571Y-117327235D01*
X119545773Y-117333196D01*
X119521504Y-117336796D01*
X119497000Y-117338000D01*
X118247000Y-117338000D01*
X118222496Y-117336796D01*
X118198227Y-117333196D01*
X118174429Y-117327235D01*
X118151329Y-117318970D01*
X118129151Y-117308480D01*
X118108107Y-117295867D01*
X118088402Y-117281253D01*
X118070223Y-117264777D01*
X118053747Y-117246598D01*
X118039133Y-117226893D01*
X118026520Y-117205849D01*
X118016030Y-117183671D01*
X118007765Y-117160571D01*
X118001804Y-117136773D01*
X117998204Y-117112504D01*
X117997000Y-117088000D01*
X117997000Y-116338000D01*
X117998204Y-116313496D01*
X118001804Y-116289227D01*
X118007765Y-116265429D01*
X118016030Y-116242329D01*
X118026520Y-116220151D01*
X118039133Y-116199107D01*
X118053747Y-116179402D01*
X118070223Y-116161223D01*
X118088402Y-116144747D01*
X118108107Y-116130133D01*
X118129151Y-116117520D01*
X118151329Y-116107030D01*
X118174429Y-116098765D01*
X118198227Y-116092804D01*
X118222496Y-116089204D01*
X118247000Y-116088000D01*
X119497000Y-116088000D01*
X119521504Y-116089204D01*
G37*
D14*
X115062000Y-143129000D03*
X117602000Y-143129000D03*
D15*
X120142000Y-143129000D03*
D16*
X91059000Y-109855000D03*
X91059000Y-112395000D03*
X91059000Y-114935000D03*
X91059000Y-117475000D03*
X91059000Y-120015000D03*
X91059000Y-122555000D03*
X91059000Y-125095000D03*
X91059000Y-127635000D03*
X113919000Y-127635000D03*
X113919000Y-125095000D03*
X113919000Y-122555000D03*
X113919000Y-120015000D03*
X113919000Y-117475000D03*
X113919000Y-114935000D03*
X113919000Y-112395000D03*
X113919000Y-109855000D03*
D17*
X122047000Y-137795000D03*
D18*
X119507000Y-137795000D03*
X122047000Y-135255000D03*
X119507000Y-135255000D03*
X122047000Y-132715000D03*
X119507000Y-132715000D03*
X122047000Y-130175000D03*
X119507000Y-130175000D03*
M02*
