G04 #@! TF.GenerationSoftware,KiCad,Pcbnew,(5.1.5-0-10_14)*
G04 #@! TF.CreationDate,2020-03-02T13:53:31+01:00*
G04 #@! TF.ProjectId,ithowifi,6974686f-7769-4666-992e-6b696361645f,rev?*
G04 #@! TF.SameCoordinates,Original*
G04 #@! TF.FileFunction,Legend,Top*
G04 #@! TF.FilePolarity,Positive*
%FSLAX46Y46*%
G04 Gerber Fmt 4.6, Leading zero omitted, Abs format (unit mm)*
G04 Created by KiCad (PCBNEW (5.1.5-0-10_14)) date 2020-03-02 13:53:31*
%MOMM*%
%LPD*%
G04 APERTURE LIST*
%ADD10C,0.150000*%
%ADD11C,0.120000*%
%ADD12C,0.200000*%
G04 APERTURE END LIST*
D10*
X117110333Y-119292714D02*
X117110333Y-119959380D01*
X116872238Y-118911761D02*
X116634142Y-119626047D01*
X117253190Y-119626047D01*
X117634142Y-119864142D02*
X117681761Y-119911761D01*
X117634142Y-119959380D01*
X117586523Y-119911761D01*
X117634142Y-119864142D01*
X117634142Y-119959380D01*
X118015095Y-118959380D02*
X118681761Y-118959380D01*
X118253190Y-119959380D01*
X119062714Y-119959380D02*
X119062714Y-118959380D01*
X119157952Y-119578428D02*
X119443666Y-119959380D01*
X119443666Y-119292714D02*
X119062714Y-119673666D01*
X120634142Y-119578428D02*
X121396047Y-119578428D01*
X123157952Y-119959380D02*
X122586523Y-119959380D01*
X122872238Y-119959380D02*
X122872238Y-118959380D01*
X122777000Y-119102238D01*
X122681761Y-119197476D01*
X122586523Y-119245095D01*
X123777000Y-118959380D02*
X123872238Y-118959380D01*
X123967476Y-119007000D01*
X124015095Y-119054619D01*
X124062714Y-119149857D01*
X124110333Y-119340333D01*
X124110333Y-119578428D01*
X124062714Y-119768904D01*
X124015095Y-119864142D01*
X123967476Y-119911761D01*
X123872238Y-119959380D01*
X123777000Y-119959380D01*
X123681761Y-119911761D01*
X123634142Y-119864142D01*
X123586523Y-119768904D01*
X123538904Y-119578428D01*
X123538904Y-119340333D01*
X123586523Y-119149857D01*
X123634142Y-119054619D01*
X123681761Y-119007000D01*
X123777000Y-118959380D01*
X124538904Y-119959380D02*
X124538904Y-118959380D01*
X124634142Y-119578428D02*
X124919857Y-119959380D01*
X124919857Y-119292714D02*
X124538904Y-119673666D01*
X116800380Y-138945809D02*
X117800380Y-138612476D01*
X116800380Y-138279142D01*
X117800380Y-137945809D02*
X117133714Y-137945809D01*
X116800380Y-137945809D02*
X116848000Y-137993428D01*
X116895619Y-137945809D01*
X116848000Y-137898190D01*
X116800380Y-137945809D01*
X116895619Y-137945809D01*
X117133714Y-137469619D02*
X117800380Y-137469619D01*
X117228952Y-137469619D02*
X117181333Y-137422000D01*
X117133714Y-137326761D01*
X117133714Y-137183904D01*
X117181333Y-137088666D01*
X117276571Y-137041047D01*
X117800380Y-137041047D01*
X123706000Y-133730904D02*
X123658380Y-133826142D01*
X123658380Y-133969000D01*
X123706000Y-134111857D01*
X123801238Y-134207095D01*
X123896476Y-134254714D01*
X124086952Y-134302333D01*
X124229809Y-134302333D01*
X124420285Y-134254714D01*
X124515523Y-134207095D01*
X124610761Y-134111857D01*
X124658380Y-133969000D01*
X124658380Y-133873761D01*
X124610761Y-133730904D01*
X124563142Y-133683285D01*
X124229809Y-133683285D01*
X124229809Y-133873761D01*
X124658380Y-133254714D02*
X123658380Y-133254714D01*
X124658380Y-132683285D01*
X123658380Y-132683285D01*
X124658380Y-132207095D02*
X123658380Y-132207095D01*
X123658380Y-131969000D01*
X123706000Y-131826142D01*
X123801238Y-131730904D01*
X123896476Y-131683285D01*
X124086952Y-131635666D01*
X124229809Y-131635666D01*
X124420285Y-131683285D01*
X124515523Y-131730904D01*
X124610761Y-131826142D01*
X124658380Y-131969000D01*
X124658380Y-132207095D01*
X124610761Y-131365476D02*
X124658380Y-131222619D01*
X124658380Y-130984523D01*
X124610761Y-130889285D01*
X124563142Y-130841666D01*
X124467904Y-130794047D01*
X124372666Y-130794047D01*
X124277428Y-130841666D01*
X124229809Y-130889285D01*
X124182190Y-130984523D01*
X124134571Y-131175000D01*
X124086952Y-131270238D01*
X124039333Y-131317857D01*
X123944095Y-131365476D01*
X123848857Y-131365476D01*
X123753619Y-131317857D01*
X123706000Y-131270238D01*
X123658380Y-131175000D01*
X123658380Y-130936904D01*
X123706000Y-130794047D01*
X124563142Y-129794047D02*
X124610761Y-129841666D01*
X124658380Y-129984523D01*
X124658380Y-130079761D01*
X124610761Y-130222619D01*
X124515523Y-130317857D01*
X124420285Y-130365476D01*
X124229809Y-130413095D01*
X124086952Y-130413095D01*
X123896476Y-130365476D01*
X123801238Y-130317857D01*
X123706000Y-130222619D01*
X123658380Y-130079761D01*
X123658380Y-129984523D01*
X123706000Y-129841666D01*
X123753619Y-129794047D01*
X124658380Y-128889285D02*
X124658380Y-129365476D01*
X123658380Y-129365476D01*
X117752761Y-131516285D02*
X117800380Y-131373428D01*
X117800380Y-131135333D01*
X117752761Y-131040095D01*
X117705142Y-130992476D01*
X117609904Y-130944857D01*
X117514666Y-130944857D01*
X117419428Y-130992476D01*
X117371809Y-131040095D01*
X117324190Y-131135333D01*
X117276571Y-131325809D01*
X117228952Y-131421047D01*
X117181333Y-131468666D01*
X117086095Y-131516285D01*
X116990857Y-131516285D01*
X116895619Y-131468666D01*
X116848000Y-131421047D01*
X116800380Y-131325809D01*
X116800380Y-131087714D01*
X116848000Y-130944857D01*
X117800380Y-130516285D02*
X116800380Y-130516285D01*
X116800380Y-130278190D01*
X116848000Y-130135333D01*
X116943238Y-130040095D01*
X117038476Y-129992476D01*
X117228952Y-129944857D01*
X117371809Y-129944857D01*
X117562285Y-129992476D01*
X117657523Y-130040095D01*
X117752761Y-130135333D01*
X117800380Y-130278190D01*
X117800380Y-130516285D01*
X117514666Y-129563904D02*
X117514666Y-129087714D01*
X117800380Y-129659142D02*
X116800380Y-129325809D01*
X117800380Y-128992476D01*
D11*
X116191000Y-142058000D02*
X116191000Y-143298000D01*
X117431000Y-142058000D02*
X116191000Y-142058000D01*
X125051000Y-154019000D02*
X116431000Y-154019000D01*
X125051000Y-142298000D02*
X116431000Y-142298000D01*
X116431000Y-142298000D02*
X116431000Y-154019000D01*
X125051000Y-142298000D02*
X125051000Y-154019000D01*
X118408620Y-116279775D02*
G75*
G02X120180000Y-116388272I971380J1344775D01*
G01*
X122218620Y-116279775D02*
G75*
G02X123990000Y-116388272I971380J1344775D01*
G01*
D12*
X101627000Y-138560333D02*
X101627000Y-138093666D01*
X102360333Y-137893666D02*
X102360333Y-138560333D01*
X100960333Y-138560333D01*
X100960333Y-137893666D01*
X102293666Y-137360333D02*
X102360333Y-137160333D01*
X102360333Y-136827000D01*
X102293666Y-136693666D01*
X102227000Y-136627000D01*
X102093666Y-136560333D01*
X101960333Y-136560333D01*
X101827000Y-136627000D01*
X101760333Y-136693666D01*
X101693666Y-136827000D01*
X101627000Y-137093666D01*
X101560333Y-137227000D01*
X101493666Y-137293666D01*
X101360333Y-137360333D01*
X101227000Y-137360333D01*
X101093666Y-137293666D01*
X101027000Y-137227000D01*
X100960333Y-137093666D01*
X100960333Y-136760333D01*
X101027000Y-136560333D01*
X102360333Y-135960333D02*
X100960333Y-135960333D01*
X100960333Y-135427000D01*
X101027000Y-135293666D01*
X101093666Y-135227000D01*
X101227000Y-135160333D01*
X101427000Y-135160333D01*
X101560333Y-135227000D01*
X101627000Y-135293666D01*
X101693666Y-135427000D01*
X101693666Y-135960333D01*
X101560333Y-134360333D02*
X101493666Y-134493666D01*
X101427000Y-134560333D01*
X101293666Y-134627000D01*
X101227000Y-134627000D01*
X101093666Y-134560333D01*
X101027000Y-134493666D01*
X100960333Y-134360333D01*
X100960333Y-134093666D01*
X101027000Y-133960333D01*
X101093666Y-133893666D01*
X101227000Y-133827000D01*
X101293666Y-133827000D01*
X101427000Y-133893666D01*
X101493666Y-133960333D01*
X101560333Y-134093666D01*
X101560333Y-134360333D01*
X101627000Y-134493666D01*
X101693666Y-134560333D01*
X101827000Y-134627000D01*
X102093666Y-134627000D01*
X102227000Y-134560333D01*
X102293666Y-134493666D01*
X102360333Y-134360333D01*
X102360333Y-134093666D01*
X102293666Y-133960333D01*
X102227000Y-133893666D01*
X102093666Y-133827000D01*
X101827000Y-133827000D01*
X101693666Y-133893666D01*
X101627000Y-133960333D01*
X101560333Y-134093666D01*
X101093666Y-133293666D02*
X101027000Y-133227000D01*
X100960333Y-133093666D01*
X100960333Y-132760333D01*
X101027000Y-132627000D01*
X101093666Y-132560333D01*
X101227000Y-132493666D01*
X101360333Y-132493666D01*
X101560333Y-132560333D01*
X102360333Y-133360333D01*
X102360333Y-132493666D01*
X100960333Y-131293666D02*
X100960333Y-131560333D01*
X101027000Y-131693666D01*
X101093666Y-131760333D01*
X101293666Y-131893666D01*
X101560333Y-131960333D01*
X102093666Y-131960333D01*
X102227000Y-131893666D01*
X102293666Y-131827000D01*
X102360333Y-131693666D01*
X102360333Y-131427000D01*
X102293666Y-131293666D01*
X102227000Y-131227000D01*
X102093666Y-131160333D01*
X101760333Y-131160333D01*
X101627000Y-131227000D01*
X101560333Y-131293666D01*
X101493666Y-131427000D01*
X101493666Y-131693666D01*
X101560333Y-131827000D01*
X101627000Y-131893666D01*
X101760333Y-131960333D01*
X100960333Y-129960333D02*
X100960333Y-130227000D01*
X101027000Y-130360333D01*
X101093666Y-130427000D01*
X101293666Y-130560333D01*
X101560333Y-130627000D01*
X102093666Y-130627000D01*
X102227000Y-130560333D01*
X102293666Y-130493666D01*
X102360333Y-130360333D01*
X102360333Y-130093666D01*
X102293666Y-129960333D01*
X102227000Y-129893666D01*
X102093666Y-129827000D01*
X101760333Y-129827000D01*
X101627000Y-129893666D01*
X101560333Y-129960333D01*
X101493666Y-130093666D01*
X101493666Y-130360333D01*
X101560333Y-130493666D01*
X101627000Y-130560333D01*
X101760333Y-130627000D01*
X102493666Y-129560333D02*
X102493666Y-128493666D01*
X102360333Y-128160333D02*
X100960333Y-128160333D01*
X102360333Y-127360333D01*
X100960333Y-127360333D01*
X102360333Y-126493666D02*
X102293666Y-126627000D01*
X102227000Y-126693666D01*
X102093666Y-126760333D01*
X101693666Y-126760333D01*
X101560333Y-126693666D01*
X101493666Y-126627000D01*
X101427000Y-126493666D01*
X101427000Y-126293666D01*
X101493666Y-126160333D01*
X101560333Y-126093666D01*
X101693666Y-126027000D01*
X102093666Y-126027000D01*
X102227000Y-126093666D01*
X102293666Y-126160333D01*
X102360333Y-126293666D01*
X102360333Y-126493666D01*
X102360333Y-124827000D02*
X100960333Y-124827000D01*
X102293666Y-124827000D02*
X102360333Y-124960333D01*
X102360333Y-125227000D01*
X102293666Y-125360333D01*
X102227000Y-125427000D01*
X102093666Y-125493666D01*
X101693666Y-125493666D01*
X101560333Y-125427000D01*
X101493666Y-125360333D01*
X101427000Y-125227000D01*
X101427000Y-124960333D01*
X101493666Y-124827000D01*
X102293666Y-123627000D02*
X102360333Y-123760333D01*
X102360333Y-124027000D01*
X102293666Y-124160333D01*
X102160333Y-124227000D01*
X101627000Y-124227000D01*
X101493666Y-124160333D01*
X101427000Y-124027000D01*
X101427000Y-123760333D01*
X101493666Y-123627000D01*
X101627000Y-123560333D01*
X101760333Y-123560333D01*
X101893666Y-124227000D01*
X102360333Y-122960333D02*
X100960333Y-122960333D01*
X101960333Y-122493666D01*
X100960333Y-122027000D01*
X102360333Y-122027000D01*
X102227000Y-120560333D02*
X102293666Y-120627000D01*
X102360333Y-120827000D01*
X102360333Y-120960333D01*
X102293666Y-121160333D01*
X102160333Y-121293666D01*
X102027000Y-121360333D01*
X101760333Y-121427000D01*
X101560333Y-121427000D01*
X101293666Y-121360333D01*
X101160333Y-121293666D01*
X101027000Y-121160333D01*
X100960333Y-120960333D01*
X100960333Y-120827000D01*
X101027000Y-120627000D01*
X101093666Y-120560333D01*
X100960333Y-119960333D02*
X102093666Y-119960333D01*
X102227000Y-119893666D01*
X102293666Y-119827000D01*
X102360333Y-119693666D01*
X102360333Y-119427000D01*
X102293666Y-119293666D01*
X102227000Y-119227000D01*
X102093666Y-119160333D01*
X100960333Y-119160333D01*
X102493666Y-118827000D02*
X102493666Y-117760333D01*
X101427000Y-117560333D02*
X102360333Y-117227000D01*
X101427000Y-116893666D01*
X101093666Y-116427000D02*
X101027000Y-116360333D01*
X100960333Y-116227000D01*
X100960333Y-115893666D01*
X101027000Y-115760333D01*
X101093666Y-115693666D01*
X101227000Y-115627000D01*
X101360333Y-115627000D01*
X101560333Y-115693666D01*
X102360333Y-116493666D01*
X102360333Y-115627000D01*
D10*
X116149380Y-152923285D02*
X115673190Y-153256619D01*
X116149380Y-153494714D02*
X115149380Y-153494714D01*
X115149380Y-153113761D01*
X115197000Y-153018523D01*
X115244619Y-152970904D01*
X115339857Y-152923285D01*
X115482714Y-152923285D01*
X115577952Y-152970904D01*
X115625571Y-153018523D01*
X115673190Y-153113761D01*
X115673190Y-153494714D01*
X115768428Y-152494714D02*
X115768428Y-151732809D01*
X115149380Y-151351857D02*
X115149380Y-150685190D01*
X116149380Y-151113761D01*
X115577952Y-150161380D02*
X115530333Y-150256619D01*
X115482714Y-150304238D01*
X115387476Y-150351857D01*
X115339857Y-150351857D01*
X115244619Y-150304238D01*
X115197000Y-150256619D01*
X115149380Y-150161380D01*
X115149380Y-149970904D01*
X115197000Y-149875666D01*
X115244619Y-149828047D01*
X115339857Y-149780428D01*
X115387476Y-149780428D01*
X115482714Y-149828047D01*
X115530333Y-149875666D01*
X115577952Y-149970904D01*
X115577952Y-150161380D01*
X115625571Y-150256619D01*
X115673190Y-150304238D01*
X115768428Y-150351857D01*
X115958904Y-150351857D01*
X116054142Y-150304238D01*
X116101761Y-150256619D01*
X116149380Y-150161380D01*
X116149380Y-149970904D01*
X116101761Y-149875666D01*
X116054142Y-149828047D01*
X115958904Y-149780428D01*
X115768428Y-149780428D01*
X115673190Y-149828047D01*
X115625571Y-149875666D01*
X115577952Y-149970904D01*
X115625571Y-149351857D02*
X115625571Y-149018523D01*
X116149380Y-148875666D02*
X116149380Y-149351857D01*
X115149380Y-149351857D01*
X115149380Y-148875666D01*
X115149380Y-147970904D02*
X115149380Y-148447095D01*
X115625571Y-148494714D01*
X115577952Y-148447095D01*
X115530333Y-148351857D01*
X115530333Y-148113761D01*
X115577952Y-148018523D01*
X115625571Y-147970904D01*
X115720809Y-147923285D01*
X115958904Y-147923285D01*
X116054142Y-147970904D01*
X116101761Y-148018523D01*
X116149380Y-148113761D01*
X116149380Y-148351857D01*
X116101761Y-148447095D01*
X116054142Y-148494714D01*
X116054142Y-147494714D02*
X116101761Y-147447095D01*
X116149380Y-147494714D01*
X116101761Y-147542333D01*
X116054142Y-147494714D01*
X116149380Y-147494714D01*
X115149380Y-146828047D02*
X115149380Y-146732809D01*
X115197000Y-146637571D01*
X115244619Y-146589952D01*
X115339857Y-146542333D01*
X115530333Y-146494714D01*
X115768428Y-146494714D01*
X115958904Y-146542333D01*
X116054142Y-146589952D01*
X116101761Y-146637571D01*
X116149380Y-146732809D01*
X116149380Y-146828047D01*
X116101761Y-146923285D01*
X116054142Y-146970904D01*
X115958904Y-147018523D01*
X115768428Y-147066142D01*
X115530333Y-147066142D01*
X115339857Y-147018523D01*
X115244619Y-146970904D01*
X115197000Y-146923285D01*
X115149380Y-146828047D01*
X115768428Y-146066142D02*
X115768428Y-145304238D01*
X116149380Y-144304238D02*
X116149380Y-144875666D01*
X116149380Y-144589952D02*
X115149380Y-144589952D01*
X115292238Y-144685190D01*
X115387476Y-144780428D01*
X115435095Y-144875666D01*
X116054142Y-143875666D02*
X116101761Y-143828047D01*
X116149380Y-143875666D01*
X116101761Y-143923285D01*
X116054142Y-143875666D01*
X116149380Y-143875666D01*
X115149380Y-143209000D02*
X115149380Y-143113761D01*
X115197000Y-143018523D01*
X115244619Y-142970904D01*
X115339857Y-142923285D01*
X115530333Y-142875666D01*
X115768428Y-142875666D01*
X115958904Y-142923285D01*
X116054142Y-142970904D01*
X116101761Y-143018523D01*
X116149380Y-143113761D01*
X116149380Y-143209000D01*
X116101761Y-143304238D01*
X116054142Y-143351857D01*
X115958904Y-143399476D01*
X115768428Y-143447095D01*
X115530333Y-143447095D01*
X115339857Y-143399476D01*
X115244619Y-143351857D01*
X115197000Y-143304238D01*
X115149380Y-143209000D01*
X117165380Y-117522380D02*
X116689190Y-117855714D01*
X117165380Y-118093809D02*
X116165380Y-118093809D01*
X116165380Y-117712857D01*
X116213000Y-117617619D01*
X116260619Y-117570000D01*
X116355857Y-117522380D01*
X116498714Y-117522380D01*
X116593952Y-117570000D01*
X116641571Y-117617619D01*
X116689190Y-117712857D01*
X116689190Y-118093809D01*
X117260619Y-117331904D02*
X117260619Y-116570000D01*
X117117761Y-116379523D02*
X117165380Y-116236666D01*
X117165380Y-115998571D01*
X117117761Y-115903333D01*
X117070142Y-115855714D01*
X116974904Y-115808095D01*
X116879666Y-115808095D01*
X116784428Y-115855714D01*
X116736809Y-115903333D01*
X116689190Y-115998571D01*
X116641571Y-116189047D01*
X116593952Y-116284285D01*
X116546333Y-116331904D01*
X116451095Y-116379523D01*
X116355857Y-116379523D01*
X116260619Y-116331904D01*
X116213000Y-116284285D01*
X116165380Y-116189047D01*
X116165380Y-115950952D01*
X116213000Y-115808095D01*
X117165380Y-115379523D02*
X116165380Y-115379523D01*
X116165380Y-115141428D01*
X116213000Y-114998571D01*
X116308238Y-114903333D01*
X116403476Y-114855714D01*
X116593952Y-114808095D01*
X116736809Y-114808095D01*
X116927285Y-114855714D01*
X117022523Y-114903333D01*
X117117761Y-114998571D01*
X117165380Y-115141428D01*
X117165380Y-115379523D01*
X116879666Y-114427142D02*
X116879666Y-113950952D01*
X117165380Y-114522380D02*
X116165380Y-114189047D01*
X117165380Y-113855714D01*
X117165380Y-112998571D02*
X117165380Y-113570000D01*
X117165380Y-113284285D02*
X116165380Y-113284285D01*
X116308238Y-113379523D01*
X116403476Y-113474761D01*
X116451095Y-113570000D01*
X124912380Y-112164571D02*
X124436190Y-112497904D01*
X124912380Y-112736000D02*
X123912380Y-112736000D01*
X123912380Y-112355047D01*
X123960000Y-112259809D01*
X124007619Y-112212190D01*
X124102857Y-112164571D01*
X124245714Y-112164571D01*
X124340952Y-112212190D01*
X124388571Y-112259809D01*
X124436190Y-112355047D01*
X124436190Y-112736000D01*
X125007619Y-111974095D02*
X125007619Y-111212190D01*
X124864761Y-111021714D02*
X124912380Y-110878857D01*
X124912380Y-110640761D01*
X124864761Y-110545523D01*
X124817142Y-110497904D01*
X124721904Y-110450285D01*
X124626666Y-110450285D01*
X124531428Y-110497904D01*
X124483809Y-110545523D01*
X124436190Y-110640761D01*
X124388571Y-110831238D01*
X124340952Y-110926476D01*
X124293333Y-110974095D01*
X124198095Y-111021714D01*
X124102857Y-111021714D01*
X124007619Y-110974095D01*
X123960000Y-110926476D01*
X123912380Y-110831238D01*
X123912380Y-110593142D01*
X123960000Y-110450285D01*
X124817142Y-109450285D02*
X124864761Y-109497904D01*
X124912380Y-109640761D01*
X124912380Y-109736000D01*
X124864761Y-109878857D01*
X124769523Y-109974095D01*
X124674285Y-110021714D01*
X124483809Y-110069333D01*
X124340952Y-110069333D01*
X124150476Y-110021714D01*
X124055238Y-109974095D01*
X123960000Y-109878857D01*
X123912380Y-109736000D01*
X123912380Y-109640761D01*
X123960000Y-109497904D01*
X124007619Y-109450285D01*
X124912380Y-108545523D02*
X124912380Y-109021714D01*
X123912380Y-109021714D01*
X124912380Y-107688380D02*
X124912380Y-108259809D01*
X124912380Y-107974095D02*
X123912380Y-107974095D01*
X124055238Y-108069333D01*
X124150476Y-108164571D01*
X124198095Y-108259809D01*
M02*
