G04 #@! TF.GenerationSoftware,KiCad,Pcbnew,(5.1.9-0-10_14)*
G04 #@! TF.CreationDate,2021-06-21T08:57:09+02:00*
G04 #@! TF.ProjectId,ithowifi_4l,6974686f-7769-4666-995f-346c2e6b6963,rev?*
G04 #@! TF.SameCoordinates,Original*
G04 #@! TF.FileFunction,Soldermask,Bot*
G04 #@! TF.FilePolarity,Negative*
%FSLAX46Y46*%
G04 Gerber Fmt 4.6, Leading zero omitted, Abs format (unit mm)*
G04 Created by KiCad (PCBNEW (5.1.9-0-10_14)) date 2021-06-21 08:57:09*
%MOMM*%
%LPD*%
G01*
G04 APERTURE LIST*
%ADD10O,1.300000X1.750000*%
%ADD11O,1.700000X1.700000*%
%ADD12R,1.700000X1.700000*%
%ADD13C,3.200000*%
%ADD14C,0.990600*%
%ADD15C,1.500000*%
%ADD16R,1.500000X5.080000*%
%ADD17O,1.500000X2.300000*%
%ADD18R,1.500000X2.300000*%
G04 APERTURE END LIST*
D10*
X107172000Y-112039000D03*
X105172000Y-112039000D03*
X103172000Y-112039000D03*
X99172000Y-131039000D03*
X101172000Y-131039000D03*
X103172000Y-131039000D03*
X105172000Y-131039000D03*
X107172000Y-131039000D03*
X109172000Y-131039000D03*
X111172000Y-131039000D03*
X113172000Y-131039000D03*
D11*
X113832000Y-154468000D03*
X111292000Y-154468000D03*
X113832000Y-151928000D03*
D12*
X111292000Y-151928000D03*
D13*
X94488000Y-113538000D03*
D14*
X94576000Y-108917400D03*
X94576000Y-106885400D03*
X89496000Y-107901400D03*
D15*
X105181400Y-109474000D03*
D11*
X85725000Y-123037600D03*
X85725000Y-120497600D03*
X85725000Y-117957600D03*
X85725000Y-115417600D03*
X85725000Y-112877600D03*
X85725000Y-110337600D03*
D12*
X85725000Y-107797600D03*
D16*
X100931400Y-107848400D03*
X109431400Y-107848400D03*
X105181400Y-107848400D03*
D17*
X116179600Y-142951200D03*
X118719600Y-142951200D03*
D18*
X121259600Y-142951200D03*
D12*
X122047000Y-137795000D03*
D11*
X119507000Y-137795000D03*
X122047000Y-135255000D03*
X119507000Y-135255000D03*
X122047000Y-132715000D03*
X119507000Y-132715000D03*
X122047000Y-130175000D03*
X119507000Y-130175000D03*
M02*
