G04 #@! TF.GenerationSoftware,KiCad,Pcbnew,(5.1.9-0-10_14)*
G04 #@! TF.CreationDate,2021-06-28T14:28:25+02:00*
G04 #@! TF.ProjectId,ithowifi_4l,6974686f-7769-4666-995f-346c2e6b6963,rev?*
G04 #@! TF.SameCoordinates,Original*
G04 #@! TF.FileFunction,Paste,Top*
G04 #@! TF.FilePolarity,Positive*
%FSLAX46Y46*%
G04 Gerber Fmt 4.6, Leading zero omitted, Abs format (unit mm)*
G04 Created by KiCad (PCBNEW (5.1.9-0-10_14)) date 2021-06-28 14:28:25*
%MOMM*%
%LPD*%
G01*
G04 APERTURE LIST*
%ADD10R,1.450000X1.150000*%
%ADD11R,1.900000X1.750000*%
%ADD12R,1.400000X0.400000*%
%ADD13R,1.500000X2.000000*%
%ADD14R,3.800000X2.000000*%
%ADD15R,0.900000X0.800000*%
%ADD16R,0.650000X1.200000*%
%ADD17R,2.000000X0.900000*%
%ADD18R,0.900000X2.000000*%
%ADD19R,5.000000X5.000000*%
%ADD20R,1.500000X5.080000*%
G04 APERTURE END LIST*
D10*
X56385000Y-118848000D03*
X56385000Y-123488000D03*
D11*
X54155000Y-120043000D03*
D12*
X56805000Y-121168000D03*
X56805000Y-121818000D03*
X56805000Y-122468000D03*
X56805000Y-119868000D03*
X56805000Y-120518000D03*
D11*
X54155000Y-122293000D03*
G36*
G01*
X80002000Y-121508500D02*
X80002000Y-122458500D01*
G75*
G02*
X79752000Y-122708500I-250000J0D01*
G01*
X79252000Y-122708500D01*
G75*
G02*
X79002000Y-122458500I0J250000D01*
G01*
X79002000Y-121508500D01*
G75*
G02*
X79252000Y-121258500I250000J0D01*
G01*
X79752000Y-121258500D01*
G75*
G02*
X80002000Y-121508500I0J-250000D01*
G01*
G37*
G36*
G01*
X81902000Y-121508500D02*
X81902000Y-122458500D01*
G75*
G02*
X81652000Y-122708500I-250000J0D01*
G01*
X81152000Y-122708500D01*
G75*
G02*
X80902000Y-122458500I0J250000D01*
G01*
X80902000Y-121508500D01*
G75*
G02*
X81152000Y-121258500I250000J0D01*
G01*
X81652000Y-121258500D01*
G75*
G02*
X81902000Y-121508500I0J-250000D01*
G01*
G37*
G36*
G01*
X98577500Y-124436002D02*
X98577500Y-123535998D01*
G75*
G02*
X98827498Y-123286000I249998J0D01*
G01*
X99352502Y-123286000D01*
G75*
G02*
X99602500Y-123535998I0J-249998D01*
G01*
X99602500Y-124436002D01*
G75*
G02*
X99352502Y-124686000I-249998J0D01*
G01*
X98827498Y-124686000D01*
G75*
G02*
X98577500Y-124436002I0J249998D01*
G01*
G37*
G36*
G01*
X96752500Y-124436002D02*
X96752500Y-123535998D01*
G75*
G02*
X97002498Y-123286000I249998J0D01*
G01*
X97527502Y-123286000D01*
G75*
G02*
X97777500Y-123535998I0J-249998D01*
G01*
X97777500Y-124436002D01*
G75*
G02*
X97527502Y-124686000I-249998J0D01*
G01*
X97002498Y-124686000D01*
G75*
G02*
X96752500Y-124436002I0J249998D01*
G01*
G37*
G36*
G01*
X70014500Y-109231998D02*
X70014500Y-110132002D01*
G75*
G02*
X69764502Y-110382000I-249998J0D01*
G01*
X69239498Y-110382000D01*
G75*
G02*
X68989500Y-110132002I0J249998D01*
G01*
X68989500Y-109231998D01*
G75*
G02*
X69239498Y-108982000I249998J0D01*
G01*
X69764502Y-108982000D01*
G75*
G02*
X70014500Y-109231998I0J-249998D01*
G01*
G37*
G36*
G01*
X71839500Y-109231998D02*
X71839500Y-110132002D01*
G75*
G02*
X71589502Y-110382000I-249998J0D01*
G01*
X71064498Y-110382000D01*
G75*
G02*
X70814500Y-110132002I0J249998D01*
G01*
X70814500Y-109231998D01*
G75*
G02*
X71064498Y-108982000I249998J0D01*
G01*
X71589502Y-108982000D01*
G75*
G02*
X71839500Y-109231998I0J-249998D01*
G01*
G37*
G36*
G01*
X70014500Y-111657998D02*
X70014500Y-112558002D01*
G75*
G02*
X69764502Y-112808000I-249998J0D01*
G01*
X69239498Y-112808000D01*
G75*
G02*
X68989500Y-112558002I0J249998D01*
G01*
X68989500Y-111657998D01*
G75*
G02*
X69239498Y-111408000I249998J0D01*
G01*
X69764502Y-111408000D01*
G75*
G02*
X70014500Y-111657998I0J-249998D01*
G01*
G37*
G36*
G01*
X71839500Y-111657998D02*
X71839500Y-112558002D01*
G75*
G02*
X71589502Y-112808000I-249998J0D01*
G01*
X71064498Y-112808000D01*
G75*
G02*
X70814500Y-112558002I0J249998D01*
G01*
X70814500Y-111657998D01*
G75*
G02*
X71064498Y-111408000I249998J0D01*
G01*
X71589502Y-111408000D01*
G75*
G02*
X71839500Y-111657998I0J-249998D01*
G01*
G37*
G36*
G01*
X66742500Y-149951998D02*
X66742500Y-150852002D01*
G75*
G02*
X66492502Y-151102000I-249998J0D01*
G01*
X65967498Y-151102000D01*
G75*
G02*
X65717500Y-150852002I0J249998D01*
G01*
X65717500Y-149951998D01*
G75*
G02*
X65967498Y-149702000I249998J0D01*
G01*
X66492502Y-149702000D01*
G75*
G02*
X66742500Y-149951998I0J-249998D01*
G01*
G37*
G36*
G01*
X68567500Y-149951998D02*
X68567500Y-150852002D01*
G75*
G02*
X68317502Y-151102000I-249998J0D01*
G01*
X67792498Y-151102000D01*
G75*
G02*
X67542500Y-150852002I0J249998D01*
G01*
X67542500Y-149951998D01*
G75*
G02*
X67792498Y-149702000I249998J0D01*
G01*
X68317502Y-149702000D01*
G75*
G02*
X68567500Y-149951998I0J-249998D01*
G01*
G37*
G36*
G01*
X61211000Y-117508000D02*
X61211000Y-118458000D01*
G75*
G02*
X60961000Y-118708000I-250000J0D01*
G01*
X60461000Y-118708000D01*
G75*
G02*
X60211000Y-118458000I0J250000D01*
G01*
X60211000Y-117508000D01*
G75*
G02*
X60461000Y-117258000I250000J0D01*
G01*
X60961000Y-117258000D01*
G75*
G02*
X61211000Y-117508000I0J-250000D01*
G01*
G37*
G36*
G01*
X63111000Y-117508000D02*
X63111000Y-118458000D01*
G75*
G02*
X62861000Y-118708000I-250000J0D01*
G01*
X62361000Y-118708000D01*
G75*
G02*
X62111000Y-118458000I0J250000D01*
G01*
X62111000Y-117508000D01*
G75*
G02*
X62361000Y-117258000I250000J0D01*
G01*
X62861000Y-117258000D01*
G75*
G02*
X63111000Y-117508000I0J-250000D01*
G01*
G37*
G36*
G01*
X62561000Y-123533500D02*
X61611000Y-123533500D01*
G75*
G02*
X61361000Y-123283500I0J250000D01*
G01*
X61361000Y-122783500D01*
G75*
G02*
X61611000Y-122533500I250000J0D01*
G01*
X62561000Y-122533500D01*
G75*
G02*
X62811000Y-122783500I0J-250000D01*
G01*
X62811000Y-123283500D01*
G75*
G02*
X62561000Y-123533500I-250000J0D01*
G01*
G37*
G36*
G01*
X62561000Y-125433500D02*
X61611000Y-125433500D01*
G75*
G02*
X61361000Y-125183500I0J250000D01*
G01*
X61361000Y-124683500D01*
G75*
G02*
X61611000Y-124433500I250000J0D01*
G01*
X62561000Y-124433500D01*
G75*
G02*
X62811000Y-124683500I0J-250000D01*
G01*
X62811000Y-125183500D01*
G75*
G02*
X62561000Y-125433500I-250000J0D01*
G01*
G37*
D13*
X76791500Y-118267500D03*
X81391500Y-118267500D03*
X79091500Y-118267500D03*
D14*
X79091500Y-111967500D03*
G36*
G01*
X69877000Y-114568000D02*
X69877000Y-114268000D01*
G75*
G02*
X70027000Y-114118000I150000J0D01*
G01*
X71677000Y-114118000D01*
G75*
G02*
X71827000Y-114268000I0J-150000D01*
G01*
X71827000Y-114568000D01*
G75*
G02*
X71677000Y-114718000I-150000J0D01*
G01*
X70027000Y-114718000D01*
G75*
G02*
X69877000Y-114568000I0J150000D01*
G01*
G37*
G36*
G01*
X69877000Y-115838000D02*
X69877000Y-115538000D01*
G75*
G02*
X70027000Y-115388000I150000J0D01*
G01*
X71677000Y-115388000D01*
G75*
G02*
X71827000Y-115538000I0J-150000D01*
G01*
X71827000Y-115838000D01*
G75*
G02*
X71677000Y-115988000I-150000J0D01*
G01*
X70027000Y-115988000D01*
G75*
G02*
X69877000Y-115838000I0J150000D01*
G01*
G37*
G36*
G01*
X69877000Y-117108000D02*
X69877000Y-116808000D01*
G75*
G02*
X70027000Y-116658000I150000J0D01*
G01*
X71677000Y-116658000D01*
G75*
G02*
X71827000Y-116808000I0J-150000D01*
G01*
X71827000Y-117108000D01*
G75*
G02*
X71677000Y-117258000I-150000J0D01*
G01*
X70027000Y-117258000D01*
G75*
G02*
X69877000Y-117108000I0J150000D01*
G01*
G37*
G36*
G01*
X69877000Y-118378000D02*
X69877000Y-118078000D01*
G75*
G02*
X70027000Y-117928000I150000J0D01*
G01*
X71677000Y-117928000D01*
G75*
G02*
X71827000Y-118078000I0J-150000D01*
G01*
X71827000Y-118378000D01*
G75*
G02*
X71677000Y-118528000I-150000J0D01*
G01*
X70027000Y-118528000D01*
G75*
G02*
X69877000Y-118378000I0J150000D01*
G01*
G37*
G36*
G01*
X69877000Y-119648000D02*
X69877000Y-119348000D01*
G75*
G02*
X70027000Y-119198000I150000J0D01*
G01*
X71677000Y-119198000D01*
G75*
G02*
X71827000Y-119348000I0J-150000D01*
G01*
X71827000Y-119648000D01*
G75*
G02*
X71677000Y-119798000I-150000J0D01*
G01*
X70027000Y-119798000D01*
G75*
G02*
X69877000Y-119648000I0J150000D01*
G01*
G37*
G36*
G01*
X69877000Y-120918000D02*
X69877000Y-120618000D01*
G75*
G02*
X70027000Y-120468000I150000J0D01*
G01*
X71677000Y-120468000D01*
G75*
G02*
X71827000Y-120618000I0J-150000D01*
G01*
X71827000Y-120918000D01*
G75*
G02*
X71677000Y-121068000I-150000J0D01*
G01*
X70027000Y-121068000D01*
G75*
G02*
X69877000Y-120918000I0J150000D01*
G01*
G37*
G36*
G01*
X69877000Y-122188000D02*
X69877000Y-121888000D01*
G75*
G02*
X70027000Y-121738000I150000J0D01*
G01*
X71677000Y-121738000D01*
G75*
G02*
X71827000Y-121888000I0J-150000D01*
G01*
X71827000Y-122188000D01*
G75*
G02*
X71677000Y-122338000I-150000J0D01*
G01*
X70027000Y-122338000D01*
G75*
G02*
X69877000Y-122188000I0J150000D01*
G01*
G37*
G36*
G01*
X69877000Y-123458000D02*
X69877000Y-123158000D01*
G75*
G02*
X70027000Y-123008000I150000J0D01*
G01*
X71677000Y-123008000D01*
G75*
G02*
X71827000Y-123158000I0J-150000D01*
G01*
X71827000Y-123458000D01*
G75*
G02*
X71677000Y-123608000I-150000J0D01*
G01*
X70027000Y-123608000D01*
G75*
G02*
X69877000Y-123458000I0J150000D01*
G01*
G37*
G36*
G01*
X64927000Y-123458000D02*
X64927000Y-123158000D01*
G75*
G02*
X65077000Y-123008000I150000J0D01*
G01*
X66727000Y-123008000D01*
G75*
G02*
X66877000Y-123158000I0J-150000D01*
G01*
X66877000Y-123458000D01*
G75*
G02*
X66727000Y-123608000I-150000J0D01*
G01*
X65077000Y-123608000D01*
G75*
G02*
X64927000Y-123458000I0J150000D01*
G01*
G37*
G36*
G01*
X64927000Y-122188000D02*
X64927000Y-121888000D01*
G75*
G02*
X65077000Y-121738000I150000J0D01*
G01*
X66727000Y-121738000D01*
G75*
G02*
X66877000Y-121888000I0J-150000D01*
G01*
X66877000Y-122188000D01*
G75*
G02*
X66727000Y-122338000I-150000J0D01*
G01*
X65077000Y-122338000D01*
G75*
G02*
X64927000Y-122188000I0J150000D01*
G01*
G37*
G36*
G01*
X64927000Y-120918000D02*
X64927000Y-120618000D01*
G75*
G02*
X65077000Y-120468000I150000J0D01*
G01*
X66727000Y-120468000D01*
G75*
G02*
X66877000Y-120618000I0J-150000D01*
G01*
X66877000Y-120918000D01*
G75*
G02*
X66727000Y-121068000I-150000J0D01*
G01*
X65077000Y-121068000D01*
G75*
G02*
X64927000Y-120918000I0J150000D01*
G01*
G37*
G36*
G01*
X64927000Y-119648000D02*
X64927000Y-119348000D01*
G75*
G02*
X65077000Y-119198000I150000J0D01*
G01*
X66727000Y-119198000D01*
G75*
G02*
X66877000Y-119348000I0J-150000D01*
G01*
X66877000Y-119648000D01*
G75*
G02*
X66727000Y-119798000I-150000J0D01*
G01*
X65077000Y-119798000D01*
G75*
G02*
X64927000Y-119648000I0J150000D01*
G01*
G37*
G36*
G01*
X64927000Y-118378000D02*
X64927000Y-118078000D01*
G75*
G02*
X65077000Y-117928000I150000J0D01*
G01*
X66727000Y-117928000D01*
G75*
G02*
X66877000Y-118078000I0J-150000D01*
G01*
X66877000Y-118378000D01*
G75*
G02*
X66727000Y-118528000I-150000J0D01*
G01*
X65077000Y-118528000D01*
G75*
G02*
X64927000Y-118378000I0J150000D01*
G01*
G37*
G36*
G01*
X64927000Y-117108000D02*
X64927000Y-116808000D01*
G75*
G02*
X65077000Y-116658000I150000J0D01*
G01*
X66727000Y-116658000D01*
G75*
G02*
X66877000Y-116808000I0J-150000D01*
G01*
X66877000Y-117108000D01*
G75*
G02*
X66727000Y-117258000I-150000J0D01*
G01*
X65077000Y-117258000D01*
G75*
G02*
X64927000Y-117108000I0J150000D01*
G01*
G37*
G36*
G01*
X64927000Y-115838000D02*
X64927000Y-115538000D01*
G75*
G02*
X65077000Y-115388000I150000J0D01*
G01*
X66727000Y-115388000D01*
G75*
G02*
X66877000Y-115538000I0J-150000D01*
G01*
X66877000Y-115838000D01*
G75*
G02*
X66727000Y-115988000I-150000J0D01*
G01*
X65077000Y-115988000D01*
G75*
G02*
X64927000Y-115838000I0J150000D01*
G01*
G37*
G36*
G01*
X64927000Y-114568000D02*
X64927000Y-114268000D01*
G75*
G02*
X65077000Y-114118000I150000J0D01*
G01*
X66727000Y-114118000D01*
G75*
G02*
X66877000Y-114268000I0J-150000D01*
G01*
X66877000Y-114568000D01*
G75*
G02*
X66727000Y-114718000I-150000J0D01*
G01*
X65077000Y-114718000D01*
G75*
G02*
X64927000Y-114568000I0J150000D01*
G01*
G37*
G36*
G01*
X88887500Y-126837998D02*
X88887500Y-127738002D01*
G75*
G02*
X88637502Y-127988000I-249998J0D01*
G01*
X88112498Y-127988000D01*
G75*
G02*
X87862500Y-127738002I0J249998D01*
G01*
X87862500Y-126837998D01*
G75*
G02*
X88112498Y-126588000I249998J0D01*
G01*
X88637502Y-126588000D01*
G75*
G02*
X88887500Y-126837998I0J-249998D01*
G01*
G37*
G36*
G01*
X90712500Y-126837998D02*
X90712500Y-127738002D01*
G75*
G02*
X90462502Y-127988000I-249998J0D01*
G01*
X89937498Y-127988000D01*
G75*
G02*
X89687500Y-127738002I0J249998D01*
G01*
X89687500Y-126837998D01*
G75*
G02*
X89937498Y-126588000I249998J0D01*
G01*
X90462502Y-126588000D01*
G75*
G02*
X90712500Y-126837998I0J-249998D01*
G01*
G37*
G36*
G01*
X109842500Y-142966998D02*
X109842500Y-143867002D01*
G75*
G02*
X109592502Y-144117000I-249998J0D01*
G01*
X109067498Y-144117000D01*
G75*
G02*
X108817500Y-143867002I0J249998D01*
G01*
X108817500Y-142966998D01*
G75*
G02*
X109067498Y-142717000I249998J0D01*
G01*
X109592502Y-142717000D01*
G75*
G02*
X109842500Y-142966998I0J-249998D01*
G01*
G37*
G36*
G01*
X111667500Y-142966998D02*
X111667500Y-143867002D01*
G75*
G02*
X111417502Y-144117000I-249998J0D01*
G01*
X110892498Y-144117000D01*
G75*
G02*
X110642500Y-143867002I0J249998D01*
G01*
X110642500Y-142966998D01*
G75*
G02*
X110892498Y-142717000I249998J0D01*
G01*
X111417502Y-142717000D01*
G75*
G02*
X111667500Y-142966998I0J-249998D01*
G01*
G37*
G36*
G01*
X97777500Y-126837998D02*
X97777500Y-127738002D01*
G75*
G02*
X97527502Y-127988000I-249998J0D01*
G01*
X97002498Y-127988000D01*
G75*
G02*
X96752500Y-127738002I0J249998D01*
G01*
X96752500Y-126837998D01*
G75*
G02*
X97002498Y-126588000I249998J0D01*
G01*
X97527502Y-126588000D01*
G75*
G02*
X97777500Y-126837998I0J-249998D01*
G01*
G37*
G36*
G01*
X99602500Y-126837998D02*
X99602500Y-127738002D01*
G75*
G02*
X99352502Y-127988000I-249998J0D01*
G01*
X98827498Y-127988000D01*
G75*
G02*
X98577500Y-127738002I0J249998D01*
G01*
X98577500Y-126837998D01*
G75*
G02*
X98827498Y-126588000I249998J0D01*
G01*
X99352502Y-126588000D01*
G75*
G02*
X99602500Y-126837998I0J-249998D01*
G01*
G37*
D15*
X92455000Y-125256000D03*
X94455000Y-124306000D03*
X94455000Y-126206000D03*
X104250000Y-125256000D03*
X102250000Y-126206000D03*
X102250000Y-124306000D03*
G36*
G01*
X109782000Y-146874000D02*
X109782000Y-147824000D01*
G75*
G02*
X109532000Y-148074000I-250000J0D01*
G01*
X109032000Y-148074000D01*
G75*
G02*
X108782000Y-147824000I0J250000D01*
G01*
X108782000Y-146874000D01*
G75*
G02*
X109032000Y-146624000I250000J0D01*
G01*
X109532000Y-146624000D01*
G75*
G02*
X109782000Y-146874000I0J-250000D01*
G01*
G37*
G36*
G01*
X111682000Y-146874000D02*
X111682000Y-147824000D01*
G75*
G02*
X111432000Y-148074000I-250000J0D01*
G01*
X110932000Y-148074000D01*
G75*
G02*
X110682000Y-147824000I0J250000D01*
G01*
X110682000Y-146874000D01*
G75*
G02*
X110932000Y-146624000I250000J0D01*
G01*
X111432000Y-146624000D01*
G75*
G02*
X111682000Y-146874000I0J-250000D01*
G01*
G37*
D16*
X109271000Y-135788000D03*
X109271000Y-131488000D03*
X111421000Y-135788000D03*
X111421000Y-131488000D03*
G36*
G01*
X81867500Y-136308000D02*
X82817500Y-136308000D01*
G75*
G02*
X83067500Y-136558000I0J-250000D01*
G01*
X83067500Y-137058000D01*
G75*
G02*
X82817500Y-137308000I-250000J0D01*
G01*
X81867500Y-137308000D01*
G75*
G02*
X81617500Y-137058000I0J250000D01*
G01*
X81617500Y-136558000D01*
G75*
G02*
X81867500Y-136308000I250000J0D01*
G01*
G37*
G36*
G01*
X81867500Y-134408000D02*
X82817500Y-134408000D01*
G75*
G02*
X83067500Y-134658000I0J-250000D01*
G01*
X83067500Y-135158000D01*
G75*
G02*
X82817500Y-135408000I-250000J0D01*
G01*
X81867500Y-135408000D01*
G75*
G02*
X81617500Y-135158000I0J250000D01*
G01*
X81617500Y-134658000D01*
G75*
G02*
X81867500Y-134408000I250000J0D01*
G01*
G37*
G36*
G01*
X110357000Y-120114000D02*
X109257000Y-120114000D01*
G75*
G02*
X109007000Y-119864000I0J250000D01*
G01*
X109007000Y-117039000D01*
G75*
G02*
X109257000Y-116789000I250000J0D01*
G01*
X110357000Y-116789000D01*
G75*
G02*
X110607000Y-117039000I0J-250000D01*
G01*
X110607000Y-119864000D01*
G75*
G02*
X110357000Y-120114000I-250000J0D01*
G01*
G37*
G36*
G01*
X110357000Y-125189000D02*
X109257000Y-125189000D01*
G75*
G02*
X109007000Y-124939000I0J250000D01*
G01*
X109007000Y-122114000D01*
G75*
G02*
X109257000Y-121864000I250000J0D01*
G01*
X110357000Y-121864000D01*
G75*
G02*
X110607000Y-122114000I0J-250000D01*
G01*
X110607000Y-124939000D01*
G75*
G02*
X110357000Y-125189000I-250000J0D01*
G01*
G37*
D17*
X87477600Y-148615400D03*
X87477600Y-147345400D03*
X87477600Y-146075400D03*
X87477600Y-144805400D03*
X87477600Y-143535400D03*
X87477600Y-142265400D03*
X87477600Y-140995400D03*
X87477600Y-139725400D03*
X87477600Y-138455400D03*
X87477600Y-137185400D03*
X87477600Y-135915400D03*
X87477600Y-134645400D03*
X87477600Y-133375400D03*
X87477600Y-132105400D03*
D18*
X90262600Y-131105400D03*
X91532600Y-131105400D03*
X92802600Y-131105400D03*
X94072600Y-131105400D03*
X95342600Y-131105400D03*
X96612600Y-131105400D03*
X97882600Y-131105400D03*
X99152600Y-131105400D03*
X100422600Y-131105400D03*
X101692600Y-131105400D03*
D17*
X104477600Y-132105400D03*
X104477600Y-133375400D03*
X104477600Y-134645400D03*
X104477600Y-135915400D03*
X104477600Y-137185400D03*
X104477600Y-138455400D03*
X104477600Y-139725400D03*
X104477600Y-140995400D03*
X104477600Y-142265400D03*
X104477600Y-143535400D03*
X104477600Y-144805400D03*
X104477600Y-146075400D03*
X104477600Y-147345400D03*
X104477600Y-148615400D03*
D19*
X96977600Y-141115400D03*
G36*
G01*
X109769000Y-139277750D02*
X109769000Y-140190250D01*
G75*
G02*
X109525250Y-140434000I-243750J0D01*
G01*
X109037750Y-140434000D01*
G75*
G02*
X108794000Y-140190250I0J243750D01*
G01*
X108794000Y-139277750D01*
G75*
G02*
X109037750Y-139034000I243750J0D01*
G01*
X109525250Y-139034000D01*
G75*
G02*
X109769000Y-139277750I0J-243750D01*
G01*
G37*
G36*
G01*
X111644000Y-139277750D02*
X111644000Y-140190250D01*
G75*
G02*
X111400250Y-140434000I-243750J0D01*
G01*
X110912750Y-140434000D01*
G75*
G02*
X110669000Y-140190250I0J243750D01*
G01*
X110669000Y-139277750D01*
G75*
G02*
X110912750Y-139034000I243750J0D01*
G01*
X111400250Y-139034000D01*
G75*
G02*
X111644000Y-139277750I0J-243750D01*
G01*
G37*
G36*
G01*
X67014500Y-112564250D02*
X67014500Y-111651750D01*
G75*
G02*
X67258250Y-111408000I243750J0D01*
G01*
X67745750Y-111408000D01*
G75*
G02*
X67989500Y-111651750I0J-243750D01*
G01*
X67989500Y-112564250D01*
G75*
G02*
X67745750Y-112808000I-243750J0D01*
G01*
X67258250Y-112808000D01*
G75*
G02*
X67014500Y-112564250I0J243750D01*
G01*
G37*
G36*
G01*
X65139500Y-112564250D02*
X65139500Y-111651750D01*
G75*
G02*
X65383250Y-111408000I243750J0D01*
G01*
X65870750Y-111408000D01*
G75*
G02*
X66114500Y-111651750I0J-243750D01*
G01*
X66114500Y-112564250D01*
G75*
G02*
X65870750Y-112808000I-243750J0D01*
G01*
X65383250Y-112808000D01*
G75*
G02*
X65139500Y-112564250I0J243750D01*
G01*
G37*
G36*
G01*
X81886250Y-131167000D02*
X82798750Y-131167000D01*
G75*
G02*
X83042500Y-131410750I0J-243750D01*
G01*
X83042500Y-131898250D01*
G75*
G02*
X82798750Y-132142000I-243750J0D01*
G01*
X81886250Y-132142000D01*
G75*
G02*
X81642500Y-131898250I0J243750D01*
G01*
X81642500Y-131410750D01*
G75*
G02*
X81886250Y-131167000I243750J0D01*
G01*
G37*
G36*
G01*
X81886250Y-129292000D02*
X82798750Y-129292000D01*
G75*
G02*
X83042500Y-129535750I0J-243750D01*
G01*
X83042500Y-130023250D01*
G75*
G02*
X82798750Y-130267000I-243750J0D01*
G01*
X81886250Y-130267000D01*
G75*
G02*
X81642500Y-130023250I0J243750D01*
G01*
X81642500Y-129535750D01*
G75*
G02*
X81886250Y-129292000I243750J0D01*
G01*
G37*
D20*
X90631400Y-109548400D03*
X99131400Y-109548400D03*
G36*
G01*
X67014500Y-110138250D02*
X67014500Y-109225750D01*
G75*
G02*
X67258250Y-108982000I243750J0D01*
G01*
X67745750Y-108982000D01*
G75*
G02*
X67989500Y-109225750I0J-243750D01*
G01*
X67989500Y-110138250D01*
G75*
G02*
X67745750Y-110382000I-243750J0D01*
G01*
X67258250Y-110382000D01*
G75*
G02*
X67014500Y-110138250I0J243750D01*
G01*
G37*
G36*
G01*
X65139500Y-110138250D02*
X65139500Y-109225750D01*
G75*
G02*
X65383250Y-108982000I243750J0D01*
G01*
X65870750Y-108982000D01*
G75*
G02*
X66114500Y-109225750I0J-243750D01*
G01*
X66114500Y-110138250D01*
G75*
G02*
X65870750Y-110382000I-243750J0D01*
G01*
X65383250Y-110382000D01*
G75*
G02*
X65139500Y-110138250I0J243750D01*
G01*
G37*
G36*
G01*
X66794500Y-126514250D02*
X66794500Y-127426750D01*
G75*
G02*
X66550750Y-127670500I-243750J0D01*
G01*
X66063250Y-127670500D01*
G75*
G02*
X65819500Y-127426750I0J243750D01*
G01*
X65819500Y-126514250D01*
G75*
G02*
X66063250Y-126270500I243750J0D01*
G01*
X66550750Y-126270500D01*
G75*
G02*
X66794500Y-126514250I0J-243750D01*
G01*
G37*
G36*
G01*
X68669500Y-126514250D02*
X68669500Y-127426750D01*
G75*
G02*
X68425750Y-127670500I-243750J0D01*
G01*
X67938250Y-127670500D01*
G75*
G02*
X67694500Y-127426750I0J243750D01*
G01*
X67694500Y-126514250D01*
G75*
G02*
X67938250Y-126270500I243750J0D01*
G01*
X68425750Y-126270500D01*
G75*
G02*
X68669500Y-126514250I0J-243750D01*
G01*
G37*
G36*
G01*
X72128500Y-141170250D02*
X72128500Y-142082750D01*
G75*
G02*
X71884750Y-142326500I-243750J0D01*
G01*
X71397250Y-142326500D01*
G75*
G02*
X71153500Y-142082750I0J243750D01*
G01*
X71153500Y-141170250D01*
G75*
G02*
X71397250Y-140926500I243750J0D01*
G01*
X71884750Y-140926500D01*
G75*
G02*
X72128500Y-141170250I0J-243750D01*
G01*
G37*
G36*
G01*
X74003500Y-141170250D02*
X74003500Y-142082750D01*
G75*
G02*
X73759750Y-142326500I-243750J0D01*
G01*
X73272250Y-142326500D01*
G75*
G02*
X73028500Y-142082750I0J243750D01*
G01*
X73028500Y-141170250D01*
G75*
G02*
X73272250Y-140926500I243750J0D01*
G01*
X73759750Y-140926500D01*
G75*
G02*
X74003500Y-141170250I0J-243750D01*
G01*
G37*
G36*
G01*
X72181000Y-145298750D02*
X72181000Y-146211250D01*
G75*
G02*
X71937250Y-146455000I-243750J0D01*
G01*
X71449750Y-146455000D01*
G75*
G02*
X71206000Y-146211250I0J243750D01*
G01*
X71206000Y-145298750D01*
G75*
G02*
X71449750Y-145055000I243750J0D01*
G01*
X71937250Y-145055000D01*
G75*
G02*
X72181000Y-145298750I0J-243750D01*
G01*
G37*
G36*
G01*
X74056000Y-145298750D02*
X74056000Y-146211250D01*
G75*
G02*
X73812250Y-146455000I-243750J0D01*
G01*
X73324750Y-146455000D01*
G75*
G02*
X73081000Y-146211250I0J243750D01*
G01*
X73081000Y-145298750D01*
G75*
G02*
X73324750Y-145055000I243750J0D01*
G01*
X73812250Y-145055000D01*
G75*
G02*
X74056000Y-145298750I0J-243750D01*
G01*
G37*
G36*
G01*
X81761500Y-142158750D02*
X81761500Y-141246250D01*
G75*
G02*
X82005250Y-141002500I243750J0D01*
G01*
X82492750Y-141002500D01*
G75*
G02*
X82736500Y-141246250I0J-243750D01*
G01*
X82736500Y-142158750D01*
G75*
G02*
X82492750Y-142402500I-243750J0D01*
G01*
X82005250Y-142402500D01*
G75*
G02*
X81761500Y-142158750I0J243750D01*
G01*
G37*
G36*
G01*
X79886500Y-142158750D02*
X79886500Y-141246250D01*
G75*
G02*
X80130250Y-141002500I243750J0D01*
G01*
X80617750Y-141002500D01*
G75*
G02*
X80861500Y-141246250I0J-243750D01*
G01*
X80861500Y-142158750D01*
G75*
G02*
X80617750Y-142402500I-243750J0D01*
G01*
X80130250Y-142402500D01*
G75*
G02*
X79886500Y-142158750I0J243750D01*
G01*
G37*
G36*
G01*
X81761500Y-146159250D02*
X81761500Y-145246750D01*
G75*
G02*
X82005250Y-145003000I243750J0D01*
G01*
X82492750Y-145003000D01*
G75*
G02*
X82736500Y-145246750I0J-243750D01*
G01*
X82736500Y-146159250D01*
G75*
G02*
X82492750Y-146403000I-243750J0D01*
G01*
X82005250Y-146403000D01*
G75*
G02*
X81761500Y-146159250I0J243750D01*
G01*
G37*
G36*
G01*
X79886500Y-146159250D02*
X79886500Y-145246750D01*
G75*
G02*
X80130250Y-145003000I243750J0D01*
G01*
X80617750Y-145003000D01*
G75*
G02*
X80861500Y-145246750I0J-243750D01*
G01*
X80861500Y-146159250D01*
G75*
G02*
X80617750Y-146403000I-243750J0D01*
G01*
X80130250Y-146403000D01*
G75*
G02*
X79886500Y-146159250I0J243750D01*
G01*
G37*
D15*
X76061000Y-141667100D03*
X78061000Y-140717100D03*
X78061000Y-142617100D03*
X76061000Y-145729600D03*
X78061000Y-144779600D03*
X78061000Y-146679600D03*
M02*
