G04 #@! TF.GenerationSoftware,KiCad,Pcbnew,(5.1.9-0-10_14)*
G04 #@! TF.CreationDate,2021-06-28T14:28:25+02:00*
G04 #@! TF.ProjectId,ithowifi_4l,6974686f-7769-4666-995f-346c2e6b6963,rev?*
G04 #@! TF.SameCoordinates,Original*
G04 #@! TF.FileFunction,Copper,L3,Inr*
G04 #@! TF.FilePolarity,Positive*
%FSLAX46Y46*%
G04 Gerber Fmt 4.6, Leading zero omitted, Abs format (unit mm)*
G04 Created by KiCad (PCBNEW (5.1.9-0-10_14)) date 2021-06-28 14:28:25*
%MOMM*%
%LPD*%
G01*
G04 APERTURE LIST*
G04 #@! TA.AperFunction,ComponentPad*
%ADD10C,1.500000*%
G04 #@! TD*
G04 #@! TA.AperFunction,ComponentPad*
%ADD11O,1.700000X1.700000*%
G04 #@! TD*
G04 #@! TA.AperFunction,ComponentPad*
%ADD12R,1.700000X1.700000*%
G04 #@! TD*
G04 #@! TA.AperFunction,ComponentPad*
%ADD13O,1.900000X1.050000*%
G04 #@! TD*
G04 #@! TA.AperFunction,ComponentPad*
%ADD14O,2.300000X1.500000*%
G04 #@! TD*
G04 #@! TA.AperFunction,ComponentPad*
%ADD15R,2.300000X1.500000*%
G04 #@! TD*
G04 #@! TA.AperFunction,ComponentPad*
%ADD16C,1.446000*%
G04 #@! TD*
G04 #@! TA.AperFunction,ComponentPad*
%ADD17C,2.700000*%
G04 #@! TD*
G04 #@! TA.AperFunction,ViaPad*
%ADD18C,0.800000*%
G04 #@! TD*
G04 #@! TA.AperFunction,Conductor*
%ADD19C,0.203200*%
G04 #@! TD*
G04 #@! TA.AperFunction,Conductor*
%ADD20C,0.100000*%
G04 #@! TD*
G04 APERTURE END LIST*
D10*
X94869000Y-111125000D03*
D11*
X60198000Y-112395000D03*
X62738000Y-112395000D03*
X60198000Y-114935000D03*
D12*
X62738000Y-114935000D03*
D13*
X54155000Y-124743000D03*
X54155000Y-117593000D03*
D14*
X77580000Y-129828000D03*
X77580000Y-132368000D03*
D15*
X77580000Y-134908000D03*
D16*
X59372500Y-142176500D03*
X61152500Y-141156500D03*
X59372500Y-140136500D03*
X61152500Y-139116500D03*
X59372500Y-138096500D03*
X61152500Y-137076500D03*
X59372500Y-136056500D03*
X61152500Y-135036500D03*
X65962500Y-145466500D03*
X65962500Y-143176500D03*
X65962500Y-134036500D03*
X65962500Y-131746500D03*
D17*
X60392500Y-130476500D03*
X60392500Y-146736500D03*
D11*
X74532000Y-150910000D03*
X77072000Y-150910000D03*
X74532000Y-153450000D03*
D12*
X77072000Y-153450000D03*
D18*
X95250000Y-139700000D03*
X98806000Y-139700000D03*
X97028000Y-139700000D03*
X98806000Y-142748000D03*
X97028000Y-142748000D03*
X95250000Y-142748000D03*
X95250000Y-141224000D03*
X98806000Y-141224000D03*
X97028000Y-141224000D03*
X89154000Y-148590000D03*
X106172000Y-148590000D03*
X109807000Y-115926500D03*
X110907000Y-115926500D03*
X108707000Y-115926500D03*
X88925000Y-115773000D03*
X90632000Y-115768000D03*
X92332000Y-115768000D03*
X94032000Y-115768000D03*
X95732000Y-115768000D03*
X97432000Y-115768000D03*
X100832000Y-115768000D03*
X99132000Y-115768000D03*
X88932000Y-114068000D03*
X88932000Y-110768000D03*
X88925000Y-112368000D03*
X88925000Y-109168000D03*
X88932000Y-107468000D03*
X100825000Y-112368000D03*
X100832000Y-110768000D03*
X100832000Y-114068000D03*
X100832000Y-107468000D03*
X100825000Y-109168000D03*
X109266500Y-145830000D03*
X76805500Y-120159000D03*
X63546500Y-124938500D03*
X81391500Y-120462500D03*
X71691500Y-147383500D03*
X71691504Y-140081000D03*
X62420500Y-119888001D03*
X106172000Y-147320000D03*
X109807000Y-126026500D03*
X110907000Y-126026500D03*
X108707000Y-126026500D03*
X71230000Y-113572000D03*
X78850000Y-147481000D03*
X78850000Y-143480506D03*
X76424500Y-111967500D03*
X76424500Y-110126000D03*
X78075500Y-110126000D03*
X79917000Y-110126000D03*
X81822000Y-110126000D03*
X81822000Y-111904000D03*
X111171500Y-145385500D03*
X111425500Y-133574500D03*
X102281500Y-134654000D03*
X87613000Y-126335498D03*
X82279000Y-147290500D03*
X68072000Y-151892000D03*
X82232500Y-140335000D03*
X68199000Y-128333500D03*
X64008003Y-118110003D03*
X98852500Y-134654000D03*
X94852000Y-134654000D03*
X91295998Y-135907002D03*
X90424000Y-134429500D03*
X92883500Y-134654000D03*
X100457000Y-134683500D03*
X80391000Y-140144500D03*
X80391000Y-144081500D03*
X101917500Y-137985500D03*
X89217502Y-135890000D03*
X63753997Y-119570503D03*
X63753998Y-121666000D03*
D19*
X115349957Y-107077305D02*
X115367228Y-107082520D01*
X115383166Y-107090994D01*
X115397144Y-107102394D01*
X115408651Y-107116303D01*
X115417232Y-107132173D01*
X115422567Y-107149410D01*
X115426401Y-107185888D01*
X115426400Y-149665413D01*
X104903020Y-149665719D01*
X104858429Y-149629125D01*
X104787967Y-149591462D01*
X104711511Y-149568269D01*
X104651921Y-149562400D01*
X104632000Y-149560438D01*
X104612079Y-149562400D01*
X87351921Y-149562400D01*
X87332000Y-149560438D01*
X87312079Y-149562400D01*
X87252489Y-149568269D01*
X87176033Y-149591462D01*
X87105571Y-149629125D01*
X87060347Y-149666239D01*
X81531997Y-149666400D01*
X81512176Y-149668353D01*
X81493117Y-149674135D01*
X81475552Y-149683524D01*
X81460156Y-149696160D01*
X81447521Y-149711557D01*
X81438133Y-149729122D01*
X81432352Y-149748182D01*
X81430400Y-149768000D01*
X81430400Y-156062400D01*
X53251832Y-156062400D01*
X53214043Y-156058695D01*
X53196772Y-156053480D01*
X53180834Y-156045006D01*
X53166856Y-156033606D01*
X53155348Y-156019695D01*
X53146769Y-156003829D01*
X53141433Y-155986590D01*
X53137600Y-155950122D01*
X53137600Y-153545862D01*
X53876400Y-153545862D01*
X53876400Y-153862138D01*
X53938102Y-154172336D01*
X54059136Y-154464537D01*
X54234849Y-154727510D01*
X54458490Y-154951151D01*
X54721463Y-155126864D01*
X55013664Y-155247898D01*
X55323862Y-155309600D01*
X55640138Y-155309600D01*
X55950336Y-155247898D01*
X56242537Y-155126864D01*
X56505510Y-154951151D01*
X56729151Y-154727510D01*
X56904864Y-154464537D01*
X57025898Y-154172336D01*
X57087600Y-153862138D01*
X57087600Y-153545862D01*
X57044913Y-153331259D01*
X73326400Y-153331259D01*
X73326400Y-153568741D01*
X73372731Y-153801660D01*
X73463611Y-154021066D01*
X73595550Y-154218525D01*
X73763475Y-154386450D01*
X73960934Y-154518389D01*
X74180340Y-154609269D01*
X74413259Y-154655600D01*
X74650741Y-154655600D01*
X74883660Y-154609269D01*
X75103066Y-154518389D01*
X75300525Y-154386450D01*
X75468450Y-154218525D01*
X75600389Y-154021066D01*
X75691269Y-153801660D01*
X75737600Y-153568741D01*
X75737600Y-153331259D01*
X75691269Y-153098340D01*
X75600389Y-152878934D01*
X75468450Y-152681475D01*
X75386975Y-152600000D01*
X75864680Y-152600000D01*
X75864680Y-154300000D01*
X75871546Y-154369710D01*
X75891879Y-154436740D01*
X75924899Y-154498516D01*
X75969337Y-154552663D01*
X76023484Y-154597101D01*
X76085260Y-154630121D01*
X76152290Y-154650454D01*
X76222000Y-154657320D01*
X77922000Y-154657320D01*
X77991710Y-154650454D01*
X78058740Y-154630121D01*
X78120516Y-154597101D01*
X78174663Y-154552663D01*
X78219101Y-154498516D01*
X78252121Y-154436740D01*
X78272454Y-154369710D01*
X78279320Y-154300000D01*
X78279320Y-152600000D01*
X78272454Y-152530290D01*
X78252121Y-152463260D01*
X78219101Y-152401484D01*
X78174663Y-152347337D01*
X78120516Y-152302899D01*
X78058740Y-152269879D01*
X77991710Y-152249546D01*
X77922000Y-152242680D01*
X76222000Y-152242680D01*
X76152290Y-152249546D01*
X76085260Y-152269879D01*
X76023484Y-152302899D01*
X75969337Y-152347337D01*
X75924899Y-152401484D01*
X75891879Y-152463260D01*
X75871546Y-152530290D01*
X75864680Y-152600000D01*
X75386975Y-152600000D01*
X75300525Y-152513550D01*
X75103066Y-152381611D01*
X74883660Y-152290731D01*
X74650741Y-152244400D01*
X74413259Y-152244400D01*
X74180340Y-152290731D01*
X73960934Y-152381611D01*
X73763475Y-152513550D01*
X73595550Y-152681475D01*
X73463611Y-152878934D01*
X73372731Y-153098340D01*
X73326400Y-153331259D01*
X57044913Y-153331259D01*
X57025898Y-153235664D01*
X56904864Y-152943463D01*
X56729151Y-152680490D01*
X56505510Y-152456849D01*
X56242537Y-152281136D01*
X55950336Y-152160102D01*
X55640138Y-152098400D01*
X55323862Y-152098400D01*
X55013664Y-152160102D01*
X54721463Y-152281136D01*
X54458490Y-152456849D01*
X54234849Y-152680490D01*
X54059136Y-152943463D01*
X53938102Y-153235664D01*
X53876400Y-153545862D01*
X53137600Y-153545862D01*
X53137600Y-151817580D01*
X67316400Y-151817580D01*
X67316400Y-151966420D01*
X67345437Y-152112400D01*
X67402396Y-152249911D01*
X67485087Y-152373667D01*
X67590333Y-152478913D01*
X67714089Y-152561604D01*
X67851600Y-152618563D01*
X67997580Y-152647600D01*
X68146420Y-152647600D01*
X68292400Y-152618563D01*
X68429911Y-152561604D01*
X68553667Y-152478913D01*
X68658913Y-152373667D01*
X68741604Y-152249911D01*
X68798563Y-152112400D01*
X68827600Y-151966420D01*
X68827600Y-151817580D01*
X68798563Y-151671600D01*
X68741604Y-151534089D01*
X68658913Y-151410333D01*
X68553667Y-151305087D01*
X68429911Y-151222396D01*
X68292400Y-151165437D01*
X68146420Y-151136400D01*
X67997580Y-151136400D01*
X67851600Y-151165437D01*
X67714089Y-151222396D01*
X67590333Y-151305087D01*
X67485087Y-151410333D01*
X67402396Y-151534089D01*
X67345437Y-151671600D01*
X67316400Y-151817580D01*
X53137600Y-151817580D01*
X53137600Y-151131591D01*
X73295296Y-151131591D01*
X73304634Y-151178544D01*
X73380608Y-151412831D01*
X73500829Y-151627795D01*
X73660677Y-151815174D01*
X73854010Y-151967768D01*
X74073398Y-152079712D01*
X74310409Y-152146705D01*
X74506600Y-152064544D01*
X74506600Y-150935400D01*
X74557400Y-150935400D01*
X74557400Y-152064544D01*
X74753591Y-152146705D01*
X74990602Y-152079712D01*
X75209990Y-151967768D01*
X75403323Y-151815174D01*
X75563171Y-151627795D01*
X75683392Y-151412831D01*
X75759366Y-151178544D01*
X75768704Y-151131591D01*
X75686521Y-150935400D01*
X74557400Y-150935400D01*
X74506600Y-150935400D01*
X73377479Y-150935400D01*
X73295296Y-151131591D01*
X53137600Y-151131591D01*
X53137600Y-150688409D01*
X73295296Y-150688409D01*
X73377479Y-150884600D01*
X74506600Y-150884600D01*
X74506600Y-149755456D01*
X74557400Y-149755456D01*
X74557400Y-150884600D01*
X75686521Y-150884600D01*
X75725620Y-150791259D01*
X75866400Y-150791259D01*
X75866400Y-151028741D01*
X75912731Y-151261660D01*
X76003611Y-151481066D01*
X76135550Y-151678525D01*
X76303475Y-151846450D01*
X76500934Y-151978389D01*
X76720340Y-152069269D01*
X76953259Y-152115600D01*
X77190741Y-152115600D01*
X77423660Y-152069269D01*
X77643066Y-151978389D01*
X77840525Y-151846450D01*
X78008450Y-151678525D01*
X78140389Y-151481066D01*
X78231269Y-151261660D01*
X78277600Y-151028741D01*
X78277600Y-150791259D01*
X78231269Y-150558340D01*
X78140389Y-150338934D01*
X78008450Y-150141475D01*
X77840525Y-149973550D01*
X77643066Y-149841611D01*
X77423660Y-149750731D01*
X77190741Y-149704400D01*
X76953259Y-149704400D01*
X76720340Y-149750731D01*
X76500934Y-149841611D01*
X76303475Y-149973550D01*
X76135550Y-150141475D01*
X76003611Y-150338934D01*
X75912731Y-150558340D01*
X75866400Y-150791259D01*
X75725620Y-150791259D01*
X75768704Y-150688409D01*
X75759366Y-150641456D01*
X75683392Y-150407169D01*
X75563171Y-150192205D01*
X75403323Y-150004826D01*
X75209990Y-149852232D01*
X74990602Y-149740288D01*
X74753591Y-149673295D01*
X74557400Y-149755456D01*
X74506600Y-149755456D01*
X74310409Y-149673295D01*
X74073398Y-149740288D01*
X73854010Y-149852232D01*
X73660677Y-150004826D01*
X73500829Y-150192205D01*
X73380608Y-150407169D01*
X73304634Y-150641456D01*
X73295296Y-150688409D01*
X53137600Y-150688409D01*
X53137600Y-144761428D01*
X54851900Y-144761428D01*
X54851900Y-145151572D01*
X54928014Y-145534220D01*
X55077315Y-145894666D01*
X55294068Y-146219059D01*
X55569941Y-146494932D01*
X55894334Y-146711685D01*
X56254780Y-146860986D01*
X56637428Y-146937100D01*
X57027572Y-146937100D01*
X57410220Y-146860986D01*
X57770666Y-146711685D01*
X57984937Y-146568513D01*
X58686900Y-146568513D01*
X58686900Y-146904487D01*
X58752445Y-147234005D01*
X58881017Y-147544405D01*
X59067674Y-147823757D01*
X59305243Y-148061326D01*
X59584595Y-148247983D01*
X59894995Y-148376555D01*
X60224513Y-148442100D01*
X60560487Y-148442100D01*
X60890005Y-148376555D01*
X61200405Y-148247983D01*
X61479757Y-148061326D01*
X61717326Y-147823757D01*
X61903983Y-147544405D01*
X62001457Y-147309080D01*
X70935900Y-147309080D01*
X70935900Y-147457920D01*
X70964937Y-147603900D01*
X71021896Y-147741411D01*
X71104587Y-147865167D01*
X71209833Y-147970413D01*
X71333589Y-148053104D01*
X71471100Y-148110063D01*
X71617080Y-148139100D01*
X71765920Y-148139100D01*
X71911900Y-148110063D01*
X72049411Y-148053104D01*
X72173167Y-147970413D01*
X72278413Y-147865167D01*
X72361104Y-147741411D01*
X72418063Y-147603900D01*
X72447100Y-147457920D01*
X72447100Y-147406580D01*
X78094400Y-147406580D01*
X78094400Y-147555420D01*
X78123437Y-147701400D01*
X78180396Y-147838911D01*
X78263087Y-147962667D01*
X78368333Y-148067913D01*
X78492089Y-148150604D01*
X78629600Y-148207563D01*
X78775580Y-148236600D01*
X78924420Y-148236600D01*
X79070400Y-148207563D01*
X79207911Y-148150604D01*
X79331667Y-148067913D01*
X79436913Y-147962667D01*
X79519604Y-147838911D01*
X79576563Y-147701400D01*
X79605600Y-147555420D01*
X79605600Y-147406580D01*
X79576563Y-147260600D01*
X79558123Y-147216080D01*
X81523400Y-147216080D01*
X81523400Y-147364920D01*
X81552437Y-147510900D01*
X81609396Y-147648411D01*
X81692087Y-147772167D01*
X81797333Y-147877413D01*
X81921089Y-147960104D01*
X82058600Y-148017063D01*
X82204580Y-148046100D01*
X82353420Y-148046100D01*
X82499400Y-148017063D01*
X82636911Y-147960104D01*
X82760667Y-147877413D01*
X82865913Y-147772167D01*
X82948604Y-147648411D01*
X83005563Y-147510900D01*
X83034600Y-147364920D01*
X83034600Y-147245580D01*
X105416400Y-147245580D01*
X105416400Y-147394420D01*
X105445437Y-147540400D01*
X105502396Y-147677911D01*
X105585087Y-147801667D01*
X105690333Y-147906913D01*
X105814089Y-147989604D01*
X105951600Y-148046563D01*
X106097580Y-148075600D01*
X106246420Y-148075600D01*
X106392400Y-148046563D01*
X106529911Y-147989604D01*
X106653667Y-147906913D01*
X106758913Y-147801667D01*
X106841604Y-147677911D01*
X106898563Y-147540400D01*
X106927600Y-147394420D01*
X106927600Y-147245580D01*
X106898563Y-147099600D01*
X106841604Y-146962089D01*
X106758913Y-146838333D01*
X106653667Y-146733087D01*
X106529911Y-146650396D01*
X106392400Y-146593437D01*
X106246420Y-146564400D01*
X106097580Y-146564400D01*
X105951600Y-146593437D01*
X105814089Y-146650396D01*
X105690333Y-146733087D01*
X105585087Y-146838333D01*
X105502396Y-146962089D01*
X105445437Y-147099600D01*
X105416400Y-147245580D01*
X83034600Y-147245580D01*
X83034600Y-147216080D01*
X83005563Y-147070100D01*
X82948604Y-146932589D01*
X82865913Y-146808833D01*
X82760667Y-146703587D01*
X82636911Y-146620896D01*
X82499400Y-146563937D01*
X82353420Y-146534900D01*
X82204580Y-146534900D01*
X82058600Y-146563937D01*
X81921089Y-146620896D01*
X81797333Y-146703587D01*
X81692087Y-146808833D01*
X81609396Y-146932589D01*
X81552437Y-147070100D01*
X81523400Y-147216080D01*
X79558123Y-147216080D01*
X79519604Y-147123089D01*
X79436913Y-146999333D01*
X79331667Y-146894087D01*
X79207911Y-146811396D01*
X79070400Y-146754437D01*
X78924420Y-146725400D01*
X78775580Y-146725400D01*
X78629600Y-146754437D01*
X78492089Y-146811396D01*
X78368333Y-146894087D01*
X78263087Y-146999333D01*
X78180396Y-147123089D01*
X78123437Y-147260600D01*
X78094400Y-147406580D01*
X72447100Y-147406580D01*
X72447100Y-147309080D01*
X72418063Y-147163100D01*
X72361104Y-147025589D01*
X72278413Y-146901833D01*
X72173167Y-146796587D01*
X72049411Y-146713896D01*
X71911900Y-146656937D01*
X71765920Y-146627900D01*
X71617080Y-146627900D01*
X71471100Y-146656937D01*
X71333589Y-146713896D01*
X71209833Y-146796587D01*
X71104587Y-146901833D01*
X71021896Y-147025589D01*
X70964937Y-147163100D01*
X70935900Y-147309080D01*
X62001457Y-147309080D01*
X62032555Y-147234005D01*
X62098100Y-146904487D01*
X62098100Y-146568513D01*
X62032555Y-146238995D01*
X61903983Y-145928595D01*
X61717326Y-145649243D01*
X61479757Y-145411674D01*
X61402821Y-145360267D01*
X64883900Y-145360267D01*
X64883900Y-145572733D01*
X64925350Y-145781116D01*
X65006657Y-145977409D01*
X65124697Y-146154067D01*
X65274933Y-146304303D01*
X65451591Y-146422343D01*
X65647884Y-146503650D01*
X65856267Y-146545100D01*
X66068733Y-146545100D01*
X66277116Y-146503650D01*
X66473409Y-146422343D01*
X66650067Y-146304303D01*
X66800303Y-146154067D01*
X66918343Y-145977409D01*
X66999650Y-145781116D01*
X67041100Y-145572733D01*
X67041100Y-145360267D01*
X67031317Y-145311080D01*
X110415900Y-145311080D01*
X110415900Y-145459920D01*
X110444937Y-145605900D01*
X110501896Y-145743411D01*
X110584587Y-145867167D01*
X110689833Y-145972413D01*
X110813589Y-146055104D01*
X110951100Y-146112063D01*
X111097080Y-146141100D01*
X111245920Y-146141100D01*
X111391900Y-146112063D01*
X111529411Y-146055104D01*
X111653167Y-145972413D01*
X111758413Y-145867167D01*
X111841104Y-145743411D01*
X111898063Y-145605900D01*
X111927100Y-145459920D01*
X111927100Y-145311080D01*
X111898063Y-145165100D01*
X111841104Y-145027589D01*
X111758413Y-144903833D01*
X111653167Y-144798587D01*
X111529411Y-144715896D01*
X111391900Y-144658937D01*
X111245920Y-144629900D01*
X111097080Y-144629900D01*
X110951100Y-144658937D01*
X110813589Y-144715896D01*
X110689833Y-144798587D01*
X110584587Y-144903833D01*
X110501896Y-145027589D01*
X110444937Y-145165100D01*
X110415900Y-145311080D01*
X67031317Y-145311080D01*
X66999650Y-145151884D01*
X66918343Y-144955591D01*
X66800303Y-144778933D01*
X66650067Y-144628697D01*
X66473409Y-144510657D01*
X66277116Y-144429350D01*
X66068733Y-144387900D01*
X65856267Y-144387900D01*
X65647884Y-144429350D01*
X65451591Y-144510657D01*
X65274933Y-144628697D01*
X65124697Y-144778933D01*
X65006657Y-144955591D01*
X64925350Y-145151884D01*
X64883900Y-145360267D01*
X61402821Y-145360267D01*
X61200405Y-145225017D01*
X60890005Y-145096445D01*
X60560487Y-145030900D01*
X60224513Y-145030900D01*
X59894995Y-145096445D01*
X59584595Y-145225017D01*
X59305243Y-145411674D01*
X59067674Y-145649243D01*
X58881017Y-145928595D01*
X58752445Y-146238995D01*
X58686900Y-146568513D01*
X57984937Y-146568513D01*
X58095059Y-146494932D01*
X58370932Y-146219059D01*
X58587685Y-145894666D01*
X58736986Y-145534220D01*
X58813100Y-145151572D01*
X58813100Y-144761428D01*
X58736986Y-144378780D01*
X58587685Y-144018334D01*
X58370932Y-143693941D01*
X58095059Y-143418068D01*
X57770666Y-143201315D01*
X57410220Y-143052014D01*
X57027572Y-142975900D01*
X56637428Y-142975900D01*
X56254780Y-143052014D01*
X55894334Y-143201315D01*
X55569941Y-143418068D01*
X55294068Y-143693941D01*
X55077315Y-144018334D01*
X54928014Y-144378780D01*
X54851900Y-144761428D01*
X53137600Y-144761428D01*
X53137600Y-140117337D01*
X58237797Y-140117337D01*
X58255861Y-140339075D01*
X58316837Y-140553028D01*
X58418382Y-140750974D01*
X58439675Y-140782841D01*
X58624131Y-140848948D01*
X59336579Y-140136500D01*
X58624131Y-139424052D01*
X58439675Y-139490159D01*
X58331504Y-139684563D01*
X58263338Y-139896335D01*
X58237797Y-140117337D01*
X53137600Y-140117337D01*
X53137600Y-135950267D01*
X58293900Y-135950267D01*
X58293900Y-136162733D01*
X58335350Y-136371116D01*
X58416657Y-136567409D01*
X58534697Y-136744067D01*
X58684933Y-136894303D01*
X58861591Y-137012343D01*
X59016480Y-137076500D01*
X58861591Y-137140657D01*
X58684933Y-137258697D01*
X58534697Y-137408933D01*
X58416657Y-137585591D01*
X58335350Y-137781884D01*
X58293900Y-137990267D01*
X58293900Y-138202733D01*
X58335350Y-138411116D01*
X58416657Y-138607409D01*
X58534697Y-138784067D01*
X58684933Y-138934303D01*
X58861591Y-139052343D01*
X58944540Y-139086702D01*
X58758026Y-139182382D01*
X58726159Y-139203675D01*
X58660052Y-139388131D01*
X59372500Y-140100579D01*
X59386643Y-140086437D01*
X59422564Y-140122358D01*
X59408421Y-140136500D01*
X59422564Y-140150643D01*
X59386643Y-140186564D01*
X59372500Y-140172421D01*
X58660052Y-140884869D01*
X58726159Y-141069325D01*
X58920563Y-141177496D01*
X58946014Y-141185688D01*
X58861591Y-141220657D01*
X58684933Y-141338697D01*
X58534697Y-141488933D01*
X58416657Y-141665591D01*
X58335350Y-141861884D01*
X58293900Y-142070267D01*
X58293900Y-142282733D01*
X58335350Y-142491116D01*
X58416657Y-142687409D01*
X58534697Y-142864067D01*
X58684933Y-143014303D01*
X58861591Y-143132343D01*
X59057884Y-143213650D01*
X59266267Y-143255100D01*
X59478733Y-143255100D01*
X59687116Y-143213650D01*
X59883409Y-143132343D01*
X59976311Y-143070267D01*
X64883900Y-143070267D01*
X64883900Y-143282733D01*
X64925350Y-143491116D01*
X65006657Y-143687409D01*
X65124697Y-143864067D01*
X65274933Y-144014303D01*
X65451591Y-144132343D01*
X65647884Y-144213650D01*
X65856267Y-144255100D01*
X66068733Y-144255100D01*
X66277116Y-144213650D01*
X66473409Y-144132343D01*
X66650067Y-144014303D01*
X66800303Y-143864067D01*
X66918343Y-143687409D01*
X66999650Y-143491116D01*
X67016563Y-143406086D01*
X78094400Y-143406086D01*
X78094400Y-143554926D01*
X78123437Y-143700906D01*
X78180396Y-143838417D01*
X78263087Y-143962173D01*
X78368333Y-144067419D01*
X78492089Y-144150110D01*
X78629600Y-144207069D01*
X78775580Y-144236106D01*
X78924420Y-144236106D01*
X79070400Y-144207069D01*
X79207911Y-144150110D01*
X79331667Y-144067419D01*
X79392006Y-144007080D01*
X79635400Y-144007080D01*
X79635400Y-144155920D01*
X79664437Y-144301900D01*
X79721396Y-144439411D01*
X79804087Y-144563167D01*
X79909333Y-144668413D01*
X80033089Y-144751104D01*
X80170600Y-144808063D01*
X80316580Y-144837100D01*
X80465420Y-144837100D01*
X80611400Y-144808063D01*
X80748911Y-144751104D01*
X80872667Y-144668413D01*
X80977913Y-144563167D01*
X81060604Y-144439411D01*
X81117563Y-144301900D01*
X81146600Y-144155920D01*
X81146600Y-144007080D01*
X81117563Y-143861100D01*
X81060604Y-143723589D01*
X80977913Y-143599833D01*
X80872667Y-143494587D01*
X80748911Y-143411896D01*
X80611400Y-143354937D01*
X80465420Y-143325900D01*
X80316580Y-143325900D01*
X80170600Y-143354937D01*
X80033089Y-143411896D01*
X79909333Y-143494587D01*
X79804087Y-143599833D01*
X79721396Y-143723589D01*
X79664437Y-143861100D01*
X79635400Y-144007080D01*
X79392006Y-144007080D01*
X79436913Y-143962173D01*
X79519604Y-143838417D01*
X79576563Y-143700906D01*
X79605600Y-143554926D01*
X79605600Y-143406086D01*
X79576563Y-143260106D01*
X79519604Y-143122595D01*
X79436913Y-142998839D01*
X79331667Y-142893593D01*
X79207911Y-142810902D01*
X79070400Y-142753943D01*
X78924420Y-142724906D01*
X78775580Y-142724906D01*
X78629600Y-142753943D01*
X78492089Y-142810902D01*
X78368333Y-142893593D01*
X78263087Y-142998839D01*
X78180396Y-143122595D01*
X78123437Y-143260106D01*
X78094400Y-143406086D01*
X67016563Y-143406086D01*
X67041100Y-143282733D01*
X67041100Y-143070267D01*
X66999650Y-142861884D01*
X66918343Y-142665591D01*
X66800303Y-142488933D01*
X66650067Y-142338697D01*
X66473409Y-142220657D01*
X66277116Y-142139350D01*
X66068733Y-142097900D01*
X65856267Y-142097900D01*
X65647884Y-142139350D01*
X65451591Y-142220657D01*
X65274933Y-142338697D01*
X65124697Y-142488933D01*
X65006657Y-142665591D01*
X64925350Y-142861884D01*
X64883900Y-143070267D01*
X59976311Y-143070267D01*
X60060067Y-143014303D01*
X60210303Y-142864067D01*
X60328343Y-142687409D01*
X60409650Y-142491116D01*
X60451100Y-142282733D01*
X60451100Y-142070267D01*
X60428803Y-141958173D01*
X60464933Y-141994303D01*
X60641591Y-142112343D01*
X60837884Y-142193650D01*
X61046267Y-142235100D01*
X61258733Y-142235100D01*
X61467116Y-142193650D01*
X61663409Y-142112343D01*
X61840067Y-141994303D01*
X61990303Y-141844067D01*
X62108343Y-141667409D01*
X62189650Y-141471116D01*
X62231100Y-141262733D01*
X62231100Y-141050267D01*
X62189650Y-140841884D01*
X62108343Y-140645591D01*
X61990303Y-140468933D01*
X61840067Y-140318697D01*
X61663409Y-140200657D01*
X61580460Y-140166298D01*
X61766974Y-140070618D01*
X61798841Y-140049325D01*
X61814160Y-140006580D01*
X70935904Y-140006580D01*
X70935904Y-140155420D01*
X70964941Y-140301400D01*
X71021900Y-140438911D01*
X71104591Y-140562667D01*
X71209837Y-140667913D01*
X71333593Y-140750604D01*
X71471104Y-140807563D01*
X71617084Y-140836600D01*
X71765924Y-140836600D01*
X71911904Y-140807563D01*
X72049415Y-140750604D01*
X72173171Y-140667913D01*
X72278417Y-140562667D01*
X72361108Y-140438911D01*
X72418067Y-140301400D01*
X72447104Y-140155420D01*
X72447104Y-140070080D01*
X79635400Y-140070080D01*
X79635400Y-140218920D01*
X79664437Y-140364900D01*
X79721396Y-140502411D01*
X79804087Y-140626167D01*
X79909333Y-140731413D01*
X80033089Y-140814104D01*
X80170600Y-140871063D01*
X80316580Y-140900100D01*
X80465420Y-140900100D01*
X80611400Y-140871063D01*
X80748911Y-140814104D01*
X80872667Y-140731413D01*
X80977913Y-140626167D01*
X81060604Y-140502411D01*
X81117563Y-140364900D01*
X81138313Y-140260580D01*
X81476900Y-140260580D01*
X81476900Y-140409420D01*
X81505937Y-140555400D01*
X81562896Y-140692911D01*
X81645587Y-140816667D01*
X81750833Y-140921913D01*
X81874589Y-141004604D01*
X82012100Y-141061563D01*
X82158080Y-141090600D01*
X82306920Y-141090600D01*
X82452900Y-141061563D01*
X82590411Y-141004604D01*
X82714167Y-140921913D01*
X82819413Y-140816667D01*
X82902104Y-140692911D01*
X82959063Y-140555400D01*
X82988100Y-140409420D01*
X82988100Y-140260580D01*
X82959063Y-140114600D01*
X82902104Y-139977089D01*
X82819413Y-139853333D01*
X82714167Y-139748087D01*
X82590411Y-139665396D01*
X82452900Y-139608437D01*
X82306920Y-139579400D01*
X82158080Y-139579400D01*
X82012100Y-139608437D01*
X81874589Y-139665396D01*
X81750833Y-139748087D01*
X81645587Y-139853333D01*
X81562896Y-139977089D01*
X81505937Y-140114600D01*
X81476900Y-140260580D01*
X81138313Y-140260580D01*
X81146600Y-140218920D01*
X81146600Y-140070080D01*
X81117563Y-139924100D01*
X81060604Y-139786589D01*
X80977913Y-139662833D01*
X80872667Y-139557587D01*
X80748911Y-139474896D01*
X80611400Y-139417937D01*
X80465420Y-139388900D01*
X80316580Y-139388900D01*
X80170600Y-139417937D01*
X80033089Y-139474896D01*
X79909333Y-139557587D01*
X79804087Y-139662833D01*
X79721396Y-139786589D01*
X79664437Y-139924100D01*
X79635400Y-140070080D01*
X72447104Y-140070080D01*
X72447104Y-140006580D01*
X72418067Y-139860600D01*
X72361108Y-139723089D01*
X72278417Y-139599333D01*
X72173171Y-139494087D01*
X72049415Y-139411396D01*
X71911904Y-139354437D01*
X71765924Y-139325400D01*
X71617084Y-139325400D01*
X71471104Y-139354437D01*
X71333593Y-139411396D01*
X71209837Y-139494087D01*
X71104591Y-139599333D01*
X71021900Y-139723089D01*
X70964941Y-139860600D01*
X70935904Y-140006580D01*
X61814160Y-140006580D01*
X61864948Y-139864869D01*
X61152500Y-139152421D01*
X61138358Y-139166564D01*
X61102437Y-139130643D01*
X61116579Y-139116500D01*
X61188421Y-139116500D01*
X61900869Y-139828948D01*
X62085325Y-139762841D01*
X62193496Y-139568437D01*
X62261662Y-139356665D01*
X62287203Y-139135663D01*
X62269139Y-138913925D01*
X62208163Y-138699972D01*
X62106618Y-138502026D01*
X62085325Y-138470159D01*
X61900869Y-138404052D01*
X61188421Y-139116500D01*
X61116579Y-139116500D01*
X61102437Y-139102358D01*
X61138358Y-139066437D01*
X61152500Y-139080579D01*
X61864948Y-138368131D01*
X61798841Y-138183675D01*
X61604437Y-138075504D01*
X61578986Y-138067312D01*
X61663409Y-138032343D01*
X61840067Y-137914303D01*
X61843290Y-137911080D01*
X101161900Y-137911080D01*
X101161900Y-138059920D01*
X101190937Y-138205900D01*
X101247896Y-138343411D01*
X101330587Y-138467167D01*
X101435833Y-138572413D01*
X101559589Y-138655104D01*
X101697100Y-138712063D01*
X101843080Y-138741100D01*
X101991920Y-138741100D01*
X102137900Y-138712063D01*
X102275411Y-138655104D01*
X102399167Y-138572413D01*
X102504413Y-138467167D01*
X102587104Y-138343411D01*
X102644063Y-138205900D01*
X102673100Y-138059920D01*
X102673100Y-137911080D01*
X102644063Y-137765100D01*
X102587104Y-137627589D01*
X102504413Y-137503833D01*
X102399167Y-137398587D01*
X102275411Y-137315896D01*
X102137900Y-137258937D01*
X101991920Y-137229900D01*
X101843080Y-137229900D01*
X101697100Y-137258937D01*
X101559589Y-137315896D01*
X101435833Y-137398587D01*
X101330587Y-137503833D01*
X101247896Y-137627589D01*
X101190937Y-137765100D01*
X101161900Y-137911080D01*
X61843290Y-137911080D01*
X61990303Y-137764067D01*
X62108343Y-137587409D01*
X62189650Y-137391116D01*
X62231100Y-137182733D01*
X62231100Y-136970267D01*
X62189650Y-136761884D01*
X62108343Y-136565591D01*
X61990303Y-136388933D01*
X61840067Y-136238697D01*
X61663409Y-136120657D01*
X61508520Y-136056500D01*
X61663409Y-135992343D01*
X61840067Y-135874303D01*
X61990303Y-135724067D01*
X62108343Y-135547409D01*
X62189650Y-135351116D01*
X62231100Y-135142733D01*
X62231100Y-134930267D01*
X62202179Y-134784869D01*
X65250052Y-134784869D01*
X65316159Y-134969325D01*
X65510563Y-135077496D01*
X65722335Y-135145662D01*
X65943337Y-135171203D01*
X66165075Y-135153139D01*
X66379028Y-135092163D01*
X66576974Y-134990618D01*
X66608841Y-134969325D01*
X66674948Y-134784869D01*
X65962500Y-134072421D01*
X65250052Y-134784869D01*
X62202179Y-134784869D01*
X62189650Y-134721884D01*
X62108343Y-134525591D01*
X61990303Y-134348933D01*
X61840067Y-134198697D01*
X61663409Y-134080657D01*
X61510541Y-134017337D01*
X64827797Y-134017337D01*
X64845861Y-134239075D01*
X64906837Y-134453028D01*
X65008382Y-134650974D01*
X65029675Y-134682841D01*
X65214131Y-134748948D01*
X65926579Y-134036500D01*
X65998421Y-134036500D01*
X66710869Y-134748948D01*
X66895325Y-134682841D01*
X67003496Y-134488437D01*
X67071662Y-134276665D01*
X67085376Y-134158000D01*
X76072680Y-134158000D01*
X76072680Y-135658000D01*
X76079546Y-135727710D01*
X76099879Y-135794740D01*
X76132899Y-135856516D01*
X76177337Y-135910663D01*
X76231484Y-135955101D01*
X76293260Y-135988121D01*
X76360290Y-136008454D01*
X76430000Y-136015320D01*
X78730000Y-136015320D01*
X78799710Y-136008454D01*
X78866740Y-135988121D01*
X78928516Y-135955101D01*
X78982663Y-135910663D01*
X79027101Y-135856516D01*
X79048981Y-135815580D01*
X88461902Y-135815580D01*
X88461902Y-135964420D01*
X88490939Y-136110400D01*
X88547898Y-136247911D01*
X88630589Y-136371667D01*
X88735835Y-136476913D01*
X88859591Y-136559604D01*
X88997102Y-136616563D01*
X89143082Y-136645600D01*
X89291922Y-136645600D01*
X89437902Y-136616563D01*
X89575413Y-136559604D01*
X89699169Y-136476913D01*
X89804415Y-136371667D01*
X89887106Y-136247911D01*
X89944065Y-136110400D01*
X89973102Y-135964420D01*
X89973102Y-135832582D01*
X90540398Y-135832582D01*
X90540398Y-135981422D01*
X90569435Y-136127402D01*
X90626394Y-136264913D01*
X90709085Y-136388669D01*
X90814331Y-136493915D01*
X90938087Y-136576606D01*
X91075598Y-136633565D01*
X91221578Y-136662602D01*
X91370418Y-136662602D01*
X91516398Y-136633565D01*
X91653909Y-136576606D01*
X91777665Y-136493915D01*
X91882911Y-136388669D01*
X91965602Y-136264913D01*
X92022561Y-136127402D01*
X92051598Y-135981422D01*
X92051598Y-135832582D01*
X92022561Y-135686602D01*
X91965602Y-135549091D01*
X91882911Y-135425335D01*
X91777665Y-135320089D01*
X91653909Y-135237398D01*
X91516398Y-135180439D01*
X91370418Y-135151402D01*
X91221578Y-135151402D01*
X91075598Y-135180439D01*
X90938087Y-135237398D01*
X90814331Y-135320089D01*
X90709085Y-135425335D01*
X90626394Y-135549091D01*
X90569435Y-135686602D01*
X90540398Y-135832582D01*
X89973102Y-135832582D01*
X89973102Y-135815580D01*
X89944065Y-135669600D01*
X89887106Y-135532089D01*
X89804415Y-135408333D01*
X89699169Y-135303087D01*
X89575413Y-135220396D01*
X89437902Y-135163437D01*
X89291922Y-135134400D01*
X89143082Y-135134400D01*
X88997102Y-135163437D01*
X88859591Y-135220396D01*
X88735835Y-135303087D01*
X88630589Y-135408333D01*
X88547898Y-135532089D01*
X88490939Y-135669600D01*
X88461902Y-135815580D01*
X79048981Y-135815580D01*
X79060121Y-135794740D01*
X79080454Y-135727710D01*
X79087320Y-135658000D01*
X79087320Y-134355080D01*
X89668400Y-134355080D01*
X89668400Y-134503920D01*
X89697437Y-134649900D01*
X89754396Y-134787411D01*
X89837087Y-134911167D01*
X89942333Y-135016413D01*
X90066089Y-135099104D01*
X90203600Y-135156063D01*
X90349580Y-135185100D01*
X90498420Y-135185100D01*
X90644400Y-135156063D01*
X90781911Y-135099104D01*
X90905667Y-135016413D01*
X91010913Y-134911167D01*
X91093604Y-134787411D01*
X91150563Y-134649900D01*
X91164550Y-134579580D01*
X92127900Y-134579580D01*
X92127900Y-134728420D01*
X92156937Y-134874400D01*
X92213896Y-135011911D01*
X92296587Y-135135667D01*
X92401833Y-135240913D01*
X92525589Y-135323604D01*
X92663100Y-135380563D01*
X92809080Y-135409600D01*
X92957920Y-135409600D01*
X93103900Y-135380563D01*
X93241411Y-135323604D01*
X93365167Y-135240913D01*
X93470413Y-135135667D01*
X93553104Y-135011911D01*
X93610063Y-134874400D01*
X93639100Y-134728420D01*
X93639100Y-134579580D01*
X94096400Y-134579580D01*
X94096400Y-134728420D01*
X94125437Y-134874400D01*
X94182396Y-135011911D01*
X94265087Y-135135667D01*
X94370333Y-135240913D01*
X94494089Y-135323604D01*
X94631600Y-135380563D01*
X94777580Y-135409600D01*
X94926420Y-135409600D01*
X95072400Y-135380563D01*
X95209911Y-135323604D01*
X95333667Y-135240913D01*
X95438913Y-135135667D01*
X95521604Y-135011911D01*
X95578563Y-134874400D01*
X95607600Y-134728420D01*
X95607600Y-134579580D01*
X98096900Y-134579580D01*
X98096900Y-134728420D01*
X98125937Y-134874400D01*
X98182896Y-135011911D01*
X98265587Y-135135667D01*
X98370833Y-135240913D01*
X98494589Y-135323604D01*
X98632100Y-135380563D01*
X98778080Y-135409600D01*
X98926920Y-135409600D01*
X99072900Y-135380563D01*
X99210411Y-135323604D01*
X99334167Y-135240913D01*
X99439413Y-135135667D01*
X99522104Y-135011911D01*
X99579063Y-134874400D01*
X99608100Y-134728420D01*
X99608100Y-134609080D01*
X99701400Y-134609080D01*
X99701400Y-134757920D01*
X99730437Y-134903900D01*
X99787396Y-135041411D01*
X99870087Y-135165167D01*
X99975333Y-135270413D01*
X100099089Y-135353104D01*
X100236600Y-135410063D01*
X100382580Y-135439100D01*
X100531420Y-135439100D01*
X100677400Y-135410063D01*
X100814911Y-135353104D01*
X100938667Y-135270413D01*
X101043913Y-135165167D01*
X101126604Y-135041411D01*
X101183563Y-134903900D01*
X101212600Y-134757920D01*
X101212600Y-134609080D01*
X101206733Y-134579580D01*
X101525900Y-134579580D01*
X101525900Y-134728420D01*
X101554937Y-134874400D01*
X101611896Y-135011911D01*
X101694587Y-135135667D01*
X101799833Y-135240913D01*
X101923589Y-135323604D01*
X102061100Y-135380563D01*
X102207080Y-135409600D01*
X102355920Y-135409600D01*
X102501900Y-135380563D01*
X102639411Y-135323604D01*
X102763167Y-135240913D01*
X102868413Y-135135667D01*
X102951104Y-135011911D01*
X103008063Y-134874400D01*
X103037100Y-134728420D01*
X103037100Y-134579580D01*
X103008063Y-134433600D01*
X102951104Y-134296089D01*
X102868413Y-134172333D01*
X102763167Y-134067087D01*
X102639411Y-133984396D01*
X102501900Y-133927437D01*
X102355920Y-133898400D01*
X102207080Y-133898400D01*
X102061100Y-133927437D01*
X101923589Y-133984396D01*
X101799833Y-134067087D01*
X101694587Y-134172333D01*
X101611896Y-134296089D01*
X101554937Y-134433600D01*
X101525900Y-134579580D01*
X101206733Y-134579580D01*
X101183563Y-134463100D01*
X101126604Y-134325589D01*
X101043913Y-134201833D01*
X100938667Y-134096587D01*
X100814911Y-134013896D01*
X100677400Y-133956937D01*
X100531420Y-133927900D01*
X100382580Y-133927900D01*
X100236600Y-133956937D01*
X100099089Y-134013896D01*
X99975333Y-134096587D01*
X99870087Y-134201833D01*
X99787396Y-134325589D01*
X99730437Y-134463100D01*
X99701400Y-134609080D01*
X99608100Y-134609080D01*
X99608100Y-134579580D01*
X99579063Y-134433600D01*
X99522104Y-134296089D01*
X99439413Y-134172333D01*
X99334167Y-134067087D01*
X99210411Y-133984396D01*
X99072900Y-133927437D01*
X98926920Y-133898400D01*
X98778080Y-133898400D01*
X98632100Y-133927437D01*
X98494589Y-133984396D01*
X98370833Y-134067087D01*
X98265587Y-134172333D01*
X98182896Y-134296089D01*
X98125937Y-134433600D01*
X98096900Y-134579580D01*
X95607600Y-134579580D01*
X95578563Y-134433600D01*
X95521604Y-134296089D01*
X95438913Y-134172333D01*
X95333667Y-134067087D01*
X95209911Y-133984396D01*
X95072400Y-133927437D01*
X94926420Y-133898400D01*
X94777580Y-133898400D01*
X94631600Y-133927437D01*
X94494089Y-133984396D01*
X94370333Y-134067087D01*
X94265087Y-134172333D01*
X94182396Y-134296089D01*
X94125437Y-134433600D01*
X94096400Y-134579580D01*
X93639100Y-134579580D01*
X93610063Y-134433600D01*
X93553104Y-134296089D01*
X93470413Y-134172333D01*
X93365167Y-134067087D01*
X93241411Y-133984396D01*
X93103900Y-133927437D01*
X92957920Y-133898400D01*
X92809080Y-133898400D01*
X92663100Y-133927437D01*
X92525589Y-133984396D01*
X92401833Y-134067087D01*
X92296587Y-134172333D01*
X92213896Y-134296089D01*
X92156937Y-134433600D01*
X92127900Y-134579580D01*
X91164550Y-134579580D01*
X91179600Y-134503920D01*
X91179600Y-134355080D01*
X91150563Y-134209100D01*
X91093604Y-134071589D01*
X91010913Y-133947833D01*
X90905667Y-133842587D01*
X90781911Y-133759896D01*
X90644400Y-133702937D01*
X90498420Y-133673900D01*
X90349580Y-133673900D01*
X90203600Y-133702937D01*
X90066089Y-133759896D01*
X89942333Y-133842587D01*
X89837087Y-133947833D01*
X89754396Y-134071589D01*
X89697437Y-134209100D01*
X89668400Y-134355080D01*
X79087320Y-134355080D01*
X79087320Y-134158000D01*
X79080454Y-134088290D01*
X79060121Y-134021260D01*
X79027101Y-133959484D01*
X78982663Y-133905337D01*
X78928516Y-133860899D01*
X78866740Y-133827879D01*
X78799710Y-133807546D01*
X78730000Y-133800680D01*
X76430000Y-133800680D01*
X76360290Y-133807546D01*
X76293260Y-133827879D01*
X76231484Y-133860899D01*
X76177337Y-133905337D01*
X76132899Y-133959484D01*
X76099879Y-134021260D01*
X76079546Y-134088290D01*
X76072680Y-134158000D01*
X67085376Y-134158000D01*
X67097203Y-134055663D01*
X67079139Y-133833925D01*
X67018163Y-133619972D01*
X66916618Y-133422026D01*
X66895325Y-133390159D01*
X66710869Y-133324052D01*
X65998421Y-134036500D01*
X65926579Y-134036500D01*
X65214131Y-133324052D01*
X65029675Y-133390159D01*
X64921504Y-133584563D01*
X64853338Y-133796335D01*
X64827797Y-134017337D01*
X61510541Y-134017337D01*
X61467116Y-133999350D01*
X61258733Y-133957900D01*
X61046267Y-133957900D01*
X60837884Y-133999350D01*
X60641591Y-134080657D01*
X60464933Y-134198697D01*
X60314697Y-134348933D01*
X60196657Y-134525591D01*
X60115350Y-134721884D01*
X60073900Y-134930267D01*
X60073900Y-135142733D01*
X60096197Y-135254827D01*
X60060067Y-135218697D01*
X59883409Y-135100657D01*
X59687116Y-135019350D01*
X59478733Y-134977900D01*
X59266267Y-134977900D01*
X59057884Y-135019350D01*
X58861591Y-135100657D01*
X58684933Y-135218697D01*
X58534697Y-135368933D01*
X58416657Y-135545591D01*
X58335350Y-135741884D01*
X58293900Y-135950267D01*
X53137600Y-135950267D01*
X53137600Y-132061428D01*
X54851900Y-132061428D01*
X54851900Y-132451572D01*
X54928014Y-132834220D01*
X55077315Y-133194666D01*
X55294068Y-133519059D01*
X55569941Y-133794932D01*
X55894334Y-134011685D01*
X56254780Y-134160986D01*
X56637428Y-134237100D01*
X57027572Y-134237100D01*
X57410220Y-134160986D01*
X57770666Y-134011685D01*
X58095059Y-133794932D01*
X58370932Y-133519059D01*
X58525233Y-133288131D01*
X65250052Y-133288131D01*
X65962500Y-134000579D01*
X66674948Y-133288131D01*
X66608841Y-133103675D01*
X66414437Y-132995504D01*
X66202665Y-132927338D01*
X65981663Y-132901797D01*
X65759925Y-132919861D01*
X65545972Y-132980837D01*
X65348026Y-133082382D01*
X65316159Y-133103675D01*
X65250052Y-133288131D01*
X58525233Y-133288131D01*
X58587685Y-133194666D01*
X58736986Y-132834220D01*
X58813100Y-132451572D01*
X58813100Y-132061428D01*
X58736986Y-131678780D01*
X58587685Y-131318334D01*
X58370932Y-130993941D01*
X58095059Y-130718068D01*
X57770666Y-130501315D01*
X57410220Y-130352014D01*
X57191528Y-130308513D01*
X58686900Y-130308513D01*
X58686900Y-130644487D01*
X58752445Y-130974005D01*
X58881017Y-131284405D01*
X59067674Y-131563757D01*
X59305243Y-131801326D01*
X59584595Y-131987983D01*
X59894995Y-132116555D01*
X60224513Y-132182100D01*
X60560487Y-132182100D01*
X60890005Y-132116555D01*
X61200405Y-131987983D01*
X61479757Y-131801326D01*
X61640816Y-131640267D01*
X64883900Y-131640267D01*
X64883900Y-131852733D01*
X64925350Y-132061116D01*
X65006657Y-132257409D01*
X65124697Y-132434067D01*
X65274933Y-132584303D01*
X65451591Y-132702343D01*
X65647884Y-132783650D01*
X65856267Y-132825100D01*
X66068733Y-132825100D01*
X66277116Y-132783650D01*
X66473409Y-132702343D01*
X66650067Y-132584303D01*
X66660426Y-132573944D01*
X76042086Y-132573944D01*
X76101906Y-132787069D01*
X76204378Y-132989342D01*
X76344342Y-133167738D01*
X76516420Y-133315400D01*
X76713999Y-133426654D01*
X76929486Y-133497225D01*
X77154600Y-133524400D01*
X77554600Y-133524400D01*
X77554600Y-132393400D01*
X77605400Y-132393400D01*
X77605400Y-133524400D01*
X78005400Y-133524400D01*
X78206863Y-133500080D01*
X110669900Y-133500080D01*
X110669900Y-133648920D01*
X110698937Y-133794900D01*
X110755896Y-133932411D01*
X110838587Y-134056167D01*
X110943833Y-134161413D01*
X111067589Y-134244104D01*
X111205100Y-134301063D01*
X111351080Y-134330100D01*
X111499920Y-134330100D01*
X111645900Y-134301063D01*
X111783411Y-134244104D01*
X111907167Y-134161413D01*
X112012413Y-134056167D01*
X112095104Y-133932411D01*
X112152063Y-133794900D01*
X112181100Y-133648920D01*
X112181100Y-133500080D01*
X112152063Y-133354100D01*
X112095104Y-133216589D01*
X112012413Y-133092833D01*
X111907167Y-132987587D01*
X111783411Y-132904896D01*
X111645900Y-132847937D01*
X111499920Y-132818900D01*
X111351080Y-132818900D01*
X111205100Y-132847937D01*
X111067589Y-132904896D01*
X110943833Y-132987587D01*
X110838587Y-133092833D01*
X110755896Y-133216589D01*
X110698937Y-133354100D01*
X110669900Y-133500080D01*
X78206863Y-133500080D01*
X78230514Y-133497225D01*
X78446001Y-133426654D01*
X78643580Y-133315400D01*
X78815658Y-133167738D01*
X78955622Y-132989342D01*
X79058094Y-132787069D01*
X79117914Y-132573944D01*
X79034494Y-132393400D01*
X77605400Y-132393400D01*
X77554600Y-132393400D01*
X76125506Y-132393400D01*
X76042086Y-132573944D01*
X66660426Y-132573944D01*
X66800303Y-132434067D01*
X66918343Y-132257409D01*
X66957839Y-132162056D01*
X76042086Y-132162056D01*
X76125506Y-132342600D01*
X77554600Y-132342600D01*
X77554600Y-131211600D01*
X77605400Y-131211600D01*
X77605400Y-132342600D01*
X79034494Y-132342600D01*
X79117914Y-132162056D01*
X79058094Y-131948931D01*
X78955622Y-131746658D01*
X78815658Y-131568262D01*
X78643580Y-131420600D01*
X78446001Y-131309346D01*
X78230514Y-131238775D01*
X78005400Y-131211600D01*
X77605400Y-131211600D01*
X77554600Y-131211600D01*
X77154600Y-131211600D01*
X76929486Y-131238775D01*
X76713999Y-131309346D01*
X76516420Y-131420600D01*
X76344342Y-131568262D01*
X76204378Y-131746658D01*
X76101906Y-131948931D01*
X76042086Y-132162056D01*
X66957839Y-132162056D01*
X66999650Y-132061116D01*
X67041100Y-131852733D01*
X67041100Y-131640267D01*
X66999650Y-131431884D01*
X66918343Y-131235591D01*
X66800303Y-131058933D01*
X66650067Y-130908697D01*
X66473409Y-130790657D01*
X66277116Y-130709350D01*
X66068733Y-130667900D01*
X65856267Y-130667900D01*
X65647884Y-130709350D01*
X65451591Y-130790657D01*
X65274933Y-130908697D01*
X65124697Y-131058933D01*
X65006657Y-131235591D01*
X64925350Y-131431884D01*
X64883900Y-131640267D01*
X61640816Y-131640267D01*
X61717326Y-131563757D01*
X61903983Y-131284405D01*
X62032555Y-130974005D01*
X62098100Y-130644487D01*
X62098100Y-130308513D01*
X62032555Y-129978995D01*
X61970011Y-129828000D01*
X76069051Y-129828000D01*
X76090398Y-130044735D01*
X76153617Y-130253142D01*
X76256280Y-130445210D01*
X76394440Y-130613560D01*
X76562790Y-130751720D01*
X76754858Y-130854383D01*
X76963265Y-130917602D01*
X77125692Y-130933600D01*
X78034308Y-130933600D01*
X78196735Y-130917602D01*
X78405142Y-130854383D01*
X78597210Y-130751720D01*
X78765560Y-130613560D01*
X78903720Y-130445210D01*
X79006383Y-130253142D01*
X79069602Y-130044735D01*
X79090949Y-129828000D01*
X79069602Y-129611265D01*
X79006383Y-129402858D01*
X78903720Y-129210790D01*
X78765560Y-129042440D01*
X78597210Y-128904280D01*
X78405142Y-128801617D01*
X78196735Y-128738398D01*
X78034308Y-128722400D01*
X77125692Y-128722400D01*
X76963265Y-128738398D01*
X76754858Y-128801617D01*
X76562790Y-128904280D01*
X76394440Y-129042440D01*
X76256280Y-129210790D01*
X76153617Y-129402858D01*
X76090398Y-129611265D01*
X76069051Y-129828000D01*
X61970011Y-129828000D01*
X61903983Y-129668595D01*
X61717326Y-129389243D01*
X61479757Y-129151674D01*
X61200405Y-128965017D01*
X60890005Y-128836445D01*
X60560487Y-128770900D01*
X60224513Y-128770900D01*
X59894995Y-128836445D01*
X59584595Y-128965017D01*
X59305243Y-129151674D01*
X59067674Y-129389243D01*
X58881017Y-129668595D01*
X58752445Y-129978995D01*
X58686900Y-130308513D01*
X57191528Y-130308513D01*
X57027572Y-130275900D01*
X56637428Y-130275900D01*
X56254780Y-130352014D01*
X55894334Y-130501315D01*
X55569941Y-130718068D01*
X55294068Y-130993941D01*
X55077315Y-131318334D01*
X54928014Y-131678780D01*
X54851900Y-132061428D01*
X53137600Y-132061428D01*
X53137600Y-128259080D01*
X67443400Y-128259080D01*
X67443400Y-128407920D01*
X67472437Y-128553900D01*
X67529396Y-128691411D01*
X67612087Y-128815167D01*
X67717333Y-128920413D01*
X67841089Y-129003104D01*
X67978600Y-129060063D01*
X68124580Y-129089100D01*
X68273420Y-129089100D01*
X68419400Y-129060063D01*
X68556911Y-129003104D01*
X68680667Y-128920413D01*
X68785913Y-128815167D01*
X68868604Y-128691411D01*
X68925563Y-128553900D01*
X68954600Y-128407920D01*
X68954600Y-128259080D01*
X68925563Y-128113100D01*
X68868604Y-127975589D01*
X68785913Y-127851833D01*
X68680667Y-127746587D01*
X68556911Y-127663896D01*
X68419400Y-127606937D01*
X68273420Y-127577900D01*
X68124580Y-127577900D01*
X67978600Y-127606937D01*
X67841089Y-127663896D01*
X67717333Y-127746587D01*
X67612087Y-127851833D01*
X67529396Y-127975589D01*
X67472437Y-128113100D01*
X67443400Y-128259080D01*
X53137600Y-128259080D01*
X53137600Y-126261078D01*
X86857400Y-126261078D01*
X86857400Y-126409918D01*
X86886437Y-126555898D01*
X86943396Y-126693409D01*
X87026087Y-126817165D01*
X87131333Y-126922411D01*
X87255089Y-127005102D01*
X87392600Y-127062061D01*
X87538580Y-127091098D01*
X87687420Y-127091098D01*
X87833400Y-127062061D01*
X87970911Y-127005102D01*
X88094667Y-126922411D01*
X88199913Y-126817165D01*
X88282604Y-126693409D01*
X88339563Y-126555898D01*
X88368600Y-126409918D01*
X88368600Y-126261078D01*
X88339563Y-126115098D01*
X88282604Y-125977587D01*
X88265561Y-125952080D01*
X107951400Y-125952080D01*
X107951400Y-126100920D01*
X107980437Y-126246900D01*
X108037396Y-126384411D01*
X108120087Y-126508167D01*
X108225333Y-126613413D01*
X108349089Y-126696104D01*
X108486600Y-126753063D01*
X108632580Y-126782100D01*
X108781420Y-126782100D01*
X108927400Y-126753063D01*
X109064911Y-126696104D01*
X109188667Y-126613413D01*
X109257000Y-126545080D01*
X109325333Y-126613413D01*
X109449089Y-126696104D01*
X109586600Y-126753063D01*
X109732580Y-126782100D01*
X109881420Y-126782100D01*
X110027400Y-126753063D01*
X110164911Y-126696104D01*
X110288667Y-126613413D01*
X110357000Y-126545080D01*
X110425333Y-126613413D01*
X110549089Y-126696104D01*
X110686600Y-126753063D01*
X110832580Y-126782100D01*
X110981420Y-126782100D01*
X111127400Y-126753063D01*
X111264911Y-126696104D01*
X111388667Y-126613413D01*
X111493913Y-126508167D01*
X111576604Y-126384411D01*
X111633563Y-126246900D01*
X111662600Y-126100920D01*
X111662600Y-125952080D01*
X111633563Y-125806100D01*
X111576604Y-125668589D01*
X111493913Y-125544833D01*
X111388667Y-125439587D01*
X111264911Y-125356896D01*
X111127400Y-125299937D01*
X110981420Y-125270900D01*
X110832580Y-125270900D01*
X110686600Y-125299937D01*
X110549089Y-125356896D01*
X110425333Y-125439587D01*
X110357000Y-125507920D01*
X110288667Y-125439587D01*
X110164911Y-125356896D01*
X110027400Y-125299937D01*
X109881420Y-125270900D01*
X109732580Y-125270900D01*
X109586600Y-125299937D01*
X109449089Y-125356896D01*
X109325333Y-125439587D01*
X109257000Y-125507920D01*
X109188667Y-125439587D01*
X109064911Y-125356896D01*
X108927400Y-125299937D01*
X108781420Y-125270900D01*
X108632580Y-125270900D01*
X108486600Y-125299937D01*
X108349089Y-125356896D01*
X108225333Y-125439587D01*
X108120087Y-125544833D01*
X108037396Y-125668589D01*
X107980437Y-125806100D01*
X107951400Y-125952080D01*
X88265561Y-125952080D01*
X88199913Y-125853831D01*
X88094667Y-125748585D01*
X87970911Y-125665894D01*
X87833400Y-125608935D01*
X87687420Y-125579898D01*
X87538580Y-125579898D01*
X87392600Y-125608935D01*
X87255089Y-125665894D01*
X87131333Y-125748585D01*
X87026087Y-125853831D01*
X86943396Y-125977587D01*
X86886437Y-126115098D01*
X86857400Y-126261078D01*
X53137600Y-126261078D01*
X53137600Y-125456636D01*
X53191422Y-125503319D01*
X53350102Y-125593781D01*
X53523381Y-125651548D01*
X53704600Y-125674400D01*
X54129600Y-125674400D01*
X54129600Y-124768400D01*
X54180400Y-124768400D01*
X54180400Y-125674400D01*
X54605400Y-125674400D01*
X54786619Y-125651548D01*
X54959898Y-125593781D01*
X55118578Y-125503319D01*
X55256560Y-125383638D01*
X55368542Y-125239338D01*
X55450221Y-125075964D01*
X55495618Y-124913736D01*
X55466165Y-124864080D01*
X62790900Y-124864080D01*
X62790900Y-125012920D01*
X62819937Y-125158900D01*
X62876896Y-125296411D01*
X62959587Y-125420167D01*
X63064833Y-125525413D01*
X63188589Y-125608104D01*
X63326100Y-125665063D01*
X63472080Y-125694100D01*
X63620920Y-125694100D01*
X63766900Y-125665063D01*
X63904411Y-125608104D01*
X64028167Y-125525413D01*
X64133413Y-125420167D01*
X64216104Y-125296411D01*
X64273063Y-125158900D01*
X64302100Y-125012920D01*
X64302100Y-124864080D01*
X64273063Y-124718100D01*
X64216104Y-124580589D01*
X64133413Y-124456833D01*
X64028167Y-124351587D01*
X63904411Y-124268896D01*
X63766900Y-124211937D01*
X63620920Y-124182900D01*
X63472080Y-124182900D01*
X63326100Y-124211937D01*
X63188589Y-124268896D01*
X63064833Y-124351587D01*
X62959587Y-124456833D01*
X62876896Y-124580589D01*
X62819937Y-124718100D01*
X62790900Y-124864080D01*
X55466165Y-124864080D01*
X55409411Y-124768400D01*
X54180400Y-124768400D01*
X54129600Y-124768400D01*
X54109600Y-124768400D01*
X54109600Y-124717600D01*
X54129600Y-124717600D01*
X54129600Y-123811600D01*
X54180400Y-123811600D01*
X54180400Y-124717600D01*
X55409411Y-124717600D01*
X55495618Y-124572264D01*
X55450221Y-124410036D01*
X55368542Y-124246662D01*
X55256560Y-124102362D01*
X55118578Y-123982681D01*
X54959898Y-123892219D01*
X54786619Y-123834452D01*
X54605400Y-123811600D01*
X54180400Y-123811600D01*
X54129600Y-123811600D01*
X53704600Y-123811600D01*
X53523381Y-123834452D01*
X53350102Y-123892219D01*
X53191422Y-123982681D01*
X53137600Y-124029364D01*
X53137600Y-121591580D01*
X62998398Y-121591580D01*
X62998398Y-121740420D01*
X63027435Y-121886400D01*
X63084394Y-122023911D01*
X63167085Y-122147667D01*
X63272331Y-122252913D01*
X63396087Y-122335604D01*
X63533598Y-122392563D01*
X63679578Y-122421600D01*
X63828418Y-122421600D01*
X63974398Y-122392563D01*
X64111909Y-122335604D01*
X64235665Y-122252913D01*
X64340911Y-122147667D01*
X64423602Y-122023911D01*
X64480561Y-121886400D01*
X64509598Y-121740420D01*
X64509598Y-121591580D01*
X64480561Y-121445600D01*
X64423602Y-121308089D01*
X64340911Y-121184333D01*
X64235665Y-121079087D01*
X64111909Y-120996396D01*
X63974398Y-120939437D01*
X63828418Y-120910400D01*
X63679578Y-120910400D01*
X63533598Y-120939437D01*
X63396087Y-120996396D01*
X63272331Y-121079087D01*
X63167085Y-121184333D01*
X63084394Y-121308089D01*
X63027435Y-121445600D01*
X62998398Y-121591580D01*
X53137600Y-121591580D01*
X53137600Y-119813581D01*
X61664900Y-119813581D01*
X61664900Y-119962421D01*
X61693937Y-120108401D01*
X61750896Y-120245912D01*
X61833587Y-120369668D01*
X61938833Y-120474914D01*
X62062589Y-120557605D01*
X62200100Y-120614564D01*
X62346080Y-120643601D01*
X62494920Y-120643601D01*
X62640900Y-120614564D01*
X62778411Y-120557605D01*
X62902167Y-120474914D01*
X62989001Y-120388080D01*
X80635900Y-120388080D01*
X80635900Y-120536920D01*
X80664937Y-120682900D01*
X80721896Y-120820411D01*
X80804587Y-120944167D01*
X80909833Y-121049413D01*
X81033589Y-121132104D01*
X81171100Y-121189063D01*
X81317080Y-121218100D01*
X81465920Y-121218100D01*
X81611900Y-121189063D01*
X81749411Y-121132104D01*
X81873167Y-121049413D01*
X81978413Y-120944167D01*
X82061104Y-120820411D01*
X82118063Y-120682900D01*
X82147100Y-120536920D01*
X82147100Y-120388080D01*
X82118063Y-120242100D01*
X82061104Y-120104589D01*
X81978413Y-119980833D01*
X81873167Y-119875587D01*
X81749411Y-119792896D01*
X81611900Y-119735937D01*
X81465920Y-119706900D01*
X81317080Y-119706900D01*
X81171100Y-119735937D01*
X81033589Y-119792896D01*
X80909833Y-119875587D01*
X80804587Y-119980833D01*
X80721896Y-120104589D01*
X80664937Y-120242100D01*
X80635900Y-120388080D01*
X62989001Y-120388080D01*
X63007413Y-120369668D01*
X63090104Y-120245912D01*
X63147063Y-120108401D01*
X63160275Y-120041980D01*
X63167084Y-120052170D01*
X63272330Y-120157416D01*
X63396086Y-120240107D01*
X63533597Y-120297066D01*
X63679577Y-120326103D01*
X63828417Y-120326103D01*
X63974397Y-120297066D01*
X64111908Y-120240107D01*
X64235664Y-120157416D01*
X64340910Y-120052170D01*
X64423601Y-119928414D01*
X64480560Y-119790903D01*
X64509597Y-119644923D01*
X64509597Y-119496083D01*
X64480560Y-119350103D01*
X64423601Y-119212592D01*
X64340910Y-119088836D01*
X64235664Y-118983590D01*
X64111908Y-118900899D01*
X64026696Y-118865603D01*
X64082423Y-118865603D01*
X64228403Y-118836566D01*
X64365914Y-118779607D01*
X64489670Y-118696916D01*
X64594916Y-118591670D01*
X64677607Y-118467914D01*
X64734566Y-118330403D01*
X64763603Y-118184423D01*
X64763603Y-118035583D01*
X64734566Y-117889603D01*
X64677607Y-117752092D01*
X64594916Y-117628336D01*
X64489670Y-117523090D01*
X64365914Y-117440399D01*
X64228403Y-117383440D01*
X64082423Y-117354403D01*
X63933583Y-117354403D01*
X63787603Y-117383440D01*
X63650092Y-117440399D01*
X63526336Y-117523090D01*
X63421090Y-117628336D01*
X63338399Y-117752092D01*
X63281440Y-117889603D01*
X63252403Y-118035583D01*
X63252403Y-118184423D01*
X63281440Y-118330403D01*
X63338399Y-118467914D01*
X63421090Y-118591670D01*
X63526336Y-118696916D01*
X63650092Y-118779607D01*
X63735304Y-118814903D01*
X63679577Y-118814903D01*
X63533597Y-118843940D01*
X63396086Y-118900899D01*
X63272330Y-118983590D01*
X63167084Y-119088836D01*
X63084393Y-119212592D01*
X63027434Y-119350103D01*
X63014222Y-119416524D01*
X63007413Y-119406334D01*
X62902167Y-119301088D01*
X62778411Y-119218397D01*
X62640900Y-119161438D01*
X62494920Y-119132401D01*
X62346080Y-119132401D01*
X62200100Y-119161438D01*
X62062589Y-119218397D01*
X61938833Y-119301088D01*
X61833587Y-119406334D01*
X61750896Y-119530090D01*
X61693937Y-119667601D01*
X61664900Y-119813581D01*
X53137600Y-119813581D01*
X53137600Y-118306636D01*
X53191422Y-118353319D01*
X53350102Y-118443781D01*
X53523381Y-118501548D01*
X53704600Y-118524400D01*
X54129600Y-118524400D01*
X54129600Y-117618400D01*
X54180400Y-117618400D01*
X54180400Y-118524400D01*
X54605400Y-118524400D01*
X54786619Y-118501548D01*
X54959898Y-118443781D01*
X55118578Y-118353319D01*
X55256560Y-118233638D01*
X55368542Y-118089338D01*
X55450221Y-117925964D01*
X55495618Y-117763736D01*
X55409411Y-117618400D01*
X54180400Y-117618400D01*
X54129600Y-117618400D01*
X54109600Y-117618400D01*
X54109600Y-117567600D01*
X54129600Y-117567600D01*
X54129600Y-116661600D01*
X54180400Y-116661600D01*
X54180400Y-117567600D01*
X55409411Y-117567600D01*
X55495618Y-117422264D01*
X55450221Y-117260036D01*
X55368542Y-117096662D01*
X55256560Y-116952362D01*
X55118578Y-116832681D01*
X54959898Y-116742219D01*
X54786619Y-116684452D01*
X54605400Y-116661600D01*
X54180400Y-116661600D01*
X54129600Y-116661600D01*
X53704600Y-116661600D01*
X53523381Y-116684452D01*
X53350102Y-116742219D01*
X53191422Y-116832681D01*
X53137600Y-116879364D01*
X53137600Y-114816259D01*
X58992400Y-114816259D01*
X58992400Y-115053741D01*
X59038731Y-115286660D01*
X59129611Y-115506066D01*
X59261550Y-115703525D01*
X59429475Y-115871450D01*
X59626934Y-116003389D01*
X59846340Y-116094269D01*
X60079259Y-116140600D01*
X60316741Y-116140600D01*
X60549660Y-116094269D01*
X60769066Y-116003389D01*
X60966525Y-115871450D01*
X61134450Y-115703525D01*
X61266389Y-115506066D01*
X61357269Y-115286660D01*
X61403600Y-115053741D01*
X61403600Y-114816259D01*
X61357269Y-114583340D01*
X61266389Y-114363934D01*
X61134450Y-114166475D01*
X61052975Y-114085000D01*
X61530680Y-114085000D01*
X61530680Y-115785000D01*
X61537546Y-115854710D01*
X61557879Y-115921740D01*
X61590899Y-115983516D01*
X61635337Y-116037663D01*
X61689484Y-116082101D01*
X61751260Y-116115121D01*
X61818290Y-116135454D01*
X61888000Y-116142320D01*
X63588000Y-116142320D01*
X63657710Y-116135454D01*
X63724740Y-116115121D01*
X63786516Y-116082101D01*
X63840663Y-116037663D01*
X63885101Y-115983516D01*
X63918121Y-115921740D01*
X63938454Y-115854710D01*
X63945320Y-115785000D01*
X63945320Y-114085000D01*
X63938454Y-114015290D01*
X63918121Y-113948260D01*
X63885101Y-113886484D01*
X63840663Y-113832337D01*
X63786516Y-113787899D01*
X63724740Y-113754879D01*
X63657710Y-113734546D01*
X63588000Y-113727680D01*
X61888000Y-113727680D01*
X61818290Y-113734546D01*
X61751260Y-113754879D01*
X61689484Y-113787899D01*
X61635337Y-113832337D01*
X61590899Y-113886484D01*
X61557879Y-113948260D01*
X61537546Y-114015290D01*
X61530680Y-114085000D01*
X61052975Y-114085000D01*
X60966525Y-113998550D01*
X60769066Y-113866611D01*
X60549660Y-113775731D01*
X60316741Y-113729400D01*
X60079259Y-113729400D01*
X59846340Y-113775731D01*
X59626934Y-113866611D01*
X59429475Y-113998550D01*
X59261550Y-114166475D01*
X59129611Y-114363934D01*
X59038731Y-114583340D01*
X58992400Y-114816259D01*
X53137600Y-114816259D01*
X53137600Y-112616591D01*
X58961296Y-112616591D01*
X58970634Y-112663544D01*
X59046608Y-112897831D01*
X59166829Y-113112795D01*
X59326677Y-113300174D01*
X59520010Y-113452768D01*
X59739398Y-113564712D01*
X59976409Y-113631705D01*
X60172600Y-113549544D01*
X60172600Y-112420400D01*
X60223400Y-112420400D01*
X60223400Y-113549544D01*
X60419591Y-113631705D01*
X60656602Y-113564712D01*
X60875990Y-113452768D01*
X61069323Y-113300174D01*
X61229171Y-113112795D01*
X61349392Y-112897831D01*
X61425366Y-112663544D01*
X61434704Y-112616591D01*
X61352521Y-112420400D01*
X60223400Y-112420400D01*
X60172600Y-112420400D01*
X59043479Y-112420400D01*
X58961296Y-112616591D01*
X53137600Y-112616591D01*
X53137600Y-112173409D01*
X58961296Y-112173409D01*
X59043479Y-112369600D01*
X60172600Y-112369600D01*
X60172600Y-111240456D01*
X60223400Y-111240456D01*
X60223400Y-112369600D01*
X61352521Y-112369600D01*
X61391620Y-112276259D01*
X61532400Y-112276259D01*
X61532400Y-112513741D01*
X61578731Y-112746660D01*
X61669611Y-112966066D01*
X61801550Y-113163525D01*
X61969475Y-113331450D01*
X62166934Y-113463389D01*
X62386340Y-113554269D01*
X62619259Y-113600600D01*
X62856741Y-113600600D01*
X63089660Y-113554269D01*
X63226520Y-113497580D01*
X70474400Y-113497580D01*
X70474400Y-113646420D01*
X70503437Y-113792400D01*
X70560396Y-113929911D01*
X70643087Y-114053667D01*
X70748333Y-114158913D01*
X70872089Y-114241604D01*
X71009600Y-114298563D01*
X71155580Y-114327600D01*
X71304420Y-114327600D01*
X71450400Y-114298563D01*
X71587911Y-114241604D01*
X71711667Y-114158913D01*
X71816913Y-114053667D01*
X71899604Y-113929911D01*
X71956563Y-113792400D01*
X71985600Y-113646420D01*
X71985600Y-113497580D01*
X71956563Y-113351600D01*
X71899604Y-113214089D01*
X71816913Y-113090333D01*
X71711667Y-112985087D01*
X71587911Y-112902396D01*
X71450400Y-112845437D01*
X71304420Y-112816400D01*
X71155580Y-112816400D01*
X71009600Y-112845437D01*
X70872089Y-112902396D01*
X70748333Y-112985087D01*
X70643087Y-113090333D01*
X70560396Y-113214089D01*
X70503437Y-113351600D01*
X70474400Y-113497580D01*
X63226520Y-113497580D01*
X63309066Y-113463389D01*
X63506525Y-113331450D01*
X63674450Y-113163525D01*
X63806389Y-112966066D01*
X63897269Y-112746660D01*
X63943600Y-112513741D01*
X63943600Y-112276259D01*
X63897269Y-112043340D01*
X63835030Y-111893080D01*
X75668900Y-111893080D01*
X75668900Y-112041920D01*
X75697937Y-112187900D01*
X75754896Y-112325411D01*
X75837587Y-112449167D01*
X75942833Y-112554413D01*
X76066589Y-112637104D01*
X76204100Y-112694063D01*
X76350080Y-112723100D01*
X76498920Y-112723100D01*
X76644900Y-112694063D01*
X76782411Y-112637104D01*
X76906167Y-112554413D01*
X77011413Y-112449167D01*
X77094104Y-112325411D01*
X77151063Y-112187900D01*
X77180100Y-112041920D01*
X77180100Y-111893080D01*
X77167470Y-111829580D01*
X81066400Y-111829580D01*
X81066400Y-111978420D01*
X81095437Y-112124400D01*
X81152396Y-112261911D01*
X81235087Y-112385667D01*
X81340333Y-112490913D01*
X81464089Y-112573604D01*
X81601600Y-112630563D01*
X81747580Y-112659600D01*
X81896420Y-112659600D01*
X82042400Y-112630563D01*
X82179911Y-112573604D01*
X82303667Y-112490913D01*
X82408913Y-112385667D01*
X82491604Y-112261911D01*
X82548563Y-112124400D01*
X82577600Y-111978420D01*
X82577600Y-111829580D01*
X82548563Y-111683600D01*
X82491604Y-111546089D01*
X82408913Y-111422333D01*
X82303667Y-111317087D01*
X82179911Y-111234396D01*
X82042400Y-111177437D01*
X81896420Y-111148400D01*
X81747580Y-111148400D01*
X81601600Y-111177437D01*
X81464089Y-111234396D01*
X81340333Y-111317087D01*
X81235087Y-111422333D01*
X81152396Y-111546089D01*
X81095437Y-111683600D01*
X81066400Y-111829580D01*
X77167470Y-111829580D01*
X77151063Y-111747100D01*
X77094104Y-111609589D01*
X77011413Y-111485833D01*
X76906167Y-111380587D01*
X76782411Y-111297896D01*
X76644900Y-111240937D01*
X76498920Y-111211900D01*
X76350080Y-111211900D01*
X76204100Y-111240937D01*
X76066589Y-111297896D01*
X75942833Y-111380587D01*
X75837587Y-111485833D01*
X75754896Y-111609589D01*
X75697937Y-111747100D01*
X75668900Y-111893080D01*
X63835030Y-111893080D01*
X63806389Y-111823934D01*
X63674450Y-111626475D01*
X63506525Y-111458550D01*
X63309066Y-111326611D01*
X63089660Y-111235731D01*
X62856741Y-111189400D01*
X62619259Y-111189400D01*
X62386340Y-111235731D01*
X62166934Y-111326611D01*
X61969475Y-111458550D01*
X61801550Y-111626475D01*
X61669611Y-111823934D01*
X61578731Y-112043340D01*
X61532400Y-112276259D01*
X61391620Y-112276259D01*
X61434704Y-112173409D01*
X61425366Y-112126456D01*
X61349392Y-111892169D01*
X61229171Y-111677205D01*
X61069323Y-111489826D01*
X60875990Y-111337232D01*
X60656602Y-111225288D01*
X60419591Y-111158295D01*
X60223400Y-111240456D01*
X60172600Y-111240456D01*
X59976409Y-111158295D01*
X59739398Y-111225288D01*
X59520010Y-111337232D01*
X59326677Y-111489826D01*
X59166829Y-111677205D01*
X59046608Y-111892169D01*
X58970634Y-112126456D01*
X58961296Y-112173409D01*
X53137600Y-112173409D01*
X53137600Y-111016108D01*
X93763400Y-111016108D01*
X93763400Y-111233892D01*
X93805887Y-111447492D01*
X93889230Y-111648698D01*
X94010224Y-111829779D01*
X94164221Y-111983776D01*
X94345302Y-112104770D01*
X94546508Y-112188113D01*
X94760108Y-112230600D01*
X94977892Y-112230600D01*
X95191492Y-112188113D01*
X95392698Y-112104770D01*
X95573779Y-111983776D01*
X95727776Y-111829779D01*
X95848770Y-111648698D01*
X95932113Y-111447492D01*
X95974600Y-111233892D01*
X95974600Y-111016108D01*
X95932113Y-110802508D01*
X95848770Y-110601302D01*
X95727776Y-110420221D01*
X95573779Y-110266224D01*
X95392698Y-110145230D01*
X95191492Y-110061887D01*
X94977892Y-110019400D01*
X94760108Y-110019400D01*
X94546508Y-110061887D01*
X94345302Y-110145230D01*
X94164221Y-110266224D01*
X94010224Y-110420221D01*
X93889230Y-110601302D01*
X93805887Y-110802508D01*
X93763400Y-111016108D01*
X53137600Y-111016108D01*
X53137600Y-109222862D01*
X53876400Y-109222862D01*
X53876400Y-109539138D01*
X53938102Y-109849336D01*
X54059136Y-110141537D01*
X54234849Y-110404510D01*
X54458490Y-110628151D01*
X54721463Y-110803864D01*
X55013664Y-110924898D01*
X55323862Y-110986600D01*
X55640138Y-110986600D01*
X55950336Y-110924898D01*
X56242537Y-110803864D01*
X56505510Y-110628151D01*
X56729151Y-110404510D01*
X56904864Y-110141537D01*
X56942125Y-110051580D01*
X75668900Y-110051580D01*
X75668900Y-110200420D01*
X75697937Y-110346400D01*
X75754896Y-110483911D01*
X75837587Y-110607667D01*
X75942833Y-110712913D01*
X76066589Y-110795604D01*
X76204100Y-110852563D01*
X76350080Y-110881600D01*
X76498920Y-110881600D01*
X76644900Y-110852563D01*
X76782411Y-110795604D01*
X76906167Y-110712913D01*
X77011413Y-110607667D01*
X77094104Y-110483911D01*
X77151063Y-110346400D01*
X77180100Y-110200420D01*
X77180100Y-110051580D01*
X77319900Y-110051580D01*
X77319900Y-110200420D01*
X77348937Y-110346400D01*
X77405896Y-110483911D01*
X77488587Y-110607667D01*
X77593833Y-110712913D01*
X77717589Y-110795604D01*
X77855100Y-110852563D01*
X78001080Y-110881600D01*
X78149920Y-110881600D01*
X78295900Y-110852563D01*
X78433411Y-110795604D01*
X78557167Y-110712913D01*
X78662413Y-110607667D01*
X78745104Y-110483911D01*
X78802063Y-110346400D01*
X78831100Y-110200420D01*
X78831100Y-110051580D01*
X79161400Y-110051580D01*
X79161400Y-110200420D01*
X79190437Y-110346400D01*
X79247396Y-110483911D01*
X79330087Y-110607667D01*
X79435333Y-110712913D01*
X79559089Y-110795604D01*
X79696600Y-110852563D01*
X79842580Y-110881600D01*
X79991420Y-110881600D01*
X80137400Y-110852563D01*
X80274911Y-110795604D01*
X80398667Y-110712913D01*
X80503913Y-110607667D01*
X80586604Y-110483911D01*
X80643563Y-110346400D01*
X80672600Y-110200420D01*
X80672600Y-110051580D01*
X81066400Y-110051580D01*
X81066400Y-110200420D01*
X81095437Y-110346400D01*
X81152396Y-110483911D01*
X81235087Y-110607667D01*
X81340333Y-110712913D01*
X81464089Y-110795604D01*
X81601600Y-110852563D01*
X81747580Y-110881600D01*
X81896420Y-110881600D01*
X82042400Y-110852563D01*
X82179911Y-110795604D01*
X82303667Y-110712913D01*
X82408913Y-110607667D01*
X82491604Y-110483911D01*
X82548563Y-110346400D01*
X82577600Y-110200420D01*
X82577600Y-110051580D01*
X82548563Y-109905600D01*
X82491604Y-109768089D01*
X82408913Y-109644333D01*
X82303667Y-109539087D01*
X82179911Y-109456396D01*
X82042400Y-109399437D01*
X81896420Y-109370400D01*
X81747580Y-109370400D01*
X81601600Y-109399437D01*
X81464089Y-109456396D01*
X81340333Y-109539087D01*
X81235087Y-109644333D01*
X81152396Y-109768089D01*
X81095437Y-109905600D01*
X81066400Y-110051580D01*
X80672600Y-110051580D01*
X80643563Y-109905600D01*
X80586604Y-109768089D01*
X80503913Y-109644333D01*
X80398667Y-109539087D01*
X80274911Y-109456396D01*
X80137400Y-109399437D01*
X79991420Y-109370400D01*
X79842580Y-109370400D01*
X79696600Y-109399437D01*
X79559089Y-109456396D01*
X79435333Y-109539087D01*
X79330087Y-109644333D01*
X79247396Y-109768089D01*
X79190437Y-109905600D01*
X79161400Y-110051580D01*
X78831100Y-110051580D01*
X78802063Y-109905600D01*
X78745104Y-109768089D01*
X78662413Y-109644333D01*
X78557167Y-109539087D01*
X78433411Y-109456396D01*
X78295900Y-109399437D01*
X78149920Y-109370400D01*
X78001080Y-109370400D01*
X77855100Y-109399437D01*
X77717589Y-109456396D01*
X77593833Y-109539087D01*
X77488587Y-109644333D01*
X77405896Y-109768089D01*
X77348937Y-109905600D01*
X77319900Y-110051580D01*
X77180100Y-110051580D01*
X77151063Y-109905600D01*
X77094104Y-109768089D01*
X77011413Y-109644333D01*
X76906167Y-109539087D01*
X76782411Y-109456396D01*
X76644900Y-109399437D01*
X76498920Y-109370400D01*
X76350080Y-109370400D01*
X76204100Y-109399437D01*
X76066589Y-109456396D01*
X75942833Y-109539087D01*
X75837587Y-109644333D01*
X75754896Y-109768089D01*
X75697937Y-109905600D01*
X75668900Y-110051580D01*
X56942125Y-110051580D01*
X57025898Y-109849336D01*
X57087600Y-109539138D01*
X57087600Y-109349862D01*
X111407400Y-109349862D01*
X111407400Y-109666138D01*
X111469102Y-109976336D01*
X111590136Y-110268537D01*
X111765849Y-110531510D01*
X111989490Y-110755151D01*
X112252463Y-110930864D01*
X112544664Y-111051898D01*
X112854862Y-111113600D01*
X113171138Y-111113600D01*
X113481336Y-111051898D01*
X113773537Y-110930864D01*
X114036510Y-110755151D01*
X114260151Y-110531510D01*
X114435864Y-110268537D01*
X114556898Y-109976336D01*
X114618600Y-109666138D01*
X114618600Y-109349862D01*
X114556898Y-109039664D01*
X114435864Y-108747463D01*
X114260151Y-108484490D01*
X114036510Y-108260849D01*
X113773537Y-108085136D01*
X113481336Y-107964102D01*
X113171138Y-107902400D01*
X112854862Y-107902400D01*
X112544664Y-107964102D01*
X112252463Y-108085136D01*
X111989490Y-108260849D01*
X111765849Y-108484490D01*
X111590136Y-108747463D01*
X111469102Y-109039664D01*
X111407400Y-109349862D01*
X57087600Y-109349862D01*
X57087600Y-109222862D01*
X57025898Y-108912664D01*
X56904864Y-108620463D01*
X56729151Y-108357490D01*
X56505510Y-108133849D01*
X56242537Y-107958136D01*
X55950336Y-107837102D01*
X55640138Y-107775400D01*
X55323862Y-107775400D01*
X55013664Y-107837102D01*
X54721463Y-107958136D01*
X54458490Y-108133849D01*
X54234849Y-108357490D01*
X54059136Y-108620463D01*
X53938102Y-108912664D01*
X53876400Y-109222862D01*
X53137600Y-109222862D01*
X53137600Y-107187832D01*
X53141305Y-107150043D01*
X53146520Y-107132772D01*
X53154994Y-107116834D01*
X53166394Y-107102856D01*
X53180303Y-107091349D01*
X53196173Y-107082768D01*
X53213410Y-107077433D01*
X53249879Y-107073600D01*
X115312168Y-107073600D01*
X115349957Y-107077305D01*
G04 #@! TA.AperFunction,Conductor*
D20*
G36*
X115349957Y-107077305D02*
G01*
X115367228Y-107082520D01*
X115383166Y-107090994D01*
X115397144Y-107102394D01*
X115408651Y-107116303D01*
X115417232Y-107132173D01*
X115422567Y-107149410D01*
X115426401Y-107185888D01*
X115426400Y-149665413D01*
X104903020Y-149665719D01*
X104858429Y-149629125D01*
X104787967Y-149591462D01*
X104711511Y-149568269D01*
X104651921Y-149562400D01*
X104632000Y-149560438D01*
X104612079Y-149562400D01*
X87351921Y-149562400D01*
X87332000Y-149560438D01*
X87312079Y-149562400D01*
X87252489Y-149568269D01*
X87176033Y-149591462D01*
X87105571Y-149629125D01*
X87060347Y-149666239D01*
X81531997Y-149666400D01*
X81512176Y-149668353D01*
X81493117Y-149674135D01*
X81475552Y-149683524D01*
X81460156Y-149696160D01*
X81447521Y-149711557D01*
X81438133Y-149729122D01*
X81432352Y-149748182D01*
X81430400Y-149768000D01*
X81430400Y-156062400D01*
X53251832Y-156062400D01*
X53214043Y-156058695D01*
X53196772Y-156053480D01*
X53180834Y-156045006D01*
X53166856Y-156033606D01*
X53155348Y-156019695D01*
X53146769Y-156003829D01*
X53141433Y-155986590D01*
X53137600Y-155950122D01*
X53137600Y-153545862D01*
X53876400Y-153545862D01*
X53876400Y-153862138D01*
X53938102Y-154172336D01*
X54059136Y-154464537D01*
X54234849Y-154727510D01*
X54458490Y-154951151D01*
X54721463Y-155126864D01*
X55013664Y-155247898D01*
X55323862Y-155309600D01*
X55640138Y-155309600D01*
X55950336Y-155247898D01*
X56242537Y-155126864D01*
X56505510Y-154951151D01*
X56729151Y-154727510D01*
X56904864Y-154464537D01*
X57025898Y-154172336D01*
X57087600Y-153862138D01*
X57087600Y-153545862D01*
X57044913Y-153331259D01*
X73326400Y-153331259D01*
X73326400Y-153568741D01*
X73372731Y-153801660D01*
X73463611Y-154021066D01*
X73595550Y-154218525D01*
X73763475Y-154386450D01*
X73960934Y-154518389D01*
X74180340Y-154609269D01*
X74413259Y-154655600D01*
X74650741Y-154655600D01*
X74883660Y-154609269D01*
X75103066Y-154518389D01*
X75300525Y-154386450D01*
X75468450Y-154218525D01*
X75600389Y-154021066D01*
X75691269Y-153801660D01*
X75737600Y-153568741D01*
X75737600Y-153331259D01*
X75691269Y-153098340D01*
X75600389Y-152878934D01*
X75468450Y-152681475D01*
X75386975Y-152600000D01*
X75864680Y-152600000D01*
X75864680Y-154300000D01*
X75871546Y-154369710D01*
X75891879Y-154436740D01*
X75924899Y-154498516D01*
X75969337Y-154552663D01*
X76023484Y-154597101D01*
X76085260Y-154630121D01*
X76152290Y-154650454D01*
X76222000Y-154657320D01*
X77922000Y-154657320D01*
X77991710Y-154650454D01*
X78058740Y-154630121D01*
X78120516Y-154597101D01*
X78174663Y-154552663D01*
X78219101Y-154498516D01*
X78252121Y-154436740D01*
X78272454Y-154369710D01*
X78279320Y-154300000D01*
X78279320Y-152600000D01*
X78272454Y-152530290D01*
X78252121Y-152463260D01*
X78219101Y-152401484D01*
X78174663Y-152347337D01*
X78120516Y-152302899D01*
X78058740Y-152269879D01*
X77991710Y-152249546D01*
X77922000Y-152242680D01*
X76222000Y-152242680D01*
X76152290Y-152249546D01*
X76085260Y-152269879D01*
X76023484Y-152302899D01*
X75969337Y-152347337D01*
X75924899Y-152401484D01*
X75891879Y-152463260D01*
X75871546Y-152530290D01*
X75864680Y-152600000D01*
X75386975Y-152600000D01*
X75300525Y-152513550D01*
X75103066Y-152381611D01*
X74883660Y-152290731D01*
X74650741Y-152244400D01*
X74413259Y-152244400D01*
X74180340Y-152290731D01*
X73960934Y-152381611D01*
X73763475Y-152513550D01*
X73595550Y-152681475D01*
X73463611Y-152878934D01*
X73372731Y-153098340D01*
X73326400Y-153331259D01*
X57044913Y-153331259D01*
X57025898Y-153235664D01*
X56904864Y-152943463D01*
X56729151Y-152680490D01*
X56505510Y-152456849D01*
X56242537Y-152281136D01*
X55950336Y-152160102D01*
X55640138Y-152098400D01*
X55323862Y-152098400D01*
X55013664Y-152160102D01*
X54721463Y-152281136D01*
X54458490Y-152456849D01*
X54234849Y-152680490D01*
X54059136Y-152943463D01*
X53938102Y-153235664D01*
X53876400Y-153545862D01*
X53137600Y-153545862D01*
X53137600Y-151817580D01*
X67316400Y-151817580D01*
X67316400Y-151966420D01*
X67345437Y-152112400D01*
X67402396Y-152249911D01*
X67485087Y-152373667D01*
X67590333Y-152478913D01*
X67714089Y-152561604D01*
X67851600Y-152618563D01*
X67997580Y-152647600D01*
X68146420Y-152647600D01*
X68292400Y-152618563D01*
X68429911Y-152561604D01*
X68553667Y-152478913D01*
X68658913Y-152373667D01*
X68741604Y-152249911D01*
X68798563Y-152112400D01*
X68827600Y-151966420D01*
X68827600Y-151817580D01*
X68798563Y-151671600D01*
X68741604Y-151534089D01*
X68658913Y-151410333D01*
X68553667Y-151305087D01*
X68429911Y-151222396D01*
X68292400Y-151165437D01*
X68146420Y-151136400D01*
X67997580Y-151136400D01*
X67851600Y-151165437D01*
X67714089Y-151222396D01*
X67590333Y-151305087D01*
X67485087Y-151410333D01*
X67402396Y-151534089D01*
X67345437Y-151671600D01*
X67316400Y-151817580D01*
X53137600Y-151817580D01*
X53137600Y-151131591D01*
X73295296Y-151131591D01*
X73304634Y-151178544D01*
X73380608Y-151412831D01*
X73500829Y-151627795D01*
X73660677Y-151815174D01*
X73854010Y-151967768D01*
X74073398Y-152079712D01*
X74310409Y-152146705D01*
X74506600Y-152064544D01*
X74506600Y-150935400D01*
X74557400Y-150935400D01*
X74557400Y-152064544D01*
X74753591Y-152146705D01*
X74990602Y-152079712D01*
X75209990Y-151967768D01*
X75403323Y-151815174D01*
X75563171Y-151627795D01*
X75683392Y-151412831D01*
X75759366Y-151178544D01*
X75768704Y-151131591D01*
X75686521Y-150935400D01*
X74557400Y-150935400D01*
X74506600Y-150935400D01*
X73377479Y-150935400D01*
X73295296Y-151131591D01*
X53137600Y-151131591D01*
X53137600Y-150688409D01*
X73295296Y-150688409D01*
X73377479Y-150884600D01*
X74506600Y-150884600D01*
X74506600Y-149755456D01*
X74557400Y-149755456D01*
X74557400Y-150884600D01*
X75686521Y-150884600D01*
X75725620Y-150791259D01*
X75866400Y-150791259D01*
X75866400Y-151028741D01*
X75912731Y-151261660D01*
X76003611Y-151481066D01*
X76135550Y-151678525D01*
X76303475Y-151846450D01*
X76500934Y-151978389D01*
X76720340Y-152069269D01*
X76953259Y-152115600D01*
X77190741Y-152115600D01*
X77423660Y-152069269D01*
X77643066Y-151978389D01*
X77840525Y-151846450D01*
X78008450Y-151678525D01*
X78140389Y-151481066D01*
X78231269Y-151261660D01*
X78277600Y-151028741D01*
X78277600Y-150791259D01*
X78231269Y-150558340D01*
X78140389Y-150338934D01*
X78008450Y-150141475D01*
X77840525Y-149973550D01*
X77643066Y-149841611D01*
X77423660Y-149750731D01*
X77190741Y-149704400D01*
X76953259Y-149704400D01*
X76720340Y-149750731D01*
X76500934Y-149841611D01*
X76303475Y-149973550D01*
X76135550Y-150141475D01*
X76003611Y-150338934D01*
X75912731Y-150558340D01*
X75866400Y-150791259D01*
X75725620Y-150791259D01*
X75768704Y-150688409D01*
X75759366Y-150641456D01*
X75683392Y-150407169D01*
X75563171Y-150192205D01*
X75403323Y-150004826D01*
X75209990Y-149852232D01*
X74990602Y-149740288D01*
X74753591Y-149673295D01*
X74557400Y-149755456D01*
X74506600Y-149755456D01*
X74310409Y-149673295D01*
X74073398Y-149740288D01*
X73854010Y-149852232D01*
X73660677Y-150004826D01*
X73500829Y-150192205D01*
X73380608Y-150407169D01*
X73304634Y-150641456D01*
X73295296Y-150688409D01*
X53137600Y-150688409D01*
X53137600Y-144761428D01*
X54851900Y-144761428D01*
X54851900Y-145151572D01*
X54928014Y-145534220D01*
X55077315Y-145894666D01*
X55294068Y-146219059D01*
X55569941Y-146494932D01*
X55894334Y-146711685D01*
X56254780Y-146860986D01*
X56637428Y-146937100D01*
X57027572Y-146937100D01*
X57410220Y-146860986D01*
X57770666Y-146711685D01*
X57984937Y-146568513D01*
X58686900Y-146568513D01*
X58686900Y-146904487D01*
X58752445Y-147234005D01*
X58881017Y-147544405D01*
X59067674Y-147823757D01*
X59305243Y-148061326D01*
X59584595Y-148247983D01*
X59894995Y-148376555D01*
X60224513Y-148442100D01*
X60560487Y-148442100D01*
X60890005Y-148376555D01*
X61200405Y-148247983D01*
X61479757Y-148061326D01*
X61717326Y-147823757D01*
X61903983Y-147544405D01*
X62001457Y-147309080D01*
X70935900Y-147309080D01*
X70935900Y-147457920D01*
X70964937Y-147603900D01*
X71021896Y-147741411D01*
X71104587Y-147865167D01*
X71209833Y-147970413D01*
X71333589Y-148053104D01*
X71471100Y-148110063D01*
X71617080Y-148139100D01*
X71765920Y-148139100D01*
X71911900Y-148110063D01*
X72049411Y-148053104D01*
X72173167Y-147970413D01*
X72278413Y-147865167D01*
X72361104Y-147741411D01*
X72418063Y-147603900D01*
X72447100Y-147457920D01*
X72447100Y-147406580D01*
X78094400Y-147406580D01*
X78094400Y-147555420D01*
X78123437Y-147701400D01*
X78180396Y-147838911D01*
X78263087Y-147962667D01*
X78368333Y-148067913D01*
X78492089Y-148150604D01*
X78629600Y-148207563D01*
X78775580Y-148236600D01*
X78924420Y-148236600D01*
X79070400Y-148207563D01*
X79207911Y-148150604D01*
X79331667Y-148067913D01*
X79436913Y-147962667D01*
X79519604Y-147838911D01*
X79576563Y-147701400D01*
X79605600Y-147555420D01*
X79605600Y-147406580D01*
X79576563Y-147260600D01*
X79558123Y-147216080D01*
X81523400Y-147216080D01*
X81523400Y-147364920D01*
X81552437Y-147510900D01*
X81609396Y-147648411D01*
X81692087Y-147772167D01*
X81797333Y-147877413D01*
X81921089Y-147960104D01*
X82058600Y-148017063D01*
X82204580Y-148046100D01*
X82353420Y-148046100D01*
X82499400Y-148017063D01*
X82636911Y-147960104D01*
X82760667Y-147877413D01*
X82865913Y-147772167D01*
X82948604Y-147648411D01*
X83005563Y-147510900D01*
X83034600Y-147364920D01*
X83034600Y-147245580D01*
X105416400Y-147245580D01*
X105416400Y-147394420D01*
X105445437Y-147540400D01*
X105502396Y-147677911D01*
X105585087Y-147801667D01*
X105690333Y-147906913D01*
X105814089Y-147989604D01*
X105951600Y-148046563D01*
X106097580Y-148075600D01*
X106246420Y-148075600D01*
X106392400Y-148046563D01*
X106529911Y-147989604D01*
X106653667Y-147906913D01*
X106758913Y-147801667D01*
X106841604Y-147677911D01*
X106898563Y-147540400D01*
X106927600Y-147394420D01*
X106927600Y-147245580D01*
X106898563Y-147099600D01*
X106841604Y-146962089D01*
X106758913Y-146838333D01*
X106653667Y-146733087D01*
X106529911Y-146650396D01*
X106392400Y-146593437D01*
X106246420Y-146564400D01*
X106097580Y-146564400D01*
X105951600Y-146593437D01*
X105814089Y-146650396D01*
X105690333Y-146733087D01*
X105585087Y-146838333D01*
X105502396Y-146962089D01*
X105445437Y-147099600D01*
X105416400Y-147245580D01*
X83034600Y-147245580D01*
X83034600Y-147216080D01*
X83005563Y-147070100D01*
X82948604Y-146932589D01*
X82865913Y-146808833D01*
X82760667Y-146703587D01*
X82636911Y-146620896D01*
X82499400Y-146563937D01*
X82353420Y-146534900D01*
X82204580Y-146534900D01*
X82058600Y-146563937D01*
X81921089Y-146620896D01*
X81797333Y-146703587D01*
X81692087Y-146808833D01*
X81609396Y-146932589D01*
X81552437Y-147070100D01*
X81523400Y-147216080D01*
X79558123Y-147216080D01*
X79519604Y-147123089D01*
X79436913Y-146999333D01*
X79331667Y-146894087D01*
X79207911Y-146811396D01*
X79070400Y-146754437D01*
X78924420Y-146725400D01*
X78775580Y-146725400D01*
X78629600Y-146754437D01*
X78492089Y-146811396D01*
X78368333Y-146894087D01*
X78263087Y-146999333D01*
X78180396Y-147123089D01*
X78123437Y-147260600D01*
X78094400Y-147406580D01*
X72447100Y-147406580D01*
X72447100Y-147309080D01*
X72418063Y-147163100D01*
X72361104Y-147025589D01*
X72278413Y-146901833D01*
X72173167Y-146796587D01*
X72049411Y-146713896D01*
X71911900Y-146656937D01*
X71765920Y-146627900D01*
X71617080Y-146627900D01*
X71471100Y-146656937D01*
X71333589Y-146713896D01*
X71209833Y-146796587D01*
X71104587Y-146901833D01*
X71021896Y-147025589D01*
X70964937Y-147163100D01*
X70935900Y-147309080D01*
X62001457Y-147309080D01*
X62032555Y-147234005D01*
X62098100Y-146904487D01*
X62098100Y-146568513D01*
X62032555Y-146238995D01*
X61903983Y-145928595D01*
X61717326Y-145649243D01*
X61479757Y-145411674D01*
X61402821Y-145360267D01*
X64883900Y-145360267D01*
X64883900Y-145572733D01*
X64925350Y-145781116D01*
X65006657Y-145977409D01*
X65124697Y-146154067D01*
X65274933Y-146304303D01*
X65451591Y-146422343D01*
X65647884Y-146503650D01*
X65856267Y-146545100D01*
X66068733Y-146545100D01*
X66277116Y-146503650D01*
X66473409Y-146422343D01*
X66650067Y-146304303D01*
X66800303Y-146154067D01*
X66918343Y-145977409D01*
X66999650Y-145781116D01*
X67041100Y-145572733D01*
X67041100Y-145360267D01*
X67031317Y-145311080D01*
X110415900Y-145311080D01*
X110415900Y-145459920D01*
X110444937Y-145605900D01*
X110501896Y-145743411D01*
X110584587Y-145867167D01*
X110689833Y-145972413D01*
X110813589Y-146055104D01*
X110951100Y-146112063D01*
X111097080Y-146141100D01*
X111245920Y-146141100D01*
X111391900Y-146112063D01*
X111529411Y-146055104D01*
X111653167Y-145972413D01*
X111758413Y-145867167D01*
X111841104Y-145743411D01*
X111898063Y-145605900D01*
X111927100Y-145459920D01*
X111927100Y-145311080D01*
X111898063Y-145165100D01*
X111841104Y-145027589D01*
X111758413Y-144903833D01*
X111653167Y-144798587D01*
X111529411Y-144715896D01*
X111391900Y-144658937D01*
X111245920Y-144629900D01*
X111097080Y-144629900D01*
X110951100Y-144658937D01*
X110813589Y-144715896D01*
X110689833Y-144798587D01*
X110584587Y-144903833D01*
X110501896Y-145027589D01*
X110444937Y-145165100D01*
X110415900Y-145311080D01*
X67031317Y-145311080D01*
X66999650Y-145151884D01*
X66918343Y-144955591D01*
X66800303Y-144778933D01*
X66650067Y-144628697D01*
X66473409Y-144510657D01*
X66277116Y-144429350D01*
X66068733Y-144387900D01*
X65856267Y-144387900D01*
X65647884Y-144429350D01*
X65451591Y-144510657D01*
X65274933Y-144628697D01*
X65124697Y-144778933D01*
X65006657Y-144955591D01*
X64925350Y-145151884D01*
X64883900Y-145360267D01*
X61402821Y-145360267D01*
X61200405Y-145225017D01*
X60890005Y-145096445D01*
X60560487Y-145030900D01*
X60224513Y-145030900D01*
X59894995Y-145096445D01*
X59584595Y-145225017D01*
X59305243Y-145411674D01*
X59067674Y-145649243D01*
X58881017Y-145928595D01*
X58752445Y-146238995D01*
X58686900Y-146568513D01*
X57984937Y-146568513D01*
X58095059Y-146494932D01*
X58370932Y-146219059D01*
X58587685Y-145894666D01*
X58736986Y-145534220D01*
X58813100Y-145151572D01*
X58813100Y-144761428D01*
X58736986Y-144378780D01*
X58587685Y-144018334D01*
X58370932Y-143693941D01*
X58095059Y-143418068D01*
X57770666Y-143201315D01*
X57410220Y-143052014D01*
X57027572Y-142975900D01*
X56637428Y-142975900D01*
X56254780Y-143052014D01*
X55894334Y-143201315D01*
X55569941Y-143418068D01*
X55294068Y-143693941D01*
X55077315Y-144018334D01*
X54928014Y-144378780D01*
X54851900Y-144761428D01*
X53137600Y-144761428D01*
X53137600Y-140117337D01*
X58237797Y-140117337D01*
X58255861Y-140339075D01*
X58316837Y-140553028D01*
X58418382Y-140750974D01*
X58439675Y-140782841D01*
X58624131Y-140848948D01*
X59336579Y-140136500D01*
X58624131Y-139424052D01*
X58439675Y-139490159D01*
X58331504Y-139684563D01*
X58263338Y-139896335D01*
X58237797Y-140117337D01*
X53137600Y-140117337D01*
X53137600Y-135950267D01*
X58293900Y-135950267D01*
X58293900Y-136162733D01*
X58335350Y-136371116D01*
X58416657Y-136567409D01*
X58534697Y-136744067D01*
X58684933Y-136894303D01*
X58861591Y-137012343D01*
X59016480Y-137076500D01*
X58861591Y-137140657D01*
X58684933Y-137258697D01*
X58534697Y-137408933D01*
X58416657Y-137585591D01*
X58335350Y-137781884D01*
X58293900Y-137990267D01*
X58293900Y-138202733D01*
X58335350Y-138411116D01*
X58416657Y-138607409D01*
X58534697Y-138784067D01*
X58684933Y-138934303D01*
X58861591Y-139052343D01*
X58944540Y-139086702D01*
X58758026Y-139182382D01*
X58726159Y-139203675D01*
X58660052Y-139388131D01*
X59372500Y-140100579D01*
X59386643Y-140086437D01*
X59422564Y-140122358D01*
X59408421Y-140136500D01*
X59422564Y-140150643D01*
X59386643Y-140186564D01*
X59372500Y-140172421D01*
X58660052Y-140884869D01*
X58726159Y-141069325D01*
X58920563Y-141177496D01*
X58946014Y-141185688D01*
X58861591Y-141220657D01*
X58684933Y-141338697D01*
X58534697Y-141488933D01*
X58416657Y-141665591D01*
X58335350Y-141861884D01*
X58293900Y-142070267D01*
X58293900Y-142282733D01*
X58335350Y-142491116D01*
X58416657Y-142687409D01*
X58534697Y-142864067D01*
X58684933Y-143014303D01*
X58861591Y-143132343D01*
X59057884Y-143213650D01*
X59266267Y-143255100D01*
X59478733Y-143255100D01*
X59687116Y-143213650D01*
X59883409Y-143132343D01*
X59976311Y-143070267D01*
X64883900Y-143070267D01*
X64883900Y-143282733D01*
X64925350Y-143491116D01*
X65006657Y-143687409D01*
X65124697Y-143864067D01*
X65274933Y-144014303D01*
X65451591Y-144132343D01*
X65647884Y-144213650D01*
X65856267Y-144255100D01*
X66068733Y-144255100D01*
X66277116Y-144213650D01*
X66473409Y-144132343D01*
X66650067Y-144014303D01*
X66800303Y-143864067D01*
X66918343Y-143687409D01*
X66999650Y-143491116D01*
X67016563Y-143406086D01*
X78094400Y-143406086D01*
X78094400Y-143554926D01*
X78123437Y-143700906D01*
X78180396Y-143838417D01*
X78263087Y-143962173D01*
X78368333Y-144067419D01*
X78492089Y-144150110D01*
X78629600Y-144207069D01*
X78775580Y-144236106D01*
X78924420Y-144236106D01*
X79070400Y-144207069D01*
X79207911Y-144150110D01*
X79331667Y-144067419D01*
X79392006Y-144007080D01*
X79635400Y-144007080D01*
X79635400Y-144155920D01*
X79664437Y-144301900D01*
X79721396Y-144439411D01*
X79804087Y-144563167D01*
X79909333Y-144668413D01*
X80033089Y-144751104D01*
X80170600Y-144808063D01*
X80316580Y-144837100D01*
X80465420Y-144837100D01*
X80611400Y-144808063D01*
X80748911Y-144751104D01*
X80872667Y-144668413D01*
X80977913Y-144563167D01*
X81060604Y-144439411D01*
X81117563Y-144301900D01*
X81146600Y-144155920D01*
X81146600Y-144007080D01*
X81117563Y-143861100D01*
X81060604Y-143723589D01*
X80977913Y-143599833D01*
X80872667Y-143494587D01*
X80748911Y-143411896D01*
X80611400Y-143354937D01*
X80465420Y-143325900D01*
X80316580Y-143325900D01*
X80170600Y-143354937D01*
X80033089Y-143411896D01*
X79909333Y-143494587D01*
X79804087Y-143599833D01*
X79721396Y-143723589D01*
X79664437Y-143861100D01*
X79635400Y-144007080D01*
X79392006Y-144007080D01*
X79436913Y-143962173D01*
X79519604Y-143838417D01*
X79576563Y-143700906D01*
X79605600Y-143554926D01*
X79605600Y-143406086D01*
X79576563Y-143260106D01*
X79519604Y-143122595D01*
X79436913Y-142998839D01*
X79331667Y-142893593D01*
X79207911Y-142810902D01*
X79070400Y-142753943D01*
X78924420Y-142724906D01*
X78775580Y-142724906D01*
X78629600Y-142753943D01*
X78492089Y-142810902D01*
X78368333Y-142893593D01*
X78263087Y-142998839D01*
X78180396Y-143122595D01*
X78123437Y-143260106D01*
X78094400Y-143406086D01*
X67016563Y-143406086D01*
X67041100Y-143282733D01*
X67041100Y-143070267D01*
X66999650Y-142861884D01*
X66918343Y-142665591D01*
X66800303Y-142488933D01*
X66650067Y-142338697D01*
X66473409Y-142220657D01*
X66277116Y-142139350D01*
X66068733Y-142097900D01*
X65856267Y-142097900D01*
X65647884Y-142139350D01*
X65451591Y-142220657D01*
X65274933Y-142338697D01*
X65124697Y-142488933D01*
X65006657Y-142665591D01*
X64925350Y-142861884D01*
X64883900Y-143070267D01*
X59976311Y-143070267D01*
X60060067Y-143014303D01*
X60210303Y-142864067D01*
X60328343Y-142687409D01*
X60409650Y-142491116D01*
X60451100Y-142282733D01*
X60451100Y-142070267D01*
X60428803Y-141958173D01*
X60464933Y-141994303D01*
X60641591Y-142112343D01*
X60837884Y-142193650D01*
X61046267Y-142235100D01*
X61258733Y-142235100D01*
X61467116Y-142193650D01*
X61663409Y-142112343D01*
X61840067Y-141994303D01*
X61990303Y-141844067D01*
X62108343Y-141667409D01*
X62189650Y-141471116D01*
X62231100Y-141262733D01*
X62231100Y-141050267D01*
X62189650Y-140841884D01*
X62108343Y-140645591D01*
X61990303Y-140468933D01*
X61840067Y-140318697D01*
X61663409Y-140200657D01*
X61580460Y-140166298D01*
X61766974Y-140070618D01*
X61798841Y-140049325D01*
X61814160Y-140006580D01*
X70935904Y-140006580D01*
X70935904Y-140155420D01*
X70964941Y-140301400D01*
X71021900Y-140438911D01*
X71104591Y-140562667D01*
X71209837Y-140667913D01*
X71333593Y-140750604D01*
X71471104Y-140807563D01*
X71617084Y-140836600D01*
X71765924Y-140836600D01*
X71911904Y-140807563D01*
X72049415Y-140750604D01*
X72173171Y-140667913D01*
X72278417Y-140562667D01*
X72361108Y-140438911D01*
X72418067Y-140301400D01*
X72447104Y-140155420D01*
X72447104Y-140070080D01*
X79635400Y-140070080D01*
X79635400Y-140218920D01*
X79664437Y-140364900D01*
X79721396Y-140502411D01*
X79804087Y-140626167D01*
X79909333Y-140731413D01*
X80033089Y-140814104D01*
X80170600Y-140871063D01*
X80316580Y-140900100D01*
X80465420Y-140900100D01*
X80611400Y-140871063D01*
X80748911Y-140814104D01*
X80872667Y-140731413D01*
X80977913Y-140626167D01*
X81060604Y-140502411D01*
X81117563Y-140364900D01*
X81138313Y-140260580D01*
X81476900Y-140260580D01*
X81476900Y-140409420D01*
X81505937Y-140555400D01*
X81562896Y-140692911D01*
X81645587Y-140816667D01*
X81750833Y-140921913D01*
X81874589Y-141004604D01*
X82012100Y-141061563D01*
X82158080Y-141090600D01*
X82306920Y-141090600D01*
X82452900Y-141061563D01*
X82590411Y-141004604D01*
X82714167Y-140921913D01*
X82819413Y-140816667D01*
X82902104Y-140692911D01*
X82959063Y-140555400D01*
X82988100Y-140409420D01*
X82988100Y-140260580D01*
X82959063Y-140114600D01*
X82902104Y-139977089D01*
X82819413Y-139853333D01*
X82714167Y-139748087D01*
X82590411Y-139665396D01*
X82452900Y-139608437D01*
X82306920Y-139579400D01*
X82158080Y-139579400D01*
X82012100Y-139608437D01*
X81874589Y-139665396D01*
X81750833Y-139748087D01*
X81645587Y-139853333D01*
X81562896Y-139977089D01*
X81505937Y-140114600D01*
X81476900Y-140260580D01*
X81138313Y-140260580D01*
X81146600Y-140218920D01*
X81146600Y-140070080D01*
X81117563Y-139924100D01*
X81060604Y-139786589D01*
X80977913Y-139662833D01*
X80872667Y-139557587D01*
X80748911Y-139474896D01*
X80611400Y-139417937D01*
X80465420Y-139388900D01*
X80316580Y-139388900D01*
X80170600Y-139417937D01*
X80033089Y-139474896D01*
X79909333Y-139557587D01*
X79804087Y-139662833D01*
X79721396Y-139786589D01*
X79664437Y-139924100D01*
X79635400Y-140070080D01*
X72447104Y-140070080D01*
X72447104Y-140006580D01*
X72418067Y-139860600D01*
X72361108Y-139723089D01*
X72278417Y-139599333D01*
X72173171Y-139494087D01*
X72049415Y-139411396D01*
X71911904Y-139354437D01*
X71765924Y-139325400D01*
X71617084Y-139325400D01*
X71471104Y-139354437D01*
X71333593Y-139411396D01*
X71209837Y-139494087D01*
X71104591Y-139599333D01*
X71021900Y-139723089D01*
X70964941Y-139860600D01*
X70935904Y-140006580D01*
X61814160Y-140006580D01*
X61864948Y-139864869D01*
X61152500Y-139152421D01*
X61138358Y-139166564D01*
X61102437Y-139130643D01*
X61116579Y-139116500D01*
X61188421Y-139116500D01*
X61900869Y-139828948D01*
X62085325Y-139762841D01*
X62193496Y-139568437D01*
X62261662Y-139356665D01*
X62287203Y-139135663D01*
X62269139Y-138913925D01*
X62208163Y-138699972D01*
X62106618Y-138502026D01*
X62085325Y-138470159D01*
X61900869Y-138404052D01*
X61188421Y-139116500D01*
X61116579Y-139116500D01*
X61102437Y-139102358D01*
X61138358Y-139066437D01*
X61152500Y-139080579D01*
X61864948Y-138368131D01*
X61798841Y-138183675D01*
X61604437Y-138075504D01*
X61578986Y-138067312D01*
X61663409Y-138032343D01*
X61840067Y-137914303D01*
X61843290Y-137911080D01*
X101161900Y-137911080D01*
X101161900Y-138059920D01*
X101190937Y-138205900D01*
X101247896Y-138343411D01*
X101330587Y-138467167D01*
X101435833Y-138572413D01*
X101559589Y-138655104D01*
X101697100Y-138712063D01*
X101843080Y-138741100D01*
X101991920Y-138741100D01*
X102137900Y-138712063D01*
X102275411Y-138655104D01*
X102399167Y-138572413D01*
X102504413Y-138467167D01*
X102587104Y-138343411D01*
X102644063Y-138205900D01*
X102673100Y-138059920D01*
X102673100Y-137911080D01*
X102644063Y-137765100D01*
X102587104Y-137627589D01*
X102504413Y-137503833D01*
X102399167Y-137398587D01*
X102275411Y-137315896D01*
X102137900Y-137258937D01*
X101991920Y-137229900D01*
X101843080Y-137229900D01*
X101697100Y-137258937D01*
X101559589Y-137315896D01*
X101435833Y-137398587D01*
X101330587Y-137503833D01*
X101247896Y-137627589D01*
X101190937Y-137765100D01*
X101161900Y-137911080D01*
X61843290Y-137911080D01*
X61990303Y-137764067D01*
X62108343Y-137587409D01*
X62189650Y-137391116D01*
X62231100Y-137182733D01*
X62231100Y-136970267D01*
X62189650Y-136761884D01*
X62108343Y-136565591D01*
X61990303Y-136388933D01*
X61840067Y-136238697D01*
X61663409Y-136120657D01*
X61508520Y-136056500D01*
X61663409Y-135992343D01*
X61840067Y-135874303D01*
X61990303Y-135724067D01*
X62108343Y-135547409D01*
X62189650Y-135351116D01*
X62231100Y-135142733D01*
X62231100Y-134930267D01*
X62202179Y-134784869D01*
X65250052Y-134784869D01*
X65316159Y-134969325D01*
X65510563Y-135077496D01*
X65722335Y-135145662D01*
X65943337Y-135171203D01*
X66165075Y-135153139D01*
X66379028Y-135092163D01*
X66576974Y-134990618D01*
X66608841Y-134969325D01*
X66674948Y-134784869D01*
X65962500Y-134072421D01*
X65250052Y-134784869D01*
X62202179Y-134784869D01*
X62189650Y-134721884D01*
X62108343Y-134525591D01*
X61990303Y-134348933D01*
X61840067Y-134198697D01*
X61663409Y-134080657D01*
X61510541Y-134017337D01*
X64827797Y-134017337D01*
X64845861Y-134239075D01*
X64906837Y-134453028D01*
X65008382Y-134650974D01*
X65029675Y-134682841D01*
X65214131Y-134748948D01*
X65926579Y-134036500D01*
X65998421Y-134036500D01*
X66710869Y-134748948D01*
X66895325Y-134682841D01*
X67003496Y-134488437D01*
X67071662Y-134276665D01*
X67085376Y-134158000D01*
X76072680Y-134158000D01*
X76072680Y-135658000D01*
X76079546Y-135727710D01*
X76099879Y-135794740D01*
X76132899Y-135856516D01*
X76177337Y-135910663D01*
X76231484Y-135955101D01*
X76293260Y-135988121D01*
X76360290Y-136008454D01*
X76430000Y-136015320D01*
X78730000Y-136015320D01*
X78799710Y-136008454D01*
X78866740Y-135988121D01*
X78928516Y-135955101D01*
X78982663Y-135910663D01*
X79027101Y-135856516D01*
X79048981Y-135815580D01*
X88461902Y-135815580D01*
X88461902Y-135964420D01*
X88490939Y-136110400D01*
X88547898Y-136247911D01*
X88630589Y-136371667D01*
X88735835Y-136476913D01*
X88859591Y-136559604D01*
X88997102Y-136616563D01*
X89143082Y-136645600D01*
X89291922Y-136645600D01*
X89437902Y-136616563D01*
X89575413Y-136559604D01*
X89699169Y-136476913D01*
X89804415Y-136371667D01*
X89887106Y-136247911D01*
X89944065Y-136110400D01*
X89973102Y-135964420D01*
X89973102Y-135832582D01*
X90540398Y-135832582D01*
X90540398Y-135981422D01*
X90569435Y-136127402D01*
X90626394Y-136264913D01*
X90709085Y-136388669D01*
X90814331Y-136493915D01*
X90938087Y-136576606D01*
X91075598Y-136633565D01*
X91221578Y-136662602D01*
X91370418Y-136662602D01*
X91516398Y-136633565D01*
X91653909Y-136576606D01*
X91777665Y-136493915D01*
X91882911Y-136388669D01*
X91965602Y-136264913D01*
X92022561Y-136127402D01*
X92051598Y-135981422D01*
X92051598Y-135832582D01*
X92022561Y-135686602D01*
X91965602Y-135549091D01*
X91882911Y-135425335D01*
X91777665Y-135320089D01*
X91653909Y-135237398D01*
X91516398Y-135180439D01*
X91370418Y-135151402D01*
X91221578Y-135151402D01*
X91075598Y-135180439D01*
X90938087Y-135237398D01*
X90814331Y-135320089D01*
X90709085Y-135425335D01*
X90626394Y-135549091D01*
X90569435Y-135686602D01*
X90540398Y-135832582D01*
X89973102Y-135832582D01*
X89973102Y-135815580D01*
X89944065Y-135669600D01*
X89887106Y-135532089D01*
X89804415Y-135408333D01*
X89699169Y-135303087D01*
X89575413Y-135220396D01*
X89437902Y-135163437D01*
X89291922Y-135134400D01*
X89143082Y-135134400D01*
X88997102Y-135163437D01*
X88859591Y-135220396D01*
X88735835Y-135303087D01*
X88630589Y-135408333D01*
X88547898Y-135532089D01*
X88490939Y-135669600D01*
X88461902Y-135815580D01*
X79048981Y-135815580D01*
X79060121Y-135794740D01*
X79080454Y-135727710D01*
X79087320Y-135658000D01*
X79087320Y-134355080D01*
X89668400Y-134355080D01*
X89668400Y-134503920D01*
X89697437Y-134649900D01*
X89754396Y-134787411D01*
X89837087Y-134911167D01*
X89942333Y-135016413D01*
X90066089Y-135099104D01*
X90203600Y-135156063D01*
X90349580Y-135185100D01*
X90498420Y-135185100D01*
X90644400Y-135156063D01*
X90781911Y-135099104D01*
X90905667Y-135016413D01*
X91010913Y-134911167D01*
X91093604Y-134787411D01*
X91150563Y-134649900D01*
X91164550Y-134579580D01*
X92127900Y-134579580D01*
X92127900Y-134728420D01*
X92156937Y-134874400D01*
X92213896Y-135011911D01*
X92296587Y-135135667D01*
X92401833Y-135240913D01*
X92525589Y-135323604D01*
X92663100Y-135380563D01*
X92809080Y-135409600D01*
X92957920Y-135409600D01*
X93103900Y-135380563D01*
X93241411Y-135323604D01*
X93365167Y-135240913D01*
X93470413Y-135135667D01*
X93553104Y-135011911D01*
X93610063Y-134874400D01*
X93639100Y-134728420D01*
X93639100Y-134579580D01*
X94096400Y-134579580D01*
X94096400Y-134728420D01*
X94125437Y-134874400D01*
X94182396Y-135011911D01*
X94265087Y-135135667D01*
X94370333Y-135240913D01*
X94494089Y-135323604D01*
X94631600Y-135380563D01*
X94777580Y-135409600D01*
X94926420Y-135409600D01*
X95072400Y-135380563D01*
X95209911Y-135323604D01*
X95333667Y-135240913D01*
X95438913Y-135135667D01*
X95521604Y-135011911D01*
X95578563Y-134874400D01*
X95607600Y-134728420D01*
X95607600Y-134579580D01*
X98096900Y-134579580D01*
X98096900Y-134728420D01*
X98125937Y-134874400D01*
X98182896Y-135011911D01*
X98265587Y-135135667D01*
X98370833Y-135240913D01*
X98494589Y-135323604D01*
X98632100Y-135380563D01*
X98778080Y-135409600D01*
X98926920Y-135409600D01*
X99072900Y-135380563D01*
X99210411Y-135323604D01*
X99334167Y-135240913D01*
X99439413Y-135135667D01*
X99522104Y-135011911D01*
X99579063Y-134874400D01*
X99608100Y-134728420D01*
X99608100Y-134609080D01*
X99701400Y-134609080D01*
X99701400Y-134757920D01*
X99730437Y-134903900D01*
X99787396Y-135041411D01*
X99870087Y-135165167D01*
X99975333Y-135270413D01*
X100099089Y-135353104D01*
X100236600Y-135410063D01*
X100382580Y-135439100D01*
X100531420Y-135439100D01*
X100677400Y-135410063D01*
X100814911Y-135353104D01*
X100938667Y-135270413D01*
X101043913Y-135165167D01*
X101126604Y-135041411D01*
X101183563Y-134903900D01*
X101212600Y-134757920D01*
X101212600Y-134609080D01*
X101206733Y-134579580D01*
X101525900Y-134579580D01*
X101525900Y-134728420D01*
X101554937Y-134874400D01*
X101611896Y-135011911D01*
X101694587Y-135135667D01*
X101799833Y-135240913D01*
X101923589Y-135323604D01*
X102061100Y-135380563D01*
X102207080Y-135409600D01*
X102355920Y-135409600D01*
X102501900Y-135380563D01*
X102639411Y-135323604D01*
X102763167Y-135240913D01*
X102868413Y-135135667D01*
X102951104Y-135011911D01*
X103008063Y-134874400D01*
X103037100Y-134728420D01*
X103037100Y-134579580D01*
X103008063Y-134433600D01*
X102951104Y-134296089D01*
X102868413Y-134172333D01*
X102763167Y-134067087D01*
X102639411Y-133984396D01*
X102501900Y-133927437D01*
X102355920Y-133898400D01*
X102207080Y-133898400D01*
X102061100Y-133927437D01*
X101923589Y-133984396D01*
X101799833Y-134067087D01*
X101694587Y-134172333D01*
X101611896Y-134296089D01*
X101554937Y-134433600D01*
X101525900Y-134579580D01*
X101206733Y-134579580D01*
X101183563Y-134463100D01*
X101126604Y-134325589D01*
X101043913Y-134201833D01*
X100938667Y-134096587D01*
X100814911Y-134013896D01*
X100677400Y-133956937D01*
X100531420Y-133927900D01*
X100382580Y-133927900D01*
X100236600Y-133956937D01*
X100099089Y-134013896D01*
X99975333Y-134096587D01*
X99870087Y-134201833D01*
X99787396Y-134325589D01*
X99730437Y-134463100D01*
X99701400Y-134609080D01*
X99608100Y-134609080D01*
X99608100Y-134579580D01*
X99579063Y-134433600D01*
X99522104Y-134296089D01*
X99439413Y-134172333D01*
X99334167Y-134067087D01*
X99210411Y-133984396D01*
X99072900Y-133927437D01*
X98926920Y-133898400D01*
X98778080Y-133898400D01*
X98632100Y-133927437D01*
X98494589Y-133984396D01*
X98370833Y-134067087D01*
X98265587Y-134172333D01*
X98182896Y-134296089D01*
X98125937Y-134433600D01*
X98096900Y-134579580D01*
X95607600Y-134579580D01*
X95578563Y-134433600D01*
X95521604Y-134296089D01*
X95438913Y-134172333D01*
X95333667Y-134067087D01*
X95209911Y-133984396D01*
X95072400Y-133927437D01*
X94926420Y-133898400D01*
X94777580Y-133898400D01*
X94631600Y-133927437D01*
X94494089Y-133984396D01*
X94370333Y-134067087D01*
X94265087Y-134172333D01*
X94182396Y-134296089D01*
X94125437Y-134433600D01*
X94096400Y-134579580D01*
X93639100Y-134579580D01*
X93610063Y-134433600D01*
X93553104Y-134296089D01*
X93470413Y-134172333D01*
X93365167Y-134067087D01*
X93241411Y-133984396D01*
X93103900Y-133927437D01*
X92957920Y-133898400D01*
X92809080Y-133898400D01*
X92663100Y-133927437D01*
X92525589Y-133984396D01*
X92401833Y-134067087D01*
X92296587Y-134172333D01*
X92213896Y-134296089D01*
X92156937Y-134433600D01*
X92127900Y-134579580D01*
X91164550Y-134579580D01*
X91179600Y-134503920D01*
X91179600Y-134355080D01*
X91150563Y-134209100D01*
X91093604Y-134071589D01*
X91010913Y-133947833D01*
X90905667Y-133842587D01*
X90781911Y-133759896D01*
X90644400Y-133702937D01*
X90498420Y-133673900D01*
X90349580Y-133673900D01*
X90203600Y-133702937D01*
X90066089Y-133759896D01*
X89942333Y-133842587D01*
X89837087Y-133947833D01*
X89754396Y-134071589D01*
X89697437Y-134209100D01*
X89668400Y-134355080D01*
X79087320Y-134355080D01*
X79087320Y-134158000D01*
X79080454Y-134088290D01*
X79060121Y-134021260D01*
X79027101Y-133959484D01*
X78982663Y-133905337D01*
X78928516Y-133860899D01*
X78866740Y-133827879D01*
X78799710Y-133807546D01*
X78730000Y-133800680D01*
X76430000Y-133800680D01*
X76360290Y-133807546D01*
X76293260Y-133827879D01*
X76231484Y-133860899D01*
X76177337Y-133905337D01*
X76132899Y-133959484D01*
X76099879Y-134021260D01*
X76079546Y-134088290D01*
X76072680Y-134158000D01*
X67085376Y-134158000D01*
X67097203Y-134055663D01*
X67079139Y-133833925D01*
X67018163Y-133619972D01*
X66916618Y-133422026D01*
X66895325Y-133390159D01*
X66710869Y-133324052D01*
X65998421Y-134036500D01*
X65926579Y-134036500D01*
X65214131Y-133324052D01*
X65029675Y-133390159D01*
X64921504Y-133584563D01*
X64853338Y-133796335D01*
X64827797Y-134017337D01*
X61510541Y-134017337D01*
X61467116Y-133999350D01*
X61258733Y-133957900D01*
X61046267Y-133957900D01*
X60837884Y-133999350D01*
X60641591Y-134080657D01*
X60464933Y-134198697D01*
X60314697Y-134348933D01*
X60196657Y-134525591D01*
X60115350Y-134721884D01*
X60073900Y-134930267D01*
X60073900Y-135142733D01*
X60096197Y-135254827D01*
X60060067Y-135218697D01*
X59883409Y-135100657D01*
X59687116Y-135019350D01*
X59478733Y-134977900D01*
X59266267Y-134977900D01*
X59057884Y-135019350D01*
X58861591Y-135100657D01*
X58684933Y-135218697D01*
X58534697Y-135368933D01*
X58416657Y-135545591D01*
X58335350Y-135741884D01*
X58293900Y-135950267D01*
X53137600Y-135950267D01*
X53137600Y-132061428D01*
X54851900Y-132061428D01*
X54851900Y-132451572D01*
X54928014Y-132834220D01*
X55077315Y-133194666D01*
X55294068Y-133519059D01*
X55569941Y-133794932D01*
X55894334Y-134011685D01*
X56254780Y-134160986D01*
X56637428Y-134237100D01*
X57027572Y-134237100D01*
X57410220Y-134160986D01*
X57770666Y-134011685D01*
X58095059Y-133794932D01*
X58370932Y-133519059D01*
X58525233Y-133288131D01*
X65250052Y-133288131D01*
X65962500Y-134000579D01*
X66674948Y-133288131D01*
X66608841Y-133103675D01*
X66414437Y-132995504D01*
X66202665Y-132927338D01*
X65981663Y-132901797D01*
X65759925Y-132919861D01*
X65545972Y-132980837D01*
X65348026Y-133082382D01*
X65316159Y-133103675D01*
X65250052Y-133288131D01*
X58525233Y-133288131D01*
X58587685Y-133194666D01*
X58736986Y-132834220D01*
X58813100Y-132451572D01*
X58813100Y-132061428D01*
X58736986Y-131678780D01*
X58587685Y-131318334D01*
X58370932Y-130993941D01*
X58095059Y-130718068D01*
X57770666Y-130501315D01*
X57410220Y-130352014D01*
X57191528Y-130308513D01*
X58686900Y-130308513D01*
X58686900Y-130644487D01*
X58752445Y-130974005D01*
X58881017Y-131284405D01*
X59067674Y-131563757D01*
X59305243Y-131801326D01*
X59584595Y-131987983D01*
X59894995Y-132116555D01*
X60224513Y-132182100D01*
X60560487Y-132182100D01*
X60890005Y-132116555D01*
X61200405Y-131987983D01*
X61479757Y-131801326D01*
X61640816Y-131640267D01*
X64883900Y-131640267D01*
X64883900Y-131852733D01*
X64925350Y-132061116D01*
X65006657Y-132257409D01*
X65124697Y-132434067D01*
X65274933Y-132584303D01*
X65451591Y-132702343D01*
X65647884Y-132783650D01*
X65856267Y-132825100D01*
X66068733Y-132825100D01*
X66277116Y-132783650D01*
X66473409Y-132702343D01*
X66650067Y-132584303D01*
X66660426Y-132573944D01*
X76042086Y-132573944D01*
X76101906Y-132787069D01*
X76204378Y-132989342D01*
X76344342Y-133167738D01*
X76516420Y-133315400D01*
X76713999Y-133426654D01*
X76929486Y-133497225D01*
X77154600Y-133524400D01*
X77554600Y-133524400D01*
X77554600Y-132393400D01*
X77605400Y-132393400D01*
X77605400Y-133524400D01*
X78005400Y-133524400D01*
X78206863Y-133500080D01*
X110669900Y-133500080D01*
X110669900Y-133648920D01*
X110698937Y-133794900D01*
X110755896Y-133932411D01*
X110838587Y-134056167D01*
X110943833Y-134161413D01*
X111067589Y-134244104D01*
X111205100Y-134301063D01*
X111351080Y-134330100D01*
X111499920Y-134330100D01*
X111645900Y-134301063D01*
X111783411Y-134244104D01*
X111907167Y-134161413D01*
X112012413Y-134056167D01*
X112095104Y-133932411D01*
X112152063Y-133794900D01*
X112181100Y-133648920D01*
X112181100Y-133500080D01*
X112152063Y-133354100D01*
X112095104Y-133216589D01*
X112012413Y-133092833D01*
X111907167Y-132987587D01*
X111783411Y-132904896D01*
X111645900Y-132847937D01*
X111499920Y-132818900D01*
X111351080Y-132818900D01*
X111205100Y-132847937D01*
X111067589Y-132904896D01*
X110943833Y-132987587D01*
X110838587Y-133092833D01*
X110755896Y-133216589D01*
X110698937Y-133354100D01*
X110669900Y-133500080D01*
X78206863Y-133500080D01*
X78230514Y-133497225D01*
X78446001Y-133426654D01*
X78643580Y-133315400D01*
X78815658Y-133167738D01*
X78955622Y-132989342D01*
X79058094Y-132787069D01*
X79117914Y-132573944D01*
X79034494Y-132393400D01*
X77605400Y-132393400D01*
X77554600Y-132393400D01*
X76125506Y-132393400D01*
X76042086Y-132573944D01*
X66660426Y-132573944D01*
X66800303Y-132434067D01*
X66918343Y-132257409D01*
X66957839Y-132162056D01*
X76042086Y-132162056D01*
X76125506Y-132342600D01*
X77554600Y-132342600D01*
X77554600Y-131211600D01*
X77605400Y-131211600D01*
X77605400Y-132342600D01*
X79034494Y-132342600D01*
X79117914Y-132162056D01*
X79058094Y-131948931D01*
X78955622Y-131746658D01*
X78815658Y-131568262D01*
X78643580Y-131420600D01*
X78446001Y-131309346D01*
X78230514Y-131238775D01*
X78005400Y-131211600D01*
X77605400Y-131211600D01*
X77554600Y-131211600D01*
X77154600Y-131211600D01*
X76929486Y-131238775D01*
X76713999Y-131309346D01*
X76516420Y-131420600D01*
X76344342Y-131568262D01*
X76204378Y-131746658D01*
X76101906Y-131948931D01*
X76042086Y-132162056D01*
X66957839Y-132162056D01*
X66999650Y-132061116D01*
X67041100Y-131852733D01*
X67041100Y-131640267D01*
X66999650Y-131431884D01*
X66918343Y-131235591D01*
X66800303Y-131058933D01*
X66650067Y-130908697D01*
X66473409Y-130790657D01*
X66277116Y-130709350D01*
X66068733Y-130667900D01*
X65856267Y-130667900D01*
X65647884Y-130709350D01*
X65451591Y-130790657D01*
X65274933Y-130908697D01*
X65124697Y-131058933D01*
X65006657Y-131235591D01*
X64925350Y-131431884D01*
X64883900Y-131640267D01*
X61640816Y-131640267D01*
X61717326Y-131563757D01*
X61903983Y-131284405D01*
X62032555Y-130974005D01*
X62098100Y-130644487D01*
X62098100Y-130308513D01*
X62032555Y-129978995D01*
X61970011Y-129828000D01*
X76069051Y-129828000D01*
X76090398Y-130044735D01*
X76153617Y-130253142D01*
X76256280Y-130445210D01*
X76394440Y-130613560D01*
X76562790Y-130751720D01*
X76754858Y-130854383D01*
X76963265Y-130917602D01*
X77125692Y-130933600D01*
X78034308Y-130933600D01*
X78196735Y-130917602D01*
X78405142Y-130854383D01*
X78597210Y-130751720D01*
X78765560Y-130613560D01*
X78903720Y-130445210D01*
X79006383Y-130253142D01*
X79069602Y-130044735D01*
X79090949Y-129828000D01*
X79069602Y-129611265D01*
X79006383Y-129402858D01*
X78903720Y-129210790D01*
X78765560Y-129042440D01*
X78597210Y-128904280D01*
X78405142Y-128801617D01*
X78196735Y-128738398D01*
X78034308Y-128722400D01*
X77125692Y-128722400D01*
X76963265Y-128738398D01*
X76754858Y-128801617D01*
X76562790Y-128904280D01*
X76394440Y-129042440D01*
X76256280Y-129210790D01*
X76153617Y-129402858D01*
X76090398Y-129611265D01*
X76069051Y-129828000D01*
X61970011Y-129828000D01*
X61903983Y-129668595D01*
X61717326Y-129389243D01*
X61479757Y-129151674D01*
X61200405Y-128965017D01*
X60890005Y-128836445D01*
X60560487Y-128770900D01*
X60224513Y-128770900D01*
X59894995Y-128836445D01*
X59584595Y-128965017D01*
X59305243Y-129151674D01*
X59067674Y-129389243D01*
X58881017Y-129668595D01*
X58752445Y-129978995D01*
X58686900Y-130308513D01*
X57191528Y-130308513D01*
X57027572Y-130275900D01*
X56637428Y-130275900D01*
X56254780Y-130352014D01*
X55894334Y-130501315D01*
X55569941Y-130718068D01*
X55294068Y-130993941D01*
X55077315Y-131318334D01*
X54928014Y-131678780D01*
X54851900Y-132061428D01*
X53137600Y-132061428D01*
X53137600Y-128259080D01*
X67443400Y-128259080D01*
X67443400Y-128407920D01*
X67472437Y-128553900D01*
X67529396Y-128691411D01*
X67612087Y-128815167D01*
X67717333Y-128920413D01*
X67841089Y-129003104D01*
X67978600Y-129060063D01*
X68124580Y-129089100D01*
X68273420Y-129089100D01*
X68419400Y-129060063D01*
X68556911Y-129003104D01*
X68680667Y-128920413D01*
X68785913Y-128815167D01*
X68868604Y-128691411D01*
X68925563Y-128553900D01*
X68954600Y-128407920D01*
X68954600Y-128259080D01*
X68925563Y-128113100D01*
X68868604Y-127975589D01*
X68785913Y-127851833D01*
X68680667Y-127746587D01*
X68556911Y-127663896D01*
X68419400Y-127606937D01*
X68273420Y-127577900D01*
X68124580Y-127577900D01*
X67978600Y-127606937D01*
X67841089Y-127663896D01*
X67717333Y-127746587D01*
X67612087Y-127851833D01*
X67529396Y-127975589D01*
X67472437Y-128113100D01*
X67443400Y-128259080D01*
X53137600Y-128259080D01*
X53137600Y-126261078D01*
X86857400Y-126261078D01*
X86857400Y-126409918D01*
X86886437Y-126555898D01*
X86943396Y-126693409D01*
X87026087Y-126817165D01*
X87131333Y-126922411D01*
X87255089Y-127005102D01*
X87392600Y-127062061D01*
X87538580Y-127091098D01*
X87687420Y-127091098D01*
X87833400Y-127062061D01*
X87970911Y-127005102D01*
X88094667Y-126922411D01*
X88199913Y-126817165D01*
X88282604Y-126693409D01*
X88339563Y-126555898D01*
X88368600Y-126409918D01*
X88368600Y-126261078D01*
X88339563Y-126115098D01*
X88282604Y-125977587D01*
X88265561Y-125952080D01*
X107951400Y-125952080D01*
X107951400Y-126100920D01*
X107980437Y-126246900D01*
X108037396Y-126384411D01*
X108120087Y-126508167D01*
X108225333Y-126613413D01*
X108349089Y-126696104D01*
X108486600Y-126753063D01*
X108632580Y-126782100D01*
X108781420Y-126782100D01*
X108927400Y-126753063D01*
X109064911Y-126696104D01*
X109188667Y-126613413D01*
X109257000Y-126545080D01*
X109325333Y-126613413D01*
X109449089Y-126696104D01*
X109586600Y-126753063D01*
X109732580Y-126782100D01*
X109881420Y-126782100D01*
X110027400Y-126753063D01*
X110164911Y-126696104D01*
X110288667Y-126613413D01*
X110357000Y-126545080D01*
X110425333Y-126613413D01*
X110549089Y-126696104D01*
X110686600Y-126753063D01*
X110832580Y-126782100D01*
X110981420Y-126782100D01*
X111127400Y-126753063D01*
X111264911Y-126696104D01*
X111388667Y-126613413D01*
X111493913Y-126508167D01*
X111576604Y-126384411D01*
X111633563Y-126246900D01*
X111662600Y-126100920D01*
X111662600Y-125952080D01*
X111633563Y-125806100D01*
X111576604Y-125668589D01*
X111493913Y-125544833D01*
X111388667Y-125439587D01*
X111264911Y-125356896D01*
X111127400Y-125299937D01*
X110981420Y-125270900D01*
X110832580Y-125270900D01*
X110686600Y-125299937D01*
X110549089Y-125356896D01*
X110425333Y-125439587D01*
X110357000Y-125507920D01*
X110288667Y-125439587D01*
X110164911Y-125356896D01*
X110027400Y-125299937D01*
X109881420Y-125270900D01*
X109732580Y-125270900D01*
X109586600Y-125299937D01*
X109449089Y-125356896D01*
X109325333Y-125439587D01*
X109257000Y-125507920D01*
X109188667Y-125439587D01*
X109064911Y-125356896D01*
X108927400Y-125299937D01*
X108781420Y-125270900D01*
X108632580Y-125270900D01*
X108486600Y-125299937D01*
X108349089Y-125356896D01*
X108225333Y-125439587D01*
X108120087Y-125544833D01*
X108037396Y-125668589D01*
X107980437Y-125806100D01*
X107951400Y-125952080D01*
X88265561Y-125952080D01*
X88199913Y-125853831D01*
X88094667Y-125748585D01*
X87970911Y-125665894D01*
X87833400Y-125608935D01*
X87687420Y-125579898D01*
X87538580Y-125579898D01*
X87392600Y-125608935D01*
X87255089Y-125665894D01*
X87131333Y-125748585D01*
X87026087Y-125853831D01*
X86943396Y-125977587D01*
X86886437Y-126115098D01*
X86857400Y-126261078D01*
X53137600Y-126261078D01*
X53137600Y-125456636D01*
X53191422Y-125503319D01*
X53350102Y-125593781D01*
X53523381Y-125651548D01*
X53704600Y-125674400D01*
X54129600Y-125674400D01*
X54129600Y-124768400D01*
X54180400Y-124768400D01*
X54180400Y-125674400D01*
X54605400Y-125674400D01*
X54786619Y-125651548D01*
X54959898Y-125593781D01*
X55118578Y-125503319D01*
X55256560Y-125383638D01*
X55368542Y-125239338D01*
X55450221Y-125075964D01*
X55495618Y-124913736D01*
X55466165Y-124864080D01*
X62790900Y-124864080D01*
X62790900Y-125012920D01*
X62819937Y-125158900D01*
X62876896Y-125296411D01*
X62959587Y-125420167D01*
X63064833Y-125525413D01*
X63188589Y-125608104D01*
X63326100Y-125665063D01*
X63472080Y-125694100D01*
X63620920Y-125694100D01*
X63766900Y-125665063D01*
X63904411Y-125608104D01*
X64028167Y-125525413D01*
X64133413Y-125420167D01*
X64216104Y-125296411D01*
X64273063Y-125158900D01*
X64302100Y-125012920D01*
X64302100Y-124864080D01*
X64273063Y-124718100D01*
X64216104Y-124580589D01*
X64133413Y-124456833D01*
X64028167Y-124351587D01*
X63904411Y-124268896D01*
X63766900Y-124211937D01*
X63620920Y-124182900D01*
X63472080Y-124182900D01*
X63326100Y-124211937D01*
X63188589Y-124268896D01*
X63064833Y-124351587D01*
X62959587Y-124456833D01*
X62876896Y-124580589D01*
X62819937Y-124718100D01*
X62790900Y-124864080D01*
X55466165Y-124864080D01*
X55409411Y-124768400D01*
X54180400Y-124768400D01*
X54129600Y-124768400D01*
X54109600Y-124768400D01*
X54109600Y-124717600D01*
X54129600Y-124717600D01*
X54129600Y-123811600D01*
X54180400Y-123811600D01*
X54180400Y-124717600D01*
X55409411Y-124717600D01*
X55495618Y-124572264D01*
X55450221Y-124410036D01*
X55368542Y-124246662D01*
X55256560Y-124102362D01*
X55118578Y-123982681D01*
X54959898Y-123892219D01*
X54786619Y-123834452D01*
X54605400Y-123811600D01*
X54180400Y-123811600D01*
X54129600Y-123811600D01*
X53704600Y-123811600D01*
X53523381Y-123834452D01*
X53350102Y-123892219D01*
X53191422Y-123982681D01*
X53137600Y-124029364D01*
X53137600Y-121591580D01*
X62998398Y-121591580D01*
X62998398Y-121740420D01*
X63027435Y-121886400D01*
X63084394Y-122023911D01*
X63167085Y-122147667D01*
X63272331Y-122252913D01*
X63396087Y-122335604D01*
X63533598Y-122392563D01*
X63679578Y-122421600D01*
X63828418Y-122421600D01*
X63974398Y-122392563D01*
X64111909Y-122335604D01*
X64235665Y-122252913D01*
X64340911Y-122147667D01*
X64423602Y-122023911D01*
X64480561Y-121886400D01*
X64509598Y-121740420D01*
X64509598Y-121591580D01*
X64480561Y-121445600D01*
X64423602Y-121308089D01*
X64340911Y-121184333D01*
X64235665Y-121079087D01*
X64111909Y-120996396D01*
X63974398Y-120939437D01*
X63828418Y-120910400D01*
X63679578Y-120910400D01*
X63533598Y-120939437D01*
X63396087Y-120996396D01*
X63272331Y-121079087D01*
X63167085Y-121184333D01*
X63084394Y-121308089D01*
X63027435Y-121445600D01*
X62998398Y-121591580D01*
X53137600Y-121591580D01*
X53137600Y-119813581D01*
X61664900Y-119813581D01*
X61664900Y-119962421D01*
X61693937Y-120108401D01*
X61750896Y-120245912D01*
X61833587Y-120369668D01*
X61938833Y-120474914D01*
X62062589Y-120557605D01*
X62200100Y-120614564D01*
X62346080Y-120643601D01*
X62494920Y-120643601D01*
X62640900Y-120614564D01*
X62778411Y-120557605D01*
X62902167Y-120474914D01*
X62989001Y-120388080D01*
X80635900Y-120388080D01*
X80635900Y-120536920D01*
X80664937Y-120682900D01*
X80721896Y-120820411D01*
X80804587Y-120944167D01*
X80909833Y-121049413D01*
X81033589Y-121132104D01*
X81171100Y-121189063D01*
X81317080Y-121218100D01*
X81465920Y-121218100D01*
X81611900Y-121189063D01*
X81749411Y-121132104D01*
X81873167Y-121049413D01*
X81978413Y-120944167D01*
X82061104Y-120820411D01*
X82118063Y-120682900D01*
X82147100Y-120536920D01*
X82147100Y-120388080D01*
X82118063Y-120242100D01*
X82061104Y-120104589D01*
X81978413Y-119980833D01*
X81873167Y-119875587D01*
X81749411Y-119792896D01*
X81611900Y-119735937D01*
X81465920Y-119706900D01*
X81317080Y-119706900D01*
X81171100Y-119735937D01*
X81033589Y-119792896D01*
X80909833Y-119875587D01*
X80804587Y-119980833D01*
X80721896Y-120104589D01*
X80664937Y-120242100D01*
X80635900Y-120388080D01*
X62989001Y-120388080D01*
X63007413Y-120369668D01*
X63090104Y-120245912D01*
X63147063Y-120108401D01*
X63160275Y-120041980D01*
X63167084Y-120052170D01*
X63272330Y-120157416D01*
X63396086Y-120240107D01*
X63533597Y-120297066D01*
X63679577Y-120326103D01*
X63828417Y-120326103D01*
X63974397Y-120297066D01*
X64111908Y-120240107D01*
X64235664Y-120157416D01*
X64340910Y-120052170D01*
X64423601Y-119928414D01*
X64480560Y-119790903D01*
X64509597Y-119644923D01*
X64509597Y-119496083D01*
X64480560Y-119350103D01*
X64423601Y-119212592D01*
X64340910Y-119088836D01*
X64235664Y-118983590D01*
X64111908Y-118900899D01*
X64026696Y-118865603D01*
X64082423Y-118865603D01*
X64228403Y-118836566D01*
X64365914Y-118779607D01*
X64489670Y-118696916D01*
X64594916Y-118591670D01*
X64677607Y-118467914D01*
X64734566Y-118330403D01*
X64763603Y-118184423D01*
X64763603Y-118035583D01*
X64734566Y-117889603D01*
X64677607Y-117752092D01*
X64594916Y-117628336D01*
X64489670Y-117523090D01*
X64365914Y-117440399D01*
X64228403Y-117383440D01*
X64082423Y-117354403D01*
X63933583Y-117354403D01*
X63787603Y-117383440D01*
X63650092Y-117440399D01*
X63526336Y-117523090D01*
X63421090Y-117628336D01*
X63338399Y-117752092D01*
X63281440Y-117889603D01*
X63252403Y-118035583D01*
X63252403Y-118184423D01*
X63281440Y-118330403D01*
X63338399Y-118467914D01*
X63421090Y-118591670D01*
X63526336Y-118696916D01*
X63650092Y-118779607D01*
X63735304Y-118814903D01*
X63679577Y-118814903D01*
X63533597Y-118843940D01*
X63396086Y-118900899D01*
X63272330Y-118983590D01*
X63167084Y-119088836D01*
X63084393Y-119212592D01*
X63027434Y-119350103D01*
X63014222Y-119416524D01*
X63007413Y-119406334D01*
X62902167Y-119301088D01*
X62778411Y-119218397D01*
X62640900Y-119161438D01*
X62494920Y-119132401D01*
X62346080Y-119132401D01*
X62200100Y-119161438D01*
X62062589Y-119218397D01*
X61938833Y-119301088D01*
X61833587Y-119406334D01*
X61750896Y-119530090D01*
X61693937Y-119667601D01*
X61664900Y-119813581D01*
X53137600Y-119813581D01*
X53137600Y-118306636D01*
X53191422Y-118353319D01*
X53350102Y-118443781D01*
X53523381Y-118501548D01*
X53704600Y-118524400D01*
X54129600Y-118524400D01*
X54129600Y-117618400D01*
X54180400Y-117618400D01*
X54180400Y-118524400D01*
X54605400Y-118524400D01*
X54786619Y-118501548D01*
X54959898Y-118443781D01*
X55118578Y-118353319D01*
X55256560Y-118233638D01*
X55368542Y-118089338D01*
X55450221Y-117925964D01*
X55495618Y-117763736D01*
X55409411Y-117618400D01*
X54180400Y-117618400D01*
X54129600Y-117618400D01*
X54109600Y-117618400D01*
X54109600Y-117567600D01*
X54129600Y-117567600D01*
X54129600Y-116661600D01*
X54180400Y-116661600D01*
X54180400Y-117567600D01*
X55409411Y-117567600D01*
X55495618Y-117422264D01*
X55450221Y-117260036D01*
X55368542Y-117096662D01*
X55256560Y-116952362D01*
X55118578Y-116832681D01*
X54959898Y-116742219D01*
X54786619Y-116684452D01*
X54605400Y-116661600D01*
X54180400Y-116661600D01*
X54129600Y-116661600D01*
X53704600Y-116661600D01*
X53523381Y-116684452D01*
X53350102Y-116742219D01*
X53191422Y-116832681D01*
X53137600Y-116879364D01*
X53137600Y-114816259D01*
X58992400Y-114816259D01*
X58992400Y-115053741D01*
X59038731Y-115286660D01*
X59129611Y-115506066D01*
X59261550Y-115703525D01*
X59429475Y-115871450D01*
X59626934Y-116003389D01*
X59846340Y-116094269D01*
X60079259Y-116140600D01*
X60316741Y-116140600D01*
X60549660Y-116094269D01*
X60769066Y-116003389D01*
X60966525Y-115871450D01*
X61134450Y-115703525D01*
X61266389Y-115506066D01*
X61357269Y-115286660D01*
X61403600Y-115053741D01*
X61403600Y-114816259D01*
X61357269Y-114583340D01*
X61266389Y-114363934D01*
X61134450Y-114166475D01*
X61052975Y-114085000D01*
X61530680Y-114085000D01*
X61530680Y-115785000D01*
X61537546Y-115854710D01*
X61557879Y-115921740D01*
X61590899Y-115983516D01*
X61635337Y-116037663D01*
X61689484Y-116082101D01*
X61751260Y-116115121D01*
X61818290Y-116135454D01*
X61888000Y-116142320D01*
X63588000Y-116142320D01*
X63657710Y-116135454D01*
X63724740Y-116115121D01*
X63786516Y-116082101D01*
X63840663Y-116037663D01*
X63885101Y-115983516D01*
X63918121Y-115921740D01*
X63938454Y-115854710D01*
X63945320Y-115785000D01*
X63945320Y-114085000D01*
X63938454Y-114015290D01*
X63918121Y-113948260D01*
X63885101Y-113886484D01*
X63840663Y-113832337D01*
X63786516Y-113787899D01*
X63724740Y-113754879D01*
X63657710Y-113734546D01*
X63588000Y-113727680D01*
X61888000Y-113727680D01*
X61818290Y-113734546D01*
X61751260Y-113754879D01*
X61689484Y-113787899D01*
X61635337Y-113832337D01*
X61590899Y-113886484D01*
X61557879Y-113948260D01*
X61537546Y-114015290D01*
X61530680Y-114085000D01*
X61052975Y-114085000D01*
X60966525Y-113998550D01*
X60769066Y-113866611D01*
X60549660Y-113775731D01*
X60316741Y-113729400D01*
X60079259Y-113729400D01*
X59846340Y-113775731D01*
X59626934Y-113866611D01*
X59429475Y-113998550D01*
X59261550Y-114166475D01*
X59129611Y-114363934D01*
X59038731Y-114583340D01*
X58992400Y-114816259D01*
X53137600Y-114816259D01*
X53137600Y-112616591D01*
X58961296Y-112616591D01*
X58970634Y-112663544D01*
X59046608Y-112897831D01*
X59166829Y-113112795D01*
X59326677Y-113300174D01*
X59520010Y-113452768D01*
X59739398Y-113564712D01*
X59976409Y-113631705D01*
X60172600Y-113549544D01*
X60172600Y-112420400D01*
X60223400Y-112420400D01*
X60223400Y-113549544D01*
X60419591Y-113631705D01*
X60656602Y-113564712D01*
X60875990Y-113452768D01*
X61069323Y-113300174D01*
X61229171Y-113112795D01*
X61349392Y-112897831D01*
X61425366Y-112663544D01*
X61434704Y-112616591D01*
X61352521Y-112420400D01*
X60223400Y-112420400D01*
X60172600Y-112420400D01*
X59043479Y-112420400D01*
X58961296Y-112616591D01*
X53137600Y-112616591D01*
X53137600Y-112173409D01*
X58961296Y-112173409D01*
X59043479Y-112369600D01*
X60172600Y-112369600D01*
X60172600Y-111240456D01*
X60223400Y-111240456D01*
X60223400Y-112369600D01*
X61352521Y-112369600D01*
X61391620Y-112276259D01*
X61532400Y-112276259D01*
X61532400Y-112513741D01*
X61578731Y-112746660D01*
X61669611Y-112966066D01*
X61801550Y-113163525D01*
X61969475Y-113331450D01*
X62166934Y-113463389D01*
X62386340Y-113554269D01*
X62619259Y-113600600D01*
X62856741Y-113600600D01*
X63089660Y-113554269D01*
X63226520Y-113497580D01*
X70474400Y-113497580D01*
X70474400Y-113646420D01*
X70503437Y-113792400D01*
X70560396Y-113929911D01*
X70643087Y-114053667D01*
X70748333Y-114158913D01*
X70872089Y-114241604D01*
X71009600Y-114298563D01*
X71155580Y-114327600D01*
X71304420Y-114327600D01*
X71450400Y-114298563D01*
X71587911Y-114241604D01*
X71711667Y-114158913D01*
X71816913Y-114053667D01*
X71899604Y-113929911D01*
X71956563Y-113792400D01*
X71985600Y-113646420D01*
X71985600Y-113497580D01*
X71956563Y-113351600D01*
X71899604Y-113214089D01*
X71816913Y-113090333D01*
X71711667Y-112985087D01*
X71587911Y-112902396D01*
X71450400Y-112845437D01*
X71304420Y-112816400D01*
X71155580Y-112816400D01*
X71009600Y-112845437D01*
X70872089Y-112902396D01*
X70748333Y-112985087D01*
X70643087Y-113090333D01*
X70560396Y-113214089D01*
X70503437Y-113351600D01*
X70474400Y-113497580D01*
X63226520Y-113497580D01*
X63309066Y-113463389D01*
X63506525Y-113331450D01*
X63674450Y-113163525D01*
X63806389Y-112966066D01*
X63897269Y-112746660D01*
X63943600Y-112513741D01*
X63943600Y-112276259D01*
X63897269Y-112043340D01*
X63835030Y-111893080D01*
X75668900Y-111893080D01*
X75668900Y-112041920D01*
X75697937Y-112187900D01*
X75754896Y-112325411D01*
X75837587Y-112449167D01*
X75942833Y-112554413D01*
X76066589Y-112637104D01*
X76204100Y-112694063D01*
X76350080Y-112723100D01*
X76498920Y-112723100D01*
X76644900Y-112694063D01*
X76782411Y-112637104D01*
X76906167Y-112554413D01*
X77011413Y-112449167D01*
X77094104Y-112325411D01*
X77151063Y-112187900D01*
X77180100Y-112041920D01*
X77180100Y-111893080D01*
X77167470Y-111829580D01*
X81066400Y-111829580D01*
X81066400Y-111978420D01*
X81095437Y-112124400D01*
X81152396Y-112261911D01*
X81235087Y-112385667D01*
X81340333Y-112490913D01*
X81464089Y-112573604D01*
X81601600Y-112630563D01*
X81747580Y-112659600D01*
X81896420Y-112659600D01*
X82042400Y-112630563D01*
X82179911Y-112573604D01*
X82303667Y-112490913D01*
X82408913Y-112385667D01*
X82491604Y-112261911D01*
X82548563Y-112124400D01*
X82577600Y-111978420D01*
X82577600Y-111829580D01*
X82548563Y-111683600D01*
X82491604Y-111546089D01*
X82408913Y-111422333D01*
X82303667Y-111317087D01*
X82179911Y-111234396D01*
X82042400Y-111177437D01*
X81896420Y-111148400D01*
X81747580Y-111148400D01*
X81601600Y-111177437D01*
X81464089Y-111234396D01*
X81340333Y-111317087D01*
X81235087Y-111422333D01*
X81152396Y-111546089D01*
X81095437Y-111683600D01*
X81066400Y-111829580D01*
X77167470Y-111829580D01*
X77151063Y-111747100D01*
X77094104Y-111609589D01*
X77011413Y-111485833D01*
X76906167Y-111380587D01*
X76782411Y-111297896D01*
X76644900Y-111240937D01*
X76498920Y-111211900D01*
X76350080Y-111211900D01*
X76204100Y-111240937D01*
X76066589Y-111297896D01*
X75942833Y-111380587D01*
X75837587Y-111485833D01*
X75754896Y-111609589D01*
X75697937Y-111747100D01*
X75668900Y-111893080D01*
X63835030Y-111893080D01*
X63806389Y-111823934D01*
X63674450Y-111626475D01*
X63506525Y-111458550D01*
X63309066Y-111326611D01*
X63089660Y-111235731D01*
X62856741Y-111189400D01*
X62619259Y-111189400D01*
X62386340Y-111235731D01*
X62166934Y-111326611D01*
X61969475Y-111458550D01*
X61801550Y-111626475D01*
X61669611Y-111823934D01*
X61578731Y-112043340D01*
X61532400Y-112276259D01*
X61391620Y-112276259D01*
X61434704Y-112173409D01*
X61425366Y-112126456D01*
X61349392Y-111892169D01*
X61229171Y-111677205D01*
X61069323Y-111489826D01*
X60875990Y-111337232D01*
X60656602Y-111225288D01*
X60419591Y-111158295D01*
X60223400Y-111240456D01*
X60172600Y-111240456D01*
X59976409Y-111158295D01*
X59739398Y-111225288D01*
X59520010Y-111337232D01*
X59326677Y-111489826D01*
X59166829Y-111677205D01*
X59046608Y-111892169D01*
X58970634Y-112126456D01*
X58961296Y-112173409D01*
X53137600Y-112173409D01*
X53137600Y-111016108D01*
X93763400Y-111016108D01*
X93763400Y-111233892D01*
X93805887Y-111447492D01*
X93889230Y-111648698D01*
X94010224Y-111829779D01*
X94164221Y-111983776D01*
X94345302Y-112104770D01*
X94546508Y-112188113D01*
X94760108Y-112230600D01*
X94977892Y-112230600D01*
X95191492Y-112188113D01*
X95392698Y-112104770D01*
X95573779Y-111983776D01*
X95727776Y-111829779D01*
X95848770Y-111648698D01*
X95932113Y-111447492D01*
X95974600Y-111233892D01*
X95974600Y-111016108D01*
X95932113Y-110802508D01*
X95848770Y-110601302D01*
X95727776Y-110420221D01*
X95573779Y-110266224D01*
X95392698Y-110145230D01*
X95191492Y-110061887D01*
X94977892Y-110019400D01*
X94760108Y-110019400D01*
X94546508Y-110061887D01*
X94345302Y-110145230D01*
X94164221Y-110266224D01*
X94010224Y-110420221D01*
X93889230Y-110601302D01*
X93805887Y-110802508D01*
X93763400Y-111016108D01*
X53137600Y-111016108D01*
X53137600Y-109222862D01*
X53876400Y-109222862D01*
X53876400Y-109539138D01*
X53938102Y-109849336D01*
X54059136Y-110141537D01*
X54234849Y-110404510D01*
X54458490Y-110628151D01*
X54721463Y-110803864D01*
X55013664Y-110924898D01*
X55323862Y-110986600D01*
X55640138Y-110986600D01*
X55950336Y-110924898D01*
X56242537Y-110803864D01*
X56505510Y-110628151D01*
X56729151Y-110404510D01*
X56904864Y-110141537D01*
X56942125Y-110051580D01*
X75668900Y-110051580D01*
X75668900Y-110200420D01*
X75697937Y-110346400D01*
X75754896Y-110483911D01*
X75837587Y-110607667D01*
X75942833Y-110712913D01*
X76066589Y-110795604D01*
X76204100Y-110852563D01*
X76350080Y-110881600D01*
X76498920Y-110881600D01*
X76644900Y-110852563D01*
X76782411Y-110795604D01*
X76906167Y-110712913D01*
X77011413Y-110607667D01*
X77094104Y-110483911D01*
X77151063Y-110346400D01*
X77180100Y-110200420D01*
X77180100Y-110051580D01*
X77319900Y-110051580D01*
X77319900Y-110200420D01*
X77348937Y-110346400D01*
X77405896Y-110483911D01*
X77488587Y-110607667D01*
X77593833Y-110712913D01*
X77717589Y-110795604D01*
X77855100Y-110852563D01*
X78001080Y-110881600D01*
X78149920Y-110881600D01*
X78295900Y-110852563D01*
X78433411Y-110795604D01*
X78557167Y-110712913D01*
X78662413Y-110607667D01*
X78745104Y-110483911D01*
X78802063Y-110346400D01*
X78831100Y-110200420D01*
X78831100Y-110051580D01*
X79161400Y-110051580D01*
X79161400Y-110200420D01*
X79190437Y-110346400D01*
X79247396Y-110483911D01*
X79330087Y-110607667D01*
X79435333Y-110712913D01*
X79559089Y-110795604D01*
X79696600Y-110852563D01*
X79842580Y-110881600D01*
X79991420Y-110881600D01*
X80137400Y-110852563D01*
X80274911Y-110795604D01*
X80398667Y-110712913D01*
X80503913Y-110607667D01*
X80586604Y-110483911D01*
X80643563Y-110346400D01*
X80672600Y-110200420D01*
X80672600Y-110051580D01*
X81066400Y-110051580D01*
X81066400Y-110200420D01*
X81095437Y-110346400D01*
X81152396Y-110483911D01*
X81235087Y-110607667D01*
X81340333Y-110712913D01*
X81464089Y-110795604D01*
X81601600Y-110852563D01*
X81747580Y-110881600D01*
X81896420Y-110881600D01*
X82042400Y-110852563D01*
X82179911Y-110795604D01*
X82303667Y-110712913D01*
X82408913Y-110607667D01*
X82491604Y-110483911D01*
X82548563Y-110346400D01*
X82577600Y-110200420D01*
X82577600Y-110051580D01*
X82548563Y-109905600D01*
X82491604Y-109768089D01*
X82408913Y-109644333D01*
X82303667Y-109539087D01*
X82179911Y-109456396D01*
X82042400Y-109399437D01*
X81896420Y-109370400D01*
X81747580Y-109370400D01*
X81601600Y-109399437D01*
X81464089Y-109456396D01*
X81340333Y-109539087D01*
X81235087Y-109644333D01*
X81152396Y-109768089D01*
X81095437Y-109905600D01*
X81066400Y-110051580D01*
X80672600Y-110051580D01*
X80643563Y-109905600D01*
X80586604Y-109768089D01*
X80503913Y-109644333D01*
X80398667Y-109539087D01*
X80274911Y-109456396D01*
X80137400Y-109399437D01*
X79991420Y-109370400D01*
X79842580Y-109370400D01*
X79696600Y-109399437D01*
X79559089Y-109456396D01*
X79435333Y-109539087D01*
X79330087Y-109644333D01*
X79247396Y-109768089D01*
X79190437Y-109905600D01*
X79161400Y-110051580D01*
X78831100Y-110051580D01*
X78802063Y-109905600D01*
X78745104Y-109768089D01*
X78662413Y-109644333D01*
X78557167Y-109539087D01*
X78433411Y-109456396D01*
X78295900Y-109399437D01*
X78149920Y-109370400D01*
X78001080Y-109370400D01*
X77855100Y-109399437D01*
X77717589Y-109456396D01*
X77593833Y-109539087D01*
X77488587Y-109644333D01*
X77405896Y-109768089D01*
X77348937Y-109905600D01*
X77319900Y-110051580D01*
X77180100Y-110051580D01*
X77151063Y-109905600D01*
X77094104Y-109768089D01*
X77011413Y-109644333D01*
X76906167Y-109539087D01*
X76782411Y-109456396D01*
X76644900Y-109399437D01*
X76498920Y-109370400D01*
X76350080Y-109370400D01*
X76204100Y-109399437D01*
X76066589Y-109456396D01*
X75942833Y-109539087D01*
X75837587Y-109644333D01*
X75754896Y-109768089D01*
X75697937Y-109905600D01*
X75668900Y-110051580D01*
X56942125Y-110051580D01*
X57025898Y-109849336D01*
X57087600Y-109539138D01*
X57087600Y-109349862D01*
X111407400Y-109349862D01*
X111407400Y-109666138D01*
X111469102Y-109976336D01*
X111590136Y-110268537D01*
X111765849Y-110531510D01*
X111989490Y-110755151D01*
X112252463Y-110930864D01*
X112544664Y-111051898D01*
X112854862Y-111113600D01*
X113171138Y-111113600D01*
X113481336Y-111051898D01*
X113773537Y-110930864D01*
X114036510Y-110755151D01*
X114260151Y-110531510D01*
X114435864Y-110268537D01*
X114556898Y-109976336D01*
X114618600Y-109666138D01*
X114618600Y-109349862D01*
X114556898Y-109039664D01*
X114435864Y-108747463D01*
X114260151Y-108484490D01*
X114036510Y-108260849D01*
X113773537Y-108085136D01*
X113481336Y-107964102D01*
X113171138Y-107902400D01*
X112854862Y-107902400D01*
X112544664Y-107964102D01*
X112252463Y-108085136D01*
X111989490Y-108260849D01*
X111765849Y-108484490D01*
X111590136Y-108747463D01*
X111469102Y-109039664D01*
X111407400Y-109349862D01*
X57087600Y-109349862D01*
X57087600Y-109222862D01*
X57025898Y-108912664D01*
X56904864Y-108620463D01*
X56729151Y-108357490D01*
X56505510Y-108133849D01*
X56242537Y-107958136D01*
X55950336Y-107837102D01*
X55640138Y-107775400D01*
X55323862Y-107775400D01*
X55013664Y-107837102D01*
X54721463Y-107958136D01*
X54458490Y-108133849D01*
X54234849Y-108357490D01*
X54059136Y-108620463D01*
X53938102Y-108912664D01*
X53876400Y-109222862D01*
X53137600Y-109222862D01*
X53137600Y-107187832D01*
X53141305Y-107150043D01*
X53146520Y-107132772D01*
X53154994Y-107116834D01*
X53166394Y-107102856D01*
X53180303Y-107091349D01*
X53196173Y-107082768D01*
X53213410Y-107077433D01*
X53249879Y-107073600D01*
X115312168Y-107073600D01*
X115349957Y-107077305D01*
G37*
G04 #@! TD.AperFunction*
M02*
