G04 #@! TF.GenerationSoftware,KiCad,Pcbnew,(5.1.9-0-10_14)*
G04 #@! TF.CreationDate,2021-06-28T14:28:25+02:00*
G04 #@! TF.ProjectId,ithowifi_4l,6974686f-7769-4666-995f-346c2e6b6963,rev?*
G04 #@! TF.SameCoordinates,Original*
G04 #@! TF.FileFunction,Legend,Top*
G04 #@! TF.FilePolarity,Positive*
%FSLAX46Y46*%
G04 Gerber Fmt 4.6, Leading zero omitted, Abs format (unit mm)*
G04 Created by KiCad (PCBNEW (5.1.9-0-10_14)) date 2021-06-28 14:28:25*
%MOMM*%
%LPD*%
G01*
G04 APERTURE LIST*
%ADD10C,0.150000*%
%ADD11C,0.120000*%
%ADD12C,0.100000*%
%ADD13C,0.200000*%
%ADD14C,0.254000*%
G04 APERTURE END LIST*
D10*
X56324595Y-112022000D02*
X56229357Y-111974380D01*
X56086500Y-111974380D01*
X55943642Y-112022000D01*
X55848404Y-112117238D01*
X55800785Y-112212476D01*
X55753166Y-112402952D01*
X55753166Y-112545809D01*
X55800785Y-112736285D01*
X55848404Y-112831523D01*
X55943642Y-112926761D01*
X56086500Y-112974380D01*
X56181738Y-112974380D01*
X56324595Y-112926761D01*
X56372214Y-112879142D01*
X56372214Y-112545809D01*
X56181738Y-112545809D01*
X56800785Y-112974380D02*
X56800785Y-111974380D01*
X57372214Y-112974380D01*
X57372214Y-111974380D01*
X57848404Y-112974380D02*
X57848404Y-111974380D01*
X58086500Y-111974380D01*
X58229357Y-112022000D01*
X58324595Y-112117238D01*
X58372214Y-112212476D01*
X58419833Y-112402952D01*
X58419833Y-112545809D01*
X58372214Y-112736285D01*
X58324595Y-112831523D01*
X58229357Y-112926761D01*
X58086500Y-112974380D01*
X57848404Y-112974380D01*
X56023023Y-114577880D02*
X56642071Y-114577880D01*
X56308738Y-114958833D01*
X56451595Y-114958833D01*
X56546833Y-115006452D01*
X56594452Y-115054071D01*
X56642071Y-115149309D01*
X56642071Y-115387404D01*
X56594452Y-115482642D01*
X56546833Y-115530261D01*
X56451595Y-115577880D01*
X56165880Y-115577880D01*
X56070642Y-115530261D01*
X56023023Y-115482642D01*
X56975404Y-114911214D02*
X57213500Y-115577880D01*
X57451595Y-114911214D01*
X57737309Y-114577880D02*
X58356357Y-114577880D01*
X58023023Y-114958833D01*
X58165880Y-114958833D01*
X58261119Y-115006452D01*
X58308738Y-115054071D01*
X58356357Y-115149309D01*
X58356357Y-115387404D01*
X58308738Y-115482642D01*
X58261119Y-115530261D01*
X58165880Y-115577880D01*
X57880166Y-115577880D01*
X57784928Y-115530261D01*
X57737309Y-115482642D01*
X72475619Y-152717523D02*
X72475619Y-153336571D01*
X72094666Y-153003238D01*
X72094666Y-153146095D01*
X72047047Y-153241333D01*
X71999428Y-153288952D01*
X71904190Y-153336571D01*
X71666095Y-153336571D01*
X71570857Y-153288952D01*
X71523238Y-153241333D01*
X71475619Y-153146095D01*
X71475619Y-152860380D01*
X71523238Y-152765142D01*
X71570857Y-152717523D01*
X72142285Y-153669904D02*
X71475619Y-153908000D01*
X72142285Y-154146095D01*
X72475619Y-154431809D02*
X72475619Y-155050857D01*
X72094666Y-154717523D01*
X72094666Y-154860380D01*
X72047047Y-154955619D01*
X71999428Y-155003238D01*
X71904190Y-155050857D01*
X71666095Y-155050857D01*
X71570857Y-155003238D01*
X71523238Y-154955619D01*
X71475619Y-154860380D01*
X71475619Y-154574666D01*
X71523238Y-154479428D01*
X71570857Y-154431809D01*
X72428000Y-150046095D02*
X72475619Y-149950857D01*
X72475619Y-149808000D01*
X72428000Y-149665142D01*
X72332761Y-149569904D01*
X72237523Y-149522285D01*
X72047047Y-149474666D01*
X71904190Y-149474666D01*
X71713714Y-149522285D01*
X71618476Y-149569904D01*
X71523238Y-149665142D01*
X71475619Y-149808000D01*
X71475619Y-149903238D01*
X71523238Y-150046095D01*
X71570857Y-150093714D01*
X71904190Y-150093714D01*
X71904190Y-149903238D01*
X71475619Y-150522285D02*
X72475619Y-150522285D01*
X71475619Y-151093714D01*
X72475619Y-151093714D01*
X71475619Y-151569904D02*
X72475619Y-151569904D01*
X72475619Y-151808000D01*
X72428000Y-151950857D01*
X72332761Y-152046095D01*
X72237523Y-152093714D01*
X72047047Y-152141333D01*
X71904190Y-152141333D01*
X71713714Y-152093714D01*
X71618476Y-152046095D01*
X71523238Y-151950857D01*
X71475619Y-151808000D01*
X71475619Y-151569904D01*
X79211238Y-149593714D02*
X79163619Y-149736571D01*
X79163619Y-149974666D01*
X79211238Y-150069904D01*
X79258857Y-150117523D01*
X79354095Y-150165142D01*
X79449333Y-150165142D01*
X79544571Y-150117523D01*
X79592190Y-150069904D01*
X79639809Y-149974666D01*
X79687428Y-149784190D01*
X79735047Y-149688952D01*
X79782666Y-149641333D01*
X79877904Y-149593714D01*
X79973142Y-149593714D01*
X80068380Y-149641333D01*
X80116000Y-149688952D01*
X80163619Y-149784190D01*
X80163619Y-150022285D01*
X80116000Y-150165142D01*
X79163619Y-150593714D02*
X80163619Y-150593714D01*
X80163619Y-150831809D01*
X80116000Y-150974666D01*
X80020761Y-151069904D01*
X79925523Y-151117523D01*
X79735047Y-151165142D01*
X79592190Y-151165142D01*
X79401714Y-151117523D01*
X79306476Y-151069904D01*
X79211238Y-150974666D01*
X79163619Y-150831809D01*
X79163619Y-150593714D01*
X79449333Y-151546095D02*
X79449333Y-152022285D01*
X79163619Y-151450857D02*
X80163619Y-151784190D01*
X79163619Y-152117523D01*
X79211238Y-152717523D02*
X79163619Y-152860380D01*
X79163619Y-153098476D01*
X79211238Y-153193714D01*
X79258857Y-153241333D01*
X79354095Y-153288952D01*
X79449333Y-153288952D01*
X79544571Y-153241333D01*
X79592190Y-153193714D01*
X79639809Y-153098476D01*
X79687428Y-152908000D01*
X79735047Y-152812761D01*
X79782666Y-152765142D01*
X79877904Y-152717523D01*
X79973142Y-152717523D01*
X80068380Y-152765142D01*
X80116000Y-152812761D01*
X80163619Y-152908000D01*
X80163619Y-153146095D01*
X80116000Y-153288952D01*
X79258857Y-154288952D02*
X79211238Y-154241333D01*
X79163619Y-154098476D01*
X79163619Y-154003238D01*
X79211238Y-153860380D01*
X79306476Y-153765142D01*
X79401714Y-153717523D01*
X79592190Y-153669904D01*
X79735047Y-153669904D01*
X79925523Y-153717523D01*
X80020761Y-153765142D01*
X80116000Y-153860380D01*
X80163619Y-154003238D01*
X80163619Y-154098476D01*
X80116000Y-154241333D01*
X80068380Y-154288952D01*
X79163619Y-155193714D02*
X79163619Y-154717523D01*
X80163619Y-154717523D01*
D11*
X64068000Y-116265000D02*
X62738000Y-116265000D01*
X64068000Y-114935000D02*
X64068000Y-116265000D01*
X61468000Y-116265000D02*
X58868000Y-116265000D01*
X61468000Y-113665000D02*
X61468000Y-116265000D01*
X64068000Y-113665000D02*
X61468000Y-113665000D01*
X58868000Y-116265000D02*
X58868000Y-111065000D01*
X64068000Y-113665000D02*
X64068000Y-111065000D01*
X64068000Y-111065000D02*
X58868000Y-111065000D01*
X57765000Y-119408000D02*
X57375000Y-119408000D01*
X57765000Y-119408000D02*
X57765000Y-119858000D01*
X57065000Y-124978000D02*
X57065000Y-124328000D01*
X55335000Y-124978000D02*
X57065000Y-124978000D01*
X52765000Y-117358000D02*
X52975000Y-117358000D01*
X52765000Y-124978000D02*
X52975000Y-124978000D01*
X55335000Y-117358000D02*
X57065000Y-117358000D01*
X57065000Y-117358000D02*
X57065000Y-118018000D01*
X80713252Y-121248500D02*
X80190748Y-121248500D01*
X80713252Y-122718500D02*
X80190748Y-122718500D01*
X97950436Y-123251000D02*
X98404564Y-123251000D01*
X97950436Y-124721000D02*
X98404564Y-124721000D01*
X70641564Y-110417000D02*
X70187436Y-110417000D01*
X70641564Y-108947000D02*
X70187436Y-108947000D01*
X70641564Y-112843000D02*
X70187436Y-112843000D01*
X70641564Y-111373000D02*
X70187436Y-111373000D01*
X67369564Y-151137000D02*
X66915436Y-151137000D01*
X67369564Y-149667000D02*
X66915436Y-149667000D01*
X61922252Y-118718000D02*
X61399748Y-118718000D01*
X61922252Y-117248000D02*
X61399748Y-117248000D01*
X61351000Y-124244752D02*
X61351000Y-123722248D01*
X62821000Y-124244752D02*
X62821000Y-123722248D01*
X82501500Y-113207500D02*
X81241500Y-113207500D01*
X75681500Y-113207500D02*
X76941500Y-113207500D01*
X82501500Y-116967500D02*
X82501500Y-113207500D01*
X75681500Y-119217500D02*
X75681500Y-113207500D01*
X68377000Y-123923000D02*
X70327000Y-123923000D01*
X68377000Y-123923000D02*
X66427000Y-123923000D01*
X68377000Y-113803000D02*
X70327000Y-113803000D01*
X68377000Y-113803000D02*
X64927000Y-113803000D01*
X71020000Y-138279000D02*
X71020000Y-126558000D01*
X79640000Y-138279000D02*
X79640000Y-126558000D01*
X71020000Y-138279000D02*
X79640000Y-138279000D01*
X71020000Y-126558000D02*
X79640000Y-126558000D01*
X78640000Y-138519000D02*
X79880000Y-138519000D01*
X79880000Y-138519000D02*
X79880000Y-137279000D01*
X89514564Y-128023000D02*
X89060436Y-128023000D01*
X89514564Y-126553000D02*
X89060436Y-126553000D01*
X110469564Y-144152000D02*
X110015436Y-144152000D01*
X110469564Y-142682000D02*
X110015436Y-142682000D01*
X98404564Y-128023000D02*
X97950436Y-128023000D01*
X98404564Y-126553000D02*
X97950436Y-126553000D01*
X92695000Y-123676000D02*
X92695000Y-124606000D01*
X92695000Y-126836000D02*
X92695000Y-125906000D01*
X92695000Y-126836000D02*
X94855000Y-126836000D01*
X92695000Y-123676000D02*
X94155000Y-123676000D01*
X104010000Y-126836000D02*
X104010000Y-125906000D01*
X104010000Y-123676000D02*
X104010000Y-124606000D01*
X104010000Y-123676000D02*
X101850000Y-123676000D01*
X104010000Y-126836000D02*
X102550000Y-126836000D01*
D12*
X62332500Y-130456500D02*
X67182500Y-130456500D01*
X67182500Y-130456500D02*
X67182500Y-146736500D01*
X67182500Y-146736500D02*
X62332500Y-146736500D01*
X58832500Y-130476500D02*
X51432500Y-130476500D01*
X51432500Y-130476500D02*
X51432500Y-146736500D01*
X51432500Y-146736500D02*
X58832500Y-146736500D01*
D13*
X58372500Y-147176500D02*
X58372500Y-147176500D01*
X58372500Y-147376500D02*
X58372500Y-147376500D01*
X58372500Y-147376500D02*
G75*
G02*
X58372500Y-147176500I0J100000D01*
G01*
X58372500Y-147176500D02*
G75*
G02*
X58372500Y-147376500I0J-100000D01*
G01*
D11*
X110493252Y-148084000D02*
X109970748Y-148084000D01*
X110493252Y-146614000D02*
X109970748Y-146614000D01*
X108646000Y-131438000D02*
X108646000Y-135838000D01*
X108646000Y-135838000D02*
X108766000Y-135838000D01*
X109776000Y-135838000D02*
X110916000Y-135838000D01*
X111926000Y-135838000D02*
X112046000Y-135838000D01*
X112046000Y-135838000D02*
X112046000Y-131438000D01*
X112046000Y-131438000D02*
X111926000Y-131438000D01*
X110916000Y-131438000D02*
X109776000Y-131438000D01*
X108766000Y-131438000D02*
X108646000Y-131438000D01*
X83077500Y-135596748D02*
X83077500Y-136119252D01*
X81607500Y-135596748D02*
X81607500Y-136119252D01*
X113217000Y-117579000D02*
X110867000Y-117579000D01*
X106397000Y-117579000D02*
X108747000Y-117579000D01*
X106397000Y-123334563D02*
X106397000Y-117579000D01*
X113217000Y-123334563D02*
X113217000Y-117579000D01*
X112152563Y-124399000D02*
X110867000Y-124399000D01*
X107461437Y-124399000D02*
X108747000Y-124399000D01*
X107461437Y-124399000D02*
X106397000Y-123334563D01*
X112152563Y-124399000D02*
X113217000Y-123334563D01*
X78402000Y-149580000D02*
X73202000Y-149580000D01*
X78402000Y-152180000D02*
X78402000Y-149580000D01*
X73202000Y-154780000D02*
X73202000Y-149580000D01*
X78402000Y-152180000D02*
X75802000Y-152180000D01*
X75802000Y-152180000D02*
X75802000Y-154780000D01*
X75802000Y-154780000D02*
X73202000Y-154780000D01*
X78402000Y-153450000D02*
X78402000Y-154780000D01*
X78402000Y-154780000D02*
X77072000Y-154780000D01*
X105097600Y-131260400D02*
X105097600Y-130480400D01*
X105097600Y-130480400D02*
X104097600Y-130480400D01*
X86857600Y-131260400D02*
X86857600Y-130480400D01*
X86857600Y-130480400D02*
X87857600Y-130480400D01*
X105097600Y-156225400D02*
X86857600Y-156225400D01*
X86857600Y-156225400D02*
X86857600Y-149805400D01*
X105097600Y-156225400D02*
X105097600Y-149805400D01*
X105097600Y-149805400D02*
X105477600Y-149805400D01*
X110477578Y-140444000D02*
X109960422Y-140444000D01*
X110477578Y-139024000D02*
X109960422Y-139024000D01*
X67564500Y-111148000D02*
X64879500Y-111148000D01*
X64879500Y-111148000D02*
X64879500Y-113068000D01*
X64879500Y-113068000D02*
X67564500Y-113068000D01*
X83052500Y-130458422D02*
X83052500Y-130975578D01*
X81632500Y-130458422D02*
X81632500Y-130975578D01*
X67564500Y-108722000D02*
X64879500Y-108722000D01*
X64879500Y-108722000D02*
X64879500Y-110642000D01*
X64879500Y-110642000D02*
X67564500Y-110642000D01*
X67503078Y-127680500D02*
X66985922Y-127680500D01*
X67503078Y-126260500D02*
X66985922Y-126260500D01*
X72837078Y-142336500D02*
X72319922Y-142336500D01*
X72837078Y-140916500D02*
X72319922Y-140916500D01*
X72889578Y-146465000D02*
X72372422Y-146465000D01*
X72889578Y-145045000D02*
X72372422Y-145045000D01*
X81052922Y-140992500D02*
X81570078Y-140992500D01*
X81052922Y-142412500D02*
X81570078Y-142412500D01*
X81052922Y-144993000D02*
X81570078Y-144993000D01*
X81052922Y-146413000D02*
X81570078Y-146413000D01*
X76301000Y-140087100D02*
X76301000Y-141017100D01*
X76301000Y-143247100D02*
X76301000Y-142317100D01*
X76301000Y-143247100D02*
X78461000Y-143247100D01*
X76301000Y-140087100D02*
X77761000Y-140087100D01*
X76301000Y-144149600D02*
X76301000Y-145079600D01*
X76301000Y-147309600D02*
X76301000Y-146379600D01*
X76301000Y-147309600D02*
X78461000Y-147309600D01*
X76301000Y-144149600D02*
X77761000Y-144149600D01*
D10*
X59293166Y-109497880D02*
X59293166Y-110212166D01*
X59245547Y-110355023D01*
X59150309Y-110450261D01*
X59007452Y-110497880D01*
X58912214Y-110497880D01*
X60197928Y-109831214D02*
X60197928Y-110497880D01*
X59959833Y-109450261D02*
X59721738Y-110164547D01*
X60340785Y-110164547D01*
X58107380Y-121501333D02*
X58821666Y-121501333D01*
X58964523Y-121548952D01*
X59059761Y-121644190D01*
X59107380Y-121787047D01*
X59107380Y-121882285D01*
X59107380Y-120501333D02*
X59107380Y-121072761D01*
X59107380Y-120787047D02*
X58107380Y-120787047D01*
X58250238Y-120882285D01*
X58345476Y-120977523D01*
X58393095Y-121072761D01*
X83018333Y-122340642D02*
X82970714Y-122388261D01*
X82827857Y-122435880D01*
X82732619Y-122435880D01*
X82589761Y-122388261D01*
X82494523Y-122293023D01*
X82446904Y-122197785D01*
X82399285Y-122007309D01*
X82399285Y-121864452D01*
X82446904Y-121673976D01*
X82494523Y-121578738D01*
X82589761Y-121483500D01*
X82732619Y-121435880D01*
X82827857Y-121435880D01*
X82970714Y-121483500D01*
X83018333Y-121531119D01*
X83351666Y-121435880D02*
X83970714Y-121435880D01*
X83637380Y-121816833D01*
X83780238Y-121816833D01*
X83875476Y-121864452D01*
X83923095Y-121912071D01*
X83970714Y-122007309D01*
X83970714Y-122245404D01*
X83923095Y-122340642D01*
X83875476Y-122388261D01*
X83780238Y-122435880D01*
X83494523Y-122435880D01*
X83399285Y-122388261D01*
X83351666Y-122340642D01*
X98010833Y-122788380D02*
X97677500Y-122312190D01*
X97439404Y-122788380D02*
X97439404Y-121788380D01*
X97820357Y-121788380D01*
X97915595Y-121836000D01*
X97963214Y-121883619D01*
X98010833Y-121978857D01*
X98010833Y-122121714D01*
X97963214Y-122216952D01*
X97915595Y-122264571D01*
X97820357Y-122312190D01*
X97439404Y-122312190D01*
X98487023Y-122788380D02*
X98677500Y-122788380D01*
X98772738Y-122740761D01*
X98820357Y-122693142D01*
X98915595Y-122550285D01*
X98963214Y-122359809D01*
X98963214Y-121978857D01*
X98915595Y-121883619D01*
X98867976Y-121836000D01*
X98772738Y-121788380D01*
X98582261Y-121788380D01*
X98487023Y-121836000D01*
X98439404Y-121883619D01*
X98391785Y-121978857D01*
X98391785Y-122216952D01*
X98439404Y-122312190D01*
X98487023Y-122359809D01*
X98582261Y-122407428D01*
X98772738Y-122407428D01*
X98867976Y-122359809D01*
X98915595Y-122312190D01*
X98963214Y-122216952D01*
X73095333Y-109706380D02*
X72762000Y-109230190D01*
X72523904Y-109706380D02*
X72523904Y-108706380D01*
X72904857Y-108706380D01*
X73000095Y-108754000D01*
X73047714Y-108801619D01*
X73095333Y-108896857D01*
X73095333Y-109039714D01*
X73047714Y-109134952D01*
X73000095Y-109182571D01*
X72904857Y-109230190D01*
X72523904Y-109230190D01*
X73666761Y-109134952D02*
X73571523Y-109087333D01*
X73523904Y-109039714D01*
X73476285Y-108944476D01*
X73476285Y-108896857D01*
X73523904Y-108801619D01*
X73571523Y-108754000D01*
X73666761Y-108706380D01*
X73857238Y-108706380D01*
X73952476Y-108754000D01*
X74000095Y-108801619D01*
X74047714Y-108896857D01*
X74047714Y-108944476D01*
X74000095Y-109039714D01*
X73952476Y-109087333D01*
X73857238Y-109134952D01*
X73666761Y-109134952D01*
X73571523Y-109182571D01*
X73523904Y-109230190D01*
X73476285Y-109325428D01*
X73476285Y-109515904D01*
X73523904Y-109611142D01*
X73571523Y-109658761D01*
X73666761Y-109706380D01*
X73857238Y-109706380D01*
X73952476Y-109658761D01*
X74000095Y-109611142D01*
X74047714Y-109515904D01*
X74047714Y-109325428D01*
X74000095Y-109230190D01*
X73952476Y-109182571D01*
X73857238Y-109134952D01*
X73095333Y-112246380D02*
X72762000Y-111770190D01*
X72523904Y-112246380D02*
X72523904Y-111246380D01*
X72904857Y-111246380D01*
X73000095Y-111294000D01*
X73047714Y-111341619D01*
X73095333Y-111436857D01*
X73095333Y-111579714D01*
X73047714Y-111674952D01*
X73000095Y-111722571D01*
X72904857Y-111770190D01*
X72523904Y-111770190D01*
X73428666Y-111246380D02*
X74095333Y-111246380D01*
X73666761Y-112246380D01*
X64031333Y-150854380D02*
X63698000Y-150378190D01*
X63459904Y-150854380D02*
X63459904Y-149854380D01*
X63840857Y-149854380D01*
X63936095Y-149902000D01*
X63983714Y-149949619D01*
X64031333Y-150044857D01*
X64031333Y-150187714D01*
X63983714Y-150282952D01*
X63936095Y-150330571D01*
X63840857Y-150378190D01*
X63459904Y-150378190D01*
X64888476Y-149854380D02*
X64698000Y-149854380D01*
X64602761Y-149902000D01*
X64555142Y-149949619D01*
X64459904Y-150092476D01*
X64412285Y-150282952D01*
X64412285Y-150663904D01*
X64459904Y-150759142D01*
X64507523Y-150806761D01*
X64602761Y-150854380D01*
X64793238Y-150854380D01*
X64888476Y-150806761D01*
X64936095Y-150759142D01*
X64983714Y-150663904D01*
X64983714Y-150425809D01*
X64936095Y-150330571D01*
X64888476Y-150282952D01*
X64793238Y-150235333D01*
X64602761Y-150235333D01*
X64507523Y-150282952D01*
X64459904Y-150330571D01*
X64412285Y-150425809D01*
X58606333Y-118340142D02*
X58558714Y-118387761D01*
X58415857Y-118435380D01*
X58320619Y-118435380D01*
X58177761Y-118387761D01*
X58082523Y-118292523D01*
X58034904Y-118197285D01*
X57987285Y-118006809D01*
X57987285Y-117863952D01*
X58034904Y-117673476D01*
X58082523Y-117578238D01*
X58177761Y-117483000D01*
X58320619Y-117435380D01*
X58415857Y-117435380D01*
X58558714Y-117483000D01*
X58606333Y-117530619D01*
X58987285Y-117530619D02*
X59034904Y-117483000D01*
X59130142Y-117435380D01*
X59368238Y-117435380D01*
X59463476Y-117483000D01*
X59511095Y-117530619D01*
X59558714Y-117625857D01*
X59558714Y-117721095D01*
X59511095Y-117863952D01*
X58939666Y-118435380D01*
X59558714Y-118435380D01*
X62443142Y-121346166D02*
X62490761Y-121393785D01*
X62538380Y-121536642D01*
X62538380Y-121631880D01*
X62490761Y-121774738D01*
X62395523Y-121869976D01*
X62300285Y-121917595D01*
X62109809Y-121965214D01*
X61966952Y-121965214D01*
X61776476Y-121917595D01*
X61681238Y-121869976D01*
X61586000Y-121774738D01*
X61538380Y-121631880D01*
X61538380Y-121536642D01*
X61586000Y-121393785D01*
X61633619Y-121346166D01*
X62538380Y-120393785D02*
X62538380Y-120965214D01*
X62538380Y-120679500D02*
X61538380Y-120679500D01*
X61681238Y-120774738D01*
X61776476Y-120869976D01*
X61824095Y-120965214D01*
X82994595Y-113244380D02*
X82994595Y-114053904D01*
X83042214Y-114149142D01*
X83089833Y-114196761D01*
X83185071Y-114244380D01*
X83375547Y-114244380D01*
X83470785Y-114196761D01*
X83518404Y-114149142D01*
X83566023Y-114053904D01*
X83566023Y-113244380D01*
X84470785Y-113577714D02*
X84470785Y-114244380D01*
X84232690Y-113196761D02*
X83994595Y-113911047D01*
X84613642Y-113911047D01*
X72500095Y-114294380D02*
X72500095Y-115103904D01*
X72547714Y-115199142D01*
X72595333Y-115246761D01*
X72690571Y-115294380D01*
X72881047Y-115294380D01*
X72976285Y-115246761D01*
X73023904Y-115199142D01*
X73071523Y-115103904D01*
X73071523Y-114294380D01*
X73452476Y-114294380D02*
X74071523Y-114294380D01*
X73738190Y-114675333D01*
X73881047Y-114675333D01*
X73976285Y-114722952D01*
X74023904Y-114770571D01*
X74071523Y-114865809D01*
X74071523Y-115103904D01*
X74023904Y-115199142D01*
X73976285Y-115246761D01*
X73881047Y-115294380D01*
X73595333Y-115294380D01*
X73500095Y-115246761D01*
X73452476Y-115199142D01*
X70472380Y-135272761D02*
X69996190Y-135606095D01*
X70472380Y-135844190D02*
X69472380Y-135844190D01*
X69472380Y-135463238D01*
X69520000Y-135368000D01*
X69567619Y-135320380D01*
X69662857Y-135272761D01*
X69805714Y-135272761D01*
X69900952Y-135320380D01*
X69948571Y-135368000D01*
X69996190Y-135463238D01*
X69996190Y-135844190D01*
X70091428Y-134844190D02*
X70091428Y-134082285D01*
X69472380Y-133701333D02*
X69472380Y-133034666D01*
X70472380Y-133463238D01*
X69900952Y-132510857D02*
X69853333Y-132606095D01*
X69805714Y-132653714D01*
X69710476Y-132701333D01*
X69662857Y-132701333D01*
X69567619Y-132653714D01*
X69520000Y-132606095D01*
X69472380Y-132510857D01*
X69472380Y-132320380D01*
X69520000Y-132225142D01*
X69567619Y-132177523D01*
X69662857Y-132129904D01*
X69710476Y-132129904D01*
X69805714Y-132177523D01*
X69853333Y-132225142D01*
X69900952Y-132320380D01*
X69900952Y-132510857D01*
X69948571Y-132606095D01*
X69996190Y-132653714D01*
X70091428Y-132701333D01*
X70281904Y-132701333D01*
X70377142Y-132653714D01*
X70424761Y-132606095D01*
X70472380Y-132510857D01*
X70472380Y-132320380D01*
X70424761Y-132225142D01*
X70377142Y-132177523D01*
X70281904Y-132129904D01*
X70091428Y-132129904D01*
X69996190Y-132177523D01*
X69948571Y-132225142D01*
X69900952Y-132320380D01*
X69948571Y-131701333D02*
X69948571Y-131368000D01*
X70472380Y-131225142D02*
X70472380Y-131701333D01*
X69472380Y-131701333D01*
X69472380Y-131225142D01*
X69472380Y-130320380D02*
X69472380Y-130796571D01*
X69948571Y-130844190D01*
X69900952Y-130796571D01*
X69853333Y-130701333D01*
X69853333Y-130463238D01*
X69900952Y-130368000D01*
X69948571Y-130320380D01*
X70043809Y-130272761D01*
X70281904Y-130272761D01*
X70377142Y-130320380D01*
X70424761Y-130368000D01*
X70472380Y-130463238D01*
X70472380Y-130701333D01*
X70424761Y-130796571D01*
X70377142Y-130844190D01*
X70377142Y-129844190D02*
X70424761Y-129796571D01*
X70472380Y-129844190D01*
X70424761Y-129891809D01*
X70377142Y-129844190D01*
X70472380Y-129844190D01*
X69472380Y-129177523D02*
X69472380Y-129082285D01*
X69520000Y-128987047D01*
X69567619Y-128939428D01*
X69662857Y-128891809D01*
X69853333Y-128844190D01*
X70091428Y-128844190D01*
X70281904Y-128891809D01*
X70377142Y-128939428D01*
X70424761Y-128987047D01*
X70472380Y-129082285D01*
X70472380Y-129177523D01*
X70424761Y-129272761D01*
X70377142Y-129320380D01*
X70281904Y-129368000D01*
X70091428Y-129415619D01*
X69853333Y-129415619D01*
X69662857Y-129368000D01*
X69567619Y-129320380D01*
X69520000Y-129272761D01*
X69472380Y-129177523D01*
X88644642Y-129390380D02*
X88311309Y-128914190D01*
X88073214Y-129390380D02*
X88073214Y-128390380D01*
X88454166Y-128390380D01*
X88549404Y-128438000D01*
X88597023Y-128485619D01*
X88644642Y-128580857D01*
X88644642Y-128723714D01*
X88597023Y-128818952D01*
X88549404Y-128866571D01*
X88454166Y-128914190D01*
X88073214Y-128914190D01*
X89597023Y-129390380D02*
X89025595Y-129390380D01*
X89311309Y-129390380D02*
X89311309Y-128390380D01*
X89216071Y-128533238D01*
X89120833Y-128628476D01*
X89025595Y-128676095D01*
X89930357Y-128390380D02*
X90549404Y-128390380D01*
X90216071Y-128771333D01*
X90358928Y-128771333D01*
X90454166Y-128818952D01*
X90501785Y-128866571D01*
X90549404Y-128961809D01*
X90549404Y-129199904D01*
X90501785Y-129295142D01*
X90454166Y-129342761D01*
X90358928Y-129390380D01*
X90073214Y-129390380D01*
X89977976Y-129342761D01*
X89930357Y-129295142D01*
X112751142Y-143742380D02*
X112417809Y-143266190D01*
X112179714Y-143742380D02*
X112179714Y-142742380D01*
X112560666Y-142742380D01*
X112655904Y-142790000D01*
X112703523Y-142837619D01*
X112751142Y-142932857D01*
X112751142Y-143075714D01*
X112703523Y-143170952D01*
X112655904Y-143218571D01*
X112560666Y-143266190D01*
X112179714Y-143266190D01*
X113703523Y-143742380D02*
X113132095Y-143742380D01*
X113417809Y-143742380D02*
X113417809Y-142742380D01*
X113322571Y-142885238D01*
X113227333Y-142980476D01*
X113132095Y-143028095D01*
X114084476Y-142837619D02*
X114132095Y-142790000D01*
X114227333Y-142742380D01*
X114465428Y-142742380D01*
X114560666Y-142790000D01*
X114608285Y-142837619D01*
X114655904Y-142932857D01*
X114655904Y-143028095D01*
X114608285Y-143170952D01*
X114036857Y-143742380D01*
X114655904Y-143742380D01*
X97534642Y-129390380D02*
X97201309Y-128914190D01*
X96963214Y-129390380D02*
X96963214Y-128390380D01*
X97344166Y-128390380D01*
X97439404Y-128438000D01*
X97487023Y-128485619D01*
X97534642Y-128580857D01*
X97534642Y-128723714D01*
X97487023Y-128818952D01*
X97439404Y-128866571D01*
X97344166Y-128914190D01*
X96963214Y-128914190D01*
X98487023Y-129390380D02*
X97915595Y-129390380D01*
X98201309Y-129390380D02*
X98201309Y-128390380D01*
X98106071Y-128533238D01*
X98010833Y-128628476D01*
X97915595Y-128676095D01*
X99439404Y-129390380D02*
X98867976Y-129390380D01*
X99153690Y-129390380D02*
X99153690Y-128390380D01*
X99058452Y-128533238D01*
X98963214Y-128628476D01*
X98867976Y-128676095D01*
X93359761Y-128303619D02*
X93264523Y-128256000D01*
X93169285Y-128160761D01*
X93026428Y-128017904D01*
X92931190Y-127970285D01*
X92835952Y-127970285D01*
X92883571Y-128208380D02*
X92788333Y-128160761D01*
X92693095Y-128065523D01*
X92645476Y-127875047D01*
X92645476Y-127541714D01*
X92693095Y-127351238D01*
X92788333Y-127256000D01*
X92883571Y-127208380D01*
X93074047Y-127208380D01*
X93169285Y-127256000D01*
X93264523Y-127351238D01*
X93312142Y-127541714D01*
X93312142Y-127875047D01*
X93264523Y-128065523D01*
X93169285Y-128160761D01*
X93074047Y-128208380D01*
X92883571Y-128208380D01*
X94169285Y-127541714D02*
X94169285Y-128208380D01*
X93931190Y-127160761D02*
X93693095Y-127875047D01*
X94312142Y-127875047D01*
X103154761Y-123303619D02*
X103059523Y-123256000D01*
X102964285Y-123160761D01*
X102821428Y-123017904D01*
X102726190Y-122970285D01*
X102630952Y-122970285D01*
X102678571Y-123208380D02*
X102583333Y-123160761D01*
X102488095Y-123065523D01*
X102440476Y-122875047D01*
X102440476Y-122541714D01*
X102488095Y-122351238D01*
X102583333Y-122256000D01*
X102678571Y-122208380D01*
X102869047Y-122208380D01*
X102964285Y-122256000D01*
X103059523Y-122351238D01*
X103107142Y-122541714D01*
X103107142Y-122875047D01*
X103059523Y-123065523D01*
X102964285Y-123160761D01*
X102869047Y-123208380D01*
X102678571Y-123208380D01*
X103440476Y-122208380D02*
X104059523Y-122208380D01*
X103726190Y-122589333D01*
X103869047Y-122589333D01*
X103964285Y-122636952D01*
X104011904Y-122684571D01*
X104059523Y-122779809D01*
X104059523Y-123017904D01*
X104011904Y-123113142D01*
X103964285Y-123160761D01*
X103869047Y-123208380D01*
X103583333Y-123208380D01*
X103488095Y-123160761D01*
X103440476Y-123113142D01*
D14*
X56327523Y-149076833D02*
X57234666Y-149076833D01*
X57416095Y-149137309D01*
X57537047Y-149258261D01*
X57597523Y-149439690D01*
X57597523Y-149560642D01*
X56448476Y-148532547D02*
X56388000Y-148472071D01*
X56327523Y-148351119D01*
X56327523Y-148048738D01*
X56388000Y-147927785D01*
X56448476Y-147867309D01*
X56569428Y-147806833D01*
X56690380Y-147806833D01*
X56871809Y-147867309D01*
X57597523Y-148593023D01*
X57597523Y-147806833D01*
D10*
X112719333Y-147711142D02*
X112671714Y-147758761D01*
X112528857Y-147806380D01*
X112433619Y-147806380D01*
X112290761Y-147758761D01*
X112195523Y-147663523D01*
X112147904Y-147568285D01*
X112100285Y-147377809D01*
X112100285Y-147234952D01*
X112147904Y-147044476D01*
X112195523Y-146949238D01*
X112290761Y-146854000D01*
X112433619Y-146806380D01*
X112528857Y-146806380D01*
X112671714Y-146854000D01*
X112719333Y-146901619D01*
X113052666Y-146806380D02*
X113719333Y-146806380D01*
X113290761Y-147806380D01*
X107006714Y-129727285D02*
X106606714Y-129727285D01*
X106606714Y-130355857D02*
X106606714Y-129155857D01*
X107178142Y-129155857D01*
X108149571Y-130355857D02*
X108149571Y-129727285D01*
X108092428Y-129613000D01*
X107978142Y-129555857D01*
X107749571Y-129555857D01*
X107635285Y-129613000D01*
X108149571Y-130298714D02*
X108035285Y-130355857D01*
X107749571Y-130355857D01*
X107635285Y-130298714D01*
X107578142Y-130184428D01*
X107578142Y-130070142D01*
X107635285Y-129955857D01*
X107749571Y-129898714D01*
X108035285Y-129898714D01*
X108149571Y-129841571D01*
X108721000Y-130355857D02*
X108721000Y-129555857D01*
X108721000Y-129155857D02*
X108663857Y-129213000D01*
X108721000Y-129270142D01*
X108778142Y-129213000D01*
X108721000Y-129155857D01*
X108721000Y-129270142D01*
X109463857Y-130355857D02*
X109349571Y-130298714D01*
X109292428Y-130184428D01*
X109292428Y-129155857D01*
X110778142Y-130298714D02*
X110892428Y-130355857D01*
X111121000Y-130355857D01*
X111235285Y-130298714D01*
X111292428Y-130184428D01*
X111292428Y-130127285D01*
X111235285Y-130013000D01*
X111121000Y-129955857D01*
X110949571Y-129955857D01*
X110835285Y-129898714D01*
X110778142Y-129784428D01*
X110778142Y-129727285D01*
X110835285Y-129613000D01*
X110949571Y-129555857D01*
X111121000Y-129555857D01*
X111235285Y-129613000D01*
X112321000Y-130355857D02*
X112321000Y-129727285D01*
X112263857Y-129613000D01*
X112149571Y-129555857D01*
X111921000Y-129555857D01*
X111806714Y-129613000D01*
X112321000Y-130298714D02*
X112206714Y-130355857D01*
X111921000Y-130355857D01*
X111806714Y-130298714D01*
X111749571Y-130184428D01*
X111749571Y-130070142D01*
X111806714Y-129955857D01*
X111921000Y-129898714D01*
X112206714Y-129898714D01*
X112321000Y-129841571D01*
X112721000Y-129555857D02*
X113178142Y-129555857D01*
X112892428Y-130355857D02*
X112892428Y-129327285D01*
X112949571Y-129213000D01*
X113063857Y-129155857D01*
X113178142Y-129155857D01*
X114035285Y-130298714D02*
X113921000Y-130355857D01*
X113692428Y-130355857D01*
X113578142Y-130298714D01*
X113521000Y-130184428D01*
X113521000Y-129727285D01*
X113578142Y-129613000D01*
X113692428Y-129555857D01*
X113921000Y-129555857D01*
X114035285Y-129613000D01*
X114092428Y-129727285D01*
X114092428Y-129841571D01*
X113521000Y-129955857D01*
X82699642Y-138884666D02*
X82747261Y-138932285D01*
X82794880Y-139075142D01*
X82794880Y-139170380D01*
X82747261Y-139313238D01*
X82652023Y-139408476D01*
X82556785Y-139456095D01*
X82366309Y-139503714D01*
X82223452Y-139503714D01*
X82032976Y-139456095D01*
X81937738Y-139408476D01*
X81842500Y-139313238D01*
X81794880Y-139170380D01*
X81794880Y-139075142D01*
X81842500Y-138932285D01*
X81890119Y-138884666D01*
X81794880Y-138027523D02*
X81794880Y-138218000D01*
X81842500Y-138313238D01*
X81890119Y-138360857D01*
X82032976Y-138456095D01*
X82223452Y-138503714D01*
X82604404Y-138503714D01*
X82699642Y-138456095D01*
X82747261Y-138408476D01*
X82794880Y-138313238D01*
X82794880Y-138122761D01*
X82747261Y-138027523D01*
X82699642Y-137979904D01*
X82604404Y-137932285D01*
X82366309Y-137932285D01*
X82271071Y-137979904D01*
X82223452Y-138027523D01*
X82175833Y-138122761D01*
X82175833Y-138313238D01*
X82223452Y-138408476D01*
X82271071Y-138456095D01*
X82366309Y-138503714D01*
X113480142Y-125816166D02*
X113527761Y-125863785D01*
X113575380Y-126006642D01*
X113575380Y-126101880D01*
X113527761Y-126244738D01*
X113432523Y-126339976D01*
X113337285Y-126387595D01*
X113146809Y-126435214D01*
X113003952Y-126435214D01*
X112813476Y-126387595D01*
X112718238Y-126339976D01*
X112623000Y-126244738D01*
X112575380Y-126101880D01*
X112575380Y-126006642D01*
X112623000Y-125863785D01*
X112670619Y-125816166D01*
X112908714Y-124959023D02*
X113575380Y-124959023D01*
X112527761Y-125197119D02*
X113242047Y-125435214D01*
X113242047Y-124816166D01*
X73690666Y-147822380D02*
X73690666Y-148536666D01*
X73643047Y-148679523D01*
X73547809Y-148774761D01*
X73404952Y-148822380D01*
X73309714Y-148822380D01*
X74643047Y-147822380D02*
X74166857Y-147822380D01*
X74119238Y-148298571D01*
X74166857Y-148250952D01*
X74262095Y-148203333D01*
X74500190Y-148203333D01*
X74595428Y-148250952D01*
X74643047Y-148298571D01*
X74690666Y-148393809D01*
X74690666Y-148631904D01*
X74643047Y-148727142D01*
X74595428Y-148774761D01*
X74500190Y-148822380D01*
X74262095Y-148822380D01*
X74166857Y-148774761D01*
X74119238Y-148727142D01*
X85383619Y-139573095D02*
X84574095Y-139573095D01*
X84478857Y-139620714D01*
X84431238Y-139668333D01*
X84383619Y-139763571D01*
X84383619Y-139954047D01*
X84431238Y-140049285D01*
X84478857Y-140096904D01*
X84574095Y-140144523D01*
X85383619Y-140144523D01*
X84383619Y-141144523D02*
X84383619Y-140573095D01*
X84383619Y-140858809D02*
X85383619Y-140858809D01*
X85240761Y-140763571D01*
X85145523Y-140668333D01*
X85097904Y-140573095D01*
X112751142Y-140186380D02*
X112417809Y-139710190D01*
X112179714Y-140186380D02*
X112179714Y-139186380D01*
X112560666Y-139186380D01*
X112655904Y-139234000D01*
X112703523Y-139281619D01*
X112751142Y-139376857D01*
X112751142Y-139519714D01*
X112703523Y-139614952D01*
X112655904Y-139662571D01*
X112560666Y-139710190D01*
X112179714Y-139710190D01*
X113703523Y-140186380D02*
X113132095Y-140186380D01*
X113417809Y-140186380D02*
X113417809Y-139186380D01*
X113322571Y-139329238D01*
X113227333Y-139424476D01*
X113132095Y-139472095D01*
X114322571Y-139186380D02*
X114417809Y-139186380D01*
X114513047Y-139234000D01*
X114560666Y-139281619D01*
X114608285Y-139376857D01*
X114655904Y-139567333D01*
X114655904Y-139805428D01*
X114608285Y-139995904D01*
X114560666Y-140091142D01*
X114513047Y-140138761D01*
X114417809Y-140186380D01*
X114322571Y-140186380D01*
X114227333Y-140138761D01*
X114179714Y-140091142D01*
X114132095Y-139995904D01*
X114084476Y-139805428D01*
X114084476Y-139567333D01*
X114132095Y-139376857D01*
X114179714Y-139281619D01*
X114227333Y-139234000D01*
X114322571Y-139186380D01*
X62276595Y-109658880D02*
X62848023Y-109658880D01*
X62562309Y-110658880D02*
X62562309Y-109658880D01*
X63086119Y-109658880D02*
X63752785Y-110658880D01*
X63752785Y-109658880D02*
X63086119Y-110658880D01*
X82699642Y-128089666D02*
X82747261Y-128137285D01*
X82794880Y-128280142D01*
X82794880Y-128375380D01*
X82747261Y-128518238D01*
X82652023Y-128613476D01*
X82556785Y-128661095D01*
X82366309Y-128708714D01*
X82223452Y-128708714D01*
X82032976Y-128661095D01*
X81937738Y-128613476D01*
X81842500Y-128518238D01*
X81794880Y-128375380D01*
X81794880Y-128280142D01*
X81842500Y-128137285D01*
X81890119Y-128089666D01*
X81794880Y-127184904D02*
X81794880Y-127661095D01*
X82271071Y-127708714D01*
X82223452Y-127661095D01*
X82175833Y-127565857D01*
X82175833Y-127327761D01*
X82223452Y-127232523D01*
X82271071Y-127184904D01*
X82366309Y-127137285D01*
X82604404Y-127137285D01*
X82699642Y-127184904D01*
X82747261Y-127232523D01*
X82794880Y-127327761D01*
X82794880Y-127565857D01*
X82747261Y-127661095D01*
X82699642Y-127708714D01*
X62871833Y-109164380D02*
X62538500Y-108688190D01*
X62300404Y-109164380D02*
X62300404Y-108164380D01*
X62681357Y-108164380D01*
X62776595Y-108212000D01*
X62824214Y-108259619D01*
X62871833Y-108354857D01*
X62871833Y-108497714D01*
X62824214Y-108592952D01*
X62776595Y-108640571D01*
X62681357Y-108688190D01*
X62300404Y-108688190D01*
X63205166Y-108164380D02*
X63871833Y-109164380D01*
X63871833Y-108164380D02*
X63205166Y-109164380D01*
X64283833Y-127422880D02*
X63950500Y-126946690D01*
X63712404Y-127422880D02*
X63712404Y-126422880D01*
X64093357Y-126422880D01*
X64188595Y-126470500D01*
X64236214Y-126518119D01*
X64283833Y-126613357D01*
X64283833Y-126756214D01*
X64236214Y-126851452D01*
X64188595Y-126899071D01*
X64093357Y-126946690D01*
X63712404Y-126946690D01*
X65188595Y-126422880D02*
X64712404Y-126422880D01*
X64664785Y-126899071D01*
X64712404Y-126851452D01*
X64807642Y-126803833D01*
X65045738Y-126803833D01*
X65140976Y-126851452D01*
X65188595Y-126899071D01*
X65236214Y-126994309D01*
X65236214Y-127232404D01*
X65188595Y-127327642D01*
X65140976Y-127375261D01*
X65045738Y-127422880D01*
X64807642Y-127422880D01*
X64712404Y-127375261D01*
X64664785Y-127327642D01*
X71507833Y-140427880D02*
X71174500Y-139951690D01*
X70936404Y-140427880D02*
X70936404Y-139427880D01*
X71317357Y-139427880D01*
X71412595Y-139475500D01*
X71460214Y-139523119D01*
X71507833Y-139618357D01*
X71507833Y-139761214D01*
X71460214Y-139856452D01*
X71412595Y-139904071D01*
X71317357Y-139951690D01*
X70936404Y-139951690D01*
X72364976Y-139761214D02*
X72364976Y-140427880D01*
X72126880Y-139380261D02*
X71888785Y-140094547D01*
X72507833Y-140094547D01*
X71560333Y-144556380D02*
X71227000Y-144080190D01*
X70988904Y-144556380D02*
X70988904Y-143556380D01*
X71369857Y-143556380D01*
X71465095Y-143604000D01*
X71512714Y-143651619D01*
X71560333Y-143746857D01*
X71560333Y-143889714D01*
X71512714Y-143984952D01*
X71465095Y-144032571D01*
X71369857Y-144080190D01*
X70988904Y-144080190D01*
X71893666Y-143556380D02*
X72512714Y-143556380D01*
X72179380Y-143937333D01*
X72322238Y-143937333D01*
X72417476Y-143984952D01*
X72465095Y-144032571D01*
X72512714Y-144127809D01*
X72512714Y-144365904D01*
X72465095Y-144461142D01*
X72417476Y-144508761D01*
X72322238Y-144556380D01*
X72036523Y-144556380D01*
X71941285Y-144508761D01*
X71893666Y-144461142D01*
X82011433Y-143805880D02*
X81678100Y-143329690D01*
X81440004Y-143805880D02*
X81440004Y-142805880D01*
X81820957Y-142805880D01*
X81916195Y-142853500D01*
X81963814Y-142901119D01*
X82011433Y-142996357D01*
X82011433Y-143139214D01*
X81963814Y-143234452D01*
X81916195Y-143282071D01*
X81820957Y-143329690D01*
X81440004Y-143329690D01*
X82392385Y-142901119D02*
X82440004Y-142853500D01*
X82535242Y-142805880D01*
X82773338Y-142805880D01*
X82868576Y-142853500D01*
X82916195Y-142901119D01*
X82963814Y-142996357D01*
X82963814Y-143091595D01*
X82916195Y-143234452D01*
X82344766Y-143805880D01*
X82963814Y-143805880D01*
X81985333Y-147933380D02*
X81652000Y-147457190D01*
X81413904Y-147933380D02*
X81413904Y-146933380D01*
X81794857Y-146933380D01*
X81890095Y-146981000D01*
X81937714Y-147028619D01*
X81985333Y-147123857D01*
X81985333Y-147266714D01*
X81937714Y-147361952D01*
X81890095Y-147409571D01*
X81794857Y-147457190D01*
X81413904Y-147457190D01*
X82937714Y-147933380D02*
X82366285Y-147933380D01*
X82652000Y-147933380D02*
X82652000Y-146933380D01*
X82556761Y-147076238D01*
X82461523Y-147171476D01*
X82366285Y-147219095D01*
X76976761Y-148629619D02*
X76881523Y-148582000D01*
X76786285Y-148486761D01*
X76643428Y-148343904D01*
X76548190Y-148296285D01*
X76452952Y-148296285D01*
X76500571Y-148534380D02*
X76405333Y-148486761D01*
X76310095Y-148391523D01*
X76262476Y-148201047D01*
X76262476Y-147867714D01*
X76310095Y-147677238D01*
X76405333Y-147582000D01*
X76500571Y-147534380D01*
X76691047Y-147534380D01*
X76786285Y-147582000D01*
X76881523Y-147677238D01*
X76929142Y-147867714D01*
X76929142Y-148201047D01*
X76881523Y-148391523D01*
X76786285Y-148486761D01*
X76691047Y-148534380D01*
X76500571Y-148534380D01*
X77310095Y-147629619D02*
X77357714Y-147582000D01*
X77452952Y-147534380D01*
X77691047Y-147534380D01*
X77786285Y-147582000D01*
X77833904Y-147629619D01*
X77881523Y-147724857D01*
X77881523Y-147820095D01*
X77833904Y-147962952D01*
X77262476Y-148534380D01*
X77881523Y-148534380D01*
X76976761Y-139803119D02*
X76881523Y-139755500D01*
X76786285Y-139660261D01*
X76643428Y-139517404D01*
X76548190Y-139469785D01*
X76452952Y-139469785D01*
X76500571Y-139707880D02*
X76405333Y-139660261D01*
X76310095Y-139565023D01*
X76262476Y-139374547D01*
X76262476Y-139041214D01*
X76310095Y-138850738D01*
X76405333Y-138755500D01*
X76500571Y-138707880D01*
X76691047Y-138707880D01*
X76786285Y-138755500D01*
X76881523Y-138850738D01*
X76929142Y-139041214D01*
X76929142Y-139374547D01*
X76881523Y-139565023D01*
X76786285Y-139660261D01*
X76691047Y-139707880D01*
X76500571Y-139707880D01*
X77881523Y-139707880D02*
X77310095Y-139707880D01*
X77595809Y-139707880D02*
X77595809Y-138707880D01*
X77500571Y-138850738D01*
X77405333Y-138945976D01*
X77310095Y-138993595D01*
M02*
