G04 #@! TF.GenerationSoftware,KiCad,Pcbnew,(5.1.9-0-10_14)*
G04 #@! TF.CreationDate,2021-06-28T14:28:25+02:00*
G04 #@! TF.ProjectId,ithowifi_4l,6974686f-7769-4666-995f-346c2e6b6963,rev?*
G04 #@! TF.SameCoordinates,Original*
G04 #@! TF.FileFunction,Soldermask,Bot*
G04 #@! TF.FilePolarity,Negative*
%FSLAX46Y46*%
G04 Gerber Fmt 4.6, Leading zero omitted, Abs format (unit mm)*
G04 Created by KiCad (PCBNEW (5.1.9-0-10_14)) date 2021-06-28 14:28:25*
%MOMM*%
%LPD*%
G01*
G04 APERTURE LIST*
%ADD10C,1.500000*%
%ADD11O,1.700000X1.700000*%
%ADD12R,1.700000X1.700000*%
%ADD13O,1.900000X1.050000*%
%ADD14C,2.500000*%
%ADD15O,2.300000X1.500000*%
%ADD16R,2.300000X1.500000*%
%ADD17C,1.446000*%
%ADD18C,2.700000*%
%ADD19O,1.300000X1.750000*%
%ADD20R,1.500000X5.080000*%
G04 APERTURE END LIST*
D10*
X94869000Y-111125000D03*
D11*
X60198000Y-112395000D03*
X62738000Y-112395000D03*
X60198000Y-114935000D03*
D12*
X62738000Y-114935000D03*
D13*
X54155000Y-124743000D03*
X54155000Y-117593000D03*
D14*
X55482000Y-153704000D03*
X113013000Y-153704000D03*
X113013000Y-109508000D03*
X55482000Y-109381000D03*
D15*
X77580000Y-129828000D03*
X77580000Y-132368000D03*
D16*
X77580000Y-134908000D03*
D17*
X59372500Y-142176500D03*
X61152500Y-141156500D03*
X59372500Y-140136500D03*
X61152500Y-139116500D03*
X59372500Y-138096500D03*
X61152500Y-137076500D03*
X59372500Y-136056500D03*
X61152500Y-135036500D03*
X65962500Y-145466500D03*
X65962500Y-143176500D03*
X65962500Y-134036500D03*
X65962500Y-131746500D03*
D18*
X60392500Y-130476500D03*
X60392500Y-146736500D03*
D19*
X96872000Y-113739000D03*
X94872000Y-113739000D03*
X92872000Y-113739000D03*
X88872000Y-132739000D03*
X90872000Y-132739000D03*
X92872000Y-132739000D03*
X94872000Y-132739000D03*
X96872000Y-132739000D03*
X98872000Y-132739000D03*
X100872000Y-132739000D03*
X102872000Y-132739000D03*
D11*
X74532000Y-150910000D03*
X77072000Y-150910000D03*
X74532000Y-153450000D03*
D12*
X77072000Y-153450000D03*
D20*
X90631400Y-109548400D03*
X99131400Y-109548400D03*
X94881400Y-109548400D03*
M02*
