%FSLAX45Y45*%
G04 Gerber Fmt 4.5, Leading zero omitted, Abs format (unit mm)*
G04 Created by KiCad (PCBNEW (6.0.1-0)) date 2022-06-28 13:25:57*
%MOMM*%
%LPD*%
G01*
G04 APERTURE LIST*
%TA.AperFunction,Profile*%
%ADD10C,0.100000*%
%TD*%
%ADD11C,0.200000*%
%ADD12C,0.040000*%
%ADD13C,0.100000*%
G04 APERTURE END LIST*
D10*
X8303200Y-15596800D02*
G75*
G03*
X8353200Y-15646800I50000J0D01*
G01*
X12533200Y-10696800D02*
G75*
G03*
X12333200Y-10496800I-200000J0D01*
G01*
X12333200Y-10496800D02*
X8503200Y-10496800D01*
X12483200Y-14996800D02*
G75*
G03*
X12533200Y-14946800I0J50000D01*
G01*
X8683200Y-15646800D02*
X8353200Y-15646800D01*
X11533200Y-15646800D02*
X10513200Y-15646800D01*
X10463200Y-15596800D02*
G75*
G03*
X10513200Y-15646800I50000J0D01*
G01*
X11533200Y-15646800D02*
G75*
G03*
X11583200Y-15596800I0J50000D01*
G01*
X11583200Y-15596800D02*
X11583200Y-15046800D01*
X10463200Y-14996800D02*
X8733200Y-14996800D01*
X11633200Y-14996800D02*
G75*
G03*
X11583200Y-15046800I0J-50000D01*
G01*
X8733200Y-14996800D02*
X8733200Y-15596800D01*
X10463200Y-15596800D02*
X10463200Y-14996800D01*
X8683200Y-15646800D02*
G75*
G03*
X8733200Y-15596800I0J50000D01*
G01*
X8303200Y-15596800D02*
X8303200Y-10696800D01*
X8503200Y-10496800D02*
G75*
G03*
X8303200Y-10696800I0J-200000D01*
G01*
X12533200Y-10696800D02*
X12533200Y-14946800D01*
X12483200Y-14996800D02*
X11633200Y-14996800D01*
D11*
D12*
X8433121Y-14460539D02*
X8473121Y-14500539D01*
X8473121Y-14460539D02*
X8433121Y-14500539D01*
X8483920Y-14336080D02*
X8523920Y-14376080D01*
X8523920Y-14336080D02*
X8483920Y-14376080D01*
X8654100Y-12807000D02*
X8694100Y-12847000D01*
X8694100Y-12807000D02*
X8654100Y-12847000D01*
X8895400Y-13823000D02*
X8935400Y-13863000D01*
X8935400Y-13823000D02*
X8895400Y-13863000D01*
X8895400Y-14839000D02*
X8935400Y-14879000D01*
X8935400Y-14839000D02*
X8895400Y-14879000D01*
X8908100Y-13315000D02*
X8948100Y-13355000D01*
X8948100Y-13315000D02*
X8908100Y-13355000D01*
X8910940Y-14714540D02*
X8950940Y-14754540D01*
X8950940Y-14714540D02*
X8910940Y-14754540D01*
X8920800Y-11547160D02*
X8960800Y-11587160D01*
X8960800Y-11547160D02*
X8920800Y-11587160D01*
X8946200Y-13619800D02*
X8986200Y-13659800D01*
X8986200Y-13619800D02*
X8946200Y-13659800D01*
X9132460Y-12909460D02*
X9172460Y-12949460D01*
X9172460Y-12909460D02*
X9132460Y-12949460D01*
X9352600Y-12311700D02*
X9392600Y-12351700D01*
X9392600Y-12311700D02*
X9352600Y-12351700D01*
X9494840Y-13955080D02*
X9534840Y-13995080D01*
X9534840Y-13955080D02*
X9494840Y-13995080D01*
X9494840Y-14107480D02*
X9534840Y-14147480D01*
X9534840Y-14107480D02*
X9494840Y-14147480D01*
X9494840Y-14259880D02*
X9534840Y-14299880D01*
X9534840Y-14259880D02*
X9494840Y-14299880D01*
X9530400Y-13346800D02*
X9570400Y-13386800D01*
X9570400Y-13346800D02*
X9530400Y-13386800D01*
X9644700Y-13955080D02*
X9684700Y-13995080D01*
X9684700Y-13955080D02*
X9644700Y-13995080D01*
X9644700Y-14107480D02*
X9684700Y-14147480D01*
X9684700Y-14107480D02*
X9644700Y-14147480D01*
X9644700Y-14259880D02*
X9684700Y-14299880D01*
X9684700Y-14259880D02*
X9644700Y-14299880D01*
X9797100Y-13955080D02*
X9837100Y-13995080D01*
X9837100Y-13955080D02*
X9797100Y-13995080D01*
X9797100Y-14107480D02*
X9837100Y-14147480D01*
X9837100Y-14107480D02*
X9797100Y-14147480D01*
X9797100Y-14259880D02*
X9837100Y-14299880D01*
X9837100Y-14259880D02*
X9797100Y-14299880D01*
X9835200Y-12311700D02*
X9875200Y-12351700D01*
X9875200Y-12311700D02*
X9835200Y-12351700D01*
X9898700Y-10571800D02*
X9938700Y-10611800D01*
X9938700Y-10571800D02*
X9898700Y-10611800D01*
X9898700Y-10724200D02*
X9938700Y-10764200D01*
X9938700Y-10724200D02*
X9898700Y-10764200D01*
X9898700Y-10889300D02*
X9938700Y-10929300D01*
X9938700Y-10889300D02*
X9898700Y-10929300D01*
X9898700Y-11067100D02*
X9938700Y-11107100D01*
X9938700Y-11067100D02*
X9898700Y-11107100D01*
X9898700Y-11232200D02*
X9938700Y-11272200D01*
X9938700Y-11232200D02*
X9898700Y-11272200D01*
X9898700Y-11397300D02*
X9938700Y-11437300D01*
X9938700Y-11397300D02*
X9898700Y-11437300D01*
X10076500Y-11397300D02*
X10116500Y-11437300D01*
X10116500Y-11397300D02*
X10076500Y-11437300D01*
X10089200Y-11181400D02*
X10129200Y-11221400D01*
X10129200Y-11181400D02*
X10089200Y-11221400D01*
X10152700Y-13251500D02*
X10192700Y-13291500D01*
X10192700Y-13251500D02*
X10152700Y-13291500D01*
X10223200Y-13836800D02*
X10263200Y-13876800D01*
X10263200Y-13836800D02*
X10223200Y-13876800D01*
X10228900Y-11397300D02*
X10268900Y-11437300D01*
X10268900Y-11397300D02*
X10228900Y-11437300D01*
X10317801Y-12172000D02*
X10357801Y-12212000D01*
X10357801Y-12172000D02*
X10317801Y-12212000D01*
X10394000Y-11397300D02*
X10434000Y-11437300D01*
X10434000Y-11397300D02*
X10394000Y-11437300D01*
X10470200Y-12629200D02*
X10510200Y-12669200D01*
X10510200Y-12629200D02*
X10470200Y-12669200D01*
X10571800Y-11397300D02*
X10611800Y-11437300D01*
X10611800Y-11397300D02*
X10571800Y-11437300D01*
X10597200Y-14712000D02*
X10637200Y-14752000D01*
X10637200Y-14712000D02*
X10597200Y-14752000D01*
X10597200Y-14839000D02*
X10637200Y-14879000D01*
X10637200Y-14839000D02*
X10597200Y-14879000D01*
X10664940Y-13698540D02*
X10704940Y-13738540D01*
X10704940Y-13698540D02*
X10664940Y-13738540D01*
X10736900Y-11397300D02*
X10776900Y-11437300D01*
X10776900Y-11397300D02*
X10736900Y-11437300D01*
X10797460Y-13952540D02*
X10837460Y-13992540D01*
X10837460Y-13952540D02*
X10797460Y-13992540D01*
X10843150Y-14855100D02*
X10883150Y-14895100D01*
X10883150Y-14855100D02*
X10843150Y-14895100D01*
X10893200Y-12746801D02*
X10933200Y-12786801D01*
X10933200Y-12746801D02*
X10893200Y-12786801D01*
X10902000Y-11181400D02*
X10942000Y-11221400D01*
X10942000Y-11181400D02*
X10902000Y-11221400D01*
X10902000Y-11397300D02*
X10942000Y-11437300D01*
X10942000Y-11397300D02*
X10902000Y-11437300D01*
X11033200Y-12396800D02*
X11073200Y-12436800D01*
X11073200Y-12396800D02*
X11033200Y-12436800D01*
X11033200Y-13406800D02*
X11073200Y-13446800D01*
X11073200Y-13406800D02*
X11033200Y-13446800D01*
X11092500Y-10571800D02*
X11132500Y-10611800D01*
X11132500Y-10571800D02*
X11092500Y-10611800D01*
X11092500Y-10724200D02*
X11132500Y-10764200D01*
X11132500Y-10724200D02*
X11092500Y-10764200D01*
X11092500Y-10889300D02*
X11132500Y-10929300D01*
X11132500Y-10889300D02*
X11092500Y-10929300D01*
X11092500Y-11067100D02*
X11132500Y-11107100D01*
X11132500Y-11067100D02*
X11092500Y-11107100D01*
X11092500Y-11232200D02*
X11132500Y-11272200D01*
X11132500Y-11232200D02*
X11092500Y-11272200D01*
X11092500Y-11397300D02*
X11132500Y-11437300D01*
X11132500Y-11397300D02*
X11092500Y-11437300D01*
X11143200Y-12396800D02*
X11183200Y-12436800D01*
X11183200Y-12396800D02*
X11143200Y-12436800D01*
X11143200Y-13406800D02*
X11183200Y-13446800D01*
X11183200Y-13406800D02*
X11143200Y-13446800D01*
X11183200Y-13916800D02*
X11223200Y-13956800D01*
X11223200Y-13916800D02*
X11183200Y-13956800D01*
X11219500Y-11867200D02*
X11259500Y-11907200D01*
X11259500Y-11867200D02*
X11219500Y-11907200D01*
X11253200Y-12396800D02*
X11293200Y-12436800D01*
X11293200Y-12396800D02*
X11253200Y-12436800D01*
X11253200Y-13406800D02*
X11293200Y-13446800D01*
X11293200Y-13406800D02*
X11253200Y-13446800D01*
X11293200Y-13236800D02*
X11333200Y-13276800D01*
X11333200Y-13236800D02*
X11293200Y-13276800D01*
X11503200Y-12133900D02*
X11543200Y-12173900D01*
X11543200Y-12133900D02*
X11503200Y-12173900D01*
X11649700Y-12033900D02*
X11689700Y-12073900D01*
X11689700Y-12033900D02*
X11649700Y-12073900D01*
X11841800Y-12749850D02*
X11881800Y-12789850D01*
X11881800Y-12749850D02*
X11841800Y-12789850D01*
X12033200Y-12026800D02*
X12073200Y-12066800D01*
X12073200Y-12026800D02*
X12033200Y-12066800D01*
X12061309Y-11648690D02*
X12101309Y-11688690D01*
X12101309Y-11648690D02*
X12061309Y-11688690D01*
X12248200Y-11956100D02*
X12288200Y-11996100D01*
X12288200Y-11956100D02*
X12248200Y-11996100D01*
X12248200Y-12749850D02*
X12288200Y-12789850D01*
X12288200Y-12749850D02*
X12248200Y-12789850D01*
D13*
X8622500Y-10779760D02*
G75*
G03*
X8622500Y-10779760I-50000J0D01*
G01*
X8622500Y-11033760D02*
G75*
G03*
X8622500Y-11033760I-50000J0D01*
G01*
X8622500Y-11287760D02*
G75*
G03*
X8622500Y-11287760I-50000J0D01*
G01*
X8622500Y-11541760D02*
G75*
G03*
X8622500Y-11541760I-50000J0D01*
G01*
X8622500Y-11795760D02*
G75*
G03*
X8622500Y-11795760I-50000J0D01*
G01*
X8622500Y-12049760D02*
G75*
G03*
X8622500Y-12049760I-50000J0D01*
G01*
X8622500Y-12303760D02*
G75*
G03*
X8622500Y-12303760I-50000J0D01*
G01*
X10568218Y-10925146D02*
G75*
G03*
X10568218Y-10925146I-50000J0D01*
G01*
X11179200Y-15192800D02*
G75*
G03*
X11179200Y-15192800I-50000J0D01*
G01*
X11179200Y-15446800D02*
G75*
G03*
X11179200Y-15446800I-50000J0D01*
G01*
X11433200Y-15192800D02*
G75*
G03*
X11433200Y-15192800I-50000J0D01*
G01*
X11433200Y-15446800D02*
G75*
G03*
X11433200Y-15446800I-50000J0D01*
G01*
X11667960Y-14295120D02*
G75*
G03*
X11667960Y-14295120I-50000J0D01*
G01*
X11921960Y-14295120D02*
G75*
G03*
X11921960Y-14295120I-50000J0D01*
G01*
X12000700Y-13017500D02*
G75*
G03*
X12000700Y-13017500I-50000J0D01*
G01*
X12000700Y-13271500D02*
G75*
G03*
X12000700Y-13271500I-50000J0D01*
G01*
X12000700Y-13525500D02*
G75*
G03*
X12000700Y-13525500I-50000J0D01*
G01*
X12000700Y-13779500D02*
G75*
G03*
X12000700Y-13779500I-50000J0D01*
G01*
X12175960Y-14295120D02*
G75*
G03*
X12175960Y-14295120I-50000J0D01*
G01*
X12254700Y-13017500D02*
G75*
G03*
X12254700Y-13017500I-50000J0D01*
G01*
X12254700Y-13271500D02*
G75*
G03*
X12254700Y-13271500I-50000J0D01*
G01*
X12254700Y-13525500D02*
G75*
G03*
X12254700Y-13525500I-50000J0D01*
G01*
X12254700Y-13779500D02*
G75*
G03*
X12254700Y-13779500I-50000J0D01*
G01*
D11*
X8555819Y-15962276D02*
X8555819Y-15762276D01*
X8603438Y-15762276D01*
X8632010Y-15771800D01*
X8651057Y-15790848D01*
X8660581Y-15809895D01*
X8670105Y-15847990D01*
X8670105Y-15876562D01*
X8660581Y-15914657D01*
X8651057Y-15933705D01*
X8632010Y-15952752D01*
X8603438Y-15962276D01*
X8555819Y-15962276D01*
X8755819Y-15962276D02*
X8755819Y-15828943D01*
X8755819Y-15867038D02*
X8765343Y-15847990D01*
X8774867Y-15838467D01*
X8793914Y-15828943D01*
X8812962Y-15828943D01*
X8879629Y-15962276D02*
X8879629Y-15828943D01*
X8879629Y-15762276D02*
X8870105Y-15771800D01*
X8879629Y-15781324D01*
X8889152Y-15771800D01*
X8879629Y-15762276D01*
X8879629Y-15781324D01*
X9003438Y-15962276D02*
X8984390Y-15952752D01*
X8974867Y-15933705D01*
X8974867Y-15762276D01*
X9108200Y-15962276D02*
X9089152Y-15952752D01*
X9079629Y-15933705D01*
X9079629Y-15762276D01*
X9336771Y-15962276D02*
X9336771Y-15762276D01*
X9403438Y-15905133D01*
X9470105Y-15762276D01*
X9470105Y-15962276D01*
X9651057Y-15962276D02*
X9651057Y-15857514D01*
X9641533Y-15838467D01*
X9622486Y-15828943D01*
X9584390Y-15828943D01*
X9565343Y-15838467D01*
X9651057Y-15952752D02*
X9632010Y-15962276D01*
X9584390Y-15962276D01*
X9565343Y-15952752D01*
X9555819Y-15933705D01*
X9555819Y-15914657D01*
X9565343Y-15895609D01*
X9584390Y-15886086D01*
X9632010Y-15886086D01*
X9651057Y-15876562D01*
X9746295Y-15828943D02*
X9746295Y-16028943D01*
X9746295Y-15838467D02*
X9765343Y-15828943D01*
X9803438Y-15828943D01*
X9822486Y-15838467D01*
X9832010Y-15847990D01*
X9841533Y-15867038D01*
X9841533Y-15924181D01*
X9832010Y-15943228D01*
X9822486Y-15952752D01*
X9803438Y-15962276D01*
X9765343Y-15962276D01*
X9746295Y-15952752D01*
X9927248Y-15943228D02*
X9936771Y-15952752D01*
X9927248Y-15962276D01*
X9917724Y-15952752D01*
X9927248Y-15943228D01*
X9927248Y-15962276D01*
X9927248Y-15838467D02*
X9936771Y-15847990D01*
X9927248Y-15857514D01*
X9917724Y-15847990D01*
X9927248Y-15838467D01*
X9927248Y-15857514D01*
D12*
X8258200Y-16271800D02*
X8298200Y-16311800D01*
X8298200Y-16271800D02*
X8258200Y-16311800D01*
D11*
X8593914Y-16182276D02*
X8612962Y-16182276D01*
X8632010Y-16191800D01*
X8641533Y-16201324D01*
X8651057Y-16220371D01*
X8660581Y-16258467D01*
X8660581Y-16306086D01*
X8651057Y-16344181D01*
X8641533Y-16363228D01*
X8632010Y-16372752D01*
X8612962Y-16382276D01*
X8593914Y-16382276D01*
X8574867Y-16372752D01*
X8565343Y-16363228D01*
X8555819Y-16344181D01*
X8546295Y-16306086D01*
X8546295Y-16258467D01*
X8555819Y-16220371D01*
X8565343Y-16201324D01*
X8574867Y-16191800D01*
X8593914Y-16182276D01*
X8746295Y-16363228D02*
X8755819Y-16372752D01*
X8746295Y-16382276D01*
X8736771Y-16372752D01*
X8746295Y-16363228D01*
X8746295Y-16382276D01*
X8927248Y-16248943D02*
X8927248Y-16382276D01*
X8879629Y-16172752D02*
X8832010Y-16315609D01*
X8955819Y-16315609D01*
X9070105Y-16182276D02*
X9089152Y-16182276D01*
X9108200Y-16191800D01*
X9117724Y-16201324D01*
X9127248Y-16220371D01*
X9136771Y-16258467D01*
X9136771Y-16306086D01*
X9127248Y-16344181D01*
X9117724Y-16363228D01*
X9108200Y-16372752D01*
X9089152Y-16382276D01*
X9070105Y-16382276D01*
X9051057Y-16372752D01*
X9041533Y-16363228D01*
X9032010Y-16344181D01*
X9022486Y-16306086D01*
X9022486Y-16258467D01*
X9032010Y-16220371D01*
X9041533Y-16201324D01*
X9051057Y-16191800D01*
X9070105Y-16182276D01*
X9260581Y-16182276D02*
X9279629Y-16182276D01*
X9298676Y-16191800D01*
X9308200Y-16201324D01*
X9317724Y-16220371D01*
X9327248Y-16258467D01*
X9327248Y-16306086D01*
X9317724Y-16344181D01*
X9308200Y-16363228D01*
X9298676Y-16372752D01*
X9279629Y-16382276D01*
X9260581Y-16382276D01*
X9241533Y-16372752D01*
X9232010Y-16363228D01*
X9222486Y-16344181D01*
X9212962Y-16306086D01*
X9212962Y-16258467D01*
X9222486Y-16220371D01*
X9232010Y-16201324D01*
X9241533Y-16191800D01*
X9260581Y-16182276D01*
X9412962Y-16382276D02*
X9412962Y-16248943D01*
X9412962Y-16267990D02*
X9422486Y-16258467D01*
X9441533Y-16248943D01*
X9470105Y-16248943D01*
X9489152Y-16258467D01*
X9498676Y-16277514D01*
X9498676Y-16382276D01*
X9498676Y-16277514D02*
X9508200Y-16258467D01*
X9527248Y-16248943D01*
X9555819Y-16248943D01*
X9574867Y-16258467D01*
X9584390Y-16277514D01*
X9584390Y-16382276D01*
X9679629Y-16382276D02*
X9679629Y-16248943D01*
X9679629Y-16267990D02*
X9689152Y-16258467D01*
X9708200Y-16248943D01*
X9736771Y-16248943D01*
X9755819Y-16258467D01*
X9765343Y-16277514D01*
X9765343Y-16382276D01*
X9765343Y-16277514D02*
X9774867Y-16258467D01*
X9793914Y-16248943D01*
X9822486Y-16248943D01*
X9841533Y-16258467D01*
X9851057Y-16277514D01*
X9851057Y-16382276D01*
X10241533Y-16172752D02*
X10070105Y-16429895D01*
X10498676Y-16182276D02*
X10517724Y-16182276D01*
X10536771Y-16191800D01*
X10546295Y-16201324D01*
X10555819Y-16220371D01*
X10565343Y-16258467D01*
X10565343Y-16306086D01*
X10555819Y-16344181D01*
X10546295Y-16363228D01*
X10536771Y-16372752D01*
X10517724Y-16382276D01*
X10498676Y-16382276D01*
X10479629Y-16372752D01*
X10470105Y-16363228D01*
X10460581Y-16344181D01*
X10451057Y-16306086D01*
X10451057Y-16258467D01*
X10460581Y-16220371D01*
X10470105Y-16201324D01*
X10479629Y-16191800D01*
X10498676Y-16182276D01*
X10651057Y-16363228D02*
X10660581Y-16372752D01*
X10651057Y-16382276D01*
X10641533Y-16372752D01*
X10651057Y-16363228D01*
X10651057Y-16382276D01*
X10784390Y-16182276D02*
X10803438Y-16182276D01*
X10822486Y-16191800D01*
X10832010Y-16201324D01*
X10841533Y-16220371D01*
X10851057Y-16258467D01*
X10851057Y-16306086D01*
X10841533Y-16344181D01*
X10832010Y-16363228D01*
X10822486Y-16372752D01*
X10803438Y-16382276D01*
X10784390Y-16382276D01*
X10765343Y-16372752D01*
X10755819Y-16363228D01*
X10746295Y-16344181D01*
X10736771Y-16306086D01*
X10736771Y-16258467D01*
X10746295Y-16220371D01*
X10755819Y-16201324D01*
X10765343Y-16191800D01*
X10784390Y-16182276D01*
X11041533Y-16382276D02*
X10927248Y-16382276D01*
X10984390Y-16382276D02*
X10984390Y-16182276D01*
X10965343Y-16210848D01*
X10946295Y-16229895D01*
X10927248Y-16239419D01*
X11222486Y-16182276D02*
X11127248Y-16182276D01*
X11117724Y-16277514D01*
X11127248Y-16267990D01*
X11146295Y-16258467D01*
X11193914Y-16258467D01*
X11212962Y-16267990D01*
X11222486Y-16277514D01*
X11232009Y-16296562D01*
X11232009Y-16344181D01*
X11222486Y-16363228D01*
X11212962Y-16372752D01*
X11193914Y-16382276D01*
X11146295Y-16382276D01*
X11127248Y-16372752D01*
X11117724Y-16363228D01*
X11298676Y-16182276D02*
X11432009Y-16182276D01*
X11346295Y-16382276D01*
X11498676Y-16182276D02*
X11498676Y-16220371D01*
X11574867Y-16182276D02*
X11574867Y-16220371D01*
X11870105Y-16458467D02*
X11860581Y-16448943D01*
X11841533Y-16420371D01*
X11832009Y-16401324D01*
X11822486Y-16372752D01*
X11812962Y-16325133D01*
X11812962Y-16287038D01*
X11822486Y-16239419D01*
X11832009Y-16210848D01*
X11841533Y-16191800D01*
X11860581Y-16163228D01*
X11870105Y-16153705D01*
X12032009Y-16182276D02*
X11993914Y-16182276D01*
X11974867Y-16191800D01*
X11965343Y-16201324D01*
X11946295Y-16229895D01*
X11936771Y-16267990D01*
X11936771Y-16344181D01*
X11946295Y-16363228D01*
X11955819Y-16372752D01*
X11974867Y-16382276D01*
X12012962Y-16382276D01*
X12032009Y-16372752D01*
X12041533Y-16363228D01*
X12051057Y-16344181D01*
X12051057Y-16296562D01*
X12041533Y-16277514D01*
X12032009Y-16267990D01*
X12012962Y-16258467D01*
X11974867Y-16258467D01*
X11955819Y-16267990D01*
X11946295Y-16277514D01*
X11936771Y-16296562D01*
X12165343Y-16267990D02*
X12146295Y-16258467D01*
X12136771Y-16248943D01*
X12127248Y-16229895D01*
X12127248Y-16220371D01*
X12136771Y-16201324D01*
X12146295Y-16191800D01*
X12165343Y-16182276D01*
X12203438Y-16182276D01*
X12222486Y-16191800D01*
X12232009Y-16201324D01*
X12241533Y-16220371D01*
X12241533Y-16229895D01*
X12232009Y-16248943D01*
X12222486Y-16258467D01*
X12203438Y-16267990D01*
X12165343Y-16267990D01*
X12146295Y-16277514D01*
X12136771Y-16287038D01*
X12127248Y-16306086D01*
X12127248Y-16344181D01*
X12136771Y-16363228D01*
X12146295Y-16372752D01*
X12165343Y-16382276D01*
X12203438Y-16382276D01*
X12222486Y-16372752D01*
X12232009Y-16363228D01*
X12241533Y-16344181D01*
X12241533Y-16306086D01*
X12232009Y-16287038D01*
X12222486Y-16277514D01*
X12203438Y-16267990D01*
X12479628Y-16382276D02*
X12479628Y-16182276D01*
X12565343Y-16382276D02*
X12565343Y-16277514D01*
X12555819Y-16258467D01*
X12536771Y-16248943D01*
X12508200Y-16248943D01*
X12489152Y-16258467D01*
X12479628Y-16267990D01*
X12689152Y-16382276D02*
X12670105Y-16372752D01*
X12660581Y-16363228D01*
X12651057Y-16344181D01*
X12651057Y-16287038D01*
X12660581Y-16267990D01*
X12670105Y-16258467D01*
X12689152Y-16248943D01*
X12717724Y-16248943D01*
X12736771Y-16258467D01*
X12746295Y-16267990D01*
X12755819Y-16287038D01*
X12755819Y-16344181D01*
X12746295Y-16363228D01*
X12736771Y-16372752D01*
X12717724Y-16382276D01*
X12689152Y-16382276D01*
X12870105Y-16382276D02*
X12851057Y-16372752D01*
X12841533Y-16353705D01*
X12841533Y-16182276D01*
X13022486Y-16372752D02*
X13003438Y-16382276D01*
X12965343Y-16382276D01*
X12946295Y-16372752D01*
X12936771Y-16353705D01*
X12936771Y-16277514D01*
X12946295Y-16258467D01*
X12965343Y-16248943D01*
X13003438Y-16248943D01*
X13022486Y-16258467D01*
X13032009Y-16277514D01*
X13032009Y-16296562D01*
X12936771Y-16315609D01*
X13108200Y-16372752D02*
X13127248Y-16382276D01*
X13165343Y-16382276D01*
X13184390Y-16372752D01*
X13193914Y-16353705D01*
X13193914Y-16344181D01*
X13184390Y-16325133D01*
X13165343Y-16315609D01*
X13136771Y-16315609D01*
X13117724Y-16306086D01*
X13108200Y-16287038D01*
X13108200Y-16277514D01*
X13117724Y-16258467D01*
X13136771Y-16248943D01*
X13165343Y-16248943D01*
X13184390Y-16258467D01*
X13260581Y-16458467D02*
X13270105Y-16448943D01*
X13289152Y-16420371D01*
X13298676Y-16401324D01*
X13308200Y-16372752D01*
X13317724Y-16325133D01*
X13317724Y-16287038D01*
X13308200Y-16239419D01*
X13298676Y-16210848D01*
X13289152Y-16191800D01*
X13270105Y-16163228D01*
X13260581Y-16153705D01*
D13*
X8298200Y-16555800D02*
G75*
G03*
X8298200Y-16555800I-50000J0D01*
G01*
D11*
X8660581Y-16646276D02*
X8546295Y-16646276D01*
X8603438Y-16646276D02*
X8603438Y-16446276D01*
X8584390Y-16474848D01*
X8565343Y-16493895D01*
X8546295Y-16503419D01*
X8746295Y-16627228D02*
X8755819Y-16636752D01*
X8746295Y-16646276D01*
X8736771Y-16636752D01*
X8746295Y-16627228D01*
X8746295Y-16646276D01*
X8879629Y-16446276D02*
X8898676Y-16446276D01*
X8917724Y-16455800D01*
X8927248Y-16465324D01*
X8936771Y-16484371D01*
X8946295Y-16522467D01*
X8946295Y-16570086D01*
X8936771Y-16608181D01*
X8927248Y-16627228D01*
X8917724Y-16636752D01*
X8898676Y-16646276D01*
X8879629Y-16646276D01*
X8860581Y-16636752D01*
X8851057Y-16627228D01*
X8841533Y-16608181D01*
X8832010Y-16570086D01*
X8832010Y-16522467D01*
X8841533Y-16484371D01*
X8851057Y-16465324D01*
X8860581Y-16455800D01*
X8879629Y-16446276D01*
X9070105Y-16446276D02*
X9089152Y-16446276D01*
X9108200Y-16455800D01*
X9117724Y-16465324D01*
X9127248Y-16484371D01*
X9136771Y-16522467D01*
X9136771Y-16570086D01*
X9127248Y-16608181D01*
X9117724Y-16627228D01*
X9108200Y-16636752D01*
X9089152Y-16646276D01*
X9070105Y-16646276D01*
X9051057Y-16636752D01*
X9041533Y-16627228D01*
X9032010Y-16608181D01*
X9022486Y-16570086D01*
X9022486Y-16522467D01*
X9032010Y-16484371D01*
X9041533Y-16465324D01*
X9051057Y-16455800D01*
X9070105Y-16446276D01*
X9260581Y-16446276D02*
X9279629Y-16446276D01*
X9298676Y-16455800D01*
X9308200Y-16465324D01*
X9317724Y-16484371D01*
X9327248Y-16522467D01*
X9327248Y-16570086D01*
X9317724Y-16608181D01*
X9308200Y-16627228D01*
X9298676Y-16636752D01*
X9279629Y-16646276D01*
X9260581Y-16646276D01*
X9241533Y-16636752D01*
X9232010Y-16627228D01*
X9222486Y-16608181D01*
X9212962Y-16570086D01*
X9212962Y-16522467D01*
X9222486Y-16484371D01*
X9232010Y-16465324D01*
X9241533Y-16455800D01*
X9260581Y-16446276D01*
X9412962Y-16646276D02*
X9412962Y-16512943D01*
X9412962Y-16531990D02*
X9422486Y-16522467D01*
X9441533Y-16512943D01*
X9470105Y-16512943D01*
X9489152Y-16522467D01*
X9498676Y-16541514D01*
X9498676Y-16646276D01*
X9498676Y-16541514D02*
X9508200Y-16522467D01*
X9527248Y-16512943D01*
X9555819Y-16512943D01*
X9574867Y-16522467D01*
X9584390Y-16541514D01*
X9584390Y-16646276D01*
X9679629Y-16646276D02*
X9679629Y-16512943D01*
X9679629Y-16531990D02*
X9689152Y-16522467D01*
X9708200Y-16512943D01*
X9736771Y-16512943D01*
X9755819Y-16522467D01*
X9765343Y-16541514D01*
X9765343Y-16646276D01*
X9765343Y-16541514D02*
X9774867Y-16522467D01*
X9793914Y-16512943D01*
X9822486Y-16512943D01*
X9841533Y-16522467D01*
X9851057Y-16541514D01*
X9851057Y-16646276D01*
X10241533Y-16436752D02*
X10070105Y-16693895D01*
X10498676Y-16446276D02*
X10517724Y-16446276D01*
X10536771Y-16455800D01*
X10546295Y-16465324D01*
X10555819Y-16484371D01*
X10565343Y-16522467D01*
X10565343Y-16570086D01*
X10555819Y-16608181D01*
X10546295Y-16627228D01*
X10536771Y-16636752D01*
X10517724Y-16646276D01*
X10498676Y-16646276D01*
X10479629Y-16636752D01*
X10470105Y-16627228D01*
X10460581Y-16608181D01*
X10451057Y-16570086D01*
X10451057Y-16522467D01*
X10460581Y-16484371D01*
X10470105Y-16465324D01*
X10479629Y-16455800D01*
X10498676Y-16446276D01*
X10651057Y-16627228D02*
X10660581Y-16636752D01*
X10651057Y-16646276D01*
X10641533Y-16636752D01*
X10651057Y-16627228D01*
X10651057Y-16646276D01*
X10784390Y-16446276D02*
X10803438Y-16446276D01*
X10822486Y-16455800D01*
X10832010Y-16465324D01*
X10841533Y-16484371D01*
X10851057Y-16522467D01*
X10851057Y-16570086D01*
X10841533Y-16608181D01*
X10832010Y-16627228D01*
X10822486Y-16636752D01*
X10803438Y-16646276D01*
X10784390Y-16646276D01*
X10765343Y-16636752D01*
X10755819Y-16627228D01*
X10746295Y-16608181D01*
X10736771Y-16570086D01*
X10736771Y-16522467D01*
X10746295Y-16484371D01*
X10755819Y-16465324D01*
X10765343Y-16455800D01*
X10784390Y-16446276D01*
X10917724Y-16446276D02*
X11041533Y-16446276D01*
X10974867Y-16522467D01*
X11003438Y-16522467D01*
X11022486Y-16531990D01*
X11032010Y-16541514D01*
X11041533Y-16560562D01*
X11041533Y-16608181D01*
X11032010Y-16627228D01*
X11022486Y-16636752D01*
X11003438Y-16646276D01*
X10946295Y-16646276D01*
X10927248Y-16636752D01*
X10917724Y-16627228D01*
X11136771Y-16646276D02*
X11174867Y-16646276D01*
X11193914Y-16636752D01*
X11203438Y-16627228D01*
X11222486Y-16598657D01*
X11232009Y-16560562D01*
X11232009Y-16484371D01*
X11222486Y-16465324D01*
X11212962Y-16455800D01*
X11193914Y-16446276D01*
X11155819Y-16446276D01*
X11136771Y-16455800D01*
X11127248Y-16465324D01*
X11117724Y-16484371D01*
X11117724Y-16531990D01*
X11127248Y-16551038D01*
X11136771Y-16560562D01*
X11155819Y-16570086D01*
X11193914Y-16570086D01*
X11212962Y-16560562D01*
X11222486Y-16551038D01*
X11232009Y-16531990D01*
X11403438Y-16512943D02*
X11403438Y-16646276D01*
X11355819Y-16436752D02*
X11308200Y-16579609D01*
X11432009Y-16579609D01*
X11498676Y-16446276D02*
X11498676Y-16484371D01*
X11574867Y-16446276D02*
X11574867Y-16484371D01*
X11870105Y-16722467D02*
X11860581Y-16712943D01*
X11841533Y-16684371D01*
X11832009Y-16665324D01*
X11822486Y-16636752D01*
X11812962Y-16589133D01*
X11812962Y-16551038D01*
X11822486Y-16503419D01*
X11832009Y-16474848D01*
X11841533Y-16455800D01*
X11860581Y-16427228D01*
X11870105Y-16417705D01*
X11936771Y-16465324D02*
X11946295Y-16455800D01*
X11965343Y-16446276D01*
X12012962Y-16446276D01*
X12032009Y-16455800D01*
X12041533Y-16465324D01*
X12051057Y-16484371D01*
X12051057Y-16503419D01*
X12041533Y-16531990D01*
X11927248Y-16646276D01*
X12051057Y-16646276D01*
X12117724Y-16446276D02*
X12241533Y-16446276D01*
X12174867Y-16522467D01*
X12203438Y-16522467D01*
X12222486Y-16531990D01*
X12232009Y-16541514D01*
X12241533Y-16560562D01*
X12241533Y-16608181D01*
X12232009Y-16627228D01*
X12222486Y-16636752D01*
X12203438Y-16646276D01*
X12146295Y-16646276D01*
X12127248Y-16636752D01*
X12117724Y-16627228D01*
X12479628Y-16646276D02*
X12479628Y-16446276D01*
X12565343Y-16646276D02*
X12565343Y-16541514D01*
X12555819Y-16522467D01*
X12536771Y-16512943D01*
X12508200Y-16512943D01*
X12489152Y-16522467D01*
X12479628Y-16531990D01*
X12689152Y-16646276D02*
X12670105Y-16636752D01*
X12660581Y-16627228D01*
X12651057Y-16608181D01*
X12651057Y-16551038D01*
X12660581Y-16531990D01*
X12670105Y-16522467D01*
X12689152Y-16512943D01*
X12717724Y-16512943D01*
X12736771Y-16522467D01*
X12746295Y-16531990D01*
X12755819Y-16551038D01*
X12755819Y-16608181D01*
X12746295Y-16627228D01*
X12736771Y-16636752D01*
X12717724Y-16646276D01*
X12689152Y-16646276D01*
X12870105Y-16646276D02*
X12851057Y-16636752D01*
X12841533Y-16617705D01*
X12841533Y-16446276D01*
X13022486Y-16636752D02*
X13003438Y-16646276D01*
X12965343Y-16646276D01*
X12946295Y-16636752D01*
X12936771Y-16617705D01*
X12936771Y-16541514D01*
X12946295Y-16522467D01*
X12965343Y-16512943D01*
X13003438Y-16512943D01*
X13022486Y-16522467D01*
X13032009Y-16541514D01*
X13032009Y-16560562D01*
X12936771Y-16579609D01*
X13108200Y-16636752D02*
X13127248Y-16646276D01*
X13165343Y-16646276D01*
X13184390Y-16636752D01*
X13193914Y-16617705D01*
X13193914Y-16608181D01*
X13184390Y-16589133D01*
X13165343Y-16579609D01*
X13136771Y-16579609D01*
X13117724Y-16570086D01*
X13108200Y-16551038D01*
X13108200Y-16541514D01*
X13117724Y-16522467D01*
X13136771Y-16512943D01*
X13165343Y-16512943D01*
X13184390Y-16522467D01*
X13260581Y-16722467D02*
X13270105Y-16712943D01*
X13289152Y-16684371D01*
X13298676Y-16665324D01*
X13308200Y-16636752D01*
X13317724Y-16589133D01*
X13317724Y-16551038D01*
X13308200Y-16503419D01*
X13298676Y-16474848D01*
X13289152Y-16455800D01*
X13270105Y-16427228D01*
X13260581Y-16417705D01*
M02*
