G04 #@! TF.GenerationSoftware,KiCad,Pcbnew,(7.0.0-0)*
G04 #@! TF.CreationDate,2023-06-06T22:29:37+02:00*
G04 #@! TF.ProjectId,ithowifi_4l,6974686f-7769-4666-995f-346c2e6b6963,rev?*
G04 #@! TF.SameCoordinates,Original*
G04 #@! TF.FileFunction,Copper,L2,Inr*
G04 #@! TF.FilePolarity,Positive*
%FSLAX46Y46*%
G04 Gerber Fmt 4.6, Leading zero omitted, Abs format (unit mm)*
G04 Created by KiCad (PCBNEW (7.0.0-0)) date 2023-06-06 22:29:37*
%MOMM*%
%LPD*%
G01*
G04 APERTURE LIST*
G04 #@! TA.AperFunction,ComponentPad*
%ADD10R,1.700000X1.700000*%
G04 #@! TD*
G04 #@! TA.AperFunction,ComponentPad*
%ADD11O,1.700000X1.700000*%
G04 #@! TD*
G04 #@! TA.AperFunction,ComponentPad*
%ADD12C,2.000000*%
G04 #@! TD*
G04 #@! TA.AperFunction,ViaPad*
%ADD13C,0.800000*%
G04 #@! TD*
G04 APERTURE END LIST*
D10*
X85724999Y-107797599D03*
D11*
X85724999Y-110337599D03*
X85724999Y-112877599D03*
X85724999Y-115417599D03*
X85724999Y-117957599D03*
X85724999Y-120497599D03*
X85724999Y-123037599D03*
D10*
X111291999Y-151927999D03*
D11*
X113831999Y-151927999D03*
X111291999Y-154467999D03*
X113831999Y-154467999D03*
D12*
X105182180Y-109251460D03*
D10*
X122046999Y-137794999D03*
D11*
X119506999Y-137794999D03*
X122046999Y-135254999D03*
X119506999Y-135254999D03*
X122046999Y-132714999D03*
X119506999Y-132714999D03*
X122046999Y-130174999D03*
X119506999Y-130174999D03*
D13*
X109220000Y-112014000D03*
X99187000Y-107442000D03*
X99187000Y-105918000D03*
X101092000Y-112014000D03*
X99187000Y-110871000D03*
X99187000Y-112522000D03*
X99187000Y-109093000D03*
X111125000Y-110871000D03*
X111125000Y-114173000D03*
X111125000Y-112522000D03*
X105918000Y-114173000D03*
X109220000Y-114173000D03*
X102489000Y-114173000D03*
X104140000Y-114173000D03*
X100965000Y-114173000D03*
X107569000Y-114173000D03*
X99187000Y-114173000D03*
X102432000Y-138568000D03*
X111632000Y-124053600D03*
X112732000Y-124053600D03*
X110532000Y-124053600D03*
X86741000Y-128270000D03*
X111125000Y-105918000D03*
X111125000Y-107442000D03*
X111125000Y-109093000D03*
X101727000Y-132715000D03*
X113792000Y-143764000D03*
X96647000Y-139750800D03*
X106172000Y-148590000D03*
X89154000Y-148590000D03*
X96647000Y-142798800D03*
X98171000Y-142798800D03*
X114681000Y-144780000D03*
X113792000Y-145796000D03*
X95148400Y-142798800D03*
X96647000Y-141274800D03*
X95148400Y-141274800D03*
X95148400Y-139750800D03*
X98171000Y-139750800D03*
X98171000Y-141274800D03*
X122682000Y-127698500D03*
X118618000Y-127698500D03*
X106172000Y-147320000D03*
X111632000Y-134268000D03*
X112732000Y-134268000D03*
X110532000Y-134268000D03*
X122682000Y-119761000D03*
X108631500Y-148751000D03*
X112395000Y-118872000D03*
X98552000Y-123317000D03*
X93726000Y-123317000D03*
X104902000Y-126492000D03*
X114681000Y-147320000D03*
X120813090Y-116686900D03*
X120532000Y-120468000D03*
X89407998Y-115671600D03*
X89309400Y-147345400D03*
X95504000Y-133668000D03*
X89154000Y-138430000D03*
X89662000Y-136397998D03*
X89281000Y-133350000D03*
X85039200Y-143560804D03*
X84531209Y-144805391D03*
X106849400Y-137185400D03*
X115232000Y-121538998D03*
X108174600Y-139725400D03*
X116697000Y-120539000D03*
X103378008Y-121920000D03*
X109132000Y-127668006D03*
X91524600Y-129294600D03*
G04 #@! TA.AperFunction,Conductor*
G36*
X84586586Y-114953491D02*
G01*
X84623343Y-115002165D01*
X84625222Y-115063130D01*
X84586271Y-115200027D01*
X84584571Y-115209124D01*
X84578315Y-115276628D01*
X84580358Y-115287556D01*
X84591055Y-115290600D01*
X86858945Y-115290600D01*
X86869641Y-115287556D01*
X86871684Y-115276628D01*
X86865428Y-115209124D01*
X86863728Y-115200027D01*
X86824778Y-115063130D01*
X86826657Y-115002165D01*
X86863414Y-114953491D01*
X86921538Y-114935000D01*
X88994957Y-114935000D01*
X89045957Y-114948886D01*
X89082878Y-114986711D01*
X89095528Y-115038032D01*
X89080413Y-115088682D01*
X89043846Y-115122688D01*
X89043866Y-115122716D01*
X89043674Y-115122847D01*
X89041708Y-115124676D01*
X89033469Y-115129001D01*
X89028916Y-115133034D01*
X89028911Y-115133038D01*
X88919055Y-115230363D01*
X88919052Y-115230365D01*
X88914500Y-115234399D01*
X88911047Y-115239400D01*
X88911042Y-115239407D01*
X88827668Y-115360195D01*
X88827664Y-115360202D01*
X88824211Y-115365205D01*
X88822057Y-115370883D01*
X88822053Y-115370892D01*
X88770005Y-115508130D01*
X88770002Y-115508138D01*
X88767849Y-115513818D01*
X88767116Y-115519849D01*
X88767115Y-115519856D01*
X88753114Y-115635172D01*
X88748691Y-115671600D01*
X88749424Y-115677637D01*
X88767115Y-115823343D01*
X88767116Y-115823348D01*
X88767849Y-115829382D01*
X88770003Y-115835062D01*
X88770005Y-115835069D01*
X88822053Y-115972307D01*
X88822055Y-115972312D01*
X88824211Y-115977995D01*
X88827666Y-115983001D01*
X88827668Y-115983004D01*
X88911042Y-116103792D01*
X88911044Y-116103794D01*
X88914500Y-116108801D01*
X89033469Y-116214199D01*
X89174205Y-116288063D01*
X89328527Y-116326100D01*
X89481381Y-116326100D01*
X89487469Y-116326100D01*
X89641791Y-116288063D01*
X89782527Y-116214199D01*
X89901496Y-116108801D01*
X89991785Y-115977995D01*
X90048147Y-115829382D01*
X90067305Y-115671600D01*
X90048147Y-115513818D01*
X90000416Y-115387964D01*
X89993942Y-115370892D01*
X89993941Y-115370890D01*
X89991785Y-115365205D01*
X89901496Y-115234399D01*
X89782527Y-115129001D01*
X89774287Y-115124676D01*
X89772321Y-115122847D01*
X89772130Y-115122716D01*
X89772149Y-115122688D01*
X89735583Y-115088682D01*
X89720468Y-115038032D01*
X89733118Y-114986711D01*
X89770039Y-114948886D01*
X89821039Y-114935000D01*
X93235631Y-114935000D01*
X93271568Y-114941638D01*
X93302761Y-114960674D01*
X93353998Y-115006582D01*
X93579910Y-115156044D01*
X93825176Y-115271020D01*
X93828687Y-115272076D01*
X93828689Y-115272077D01*
X93970627Y-115314780D01*
X94084569Y-115349060D01*
X94352561Y-115388500D01*
X94553798Y-115388500D01*
X94555631Y-115388500D01*
X94758156Y-115373677D01*
X95022553Y-115314780D01*
X95275558Y-115218014D01*
X95511777Y-115085441D01*
X95679443Y-114955974D01*
X95708444Y-114940388D01*
X95740926Y-114935000D01*
X125180900Y-114935000D01*
X125231200Y-114948478D01*
X125268022Y-114985300D01*
X125281500Y-115035600D01*
X125281500Y-149461409D01*
X125280639Y-149474540D01*
X125267912Y-149571207D01*
X125261119Y-149596564D01*
X125257258Y-149605888D01*
X125220207Y-149651043D01*
X125164312Y-149668000D01*
X115832000Y-149668000D01*
X115832000Y-149681244D01*
X115832000Y-150214527D01*
X115822038Y-150258175D01*
X115811556Y-150279940D01*
X115811554Y-150279945D01*
X115809105Y-150285031D01*
X115807849Y-150290529D01*
X115807847Y-150290538D01*
X115782757Y-150400465D01*
X115781500Y-150405974D01*
X115781500Y-150411626D01*
X115781500Y-155961409D01*
X115780639Y-155974540D01*
X115767912Y-156071207D01*
X115761115Y-156096574D01*
X115726347Y-156180512D01*
X115713216Y-156203256D01*
X115657906Y-156275337D01*
X115639337Y-156293906D01*
X115567256Y-156349216D01*
X115544512Y-156362347D01*
X115460574Y-156397115D01*
X115435207Y-156403912D01*
X115338540Y-156416639D01*
X115325409Y-156417500D01*
X112732600Y-156417500D01*
X112682300Y-156404022D01*
X112645478Y-156367200D01*
X112632000Y-156316900D01*
X112632000Y-154963710D01*
X112646104Y-154912341D01*
X112684462Y-154875375D01*
X112736317Y-154863179D01*
X112787131Y-154879171D01*
X112822653Y-154918869D01*
X112886838Y-155047771D01*
X112886840Y-155047775D01*
X112888912Y-155051935D01*
X113012268Y-155215285D01*
X113015699Y-155218413D01*
X113015703Y-155218417D01*
X113160099Y-155350051D01*
X113163538Y-155353186D01*
X113337573Y-155460944D01*
X113474673Y-155514057D01*
X113524112Y-155533210D01*
X113524114Y-155533210D01*
X113528444Y-155534888D01*
X113729653Y-155572500D01*
X113929693Y-155572500D01*
X113934347Y-155572500D01*
X114135556Y-155534888D01*
X114326427Y-155460944D01*
X114500462Y-155353186D01*
X114651732Y-155215285D01*
X114775088Y-155051935D01*
X114866328Y-154868701D01*
X114922345Y-154671821D01*
X114941232Y-154468000D01*
X114922345Y-154264179D01*
X114866328Y-154067299D01*
X114775088Y-153884065D01*
X114651732Y-153720715D01*
X114648299Y-153717585D01*
X114648296Y-153717582D01*
X114503900Y-153585948D01*
X114503899Y-153585947D01*
X114500462Y-153582814D01*
X114496510Y-153580367D01*
X114496506Y-153580364D01*
X114330379Y-153477503D01*
X114326427Y-153475056D01*
X114321093Y-153472989D01*
X114139887Y-153402789D01*
X114139878Y-153402786D01*
X114135556Y-153401112D01*
X114075495Y-153389884D01*
X113938922Y-153364355D01*
X113938919Y-153364354D01*
X113934347Y-153363500D01*
X113729653Y-153363500D01*
X113725081Y-153364354D01*
X113725077Y-153364355D01*
X113533012Y-153400258D01*
X113533010Y-153400258D01*
X113528444Y-153401112D01*
X113524123Y-153402785D01*
X113524112Y-153402789D01*
X113341906Y-153473377D01*
X113341902Y-153473378D01*
X113337573Y-153475056D01*
X113333624Y-153477500D01*
X113333620Y-153477503D01*
X113167493Y-153580364D01*
X113167484Y-153580370D01*
X113163538Y-153582814D01*
X113160105Y-153585942D01*
X113160099Y-153585948D01*
X113015703Y-153717582D01*
X113015694Y-153717591D01*
X113012268Y-153720715D01*
X113009471Y-153724417D01*
X113009467Y-153724423D01*
X112891711Y-153880357D01*
X112891705Y-153880365D01*
X112888912Y-153884065D01*
X112886843Y-153888219D01*
X112886838Y-153888228D01*
X112822653Y-154017131D01*
X112787131Y-154056829D01*
X112736317Y-154072821D01*
X112684462Y-154060625D01*
X112646104Y-154023659D01*
X112632000Y-153972290D01*
X112632000Y-152536556D01*
X112646104Y-152485186D01*
X112684462Y-152448221D01*
X112736317Y-152436025D01*
X112787131Y-152452017D01*
X112822654Y-152491715D01*
X112843895Y-152534373D01*
X112848762Y-152542235D01*
X112972136Y-152705608D01*
X112978372Y-152712449D01*
X113129657Y-152850363D01*
X113137051Y-152855947D01*
X113311103Y-152963715D01*
X113319389Y-152967841D01*
X113510283Y-153041794D01*
X113519192Y-153044328D01*
X113690428Y-153076339D01*
X113701723Y-153075116D01*
X113705000Y-153064239D01*
X113959000Y-153064239D01*
X113962276Y-153075116D01*
X113973571Y-153076339D01*
X114144807Y-153044328D01*
X114153716Y-153041794D01*
X114344610Y-152967841D01*
X114352896Y-152963715D01*
X114526948Y-152855947D01*
X114534342Y-152850363D01*
X114685627Y-152712449D01*
X114691863Y-152705608D01*
X114815237Y-152542235D01*
X114820110Y-152534364D01*
X114911359Y-152351111D01*
X114914703Y-152342480D01*
X114970728Y-152145572D01*
X114972428Y-152136475D01*
X114978684Y-152068971D01*
X114976641Y-152058043D01*
X114965945Y-152055000D01*
X113972244Y-152055000D01*
X113961798Y-152057798D01*
X113959000Y-152068244D01*
X113959000Y-153064239D01*
X113705000Y-153064239D01*
X113705000Y-151787756D01*
X113959000Y-151787756D01*
X113961798Y-151798201D01*
X113972244Y-151801000D01*
X114965945Y-151801000D01*
X114976641Y-151797956D01*
X114978684Y-151787028D01*
X114972428Y-151719524D01*
X114970728Y-151710427D01*
X114914703Y-151513519D01*
X114911359Y-151504888D01*
X114820110Y-151321635D01*
X114815237Y-151313764D01*
X114691863Y-151150391D01*
X114685627Y-151143550D01*
X114534342Y-151005636D01*
X114526948Y-151000052D01*
X114352896Y-150892284D01*
X114344610Y-150888158D01*
X114153716Y-150814205D01*
X114144807Y-150811671D01*
X113973571Y-150779660D01*
X113962276Y-150780883D01*
X113959000Y-150791761D01*
X113959000Y-151787756D01*
X113705000Y-151787756D01*
X113705000Y-150791761D01*
X113701723Y-150780883D01*
X113690428Y-150779660D01*
X113519192Y-150811671D01*
X113510283Y-150814205D01*
X113319389Y-150888158D01*
X113311103Y-150892284D01*
X113137051Y-151000052D01*
X113129657Y-151005636D01*
X112978372Y-151143550D01*
X112972136Y-151150391D01*
X112848762Y-151313764D01*
X112843895Y-151321626D01*
X112822654Y-151364285D01*
X112787131Y-151403983D01*
X112736317Y-151419975D01*
X112684462Y-151407779D01*
X112646104Y-151370814D01*
X112632000Y-151319444D01*
X112632000Y-149681244D01*
X112632000Y-149668000D01*
X112618756Y-149668000D01*
X83183100Y-149668000D01*
X83132800Y-149654522D01*
X83095978Y-149617700D01*
X83082500Y-149567400D01*
X83082500Y-148590000D01*
X88494693Y-148590000D01*
X88495426Y-148596037D01*
X88513117Y-148741743D01*
X88513118Y-148741748D01*
X88513851Y-148747782D01*
X88516005Y-148753462D01*
X88516007Y-148753469D01*
X88568055Y-148890707D01*
X88568057Y-148890712D01*
X88570213Y-148896395D01*
X88573668Y-148901401D01*
X88573670Y-148901404D01*
X88657044Y-149022192D01*
X88657046Y-149022194D01*
X88660502Y-149027201D01*
X88779471Y-149132599D01*
X88920207Y-149206463D01*
X89074529Y-149244500D01*
X89227383Y-149244500D01*
X89233471Y-149244500D01*
X89387793Y-149206463D01*
X89528529Y-149132599D01*
X89647498Y-149027201D01*
X89737787Y-148896395D01*
X89794149Y-148747782D01*
X89813307Y-148590000D01*
X105512693Y-148590000D01*
X105513426Y-148596037D01*
X105531117Y-148741743D01*
X105531118Y-148741748D01*
X105531851Y-148747782D01*
X105534005Y-148753462D01*
X105534007Y-148753469D01*
X105586055Y-148890707D01*
X105586057Y-148890712D01*
X105588213Y-148896395D01*
X105591668Y-148901401D01*
X105591670Y-148901404D01*
X105675044Y-149022192D01*
X105675046Y-149022194D01*
X105678502Y-149027201D01*
X105797471Y-149132599D01*
X105938207Y-149206463D01*
X106092529Y-149244500D01*
X106245383Y-149244500D01*
X106251471Y-149244500D01*
X106405793Y-149206463D01*
X106546529Y-149132599D01*
X106665498Y-149027201D01*
X106755787Y-148896395D01*
X106812149Y-148747782D01*
X106831307Y-148590000D01*
X106812149Y-148432218D01*
X106755787Y-148283605D01*
X106665498Y-148152799D01*
X106546529Y-148047401D01*
X106541141Y-148044573D01*
X106541138Y-148044571D01*
X106411178Y-147976363D01*
X106411176Y-147976362D01*
X106405793Y-147973537D01*
X106399892Y-147972082D01*
X106399888Y-147972081D01*
X106257380Y-147936956D01*
X106257376Y-147936955D01*
X106251471Y-147935500D01*
X106092529Y-147935500D01*
X106086624Y-147936955D01*
X106086619Y-147936956D01*
X105944111Y-147972081D01*
X105944105Y-147972083D01*
X105938207Y-147973537D01*
X105932826Y-147976360D01*
X105932821Y-147976363D01*
X105802861Y-148044571D01*
X105802854Y-148044575D01*
X105797471Y-148047401D01*
X105792918Y-148051434D01*
X105792913Y-148051438D01*
X105683057Y-148148763D01*
X105683054Y-148148765D01*
X105678502Y-148152799D01*
X105675049Y-148157800D01*
X105675044Y-148157807D01*
X105591670Y-148278595D01*
X105591666Y-148278602D01*
X105588213Y-148283605D01*
X105586059Y-148289283D01*
X105586055Y-148289292D01*
X105534007Y-148426530D01*
X105534004Y-148426538D01*
X105531851Y-148432218D01*
X105531118Y-148438249D01*
X105531117Y-148438256D01*
X105513426Y-148583963D01*
X105512693Y-148590000D01*
X89813307Y-148590000D01*
X89794149Y-148432218D01*
X89737787Y-148283605D01*
X89647498Y-148152799D01*
X89582442Y-148095164D01*
X89555089Y-148055537D01*
X89549286Y-148007737D01*
X89566360Y-147962716D01*
X89602400Y-147930788D01*
X89683929Y-147887999D01*
X89802898Y-147782601D01*
X89893187Y-147651795D01*
X89949549Y-147503182D01*
X89968707Y-147345400D01*
X89949549Y-147187618D01*
X89893187Y-147039005D01*
X89802898Y-146908199D01*
X89683929Y-146802801D01*
X89678541Y-146799973D01*
X89678538Y-146799971D01*
X89548578Y-146731763D01*
X89548576Y-146731762D01*
X89543193Y-146728937D01*
X89537292Y-146727482D01*
X89537288Y-146727481D01*
X89394780Y-146692356D01*
X89394776Y-146692355D01*
X89388871Y-146690900D01*
X89229929Y-146690900D01*
X89224024Y-146692355D01*
X89224019Y-146692356D01*
X89081511Y-146727481D01*
X89081505Y-146727483D01*
X89075607Y-146728937D01*
X89070226Y-146731760D01*
X89070221Y-146731763D01*
X88940261Y-146799971D01*
X88940254Y-146799975D01*
X88934871Y-146802801D01*
X88930318Y-146806834D01*
X88930313Y-146806838D01*
X88820457Y-146904163D01*
X88820454Y-146904165D01*
X88815902Y-146908199D01*
X88812449Y-146913200D01*
X88812444Y-146913207D01*
X88729070Y-147033995D01*
X88729066Y-147034002D01*
X88725613Y-147039005D01*
X88723459Y-147044683D01*
X88723455Y-147044692D01*
X88671407Y-147181930D01*
X88671404Y-147181938D01*
X88669251Y-147187618D01*
X88668518Y-147193649D01*
X88668517Y-147193656D01*
X88650826Y-147339363D01*
X88650093Y-147345400D01*
X88650826Y-147351437D01*
X88668517Y-147497143D01*
X88668518Y-147497148D01*
X88669251Y-147503182D01*
X88671405Y-147508862D01*
X88671407Y-147508869D01*
X88723455Y-147646107D01*
X88723457Y-147646112D01*
X88725613Y-147651795D01*
X88729068Y-147656801D01*
X88729070Y-147656804D01*
X88812444Y-147777592D01*
X88812446Y-147777594D01*
X88815902Y-147782601D01*
X88820457Y-147786636D01*
X88880957Y-147840235D01*
X88908310Y-147879862D01*
X88914114Y-147927661D01*
X88897039Y-147972682D01*
X88860998Y-148004612D01*
X88784861Y-148044571D01*
X88784854Y-148044575D01*
X88779471Y-148047401D01*
X88774918Y-148051434D01*
X88774913Y-148051438D01*
X88665057Y-148148763D01*
X88665054Y-148148765D01*
X88660502Y-148152799D01*
X88657049Y-148157800D01*
X88657044Y-148157807D01*
X88573670Y-148278595D01*
X88573666Y-148278602D01*
X88570213Y-148283605D01*
X88568059Y-148289283D01*
X88568055Y-148289292D01*
X88516007Y-148426530D01*
X88516004Y-148426538D01*
X88513851Y-148432218D01*
X88513118Y-148438249D01*
X88513117Y-148438256D01*
X88495426Y-148583963D01*
X88494693Y-148590000D01*
X83082500Y-148590000D01*
X83082500Y-145796000D01*
X113132693Y-145796000D01*
X113133426Y-145802037D01*
X113151117Y-145947743D01*
X113151118Y-145947748D01*
X113151851Y-145953782D01*
X113154005Y-145959462D01*
X113154007Y-145959469D01*
X113206055Y-146096707D01*
X113206057Y-146096712D01*
X113208213Y-146102395D01*
X113211668Y-146107401D01*
X113211670Y-146107404D01*
X113295044Y-146228192D01*
X113295046Y-146228194D01*
X113298502Y-146233201D01*
X113417471Y-146338599D01*
X113558207Y-146412463D01*
X113712529Y-146450500D01*
X113865383Y-146450500D01*
X113871471Y-146450500D01*
X114025793Y-146412463D01*
X114166529Y-146338599D01*
X114285498Y-146233201D01*
X114375787Y-146102395D01*
X114432149Y-145953782D01*
X114451307Y-145796000D01*
X114432149Y-145638218D01*
X114397425Y-145546661D01*
X114392537Y-145492854D01*
X114416189Y-145444278D01*
X114461561Y-145414943D01*
X114515562Y-145413311D01*
X114601529Y-145434500D01*
X114754383Y-145434500D01*
X114760471Y-145434500D01*
X114914793Y-145396463D01*
X115055529Y-145322599D01*
X115174498Y-145217201D01*
X115264787Y-145086395D01*
X115321149Y-144937782D01*
X115340307Y-144780000D01*
X115321149Y-144622218D01*
X115276573Y-144504683D01*
X115266944Y-144479292D01*
X115266943Y-144479290D01*
X115264787Y-144473605D01*
X115225745Y-144417043D01*
X115177955Y-144347807D01*
X115177953Y-144347805D01*
X115174498Y-144342799D01*
X115055529Y-144237401D01*
X115050141Y-144234573D01*
X115050138Y-144234571D01*
X114920178Y-144166363D01*
X114920176Y-144166362D01*
X114914793Y-144163537D01*
X114908892Y-144162082D01*
X114908888Y-144162081D01*
X114766380Y-144126956D01*
X114766376Y-144126955D01*
X114760471Y-144125500D01*
X114601529Y-144125500D01*
X114595625Y-144126955D01*
X114595618Y-144126956D01*
X114515564Y-144146688D01*
X114461560Y-144145056D01*
X114416188Y-144115721D01*
X114392537Y-144067144D01*
X114397427Y-144013337D01*
X114429990Y-143927476D01*
X114429992Y-143927469D01*
X114432149Y-143921782D01*
X114451307Y-143764000D01*
X114432149Y-143606218D01*
X114375787Y-143457605D01*
X114347565Y-143416718D01*
X114288955Y-143331807D01*
X114288953Y-143331805D01*
X114285498Y-143326799D01*
X114198132Y-143249399D01*
X114171086Y-143225438D01*
X114171085Y-143225437D01*
X114166529Y-143221401D01*
X114161141Y-143218573D01*
X114161138Y-143218571D01*
X114031178Y-143150363D01*
X114031176Y-143150362D01*
X114025793Y-143147537D01*
X114019892Y-143146082D01*
X114019888Y-143146081D01*
X113877380Y-143110956D01*
X113877376Y-143110955D01*
X113871471Y-143109500D01*
X113712529Y-143109500D01*
X113706624Y-143110955D01*
X113706619Y-143110956D01*
X113564111Y-143146081D01*
X113564105Y-143146083D01*
X113558207Y-143147537D01*
X113552826Y-143150360D01*
X113552821Y-143150363D01*
X113422861Y-143218571D01*
X113422854Y-143218575D01*
X113417471Y-143221401D01*
X113412918Y-143225434D01*
X113412913Y-143225438D01*
X113303057Y-143322763D01*
X113303054Y-143322765D01*
X113298502Y-143326799D01*
X113295049Y-143331800D01*
X113295044Y-143331807D01*
X113211670Y-143452595D01*
X113211666Y-143452602D01*
X113208213Y-143457605D01*
X113206059Y-143463283D01*
X113206055Y-143463292D01*
X113154007Y-143600530D01*
X113154004Y-143600538D01*
X113151851Y-143606218D01*
X113151118Y-143612249D01*
X113151117Y-143612256D01*
X113133426Y-143757963D01*
X113132693Y-143764000D01*
X113133426Y-143770037D01*
X113151117Y-143915743D01*
X113151118Y-143915748D01*
X113151851Y-143921782D01*
X113154005Y-143927462D01*
X113154007Y-143927469D01*
X113206055Y-144064707D01*
X113206057Y-144064712D01*
X113208213Y-144070395D01*
X113211668Y-144075401D01*
X113211670Y-144075404D01*
X113295044Y-144196192D01*
X113295046Y-144196194D01*
X113298502Y-144201201D01*
X113417471Y-144306599D01*
X113558207Y-144380463D01*
X113712529Y-144418500D01*
X113865383Y-144418500D01*
X113871471Y-144418500D01*
X113957437Y-144397311D01*
X114011438Y-144398943D01*
X114056810Y-144428277D01*
X114080462Y-144476854D01*
X114075573Y-144530661D01*
X114043008Y-144616527D01*
X114043005Y-144616537D01*
X114040851Y-144622218D01*
X114040118Y-144628249D01*
X114040117Y-144628256D01*
X114022426Y-144773963D01*
X114021693Y-144780000D01*
X114022426Y-144786037D01*
X114040117Y-144931743D01*
X114040118Y-144931748D01*
X114040851Y-144937782D01*
X114043006Y-144943464D01*
X114043008Y-144943472D01*
X114075573Y-145029338D01*
X114080462Y-145083145D01*
X114056810Y-145131721D01*
X114011439Y-145161056D01*
X113957435Y-145162688D01*
X113877381Y-145142956D01*
X113877375Y-145142955D01*
X113871471Y-145141500D01*
X113712529Y-145141500D01*
X113706624Y-145142955D01*
X113706619Y-145142956D01*
X113564111Y-145178081D01*
X113564105Y-145178083D01*
X113558207Y-145179537D01*
X113552826Y-145182360D01*
X113552821Y-145182363D01*
X113422861Y-145250571D01*
X113422854Y-145250575D01*
X113417471Y-145253401D01*
X113412918Y-145257434D01*
X113412913Y-145257438D01*
X113303057Y-145354763D01*
X113303054Y-145354765D01*
X113298502Y-145358799D01*
X113295049Y-145363800D01*
X113295044Y-145363807D01*
X113211670Y-145484595D01*
X113211666Y-145484602D01*
X113208213Y-145489605D01*
X113206059Y-145495283D01*
X113206055Y-145495292D01*
X113154007Y-145632530D01*
X113154004Y-145632538D01*
X113151851Y-145638218D01*
X113151118Y-145644249D01*
X113151117Y-145644256D01*
X113133426Y-145789963D01*
X113132693Y-145796000D01*
X83082500Y-145796000D01*
X83082500Y-144805391D01*
X83871902Y-144805391D01*
X83872635Y-144811428D01*
X83890326Y-144957134D01*
X83890327Y-144957139D01*
X83891060Y-144963173D01*
X83893214Y-144968853D01*
X83893216Y-144968860D01*
X83945264Y-145106098D01*
X83945266Y-145106103D01*
X83947422Y-145111786D01*
X83950877Y-145116792D01*
X83950879Y-145116795D01*
X84034253Y-145237583D01*
X84034255Y-145237585D01*
X84037711Y-145242592D01*
X84156680Y-145347990D01*
X84297416Y-145421854D01*
X84451738Y-145459891D01*
X84604592Y-145459891D01*
X84610680Y-145459891D01*
X84765002Y-145421854D01*
X84905738Y-145347990D01*
X85024707Y-145242592D01*
X85114996Y-145111786D01*
X85171358Y-144963173D01*
X85190516Y-144805391D01*
X85171358Y-144647609D01*
X85164018Y-144628256D01*
X85117153Y-144504683D01*
X85117152Y-144504681D01*
X85114996Y-144498996D01*
X85028060Y-144373049D01*
X85010438Y-144321978D01*
X85021777Y-144269153D01*
X85058810Y-144229812D01*
X85106600Y-144216489D01*
X85106546Y-144216037D01*
X85109519Y-144215675D01*
X85110854Y-144215304D01*
X85112583Y-144215304D01*
X85118671Y-144215304D01*
X85272993Y-144177267D01*
X85413729Y-144103403D01*
X85532698Y-143998005D01*
X85622987Y-143867199D01*
X85679349Y-143718586D01*
X85698507Y-143560804D01*
X85679349Y-143403022D01*
X85652340Y-143331807D01*
X85625144Y-143260096D01*
X85625143Y-143260094D01*
X85622987Y-143254409D01*
X85610281Y-143236001D01*
X85536155Y-143128611D01*
X85536153Y-143128609D01*
X85532698Y-143123603D01*
X85413729Y-143018205D01*
X85408341Y-143015377D01*
X85408338Y-143015375D01*
X85278378Y-142947167D01*
X85278376Y-142947166D01*
X85272993Y-142944341D01*
X85267092Y-142942886D01*
X85267088Y-142942885D01*
X85124580Y-142907760D01*
X85124576Y-142907759D01*
X85118671Y-142906304D01*
X84959729Y-142906304D01*
X84953824Y-142907759D01*
X84953819Y-142907760D01*
X84811311Y-142942885D01*
X84811305Y-142942887D01*
X84805407Y-142944341D01*
X84800026Y-142947164D01*
X84800021Y-142947167D01*
X84670061Y-143015375D01*
X84670054Y-143015379D01*
X84664671Y-143018205D01*
X84660118Y-143022238D01*
X84660113Y-143022242D01*
X84550257Y-143119567D01*
X84550254Y-143119569D01*
X84545702Y-143123603D01*
X84542249Y-143128604D01*
X84542244Y-143128611D01*
X84458870Y-143249399D01*
X84458866Y-143249406D01*
X84455413Y-143254409D01*
X84453259Y-143260087D01*
X84453255Y-143260096D01*
X84401207Y-143397334D01*
X84401204Y-143397342D01*
X84399051Y-143403022D01*
X84398318Y-143409053D01*
X84398317Y-143409060D01*
X84380626Y-143554767D01*
X84379893Y-143560804D01*
X84380626Y-143566841D01*
X84398317Y-143712547D01*
X84398318Y-143712552D01*
X84399051Y-143718586D01*
X84401205Y-143724266D01*
X84401207Y-143724273D01*
X84453255Y-143861511D01*
X84453257Y-143861516D01*
X84455413Y-143867199D01*
X84542348Y-143993145D01*
X84559971Y-144044217D01*
X84548632Y-144097042D01*
X84511599Y-144136383D01*
X84463808Y-144149705D01*
X84463863Y-144150158D01*
X84460889Y-144150519D01*
X84459555Y-144150891D01*
X84451738Y-144150891D01*
X84445833Y-144152346D01*
X84445828Y-144152347D01*
X84303320Y-144187472D01*
X84303314Y-144187474D01*
X84297416Y-144188928D01*
X84292035Y-144191751D01*
X84292030Y-144191754D01*
X84162070Y-144259962D01*
X84162063Y-144259966D01*
X84156680Y-144262792D01*
X84152127Y-144266825D01*
X84152122Y-144266829D01*
X84042266Y-144364154D01*
X84042263Y-144364156D01*
X84037711Y-144368190D01*
X84034258Y-144373191D01*
X84034253Y-144373198D01*
X83950879Y-144493986D01*
X83950875Y-144493993D01*
X83947422Y-144498996D01*
X83945268Y-144504674D01*
X83945264Y-144504683D01*
X83893216Y-144641921D01*
X83893213Y-144641929D01*
X83891060Y-144647609D01*
X83890327Y-144653640D01*
X83890326Y-144653647D01*
X83875718Y-144773963D01*
X83871902Y-144805391D01*
X83082500Y-144805391D01*
X83082500Y-142798800D01*
X94489093Y-142798800D01*
X94489826Y-142804837D01*
X94507517Y-142950543D01*
X94507518Y-142950548D01*
X94508251Y-142956582D01*
X94510405Y-142962262D01*
X94510407Y-142962269D01*
X94562455Y-143099507D01*
X94562457Y-143099512D01*
X94564613Y-143105195D01*
X94568068Y-143110201D01*
X94568070Y-143110204D01*
X94651444Y-143230992D01*
X94651446Y-143230994D01*
X94654902Y-143236001D01*
X94773871Y-143341399D01*
X94914607Y-143415263D01*
X95068929Y-143453300D01*
X95221783Y-143453300D01*
X95227871Y-143453300D01*
X95382193Y-143415263D01*
X95522929Y-143341399D01*
X95641898Y-143236001D01*
X95732187Y-143105195D01*
X95788549Y-142956582D01*
X95797833Y-142880119D01*
X95820810Y-142827375D01*
X95864425Y-142798799D01*
X95930974Y-142798799D01*
X95974590Y-142827375D01*
X95997567Y-142880120D01*
X96006117Y-142950543D01*
X96006118Y-142950548D01*
X96006851Y-142956582D01*
X96009005Y-142962262D01*
X96009007Y-142962269D01*
X96061055Y-143099507D01*
X96061057Y-143099512D01*
X96063213Y-143105195D01*
X96066668Y-143110201D01*
X96066670Y-143110204D01*
X96150044Y-143230992D01*
X96150046Y-143230994D01*
X96153502Y-143236001D01*
X96272471Y-143341399D01*
X96413207Y-143415263D01*
X96567529Y-143453300D01*
X96720383Y-143453300D01*
X96726471Y-143453300D01*
X96880793Y-143415263D01*
X97021529Y-143341399D01*
X97140498Y-143236001D01*
X97230787Y-143105195D01*
X97287149Y-142956582D01*
X97306307Y-142798800D01*
X97511693Y-142798800D01*
X97512426Y-142804837D01*
X97530117Y-142950543D01*
X97530118Y-142950548D01*
X97530851Y-142956582D01*
X97533005Y-142962262D01*
X97533007Y-142962269D01*
X97585055Y-143099507D01*
X97585057Y-143099512D01*
X97587213Y-143105195D01*
X97590668Y-143110201D01*
X97590670Y-143110204D01*
X97674044Y-143230992D01*
X97674046Y-143230994D01*
X97677502Y-143236001D01*
X97796471Y-143341399D01*
X97937207Y-143415263D01*
X98091529Y-143453300D01*
X98244383Y-143453300D01*
X98250471Y-143453300D01*
X98404793Y-143415263D01*
X98545529Y-143341399D01*
X98664498Y-143236001D01*
X98754787Y-143105195D01*
X98811149Y-142956582D01*
X98830307Y-142798800D01*
X98811149Y-142641018D01*
X98754787Y-142492405D01*
X98664498Y-142361599D01*
X98545529Y-142256201D01*
X98540141Y-142253373D01*
X98540138Y-142253371D01*
X98410178Y-142185163D01*
X98410176Y-142185162D01*
X98404793Y-142182337D01*
X98398892Y-142180882D01*
X98398888Y-142180881D01*
X98256380Y-142145756D01*
X98256376Y-142145755D01*
X98250471Y-142144300D01*
X98091529Y-142144300D01*
X98085624Y-142145755D01*
X98085619Y-142145756D01*
X97943111Y-142180881D01*
X97943105Y-142180883D01*
X97937207Y-142182337D01*
X97931826Y-142185160D01*
X97931821Y-142185163D01*
X97801861Y-142253371D01*
X97801854Y-142253375D01*
X97796471Y-142256201D01*
X97791918Y-142260234D01*
X97791913Y-142260238D01*
X97682057Y-142357563D01*
X97682054Y-142357565D01*
X97677502Y-142361599D01*
X97674049Y-142366600D01*
X97674044Y-142366607D01*
X97590670Y-142487395D01*
X97590666Y-142487402D01*
X97587213Y-142492405D01*
X97585059Y-142498083D01*
X97585055Y-142498092D01*
X97533007Y-142635330D01*
X97533004Y-142635338D01*
X97530851Y-142641018D01*
X97530118Y-142647049D01*
X97530117Y-142647056D01*
X97521567Y-142717479D01*
X97511693Y-142798800D01*
X97306307Y-142798800D01*
X97287149Y-142641018D01*
X97230787Y-142492405D01*
X97140498Y-142361599D01*
X97021529Y-142256201D01*
X97016141Y-142253373D01*
X97016138Y-142253371D01*
X96886178Y-142185163D01*
X96886176Y-142185162D01*
X96880793Y-142182337D01*
X96874892Y-142180882D01*
X96874888Y-142180881D01*
X96732380Y-142145756D01*
X96732376Y-142145755D01*
X96726471Y-142144300D01*
X96567529Y-142144300D01*
X96561624Y-142145755D01*
X96561619Y-142145756D01*
X96419111Y-142180881D01*
X96419105Y-142180883D01*
X96413207Y-142182337D01*
X96407826Y-142185160D01*
X96407821Y-142185163D01*
X96277861Y-142253371D01*
X96277854Y-142253375D01*
X96272471Y-142256201D01*
X96267918Y-142260234D01*
X96267913Y-142260238D01*
X96158057Y-142357563D01*
X96158054Y-142357565D01*
X96153502Y-142361599D01*
X96150049Y-142366600D01*
X96150044Y-142366607D01*
X96066670Y-142487395D01*
X96066666Y-142487402D01*
X96063213Y-142492405D01*
X96061059Y-142498083D01*
X96061055Y-142498092D01*
X96009007Y-142635330D01*
X96009004Y-142635338D01*
X96006851Y-142641018D01*
X96006118Y-142647049D01*
X96006117Y-142647056D01*
X95997567Y-142717479D01*
X95974590Y-142770224D01*
X95930974Y-142798799D01*
X95864425Y-142798799D01*
X95820810Y-142770224D01*
X95797833Y-142717479D01*
X95789282Y-142647056D01*
X95788549Y-142641018D01*
X95732187Y-142492405D01*
X95641898Y-142361599D01*
X95522929Y-142256201D01*
X95517541Y-142253373D01*
X95517538Y-142253371D01*
X95387578Y-142185163D01*
X95387576Y-142185162D01*
X95382193Y-142182337D01*
X95376292Y-142180882D01*
X95376288Y-142180881D01*
X95233780Y-142145756D01*
X95233776Y-142145755D01*
X95227871Y-142144300D01*
X95068929Y-142144300D01*
X95063024Y-142145755D01*
X95063019Y-142145756D01*
X94920511Y-142180881D01*
X94920505Y-142180883D01*
X94914607Y-142182337D01*
X94909226Y-142185160D01*
X94909221Y-142185163D01*
X94779261Y-142253371D01*
X94779254Y-142253375D01*
X94773871Y-142256201D01*
X94769318Y-142260234D01*
X94769313Y-142260238D01*
X94659457Y-142357563D01*
X94659454Y-142357565D01*
X94654902Y-142361599D01*
X94651449Y-142366600D01*
X94651444Y-142366607D01*
X94568070Y-142487395D01*
X94568066Y-142487402D01*
X94564613Y-142492405D01*
X94562459Y-142498083D01*
X94562455Y-142498092D01*
X94510407Y-142635330D01*
X94510404Y-142635338D01*
X94508251Y-142641018D01*
X94507518Y-142647049D01*
X94507517Y-142647056D01*
X94498967Y-142717479D01*
X94489093Y-142798800D01*
X83082500Y-142798800D01*
X83082500Y-141274800D01*
X94489093Y-141274800D01*
X94489826Y-141280837D01*
X94507517Y-141426543D01*
X94507518Y-141426548D01*
X94508251Y-141432582D01*
X94510405Y-141438262D01*
X94510407Y-141438269D01*
X94562455Y-141575507D01*
X94562457Y-141575512D01*
X94564613Y-141581195D01*
X94568068Y-141586201D01*
X94568070Y-141586204D01*
X94651444Y-141706992D01*
X94651446Y-141706994D01*
X94654902Y-141712001D01*
X94773871Y-141817399D01*
X94914607Y-141891263D01*
X95068929Y-141929300D01*
X95221783Y-141929300D01*
X95227871Y-141929300D01*
X95382193Y-141891263D01*
X95522929Y-141817399D01*
X95641898Y-141712001D01*
X95732187Y-141581195D01*
X95788549Y-141432582D01*
X95797833Y-141356119D01*
X95820810Y-141303375D01*
X95864425Y-141274799D01*
X95930974Y-141274799D01*
X95974590Y-141303375D01*
X95997567Y-141356120D01*
X96006117Y-141426543D01*
X96006118Y-141426548D01*
X96006851Y-141432582D01*
X96009005Y-141438262D01*
X96009007Y-141438269D01*
X96061055Y-141575507D01*
X96061057Y-141575512D01*
X96063213Y-141581195D01*
X96066668Y-141586201D01*
X96066670Y-141586204D01*
X96150044Y-141706992D01*
X96150046Y-141706994D01*
X96153502Y-141712001D01*
X96272471Y-141817399D01*
X96413207Y-141891263D01*
X96567529Y-141929300D01*
X96720383Y-141929300D01*
X96726471Y-141929300D01*
X96880793Y-141891263D01*
X97021529Y-141817399D01*
X97140498Y-141712001D01*
X97230787Y-141581195D01*
X97287149Y-141432582D01*
X97306307Y-141274800D01*
X97511693Y-141274800D01*
X97512426Y-141280837D01*
X97530117Y-141426543D01*
X97530118Y-141426548D01*
X97530851Y-141432582D01*
X97533005Y-141438262D01*
X97533007Y-141438269D01*
X97585055Y-141575507D01*
X97585057Y-141575512D01*
X97587213Y-141581195D01*
X97590668Y-141586201D01*
X97590670Y-141586204D01*
X97674044Y-141706992D01*
X97674046Y-141706994D01*
X97677502Y-141712001D01*
X97796471Y-141817399D01*
X97937207Y-141891263D01*
X98091529Y-141929300D01*
X98244383Y-141929300D01*
X98250471Y-141929300D01*
X98404793Y-141891263D01*
X98545529Y-141817399D01*
X98664498Y-141712001D01*
X98754787Y-141581195D01*
X98811149Y-141432582D01*
X98830307Y-141274800D01*
X98811149Y-141117018D01*
X98754787Y-140968405D01*
X98664498Y-140837599D01*
X98545529Y-140732201D01*
X98540141Y-140729373D01*
X98540138Y-140729371D01*
X98410178Y-140661163D01*
X98410176Y-140661162D01*
X98404793Y-140658337D01*
X98398892Y-140656882D01*
X98398888Y-140656881D01*
X98256380Y-140621756D01*
X98256376Y-140621755D01*
X98250471Y-140620300D01*
X98091529Y-140620300D01*
X98085624Y-140621755D01*
X98085619Y-140621756D01*
X97943111Y-140656881D01*
X97943105Y-140656883D01*
X97937207Y-140658337D01*
X97931826Y-140661160D01*
X97931821Y-140661163D01*
X97801861Y-140729371D01*
X97801854Y-140729375D01*
X97796471Y-140732201D01*
X97791918Y-140736234D01*
X97791913Y-140736238D01*
X97682057Y-140833563D01*
X97682054Y-140833565D01*
X97677502Y-140837599D01*
X97674049Y-140842600D01*
X97674044Y-140842607D01*
X97590670Y-140963395D01*
X97590666Y-140963402D01*
X97587213Y-140968405D01*
X97585059Y-140974083D01*
X97585055Y-140974092D01*
X97533007Y-141111330D01*
X97533004Y-141111338D01*
X97530851Y-141117018D01*
X97530118Y-141123049D01*
X97530117Y-141123056D01*
X97521567Y-141193479D01*
X97511693Y-141274800D01*
X97306307Y-141274800D01*
X97287149Y-141117018D01*
X97230787Y-140968405D01*
X97140498Y-140837599D01*
X97021529Y-140732201D01*
X97016141Y-140729373D01*
X97016138Y-140729371D01*
X96886178Y-140661163D01*
X96886176Y-140661162D01*
X96880793Y-140658337D01*
X96874892Y-140656882D01*
X96874888Y-140656881D01*
X96732380Y-140621756D01*
X96732376Y-140621755D01*
X96726471Y-140620300D01*
X96567529Y-140620300D01*
X96561624Y-140621755D01*
X96561619Y-140621756D01*
X96419111Y-140656881D01*
X96419105Y-140656883D01*
X96413207Y-140658337D01*
X96407826Y-140661160D01*
X96407821Y-140661163D01*
X96277861Y-140729371D01*
X96277854Y-140729375D01*
X96272471Y-140732201D01*
X96267918Y-140736234D01*
X96267913Y-140736238D01*
X96158057Y-140833563D01*
X96158054Y-140833565D01*
X96153502Y-140837599D01*
X96150049Y-140842600D01*
X96150044Y-140842607D01*
X96066670Y-140963395D01*
X96066666Y-140963402D01*
X96063213Y-140968405D01*
X96061059Y-140974083D01*
X96061055Y-140974092D01*
X96009007Y-141111330D01*
X96009004Y-141111338D01*
X96006851Y-141117018D01*
X96006118Y-141123049D01*
X96006117Y-141123056D01*
X95997567Y-141193479D01*
X95974590Y-141246224D01*
X95930974Y-141274799D01*
X95864425Y-141274799D01*
X95820810Y-141246224D01*
X95797833Y-141193479D01*
X95789282Y-141123056D01*
X95788549Y-141117018D01*
X95732187Y-140968405D01*
X95641898Y-140837599D01*
X95522929Y-140732201D01*
X95517541Y-140729373D01*
X95517538Y-140729371D01*
X95387578Y-140661163D01*
X95387576Y-140661162D01*
X95382193Y-140658337D01*
X95376292Y-140656882D01*
X95376288Y-140656881D01*
X95233780Y-140621756D01*
X95233776Y-140621755D01*
X95227871Y-140620300D01*
X95068929Y-140620300D01*
X95063024Y-140621755D01*
X95063019Y-140621756D01*
X94920511Y-140656881D01*
X94920505Y-140656883D01*
X94914607Y-140658337D01*
X94909226Y-140661160D01*
X94909221Y-140661163D01*
X94779261Y-140729371D01*
X94779254Y-140729375D01*
X94773871Y-140732201D01*
X94769318Y-140736234D01*
X94769313Y-140736238D01*
X94659457Y-140833563D01*
X94659454Y-140833565D01*
X94654902Y-140837599D01*
X94651449Y-140842600D01*
X94651444Y-140842607D01*
X94568070Y-140963395D01*
X94568066Y-140963402D01*
X94564613Y-140968405D01*
X94562459Y-140974083D01*
X94562455Y-140974092D01*
X94510407Y-141111330D01*
X94510404Y-141111338D01*
X94508251Y-141117018D01*
X94507518Y-141123049D01*
X94507517Y-141123056D01*
X94498967Y-141193479D01*
X94489093Y-141274800D01*
X83082500Y-141274800D01*
X83082500Y-139750800D01*
X94489093Y-139750800D01*
X94489826Y-139756837D01*
X94507517Y-139902543D01*
X94507518Y-139902548D01*
X94508251Y-139908582D01*
X94510405Y-139914262D01*
X94510407Y-139914269D01*
X94562455Y-140051507D01*
X94562457Y-140051512D01*
X94564613Y-140057195D01*
X94568068Y-140062201D01*
X94568070Y-140062204D01*
X94651444Y-140182992D01*
X94651446Y-140182994D01*
X94654902Y-140188001D01*
X94773871Y-140293399D01*
X94914607Y-140367263D01*
X95068929Y-140405300D01*
X95221783Y-140405300D01*
X95227871Y-140405300D01*
X95382193Y-140367263D01*
X95522929Y-140293399D01*
X95641898Y-140188001D01*
X95732187Y-140057195D01*
X95788549Y-139908582D01*
X95797833Y-139832119D01*
X95820810Y-139779375D01*
X95864425Y-139750799D01*
X95930974Y-139750799D01*
X95974590Y-139779375D01*
X95997567Y-139832120D01*
X96006117Y-139902543D01*
X96006118Y-139902548D01*
X96006851Y-139908582D01*
X96009005Y-139914262D01*
X96009007Y-139914269D01*
X96061055Y-140051507D01*
X96061057Y-140051512D01*
X96063213Y-140057195D01*
X96066668Y-140062201D01*
X96066670Y-140062204D01*
X96150044Y-140182992D01*
X96150046Y-140182994D01*
X96153502Y-140188001D01*
X96272471Y-140293399D01*
X96413207Y-140367263D01*
X96567529Y-140405300D01*
X96720383Y-140405300D01*
X96726471Y-140405300D01*
X96880793Y-140367263D01*
X97021529Y-140293399D01*
X97140498Y-140188001D01*
X97230787Y-140057195D01*
X97287149Y-139908582D01*
X97306307Y-139750800D01*
X97511693Y-139750800D01*
X97512426Y-139756837D01*
X97530117Y-139902543D01*
X97530118Y-139902548D01*
X97530851Y-139908582D01*
X97533005Y-139914262D01*
X97533007Y-139914269D01*
X97585055Y-140051507D01*
X97585057Y-140051512D01*
X97587213Y-140057195D01*
X97590668Y-140062201D01*
X97590670Y-140062204D01*
X97674044Y-140182992D01*
X97674046Y-140182994D01*
X97677502Y-140188001D01*
X97796471Y-140293399D01*
X97937207Y-140367263D01*
X98091529Y-140405300D01*
X98244383Y-140405300D01*
X98250471Y-140405300D01*
X98404793Y-140367263D01*
X98545529Y-140293399D01*
X98664498Y-140188001D01*
X98754787Y-140057195D01*
X98811149Y-139908582D01*
X98830307Y-139750800D01*
X98827223Y-139725400D01*
X107515293Y-139725400D01*
X107516026Y-139731437D01*
X107533717Y-139877143D01*
X107533718Y-139877148D01*
X107534451Y-139883182D01*
X107536605Y-139888862D01*
X107536607Y-139888869D01*
X107588655Y-140026107D01*
X107588657Y-140026112D01*
X107590813Y-140031795D01*
X107594268Y-140036801D01*
X107594270Y-140036804D01*
X107677644Y-140157592D01*
X107677646Y-140157594D01*
X107681102Y-140162601D01*
X107800071Y-140267999D01*
X107940807Y-140341863D01*
X108095129Y-140379900D01*
X108247983Y-140379900D01*
X108254071Y-140379900D01*
X108408393Y-140341863D01*
X108549129Y-140267999D01*
X108668098Y-140162601D01*
X108758387Y-140031795D01*
X108814749Y-139883182D01*
X108833907Y-139725400D01*
X108814749Y-139567618D01*
X108758387Y-139419005D01*
X108689087Y-139318607D01*
X108671555Y-139293207D01*
X108671553Y-139293205D01*
X108668098Y-139288199D01*
X108582356Y-139212238D01*
X108553686Y-139186838D01*
X108553685Y-139186837D01*
X108549129Y-139182801D01*
X108543741Y-139179973D01*
X108543738Y-139179971D01*
X108413778Y-139111763D01*
X108413776Y-139111762D01*
X108408393Y-139108937D01*
X108402492Y-139107482D01*
X108402488Y-139107481D01*
X108259980Y-139072356D01*
X108259976Y-139072355D01*
X108254071Y-139070900D01*
X108095129Y-139070900D01*
X108089224Y-139072355D01*
X108089219Y-139072356D01*
X107946711Y-139107481D01*
X107946705Y-139107483D01*
X107940807Y-139108937D01*
X107935426Y-139111760D01*
X107935421Y-139111763D01*
X107805461Y-139179971D01*
X107805454Y-139179975D01*
X107800071Y-139182801D01*
X107795518Y-139186834D01*
X107795513Y-139186838D01*
X107685657Y-139284163D01*
X107685654Y-139284165D01*
X107681102Y-139288199D01*
X107677649Y-139293200D01*
X107677644Y-139293207D01*
X107594270Y-139413995D01*
X107594266Y-139414002D01*
X107590813Y-139419005D01*
X107588659Y-139424683D01*
X107588655Y-139424692D01*
X107536607Y-139561930D01*
X107536604Y-139561938D01*
X107534451Y-139567618D01*
X107533718Y-139573649D01*
X107533717Y-139573656D01*
X107522083Y-139669479D01*
X107515293Y-139725400D01*
X98827223Y-139725400D01*
X98811149Y-139593018D01*
X98754787Y-139444405D01*
X98737255Y-139419005D01*
X98667955Y-139318607D01*
X98667953Y-139318605D01*
X98664498Y-139313599D01*
X98545529Y-139208201D01*
X98540141Y-139205373D01*
X98540138Y-139205371D01*
X98410178Y-139137163D01*
X98410176Y-139137162D01*
X98404793Y-139134337D01*
X98398892Y-139132882D01*
X98398888Y-139132881D01*
X98256380Y-139097756D01*
X98256376Y-139097755D01*
X98250471Y-139096300D01*
X98091529Y-139096300D01*
X98085624Y-139097755D01*
X98085619Y-139097756D01*
X97943111Y-139132881D01*
X97943105Y-139132883D01*
X97937207Y-139134337D01*
X97931826Y-139137160D01*
X97931821Y-139137163D01*
X97801861Y-139205371D01*
X97801854Y-139205375D01*
X97796471Y-139208201D01*
X97791918Y-139212234D01*
X97791913Y-139212238D01*
X97682057Y-139309563D01*
X97682054Y-139309565D01*
X97677502Y-139313599D01*
X97674049Y-139318600D01*
X97674044Y-139318607D01*
X97590670Y-139439395D01*
X97590666Y-139439402D01*
X97587213Y-139444405D01*
X97585059Y-139450083D01*
X97585055Y-139450092D01*
X97533007Y-139587330D01*
X97533004Y-139587338D01*
X97530851Y-139593018D01*
X97530118Y-139599049D01*
X97530117Y-139599056D01*
X97521567Y-139669479D01*
X97511693Y-139750800D01*
X97306307Y-139750800D01*
X97287149Y-139593018D01*
X97230787Y-139444405D01*
X97213255Y-139419005D01*
X97143955Y-139318607D01*
X97143953Y-139318605D01*
X97140498Y-139313599D01*
X97021529Y-139208201D01*
X97016141Y-139205373D01*
X97016138Y-139205371D01*
X96886178Y-139137163D01*
X96886176Y-139137162D01*
X96880793Y-139134337D01*
X96874892Y-139132882D01*
X96874888Y-139132881D01*
X96732380Y-139097756D01*
X96732376Y-139097755D01*
X96726471Y-139096300D01*
X96567529Y-139096300D01*
X96561624Y-139097755D01*
X96561619Y-139097756D01*
X96419111Y-139132881D01*
X96419105Y-139132883D01*
X96413207Y-139134337D01*
X96407826Y-139137160D01*
X96407821Y-139137163D01*
X96277861Y-139205371D01*
X96277854Y-139205375D01*
X96272471Y-139208201D01*
X96267918Y-139212234D01*
X96267913Y-139212238D01*
X96158057Y-139309563D01*
X96158054Y-139309565D01*
X96153502Y-139313599D01*
X96150049Y-139318600D01*
X96150044Y-139318607D01*
X96066670Y-139439395D01*
X96066666Y-139439402D01*
X96063213Y-139444405D01*
X96061059Y-139450083D01*
X96061055Y-139450092D01*
X96009007Y-139587330D01*
X96009004Y-139587338D01*
X96006851Y-139593018D01*
X96006118Y-139599049D01*
X96006117Y-139599056D01*
X95997567Y-139669479D01*
X95974590Y-139722224D01*
X95930974Y-139750799D01*
X95864425Y-139750799D01*
X95820810Y-139722224D01*
X95797833Y-139669479D01*
X95789282Y-139599056D01*
X95788549Y-139593018D01*
X95732187Y-139444405D01*
X95714655Y-139419005D01*
X95645355Y-139318607D01*
X95645353Y-139318605D01*
X95641898Y-139313599D01*
X95522929Y-139208201D01*
X95517541Y-139205373D01*
X95517538Y-139205371D01*
X95387578Y-139137163D01*
X95387576Y-139137162D01*
X95382193Y-139134337D01*
X95376292Y-139132882D01*
X95376288Y-139132881D01*
X95233780Y-139097756D01*
X95233776Y-139097755D01*
X95227871Y-139096300D01*
X95068929Y-139096300D01*
X95063024Y-139097755D01*
X95063019Y-139097756D01*
X94920511Y-139132881D01*
X94920505Y-139132883D01*
X94914607Y-139134337D01*
X94909226Y-139137160D01*
X94909221Y-139137163D01*
X94779261Y-139205371D01*
X94779254Y-139205375D01*
X94773871Y-139208201D01*
X94769318Y-139212234D01*
X94769313Y-139212238D01*
X94659457Y-139309563D01*
X94659454Y-139309565D01*
X94654902Y-139313599D01*
X94651449Y-139318600D01*
X94651444Y-139318607D01*
X94568070Y-139439395D01*
X94568066Y-139439402D01*
X94564613Y-139444405D01*
X94562459Y-139450083D01*
X94562455Y-139450092D01*
X94510407Y-139587330D01*
X94510404Y-139587338D01*
X94508251Y-139593018D01*
X94507518Y-139599049D01*
X94507517Y-139599056D01*
X94498967Y-139669479D01*
X94489093Y-139750800D01*
X83082500Y-139750800D01*
X83082500Y-138430000D01*
X88494693Y-138430000D01*
X88495426Y-138436037D01*
X88513117Y-138581743D01*
X88513118Y-138581748D01*
X88513851Y-138587782D01*
X88516005Y-138593462D01*
X88516007Y-138593469D01*
X88568055Y-138730707D01*
X88568057Y-138730712D01*
X88570213Y-138736395D01*
X88573668Y-138741401D01*
X88573670Y-138741404D01*
X88657044Y-138862192D01*
X88657046Y-138862194D01*
X88660502Y-138867201D01*
X88779471Y-138972599D01*
X88920207Y-139046463D01*
X89074529Y-139084500D01*
X89227383Y-139084500D01*
X89233471Y-139084500D01*
X89387793Y-139046463D01*
X89528529Y-138972599D01*
X89647498Y-138867201D01*
X89737787Y-138736395D01*
X89794149Y-138587782D01*
X89796551Y-138568000D01*
X101772693Y-138568000D01*
X101773426Y-138574037D01*
X101791117Y-138719743D01*
X101791118Y-138719748D01*
X101791851Y-138725782D01*
X101794005Y-138731462D01*
X101794007Y-138731469D01*
X101846055Y-138868707D01*
X101846057Y-138868712D01*
X101848213Y-138874395D01*
X101851668Y-138879401D01*
X101851670Y-138879404D01*
X101935044Y-139000192D01*
X101935046Y-139000194D01*
X101938502Y-139005201D01*
X102057471Y-139110599D01*
X102198207Y-139184463D01*
X102352529Y-139222500D01*
X102505383Y-139222500D01*
X102511471Y-139222500D01*
X102665793Y-139184463D01*
X102806529Y-139110599D01*
X102925498Y-139005201D01*
X103015787Y-138874395D01*
X103072149Y-138725782D01*
X103091307Y-138568000D01*
X103072149Y-138410218D01*
X103015787Y-138261605D01*
X102925498Y-138130799D01*
X102806529Y-138025401D01*
X102801141Y-138022573D01*
X102801138Y-138022571D01*
X102671178Y-137954363D01*
X102671176Y-137954362D01*
X102665793Y-137951537D01*
X102659892Y-137950082D01*
X102659888Y-137950081D01*
X102517380Y-137914956D01*
X102517376Y-137914955D01*
X102511471Y-137913500D01*
X102352529Y-137913500D01*
X102346624Y-137914955D01*
X102346619Y-137914956D01*
X102204111Y-137950081D01*
X102204105Y-137950083D01*
X102198207Y-137951537D01*
X102192826Y-137954360D01*
X102192821Y-137954363D01*
X102062861Y-138022571D01*
X102062854Y-138022575D01*
X102057471Y-138025401D01*
X102052918Y-138029434D01*
X102052913Y-138029438D01*
X101943057Y-138126763D01*
X101943054Y-138126765D01*
X101938502Y-138130799D01*
X101935049Y-138135800D01*
X101935044Y-138135807D01*
X101851670Y-138256595D01*
X101851666Y-138256602D01*
X101848213Y-138261605D01*
X101846059Y-138267283D01*
X101846055Y-138267292D01*
X101794007Y-138404530D01*
X101794004Y-138404538D01*
X101791851Y-138410218D01*
X101791118Y-138416249D01*
X101791117Y-138416256D01*
X101776266Y-138538576D01*
X101772693Y-138568000D01*
X89796551Y-138568000D01*
X89813307Y-138430000D01*
X89794149Y-138272218D01*
X89740515Y-138130799D01*
X89739944Y-138129292D01*
X89739943Y-138129290D01*
X89737787Y-138123605D01*
X89647498Y-137992799D01*
X89559632Y-137914956D01*
X89533086Y-137891438D01*
X89533085Y-137891437D01*
X89528529Y-137887401D01*
X89523141Y-137884573D01*
X89523138Y-137884571D01*
X89393178Y-137816363D01*
X89393176Y-137816362D01*
X89387793Y-137813537D01*
X89381892Y-137812082D01*
X89381888Y-137812081D01*
X89239380Y-137776956D01*
X89239376Y-137776955D01*
X89233471Y-137775500D01*
X89074529Y-137775500D01*
X89068624Y-137776955D01*
X89068619Y-137776956D01*
X88926111Y-137812081D01*
X88926105Y-137812083D01*
X88920207Y-137813537D01*
X88914826Y-137816360D01*
X88914821Y-137816363D01*
X88784861Y-137884571D01*
X88784854Y-137884575D01*
X88779471Y-137887401D01*
X88774918Y-137891434D01*
X88774913Y-137891438D01*
X88665057Y-137988763D01*
X88665054Y-137988765D01*
X88660502Y-137992799D01*
X88657049Y-137997800D01*
X88657044Y-137997807D01*
X88573670Y-138118595D01*
X88573666Y-138118602D01*
X88570213Y-138123605D01*
X88568059Y-138129283D01*
X88568055Y-138129292D01*
X88516007Y-138266530D01*
X88516004Y-138266538D01*
X88513851Y-138272218D01*
X88513118Y-138278249D01*
X88513117Y-138278256D01*
X88497095Y-138410218D01*
X88494693Y-138430000D01*
X83082500Y-138430000D01*
X83082500Y-137185400D01*
X106190093Y-137185400D01*
X106190826Y-137191437D01*
X106208517Y-137337143D01*
X106208518Y-137337148D01*
X106209251Y-137343182D01*
X106211405Y-137348862D01*
X106211407Y-137348869D01*
X106263455Y-137486107D01*
X106263457Y-137486112D01*
X106265613Y-137491795D01*
X106269068Y-137496801D01*
X106269070Y-137496804D01*
X106352444Y-137617592D01*
X106352446Y-137617594D01*
X106355902Y-137622601D01*
X106474871Y-137727999D01*
X106615607Y-137801863D01*
X106769929Y-137839900D01*
X106922783Y-137839900D01*
X106928871Y-137839900D01*
X107083193Y-137801863D01*
X107096269Y-137795000D01*
X118397768Y-137795000D01*
X118398197Y-137799630D01*
X118412138Y-137950081D01*
X118416655Y-137998821D01*
X118417925Y-138003286D01*
X118417926Y-138003289D01*
X118455630Y-138135807D01*
X118472672Y-138195701D01*
X118474742Y-138199859D01*
X118474744Y-138199863D01*
X118561838Y-138374771D01*
X118561840Y-138374775D01*
X118563912Y-138378935D01*
X118566709Y-138382639D01*
X118566711Y-138382642D01*
X118602474Y-138430000D01*
X118687268Y-138542285D01*
X118690699Y-138545413D01*
X118690703Y-138545417D01*
X118743414Y-138593469D01*
X118838538Y-138680186D01*
X119012573Y-138787944D01*
X119149673Y-138841057D01*
X119199112Y-138860210D01*
X119199114Y-138860210D01*
X119203444Y-138861888D01*
X119404653Y-138899500D01*
X119604693Y-138899500D01*
X119609347Y-138899500D01*
X119810556Y-138861888D01*
X120001427Y-138787944D01*
X120175462Y-138680186D01*
X120191970Y-138665137D01*
X120942500Y-138665137D01*
X120942501Y-138670066D01*
X120943463Y-138674904D01*
X120943464Y-138674911D01*
X120954562Y-138730707D01*
X120957266Y-138744301D01*
X121013516Y-138828484D01*
X121021752Y-138833987D01*
X121064784Y-138862741D01*
X121097699Y-138884734D01*
X121171933Y-138899500D01*
X122922066Y-138899499D01*
X122996301Y-138884734D01*
X123080484Y-138828484D01*
X123136734Y-138744301D01*
X123151500Y-138670067D01*
X123151499Y-136919934D01*
X123136734Y-136845699D01*
X123080484Y-136761516D01*
X123033002Y-136729789D01*
X123004539Y-136710770D01*
X123004536Y-136710769D01*
X122996301Y-136705266D01*
X122986585Y-136703333D01*
X122986582Y-136703332D01*
X122926918Y-136691465D01*
X122922067Y-136690500D01*
X122917120Y-136690500D01*
X121176872Y-136690500D01*
X121176861Y-136690500D01*
X121171934Y-136690501D01*
X121167096Y-136691463D01*
X121167088Y-136691464D01*
X121107416Y-136703333D01*
X121107414Y-136703333D01*
X121097699Y-136705266D01*
X121089463Y-136710768D01*
X121089463Y-136710769D01*
X121021752Y-136756012D01*
X121021749Y-136756014D01*
X121013516Y-136761516D01*
X121008014Y-136769749D01*
X121008012Y-136769752D01*
X120962770Y-136837460D01*
X120962769Y-136837463D01*
X120957266Y-136845699D01*
X120955333Y-136855412D01*
X120955332Y-136855417D01*
X120945000Y-136907364D01*
X120942500Y-136919933D01*
X120942500Y-136924878D01*
X120942500Y-136924879D01*
X120942500Y-138665127D01*
X120942500Y-138665137D01*
X120191970Y-138665137D01*
X120326732Y-138542285D01*
X120450088Y-138378935D01*
X120541328Y-138195701D01*
X120597345Y-137998821D01*
X120616232Y-137795000D01*
X120597345Y-137591179D01*
X120541328Y-137394299D01*
X120450088Y-137211065D01*
X120326732Y-137047715D01*
X120323299Y-137044585D01*
X120323296Y-137044582D01*
X120178900Y-136912948D01*
X120178899Y-136912947D01*
X120175462Y-136909814D01*
X120171510Y-136907367D01*
X120171506Y-136907364D01*
X120005379Y-136804503D01*
X120001427Y-136802056D01*
X119996093Y-136799989D01*
X119814887Y-136729789D01*
X119814878Y-136729786D01*
X119810556Y-136728112D01*
X119750495Y-136716884D01*
X119613922Y-136691355D01*
X119613919Y-136691354D01*
X119609347Y-136690500D01*
X119404653Y-136690500D01*
X119400081Y-136691354D01*
X119400077Y-136691355D01*
X119208012Y-136727258D01*
X119208010Y-136727258D01*
X119203444Y-136728112D01*
X119199123Y-136729785D01*
X119199112Y-136729789D01*
X119016906Y-136800377D01*
X119016902Y-136800378D01*
X119012573Y-136802056D01*
X119008624Y-136804500D01*
X119008620Y-136804503D01*
X118842493Y-136907364D01*
X118842484Y-136907370D01*
X118838538Y-136909814D01*
X118835105Y-136912942D01*
X118835099Y-136912948D01*
X118690703Y-137044582D01*
X118690694Y-137044591D01*
X118687268Y-137047715D01*
X118684471Y-137051417D01*
X118684467Y-137051423D01*
X118566711Y-137207357D01*
X118566705Y-137207365D01*
X118563912Y-137211065D01*
X118561843Y-137215219D01*
X118561838Y-137215228D01*
X118474744Y-137390136D01*
X118474740Y-137390144D01*
X118472672Y-137394299D01*
X118471402Y-137398759D01*
X118471400Y-137398767D01*
X118417926Y-137586710D01*
X118417924Y-137586715D01*
X118416655Y-137591179D01*
X118416226Y-137595801D01*
X118416226Y-137595805D01*
X118403714Y-137730828D01*
X118397768Y-137795000D01*
X107096269Y-137795000D01*
X107223929Y-137727999D01*
X107342898Y-137622601D01*
X107433187Y-137491795D01*
X107489549Y-137343182D01*
X107508707Y-137185400D01*
X107489549Y-137027618D01*
X107448709Y-136919934D01*
X107435344Y-136884692D01*
X107435343Y-136884690D01*
X107433187Y-136879005D01*
X107429729Y-136873995D01*
X107346355Y-136753207D01*
X107346353Y-136753205D01*
X107342898Y-136748199D01*
X107223929Y-136642801D01*
X107218541Y-136639973D01*
X107218538Y-136639971D01*
X107088578Y-136571763D01*
X107088576Y-136571762D01*
X107083193Y-136568937D01*
X107077292Y-136567482D01*
X107077288Y-136567481D01*
X106934780Y-136532356D01*
X106934776Y-136532355D01*
X106928871Y-136530900D01*
X106769929Y-136530900D01*
X106764024Y-136532355D01*
X106764019Y-136532356D01*
X106621511Y-136567481D01*
X106621505Y-136567483D01*
X106615607Y-136568937D01*
X106610226Y-136571760D01*
X106610221Y-136571763D01*
X106480261Y-136639971D01*
X106480254Y-136639975D01*
X106474871Y-136642801D01*
X106470318Y-136646834D01*
X106470313Y-136646838D01*
X106360457Y-136744163D01*
X106360454Y-136744165D01*
X106355902Y-136748199D01*
X106352449Y-136753200D01*
X106352444Y-136753207D01*
X106269070Y-136873995D01*
X106269066Y-136874002D01*
X106265613Y-136879005D01*
X106263459Y-136884683D01*
X106263455Y-136884692D01*
X106211407Y-137021930D01*
X106211404Y-137021938D01*
X106209251Y-137027618D01*
X106208518Y-137033649D01*
X106208517Y-137033656D01*
X106190826Y-137179363D01*
X106190093Y-137185400D01*
X83082500Y-137185400D01*
X83082500Y-136397998D01*
X89002693Y-136397998D01*
X89003426Y-136404035D01*
X89021117Y-136549741D01*
X89021118Y-136549746D01*
X89021851Y-136555780D01*
X89024005Y-136561460D01*
X89024007Y-136561467D01*
X89076055Y-136698705D01*
X89076057Y-136698710D01*
X89078213Y-136704393D01*
X89081668Y-136709399D01*
X89081670Y-136709402D01*
X89165044Y-136830190D01*
X89165046Y-136830192D01*
X89168502Y-136835199D01*
X89287471Y-136940597D01*
X89428207Y-137014461D01*
X89582529Y-137052498D01*
X89735383Y-137052498D01*
X89741471Y-137052498D01*
X89895793Y-137014461D01*
X90036529Y-136940597D01*
X90155498Y-136835199D01*
X90245787Y-136704393D01*
X90302149Y-136555780D01*
X90321307Y-136397998D01*
X90302149Y-136240216D01*
X90263023Y-136137051D01*
X90247944Y-136097290D01*
X90247943Y-136097288D01*
X90245787Y-136091603D01*
X90155498Y-135960797D01*
X90036529Y-135855399D01*
X90031141Y-135852571D01*
X90031138Y-135852569D01*
X89901178Y-135784361D01*
X89901176Y-135784360D01*
X89895793Y-135781535D01*
X89889892Y-135780080D01*
X89889888Y-135780079D01*
X89747380Y-135744954D01*
X89747376Y-135744953D01*
X89741471Y-135743498D01*
X89582529Y-135743498D01*
X89576624Y-135744953D01*
X89576619Y-135744954D01*
X89434111Y-135780079D01*
X89434105Y-135780081D01*
X89428207Y-135781535D01*
X89422826Y-135784358D01*
X89422821Y-135784361D01*
X89292861Y-135852569D01*
X89292854Y-135852573D01*
X89287471Y-135855399D01*
X89282918Y-135859432D01*
X89282913Y-135859436D01*
X89173057Y-135956761D01*
X89173054Y-135956763D01*
X89168502Y-135960797D01*
X89165049Y-135965798D01*
X89165044Y-135965805D01*
X89081670Y-136086593D01*
X89081666Y-136086600D01*
X89078213Y-136091603D01*
X89076059Y-136097281D01*
X89076055Y-136097290D01*
X89024007Y-136234528D01*
X89024004Y-136234536D01*
X89021851Y-136240216D01*
X89021118Y-136246247D01*
X89021117Y-136246254D01*
X89007471Y-136358644D01*
X89002693Y-136397998D01*
X83082500Y-136397998D01*
X83082500Y-135255000D01*
X118397768Y-135255000D01*
X118416655Y-135458821D01*
X118472672Y-135655701D01*
X118474742Y-135659859D01*
X118474744Y-135659863D01*
X118561838Y-135834771D01*
X118561840Y-135834775D01*
X118563912Y-135838935D01*
X118566709Y-135842639D01*
X118566711Y-135842642D01*
X118684467Y-135998576D01*
X118687268Y-136002285D01*
X118690699Y-136005413D01*
X118690703Y-136005417D01*
X118779749Y-136086593D01*
X118838538Y-136140186D01*
X119012573Y-136247944D01*
X119149673Y-136301057D01*
X119199112Y-136320210D01*
X119199114Y-136320210D01*
X119203444Y-136321888D01*
X119404653Y-136359500D01*
X119604693Y-136359500D01*
X119609347Y-136359500D01*
X119810556Y-136321888D01*
X120001427Y-136247944D01*
X120175462Y-136140186D01*
X120326732Y-136002285D01*
X120450088Y-135838935D01*
X120541328Y-135655701D01*
X120597345Y-135458821D01*
X120616232Y-135255000D01*
X120937768Y-135255000D01*
X120956655Y-135458821D01*
X121012672Y-135655701D01*
X121014742Y-135659859D01*
X121014744Y-135659863D01*
X121101838Y-135834771D01*
X121101840Y-135834775D01*
X121103912Y-135838935D01*
X121106709Y-135842639D01*
X121106711Y-135842642D01*
X121224467Y-135998576D01*
X121227268Y-136002285D01*
X121230699Y-136005413D01*
X121230703Y-136005417D01*
X121319749Y-136086593D01*
X121378538Y-136140186D01*
X121552573Y-136247944D01*
X121689673Y-136301057D01*
X121739112Y-136320210D01*
X121739114Y-136320210D01*
X121743444Y-136321888D01*
X121944653Y-136359500D01*
X122144693Y-136359500D01*
X122149347Y-136359500D01*
X122350556Y-136321888D01*
X122541427Y-136247944D01*
X122715462Y-136140186D01*
X122866732Y-136002285D01*
X122990088Y-135838935D01*
X123081328Y-135655701D01*
X123137345Y-135458821D01*
X123156232Y-135255000D01*
X123137345Y-135051179D01*
X123081328Y-134854299D01*
X122990088Y-134671065D01*
X122866732Y-134507715D01*
X122863299Y-134504585D01*
X122863296Y-134504582D01*
X122718900Y-134372948D01*
X122718899Y-134372947D01*
X122715462Y-134369814D01*
X122711510Y-134367367D01*
X122711506Y-134367364D01*
X122545379Y-134264503D01*
X122541427Y-134262056D01*
X122536093Y-134259989D01*
X122354887Y-134189789D01*
X122354878Y-134189786D01*
X122350556Y-134188112D01*
X122290495Y-134176884D01*
X122153922Y-134151355D01*
X122153919Y-134151354D01*
X122149347Y-134150500D01*
X121944653Y-134150500D01*
X121940081Y-134151354D01*
X121940077Y-134151355D01*
X121748012Y-134187258D01*
X121748010Y-134187258D01*
X121743444Y-134188112D01*
X121739123Y-134189785D01*
X121739112Y-134189789D01*
X121556906Y-134260377D01*
X121556902Y-134260378D01*
X121552573Y-134262056D01*
X121548624Y-134264500D01*
X121548620Y-134264503D01*
X121382493Y-134367364D01*
X121382484Y-134367370D01*
X121378538Y-134369814D01*
X121375105Y-134372942D01*
X121375099Y-134372948D01*
X121230703Y-134504582D01*
X121230694Y-134504591D01*
X121227268Y-134507715D01*
X121224471Y-134511417D01*
X121224467Y-134511423D01*
X121106711Y-134667357D01*
X121106705Y-134667365D01*
X121103912Y-134671065D01*
X121101843Y-134675219D01*
X121101838Y-134675228D01*
X121014744Y-134850136D01*
X121014740Y-134850144D01*
X121012672Y-134854299D01*
X121011402Y-134858759D01*
X121011400Y-134858767D01*
X120957926Y-135046710D01*
X120957924Y-135046715D01*
X120956655Y-135051179D01*
X120937768Y-135255000D01*
X120616232Y-135255000D01*
X120597345Y-135051179D01*
X120541328Y-134854299D01*
X120450088Y-134671065D01*
X120326732Y-134507715D01*
X120323299Y-134504585D01*
X120323296Y-134504582D01*
X120178900Y-134372948D01*
X120178899Y-134372947D01*
X120175462Y-134369814D01*
X120171510Y-134367367D01*
X120171506Y-134367364D01*
X120005379Y-134264503D01*
X120001427Y-134262056D01*
X119996093Y-134259989D01*
X119814887Y-134189789D01*
X119814878Y-134189786D01*
X119810556Y-134188112D01*
X119750495Y-134176884D01*
X119613922Y-134151355D01*
X119613919Y-134151354D01*
X119609347Y-134150500D01*
X119404653Y-134150500D01*
X119400081Y-134151354D01*
X119400077Y-134151355D01*
X119208012Y-134187258D01*
X119208010Y-134187258D01*
X119203444Y-134188112D01*
X119199123Y-134189785D01*
X119199112Y-134189789D01*
X119016906Y-134260377D01*
X119016902Y-134260378D01*
X119012573Y-134262056D01*
X119008624Y-134264500D01*
X119008620Y-134264503D01*
X118842493Y-134367364D01*
X118842484Y-134367370D01*
X118838538Y-134369814D01*
X118835105Y-134372942D01*
X118835099Y-134372948D01*
X118690703Y-134504582D01*
X118690694Y-134504591D01*
X118687268Y-134507715D01*
X118684471Y-134511417D01*
X118684467Y-134511423D01*
X118566711Y-134667357D01*
X118566705Y-134667365D01*
X118563912Y-134671065D01*
X118561843Y-134675219D01*
X118561838Y-134675228D01*
X118474744Y-134850136D01*
X118474740Y-134850144D01*
X118472672Y-134854299D01*
X118471402Y-134858759D01*
X118471400Y-134858767D01*
X118417926Y-135046710D01*
X118417924Y-135046715D01*
X118416655Y-135051179D01*
X118397768Y-135255000D01*
X83082500Y-135255000D01*
X83082500Y-133350000D01*
X88621693Y-133350000D01*
X88622426Y-133356037D01*
X88640117Y-133501743D01*
X88640118Y-133501748D01*
X88640851Y-133507782D01*
X88643005Y-133513462D01*
X88643007Y-133513469D01*
X88695055Y-133650707D01*
X88695057Y-133650712D01*
X88697213Y-133656395D01*
X88700668Y-133661401D01*
X88700670Y-133661404D01*
X88784044Y-133782192D01*
X88784046Y-133782194D01*
X88787502Y-133787201D01*
X88906471Y-133892599D01*
X89047207Y-133966463D01*
X89201529Y-134004500D01*
X89354383Y-134004500D01*
X89360471Y-134004500D01*
X89514793Y-133966463D01*
X89655529Y-133892599D01*
X89774498Y-133787201D01*
X89856777Y-133668000D01*
X94844693Y-133668000D01*
X94845426Y-133674037D01*
X94863117Y-133819743D01*
X94863118Y-133819748D01*
X94863851Y-133825782D01*
X94866005Y-133831462D01*
X94866007Y-133831469D01*
X94918055Y-133968707D01*
X94918057Y-133968712D01*
X94920213Y-133974395D01*
X94923668Y-133979401D01*
X94923670Y-133979404D01*
X95007044Y-134100192D01*
X95007046Y-134100194D01*
X95010502Y-134105201D01*
X95129471Y-134210599D01*
X95270207Y-134284463D01*
X95424529Y-134322500D01*
X95577383Y-134322500D01*
X95583471Y-134322500D01*
X95737793Y-134284463D01*
X95878529Y-134210599D01*
X95997498Y-134105201D01*
X96087787Y-133974395D01*
X96144149Y-133825782D01*
X96163307Y-133668000D01*
X96144149Y-133510218D01*
X96087787Y-133361605D01*
X96067986Y-133332918D01*
X96000955Y-133235807D01*
X96000953Y-133235805D01*
X95997498Y-133230799D01*
X95878529Y-133125401D01*
X95873141Y-133122573D01*
X95873138Y-133122571D01*
X95743178Y-133054363D01*
X95743176Y-133054362D01*
X95737793Y-133051537D01*
X95731892Y-133050082D01*
X95731888Y-133050081D01*
X95589380Y-133014956D01*
X95589376Y-133014955D01*
X95583471Y-133013500D01*
X95424529Y-133013500D01*
X95418624Y-133014955D01*
X95418619Y-133014956D01*
X95276111Y-133050081D01*
X95276105Y-133050083D01*
X95270207Y-133051537D01*
X95264826Y-133054360D01*
X95264821Y-133054363D01*
X95134861Y-133122571D01*
X95134854Y-133122575D01*
X95129471Y-133125401D01*
X95124918Y-133129434D01*
X95124913Y-133129438D01*
X95015057Y-133226763D01*
X95015054Y-133226765D01*
X95010502Y-133230799D01*
X95007049Y-133235800D01*
X95007044Y-133235807D01*
X94923670Y-133356595D01*
X94923666Y-133356602D01*
X94920213Y-133361605D01*
X94918059Y-133367283D01*
X94918055Y-133367292D01*
X94866007Y-133504530D01*
X94866004Y-133504538D01*
X94863851Y-133510218D01*
X94863118Y-133516249D01*
X94863117Y-133516256D01*
X94846793Y-133650707D01*
X94844693Y-133668000D01*
X89856777Y-133668000D01*
X89864787Y-133656395D01*
X89921149Y-133507782D01*
X89940307Y-133350000D01*
X89921149Y-133192218D01*
X89905972Y-133152201D01*
X89866944Y-133049292D01*
X89866943Y-133049290D01*
X89864787Y-133043605D01*
X89849457Y-133021395D01*
X89777955Y-132917807D01*
X89777953Y-132917805D01*
X89774498Y-132912799D01*
X89655529Y-132807401D01*
X89650141Y-132804573D01*
X89650138Y-132804571D01*
X89520178Y-132736363D01*
X89520176Y-132736362D01*
X89514793Y-132733537D01*
X89508892Y-132732082D01*
X89508888Y-132732081D01*
X89439588Y-132715000D01*
X101067693Y-132715000D01*
X101068426Y-132721037D01*
X101086117Y-132866743D01*
X101086118Y-132866748D01*
X101086851Y-132872782D01*
X101089005Y-132878462D01*
X101089007Y-132878469D01*
X101141055Y-133015707D01*
X101141057Y-133015712D01*
X101143213Y-133021395D01*
X101146668Y-133026401D01*
X101146670Y-133026404D01*
X101230044Y-133147192D01*
X101230046Y-133147194D01*
X101233502Y-133152201D01*
X101352471Y-133257599D01*
X101493207Y-133331463D01*
X101647529Y-133369500D01*
X101800383Y-133369500D01*
X101806471Y-133369500D01*
X101960793Y-133331463D01*
X102101529Y-133257599D01*
X102220498Y-133152201D01*
X102310787Y-133021395D01*
X102367149Y-132872782D01*
X102386307Y-132715000D01*
X118397768Y-132715000D01*
X118416655Y-132918821D01*
X118417925Y-132923286D01*
X118417926Y-132923289D01*
X118455219Y-133054363D01*
X118472672Y-133115701D01*
X118474742Y-133119859D01*
X118474744Y-133119863D01*
X118561838Y-133294771D01*
X118561840Y-133294775D01*
X118563912Y-133298935D01*
X118566709Y-133302639D01*
X118566711Y-133302642D01*
X118616100Y-133368043D01*
X118687268Y-133462285D01*
X118690699Y-133465413D01*
X118690703Y-133465417D01*
X118743414Y-133513469D01*
X118838538Y-133600186D01*
X119012573Y-133707944D01*
X119149673Y-133761057D01*
X119199112Y-133780210D01*
X119199114Y-133780210D01*
X119203444Y-133781888D01*
X119404653Y-133819500D01*
X119604693Y-133819500D01*
X119609347Y-133819500D01*
X119810556Y-133781888D01*
X120001427Y-133707944D01*
X120175462Y-133600186D01*
X120326732Y-133462285D01*
X120450088Y-133298935D01*
X120541328Y-133115701D01*
X120597345Y-132918821D01*
X120616232Y-132715000D01*
X120937768Y-132715000D01*
X120956655Y-132918821D01*
X120957925Y-132923286D01*
X120957926Y-132923289D01*
X120995219Y-133054363D01*
X121012672Y-133115701D01*
X121014742Y-133119859D01*
X121014744Y-133119863D01*
X121101838Y-133294771D01*
X121101840Y-133294775D01*
X121103912Y-133298935D01*
X121106709Y-133302639D01*
X121106711Y-133302642D01*
X121156100Y-133368043D01*
X121227268Y-133462285D01*
X121230699Y-133465413D01*
X121230703Y-133465417D01*
X121283414Y-133513469D01*
X121378538Y-133600186D01*
X121552573Y-133707944D01*
X121689673Y-133761057D01*
X121739112Y-133780210D01*
X121739114Y-133780210D01*
X121743444Y-133781888D01*
X121944653Y-133819500D01*
X122144693Y-133819500D01*
X122149347Y-133819500D01*
X122350556Y-133781888D01*
X122541427Y-133707944D01*
X122715462Y-133600186D01*
X122866732Y-133462285D01*
X122990088Y-133298935D01*
X123081328Y-133115701D01*
X123137345Y-132918821D01*
X123156232Y-132715000D01*
X123137345Y-132511179D01*
X123081328Y-132314299D01*
X122990088Y-132131065D01*
X122866732Y-131967715D01*
X122863299Y-131964585D01*
X122863296Y-131964582D01*
X122718900Y-131832948D01*
X122718899Y-131832947D01*
X122715462Y-131829814D01*
X122711510Y-131827367D01*
X122711506Y-131827364D01*
X122545379Y-131724503D01*
X122541427Y-131722056D01*
X122536093Y-131719989D01*
X122354887Y-131649789D01*
X122354878Y-131649786D01*
X122350556Y-131648112D01*
X122290495Y-131636884D01*
X122153922Y-131611355D01*
X122153919Y-131611354D01*
X122149347Y-131610500D01*
X121944653Y-131610500D01*
X121940081Y-131611354D01*
X121940077Y-131611355D01*
X121748012Y-131647258D01*
X121748010Y-131647258D01*
X121743444Y-131648112D01*
X121739123Y-131649785D01*
X121739112Y-131649789D01*
X121556906Y-131720377D01*
X121556902Y-131720378D01*
X121552573Y-131722056D01*
X121548624Y-131724500D01*
X121548620Y-131724503D01*
X121382493Y-131827364D01*
X121382484Y-131827370D01*
X121378538Y-131829814D01*
X121375105Y-131832942D01*
X121375099Y-131832948D01*
X121230703Y-131964582D01*
X121230694Y-131964591D01*
X121227268Y-131967715D01*
X121224471Y-131971417D01*
X121224467Y-131971423D01*
X121106711Y-132127357D01*
X121106705Y-132127365D01*
X121103912Y-132131065D01*
X121101843Y-132135219D01*
X121101838Y-132135228D01*
X121014744Y-132310136D01*
X121014740Y-132310144D01*
X121012672Y-132314299D01*
X121011402Y-132318759D01*
X121011400Y-132318767D01*
X120957926Y-132506710D01*
X120957924Y-132506715D01*
X120956655Y-132511179D01*
X120937768Y-132715000D01*
X120616232Y-132715000D01*
X120597345Y-132511179D01*
X120541328Y-132314299D01*
X120450088Y-132131065D01*
X120326732Y-131967715D01*
X120323299Y-131964585D01*
X120323296Y-131964582D01*
X120178900Y-131832948D01*
X120178899Y-131832947D01*
X120175462Y-131829814D01*
X120171510Y-131827367D01*
X120171506Y-131827364D01*
X120005379Y-131724503D01*
X120001427Y-131722056D01*
X119996093Y-131719989D01*
X119814887Y-131649789D01*
X119814878Y-131649786D01*
X119810556Y-131648112D01*
X119750495Y-131636884D01*
X119613922Y-131611355D01*
X119613919Y-131611354D01*
X119609347Y-131610500D01*
X119404653Y-131610500D01*
X119400081Y-131611354D01*
X119400077Y-131611355D01*
X119208012Y-131647258D01*
X119208010Y-131647258D01*
X119203444Y-131648112D01*
X119199123Y-131649785D01*
X119199112Y-131649789D01*
X119016906Y-131720377D01*
X119016902Y-131720378D01*
X119012573Y-131722056D01*
X119008624Y-131724500D01*
X119008620Y-131724503D01*
X118842493Y-131827364D01*
X118842484Y-131827370D01*
X118838538Y-131829814D01*
X118835105Y-131832942D01*
X118835099Y-131832948D01*
X118690703Y-131964582D01*
X118690694Y-131964591D01*
X118687268Y-131967715D01*
X118684471Y-131971417D01*
X118684467Y-131971423D01*
X118566711Y-132127357D01*
X118566705Y-132127365D01*
X118563912Y-132131065D01*
X118561843Y-132135219D01*
X118561838Y-132135228D01*
X118474744Y-132310136D01*
X118474740Y-132310144D01*
X118472672Y-132314299D01*
X118471402Y-132318759D01*
X118471400Y-132318767D01*
X118417926Y-132506710D01*
X118417924Y-132506715D01*
X118416655Y-132511179D01*
X118397768Y-132715000D01*
X102386307Y-132715000D01*
X102367149Y-132557218D01*
X102310787Y-132408605D01*
X102220498Y-132277799D01*
X102101529Y-132172401D01*
X102096141Y-132169573D01*
X102096138Y-132169571D01*
X101966178Y-132101363D01*
X101966176Y-132101362D01*
X101960793Y-132098537D01*
X101954892Y-132097082D01*
X101954888Y-132097081D01*
X101812380Y-132061956D01*
X101812376Y-132061955D01*
X101806471Y-132060500D01*
X101647529Y-132060500D01*
X101641624Y-132061955D01*
X101641619Y-132061956D01*
X101499111Y-132097081D01*
X101499105Y-132097083D01*
X101493207Y-132098537D01*
X101487826Y-132101360D01*
X101487821Y-132101363D01*
X101357861Y-132169571D01*
X101357854Y-132169575D01*
X101352471Y-132172401D01*
X101347918Y-132176434D01*
X101347913Y-132176438D01*
X101238057Y-132273763D01*
X101238054Y-132273765D01*
X101233502Y-132277799D01*
X101230049Y-132282800D01*
X101230044Y-132282807D01*
X101146670Y-132403595D01*
X101146666Y-132403602D01*
X101143213Y-132408605D01*
X101141059Y-132414283D01*
X101141055Y-132414292D01*
X101089007Y-132551530D01*
X101089004Y-132551538D01*
X101086851Y-132557218D01*
X101086118Y-132563249D01*
X101086117Y-132563256D01*
X101070061Y-132695500D01*
X101067693Y-132715000D01*
X89439588Y-132715000D01*
X89366380Y-132696956D01*
X89366376Y-132696955D01*
X89360471Y-132695500D01*
X89201529Y-132695500D01*
X89195624Y-132696955D01*
X89195619Y-132696956D01*
X89053111Y-132732081D01*
X89053105Y-132732083D01*
X89047207Y-132733537D01*
X89041826Y-132736360D01*
X89041821Y-132736363D01*
X88911861Y-132804571D01*
X88911854Y-132804575D01*
X88906471Y-132807401D01*
X88901918Y-132811434D01*
X88901913Y-132811438D01*
X88792057Y-132908763D01*
X88792054Y-132908765D01*
X88787502Y-132912799D01*
X88784049Y-132917800D01*
X88784044Y-132917807D01*
X88700670Y-133038595D01*
X88700666Y-133038602D01*
X88697213Y-133043605D01*
X88695059Y-133049283D01*
X88695055Y-133049292D01*
X88643007Y-133186530D01*
X88643004Y-133186538D01*
X88640851Y-133192218D01*
X88640118Y-133198249D01*
X88640117Y-133198256D01*
X88628399Y-133294771D01*
X88621693Y-133350000D01*
X83082500Y-133350000D01*
X83082500Y-130175000D01*
X118397768Y-130175000D01*
X118416655Y-130378821D01*
X118472672Y-130575701D01*
X118474742Y-130579859D01*
X118474744Y-130579863D01*
X118561838Y-130754771D01*
X118561840Y-130754775D01*
X118563912Y-130758935D01*
X118687268Y-130922285D01*
X118690699Y-130925413D01*
X118690703Y-130925417D01*
X118835099Y-131057051D01*
X118838538Y-131060186D01*
X119012573Y-131167944D01*
X119149673Y-131221057D01*
X119199112Y-131240210D01*
X119199114Y-131240210D01*
X119203444Y-131241888D01*
X119404653Y-131279500D01*
X119604693Y-131279500D01*
X119609347Y-131279500D01*
X119810556Y-131241888D01*
X120001427Y-131167944D01*
X120175462Y-131060186D01*
X120326732Y-130922285D01*
X120450088Y-130758935D01*
X120541328Y-130575701D01*
X120597345Y-130378821D01*
X120616232Y-130175000D01*
X120937768Y-130175000D01*
X120956655Y-130378821D01*
X121012672Y-130575701D01*
X121014742Y-130579859D01*
X121014744Y-130579863D01*
X121101838Y-130754771D01*
X121101840Y-130754775D01*
X121103912Y-130758935D01*
X121227268Y-130922285D01*
X121230699Y-130925413D01*
X121230703Y-130925417D01*
X121375099Y-131057051D01*
X121378538Y-131060186D01*
X121552573Y-131167944D01*
X121689673Y-131221057D01*
X121739112Y-131240210D01*
X121739114Y-131240210D01*
X121743444Y-131241888D01*
X121944653Y-131279500D01*
X122144693Y-131279500D01*
X122149347Y-131279500D01*
X122350556Y-131241888D01*
X122541427Y-131167944D01*
X122715462Y-131060186D01*
X122866732Y-130922285D01*
X122990088Y-130758935D01*
X123081328Y-130575701D01*
X123137345Y-130378821D01*
X123156232Y-130175000D01*
X123137345Y-129971179D01*
X123081328Y-129774299D01*
X122990088Y-129591065D01*
X122866732Y-129427715D01*
X122863299Y-129424585D01*
X122863296Y-129424582D01*
X122718900Y-129292948D01*
X122718899Y-129292947D01*
X122715462Y-129289814D01*
X122711510Y-129287367D01*
X122711506Y-129287364D01*
X122545379Y-129184503D01*
X122541427Y-129182056D01*
X122536093Y-129179989D01*
X122354887Y-129109789D01*
X122354878Y-129109786D01*
X122350556Y-129108112D01*
X122290495Y-129096884D01*
X122153922Y-129071355D01*
X122153919Y-129071354D01*
X122149347Y-129070500D01*
X121944653Y-129070500D01*
X121940081Y-129071354D01*
X121940077Y-129071355D01*
X121748012Y-129107258D01*
X121748010Y-129107258D01*
X121743444Y-129108112D01*
X121739123Y-129109785D01*
X121739112Y-129109789D01*
X121556906Y-129180377D01*
X121556902Y-129180378D01*
X121552573Y-129182056D01*
X121548624Y-129184500D01*
X121548620Y-129184503D01*
X121382493Y-129287364D01*
X121382484Y-129287370D01*
X121378538Y-129289814D01*
X121375105Y-129292942D01*
X121375099Y-129292948D01*
X121230703Y-129424582D01*
X121230694Y-129424591D01*
X121227268Y-129427715D01*
X121224471Y-129431417D01*
X121224467Y-129431423D01*
X121106711Y-129587357D01*
X121106705Y-129587365D01*
X121103912Y-129591065D01*
X121101843Y-129595219D01*
X121101838Y-129595228D01*
X121014744Y-129770136D01*
X121014740Y-129770144D01*
X121012672Y-129774299D01*
X121011402Y-129778759D01*
X121011400Y-129778767D01*
X120957926Y-129966710D01*
X120957924Y-129966715D01*
X120956655Y-129971179D01*
X120937768Y-130175000D01*
X120616232Y-130175000D01*
X120597345Y-129971179D01*
X120541328Y-129774299D01*
X120450088Y-129591065D01*
X120326732Y-129427715D01*
X120323299Y-129424585D01*
X120323296Y-129424582D01*
X120178900Y-129292948D01*
X120178899Y-129292947D01*
X120175462Y-129289814D01*
X120171510Y-129287367D01*
X120171506Y-129287364D01*
X120005379Y-129184503D01*
X120001427Y-129182056D01*
X119996093Y-129179989D01*
X119814887Y-129109789D01*
X119814878Y-129109786D01*
X119810556Y-129108112D01*
X119750495Y-129096884D01*
X119613922Y-129071355D01*
X119613919Y-129071354D01*
X119609347Y-129070500D01*
X119404653Y-129070500D01*
X119400081Y-129071354D01*
X119400077Y-129071355D01*
X119208012Y-129107258D01*
X119208010Y-129107258D01*
X119203444Y-129108112D01*
X119199123Y-129109785D01*
X119199112Y-129109789D01*
X119016906Y-129180377D01*
X119016902Y-129180378D01*
X119012573Y-129182056D01*
X119008624Y-129184500D01*
X119008620Y-129184503D01*
X118842493Y-129287364D01*
X118842484Y-129287370D01*
X118838538Y-129289814D01*
X118835105Y-129292942D01*
X118835099Y-129292948D01*
X118690703Y-129424582D01*
X118690694Y-129424591D01*
X118687268Y-129427715D01*
X118684471Y-129431417D01*
X118684467Y-129431423D01*
X118566711Y-129587357D01*
X118566705Y-129587365D01*
X118563912Y-129591065D01*
X118561843Y-129595219D01*
X118561838Y-129595228D01*
X118474744Y-129770136D01*
X118474740Y-129770144D01*
X118472672Y-129774299D01*
X118471402Y-129778759D01*
X118471400Y-129778767D01*
X118417926Y-129966710D01*
X118417924Y-129966715D01*
X118416655Y-129971179D01*
X118397768Y-130175000D01*
X83082500Y-130175000D01*
X83082500Y-129294600D01*
X90865293Y-129294600D01*
X90866026Y-129300637D01*
X90883717Y-129446343D01*
X90883718Y-129446348D01*
X90884451Y-129452382D01*
X90886605Y-129458062D01*
X90886607Y-129458069D01*
X90938655Y-129595307D01*
X90938657Y-129595312D01*
X90940813Y-129600995D01*
X90944268Y-129606001D01*
X90944270Y-129606004D01*
X91027644Y-129726792D01*
X91027646Y-129726794D01*
X91031102Y-129731801D01*
X91150071Y-129837199D01*
X91290807Y-129911063D01*
X91445129Y-129949100D01*
X91597983Y-129949100D01*
X91604071Y-129949100D01*
X91758393Y-129911063D01*
X91899129Y-129837199D01*
X92018098Y-129731801D01*
X92108387Y-129600995D01*
X92164749Y-129452382D01*
X92183907Y-129294600D01*
X92164749Y-129136818D01*
X92108387Y-128988205D01*
X92039164Y-128887918D01*
X92021555Y-128862407D01*
X92021553Y-128862405D01*
X92018098Y-128857399D01*
X91899129Y-128752001D01*
X91893741Y-128749173D01*
X91893738Y-128749171D01*
X91763778Y-128680963D01*
X91763776Y-128680962D01*
X91758393Y-128678137D01*
X91752492Y-128676682D01*
X91752488Y-128676681D01*
X91609980Y-128641556D01*
X91609976Y-128641555D01*
X91604071Y-128640100D01*
X91445129Y-128640100D01*
X91439224Y-128641555D01*
X91439219Y-128641556D01*
X91296711Y-128676681D01*
X91296705Y-128676683D01*
X91290807Y-128678137D01*
X91285426Y-128680960D01*
X91285421Y-128680963D01*
X91155461Y-128749171D01*
X91155454Y-128749175D01*
X91150071Y-128752001D01*
X91145518Y-128756034D01*
X91145513Y-128756038D01*
X91035657Y-128853363D01*
X91035654Y-128853365D01*
X91031102Y-128857399D01*
X91027649Y-128862400D01*
X91027644Y-128862407D01*
X90944270Y-128983195D01*
X90944266Y-128983202D01*
X90940813Y-128988205D01*
X90938659Y-128993883D01*
X90938655Y-128993892D01*
X90886607Y-129131130D01*
X90886604Y-129131138D01*
X90884451Y-129136818D01*
X90883718Y-129142849D01*
X90883717Y-129142856D01*
X90866172Y-129287364D01*
X90865293Y-129294600D01*
X83082500Y-129294600D01*
X83082500Y-128270000D01*
X86081693Y-128270000D01*
X86082426Y-128276037D01*
X86100117Y-128421743D01*
X86100118Y-128421748D01*
X86100851Y-128427782D01*
X86103005Y-128433462D01*
X86103007Y-128433469D01*
X86155055Y-128570707D01*
X86155057Y-128570712D01*
X86157213Y-128576395D01*
X86160668Y-128581401D01*
X86160670Y-128581404D01*
X86244044Y-128702192D01*
X86244046Y-128702194D01*
X86247502Y-128707201D01*
X86366471Y-128812599D01*
X86507207Y-128886463D01*
X86661529Y-128924500D01*
X86814383Y-128924500D01*
X86820471Y-128924500D01*
X86974793Y-128886463D01*
X87115529Y-128812599D01*
X87234498Y-128707201D01*
X87324787Y-128576395D01*
X87381149Y-128427782D01*
X87400307Y-128270000D01*
X87381149Y-128112218D01*
X87376590Y-128100198D01*
X87326944Y-127969292D01*
X87326943Y-127969290D01*
X87324787Y-127963605D01*
X87234498Y-127832799D01*
X87115529Y-127727401D01*
X87110141Y-127724573D01*
X87110138Y-127724571D01*
X87002362Y-127668006D01*
X108472693Y-127668006D01*
X108473426Y-127674043D01*
X108491117Y-127819749D01*
X108491118Y-127819754D01*
X108491851Y-127825788D01*
X108494005Y-127831468D01*
X108494007Y-127831475D01*
X108546055Y-127968713D01*
X108546057Y-127968718D01*
X108548213Y-127974401D01*
X108551668Y-127979407D01*
X108551670Y-127979410D01*
X108635044Y-128100198D01*
X108635046Y-128100200D01*
X108638502Y-128105207D01*
X108757471Y-128210605D01*
X108898207Y-128284469D01*
X109052529Y-128322506D01*
X109205383Y-128322506D01*
X109211471Y-128322506D01*
X109365793Y-128284469D01*
X109506529Y-128210605D01*
X109625498Y-128105207D01*
X109715787Y-127974401D01*
X109772149Y-127825788D01*
X109787604Y-127698500D01*
X117958693Y-127698500D01*
X117959426Y-127704537D01*
X117977117Y-127850243D01*
X117977118Y-127850248D01*
X117977851Y-127856282D01*
X117980005Y-127861962D01*
X117980007Y-127861969D01*
X118032055Y-127999207D01*
X118032057Y-127999212D01*
X118034213Y-128004895D01*
X118037668Y-128009901D01*
X118037670Y-128009904D01*
X118121044Y-128130692D01*
X118121046Y-128130694D01*
X118124502Y-128135701D01*
X118243471Y-128241099D01*
X118384207Y-128314963D01*
X118538529Y-128353000D01*
X118691383Y-128353000D01*
X118697471Y-128353000D01*
X118851793Y-128314963D01*
X118992529Y-128241099D01*
X119111498Y-128135701D01*
X119201787Y-128004895D01*
X119258149Y-127856282D01*
X119277307Y-127698500D01*
X122022693Y-127698500D01*
X122023426Y-127704537D01*
X122041117Y-127850243D01*
X122041118Y-127850248D01*
X122041851Y-127856282D01*
X122044005Y-127861962D01*
X122044007Y-127861969D01*
X122096055Y-127999207D01*
X122096057Y-127999212D01*
X122098213Y-128004895D01*
X122101668Y-128009901D01*
X122101670Y-128009904D01*
X122185044Y-128130692D01*
X122185046Y-128130694D01*
X122188502Y-128135701D01*
X122307471Y-128241099D01*
X122448207Y-128314963D01*
X122602529Y-128353000D01*
X122755383Y-128353000D01*
X122761471Y-128353000D01*
X122915793Y-128314963D01*
X123056529Y-128241099D01*
X123175498Y-128135701D01*
X123265787Y-128004895D01*
X123322149Y-127856282D01*
X123341307Y-127698500D01*
X123322149Y-127540718D01*
X123265787Y-127392105D01*
X123248664Y-127367298D01*
X123178955Y-127266307D01*
X123178953Y-127266305D01*
X123175498Y-127261299D01*
X123056529Y-127155901D01*
X123051141Y-127153073D01*
X123051138Y-127153071D01*
X122921178Y-127084863D01*
X122921176Y-127084862D01*
X122915793Y-127082037D01*
X122909892Y-127080582D01*
X122909888Y-127080581D01*
X122767380Y-127045456D01*
X122767376Y-127045455D01*
X122761471Y-127044000D01*
X122602529Y-127044000D01*
X122596624Y-127045455D01*
X122596619Y-127045456D01*
X122454111Y-127080581D01*
X122454105Y-127080583D01*
X122448207Y-127082037D01*
X122442826Y-127084860D01*
X122442821Y-127084863D01*
X122312861Y-127153071D01*
X122312854Y-127153075D01*
X122307471Y-127155901D01*
X122302918Y-127159934D01*
X122302913Y-127159938D01*
X122193057Y-127257263D01*
X122193054Y-127257265D01*
X122188502Y-127261299D01*
X122185049Y-127266300D01*
X122185044Y-127266307D01*
X122101670Y-127387095D01*
X122101666Y-127387102D01*
X122098213Y-127392105D01*
X122096059Y-127397783D01*
X122096055Y-127397792D01*
X122044007Y-127535030D01*
X122044004Y-127535038D01*
X122041851Y-127540718D01*
X122041118Y-127546749D01*
X122041117Y-127546756D01*
X122023426Y-127692463D01*
X122022693Y-127698500D01*
X119277307Y-127698500D01*
X119258149Y-127540718D01*
X119201787Y-127392105D01*
X119184664Y-127367298D01*
X119114955Y-127266307D01*
X119114953Y-127266305D01*
X119111498Y-127261299D01*
X118992529Y-127155901D01*
X118987141Y-127153073D01*
X118987138Y-127153071D01*
X118857178Y-127084863D01*
X118857176Y-127084862D01*
X118851793Y-127082037D01*
X118845892Y-127080582D01*
X118845888Y-127080581D01*
X118703380Y-127045456D01*
X118703376Y-127045455D01*
X118697471Y-127044000D01*
X118538529Y-127044000D01*
X118532624Y-127045455D01*
X118532619Y-127045456D01*
X118390111Y-127080581D01*
X118390105Y-127080583D01*
X118384207Y-127082037D01*
X118378826Y-127084860D01*
X118378821Y-127084863D01*
X118248861Y-127153071D01*
X118248854Y-127153075D01*
X118243471Y-127155901D01*
X118238918Y-127159934D01*
X118238913Y-127159938D01*
X118129057Y-127257263D01*
X118129054Y-127257265D01*
X118124502Y-127261299D01*
X118121049Y-127266300D01*
X118121044Y-127266307D01*
X118037670Y-127387095D01*
X118037666Y-127387102D01*
X118034213Y-127392105D01*
X118032059Y-127397783D01*
X118032055Y-127397792D01*
X117980007Y-127535030D01*
X117980004Y-127535038D01*
X117977851Y-127540718D01*
X117977118Y-127546749D01*
X117977117Y-127546756D01*
X117959426Y-127692463D01*
X117958693Y-127698500D01*
X109787604Y-127698500D01*
X109791307Y-127668006D01*
X109772149Y-127510224D01*
X109715787Y-127361611D01*
X109712329Y-127356601D01*
X109628955Y-127235813D01*
X109628953Y-127235811D01*
X109625498Y-127230805D01*
X109506529Y-127125407D01*
X109501141Y-127122579D01*
X109501138Y-127122577D01*
X109371178Y-127054369D01*
X109371176Y-127054368D01*
X109365793Y-127051543D01*
X109359892Y-127050088D01*
X109359888Y-127050087D01*
X109217380Y-127014962D01*
X109217376Y-127014961D01*
X109211471Y-127013506D01*
X109052529Y-127013506D01*
X109046624Y-127014961D01*
X109046619Y-127014962D01*
X108904111Y-127050087D01*
X108904105Y-127050089D01*
X108898207Y-127051543D01*
X108892826Y-127054366D01*
X108892821Y-127054369D01*
X108762861Y-127122577D01*
X108762854Y-127122581D01*
X108757471Y-127125407D01*
X108752918Y-127129440D01*
X108752913Y-127129444D01*
X108643057Y-127226769D01*
X108643054Y-127226771D01*
X108638502Y-127230805D01*
X108635049Y-127235806D01*
X108635044Y-127235813D01*
X108551670Y-127356601D01*
X108551666Y-127356608D01*
X108548213Y-127361611D01*
X108546059Y-127367289D01*
X108546055Y-127367298D01*
X108494007Y-127504536D01*
X108494004Y-127504544D01*
X108491851Y-127510224D01*
X108491118Y-127516255D01*
X108491117Y-127516262D01*
X108474627Y-127652081D01*
X108472693Y-127668006D01*
X87002362Y-127668006D01*
X86980178Y-127656363D01*
X86980176Y-127656362D01*
X86974793Y-127653537D01*
X86968892Y-127652082D01*
X86968888Y-127652081D01*
X86826380Y-127616956D01*
X86826376Y-127616955D01*
X86820471Y-127615500D01*
X86661529Y-127615500D01*
X86655624Y-127616955D01*
X86655619Y-127616956D01*
X86513111Y-127652081D01*
X86513105Y-127652083D01*
X86507207Y-127653537D01*
X86501826Y-127656360D01*
X86501821Y-127656363D01*
X86371861Y-127724571D01*
X86371854Y-127724575D01*
X86366471Y-127727401D01*
X86361918Y-127731434D01*
X86361913Y-127731438D01*
X86252057Y-127828763D01*
X86252054Y-127828765D01*
X86247502Y-127832799D01*
X86244049Y-127837800D01*
X86244044Y-127837807D01*
X86160670Y-127958595D01*
X86160666Y-127958602D01*
X86157213Y-127963605D01*
X86155059Y-127969283D01*
X86155055Y-127969292D01*
X86103007Y-128106530D01*
X86103004Y-128106538D01*
X86100851Y-128112218D01*
X86100118Y-128118249D01*
X86100117Y-128118256D01*
X86088561Y-128213434D01*
X86081693Y-128270000D01*
X83082500Y-128270000D01*
X83082500Y-123037600D01*
X84615768Y-123037600D01*
X84634655Y-123241421D01*
X84635925Y-123245886D01*
X84635926Y-123245889D01*
X84679932Y-123400556D01*
X84690672Y-123438301D01*
X84692742Y-123442459D01*
X84692744Y-123442463D01*
X84779838Y-123617371D01*
X84779840Y-123617375D01*
X84781912Y-123621535D01*
X84905268Y-123784885D01*
X84908699Y-123788013D01*
X84908703Y-123788017D01*
X85033579Y-123901856D01*
X85056538Y-123922786D01*
X85230573Y-124030544D01*
X85305671Y-124059637D01*
X85417112Y-124102810D01*
X85417114Y-124102810D01*
X85421444Y-124104488D01*
X85622653Y-124142100D01*
X85822693Y-124142100D01*
X85827347Y-124142100D01*
X86028556Y-124104488D01*
X86159913Y-124053600D01*
X109872693Y-124053600D01*
X109873426Y-124059637D01*
X109891117Y-124205343D01*
X109891118Y-124205348D01*
X109891851Y-124211382D01*
X109894005Y-124217062D01*
X109894007Y-124217069D01*
X109946055Y-124354307D01*
X109946057Y-124354312D01*
X109948213Y-124359995D01*
X109951668Y-124365001D01*
X109951670Y-124365004D01*
X110035044Y-124485792D01*
X110035046Y-124485794D01*
X110038502Y-124490801D01*
X110157471Y-124596199D01*
X110298207Y-124670063D01*
X110452529Y-124708100D01*
X110605383Y-124708100D01*
X110611471Y-124708100D01*
X110765793Y-124670063D01*
X110906529Y-124596199D01*
X111015292Y-124499841D01*
X111057925Y-124477467D01*
X111106075Y-124477467D01*
X111148707Y-124499841D01*
X111257471Y-124596199D01*
X111398207Y-124670063D01*
X111552529Y-124708100D01*
X111705383Y-124708100D01*
X111711471Y-124708100D01*
X111865793Y-124670063D01*
X112006529Y-124596199D01*
X112115292Y-124499841D01*
X112157925Y-124477467D01*
X112206075Y-124477467D01*
X112248707Y-124499841D01*
X112357471Y-124596199D01*
X112498207Y-124670063D01*
X112652529Y-124708100D01*
X112805383Y-124708100D01*
X112811471Y-124708100D01*
X112965793Y-124670063D01*
X113106529Y-124596199D01*
X113225498Y-124490801D01*
X113315787Y-124359995D01*
X113372149Y-124211382D01*
X113391307Y-124053600D01*
X113372149Y-123895818D01*
X113315787Y-123747205D01*
X113225498Y-123616399D01*
X113106529Y-123511001D01*
X113101141Y-123508173D01*
X113101138Y-123508171D01*
X112971178Y-123439963D01*
X112971176Y-123439962D01*
X112965793Y-123437137D01*
X112959892Y-123435682D01*
X112959888Y-123435681D01*
X112817380Y-123400556D01*
X112817376Y-123400555D01*
X112811471Y-123399100D01*
X112652529Y-123399100D01*
X112646624Y-123400555D01*
X112646619Y-123400556D01*
X112504111Y-123435681D01*
X112504105Y-123435683D01*
X112498207Y-123437137D01*
X112492826Y-123439960D01*
X112492821Y-123439963D01*
X112362861Y-123508171D01*
X112362854Y-123508175D01*
X112357471Y-123511001D01*
X112352918Y-123515034D01*
X112352913Y-123515038D01*
X112248710Y-123607355D01*
X112206075Y-123629732D01*
X112157925Y-123629732D01*
X112115290Y-123607355D01*
X112011086Y-123515038D01*
X112011085Y-123515037D01*
X112006529Y-123511001D01*
X112001141Y-123508173D01*
X112001138Y-123508171D01*
X111871178Y-123439963D01*
X111871176Y-123439962D01*
X111865793Y-123437137D01*
X111859892Y-123435682D01*
X111859888Y-123435681D01*
X111717380Y-123400556D01*
X111717376Y-123400555D01*
X111711471Y-123399100D01*
X111552529Y-123399100D01*
X111546624Y-123400555D01*
X111546619Y-123400556D01*
X111404111Y-123435681D01*
X111404105Y-123435683D01*
X111398207Y-123437137D01*
X111392826Y-123439960D01*
X111392821Y-123439963D01*
X111262861Y-123508171D01*
X111262854Y-123508175D01*
X111257471Y-123511001D01*
X111252918Y-123515034D01*
X111252913Y-123515038D01*
X111148710Y-123607355D01*
X111106075Y-123629732D01*
X111057925Y-123629732D01*
X111015290Y-123607355D01*
X110911086Y-123515038D01*
X110911085Y-123515037D01*
X110906529Y-123511001D01*
X110901141Y-123508173D01*
X110901138Y-123508171D01*
X110771178Y-123439963D01*
X110771176Y-123439962D01*
X110765793Y-123437137D01*
X110759892Y-123435682D01*
X110759888Y-123435681D01*
X110617380Y-123400556D01*
X110617376Y-123400555D01*
X110611471Y-123399100D01*
X110452529Y-123399100D01*
X110446624Y-123400555D01*
X110446619Y-123400556D01*
X110304111Y-123435681D01*
X110304105Y-123435683D01*
X110298207Y-123437137D01*
X110292826Y-123439960D01*
X110292821Y-123439963D01*
X110162861Y-123508171D01*
X110162854Y-123508175D01*
X110157471Y-123511001D01*
X110152918Y-123515034D01*
X110152913Y-123515038D01*
X110043057Y-123612363D01*
X110043054Y-123612365D01*
X110038502Y-123616399D01*
X110035049Y-123621400D01*
X110035044Y-123621407D01*
X109951670Y-123742195D01*
X109951666Y-123742202D01*
X109948213Y-123747205D01*
X109946059Y-123752883D01*
X109946055Y-123752892D01*
X109894007Y-123890130D01*
X109894004Y-123890138D01*
X109891851Y-123895818D01*
X109891118Y-123901849D01*
X109891117Y-123901856D01*
X109875790Y-124028096D01*
X109872693Y-124053600D01*
X86159913Y-124053600D01*
X86219427Y-124030544D01*
X86393462Y-123922786D01*
X86544732Y-123784885D01*
X86668088Y-123621535D01*
X86759328Y-123438301D01*
X86815345Y-123241421D01*
X86834232Y-123037600D01*
X86815345Y-122833779D01*
X86759328Y-122636899D01*
X86668088Y-122453665D01*
X86544732Y-122290315D01*
X86541299Y-122287185D01*
X86541296Y-122287182D01*
X86396900Y-122155548D01*
X86396899Y-122155547D01*
X86393462Y-122152414D01*
X86389510Y-122149967D01*
X86389506Y-122149964D01*
X86223379Y-122047103D01*
X86219427Y-122044656D01*
X86214093Y-122042589D01*
X86032887Y-121972389D01*
X86032878Y-121972386D01*
X86028556Y-121970712D01*
X85968495Y-121959484D01*
X85831922Y-121933955D01*
X85831919Y-121933954D01*
X85827347Y-121933100D01*
X85622653Y-121933100D01*
X85618081Y-121933954D01*
X85618077Y-121933955D01*
X85426012Y-121969858D01*
X85426010Y-121969858D01*
X85421444Y-121970712D01*
X85417123Y-121972385D01*
X85417112Y-121972389D01*
X85234906Y-122042977D01*
X85234902Y-122042978D01*
X85230573Y-122044656D01*
X85226624Y-122047100D01*
X85226620Y-122047103D01*
X85060493Y-122149964D01*
X85060484Y-122149970D01*
X85056538Y-122152414D01*
X85053105Y-122155542D01*
X85053099Y-122155548D01*
X84908703Y-122287182D01*
X84908694Y-122287191D01*
X84905268Y-122290315D01*
X84902471Y-122294017D01*
X84902467Y-122294023D01*
X84784711Y-122449957D01*
X84784705Y-122449965D01*
X84781912Y-122453665D01*
X84779843Y-122457819D01*
X84779838Y-122457828D01*
X84692744Y-122632736D01*
X84692740Y-122632744D01*
X84690672Y-122636899D01*
X84689402Y-122641359D01*
X84689400Y-122641367D01*
X84635926Y-122829310D01*
X84635924Y-122829315D01*
X84634655Y-122833779D01*
X84615768Y-123037600D01*
X83082500Y-123037600D01*
X83082500Y-121920000D01*
X102718701Y-121920000D01*
X102719434Y-121926037D01*
X102737125Y-122071743D01*
X102737126Y-122071748D01*
X102737859Y-122077782D01*
X102740013Y-122083462D01*
X102740015Y-122083469D01*
X102792063Y-122220707D01*
X102792065Y-122220712D01*
X102794221Y-122226395D01*
X102797676Y-122231401D01*
X102797678Y-122231404D01*
X102881052Y-122352192D01*
X102881054Y-122352194D01*
X102884510Y-122357201D01*
X103003479Y-122462599D01*
X103144215Y-122536463D01*
X103298537Y-122574500D01*
X103451391Y-122574500D01*
X103457479Y-122574500D01*
X103611801Y-122536463D01*
X103752537Y-122462599D01*
X103871506Y-122357201D01*
X103961795Y-122226395D01*
X104018157Y-122077782D01*
X104037315Y-121920000D01*
X104018157Y-121762218D01*
X103993339Y-121696780D01*
X103963952Y-121619292D01*
X103963951Y-121619290D01*
X103961795Y-121613605D01*
X103926734Y-121562810D01*
X103910298Y-121538998D01*
X114572693Y-121538998D01*
X114573426Y-121545035D01*
X114591117Y-121690741D01*
X114591118Y-121690746D01*
X114591851Y-121696780D01*
X114594005Y-121702460D01*
X114594007Y-121702467D01*
X114646055Y-121839705D01*
X114646057Y-121839710D01*
X114648213Y-121845393D01*
X114651668Y-121850399D01*
X114651670Y-121850402D01*
X114735044Y-121971190D01*
X114735046Y-121971192D01*
X114738502Y-121976199D01*
X114857471Y-122081597D01*
X114998207Y-122155461D01*
X115152529Y-122193498D01*
X115305383Y-122193498D01*
X115311471Y-122193498D01*
X115465793Y-122155461D01*
X115606529Y-122081597D01*
X115725498Y-121976199D01*
X115815787Y-121845393D01*
X115872149Y-121696780D01*
X115891307Y-121538998D01*
X115872149Y-121381216D01*
X115828815Y-121266956D01*
X115817944Y-121238290D01*
X115817943Y-121238288D01*
X115815787Y-121232603D01*
X115788796Y-121193500D01*
X115728955Y-121106805D01*
X115728953Y-121106803D01*
X115725498Y-121101797D01*
X115606529Y-120996399D01*
X115601141Y-120993571D01*
X115601138Y-120993569D01*
X115471178Y-120925361D01*
X115471176Y-120925360D01*
X115465793Y-120922535D01*
X115459892Y-120921080D01*
X115459888Y-120921079D01*
X115317380Y-120885954D01*
X115317376Y-120885953D01*
X115311471Y-120884498D01*
X115152529Y-120884498D01*
X115146624Y-120885953D01*
X115146619Y-120885954D01*
X115004111Y-120921079D01*
X115004105Y-120921081D01*
X114998207Y-120922535D01*
X114992826Y-120925358D01*
X114992821Y-120925361D01*
X114862861Y-120993569D01*
X114862854Y-120993573D01*
X114857471Y-120996399D01*
X114852918Y-121000432D01*
X114852913Y-121000436D01*
X114743057Y-121097761D01*
X114743054Y-121097763D01*
X114738502Y-121101797D01*
X114735049Y-121106798D01*
X114735044Y-121106805D01*
X114651670Y-121227593D01*
X114651666Y-121227600D01*
X114648213Y-121232603D01*
X114646059Y-121238281D01*
X114646055Y-121238290D01*
X114594007Y-121375528D01*
X114594004Y-121375536D01*
X114591851Y-121381216D01*
X114591118Y-121387247D01*
X114591117Y-121387254D01*
X114573426Y-121532961D01*
X114572693Y-121538998D01*
X103910298Y-121538998D01*
X103874963Y-121487807D01*
X103874961Y-121487805D01*
X103871506Y-121482799D01*
X103761380Y-121385235D01*
X103757094Y-121381438D01*
X103757093Y-121381437D01*
X103752537Y-121377401D01*
X103747149Y-121374573D01*
X103747146Y-121374571D01*
X103617186Y-121306363D01*
X103617184Y-121306362D01*
X103611801Y-121303537D01*
X103605900Y-121302082D01*
X103605896Y-121302081D01*
X103463388Y-121266956D01*
X103463384Y-121266955D01*
X103457479Y-121265500D01*
X103298537Y-121265500D01*
X103292632Y-121266955D01*
X103292627Y-121266956D01*
X103150119Y-121302081D01*
X103150113Y-121302083D01*
X103144215Y-121303537D01*
X103138834Y-121306360D01*
X103138829Y-121306363D01*
X103008869Y-121374571D01*
X103008862Y-121374575D01*
X103003479Y-121377401D01*
X102998926Y-121381434D01*
X102998921Y-121381438D01*
X102889065Y-121478763D01*
X102889062Y-121478765D01*
X102884510Y-121482799D01*
X102881057Y-121487800D01*
X102881052Y-121487807D01*
X102797678Y-121608595D01*
X102797674Y-121608602D01*
X102794221Y-121613605D01*
X102792067Y-121619283D01*
X102792063Y-121619292D01*
X102740015Y-121756530D01*
X102740012Y-121756538D01*
X102737859Y-121762218D01*
X102737126Y-121768249D01*
X102737125Y-121768256D01*
X102719434Y-121913963D01*
X102718701Y-121920000D01*
X83082500Y-121920000D01*
X83082500Y-120497600D01*
X84615768Y-120497600D01*
X84616197Y-120502230D01*
X84633665Y-120690743D01*
X84634655Y-120701421D01*
X84635925Y-120705886D01*
X84635926Y-120705889D01*
X84686744Y-120884498D01*
X84690672Y-120898301D01*
X84692742Y-120902459D01*
X84692744Y-120902463D01*
X84779838Y-121077371D01*
X84779840Y-121077375D01*
X84781912Y-121081535D01*
X84784709Y-121085239D01*
X84784711Y-121085242D01*
X84866464Y-121193500D01*
X84905268Y-121244885D01*
X84908699Y-121248013D01*
X84908703Y-121248017D01*
X85048576Y-121375528D01*
X85056538Y-121382786D01*
X85230573Y-121490544D01*
X85340064Y-121532961D01*
X85417112Y-121562810D01*
X85417114Y-121562810D01*
X85421444Y-121564488D01*
X85622653Y-121602100D01*
X85822693Y-121602100D01*
X85827347Y-121602100D01*
X86028556Y-121564488D01*
X86219427Y-121490544D01*
X86393462Y-121382786D01*
X86544732Y-121244885D01*
X86668088Y-121081535D01*
X86759328Y-120898301D01*
X86815345Y-120701421D01*
X86830396Y-120539000D01*
X116037693Y-120539000D01*
X116038426Y-120545037D01*
X116056117Y-120690743D01*
X116056118Y-120690748D01*
X116056851Y-120696782D01*
X116059005Y-120702462D01*
X116059007Y-120702469D01*
X116111055Y-120839707D01*
X116111057Y-120839712D01*
X116113213Y-120845395D01*
X116116668Y-120850401D01*
X116116670Y-120850404D01*
X116200044Y-120971192D01*
X116200046Y-120971194D01*
X116203502Y-120976201D01*
X116322471Y-121081599D01*
X116463207Y-121155463D01*
X116617529Y-121193500D01*
X116770383Y-121193500D01*
X116776471Y-121193500D01*
X116930793Y-121155463D01*
X117071529Y-121081599D01*
X117190498Y-120976201D01*
X117280787Y-120845395D01*
X117337149Y-120696782D01*
X117356307Y-120539000D01*
X117337149Y-120381218D01*
X117303987Y-120293779D01*
X117282944Y-120238292D01*
X117282943Y-120238290D01*
X117280787Y-120232605D01*
X117190498Y-120101799D01*
X117071529Y-119996401D01*
X117066141Y-119993573D01*
X117066138Y-119993571D01*
X116936178Y-119925363D01*
X116936176Y-119925362D01*
X116930793Y-119922537D01*
X116924892Y-119921082D01*
X116924888Y-119921081D01*
X116782380Y-119885956D01*
X116782376Y-119885955D01*
X116776471Y-119884500D01*
X116617529Y-119884500D01*
X116611624Y-119885955D01*
X116611619Y-119885956D01*
X116469111Y-119921081D01*
X116469105Y-119921083D01*
X116463207Y-119922537D01*
X116457826Y-119925360D01*
X116457821Y-119925363D01*
X116327861Y-119993571D01*
X116327854Y-119993575D01*
X116322471Y-119996401D01*
X116317918Y-120000434D01*
X116317913Y-120000438D01*
X116208057Y-120097763D01*
X116208054Y-120097765D01*
X116203502Y-120101799D01*
X116200049Y-120106800D01*
X116200044Y-120106807D01*
X116116670Y-120227595D01*
X116116666Y-120227602D01*
X116113213Y-120232605D01*
X116111059Y-120238283D01*
X116111055Y-120238292D01*
X116059007Y-120375530D01*
X116059004Y-120375538D01*
X116056851Y-120381218D01*
X116056118Y-120387249D01*
X116056117Y-120387256D01*
X116038426Y-120532963D01*
X116037693Y-120539000D01*
X86830396Y-120539000D01*
X86834232Y-120497600D01*
X86815345Y-120293779D01*
X86759328Y-120096899D01*
X86668088Y-119913665D01*
X86544732Y-119750315D01*
X86541299Y-119747185D01*
X86541296Y-119747182D01*
X86396900Y-119615548D01*
X86396899Y-119615547D01*
X86393462Y-119612414D01*
X86389510Y-119609967D01*
X86389506Y-119609964D01*
X86223379Y-119507103D01*
X86219427Y-119504656D01*
X86214093Y-119502589D01*
X86032887Y-119432389D01*
X86032878Y-119432386D01*
X86028556Y-119430712D01*
X85968495Y-119419484D01*
X85831922Y-119393955D01*
X85831919Y-119393954D01*
X85827347Y-119393100D01*
X85622653Y-119393100D01*
X85618081Y-119393954D01*
X85618077Y-119393955D01*
X85426012Y-119429858D01*
X85426010Y-119429858D01*
X85421444Y-119430712D01*
X85417123Y-119432385D01*
X85417112Y-119432389D01*
X85234906Y-119502977D01*
X85234902Y-119502978D01*
X85230573Y-119504656D01*
X85226624Y-119507100D01*
X85226620Y-119507103D01*
X85060493Y-119609964D01*
X85060484Y-119609970D01*
X85056538Y-119612414D01*
X85053105Y-119615542D01*
X85053099Y-119615548D01*
X84908703Y-119747182D01*
X84908694Y-119747191D01*
X84905268Y-119750315D01*
X84902471Y-119754017D01*
X84902467Y-119754023D01*
X84784711Y-119909957D01*
X84784705Y-119909965D01*
X84781912Y-119913665D01*
X84779843Y-119917819D01*
X84779838Y-119917828D01*
X84692744Y-120092736D01*
X84692740Y-120092744D01*
X84690672Y-120096899D01*
X84689402Y-120101359D01*
X84689400Y-120101367D01*
X84635926Y-120289310D01*
X84635924Y-120289315D01*
X84634655Y-120293779D01*
X84634226Y-120298401D01*
X84634226Y-120298405D01*
X84626552Y-120381218D01*
X84615768Y-120497600D01*
X83082500Y-120497600D01*
X83082500Y-117957600D01*
X84615768Y-117957600D01*
X84634655Y-118161421D01*
X84690672Y-118358301D01*
X84692742Y-118362459D01*
X84692744Y-118362463D01*
X84779838Y-118537371D01*
X84779840Y-118537375D01*
X84781912Y-118541535D01*
X84905268Y-118704885D01*
X84908699Y-118708013D01*
X84908703Y-118708017D01*
X85053099Y-118839651D01*
X85056538Y-118842786D01*
X85230573Y-118950544D01*
X85367673Y-119003657D01*
X85417112Y-119022810D01*
X85417114Y-119022810D01*
X85421444Y-119024488D01*
X85622653Y-119062100D01*
X85822693Y-119062100D01*
X85827347Y-119062100D01*
X86028556Y-119024488D01*
X86219427Y-118950544D01*
X86393462Y-118842786D01*
X86544732Y-118704885D01*
X86668088Y-118541535D01*
X86759328Y-118358301D01*
X86815345Y-118161421D01*
X86834232Y-117957600D01*
X86815345Y-117753779D01*
X86759328Y-117556899D01*
X86668088Y-117373665D01*
X86544732Y-117210315D01*
X86541299Y-117207185D01*
X86541296Y-117207182D01*
X86396900Y-117075548D01*
X86396899Y-117075547D01*
X86393462Y-117072414D01*
X86389510Y-117069967D01*
X86389506Y-117069964D01*
X86223379Y-116967103D01*
X86219427Y-116964656D01*
X86214093Y-116962589D01*
X86032887Y-116892389D01*
X86032878Y-116892386D01*
X86028556Y-116890712D01*
X85968495Y-116879484D01*
X85831922Y-116853955D01*
X85831919Y-116853954D01*
X85827347Y-116853100D01*
X85622653Y-116853100D01*
X85618081Y-116853954D01*
X85618077Y-116853955D01*
X85426012Y-116889858D01*
X85426010Y-116889858D01*
X85421444Y-116890712D01*
X85417123Y-116892385D01*
X85417112Y-116892389D01*
X85234906Y-116962977D01*
X85234902Y-116962978D01*
X85230573Y-116964656D01*
X85226624Y-116967100D01*
X85226620Y-116967103D01*
X85060493Y-117069964D01*
X85060484Y-117069970D01*
X85056538Y-117072414D01*
X85053105Y-117075542D01*
X85053099Y-117075548D01*
X84908703Y-117207182D01*
X84908694Y-117207191D01*
X84905268Y-117210315D01*
X84902471Y-117214017D01*
X84902467Y-117214023D01*
X84784711Y-117369957D01*
X84784705Y-117369965D01*
X84781912Y-117373665D01*
X84779843Y-117377819D01*
X84779838Y-117377828D01*
X84692744Y-117552736D01*
X84692740Y-117552744D01*
X84690672Y-117556899D01*
X84689402Y-117561359D01*
X84689400Y-117561367D01*
X84635926Y-117749310D01*
X84635924Y-117749315D01*
X84634655Y-117753779D01*
X84615768Y-117957600D01*
X83082500Y-117957600D01*
X83082500Y-115558571D01*
X84578315Y-115558571D01*
X84584571Y-115626075D01*
X84586271Y-115635172D01*
X84642296Y-115832080D01*
X84645640Y-115840711D01*
X84736889Y-116023964D01*
X84741762Y-116031835D01*
X84865136Y-116195208D01*
X84871372Y-116202049D01*
X85022657Y-116339963D01*
X85030051Y-116345547D01*
X85204103Y-116453315D01*
X85212389Y-116457441D01*
X85403283Y-116531394D01*
X85412192Y-116533928D01*
X85583428Y-116565939D01*
X85594723Y-116564716D01*
X85598000Y-116553839D01*
X85852000Y-116553839D01*
X85855276Y-116564716D01*
X85866571Y-116565939D01*
X86037807Y-116533928D01*
X86046716Y-116531394D01*
X86237610Y-116457441D01*
X86245896Y-116453315D01*
X86419948Y-116345547D01*
X86427342Y-116339963D01*
X86578627Y-116202049D01*
X86584863Y-116195208D01*
X86708237Y-116031835D01*
X86713110Y-116023964D01*
X86804359Y-115840711D01*
X86807703Y-115832080D01*
X86863728Y-115635172D01*
X86865428Y-115626075D01*
X86871684Y-115558571D01*
X86869641Y-115547643D01*
X86858945Y-115544600D01*
X85865244Y-115544600D01*
X85854798Y-115547398D01*
X85852000Y-115557844D01*
X85852000Y-116553839D01*
X85598000Y-116553839D01*
X85598000Y-115557844D01*
X85595201Y-115547398D01*
X85584756Y-115544600D01*
X84591055Y-115544600D01*
X84580358Y-115547643D01*
X84578315Y-115558571D01*
X83082500Y-115558571D01*
X83082500Y-115035600D01*
X83095978Y-114985300D01*
X83132800Y-114948478D01*
X83183100Y-114935000D01*
X84528462Y-114935000D01*
X84586586Y-114953491D01*
G37*
G04 #@! TD.AperFunction*
M02*
