  0
SECTION
  2
HEADER
  9
$ANGBASE
  50
0.0
  9
$ANGDIR
  70
1
  9
$MEASUREMENT
  70
1
  0
ENDSEC
  0
SECTION
  2
TABLES
  0
TABLE
  2
LTYPE
  70
4
  0
LTYPE
  5
40F
  2
CONTINUOUS
  70
0
  3
Solid line
  72
65
  73
0
  40
0.0
  0
LTYPE
  5
410
  2
DASHDOT
 70
0
  3
Dash Dot ____ _ ____ _
 72
65
 73
4
 40
2.0
 49
1.25
 49
-0.25
 49
0.25
 49
-0.25
  0
LTYPE
  5
411
  2
DASHED
 70
0
  3
Dashed __ __ __ __ __
 72
65
 73
2
 40
0.75
 49
0.5
 49
-0.25
  0
LTYPE
  5
43B
  2
DOTTED
 70
0
  3
Dotted .  .  .  .
 72
65
 73
2
 40
0.2
 49
0.0
 49
-0.2
  0
ENDTAB
  0
TABLE
  2
STYLE
  70
4
  0
STYLE
  2
KICAD
  70
0
  40
0
  41
1
  42
1
  50
0
  71
0
  3
isocp.shx
  0
STYLE
  2
KICADB
  70
0
  40
0
  41
1
  42
1
  50
0
  71
0
  3
isocp.shx
  0
STYLE
  2
KICADI
  70
0
  40
0
  41
1
  42
1
  50
15
  71
0
  3
isocp.shx
  0
STYLE
  2
KICADBI
  70
0
  40
0
  41
1
  42
1
  50
15
  71
0
  3
isocp.shx
  0
ENDTAB
  0
TABLE
  2
LAYER
  70
1
  0
LAYER
  2
BLACK
  70
0
  62
7
  6
CONTINUOUS
  0
ENDTAB
  0
ENDSEC
  0
SECTION
  2
ENTITIES
0
ARC
8
BLACK
10
83.532
20
-155.968
40
0.5
50
-180
51
-90
0
ARC
8
BLACK
10
123.332
20
-106.968
40
2
50
-0
51
90
0
LINE
8
BLACK
6
CONTINUOUS
10
123.332
20
-104.968
11
85.032
21
-104.968
0
ARC
8
BLACK
10
124.832
20
-149.468
40
0.5
50
-90
51
-0
0
LINE
8
BLACK
6
CONTINUOUS
10
86.832
20
-156.468
11
83.532
21
-156.468
0
LINE
8
BLACK
6
CONTINUOUS
10
115.332
20
-156.468
11
105.132
21
-156.468
0
ARC
8
BLACK
10
105.132
20
-155.968
40
0.5
50
-180
51
-90
0
ARC
8
BLACK
10
115.332
20
-155.968
40
0.5
50
-90
51
-0
0
LINE
8
BLACK
6
CONTINUOUS
10
115.832
20
-155.968
11
115.832
21
-150.468
0
LINE
8
BLACK
6
CONTINUOUS
10
104.632
20
-149.968
11
87.332
21
-149.968
0
ARC
8
BLACK
10
116.332
20
-150.468
40
0.5
50
90
51
180
0
LINE
8
BLACK
6
CONTINUOUS
10
87.332
20
-149.968
11
87.332
21
-155.968
0
LINE
8
BLACK
6
CONTINUOUS
10
104.632
20
-155.968
11
104.632
21
-149.968
0
ARC
8
BLACK
10
86.832
20
-155.968
40
0.5
50
-90
51
-0
0
LINE
8
BLACK
6
CONTINUOUS
10
83.032
20
-155.968
11
83.032
21
-106.968
0
ARC
8
BLACK
10
85.032
20
-106.968
40
2
50
90
51
180
0
LINE
8
BLACK
6
CONTINUOUS
10
125.332
20
-106.968
11
125.332
21
-149.468
0
LINE
8
BLACK
6
CONTINUOUS
10
124.832
20
-149.968
11
116.332
21
-149.968
0
LINE
8
BLACK
6
CONTINUOUS
10
84.3312
20
-144.605
11
84.7312
21
-145.005
0
LINE
8
BLACK
6
CONTINUOUS
10
84.7312
20
-144.605
11
84.3312
21
-145.005
0
LINE
8
BLACK
6
CONTINUOUS
10
84.8392
20
-143.361
11
85.2392
21
-143.761
0
LINE
8
BLACK
6
CONTINUOUS
10
85.2392
20
-143.361
11
84.8392
21
-143.761
0
LINE
8
BLACK
6
CONTINUOUS
10
86.541
20
-128.07
11
86.941
21
-128.47
0
LINE
8
BLACK
6
CONTINUOUS
10
86.941
20
-128.07
11
86.541
21
-128.47
0
LINE
8
BLACK
6
CONTINUOUS
10
88.954
20
-138.23
11
89.354
21
-138.63
0
LINE
8
BLACK
6
CONTINUOUS
10
89.354
20
-138.23
11
88.954
21
-138.63
0
LINE
8
BLACK
6
CONTINUOUS
10
88.954
20
-148.39
11
89.354
21
-148.79
0
LINE
8
BLACK
6
CONTINUOUS
10
89.354
20
-148.39
11
88.954
21
-148.79
0
LINE
8
BLACK
6
CONTINUOUS
10
89.081
20
-133.15
11
89.481
21
-133.55
0
LINE
8
BLACK
6
CONTINUOUS
10
89.481
20
-133.15
11
89.081
21
-133.55
0
LINE
8
BLACK
6
CONTINUOUS
10
89.1094
20
-147.145
11
89.5094
21
-147.545
0
LINE
8
BLACK
6
CONTINUOUS
10
89.5094
20
-147.145
11
89.1094
21
-147.545
0
LINE
8
BLACK
6
CONTINUOUS
10
89.208
20
-115.472
11
89.608
21
-115.872
0
LINE
8
BLACK
6
CONTINUOUS
10
89.608
20
-115.472
11
89.208
21
-115.872
0
LINE
8
BLACK
6
CONTINUOUS
10
89.462
20
-136.198
11
89.862
21
-136.598
0
LINE
8
BLACK
6
CONTINUOUS
10
89.862
20
-136.198
11
89.462
21
-136.598
0
LINE
8
BLACK
6
CONTINUOUS
10
91.3246
20
-129.095
11
91.7246
21
-129.495
0
LINE
8
BLACK
6
CONTINUOUS
10
91.7246
20
-129.095
11
91.3246
21
-129.495
0
LINE
8
BLACK
6
CONTINUOUS
10
93.526
20
-123.117
11
93.926
21
-123.517
0
LINE
8
BLACK
6
CONTINUOUS
10
93.926
20
-123.117
11
93.526
21
-123.517
0
LINE
8
BLACK
6
CONTINUOUS
10
94.9484
20
-139.551
11
95.3484
21
-139.951
0
LINE
8
BLACK
6
CONTINUOUS
10
95.3484
20
-139.551
11
94.9484
21
-139.951
0
LINE
8
BLACK
6
CONTINUOUS
10
94.9484
20
-141.075
11
95.3484
21
-141.475
0
LINE
8
BLACK
6
CONTINUOUS
10
95.3484
20
-141.075
11
94.9484
21
-141.475
0
LINE
8
BLACK
6
CONTINUOUS
10
94.9484
20
-142.599
11
95.3484
21
-142.999
0
LINE
8
BLACK
6
CONTINUOUS
10
95.3484
20
-142.599
11
94.9484
21
-142.999
0
LINE
8
BLACK
6
CONTINUOUS
10
95.304
20
-133.468
11
95.704
21
-133.868
0
LINE
8
BLACK
6
CONTINUOUS
10
95.704
20
-133.468
11
95.304
21
-133.868
0
LINE
8
BLACK
6
CONTINUOUS
10
96.447
20
-139.551
11
96.847
21
-139.951
0
LINE
8
BLACK
6
CONTINUOUS
10
96.847
20
-139.551
11
96.447
21
-139.951
0
LINE
8
BLACK
6
CONTINUOUS
10
96.447
20
-141.075
11
96.847
21
-141.475
0
LINE
8
BLACK
6
CONTINUOUS
10
96.847
20
-141.075
11
96.447
21
-141.475
0
LINE
8
BLACK
6
CONTINUOUS
10
96.447
20
-142.599
11
96.847
21
-142.999
0
LINE
8
BLACK
6
CONTINUOUS
10
96.847
20
-142.599
11
96.447
21
-142.999
0
LINE
8
BLACK
6
CONTINUOUS
10
97.971
20
-139.551
11
98.371
21
-139.951
0
LINE
8
BLACK
6
CONTINUOUS
10
98.371
20
-139.551
11
97.971
21
-139.951
0
LINE
8
BLACK
6
CONTINUOUS
10
97.971
20
-141.075
11
98.371
21
-141.475
0
LINE
8
BLACK
6
CONTINUOUS
10
98.371
20
-141.075
11
97.971
21
-141.475
0
LINE
8
BLACK
6
CONTINUOUS
10
97.971
20
-142.599
11
98.371
21
-142.999
0
LINE
8
BLACK
6
CONTINUOUS
10
98.371
20
-142.599
11
97.971
21
-142.999
0
LINE
8
BLACK
6
CONTINUOUS
10
98.352
20
-123.117
11
98.752
21
-123.517
0
LINE
8
BLACK
6
CONTINUOUS
10
98.752
20
-123.117
11
98.352
21
-123.517
0
LINE
8
BLACK
6
CONTINUOUS
10
98.987
20
-105.718
11
99.387
21
-106.118
0
LINE
8
BLACK
6
CONTINUOUS
10
99.387
20
-105.718
11
98.987
21
-106.118
0
LINE
8
BLACK
6
CONTINUOUS
10
98.987
20
-107.242
11
99.387
21
-107.642
0
LINE
8
BLACK
6
CONTINUOUS
10
99.387
20
-107.242
11
98.987
21
-107.642
0
LINE
8
BLACK
6
CONTINUOUS
10
98.987
20
-108.893
11
99.387
21
-109.293
0
LINE
8
BLACK
6
CONTINUOUS
10
99.387
20
-108.893
11
98.987
21
-109.293
0
LINE
8
BLACK
6
CONTINUOUS
10
98.987
20
-110.671
11
99.387
21
-111.071
0
LINE
8
BLACK
6
CONTINUOUS
10
99.387
20
-110.671
11
98.987
21
-111.071
0
LINE
8
BLACK
6
CONTINUOUS
10
98.987
20
-112.322
11
99.387
21
-112.722
0
LINE
8
BLACK
6
CONTINUOUS
10
99.387
20
-112.322
11
98.987
21
-112.722
0
LINE
8
BLACK
6
CONTINUOUS
10
98.987
20
-113.973
11
99.387
21
-114.373
0
LINE
8
BLACK
6
CONTINUOUS
10
99.387
20
-113.973
11
98.987
21
-114.373
0
LINE
8
BLACK
6
CONTINUOUS
10
100.765
20
-113.973
11
101.165
21
-114.373
0
LINE
8
BLACK
6
CONTINUOUS
10
101.165
20
-113.973
11
100.765
21
-114.373
0
LINE
8
BLACK
6
CONTINUOUS
10
100.892
20
-111.814
11
101.292
21
-112.214
0
LINE
8
BLACK
6
CONTINUOUS
10
101.292
20
-111.814
11
100.892
21
-112.214
0
LINE
8
BLACK
6
CONTINUOUS
10
101.527
20
-132.515
11
101.927
21
-132.915
0
LINE
8
BLACK
6
CONTINUOUS
10
101.927
20
-132.515
11
101.527
21
-132.915
0
LINE
8
BLACK
6
CONTINUOUS
10
102.232
20
-138.368
11
102.632
21
-138.768
0
LINE
8
BLACK
6
CONTINUOUS
10
102.632
20
-138.368
11
102.232
21
-138.768
0
LINE
8
BLACK
6
CONTINUOUS
10
102.289
20
-113.973
11
102.689
21
-114.373
0
LINE
8
BLACK
6
CONTINUOUS
10
102.689
20
-113.973
11
102.289
21
-114.373
0
LINE
8
BLACK
6
CONTINUOUS
10
103.178
20
-121.72
11
103.578
21
-122.12
0
LINE
8
BLACK
6
CONTINUOUS
10
103.578
20
-121.72
11
103.178
21
-122.12
0
LINE
8
BLACK
6
CONTINUOUS
10
103.94
20
-113.973
11
104.34
21
-114.373
0
LINE
8
BLACK
6
CONTINUOUS
10
104.34
20
-113.973
11
103.94
21
-114.373
0
LINE
8
BLACK
6
CONTINUOUS
10
104.702
20
-126.292
11
105.102
21
-126.692
0
LINE
8
BLACK
6
CONTINUOUS
10
105.102
20
-126.292
11
104.702
21
-126.692
0
LINE
8
BLACK
6
CONTINUOUS
10
105.718
20
-113.973
11
106.118
21
-114.373
0
LINE
8
BLACK
6
CONTINUOUS
10
106.118
20
-113.973
11
105.718
21
-114.373
0
LINE
8
BLACK
6
CONTINUOUS
10
105.972
20
-147.12
11
106.372
21
-147.52
0
LINE
8
BLACK
6
CONTINUOUS
10
106.372
20
-147.12
11
105.972
21
-147.52
0
LINE
8
BLACK
6
CONTINUOUS
10
105.972
20
-148.39
11
106.372
21
-148.79
0
LINE
8
BLACK
6
CONTINUOUS
10
106.372
20
-148.39
11
105.972
21
-148.79
0
LINE
8
BLACK
6
CONTINUOUS
10
106.649
20
-136.985
11
107.049
21
-137.385
0
LINE
8
BLACK
6
CONTINUOUS
10
107.049
20
-136.985
11
106.649
21
-137.385
0
LINE
8
BLACK
6
CONTINUOUS
10
107.369
20
-113.973
11
107.769
21
-114.373
0
LINE
8
BLACK
6
CONTINUOUS
10
107.769
20
-113.973
11
107.369
21
-114.373
0
LINE
8
BLACK
6
CONTINUOUS
10
107.975
20
-139.525
11
108.375
21
-139.925
0
LINE
8
BLACK
6
CONTINUOUS
10
108.375
20
-139.525
11
107.975
21
-139.925
0
LINE
8
BLACK
6
CONTINUOUS
10
108.431
20
-148.551
11
108.831
21
-148.951
0
LINE
8
BLACK
6
CONTINUOUS
10
108.831
20
-148.551
11
108.431
21
-148.951
0
LINE
8
BLACK
6
CONTINUOUS
10
108.932
20
-127.468
11
109.332
21
-127.868
0
LINE
8
BLACK
6
CONTINUOUS
10
109.332
20
-127.468
11
108.932
21
-127.868
0
LINE
8
BLACK
6
CONTINUOUS
10
109.02
20
-111.814
11
109.42
21
-112.214
0
LINE
8
BLACK
6
CONTINUOUS
10
109.42
20
-111.814
11
109.02
21
-112.214
0
LINE
8
BLACK
6
CONTINUOUS
10
109.02
20
-113.973
11
109.42
21
-114.373
0
LINE
8
BLACK
6
CONTINUOUS
10
109.42
20
-113.973
11
109.02
21
-114.373
0
LINE
8
BLACK
6
CONTINUOUS
10
110.332
20
-123.854
11
110.732
21
-124.254
0
LINE
8
BLACK
6
CONTINUOUS
10
110.732
20
-123.854
11
110.332
21
-124.254
0
LINE
8
BLACK
6
CONTINUOUS
10
110.332
20
-134.068
11
110.732
21
-134.468
0
LINE
8
BLACK
6
CONTINUOUS
10
110.732
20
-134.068
11
110.332
21
-134.468
0
LINE
8
BLACK
6
CONTINUOUS
10
110.925
20
-105.718
11
111.325
21
-106.118
0
LINE
8
BLACK
6
CONTINUOUS
10
111.325
20
-105.718
11
110.925
21
-106.118
0
LINE
8
BLACK
6
CONTINUOUS
10
110.925
20
-107.242
11
111.325
21
-107.642
0
LINE
8
BLACK
6
CONTINUOUS
10
111.325
20
-107.242
11
110.925
21
-107.642
0
LINE
8
BLACK
6
CONTINUOUS
10
110.925
20
-108.893
11
111.325
21
-109.293
0
LINE
8
BLACK
6
CONTINUOUS
10
111.325
20
-108.893
11
110.925
21
-109.293
0
LINE
8
BLACK
6
CONTINUOUS
10
110.925
20
-110.671
11
111.325
21
-111.071
0
LINE
8
BLACK
6
CONTINUOUS
10
111.325
20
-110.671
11
110.925
21
-111.071
0
LINE
8
BLACK
6
CONTINUOUS
10
110.925
20
-112.322
11
111.325
21
-112.722
0
LINE
8
BLACK
6
CONTINUOUS
10
111.325
20
-112.322
11
110.925
21
-112.722
0
LINE
8
BLACK
6
CONTINUOUS
10
110.925
20
-113.973
11
111.325
21
-114.373
0
LINE
8
BLACK
6
CONTINUOUS
10
111.325
20
-113.973
11
110.925
21
-114.373
0
LINE
8
BLACK
6
CONTINUOUS
10
111.432
20
-123.854
11
111.832
21
-124.254
0
LINE
8
BLACK
6
CONTINUOUS
10
111.832
20
-123.854
11
111.432
21
-124.254
0
LINE
8
BLACK
6
CONTINUOUS
10
111.432
20
-134.068
11
111.832
21
-134.468
0
LINE
8
BLACK
6
CONTINUOUS
10
111.832
20
-134.068
11
111.432
21
-134.468
0
LINE
8
BLACK
6
CONTINUOUS
10
112.195
20
-118.672
11
112.595
21
-119.072
0
LINE
8
BLACK
6
CONTINUOUS
10
112.595
20
-118.672
11
112.195
21
-119.072
0
LINE
8
BLACK
6
CONTINUOUS
10
112.532
20
-123.854
11
112.932
21
-124.254
0
LINE
8
BLACK
6
CONTINUOUS
10
112.932
20
-123.854
11
112.532
21
-124.254
0
LINE
8
BLACK
6
CONTINUOUS
10
112.532
20
-134.068
11
112.932
21
-134.468
0
LINE
8
BLACK
6
CONTINUOUS
10
112.932
20
-134.068
11
112.532
21
-134.468
0
LINE
8
BLACK
6
CONTINUOUS
10
113.592
20
-143.564
11
113.992
21
-143.964
0
LINE
8
BLACK
6
CONTINUOUS
10
113.992
20
-143.564
11
113.592
21
-143.964
0
LINE
8
BLACK
6
CONTINUOUS
10
113.592
20
-145.596
11
113.992
21
-145.996
0
LINE
8
BLACK
6
CONTINUOUS
10
113.992
20
-145.596
11
113.592
21
-145.996
0
LINE
8
BLACK
6
CONTINUOUS
10
114.481
20
-144.58
11
114.881
21
-144.98
0
LINE
8
BLACK
6
CONTINUOUS
10
114.881
20
-144.58
11
114.481
21
-144.98
0
LINE
8
BLACK
6
CONTINUOUS
10
114.481
20
-147.12
11
114.881
21
-147.52
0
LINE
8
BLACK
6
CONTINUOUS
10
114.881
20
-147.12
11
114.481
21
-147.52
0
LINE
8
BLACK
6
CONTINUOUS
10
115.032
20
-121.339
11
115.432
21
-121.739
0
LINE
8
BLACK
6
CONTINUOUS
10
115.432
20
-121.339
11
115.032
21
-121.739
0
LINE
8
BLACK
6
CONTINUOUS
10
116.497
20
-120.339
11
116.897
21
-120.739
0
LINE
8
BLACK
6
CONTINUOUS
10
116.897
20
-120.339
11
116.497
21
-120.739
0
LINE
8
BLACK
6
CONTINUOUS
10
118.418
20
-127.498
11
118.818
21
-127.898
0
LINE
8
BLACK
6
CONTINUOUS
10
118.818
20
-127.498
11
118.418
21
-127.898
0
LINE
8
BLACK
6
CONTINUOUS
10
120.332
20
-120.268
11
120.732
21
-120.668
0
LINE
8
BLACK
6
CONTINUOUS
10
120.732
20
-120.268
11
120.332
21
-120.668
0
LINE
8
BLACK
6
CONTINUOUS
10
120.613
20
-116.487
11
121.013
21
-116.887
0
LINE
8
BLACK
6
CONTINUOUS
10
121.013
20
-116.487
11
120.613
21
-116.887
0
LINE
8
BLACK
6
CONTINUOUS
10
122.482
20
-119.561
11
122.882
21
-119.961
0
LINE
8
BLACK
6
CONTINUOUS
10
122.882
20
-119.561
11
122.482
21
-119.961
0
LINE
8
BLACK
6
CONTINUOUS
10
122.482
20
-127.498
11
122.882
21
-127.898
0
LINE
8
BLACK
6
CONTINUOUS
10
122.882
20
-127.498
11
122.482
21
-127.898
0
CIRCLE
8
BLACK
10
85.725
20
-107.798
40
0.5
0
CIRCLE
8
BLACK
10
85.725
20
-110.338
40
0.5
0
CIRCLE
8
BLACK
10
85.725
20
-112.878
40
0.5
0
CIRCLE
8
BLACK
10
85.725
20
-115.418
40
0.5
0
CIRCLE
8
BLACK
10
85.725
20
-117.958
40
0.5
0
CIRCLE
8
BLACK
10
85.725
20
-120.498
40
0.5
0
CIRCLE
8
BLACK
10
85.725
20
-123.038
40
0.5
0
CIRCLE
8
BLACK
10
105.182
20
-109.251
40
0.5
0
CIRCLE
8
BLACK
10
111.292
20
-151.928
40
0.5
0
CIRCLE
8
BLACK
10
111.292
20
-154.468
40
0.5
0
CIRCLE
8
BLACK
10
113.832
20
-151.928
40
0.5
0
CIRCLE
8
BLACK
10
113.832
20
-154.468
40
0.5
0
CIRCLE
8
BLACK
10
119.507
20
-130.175
40
0.5
0
CIRCLE
8
BLACK
10
119.507
20
-132.715
40
0.5
0
CIRCLE
8
BLACK
10
119.507
20
-135.255
40
0.5
0
CIRCLE
8
BLACK
10
119.507
20
-137.795
40
0.5
0
CIRCLE
8
BLACK
10
122.047
20
-130.175
40
0.5
0
CIRCLE
8
BLACK
10
122.047
20
-132.715
40
0.5
0
CIRCLE
8
BLACK
10
122.047
20
-135.255
40
0.5
0
CIRCLE
8
BLACK
10
122.047
20
-137.795
40
0.5
0
LINE
8
BLACK
6
CONTINUOUS
10
85.4582
20
-159.453
11
85.4582
21
-157.453
0
LINE
8
BLACK
6
CONTINUOUS
10
85.4582
20
-157.453
11
85.9344
21
-157.453
0
LINE
8
BLACK
6
CONTINUOUS
10
85.9344
20
-157.453
11
86.2201
21
-157.548
0
LINE
8
BLACK
6
CONTINUOUS
10
86.2201
20
-157.548
11
86.4106
21
-157.738
0
LINE
8
BLACK
6
CONTINUOUS
10
86.4106
20
-157.738
11
86.5058
21
-157.929
0
LINE
8
BLACK
6
CONTINUOUS
10
86.5058
20
-157.929
11
86.601
21
-158.31
0
LINE
8
BLACK
6
CONTINUOUS
10
86.601
20
-158.31
11
86.601
21
-158.596
0
LINE
8
BLACK
6
CONTINUOUS
10
86.601
20
-158.596
11
86.5058
21
-158.977
0
LINE
8
BLACK
6
CONTINUOUS
10
86.5058
20
-158.977
11
86.4106
21
-159.167
0
LINE
8
BLACK
6
CONTINUOUS
10
86.4106
20
-159.167
11
86.2201
21
-159.358
0
LINE
8
BLACK
6
CONTINUOUS
10
86.2201
20
-159.358
11
85.9344
21
-159.453
0
LINE
8
BLACK
6
CONTINUOUS
10
85.9344
20
-159.453
11
85.4582
21
-159.453
0
LINE
8
BLACK
6
CONTINUOUS
10
87.4582
20
-159.453
11
87.4582
21
-158.119
0
LINE
8
BLACK
6
CONTINUOUS
10
87.4582
20
-158.5
11
87.5534
21
-158.31
0
LINE
8
BLACK
6
CONTINUOUS
10
87.5534
20
-158.31
11
87.6487
21
-158.215
0
LINE
8
BLACK
6
CONTINUOUS
10
87.6487
20
-158.215
11
87.8391
21
-158.119
0
LINE
8
BLACK
6
CONTINUOUS
10
87.8391
20
-158.119
11
88.0296
21
-158.119
0
LINE
8
BLACK
6
CONTINUOUS
10
88.6963
20
-159.453
11
88.6963
21
-158.119
0
LINE
8
BLACK
6
CONTINUOUS
10
88.6963
20
-157.453
11
88.601
21
-157.548
0
LINE
8
BLACK
6
CONTINUOUS
10
88.601
20
-157.548
11
88.6963
21
-157.643
0
LINE
8
BLACK
6
CONTINUOUS
10
88.6963
20
-157.643
11
88.7915
21
-157.548
0
LINE
8
BLACK
6
CONTINUOUS
10
88.7915
20
-157.548
11
88.6963
21
-157.453
0
LINE
8
BLACK
6
CONTINUOUS
10
88.6963
20
-157.453
11
88.6963
21
-157.643
0
LINE
8
BLACK
6
CONTINUOUS
10
89.9344
20
-159.453
11
89.7439
21
-159.358
0
LINE
8
BLACK
6
CONTINUOUS
10
89.7439
20
-159.358
11
89.6487
21
-159.167
0
LINE
8
BLACK
6
CONTINUOUS
10
89.6487
20
-159.167
11
89.6487
21
-157.453
0
LINE
8
BLACK
6
CONTINUOUS
10
90.982
20
-159.453
11
90.7915
21
-159.358
0
LINE
8
BLACK
6
CONTINUOUS
10
90.7915
20
-159.358
11
90.6963
21
-159.167
0
LINE
8
BLACK
6
CONTINUOUS
10
90.6963
20
-159.167
11
90.6963
21
-157.453
0
LINE
8
BLACK
6
CONTINUOUS
10
92.9439
20
-159.453
11
92.9439
21
-157.453
0
LINE
8
BLACK
6
CONTINUOUS
10
92.9439
20
-157.453
11
93.6106
21
-158.881
0
LINE
8
BLACK
6
CONTINUOUS
10
93.6106
20
-158.881
11
94.2772
21
-157.453
0
LINE
8
BLACK
6
CONTINUOUS
10
94.2772
20
-157.453
11
94.2772
21
-159.453
0
LINE
8
BLACK
6
CONTINUOUS
10
96.0868
20
-159.453
11
96.0868
21
-158.405
0
LINE
8
BLACK
6
CONTINUOUS
10
96.0868
20
-158.405
11
95.9915
21
-158.215
0
LINE
8
BLACK
6
CONTINUOUS
10
95.9915
20
-158.215
11
95.801
21
-158.119
0
LINE
8
BLACK
6
CONTINUOUS
10
95.801
20
-158.119
11
95.4201
21
-158.119
0
LINE
8
BLACK
6
CONTINUOUS
10
95.4201
20
-158.119
11
95.2296
21
-158.215
0
LINE
8
BLACK
6
CONTINUOUS
10
96.0868
20
-159.358
11
95.8963
21
-159.453
0
LINE
8
BLACK
6
CONTINUOUS
10
95.8963
20
-159.453
11
95.4201
21
-159.453
0
LINE
8
BLACK
6
CONTINUOUS
10
95.4201
20
-159.453
11
95.2296
21
-159.358
0
LINE
8
BLACK
6
CONTINUOUS
10
95.2296
20
-159.358
11
95.1344
21
-159.167
0
LINE
8
BLACK
6
CONTINUOUS
10
95.1344
20
-159.167
11
95.1344
21
-158.977
0
LINE
8
BLACK
6
CONTINUOUS
10
95.1344
20
-158.977
11
95.2296
21
-158.786
0
LINE
8
BLACK
6
CONTINUOUS
10
95.2296
20
-158.786
11
95.4201
21
-158.691
0
LINE
8
BLACK
6
CONTINUOUS
10
95.4201
20
-158.691
11
95.8963
21
-158.691
0
LINE
8
BLACK
6
CONTINUOUS
10
95.8963
20
-158.691
11
96.0868
21
-158.596
0
LINE
8
BLACK
6
CONTINUOUS
10
97.0391
20
-158.119
11
97.0391
21
-160.119
0
LINE
8
BLACK
6
CONTINUOUS
10
97.0391
20
-158.215
11
97.2296
21
-158.119
0
LINE
8
BLACK
6
CONTINUOUS
10
97.2296
20
-158.119
11
97.6106
21
-158.119
0
LINE
8
BLACK
6
CONTINUOUS
10
97.6106
20
-158.119
11
97.801
21
-158.215
0
LINE
8
BLACK
6
CONTINUOUS
10
97.801
20
-158.215
11
97.8963
21
-158.31
0
LINE
8
BLACK
6
CONTINUOUS
10
97.8963
20
-158.31
11
97.9915
21
-158.5
0
LINE
8
BLACK
6
CONTINUOUS
10
97.9915
20
-158.5
11
97.9915
21
-159.072
0
LINE
8
BLACK
6
CONTINUOUS
10
97.9915
20
-159.072
11
97.8963
21
-159.262
0
LINE
8
BLACK
6
CONTINUOUS
10
97.8963
20
-159.262
11
97.801
21
-159.358
0
LINE
8
BLACK
6
CONTINUOUS
10
97.801
20
-159.358
11
97.6106
21
-159.453
0
LINE
8
BLACK
6
CONTINUOUS
10
97.6106
20
-159.453
11
97.2296
21
-159.453
0
LINE
8
BLACK
6
CONTINUOUS
10
97.2296
20
-159.453
11
97.0391
21
-159.358
0
LINE
8
BLACK
6
CONTINUOUS
10
98.8487
20
-159.262
11
98.9439
21
-159.358
0
LINE
8
BLACK
6
CONTINUOUS
10
98.9439
20
-159.358
11
98.8487
21
-159.453
0
LINE
8
BLACK
6
CONTINUOUS
10
98.8487
20
-159.453
11
98.7534
21
-159.358
0
LINE
8
BLACK
6
CONTINUOUS
10
98.7534
20
-159.358
11
98.8487
21
-159.262
0
LINE
8
BLACK
6
CONTINUOUS
10
98.8487
20
-159.262
11
98.8487
21
-159.453
0
LINE
8
BLACK
6
CONTINUOUS
10
98.8487
20
-158.215
11
98.9439
21
-158.31
0
LINE
8
BLACK
6
CONTINUOUS
10
98.9439
20
-158.31
11
98.8487
21
-158.405
0
LINE
8
BLACK
6
CONTINUOUS
10
98.8487
20
-158.405
11
98.7534
21
-158.31
0
LINE
8
BLACK
6
CONTINUOUS
10
98.7534
20
-158.31
11
98.8487
21
-158.215
0
LINE
8
BLACK
6
CONTINUOUS
10
98.8487
20
-158.215
11
98.8487
21
-158.405
0
LINE
8
BLACK
6
CONTINUOUS
10
82.582
20
-162.718
11
82.982
21
-163.118
0
LINE
8
BLACK
6
CONTINUOUS
10
82.982
20
-162.718
11
82.582
21
-163.118
0
LINE
8
BLACK
6
CONTINUOUS
10
85.8391
20
-161.653
11
86.0296
21
-161.653
0
LINE
8
BLACK
6
CONTINUOUS
10
86.0296
20
-161.653
11
86.2201
21
-161.748
0
LINE
8
BLACK
6
CONTINUOUS
10
86.2201
20
-161.748
11
86.3153
21
-161.843
0
LINE
8
BLACK
6
CONTINUOUS
10
86.3153
20
-161.843
11
86.4106
21
-162.034
0
LINE
8
BLACK
6
CONTINUOUS
10
86.4106
20
-162.034
11
86.5058
21
-162.415
0
LINE
8
BLACK
6
CONTINUOUS
10
86.5058
20
-162.415
11
86.5058
21
-162.891
0
LINE
8
BLACK
6
CONTINUOUS
10
86.5058
20
-162.891
11
86.4106
21
-163.272
0
LINE
8
BLACK
6
CONTINUOUS
10
86.4106
20
-163.272
11
86.3153
21
-163.462
0
LINE
8
BLACK
6
CONTINUOUS
10
86.3153
20
-163.462
11
86.2201
21
-163.558
0
LINE
8
BLACK
6
CONTINUOUS
10
86.2201
20
-163.558
11
86.0296
21
-163.653
0
LINE
8
BLACK
6
CONTINUOUS
10
86.0296
20
-163.653
11
85.8391
21
-163.653
0
LINE
8
BLACK
6
CONTINUOUS
10
85.8391
20
-163.653
11
85.6487
21
-163.558
0
LINE
8
BLACK
6
CONTINUOUS
10
85.6487
20
-163.558
11
85.5534
21
-163.462
0
LINE
8
BLACK
6
CONTINUOUS
10
85.5534
20
-163.462
11
85.4582
21
-163.272
0
LINE
8
BLACK
6
CONTINUOUS
10
85.4582
20
-163.272
11
85.363
21
-162.891
0
LINE
8
BLACK
6
CONTINUOUS
10
85.363
20
-162.891
11
85.363
21
-162.415
0
LINE
8
BLACK
6
CONTINUOUS
10
85.363
20
-162.415
11
85.4582
21
-162.034
0
LINE
8
BLACK
6
CONTINUOUS
10
85.4582
20
-162.034
11
85.5534
21
-161.843
0
LINE
8
BLACK
6
CONTINUOUS
10
85.5534
20
-161.843
11
85.6487
21
-161.748
0
LINE
8
BLACK
6
CONTINUOUS
10
85.6487
20
-161.748
11
85.8391
21
-161.653
0
LINE
8
BLACK
6
CONTINUOUS
10
87.363
20
-163.462
11
87.4582
21
-163.558
0
LINE
8
BLACK
6
CONTINUOUS
10
87.4582
20
-163.558
11
87.363
21
-163.653
0
LINE
8
BLACK
6
CONTINUOUS
10
87.363
20
-163.653
11
87.2677
21
-163.558
0
LINE
8
BLACK
6
CONTINUOUS
10
87.2677
20
-163.558
11
87.363
21
-163.462
0
LINE
8
BLACK
6
CONTINUOUS
10
87.363
20
-163.462
11
87.363
21
-163.653
0
LINE
8
BLACK
6
CONTINUOUS
10
89.1725
20
-162.319
11
89.1725
21
-163.653
0
LINE
8
BLACK
6
CONTINUOUS
10
88.6963
20
-161.558
11
88.2201
21
-162.986
0
LINE
8
BLACK
6
CONTINUOUS
10
88.2201
20
-162.986
11
89.4582
21
-162.986
0
LINE
8
BLACK
6
CONTINUOUS
10
90.601
20
-161.653
11
90.7915
21
-161.653
0
LINE
8
BLACK
6
CONTINUOUS
10
90.7915
20
-161.653
11
90.982
21
-161.748
0
LINE
8
BLACK
6
CONTINUOUS
10
90.982
20
-161.748
11
91.0772
21
-161.843
0
LINE
8
BLACK
6
CONTINUOUS
10
91.0772
20
-161.843
11
91.1725
21
-162.034
0
LINE
8
BLACK
6
CONTINUOUS
10
91.1725
20
-162.034
11
91.2677
21
-162.415
0
LINE
8
BLACK
6
CONTINUOUS
10
91.2677
20
-162.415
11
91.2677
21
-162.891
0
LINE
8
BLACK
6
CONTINUOUS
10
91.2677
20
-162.891
11
91.1725
21
-163.272
0
LINE
8
BLACK
6
CONTINUOUS
10
91.1725
20
-163.272
11
91.0772
21
-163.462
0
LINE
8
BLACK
6
CONTINUOUS
10
91.0772
20
-163.462
11
90.982
21
-163.558
0
LINE
8
BLACK
6
CONTINUOUS
10
90.982
20
-163.558
11
90.7915
21
-163.653
0
LINE
8
BLACK
6
CONTINUOUS
10
90.7915
20
-163.653
11
90.601
21
-163.653
0
LINE
8
BLACK
6
CONTINUOUS
10
90.601
20
-163.653
11
90.4106
21
-163.558
0
LINE
8
BLACK
6
CONTINUOUS
10
90.4106
20
-163.558
11
90.3153
21
-163.462
0
LINE
8
BLACK
6
CONTINUOUS
10
90.3153
20
-163.462
11
90.2201
21
-163.272
0
LINE
8
BLACK
6
CONTINUOUS
10
90.2201
20
-163.272
11
90.1249
21
-162.891
0
LINE
8
BLACK
6
CONTINUOUS
10
90.1249
20
-162.891
11
90.1249
21
-162.415
0
LINE
8
BLACK
6
CONTINUOUS
10
90.1249
20
-162.415
11
90.2201
21
-162.034
0
LINE
8
BLACK
6
CONTINUOUS
10
90.2201
20
-162.034
11
90.3153
21
-161.843
0
LINE
8
BLACK
6
CONTINUOUS
10
90.3153
20
-161.843
11
90.4106
21
-161.748
0
LINE
8
BLACK
6
CONTINUOUS
10
90.4106
20
-161.748
11
90.601
21
-161.653
0
LINE
8
BLACK
6
CONTINUOUS
10
92.5058
20
-161.653
11
92.6963
21
-161.653
0
LINE
8
BLACK
6
CONTINUOUS
10
92.6963
20
-161.653
11
92.8868
21
-161.748
0
LINE
8
BLACK
6
CONTINUOUS
10
92.8868
20
-161.748
11
92.982
21
-161.843
0
LINE
8
BLACK
6
CONTINUOUS
10
92.982
20
-161.843
11
93.0772
21
-162.034
0
LINE
8
BLACK
6
CONTINUOUS
10
93.0772
20
-162.034
11
93.1725
21
-162.415
0
LINE
8
BLACK
6
CONTINUOUS
10
93.1725
20
-162.415
11
93.1725
21
-162.891
0
LINE
8
BLACK
6
CONTINUOUS
10
93.1725
20
-162.891
11
93.0772
21
-163.272
0
LINE
8
BLACK
6
CONTINUOUS
10
93.0772
20
-163.272
11
92.982
21
-163.462
0
LINE
8
BLACK
6
CONTINUOUS
10
92.982
20
-163.462
11
92.8868
21
-163.558
0
LINE
8
BLACK
6
CONTINUOUS
10
92.8868
20
-163.558
11
92.6963
21
-163.653
0
LINE
8
BLACK
6
CONTINUOUS
10
92.6963
20
-163.653
11
92.5058
21
-163.653
0
LINE
8
BLACK
6
CONTINUOUS
10
92.5058
20
-163.653
11
92.3153
21
-163.558
0
LINE
8
BLACK
6
CONTINUOUS
10
92.3153
20
-163.558
11
92.2201
21
-163.462
0
LINE
8
BLACK
6
CONTINUOUS
10
92.2201
20
-163.462
11
92.1249
21
-163.272
0
LINE
8
BLACK
6
CONTINUOUS
10
92.1249
20
-163.272
11
92.0296
21
-162.891
0
LINE
8
BLACK
6
CONTINUOUS
10
92.0296
20
-162.891
11
92.0296
21
-162.415
0
LINE
8
BLACK
6
CONTINUOUS
10
92.0296
20
-162.415
11
92.1249
21
-162.034
0
LINE
8
BLACK
6
CONTINUOUS
10
92.1249
20
-162.034
11
92.2201
21
-161.843
0
LINE
8
BLACK
6
CONTINUOUS
10
92.2201
20
-161.843
11
92.3153
21
-161.748
0
LINE
8
BLACK
6
CONTINUOUS
10
92.3153
20
-161.748
11
92.5058
21
-161.653
0
LINE
8
BLACK
6
CONTINUOUS
10
94.0296
20
-163.653
11
94.0296
21
-162.319
0
LINE
8
BLACK
6
CONTINUOUS
10
94.0296
20
-162.51
11
94.1249
21
-162.415
0
LINE
8
BLACK
6
CONTINUOUS
10
94.1249
20
-162.415
11
94.3153
21
-162.319
0
LINE
8
BLACK
6
CONTINUOUS
10
94.3153
20
-162.319
11
94.601
21
-162.319
0
LINE
8
BLACK
6
CONTINUOUS
10
94.601
20
-162.319
11
94.7915
21
-162.415
0
LINE
8
BLACK
6
CONTINUOUS
10
94.7915
20
-162.415
11
94.8868
21
-162.605
0
LINE
8
BLACK
6
CONTINUOUS
10
94.8868
20
-162.605
11
94.8868
21
-163.653
0
LINE
8
BLACK
6
CONTINUOUS
10
94.8868
20
-162.605
11
94.982
21
-162.415
0
LINE
8
BLACK
6
CONTINUOUS
10
94.982
20
-162.415
11
95.1725
21
-162.319
0
LINE
8
BLACK
6
CONTINUOUS
10
95.1725
20
-162.319
11
95.4582
21
-162.319
0
LINE
8
BLACK
6
CONTINUOUS
10
95.4582
20
-162.319
11
95.6487
21
-162.415
0
LINE
8
BLACK
6
CONTINUOUS
10
95.6487
20
-162.415
11
95.7439
21
-162.605
0
LINE
8
BLACK
6
CONTINUOUS
10
95.7439
20
-162.605
11
95.7439
21
-163.653
0
LINE
8
BLACK
6
CONTINUOUS
10
96.6963
20
-163.653
11
96.6963
21
-162.319
0
LINE
8
BLACK
6
CONTINUOUS
10
96.6963
20
-162.51
11
96.7915
21
-162.415
0
LINE
8
BLACK
6
CONTINUOUS
10
96.7915
20
-162.415
11
96.982
21
-162.319
0
LINE
8
BLACK
6
CONTINUOUS
10
96.982
20
-162.319
11
97.2677
21
-162.319
0
LINE
8
BLACK
6
CONTINUOUS
10
97.2677
20
-162.319
11
97.4582
21
-162.415
0
LINE
8
BLACK
6
CONTINUOUS
10
97.4582
20
-162.415
11
97.5534
21
-162.605
0
LINE
8
BLACK
6
CONTINUOUS
10
97.5534
20
-162.605
11
97.5534
21
-163.653
0
LINE
8
BLACK
6
CONTINUOUS
10
97.5534
20
-162.605
11
97.6487
21
-162.415
0
LINE
8
BLACK
6
CONTINUOUS
10
97.6487
20
-162.415
11
97.8391
21
-162.319
0
LINE
8
BLACK
6
CONTINUOUS
10
97.8391
20
-162.319
11
98.1249
21
-162.319
0
LINE
8
BLACK
6
CONTINUOUS
10
98.1249
20
-162.319
11
98.3153
21
-162.415
0
LINE
8
BLACK
6
CONTINUOUS
10
98.3153
20
-162.415
11
98.4106
21
-162.605
0
LINE
8
BLACK
6
CONTINUOUS
10
98.4106
20
-162.605
11
98.4106
21
-163.653
0
LINE
8
BLACK
6
CONTINUOUS
10
101.992
20
-161.558
11
100.277
21
-164.129
0
LINE
8
BLACK
6
CONTINUOUS
10
104.239
20
-161.653
11
104.43
21
-161.653
0
LINE
8
BLACK
6
CONTINUOUS
10
104.43
20
-161.653
11
104.62
21
-161.748
0
LINE
8
BLACK
6
CONTINUOUS
10
104.62
20
-161.748
11
104.715
21
-161.843
0
LINE
8
BLACK
6
CONTINUOUS
10
104.715
20
-161.843
11
104.811
21
-162.034
0
LINE
8
BLACK
6
CONTINUOUS
10
104.811
20
-162.034
11
104.906
21
-162.415
0
LINE
8
BLACK
6
CONTINUOUS
10
104.906
20
-162.415
11
104.906
21
-162.891
0
LINE
8
BLACK
6
CONTINUOUS
10
104.906
20
-162.891
11
104.811
21
-163.272
0
LINE
8
BLACK
6
CONTINUOUS
10
104.811
20
-163.272
11
104.715
21
-163.462
0
LINE
8
BLACK
6
CONTINUOUS
10
104.715
20
-163.462
11
104.62
21
-163.558
0
LINE
8
BLACK
6
CONTINUOUS
10
104.62
20
-163.558
11
104.43
21
-163.653
0
LINE
8
BLACK
6
CONTINUOUS
10
104.43
20
-163.653
11
104.239
21
-163.653
0
LINE
8
BLACK
6
CONTINUOUS
10
104.239
20
-163.653
11
104.049
21
-163.558
0
LINE
8
BLACK
6
CONTINUOUS
10
104.049
20
-163.558
11
103.953
21
-163.462
0
LINE
8
BLACK
6
CONTINUOUS
10
103.953
20
-163.462
11
103.858
21
-163.272
0
LINE
8
BLACK
6
CONTINUOUS
10
103.858
20
-163.272
11
103.763
21
-162.891
0
LINE
8
BLACK
6
CONTINUOUS
10
103.763
20
-162.891
11
103.763
21
-162.415
0
LINE
8
BLACK
6
CONTINUOUS
10
103.763
20
-162.415
11
103.858
21
-162.034
0
LINE
8
BLACK
6
CONTINUOUS
10
103.858
20
-162.034
11
103.953
21
-161.843
0
LINE
8
BLACK
6
CONTINUOUS
10
103.953
20
-161.843
11
104.049
21
-161.748
0
LINE
8
BLACK
6
CONTINUOUS
10
104.049
20
-161.748
11
104.239
21
-161.653
0
LINE
8
BLACK
6
CONTINUOUS
10
105.763
20
-163.462
11
105.858
21
-163.558
0
LINE
8
BLACK
6
CONTINUOUS
10
105.858
20
-163.558
11
105.763
21
-163.653
0
LINE
8
BLACK
6
CONTINUOUS
10
105.763
20
-163.653
11
105.668
21
-163.558
0
LINE
8
BLACK
6
CONTINUOUS
10
105.668
20
-163.558
11
105.763
21
-163.462
0
LINE
8
BLACK
6
CONTINUOUS
10
105.763
20
-163.462
11
105.763
21
-163.653
0
LINE
8
BLACK
6
CONTINUOUS
10
107.096
20
-161.653
11
107.287
21
-161.653
0
LINE
8
BLACK
6
CONTINUOUS
10
107.287
20
-161.653
11
107.477
21
-161.748
0
LINE
8
BLACK
6
CONTINUOUS
10
107.477
20
-161.748
11
107.572
21
-161.843
0
LINE
8
BLACK
6
CONTINUOUS
10
107.572
20
-161.843
11
107.668
21
-162.034
0
LINE
8
BLACK
6
CONTINUOUS
10
107.668
20
-162.034
11
107.763
21
-162.415
0
LINE
8
BLACK
6
CONTINUOUS
10
107.763
20
-162.415
11
107.763
21
-162.891
0
LINE
8
BLACK
6
CONTINUOUS
10
107.763
20
-162.891
11
107.668
21
-163.272
0
LINE
8
BLACK
6
CONTINUOUS
10
107.668
20
-163.272
11
107.572
21
-163.462
0
LINE
8
BLACK
6
CONTINUOUS
10
107.572
20
-163.462
11
107.477
21
-163.558
0
LINE
8
BLACK
6
CONTINUOUS
10
107.477
20
-163.558
11
107.287
21
-163.653
0
LINE
8
BLACK
6
CONTINUOUS
10
107.287
20
-163.653
11
107.096
21
-163.653
0
LINE
8
BLACK
6
CONTINUOUS
10
107.096
20
-163.653
11
106.906
21
-163.558
0
LINE
8
BLACK
6
CONTINUOUS
10
106.906
20
-163.558
11
106.811
21
-163.462
0
LINE
8
BLACK
6
CONTINUOUS
10
106.811
20
-163.462
11
106.715
21
-163.272
0
LINE
8
BLACK
6
CONTINUOUS
10
106.715
20
-163.272
11
106.62
21
-162.891
0
LINE
8
BLACK
6
CONTINUOUS
10
106.62
20
-162.891
11
106.62
21
-162.415
0
LINE
8
BLACK
6
CONTINUOUS
10
106.62
20
-162.415
11
106.715
21
-162.034
0
LINE
8
BLACK
6
CONTINUOUS
10
106.715
20
-162.034
11
106.811
21
-161.843
0
LINE
8
BLACK
6
CONTINUOUS
10
106.811
20
-161.843
11
106.906
21
-161.748
0
LINE
8
BLACK
6
CONTINUOUS
10
106.906
20
-161.748
11
107.096
21
-161.653
0
LINE
8
BLACK
6
CONTINUOUS
10
109.668
20
-163.653
11
108.525
21
-163.653
0
LINE
8
BLACK
6
CONTINUOUS
10
109.096
20
-163.653
11
109.096
21
-161.653
0
LINE
8
BLACK
6
CONTINUOUS
10
109.096
20
-161.653
11
108.906
21
-161.938
0
LINE
8
BLACK
6
CONTINUOUS
10
108.906
20
-161.938
11
108.715
21
-162.129
0
LINE
8
BLACK
6
CONTINUOUS
10
108.715
20
-162.129
11
108.525
21
-162.224
0
LINE
8
BLACK
6
CONTINUOUS
10
111.477
20
-161.653
11
110.525
21
-161.653
0
LINE
8
BLACK
6
CONTINUOUS
10
110.525
20
-161.653
11
110.43
21
-162.605
0
LINE
8
BLACK
6
CONTINUOUS
10
110.43
20
-162.605
11
110.525
21
-162.51
0
LINE
8
BLACK
6
CONTINUOUS
10
110.525
20
-162.51
11
110.715
21
-162.415
0
LINE
8
BLACK
6
CONTINUOUS
10
110.715
20
-162.415
11
111.192
21
-162.415
0
LINE
8
BLACK
6
CONTINUOUS
10
111.192
20
-162.415
11
111.382
21
-162.51
0
LINE
8
BLACK
6
CONTINUOUS
10
111.382
20
-162.51
11
111.477
21
-162.605
0
LINE
8
BLACK
6
CONTINUOUS
10
111.477
20
-162.605
11
111.572
21
-162.796
0
LINE
8
BLACK
6
CONTINUOUS
10
111.572
20
-162.796
11
111.572
21
-163.272
0
LINE
8
BLACK
6
CONTINUOUS
10
111.572
20
-163.272
11
111.477
21
-163.462
0
LINE
8
BLACK
6
CONTINUOUS
10
111.477
20
-163.462
11
111.382
21
-163.558
0
LINE
8
BLACK
6
CONTINUOUS
10
111.382
20
-163.558
11
111.192
21
-163.653
0
LINE
8
BLACK
6
CONTINUOUS
10
111.192
20
-163.653
11
110.715
21
-163.653
0
LINE
8
BLACK
6
CONTINUOUS
10
110.715
20
-163.653
11
110.525
21
-163.558
0
LINE
8
BLACK
6
CONTINUOUS
10
110.525
20
-163.558
11
110.43
21
-163.462
0
LINE
8
BLACK
6
CONTINUOUS
10
112.239
20
-161.653
11
113.572
21
-161.653
0
LINE
8
BLACK
6
CONTINUOUS
10
113.572
20
-161.653
11
112.715
21
-163.653
0
LINE
8
BLACK
6
CONTINUOUS
10
114.239
20
-161.653
11
114.239
21
-162.034
0
LINE
8
BLACK
6
CONTINUOUS
10
115.001
20
-161.653
11
115.001
21
-162.034
0
LINE
8
BLACK
6
CONTINUOUS
10
117.63
20
-164.415
11
117.534
21
-164.319
0
LINE
8
BLACK
6
CONTINUOUS
10
117.534
20
-164.319
11
117.344
21
-164.034
0
LINE
8
BLACK
6
CONTINUOUS
10
117.344
20
-164.034
11
117.249
21
-163.843
0
LINE
8
BLACK
6
CONTINUOUS
10
117.249
20
-163.843
11
117.153
21
-163.558
0
LINE
8
BLACK
6
CONTINUOUS
10
117.153
20
-163.558
11
117.058
21
-163.081
0
LINE
8
BLACK
6
CONTINUOUS
10
117.058
20
-163.081
11
117.058
21
-162.7
0
LINE
8
BLACK
6
CONTINUOUS
10
117.058
20
-162.7
11
117.153
21
-162.224
0
LINE
8
BLACK
6
CONTINUOUS
10
117.153
20
-162.224
11
117.249
21
-161.938
0
LINE
8
BLACK
6
CONTINUOUS
10
117.249
20
-161.938
11
117.344
21
-161.748
0
LINE
8
BLACK
6
CONTINUOUS
10
117.344
20
-161.748
11
117.534
21
-161.462
0
LINE
8
BLACK
6
CONTINUOUS
10
117.534
20
-161.462
11
117.63
21
-161.367
0
LINE
8
BLACK
6
CONTINUOUS
10
118.201
20
-161.653
11
119.534
21
-161.653
0
LINE
8
BLACK
6
CONTINUOUS
10
119.534
20
-161.653
11
118.677
21
-163.653
0
LINE
8
BLACK
6
CONTINUOUS
10
120.677
20
-161.653
11
120.868
21
-161.653
0
LINE
8
BLACK
6
CONTINUOUS
10
120.868
20
-161.653
11
121.058
21
-161.748
0
LINE
8
BLACK
6
CONTINUOUS
10
121.058
20
-161.748
11
121.153
21
-161.843
0
LINE
8
BLACK
6
CONTINUOUS
10
121.153
20
-161.843
11
121.249
21
-162.034
0
LINE
8
BLACK
6
CONTINUOUS
10
121.249
20
-162.034
11
121.344
21
-162.415
0
LINE
8
BLACK
6
CONTINUOUS
10
121.344
20
-162.415
11
121.344
21
-162.891
0
LINE
8
BLACK
6
CONTINUOUS
10
121.344
20
-162.891
11
121.249
21
-163.272
0
LINE
8
BLACK
6
CONTINUOUS
10
121.249
20
-163.272
11
121.153
21
-163.462
0
LINE
8
BLACK
6
CONTINUOUS
10
121.153
20
-163.462
11
121.058
21
-163.558
0
LINE
8
BLACK
6
CONTINUOUS
10
121.058
20
-163.558
11
120.868
21
-163.653
0
LINE
8
BLACK
6
CONTINUOUS
10
120.868
20
-163.653
11
120.677
21
-163.653
0
LINE
8
BLACK
6
CONTINUOUS
10
120.677
20
-163.653
11
120.487
21
-163.558
0
LINE
8
BLACK
6
CONTINUOUS
10
120.487
20
-163.558
11
120.392
21
-163.462
0
LINE
8
BLACK
6
CONTINUOUS
10
120.392
20
-163.462
11
120.296
21
-163.272
0
LINE
8
BLACK
6
CONTINUOUS
10
120.296
20
-163.272
11
120.201
21
-162.891
0
LINE
8
BLACK
6
CONTINUOUS
10
120.201
20
-162.891
11
120.201
21
-162.415
0
LINE
8
BLACK
6
CONTINUOUS
10
120.201
20
-162.415
11
120.296
21
-162.034
0
LINE
8
BLACK
6
CONTINUOUS
10
120.296
20
-162.034
11
120.392
21
-161.843
0
LINE
8
BLACK
6
CONTINUOUS
10
120.392
20
-161.843
11
120.487
21
-161.748
0
LINE
8
BLACK
6
CONTINUOUS
10
120.487
20
-161.748
11
120.677
21
-161.653
0
LINE
8
BLACK
6
CONTINUOUS
10
123.401
20
-163.653
11
123.401
21
-161.653
0
LINE
8
BLACK
6
CONTINUOUS
10
124.258
20
-163.653
11
124.258
21
-162.605
0
LINE
8
BLACK
6
CONTINUOUS
10
124.258
20
-162.605
11
124.163
21
-162.415
0
LINE
8
BLACK
6
CONTINUOUS
10
124.163
20
-162.415
11
123.972
21
-162.319
0
LINE
8
BLACK
6
CONTINUOUS
10
123.972
20
-162.319
11
123.687
21
-162.319
0
LINE
8
BLACK
6
CONTINUOUS
10
123.687
20
-162.319
11
123.496
21
-162.415
0
LINE
8
BLACK
6
CONTINUOUS
10
123.496
20
-162.415
11
123.401
21
-162.51
0
LINE
8
BLACK
6
CONTINUOUS
10
125.496
20
-163.653
11
125.306
21
-163.558
0
LINE
8
BLACK
6
CONTINUOUS
10
125.306
20
-163.558
11
125.211
21
-163.462
0
LINE
8
BLACK
6
CONTINUOUS
10
125.211
20
-163.462
11
125.115
21
-163.272
0
LINE
8
BLACK
6
CONTINUOUS
10
125.115
20
-163.272
11
125.115
21
-162.7
0
LINE
8
BLACK
6
CONTINUOUS
10
125.115
20
-162.7
11
125.211
21
-162.51
0
LINE
8
BLACK
6
CONTINUOUS
10
125.211
20
-162.51
11
125.306
21
-162.415
0
LINE
8
BLACK
6
CONTINUOUS
10
125.306
20
-162.415
11
125.496
21
-162.319
0
LINE
8
BLACK
6
CONTINUOUS
10
125.496
20
-162.319
11
125.782
21
-162.319
0
LINE
8
BLACK
6
CONTINUOUS
10
125.782
20
-162.319
11
125.972
21
-162.415
0
LINE
8
BLACK
6
CONTINUOUS
10
125.972
20
-162.415
11
126.068
21
-162.51
0
LINE
8
BLACK
6
CONTINUOUS
10
126.068
20
-162.51
11
126.163
21
-162.7
0
LINE
8
BLACK
6
CONTINUOUS
10
126.163
20
-162.7
11
126.163
21
-163.272
0
LINE
8
BLACK
6
CONTINUOUS
10
126.163
20
-163.272
11
126.068
21
-163.462
0
LINE
8
BLACK
6
CONTINUOUS
10
126.068
20
-163.462
11
125.972
21
-163.558
0
LINE
8
BLACK
6
CONTINUOUS
10
125.972
20
-163.558
11
125.782
21
-163.653
0
LINE
8
BLACK
6
CONTINUOUS
10
125.782
20
-163.653
11
125.496
21
-163.653
0
LINE
8
BLACK
6
CONTINUOUS
10
127.306
20
-163.653
11
127.115
21
-163.558
0
LINE
8
BLACK
6
CONTINUOUS
10
127.115
20
-163.558
11
127.02
21
-163.367
0
LINE
8
BLACK
6
CONTINUOUS
10
127.02
20
-163.367
11
127.02
21
-161.653
0
LINE
8
BLACK
6
CONTINUOUS
10
128.83
20
-163.558
11
128.639
21
-163.653
0
LINE
8
BLACK
6
CONTINUOUS
10
128.639
20
-163.653
11
128.258
21
-163.653
0
LINE
8
BLACK
6
CONTINUOUS
10
128.258
20
-163.653
11
128.068
21
-163.558
0
LINE
8
BLACK
6
CONTINUOUS
10
128.068
20
-163.558
11
127.972
21
-163.367
0
LINE
8
BLACK
6
CONTINUOUS
10
127.972
20
-163.367
11
127.972
21
-162.605
0
LINE
8
BLACK
6
CONTINUOUS
10
127.972
20
-162.605
11
128.068
21
-162.415
0
LINE
8
BLACK
6
CONTINUOUS
10
128.068
20
-162.415
11
128.258
21
-162.319
0
LINE
8
BLACK
6
CONTINUOUS
10
128.258
20
-162.319
11
128.639
21
-162.319
0
LINE
8
BLACK
6
CONTINUOUS
10
128.639
20
-162.319
11
128.83
21
-162.415
0
LINE
8
BLACK
6
CONTINUOUS
10
128.83
20
-162.415
11
128.925
21
-162.605
0
LINE
8
BLACK
6
CONTINUOUS
10
128.925
20
-162.605
11
128.925
21
-162.796
0
LINE
8
BLACK
6
CONTINUOUS
10
128.925
20
-162.796
11
127.972
21
-162.986
0
LINE
8
BLACK
6
CONTINUOUS
10
129.687
20
-163.558
11
129.877
21
-163.653
0
LINE
8
BLACK
6
CONTINUOUS
10
129.877
20
-163.653
11
130.258
21
-163.653
0
LINE
8
BLACK
6
CONTINUOUS
10
130.258
20
-163.653
11
130.449
21
-163.558
0
LINE
8
BLACK
6
CONTINUOUS
10
130.449
20
-163.558
11
130.544
21
-163.367
0
LINE
8
BLACK
6
CONTINUOUS
10
130.544
20
-163.367
11
130.544
21
-163.272
0
LINE
8
BLACK
6
CONTINUOUS
10
130.544
20
-163.272
11
130.449
21
-163.081
0
LINE
8
BLACK
6
CONTINUOUS
10
130.449
20
-163.081
11
130.258
21
-162.986
0
LINE
8
BLACK
6
CONTINUOUS
10
130.258
20
-162.986
11
129.972
21
-162.986
0
LINE
8
BLACK
6
CONTINUOUS
10
129.972
20
-162.986
11
129.782
21
-162.891
0
LINE
8
BLACK
6
CONTINUOUS
10
129.782
20
-162.891
11
129.687
21
-162.7
0
LINE
8
BLACK
6
CONTINUOUS
10
129.687
20
-162.7
11
129.687
21
-162.605
0
LINE
8
BLACK
6
CONTINUOUS
10
129.687
20
-162.605
11
129.782
21
-162.415
0
LINE
8
BLACK
6
CONTINUOUS
10
129.782
20
-162.415
11
129.972
21
-162.319
0
LINE
8
BLACK
6
CONTINUOUS
10
129.972
20
-162.319
11
130.258
21
-162.319
0
LINE
8
BLACK
6
CONTINUOUS
10
130.258
20
-162.319
11
130.449
21
-162.415
0
LINE
8
BLACK
6
CONTINUOUS
10
131.211
20
-164.415
11
131.306
21
-164.319
0
LINE
8
BLACK
6
CONTINUOUS
10
131.306
20
-164.319
11
131.496
21
-164.034
0
LINE
8
BLACK
6
CONTINUOUS
10
131.496
20
-164.034
11
131.592
21
-163.843
0
LINE
8
BLACK
6
CONTINUOUS
10
131.592
20
-163.843
11
131.687
21
-163.558
0
LINE
8
BLACK
6
CONTINUOUS
10
131.687
20
-163.558
11
131.782
21
-163.081
0
LINE
8
BLACK
6
CONTINUOUS
10
131.782
20
-163.081
11
131.782
21
-162.7
0
LINE
8
BLACK
6
CONTINUOUS
10
131.782
20
-162.7
11
131.687
21
-162.224
0
LINE
8
BLACK
6
CONTINUOUS
10
131.687
20
-162.224
11
131.592
21
-161.938
0
LINE
8
BLACK
6
CONTINUOUS
10
131.592
20
-161.938
11
131.496
21
-161.748
0
LINE
8
BLACK
6
CONTINUOUS
10
131.496
20
-161.748
11
131.306
21
-161.462
0
LINE
8
BLACK
6
CONTINUOUS
10
131.306
20
-161.462
11
131.211
21
-161.367
0
CIRCLE
8
BLACK
10
82.482
20
-165.558
40
0.5
0
LINE
8
BLACK
6
CONTINUOUS
10
86.5058
20
-166.293
11
85.363
21
-166.293
0
LINE
8
BLACK
6
CONTINUOUS
10
85.9344
20
-166.293
11
85.9344
21
-164.293
0
LINE
8
BLACK
6
CONTINUOUS
10
85.9344
20
-164.293
11
85.7439
21
-164.578
0
LINE
8
BLACK
6
CONTINUOUS
10
85.7439
20
-164.578
11
85.5534
21
-164.769
0
LINE
8
BLACK
6
CONTINUOUS
10
85.5534
20
-164.769
11
85.363
21
-164.864
0
LINE
8
BLACK
6
CONTINUOUS
10
87.363
20
-166.102
11
87.4582
21
-166.198
0
LINE
8
BLACK
6
CONTINUOUS
10
87.4582
20
-166.198
11
87.363
21
-166.293
0
LINE
8
BLACK
6
CONTINUOUS
10
87.363
20
-166.293
11
87.2677
21
-166.198
0
LINE
8
BLACK
6
CONTINUOUS
10
87.2677
20
-166.198
11
87.363
21
-166.102
0
LINE
8
BLACK
6
CONTINUOUS
10
87.363
20
-166.102
11
87.363
21
-166.293
0
LINE
8
BLACK
6
CONTINUOUS
10
88.6963
20
-164.293
11
88.8868
21
-164.293
0
LINE
8
BLACK
6
CONTINUOUS
10
88.8868
20
-164.293
11
89.0772
21
-164.388
0
LINE
8
BLACK
6
CONTINUOUS
10
89.0772
20
-164.388
11
89.1725
21
-164.483
0
LINE
8
BLACK
6
CONTINUOUS
10
89.1725
20
-164.483
11
89.2677
21
-164.674
0
LINE
8
BLACK
6
CONTINUOUS
10
89.2677
20
-164.674
11
89.363
21
-165.055
0
LINE
8
BLACK
6
CONTINUOUS
10
89.363
20
-165.055
11
89.363
21
-165.531
0
LINE
8
BLACK
6
CONTINUOUS
10
89.363
20
-165.531
11
89.2677
21
-165.912
0
LINE
8
BLACK
6
CONTINUOUS
10
89.2677
20
-165.912
11
89.1725
21
-166.102
0
LINE
8
BLACK
6
CONTINUOUS
10
89.1725
20
-166.102
11
89.0772
21
-166.198
0
LINE
8
BLACK
6
CONTINUOUS
10
89.0772
20
-166.198
11
88.8868
21
-166.293
0
LINE
8
BLACK
6
CONTINUOUS
10
88.8868
20
-166.293
11
88.6963
21
-166.293
0
LINE
8
BLACK
6
CONTINUOUS
10
88.6963
20
-166.293
11
88.5058
21
-166.198
0
LINE
8
BLACK
6
CONTINUOUS
10
88.5058
20
-166.198
11
88.4106
21
-166.102
0
LINE
8
BLACK
6
CONTINUOUS
10
88.4106
20
-166.102
11
88.3153
21
-165.912
0
LINE
8
BLACK
6
CONTINUOUS
10
88.3153
20
-165.912
11
88.2201
21
-165.531
0
LINE
8
BLACK
6
CONTINUOUS
10
88.2201
20
-165.531
11
88.2201
21
-165.055
0
LINE
8
BLACK
6
CONTINUOUS
10
88.2201
20
-165.055
11
88.3153
21
-164.674
0
LINE
8
BLACK
6
CONTINUOUS
10
88.3153
20
-164.674
11
88.4106
21
-164.483
0
LINE
8
BLACK
6
CONTINUOUS
10
88.4106
20
-164.483
11
88.5058
21
-164.388
0
LINE
8
BLACK
6
CONTINUOUS
10
88.5058
20
-164.388
11
88.6963
21
-164.293
0
LINE
8
BLACK
6
CONTINUOUS
10
90.601
20
-164.293
11
90.7915
21
-164.293
0
LINE
8
BLACK
6
CONTINUOUS
10
90.7915
20
-164.293
11
90.982
21
-164.388
0
LINE
8
BLACK
6
CONTINUOUS
10
90.982
20
-164.388
11
91.0772
21
-164.483
0
LINE
8
BLACK
6
CONTINUOUS
10
91.0772
20
-164.483
11
91.1725
21
-164.674
0
LINE
8
BLACK
6
CONTINUOUS
10
91.1725
20
-164.674
11
91.2677
21
-165.055
0
LINE
8
BLACK
6
CONTINUOUS
10
91.2677
20
-165.055
11
91.2677
21
-165.531
0
LINE
8
BLACK
6
CONTINUOUS
10
91.2677
20
-165.531
11
91.1725
21
-165.912
0
LINE
8
BLACK
6
CONTINUOUS
10
91.1725
20
-165.912
11
91.0772
21
-166.102
0
LINE
8
BLACK
6
CONTINUOUS
10
91.0772
20
-166.102
11
90.982
21
-166.198
0
LINE
8
BLACK
6
CONTINUOUS
10
90.982
20
-166.198
11
90.7915
21
-166.293
0
LINE
8
BLACK
6
CONTINUOUS
10
90.7915
20
-166.293
11
90.601
21
-166.293
0
LINE
8
BLACK
6
CONTINUOUS
10
90.601
20
-166.293
11
90.4106
21
-166.198
0
LINE
8
BLACK
6
CONTINUOUS
10
90.4106
20
-166.198
11
90.3153
21
-166.102
0
LINE
8
BLACK
6
CONTINUOUS
10
90.3153
20
-166.102
11
90.2201
21
-165.912
0
LINE
8
BLACK
6
CONTINUOUS
10
90.2201
20
-165.912
11
90.1249
21
-165.531
0
LINE
8
BLACK
6
CONTINUOUS
10
90.1249
20
-165.531
11
90.1249
21
-165.055
0
LINE
8
BLACK
6
CONTINUOUS
10
90.1249
20
-165.055
11
90.2201
21
-164.674
0
LINE
8
BLACK
6
CONTINUOUS
10
90.2201
20
-164.674
11
90.3153
21
-164.483
0
LINE
8
BLACK
6
CONTINUOUS
10
90.3153
20
-164.483
11
90.4106
21
-164.388
0
LINE
8
BLACK
6
CONTINUOUS
10
90.4106
20
-164.388
11
90.601
21
-164.293
0
LINE
8
BLACK
6
CONTINUOUS
10
92.5058
20
-164.293
11
92.6963
21
-164.293
0
LINE
8
BLACK
6
CONTINUOUS
10
92.6963
20
-164.293
11
92.8868
21
-164.388
0
LINE
8
BLACK
6
CONTINUOUS
10
92.8868
20
-164.388
11
92.982
21
-164.483
0
LINE
8
BLACK
6
CONTINUOUS
10
92.982
20
-164.483
11
93.0772
21
-164.674
0
LINE
8
BLACK
6
CONTINUOUS
10
93.0772
20
-164.674
11
93.1725
21
-165.055
0
LINE
8
BLACK
6
CONTINUOUS
10
93.1725
20
-165.055
11
93.1725
21
-165.531
0
LINE
8
BLACK
6
CONTINUOUS
10
93.1725
20
-165.531
11
93.0772
21
-165.912
0
LINE
8
BLACK
6
CONTINUOUS
10
93.0772
20
-165.912
11
92.982
21
-166.102
0
LINE
8
BLACK
6
CONTINUOUS
10
92.982
20
-166.102
11
92.8868
21
-166.198
0
LINE
8
BLACK
6
CONTINUOUS
10
92.8868
20
-166.198
11
92.6963
21
-166.293
0
LINE
8
BLACK
6
CONTINUOUS
10
92.6963
20
-166.293
11
92.5058
21
-166.293
0
LINE
8
BLACK
6
CONTINUOUS
10
92.5058
20
-166.293
11
92.3153
21
-166.198
0
LINE
8
BLACK
6
CONTINUOUS
10
92.3153
20
-166.198
11
92.2201
21
-166.102
0
LINE
8
BLACK
6
CONTINUOUS
10
92.2201
20
-166.102
11
92.1249
21
-165.912
0
LINE
8
BLACK
6
CONTINUOUS
10
92.1249
20
-165.912
11
92.0296
21
-165.531
0
LINE
8
BLACK
6
CONTINUOUS
10
92.0296
20
-165.531
11
92.0296
21
-165.055
0
LINE
8
BLACK
6
CONTINUOUS
10
92.0296
20
-165.055
11
92.1249
21
-164.674
0
LINE
8
BLACK
6
CONTINUOUS
10
92.1249
20
-164.674
11
92.2201
21
-164.483
0
LINE
8
BLACK
6
CONTINUOUS
10
92.2201
20
-164.483
11
92.3153
21
-164.388
0
LINE
8
BLACK
6
CONTINUOUS
10
92.3153
20
-164.388
11
92.5058
21
-164.293
0
LINE
8
BLACK
6
CONTINUOUS
10
94.0296
20
-166.293
11
94.0296
21
-164.959
0
LINE
8
BLACK
6
CONTINUOUS
10
94.0296
20
-165.15
11
94.1249
21
-165.055
0
LINE
8
BLACK
6
CONTINUOUS
10
94.1249
20
-165.055
11
94.3153
21
-164.959
0
LINE
8
BLACK
6
CONTINUOUS
10
94.3153
20
-164.959
11
94.601
21
-164.959
0
LINE
8
BLACK
6
CONTINUOUS
10
94.601
20
-164.959
11
94.7915
21
-165.055
0
LINE
8
BLACK
6
CONTINUOUS
10
94.7915
20
-165.055
11
94.8868
21
-165.245
0
LINE
8
BLACK
6
CONTINUOUS
10
94.8868
20
-165.245
11
94.8868
21
-166.293
0
LINE
8
BLACK
6
CONTINUOUS
10
94.8868
20
-165.245
11
94.982
21
-165.055
0
LINE
8
BLACK
6
CONTINUOUS
10
94.982
20
-165.055
11
95.1725
21
-164.959
0
LINE
8
BLACK
6
CONTINUOUS
10
95.1725
20
-164.959
11
95.4582
21
-164.959
0
LINE
8
BLACK
6
CONTINUOUS
10
95.4582
20
-164.959
11
95.6487
21
-165.055
0
LINE
8
BLACK
6
CONTINUOUS
10
95.6487
20
-165.055
11
95.7439
21
-165.245
0
LINE
8
BLACK
6
CONTINUOUS
10
95.7439
20
-165.245
11
95.7439
21
-166.293
0
LINE
8
BLACK
6
CONTINUOUS
10
96.6963
20
-166.293
11
96.6963
21
-164.959
0
LINE
8
BLACK
6
CONTINUOUS
10
96.6963
20
-165.15
11
96.7915
21
-165.055
0
LINE
8
BLACK
6
CONTINUOUS
10
96.7915
20
-165.055
11
96.982
21
-164.959
0
LINE
8
BLACK
6
CONTINUOUS
10
96.982
20
-164.959
11
97.2677
21
-164.959
0
LINE
8
BLACK
6
CONTINUOUS
10
97.2677
20
-164.959
11
97.4582
21
-165.055
0
LINE
8
BLACK
6
CONTINUOUS
10
97.4582
20
-165.055
11
97.5534
21
-165.245
0
LINE
8
BLACK
6
CONTINUOUS
10
97.5534
20
-165.245
11
97.5534
21
-166.293
0
LINE
8
BLACK
6
CONTINUOUS
10
97.5534
20
-165.245
11
97.6487
21
-165.055
0
LINE
8
BLACK
6
CONTINUOUS
10
97.6487
20
-165.055
11
97.8391
21
-164.959
0
LINE
8
BLACK
6
CONTINUOUS
10
97.8391
20
-164.959
11
98.1249
21
-164.959
0
LINE
8
BLACK
6
CONTINUOUS
10
98.1249
20
-164.959
11
98.3153
21
-165.055
0
LINE
8
BLACK
6
CONTINUOUS
10
98.3153
20
-165.055
11
98.4106
21
-165.245
0
LINE
8
BLACK
6
CONTINUOUS
10
98.4106
20
-165.245
11
98.4106
21
-166.293
0
LINE
8
BLACK
6
CONTINUOUS
10
101.992
20
-164.198
11
100.277
21
-166.769
0
LINE
8
BLACK
6
CONTINUOUS
10
104.239
20
-164.293
11
104.43
21
-164.293
0
LINE
8
BLACK
6
CONTINUOUS
10
104.43
20
-164.293
11
104.62
21
-164.388
0
LINE
8
BLACK
6
CONTINUOUS
10
104.62
20
-164.388
11
104.715
21
-164.483
0
LINE
8
BLACK
6
CONTINUOUS
10
104.715
20
-164.483
11
104.811
21
-164.674
0
LINE
8
BLACK
6
CONTINUOUS
10
104.811
20
-164.674
11
104.906
21
-165.055
0
LINE
8
BLACK
6
CONTINUOUS
10
104.906
20
-165.055
11
104.906
21
-165.531
0
LINE
8
BLACK
6
CONTINUOUS
10
104.906
20
-165.531
11
104.811
21
-165.912
0
LINE
8
BLACK
6
CONTINUOUS
10
104.811
20
-165.912
11
104.715
21
-166.102
0
LINE
8
BLACK
6
CONTINUOUS
10
104.715
20
-166.102
11
104.62
21
-166.198
0
LINE
8
BLACK
6
CONTINUOUS
10
104.62
20
-166.198
11
104.43
21
-166.293
0
LINE
8
BLACK
6
CONTINUOUS
10
104.43
20
-166.293
11
104.239
21
-166.293
0
LINE
8
BLACK
6
CONTINUOUS
10
104.239
20
-166.293
11
104.049
21
-166.198
0
LINE
8
BLACK
6
CONTINUOUS
10
104.049
20
-166.198
11
103.953
21
-166.102
0
LINE
8
BLACK
6
CONTINUOUS
10
103.953
20
-166.102
11
103.858
21
-165.912
0
LINE
8
BLACK
6
CONTINUOUS
10
103.858
20
-165.912
11
103.763
21
-165.531
0
LINE
8
BLACK
6
CONTINUOUS
10
103.763
20
-165.531
11
103.763
21
-165.055
0
LINE
8
BLACK
6
CONTINUOUS
10
103.763
20
-165.055
11
103.858
21
-164.674
0
LINE
8
BLACK
6
CONTINUOUS
10
103.858
20
-164.674
11
103.953
21
-164.483
0
LINE
8
BLACK
6
CONTINUOUS
10
103.953
20
-164.483
11
104.049
21
-164.388
0
LINE
8
BLACK
6
CONTINUOUS
10
104.049
20
-164.388
11
104.239
21
-164.293
0
LINE
8
BLACK
6
CONTINUOUS
10
105.763
20
-166.102
11
105.858
21
-166.198
0
LINE
8
BLACK
6
CONTINUOUS
10
105.858
20
-166.198
11
105.763
21
-166.293
0
LINE
8
BLACK
6
CONTINUOUS
10
105.763
20
-166.293
11
105.668
21
-166.198
0
LINE
8
BLACK
6
CONTINUOUS
10
105.668
20
-166.198
11
105.763
21
-166.102
0
LINE
8
BLACK
6
CONTINUOUS
10
105.763
20
-166.102
11
105.763
21
-166.293
0
LINE
8
BLACK
6
CONTINUOUS
10
107.096
20
-164.293
11
107.287
21
-164.293
0
LINE
8
BLACK
6
CONTINUOUS
10
107.287
20
-164.293
11
107.477
21
-164.388
0
LINE
8
BLACK
6
CONTINUOUS
10
107.477
20
-164.388
11
107.572
21
-164.483
0
LINE
8
BLACK
6
CONTINUOUS
10
107.572
20
-164.483
11
107.668
21
-164.674
0
LINE
8
BLACK
6
CONTINUOUS
10
107.668
20
-164.674
11
107.763
21
-165.055
0
LINE
8
BLACK
6
CONTINUOUS
10
107.763
20
-165.055
11
107.763
21
-165.531
0
LINE
8
BLACK
6
CONTINUOUS
10
107.763
20
-165.531
11
107.668
21
-165.912
0
LINE
8
BLACK
6
CONTINUOUS
10
107.668
20
-165.912
11
107.572
21
-166.102
0
LINE
8
BLACK
6
CONTINUOUS
10
107.572
20
-166.102
11
107.477
21
-166.198
0
LINE
8
BLACK
6
CONTINUOUS
10
107.477
20
-166.198
11
107.287
21
-166.293
0
LINE
8
BLACK
6
CONTINUOUS
10
107.287
20
-166.293
11
107.096
21
-166.293
0
LINE
8
BLACK
6
CONTINUOUS
10
107.096
20
-166.293
11
106.906
21
-166.198
0
LINE
8
BLACK
6
CONTINUOUS
10
106.906
20
-166.198
11
106.811
21
-166.102
0
LINE
8
BLACK
6
CONTINUOUS
10
106.811
20
-166.102
11
106.715
21
-165.912
0
LINE
8
BLACK
6
CONTINUOUS
10
106.715
20
-165.912
11
106.62
21
-165.531
0
LINE
8
BLACK
6
CONTINUOUS
10
106.62
20
-165.531
11
106.62
21
-165.055
0
LINE
8
BLACK
6
CONTINUOUS
10
106.62
20
-165.055
11
106.715
21
-164.674
0
LINE
8
BLACK
6
CONTINUOUS
10
106.715
20
-164.674
11
106.811
21
-164.483
0
LINE
8
BLACK
6
CONTINUOUS
10
106.811
20
-164.483
11
106.906
21
-164.388
0
LINE
8
BLACK
6
CONTINUOUS
10
106.906
20
-164.388
11
107.096
21
-164.293
0
LINE
8
BLACK
6
CONTINUOUS
10
108.43
20
-164.293
11
109.668
21
-164.293
0
LINE
8
BLACK
6
CONTINUOUS
10
109.668
20
-164.293
11
109.001
21
-165.055
0
LINE
8
BLACK
6
CONTINUOUS
10
109.001
20
-165.055
11
109.287
21
-165.055
0
LINE
8
BLACK
6
CONTINUOUS
10
109.287
20
-165.055
11
109.477
21
-165.15
0
LINE
8
BLACK
6
CONTINUOUS
10
109.477
20
-165.15
11
109.572
21
-165.245
0
LINE
8
BLACK
6
CONTINUOUS
10
109.572
20
-165.245
11
109.668
21
-165.436
0
LINE
8
BLACK
6
CONTINUOUS
10
109.668
20
-165.436
11
109.668
21
-165.912
0
LINE
8
BLACK
6
CONTINUOUS
10
109.668
20
-165.912
11
109.572
21
-166.102
0
LINE
8
BLACK
6
CONTINUOUS
10
109.572
20
-166.102
11
109.477
21
-166.198
0
LINE
8
BLACK
6
CONTINUOUS
10
109.477
20
-166.198
11
109.287
21
-166.293
0
LINE
8
BLACK
6
CONTINUOUS
10
109.287
20
-166.293
11
108.715
21
-166.293
0
LINE
8
BLACK
6
CONTINUOUS
10
108.715
20
-166.293
11
108.525
21
-166.198
0
LINE
8
BLACK
6
CONTINUOUS
10
108.525
20
-166.198
11
108.43
21
-166.102
0
LINE
8
BLACK
6
CONTINUOUS
10
110.62
20
-166.293
11
111.001
21
-166.293
0
LINE
8
BLACK
6
CONTINUOUS
10
111.001
20
-166.293
11
111.192
21
-166.198
0
LINE
8
BLACK
6
CONTINUOUS
10
111.192
20
-166.198
11
111.287
21
-166.102
0
LINE
8
BLACK
6
CONTINUOUS
10
111.287
20
-166.102
11
111.477
21
-165.817
0
LINE
8
BLACK
6
CONTINUOUS
10
111.477
20
-165.817
11
111.572
21
-165.436
0
LINE
8
BLACK
6
CONTINUOUS
10
111.572
20
-165.436
11
111.572
21
-164.674
0
LINE
8
BLACK
6
CONTINUOUS
10
111.572
20
-164.674
11
111.477
21
-164.483
0
LINE
8
BLACK
6
CONTINUOUS
10
111.477
20
-164.483
11
111.382
21
-164.388
0
LINE
8
BLACK
6
CONTINUOUS
10
111.382
20
-164.388
11
111.192
21
-164.293
0
LINE
8
BLACK
6
CONTINUOUS
10
111.192
20
-164.293
11
110.811
21
-164.293
0
LINE
8
BLACK
6
CONTINUOUS
10
110.811
20
-164.293
11
110.62
21
-164.388
0
LINE
8
BLACK
6
CONTINUOUS
10
110.62
20
-164.388
11
110.525
21
-164.483
0
LINE
8
BLACK
6
CONTINUOUS
10
110.525
20
-164.483
11
110.43
21
-164.674
0
LINE
8
BLACK
6
CONTINUOUS
10
110.43
20
-164.674
11
110.43
21
-165.15
0
LINE
8
BLACK
6
CONTINUOUS
10
110.43
20
-165.15
11
110.525
21
-165.34
0
LINE
8
BLACK
6
CONTINUOUS
10
110.525
20
-165.34
11
110.62
21
-165.436
0
LINE
8
BLACK
6
CONTINUOUS
10
110.62
20
-165.436
11
110.811
21
-165.531
0
LINE
8
BLACK
6
CONTINUOUS
10
110.811
20
-165.531
11
111.192
21
-165.531
0
LINE
8
BLACK
6
CONTINUOUS
10
111.192
20
-165.531
11
111.382
21
-165.436
0
LINE
8
BLACK
6
CONTINUOUS
10
111.382
20
-165.436
11
111.477
21
-165.34
0
LINE
8
BLACK
6
CONTINUOUS
10
111.477
20
-165.34
11
111.572
21
-165.15
0
LINE
8
BLACK
6
CONTINUOUS
10
113.287
20
-164.959
11
113.287
21
-166.293
0
LINE
8
BLACK
6
CONTINUOUS
10
112.811
20
-164.198
11
112.334
21
-165.626
0
LINE
8
BLACK
6
CONTINUOUS
10
112.334
20
-165.626
11
113.572
21
-165.626
0
LINE
8
BLACK
6
CONTINUOUS
10
114.239
20
-164.293
11
114.239
21
-164.674
0
LINE
8
BLACK
6
CONTINUOUS
10
115.001
20
-164.293
11
115.001
21
-164.674
0
LINE
8
BLACK
6
CONTINUOUS
10
117.63
20
-167.055
11
117.534
21
-166.959
0
LINE
8
BLACK
6
CONTINUOUS
10
117.534
20
-166.959
11
117.344
21
-166.674
0
LINE
8
BLACK
6
CONTINUOUS
10
117.344
20
-166.674
11
117.249
21
-166.483
0
LINE
8
BLACK
6
CONTINUOUS
10
117.249
20
-166.483
11
117.153
21
-166.198
0
LINE
8
BLACK
6
CONTINUOUS
10
117.153
20
-166.198
11
117.058
21
-165.721
0
LINE
8
BLACK
6
CONTINUOUS
10
117.058
20
-165.721
11
117.058
21
-165.34
0
LINE
8
BLACK
6
CONTINUOUS
10
117.058
20
-165.34
11
117.153
21
-164.864
0
LINE
8
BLACK
6
CONTINUOUS
10
117.153
20
-164.864
11
117.249
21
-164.578
0
LINE
8
BLACK
6
CONTINUOUS
10
117.249
20
-164.578
11
117.344
21
-164.388
0
LINE
8
BLACK
6
CONTINUOUS
10
117.344
20
-164.388
11
117.534
21
-164.102
0
LINE
8
BLACK
6
CONTINUOUS
10
117.534
20
-164.102
11
117.63
21
-164.007
0
LINE
8
BLACK
6
CONTINUOUS
10
118.296
20
-164.483
11
118.392
21
-164.388
0
LINE
8
BLACK
6
CONTINUOUS
10
118.392
20
-164.388
11
118.582
21
-164.293
0
LINE
8
BLACK
6
CONTINUOUS
10
118.582
20
-164.293
11
119.058
21
-164.293
0
LINE
8
BLACK
6
CONTINUOUS
10
119.058
20
-164.293
11
119.249
21
-164.388
0
LINE
8
BLACK
6
CONTINUOUS
10
119.249
20
-164.388
11
119.344
21
-164.483
0
LINE
8
BLACK
6
CONTINUOUS
10
119.344
20
-164.483
11
119.439
21
-164.674
0
LINE
8
BLACK
6
CONTINUOUS
10
119.439
20
-164.674
11
119.439
21
-164.864
0
LINE
8
BLACK
6
CONTINUOUS
10
119.439
20
-164.864
11
119.344
21
-165.15
0
LINE
8
BLACK
6
CONTINUOUS
10
119.344
20
-165.15
11
118.201
21
-166.293
0
LINE
8
BLACK
6
CONTINUOUS
10
118.201
20
-166.293
11
119.439
21
-166.293
0
LINE
8
BLACK
6
CONTINUOUS
10
120.677
20
-164.293
11
120.868
21
-164.293
0
LINE
8
BLACK
6
CONTINUOUS
10
120.868
20
-164.293
11
121.058
21
-164.388
0
LINE
8
BLACK
6
CONTINUOUS
10
121.058
20
-164.388
11
121.153
21
-164.483
0
LINE
8
BLACK
6
CONTINUOUS
10
121.153
20
-164.483
11
121.249
21
-164.674
0
LINE
8
BLACK
6
CONTINUOUS
10
121.249
20
-164.674
11
121.344
21
-165.055
0
LINE
8
BLACK
6
CONTINUOUS
10
121.344
20
-165.055
11
121.344
21
-165.531
0
LINE
8
BLACK
6
CONTINUOUS
10
121.344
20
-165.531
11
121.249
21
-165.912
0
LINE
8
BLACK
6
CONTINUOUS
10
121.249
20
-165.912
11
121.153
21
-166.102
0
LINE
8
BLACK
6
CONTINUOUS
10
121.153
20
-166.102
11
121.058
21
-166.198
0
LINE
8
BLACK
6
CONTINUOUS
10
121.058
20
-166.198
11
120.868
21
-166.293
0
LINE
8
BLACK
6
CONTINUOUS
10
120.868
20
-166.293
11
120.677
21
-166.293
0
LINE
8
BLACK
6
CONTINUOUS
10
120.677
20
-166.293
11
120.487
21
-166.198
0
LINE
8
BLACK
6
CONTINUOUS
10
120.487
20
-166.198
11
120.392
21
-166.102
0
LINE
8
BLACK
6
CONTINUOUS
10
120.392
20
-166.102
11
120.296
21
-165.912
0
LINE
8
BLACK
6
CONTINUOUS
10
120.296
20
-165.912
11
120.201
21
-165.531
0
LINE
8
BLACK
6
CONTINUOUS
10
120.201
20
-165.531
11
120.201
21
-165.055
0
LINE
8
BLACK
6
CONTINUOUS
10
120.201
20
-165.055
11
120.296
21
-164.674
0
LINE
8
BLACK
6
CONTINUOUS
10
120.296
20
-164.674
11
120.392
21
-164.483
0
LINE
8
BLACK
6
CONTINUOUS
10
120.392
20
-164.483
11
120.487
21
-164.388
0
LINE
8
BLACK
6
CONTINUOUS
10
120.487
20
-164.388
11
120.677
21
-164.293
0
LINE
8
BLACK
6
CONTINUOUS
10
123.401
20
-166.293
11
123.401
21
-164.293
0
LINE
8
BLACK
6
CONTINUOUS
10
124.258
20
-166.293
11
124.258
21
-165.245
0
LINE
8
BLACK
6
CONTINUOUS
10
124.258
20
-165.245
11
124.163
21
-165.055
0
LINE
8
BLACK
6
CONTINUOUS
10
124.163
20
-165.055
11
123.972
21
-164.959
0
LINE
8
BLACK
6
CONTINUOUS
10
123.972
20
-164.959
11
123.687
21
-164.959
0
LINE
8
BLACK
6
CONTINUOUS
10
123.687
20
-164.959
11
123.496
21
-165.055
0
LINE
8
BLACK
6
CONTINUOUS
10
123.496
20
-165.055
11
123.401
21
-165.15
0
LINE
8
BLACK
6
CONTINUOUS
10
125.496
20
-166.293
11
125.306
21
-166.198
0
LINE
8
BLACK
6
CONTINUOUS
10
125.306
20
-166.198
11
125.211
21
-166.102
0
LINE
8
BLACK
6
CONTINUOUS
10
125.211
20
-166.102
11
125.115
21
-165.912
0
LINE
8
BLACK
6
CONTINUOUS
10
125.115
20
-165.912
11
125.115
21
-165.34
0
LINE
8
BLACK
6
CONTINUOUS
10
125.115
20
-165.34
11
125.211
21
-165.15
0
LINE
8
BLACK
6
CONTINUOUS
10
125.211
20
-165.15
11
125.306
21
-165.055
0
LINE
8
BLACK
6
CONTINUOUS
10
125.306
20
-165.055
11
125.496
21
-164.959
0
LINE
8
BLACK
6
CONTINUOUS
10
125.496
20
-164.959
11
125.782
21
-164.959
0
LINE
8
BLACK
6
CONTINUOUS
10
125.782
20
-164.959
11
125.972
21
-165.055
0
LINE
8
BLACK
6
CONTINUOUS
10
125.972
20
-165.055
11
126.068
21
-165.15
0
LINE
8
BLACK
6
CONTINUOUS
10
126.068
20
-165.15
11
126.163
21
-165.34
0
LINE
8
BLACK
6
CONTINUOUS
10
126.163
20
-165.34
11
126.163
21
-165.912
0
LINE
8
BLACK
6
CONTINUOUS
10
126.163
20
-165.912
11
126.068
21
-166.102
0
LINE
8
BLACK
6
CONTINUOUS
10
126.068
20
-166.102
11
125.972
21
-166.198
0
LINE
8
BLACK
6
CONTINUOUS
10
125.972
20
-166.198
11
125.782
21
-166.293
0
LINE
8
BLACK
6
CONTINUOUS
10
125.782
20
-166.293
11
125.496
21
-166.293
0
LINE
8
BLACK
6
CONTINUOUS
10
127.306
20
-166.293
11
127.115
21
-166.198
0
LINE
8
BLACK
6
CONTINUOUS
10
127.115
20
-166.198
11
127.02
21
-166.007
0
LINE
8
BLACK
6
CONTINUOUS
10
127.02
20
-166.007
11
127.02
21
-164.293
0
LINE
8
BLACK
6
CONTINUOUS
10
128.83
20
-166.198
11
128.639
21
-166.293
0
LINE
8
BLACK
6
CONTINUOUS
10
128.639
20
-166.293
11
128.258
21
-166.293
0
LINE
8
BLACK
6
CONTINUOUS
10
128.258
20
-166.293
11
128.068
21
-166.198
0
LINE
8
BLACK
6
CONTINUOUS
10
128.068
20
-166.198
11
127.972
21
-166.007
0
LINE
8
BLACK
6
CONTINUOUS
10
127.972
20
-166.007
11
127.972
21
-165.245
0
LINE
8
BLACK
6
CONTINUOUS
10
127.972
20
-165.245
11
128.068
21
-165.055
0
LINE
8
BLACK
6
CONTINUOUS
10
128.068
20
-165.055
11
128.258
21
-164.959
0
LINE
8
BLACK
6
CONTINUOUS
10
128.258
20
-164.959
11
128.639
21
-164.959
0
LINE
8
BLACK
6
CONTINUOUS
10
128.639
20
-164.959
11
128.83
21
-165.055
0
LINE
8
BLACK
6
CONTINUOUS
10
128.83
20
-165.055
11
128.925
21
-165.245
0
LINE
8
BLACK
6
CONTINUOUS
10
128.925
20
-165.245
11
128.925
21
-165.436
0
LINE
8
BLACK
6
CONTINUOUS
10
128.925
20
-165.436
11
127.972
21
-165.626
0
LINE
8
BLACK
6
CONTINUOUS
10
129.687
20
-166.198
11
129.877
21
-166.293
0
LINE
8
BLACK
6
CONTINUOUS
10
129.877
20
-166.293
11
130.258
21
-166.293
0
LINE
8
BLACK
6
CONTINUOUS
10
130.258
20
-166.293
11
130.449
21
-166.198
0
LINE
8
BLACK
6
CONTINUOUS
10
130.449
20
-166.198
11
130.544
21
-166.007
0
LINE
8
BLACK
6
CONTINUOUS
10
130.544
20
-166.007
11
130.544
21
-165.912
0
LINE
8
BLACK
6
CONTINUOUS
10
130.544
20
-165.912
11
130.449
21
-165.721
0
LINE
8
BLACK
6
CONTINUOUS
10
130.449
20
-165.721
11
130.258
21
-165.626
0
LINE
8
BLACK
6
CONTINUOUS
10
130.258
20
-165.626
11
129.972
21
-165.626
0
LINE
8
BLACK
6
CONTINUOUS
10
129.972
20
-165.626
11
129.782
21
-165.531
0
LINE
8
BLACK
6
CONTINUOUS
10
129.782
20
-165.531
11
129.687
21
-165.34
0
LINE
8
BLACK
6
CONTINUOUS
10
129.687
20
-165.34
11
129.687
21
-165.245
0
LINE
8
BLACK
6
CONTINUOUS
10
129.687
20
-165.245
11
129.782
21
-165.055
0
LINE
8
BLACK
6
CONTINUOUS
10
129.782
20
-165.055
11
129.972
21
-164.959
0
LINE
8
BLACK
6
CONTINUOUS
10
129.972
20
-164.959
11
130.258
21
-164.959
0
LINE
8
BLACK
6
CONTINUOUS
10
130.258
20
-164.959
11
130.449
21
-165.055
0
LINE
8
BLACK
6
CONTINUOUS
10
131.211
20
-167.055
11
131.306
21
-166.959
0
LINE
8
BLACK
6
CONTINUOUS
10
131.306
20
-166.959
11
131.496
21
-166.674
0
LINE
8
BLACK
6
CONTINUOUS
10
131.496
20
-166.674
11
131.592
21
-166.483
0
LINE
8
BLACK
6
CONTINUOUS
10
131.592
20
-166.483
11
131.687
21
-166.198
0
LINE
8
BLACK
6
CONTINUOUS
10
131.687
20
-166.198
11
131.782
21
-165.721
0
LINE
8
BLACK
6
CONTINUOUS
10
131.782
20
-165.721
11
131.782
21
-165.34
0
LINE
8
BLACK
6
CONTINUOUS
10
131.782
20
-165.34
11
131.687
21
-164.864
0
LINE
8
BLACK
6
CONTINUOUS
10
131.687
20
-164.864
11
131.592
21
-164.578
0
LINE
8
BLACK
6
CONTINUOUS
10
131.592
20
-164.578
11
131.496
21
-164.388
0
LINE
8
BLACK
6
CONTINUOUS
10
131.496
20
-164.388
11
131.306
21
-164.102
0
LINE
8
BLACK
6
CONTINUOUS
10
131.306
20
-164.102
11
131.211
21
-164.007
  0
ENDSEC
  0
EOF
