%TF.GenerationSoftware,KiCad,Pcbnew,(5.1.9-0-10_14)*%
%TF.CreationDate,2021-02-05T22:05:55+01:00*%
%TF.ProjectId,itho_rv_sensor,6974686f-5f72-4765-9f73-656e736f722e,rev?*%
%TF.SameCoordinates,Original*%
%TF.FileFunction,Copper,L1,Top*%
%TF.FilePolarity,Positive*%
%FSLAX46Y46*%
G04 Gerber Fmt 4.6, Leading zero omitted, Abs format (unit mm)*
G04 Created by KiCad (PCBNEW (5.1.9-0-10_14)) date 2021-02-05 22:05:55*
%MOMM*%
%LPD*%
G01*
G04 APERTURE LIST*
%TA.AperFunction,SMDPad,CuDef*%
%ADD10R,0.550000X0.250000*%
%TD*%
%TA.AperFunction,SMDPad,CuDef*%
%ADD11C,0.100000*%
%TD*%
%TA.AperFunction,SMDPad,CuDef*%
%ADD12R,1.500000X1.000000*%
%TD*%
%TA.AperFunction,ComponentPad*%
%ADD13O,1.700000X1.700000*%
%TD*%
%TA.AperFunction,ComponentPad*%
%ADD14R,1.700000X1.700000*%
%TD*%
%TA.AperFunction,ViaPad*%
%ADD15C,0.800000*%
%TD*%
%TA.AperFunction,Conductor*%
%ADD16C,0.254000*%
%TD*%
%TA.AperFunction,Conductor*%
%ADD17C,0.100000*%
%TD*%
G04 APERTURE END LIST*
%TO.P,R5,2*%
%TO.N,GND*%
%TA.AperFunction,SMDPad,CuDef*%
G36*
G01*
X126765000Y-101198000D02*
X126765000Y-101748000D01*
G75*
G02*
X126565000Y-101948000I-200000J0D01*
G01*
X126165000Y-101948000D01*
G75*
G02*
X125965000Y-101748000I0J200000D01*
G01*
X125965000Y-101198000D01*
G75*
G02*
X126165000Y-100998000I200000J0D01*
G01*
X126565000Y-100998000D01*
G75*
G02*
X126765000Y-101198000I0J-200000D01*
G01*
G37*
%TD.AperFunction*%
%TO.P,R5,1*%
%TO.N,Net-(J1-Pad5)*%
%TA.AperFunction,SMDPad,CuDef*%
G36*
G01*
X128415000Y-101198000D02*
X128415000Y-101748000D01*
G75*
G02*
X128215000Y-101948000I-200000J0D01*
G01*
X127815000Y-101948000D01*
G75*
G02*
X127615000Y-101748000I0J200000D01*
G01*
X127615000Y-101198000D01*
G75*
G02*
X127815000Y-100998000I200000J0D01*
G01*
X128215000Y-100998000D01*
G75*
G02*
X128415000Y-101198000I0J-200000D01*
G01*
G37*
%TD.AperFunction*%
%TD*%
%TO.P,R4,2*%
%TO.N,Net-(J1-Pad3)*%
%TA.AperFunction,SMDPad,CuDef*%
G36*
G01*
X127616000Y-100097000D02*
X127616000Y-99547000D01*
G75*
G02*
X127816000Y-99347000I200000J0D01*
G01*
X128216000Y-99347000D01*
G75*
G02*
X128416000Y-99547000I0J-200000D01*
G01*
X128416000Y-100097000D01*
G75*
G02*
X128216000Y-100297000I-200000J0D01*
G01*
X127816000Y-100297000D01*
G75*
G02*
X127616000Y-100097000I0J200000D01*
G01*
G37*
%TD.AperFunction*%
%TO.P,R4,1*%
%TO.N,Net-(R2-Pad2)*%
%TA.AperFunction,SMDPad,CuDef*%
G36*
G01*
X125966000Y-100097000D02*
X125966000Y-99547000D01*
G75*
G02*
X126166000Y-99347000I200000J0D01*
G01*
X126566000Y-99347000D01*
G75*
G02*
X126766000Y-99547000I0J-200000D01*
G01*
X126766000Y-100097000D01*
G75*
G02*
X126566000Y-100297000I-200000J0D01*
G01*
X126166000Y-100297000D01*
G75*
G02*
X125966000Y-100097000I0J200000D01*
G01*
G37*
%TD.AperFunction*%
%TD*%
%TO.P,R3,2*%
%TO.N,Net-(R1-Pad2)*%
%TA.AperFunction,SMDPad,CuDef*%
G36*
G01*
X126765000Y-104373000D02*
X126765000Y-104923000D01*
G75*
G02*
X126565000Y-105123000I-200000J0D01*
G01*
X126165000Y-105123000D01*
G75*
G02*
X125965000Y-104923000I0J200000D01*
G01*
X125965000Y-104373000D01*
G75*
G02*
X126165000Y-104173000I200000J0D01*
G01*
X126565000Y-104173000D01*
G75*
G02*
X126765000Y-104373000I0J-200000D01*
G01*
G37*
%TD.AperFunction*%
%TO.P,R3,1*%
%TO.N,Net-(J1-Pad7)*%
%TA.AperFunction,SMDPad,CuDef*%
G36*
G01*
X128415000Y-104373000D02*
X128415000Y-104923000D01*
G75*
G02*
X128215000Y-105123000I-200000J0D01*
G01*
X127815000Y-105123000D01*
G75*
G02*
X127615000Y-104923000I0J200000D01*
G01*
X127615000Y-104373000D01*
G75*
G02*
X127815000Y-104173000I200000J0D01*
G01*
X128215000Y-104173000D01*
G75*
G02*
X128415000Y-104373000I0J-200000D01*
G01*
G37*
%TD.AperFunction*%
%TD*%
%TO.P,R2,2*%
%TO.N,Net-(R2-Pad2)*%
%TA.AperFunction,SMDPad,CuDef*%
G36*
G01*
X124504000Y-100097000D02*
X124504000Y-99547000D01*
G75*
G02*
X124704000Y-99347000I200000J0D01*
G01*
X125104000Y-99347000D01*
G75*
G02*
X125304000Y-99547000I0J-200000D01*
G01*
X125304000Y-100097000D01*
G75*
G02*
X125104000Y-100297000I-200000J0D01*
G01*
X124704000Y-100297000D01*
G75*
G02*
X124504000Y-100097000I0J200000D01*
G01*
G37*
%TD.AperFunction*%
%TO.P,R2,1*%
%TO.N,+5V*%
%TA.AperFunction,SMDPad,CuDef*%
G36*
G01*
X122854000Y-100097000D02*
X122854000Y-99547000D01*
G75*
G02*
X123054000Y-99347000I200000J0D01*
G01*
X123454000Y-99347000D01*
G75*
G02*
X123654000Y-99547000I0J-200000D01*
G01*
X123654000Y-100097000D01*
G75*
G02*
X123454000Y-100297000I-200000J0D01*
G01*
X123054000Y-100297000D01*
G75*
G02*
X122854000Y-100097000I0J200000D01*
G01*
G37*
%TD.AperFunction*%
%TD*%
%TO.P,R1,2*%
%TO.N,Net-(R1-Pad2)*%
%TA.AperFunction,SMDPad,CuDef*%
G36*
G01*
X124504000Y-104923000D02*
X124504000Y-104373000D01*
G75*
G02*
X124704000Y-104173000I200000J0D01*
G01*
X125104000Y-104173000D01*
G75*
G02*
X125304000Y-104373000I0J-200000D01*
G01*
X125304000Y-104923000D01*
G75*
G02*
X125104000Y-105123000I-200000J0D01*
G01*
X124704000Y-105123000D01*
G75*
G02*
X124504000Y-104923000I0J200000D01*
G01*
G37*
%TD.AperFunction*%
%TO.P,R1,1*%
%TO.N,+5V*%
%TA.AperFunction,SMDPad,CuDef*%
G36*
G01*
X122854000Y-104923000D02*
X122854000Y-104373000D01*
G75*
G02*
X123054000Y-104173000I200000J0D01*
G01*
X123454000Y-104173000D01*
G75*
G02*
X123654000Y-104373000I0J-200000D01*
G01*
X123654000Y-104923000D01*
G75*
G02*
X123454000Y-105123000I-200000J0D01*
G01*
X123054000Y-105123000D01*
G75*
G02*
X122854000Y-104923000I0J200000D01*
G01*
G37*
%TD.AperFunction*%
%TD*%
%TO.P,C1,2*%
%TO.N,GND*%
%TA.AperFunction,SMDPad,CuDef*%
G36*
G01*
X123567000Y-101923000D02*
X123067000Y-101923000D01*
G75*
G02*
X122842000Y-101698000I0J225000D01*
G01*
X122842000Y-101248000D01*
G75*
G02*
X123067000Y-101023000I225000J0D01*
G01*
X123567000Y-101023000D01*
G75*
G02*
X123792000Y-101248000I0J-225000D01*
G01*
X123792000Y-101698000D01*
G75*
G02*
X123567000Y-101923000I-225000J0D01*
G01*
G37*
%TD.AperFunction*%
%TO.P,C1,1*%
%TO.N,+5V*%
%TA.AperFunction,SMDPad,CuDef*%
G36*
G01*
X123567000Y-103473000D02*
X123067000Y-103473000D01*
G75*
G02*
X122842000Y-103248000I0J225000D01*
G01*
X122842000Y-102798000D01*
G75*
G02*
X123067000Y-102573000I225000J0D01*
G01*
X123567000Y-102573000D01*
G75*
G02*
X123792000Y-102798000I0J-225000D01*
G01*
X123792000Y-103248000D01*
G75*
G02*
X123567000Y-103473000I-225000J0D01*
G01*
G37*
%TD.AperFunction*%
%TD*%
D10*
%TO.P,U1,1*%
%TO.N,Net-(R2-Pad2)*%
X118967000Y-101485000D03*
%TO.P,U1,2*%
%TO.N,Net-(JP1-Pad2)*%
X118967000Y-101985000D03*
%TO.P,U1,3*%
%TO.N,Net-(U1-Pad3)*%
X118967000Y-102485000D03*
%TO.P,U1,4*%
%TO.N,Net-(R1-Pad2)*%
X118967000Y-102985000D03*
%TO.P,U1,5*%
%TO.N,+5V*%
X121317000Y-102985000D03*
%TO.P,U1,6*%
%TO.N,Net-(U1-Pad6)*%
X121317000Y-102485000D03*
%TO.P,U1,7*%
%TO.N,GND*%
X121317000Y-101985000D03*
%TO.P,U1,8*%
X121317000Y-101485000D03*
%TA.AperFunction,SMDPad,CuDef*%
D11*
%TO.P,U1,9*%
G36*
X120642000Y-103085000D02*
G01*
X119642000Y-103085000D01*
X119642000Y-101685000D01*
X119942000Y-101385000D01*
X120642000Y-101385000D01*
X120642000Y-103085000D01*
G37*
%TD.AperFunction*%
%TD*%
D12*
%TO.P,Address,2*%
%TO.N,Net-(JP1-Pad2)*%
X115951000Y-101981000D03*
%TA.AperFunction,SMDPad,CuDef*%
D11*
%TO.P,Address,3*%
%TO.N,+5V*%
G36*
X116700398Y-103281000D02*
G01*
X116700398Y-103305534D01*
X116695588Y-103354365D01*
X116686016Y-103402490D01*
X116671772Y-103449445D01*
X116652995Y-103494778D01*
X116629864Y-103538051D01*
X116602604Y-103578850D01*
X116571476Y-103616779D01*
X116536779Y-103651476D01*
X116498850Y-103682604D01*
X116458051Y-103709864D01*
X116414778Y-103732995D01*
X116369445Y-103751772D01*
X116322490Y-103766016D01*
X116274365Y-103775588D01*
X116225534Y-103780398D01*
X116201000Y-103780398D01*
X116201000Y-103781000D01*
X115701000Y-103781000D01*
X115701000Y-103780398D01*
X115676466Y-103780398D01*
X115627635Y-103775588D01*
X115579510Y-103766016D01*
X115532555Y-103751772D01*
X115487222Y-103732995D01*
X115443949Y-103709864D01*
X115403150Y-103682604D01*
X115365221Y-103651476D01*
X115330524Y-103616779D01*
X115299396Y-103578850D01*
X115272136Y-103538051D01*
X115249005Y-103494778D01*
X115230228Y-103449445D01*
X115215984Y-103402490D01*
X115206412Y-103354365D01*
X115201602Y-103305534D01*
X115201602Y-103281000D01*
X115201000Y-103281000D01*
X115201000Y-102731000D01*
X116701000Y-102731000D01*
X116701000Y-103281000D01*
X116700398Y-103281000D01*
G37*
%TD.AperFunction*%
%TA.AperFunction,SMDPad,CuDef*%
%TO.P,Address,1*%
%TO.N,GND*%
G36*
X115201000Y-101231000D02*
G01*
X115201000Y-100681000D01*
X115201602Y-100681000D01*
X115201602Y-100656466D01*
X115206412Y-100607635D01*
X115215984Y-100559510D01*
X115230228Y-100512555D01*
X115249005Y-100467222D01*
X115272136Y-100423949D01*
X115299396Y-100383150D01*
X115330524Y-100345221D01*
X115365221Y-100310524D01*
X115403150Y-100279396D01*
X115443949Y-100252136D01*
X115487222Y-100229005D01*
X115532555Y-100210228D01*
X115579510Y-100195984D01*
X115627635Y-100186412D01*
X115676466Y-100181602D01*
X115701000Y-100181602D01*
X115701000Y-100181000D01*
X116201000Y-100181000D01*
X116201000Y-100181602D01*
X116225534Y-100181602D01*
X116274365Y-100186412D01*
X116322490Y-100195984D01*
X116369445Y-100210228D01*
X116414778Y-100229005D01*
X116458051Y-100252136D01*
X116498850Y-100279396D01*
X116536779Y-100310524D01*
X116571476Y-100345221D01*
X116602604Y-100383150D01*
X116629864Y-100423949D01*
X116652995Y-100467222D01*
X116671772Y-100512555D01*
X116686016Y-100559510D01*
X116695588Y-100607635D01*
X116700398Y-100656466D01*
X116700398Y-100681000D01*
X116701000Y-100681000D01*
X116701000Y-101231000D01*
X115201000Y-101231000D01*
G37*
%TD.AperFunction*%
%TD*%
D13*
%TO.P,J1,10*%
%TO.N,Net-(J1-Pad10)*%
X134620000Y-107188000D03*
%TO.P,J1,9*%
%TO.N,GND*%
X132080000Y-107188000D03*
%TO.P,J1,8*%
%TO.N,Net-(J1-Pad8)*%
X134620000Y-104648000D03*
%TO.P,J1,7*%
%TO.N,Net-(J1-Pad7)*%
X132080000Y-104648000D03*
%TO.P,J1,6*%
%TO.N,Net-(J1-Pad6)*%
X134620000Y-102108000D03*
%TO.P,J1,5*%
%TO.N,Net-(J1-Pad5)*%
X132080000Y-102108000D03*
%TO.P,J1,4*%
%TO.N,Net-(J1-Pad4)*%
X134620000Y-99568000D03*
%TO.P,J1,3*%
%TO.N,Net-(J1-Pad3)*%
X132080000Y-99568000D03*
%TO.P,J1,2*%
%TO.N,Net-(J1-Pad2)*%
X134620000Y-97028000D03*
D14*
%TO.P,J1,1*%
%TO.N,+5V*%
X132080000Y-97028000D03*
%TD*%
D15*
%TO.N,GND*%
X122174000Y-100965000D03*
%TO.N,+5V*%
X122174000Y-103759000D03*
X121031000Y-99822000D03*
X115951000Y-104521000D03*
%TD*%
D16*
%TO.N,Net-(J1-Pad7)*%
X128015000Y-104648000D02*
X132080000Y-104648000D01*
%TO.N,Net-(J1-Pad5)*%
X130429000Y-102108000D02*
X132080000Y-102108000D01*
X129794000Y-101473000D02*
X130429000Y-102108000D01*
X128015000Y-101473000D02*
X129794000Y-101473000D01*
%TO.N,Net-(J1-Pad3)*%
X131826000Y-99822000D02*
X132080000Y-99568000D01*
X128016000Y-99822000D02*
X129794000Y-99822000D01*
X130048000Y-99568000D02*
X132080000Y-99568000D01*
X129794000Y-99822000D02*
X130048000Y-99568000D01*
%TO.N,Net-(JP1-Pad2)*%
X116455000Y-101985000D02*
X116205000Y-102235000D01*
X115955000Y-101985000D02*
X115951000Y-101981000D01*
X118967000Y-101985000D02*
X115955000Y-101985000D01*
%TO.N,Net-(R1-Pad2)*%
X126365000Y-104648000D02*
X124904000Y-104648000D01*
X120269000Y-105791000D02*
X118967000Y-104489000D01*
X124904000Y-104648000D02*
X124904000Y-105474000D01*
X124904000Y-105474000D02*
X124587000Y-105791000D01*
X124587000Y-105791000D02*
X120269000Y-105791000D01*
X118967000Y-104489000D02*
X118967000Y-102985000D01*
%TO.N,Net-(R2-Pad2)*%
X126366000Y-99822000D02*
X124904000Y-99822000D01*
X120269000Y-98552000D02*
X124460000Y-98552000D01*
X118967000Y-101485000D02*
X118967000Y-99854000D01*
X124460000Y-98552000D02*
X124904000Y-98996000D01*
X118967000Y-99854000D02*
X120269000Y-98552000D01*
X124904000Y-98996000D02*
X124904000Y-99822000D01*
%TO.N,GND*%
X120392000Y-101985000D02*
X120142000Y-102235000D01*
X121317000Y-101985000D02*
X120392000Y-101985000D01*
X121317000Y-101485000D02*
X121317000Y-101985000D01*
%TO.N,+5V*%
X123254000Y-99822000D02*
X121031000Y-99822000D01*
X123254000Y-104648000D02*
X123063000Y-104648000D01*
X123279000Y-102985000D02*
X123317000Y-103023000D01*
X122162000Y-103747000D02*
X122174000Y-103759000D01*
X122162000Y-102985000D02*
X122162000Y-103747000D01*
X121317000Y-102985000D02*
X122162000Y-102985000D01*
X122162000Y-102985000D02*
X123279000Y-102985000D01*
X122174000Y-103759000D02*
X122174000Y-104394000D01*
X122428000Y-104648000D02*
X123254000Y-104648000D01*
X122174000Y-104394000D02*
X122428000Y-104648000D01*
X115951000Y-104521000D02*
X115951000Y-103281000D01*
%TD*%
%TO.N,GND*%
X136398000Y-97642126D02*
X136395944Y-97663000D01*
X136398000Y-97683874D01*
X136398000Y-98912126D01*
X136395944Y-98933000D01*
X136398000Y-98953874D01*
X136398000Y-105262126D01*
X136395944Y-105283000D01*
X136398000Y-105303874D01*
X136398000Y-106532126D01*
X136395944Y-106553000D01*
X136398000Y-106573874D01*
X136398000Y-111633400D01*
X131342821Y-111633400D01*
X131170391Y-111616493D01*
X131028401Y-111573623D01*
X130897440Y-111503990D01*
X130782502Y-111410249D01*
X130687959Y-111295967D01*
X130617415Y-111165498D01*
X130573555Y-111023811D01*
X130555600Y-110852973D01*
X130555600Y-108306065D01*
X130553425Y-108283985D01*
X130553480Y-108276130D01*
X130552788Y-108269077D01*
X130526880Y-108022573D01*
X130517636Y-107977536D01*
X130509009Y-107932313D01*
X130506960Y-107925529D01*
X130433665Y-107688753D01*
X130415854Y-107646382D01*
X130398604Y-107603686D01*
X130395276Y-107597429D01*
X130313663Y-107446488D01*
X130772710Y-107446488D01*
X130773300Y-107449468D01*
X130849418Y-107699368D01*
X130972826Y-107929617D01*
X131138782Y-108131366D01*
X131340909Y-108296862D01*
X131571439Y-108419745D01*
X131821512Y-108495293D01*
X132029200Y-108398984D01*
X132029200Y-107238800D01*
X130869115Y-107238800D01*
X130772710Y-107446488D01*
X130313663Y-107446488D01*
X130277388Y-107379399D01*
X130251666Y-107341264D01*
X130226469Y-107302760D01*
X130221990Y-107297268D01*
X130063997Y-107106288D01*
X130031382Y-107073900D01*
X129999164Y-107041000D01*
X129993703Y-107036483D01*
X129801625Y-106879828D01*
X129763305Y-106854368D01*
X129725344Y-106828376D01*
X129719110Y-106825005D01*
X129500262Y-106708642D01*
X129457731Y-106691112D01*
X129415443Y-106672987D01*
X129408673Y-106670892D01*
X129408675Y-106670892D01*
X129408667Y-106670890D01*
X129171392Y-106599252D01*
X129126297Y-106590323D01*
X129081260Y-106580750D01*
X129074215Y-106580010D01*
X129074211Y-106580010D01*
X128828005Y-106555869D01*
X128802935Y-106553400D01*
X116737821Y-106553400D01*
X116318712Y-106512306D01*
X115939440Y-106397797D01*
X115589634Y-106211802D01*
X115282617Y-105961405D01*
X115030084Y-105656144D01*
X114841648Y-105307640D01*
X114724495Y-104929180D01*
X114680600Y-104511543D01*
X114680600Y-101481000D01*
X114716065Y-101481000D01*
X114716065Y-102481000D01*
X114725383Y-102575606D01*
X114734603Y-102606000D01*
X114725383Y-102636394D01*
X114716065Y-102731000D01*
X114716065Y-103281000D01*
X114718473Y-103305449D01*
X114718473Y-103330009D01*
X114727791Y-103424615D01*
X114746913Y-103520748D01*
X114774508Y-103611716D01*
X114812017Y-103702272D01*
X114856831Y-103786114D01*
X114911287Y-103867613D01*
X114971594Y-103941098D01*
X115040902Y-104010406D01*
X115114387Y-104070713D01*
X115167496Y-104106200D01*
X115102317Y-104263555D01*
X115068400Y-104434071D01*
X115068400Y-104607929D01*
X115102317Y-104778445D01*
X115168850Y-104939068D01*
X115265439Y-105083625D01*
X115388375Y-105206561D01*
X115532932Y-105303150D01*
X115693555Y-105369683D01*
X115864071Y-105403600D01*
X116037929Y-105403600D01*
X116208445Y-105369683D01*
X116369068Y-105303150D01*
X116513625Y-105206561D01*
X116636561Y-105083625D01*
X116733150Y-104939068D01*
X116799683Y-104778445D01*
X116833600Y-104607929D01*
X116833600Y-104434071D01*
X116799683Y-104263555D01*
X116734504Y-104106200D01*
X116787613Y-104070713D01*
X116861098Y-104010406D01*
X116930406Y-103941098D01*
X116990713Y-103867613D01*
X117045169Y-103786114D01*
X117089983Y-103702272D01*
X117127492Y-103611716D01*
X117155087Y-103520748D01*
X117174209Y-103424615D01*
X117183527Y-103330009D01*
X117183527Y-103305449D01*
X117185935Y-103281000D01*
X117185935Y-102731000D01*
X117176617Y-102636394D01*
X117167397Y-102606000D01*
X117170855Y-102594600D01*
X118207065Y-102594600D01*
X118207065Y-102610000D01*
X118216383Y-102704606D01*
X118225603Y-102735000D01*
X118216383Y-102765394D01*
X118207065Y-102860000D01*
X118207065Y-103110000D01*
X118216383Y-103204606D01*
X118243978Y-103295577D01*
X118288791Y-103379415D01*
X118349099Y-103452901D01*
X118357401Y-103459714D01*
X118357400Y-104459058D01*
X118354451Y-104489000D01*
X118366221Y-104608502D01*
X118376262Y-104641600D01*
X118401079Y-104723411D01*
X118457684Y-104829313D01*
X118533862Y-104922138D01*
X118557132Y-104941235D01*
X119816769Y-106200873D01*
X119835862Y-106224138D01*
X119928686Y-106300316D01*
X120034588Y-106356921D01*
X120098699Y-106376369D01*
X120149497Y-106391779D01*
X120268999Y-106403549D01*
X120298941Y-106400600D01*
X124557059Y-106400600D01*
X124587000Y-106403549D01*
X124616941Y-106400600D01*
X124706502Y-106391779D01*
X124821412Y-106356921D01*
X124927314Y-106300316D01*
X125020138Y-106224138D01*
X125039235Y-106200868D01*
X125313868Y-105926235D01*
X125337138Y-105907138D01*
X125413316Y-105814314D01*
X125452791Y-105740460D01*
X125469921Y-105708413D01*
X125504779Y-105593503D01*
X125516549Y-105474000D01*
X125515840Y-105466806D01*
X125588322Y-105407322D01*
X125634500Y-105351054D01*
X125680678Y-105407322D01*
X125784471Y-105492503D01*
X125902887Y-105555797D01*
X126031376Y-105594774D01*
X126165000Y-105607935D01*
X126565000Y-105607935D01*
X126698624Y-105594774D01*
X126827113Y-105555797D01*
X126945529Y-105492503D01*
X127049322Y-105407322D01*
X127134503Y-105303529D01*
X127190000Y-105199700D01*
X127245497Y-105303529D01*
X127330678Y-105407322D01*
X127434471Y-105492503D01*
X127552887Y-105555797D01*
X127681376Y-105594774D01*
X127815000Y-105607935D01*
X128215000Y-105607935D01*
X128348624Y-105594774D01*
X128477113Y-105555797D01*
X128595529Y-105492503D01*
X128699322Y-105407322D01*
X128784503Y-105303529D01*
X128809052Y-105257600D01*
X130890108Y-105257600D01*
X130899065Y-105279223D01*
X131044902Y-105497483D01*
X131230517Y-105683098D01*
X131448777Y-105828935D01*
X131678252Y-105923986D01*
X131571439Y-105956255D01*
X131340909Y-106079138D01*
X131138782Y-106244634D01*
X130972826Y-106446383D01*
X130849418Y-106676632D01*
X130773300Y-106926532D01*
X130772710Y-106929512D01*
X130869115Y-107137200D01*
X132029200Y-107137200D01*
X132029200Y-107117200D01*
X132130800Y-107117200D01*
X132130800Y-107137200D01*
X132150800Y-107137200D01*
X132150800Y-107238800D01*
X132130800Y-107238800D01*
X132130800Y-108398984D01*
X132338488Y-108495293D01*
X132588561Y-108419745D01*
X132819091Y-108296862D01*
X133021218Y-108131366D01*
X133187174Y-107929617D01*
X133310582Y-107699368D01*
X133343989Y-107589690D01*
X133439065Y-107819223D01*
X133584902Y-108037483D01*
X133770517Y-108223098D01*
X133988777Y-108368935D01*
X134231295Y-108469389D01*
X134488750Y-108520600D01*
X134751250Y-108520600D01*
X135008705Y-108469389D01*
X135251223Y-108368935D01*
X135469483Y-108223098D01*
X135655098Y-108037483D01*
X135800935Y-107819223D01*
X135901389Y-107576705D01*
X135952600Y-107319250D01*
X135952600Y-107056750D01*
X135901389Y-106799295D01*
X135800935Y-106556777D01*
X135655098Y-106338517D01*
X135469483Y-106152902D01*
X135251223Y-106007065D01*
X135036201Y-105918000D01*
X135251223Y-105828935D01*
X135469483Y-105683098D01*
X135655098Y-105497483D01*
X135800935Y-105279223D01*
X135901389Y-105036705D01*
X135952600Y-104779250D01*
X135952600Y-104516750D01*
X135901389Y-104259295D01*
X135800935Y-104016777D01*
X135655098Y-103798517D01*
X135469483Y-103612902D01*
X135251223Y-103467065D01*
X135036201Y-103378000D01*
X135251223Y-103288935D01*
X135469483Y-103143098D01*
X135655098Y-102957483D01*
X135800935Y-102739223D01*
X135901389Y-102496705D01*
X135952600Y-102239250D01*
X135952600Y-101976750D01*
X135901389Y-101719295D01*
X135800935Y-101476777D01*
X135655098Y-101258517D01*
X135469483Y-101072902D01*
X135251223Y-100927065D01*
X135036201Y-100838000D01*
X135251223Y-100748935D01*
X135469483Y-100603098D01*
X135655098Y-100417483D01*
X135800935Y-100199223D01*
X135901389Y-99956705D01*
X135952600Y-99699250D01*
X135952600Y-99436750D01*
X135901389Y-99179295D01*
X135800935Y-98936777D01*
X135655098Y-98718517D01*
X135469483Y-98532902D01*
X135251223Y-98387065D01*
X135036201Y-98298000D01*
X135251223Y-98208935D01*
X135469483Y-98063098D01*
X135655098Y-97877483D01*
X135800935Y-97659223D01*
X135901389Y-97416705D01*
X135952600Y-97159250D01*
X135952600Y-96896750D01*
X135901389Y-96639295D01*
X135800935Y-96396777D01*
X135655098Y-96178517D01*
X135469483Y-95992902D01*
X135251223Y-95847065D01*
X135008705Y-95746611D01*
X134751250Y-95695400D01*
X134488750Y-95695400D01*
X134231295Y-95746611D01*
X133988777Y-95847065D01*
X133770517Y-95992902D01*
X133584902Y-96178517D01*
X133439065Y-96396777D01*
X133414935Y-96455032D01*
X133414935Y-96178000D01*
X133405617Y-96083394D01*
X133378022Y-95992423D01*
X133333209Y-95908585D01*
X133272901Y-95835099D01*
X133199415Y-95774791D01*
X133115577Y-95729978D01*
X133024606Y-95702383D01*
X132930000Y-95693065D01*
X131230000Y-95693065D01*
X131135394Y-95702383D01*
X131044423Y-95729978D01*
X130960585Y-95774791D01*
X130887099Y-95835099D01*
X130826791Y-95908585D01*
X130781978Y-95992423D01*
X130754383Y-96083394D01*
X130745065Y-96178000D01*
X130745065Y-97878000D01*
X130754383Y-97972606D01*
X130781978Y-98063577D01*
X130826791Y-98147415D01*
X130887099Y-98220901D01*
X130960585Y-98281209D01*
X131044423Y-98326022D01*
X131135394Y-98353617D01*
X131230000Y-98362935D01*
X131507032Y-98362935D01*
X131448777Y-98387065D01*
X131230517Y-98532902D01*
X131044902Y-98718517D01*
X130899065Y-98936777D01*
X130890108Y-98958400D01*
X130077938Y-98958400D01*
X130047999Y-98955451D01*
X130018060Y-98958400D01*
X130018059Y-98958400D01*
X129928498Y-98967221D01*
X129813588Y-99002079D01*
X129707686Y-99058684D01*
X129614862Y-99134862D01*
X129595765Y-99158132D01*
X129541497Y-99212400D01*
X128810052Y-99212400D01*
X128785503Y-99166471D01*
X128700322Y-99062678D01*
X128596529Y-98977497D01*
X128478113Y-98914203D01*
X128349624Y-98875226D01*
X128216000Y-98862065D01*
X127816000Y-98862065D01*
X127682376Y-98875226D01*
X127553887Y-98914203D01*
X127435471Y-98977497D01*
X127331678Y-99062678D01*
X127246497Y-99166471D01*
X127191000Y-99270300D01*
X127135503Y-99166471D01*
X127050322Y-99062678D01*
X126946529Y-98977497D01*
X126828113Y-98914203D01*
X126699624Y-98875226D01*
X126566000Y-98862065D01*
X126166000Y-98862065D01*
X126032376Y-98875226D01*
X125903887Y-98914203D01*
X125785471Y-98977497D01*
X125681678Y-99062678D01*
X125635000Y-99119555D01*
X125588322Y-99062678D01*
X125515840Y-99003194D01*
X125516549Y-98996000D01*
X125504779Y-98876497D01*
X125469921Y-98761587D01*
X125421770Y-98671503D01*
X125413316Y-98655686D01*
X125337138Y-98562862D01*
X125313874Y-98543770D01*
X124912235Y-98142132D01*
X124893138Y-98118862D01*
X124800314Y-98042684D01*
X124694412Y-97986079D01*
X124579502Y-97951221D01*
X124460000Y-97939451D01*
X124430059Y-97942400D01*
X120298941Y-97942400D01*
X120268999Y-97939451D01*
X120149497Y-97951221D01*
X120114639Y-97961795D01*
X120034588Y-97986079D01*
X119928686Y-98042684D01*
X119835862Y-98118862D01*
X119816769Y-98142127D01*
X118557127Y-99401770D01*
X118533863Y-99420862D01*
X118469073Y-99499810D01*
X118457685Y-99513686D01*
X118401080Y-99619588D01*
X118366221Y-99734498D01*
X118354451Y-99854000D01*
X118357401Y-99883951D01*
X118357400Y-101010286D01*
X118349099Y-101017099D01*
X118288791Y-101090585D01*
X118243978Y-101174423D01*
X118216383Y-101265394D01*
X118207065Y-101360000D01*
X118207065Y-101375400D01*
X117173282Y-101375400D01*
X117149022Y-101295423D01*
X117104209Y-101211585D01*
X117043901Y-101138099D01*
X116970415Y-101077791D01*
X116886577Y-101032978D01*
X116795606Y-101005383D01*
X116701000Y-100996065D01*
X115201000Y-100996065D01*
X115106394Y-101005383D01*
X115015423Y-101032978D01*
X114931585Y-101077791D01*
X114858099Y-101138099D01*
X114797791Y-101211585D01*
X114752978Y-101295423D01*
X114725383Y-101386394D01*
X114716065Y-101481000D01*
X114680600Y-101481000D01*
X114680600Y-99719821D01*
X114721694Y-99300711D01*
X114836204Y-98921438D01*
X115022198Y-98571634D01*
X115272595Y-98264617D01*
X115577856Y-98012083D01*
X115926355Y-97823650D01*
X116304819Y-97706496D01*
X116722457Y-97662600D01*
X128802935Y-97662600D01*
X128825016Y-97660425D01*
X128832870Y-97660480D01*
X128839924Y-97659788D01*
X129086427Y-97633880D01*
X129131464Y-97624636D01*
X129176687Y-97616009D01*
X129183465Y-97613962D01*
X129183469Y-97613961D01*
X129183472Y-97613960D01*
X129420248Y-97540665D01*
X129462632Y-97522848D01*
X129505314Y-97505604D01*
X129511571Y-97502276D01*
X129729601Y-97384388D01*
X129767710Y-97358684D01*
X129806240Y-97333470D01*
X129811732Y-97328990D01*
X130002712Y-97170997D01*
X130035117Y-97138365D01*
X130068000Y-97106164D01*
X130072517Y-97100703D01*
X130229172Y-96908625D01*
X130254632Y-96870305D01*
X130280624Y-96832344D01*
X130283995Y-96826110D01*
X130400357Y-96607262D01*
X130417862Y-96564792D01*
X130436013Y-96522443D01*
X130438108Y-96515673D01*
X130509748Y-96278392D01*
X130518679Y-96233289D01*
X130528250Y-96188259D01*
X130528990Y-96181211D01*
X130553177Y-95934533D01*
X130555600Y-95909935D01*
X130555600Y-93369821D01*
X130572507Y-93197391D01*
X130615377Y-93055401D01*
X130685007Y-92924443D01*
X130778751Y-92809502D01*
X130893033Y-92714959D01*
X131023501Y-92644416D01*
X131165190Y-92600555D01*
X131336027Y-92582600D01*
X136398000Y-92582600D01*
X136398000Y-97642126D01*
%TA.AperFunction,Conductor*%
D17*
G36*
X136398000Y-97642126D02*
G01*
X136395944Y-97663000D01*
X136398000Y-97683874D01*
X136398000Y-98912126D01*
X136395944Y-98933000D01*
X136398000Y-98953874D01*
X136398000Y-105262126D01*
X136395944Y-105283000D01*
X136398000Y-105303874D01*
X136398000Y-106532126D01*
X136395944Y-106553000D01*
X136398000Y-106573874D01*
X136398000Y-111633400D01*
X131342821Y-111633400D01*
X131170391Y-111616493D01*
X131028401Y-111573623D01*
X130897440Y-111503990D01*
X130782502Y-111410249D01*
X130687959Y-111295967D01*
X130617415Y-111165498D01*
X130573555Y-111023811D01*
X130555600Y-110852973D01*
X130555600Y-108306065D01*
X130553425Y-108283985D01*
X130553480Y-108276130D01*
X130552788Y-108269077D01*
X130526880Y-108022573D01*
X130517636Y-107977536D01*
X130509009Y-107932313D01*
X130506960Y-107925529D01*
X130433665Y-107688753D01*
X130415854Y-107646382D01*
X130398604Y-107603686D01*
X130395276Y-107597429D01*
X130313663Y-107446488D01*
X130772710Y-107446488D01*
X130773300Y-107449468D01*
X130849418Y-107699368D01*
X130972826Y-107929617D01*
X131138782Y-108131366D01*
X131340909Y-108296862D01*
X131571439Y-108419745D01*
X131821512Y-108495293D01*
X132029200Y-108398984D01*
X132029200Y-107238800D01*
X130869115Y-107238800D01*
X130772710Y-107446488D01*
X130313663Y-107446488D01*
X130277388Y-107379399D01*
X130251666Y-107341264D01*
X130226469Y-107302760D01*
X130221990Y-107297268D01*
X130063997Y-107106288D01*
X130031382Y-107073900D01*
X129999164Y-107041000D01*
X129993703Y-107036483D01*
X129801625Y-106879828D01*
X129763305Y-106854368D01*
X129725344Y-106828376D01*
X129719110Y-106825005D01*
X129500262Y-106708642D01*
X129457731Y-106691112D01*
X129415443Y-106672987D01*
X129408673Y-106670892D01*
X129408675Y-106670892D01*
X129408667Y-106670890D01*
X129171392Y-106599252D01*
X129126297Y-106590323D01*
X129081260Y-106580750D01*
X129074215Y-106580010D01*
X129074211Y-106580010D01*
X128828005Y-106555869D01*
X128802935Y-106553400D01*
X116737821Y-106553400D01*
X116318712Y-106512306D01*
X115939440Y-106397797D01*
X115589634Y-106211802D01*
X115282617Y-105961405D01*
X115030084Y-105656144D01*
X114841648Y-105307640D01*
X114724495Y-104929180D01*
X114680600Y-104511543D01*
X114680600Y-101481000D01*
X114716065Y-101481000D01*
X114716065Y-102481000D01*
X114725383Y-102575606D01*
X114734603Y-102606000D01*
X114725383Y-102636394D01*
X114716065Y-102731000D01*
X114716065Y-103281000D01*
X114718473Y-103305449D01*
X114718473Y-103330009D01*
X114727791Y-103424615D01*
X114746913Y-103520748D01*
X114774508Y-103611716D01*
X114812017Y-103702272D01*
X114856831Y-103786114D01*
X114911287Y-103867613D01*
X114971594Y-103941098D01*
X115040902Y-104010406D01*
X115114387Y-104070713D01*
X115167496Y-104106200D01*
X115102317Y-104263555D01*
X115068400Y-104434071D01*
X115068400Y-104607929D01*
X115102317Y-104778445D01*
X115168850Y-104939068D01*
X115265439Y-105083625D01*
X115388375Y-105206561D01*
X115532932Y-105303150D01*
X115693555Y-105369683D01*
X115864071Y-105403600D01*
X116037929Y-105403600D01*
X116208445Y-105369683D01*
X116369068Y-105303150D01*
X116513625Y-105206561D01*
X116636561Y-105083625D01*
X116733150Y-104939068D01*
X116799683Y-104778445D01*
X116833600Y-104607929D01*
X116833600Y-104434071D01*
X116799683Y-104263555D01*
X116734504Y-104106200D01*
X116787613Y-104070713D01*
X116861098Y-104010406D01*
X116930406Y-103941098D01*
X116990713Y-103867613D01*
X117045169Y-103786114D01*
X117089983Y-103702272D01*
X117127492Y-103611716D01*
X117155087Y-103520748D01*
X117174209Y-103424615D01*
X117183527Y-103330009D01*
X117183527Y-103305449D01*
X117185935Y-103281000D01*
X117185935Y-102731000D01*
X117176617Y-102636394D01*
X117167397Y-102606000D01*
X117170855Y-102594600D01*
X118207065Y-102594600D01*
X118207065Y-102610000D01*
X118216383Y-102704606D01*
X118225603Y-102735000D01*
X118216383Y-102765394D01*
X118207065Y-102860000D01*
X118207065Y-103110000D01*
X118216383Y-103204606D01*
X118243978Y-103295577D01*
X118288791Y-103379415D01*
X118349099Y-103452901D01*
X118357401Y-103459714D01*
X118357400Y-104459058D01*
X118354451Y-104489000D01*
X118366221Y-104608502D01*
X118376262Y-104641600D01*
X118401079Y-104723411D01*
X118457684Y-104829313D01*
X118533862Y-104922138D01*
X118557132Y-104941235D01*
X119816769Y-106200873D01*
X119835862Y-106224138D01*
X119928686Y-106300316D01*
X120034588Y-106356921D01*
X120098699Y-106376369D01*
X120149497Y-106391779D01*
X120268999Y-106403549D01*
X120298941Y-106400600D01*
X124557059Y-106400600D01*
X124587000Y-106403549D01*
X124616941Y-106400600D01*
X124706502Y-106391779D01*
X124821412Y-106356921D01*
X124927314Y-106300316D01*
X125020138Y-106224138D01*
X125039235Y-106200868D01*
X125313868Y-105926235D01*
X125337138Y-105907138D01*
X125413316Y-105814314D01*
X125452791Y-105740460D01*
X125469921Y-105708413D01*
X125504779Y-105593503D01*
X125516549Y-105474000D01*
X125515840Y-105466806D01*
X125588322Y-105407322D01*
X125634500Y-105351054D01*
X125680678Y-105407322D01*
X125784471Y-105492503D01*
X125902887Y-105555797D01*
X126031376Y-105594774D01*
X126165000Y-105607935D01*
X126565000Y-105607935D01*
X126698624Y-105594774D01*
X126827113Y-105555797D01*
X126945529Y-105492503D01*
X127049322Y-105407322D01*
X127134503Y-105303529D01*
X127190000Y-105199700D01*
X127245497Y-105303529D01*
X127330678Y-105407322D01*
X127434471Y-105492503D01*
X127552887Y-105555797D01*
X127681376Y-105594774D01*
X127815000Y-105607935D01*
X128215000Y-105607935D01*
X128348624Y-105594774D01*
X128477113Y-105555797D01*
X128595529Y-105492503D01*
X128699322Y-105407322D01*
X128784503Y-105303529D01*
X128809052Y-105257600D01*
X130890108Y-105257600D01*
X130899065Y-105279223D01*
X131044902Y-105497483D01*
X131230517Y-105683098D01*
X131448777Y-105828935D01*
X131678252Y-105923986D01*
X131571439Y-105956255D01*
X131340909Y-106079138D01*
X131138782Y-106244634D01*
X130972826Y-106446383D01*
X130849418Y-106676632D01*
X130773300Y-106926532D01*
X130772710Y-106929512D01*
X130869115Y-107137200D01*
X132029200Y-107137200D01*
X132029200Y-107117200D01*
X132130800Y-107117200D01*
X132130800Y-107137200D01*
X132150800Y-107137200D01*
X132150800Y-107238800D01*
X132130800Y-107238800D01*
X132130800Y-108398984D01*
X132338488Y-108495293D01*
X132588561Y-108419745D01*
X132819091Y-108296862D01*
X133021218Y-108131366D01*
X133187174Y-107929617D01*
X133310582Y-107699368D01*
X133343989Y-107589690D01*
X133439065Y-107819223D01*
X133584902Y-108037483D01*
X133770517Y-108223098D01*
X133988777Y-108368935D01*
X134231295Y-108469389D01*
X134488750Y-108520600D01*
X134751250Y-108520600D01*
X135008705Y-108469389D01*
X135251223Y-108368935D01*
X135469483Y-108223098D01*
X135655098Y-108037483D01*
X135800935Y-107819223D01*
X135901389Y-107576705D01*
X135952600Y-107319250D01*
X135952600Y-107056750D01*
X135901389Y-106799295D01*
X135800935Y-106556777D01*
X135655098Y-106338517D01*
X135469483Y-106152902D01*
X135251223Y-106007065D01*
X135036201Y-105918000D01*
X135251223Y-105828935D01*
X135469483Y-105683098D01*
X135655098Y-105497483D01*
X135800935Y-105279223D01*
X135901389Y-105036705D01*
X135952600Y-104779250D01*
X135952600Y-104516750D01*
X135901389Y-104259295D01*
X135800935Y-104016777D01*
X135655098Y-103798517D01*
X135469483Y-103612902D01*
X135251223Y-103467065D01*
X135036201Y-103378000D01*
X135251223Y-103288935D01*
X135469483Y-103143098D01*
X135655098Y-102957483D01*
X135800935Y-102739223D01*
X135901389Y-102496705D01*
X135952600Y-102239250D01*
X135952600Y-101976750D01*
X135901389Y-101719295D01*
X135800935Y-101476777D01*
X135655098Y-101258517D01*
X135469483Y-101072902D01*
X135251223Y-100927065D01*
X135036201Y-100838000D01*
X135251223Y-100748935D01*
X135469483Y-100603098D01*
X135655098Y-100417483D01*
X135800935Y-100199223D01*
X135901389Y-99956705D01*
X135952600Y-99699250D01*
X135952600Y-99436750D01*
X135901389Y-99179295D01*
X135800935Y-98936777D01*
X135655098Y-98718517D01*
X135469483Y-98532902D01*
X135251223Y-98387065D01*
X135036201Y-98298000D01*
X135251223Y-98208935D01*
X135469483Y-98063098D01*
X135655098Y-97877483D01*
X135800935Y-97659223D01*
X135901389Y-97416705D01*
X135952600Y-97159250D01*
X135952600Y-96896750D01*
X135901389Y-96639295D01*
X135800935Y-96396777D01*
X135655098Y-96178517D01*
X135469483Y-95992902D01*
X135251223Y-95847065D01*
X135008705Y-95746611D01*
X134751250Y-95695400D01*
X134488750Y-95695400D01*
X134231295Y-95746611D01*
X133988777Y-95847065D01*
X133770517Y-95992902D01*
X133584902Y-96178517D01*
X133439065Y-96396777D01*
X133414935Y-96455032D01*
X133414935Y-96178000D01*
X133405617Y-96083394D01*
X133378022Y-95992423D01*
X133333209Y-95908585D01*
X133272901Y-95835099D01*
X133199415Y-95774791D01*
X133115577Y-95729978D01*
X133024606Y-95702383D01*
X132930000Y-95693065D01*
X131230000Y-95693065D01*
X131135394Y-95702383D01*
X131044423Y-95729978D01*
X130960585Y-95774791D01*
X130887099Y-95835099D01*
X130826791Y-95908585D01*
X130781978Y-95992423D01*
X130754383Y-96083394D01*
X130745065Y-96178000D01*
X130745065Y-97878000D01*
X130754383Y-97972606D01*
X130781978Y-98063577D01*
X130826791Y-98147415D01*
X130887099Y-98220901D01*
X130960585Y-98281209D01*
X131044423Y-98326022D01*
X131135394Y-98353617D01*
X131230000Y-98362935D01*
X131507032Y-98362935D01*
X131448777Y-98387065D01*
X131230517Y-98532902D01*
X131044902Y-98718517D01*
X130899065Y-98936777D01*
X130890108Y-98958400D01*
X130077938Y-98958400D01*
X130047999Y-98955451D01*
X130018060Y-98958400D01*
X130018059Y-98958400D01*
X129928498Y-98967221D01*
X129813588Y-99002079D01*
X129707686Y-99058684D01*
X129614862Y-99134862D01*
X129595765Y-99158132D01*
X129541497Y-99212400D01*
X128810052Y-99212400D01*
X128785503Y-99166471D01*
X128700322Y-99062678D01*
X128596529Y-98977497D01*
X128478113Y-98914203D01*
X128349624Y-98875226D01*
X128216000Y-98862065D01*
X127816000Y-98862065D01*
X127682376Y-98875226D01*
X127553887Y-98914203D01*
X127435471Y-98977497D01*
X127331678Y-99062678D01*
X127246497Y-99166471D01*
X127191000Y-99270300D01*
X127135503Y-99166471D01*
X127050322Y-99062678D01*
X126946529Y-98977497D01*
X126828113Y-98914203D01*
X126699624Y-98875226D01*
X126566000Y-98862065D01*
X126166000Y-98862065D01*
X126032376Y-98875226D01*
X125903887Y-98914203D01*
X125785471Y-98977497D01*
X125681678Y-99062678D01*
X125635000Y-99119555D01*
X125588322Y-99062678D01*
X125515840Y-99003194D01*
X125516549Y-98996000D01*
X125504779Y-98876497D01*
X125469921Y-98761587D01*
X125421770Y-98671503D01*
X125413316Y-98655686D01*
X125337138Y-98562862D01*
X125313874Y-98543770D01*
X124912235Y-98142132D01*
X124893138Y-98118862D01*
X124800314Y-98042684D01*
X124694412Y-97986079D01*
X124579502Y-97951221D01*
X124460000Y-97939451D01*
X124430059Y-97942400D01*
X120298941Y-97942400D01*
X120268999Y-97939451D01*
X120149497Y-97951221D01*
X120114639Y-97961795D01*
X120034588Y-97986079D01*
X119928686Y-98042684D01*
X119835862Y-98118862D01*
X119816769Y-98142127D01*
X118557127Y-99401770D01*
X118533863Y-99420862D01*
X118469073Y-99499810D01*
X118457685Y-99513686D01*
X118401080Y-99619588D01*
X118366221Y-99734498D01*
X118354451Y-99854000D01*
X118357401Y-99883951D01*
X118357400Y-101010286D01*
X118349099Y-101017099D01*
X118288791Y-101090585D01*
X118243978Y-101174423D01*
X118216383Y-101265394D01*
X118207065Y-101360000D01*
X118207065Y-101375400D01*
X117173282Y-101375400D01*
X117149022Y-101295423D01*
X117104209Y-101211585D01*
X117043901Y-101138099D01*
X116970415Y-101077791D01*
X116886577Y-101032978D01*
X116795606Y-101005383D01*
X116701000Y-100996065D01*
X115201000Y-100996065D01*
X115106394Y-101005383D01*
X115015423Y-101032978D01*
X114931585Y-101077791D01*
X114858099Y-101138099D01*
X114797791Y-101211585D01*
X114752978Y-101295423D01*
X114725383Y-101386394D01*
X114716065Y-101481000D01*
X114680600Y-101481000D01*
X114680600Y-99719821D01*
X114721694Y-99300711D01*
X114836204Y-98921438D01*
X115022198Y-98571634D01*
X115272595Y-98264617D01*
X115577856Y-98012083D01*
X115926355Y-97823650D01*
X116304819Y-97706496D01*
X116722457Y-97662600D01*
X128802935Y-97662600D01*
X128825016Y-97660425D01*
X128832870Y-97660480D01*
X128839924Y-97659788D01*
X129086427Y-97633880D01*
X129131464Y-97624636D01*
X129176687Y-97616009D01*
X129183465Y-97613962D01*
X129183469Y-97613961D01*
X129183472Y-97613960D01*
X129420248Y-97540665D01*
X129462632Y-97522848D01*
X129505314Y-97505604D01*
X129511571Y-97502276D01*
X129729601Y-97384388D01*
X129767710Y-97358684D01*
X129806240Y-97333470D01*
X129811732Y-97328990D01*
X130002712Y-97170997D01*
X130035117Y-97138365D01*
X130068000Y-97106164D01*
X130072517Y-97100703D01*
X130229172Y-96908625D01*
X130254632Y-96870305D01*
X130280624Y-96832344D01*
X130283995Y-96826110D01*
X130400357Y-96607262D01*
X130417862Y-96564792D01*
X130436013Y-96522443D01*
X130438108Y-96515673D01*
X130509748Y-96278392D01*
X130518679Y-96233289D01*
X130528250Y-96188259D01*
X130528990Y-96181211D01*
X130553177Y-95934533D01*
X130555600Y-95909935D01*
X130555600Y-93369821D01*
X130572507Y-93197391D01*
X130615377Y-93055401D01*
X130685007Y-92924443D01*
X130778751Y-92809502D01*
X130893033Y-92714959D01*
X131023501Y-92644416D01*
X131165190Y-92600555D01*
X131336027Y-92582600D01*
X136398000Y-92582600D01*
X136398000Y-97642126D01*
G37*
%TD.AperFunction*%
D16*
X120182317Y-99564555D02*
X120148400Y-99735071D01*
X120148400Y-99908929D01*
X120182317Y-100079445D01*
X120248850Y-100240068D01*
X120345439Y-100384625D01*
X120468375Y-100507561D01*
X120612932Y-100604150D01*
X120773555Y-100670683D01*
X120944071Y-100704600D01*
X121117929Y-100704600D01*
X121288445Y-100670683D01*
X121449068Y-100604150D01*
X121593625Y-100507561D01*
X121669586Y-100431600D01*
X122459948Y-100431600D01*
X122484497Y-100477529D01*
X122569678Y-100581322D01*
X122599211Y-100605559D01*
X122572585Y-100619791D01*
X122499099Y-100680099D01*
X122438791Y-100753585D01*
X122393978Y-100837423D01*
X122366383Y-100928394D01*
X122357065Y-101023000D01*
X122359400Y-101301550D01*
X122480050Y-101422200D01*
X123266200Y-101422200D01*
X123266200Y-101402200D01*
X123367800Y-101402200D01*
X123367800Y-101422200D01*
X124153950Y-101422200D01*
X124274600Y-101301550D01*
X124276935Y-101023000D01*
X124267617Y-100928394D01*
X124240022Y-100837423D01*
X124195209Y-100753585D01*
X124134901Y-100680099D01*
X124061415Y-100619791D01*
X123977577Y-100574978D01*
X123950315Y-100566708D01*
X124023503Y-100477529D01*
X124079000Y-100373700D01*
X124134497Y-100477529D01*
X124219678Y-100581322D01*
X124323471Y-100666503D01*
X124441887Y-100729797D01*
X124570376Y-100768774D01*
X124704000Y-100781935D01*
X125104000Y-100781935D01*
X125237624Y-100768774D01*
X125366113Y-100729797D01*
X125484529Y-100666503D01*
X125588322Y-100581322D01*
X125635000Y-100524445D01*
X125681678Y-100581322D01*
X125697102Y-100593980D01*
X125695585Y-100594791D01*
X125622099Y-100655099D01*
X125561791Y-100728585D01*
X125516978Y-100812423D01*
X125489383Y-100903394D01*
X125480065Y-100998000D01*
X125482400Y-101301550D01*
X125603050Y-101422200D01*
X126314200Y-101422200D01*
X126314200Y-101402200D01*
X126415800Y-101402200D01*
X126415800Y-101422200D01*
X126435800Y-101422200D01*
X126435800Y-101523800D01*
X126415800Y-101523800D01*
X126415800Y-102309950D01*
X126536450Y-102430600D01*
X126765000Y-102432935D01*
X126859606Y-102423617D01*
X126950577Y-102396022D01*
X127034415Y-102351209D01*
X127107901Y-102290901D01*
X127168209Y-102217415D01*
X127213022Y-102133577D01*
X127225756Y-102091596D01*
X127245497Y-102128529D01*
X127330678Y-102232322D01*
X127434471Y-102317503D01*
X127552887Y-102380797D01*
X127681376Y-102419774D01*
X127815000Y-102432935D01*
X128215000Y-102432935D01*
X128348624Y-102419774D01*
X128477113Y-102380797D01*
X128595529Y-102317503D01*
X128699322Y-102232322D01*
X128784503Y-102128529D01*
X128809052Y-102082600D01*
X129541496Y-102082600D01*
X129976773Y-102517878D01*
X129995862Y-102541138D01*
X130088686Y-102617316D01*
X130167606Y-102659499D01*
X130194588Y-102673921D01*
X130309497Y-102708779D01*
X130429000Y-102720549D01*
X130458941Y-102717600D01*
X130890108Y-102717600D01*
X130899065Y-102739223D01*
X131044902Y-102957483D01*
X131230517Y-103143098D01*
X131448777Y-103288935D01*
X131663799Y-103378000D01*
X131448777Y-103467065D01*
X131230517Y-103612902D01*
X131044902Y-103798517D01*
X130899065Y-104016777D01*
X130890108Y-104038400D01*
X128809052Y-104038400D01*
X128784503Y-103992471D01*
X128699322Y-103888678D01*
X128595529Y-103803497D01*
X128477113Y-103740203D01*
X128348624Y-103701226D01*
X128215000Y-103688065D01*
X127815000Y-103688065D01*
X127681376Y-103701226D01*
X127552887Y-103740203D01*
X127434471Y-103803497D01*
X127330678Y-103888678D01*
X127245497Y-103992471D01*
X127190000Y-104096300D01*
X127134503Y-103992471D01*
X127049322Y-103888678D01*
X126945529Y-103803497D01*
X126827113Y-103740203D01*
X126698624Y-103701226D01*
X126565000Y-103688065D01*
X126165000Y-103688065D01*
X126031376Y-103701226D01*
X125902887Y-103740203D01*
X125784471Y-103803497D01*
X125680678Y-103888678D01*
X125634500Y-103944946D01*
X125588322Y-103888678D01*
X125484529Y-103803497D01*
X125366113Y-103740203D01*
X125237624Y-103701226D01*
X125104000Y-103688065D01*
X124704000Y-103688065D01*
X124570376Y-103701226D01*
X124441887Y-103740203D01*
X124323471Y-103803497D01*
X124219678Y-103888678D01*
X124134497Y-103992471D01*
X124079000Y-104096300D01*
X124023503Y-103992471D01*
X123938322Y-103888678D01*
X123910250Y-103865639D01*
X123961419Y-103838289D01*
X124069000Y-103750000D01*
X124157289Y-103642419D01*
X124222894Y-103519680D01*
X124263294Y-103386501D01*
X124276935Y-103248000D01*
X124276935Y-102798000D01*
X124263294Y-102659499D01*
X124222894Y-102526320D01*
X124157289Y-102403581D01*
X124080762Y-102310332D01*
X124134901Y-102265901D01*
X124195209Y-102192415D01*
X124240022Y-102108577D01*
X124267617Y-102017606D01*
X124274472Y-101948000D01*
X125480065Y-101948000D01*
X125489383Y-102042606D01*
X125516978Y-102133577D01*
X125561791Y-102217415D01*
X125622099Y-102290901D01*
X125695585Y-102351209D01*
X125779423Y-102396022D01*
X125870394Y-102423617D01*
X125965000Y-102432935D01*
X126193550Y-102430600D01*
X126314200Y-102309950D01*
X126314200Y-101523800D01*
X125603050Y-101523800D01*
X125482400Y-101644450D01*
X125480065Y-101948000D01*
X124274472Y-101948000D01*
X124276935Y-101923000D01*
X124274600Y-101644450D01*
X124153950Y-101523800D01*
X123367800Y-101523800D01*
X123367800Y-101543800D01*
X123266200Y-101543800D01*
X123266200Y-101523800D01*
X122480050Y-101523800D01*
X122359400Y-101644450D01*
X122357065Y-101923000D01*
X122366383Y-102017606D01*
X122393978Y-102108577D01*
X122438791Y-102192415D01*
X122499099Y-102265901D01*
X122553238Y-102310332D01*
X122499838Y-102375400D01*
X122191941Y-102375400D01*
X122162000Y-102372451D01*
X122132059Y-102375400D01*
X122076935Y-102375400D01*
X122076935Y-102360000D01*
X122067617Y-102265394D01*
X122058397Y-102235000D01*
X122067617Y-102204606D01*
X122076935Y-102110000D01*
X122074600Y-102105650D01*
X121953950Y-101985000D01*
X122074600Y-101864350D01*
X122076935Y-101860000D01*
X122067617Y-101765394D01*
X122058397Y-101735000D01*
X122067617Y-101704606D01*
X122076935Y-101610000D01*
X122074600Y-101605650D01*
X121953950Y-101485000D01*
X122074600Y-101364350D01*
X122076935Y-101360000D01*
X122067617Y-101265394D01*
X122040022Y-101174423D01*
X121995209Y-101090585D01*
X121934901Y-101017099D01*
X121861415Y-100956791D01*
X121777577Y-100911978D01*
X121686606Y-100884383D01*
X121592000Y-100875065D01*
X121488450Y-100877400D01*
X121367800Y-100998050D01*
X121367800Y-101555800D01*
X121266200Y-101555800D01*
X121266200Y-100998050D01*
X121145550Y-100877400D01*
X121042000Y-100875065D01*
X120947394Y-100884383D01*
X120856423Y-100911978D01*
X120816142Y-100933509D01*
X120736606Y-100909383D01*
X120642000Y-100900065D01*
X119942000Y-100900065D01*
X119847394Y-100909383D01*
X119756423Y-100936978D01*
X119672585Y-100981791D01*
X119602875Y-101039000D01*
X119584901Y-101017099D01*
X119576600Y-101010287D01*
X119576600Y-100106503D01*
X120227409Y-99455695D01*
X120182317Y-99564555D01*
%TA.AperFunction,Conductor*%
D17*
G36*
X120182317Y-99564555D02*
G01*
X120148400Y-99735071D01*
X120148400Y-99908929D01*
X120182317Y-100079445D01*
X120248850Y-100240068D01*
X120345439Y-100384625D01*
X120468375Y-100507561D01*
X120612932Y-100604150D01*
X120773555Y-100670683D01*
X120944071Y-100704600D01*
X121117929Y-100704600D01*
X121288445Y-100670683D01*
X121449068Y-100604150D01*
X121593625Y-100507561D01*
X121669586Y-100431600D01*
X122459948Y-100431600D01*
X122484497Y-100477529D01*
X122569678Y-100581322D01*
X122599211Y-100605559D01*
X122572585Y-100619791D01*
X122499099Y-100680099D01*
X122438791Y-100753585D01*
X122393978Y-100837423D01*
X122366383Y-100928394D01*
X122357065Y-101023000D01*
X122359400Y-101301550D01*
X122480050Y-101422200D01*
X123266200Y-101422200D01*
X123266200Y-101402200D01*
X123367800Y-101402200D01*
X123367800Y-101422200D01*
X124153950Y-101422200D01*
X124274600Y-101301550D01*
X124276935Y-101023000D01*
X124267617Y-100928394D01*
X124240022Y-100837423D01*
X124195209Y-100753585D01*
X124134901Y-100680099D01*
X124061415Y-100619791D01*
X123977577Y-100574978D01*
X123950315Y-100566708D01*
X124023503Y-100477529D01*
X124079000Y-100373700D01*
X124134497Y-100477529D01*
X124219678Y-100581322D01*
X124323471Y-100666503D01*
X124441887Y-100729797D01*
X124570376Y-100768774D01*
X124704000Y-100781935D01*
X125104000Y-100781935D01*
X125237624Y-100768774D01*
X125366113Y-100729797D01*
X125484529Y-100666503D01*
X125588322Y-100581322D01*
X125635000Y-100524445D01*
X125681678Y-100581322D01*
X125697102Y-100593980D01*
X125695585Y-100594791D01*
X125622099Y-100655099D01*
X125561791Y-100728585D01*
X125516978Y-100812423D01*
X125489383Y-100903394D01*
X125480065Y-100998000D01*
X125482400Y-101301550D01*
X125603050Y-101422200D01*
X126314200Y-101422200D01*
X126314200Y-101402200D01*
X126415800Y-101402200D01*
X126415800Y-101422200D01*
X126435800Y-101422200D01*
X126435800Y-101523800D01*
X126415800Y-101523800D01*
X126415800Y-102309950D01*
X126536450Y-102430600D01*
X126765000Y-102432935D01*
X126859606Y-102423617D01*
X126950577Y-102396022D01*
X127034415Y-102351209D01*
X127107901Y-102290901D01*
X127168209Y-102217415D01*
X127213022Y-102133577D01*
X127225756Y-102091596D01*
X127245497Y-102128529D01*
X127330678Y-102232322D01*
X127434471Y-102317503D01*
X127552887Y-102380797D01*
X127681376Y-102419774D01*
X127815000Y-102432935D01*
X128215000Y-102432935D01*
X128348624Y-102419774D01*
X128477113Y-102380797D01*
X128595529Y-102317503D01*
X128699322Y-102232322D01*
X128784503Y-102128529D01*
X128809052Y-102082600D01*
X129541496Y-102082600D01*
X129976773Y-102517878D01*
X129995862Y-102541138D01*
X130088686Y-102617316D01*
X130167606Y-102659499D01*
X130194588Y-102673921D01*
X130309497Y-102708779D01*
X130429000Y-102720549D01*
X130458941Y-102717600D01*
X130890108Y-102717600D01*
X130899065Y-102739223D01*
X131044902Y-102957483D01*
X131230517Y-103143098D01*
X131448777Y-103288935D01*
X131663799Y-103378000D01*
X131448777Y-103467065D01*
X131230517Y-103612902D01*
X131044902Y-103798517D01*
X130899065Y-104016777D01*
X130890108Y-104038400D01*
X128809052Y-104038400D01*
X128784503Y-103992471D01*
X128699322Y-103888678D01*
X128595529Y-103803497D01*
X128477113Y-103740203D01*
X128348624Y-103701226D01*
X128215000Y-103688065D01*
X127815000Y-103688065D01*
X127681376Y-103701226D01*
X127552887Y-103740203D01*
X127434471Y-103803497D01*
X127330678Y-103888678D01*
X127245497Y-103992471D01*
X127190000Y-104096300D01*
X127134503Y-103992471D01*
X127049322Y-103888678D01*
X126945529Y-103803497D01*
X126827113Y-103740203D01*
X126698624Y-103701226D01*
X126565000Y-103688065D01*
X126165000Y-103688065D01*
X126031376Y-103701226D01*
X125902887Y-103740203D01*
X125784471Y-103803497D01*
X125680678Y-103888678D01*
X125634500Y-103944946D01*
X125588322Y-103888678D01*
X125484529Y-103803497D01*
X125366113Y-103740203D01*
X125237624Y-103701226D01*
X125104000Y-103688065D01*
X124704000Y-103688065D01*
X124570376Y-103701226D01*
X124441887Y-103740203D01*
X124323471Y-103803497D01*
X124219678Y-103888678D01*
X124134497Y-103992471D01*
X124079000Y-104096300D01*
X124023503Y-103992471D01*
X123938322Y-103888678D01*
X123910250Y-103865639D01*
X123961419Y-103838289D01*
X124069000Y-103750000D01*
X124157289Y-103642419D01*
X124222894Y-103519680D01*
X124263294Y-103386501D01*
X124276935Y-103248000D01*
X124276935Y-102798000D01*
X124263294Y-102659499D01*
X124222894Y-102526320D01*
X124157289Y-102403581D01*
X124080762Y-102310332D01*
X124134901Y-102265901D01*
X124195209Y-102192415D01*
X124240022Y-102108577D01*
X124267617Y-102017606D01*
X124274472Y-101948000D01*
X125480065Y-101948000D01*
X125489383Y-102042606D01*
X125516978Y-102133577D01*
X125561791Y-102217415D01*
X125622099Y-102290901D01*
X125695585Y-102351209D01*
X125779423Y-102396022D01*
X125870394Y-102423617D01*
X125965000Y-102432935D01*
X126193550Y-102430600D01*
X126314200Y-102309950D01*
X126314200Y-101523800D01*
X125603050Y-101523800D01*
X125482400Y-101644450D01*
X125480065Y-101948000D01*
X124274472Y-101948000D01*
X124276935Y-101923000D01*
X124274600Y-101644450D01*
X124153950Y-101523800D01*
X123367800Y-101523800D01*
X123367800Y-101543800D01*
X123266200Y-101543800D01*
X123266200Y-101523800D01*
X122480050Y-101523800D01*
X122359400Y-101644450D01*
X122357065Y-101923000D01*
X122366383Y-102017606D01*
X122393978Y-102108577D01*
X122438791Y-102192415D01*
X122499099Y-102265901D01*
X122553238Y-102310332D01*
X122499838Y-102375400D01*
X122191941Y-102375400D01*
X122162000Y-102372451D01*
X122132059Y-102375400D01*
X122076935Y-102375400D01*
X122076935Y-102360000D01*
X122067617Y-102265394D01*
X122058397Y-102235000D01*
X122067617Y-102204606D01*
X122076935Y-102110000D01*
X122074600Y-102105650D01*
X121953950Y-101985000D01*
X122074600Y-101864350D01*
X122076935Y-101860000D01*
X122067617Y-101765394D01*
X122058397Y-101735000D01*
X122067617Y-101704606D01*
X122076935Y-101610000D01*
X122074600Y-101605650D01*
X121953950Y-101485000D01*
X122074600Y-101364350D01*
X122076935Y-101360000D01*
X122067617Y-101265394D01*
X122040022Y-101174423D01*
X121995209Y-101090585D01*
X121934901Y-101017099D01*
X121861415Y-100956791D01*
X121777577Y-100911978D01*
X121686606Y-100884383D01*
X121592000Y-100875065D01*
X121488450Y-100877400D01*
X121367800Y-100998050D01*
X121367800Y-101555800D01*
X121266200Y-101555800D01*
X121266200Y-100998050D01*
X121145550Y-100877400D01*
X121042000Y-100875065D01*
X120947394Y-100884383D01*
X120856423Y-100911978D01*
X120816142Y-100933509D01*
X120736606Y-100909383D01*
X120642000Y-100900065D01*
X119942000Y-100900065D01*
X119847394Y-100909383D01*
X119756423Y-100936978D01*
X119672585Y-100981791D01*
X119602875Y-101039000D01*
X119584901Y-101017099D01*
X119576600Y-101010287D01*
X119576600Y-100106503D01*
X120227409Y-99455695D01*
X120182317Y-99564555D01*
G37*
%TD.AperFunction*%
%TD*%
M02*
