G04 #@! TF.GenerationSoftware,KiCad,Pcbnew,(7.0.0-0)*
G04 #@! TF.CreationDate,2023-06-06T22:54:07+02:00*
G04 #@! TF.ProjectId,ithowifi_4l_v21_tht,6974686f-7769-4666-995f-346c5f763231,rev?*
G04 #@! TF.SameCoordinates,Original*
G04 #@! TF.FileFunction,Legend,Top*
G04 #@! TF.FilePolarity,Positive*
%FSLAX46Y46*%
G04 Gerber Fmt 4.6, Leading zero omitted, Abs format (unit mm)*
G04 Created by KiCad (PCBNEW (7.0.0-0)) date 2023-06-06 22:54:07*
%MOMM*%
%LPD*%
G01*
G04 APERTURE LIST*
%ADD10C,0.200000*%
%ADD11C,0.125000*%
%ADD12C,0.150000*%
%ADD13C,0.219726*%
%ADD14C,0.120000*%
G04 APERTURE END LIST*
D10*
X99568000Y-111760000D02*
X99568000Y-122936000D01*
X99568000Y-111760000D02*
X98298000Y-111760000D01*
X99568000Y-122936000D02*
X100965000Y-122936000D01*
X100965000Y-123571000D02*
X100965000Y-122936000D01*
X113665000Y-122936000D02*
X112649000Y-122936000D01*
X113665000Y-122936000D02*
X113665000Y-115252500D01*
X122682000Y-115252500D02*
X122682000Y-114617500D01*
X113665000Y-115252500D02*
X122682000Y-115252500D01*
X106045000Y-122936000D02*
X107188000Y-122936000D01*
X101473000Y-113284000D02*
X101473000Y-112649000D01*
X101473000Y-113284000D02*
X107188000Y-113284000D01*
X107188000Y-122936000D02*
X107188000Y-113284000D01*
X88900000Y-123063000D02*
X91440000Y-123063000D01*
D11*
X116768896Y-106703121D02*
X116768896Y-106703121D01*
X117040946Y-108525770D02*
X116768896Y-106703121D01*
X117274296Y-108525770D02*
X117040946Y-108525770D01*
X117520896Y-107442870D02*
X117274296Y-108525770D01*
X117768496Y-108525770D02*
X117520896Y-107442870D01*
X118001795Y-108525770D02*
X117768496Y-108525770D01*
X118690546Y-105348970D02*
X118001795Y-108525770D01*
X118450196Y-105348970D02*
X118690546Y-105348970D01*
X117858846Y-108185070D02*
X118450196Y-105348970D01*
X117648846Y-107203620D02*
X117858846Y-108185070D01*
X117391446Y-107203620D02*
X117648846Y-107203620D01*
X117183946Y-108182620D02*
X117391446Y-107203620D01*
X117009246Y-106703121D02*
X117183946Y-108182620D01*
X116768896Y-106703121D02*
X117009246Y-106703121D01*
X115431795Y-106703121D02*
X115431795Y-106703121D01*
X115431795Y-108525770D02*
X115431795Y-106703121D01*
X115679746Y-108525770D02*
X115431795Y-108525770D01*
X115679746Y-107657720D02*
X115679746Y-108525770D01*
X116354646Y-107657720D02*
X115679746Y-107657720D01*
X116354646Y-108525770D02*
X116354646Y-107657720D01*
X116602596Y-108525770D02*
X116354646Y-108525770D01*
X116602596Y-106703121D02*
X116602596Y-108525770D01*
X116354646Y-106703121D02*
X116602596Y-106703121D01*
X116354646Y-107450220D02*
X116354646Y-106703121D01*
X115679746Y-107450220D02*
X116354646Y-107450220D01*
X115679746Y-106703121D02*
X115679746Y-107450220D01*
X115431795Y-106703121D02*
X115679746Y-106703121D01*
X114996431Y-106765820D02*
X114996431Y-106765520D01*
X114975001Y-106757670D02*
X114996431Y-106765820D01*
X114771546Y-106698820D02*
X114975001Y-106757670D01*
X114752281Y-106695020D02*
X114771546Y-106698820D01*
X114732756Y-106690921D02*
X114752281Y-106695020D01*
X114586541Y-106670570D02*
X114732756Y-106690921D01*
X114531476Y-106670570D02*
X114586541Y-106670570D01*
X114469896Y-106670570D02*
X114531476Y-106670570D01*
X114285976Y-106707220D02*
X114469896Y-106670570D01*
X114121861Y-106793470D02*
X114285976Y-106707220D01*
X114094466Y-106818170D02*
X114121861Y-106793470D01*
X114067066Y-106842570D02*
X114094466Y-106818170D01*
X113971580Y-106989070D02*
X114067066Y-106842570D01*
X113930885Y-107153720D02*
X113971580Y-106989070D01*
X113930885Y-107208770D02*
X113930885Y-107153720D01*
X113930885Y-107252470D02*
X113930885Y-107208770D01*
X113959376Y-107384020D02*
X113930885Y-107252470D01*
X114026376Y-107500670D02*
X113959376Y-107384020D01*
X114045636Y-107520220D02*
X114026376Y-107500670D01*
X114064626Y-107539470D02*
X114045636Y-107520220D01*
X114195101Y-107621370D02*
X114064626Y-107539470D01*
X114371971Y-107683770D02*
X114195101Y-107621370D01*
X114414291Y-107693270D02*
X114371971Y-107683770D01*
X114545851Y-107723920D02*
X114414291Y-107693270D01*
X114575151Y-107730420D02*
X114545851Y-107723920D01*
X114696136Y-107771121D02*
X114575151Y-107730420D01*
X114781851Y-107822670D02*
X114696136Y-107771121D01*
X114793791Y-107834870D02*
X114781851Y-107822670D01*
X114805726Y-107846820D02*
X114793791Y-107834870D01*
X114865681Y-107991370D02*
X114805726Y-107846820D01*
X114865681Y-108043720D02*
X114865681Y-107991370D01*
X114865681Y-108077120D02*
X114865681Y-108043720D01*
X114839636Y-108177220D02*
X114865681Y-108077120D01*
X114779146Y-108264020D02*
X114839636Y-108177220D01*
X114762056Y-108278120D02*
X114779146Y-108264020D01*
X114744691Y-108291970D02*
X114762056Y-108278120D01*
X114637541Y-108340220D02*
X114744691Y-108291970D01*
X114513026Y-108361120D02*
X114637541Y-108340220D01*
X114471526Y-108361120D02*
X114513026Y-108361120D01*
X114413471Y-108361120D02*
X114471526Y-108361120D01*
X114239591Y-108326420D02*
X114413471Y-108361120D01*
X114218706Y-108319620D02*
X114239591Y-108326420D01*
X114197816Y-108312571D02*
X114218706Y-108319620D01*
X113977275Y-108203771D02*
X114197816Y-108312571D01*
X113953951Y-108189120D02*
X113977275Y-108203771D01*
X113953951Y-108451470D02*
X113953951Y-108189120D01*
X113975651Y-108460420D02*
X113953951Y-108451470D01*
X114192116Y-108528770D02*
X113975651Y-108460420D01*
X114213816Y-108533370D02*
X114192116Y-108528770D01*
X114235251Y-108537970D02*
X114213816Y-108533370D01*
X114406966Y-108561320D02*
X114235251Y-108537970D01*
X114471526Y-108561320D02*
X114406966Y-108561320D01*
X114539066Y-108561320D02*
X114471526Y-108561320D01*
X114742521Y-108527121D02*
X114539066Y-108561320D01*
X114913421Y-108447370D02*
X114742521Y-108527121D01*
X114940276Y-108424620D02*
X114913421Y-108447370D01*
X114967131Y-108401820D02*
X114940276Y-108424620D01*
X115060991Y-108256970D02*
X114967131Y-108401820D01*
X115101411Y-108085220D02*
X115060991Y-108256970D01*
X115101411Y-108028020D02*
X115101411Y-108085220D01*
X115101411Y-107978371D02*
X115101411Y-108028020D01*
X115072111Y-107830270D02*
X115101411Y-107978371D01*
X115003751Y-107700070D02*
X115072111Y-107830270D01*
X114984221Y-107678870D02*
X115003751Y-107700070D01*
X114964686Y-107657470D02*
X114984221Y-107678870D01*
X114832041Y-107567670D02*
X114964686Y-107657470D01*
X114653276Y-107500670D02*
X114832041Y-107567670D01*
X114610686Y-107490920D02*
X114653276Y-107500670D01*
X114481291Y-107461620D02*
X114610686Y-107490920D01*
X114450911Y-107454270D02*
X114481291Y-107461620D01*
X114243385Y-107365870D02*
X114450911Y-107454270D01*
X114232271Y-107355270D02*
X114243385Y-107365870D01*
X114221146Y-107344670D02*
X114232271Y-107355270D01*
X114166346Y-107216920D02*
X114221146Y-107344670D01*
X114166346Y-107170820D02*
X114166346Y-107216920D01*
X114166346Y-107139870D02*
X114166346Y-107170820D01*
X114191576Y-107047120D02*
X114166346Y-107139870D01*
X114250716Y-106965720D02*
X114191576Y-107047120D01*
X114267806Y-106952421D02*
X114250716Y-106965720D01*
X114284626Y-106938620D02*
X114267806Y-106952421D01*
X114387431Y-106891120D02*
X114284626Y-106938620D01*
X114514386Y-106870520D02*
X114387431Y-106891120D01*
X114543681Y-106870520D02*
X114514386Y-106870520D01*
X114562671Y-106870520D02*
X114543681Y-106870520D01*
X114752011Y-106900920D02*
X114562671Y-106870520D01*
X114770736Y-106907120D02*
X114752011Y-106900920D01*
X114789451Y-106913120D02*
X114770736Y-106907120D01*
X114977706Y-107003720D02*
X114789451Y-106913120D01*
X114996431Y-107015920D02*
X114977706Y-107003720D01*
X114996431Y-106765520D02*
X114996431Y-107015920D01*
X113619201Y-107616221D02*
X113619201Y-107616221D01*
X113619201Y-107512070D02*
X113619201Y-107616221D01*
X113581225Y-107199570D02*
X113619201Y-107512070D01*
X113493061Y-106943470D02*
X113581225Y-107199570D01*
X113467841Y-106904420D02*
X113493061Y-106943470D01*
X113442611Y-106865370D02*
X113467841Y-106904420D01*
X113277951Y-106728620D02*
X113442611Y-106865370D01*
X113076125Y-106670020D02*
X113277951Y-106728620D01*
X113008851Y-106670020D02*
X113076125Y-106670020D01*
X112941576Y-106670020D02*
X113008851Y-106670020D01*
X112740296Y-106728620D02*
X112941576Y-106670020D01*
X112575096Y-106865370D02*
X112740296Y-106728620D01*
X112549866Y-106904420D02*
X112575096Y-106865370D01*
X112524636Y-106943470D02*
X112549866Y-106904420D01*
X112437021Y-107199570D02*
X112524636Y-106943470D01*
X112399581Y-107512070D02*
X112437021Y-107199570D01*
X112399581Y-107616221D02*
X112399581Y-107512070D01*
X112399581Y-107720370D02*
X112399581Y-107616221D01*
X112437021Y-108033170D02*
X112399581Y-107720370D01*
X112524636Y-108288671D02*
X112437021Y-108033170D01*
X112549866Y-108327770D02*
X112524636Y-108288671D01*
X112574826Y-108366570D02*
X112549866Y-108327770D01*
X112739486Y-108502470D02*
X112574826Y-108366570D01*
X112941306Y-108561070D02*
X112739486Y-108502470D01*
X113008851Y-108561070D02*
X112941306Y-108561070D01*
X113076125Y-108561070D02*
X113008851Y-108561070D01*
X113277951Y-108502470D02*
X113076125Y-108561070D01*
X113442611Y-108365720D02*
X113277951Y-108502470D01*
X113467841Y-108326670D02*
X113442611Y-108365720D01*
X113493061Y-108287620D02*
X113467841Y-108326670D01*
X113581225Y-108031820D02*
X113493061Y-108287620D01*
X113619201Y-107720120D02*
X113581225Y-108031820D01*
X113619201Y-107616221D02*
X113619201Y-107720120D01*
X113361501Y-107616221D02*
X113361501Y-107616221D01*
X113361501Y-107702220D02*
X113361501Y-107616221D01*
X113340611Y-107960470D02*
X113361501Y-107702220D01*
X113292326Y-108161220D02*
X113340611Y-107960470D01*
X113278491Y-108189970D02*
X113292326Y-108161220D01*
X113264656Y-108218420D02*
X113278491Y-108189970D01*
X113169986Y-108317970D02*
X113264656Y-108218420D01*
X113049001Y-108360871D02*
X113169986Y-108317970D01*
X113008851Y-108360871D02*
X113049001Y-108360871D01*
X112968431Y-108360871D02*
X113008851Y-108360871D01*
X112847721Y-108317720D02*
X112968431Y-108360871D01*
X112752775Y-108217070D02*
X112847721Y-108317720D01*
X112738941Y-108188620D02*
X112752775Y-108217070D01*
X112725101Y-108159870D02*
X112738941Y-108188620D01*
X112677631Y-107959370D02*
X112725101Y-108159870D01*
X112657291Y-107701971D02*
X112677631Y-107959370D01*
X112657291Y-107616221D02*
X112657291Y-107701971D01*
X112657291Y-107529970D02*
X112657291Y-107616221D01*
X112677631Y-107271970D02*
X112657291Y-107529970D01*
X112725101Y-107070970D02*
X112677631Y-107271970D01*
X112738941Y-107042470D02*
X112725101Y-107070970D01*
X112752775Y-107013720D02*
X112738941Y-107042470D01*
X112847721Y-106913120D02*
X112752775Y-107013720D01*
X111558386Y-105805820D02*
X111558386Y-109350710D01*
X119243946Y-105805820D02*
X118937946Y-105805820D01*
X119243946Y-109350710D02*
X119243946Y-105805820D01*
X112968431Y-106870221D02*
X112847721Y-106913120D01*
X113008851Y-106870221D02*
X112968431Y-106870221D01*
X113049001Y-106870221D02*
X113008851Y-106870221D01*
X113169986Y-106913120D02*
X113049001Y-106870221D01*
X113264656Y-107013720D02*
X113169986Y-106913120D01*
X113278491Y-107042470D02*
X113264656Y-107013720D01*
X111870886Y-106118320D02*
X117878096Y-106118320D01*
X111870886Y-109038210D02*
X111870886Y-106118320D01*
X111558386Y-109350710D02*
X119243946Y-109350710D01*
X118931446Y-109038210D02*
X111870886Y-109038210D01*
X118937946Y-105805820D02*
X118931446Y-109038210D01*
X117878096Y-105805820D02*
X111558386Y-105805820D01*
X117878096Y-106118320D02*
X117878096Y-105805820D01*
X113292326Y-107070970D02*
X113278491Y-107042470D01*
X113340611Y-107271970D02*
X113292326Y-107070970D01*
X113361501Y-107529970D02*
X113340611Y-107271970D01*
X113361501Y-107616221D02*
X113361501Y-107529970D01*
X111558386Y-105805820D02*
X111558386Y-105805820D01*
D10*
X90360500Y-111760000D02*
X91440000Y-111760000D01*
X88900000Y-123698000D02*
X88900000Y-123063000D01*
X91440000Y-111760000D02*
X91440000Y-123063000D01*
D12*
X115649524Y-130494761D02*
X115792381Y-130542380D01*
X115792381Y-130542380D02*
X116030476Y-130542380D01*
X116030476Y-130542380D02*
X116125714Y-130494761D01*
X116125714Y-130494761D02*
X116173333Y-130447142D01*
X116173333Y-130447142D02*
X116220952Y-130351904D01*
X116220952Y-130351904D02*
X116220952Y-130256666D01*
X116220952Y-130256666D02*
X116173333Y-130161428D01*
X116173333Y-130161428D02*
X116125714Y-130113809D01*
X116125714Y-130113809D02*
X116030476Y-130066190D01*
X116030476Y-130066190D02*
X115840000Y-130018571D01*
X115840000Y-130018571D02*
X115744762Y-129970952D01*
X115744762Y-129970952D02*
X115697143Y-129923333D01*
X115697143Y-129923333D02*
X115649524Y-129828095D01*
X115649524Y-129828095D02*
X115649524Y-129732857D01*
X115649524Y-129732857D02*
X115697143Y-129637619D01*
X115697143Y-129637619D02*
X115744762Y-129590000D01*
X115744762Y-129590000D02*
X115840000Y-129542380D01*
X115840000Y-129542380D02*
X116078095Y-129542380D01*
X116078095Y-129542380D02*
X116220952Y-129590000D01*
X117220952Y-130447142D02*
X117173333Y-130494761D01*
X117173333Y-130494761D02*
X117030476Y-130542380D01*
X117030476Y-130542380D02*
X116935238Y-130542380D01*
X116935238Y-130542380D02*
X116792381Y-130494761D01*
X116792381Y-130494761D02*
X116697143Y-130399523D01*
X116697143Y-130399523D02*
X116649524Y-130304285D01*
X116649524Y-130304285D02*
X116601905Y-130113809D01*
X116601905Y-130113809D02*
X116601905Y-129970952D01*
X116601905Y-129970952D02*
X116649524Y-129780476D01*
X116649524Y-129780476D02*
X116697143Y-129685238D01*
X116697143Y-129685238D02*
X116792381Y-129590000D01*
X116792381Y-129590000D02*
X116935238Y-129542380D01*
X116935238Y-129542380D02*
X117030476Y-129542380D01*
X117030476Y-129542380D02*
X117173333Y-129590000D01*
X117173333Y-129590000D02*
X117220952Y-129637619D01*
X118125714Y-130542380D02*
X117649524Y-130542380D01*
X117649524Y-130542380D02*
X117649524Y-129542380D01*
X87250904Y-111048704D02*
X87250904Y-110477276D01*
X88050904Y-110762990D02*
X87250904Y-110762990D01*
X87250904Y-110239180D02*
X88050904Y-109572514D01*
X87250904Y-109572514D02*
X88050904Y-110239180D01*
X87200104Y-116681094D02*
X87200104Y-116062047D01*
X87200104Y-116062047D02*
X87504866Y-116395380D01*
X87504866Y-116395380D02*
X87504866Y-116252523D01*
X87504866Y-116252523D02*
X87542961Y-116157285D01*
X87542961Y-116157285D02*
X87581057Y-116109666D01*
X87581057Y-116109666D02*
X87657247Y-116062047D01*
X87657247Y-116062047D02*
X87847723Y-116062047D01*
X87847723Y-116062047D02*
X87923914Y-116109666D01*
X87923914Y-116109666D02*
X87962009Y-116157285D01*
X87962009Y-116157285D02*
X88000104Y-116252523D01*
X88000104Y-116252523D02*
X88000104Y-116538237D01*
X88000104Y-116538237D02*
X87962009Y-116633475D01*
X87962009Y-116633475D02*
X87923914Y-116681094D01*
X87200104Y-115776332D02*
X88000104Y-115442999D01*
X88000104Y-115442999D02*
X87200104Y-115109666D01*
X87200104Y-114871570D02*
X87200104Y-114252523D01*
X87200104Y-114252523D02*
X87504866Y-114585856D01*
X87504866Y-114585856D02*
X87504866Y-114442999D01*
X87504866Y-114442999D02*
X87542961Y-114347761D01*
X87542961Y-114347761D02*
X87581057Y-114300142D01*
X87581057Y-114300142D02*
X87657247Y-114252523D01*
X87657247Y-114252523D02*
X87847723Y-114252523D01*
X87847723Y-114252523D02*
X87923914Y-114300142D01*
X87923914Y-114300142D02*
X87962009Y-114347761D01*
X87962009Y-114347761D02*
X88000104Y-114442999D01*
X88000104Y-114442999D02*
X88000104Y-114728713D01*
X88000104Y-114728713D02*
X87962009Y-114823951D01*
X87962009Y-114823951D02*
X87923914Y-114871570D01*
X87263600Y-121259504D02*
X87225504Y-121354742D01*
X87225504Y-121354742D02*
X87225504Y-121497599D01*
X87225504Y-121497599D02*
X87263600Y-121640456D01*
X87263600Y-121640456D02*
X87339790Y-121735694D01*
X87339790Y-121735694D02*
X87415980Y-121783313D01*
X87415980Y-121783313D02*
X87568361Y-121830932D01*
X87568361Y-121830932D02*
X87682647Y-121830932D01*
X87682647Y-121830932D02*
X87835028Y-121783313D01*
X87835028Y-121783313D02*
X87911219Y-121735694D01*
X87911219Y-121735694D02*
X87987409Y-121640456D01*
X87987409Y-121640456D02*
X88025504Y-121497599D01*
X88025504Y-121497599D02*
X88025504Y-121402361D01*
X88025504Y-121402361D02*
X87987409Y-121259504D01*
X87987409Y-121259504D02*
X87949314Y-121211885D01*
X87949314Y-121211885D02*
X87682647Y-121211885D01*
X87682647Y-121211885D02*
X87682647Y-121402361D01*
X88025504Y-120783313D02*
X87225504Y-120783313D01*
X87225504Y-120783313D02*
X88025504Y-120211885D01*
X88025504Y-120211885D02*
X87225504Y-120211885D01*
X88025504Y-119735694D02*
X87225504Y-119735694D01*
X87225504Y-119735694D02*
X87225504Y-119497599D01*
X87225504Y-119497599D02*
X87263600Y-119354742D01*
X87263600Y-119354742D02*
X87339790Y-119259504D01*
X87339790Y-119259504D02*
X87415980Y-119211885D01*
X87415980Y-119211885D02*
X87568361Y-119164266D01*
X87568361Y-119164266D02*
X87682647Y-119164266D01*
X87682647Y-119164266D02*
X87835028Y-119211885D01*
X87835028Y-119211885D02*
X87911219Y-119259504D01*
X87911219Y-119259504D02*
X87987409Y-119354742D01*
X87987409Y-119354742D02*
X88025504Y-119497599D01*
X88025504Y-119497599D02*
X88025504Y-119735694D01*
X88025504Y-112968066D02*
X87644552Y-113301399D01*
X88025504Y-113539494D02*
X87225504Y-113539494D01*
X87225504Y-113539494D02*
X87225504Y-113158542D01*
X87225504Y-113158542D02*
X87263600Y-113063304D01*
X87263600Y-113063304D02*
X87301695Y-113015685D01*
X87301695Y-113015685D02*
X87377885Y-112968066D01*
X87377885Y-112968066D02*
X87492171Y-112968066D01*
X87492171Y-112968066D02*
X87568361Y-113015685D01*
X87568361Y-113015685D02*
X87606457Y-113063304D01*
X87606457Y-113063304D02*
X87644552Y-113158542D01*
X87644552Y-113158542D02*
X87644552Y-113539494D01*
X87225504Y-112634732D02*
X88025504Y-111968066D01*
X87225504Y-111968066D02*
X88025504Y-112634732D01*
X106851761Y-152658475D02*
X106899380Y-152515618D01*
X106899380Y-152515618D02*
X106899380Y-152277523D01*
X106899380Y-152277523D02*
X106851761Y-152182285D01*
X106851761Y-152182285D02*
X106804142Y-152134666D01*
X106804142Y-152134666D02*
X106708904Y-152087047D01*
X106708904Y-152087047D02*
X106613666Y-152087047D01*
X106613666Y-152087047D02*
X106518428Y-152134666D01*
X106518428Y-152134666D02*
X106470809Y-152182285D01*
X106470809Y-152182285D02*
X106423190Y-152277523D01*
X106423190Y-152277523D02*
X106375571Y-152467999D01*
X106375571Y-152467999D02*
X106327952Y-152563237D01*
X106327952Y-152563237D02*
X106280333Y-152610856D01*
X106280333Y-152610856D02*
X106185095Y-152658475D01*
X106185095Y-152658475D02*
X106089857Y-152658475D01*
X106089857Y-152658475D02*
X105994619Y-152610856D01*
X105994619Y-152610856D02*
X105947000Y-152563237D01*
X105947000Y-152563237D02*
X105899380Y-152467999D01*
X105899380Y-152467999D02*
X105899380Y-152229904D01*
X105899380Y-152229904D02*
X105947000Y-152087047D01*
X106804142Y-151087047D02*
X106851761Y-151134666D01*
X106851761Y-151134666D02*
X106899380Y-151277523D01*
X106899380Y-151277523D02*
X106899380Y-151372761D01*
X106899380Y-151372761D02*
X106851761Y-151515618D01*
X106851761Y-151515618D02*
X106756523Y-151610856D01*
X106756523Y-151610856D02*
X106661285Y-151658475D01*
X106661285Y-151658475D02*
X106470809Y-151706094D01*
X106470809Y-151706094D02*
X106327952Y-151706094D01*
X106327952Y-151706094D02*
X106137476Y-151658475D01*
X106137476Y-151658475D02*
X106042238Y-151610856D01*
X106042238Y-151610856D02*
X105947000Y-151515618D01*
X105947000Y-151515618D02*
X105899380Y-151372761D01*
X105899380Y-151372761D02*
X105899380Y-151277523D01*
X105899380Y-151277523D02*
X105947000Y-151134666D01*
X105947000Y-151134666D02*
X105994619Y-151087047D01*
X106899380Y-150182285D02*
X106899380Y-150658475D01*
X106899380Y-150658475D02*
X105899380Y-150658475D01*
X106851761Y-155782285D02*
X106899380Y-155639428D01*
X106899380Y-155639428D02*
X106899380Y-155401333D01*
X106899380Y-155401333D02*
X106851761Y-155306095D01*
X106851761Y-155306095D02*
X106804142Y-155258476D01*
X106804142Y-155258476D02*
X106708904Y-155210857D01*
X106708904Y-155210857D02*
X106613666Y-155210857D01*
X106613666Y-155210857D02*
X106518428Y-155258476D01*
X106518428Y-155258476D02*
X106470809Y-155306095D01*
X106470809Y-155306095D02*
X106423190Y-155401333D01*
X106423190Y-155401333D02*
X106375571Y-155591809D01*
X106375571Y-155591809D02*
X106327952Y-155687047D01*
X106327952Y-155687047D02*
X106280333Y-155734666D01*
X106280333Y-155734666D02*
X106185095Y-155782285D01*
X106185095Y-155782285D02*
X106089857Y-155782285D01*
X106089857Y-155782285D02*
X105994619Y-155734666D01*
X105994619Y-155734666D02*
X105947000Y-155687047D01*
X105947000Y-155687047D02*
X105899380Y-155591809D01*
X105899380Y-155591809D02*
X105899380Y-155353714D01*
X105899380Y-155353714D02*
X105947000Y-155210857D01*
X106899380Y-154782285D02*
X105899380Y-154782285D01*
X105899380Y-154782285D02*
X105899380Y-154544190D01*
X105899380Y-154544190D02*
X105947000Y-154401333D01*
X105947000Y-154401333D02*
X106042238Y-154306095D01*
X106042238Y-154306095D02*
X106137476Y-154258476D01*
X106137476Y-154258476D02*
X106327952Y-154210857D01*
X106327952Y-154210857D02*
X106470809Y-154210857D01*
X106470809Y-154210857D02*
X106661285Y-154258476D01*
X106661285Y-154258476D02*
X106756523Y-154306095D01*
X106756523Y-154306095D02*
X106851761Y-154401333D01*
X106851761Y-154401333D02*
X106899380Y-154544190D01*
X106899380Y-154544190D02*
X106899380Y-154782285D01*
X106613666Y-153829904D02*
X106613666Y-153353714D01*
X106899380Y-153925142D02*
X105899380Y-153591809D01*
X105899380Y-153591809D02*
X106899380Y-153258476D01*
X108047000Y-155329904D02*
X107999380Y-155425142D01*
X107999380Y-155425142D02*
X107999380Y-155567999D01*
X107999380Y-155567999D02*
X108047000Y-155710856D01*
X108047000Y-155710856D02*
X108142238Y-155806094D01*
X108142238Y-155806094D02*
X108237476Y-155853713D01*
X108237476Y-155853713D02*
X108427952Y-155901332D01*
X108427952Y-155901332D02*
X108570809Y-155901332D01*
X108570809Y-155901332D02*
X108761285Y-155853713D01*
X108761285Y-155853713D02*
X108856523Y-155806094D01*
X108856523Y-155806094D02*
X108951761Y-155710856D01*
X108951761Y-155710856D02*
X108999380Y-155567999D01*
X108999380Y-155567999D02*
X108999380Y-155472761D01*
X108999380Y-155472761D02*
X108951761Y-155329904D01*
X108951761Y-155329904D02*
X108904142Y-155282285D01*
X108904142Y-155282285D02*
X108570809Y-155282285D01*
X108570809Y-155282285D02*
X108570809Y-155472761D01*
X108999380Y-154853713D02*
X107999380Y-154853713D01*
X107999380Y-154853713D02*
X108999380Y-154282285D01*
X108999380Y-154282285D02*
X107999380Y-154282285D01*
X108999380Y-153806094D02*
X107999380Y-153806094D01*
X107999380Y-153806094D02*
X107999380Y-153567999D01*
X107999380Y-153567999D02*
X108047000Y-153425142D01*
X108047000Y-153425142D02*
X108142238Y-153329904D01*
X108142238Y-153329904D02*
X108237476Y-153282285D01*
X108237476Y-153282285D02*
X108427952Y-153234666D01*
X108427952Y-153234666D02*
X108570809Y-153234666D01*
X108570809Y-153234666D02*
X108761285Y-153282285D01*
X108761285Y-153282285D02*
X108856523Y-153329904D01*
X108856523Y-153329904D02*
X108951761Y-153425142D01*
X108951761Y-153425142D02*
X108999380Y-153567999D01*
X108999380Y-153567999D02*
X108999380Y-153806094D01*
X107999380Y-152658475D02*
X107999380Y-152039428D01*
X107999380Y-152039428D02*
X108380333Y-152372761D01*
X108380333Y-152372761D02*
X108380333Y-152229904D01*
X108380333Y-152229904D02*
X108427952Y-152134666D01*
X108427952Y-152134666D02*
X108475571Y-152087047D01*
X108475571Y-152087047D02*
X108570809Y-152039428D01*
X108570809Y-152039428D02*
X108808904Y-152039428D01*
X108808904Y-152039428D02*
X108904142Y-152087047D01*
X108904142Y-152087047D02*
X108951761Y-152134666D01*
X108951761Y-152134666D02*
X108999380Y-152229904D01*
X108999380Y-152229904D02*
X108999380Y-152515618D01*
X108999380Y-152515618D02*
X108951761Y-152610856D01*
X108951761Y-152610856D02*
X108904142Y-152658475D01*
X108332714Y-151706094D02*
X108999380Y-151467999D01*
X108999380Y-151467999D02*
X108332714Y-151229904D01*
X107999380Y-150944189D02*
X107999380Y-150325142D01*
X107999380Y-150325142D02*
X108380333Y-150658475D01*
X108380333Y-150658475D02*
X108380333Y-150515618D01*
X108380333Y-150515618D02*
X108427952Y-150420380D01*
X108427952Y-150420380D02*
X108475571Y-150372761D01*
X108475571Y-150372761D02*
X108570809Y-150325142D01*
X108570809Y-150325142D02*
X108808904Y-150325142D01*
X108808904Y-150325142D02*
X108904142Y-150372761D01*
X108904142Y-150372761D02*
X108951761Y-150420380D01*
X108951761Y-150420380D02*
X108999380Y-150515618D01*
X108999380Y-150515618D02*
X108999380Y-150801332D01*
X108999380Y-150801332D02*
X108951761Y-150896570D01*
X108951761Y-150896570D02*
X108904142Y-150944189D01*
X117141523Y-131935380D02*
X116665333Y-131935380D01*
X116665333Y-131935380D02*
X116617714Y-132411571D01*
X116617714Y-132411571D02*
X116665333Y-132363952D01*
X116665333Y-132363952D02*
X116760571Y-132316333D01*
X116760571Y-132316333D02*
X116998666Y-132316333D01*
X116998666Y-132316333D02*
X117093904Y-132363952D01*
X117093904Y-132363952D02*
X117141523Y-132411571D01*
X117141523Y-132411571D02*
X117189142Y-132506809D01*
X117189142Y-132506809D02*
X117189142Y-132744904D01*
X117189142Y-132744904D02*
X117141523Y-132840142D01*
X117141523Y-132840142D02*
X117093904Y-132887761D01*
X117093904Y-132887761D02*
X116998666Y-132935380D01*
X116998666Y-132935380D02*
X116760571Y-132935380D01*
X116760571Y-132935380D02*
X116665333Y-132887761D01*
X116665333Y-132887761D02*
X116617714Y-132840142D01*
X117474857Y-131935380D02*
X117808190Y-132935380D01*
X117808190Y-132935380D02*
X118141523Y-131935380D01*
X86219380Y-127452285D02*
X85219380Y-127452285D01*
X85219380Y-127452285D02*
X85219380Y-127214190D01*
X85219380Y-127214190D02*
X85267000Y-127071333D01*
X85267000Y-127071333D02*
X85362238Y-126976095D01*
X85362238Y-126976095D02*
X85457476Y-126928476D01*
X85457476Y-126928476D02*
X85647952Y-126880857D01*
X85647952Y-126880857D02*
X85790809Y-126880857D01*
X85790809Y-126880857D02*
X85981285Y-126928476D01*
X85981285Y-126928476D02*
X86076523Y-126976095D01*
X86076523Y-126976095D02*
X86171761Y-127071333D01*
X86171761Y-127071333D02*
X86219380Y-127214190D01*
X86219380Y-127214190D02*
X86219380Y-127452285D01*
X86219380Y-125928476D02*
X86219380Y-126499904D01*
X86219380Y-126214190D02*
X85219380Y-126214190D01*
X85219380Y-126214190D02*
X85362238Y-126309428D01*
X85362238Y-126309428D02*
X85457476Y-126404666D01*
X85457476Y-126404666D02*
X85505095Y-126499904D01*
X85219380Y-125023714D02*
X85219380Y-125499904D01*
X85219380Y-125499904D02*
X85695571Y-125547523D01*
X85695571Y-125547523D02*
X85647952Y-125499904D01*
X85647952Y-125499904D02*
X85600333Y-125404666D01*
X85600333Y-125404666D02*
X85600333Y-125166571D01*
X85600333Y-125166571D02*
X85647952Y-125071333D01*
X85647952Y-125071333D02*
X85695571Y-125023714D01*
X85695571Y-125023714D02*
X85790809Y-124976095D01*
X85790809Y-124976095D02*
X86028904Y-124976095D01*
X86028904Y-124976095D02*
X86124142Y-125023714D01*
X86124142Y-125023714D02*
X86171761Y-125071333D01*
X86171761Y-125071333D02*
X86219380Y-125166571D01*
X86219380Y-125166571D02*
X86219380Y-125404666D01*
X86219380Y-125404666D02*
X86171761Y-125499904D01*
X86171761Y-125499904D02*
X86124142Y-125547523D01*
D13*
X112029833Y-111074333D02*
X112029833Y-109674333D01*
X112029833Y-109674333D02*
X112829833Y-111074333D01*
X112829833Y-111074333D02*
X112829833Y-109674333D01*
X114163167Y-111074333D02*
X113496500Y-111074333D01*
X113496500Y-111074333D02*
X113496500Y-109674333D01*
X115296500Y-109674333D02*
X114629833Y-109674333D01*
X114629833Y-109674333D02*
X114563166Y-110341000D01*
X114563166Y-110341000D02*
X114629833Y-110274333D01*
X114629833Y-110274333D02*
X114763166Y-110207666D01*
X114763166Y-110207666D02*
X115096500Y-110207666D01*
X115096500Y-110207666D02*
X115229833Y-110274333D01*
X115229833Y-110274333D02*
X115296500Y-110341000D01*
X115296500Y-110341000D02*
X115363166Y-110474333D01*
X115363166Y-110474333D02*
X115363166Y-110807666D01*
X115363166Y-110807666D02*
X115296500Y-110941000D01*
X115296500Y-110941000D02*
X115229833Y-111007666D01*
X115229833Y-111007666D02*
X115096500Y-111074333D01*
X115096500Y-111074333D02*
X114763166Y-111074333D01*
X114763166Y-111074333D02*
X114629833Y-111007666D01*
X114629833Y-111007666D02*
X114563166Y-110941000D01*
D12*
X116008191Y-137035380D02*
X116341524Y-138035380D01*
X116341524Y-138035380D02*
X116674857Y-137035380D01*
X117008191Y-138035380D02*
X117008191Y-137368714D01*
X117008191Y-137035380D02*
X116960572Y-137083000D01*
X116960572Y-137083000D02*
X117008191Y-137130619D01*
X117008191Y-137130619D02*
X117055810Y-137083000D01*
X117055810Y-137083000D02*
X117008191Y-137035380D01*
X117008191Y-137035380D02*
X117008191Y-137130619D01*
X117484381Y-137368714D02*
X117484381Y-138035380D01*
X117484381Y-137463952D02*
X117532000Y-137416333D01*
X117532000Y-137416333D02*
X117627238Y-137368714D01*
X117627238Y-137368714D02*
X117770095Y-137368714D01*
X117770095Y-137368714D02*
X117865333Y-137416333D01*
X117865333Y-137416333D02*
X117912952Y-137511571D01*
X117912952Y-137511571D02*
X117912952Y-138035380D01*
X123494000Y-133476904D02*
X123446380Y-133572142D01*
X123446380Y-133572142D02*
X123446380Y-133714999D01*
X123446380Y-133714999D02*
X123494000Y-133857856D01*
X123494000Y-133857856D02*
X123589238Y-133953094D01*
X123589238Y-133953094D02*
X123684476Y-134000713D01*
X123684476Y-134000713D02*
X123874952Y-134048332D01*
X123874952Y-134048332D02*
X124017809Y-134048332D01*
X124017809Y-134048332D02*
X124208285Y-134000713D01*
X124208285Y-134000713D02*
X124303523Y-133953094D01*
X124303523Y-133953094D02*
X124398761Y-133857856D01*
X124398761Y-133857856D02*
X124446380Y-133714999D01*
X124446380Y-133714999D02*
X124446380Y-133619761D01*
X124446380Y-133619761D02*
X124398761Y-133476904D01*
X124398761Y-133476904D02*
X124351142Y-133429285D01*
X124351142Y-133429285D02*
X124017809Y-133429285D01*
X124017809Y-133429285D02*
X124017809Y-133619761D01*
X124446380Y-133000713D02*
X123446380Y-133000713D01*
X123446380Y-133000713D02*
X124446380Y-132429285D01*
X124446380Y-132429285D02*
X123446380Y-132429285D01*
X124446380Y-131953094D02*
X123446380Y-131953094D01*
X123446380Y-131953094D02*
X123446380Y-131714999D01*
X123446380Y-131714999D02*
X123494000Y-131572142D01*
X123494000Y-131572142D02*
X123589238Y-131476904D01*
X123589238Y-131476904D02*
X123684476Y-131429285D01*
X123684476Y-131429285D02*
X123874952Y-131381666D01*
X123874952Y-131381666D02*
X124017809Y-131381666D01*
X124017809Y-131381666D02*
X124208285Y-131429285D01*
X124208285Y-131429285D02*
X124303523Y-131476904D01*
X124303523Y-131476904D02*
X124398761Y-131572142D01*
X124398761Y-131572142D02*
X124446380Y-131714999D01*
X124446380Y-131714999D02*
X124446380Y-131953094D01*
X124398761Y-130627285D02*
X124446380Y-130484428D01*
X124446380Y-130484428D02*
X124446380Y-130246333D01*
X124446380Y-130246333D02*
X124398761Y-130151095D01*
X124398761Y-130151095D02*
X124351142Y-130103476D01*
X124351142Y-130103476D02*
X124255904Y-130055857D01*
X124255904Y-130055857D02*
X124160666Y-130055857D01*
X124160666Y-130055857D02*
X124065428Y-130103476D01*
X124065428Y-130103476D02*
X124017809Y-130151095D01*
X124017809Y-130151095D02*
X123970190Y-130246333D01*
X123970190Y-130246333D02*
X123922571Y-130436809D01*
X123922571Y-130436809D02*
X123874952Y-130532047D01*
X123874952Y-130532047D02*
X123827333Y-130579666D01*
X123827333Y-130579666D02*
X123732095Y-130627285D01*
X123732095Y-130627285D02*
X123636857Y-130627285D01*
X123636857Y-130627285D02*
X123541619Y-130579666D01*
X123541619Y-130579666D02*
X123494000Y-130532047D01*
X123494000Y-130532047D02*
X123446380Y-130436809D01*
X123446380Y-130436809D02*
X123446380Y-130198714D01*
X123446380Y-130198714D02*
X123494000Y-130055857D01*
X124446380Y-129627285D02*
X123446380Y-129627285D01*
X123446380Y-129627285D02*
X123446380Y-129389190D01*
X123446380Y-129389190D02*
X123494000Y-129246333D01*
X123494000Y-129246333D02*
X123589238Y-129151095D01*
X123589238Y-129151095D02*
X123684476Y-129103476D01*
X123684476Y-129103476D02*
X123874952Y-129055857D01*
X123874952Y-129055857D02*
X124017809Y-129055857D01*
X124017809Y-129055857D02*
X124208285Y-129103476D01*
X124208285Y-129103476D02*
X124303523Y-129151095D01*
X124303523Y-129151095D02*
X124398761Y-129246333D01*
X124398761Y-129246333D02*
X124446380Y-129389190D01*
X124446380Y-129389190D02*
X124446380Y-129627285D01*
X124160666Y-128674904D02*
X124160666Y-128198714D01*
X124446380Y-128770142D02*
X123446380Y-128436809D01*
X123446380Y-128436809D02*
X124446380Y-128103476D01*
X88076304Y-108788056D02*
X87276304Y-108788056D01*
X87276304Y-108788056D02*
X87276304Y-108549961D01*
X87276304Y-108549961D02*
X87314400Y-108407104D01*
X87314400Y-108407104D02*
X87390590Y-108311866D01*
X87390590Y-108311866D02*
X87466780Y-108264247D01*
X87466780Y-108264247D02*
X87619161Y-108216628D01*
X87619161Y-108216628D02*
X87733447Y-108216628D01*
X87733447Y-108216628D02*
X87885828Y-108264247D01*
X87885828Y-108264247D02*
X87962019Y-108311866D01*
X87962019Y-108311866D02*
X88038209Y-108407104D01*
X88038209Y-108407104D02*
X88076304Y-108549961D01*
X88076304Y-108549961D02*
X88076304Y-108788056D01*
X87276304Y-107930913D02*
X87276304Y-107359485D01*
X88076304Y-107645199D02*
X87276304Y-107645199D01*
X88076304Y-106454723D02*
X87695352Y-106788056D01*
X88076304Y-107026151D02*
X87276304Y-107026151D01*
X87276304Y-107026151D02*
X87276304Y-106645199D01*
X87276304Y-106645199D02*
X87314400Y-106549961D01*
X87314400Y-106549961D02*
X87352495Y-106502342D01*
X87352495Y-106502342D02*
X87428685Y-106454723D01*
X87428685Y-106454723D02*
X87542971Y-106454723D01*
X87542971Y-106454723D02*
X87619161Y-106502342D01*
X87619161Y-106502342D02*
X87657257Y-106549961D01*
X87657257Y-106549961D02*
X87695352Y-106645199D01*
X87695352Y-106645199D02*
X87695352Y-107026151D01*
X108804142Y-129397166D02*
X108851761Y-129444785D01*
X108851761Y-129444785D02*
X108899380Y-129587642D01*
X108899380Y-129587642D02*
X108899380Y-129682880D01*
X108899380Y-129682880D02*
X108851761Y-129825737D01*
X108851761Y-129825737D02*
X108756523Y-129920975D01*
X108756523Y-129920975D02*
X108661285Y-129968594D01*
X108661285Y-129968594D02*
X108470809Y-130016213D01*
X108470809Y-130016213D02*
X108327952Y-130016213D01*
X108327952Y-130016213D02*
X108137476Y-129968594D01*
X108137476Y-129968594D02*
X108042238Y-129920975D01*
X108042238Y-129920975D02*
X107947000Y-129825737D01*
X107947000Y-129825737D02*
X107899380Y-129682880D01*
X107899380Y-129682880D02*
X107899380Y-129587642D01*
X107899380Y-129587642D02*
X107947000Y-129444785D01*
X107947000Y-129444785D02*
X107994619Y-129397166D01*
X108232714Y-128540023D02*
X108899380Y-128540023D01*
X107851761Y-128778118D02*
X108566047Y-129016213D01*
X108566047Y-129016213D02*
X108566047Y-128397166D01*
X117957695Y-149878580D02*
X117957695Y-150688104D01*
X117957695Y-150688104D02*
X118005314Y-150783342D01*
X118005314Y-150783342D02*
X118052933Y-150830961D01*
X118052933Y-150830961D02*
X118148171Y-150878580D01*
X118148171Y-150878580D02*
X118338647Y-150878580D01*
X118338647Y-150878580D02*
X118433885Y-150830961D01*
X118433885Y-150830961D02*
X118481504Y-150783342D01*
X118481504Y-150783342D02*
X118529123Y-150688104D01*
X118529123Y-150688104D02*
X118529123Y-149878580D01*
X118910076Y-149878580D02*
X119529123Y-149878580D01*
X119529123Y-149878580D02*
X119195790Y-150259533D01*
X119195790Y-150259533D02*
X119338647Y-150259533D01*
X119338647Y-150259533D02*
X119433885Y-150307152D01*
X119433885Y-150307152D02*
X119481504Y-150354771D01*
X119481504Y-150354771D02*
X119529123Y-150450009D01*
X119529123Y-150450009D02*
X119529123Y-150688104D01*
X119529123Y-150688104D02*
X119481504Y-150783342D01*
X119481504Y-150783342D02*
X119433885Y-150830961D01*
X119433885Y-150830961D02*
X119338647Y-150878580D01*
X119338647Y-150878580D02*
X119052933Y-150878580D01*
X119052933Y-150878580D02*
X118957695Y-150830961D01*
X118957695Y-150830961D02*
X118910076Y-150783342D01*
X116540619Y-121761238D02*
X116493000Y-121856476D01*
X116493000Y-121856476D02*
X116397761Y-121951714D01*
X116397761Y-121951714D02*
X116254904Y-122094571D01*
X116254904Y-122094571D02*
X116207285Y-122189809D01*
X116207285Y-122189809D02*
X116207285Y-122285047D01*
X116445380Y-122237428D02*
X116397761Y-122332666D01*
X116397761Y-122332666D02*
X116302523Y-122427904D01*
X116302523Y-122427904D02*
X116112047Y-122475523D01*
X116112047Y-122475523D02*
X115778714Y-122475523D01*
X115778714Y-122475523D02*
X115588238Y-122427904D01*
X115588238Y-122427904D02*
X115493000Y-122332666D01*
X115493000Y-122332666D02*
X115445380Y-122237428D01*
X115445380Y-122237428D02*
X115445380Y-122046952D01*
X115445380Y-122046952D02*
X115493000Y-121951714D01*
X115493000Y-121951714D02*
X115588238Y-121856476D01*
X115588238Y-121856476D02*
X115778714Y-121808857D01*
X115778714Y-121808857D02*
X116112047Y-121808857D01*
X116112047Y-121808857D02*
X116302523Y-121856476D01*
X116302523Y-121856476D02*
X116397761Y-121951714D01*
X116397761Y-121951714D02*
X116445380Y-122046952D01*
X116445380Y-122046952D02*
X116445380Y-122237428D01*
X115540619Y-121427904D02*
X115493000Y-121380285D01*
X115493000Y-121380285D02*
X115445380Y-121285047D01*
X115445380Y-121285047D02*
X115445380Y-121046952D01*
X115445380Y-121046952D02*
X115493000Y-120951714D01*
X115493000Y-120951714D02*
X115540619Y-120904095D01*
X115540619Y-120904095D02*
X115635857Y-120856476D01*
X115635857Y-120856476D02*
X115731095Y-120856476D01*
X115731095Y-120856476D02*
X115873952Y-120904095D01*
X115873952Y-120904095D02*
X116445380Y-121475523D01*
X116445380Y-121475523D02*
X116445380Y-120856476D01*
X117588380Y-117768666D02*
X117112190Y-118101999D01*
X117588380Y-118340094D02*
X116588380Y-118340094D01*
X116588380Y-118340094D02*
X116588380Y-117959142D01*
X116588380Y-117959142D02*
X116636000Y-117863904D01*
X116636000Y-117863904D02*
X116683619Y-117816285D01*
X116683619Y-117816285D02*
X116778857Y-117768666D01*
X116778857Y-117768666D02*
X116921714Y-117768666D01*
X116921714Y-117768666D02*
X117016952Y-117816285D01*
X117016952Y-117816285D02*
X117064571Y-117863904D01*
X117064571Y-117863904D02*
X117112190Y-117959142D01*
X117112190Y-117959142D02*
X117112190Y-118340094D01*
X116683619Y-117387713D02*
X116636000Y-117340094D01*
X116636000Y-117340094D02*
X116588380Y-117244856D01*
X116588380Y-117244856D02*
X116588380Y-117006761D01*
X116588380Y-117006761D02*
X116636000Y-116911523D01*
X116636000Y-116911523D02*
X116683619Y-116863904D01*
X116683619Y-116863904D02*
X116778857Y-116816285D01*
X116778857Y-116816285D02*
X116874095Y-116816285D01*
X116874095Y-116816285D02*
X117016952Y-116863904D01*
X117016952Y-116863904D02*
X117588380Y-117435332D01*
X117588380Y-117435332D02*
X117588380Y-116816285D01*
X83820095Y-138203780D02*
X83820095Y-139013304D01*
X83820095Y-139013304D02*
X83867714Y-139108542D01*
X83867714Y-139108542D02*
X83915333Y-139156161D01*
X83915333Y-139156161D02*
X84010571Y-139203780D01*
X84010571Y-139203780D02*
X84201047Y-139203780D01*
X84201047Y-139203780D02*
X84296285Y-139156161D01*
X84296285Y-139156161D02*
X84343904Y-139108542D01*
X84343904Y-139108542D02*
X84391523Y-139013304D01*
X84391523Y-139013304D02*
X84391523Y-138203780D01*
X85391523Y-139203780D02*
X84820095Y-139203780D01*
X85105809Y-139203780D02*
X85105809Y-138203780D01*
X85105809Y-138203780D02*
X85010571Y-138346638D01*
X85010571Y-138346638D02*
X84915333Y-138441876D01*
X84915333Y-138441876D02*
X84820095Y-138489495D01*
X91296647Y-153185266D02*
X91772837Y-153185266D01*
X91201409Y-153470980D02*
X91534742Y-152470980D01*
X91534742Y-152470980D02*
X91868075Y-153470980D01*
X92201409Y-152804314D02*
X92201409Y-153470980D01*
X92201409Y-152899552D02*
X92249028Y-152851933D01*
X92249028Y-152851933D02*
X92344266Y-152804314D01*
X92344266Y-152804314D02*
X92487123Y-152804314D01*
X92487123Y-152804314D02*
X92582361Y-152851933D01*
X92582361Y-152851933D02*
X92629980Y-152947171D01*
X92629980Y-152947171D02*
X92629980Y-153470980D01*
X92963314Y-152804314D02*
X93344266Y-152804314D01*
X93106171Y-152470980D02*
X93106171Y-153328123D01*
X93106171Y-153328123D02*
X93153790Y-153423361D01*
X93153790Y-153423361D02*
X93249028Y-153470980D01*
X93249028Y-153470980D02*
X93344266Y-153470980D01*
X94058552Y-153423361D02*
X93963314Y-153470980D01*
X93963314Y-153470980D02*
X93772838Y-153470980D01*
X93772838Y-153470980D02*
X93677600Y-153423361D01*
X93677600Y-153423361D02*
X93629981Y-153328123D01*
X93629981Y-153328123D02*
X93629981Y-152947171D01*
X93629981Y-152947171D02*
X93677600Y-152851933D01*
X93677600Y-152851933D02*
X93772838Y-152804314D01*
X93772838Y-152804314D02*
X93963314Y-152804314D01*
X93963314Y-152804314D02*
X94058552Y-152851933D01*
X94058552Y-152851933D02*
X94106171Y-152947171D01*
X94106171Y-152947171D02*
X94106171Y-153042409D01*
X94106171Y-153042409D02*
X93629981Y-153137647D01*
X94534743Y-152804314D02*
X94534743Y-153470980D01*
X94534743Y-152899552D02*
X94582362Y-152851933D01*
X94582362Y-152851933D02*
X94677600Y-152804314D01*
X94677600Y-152804314D02*
X94820457Y-152804314D01*
X94820457Y-152804314D02*
X94915695Y-152851933D01*
X94915695Y-152851933D02*
X94963314Y-152947171D01*
X94963314Y-152947171D02*
X94963314Y-153470980D01*
X95439505Y-152804314D02*
X95439505Y-153470980D01*
X95439505Y-152899552D02*
X95487124Y-152851933D01*
X95487124Y-152851933D02*
X95582362Y-152804314D01*
X95582362Y-152804314D02*
X95725219Y-152804314D01*
X95725219Y-152804314D02*
X95820457Y-152851933D01*
X95820457Y-152851933D02*
X95868076Y-152947171D01*
X95868076Y-152947171D02*
X95868076Y-153470980D01*
X96772838Y-153470980D02*
X96772838Y-152947171D01*
X96772838Y-152947171D02*
X96725219Y-152851933D01*
X96725219Y-152851933D02*
X96629981Y-152804314D01*
X96629981Y-152804314D02*
X96439505Y-152804314D01*
X96439505Y-152804314D02*
X96344267Y-152851933D01*
X96772838Y-153423361D02*
X96677600Y-153470980D01*
X96677600Y-153470980D02*
X96439505Y-153470980D01*
X96439505Y-153470980D02*
X96344267Y-153423361D01*
X96344267Y-153423361D02*
X96296648Y-153328123D01*
X96296648Y-153328123D02*
X96296648Y-153232885D01*
X96296648Y-153232885D02*
X96344267Y-153137647D01*
X96344267Y-153137647D02*
X96439505Y-153090028D01*
X96439505Y-153090028D02*
X96677600Y-153090028D01*
X96677600Y-153090028D02*
X96772838Y-153042409D01*
X97801410Y-153185266D02*
X98277600Y-153185266D01*
X97706172Y-153470980D02*
X98039505Y-152470980D01*
X98039505Y-152470980D02*
X98372838Y-153470980D01*
X98706172Y-153470980D02*
X98706172Y-152804314D01*
X98706172Y-152994790D02*
X98753791Y-152899552D01*
X98753791Y-152899552D02*
X98801410Y-152851933D01*
X98801410Y-152851933D02*
X98896648Y-152804314D01*
X98896648Y-152804314D02*
X98991886Y-152804314D01*
X99706172Y-153423361D02*
X99610934Y-153470980D01*
X99610934Y-153470980D02*
X99420458Y-153470980D01*
X99420458Y-153470980D02*
X99325220Y-153423361D01*
X99325220Y-153423361D02*
X99277601Y-153328123D01*
X99277601Y-153328123D02*
X99277601Y-152947171D01*
X99277601Y-152947171D02*
X99325220Y-152851933D01*
X99325220Y-152851933D02*
X99420458Y-152804314D01*
X99420458Y-152804314D02*
X99610934Y-152804314D01*
X99610934Y-152804314D02*
X99706172Y-152851933D01*
X99706172Y-152851933D02*
X99753791Y-152947171D01*
X99753791Y-152947171D02*
X99753791Y-153042409D01*
X99753791Y-153042409D02*
X99277601Y-153137647D01*
X100610934Y-153470980D02*
X100610934Y-152947171D01*
X100610934Y-152947171D02*
X100563315Y-152851933D01*
X100563315Y-152851933D02*
X100468077Y-152804314D01*
X100468077Y-152804314D02*
X100277601Y-152804314D01*
X100277601Y-152804314D02*
X100182363Y-152851933D01*
X100610934Y-153423361D02*
X100515696Y-153470980D01*
X100515696Y-153470980D02*
X100277601Y-153470980D01*
X100277601Y-153470980D02*
X100182363Y-153423361D01*
X100182363Y-153423361D02*
X100134744Y-153328123D01*
X100134744Y-153328123D02*
X100134744Y-153232885D01*
X100134744Y-153232885D02*
X100182363Y-153137647D01*
X100182363Y-153137647D02*
X100277601Y-153090028D01*
X100277601Y-153090028D02*
X100515696Y-153090028D01*
X100515696Y-153090028D02*
X100610934Y-153042409D01*
X91680380Y-128413566D02*
X91204190Y-128746899D01*
X91680380Y-128984994D02*
X90680380Y-128984994D01*
X90680380Y-128984994D02*
X90680380Y-128604042D01*
X90680380Y-128604042D02*
X90728000Y-128508804D01*
X90728000Y-128508804D02*
X90775619Y-128461185D01*
X90775619Y-128461185D02*
X90870857Y-128413566D01*
X90870857Y-128413566D02*
X91013714Y-128413566D01*
X91013714Y-128413566D02*
X91108952Y-128461185D01*
X91108952Y-128461185D02*
X91156571Y-128508804D01*
X91156571Y-128508804D02*
X91204190Y-128604042D01*
X91204190Y-128604042D02*
X91204190Y-128984994D01*
X91680380Y-127937375D02*
X91680380Y-127746899D01*
X91680380Y-127746899D02*
X91632761Y-127651661D01*
X91632761Y-127651661D02*
X91585142Y-127604042D01*
X91585142Y-127604042D02*
X91442285Y-127508804D01*
X91442285Y-127508804D02*
X91251809Y-127461185D01*
X91251809Y-127461185D02*
X90870857Y-127461185D01*
X90870857Y-127461185D02*
X90775619Y-127508804D01*
X90775619Y-127508804D02*
X90728000Y-127556423D01*
X90728000Y-127556423D02*
X90680380Y-127651661D01*
X90680380Y-127651661D02*
X90680380Y-127842137D01*
X90680380Y-127842137D02*
X90728000Y-127937375D01*
X90728000Y-127937375D02*
X90775619Y-127984994D01*
X90775619Y-127984994D02*
X90870857Y-128032613D01*
X90870857Y-128032613D02*
X91108952Y-128032613D01*
X91108952Y-128032613D02*
X91204190Y-127984994D01*
X91204190Y-127984994D02*
X91251809Y-127937375D01*
X91251809Y-127937375D02*
X91299428Y-127842137D01*
X91299428Y-127842137D02*
X91299428Y-127651661D01*
X91299428Y-127651661D02*
X91251809Y-127556423D01*
X91251809Y-127556423D02*
X91204190Y-127508804D01*
X91204190Y-127508804D02*
X91108952Y-127461185D01*
X106954180Y-129277057D02*
X106477990Y-129610390D01*
X106954180Y-129848485D02*
X105954180Y-129848485D01*
X105954180Y-129848485D02*
X105954180Y-129467533D01*
X105954180Y-129467533D02*
X106001800Y-129372295D01*
X106001800Y-129372295D02*
X106049419Y-129324676D01*
X106049419Y-129324676D02*
X106144657Y-129277057D01*
X106144657Y-129277057D02*
X106287514Y-129277057D01*
X106287514Y-129277057D02*
X106382752Y-129324676D01*
X106382752Y-129324676D02*
X106430371Y-129372295D01*
X106430371Y-129372295D02*
X106477990Y-129467533D01*
X106477990Y-129467533D02*
X106477990Y-129848485D01*
X106954180Y-128324676D02*
X106954180Y-128896104D01*
X106954180Y-128610390D02*
X105954180Y-128610390D01*
X105954180Y-128610390D02*
X106097038Y-128705628D01*
X106097038Y-128705628D02*
X106192276Y-128800866D01*
X106192276Y-128800866D02*
X106239895Y-128896104D01*
X105954180Y-127705628D02*
X105954180Y-127610390D01*
X105954180Y-127610390D02*
X106001800Y-127515152D01*
X106001800Y-127515152D02*
X106049419Y-127467533D01*
X106049419Y-127467533D02*
X106144657Y-127419914D01*
X106144657Y-127419914D02*
X106335133Y-127372295D01*
X106335133Y-127372295D02*
X106573228Y-127372295D01*
X106573228Y-127372295D02*
X106763704Y-127419914D01*
X106763704Y-127419914D02*
X106858942Y-127467533D01*
X106858942Y-127467533D02*
X106906561Y-127515152D01*
X106906561Y-127515152D02*
X106954180Y-127610390D01*
X106954180Y-127610390D02*
X106954180Y-127705628D01*
X106954180Y-127705628D02*
X106906561Y-127800866D01*
X106906561Y-127800866D02*
X106858942Y-127848485D01*
X106858942Y-127848485D02*
X106763704Y-127896104D01*
X106763704Y-127896104D02*
X106573228Y-127943723D01*
X106573228Y-127943723D02*
X106335133Y-127943723D01*
X106335133Y-127943723D02*
X106144657Y-127896104D01*
X106144657Y-127896104D02*
X106049419Y-127848485D01*
X106049419Y-127848485D02*
X106001800Y-127800866D01*
X106001800Y-127800866D02*
X105954180Y-127705628D01*
X117334380Y-125642666D02*
X116858190Y-125975999D01*
X117334380Y-126214094D02*
X116334380Y-126214094D01*
X116334380Y-126214094D02*
X116334380Y-125833142D01*
X116334380Y-125833142D02*
X116382000Y-125737904D01*
X116382000Y-125737904D02*
X116429619Y-125690285D01*
X116429619Y-125690285D02*
X116524857Y-125642666D01*
X116524857Y-125642666D02*
X116667714Y-125642666D01*
X116667714Y-125642666D02*
X116762952Y-125690285D01*
X116762952Y-125690285D02*
X116810571Y-125737904D01*
X116810571Y-125737904D02*
X116858190Y-125833142D01*
X116858190Y-125833142D02*
X116858190Y-126214094D01*
X116667714Y-124785523D02*
X117334380Y-124785523D01*
X116286761Y-125023618D02*
X117001047Y-125261713D01*
X117001047Y-125261713D02*
X117001047Y-124642666D01*
X89474595Y-122442761D02*
X90774595Y-122133237D01*
X90774595Y-122133237D02*
X89846023Y-121885618D01*
X89846023Y-121885618D02*
X90774595Y-121637999D01*
X90774595Y-121637999D02*
X89474595Y-121328476D01*
X90774595Y-120833238D02*
X89474595Y-120833238D01*
X90093642Y-119780856D02*
X90093642Y-120214190D01*
X90774595Y-120214190D02*
X89474595Y-120214190D01*
X89474595Y-120214190D02*
X89474595Y-119595142D01*
X90774595Y-119099904D02*
X89474595Y-119099904D01*
X90712690Y-117762760D02*
X90774595Y-117638951D01*
X90774595Y-117638951D02*
X90774595Y-117391332D01*
X90774595Y-117391332D02*
X90712690Y-117267522D01*
X90712690Y-117267522D02*
X90588880Y-117205618D01*
X90588880Y-117205618D02*
X90526976Y-117205618D01*
X90526976Y-117205618D02*
X90403166Y-117267522D01*
X90403166Y-117267522D02*
X90341261Y-117391332D01*
X90341261Y-117391332D02*
X90341261Y-117577046D01*
X90341261Y-117577046D02*
X90279357Y-117700856D01*
X90279357Y-117700856D02*
X90155547Y-117762760D01*
X90155547Y-117762760D02*
X90093642Y-117762760D01*
X90093642Y-117762760D02*
X89969833Y-117700856D01*
X89969833Y-117700856D02*
X89907928Y-117577046D01*
X89907928Y-117577046D02*
X89907928Y-117391332D01*
X89907928Y-117391332D02*
X89969833Y-117267522D01*
X89907928Y-116834189D02*
X89907928Y-116338951D01*
X89474595Y-116648475D02*
X90588880Y-116648475D01*
X90588880Y-116648475D02*
X90712690Y-116586570D01*
X90712690Y-116586570D02*
X90774595Y-116462760D01*
X90774595Y-116462760D02*
X90774595Y-116338951D01*
X90774595Y-115348475D02*
X90093642Y-115348475D01*
X90093642Y-115348475D02*
X89969833Y-115410380D01*
X89969833Y-115410380D02*
X89907928Y-115534189D01*
X89907928Y-115534189D02*
X89907928Y-115781808D01*
X89907928Y-115781808D02*
X89969833Y-115905618D01*
X90712690Y-115348475D02*
X90774595Y-115472284D01*
X90774595Y-115472284D02*
X90774595Y-115781808D01*
X90774595Y-115781808D02*
X90712690Y-115905618D01*
X90712690Y-115905618D02*
X90588880Y-115967522D01*
X90588880Y-115967522D02*
X90465071Y-115967522D01*
X90465071Y-115967522D02*
X90341261Y-115905618D01*
X90341261Y-115905618D02*
X90279357Y-115781808D01*
X90279357Y-115781808D02*
X90279357Y-115472284D01*
X90279357Y-115472284D02*
X90217452Y-115348475D01*
X89907928Y-114915142D02*
X89907928Y-114419904D01*
X89474595Y-114729428D02*
X90588880Y-114729428D01*
X90588880Y-114729428D02*
X90712690Y-114667523D01*
X90712690Y-114667523D02*
X90774595Y-114543713D01*
X90774595Y-114543713D02*
X90774595Y-114419904D01*
X89907928Y-113429428D02*
X90774595Y-113429428D01*
X89907928Y-113986571D02*
X90588880Y-113986571D01*
X90588880Y-113986571D02*
X90712690Y-113924666D01*
X90712690Y-113924666D02*
X90774595Y-113800856D01*
X90774595Y-113800856D02*
X90774595Y-113615142D01*
X90774595Y-113615142D02*
X90712690Y-113491333D01*
X90712690Y-113491333D02*
X90650785Y-113429428D01*
X90712690Y-112872285D02*
X90774595Y-112748476D01*
X90774595Y-112748476D02*
X90774595Y-112500857D01*
X90774595Y-112500857D02*
X90712690Y-112377047D01*
X90712690Y-112377047D02*
X90588880Y-112315143D01*
X90588880Y-112315143D02*
X90526976Y-112315143D01*
X90526976Y-112315143D02*
X90403166Y-112377047D01*
X90403166Y-112377047D02*
X90341261Y-112500857D01*
X90341261Y-112500857D02*
X90341261Y-112686571D01*
X90341261Y-112686571D02*
X90279357Y-112810381D01*
X90279357Y-112810381D02*
X90155547Y-112872285D01*
X90155547Y-112872285D02*
X90093642Y-112872285D01*
X90093642Y-112872285D02*
X89969833Y-112810381D01*
X89969833Y-112810381D02*
X89907928Y-112686571D01*
X89907928Y-112686571D02*
X89907928Y-112500857D01*
X89907928Y-112500857D02*
X89969833Y-112377047D01*
X95999380Y-108247433D02*
X96713666Y-108247433D01*
X96713666Y-108247433D02*
X96856523Y-108295052D01*
X96856523Y-108295052D02*
X96951761Y-108390290D01*
X96951761Y-108390290D02*
X96999380Y-108533147D01*
X96999380Y-108533147D02*
X96999380Y-108628385D01*
X96332714Y-107342671D02*
X96999380Y-107342671D01*
X95951761Y-107580766D02*
X96666047Y-107818861D01*
X96666047Y-107818861D02*
X96666047Y-107199814D01*
X114624762Y-114096642D02*
X114191428Y-114096642D01*
X114191428Y-114777595D02*
X114191428Y-113477595D01*
X114191428Y-113477595D02*
X114810476Y-113477595D01*
X115862857Y-114777595D02*
X115862857Y-114096642D01*
X115862857Y-114096642D02*
X115800952Y-113972833D01*
X115800952Y-113972833D02*
X115677143Y-113910928D01*
X115677143Y-113910928D02*
X115429524Y-113910928D01*
X115429524Y-113910928D02*
X115305714Y-113972833D01*
X115862857Y-114715690D02*
X115739048Y-114777595D01*
X115739048Y-114777595D02*
X115429524Y-114777595D01*
X115429524Y-114777595D02*
X115305714Y-114715690D01*
X115305714Y-114715690D02*
X115243810Y-114591880D01*
X115243810Y-114591880D02*
X115243810Y-114468071D01*
X115243810Y-114468071D02*
X115305714Y-114344261D01*
X115305714Y-114344261D02*
X115429524Y-114282357D01*
X115429524Y-114282357D02*
X115739048Y-114282357D01*
X115739048Y-114282357D02*
X115862857Y-114220452D01*
X116481904Y-114777595D02*
X116481904Y-113910928D01*
X116481904Y-113477595D02*
X116420000Y-113539500D01*
X116420000Y-113539500D02*
X116481904Y-113601404D01*
X116481904Y-113601404D02*
X116543809Y-113539500D01*
X116543809Y-113539500D02*
X116481904Y-113477595D01*
X116481904Y-113477595D02*
X116481904Y-113601404D01*
X117286667Y-114777595D02*
X117162857Y-114715690D01*
X117162857Y-114715690D02*
X117100952Y-114591880D01*
X117100952Y-114591880D02*
X117100952Y-113477595D01*
X118500000Y-114715690D02*
X118623809Y-114777595D01*
X118623809Y-114777595D02*
X118871428Y-114777595D01*
X118871428Y-114777595D02*
X118995238Y-114715690D01*
X118995238Y-114715690D02*
X119057142Y-114591880D01*
X119057142Y-114591880D02*
X119057142Y-114529976D01*
X119057142Y-114529976D02*
X118995238Y-114406166D01*
X118995238Y-114406166D02*
X118871428Y-114344261D01*
X118871428Y-114344261D02*
X118685714Y-114344261D01*
X118685714Y-114344261D02*
X118561904Y-114282357D01*
X118561904Y-114282357D02*
X118500000Y-114158547D01*
X118500000Y-114158547D02*
X118500000Y-114096642D01*
X118500000Y-114096642D02*
X118561904Y-113972833D01*
X118561904Y-113972833D02*
X118685714Y-113910928D01*
X118685714Y-113910928D02*
X118871428Y-113910928D01*
X118871428Y-113910928D02*
X118995238Y-113972833D01*
X120171428Y-114777595D02*
X120171428Y-114096642D01*
X120171428Y-114096642D02*
X120109523Y-113972833D01*
X120109523Y-113972833D02*
X119985714Y-113910928D01*
X119985714Y-113910928D02*
X119738095Y-113910928D01*
X119738095Y-113910928D02*
X119614285Y-113972833D01*
X120171428Y-114715690D02*
X120047619Y-114777595D01*
X120047619Y-114777595D02*
X119738095Y-114777595D01*
X119738095Y-114777595D02*
X119614285Y-114715690D01*
X119614285Y-114715690D02*
X119552381Y-114591880D01*
X119552381Y-114591880D02*
X119552381Y-114468071D01*
X119552381Y-114468071D02*
X119614285Y-114344261D01*
X119614285Y-114344261D02*
X119738095Y-114282357D01*
X119738095Y-114282357D02*
X120047619Y-114282357D01*
X120047619Y-114282357D02*
X120171428Y-114220452D01*
X120604761Y-113910928D02*
X121099999Y-113910928D01*
X120790475Y-114777595D02*
X120790475Y-113663309D01*
X120790475Y-113663309D02*
X120852380Y-113539500D01*
X120852380Y-113539500D02*
X120976190Y-113477595D01*
X120976190Y-113477595D02*
X121099999Y-113477595D01*
X122028570Y-114715690D02*
X121904761Y-114777595D01*
X121904761Y-114777595D02*
X121657142Y-114777595D01*
X121657142Y-114777595D02*
X121533332Y-114715690D01*
X121533332Y-114715690D02*
X121471428Y-114591880D01*
X121471428Y-114591880D02*
X121471428Y-114096642D01*
X121471428Y-114096642D02*
X121533332Y-113972833D01*
X121533332Y-113972833D02*
X121657142Y-113910928D01*
X121657142Y-113910928D02*
X121904761Y-113910928D01*
X121904761Y-113910928D02*
X122028570Y-113972833D01*
X122028570Y-113972833D02*
X122090475Y-114096642D01*
X122090475Y-114096642D02*
X122090475Y-114220452D01*
X122090475Y-114220452D02*
X121471428Y-114344261D01*
X113227333Y-136386642D02*
X113179714Y-136434261D01*
X113179714Y-136434261D02*
X113036857Y-136481880D01*
X113036857Y-136481880D02*
X112941619Y-136481880D01*
X112941619Y-136481880D02*
X112798762Y-136434261D01*
X112798762Y-136434261D02*
X112703524Y-136339023D01*
X112703524Y-136339023D02*
X112655905Y-136243785D01*
X112655905Y-136243785D02*
X112608286Y-136053309D01*
X112608286Y-136053309D02*
X112608286Y-135910452D01*
X112608286Y-135910452D02*
X112655905Y-135719976D01*
X112655905Y-135719976D02*
X112703524Y-135624738D01*
X112703524Y-135624738D02*
X112798762Y-135529500D01*
X112798762Y-135529500D02*
X112941619Y-135481880D01*
X112941619Y-135481880D02*
X113036857Y-135481880D01*
X113036857Y-135481880D02*
X113179714Y-135529500D01*
X113179714Y-135529500D02*
X113227333Y-135577119D01*
X114084476Y-135481880D02*
X113894000Y-135481880D01*
X113894000Y-135481880D02*
X113798762Y-135529500D01*
X113798762Y-135529500D02*
X113751143Y-135577119D01*
X113751143Y-135577119D02*
X113655905Y-135719976D01*
X113655905Y-135719976D02*
X113608286Y-135910452D01*
X113608286Y-135910452D02*
X113608286Y-136291404D01*
X113608286Y-136291404D02*
X113655905Y-136386642D01*
X113655905Y-136386642D02*
X113703524Y-136434261D01*
X113703524Y-136434261D02*
X113798762Y-136481880D01*
X113798762Y-136481880D02*
X113989238Y-136481880D01*
X113989238Y-136481880D02*
X114084476Y-136434261D01*
X114084476Y-136434261D02*
X114132095Y-136386642D01*
X114132095Y-136386642D02*
X114179714Y-136291404D01*
X114179714Y-136291404D02*
X114179714Y-136053309D01*
X114179714Y-136053309D02*
X114132095Y-135958071D01*
X114132095Y-135958071D02*
X114084476Y-135910452D01*
X114084476Y-135910452D02*
X113989238Y-135862833D01*
X113989238Y-135862833D02*
X113798762Y-135862833D01*
X113798762Y-135862833D02*
X113703524Y-135910452D01*
X113703524Y-135910452D02*
X113655905Y-135958071D01*
X113655905Y-135958071D02*
X113608286Y-136053309D01*
X124795619Y-123793238D02*
X124748000Y-123888476D01*
X124748000Y-123888476D02*
X124652761Y-123983714D01*
X124652761Y-123983714D02*
X124509904Y-124126571D01*
X124509904Y-124126571D02*
X124462285Y-124221809D01*
X124462285Y-124221809D02*
X124462285Y-124317047D01*
X124700380Y-124269428D02*
X124652761Y-124364666D01*
X124652761Y-124364666D02*
X124557523Y-124459904D01*
X124557523Y-124459904D02*
X124367047Y-124507523D01*
X124367047Y-124507523D02*
X124033714Y-124507523D01*
X124033714Y-124507523D02*
X123843238Y-124459904D01*
X123843238Y-124459904D02*
X123748000Y-124364666D01*
X123748000Y-124364666D02*
X123700380Y-124269428D01*
X123700380Y-124269428D02*
X123700380Y-124078952D01*
X123700380Y-124078952D02*
X123748000Y-123983714D01*
X123748000Y-123983714D02*
X123843238Y-123888476D01*
X123843238Y-123888476D02*
X124033714Y-123840857D01*
X124033714Y-123840857D02*
X124367047Y-123840857D01*
X124367047Y-123840857D02*
X124557523Y-123888476D01*
X124557523Y-123888476D02*
X124652761Y-123983714D01*
X124652761Y-123983714D02*
X124700380Y-124078952D01*
X124700380Y-124078952D02*
X124700380Y-124269428D01*
X124700380Y-122888476D02*
X124700380Y-123459904D01*
X124700380Y-123174190D02*
X123700380Y-123174190D01*
X123700380Y-123174190D02*
X123843238Y-123269428D01*
X123843238Y-123269428D02*
X123938476Y-123364666D01*
X123938476Y-123364666D02*
X123986095Y-123459904D01*
X121525380Y-117768666D02*
X121049190Y-118101999D01*
X121525380Y-118340094D02*
X120525380Y-118340094D01*
X120525380Y-118340094D02*
X120525380Y-117959142D01*
X120525380Y-117959142D02*
X120573000Y-117863904D01*
X120573000Y-117863904D02*
X120620619Y-117816285D01*
X120620619Y-117816285D02*
X120715857Y-117768666D01*
X120715857Y-117768666D02*
X120858714Y-117768666D01*
X120858714Y-117768666D02*
X120953952Y-117816285D01*
X120953952Y-117816285D02*
X121001571Y-117863904D01*
X121001571Y-117863904D02*
X121049190Y-117959142D01*
X121049190Y-117959142D02*
X121049190Y-118340094D01*
X121525380Y-116816285D02*
X121525380Y-117387713D01*
X121525380Y-117101999D02*
X120525380Y-117101999D01*
X120525380Y-117101999D02*
X120668238Y-117197237D01*
X120668238Y-117197237D02*
X120763476Y-117292475D01*
X120763476Y-117292475D02*
X120811095Y-117387713D01*
X121398380Y-125642666D02*
X120922190Y-125975999D01*
X121398380Y-126214094D02*
X120398380Y-126214094D01*
X120398380Y-126214094D02*
X120398380Y-125833142D01*
X120398380Y-125833142D02*
X120446000Y-125737904D01*
X120446000Y-125737904D02*
X120493619Y-125690285D01*
X120493619Y-125690285D02*
X120588857Y-125642666D01*
X120588857Y-125642666D02*
X120731714Y-125642666D01*
X120731714Y-125642666D02*
X120826952Y-125690285D01*
X120826952Y-125690285D02*
X120874571Y-125737904D01*
X120874571Y-125737904D02*
X120922190Y-125833142D01*
X120922190Y-125833142D02*
X120922190Y-126214094D01*
X120398380Y-125309332D02*
X120398380Y-124690285D01*
X120398380Y-124690285D02*
X120779333Y-125023618D01*
X120779333Y-125023618D02*
X120779333Y-124880761D01*
X120779333Y-124880761D02*
X120826952Y-124785523D01*
X120826952Y-124785523D02*
X120874571Y-124737904D01*
X120874571Y-124737904D02*
X120969809Y-124690285D01*
X120969809Y-124690285D02*
X121207904Y-124690285D01*
X121207904Y-124690285D02*
X121303142Y-124737904D01*
X121303142Y-124737904D02*
X121350761Y-124785523D01*
X121350761Y-124785523D02*
X121398380Y-124880761D01*
X121398380Y-124880761D02*
X121398380Y-125166475D01*
X121398380Y-125166475D02*
X121350761Y-125261713D01*
X121350761Y-125261713D02*
X121303142Y-125309332D01*
X96411142Y-128436666D02*
X96458761Y-128484285D01*
X96458761Y-128484285D02*
X96506380Y-128627142D01*
X96506380Y-128627142D02*
X96506380Y-128722380D01*
X96506380Y-128722380D02*
X96458761Y-128865237D01*
X96458761Y-128865237D02*
X96363523Y-128960475D01*
X96363523Y-128960475D02*
X96268285Y-129008094D01*
X96268285Y-129008094D02*
X96077809Y-129055713D01*
X96077809Y-129055713D02*
X95934952Y-129055713D01*
X95934952Y-129055713D02*
X95744476Y-129008094D01*
X95744476Y-129008094D02*
X95649238Y-128960475D01*
X95649238Y-128960475D02*
X95554000Y-128865237D01*
X95554000Y-128865237D02*
X95506380Y-128722380D01*
X95506380Y-128722380D02*
X95506380Y-128627142D01*
X95506380Y-128627142D02*
X95554000Y-128484285D01*
X95554000Y-128484285D02*
X95601619Y-128436666D01*
X95601619Y-128055713D02*
X95554000Y-128008094D01*
X95554000Y-128008094D02*
X95506380Y-127912856D01*
X95506380Y-127912856D02*
X95506380Y-127674761D01*
X95506380Y-127674761D02*
X95554000Y-127579523D01*
X95554000Y-127579523D02*
X95601619Y-127531904D01*
X95601619Y-127531904D02*
X95696857Y-127484285D01*
X95696857Y-127484285D02*
X95792095Y-127484285D01*
X95792095Y-127484285D02*
X95934952Y-127531904D01*
X95934952Y-127531904D02*
X96506380Y-128103332D01*
X96506380Y-128103332D02*
X96506380Y-127484285D01*
X98919380Y-128436666D02*
X98443190Y-128769999D01*
X98919380Y-129008094D02*
X97919380Y-129008094D01*
X97919380Y-129008094D02*
X97919380Y-128627142D01*
X97919380Y-128627142D02*
X97967000Y-128531904D01*
X97967000Y-128531904D02*
X98014619Y-128484285D01*
X98014619Y-128484285D02*
X98109857Y-128436666D01*
X98109857Y-128436666D02*
X98252714Y-128436666D01*
X98252714Y-128436666D02*
X98347952Y-128484285D01*
X98347952Y-128484285D02*
X98395571Y-128531904D01*
X98395571Y-128531904D02*
X98443190Y-128627142D01*
X98443190Y-128627142D02*
X98443190Y-129008094D01*
X97919380Y-128103332D02*
X97919380Y-127436666D01*
X97919380Y-127436666D02*
X98919380Y-127865237D01*
X108141642Y-148917666D02*
X108189261Y-148965285D01*
X108189261Y-148965285D02*
X108236880Y-149108142D01*
X108236880Y-149108142D02*
X108236880Y-149203380D01*
X108236880Y-149203380D02*
X108189261Y-149346237D01*
X108189261Y-149346237D02*
X108094023Y-149441475D01*
X108094023Y-149441475D02*
X107998785Y-149489094D01*
X107998785Y-149489094D02*
X107808309Y-149536713D01*
X107808309Y-149536713D02*
X107665452Y-149536713D01*
X107665452Y-149536713D02*
X107474976Y-149489094D01*
X107474976Y-149489094D02*
X107379738Y-149441475D01*
X107379738Y-149441475D02*
X107284500Y-149346237D01*
X107284500Y-149346237D02*
X107236880Y-149203380D01*
X107236880Y-149203380D02*
X107236880Y-149108142D01*
X107236880Y-149108142D02*
X107284500Y-148965285D01*
X107284500Y-148965285D02*
X107332119Y-148917666D01*
X107236880Y-148012904D02*
X107236880Y-148489094D01*
X107236880Y-148489094D02*
X107713071Y-148536713D01*
X107713071Y-148536713D02*
X107665452Y-148489094D01*
X107665452Y-148489094D02*
X107617833Y-148393856D01*
X107617833Y-148393856D02*
X107617833Y-148155761D01*
X107617833Y-148155761D02*
X107665452Y-148060523D01*
X107665452Y-148060523D02*
X107713071Y-148012904D01*
X107713071Y-148012904D02*
X107808309Y-147965285D01*
X107808309Y-147965285D02*
X108046404Y-147965285D01*
X108046404Y-147965285D02*
X108141642Y-148012904D01*
X108141642Y-148012904D02*
X108189261Y-148060523D01*
X108189261Y-148060523D02*
X108236880Y-148155761D01*
X108236880Y-148155761D02*
X108236880Y-148393856D01*
X108236880Y-148393856D02*
X108189261Y-148489094D01*
X108189261Y-148489094D02*
X108141642Y-148536713D01*
X108522642Y-139837166D02*
X108570261Y-139884785D01*
X108570261Y-139884785D02*
X108617880Y-140027642D01*
X108617880Y-140027642D02*
X108617880Y-140122880D01*
X108617880Y-140122880D02*
X108570261Y-140265737D01*
X108570261Y-140265737D02*
X108475023Y-140360975D01*
X108475023Y-140360975D02*
X108379785Y-140408594D01*
X108379785Y-140408594D02*
X108189309Y-140456213D01*
X108189309Y-140456213D02*
X108046452Y-140456213D01*
X108046452Y-140456213D02*
X107855976Y-140408594D01*
X107855976Y-140408594D02*
X107760738Y-140360975D01*
X107760738Y-140360975D02*
X107665500Y-140265737D01*
X107665500Y-140265737D02*
X107617880Y-140122880D01*
X107617880Y-140122880D02*
X107617880Y-140027642D01*
X107617880Y-140027642D02*
X107665500Y-139884785D01*
X107665500Y-139884785D02*
X107713119Y-139837166D01*
X107617880Y-139503832D02*
X107617880Y-138884785D01*
X107617880Y-138884785D02*
X107998833Y-139218118D01*
X107998833Y-139218118D02*
X107998833Y-139075261D01*
X107998833Y-139075261D02*
X108046452Y-138980023D01*
X108046452Y-138980023D02*
X108094071Y-138932404D01*
X108094071Y-138932404D02*
X108189309Y-138884785D01*
X108189309Y-138884785D02*
X108427404Y-138884785D01*
X108427404Y-138884785D02*
X108522642Y-138932404D01*
X108522642Y-138932404D02*
X108570261Y-138980023D01*
X108570261Y-138980023D02*
X108617880Y-139075261D01*
X108617880Y-139075261D02*
X108617880Y-139360975D01*
X108617880Y-139360975D02*
X108570261Y-139456213D01*
X108570261Y-139456213D02*
X108522642Y-139503832D01*
X107411380Y-146822094D02*
X106411380Y-146822094D01*
X106411380Y-146822094D02*
X106411380Y-146583999D01*
X106411380Y-146583999D02*
X106459000Y-146441142D01*
X106459000Y-146441142D02*
X106554238Y-146345904D01*
X106554238Y-146345904D02*
X106649476Y-146298285D01*
X106649476Y-146298285D02*
X106839952Y-146250666D01*
X106839952Y-146250666D02*
X106982809Y-146250666D01*
X106982809Y-146250666D02*
X107173285Y-146298285D01*
X107173285Y-146298285D02*
X107268523Y-146345904D01*
X107268523Y-146345904D02*
X107363761Y-146441142D01*
X107363761Y-146441142D02*
X107411380Y-146583999D01*
X107411380Y-146583999D02*
X107411380Y-146822094D01*
X106506619Y-145869713D02*
X106459000Y-145822094D01*
X106459000Y-145822094D02*
X106411380Y-145726856D01*
X106411380Y-145726856D02*
X106411380Y-145488761D01*
X106411380Y-145488761D02*
X106459000Y-145393523D01*
X106459000Y-145393523D02*
X106506619Y-145345904D01*
X106506619Y-145345904D02*
X106601857Y-145298285D01*
X106601857Y-145298285D02*
X106697095Y-145298285D01*
X106697095Y-145298285D02*
X106839952Y-145345904D01*
X106839952Y-145345904D02*
X107411380Y-145917332D01*
X107411380Y-145917332D02*
X107411380Y-145298285D01*
X111475380Y-139932357D02*
X110999190Y-140265690D01*
X111475380Y-140503785D02*
X110475380Y-140503785D01*
X110475380Y-140503785D02*
X110475380Y-140122833D01*
X110475380Y-140122833D02*
X110523000Y-140027595D01*
X110523000Y-140027595D02*
X110570619Y-139979976D01*
X110570619Y-139979976D02*
X110665857Y-139932357D01*
X110665857Y-139932357D02*
X110808714Y-139932357D01*
X110808714Y-139932357D02*
X110903952Y-139979976D01*
X110903952Y-139979976D02*
X110951571Y-140027595D01*
X110951571Y-140027595D02*
X110999190Y-140122833D01*
X110999190Y-140122833D02*
X110999190Y-140503785D01*
X111475380Y-138979976D02*
X111475380Y-139551404D01*
X111475380Y-139265690D02*
X110475380Y-139265690D01*
X110475380Y-139265690D02*
X110618238Y-139360928D01*
X110618238Y-139360928D02*
X110713476Y-139456166D01*
X110713476Y-139456166D02*
X110761095Y-139551404D01*
X111475380Y-138027595D02*
X111475380Y-138599023D01*
X111475380Y-138313309D02*
X110475380Y-138313309D01*
X110475380Y-138313309D02*
X110618238Y-138408547D01*
X110618238Y-138408547D02*
X110713476Y-138503785D01*
X110713476Y-138503785D02*
X110761095Y-138599023D01*
X94093380Y-128413566D02*
X93617190Y-128746899D01*
X94093380Y-128984994D02*
X93093380Y-128984994D01*
X93093380Y-128984994D02*
X93093380Y-128604042D01*
X93093380Y-128604042D02*
X93141000Y-128508804D01*
X93141000Y-128508804D02*
X93188619Y-128461185D01*
X93188619Y-128461185D02*
X93283857Y-128413566D01*
X93283857Y-128413566D02*
X93426714Y-128413566D01*
X93426714Y-128413566D02*
X93521952Y-128461185D01*
X93521952Y-128461185D02*
X93569571Y-128508804D01*
X93569571Y-128508804D02*
X93617190Y-128604042D01*
X93617190Y-128604042D02*
X93617190Y-128984994D01*
X93521952Y-127842137D02*
X93474333Y-127937375D01*
X93474333Y-127937375D02*
X93426714Y-127984994D01*
X93426714Y-127984994D02*
X93331476Y-128032613D01*
X93331476Y-128032613D02*
X93283857Y-128032613D01*
X93283857Y-128032613D02*
X93188619Y-127984994D01*
X93188619Y-127984994D02*
X93141000Y-127937375D01*
X93141000Y-127937375D02*
X93093380Y-127842137D01*
X93093380Y-127842137D02*
X93093380Y-127651661D01*
X93093380Y-127651661D02*
X93141000Y-127556423D01*
X93141000Y-127556423D02*
X93188619Y-127508804D01*
X93188619Y-127508804D02*
X93283857Y-127461185D01*
X93283857Y-127461185D02*
X93331476Y-127461185D01*
X93331476Y-127461185D02*
X93426714Y-127508804D01*
X93426714Y-127508804D02*
X93474333Y-127556423D01*
X93474333Y-127556423D02*
X93521952Y-127651661D01*
X93521952Y-127651661D02*
X93521952Y-127842137D01*
X93521952Y-127842137D02*
X93569571Y-127937375D01*
X93569571Y-127937375D02*
X93617190Y-127984994D01*
X93617190Y-127984994D02*
X93712428Y-128032613D01*
X93712428Y-128032613D02*
X93902904Y-128032613D01*
X93902904Y-128032613D02*
X93998142Y-127984994D01*
X93998142Y-127984994D02*
X94045761Y-127937375D01*
X94045761Y-127937375D02*
X94093380Y-127842137D01*
X94093380Y-127842137D02*
X94093380Y-127651661D01*
X94093380Y-127651661D02*
X94045761Y-127556423D01*
X94045761Y-127556423D02*
X93998142Y-127508804D01*
X93998142Y-127508804D02*
X93902904Y-127461185D01*
X93902904Y-127461185D02*
X93712428Y-127461185D01*
X93712428Y-127461185D02*
X93617190Y-127508804D01*
X93617190Y-127508804D02*
X93569571Y-127556423D01*
X93569571Y-127556423D02*
X93521952Y-127651661D01*
X103829380Y-128470666D02*
X103353190Y-128803999D01*
X103829380Y-129042094D02*
X102829380Y-129042094D01*
X102829380Y-129042094D02*
X102829380Y-128661142D01*
X102829380Y-128661142D02*
X102877000Y-128565904D01*
X102877000Y-128565904D02*
X102924619Y-128518285D01*
X102924619Y-128518285D02*
X103019857Y-128470666D01*
X103019857Y-128470666D02*
X103162714Y-128470666D01*
X103162714Y-128470666D02*
X103257952Y-128518285D01*
X103257952Y-128518285D02*
X103305571Y-128565904D01*
X103305571Y-128565904D02*
X103353190Y-128661142D01*
X103353190Y-128661142D02*
X103353190Y-129042094D01*
X102829380Y-127565904D02*
X102829380Y-128042094D01*
X102829380Y-128042094D02*
X103305571Y-128089713D01*
X103305571Y-128089713D02*
X103257952Y-128042094D01*
X103257952Y-128042094D02*
X103210333Y-127946856D01*
X103210333Y-127946856D02*
X103210333Y-127708761D01*
X103210333Y-127708761D02*
X103257952Y-127613523D01*
X103257952Y-127613523D02*
X103305571Y-127565904D01*
X103305571Y-127565904D02*
X103400809Y-127518285D01*
X103400809Y-127518285D02*
X103638904Y-127518285D01*
X103638904Y-127518285D02*
X103734142Y-127565904D01*
X103734142Y-127565904D02*
X103781761Y-127613523D01*
X103781761Y-127613523D02*
X103829380Y-127708761D01*
X103829380Y-127708761D02*
X103829380Y-127946856D01*
X103829380Y-127946856D02*
X103781761Y-128042094D01*
X103781761Y-128042094D02*
X103734142Y-128089713D01*
X98648595Y-122257046D02*
X97781928Y-122257046D01*
X97348595Y-122257046D02*
X97410500Y-122318950D01*
X97410500Y-122318950D02*
X97472404Y-122257046D01*
X97472404Y-122257046D02*
X97410500Y-122195141D01*
X97410500Y-122195141D02*
X97348595Y-122257046D01*
X97348595Y-122257046D02*
X97472404Y-122257046D01*
X97781928Y-121823712D02*
X97781928Y-121328474D01*
X97348595Y-121637998D02*
X98462880Y-121637998D01*
X98462880Y-121637998D02*
X98586690Y-121576093D01*
X98586690Y-121576093D02*
X98648595Y-121452283D01*
X98648595Y-121452283D02*
X98648595Y-121328474D01*
X98648595Y-120895141D02*
X97348595Y-120895141D01*
X98648595Y-120337998D02*
X97967642Y-120337998D01*
X97967642Y-120337998D02*
X97843833Y-120399903D01*
X97843833Y-120399903D02*
X97781928Y-120523712D01*
X97781928Y-120523712D02*
X97781928Y-120709426D01*
X97781928Y-120709426D02*
X97843833Y-120833236D01*
X97843833Y-120833236D02*
X97905738Y-120895141D01*
X98648595Y-119533236D02*
X98586690Y-119657046D01*
X98586690Y-119657046D02*
X98524785Y-119718951D01*
X98524785Y-119718951D02*
X98400976Y-119780855D01*
X98400976Y-119780855D02*
X98029547Y-119780855D01*
X98029547Y-119780855D02*
X97905738Y-119718951D01*
X97905738Y-119718951D02*
X97843833Y-119657046D01*
X97843833Y-119657046D02*
X97781928Y-119533236D01*
X97781928Y-119533236D02*
X97781928Y-119347522D01*
X97781928Y-119347522D02*
X97843833Y-119223713D01*
X97843833Y-119223713D02*
X97905738Y-119161808D01*
X97905738Y-119161808D02*
X98029547Y-119099903D01*
X98029547Y-119099903D02*
X98400976Y-119099903D01*
X98400976Y-119099903D02*
X98524785Y-119161808D01*
X98524785Y-119161808D02*
X98586690Y-119223713D01*
X98586690Y-119223713D02*
X98648595Y-119347522D01*
X98648595Y-119347522D02*
X98648595Y-119533236D01*
X98586690Y-117824665D02*
X98648595Y-117700856D01*
X98648595Y-117700856D02*
X98648595Y-117453237D01*
X98648595Y-117453237D02*
X98586690Y-117329427D01*
X98586690Y-117329427D02*
X98462880Y-117267523D01*
X98462880Y-117267523D02*
X98400976Y-117267523D01*
X98400976Y-117267523D02*
X98277166Y-117329427D01*
X98277166Y-117329427D02*
X98215261Y-117453237D01*
X98215261Y-117453237D02*
X98215261Y-117638951D01*
X98215261Y-117638951D02*
X98153357Y-117762761D01*
X98153357Y-117762761D02*
X98029547Y-117824665D01*
X98029547Y-117824665D02*
X97967642Y-117824665D01*
X97967642Y-117824665D02*
X97843833Y-117762761D01*
X97843833Y-117762761D02*
X97781928Y-117638951D01*
X97781928Y-117638951D02*
X97781928Y-117453237D01*
X97781928Y-117453237D02*
X97843833Y-117329427D01*
X97781928Y-116896094D02*
X97781928Y-116400856D01*
X97348595Y-116710380D02*
X98462880Y-116710380D01*
X98462880Y-116710380D02*
X98586690Y-116648475D01*
X98586690Y-116648475D02*
X98648595Y-116524665D01*
X98648595Y-116524665D02*
X98648595Y-116400856D01*
X98648595Y-115410380D02*
X97967642Y-115410380D01*
X97967642Y-115410380D02*
X97843833Y-115472285D01*
X97843833Y-115472285D02*
X97781928Y-115596094D01*
X97781928Y-115596094D02*
X97781928Y-115843713D01*
X97781928Y-115843713D02*
X97843833Y-115967523D01*
X98586690Y-115410380D02*
X98648595Y-115534189D01*
X98648595Y-115534189D02*
X98648595Y-115843713D01*
X98648595Y-115843713D02*
X98586690Y-115967523D01*
X98586690Y-115967523D02*
X98462880Y-116029427D01*
X98462880Y-116029427D02*
X98339071Y-116029427D01*
X98339071Y-116029427D02*
X98215261Y-115967523D01*
X98215261Y-115967523D02*
X98153357Y-115843713D01*
X98153357Y-115843713D02*
X98153357Y-115534189D01*
X98153357Y-115534189D02*
X98091452Y-115410380D01*
X97781928Y-114977047D02*
X97781928Y-114481809D01*
X97348595Y-114791333D02*
X98462880Y-114791333D01*
X98462880Y-114791333D02*
X98586690Y-114729428D01*
X98586690Y-114729428D02*
X98648595Y-114605618D01*
X98648595Y-114605618D02*
X98648595Y-114481809D01*
X97781928Y-113491333D02*
X98648595Y-113491333D01*
X97781928Y-114048476D02*
X98462880Y-114048476D01*
X98462880Y-114048476D02*
X98586690Y-113986571D01*
X98586690Y-113986571D02*
X98648595Y-113862761D01*
X98648595Y-113862761D02*
X98648595Y-113677047D01*
X98648595Y-113677047D02*
X98586690Y-113553238D01*
X98586690Y-113553238D02*
X98524785Y-113491333D01*
X98586690Y-112934190D02*
X98648595Y-112810381D01*
X98648595Y-112810381D02*
X98648595Y-112562762D01*
X98648595Y-112562762D02*
X98586690Y-112438952D01*
X98586690Y-112438952D02*
X98462880Y-112377048D01*
X98462880Y-112377048D02*
X98400976Y-112377048D01*
X98400976Y-112377048D02*
X98277166Y-112438952D01*
X98277166Y-112438952D02*
X98215261Y-112562762D01*
X98215261Y-112562762D02*
X98215261Y-112748476D01*
X98215261Y-112748476D02*
X98153357Y-112872286D01*
X98153357Y-112872286D02*
X98029547Y-112934190D01*
X98029547Y-112934190D02*
X97967642Y-112934190D01*
X97967642Y-112934190D02*
X97843833Y-112872286D01*
X97843833Y-112872286D02*
X97781928Y-112748476D01*
X97781928Y-112748476D02*
X97781928Y-112562762D01*
X97781928Y-112562762D02*
X97843833Y-112438952D01*
X102784475Y-112618595D02*
X102351142Y-111999547D01*
X102041618Y-112618595D02*
X102041618Y-111318595D01*
X102041618Y-111318595D02*
X102536856Y-111318595D01*
X102536856Y-111318595D02*
X102660666Y-111380500D01*
X102660666Y-111380500D02*
X102722571Y-111442404D01*
X102722571Y-111442404D02*
X102784475Y-111566214D01*
X102784475Y-111566214D02*
X102784475Y-111751928D01*
X102784475Y-111751928D02*
X102722571Y-111875738D01*
X102722571Y-111875738D02*
X102660666Y-111937642D01*
X102660666Y-111937642D02*
X102536856Y-111999547D01*
X102536856Y-111999547D02*
X102041618Y-111999547D01*
X103836856Y-112556690D02*
X103713047Y-112618595D01*
X103713047Y-112618595D02*
X103465428Y-112618595D01*
X103465428Y-112618595D02*
X103341618Y-112556690D01*
X103341618Y-112556690D02*
X103279714Y-112432880D01*
X103279714Y-112432880D02*
X103279714Y-111937642D01*
X103279714Y-111937642D02*
X103341618Y-111813833D01*
X103341618Y-111813833D02*
X103465428Y-111751928D01*
X103465428Y-111751928D02*
X103713047Y-111751928D01*
X103713047Y-111751928D02*
X103836856Y-111813833D01*
X103836856Y-111813833D02*
X103898761Y-111937642D01*
X103898761Y-111937642D02*
X103898761Y-112061452D01*
X103898761Y-112061452D02*
X103279714Y-112185261D01*
X104394000Y-112556690D02*
X104517809Y-112618595D01*
X104517809Y-112618595D02*
X104765428Y-112618595D01*
X104765428Y-112618595D02*
X104889238Y-112556690D01*
X104889238Y-112556690D02*
X104951142Y-112432880D01*
X104951142Y-112432880D02*
X104951142Y-112370976D01*
X104951142Y-112370976D02*
X104889238Y-112247166D01*
X104889238Y-112247166D02*
X104765428Y-112185261D01*
X104765428Y-112185261D02*
X104579714Y-112185261D01*
X104579714Y-112185261D02*
X104455904Y-112123357D01*
X104455904Y-112123357D02*
X104394000Y-111999547D01*
X104394000Y-111999547D02*
X104394000Y-111937642D01*
X104394000Y-111937642D02*
X104455904Y-111813833D01*
X104455904Y-111813833D02*
X104579714Y-111751928D01*
X104579714Y-111751928D02*
X104765428Y-111751928D01*
X104765428Y-111751928D02*
X104889238Y-111813833D01*
X106003523Y-112556690D02*
X105879714Y-112618595D01*
X105879714Y-112618595D02*
X105632095Y-112618595D01*
X105632095Y-112618595D02*
X105508285Y-112556690D01*
X105508285Y-112556690D02*
X105446381Y-112432880D01*
X105446381Y-112432880D02*
X105446381Y-111937642D01*
X105446381Y-111937642D02*
X105508285Y-111813833D01*
X105508285Y-111813833D02*
X105632095Y-111751928D01*
X105632095Y-111751928D02*
X105879714Y-111751928D01*
X105879714Y-111751928D02*
X106003523Y-111813833D01*
X106003523Y-111813833D02*
X106065428Y-111937642D01*
X106065428Y-111937642D02*
X106065428Y-112061452D01*
X106065428Y-112061452D02*
X105446381Y-112185261D01*
X106436857Y-111751928D02*
X106932095Y-111751928D01*
X106622571Y-111318595D02*
X106622571Y-112432880D01*
X106622571Y-112432880D02*
X106684476Y-112556690D01*
X106684476Y-112556690D02*
X106808286Y-112618595D01*
X106808286Y-112618595D02*
X106932095Y-112618595D01*
D14*
X109372000Y-125580500D02*
X109372000Y-133640500D01*
X113892000Y-133640500D02*
X113892000Y-125580500D01*
X109372000Y-133640500D02*
X113892000Y-133640500D01*
X124630600Y-149511200D02*
X124630600Y-140891200D01*
X124870600Y-141891200D02*
X124870600Y-140651200D01*
X124630600Y-140891200D02*
X112909600Y-140891200D01*
X124870600Y-140651200D02*
X123630600Y-140651200D01*
X112909600Y-149511200D02*
X112909600Y-140891200D01*
X124630600Y-149511200D02*
X112909600Y-149511200D01*
X120268600Y-120039000D02*
X120268600Y-122614000D01*
X117048600Y-120464000D02*
X117048600Y-122614000D01*
X120268600Y-122614000D02*
X119358600Y-122614000D01*
X117958600Y-122614000D02*
X117048600Y-122614000D01*
X118137000Y-117397336D02*
X118137000Y-117851464D01*
X119607000Y-117397336D02*
X119607000Y-117851464D01*
X87055000Y-109067600D02*
X87055000Y-124367600D01*
X84395000Y-109067600D02*
X84395000Y-124367600D01*
X84395000Y-109067600D02*
X87055000Y-109067600D01*
X84395000Y-124367600D02*
X87055000Y-124367600D01*
X84395000Y-106467600D02*
X85725000Y-106467600D01*
X84395000Y-107797600D02*
X84395000Y-106467600D01*
X104977600Y-156103600D02*
X104977600Y-149353600D01*
X87727600Y-130603600D02*
X89477600Y-130603600D01*
X104977600Y-130603600D02*
X104227600Y-130603600D01*
X104977600Y-131353600D02*
X104977600Y-130603600D01*
X104227600Y-130603600D02*
X102477600Y-130603600D01*
X86977600Y-130603600D02*
X87727600Y-130603600D01*
X86977600Y-156103600D02*
X86977600Y-149353600D01*
X104977600Y-156103600D02*
X86977600Y-156103600D01*
X86977600Y-150163600D02*
X104977600Y-150163600D01*
X86977600Y-131353600D02*
X86977600Y-130603600D01*
X90578000Y-125274336D02*
X90578000Y-125728464D01*
X92048000Y-125274336D02*
X92048000Y-125728464D01*
X107271000Y-125282936D02*
X107271000Y-125737064D01*
X105801000Y-125282936D02*
X105801000Y-125737064D01*
X119353000Y-125233936D02*
X119353000Y-125688064D01*
X117883000Y-125233936D02*
X117883000Y-125688064D01*
X87940000Y-124501400D02*
X87940000Y-127186400D01*
X89860000Y-127186400D02*
X89860000Y-124501400D01*
X87940000Y-127186400D02*
X89860000Y-127186400D01*
X109962000Y-153198000D02*
X112562000Y-153198000D01*
X109962000Y-153198000D02*
X109962000Y-155798000D01*
X109962000Y-151928000D02*
X109962000Y-150598000D01*
X109962000Y-150598000D02*
X111292000Y-150598000D01*
X112562000Y-153198000D02*
X112562000Y-150598000D01*
X112562000Y-150598000D02*
X115162000Y-150598000D01*
X109962000Y-155798000D02*
X115162000Y-155798000D01*
X115162000Y-150598000D02*
X115162000Y-155798000D01*
D12*
X88480000Y-108917400D02*
X89496000Y-109933400D01*
X89496000Y-105869400D02*
X88480000Y-106885400D01*
X95719000Y-109933400D02*
X95719000Y-105869400D01*
X95719000Y-105869400D02*
X89496000Y-105869400D01*
X89496000Y-109933400D02*
X95719000Y-109933400D01*
X88480000Y-106885400D02*
X88480000Y-108917400D01*
D14*
X113743252Y-137033000D02*
X113220748Y-137033000D01*
X113743252Y-138503000D02*
X113220748Y-138503000D01*
X121956600Y-122614000D02*
X121046600Y-122614000D01*
X124266600Y-122614000D02*
X123356600Y-122614000D01*
X124266600Y-120039000D02*
X124266600Y-122614000D01*
X121046600Y-120464000D02*
X121046600Y-122614000D01*
X122124800Y-117851464D02*
X122124800Y-117397336D01*
X123594800Y-117851464D02*
X123594800Y-117397336D01*
X123417000Y-125233936D02*
X123417000Y-125688064D01*
X121947000Y-125233936D02*
X121947000Y-125688064D01*
X96874000Y-125762652D02*
X96874000Y-125240148D01*
X95404000Y-125762652D02*
X95404000Y-125240148D01*
X99287000Y-125742564D02*
X99287000Y-125288436D01*
X97817000Y-125742564D02*
X97817000Y-125288436D01*
X110175648Y-148016000D02*
X110698152Y-148016000D01*
X110175648Y-149486000D02*
X110698152Y-149486000D01*
X107642500Y-142662252D02*
X107642500Y-142139748D01*
X109112500Y-142662252D02*
X109112500Y-142139748D01*
X112025500Y-147084000D02*
X108125500Y-147084000D01*
X112025500Y-147084000D02*
X112025500Y-145084000D01*
X112025500Y-145084000D02*
X108125500Y-145084000D01*
X110436500Y-142604564D02*
X110436500Y-142150436D01*
X111906500Y-142604564D02*
X111906500Y-142150436D01*
X106433180Y-109251460D02*
G75*
G03*
X106433180Y-109251460I-1251000J0D01*
G01*
X92991000Y-125728464D02*
X92991000Y-125274336D01*
X94461000Y-125728464D02*
X94461000Y-125274336D01*
X102643000Y-125742564D02*
X102643000Y-125288436D01*
X104113000Y-125742564D02*
X104113000Y-125288436D01*
X100005000Y-124515500D02*
X100005000Y-127200500D01*
X100005000Y-127200500D02*
X101925000Y-127200500D01*
X101925000Y-127200500D02*
X101925000Y-124515500D01*
M02*
