%FSLAX45Y45*%
G04 Gerber Fmt 4.5, Leading zero omitted, Abs format (unit mm)*
G04 Created by KiCad (PCBNEW (6.0.6-0)) date 2022-08-24 21:23:55*
%MOMM*%
%LPD*%
G01*
G04 APERTURE LIST*
%TA.AperFunction,Profile*%
%ADD10C,0.100000*%
%TD*%
%ADD11C,0.200000*%
%ADD12C,0.250000*%
%ADD13C,0.325000*%
G04 APERTURE END LIST*
D10*
X5273200Y-15596800D02*
G75*
G03*
X5323200Y-15646800I50000J0D01*
G01*
X9189925Y-10666800D02*
X5323200Y-10666800D01*
X8886055Y-15646800D02*
X5323200Y-15646800D01*
X11533200Y-15646800D02*
X10716055Y-15646800D01*
X10666060Y-15596800D02*
G75*
G03*
X10716055Y-15646800I50000J0D01*
G01*
X11533200Y-15646800D02*
G75*
G03*
X11583200Y-15596800I0J50000D01*
G01*
X11583200Y-15596800D02*
X11583200Y-10716800D01*
X10666055Y-14996800D02*
X8936055Y-14996800D01*
X5273200Y-15596800D02*
X5273200Y-10716800D01*
X11583200Y-10716800D02*
G75*
G03*
X11533200Y-10666800I-50000J0D01*
G01*
X11533200Y-10666800D02*
X11069326Y-10666800D01*
X11069326Y-10666794D02*
G75*
G03*
X11018520Y-10716800I4J-50817D01*
G01*
X9240519Y-11254740D02*
G75*
G03*
X9331960Y-11343045I86321J-2110D01*
G01*
X11018520Y-11292600D02*
X11018520Y-10716800D01*
X10666055Y-15596800D02*
X10666055Y-14996800D01*
X5323200Y-10666800D02*
G75*
G03*
X5273200Y-10716800I0J-50000D01*
G01*
X8886055Y-15646795D02*
G75*
G03*
X8936055Y-15596800I5J49995D01*
G01*
X10967322Y-11343130D02*
X9331960Y-11343045D01*
X8936055Y-14996800D02*
X8936055Y-15596800D01*
X9240714Y-10716800D02*
G75*
G03*
X9189925Y-10666800I-50794J-800D01*
G01*
X10967322Y-11343134D02*
G75*
G03*
X11018520Y-11292600I-2J51204D01*
G01*
X9240520Y-11254740D02*
X9240715Y-10716800D01*
D11*
D12*
X5423200Y-10813100D02*
X5673200Y-11063100D01*
X5673200Y-10813100D02*
X5423200Y-11063100D01*
X5423200Y-15245400D02*
X5673200Y-15495400D01*
X5673200Y-15245400D02*
X5423200Y-15495400D01*
X11176300Y-10825800D02*
X11426300Y-11075800D01*
X11426300Y-10825800D02*
X11176300Y-11075800D01*
X11176300Y-15245400D02*
X11426300Y-15495400D01*
X11426300Y-15245400D02*
X11176300Y-15495400D01*
D13*
X5845750Y-13225650D02*
G75*
G03*
X5845750Y-13225650I-162500J0D01*
G01*
X5845750Y-14495650D02*
G75*
G03*
X5845750Y-14495650I-162500J0D01*
G01*
D11*
X5525819Y-15962276D02*
X5525819Y-15762276D01*
X5573438Y-15762276D01*
X5602009Y-15771800D01*
X5621057Y-15790848D01*
X5630581Y-15809895D01*
X5640105Y-15847990D01*
X5640105Y-15876562D01*
X5630581Y-15914657D01*
X5621057Y-15933705D01*
X5602009Y-15952752D01*
X5573438Y-15962276D01*
X5525819Y-15962276D01*
X5725819Y-15962276D02*
X5725819Y-15828943D01*
X5725819Y-15867038D02*
X5735343Y-15847990D01*
X5744867Y-15838467D01*
X5763914Y-15828943D01*
X5782962Y-15828943D01*
X5849628Y-15962276D02*
X5849628Y-15828943D01*
X5849628Y-15762276D02*
X5840105Y-15771800D01*
X5849628Y-15781324D01*
X5859152Y-15771800D01*
X5849628Y-15762276D01*
X5849628Y-15781324D01*
X5973438Y-15962276D02*
X5954390Y-15952752D01*
X5944867Y-15933705D01*
X5944867Y-15762276D01*
X6078200Y-15962276D02*
X6059152Y-15952752D01*
X6049628Y-15933705D01*
X6049628Y-15762276D01*
X6306771Y-15962276D02*
X6306771Y-15762276D01*
X6373438Y-15905133D01*
X6440105Y-15762276D01*
X6440105Y-15962276D01*
X6621057Y-15962276D02*
X6621057Y-15857514D01*
X6611533Y-15838467D01*
X6592486Y-15828943D01*
X6554390Y-15828943D01*
X6535343Y-15838467D01*
X6621057Y-15952752D02*
X6602009Y-15962276D01*
X6554390Y-15962276D01*
X6535343Y-15952752D01*
X6525819Y-15933705D01*
X6525819Y-15914657D01*
X6535343Y-15895609D01*
X6554390Y-15886086D01*
X6602009Y-15886086D01*
X6621057Y-15876562D01*
X6716295Y-15828943D02*
X6716295Y-16028943D01*
X6716295Y-15838467D02*
X6735343Y-15828943D01*
X6773438Y-15828943D01*
X6792486Y-15838467D01*
X6802009Y-15847990D01*
X6811533Y-15867038D01*
X6811533Y-15924181D01*
X6802009Y-15943228D01*
X6792486Y-15952752D01*
X6773438Y-15962276D01*
X6735343Y-15962276D01*
X6716295Y-15952752D01*
X6897248Y-15943228D02*
X6906771Y-15952752D01*
X6897248Y-15962276D01*
X6887724Y-15952752D01*
X6897248Y-15943228D01*
X6897248Y-15962276D01*
X6897248Y-15838467D02*
X6906771Y-15847990D01*
X6897248Y-15857514D01*
X6887724Y-15847990D01*
X6897248Y-15838467D01*
X6897248Y-15857514D01*
X5068200Y-16191800D02*
X5268200Y-16391800D01*
X5268200Y-16191800D02*
X5068200Y-16391800D01*
X5516295Y-16201324D02*
X5525819Y-16191800D01*
X5544867Y-16182276D01*
X5592486Y-16182276D01*
X5611533Y-16191800D01*
X5621057Y-16201324D01*
X5630581Y-16220371D01*
X5630581Y-16239419D01*
X5621057Y-16267990D01*
X5506771Y-16382276D01*
X5630581Y-16382276D01*
X5716295Y-16363228D02*
X5725819Y-16372752D01*
X5716295Y-16382276D01*
X5706771Y-16372752D01*
X5716295Y-16363228D01*
X5716295Y-16382276D01*
X5906771Y-16182276D02*
X5811533Y-16182276D01*
X5802009Y-16277514D01*
X5811533Y-16267990D01*
X5830581Y-16258467D01*
X5878200Y-16258467D01*
X5897248Y-16267990D01*
X5906771Y-16277514D01*
X5916295Y-16296562D01*
X5916295Y-16344181D01*
X5906771Y-16363228D01*
X5897248Y-16372752D01*
X5878200Y-16382276D01*
X5830581Y-16382276D01*
X5811533Y-16372752D01*
X5802009Y-16363228D01*
X6040105Y-16182276D02*
X6059152Y-16182276D01*
X6078200Y-16191800D01*
X6087724Y-16201324D01*
X6097248Y-16220371D01*
X6106771Y-16258467D01*
X6106771Y-16306086D01*
X6097248Y-16344181D01*
X6087724Y-16363228D01*
X6078200Y-16372752D01*
X6059152Y-16382276D01*
X6040105Y-16382276D01*
X6021057Y-16372752D01*
X6011533Y-16363228D01*
X6002009Y-16344181D01*
X5992486Y-16306086D01*
X5992486Y-16258467D01*
X6002009Y-16220371D01*
X6011533Y-16201324D01*
X6021057Y-16191800D01*
X6040105Y-16182276D01*
X6230581Y-16182276D02*
X6249628Y-16182276D01*
X6268676Y-16191800D01*
X6278200Y-16201324D01*
X6287724Y-16220371D01*
X6297248Y-16258467D01*
X6297248Y-16306086D01*
X6287724Y-16344181D01*
X6278200Y-16363228D01*
X6268676Y-16372752D01*
X6249628Y-16382276D01*
X6230581Y-16382276D01*
X6211533Y-16372752D01*
X6202009Y-16363228D01*
X6192486Y-16344181D01*
X6182962Y-16306086D01*
X6182962Y-16258467D01*
X6192486Y-16220371D01*
X6202009Y-16201324D01*
X6211533Y-16191800D01*
X6230581Y-16182276D01*
X6382962Y-16382276D02*
X6382962Y-16248943D01*
X6382962Y-16267990D02*
X6392486Y-16258467D01*
X6411533Y-16248943D01*
X6440105Y-16248943D01*
X6459152Y-16258467D01*
X6468676Y-16277514D01*
X6468676Y-16382276D01*
X6468676Y-16277514D02*
X6478200Y-16258467D01*
X6497248Y-16248943D01*
X6525819Y-16248943D01*
X6544867Y-16258467D01*
X6554390Y-16277514D01*
X6554390Y-16382276D01*
X6649628Y-16382276D02*
X6649628Y-16248943D01*
X6649628Y-16267990D02*
X6659152Y-16258467D01*
X6678200Y-16248943D01*
X6706771Y-16248943D01*
X6725819Y-16258467D01*
X6735343Y-16277514D01*
X6735343Y-16382276D01*
X6735343Y-16277514D02*
X6744867Y-16258467D01*
X6763914Y-16248943D01*
X6792486Y-16248943D01*
X6811533Y-16258467D01*
X6821057Y-16277514D01*
X6821057Y-16382276D01*
X7211533Y-16172752D02*
X7040105Y-16429895D01*
X7468676Y-16182276D02*
X7487724Y-16182276D01*
X7506771Y-16191800D01*
X7516295Y-16201324D01*
X7525819Y-16220371D01*
X7535343Y-16258467D01*
X7535343Y-16306086D01*
X7525819Y-16344181D01*
X7516295Y-16363228D01*
X7506771Y-16372752D01*
X7487724Y-16382276D01*
X7468676Y-16382276D01*
X7449628Y-16372752D01*
X7440105Y-16363228D01*
X7430581Y-16344181D01*
X7421057Y-16306086D01*
X7421057Y-16258467D01*
X7430581Y-16220371D01*
X7440105Y-16201324D01*
X7449628Y-16191800D01*
X7468676Y-16182276D01*
X7621057Y-16363228D02*
X7630581Y-16372752D01*
X7621057Y-16382276D01*
X7611533Y-16372752D01*
X7621057Y-16363228D01*
X7621057Y-16382276D01*
X7754390Y-16182276D02*
X7773438Y-16182276D01*
X7792486Y-16191800D01*
X7802009Y-16201324D01*
X7811533Y-16220371D01*
X7821057Y-16258467D01*
X7821057Y-16306086D01*
X7811533Y-16344181D01*
X7802009Y-16363228D01*
X7792486Y-16372752D01*
X7773438Y-16382276D01*
X7754390Y-16382276D01*
X7735343Y-16372752D01*
X7725819Y-16363228D01*
X7716295Y-16344181D01*
X7706771Y-16306086D01*
X7706771Y-16258467D01*
X7716295Y-16220371D01*
X7725819Y-16201324D01*
X7735343Y-16191800D01*
X7754390Y-16182276D01*
X7916295Y-16382276D02*
X7954390Y-16382276D01*
X7973438Y-16372752D01*
X7982962Y-16363228D01*
X8002009Y-16334657D01*
X8011533Y-16296562D01*
X8011533Y-16220371D01*
X8002009Y-16201324D01*
X7992486Y-16191800D01*
X7973438Y-16182276D01*
X7935343Y-16182276D01*
X7916295Y-16191800D01*
X7906771Y-16201324D01*
X7897248Y-16220371D01*
X7897248Y-16267990D01*
X7906771Y-16287038D01*
X7916295Y-16296562D01*
X7935343Y-16306086D01*
X7973438Y-16306086D01*
X7992486Y-16296562D01*
X8002009Y-16287038D01*
X8011533Y-16267990D01*
X8125819Y-16267990D02*
X8106771Y-16258467D01*
X8097248Y-16248943D01*
X8087724Y-16229895D01*
X8087724Y-16220371D01*
X8097248Y-16201324D01*
X8106771Y-16191800D01*
X8125819Y-16182276D01*
X8163914Y-16182276D01*
X8182962Y-16191800D01*
X8192486Y-16201324D01*
X8202009Y-16220371D01*
X8202009Y-16229895D01*
X8192486Y-16248943D01*
X8182962Y-16258467D01*
X8163914Y-16267990D01*
X8125819Y-16267990D01*
X8106771Y-16277514D01*
X8097248Y-16287038D01*
X8087724Y-16306086D01*
X8087724Y-16344181D01*
X8097248Y-16363228D01*
X8106771Y-16372752D01*
X8125819Y-16382276D01*
X8163914Y-16382276D01*
X8182962Y-16372752D01*
X8192486Y-16363228D01*
X8202009Y-16344181D01*
X8202009Y-16306086D01*
X8192486Y-16287038D01*
X8182962Y-16277514D01*
X8163914Y-16267990D01*
X8373438Y-16248943D02*
X8373438Y-16382276D01*
X8325819Y-16172752D02*
X8278200Y-16315609D01*
X8402010Y-16315609D01*
X8468676Y-16182276D02*
X8468676Y-16220371D01*
X8544867Y-16182276D02*
X8544867Y-16220371D01*
X8840105Y-16458467D02*
X8830581Y-16448943D01*
X8811533Y-16420371D01*
X8802010Y-16401324D01*
X8792486Y-16372752D01*
X8782962Y-16325133D01*
X8782962Y-16287038D01*
X8792486Y-16239419D01*
X8802010Y-16210848D01*
X8811533Y-16191800D01*
X8830581Y-16163228D01*
X8840105Y-16153705D01*
X9002010Y-16248943D02*
X9002010Y-16382276D01*
X8954390Y-16172752D02*
X8906771Y-16315609D01*
X9030581Y-16315609D01*
X9259152Y-16382276D02*
X9259152Y-16182276D01*
X9344867Y-16382276D02*
X9344867Y-16277514D01*
X9335343Y-16258467D01*
X9316295Y-16248943D01*
X9287724Y-16248943D01*
X9268676Y-16258467D01*
X9259152Y-16267990D01*
X9468676Y-16382276D02*
X9449629Y-16372752D01*
X9440105Y-16363228D01*
X9430581Y-16344181D01*
X9430581Y-16287038D01*
X9440105Y-16267990D01*
X9449629Y-16258467D01*
X9468676Y-16248943D01*
X9497248Y-16248943D01*
X9516295Y-16258467D01*
X9525819Y-16267990D01*
X9535343Y-16287038D01*
X9535343Y-16344181D01*
X9525819Y-16363228D01*
X9516295Y-16372752D01*
X9497248Y-16382276D01*
X9468676Y-16382276D01*
X9649629Y-16382276D02*
X9630581Y-16372752D01*
X9621057Y-16353705D01*
X9621057Y-16182276D01*
X9802010Y-16372752D02*
X9782962Y-16382276D01*
X9744867Y-16382276D01*
X9725819Y-16372752D01*
X9716295Y-16353705D01*
X9716295Y-16277514D01*
X9725819Y-16258467D01*
X9744867Y-16248943D01*
X9782962Y-16248943D01*
X9802010Y-16258467D01*
X9811533Y-16277514D01*
X9811533Y-16296562D01*
X9716295Y-16315609D01*
X9887724Y-16372752D02*
X9906771Y-16382276D01*
X9944867Y-16382276D01*
X9963914Y-16372752D01*
X9973438Y-16353705D01*
X9973438Y-16344181D01*
X9963914Y-16325133D01*
X9944867Y-16315609D01*
X9916295Y-16315609D01*
X9897248Y-16306086D01*
X9887724Y-16287038D01*
X9887724Y-16277514D01*
X9897248Y-16258467D01*
X9916295Y-16248943D01*
X9944867Y-16248943D01*
X9963914Y-16258467D01*
X10040105Y-16458467D02*
X10049629Y-16448943D01*
X10068676Y-16420371D01*
X10078200Y-16401324D01*
X10087724Y-16372752D01*
X10097248Y-16325133D01*
X10097248Y-16287038D01*
X10087724Y-16239419D01*
X10078200Y-16210848D01*
X10068676Y-16191800D01*
X10049629Y-16163228D01*
X10040105Y-16153705D01*
X10402010Y-16458467D02*
X10392486Y-16448943D01*
X10373438Y-16420371D01*
X10363914Y-16401324D01*
X10354390Y-16372752D01*
X10344867Y-16325133D01*
X10344867Y-16287038D01*
X10354390Y-16239419D01*
X10363914Y-16210848D01*
X10373438Y-16191800D01*
X10392486Y-16163228D01*
X10402010Y-16153705D01*
X10478200Y-16248943D02*
X10478200Y-16382276D01*
X10478200Y-16267990D02*
X10487724Y-16258467D01*
X10506771Y-16248943D01*
X10535343Y-16248943D01*
X10554390Y-16258467D01*
X10563914Y-16277514D01*
X10563914Y-16382276D01*
X10687724Y-16382276D02*
X10668676Y-16372752D01*
X10659152Y-16363228D01*
X10649629Y-16344181D01*
X10649629Y-16287038D01*
X10659152Y-16267990D01*
X10668676Y-16258467D01*
X10687724Y-16248943D01*
X10716295Y-16248943D01*
X10735343Y-16258467D01*
X10744867Y-16267990D01*
X10754390Y-16287038D01*
X10754390Y-16344181D01*
X10744867Y-16363228D01*
X10735343Y-16372752D01*
X10716295Y-16382276D01*
X10687724Y-16382276D01*
X10811533Y-16248943D02*
X10887724Y-16248943D01*
X10840105Y-16182276D02*
X10840105Y-16353705D01*
X10849629Y-16372752D01*
X10868676Y-16382276D01*
X10887724Y-16382276D01*
X11106771Y-16248943D02*
X11106771Y-16448943D01*
X11106771Y-16258467D02*
X11125819Y-16248943D01*
X11163914Y-16248943D01*
X11182962Y-16258467D01*
X11192486Y-16267990D01*
X11202009Y-16287038D01*
X11202009Y-16344181D01*
X11192486Y-16363228D01*
X11182962Y-16372752D01*
X11163914Y-16382276D01*
X11125819Y-16382276D01*
X11106771Y-16372752D01*
X11316295Y-16382276D02*
X11297248Y-16372752D01*
X11287724Y-16353705D01*
X11287724Y-16182276D01*
X11478200Y-16382276D02*
X11478200Y-16277514D01*
X11468676Y-16258467D01*
X11449628Y-16248943D01*
X11411533Y-16248943D01*
X11392486Y-16258467D01*
X11478200Y-16372752D02*
X11459152Y-16382276D01*
X11411533Y-16382276D01*
X11392486Y-16372752D01*
X11382962Y-16353705D01*
X11382962Y-16334657D01*
X11392486Y-16315609D01*
X11411533Y-16306086D01*
X11459152Y-16306086D01*
X11478200Y-16296562D01*
X11544867Y-16248943D02*
X11621057Y-16248943D01*
X11573438Y-16182276D02*
X11573438Y-16353705D01*
X11582962Y-16372752D01*
X11602009Y-16382276D01*
X11621057Y-16382276D01*
X11763914Y-16372752D02*
X11744867Y-16382276D01*
X11706771Y-16382276D01*
X11687724Y-16372752D01*
X11678200Y-16353705D01*
X11678200Y-16277514D01*
X11687724Y-16258467D01*
X11706771Y-16248943D01*
X11744867Y-16248943D01*
X11763914Y-16258467D01*
X11773438Y-16277514D01*
X11773438Y-16296562D01*
X11678200Y-16315609D01*
X11944867Y-16382276D02*
X11944867Y-16182276D01*
X11944867Y-16372752D02*
X11925819Y-16382276D01*
X11887724Y-16382276D01*
X11868676Y-16372752D01*
X11859152Y-16363228D01*
X11849628Y-16344181D01*
X11849628Y-16287038D01*
X11859152Y-16267990D01*
X11868676Y-16258467D01*
X11887724Y-16248943D01*
X11925819Y-16248943D01*
X11944867Y-16258467D01*
X12021057Y-16458467D02*
X12030581Y-16448943D01*
X12049628Y-16420371D01*
X12059152Y-16401324D01*
X12068676Y-16372752D01*
X12078200Y-16325133D01*
X12078200Y-16287038D01*
X12068676Y-16239419D01*
X12059152Y-16210848D01*
X12049628Y-16191800D01*
X12030581Y-16163228D01*
X12021057Y-16153705D01*
X5268200Y-16611800D02*
G75*
G03*
X5268200Y-16611800I-100000J0D01*
G01*
X5506771Y-16502276D02*
X5630581Y-16502276D01*
X5563914Y-16578467D01*
X5592486Y-16578467D01*
X5611533Y-16587990D01*
X5621057Y-16597514D01*
X5630581Y-16616562D01*
X5630581Y-16664181D01*
X5621057Y-16683228D01*
X5611533Y-16692752D01*
X5592486Y-16702276D01*
X5535343Y-16702276D01*
X5516295Y-16692752D01*
X5506771Y-16683228D01*
X5716295Y-16683228D02*
X5725819Y-16692752D01*
X5716295Y-16702276D01*
X5706771Y-16692752D01*
X5716295Y-16683228D01*
X5716295Y-16702276D01*
X5802009Y-16521324D02*
X5811533Y-16511800D01*
X5830581Y-16502276D01*
X5878200Y-16502276D01*
X5897248Y-16511800D01*
X5906771Y-16521324D01*
X5916295Y-16540371D01*
X5916295Y-16559419D01*
X5906771Y-16587990D01*
X5792486Y-16702276D01*
X5916295Y-16702276D01*
X6097248Y-16502276D02*
X6002009Y-16502276D01*
X5992486Y-16597514D01*
X6002009Y-16587990D01*
X6021057Y-16578467D01*
X6068676Y-16578467D01*
X6087724Y-16587990D01*
X6097248Y-16597514D01*
X6106771Y-16616562D01*
X6106771Y-16664181D01*
X6097248Y-16683228D01*
X6087724Y-16692752D01*
X6068676Y-16702276D01*
X6021057Y-16702276D01*
X6002009Y-16692752D01*
X5992486Y-16683228D01*
X6230581Y-16502276D02*
X6249628Y-16502276D01*
X6268676Y-16511800D01*
X6278200Y-16521324D01*
X6287724Y-16540371D01*
X6297248Y-16578467D01*
X6297248Y-16626086D01*
X6287724Y-16664181D01*
X6278200Y-16683228D01*
X6268676Y-16692752D01*
X6249628Y-16702276D01*
X6230581Y-16702276D01*
X6211533Y-16692752D01*
X6202009Y-16683228D01*
X6192486Y-16664181D01*
X6182962Y-16626086D01*
X6182962Y-16578467D01*
X6192486Y-16540371D01*
X6202009Y-16521324D01*
X6211533Y-16511800D01*
X6230581Y-16502276D01*
X6382962Y-16702276D02*
X6382962Y-16568943D01*
X6382962Y-16587990D02*
X6392486Y-16578467D01*
X6411533Y-16568943D01*
X6440105Y-16568943D01*
X6459152Y-16578467D01*
X6468676Y-16597514D01*
X6468676Y-16702276D01*
X6468676Y-16597514D02*
X6478200Y-16578467D01*
X6497248Y-16568943D01*
X6525819Y-16568943D01*
X6544867Y-16578467D01*
X6554390Y-16597514D01*
X6554390Y-16702276D01*
X6649628Y-16702276D02*
X6649628Y-16568943D01*
X6649628Y-16587990D02*
X6659152Y-16578467D01*
X6678200Y-16568943D01*
X6706771Y-16568943D01*
X6725819Y-16578467D01*
X6735343Y-16597514D01*
X6735343Y-16702276D01*
X6735343Y-16597514D02*
X6744867Y-16578467D01*
X6763914Y-16568943D01*
X6792486Y-16568943D01*
X6811533Y-16578467D01*
X6821057Y-16597514D01*
X6821057Y-16702276D01*
X7211533Y-16492752D02*
X7040105Y-16749895D01*
X7468676Y-16502276D02*
X7487724Y-16502276D01*
X7506771Y-16511800D01*
X7516295Y-16521324D01*
X7525819Y-16540371D01*
X7535343Y-16578467D01*
X7535343Y-16626086D01*
X7525819Y-16664181D01*
X7516295Y-16683228D01*
X7506771Y-16692752D01*
X7487724Y-16702276D01*
X7468676Y-16702276D01*
X7449628Y-16692752D01*
X7440105Y-16683228D01*
X7430581Y-16664181D01*
X7421057Y-16626086D01*
X7421057Y-16578467D01*
X7430581Y-16540371D01*
X7440105Y-16521324D01*
X7449628Y-16511800D01*
X7468676Y-16502276D01*
X7621057Y-16683228D02*
X7630581Y-16692752D01*
X7621057Y-16702276D01*
X7611533Y-16692752D01*
X7621057Y-16683228D01*
X7621057Y-16702276D01*
X7821057Y-16702276D02*
X7706771Y-16702276D01*
X7763914Y-16702276D02*
X7763914Y-16502276D01*
X7744867Y-16530848D01*
X7725819Y-16549895D01*
X7706771Y-16559419D01*
X7897248Y-16521324D02*
X7906771Y-16511800D01*
X7925819Y-16502276D01*
X7973438Y-16502276D01*
X7992486Y-16511800D01*
X8002009Y-16521324D01*
X8011533Y-16540371D01*
X8011533Y-16559419D01*
X8002009Y-16587990D01*
X7887724Y-16702276D01*
X8011533Y-16702276D01*
X8125819Y-16587990D02*
X8106771Y-16578467D01*
X8097248Y-16568943D01*
X8087724Y-16549895D01*
X8087724Y-16540371D01*
X8097248Y-16521324D01*
X8106771Y-16511800D01*
X8125819Y-16502276D01*
X8163914Y-16502276D01*
X8182962Y-16511800D01*
X8192486Y-16521324D01*
X8202009Y-16540371D01*
X8202009Y-16549895D01*
X8192486Y-16568943D01*
X8182962Y-16578467D01*
X8163914Y-16587990D01*
X8125819Y-16587990D01*
X8106771Y-16597514D01*
X8097248Y-16607038D01*
X8087724Y-16626086D01*
X8087724Y-16664181D01*
X8097248Y-16683228D01*
X8106771Y-16692752D01*
X8125819Y-16702276D01*
X8163914Y-16702276D01*
X8182962Y-16692752D01*
X8192486Y-16683228D01*
X8202009Y-16664181D01*
X8202009Y-16626086D01*
X8192486Y-16607038D01*
X8182962Y-16597514D01*
X8163914Y-16587990D01*
X8325819Y-16502276D02*
X8344867Y-16502276D01*
X8363914Y-16511800D01*
X8373438Y-16521324D01*
X8382962Y-16540371D01*
X8392486Y-16578467D01*
X8392486Y-16626086D01*
X8382962Y-16664181D01*
X8373438Y-16683228D01*
X8363914Y-16692752D01*
X8344867Y-16702276D01*
X8325819Y-16702276D01*
X8306771Y-16692752D01*
X8297248Y-16683228D01*
X8287724Y-16664181D01*
X8278200Y-16626086D01*
X8278200Y-16578467D01*
X8287724Y-16540371D01*
X8297248Y-16521324D01*
X8306771Y-16511800D01*
X8325819Y-16502276D01*
X8468676Y-16502276D02*
X8468676Y-16540371D01*
X8544867Y-16502276D02*
X8544867Y-16540371D01*
X8840105Y-16778467D02*
X8830581Y-16768943D01*
X8811533Y-16740371D01*
X8802010Y-16721324D01*
X8792486Y-16692752D01*
X8782962Y-16645133D01*
X8782962Y-16607038D01*
X8792486Y-16559419D01*
X8802010Y-16530848D01*
X8811533Y-16511800D01*
X8830581Y-16483228D01*
X8840105Y-16473705D01*
X8906771Y-16521324D02*
X8916295Y-16511800D01*
X8935343Y-16502276D01*
X8982962Y-16502276D01*
X9002010Y-16511800D01*
X9011533Y-16521324D01*
X9021057Y-16540371D01*
X9021057Y-16559419D01*
X9011533Y-16587990D01*
X8897248Y-16702276D01*
X9021057Y-16702276D01*
X9259152Y-16702276D02*
X9259152Y-16502276D01*
X9344867Y-16702276D02*
X9344867Y-16597514D01*
X9335343Y-16578467D01*
X9316295Y-16568943D01*
X9287724Y-16568943D01*
X9268676Y-16578467D01*
X9259152Y-16587990D01*
X9468676Y-16702276D02*
X9449629Y-16692752D01*
X9440105Y-16683228D01*
X9430581Y-16664181D01*
X9430581Y-16607038D01*
X9440105Y-16587990D01*
X9449629Y-16578467D01*
X9468676Y-16568943D01*
X9497248Y-16568943D01*
X9516295Y-16578467D01*
X9525819Y-16587990D01*
X9535343Y-16607038D01*
X9535343Y-16664181D01*
X9525819Y-16683228D01*
X9516295Y-16692752D01*
X9497248Y-16702276D01*
X9468676Y-16702276D01*
X9649629Y-16702276D02*
X9630581Y-16692752D01*
X9621057Y-16673705D01*
X9621057Y-16502276D01*
X9802010Y-16692752D02*
X9782962Y-16702276D01*
X9744867Y-16702276D01*
X9725819Y-16692752D01*
X9716295Y-16673705D01*
X9716295Y-16597514D01*
X9725819Y-16578467D01*
X9744867Y-16568943D01*
X9782962Y-16568943D01*
X9802010Y-16578467D01*
X9811533Y-16597514D01*
X9811533Y-16616562D01*
X9716295Y-16635609D01*
X9887724Y-16692752D02*
X9906771Y-16702276D01*
X9944867Y-16702276D01*
X9963914Y-16692752D01*
X9973438Y-16673705D01*
X9973438Y-16664181D01*
X9963914Y-16645133D01*
X9944867Y-16635609D01*
X9916295Y-16635609D01*
X9897248Y-16626086D01*
X9887724Y-16607038D01*
X9887724Y-16597514D01*
X9897248Y-16578467D01*
X9916295Y-16568943D01*
X9944867Y-16568943D01*
X9963914Y-16578467D01*
X10040105Y-16778467D02*
X10049629Y-16768943D01*
X10068676Y-16740371D01*
X10078200Y-16721324D01*
X10087724Y-16692752D01*
X10097248Y-16645133D01*
X10097248Y-16607038D01*
X10087724Y-16559419D01*
X10078200Y-16530848D01*
X10068676Y-16511800D01*
X10049629Y-16483228D01*
X10040105Y-16473705D01*
X10402010Y-16778467D02*
X10392486Y-16768943D01*
X10373438Y-16740371D01*
X10363914Y-16721324D01*
X10354390Y-16692752D01*
X10344867Y-16645133D01*
X10344867Y-16607038D01*
X10354390Y-16559419D01*
X10363914Y-16530848D01*
X10373438Y-16511800D01*
X10392486Y-16483228D01*
X10402010Y-16473705D01*
X10478200Y-16568943D02*
X10478200Y-16702276D01*
X10478200Y-16587990D02*
X10487724Y-16578467D01*
X10506771Y-16568943D01*
X10535343Y-16568943D01*
X10554390Y-16578467D01*
X10563914Y-16597514D01*
X10563914Y-16702276D01*
X10687724Y-16702276D02*
X10668676Y-16692752D01*
X10659152Y-16683228D01*
X10649629Y-16664181D01*
X10649629Y-16607038D01*
X10659152Y-16587990D01*
X10668676Y-16578467D01*
X10687724Y-16568943D01*
X10716295Y-16568943D01*
X10735343Y-16578467D01*
X10744867Y-16587990D01*
X10754390Y-16607038D01*
X10754390Y-16664181D01*
X10744867Y-16683228D01*
X10735343Y-16692752D01*
X10716295Y-16702276D01*
X10687724Y-16702276D01*
X10811533Y-16568943D02*
X10887724Y-16568943D01*
X10840105Y-16502276D02*
X10840105Y-16673705D01*
X10849629Y-16692752D01*
X10868676Y-16702276D01*
X10887724Y-16702276D01*
X11106771Y-16568943D02*
X11106771Y-16768943D01*
X11106771Y-16578467D02*
X11125819Y-16568943D01*
X11163914Y-16568943D01*
X11182962Y-16578467D01*
X11192486Y-16587990D01*
X11202009Y-16607038D01*
X11202009Y-16664181D01*
X11192486Y-16683228D01*
X11182962Y-16692752D01*
X11163914Y-16702276D01*
X11125819Y-16702276D01*
X11106771Y-16692752D01*
X11316295Y-16702276D02*
X11297248Y-16692752D01*
X11287724Y-16673705D01*
X11287724Y-16502276D01*
X11478200Y-16702276D02*
X11478200Y-16597514D01*
X11468676Y-16578467D01*
X11449628Y-16568943D01*
X11411533Y-16568943D01*
X11392486Y-16578467D01*
X11478200Y-16692752D02*
X11459152Y-16702276D01*
X11411533Y-16702276D01*
X11392486Y-16692752D01*
X11382962Y-16673705D01*
X11382962Y-16654657D01*
X11392486Y-16635609D01*
X11411533Y-16626086D01*
X11459152Y-16626086D01*
X11478200Y-16616562D01*
X11544867Y-16568943D02*
X11621057Y-16568943D01*
X11573438Y-16502276D02*
X11573438Y-16673705D01*
X11582962Y-16692752D01*
X11602009Y-16702276D01*
X11621057Y-16702276D01*
X11763914Y-16692752D02*
X11744867Y-16702276D01*
X11706771Y-16702276D01*
X11687724Y-16692752D01*
X11678200Y-16673705D01*
X11678200Y-16597514D01*
X11687724Y-16578467D01*
X11706771Y-16568943D01*
X11744867Y-16568943D01*
X11763914Y-16578467D01*
X11773438Y-16597514D01*
X11773438Y-16616562D01*
X11678200Y-16635609D01*
X11944867Y-16702276D02*
X11944867Y-16502276D01*
X11944867Y-16692752D02*
X11925819Y-16702276D01*
X11887724Y-16702276D01*
X11868676Y-16692752D01*
X11859152Y-16683228D01*
X11849628Y-16664181D01*
X11849628Y-16607038D01*
X11859152Y-16587990D01*
X11868676Y-16578467D01*
X11887724Y-16568943D01*
X11925819Y-16568943D01*
X11944867Y-16578467D01*
X12021057Y-16778467D02*
X12030581Y-16768943D01*
X12049628Y-16740371D01*
X12059152Y-16721324D01*
X12068676Y-16692752D01*
X12078200Y-16645133D01*
X12078200Y-16607038D01*
X12068676Y-16559419D01*
X12059152Y-16530848D01*
X12049628Y-16511800D01*
X12030581Y-16483228D01*
X12021057Y-16473705D01*
M02*
