G04 #@! TF.GenerationSoftware,KiCad,Pcbnew,(5.1.5-0-10_14)*
G04 #@! TF.CreationDate,2020-10-21T13:28:45+02:00*
G04 #@! TF.ProjectId,ithowifi,6974686f-7769-4666-992e-6b696361645f,rev?*
G04 #@! TF.SameCoordinates,Original*
G04 #@! TF.FileFunction,Copper,L1,Top*
G04 #@! TF.FilePolarity,Positive*
%FSLAX46Y46*%
G04 Gerber Fmt 4.6, Leading zero omitted, Abs format (unit mm)*
G04 Created by KiCad (PCBNEW (5.1.5-0-10_14)) date 2020-10-21 13:28:45*
%MOMM*%
%LPD*%
G04 APERTURE LIST*
%ADD10C,0.100000*%
%ADD11R,0.800000X0.900000*%
%ADD12R,1.000000X3.150000*%
%ADD13O,1.500000X2.300000*%
%ADD14R,1.500000X2.300000*%
%ADD15C,1.800000*%
%ADD16R,1.700000X1.700000*%
%ADD17O,1.700000X1.700000*%
%ADD18C,0.800000*%
%ADD19C,0.254000*%
%ADD20C,0.406400*%
G04 APERTURE END LIST*
G04 #@! TA.AperFunction,SMDPad,CuDef*
D10*
G36*
X109446142Y-141929174D02*
G01*
X109469803Y-141932684D01*
X109493007Y-141938496D01*
X109515529Y-141946554D01*
X109537153Y-141956782D01*
X109557670Y-141969079D01*
X109576883Y-141983329D01*
X109594607Y-141999393D01*
X109610671Y-142017117D01*
X109624921Y-142036330D01*
X109637218Y-142056847D01*
X109647446Y-142078471D01*
X109655504Y-142100993D01*
X109661316Y-142124197D01*
X109664826Y-142147858D01*
X109666000Y-142171750D01*
X109666000Y-142659250D01*
X109664826Y-142683142D01*
X109661316Y-142706803D01*
X109655504Y-142730007D01*
X109647446Y-142752529D01*
X109637218Y-142774153D01*
X109624921Y-142794670D01*
X109610671Y-142813883D01*
X109594607Y-142831607D01*
X109576883Y-142847671D01*
X109557670Y-142861921D01*
X109537153Y-142874218D01*
X109515529Y-142884446D01*
X109493007Y-142892504D01*
X109469803Y-142898316D01*
X109446142Y-142901826D01*
X109422250Y-142903000D01*
X108509750Y-142903000D01*
X108485858Y-142901826D01*
X108462197Y-142898316D01*
X108438993Y-142892504D01*
X108416471Y-142884446D01*
X108394847Y-142874218D01*
X108374330Y-142861921D01*
X108355117Y-142847671D01*
X108337393Y-142831607D01*
X108321329Y-142813883D01*
X108307079Y-142794670D01*
X108294782Y-142774153D01*
X108284554Y-142752529D01*
X108276496Y-142730007D01*
X108270684Y-142706803D01*
X108267174Y-142683142D01*
X108266000Y-142659250D01*
X108266000Y-142171750D01*
X108267174Y-142147858D01*
X108270684Y-142124197D01*
X108276496Y-142100993D01*
X108284554Y-142078471D01*
X108294782Y-142056847D01*
X108307079Y-142036330D01*
X108321329Y-142017117D01*
X108337393Y-141999393D01*
X108355117Y-141983329D01*
X108374330Y-141969079D01*
X108394847Y-141956782D01*
X108416471Y-141946554D01*
X108438993Y-141938496D01*
X108462197Y-141932684D01*
X108485858Y-141929174D01*
X108509750Y-141928000D01*
X109422250Y-141928000D01*
X109446142Y-141929174D01*
G37*
G04 #@! TD.AperFunction*
G04 #@! TA.AperFunction,SMDPad,CuDef*
G36*
X109446142Y-140054174D02*
G01*
X109469803Y-140057684D01*
X109493007Y-140063496D01*
X109515529Y-140071554D01*
X109537153Y-140081782D01*
X109557670Y-140094079D01*
X109576883Y-140108329D01*
X109594607Y-140124393D01*
X109610671Y-140142117D01*
X109624921Y-140161330D01*
X109637218Y-140181847D01*
X109647446Y-140203471D01*
X109655504Y-140225993D01*
X109661316Y-140249197D01*
X109664826Y-140272858D01*
X109666000Y-140296750D01*
X109666000Y-140784250D01*
X109664826Y-140808142D01*
X109661316Y-140831803D01*
X109655504Y-140855007D01*
X109647446Y-140877529D01*
X109637218Y-140899153D01*
X109624921Y-140919670D01*
X109610671Y-140938883D01*
X109594607Y-140956607D01*
X109576883Y-140972671D01*
X109557670Y-140986921D01*
X109537153Y-140999218D01*
X109515529Y-141009446D01*
X109493007Y-141017504D01*
X109469803Y-141023316D01*
X109446142Y-141026826D01*
X109422250Y-141028000D01*
X108509750Y-141028000D01*
X108485858Y-141026826D01*
X108462197Y-141023316D01*
X108438993Y-141017504D01*
X108416471Y-141009446D01*
X108394847Y-140999218D01*
X108374330Y-140986921D01*
X108355117Y-140972671D01*
X108337393Y-140956607D01*
X108321329Y-140938883D01*
X108307079Y-140919670D01*
X108294782Y-140899153D01*
X108284554Y-140877529D01*
X108276496Y-140855007D01*
X108270684Y-140831803D01*
X108267174Y-140808142D01*
X108266000Y-140784250D01*
X108266000Y-140296750D01*
X108267174Y-140272858D01*
X108270684Y-140249197D01*
X108276496Y-140225993D01*
X108284554Y-140203471D01*
X108294782Y-140181847D01*
X108307079Y-140161330D01*
X108321329Y-140142117D01*
X108337393Y-140124393D01*
X108355117Y-140108329D01*
X108374330Y-140094079D01*
X108394847Y-140081782D01*
X108416471Y-140071554D01*
X108438993Y-140063496D01*
X108462197Y-140057684D01*
X108485858Y-140054174D01*
X108509750Y-140053000D01*
X109422250Y-140053000D01*
X109446142Y-140054174D01*
G37*
G04 #@! TD.AperFunction*
G04 #@! TA.AperFunction,SMDPad,CuDef*
G36*
X98651142Y-116226174D02*
G01*
X98674803Y-116229684D01*
X98698007Y-116235496D01*
X98720529Y-116243554D01*
X98742153Y-116253782D01*
X98762670Y-116266079D01*
X98781883Y-116280329D01*
X98799607Y-116296393D01*
X98815671Y-116314117D01*
X98829921Y-116333330D01*
X98842218Y-116353847D01*
X98852446Y-116375471D01*
X98860504Y-116397993D01*
X98866316Y-116421197D01*
X98869826Y-116444858D01*
X98871000Y-116468750D01*
X98871000Y-116956250D01*
X98869826Y-116980142D01*
X98866316Y-117003803D01*
X98860504Y-117027007D01*
X98852446Y-117049529D01*
X98842218Y-117071153D01*
X98829921Y-117091670D01*
X98815671Y-117110883D01*
X98799607Y-117128607D01*
X98781883Y-117144671D01*
X98762670Y-117158921D01*
X98742153Y-117171218D01*
X98720529Y-117181446D01*
X98698007Y-117189504D01*
X98674803Y-117195316D01*
X98651142Y-117198826D01*
X98627250Y-117200000D01*
X97714750Y-117200000D01*
X97690858Y-117198826D01*
X97667197Y-117195316D01*
X97643993Y-117189504D01*
X97621471Y-117181446D01*
X97599847Y-117171218D01*
X97579330Y-117158921D01*
X97560117Y-117144671D01*
X97542393Y-117128607D01*
X97526329Y-117110883D01*
X97512079Y-117091670D01*
X97499782Y-117071153D01*
X97489554Y-117049529D01*
X97481496Y-117027007D01*
X97475684Y-117003803D01*
X97472174Y-116980142D01*
X97471000Y-116956250D01*
X97471000Y-116468750D01*
X97472174Y-116444858D01*
X97475684Y-116421197D01*
X97481496Y-116397993D01*
X97489554Y-116375471D01*
X97499782Y-116353847D01*
X97512079Y-116333330D01*
X97526329Y-116314117D01*
X97542393Y-116296393D01*
X97560117Y-116280329D01*
X97579330Y-116266079D01*
X97599847Y-116253782D01*
X97621471Y-116243554D01*
X97643993Y-116235496D01*
X97667197Y-116229684D01*
X97690858Y-116226174D01*
X97714750Y-116225000D01*
X98627250Y-116225000D01*
X98651142Y-116226174D01*
G37*
G04 #@! TD.AperFunction*
G04 #@! TA.AperFunction,SMDPad,CuDef*
G36*
X98651142Y-118101174D02*
G01*
X98674803Y-118104684D01*
X98698007Y-118110496D01*
X98720529Y-118118554D01*
X98742153Y-118128782D01*
X98762670Y-118141079D01*
X98781883Y-118155329D01*
X98799607Y-118171393D01*
X98815671Y-118189117D01*
X98829921Y-118208330D01*
X98842218Y-118228847D01*
X98852446Y-118250471D01*
X98860504Y-118272993D01*
X98866316Y-118296197D01*
X98869826Y-118319858D01*
X98871000Y-118343750D01*
X98871000Y-118831250D01*
X98869826Y-118855142D01*
X98866316Y-118878803D01*
X98860504Y-118902007D01*
X98852446Y-118924529D01*
X98842218Y-118946153D01*
X98829921Y-118966670D01*
X98815671Y-118985883D01*
X98799607Y-119003607D01*
X98781883Y-119019671D01*
X98762670Y-119033921D01*
X98742153Y-119046218D01*
X98720529Y-119056446D01*
X98698007Y-119064504D01*
X98674803Y-119070316D01*
X98651142Y-119073826D01*
X98627250Y-119075000D01*
X97714750Y-119075000D01*
X97690858Y-119073826D01*
X97667197Y-119070316D01*
X97643993Y-119064504D01*
X97621471Y-119056446D01*
X97599847Y-119046218D01*
X97579330Y-119033921D01*
X97560117Y-119019671D01*
X97542393Y-119003607D01*
X97526329Y-118985883D01*
X97512079Y-118966670D01*
X97499782Y-118946153D01*
X97489554Y-118924529D01*
X97481496Y-118902007D01*
X97475684Y-118878803D01*
X97472174Y-118855142D01*
X97471000Y-118831250D01*
X97471000Y-118343750D01*
X97472174Y-118319858D01*
X97475684Y-118296197D01*
X97481496Y-118272993D01*
X97489554Y-118250471D01*
X97499782Y-118228847D01*
X97512079Y-118208330D01*
X97526329Y-118189117D01*
X97542393Y-118171393D01*
X97560117Y-118155329D01*
X97579330Y-118141079D01*
X97599847Y-118128782D01*
X97621471Y-118118554D01*
X97643993Y-118110496D01*
X97667197Y-118104684D01*
X97690858Y-118101174D01*
X97714750Y-118100000D01*
X98627250Y-118100000D01*
X98651142Y-118101174D01*
G37*
G04 #@! TD.AperFunction*
G04 #@! TA.AperFunction,SMDPad,CuDef*
G36*
X105980142Y-145859174D02*
G01*
X106003803Y-145862684D01*
X106027007Y-145868496D01*
X106049529Y-145876554D01*
X106071153Y-145886782D01*
X106091670Y-145899079D01*
X106110883Y-145913329D01*
X106128607Y-145929393D01*
X106144671Y-145947117D01*
X106158921Y-145966330D01*
X106171218Y-145986847D01*
X106181446Y-146008471D01*
X106189504Y-146030993D01*
X106195316Y-146054197D01*
X106198826Y-146077858D01*
X106200000Y-146101750D01*
X106200000Y-147014250D01*
X106198826Y-147038142D01*
X106195316Y-147061803D01*
X106189504Y-147085007D01*
X106181446Y-147107529D01*
X106171218Y-147129153D01*
X106158921Y-147149670D01*
X106144671Y-147168883D01*
X106128607Y-147186607D01*
X106110883Y-147202671D01*
X106091670Y-147216921D01*
X106071153Y-147229218D01*
X106049529Y-147239446D01*
X106027007Y-147247504D01*
X106003803Y-147253316D01*
X105980142Y-147256826D01*
X105956250Y-147258000D01*
X105468750Y-147258000D01*
X105444858Y-147256826D01*
X105421197Y-147253316D01*
X105397993Y-147247504D01*
X105375471Y-147239446D01*
X105353847Y-147229218D01*
X105333330Y-147216921D01*
X105314117Y-147202671D01*
X105296393Y-147186607D01*
X105280329Y-147168883D01*
X105266079Y-147149670D01*
X105253782Y-147129153D01*
X105243554Y-147107529D01*
X105235496Y-147085007D01*
X105229684Y-147061803D01*
X105226174Y-147038142D01*
X105225000Y-147014250D01*
X105225000Y-146101750D01*
X105226174Y-146077858D01*
X105229684Y-146054197D01*
X105235496Y-146030993D01*
X105243554Y-146008471D01*
X105253782Y-145986847D01*
X105266079Y-145966330D01*
X105280329Y-145947117D01*
X105296393Y-145929393D01*
X105314117Y-145913329D01*
X105333330Y-145899079D01*
X105353847Y-145886782D01*
X105375471Y-145876554D01*
X105397993Y-145868496D01*
X105421197Y-145862684D01*
X105444858Y-145859174D01*
X105468750Y-145858000D01*
X105956250Y-145858000D01*
X105980142Y-145859174D01*
G37*
G04 #@! TD.AperFunction*
G04 #@! TA.AperFunction,SMDPad,CuDef*
G36*
X104105142Y-145859174D02*
G01*
X104128803Y-145862684D01*
X104152007Y-145868496D01*
X104174529Y-145876554D01*
X104196153Y-145886782D01*
X104216670Y-145899079D01*
X104235883Y-145913329D01*
X104253607Y-145929393D01*
X104269671Y-145947117D01*
X104283921Y-145966330D01*
X104296218Y-145986847D01*
X104306446Y-146008471D01*
X104314504Y-146030993D01*
X104320316Y-146054197D01*
X104323826Y-146077858D01*
X104325000Y-146101750D01*
X104325000Y-147014250D01*
X104323826Y-147038142D01*
X104320316Y-147061803D01*
X104314504Y-147085007D01*
X104306446Y-147107529D01*
X104296218Y-147129153D01*
X104283921Y-147149670D01*
X104269671Y-147168883D01*
X104253607Y-147186607D01*
X104235883Y-147202671D01*
X104216670Y-147216921D01*
X104196153Y-147229218D01*
X104174529Y-147239446D01*
X104152007Y-147247504D01*
X104128803Y-147253316D01*
X104105142Y-147256826D01*
X104081250Y-147258000D01*
X103593750Y-147258000D01*
X103569858Y-147256826D01*
X103546197Y-147253316D01*
X103522993Y-147247504D01*
X103500471Y-147239446D01*
X103478847Y-147229218D01*
X103458330Y-147216921D01*
X103439117Y-147202671D01*
X103421393Y-147186607D01*
X103405329Y-147168883D01*
X103391079Y-147149670D01*
X103378782Y-147129153D01*
X103368554Y-147107529D01*
X103360496Y-147085007D01*
X103354684Y-147061803D01*
X103351174Y-147038142D01*
X103350000Y-147014250D01*
X103350000Y-146101750D01*
X103351174Y-146077858D01*
X103354684Y-146054197D01*
X103360496Y-146030993D01*
X103368554Y-146008471D01*
X103378782Y-145986847D01*
X103391079Y-145966330D01*
X103405329Y-145947117D01*
X103421393Y-145929393D01*
X103439117Y-145913329D01*
X103458330Y-145899079D01*
X103478847Y-145886782D01*
X103500471Y-145876554D01*
X103522993Y-145868496D01*
X103546197Y-145862684D01*
X103569858Y-145859174D01*
X103593750Y-145858000D01*
X104081250Y-145858000D01*
X104105142Y-145859174D01*
G37*
G04 #@! TD.AperFunction*
G04 #@! TA.AperFunction,SMDPad,CuDef*
G36*
X119352142Y-125927174D02*
G01*
X119375803Y-125930684D01*
X119399007Y-125936496D01*
X119421529Y-125944554D01*
X119443153Y-125954782D01*
X119463670Y-125967079D01*
X119482883Y-125981329D01*
X119500607Y-125997393D01*
X119516671Y-126015117D01*
X119530921Y-126034330D01*
X119543218Y-126054847D01*
X119553446Y-126076471D01*
X119561504Y-126098993D01*
X119567316Y-126122197D01*
X119570826Y-126145858D01*
X119572000Y-126169750D01*
X119572000Y-126657250D01*
X119570826Y-126681142D01*
X119567316Y-126704803D01*
X119561504Y-126728007D01*
X119553446Y-126750529D01*
X119543218Y-126772153D01*
X119530921Y-126792670D01*
X119516671Y-126811883D01*
X119500607Y-126829607D01*
X119482883Y-126845671D01*
X119463670Y-126859921D01*
X119443153Y-126872218D01*
X119421529Y-126882446D01*
X119399007Y-126890504D01*
X119375803Y-126896316D01*
X119352142Y-126899826D01*
X119328250Y-126901000D01*
X118415750Y-126901000D01*
X118391858Y-126899826D01*
X118368197Y-126896316D01*
X118344993Y-126890504D01*
X118322471Y-126882446D01*
X118300847Y-126872218D01*
X118280330Y-126859921D01*
X118261117Y-126845671D01*
X118243393Y-126829607D01*
X118227329Y-126811883D01*
X118213079Y-126792670D01*
X118200782Y-126772153D01*
X118190554Y-126750529D01*
X118182496Y-126728007D01*
X118176684Y-126704803D01*
X118173174Y-126681142D01*
X118172000Y-126657250D01*
X118172000Y-126169750D01*
X118173174Y-126145858D01*
X118176684Y-126122197D01*
X118182496Y-126098993D01*
X118190554Y-126076471D01*
X118200782Y-126054847D01*
X118213079Y-126034330D01*
X118227329Y-126015117D01*
X118243393Y-125997393D01*
X118261117Y-125981329D01*
X118280330Y-125967079D01*
X118300847Y-125954782D01*
X118322471Y-125944554D01*
X118344993Y-125936496D01*
X118368197Y-125930684D01*
X118391858Y-125927174D01*
X118415750Y-125926000D01*
X119328250Y-125926000D01*
X119352142Y-125927174D01*
G37*
G04 #@! TD.AperFunction*
G04 #@! TA.AperFunction,SMDPad,CuDef*
G36*
X119352142Y-124052174D02*
G01*
X119375803Y-124055684D01*
X119399007Y-124061496D01*
X119421529Y-124069554D01*
X119443153Y-124079782D01*
X119463670Y-124092079D01*
X119482883Y-124106329D01*
X119500607Y-124122393D01*
X119516671Y-124140117D01*
X119530921Y-124159330D01*
X119543218Y-124179847D01*
X119553446Y-124201471D01*
X119561504Y-124223993D01*
X119567316Y-124247197D01*
X119570826Y-124270858D01*
X119572000Y-124294750D01*
X119572000Y-124782250D01*
X119570826Y-124806142D01*
X119567316Y-124829803D01*
X119561504Y-124853007D01*
X119553446Y-124875529D01*
X119543218Y-124897153D01*
X119530921Y-124917670D01*
X119516671Y-124936883D01*
X119500607Y-124954607D01*
X119482883Y-124970671D01*
X119463670Y-124984921D01*
X119443153Y-124997218D01*
X119421529Y-125007446D01*
X119399007Y-125015504D01*
X119375803Y-125021316D01*
X119352142Y-125024826D01*
X119328250Y-125026000D01*
X118415750Y-125026000D01*
X118391858Y-125024826D01*
X118368197Y-125021316D01*
X118344993Y-125015504D01*
X118322471Y-125007446D01*
X118300847Y-124997218D01*
X118280330Y-124984921D01*
X118261117Y-124970671D01*
X118243393Y-124954607D01*
X118227329Y-124936883D01*
X118213079Y-124917670D01*
X118200782Y-124897153D01*
X118190554Y-124875529D01*
X118182496Y-124853007D01*
X118176684Y-124829803D01*
X118173174Y-124806142D01*
X118172000Y-124782250D01*
X118172000Y-124294750D01*
X118173174Y-124270858D01*
X118176684Y-124247197D01*
X118182496Y-124223993D01*
X118190554Y-124201471D01*
X118200782Y-124179847D01*
X118213079Y-124159330D01*
X118227329Y-124140117D01*
X118243393Y-124122393D01*
X118261117Y-124106329D01*
X118280330Y-124092079D01*
X118300847Y-124079782D01*
X118322471Y-124069554D01*
X118344993Y-124061496D01*
X118368197Y-124055684D01*
X118391858Y-124052174D01*
X118415750Y-124051000D01*
X119328250Y-124051000D01*
X119352142Y-124052174D01*
G37*
G04 #@! TD.AperFunction*
G04 #@! TA.AperFunction,SMDPad,CuDef*
G36*
X122781142Y-125927174D02*
G01*
X122804803Y-125930684D01*
X122828007Y-125936496D01*
X122850529Y-125944554D01*
X122872153Y-125954782D01*
X122892670Y-125967079D01*
X122911883Y-125981329D01*
X122929607Y-125997393D01*
X122945671Y-126015117D01*
X122959921Y-126034330D01*
X122972218Y-126054847D01*
X122982446Y-126076471D01*
X122990504Y-126098993D01*
X122996316Y-126122197D01*
X122999826Y-126145858D01*
X123001000Y-126169750D01*
X123001000Y-126657250D01*
X122999826Y-126681142D01*
X122996316Y-126704803D01*
X122990504Y-126728007D01*
X122982446Y-126750529D01*
X122972218Y-126772153D01*
X122959921Y-126792670D01*
X122945671Y-126811883D01*
X122929607Y-126829607D01*
X122911883Y-126845671D01*
X122892670Y-126859921D01*
X122872153Y-126872218D01*
X122850529Y-126882446D01*
X122828007Y-126890504D01*
X122804803Y-126896316D01*
X122781142Y-126899826D01*
X122757250Y-126901000D01*
X121844750Y-126901000D01*
X121820858Y-126899826D01*
X121797197Y-126896316D01*
X121773993Y-126890504D01*
X121751471Y-126882446D01*
X121729847Y-126872218D01*
X121709330Y-126859921D01*
X121690117Y-126845671D01*
X121672393Y-126829607D01*
X121656329Y-126811883D01*
X121642079Y-126792670D01*
X121629782Y-126772153D01*
X121619554Y-126750529D01*
X121611496Y-126728007D01*
X121605684Y-126704803D01*
X121602174Y-126681142D01*
X121601000Y-126657250D01*
X121601000Y-126169750D01*
X121602174Y-126145858D01*
X121605684Y-126122197D01*
X121611496Y-126098993D01*
X121619554Y-126076471D01*
X121629782Y-126054847D01*
X121642079Y-126034330D01*
X121656329Y-126015117D01*
X121672393Y-125997393D01*
X121690117Y-125981329D01*
X121709330Y-125967079D01*
X121729847Y-125954782D01*
X121751471Y-125944554D01*
X121773993Y-125936496D01*
X121797197Y-125930684D01*
X121820858Y-125927174D01*
X121844750Y-125926000D01*
X122757250Y-125926000D01*
X122781142Y-125927174D01*
G37*
G04 #@! TD.AperFunction*
G04 #@! TA.AperFunction,SMDPad,CuDef*
G36*
X122781142Y-124052174D02*
G01*
X122804803Y-124055684D01*
X122828007Y-124061496D01*
X122850529Y-124069554D01*
X122872153Y-124079782D01*
X122892670Y-124092079D01*
X122911883Y-124106329D01*
X122929607Y-124122393D01*
X122945671Y-124140117D01*
X122959921Y-124159330D01*
X122972218Y-124179847D01*
X122982446Y-124201471D01*
X122990504Y-124223993D01*
X122996316Y-124247197D01*
X122999826Y-124270858D01*
X123001000Y-124294750D01*
X123001000Y-124782250D01*
X122999826Y-124806142D01*
X122996316Y-124829803D01*
X122990504Y-124853007D01*
X122982446Y-124875529D01*
X122972218Y-124897153D01*
X122959921Y-124917670D01*
X122945671Y-124936883D01*
X122929607Y-124954607D01*
X122911883Y-124970671D01*
X122892670Y-124984921D01*
X122872153Y-124997218D01*
X122850529Y-125007446D01*
X122828007Y-125015504D01*
X122804803Y-125021316D01*
X122781142Y-125024826D01*
X122757250Y-125026000D01*
X121844750Y-125026000D01*
X121820858Y-125024826D01*
X121797197Y-125021316D01*
X121773993Y-125015504D01*
X121751471Y-125007446D01*
X121729847Y-124997218D01*
X121709330Y-124984921D01*
X121690117Y-124970671D01*
X121672393Y-124954607D01*
X121656329Y-124936883D01*
X121642079Y-124917670D01*
X121629782Y-124897153D01*
X121619554Y-124875529D01*
X121611496Y-124853007D01*
X121605684Y-124829803D01*
X121602174Y-124806142D01*
X121601000Y-124782250D01*
X121601000Y-124294750D01*
X121602174Y-124270858D01*
X121605684Y-124247197D01*
X121611496Y-124223993D01*
X121619554Y-124201471D01*
X121629782Y-124179847D01*
X121642079Y-124159330D01*
X121656329Y-124140117D01*
X121672393Y-124122393D01*
X121690117Y-124106329D01*
X121709330Y-124092079D01*
X121729847Y-124079782D01*
X121751471Y-124069554D01*
X121773993Y-124061496D01*
X121797197Y-124055684D01*
X121820858Y-124052174D01*
X121844750Y-124051000D01*
X122757250Y-124051000D01*
X122781142Y-124052174D01*
G37*
G04 #@! TD.AperFunction*
G04 #@! TA.AperFunction,SMDPad,CuDef*
G36*
X119352142Y-113889174D02*
G01*
X119375803Y-113892684D01*
X119399007Y-113898496D01*
X119421529Y-113906554D01*
X119443153Y-113916782D01*
X119463670Y-113929079D01*
X119482883Y-113943329D01*
X119500607Y-113959393D01*
X119516671Y-113977117D01*
X119530921Y-113996330D01*
X119543218Y-114016847D01*
X119553446Y-114038471D01*
X119561504Y-114060993D01*
X119567316Y-114084197D01*
X119570826Y-114107858D01*
X119572000Y-114131750D01*
X119572000Y-114619250D01*
X119570826Y-114643142D01*
X119567316Y-114666803D01*
X119561504Y-114690007D01*
X119553446Y-114712529D01*
X119543218Y-114734153D01*
X119530921Y-114754670D01*
X119516671Y-114773883D01*
X119500607Y-114791607D01*
X119482883Y-114807671D01*
X119463670Y-114821921D01*
X119443153Y-114834218D01*
X119421529Y-114844446D01*
X119399007Y-114852504D01*
X119375803Y-114858316D01*
X119352142Y-114861826D01*
X119328250Y-114863000D01*
X118415750Y-114863000D01*
X118391858Y-114861826D01*
X118368197Y-114858316D01*
X118344993Y-114852504D01*
X118322471Y-114844446D01*
X118300847Y-114834218D01*
X118280330Y-114821921D01*
X118261117Y-114807671D01*
X118243393Y-114791607D01*
X118227329Y-114773883D01*
X118213079Y-114754670D01*
X118200782Y-114734153D01*
X118190554Y-114712529D01*
X118182496Y-114690007D01*
X118176684Y-114666803D01*
X118173174Y-114643142D01*
X118172000Y-114619250D01*
X118172000Y-114131750D01*
X118173174Y-114107858D01*
X118176684Y-114084197D01*
X118182496Y-114060993D01*
X118190554Y-114038471D01*
X118200782Y-114016847D01*
X118213079Y-113996330D01*
X118227329Y-113977117D01*
X118243393Y-113959393D01*
X118261117Y-113943329D01*
X118280330Y-113929079D01*
X118300847Y-113916782D01*
X118322471Y-113906554D01*
X118344993Y-113898496D01*
X118368197Y-113892684D01*
X118391858Y-113889174D01*
X118415750Y-113888000D01*
X119328250Y-113888000D01*
X119352142Y-113889174D01*
G37*
G04 #@! TD.AperFunction*
G04 #@! TA.AperFunction,SMDPad,CuDef*
G36*
X119352142Y-115764174D02*
G01*
X119375803Y-115767684D01*
X119399007Y-115773496D01*
X119421529Y-115781554D01*
X119443153Y-115791782D01*
X119463670Y-115804079D01*
X119482883Y-115818329D01*
X119500607Y-115834393D01*
X119516671Y-115852117D01*
X119530921Y-115871330D01*
X119543218Y-115891847D01*
X119553446Y-115913471D01*
X119561504Y-115935993D01*
X119567316Y-115959197D01*
X119570826Y-115982858D01*
X119572000Y-116006750D01*
X119572000Y-116494250D01*
X119570826Y-116518142D01*
X119567316Y-116541803D01*
X119561504Y-116565007D01*
X119553446Y-116587529D01*
X119543218Y-116609153D01*
X119530921Y-116629670D01*
X119516671Y-116648883D01*
X119500607Y-116666607D01*
X119482883Y-116682671D01*
X119463670Y-116696921D01*
X119443153Y-116709218D01*
X119421529Y-116719446D01*
X119399007Y-116727504D01*
X119375803Y-116733316D01*
X119352142Y-116736826D01*
X119328250Y-116738000D01*
X118415750Y-116738000D01*
X118391858Y-116736826D01*
X118368197Y-116733316D01*
X118344993Y-116727504D01*
X118322471Y-116719446D01*
X118300847Y-116709218D01*
X118280330Y-116696921D01*
X118261117Y-116682671D01*
X118243393Y-116666607D01*
X118227329Y-116648883D01*
X118213079Y-116629670D01*
X118200782Y-116609153D01*
X118190554Y-116587529D01*
X118182496Y-116565007D01*
X118176684Y-116541803D01*
X118173174Y-116518142D01*
X118172000Y-116494250D01*
X118172000Y-116006750D01*
X118173174Y-115982858D01*
X118176684Y-115959197D01*
X118182496Y-115935993D01*
X118190554Y-115913471D01*
X118200782Y-115891847D01*
X118213079Y-115871330D01*
X118227329Y-115852117D01*
X118243393Y-115834393D01*
X118261117Y-115818329D01*
X118280330Y-115804079D01*
X118300847Y-115791782D01*
X118322471Y-115781554D01*
X118344993Y-115773496D01*
X118368197Y-115767684D01*
X118391858Y-115764174D01*
X118415750Y-115763000D01*
X119328250Y-115763000D01*
X119352142Y-115764174D01*
G37*
G04 #@! TD.AperFunction*
G04 #@! TA.AperFunction,SMDPad,CuDef*
G36*
X122755742Y-115764174D02*
G01*
X122779403Y-115767684D01*
X122802607Y-115773496D01*
X122825129Y-115781554D01*
X122846753Y-115791782D01*
X122867270Y-115804079D01*
X122886483Y-115818329D01*
X122904207Y-115834393D01*
X122920271Y-115852117D01*
X122934521Y-115871330D01*
X122946818Y-115891847D01*
X122957046Y-115913471D01*
X122965104Y-115935993D01*
X122970916Y-115959197D01*
X122974426Y-115982858D01*
X122975600Y-116006750D01*
X122975600Y-116494250D01*
X122974426Y-116518142D01*
X122970916Y-116541803D01*
X122965104Y-116565007D01*
X122957046Y-116587529D01*
X122946818Y-116609153D01*
X122934521Y-116629670D01*
X122920271Y-116648883D01*
X122904207Y-116666607D01*
X122886483Y-116682671D01*
X122867270Y-116696921D01*
X122846753Y-116709218D01*
X122825129Y-116719446D01*
X122802607Y-116727504D01*
X122779403Y-116733316D01*
X122755742Y-116736826D01*
X122731850Y-116738000D01*
X121819350Y-116738000D01*
X121795458Y-116736826D01*
X121771797Y-116733316D01*
X121748593Y-116727504D01*
X121726071Y-116719446D01*
X121704447Y-116709218D01*
X121683930Y-116696921D01*
X121664717Y-116682671D01*
X121646993Y-116666607D01*
X121630929Y-116648883D01*
X121616679Y-116629670D01*
X121604382Y-116609153D01*
X121594154Y-116587529D01*
X121586096Y-116565007D01*
X121580284Y-116541803D01*
X121576774Y-116518142D01*
X121575600Y-116494250D01*
X121575600Y-116006750D01*
X121576774Y-115982858D01*
X121580284Y-115959197D01*
X121586096Y-115935993D01*
X121594154Y-115913471D01*
X121604382Y-115891847D01*
X121616679Y-115871330D01*
X121630929Y-115852117D01*
X121646993Y-115834393D01*
X121664717Y-115818329D01*
X121683930Y-115804079D01*
X121704447Y-115791782D01*
X121726071Y-115781554D01*
X121748593Y-115773496D01*
X121771797Y-115767684D01*
X121795458Y-115764174D01*
X121819350Y-115763000D01*
X122731850Y-115763000D01*
X122755742Y-115764174D01*
G37*
G04 #@! TD.AperFunction*
G04 #@! TA.AperFunction,SMDPad,CuDef*
G36*
X122755742Y-113889174D02*
G01*
X122779403Y-113892684D01*
X122802607Y-113898496D01*
X122825129Y-113906554D01*
X122846753Y-113916782D01*
X122867270Y-113929079D01*
X122886483Y-113943329D01*
X122904207Y-113959393D01*
X122920271Y-113977117D01*
X122934521Y-113996330D01*
X122946818Y-114016847D01*
X122957046Y-114038471D01*
X122965104Y-114060993D01*
X122970916Y-114084197D01*
X122974426Y-114107858D01*
X122975600Y-114131750D01*
X122975600Y-114619250D01*
X122974426Y-114643142D01*
X122970916Y-114666803D01*
X122965104Y-114690007D01*
X122957046Y-114712529D01*
X122946818Y-114734153D01*
X122934521Y-114754670D01*
X122920271Y-114773883D01*
X122904207Y-114791607D01*
X122886483Y-114807671D01*
X122867270Y-114821921D01*
X122846753Y-114834218D01*
X122825129Y-114844446D01*
X122802607Y-114852504D01*
X122779403Y-114858316D01*
X122755742Y-114861826D01*
X122731850Y-114863000D01*
X121819350Y-114863000D01*
X121795458Y-114861826D01*
X121771797Y-114858316D01*
X121748593Y-114852504D01*
X121726071Y-114844446D01*
X121704447Y-114834218D01*
X121683930Y-114821921D01*
X121664717Y-114807671D01*
X121646993Y-114791607D01*
X121630929Y-114773883D01*
X121616679Y-114754670D01*
X121604382Y-114734153D01*
X121594154Y-114712529D01*
X121586096Y-114690007D01*
X121580284Y-114666803D01*
X121576774Y-114643142D01*
X121575600Y-114619250D01*
X121575600Y-114131750D01*
X121576774Y-114107858D01*
X121580284Y-114084197D01*
X121586096Y-114060993D01*
X121594154Y-114038471D01*
X121604382Y-114016847D01*
X121616679Y-113996330D01*
X121630929Y-113977117D01*
X121646993Y-113959393D01*
X121664717Y-113943329D01*
X121683930Y-113929079D01*
X121704447Y-113916782D01*
X121726071Y-113906554D01*
X121748593Y-113898496D01*
X121771797Y-113892684D01*
X121795458Y-113889174D01*
X121819350Y-113888000D01*
X122731850Y-113888000D01*
X122755742Y-113889174D01*
G37*
G04 #@! TD.AperFunction*
G04 #@! TA.AperFunction,SMDPad,CuDef*
G36*
X105655142Y-111696174D02*
G01*
X105678803Y-111699684D01*
X105702007Y-111705496D01*
X105724529Y-111713554D01*
X105746153Y-111723782D01*
X105766670Y-111736079D01*
X105785883Y-111750329D01*
X105803607Y-111766393D01*
X105819671Y-111784117D01*
X105833921Y-111803330D01*
X105846218Y-111823847D01*
X105856446Y-111845471D01*
X105864504Y-111867993D01*
X105870316Y-111891197D01*
X105873826Y-111914858D01*
X105875000Y-111938750D01*
X105875000Y-112851250D01*
X105873826Y-112875142D01*
X105870316Y-112898803D01*
X105864504Y-112922007D01*
X105856446Y-112944529D01*
X105846218Y-112966153D01*
X105833921Y-112986670D01*
X105819671Y-113005883D01*
X105803607Y-113023607D01*
X105785883Y-113039671D01*
X105766670Y-113053921D01*
X105746153Y-113066218D01*
X105724529Y-113076446D01*
X105702007Y-113084504D01*
X105678803Y-113090316D01*
X105655142Y-113093826D01*
X105631250Y-113095000D01*
X105143750Y-113095000D01*
X105119858Y-113093826D01*
X105096197Y-113090316D01*
X105072993Y-113084504D01*
X105050471Y-113076446D01*
X105028847Y-113066218D01*
X105008330Y-113053921D01*
X104989117Y-113039671D01*
X104971393Y-113023607D01*
X104955329Y-113005883D01*
X104941079Y-112986670D01*
X104928782Y-112966153D01*
X104918554Y-112944529D01*
X104910496Y-112922007D01*
X104904684Y-112898803D01*
X104901174Y-112875142D01*
X104900000Y-112851250D01*
X104900000Y-111938750D01*
X104901174Y-111914858D01*
X104904684Y-111891197D01*
X104910496Y-111867993D01*
X104918554Y-111845471D01*
X104928782Y-111823847D01*
X104941079Y-111803330D01*
X104955329Y-111784117D01*
X104971393Y-111766393D01*
X104989117Y-111750329D01*
X105008330Y-111736079D01*
X105028847Y-111723782D01*
X105050471Y-111713554D01*
X105072993Y-111705496D01*
X105096197Y-111699684D01*
X105119858Y-111696174D01*
X105143750Y-111695000D01*
X105631250Y-111695000D01*
X105655142Y-111696174D01*
G37*
G04 #@! TD.AperFunction*
G04 #@! TA.AperFunction,SMDPad,CuDef*
G36*
X103780142Y-111696174D02*
G01*
X103803803Y-111699684D01*
X103827007Y-111705496D01*
X103849529Y-111713554D01*
X103871153Y-111723782D01*
X103891670Y-111736079D01*
X103910883Y-111750329D01*
X103928607Y-111766393D01*
X103944671Y-111784117D01*
X103958921Y-111803330D01*
X103971218Y-111823847D01*
X103981446Y-111845471D01*
X103989504Y-111867993D01*
X103995316Y-111891197D01*
X103998826Y-111914858D01*
X104000000Y-111938750D01*
X104000000Y-112851250D01*
X103998826Y-112875142D01*
X103995316Y-112898803D01*
X103989504Y-112922007D01*
X103981446Y-112944529D01*
X103971218Y-112966153D01*
X103958921Y-112986670D01*
X103944671Y-113005883D01*
X103928607Y-113023607D01*
X103910883Y-113039671D01*
X103891670Y-113053921D01*
X103871153Y-113066218D01*
X103849529Y-113076446D01*
X103827007Y-113084504D01*
X103803803Y-113090316D01*
X103780142Y-113093826D01*
X103756250Y-113095000D01*
X103268750Y-113095000D01*
X103244858Y-113093826D01*
X103221197Y-113090316D01*
X103197993Y-113084504D01*
X103175471Y-113076446D01*
X103153847Y-113066218D01*
X103133330Y-113053921D01*
X103114117Y-113039671D01*
X103096393Y-113023607D01*
X103080329Y-113005883D01*
X103066079Y-112986670D01*
X103053782Y-112966153D01*
X103043554Y-112944529D01*
X103035496Y-112922007D01*
X103029684Y-112898803D01*
X103026174Y-112875142D01*
X103025000Y-112851250D01*
X103025000Y-111938750D01*
X103026174Y-111914858D01*
X103029684Y-111891197D01*
X103035496Y-111867993D01*
X103043554Y-111845471D01*
X103053782Y-111823847D01*
X103066079Y-111803330D01*
X103080329Y-111784117D01*
X103096393Y-111766393D01*
X103114117Y-111750329D01*
X103133330Y-111736079D01*
X103153847Y-111723782D01*
X103175471Y-111713554D01*
X103197993Y-111705496D01*
X103221197Y-111699684D01*
X103244858Y-111696174D01*
X103268750Y-111695000D01*
X103756250Y-111695000D01*
X103780142Y-111696174D01*
G37*
G04 #@! TD.AperFunction*
D11*
X118684000Y-121904000D03*
X117734000Y-119904000D03*
X119634000Y-119904000D03*
X122682000Y-121904000D03*
X121732000Y-119904000D03*
X123632000Y-119904000D03*
G04 #@! TA.AperFunction,SMDPad,CuDef*
D10*
G36*
X107835703Y-114508722D02*
G01*
X107850264Y-114510882D01*
X107864543Y-114514459D01*
X107878403Y-114519418D01*
X107891710Y-114525712D01*
X107904336Y-114533280D01*
X107916159Y-114542048D01*
X107927066Y-114551934D01*
X107936952Y-114562841D01*
X107945720Y-114574664D01*
X107953288Y-114587290D01*
X107959582Y-114600597D01*
X107964541Y-114614457D01*
X107968118Y-114628736D01*
X107970278Y-114643297D01*
X107971000Y-114658000D01*
X107971000Y-114958000D01*
X107970278Y-114972703D01*
X107968118Y-114987264D01*
X107964541Y-115001543D01*
X107959582Y-115015403D01*
X107953288Y-115028710D01*
X107945720Y-115041336D01*
X107936952Y-115053159D01*
X107927066Y-115064066D01*
X107916159Y-115073952D01*
X107904336Y-115082720D01*
X107891710Y-115090288D01*
X107878403Y-115096582D01*
X107864543Y-115101541D01*
X107850264Y-115105118D01*
X107835703Y-115107278D01*
X107821000Y-115108000D01*
X106171000Y-115108000D01*
X106156297Y-115107278D01*
X106141736Y-115105118D01*
X106127457Y-115101541D01*
X106113597Y-115096582D01*
X106100290Y-115090288D01*
X106087664Y-115082720D01*
X106075841Y-115073952D01*
X106064934Y-115064066D01*
X106055048Y-115053159D01*
X106046280Y-115041336D01*
X106038712Y-115028710D01*
X106032418Y-115015403D01*
X106027459Y-115001543D01*
X106023882Y-114987264D01*
X106021722Y-114972703D01*
X106021000Y-114958000D01*
X106021000Y-114658000D01*
X106021722Y-114643297D01*
X106023882Y-114628736D01*
X106027459Y-114614457D01*
X106032418Y-114600597D01*
X106038712Y-114587290D01*
X106046280Y-114574664D01*
X106055048Y-114562841D01*
X106064934Y-114551934D01*
X106075841Y-114542048D01*
X106087664Y-114533280D01*
X106100290Y-114525712D01*
X106113597Y-114519418D01*
X106127457Y-114514459D01*
X106141736Y-114510882D01*
X106156297Y-114508722D01*
X106171000Y-114508000D01*
X107821000Y-114508000D01*
X107835703Y-114508722D01*
G37*
G04 #@! TD.AperFunction*
G04 #@! TA.AperFunction,SMDPad,CuDef*
G36*
X107835703Y-115778722D02*
G01*
X107850264Y-115780882D01*
X107864543Y-115784459D01*
X107878403Y-115789418D01*
X107891710Y-115795712D01*
X107904336Y-115803280D01*
X107916159Y-115812048D01*
X107927066Y-115821934D01*
X107936952Y-115832841D01*
X107945720Y-115844664D01*
X107953288Y-115857290D01*
X107959582Y-115870597D01*
X107964541Y-115884457D01*
X107968118Y-115898736D01*
X107970278Y-115913297D01*
X107971000Y-115928000D01*
X107971000Y-116228000D01*
X107970278Y-116242703D01*
X107968118Y-116257264D01*
X107964541Y-116271543D01*
X107959582Y-116285403D01*
X107953288Y-116298710D01*
X107945720Y-116311336D01*
X107936952Y-116323159D01*
X107927066Y-116334066D01*
X107916159Y-116343952D01*
X107904336Y-116352720D01*
X107891710Y-116360288D01*
X107878403Y-116366582D01*
X107864543Y-116371541D01*
X107850264Y-116375118D01*
X107835703Y-116377278D01*
X107821000Y-116378000D01*
X106171000Y-116378000D01*
X106156297Y-116377278D01*
X106141736Y-116375118D01*
X106127457Y-116371541D01*
X106113597Y-116366582D01*
X106100290Y-116360288D01*
X106087664Y-116352720D01*
X106075841Y-116343952D01*
X106064934Y-116334066D01*
X106055048Y-116323159D01*
X106046280Y-116311336D01*
X106038712Y-116298710D01*
X106032418Y-116285403D01*
X106027459Y-116271543D01*
X106023882Y-116257264D01*
X106021722Y-116242703D01*
X106021000Y-116228000D01*
X106021000Y-115928000D01*
X106021722Y-115913297D01*
X106023882Y-115898736D01*
X106027459Y-115884457D01*
X106032418Y-115870597D01*
X106038712Y-115857290D01*
X106046280Y-115844664D01*
X106055048Y-115832841D01*
X106064934Y-115821934D01*
X106075841Y-115812048D01*
X106087664Y-115803280D01*
X106100290Y-115795712D01*
X106113597Y-115789418D01*
X106127457Y-115784459D01*
X106141736Y-115780882D01*
X106156297Y-115778722D01*
X106171000Y-115778000D01*
X107821000Y-115778000D01*
X107835703Y-115778722D01*
G37*
G04 #@! TD.AperFunction*
G04 #@! TA.AperFunction,SMDPad,CuDef*
G36*
X107835703Y-117048722D02*
G01*
X107850264Y-117050882D01*
X107864543Y-117054459D01*
X107878403Y-117059418D01*
X107891710Y-117065712D01*
X107904336Y-117073280D01*
X107916159Y-117082048D01*
X107927066Y-117091934D01*
X107936952Y-117102841D01*
X107945720Y-117114664D01*
X107953288Y-117127290D01*
X107959582Y-117140597D01*
X107964541Y-117154457D01*
X107968118Y-117168736D01*
X107970278Y-117183297D01*
X107971000Y-117198000D01*
X107971000Y-117498000D01*
X107970278Y-117512703D01*
X107968118Y-117527264D01*
X107964541Y-117541543D01*
X107959582Y-117555403D01*
X107953288Y-117568710D01*
X107945720Y-117581336D01*
X107936952Y-117593159D01*
X107927066Y-117604066D01*
X107916159Y-117613952D01*
X107904336Y-117622720D01*
X107891710Y-117630288D01*
X107878403Y-117636582D01*
X107864543Y-117641541D01*
X107850264Y-117645118D01*
X107835703Y-117647278D01*
X107821000Y-117648000D01*
X106171000Y-117648000D01*
X106156297Y-117647278D01*
X106141736Y-117645118D01*
X106127457Y-117641541D01*
X106113597Y-117636582D01*
X106100290Y-117630288D01*
X106087664Y-117622720D01*
X106075841Y-117613952D01*
X106064934Y-117604066D01*
X106055048Y-117593159D01*
X106046280Y-117581336D01*
X106038712Y-117568710D01*
X106032418Y-117555403D01*
X106027459Y-117541543D01*
X106023882Y-117527264D01*
X106021722Y-117512703D01*
X106021000Y-117498000D01*
X106021000Y-117198000D01*
X106021722Y-117183297D01*
X106023882Y-117168736D01*
X106027459Y-117154457D01*
X106032418Y-117140597D01*
X106038712Y-117127290D01*
X106046280Y-117114664D01*
X106055048Y-117102841D01*
X106064934Y-117091934D01*
X106075841Y-117082048D01*
X106087664Y-117073280D01*
X106100290Y-117065712D01*
X106113597Y-117059418D01*
X106127457Y-117054459D01*
X106141736Y-117050882D01*
X106156297Y-117048722D01*
X106171000Y-117048000D01*
X107821000Y-117048000D01*
X107835703Y-117048722D01*
G37*
G04 #@! TD.AperFunction*
G04 #@! TA.AperFunction,SMDPad,CuDef*
G36*
X107835703Y-118318722D02*
G01*
X107850264Y-118320882D01*
X107864543Y-118324459D01*
X107878403Y-118329418D01*
X107891710Y-118335712D01*
X107904336Y-118343280D01*
X107916159Y-118352048D01*
X107927066Y-118361934D01*
X107936952Y-118372841D01*
X107945720Y-118384664D01*
X107953288Y-118397290D01*
X107959582Y-118410597D01*
X107964541Y-118424457D01*
X107968118Y-118438736D01*
X107970278Y-118453297D01*
X107971000Y-118468000D01*
X107971000Y-118768000D01*
X107970278Y-118782703D01*
X107968118Y-118797264D01*
X107964541Y-118811543D01*
X107959582Y-118825403D01*
X107953288Y-118838710D01*
X107945720Y-118851336D01*
X107936952Y-118863159D01*
X107927066Y-118874066D01*
X107916159Y-118883952D01*
X107904336Y-118892720D01*
X107891710Y-118900288D01*
X107878403Y-118906582D01*
X107864543Y-118911541D01*
X107850264Y-118915118D01*
X107835703Y-118917278D01*
X107821000Y-118918000D01*
X106171000Y-118918000D01*
X106156297Y-118917278D01*
X106141736Y-118915118D01*
X106127457Y-118911541D01*
X106113597Y-118906582D01*
X106100290Y-118900288D01*
X106087664Y-118892720D01*
X106075841Y-118883952D01*
X106064934Y-118874066D01*
X106055048Y-118863159D01*
X106046280Y-118851336D01*
X106038712Y-118838710D01*
X106032418Y-118825403D01*
X106027459Y-118811543D01*
X106023882Y-118797264D01*
X106021722Y-118782703D01*
X106021000Y-118768000D01*
X106021000Y-118468000D01*
X106021722Y-118453297D01*
X106023882Y-118438736D01*
X106027459Y-118424457D01*
X106032418Y-118410597D01*
X106038712Y-118397290D01*
X106046280Y-118384664D01*
X106055048Y-118372841D01*
X106064934Y-118361934D01*
X106075841Y-118352048D01*
X106087664Y-118343280D01*
X106100290Y-118335712D01*
X106113597Y-118329418D01*
X106127457Y-118324459D01*
X106141736Y-118320882D01*
X106156297Y-118318722D01*
X106171000Y-118318000D01*
X107821000Y-118318000D01*
X107835703Y-118318722D01*
G37*
G04 #@! TD.AperFunction*
G04 #@! TA.AperFunction,SMDPad,CuDef*
G36*
X107835703Y-119588722D02*
G01*
X107850264Y-119590882D01*
X107864543Y-119594459D01*
X107878403Y-119599418D01*
X107891710Y-119605712D01*
X107904336Y-119613280D01*
X107916159Y-119622048D01*
X107927066Y-119631934D01*
X107936952Y-119642841D01*
X107945720Y-119654664D01*
X107953288Y-119667290D01*
X107959582Y-119680597D01*
X107964541Y-119694457D01*
X107968118Y-119708736D01*
X107970278Y-119723297D01*
X107971000Y-119738000D01*
X107971000Y-120038000D01*
X107970278Y-120052703D01*
X107968118Y-120067264D01*
X107964541Y-120081543D01*
X107959582Y-120095403D01*
X107953288Y-120108710D01*
X107945720Y-120121336D01*
X107936952Y-120133159D01*
X107927066Y-120144066D01*
X107916159Y-120153952D01*
X107904336Y-120162720D01*
X107891710Y-120170288D01*
X107878403Y-120176582D01*
X107864543Y-120181541D01*
X107850264Y-120185118D01*
X107835703Y-120187278D01*
X107821000Y-120188000D01*
X106171000Y-120188000D01*
X106156297Y-120187278D01*
X106141736Y-120185118D01*
X106127457Y-120181541D01*
X106113597Y-120176582D01*
X106100290Y-120170288D01*
X106087664Y-120162720D01*
X106075841Y-120153952D01*
X106064934Y-120144066D01*
X106055048Y-120133159D01*
X106046280Y-120121336D01*
X106038712Y-120108710D01*
X106032418Y-120095403D01*
X106027459Y-120081543D01*
X106023882Y-120067264D01*
X106021722Y-120052703D01*
X106021000Y-120038000D01*
X106021000Y-119738000D01*
X106021722Y-119723297D01*
X106023882Y-119708736D01*
X106027459Y-119694457D01*
X106032418Y-119680597D01*
X106038712Y-119667290D01*
X106046280Y-119654664D01*
X106055048Y-119642841D01*
X106064934Y-119631934D01*
X106075841Y-119622048D01*
X106087664Y-119613280D01*
X106100290Y-119605712D01*
X106113597Y-119599418D01*
X106127457Y-119594459D01*
X106141736Y-119590882D01*
X106156297Y-119588722D01*
X106171000Y-119588000D01*
X107821000Y-119588000D01*
X107835703Y-119588722D01*
G37*
G04 #@! TD.AperFunction*
G04 #@! TA.AperFunction,SMDPad,CuDef*
G36*
X107835703Y-120858722D02*
G01*
X107850264Y-120860882D01*
X107864543Y-120864459D01*
X107878403Y-120869418D01*
X107891710Y-120875712D01*
X107904336Y-120883280D01*
X107916159Y-120892048D01*
X107927066Y-120901934D01*
X107936952Y-120912841D01*
X107945720Y-120924664D01*
X107953288Y-120937290D01*
X107959582Y-120950597D01*
X107964541Y-120964457D01*
X107968118Y-120978736D01*
X107970278Y-120993297D01*
X107971000Y-121008000D01*
X107971000Y-121308000D01*
X107970278Y-121322703D01*
X107968118Y-121337264D01*
X107964541Y-121351543D01*
X107959582Y-121365403D01*
X107953288Y-121378710D01*
X107945720Y-121391336D01*
X107936952Y-121403159D01*
X107927066Y-121414066D01*
X107916159Y-121423952D01*
X107904336Y-121432720D01*
X107891710Y-121440288D01*
X107878403Y-121446582D01*
X107864543Y-121451541D01*
X107850264Y-121455118D01*
X107835703Y-121457278D01*
X107821000Y-121458000D01*
X106171000Y-121458000D01*
X106156297Y-121457278D01*
X106141736Y-121455118D01*
X106127457Y-121451541D01*
X106113597Y-121446582D01*
X106100290Y-121440288D01*
X106087664Y-121432720D01*
X106075841Y-121423952D01*
X106064934Y-121414066D01*
X106055048Y-121403159D01*
X106046280Y-121391336D01*
X106038712Y-121378710D01*
X106032418Y-121365403D01*
X106027459Y-121351543D01*
X106023882Y-121337264D01*
X106021722Y-121322703D01*
X106021000Y-121308000D01*
X106021000Y-121008000D01*
X106021722Y-120993297D01*
X106023882Y-120978736D01*
X106027459Y-120964457D01*
X106032418Y-120950597D01*
X106038712Y-120937290D01*
X106046280Y-120924664D01*
X106055048Y-120912841D01*
X106064934Y-120901934D01*
X106075841Y-120892048D01*
X106087664Y-120883280D01*
X106100290Y-120875712D01*
X106113597Y-120869418D01*
X106127457Y-120864459D01*
X106141736Y-120860882D01*
X106156297Y-120858722D01*
X106171000Y-120858000D01*
X107821000Y-120858000D01*
X107835703Y-120858722D01*
G37*
G04 #@! TD.AperFunction*
G04 #@! TA.AperFunction,SMDPad,CuDef*
G36*
X107835703Y-122128722D02*
G01*
X107850264Y-122130882D01*
X107864543Y-122134459D01*
X107878403Y-122139418D01*
X107891710Y-122145712D01*
X107904336Y-122153280D01*
X107916159Y-122162048D01*
X107927066Y-122171934D01*
X107936952Y-122182841D01*
X107945720Y-122194664D01*
X107953288Y-122207290D01*
X107959582Y-122220597D01*
X107964541Y-122234457D01*
X107968118Y-122248736D01*
X107970278Y-122263297D01*
X107971000Y-122278000D01*
X107971000Y-122578000D01*
X107970278Y-122592703D01*
X107968118Y-122607264D01*
X107964541Y-122621543D01*
X107959582Y-122635403D01*
X107953288Y-122648710D01*
X107945720Y-122661336D01*
X107936952Y-122673159D01*
X107927066Y-122684066D01*
X107916159Y-122693952D01*
X107904336Y-122702720D01*
X107891710Y-122710288D01*
X107878403Y-122716582D01*
X107864543Y-122721541D01*
X107850264Y-122725118D01*
X107835703Y-122727278D01*
X107821000Y-122728000D01*
X106171000Y-122728000D01*
X106156297Y-122727278D01*
X106141736Y-122725118D01*
X106127457Y-122721541D01*
X106113597Y-122716582D01*
X106100290Y-122710288D01*
X106087664Y-122702720D01*
X106075841Y-122693952D01*
X106064934Y-122684066D01*
X106055048Y-122673159D01*
X106046280Y-122661336D01*
X106038712Y-122648710D01*
X106032418Y-122635403D01*
X106027459Y-122621543D01*
X106023882Y-122607264D01*
X106021722Y-122592703D01*
X106021000Y-122578000D01*
X106021000Y-122278000D01*
X106021722Y-122263297D01*
X106023882Y-122248736D01*
X106027459Y-122234457D01*
X106032418Y-122220597D01*
X106038712Y-122207290D01*
X106046280Y-122194664D01*
X106055048Y-122182841D01*
X106064934Y-122171934D01*
X106075841Y-122162048D01*
X106087664Y-122153280D01*
X106100290Y-122145712D01*
X106113597Y-122139418D01*
X106127457Y-122134459D01*
X106141736Y-122130882D01*
X106156297Y-122128722D01*
X106171000Y-122128000D01*
X107821000Y-122128000D01*
X107835703Y-122128722D01*
G37*
G04 #@! TD.AperFunction*
G04 #@! TA.AperFunction,SMDPad,CuDef*
G36*
X102885703Y-122128722D02*
G01*
X102900264Y-122130882D01*
X102914543Y-122134459D01*
X102928403Y-122139418D01*
X102941710Y-122145712D01*
X102954336Y-122153280D01*
X102966159Y-122162048D01*
X102977066Y-122171934D01*
X102986952Y-122182841D01*
X102995720Y-122194664D01*
X103003288Y-122207290D01*
X103009582Y-122220597D01*
X103014541Y-122234457D01*
X103018118Y-122248736D01*
X103020278Y-122263297D01*
X103021000Y-122278000D01*
X103021000Y-122578000D01*
X103020278Y-122592703D01*
X103018118Y-122607264D01*
X103014541Y-122621543D01*
X103009582Y-122635403D01*
X103003288Y-122648710D01*
X102995720Y-122661336D01*
X102986952Y-122673159D01*
X102977066Y-122684066D01*
X102966159Y-122693952D01*
X102954336Y-122702720D01*
X102941710Y-122710288D01*
X102928403Y-122716582D01*
X102914543Y-122721541D01*
X102900264Y-122725118D01*
X102885703Y-122727278D01*
X102871000Y-122728000D01*
X101221000Y-122728000D01*
X101206297Y-122727278D01*
X101191736Y-122725118D01*
X101177457Y-122721541D01*
X101163597Y-122716582D01*
X101150290Y-122710288D01*
X101137664Y-122702720D01*
X101125841Y-122693952D01*
X101114934Y-122684066D01*
X101105048Y-122673159D01*
X101096280Y-122661336D01*
X101088712Y-122648710D01*
X101082418Y-122635403D01*
X101077459Y-122621543D01*
X101073882Y-122607264D01*
X101071722Y-122592703D01*
X101071000Y-122578000D01*
X101071000Y-122278000D01*
X101071722Y-122263297D01*
X101073882Y-122248736D01*
X101077459Y-122234457D01*
X101082418Y-122220597D01*
X101088712Y-122207290D01*
X101096280Y-122194664D01*
X101105048Y-122182841D01*
X101114934Y-122171934D01*
X101125841Y-122162048D01*
X101137664Y-122153280D01*
X101150290Y-122145712D01*
X101163597Y-122139418D01*
X101177457Y-122134459D01*
X101191736Y-122130882D01*
X101206297Y-122128722D01*
X101221000Y-122128000D01*
X102871000Y-122128000D01*
X102885703Y-122128722D01*
G37*
G04 #@! TD.AperFunction*
G04 #@! TA.AperFunction,SMDPad,CuDef*
G36*
X102885703Y-120858722D02*
G01*
X102900264Y-120860882D01*
X102914543Y-120864459D01*
X102928403Y-120869418D01*
X102941710Y-120875712D01*
X102954336Y-120883280D01*
X102966159Y-120892048D01*
X102977066Y-120901934D01*
X102986952Y-120912841D01*
X102995720Y-120924664D01*
X103003288Y-120937290D01*
X103009582Y-120950597D01*
X103014541Y-120964457D01*
X103018118Y-120978736D01*
X103020278Y-120993297D01*
X103021000Y-121008000D01*
X103021000Y-121308000D01*
X103020278Y-121322703D01*
X103018118Y-121337264D01*
X103014541Y-121351543D01*
X103009582Y-121365403D01*
X103003288Y-121378710D01*
X102995720Y-121391336D01*
X102986952Y-121403159D01*
X102977066Y-121414066D01*
X102966159Y-121423952D01*
X102954336Y-121432720D01*
X102941710Y-121440288D01*
X102928403Y-121446582D01*
X102914543Y-121451541D01*
X102900264Y-121455118D01*
X102885703Y-121457278D01*
X102871000Y-121458000D01*
X101221000Y-121458000D01*
X101206297Y-121457278D01*
X101191736Y-121455118D01*
X101177457Y-121451541D01*
X101163597Y-121446582D01*
X101150290Y-121440288D01*
X101137664Y-121432720D01*
X101125841Y-121423952D01*
X101114934Y-121414066D01*
X101105048Y-121403159D01*
X101096280Y-121391336D01*
X101088712Y-121378710D01*
X101082418Y-121365403D01*
X101077459Y-121351543D01*
X101073882Y-121337264D01*
X101071722Y-121322703D01*
X101071000Y-121308000D01*
X101071000Y-121008000D01*
X101071722Y-120993297D01*
X101073882Y-120978736D01*
X101077459Y-120964457D01*
X101082418Y-120950597D01*
X101088712Y-120937290D01*
X101096280Y-120924664D01*
X101105048Y-120912841D01*
X101114934Y-120901934D01*
X101125841Y-120892048D01*
X101137664Y-120883280D01*
X101150290Y-120875712D01*
X101163597Y-120869418D01*
X101177457Y-120864459D01*
X101191736Y-120860882D01*
X101206297Y-120858722D01*
X101221000Y-120858000D01*
X102871000Y-120858000D01*
X102885703Y-120858722D01*
G37*
G04 #@! TD.AperFunction*
G04 #@! TA.AperFunction,SMDPad,CuDef*
G36*
X102885703Y-119588722D02*
G01*
X102900264Y-119590882D01*
X102914543Y-119594459D01*
X102928403Y-119599418D01*
X102941710Y-119605712D01*
X102954336Y-119613280D01*
X102966159Y-119622048D01*
X102977066Y-119631934D01*
X102986952Y-119642841D01*
X102995720Y-119654664D01*
X103003288Y-119667290D01*
X103009582Y-119680597D01*
X103014541Y-119694457D01*
X103018118Y-119708736D01*
X103020278Y-119723297D01*
X103021000Y-119738000D01*
X103021000Y-120038000D01*
X103020278Y-120052703D01*
X103018118Y-120067264D01*
X103014541Y-120081543D01*
X103009582Y-120095403D01*
X103003288Y-120108710D01*
X102995720Y-120121336D01*
X102986952Y-120133159D01*
X102977066Y-120144066D01*
X102966159Y-120153952D01*
X102954336Y-120162720D01*
X102941710Y-120170288D01*
X102928403Y-120176582D01*
X102914543Y-120181541D01*
X102900264Y-120185118D01*
X102885703Y-120187278D01*
X102871000Y-120188000D01*
X101221000Y-120188000D01*
X101206297Y-120187278D01*
X101191736Y-120185118D01*
X101177457Y-120181541D01*
X101163597Y-120176582D01*
X101150290Y-120170288D01*
X101137664Y-120162720D01*
X101125841Y-120153952D01*
X101114934Y-120144066D01*
X101105048Y-120133159D01*
X101096280Y-120121336D01*
X101088712Y-120108710D01*
X101082418Y-120095403D01*
X101077459Y-120081543D01*
X101073882Y-120067264D01*
X101071722Y-120052703D01*
X101071000Y-120038000D01*
X101071000Y-119738000D01*
X101071722Y-119723297D01*
X101073882Y-119708736D01*
X101077459Y-119694457D01*
X101082418Y-119680597D01*
X101088712Y-119667290D01*
X101096280Y-119654664D01*
X101105048Y-119642841D01*
X101114934Y-119631934D01*
X101125841Y-119622048D01*
X101137664Y-119613280D01*
X101150290Y-119605712D01*
X101163597Y-119599418D01*
X101177457Y-119594459D01*
X101191736Y-119590882D01*
X101206297Y-119588722D01*
X101221000Y-119588000D01*
X102871000Y-119588000D01*
X102885703Y-119588722D01*
G37*
G04 #@! TD.AperFunction*
G04 #@! TA.AperFunction,SMDPad,CuDef*
G36*
X102885703Y-118318722D02*
G01*
X102900264Y-118320882D01*
X102914543Y-118324459D01*
X102928403Y-118329418D01*
X102941710Y-118335712D01*
X102954336Y-118343280D01*
X102966159Y-118352048D01*
X102977066Y-118361934D01*
X102986952Y-118372841D01*
X102995720Y-118384664D01*
X103003288Y-118397290D01*
X103009582Y-118410597D01*
X103014541Y-118424457D01*
X103018118Y-118438736D01*
X103020278Y-118453297D01*
X103021000Y-118468000D01*
X103021000Y-118768000D01*
X103020278Y-118782703D01*
X103018118Y-118797264D01*
X103014541Y-118811543D01*
X103009582Y-118825403D01*
X103003288Y-118838710D01*
X102995720Y-118851336D01*
X102986952Y-118863159D01*
X102977066Y-118874066D01*
X102966159Y-118883952D01*
X102954336Y-118892720D01*
X102941710Y-118900288D01*
X102928403Y-118906582D01*
X102914543Y-118911541D01*
X102900264Y-118915118D01*
X102885703Y-118917278D01*
X102871000Y-118918000D01*
X101221000Y-118918000D01*
X101206297Y-118917278D01*
X101191736Y-118915118D01*
X101177457Y-118911541D01*
X101163597Y-118906582D01*
X101150290Y-118900288D01*
X101137664Y-118892720D01*
X101125841Y-118883952D01*
X101114934Y-118874066D01*
X101105048Y-118863159D01*
X101096280Y-118851336D01*
X101088712Y-118838710D01*
X101082418Y-118825403D01*
X101077459Y-118811543D01*
X101073882Y-118797264D01*
X101071722Y-118782703D01*
X101071000Y-118768000D01*
X101071000Y-118468000D01*
X101071722Y-118453297D01*
X101073882Y-118438736D01*
X101077459Y-118424457D01*
X101082418Y-118410597D01*
X101088712Y-118397290D01*
X101096280Y-118384664D01*
X101105048Y-118372841D01*
X101114934Y-118361934D01*
X101125841Y-118352048D01*
X101137664Y-118343280D01*
X101150290Y-118335712D01*
X101163597Y-118329418D01*
X101177457Y-118324459D01*
X101191736Y-118320882D01*
X101206297Y-118318722D01*
X101221000Y-118318000D01*
X102871000Y-118318000D01*
X102885703Y-118318722D01*
G37*
G04 #@! TD.AperFunction*
G04 #@! TA.AperFunction,SMDPad,CuDef*
G36*
X102885703Y-117048722D02*
G01*
X102900264Y-117050882D01*
X102914543Y-117054459D01*
X102928403Y-117059418D01*
X102941710Y-117065712D01*
X102954336Y-117073280D01*
X102966159Y-117082048D01*
X102977066Y-117091934D01*
X102986952Y-117102841D01*
X102995720Y-117114664D01*
X103003288Y-117127290D01*
X103009582Y-117140597D01*
X103014541Y-117154457D01*
X103018118Y-117168736D01*
X103020278Y-117183297D01*
X103021000Y-117198000D01*
X103021000Y-117498000D01*
X103020278Y-117512703D01*
X103018118Y-117527264D01*
X103014541Y-117541543D01*
X103009582Y-117555403D01*
X103003288Y-117568710D01*
X102995720Y-117581336D01*
X102986952Y-117593159D01*
X102977066Y-117604066D01*
X102966159Y-117613952D01*
X102954336Y-117622720D01*
X102941710Y-117630288D01*
X102928403Y-117636582D01*
X102914543Y-117641541D01*
X102900264Y-117645118D01*
X102885703Y-117647278D01*
X102871000Y-117648000D01*
X101221000Y-117648000D01*
X101206297Y-117647278D01*
X101191736Y-117645118D01*
X101177457Y-117641541D01*
X101163597Y-117636582D01*
X101150290Y-117630288D01*
X101137664Y-117622720D01*
X101125841Y-117613952D01*
X101114934Y-117604066D01*
X101105048Y-117593159D01*
X101096280Y-117581336D01*
X101088712Y-117568710D01*
X101082418Y-117555403D01*
X101077459Y-117541543D01*
X101073882Y-117527264D01*
X101071722Y-117512703D01*
X101071000Y-117498000D01*
X101071000Y-117198000D01*
X101071722Y-117183297D01*
X101073882Y-117168736D01*
X101077459Y-117154457D01*
X101082418Y-117140597D01*
X101088712Y-117127290D01*
X101096280Y-117114664D01*
X101105048Y-117102841D01*
X101114934Y-117091934D01*
X101125841Y-117082048D01*
X101137664Y-117073280D01*
X101150290Y-117065712D01*
X101163597Y-117059418D01*
X101177457Y-117054459D01*
X101191736Y-117050882D01*
X101206297Y-117048722D01*
X101221000Y-117048000D01*
X102871000Y-117048000D01*
X102885703Y-117048722D01*
G37*
G04 #@! TD.AperFunction*
G04 #@! TA.AperFunction,SMDPad,CuDef*
G36*
X102885703Y-115778722D02*
G01*
X102900264Y-115780882D01*
X102914543Y-115784459D01*
X102928403Y-115789418D01*
X102941710Y-115795712D01*
X102954336Y-115803280D01*
X102966159Y-115812048D01*
X102977066Y-115821934D01*
X102986952Y-115832841D01*
X102995720Y-115844664D01*
X103003288Y-115857290D01*
X103009582Y-115870597D01*
X103014541Y-115884457D01*
X103018118Y-115898736D01*
X103020278Y-115913297D01*
X103021000Y-115928000D01*
X103021000Y-116228000D01*
X103020278Y-116242703D01*
X103018118Y-116257264D01*
X103014541Y-116271543D01*
X103009582Y-116285403D01*
X103003288Y-116298710D01*
X102995720Y-116311336D01*
X102986952Y-116323159D01*
X102977066Y-116334066D01*
X102966159Y-116343952D01*
X102954336Y-116352720D01*
X102941710Y-116360288D01*
X102928403Y-116366582D01*
X102914543Y-116371541D01*
X102900264Y-116375118D01*
X102885703Y-116377278D01*
X102871000Y-116378000D01*
X101221000Y-116378000D01*
X101206297Y-116377278D01*
X101191736Y-116375118D01*
X101177457Y-116371541D01*
X101163597Y-116366582D01*
X101150290Y-116360288D01*
X101137664Y-116352720D01*
X101125841Y-116343952D01*
X101114934Y-116334066D01*
X101105048Y-116323159D01*
X101096280Y-116311336D01*
X101088712Y-116298710D01*
X101082418Y-116285403D01*
X101077459Y-116271543D01*
X101073882Y-116257264D01*
X101071722Y-116242703D01*
X101071000Y-116228000D01*
X101071000Y-115928000D01*
X101071722Y-115913297D01*
X101073882Y-115898736D01*
X101077459Y-115884457D01*
X101082418Y-115870597D01*
X101088712Y-115857290D01*
X101096280Y-115844664D01*
X101105048Y-115832841D01*
X101114934Y-115821934D01*
X101125841Y-115812048D01*
X101137664Y-115803280D01*
X101150290Y-115795712D01*
X101163597Y-115789418D01*
X101177457Y-115784459D01*
X101191736Y-115780882D01*
X101206297Y-115778722D01*
X101221000Y-115778000D01*
X102871000Y-115778000D01*
X102885703Y-115778722D01*
G37*
G04 #@! TD.AperFunction*
G04 #@! TA.AperFunction,SMDPad,CuDef*
G36*
X102885703Y-114508722D02*
G01*
X102900264Y-114510882D01*
X102914543Y-114514459D01*
X102928403Y-114519418D01*
X102941710Y-114525712D01*
X102954336Y-114533280D01*
X102966159Y-114542048D01*
X102977066Y-114551934D01*
X102986952Y-114562841D01*
X102995720Y-114574664D01*
X103003288Y-114587290D01*
X103009582Y-114600597D01*
X103014541Y-114614457D01*
X103018118Y-114628736D01*
X103020278Y-114643297D01*
X103021000Y-114658000D01*
X103021000Y-114958000D01*
X103020278Y-114972703D01*
X103018118Y-114987264D01*
X103014541Y-115001543D01*
X103009582Y-115015403D01*
X103003288Y-115028710D01*
X102995720Y-115041336D01*
X102986952Y-115053159D01*
X102977066Y-115064066D01*
X102966159Y-115073952D01*
X102954336Y-115082720D01*
X102941710Y-115090288D01*
X102928403Y-115096582D01*
X102914543Y-115101541D01*
X102900264Y-115105118D01*
X102885703Y-115107278D01*
X102871000Y-115108000D01*
X101221000Y-115108000D01*
X101206297Y-115107278D01*
X101191736Y-115105118D01*
X101177457Y-115101541D01*
X101163597Y-115096582D01*
X101150290Y-115090288D01*
X101137664Y-115082720D01*
X101125841Y-115073952D01*
X101114934Y-115064066D01*
X101105048Y-115053159D01*
X101096280Y-115041336D01*
X101088712Y-115028710D01*
X101082418Y-115015403D01*
X101077459Y-115001543D01*
X101073882Y-114987264D01*
X101071722Y-114972703D01*
X101071000Y-114958000D01*
X101071000Y-114658000D01*
X101071722Y-114643297D01*
X101073882Y-114628736D01*
X101077459Y-114614457D01*
X101082418Y-114600597D01*
X101088712Y-114587290D01*
X101096280Y-114574664D01*
X101105048Y-114562841D01*
X101114934Y-114551934D01*
X101125841Y-114542048D01*
X101137664Y-114533280D01*
X101150290Y-114525712D01*
X101163597Y-114519418D01*
X101177457Y-114514459D01*
X101191736Y-114510882D01*
X101206297Y-114508722D01*
X101221000Y-114508000D01*
X102871000Y-114508000D01*
X102885703Y-114508722D01*
G37*
G04 #@! TD.AperFunction*
D12*
X91948000Y-146543000D03*
X91948000Y-141493000D03*
X94488000Y-146543000D03*
X94488000Y-141493000D03*
X97028000Y-146543000D03*
X97028000Y-141493000D03*
D13*
X115062000Y-143129000D03*
X117602000Y-143129000D03*
D14*
X120142000Y-143129000D03*
D15*
X91059000Y-109855000D03*
X91059000Y-112395000D03*
X91059000Y-114935000D03*
X91059000Y-117475000D03*
X91059000Y-120015000D03*
X91059000Y-122555000D03*
X91059000Y-125095000D03*
X91059000Y-127635000D03*
X113919000Y-127635000D03*
X113919000Y-125095000D03*
X113919000Y-122555000D03*
X113919000Y-120015000D03*
X113919000Y-117475000D03*
X113919000Y-114935000D03*
X113919000Y-112395000D03*
X113919000Y-109855000D03*
D16*
X122047000Y-137795000D03*
D17*
X119507000Y-137795000D03*
X122047000Y-135255000D03*
X119507000Y-135255000D03*
X122047000Y-132715000D03*
X119507000Y-132715000D03*
X122047000Y-130175000D03*
X119507000Y-130175000D03*
D18*
X110871000Y-114808000D03*
X120600000Y-126450000D03*
X123190000Y-118364000D03*
X118872000Y-118364000D03*
X99822000Y-114808000D03*
X100139500Y-146558000D03*
X108966000Y-131572000D03*
X108966000Y-118618000D03*
X105178561Y-114856013D03*
X104151320Y-114450008D03*
D19*
X110744000Y-114808000D02*
X110871000Y-114808000D01*
X106996000Y-114808000D02*
X110744000Y-114808000D01*
X106695000Y-112395000D02*
X106996000Y-112696000D01*
X106996000Y-112696000D02*
X106996000Y-114808000D01*
X105387500Y-112395000D02*
X106695000Y-112395000D01*
D20*
X113919000Y-140429600D02*
X113919000Y-127635000D01*
X115062000Y-141572600D02*
X113919000Y-140429600D01*
X115062000Y-143129000D02*
X115062000Y-141572600D01*
D19*
X118908500Y-126450000D02*
X118872000Y-126413500D01*
X120600000Y-126450000D02*
X118908500Y-126450000D01*
X122264500Y-126450000D02*
X122301000Y-126413500D01*
X120600000Y-126450000D02*
X122264500Y-126450000D01*
X99822000Y-114808000D02*
X102046000Y-114808000D01*
X97043000Y-146558000D02*
X97028000Y-146543000D01*
X100139500Y-146558000D02*
X97043000Y-146558000D01*
X102046000Y-112711000D02*
X102362000Y-112395000D01*
X102046000Y-114808000D02*
X102046000Y-112711000D01*
X99822000Y-114808000D02*
X98425000Y-114808000D01*
X98425000Y-114808000D02*
X98171000Y-115062000D01*
X98171000Y-115062000D02*
X98171000Y-116712500D01*
X100139500Y-146558000D02*
X103837500Y-146558000D01*
X102362000Y-112395000D02*
X103512500Y-112395000D01*
D20*
X120142000Y-143129000D02*
X120142000Y-141351000D01*
X119507000Y-140716000D02*
X119507000Y-137795000D01*
X120142000Y-141351000D02*
X119507000Y-140716000D01*
D19*
X123317000Y-130175000D02*
X122047000Y-130175000D01*
X123825000Y-129667000D02*
X123317000Y-130175000D01*
X122682000Y-122899000D02*
X122301000Y-123280000D01*
X122682000Y-121904000D02*
X122682000Y-122899000D01*
X122301000Y-124538500D02*
X122301000Y-123280000D01*
X123825000Y-129667000D02*
X123825000Y-124925000D01*
X123438500Y-124538500D02*
X122301000Y-124538500D01*
X123825000Y-124925000D02*
X123438500Y-124538500D01*
X117348000Y-129794000D02*
X117729000Y-130175000D01*
X117729000Y-130175000D02*
X119507000Y-130175000D01*
X118684000Y-122875000D02*
X118872000Y-123063000D01*
X118684000Y-121904000D02*
X118684000Y-122875000D01*
X118872000Y-124538500D02*
X118872000Y-123063000D01*
X117348000Y-129794000D02*
X117348000Y-124902000D01*
X117711500Y-124538500D02*
X118872000Y-124538500D01*
X117348000Y-124902000D02*
X117711500Y-124538500D01*
X108013500Y-146558000D02*
X108966000Y-145605500D01*
X108966000Y-118618000D02*
X106996000Y-118618000D01*
X108966000Y-132137685D02*
X108966000Y-131572000D01*
X108966000Y-140540500D02*
X108966000Y-132137685D01*
X105537000Y-120142000D02*
X105537000Y-121920000D01*
X105791000Y-119888000D02*
X105537000Y-120142000D01*
X106996000Y-119888000D02*
X105791000Y-119888000D01*
X102616000Y-124841000D02*
X102362000Y-125095000D01*
X105537000Y-121920000D02*
X102616000Y-124841000D01*
X102347000Y-139853000D02*
X102347000Y-125110000D01*
X100707000Y-141493000D02*
X102347000Y-139853000D01*
X102347000Y-125110000D02*
X102616000Y-124841000D01*
X97028000Y-141493000D02*
X100707000Y-141493000D01*
X115697000Y-114935000D02*
X113919000Y-114935000D01*
X117734000Y-118623000D02*
X116967000Y-117856000D01*
X117734000Y-119904000D02*
X117734000Y-118623000D01*
X115697000Y-114935000D02*
X116967000Y-114935000D01*
X116967000Y-117856000D02*
X116967000Y-114935000D01*
X112691999Y-114935000D02*
X113919000Y-114935000D01*
X112268000Y-114935000D02*
X112691999Y-114935000D01*
X106996000Y-121158000D02*
X108839000Y-121158000D01*
X110109000Y-117094000D02*
X112268000Y-114935000D01*
X110109000Y-119888000D02*
X110109000Y-117094000D01*
X108839000Y-121158000D02*
X110109000Y-119888000D01*
X116967000Y-114935000D02*
X116967000Y-114733000D01*
X117324500Y-114375500D02*
X118872000Y-114375500D01*
X116967000Y-114733000D02*
X117324500Y-114375500D01*
X113919000Y-117475000D02*
X115443000Y-117475000D01*
X115443000Y-117475000D02*
X116078000Y-118110000D01*
X116078000Y-118110000D02*
X116078000Y-120142000D01*
X116078000Y-120142000D02*
X116840000Y-120904000D01*
X121732000Y-120608000D02*
X121732000Y-119904000D01*
X121436000Y-120904000D02*
X121732000Y-120608000D01*
X116840000Y-120904000D02*
X121436000Y-120904000D01*
X121732000Y-119904000D02*
X121732000Y-119065000D01*
X121732000Y-119065000D02*
X120523000Y-117856000D01*
X112014000Y-117475000D02*
X112691999Y-117475000D01*
X110871000Y-118618000D02*
X112014000Y-117475000D01*
X112691999Y-117475000D02*
X113919000Y-117475000D01*
X109220000Y-122428000D02*
X110871000Y-120777000D01*
X110871000Y-120777000D02*
X110871000Y-118618000D01*
X106996000Y-122428000D02*
X109220000Y-122428000D01*
X120523000Y-117856000D02*
X120523000Y-114827000D01*
X120974500Y-114375500D02*
X122275600Y-114375500D01*
X120523000Y-114827000D02*
X120974500Y-114375500D01*
X100076000Y-122428000D02*
X102046000Y-122428000D01*
X95313500Y-127190500D02*
X100076000Y-122428000D01*
X95313500Y-135826500D02*
X95313500Y-127190500D01*
X91948000Y-139192000D02*
X95313500Y-135826500D01*
X91948000Y-141493000D02*
X91948000Y-139192000D01*
X102046000Y-122428000D02*
X103822000Y-122428000D01*
X104778562Y-121471438D02*
X104778562Y-115256012D01*
X104778562Y-115256012D02*
X105178561Y-114856013D01*
X103822000Y-122428000D02*
X104778562Y-121471438D01*
X93647500Y-146543000D02*
X94488000Y-146543000D01*
X93218000Y-146113500D02*
X93647500Y-146543000D01*
X93218000Y-144653000D02*
X93218000Y-146113500D01*
X92583000Y-144018000D02*
X93218000Y-144653000D01*
X91503500Y-144018000D02*
X92583000Y-144018000D01*
X90614500Y-143129000D02*
X91503500Y-144018000D01*
X100203000Y-121158000D02*
X94424500Y-126936500D01*
X90614500Y-139255500D02*
X90614500Y-143129000D01*
X94424500Y-135445500D02*
X90614500Y-139255500D01*
X94424500Y-126936500D02*
X94424500Y-135445500D01*
X102046000Y-121158000D02*
X100203000Y-121158000D01*
X102046000Y-121158000D02*
X104013000Y-121158000D01*
X104151320Y-115015693D02*
X104151320Y-114450008D01*
X104013000Y-121158000D02*
X104151320Y-121019680D01*
X104151320Y-121019680D02*
X104151320Y-115015693D01*
X98201500Y-118618000D02*
X98171000Y-118587500D01*
X102046000Y-118618000D02*
X98201500Y-118618000D01*
X98171000Y-118587500D02*
X95487500Y-118587500D01*
X94375000Y-117475000D02*
X91059000Y-117475000D01*
X95487500Y-118587500D02*
X94375000Y-117475000D01*
X105712500Y-146558000D02*
X108013500Y-146558000D01*
X108966000Y-145605500D02*
X108966000Y-142415500D01*
G36*
X89698701Y-113122095D02*
G01*
X89866688Y-113373505D01*
X90080495Y-113587312D01*
X90196763Y-113665000D01*
X90080495Y-113742688D01*
X89866688Y-113956495D01*
X89698701Y-114207905D01*
X89582989Y-114487257D01*
X89524000Y-114783816D01*
X89524000Y-115086184D01*
X89582989Y-115382743D01*
X89698701Y-115662095D01*
X89866688Y-115913505D01*
X90080495Y-116127312D01*
X90196763Y-116205000D01*
X90080495Y-116282688D01*
X89866688Y-116496495D01*
X89698701Y-116747905D01*
X89582989Y-117027257D01*
X89524000Y-117323816D01*
X89524000Y-117626184D01*
X89582989Y-117922743D01*
X89698701Y-118202095D01*
X89866688Y-118453505D01*
X90080495Y-118667312D01*
X90196763Y-118745000D01*
X90080495Y-118822688D01*
X89866688Y-119036495D01*
X89698701Y-119287905D01*
X89582989Y-119567257D01*
X89524000Y-119863816D01*
X89524000Y-120166184D01*
X89582989Y-120462743D01*
X89698701Y-120742095D01*
X89866688Y-120993505D01*
X90080495Y-121207312D01*
X90196763Y-121285000D01*
X90080495Y-121362688D01*
X89866688Y-121576495D01*
X89698701Y-121827905D01*
X89582989Y-122107257D01*
X89524000Y-122403816D01*
X89524000Y-122706184D01*
X89582989Y-123002743D01*
X89698701Y-123282095D01*
X89866688Y-123533505D01*
X90080495Y-123747312D01*
X90196763Y-123825000D01*
X90080495Y-123902688D01*
X89866688Y-124116495D01*
X89698701Y-124367905D01*
X89582989Y-124647257D01*
X89524000Y-124943816D01*
X89524000Y-125246184D01*
X89582989Y-125542743D01*
X89698701Y-125822095D01*
X89866688Y-126073505D01*
X90080495Y-126287312D01*
X90196763Y-126365000D01*
X90080495Y-126442688D01*
X89866688Y-126656495D01*
X89698701Y-126907905D01*
X89582989Y-127187257D01*
X89524000Y-127483816D01*
X89524000Y-127786184D01*
X89582989Y-128082743D01*
X89698701Y-128362095D01*
X89866688Y-128613505D01*
X90080495Y-128827312D01*
X90331905Y-128995299D01*
X90611257Y-129111011D01*
X90907816Y-129170000D01*
X91210184Y-129170000D01*
X91506743Y-129111011D01*
X91786095Y-128995299D01*
X92037505Y-128827312D01*
X92251312Y-128613505D01*
X92419299Y-128362095D01*
X92535011Y-128082743D01*
X92594000Y-127786184D01*
X92594000Y-127483816D01*
X92535011Y-127187257D01*
X92419299Y-126907905D01*
X92251312Y-126656495D01*
X92037505Y-126442688D01*
X91921237Y-126365000D01*
X92037505Y-126287312D01*
X92251312Y-126073505D01*
X92419299Y-125822095D01*
X92535011Y-125542743D01*
X92594000Y-125246184D01*
X92594000Y-124943816D01*
X92535011Y-124647257D01*
X92419299Y-124367905D01*
X92251312Y-124116495D01*
X92037505Y-123902688D01*
X91921237Y-123825000D01*
X92037505Y-123747312D01*
X92251312Y-123533505D01*
X92419299Y-123282095D01*
X92535011Y-123002743D01*
X92594000Y-122706184D01*
X92594000Y-122403816D01*
X92535011Y-122107257D01*
X92419299Y-121827905D01*
X92251312Y-121576495D01*
X92037505Y-121362688D01*
X91921237Y-121285000D01*
X92037505Y-121207312D01*
X92251312Y-120993505D01*
X92419299Y-120742095D01*
X92535011Y-120462743D01*
X92594000Y-120166184D01*
X92594000Y-119863816D01*
X92535011Y-119567257D01*
X92419299Y-119287905D01*
X92251312Y-119036495D01*
X92037505Y-118822688D01*
X91921237Y-118745000D01*
X92037505Y-118667312D01*
X92251312Y-118453505D01*
X92395976Y-118237000D01*
X94059370Y-118237000D01*
X94922216Y-119099846D01*
X94946078Y-119128922D01*
X95018405Y-119188279D01*
X95062107Y-119224145D01*
X95113014Y-119251355D01*
X95194485Y-119294902D01*
X95338122Y-119338474D01*
X95450074Y-119349500D01*
X95450077Y-119349500D01*
X95487500Y-119353186D01*
X95524923Y-119349500D01*
X97004797Y-119349500D01*
X97091208Y-119454792D01*
X97224836Y-119564458D01*
X97377291Y-119645947D01*
X97542715Y-119696128D01*
X97714750Y-119713072D01*
X98627250Y-119713072D01*
X98799285Y-119696128D01*
X98964709Y-119645947D01*
X99117164Y-119564458D01*
X99250792Y-119454792D01*
X99312172Y-119380000D01*
X100523072Y-119380000D01*
X100492916Y-119436418D01*
X100448071Y-119584255D01*
X100432928Y-119738000D01*
X100432928Y-120038000D01*
X100448071Y-120191745D01*
X100492916Y-120339582D01*
X100523072Y-120396000D01*
X100240422Y-120396000D01*
X100202999Y-120392314D01*
X100165576Y-120396000D01*
X100165574Y-120396000D01*
X100053622Y-120407026D01*
X99909985Y-120450598D01*
X99777608Y-120521355D01*
X99661578Y-120616578D01*
X99637721Y-120645648D01*
X93912154Y-126371216D01*
X93883078Y-126395078D01*
X93858675Y-126424814D01*
X93787855Y-126511108D01*
X93770190Y-126544158D01*
X93717098Y-126643486D01*
X93673526Y-126787123D01*
X93666658Y-126856858D01*
X93658814Y-126936500D01*
X93662500Y-126973923D01*
X93662501Y-135129869D01*
X90102154Y-138690216D01*
X90073078Y-138714078D01*
X90027610Y-138769482D01*
X89977855Y-138830108D01*
X89946281Y-138889180D01*
X89907098Y-138962486D01*
X89863526Y-139106123D01*
X89856690Y-139175537D01*
X89848814Y-139255500D01*
X89852500Y-139292923D01*
X89852501Y-143091567D01*
X89848814Y-143129000D01*
X89863527Y-143278378D01*
X89907099Y-143422015D01*
X89977855Y-143554392D01*
X90049221Y-143641351D01*
X90073079Y-143670422D01*
X90102149Y-143694279D01*
X90938221Y-144530351D01*
X90961963Y-144559282D01*
X90917463Y-144613506D01*
X90858498Y-144723820D01*
X90822188Y-144843518D01*
X90809928Y-144968000D01*
X90813000Y-146257250D01*
X90971750Y-146416000D01*
X91821000Y-146416000D01*
X91821000Y-146396000D01*
X92075000Y-146396000D01*
X92075000Y-146416000D01*
X92095000Y-146416000D01*
X92095000Y-146670000D01*
X92075000Y-146670000D01*
X92075000Y-148594250D01*
X92233750Y-148753000D01*
X92448000Y-148756072D01*
X92572482Y-148743812D01*
X92692180Y-148707502D01*
X92802494Y-148648537D01*
X92899185Y-148569185D01*
X92978537Y-148472494D01*
X93037502Y-148362180D01*
X93073812Y-148242482D01*
X93086072Y-148118000D01*
X93083544Y-147056964D01*
X93106078Y-147084422D01*
X93193610Y-147156257D01*
X93222107Y-147179645D01*
X93292864Y-147217465D01*
X93349928Y-147247966D01*
X93349928Y-148118000D01*
X93362188Y-148242482D01*
X93398498Y-148362180D01*
X93457463Y-148472494D01*
X93536815Y-148569185D01*
X93633506Y-148648537D01*
X93743820Y-148707502D01*
X93863518Y-148743812D01*
X93988000Y-148756072D01*
X94988000Y-148756072D01*
X95112482Y-148743812D01*
X95232180Y-148707502D01*
X95342494Y-148648537D01*
X95439185Y-148569185D01*
X95518537Y-148472494D01*
X95577502Y-148362180D01*
X95613812Y-148242482D01*
X95626072Y-148118000D01*
X95626072Y-144968000D01*
X95889928Y-144968000D01*
X95889928Y-148118000D01*
X95902188Y-148242482D01*
X95938498Y-148362180D01*
X95997463Y-148472494D01*
X96076815Y-148569185D01*
X96173506Y-148648537D01*
X96283820Y-148707502D01*
X96403518Y-148743812D01*
X96528000Y-148756072D01*
X97528000Y-148756072D01*
X97652482Y-148743812D01*
X97772180Y-148707502D01*
X97882494Y-148648537D01*
X97979185Y-148569185D01*
X98058537Y-148472494D01*
X98117502Y-148362180D01*
X98153812Y-148242482D01*
X98166072Y-148118000D01*
X98166072Y-147320000D01*
X99437789Y-147320000D01*
X99479726Y-147361937D01*
X99649244Y-147475205D01*
X99837602Y-147553226D01*
X100037561Y-147593000D01*
X100241439Y-147593000D01*
X100441398Y-147553226D01*
X100629756Y-147475205D01*
X100799274Y-147361937D01*
X100841211Y-147320000D01*
X102769434Y-147320000D01*
X102779053Y-147351709D01*
X102860542Y-147504164D01*
X102970208Y-147637792D01*
X103103836Y-147747458D01*
X103256291Y-147828947D01*
X103421715Y-147879128D01*
X103593750Y-147896072D01*
X104081250Y-147896072D01*
X104253285Y-147879128D01*
X104418709Y-147828947D01*
X104571164Y-147747458D01*
X104704792Y-147637792D01*
X104775000Y-147552244D01*
X104845208Y-147637792D01*
X104978836Y-147747458D01*
X105131291Y-147828947D01*
X105296715Y-147879128D01*
X105468750Y-147896072D01*
X105956250Y-147896072D01*
X106128285Y-147879128D01*
X106293709Y-147828947D01*
X106446164Y-147747458D01*
X106579792Y-147637792D01*
X106689458Y-147504164D01*
X106770947Y-147351709D01*
X106780566Y-147320000D01*
X107976077Y-147320000D01*
X108013500Y-147323686D01*
X108050923Y-147320000D01*
X108050926Y-147320000D01*
X108162878Y-147308974D01*
X108306515Y-147265402D01*
X108438892Y-147194645D01*
X108554922Y-147099422D01*
X108578784Y-147070346D01*
X109478353Y-146170778D01*
X109507422Y-146146922D01*
X109602645Y-146030892D01*
X109673402Y-145898515D01*
X109716974Y-145754878D01*
X109728000Y-145642926D01*
X109728000Y-145642924D01*
X109731686Y-145605501D01*
X109728000Y-145568078D01*
X109728000Y-143483566D01*
X109759709Y-143473947D01*
X109912164Y-143392458D01*
X110045792Y-143282792D01*
X110155458Y-143149164D01*
X110236947Y-142996709D01*
X110287128Y-142831285D01*
X110304072Y-142659250D01*
X110304072Y-142171750D01*
X110287128Y-141999715D01*
X110236947Y-141834291D01*
X110155458Y-141681836D01*
X110045792Y-141548208D01*
X109960244Y-141478000D01*
X110045792Y-141407792D01*
X110155458Y-141274164D01*
X110236947Y-141121709D01*
X110287128Y-140956285D01*
X110304072Y-140784250D01*
X110304072Y-140296750D01*
X110287128Y-140124715D01*
X110236947Y-139959291D01*
X110155458Y-139806836D01*
X110045792Y-139673208D01*
X109912164Y-139563542D01*
X109759709Y-139482053D01*
X109728000Y-139472434D01*
X109728000Y-132273711D01*
X109769937Y-132231774D01*
X109883205Y-132062256D01*
X109961226Y-131873898D01*
X110001000Y-131673939D01*
X110001000Y-131470061D01*
X109961226Y-131270102D01*
X109883205Y-131081744D01*
X109769937Y-130912226D01*
X109625774Y-130768063D01*
X109456256Y-130654795D01*
X109267898Y-130576774D01*
X109067939Y-130537000D01*
X108864061Y-130537000D01*
X108664102Y-130576774D01*
X108475744Y-130654795D01*
X108306226Y-130768063D01*
X108162063Y-130912226D01*
X108048795Y-131081744D01*
X107970774Y-131270102D01*
X107931000Y-131470061D01*
X107931000Y-131673939D01*
X107970774Y-131873898D01*
X108048795Y-132062256D01*
X108162063Y-132231774D01*
X108204001Y-132273712D01*
X108204000Y-139472434D01*
X108172291Y-139482053D01*
X108019836Y-139563542D01*
X107886208Y-139673208D01*
X107776542Y-139806836D01*
X107695053Y-139959291D01*
X107644872Y-140124715D01*
X107627928Y-140296750D01*
X107627928Y-140784250D01*
X107644872Y-140956285D01*
X107695053Y-141121709D01*
X107776542Y-141274164D01*
X107886208Y-141407792D01*
X107971756Y-141478000D01*
X107886208Y-141548208D01*
X107776542Y-141681836D01*
X107695053Y-141834291D01*
X107644872Y-141999715D01*
X107627928Y-142171750D01*
X107627928Y-142659250D01*
X107644872Y-142831285D01*
X107695053Y-142996709D01*
X107776542Y-143149164D01*
X107886208Y-143282792D01*
X108019836Y-143392458D01*
X108172291Y-143473947D01*
X108204001Y-143483566D01*
X108204000Y-145289869D01*
X107697870Y-145796000D01*
X106780566Y-145796000D01*
X106770947Y-145764291D01*
X106689458Y-145611836D01*
X106579792Y-145478208D01*
X106446164Y-145368542D01*
X106293709Y-145287053D01*
X106128285Y-145236872D01*
X105956250Y-145219928D01*
X105468750Y-145219928D01*
X105296715Y-145236872D01*
X105131291Y-145287053D01*
X104978836Y-145368542D01*
X104845208Y-145478208D01*
X104775000Y-145563756D01*
X104704792Y-145478208D01*
X104571164Y-145368542D01*
X104418709Y-145287053D01*
X104253285Y-145236872D01*
X104081250Y-145219928D01*
X103593750Y-145219928D01*
X103421715Y-145236872D01*
X103256291Y-145287053D01*
X103103836Y-145368542D01*
X102970208Y-145478208D01*
X102860542Y-145611836D01*
X102779053Y-145764291D01*
X102769434Y-145796000D01*
X100841211Y-145796000D01*
X100799274Y-145754063D01*
X100629756Y-145640795D01*
X100441398Y-145562774D01*
X100241439Y-145523000D01*
X100037561Y-145523000D01*
X99837602Y-145562774D01*
X99649244Y-145640795D01*
X99479726Y-145754063D01*
X99437789Y-145796000D01*
X98166072Y-145796000D01*
X98166072Y-144968000D01*
X98153812Y-144843518D01*
X98117502Y-144723820D01*
X98058537Y-144613506D01*
X97979185Y-144516815D01*
X97882494Y-144437463D01*
X97772180Y-144378498D01*
X97652482Y-144342188D01*
X97528000Y-144329928D01*
X96528000Y-144329928D01*
X96403518Y-144342188D01*
X96283820Y-144378498D01*
X96173506Y-144437463D01*
X96076815Y-144516815D01*
X95997463Y-144613506D01*
X95938498Y-144723820D01*
X95902188Y-144843518D01*
X95889928Y-144968000D01*
X95626072Y-144968000D01*
X95613812Y-144843518D01*
X95577502Y-144723820D01*
X95518537Y-144613506D01*
X95439185Y-144516815D01*
X95342494Y-144437463D01*
X95232180Y-144378498D01*
X95112482Y-144342188D01*
X94988000Y-144329928D01*
X93988000Y-144329928D01*
X93913270Y-144337288D01*
X93854646Y-144227609D01*
X93854645Y-144227607D01*
X93812578Y-144176349D01*
X93759422Y-144111578D01*
X93730347Y-144087717D01*
X93148284Y-143505654D01*
X93124422Y-143476578D01*
X93008392Y-143381355D01*
X93002274Y-143378085D01*
X93037502Y-143312180D01*
X93073812Y-143192482D01*
X93086072Y-143068000D01*
X93086072Y-139918000D01*
X93349928Y-139918000D01*
X93349928Y-143068000D01*
X93362188Y-143192482D01*
X93398498Y-143312180D01*
X93457463Y-143422494D01*
X93536815Y-143519185D01*
X93633506Y-143598537D01*
X93743820Y-143657502D01*
X93863518Y-143693812D01*
X93988000Y-143706072D01*
X94988000Y-143706072D01*
X95112482Y-143693812D01*
X95232180Y-143657502D01*
X95342494Y-143598537D01*
X95439185Y-143519185D01*
X95518537Y-143422494D01*
X95577502Y-143312180D01*
X95613812Y-143192482D01*
X95626072Y-143068000D01*
X95626072Y-139918000D01*
X95613812Y-139793518D01*
X95577502Y-139673820D01*
X95518537Y-139563506D01*
X95439185Y-139466815D01*
X95342494Y-139387463D01*
X95232180Y-139328498D01*
X95112482Y-139292188D01*
X94988000Y-139279928D01*
X93988000Y-139279928D01*
X93863518Y-139292188D01*
X93743820Y-139328498D01*
X93633506Y-139387463D01*
X93536815Y-139466815D01*
X93457463Y-139563506D01*
X93398498Y-139673820D01*
X93362188Y-139793518D01*
X93349928Y-139918000D01*
X93086072Y-139918000D01*
X93073812Y-139793518D01*
X93037502Y-139673820D01*
X92978537Y-139563506D01*
X92899185Y-139466815D01*
X92817693Y-139399937D01*
X95825853Y-136391778D01*
X95854922Y-136367922D01*
X95902457Y-136310000D01*
X95950145Y-136251893D01*
X96020901Y-136119516D01*
X96020902Y-136119515D01*
X96064474Y-135975878D01*
X96075500Y-135863926D01*
X96075500Y-135863923D01*
X96079186Y-135826500D01*
X96075500Y-135789077D01*
X96075500Y-127506130D01*
X100391631Y-123190000D01*
X100730461Y-123190000D01*
X100783171Y-123233258D01*
X100919418Y-123306084D01*
X101067255Y-123350929D01*
X101221000Y-123366072D01*
X102871000Y-123366072D01*
X103024745Y-123350929D01*
X103030050Y-123349320D01*
X101834649Y-124544721D01*
X101805579Y-124568578D01*
X101781722Y-124597648D01*
X101781721Y-124597649D01*
X101710355Y-124684608D01*
X101639599Y-124816985D01*
X101596027Y-124960622D01*
X101581314Y-125110000D01*
X101585001Y-125147433D01*
X101585000Y-139537369D01*
X100391370Y-140731000D01*
X98166072Y-140731000D01*
X98166072Y-139918000D01*
X98153812Y-139793518D01*
X98117502Y-139673820D01*
X98058537Y-139563506D01*
X97979185Y-139466815D01*
X97882494Y-139387463D01*
X97772180Y-139328498D01*
X97652482Y-139292188D01*
X97528000Y-139279928D01*
X96528000Y-139279928D01*
X96403518Y-139292188D01*
X96283820Y-139328498D01*
X96173506Y-139387463D01*
X96076815Y-139466815D01*
X95997463Y-139563506D01*
X95938498Y-139673820D01*
X95902188Y-139793518D01*
X95889928Y-139918000D01*
X95889928Y-143068000D01*
X95902188Y-143192482D01*
X95938498Y-143312180D01*
X95997463Y-143422494D01*
X96076815Y-143519185D01*
X96173506Y-143598537D01*
X96283820Y-143657502D01*
X96403518Y-143693812D01*
X96528000Y-143706072D01*
X97528000Y-143706072D01*
X97652482Y-143693812D01*
X97772180Y-143657502D01*
X97882494Y-143598537D01*
X97979185Y-143519185D01*
X98058537Y-143422494D01*
X98117502Y-143312180D01*
X98153812Y-143192482D01*
X98166072Y-143068000D01*
X98166072Y-142255000D01*
X100669577Y-142255000D01*
X100707000Y-142258686D01*
X100744423Y-142255000D01*
X100744426Y-142255000D01*
X100856378Y-142243974D01*
X101000015Y-142200402D01*
X101132392Y-142129645D01*
X101248422Y-142034422D01*
X101272284Y-142005346D01*
X102859353Y-140418278D01*
X102888422Y-140394422D01*
X102983645Y-140278392D01*
X103054402Y-140146015D01*
X103097974Y-140002378D01*
X103109000Y-139890426D01*
X103109000Y-139890424D01*
X103112686Y-139853001D01*
X103109000Y-139815578D01*
X103109000Y-127483816D01*
X112384000Y-127483816D01*
X112384000Y-127786184D01*
X112442989Y-128082743D01*
X112558701Y-128362095D01*
X112726688Y-128613505D01*
X112940495Y-128827312D01*
X113080801Y-128921062D01*
X113080800Y-140388437D01*
X113076746Y-140429600D01*
X113080800Y-140470763D01*
X113080800Y-140470769D01*
X113092929Y-140593915D01*
X113140858Y-140751916D01*
X113218691Y-140897531D01*
X113323436Y-141025164D01*
X113355418Y-141051411D01*
X114064850Y-141760844D01*
X113904843Y-141955812D01*
X113776236Y-142196419D01*
X113697040Y-142457493D01*
X113677000Y-142660963D01*
X113677000Y-143597036D01*
X113697040Y-143800506D01*
X113776236Y-144061580D01*
X113904843Y-144302187D01*
X114077919Y-144513080D01*
X114288812Y-144686157D01*
X114529419Y-144814764D01*
X114790493Y-144893960D01*
X115062000Y-144920701D01*
X115333506Y-144893960D01*
X115594580Y-144814764D01*
X115835187Y-144686157D01*
X116046080Y-144513081D01*
X116219157Y-144302188D01*
X116334486Y-144086422D01*
X116371028Y-144176349D01*
X116520972Y-144404061D01*
X116712460Y-144598145D01*
X116938132Y-144751142D01*
X117189316Y-144857173D01*
X117260815Y-144871318D01*
X117475000Y-144748656D01*
X117475000Y-143256000D01*
X117455000Y-143256000D01*
X117455000Y-143002000D01*
X117475000Y-143002000D01*
X117475000Y-141509344D01*
X117260815Y-141386682D01*
X117189316Y-141400827D01*
X116938132Y-141506858D01*
X116712460Y-141659855D01*
X116520972Y-141853939D01*
X116371028Y-142081651D01*
X116334486Y-142171578D01*
X116219157Y-141955812D01*
X116046081Y-141744919D01*
X115900200Y-141625197D01*
X115900200Y-141613762D01*
X115904254Y-141572599D01*
X115900200Y-141531436D01*
X115900200Y-141531430D01*
X115888071Y-141408284D01*
X115840142Y-141250283D01*
X115762309Y-141104668D01*
X115657564Y-140977036D01*
X115625587Y-140950793D01*
X114757200Y-140082407D01*
X114757200Y-128921061D01*
X114897505Y-128827312D01*
X115111312Y-128613505D01*
X115279299Y-128362095D01*
X115395011Y-128082743D01*
X115454000Y-127786184D01*
X115454000Y-127483816D01*
X115395011Y-127187257D01*
X115279299Y-126907905D01*
X115111312Y-126656495D01*
X114897505Y-126442688D01*
X114743895Y-126340049D01*
X114803475Y-126159080D01*
X113919000Y-125274605D01*
X113034525Y-126159080D01*
X113094105Y-126340049D01*
X112940495Y-126442688D01*
X112726688Y-126656495D01*
X112558701Y-126907905D01*
X112442989Y-127187257D01*
X112384000Y-127483816D01*
X103109000Y-127483816D01*
X103109000Y-125425630D01*
X103181279Y-125353351D01*
X103373077Y-125161553D01*
X112378009Y-125161553D01*
X112420603Y-125460907D01*
X112520778Y-125746199D01*
X112600739Y-125895792D01*
X112854920Y-125979475D01*
X113739395Y-125095000D01*
X114098605Y-125095000D01*
X114983080Y-125979475D01*
X115237261Y-125895792D01*
X115368158Y-125623225D01*
X115443365Y-125330358D01*
X115459991Y-125028447D01*
X115417397Y-124729093D01*
X115317222Y-124443801D01*
X115237261Y-124294208D01*
X114983080Y-124210525D01*
X114098605Y-125095000D01*
X113739395Y-125095000D01*
X112854920Y-124210525D01*
X112600739Y-124294208D01*
X112469842Y-124566775D01*
X112394635Y-124859642D01*
X112378009Y-125161553D01*
X103373077Y-125161553D01*
X105517121Y-123017510D01*
X105613749Y-123135251D01*
X105733171Y-123233258D01*
X105869418Y-123306084D01*
X106017255Y-123350929D01*
X106171000Y-123366072D01*
X107821000Y-123366072D01*
X107974745Y-123350929D01*
X108122582Y-123306084D01*
X108258829Y-123233258D01*
X108311539Y-123190000D01*
X109182577Y-123190000D01*
X109220000Y-123193686D01*
X109257423Y-123190000D01*
X109257426Y-123190000D01*
X109369378Y-123178974D01*
X109513015Y-123135402D01*
X109645392Y-123064645D01*
X109761422Y-122969422D01*
X109785284Y-122940346D01*
X111383347Y-121342283D01*
X111412422Y-121318422D01*
X111472969Y-121244645D01*
X111507645Y-121202393D01*
X111551497Y-121120351D01*
X111578402Y-121070015D01*
X111621974Y-120926378D01*
X111633000Y-120814426D01*
X111633000Y-120814423D01*
X111636686Y-120777000D01*
X111633000Y-120739577D01*
X111633000Y-118933630D01*
X112329631Y-118237000D01*
X112582024Y-118237000D01*
X112726688Y-118453505D01*
X112940495Y-118667312D01*
X113056763Y-118745000D01*
X112940495Y-118822688D01*
X112726688Y-119036495D01*
X112558701Y-119287905D01*
X112442989Y-119567257D01*
X112384000Y-119863816D01*
X112384000Y-120166184D01*
X112442989Y-120462743D01*
X112558701Y-120742095D01*
X112726688Y-120993505D01*
X112940495Y-121207312D01*
X113056763Y-121285000D01*
X112940495Y-121362688D01*
X112726688Y-121576495D01*
X112558701Y-121827905D01*
X112442989Y-122107257D01*
X112384000Y-122403816D01*
X112384000Y-122706184D01*
X112442989Y-123002743D01*
X112558701Y-123282095D01*
X112726688Y-123533505D01*
X112940495Y-123747312D01*
X113094105Y-123849951D01*
X113034525Y-124030920D01*
X113919000Y-124915395D01*
X114803475Y-124030920D01*
X114743895Y-123849951D01*
X114897505Y-123747312D01*
X115111312Y-123533505D01*
X115209705Y-123386250D01*
X115210403Y-123387557D01*
X115226197Y-123406803D01*
X115245443Y-123422597D01*
X115267399Y-123434333D01*
X115291224Y-123441560D01*
X115316000Y-123444000D01*
X118110001Y-123444000D01*
X118110001Y-123470434D01*
X118078291Y-123480053D01*
X117925836Y-123561542D01*
X117792208Y-123671208D01*
X117708586Y-123773101D01*
X117674077Y-123776500D01*
X117674074Y-123776500D01*
X117562122Y-123787526D01*
X117418485Y-123831098D01*
X117286108Y-123901855D01*
X117170078Y-123997078D01*
X117146212Y-124026159D01*
X116835650Y-124336720D01*
X116806579Y-124360578D01*
X116782722Y-124389648D01*
X116782721Y-124389649D01*
X116711355Y-124476608D01*
X116640599Y-124608985D01*
X116597027Y-124752622D01*
X116582314Y-124902000D01*
X116586001Y-124939433D01*
X116586000Y-129756577D01*
X116582314Y-129794000D01*
X116586000Y-129831423D01*
X116586000Y-129831425D01*
X116597026Y-129943377D01*
X116640598Y-130087014D01*
X116673535Y-130148635D01*
X116711355Y-130219392D01*
X116750983Y-130267678D01*
X116806578Y-130335422D01*
X116835654Y-130359284D01*
X117163716Y-130687346D01*
X117187578Y-130716422D01*
X117303608Y-130811645D01*
X117435985Y-130882402D01*
X117579622Y-130925974D01*
X117691574Y-130937000D01*
X117691576Y-130937000D01*
X117728999Y-130940686D01*
X117766422Y-130937000D01*
X118230158Y-130937000D01*
X118353525Y-131121632D01*
X118560368Y-131328475D01*
X118734760Y-131445000D01*
X118560368Y-131561525D01*
X118353525Y-131768368D01*
X118191010Y-132011589D01*
X118079068Y-132281842D01*
X118022000Y-132568740D01*
X118022000Y-132861260D01*
X118079068Y-133148158D01*
X118191010Y-133418411D01*
X118353525Y-133661632D01*
X118560368Y-133868475D01*
X118734760Y-133985000D01*
X118560368Y-134101525D01*
X118353525Y-134308368D01*
X118191010Y-134551589D01*
X118079068Y-134821842D01*
X118022000Y-135108740D01*
X118022000Y-135401260D01*
X118079068Y-135688158D01*
X118191010Y-135958411D01*
X118353525Y-136201632D01*
X118560368Y-136408475D01*
X118734760Y-136525000D01*
X118560368Y-136641525D01*
X118353525Y-136848368D01*
X118191010Y-137091589D01*
X118079068Y-137361842D01*
X118022000Y-137648740D01*
X118022000Y-137941260D01*
X118079068Y-138228158D01*
X118191010Y-138498411D01*
X118353525Y-138741632D01*
X118560368Y-138948475D01*
X118668801Y-139020927D01*
X118668800Y-140674837D01*
X118664746Y-140716000D01*
X118668800Y-140757163D01*
X118668800Y-140757169D01*
X118680929Y-140880315D01*
X118728858Y-141038316D01*
X118806691Y-141183931D01*
X118911436Y-141311564D01*
X118943417Y-141337811D01*
X119048300Y-141442693D01*
X119037506Y-141448463D01*
X118940815Y-141527815D01*
X118861463Y-141624506D01*
X118802498Y-141734820D01*
X118766188Y-141854518D01*
X118755418Y-141963874D01*
X118683028Y-141853939D01*
X118491540Y-141659855D01*
X118265868Y-141506858D01*
X118014684Y-141400827D01*
X117943185Y-141386682D01*
X117729000Y-141509344D01*
X117729000Y-143002000D01*
X117749000Y-143002000D01*
X117749000Y-143256000D01*
X117729000Y-143256000D01*
X117729000Y-144748656D01*
X117943185Y-144871318D01*
X118014684Y-144857173D01*
X118265868Y-144751142D01*
X118491540Y-144598145D01*
X118683028Y-144404061D01*
X118755418Y-144294126D01*
X118766188Y-144403482D01*
X118802498Y-144523180D01*
X118861463Y-144633494D01*
X118940815Y-144730185D01*
X119037506Y-144809537D01*
X119147820Y-144868502D01*
X119267518Y-144904812D01*
X119392000Y-144917072D01*
X120892000Y-144917072D01*
X121016482Y-144904812D01*
X121136180Y-144868502D01*
X121246494Y-144809537D01*
X121343185Y-144730185D01*
X121422537Y-144633494D01*
X121481502Y-144523180D01*
X121517812Y-144403482D01*
X121530072Y-144279000D01*
X121530072Y-141979000D01*
X121517812Y-141854518D01*
X121481502Y-141734820D01*
X121422537Y-141624506D01*
X121343185Y-141527815D01*
X121246494Y-141448463D01*
X121136180Y-141389498D01*
X121016482Y-141353188D01*
X120984156Y-141350004D01*
X120980200Y-141309837D01*
X120980200Y-141309830D01*
X120968071Y-141186684D01*
X120920142Y-141028683D01*
X120842309Y-140883068D01*
X120737564Y-140755436D01*
X120705587Y-140729193D01*
X120345200Y-140368807D01*
X120345200Y-139020927D01*
X120453632Y-138948475D01*
X120585487Y-138816620D01*
X120607498Y-138889180D01*
X120666463Y-138999494D01*
X120745815Y-139096185D01*
X120842506Y-139175537D01*
X120952820Y-139234502D01*
X121072518Y-139270812D01*
X121197000Y-139283072D01*
X122897000Y-139283072D01*
X123021482Y-139270812D01*
X123141180Y-139234502D01*
X123251494Y-139175537D01*
X123348185Y-139096185D01*
X123427537Y-138999494D01*
X123486502Y-138889180D01*
X123522812Y-138769482D01*
X123535072Y-138645000D01*
X123535072Y-136945000D01*
X123522812Y-136820518D01*
X123486502Y-136700820D01*
X123427537Y-136590506D01*
X123348185Y-136493815D01*
X123251494Y-136414463D01*
X123141180Y-136355498D01*
X123068620Y-136333487D01*
X123200475Y-136201632D01*
X123362990Y-135958411D01*
X123474932Y-135688158D01*
X123532000Y-135401260D01*
X123532000Y-135108740D01*
X123474932Y-134821842D01*
X123362990Y-134551589D01*
X123200475Y-134308368D01*
X122993632Y-134101525D01*
X122811466Y-133979805D01*
X122928355Y-133910178D01*
X123144588Y-133715269D01*
X123318641Y-133481920D01*
X123443825Y-133219099D01*
X123488476Y-133071890D01*
X123367155Y-132842000D01*
X122174000Y-132842000D01*
X122174000Y-132862000D01*
X121920000Y-132862000D01*
X121920000Y-132842000D01*
X121900000Y-132842000D01*
X121900000Y-132588000D01*
X121920000Y-132588000D01*
X121920000Y-132568000D01*
X122174000Y-132568000D01*
X122174000Y-132588000D01*
X123367155Y-132588000D01*
X123488476Y-132358110D01*
X123443825Y-132210901D01*
X123318641Y-131948080D01*
X123144588Y-131714731D01*
X122928355Y-131519822D01*
X122811466Y-131450195D01*
X122993632Y-131328475D01*
X123200475Y-131121632D01*
X123321688Y-130940224D01*
X123354423Y-130937000D01*
X123354426Y-130937000D01*
X123466378Y-130925974D01*
X123610015Y-130882402D01*
X123742392Y-130811645D01*
X123858422Y-130716422D01*
X123882284Y-130687346D01*
X124337347Y-130232283D01*
X124366422Y-130208422D01*
X124461645Y-130092392D01*
X124532402Y-129960015D01*
X124575974Y-129816378D01*
X124587000Y-129704426D01*
X124587000Y-129704417D01*
X124590685Y-129667001D01*
X124587000Y-129629585D01*
X124587000Y-124962423D01*
X124590686Y-124925000D01*
X124587000Y-124887574D01*
X124575974Y-124775622D01*
X124532402Y-124631985D01*
X124461645Y-124499608D01*
X124366422Y-124383578D01*
X124337341Y-124359712D01*
X124003784Y-124026154D01*
X123979922Y-123997078D01*
X123863892Y-123901855D01*
X123731515Y-123831098D01*
X123587878Y-123787526D01*
X123475926Y-123776500D01*
X123475923Y-123776500D01*
X123466436Y-123775566D01*
X123380792Y-123671208D01*
X123247164Y-123561542D01*
X123149364Y-123509266D01*
X123194346Y-123464284D01*
X123219062Y-123444000D01*
X124654000Y-123444000D01*
X124654001Y-148682998D01*
X124637361Y-148852707D01*
X124597951Y-148983238D01*
X124533933Y-149103638D01*
X124447753Y-149209305D01*
X124342690Y-149296221D01*
X124222743Y-149361076D01*
X124092488Y-149401397D01*
X123925005Y-149419000D01*
X85123991Y-149419000D01*
X84830954Y-149390268D01*
X84581782Y-149315038D01*
X84351959Y-149192840D01*
X84150254Y-149028333D01*
X83984339Y-148827776D01*
X83860542Y-148598819D01*
X83783573Y-148350170D01*
X83759172Y-148118000D01*
X90809928Y-148118000D01*
X90822188Y-148242482D01*
X90858498Y-148362180D01*
X90917463Y-148472494D01*
X90996815Y-148569185D01*
X91093506Y-148648537D01*
X91203820Y-148707502D01*
X91323518Y-148743812D01*
X91448000Y-148756072D01*
X91662250Y-148753000D01*
X91821000Y-148594250D01*
X91821000Y-146670000D01*
X90971750Y-146670000D01*
X90813000Y-146828750D01*
X90809928Y-148118000D01*
X83759172Y-148118000D01*
X83753000Y-148059286D01*
X83753000Y-113030000D01*
X89660554Y-113030000D01*
X89698701Y-113122095D01*
G37*
X89698701Y-113122095D02*
X89866688Y-113373505D01*
X90080495Y-113587312D01*
X90196763Y-113665000D01*
X90080495Y-113742688D01*
X89866688Y-113956495D01*
X89698701Y-114207905D01*
X89582989Y-114487257D01*
X89524000Y-114783816D01*
X89524000Y-115086184D01*
X89582989Y-115382743D01*
X89698701Y-115662095D01*
X89866688Y-115913505D01*
X90080495Y-116127312D01*
X90196763Y-116205000D01*
X90080495Y-116282688D01*
X89866688Y-116496495D01*
X89698701Y-116747905D01*
X89582989Y-117027257D01*
X89524000Y-117323816D01*
X89524000Y-117626184D01*
X89582989Y-117922743D01*
X89698701Y-118202095D01*
X89866688Y-118453505D01*
X90080495Y-118667312D01*
X90196763Y-118745000D01*
X90080495Y-118822688D01*
X89866688Y-119036495D01*
X89698701Y-119287905D01*
X89582989Y-119567257D01*
X89524000Y-119863816D01*
X89524000Y-120166184D01*
X89582989Y-120462743D01*
X89698701Y-120742095D01*
X89866688Y-120993505D01*
X90080495Y-121207312D01*
X90196763Y-121285000D01*
X90080495Y-121362688D01*
X89866688Y-121576495D01*
X89698701Y-121827905D01*
X89582989Y-122107257D01*
X89524000Y-122403816D01*
X89524000Y-122706184D01*
X89582989Y-123002743D01*
X89698701Y-123282095D01*
X89866688Y-123533505D01*
X90080495Y-123747312D01*
X90196763Y-123825000D01*
X90080495Y-123902688D01*
X89866688Y-124116495D01*
X89698701Y-124367905D01*
X89582989Y-124647257D01*
X89524000Y-124943816D01*
X89524000Y-125246184D01*
X89582989Y-125542743D01*
X89698701Y-125822095D01*
X89866688Y-126073505D01*
X90080495Y-126287312D01*
X90196763Y-126365000D01*
X90080495Y-126442688D01*
X89866688Y-126656495D01*
X89698701Y-126907905D01*
X89582989Y-127187257D01*
X89524000Y-127483816D01*
X89524000Y-127786184D01*
X89582989Y-128082743D01*
X89698701Y-128362095D01*
X89866688Y-128613505D01*
X90080495Y-128827312D01*
X90331905Y-128995299D01*
X90611257Y-129111011D01*
X90907816Y-129170000D01*
X91210184Y-129170000D01*
X91506743Y-129111011D01*
X91786095Y-128995299D01*
X92037505Y-128827312D01*
X92251312Y-128613505D01*
X92419299Y-128362095D01*
X92535011Y-128082743D01*
X92594000Y-127786184D01*
X92594000Y-127483816D01*
X92535011Y-127187257D01*
X92419299Y-126907905D01*
X92251312Y-126656495D01*
X92037505Y-126442688D01*
X91921237Y-126365000D01*
X92037505Y-126287312D01*
X92251312Y-126073505D01*
X92419299Y-125822095D01*
X92535011Y-125542743D01*
X92594000Y-125246184D01*
X92594000Y-124943816D01*
X92535011Y-124647257D01*
X92419299Y-124367905D01*
X92251312Y-124116495D01*
X92037505Y-123902688D01*
X91921237Y-123825000D01*
X92037505Y-123747312D01*
X92251312Y-123533505D01*
X92419299Y-123282095D01*
X92535011Y-123002743D01*
X92594000Y-122706184D01*
X92594000Y-122403816D01*
X92535011Y-122107257D01*
X92419299Y-121827905D01*
X92251312Y-121576495D01*
X92037505Y-121362688D01*
X91921237Y-121285000D01*
X92037505Y-121207312D01*
X92251312Y-120993505D01*
X92419299Y-120742095D01*
X92535011Y-120462743D01*
X92594000Y-120166184D01*
X92594000Y-119863816D01*
X92535011Y-119567257D01*
X92419299Y-119287905D01*
X92251312Y-119036495D01*
X92037505Y-118822688D01*
X91921237Y-118745000D01*
X92037505Y-118667312D01*
X92251312Y-118453505D01*
X92395976Y-118237000D01*
X94059370Y-118237000D01*
X94922216Y-119099846D01*
X94946078Y-119128922D01*
X95018405Y-119188279D01*
X95062107Y-119224145D01*
X95113014Y-119251355D01*
X95194485Y-119294902D01*
X95338122Y-119338474D01*
X95450074Y-119349500D01*
X95450077Y-119349500D01*
X95487500Y-119353186D01*
X95524923Y-119349500D01*
X97004797Y-119349500D01*
X97091208Y-119454792D01*
X97224836Y-119564458D01*
X97377291Y-119645947D01*
X97542715Y-119696128D01*
X97714750Y-119713072D01*
X98627250Y-119713072D01*
X98799285Y-119696128D01*
X98964709Y-119645947D01*
X99117164Y-119564458D01*
X99250792Y-119454792D01*
X99312172Y-119380000D01*
X100523072Y-119380000D01*
X100492916Y-119436418D01*
X100448071Y-119584255D01*
X100432928Y-119738000D01*
X100432928Y-120038000D01*
X100448071Y-120191745D01*
X100492916Y-120339582D01*
X100523072Y-120396000D01*
X100240422Y-120396000D01*
X100202999Y-120392314D01*
X100165576Y-120396000D01*
X100165574Y-120396000D01*
X100053622Y-120407026D01*
X99909985Y-120450598D01*
X99777608Y-120521355D01*
X99661578Y-120616578D01*
X99637721Y-120645648D01*
X93912154Y-126371216D01*
X93883078Y-126395078D01*
X93858675Y-126424814D01*
X93787855Y-126511108D01*
X93770190Y-126544158D01*
X93717098Y-126643486D01*
X93673526Y-126787123D01*
X93666658Y-126856858D01*
X93658814Y-126936500D01*
X93662500Y-126973923D01*
X93662501Y-135129869D01*
X90102154Y-138690216D01*
X90073078Y-138714078D01*
X90027610Y-138769482D01*
X89977855Y-138830108D01*
X89946281Y-138889180D01*
X89907098Y-138962486D01*
X89863526Y-139106123D01*
X89856690Y-139175537D01*
X89848814Y-139255500D01*
X89852500Y-139292923D01*
X89852501Y-143091567D01*
X89848814Y-143129000D01*
X89863527Y-143278378D01*
X89907099Y-143422015D01*
X89977855Y-143554392D01*
X90049221Y-143641351D01*
X90073079Y-143670422D01*
X90102149Y-143694279D01*
X90938221Y-144530351D01*
X90961963Y-144559282D01*
X90917463Y-144613506D01*
X90858498Y-144723820D01*
X90822188Y-144843518D01*
X90809928Y-144968000D01*
X90813000Y-146257250D01*
X90971750Y-146416000D01*
X91821000Y-146416000D01*
X91821000Y-146396000D01*
X92075000Y-146396000D01*
X92075000Y-146416000D01*
X92095000Y-146416000D01*
X92095000Y-146670000D01*
X92075000Y-146670000D01*
X92075000Y-148594250D01*
X92233750Y-148753000D01*
X92448000Y-148756072D01*
X92572482Y-148743812D01*
X92692180Y-148707502D01*
X92802494Y-148648537D01*
X92899185Y-148569185D01*
X92978537Y-148472494D01*
X93037502Y-148362180D01*
X93073812Y-148242482D01*
X93086072Y-148118000D01*
X93083544Y-147056964D01*
X93106078Y-147084422D01*
X93193610Y-147156257D01*
X93222107Y-147179645D01*
X93292864Y-147217465D01*
X93349928Y-147247966D01*
X93349928Y-148118000D01*
X93362188Y-148242482D01*
X93398498Y-148362180D01*
X93457463Y-148472494D01*
X93536815Y-148569185D01*
X93633506Y-148648537D01*
X93743820Y-148707502D01*
X93863518Y-148743812D01*
X93988000Y-148756072D01*
X94988000Y-148756072D01*
X95112482Y-148743812D01*
X95232180Y-148707502D01*
X95342494Y-148648537D01*
X95439185Y-148569185D01*
X95518537Y-148472494D01*
X95577502Y-148362180D01*
X95613812Y-148242482D01*
X95626072Y-148118000D01*
X95626072Y-144968000D01*
X95889928Y-144968000D01*
X95889928Y-148118000D01*
X95902188Y-148242482D01*
X95938498Y-148362180D01*
X95997463Y-148472494D01*
X96076815Y-148569185D01*
X96173506Y-148648537D01*
X96283820Y-148707502D01*
X96403518Y-148743812D01*
X96528000Y-148756072D01*
X97528000Y-148756072D01*
X97652482Y-148743812D01*
X97772180Y-148707502D01*
X97882494Y-148648537D01*
X97979185Y-148569185D01*
X98058537Y-148472494D01*
X98117502Y-148362180D01*
X98153812Y-148242482D01*
X98166072Y-148118000D01*
X98166072Y-147320000D01*
X99437789Y-147320000D01*
X99479726Y-147361937D01*
X99649244Y-147475205D01*
X99837602Y-147553226D01*
X100037561Y-147593000D01*
X100241439Y-147593000D01*
X100441398Y-147553226D01*
X100629756Y-147475205D01*
X100799274Y-147361937D01*
X100841211Y-147320000D01*
X102769434Y-147320000D01*
X102779053Y-147351709D01*
X102860542Y-147504164D01*
X102970208Y-147637792D01*
X103103836Y-147747458D01*
X103256291Y-147828947D01*
X103421715Y-147879128D01*
X103593750Y-147896072D01*
X104081250Y-147896072D01*
X104253285Y-147879128D01*
X104418709Y-147828947D01*
X104571164Y-147747458D01*
X104704792Y-147637792D01*
X104775000Y-147552244D01*
X104845208Y-147637792D01*
X104978836Y-147747458D01*
X105131291Y-147828947D01*
X105296715Y-147879128D01*
X105468750Y-147896072D01*
X105956250Y-147896072D01*
X106128285Y-147879128D01*
X106293709Y-147828947D01*
X106446164Y-147747458D01*
X106579792Y-147637792D01*
X106689458Y-147504164D01*
X106770947Y-147351709D01*
X106780566Y-147320000D01*
X107976077Y-147320000D01*
X108013500Y-147323686D01*
X108050923Y-147320000D01*
X108050926Y-147320000D01*
X108162878Y-147308974D01*
X108306515Y-147265402D01*
X108438892Y-147194645D01*
X108554922Y-147099422D01*
X108578784Y-147070346D01*
X109478353Y-146170778D01*
X109507422Y-146146922D01*
X109602645Y-146030892D01*
X109673402Y-145898515D01*
X109716974Y-145754878D01*
X109728000Y-145642926D01*
X109728000Y-145642924D01*
X109731686Y-145605501D01*
X109728000Y-145568078D01*
X109728000Y-143483566D01*
X109759709Y-143473947D01*
X109912164Y-143392458D01*
X110045792Y-143282792D01*
X110155458Y-143149164D01*
X110236947Y-142996709D01*
X110287128Y-142831285D01*
X110304072Y-142659250D01*
X110304072Y-142171750D01*
X110287128Y-141999715D01*
X110236947Y-141834291D01*
X110155458Y-141681836D01*
X110045792Y-141548208D01*
X109960244Y-141478000D01*
X110045792Y-141407792D01*
X110155458Y-141274164D01*
X110236947Y-141121709D01*
X110287128Y-140956285D01*
X110304072Y-140784250D01*
X110304072Y-140296750D01*
X110287128Y-140124715D01*
X110236947Y-139959291D01*
X110155458Y-139806836D01*
X110045792Y-139673208D01*
X109912164Y-139563542D01*
X109759709Y-139482053D01*
X109728000Y-139472434D01*
X109728000Y-132273711D01*
X109769937Y-132231774D01*
X109883205Y-132062256D01*
X109961226Y-131873898D01*
X110001000Y-131673939D01*
X110001000Y-131470061D01*
X109961226Y-131270102D01*
X109883205Y-131081744D01*
X109769937Y-130912226D01*
X109625774Y-130768063D01*
X109456256Y-130654795D01*
X109267898Y-130576774D01*
X109067939Y-130537000D01*
X108864061Y-130537000D01*
X108664102Y-130576774D01*
X108475744Y-130654795D01*
X108306226Y-130768063D01*
X108162063Y-130912226D01*
X108048795Y-131081744D01*
X107970774Y-131270102D01*
X107931000Y-131470061D01*
X107931000Y-131673939D01*
X107970774Y-131873898D01*
X108048795Y-132062256D01*
X108162063Y-132231774D01*
X108204001Y-132273712D01*
X108204000Y-139472434D01*
X108172291Y-139482053D01*
X108019836Y-139563542D01*
X107886208Y-139673208D01*
X107776542Y-139806836D01*
X107695053Y-139959291D01*
X107644872Y-140124715D01*
X107627928Y-140296750D01*
X107627928Y-140784250D01*
X107644872Y-140956285D01*
X107695053Y-141121709D01*
X107776542Y-141274164D01*
X107886208Y-141407792D01*
X107971756Y-141478000D01*
X107886208Y-141548208D01*
X107776542Y-141681836D01*
X107695053Y-141834291D01*
X107644872Y-141999715D01*
X107627928Y-142171750D01*
X107627928Y-142659250D01*
X107644872Y-142831285D01*
X107695053Y-142996709D01*
X107776542Y-143149164D01*
X107886208Y-143282792D01*
X108019836Y-143392458D01*
X108172291Y-143473947D01*
X108204001Y-143483566D01*
X108204000Y-145289869D01*
X107697870Y-145796000D01*
X106780566Y-145796000D01*
X106770947Y-145764291D01*
X106689458Y-145611836D01*
X106579792Y-145478208D01*
X106446164Y-145368542D01*
X106293709Y-145287053D01*
X106128285Y-145236872D01*
X105956250Y-145219928D01*
X105468750Y-145219928D01*
X105296715Y-145236872D01*
X105131291Y-145287053D01*
X104978836Y-145368542D01*
X104845208Y-145478208D01*
X104775000Y-145563756D01*
X104704792Y-145478208D01*
X104571164Y-145368542D01*
X104418709Y-145287053D01*
X104253285Y-145236872D01*
X104081250Y-145219928D01*
X103593750Y-145219928D01*
X103421715Y-145236872D01*
X103256291Y-145287053D01*
X103103836Y-145368542D01*
X102970208Y-145478208D01*
X102860542Y-145611836D01*
X102779053Y-145764291D01*
X102769434Y-145796000D01*
X100841211Y-145796000D01*
X100799274Y-145754063D01*
X100629756Y-145640795D01*
X100441398Y-145562774D01*
X100241439Y-145523000D01*
X100037561Y-145523000D01*
X99837602Y-145562774D01*
X99649244Y-145640795D01*
X99479726Y-145754063D01*
X99437789Y-145796000D01*
X98166072Y-145796000D01*
X98166072Y-144968000D01*
X98153812Y-144843518D01*
X98117502Y-144723820D01*
X98058537Y-144613506D01*
X97979185Y-144516815D01*
X97882494Y-144437463D01*
X97772180Y-144378498D01*
X97652482Y-144342188D01*
X97528000Y-144329928D01*
X96528000Y-144329928D01*
X96403518Y-144342188D01*
X96283820Y-144378498D01*
X96173506Y-144437463D01*
X96076815Y-144516815D01*
X95997463Y-144613506D01*
X95938498Y-144723820D01*
X95902188Y-144843518D01*
X95889928Y-144968000D01*
X95626072Y-144968000D01*
X95613812Y-144843518D01*
X95577502Y-144723820D01*
X95518537Y-144613506D01*
X95439185Y-144516815D01*
X95342494Y-144437463D01*
X95232180Y-144378498D01*
X95112482Y-144342188D01*
X94988000Y-144329928D01*
X93988000Y-144329928D01*
X93913270Y-144337288D01*
X93854646Y-144227609D01*
X93854645Y-144227607D01*
X93812578Y-144176349D01*
X93759422Y-144111578D01*
X93730347Y-144087717D01*
X93148284Y-143505654D01*
X93124422Y-143476578D01*
X93008392Y-143381355D01*
X93002274Y-143378085D01*
X93037502Y-143312180D01*
X93073812Y-143192482D01*
X93086072Y-143068000D01*
X93086072Y-139918000D01*
X93349928Y-139918000D01*
X93349928Y-143068000D01*
X93362188Y-143192482D01*
X93398498Y-143312180D01*
X93457463Y-143422494D01*
X93536815Y-143519185D01*
X93633506Y-143598537D01*
X93743820Y-143657502D01*
X93863518Y-143693812D01*
X93988000Y-143706072D01*
X94988000Y-143706072D01*
X95112482Y-143693812D01*
X95232180Y-143657502D01*
X95342494Y-143598537D01*
X95439185Y-143519185D01*
X95518537Y-143422494D01*
X95577502Y-143312180D01*
X95613812Y-143192482D01*
X95626072Y-143068000D01*
X95626072Y-139918000D01*
X95613812Y-139793518D01*
X95577502Y-139673820D01*
X95518537Y-139563506D01*
X95439185Y-139466815D01*
X95342494Y-139387463D01*
X95232180Y-139328498D01*
X95112482Y-139292188D01*
X94988000Y-139279928D01*
X93988000Y-139279928D01*
X93863518Y-139292188D01*
X93743820Y-139328498D01*
X93633506Y-139387463D01*
X93536815Y-139466815D01*
X93457463Y-139563506D01*
X93398498Y-139673820D01*
X93362188Y-139793518D01*
X93349928Y-139918000D01*
X93086072Y-139918000D01*
X93073812Y-139793518D01*
X93037502Y-139673820D01*
X92978537Y-139563506D01*
X92899185Y-139466815D01*
X92817693Y-139399937D01*
X95825853Y-136391778D01*
X95854922Y-136367922D01*
X95902457Y-136310000D01*
X95950145Y-136251893D01*
X96020901Y-136119516D01*
X96020902Y-136119515D01*
X96064474Y-135975878D01*
X96075500Y-135863926D01*
X96075500Y-135863923D01*
X96079186Y-135826500D01*
X96075500Y-135789077D01*
X96075500Y-127506130D01*
X100391631Y-123190000D01*
X100730461Y-123190000D01*
X100783171Y-123233258D01*
X100919418Y-123306084D01*
X101067255Y-123350929D01*
X101221000Y-123366072D01*
X102871000Y-123366072D01*
X103024745Y-123350929D01*
X103030050Y-123349320D01*
X101834649Y-124544721D01*
X101805579Y-124568578D01*
X101781722Y-124597648D01*
X101781721Y-124597649D01*
X101710355Y-124684608D01*
X101639599Y-124816985D01*
X101596027Y-124960622D01*
X101581314Y-125110000D01*
X101585001Y-125147433D01*
X101585000Y-139537369D01*
X100391370Y-140731000D01*
X98166072Y-140731000D01*
X98166072Y-139918000D01*
X98153812Y-139793518D01*
X98117502Y-139673820D01*
X98058537Y-139563506D01*
X97979185Y-139466815D01*
X97882494Y-139387463D01*
X97772180Y-139328498D01*
X97652482Y-139292188D01*
X97528000Y-139279928D01*
X96528000Y-139279928D01*
X96403518Y-139292188D01*
X96283820Y-139328498D01*
X96173506Y-139387463D01*
X96076815Y-139466815D01*
X95997463Y-139563506D01*
X95938498Y-139673820D01*
X95902188Y-139793518D01*
X95889928Y-139918000D01*
X95889928Y-143068000D01*
X95902188Y-143192482D01*
X95938498Y-143312180D01*
X95997463Y-143422494D01*
X96076815Y-143519185D01*
X96173506Y-143598537D01*
X96283820Y-143657502D01*
X96403518Y-143693812D01*
X96528000Y-143706072D01*
X97528000Y-143706072D01*
X97652482Y-143693812D01*
X97772180Y-143657502D01*
X97882494Y-143598537D01*
X97979185Y-143519185D01*
X98058537Y-143422494D01*
X98117502Y-143312180D01*
X98153812Y-143192482D01*
X98166072Y-143068000D01*
X98166072Y-142255000D01*
X100669577Y-142255000D01*
X100707000Y-142258686D01*
X100744423Y-142255000D01*
X100744426Y-142255000D01*
X100856378Y-142243974D01*
X101000015Y-142200402D01*
X101132392Y-142129645D01*
X101248422Y-142034422D01*
X101272284Y-142005346D01*
X102859353Y-140418278D01*
X102888422Y-140394422D01*
X102983645Y-140278392D01*
X103054402Y-140146015D01*
X103097974Y-140002378D01*
X103109000Y-139890426D01*
X103109000Y-139890424D01*
X103112686Y-139853001D01*
X103109000Y-139815578D01*
X103109000Y-127483816D01*
X112384000Y-127483816D01*
X112384000Y-127786184D01*
X112442989Y-128082743D01*
X112558701Y-128362095D01*
X112726688Y-128613505D01*
X112940495Y-128827312D01*
X113080801Y-128921062D01*
X113080800Y-140388437D01*
X113076746Y-140429600D01*
X113080800Y-140470763D01*
X113080800Y-140470769D01*
X113092929Y-140593915D01*
X113140858Y-140751916D01*
X113218691Y-140897531D01*
X113323436Y-141025164D01*
X113355418Y-141051411D01*
X114064850Y-141760844D01*
X113904843Y-141955812D01*
X113776236Y-142196419D01*
X113697040Y-142457493D01*
X113677000Y-142660963D01*
X113677000Y-143597036D01*
X113697040Y-143800506D01*
X113776236Y-144061580D01*
X113904843Y-144302187D01*
X114077919Y-144513080D01*
X114288812Y-144686157D01*
X114529419Y-144814764D01*
X114790493Y-144893960D01*
X115062000Y-144920701D01*
X115333506Y-144893960D01*
X115594580Y-144814764D01*
X115835187Y-144686157D01*
X116046080Y-144513081D01*
X116219157Y-144302188D01*
X116334486Y-144086422D01*
X116371028Y-144176349D01*
X116520972Y-144404061D01*
X116712460Y-144598145D01*
X116938132Y-144751142D01*
X117189316Y-144857173D01*
X117260815Y-144871318D01*
X117475000Y-144748656D01*
X117475000Y-143256000D01*
X117455000Y-143256000D01*
X117455000Y-143002000D01*
X117475000Y-143002000D01*
X117475000Y-141509344D01*
X117260815Y-141386682D01*
X117189316Y-141400827D01*
X116938132Y-141506858D01*
X116712460Y-141659855D01*
X116520972Y-141853939D01*
X116371028Y-142081651D01*
X116334486Y-142171578D01*
X116219157Y-141955812D01*
X116046081Y-141744919D01*
X115900200Y-141625197D01*
X115900200Y-141613762D01*
X115904254Y-141572599D01*
X115900200Y-141531436D01*
X115900200Y-141531430D01*
X115888071Y-141408284D01*
X115840142Y-141250283D01*
X115762309Y-141104668D01*
X115657564Y-140977036D01*
X115625587Y-140950793D01*
X114757200Y-140082407D01*
X114757200Y-128921061D01*
X114897505Y-128827312D01*
X115111312Y-128613505D01*
X115279299Y-128362095D01*
X115395011Y-128082743D01*
X115454000Y-127786184D01*
X115454000Y-127483816D01*
X115395011Y-127187257D01*
X115279299Y-126907905D01*
X115111312Y-126656495D01*
X114897505Y-126442688D01*
X114743895Y-126340049D01*
X114803475Y-126159080D01*
X113919000Y-125274605D01*
X113034525Y-126159080D01*
X113094105Y-126340049D01*
X112940495Y-126442688D01*
X112726688Y-126656495D01*
X112558701Y-126907905D01*
X112442989Y-127187257D01*
X112384000Y-127483816D01*
X103109000Y-127483816D01*
X103109000Y-125425630D01*
X103181279Y-125353351D01*
X103373077Y-125161553D01*
X112378009Y-125161553D01*
X112420603Y-125460907D01*
X112520778Y-125746199D01*
X112600739Y-125895792D01*
X112854920Y-125979475D01*
X113739395Y-125095000D01*
X114098605Y-125095000D01*
X114983080Y-125979475D01*
X115237261Y-125895792D01*
X115368158Y-125623225D01*
X115443365Y-125330358D01*
X115459991Y-125028447D01*
X115417397Y-124729093D01*
X115317222Y-124443801D01*
X115237261Y-124294208D01*
X114983080Y-124210525D01*
X114098605Y-125095000D01*
X113739395Y-125095000D01*
X112854920Y-124210525D01*
X112600739Y-124294208D01*
X112469842Y-124566775D01*
X112394635Y-124859642D01*
X112378009Y-125161553D01*
X103373077Y-125161553D01*
X105517121Y-123017510D01*
X105613749Y-123135251D01*
X105733171Y-123233258D01*
X105869418Y-123306084D01*
X106017255Y-123350929D01*
X106171000Y-123366072D01*
X107821000Y-123366072D01*
X107974745Y-123350929D01*
X108122582Y-123306084D01*
X108258829Y-123233258D01*
X108311539Y-123190000D01*
X109182577Y-123190000D01*
X109220000Y-123193686D01*
X109257423Y-123190000D01*
X109257426Y-123190000D01*
X109369378Y-123178974D01*
X109513015Y-123135402D01*
X109645392Y-123064645D01*
X109761422Y-122969422D01*
X109785284Y-122940346D01*
X111383347Y-121342283D01*
X111412422Y-121318422D01*
X111472969Y-121244645D01*
X111507645Y-121202393D01*
X111551497Y-121120351D01*
X111578402Y-121070015D01*
X111621974Y-120926378D01*
X111633000Y-120814426D01*
X111633000Y-120814423D01*
X111636686Y-120777000D01*
X111633000Y-120739577D01*
X111633000Y-118933630D01*
X112329631Y-118237000D01*
X112582024Y-118237000D01*
X112726688Y-118453505D01*
X112940495Y-118667312D01*
X113056763Y-118745000D01*
X112940495Y-118822688D01*
X112726688Y-119036495D01*
X112558701Y-119287905D01*
X112442989Y-119567257D01*
X112384000Y-119863816D01*
X112384000Y-120166184D01*
X112442989Y-120462743D01*
X112558701Y-120742095D01*
X112726688Y-120993505D01*
X112940495Y-121207312D01*
X113056763Y-121285000D01*
X112940495Y-121362688D01*
X112726688Y-121576495D01*
X112558701Y-121827905D01*
X112442989Y-122107257D01*
X112384000Y-122403816D01*
X112384000Y-122706184D01*
X112442989Y-123002743D01*
X112558701Y-123282095D01*
X112726688Y-123533505D01*
X112940495Y-123747312D01*
X113094105Y-123849951D01*
X113034525Y-124030920D01*
X113919000Y-124915395D01*
X114803475Y-124030920D01*
X114743895Y-123849951D01*
X114897505Y-123747312D01*
X115111312Y-123533505D01*
X115209705Y-123386250D01*
X115210403Y-123387557D01*
X115226197Y-123406803D01*
X115245443Y-123422597D01*
X115267399Y-123434333D01*
X115291224Y-123441560D01*
X115316000Y-123444000D01*
X118110001Y-123444000D01*
X118110001Y-123470434D01*
X118078291Y-123480053D01*
X117925836Y-123561542D01*
X117792208Y-123671208D01*
X117708586Y-123773101D01*
X117674077Y-123776500D01*
X117674074Y-123776500D01*
X117562122Y-123787526D01*
X117418485Y-123831098D01*
X117286108Y-123901855D01*
X117170078Y-123997078D01*
X117146212Y-124026159D01*
X116835650Y-124336720D01*
X116806579Y-124360578D01*
X116782722Y-124389648D01*
X116782721Y-124389649D01*
X116711355Y-124476608D01*
X116640599Y-124608985D01*
X116597027Y-124752622D01*
X116582314Y-124902000D01*
X116586001Y-124939433D01*
X116586000Y-129756577D01*
X116582314Y-129794000D01*
X116586000Y-129831423D01*
X116586000Y-129831425D01*
X116597026Y-129943377D01*
X116640598Y-130087014D01*
X116673535Y-130148635D01*
X116711355Y-130219392D01*
X116750983Y-130267678D01*
X116806578Y-130335422D01*
X116835654Y-130359284D01*
X117163716Y-130687346D01*
X117187578Y-130716422D01*
X117303608Y-130811645D01*
X117435985Y-130882402D01*
X117579622Y-130925974D01*
X117691574Y-130937000D01*
X117691576Y-130937000D01*
X117728999Y-130940686D01*
X117766422Y-130937000D01*
X118230158Y-130937000D01*
X118353525Y-131121632D01*
X118560368Y-131328475D01*
X118734760Y-131445000D01*
X118560368Y-131561525D01*
X118353525Y-131768368D01*
X118191010Y-132011589D01*
X118079068Y-132281842D01*
X118022000Y-132568740D01*
X118022000Y-132861260D01*
X118079068Y-133148158D01*
X118191010Y-133418411D01*
X118353525Y-133661632D01*
X118560368Y-133868475D01*
X118734760Y-133985000D01*
X118560368Y-134101525D01*
X118353525Y-134308368D01*
X118191010Y-134551589D01*
X118079068Y-134821842D01*
X118022000Y-135108740D01*
X118022000Y-135401260D01*
X118079068Y-135688158D01*
X118191010Y-135958411D01*
X118353525Y-136201632D01*
X118560368Y-136408475D01*
X118734760Y-136525000D01*
X118560368Y-136641525D01*
X118353525Y-136848368D01*
X118191010Y-137091589D01*
X118079068Y-137361842D01*
X118022000Y-137648740D01*
X118022000Y-137941260D01*
X118079068Y-138228158D01*
X118191010Y-138498411D01*
X118353525Y-138741632D01*
X118560368Y-138948475D01*
X118668801Y-139020927D01*
X118668800Y-140674837D01*
X118664746Y-140716000D01*
X118668800Y-140757163D01*
X118668800Y-140757169D01*
X118680929Y-140880315D01*
X118728858Y-141038316D01*
X118806691Y-141183931D01*
X118911436Y-141311564D01*
X118943417Y-141337811D01*
X119048300Y-141442693D01*
X119037506Y-141448463D01*
X118940815Y-141527815D01*
X118861463Y-141624506D01*
X118802498Y-141734820D01*
X118766188Y-141854518D01*
X118755418Y-141963874D01*
X118683028Y-141853939D01*
X118491540Y-141659855D01*
X118265868Y-141506858D01*
X118014684Y-141400827D01*
X117943185Y-141386682D01*
X117729000Y-141509344D01*
X117729000Y-143002000D01*
X117749000Y-143002000D01*
X117749000Y-143256000D01*
X117729000Y-143256000D01*
X117729000Y-144748656D01*
X117943185Y-144871318D01*
X118014684Y-144857173D01*
X118265868Y-144751142D01*
X118491540Y-144598145D01*
X118683028Y-144404061D01*
X118755418Y-144294126D01*
X118766188Y-144403482D01*
X118802498Y-144523180D01*
X118861463Y-144633494D01*
X118940815Y-144730185D01*
X119037506Y-144809537D01*
X119147820Y-144868502D01*
X119267518Y-144904812D01*
X119392000Y-144917072D01*
X120892000Y-144917072D01*
X121016482Y-144904812D01*
X121136180Y-144868502D01*
X121246494Y-144809537D01*
X121343185Y-144730185D01*
X121422537Y-144633494D01*
X121481502Y-144523180D01*
X121517812Y-144403482D01*
X121530072Y-144279000D01*
X121530072Y-141979000D01*
X121517812Y-141854518D01*
X121481502Y-141734820D01*
X121422537Y-141624506D01*
X121343185Y-141527815D01*
X121246494Y-141448463D01*
X121136180Y-141389498D01*
X121016482Y-141353188D01*
X120984156Y-141350004D01*
X120980200Y-141309837D01*
X120980200Y-141309830D01*
X120968071Y-141186684D01*
X120920142Y-141028683D01*
X120842309Y-140883068D01*
X120737564Y-140755436D01*
X120705587Y-140729193D01*
X120345200Y-140368807D01*
X120345200Y-139020927D01*
X120453632Y-138948475D01*
X120585487Y-138816620D01*
X120607498Y-138889180D01*
X120666463Y-138999494D01*
X120745815Y-139096185D01*
X120842506Y-139175537D01*
X120952820Y-139234502D01*
X121072518Y-139270812D01*
X121197000Y-139283072D01*
X122897000Y-139283072D01*
X123021482Y-139270812D01*
X123141180Y-139234502D01*
X123251494Y-139175537D01*
X123348185Y-139096185D01*
X123427537Y-138999494D01*
X123486502Y-138889180D01*
X123522812Y-138769482D01*
X123535072Y-138645000D01*
X123535072Y-136945000D01*
X123522812Y-136820518D01*
X123486502Y-136700820D01*
X123427537Y-136590506D01*
X123348185Y-136493815D01*
X123251494Y-136414463D01*
X123141180Y-136355498D01*
X123068620Y-136333487D01*
X123200475Y-136201632D01*
X123362990Y-135958411D01*
X123474932Y-135688158D01*
X123532000Y-135401260D01*
X123532000Y-135108740D01*
X123474932Y-134821842D01*
X123362990Y-134551589D01*
X123200475Y-134308368D01*
X122993632Y-134101525D01*
X122811466Y-133979805D01*
X122928355Y-133910178D01*
X123144588Y-133715269D01*
X123318641Y-133481920D01*
X123443825Y-133219099D01*
X123488476Y-133071890D01*
X123367155Y-132842000D01*
X122174000Y-132842000D01*
X122174000Y-132862000D01*
X121920000Y-132862000D01*
X121920000Y-132842000D01*
X121900000Y-132842000D01*
X121900000Y-132588000D01*
X121920000Y-132588000D01*
X121920000Y-132568000D01*
X122174000Y-132568000D01*
X122174000Y-132588000D01*
X123367155Y-132588000D01*
X123488476Y-132358110D01*
X123443825Y-132210901D01*
X123318641Y-131948080D01*
X123144588Y-131714731D01*
X122928355Y-131519822D01*
X122811466Y-131450195D01*
X122993632Y-131328475D01*
X123200475Y-131121632D01*
X123321688Y-130940224D01*
X123354423Y-130937000D01*
X123354426Y-130937000D01*
X123466378Y-130925974D01*
X123610015Y-130882402D01*
X123742392Y-130811645D01*
X123858422Y-130716422D01*
X123882284Y-130687346D01*
X124337347Y-130232283D01*
X124366422Y-130208422D01*
X124461645Y-130092392D01*
X124532402Y-129960015D01*
X124575974Y-129816378D01*
X124587000Y-129704426D01*
X124587000Y-129704417D01*
X124590685Y-129667001D01*
X124587000Y-129629585D01*
X124587000Y-124962423D01*
X124590686Y-124925000D01*
X124587000Y-124887574D01*
X124575974Y-124775622D01*
X124532402Y-124631985D01*
X124461645Y-124499608D01*
X124366422Y-124383578D01*
X124337341Y-124359712D01*
X124003784Y-124026154D01*
X123979922Y-123997078D01*
X123863892Y-123901855D01*
X123731515Y-123831098D01*
X123587878Y-123787526D01*
X123475926Y-123776500D01*
X123475923Y-123776500D01*
X123466436Y-123775566D01*
X123380792Y-123671208D01*
X123247164Y-123561542D01*
X123149364Y-123509266D01*
X123194346Y-123464284D01*
X123219062Y-123444000D01*
X124654000Y-123444000D01*
X124654001Y-148682998D01*
X124637361Y-148852707D01*
X124597951Y-148983238D01*
X124533933Y-149103638D01*
X124447753Y-149209305D01*
X124342690Y-149296221D01*
X124222743Y-149361076D01*
X124092488Y-149401397D01*
X123925005Y-149419000D01*
X85123991Y-149419000D01*
X84830954Y-149390268D01*
X84581782Y-149315038D01*
X84351959Y-149192840D01*
X84150254Y-149028333D01*
X83984339Y-148827776D01*
X83860542Y-148598819D01*
X83783573Y-148350170D01*
X83759172Y-148118000D01*
X90809928Y-148118000D01*
X90822188Y-148242482D01*
X90858498Y-148362180D01*
X90917463Y-148472494D01*
X90996815Y-148569185D01*
X91093506Y-148648537D01*
X91203820Y-148707502D01*
X91323518Y-148743812D01*
X91448000Y-148756072D01*
X91662250Y-148753000D01*
X91821000Y-148594250D01*
X91821000Y-146670000D01*
X90971750Y-146670000D01*
X90813000Y-146828750D01*
X90809928Y-148118000D01*
X83759172Y-148118000D01*
X83753000Y-148059286D01*
X83753000Y-113030000D01*
X89660554Y-113030000D01*
X89698701Y-113122095D01*
G36*
X105514500Y-113571250D02*
G01*
X105673250Y-113730000D01*
X105875000Y-113733072D01*
X105999482Y-113720812D01*
X106119180Y-113684502D01*
X106229494Y-113625537D01*
X106326185Y-113546185D01*
X106405537Y-113449494D01*
X106464502Y-113339180D01*
X106500812Y-113219482D01*
X106513072Y-113095000D01*
X106512590Y-113030000D01*
X112520554Y-113030000D01*
X112558701Y-113122095D01*
X112726688Y-113373505D01*
X112940495Y-113587312D01*
X113056763Y-113665000D01*
X112940495Y-113742688D01*
X112726688Y-113956495D01*
X112582024Y-114173000D01*
X112305422Y-114173000D01*
X112267999Y-114169314D01*
X112230576Y-114173000D01*
X112230574Y-114173000D01*
X112118622Y-114184026D01*
X111974985Y-114227598D01*
X111842608Y-114298355D01*
X111726578Y-114393578D01*
X111702721Y-114422648D01*
X109596649Y-116528721D01*
X109567579Y-116552578D01*
X109543722Y-116581648D01*
X109543721Y-116581649D01*
X109472355Y-116668608D01*
X109401599Y-116800985D01*
X109358027Y-116944622D01*
X109343314Y-117094000D01*
X109347001Y-117131433D01*
X109347001Y-117655540D01*
X109267898Y-117622774D01*
X109067939Y-117583000D01*
X108864061Y-117583000D01*
X108664102Y-117622774D01*
X108593896Y-117651855D01*
X108593929Y-117651745D01*
X108609072Y-117498000D01*
X108609072Y-117198000D01*
X108593929Y-117044255D01*
X108549084Y-116896418D01*
X108476258Y-116760171D01*
X108437546Y-116713000D01*
X108476258Y-116665829D01*
X108549084Y-116529582D01*
X108593929Y-116381745D01*
X108609072Y-116228000D01*
X108609072Y-115928000D01*
X108593929Y-115774255D01*
X108549084Y-115626418D01*
X108477270Y-115492064D01*
X108501537Y-115462494D01*
X108560502Y-115352180D01*
X108596812Y-115232482D01*
X108609072Y-115108000D01*
X108606000Y-115093750D01*
X108447250Y-114935000D01*
X107123000Y-114935000D01*
X107123000Y-114955000D01*
X106869000Y-114955000D01*
X106869000Y-114935000D01*
X106849000Y-114935000D01*
X106849000Y-114681000D01*
X106869000Y-114681000D01*
X106869000Y-114031750D01*
X107123000Y-114031750D01*
X107123000Y-114681000D01*
X108447250Y-114681000D01*
X108606000Y-114522250D01*
X108609072Y-114508000D01*
X108596812Y-114383518D01*
X108560502Y-114263820D01*
X108501537Y-114153506D01*
X108422185Y-114056815D01*
X108325494Y-113977463D01*
X108215180Y-113918498D01*
X108095482Y-113882188D01*
X107971000Y-113869928D01*
X107281750Y-113873000D01*
X107123000Y-114031750D01*
X106869000Y-114031750D01*
X106710250Y-113873000D01*
X106021000Y-113869928D01*
X105896518Y-113882188D01*
X105776820Y-113918498D01*
X105699930Y-113959597D01*
X105668817Y-113938808D01*
X105480459Y-113860787D01*
X105280500Y-113821013D01*
X105076622Y-113821013D01*
X104987648Y-113838711D01*
X104955257Y-113790234D01*
X104897887Y-113732864D01*
X104900000Y-113733072D01*
X105101750Y-113730000D01*
X105260500Y-113571250D01*
X105260500Y-113030000D01*
X105514500Y-113030000D01*
X105514500Y-113571250D01*
G37*
X105514500Y-113571250D02*
X105673250Y-113730000D01*
X105875000Y-113733072D01*
X105999482Y-113720812D01*
X106119180Y-113684502D01*
X106229494Y-113625537D01*
X106326185Y-113546185D01*
X106405537Y-113449494D01*
X106464502Y-113339180D01*
X106500812Y-113219482D01*
X106513072Y-113095000D01*
X106512590Y-113030000D01*
X112520554Y-113030000D01*
X112558701Y-113122095D01*
X112726688Y-113373505D01*
X112940495Y-113587312D01*
X113056763Y-113665000D01*
X112940495Y-113742688D01*
X112726688Y-113956495D01*
X112582024Y-114173000D01*
X112305422Y-114173000D01*
X112267999Y-114169314D01*
X112230576Y-114173000D01*
X112230574Y-114173000D01*
X112118622Y-114184026D01*
X111974985Y-114227598D01*
X111842608Y-114298355D01*
X111726578Y-114393578D01*
X111702721Y-114422648D01*
X109596649Y-116528721D01*
X109567579Y-116552578D01*
X109543722Y-116581648D01*
X109543721Y-116581649D01*
X109472355Y-116668608D01*
X109401599Y-116800985D01*
X109358027Y-116944622D01*
X109343314Y-117094000D01*
X109347001Y-117131433D01*
X109347001Y-117655540D01*
X109267898Y-117622774D01*
X109067939Y-117583000D01*
X108864061Y-117583000D01*
X108664102Y-117622774D01*
X108593896Y-117651855D01*
X108593929Y-117651745D01*
X108609072Y-117498000D01*
X108609072Y-117198000D01*
X108593929Y-117044255D01*
X108549084Y-116896418D01*
X108476258Y-116760171D01*
X108437546Y-116713000D01*
X108476258Y-116665829D01*
X108549084Y-116529582D01*
X108593929Y-116381745D01*
X108609072Y-116228000D01*
X108609072Y-115928000D01*
X108593929Y-115774255D01*
X108549084Y-115626418D01*
X108477270Y-115492064D01*
X108501537Y-115462494D01*
X108560502Y-115352180D01*
X108596812Y-115232482D01*
X108609072Y-115108000D01*
X108606000Y-115093750D01*
X108447250Y-114935000D01*
X107123000Y-114935000D01*
X107123000Y-114955000D01*
X106869000Y-114955000D01*
X106869000Y-114935000D01*
X106849000Y-114935000D01*
X106849000Y-114681000D01*
X106869000Y-114681000D01*
X106869000Y-114031750D01*
X107123000Y-114031750D01*
X107123000Y-114681000D01*
X108447250Y-114681000D01*
X108606000Y-114522250D01*
X108609072Y-114508000D01*
X108596812Y-114383518D01*
X108560502Y-114263820D01*
X108501537Y-114153506D01*
X108422185Y-114056815D01*
X108325494Y-113977463D01*
X108215180Y-113918498D01*
X108095482Y-113882188D01*
X107971000Y-113869928D01*
X107281750Y-113873000D01*
X107123000Y-114031750D01*
X106869000Y-114031750D01*
X106710250Y-113873000D01*
X106021000Y-113869928D01*
X105896518Y-113882188D01*
X105776820Y-113918498D01*
X105699930Y-113959597D01*
X105668817Y-113938808D01*
X105480459Y-113860787D01*
X105280500Y-113821013D01*
X105076622Y-113821013D01*
X104987648Y-113838711D01*
X104955257Y-113790234D01*
X104897887Y-113732864D01*
X104900000Y-113733072D01*
X105101750Y-113730000D01*
X105260500Y-113571250D01*
X105260500Y-113030000D01*
X105514500Y-113030000D01*
X105514500Y-113571250D01*
G36*
X124654000Y-119316952D02*
G01*
X124621502Y-119209820D01*
X124562537Y-119099506D01*
X124483185Y-119002815D01*
X124386494Y-118923463D01*
X124276180Y-118864498D01*
X124156482Y-118828188D01*
X124032000Y-118815928D01*
X123917750Y-118819000D01*
X123759000Y-118977750D01*
X123759000Y-119777000D01*
X123779000Y-119777000D01*
X123779000Y-120031000D01*
X123759000Y-120031000D01*
X123759000Y-120830250D01*
X123917750Y-120989000D01*
X124032000Y-120992072D01*
X124156482Y-120979812D01*
X124276180Y-120943502D01*
X124386494Y-120884537D01*
X124483185Y-120805185D01*
X124562537Y-120708494D01*
X124621502Y-120598180D01*
X124654000Y-120491047D01*
X124654000Y-121158000D01*
X123643803Y-121158000D01*
X123612537Y-121099506D01*
X123533185Y-121002815D01*
X123436494Y-120923463D01*
X123420393Y-120914857D01*
X123505000Y-120830250D01*
X123505000Y-120031000D01*
X123485000Y-120031000D01*
X123485000Y-119777000D01*
X123505000Y-119777000D01*
X123505000Y-118977750D01*
X123346250Y-118819000D01*
X123232000Y-118815928D01*
X123107518Y-118828188D01*
X122987820Y-118864498D01*
X122877506Y-118923463D01*
X122780815Y-119002815D01*
X122701463Y-119099506D01*
X122682000Y-119135918D01*
X122662537Y-119099506D01*
X122583185Y-119002815D01*
X122486494Y-118923463D01*
X122483594Y-118921913D01*
X122482974Y-118915622D01*
X122439402Y-118771985D01*
X122368645Y-118639608D01*
X122273422Y-118523578D01*
X122244352Y-118499721D01*
X121285000Y-117540370D01*
X121285000Y-117302690D01*
X121331420Y-117327502D01*
X121451118Y-117363812D01*
X121575600Y-117376072D01*
X121989850Y-117373000D01*
X122148600Y-117214250D01*
X122148600Y-116377500D01*
X122402600Y-116377500D01*
X122402600Y-117214250D01*
X122561350Y-117373000D01*
X122975600Y-117376072D01*
X123100082Y-117363812D01*
X123219780Y-117327502D01*
X123330094Y-117268537D01*
X123426785Y-117189185D01*
X123506137Y-117092494D01*
X123565102Y-116982180D01*
X123601412Y-116862482D01*
X123613672Y-116738000D01*
X123610600Y-116536250D01*
X123451850Y-116377500D01*
X122402600Y-116377500D01*
X122148600Y-116377500D01*
X122128600Y-116377500D01*
X122128600Y-116123500D01*
X122148600Y-116123500D01*
X122148600Y-116103500D01*
X122402600Y-116103500D01*
X122402600Y-116123500D01*
X123451850Y-116123500D01*
X123610600Y-115964750D01*
X123613672Y-115763000D01*
X123601412Y-115638518D01*
X123565102Y-115518820D01*
X123506137Y-115408506D01*
X123426785Y-115311815D01*
X123349036Y-115248008D01*
X123355392Y-115242792D01*
X123465058Y-115109164D01*
X123546547Y-114956709D01*
X123596728Y-114791285D01*
X123613672Y-114619250D01*
X123613672Y-114131750D01*
X123596728Y-113959715D01*
X123546547Y-113794291D01*
X123465058Y-113641836D01*
X123355392Y-113508208D01*
X123221764Y-113398542D01*
X123069309Y-113317053D01*
X122903885Y-113266872D01*
X122731850Y-113249928D01*
X121819350Y-113249928D01*
X121647315Y-113266872D01*
X121481891Y-113317053D01*
X121329436Y-113398542D01*
X121195808Y-113508208D01*
X121109397Y-113613500D01*
X121011922Y-113613500D01*
X120974499Y-113609814D01*
X120937076Y-113613500D01*
X120937074Y-113613500D01*
X120825122Y-113624526D01*
X120681485Y-113668098D01*
X120549108Y-113738855D01*
X120433078Y-113834078D01*
X120409216Y-113863154D01*
X120203845Y-114068525D01*
X120193128Y-113959715D01*
X120142947Y-113794291D01*
X120061458Y-113641836D01*
X119951792Y-113508208D01*
X119818164Y-113398542D01*
X119665709Y-113317053D01*
X119500285Y-113266872D01*
X119328250Y-113249928D01*
X118415750Y-113249928D01*
X118243715Y-113266872D01*
X118078291Y-113317053D01*
X117925836Y-113398542D01*
X117792208Y-113508208D01*
X117705797Y-113613500D01*
X117361922Y-113613500D01*
X117324499Y-113609814D01*
X117287076Y-113613500D01*
X117287074Y-113613500D01*
X117175122Y-113624526D01*
X117031485Y-113668098D01*
X116899108Y-113738855D01*
X116783078Y-113834078D01*
X116759216Y-113863154D01*
X116454653Y-114167717D01*
X116448216Y-114173000D01*
X116332000Y-114173000D01*
X116332000Y-113030000D01*
X124654000Y-113030000D01*
X124654000Y-119316952D01*
G37*
X124654000Y-119316952D02*
X124621502Y-119209820D01*
X124562537Y-119099506D01*
X124483185Y-119002815D01*
X124386494Y-118923463D01*
X124276180Y-118864498D01*
X124156482Y-118828188D01*
X124032000Y-118815928D01*
X123917750Y-118819000D01*
X123759000Y-118977750D01*
X123759000Y-119777000D01*
X123779000Y-119777000D01*
X123779000Y-120031000D01*
X123759000Y-120031000D01*
X123759000Y-120830250D01*
X123917750Y-120989000D01*
X124032000Y-120992072D01*
X124156482Y-120979812D01*
X124276180Y-120943502D01*
X124386494Y-120884537D01*
X124483185Y-120805185D01*
X124562537Y-120708494D01*
X124621502Y-120598180D01*
X124654000Y-120491047D01*
X124654000Y-121158000D01*
X123643803Y-121158000D01*
X123612537Y-121099506D01*
X123533185Y-121002815D01*
X123436494Y-120923463D01*
X123420393Y-120914857D01*
X123505000Y-120830250D01*
X123505000Y-120031000D01*
X123485000Y-120031000D01*
X123485000Y-119777000D01*
X123505000Y-119777000D01*
X123505000Y-118977750D01*
X123346250Y-118819000D01*
X123232000Y-118815928D01*
X123107518Y-118828188D01*
X122987820Y-118864498D01*
X122877506Y-118923463D01*
X122780815Y-119002815D01*
X122701463Y-119099506D01*
X122682000Y-119135918D01*
X122662537Y-119099506D01*
X122583185Y-119002815D01*
X122486494Y-118923463D01*
X122483594Y-118921913D01*
X122482974Y-118915622D01*
X122439402Y-118771985D01*
X122368645Y-118639608D01*
X122273422Y-118523578D01*
X122244352Y-118499721D01*
X121285000Y-117540370D01*
X121285000Y-117302690D01*
X121331420Y-117327502D01*
X121451118Y-117363812D01*
X121575600Y-117376072D01*
X121989850Y-117373000D01*
X122148600Y-117214250D01*
X122148600Y-116377500D01*
X122402600Y-116377500D01*
X122402600Y-117214250D01*
X122561350Y-117373000D01*
X122975600Y-117376072D01*
X123100082Y-117363812D01*
X123219780Y-117327502D01*
X123330094Y-117268537D01*
X123426785Y-117189185D01*
X123506137Y-117092494D01*
X123565102Y-116982180D01*
X123601412Y-116862482D01*
X123613672Y-116738000D01*
X123610600Y-116536250D01*
X123451850Y-116377500D01*
X122402600Y-116377500D01*
X122148600Y-116377500D01*
X122128600Y-116377500D01*
X122128600Y-116123500D01*
X122148600Y-116123500D01*
X122148600Y-116103500D01*
X122402600Y-116103500D01*
X122402600Y-116123500D01*
X123451850Y-116123500D01*
X123610600Y-115964750D01*
X123613672Y-115763000D01*
X123601412Y-115638518D01*
X123565102Y-115518820D01*
X123506137Y-115408506D01*
X123426785Y-115311815D01*
X123349036Y-115248008D01*
X123355392Y-115242792D01*
X123465058Y-115109164D01*
X123546547Y-114956709D01*
X123596728Y-114791285D01*
X123613672Y-114619250D01*
X123613672Y-114131750D01*
X123596728Y-113959715D01*
X123546547Y-113794291D01*
X123465058Y-113641836D01*
X123355392Y-113508208D01*
X123221764Y-113398542D01*
X123069309Y-113317053D01*
X122903885Y-113266872D01*
X122731850Y-113249928D01*
X121819350Y-113249928D01*
X121647315Y-113266872D01*
X121481891Y-113317053D01*
X121329436Y-113398542D01*
X121195808Y-113508208D01*
X121109397Y-113613500D01*
X121011922Y-113613500D01*
X120974499Y-113609814D01*
X120937076Y-113613500D01*
X120937074Y-113613500D01*
X120825122Y-113624526D01*
X120681485Y-113668098D01*
X120549108Y-113738855D01*
X120433078Y-113834078D01*
X120409216Y-113863154D01*
X120203845Y-114068525D01*
X120193128Y-113959715D01*
X120142947Y-113794291D01*
X120061458Y-113641836D01*
X119951792Y-113508208D01*
X119818164Y-113398542D01*
X119665709Y-113317053D01*
X119500285Y-113266872D01*
X119328250Y-113249928D01*
X118415750Y-113249928D01*
X118243715Y-113266872D01*
X118078291Y-113317053D01*
X117925836Y-113398542D01*
X117792208Y-113508208D01*
X117705797Y-113613500D01*
X117361922Y-113613500D01*
X117324499Y-113609814D01*
X117287076Y-113613500D01*
X117287074Y-113613500D01*
X117175122Y-113624526D01*
X117031485Y-113668098D01*
X116899108Y-113738855D01*
X116783078Y-113834078D01*
X116759216Y-113863154D01*
X116454653Y-114167717D01*
X116448216Y-114173000D01*
X116332000Y-114173000D01*
X116332000Y-113030000D01*
X124654000Y-113030000D01*
X124654000Y-119316952D01*
G36*
X118999000Y-116123500D02*
G01*
X119019000Y-116123500D01*
X119019000Y-116377500D01*
X118999000Y-116377500D01*
X118999000Y-117214250D01*
X119157750Y-117373000D01*
X119572000Y-117376072D01*
X119696482Y-117363812D01*
X119761000Y-117344241D01*
X119761000Y-117818577D01*
X119757314Y-117856000D01*
X119761000Y-117893423D01*
X119761000Y-117893425D01*
X119772026Y-118005377D01*
X119815598Y-118149014D01*
X119815599Y-118149015D01*
X119886355Y-118281392D01*
X119925983Y-118329678D01*
X119981578Y-118397422D01*
X120010654Y-118421284D01*
X120762245Y-119172876D01*
X120742498Y-119209820D01*
X120706188Y-119329518D01*
X120693928Y-119454000D01*
X120693928Y-120142000D01*
X120621250Y-120142000D01*
X120510250Y-120031000D01*
X119761000Y-120031000D01*
X119761000Y-120051000D01*
X119507000Y-120051000D01*
X119507000Y-120031000D01*
X119487000Y-120031000D01*
X119487000Y-119777000D01*
X119507000Y-119777000D01*
X119507000Y-118977750D01*
X119761000Y-118977750D01*
X119761000Y-119777000D01*
X120510250Y-119777000D01*
X120669000Y-119618250D01*
X120672072Y-119454000D01*
X120659812Y-119329518D01*
X120623502Y-119209820D01*
X120564537Y-119099506D01*
X120485185Y-119002815D01*
X120388494Y-118923463D01*
X120278180Y-118864498D01*
X120158482Y-118828188D01*
X120034000Y-118815928D01*
X119919750Y-118819000D01*
X119761000Y-118977750D01*
X119507000Y-118977750D01*
X119348250Y-118819000D01*
X119234000Y-118815928D01*
X119109518Y-118828188D01*
X118989820Y-118864498D01*
X118879506Y-118923463D01*
X118782815Y-119002815D01*
X118703463Y-119099506D01*
X118684000Y-119135918D01*
X118664537Y-119099506D01*
X118585185Y-119002815D01*
X118496000Y-118929623D01*
X118496000Y-118660423D01*
X118499686Y-118623000D01*
X118492757Y-118552648D01*
X118484974Y-118473622D01*
X118441402Y-118329985D01*
X118403662Y-118259378D01*
X118370645Y-118197607D01*
X118299279Y-118110648D01*
X118275422Y-118081578D01*
X118246351Y-118057720D01*
X117729000Y-117540370D01*
X117729000Y-117195902D01*
X117817506Y-117268537D01*
X117927820Y-117327502D01*
X118047518Y-117363812D01*
X118172000Y-117376072D01*
X118586250Y-117373000D01*
X118745000Y-117214250D01*
X118745000Y-116377500D01*
X118725000Y-116377500D01*
X118725000Y-116123500D01*
X118745000Y-116123500D01*
X118745000Y-116103500D01*
X118999000Y-116103500D01*
X118999000Y-116123500D01*
G37*
X118999000Y-116123500D02*
X119019000Y-116123500D01*
X119019000Y-116377500D01*
X118999000Y-116377500D01*
X118999000Y-117214250D01*
X119157750Y-117373000D01*
X119572000Y-117376072D01*
X119696482Y-117363812D01*
X119761000Y-117344241D01*
X119761000Y-117818577D01*
X119757314Y-117856000D01*
X119761000Y-117893423D01*
X119761000Y-117893425D01*
X119772026Y-118005377D01*
X119815598Y-118149014D01*
X119815599Y-118149015D01*
X119886355Y-118281392D01*
X119925983Y-118329678D01*
X119981578Y-118397422D01*
X120010654Y-118421284D01*
X120762245Y-119172876D01*
X120742498Y-119209820D01*
X120706188Y-119329518D01*
X120693928Y-119454000D01*
X120693928Y-120142000D01*
X120621250Y-120142000D01*
X120510250Y-120031000D01*
X119761000Y-120031000D01*
X119761000Y-120051000D01*
X119507000Y-120051000D01*
X119507000Y-120031000D01*
X119487000Y-120031000D01*
X119487000Y-119777000D01*
X119507000Y-119777000D01*
X119507000Y-118977750D01*
X119761000Y-118977750D01*
X119761000Y-119777000D01*
X120510250Y-119777000D01*
X120669000Y-119618250D01*
X120672072Y-119454000D01*
X120659812Y-119329518D01*
X120623502Y-119209820D01*
X120564537Y-119099506D01*
X120485185Y-119002815D01*
X120388494Y-118923463D01*
X120278180Y-118864498D01*
X120158482Y-118828188D01*
X120034000Y-118815928D01*
X119919750Y-118819000D01*
X119761000Y-118977750D01*
X119507000Y-118977750D01*
X119348250Y-118819000D01*
X119234000Y-118815928D01*
X119109518Y-118828188D01*
X118989820Y-118864498D01*
X118879506Y-118923463D01*
X118782815Y-119002815D01*
X118703463Y-119099506D01*
X118684000Y-119135918D01*
X118664537Y-119099506D01*
X118585185Y-119002815D01*
X118496000Y-118929623D01*
X118496000Y-118660423D01*
X118499686Y-118623000D01*
X118492757Y-118552648D01*
X118484974Y-118473622D01*
X118441402Y-118329985D01*
X118403662Y-118259378D01*
X118370645Y-118197607D01*
X118299279Y-118110648D01*
X118275422Y-118081578D01*
X118246351Y-118057720D01*
X117729000Y-117540370D01*
X117729000Y-117195902D01*
X117817506Y-117268537D01*
X117927820Y-117327502D01*
X118047518Y-117363812D01*
X118172000Y-117376072D01*
X118586250Y-117373000D01*
X118745000Y-117214250D01*
X118745000Y-116377500D01*
X118725000Y-116377500D01*
X118725000Y-116123500D01*
X118745000Y-116123500D01*
X118745000Y-116103500D01*
X118999000Y-116103500D01*
X118999000Y-116123500D01*
M02*
