G04 #@! TF.GenerationSoftware,KiCad,Pcbnew,(5.1.9-0-10_14)*
G04 #@! TF.CreationDate,2021-03-24T15:19:10+01:00*
G04 #@! TF.ProjectId,ithowifi_4l,6974686f-7769-4666-995f-346c2e6b6963,rev?*
G04 #@! TF.SameCoordinates,Original*
G04 #@! TF.FileFunction,Legend,Bot*
G04 #@! TF.FilePolarity,Positive*
%FSLAX46Y46*%
G04 Gerber Fmt 4.6, Leading zero omitted, Abs format (unit mm)*
G04 Created by KiCad (PCBNEW (5.1.9-0-10_14)) date 2021-03-24 15:19:10*
%MOMM*%
%LPD*%
G01*
G04 APERTURE LIST*
%ADD10C,0.100000*%
%ADD11C,0.200000*%
%ADD12C,0.120000*%
%ADD13C,0.150000*%
G04 APERTURE END LIST*
D10*
G36*
X114808000Y-129997200D02*
G01*
X97561400Y-129997200D01*
X97536000Y-113030000D01*
X114808000Y-113030000D01*
X114808000Y-129997200D01*
G37*
X114808000Y-129997200D02*
X97561400Y-129997200D01*
X97536000Y-113030000D01*
X114808000Y-113030000D01*
X114808000Y-129997200D01*
D11*
X85925428Y-135764666D02*
X85925428Y-137164666D01*
X86354000Y-135764666D02*
X86354000Y-136498000D01*
X86306380Y-136631333D01*
X86211142Y-136698000D01*
X86068285Y-136698000D01*
X85973047Y-136631333D01*
X85925428Y-136564666D01*
X86687333Y-136698000D02*
X87068285Y-136698000D01*
X86830190Y-137164666D02*
X86830190Y-135964666D01*
X86877809Y-135831333D01*
X86973047Y-135764666D01*
X87068285Y-135764666D01*
X87258761Y-136698000D02*
X87639714Y-136698000D01*
X87401619Y-137164666D02*
X87401619Y-135964666D01*
X87449238Y-135831333D01*
X87544476Y-135764666D01*
X87639714Y-135764666D01*
X87973047Y-136698000D02*
X87973047Y-135298000D01*
X87973047Y-136631333D02*
X88068285Y-136698000D01*
X88258761Y-136698000D01*
X88354000Y-136631333D01*
X88401619Y-136564666D01*
X88449238Y-136431333D01*
X88449238Y-136031333D01*
X88401619Y-135898000D01*
X88354000Y-135831333D01*
X88258761Y-135764666D01*
X88068285Y-135764666D01*
X87973047Y-135831333D01*
X88830190Y-135831333D02*
X88925428Y-135764666D01*
X89115904Y-135764666D01*
X89211142Y-135831333D01*
X89258761Y-135964666D01*
X89258761Y-136031333D01*
X89211142Y-136164666D01*
X89115904Y-136231333D01*
X88973047Y-136231333D01*
X88877809Y-136298000D01*
X88830190Y-136431333D01*
X88830190Y-136498000D01*
X88877809Y-136631333D01*
X88973047Y-136698000D01*
X89115904Y-136698000D01*
X89211142Y-136631333D01*
X89687333Y-135898000D02*
X89734952Y-135831333D01*
X89687333Y-135764666D01*
X89639714Y-135831333D01*
X89687333Y-135898000D01*
X89687333Y-135764666D01*
X89687333Y-136631333D02*
X89734952Y-136564666D01*
X89687333Y-136498000D01*
X89639714Y-136564666D01*
X89687333Y-136631333D01*
X89687333Y-136498000D01*
X90877809Y-137231333D02*
X90020666Y-135431333D01*
X91925428Y-137231333D02*
X91068285Y-135431333D01*
X92687333Y-136698000D02*
X92687333Y-135564666D01*
X92639714Y-135431333D01*
X92592095Y-135364666D01*
X92496857Y-135298000D01*
X92354000Y-135298000D01*
X92258761Y-135364666D01*
X92687333Y-135831333D02*
X92592095Y-135764666D01*
X92401619Y-135764666D01*
X92306380Y-135831333D01*
X92258761Y-135898000D01*
X92211142Y-136031333D01*
X92211142Y-136431333D01*
X92258761Y-136564666D01*
X92306380Y-136631333D01*
X92401619Y-136698000D01*
X92592095Y-136698000D01*
X92687333Y-136631333D01*
X93163523Y-135764666D02*
X93163523Y-136698000D01*
X93163523Y-137164666D02*
X93115904Y-137098000D01*
X93163523Y-137031333D01*
X93211142Y-137098000D01*
X93163523Y-137164666D01*
X93163523Y-137031333D01*
X93496857Y-136698000D02*
X93877809Y-136698000D01*
X93639714Y-137164666D02*
X93639714Y-135964666D01*
X93687333Y-135831333D01*
X93782571Y-135764666D01*
X93877809Y-135764666D01*
X94211142Y-135764666D02*
X94211142Y-137164666D01*
X94639714Y-135764666D02*
X94639714Y-136498000D01*
X94592095Y-136631333D01*
X94496857Y-136698000D01*
X94354000Y-136698000D01*
X94258761Y-136631333D01*
X94211142Y-136564666D01*
X95544476Y-136698000D02*
X95544476Y-135764666D01*
X95115904Y-136698000D02*
X95115904Y-135964666D01*
X95163523Y-135831333D01*
X95258761Y-135764666D01*
X95401619Y-135764666D01*
X95496857Y-135831333D01*
X95544476Y-135898000D01*
X96020666Y-135764666D02*
X96020666Y-137164666D01*
X96020666Y-136631333D02*
X96115904Y-136698000D01*
X96306380Y-136698000D01*
X96401619Y-136631333D01*
X96449238Y-136564666D01*
X96496857Y-136431333D01*
X96496857Y-136031333D01*
X96449238Y-135898000D01*
X96401619Y-135831333D01*
X96306380Y-135764666D01*
X96115904Y-135764666D01*
X96020666Y-135831333D01*
X96925428Y-135898000D02*
X96973047Y-135831333D01*
X96925428Y-135764666D01*
X96877809Y-135831333D01*
X96925428Y-135898000D01*
X96925428Y-135764666D01*
X97830190Y-135831333D02*
X97734952Y-135764666D01*
X97544476Y-135764666D01*
X97449238Y-135831333D01*
X97401619Y-135898000D01*
X97354000Y-136031333D01*
X97354000Y-136431333D01*
X97401619Y-136564666D01*
X97449238Y-136631333D01*
X97544476Y-136698000D01*
X97734952Y-136698000D01*
X97830190Y-136631333D01*
X98401619Y-135764666D02*
X98306380Y-135831333D01*
X98258761Y-135898000D01*
X98211142Y-136031333D01*
X98211142Y-136431333D01*
X98258761Y-136564666D01*
X98306380Y-136631333D01*
X98401619Y-136698000D01*
X98544476Y-136698000D01*
X98639714Y-136631333D01*
X98687333Y-136564666D01*
X98734952Y-136431333D01*
X98734952Y-136031333D01*
X98687333Y-135898000D01*
X98639714Y-135831333D01*
X98544476Y-135764666D01*
X98401619Y-135764666D01*
X99163523Y-135764666D02*
X99163523Y-136698000D01*
X99163523Y-136564666D02*
X99211142Y-136631333D01*
X99306380Y-136698000D01*
X99449238Y-136698000D01*
X99544476Y-136631333D01*
X99592095Y-136498000D01*
X99592095Y-135764666D01*
X99592095Y-136498000D02*
X99639714Y-136631333D01*
X99734952Y-136698000D01*
X99877809Y-136698000D01*
X99973047Y-136631333D01*
X100020666Y-136498000D01*
X100020666Y-135764666D01*
X101211142Y-137231333D02*
X100354000Y-135431333D01*
X101973047Y-135764666D02*
X101973047Y-136498000D01*
X101925428Y-136631333D01*
X101830190Y-136698000D01*
X101639714Y-136698000D01*
X101544476Y-136631333D01*
X101973047Y-135831333D02*
X101877809Y-135764666D01*
X101639714Y-135764666D01*
X101544476Y-135831333D01*
X101496857Y-135964666D01*
X101496857Y-136098000D01*
X101544476Y-136231333D01*
X101639714Y-136298000D01*
X101877809Y-136298000D01*
X101973047Y-136364666D01*
X102449238Y-135764666D02*
X102449238Y-136698000D01*
X102449238Y-136431333D02*
X102496857Y-136564666D01*
X102544476Y-136631333D01*
X102639714Y-136698000D01*
X102734952Y-136698000D01*
X103068285Y-136698000D02*
X103068285Y-135498000D01*
X103020666Y-135364666D01*
X102925428Y-135298000D01*
X102877809Y-135298000D01*
X103068285Y-137164666D02*
X103020666Y-137098000D01*
X103068285Y-137031333D01*
X103115904Y-137098000D01*
X103068285Y-137164666D01*
X103068285Y-137031333D01*
X103925428Y-135831333D02*
X103830190Y-135764666D01*
X103639714Y-135764666D01*
X103544476Y-135831333D01*
X103496857Y-135964666D01*
X103496857Y-136498000D01*
X103544476Y-136631333D01*
X103639714Y-136698000D01*
X103830190Y-136698000D01*
X103925428Y-136631333D01*
X103973047Y-136498000D01*
X103973047Y-136364666D01*
X103496857Y-136231333D01*
X104401619Y-136698000D02*
X104401619Y-135764666D01*
X104401619Y-136564666D02*
X104449238Y-136631333D01*
X104544476Y-136698000D01*
X104687333Y-136698000D01*
X104782571Y-136631333D01*
X104830190Y-136498000D01*
X104830190Y-135764666D01*
X105306380Y-135764666D02*
X105306380Y-137164666D01*
X105734952Y-135764666D02*
X105734952Y-136498000D01*
X105687333Y-136631333D01*
X105592095Y-136698000D01*
X105449238Y-136698000D01*
X105354000Y-136631333D01*
X105306380Y-136564666D01*
X106211142Y-135764666D02*
X106211142Y-136698000D01*
X106211142Y-137164666D02*
X106163523Y-137098000D01*
X106211142Y-137031333D01*
X106258761Y-137098000D01*
X106211142Y-137164666D01*
X106211142Y-137031333D01*
X107068285Y-135831333D02*
X106973047Y-135764666D01*
X106782571Y-135764666D01*
X106687333Y-135831333D01*
X106639714Y-135964666D01*
X106639714Y-136498000D01*
X106687333Y-136631333D01*
X106782571Y-136698000D01*
X106973047Y-136698000D01*
X107068285Y-136631333D01*
X107115904Y-136498000D01*
X107115904Y-136364666D01*
X106639714Y-136231333D01*
X107544476Y-135764666D02*
X107544476Y-136698000D01*
X107544476Y-136564666D02*
X107592095Y-136631333D01*
X107687333Y-136698000D01*
X107830190Y-136698000D01*
X107925428Y-136631333D01*
X107973047Y-136498000D01*
X107973047Y-135764666D01*
X107973047Y-136498000D02*
X108020666Y-136631333D01*
X108115904Y-136698000D01*
X108258761Y-136698000D01*
X108353999Y-136631333D01*
X108401619Y-136498000D01*
X108401619Y-135764666D01*
X108830190Y-135831333D02*
X108925428Y-135764666D01*
X109115904Y-135764666D01*
X109211142Y-135831333D01*
X109258761Y-135964666D01*
X109258761Y-136031333D01*
X109211142Y-136164666D01*
X109115904Y-136231333D01*
X108973047Y-136231333D01*
X108877809Y-136298000D01*
X108830190Y-136431333D01*
X108830190Y-136498000D01*
X108877809Y-136631333D01*
X108973047Y-136698000D01*
X109115904Y-136698000D01*
X109211142Y-136631333D01*
X109544476Y-136698000D02*
X109925428Y-136698000D01*
X109687333Y-137164666D02*
X109687333Y-135964666D01*
X109734952Y-135831333D01*
X109830190Y-135764666D01*
X109925428Y-135764666D01*
X110258761Y-135764666D02*
X110258761Y-136698000D01*
X110258761Y-136431333D02*
X110306380Y-136564666D01*
X110353999Y-136631333D01*
X110449238Y-136698000D01*
X110544476Y-136698000D01*
X111306380Y-135764666D02*
X111306380Y-136498000D01*
X111258761Y-136631333D01*
X111163523Y-136698000D01*
X110973047Y-136698000D01*
X110877809Y-136631333D01*
X111306380Y-135831333D02*
X111211142Y-135764666D01*
X110973047Y-135764666D01*
X110877809Y-135831333D01*
X110830190Y-135964666D01*
X110830190Y-136098000D01*
X110877809Y-136231333D01*
X110973047Y-136298000D01*
X111211142Y-136298000D01*
X111306380Y-136364666D01*
X112496857Y-137231333D02*
X111639714Y-135431333D01*
X112830190Y-135764666D02*
X112830190Y-136698000D01*
X112830190Y-137164666D02*
X112782571Y-137098000D01*
X112830190Y-137031333D01*
X112877809Y-137098000D01*
X112830190Y-137164666D01*
X112830190Y-137031333D01*
X113163523Y-136698000D02*
X113544476Y-136698000D01*
X113306380Y-137164666D02*
X113306380Y-135964666D01*
X113353999Y-135831333D01*
X113449238Y-135764666D01*
X113544476Y-135764666D01*
X113877809Y-135764666D02*
X113877809Y-137164666D01*
X114306380Y-135764666D02*
X114306380Y-136498000D01*
X114258761Y-136631333D01*
X114163523Y-136698000D01*
X114020666Y-136698000D01*
X113925428Y-136631333D01*
X113877809Y-136564666D01*
X114925428Y-135764666D02*
X114830190Y-135831333D01*
X114782571Y-135898000D01*
X114734952Y-136031333D01*
X114734952Y-136431333D01*
X114782571Y-136564666D01*
X114830190Y-136631333D01*
X114925428Y-136698000D01*
X115068285Y-136698000D01*
X115163523Y-136631333D01*
X115211142Y-136564666D01*
X115258761Y-136431333D01*
X115258761Y-136031333D01*
X115211142Y-135898000D01*
X115163523Y-135831333D01*
X115068285Y-135764666D01*
X114925428Y-135764666D01*
X115592095Y-136698000D02*
X115782571Y-135764666D01*
X115973047Y-136431333D01*
X116163523Y-135764666D01*
X116353999Y-136698000D01*
X116734952Y-135764666D02*
X116734952Y-136698000D01*
X116734952Y-137164666D02*
X116687333Y-137098000D01*
X116734952Y-137031333D01*
X116782571Y-137098000D01*
X116734952Y-137164666D01*
X116734952Y-137031333D01*
X117068285Y-136698000D02*
X117449238Y-136698000D01*
X117211142Y-135764666D02*
X117211142Y-136964666D01*
X117258761Y-137098000D01*
X117353999Y-137164666D01*
X117449238Y-137164666D01*
X117782571Y-135764666D02*
X117782571Y-136698000D01*
X117782571Y-137164666D02*
X117734952Y-137098000D01*
X117782571Y-137031333D01*
X117830190Y-137098000D01*
X117782571Y-137164666D01*
X117782571Y-137031333D01*
X85038400Y-147510828D02*
X85038400Y-149010828D01*
X85538400Y-148510828D02*
X86109828Y-148510828D01*
X85752685Y-149010828D02*
X85752685Y-147725114D01*
X85824114Y-147582257D01*
X85966971Y-147510828D01*
X86109828Y-147510828D01*
X86609828Y-147510828D02*
X86609828Y-149010828D01*
X87252685Y-147510828D02*
X87252685Y-148296542D01*
X87181257Y-148439400D01*
X87038400Y-148510828D01*
X86824114Y-148510828D01*
X86681257Y-148439400D01*
X86609828Y-148367971D01*
X88181257Y-147510828D02*
X88038400Y-147582257D01*
X87966971Y-147653685D01*
X87895542Y-147796542D01*
X87895542Y-148225114D01*
X87966971Y-148367971D01*
X88038400Y-148439400D01*
X88181257Y-148510828D01*
X88395542Y-148510828D01*
X88538400Y-148439400D01*
X88609828Y-148367971D01*
X88681257Y-148225114D01*
X88681257Y-147796542D01*
X88609828Y-147653685D01*
X88538400Y-147582257D01*
X88395542Y-147510828D01*
X88181257Y-147510828D01*
X91324114Y-147653685D02*
X91252685Y-147582257D01*
X91038400Y-147510828D01*
X90895542Y-147510828D01*
X90681257Y-147582257D01*
X90538400Y-147725114D01*
X90466971Y-147867971D01*
X90395542Y-148153685D01*
X90395542Y-148367971D01*
X90466971Y-148653685D01*
X90538400Y-148796542D01*
X90681257Y-148939400D01*
X90895542Y-149010828D01*
X91038400Y-149010828D01*
X91252685Y-148939400D01*
X91324114Y-148867971D01*
X91752685Y-149010828D02*
X92252685Y-147510828D01*
X92752685Y-149010828D01*
X93252685Y-148296542D02*
X93752685Y-148296542D01*
X93966971Y-147510828D02*
X93252685Y-147510828D01*
X93252685Y-149010828D01*
X93966971Y-149010828D01*
X95752685Y-148296542D02*
X96252685Y-148296542D01*
X96466971Y-147510828D02*
X95752685Y-147510828D01*
X95752685Y-149010828D01*
X96466971Y-149010828D01*
X97038400Y-147582257D02*
X97252685Y-147510828D01*
X97609828Y-147510828D01*
X97752685Y-147582257D01*
X97824114Y-147653685D01*
X97895542Y-147796542D01*
X97895542Y-147939400D01*
X97824114Y-148082257D01*
X97752685Y-148153685D01*
X97609828Y-148225114D01*
X97324114Y-148296542D01*
X97181257Y-148367971D01*
X97109828Y-148439400D01*
X97038400Y-148582257D01*
X97038400Y-148725114D01*
X97109828Y-148867971D01*
X97181257Y-148939400D01*
X97324114Y-149010828D01*
X97681257Y-149010828D01*
X97895542Y-148939400D01*
X98538400Y-147510828D02*
X98538400Y-149010828D01*
X99109828Y-149010828D01*
X99252685Y-148939400D01*
X99324114Y-148867971D01*
X99395542Y-148725114D01*
X99395542Y-148510828D01*
X99324114Y-148367971D01*
X99252685Y-148296542D01*
X99109828Y-148225114D01*
X98538400Y-148225114D01*
X101038400Y-149010828D02*
X101395542Y-147510828D01*
X101681257Y-148582257D01*
X101966971Y-147510828D01*
X102324114Y-149010828D01*
X102895542Y-147510828D02*
X102895542Y-148510828D01*
X102895542Y-149010828D02*
X102824114Y-148939400D01*
X102895542Y-148867971D01*
X102966971Y-148939400D01*
X102895542Y-149010828D01*
X102895542Y-148867971D01*
X104109828Y-148296542D02*
X103609828Y-148296542D01*
X103609828Y-147510828D02*
X103609828Y-149010828D01*
X104324114Y-149010828D01*
X104895542Y-147510828D02*
X104895542Y-148510828D01*
X104895542Y-149010828D02*
X104824114Y-148939400D01*
X104895542Y-148867971D01*
X104966971Y-148939400D01*
X104895542Y-149010828D01*
X104895542Y-148867971D01*
X107609828Y-147653685D02*
X107538400Y-147582257D01*
X107324114Y-147510828D01*
X107181257Y-147510828D01*
X106966971Y-147582257D01*
X106824114Y-147725114D01*
X106752685Y-147867971D01*
X106681257Y-148153685D01*
X106681257Y-148367971D01*
X106752685Y-148653685D01*
X106824114Y-148796542D01*
X106966971Y-148939400D01*
X107181257Y-149010828D01*
X107324114Y-149010828D01*
X107538400Y-148939400D01*
X107609828Y-148867971D01*
X108466971Y-147510828D02*
X108324114Y-147582257D01*
X108252685Y-147653685D01*
X108181257Y-147796542D01*
X108181257Y-148225114D01*
X108252685Y-148367971D01*
X108324114Y-148439400D01*
X108466971Y-148510828D01*
X108681257Y-148510828D01*
X108824114Y-148439400D01*
X108895542Y-148367971D01*
X108966971Y-148225114D01*
X108966971Y-147796542D01*
X108895542Y-147653685D01*
X108824114Y-147582257D01*
X108681257Y-147510828D01*
X108466971Y-147510828D01*
X109609828Y-148510828D02*
X109609828Y-147510828D01*
X109609828Y-148367971D02*
X109681257Y-148439400D01*
X109824114Y-148510828D01*
X110038400Y-148510828D01*
X110181257Y-148439400D01*
X110252685Y-148296542D01*
X110252685Y-147510828D01*
X110752685Y-148510828D02*
X111324114Y-148510828D01*
X110966971Y-149010828D02*
X110966971Y-147725114D01*
X111038400Y-147582257D01*
X111181257Y-147510828D01*
X111324114Y-147510828D01*
X111824114Y-147510828D02*
X111824114Y-148510828D01*
X111824114Y-148225114D02*
X111895542Y-148367971D01*
X111966971Y-148439400D01*
X112109828Y-148510828D01*
X112252685Y-148510828D01*
X112966971Y-147510828D02*
X112824114Y-147582257D01*
X112752685Y-147653685D01*
X112681257Y-147796542D01*
X112681257Y-148225114D01*
X112752685Y-148367971D01*
X112824114Y-148439400D01*
X112966971Y-148510828D01*
X113181257Y-148510828D01*
X113324114Y-148439400D01*
X113395542Y-148367971D01*
X113466971Y-148225114D01*
X113466971Y-147796542D01*
X113395542Y-147653685D01*
X113324114Y-147582257D01*
X113181257Y-147510828D01*
X112966971Y-147510828D01*
X114324114Y-147510828D02*
X114181257Y-147582257D01*
X114109828Y-147725114D01*
X114109828Y-149010828D01*
X115109828Y-147510828D02*
X114966971Y-147582257D01*
X114895542Y-147725114D01*
X114895542Y-149010828D01*
X116252685Y-147582257D02*
X116109828Y-147510828D01*
X115824114Y-147510828D01*
X115681257Y-147582257D01*
X115609828Y-147725114D01*
X115609828Y-148296542D01*
X115681257Y-148439400D01*
X115824114Y-148510828D01*
X116109828Y-148510828D01*
X116252685Y-148439400D01*
X116324114Y-148296542D01*
X116324114Y-148153685D01*
X115609828Y-148010828D01*
X116966971Y-147510828D02*
X116966971Y-148510828D01*
X116966971Y-148225114D02*
X117038400Y-148367971D01*
X117109828Y-148439400D01*
X117252685Y-148510828D01*
X117395542Y-148510828D01*
X118895542Y-148510828D02*
X119252685Y-147510828D01*
X119609828Y-148510828D01*
X120109828Y-148867971D02*
X120181257Y-148939400D01*
X120324114Y-149010828D01*
X120681257Y-149010828D01*
X120824114Y-148939400D01*
X120895542Y-148867971D01*
X120966971Y-148725114D01*
X120966971Y-148582257D01*
X120895542Y-148367971D01*
X120038400Y-147510828D01*
X120966971Y-147510828D01*
X121609828Y-147653685D02*
X121681257Y-147582257D01*
X121609828Y-147510828D01*
X121538400Y-147582257D01*
X121609828Y-147653685D01*
X121609828Y-147510828D01*
X123038400Y-149010828D02*
X122324114Y-149010828D01*
X122252685Y-148296542D01*
X122324114Y-148367971D01*
X122466971Y-148439400D01*
X122824114Y-148439400D01*
X122966971Y-148367971D01*
X123038400Y-148296542D01*
X123109828Y-148153685D01*
X123109828Y-147796542D01*
X123038400Y-147653685D01*
X122966971Y-147582257D01*
X122824114Y-147510828D01*
X122466971Y-147510828D01*
X122324114Y-147582257D01*
X122252685Y-147653685D01*
X86574114Y-145489400D02*
X87288400Y-145489400D01*
X86431257Y-145060828D02*
X86931257Y-146560828D01*
X87431257Y-145060828D01*
X87931257Y-145060828D02*
X87931257Y-146060828D01*
X87931257Y-145775114D02*
X88002685Y-145917971D01*
X88074114Y-145989400D01*
X88216971Y-146060828D01*
X88359828Y-146060828D01*
X88859828Y-146060828D02*
X88859828Y-144775114D01*
X88788400Y-144632257D01*
X88645542Y-144560828D01*
X88574114Y-144560828D01*
X88859828Y-146560828D02*
X88788400Y-146489400D01*
X88859828Y-146417971D01*
X88931257Y-146489400D01*
X88859828Y-146560828D01*
X88859828Y-146417971D01*
X90145542Y-145132257D02*
X90002685Y-145060828D01*
X89716971Y-145060828D01*
X89574114Y-145132257D01*
X89502685Y-145275114D01*
X89502685Y-145846542D01*
X89574114Y-145989400D01*
X89716971Y-146060828D01*
X90002685Y-146060828D01*
X90145542Y-145989400D01*
X90216971Y-145846542D01*
X90216971Y-145703685D01*
X89502685Y-145560828D01*
X90859828Y-146060828D02*
X90859828Y-145060828D01*
X90859828Y-145917971D02*
X90931257Y-145989400D01*
X91074114Y-146060828D01*
X91288400Y-146060828D01*
X91431257Y-145989400D01*
X91502685Y-145846542D01*
X91502685Y-145060828D01*
X93359828Y-145060828D02*
X93359828Y-146560828D01*
X93359828Y-145846542D02*
X94216971Y-145846542D01*
X94216971Y-145060828D02*
X94216971Y-146560828D01*
X94931257Y-145060828D02*
X94931257Y-146060828D01*
X94931257Y-146560828D02*
X94859828Y-146489400D01*
X94931257Y-146417971D01*
X95002685Y-146489400D01*
X94931257Y-146560828D01*
X94931257Y-146417971D01*
X96216971Y-145132257D02*
X96074114Y-145060828D01*
X95788400Y-145060828D01*
X95645542Y-145132257D01*
X95574114Y-145275114D01*
X95574114Y-145846542D01*
X95645542Y-145989400D01*
X95788400Y-146060828D01*
X96074114Y-146060828D01*
X96216971Y-145989400D01*
X96288400Y-145846542D01*
X96288400Y-145703685D01*
X95574114Y-145560828D01*
X96931257Y-145060828D02*
X96931257Y-146060828D01*
X96931257Y-145917971D02*
X97002685Y-145989400D01*
X97145542Y-146060828D01*
X97359828Y-146060828D01*
X97502685Y-145989400D01*
X97574114Y-145846542D01*
X97574114Y-145060828D01*
X97574114Y-145846542D02*
X97645542Y-145989400D01*
X97788400Y-146060828D01*
X98002685Y-146060828D01*
X98145542Y-145989400D01*
X98216971Y-145846542D01*
X98216971Y-145060828D01*
X98859828Y-145132257D02*
X99002685Y-145060828D01*
X99288400Y-145060828D01*
X99431257Y-145132257D01*
X99502685Y-145275114D01*
X99502685Y-145346542D01*
X99431257Y-145489400D01*
X99288400Y-145560828D01*
X99074114Y-145560828D01*
X98931257Y-145632257D01*
X98859828Y-145775114D01*
X98859828Y-145846542D01*
X98931257Y-145989400D01*
X99074114Y-146060828D01*
X99288400Y-146060828D01*
X99431257Y-145989400D01*
X99931257Y-146060828D02*
X100502685Y-146060828D01*
X100145542Y-146560828D02*
X100145542Y-145275114D01*
X100216971Y-145132257D01*
X100359828Y-145060828D01*
X100502685Y-145060828D01*
X101002685Y-145060828D02*
X101002685Y-146060828D01*
X101002685Y-145775114D02*
X101074114Y-145917971D01*
X101145542Y-145989400D01*
X101288400Y-146060828D01*
X101431257Y-146060828D01*
X102574114Y-145060828D02*
X102574114Y-145846542D01*
X102502685Y-145989400D01*
X102359828Y-146060828D01*
X102074114Y-146060828D01*
X101931257Y-145989400D01*
X102574114Y-145132257D02*
X102431257Y-145060828D01*
X102074114Y-145060828D01*
X101931257Y-145132257D01*
X101859828Y-145275114D01*
X101859828Y-145417971D01*
X101931257Y-145560828D01*
X102074114Y-145632257D01*
X102431257Y-145632257D01*
X102574114Y-145703685D01*
X104431257Y-145632257D02*
X105574114Y-145632257D01*
X108216971Y-146489400D02*
X108074114Y-146560828D01*
X107859828Y-146560828D01*
X107645542Y-146489400D01*
X107502685Y-146346542D01*
X107431257Y-146203685D01*
X107359828Y-145917971D01*
X107359828Y-145703685D01*
X107431257Y-145417971D01*
X107502685Y-145275114D01*
X107645542Y-145132257D01*
X107859828Y-145060828D01*
X108002685Y-145060828D01*
X108216971Y-145132257D01*
X108288400Y-145203685D01*
X108288400Y-145703685D01*
X108002685Y-145703685D01*
X108931257Y-145060828D02*
X108931257Y-146560828D01*
X109788400Y-145060828D01*
X109788400Y-146560828D01*
X110502685Y-146560828D02*
X110502685Y-145346542D01*
X110574114Y-145203685D01*
X110645542Y-145132257D01*
X110788400Y-145060828D01*
X111074114Y-145060828D01*
X111216971Y-145132257D01*
X111288400Y-145203685D01*
X111359828Y-145346542D01*
X111359828Y-146560828D01*
X114002685Y-146489400D02*
X113859828Y-146560828D01*
X113645542Y-146560828D01*
X113431257Y-146489400D01*
X113288400Y-146346542D01*
X113216971Y-146203685D01*
X113145542Y-145917971D01*
X113145542Y-145703685D01*
X113216971Y-145417971D01*
X113288400Y-145275114D01*
X113431257Y-145132257D01*
X113645542Y-145060828D01*
X113788400Y-145060828D01*
X114002685Y-145132257D01*
X114074114Y-145203685D01*
X114074114Y-145703685D01*
X113788400Y-145703685D01*
X114716971Y-145060828D02*
X114716971Y-146560828D01*
X115288400Y-146560828D01*
X115431257Y-146489400D01*
X115502685Y-146417971D01*
X115574114Y-146275114D01*
X115574114Y-146060828D01*
X115502685Y-145917971D01*
X115431257Y-145846542D01*
X115288400Y-145775114D01*
X114716971Y-145775114D01*
X116931257Y-145060828D02*
X116216971Y-145060828D01*
X116216971Y-146560828D01*
X118431257Y-146560828D02*
X119359828Y-146560828D01*
X118859828Y-145989400D01*
X119074114Y-145989400D01*
X119216971Y-145917971D01*
X119288400Y-145846542D01*
X119359828Y-145703685D01*
X119359828Y-145346542D01*
X119288400Y-145203685D01*
X119216971Y-145132257D01*
X119074114Y-145060828D01*
X118645542Y-145060828D01*
X118502685Y-145132257D01*
X118431257Y-145203685D01*
X120002685Y-145203685D02*
X120074114Y-145132257D01*
X120002685Y-145060828D01*
X119931257Y-145132257D01*
X120002685Y-145203685D01*
X120002685Y-145060828D01*
X121002685Y-146560828D02*
X121145542Y-146560828D01*
X121288400Y-146489400D01*
X121359828Y-146417971D01*
X121431257Y-146275114D01*
X121502685Y-145989400D01*
X121502685Y-145632257D01*
X121431257Y-145346542D01*
X121359828Y-145203685D01*
X121288400Y-145132257D01*
X121145542Y-145060828D01*
X121002685Y-145060828D01*
X120859828Y-145132257D01*
X120788400Y-145203685D01*
X120716971Y-145346542D01*
X120645542Y-145632257D01*
X120645542Y-145989400D01*
X120716971Y-146275114D01*
X120788400Y-146417971D01*
X120859828Y-146489400D01*
X121002685Y-146560828D01*
D12*
X104931400Y-111558400D02*
X105181400Y-111058400D01*
X105431400Y-111558400D02*
X104931400Y-111558400D01*
X105181400Y-111058400D02*
X105431400Y-111558400D01*
D13*
X114822000Y-131189000D02*
X114822000Y-111889000D01*
X114822000Y-111889000D02*
X108797000Y-111889000D01*
X101547000Y-111889000D02*
X97522000Y-111889000D01*
X97522000Y-111889000D02*
X97522000Y-131189000D01*
X97522000Y-131189000D02*
X98272000Y-131189000D01*
X114072000Y-131189000D02*
X114822000Y-131189000D01*
D12*
X118177000Y-139125000D02*
X120777000Y-139125000D01*
X118177000Y-139125000D02*
X118177000Y-128845000D01*
X118177000Y-128845000D02*
X123377000Y-128845000D01*
X123377000Y-136525000D02*
X123377000Y-128845000D01*
X120777000Y-136525000D02*
X123377000Y-136525000D01*
X120777000Y-139125000D02*
X120777000Y-136525000D01*
X123377000Y-139125000D02*
X123377000Y-137795000D01*
X122047000Y-139125000D02*
X123377000Y-139125000D01*
D13*
X108514733Y-111260780D02*
X108514733Y-111975066D01*
X108562352Y-112117923D01*
X108657590Y-112213161D01*
X108800447Y-112260780D01*
X108895685Y-112260780D01*
X108133780Y-111260780D02*
X107514733Y-111260780D01*
X107848066Y-111641733D01*
X107705209Y-111641733D01*
X107609971Y-111689352D01*
X107562352Y-111736971D01*
X107514733Y-111832209D01*
X107514733Y-112070304D01*
X107562352Y-112165542D01*
X107609971Y-112213161D01*
X107705209Y-112260780D01*
X107990923Y-112260780D01*
X108086161Y-112213161D01*
X108133780Y-112165542D01*
X115720857Y-130165952D02*
X115673238Y-130213571D01*
X115625619Y-130356428D01*
X115625619Y-130451666D01*
X115673238Y-130594523D01*
X115768476Y-130689761D01*
X115863714Y-130737380D01*
X116054190Y-130785000D01*
X116197047Y-130785000D01*
X116387523Y-130737380D01*
X116482761Y-130689761D01*
X116578000Y-130594523D01*
X116625619Y-130451666D01*
X116625619Y-130356428D01*
X116578000Y-130213571D01*
X116530380Y-130165952D01*
X115720857Y-129165952D02*
X115673238Y-129213571D01*
X115625619Y-129356428D01*
X115625619Y-129451666D01*
X115673238Y-129594523D01*
X115768476Y-129689761D01*
X115863714Y-129737380D01*
X116054190Y-129785000D01*
X116197047Y-129785000D01*
X116387523Y-129737380D01*
X116482761Y-129689761D01*
X116578000Y-129594523D01*
X116625619Y-129451666D01*
X116625619Y-129356428D01*
X116578000Y-129213571D01*
X116530380Y-129165952D01*
X115625619Y-128213571D02*
X115625619Y-128785000D01*
X115625619Y-128499285D02*
X116625619Y-128499285D01*
X116482761Y-128594523D01*
X116387523Y-128689761D01*
X116339904Y-128785000D01*
X115625619Y-127261190D02*
X115625619Y-127832619D01*
X115625619Y-127546904D02*
X116625619Y-127546904D01*
X116482761Y-127642142D01*
X116387523Y-127737380D01*
X116339904Y-127832619D01*
X116625619Y-126642142D02*
X116625619Y-126546904D01*
X116578000Y-126451666D01*
X116530380Y-126404047D01*
X116435142Y-126356428D01*
X116244666Y-126308809D01*
X116006571Y-126308809D01*
X115816095Y-126356428D01*
X115720857Y-126404047D01*
X115673238Y-126451666D01*
X115625619Y-126546904D01*
X115625619Y-126642142D01*
X115673238Y-126737380D01*
X115720857Y-126785000D01*
X115816095Y-126832619D01*
X116006571Y-126880238D01*
X116244666Y-126880238D01*
X116435142Y-126832619D01*
X116530380Y-126785000D01*
X116578000Y-126737380D01*
X116625619Y-126642142D01*
X115625619Y-125356428D02*
X115625619Y-125927857D01*
X115625619Y-125642142D02*
X116625619Y-125642142D01*
X116482761Y-125737380D01*
X116387523Y-125832619D01*
X116339904Y-125927857D01*
X116006571Y-124927857D02*
X116006571Y-124165952D01*
X116197047Y-123546904D02*
X116244666Y-123642142D01*
X116292285Y-123689761D01*
X116387523Y-123737380D01*
X116435142Y-123737380D01*
X116530380Y-123689761D01*
X116578000Y-123642142D01*
X116625619Y-123546904D01*
X116625619Y-123356428D01*
X116578000Y-123261190D01*
X116530380Y-123213571D01*
X116435142Y-123165952D01*
X116387523Y-123165952D01*
X116292285Y-123213571D01*
X116244666Y-123261190D01*
X116197047Y-123356428D01*
X116197047Y-123546904D01*
X116149428Y-123642142D01*
X116101809Y-123689761D01*
X116006571Y-123737380D01*
X115816095Y-123737380D01*
X115720857Y-123689761D01*
X115673238Y-123642142D01*
X115625619Y-123546904D01*
X115625619Y-123356428D01*
X115673238Y-123261190D01*
X115720857Y-123213571D01*
X115816095Y-123165952D01*
X116006571Y-123165952D01*
X116101809Y-123213571D01*
X116149428Y-123261190D01*
X116197047Y-123356428D01*
X116625619Y-122308809D02*
X116625619Y-122499285D01*
X116578000Y-122594523D01*
X116530380Y-122642142D01*
X116387523Y-122737380D01*
X116197047Y-122785000D01*
X115816095Y-122785000D01*
X115720857Y-122737380D01*
X115673238Y-122689761D01*
X115625619Y-122594523D01*
X115625619Y-122404047D01*
X115673238Y-122308809D01*
X115720857Y-122261190D01*
X115816095Y-122213571D01*
X116054190Y-122213571D01*
X116149428Y-122261190D01*
X116197047Y-122308809D01*
X116244666Y-122404047D01*
X116244666Y-122594523D01*
X116197047Y-122689761D01*
X116149428Y-122737380D01*
X116054190Y-122785000D01*
X116197047Y-121642142D02*
X116244666Y-121737380D01*
X116292285Y-121785000D01*
X116387523Y-121832619D01*
X116435142Y-121832619D01*
X116530380Y-121785000D01*
X116578000Y-121737380D01*
X116625619Y-121642142D01*
X116625619Y-121451666D01*
X116578000Y-121356428D01*
X116530380Y-121308809D01*
X116435142Y-121261190D01*
X116387523Y-121261190D01*
X116292285Y-121308809D01*
X116244666Y-121356428D01*
X116197047Y-121451666D01*
X116197047Y-121642142D01*
X116149428Y-121737380D01*
X116101809Y-121785000D01*
X116006571Y-121832619D01*
X115816095Y-121832619D01*
X115720857Y-121785000D01*
X115673238Y-121737380D01*
X115625619Y-121642142D01*
X115625619Y-121451666D01*
X115673238Y-121356428D01*
X115720857Y-121308809D01*
X115816095Y-121261190D01*
X116006571Y-121261190D01*
X116101809Y-121308809D01*
X116149428Y-121356428D01*
X116197047Y-121451666D01*
X115625619Y-120832619D02*
X116625619Y-120832619D01*
X115911333Y-120499285D01*
X116625619Y-120165952D01*
X115625619Y-120165952D01*
X115625619Y-119689761D02*
X116625619Y-119689761D01*
X116149428Y-119689761D02*
X116149428Y-119118333D01*
X115625619Y-119118333D02*
X116625619Y-119118333D01*
X116292285Y-118737380D02*
X116292285Y-118213571D01*
X115625619Y-118737380D01*
X115625619Y-118213571D01*
X116006571Y-117832619D02*
X116006571Y-117070714D01*
X115625619Y-116594523D02*
X116625619Y-116594523D01*
X115911333Y-116261190D01*
X116625619Y-115927857D01*
X115625619Y-115927857D01*
X115625619Y-115308809D02*
X115673238Y-115404047D01*
X115720857Y-115451666D01*
X115816095Y-115499285D01*
X116101809Y-115499285D01*
X116197047Y-115451666D01*
X116244666Y-115404047D01*
X116292285Y-115308809D01*
X116292285Y-115165952D01*
X116244666Y-115070714D01*
X116197047Y-115023095D01*
X116101809Y-114975476D01*
X115816095Y-114975476D01*
X115720857Y-115023095D01*
X115673238Y-115070714D01*
X115625619Y-115165952D01*
X115625619Y-115308809D01*
X115625619Y-114118333D02*
X116625619Y-114118333D01*
X115673238Y-114118333D02*
X115625619Y-114213571D01*
X115625619Y-114404047D01*
X115673238Y-114499285D01*
X115720857Y-114546904D01*
X115816095Y-114594523D01*
X116101809Y-114594523D01*
X116197047Y-114546904D01*
X116244666Y-114499285D01*
X116292285Y-114404047D01*
X116292285Y-114213571D01*
X116244666Y-114118333D01*
X116292285Y-113213571D02*
X115625619Y-113213571D01*
X116292285Y-113642142D02*
X115768476Y-113642142D01*
X115673238Y-113594523D01*
X115625619Y-113499285D01*
X115625619Y-113356428D01*
X115673238Y-113261190D01*
X115720857Y-113213571D01*
X115625619Y-112594523D02*
X115673238Y-112689761D01*
X115768476Y-112737380D01*
X116625619Y-112737380D01*
X115673238Y-111832619D02*
X115625619Y-111927857D01*
X115625619Y-112118333D01*
X115673238Y-112213571D01*
X115768476Y-112261190D01*
X116149428Y-112261190D01*
X116244666Y-112213571D01*
X116292285Y-112118333D01*
X116292285Y-111927857D01*
X116244666Y-111832619D01*
X116149428Y-111785000D01*
X116054190Y-111785000D01*
X115958952Y-112261190D01*
X121110333Y-140017380D02*
X121110333Y-140731666D01*
X121157952Y-140874523D01*
X121253190Y-140969761D01*
X121396047Y-141017380D01*
X121491285Y-141017380D01*
X120681761Y-140112619D02*
X120634142Y-140065000D01*
X120538904Y-140017380D01*
X120300809Y-140017380D01*
X120205571Y-140065000D01*
X120157952Y-140112619D01*
X120110333Y-140207857D01*
X120110333Y-140303095D01*
X120157952Y-140445952D01*
X120729380Y-141017380D01*
X120110333Y-141017380D01*
M02*
