G04 #@! TF.GenerationSoftware,KiCad,Pcbnew,(5.1.9-0-10_14)*
G04 #@! TF.CreationDate,2021-03-24T15:19:10+01:00*
G04 #@! TF.ProjectId,ithowifi_4l,6974686f-7769-4666-995f-346c2e6b6963,rev?*
G04 #@! TF.SameCoordinates,Original*
G04 #@! TF.FileFunction,Copper,L2,Inr*
G04 #@! TF.FilePolarity,Positive*
%FSLAX46Y46*%
G04 Gerber Fmt 4.6, Leading zero omitted, Abs format (unit mm)*
G04 Created by KiCad (PCBNEW (5.1.9-0-10_14)) date 2021-03-24 15:19:10*
%MOMM*%
%LPD*%
G01*
G04 APERTURE LIST*
G04 #@! TA.AperFunction,ComponentPad*
%ADD10O,1.700000X1.700000*%
G04 #@! TD*
G04 #@! TA.AperFunction,ComponentPad*
%ADD11R,1.700000X1.700000*%
G04 #@! TD*
G04 #@! TA.AperFunction,ComponentPad*
%ADD12C,1.500000*%
G04 #@! TD*
G04 #@! TA.AperFunction,ComponentPad*
%ADD13O,1.500000X2.300000*%
G04 #@! TD*
G04 #@! TA.AperFunction,ComponentPad*
%ADD14R,1.500000X2.300000*%
G04 #@! TD*
G04 #@! TA.AperFunction,ViaPad*
%ADD15C,0.800000*%
G04 #@! TD*
G04 #@! TA.AperFunction,Conductor*
%ADD16C,0.254000*%
G04 #@! TD*
G04 #@! TA.AperFunction,Conductor*
%ADD17C,0.203200*%
G04 #@! TD*
G04 #@! TA.AperFunction,Conductor*
%ADD18C,0.100000*%
G04 #@! TD*
G04 APERTURE END LIST*
D10*
X113832000Y-154468000D03*
X111292000Y-154468000D03*
X113832000Y-151928000D03*
D11*
X111292000Y-151928000D03*
D12*
X105181400Y-109474000D03*
D10*
X85725000Y-123037600D03*
X85725000Y-120497600D03*
X85725000Y-117957600D03*
X85725000Y-115417600D03*
X85725000Y-112877600D03*
X85725000Y-110337600D03*
D11*
X85725000Y-107797600D03*
D13*
X116179600Y-142951200D03*
X118719600Y-142951200D03*
D14*
X121259600Y-142951200D03*
D11*
X122047000Y-137795000D03*
D10*
X119507000Y-137795000D03*
X122047000Y-135255000D03*
X119507000Y-135255000D03*
X122047000Y-132715000D03*
X119507000Y-132715000D03*
X122047000Y-130175000D03*
X119507000Y-130175000D03*
D15*
X95250000Y-139700000D03*
X98806000Y-139700000D03*
X97028000Y-139700000D03*
X98806000Y-142748000D03*
X97028000Y-142748000D03*
X95250000Y-142748000D03*
X95250000Y-141224000D03*
X98806000Y-141224000D03*
X97028000Y-141224000D03*
X99187000Y-105918000D03*
X99187000Y-107442000D03*
X99187000Y-109093000D03*
X101092000Y-112014000D03*
X109220000Y-112014000D03*
X107132000Y-143568000D03*
X104648000Y-120142000D03*
X108585000Y-136144000D03*
X101727000Y-132715000D03*
X89154000Y-148590000D03*
X106172000Y-148590000D03*
X99187000Y-110871000D03*
X99187000Y-112522000D03*
X99187000Y-114173000D03*
X111125000Y-105918000D03*
X111125000Y-107442000D03*
X111125000Y-109093000D03*
X111125000Y-110871000D03*
X111125000Y-114173000D03*
X111125000Y-112522000D03*
X105918000Y-114173000D03*
X109220000Y-114173000D03*
X102489000Y-114173000D03*
X104140000Y-114173000D03*
X100965000Y-114173000D03*
X107569000Y-114173000D03*
X92202000Y-118872000D03*
X102432000Y-138568000D03*
X109532000Y-140568000D03*
X122682000Y-127698500D03*
X118618000Y-127698500D03*
X115811300Y-138036300D03*
X116433600Y-135407400D03*
X112268000Y-144526000D03*
X108077000Y-129540000D03*
X108077000Y-133350000D03*
X106172000Y-147320000D03*
X113157000Y-129413000D03*
X120269000Y-116713000D03*
X122936000Y-115316000D03*
X122682000Y-119761000D03*
X120396000Y-119634000D03*
X98679000Y-121920000D03*
X94234000Y-123571000D03*
X91821000Y-123571000D03*
X104648000Y-121793000D03*
X88773000Y-119888000D03*
X111760000Y-133477000D03*
X88265000Y-124587000D03*
X113157000Y-125857000D03*
X108632000Y-147368000D03*
X90424000Y-122301000D03*
X85039200Y-143560804D03*
X84531209Y-144805391D03*
X89309400Y-147345400D03*
X95032000Y-133668000D03*
X89154000Y-138430000D03*
X89027000Y-137160002D03*
X89154000Y-133350000D03*
X101532000Y-125968000D03*
X106132000Y-146068000D03*
X92456000Y-117602000D03*
X98473494Y-127810500D03*
X115252500Y-121666000D03*
X115252500Y-121666000D03*
X112242600Y-121259600D03*
X106932000Y-137168000D03*
X116697000Y-120539000D03*
X110972600Y-120014982D03*
X107189404Y-139725400D03*
D16*
X101532000Y-125968000D02*
X102732000Y-125968000D01*
X102732000Y-125968000D02*
X104532000Y-125968000D01*
X106104999Y-146040999D02*
X106132000Y-146068000D01*
X106104999Y-127540999D02*
X106104999Y-146040999D01*
X104532000Y-125968000D02*
X106104999Y-127540999D01*
D17*
X84497634Y-115149056D02*
X84488296Y-115196009D01*
X84570479Y-115392200D01*
X85699600Y-115392200D01*
X85699600Y-115372200D01*
X85750400Y-115372200D01*
X85750400Y-115392200D01*
X86879521Y-115392200D01*
X86961704Y-115196009D01*
X86952366Y-115149056D01*
X86915899Y-115036600D01*
X93220965Y-115036600D01*
X93241378Y-115057013D01*
X93561676Y-115271030D01*
X93917573Y-115418447D01*
X94295390Y-115493600D01*
X94680610Y-115493600D01*
X95058427Y-115418447D01*
X95414324Y-115271030D01*
X95734622Y-115057013D01*
X95755035Y-115036600D01*
X124926400Y-115036600D01*
X124926401Y-149448158D01*
X124922695Y-149485957D01*
X124917480Y-149503228D01*
X124909006Y-149519166D01*
X124897606Y-149533144D01*
X124883695Y-149544652D01*
X124867829Y-149553231D01*
X124850590Y-149558567D01*
X124814122Y-149562400D01*
X116312079Y-149562400D01*
X116294786Y-149564103D01*
X116291750Y-149564082D01*
X116286113Y-149564634D01*
X116269310Y-149566400D01*
X115832000Y-149566400D01*
X115812179Y-149568352D01*
X115793119Y-149574134D01*
X115775554Y-149583523D01*
X115760158Y-149596158D01*
X115747523Y-149611554D01*
X115738134Y-149629119D01*
X115732352Y-149648179D01*
X115730400Y-149668000D01*
X115730400Y-149793463D01*
X115718675Y-149803163D01*
X115692783Y-149829238D01*
X115666510Y-149854966D01*
X115662900Y-149859329D01*
X115601224Y-149934950D01*
X115580887Y-149965560D01*
X115560108Y-149995907D01*
X115557414Y-150000888D01*
X115511602Y-150087049D01*
X115497585Y-150121059D01*
X115483114Y-150154822D01*
X115481439Y-150160232D01*
X115453234Y-150253650D01*
X115446094Y-150289709D01*
X115438450Y-150325673D01*
X115437858Y-150331305D01*
X115428336Y-150428422D01*
X115428336Y-150428432D01*
X115426401Y-150448079D01*
X115426400Y-155948168D01*
X115422695Y-155985957D01*
X115417480Y-156003228D01*
X115409006Y-156019166D01*
X115397606Y-156033144D01*
X115383695Y-156044652D01*
X115367829Y-156053231D01*
X115350590Y-156058567D01*
X115314122Y-156062400D01*
X112733600Y-156062400D01*
X112733600Y-154966612D01*
X112763611Y-155039066D01*
X112895550Y-155236525D01*
X113063475Y-155404450D01*
X113260934Y-155536389D01*
X113480340Y-155627269D01*
X113713259Y-155673600D01*
X113950741Y-155673600D01*
X114183660Y-155627269D01*
X114403066Y-155536389D01*
X114600525Y-155404450D01*
X114768450Y-155236525D01*
X114900389Y-155039066D01*
X114991269Y-154819660D01*
X115037600Y-154586741D01*
X115037600Y-154349259D01*
X114991269Y-154116340D01*
X114900389Y-153896934D01*
X114768450Y-153699475D01*
X114600525Y-153531550D01*
X114403066Y-153399611D01*
X114183660Y-153308731D01*
X113950741Y-153262400D01*
X113713259Y-153262400D01*
X113480340Y-153308731D01*
X113260934Y-153399611D01*
X113063475Y-153531550D01*
X112895550Y-153699475D01*
X112763611Y-153896934D01*
X112733600Y-153969388D01*
X112733600Y-152525585D01*
X112800829Y-152645795D01*
X112960677Y-152833174D01*
X113154010Y-152985768D01*
X113373398Y-153097712D01*
X113610409Y-153164705D01*
X113806600Y-153082544D01*
X113806600Y-151953400D01*
X113857400Y-151953400D01*
X113857400Y-153082544D01*
X114053591Y-153164705D01*
X114290602Y-153097712D01*
X114509990Y-152985768D01*
X114703323Y-152833174D01*
X114863171Y-152645795D01*
X114983392Y-152430831D01*
X115059366Y-152196544D01*
X115068704Y-152149591D01*
X114986521Y-151953400D01*
X113857400Y-151953400D01*
X113806600Y-151953400D01*
X113786600Y-151953400D01*
X113786600Y-151902600D01*
X113806600Y-151902600D01*
X113806600Y-150773456D01*
X113857400Y-150773456D01*
X113857400Y-151902600D01*
X114986521Y-151902600D01*
X115068704Y-151706409D01*
X115059366Y-151659456D01*
X114983392Y-151425169D01*
X114863171Y-151210205D01*
X114703323Y-151022826D01*
X114509990Y-150870232D01*
X114290602Y-150758288D01*
X114053591Y-150691295D01*
X113857400Y-150773456D01*
X113806600Y-150773456D01*
X113610409Y-150691295D01*
X113373398Y-150758288D01*
X113154010Y-150870232D01*
X112960677Y-151022826D01*
X112800829Y-151210205D01*
X112733600Y-151330415D01*
X112733600Y-149668000D01*
X112731648Y-149648179D01*
X112725866Y-149629119D01*
X112716477Y-149611554D01*
X112703842Y-149596158D01*
X112688446Y-149583523D01*
X112670881Y-149574134D01*
X112651821Y-149568352D01*
X112632000Y-149566400D01*
X104692534Y-149566400D01*
X104651921Y-149562400D01*
X104632000Y-149560438D01*
X104612079Y-149562400D01*
X87351921Y-149562400D01*
X87332000Y-149560438D01*
X87312079Y-149562400D01*
X87271466Y-149566400D01*
X83437600Y-149566400D01*
X83437600Y-148515580D01*
X88398400Y-148515580D01*
X88398400Y-148664420D01*
X88427437Y-148810400D01*
X88484396Y-148947911D01*
X88567087Y-149071667D01*
X88672333Y-149176913D01*
X88796089Y-149259604D01*
X88933600Y-149316563D01*
X89079580Y-149345600D01*
X89228420Y-149345600D01*
X89374400Y-149316563D01*
X89511911Y-149259604D01*
X89635667Y-149176913D01*
X89740913Y-149071667D01*
X89823604Y-148947911D01*
X89880563Y-148810400D01*
X89909600Y-148664420D01*
X89909600Y-148515580D01*
X105416400Y-148515580D01*
X105416400Y-148664420D01*
X105445437Y-148810400D01*
X105502396Y-148947911D01*
X105585087Y-149071667D01*
X105690333Y-149176913D01*
X105814089Y-149259604D01*
X105951600Y-149316563D01*
X106097580Y-149345600D01*
X106246420Y-149345600D01*
X106392400Y-149316563D01*
X106529911Y-149259604D01*
X106653667Y-149176913D01*
X106758913Y-149071667D01*
X106841604Y-148947911D01*
X106898563Y-148810400D01*
X106927600Y-148664420D01*
X106927600Y-148515580D01*
X106898563Y-148369600D01*
X106841604Y-148232089D01*
X106758913Y-148108333D01*
X106653667Y-148003087D01*
X106529911Y-147920396D01*
X106392400Y-147863437D01*
X106246420Y-147834400D01*
X106097580Y-147834400D01*
X105951600Y-147863437D01*
X105814089Y-147920396D01*
X105690333Y-148003087D01*
X105585087Y-148108333D01*
X105502396Y-148232089D01*
X105445437Y-148369600D01*
X105416400Y-148515580D01*
X89909600Y-148515580D01*
X89880563Y-148369600D01*
X89823604Y-148232089D01*
X89740913Y-148108333D01*
X89653362Y-148020782D01*
X89667311Y-148015004D01*
X89791067Y-147932313D01*
X89896313Y-147827067D01*
X89979004Y-147703311D01*
X90035963Y-147565800D01*
X90065000Y-147419820D01*
X90065000Y-147270980D01*
X90035963Y-147125000D01*
X89979004Y-146987489D01*
X89896313Y-146863733D01*
X89791067Y-146758487D01*
X89667311Y-146675796D01*
X89529800Y-146618837D01*
X89383820Y-146589800D01*
X89234980Y-146589800D01*
X89089000Y-146618837D01*
X88951489Y-146675796D01*
X88827733Y-146758487D01*
X88722487Y-146863733D01*
X88639796Y-146987489D01*
X88582837Y-147125000D01*
X88553800Y-147270980D01*
X88553800Y-147419820D01*
X88582837Y-147565800D01*
X88639796Y-147703311D01*
X88722487Y-147827067D01*
X88810038Y-147914618D01*
X88796089Y-147920396D01*
X88672333Y-148003087D01*
X88567087Y-148108333D01*
X88484396Y-148232089D01*
X88427437Y-148369600D01*
X88398400Y-148515580D01*
X83437600Y-148515580D01*
X83437600Y-144730971D01*
X83775609Y-144730971D01*
X83775609Y-144879811D01*
X83804646Y-145025791D01*
X83861605Y-145163302D01*
X83944296Y-145287058D01*
X84049542Y-145392304D01*
X84173298Y-145474995D01*
X84310809Y-145531954D01*
X84456789Y-145560991D01*
X84605629Y-145560991D01*
X84751609Y-145531954D01*
X84889120Y-145474995D01*
X85012876Y-145392304D01*
X85118122Y-145287058D01*
X85200813Y-145163302D01*
X85257772Y-145025791D01*
X85286809Y-144879811D01*
X85286809Y-144730971D01*
X85257772Y-144584991D01*
X85200813Y-144447480D01*
X85118122Y-144323724D01*
X85110802Y-144316404D01*
X85113620Y-144316404D01*
X85259600Y-144287367D01*
X85397111Y-144230408D01*
X85520867Y-144147717D01*
X85626113Y-144042471D01*
X85708804Y-143918715D01*
X85765763Y-143781204D01*
X85794800Y-143635224D01*
X85794800Y-143486384D01*
X85765763Y-143340404D01*
X85708804Y-143202893D01*
X85626113Y-143079137D01*
X85520867Y-142973891D01*
X85397111Y-142891200D01*
X85259600Y-142834241D01*
X85113620Y-142805204D01*
X84964780Y-142805204D01*
X84818800Y-142834241D01*
X84681289Y-142891200D01*
X84557533Y-142973891D01*
X84452287Y-143079137D01*
X84369596Y-143202893D01*
X84312637Y-143340404D01*
X84283600Y-143486384D01*
X84283600Y-143635224D01*
X84312637Y-143781204D01*
X84369596Y-143918715D01*
X84452287Y-144042471D01*
X84459607Y-144049791D01*
X84456789Y-144049791D01*
X84310809Y-144078828D01*
X84173298Y-144135787D01*
X84049542Y-144218478D01*
X83944296Y-144323724D01*
X83861605Y-144447480D01*
X83804646Y-144584991D01*
X83775609Y-144730971D01*
X83437600Y-144730971D01*
X83437600Y-142673580D01*
X94494400Y-142673580D01*
X94494400Y-142822420D01*
X94523437Y-142968400D01*
X94580396Y-143105911D01*
X94663087Y-143229667D01*
X94768333Y-143334913D01*
X94892089Y-143417604D01*
X95029600Y-143474563D01*
X95175580Y-143503600D01*
X95324420Y-143503600D01*
X95470400Y-143474563D01*
X95607911Y-143417604D01*
X95731667Y-143334913D01*
X95836913Y-143229667D01*
X95919604Y-143105911D01*
X95976563Y-142968400D01*
X96005600Y-142822420D01*
X96005600Y-142673580D01*
X96272400Y-142673580D01*
X96272400Y-142822420D01*
X96301437Y-142968400D01*
X96358396Y-143105911D01*
X96441087Y-143229667D01*
X96546333Y-143334913D01*
X96670089Y-143417604D01*
X96807600Y-143474563D01*
X96953580Y-143503600D01*
X97102420Y-143503600D01*
X97248400Y-143474563D01*
X97385911Y-143417604D01*
X97509667Y-143334913D01*
X97614913Y-143229667D01*
X97697604Y-143105911D01*
X97754563Y-142968400D01*
X97783600Y-142822420D01*
X97783600Y-142673580D01*
X98050400Y-142673580D01*
X98050400Y-142822420D01*
X98079437Y-142968400D01*
X98136396Y-143105911D01*
X98219087Y-143229667D01*
X98324333Y-143334913D01*
X98448089Y-143417604D01*
X98585600Y-143474563D01*
X98731580Y-143503600D01*
X98880420Y-143503600D01*
X99026400Y-143474563D01*
X99163911Y-143417604D01*
X99287667Y-143334913D01*
X99392913Y-143229667D01*
X99475604Y-143105911D01*
X99532563Y-142968400D01*
X99561600Y-142822420D01*
X99561600Y-142673580D01*
X99532563Y-142527600D01*
X99475604Y-142390089D01*
X99392913Y-142266333D01*
X99287667Y-142161087D01*
X99163911Y-142078396D01*
X99026400Y-142021437D01*
X98880420Y-141992400D01*
X98731580Y-141992400D01*
X98585600Y-142021437D01*
X98448089Y-142078396D01*
X98324333Y-142161087D01*
X98219087Y-142266333D01*
X98136396Y-142390089D01*
X98079437Y-142527600D01*
X98050400Y-142673580D01*
X97783600Y-142673580D01*
X97754563Y-142527600D01*
X97697604Y-142390089D01*
X97614913Y-142266333D01*
X97509667Y-142161087D01*
X97385911Y-142078396D01*
X97248400Y-142021437D01*
X97102420Y-141992400D01*
X96953580Y-141992400D01*
X96807600Y-142021437D01*
X96670089Y-142078396D01*
X96546333Y-142161087D01*
X96441087Y-142266333D01*
X96358396Y-142390089D01*
X96301437Y-142527600D01*
X96272400Y-142673580D01*
X96005600Y-142673580D01*
X95976563Y-142527600D01*
X95919604Y-142390089D01*
X95836913Y-142266333D01*
X95731667Y-142161087D01*
X95607911Y-142078396D01*
X95470400Y-142021437D01*
X95324420Y-141992400D01*
X95175580Y-141992400D01*
X95029600Y-142021437D01*
X94892089Y-142078396D01*
X94768333Y-142161087D01*
X94663087Y-142266333D01*
X94580396Y-142390089D01*
X94523437Y-142527600D01*
X94494400Y-142673580D01*
X83437600Y-142673580D01*
X83437600Y-141149580D01*
X94494400Y-141149580D01*
X94494400Y-141298420D01*
X94523437Y-141444400D01*
X94580396Y-141581911D01*
X94663087Y-141705667D01*
X94768333Y-141810913D01*
X94892089Y-141893604D01*
X95029600Y-141950563D01*
X95175580Y-141979600D01*
X95324420Y-141979600D01*
X95470400Y-141950563D01*
X95607911Y-141893604D01*
X95731667Y-141810913D01*
X95836913Y-141705667D01*
X95919604Y-141581911D01*
X95976563Y-141444400D01*
X96005600Y-141298420D01*
X96005600Y-141149580D01*
X96272400Y-141149580D01*
X96272400Y-141298420D01*
X96301437Y-141444400D01*
X96358396Y-141581911D01*
X96441087Y-141705667D01*
X96546333Y-141810913D01*
X96670089Y-141893604D01*
X96807600Y-141950563D01*
X96953580Y-141979600D01*
X97102420Y-141979600D01*
X97248400Y-141950563D01*
X97385911Y-141893604D01*
X97509667Y-141810913D01*
X97614913Y-141705667D01*
X97697604Y-141581911D01*
X97754563Y-141444400D01*
X97783600Y-141298420D01*
X97783600Y-141149580D01*
X98050400Y-141149580D01*
X98050400Y-141298420D01*
X98079437Y-141444400D01*
X98136396Y-141581911D01*
X98219087Y-141705667D01*
X98324333Y-141810913D01*
X98448089Y-141893604D01*
X98585600Y-141950563D01*
X98731580Y-141979600D01*
X98880420Y-141979600D01*
X99026400Y-141950563D01*
X99163911Y-141893604D01*
X99287667Y-141810913D01*
X99392913Y-141705667D01*
X99475604Y-141581911D01*
X99532563Y-141444400D01*
X99561600Y-141298420D01*
X99561600Y-141149580D01*
X99532563Y-141003600D01*
X99475604Y-140866089D01*
X99392913Y-140742333D01*
X99287667Y-140637087D01*
X99163911Y-140554396D01*
X99026400Y-140497437D01*
X98880420Y-140468400D01*
X98731580Y-140468400D01*
X98585600Y-140497437D01*
X98448089Y-140554396D01*
X98324333Y-140637087D01*
X98219087Y-140742333D01*
X98136396Y-140866089D01*
X98079437Y-141003600D01*
X98050400Y-141149580D01*
X97783600Y-141149580D01*
X97754563Y-141003600D01*
X97697604Y-140866089D01*
X97614913Y-140742333D01*
X97509667Y-140637087D01*
X97385911Y-140554396D01*
X97248400Y-140497437D01*
X97102420Y-140468400D01*
X96953580Y-140468400D01*
X96807600Y-140497437D01*
X96670089Y-140554396D01*
X96546333Y-140637087D01*
X96441087Y-140742333D01*
X96358396Y-140866089D01*
X96301437Y-141003600D01*
X96272400Y-141149580D01*
X96005600Y-141149580D01*
X95976563Y-141003600D01*
X95919604Y-140866089D01*
X95836913Y-140742333D01*
X95731667Y-140637087D01*
X95607911Y-140554396D01*
X95470400Y-140497437D01*
X95324420Y-140468400D01*
X95175580Y-140468400D01*
X95029600Y-140497437D01*
X94892089Y-140554396D01*
X94768333Y-140637087D01*
X94663087Y-140742333D01*
X94580396Y-140866089D01*
X94523437Y-141003600D01*
X94494400Y-141149580D01*
X83437600Y-141149580D01*
X83437600Y-139625580D01*
X94494400Y-139625580D01*
X94494400Y-139774420D01*
X94523437Y-139920400D01*
X94580396Y-140057911D01*
X94663087Y-140181667D01*
X94768333Y-140286913D01*
X94892089Y-140369604D01*
X95029600Y-140426563D01*
X95175580Y-140455600D01*
X95324420Y-140455600D01*
X95470400Y-140426563D01*
X95607911Y-140369604D01*
X95731667Y-140286913D01*
X95836913Y-140181667D01*
X95919604Y-140057911D01*
X95976563Y-139920400D01*
X96005600Y-139774420D01*
X96005600Y-139625580D01*
X96272400Y-139625580D01*
X96272400Y-139774420D01*
X96301437Y-139920400D01*
X96358396Y-140057911D01*
X96441087Y-140181667D01*
X96546333Y-140286913D01*
X96670089Y-140369604D01*
X96807600Y-140426563D01*
X96953580Y-140455600D01*
X97102420Y-140455600D01*
X97248400Y-140426563D01*
X97385911Y-140369604D01*
X97509667Y-140286913D01*
X97614913Y-140181667D01*
X97697604Y-140057911D01*
X97754563Y-139920400D01*
X97783600Y-139774420D01*
X97783600Y-139625580D01*
X98050400Y-139625580D01*
X98050400Y-139774420D01*
X98079437Y-139920400D01*
X98136396Y-140057911D01*
X98219087Y-140181667D01*
X98324333Y-140286913D01*
X98448089Y-140369604D01*
X98585600Y-140426563D01*
X98731580Y-140455600D01*
X98880420Y-140455600D01*
X99026400Y-140426563D01*
X99163911Y-140369604D01*
X99287667Y-140286913D01*
X99392913Y-140181667D01*
X99475604Y-140057911D01*
X99532563Y-139920400D01*
X99561600Y-139774420D01*
X99561600Y-139625580D01*
X99532563Y-139479600D01*
X99475604Y-139342089D01*
X99392913Y-139218333D01*
X99287667Y-139113087D01*
X99163911Y-139030396D01*
X99026400Y-138973437D01*
X98880420Y-138944400D01*
X98731580Y-138944400D01*
X98585600Y-138973437D01*
X98448089Y-139030396D01*
X98324333Y-139113087D01*
X98219087Y-139218333D01*
X98136396Y-139342089D01*
X98079437Y-139479600D01*
X98050400Y-139625580D01*
X97783600Y-139625580D01*
X97754563Y-139479600D01*
X97697604Y-139342089D01*
X97614913Y-139218333D01*
X97509667Y-139113087D01*
X97385911Y-139030396D01*
X97248400Y-138973437D01*
X97102420Y-138944400D01*
X96953580Y-138944400D01*
X96807600Y-138973437D01*
X96670089Y-139030396D01*
X96546333Y-139113087D01*
X96441087Y-139218333D01*
X96358396Y-139342089D01*
X96301437Y-139479600D01*
X96272400Y-139625580D01*
X96005600Y-139625580D01*
X95976563Y-139479600D01*
X95919604Y-139342089D01*
X95836913Y-139218333D01*
X95731667Y-139113087D01*
X95607911Y-139030396D01*
X95470400Y-138973437D01*
X95324420Y-138944400D01*
X95175580Y-138944400D01*
X95029600Y-138973437D01*
X94892089Y-139030396D01*
X94768333Y-139113087D01*
X94663087Y-139218333D01*
X94580396Y-139342089D01*
X94523437Y-139479600D01*
X94494400Y-139625580D01*
X83437600Y-139625580D01*
X83437600Y-137085582D01*
X88271400Y-137085582D01*
X88271400Y-137234422D01*
X88300437Y-137380402D01*
X88357396Y-137517913D01*
X88440087Y-137641669D01*
X88545333Y-137746915D01*
X88669089Y-137829606D01*
X88683546Y-137835594D01*
X88672333Y-137843087D01*
X88567087Y-137948333D01*
X88484396Y-138072089D01*
X88427437Y-138209600D01*
X88398400Y-138355580D01*
X88398400Y-138504420D01*
X88427437Y-138650400D01*
X88484396Y-138787911D01*
X88567087Y-138911667D01*
X88672333Y-139016913D01*
X88796089Y-139099604D01*
X88933600Y-139156563D01*
X89079580Y-139185600D01*
X89228420Y-139185600D01*
X89374400Y-139156563D01*
X89511911Y-139099604D01*
X89635667Y-139016913D01*
X89740913Y-138911667D01*
X89823604Y-138787911D01*
X89880563Y-138650400D01*
X89909600Y-138504420D01*
X89909600Y-138493580D01*
X101676400Y-138493580D01*
X101676400Y-138642420D01*
X101705437Y-138788400D01*
X101762396Y-138925911D01*
X101845087Y-139049667D01*
X101950333Y-139154913D01*
X102074089Y-139237604D01*
X102211600Y-139294563D01*
X102357580Y-139323600D01*
X102506420Y-139323600D01*
X102652400Y-139294563D01*
X102789911Y-139237604D01*
X102913667Y-139154913D01*
X103018913Y-139049667D01*
X103101604Y-138925911D01*
X103158563Y-138788400D01*
X103187600Y-138642420D01*
X103187600Y-138493580D01*
X103158563Y-138347600D01*
X103101604Y-138210089D01*
X103018913Y-138086333D01*
X102913667Y-137981087D01*
X102789911Y-137898396D01*
X102652400Y-137841437D01*
X102506420Y-137812400D01*
X102357580Y-137812400D01*
X102211600Y-137841437D01*
X102074089Y-137898396D01*
X101950333Y-137981087D01*
X101845087Y-138086333D01*
X101762396Y-138210089D01*
X101705437Y-138347600D01*
X101676400Y-138493580D01*
X89909600Y-138493580D01*
X89909600Y-138355580D01*
X89880563Y-138209600D01*
X89823604Y-138072089D01*
X89740913Y-137948333D01*
X89635667Y-137843087D01*
X89511911Y-137760396D01*
X89497454Y-137754408D01*
X89508667Y-137746915D01*
X89613913Y-137641669D01*
X89696604Y-137517913D01*
X89753563Y-137380402D01*
X89782600Y-137234422D01*
X89782600Y-137085582D01*
X89753563Y-136939602D01*
X89696604Y-136802091D01*
X89613913Y-136678335D01*
X89508667Y-136573089D01*
X89384911Y-136490398D01*
X89247400Y-136433439D01*
X89101420Y-136404402D01*
X88952580Y-136404402D01*
X88806600Y-136433439D01*
X88669089Y-136490398D01*
X88545333Y-136573089D01*
X88440087Y-136678335D01*
X88357396Y-136802091D01*
X88300437Y-136939602D01*
X88271400Y-137085582D01*
X83437600Y-137085582D01*
X83437600Y-133275580D01*
X88398400Y-133275580D01*
X88398400Y-133424420D01*
X88427437Y-133570400D01*
X88484396Y-133707911D01*
X88567087Y-133831667D01*
X88672333Y-133936913D01*
X88796089Y-134019604D01*
X88933600Y-134076563D01*
X89079580Y-134105600D01*
X89228420Y-134105600D01*
X89374400Y-134076563D01*
X89511911Y-134019604D01*
X89635667Y-133936913D01*
X89740913Y-133831667D01*
X89823604Y-133707911D01*
X89870961Y-133593580D01*
X94276400Y-133593580D01*
X94276400Y-133742420D01*
X94305437Y-133888400D01*
X94362396Y-134025911D01*
X94445087Y-134149667D01*
X94550333Y-134254913D01*
X94674089Y-134337604D01*
X94811600Y-134394563D01*
X94957580Y-134423600D01*
X95106420Y-134423600D01*
X95252400Y-134394563D01*
X95389911Y-134337604D01*
X95513667Y-134254913D01*
X95618913Y-134149667D01*
X95701604Y-134025911D01*
X95758563Y-133888400D01*
X95787600Y-133742420D01*
X95787600Y-133593580D01*
X95758563Y-133447600D01*
X95701604Y-133310089D01*
X95618913Y-133186333D01*
X95513667Y-133081087D01*
X95389911Y-132998396D01*
X95252400Y-132941437D01*
X95106420Y-132912400D01*
X94957580Y-132912400D01*
X94811600Y-132941437D01*
X94674089Y-132998396D01*
X94550333Y-133081087D01*
X94445087Y-133186333D01*
X94362396Y-133310089D01*
X94305437Y-133447600D01*
X94276400Y-133593580D01*
X89870961Y-133593580D01*
X89880563Y-133570400D01*
X89909600Y-133424420D01*
X89909600Y-133275580D01*
X89880563Y-133129600D01*
X89823604Y-132992089D01*
X89740913Y-132868333D01*
X89635667Y-132763087D01*
X89511911Y-132680396D01*
X89415787Y-132640580D01*
X100971400Y-132640580D01*
X100971400Y-132789420D01*
X101000437Y-132935400D01*
X101057396Y-133072911D01*
X101140087Y-133196667D01*
X101245333Y-133301913D01*
X101369089Y-133384604D01*
X101506600Y-133441563D01*
X101652580Y-133470600D01*
X101801420Y-133470600D01*
X101947400Y-133441563D01*
X102084911Y-133384604D01*
X102208667Y-133301913D01*
X102313913Y-133196667D01*
X102396604Y-133072911D01*
X102453563Y-132935400D01*
X102482600Y-132789420D01*
X102482600Y-132640580D01*
X102453563Y-132494600D01*
X102396604Y-132357089D01*
X102313913Y-132233333D01*
X102208667Y-132128087D01*
X102084911Y-132045396D01*
X101947400Y-131988437D01*
X101801420Y-131959400D01*
X101652580Y-131959400D01*
X101506600Y-131988437D01*
X101369089Y-132045396D01*
X101245333Y-132128087D01*
X101140087Y-132233333D01*
X101057396Y-132357089D01*
X101000437Y-132494600D01*
X100971400Y-132640580D01*
X89415787Y-132640580D01*
X89374400Y-132623437D01*
X89228420Y-132594400D01*
X89079580Y-132594400D01*
X88933600Y-132623437D01*
X88796089Y-132680396D01*
X88672333Y-132763087D01*
X88567087Y-132868333D01*
X88484396Y-132992089D01*
X88427437Y-133129600D01*
X88398400Y-133275580D01*
X83437600Y-133275580D01*
X83437600Y-127736080D01*
X97717894Y-127736080D01*
X97717894Y-127884920D01*
X97746931Y-128030900D01*
X97803890Y-128168411D01*
X97886581Y-128292167D01*
X97991827Y-128397413D01*
X98115583Y-128480104D01*
X98253094Y-128537063D01*
X98399074Y-128566100D01*
X98547914Y-128566100D01*
X98693894Y-128537063D01*
X98831405Y-128480104D01*
X98955161Y-128397413D01*
X99060407Y-128292167D01*
X99143098Y-128168411D01*
X99200057Y-128030900D01*
X99229094Y-127884920D01*
X99229094Y-127736080D01*
X99200057Y-127590100D01*
X99143098Y-127452589D01*
X99060407Y-127328833D01*
X98955161Y-127223587D01*
X98831405Y-127140896D01*
X98693894Y-127083937D01*
X98547914Y-127054900D01*
X98399074Y-127054900D01*
X98253094Y-127083937D01*
X98115583Y-127140896D01*
X97991827Y-127223587D01*
X97886581Y-127328833D01*
X97803890Y-127452589D01*
X97746931Y-127590100D01*
X97717894Y-127736080D01*
X83437600Y-127736080D01*
X83437600Y-125893580D01*
X100776400Y-125893580D01*
X100776400Y-126042420D01*
X100805437Y-126188400D01*
X100862396Y-126325911D01*
X100945087Y-126449667D01*
X101050333Y-126554913D01*
X101174089Y-126637604D01*
X101311600Y-126694563D01*
X101457580Y-126723600D01*
X101606420Y-126723600D01*
X101752400Y-126694563D01*
X101889911Y-126637604D01*
X102013667Y-126554913D01*
X102117980Y-126450600D01*
X104332101Y-126450600D01*
X105622399Y-127740899D01*
X105622400Y-145509020D01*
X105545087Y-145586333D01*
X105462396Y-145710089D01*
X105405437Y-145847600D01*
X105376400Y-145993580D01*
X105376400Y-146142420D01*
X105405437Y-146288400D01*
X105462396Y-146425911D01*
X105545087Y-146549667D01*
X105650333Y-146654913D01*
X105774089Y-146737604D01*
X105911600Y-146794563D01*
X106057580Y-146823600D01*
X106206420Y-146823600D01*
X106352400Y-146794563D01*
X106489911Y-146737604D01*
X106613667Y-146654913D01*
X106718913Y-146549667D01*
X106801604Y-146425911D01*
X106858563Y-146288400D01*
X106887600Y-146142420D01*
X106887600Y-145993580D01*
X106858563Y-145847600D01*
X106801604Y-145710089D01*
X106718913Y-145586333D01*
X106613667Y-145481087D01*
X106587599Y-145463669D01*
X106587599Y-144092179D01*
X106650333Y-144154913D01*
X106774089Y-144237604D01*
X106911600Y-144294563D01*
X107057580Y-144323600D01*
X107206420Y-144323600D01*
X107352400Y-144294563D01*
X107489911Y-144237604D01*
X107613667Y-144154913D01*
X107718913Y-144049667D01*
X107801604Y-143925911D01*
X107858563Y-143788400D01*
X107887600Y-143642420D01*
X107887600Y-143493580D01*
X107858563Y-143347600D01*
X107801604Y-143210089D01*
X107718913Y-143086333D01*
X107613667Y-142981087D01*
X107489911Y-142898396D01*
X107352400Y-142841437D01*
X107206420Y-142812400D01*
X107057580Y-142812400D01*
X106911600Y-142841437D01*
X106774089Y-142898396D01*
X106650333Y-142981087D01*
X106587599Y-143043821D01*
X106587599Y-142496892D01*
X115074000Y-142496892D01*
X115074000Y-143405507D01*
X115089998Y-143567934D01*
X115153217Y-143776341D01*
X115255880Y-143968410D01*
X115394040Y-144136760D01*
X115562390Y-144274920D01*
X115754458Y-144377583D01*
X115962865Y-144440802D01*
X116179600Y-144462149D01*
X116396334Y-144440802D01*
X116604741Y-144377583D01*
X116796810Y-144274920D01*
X116965160Y-144136760D01*
X117103320Y-143968410D01*
X117205983Y-143776342D01*
X117269202Y-143567935D01*
X117285200Y-143405508D01*
X117285200Y-142496893D01*
X117285200Y-142496892D01*
X117614000Y-142496892D01*
X117614000Y-143405507D01*
X117629998Y-143567934D01*
X117693217Y-143776341D01*
X117795880Y-143968410D01*
X117934040Y-144136760D01*
X118102390Y-144274920D01*
X118294458Y-144377583D01*
X118502865Y-144440802D01*
X118719600Y-144462149D01*
X118936334Y-144440802D01*
X119144741Y-144377583D01*
X119336810Y-144274920D01*
X119505160Y-144136760D01*
X119643320Y-143968410D01*
X119745983Y-143776342D01*
X119809202Y-143567935D01*
X119825200Y-143405508D01*
X119825200Y-142496893D01*
X119809202Y-142334466D01*
X119745983Y-142126058D01*
X119643320Y-141933990D01*
X119534344Y-141801200D01*
X120152280Y-141801200D01*
X120152280Y-144101200D01*
X120159146Y-144170910D01*
X120179479Y-144237940D01*
X120212499Y-144299716D01*
X120256937Y-144353863D01*
X120311084Y-144398301D01*
X120372860Y-144431321D01*
X120439890Y-144451654D01*
X120509600Y-144458520D01*
X122009600Y-144458520D01*
X122079310Y-144451654D01*
X122146340Y-144431321D01*
X122208116Y-144398301D01*
X122262263Y-144353863D01*
X122306701Y-144299716D01*
X122339721Y-144237940D01*
X122360054Y-144170910D01*
X122366920Y-144101200D01*
X122366920Y-141801200D01*
X122360054Y-141731490D01*
X122339721Y-141664460D01*
X122306701Y-141602684D01*
X122262263Y-141548537D01*
X122208116Y-141504099D01*
X122146340Y-141471079D01*
X122079310Y-141450746D01*
X122009600Y-141443880D01*
X120509600Y-141443880D01*
X120439890Y-141450746D01*
X120372860Y-141471079D01*
X120311084Y-141504099D01*
X120256937Y-141548537D01*
X120212499Y-141602684D01*
X120179479Y-141664460D01*
X120159146Y-141731490D01*
X120152280Y-141801200D01*
X119534344Y-141801200D01*
X119505160Y-141765640D01*
X119336810Y-141627480D01*
X119144742Y-141524817D01*
X118936335Y-141461598D01*
X118719600Y-141440251D01*
X118502866Y-141461598D01*
X118294459Y-141524817D01*
X118102391Y-141627480D01*
X117934041Y-141765640D01*
X117795881Y-141933990D01*
X117693218Y-142126058D01*
X117629998Y-142334465D01*
X117614000Y-142496892D01*
X117285200Y-142496892D01*
X117269202Y-142334466D01*
X117205983Y-142126058D01*
X117103320Y-141933990D01*
X116965160Y-141765640D01*
X116796810Y-141627480D01*
X116604742Y-141524817D01*
X116396335Y-141461598D01*
X116179600Y-141440251D01*
X115962866Y-141461598D01*
X115754459Y-141524817D01*
X115562391Y-141627480D01*
X115394041Y-141765640D01*
X115255881Y-141933990D01*
X115153218Y-142126058D01*
X115089998Y-142334465D01*
X115074000Y-142496892D01*
X106587599Y-142496892D01*
X106587599Y-140493580D01*
X108776400Y-140493580D01*
X108776400Y-140642420D01*
X108805437Y-140788400D01*
X108862396Y-140925911D01*
X108945087Y-141049667D01*
X109050333Y-141154913D01*
X109174089Y-141237604D01*
X109311600Y-141294563D01*
X109457580Y-141323600D01*
X109606420Y-141323600D01*
X109752400Y-141294563D01*
X109889911Y-141237604D01*
X110013667Y-141154913D01*
X110118913Y-141049667D01*
X110201604Y-140925911D01*
X110258563Y-140788400D01*
X110287600Y-140642420D01*
X110287600Y-140493580D01*
X110258563Y-140347600D01*
X110201604Y-140210089D01*
X110118913Y-140086333D01*
X110013667Y-139981087D01*
X109889911Y-139898396D01*
X109752400Y-139841437D01*
X109606420Y-139812400D01*
X109457580Y-139812400D01*
X109311600Y-139841437D01*
X109174089Y-139898396D01*
X109050333Y-139981087D01*
X108945087Y-140086333D01*
X108862396Y-140210089D01*
X108805437Y-140347600D01*
X108776400Y-140493580D01*
X106587599Y-140493580D01*
X106587599Y-140184780D01*
X106602491Y-140207067D01*
X106707737Y-140312313D01*
X106831493Y-140395004D01*
X106969004Y-140451963D01*
X107114984Y-140481000D01*
X107263824Y-140481000D01*
X107409804Y-140451963D01*
X107547315Y-140395004D01*
X107671071Y-140312313D01*
X107776317Y-140207067D01*
X107859008Y-140083311D01*
X107915967Y-139945800D01*
X107945004Y-139799820D01*
X107945004Y-139650980D01*
X107915967Y-139505000D01*
X107859008Y-139367489D01*
X107776317Y-139243733D01*
X107671071Y-139138487D01*
X107547315Y-139055796D01*
X107409804Y-138998837D01*
X107263824Y-138969800D01*
X107114984Y-138969800D01*
X106969004Y-138998837D01*
X106831493Y-139055796D01*
X106707737Y-139138487D01*
X106602491Y-139243733D01*
X106587599Y-139266020D01*
X106587599Y-137961880D01*
X115055700Y-137961880D01*
X115055700Y-138110720D01*
X115084737Y-138256700D01*
X115141696Y-138394211D01*
X115224387Y-138517967D01*
X115329633Y-138623213D01*
X115453389Y-138705904D01*
X115590900Y-138762863D01*
X115736880Y-138791900D01*
X115885720Y-138791900D01*
X116031700Y-138762863D01*
X116169211Y-138705904D01*
X116292967Y-138623213D01*
X116398213Y-138517967D01*
X116480904Y-138394211D01*
X116537863Y-138256700D01*
X116566900Y-138110720D01*
X116566900Y-137961880D01*
X116537863Y-137815900D01*
X116480904Y-137678389D01*
X116479481Y-137676259D01*
X118301400Y-137676259D01*
X118301400Y-137913741D01*
X118347731Y-138146660D01*
X118438611Y-138366066D01*
X118570550Y-138563525D01*
X118738475Y-138731450D01*
X118935934Y-138863389D01*
X119155340Y-138954269D01*
X119388259Y-139000600D01*
X119625741Y-139000600D01*
X119858660Y-138954269D01*
X120078066Y-138863389D01*
X120275525Y-138731450D01*
X120443450Y-138563525D01*
X120575389Y-138366066D01*
X120666269Y-138146660D01*
X120712600Y-137913741D01*
X120712600Y-137676259D01*
X120666269Y-137443340D01*
X120575389Y-137223934D01*
X120443450Y-137026475D01*
X120361975Y-136945000D01*
X120839680Y-136945000D01*
X120839680Y-138645000D01*
X120846546Y-138714710D01*
X120866879Y-138781740D01*
X120899899Y-138843516D01*
X120944337Y-138897663D01*
X120998484Y-138942101D01*
X121060260Y-138975121D01*
X121127290Y-138995454D01*
X121197000Y-139002320D01*
X122897000Y-139002320D01*
X122966710Y-138995454D01*
X123033740Y-138975121D01*
X123095516Y-138942101D01*
X123149663Y-138897663D01*
X123194101Y-138843516D01*
X123227121Y-138781740D01*
X123247454Y-138714710D01*
X123254320Y-138645000D01*
X123254320Y-136945000D01*
X123247454Y-136875290D01*
X123227121Y-136808260D01*
X123194101Y-136746484D01*
X123149663Y-136692337D01*
X123095516Y-136647899D01*
X123033740Y-136614879D01*
X122966710Y-136594546D01*
X122897000Y-136587680D01*
X121197000Y-136587680D01*
X121127290Y-136594546D01*
X121060260Y-136614879D01*
X120998484Y-136647899D01*
X120944337Y-136692337D01*
X120899899Y-136746484D01*
X120866879Y-136808260D01*
X120846546Y-136875290D01*
X120839680Y-136945000D01*
X120361975Y-136945000D01*
X120275525Y-136858550D01*
X120078066Y-136726611D01*
X119858660Y-136635731D01*
X119625741Y-136589400D01*
X119388259Y-136589400D01*
X119155340Y-136635731D01*
X118935934Y-136726611D01*
X118738475Y-136858550D01*
X118570550Y-137026475D01*
X118438611Y-137223934D01*
X118347731Y-137443340D01*
X118301400Y-137676259D01*
X116479481Y-137676259D01*
X116398213Y-137554633D01*
X116292967Y-137449387D01*
X116169211Y-137366696D01*
X116031700Y-137309737D01*
X115885720Y-137280700D01*
X115736880Y-137280700D01*
X115590900Y-137309737D01*
X115453389Y-137366696D01*
X115329633Y-137449387D01*
X115224387Y-137554633D01*
X115141696Y-137678389D01*
X115084737Y-137815900D01*
X115055700Y-137961880D01*
X106587599Y-137961880D01*
X106587599Y-137843200D01*
X106711600Y-137894563D01*
X106857580Y-137923600D01*
X107006420Y-137923600D01*
X107152400Y-137894563D01*
X107289911Y-137837604D01*
X107413667Y-137754913D01*
X107518913Y-137649667D01*
X107601604Y-137525911D01*
X107658563Y-137388400D01*
X107687600Y-137242420D01*
X107687600Y-137093580D01*
X107658563Y-136947600D01*
X107601604Y-136810089D01*
X107518913Y-136686333D01*
X107413667Y-136581087D01*
X107289911Y-136498396D01*
X107152400Y-136441437D01*
X107006420Y-136412400D01*
X106857580Y-136412400D01*
X106711600Y-136441437D01*
X106587599Y-136492800D01*
X106587599Y-136069580D01*
X107829400Y-136069580D01*
X107829400Y-136218420D01*
X107858437Y-136364400D01*
X107915396Y-136501911D01*
X107998087Y-136625667D01*
X108103333Y-136730913D01*
X108227089Y-136813604D01*
X108364600Y-136870563D01*
X108510580Y-136899600D01*
X108659420Y-136899600D01*
X108805400Y-136870563D01*
X108942911Y-136813604D01*
X109066667Y-136730913D01*
X109171913Y-136625667D01*
X109254604Y-136501911D01*
X109311563Y-136364400D01*
X109340600Y-136218420D01*
X109340600Y-136069580D01*
X109311563Y-135923600D01*
X109254604Y-135786089D01*
X109171913Y-135662333D01*
X109066667Y-135557087D01*
X108942911Y-135474396D01*
X108805400Y-135417437D01*
X108659420Y-135388400D01*
X108510580Y-135388400D01*
X108364600Y-135417437D01*
X108227089Y-135474396D01*
X108103333Y-135557087D01*
X107998087Y-135662333D01*
X107915396Y-135786089D01*
X107858437Y-135923600D01*
X107829400Y-136069580D01*
X106587599Y-136069580D01*
X106587599Y-135332980D01*
X115678000Y-135332980D01*
X115678000Y-135481820D01*
X115707037Y-135627800D01*
X115763996Y-135765311D01*
X115846687Y-135889067D01*
X115951933Y-135994313D01*
X116075689Y-136077004D01*
X116213200Y-136133963D01*
X116359180Y-136163000D01*
X116508020Y-136163000D01*
X116654000Y-136133963D01*
X116791511Y-136077004D01*
X116915267Y-135994313D01*
X117020513Y-135889067D01*
X117103204Y-135765311D01*
X117160163Y-135627800D01*
X117189200Y-135481820D01*
X117189200Y-135332980D01*
X117160163Y-135187000D01*
X117139146Y-135136259D01*
X118301400Y-135136259D01*
X118301400Y-135373741D01*
X118347731Y-135606660D01*
X118438611Y-135826066D01*
X118570550Y-136023525D01*
X118738475Y-136191450D01*
X118935934Y-136323389D01*
X119155340Y-136414269D01*
X119388259Y-136460600D01*
X119625741Y-136460600D01*
X119858660Y-136414269D01*
X120078066Y-136323389D01*
X120275525Y-136191450D01*
X120443450Y-136023525D01*
X120575389Y-135826066D01*
X120666269Y-135606660D01*
X120712600Y-135373741D01*
X120712600Y-135136259D01*
X120841400Y-135136259D01*
X120841400Y-135373741D01*
X120887731Y-135606660D01*
X120978611Y-135826066D01*
X121110550Y-136023525D01*
X121278475Y-136191450D01*
X121475934Y-136323389D01*
X121695340Y-136414269D01*
X121928259Y-136460600D01*
X122165741Y-136460600D01*
X122398660Y-136414269D01*
X122618066Y-136323389D01*
X122815525Y-136191450D01*
X122983450Y-136023525D01*
X123115389Y-135826066D01*
X123206269Y-135606660D01*
X123252600Y-135373741D01*
X123252600Y-135136259D01*
X123206269Y-134903340D01*
X123115389Y-134683934D01*
X122983450Y-134486475D01*
X122815525Y-134318550D01*
X122618066Y-134186611D01*
X122398660Y-134095731D01*
X122165741Y-134049400D01*
X121928259Y-134049400D01*
X121695340Y-134095731D01*
X121475934Y-134186611D01*
X121278475Y-134318550D01*
X121110550Y-134486475D01*
X120978611Y-134683934D01*
X120887731Y-134903340D01*
X120841400Y-135136259D01*
X120712600Y-135136259D01*
X120666269Y-134903340D01*
X120575389Y-134683934D01*
X120443450Y-134486475D01*
X120275525Y-134318550D01*
X120078066Y-134186611D01*
X119858660Y-134095731D01*
X119625741Y-134049400D01*
X119388259Y-134049400D01*
X119155340Y-134095731D01*
X118935934Y-134186611D01*
X118738475Y-134318550D01*
X118570550Y-134486475D01*
X118438611Y-134683934D01*
X118347731Y-134903340D01*
X118301400Y-135136259D01*
X117139146Y-135136259D01*
X117103204Y-135049489D01*
X117020513Y-134925733D01*
X116915267Y-134820487D01*
X116791511Y-134737796D01*
X116654000Y-134680837D01*
X116508020Y-134651800D01*
X116359180Y-134651800D01*
X116213200Y-134680837D01*
X116075689Y-134737796D01*
X115951933Y-134820487D01*
X115846687Y-134925733D01*
X115763996Y-135049489D01*
X115707037Y-135187000D01*
X115678000Y-135332980D01*
X106587599Y-135332980D01*
X106587599Y-132596259D01*
X118301400Y-132596259D01*
X118301400Y-132833741D01*
X118347731Y-133066660D01*
X118438611Y-133286066D01*
X118570550Y-133483525D01*
X118738475Y-133651450D01*
X118935934Y-133783389D01*
X119155340Y-133874269D01*
X119388259Y-133920600D01*
X119625741Y-133920600D01*
X119858660Y-133874269D01*
X120078066Y-133783389D01*
X120275525Y-133651450D01*
X120443450Y-133483525D01*
X120575389Y-133286066D01*
X120666269Y-133066660D01*
X120712600Y-132833741D01*
X120712600Y-132596259D01*
X120841400Y-132596259D01*
X120841400Y-132833741D01*
X120887731Y-133066660D01*
X120978611Y-133286066D01*
X121110550Y-133483525D01*
X121278475Y-133651450D01*
X121475934Y-133783389D01*
X121695340Y-133874269D01*
X121928259Y-133920600D01*
X122165741Y-133920600D01*
X122398660Y-133874269D01*
X122618066Y-133783389D01*
X122815525Y-133651450D01*
X122983450Y-133483525D01*
X123115389Y-133286066D01*
X123206269Y-133066660D01*
X123252600Y-132833741D01*
X123252600Y-132596259D01*
X123206269Y-132363340D01*
X123115389Y-132143934D01*
X122983450Y-131946475D01*
X122815525Y-131778550D01*
X122618066Y-131646611D01*
X122398660Y-131555731D01*
X122165741Y-131509400D01*
X121928259Y-131509400D01*
X121695340Y-131555731D01*
X121475934Y-131646611D01*
X121278475Y-131778550D01*
X121110550Y-131946475D01*
X120978611Y-132143934D01*
X120887731Y-132363340D01*
X120841400Y-132596259D01*
X120712600Y-132596259D01*
X120666269Y-132363340D01*
X120575389Y-132143934D01*
X120443450Y-131946475D01*
X120275525Y-131778550D01*
X120078066Y-131646611D01*
X119858660Y-131555731D01*
X119625741Y-131509400D01*
X119388259Y-131509400D01*
X119155340Y-131555731D01*
X118935934Y-131646611D01*
X118738475Y-131778550D01*
X118570550Y-131946475D01*
X118438611Y-132143934D01*
X118347731Y-132363340D01*
X118301400Y-132596259D01*
X106587599Y-132596259D01*
X106587599Y-130056259D01*
X118301400Y-130056259D01*
X118301400Y-130293741D01*
X118347731Y-130526660D01*
X118438611Y-130746066D01*
X118570550Y-130943525D01*
X118738475Y-131111450D01*
X118935934Y-131243389D01*
X119155340Y-131334269D01*
X119388259Y-131380600D01*
X119625741Y-131380600D01*
X119858660Y-131334269D01*
X120078066Y-131243389D01*
X120275525Y-131111450D01*
X120443450Y-130943525D01*
X120575389Y-130746066D01*
X120666269Y-130526660D01*
X120712600Y-130293741D01*
X120712600Y-130056259D01*
X120841400Y-130056259D01*
X120841400Y-130293741D01*
X120887731Y-130526660D01*
X120978611Y-130746066D01*
X121110550Y-130943525D01*
X121278475Y-131111450D01*
X121475934Y-131243389D01*
X121695340Y-131334269D01*
X121928259Y-131380600D01*
X122165741Y-131380600D01*
X122398660Y-131334269D01*
X122618066Y-131243389D01*
X122815525Y-131111450D01*
X122983450Y-130943525D01*
X123115389Y-130746066D01*
X123206269Y-130526660D01*
X123252600Y-130293741D01*
X123252600Y-130056259D01*
X123206269Y-129823340D01*
X123115389Y-129603934D01*
X122983450Y-129406475D01*
X122815525Y-129238550D01*
X122618066Y-129106611D01*
X122398660Y-129015731D01*
X122165741Y-128969400D01*
X121928259Y-128969400D01*
X121695340Y-129015731D01*
X121475934Y-129106611D01*
X121278475Y-129238550D01*
X121110550Y-129406475D01*
X120978611Y-129603934D01*
X120887731Y-129823340D01*
X120841400Y-130056259D01*
X120712600Y-130056259D01*
X120666269Y-129823340D01*
X120575389Y-129603934D01*
X120443450Y-129406475D01*
X120275525Y-129238550D01*
X120078066Y-129106611D01*
X119858660Y-129015731D01*
X119625741Y-128969400D01*
X119388259Y-128969400D01*
X119155340Y-129015731D01*
X118935934Y-129106611D01*
X118738475Y-129238550D01*
X118570550Y-129406475D01*
X118438611Y-129603934D01*
X118347731Y-129823340D01*
X118301400Y-130056259D01*
X106587599Y-130056259D01*
X106587599Y-127624080D01*
X117862400Y-127624080D01*
X117862400Y-127772920D01*
X117891437Y-127918900D01*
X117948396Y-128056411D01*
X118031087Y-128180167D01*
X118136333Y-128285413D01*
X118260089Y-128368104D01*
X118397600Y-128425063D01*
X118543580Y-128454100D01*
X118692420Y-128454100D01*
X118838400Y-128425063D01*
X118975911Y-128368104D01*
X119099667Y-128285413D01*
X119204913Y-128180167D01*
X119287604Y-128056411D01*
X119344563Y-127918900D01*
X119373600Y-127772920D01*
X119373600Y-127624080D01*
X121926400Y-127624080D01*
X121926400Y-127772920D01*
X121955437Y-127918900D01*
X122012396Y-128056411D01*
X122095087Y-128180167D01*
X122200333Y-128285413D01*
X122324089Y-128368104D01*
X122461600Y-128425063D01*
X122607580Y-128454100D01*
X122756420Y-128454100D01*
X122902400Y-128425063D01*
X123039911Y-128368104D01*
X123163667Y-128285413D01*
X123268913Y-128180167D01*
X123351604Y-128056411D01*
X123408563Y-127918900D01*
X123437600Y-127772920D01*
X123437600Y-127624080D01*
X123408563Y-127478100D01*
X123351604Y-127340589D01*
X123268913Y-127216833D01*
X123163667Y-127111587D01*
X123039911Y-127028896D01*
X122902400Y-126971937D01*
X122756420Y-126942900D01*
X122607580Y-126942900D01*
X122461600Y-126971937D01*
X122324089Y-127028896D01*
X122200333Y-127111587D01*
X122095087Y-127216833D01*
X122012396Y-127340589D01*
X121955437Y-127478100D01*
X121926400Y-127624080D01*
X119373600Y-127624080D01*
X119344563Y-127478100D01*
X119287604Y-127340589D01*
X119204913Y-127216833D01*
X119099667Y-127111587D01*
X118975911Y-127028896D01*
X118838400Y-126971937D01*
X118692420Y-126942900D01*
X118543580Y-126942900D01*
X118397600Y-126971937D01*
X118260089Y-127028896D01*
X118136333Y-127111587D01*
X118031087Y-127216833D01*
X117948396Y-127340589D01*
X117891437Y-127478100D01*
X117862400Y-127624080D01*
X106587599Y-127624080D01*
X106587599Y-127564706D01*
X106589934Y-127540999D01*
X106580616Y-127446392D01*
X106553021Y-127355422D01*
X106508207Y-127271583D01*
X106463012Y-127216512D01*
X106463011Y-127216511D01*
X106447900Y-127198098D01*
X106429487Y-127182987D01*
X104890017Y-125643518D01*
X104874901Y-125625099D01*
X104801415Y-125564791D01*
X104717577Y-125519978D01*
X104626606Y-125492383D01*
X104555707Y-125485400D01*
X104555705Y-125485400D01*
X104532000Y-125483065D01*
X104508295Y-125485400D01*
X102117980Y-125485400D01*
X102013667Y-125381087D01*
X101889911Y-125298396D01*
X101752400Y-125241437D01*
X101606420Y-125212400D01*
X101457580Y-125212400D01*
X101311600Y-125241437D01*
X101174089Y-125298396D01*
X101050333Y-125381087D01*
X100945087Y-125486333D01*
X100862396Y-125610089D01*
X100805437Y-125747600D01*
X100776400Y-125893580D01*
X83437600Y-125893580D01*
X83437600Y-122918859D01*
X84519400Y-122918859D01*
X84519400Y-123156341D01*
X84565731Y-123389260D01*
X84656611Y-123608666D01*
X84788550Y-123806125D01*
X84956475Y-123974050D01*
X85153934Y-124105989D01*
X85373340Y-124196869D01*
X85606259Y-124243200D01*
X85843741Y-124243200D01*
X86076660Y-124196869D01*
X86296066Y-124105989D01*
X86493525Y-123974050D01*
X86661450Y-123806125D01*
X86793389Y-123608666D01*
X86884269Y-123389260D01*
X86930600Y-123156341D01*
X86930600Y-122918859D01*
X86884269Y-122685940D01*
X86793389Y-122466534D01*
X86661450Y-122269075D01*
X86493525Y-122101150D01*
X86296066Y-121969211D01*
X86076660Y-121878331D01*
X85843741Y-121832000D01*
X85606259Y-121832000D01*
X85373340Y-121878331D01*
X85153934Y-121969211D01*
X84956475Y-122101150D01*
X84788550Y-122269075D01*
X84656611Y-122466534D01*
X84565731Y-122685940D01*
X84519400Y-122918859D01*
X83437600Y-122918859D01*
X83437600Y-120378859D01*
X84519400Y-120378859D01*
X84519400Y-120616341D01*
X84565731Y-120849260D01*
X84656611Y-121068666D01*
X84788550Y-121266125D01*
X84956475Y-121434050D01*
X85153934Y-121565989D01*
X85373340Y-121656869D01*
X85606259Y-121703200D01*
X85843741Y-121703200D01*
X86076660Y-121656869D01*
X86296066Y-121565989D01*
X86493525Y-121434050D01*
X86599381Y-121328194D01*
X88531700Y-121328194D01*
X88531700Y-121495806D01*
X88564400Y-121660198D01*
X88628542Y-121815052D01*
X88721663Y-121954417D01*
X88840183Y-122072937D01*
X88979548Y-122166058D01*
X89134402Y-122230200D01*
X89298794Y-122262900D01*
X89466406Y-122262900D01*
X89630798Y-122230200D01*
X89670992Y-122213551D01*
X89668400Y-122226580D01*
X89668400Y-122375420D01*
X89697437Y-122521400D01*
X89754396Y-122658911D01*
X89837087Y-122782667D01*
X89942333Y-122887913D01*
X90066089Y-122970604D01*
X90203600Y-123027563D01*
X90349580Y-123056600D01*
X90498420Y-123056600D01*
X90644400Y-123027563D01*
X90781911Y-122970604D01*
X90905667Y-122887913D01*
X91010913Y-122782667D01*
X91093604Y-122658911D01*
X91150563Y-122521400D01*
X91179600Y-122375420D01*
X91179600Y-122232825D01*
X91330794Y-122262900D01*
X91498406Y-122262900D01*
X91662798Y-122230200D01*
X91817652Y-122166058D01*
X91957017Y-122072937D01*
X92075537Y-121954417D01*
X92168658Y-121815052D01*
X92232800Y-121660198D01*
X92265500Y-121495806D01*
X92265500Y-121328194D01*
X92237053Y-121185180D01*
X111487000Y-121185180D01*
X111487000Y-121334020D01*
X111516037Y-121480000D01*
X111572996Y-121617511D01*
X111655687Y-121741267D01*
X111760933Y-121846513D01*
X111884689Y-121929204D01*
X112022200Y-121986163D01*
X112168180Y-122015200D01*
X112317020Y-122015200D01*
X112463000Y-121986163D01*
X112600511Y-121929204D01*
X112724267Y-121846513D01*
X112829513Y-121741267D01*
X112912204Y-121617511D01*
X112922944Y-121591580D01*
X114496900Y-121591580D01*
X114496900Y-121740420D01*
X114525937Y-121886400D01*
X114582896Y-122023911D01*
X114665587Y-122147667D01*
X114770833Y-122252913D01*
X114894589Y-122335604D01*
X115032100Y-122392563D01*
X115178080Y-122421600D01*
X115326920Y-122421600D01*
X115472900Y-122392563D01*
X115610411Y-122335604D01*
X115734167Y-122252913D01*
X115839413Y-122147667D01*
X115922104Y-122023911D01*
X115979063Y-121886400D01*
X116008100Y-121740420D01*
X116008100Y-121591580D01*
X115979063Y-121445600D01*
X115922104Y-121308089D01*
X115839413Y-121184333D01*
X115734167Y-121079087D01*
X115610411Y-120996396D01*
X115472900Y-120939437D01*
X115326920Y-120910400D01*
X115178080Y-120910400D01*
X115032100Y-120939437D01*
X114894589Y-120996396D01*
X114770833Y-121079087D01*
X114665587Y-121184333D01*
X114582896Y-121308089D01*
X114525937Y-121445600D01*
X114496900Y-121591580D01*
X112922944Y-121591580D01*
X112969163Y-121480000D01*
X112998200Y-121334020D01*
X112998200Y-121185180D01*
X112969163Y-121039200D01*
X112912204Y-120901689D01*
X112829513Y-120777933D01*
X112724267Y-120672687D01*
X112600511Y-120589996D01*
X112463000Y-120533037D01*
X112317020Y-120504000D01*
X112168180Y-120504000D01*
X112022200Y-120533037D01*
X111884689Y-120589996D01*
X111760933Y-120672687D01*
X111655687Y-120777933D01*
X111572996Y-120901689D01*
X111516037Y-121039200D01*
X111487000Y-121185180D01*
X92237053Y-121185180D01*
X92232800Y-121163802D01*
X92168658Y-121008948D01*
X92075537Y-120869583D01*
X91957017Y-120751063D01*
X91817652Y-120657942D01*
X91662798Y-120593800D01*
X91498406Y-120561100D01*
X91330794Y-120561100D01*
X91166402Y-120593800D01*
X91011548Y-120657942D01*
X90872183Y-120751063D01*
X90753663Y-120869583D01*
X90660542Y-121008948D01*
X90596400Y-121163802D01*
X90563700Y-121328194D01*
X90563700Y-121495806D01*
X90576661Y-121560963D01*
X90498420Y-121545400D01*
X90349580Y-121545400D01*
X90218447Y-121571484D01*
X90233500Y-121495806D01*
X90233500Y-121328194D01*
X90200800Y-121163802D01*
X90136658Y-121008948D01*
X90043537Y-120869583D01*
X89925017Y-120751063D01*
X89785652Y-120657942D01*
X89630798Y-120593800D01*
X89466406Y-120561100D01*
X89298794Y-120561100D01*
X89134402Y-120593800D01*
X88979548Y-120657942D01*
X88840183Y-120751063D01*
X88721663Y-120869583D01*
X88628542Y-121008948D01*
X88564400Y-121163802D01*
X88531700Y-121328194D01*
X86599381Y-121328194D01*
X86661450Y-121266125D01*
X86793389Y-121068666D01*
X86884269Y-120849260D01*
X86930600Y-120616341D01*
X86930600Y-120378859D01*
X86884269Y-120145940D01*
X86851812Y-120067580D01*
X103892400Y-120067580D01*
X103892400Y-120216420D01*
X103921437Y-120362400D01*
X103978396Y-120499911D01*
X104061087Y-120623667D01*
X104166333Y-120728913D01*
X104290089Y-120811604D01*
X104427600Y-120868563D01*
X104573580Y-120897600D01*
X104722420Y-120897600D01*
X104868400Y-120868563D01*
X105005911Y-120811604D01*
X105129667Y-120728913D01*
X105234913Y-120623667D01*
X105317604Y-120499911D01*
X105374563Y-120362400D01*
X105403600Y-120216420D01*
X105403600Y-120067580D01*
X105378335Y-119940562D01*
X110217000Y-119940562D01*
X110217000Y-120089402D01*
X110246037Y-120235382D01*
X110302996Y-120372893D01*
X110385687Y-120496649D01*
X110490933Y-120601895D01*
X110614689Y-120684586D01*
X110752200Y-120741545D01*
X110898180Y-120770582D01*
X111047020Y-120770582D01*
X111193000Y-120741545D01*
X111330511Y-120684586D01*
X111454267Y-120601895D01*
X111559513Y-120496649D01*
X111580940Y-120464580D01*
X115941400Y-120464580D01*
X115941400Y-120613420D01*
X115970437Y-120759400D01*
X116027396Y-120896911D01*
X116110087Y-121020667D01*
X116215333Y-121125913D01*
X116339089Y-121208604D01*
X116476600Y-121265563D01*
X116622580Y-121294600D01*
X116771420Y-121294600D01*
X116917400Y-121265563D01*
X117054911Y-121208604D01*
X117178667Y-121125913D01*
X117283913Y-121020667D01*
X117366604Y-120896911D01*
X117423563Y-120759400D01*
X117452600Y-120613420D01*
X117452600Y-120464580D01*
X117423563Y-120318600D01*
X117366604Y-120181089D01*
X117283913Y-120057333D01*
X117178667Y-119952087D01*
X117054911Y-119869396D01*
X116917400Y-119812437D01*
X116771420Y-119783400D01*
X116622580Y-119783400D01*
X116476600Y-119812437D01*
X116339089Y-119869396D01*
X116215333Y-119952087D01*
X116110087Y-120057333D01*
X116027396Y-120181089D01*
X115970437Y-120318600D01*
X115941400Y-120464580D01*
X111580940Y-120464580D01*
X111642204Y-120372893D01*
X111699163Y-120235382D01*
X111728200Y-120089402D01*
X111728200Y-119940562D01*
X111699163Y-119794582D01*
X111642204Y-119657071D01*
X111559513Y-119533315D01*
X111454267Y-119428069D01*
X111330511Y-119345378D01*
X111193000Y-119288419D01*
X111047020Y-119259382D01*
X110898180Y-119259382D01*
X110752200Y-119288419D01*
X110614689Y-119345378D01*
X110490933Y-119428069D01*
X110385687Y-119533315D01*
X110302996Y-119657071D01*
X110246037Y-119794582D01*
X110217000Y-119940562D01*
X105378335Y-119940562D01*
X105374563Y-119921600D01*
X105317604Y-119784089D01*
X105234913Y-119660333D01*
X105129667Y-119555087D01*
X105005911Y-119472396D01*
X104868400Y-119415437D01*
X104722420Y-119386400D01*
X104573580Y-119386400D01*
X104427600Y-119415437D01*
X104290089Y-119472396D01*
X104166333Y-119555087D01*
X104061087Y-119660333D01*
X103978396Y-119784089D01*
X103921437Y-119921600D01*
X103892400Y-120067580D01*
X86851812Y-120067580D01*
X86793389Y-119926534D01*
X86661450Y-119729075D01*
X86493525Y-119561150D01*
X86296066Y-119429211D01*
X86076660Y-119338331D01*
X85843741Y-119292000D01*
X85606259Y-119292000D01*
X85373340Y-119338331D01*
X85153934Y-119429211D01*
X84956475Y-119561150D01*
X84788550Y-119729075D01*
X84656611Y-119926534D01*
X84565731Y-120145940D01*
X84519400Y-120378859D01*
X83437600Y-120378859D01*
X83437600Y-117838859D01*
X84519400Y-117838859D01*
X84519400Y-118076341D01*
X84565731Y-118309260D01*
X84656611Y-118528666D01*
X84788550Y-118726125D01*
X84956475Y-118894050D01*
X85153934Y-119025989D01*
X85373340Y-119116869D01*
X85606259Y-119163200D01*
X85843741Y-119163200D01*
X86076660Y-119116869D01*
X86296066Y-119025989D01*
X86493525Y-118894050D01*
X86589995Y-118797580D01*
X91446400Y-118797580D01*
X91446400Y-118946420D01*
X91475437Y-119092400D01*
X91532396Y-119229911D01*
X91615087Y-119353667D01*
X91720333Y-119458913D01*
X91844089Y-119541604D01*
X91981600Y-119598563D01*
X92127580Y-119627600D01*
X92276420Y-119627600D01*
X92422400Y-119598563D01*
X92559911Y-119541604D01*
X92683667Y-119458913D01*
X92788913Y-119353667D01*
X92871604Y-119229911D01*
X92928563Y-119092400D01*
X92957600Y-118946420D01*
X92957600Y-118797580D01*
X92928563Y-118651600D01*
X92871604Y-118514089D01*
X92788913Y-118390333D01*
X92712281Y-118313701D01*
X92813911Y-118271604D01*
X92937667Y-118188913D01*
X93042913Y-118083667D01*
X93125604Y-117959911D01*
X93182563Y-117822400D01*
X93211600Y-117676420D01*
X93211600Y-117527580D01*
X93182563Y-117381600D01*
X93125604Y-117244089D01*
X93042913Y-117120333D01*
X92937667Y-117015087D01*
X92813911Y-116932396D01*
X92676400Y-116875437D01*
X92530420Y-116846400D01*
X92381580Y-116846400D01*
X92235600Y-116875437D01*
X92098089Y-116932396D01*
X91974333Y-117015087D01*
X91869087Y-117120333D01*
X91786396Y-117244089D01*
X91729437Y-117381600D01*
X91700400Y-117527580D01*
X91700400Y-117676420D01*
X91729437Y-117822400D01*
X91786396Y-117959911D01*
X91869087Y-118083667D01*
X91945719Y-118160299D01*
X91844089Y-118202396D01*
X91720333Y-118285087D01*
X91615087Y-118390333D01*
X91532396Y-118514089D01*
X91475437Y-118651600D01*
X91446400Y-118797580D01*
X86589995Y-118797580D01*
X86661450Y-118726125D01*
X86793389Y-118528666D01*
X86884269Y-118309260D01*
X86930600Y-118076341D01*
X86930600Y-117838859D01*
X86884269Y-117605940D01*
X86793389Y-117386534D01*
X86661450Y-117189075D01*
X86493525Y-117021150D01*
X86296066Y-116889211D01*
X86076660Y-116798331D01*
X85843741Y-116752000D01*
X85606259Y-116752000D01*
X85373340Y-116798331D01*
X85153934Y-116889211D01*
X84956475Y-117021150D01*
X84788550Y-117189075D01*
X84656611Y-117386534D01*
X84565731Y-117605940D01*
X84519400Y-117838859D01*
X83437600Y-117838859D01*
X83437600Y-115639191D01*
X84488296Y-115639191D01*
X84497634Y-115686144D01*
X84573608Y-115920431D01*
X84693829Y-116135395D01*
X84853677Y-116322774D01*
X85047010Y-116475368D01*
X85266398Y-116587312D01*
X85503409Y-116654305D01*
X85699600Y-116572144D01*
X85699600Y-115443000D01*
X85750400Y-115443000D01*
X85750400Y-116572144D01*
X85946591Y-116654305D01*
X86183602Y-116587312D01*
X86402990Y-116475368D01*
X86596323Y-116322774D01*
X86659945Y-116248194D01*
X89547700Y-116248194D01*
X89547700Y-116415806D01*
X89580400Y-116580198D01*
X89644542Y-116735052D01*
X89737663Y-116874417D01*
X89856183Y-116992937D01*
X89995548Y-117086058D01*
X90150402Y-117150200D01*
X90314794Y-117182900D01*
X90482406Y-117182900D01*
X90646798Y-117150200D01*
X90801652Y-117086058D01*
X90941017Y-116992937D01*
X91059537Y-116874417D01*
X91152658Y-116735052D01*
X91216800Y-116580198D01*
X91249500Y-116415806D01*
X91249500Y-116248194D01*
X91216800Y-116083802D01*
X91152658Y-115928948D01*
X91059537Y-115789583D01*
X90941017Y-115671063D01*
X90801652Y-115577942D01*
X90646798Y-115513800D01*
X90482406Y-115481100D01*
X90314794Y-115481100D01*
X90150402Y-115513800D01*
X89995548Y-115577942D01*
X89856183Y-115671063D01*
X89737663Y-115789583D01*
X89644542Y-115928948D01*
X89580400Y-116083802D01*
X89547700Y-116248194D01*
X86659945Y-116248194D01*
X86756171Y-116135395D01*
X86876392Y-115920431D01*
X86952366Y-115686144D01*
X86961704Y-115639191D01*
X86879521Y-115443000D01*
X85750400Y-115443000D01*
X85699600Y-115443000D01*
X84570479Y-115443000D01*
X84488296Y-115639191D01*
X83437600Y-115639191D01*
X83437600Y-115036600D01*
X84534101Y-115036600D01*
X84497634Y-115149056D01*
G04 #@! TA.AperFunction,Conductor*
D18*
G36*
X84497634Y-115149056D02*
G01*
X84488296Y-115196009D01*
X84570479Y-115392200D01*
X85699600Y-115392200D01*
X85699600Y-115372200D01*
X85750400Y-115372200D01*
X85750400Y-115392200D01*
X86879521Y-115392200D01*
X86961704Y-115196009D01*
X86952366Y-115149056D01*
X86915899Y-115036600D01*
X93220965Y-115036600D01*
X93241378Y-115057013D01*
X93561676Y-115271030D01*
X93917573Y-115418447D01*
X94295390Y-115493600D01*
X94680610Y-115493600D01*
X95058427Y-115418447D01*
X95414324Y-115271030D01*
X95734622Y-115057013D01*
X95755035Y-115036600D01*
X124926400Y-115036600D01*
X124926401Y-149448158D01*
X124922695Y-149485957D01*
X124917480Y-149503228D01*
X124909006Y-149519166D01*
X124897606Y-149533144D01*
X124883695Y-149544652D01*
X124867829Y-149553231D01*
X124850590Y-149558567D01*
X124814122Y-149562400D01*
X116312079Y-149562400D01*
X116294786Y-149564103D01*
X116291750Y-149564082D01*
X116286113Y-149564634D01*
X116269310Y-149566400D01*
X115832000Y-149566400D01*
X115812179Y-149568352D01*
X115793119Y-149574134D01*
X115775554Y-149583523D01*
X115760158Y-149596158D01*
X115747523Y-149611554D01*
X115738134Y-149629119D01*
X115732352Y-149648179D01*
X115730400Y-149668000D01*
X115730400Y-149793463D01*
X115718675Y-149803163D01*
X115692783Y-149829238D01*
X115666510Y-149854966D01*
X115662900Y-149859329D01*
X115601224Y-149934950D01*
X115580887Y-149965560D01*
X115560108Y-149995907D01*
X115557414Y-150000888D01*
X115511602Y-150087049D01*
X115497585Y-150121059D01*
X115483114Y-150154822D01*
X115481439Y-150160232D01*
X115453234Y-150253650D01*
X115446094Y-150289709D01*
X115438450Y-150325673D01*
X115437858Y-150331305D01*
X115428336Y-150428422D01*
X115428336Y-150428432D01*
X115426401Y-150448079D01*
X115426400Y-155948168D01*
X115422695Y-155985957D01*
X115417480Y-156003228D01*
X115409006Y-156019166D01*
X115397606Y-156033144D01*
X115383695Y-156044652D01*
X115367829Y-156053231D01*
X115350590Y-156058567D01*
X115314122Y-156062400D01*
X112733600Y-156062400D01*
X112733600Y-154966612D01*
X112763611Y-155039066D01*
X112895550Y-155236525D01*
X113063475Y-155404450D01*
X113260934Y-155536389D01*
X113480340Y-155627269D01*
X113713259Y-155673600D01*
X113950741Y-155673600D01*
X114183660Y-155627269D01*
X114403066Y-155536389D01*
X114600525Y-155404450D01*
X114768450Y-155236525D01*
X114900389Y-155039066D01*
X114991269Y-154819660D01*
X115037600Y-154586741D01*
X115037600Y-154349259D01*
X114991269Y-154116340D01*
X114900389Y-153896934D01*
X114768450Y-153699475D01*
X114600525Y-153531550D01*
X114403066Y-153399611D01*
X114183660Y-153308731D01*
X113950741Y-153262400D01*
X113713259Y-153262400D01*
X113480340Y-153308731D01*
X113260934Y-153399611D01*
X113063475Y-153531550D01*
X112895550Y-153699475D01*
X112763611Y-153896934D01*
X112733600Y-153969388D01*
X112733600Y-152525585D01*
X112800829Y-152645795D01*
X112960677Y-152833174D01*
X113154010Y-152985768D01*
X113373398Y-153097712D01*
X113610409Y-153164705D01*
X113806600Y-153082544D01*
X113806600Y-151953400D01*
X113857400Y-151953400D01*
X113857400Y-153082544D01*
X114053591Y-153164705D01*
X114290602Y-153097712D01*
X114509990Y-152985768D01*
X114703323Y-152833174D01*
X114863171Y-152645795D01*
X114983392Y-152430831D01*
X115059366Y-152196544D01*
X115068704Y-152149591D01*
X114986521Y-151953400D01*
X113857400Y-151953400D01*
X113806600Y-151953400D01*
X113786600Y-151953400D01*
X113786600Y-151902600D01*
X113806600Y-151902600D01*
X113806600Y-150773456D01*
X113857400Y-150773456D01*
X113857400Y-151902600D01*
X114986521Y-151902600D01*
X115068704Y-151706409D01*
X115059366Y-151659456D01*
X114983392Y-151425169D01*
X114863171Y-151210205D01*
X114703323Y-151022826D01*
X114509990Y-150870232D01*
X114290602Y-150758288D01*
X114053591Y-150691295D01*
X113857400Y-150773456D01*
X113806600Y-150773456D01*
X113610409Y-150691295D01*
X113373398Y-150758288D01*
X113154010Y-150870232D01*
X112960677Y-151022826D01*
X112800829Y-151210205D01*
X112733600Y-151330415D01*
X112733600Y-149668000D01*
X112731648Y-149648179D01*
X112725866Y-149629119D01*
X112716477Y-149611554D01*
X112703842Y-149596158D01*
X112688446Y-149583523D01*
X112670881Y-149574134D01*
X112651821Y-149568352D01*
X112632000Y-149566400D01*
X104692534Y-149566400D01*
X104651921Y-149562400D01*
X104632000Y-149560438D01*
X104612079Y-149562400D01*
X87351921Y-149562400D01*
X87332000Y-149560438D01*
X87312079Y-149562400D01*
X87271466Y-149566400D01*
X83437600Y-149566400D01*
X83437600Y-148515580D01*
X88398400Y-148515580D01*
X88398400Y-148664420D01*
X88427437Y-148810400D01*
X88484396Y-148947911D01*
X88567087Y-149071667D01*
X88672333Y-149176913D01*
X88796089Y-149259604D01*
X88933600Y-149316563D01*
X89079580Y-149345600D01*
X89228420Y-149345600D01*
X89374400Y-149316563D01*
X89511911Y-149259604D01*
X89635667Y-149176913D01*
X89740913Y-149071667D01*
X89823604Y-148947911D01*
X89880563Y-148810400D01*
X89909600Y-148664420D01*
X89909600Y-148515580D01*
X105416400Y-148515580D01*
X105416400Y-148664420D01*
X105445437Y-148810400D01*
X105502396Y-148947911D01*
X105585087Y-149071667D01*
X105690333Y-149176913D01*
X105814089Y-149259604D01*
X105951600Y-149316563D01*
X106097580Y-149345600D01*
X106246420Y-149345600D01*
X106392400Y-149316563D01*
X106529911Y-149259604D01*
X106653667Y-149176913D01*
X106758913Y-149071667D01*
X106841604Y-148947911D01*
X106898563Y-148810400D01*
X106927600Y-148664420D01*
X106927600Y-148515580D01*
X106898563Y-148369600D01*
X106841604Y-148232089D01*
X106758913Y-148108333D01*
X106653667Y-148003087D01*
X106529911Y-147920396D01*
X106392400Y-147863437D01*
X106246420Y-147834400D01*
X106097580Y-147834400D01*
X105951600Y-147863437D01*
X105814089Y-147920396D01*
X105690333Y-148003087D01*
X105585087Y-148108333D01*
X105502396Y-148232089D01*
X105445437Y-148369600D01*
X105416400Y-148515580D01*
X89909600Y-148515580D01*
X89880563Y-148369600D01*
X89823604Y-148232089D01*
X89740913Y-148108333D01*
X89653362Y-148020782D01*
X89667311Y-148015004D01*
X89791067Y-147932313D01*
X89896313Y-147827067D01*
X89979004Y-147703311D01*
X90035963Y-147565800D01*
X90065000Y-147419820D01*
X90065000Y-147270980D01*
X90035963Y-147125000D01*
X89979004Y-146987489D01*
X89896313Y-146863733D01*
X89791067Y-146758487D01*
X89667311Y-146675796D01*
X89529800Y-146618837D01*
X89383820Y-146589800D01*
X89234980Y-146589800D01*
X89089000Y-146618837D01*
X88951489Y-146675796D01*
X88827733Y-146758487D01*
X88722487Y-146863733D01*
X88639796Y-146987489D01*
X88582837Y-147125000D01*
X88553800Y-147270980D01*
X88553800Y-147419820D01*
X88582837Y-147565800D01*
X88639796Y-147703311D01*
X88722487Y-147827067D01*
X88810038Y-147914618D01*
X88796089Y-147920396D01*
X88672333Y-148003087D01*
X88567087Y-148108333D01*
X88484396Y-148232089D01*
X88427437Y-148369600D01*
X88398400Y-148515580D01*
X83437600Y-148515580D01*
X83437600Y-144730971D01*
X83775609Y-144730971D01*
X83775609Y-144879811D01*
X83804646Y-145025791D01*
X83861605Y-145163302D01*
X83944296Y-145287058D01*
X84049542Y-145392304D01*
X84173298Y-145474995D01*
X84310809Y-145531954D01*
X84456789Y-145560991D01*
X84605629Y-145560991D01*
X84751609Y-145531954D01*
X84889120Y-145474995D01*
X85012876Y-145392304D01*
X85118122Y-145287058D01*
X85200813Y-145163302D01*
X85257772Y-145025791D01*
X85286809Y-144879811D01*
X85286809Y-144730971D01*
X85257772Y-144584991D01*
X85200813Y-144447480D01*
X85118122Y-144323724D01*
X85110802Y-144316404D01*
X85113620Y-144316404D01*
X85259600Y-144287367D01*
X85397111Y-144230408D01*
X85520867Y-144147717D01*
X85626113Y-144042471D01*
X85708804Y-143918715D01*
X85765763Y-143781204D01*
X85794800Y-143635224D01*
X85794800Y-143486384D01*
X85765763Y-143340404D01*
X85708804Y-143202893D01*
X85626113Y-143079137D01*
X85520867Y-142973891D01*
X85397111Y-142891200D01*
X85259600Y-142834241D01*
X85113620Y-142805204D01*
X84964780Y-142805204D01*
X84818800Y-142834241D01*
X84681289Y-142891200D01*
X84557533Y-142973891D01*
X84452287Y-143079137D01*
X84369596Y-143202893D01*
X84312637Y-143340404D01*
X84283600Y-143486384D01*
X84283600Y-143635224D01*
X84312637Y-143781204D01*
X84369596Y-143918715D01*
X84452287Y-144042471D01*
X84459607Y-144049791D01*
X84456789Y-144049791D01*
X84310809Y-144078828D01*
X84173298Y-144135787D01*
X84049542Y-144218478D01*
X83944296Y-144323724D01*
X83861605Y-144447480D01*
X83804646Y-144584991D01*
X83775609Y-144730971D01*
X83437600Y-144730971D01*
X83437600Y-142673580D01*
X94494400Y-142673580D01*
X94494400Y-142822420D01*
X94523437Y-142968400D01*
X94580396Y-143105911D01*
X94663087Y-143229667D01*
X94768333Y-143334913D01*
X94892089Y-143417604D01*
X95029600Y-143474563D01*
X95175580Y-143503600D01*
X95324420Y-143503600D01*
X95470400Y-143474563D01*
X95607911Y-143417604D01*
X95731667Y-143334913D01*
X95836913Y-143229667D01*
X95919604Y-143105911D01*
X95976563Y-142968400D01*
X96005600Y-142822420D01*
X96005600Y-142673580D01*
X96272400Y-142673580D01*
X96272400Y-142822420D01*
X96301437Y-142968400D01*
X96358396Y-143105911D01*
X96441087Y-143229667D01*
X96546333Y-143334913D01*
X96670089Y-143417604D01*
X96807600Y-143474563D01*
X96953580Y-143503600D01*
X97102420Y-143503600D01*
X97248400Y-143474563D01*
X97385911Y-143417604D01*
X97509667Y-143334913D01*
X97614913Y-143229667D01*
X97697604Y-143105911D01*
X97754563Y-142968400D01*
X97783600Y-142822420D01*
X97783600Y-142673580D01*
X98050400Y-142673580D01*
X98050400Y-142822420D01*
X98079437Y-142968400D01*
X98136396Y-143105911D01*
X98219087Y-143229667D01*
X98324333Y-143334913D01*
X98448089Y-143417604D01*
X98585600Y-143474563D01*
X98731580Y-143503600D01*
X98880420Y-143503600D01*
X99026400Y-143474563D01*
X99163911Y-143417604D01*
X99287667Y-143334913D01*
X99392913Y-143229667D01*
X99475604Y-143105911D01*
X99532563Y-142968400D01*
X99561600Y-142822420D01*
X99561600Y-142673580D01*
X99532563Y-142527600D01*
X99475604Y-142390089D01*
X99392913Y-142266333D01*
X99287667Y-142161087D01*
X99163911Y-142078396D01*
X99026400Y-142021437D01*
X98880420Y-141992400D01*
X98731580Y-141992400D01*
X98585600Y-142021437D01*
X98448089Y-142078396D01*
X98324333Y-142161087D01*
X98219087Y-142266333D01*
X98136396Y-142390089D01*
X98079437Y-142527600D01*
X98050400Y-142673580D01*
X97783600Y-142673580D01*
X97754563Y-142527600D01*
X97697604Y-142390089D01*
X97614913Y-142266333D01*
X97509667Y-142161087D01*
X97385911Y-142078396D01*
X97248400Y-142021437D01*
X97102420Y-141992400D01*
X96953580Y-141992400D01*
X96807600Y-142021437D01*
X96670089Y-142078396D01*
X96546333Y-142161087D01*
X96441087Y-142266333D01*
X96358396Y-142390089D01*
X96301437Y-142527600D01*
X96272400Y-142673580D01*
X96005600Y-142673580D01*
X95976563Y-142527600D01*
X95919604Y-142390089D01*
X95836913Y-142266333D01*
X95731667Y-142161087D01*
X95607911Y-142078396D01*
X95470400Y-142021437D01*
X95324420Y-141992400D01*
X95175580Y-141992400D01*
X95029600Y-142021437D01*
X94892089Y-142078396D01*
X94768333Y-142161087D01*
X94663087Y-142266333D01*
X94580396Y-142390089D01*
X94523437Y-142527600D01*
X94494400Y-142673580D01*
X83437600Y-142673580D01*
X83437600Y-141149580D01*
X94494400Y-141149580D01*
X94494400Y-141298420D01*
X94523437Y-141444400D01*
X94580396Y-141581911D01*
X94663087Y-141705667D01*
X94768333Y-141810913D01*
X94892089Y-141893604D01*
X95029600Y-141950563D01*
X95175580Y-141979600D01*
X95324420Y-141979600D01*
X95470400Y-141950563D01*
X95607911Y-141893604D01*
X95731667Y-141810913D01*
X95836913Y-141705667D01*
X95919604Y-141581911D01*
X95976563Y-141444400D01*
X96005600Y-141298420D01*
X96005600Y-141149580D01*
X96272400Y-141149580D01*
X96272400Y-141298420D01*
X96301437Y-141444400D01*
X96358396Y-141581911D01*
X96441087Y-141705667D01*
X96546333Y-141810913D01*
X96670089Y-141893604D01*
X96807600Y-141950563D01*
X96953580Y-141979600D01*
X97102420Y-141979600D01*
X97248400Y-141950563D01*
X97385911Y-141893604D01*
X97509667Y-141810913D01*
X97614913Y-141705667D01*
X97697604Y-141581911D01*
X97754563Y-141444400D01*
X97783600Y-141298420D01*
X97783600Y-141149580D01*
X98050400Y-141149580D01*
X98050400Y-141298420D01*
X98079437Y-141444400D01*
X98136396Y-141581911D01*
X98219087Y-141705667D01*
X98324333Y-141810913D01*
X98448089Y-141893604D01*
X98585600Y-141950563D01*
X98731580Y-141979600D01*
X98880420Y-141979600D01*
X99026400Y-141950563D01*
X99163911Y-141893604D01*
X99287667Y-141810913D01*
X99392913Y-141705667D01*
X99475604Y-141581911D01*
X99532563Y-141444400D01*
X99561600Y-141298420D01*
X99561600Y-141149580D01*
X99532563Y-141003600D01*
X99475604Y-140866089D01*
X99392913Y-140742333D01*
X99287667Y-140637087D01*
X99163911Y-140554396D01*
X99026400Y-140497437D01*
X98880420Y-140468400D01*
X98731580Y-140468400D01*
X98585600Y-140497437D01*
X98448089Y-140554396D01*
X98324333Y-140637087D01*
X98219087Y-140742333D01*
X98136396Y-140866089D01*
X98079437Y-141003600D01*
X98050400Y-141149580D01*
X97783600Y-141149580D01*
X97754563Y-141003600D01*
X97697604Y-140866089D01*
X97614913Y-140742333D01*
X97509667Y-140637087D01*
X97385911Y-140554396D01*
X97248400Y-140497437D01*
X97102420Y-140468400D01*
X96953580Y-140468400D01*
X96807600Y-140497437D01*
X96670089Y-140554396D01*
X96546333Y-140637087D01*
X96441087Y-140742333D01*
X96358396Y-140866089D01*
X96301437Y-141003600D01*
X96272400Y-141149580D01*
X96005600Y-141149580D01*
X95976563Y-141003600D01*
X95919604Y-140866089D01*
X95836913Y-140742333D01*
X95731667Y-140637087D01*
X95607911Y-140554396D01*
X95470400Y-140497437D01*
X95324420Y-140468400D01*
X95175580Y-140468400D01*
X95029600Y-140497437D01*
X94892089Y-140554396D01*
X94768333Y-140637087D01*
X94663087Y-140742333D01*
X94580396Y-140866089D01*
X94523437Y-141003600D01*
X94494400Y-141149580D01*
X83437600Y-141149580D01*
X83437600Y-139625580D01*
X94494400Y-139625580D01*
X94494400Y-139774420D01*
X94523437Y-139920400D01*
X94580396Y-140057911D01*
X94663087Y-140181667D01*
X94768333Y-140286913D01*
X94892089Y-140369604D01*
X95029600Y-140426563D01*
X95175580Y-140455600D01*
X95324420Y-140455600D01*
X95470400Y-140426563D01*
X95607911Y-140369604D01*
X95731667Y-140286913D01*
X95836913Y-140181667D01*
X95919604Y-140057911D01*
X95976563Y-139920400D01*
X96005600Y-139774420D01*
X96005600Y-139625580D01*
X96272400Y-139625580D01*
X96272400Y-139774420D01*
X96301437Y-139920400D01*
X96358396Y-140057911D01*
X96441087Y-140181667D01*
X96546333Y-140286913D01*
X96670089Y-140369604D01*
X96807600Y-140426563D01*
X96953580Y-140455600D01*
X97102420Y-140455600D01*
X97248400Y-140426563D01*
X97385911Y-140369604D01*
X97509667Y-140286913D01*
X97614913Y-140181667D01*
X97697604Y-140057911D01*
X97754563Y-139920400D01*
X97783600Y-139774420D01*
X97783600Y-139625580D01*
X98050400Y-139625580D01*
X98050400Y-139774420D01*
X98079437Y-139920400D01*
X98136396Y-140057911D01*
X98219087Y-140181667D01*
X98324333Y-140286913D01*
X98448089Y-140369604D01*
X98585600Y-140426563D01*
X98731580Y-140455600D01*
X98880420Y-140455600D01*
X99026400Y-140426563D01*
X99163911Y-140369604D01*
X99287667Y-140286913D01*
X99392913Y-140181667D01*
X99475604Y-140057911D01*
X99532563Y-139920400D01*
X99561600Y-139774420D01*
X99561600Y-139625580D01*
X99532563Y-139479600D01*
X99475604Y-139342089D01*
X99392913Y-139218333D01*
X99287667Y-139113087D01*
X99163911Y-139030396D01*
X99026400Y-138973437D01*
X98880420Y-138944400D01*
X98731580Y-138944400D01*
X98585600Y-138973437D01*
X98448089Y-139030396D01*
X98324333Y-139113087D01*
X98219087Y-139218333D01*
X98136396Y-139342089D01*
X98079437Y-139479600D01*
X98050400Y-139625580D01*
X97783600Y-139625580D01*
X97754563Y-139479600D01*
X97697604Y-139342089D01*
X97614913Y-139218333D01*
X97509667Y-139113087D01*
X97385911Y-139030396D01*
X97248400Y-138973437D01*
X97102420Y-138944400D01*
X96953580Y-138944400D01*
X96807600Y-138973437D01*
X96670089Y-139030396D01*
X96546333Y-139113087D01*
X96441087Y-139218333D01*
X96358396Y-139342089D01*
X96301437Y-139479600D01*
X96272400Y-139625580D01*
X96005600Y-139625580D01*
X95976563Y-139479600D01*
X95919604Y-139342089D01*
X95836913Y-139218333D01*
X95731667Y-139113087D01*
X95607911Y-139030396D01*
X95470400Y-138973437D01*
X95324420Y-138944400D01*
X95175580Y-138944400D01*
X95029600Y-138973437D01*
X94892089Y-139030396D01*
X94768333Y-139113087D01*
X94663087Y-139218333D01*
X94580396Y-139342089D01*
X94523437Y-139479600D01*
X94494400Y-139625580D01*
X83437600Y-139625580D01*
X83437600Y-137085582D01*
X88271400Y-137085582D01*
X88271400Y-137234422D01*
X88300437Y-137380402D01*
X88357396Y-137517913D01*
X88440087Y-137641669D01*
X88545333Y-137746915D01*
X88669089Y-137829606D01*
X88683546Y-137835594D01*
X88672333Y-137843087D01*
X88567087Y-137948333D01*
X88484396Y-138072089D01*
X88427437Y-138209600D01*
X88398400Y-138355580D01*
X88398400Y-138504420D01*
X88427437Y-138650400D01*
X88484396Y-138787911D01*
X88567087Y-138911667D01*
X88672333Y-139016913D01*
X88796089Y-139099604D01*
X88933600Y-139156563D01*
X89079580Y-139185600D01*
X89228420Y-139185600D01*
X89374400Y-139156563D01*
X89511911Y-139099604D01*
X89635667Y-139016913D01*
X89740913Y-138911667D01*
X89823604Y-138787911D01*
X89880563Y-138650400D01*
X89909600Y-138504420D01*
X89909600Y-138493580D01*
X101676400Y-138493580D01*
X101676400Y-138642420D01*
X101705437Y-138788400D01*
X101762396Y-138925911D01*
X101845087Y-139049667D01*
X101950333Y-139154913D01*
X102074089Y-139237604D01*
X102211600Y-139294563D01*
X102357580Y-139323600D01*
X102506420Y-139323600D01*
X102652400Y-139294563D01*
X102789911Y-139237604D01*
X102913667Y-139154913D01*
X103018913Y-139049667D01*
X103101604Y-138925911D01*
X103158563Y-138788400D01*
X103187600Y-138642420D01*
X103187600Y-138493580D01*
X103158563Y-138347600D01*
X103101604Y-138210089D01*
X103018913Y-138086333D01*
X102913667Y-137981087D01*
X102789911Y-137898396D01*
X102652400Y-137841437D01*
X102506420Y-137812400D01*
X102357580Y-137812400D01*
X102211600Y-137841437D01*
X102074089Y-137898396D01*
X101950333Y-137981087D01*
X101845087Y-138086333D01*
X101762396Y-138210089D01*
X101705437Y-138347600D01*
X101676400Y-138493580D01*
X89909600Y-138493580D01*
X89909600Y-138355580D01*
X89880563Y-138209600D01*
X89823604Y-138072089D01*
X89740913Y-137948333D01*
X89635667Y-137843087D01*
X89511911Y-137760396D01*
X89497454Y-137754408D01*
X89508667Y-137746915D01*
X89613913Y-137641669D01*
X89696604Y-137517913D01*
X89753563Y-137380402D01*
X89782600Y-137234422D01*
X89782600Y-137085582D01*
X89753563Y-136939602D01*
X89696604Y-136802091D01*
X89613913Y-136678335D01*
X89508667Y-136573089D01*
X89384911Y-136490398D01*
X89247400Y-136433439D01*
X89101420Y-136404402D01*
X88952580Y-136404402D01*
X88806600Y-136433439D01*
X88669089Y-136490398D01*
X88545333Y-136573089D01*
X88440087Y-136678335D01*
X88357396Y-136802091D01*
X88300437Y-136939602D01*
X88271400Y-137085582D01*
X83437600Y-137085582D01*
X83437600Y-133275580D01*
X88398400Y-133275580D01*
X88398400Y-133424420D01*
X88427437Y-133570400D01*
X88484396Y-133707911D01*
X88567087Y-133831667D01*
X88672333Y-133936913D01*
X88796089Y-134019604D01*
X88933600Y-134076563D01*
X89079580Y-134105600D01*
X89228420Y-134105600D01*
X89374400Y-134076563D01*
X89511911Y-134019604D01*
X89635667Y-133936913D01*
X89740913Y-133831667D01*
X89823604Y-133707911D01*
X89870961Y-133593580D01*
X94276400Y-133593580D01*
X94276400Y-133742420D01*
X94305437Y-133888400D01*
X94362396Y-134025911D01*
X94445087Y-134149667D01*
X94550333Y-134254913D01*
X94674089Y-134337604D01*
X94811600Y-134394563D01*
X94957580Y-134423600D01*
X95106420Y-134423600D01*
X95252400Y-134394563D01*
X95389911Y-134337604D01*
X95513667Y-134254913D01*
X95618913Y-134149667D01*
X95701604Y-134025911D01*
X95758563Y-133888400D01*
X95787600Y-133742420D01*
X95787600Y-133593580D01*
X95758563Y-133447600D01*
X95701604Y-133310089D01*
X95618913Y-133186333D01*
X95513667Y-133081087D01*
X95389911Y-132998396D01*
X95252400Y-132941437D01*
X95106420Y-132912400D01*
X94957580Y-132912400D01*
X94811600Y-132941437D01*
X94674089Y-132998396D01*
X94550333Y-133081087D01*
X94445087Y-133186333D01*
X94362396Y-133310089D01*
X94305437Y-133447600D01*
X94276400Y-133593580D01*
X89870961Y-133593580D01*
X89880563Y-133570400D01*
X89909600Y-133424420D01*
X89909600Y-133275580D01*
X89880563Y-133129600D01*
X89823604Y-132992089D01*
X89740913Y-132868333D01*
X89635667Y-132763087D01*
X89511911Y-132680396D01*
X89415787Y-132640580D01*
X100971400Y-132640580D01*
X100971400Y-132789420D01*
X101000437Y-132935400D01*
X101057396Y-133072911D01*
X101140087Y-133196667D01*
X101245333Y-133301913D01*
X101369089Y-133384604D01*
X101506600Y-133441563D01*
X101652580Y-133470600D01*
X101801420Y-133470600D01*
X101947400Y-133441563D01*
X102084911Y-133384604D01*
X102208667Y-133301913D01*
X102313913Y-133196667D01*
X102396604Y-133072911D01*
X102453563Y-132935400D01*
X102482600Y-132789420D01*
X102482600Y-132640580D01*
X102453563Y-132494600D01*
X102396604Y-132357089D01*
X102313913Y-132233333D01*
X102208667Y-132128087D01*
X102084911Y-132045396D01*
X101947400Y-131988437D01*
X101801420Y-131959400D01*
X101652580Y-131959400D01*
X101506600Y-131988437D01*
X101369089Y-132045396D01*
X101245333Y-132128087D01*
X101140087Y-132233333D01*
X101057396Y-132357089D01*
X101000437Y-132494600D01*
X100971400Y-132640580D01*
X89415787Y-132640580D01*
X89374400Y-132623437D01*
X89228420Y-132594400D01*
X89079580Y-132594400D01*
X88933600Y-132623437D01*
X88796089Y-132680396D01*
X88672333Y-132763087D01*
X88567087Y-132868333D01*
X88484396Y-132992089D01*
X88427437Y-133129600D01*
X88398400Y-133275580D01*
X83437600Y-133275580D01*
X83437600Y-127736080D01*
X97717894Y-127736080D01*
X97717894Y-127884920D01*
X97746931Y-128030900D01*
X97803890Y-128168411D01*
X97886581Y-128292167D01*
X97991827Y-128397413D01*
X98115583Y-128480104D01*
X98253094Y-128537063D01*
X98399074Y-128566100D01*
X98547914Y-128566100D01*
X98693894Y-128537063D01*
X98831405Y-128480104D01*
X98955161Y-128397413D01*
X99060407Y-128292167D01*
X99143098Y-128168411D01*
X99200057Y-128030900D01*
X99229094Y-127884920D01*
X99229094Y-127736080D01*
X99200057Y-127590100D01*
X99143098Y-127452589D01*
X99060407Y-127328833D01*
X98955161Y-127223587D01*
X98831405Y-127140896D01*
X98693894Y-127083937D01*
X98547914Y-127054900D01*
X98399074Y-127054900D01*
X98253094Y-127083937D01*
X98115583Y-127140896D01*
X97991827Y-127223587D01*
X97886581Y-127328833D01*
X97803890Y-127452589D01*
X97746931Y-127590100D01*
X97717894Y-127736080D01*
X83437600Y-127736080D01*
X83437600Y-125893580D01*
X100776400Y-125893580D01*
X100776400Y-126042420D01*
X100805437Y-126188400D01*
X100862396Y-126325911D01*
X100945087Y-126449667D01*
X101050333Y-126554913D01*
X101174089Y-126637604D01*
X101311600Y-126694563D01*
X101457580Y-126723600D01*
X101606420Y-126723600D01*
X101752400Y-126694563D01*
X101889911Y-126637604D01*
X102013667Y-126554913D01*
X102117980Y-126450600D01*
X104332101Y-126450600D01*
X105622399Y-127740899D01*
X105622400Y-145509020D01*
X105545087Y-145586333D01*
X105462396Y-145710089D01*
X105405437Y-145847600D01*
X105376400Y-145993580D01*
X105376400Y-146142420D01*
X105405437Y-146288400D01*
X105462396Y-146425911D01*
X105545087Y-146549667D01*
X105650333Y-146654913D01*
X105774089Y-146737604D01*
X105911600Y-146794563D01*
X106057580Y-146823600D01*
X106206420Y-146823600D01*
X106352400Y-146794563D01*
X106489911Y-146737604D01*
X106613667Y-146654913D01*
X106718913Y-146549667D01*
X106801604Y-146425911D01*
X106858563Y-146288400D01*
X106887600Y-146142420D01*
X106887600Y-145993580D01*
X106858563Y-145847600D01*
X106801604Y-145710089D01*
X106718913Y-145586333D01*
X106613667Y-145481087D01*
X106587599Y-145463669D01*
X106587599Y-144092179D01*
X106650333Y-144154913D01*
X106774089Y-144237604D01*
X106911600Y-144294563D01*
X107057580Y-144323600D01*
X107206420Y-144323600D01*
X107352400Y-144294563D01*
X107489911Y-144237604D01*
X107613667Y-144154913D01*
X107718913Y-144049667D01*
X107801604Y-143925911D01*
X107858563Y-143788400D01*
X107887600Y-143642420D01*
X107887600Y-143493580D01*
X107858563Y-143347600D01*
X107801604Y-143210089D01*
X107718913Y-143086333D01*
X107613667Y-142981087D01*
X107489911Y-142898396D01*
X107352400Y-142841437D01*
X107206420Y-142812400D01*
X107057580Y-142812400D01*
X106911600Y-142841437D01*
X106774089Y-142898396D01*
X106650333Y-142981087D01*
X106587599Y-143043821D01*
X106587599Y-142496892D01*
X115074000Y-142496892D01*
X115074000Y-143405507D01*
X115089998Y-143567934D01*
X115153217Y-143776341D01*
X115255880Y-143968410D01*
X115394040Y-144136760D01*
X115562390Y-144274920D01*
X115754458Y-144377583D01*
X115962865Y-144440802D01*
X116179600Y-144462149D01*
X116396334Y-144440802D01*
X116604741Y-144377583D01*
X116796810Y-144274920D01*
X116965160Y-144136760D01*
X117103320Y-143968410D01*
X117205983Y-143776342D01*
X117269202Y-143567935D01*
X117285200Y-143405508D01*
X117285200Y-142496893D01*
X117285200Y-142496892D01*
X117614000Y-142496892D01*
X117614000Y-143405507D01*
X117629998Y-143567934D01*
X117693217Y-143776341D01*
X117795880Y-143968410D01*
X117934040Y-144136760D01*
X118102390Y-144274920D01*
X118294458Y-144377583D01*
X118502865Y-144440802D01*
X118719600Y-144462149D01*
X118936334Y-144440802D01*
X119144741Y-144377583D01*
X119336810Y-144274920D01*
X119505160Y-144136760D01*
X119643320Y-143968410D01*
X119745983Y-143776342D01*
X119809202Y-143567935D01*
X119825200Y-143405508D01*
X119825200Y-142496893D01*
X119809202Y-142334466D01*
X119745983Y-142126058D01*
X119643320Y-141933990D01*
X119534344Y-141801200D01*
X120152280Y-141801200D01*
X120152280Y-144101200D01*
X120159146Y-144170910D01*
X120179479Y-144237940D01*
X120212499Y-144299716D01*
X120256937Y-144353863D01*
X120311084Y-144398301D01*
X120372860Y-144431321D01*
X120439890Y-144451654D01*
X120509600Y-144458520D01*
X122009600Y-144458520D01*
X122079310Y-144451654D01*
X122146340Y-144431321D01*
X122208116Y-144398301D01*
X122262263Y-144353863D01*
X122306701Y-144299716D01*
X122339721Y-144237940D01*
X122360054Y-144170910D01*
X122366920Y-144101200D01*
X122366920Y-141801200D01*
X122360054Y-141731490D01*
X122339721Y-141664460D01*
X122306701Y-141602684D01*
X122262263Y-141548537D01*
X122208116Y-141504099D01*
X122146340Y-141471079D01*
X122079310Y-141450746D01*
X122009600Y-141443880D01*
X120509600Y-141443880D01*
X120439890Y-141450746D01*
X120372860Y-141471079D01*
X120311084Y-141504099D01*
X120256937Y-141548537D01*
X120212499Y-141602684D01*
X120179479Y-141664460D01*
X120159146Y-141731490D01*
X120152280Y-141801200D01*
X119534344Y-141801200D01*
X119505160Y-141765640D01*
X119336810Y-141627480D01*
X119144742Y-141524817D01*
X118936335Y-141461598D01*
X118719600Y-141440251D01*
X118502866Y-141461598D01*
X118294459Y-141524817D01*
X118102391Y-141627480D01*
X117934041Y-141765640D01*
X117795881Y-141933990D01*
X117693218Y-142126058D01*
X117629998Y-142334465D01*
X117614000Y-142496892D01*
X117285200Y-142496892D01*
X117269202Y-142334466D01*
X117205983Y-142126058D01*
X117103320Y-141933990D01*
X116965160Y-141765640D01*
X116796810Y-141627480D01*
X116604742Y-141524817D01*
X116396335Y-141461598D01*
X116179600Y-141440251D01*
X115962866Y-141461598D01*
X115754459Y-141524817D01*
X115562391Y-141627480D01*
X115394041Y-141765640D01*
X115255881Y-141933990D01*
X115153218Y-142126058D01*
X115089998Y-142334465D01*
X115074000Y-142496892D01*
X106587599Y-142496892D01*
X106587599Y-140493580D01*
X108776400Y-140493580D01*
X108776400Y-140642420D01*
X108805437Y-140788400D01*
X108862396Y-140925911D01*
X108945087Y-141049667D01*
X109050333Y-141154913D01*
X109174089Y-141237604D01*
X109311600Y-141294563D01*
X109457580Y-141323600D01*
X109606420Y-141323600D01*
X109752400Y-141294563D01*
X109889911Y-141237604D01*
X110013667Y-141154913D01*
X110118913Y-141049667D01*
X110201604Y-140925911D01*
X110258563Y-140788400D01*
X110287600Y-140642420D01*
X110287600Y-140493580D01*
X110258563Y-140347600D01*
X110201604Y-140210089D01*
X110118913Y-140086333D01*
X110013667Y-139981087D01*
X109889911Y-139898396D01*
X109752400Y-139841437D01*
X109606420Y-139812400D01*
X109457580Y-139812400D01*
X109311600Y-139841437D01*
X109174089Y-139898396D01*
X109050333Y-139981087D01*
X108945087Y-140086333D01*
X108862396Y-140210089D01*
X108805437Y-140347600D01*
X108776400Y-140493580D01*
X106587599Y-140493580D01*
X106587599Y-140184780D01*
X106602491Y-140207067D01*
X106707737Y-140312313D01*
X106831493Y-140395004D01*
X106969004Y-140451963D01*
X107114984Y-140481000D01*
X107263824Y-140481000D01*
X107409804Y-140451963D01*
X107547315Y-140395004D01*
X107671071Y-140312313D01*
X107776317Y-140207067D01*
X107859008Y-140083311D01*
X107915967Y-139945800D01*
X107945004Y-139799820D01*
X107945004Y-139650980D01*
X107915967Y-139505000D01*
X107859008Y-139367489D01*
X107776317Y-139243733D01*
X107671071Y-139138487D01*
X107547315Y-139055796D01*
X107409804Y-138998837D01*
X107263824Y-138969800D01*
X107114984Y-138969800D01*
X106969004Y-138998837D01*
X106831493Y-139055796D01*
X106707737Y-139138487D01*
X106602491Y-139243733D01*
X106587599Y-139266020D01*
X106587599Y-137961880D01*
X115055700Y-137961880D01*
X115055700Y-138110720D01*
X115084737Y-138256700D01*
X115141696Y-138394211D01*
X115224387Y-138517967D01*
X115329633Y-138623213D01*
X115453389Y-138705904D01*
X115590900Y-138762863D01*
X115736880Y-138791900D01*
X115885720Y-138791900D01*
X116031700Y-138762863D01*
X116169211Y-138705904D01*
X116292967Y-138623213D01*
X116398213Y-138517967D01*
X116480904Y-138394211D01*
X116537863Y-138256700D01*
X116566900Y-138110720D01*
X116566900Y-137961880D01*
X116537863Y-137815900D01*
X116480904Y-137678389D01*
X116479481Y-137676259D01*
X118301400Y-137676259D01*
X118301400Y-137913741D01*
X118347731Y-138146660D01*
X118438611Y-138366066D01*
X118570550Y-138563525D01*
X118738475Y-138731450D01*
X118935934Y-138863389D01*
X119155340Y-138954269D01*
X119388259Y-139000600D01*
X119625741Y-139000600D01*
X119858660Y-138954269D01*
X120078066Y-138863389D01*
X120275525Y-138731450D01*
X120443450Y-138563525D01*
X120575389Y-138366066D01*
X120666269Y-138146660D01*
X120712600Y-137913741D01*
X120712600Y-137676259D01*
X120666269Y-137443340D01*
X120575389Y-137223934D01*
X120443450Y-137026475D01*
X120361975Y-136945000D01*
X120839680Y-136945000D01*
X120839680Y-138645000D01*
X120846546Y-138714710D01*
X120866879Y-138781740D01*
X120899899Y-138843516D01*
X120944337Y-138897663D01*
X120998484Y-138942101D01*
X121060260Y-138975121D01*
X121127290Y-138995454D01*
X121197000Y-139002320D01*
X122897000Y-139002320D01*
X122966710Y-138995454D01*
X123033740Y-138975121D01*
X123095516Y-138942101D01*
X123149663Y-138897663D01*
X123194101Y-138843516D01*
X123227121Y-138781740D01*
X123247454Y-138714710D01*
X123254320Y-138645000D01*
X123254320Y-136945000D01*
X123247454Y-136875290D01*
X123227121Y-136808260D01*
X123194101Y-136746484D01*
X123149663Y-136692337D01*
X123095516Y-136647899D01*
X123033740Y-136614879D01*
X122966710Y-136594546D01*
X122897000Y-136587680D01*
X121197000Y-136587680D01*
X121127290Y-136594546D01*
X121060260Y-136614879D01*
X120998484Y-136647899D01*
X120944337Y-136692337D01*
X120899899Y-136746484D01*
X120866879Y-136808260D01*
X120846546Y-136875290D01*
X120839680Y-136945000D01*
X120361975Y-136945000D01*
X120275525Y-136858550D01*
X120078066Y-136726611D01*
X119858660Y-136635731D01*
X119625741Y-136589400D01*
X119388259Y-136589400D01*
X119155340Y-136635731D01*
X118935934Y-136726611D01*
X118738475Y-136858550D01*
X118570550Y-137026475D01*
X118438611Y-137223934D01*
X118347731Y-137443340D01*
X118301400Y-137676259D01*
X116479481Y-137676259D01*
X116398213Y-137554633D01*
X116292967Y-137449387D01*
X116169211Y-137366696D01*
X116031700Y-137309737D01*
X115885720Y-137280700D01*
X115736880Y-137280700D01*
X115590900Y-137309737D01*
X115453389Y-137366696D01*
X115329633Y-137449387D01*
X115224387Y-137554633D01*
X115141696Y-137678389D01*
X115084737Y-137815900D01*
X115055700Y-137961880D01*
X106587599Y-137961880D01*
X106587599Y-137843200D01*
X106711600Y-137894563D01*
X106857580Y-137923600D01*
X107006420Y-137923600D01*
X107152400Y-137894563D01*
X107289911Y-137837604D01*
X107413667Y-137754913D01*
X107518913Y-137649667D01*
X107601604Y-137525911D01*
X107658563Y-137388400D01*
X107687600Y-137242420D01*
X107687600Y-137093580D01*
X107658563Y-136947600D01*
X107601604Y-136810089D01*
X107518913Y-136686333D01*
X107413667Y-136581087D01*
X107289911Y-136498396D01*
X107152400Y-136441437D01*
X107006420Y-136412400D01*
X106857580Y-136412400D01*
X106711600Y-136441437D01*
X106587599Y-136492800D01*
X106587599Y-136069580D01*
X107829400Y-136069580D01*
X107829400Y-136218420D01*
X107858437Y-136364400D01*
X107915396Y-136501911D01*
X107998087Y-136625667D01*
X108103333Y-136730913D01*
X108227089Y-136813604D01*
X108364600Y-136870563D01*
X108510580Y-136899600D01*
X108659420Y-136899600D01*
X108805400Y-136870563D01*
X108942911Y-136813604D01*
X109066667Y-136730913D01*
X109171913Y-136625667D01*
X109254604Y-136501911D01*
X109311563Y-136364400D01*
X109340600Y-136218420D01*
X109340600Y-136069580D01*
X109311563Y-135923600D01*
X109254604Y-135786089D01*
X109171913Y-135662333D01*
X109066667Y-135557087D01*
X108942911Y-135474396D01*
X108805400Y-135417437D01*
X108659420Y-135388400D01*
X108510580Y-135388400D01*
X108364600Y-135417437D01*
X108227089Y-135474396D01*
X108103333Y-135557087D01*
X107998087Y-135662333D01*
X107915396Y-135786089D01*
X107858437Y-135923600D01*
X107829400Y-136069580D01*
X106587599Y-136069580D01*
X106587599Y-135332980D01*
X115678000Y-135332980D01*
X115678000Y-135481820D01*
X115707037Y-135627800D01*
X115763996Y-135765311D01*
X115846687Y-135889067D01*
X115951933Y-135994313D01*
X116075689Y-136077004D01*
X116213200Y-136133963D01*
X116359180Y-136163000D01*
X116508020Y-136163000D01*
X116654000Y-136133963D01*
X116791511Y-136077004D01*
X116915267Y-135994313D01*
X117020513Y-135889067D01*
X117103204Y-135765311D01*
X117160163Y-135627800D01*
X117189200Y-135481820D01*
X117189200Y-135332980D01*
X117160163Y-135187000D01*
X117139146Y-135136259D01*
X118301400Y-135136259D01*
X118301400Y-135373741D01*
X118347731Y-135606660D01*
X118438611Y-135826066D01*
X118570550Y-136023525D01*
X118738475Y-136191450D01*
X118935934Y-136323389D01*
X119155340Y-136414269D01*
X119388259Y-136460600D01*
X119625741Y-136460600D01*
X119858660Y-136414269D01*
X120078066Y-136323389D01*
X120275525Y-136191450D01*
X120443450Y-136023525D01*
X120575389Y-135826066D01*
X120666269Y-135606660D01*
X120712600Y-135373741D01*
X120712600Y-135136259D01*
X120841400Y-135136259D01*
X120841400Y-135373741D01*
X120887731Y-135606660D01*
X120978611Y-135826066D01*
X121110550Y-136023525D01*
X121278475Y-136191450D01*
X121475934Y-136323389D01*
X121695340Y-136414269D01*
X121928259Y-136460600D01*
X122165741Y-136460600D01*
X122398660Y-136414269D01*
X122618066Y-136323389D01*
X122815525Y-136191450D01*
X122983450Y-136023525D01*
X123115389Y-135826066D01*
X123206269Y-135606660D01*
X123252600Y-135373741D01*
X123252600Y-135136259D01*
X123206269Y-134903340D01*
X123115389Y-134683934D01*
X122983450Y-134486475D01*
X122815525Y-134318550D01*
X122618066Y-134186611D01*
X122398660Y-134095731D01*
X122165741Y-134049400D01*
X121928259Y-134049400D01*
X121695340Y-134095731D01*
X121475934Y-134186611D01*
X121278475Y-134318550D01*
X121110550Y-134486475D01*
X120978611Y-134683934D01*
X120887731Y-134903340D01*
X120841400Y-135136259D01*
X120712600Y-135136259D01*
X120666269Y-134903340D01*
X120575389Y-134683934D01*
X120443450Y-134486475D01*
X120275525Y-134318550D01*
X120078066Y-134186611D01*
X119858660Y-134095731D01*
X119625741Y-134049400D01*
X119388259Y-134049400D01*
X119155340Y-134095731D01*
X118935934Y-134186611D01*
X118738475Y-134318550D01*
X118570550Y-134486475D01*
X118438611Y-134683934D01*
X118347731Y-134903340D01*
X118301400Y-135136259D01*
X117139146Y-135136259D01*
X117103204Y-135049489D01*
X117020513Y-134925733D01*
X116915267Y-134820487D01*
X116791511Y-134737796D01*
X116654000Y-134680837D01*
X116508020Y-134651800D01*
X116359180Y-134651800D01*
X116213200Y-134680837D01*
X116075689Y-134737796D01*
X115951933Y-134820487D01*
X115846687Y-134925733D01*
X115763996Y-135049489D01*
X115707037Y-135187000D01*
X115678000Y-135332980D01*
X106587599Y-135332980D01*
X106587599Y-132596259D01*
X118301400Y-132596259D01*
X118301400Y-132833741D01*
X118347731Y-133066660D01*
X118438611Y-133286066D01*
X118570550Y-133483525D01*
X118738475Y-133651450D01*
X118935934Y-133783389D01*
X119155340Y-133874269D01*
X119388259Y-133920600D01*
X119625741Y-133920600D01*
X119858660Y-133874269D01*
X120078066Y-133783389D01*
X120275525Y-133651450D01*
X120443450Y-133483525D01*
X120575389Y-133286066D01*
X120666269Y-133066660D01*
X120712600Y-132833741D01*
X120712600Y-132596259D01*
X120841400Y-132596259D01*
X120841400Y-132833741D01*
X120887731Y-133066660D01*
X120978611Y-133286066D01*
X121110550Y-133483525D01*
X121278475Y-133651450D01*
X121475934Y-133783389D01*
X121695340Y-133874269D01*
X121928259Y-133920600D01*
X122165741Y-133920600D01*
X122398660Y-133874269D01*
X122618066Y-133783389D01*
X122815525Y-133651450D01*
X122983450Y-133483525D01*
X123115389Y-133286066D01*
X123206269Y-133066660D01*
X123252600Y-132833741D01*
X123252600Y-132596259D01*
X123206269Y-132363340D01*
X123115389Y-132143934D01*
X122983450Y-131946475D01*
X122815525Y-131778550D01*
X122618066Y-131646611D01*
X122398660Y-131555731D01*
X122165741Y-131509400D01*
X121928259Y-131509400D01*
X121695340Y-131555731D01*
X121475934Y-131646611D01*
X121278475Y-131778550D01*
X121110550Y-131946475D01*
X120978611Y-132143934D01*
X120887731Y-132363340D01*
X120841400Y-132596259D01*
X120712600Y-132596259D01*
X120666269Y-132363340D01*
X120575389Y-132143934D01*
X120443450Y-131946475D01*
X120275525Y-131778550D01*
X120078066Y-131646611D01*
X119858660Y-131555731D01*
X119625741Y-131509400D01*
X119388259Y-131509400D01*
X119155340Y-131555731D01*
X118935934Y-131646611D01*
X118738475Y-131778550D01*
X118570550Y-131946475D01*
X118438611Y-132143934D01*
X118347731Y-132363340D01*
X118301400Y-132596259D01*
X106587599Y-132596259D01*
X106587599Y-130056259D01*
X118301400Y-130056259D01*
X118301400Y-130293741D01*
X118347731Y-130526660D01*
X118438611Y-130746066D01*
X118570550Y-130943525D01*
X118738475Y-131111450D01*
X118935934Y-131243389D01*
X119155340Y-131334269D01*
X119388259Y-131380600D01*
X119625741Y-131380600D01*
X119858660Y-131334269D01*
X120078066Y-131243389D01*
X120275525Y-131111450D01*
X120443450Y-130943525D01*
X120575389Y-130746066D01*
X120666269Y-130526660D01*
X120712600Y-130293741D01*
X120712600Y-130056259D01*
X120841400Y-130056259D01*
X120841400Y-130293741D01*
X120887731Y-130526660D01*
X120978611Y-130746066D01*
X121110550Y-130943525D01*
X121278475Y-131111450D01*
X121475934Y-131243389D01*
X121695340Y-131334269D01*
X121928259Y-131380600D01*
X122165741Y-131380600D01*
X122398660Y-131334269D01*
X122618066Y-131243389D01*
X122815525Y-131111450D01*
X122983450Y-130943525D01*
X123115389Y-130746066D01*
X123206269Y-130526660D01*
X123252600Y-130293741D01*
X123252600Y-130056259D01*
X123206269Y-129823340D01*
X123115389Y-129603934D01*
X122983450Y-129406475D01*
X122815525Y-129238550D01*
X122618066Y-129106611D01*
X122398660Y-129015731D01*
X122165741Y-128969400D01*
X121928259Y-128969400D01*
X121695340Y-129015731D01*
X121475934Y-129106611D01*
X121278475Y-129238550D01*
X121110550Y-129406475D01*
X120978611Y-129603934D01*
X120887731Y-129823340D01*
X120841400Y-130056259D01*
X120712600Y-130056259D01*
X120666269Y-129823340D01*
X120575389Y-129603934D01*
X120443450Y-129406475D01*
X120275525Y-129238550D01*
X120078066Y-129106611D01*
X119858660Y-129015731D01*
X119625741Y-128969400D01*
X119388259Y-128969400D01*
X119155340Y-129015731D01*
X118935934Y-129106611D01*
X118738475Y-129238550D01*
X118570550Y-129406475D01*
X118438611Y-129603934D01*
X118347731Y-129823340D01*
X118301400Y-130056259D01*
X106587599Y-130056259D01*
X106587599Y-127624080D01*
X117862400Y-127624080D01*
X117862400Y-127772920D01*
X117891437Y-127918900D01*
X117948396Y-128056411D01*
X118031087Y-128180167D01*
X118136333Y-128285413D01*
X118260089Y-128368104D01*
X118397600Y-128425063D01*
X118543580Y-128454100D01*
X118692420Y-128454100D01*
X118838400Y-128425063D01*
X118975911Y-128368104D01*
X119099667Y-128285413D01*
X119204913Y-128180167D01*
X119287604Y-128056411D01*
X119344563Y-127918900D01*
X119373600Y-127772920D01*
X119373600Y-127624080D01*
X121926400Y-127624080D01*
X121926400Y-127772920D01*
X121955437Y-127918900D01*
X122012396Y-128056411D01*
X122095087Y-128180167D01*
X122200333Y-128285413D01*
X122324089Y-128368104D01*
X122461600Y-128425063D01*
X122607580Y-128454100D01*
X122756420Y-128454100D01*
X122902400Y-128425063D01*
X123039911Y-128368104D01*
X123163667Y-128285413D01*
X123268913Y-128180167D01*
X123351604Y-128056411D01*
X123408563Y-127918900D01*
X123437600Y-127772920D01*
X123437600Y-127624080D01*
X123408563Y-127478100D01*
X123351604Y-127340589D01*
X123268913Y-127216833D01*
X123163667Y-127111587D01*
X123039911Y-127028896D01*
X122902400Y-126971937D01*
X122756420Y-126942900D01*
X122607580Y-126942900D01*
X122461600Y-126971937D01*
X122324089Y-127028896D01*
X122200333Y-127111587D01*
X122095087Y-127216833D01*
X122012396Y-127340589D01*
X121955437Y-127478100D01*
X121926400Y-127624080D01*
X119373600Y-127624080D01*
X119344563Y-127478100D01*
X119287604Y-127340589D01*
X119204913Y-127216833D01*
X119099667Y-127111587D01*
X118975911Y-127028896D01*
X118838400Y-126971937D01*
X118692420Y-126942900D01*
X118543580Y-126942900D01*
X118397600Y-126971937D01*
X118260089Y-127028896D01*
X118136333Y-127111587D01*
X118031087Y-127216833D01*
X117948396Y-127340589D01*
X117891437Y-127478100D01*
X117862400Y-127624080D01*
X106587599Y-127624080D01*
X106587599Y-127564706D01*
X106589934Y-127540999D01*
X106580616Y-127446392D01*
X106553021Y-127355422D01*
X106508207Y-127271583D01*
X106463012Y-127216512D01*
X106463011Y-127216511D01*
X106447900Y-127198098D01*
X106429487Y-127182987D01*
X104890017Y-125643518D01*
X104874901Y-125625099D01*
X104801415Y-125564791D01*
X104717577Y-125519978D01*
X104626606Y-125492383D01*
X104555707Y-125485400D01*
X104555705Y-125485400D01*
X104532000Y-125483065D01*
X104508295Y-125485400D01*
X102117980Y-125485400D01*
X102013667Y-125381087D01*
X101889911Y-125298396D01*
X101752400Y-125241437D01*
X101606420Y-125212400D01*
X101457580Y-125212400D01*
X101311600Y-125241437D01*
X101174089Y-125298396D01*
X101050333Y-125381087D01*
X100945087Y-125486333D01*
X100862396Y-125610089D01*
X100805437Y-125747600D01*
X100776400Y-125893580D01*
X83437600Y-125893580D01*
X83437600Y-122918859D01*
X84519400Y-122918859D01*
X84519400Y-123156341D01*
X84565731Y-123389260D01*
X84656611Y-123608666D01*
X84788550Y-123806125D01*
X84956475Y-123974050D01*
X85153934Y-124105989D01*
X85373340Y-124196869D01*
X85606259Y-124243200D01*
X85843741Y-124243200D01*
X86076660Y-124196869D01*
X86296066Y-124105989D01*
X86493525Y-123974050D01*
X86661450Y-123806125D01*
X86793389Y-123608666D01*
X86884269Y-123389260D01*
X86930600Y-123156341D01*
X86930600Y-122918859D01*
X86884269Y-122685940D01*
X86793389Y-122466534D01*
X86661450Y-122269075D01*
X86493525Y-122101150D01*
X86296066Y-121969211D01*
X86076660Y-121878331D01*
X85843741Y-121832000D01*
X85606259Y-121832000D01*
X85373340Y-121878331D01*
X85153934Y-121969211D01*
X84956475Y-122101150D01*
X84788550Y-122269075D01*
X84656611Y-122466534D01*
X84565731Y-122685940D01*
X84519400Y-122918859D01*
X83437600Y-122918859D01*
X83437600Y-120378859D01*
X84519400Y-120378859D01*
X84519400Y-120616341D01*
X84565731Y-120849260D01*
X84656611Y-121068666D01*
X84788550Y-121266125D01*
X84956475Y-121434050D01*
X85153934Y-121565989D01*
X85373340Y-121656869D01*
X85606259Y-121703200D01*
X85843741Y-121703200D01*
X86076660Y-121656869D01*
X86296066Y-121565989D01*
X86493525Y-121434050D01*
X86599381Y-121328194D01*
X88531700Y-121328194D01*
X88531700Y-121495806D01*
X88564400Y-121660198D01*
X88628542Y-121815052D01*
X88721663Y-121954417D01*
X88840183Y-122072937D01*
X88979548Y-122166058D01*
X89134402Y-122230200D01*
X89298794Y-122262900D01*
X89466406Y-122262900D01*
X89630798Y-122230200D01*
X89670992Y-122213551D01*
X89668400Y-122226580D01*
X89668400Y-122375420D01*
X89697437Y-122521400D01*
X89754396Y-122658911D01*
X89837087Y-122782667D01*
X89942333Y-122887913D01*
X90066089Y-122970604D01*
X90203600Y-123027563D01*
X90349580Y-123056600D01*
X90498420Y-123056600D01*
X90644400Y-123027563D01*
X90781911Y-122970604D01*
X90905667Y-122887913D01*
X91010913Y-122782667D01*
X91093604Y-122658911D01*
X91150563Y-122521400D01*
X91179600Y-122375420D01*
X91179600Y-122232825D01*
X91330794Y-122262900D01*
X91498406Y-122262900D01*
X91662798Y-122230200D01*
X91817652Y-122166058D01*
X91957017Y-122072937D01*
X92075537Y-121954417D01*
X92168658Y-121815052D01*
X92232800Y-121660198D01*
X92265500Y-121495806D01*
X92265500Y-121328194D01*
X92237053Y-121185180D01*
X111487000Y-121185180D01*
X111487000Y-121334020D01*
X111516037Y-121480000D01*
X111572996Y-121617511D01*
X111655687Y-121741267D01*
X111760933Y-121846513D01*
X111884689Y-121929204D01*
X112022200Y-121986163D01*
X112168180Y-122015200D01*
X112317020Y-122015200D01*
X112463000Y-121986163D01*
X112600511Y-121929204D01*
X112724267Y-121846513D01*
X112829513Y-121741267D01*
X112912204Y-121617511D01*
X112922944Y-121591580D01*
X114496900Y-121591580D01*
X114496900Y-121740420D01*
X114525937Y-121886400D01*
X114582896Y-122023911D01*
X114665587Y-122147667D01*
X114770833Y-122252913D01*
X114894589Y-122335604D01*
X115032100Y-122392563D01*
X115178080Y-122421600D01*
X115326920Y-122421600D01*
X115472900Y-122392563D01*
X115610411Y-122335604D01*
X115734167Y-122252913D01*
X115839413Y-122147667D01*
X115922104Y-122023911D01*
X115979063Y-121886400D01*
X116008100Y-121740420D01*
X116008100Y-121591580D01*
X115979063Y-121445600D01*
X115922104Y-121308089D01*
X115839413Y-121184333D01*
X115734167Y-121079087D01*
X115610411Y-120996396D01*
X115472900Y-120939437D01*
X115326920Y-120910400D01*
X115178080Y-120910400D01*
X115032100Y-120939437D01*
X114894589Y-120996396D01*
X114770833Y-121079087D01*
X114665587Y-121184333D01*
X114582896Y-121308089D01*
X114525937Y-121445600D01*
X114496900Y-121591580D01*
X112922944Y-121591580D01*
X112969163Y-121480000D01*
X112998200Y-121334020D01*
X112998200Y-121185180D01*
X112969163Y-121039200D01*
X112912204Y-120901689D01*
X112829513Y-120777933D01*
X112724267Y-120672687D01*
X112600511Y-120589996D01*
X112463000Y-120533037D01*
X112317020Y-120504000D01*
X112168180Y-120504000D01*
X112022200Y-120533037D01*
X111884689Y-120589996D01*
X111760933Y-120672687D01*
X111655687Y-120777933D01*
X111572996Y-120901689D01*
X111516037Y-121039200D01*
X111487000Y-121185180D01*
X92237053Y-121185180D01*
X92232800Y-121163802D01*
X92168658Y-121008948D01*
X92075537Y-120869583D01*
X91957017Y-120751063D01*
X91817652Y-120657942D01*
X91662798Y-120593800D01*
X91498406Y-120561100D01*
X91330794Y-120561100D01*
X91166402Y-120593800D01*
X91011548Y-120657942D01*
X90872183Y-120751063D01*
X90753663Y-120869583D01*
X90660542Y-121008948D01*
X90596400Y-121163802D01*
X90563700Y-121328194D01*
X90563700Y-121495806D01*
X90576661Y-121560963D01*
X90498420Y-121545400D01*
X90349580Y-121545400D01*
X90218447Y-121571484D01*
X90233500Y-121495806D01*
X90233500Y-121328194D01*
X90200800Y-121163802D01*
X90136658Y-121008948D01*
X90043537Y-120869583D01*
X89925017Y-120751063D01*
X89785652Y-120657942D01*
X89630798Y-120593800D01*
X89466406Y-120561100D01*
X89298794Y-120561100D01*
X89134402Y-120593800D01*
X88979548Y-120657942D01*
X88840183Y-120751063D01*
X88721663Y-120869583D01*
X88628542Y-121008948D01*
X88564400Y-121163802D01*
X88531700Y-121328194D01*
X86599381Y-121328194D01*
X86661450Y-121266125D01*
X86793389Y-121068666D01*
X86884269Y-120849260D01*
X86930600Y-120616341D01*
X86930600Y-120378859D01*
X86884269Y-120145940D01*
X86851812Y-120067580D01*
X103892400Y-120067580D01*
X103892400Y-120216420D01*
X103921437Y-120362400D01*
X103978396Y-120499911D01*
X104061087Y-120623667D01*
X104166333Y-120728913D01*
X104290089Y-120811604D01*
X104427600Y-120868563D01*
X104573580Y-120897600D01*
X104722420Y-120897600D01*
X104868400Y-120868563D01*
X105005911Y-120811604D01*
X105129667Y-120728913D01*
X105234913Y-120623667D01*
X105317604Y-120499911D01*
X105374563Y-120362400D01*
X105403600Y-120216420D01*
X105403600Y-120067580D01*
X105378335Y-119940562D01*
X110217000Y-119940562D01*
X110217000Y-120089402D01*
X110246037Y-120235382D01*
X110302996Y-120372893D01*
X110385687Y-120496649D01*
X110490933Y-120601895D01*
X110614689Y-120684586D01*
X110752200Y-120741545D01*
X110898180Y-120770582D01*
X111047020Y-120770582D01*
X111193000Y-120741545D01*
X111330511Y-120684586D01*
X111454267Y-120601895D01*
X111559513Y-120496649D01*
X111580940Y-120464580D01*
X115941400Y-120464580D01*
X115941400Y-120613420D01*
X115970437Y-120759400D01*
X116027396Y-120896911D01*
X116110087Y-121020667D01*
X116215333Y-121125913D01*
X116339089Y-121208604D01*
X116476600Y-121265563D01*
X116622580Y-121294600D01*
X116771420Y-121294600D01*
X116917400Y-121265563D01*
X117054911Y-121208604D01*
X117178667Y-121125913D01*
X117283913Y-121020667D01*
X117366604Y-120896911D01*
X117423563Y-120759400D01*
X117452600Y-120613420D01*
X117452600Y-120464580D01*
X117423563Y-120318600D01*
X117366604Y-120181089D01*
X117283913Y-120057333D01*
X117178667Y-119952087D01*
X117054911Y-119869396D01*
X116917400Y-119812437D01*
X116771420Y-119783400D01*
X116622580Y-119783400D01*
X116476600Y-119812437D01*
X116339089Y-119869396D01*
X116215333Y-119952087D01*
X116110087Y-120057333D01*
X116027396Y-120181089D01*
X115970437Y-120318600D01*
X115941400Y-120464580D01*
X111580940Y-120464580D01*
X111642204Y-120372893D01*
X111699163Y-120235382D01*
X111728200Y-120089402D01*
X111728200Y-119940562D01*
X111699163Y-119794582D01*
X111642204Y-119657071D01*
X111559513Y-119533315D01*
X111454267Y-119428069D01*
X111330511Y-119345378D01*
X111193000Y-119288419D01*
X111047020Y-119259382D01*
X110898180Y-119259382D01*
X110752200Y-119288419D01*
X110614689Y-119345378D01*
X110490933Y-119428069D01*
X110385687Y-119533315D01*
X110302996Y-119657071D01*
X110246037Y-119794582D01*
X110217000Y-119940562D01*
X105378335Y-119940562D01*
X105374563Y-119921600D01*
X105317604Y-119784089D01*
X105234913Y-119660333D01*
X105129667Y-119555087D01*
X105005911Y-119472396D01*
X104868400Y-119415437D01*
X104722420Y-119386400D01*
X104573580Y-119386400D01*
X104427600Y-119415437D01*
X104290089Y-119472396D01*
X104166333Y-119555087D01*
X104061087Y-119660333D01*
X103978396Y-119784089D01*
X103921437Y-119921600D01*
X103892400Y-120067580D01*
X86851812Y-120067580D01*
X86793389Y-119926534D01*
X86661450Y-119729075D01*
X86493525Y-119561150D01*
X86296066Y-119429211D01*
X86076660Y-119338331D01*
X85843741Y-119292000D01*
X85606259Y-119292000D01*
X85373340Y-119338331D01*
X85153934Y-119429211D01*
X84956475Y-119561150D01*
X84788550Y-119729075D01*
X84656611Y-119926534D01*
X84565731Y-120145940D01*
X84519400Y-120378859D01*
X83437600Y-120378859D01*
X83437600Y-117838859D01*
X84519400Y-117838859D01*
X84519400Y-118076341D01*
X84565731Y-118309260D01*
X84656611Y-118528666D01*
X84788550Y-118726125D01*
X84956475Y-118894050D01*
X85153934Y-119025989D01*
X85373340Y-119116869D01*
X85606259Y-119163200D01*
X85843741Y-119163200D01*
X86076660Y-119116869D01*
X86296066Y-119025989D01*
X86493525Y-118894050D01*
X86589995Y-118797580D01*
X91446400Y-118797580D01*
X91446400Y-118946420D01*
X91475437Y-119092400D01*
X91532396Y-119229911D01*
X91615087Y-119353667D01*
X91720333Y-119458913D01*
X91844089Y-119541604D01*
X91981600Y-119598563D01*
X92127580Y-119627600D01*
X92276420Y-119627600D01*
X92422400Y-119598563D01*
X92559911Y-119541604D01*
X92683667Y-119458913D01*
X92788913Y-119353667D01*
X92871604Y-119229911D01*
X92928563Y-119092400D01*
X92957600Y-118946420D01*
X92957600Y-118797580D01*
X92928563Y-118651600D01*
X92871604Y-118514089D01*
X92788913Y-118390333D01*
X92712281Y-118313701D01*
X92813911Y-118271604D01*
X92937667Y-118188913D01*
X93042913Y-118083667D01*
X93125604Y-117959911D01*
X93182563Y-117822400D01*
X93211600Y-117676420D01*
X93211600Y-117527580D01*
X93182563Y-117381600D01*
X93125604Y-117244089D01*
X93042913Y-117120333D01*
X92937667Y-117015087D01*
X92813911Y-116932396D01*
X92676400Y-116875437D01*
X92530420Y-116846400D01*
X92381580Y-116846400D01*
X92235600Y-116875437D01*
X92098089Y-116932396D01*
X91974333Y-117015087D01*
X91869087Y-117120333D01*
X91786396Y-117244089D01*
X91729437Y-117381600D01*
X91700400Y-117527580D01*
X91700400Y-117676420D01*
X91729437Y-117822400D01*
X91786396Y-117959911D01*
X91869087Y-118083667D01*
X91945719Y-118160299D01*
X91844089Y-118202396D01*
X91720333Y-118285087D01*
X91615087Y-118390333D01*
X91532396Y-118514089D01*
X91475437Y-118651600D01*
X91446400Y-118797580D01*
X86589995Y-118797580D01*
X86661450Y-118726125D01*
X86793389Y-118528666D01*
X86884269Y-118309260D01*
X86930600Y-118076341D01*
X86930600Y-117838859D01*
X86884269Y-117605940D01*
X86793389Y-117386534D01*
X86661450Y-117189075D01*
X86493525Y-117021150D01*
X86296066Y-116889211D01*
X86076660Y-116798331D01*
X85843741Y-116752000D01*
X85606259Y-116752000D01*
X85373340Y-116798331D01*
X85153934Y-116889211D01*
X84956475Y-117021150D01*
X84788550Y-117189075D01*
X84656611Y-117386534D01*
X84565731Y-117605940D01*
X84519400Y-117838859D01*
X83437600Y-117838859D01*
X83437600Y-115639191D01*
X84488296Y-115639191D01*
X84497634Y-115686144D01*
X84573608Y-115920431D01*
X84693829Y-116135395D01*
X84853677Y-116322774D01*
X85047010Y-116475368D01*
X85266398Y-116587312D01*
X85503409Y-116654305D01*
X85699600Y-116572144D01*
X85699600Y-115443000D01*
X85750400Y-115443000D01*
X85750400Y-116572144D01*
X85946591Y-116654305D01*
X86183602Y-116587312D01*
X86402990Y-116475368D01*
X86596323Y-116322774D01*
X86659945Y-116248194D01*
X89547700Y-116248194D01*
X89547700Y-116415806D01*
X89580400Y-116580198D01*
X89644542Y-116735052D01*
X89737663Y-116874417D01*
X89856183Y-116992937D01*
X89995548Y-117086058D01*
X90150402Y-117150200D01*
X90314794Y-117182900D01*
X90482406Y-117182900D01*
X90646798Y-117150200D01*
X90801652Y-117086058D01*
X90941017Y-116992937D01*
X91059537Y-116874417D01*
X91152658Y-116735052D01*
X91216800Y-116580198D01*
X91249500Y-116415806D01*
X91249500Y-116248194D01*
X91216800Y-116083802D01*
X91152658Y-115928948D01*
X91059537Y-115789583D01*
X90941017Y-115671063D01*
X90801652Y-115577942D01*
X90646798Y-115513800D01*
X90482406Y-115481100D01*
X90314794Y-115481100D01*
X90150402Y-115513800D01*
X89995548Y-115577942D01*
X89856183Y-115671063D01*
X89737663Y-115789583D01*
X89644542Y-115928948D01*
X89580400Y-116083802D01*
X89547700Y-116248194D01*
X86659945Y-116248194D01*
X86756171Y-116135395D01*
X86876392Y-115920431D01*
X86952366Y-115686144D01*
X86961704Y-115639191D01*
X86879521Y-115443000D01*
X85750400Y-115443000D01*
X85699600Y-115443000D01*
X84570479Y-115443000D01*
X84488296Y-115639191D01*
X83437600Y-115639191D01*
X83437600Y-115036600D01*
X84534101Y-115036600D01*
X84497634Y-115149056D01*
G37*
G04 #@! TD.AperFunction*
M02*
