G04 #@! TF.GenerationSoftware,KiCad,Pcbnew,(5.1.5-0-10_14)*
G04 #@! TF.CreationDate,2020-12-13T17:31:02+01:00*
G04 #@! TF.ProjectId,ithowifi,6974686f-7769-4666-992e-6b696361645f,rev?*
G04 #@! TF.SameCoordinates,Original*
G04 #@! TF.FileFunction,Copper,L2,Bot*
G04 #@! TF.FilePolarity,Positive*
%FSLAX46Y46*%
G04 Gerber Fmt 4.6, Leading zero omitted, Abs format (unit mm)*
G04 Created by KiCad (PCBNEW (5.1.5-0-10_14)) date 2020-12-13 17:31:02*
%MOMM*%
%LPD*%
G04 APERTURE LIST*
%ADD10O,1.700000X1.700000*%
%ADD11R,1.700000X1.700000*%
%ADD12C,1.500000*%
%ADD13R,1.500000X5.080000*%
%ADD14C,1.750000*%
%ADD15O,1.300000X1.750000*%
%ADD16O,1.500000X2.300000*%
%ADD17R,1.500000X2.300000*%
%ADD18C,0.800000*%
%ADD19C,0.406400*%
%ADD20C,0.254000*%
%ADD21C,0.250000*%
%ADD22C,1.016000*%
%ADD23C,1.473200*%
%ADD24C,0.203200*%
G04 APERTURE END LIST*
D10*
X89611200Y-112877600D03*
X89611200Y-115417600D03*
X89611200Y-117957600D03*
D11*
X89611200Y-120497600D03*
D12*
X101498400Y-109347000D03*
X96164400Y-140944600D03*
X94208600Y-142849600D03*
X98044000Y-142849600D03*
X98044000Y-138988800D03*
X94208600Y-138988800D03*
D10*
X85725000Y-123037600D03*
X85725000Y-120497600D03*
X85725000Y-117957600D03*
X85725000Y-115417600D03*
X85725000Y-112877600D03*
X85725000Y-110337600D03*
D11*
X85725000Y-107797600D03*
D13*
X97248400Y-107848400D03*
X105748400Y-107848400D03*
X101498400Y-107848400D03*
D14*
X103989000Y-112039000D03*
X101489000Y-112039000D03*
X98989000Y-112039000D03*
D15*
X95489000Y-131039000D03*
X97489000Y-131039000D03*
X99489000Y-131039000D03*
X101489000Y-131039000D03*
X103489000Y-131039000D03*
X105489000Y-131039000D03*
X107489000Y-131039000D03*
X109489000Y-131039000D03*
D16*
X116179600Y-142951200D03*
X118719600Y-142951200D03*
D17*
X121259600Y-142951200D03*
D11*
X122047000Y-137795000D03*
D10*
X119507000Y-137795000D03*
X122047000Y-135255000D03*
X119507000Y-135255000D03*
X122047000Y-132715000D03*
X119507000Y-132715000D03*
X122047000Y-130175000D03*
X119507000Y-130175000D03*
D18*
X95504000Y-105918000D03*
X95504000Y-107442000D03*
X95504000Y-109220000D03*
X95504000Y-110998000D03*
X95504000Y-113030000D03*
X96774000Y-112014000D03*
X94234000Y-106680000D03*
X94234000Y-108458000D03*
X94234000Y-109982000D03*
X94234000Y-112014000D03*
X107442000Y-105918000D03*
X107442000Y-107442000D03*
X107442000Y-109220000D03*
X107442000Y-110998000D03*
X107442000Y-113030000D03*
X105918000Y-112014000D03*
X108712000Y-109982000D03*
X108712000Y-108204000D03*
X108712000Y-106680000D03*
X97282000Y-114046000D03*
X99314000Y-114046000D03*
X101600000Y-114046000D03*
X100584000Y-115570000D03*
X98298000Y-115570000D03*
X103886000Y-114046000D03*
X102870000Y-115570000D03*
X106172000Y-114046000D03*
X108712000Y-112014000D03*
X104902000Y-115189000D03*
X120600000Y-126450000D03*
X115646200Y-133527802D03*
X123190000Y-118364000D03*
X118872000Y-118364000D03*
X110947200Y-131038600D03*
X110947192Y-116027200D03*
X105105200Y-129082800D03*
X111887000Y-122428000D03*
X98298000Y-146100800D03*
X113284000Y-124841000D03*
X100965000Y-145161000D03*
X93395800Y-128447800D03*
X89230200Y-134645400D03*
X109982000Y-121158000D03*
X106426000Y-121158000D03*
X100711000Y-121158000D03*
X89738201Y-123037601D03*
X93268801Y-121158000D03*
X93649798Y-114071400D03*
X96520000Y-119761000D03*
X91541600Y-126415800D03*
X85090000Y-143408400D03*
X84505800Y-144830800D03*
X102362000Y-135636000D03*
X96570800Y-135331200D03*
X90246200Y-137109200D03*
X95478600Y-132892800D03*
X92633800Y-133832600D03*
X98399600Y-125171200D03*
D19*
X115646200Y-131403800D02*
X115646200Y-133527802D01*
X120600000Y-126450000D02*
X115646200Y-131403800D01*
X118872000Y-118364000D02*
X123190000Y-118364000D01*
X122021600Y-118364000D02*
X121615200Y-118364000D01*
X109489000Y-131039000D02*
X110946800Y-131039000D01*
X110946800Y-131039000D02*
X110947200Y-131038600D01*
X118872000Y-118364000D02*
X110947200Y-118364000D01*
X110947200Y-118364000D02*
X110947192Y-118363992D01*
X110947192Y-118363992D02*
X110947192Y-116592885D01*
X110947192Y-116592885D02*
X110947192Y-116027200D01*
D20*
X110947200Y-126441200D02*
X110921800Y-126415800D01*
D19*
X110947200Y-118364000D02*
X110947200Y-126441200D01*
X110947200Y-126441200D02*
X110947200Y-131038600D01*
D21*
X109489000Y-129428000D02*
X109489000Y-131039000D01*
X109143800Y-129082800D02*
X109489000Y-129428000D01*
X105105200Y-129082800D02*
X109143800Y-129082800D01*
D20*
X111887000Y-132511800D02*
X98697999Y-145700801D01*
X98697999Y-145700801D02*
X98298000Y-146100800D01*
X111887000Y-122428000D02*
X111887000Y-132511800D01*
X113284000Y-132842000D02*
X101364999Y-144761001D01*
X113284000Y-124841000D02*
X113284000Y-132842000D01*
X101364999Y-144761001D02*
X100965000Y-145161000D01*
X93395800Y-128447800D02*
X93395800Y-130530600D01*
X89281000Y-134645400D02*
X89230200Y-134645400D01*
X93395800Y-130530600D02*
X89281000Y-134645400D01*
D22*
X101509200Y-109281600D02*
X101498400Y-109270800D01*
X101489000Y-107857800D02*
X101498400Y-107848400D01*
D23*
X101498400Y-112029600D02*
X101489000Y-112039000D01*
X101498400Y-107848400D02*
X101498400Y-112029600D01*
D20*
X109982000Y-121158000D02*
X106426000Y-121158000D01*
X85725000Y-123037600D02*
X89172516Y-123037601D01*
X89172516Y-123037601D02*
X89738201Y-123037601D01*
X100711000Y-121158000D02*
X93268801Y-121158000D01*
X96520000Y-116941602D02*
X96520000Y-119761000D01*
X93649798Y-114071400D02*
X96520000Y-116941602D01*
X91541600Y-118541800D02*
X91541600Y-126415800D01*
X90957400Y-117957600D02*
X91541600Y-118541800D01*
X89611200Y-117957600D02*
X90957400Y-117957600D01*
D21*
X85090000Y-143408400D02*
X84498611Y-142817011D01*
X84498611Y-142817011D02*
X84498611Y-114103989D01*
X84875001Y-113727599D02*
X85725000Y-112877600D01*
X84498611Y-114103989D02*
X84875001Y-113727599D01*
X84105801Y-144430801D02*
X84505800Y-144830800D01*
X84048600Y-144373600D02*
X84105801Y-144430801D01*
X84048600Y-112014000D02*
X84048600Y-144373600D01*
X85725000Y-110337600D02*
X84048600Y-112014000D01*
D20*
X102761999Y-135236001D02*
X102362000Y-135636000D01*
X105489000Y-131039000D02*
X105489000Y-132509000D01*
X105489000Y-132509000D02*
X102761999Y-135236001D01*
X101489000Y-131039000D02*
X101489000Y-132168000D01*
X98325800Y-135331200D02*
X97136485Y-135331200D01*
X97136485Y-135331200D02*
X96570800Y-135331200D01*
X101489000Y-132168000D02*
X98325800Y-135331200D01*
X103489000Y-131039000D02*
X103489000Y-132168000D01*
X103489000Y-132168000D02*
X98547800Y-137109200D01*
X98547800Y-137109200D02*
X90811885Y-137109200D01*
X90811885Y-137109200D02*
X90246200Y-137109200D01*
X95478600Y-131049400D02*
X95489000Y-131039000D01*
X95478600Y-132892800D02*
X95478600Y-131049400D01*
X99489000Y-131039000D02*
X99489000Y-132168000D01*
X99489000Y-132168000D02*
X97824400Y-133832600D01*
X97824400Y-133832600D02*
X93199485Y-133832600D01*
X93199485Y-133832600D02*
X92633800Y-133832600D01*
X89636600Y-115443000D02*
X89611200Y-115417600D01*
X91109800Y-115443000D02*
X89636600Y-115443000D01*
X91995611Y-124152011D02*
X91995611Y-116328811D01*
X93014800Y-125171200D02*
X91995611Y-124152011D01*
X91995611Y-116328811D02*
X91109800Y-115443000D01*
X98399600Y-125171200D02*
X93014800Y-125171200D01*
D24*
G36*
X96041200Y-107708700D02*
G01*
X96155500Y-107823000D01*
X97223000Y-107823000D01*
X97223000Y-107803000D01*
X97273800Y-107803000D01*
X97273800Y-107823000D01*
X97293800Y-107823000D01*
X97293800Y-107873800D01*
X97273800Y-107873800D01*
X97273800Y-110731300D01*
X97307400Y-110764900D01*
X97307400Y-110896400D01*
X97309352Y-110916221D01*
X97315134Y-110935281D01*
X97324523Y-110952846D01*
X97337158Y-110968242D01*
X97352554Y-110980877D01*
X97370119Y-110990266D01*
X97389179Y-110996048D01*
X97409000Y-110998000D01*
X98201285Y-110998000D01*
X98141403Y-111155482D01*
X98989000Y-112003079D01*
X99003143Y-111988937D01*
X99009200Y-111994994D01*
X99009200Y-112014000D01*
X99011152Y-112033821D01*
X99016934Y-112052881D01*
X99026323Y-112070446D01*
X99038958Y-112085842D01*
X99054354Y-112098477D01*
X99071919Y-112107866D01*
X99090979Y-112113648D01*
X99100507Y-112114586D01*
X99872518Y-112886597D01*
X100086722Y-112805146D01*
X100215098Y-112576270D01*
X100293358Y-112335948D01*
X100305692Y-112397953D01*
X100398457Y-112621908D01*
X100533131Y-112823462D01*
X100704538Y-112994869D01*
X100906092Y-113129543D01*
X101130047Y-113222308D01*
X101367797Y-113269600D01*
X101610203Y-113269600D01*
X101847953Y-113222308D01*
X102071908Y-113129543D01*
X102273462Y-112994869D01*
X102345813Y-112922518D01*
X103141403Y-112922518D01*
X103222854Y-113136722D01*
X103451730Y-113265098D01*
X103701254Y-113346355D01*
X103961834Y-113377371D01*
X104223460Y-113356954D01*
X104476074Y-113285889D01*
X104709971Y-113166907D01*
X104755146Y-113136722D01*
X104836597Y-112922518D01*
X103989000Y-112074921D01*
X103141403Y-112922518D01*
X102345813Y-112922518D01*
X102444869Y-112823462D01*
X102579543Y-112621908D01*
X102672308Y-112397953D01*
X102686292Y-112327653D01*
X102742111Y-112526074D01*
X102861093Y-112759971D01*
X102891278Y-112805146D01*
X103105482Y-112886597D01*
X103876479Y-112115600D01*
X103886000Y-112115600D01*
X103905821Y-112113648D01*
X103924881Y-112107866D01*
X103942446Y-112098477D01*
X103957842Y-112085842D01*
X103970477Y-112070446D01*
X103979866Y-112052881D01*
X103984076Y-112039000D01*
X104024921Y-112039000D01*
X104872518Y-112886597D01*
X105086722Y-112805146D01*
X105215098Y-112576270D01*
X105296355Y-112326746D01*
X105327371Y-112066166D01*
X105306954Y-111804540D01*
X105235889Y-111551926D01*
X105116907Y-111318029D01*
X105086722Y-111272854D01*
X104872518Y-111191403D01*
X104024921Y-112039000D01*
X103984076Y-112039000D01*
X103985648Y-112033821D01*
X103987600Y-112014000D01*
X103987600Y-112001679D01*
X103989000Y-112003079D01*
X104836597Y-111155482D01*
X104776715Y-110998000D01*
X105537000Y-110998000D01*
X105556821Y-110996048D01*
X105575881Y-110990266D01*
X105593446Y-110980877D01*
X105608842Y-110968242D01*
X105621477Y-110952846D01*
X105630866Y-110935281D01*
X105636648Y-110916221D01*
X105638600Y-110896400D01*
X105638600Y-110815700D01*
X105723000Y-110731300D01*
X105723000Y-107873800D01*
X105773800Y-107873800D01*
X105773800Y-110731300D01*
X105888100Y-110845600D01*
X106498400Y-110847812D01*
X106588027Y-110838985D01*
X106674209Y-110812841D01*
X106753636Y-110770387D01*
X106823253Y-110713253D01*
X106880387Y-110643636D01*
X106922841Y-110564209D01*
X106948985Y-110478027D01*
X106957812Y-110388400D01*
X106955600Y-107988100D01*
X106841300Y-107873800D01*
X105773800Y-107873800D01*
X105723000Y-107873800D01*
X105703000Y-107873800D01*
X105703000Y-107823000D01*
X105723000Y-107823000D01*
X105723000Y-107803000D01*
X105773800Y-107803000D01*
X105773800Y-107823000D01*
X106841300Y-107823000D01*
X106955600Y-107708700D01*
X106957686Y-105444600D01*
X123296669Y-105444600D01*
X123630576Y-105477340D01*
X123932201Y-105568405D01*
X124210401Y-105716327D01*
X124454565Y-105915462D01*
X124655403Y-106158235D01*
X124805262Y-106435392D01*
X124898434Y-106736383D01*
X124933400Y-107069066D01*
X124933401Y-148696668D01*
X124912755Y-148907233D01*
X124857507Y-149090223D01*
X124767771Y-149258993D01*
X124646958Y-149407124D01*
X124499676Y-149528965D01*
X124331535Y-149619880D01*
X124148933Y-149676404D01*
X123939652Y-149698400D01*
X85110322Y-149698400D01*
X84776424Y-149665660D01*
X84474797Y-149574594D01*
X84196601Y-149426674D01*
X83952435Y-149227538D01*
X83751597Y-148984765D01*
X83601738Y-148707607D01*
X83508566Y-148406619D01*
X83473600Y-148073934D01*
X83473600Y-146026380D01*
X97542400Y-146026380D01*
X97542400Y-146175220D01*
X97571437Y-146321200D01*
X97628396Y-146458711D01*
X97711087Y-146582467D01*
X97816333Y-146687713D01*
X97940089Y-146770404D01*
X98077600Y-146827363D01*
X98223580Y-146856400D01*
X98372420Y-146856400D01*
X98518400Y-146827363D01*
X98655911Y-146770404D01*
X98779667Y-146687713D01*
X98884913Y-146582467D01*
X98967604Y-146458711D01*
X99024563Y-146321200D01*
X99053600Y-146175220D01*
X99053600Y-146027700D01*
X99056012Y-146025288D01*
X99056017Y-146025282D01*
X100330003Y-144751297D01*
X100295396Y-144803089D01*
X100238437Y-144940600D01*
X100209400Y-145086580D01*
X100209400Y-145235420D01*
X100238437Y-145381400D01*
X100295396Y-145518911D01*
X100378087Y-145642667D01*
X100483333Y-145747913D01*
X100607089Y-145830604D01*
X100744600Y-145887563D01*
X100890580Y-145916600D01*
X101039420Y-145916600D01*
X101185400Y-145887563D01*
X101322911Y-145830604D01*
X101446667Y-145747913D01*
X101551913Y-145642667D01*
X101634604Y-145518911D01*
X101691563Y-145381400D01*
X101720600Y-145235420D01*
X101720600Y-145087900D01*
X101723012Y-145085488D01*
X101723017Y-145085482D01*
X104311607Y-142496892D01*
X115074000Y-142496892D01*
X115074000Y-143405507D01*
X115089998Y-143567934D01*
X115153217Y-143776341D01*
X115255880Y-143968410D01*
X115394040Y-144136760D01*
X115562390Y-144274920D01*
X115754458Y-144377583D01*
X115962865Y-144440802D01*
X116179600Y-144462149D01*
X116396334Y-144440802D01*
X116604741Y-144377583D01*
X116796810Y-144274920D01*
X116965160Y-144136760D01*
X117103320Y-143968410D01*
X117205983Y-143776342D01*
X117269202Y-143567935D01*
X117285200Y-143405508D01*
X117285200Y-142976600D01*
X117512400Y-142976600D01*
X117512400Y-143376600D01*
X117540551Y-143611625D01*
X117614012Y-143836642D01*
X117729961Y-144043004D01*
X117883941Y-144222780D01*
X118070035Y-144369062D01*
X118281091Y-144476228D01*
X118505707Y-144539300D01*
X118694200Y-144443805D01*
X118694200Y-142976600D01*
X118745000Y-142976600D01*
X118745000Y-144443805D01*
X118933493Y-144539300D01*
X119158109Y-144476228D01*
X119369165Y-144369062D01*
X119555259Y-144222780D01*
X119709239Y-144043004D01*
X119825188Y-143836642D01*
X119898649Y-143611625D01*
X119926800Y-143376600D01*
X119926800Y-142976600D01*
X118745000Y-142976600D01*
X118694200Y-142976600D01*
X117512400Y-142976600D01*
X117285200Y-142976600D01*
X117285200Y-142525800D01*
X117512400Y-142525800D01*
X117512400Y-142925800D01*
X118694200Y-142925800D01*
X118694200Y-141458595D01*
X118745000Y-141458595D01*
X118745000Y-142925800D01*
X119926800Y-142925800D01*
X119926800Y-142525800D01*
X119898649Y-142290775D01*
X119825188Y-142065758D01*
X119709239Y-141859396D01*
X119659394Y-141801200D01*
X120152280Y-141801200D01*
X120152280Y-144101200D01*
X120159146Y-144170910D01*
X120179479Y-144237940D01*
X120212499Y-144299716D01*
X120256937Y-144353863D01*
X120311084Y-144398301D01*
X120372860Y-144431321D01*
X120439890Y-144451654D01*
X120509600Y-144458520D01*
X122009600Y-144458520D01*
X122079310Y-144451654D01*
X122146340Y-144431321D01*
X122208116Y-144398301D01*
X122262263Y-144353863D01*
X122306701Y-144299716D01*
X122339721Y-144237940D01*
X122360054Y-144170910D01*
X122366920Y-144101200D01*
X122366920Y-141801200D01*
X122360054Y-141731490D01*
X122339721Y-141664460D01*
X122306701Y-141602684D01*
X122262263Y-141548537D01*
X122208116Y-141504099D01*
X122146340Y-141471079D01*
X122079310Y-141450746D01*
X122009600Y-141443880D01*
X120509600Y-141443880D01*
X120439890Y-141450746D01*
X120372860Y-141471079D01*
X120311084Y-141504099D01*
X120256937Y-141548537D01*
X120212499Y-141602684D01*
X120179479Y-141664460D01*
X120159146Y-141731490D01*
X120152280Y-141801200D01*
X119659394Y-141801200D01*
X119555259Y-141679620D01*
X119369165Y-141533338D01*
X119158109Y-141426172D01*
X118933493Y-141363100D01*
X118745000Y-141458595D01*
X118694200Y-141458595D01*
X118505707Y-141363100D01*
X118281091Y-141426172D01*
X118070035Y-141533338D01*
X117883941Y-141679620D01*
X117729961Y-141859396D01*
X117614012Y-142065758D01*
X117540551Y-142290775D01*
X117512400Y-142525800D01*
X117285200Y-142525800D01*
X117285200Y-142496893D01*
X117269202Y-142334466D01*
X117205983Y-142126058D01*
X117103320Y-141933990D01*
X116965160Y-141765640D01*
X116796810Y-141627480D01*
X116604742Y-141524817D01*
X116396335Y-141461598D01*
X116179600Y-141440251D01*
X115962866Y-141461598D01*
X115754459Y-141524817D01*
X115562391Y-141627480D01*
X115394041Y-141765640D01*
X115255881Y-141933990D01*
X115153218Y-142126058D01*
X115089998Y-142334465D01*
X115074000Y-142496892D01*
X104311607Y-142496892D01*
X109132240Y-137676259D01*
X118301400Y-137676259D01*
X118301400Y-137913741D01*
X118347731Y-138146660D01*
X118438611Y-138366066D01*
X118570550Y-138563525D01*
X118738475Y-138731450D01*
X118935934Y-138863389D01*
X119155340Y-138954269D01*
X119388259Y-139000600D01*
X119625741Y-139000600D01*
X119858660Y-138954269D01*
X120078066Y-138863389D01*
X120275525Y-138731450D01*
X120443450Y-138563525D01*
X120575389Y-138366066D01*
X120666269Y-138146660D01*
X120712600Y-137913741D01*
X120712600Y-137676259D01*
X120666269Y-137443340D01*
X120575389Y-137223934D01*
X120443450Y-137026475D01*
X120361975Y-136945000D01*
X120839680Y-136945000D01*
X120839680Y-138645000D01*
X120846546Y-138714710D01*
X120866879Y-138781740D01*
X120899899Y-138843516D01*
X120944337Y-138897663D01*
X120998484Y-138942101D01*
X121060260Y-138975121D01*
X121127290Y-138995454D01*
X121197000Y-139002320D01*
X122897000Y-139002320D01*
X122966710Y-138995454D01*
X123033740Y-138975121D01*
X123095516Y-138942101D01*
X123149663Y-138897663D01*
X123194101Y-138843516D01*
X123227121Y-138781740D01*
X123247454Y-138714710D01*
X123254320Y-138645000D01*
X123254320Y-136945000D01*
X123247454Y-136875290D01*
X123227121Y-136808260D01*
X123194101Y-136746484D01*
X123149663Y-136692337D01*
X123095516Y-136647899D01*
X123033740Y-136614879D01*
X122966710Y-136594546D01*
X122897000Y-136587680D01*
X121197000Y-136587680D01*
X121127290Y-136594546D01*
X121060260Y-136614879D01*
X120998484Y-136647899D01*
X120944337Y-136692337D01*
X120899899Y-136746484D01*
X120866879Y-136808260D01*
X120846546Y-136875290D01*
X120839680Y-136945000D01*
X120361975Y-136945000D01*
X120275525Y-136858550D01*
X120078066Y-136726611D01*
X119858660Y-136635731D01*
X119625741Y-136589400D01*
X119388259Y-136589400D01*
X119155340Y-136635731D01*
X118935934Y-136726611D01*
X118738475Y-136858550D01*
X118570550Y-137026475D01*
X118438611Y-137223934D01*
X118347731Y-137443340D01*
X118301400Y-137676259D01*
X109132240Y-137676259D01*
X111672240Y-135136259D01*
X118301400Y-135136259D01*
X118301400Y-135373741D01*
X118347731Y-135606660D01*
X118438611Y-135826066D01*
X118570550Y-136023525D01*
X118738475Y-136191450D01*
X118935934Y-136323389D01*
X119155340Y-136414269D01*
X119388259Y-136460600D01*
X119625741Y-136460600D01*
X119858660Y-136414269D01*
X120078066Y-136323389D01*
X120275525Y-136191450D01*
X120443450Y-136023525D01*
X120575389Y-135826066D01*
X120666269Y-135606660D01*
X120712600Y-135373741D01*
X120712600Y-135136259D01*
X120841400Y-135136259D01*
X120841400Y-135373741D01*
X120887731Y-135606660D01*
X120978611Y-135826066D01*
X121110550Y-136023525D01*
X121278475Y-136191450D01*
X121475934Y-136323389D01*
X121695340Y-136414269D01*
X121928259Y-136460600D01*
X122165741Y-136460600D01*
X122398660Y-136414269D01*
X122618066Y-136323389D01*
X122815525Y-136191450D01*
X122983450Y-136023525D01*
X123115389Y-135826066D01*
X123206269Y-135606660D01*
X123252600Y-135373741D01*
X123252600Y-135136259D01*
X123206269Y-134903340D01*
X123115389Y-134683934D01*
X122983450Y-134486475D01*
X122815525Y-134318550D01*
X122618066Y-134186611D01*
X122398660Y-134095731D01*
X122165741Y-134049400D01*
X121928259Y-134049400D01*
X121695340Y-134095731D01*
X121475934Y-134186611D01*
X121278475Y-134318550D01*
X121110550Y-134486475D01*
X120978611Y-134683934D01*
X120887731Y-134903340D01*
X120841400Y-135136259D01*
X120712600Y-135136259D01*
X120666269Y-134903340D01*
X120575389Y-134683934D01*
X120443450Y-134486475D01*
X120275525Y-134318550D01*
X120078066Y-134186611D01*
X119858660Y-134095731D01*
X119625741Y-134049400D01*
X119388259Y-134049400D01*
X119155340Y-134095731D01*
X118935934Y-134186611D01*
X118738475Y-134318550D01*
X118570550Y-134486475D01*
X118438611Y-134683934D01*
X118347731Y-134903340D01*
X118301400Y-135136259D01*
X111672240Y-135136259D01*
X113355117Y-133453382D01*
X114890600Y-133453382D01*
X114890600Y-133602222D01*
X114919637Y-133748202D01*
X114976596Y-133885713D01*
X115059287Y-134009469D01*
X115164533Y-134114715D01*
X115288289Y-134197406D01*
X115425800Y-134254365D01*
X115571780Y-134283402D01*
X115720620Y-134283402D01*
X115866600Y-134254365D01*
X116004111Y-134197406D01*
X116127867Y-134114715D01*
X116233113Y-134009469D01*
X116315804Y-133885713D01*
X116372763Y-133748202D01*
X116401800Y-133602222D01*
X116401800Y-133453382D01*
X116372763Y-133307402D01*
X116315804Y-133169891D01*
X116233113Y-133046135D01*
X116205000Y-133018022D01*
X116205000Y-132596259D01*
X118301400Y-132596259D01*
X118301400Y-132833741D01*
X118347731Y-133066660D01*
X118438611Y-133286066D01*
X118570550Y-133483525D01*
X118738475Y-133651450D01*
X118935934Y-133783389D01*
X119155340Y-133874269D01*
X119388259Y-133920600D01*
X119625741Y-133920600D01*
X119858660Y-133874269D01*
X120078066Y-133783389D01*
X120275525Y-133651450D01*
X120443450Y-133483525D01*
X120575389Y-133286066D01*
X120666269Y-133066660D01*
X120690560Y-132944540D01*
X120760111Y-132944540D01*
X120770227Y-132995404D01*
X120849464Y-133239102D01*
X120974722Y-133462659D01*
X121141187Y-133657484D01*
X121342461Y-133816090D01*
X121570811Y-133932382D01*
X121817460Y-134001890D01*
X122021600Y-133907654D01*
X122021600Y-132740400D01*
X122072400Y-132740400D01*
X122072400Y-133907654D01*
X122276540Y-134001890D01*
X122523189Y-133932382D01*
X122751539Y-133816090D01*
X122952813Y-133657484D01*
X123119278Y-133462659D01*
X123244536Y-133239102D01*
X123323773Y-132995404D01*
X123333889Y-132944540D01*
X123239630Y-132740400D01*
X122072400Y-132740400D01*
X122021600Y-132740400D01*
X120854370Y-132740400D01*
X120760111Y-132944540D01*
X120690560Y-132944540D01*
X120712600Y-132833741D01*
X120712600Y-132596259D01*
X120690561Y-132485460D01*
X120760111Y-132485460D01*
X120854370Y-132689600D01*
X122021600Y-132689600D01*
X122021600Y-131522346D01*
X122072400Y-131522346D01*
X122072400Y-132689600D01*
X123239630Y-132689600D01*
X123333889Y-132485460D01*
X123323773Y-132434596D01*
X123244536Y-132190898D01*
X123119278Y-131967341D01*
X122952813Y-131772516D01*
X122751539Y-131613910D01*
X122523189Y-131497618D01*
X122276540Y-131428110D01*
X122072400Y-131522346D01*
X122021600Y-131522346D01*
X121817460Y-131428110D01*
X121570811Y-131497618D01*
X121342461Y-131613910D01*
X121141187Y-131772516D01*
X120974722Y-131967341D01*
X120849464Y-132190898D01*
X120770227Y-132434596D01*
X120760111Y-132485460D01*
X120690561Y-132485460D01*
X120666269Y-132363340D01*
X120575389Y-132143934D01*
X120443450Y-131946475D01*
X120275525Y-131778550D01*
X120078066Y-131646611D01*
X119858660Y-131555731D01*
X119625741Y-131509400D01*
X119388259Y-131509400D01*
X119155340Y-131555731D01*
X118935934Y-131646611D01*
X118738475Y-131778550D01*
X118570550Y-131946475D01*
X118438611Y-132143934D01*
X118347731Y-132363340D01*
X118301400Y-132596259D01*
X116205000Y-132596259D01*
X116205000Y-131635262D01*
X117784003Y-130056259D01*
X118301400Y-130056259D01*
X118301400Y-130293741D01*
X118347731Y-130526660D01*
X118438611Y-130746066D01*
X118570550Y-130943525D01*
X118738475Y-131111450D01*
X118935934Y-131243389D01*
X119155340Y-131334269D01*
X119388259Y-131380600D01*
X119625741Y-131380600D01*
X119858660Y-131334269D01*
X120078066Y-131243389D01*
X120275525Y-131111450D01*
X120443450Y-130943525D01*
X120575389Y-130746066D01*
X120666269Y-130526660D01*
X120712600Y-130293741D01*
X120712600Y-130056259D01*
X120841400Y-130056259D01*
X120841400Y-130293741D01*
X120887731Y-130526660D01*
X120978611Y-130746066D01*
X121110550Y-130943525D01*
X121278475Y-131111450D01*
X121475934Y-131243389D01*
X121695340Y-131334269D01*
X121928259Y-131380600D01*
X122165741Y-131380600D01*
X122398660Y-131334269D01*
X122618066Y-131243389D01*
X122815525Y-131111450D01*
X122983450Y-130943525D01*
X123115389Y-130746066D01*
X123206269Y-130526660D01*
X123252600Y-130293741D01*
X123252600Y-130056259D01*
X123206269Y-129823340D01*
X123115389Y-129603934D01*
X122983450Y-129406475D01*
X122815525Y-129238550D01*
X122618066Y-129106611D01*
X122398660Y-129015731D01*
X122165741Y-128969400D01*
X121928259Y-128969400D01*
X121695340Y-129015731D01*
X121475934Y-129106611D01*
X121278475Y-129238550D01*
X121110550Y-129406475D01*
X120978611Y-129603934D01*
X120887731Y-129823340D01*
X120841400Y-130056259D01*
X120712600Y-130056259D01*
X120666269Y-129823340D01*
X120575389Y-129603934D01*
X120443450Y-129406475D01*
X120275525Y-129238550D01*
X120078066Y-129106611D01*
X119858660Y-129015731D01*
X119625741Y-128969400D01*
X119388259Y-128969400D01*
X119155340Y-129015731D01*
X118935934Y-129106611D01*
X118738475Y-129238550D01*
X118570550Y-129406475D01*
X118438611Y-129603934D01*
X118347731Y-129823340D01*
X118301400Y-130056259D01*
X117784003Y-130056259D01*
X120634663Y-127205600D01*
X120674420Y-127205600D01*
X120820400Y-127176563D01*
X120957911Y-127119604D01*
X121081667Y-127036913D01*
X121186913Y-126931667D01*
X121269604Y-126807911D01*
X121326563Y-126670400D01*
X121355600Y-126524420D01*
X121355600Y-126375580D01*
X121326563Y-126229600D01*
X121269604Y-126092089D01*
X121186913Y-125968333D01*
X121081667Y-125863087D01*
X120957911Y-125780396D01*
X120820400Y-125723437D01*
X120674420Y-125694400D01*
X120525580Y-125694400D01*
X120379600Y-125723437D01*
X120242089Y-125780396D01*
X120118333Y-125863087D01*
X120013087Y-125968333D01*
X119930396Y-126092089D01*
X119873437Y-126229600D01*
X119844400Y-126375580D01*
X119844400Y-126415337D01*
X115270481Y-130989257D01*
X115249157Y-131006757D01*
X115179327Y-131091846D01*
X115127439Y-131188923D01*
X115095486Y-131294257D01*
X115089902Y-131350954D01*
X115084697Y-131403800D01*
X115087400Y-131431242D01*
X115087401Y-133018021D01*
X115059287Y-133046135D01*
X114976596Y-133169891D01*
X114919637Y-133307402D01*
X114890600Y-133453382D01*
X113355117Y-133453382D01*
X113608488Y-133200012D01*
X113626901Y-133184901D01*
X113687209Y-133111415D01*
X113732022Y-133027577D01*
X113744204Y-132987417D01*
X113759617Y-132936607D01*
X113768935Y-132842000D01*
X113766600Y-132818293D01*
X113766600Y-125426980D01*
X113870913Y-125322667D01*
X113953604Y-125198911D01*
X114010563Y-125061400D01*
X114039600Y-124915420D01*
X114039600Y-124766580D01*
X114010563Y-124620600D01*
X113953604Y-124483089D01*
X113870913Y-124359333D01*
X113765667Y-124254087D01*
X113641911Y-124171396D01*
X113504400Y-124114437D01*
X113358420Y-124085400D01*
X113209580Y-124085400D01*
X113063600Y-124114437D01*
X112926089Y-124171396D01*
X112802333Y-124254087D01*
X112697087Y-124359333D01*
X112614396Y-124483089D01*
X112557437Y-124620600D01*
X112528400Y-124766580D01*
X112528400Y-124915420D01*
X112557437Y-125061400D01*
X112614396Y-125198911D01*
X112697087Y-125322667D01*
X112801400Y-125426980D01*
X112801401Y-132642099D01*
X101040518Y-144402983D01*
X101040512Y-144402988D01*
X101038100Y-144405400D01*
X100890580Y-144405400D01*
X100744600Y-144434437D01*
X100607089Y-144491396D01*
X100555297Y-144526003D01*
X112211488Y-132869812D01*
X112229901Y-132854701D01*
X112290209Y-132781215D01*
X112335022Y-132697377D01*
X112362617Y-132606406D01*
X112369600Y-132535507D01*
X112369600Y-132535506D01*
X112371935Y-132511801D01*
X112369600Y-132488096D01*
X112369600Y-123013980D01*
X112473913Y-122909667D01*
X112556604Y-122785911D01*
X112613563Y-122648400D01*
X112642600Y-122502420D01*
X112642600Y-122353580D01*
X112613563Y-122207600D01*
X112556604Y-122070089D01*
X112473913Y-121946333D01*
X112368667Y-121841087D01*
X112244911Y-121758396D01*
X112107400Y-121701437D01*
X111961420Y-121672400D01*
X111812580Y-121672400D01*
X111666600Y-121701437D01*
X111529089Y-121758396D01*
X111506000Y-121773824D01*
X111506000Y-118922800D01*
X118362220Y-118922800D01*
X118390333Y-118950913D01*
X118514089Y-119033604D01*
X118651600Y-119090563D01*
X118797580Y-119119600D01*
X118946420Y-119119600D01*
X119092400Y-119090563D01*
X119229911Y-119033604D01*
X119353667Y-118950913D01*
X119381780Y-118922800D01*
X122680220Y-118922800D01*
X122708333Y-118950913D01*
X122832089Y-119033604D01*
X122969600Y-119090563D01*
X123115580Y-119119600D01*
X123264420Y-119119600D01*
X123410400Y-119090563D01*
X123547911Y-119033604D01*
X123671667Y-118950913D01*
X123776913Y-118845667D01*
X123859604Y-118721911D01*
X123916563Y-118584400D01*
X123945600Y-118438420D01*
X123945600Y-118289580D01*
X123916563Y-118143600D01*
X123859604Y-118006089D01*
X123776913Y-117882333D01*
X123671667Y-117777087D01*
X123547911Y-117694396D01*
X123410400Y-117637437D01*
X123264420Y-117608400D01*
X123115580Y-117608400D01*
X122969600Y-117637437D01*
X122832089Y-117694396D01*
X122708333Y-117777087D01*
X122680220Y-117805200D01*
X119381780Y-117805200D01*
X119353667Y-117777087D01*
X119229911Y-117694396D01*
X119092400Y-117637437D01*
X118946420Y-117608400D01*
X118797580Y-117608400D01*
X118651600Y-117637437D01*
X118514089Y-117694396D01*
X118390333Y-117777087D01*
X118362220Y-117805200D01*
X111505992Y-117805200D01*
X111505992Y-116536980D01*
X111534105Y-116508867D01*
X111616796Y-116385111D01*
X111673755Y-116247600D01*
X111702792Y-116101620D01*
X111702792Y-115952780D01*
X111673755Y-115806800D01*
X111616796Y-115669289D01*
X111534105Y-115545533D01*
X111428859Y-115440287D01*
X111305103Y-115357596D01*
X111167592Y-115300637D01*
X111021612Y-115271600D01*
X110872772Y-115271600D01*
X110726792Y-115300637D01*
X110589281Y-115357596D01*
X110465525Y-115440287D01*
X110360279Y-115545533D01*
X110277588Y-115669289D01*
X110220629Y-115806800D01*
X110191592Y-115952780D01*
X110191592Y-116101620D01*
X110220629Y-116247600D01*
X110277588Y-116385111D01*
X110360279Y-116508867D01*
X110388392Y-116536980D01*
X110388392Y-116620328D01*
X110388393Y-116620338D01*
X110388392Y-118336550D01*
X110385689Y-118363992D01*
X110388392Y-118391434D01*
X110388392Y-118391435D01*
X110388400Y-118391516D01*
X110388400Y-120520795D01*
X110339911Y-120488396D01*
X110202400Y-120431437D01*
X110056420Y-120402400D01*
X109907580Y-120402400D01*
X109761600Y-120431437D01*
X109624089Y-120488396D01*
X109500333Y-120571087D01*
X109396020Y-120675400D01*
X107011980Y-120675400D01*
X106907667Y-120571087D01*
X106783911Y-120488396D01*
X106646400Y-120431437D01*
X106500420Y-120402400D01*
X106351580Y-120402400D01*
X106205600Y-120431437D01*
X106068089Y-120488396D01*
X105944333Y-120571087D01*
X105839087Y-120676333D01*
X105756396Y-120800089D01*
X105699437Y-120937600D01*
X105670400Y-121083580D01*
X105670400Y-121232420D01*
X105699437Y-121378400D01*
X105756396Y-121515911D01*
X105839087Y-121639667D01*
X105944333Y-121744913D01*
X106068089Y-121827604D01*
X106205600Y-121884563D01*
X106351580Y-121913600D01*
X106500420Y-121913600D01*
X106646400Y-121884563D01*
X106783911Y-121827604D01*
X106907667Y-121744913D01*
X107011980Y-121640600D01*
X109396020Y-121640600D01*
X109500333Y-121744913D01*
X109624089Y-121827604D01*
X109761600Y-121884563D01*
X109907580Y-121913600D01*
X110056420Y-121913600D01*
X110202400Y-121884563D01*
X110339911Y-121827604D01*
X110388400Y-121795204D01*
X110388401Y-126413747D01*
X110388400Y-126413757D01*
X110388401Y-130363427D01*
X110329171Y-130252616D01*
X110203507Y-130099493D01*
X110050384Y-129973829D01*
X109969600Y-129930649D01*
X109969600Y-129451604D01*
X109971925Y-129428000D01*
X109969600Y-129404393D01*
X109962646Y-129333786D01*
X109935165Y-129243193D01*
X109890537Y-129159701D01*
X109830480Y-129086520D01*
X109812140Y-129071469D01*
X109500335Y-128759665D01*
X109485280Y-128741320D01*
X109412099Y-128681263D01*
X109328607Y-128636635D01*
X109238014Y-128609154D01*
X109167407Y-128602200D01*
X109167404Y-128602200D01*
X109143800Y-128599875D01*
X109120196Y-128602200D01*
X105692826Y-128602200D01*
X105692113Y-128601133D01*
X105586867Y-128495887D01*
X105463111Y-128413196D01*
X105325600Y-128356237D01*
X105179620Y-128327200D01*
X105030780Y-128327200D01*
X104884800Y-128356237D01*
X104747289Y-128413196D01*
X104623533Y-128495887D01*
X104518287Y-128601133D01*
X104435596Y-128724889D01*
X104378637Y-128862400D01*
X104349600Y-129008380D01*
X104349600Y-129157220D01*
X104378637Y-129303200D01*
X104435596Y-129440711D01*
X104518287Y-129564467D01*
X104623533Y-129669713D01*
X104747289Y-129752404D01*
X104884800Y-129809363D01*
X105030780Y-129838400D01*
X105179620Y-129838400D01*
X105325600Y-129809363D01*
X105463111Y-129752404D01*
X105586867Y-129669713D01*
X105692113Y-129564467D01*
X105692826Y-129563400D01*
X108944730Y-129563400D01*
X109008400Y-129627071D01*
X109008400Y-129930649D01*
X108927616Y-129973829D01*
X108774493Y-130099493D01*
X108648829Y-130252616D01*
X108555452Y-130427313D01*
X108539429Y-130480133D01*
X108502199Y-130366826D01*
X108395491Y-130177753D01*
X108253947Y-130013131D01*
X108083007Y-129879286D01*
X107889240Y-129781361D01*
X107687246Y-129724692D01*
X107514400Y-129821425D01*
X107514400Y-131013600D01*
X107534400Y-131013600D01*
X107534400Y-131064400D01*
X107514400Y-131064400D01*
X107514400Y-132256575D01*
X107687246Y-132353308D01*
X107889240Y-132296639D01*
X108083007Y-132198714D01*
X108253947Y-132064869D01*
X108395491Y-131900247D01*
X108502199Y-131711174D01*
X108539429Y-131597867D01*
X108555452Y-131650688D01*
X108648830Y-131825384D01*
X108774494Y-131978507D01*
X108927617Y-132104171D01*
X109102313Y-132197548D01*
X109291869Y-132255049D01*
X109489000Y-132274465D01*
X109686132Y-132255049D01*
X109875688Y-132197548D01*
X110050384Y-132104171D01*
X110203507Y-131978507D01*
X110329171Y-131825384D01*
X110422548Y-131650688D01*
X110438412Y-131598392D01*
X110465533Y-131625513D01*
X110589289Y-131708204D01*
X110726800Y-131765163D01*
X110872780Y-131794200D01*
X111021620Y-131794200D01*
X111167600Y-131765163D01*
X111305111Y-131708204D01*
X111404401Y-131641861D01*
X111404401Y-132311899D01*
X98373518Y-145342783D01*
X98373512Y-145342788D01*
X98371100Y-145345200D01*
X98223580Y-145345200D01*
X98077600Y-145374237D01*
X97940089Y-145431196D01*
X97816333Y-145513887D01*
X97711087Y-145619133D01*
X97628396Y-145742889D01*
X97571437Y-145880400D01*
X97542400Y-146026380D01*
X83473600Y-146026380D01*
X83473600Y-112014000D01*
X83565675Y-112014000D01*
X83568000Y-112037604D01*
X83568001Y-144349986D01*
X83565675Y-144373600D01*
X83572590Y-144443805D01*
X83574955Y-144467814D01*
X83582166Y-144491586D01*
X83602436Y-144558408D01*
X83647063Y-144641898D01*
X83647064Y-144641899D01*
X83707121Y-144715080D01*
X83725461Y-144730131D01*
X83750451Y-144755121D01*
X83750200Y-144756380D01*
X83750200Y-144905220D01*
X83779237Y-145051200D01*
X83836196Y-145188711D01*
X83918887Y-145312467D01*
X84024133Y-145417713D01*
X84147889Y-145500404D01*
X84285400Y-145557363D01*
X84431380Y-145586400D01*
X84580220Y-145586400D01*
X84726200Y-145557363D01*
X84863711Y-145500404D01*
X84987467Y-145417713D01*
X85092713Y-145312467D01*
X85175404Y-145188711D01*
X85232363Y-145051200D01*
X85261400Y-144905220D01*
X85261400Y-144756380D01*
X85232363Y-144610400D01*
X85175404Y-144472889D01*
X85092713Y-144349133D01*
X84987467Y-144243887D01*
X84863711Y-144161196D01*
X84726200Y-144104237D01*
X84580220Y-144075200D01*
X84529200Y-144075200D01*
X84529200Y-143916180D01*
X84608333Y-143995313D01*
X84732089Y-144078004D01*
X84869600Y-144134963D01*
X85015580Y-144164000D01*
X85164420Y-144164000D01*
X85310400Y-144134963D01*
X85447911Y-144078004D01*
X85571667Y-143995313D01*
X85676913Y-143890067D01*
X85759604Y-143766311D01*
X85816563Y-143628800D01*
X85845600Y-143482820D01*
X85845600Y-143333980D01*
X85816563Y-143188000D01*
X85759604Y-143050489D01*
X85676913Y-142926733D01*
X85571667Y-142821487D01*
X85447911Y-142738796D01*
X85310400Y-142681837D01*
X85164420Y-142652800D01*
X85015580Y-142652800D01*
X85014321Y-142653050D01*
X84979211Y-142617941D01*
X84979211Y-137034780D01*
X89490600Y-137034780D01*
X89490600Y-137183620D01*
X89519637Y-137329600D01*
X89576596Y-137467111D01*
X89659287Y-137590867D01*
X89764533Y-137696113D01*
X89888289Y-137778804D01*
X90025800Y-137835763D01*
X90171780Y-137864800D01*
X90320620Y-137864800D01*
X90466600Y-137835763D01*
X90604111Y-137778804D01*
X90727867Y-137696113D01*
X90832180Y-137591800D01*
X98524095Y-137591800D01*
X98547800Y-137594135D01*
X98571505Y-137591800D01*
X98571507Y-137591800D01*
X98642406Y-137584817D01*
X98733377Y-137557222D01*
X98817215Y-137512409D01*
X98890701Y-137452101D01*
X98905817Y-137433682D01*
X103813488Y-132526012D01*
X103831901Y-132510901D01*
X103892209Y-132437415D01*
X103937022Y-132353577D01*
X103964617Y-132262606D01*
X103971600Y-132191707D01*
X103971600Y-132191706D01*
X103973935Y-132168001D01*
X103971786Y-132146183D01*
X104050384Y-132104171D01*
X104203507Y-131978507D01*
X104329171Y-131825384D01*
X104422548Y-131650688D01*
X104480049Y-131461131D01*
X104489000Y-131370252D01*
X104497951Y-131461132D01*
X104555452Y-131650688D01*
X104648830Y-131825384D01*
X104774494Y-131978507D01*
X104927617Y-132104171D01*
X105006401Y-132146282D01*
X105006401Y-132309099D01*
X102437518Y-134877983D01*
X102437512Y-134877988D01*
X102435100Y-134880400D01*
X102287580Y-134880400D01*
X102141600Y-134909437D01*
X102004089Y-134966396D01*
X101880333Y-135049087D01*
X101775087Y-135154333D01*
X101692396Y-135278089D01*
X101635437Y-135415600D01*
X101606400Y-135561580D01*
X101606400Y-135710420D01*
X101635437Y-135856400D01*
X101692396Y-135993911D01*
X101775087Y-136117667D01*
X101880333Y-136222913D01*
X102004089Y-136305604D01*
X102141600Y-136362563D01*
X102287580Y-136391600D01*
X102436420Y-136391600D01*
X102582400Y-136362563D01*
X102719911Y-136305604D01*
X102843667Y-136222913D01*
X102948913Y-136117667D01*
X103031604Y-135993911D01*
X103088563Y-135856400D01*
X103117600Y-135710420D01*
X103117600Y-135562900D01*
X103120012Y-135560488D01*
X103120017Y-135560482D01*
X105813488Y-132867012D01*
X105831901Y-132851901D01*
X105892209Y-132778415D01*
X105937022Y-132694577D01*
X105960851Y-132616022D01*
X105964617Y-132603607D01*
X105973935Y-132509000D01*
X105971600Y-132485293D01*
X105971600Y-132146282D01*
X106050384Y-132104171D01*
X106203507Y-131978507D01*
X106329171Y-131825384D01*
X106422548Y-131650688D01*
X106438571Y-131597867D01*
X106475801Y-131711174D01*
X106582509Y-131900247D01*
X106724053Y-132064869D01*
X106894993Y-132198714D01*
X107088760Y-132296639D01*
X107290754Y-132353308D01*
X107463600Y-132256575D01*
X107463600Y-131064400D01*
X107443600Y-131064400D01*
X107443600Y-131013600D01*
X107463600Y-131013600D01*
X107463600Y-129821425D01*
X107290754Y-129724692D01*
X107088760Y-129781361D01*
X106894993Y-129879286D01*
X106724053Y-130013131D01*
X106582509Y-130177753D01*
X106475801Y-130366826D01*
X106438571Y-130480133D01*
X106422548Y-130427312D01*
X106329171Y-130252616D01*
X106203507Y-130099493D01*
X106050384Y-129973829D01*
X105875687Y-129880452D01*
X105686131Y-129822951D01*
X105489000Y-129803535D01*
X105291868Y-129822951D01*
X105102312Y-129880452D01*
X104927616Y-129973829D01*
X104774493Y-130099493D01*
X104648829Y-130252616D01*
X104555452Y-130427313D01*
X104497951Y-130616869D01*
X104489000Y-130707748D01*
X104480049Y-130616868D01*
X104422548Y-130427312D01*
X104329171Y-130252616D01*
X104203507Y-130099493D01*
X104050384Y-129973829D01*
X103875687Y-129880452D01*
X103686131Y-129822951D01*
X103489000Y-129803535D01*
X103291868Y-129822951D01*
X103102312Y-129880452D01*
X102927616Y-129973829D01*
X102774493Y-130099493D01*
X102648829Y-130252616D01*
X102555452Y-130427313D01*
X102497951Y-130616869D01*
X102489000Y-130707748D01*
X102480049Y-130616868D01*
X102422548Y-130427312D01*
X102329171Y-130252616D01*
X102203507Y-130099493D01*
X102050384Y-129973829D01*
X101875687Y-129880452D01*
X101686131Y-129822951D01*
X101489000Y-129803535D01*
X101291868Y-129822951D01*
X101102312Y-129880452D01*
X100927616Y-129973829D01*
X100774493Y-130099493D01*
X100648829Y-130252616D01*
X100555452Y-130427313D01*
X100497951Y-130616869D01*
X100489000Y-130707748D01*
X100480049Y-130616868D01*
X100422548Y-130427312D01*
X100329171Y-130252616D01*
X100203507Y-130099493D01*
X100050384Y-129973829D01*
X99875687Y-129880452D01*
X99686131Y-129822951D01*
X99489000Y-129803535D01*
X99291868Y-129822951D01*
X99102312Y-129880452D01*
X98927616Y-129973829D01*
X98774493Y-130099493D01*
X98648829Y-130252616D01*
X98555452Y-130427313D01*
X98497951Y-130616869D01*
X98489000Y-130707748D01*
X98480049Y-130616868D01*
X98422548Y-130427312D01*
X98329171Y-130252616D01*
X98203507Y-130099493D01*
X98050384Y-129973829D01*
X97875687Y-129880452D01*
X97686131Y-129822951D01*
X97489000Y-129803535D01*
X97291868Y-129822951D01*
X97102312Y-129880452D01*
X96927616Y-129973829D01*
X96774493Y-130099493D01*
X96648829Y-130252616D01*
X96555452Y-130427313D01*
X96497951Y-130616869D01*
X96489000Y-130707748D01*
X96480049Y-130616868D01*
X96422548Y-130427312D01*
X96329171Y-130252616D01*
X96203507Y-130099493D01*
X96050384Y-129973829D01*
X95875687Y-129880452D01*
X95686131Y-129822951D01*
X95489000Y-129803535D01*
X95291868Y-129822951D01*
X95102312Y-129880452D01*
X94927616Y-129973829D01*
X94774493Y-130099493D01*
X94648829Y-130252616D01*
X94555452Y-130427313D01*
X94497951Y-130616869D01*
X94483400Y-130764606D01*
X94483400Y-131313395D01*
X94497951Y-131461132D01*
X94555452Y-131650688D01*
X94648830Y-131825384D01*
X94774494Y-131978507D01*
X94927617Y-132104171D01*
X94996000Y-132140723D01*
X94996000Y-132306820D01*
X94891687Y-132411133D01*
X94808996Y-132534889D01*
X94752037Y-132672400D01*
X94723000Y-132818380D01*
X94723000Y-132967220D01*
X94752037Y-133113200D01*
X94808996Y-133250711D01*
X94875339Y-133350000D01*
X93219780Y-133350000D01*
X93115467Y-133245687D01*
X92991711Y-133162996D01*
X92854200Y-133106037D01*
X92708220Y-133077000D01*
X92559380Y-133077000D01*
X92413400Y-133106037D01*
X92275889Y-133162996D01*
X92152133Y-133245687D01*
X92046887Y-133350933D01*
X91964196Y-133474689D01*
X91907237Y-133612200D01*
X91878200Y-133758180D01*
X91878200Y-133907020D01*
X91907237Y-134053000D01*
X91964196Y-134190511D01*
X92046887Y-134314267D01*
X92152133Y-134419513D01*
X92275889Y-134502204D01*
X92413400Y-134559163D01*
X92559380Y-134588200D01*
X92708220Y-134588200D01*
X92854200Y-134559163D01*
X92991711Y-134502204D01*
X93115467Y-134419513D01*
X93219780Y-134315200D01*
X97800695Y-134315200D01*
X97824400Y-134317535D01*
X97848105Y-134315200D01*
X97848107Y-134315200D01*
X97919006Y-134308217D01*
X98009977Y-134280622D01*
X98093815Y-134235809D01*
X98167301Y-134175501D01*
X98182417Y-134157082D01*
X99813488Y-132526012D01*
X99831901Y-132510901D01*
X99892209Y-132437415D01*
X99937022Y-132353577D01*
X99951488Y-132305887D01*
X99964617Y-132262607D01*
X99973935Y-132168000D01*
X99971786Y-132146182D01*
X100050384Y-132104171D01*
X100203507Y-131978507D01*
X100329171Y-131825384D01*
X100422548Y-131650688D01*
X100480049Y-131461131D01*
X100489000Y-131370252D01*
X100497951Y-131461132D01*
X100555452Y-131650688D01*
X100648830Y-131825384D01*
X100774494Y-131978507D01*
X100896152Y-132078349D01*
X98125901Y-134848600D01*
X97156780Y-134848600D01*
X97052467Y-134744287D01*
X96928711Y-134661596D01*
X96791200Y-134604637D01*
X96645220Y-134575600D01*
X96496380Y-134575600D01*
X96350400Y-134604637D01*
X96212889Y-134661596D01*
X96089133Y-134744287D01*
X95983887Y-134849533D01*
X95901196Y-134973289D01*
X95844237Y-135110800D01*
X95815200Y-135256780D01*
X95815200Y-135405620D01*
X95844237Y-135551600D01*
X95901196Y-135689111D01*
X95983887Y-135812867D01*
X96089133Y-135918113D01*
X96212889Y-136000804D01*
X96350400Y-136057763D01*
X96496380Y-136086800D01*
X96645220Y-136086800D01*
X96791200Y-136057763D01*
X96928711Y-136000804D01*
X97052467Y-135918113D01*
X97156780Y-135813800D01*
X98302095Y-135813800D01*
X98325800Y-135816135D01*
X98349505Y-135813800D01*
X98349507Y-135813800D01*
X98420406Y-135806817D01*
X98511377Y-135779222D01*
X98595215Y-135734409D01*
X98668701Y-135674101D01*
X98683817Y-135655682D01*
X101813482Y-132526017D01*
X101831901Y-132510901D01*
X101892209Y-132437415D01*
X101937022Y-132353577D01*
X101964617Y-132262606D01*
X101971600Y-132191707D01*
X101971600Y-132191706D01*
X101973935Y-132168001D01*
X101971786Y-132146183D01*
X102050384Y-132104171D01*
X102203507Y-131978507D01*
X102329171Y-131825384D01*
X102422548Y-131650688D01*
X102480049Y-131461131D01*
X102489000Y-131370252D01*
X102497951Y-131461132D01*
X102555452Y-131650688D01*
X102648830Y-131825384D01*
X102774494Y-131978507D01*
X102896152Y-132078348D01*
X98347901Y-136626600D01*
X90832180Y-136626600D01*
X90727867Y-136522287D01*
X90604111Y-136439596D01*
X90466600Y-136382637D01*
X90320620Y-136353600D01*
X90171780Y-136353600D01*
X90025800Y-136382637D01*
X89888289Y-136439596D01*
X89764533Y-136522287D01*
X89659287Y-136627533D01*
X89576596Y-136751289D01*
X89519637Y-136888800D01*
X89490600Y-137034780D01*
X84979211Y-137034780D01*
X84979211Y-134570980D01*
X88474600Y-134570980D01*
X88474600Y-134719820D01*
X88503637Y-134865800D01*
X88560596Y-135003311D01*
X88643287Y-135127067D01*
X88748533Y-135232313D01*
X88872289Y-135315004D01*
X89009800Y-135371963D01*
X89155780Y-135401000D01*
X89304620Y-135401000D01*
X89450600Y-135371963D01*
X89588111Y-135315004D01*
X89711867Y-135232313D01*
X89817113Y-135127067D01*
X89899804Y-135003311D01*
X89956763Y-134865800D01*
X89985800Y-134719820D01*
X89985800Y-134623099D01*
X93720288Y-130888612D01*
X93738701Y-130873501D01*
X93755179Y-130853423D01*
X93799008Y-130800016D01*
X93805111Y-130788600D01*
X93843822Y-130716177D01*
X93849912Y-130696099D01*
X93871417Y-130625207D01*
X93880735Y-130530600D01*
X93878400Y-130506893D01*
X93878400Y-129033780D01*
X93982713Y-128929467D01*
X94065404Y-128805711D01*
X94122363Y-128668200D01*
X94151400Y-128522220D01*
X94151400Y-128373380D01*
X94122363Y-128227400D01*
X94065404Y-128089889D01*
X93982713Y-127966133D01*
X93877467Y-127860887D01*
X93753711Y-127778196D01*
X93616200Y-127721237D01*
X93470220Y-127692200D01*
X93321380Y-127692200D01*
X93175400Y-127721237D01*
X93037889Y-127778196D01*
X92914133Y-127860887D01*
X92808887Y-127966133D01*
X92726196Y-128089889D01*
X92669237Y-128227400D01*
X92640200Y-128373380D01*
X92640200Y-128522220D01*
X92669237Y-128668200D01*
X92726196Y-128805711D01*
X92808887Y-128929467D01*
X92913200Y-129033780D01*
X92913201Y-130330699D01*
X89345892Y-133898009D01*
X89304620Y-133889800D01*
X89155780Y-133889800D01*
X89009800Y-133918837D01*
X88872289Y-133975796D01*
X88748533Y-134058487D01*
X88643287Y-134163733D01*
X88560596Y-134287489D01*
X88503637Y-134425000D01*
X88474600Y-134570980D01*
X84979211Y-134570980D01*
X84979211Y-123989242D01*
X85153934Y-124105989D01*
X85373340Y-124196869D01*
X85606259Y-124243200D01*
X85843741Y-124243200D01*
X86076660Y-124196869D01*
X86296066Y-124105989D01*
X86493525Y-123974050D01*
X86661450Y-123806125D01*
X86793389Y-123608666D01*
X86830033Y-123520200D01*
X89148809Y-123520201D01*
X89152221Y-123520201D01*
X89256534Y-123624514D01*
X89380290Y-123707205D01*
X89517801Y-123764164D01*
X89663781Y-123793201D01*
X89812621Y-123793201D01*
X89958601Y-123764164D01*
X90096112Y-123707205D01*
X90219868Y-123624514D01*
X90325114Y-123519268D01*
X90407805Y-123395512D01*
X90464764Y-123258001D01*
X90493801Y-123112021D01*
X90493801Y-122963181D01*
X90464764Y-122817201D01*
X90407805Y-122679690D01*
X90325114Y-122555934D01*
X90219868Y-122450688D01*
X90096112Y-122367997D01*
X89958601Y-122311038D01*
X89812621Y-122282001D01*
X89663781Y-122282001D01*
X89517801Y-122311038D01*
X89380290Y-122367997D01*
X89256534Y-122450688D01*
X89152221Y-122555001D01*
X89148809Y-122555001D01*
X89148799Y-122555002D01*
X86830033Y-122555001D01*
X86793389Y-122466534D01*
X86661450Y-122269075D01*
X86493525Y-122101150D01*
X86296066Y-121969211D01*
X86076660Y-121878331D01*
X85843741Y-121832000D01*
X85606259Y-121832000D01*
X85373340Y-121878331D01*
X85153934Y-121969211D01*
X84979211Y-122085958D01*
X84979211Y-121566185D01*
X85020461Y-121598690D01*
X85248811Y-121714982D01*
X85495460Y-121784490D01*
X85699600Y-121690254D01*
X85699600Y-120523000D01*
X85750400Y-120523000D01*
X85750400Y-121690254D01*
X85954540Y-121784490D01*
X86201189Y-121714982D01*
X86429539Y-121598690D01*
X86630813Y-121440084D01*
X86709834Y-121347600D01*
X88301788Y-121347600D01*
X88310615Y-121437227D01*
X88336759Y-121523409D01*
X88379213Y-121602836D01*
X88436347Y-121672453D01*
X88505964Y-121729587D01*
X88585391Y-121772041D01*
X88671573Y-121798185D01*
X88761200Y-121807012D01*
X89471500Y-121804800D01*
X89585800Y-121690500D01*
X89585800Y-120523000D01*
X89636600Y-120523000D01*
X89636600Y-121690500D01*
X89750900Y-121804800D01*
X90461200Y-121807012D01*
X90550827Y-121798185D01*
X90637009Y-121772041D01*
X90716436Y-121729587D01*
X90786053Y-121672453D01*
X90843187Y-121602836D01*
X90885641Y-121523409D01*
X90911785Y-121437227D01*
X90920612Y-121347600D01*
X90918400Y-120637300D01*
X90804100Y-120523000D01*
X89636600Y-120523000D01*
X89585800Y-120523000D01*
X88418300Y-120523000D01*
X88304000Y-120637300D01*
X88301788Y-121347600D01*
X86709834Y-121347600D01*
X86797278Y-121245259D01*
X86922536Y-121021702D01*
X87001773Y-120778004D01*
X87011889Y-120727140D01*
X86917630Y-120523000D01*
X85750400Y-120523000D01*
X85699600Y-120523000D01*
X85679600Y-120523000D01*
X85679600Y-120472200D01*
X85699600Y-120472200D01*
X85699600Y-119304946D01*
X85750400Y-119304946D01*
X85750400Y-120472200D01*
X86917630Y-120472200D01*
X87011889Y-120268060D01*
X87001773Y-120217196D01*
X86922536Y-119973498D01*
X86797278Y-119749941D01*
X86709835Y-119647600D01*
X88301788Y-119647600D01*
X88304000Y-120357900D01*
X88418300Y-120472200D01*
X89585800Y-120472200D01*
X89585800Y-119304700D01*
X89636600Y-119304700D01*
X89636600Y-120472200D01*
X90804100Y-120472200D01*
X90918400Y-120357900D01*
X90920612Y-119647600D01*
X90911785Y-119557973D01*
X90885641Y-119471791D01*
X90843187Y-119392364D01*
X90786053Y-119322747D01*
X90716436Y-119265613D01*
X90637009Y-119223159D01*
X90550827Y-119197015D01*
X90461200Y-119188188D01*
X89750900Y-119190400D01*
X89636600Y-119304700D01*
X89585800Y-119304700D01*
X89471500Y-119190400D01*
X88761200Y-119188188D01*
X88671573Y-119197015D01*
X88585391Y-119223159D01*
X88505964Y-119265613D01*
X88436347Y-119322747D01*
X88379213Y-119392364D01*
X88336759Y-119471791D01*
X88310615Y-119557973D01*
X88301788Y-119647600D01*
X86709835Y-119647600D01*
X86630813Y-119555116D01*
X86429539Y-119396510D01*
X86201189Y-119280218D01*
X85954540Y-119210710D01*
X85750400Y-119304946D01*
X85699600Y-119304946D01*
X85495460Y-119210710D01*
X85248811Y-119280218D01*
X85020461Y-119396510D01*
X84979211Y-119429015D01*
X84979211Y-118909242D01*
X85153934Y-119025989D01*
X85373340Y-119116869D01*
X85606259Y-119163200D01*
X85843741Y-119163200D01*
X86076660Y-119116869D01*
X86296066Y-119025989D01*
X86493525Y-118894050D01*
X86661450Y-118726125D01*
X86793389Y-118528666D01*
X86884269Y-118309260D01*
X86930600Y-118076341D01*
X86930600Y-117838859D01*
X86884269Y-117605940D01*
X86793389Y-117386534D01*
X86661450Y-117189075D01*
X86493525Y-117021150D01*
X86296066Y-116889211D01*
X86076660Y-116798331D01*
X85843741Y-116752000D01*
X85606259Y-116752000D01*
X85373340Y-116798331D01*
X85153934Y-116889211D01*
X84979211Y-117005958D01*
X84979211Y-116369242D01*
X85153934Y-116485989D01*
X85373340Y-116576869D01*
X85606259Y-116623200D01*
X85843741Y-116623200D01*
X86076660Y-116576869D01*
X86296066Y-116485989D01*
X86493525Y-116354050D01*
X86661450Y-116186125D01*
X86793389Y-115988666D01*
X86884269Y-115769260D01*
X86930600Y-115536341D01*
X86930600Y-115298859D01*
X88405600Y-115298859D01*
X88405600Y-115536341D01*
X88451931Y-115769260D01*
X88542811Y-115988666D01*
X88674750Y-116186125D01*
X88842675Y-116354050D01*
X89040134Y-116485989D01*
X89259540Y-116576869D01*
X89492459Y-116623200D01*
X89729941Y-116623200D01*
X89962860Y-116576869D01*
X90182266Y-116485989D01*
X90379725Y-116354050D01*
X90547650Y-116186125D01*
X90679589Y-115988666D01*
X90705712Y-115925600D01*
X90909901Y-115925600D01*
X91513012Y-116528712D01*
X91513012Y-117830712D01*
X91315417Y-117633118D01*
X91300301Y-117614699D01*
X91226815Y-117554391D01*
X91142977Y-117509578D01*
X91052006Y-117481983D01*
X90981107Y-117475000D01*
X90981105Y-117475000D01*
X90957400Y-117472665D01*
X90933695Y-117475000D01*
X90716232Y-117475000D01*
X90679589Y-117386534D01*
X90547650Y-117189075D01*
X90379725Y-117021150D01*
X90182266Y-116889211D01*
X89962860Y-116798331D01*
X89729941Y-116752000D01*
X89492459Y-116752000D01*
X89259540Y-116798331D01*
X89040134Y-116889211D01*
X88842675Y-117021150D01*
X88674750Y-117189075D01*
X88542811Y-117386534D01*
X88451931Y-117605940D01*
X88405600Y-117838859D01*
X88405600Y-118076341D01*
X88451931Y-118309260D01*
X88542811Y-118528666D01*
X88674750Y-118726125D01*
X88842675Y-118894050D01*
X89040134Y-119025989D01*
X89259540Y-119116869D01*
X89492459Y-119163200D01*
X89729941Y-119163200D01*
X89962860Y-119116869D01*
X90182266Y-119025989D01*
X90379725Y-118894050D01*
X90547650Y-118726125D01*
X90679589Y-118528666D01*
X90716232Y-118440200D01*
X90757501Y-118440200D01*
X91059000Y-118741700D01*
X91059001Y-125829819D01*
X90954687Y-125934133D01*
X90871996Y-126057889D01*
X90815037Y-126195400D01*
X90786000Y-126341380D01*
X90786000Y-126490220D01*
X90815037Y-126636200D01*
X90871996Y-126773711D01*
X90954687Y-126897467D01*
X91059933Y-127002713D01*
X91183689Y-127085404D01*
X91321200Y-127142363D01*
X91467180Y-127171400D01*
X91616020Y-127171400D01*
X91762000Y-127142363D01*
X91899511Y-127085404D01*
X92023267Y-127002713D01*
X92128513Y-126897467D01*
X92211204Y-126773711D01*
X92268163Y-126636200D01*
X92297200Y-126490220D01*
X92297200Y-126341380D01*
X92268163Y-126195400D01*
X92211204Y-126057889D01*
X92128513Y-125934133D01*
X92024200Y-125829820D01*
X92024200Y-124863099D01*
X92656788Y-125495687D01*
X92671899Y-125514101D01*
X92745385Y-125574409D01*
X92786901Y-125596600D01*
X92829223Y-125619222D01*
X92920193Y-125646817D01*
X93014800Y-125656135D01*
X93038507Y-125653800D01*
X97813620Y-125653800D01*
X97917933Y-125758113D01*
X98041689Y-125840804D01*
X98179200Y-125897763D01*
X98325180Y-125926800D01*
X98474020Y-125926800D01*
X98620000Y-125897763D01*
X98757511Y-125840804D01*
X98881267Y-125758113D01*
X98986513Y-125652867D01*
X99069204Y-125529111D01*
X99126163Y-125391600D01*
X99155200Y-125245620D01*
X99155200Y-125096780D01*
X99126163Y-124950800D01*
X99069204Y-124813289D01*
X98986513Y-124689533D01*
X98881267Y-124584287D01*
X98757511Y-124501596D01*
X98620000Y-124444637D01*
X98474020Y-124415600D01*
X98325180Y-124415600D01*
X98179200Y-124444637D01*
X98041689Y-124501596D01*
X97917933Y-124584287D01*
X97813620Y-124688600D01*
X93214700Y-124688600D01*
X92478211Y-123952112D01*
X92478211Y-121083580D01*
X92513201Y-121083580D01*
X92513201Y-121232420D01*
X92542238Y-121378400D01*
X92599197Y-121515911D01*
X92681888Y-121639667D01*
X92787134Y-121744913D01*
X92910890Y-121827604D01*
X93048401Y-121884563D01*
X93194381Y-121913600D01*
X93343221Y-121913600D01*
X93489201Y-121884563D01*
X93626712Y-121827604D01*
X93750468Y-121744913D01*
X93854781Y-121640600D01*
X100125020Y-121640600D01*
X100229333Y-121744913D01*
X100353089Y-121827604D01*
X100490600Y-121884563D01*
X100636580Y-121913600D01*
X100785420Y-121913600D01*
X100931400Y-121884563D01*
X101068911Y-121827604D01*
X101192667Y-121744913D01*
X101297913Y-121639667D01*
X101380604Y-121515911D01*
X101437563Y-121378400D01*
X101466600Y-121232420D01*
X101466600Y-121083580D01*
X101437563Y-120937600D01*
X101380604Y-120800089D01*
X101297913Y-120676333D01*
X101192667Y-120571087D01*
X101068911Y-120488396D01*
X100931400Y-120431437D01*
X100785420Y-120402400D01*
X100636580Y-120402400D01*
X100490600Y-120431437D01*
X100353089Y-120488396D01*
X100229333Y-120571087D01*
X100125020Y-120675400D01*
X93854781Y-120675400D01*
X93750468Y-120571087D01*
X93626712Y-120488396D01*
X93489201Y-120431437D01*
X93343221Y-120402400D01*
X93194381Y-120402400D01*
X93048401Y-120431437D01*
X92910890Y-120488396D01*
X92787134Y-120571087D01*
X92681888Y-120676333D01*
X92599197Y-120800089D01*
X92542238Y-120937600D01*
X92513201Y-121083580D01*
X92478211Y-121083580D01*
X92478211Y-116352518D01*
X92480546Y-116328811D01*
X92471228Y-116234204D01*
X92443633Y-116143234D01*
X92398820Y-116059396D01*
X92338512Y-115985910D01*
X92320098Y-115970799D01*
X91467817Y-115118518D01*
X91452701Y-115100099D01*
X91379215Y-115039791D01*
X91295377Y-114994978D01*
X91204406Y-114967383D01*
X91133507Y-114960400D01*
X91133505Y-114960400D01*
X91109800Y-114958065D01*
X91086095Y-114960400D01*
X90726753Y-114960400D01*
X90679589Y-114846534D01*
X90547650Y-114649075D01*
X90379725Y-114481150D01*
X90182266Y-114349211D01*
X89962860Y-114258331D01*
X89729941Y-114212000D01*
X89492459Y-114212000D01*
X89259540Y-114258331D01*
X89040134Y-114349211D01*
X88842675Y-114481150D01*
X88674750Y-114649075D01*
X88542811Y-114846534D01*
X88451931Y-115065940D01*
X88405600Y-115298859D01*
X86930600Y-115298859D01*
X86884269Y-115065940D01*
X86793389Y-114846534D01*
X86661450Y-114649075D01*
X86493525Y-114481150D01*
X86296066Y-114349211D01*
X86076660Y-114258331D01*
X85843741Y-114212000D01*
X85606259Y-114212000D01*
X85373340Y-114258331D01*
X85153934Y-114349211D01*
X84979211Y-114465958D01*
X84979211Y-114303059D01*
X85231529Y-114050742D01*
X85231533Y-114050737D01*
X85282873Y-113999397D01*
X85373340Y-114036869D01*
X85606259Y-114083200D01*
X85843741Y-114083200D01*
X86076660Y-114036869D01*
X86296066Y-113945989D01*
X86493525Y-113814050D01*
X86661450Y-113646125D01*
X86793389Y-113448666D01*
X86884269Y-113229260D01*
X86930600Y-112996341D01*
X86930600Y-112758859D01*
X88405600Y-112758859D01*
X88405600Y-112996341D01*
X88451931Y-113229260D01*
X88542811Y-113448666D01*
X88674750Y-113646125D01*
X88842675Y-113814050D01*
X89040134Y-113945989D01*
X89259540Y-114036869D01*
X89492459Y-114083200D01*
X89729941Y-114083200D01*
X89962860Y-114036869D01*
X90059161Y-113996980D01*
X92894198Y-113996980D01*
X92894198Y-114145820D01*
X92923235Y-114291800D01*
X92980194Y-114429311D01*
X93062885Y-114553067D01*
X93168131Y-114658313D01*
X93291887Y-114741004D01*
X93429398Y-114797963D01*
X93575378Y-114827000D01*
X93722899Y-114827000D01*
X96037400Y-117141502D01*
X96037401Y-119175019D01*
X95933087Y-119279333D01*
X95850396Y-119403089D01*
X95793437Y-119540600D01*
X95764400Y-119686580D01*
X95764400Y-119835420D01*
X95793437Y-119981400D01*
X95850396Y-120118911D01*
X95933087Y-120242667D01*
X96038333Y-120347913D01*
X96162089Y-120430604D01*
X96299600Y-120487563D01*
X96445580Y-120516600D01*
X96594420Y-120516600D01*
X96740400Y-120487563D01*
X96877911Y-120430604D01*
X97001667Y-120347913D01*
X97106913Y-120242667D01*
X97189604Y-120118911D01*
X97246563Y-119981400D01*
X97275600Y-119835420D01*
X97275600Y-119686580D01*
X97246563Y-119540600D01*
X97189604Y-119403089D01*
X97106913Y-119279333D01*
X97002600Y-119175020D01*
X97002600Y-116965309D01*
X97004935Y-116941602D01*
X96995617Y-116846995D01*
X96968022Y-116756025D01*
X96936367Y-116696804D01*
X96923209Y-116672187D01*
X96862901Y-116598701D01*
X96844488Y-116583590D01*
X94405398Y-114144501D01*
X94405398Y-113996980D01*
X94376361Y-113851000D01*
X94319402Y-113713489D01*
X94236711Y-113589733D01*
X94131465Y-113484487D01*
X94007709Y-113401796D01*
X93870198Y-113344837D01*
X93724218Y-113315800D01*
X93575378Y-113315800D01*
X93429398Y-113344837D01*
X93291887Y-113401796D01*
X93168131Y-113484487D01*
X93062885Y-113589733D01*
X92980194Y-113713489D01*
X92923235Y-113851000D01*
X92894198Y-113996980D01*
X90059161Y-113996980D01*
X90182266Y-113945989D01*
X90379725Y-113814050D01*
X90547650Y-113646125D01*
X90679589Y-113448666D01*
X90770469Y-113229260D01*
X90816800Y-112996341D01*
X90816800Y-112922518D01*
X98141403Y-112922518D01*
X98222854Y-113136722D01*
X98451730Y-113265098D01*
X98701254Y-113346355D01*
X98961834Y-113377371D01*
X99223460Y-113356954D01*
X99476074Y-113285889D01*
X99709971Y-113166907D01*
X99755146Y-113136722D01*
X99836597Y-112922518D01*
X98989000Y-112074921D01*
X98141403Y-112922518D01*
X90816800Y-112922518D01*
X90816800Y-112758859D01*
X90770469Y-112525940D01*
X90679589Y-112306534D01*
X90547650Y-112109075D01*
X90450409Y-112011834D01*
X97650629Y-112011834D01*
X97671046Y-112273460D01*
X97742111Y-112526074D01*
X97861093Y-112759971D01*
X97891278Y-112805146D01*
X98105482Y-112886597D01*
X98953079Y-112039000D01*
X98105482Y-111191403D01*
X97891278Y-111272854D01*
X97762902Y-111501730D01*
X97681645Y-111751254D01*
X97650629Y-112011834D01*
X90450409Y-112011834D01*
X90379725Y-111941150D01*
X90182266Y-111809211D01*
X89962860Y-111718331D01*
X89729941Y-111672000D01*
X89492459Y-111672000D01*
X89259540Y-111718331D01*
X89040134Y-111809211D01*
X88842675Y-111941150D01*
X88674750Y-112109075D01*
X88542811Y-112306534D01*
X88451931Y-112525940D01*
X88405600Y-112758859D01*
X86930600Y-112758859D01*
X86884269Y-112525940D01*
X86793389Y-112306534D01*
X86661450Y-112109075D01*
X86493525Y-111941150D01*
X86296066Y-111809211D01*
X86076660Y-111718331D01*
X85843741Y-111672000D01*
X85606259Y-111672000D01*
X85373340Y-111718331D01*
X85153934Y-111809211D01*
X84956475Y-111941150D01*
X84788550Y-112109075D01*
X84656611Y-112306534D01*
X84565731Y-112525940D01*
X84529200Y-112709592D01*
X84529200Y-112213070D01*
X85282874Y-111459397D01*
X85373340Y-111496869D01*
X85606259Y-111543200D01*
X85843741Y-111543200D01*
X86076660Y-111496869D01*
X86296066Y-111405989D01*
X86493525Y-111274050D01*
X86661450Y-111106125D01*
X86793389Y-110908666D01*
X86884269Y-110689260D01*
X86930600Y-110456341D01*
X86930600Y-110388400D01*
X96038988Y-110388400D01*
X96047815Y-110478027D01*
X96073959Y-110564209D01*
X96116413Y-110643636D01*
X96173547Y-110713253D01*
X96243164Y-110770387D01*
X96322591Y-110812841D01*
X96408773Y-110838985D01*
X96498400Y-110847812D01*
X97108700Y-110845600D01*
X97223000Y-110731300D01*
X97223000Y-107873800D01*
X96155500Y-107873800D01*
X96041200Y-107988100D01*
X96038988Y-110388400D01*
X86930600Y-110388400D01*
X86930600Y-110218859D01*
X86884269Y-109985940D01*
X86793389Y-109766534D01*
X86661450Y-109569075D01*
X86493525Y-109401150D01*
X86296066Y-109269211D01*
X86076660Y-109178331D01*
X85843741Y-109132000D01*
X85606259Y-109132000D01*
X85373340Y-109178331D01*
X85153934Y-109269211D01*
X84956475Y-109401150D01*
X84788550Y-109569075D01*
X84656611Y-109766534D01*
X84565731Y-109985940D01*
X84519400Y-110218859D01*
X84519400Y-110456341D01*
X84565731Y-110689260D01*
X84603203Y-110779726D01*
X83725465Y-111657465D01*
X83707120Y-111672520D01*
X83647063Y-111745701D01*
X83602435Y-111829194D01*
X83574954Y-111919787D01*
X83568000Y-111990393D01*
X83565675Y-112014000D01*
X83473600Y-112014000D01*
X83473600Y-107081331D01*
X83486712Y-106947600D01*
X84517680Y-106947600D01*
X84517680Y-108647600D01*
X84524546Y-108717310D01*
X84544879Y-108784340D01*
X84577899Y-108846116D01*
X84622337Y-108900263D01*
X84676484Y-108944701D01*
X84738260Y-108977721D01*
X84805290Y-108998054D01*
X84875000Y-109004920D01*
X86575000Y-109004920D01*
X86644710Y-108998054D01*
X86711740Y-108977721D01*
X86773516Y-108944701D01*
X86827663Y-108900263D01*
X86872101Y-108846116D01*
X86905121Y-108784340D01*
X86925454Y-108717310D01*
X86932320Y-108647600D01*
X86932320Y-106947600D01*
X86925454Y-106877890D01*
X86905121Y-106810860D01*
X86872101Y-106749084D01*
X86827663Y-106694937D01*
X86773516Y-106650499D01*
X86711740Y-106617479D01*
X86644710Y-106597146D01*
X86575000Y-106590280D01*
X84875000Y-106590280D01*
X84805290Y-106597146D01*
X84738260Y-106617479D01*
X84676484Y-106650499D01*
X84622337Y-106694937D01*
X84577899Y-106749084D01*
X84544879Y-106810860D01*
X84524546Y-106877890D01*
X84517680Y-106947600D01*
X83486712Y-106947600D01*
X83506340Y-106747424D01*
X83597405Y-106445799D01*
X83745327Y-106167599D01*
X83944462Y-105923435D01*
X84187235Y-105722597D01*
X84464392Y-105572738D01*
X84765383Y-105479566D01*
X85098066Y-105444600D01*
X96039114Y-105444600D01*
X96041200Y-107708700D01*
G37*
X96041200Y-107708700D02*
X96155500Y-107823000D01*
X97223000Y-107823000D01*
X97223000Y-107803000D01*
X97273800Y-107803000D01*
X97273800Y-107823000D01*
X97293800Y-107823000D01*
X97293800Y-107873800D01*
X97273800Y-107873800D01*
X97273800Y-110731300D01*
X97307400Y-110764900D01*
X97307400Y-110896400D01*
X97309352Y-110916221D01*
X97315134Y-110935281D01*
X97324523Y-110952846D01*
X97337158Y-110968242D01*
X97352554Y-110980877D01*
X97370119Y-110990266D01*
X97389179Y-110996048D01*
X97409000Y-110998000D01*
X98201285Y-110998000D01*
X98141403Y-111155482D01*
X98989000Y-112003079D01*
X99003143Y-111988937D01*
X99009200Y-111994994D01*
X99009200Y-112014000D01*
X99011152Y-112033821D01*
X99016934Y-112052881D01*
X99026323Y-112070446D01*
X99038958Y-112085842D01*
X99054354Y-112098477D01*
X99071919Y-112107866D01*
X99090979Y-112113648D01*
X99100507Y-112114586D01*
X99872518Y-112886597D01*
X100086722Y-112805146D01*
X100215098Y-112576270D01*
X100293358Y-112335948D01*
X100305692Y-112397953D01*
X100398457Y-112621908D01*
X100533131Y-112823462D01*
X100704538Y-112994869D01*
X100906092Y-113129543D01*
X101130047Y-113222308D01*
X101367797Y-113269600D01*
X101610203Y-113269600D01*
X101847953Y-113222308D01*
X102071908Y-113129543D01*
X102273462Y-112994869D01*
X102345813Y-112922518D01*
X103141403Y-112922518D01*
X103222854Y-113136722D01*
X103451730Y-113265098D01*
X103701254Y-113346355D01*
X103961834Y-113377371D01*
X104223460Y-113356954D01*
X104476074Y-113285889D01*
X104709971Y-113166907D01*
X104755146Y-113136722D01*
X104836597Y-112922518D01*
X103989000Y-112074921D01*
X103141403Y-112922518D01*
X102345813Y-112922518D01*
X102444869Y-112823462D01*
X102579543Y-112621908D01*
X102672308Y-112397953D01*
X102686292Y-112327653D01*
X102742111Y-112526074D01*
X102861093Y-112759971D01*
X102891278Y-112805146D01*
X103105482Y-112886597D01*
X103876479Y-112115600D01*
X103886000Y-112115600D01*
X103905821Y-112113648D01*
X103924881Y-112107866D01*
X103942446Y-112098477D01*
X103957842Y-112085842D01*
X103970477Y-112070446D01*
X103979866Y-112052881D01*
X103984076Y-112039000D01*
X104024921Y-112039000D01*
X104872518Y-112886597D01*
X105086722Y-112805146D01*
X105215098Y-112576270D01*
X105296355Y-112326746D01*
X105327371Y-112066166D01*
X105306954Y-111804540D01*
X105235889Y-111551926D01*
X105116907Y-111318029D01*
X105086722Y-111272854D01*
X104872518Y-111191403D01*
X104024921Y-112039000D01*
X103984076Y-112039000D01*
X103985648Y-112033821D01*
X103987600Y-112014000D01*
X103987600Y-112001679D01*
X103989000Y-112003079D01*
X104836597Y-111155482D01*
X104776715Y-110998000D01*
X105537000Y-110998000D01*
X105556821Y-110996048D01*
X105575881Y-110990266D01*
X105593446Y-110980877D01*
X105608842Y-110968242D01*
X105621477Y-110952846D01*
X105630866Y-110935281D01*
X105636648Y-110916221D01*
X105638600Y-110896400D01*
X105638600Y-110815700D01*
X105723000Y-110731300D01*
X105723000Y-107873800D01*
X105773800Y-107873800D01*
X105773800Y-110731300D01*
X105888100Y-110845600D01*
X106498400Y-110847812D01*
X106588027Y-110838985D01*
X106674209Y-110812841D01*
X106753636Y-110770387D01*
X106823253Y-110713253D01*
X106880387Y-110643636D01*
X106922841Y-110564209D01*
X106948985Y-110478027D01*
X106957812Y-110388400D01*
X106955600Y-107988100D01*
X106841300Y-107873800D01*
X105773800Y-107873800D01*
X105723000Y-107873800D01*
X105703000Y-107873800D01*
X105703000Y-107823000D01*
X105723000Y-107823000D01*
X105723000Y-107803000D01*
X105773800Y-107803000D01*
X105773800Y-107823000D01*
X106841300Y-107823000D01*
X106955600Y-107708700D01*
X106957686Y-105444600D01*
X123296669Y-105444600D01*
X123630576Y-105477340D01*
X123932201Y-105568405D01*
X124210401Y-105716327D01*
X124454565Y-105915462D01*
X124655403Y-106158235D01*
X124805262Y-106435392D01*
X124898434Y-106736383D01*
X124933400Y-107069066D01*
X124933401Y-148696668D01*
X124912755Y-148907233D01*
X124857507Y-149090223D01*
X124767771Y-149258993D01*
X124646958Y-149407124D01*
X124499676Y-149528965D01*
X124331535Y-149619880D01*
X124148933Y-149676404D01*
X123939652Y-149698400D01*
X85110322Y-149698400D01*
X84776424Y-149665660D01*
X84474797Y-149574594D01*
X84196601Y-149426674D01*
X83952435Y-149227538D01*
X83751597Y-148984765D01*
X83601738Y-148707607D01*
X83508566Y-148406619D01*
X83473600Y-148073934D01*
X83473600Y-146026380D01*
X97542400Y-146026380D01*
X97542400Y-146175220D01*
X97571437Y-146321200D01*
X97628396Y-146458711D01*
X97711087Y-146582467D01*
X97816333Y-146687713D01*
X97940089Y-146770404D01*
X98077600Y-146827363D01*
X98223580Y-146856400D01*
X98372420Y-146856400D01*
X98518400Y-146827363D01*
X98655911Y-146770404D01*
X98779667Y-146687713D01*
X98884913Y-146582467D01*
X98967604Y-146458711D01*
X99024563Y-146321200D01*
X99053600Y-146175220D01*
X99053600Y-146027700D01*
X99056012Y-146025288D01*
X99056017Y-146025282D01*
X100330003Y-144751297D01*
X100295396Y-144803089D01*
X100238437Y-144940600D01*
X100209400Y-145086580D01*
X100209400Y-145235420D01*
X100238437Y-145381400D01*
X100295396Y-145518911D01*
X100378087Y-145642667D01*
X100483333Y-145747913D01*
X100607089Y-145830604D01*
X100744600Y-145887563D01*
X100890580Y-145916600D01*
X101039420Y-145916600D01*
X101185400Y-145887563D01*
X101322911Y-145830604D01*
X101446667Y-145747913D01*
X101551913Y-145642667D01*
X101634604Y-145518911D01*
X101691563Y-145381400D01*
X101720600Y-145235420D01*
X101720600Y-145087900D01*
X101723012Y-145085488D01*
X101723017Y-145085482D01*
X104311607Y-142496892D01*
X115074000Y-142496892D01*
X115074000Y-143405507D01*
X115089998Y-143567934D01*
X115153217Y-143776341D01*
X115255880Y-143968410D01*
X115394040Y-144136760D01*
X115562390Y-144274920D01*
X115754458Y-144377583D01*
X115962865Y-144440802D01*
X116179600Y-144462149D01*
X116396334Y-144440802D01*
X116604741Y-144377583D01*
X116796810Y-144274920D01*
X116965160Y-144136760D01*
X117103320Y-143968410D01*
X117205983Y-143776342D01*
X117269202Y-143567935D01*
X117285200Y-143405508D01*
X117285200Y-142976600D01*
X117512400Y-142976600D01*
X117512400Y-143376600D01*
X117540551Y-143611625D01*
X117614012Y-143836642D01*
X117729961Y-144043004D01*
X117883941Y-144222780D01*
X118070035Y-144369062D01*
X118281091Y-144476228D01*
X118505707Y-144539300D01*
X118694200Y-144443805D01*
X118694200Y-142976600D01*
X118745000Y-142976600D01*
X118745000Y-144443805D01*
X118933493Y-144539300D01*
X119158109Y-144476228D01*
X119369165Y-144369062D01*
X119555259Y-144222780D01*
X119709239Y-144043004D01*
X119825188Y-143836642D01*
X119898649Y-143611625D01*
X119926800Y-143376600D01*
X119926800Y-142976600D01*
X118745000Y-142976600D01*
X118694200Y-142976600D01*
X117512400Y-142976600D01*
X117285200Y-142976600D01*
X117285200Y-142525800D01*
X117512400Y-142525800D01*
X117512400Y-142925800D01*
X118694200Y-142925800D01*
X118694200Y-141458595D01*
X118745000Y-141458595D01*
X118745000Y-142925800D01*
X119926800Y-142925800D01*
X119926800Y-142525800D01*
X119898649Y-142290775D01*
X119825188Y-142065758D01*
X119709239Y-141859396D01*
X119659394Y-141801200D01*
X120152280Y-141801200D01*
X120152280Y-144101200D01*
X120159146Y-144170910D01*
X120179479Y-144237940D01*
X120212499Y-144299716D01*
X120256937Y-144353863D01*
X120311084Y-144398301D01*
X120372860Y-144431321D01*
X120439890Y-144451654D01*
X120509600Y-144458520D01*
X122009600Y-144458520D01*
X122079310Y-144451654D01*
X122146340Y-144431321D01*
X122208116Y-144398301D01*
X122262263Y-144353863D01*
X122306701Y-144299716D01*
X122339721Y-144237940D01*
X122360054Y-144170910D01*
X122366920Y-144101200D01*
X122366920Y-141801200D01*
X122360054Y-141731490D01*
X122339721Y-141664460D01*
X122306701Y-141602684D01*
X122262263Y-141548537D01*
X122208116Y-141504099D01*
X122146340Y-141471079D01*
X122079310Y-141450746D01*
X122009600Y-141443880D01*
X120509600Y-141443880D01*
X120439890Y-141450746D01*
X120372860Y-141471079D01*
X120311084Y-141504099D01*
X120256937Y-141548537D01*
X120212499Y-141602684D01*
X120179479Y-141664460D01*
X120159146Y-141731490D01*
X120152280Y-141801200D01*
X119659394Y-141801200D01*
X119555259Y-141679620D01*
X119369165Y-141533338D01*
X119158109Y-141426172D01*
X118933493Y-141363100D01*
X118745000Y-141458595D01*
X118694200Y-141458595D01*
X118505707Y-141363100D01*
X118281091Y-141426172D01*
X118070035Y-141533338D01*
X117883941Y-141679620D01*
X117729961Y-141859396D01*
X117614012Y-142065758D01*
X117540551Y-142290775D01*
X117512400Y-142525800D01*
X117285200Y-142525800D01*
X117285200Y-142496893D01*
X117269202Y-142334466D01*
X117205983Y-142126058D01*
X117103320Y-141933990D01*
X116965160Y-141765640D01*
X116796810Y-141627480D01*
X116604742Y-141524817D01*
X116396335Y-141461598D01*
X116179600Y-141440251D01*
X115962866Y-141461598D01*
X115754459Y-141524817D01*
X115562391Y-141627480D01*
X115394041Y-141765640D01*
X115255881Y-141933990D01*
X115153218Y-142126058D01*
X115089998Y-142334465D01*
X115074000Y-142496892D01*
X104311607Y-142496892D01*
X109132240Y-137676259D01*
X118301400Y-137676259D01*
X118301400Y-137913741D01*
X118347731Y-138146660D01*
X118438611Y-138366066D01*
X118570550Y-138563525D01*
X118738475Y-138731450D01*
X118935934Y-138863389D01*
X119155340Y-138954269D01*
X119388259Y-139000600D01*
X119625741Y-139000600D01*
X119858660Y-138954269D01*
X120078066Y-138863389D01*
X120275525Y-138731450D01*
X120443450Y-138563525D01*
X120575389Y-138366066D01*
X120666269Y-138146660D01*
X120712600Y-137913741D01*
X120712600Y-137676259D01*
X120666269Y-137443340D01*
X120575389Y-137223934D01*
X120443450Y-137026475D01*
X120361975Y-136945000D01*
X120839680Y-136945000D01*
X120839680Y-138645000D01*
X120846546Y-138714710D01*
X120866879Y-138781740D01*
X120899899Y-138843516D01*
X120944337Y-138897663D01*
X120998484Y-138942101D01*
X121060260Y-138975121D01*
X121127290Y-138995454D01*
X121197000Y-139002320D01*
X122897000Y-139002320D01*
X122966710Y-138995454D01*
X123033740Y-138975121D01*
X123095516Y-138942101D01*
X123149663Y-138897663D01*
X123194101Y-138843516D01*
X123227121Y-138781740D01*
X123247454Y-138714710D01*
X123254320Y-138645000D01*
X123254320Y-136945000D01*
X123247454Y-136875290D01*
X123227121Y-136808260D01*
X123194101Y-136746484D01*
X123149663Y-136692337D01*
X123095516Y-136647899D01*
X123033740Y-136614879D01*
X122966710Y-136594546D01*
X122897000Y-136587680D01*
X121197000Y-136587680D01*
X121127290Y-136594546D01*
X121060260Y-136614879D01*
X120998484Y-136647899D01*
X120944337Y-136692337D01*
X120899899Y-136746484D01*
X120866879Y-136808260D01*
X120846546Y-136875290D01*
X120839680Y-136945000D01*
X120361975Y-136945000D01*
X120275525Y-136858550D01*
X120078066Y-136726611D01*
X119858660Y-136635731D01*
X119625741Y-136589400D01*
X119388259Y-136589400D01*
X119155340Y-136635731D01*
X118935934Y-136726611D01*
X118738475Y-136858550D01*
X118570550Y-137026475D01*
X118438611Y-137223934D01*
X118347731Y-137443340D01*
X118301400Y-137676259D01*
X109132240Y-137676259D01*
X111672240Y-135136259D01*
X118301400Y-135136259D01*
X118301400Y-135373741D01*
X118347731Y-135606660D01*
X118438611Y-135826066D01*
X118570550Y-136023525D01*
X118738475Y-136191450D01*
X118935934Y-136323389D01*
X119155340Y-136414269D01*
X119388259Y-136460600D01*
X119625741Y-136460600D01*
X119858660Y-136414269D01*
X120078066Y-136323389D01*
X120275525Y-136191450D01*
X120443450Y-136023525D01*
X120575389Y-135826066D01*
X120666269Y-135606660D01*
X120712600Y-135373741D01*
X120712600Y-135136259D01*
X120841400Y-135136259D01*
X120841400Y-135373741D01*
X120887731Y-135606660D01*
X120978611Y-135826066D01*
X121110550Y-136023525D01*
X121278475Y-136191450D01*
X121475934Y-136323389D01*
X121695340Y-136414269D01*
X121928259Y-136460600D01*
X122165741Y-136460600D01*
X122398660Y-136414269D01*
X122618066Y-136323389D01*
X122815525Y-136191450D01*
X122983450Y-136023525D01*
X123115389Y-135826066D01*
X123206269Y-135606660D01*
X123252600Y-135373741D01*
X123252600Y-135136259D01*
X123206269Y-134903340D01*
X123115389Y-134683934D01*
X122983450Y-134486475D01*
X122815525Y-134318550D01*
X122618066Y-134186611D01*
X122398660Y-134095731D01*
X122165741Y-134049400D01*
X121928259Y-134049400D01*
X121695340Y-134095731D01*
X121475934Y-134186611D01*
X121278475Y-134318550D01*
X121110550Y-134486475D01*
X120978611Y-134683934D01*
X120887731Y-134903340D01*
X120841400Y-135136259D01*
X120712600Y-135136259D01*
X120666269Y-134903340D01*
X120575389Y-134683934D01*
X120443450Y-134486475D01*
X120275525Y-134318550D01*
X120078066Y-134186611D01*
X119858660Y-134095731D01*
X119625741Y-134049400D01*
X119388259Y-134049400D01*
X119155340Y-134095731D01*
X118935934Y-134186611D01*
X118738475Y-134318550D01*
X118570550Y-134486475D01*
X118438611Y-134683934D01*
X118347731Y-134903340D01*
X118301400Y-135136259D01*
X111672240Y-135136259D01*
X113355117Y-133453382D01*
X114890600Y-133453382D01*
X114890600Y-133602222D01*
X114919637Y-133748202D01*
X114976596Y-133885713D01*
X115059287Y-134009469D01*
X115164533Y-134114715D01*
X115288289Y-134197406D01*
X115425800Y-134254365D01*
X115571780Y-134283402D01*
X115720620Y-134283402D01*
X115866600Y-134254365D01*
X116004111Y-134197406D01*
X116127867Y-134114715D01*
X116233113Y-134009469D01*
X116315804Y-133885713D01*
X116372763Y-133748202D01*
X116401800Y-133602222D01*
X116401800Y-133453382D01*
X116372763Y-133307402D01*
X116315804Y-133169891D01*
X116233113Y-133046135D01*
X116205000Y-133018022D01*
X116205000Y-132596259D01*
X118301400Y-132596259D01*
X118301400Y-132833741D01*
X118347731Y-133066660D01*
X118438611Y-133286066D01*
X118570550Y-133483525D01*
X118738475Y-133651450D01*
X118935934Y-133783389D01*
X119155340Y-133874269D01*
X119388259Y-133920600D01*
X119625741Y-133920600D01*
X119858660Y-133874269D01*
X120078066Y-133783389D01*
X120275525Y-133651450D01*
X120443450Y-133483525D01*
X120575389Y-133286066D01*
X120666269Y-133066660D01*
X120690560Y-132944540D01*
X120760111Y-132944540D01*
X120770227Y-132995404D01*
X120849464Y-133239102D01*
X120974722Y-133462659D01*
X121141187Y-133657484D01*
X121342461Y-133816090D01*
X121570811Y-133932382D01*
X121817460Y-134001890D01*
X122021600Y-133907654D01*
X122021600Y-132740400D01*
X122072400Y-132740400D01*
X122072400Y-133907654D01*
X122276540Y-134001890D01*
X122523189Y-133932382D01*
X122751539Y-133816090D01*
X122952813Y-133657484D01*
X123119278Y-133462659D01*
X123244536Y-133239102D01*
X123323773Y-132995404D01*
X123333889Y-132944540D01*
X123239630Y-132740400D01*
X122072400Y-132740400D01*
X122021600Y-132740400D01*
X120854370Y-132740400D01*
X120760111Y-132944540D01*
X120690560Y-132944540D01*
X120712600Y-132833741D01*
X120712600Y-132596259D01*
X120690561Y-132485460D01*
X120760111Y-132485460D01*
X120854370Y-132689600D01*
X122021600Y-132689600D01*
X122021600Y-131522346D01*
X122072400Y-131522346D01*
X122072400Y-132689600D01*
X123239630Y-132689600D01*
X123333889Y-132485460D01*
X123323773Y-132434596D01*
X123244536Y-132190898D01*
X123119278Y-131967341D01*
X122952813Y-131772516D01*
X122751539Y-131613910D01*
X122523189Y-131497618D01*
X122276540Y-131428110D01*
X122072400Y-131522346D01*
X122021600Y-131522346D01*
X121817460Y-131428110D01*
X121570811Y-131497618D01*
X121342461Y-131613910D01*
X121141187Y-131772516D01*
X120974722Y-131967341D01*
X120849464Y-132190898D01*
X120770227Y-132434596D01*
X120760111Y-132485460D01*
X120690561Y-132485460D01*
X120666269Y-132363340D01*
X120575389Y-132143934D01*
X120443450Y-131946475D01*
X120275525Y-131778550D01*
X120078066Y-131646611D01*
X119858660Y-131555731D01*
X119625741Y-131509400D01*
X119388259Y-131509400D01*
X119155340Y-131555731D01*
X118935934Y-131646611D01*
X118738475Y-131778550D01*
X118570550Y-131946475D01*
X118438611Y-132143934D01*
X118347731Y-132363340D01*
X118301400Y-132596259D01*
X116205000Y-132596259D01*
X116205000Y-131635262D01*
X117784003Y-130056259D01*
X118301400Y-130056259D01*
X118301400Y-130293741D01*
X118347731Y-130526660D01*
X118438611Y-130746066D01*
X118570550Y-130943525D01*
X118738475Y-131111450D01*
X118935934Y-131243389D01*
X119155340Y-131334269D01*
X119388259Y-131380600D01*
X119625741Y-131380600D01*
X119858660Y-131334269D01*
X120078066Y-131243389D01*
X120275525Y-131111450D01*
X120443450Y-130943525D01*
X120575389Y-130746066D01*
X120666269Y-130526660D01*
X120712600Y-130293741D01*
X120712600Y-130056259D01*
X120841400Y-130056259D01*
X120841400Y-130293741D01*
X120887731Y-130526660D01*
X120978611Y-130746066D01*
X121110550Y-130943525D01*
X121278475Y-131111450D01*
X121475934Y-131243389D01*
X121695340Y-131334269D01*
X121928259Y-131380600D01*
X122165741Y-131380600D01*
X122398660Y-131334269D01*
X122618066Y-131243389D01*
X122815525Y-131111450D01*
X122983450Y-130943525D01*
X123115389Y-130746066D01*
X123206269Y-130526660D01*
X123252600Y-130293741D01*
X123252600Y-130056259D01*
X123206269Y-129823340D01*
X123115389Y-129603934D01*
X122983450Y-129406475D01*
X122815525Y-129238550D01*
X122618066Y-129106611D01*
X122398660Y-129015731D01*
X122165741Y-128969400D01*
X121928259Y-128969400D01*
X121695340Y-129015731D01*
X121475934Y-129106611D01*
X121278475Y-129238550D01*
X121110550Y-129406475D01*
X120978611Y-129603934D01*
X120887731Y-129823340D01*
X120841400Y-130056259D01*
X120712600Y-130056259D01*
X120666269Y-129823340D01*
X120575389Y-129603934D01*
X120443450Y-129406475D01*
X120275525Y-129238550D01*
X120078066Y-129106611D01*
X119858660Y-129015731D01*
X119625741Y-128969400D01*
X119388259Y-128969400D01*
X119155340Y-129015731D01*
X118935934Y-129106611D01*
X118738475Y-129238550D01*
X118570550Y-129406475D01*
X118438611Y-129603934D01*
X118347731Y-129823340D01*
X118301400Y-130056259D01*
X117784003Y-130056259D01*
X120634663Y-127205600D01*
X120674420Y-127205600D01*
X120820400Y-127176563D01*
X120957911Y-127119604D01*
X121081667Y-127036913D01*
X121186913Y-126931667D01*
X121269604Y-126807911D01*
X121326563Y-126670400D01*
X121355600Y-126524420D01*
X121355600Y-126375580D01*
X121326563Y-126229600D01*
X121269604Y-126092089D01*
X121186913Y-125968333D01*
X121081667Y-125863087D01*
X120957911Y-125780396D01*
X120820400Y-125723437D01*
X120674420Y-125694400D01*
X120525580Y-125694400D01*
X120379600Y-125723437D01*
X120242089Y-125780396D01*
X120118333Y-125863087D01*
X120013087Y-125968333D01*
X119930396Y-126092089D01*
X119873437Y-126229600D01*
X119844400Y-126375580D01*
X119844400Y-126415337D01*
X115270481Y-130989257D01*
X115249157Y-131006757D01*
X115179327Y-131091846D01*
X115127439Y-131188923D01*
X115095486Y-131294257D01*
X115089902Y-131350954D01*
X115084697Y-131403800D01*
X115087400Y-131431242D01*
X115087401Y-133018021D01*
X115059287Y-133046135D01*
X114976596Y-133169891D01*
X114919637Y-133307402D01*
X114890600Y-133453382D01*
X113355117Y-133453382D01*
X113608488Y-133200012D01*
X113626901Y-133184901D01*
X113687209Y-133111415D01*
X113732022Y-133027577D01*
X113744204Y-132987417D01*
X113759617Y-132936607D01*
X113768935Y-132842000D01*
X113766600Y-132818293D01*
X113766600Y-125426980D01*
X113870913Y-125322667D01*
X113953604Y-125198911D01*
X114010563Y-125061400D01*
X114039600Y-124915420D01*
X114039600Y-124766580D01*
X114010563Y-124620600D01*
X113953604Y-124483089D01*
X113870913Y-124359333D01*
X113765667Y-124254087D01*
X113641911Y-124171396D01*
X113504400Y-124114437D01*
X113358420Y-124085400D01*
X113209580Y-124085400D01*
X113063600Y-124114437D01*
X112926089Y-124171396D01*
X112802333Y-124254087D01*
X112697087Y-124359333D01*
X112614396Y-124483089D01*
X112557437Y-124620600D01*
X112528400Y-124766580D01*
X112528400Y-124915420D01*
X112557437Y-125061400D01*
X112614396Y-125198911D01*
X112697087Y-125322667D01*
X112801400Y-125426980D01*
X112801401Y-132642099D01*
X101040518Y-144402983D01*
X101040512Y-144402988D01*
X101038100Y-144405400D01*
X100890580Y-144405400D01*
X100744600Y-144434437D01*
X100607089Y-144491396D01*
X100555297Y-144526003D01*
X112211488Y-132869812D01*
X112229901Y-132854701D01*
X112290209Y-132781215D01*
X112335022Y-132697377D01*
X112362617Y-132606406D01*
X112369600Y-132535507D01*
X112369600Y-132535506D01*
X112371935Y-132511801D01*
X112369600Y-132488096D01*
X112369600Y-123013980D01*
X112473913Y-122909667D01*
X112556604Y-122785911D01*
X112613563Y-122648400D01*
X112642600Y-122502420D01*
X112642600Y-122353580D01*
X112613563Y-122207600D01*
X112556604Y-122070089D01*
X112473913Y-121946333D01*
X112368667Y-121841087D01*
X112244911Y-121758396D01*
X112107400Y-121701437D01*
X111961420Y-121672400D01*
X111812580Y-121672400D01*
X111666600Y-121701437D01*
X111529089Y-121758396D01*
X111506000Y-121773824D01*
X111506000Y-118922800D01*
X118362220Y-118922800D01*
X118390333Y-118950913D01*
X118514089Y-119033604D01*
X118651600Y-119090563D01*
X118797580Y-119119600D01*
X118946420Y-119119600D01*
X119092400Y-119090563D01*
X119229911Y-119033604D01*
X119353667Y-118950913D01*
X119381780Y-118922800D01*
X122680220Y-118922800D01*
X122708333Y-118950913D01*
X122832089Y-119033604D01*
X122969600Y-119090563D01*
X123115580Y-119119600D01*
X123264420Y-119119600D01*
X123410400Y-119090563D01*
X123547911Y-119033604D01*
X123671667Y-118950913D01*
X123776913Y-118845667D01*
X123859604Y-118721911D01*
X123916563Y-118584400D01*
X123945600Y-118438420D01*
X123945600Y-118289580D01*
X123916563Y-118143600D01*
X123859604Y-118006089D01*
X123776913Y-117882333D01*
X123671667Y-117777087D01*
X123547911Y-117694396D01*
X123410400Y-117637437D01*
X123264420Y-117608400D01*
X123115580Y-117608400D01*
X122969600Y-117637437D01*
X122832089Y-117694396D01*
X122708333Y-117777087D01*
X122680220Y-117805200D01*
X119381780Y-117805200D01*
X119353667Y-117777087D01*
X119229911Y-117694396D01*
X119092400Y-117637437D01*
X118946420Y-117608400D01*
X118797580Y-117608400D01*
X118651600Y-117637437D01*
X118514089Y-117694396D01*
X118390333Y-117777087D01*
X118362220Y-117805200D01*
X111505992Y-117805200D01*
X111505992Y-116536980D01*
X111534105Y-116508867D01*
X111616796Y-116385111D01*
X111673755Y-116247600D01*
X111702792Y-116101620D01*
X111702792Y-115952780D01*
X111673755Y-115806800D01*
X111616796Y-115669289D01*
X111534105Y-115545533D01*
X111428859Y-115440287D01*
X111305103Y-115357596D01*
X111167592Y-115300637D01*
X111021612Y-115271600D01*
X110872772Y-115271600D01*
X110726792Y-115300637D01*
X110589281Y-115357596D01*
X110465525Y-115440287D01*
X110360279Y-115545533D01*
X110277588Y-115669289D01*
X110220629Y-115806800D01*
X110191592Y-115952780D01*
X110191592Y-116101620D01*
X110220629Y-116247600D01*
X110277588Y-116385111D01*
X110360279Y-116508867D01*
X110388392Y-116536980D01*
X110388392Y-116620328D01*
X110388393Y-116620338D01*
X110388392Y-118336550D01*
X110385689Y-118363992D01*
X110388392Y-118391434D01*
X110388392Y-118391435D01*
X110388400Y-118391516D01*
X110388400Y-120520795D01*
X110339911Y-120488396D01*
X110202400Y-120431437D01*
X110056420Y-120402400D01*
X109907580Y-120402400D01*
X109761600Y-120431437D01*
X109624089Y-120488396D01*
X109500333Y-120571087D01*
X109396020Y-120675400D01*
X107011980Y-120675400D01*
X106907667Y-120571087D01*
X106783911Y-120488396D01*
X106646400Y-120431437D01*
X106500420Y-120402400D01*
X106351580Y-120402400D01*
X106205600Y-120431437D01*
X106068089Y-120488396D01*
X105944333Y-120571087D01*
X105839087Y-120676333D01*
X105756396Y-120800089D01*
X105699437Y-120937600D01*
X105670400Y-121083580D01*
X105670400Y-121232420D01*
X105699437Y-121378400D01*
X105756396Y-121515911D01*
X105839087Y-121639667D01*
X105944333Y-121744913D01*
X106068089Y-121827604D01*
X106205600Y-121884563D01*
X106351580Y-121913600D01*
X106500420Y-121913600D01*
X106646400Y-121884563D01*
X106783911Y-121827604D01*
X106907667Y-121744913D01*
X107011980Y-121640600D01*
X109396020Y-121640600D01*
X109500333Y-121744913D01*
X109624089Y-121827604D01*
X109761600Y-121884563D01*
X109907580Y-121913600D01*
X110056420Y-121913600D01*
X110202400Y-121884563D01*
X110339911Y-121827604D01*
X110388400Y-121795204D01*
X110388401Y-126413747D01*
X110388400Y-126413757D01*
X110388401Y-130363427D01*
X110329171Y-130252616D01*
X110203507Y-130099493D01*
X110050384Y-129973829D01*
X109969600Y-129930649D01*
X109969600Y-129451604D01*
X109971925Y-129428000D01*
X109969600Y-129404393D01*
X109962646Y-129333786D01*
X109935165Y-129243193D01*
X109890537Y-129159701D01*
X109830480Y-129086520D01*
X109812140Y-129071469D01*
X109500335Y-128759665D01*
X109485280Y-128741320D01*
X109412099Y-128681263D01*
X109328607Y-128636635D01*
X109238014Y-128609154D01*
X109167407Y-128602200D01*
X109167404Y-128602200D01*
X109143800Y-128599875D01*
X109120196Y-128602200D01*
X105692826Y-128602200D01*
X105692113Y-128601133D01*
X105586867Y-128495887D01*
X105463111Y-128413196D01*
X105325600Y-128356237D01*
X105179620Y-128327200D01*
X105030780Y-128327200D01*
X104884800Y-128356237D01*
X104747289Y-128413196D01*
X104623533Y-128495887D01*
X104518287Y-128601133D01*
X104435596Y-128724889D01*
X104378637Y-128862400D01*
X104349600Y-129008380D01*
X104349600Y-129157220D01*
X104378637Y-129303200D01*
X104435596Y-129440711D01*
X104518287Y-129564467D01*
X104623533Y-129669713D01*
X104747289Y-129752404D01*
X104884800Y-129809363D01*
X105030780Y-129838400D01*
X105179620Y-129838400D01*
X105325600Y-129809363D01*
X105463111Y-129752404D01*
X105586867Y-129669713D01*
X105692113Y-129564467D01*
X105692826Y-129563400D01*
X108944730Y-129563400D01*
X109008400Y-129627071D01*
X109008400Y-129930649D01*
X108927616Y-129973829D01*
X108774493Y-130099493D01*
X108648829Y-130252616D01*
X108555452Y-130427313D01*
X108539429Y-130480133D01*
X108502199Y-130366826D01*
X108395491Y-130177753D01*
X108253947Y-130013131D01*
X108083007Y-129879286D01*
X107889240Y-129781361D01*
X107687246Y-129724692D01*
X107514400Y-129821425D01*
X107514400Y-131013600D01*
X107534400Y-131013600D01*
X107534400Y-131064400D01*
X107514400Y-131064400D01*
X107514400Y-132256575D01*
X107687246Y-132353308D01*
X107889240Y-132296639D01*
X108083007Y-132198714D01*
X108253947Y-132064869D01*
X108395491Y-131900247D01*
X108502199Y-131711174D01*
X108539429Y-131597867D01*
X108555452Y-131650688D01*
X108648830Y-131825384D01*
X108774494Y-131978507D01*
X108927617Y-132104171D01*
X109102313Y-132197548D01*
X109291869Y-132255049D01*
X109489000Y-132274465D01*
X109686132Y-132255049D01*
X109875688Y-132197548D01*
X110050384Y-132104171D01*
X110203507Y-131978507D01*
X110329171Y-131825384D01*
X110422548Y-131650688D01*
X110438412Y-131598392D01*
X110465533Y-131625513D01*
X110589289Y-131708204D01*
X110726800Y-131765163D01*
X110872780Y-131794200D01*
X111021620Y-131794200D01*
X111167600Y-131765163D01*
X111305111Y-131708204D01*
X111404401Y-131641861D01*
X111404401Y-132311899D01*
X98373518Y-145342783D01*
X98373512Y-145342788D01*
X98371100Y-145345200D01*
X98223580Y-145345200D01*
X98077600Y-145374237D01*
X97940089Y-145431196D01*
X97816333Y-145513887D01*
X97711087Y-145619133D01*
X97628396Y-145742889D01*
X97571437Y-145880400D01*
X97542400Y-146026380D01*
X83473600Y-146026380D01*
X83473600Y-112014000D01*
X83565675Y-112014000D01*
X83568000Y-112037604D01*
X83568001Y-144349986D01*
X83565675Y-144373600D01*
X83572590Y-144443805D01*
X83574955Y-144467814D01*
X83582166Y-144491586D01*
X83602436Y-144558408D01*
X83647063Y-144641898D01*
X83647064Y-144641899D01*
X83707121Y-144715080D01*
X83725461Y-144730131D01*
X83750451Y-144755121D01*
X83750200Y-144756380D01*
X83750200Y-144905220D01*
X83779237Y-145051200D01*
X83836196Y-145188711D01*
X83918887Y-145312467D01*
X84024133Y-145417713D01*
X84147889Y-145500404D01*
X84285400Y-145557363D01*
X84431380Y-145586400D01*
X84580220Y-145586400D01*
X84726200Y-145557363D01*
X84863711Y-145500404D01*
X84987467Y-145417713D01*
X85092713Y-145312467D01*
X85175404Y-145188711D01*
X85232363Y-145051200D01*
X85261400Y-144905220D01*
X85261400Y-144756380D01*
X85232363Y-144610400D01*
X85175404Y-144472889D01*
X85092713Y-144349133D01*
X84987467Y-144243887D01*
X84863711Y-144161196D01*
X84726200Y-144104237D01*
X84580220Y-144075200D01*
X84529200Y-144075200D01*
X84529200Y-143916180D01*
X84608333Y-143995313D01*
X84732089Y-144078004D01*
X84869600Y-144134963D01*
X85015580Y-144164000D01*
X85164420Y-144164000D01*
X85310400Y-144134963D01*
X85447911Y-144078004D01*
X85571667Y-143995313D01*
X85676913Y-143890067D01*
X85759604Y-143766311D01*
X85816563Y-143628800D01*
X85845600Y-143482820D01*
X85845600Y-143333980D01*
X85816563Y-143188000D01*
X85759604Y-143050489D01*
X85676913Y-142926733D01*
X85571667Y-142821487D01*
X85447911Y-142738796D01*
X85310400Y-142681837D01*
X85164420Y-142652800D01*
X85015580Y-142652800D01*
X85014321Y-142653050D01*
X84979211Y-142617941D01*
X84979211Y-137034780D01*
X89490600Y-137034780D01*
X89490600Y-137183620D01*
X89519637Y-137329600D01*
X89576596Y-137467111D01*
X89659287Y-137590867D01*
X89764533Y-137696113D01*
X89888289Y-137778804D01*
X90025800Y-137835763D01*
X90171780Y-137864800D01*
X90320620Y-137864800D01*
X90466600Y-137835763D01*
X90604111Y-137778804D01*
X90727867Y-137696113D01*
X90832180Y-137591800D01*
X98524095Y-137591800D01*
X98547800Y-137594135D01*
X98571505Y-137591800D01*
X98571507Y-137591800D01*
X98642406Y-137584817D01*
X98733377Y-137557222D01*
X98817215Y-137512409D01*
X98890701Y-137452101D01*
X98905817Y-137433682D01*
X103813488Y-132526012D01*
X103831901Y-132510901D01*
X103892209Y-132437415D01*
X103937022Y-132353577D01*
X103964617Y-132262606D01*
X103971600Y-132191707D01*
X103971600Y-132191706D01*
X103973935Y-132168001D01*
X103971786Y-132146183D01*
X104050384Y-132104171D01*
X104203507Y-131978507D01*
X104329171Y-131825384D01*
X104422548Y-131650688D01*
X104480049Y-131461131D01*
X104489000Y-131370252D01*
X104497951Y-131461132D01*
X104555452Y-131650688D01*
X104648830Y-131825384D01*
X104774494Y-131978507D01*
X104927617Y-132104171D01*
X105006401Y-132146282D01*
X105006401Y-132309099D01*
X102437518Y-134877983D01*
X102437512Y-134877988D01*
X102435100Y-134880400D01*
X102287580Y-134880400D01*
X102141600Y-134909437D01*
X102004089Y-134966396D01*
X101880333Y-135049087D01*
X101775087Y-135154333D01*
X101692396Y-135278089D01*
X101635437Y-135415600D01*
X101606400Y-135561580D01*
X101606400Y-135710420D01*
X101635437Y-135856400D01*
X101692396Y-135993911D01*
X101775087Y-136117667D01*
X101880333Y-136222913D01*
X102004089Y-136305604D01*
X102141600Y-136362563D01*
X102287580Y-136391600D01*
X102436420Y-136391600D01*
X102582400Y-136362563D01*
X102719911Y-136305604D01*
X102843667Y-136222913D01*
X102948913Y-136117667D01*
X103031604Y-135993911D01*
X103088563Y-135856400D01*
X103117600Y-135710420D01*
X103117600Y-135562900D01*
X103120012Y-135560488D01*
X103120017Y-135560482D01*
X105813488Y-132867012D01*
X105831901Y-132851901D01*
X105892209Y-132778415D01*
X105937022Y-132694577D01*
X105960851Y-132616022D01*
X105964617Y-132603607D01*
X105973935Y-132509000D01*
X105971600Y-132485293D01*
X105971600Y-132146282D01*
X106050384Y-132104171D01*
X106203507Y-131978507D01*
X106329171Y-131825384D01*
X106422548Y-131650688D01*
X106438571Y-131597867D01*
X106475801Y-131711174D01*
X106582509Y-131900247D01*
X106724053Y-132064869D01*
X106894993Y-132198714D01*
X107088760Y-132296639D01*
X107290754Y-132353308D01*
X107463600Y-132256575D01*
X107463600Y-131064400D01*
X107443600Y-131064400D01*
X107443600Y-131013600D01*
X107463600Y-131013600D01*
X107463600Y-129821425D01*
X107290754Y-129724692D01*
X107088760Y-129781361D01*
X106894993Y-129879286D01*
X106724053Y-130013131D01*
X106582509Y-130177753D01*
X106475801Y-130366826D01*
X106438571Y-130480133D01*
X106422548Y-130427312D01*
X106329171Y-130252616D01*
X106203507Y-130099493D01*
X106050384Y-129973829D01*
X105875687Y-129880452D01*
X105686131Y-129822951D01*
X105489000Y-129803535D01*
X105291868Y-129822951D01*
X105102312Y-129880452D01*
X104927616Y-129973829D01*
X104774493Y-130099493D01*
X104648829Y-130252616D01*
X104555452Y-130427313D01*
X104497951Y-130616869D01*
X104489000Y-130707748D01*
X104480049Y-130616868D01*
X104422548Y-130427312D01*
X104329171Y-130252616D01*
X104203507Y-130099493D01*
X104050384Y-129973829D01*
X103875687Y-129880452D01*
X103686131Y-129822951D01*
X103489000Y-129803535D01*
X103291868Y-129822951D01*
X103102312Y-129880452D01*
X102927616Y-129973829D01*
X102774493Y-130099493D01*
X102648829Y-130252616D01*
X102555452Y-130427313D01*
X102497951Y-130616869D01*
X102489000Y-130707748D01*
X102480049Y-130616868D01*
X102422548Y-130427312D01*
X102329171Y-130252616D01*
X102203507Y-130099493D01*
X102050384Y-129973829D01*
X101875687Y-129880452D01*
X101686131Y-129822951D01*
X101489000Y-129803535D01*
X101291868Y-129822951D01*
X101102312Y-129880452D01*
X100927616Y-129973829D01*
X100774493Y-130099493D01*
X100648829Y-130252616D01*
X100555452Y-130427313D01*
X100497951Y-130616869D01*
X100489000Y-130707748D01*
X100480049Y-130616868D01*
X100422548Y-130427312D01*
X100329171Y-130252616D01*
X100203507Y-130099493D01*
X100050384Y-129973829D01*
X99875687Y-129880452D01*
X99686131Y-129822951D01*
X99489000Y-129803535D01*
X99291868Y-129822951D01*
X99102312Y-129880452D01*
X98927616Y-129973829D01*
X98774493Y-130099493D01*
X98648829Y-130252616D01*
X98555452Y-130427313D01*
X98497951Y-130616869D01*
X98489000Y-130707748D01*
X98480049Y-130616868D01*
X98422548Y-130427312D01*
X98329171Y-130252616D01*
X98203507Y-130099493D01*
X98050384Y-129973829D01*
X97875687Y-129880452D01*
X97686131Y-129822951D01*
X97489000Y-129803535D01*
X97291868Y-129822951D01*
X97102312Y-129880452D01*
X96927616Y-129973829D01*
X96774493Y-130099493D01*
X96648829Y-130252616D01*
X96555452Y-130427313D01*
X96497951Y-130616869D01*
X96489000Y-130707748D01*
X96480049Y-130616868D01*
X96422548Y-130427312D01*
X96329171Y-130252616D01*
X96203507Y-130099493D01*
X96050384Y-129973829D01*
X95875687Y-129880452D01*
X95686131Y-129822951D01*
X95489000Y-129803535D01*
X95291868Y-129822951D01*
X95102312Y-129880452D01*
X94927616Y-129973829D01*
X94774493Y-130099493D01*
X94648829Y-130252616D01*
X94555452Y-130427313D01*
X94497951Y-130616869D01*
X94483400Y-130764606D01*
X94483400Y-131313395D01*
X94497951Y-131461132D01*
X94555452Y-131650688D01*
X94648830Y-131825384D01*
X94774494Y-131978507D01*
X94927617Y-132104171D01*
X94996000Y-132140723D01*
X94996000Y-132306820D01*
X94891687Y-132411133D01*
X94808996Y-132534889D01*
X94752037Y-132672400D01*
X94723000Y-132818380D01*
X94723000Y-132967220D01*
X94752037Y-133113200D01*
X94808996Y-133250711D01*
X94875339Y-133350000D01*
X93219780Y-133350000D01*
X93115467Y-133245687D01*
X92991711Y-133162996D01*
X92854200Y-133106037D01*
X92708220Y-133077000D01*
X92559380Y-133077000D01*
X92413400Y-133106037D01*
X92275889Y-133162996D01*
X92152133Y-133245687D01*
X92046887Y-133350933D01*
X91964196Y-133474689D01*
X91907237Y-133612200D01*
X91878200Y-133758180D01*
X91878200Y-133907020D01*
X91907237Y-134053000D01*
X91964196Y-134190511D01*
X92046887Y-134314267D01*
X92152133Y-134419513D01*
X92275889Y-134502204D01*
X92413400Y-134559163D01*
X92559380Y-134588200D01*
X92708220Y-134588200D01*
X92854200Y-134559163D01*
X92991711Y-134502204D01*
X93115467Y-134419513D01*
X93219780Y-134315200D01*
X97800695Y-134315200D01*
X97824400Y-134317535D01*
X97848105Y-134315200D01*
X97848107Y-134315200D01*
X97919006Y-134308217D01*
X98009977Y-134280622D01*
X98093815Y-134235809D01*
X98167301Y-134175501D01*
X98182417Y-134157082D01*
X99813488Y-132526012D01*
X99831901Y-132510901D01*
X99892209Y-132437415D01*
X99937022Y-132353577D01*
X99951488Y-132305887D01*
X99964617Y-132262607D01*
X99973935Y-132168000D01*
X99971786Y-132146182D01*
X100050384Y-132104171D01*
X100203507Y-131978507D01*
X100329171Y-131825384D01*
X100422548Y-131650688D01*
X100480049Y-131461131D01*
X100489000Y-131370252D01*
X100497951Y-131461132D01*
X100555452Y-131650688D01*
X100648830Y-131825384D01*
X100774494Y-131978507D01*
X100896152Y-132078349D01*
X98125901Y-134848600D01*
X97156780Y-134848600D01*
X97052467Y-134744287D01*
X96928711Y-134661596D01*
X96791200Y-134604637D01*
X96645220Y-134575600D01*
X96496380Y-134575600D01*
X96350400Y-134604637D01*
X96212889Y-134661596D01*
X96089133Y-134744287D01*
X95983887Y-134849533D01*
X95901196Y-134973289D01*
X95844237Y-135110800D01*
X95815200Y-135256780D01*
X95815200Y-135405620D01*
X95844237Y-135551600D01*
X95901196Y-135689111D01*
X95983887Y-135812867D01*
X96089133Y-135918113D01*
X96212889Y-136000804D01*
X96350400Y-136057763D01*
X96496380Y-136086800D01*
X96645220Y-136086800D01*
X96791200Y-136057763D01*
X96928711Y-136000804D01*
X97052467Y-135918113D01*
X97156780Y-135813800D01*
X98302095Y-135813800D01*
X98325800Y-135816135D01*
X98349505Y-135813800D01*
X98349507Y-135813800D01*
X98420406Y-135806817D01*
X98511377Y-135779222D01*
X98595215Y-135734409D01*
X98668701Y-135674101D01*
X98683817Y-135655682D01*
X101813482Y-132526017D01*
X101831901Y-132510901D01*
X101892209Y-132437415D01*
X101937022Y-132353577D01*
X101964617Y-132262606D01*
X101971600Y-132191707D01*
X101971600Y-132191706D01*
X101973935Y-132168001D01*
X101971786Y-132146183D01*
X102050384Y-132104171D01*
X102203507Y-131978507D01*
X102329171Y-131825384D01*
X102422548Y-131650688D01*
X102480049Y-131461131D01*
X102489000Y-131370252D01*
X102497951Y-131461132D01*
X102555452Y-131650688D01*
X102648830Y-131825384D01*
X102774494Y-131978507D01*
X102896152Y-132078348D01*
X98347901Y-136626600D01*
X90832180Y-136626600D01*
X90727867Y-136522287D01*
X90604111Y-136439596D01*
X90466600Y-136382637D01*
X90320620Y-136353600D01*
X90171780Y-136353600D01*
X90025800Y-136382637D01*
X89888289Y-136439596D01*
X89764533Y-136522287D01*
X89659287Y-136627533D01*
X89576596Y-136751289D01*
X89519637Y-136888800D01*
X89490600Y-137034780D01*
X84979211Y-137034780D01*
X84979211Y-134570980D01*
X88474600Y-134570980D01*
X88474600Y-134719820D01*
X88503637Y-134865800D01*
X88560596Y-135003311D01*
X88643287Y-135127067D01*
X88748533Y-135232313D01*
X88872289Y-135315004D01*
X89009800Y-135371963D01*
X89155780Y-135401000D01*
X89304620Y-135401000D01*
X89450600Y-135371963D01*
X89588111Y-135315004D01*
X89711867Y-135232313D01*
X89817113Y-135127067D01*
X89899804Y-135003311D01*
X89956763Y-134865800D01*
X89985800Y-134719820D01*
X89985800Y-134623099D01*
X93720288Y-130888612D01*
X93738701Y-130873501D01*
X93755179Y-130853423D01*
X93799008Y-130800016D01*
X93805111Y-130788600D01*
X93843822Y-130716177D01*
X93849912Y-130696099D01*
X93871417Y-130625207D01*
X93880735Y-130530600D01*
X93878400Y-130506893D01*
X93878400Y-129033780D01*
X93982713Y-128929467D01*
X94065404Y-128805711D01*
X94122363Y-128668200D01*
X94151400Y-128522220D01*
X94151400Y-128373380D01*
X94122363Y-128227400D01*
X94065404Y-128089889D01*
X93982713Y-127966133D01*
X93877467Y-127860887D01*
X93753711Y-127778196D01*
X93616200Y-127721237D01*
X93470220Y-127692200D01*
X93321380Y-127692200D01*
X93175400Y-127721237D01*
X93037889Y-127778196D01*
X92914133Y-127860887D01*
X92808887Y-127966133D01*
X92726196Y-128089889D01*
X92669237Y-128227400D01*
X92640200Y-128373380D01*
X92640200Y-128522220D01*
X92669237Y-128668200D01*
X92726196Y-128805711D01*
X92808887Y-128929467D01*
X92913200Y-129033780D01*
X92913201Y-130330699D01*
X89345892Y-133898009D01*
X89304620Y-133889800D01*
X89155780Y-133889800D01*
X89009800Y-133918837D01*
X88872289Y-133975796D01*
X88748533Y-134058487D01*
X88643287Y-134163733D01*
X88560596Y-134287489D01*
X88503637Y-134425000D01*
X88474600Y-134570980D01*
X84979211Y-134570980D01*
X84979211Y-123989242D01*
X85153934Y-124105989D01*
X85373340Y-124196869D01*
X85606259Y-124243200D01*
X85843741Y-124243200D01*
X86076660Y-124196869D01*
X86296066Y-124105989D01*
X86493525Y-123974050D01*
X86661450Y-123806125D01*
X86793389Y-123608666D01*
X86830033Y-123520200D01*
X89148809Y-123520201D01*
X89152221Y-123520201D01*
X89256534Y-123624514D01*
X89380290Y-123707205D01*
X89517801Y-123764164D01*
X89663781Y-123793201D01*
X89812621Y-123793201D01*
X89958601Y-123764164D01*
X90096112Y-123707205D01*
X90219868Y-123624514D01*
X90325114Y-123519268D01*
X90407805Y-123395512D01*
X90464764Y-123258001D01*
X90493801Y-123112021D01*
X90493801Y-122963181D01*
X90464764Y-122817201D01*
X90407805Y-122679690D01*
X90325114Y-122555934D01*
X90219868Y-122450688D01*
X90096112Y-122367997D01*
X89958601Y-122311038D01*
X89812621Y-122282001D01*
X89663781Y-122282001D01*
X89517801Y-122311038D01*
X89380290Y-122367997D01*
X89256534Y-122450688D01*
X89152221Y-122555001D01*
X89148809Y-122555001D01*
X89148799Y-122555002D01*
X86830033Y-122555001D01*
X86793389Y-122466534D01*
X86661450Y-122269075D01*
X86493525Y-122101150D01*
X86296066Y-121969211D01*
X86076660Y-121878331D01*
X85843741Y-121832000D01*
X85606259Y-121832000D01*
X85373340Y-121878331D01*
X85153934Y-121969211D01*
X84979211Y-122085958D01*
X84979211Y-121566185D01*
X85020461Y-121598690D01*
X85248811Y-121714982D01*
X85495460Y-121784490D01*
X85699600Y-121690254D01*
X85699600Y-120523000D01*
X85750400Y-120523000D01*
X85750400Y-121690254D01*
X85954540Y-121784490D01*
X86201189Y-121714982D01*
X86429539Y-121598690D01*
X86630813Y-121440084D01*
X86709834Y-121347600D01*
X88301788Y-121347600D01*
X88310615Y-121437227D01*
X88336759Y-121523409D01*
X88379213Y-121602836D01*
X88436347Y-121672453D01*
X88505964Y-121729587D01*
X88585391Y-121772041D01*
X88671573Y-121798185D01*
X88761200Y-121807012D01*
X89471500Y-121804800D01*
X89585800Y-121690500D01*
X89585800Y-120523000D01*
X89636600Y-120523000D01*
X89636600Y-121690500D01*
X89750900Y-121804800D01*
X90461200Y-121807012D01*
X90550827Y-121798185D01*
X90637009Y-121772041D01*
X90716436Y-121729587D01*
X90786053Y-121672453D01*
X90843187Y-121602836D01*
X90885641Y-121523409D01*
X90911785Y-121437227D01*
X90920612Y-121347600D01*
X90918400Y-120637300D01*
X90804100Y-120523000D01*
X89636600Y-120523000D01*
X89585800Y-120523000D01*
X88418300Y-120523000D01*
X88304000Y-120637300D01*
X88301788Y-121347600D01*
X86709834Y-121347600D01*
X86797278Y-121245259D01*
X86922536Y-121021702D01*
X87001773Y-120778004D01*
X87011889Y-120727140D01*
X86917630Y-120523000D01*
X85750400Y-120523000D01*
X85699600Y-120523000D01*
X85679600Y-120523000D01*
X85679600Y-120472200D01*
X85699600Y-120472200D01*
X85699600Y-119304946D01*
X85750400Y-119304946D01*
X85750400Y-120472200D01*
X86917630Y-120472200D01*
X87011889Y-120268060D01*
X87001773Y-120217196D01*
X86922536Y-119973498D01*
X86797278Y-119749941D01*
X86709835Y-119647600D01*
X88301788Y-119647600D01*
X88304000Y-120357900D01*
X88418300Y-120472200D01*
X89585800Y-120472200D01*
X89585800Y-119304700D01*
X89636600Y-119304700D01*
X89636600Y-120472200D01*
X90804100Y-120472200D01*
X90918400Y-120357900D01*
X90920612Y-119647600D01*
X90911785Y-119557973D01*
X90885641Y-119471791D01*
X90843187Y-119392364D01*
X90786053Y-119322747D01*
X90716436Y-119265613D01*
X90637009Y-119223159D01*
X90550827Y-119197015D01*
X90461200Y-119188188D01*
X89750900Y-119190400D01*
X89636600Y-119304700D01*
X89585800Y-119304700D01*
X89471500Y-119190400D01*
X88761200Y-119188188D01*
X88671573Y-119197015D01*
X88585391Y-119223159D01*
X88505964Y-119265613D01*
X88436347Y-119322747D01*
X88379213Y-119392364D01*
X88336759Y-119471791D01*
X88310615Y-119557973D01*
X88301788Y-119647600D01*
X86709835Y-119647600D01*
X86630813Y-119555116D01*
X86429539Y-119396510D01*
X86201189Y-119280218D01*
X85954540Y-119210710D01*
X85750400Y-119304946D01*
X85699600Y-119304946D01*
X85495460Y-119210710D01*
X85248811Y-119280218D01*
X85020461Y-119396510D01*
X84979211Y-119429015D01*
X84979211Y-118909242D01*
X85153934Y-119025989D01*
X85373340Y-119116869D01*
X85606259Y-119163200D01*
X85843741Y-119163200D01*
X86076660Y-119116869D01*
X86296066Y-119025989D01*
X86493525Y-118894050D01*
X86661450Y-118726125D01*
X86793389Y-118528666D01*
X86884269Y-118309260D01*
X86930600Y-118076341D01*
X86930600Y-117838859D01*
X86884269Y-117605940D01*
X86793389Y-117386534D01*
X86661450Y-117189075D01*
X86493525Y-117021150D01*
X86296066Y-116889211D01*
X86076660Y-116798331D01*
X85843741Y-116752000D01*
X85606259Y-116752000D01*
X85373340Y-116798331D01*
X85153934Y-116889211D01*
X84979211Y-117005958D01*
X84979211Y-116369242D01*
X85153934Y-116485989D01*
X85373340Y-116576869D01*
X85606259Y-116623200D01*
X85843741Y-116623200D01*
X86076660Y-116576869D01*
X86296066Y-116485989D01*
X86493525Y-116354050D01*
X86661450Y-116186125D01*
X86793389Y-115988666D01*
X86884269Y-115769260D01*
X86930600Y-115536341D01*
X86930600Y-115298859D01*
X88405600Y-115298859D01*
X88405600Y-115536341D01*
X88451931Y-115769260D01*
X88542811Y-115988666D01*
X88674750Y-116186125D01*
X88842675Y-116354050D01*
X89040134Y-116485989D01*
X89259540Y-116576869D01*
X89492459Y-116623200D01*
X89729941Y-116623200D01*
X89962860Y-116576869D01*
X90182266Y-116485989D01*
X90379725Y-116354050D01*
X90547650Y-116186125D01*
X90679589Y-115988666D01*
X90705712Y-115925600D01*
X90909901Y-115925600D01*
X91513012Y-116528712D01*
X91513012Y-117830712D01*
X91315417Y-117633118D01*
X91300301Y-117614699D01*
X91226815Y-117554391D01*
X91142977Y-117509578D01*
X91052006Y-117481983D01*
X90981107Y-117475000D01*
X90981105Y-117475000D01*
X90957400Y-117472665D01*
X90933695Y-117475000D01*
X90716232Y-117475000D01*
X90679589Y-117386534D01*
X90547650Y-117189075D01*
X90379725Y-117021150D01*
X90182266Y-116889211D01*
X89962860Y-116798331D01*
X89729941Y-116752000D01*
X89492459Y-116752000D01*
X89259540Y-116798331D01*
X89040134Y-116889211D01*
X88842675Y-117021150D01*
X88674750Y-117189075D01*
X88542811Y-117386534D01*
X88451931Y-117605940D01*
X88405600Y-117838859D01*
X88405600Y-118076341D01*
X88451931Y-118309260D01*
X88542811Y-118528666D01*
X88674750Y-118726125D01*
X88842675Y-118894050D01*
X89040134Y-119025989D01*
X89259540Y-119116869D01*
X89492459Y-119163200D01*
X89729941Y-119163200D01*
X89962860Y-119116869D01*
X90182266Y-119025989D01*
X90379725Y-118894050D01*
X90547650Y-118726125D01*
X90679589Y-118528666D01*
X90716232Y-118440200D01*
X90757501Y-118440200D01*
X91059000Y-118741700D01*
X91059001Y-125829819D01*
X90954687Y-125934133D01*
X90871996Y-126057889D01*
X90815037Y-126195400D01*
X90786000Y-126341380D01*
X90786000Y-126490220D01*
X90815037Y-126636200D01*
X90871996Y-126773711D01*
X90954687Y-126897467D01*
X91059933Y-127002713D01*
X91183689Y-127085404D01*
X91321200Y-127142363D01*
X91467180Y-127171400D01*
X91616020Y-127171400D01*
X91762000Y-127142363D01*
X91899511Y-127085404D01*
X92023267Y-127002713D01*
X92128513Y-126897467D01*
X92211204Y-126773711D01*
X92268163Y-126636200D01*
X92297200Y-126490220D01*
X92297200Y-126341380D01*
X92268163Y-126195400D01*
X92211204Y-126057889D01*
X92128513Y-125934133D01*
X92024200Y-125829820D01*
X92024200Y-124863099D01*
X92656788Y-125495687D01*
X92671899Y-125514101D01*
X92745385Y-125574409D01*
X92786901Y-125596600D01*
X92829223Y-125619222D01*
X92920193Y-125646817D01*
X93014800Y-125656135D01*
X93038507Y-125653800D01*
X97813620Y-125653800D01*
X97917933Y-125758113D01*
X98041689Y-125840804D01*
X98179200Y-125897763D01*
X98325180Y-125926800D01*
X98474020Y-125926800D01*
X98620000Y-125897763D01*
X98757511Y-125840804D01*
X98881267Y-125758113D01*
X98986513Y-125652867D01*
X99069204Y-125529111D01*
X99126163Y-125391600D01*
X99155200Y-125245620D01*
X99155200Y-125096780D01*
X99126163Y-124950800D01*
X99069204Y-124813289D01*
X98986513Y-124689533D01*
X98881267Y-124584287D01*
X98757511Y-124501596D01*
X98620000Y-124444637D01*
X98474020Y-124415600D01*
X98325180Y-124415600D01*
X98179200Y-124444637D01*
X98041689Y-124501596D01*
X97917933Y-124584287D01*
X97813620Y-124688600D01*
X93214700Y-124688600D01*
X92478211Y-123952112D01*
X92478211Y-121083580D01*
X92513201Y-121083580D01*
X92513201Y-121232420D01*
X92542238Y-121378400D01*
X92599197Y-121515911D01*
X92681888Y-121639667D01*
X92787134Y-121744913D01*
X92910890Y-121827604D01*
X93048401Y-121884563D01*
X93194381Y-121913600D01*
X93343221Y-121913600D01*
X93489201Y-121884563D01*
X93626712Y-121827604D01*
X93750468Y-121744913D01*
X93854781Y-121640600D01*
X100125020Y-121640600D01*
X100229333Y-121744913D01*
X100353089Y-121827604D01*
X100490600Y-121884563D01*
X100636580Y-121913600D01*
X100785420Y-121913600D01*
X100931400Y-121884563D01*
X101068911Y-121827604D01*
X101192667Y-121744913D01*
X101297913Y-121639667D01*
X101380604Y-121515911D01*
X101437563Y-121378400D01*
X101466600Y-121232420D01*
X101466600Y-121083580D01*
X101437563Y-120937600D01*
X101380604Y-120800089D01*
X101297913Y-120676333D01*
X101192667Y-120571087D01*
X101068911Y-120488396D01*
X100931400Y-120431437D01*
X100785420Y-120402400D01*
X100636580Y-120402400D01*
X100490600Y-120431437D01*
X100353089Y-120488396D01*
X100229333Y-120571087D01*
X100125020Y-120675400D01*
X93854781Y-120675400D01*
X93750468Y-120571087D01*
X93626712Y-120488396D01*
X93489201Y-120431437D01*
X93343221Y-120402400D01*
X93194381Y-120402400D01*
X93048401Y-120431437D01*
X92910890Y-120488396D01*
X92787134Y-120571087D01*
X92681888Y-120676333D01*
X92599197Y-120800089D01*
X92542238Y-120937600D01*
X92513201Y-121083580D01*
X92478211Y-121083580D01*
X92478211Y-116352518D01*
X92480546Y-116328811D01*
X92471228Y-116234204D01*
X92443633Y-116143234D01*
X92398820Y-116059396D01*
X92338512Y-115985910D01*
X92320098Y-115970799D01*
X91467817Y-115118518D01*
X91452701Y-115100099D01*
X91379215Y-115039791D01*
X91295377Y-114994978D01*
X91204406Y-114967383D01*
X91133507Y-114960400D01*
X91133505Y-114960400D01*
X91109800Y-114958065D01*
X91086095Y-114960400D01*
X90726753Y-114960400D01*
X90679589Y-114846534D01*
X90547650Y-114649075D01*
X90379725Y-114481150D01*
X90182266Y-114349211D01*
X89962860Y-114258331D01*
X89729941Y-114212000D01*
X89492459Y-114212000D01*
X89259540Y-114258331D01*
X89040134Y-114349211D01*
X88842675Y-114481150D01*
X88674750Y-114649075D01*
X88542811Y-114846534D01*
X88451931Y-115065940D01*
X88405600Y-115298859D01*
X86930600Y-115298859D01*
X86884269Y-115065940D01*
X86793389Y-114846534D01*
X86661450Y-114649075D01*
X86493525Y-114481150D01*
X86296066Y-114349211D01*
X86076660Y-114258331D01*
X85843741Y-114212000D01*
X85606259Y-114212000D01*
X85373340Y-114258331D01*
X85153934Y-114349211D01*
X84979211Y-114465958D01*
X84979211Y-114303059D01*
X85231529Y-114050742D01*
X85231533Y-114050737D01*
X85282873Y-113999397D01*
X85373340Y-114036869D01*
X85606259Y-114083200D01*
X85843741Y-114083200D01*
X86076660Y-114036869D01*
X86296066Y-113945989D01*
X86493525Y-113814050D01*
X86661450Y-113646125D01*
X86793389Y-113448666D01*
X86884269Y-113229260D01*
X86930600Y-112996341D01*
X86930600Y-112758859D01*
X88405600Y-112758859D01*
X88405600Y-112996341D01*
X88451931Y-113229260D01*
X88542811Y-113448666D01*
X88674750Y-113646125D01*
X88842675Y-113814050D01*
X89040134Y-113945989D01*
X89259540Y-114036869D01*
X89492459Y-114083200D01*
X89729941Y-114083200D01*
X89962860Y-114036869D01*
X90059161Y-113996980D01*
X92894198Y-113996980D01*
X92894198Y-114145820D01*
X92923235Y-114291800D01*
X92980194Y-114429311D01*
X93062885Y-114553067D01*
X93168131Y-114658313D01*
X93291887Y-114741004D01*
X93429398Y-114797963D01*
X93575378Y-114827000D01*
X93722899Y-114827000D01*
X96037400Y-117141502D01*
X96037401Y-119175019D01*
X95933087Y-119279333D01*
X95850396Y-119403089D01*
X95793437Y-119540600D01*
X95764400Y-119686580D01*
X95764400Y-119835420D01*
X95793437Y-119981400D01*
X95850396Y-120118911D01*
X95933087Y-120242667D01*
X96038333Y-120347913D01*
X96162089Y-120430604D01*
X96299600Y-120487563D01*
X96445580Y-120516600D01*
X96594420Y-120516600D01*
X96740400Y-120487563D01*
X96877911Y-120430604D01*
X97001667Y-120347913D01*
X97106913Y-120242667D01*
X97189604Y-120118911D01*
X97246563Y-119981400D01*
X97275600Y-119835420D01*
X97275600Y-119686580D01*
X97246563Y-119540600D01*
X97189604Y-119403089D01*
X97106913Y-119279333D01*
X97002600Y-119175020D01*
X97002600Y-116965309D01*
X97004935Y-116941602D01*
X96995617Y-116846995D01*
X96968022Y-116756025D01*
X96936367Y-116696804D01*
X96923209Y-116672187D01*
X96862901Y-116598701D01*
X96844488Y-116583590D01*
X94405398Y-114144501D01*
X94405398Y-113996980D01*
X94376361Y-113851000D01*
X94319402Y-113713489D01*
X94236711Y-113589733D01*
X94131465Y-113484487D01*
X94007709Y-113401796D01*
X93870198Y-113344837D01*
X93724218Y-113315800D01*
X93575378Y-113315800D01*
X93429398Y-113344837D01*
X93291887Y-113401796D01*
X93168131Y-113484487D01*
X93062885Y-113589733D01*
X92980194Y-113713489D01*
X92923235Y-113851000D01*
X92894198Y-113996980D01*
X90059161Y-113996980D01*
X90182266Y-113945989D01*
X90379725Y-113814050D01*
X90547650Y-113646125D01*
X90679589Y-113448666D01*
X90770469Y-113229260D01*
X90816800Y-112996341D01*
X90816800Y-112922518D01*
X98141403Y-112922518D01*
X98222854Y-113136722D01*
X98451730Y-113265098D01*
X98701254Y-113346355D01*
X98961834Y-113377371D01*
X99223460Y-113356954D01*
X99476074Y-113285889D01*
X99709971Y-113166907D01*
X99755146Y-113136722D01*
X99836597Y-112922518D01*
X98989000Y-112074921D01*
X98141403Y-112922518D01*
X90816800Y-112922518D01*
X90816800Y-112758859D01*
X90770469Y-112525940D01*
X90679589Y-112306534D01*
X90547650Y-112109075D01*
X90450409Y-112011834D01*
X97650629Y-112011834D01*
X97671046Y-112273460D01*
X97742111Y-112526074D01*
X97861093Y-112759971D01*
X97891278Y-112805146D01*
X98105482Y-112886597D01*
X98953079Y-112039000D01*
X98105482Y-111191403D01*
X97891278Y-111272854D01*
X97762902Y-111501730D01*
X97681645Y-111751254D01*
X97650629Y-112011834D01*
X90450409Y-112011834D01*
X90379725Y-111941150D01*
X90182266Y-111809211D01*
X89962860Y-111718331D01*
X89729941Y-111672000D01*
X89492459Y-111672000D01*
X89259540Y-111718331D01*
X89040134Y-111809211D01*
X88842675Y-111941150D01*
X88674750Y-112109075D01*
X88542811Y-112306534D01*
X88451931Y-112525940D01*
X88405600Y-112758859D01*
X86930600Y-112758859D01*
X86884269Y-112525940D01*
X86793389Y-112306534D01*
X86661450Y-112109075D01*
X86493525Y-111941150D01*
X86296066Y-111809211D01*
X86076660Y-111718331D01*
X85843741Y-111672000D01*
X85606259Y-111672000D01*
X85373340Y-111718331D01*
X85153934Y-111809211D01*
X84956475Y-111941150D01*
X84788550Y-112109075D01*
X84656611Y-112306534D01*
X84565731Y-112525940D01*
X84529200Y-112709592D01*
X84529200Y-112213070D01*
X85282874Y-111459397D01*
X85373340Y-111496869D01*
X85606259Y-111543200D01*
X85843741Y-111543200D01*
X86076660Y-111496869D01*
X86296066Y-111405989D01*
X86493525Y-111274050D01*
X86661450Y-111106125D01*
X86793389Y-110908666D01*
X86884269Y-110689260D01*
X86930600Y-110456341D01*
X86930600Y-110388400D01*
X96038988Y-110388400D01*
X96047815Y-110478027D01*
X96073959Y-110564209D01*
X96116413Y-110643636D01*
X96173547Y-110713253D01*
X96243164Y-110770387D01*
X96322591Y-110812841D01*
X96408773Y-110838985D01*
X96498400Y-110847812D01*
X97108700Y-110845600D01*
X97223000Y-110731300D01*
X97223000Y-107873800D01*
X96155500Y-107873800D01*
X96041200Y-107988100D01*
X96038988Y-110388400D01*
X86930600Y-110388400D01*
X86930600Y-110218859D01*
X86884269Y-109985940D01*
X86793389Y-109766534D01*
X86661450Y-109569075D01*
X86493525Y-109401150D01*
X86296066Y-109269211D01*
X86076660Y-109178331D01*
X85843741Y-109132000D01*
X85606259Y-109132000D01*
X85373340Y-109178331D01*
X85153934Y-109269211D01*
X84956475Y-109401150D01*
X84788550Y-109569075D01*
X84656611Y-109766534D01*
X84565731Y-109985940D01*
X84519400Y-110218859D01*
X84519400Y-110456341D01*
X84565731Y-110689260D01*
X84603203Y-110779726D01*
X83725465Y-111657465D01*
X83707120Y-111672520D01*
X83647063Y-111745701D01*
X83602435Y-111829194D01*
X83574954Y-111919787D01*
X83568000Y-111990393D01*
X83565675Y-112014000D01*
X83473600Y-112014000D01*
X83473600Y-107081331D01*
X83486712Y-106947600D01*
X84517680Y-106947600D01*
X84517680Y-108647600D01*
X84524546Y-108717310D01*
X84544879Y-108784340D01*
X84577899Y-108846116D01*
X84622337Y-108900263D01*
X84676484Y-108944701D01*
X84738260Y-108977721D01*
X84805290Y-108998054D01*
X84875000Y-109004920D01*
X86575000Y-109004920D01*
X86644710Y-108998054D01*
X86711740Y-108977721D01*
X86773516Y-108944701D01*
X86827663Y-108900263D01*
X86872101Y-108846116D01*
X86905121Y-108784340D01*
X86925454Y-108717310D01*
X86932320Y-108647600D01*
X86932320Y-106947600D01*
X86925454Y-106877890D01*
X86905121Y-106810860D01*
X86872101Y-106749084D01*
X86827663Y-106694937D01*
X86773516Y-106650499D01*
X86711740Y-106617479D01*
X86644710Y-106597146D01*
X86575000Y-106590280D01*
X84875000Y-106590280D01*
X84805290Y-106597146D01*
X84738260Y-106617479D01*
X84676484Y-106650499D01*
X84622337Y-106694937D01*
X84577899Y-106749084D01*
X84544879Y-106810860D01*
X84524546Y-106877890D01*
X84517680Y-106947600D01*
X83486712Y-106947600D01*
X83506340Y-106747424D01*
X83597405Y-106445799D01*
X83745327Y-106167599D01*
X83944462Y-105923435D01*
X84187235Y-105722597D01*
X84464392Y-105572738D01*
X84765383Y-105479566D01*
X85098066Y-105444600D01*
X96039114Y-105444600D01*
X96041200Y-107708700D01*
M02*
