M48
; DRILL file {KiCad (5.1.5-0-10_14)} date 2020 December 13, Sunday 17:31:04
; FORMAT={-:-/ absolute / metric / decimal}
; #@! TF.CreationDate,2020-12-13T17:31:04+01:00
; #@! TF.GenerationSoftware,Kicad,Pcbnew,(5.1.5-0-10_14)
FMAT,2
METRIC
T1C0.400
T2C1.000
%
G90
G05
T1
X84.506Y-144.831
X85.09Y-143.408
X89.23Y-134.645
X89.738Y-123.038
X90.246Y-137.109
X91.542Y-126.416
X92.634Y-133.833
X93.269Y-121.158
X93.396Y-128.448
X93.65Y-114.071
X94.234Y-106.68
X94.234Y-108.458
X94.234Y-109.982
X94.234Y-112.014
X95.479Y-132.893
X95.504Y-105.918
X95.504Y-107.442
X95.504Y-109.22
X95.504Y-110.998
X95.504Y-113.03
X96.52Y-119.761
X96.571Y-135.331
X96.774Y-112.014
X97.282Y-114.046
X98.298Y-115.57
X98.298Y-146.101
X98.4Y-125.171
X99.314Y-114.046
X100.584Y-115.57
X100.711Y-121.158
X100.965Y-145.161
X101.6Y-114.046
X102.362Y-135.636
X102.87Y-115.57
X103.886Y-114.046
X104.902Y-115.189
X105.105Y-129.083
X105.918Y-112.014
X106.172Y-114.046
X106.426Y-121.158
X107.442Y-105.918
X107.442Y-107.442
X107.442Y-109.22
X107.442Y-110.998
X107.442Y-113.03
X108.712Y-106.68
X108.712Y-108.204
X108.712Y-109.982
X108.712Y-112.014
X109.982Y-121.158
X110.947Y-116.027
X110.947Y-131.039
X111.887Y-122.428
X113.284Y-124.841
X115.646Y-133.528
X118.872Y-118.364
X120.6Y-126.45
X123.19Y-118.364
T2
X116.18Y-142.951
X118.72Y-142.951
X121.26Y-142.951
X94.209Y-142.85
X89.611Y-112.878
X89.611Y-115.418
X89.611Y-117.958
X89.611Y-120.498
X119.507Y-130.175
X119.507Y-132.715
X119.507Y-135.255
X119.507Y-137.795
X122.047Y-130.175
X122.047Y-132.715
X122.047Y-135.255
X122.047Y-137.795
X101.498Y-109.347
X98.044Y-138.989
X94.209Y-138.989
X98.044Y-142.85
X85.725Y-107.798
X85.725Y-110.338
X85.725Y-112.878
X85.725Y-115.418
X85.725Y-117.958
X85.725Y-120.498
X85.725Y-123.038
X96.164Y-140.945
T0
M30
