G04 #@! TF.GenerationSoftware,KiCad,Pcbnew,(7.0.0-0)*
G04 #@! TF.CreationDate,2023-06-06T23:20:23+02:00*
G04 #@! TF.ProjectId,ithowifi_4l,6974686f-7769-4666-995f-346c2e6b6963,rev?*
G04 #@! TF.SameCoordinates,Original*
G04 #@! TF.FileFunction,Copper,L3,Inr*
G04 #@! TF.FilePolarity,Positive*
%FSLAX46Y46*%
G04 Gerber Fmt 4.6, Leading zero omitted, Abs format (unit mm)*
G04 Created by KiCad (PCBNEW (7.0.0-0)) date 2023-06-06 23:20:23*
%MOMM*%
%LPD*%
G01*
G04 APERTURE LIST*
G04 Aperture macros list*
%AMRoundRect*
0 Rectangle with rounded corners*
0 $1 Rounding radius*
0 $2 $3 $4 $5 $6 $7 $8 $9 X,Y pos of 4 corners*
0 Add a 4 corners polygon primitive as box body*
4,1,4,$2,$3,$4,$5,$6,$7,$8,$9,$2,$3,0*
0 Add four circle primitives for the rounded corners*
1,1,$1+$1,$2,$3*
1,1,$1+$1,$4,$5*
1,1,$1+$1,$6,$7*
1,1,$1+$1,$8,$9*
0 Add four rect primitives between the rounded corners*
20,1,$1+$1,$2,$3,$4,$5,0*
20,1,$1+$1,$4,$5,$6,$7,0*
20,1,$1+$1,$6,$7,$8,$9,0*
20,1,$1+$1,$8,$9,$2,$3,0*%
G04 Aperture macros list end*
G04 #@! TA.AperFunction,ComponentPad*
%ADD10R,1.700000X1.700000*%
G04 #@! TD*
G04 #@! TA.AperFunction,ComponentPad*
%ADD11O,1.700000X1.700000*%
G04 #@! TD*
G04 #@! TA.AperFunction,ComponentPad*
%ADD12RoundRect,0.273000X-0.677000X0.637000X-0.677000X-0.637000X0.677000X-0.637000X0.677000X0.637000X0*%
G04 #@! TD*
G04 #@! TA.AperFunction,ComponentPad*
%ADD13O,1.250000X1.050000*%
G04 #@! TD*
G04 #@! TA.AperFunction,ComponentPad*
%ADD14C,1.446000*%
G04 #@! TD*
G04 #@! TA.AperFunction,ComponentPad*
%ADD15C,2.700000*%
G04 #@! TD*
G04 #@! TA.AperFunction,ComponentPad*
%ADD16C,2.000000*%
G04 #@! TD*
G04 #@! TA.AperFunction,ViaPad*
%ADD17C,0.800000*%
G04 #@! TD*
G04 APERTURE END LIST*
D10*
X75666599Y-154025599D03*
D11*
X73126599Y-154025599D03*
X75666599Y-151485599D03*
X73126599Y-151485599D03*
D12*
X54178200Y-124768000D03*
D13*
X57078199Y-123592999D03*
D12*
X54178200Y-117568000D03*
D13*
X57078199Y-118742999D03*
D14*
X59372500Y-142176500D03*
X61152500Y-141156500D03*
X59372500Y-140136500D03*
X61152500Y-139116500D03*
X59372500Y-138096500D03*
X61152500Y-137076500D03*
X59372500Y-136056500D03*
X61152500Y-135036500D03*
X65962500Y-145466500D03*
X65962500Y-143176500D03*
X65962500Y-134036500D03*
X65962500Y-131746500D03*
D15*
X60392500Y-130476500D03*
X60392500Y-146736500D03*
D10*
X63245999Y-114299999D03*
D11*
X60705999Y-114299999D03*
X63245999Y-111759999D03*
X60705999Y-111759999D03*
D16*
X89052400Y-110032800D03*
D17*
X85039200Y-121531200D03*
X85039200Y-123731200D03*
X85039200Y-122631200D03*
X92202000Y-116078000D03*
X89027000Y-112776000D03*
X93599000Y-114935000D03*
X92710000Y-114046000D03*
X91567000Y-112903000D03*
X86995000Y-111887000D03*
X88265000Y-111887000D03*
X85598000Y-111887000D03*
X91694000Y-111887000D03*
X109270800Y-148844000D03*
X76225400Y-114427000D03*
X96578000Y-114173000D03*
X94488000Y-118745000D03*
X79121000Y-134112000D03*
X100177600Y-142824200D03*
X115062000Y-114173000D03*
X100177600Y-141300200D03*
X100177600Y-139750800D03*
X90043000Y-113919000D03*
X94488000Y-116078000D03*
X111838000Y-114173000D03*
X98679000Y-139750800D03*
X101678000Y-114173000D03*
X103378000Y-114173000D03*
X90551000Y-111887000D03*
X97155000Y-139725400D03*
X98679000Y-141300200D03*
X69088000Y-132969000D03*
X108438000Y-114173000D03*
X98278000Y-114173000D03*
X92202000Y-117348000D03*
X79121000Y-135255000D03*
X84201000Y-111887000D03*
X84201000Y-107442000D03*
X94878000Y-114173000D03*
X106738000Y-114173000D03*
X69088000Y-135255000D03*
X82473800Y-114325400D03*
X97155000Y-141274800D03*
X110138000Y-114173000D03*
X69088000Y-134112000D03*
X92710000Y-118745000D03*
X98679000Y-142824200D03*
X91059000Y-114935000D03*
X113538000Y-114173000D03*
X87630000Y-148590000D03*
X84201000Y-108966000D03*
X105038000Y-114173000D03*
X79121000Y-132969000D03*
X105308400Y-148640800D03*
X99978000Y-114173000D03*
X94869000Y-117348000D03*
X97155000Y-142798800D03*
X84201000Y-110490000D03*
X58510873Y-126883727D03*
X79121000Y-131572000D03*
X70739000Y-140538200D03*
X58510873Y-119790990D03*
X79121000Y-124815600D03*
X80010000Y-120904000D03*
X74828400Y-121531200D03*
X74828400Y-123731200D03*
X74828400Y-122631200D03*
X75844400Y-110299500D03*
X75844400Y-108458000D03*
X77495400Y-108458000D03*
X79336900Y-108458000D03*
X81241900Y-108458000D03*
X81241900Y-110236000D03*
X66120300Y-152467600D03*
X113030000Y-133578600D03*
X64770000Y-117221000D03*
X71501000Y-112445800D03*
X70561200Y-128371600D03*
X83312000Y-147320000D03*
X101600000Y-137795000D03*
X77927200Y-145097506D03*
X105206800Y-147370800D03*
X81280000Y-141859000D03*
X111125000Y-146050000D03*
X88392000Y-126365000D03*
X77927200Y-149098000D03*
X93980000Y-140462000D03*
X87376000Y-139700000D03*
X94361000Y-138430000D03*
X86487000Y-137160000D03*
X87376000Y-133350000D03*
X79502000Y-144526000D03*
X103733600Y-133375400D03*
X105029000Y-137160000D03*
X79502000Y-146050000D03*
X66014600Y-136626600D03*
X68943500Y-136634500D03*
X82778600Y-143281400D03*
X68326000Y-114681000D03*
X85852000Y-142036800D03*
X84658200Y-143154400D03*
X68326000Y-115951000D03*
X60071000Y-119761000D03*
X63119000Y-119761000D03*
X72644000Y-145669000D03*
X72567800Y-141681200D03*
X73914000Y-115951000D03*
X98044000Y-122428000D03*
X94615000Y-123825000D03*
X73914000Y-117856000D03*
G04 #@! TA.AperFunction,Conductor*
G36*
X84785700Y-106731978D02*
G01*
X84822522Y-106768800D01*
X84836000Y-106819100D01*
X84836000Y-111379000D01*
X92254486Y-111379000D01*
X92304797Y-111392484D01*
X92341620Y-111429321D01*
X92355085Y-111479634D01*
X92354908Y-111968475D01*
X92354699Y-112545203D01*
X92354668Y-112547672D01*
X92352722Y-112625754D01*
X92352722Y-112625760D01*
X92352607Y-112630393D01*
X92353342Y-112634970D01*
X92353343Y-112634972D01*
X92371915Y-112750496D01*
X92379354Y-112796763D01*
X92380908Y-112801111D01*
X92380909Y-112801115D01*
X92434506Y-112951085D01*
X92434508Y-112951090D01*
X92436063Y-112955440D01*
X92438387Y-112959434D01*
X92438388Y-112959435D01*
X92455893Y-112989513D01*
X92520824Y-113101077D01*
X92630781Y-113228764D01*
X92762226Y-113334199D01*
X92766303Y-113336385D01*
X92766306Y-113336387D01*
X92820364Y-113365373D01*
X92910731Y-113413828D01*
X93071290Y-113464968D01*
X93238492Y-113485895D01*
X93318111Y-113481125D01*
X93324120Y-113480946D01*
X109656805Y-113481803D01*
X109656806Y-113481804D01*
X109656805Y-113486028D01*
X109656808Y-113486028D01*
X109656808Y-113481806D01*
X109672975Y-113481805D01*
X109673216Y-113481837D01*
X109673216Y-113481843D01*
X109736073Y-113481901D01*
X109858685Y-113454153D01*
X109965893Y-113403014D01*
X110015583Y-113393418D01*
X110063663Y-113409233D01*
X110097956Y-113446460D01*
X110109782Y-113495673D01*
X110109247Y-113524599D01*
X110109247Y-113524602D01*
X110109000Y-113538000D01*
X115680900Y-113538000D01*
X115731200Y-113551478D01*
X115768022Y-113588300D01*
X115781500Y-113638600D01*
X115781500Y-149666405D01*
X115768023Y-149716704D01*
X115731202Y-149753526D01*
X115680903Y-149767005D01*
X81545242Y-149767999D01*
X81545239Y-149767999D01*
X81532000Y-149768000D01*
X81532000Y-149781242D01*
X81532000Y-156316900D01*
X81518522Y-156367200D01*
X81481700Y-156404022D01*
X81431400Y-156417500D01*
X53238591Y-156417500D01*
X53225460Y-156416639D01*
X53128792Y-156403912D01*
X53103425Y-156397115D01*
X53019487Y-156362347D01*
X52996743Y-156349216D01*
X52924660Y-156293904D01*
X52906095Y-156275339D01*
X52850781Y-156203252D01*
X52837654Y-156180516D01*
X52802884Y-156096574D01*
X52796087Y-156071206D01*
X52783361Y-155974539D01*
X52782500Y-155961409D01*
X52782500Y-153828335D01*
X53981500Y-153828335D01*
X53982182Y-153832423D01*
X53982183Y-153832433D01*
X54021744Y-154069513D01*
X54021745Y-154069520D01*
X54022429Y-154073614D01*
X54103172Y-154308810D01*
X54221526Y-154527509D01*
X54224070Y-154530778D01*
X54224075Y-154530785D01*
X54364377Y-154711044D01*
X54374262Y-154723744D01*
X54557215Y-154892164D01*
X54560696Y-154894438D01*
X54560697Y-154894439D01*
X54570228Y-154900666D01*
X54765393Y-155028173D01*
X54993119Y-155128063D01*
X54997143Y-155129082D01*
X54997146Y-155129083D01*
X55073933Y-155148528D01*
X55234179Y-155189108D01*
X55419933Y-155204500D01*
X55541982Y-155204500D01*
X55544067Y-155204500D01*
X55729821Y-155189108D01*
X55970881Y-155128063D01*
X56198607Y-155028173D01*
X56406785Y-154892164D01*
X56589738Y-154723744D01*
X56742474Y-154527509D01*
X56860828Y-154308810D01*
X56941571Y-154073614D01*
X56949583Y-154025600D01*
X72017368Y-154025600D01*
X72017797Y-154030230D01*
X72022181Y-154077546D01*
X72036255Y-154229421D01*
X72037525Y-154233886D01*
X72037526Y-154233889D01*
X72059885Y-154312474D01*
X72092272Y-154426301D01*
X72094342Y-154430459D01*
X72094344Y-154430463D01*
X72181438Y-154605371D01*
X72181440Y-154605375D01*
X72183512Y-154609535D01*
X72186309Y-154613239D01*
X72186311Y-154613242D01*
X72269758Y-154723744D01*
X72306868Y-154772885D01*
X72310299Y-154776013D01*
X72310303Y-154776017D01*
X72434622Y-154889348D01*
X72458138Y-154910786D01*
X72632173Y-155018544D01*
X72769273Y-155071657D01*
X72818712Y-155090810D01*
X72818714Y-155090810D01*
X72823044Y-155092488D01*
X73024253Y-155130100D01*
X73224293Y-155130100D01*
X73228947Y-155130100D01*
X73430156Y-155092488D01*
X73621027Y-155018544D01*
X73795062Y-154910786D01*
X73811570Y-154895737D01*
X74562100Y-154895737D01*
X74562101Y-154900666D01*
X74563063Y-154905504D01*
X74563064Y-154905511D01*
X74574933Y-154965182D01*
X74576866Y-154974901D01*
X74633116Y-155059084D01*
X74641352Y-155064587D01*
X74684384Y-155093341D01*
X74717299Y-155115334D01*
X74791533Y-155130100D01*
X76541666Y-155130099D01*
X76615901Y-155115334D01*
X76700084Y-155059084D01*
X76756334Y-154974901D01*
X76771100Y-154900667D01*
X76771099Y-153150534D01*
X76756334Y-153076299D01*
X76700084Y-152992116D01*
X76652602Y-152960389D01*
X76624139Y-152941370D01*
X76624136Y-152941369D01*
X76615901Y-152935866D01*
X76606185Y-152933933D01*
X76606182Y-152933932D01*
X76546518Y-152922065D01*
X76541667Y-152921100D01*
X76536720Y-152921100D01*
X74796472Y-152921100D01*
X74796461Y-152921100D01*
X74791534Y-152921101D01*
X74786696Y-152922063D01*
X74786688Y-152922064D01*
X74727016Y-152933933D01*
X74727014Y-152933933D01*
X74717299Y-152935866D01*
X74709063Y-152941368D01*
X74709063Y-152941369D01*
X74641352Y-152986612D01*
X74641349Y-152986614D01*
X74633116Y-152992116D01*
X74627614Y-153000349D01*
X74627612Y-153000352D01*
X74582370Y-153068060D01*
X74582369Y-153068063D01*
X74576866Y-153076299D01*
X74574933Y-153086012D01*
X74574932Y-153086017D01*
X74564600Y-153137964D01*
X74562100Y-153150533D01*
X74562100Y-153155478D01*
X74562100Y-153155479D01*
X74562100Y-154895727D01*
X74562100Y-154895737D01*
X73811570Y-154895737D01*
X73946332Y-154772885D01*
X74069688Y-154609535D01*
X74160928Y-154426301D01*
X74216945Y-154229421D01*
X74235832Y-154025600D01*
X74216945Y-153821779D01*
X74160928Y-153624899D01*
X74069688Y-153441665D01*
X73946332Y-153278315D01*
X73942899Y-153275185D01*
X73942896Y-153275182D01*
X73798500Y-153143548D01*
X73798499Y-153143547D01*
X73795062Y-153140414D01*
X73791110Y-153137967D01*
X73791106Y-153137964D01*
X73624979Y-153035103D01*
X73621027Y-153032656D01*
X73615693Y-153030589D01*
X73434487Y-152960389D01*
X73434478Y-152960386D01*
X73430156Y-152958712D01*
X73370095Y-152947484D01*
X73233522Y-152921955D01*
X73233519Y-152921954D01*
X73228947Y-152921100D01*
X73024253Y-152921100D01*
X73019681Y-152921954D01*
X73019677Y-152921955D01*
X72827612Y-152957858D01*
X72827610Y-152957858D01*
X72823044Y-152958712D01*
X72818723Y-152960385D01*
X72818712Y-152960389D01*
X72636506Y-153030977D01*
X72636502Y-153030978D01*
X72632173Y-153032656D01*
X72628224Y-153035100D01*
X72628220Y-153035103D01*
X72462093Y-153137964D01*
X72462084Y-153137970D01*
X72458138Y-153140414D01*
X72454705Y-153143542D01*
X72454699Y-153143548D01*
X72310303Y-153275182D01*
X72310294Y-153275191D01*
X72306868Y-153278315D01*
X72304071Y-153282017D01*
X72304067Y-153282023D01*
X72186311Y-153437957D01*
X72186305Y-153437965D01*
X72183512Y-153441665D01*
X72181443Y-153445819D01*
X72181438Y-153445828D01*
X72094344Y-153620736D01*
X72094340Y-153620744D01*
X72092272Y-153624899D01*
X72091002Y-153629359D01*
X72091000Y-153629367D01*
X72037526Y-153817310D01*
X72037524Y-153817315D01*
X72036255Y-153821779D01*
X72035826Y-153826401D01*
X72035826Y-153826405D01*
X72017797Y-154020970D01*
X72017368Y-154025600D01*
X56949583Y-154025600D01*
X56982500Y-153828335D01*
X56982500Y-153579665D01*
X56941571Y-153334386D01*
X56860828Y-153099190D01*
X56742474Y-152880491D01*
X56739927Y-152877218D01*
X56739924Y-152877214D01*
X56592293Y-152687539D01*
X56589738Y-152684256D01*
X56406785Y-152515836D01*
X56403305Y-152513562D01*
X56403302Y-152513560D01*
X56332954Y-152467600D01*
X65460993Y-152467600D01*
X65461726Y-152473637D01*
X65479417Y-152619343D01*
X65479418Y-152619348D01*
X65480151Y-152625382D01*
X65482305Y-152631062D01*
X65482307Y-152631069D01*
X65534355Y-152768307D01*
X65534357Y-152768312D01*
X65536513Y-152773995D01*
X65539968Y-152779001D01*
X65539970Y-152779004D01*
X65623344Y-152899792D01*
X65623346Y-152899794D01*
X65626802Y-152904801D01*
X65745771Y-153010199D01*
X65886507Y-153084063D01*
X66040829Y-153122100D01*
X66193683Y-153122100D01*
X66199771Y-153122100D01*
X66354093Y-153084063D01*
X66494829Y-153010199D01*
X66613798Y-152904801D01*
X66704087Y-152773995D01*
X66760449Y-152625382D01*
X66779607Y-152467600D01*
X66760449Y-152309818D01*
X66748729Y-152278916D01*
X66706244Y-152166892D01*
X66706243Y-152166890D01*
X66704087Y-152161205D01*
X66661726Y-152099835D01*
X66617255Y-152035407D01*
X66617253Y-152035405D01*
X66613798Y-152030399D01*
X66494829Y-151925001D01*
X66489441Y-151922173D01*
X66489438Y-151922171D01*
X66359478Y-151853963D01*
X66359476Y-151853962D01*
X66354093Y-151851137D01*
X66348192Y-151849682D01*
X66348188Y-151849681D01*
X66205680Y-151814556D01*
X66205676Y-151814555D01*
X66199771Y-151813100D01*
X66040829Y-151813100D01*
X66034924Y-151814555D01*
X66034919Y-151814556D01*
X65892411Y-151849681D01*
X65892405Y-151849683D01*
X65886507Y-151851137D01*
X65881126Y-151853960D01*
X65881121Y-151853963D01*
X65751161Y-151922171D01*
X65751154Y-151922175D01*
X65745771Y-151925001D01*
X65741218Y-151929034D01*
X65741213Y-151929038D01*
X65631357Y-152026363D01*
X65631354Y-152026365D01*
X65626802Y-152030399D01*
X65623349Y-152035400D01*
X65623344Y-152035407D01*
X65539970Y-152156195D01*
X65539966Y-152156202D01*
X65536513Y-152161205D01*
X65534359Y-152166883D01*
X65534355Y-152166892D01*
X65482307Y-152304130D01*
X65482304Y-152304138D01*
X65480151Y-152309818D01*
X65479418Y-152315849D01*
X65479417Y-152315856D01*
X65471853Y-152378157D01*
X65460993Y-152467600D01*
X56332954Y-152467600D01*
X56250219Y-152413547D01*
X56198607Y-152379827D01*
X56194806Y-152378159D01*
X56194801Y-152378157D01*
X55974686Y-152281606D01*
X55974685Y-152281605D01*
X55970881Y-152279937D01*
X55966863Y-152278919D01*
X55966853Y-152278916D01*
X55733854Y-152219913D01*
X55733850Y-152219912D01*
X55729821Y-152218892D01*
X55725678Y-152218548D01*
X55725668Y-152218547D01*
X55546150Y-152203672D01*
X55546135Y-152203671D01*
X55544067Y-152203500D01*
X55419933Y-152203500D01*
X55417865Y-152203671D01*
X55417849Y-152203672D01*
X55238331Y-152218547D01*
X55238319Y-152218548D01*
X55234179Y-152218892D01*
X55230151Y-152219911D01*
X55230145Y-152219913D01*
X54997146Y-152278916D01*
X54997132Y-152278920D01*
X54993119Y-152279937D01*
X54989317Y-152281604D01*
X54989313Y-152281606D01*
X54769198Y-152378157D01*
X54769188Y-152378162D01*
X54765393Y-152379827D01*
X54761914Y-152382099D01*
X54761912Y-152382101D01*
X54560697Y-152513560D01*
X54560688Y-152513566D01*
X54557215Y-152515836D01*
X54554163Y-152518645D01*
X54554156Y-152518651D01*
X54377323Y-152681438D01*
X54374262Y-152684256D01*
X54371710Y-152687533D01*
X54371706Y-152687539D01*
X54224075Y-152877214D01*
X54224066Y-152877226D01*
X54221526Y-152880491D01*
X54219551Y-152884140D01*
X54219548Y-152884145D01*
X54105155Y-153095525D01*
X54103172Y-153099190D01*
X54101820Y-153103125D01*
X54101819Y-153103130D01*
X54083850Y-153155472D01*
X54022429Y-153334386D01*
X54021746Y-153338476D01*
X54021744Y-153338486D01*
X53982183Y-153575566D01*
X53982182Y-153575577D01*
X53981500Y-153579665D01*
X53981500Y-153828335D01*
X52782500Y-153828335D01*
X52782500Y-151626571D01*
X71979915Y-151626571D01*
X71986171Y-151694075D01*
X71987871Y-151703172D01*
X72043896Y-151900080D01*
X72047240Y-151908711D01*
X72138489Y-152091964D01*
X72143362Y-152099835D01*
X72266736Y-152263208D01*
X72272972Y-152270049D01*
X72424257Y-152407963D01*
X72431651Y-152413547D01*
X72605703Y-152521315D01*
X72613989Y-152525441D01*
X72804883Y-152599394D01*
X72813792Y-152601928D01*
X72985028Y-152633939D01*
X72996323Y-152632716D01*
X72999600Y-152621839D01*
X73253600Y-152621839D01*
X73256876Y-152632716D01*
X73268171Y-152633939D01*
X73439407Y-152601928D01*
X73448316Y-152599394D01*
X73639210Y-152525441D01*
X73647496Y-152521315D01*
X73821548Y-152413547D01*
X73828942Y-152407963D01*
X73980227Y-152270049D01*
X73986463Y-152263208D01*
X74109837Y-152099835D01*
X74114710Y-152091964D01*
X74205959Y-151908711D01*
X74209303Y-151900080D01*
X74265328Y-151703172D01*
X74267028Y-151694075D01*
X74273284Y-151626571D01*
X74271241Y-151615643D01*
X74260545Y-151612600D01*
X73266844Y-151612600D01*
X73256398Y-151615398D01*
X73253600Y-151625844D01*
X73253600Y-152621839D01*
X72999600Y-152621839D01*
X72999600Y-151625844D01*
X72996801Y-151615398D01*
X72986356Y-151612600D01*
X71992655Y-151612600D01*
X71981958Y-151615643D01*
X71979915Y-151626571D01*
X52782500Y-151626571D01*
X52782500Y-151485600D01*
X74557368Y-151485600D01*
X74557797Y-151490230D01*
X74570363Y-151625844D01*
X74576255Y-151689421D01*
X74577525Y-151693886D01*
X74577526Y-151693889D01*
X74621852Y-151849681D01*
X74632272Y-151886301D01*
X74634342Y-151890459D01*
X74634344Y-151890463D01*
X74721438Y-152065371D01*
X74721440Y-152065375D01*
X74723512Y-152069535D01*
X74726309Y-152073239D01*
X74726311Y-152073242D01*
X74824807Y-152203672D01*
X74846868Y-152232885D01*
X74850299Y-152236013D01*
X74850303Y-152236017D01*
X74994699Y-152367651D01*
X74998138Y-152370786D01*
X75002091Y-152373234D01*
X75002093Y-152373235D01*
X75016412Y-152382101D01*
X75172173Y-152478544D01*
X75293228Y-152525441D01*
X75358712Y-152550810D01*
X75358714Y-152550810D01*
X75363044Y-152552488D01*
X75564253Y-152590100D01*
X75764293Y-152590100D01*
X75768947Y-152590100D01*
X75970156Y-152552488D01*
X76161027Y-152478544D01*
X76335062Y-152370786D01*
X76486332Y-152232885D01*
X76609688Y-152069535D01*
X76700928Y-151886301D01*
X76756945Y-151689421D01*
X76775832Y-151485600D01*
X76756945Y-151281779D01*
X76700928Y-151084899D01*
X76609688Y-150901665D01*
X76486332Y-150738315D01*
X76482899Y-150735185D01*
X76482896Y-150735182D01*
X76338500Y-150603548D01*
X76338499Y-150603547D01*
X76335062Y-150600414D01*
X76331110Y-150597967D01*
X76331106Y-150597964D01*
X76164979Y-150495103D01*
X76161027Y-150492656D01*
X76155693Y-150490589D01*
X75974487Y-150420389D01*
X75974478Y-150420386D01*
X75970156Y-150418712D01*
X75910095Y-150407484D01*
X75773522Y-150381955D01*
X75773519Y-150381954D01*
X75768947Y-150381100D01*
X75564253Y-150381100D01*
X75559681Y-150381954D01*
X75559677Y-150381955D01*
X75367612Y-150417858D01*
X75367610Y-150417858D01*
X75363044Y-150418712D01*
X75358723Y-150420385D01*
X75358712Y-150420389D01*
X75176506Y-150490977D01*
X75176502Y-150490978D01*
X75172173Y-150492656D01*
X75168224Y-150495100D01*
X75168220Y-150495103D01*
X75002093Y-150597964D01*
X75002084Y-150597970D01*
X74998138Y-150600414D01*
X74994705Y-150603542D01*
X74994699Y-150603548D01*
X74850303Y-150735182D01*
X74850294Y-150735191D01*
X74846868Y-150738315D01*
X74844071Y-150742017D01*
X74844067Y-150742023D01*
X74726311Y-150897957D01*
X74726305Y-150897965D01*
X74723512Y-150901665D01*
X74721443Y-150905819D01*
X74721438Y-150905828D01*
X74634344Y-151080736D01*
X74634340Y-151080744D01*
X74632272Y-151084899D01*
X74631002Y-151089359D01*
X74631000Y-151089367D01*
X74577526Y-151277310D01*
X74577524Y-151277315D01*
X74576255Y-151281779D01*
X74575826Y-151286401D01*
X74575826Y-151286405D01*
X74569418Y-151355556D01*
X74557368Y-151485600D01*
X52782500Y-151485600D01*
X52782500Y-151344628D01*
X71979915Y-151344628D01*
X71981958Y-151355556D01*
X71992655Y-151358600D01*
X72986356Y-151358600D01*
X72996801Y-151355801D01*
X72999600Y-151345356D01*
X73253600Y-151345356D01*
X73256398Y-151355801D01*
X73266844Y-151358600D01*
X74260545Y-151358600D01*
X74271241Y-151355556D01*
X74273284Y-151344628D01*
X74267028Y-151277124D01*
X74265328Y-151268027D01*
X74209303Y-151071119D01*
X74205959Y-151062488D01*
X74114710Y-150879235D01*
X74109837Y-150871364D01*
X73986463Y-150707991D01*
X73980227Y-150701150D01*
X73828942Y-150563236D01*
X73821548Y-150557652D01*
X73647496Y-150449884D01*
X73639210Y-150445758D01*
X73448316Y-150371805D01*
X73439407Y-150369271D01*
X73268171Y-150337260D01*
X73256876Y-150338483D01*
X73253600Y-150349361D01*
X73253600Y-151345356D01*
X72999600Y-151345356D01*
X72999600Y-150349361D01*
X72996323Y-150338483D01*
X72985028Y-150337260D01*
X72813792Y-150369271D01*
X72804883Y-150371805D01*
X72613989Y-150445758D01*
X72605703Y-150449884D01*
X72431651Y-150557652D01*
X72424257Y-150563236D01*
X72272972Y-150701150D01*
X72266736Y-150707991D01*
X72143362Y-150871364D01*
X72138489Y-150879235D01*
X72047240Y-151062488D01*
X72043896Y-151071119D01*
X71987871Y-151268027D01*
X71986171Y-151277124D01*
X71979915Y-151344628D01*
X52782500Y-151344628D01*
X52782500Y-149098000D01*
X77267893Y-149098000D01*
X77268626Y-149104037D01*
X77286317Y-149249743D01*
X77286318Y-149249748D01*
X77287051Y-149255782D01*
X77289205Y-149261462D01*
X77289207Y-149261469D01*
X77341255Y-149398707D01*
X77341257Y-149398712D01*
X77343413Y-149404395D01*
X77346868Y-149409401D01*
X77346870Y-149409404D01*
X77430244Y-149530192D01*
X77430246Y-149530194D01*
X77433702Y-149535201D01*
X77552671Y-149640599D01*
X77693407Y-149714463D01*
X77847729Y-149752500D01*
X78000583Y-149752500D01*
X78006671Y-149752500D01*
X78160993Y-149714463D01*
X78301729Y-149640599D01*
X78420698Y-149535201D01*
X78510987Y-149404395D01*
X78567349Y-149255782D01*
X78586507Y-149098000D01*
X78567349Y-148940218D01*
X78510987Y-148791605D01*
X78420698Y-148660799D01*
X78301729Y-148555401D01*
X78296341Y-148552573D01*
X78296338Y-148552571D01*
X78166378Y-148484363D01*
X78166376Y-148484362D01*
X78160993Y-148481537D01*
X78155092Y-148480082D01*
X78155088Y-148480081D01*
X78012580Y-148444956D01*
X78012576Y-148444955D01*
X78006671Y-148443500D01*
X77847729Y-148443500D01*
X77841824Y-148444955D01*
X77841819Y-148444956D01*
X77699311Y-148480081D01*
X77699305Y-148480083D01*
X77693407Y-148481537D01*
X77688026Y-148484360D01*
X77688021Y-148484363D01*
X77558061Y-148552571D01*
X77558054Y-148552575D01*
X77552671Y-148555401D01*
X77548118Y-148559434D01*
X77548113Y-148559438D01*
X77438257Y-148656763D01*
X77438254Y-148656765D01*
X77433702Y-148660799D01*
X77430249Y-148665800D01*
X77430244Y-148665807D01*
X77346870Y-148786595D01*
X77346866Y-148786602D01*
X77343413Y-148791605D01*
X77341259Y-148797283D01*
X77341255Y-148797292D01*
X77289207Y-148934530D01*
X77289204Y-148934538D01*
X77287051Y-148940218D01*
X77286318Y-148946249D01*
X77286317Y-148946256D01*
X77268626Y-149091963D01*
X77267893Y-149098000D01*
X52782500Y-149098000D01*
X52782500Y-145025180D01*
X54953238Y-145025180D01*
X54953638Y-145028822D01*
X54953639Y-145028829D01*
X54982862Y-145294424D01*
X54982863Y-145294433D01*
X54983264Y-145298071D01*
X54984191Y-145301617D01*
X54984192Y-145301622D01*
X55051773Y-145560123D01*
X55051775Y-145560129D01*
X55052704Y-145563682D01*
X55054140Y-145567061D01*
X55054142Y-145567067D01*
X55115368Y-145711142D01*
X55160077Y-145816352D01*
X55303095Y-146050696D01*
X55305447Y-146053522D01*
X55305449Y-146053525D01*
X55438556Y-146213469D01*
X55478709Y-146261718D01*
X55683177Y-146444923D01*
X55686242Y-146446951D01*
X55686245Y-146446953D01*
X55739509Y-146482192D01*
X55912141Y-146596404D01*
X56160721Y-146712933D01*
X56164232Y-146713989D01*
X56164234Y-146713990D01*
X56388422Y-146781438D01*
X56423619Y-146792027D01*
X56695231Y-146832000D01*
X56899214Y-146832000D01*
X56901047Y-146832000D01*
X57106305Y-146816977D01*
X57374275Y-146757284D01*
X57428617Y-146736500D01*
X58783039Y-146736500D01*
X58783349Y-146740439D01*
X58802543Y-146984334D01*
X58802544Y-146984344D01*
X58802854Y-146988275D01*
X58803776Y-146992118D01*
X58803777Y-146992120D01*
X58855444Y-147207330D01*
X58861812Y-147233851D01*
X58863322Y-147237498D01*
X58863324Y-147237502D01*
X58956948Y-147463532D01*
X58956953Y-147463541D01*
X58958460Y-147467180D01*
X58960518Y-147470539D01*
X58960521Y-147470544D01*
X59088352Y-147679145D01*
X59088356Y-147679150D01*
X59090419Y-147682517D01*
X59092987Y-147685524D01*
X59092988Y-147685525D01*
X59244222Y-147862599D01*
X59254439Y-147874561D01*
X59446483Y-148038581D01*
X59661820Y-148170540D01*
X59665463Y-148172049D01*
X59665467Y-148172051D01*
X59790718Y-148223931D01*
X59895149Y-148267188D01*
X60140725Y-148326146D01*
X60392500Y-148345961D01*
X60644275Y-148326146D01*
X60889851Y-148267188D01*
X61123180Y-148170540D01*
X61338517Y-148038581D01*
X61530561Y-147874561D01*
X61694581Y-147682517D01*
X61826540Y-147467180D01*
X61887504Y-147320000D01*
X82652693Y-147320000D01*
X82653426Y-147326037D01*
X82671117Y-147471743D01*
X82671118Y-147471748D01*
X82671851Y-147477782D01*
X82674005Y-147483462D01*
X82674007Y-147483469D01*
X82726055Y-147620707D01*
X82726057Y-147620712D01*
X82728213Y-147626395D01*
X82731668Y-147631401D01*
X82731670Y-147631404D01*
X82815044Y-147752192D01*
X82815046Y-147752194D01*
X82818502Y-147757201D01*
X82937471Y-147862599D01*
X82942860Y-147865427D01*
X82942861Y-147865428D01*
X82960263Y-147874561D01*
X83078207Y-147936463D01*
X83232529Y-147974500D01*
X83385383Y-147974500D01*
X83391471Y-147974500D01*
X83545793Y-147936463D01*
X83686529Y-147862599D01*
X83805498Y-147757201D01*
X83895787Y-147626395D01*
X83952149Y-147477782D01*
X83965139Y-147370800D01*
X104547493Y-147370800D01*
X104548226Y-147376837D01*
X104565917Y-147522543D01*
X104565918Y-147522548D01*
X104566651Y-147528582D01*
X104568805Y-147534262D01*
X104568807Y-147534269D01*
X104620855Y-147671507D01*
X104620857Y-147671512D01*
X104623013Y-147677195D01*
X104626468Y-147682201D01*
X104626470Y-147682204D01*
X104709844Y-147802992D01*
X104709846Y-147802994D01*
X104713302Y-147808001D01*
X104832271Y-147913399D01*
X104973007Y-147987263D01*
X105127329Y-148025300D01*
X105280183Y-148025300D01*
X105286271Y-148025300D01*
X105440593Y-147987263D01*
X105581329Y-147913399D01*
X105700298Y-147808001D01*
X105790587Y-147677195D01*
X105846949Y-147528582D01*
X105866107Y-147370800D01*
X105846949Y-147213018D01*
X105790587Y-147064405D01*
X105700298Y-146933599D01*
X105581329Y-146828201D01*
X105575941Y-146825373D01*
X105575938Y-146825371D01*
X105445978Y-146757163D01*
X105445976Y-146757162D01*
X105440593Y-146754337D01*
X105434692Y-146752882D01*
X105434688Y-146752881D01*
X105292180Y-146717756D01*
X105292176Y-146717755D01*
X105286271Y-146716300D01*
X105127329Y-146716300D01*
X105121424Y-146717755D01*
X105121419Y-146717756D01*
X104978911Y-146752881D01*
X104978905Y-146752883D01*
X104973007Y-146754337D01*
X104967626Y-146757160D01*
X104967621Y-146757163D01*
X104837661Y-146825371D01*
X104837654Y-146825375D01*
X104832271Y-146828201D01*
X104827718Y-146832234D01*
X104827713Y-146832238D01*
X104717857Y-146929563D01*
X104717854Y-146929565D01*
X104713302Y-146933599D01*
X104709849Y-146938600D01*
X104709844Y-146938607D01*
X104626470Y-147059395D01*
X104626466Y-147059402D01*
X104623013Y-147064405D01*
X104620859Y-147070083D01*
X104620855Y-147070092D01*
X104568807Y-147207330D01*
X104568804Y-147207338D01*
X104566651Y-147213018D01*
X104565918Y-147219049D01*
X104565917Y-147219056D01*
X104554394Y-147313963D01*
X104547493Y-147370800D01*
X83965139Y-147370800D01*
X83971307Y-147320000D01*
X83952149Y-147162218D01*
X83895787Y-147013605D01*
X83805498Y-146882799D01*
X83686529Y-146777401D01*
X83681141Y-146774573D01*
X83681138Y-146774571D01*
X83551178Y-146706363D01*
X83551176Y-146706362D01*
X83545793Y-146703537D01*
X83539892Y-146702082D01*
X83539888Y-146702081D01*
X83397380Y-146666956D01*
X83397376Y-146666955D01*
X83391471Y-146665500D01*
X83232529Y-146665500D01*
X83226624Y-146666955D01*
X83226619Y-146666956D01*
X83084111Y-146702081D01*
X83084105Y-146702083D01*
X83078207Y-146703537D01*
X83072826Y-146706360D01*
X83072821Y-146706363D01*
X82942861Y-146774571D01*
X82942854Y-146774575D01*
X82937471Y-146777401D01*
X82932918Y-146781434D01*
X82932913Y-146781438D01*
X82823057Y-146878763D01*
X82823054Y-146878765D01*
X82818502Y-146882799D01*
X82815049Y-146887800D01*
X82815044Y-146887807D01*
X82731670Y-147008595D01*
X82731666Y-147008602D01*
X82728213Y-147013605D01*
X82726059Y-147019283D01*
X82726055Y-147019292D01*
X82674007Y-147156530D01*
X82674004Y-147156538D01*
X82671851Y-147162218D01*
X82671118Y-147168249D01*
X82671117Y-147168256D01*
X82663153Y-147233851D01*
X82652693Y-147320000D01*
X61887504Y-147320000D01*
X61923188Y-147233851D01*
X61982146Y-146988275D01*
X62001961Y-146736500D01*
X61982146Y-146484725D01*
X61923188Y-146239149D01*
X61844840Y-146050000D01*
X61828051Y-146009467D01*
X61828049Y-146009463D01*
X61826540Y-146005820D01*
X61810965Y-145980404D01*
X61696647Y-145793854D01*
X61696645Y-145793851D01*
X61694581Y-145790483D01*
X61530561Y-145598439D01*
X61485698Y-145560123D01*
X61376079Y-145466500D01*
X64980270Y-145466500D01*
X64980754Y-145471414D01*
X64996970Y-145636067D01*
X64999143Y-145658124D01*
X65000576Y-145662849D01*
X65000578Y-145662857D01*
X65053603Y-145837655D01*
X65053605Y-145837661D01*
X65055038Y-145842383D01*
X65057363Y-145846732D01*
X65057366Y-145846740D01*
X65143476Y-146007840D01*
X65143479Y-146007844D01*
X65145806Y-146012198D01*
X65148937Y-146016013D01*
X65148939Y-146016016D01*
X65226264Y-146110236D01*
X65267959Y-146161041D01*
X65271779Y-146164176D01*
X65393622Y-146264171D01*
X65416802Y-146283194D01*
X65421157Y-146285522D01*
X65421159Y-146285523D01*
X65582259Y-146371633D01*
X65582262Y-146371634D01*
X65586617Y-146373962D01*
X65770876Y-146429857D01*
X65962500Y-146448730D01*
X66154124Y-146429857D01*
X66338383Y-146373962D01*
X66508198Y-146283194D01*
X66657041Y-146161041D01*
X66779194Y-146012198D01*
X66869962Y-145842383D01*
X66922558Y-145669000D01*
X71984693Y-145669000D01*
X71985426Y-145675037D01*
X72003117Y-145820743D01*
X72003118Y-145820748D01*
X72003851Y-145826782D01*
X72006005Y-145832462D01*
X72006007Y-145832469D01*
X72058055Y-145969707D01*
X72058057Y-145969712D01*
X72060213Y-145975395D01*
X72063668Y-145980401D01*
X72063670Y-145980404D01*
X72147044Y-146101192D01*
X72147046Y-146101194D01*
X72150502Y-146106201D01*
X72269471Y-146211599D01*
X72410207Y-146285463D01*
X72564529Y-146323500D01*
X72717383Y-146323500D01*
X72723471Y-146323500D01*
X72877793Y-146285463D01*
X73018529Y-146211599D01*
X73137498Y-146106201D01*
X73176291Y-146050000D01*
X78842693Y-146050000D01*
X78843426Y-146056037D01*
X78861117Y-146201743D01*
X78861118Y-146201748D01*
X78861851Y-146207782D01*
X78864005Y-146213462D01*
X78864007Y-146213469D01*
X78916055Y-146350707D01*
X78916057Y-146350712D01*
X78918213Y-146356395D01*
X78921668Y-146361401D01*
X78921670Y-146361404D01*
X79005044Y-146482192D01*
X79005046Y-146482194D01*
X79008502Y-146487201D01*
X79127471Y-146592599D01*
X79268207Y-146666463D01*
X79422529Y-146704500D01*
X79575383Y-146704500D01*
X79581471Y-146704500D01*
X79735793Y-146666463D01*
X79876529Y-146592599D01*
X79995498Y-146487201D01*
X80085787Y-146356395D01*
X80142149Y-146207782D01*
X80161307Y-146050000D01*
X110465693Y-146050000D01*
X110466426Y-146056037D01*
X110484117Y-146201743D01*
X110484118Y-146201748D01*
X110484851Y-146207782D01*
X110487005Y-146213462D01*
X110487007Y-146213469D01*
X110539055Y-146350707D01*
X110539057Y-146350712D01*
X110541213Y-146356395D01*
X110544668Y-146361401D01*
X110544670Y-146361404D01*
X110628044Y-146482192D01*
X110628046Y-146482194D01*
X110631502Y-146487201D01*
X110750471Y-146592599D01*
X110891207Y-146666463D01*
X111045529Y-146704500D01*
X111198383Y-146704500D01*
X111204471Y-146704500D01*
X111358793Y-146666463D01*
X111499529Y-146592599D01*
X111618498Y-146487201D01*
X111708787Y-146356395D01*
X111765149Y-146207782D01*
X111784307Y-146050000D01*
X111765149Y-145892218D01*
X111747901Y-145846740D01*
X111710944Y-145749292D01*
X111710943Y-145749290D01*
X111708787Y-145743605D01*
X111688331Y-145713969D01*
X111621955Y-145617807D01*
X111621953Y-145617805D01*
X111618498Y-145612799D01*
X111545518Y-145548144D01*
X111504086Y-145511438D01*
X111504085Y-145511437D01*
X111499529Y-145507401D01*
X111494141Y-145504573D01*
X111494138Y-145504571D01*
X111364178Y-145436363D01*
X111364176Y-145436362D01*
X111358793Y-145433537D01*
X111352892Y-145432082D01*
X111352888Y-145432081D01*
X111210380Y-145396956D01*
X111210376Y-145396955D01*
X111204471Y-145395500D01*
X111045529Y-145395500D01*
X111039624Y-145396955D01*
X111039619Y-145396956D01*
X110897111Y-145432081D01*
X110897105Y-145432083D01*
X110891207Y-145433537D01*
X110885826Y-145436360D01*
X110885821Y-145436363D01*
X110755861Y-145504571D01*
X110755854Y-145504575D01*
X110750471Y-145507401D01*
X110745918Y-145511434D01*
X110745913Y-145511438D01*
X110636057Y-145608763D01*
X110636054Y-145608765D01*
X110631502Y-145612799D01*
X110628049Y-145617800D01*
X110628044Y-145617807D01*
X110544670Y-145738595D01*
X110544666Y-145738602D01*
X110541213Y-145743605D01*
X110539059Y-145749283D01*
X110539055Y-145749292D01*
X110487007Y-145886530D01*
X110487004Y-145886538D01*
X110484851Y-145892218D01*
X110484118Y-145898249D01*
X110484117Y-145898256D01*
X110470283Y-146012198D01*
X110465693Y-146050000D01*
X80161307Y-146050000D01*
X80142149Y-145892218D01*
X80124901Y-145846740D01*
X80087944Y-145749292D01*
X80087943Y-145749290D01*
X80085787Y-145743605D01*
X80065331Y-145713969D01*
X79998955Y-145617807D01*
X79998953Y-145617805D01*
X79995498Y-145612799D01*
X79922518Y-145548144D01*
X79881086Y-145511438D01*
X79881085Y-145511437D01*
X79876529Y-145507401D01*
X79871141Y-145504573D01*
X79871138Y-145504571D01*
X79741178Y-145436363D01*
X79741176Y-145436362D01*
X79735793Y-145433537D01*
X79729892Y-145432082D01*
X79729888Y-145432081D01*
X79587380Y-145396956D01*
X79587376Y-145396955D01*
X79581471Y-145395500D01*
X79422529Y-145395500D01*
X79416624Y-145396955D01*
X79416619Y-145396956D01*
X79274111Y-145432081D01*
X79274105Y-145432083D01*
X79268207Y-145433537D01*
X79262826Y-145436360D01*
X79262821Y-145436363D01*
X79132861Y-145504571D01*
X79132854Y-145504575D01*
X79127471Y-145507401D01*
X79122918Y-145511434D01*
X79122913Y-145511438D01*
X79013057Y-145608763D01*
X79013054Y-145608765D01*
X79008502Y-145612799D01*
X79005049Y-145617800D01*
X79005044Y-145617807D01*
X78921670Y-145738595D01*
X78921666Y-145738602D01*
X78918213Y-145743605D01*
X78916059Y-145749283D01*
X78916055Y-145749292D01*
X78864007Y-145886530D01*
X78864004Y-145886538D01*
X78861851Y-145892218D01*
X78861118Y-145898249D01*
X78861117Y-145898256D01*
X78847283Y-146012198D01*
X78842693Y-146050000D01*
X73176291Y-146050000D01*
X73227787Y-145975395D01*
X73284149Y-145826782D01*
X73303307Y-145669000D01*
X73284149Y-145511218D01*
X73245348Y-145408910D01*
X73229944Y-145368292D01*
X73229943Y-145368290D01*
X73227787Y-145362605D01*
X73224329Y-145357595D01*
X73140955Y-145236807D01*
X73140953Y-145236805D01*
X73137498Y-145231799D01*
X73041616Y-145146854D01*
X73023086Y-145130438D01*
X73023085Y-145130437D01*
X73018529Y-145126401D01*
X73013141Y-145123573D01*
X73013138Y-145123571D01*
X72963475Y-145097506D01*
X77267893Y-145097506D01*
X77268626Y-145103543D01*
X77286317Y-145249249D01*
X77286318Y-145249254D01*
X77287051Y-145255288D01*
X77289205Y-145260968D01*
X77289207Y-145260975D01*
X77341255Y-145398213D01*
X77341257Y-145398218D01*
X77343413Y-145403901D01*
X77346868Y-145408907D01*
X77346870Y-145408910D01*
X77430244Y-145529698D01*
X77430246Y-145529700D01*
X77433702Y-145534707D01*
X77552671Y-145640105D01*
X77693407Y-145713969D01*
X77847729Y-145752006D01*
X78000583Y-145752006D01*
X78006671Y-145752006D01*
X78160993Y-145713969D01*
X78301729Y-145640105D01*
X78420698Y-145534707D01*
X78510987Y-145403901D01*
X78567349Y-145255288D01*
X78586507Y-145097506D01*
X78567349Y-144939724D01*
X78558724Y-144916983D01*
X78513144Y-144796798D01*
X78513143Y-144796796D01*
X78510987Y-144791111D01*
X78480686Y-144747212D01*
X78424155Y-144665313D01*
X78424153Y-144665311D01*
X78420698Y-144660305D01*
X78301729Y-144554907D01*
X78296341Y-144552079D01*
X78296338Y-144552077D01*
X78246652Y-144526000D01*
X78842693Y-144526000D01*
X78843426Y-144532037D01*
X78861117Y-144677743D01*
X78861118Y-144677748D01*
X78861851Y-144683782D01*
X78864005Y-144689462D01*
X78864007Y-144689469D01*
X78916055Y-144826707D01*
X78916057Y-144826712D01*
X78918213Y-144832395D01*
X78921668Y-144837401D01*
X78921670Y-144837404D01*
X79005044Y-144958192D01*
X79005046Y-144958194D01*
X79008502Y-144963201D01*
X79127471Y-145068599D01*
X79268207Y-145142463D01*
X79422529Y-145180500D01*
X79575383Y-145180500D01*
X79581471Y-145180500D01*
X79735793Y-145142463D01*
X79876529Y-145068599D01*
X79995498Y-144963201D01*
X80085787Y-144832395D01*
X80142149Y-144683782D01*
X80161307Y-144526000D01*
X80142149Y-144368218D01*
X80136330Y-144352876D01*
X80087944Y-144225292D01*
X80087943Y-144225290D01*
X80085787Y-144219605D01*
X80029750Y-144138421D01*
X79998955Y-144093807D01*
X79998953Y-144093805D01*
X79995498Y-144088799D01*
X79887583Y-143993194D01*
X79881086Y-143987438D01*
X79881085Y-143987437D01*
X79876529Y-143983401D01*
X79871141Y-143980573D01*
X79871138Y-143980571D01*
X79741178Y-143912363D01*
X79741176Y-143912362D01*
X79735793Y-143909537D01*
X79729892Y-143908082D01*
X79729888Y-143908081D01*
X79587380Y-143872956D01*
X79587376Y-143872955D01*
X79581471Y-143871500D01*
X79422529Y-143871500D01*
X79416624Y-143872955D01*
X79416619Y-143872956D01*
X79274111Y-143908081D01*
X79274105Y-143908083D01*
X79268207Y-143909537D01*
X79262826Y-143912360D01*
X79262821Y-143912363D01*
X79132861Y-143980571D01*
X79132854Y-143980575D01*
X79127471Y-143983401D01*
X79122918Y-143987434D01*
X79122913Y-143987438D01*
X79013057Y-144084763D01*
X79013054Y-144084765D01*
X79008502Y-144088799D01*
X79005049Y-144093800D01*
X79005044Y-144093807D01*
X78921670Y-144214595D01*
X78921666Y-144214602D01*
X78918213Y-144219605D01*
X78916059Y-144225283D01*
X78916055Y-144225292D01*
X78864007Y-144362530D01*
X78864004Y-144362538D01*
X78861851Y-144368218D01*
X78861118Y-144374249D01*
X78861117Y-144374256D01*
X78847760Y-144484270D01*
X78842693Y-144526000D01*
X78246652Y-144526000D01*
X78166378Y-144483869D01*
X78166376Y-144483868D01*
X78160993Y-144481043D01*
X78155092Y-144479588D01*
X78155088Y-144479587D01*
X78012580Y-144444462D01*
X78012576Y-144444461D01*
X78006671Y-144443006D01*
X77847729Y-144443006D01*
X77841824Y-144444461D01*
X77841819Y-144444462D01*
X77699311Y-144479587D01*
X77699305Y-144479589D01*
X77693407Y-144481043D01*
X77688026Y-144483866D01*
X77688021Y-144483869D01*
X77558061Y-144552077D01*
X77558054Y-144552081D01*
X77552671Y-144554907D01*
X77548118Y-144558940D01*
X77548113Y-144558944D01*
X77438257Y-144656269D01*
X77438254Y-144656271D01*
X77433702Y-144660305D01*
X77430249Y-144665306D01*
X77430244Y-144665313D01*
X77346870Y-144786101D01*
X77346866Y-144786108D01*
X77343413Y-144791111D01*
X77341259Y-144796789D01*
X77341255Y-144796798D01*
X77289207Y-144934036D01*
X77289204Y-144934044D01*
X77287051Y-144939724D01*
X77286318Y-144945755D01*
X77286317Y-144945762D01*
X77273530Y-145051081D01*
X77267893Y-145097506D01*
X72963475Y-145097506D01*
X72883178Y-145055363D01*
X72883176Y-145055362D01*
X72877793Y-145052537D01*
X72871892Y-145051082D01*
X72871888Y-145051081D01*
X72729380Y-145015956D01*
X72729376Y-145015955D01*
X72723471Y-145014500D01*
X72564529Y-145014500D01*
X72558624Y-145015955D01*
X72558619Y-145015956D01*
X72416111Y-145051081D01*
X72416105Y-145051083D01*
X72410207Y-145052537D01*
X72404826Y-145055360D01*
X72404821Y-145055363D01*
X72274861Y-145123571D01*
X72274854Y-145123575D01*
X72269471Y-145126401D01*
X72264918Y-145130434D01*
X72264913Y-145130438D01*
X72155057Y-145227763D01*
X72155054Y-145227765D01*
X72150502Y-145231799D01*
X72147049Y-145236800D01*
X72147044Y-145236807D01*
X72063670Y-145357595D01*
X72063666Y-145357602D01*
X72060213Y-145362605D01*
X72058059Y-145368283D01*
X72058055Y-145368292D01*
X72006007Y-145505530D01*
X72006004Y-145505538D01*
X72003851Y-145511218D01*
X72003118Y-145517249D01*
X72003117Y-145517256D01*
X71992895Y-145601447D01*
X71984693Y-145669000D01*
X66922558Y-145669000D01*
X66925857Y-145658124D01*
X66944730Y-145466500D01*
X66925857Y-145274876D01*
X66890554Y-145158499D01*
X66871396Y-145095344D01*
X66871395Y-145095343D01*
X66869962Y-145090617D01*
X66859705Y-145071428D01*
X66781523Y-144925159D01*
X66781522Y-144925157D01*
X66779194Y-144920802D01*
X66657041Y-144771959D01*
X66653220Y-144768823D01*
X66512016Y-144652939D01*
X66512013Y-144652937D01*
X66508198Y-144649806D01*
X66503844Y-144647479D01*
X66503840Y-144647476D01*
X66342740Y-144561366D01*
X66342732Y-144561363D01*
X66338383Y-144559038D01*
X66333661Y-144557605D01*
X66333655Y-144557603D01*
X66158857Y-144504578D01*
X66158849Y-144504576D01*
X66154124Y-144503143D01*
X66149206Y-144502658D01*
X66149203Y-144502658D01*
X65967414Y-144484754D01*
X65962500Y-144484270D01*
X65957586Y-144484754D01*
X65775796Y-144502658D01*
X65775791Y-144502658D01*
X65770876Y-144503143D01*
X65766152Y-144504575D01*
X65766142Y-144504578D01*
X65591344Y-144557603D01*
X65591334Y-144557606D01*
X65586617Y-144559038D01*
X65582270Y-144561361D01*
X65582259Y-144561366D01*
X65421159Y-144647476D01*
X65421150Y-144647481D01*
X65416802Y-144649806D01*
X65412990Y-144652933D01*
X65412983Y-144652939D01*
X65271779Y-144768823D01*
X65271773Y-144768828D01*
X65267959Y-144771959D01*
X65264828Y-144775773D01*
X65264823Y-144775779D01*
X65148939Y-144916983D01*
X65148933Y-144916990D01*
X65145806Y-144920802D01*
X65143481Y-144925150D01*
X65143476Y-144925159D01*
X65057366Y-145086259D01*
X65057361Y-145086270D01*
X65055038Y-145090617D01*
X65053606Y-145095334D01*
X65053603Y-145095344D01*
X65000578Y-145270142D01*
X65000575Y-145270152D01*
X64999143Y-145274876D01*
X64998658Y-145279791D01*
X64998658Y-145279796D01*
X64983430Y-145434419D01*
X64980270Y-145466500D01*
X61376079Y-145466500D01*
X61341525Y-145436988D01*
X61341524Y-145436987D01*
X61338517Y-145434419D01*
X61335150Y-145432356D01*
X61335145Y-145432352D01*
X61126544Y-145304521D01*
X61126539Y-145304518D01*
X61123180Y-145302460D01*
X61119541Y-145300953D01*
X61119532Y-145300948D01*
X60893502Y-145207324D01*
X60893498Y-145207322D01*
X60889851Y-145205812D01*
X60886012Y-145204890D01*
X60886008Y-145204889D01*
X60648120Y-145147777D01*
X60648118Y-145147776D01*
X60644275Y-145146854D01*
X60640344Y-145146544D01*
X60640334Y-145146543D01*
X60396439Y-145127349D01*
X60392500Y-145127039D01*
X60388561Y-145127349D01*
X60144665Y-145146543D01*
X60144653Y-145146544D01*
X60140725Y-145146854D01*
X60136883Y-145147776D01*
X60136879Y-145147777D01*
X59898991Y-145204889D01*
X59898983Y-145204891D01*
X59895149Y-145205812D01*
X59891504Y-145207321D01*
X59891497Y-145207324D01*
X59665467Y-145300948D01*
X59665452Y-145300955D01*
X59661820Y-145302460D01*
X59658465Y-145304515D01*
X59658455Y-145304521D01*
X59449854Y-145432352D01*
X59449843Y-145432359D01*
X59446483Y-145434419D01*
X59443481Y-145436982D01*
X59443474Y-145436988D01*
X59257447Y-145595869D01*
X59257440Y-145595875D01*
X59254439Y-145598439D01*
X59251875Y-145601440D01*
X59251869Y-145601447D01*
X59092988Y-145787474D01*
X59092982Y-145787481D01*
X59090419Y-145790483D01*
X59088359Y-145793843D01*
X59088352Y-145793854D01*
X58960521Y-146002455D01*
X58960515Y-146002465D01*
X58958460Y-146005820D01*
X58956955Y-146009452D01*
X58956948Y-146009467D01*
X58863324Y-146235497D01*
X58863321Y-146235504D01*
X58861812Y-146239149D01*
X58860891Y-146242983D01*
X58860889Y-146242991D01*
X58803777Y-146480879D01*
X58802854Y-146484725D01*
X58802544Y-146488653D01*
X58802543Y-146488665D01*
X58784629Y-146716300D01*
X58783039Y-146736500D01*
X57428617Y-146736500D01*
X57630698Y-146659211D01*
X57870109Y-146524847D01*
X58087404Y-146357057D01*
X58277954Y-146159416D01*
X58437696Y-145936137D01*
X58563227Y-145691979D01*
X58651870Y-145432146D01*
X58701736Y-145162174D01*
X58711762Y-144887820D01*
X58681736Y-144614929D01*
X58612296Y-144349318D01*
X58504923Y-144096648D01*
X58361905Y-143862304D01*
X58271427Y-143753584D01*
X58188642Y-143654107D01*
X58188641Y-143654106D01*
X58186291Y-143651282D01*
X57981823Y-143468077D01*
X57978759Y-143466049D01*
X57978754Y-143466046D01*
X57755926Y-143318625D01*
X57755924Y-143318624D01*
X57752859Y-143316596D01*
X57504279Y-143200067D01*
X57500774Y-143199012D01*
X57500765Y-143199009D01*
X57425948Y-143176500D01*
X64980270Y-143176500D01*
X64980754Y-143181414D01*
X64993038Y-143306143D01*
X64999143Y-143368124D01*
X65000576Y-143372849D01*
X65000578Y-143372857D01*
X65053603Y-143547655D01*
X65053605Y-143547661D01*
X65055038Y-143552383D01*
X65057363Y-143556732D01*
X65057366Y-143556740D01*
X65143476Y-143717840D01*
X65143479Y-143717844D01*
X65145806Y-143722198D01*
X65148937Y-143726013D01*
X65148939Y-143726016D01*
X65215765Y-143807443D01*
X65267959Y-143871041D01*
X65271779Y-143874176D01*
X65393260Y-143973874D01*
X65416802Y-143993194D01*
X65421157Y-143995522D01*
X65421159Y-143995523D01*
X65582259Y-144081633D01*
X65582262Y-144081634D01*
X65586617Y-144083962D01*
X65591343Y-144085395D01*
X65591344Y-144085396D01*
X65639605Y-144100036D01*
X65770876Y-144139857D01*
X65962500Y-144158730D01*
X66154124Y-144139857D01*
X66338383Y-144083962D01*
X66508198Y-143993194D01*
X66657041Y-143871041D01*
X66779194Y-143722198D01*
X66869962Y-143552383D01*
X66925857Y-143368124D01*
X66934398Y-143281400D01*
X82119293Y-143281400D01*
X82120026Y-143287437D01*
X82137717Y-143433143D01*
X82137718Y-143433148D01*
X82138451Y-143439182D01*
X82140605Y-143444862D01*
X82140607Y-143444869D01*
X82192655Y-143582107D01*
X82192657Y-143582112D01*
X82194813Y-143587795D01*
X82198268Y-143592801D01*
X82198270Y-143592804D01*
X82281644Y-143713592D01*
X82281646Y-143713594D01*
X82285102Y-143718601D01*
X82404071Y-143823999D01*
X82544807Y-143897863D01*
X82699129Y-143935900D01*
X82851983Y-143935900D01*
X82858071Y-143935900D01*
X83012393Y-143897863D01*
X83153129Y-143823999D01*
X83272098Y-143718601D01*
X83362387Y-143587795D01*
X83418749Y-143439182D01*
X83437907Y-143281400D01*
X83422487Y-143154400D01*
X83998893Y-143154400D01*
X83999626Y-143160437D01*
X84017317Y-143306143D01*
X84017318Y-143306148D01*
X84018051Y-143312182D01*
X84020205Y-143317862D01*
X84020207Y-143317869D01*
X84072255Y-143455107D01*
X84072257Y-143455112D01*
X84074413Y-143460795D01*
X84077868Y-143465801D01*
X84077870Y-143465804D01*
X84161244Y-143586592D01*
X84161246Y-143586594D01*
X84164702Y-143591601D01*
X84283671Y-143696999D01*
X84424407Y-143770863D01*
X84578729Y-143808900D01*
X84731583Y-143808900D01*
X84737671Y-143808900D01*
X84891993Y-143770863D01*
X85032729Y-143696999D01*
X85151698Y-143591601D01*
X85241987Y-143460795D01*
X85298349Y-143312182D01*
X85317507Y-143154400D01*
X85298349Y-142996618D01*
X85292100Y-142980142D01*
X85244144Y-142853692D01*
X85244143Y-142853690D01*
X85241987Y-142848005D01*
X85212540Y-142805344D01*
X85155155Y-142722207D01*
X85155153Y-142722205D01*
X85151698Y-142717199D01*
X85032729Y-142611801D01*
X85027341Y-142608973D01*
X85027338Y-142608971D01*
X84897378Y-142540763D01*
X84897376Y-142540762D01*
X84891993Y-142537937D01*
X84886092Y-142536482D01*
X84886088Y-142536481D01*
X84743580Y-142501356D01*
X84743576Y-142501355D01*
X84737671Y-142499900D01*
X84578729Y-142499900D01*
X84572824Y-142501355D01*
X84572819Y-142501356D01*
X84430311Y-142536481D01*
X84430305Y-142536483D01*
X84424407Y-142537937D01*
X84419026Y-142540760D01*
X84419021Y-142540763D01*
X84289061Y-142608971D01*
X84289054Y-142608975D01*
X84283671Y-142611801D01*
X84279118Y-142615834D01*
X84279113Y-142615838D01*
X84169257Y-142713163D01*
X84169254Y-142713165D01*
X84164702Y-142717199D01*
X84161249Y-142722200D01*
X84161244Y-142722207D01*
X84077870Y-142842995D01*
X84077866Y-142843002D01*
X84074413Y-142848005D01*
X84072259Y-142853683D01*
X84072255Y-142853692D01*
X84020207Y-142990930D01*
X84020204Y-142990938D01*
X84018051Y-142996618D01*
X84017318Y-143002649D01*
X84017317Y-143002656D01*
X84001897Y-143129656D01*
X83998893Y-143154400D01*
X83422487Y-143154400D01*
X83418749Y-143123618D01*
X83408283Y-143096023D01*
X83364544Y-142980692D01*
X83364543Y-142980690D01*
X83362387Y-142975005D01*
X83272098Y-142844199D01*
X83153129Y-142738801D01*
X83147741Y-142735973D01*
X83147738Y-142735971D01*
X83017778Y-142667763D01*
X83017776Y-142667762D01*
X83012393Y-142664937D01*
X83006492Y-142663482D01*
X83006488Y-142663481D01*
X82863980Y-142628356D01*
X82863976Y-142628355D01*
X82858071Y-142626900D01*
X82699129Y-142626900D01*
X82693224Y-142628355D01*
X82693219Y-142628356D01*
X82550711Y-142663481D01*
X82550705Y-142663483D01*
X82544807Y-142664937D01*
X82539426Y-142667760D01*
X82539421Y-142667763D01*
X82409461Y-142735971D01*
X82409454Y-142735975D01*
X82404071Y-142738801D01*
X82399518Y-142742834D01*
X82399513Y-142742838D01*
X82289657Y-142840163D01*
X82289654Y-142840165D01*
X82285102Y-142844199D01*
X82281649Y-142849200D01*
X82281644Y-142849207D01*
X82198270Y-142969995D01*
X82198266Y-142970002D01*
X82194813Y-142975005D01*
X82192659Y-142980683D01*
X82192655Y-142980692D01*
X82140607Y-143117930D01*
X82140604Y-143117938D01*
X82138451Y-143123618D01*
X82137718Y-143129649D01*
X82137717Y-143129656D01*
X82122427Y-143255591D01*
X82119293Y-143281400D01*
X66934398Y-143281400D01*
X66944730Y-143176500D01*
X66925857Y-142984876D01*
X66869962Y-142800617D01*
X66839078Y-142742838D01*
X66781523Y-142635159D01*
X66781522Y-142635157D01*
X66779194Y-142630802D01*
X66737008Y-142579399D01*
X66660176Y-142485779D01*
X66657041Y-142481959D01*
X66559123Y-142401599D01*
X66512016Y-142362939D01*
X66512013Y-142362937D01*
X66508198Y-142359806D01*
X66503844Y-142357479D01*
X66503840Y-142357476D01*
X66342740Y-142271366D01*
X66342732Y-142271363D01*
X66338383Y-142269038D01*
X66333661Y-142267605D01*
X66333655Y-142267603D01*
X66158857Y-142214578D01*
X66158849Y-142214576D01*
X66154124Y-142213143D01*
X66149206Y-142212658D01*
X66149203Y-142212658D01*
X65967414Y-142194754D01*
X65962500Y-142194270D01*
X65957586Y-142194754D01*
X65775796Y-142212658D01*
X65775791Y-142212658D01*
X65770876Y-142213143D01*
X65766152Y-142214575D01*
X65766142Y-142214578D01*
X65591344Y-142267603D01*
X65591334Y-142267606D01*
X65586617Y-142269038D01*
X65582270Y-142271361D01*
X65582259Y-142271366D01*
X65421159Y-142357476D01*
X65421150Y-142357481D01*
X65416802Y-142359806D01*
X65412990Y-142362933D01*
X65412983Y-142362939D01*
X65271779Y-142478823D01*
X65271773Y-142478828D01*
X65267959Y-142481959D01*
X65264828Y-142485773D01*
X65264823Y-142485779D01*
X65148939Y-142626983D01*
X65148933Y-142626990D01*
X65145806Y-142630802D01*
X65143481Y-142635150D01*
X65143476Y-142635159D01*
X65057366Y-142796259D01*
X65057361Y-142796270D01*
X65055038Y-142800617D01*
X65053606Y-142805334D01*
X65053603Y-142805344D01*
X65000578Y-142980142D01*
X65000575Y-142980152D01*
X64999143Y-142984876D01*
X64998658Y-142989791D01*
X64998658Y-142989796D01*
X64985792Y-143120437D01*
X64980270Y-143176500D01*
X57425948Y-143176500D01*
X57244897Y-143122030D01*
X57244886Y-143122027D01*
X57241381Y-143120973D01*
X57237753Y-143120439D01*
X57237744Y-143120437D01*
X56973410Y-143081535D01*
X56973398Y-143081534D01*
X56969769Y-143081000D01*
X56763953Y-143081000D01*
X56762142Y-143081132D01*
X56762129Y-143081133D01*
X56562353Y-143095755D01*
X56562349Y-143095755D01*
X56558695Y-143096023D01*
X56555115Y-143096820D01*
X56555111Y-143096821D01*
X56294307Y-143154917D01*
X56294293Y-143154921D01*
X56290725Y-143155716D01*
X56287301Y-143157025D01*
X56287296Y-143157027D01*
X56037741Y-143252473D01*
X56037732Y-143252476D01*
X56034302Y-143253789D01*
X56031102Y-143255584D01*
X56031089Y-143255591D01*
X55798102Y-143386350D01*
X55798093Y-143386355D01*
X55794891Y-143388153D01*
X55791987Y-143390395D01*
X55791980Y-143390400D01*
X55580499Y-143553700D01*
X55580487Y-143553709D01*
X55577596Y-143555943D01*
X55575060Y-143558573D01*
X55575047Y-143558585D01*
X55389597Y-143750937D01*
X55389590Y-143750944D01*
X55387046Y-143753584D01*
X55384916Y-143756561D01*
X55384907Y-143756572D01*
X55256610Y-143935900D01*
X55227304Y-143976863D01*
X55225629Y-143980120D01*
X55225624Y-143980129D01*
X55103452Y-144217753D01*
X55103446Y-144217766D01*
X55101773Y-144221021D01*
X55100590Y-144224488D01*
X55100586Y-144224498D01*
X55025545Y-144444462D01*
X55013130Y-144480854D01*
X55012464Y-144484457D01*
X55012464Y-144484459D01*
X54963931Y-144747212D01*
X54963930Y-144747219D01*
X54963264Y-144750826D01*
X54963130Y-144754489D01*
X54963129Y-144754500D01*
X54953628Y-145014500D01*
X54953238Y-145025180D01*
X52782500Y-145025180D01*
X52782500Y-142176500D01*
X58390270Y-142176500D01*
X58390754Y-142181414D01*
X58408323Y-142359806D01*
X58409143Y-142368124D01*
X58410576Y-142372849D01*
X58410578Y-142372857D01*
X58463603Y-142547655D01*
X58463605Y-142547661D01*
X58465038Y-142552383D01*
X58467363Y-142556732D01*
X58467366Y-142556740D01*
X58553476Y-142717840D01*
X58553479Y-142717844D01*
X58555806Y-142722198D01*
X58558937Y-142726013D01*
X58558939Y-142726016D01*
X58652618Y-142840163D01*
X58677959Y-142871041D01*
X58681779Y-142874176D01*
X58822661Y-142989796D01*
X58826802Y-142993194D01*
X58831157Y-142995522D01*
X58831159Y-142995523D01*
X58992259Y-143081633D01*
X58992262Y-143081634D01*
X58996617Y-143083962D01*
X59001343Y-143085395D01*
X59001344Y-143085396D01*
X59122109Y-143122030D01*
X59180876Y-143139857D01*
X59372500Y-143158730D01*
X59564124Y-143139857D01*
X59748383Y-143083962D01*
X59918198Y-142993194D01*
X60067041Y-142871041D01*
X60189194Y-142722198D01*
X60279962Y-142552383D01*
X60335857Y-142368124D01*
X60354730Y-142176500D01*
X60335857Y-141984876D01*
X60334490Y-141980371D01*
X60341179Y-141920054D01*
X60381430Y-141874533D01*
X60440550Y-141860493D01*
X60496968Y-141883055D01*
X60606802Y-141973194D01*
X60611157Y-141975522D01*
X60611159Y-141975523D01*
X60772259Y-142061633D01*
X60772262Y-142061634D01*
X60776617Y-142063962D01*
X60960876Y-142119857D01*
X61152500Y-142138730D01*
X61344124Y-142119857D01*
X61528383Y-142063962D01*
X61698198Y-141973194D01*
X61847041Y-141851041D01*
X61969194Y-141702198D01*
X61980418Y-141681200D01*
X71908493Y-141681200D01*
X71909226Y-141687237D01*
X71926917Y-141832943D01*
X71926918Y-141832948D01*
X71927651Y-141838982D01*
X71929805Y-141844662D01*
X71929807Y-141844669D01*
X71981855Y-141981907D01*
X71981857Y-141981912D01*
X71984013Y-141987595D01*
X71987468Y-141992601D01*
X71987470Y-141992604D01*
X72070844Y-142113392D01*
X72070846Y-142113394D01*
X72074302Y-142118401D01*
X72193271Y-142223799D01*
X72334007Y-142297663D01*
X72488329Y-142335700D01*
X72641183Y-142335700D01*
X72647271Y-142335700D01*
X72801593Y-142297663D01*
X72942329Y-142223799D01*
X73061298Y-142118401D01*
X73151587Y-141987595D01*
X73200357Y-141859000D01*
X80620693Y-141859000D01*
X80621426Y-141865037D01*
X80639117Y-142010743D01*
X80639118Y-142010748D01*
X80639851Y-142016782D01*
X80642005Y-142022462D01*
X80642007Y-142022469D01*
X80694055Y-142159707D01*
X80694057Y-142159712D01*
X80696213Y-142165395D01*
X80699668Y-142170401D01*
X80699670Y-142170404D01*
X80783044Y-142291192D01*
X80783046Y-142291194D01*
X80786502Y-142296201D01*
X80905471Y-142401599D01*
X81046207Y-142475463D01*
X81200529Y-142513500D01*
X81353383Y-142513500D01*
X81359471Y-142513500D01*
X81513793Y-142475463D01*
X81654529Y-142401599D01*
X81773498Y-142296201D01*
X81863787Y-142165395D01*
X81912557Y-142036800D01*
X85192693Y-142036800D01*
X85193426Y-142042837D01*
X85211117Y-142188543D01*
X85211118Y-142188548D01*
X85211851Y-142194582D01*
X85214005Y-142200262D01*
X85214007Y-142200269D01*
X85266055Y-142337507D01*
X85266057Y-142337512D01*
X85268213Y-142343195D01*
X85271668Y-142348201D01*
X85271670Y-142348204D01*
X85355044Y-142468992D01*
X85355046Y-142468994D01*
X85358502Y-142474001D01*
X85477471Y-142579399D01*
X85618207Y-142653263D01*
X85772529Y-142691300D01*
X85925383Y-142691300D01*
X85931471Y-142691300D01*
X86085793Y-142653263D01*
X86226529Y-142579399D01*
X86345498Y-142474001D01*
X86435787Y-142343195D01*
X86492149Y-142194582D01*
X86511307Y-142036800D01*
X86492149Y-141879018D01*
X86485123Y-141860493D01*
X86437944Y-141736092D01*
X86437943Y-141736090D01*
X86435787Y-141730405D01*
X86432329Y-141725395D01*
X86348955Y-141604607D01*
X86348953Y-141604605D01*
X86345498Y-141599599D01*
X86226529Y-141494201D01*
X86221141Y-141491373D01*
X86221138Y-141491371D01*
X86091178Y-141423163D01*
X86091176Y-141423162D01*
X86085793Y-141420337D01*
X86079892Y-141418882D01*
X86079888Y-141418881D01*
X85937380Y-141383756D01*
X85937376Y-141383755D01*
X85931471Y-141382300D01*
X85772529Y-141382300D01*
X85766624Y-141383755D01*
X85766619Y-141383756D01*
X85624111Y-141418881D01*
X85624105Y-141418883D01*
X85618207Y-141420337D01*
X85612826Y-141423160D01*
X85612821Y-141423163D01*
X85482861Y-141491371D01*
X85482854Y-141491375D01*
X85477471Y-141494201D01*
X85472918Y-141498234D01*
X85472913Y-141498238D01*
X85363057Y-141595563D01*
X85363054Y-141595565D01*
X85358502Y-141599599D01*
X85355049Y-141604600D01*
X85355044Y-141604607D01*
X85271670Y-141725395D01*
X85271666Y-141725402D01*
X85268213Y-141730405D01*
X85266059Y-141736083D01*
X85266055Y-141736092D01*
X85214007Y-141873330D01*
X85214004Y-141873338D01*
X85211851Y-141879018D01*
X85211118Y-141885049D01*
X85211117Y-141885056D01*
X85198400Y-141989795D01*
X85192693Y-142036800D01*
X81912557Y-142036800D01*
X81920149Y-142016782D01*
X81939307Y-141859000D01*
X81920149Y-141701218D01*
X81893443Y-141630802D01*
X81865944Y-141558292D01*
X81865943Y-141558290D01*
X81863787Y-141552605D01*
X81849829Y-141532383D01*
X81776955Y-141426807D01*
X81776953Y-141426805D01*
X81773498Y-141421799D01*
X81654529Y-141316401D01*
X81649141Y-141313573D01*
X81649138Y-141313571D01*
X81519178Y-141245363D01*
X81519176Y-141245362D01*
X81513793Y-141242537D01*
X81507892Y-141241082D01*
X81507888Y-141241081D01*
X81365380Y-141205956D01*
X81365376Y-141205955D01*
X81359471Y-141204500D01*
X81200529Y-141204500D01*
X81194624Y-141205955D01*
X81194619Y-141205956D01*
X81052111Y-141241081D01*
X81052105Y-141241083D01*
X81046207Y-141242537D01*
X81040826Y-141245360D01*
X81040821Y-141245363D01*
X80910861Y-141313571D01*
X80910854Y-141313575D01*
X80905471Y-141316401D01*
X80900918Y-141320434D01*
X80900913Y-141320438D01*
X80791057Y-141417763D01*
X80791054Y-141417765D01*
X80786502Y-141421799D01*
X80783049Y-141426800D01*
X80783044Y-141426807D01*
X80699670Y-141547595D01*
X80699666Y-141547602D01*
X80696213Y-141552605D01*
X80694059Y-141558283D01*
X80694055Y-141558292D01*
X80642007Y-141695530D01*
X80642004Y-141695538D01*
X80639851Y-141701218D01*
X80639118Y-141707249D01*
X80639117Y-141707256D01*
X80628311Y-141796259D01*
X80620693Y-141859000D01*
X73200357Y-141859000D01*
X73207949Y-141838982D01*
X73227107Y-141681200D01*
X73207949Y-141523418D01*
X73198399Y-141498238D01*
X73153744Y-141380492D01*
X73153743Y-141380490D01*
X73151587Y-141374805D01*
X73143400Y-141362944D01*
X73064755Y-141249007D01*
X73064753Y-141249005D01*
X73061298Y-141243999D01*
X72962533Y-141156500D01*
X72946886Y-141142638D01*
X72946885Y-141142637D01*
X72942329Y-141138601D01*
X72936941Y-141135773D01*
X72936938Y-141135771D01*
X72806978Y-141067563D01*
X72806976Y-141067562D01*
X72801593Y-141064737D01*
X72795692Y-141063282D01*
X72795688Y-141063281D01*
X72653180Y-141028156D01*
X72653176Y-141028155D01*
X72647271Y-141026700D01*
X72488329Y-141026700D01*
X72482424Y-141028155D01*
X72482419Y-141028156D01*
X72339911Y-141063281D01*
X72339905Y-141063283D01*
X72334007Y-141064737D01*
X72328626Y-141067560D01*
X72328621Y-141067563D01*
X72198661Y-141135771D01*
X72198654Y-141135775D01*
X72193271Y-141138601D01*
X72188718Y-141142634D01*
X72188713Y-141142638D01*
X72078857Y-141239963D01*
X72078854Y-141239965D01*
X72074302Y-141243999D01*
X72070849Y-141249000D01*
X72070844Y-141249007D01*
X71987470Y-141369795D01*
X71987466Y-141369802D01*
X71984013Y-141374805D01*
X71981859Y-141380483D01*
X71981855Y-141380492D01*
X71929807Y-141517730D01*
X71929804Y-141517738D01*
X71927651Y-141523418D01*
X71926918Y-141529449D01*
X71926917Y-141529456D01*
X71918891Y-141595563D01*
X71908493Y-141681200D01*
X61980418Y-141681200D01*
X62059962Y-141532383D01*
X62115857Y-141348124D01*
X62134730Y-141156500D01*
X62115857Y-140964876D01*
X62100051Y-140912770D01*
X62061396Y-140785344D01*
X62061395Y-140785343D01*
X62059962Y-140780617D01*
X62053429Y-140768395D01*
X61971523Y-140615159D01*
X61971522Y-140615157D01*
X61969194Y-140610802D01*
X61909611Y-140538200D01*
X70079693Y-140538200D01*
X70080426Y-140544237D01*
X70098117Y-140689943D01*
X70098118Y-140689948D01*
X70098851Y-140695982D01*
X70101005Y-140701662D01*
X70101007Y-140701669D01*
X70153055Y-140838907D01*
X70153057Y-140838912D01*
X70155213Y-140844595D01*
X70158668Y-140849601D01*
X70158670Y-140849604D01*
X70242044Y-140970392D01*
X70242046Y-140970394D01*
X70245502Y-140975401D01*
X70364471Y-141080799D01*
X70505207Y-141154663D01*
X70659529Y-141192700D01*
X70812383Y-141192700D01*
X70818471Y-141192700D01*
X70972793Y-141154663D01*
X71113529Y-141080799D01*
X71232498Y-140975401D01*
X71322787Y-140844595D01*
X71379149Y-140695982D01*
X71398307Y-140538200D01*
X71389055Y-140462000D01*
X93320693Y-140462000D01*
X93321426Y-140468037D01*
X93339117Y-140613743D01*
X93339118Y-140613748D01*
X93339851Y-140619782D01*
X93342005Y-140625462D01*
X93342007Y-140625469D01*
X93394055Y-140762707D01*
X93394057Y-140762712D01*
X93396213Y-140768395D01*
X93399668Y-140773401D01*
X93399670Y-140773404D01*
X93483044Y-140894192D01*
X93483046Y-140894194D01*
X93486502Y-140899201D01*
X93605471Y-141004599D01*
X93746207Y-141078463D01*
X93900529Y-141116500D01*
X94053383Y-141116500D01*
X94059471Y-141116500D01*
X94213793Y-141078463D01*
X94354529Y-141004599D01*
X94473498Y-140899201D01*
X94563787Y-140768395D01*
X94620149Y-140619782D01*
X94639307Y-140462000D01*
X94620149Y-140304218D01*
X94595248Y-140238561D01*
X94565944Y-140161292D01*
X94565943Y-140161290D01*
X94563787Y-140155605D01*
X94473498Y-140024799D01*
X94354529Y-139919401D01*
X94349141Y-139916573D01*
X94349138Y-139916571D01*
X94219178Y-139848363D01*
X94219176Y-139848362D01*
X94213793Y-139845537D01*
X94207892Y-139844082D01*
X94207888Y-139844081D01*
X94065380Y-139808956D01*
X94065376Y-139808955D01*
X94059471Y-139807500D01*
X93900529Y-139807500D01*
X93894624Y-139808955D01*
X93894619Y-139808956D01*
X93752111Y-139844081D01*
X93752105Y-139844083D01*
X93746207Y-139845537D01*
X93740826Y-139848360D01*
X93740821Y-139848363D01*
X93610861Y-139916571D01*
X93610854Y-139916575D01*
X93605471Y-139919401D01*
X93600918Y-139923434D01*
X93600913Y-139923438D01*
X93491057Y-140020763D01*
X93491054Y-140020765D01*
X93486502Y-140024799D01*
X93483049Y-140029800D01*
X93483044Y-140029807D01*
X93399670Y-140150595D01*
X93399666Y-140150602D01*
X93396213Y-140155605D01*
X93394059Y-140161283D01*
X93394055Y-140161292D01*
X93342007Y-140298530D01*
X93342004Y-140298538D01*
X93339851Y-140304218D01*
X93339118Y-140310249D01*
X93339117Y-140310256D01*
X93328889Y-140394499D01*
X93320693Y-140462000D01*
X71389055Y-140462000D01*
X71379149Y-140380418D01*
X71368826Y-140353200D01*
X71324944Y-140237492D01*
X71324943Y-140237490D01*
X71322787Y-140231805D01*
X71296101Y-140193143D01*
X71235955Y-140106007D01*
X71235953Y-140106005D01*
X71232498Y-140100999D01*
X71125713Y-140006395D01*
X71118086Y-139999638D01*
X71118085Y-139999637D01*
X71113529Y-139995601D01*
X71108141Y-139992773D01*
X71108138Y-139992771D01*
X70978178Y-139924563D01*
X70978176Y-139924562D01*
X70972793Y-139921737D01*
X70966892Y-139920282D01*
X70966888Y-139920281D01*
X70824380Y-139885156D01*
X70824376Y-139885155D01*
X70818471Y-139883700D01*
X70659529Y-139883700D01*
X70653624Y-139885155D01*
X70653619Y-139885156D01*
X70511111Y-139920281D01*
X70511105Y-139920283D01*
X70505207Y-139921737D01*
X70499826Y-139924560D01*
X70499821Y-139924563D01*
X70369861Y-139992771D01*
X70369854Y-139992775D01*
X70364471Y-139995601D01*
X70359918Y-139999634D01*
X70359913Y-139999638D01*
X70250057Y-140096963D01*
X70250054Y-140096965D01*
X70245502Y-140100999D01*
X70242049Y-140106000D01*
X70242044Y-140106007D01*
X70158670Y-140226795D01*
X70158666Y-140226802D01*
X70155213Y-140231805D01*
X70153059Y-140237483D01*
X70153055Y-140237492D01*
X70101007Y-140374730D01*
X70101004Y-140374738D01*
X70098851Y-140380418D01*
X70098118Y-140386449D01*
X70098117Y-140386456D01*
X70089678Y-140455963D01*
X70079693Y-140538200D01*
X61909611Y-140538200D01*
X61847041Y-140461959D01*
X61778726Y-140405894D01*
X61702016Y-140342939D01*
X61702013Y-140342937D01*
X61698198Y-140339806D01*
X61693844Y-140337479D01*
X61693840Y-140337476D01*
X61535839Y-140253023D01*
X61495731Y-140213887D01*
X61482783Y-140159364D01*
X61501014Y-140106374D01*
X61544766Y-140071359D01*
X61552084Y-140068327D01*
X61721918Y-139977549D01*
X61730101Y-139972081D01*
X61773246Y-139936672D01*
X61779584Y-139927514D01*
X61774173Y-139917778D01*
X61044030Y-139187635D01*
X61017993Y-139142537D01*
X61017993Y-139116500D01*
X61336063Y-139116500D01*
X61341469Y-139125864D01*
X61953778Y-139738173D01*
X61963514Y-139743584D01*
X61972672Y-139737246D01*
X62003240Y-139700000D01*
X86716693Y-139700000D01*
X86717426Y-139706037D01*
X86735117Y-139851743D01*
X86735118Y-139851748D01*
X86735851Y-139857782D01*
X86738005Y-139863462D01*
X86738007Y-139863469D01*
X86790055Y-140000707D01*
X86790057Y-140000712D01*
X86792213Y-140006395D01*
X86795668Y-140011401D01*
X86795670Y-140011404D01*
X86879044Y-140132192D01*
X86879046Y-140132194D01*
X86882502Y-140137201D01*
X87001471Y-140242599D01*
X87142207Y-140316463D01*
X87296529Y-140354500D01*
X87449383Y-140354500D01*
X87455471Y-140354500D01*
X87609793Y-140316463D01*
X87750529Y-140242599D01*
X87869498Y-140137201D01*
X87959787Y-140006395D01*
X88016149Y-139857782D01*
X88035307Y-139700000D01*
X88016149Y-139542218D01*
X88006236Y-139516081D01*
X87961944Y-139399292D01*
X87961943Y-139399290D01*
X87959787Y-139393605D01*
X87912766Y-139325483D01*
X87872955Y-139267807D01*
X87872953Y-139267805D01*
X87869498Y-139262799D01*
X87777886Y-139181637D01*
X87755086Y-139161438D01*
X87755085Y-139161437D01*
X87750529Y-139157401D01*
X87745141Y-139154573D01*
X87745138Y-139154571D01*
X87615178Y-139086363D01*
X87615176Y-139086362D01*
X87609793Y-139083537D01*
X87603892Y-139082082D01*
X87603888Y-139082081D01*
X87461380Y-139046956D01*
X87461376Y-139046955D01*
X87455471Y-139045500D01*
X87296529Y-139045500D01*
X87290624Y-139046955D01*
X87290619Y-139046956D01*
X87148111Y-139082081D01*
X87148105Y-139082083D01*
X87142207Y-139083537D01*
X87136826Y-139086360D01*
X87136821Y-139086363D01*
X87006861Y-139154571D01*
X87006854Y-139154575D01*
X87001471Y-139157401D01*
X86996918Y-139161434D01*
X86996913Y-139161438D01*
X86887057Y-139258763D01*
X86887054Y-139258765D01*
X86882502Y-139262799D01*
X86879049Y-139267800D01*
X86879044Y-139267807D01*
X86795670Y-139388595D01*
X86795666Y-139388602D01*
X86792213Y-139393605D01*
X86790059Y-139399283D01*
X86790055Y-139399292D01*
X86738007Y-139536530D01*
X86738004Y-139536538D01*
X86735851Y-139542218D01*
X86735118Y-139548249D01*
X86735117Y-139548256D01*
X86718403Y-139685918D01*
X86716693Y-139700000D01*
X62003240Y-139700000D01*
X62008081Y-139694101D01*
X62013549Y-139685918D01*
X62104329Y-139516081D01*
X62108092Y-139506997D01*
X62163993Y-139322717D01*
X62165913Y-139313063D01*
X62184789Y-139121414D01*
X62184789Y-139111586D01*
X62165913Y-138919936D01*
X62163993Y-138910282D01*
X62108092Y-138726002D01*
X62104329Y-138716918D01*
X62013548Y-138547079D01*
X62008084Y-138538903D01*
X61972670Y-138495750D01*
X61963515Y-138489414D01*
X61953779Y-138494825D01*
X61341469Y-139107135D01*
X61336063Y-139116500D01*
X61017993Y-139116500D01*
X61017993Y-139090463D01*
X61044030Y-139045365D01*
X61152500Y-138936895D01*
X61659393Y-138430000D01*
X93701693Y-138430000D01*
X93702426Y-138436037D01*
X93720117Y-138581743D01*
X93720118Y-138581748D01*
X93720851Y-138587782D01*
X93723005Y-138593462D01*
X93723007Y-138593469D01*
X93775055Y-138730707D01*
X93775057Y-138730712D01*
X93777213Y-138736395D01*
X93780668Y-138741401D01*
X93780670Y-138741404D01*
X93864044Y-138862192D01*
X93864046Y-138862194D01*
X93867502Y-138867201D01*
X93986471Y-138972599D01*
X94127207Y-139046463D01*
X94281529Y-139084500D01*
X94434383Y-139084500D01*
X94440471Y-139084500D01*
X94594793Y-139046463D01*
X94735529Y-138972599D01*
X94854498Y-138867201D01*
X94944787Y-138736395D01*
X95001149Y-138587782D01*
X95020307Y-138430000D01*
X95001149Y-138272218D01*
X94985972Y-138232201D01*
X94946944Y-138129292D01*
X94946943Y-138129290D01*
X94944787Y-138123605D01*
X94926078Y-138096500D01*
X94857955Y-137997807D01*
X94857953Y-137997805D01*
X94854498Y-137992799D01*
X94760808Y-137909796D01*
X94740086Y-137891438D01*
X94740085Y-137891437D01*
X94735529Y-137887401D01*
X94730141Y-137884573D01*
X94730138Y-137884571D01*
X94600178Y-137816363D01*
X94600176Y-137816362D01*
X94594793Y-137813537D01*
X94588892Y-137812082D01*
X94588888Y-137812081D01*
X94519588Y-137795000D01*
X100940693Y-137795000D01*
X100941426Y-137801037D01*
X100959117Y-137946743D01*
X100959118Y-137946748D01*
X100959851Y-137952782D01*
X100962005Y-137958462D01*
X100962007Y-137958469D01*
X101014055Y-138095707D01*
X101014057Y-138095712D01*
X101016213Y-138101395D01*
X101019668Y-138106401D01*
X101019670Y-138106404D01*
X101103044Y-138227192D01*
X101103046Y-138227194D01*
X101106502Y-138232201D01*
X101225471Y-138337599D01*
X101366207Y-138411463D01*
X101520529Y-138449500D01*
X101673383Y-138449500D01*
X101679471Y-138449500D01*
X101833793Y-138411463D01*
X101974529Y-138337599D01*
X102093498Y-138232201D01*
X102183787Y-138101395D01*
X102240149Y-137952782D01*
X102259307Y-137795000D01*
X102240149Y-137637218D01*
X102224972Y-137597201D01*
X102185944Y-137494292D01*
X102185943Y-137494290D01*
X102183787Y-137488605D01*
X102168457Y-137466395D01*
X102096955Y-137362807D01*
X102096953Y-137362805D01*
X102093498Y-137357799D01*
X101997280Y-137272557D01*
X101979086Y-137256438D01*
X101979085Y-137256437D01*
X101974529Y-137252401D01*
X101969141Y-137249573D01*
X101969138Y-137249571D01*
X101839178Y-137181363D01*
X101839176Y-137181362D01*
X101833793Y-137178537D01*
X101827892Y-137177082D01*
X101827888Y-137177081D01*
X101758588Y-137160000D01*
X104369693Y-137160000D01*
X104370426Y-137166037D01*
X104388117Y-137311743D01*
X104388118Y-137311748D01*
X104388851Y-137317782D01*
X104391005Y-137323462D01*
X104391007Y-137323469D01*
X104443055Y-137460707D01*
X104443057Y-137460712D01*
X104445213Y-137466395D01*
X104448668Y-137471401D01*
X104448670Y-137471404D01*
X104532044Y-137592192D01*
X104532046Y-137592194D01*
X104535502Y-137597201D01*
X104654471Y-137702599D01*
X104795207Y-137776463D01*
X104949529Y-137814500D01*
X105102383Y-137814500D01*
X105108471Y-137814500D01*
X105262793Y-137776463D01*
X105403529Y-137702599D01*
X105522498Y-137597201D01*
X105612787Y-137466395D01*
X105669149Y-137317782D01*
X105688307Y-137160000D01*
X105669149Y-137002218D01*
X105621099Y-136875523D01*
X105614944Y-136859292D01*
X105614943Y-136859290D01*
X105612787Y-136853605D01*
X105565006Y-136784382D01*
X105525955Y-136727807D01*
X105525953Y-136727805D01*
X105522498Y-136722799D01*
X105416015Y-136628463D01*
X105408086Y-136621438D01*
X105408085Y-136621437D01*
X105403529Y-136617401D01*
X105398141Y-136614573D01*
X105398138Y-136614571D01*
X105268178Y-136546363D01*
X105268176Y-136546362D01*
X105262793Y-136543537D01*
X105256892Y-136542082D01*
X105256888Y-136542081D01*
X105114380Y-136506956D01*
X105114376Y-136506955D01*
X105108471Y-136505500D01*
X104949529Y-136505500D01*
X104943624Y-136506955D01*
X104943619Y-136506956D01*
X104801111Y-136542081D01*
X104801105Y-136542083D01*
X104795207Y-136543537D01*
X104789826Y-136546360D01*
X104789821Y-136546363D01*
X104659861Y-136614571D01*
X104659854Y-136614575D01*
X104654471Y-136617401D01*
X104649918Y-136621434D01*
X104649913Y-136621438D01*
X104540057Y-136718763D01*
X104540054Y-136718765D01*
X104535502Y-136722799D01*
X104532049Y-136727800D01*
X104532044Y-136727807D01*
X104448670Y-136848595D01*
X104448666Y-136848602D01*
X104445213Y-136853605D01*
X104443059Y-136859283D01*
X104443055Y-136859292D01*
X104391007Y-136996530D01*
X104391004Y-136996538D01*
X104388851Y-137002218D01*
X104388118Y-137008249D01*
X104388117Y-137008256D01*
X104372954Y-137133143D01*
X104369693Y-137160000D01*
X101758588Y-137160000D01*
X101685380Y-137141956D01*
X101685376Y-137141955D01*
X101679471Y-137140500D01*
X101520529Y-137140500D01*
X101514624Y-137141955D01*
X101514619Y-137141956D01*
X101372111Y-137177081D01*
X101372105Y-137177083D01*
X101366207Y-137178537D01*
X101360826Y-137181360D01*
X101360821Y-137181363D01*
X101230861Y-137249571D01*
X101230854Y-137249575D01*
X101225471Y-137252401D01*
X101220918Y-137256434D01*
X101220913Y-137256438D01*
X101111057Y-137353763D01*
X101111054Y-137353765D01*
X101106502Y-137357799D01*
X101103049Y-137362800D01*
X101103044Y-137362807D01*
X101019670Y-137483595D01*
X101019666Y-137483602D01*
X101016213Y-137488605D01*
X101014059Y-137494283D01*
X101014055Y-137494292D01*
X100962007Y-137631530D01*
X100962004Y-137631538D01*
X100959851Y-137637218D01*
X100959118Y-137643249D01*
X100959117Y-137643256D01*
X100944066Y-137767220D01*
X100940693Y-137795000D01*
X94519588Y-137795000D01*
X94446380Y-137776956D01*
X94446376Y-137776955D01*
X94440471Y-137775500D01*
X94281529Y-137775500D01*
X94275624Y-137776955D01*
X94275619Y-137776956D01*
X94133111Y-137812081D01*
X94133105Y-137812083D01*
X94127207Y-137813537D01*
X94121826Y-137816360D01*
X94121821Y-137816363D01*
X93991861Y-137884571D01*
X93991854Y-137884575D01*
X93986471Y-137887401D01*
X93981918Y-137891434D01*
X93981913Y-137891438D01*
X93872057Y-137988763D01*
X93872054Y-137988765D01*
X93867502Y-137992799D01*
X93864049Y-137997800D01*
X93864044Y-137997807D01*
X93780670Y-138118595D01*
X93780666Y-138118602D01*
X93777213Y-138123605D01*
X93775059Y-138129283D01*
X93775055Y-138129292D01*
X93723007Y-138266530D01*
X93723004Y-138266538D01*
X93720851Y-138272218D01*
X93720118Y-138278249D01*
X93720117Y-138278256D01*
X93704287Y-138408636D01*
X93701693Y-138430000D01*
X61659393Y-138430000D01*
X61774173Y-138315220D01*
X61779584Y-138305483D01*
X61773248Y-138296328D01*
X61730097Y-138260915D01*
X61721920Y-138255451D01*
X61552077Y-138164668D01*
X61544760Y-138161637D01*
X61501011Y-138126620D01*
X61482783Y-138073631D01*
X61495732Y-138019110D01*
X61535840Y-137979976D01*
X61576077Y-137958469D01*
X61698198Y-137893194D01*
X61847041Y-137771041D01*
X61969194Y-137622198D01*
X62059962Y-137452383D01*
X62115857Y-137268124D01*
X62134730Y-137076500D01*
X62115857Y-136884876D01*
X62059962Y-136700617D01*
X62020399Y-136626600D01*
X65355293Y-136626600D01*
X65356026Y-136632637D01*
X65373717Y-136778343D01*
X65373718Y-136778348D01*
X65374451Y-136784382D01*
X65376605Y-136790062D01*
X65376607Y-136790069D01*
X65428655Y-136927307D01*
X65428657Y-136927312D01*
X65430813Y-136932995D01*
X65434268Y-136938001D01*
X65434270Y-136938004D01*
X65517644Y-137058792D01*
X65517646Y-137058794D01*
X65521102Y-137063801D01*
X65607677Y-137140500D01*
X65629687Y-137160000D01*
X65640071Y-137169199D01*
X65645460Y-137172027D01*
X65645461Y-137172028D01*
X65675137Y-137187603D01*
X65780807Y-137243063D01*
X65935129Y-137281100D01*
X66087983Y-137281100D01*
X66094071Y-137281100D01*
X66248393Y-137243063D01*
X66389129Y-137169199D01*
X66508098Y-137063801D01*
X66598387Y-136932995D01*
X66654749Y-136784382D01*
X66672948Y-136634500D01*
X68284193Y-136634500D01*
X68284926Y-136640537D01*
X68302617Y-136786243D01*
X68302618Y-136786248D01*
X68303351Y-136792282D01*
X68305505Y-136797962D01*
X68305507Y-136797969D01*
X68357555Y-136935207D01*
X68357557Y-136935212D01*
X68359713Y-136940895D01*
X68363168Y-136945901D01*
X68363170Y-136945904D01*
X68446544Y-137066692D01*
X68446546Y-137066694D01*
X68450002Y-137071701D01*
X68568971Y-137177099D01*
X68709707Y-137250963D01*
X68864029Y-137289000D01*
X69016883Y-137289000D01*
X69022971Y-137289000D01*
X69177293Y-137250963D01*
X69318029Y-137177099D01*
X69337330Y-137160000D01*
X85827693Y-137160000D01*
X85828426Y-137166037D01*
X85846117Y-137311743D01*
X85846118Y-137311748D01*
X85846851Y-137317782D01*
X85849005Y-137323462D01*
X85849007Y-137323469D01*
X85901055Y-137460707D01*
X85901057Y-137460712D01*
X85903213Y-137466395D01*
X85906668Y-137471401D01*
X85906670Y-137471404D01*
X85990044Y-137592192D01*
X85990046Y-137592194D01*
X85993502Y-137597201D01*
X86112471Y-137702599D01*
X86253207Y-137776463D01*
X86407529Y-137814500D01*
X86560383Y-137814500D01*
X86566471Y-137814500D01*
X86720793Y-137776463D01*
X86861529Y-137702599D01*
X86980498Y-137597201D01*
X87070787Y-137466395D01*
X87127149Y-137317782D01*
X87146307Y-137160000D01*
X87127149Y-137002218D01*
X87079099Y-136875523D01*
X87072944Y-136859292D01*
X87072943Y-136859290D01*
X87070787Y-136853605D01*
X87023006Y-136784382D01*
X86983955Y-136727807D01*
X86983953Y-136727805D01*
X86980498Y-136722799D01*
X86874015Y-136628463D01*
X86866086Y-136621438D01*
X86866085Y-136621437D01*
X86861529Y-136617401D01*
X86856141Y-136614573D01*
X86856138Y-136614571D01*
X86726178Y-136546363D01*
X86726176Y-136546362D01*
X86720793Y-136543537D01*
X86714892Y-136542082D01*
X86714888Y-136542081D01*
X86572380Y-136506956D01*
X86572376Y-136506955D01*
X86566471Y-136505500D01*
X86407529Y-136505500D01*
X86401624Y-136506955D01*
X86401619Y-136506956D01*
X86259111Y-136542081D01*
X86259105Y-136542083D01*
X86253207Y-136543537D01*
X86247826Y-136546360D01*
X86247821Y-136546363D01*
X86117861Y-136614571D01*
X86117854Y-136614575D01*
X86112471Y-136617401D01*
X86107918Y-136621434D01*
X86107913Y-136621438D01*
X85998057Y-136718763D01*
X85998054Y-136718765D01*
X85993502Y-136722799D01*
X85990049Y-136727800D01*
X85990044Y-136727807D01*
X85906670Y-136848595D01*
X85906666Y-136848602D01*
X85903213Y-136853605D01*
X85901059Y-136859283D01*
X85901055Y-136859292D01*
X85849007Y-136996530D01*
X85849004Y-136996538D01*
X85846851Y-137002218D01*
X85846118Y-137008249D01*
X85846117Y-137008256D01*
X85830954Y-137133143D01*
X85827693Y-137160000D01*
X69337330Y-137160000D01*
X69436998Y-137071701D01*
X69527287Y-136940895D01*
X69583649Y-136792282D01*
X69602807Y-136634500D01*
X69583649Y-136476718D01*
X69547711Y-136381959D01*
X69529444Y-136333792D01*
X69529443Y-136333790D01*
X69527287Y-136328105D01*
X69436998Y-136197299D01*
X69318029Y-136091901D01*
X69312641Y-136089073D01*
X69312638Y-136089071D01*
X69182678Y-136020863D01*
X69182676Y-136020862D01*
X69177293Y-136018037D01*
X69171392Y-136016582D01*
X69171388Y-136016581D01*
X69028880Y-135981456D01*
X69028876Y-135981455D01*
X69022971Y-135980000D01*
X68864029Y-135980000D01*
X68858124Y-135981455D01*
X68858119Y-135981456D01*
X68715611Y-136016581D01*
X68715605Y-136016583D01*
X68709707Y-136018037D01*
X68704326Y-136020860D01*
X68704321Y-136020863D01*
X68574361Y-136089071D01*
X68574354Y-136089075D01*
X68568971Y-136091901D01*
X68564418Y-136095934D01*
X68564413Y-136095938D01*
X68454557Y-136193263D01*
X68454554Y-136193265D01*
X68450002Y-136197299D01*
X68446549Y-136202300D01*
X68446544Y-136202307D01*
X68363170Y-136323095D01*
X68363166Y-136323102D01*
X68359713Y-136328105D01*
X68357559Y-136333783D01*
X68357555Y-136333792D01*
X68305507Y-136471030D01*
X68305504Y-136471038D01*
X68303351Y-136476718D01*
X68302618Y-136482749D01*
X68302617Y-136482756D01*
X68286613Y-136614571D01*
X68284193Y-136634500D01*
X66672948Y-136634500D01*
X66673907Y-136626600D01*
X66654749Y-136468818D01*
X66621807Y-136381959D01*
X66600544Y-136325892D01*
X66600543Y-136325890D01*
X66598387Y-136320205D01*
X66508098Y-136189399D01*
X66389129Y-136084001D01*
X66383741Y-136081173D01*
X66383738Y-136081171D01*
X66253778Y-136012963D01*
X66253776Y-136012962D01*
X66248393Y-136010137D01*
X66242492Y-136008682D01*
X66242488Y-136008681D01*
X66099980Y-135973556D01*
X66099976Y-135973555D01*
X66094071Y-135972100D01*
X65935129Y-135972100D01*
X65929224Y-135973555D01*
X65929219Y-135973556D01*
X65786711Y-136008681D01*
X65786705Y-136008683D01*
X65780807Y-136010137D01*
X65775426Y-136012960D01*
X65775421Y-136012963D01*
X65645461Y-136081171D01*
X65645454Y-136081175D01*
X65640071Y-136084001D01*
X65635518Y-136088034D01*
X65635513Y-136088038D01*
X65525657Y-136185363D01*
X65525654Y-136185365D01*
X65521102Y-136189399D01*
X65517649Y-136194400D01*
X65517644Y-136194407D01*
X65434270Y-136315195D01*
X65434266Y-136315202D01*
X65430813Y-136320205D01*
X65428659Y-136325883D01*
X65428655Y-136325892D01*
X65376607Y-136463130D01*
X65376604Y-136463138D01*
X65374451Y-136468818D01*
X65373718Y-136474849D01*
X65373717Y-136474856D01*
X65365035Y-136546363D01*
X65355293Y-136626600D01*
X62020399Y-136626600D01*
X62017172Y-136620563D01*
X61971523Y-136535159D01*
X61971522Y-136535157D01*
X61969194Y-136530802D01*
X61929763Y-136482756D01*
X61850176Y-136385779D01*
X61847041Y-136381959D01*
X61778724Y-136325892D01*
X61702016Y-136262939D01*
X61702013Y-136262937D01*
X61698198Y-136259806D01*
X61693844Y-136257479D01*
X61693840Y-136257476D01*
X61532740Y-136171366D01*
X61532732Y-136171363D01*
X61528383Y-136169038D01*
X61523661Y-136167605D01*
X61523655Y-136167603D01*
X61484387Y-136155692D01*
X61474747Y-136152767D01*
X61431433Y-136126225D01*
X61406611Y-136081901D01*
X61406611Y-136031099D01*
X61431433Y-135986775D01*
X61474747Y-135960232D01*
X61528383Y-135943962D01*
X61698198Y-135853194D01*
X61847041Y-135731041D01*
X61969194Y-135582198D01*
X62059962Y-135412383D01*
X62115857Y-135228124D01*
X62134730Y-135036500D01*
X62115857Y-134844876D01*
X62059962Y-134660617D01*
X61969194Y-134490802D01*
X61847041Y-134341959D01*
X61714101Y-134232857D01*
X61702016Y-134222939D01*
X61702013Y-134222937D01*
X61698198Y-134219806D01*
X61693844Y-134217479D01*
X61693840Y-134217476D01*
X61532740Y-134131366D01*
X61532732Y-134131363D01*
X61528383Y-134129038D01*
X61523661Y-134127605D01*
X61523655Y-134127603D01*
X61348857Y-134074578D01*
X61348849Y-134074576D01*
X61344124Y-134073143D01*
X61339206Y-134072658D01*
X61339203Y-134072658D01*
X61157414Y-134054754D01*
X61152500Y-134054270D01*
X61147586Y-134054754D01*
X60965796Y-134072658D01*
X60965791Y-134072658D01*
X60960876Y-134073143D01*
X60956152Y-134074575D01*
X60956142Y-134074578D01*
X60781344Y-134127603D01*
X60781334Y-134127606D01*
X60776617Y-134129038D01*
X60772270Y-134131361D01*
X60772259Y-134131366D01*
X60611159Y-134217476D01*
X60611150Y-134217481D01*
X60606802Y-134219806D01*
X60602990Y-134222933D01*
X60602983Y-134222939D01*
X60461779Y-134338823D01*
X60461773Y-134338828D01*
X60457959Y-134341959D01*
X60454828Y-134345773D01*
X60454823Y-134345779D01*
X60338939Y-134486983D01*
X60338933Y-134486990D01*
X60335806Y-134490802D01*
X60333481Y-134495150D01*
X60333476Y-134495159D01*
X60247366Y-134656259D01*
X60247361Y-134656270D01*
X60245038Y-134660617D01*
X60243606Y-134665334D01*
X60243603Y-134665344D01*
X60190578Y-134840142D01*
X60190575Y-134840152D01*
X60189143Y-134844876D01*
X60188658Y-134849791D01*
X60188658Y-134849796D01*
X60188094Y-134855523D01*
X60170270Y-135036500D01*
X60170754Y-135041414D01*
X60188658Y-135223208D01*
X60188659Y-135223216D01*
X60189143Y-135228124D01*
X60190509Y-135232630D01*
X60183818Y-135292949D01*
X60143567Y-135338468D01*
X60084448Y-135352506D01*
X60028030Y-135329943D01*
X59922023Y-135242944D01*
X59922015Y-135242939D01*
X59918198Y-135239806D01*
X59913844Y-135237479D01*
X59913840Y-135237476D01*
X59752740Y-135151366D01*
X59752732Y-135151363D01*
X59748383Y-135149038D01*
X59743661Y-135147605D01*
X59743655Y-135147603D01*
X59568857Y-135094578D01*
X59568849Y-135094576D01*
X59564124Y-135093143D01*
X59559206Y-135092658D01*
X59559203Y-135092658D01*
X59377414Y-135074754D01*
X59372500Y-135074270D01*
X59367586Y-135074754D01*
X59185796Y-135092658D01*
X59185791Y-135092658D01*
X59180876Y-135093143D01*
X59176152Y-135094575D01*
X59176142Y-135094578D01*
X59001344Y-135147603D01*
X59001334Y-135147606D01*
X58996617Y-135149038D01*
X58992270Y-135151361D01*
X58992259Y-135151366D01*
X58831159Y-135237476D01*
X58831150Y-135237481D01*
X58826802Y-135239806D01*
X58822990Y-135242933D01*
X58822983Y-135242939D01*
X58681779Y-135358823D01*
X58681773Y-135358828D01*
X58677959Y-135361959D01*
X58674828Y-135365773D01*
X58674823Y-135365779D01*
X58558939Y-135506983D01*
X58558933Y-135506990D01*
X58555806Y-135510802D01*
X58553481Y-135515150D01*
X58553476Y-135515159D01*
X58467366Y-135676259D01*
X58467361Y-135676270D01*
X58465038Y-135680617D01*
X58463606Y-135685334D01*
X58463603Y-135685344D01*
X58410578Y-135860142D01*
X58410575Y-135860152D01*
X58409143Y-135864876D01*
X58408658Y-135869791D01*
X58408658Y-135869796D01*
X58398439Y-135973556D01*
X58390270Y-136056500D01*
X58390754Y-136061414D01*
X58402961Y-136185363D01*
X58409143Y-136248124D01*
X58410576Y-136252849D01*
X58410578Y-136252857D01*
X58463603Y-136427655D01*
X58463605Y-136427661D01*
X58465038Y-136432383D01*
X58467363Y-136436732D01*
X58467366Y-136436740D01*
X58553476Y-136597840D01*
X58553479Y-136597844D01*
X58555806Y-136602198D01*
X58558937Y-136606013D01*
X58558939Y-136606016D01*
X58587270Y-136640537D01*
X58677959Y-136751041D01*
X58681779Y-136754176D01*
X58720852Y-136786243D01*
X58826802Y-136873194D01*
X58831157Y-136875522D01*
X58831159Y-136875523D01*
X58992259Y-136961633D01*
X58992262Y-136961634D01*
X58996617Y-136963962D01*
X59001343Y-136965395D01*
X59001344Y-136965396D01*
X59050251Y-136980232D01*
X59093566Y-137006776D01*
X59118388Y-137051099D01*
X59118388Y-137101901D01*
X59093566Y-137146224D01*
X59050251Y-137172768D01*
X59001344Y-137187603D01*
X59001334Y-137187606D01*
X58996617Y-137189038D01*
X58992270Y-137191361D01*
X58992259Y-137191366D01*
X58831159Y-137277476D01*
X58831150Y-137277481D01*
X58826802Y-137279806D01*
X58822990Y-137282933D01*
X58822983Y-137282939D01*
X58681779Y-137398823D01*
X58681773Y-137398828D01*
X58677959Y-137401959D01*
X58674828Y-137405773D01*
X58674823Y-137405779D01*
X58558939Y-137546983D01*
X58558933Y-137546990D01*
X58555806Y-137550802D01*
X58553481Y-137555150D01*
X58553476Y-137555159D01*
X58467366Y-137716259D01*
X58467361Y-137716270D01*
X58465038Y-137720617D01*
X58463606Y-137725334D01*
X58463603Y-137725344D01*
X58410578Y-137900142D01*
X58410575Y-137900152D01*
X58409143Y-137904876D01*
X58408658Y-137909791D01*
X58408658Y-137909796D01*
X58401746Y-137979976D01*
X58390270Y-138096500D01*
X58390754Y-138101413D01*
X58390754Y-138101414D01*
X58404032Y-138236236D01*
X58409143Y-138288124D01*
X58410576Y-138292849D01*
X58410578Y-138292857D01*
X58463603Y-138467655D01*
X58463605Y-138467661D01*
X58465038Y-138472383D01*
X58467363Y-138476732D01*
X58467366Y-138476740D01*
X58553476Y-138637840D01*
X58553479Y-138637844D01*
X58555806Y-138642198D01*
X58558937Y-138646013D01*
X58558939Y-138646016D01*
X58674823Y-138787220D01*
X58677959Y-138791041D01*
X58681779Y-138794176D01*
X58773508Y-138869457D01*
X58826802Y-138913194D01*
X58831163Y-138915525D01*
X58989159Y-138999976D01*
X59029267Y-139039110D01*
X59042216Y-139093629D01*
X59023989Y-139146619D01*
X58980242Y-139181636D01*
X58972922Y-139184668D01*
X58803081Y-139275450D01*
X58794902Y-139280915D01*
X58751749Y-139316329D01*
X58745413Y-139325483D01*
X58750824Y-139335219D01*
X59480969Y-140065364D01*
X59507006Y-140110462D01*
X59507006Y-140162536D01*
X59480969Y-140207634D01*
X58750825Y-140937778D01*
X58745414Y-140947515D01*
X58751750Y-140956670D01*
X58794903Y-140992084D01*
X58803079Y-140997548D01*
X58972918Y-141088329D01*
X58980235Y-141091360D01*
X59023986Y-141126376D01*
X59042216Y-141179366D01*
X59029268Y-141233887D01*
X58989160Y-141273023D01*
X58831159Y-141357476D01*
X58831150Y-141357481D01*
X58826802Y-141359806D01*
X58822990Y-141362933D01*
X58822983Y-141362939D01*
X58681779Y-141478823D01*
X58681773Y-141478828D01*
X58677959Y-141481959D01*
X58674828Y-141485773D01*
X58674823Y-141485779D01*
X58558939Y-141626983D01*
X58558933Y-141626990D01*
X58555806Y-141630802D01*
X58553481Y-141635150D01*
X58553476Y-141635159D01*
X58467366Y-141796259D01*
X58467361Y-141796270D01*
X58465038Y-141800617D01*
X58463606Y-141805334D01*
X58463603Y-141805344D01*
X58410578Y-141980142D01*
X58410575Y-141980152D01*
X58409143Y-141984876D01*
X58408658Y-141989791D01*
X58408658Y-141989796D01*
X58396485Y-142113392D01*
X58390270Y-142176500D01*
X52782500Y-142176500D01*
X52782500Y-140141414D01*
X58340211Y-140141414D01*
X58359086Y-140333063D01*
X58361006Y-140342717D01*
X58416907Y-140526997D01*
X58420670Y-140536081D01*
X58511451Y-140705920D01*
X58516915Y-140714097D01*
X58552328Y-140757248D01*
X58561483Y-140763584D01*
X58571220Y-140758173D01*
X59183530Y-140145864D01*
X59188936Y-140136500D01*
X59183530Y-140127135D01*
X58571219Y-139514824D01*
X58561483Y-139509413D01*
X58552329Y-139515749D01*
X58516915Y-139558902D01*
X58511450Y-139567081D01*
X58420670Y-139736918D01*
X58416907Y-139746002D01*
X58361006Y-139930282D01*
X58359086Y-139939936D01*
X58340211Y-140131586D01*
X58340211Y-140141414D01*
X52782500Y-140141414D01*
X52782500Y-132325180D01*
X54953238Y-132325180D01*
X54953638Y-132328822D01*
X54953639Y-132328829D01*
X54982862Y-132594424D01*
X54982863Y-132594433D01*
X54983264Y-132598071D01*
X54984191Y-132601617D01*
X54984192Y-132601622D01*
X55051773Y-132860123D01*
X55051775Y-132860129D01*
X55052704Y-132863682D01*
X55054140Y-132867061D01*
X55054142Y-132867067D01*
X55124729Y-133033171D01*
X55160077Y-133116352D01*
X55303095Y-133350696D01*
X55305447Y-133353522D01*
X55305449Y-133353525D01*
X55416514Y-133486983D01*
X55478709Y-133561718D01*
X55683177Y-133744923D01*
X55686242Y-133746951D01*
X55686245Y-133746953D01*
X55791571Y-133816636D01*
X55912141Y-133896404D01*
X56160721Y-134012933D01*
X56164232Y-134013989D01*
X56164234Y-134013990D01*
X56365620Y-134074578D01*
X56423619Y-134092027D01*
X56695231Y-134132000D01*
X56899214Y-134132000D01*
X56901047Y-134132000D01*
X57106305Y-134116977D01*
X57374275Y-134057284D01*
X57428617Y-134036500D01*
X64980270Y-134036500D01*
X64980754Y-134041414D01*
X64998323Y-134219806D01*
X64999143Y-134228124D01*
X65000576Y-134232849D01*
X65000578Y-134232857D01*
X65053603Y-134407655D01*
X65053605Y-134407661D01*
X65055038Y-134412383D01*
X65057363Y-134416732D01*
X65057366Y-134416740D01*
X65143476Y-134577840D01*
X65143479Y-134577844D01*
X65145806Y-134582198D01*
X65148937Y-134586013D01*
X65148939Y-134586016D01*
X65264823Y-134727220D01*
X65267959Y-134731041D01*
X65271779Y-134734176D01*
X65412661Y-134849796D01*
X65416802Y-134853194D01*
X65421157Y-134855522D01*
X65421159Y-134855523D01*
X65582259Y-134941633D01*
X65582262Y-134941634D01*
X65586617Y-134943962D01*
X65770876Y-134999857D01*
X65962500Y-135018730D01*
X66154124Y-134999857D01*
X66338383Y-134943962D01*
X66508198Y-134853194D01*
X66657041Y-134731041D01*
X66779194Y-134582198D01*
X66869962Y-134412383D01*
X66925857Y-134228124D01*
X66944730Y-134036500D01*
X66925857Y-133844876D01*
X66894791Y-133742466D01*
X66871396Y-133665344D01*
X66871395Y-133665343D01*
X66869962Y-133660617D01*
X66866646Y-133654414D01*
X66781523Y-133495159D01*
X66781522Y-133495157D01*
X66779194Y-133490802D01*
X66684485Y-133375400D01*
X66663640Y-133350000D01*
X86716693Y-133350000D01*
X86717426Y-133356037D01*
X86735117Y-133501743D01*
X86735118Y-133501748D01*
X86735851Y-133507782D01*
X86738005Y-133513462D01*
X86738007Y-133513469D01*
X86790055Y-133650707D01*
X86790057Y-133650712D01*
X86792213Y-133656395D01*
X86795668Y-133661401D01*
X86795670Y-133661404D01*
X86879044Y-133782192D01*
X86879046Y-133782194D01*
X86882502Y-133787201D01*
X87001471Y-133892599D01*
X87142207Y-133966463D01*
X87296529Y-134004500D01*
X87449383Y-134004500D01*
X87455471Y-134004500D01*
X87609793Y-133966463D01*
X87750529Y-133892599D01*
X87869498Y-133787201D01*
X87959787Y-133656395D01*
X88016149Y-133507782D01*
X88032223Y-133375400D01*
X103074293Y-133375400D01*
X103075026Y-133381437D01*
X103092717Y-133527143D01*
X103092718Y-133527148D01*
X103093451Y-133533182D01*
X103095605Y-133538862D01*
X103095607Y-133538869D01*
X103147655Y-133676107D01*
X103147657Y-133676112D01*
X103149813Y-133681795D01*
X103153268Y-133686801D01*
X103153270Y-133686804D01*
X103236644Y-133807592D01*
X103236646Y-133807594D01*
X103240102Y-133812601D01*
X103359071Y-133917999D01*
X103499807Y-133991863D01*
X103654129Y-134029900D01*
X103806983Y-134029900D01*
X103813071Y-134029900D01*
X103967393Y-133991863D01*
X104108129Y-133917999D01*
X104227098Y-133812601D01*
X104317387Y-133681795D01*
X104356524Y-133578600D01*
X112370693Y-133578600D01*
X112371426Y-133584637D01*
X112389117Y-133730343D01*
X112389118Y-133730348D01*
X112389851Y-133736382D01*
X112392005Y-133742062D01*
X112392007Y-133742069D01*
X112444055Y-133879307D01*
X112444057Y-133879312D01*
X112446213Y-133884995D01*
X112449668Y-133890001D01*
X112449670Y-133890004D01*
X112533044Y-134010792D01*
X112533046Y-134010794D01*
X112536502Y-134015801D01*
X112655471Y-134121199D01*
X112660860Y-134124027D01*
X112660861Y-134124028D01*
X112705353Y-134147379D01*
X112796207Y-134195063D01*
X112950529Y-134233100D01*
X113103383Y-134233100D01*
X113109471Y-134233100D01*
X113263793Y-134195063D01*
X113404529Y-134121199D01*
X113523498Y-134015801D01*
X113613787Y-133884995D01*
X113670149Y-133736382D01*
X113689307Y-133578600D01*
X113670149Y-133420818D01*
X113641001Y-133343963D01*
X113615944Y-133277892D01*
X113615943Y-133277890D01*
X113613787Y-133272205D01*
X113610329Y-133267195D01*
X113526955Y-133146407D01*
X113526953Y-133146405D01*
X113523498Y-133141399D01*
X113441783Y-133069005D01*
X113409086Y-133040038D01*
X113409085Y-133040037D01*
X113404529Y-133036001D01*
X113399141Y-133033173D01*
X113399138Y-133033171D01*
X113269178Y-132964963D01*
X113269176Y-132964962D01*
X113263793Y-132962137D01*
X113257892Y-132960682D01*
X113257888Y-132960681D01*
X113115380Y-132925556D01*
X113115376Y-132925555D01*
X113109471Y-132924100D01*
X112950529Y-132924100D01*
X112944624Y-132925555D01*
X112944619Y-132925556D01*
X112802111Y-132960681D01*
X112802105Y-132960683D01*
X112796207Y-132962137D01*
X112790826Y-132964960D01*
X112790821Y-132964963D01*
X112660861Y-133033171D01*
X112660854Y-133033175D01*
X112655471Y-133036001D01*
X112650918Y-133040034D01*
X112650913Y-133040038D01*
X112541057Y-133137363D01*
X112541054Y-133137365D01*
X112536502Y-133141399D01*
X112533049Y-133146400D01*
X112533044Y-133146407D01*
X112449670Y-133267195D01*
X112449666Y-133267202D01*
X112446213Y-133272205D01*
X112444059Y-133277883D01*
X112444055Y-133277892D01*
X112392007Y-133415130D01*
X112392004Y-133415138D01*
X112389851Y-133420818D01*
X112389118Y-133426849D01*
X112389117Y-133426856D01*
X112375517Y-133538869D01*
X112370693Y-133578600D01*
X104356524Y-133578600D01*
X104373749Y-133533182D01*
X104392907Y-133375400D01*
X104373749Y-133217618D01*
X104339610Y-133127603D01*
X104319544Y-133074692D01*
X104319543Y-133074690D01*
X104317387Y-133069005D01*
X104299855Y-133043605D01*
X104230555Y-132943207D01*
X104230553Y-132943205D01*
X104227098Y-132938199D01*
X104108129Y-132832801D01*
X104102741Y-132829973D01*
X104102738Y-132829971D01*
X103972778Y-132761763D01*
X103972776Y-132761762D01*
X103967393Y-132758937D01*
X103961492Y-132757482D01*
X103961488Y-132757481D01*
X103818980Y-132722356D01*
X103818976Y-132722355D01*
X103813071Y-132720900D01*
X103654129Y-132720900D01*
X103648224Y-132722355D01*
X103648219Y-132722356D01*
X103505711Y-132757481D01*
X103505705Y-132757483D01*
X103499807Y-132758937D01*
X103494426Y-132761760D01*
X103494421Y-132761763D01*
X103364461Y-132829971D01*
X103364454Y-132829975D01*
X103359071Y-132832801D01*
X103354518Y-132836834D01*
X103354513Y-132836838D01*
X103244657Y-132934163D01*
X103244654Y-132934165D01*
X103240102Y-132938199D01*
X103236649Y-132943200D01*
X103236644Y-132943207D01*
X103153270Y-133063995D01*
X103153266Y-133064002D01*
X103149813Y-133069005D01*
X103147659Y-133074683D01*
X103147655Y-133074692D01*
X103095607Y-133211930D01*
X103095604Y-133211938D01*
X103093451Y-133217618D01*
X103092718Y-133223649D01*
X103092717Y-133223656D01*
X103076949Y-133353525D01*
X103074293Y-133375400D01*
X88032223Y-133375400D01*
X88035307Y-133350000D01*
X88016149Y-133192218D01*
X87970989Y-133073143D01*
X87961944Y-133049292D01*
X87961943Y-133049290D01*
X87959787Y-133043605D01*
X87924152Y-132991979D01*
X87872955Y-132917807D01*
X87872953Y-132917805D01*
X87869498Y-132912799D01*
X87783756Y-132836838D01*
X87755086Y-132811438D01*
X87755085Y-132811437D01*
X87750529Y-132807401D01*
X87745141Y-132804573D01*
X87745138Y-132804571D01*
X87615178Y-132736363D01*
X87615176Y-132736362D01*
X87609793Y-132733537D01*
X87603892Y-132732082D01*
X87603888Y-132732081D01*
X87461380Y-132696956D01*
X87461376Y-132696955D01*
X87455471Y-132695500D01*
X87296529Y-132695500D01*
X87290624Y-132696955D01*
X87290619Y-132696956D01*
X87148111Y-132732081D01*
X87148105Y-132732083D01*
X87142207Y-132733537D01*
X87136826Y-132736360D01*
X87136821Y-132736363D01*
X87006861Y-132804571D01*
X87006854Y-132804575D01*
X87001471Y-132807401D01*
X86996918Y-132811434D01*
X86996913Y-132811438D01*
X86887057Y-132908763D01*
X86887054Y-132908765D01*
X86882502Y-132912799D01*
X86879049Y-132917800D01*
X86879044Y-132917807D01*
X86795670Y-133038595D01*
X86795666Y-133038602D01*
X86792213Y-133043605D01*
X86790059Y-133049283D01*
X86790055Y-133049292D01*
X86738007Y-133186530D01*
X86738004Y-133186538D01*
X86735851Y-133192218D01*
X86735118Y-133198249D01*
X86735117Y-133198256D01*
X86725448Y-133277892D01*
X86716693Y-133350000D01*
X66663640Y-133350000D01*
X66660176Y-133345779D01*
X66657041Y-133341959D01*
X66572046Y-133272205D01*
X66512016Y-133222939D01*
X66512013Y-133222937D01*
X66508198Y-133219806D01*
X66503844Y-133217479D01*
X66503840Y-133217476D01*
X66342740Y-133131366D01*
X66342732Y-133131363D01*
X66338383Y-133129038D01*
X66333661Y-133127605D01*
X66333655Y-133127603D01*
X66158857Y-133074578D01*
X66158849Y-133074576D01*
X66154124Y-133073143D01*
X66149206Y-133072658D01*
X66149203Y-133072658D01*
X65967414Y-133054754D01*
X65962500Y-133054270D01*
X65957586Y-133054754D01*
X65775796Y-133072658D01*
X65775791Y-133072658D01*
X65770876Y-133073143D01*
X65766152Y-133074575D01*
X65766142Y-133074578D01*
X65591344Y-133127603D01*
X65591334Y-133127606D01*
X65586617Y-133129038D01*
X65582270Y-133131361D01*
X65582259Y-133131366D01*
X65421159Y-133217476D01*
X65421150Y-133217481D01*
X65416802Y-133219806D01*
X65412990Y-133222933D01*
X65412983Y-133222939D01*
X65271779Y-133338823D01*
X65271773Y-133338828D01*
X65267959Y-133341959D01*
X65264828Y-133345773D01*
X65264823Y-133345779D01*
X65148939Y-133486983D01*
X65148933Y-133486990D01*
X65145806Y-133490802D01*
X65143481Y-133495150D01*
X65143476Y-133495159D01*
X65057366Y-133656259D01*
X65057361Y-133656270D01*
X65055038Y-133660617D01*
X65053606Y-133665334D01*
X65053603Y-133665344D01*
X65000578Y-133840142D01*
X65000575Y-133840152D01*
X64999143Y-133844876D01*
X64998658Y-133849791D01*
X64998658Y-133849796D01*
X64984945Y-133989036D01*
X64980270Y-134036500D01*
X57428617Y-134036500D01*
X57630698Y-133959211D01*
X57870109Y-133824847D01*
X58087404Y-133657057D01*
X58277954Y-133459416D01*
X58437696Y-133236137D01*
X58563227Y-132991979D01*
X58651870Y-132732146D01*
X58701736Y-132462174D01*
X58711762Y-132187820D01*
X58681736Y-131914929D01*
X58612296Y-131649318D01*
X58504923Y-131396648D01*
X58361905Y-131162304D01*
X58271427Y-131053584D01*
X58188642Y-130954107D01*
X58188641Y-130954106D01*
X58186291Y-130951282D01*
X57981823Y-130768077D01*
X57978759Y-130766049D01*
X57978754Y-130766046D01*
X57755926Y-130618625D01*
X57755924Y-130618624D01*
X57752859Y-130616596D01*
X57504279Y-130500067D01*
X57500774Y-130499012D01*
X57500765Y-130499009D01*
X57425948Y-130476500D01*
X58783039Y-130476500D01*
X58783349Y-130480439D01*
X58802543Y-130724334D01*
X58802544Y-130724344D01*
X58802854Y-130728275D01*
X58803776Y-130732118D01*
X58803777Y-130732120D01*
X58858093Y-130958363D01*
X58861812Y-130973851D01*
X58863322Y-130977498D01*
X58863324Y-130977502D01*
X58956948Y-131203532D01*
X58956953Y-131203541D01*
X58958460Y-131207180D01*
X58960518Y-131210539D01*
X58960521Y-131210544D01*
X59088352Y-131419145D01*
X59088356Y-131419150D01*
X59090419Y-131422517D01*
X59092987Y-131425524D01*
X59092988Y-131425525D01*
X59207665Y-131559796D01*
X59254439Y-131614561D01*
X59446483Y-131778581D01*
X59661820Y-131910540D01*
X59665463Y-131912049D01*
X59665467Y-131912051D01*
X59739840Y-131942857D01*
X59895149Y-132007188D01*
X60140725Y-132066146D01*
X60392500Y-132085961D01*
X60644275Y-132066146D01*
X60889851Y-132007188D01*
X61123180Y-131910540D01*
X61338517Y-131778581D01*
X61376079Y-131746500D01*
X64980270Y-131746500D01*
X64980754Y-131751414D01*
X64997217Y-131918575D01*
X64999143Y-131938124D01*
X65000576Y-131942849D01*
X65000578Y-131942857D01*
X65053603Y-132117655D01*
X65053605Y-132117661D01*
X65055038Y-132122383D01*
X65057363Y-132126732D01*
X65057366Y-132126740D01*
X65143476Y-132287840D01*
X65143479Y-132287844D01*
X65145806Y-132292198D01*
X65148937Y-132296013D01*
X65148939Y-132296016D01*
X65175868Y-132328829D01*
X65267959Y-132441041D01*
X65271779Y-132444176D01*
X65289231Y-132458499D01*
X65416802Y-132563194D01*
X65421157Y-132565522D01*
X65421159Y-132565523D01*
X65582259Y-132651633D01*
X65582262Y-132651634D01*
X65586617Y-132653962D01*
X65591343Y-132655395D01*
X65591344Y-132655396D01*
X65766142Y-132708421D01*
X65770876Y-132709857D01*
X65962500Y-132728730D01*
X66154124Y-132709857D01*
X66338383Y-132653962D01*
X66508198Y-132563194D01*
X66657041Y-132441041D01*
X66779194Y-132292198D01*
X66869962Y-132122383D01*
X66925857Y-131938124D01*
X66944730Y-131746500D01*
X66927544Y-131572000D01*
X78461693Y-131572000D01*
X78462426Y-131578037D01*
X78480117Y-131723743D01*
X78480118Y-131723748D01*
X78480851Y-131729782D01*
X78483005Y-131735462D01*
X78483007Y-131735469D01*
X78535055Y-131872707D01*
X78535057Y-131872712D01*
X78537213Y-131878395D01*
X78540668Y-131883401D01*
X78540670Y-131883404D01*
X78624044Y-132004192D01*
X78624046Y-132004194D01*
X78627502Y-132009201D01*
X78746471Y-132114599D01*
X78887207Y-132188463D01*
X79041529Y-132226500D01*
X79194383Y-132226500D01*
X79200471Y-132226500D01*
X79354793Y-132188463D01*
X79495529Y-132114599D01*
X79614498Y-132009201D01*
X79704787Y-131878395D01*
X79761149Y-131729782D01*
X79780307Y-131572000D01*
X79761149Y-131414218D01*
X79755770Y-131400036D01*
X79706944Y-131271292D01*
X79706943Y-131271290D01*
X79704787Y-131265605D01*
X79635652Y-131165446D01*
X79617955Y-131139807D01*
X79617953Y-131139805D01*
X79614498Y-131134799D01*
X79495529Y-131029401D01*
X79490141Y-131026573D01*
X79490138Y-131026571D01*
X79360178Y-130958363D01*
X79360176Y-130958362D01*
X79354793Y-130955537D01*
X79348892Y-130954082D01*
X79348888Y-130954081D01*
X79206380Y-130918956D01*
X79206376Y-130918955D01*
X79200471Y-130917500D01*
X79041529Y-130917500D01*
X79035624Y-130918955D01*
X79035619Y-130918956D01*
X78893111Y-130954081D01*
X78893105Y-130954083D01*
X78887207Y-130955537D01*
X78881826Y-130958360D01*
X78881821Y-130958363D01*
X78751861Y-131026571D01*
X78751854Y-131026575D01*
X78746471Y-131029401D01*
X78741918Y-131033434D01*
X78741913Y-131033438D01*
X78632057Y-131130763D01*
X78632054Y-131130765D01*
X78627502Y-131134799D01*
X78624049Y-131139800D01*
X78624044Y-131139807D01*
X78540670Y-131260595D01*
X78540666Y-131260602D01*
X78537213Y-131265605D01*
X78535059Y-131271283D01*
X78535055Y-131271292D01*
X78483007Y-131408530D01*
X78483004Y-131408538D01*
X78480851Y-131414218D01*
X78480118Y-131420249D01*
X78480117Y-131420256D01*
X78464347Y-131550142D01*
X78461693Y-131572000D01*
X66927544Y-131572000D01*
X66925857Y-131554876D01*
X66877859Y-131396648D01*
X66871396Y-131375344D01*
X66871395Y-131375343D01*
X66869962Y-131370617D01*
X66819849Y-131276863D01*
X66781523Y-131205159D01*
X66781522Y-131205157D01*
X66779194Y-131200802D01*
X66729136Y-131139807D01*
X66660176Y-131055779D01*
X66657041Y-131051959D01*
X66626106Y-131026571D01*
X66512016Y-130932939D01*
X66512013Y-130932937D01*
X66508198Y-130929806D01*
X66503844Y-130927479D01*
X66503840Y-130927476D01*
X66342740Y-130841366D01*
X66342732Y-130841363D01*
X66338383Y-130839038D01*
X66333661Y-130837605D01*
X66333655Y-130837603D01*
X66158857Y-130784578D01*
X66158849Y-130784576D01*
X66154124Y-130783143D01*
X66149206Y-130782658D01*
X66149203Y-130782658D01*
X65967414Y-130764754D01*
X65962500Y-130764270D01*
X65957586Y-130764754D01*
X65775796Y-130782658D01*
X65775791Y-130782658D01*
X65770876Y-130783143D01*
X65766152Y-130784575D01*
X65766142Y-130784578D01*
X65591344Y-130837603D01*
X65591334Y-130837606D01*
X65586617Y-130839038D01*
X65582270Y-130841361D01*
X65582259Y-130841366D01*
X65421159Y-130927476D01*
X65421150Y-130927481D01*
X65416802Y-130929806D01*
X65412990Y-130932933D01*
X65412983Y-130932939D01*
X65271779Y-131048823D01*
X65271773Y-131048828D01*
X65267959Y-131051959D01*
X65264828Y-131055773D01*
X65264823Y-131055779D01*
X65148939Y-131196983D01*
X65148933Y-131196990D01*
X65145806Y-131200802D01*
X65143481Y-131205150D01*
X65143476Y-131205159D01*
X65057366Y-131366259D01*
X65057361Y-131366270D01*
X65055038Y-131370617D01*
X65053606Y-131375334D01*
X65053603Y-131375344D01*
X65000578Y-131550142D01*
X65000575Y-131550152D01*
X64999143Y-131554876D01*
X64998658Y-131559791D01*
X64998658Y-131559796D01*
X64990175Y-131645932D01*
X64980270Y-131746500D01*
X61376079Y-131746500D01*
X61530561Y-131614561D01*
X61694581Y-131422517D01*
X61826540Y-131207180D01*
X61923188Y-130973851D01*
X61982146Y-130728275D01*
X62001961Y-130476500D01*
X61982146Y-130224725D01*
X61923188Y-129979149D01*
X61826540Y-129745820D01*
X61694581Y-129530483D01*
X61530561Y-129338439D01*
X61338517Y-129174419D01*
X61335150Y-129172356D01*
X61335145Y-129172352D01*
X61126544Y-129044521D01*
X61126539Y-129044518D01*
X61123180Y-129042460D01*
X61119541Y-129040953D01*
X61119532Y-129040948D01*
X60893502Y-128947324D01*
X60893498Y-128947322D01*
X60889851Y-128945812D01*
X60886012Y-128944890D01*
X60886008Y-128944889D01*
X60648120Y-128887777D01*
X60648118Y-128887776D01*
X60644275Y-128886854D01*
X60640344Y-128886544D01*
X60640334Y-128886543D01*
X60396439Y-128867349D01*
X60392500Y-128867039D01*
X60388561Y-128867349D01*
X60144665Y-128886543D01*
X60144653Y-128886544D01*
X60140725Y-128886854D01*
X60136883Y-128887776D01*
X60136879Y-128887777D01*
X59898991Y-128944889D01*
X59898983Y-128944891D01*
X59895149Y-128945812D01*
X59891504Y-128947321D01*
X59891497Y-128947324D01*
X59665467Y-129040948D01*
X59665452Y-129040955D01*
X59661820Y-129042460D01*
X59658465Y-129044515D01*
X59658455Y-129044521D01*
X59449854Y-129172352D01*
X59449843Y-129172359D01*
X59446483Y-129174419D01*
X59443481Y-129176982D01*
X59443474Y-129176988D01*
X59257447Y-129335869D01*
X59257440Y-129335875D01*
X59254439Y-129338439D01*
X59251875Y-129341440D01*
X59251869Y-129341447D01*
X59092988Y-129527474D01*
X59092982Y-129527481D01*
X59090419Y-129530483D01*
X59088359Y-129533843D01*
X59088352Y-129533854D01*
X58960521Y-129742455D01*
X58960515Y-129742465D01*
X58958460Y-129745820D01*
X58956955Y-129749452D01*
X58956948Y-129749467D01*
X58863324Y-129975497D01*
X58863321Y-129975504D01*
X58861812Y-129979149D01*
X58860891Y-129982983D01*
X58860889Y-129982991D01*
X58803777Y-130220879D01*
X58802854Y-130224725D01*
X58802544Y-130228653D01*
X58802543Y-130228665D01*
X58783349Y-130472561D01*
X58783039Y-130476500D01*
X57425948Y-130476500D01*
X57244897Y-130422030D01*
X57244886Y-130422027D01*
X57241381Y-130420973D01*
X57237753Y-130420439D01*
X57237744Y-130420437D01*
X56973410Y-130381535D01*
X56973398Y-130381534D01*
X56969769Y-130381000D01*
X56763953Y-130381000D01*
X56762142Y-130381132D01*
X56762129Y-130381133D01*
X56562353Y-130395755D01*
X56562349Y-130395755D01*
X56558695Y-130396023D01*
X56555115Y-130396820D01*
X56555111Y-130396821D01*
X56294307Y-130454917D01*
X56294293Y-130454921D01*
X56290725Y-130455716D01*
X56287301Y-130457025D01*
X56287296Y-130457027D01*
X56037741Y-130552473D01*
X56037732Y-130552476D01*
X56034302Y-130553789D01*
X56031102Y-130555584D01*
X56031089Y-130555591D01*
X55798102Y-130686350D01*
X55798093Y-130686355D01*
X55794891Y-130688153D01*
X55791987Y-130690395D01*
X55791980Y-130690400D01*
X55580499Y-130853700D01*
X55580487Y-130853709D01*
X55577596Y-130855943D01*
X55575060Y-130858573D01*
X55575047Y-130858585D01*
X55389597Y-131050937D01*
X55389590Y-131050944D01*
X55387046Y-131053584D01*
X55384916Y-131056561D01*
X55384907Y-131056572D01*
X55229442Y-131273874D01*
X55227304Y-131276863D01*
X55225629Y-131280120D01*
X55225624Y-131280129D01*
X55103452Y-131517753D01*
X55103446Y-131517766D01*
X55101773Y-131521021D01*
X55100590Y-131524488D01*
X55100586Y-131524498D01*
X55014782Y-131776011D01*
X55013130Y-131780854D01*
X55012464Y-131784457D01*
X55012464Y-131784459D01*
X54963931Y-132047212D01*
X54963930Y-132047219D01*
X54963264Y-132050826D01*
X54963130Y-132054489D01*
X54963129Y-132054500D01*
X54953372Y-132321506D01*
X54953238Y-132325180D01*
X52782500Y-132325180D01*
X52782500Y-128371600D01*
X69901893Y-128371600D01*
X69902626Y-128377637D01*
X69920317Y-128523343D01*
X69920318Y-128523348D01*
X69921051Y-128529382D01*
X69923205Y-128535062D01*
X69923207Y-128535069D01*
X69975255Y-128672307D01*
X69975257Y-128672312D01*
X69977413Y-128677995D01*
X69980868Y-128683001D01*
X69980870Y-128683004D01*
X70064244Y-128803792D01*
X70064246Y-128803794D01*
X70067702Y-128808801D01*
X70186671Y-128914199D01*
X70327407Y-128988063D01*
X70481729Y-129026100D01*
X70634583Y-129026100D01*
X70640671Y-129026100D01*
X70794993Y-128988063D01*
X70935729Y-128914199D01*
X71054698Y-128808801D01*
X71144987Y-128677995D01*
X71201349Y-128529382D01*
X71220507Y-128371600D01*
X71201349Y-128213818D01*
X71144987Y-128065205D01*
X71054698Y-127934399D01*
X70935729Y-127829001D01*
X70930341Y-127826173D01*
X70930338Y-127826171D01*
X70800378Y-127757963D01*
X70800376Y-127757962D01*
X70794993Y-127755137D01*
X70789092Y-127753682D01*
X70789088Y-127753681D01*
X70646580Y-127718556D01*
X70646576Y-127718555D01*
X70640671Y-127717100D01*
X70481729Y-127717100D01*
X70475824Y-127718555D01*
X70475819Y-127718556D01*
X70333311Y-127753681D01*
X70333305Y-127753683D01*
X70327407Y-127755137D01*
X70322026Y-127757960D01*
X70322021Y-127757963D01*
X70192061Y-127826171D01*
X70192054Y-127826175D01*
X70186671Y-127829001D01*
X70182118Y-127833034D01*
X70182113Y-127833038D01*
X70072257Y-127930363D01*
X70072254Y-127930365D01*
X70067702Y-127934399D01*
X70064249Y-127939400D01*
X70064244Y-127939407D01*
X69980870Y-128060195D01*
X69980866Y-128060202D01*
X69977413Y-128065205D01*
X69975259Y-128070883D01*
X69975255Y-128070892D01*
X69923207Y-128208130D01*
X69923204Y-128208138D01*
X69921051Y-128213818D01*
X69920318Y-128219849D01*
X69920317Y-128219856D01*
X69902626Y-128365563D01*
X69901893Y-128371600D01*
X52782500Y-128371600D01*
X52782500Y-126883727D01*
X57851566Y-126883727D01*
X57852299Y-126889764D01*
X57869990Y-127035470D01*
X57869991Y-127035475D01*
X57870724Y-127041509D01*
X57872878Y-127047189D01*
X57872880Y-127047196D01*
X57924928Y-127184434D01*
X57924930Y-127184439D01*
X57927086Y-127190122D01*
X57930541Y-127195128D01*
X57930543Y-127195131D01*
X58013917Y-127315919D01*
X58013919Y-127315921D01*
X58017375Y-127320928D01*
X58136344Y-127426326D01*
X58277080Y-127500190D01*
X58431402Y-127538227D01*
X58584256Y-127538227D01*
X58590344Y-127538227D01*
X58744666Y-127500190D01*
X58885402Y-127426326D01*
X59004371Y-127320928D01*
X59094660Y-127190122D01*
X59151022Y-127041509D01*
X59170180Y-126883727D01*
X59151022Y-126725945D01*
X59132233Y-126676404D01*
X59096817Y-126583019D01*
X59096816Y-126583017D01*
X59094660Y-126577332D01*
X59057007Y-126522782D01*
X59007828Y-126451534D01*
X59007826Y-126451532D01*
X59004371Y-126446526D01*
X58912348Y-126365000D01*
X87732693Y-126365000D01*
X87733426Y-126371037D01*
X87751117Y-126516743D01*
X87751118Y-126516748D01*
X87751851Y-126522782D01*
X87754005Y-126528462D01*
X87754007Y-126528469D01*
X87806055Y-126665707D01*
X87806057Y-126665712D01*
X87808213Y-126671395D01*
X87811668Y-126676401D01*
X87811670Y-126676404D01*
X87895044Y-126797192D01*
X87895046Y-126797194D01*
X87898502Y-126802201D01*
X88017471Y-126907599D01*
X88158207Y-126981463D01*
X88312529Y-127019500D01*
X88465383Y-127019500D01*
X88471471Y-127019500D01*
X88625793Y-126981463D01*
X88766529Y-126907599D01*
X88885498Y-126802201D01*
X88975787Y-126671395D01*
X89032149Y-126522782D01*
X89051307Y-126365000D01*
X89032149Y-126207218D01*
X88975787Y-126058605D01*
X88885498Y-125927799D01*
X88766529Y-125822401D01*
X88761141Y-125819573D01*
X88761138Y-125819571D01*
X88631178Y-125751363D01*
X88631176Y-125751362D01*
X88625793Y-125748537D01*
X88619892Y-125747082D01*
X88619888Y-125747081D01*
X88477380Y-125711956D01*
X88477376Y-125711955D01*
X88471471Y-125710500D01*
X88312529Y-125710500D01*
X88306624Y-125711955D01*
X88306619Y-125711956D01*
X88164111Y-125747081D01*
X88164105Y-125747083D01*
X88158207Y-125748537D01*
X88152826Y-125751360D01*
X88152821Y-125751363D01*
X88022861Y-125819571D01*
X88022854Y-125819575D01*
X88017471Y-125822401D01*
X88012918Y-125826434D01*
X88012913Y-125826438D01*
X87903057Y-125923763D01*
X87903054Y-125923765D01*
X87898502Y-125927799D01*
X87895049Y-125932800D01*
X87895044Y-125932807D01*
X87811670Y-126053595D01*
X87811666Y-126053602D01*
X87808213Y-126058605D01*
X87806059Y-126064283D01*
X87806055Y-126064292D01*
X87754007Y-126201530D01*
X87754004Y-126201538D01*
X87751851Y-126207218D01*
X87751118Y-126213249D01*
X87751117Y-126213256D01*
X87735101Y-126345165D01*
X87732693Y-126365000D01*
X58912348Y-126365000D01*
X58889959Y-126345165D01*
X58889958Y-126345164D01*
X58885402Y-126341128D01*
X58880014Y-126338300D01*
X58880011Y-126338298D01*
X58750051Y-126270090D01*
X58750049Y-126270089D01*
X58744666Y-126267264D01*
X58738765Y-126265809D01*
X58738761Y-126265808D01*
X58596253Y-126230683D01*
X58596249Y-126230682D01*
X58590344Y-126229227D01*
X58431402Y-126229227D01*
X58425497Y-126230682D01*
X58425492Y-126230683D01*
X58282984Y-126265808D01*
X58282978Y-126265810D01*
X58277080Y-126267264D01*
X58271699Y-126270087D01*
X58271694Y-126270090D01*
X58141734Y-126338298D01*
X58141727Y-126338302D01*
X58136344Y-126341128D01*
X58131791Y-126345161D01*
X58131786Y-126345165D01*
X58021930Y-126442490D01*
X58021927Y-126442492D01*
X58017375Y-126446526D01*
X58013922Y-126451527D01*
X58013917Y-126451534D01*
X57930543Y-126572322D01*
X57930539Y-126572329D01*
X57927086Y-126577332D01*
X57924932Y-126583010D01*
X57924928Y-126583019D01*
X57872880Y-126720257D01*
X57872877Y-126720265D01*
X57870724Y-126725945D01*
X57869991Y-126731976D01*
X57869990Y-126731983D01*
X57860975Y-126806236D01*
X57851566Y-126883727D01*
X52782500Y-126883727D01*
X52782500Y-125535590D01*
X52800323Y-125478421D01*
X52847477Y-125441509D01*
X52907253Y-125437932D01*
X52958471Y-125468960D01*
X52980743Y-125518606D01*
X52981530Y-125518408D01*
X52982659Y-125522877D01*
X52982982Y-125523596D01*
X52983109Y-125524656D01*
X52983111Y-125524665D01*
X52983880Y-125531067D01*
X53037077Y-125665964D01*
X53041235Y-125671448D01*
X53041238Y-125671452D01*
X53071954Y-125711956D01*
X53124695Y-125781505D01*
X53130181Y-125785665D01*
X53234747Y-125864961D01*
X53234749Y-125864962D01*
X53240236Y-125869123D01*
X53375133Y-125922320D01*
X53459905Y-125932500D01*
X54896494Y-125932499D01*
X54981267Y-125922320D01*
X55116164Y-125869123D01*
X55231705Y-125781505D01*
X55319323Y-125665964D01*
X55372520Y-125531067D01*
X55382700Y-125446295D01*
X55382700Y-124815600D01*
X78461693Y-124815600D01*
X78462426Y-124821637D01*
X78480117Y-124967343D01*
X78480118Y-124967348D01*
X78480851Y-124973382D01*
X78483005Y-124979062D01*
X78483007Y-124979069D01*
X78535055Y-125116307D01*
X78535057Y-125116312D01*
X78537213Y-125121995D01*
X78540668Y-125127001D01*
X78540670Y-125127004D01*
X78624044Y-125247792D01*
X78624046Y-125247794D01*
X78627502Y-125252801D01*
X78746471Y-125358199D01*
X78887207Y-125432063D01*
X79041529Y-125470100D01*
X79194383Y-125470100D01*
X79200471Y-125470100D01*
X79354793Y-125432063D01*
X79495529Y-125358199D01*
X79614498Y-125252801D01*
X79704787Y-125121995D01*
X79761149Y-124973382D01*
X79780307Y-124815600D01*
X79761149Y-124657818D01*
X79704787Y-124509205D01*
X79684283Y-124479500D01*
X79617955Y-124383407D01*
X79617953Y-124383405D01*
X79614498Y-124378399D01*
X79495529Y-124273001D01*
X79490141Y-124270173D01*
X79490138Y-124270171D01*
X79360178Y-124201963D01*
X79360176Y-124201962D01*
X79354793Y-124199137D01*
X79348892Y-124197682D01*
X79348888Y-124197681D01*
X79206380Y-124162556D01*
X79206376Y-124162555D01*
X79200471Y-124161100D01*
X79041529Y-124161100D01*
X79035624Y-124162555D01*
X79035619Y-124162556D01*
X78893111Y-124197681D01*
X78893105Y-124197683D01*
X78887207Y-124199137D01*
X78881826Y-124201960D01*
X78881821Y-124201963D01*
X78751861Y-124270171D01*
X78751854Y-124270175D01*
X78746471Y-124273001D01*
X78741918Y-124277034D01*
X78741913Y-124277038D01*
X78632057Y-124374363D01*
X78632054Y-124374365D01*
X78627502Y-124378399D01*
X78624049Y-124383400D01*
X78624044Y-124383407D01*
X78540670Y-124504195D01*
X78540666Y-124504202D01*
X78537213Y-124509205D01*
X78535059Y-124514883D01*
X78535055Y-124514892D01*
X78483007Y-124652130D01*
X78483004Y-124652138D01*
X78480851Y-124657818D01*
X78480118Y-124663849D01*
X78480117Y-124663856D01*
X78462426Y-124809563D01*
X78461693Y-124815600D01*
X55382700Y-124815600D01*
X55382699Y-124089706D01*
X55372520Y-124004933D01*
X55319323Y-123870036D01*
X55231705Y-123754495D01*
X55200986Y-123731200D01*
X55121652Y-123671038D01*
X55121648Y-123671035D01*
X55116164Y-123666877D01*
X54981267Y-123613680D01*
X54974866Y-123612911D01*
X54974861Y-123612910D01*
X54899480Y-123603858D01*
X54899472Y-123603857D01*
X54896495Y-123603500D01*
X54893491Y-123603500D01*
X53462915Y-123603500D01*
X53462898Y-123603500D01*
X53459906Y-123603501D01*
X53456927Y-123603858D01*
X53456921Y-123603859D01*
X53381536Y-123612911D01*
X53381534Y-123612911D01*
X53375133Y-123613680D01*
X53369135Y-123616045D01*
X53369132Y-123616046D01*
X53246641Y-123664351D01*
X53240236Y-123666877D01*
X53234754Y-123671033D01*
X53234747Y-123671038D01*
X53130181Y-123750334D01*
X53130177Y-123750337D01*
X53124695Y-123754495D01*
X53120537Y-123759977D01*
X53120534Y-123759981D01*
X53041238Y-123864547D01*
X53041233Y-123864554D01*
X53037077Y-123870036D01*
X53034551Y-123876439D01*
X53034551Y-123876441D01*
X52986246Y-123998933D01*
X52983880Y-124004933D01*
X52983111Y-124011333D01*
X52983110Y-124011339D01*
X52982982Y-124012410D01*
X52982656Y-124013135D01*
X52981531Y-124017589D01*
X52980747Y-124017390D01*
X52958470Y-124067047D01*
X52907252Y-124098074D01*
X52847476Y-124094497D01*
X52800323Y-124057585D01*
X52782500Y-124000416D01*
X52782500Y-123593000D01*
X56193768Y-123593000D01*
X56194401Y-123598618D01*
X56212801Y-123761932D01*
X56212802Y-123761937D01*
X56213435Y-123767553D01*
X56215299Y-123772881D01*
X56215301Y-123772888D01*
X56269584Y-123928018D01*
X56269585Y-123928022D01*
X56271451Y-123933352D01*
X56274459Y-123938139D01*
X56361897Y-124077297D01*
X56361899Y-124077299D01*
X56364906Y-124082085D01*
X56489115Y-124206294D01*
X56637848Y-124299749D01*
X56803647Y-124357765D01*
X56934426Y-124372500D01*
X57219158Y-124372500D01*
X57221974Y-124372500D01*
X57352753Y-124357765D01*
X57518552Y-124299749D01*
X57667285Y-124206294D01*
X57791494Y-124082085D01*
X57884949Y-123933352D01*
X57942965Y-123767553D01*
X57947061Y-123731200D01*
X74169093Y-123731200D01*
X74169826Y-123737237D01*
X74187517Y-123882943D01*
X74187518Y-123882948D01*
X74188251Y-123888982D01*
X74190405Y-123894662D01*
X74190407Y-123894669D01*
X74242455Y-124031907D01*
X74242457Y-124031912D01*
X74244613Y-124037595D01*
X74248068Y-124042601D01*
X74248070Y-124042604D01*
X74331444Y-124163392D01*
X74331446Y-124163394D01*
X74334902Y-124168401D01*
X74453871Y-124273799D01*
X74594607Y-124347663D01*
X74748929Y-124385700D01*
X74901783Y-124385700D01*
X74907871Y-124385700D01*
X75062193Y-124347663D01*
X75202929Y-124273799D01*
X75321898Y-124168401D01*
X75412187Y-124037595D01*
X75468549Y-123888982D01*
X75476318Y-123825000D01*
X93955693Y-123825000D01*
X93956426Y-123831037D01*
X93974117Y-123976743D01*
X93974118Y-123976748D01*
X93974851Y-123982782D01*
X93977005Y-123988462D01*
X93977007Y-123988469D01*
X94029055Y-124125707D01*
X94029057Y-124125712D01*
X94031213Y-124131395D01*
X94034668Y-124136401D01*
X94034670Y-124136404D01*
X94118044Y-124257192D01*
X94118046Y-124257194D01*
X94121502Y-124262201D01*
X94240471Y-124367599D01*
X94245860Y-124370427D01*
X94245861Y-124370428D01*
X94290353Y-124393779D01*
X94381207Y-124441463D01*
X94535529Y-124479500D01*
X94688383Y-124479500D01*
X94694471Y-124479500D01*
X94848793Y-124441463D01*
X94989529Y-124367599D01*
X95108498Y-124262201D01*
X95198787Y-124131395D01*
X95255149Y-123982782D01*
X95274307Y-123825000D01*
X95255149Y-123667218D01*
X95231119Y-123603858D01*
X95200944Y-123524292D01*
X95200943Y-123524290D01*
X95198787Y-123518605D01*
X95137967Y-123430492D01*
X95111955Y-123392807D01*
X95111953Y-123392805D01*
X95108498Y-123387799D01*
X95008273Y-123299007D01*
X94994086Y-123286438D01*
X94994085Y-123286437D01*
X94989529Y-123282401D01*
X94984141Y-123279573D01*
X94984138Y-123279571D01*
X94854178Y-123211363D01*
X94854176Y-123211362D01*
X94848793Y-123208537D01*
X94842892Y-123207082D01*
X94842888Y-123207081D01*
X94700380Y-123171956D01*
X94700376Y-123171955D01*
X94694471Y-123170500D01*
X94535529Y-123170500D01*
X94529624Y-123171955D01*
X94529619Y-123171956D01*
X94387111Y-123207081D01*
X94387105Y-123207083D01*
X94381207Y-123208537D01*
X94375826Y-123211360D01*
X94375821Y-123211363D01*
X94245861Y-123279571D01*
X94245854Y-123279575D01*
X94240471Y-123282401D01*
X94235918Y-123286434D01*
X94235913Y-123286438D01*
X94126057Y-123383763D01*
X94126054Y-123383765D01*
X94121502Y-123387799D01*
X94118049Y-123392800D01*
X94118044Y-123392807D01*
X94034670Y-123513595D01*
X94034666Y-123513602D01*
X94031213Y-123518605D01*
X94029059Y-123524283D01*
X94029055Y-123524292D01*
X93977007Y-123661530D01*
X93977004Y-123661538D01*
X93974851Y-123667218D01*
X93974118Y-123673249D01*
X93974117Y-123673256D01*
X93962668Y-123767553D01*
X93955693Y-123825000D01*
X75476318Y-123825000D01*
X75487707Y-123731200D01*
X75468549Y-123573418D01*
X75412187Y-123424805D01*
X75408729Y-123419795D01*
X75325355Y-123299007D01*
X75325353Y-123299005D01*
X75321898Y-123293999D01*
X75317345Y-123289965D01*
X75317343Y-123289963D01*
X75281242Y-123257981D01*
X75279569Y-123256498D01*
X75249652Y-123209189D01*
X75249652Y-123153211D01*
X75279569Y-123105901D01*
X75321898Y-123068401D01*
X75412187Y-122937595D01*
X75468549Y-122788982D01*
X75487707Y-122631200D01*
X75468549Y-122473418D01*
X75451324Y-122428000D01*
X97384693Y-122428000D01*
X97385426Y-122434037D01*
X97403117Y-122579743D01*
X97403118Y-122579748D01*
X97403851Y-122585782D01*
X97406005Y-122591462D01*
X97406007Y-122591469D01*
X97458055Y-122728707D01*
X97458057Y-122728712D01*
X97460213Y-122734395D01*
X97463668Y-122739401D01*
X97463670Y-122739404D01*
X97547044Y-122860192D01*
X97547046Y-122860194D01*
X97550502Y-122865201D01*
X97669471Y-122970599D01*
X97810207Y-123044463D01*
X97964529Y-123082500D01*
X98117383Y-123082500D01*
X98123471Y-123082500D01*
X98277793Y-123044463D01*
X98418529Y-122970599D01*
X98537498Y-122865201D01*
X98627787Y-122734395D01*
X98684149Y-122585782D01*
X98703307Y-122428000D01*
X98684149Y-122270218D01*
X98627787Y-122121605D01*
X98605006Y-122088601D01*
X98540955Y-121995807D01*
X98540953Y-121995805D01*
X98537498Y-121990799D01*
X98418529Y-121885401D01*
X98413141Y-121882573D01*
X98413138Y-121882571D01*
X98283178Y-121814363D01*
X98283176Y-121814362D01*
X98277793Y-121811537D01*
X98271892Y-121810082D01*
X98271888Y-121810081D01*
X98129380Y-121774956D01*
X98129376Y-121774955D01*
X98123471Y-121773500D01*
X97964529Y-121773500D01*
X97958624Y-121774955D01*
X97958619Y-121774956D01*
X97816111Y-121810081D01*
X97816105Y-121810083D01*
X97810207Y-121811537D01*
X97804826Y-121814360D01*
X97804821Y-121814363D01*
X97674861Y-121882571D01*
X97674854Y-121882575D01*
X97669471Y-121885401D01*
X97664918Y-121889434D01*
X97664913Y-121889438D01*
X97555057Y-121986763D01*
X97555054Y-121986765D01*
X97550502Y-121990799D01*
X97547049Y-121995800D01*
X97547044Y-121995807D01*
X97463670Y-122116595D01*
X97463666Y-122116602D01*
X97460213Y-122121605D01*
X97458059Y-122127283D01*
X97458055Y-122127292D01*
X97406007Y-122264530D01*
X97406004Y-122264538D01*
X97403851Y-122270218D01*
X97403118Y-122276249D01*
X97403117Y-122276256D01*
X97396532Y-122330492D01*
X97384693Y-122428000D01*
X75451324Y-122428000D01*
X75412187Y-122324805D01*
X75321898Y-122193999D01*
X75317345Y-122189965D01*
X75317343Y-122189963D01*
X75298051Y-122172872D01*
X75279569Y-122156498D01*
X75249652Y-122109189D01*
X75249652Y-122053211D01*
X75279569Y-122005901D01*
X75321898Y-121968401D01*
X75412187Y-121837595D01*
X75468549Y-121688982D01*
X75487707Y-121531200D01*
X75468549Y-121373418D01*
X75412187Y-121224805D01*
X75405698Y-121215404D01*
X75325355Y-121099007D01*
X75325353Y-121099005D01*
X75321898Y-121093999D01*
X75202929Y-120988601D01*
X75197541Y-120985773D01*
X75197538Y-120985771D01*
X75067578Y-120917563D01*
X75067576Y-120917562D01*
X75062193Y-120914737D01*
X75056292Y-120913282D01*
X75056288Y-120913281D01*
X75018633Y-120904000D01*
X79350693Y-120904000D01*
X79351426Y-120910037D01*
X79369117Y-121055743D01*
X79369118Y-121055748D01*
X79369851Y-121061782D01*
X79372005Y-121067462D01*
X79372007Y-121067469D01*
X79424055Y-121204707D01*
X79424057Y-121204712D01*
X79426213Y-121210395D01*
X79429668Y-121215401D01*
X79429670Y-121215404D01*
X79513044Y-121336192D01*
X79513046Y-121336194D01*
X79516502Y-121341201D01*
X79635471Y-121446599D01*
X79776207Y-121520463D01*
X79930529Y-121558500D01*
X80083383Y-121558500D01*
X80089471Y-121558500D01*
X80243793Y-121520463D01*
X80384529Y-121446599D01*
X80503498Y-121341201D01*
X80593787Y-121210395D01*
X80650149Y-121061782D01*
X80669307Y-120904000D01*
X80650149Y-120746218D01*
X80593787Y-120597605D01*
X80503498Y-120466799D01*
X80430518Y-120402144D01*
X80389086Y-120365438D01*
X80389085Y-120365437D01*
X80384529Y-120361401D01*
X80379141Y-120358573D01*
X80379138Y-120358571D01*
X80249178Y-120290363D01*
X80249176Y-120290362D01*
X80243793Y-120287537D01*
X80237892Y-120286082D01*
X80237888Y-120286081D01*
X80095380Y-120250956D01*
X80095376Y-120250955D01*
X80089471Y-120249500D01*
X79930529Y-120249500D01*
X79924624Y-120250955D01*
X79924619Y-120250956D01*
X79782111Y-120286081D01*
X79782105Y-120286083D01*
X79776207Y-120287537D01*
X79770826Y-120290360D01*
X79770821Y-120290363D01*
X79640861Y-120358571D01*
X79640854Y-120358575D01*
X79635471Y-120361401D01*
X79630918Y-120365434D01*
X79630913Y-120365438D01*
X79521057Y-120462763D01*
X79521054Y-120462765D01*
X79516502Y-120466799D01*
X79513049Y-120471800D01*
X79513044Y-120471807D01*
X79429670Y-120592595D01*
X79429666Y-120592602D01*
X79426213Y-120597605D01*
X79424059Y-120603283D01*
X79424055Y-120603292D01*
X79372007Y-120740530D01*
X79372004Y-120740538D01*
X79369851Y-120746218D01*
X79369118Y-120752249D01*
X79369117Y-120752256D01*
X79354008Y-120876700D01*
X79350693Y-120904000D01*
X75018633Y-120904000D01*
X74913780Y-120878156D01*
X74913776Y-120878155D01*
X74907871Y-120876700D01*
X74748929Y-120876700D01*
X74743024Y-120878155D01*
X74743019Y-120878156D01*
X74600511Y-120913281D01*
X74600505Y-120913283D01*
X74594607Y-120914737D01*
X74589226Y-120917560D01*
X74589221Y-120917563D01*
X74459261Y-120985771D01*
X74459254Y-120985775D01*
X74453871Y-120988601D01*
X74449318Y-120992634D01*
X74449313Y-120992638D01*
X74339457Y-121089963D01*
X74339454Y-121089965D01*
X74334902Y-121093999D01*
X74331449Y-121099000D01*
X74331444Y-121099007D01*
X74248070Y-121219795D01*
X74248066Y-121219802D01*
X74244613Y-121224805D01*
X74242459Y-121230483D01*
X74242455Y-121230492D01*
X74190407Y-121367730D01*
X74190404Y-121367738D01*
X74188251Y-121373418D01*
X74187518Y-121379449D01*
X74187517Y-121379456D01*
X74170740Y-121517636D01*
X74169093Y-121531200D01*
X74169826Y-121537237D01*
X74187517Y-121682943D01*
X74187518Y-121682948D01*
X74188251Y-121688982D01*
X74190405Y-121694662D01*
X74190407Y-121694669D01*
X74242455Y-121831907D01*
X74242457Y-121831912D01*
X74244613Y-121837595D01*
X74248068Y-121842601D01*
X74248070Y-121842604D01*
X74331444Y-121963392D01*
X74331446Y-121963394D01*
X74334902Y-121968401D01*
X74377230Y-122005901D01*
X74407147Y-122053212D01*
X74407147Y-122109188D01*
X74377230Y-122156498D01*
X74334902Y-122193999D01*
X74331449Y-122199000D01*
X74331444Y-122199007D01*
X74248070Y-122319795D01*
X74248066Y-122319802D01*
X74244613Y-122324805D01*
X74242459Y-122330483D01*
X74242455Y-122330492D01*
X74190407Y-122467730D01*
X74190404Y-122467738D01*
X74188251Y-122473418D01*
X74187518Y-122479449D01*
X74187517Y-122479456D01*
X74173917Y-122591469D01*
X74169093Y-122631200D01*
X74169826Y-122637237D01*
X74187517Y-122782943D01*
X74187518Y-122782948D01*
X74188251Y-122788982D01*
X74190405Y-122794662D01*
X74190407Y-122794669D01*
X74242455Y-122931907D01*
X74242457Y-122931912D01*
X74244613Y-122937595D01*
X74248068Y-122942601D01*
X74248070Y-122942604D01*
X74331444Y-123063392D01*
X74331446Y-123063394D01*
X74334902Y-123068401D01*
X74377230Y-123105901D01*
X74407147Y-123153212D01*
X74407147Y-123209188D01*
X74377230Y-123256498D01*
X74375558Y-123257981D01*
X74343437Y-123286438D01*
X74334902Y-123293999D01*
X74331449Y-123299000D01*
X74331444Y-123299007D01*
X74248070Y-123419795D01*
X74248066Y-123419802D01*
X74244613Y-123424805D01*
X74242459Y-123430483D01*
X74242455Y-123430492D01*
X74190407Y-123567730D01*
X74190404Y-123567738D01*
X74188251Y-123573418D01*
X74187518Y-123579449D01*
X74187517Y-123579456D01*
X74169826Y-123725163D01*
X74169093Y-123731200D01*
X57947061Y-123731200D01*
X57962632Y-123593000D01*
X57942965Y-123418447D01*
X57930828Y-123383763D01*
X57886815Y-123257981D01*
X57884949Y-123252648D01*
X57791494Y-123103915D01*
X57667285Y-122979706D01*
X57662499Y-122976699D01*
X57662497Y-122976697D01*
X57523339Y-122889259D01*
X57518552Y-122886251D01*
X57513222Y-122884385D01*
X57513218Y-122884384D01*
X57358088Y-122830101D01*
X57358081Y-122830099D01*
X57352753Y-122828235D01*
X57347137Y-122827602D01*
X57347132Y-122827601D01*
X57224776Y-122813815D01*
X57224763Y-122813814D01*
X57221974Y-122813500D01*
X56934426Y-122813500D01*
X56931637Y-122813814D01*
X56931623Y-122813815D01*
X56809267Y-122827601D01*
X56809260Y-122827602D01*
X56803647Y-122828235D01*
X56798320Y-122830098D01*
X56798311Y-122830101D01*
X56643181Y-122884384D01*
X56643174Y-122884387D01*
X56637848Y-122886251D01*
X56633063Y-122889257D01*
X56633060Y-122889259D01*
X56493902Y-122976697D01*
X56493895Y-122976702D01*
X56489115Y-122979706D01*
X56485123Y-122983697D01*
X56485119Y-122983701D01*
X56368901Y-123099919D01*
X56368897Y-123099923D01*
X56364906Y-123103915D01*
X56361902Y-123108695D01*
X56361897Y-123108702D01*
X56274459Y-123247860D01*
X56271451Y-123252648D01*
X56269587Y-123257974D01*
X56269584Y-123257981D01*
X56215301Y-123413111D01*
X56215298Y-123413120D01*
X56213435Y-123418447D01*
X56212802Y-123424060D01*
X56212801Y-123424067D01*
X56202150Y-123518605D01*
X56193768Y-123593000D01*
X52782500Y-123593000D01*
X52782500Y-119790990D01*
X57851566Y-119790990D01*
X57852299Y-119797027D01*
X57869990Y-119942733D01*
X57869991Y-119942738D01*
X57870724Y-119948772D01*
X57872880Y-119954456D01*
X57924928Y-120091697D01*
X57924930Y-120091702D01*
X57927086Y-120097385D01*
X57930541Y-120102391D01*
X57930543Y-120102394D01*
X58013917Y-120223182D01*
X58013919Y-120223184D01*
X58017375Y-120228191D01*
X58136344Y-120333589D01*
X58277080Y-120407453D01*
X58431402Y-120445490D01*
X58584256Y-120445490D01*
X58590344Y-120445490D01*
X58744666Y-120407453D01*
X58885402Y-120333589D01*
X59004371Y-120228191D01*
X59094660Y-120097385D01*
X59151022Y-119948772D01*
X59170180Y-119790990D01*
X59166539Y-119761000D01*
X59411693Y-119761000D01*
X59412426Y-119767037D01*
X59430117Y-119912743D01*
X59430118Y-119912748D01*
X59430851Y-119918782D01*
X59433005Y-119924462D01*
X59433007Y-119924469D01*
X59485055Y-120061707D01*
X59485057Y-120061712D01*
X59487213Y-120067395D01*
X59490668Y-120072401D01*
X59490670Y-120072404D01*
X59574044Y-120193192D01*
X59574046Y-120193194D01*
X59577502Y-120198201D01*
X59696471Y-120303599D01*
X59837207Y-120377463D01*
X59991529Y-120415500D01*
X60144383Y-120415500D01*
X60150471Y-120415500D01*
X60304793Y-120377463D01*
X60445529Y-120303599D01*
X60564498Y-120198201D01*
X60654787Y-120067395D01*
X60711149Y-119918782D01*
X60730307Y-119761000D01*
X62459693Y-119761000D01*
X62460426Y-119767037D01*
X62478117Y-119912743D01*
X62478118Y-119912748D01*
X62478851Y-119918782D01*
X62481005Y-119924462D01*
X62481007Y-119924469D01*
X62533055Y-120061707D01*
X62533057Y-120061712D01*
X62535213Y-120067395D01*
X62538668Y-120072401D01*
X62538670Y-120072404D01*
X62622044Y-120193192D01*
X62622046Y-120193194D01*
X62625502Y-120198201D01*
X62744471Y-120303599D01*
X62885207Y-120377463D01*
X63039529Y-120415500D01*
X63192383Y-120415500D01*
X63198471Y-120415500D01*
X63352793Y-120377463D01*
X63493529Y-120303599D01*
X63612498Y-120198201D01*
X63702787Y-120067395D01*
X63759149Y-119918782D01*
X63778307Y-119761000D01*
X63759149Y-119603218D01*
X63728536Y-119522500D01*
X63704944Y-119460292D01*
X63704943Y-119460290D01*
X63702787Y-119454605D01*
X63637004Y-119359302D01*
X63615955Y-119328807D01*
X63615953Y-119328805D01*
X63612498Y-119323799D01*
X63531937Y-119252428D01*
X63498086Y-119222438D01*
X63498085Y-119222437D01*
X63493529Y-119218401D01*
X63488141Y-119215573D01*
X63488138Y-119215571D01*
X63358178Y-119147363D01*
X63358176Y-119147362D01*
X63352793Y-119144537D01*
X63346892Y-119143082D01*
X63346888Y-119143081D01*
X63204380Y-119107956D01*
X63204376Y-119107955D01*
X63198471Y-119106500D01*
X63039529Y-119106500D01*
X63033624Y-119107955D01*
X63033619Y-119107956D01*
X62891111Y-119143081D01*
X62891105Y-119143083D01*
X62885207Y-119144537D01*
X62879826Y-119147360D01*
X62879821Y-119147363D01*
X62749861Y-119215571D01*
X62749854Y-119215575D01*
X62744471Y-119218401D01*
X62739918Y-119222434D01*
X62739913Y-119222438D01*
X62630057Y-119319763D01*
X62630054Y-119319765D01*
X62625502Y-119323799D01*
X62622049Y-119328800D01*
X62622044Y-119328807D01*
X62538670Y-119449595D01*
X62538666Y-119449602D01*
X62535213Y-119454605D01*
X62533059Y-119460283D01*
X62533055Y-119460292D01*
X62481007Y-119597530D01*
X62481004Y-119597538D01*
X62478851Y-119603218D01*
X62478118Y-119609249D01*
X62478117Y-119609256D01*
X62474476Y-119639246D01*
X62459693Y-119761000D01*
X60730307Y-119761000D01*
X60711149Y-119603218D01*
X60680536Y-119522500D01*
X60656944Y-119460292D01*
X60656943Y-119460290D01*
X60654787Y-119454605D01*
X60589004Y-119359302D01*
X60567955Y-119328807D01*
X60567953Y-119328805D01*
X60564498Y-119323799D01*
X60483937Y-119252428D01*
X60450086Y-119222438D01*
X60450085Y-119222437D01*
X60445529Y-119218401D01*
X60440141Y-119215573D01*
X60440138Y-119215571D01*
X60310178Y-119147363D01*
X60310176Y-119147362D01*
X60304793Y-119144537D01*
X60298892Y-119143082D01*
X60298888Y-119143081D01*
X60156380Y-119107956D01*
X60156376Y-119107955D01*
X60150471Y-119106500D01*
X59991529Y-119106500D01*
X59985624Y-119107955D01*
X59985619Y-119107956D01*
X59843111Y-119143081D01*
X59843105Y-119143083D01*
X59837207Y-119144537D01*
X59831826Y-119147360D01*
X59831821Y-119147363D01*
X59701861Y-119215571D01*
X59701854Y-119215575D01*
X59696471Y-119218401D01*
X59691918Y-119222434D01*
X59691913Y-119222438D01*
X59582057Y-119319763D01*
X59582054Y-119319765D01*
X59577502Y-119323799D01*
X59574049Y-119328800D01*
X59574044Y-119328807D01*
X59490670Y-119449595D01*
X59490666Y-119449602D01*
X59487213Y-119454605D01*
X59485059Y-119460283D01*
X59485055Y-119460292D01*
X59433007Y-119597530D01*
X59433004Y-119597538D01*
X59430851Y-119603218D01*
X59430118Y-119609249D01*
X59430117Y-119609256D01*
X59426476Y-119639246D01*
X59411693Y-119761000D01*
X59166539Y-119761000D01*
X59151022Y-119633208D01*
X59103687Y-119508398D01*
X59096817Y-119490282D01*
X59096816Y-119490280D01*
X59094660Y-119484595D01*
X59077885Y-119460292D01*
X59007828Y-119358797D01*
X59007826Y-119358795D01*
X59004371Y-119353789D01*
X58885402Y-119248391D01*
X58880014Y-119245563D01*
X58880011Y-119245561D01*
X58750051Y-119177353D01*
X58750049Y-119177352D01*
X58744666Y-119174527D01*
X58738765Y-119173072D01*
X58738761Y-119173071D01*
X58596253Y-119137946D01*
X58596249Y-119137945D01*
X58590344Y-119136490D01*
X58431402Y-119136490D01*
X58425497Y-119137945D01*
X58425492Y-119137946D01*
X58282984Y-119173071D01*
X58282978Y-119173073D01*
X58277080Y-119174527D01*
X58271699Y-119177350D01*
X58271694Y-119177353D01*
X58141734Y-119245561D01*
X58141727Y-119245565D01*
X58136344Y-119248391D01*
X58131791Y-119252424D01*
X58131786Y-119252428D01*
X58021930Y-119349753D01*
X58021927Y-119349755D01*
X58017375Y-119353789D01*
X58013922Y-119358790D01*
X58013917Y-119358797D01*
X57930543Y-119479585D01*
X57930539Y-119479592D01*
X57927086Y-119484595D01*
X57924932Y-119490273D01*
X57924928Y-119490282D01*
X57872880Y-119627520D01*
X57872877Y-119627528D01*
X57870724Y-119633208D01*
X57869991Y-119639239D01*
X57869990Y-119639246D01*
X57855940Y-119754963D01*
X57851566Y-119790990D01*
X52782500Y-119790990D01*
X52782500Y-118743000D01*
X56193768Y-118743000D01*
X56194401Y-118748618D01*
X56212801Y-118911932D01*
X56212802Y-118911937D01*
X56213435Y-118917553D01*
X56215299Y-118922881D01*
X56215301Y-118922888D01*
X56269584Y-119078018D01*
X56269585Y-119078022D01*
X56271451Y-119083352D01*
X56274459Y-119088139D01*
X56361897Y-119227297D01*
X56361899Y-119227299D01*
X56364906Y-119232085D01*
X56489115Y-119356294D01*
X56637848Y-119449749D01*
X56803647Y-119507765D01*
X56934426Y-119522500D01*
X57219158Y-119522500D01*
X57221974Y-119522500D01*
X57352753Y-119507765D01*
X57518552Y-119449749D01*
X57667285Y-119356294D01*
X57791494Y-119232085D01*
X57884949Y-119083352D01*
X57942965Y-118917553D01*
X57962632Y-118743000D01*
X57942965Y-118568447D01*
X57922178Y-118509043D01*
X57886815Y-118407981D01*
X57884949Y-118402648D01*
X57791494Y-118253915D01*
X57667285Y-118129706D01*
X57662499Y-118126699D01*
X57662497Y-118126697D01*
X57523339Y-118039259D01*
X57518552Y-118036251D01*
X57513222Y-118034385D01*
X57513218Y-118034384D01*
X57358088Y-117980101D01*
X57358081Y-117980099D01*
X57352753Y-117978235D01*
X57347137Y-117977602D01*
X57347132Y-117977601D01*
X57224776Y-117963815D01*
X57224763Y-117963814D01*
X57221974Y-117963500D01*
X56934426Y-117963500D01*
X56931637Y-117963814D01*
X56931623Y-117963815D01*
X56809267Y-117977601D01*
X56809260Y-117977602D01*
X56803647Y-117978235D01*
X56798320Y-117980098D01*
X56798311Y-117980101D01*
X56643181Y-118034384D01*
X56643174Y-118034387D01*
X56637848Y-118036251D01*
X56633063Y-118039257D01*
X56633060Y-118039259D01*
X56493902Y-118126697D01*
X56493895Y-118126702D01*
X56489115Y-118129706D01*
X56485123Y-118133697D01*
X56485119Y-118133701D01*
X56368901Y-118249919D01*
X56368897Y-118249923D01*
X56364906Y-118253915D01*
X56361902Y-118258695D01*
X56361897Y-118258702D01*
X56276532Y-118394561D01*
X56271451Y-118402648D01*
X56269587Y-118407974D01*
X56269584Y-118407981D01*
X56215301Y-118563111D01*
X56215298Y-118563120D01*
X56213435Y-118568447D01*
X56212802Y-118574060D01*
X56212801Y-118574067D01*
X56201807Y-118671648D01*
X56193768Y-118743000D01*
X52782500Y-118743000D01*
X52782500Y-118335590D01*
X52800323Y-118278421D01*
X52847477Y-118241509D01*
X52907253Y-118237932D01*
X52958471Y-118268960D01*
X52980743Y-118318606D01*
X52981530Y-118318408D01*
X52982659Y-118322877D01*
X52982982Y-118323596D01*
X52983109Y-118324656D01*
X52983111Y-118324665D01*
X52983880Y-118331067D01*
X53037077Y-118465964D01*
X53041235Y-118471448D01*
X53041238Y-118471452D01*
X53120534Y-118576018D01*
X53124695Y-118581505D01*
X53130181Y-118585665D01*
X53234747Y-118664961D01*
X53234749Y-118664962D01*
X53240236Y-118669123D01*
X53375133Y-118722320D01*
X53459905Y-118732500D01*
X54896494Y-118732499D01*
X54981267Y-118722320D01*
X55116164Y-118669123D01*
X55231705Y-118581505D01*
X55319323Y-118465964D01*
X55372520Y-118331067D01*
X55382700Y-118246295D01*
X55382699Y-117221000D01*
X64110693Y-117221000D01*
X64111426Y-117227037D01*
X64129117Y-117372743D01*
X64129118Y-117372748D01*
X64129851Y-117378782D01*
X64132005Y-117384462D01*
X64132007Y-117384469D01*
X64184055Y-117521707D01*
X64184057Y-117521712D01*
X64186213Y-117527395D01*
X64189668Y-117532401D01*
X64189670Y-117532404D01*
X64273044Y-117653192D01*
X64273046Y-117653194D01*
X64276502Y-117658201D01*
X64395471Y-117763599D01*
X64536207Y-117837463D01*
X64690529Y-117875500D01*
X64843383Y-117875500D01*
X64849471Y-117875500D01*
X64928586Y-117856000D01*
X73254693Y-117856000D01*
X73255426Y-117862037D01*
X73273117Y-118007743D01*
X73273118Y-118007748D01*
X73273851Y-118013782D01*
X73276005Y-118019462D01*
X73276007Y-118019469D01*
X73328055Y-118156707D01*
X73328057Y-118156712D01*
X73330213Y-118162395D01*
X73333668Y-118167401D01*
X73333670Y-118167404D01*
X73417044Y-118288192D01*
X73417046Y-118288194D01*
X73420502Y-118293201D01*
X73539471Y-118398599D01*
X73680207Y-118472463D01*
X73834529Y-118510500D01*
X73987383Y-118510500D01*
X73993471Y-118510500D01*
X74147793Y-118472463D01*
X74288529Y-118398599D01*
X74407498Y-118293201D01*
X74497787Y-118162395D01*
X74554149Y-118013782D01*
X74573307Y-117856000D01*
X74554149Y-117698218D01*
X74538972Y-117658201D01*
X74499944Y-117555292D01*
X74499943Y-117555290D01*
X74497787Y-117549605D01*
X74482457Y-117527395D01*
X74410955Y-117423807D01*
X74410953Y-117423805D01*
X74407498Y-117418799D01*
X74288529Y-117313401D01*
X74283141Y-117310573D01*
X74283138Y-117310571D01*
X74153178Y-117242363D01*
X74153176Y-117242362D01*
X74147793Y-117239537D01*
X74141892Y-117238082D01*
X74141888Y-117238081D01*
X73999380Y-117202956D01*
X73999376Y-117202955D01*
X73993471Y-117201500D01*
X73834529Y-117201500D01*
X73828624Y-117202955D01*
X73828619Y-117202956D01*
X73686111Y-117238081D01*
X73686105Y-117238083D01*
X73680207Y-117239537D01*
X73674826Y-117242360D01*
X73674821Y-117242363D01*
X73544861Y-117310571D01*
X73544854Y-117310575D01*
X73539471Y-117313401D01*
X73534918Y-117317434D01*
X73534913Y-117317438D01*
X73425057Y-117414763D01*
X73425054Y-117414765D01*
X73420502Y-117418799D01*
X73417049Y-117423800D01*
X73417044Y-117423807D01*
X73333670Y-117544595D01*
X73333666Y-117544602D01*
X73330213Y-117549605D01*
X73328059Y-117555283D01*
X73328055Y-117555292D01*
X73276007Y-117692530D01*
X73276004Y-117692538D01*
X73273851Y-117698218D01*
X73273118Y-117704249D01*
X73273117Y-117704256D01*
X73257287Y-117834636D01*
X73254693Y-117856000D01*
X64928586Y-117856000D01*
X65003793Y-117837463D01*
X65144529Y-117763599D01*
X65263498Y-117658201D01*
X65353787Y-117527395D01*
X65410149Y-117378782D01*
X65429307Y-117221000D01*
X65410149Y-117063218D01*
X65353787Y-116914605D01*
X65350329Y-116909595D01*
X65266955Y-116788807D01*
X65266953Y-116788805D01*
X65263498Y-116783799D01*
X65144529Y-116678401D01*
X65139141Y-116675573D01*
X65139138Y-116675571D01*
X65009178Y-116607363D01*
X65009176Y-116607362D01*
X65003793Y-116604537D01*
X64997892Y-116603082D01*
X64997888Y-116603081D01*
X64855380Y-116567956D01*
X64855376Y-116567955D01*
X64849471Y-116566500D01*
X64690529Y-116566500D01*
X64684624Y-116567955D01*
X64684619Y-116567956D01*
X64542111Y-116603081D01*
X64542105Y-116603083D01*
X64536207Y-116604537D01*
X64530826Y-116607360D01*
X64530821Y-116607363D01*
X64400861Y-116675571D01*
X64400854Y-116675575D01*
X64395471Y-116678401D01*
X64390918Y-116682434D01*
X64390913Y-116682438D01*
X64281057Y-116779763D01*
X64281054Y-116779765D01*
X64276502Y-116783799D01*
X64273049Y-116788800D01*
X64273044Y-116788807D01*
X64189670Y-116909595D01*
X64189666Y-116909602D01*
X64186213Y-116914605D01*
X64184059Y-116920283D01*
X64184055Y-116920292D01*
X64132007Y-117057530D01*
X64132004Y-117057538D01*
X64129851Y-117063218D01*
X64129118Y-117069249D01*
X64129117Y-117069256D01*
X64113061Y-117201500D01*
X64110693Y-117221000D01*
X55382699Y-117221000D01*
X55382699Y-116889706D01*
X55372520Y-116804933D01*
X55319323Y-116670036D01*
X55231705Y-116554495D01*
X55155133Y-116496428D01*
X55121652Y-116471038D01*
X55121648Y-116471035D01*
X55116164Y-116466877D01*
X54981267Y-116413680D01*
X54974866Y-116412911D01*
X54974861Y-116412910D01*
X54899480Y-116403858D01*
X54899472Y-116403857D01*
X54896495Y-116403500D01*
X54893491Y-116403500D01*
X53462915Y-116403500D01*
X53462898Y-116403500D01*
X53459906Y-116403501D01*
X53456927Y-116403858D01*
X53456921Y-116403859D01*
X53381536Y-116412911D01*
X53381534Y-116412911D01*
X53375133Y-116413680D01*
X53369135Y-116416045D01*
X53369132Y-116416046D01*
X53246641Y-116464351D01*
X53240236Y-116466877D01*
X53234754Y-116471033D01*
X53234747Y-116471038D01*
X53130181Y-116550334D01*
X53130177Y-116550337D01*
X53124695Y-116554495D01*
X53120537Y-116559977D01*
X53120534Y-116559981D01*
X53041238Y-116664547D01*
X53041233Y-116664554D01*
X53037077Y-116670036D01*
X53034551Y-116676439D01*
X53034551Y-116676441D01*
X52986246Y-116798933D01*
X52983880Y-116804933D01*
X52983111Y-116811333D01*
X52983110Y-116811339D01*
X52982982Y-116812410D01*
X52982656Y-116813135D01*
X52981531Y-116817589D01*
X52980747Y-116817390D01*
X52958470Y-116867047D01*
X52907252Y-116898074D01*
X52847476Y-116894497D01*
X52800323Y-116857585D01*
X52782500Y-116800416D01*
X52782500Y-115951000D01*
X67666693Y-115951000D01*
X67667426Y-115957037D01*
X67685117Y-116102743D01*
X67685118Y-116102748D01*
X67685851Y-116108782D01*
X67688005Y-116114462D01*
X67688007Y-116114469D01*
X67740055Y-116251707D01*
X67740057Y-116251712D01*
X67742213Y-116257395D01*
X67745668Y-116262401D01*
X67745670Y-116262404D01*
X67829044Y-116383192D01*
X67829046Y-116383194D01*
X67832502Y-116388201D01*
X67951471Y-116493599D01*
X68092207Y-116567463D01*
X68246529Y-116605500D01*
X68399383Y-116605500D01*
X68405471Y-116605500D01*
X68559793Y-116567463D01*
X68700529Y-116493599D01*
X68819498Y-116388201D01*
X68909787Y-116257395D01*
X68966149Y-116108782D01*
X68985307Y-115951000D01*
X73254693Y-115951000D01*
X73255426Y-115957037D01*
X73273117Y-116102743D01*
X73273118Y-116102748D01*
X73273851Y-116108782D01*
X73276005Y-116114462D01*
X73276007Y-116114469D01*
X73328055Y-116251707D01*
X73328057Y-116251712D01*
X73330213Y-116257395D01*
X73333668Y-116262401D01*
X73333670Y-116262404D01*
X73417044Y-116383192D01*
X73417046Y-116383194D01*
X73420502Y-116388201D01*
X73539471Y-116493599D01*
X73680207Y-116567463D01*
X73834529Y-116605500D01*
X73987383Y-116605500D01*
X73993471Y-116605500D01*
X74147793Y-116567463D01*
X74288529Y-116493599D01*
X74407498Y-116388201D01*
X74497787Y-116257395D01*
X74554149Y-116108782D01*
X74573307Y-115951000D01*
X74554149Y-115793218D01*
X74497787Y-115644605D01*
X74407498Y-115513799D01*
X74288529Y-115408401D01*
X74283141Y-115405573D01*
X74283138Y-115405571D01*
X74153178Y-115337363D01*
X74153176Y-115337362D01*
X74147793Y-115334537D01*
X74141892Y-115333082D01*
X74141888Y-115333081D01*
X73999380Y-115297956D01*
X73999376Y-115297955D01*
X73993471Y-115296500D01*
X73834529Y-115296500D01*
X73828624Y-115297955D01*
X73828619Y-115297956D01*
X73686111Y-115333081D01*
X73686105Y-115333083D01*
X73680207Y-115334537D01*
X73674826Y-115337360D01*
X73674821Y-115337363D01*
X73544861Y-115405571D01*
X73544854Y-115405575D01*
X73539471Y-115408401D01*
X73534918Y-115412434D01*
X73534913Y-115412438D01*
X73425057Y-115509763D01*
X73425054Y-115509765D01*
X73420502Y-115513799D01*
X73417049Y-115518800D01*
X73417044Y-115518807D01*
X73333670Y-115639595D01*
X73333666Y-115639602D01*
X73330213Y-115644605D01*
X73328059Y-115650283D01*
X73328055Y-115650292D01*
X73276007Y-115787530D01*
X73276004Y-115787538D01*
X73273851Y-115793218D01*
X73273118Y-115799249D01*
X73273117Y-115799256D01*
X73255426Y-115944963D01*
X73254693Y-115951000D01*
X68985307Y-115951000D01*
X68966149Y-115793218D01*
X68909787Y-115644605D01*
X68819498Y-115513799D01*
X68700529Y-115408401D01*
X68695137Y-115405571D01*
X68695133Y-115405568D01*
X68694188Y-115405072D01*
X68693565Y-115404486D01*
X68690132Y-115402116D01*
X68690492Y-115401593D01*
X68654849Y-115368034D01*
X68640346Y-115315987D01*
X68654862Y-115263942D01*
X68690495Y-115230409D01*
X68690132Y-115229884D01*
X68693591Y-115227496D01*
X68694206Y-115226917D01*
X68700529Y-115223599D01*
X68819498Y-115118201D01*
X68909787Y-114987395D01*
X68966149Y-114838782D01*
X68985307Y-114681000D01*
X68966149Y-114523218D01*
X68909787Y-114374605D01*
X68819498Y-114243799D01*
X68700529Y-114138401D01*
X68695141Y-114135573D01*
X68695138Y-114135571D01*
X68565178Y-114067363D01*
X68565176Y-114067362D01*
X68559793Y-114064537D01*
X68553892Y-114063082D01*
X68553888Y-114063081D01*
X68411380Y-114027956D01*
X68411376Y-114027955D01*
X68405471Y-114026500D01*
X68246529Y-114026500D01*
X68240624Y-114027955D01*
X68240619Y-114027956D01*
X68098111Y-114063081D01*
X68098105Y-114063083D01*
X68092207Y-114064537D01*
X68086826Y-114067360D01*
X68086821Y-114067363D01*
X67956861Y-114135571D01*
X67956854Y-114135575D01*
X67951471Y-114138401D01*
X67946918Y-114142434D01*
X67946913Y-114142438D01*
X67837057Y-114239763D01*
X67837054Y-114239765D01*
X67832502Y-114243799D01*
X67829049Y-114248800D01*
X67829044Y-114248807D01*
X67745670Y-114369595D01*
X67745666Y-114369602D01*
X67742213Y-114374605D01*
X67740059Y-114380283D01*
X67740055Y-114380292D01*
X67688007Y-114517530D01*
X67688004Y-114517538D01*
X67685851Y-114523218D01*
X67685118Y-114529249D01*
X67685117Y-114529256D01*
X67667426Y-114674963D01*
X67666693Y-114681000D01*
X67667426Y-114687037D01*
X67685117Y-114832743D01*
X67685118Y-114832748D01*
X67685851Y-114838782D01*
X67688005Y-114844462D01*
X67688007Y-114844469D01*
X67740055Y-114981707D01*
X67740057Y-114981712D01*
X67742213Y-114987395D01*
X67745668Y-114992401D01*
X67745670Y-114992404D01*
X67829044Y-115113192D01*
X67829046Y-115113194D01*
X67832502Y-115118201D01*
X67951471Y-115223599D01*
X67957797Y-115226919D01*
X67958415Y-115227500D01*
X67961868Y-115229884D01*
X67961505Y-115230409D01*
X67997139Y-115263945D01*
X68011653Y-115315987D01*
X67997152Y-115368032D01*
X67961507Y-115401593D01*
X67961868Y-115402116D01*
X67958440Y-115404481D01*
X67957817Y-115405069D01*
X67956868Y-115405567D01*
X67956859Y-115405572D01*
X67951471Y-115408401D01*
X67946918Y-115412434D01*
X67946913Y-115412438D01*
X67837057Y-115509763D01*
X67837054Y-115509765D01*
X67832502Y-115513799D01*
X67829049Y-115518800D01*
X67829044Y-115518807D01*
X67745670Y-115639595D01*
X67745666Y-115639602D01*
X67742213Y-115644605D01*
X67740059Y-115650283D01*
X67740055Y-115650292D01*
X67688007Y-115787530D01*
X67688004Y-115787538D01*
X67685851Y-115793218D01*
X67685118Y-115799249D01*
X67685117Y-115799256D01*
X67667426Y-115944963D01*
X67666693Y-115951000D01*
X52782500Y-115951000D01*
X52782500Y-114300000D01*
X59596768Y-114300000D01*
X59615655Y-114503821D01*
X59616925Y-114508286D01*
X59616926Y-114508289D01*
X59666066Y-114681000D01*
X59671672Y-114700701D01*
X59673742Y-114704859D01*
X59673744Y-114704863D01*
X59760838Y-114879771D01*
X59760840Y-114879775D01*
X59762912Y-114883935D01*
X59886268Y-115047285D01*
X59889699Y-115050413D01*
X59889703Y-115050417D01*
X59958564Y-115113192D01*
X60037538Y-115185186D01*
X60211573Y-115292944D01*
X60348673Y-115346057D01*
X60398112Y-115365210D01*
X60398114Y-115365210D01*
X60402444Y-115366888D01*
X60603653Y-115404500D01*
X60803693Y-115404500D01*
X60808347Y-115404500D01*
X61009556Y-115366888D01*
X61200427Y-115292944D01*
X61374462Y-115185186D01*
X61390970Y-115170137D01*
X62141500Y-115170137D01*
X62141501Y-115175066D01*
X62142463Y-115179904D01*
X62142464Y-115179911D01*
X62151813Y-115226914D01*
X62156266Y-115249301D01*
X62212516Y-115333484D01*
X62220752Y-115338987D01*
X62263784Y-115367741D01*
X62296699Y-115389734D01*
X62370933Y-115404500D01*
X64121066Y-115404499D01*
X64195301Y-115389734D01*
X64279484Y-115333484D01*
X64335734Y-115249301D01*
X64350500Y-115175067D01*
X64350499Y-113424934D01*
X64335734Y-113350699D01*
X64279484Y-113266516D01*
X64232002Y-113234789D01*
X64203539Y-113215770D01*
X64203536Y-113215769D01*
X64195301Y-113210266D01*
X64185585Y-113208333D01*
X64185582Y-113208332D01*
X64125918Y-113196465D01*
X64121067Y-113195500D01*
X64116120Y-113195500D01*
X62375872Y-113195500D01*
X62375861Y-113195500D01*
X62370934Y-113195501D01*
X62366096Y-113196463D01*
X62366088Y-113196464D01*
X62306416Y-113208333D01*
X62306414Y-113208333D01*
X62296699Y-113210266D01*
X62288463Y-113215768D01*
X62288463Y-113215769D01*
X62220752Y-113261012D01*
X62220749Y-113261014D01*
X62212516Y-113266516D01*
X62207014Y-113274749D01*
X62207012Y-113274752D01*
X62161770Y-113342460D01*
X62161769Y-113342463D01*
X62156266Y-113350699D01*
X62154333Y-113360412D01*
X62154332Y-113360417D01*
X62144623Y-113409233D01*
X62141500Y-113424933D01*
X62141500Y-113429878D01*
X62141500Y-113429879D01*
X62141500Y-115170127D01*
X62141500Y-115170137D01*
X61390970Y-115170137D01*
X61525732Y-115047285D01*
X61649088Y-114883935D01*
X61740328Y-114700701D01*
X61796345Y-114503821D01*
X61815232Y-114300000D01*
X61796345Y-114096179D01*
X61740328Y-113899299D01*
X61649088Y-113716065D01*
X61525732Y-113552715D01*
X61522299Y-113549585D01*
X61522296Y-113549582D01*
X61377900Y-113417948D01*
X61377899Y-113417947D01*
X61374462Y-113414814D01*
X61370510Y-113412367D01*
X61370506Y-113412364D01*
X61204379Y-113309503D01*
X61200427Y-113307056D01*
X61195093Y-113304989D01*
X61013887Y-113234789D01*
X61013878Y-113234786D01*
X61009556Y-113233112D01*
X60949495Y-113221884D01*
X60812922Y-113196355D01*
X60812919Y-113196354D01*
X60808347Y-113195500D01*
X60603653Y-113195500D01*
X60599081Y-113196354D01*
X60599077Y-113196355D01*
X60407012Y-113232258D01*
X60407010Y-113232258D01*
X60402444Y-113233112D01*
X60398123Y-113234785D01*
X60398112Y-113234789D01*
X60215906Y-113305377D01*
X60215902Y-113305378D01*
X60211573Y-113307056D01*
X60207624Y-113309500D01*
X60207620Y-113309503D01*
X60041493Y-113412364D01*
X60041484Y-113412370D01*
X60037538Y-113414814D01*
X60034105Y-113417942D01*
X60034099Y-113417948D01*
X59889703Y-113549582D01*
X59889694Y-113549591D01*
X59886268Y-113552715D01*
X59883471Y-113556417D01*
X59883467Y-113556423D01*
X59765711Y-113712357D01*
X59765705Y-113712365D01*
X59762912Y-113716065D01*
X59760843Y-113720219D01*
X59760838Y-113720228D01*
X59673744Y-113895136D01*
X59673740Y-113895144D01*
X59671672Y-113899299D01*
X59670402Y-113903759D01*
X59670400Y-113903767D01*
X59616926Y-114091710D01*
X59616924Y-114091715D01*
X59615655Y-114096179D01*
X59615226Y-114100801D01*
X59615226Y-114100805D01*
X59611368Y-114142438D01*
X59596768Y-114300000D01*
X52782500Y-114300000D01*
X52782500Y-111900971D01*
X59559315Y-111900971D01*
X59565571Y-111968475D01*
X59567271Y-111977572D01*
X59623296Y-112174480D01*
X59626640Y-112183111D01*
X59717889Y-112366364D01*
X59722762Y-112374235D01*
X59846136Y-112537608D01*
X59852372Y-112544449D01*
X60003657Y-112682363D01*
X60011051Y-112687947D01*
X60185103Y-112795715D01*
X60193389Y-112799841D01*
X60384283Y-112873794D01*
X60393192Y-112876328D01*
X60564428Y-112908339D01*
X60575723Y-112907116D01*
X60579000Y-112896239D01*
X60833000Y-112896239D01*
X60836276Y-112907116D01*
X60847571Y-112908339D01*
X61018807Y-112876328D01*
X61027716Y-112873794D01*
X61218610Y-112799841D01*
X61226896Y-112795715D01*
X61400948Y-112687947D01*
X61408342Y-112682363D01*
X61559627Y-112544449D01*
X61565863Y-112537608D01*
X61689237Y-112374235D01*
X61694110Y-112366364D01*
X61785359Y-112183111D01*
X61788703Y-112174480D01*
X61844728Y-111977572D01*
X61846428Y-111968475D01*
X61852684Y-111900971D01*
X61850641Y-111890043D01*
X61839945Y-111887000D01*
X60846244Y-111887000D01*
X60835798Y-111889798D01*
X60833000Y-111900244D01*
X60833000Y-112896239D01*
X60579000Y-112896239D01*
X60579000Y-111900244D01*
X60576201Y-111889798D01*
X60565756Y-111887000D01*
X59572055Y-111887000D01*
X59561358Y-111890043D01*
X59559315Y-111900971D01*
X52782500Y-111900971D01*
X52782500Y-111760000D01*
X62136768Y-111760000D01*
X62137197Y-111764630D01*
X62150037Y-111903201D01*
X62155655Y-111963821D01*
X62156925Y-111968286D01*
X62156926Y-111968289D01*
X62207230Y-112145092D01*
X62211672Y-112160701D01*
X62213742Y-112164859D01*
X62213744Y-112164863D01*
X62300838Y-112339771D01*
X62300840Y-112339775D01*
X62302912Y-112343935D01*
X62305709Y-112347639D01*
X62305711Y-112347642D01*
X62423467Y-112503576D01*
X62426268Y-112507285D01*
X62429699Y-112510413D01*
X62429703Y-112510417D01*
X62538139Y-112609269D01*
X62577538Y-112645186D01*
X62751573Y-112752944D01*
X62888673Y-112806057D01*
X62938112Y-112825210D01*
X62938114Y-112825210D01*
X62942444Y-112826888D01*
X63143653Y-112864500D01*
X63343693Y-112864500D01*
X63348347Y-112864500D01*
X63549556Y-112826888D01*
X63740427Y-112752944D01*
X63914462Y-112645186D01*
X64065732Y-112507285D01*
X64112163Y-112445800D01*
X70841693Y-112445800D01*
X70842426Y-112451837D01*
X70860117Y-112597543D01*
X70860118Y-112597548D01*
X70860851Y-112603582D01*
X70863005Y-112609262D01*
X70863007Y-112609269D01*
X70915055Y-112746507D01*
X70915057Y-112746512D01*
X70917213Y-112752195D01*
X70920668Y-112757201D01*
X70920670Y-112757204D01*
X71004044Y-112877992D01*
X71004046Y-112877994D01*
X71007502Y-112883001D01*
X71126471Y-112988399D01*
X71267207Y-113062263D01*
X71421529Y-113100300D01*
X71574383Y-113100300D01*
X71580471Y-113100300D01*
X71734793Y-113062263D01*
X71875529Y-112988399D01*
X71994498Y-112883001D01*
X72084787Y-112752195D01*
X72141149Y-112603582D01*
X72160307Y-112445800D01*
X72141149Y-112288018D01*
X72098089Y-112174480D01*
X72086944Y-112145092D01*
X72086943Y-112145090D01*
X72084787Y-112139405D01*
X71994498Y-112008599D01*
X71875529Y-111903201D01*
X71870141Y-111900373D01*
X71870138Y-111900371D01*
X71740178Y-111832163D01*
X71740176Y-111832162D01*
X71734793Y-111829337D01*
X71728892Y-111827882D01*
X71728888Y-111827881D01*
X71586380Y-111792756D01*
X71586376Y-111792755D01*
X71580471Y-111791300D01*
X71421529Y-111791300D01*
X71415624Y-111792755D01*
X71415619Y-111792756D01*
X71273111Y-111827881D01*
X71273105Y-111827883D01*
X71267207Y-111829337D01*
X71261826Y-111832160D01*
X71261821Y-111832163D01*
X71131861Y-111900371D01*
X71131854Y-111900375D01*
X71126471Y-111903201D01*
X71121918Y-111907234D01*
X71121913Y-111907238D01*
X71012057Y-112004563D01*
X71012054Y-112004565D01*
X71007502Y-112008599D01*
X71004049Y-112013600D01*
X71004044Y-112013607D01*
X70920670Y-112134395D01*
X70920666Y-112134402D01*
X70917213Y-112139405D01*
X70915059Y-112145083D01*
X70915055Y-112145092D01*
X70863007Y-112282330D01*
X70863004Y-112282338D01*
X70860851Y-112288018D01*
X70860118Y-112294049D01*
X70860117Y-112294056D01*
X70853611Y-112347642D01*
X70841693Y-112445800D01*
X64112163Y-112445800D01*
X64189088Y-112343935D01*
X64280328Y-112160701D01*
X64336345Y-111963821D01*
X64355232Y-111760000D01*
X64336345Y-111556179D01*
X64280328Y-111359299D01*
X64189088Y-111176065D01*
X64065732Y-111012715D01*
X64062299Y-111009585D01*
X64062296Y-111009582D01*
X63917900Y-110877948D01*
X63917899Y-110877947D01*
X63914462Y-110874814D01*
X63910510Y-110872367D01*
X63910506Y-110872364D01*
X63744379Y-110769503D01*
X63740427Y-110767056D01*
X63735093Y-110764989D01*
X63553887Y-110694789D01*
X63553878Y-110694786D01*
X63549556Y-110693112D01*
X63464626Y-110677236D01*
X63352922Y-110656355D01*
X63352919Y-110656354D01*
X63348347Y-110655500D01*
X63143653Y-110655500D01*
X63139081Y-110656354D01*
X63139077Y-110656355D01*
X62947012Y-110692258D01*
X62947010Y-110692258D01*
X62942444Y-110693112D01*
X62938123Y-110694785D01*
X62938112Y-110694789D01*
X62755906Y-110765377D01*
X62755902Y-110765378D01*
X62751573Y-110767056D01*
X62747624Y-110769500D01*
X62747620Y-110769503D01*
X62581493Y-110872364D01*
X62581484Y-110872370D01*
X62577538Y-110874814D01*
X62574105Y-110877942D01*
X62574099Y-110877948D01*
X62429703Y-111009582D01*
X62429694Y-111009591D01*
X62426268Y-111012715D01*
X62423471Y-111016417D01*
X62423467Y-111016423D01*
X62305711Y-111172357D01*
X62305705Y-111172365D01*
X62302912Y-111176065D01*
X62300843Y-111180219D01*
X62300838Y-111180228D01*
X62213744Y-111355136D01*
X62213740Y-111355144D01*
X62211672Y-111359299D01*
X62210402Y-111363759D01*
X62210400Y-111363767D01*
X62156926Y-111551710D01*
X62156924Y-111551715D01*
X62155655Y-111556179D01*
X62155226Y-111560801D01*
X62155226Y-111560805D01*
X62148818Y-111629956D01*
X62136768Y-111760000D01*
X52782500Y-111760000D01*
X52782500Y-111619028D01*
X59559315Y-111619028D01*
X59561358Y-111629956D01*
X59572055Y-111633000D01*
X60565756Y-111633000D01*
X60576201Y-111630201D01*
X60579000Y-111619756D01*
X60833000Y-111619756D01*
X60835798Y-111630201D01*
X60846244Y-111633000D01*
X61839945Y-111633000D01*
X61850641Y-111629956D01*
X61852684Y-111619028D01*
X61846428Y-111551524D01*
X61844728Y-111542427D01*
X61788703Y-111345519D01*
X61785359Y-111336888D01*
X61694110Y-111153635D01*
X61689237Y-111145764D01*
X61565863Y-110982391D01*
X61559627Y-110975550D01*
X61408342Y-110837636D01*
X61400948Y-110832052D01*
X61226896Y-110724284D01*
X61218610Y-110720158D01*
X61027716Y-110646205D01*
X61018807Y-110643671D01*
X60847571Y-110611660D01*
X60836276Y-110612883D01*
X60833000Y-110623761D01*
X60833000Y-111619756D01*
X60579000Y-111619756D01*
X60579000Y-110623761D01*
X60575723Y-110612883D01*
X60564428Y-110611660D01*
X60393192Y-110643671D01*
X60384283Y-110646205D01*
X60193389Y-110720158D01*
X60185103Y-110724284D01*
X60011051Y-110832052D01*
X60003657Y-110837636D01*
X59852372Y-110975550D01*
X59846136Y-110982391D01*
X59722762Y-111145764D01*
X59717889Y-111153635D01*
X59626640Y-111336888D01*
X59623296Y-111345519D01*
X59567271Y-111542427D01*
X59565571Y-111551524D01*
X59559315Y-111619028D01*
X52782500Y-111619028D01*
X52782500Y-109505335D01*
X53981500Y-109505335D01*
X53982182Y-109509423D01*
X53982183Y-109509433D01*
X54021744Y-109746513D01*
X54021745Y-109746520D01*
X54022429Y-109750614D01*
X54103172Y-109985810D01*
X54221526Y-110204509D01*
X54224070Y-110207778D01*
X54224075Y-110207785D01*
X54300159Y-110305537D01*
X54374262Y-110400744D01*
X54557215Y-110569164D01*
X54765393Y-110705173D01*
X54993119Y-110805063D01*
X54997143Y-110806082D01*
X54997146Y-110806083D01*
X55073933Y-110825528D01*
X55234179Y-110866108D01*
X55419933Y-110881500D01*
X55541982Y-110881500D01*
X55544067Y-110881500D01*
X55729821Y-110866108D01*
X55970881Y-110805063D01*
X56198607Y-110705173D01*
X56406785Y-110569164D01*
X56589738Y-110400744D01*
X56668539Y-110299500D01*
X75185093Y-110299500D01*
X75185826Y-110305537D01*
X75203517Y-110451243D01*
X75203518Y-110451248D01*
X75204251Y-110457282D01*
X75206405Y-110462962D01*
X75206407Y-110462969D01*
X75258455Y-110600207D01*
X75258457Y-110600212D01*
X75260613Y-110605895D01*
X75264068Y-110610901D01*
X75264070Y-110610904D01*
X75347444Y-110731692D01*
X75347446Y-110731694D01*
X75350902Y-110736701D01*
X75469871Y-110842099D01*
X75475260Y-110844927D01*
X75475261Y-110844928D01*
X75489618Y-110852463D01*
X75610607Y-110915963D01*
X75764929Y-110954000D01*
X75917783Y-110954000D01*
X75923871Y-110954000D01*
X76078193Y-110915963D01*
X76218929Y-110842099D01*
X76337898Y-110736701D01*
X76428187Y-110605895D01*
X76484549Y-110457282D01*
X76503707Y-110299500D01*
X76495997Y-110236000D01*
X80582593Y-110236000D01*
X80583326Y-110242037D01*
X80601017Y-110387743D01*
X80601018Y-110387748D01*
X80601751Y-110393782D01*
X80603905Y-110399462D01*
X80603907Y-110399469D01*
X80655955Y-110536707D01*
X80655957Y-110536712D01*
X80658113Y-110542395D01*
X80661568Y-110547401D01*
X80661570Y-110547404D01*
X80744944Y-110668192D01*
X80744946Y-110668194D01*
X80748402Y-110673201D01*
X80867371Y-110778599D01*
X81008107Y-110852463D01*
X81162429Y-110890500D01*
X81315283Y-110890500D01*
X81321371Y-110890500D01*
X81475693Y-110852463D01*
X81616429Y-110778599D01*
X81735398Y-110673201D01*
X81825687Y-110542395D01*
X81882049Y-110393782D01*
X81901207Y-110236000D01*
X81882049Y-110078218D01*
X81851926Y-109998792D01*
X81827844Y-109935292D01*
X81827843Y-109935290D01*
X81825687Y-109929605D01*
X81776443Y-109858263D01*
X81738855Y-109803807D01*
X81738853Y-109803805D01*
X81735398Y-109798799D01*
X81616429Y-109693401D01*
X81611041Y-109690573D01*
X81611038Y-109690571D01*
X81481078Y-109622363D01*
X81481076Y-109622362D01*
X81475693Y-109619537D01*
X81469792Y-109618082D01*
X81469788Y-109618081D01*
X81327280Y-109582956D01*
X81327276Y-109582955D01*
X81321371Y-109581500D01*
X81162429Y-109581500D01*
X81156524Y-109582955D01*
X81156519Y-109582956D01*
X81014011Y-109618081D01*
X81014005Y-109618083D01*
X81008107Y-109619537D01*
X81002726Y-109622360D01*
X81002721Y-109622363D01*
X80872761Y-109690571D01*
X80872754Y-109690575D01*
X80867371Y-109693401D01*
X80862818Y-109697434D01*
X80862813Y-109697438D01*
X80752957Y-109794763D01*
X80752954Y-109794765D01*
X80748402Y-109798799D01*
X80744949Y-109803800D01*
X80744944Y-109803807D01*
X80661570Y-109924595D01*
X80661566Y-109924602D01*
X80658113Y-109929605D01*
X80655959Y-109935283D01*
X80655955Y-109935292D01*
X80603907Y-110072530D01*
X80603904Y-110072538D01*
X80601751Y-110078218D01*
X80601018Y-110084249D01*
X80601017Y-110084256D01*
X80586019Y-110207785D01*
X80582593Y-110236000D01*
X76495997Y-110236000D01*
X76484549Y-110141718D01*
X76462756Y-110084256D01*
X76430344Y-109998792D01*
X76430343Y-109998790D01*
X76428187Y-109993105D01*
X76337898Y-109862299D01*
X76218929Y-109756901D01*
X76213541Y-109754073D01*
X76213538Y-109754071D01*
X76083578Y-109685863D01*
X76083576Y-109685862D01*
X76078193Y-109683037D01*
X76072292Y-109681582D01*
X76072288Y-109681581D01*
X75929780Y-109646456D01*
X75929776Y-109646455D01*
X75923871Y-109645000D01*
X75764929Y-109645000D01*
X75759024Y-109646455D01*
X75759019Y-109646456D01*
X75616511Y-109681581D01*
X75616505Y-109681583D01*
X75610607Y-109683037D01*
X75605226Y-109685860D01*
X75605221Y-109685863D01*
X75475261Y-109754071D01*
X75475254Y-109754075D01*
X75469871Y-109756901D01*
X75465318Y-109760934D01*
X75465313Y-109760938D01*
X75355457Y-109858263D01*
X75355454Y-109858265D01*
X75350902Y-109862299D01*
X75347449Y-109867300D01*
X75347444Y-109867307D01*
X75264070Y-109988095D01*
X75264066Y-109988102D01*
X75260613Y-109993105D01*
X75258459Y-109998783D01*
X75258455Y-109998792D01*
X75206407Y-110136030D01*
X75206404Y-110136038D01*
X75204251Y-110141718D01*
X75203518Y-110147749D01*
X75203517Y-110147756D01*
X75196229Y-110207785D01*
X75185093Y-110299500D01*
X56668539Y-110299500D01*
X56742474Y-110204509D01*
X56860828Y-109985810D01*
X56941571Y-109750614D01*
X56982500Y-109505335D01*
X56982500Y-109256665D01*
X56941571Y-109011386D01*
X56860828Y-108776190D01*
X56742474Y-108557491D01*
X56739927Y-108554218D01*
X56739924Y-108554214D01*
X56665037Y-108458000D01*
X75185093Y-108458000D01*
X75185826Y-108464037D01*
X75203517Y-108609743D01*
X75203518Y-108609748D01*
X75204251Y-108615782D01*
X75206405Y-108621462D01*
X75206407Y-108621469D01*
X75258455Y-108758707D01*
X75258457Y-108758712D01*
X75260613Y-108764395D01*
X75264068Y-108769401D01*
X75264070Y-108769404D01*
X75347444Y-108890192D01*
X75347446Y-108890194D01*
X75350902Y-108895201D01*
X75469871Y-109000599D01*
X75610607Y-109074463D01*
X75764929Y-109112500D01*
X75917783Y-109112500D01*
X75923871Y-109112500D01*
X76078193Y-109074463D01*
X76218929Y-109000599D01*
X76337898Y-108895201D01*
X76428187Y-108764395D01*
X76484549Y-108615782D01*
X76503707Y-108458000D01*
X76836093Y-108458000D01*
X76836826Y-108464037D01*
X76854517Y-108609743D01*
X76854518Y-108609748D01*
X76855251Y-108615782D01*
X76857405Y-108621462D01*
X76857407Y-108621469D01*
X76909455Y-108758707D01*
X76909457Y-108758712D01*
X76911613Y-108764395D01*
X76915068Y-108769401D01*
X76915070Y-108769404D01*
X76998444Y-108890192D01*
X76998446Y-108890194D01*
X77001902Y-108895201D01*
X77120871Y-109000599D01*
X77261607Y-109074463D01*
X77415929Y-109112500D01*
X77568783Y-109112500D01*
X77574871Y-109112500D01*
X77729193Y-109074463D01*
X77869929Y-109000599D01*
X77988898Y-108895201D01*
X78079187Y-108764395D01*
X78135549Y-108615782D01*
X78154707Y-108458000D01*
X78677593Y-108458000D01*
X78678326Y-108464037D01*
X78696017Y-108609743D01*
X78696018Y-108609748D01*
X78696751Y-108615782D01*
X78698905Y-108621462D01*
X78698907Y-108621469D01*
X78750955Y-108758707D01*
X78750957Y-108758712D01*
X78753113Y-108764395D01*
X78756568Y-108769401D01*
X78756570Y-108769404D01*
X78839944Y-108890192D01*
X78839946Y-108890194D01*
X78843402Y-108895201D01*
X78962371Y-109000599D01*
X79103107Y-109074463D01*
X79257429Y-109112500D01*
X79410283Y-109112500D01*
X79416371Y-109112500D01*
X79570693Y-109074463D01*
X79711429Y-109000599D01*
X79830398Y-108895201D01*
X79920687Y-108764395D01*
X79977049Y-108615782D01*
X79996207Y-108458000D01*
X80582593Y-108458000D01*
X80583326Y-108464037D01*
X80601017Y-108609743D01*
X80601018Y-108609748D01*
X80601751Y-108615782D01*
X80603905Y-108621462D01*
X80603907Y-108621469D01*
X80655955Y-108758707D01*
X80655957Y-108758712D01*
X80658113Y-108764395D01*
X80661568Y-108769401D01*
X80661570Y-108769404D01*
X80744944Y-108890192D01*
X80744946Y-108890194D01*
X80748402Y-108895201D01*
X80867371Y-109000599D01*
X81008107Y-109074463D01*
X81162429Y-109112500D01*
X81315283Y-109112500D01*
X81321371Y-109112500D01*
X81475693Y-109074463D01*
X81616429Y-109000599D01*
X81735398Y-108895201D01*
X81825687Y-108764395D01*
X81882049Y-108615782D01*
X81901207Y-108458000D01*
X81882049Y-108300218D01*
X81825687Y-108151605D01*
X81761836Y-108059101D01*
X81738855Y-108025807D01*
X81738853Y-108025805D01*
X81735398Y-108020799D01*
X81616429Y-107915401D01*
X81611041Y-107912573D01*
X81611038Y-107912571D01*
X81481078Y-107844363D01*
X81481076Y-107844362D01*
X81475693Y-107841537D01*
X81469792Y-107840082D01*
X81469788Y-107840081D01*
X81327280Y-107804956D01*
X81327276Y-107804955D01*
X81321371Y-107803500D01*
X81162429Y-107803500D01*
X81156524Y-107804955D01*
X81156519Y-107804956D01*
X81014011Y-107840081D01*
X81014005Y-107840083D01*
X81008107Y-107841537D01*
X81002726Y-107844360D01*
X81002721Y-107844363D01*
X80872761Y-107912571D01*
X80872754Y-107912575D01*
X80867371Y-107915401D01*
X80862818Y-107919434D01*
X80862813Y-107919438D01*
X80752957Y-108016763D01*
X80752954Y-108016765D01*
X80748402Y-108020799D01*
X80744949Y-108025800D01*
X80744944Y-108025807D01*
X80661570Y-108146595D01*
X80661566Y-108146602D01*
X80658113Y-108151605D01*
X80655959Y-108157283D01*
X80655955Y-108157292D01*
X80603907Y-108294530D01*
X80603904Y-108294538D01*
X80601751Y-108300218D01*
X80601018Y-108306249D01*
X80601017Y-108306256D01*
X80593941Y-108364539D01*
X80582593Y-108458000D01*
X79996207Y-108458000D01*
X79977049Y-108300218D01*
X79920687Y-108151605D01*
X79856836Y-108059101D01*
X79833855Y-108025807D01*
X79833853Y-108025805D01*
X79830398Y-108020799D01*
X79711429Y-107915401D01*
X79706041Y-107912573D01*
X79706038Y-107912571D01*
X79576078Y-107844363D01*
X79576076Y-107844362D01*
X79570693Y-107841537D01*
X79564792Y-107840082D01*
X79564788Y-107840081D01*
X79422280Y-107804956D01*
X79422276Y-107804955D01*
X79416371Y-107803500D01*
X79257429Y-107803500D01*
X79251524Y-107804955D01*
X79251519Y-107804956D01*
X79109011Y-107840081D01*
X79109005Y-107840083D01*
X79103107Y-107841537D01*
X79097726Y-107844360D01*
X79097721Y-107844363D01*
X78967761Y-107912571D01*
X78967754Y-107912575D01*
X78962371Y-107915401D01*
X78957818Y-107919434D01*
X78957813Y-107919438D01*
X78847957Y-108016763D01*
X78847954Y-108016765D01*
X78843402Y-108020799D01*
X78839949Y-108025800D01*
X78839944Y-108025807D01*
X78756570Y-108146595D01*
X78756566Y-108146602D01*
X78753113Y-108151605D01*
X78750959Y-108157283D01*
X78750955Y-108157292D01*
X78698907Y-108294530D01*
X78698904Y-108294538D01*
X78696751Y-108300218D01*
X78696018Y-108306249D01*
X78696017Y-108306256D01*
X78688941Y-108364539D01*
X78677593Y-108458000D01*
X78154707Y-108458000D01*
X78135549Y-108300218D01*
X78079187Y-108151605D01*
X78015336Y-108059101D01*
X77992355Y-108025807D01*
X77992353Y-108025805D01*
X77988898Y-108020799D01*
X77869929Y-107915401D01*
X77864541Y-107912573D01*
X77864538Y-107912571D01*
X77734578Y-107844363D01*
X77734576Y-107844362D01*
X77729193Y-107841537D01*
X77723292Y-107840082D01*
X77723288Y-107840081D01*
X77580780Y-107804956D01*
X77580776Y-107804955D01*
X77574871Y-107803500D01*
X77415929Y-107803500D01*
X77410024Y-107804955D01*
X77410019Y-107804956D01*
X77267511Y-107840081D01*
X77267505Y-107840083D01*
X77261607Y-107841537D01*
X77256226Y-107844360D01*
X77256221Y-107844363D01*
X77126261Y-107912571D01*
X77126254Y-107912575D01*
X77120871Y-107915401D01*
X77116318Y-107919434D01*
X77116313Y-107919438D01*
X77006457Y-108016763D01*
X77006454Y-108016765D01*
X77001902Y-108020799D01*
X76998449Y-108025800D01*
X76998444Y-108025807D01*
X76915070Y-108146595D01*
X76915066Y-108146602D01*
X76911613Y-108151605D01*
X76909459Y-108157283D01*
X76909455Y-108157292D01*
X76857407Y-108294530D01*
X76857404Y-108294538D01*
X76855251Y-108300218D01*
X76854518Y-108306249D01*
X76854517Y-108306256D01*
X76847441Y-108364539D01*
X76836093Y-108458000D01*
X76503707Y-108458000D01*
X76484549Y-108300218D01*
X76428187Y-108151605D01*
X76364336Y-108059101D01*
X76341355Y-108025807D01*
X76341353Y-108025805D01*
X76337898Y-108020799D01*
X76218929Y-107915401D01*
X76213541Y-107912573D01*
X76213538Y-107912571D01*
X76083578Y-107844363D01*
X76083576Y-107844362D01*
X76078193Y-107841537D01*
X76072292Y-107840082D01*
X76072288Y-107840081D01*
X75929780Y-107804956D01*
X75929776Y-107804955D01*
X75923871Y-107803500D01*
X75764929Y-107803500D01*
X75759024Y-107804955D01*
X75759019Y-107804956D01*
X75616511Y-107840081D01*
X75616505Y-107840083D01*
X75610607Y-107841537D01*
X75605226Y-107844360D01*
X75605221Y-107844363D01*
X75475261Y-107912571D01*
X75475254Y-107912575D01*
X75469871Y-107915401D01*
X75465318Y-107919434D01*
X75465313Y-107919438D01*
X75355457Y-108016763D01*
X75355454Y-108016765D01*
X75350902Y-108020799D01*
X75347449Y-108025800D01*
X75347444Y-108025807D01*
X75264070Y-108146595D01*
X75264066Y-108146602D01*
X75260613Y-108151605D01*
X75258459Y-108157283D01*
X75258455Y-108157292D01*
X75206407Y-108294530D01*
X75206404Y-108294538D01*
X75204251Y-108300218D01*
X75203518Y-108306249D01*
X75203517Y-108306256D01*
X75196441Y-108364539D01*
X75185093Y-108458000D01*
X56665037Y-108458000D01*
X56592293Y-108364539D01*
X56589738Y-108361256D01*
X56406785Y-108192836D01*
X56403305Y-108190562D01*
X56403302Y-108190560D01*
X56240102Y-108083937D01*
X56198607Y-108056827D01*
X56194806Y-108055159D01*
X56194801Y-108055157D01*
X55974686Y-107958606D01*
X55974685Y-107958605D01*
X55970881Y-107956937D01*
X55966863Y-107955919D01*
X55966853Y-107955916D01*
X55733854Y-107896913D01*
X55733850Y-107896912D01*
X55729821Y-107895892D01*
X55725678Y-107895548D01*
X55725668Y-107895547D01*
X55546150Y-107880672D01*
X55546135Y-107880671D01*
X55544067Y-107880500D01*
X55419933Y-107880500D01*
X55417865Y-107880671D01*
X55417849Y-107880672D01*
X55238331Y-107895547D01*
X55238319Y-107895548D01*
X55234179Y-107895892D01*
X55230151Y-107896911D01*
X55230145Y-107896913D01*
X54997146Y-107955916D01*
X54997132Y-107955920D01*
X54993119Y-107956937D01*
X54989317Y-107958604D01*
X54989313Y-107958606D01*
X54769198Y-108055157D01*
X54769188Y-108055162D01*
X54765393Y-108056827D01*
X54761914Y-108059099D01*
X54761912Y-108059101D01*
X54560697Y-108190560D01*
X54560688Y-108190566D01*
X54557215Y-108192836D01*
X54554163Y-108195645D01*
X54554156Y-108195651D01*
X54419256Y-108319836D01*
X54374262Y-108361256D01*
X54371710Y-108364533D01*
X54371706Y-108364539D01*
X54224075Y-108554214D01*
X54224066Y-108554226D01*
X54221526Y-108557491D01*
X54219551Y-108561140D01*
X54219548Y-108561145D01*
X54152797Y-108684491D01*
X54103172Y-108776190D01*
X54101820Y-108780125D01*
X54101819Y-108780130D01*
X54046173Y-108942221D01*
X54022429Y-109011386D01*
X54021746Y-109015476D01*
X54021744Y-109015486D01*
X53982183Y-109252566D01*
X53982182Y-109252577D01*
X53981500Y-109256665D01*
X53981500Y-109505335D01*
X52782500Y-109505335D01*
X52782500Y-107174591D01*
X52783361Y-107161461D01*
X52796087Y-107064793D01*
X52802884Y-107039425D01*
X52825415Y-106985031D01*
X52837656Y-106955479D01*
X52850778Y-106932750D01*
X52906099Y-106860655D01*
X52924655Y-106842099D01*
X52996750Y-106786778D01*
X53019479Y-106773656D01*
X53103427Y-106738883D01*
X53128791Y-106732087D01*
X53182178Y-106725059D01*
X53225461Y-106719361D01*
X53238591Y-106718500D01*
X53248408Y-106718500D01*
X84735400Y-106718500D01*
X84785700Y-106731978D01*
G37*
G04 #@! TD.AperFunction*
M02*
