  0
SECTION
  2
HEADER
  9
$ANGBASE
  50
0.0
  9
$ANGDIR
  70
1
  9
$MEASUREMENT
  70
1
  0
ENDSEC
  0
SECTION
  2
TABLES
  0
TABLE
  2
LTYPE
  70
4
  0
LTYPE
  5
40F
  2
CONTINUOUS
  70
0
  3
Solid line
  72
65
  73
0
  40
0.0
  0
LTYPE
  5
410
  2
DASHDOT
 70
0
  3
Dash Dot ____ _ ____ _
 72
65
 73
4
 40
2.0
 49
1.25
 49
-0.25
 49
0.25
 49
-0.25
  0
LTYPE
  5
411
  2
DASHED
 70
0
  3
Dashed __ __ __ __ __
 72
65
 73
2
 40
0.75
 49
0.5
 49
-0.25
  0
LTYPE
  5
43B
  2
DOTTED
 70
0
  3
Dotted .  .  .  .
 72
65
 73
2
 40
0.2
 49
0.0
 49
-0.2
  0
ENDTAB
  0
TABLE
  2
STYLE
  70
4
  0
STYLE
  2
KICAD
  70
0
  40
0
  41
1
  42
1
  50
0
  71
0
  3
isocp.shx
  0
STYLE
  2
KICADB
  70
0
  40
0
  41
1
  42
1
  50
0
  71
0
  3
isocp.shx
  0
STYLE
  2
KICADI
  70
0
  40
0
  41
1
  42
1
  50
15
  71
0
  3
isocp.shx
  0
STYLE
  2
KICADBI
  70
0
  40
0
  41
1
  42
1
  50
15
  71
0
  3
isocp.shx
  0
ENDTAB
  0
TABLE
  2
LAYER
  70
1
  0
LAYER
  2
BLACK
  70
0
  62
7
  6
CONTINUOUS
  0
ENDTAB
  0
ENDSEC
  0
SECTION
  2
ENTITIES
0
ARC
8
BLACK
10
53.232
20
-155.968
40
0.5
50
-180
51
-90
0
LINE
8
BLACK
6
CONTINUOUS
10
91.8992
20
-106.668
11
53.232
21
-106.668
0
LINE
8
BLACK
6
CONTINUOUS
10
88.8606
20
-156.468
11
53.232
21
-156.468
0
LINE
8
BLACK
6
CONTINUOUS
10
115.332
20
-156.468
11
107.161
21
-156.468
0
ARC
8
BLACK
10
107.161
20
-155.968
40
0.5
50
-180
51
-90.0054
0
ARC
8
BLACK
10
115.332
20
-155.968
40
0.5
50
-90
51
-0
0
LINE
8
BLACK
6
CONTINUOUS
10
115.832
20
-155.968
11
115.832
21
-107.168
0
LINE
8
BLACK
6
CONTINUOUS
10
106.661
20
-149.968
11
89.3606
21
-149.968
0
LINE
8
BLACK
6
CONTINUOUS
10
52.732
20
-155.968
11
52.732
21
-107.168
0
ARC
8
BLACK
10
115.332
20
-107.168
40
0.5
50
-0
51
90
0
LINE
8
BLACK
6
CONTINUOUS
10
115.332
20
-106.668
11
110.693
21
-106.668
0
ARC
8
BLACK
10
110.693
20
-107.176
40
0.508164
50
90.0041
51
179.087
0
ARC
8
BLACK
10
93.2684
20
-112.569
40
0.863466
50
-181.4
51
-86.6006
0
LINE
8
BLACK
6
CONTINUOUS
10
110.185
20
-112.926
11
110.185
21
-107.168
0
LINE
8
BLACK
6
CONTINUOUS
10
106.661
20
-155.968
11
106.661
21
-149.968
0
ARC
8
BLACK
10
53.232
20
-107.168
40
0.5
50
90
51
180
0
ARC
8
BLACK
10
88.8606
20
-155.968
40
0.499953
50
-90.0054
51
-0
0
LINE
8
BLACK
6
CONTINUOUS
10
109.673
20
-113.431
11
93.3196
21
-113.43
0
LINE
8
BLACK
6
CONTINUOUS
10
89.3606
20
-149.968
11
89.3606
21
-155.968
0
ARC
8
BLACK
10
91.8992
20
-107.176
40
0.508
50
0.902315
51
89.9947
0
ARC
8
BLACK
10
109.673
20
-112.919
40
0.512043
50
-89.9983
51
-0.749726
0
LINE
8
BLACK
6
CONTINUOUS
10
92.4052
20
-112.547
11
92.4071
21
-107.168
0
LINE
8
BLACK
6
CONTINUOUS
10
54.232
20
-108.131
11
56.732
21
-110.631
0
LINE
8
BLACK
6
CONTINUOUS
10
56.732
20
-108.131
11
54.232
21
-110.631
0
LINE
8
BLACK
6
CONTINUOUS
10
54.232
20
-152.454
11
56.732
21
-154.954
0
LINE
8
BLACK
6
CONTINUOUS
10
56.732
20
-152.454
11
54.232
21
-154.954
0
LINE
8
BLACK
6
CONTINUOUS
10
111.763
20
-108.258
11
114.263
21
-110.758
0
LINE
8
BLACK
6
CONTINUOUS
10
114.263
20
-108.258
11
111.763
21
-110.758
0
LINE
8
BLACK
6
CONTINUOUS
10
111.763
20
-152.454
11
114.263
21
-154.954
0
LINE
8
BLACK
6
CONTINUOUS
10
114.263
20
-152.454
11
111.763
21
-154.954
0
CIRCLE
8
BLACK
10
56.8325
20
-132.256
40
1.625
0
CIRCLE
8
BLACK
10
56.8325
20
-144.957
40
1.625
0
LINE
8
BLACK
6
CONTINUOUS
10
55.1582
20
-159.453
11
55.1582
21
-157.453
0
LINE
8
BLACK
6
CONTINUOUS
10
55.1582
20
-157.453
11
55.6344
21
-157.453
0
LINE
8
BLACK
6
CONTINUOUS
10
55.6344
20
-157.453
11
55.9201
21
-157.548
0
LINE
8
BLACK
6
CONTINUOUS
10
55.9201
20
-157.548
11
56.1106
21
-157.738
0
LINE
8
BLACK
6
CONTINUOUS
10
56.1106
20
-157.738
11
56.2058
21
-157.929
0
LINE
8
BLACK
6
CONTINUOUS
10
56.2058
20
-157.929
11
56.301
21
-158.31
0
LINE
8
BLACK
6
CONTINUOUS
10
56.301
20
-158.31
11
56.301
21
-158.596
0
LINE
8
BLACK
6
CONTINUOUS
10
56.301
20
-158.596
11
56.2058
21
-158.977
0
LINE
8
BLACK
6
CONTINUOUS
10
56.2058
20
-158.977
11
56.1106
21
-159.167
0
LINE
8
BLACK
6
CONTINUOUS
10
56.1106
20
-159.167
11
55.9201
21
-159.358
0
LINE
8
BLACK
6
CONTINUOUS
10
55.9201
20
-159.358
11
55.6344
21
-159.453
0
LINE
8
BLACK
6
CONTINUOUS
10
55.6344
20
-159.453
11
55.1582
21
-159.453
0
LINE
8
BLACK
6
CONTINUOUS
10
57.1582
20
-159.453
11
57.1582
21
-158.119
0
LINE
8
BLACK
6
CONTINUOUS
10
57.1582
20
-158.5
11
57.2534
21
-158.31
0
LINE
8
BLACK
6
CONTINUOUS
10
57.2534
20
-158.31
11
57.3487
21
-158.215
0
LINE
8
BLACK
6
CONTINUOUS
10
57.3487
20
-158.215
11
57.5391
21
-158.119
0
LINE
8
BLACK
6
CONTINUOUS
10
57.5391
20
-158.119
11
57.7296
21
-158.119
0
LINE
8
BLACK
6
CONTINUOUS
10
58.3963
20
-159.453
11
58.3963
21
-158.119
0
LINE
8
BLACK
6
CONTINUOUS
10
58.3963
20
-157.453
11
58.301
21
-157.548
0
LINE
8
BLACK
6
CONTINUOUS
10
58.301
20
-157.548
11
58.3963
21
-157.643
0
LINE
8
BLACK
6
CONTINUOUS
10
58.3963
20
-157.643
11
58.4915
21
-157.548
0
LINE
8
BLACK
6
CONTINUOUS
10
58.4915
20
-157.548
11
58.3963
21
-157.453
0
LINE
8
BLACK
6
CONTINUOUS
10
58.3963
20
-157.453
11
58.3963
21
-157.643
0
LINE
8
BLACK
6
CONTINUOUS
10
59.6344
20
-159.453
11
59.4439
21
-159.358
0
LINE
8
BLACK
6
CONTINUOUS
10
59.4439
20
-159.358
11
59.3487
21
-159.167
0
LINE
8
BLACK
6
CONTINUOUS
10
59.3487
20
-159.167
11
59.3487
21
-157.453
0
LINE
8
BLACK
6
CONTINUOUS
10
60.682
20
-159.453
11
60.4915
21
-159.358
0
LINE
8
BLACK
6
CONTINUOUS
10
60.4915
20
-159.358
11
60.3963
21
-159.167
0
LINE
8
BLACK
6
CONTINUOUS
10
60.3963
20
-159.167
11
60.3963
21
-157.453
0
LINE
8
BLACK
6
CONTINUOUS
10
62.6439
20
-159.453
11
62.6439
21
-157.453
0
LINE
8
BLACK
6
CONTINUOUS
10
62.6439
20
-157.453
11
63.3106
21
-158.881
0
LINE
8
BLACK
6
CONTINUOUS
10
63.3106
20
-158.881
11
63.9772
21
-157.453
0
LINE
8
BLACK
6
CONTINUOUS
10
63.9772
20
-157.453
11
63.9772
21
-159.453
0
LINE
8
BLACK
6
CONTINUOUS
10
65.7868
20
-159.453
11
65.7868
21
-158.405
0
LINE
8
BLACK
6
CONTINUOUS
10
65.7868
20
-158.405
11
65.6915
21
-158.215
0
LINE
8
BLACK
6
CONTINUOUS
10
65.6915
20
-158.215
11
65.501
21
-158.119
0
LINE
8
BLACK
6
CONTINUOUS
10
65.501
20
-158.119
11
65.1201
21
-158.119
0
LINE
8
BLACK
6
CONTINUOUS
10
65.1201
20
-158.119
11
64.9296
21
-158.215
0
LINE
8
BLACK
6
CONTINUOUS
10
65.7868
20
-159.358
11
65.5963
21
-159.453
0
LINE
8
BLACK
6
CONTINUOUS
10
65.5963
20
-159.453
11
65.1201
21
-159.453
0
LINE
8
BLACK
6
CONTINUOUS
10
65.1201
20
-159.453
11
64.9296
21
-159.358
0
LINE
8
BLACK
6
CONTINUOUS
10
64.9296
20
-159.358
11
64.8344
21
-159.167
0
LINE
8
BLACK
6
CONTINUOUS
10
64.8344
20
-159.167
11
64.8344
21
-158.977
0
LINE
8
BLACK
6
CONTINUOUS
10
64.8344
20
-158.977
11
64.9296
21
-158.786
0
LINE
8
BLACK
6
CONTINUOUS
10
64.9296
20
-158.786
11
65.1201
21
-158.691
0
LINE
8
BLACK
6
CONTINUOUS
10
65.1201
20
-158.691
11
65.5963
21
-158.691
0
LINE
8
BLACK
6
CONTINUOUS
10
65.5963
20
-158.691
11
65.7868
21
-158.596
0
LINE
8
BLACK
6
CONTINUOUS
10
66.7391
20
-158.119
11
66.7391
21
-160.119
0
LINE
8
BLACK
6
CONTINUOUS
10
66.7391
20
-158.215
11
66.9296
21
-158.119
0
LINE
8
BLACK
6
CONTINUOUS
10
66.9296
20
-158.119
11
67.3106
21
-158.119
0
LINE
8
BLACK
6
CONTINUOUS
10
67.3106
20
-158.119
11
67.501
21
-158.215
0
LINE
8
BLACK
6
CONTINUOUS
10
67.501
20
-158.215
11
67.5963
21
-158.31
0
LINE
8
BLACK
6
CONTINUOUS
10
67.5963
20
-158.31
11
67.6915
21
-158.5
0
LINE
8
BLACK
6
CONTINUOUS
10
67.6915
20
-158.5
11
67.6915
21
-159.072
0
LINE
8
BLACK
6
CONTINUOUS
10
67.6915
20
-159.072
11
67.5963
21
-159.262
0
LINE
8
BLACK
6
CONTINUOUS
10
67.5963
20
-159.262
11
67.501
21
-159.358
0
LINE
8
BLACK
6
CONTINUOUS
10
67.501
20
-159.358
11
67.3106
21
-159.453
0
LINE
8
BLACK
6
CONTINUOUS
10
67.3106
20
-159.453
11
66.9296
21
-159.453
0
LINE
8
BLACK
6
CONTINUOUS
10
66.9296
20
-159.453
11
66.7391
21
-159.358
0
LINE
8
BLACK
6
CONTINUOUS
10
68.5487
20
-159.262
11
68.6439
21
-159.358
0
LINE
8
BLACK
6
CONTINUOUS
10
68.6439
20
-159.358
11
68.5487
21
-159.453
0
LINE
8
BLACK
6
CONTINUOUS
10
68.5487
20
-159.453
11
68.4534
21
-159.358
0
LINE
8
BLACK
6
CONTINUOUS
10
68.4534
20
-159.358
11
68.5487
21
-159.262
0
LINE
8
BLACK
6
CONTINUOUS
10
68.5487
20
-159.262
11
68.5487
21
-159.453
0
LINE
8
BLACK
6
CONTINUOUS
10
68.5487
20
-158.215
11
68.6439
21
-158.31
0
LINE
8
BLACK
6
CONTINUOUS
10
68.6439
20
-158.31
11
68.5487
21
-158.405
0
LINE
8
BLACK
6
CONTINUOUS
10
68.5487
20
-158.405
11
68.4534
21
-158.31
0
LINE
8
BLACK
6
CONTINUOUS
10
68.4534
20
-158.31
11
68.5487
21
-158.215
0
LINE
8
BLACK
6
CONTINUOUS
10
68.5487
20
-158.215
11
68.5487
21
-158.405
0
LINE
8
BLACK
6
CONTINUOUS
10
50.682
20
-161.918
11
52.682
21
-163.918
0
LINE
8
BLACK
6
CONTINUOUS
10
52.682
20
-161.918
11
50.682
21
-163.918
0
LINE
8
BLACK
6
CONTINUOUS
10
55.063
20
-161.843
11
55.1582
21
-161.748
0
LINE
8
BLACK
6
CONTINUOUS
10
55.1582
20
-161.748
11
55.3487
21
-161.653
0
LINE
8
BLACK
6
CONTINUOUS
10
55.3487
20
-161.653
11
55.8249
21
-161.653
0
LINE
8
BLACK
6
CONTINUOUS
10
55.8249
20
-161.653
11
56.0153
21
-161.748
0
LINE
8
BLACK
6
CONTINUOUS
10
56.0153
20
-161.748
11
56.1106
21
-161.843
0
LINE
8
BLACK
6
CONTINUOUS
10
56.1106
20
-161.843
11
56.2058
21
-162.034
0
LINE
8
BLACK
6
CONTINUOUS
10
56.2058
20
-162.034
11
56.2058
21
-162.224
0
LINE
8
BLACK
6
CONTINUOUS
10
56.2058
20
-162.224
11
56.1106
21
-162.51
0
LINE
8
BLACK
6
CONTINUOUS
10
56.1106
20
-162.51
11
54.9677
21
-163.653
0
LINE
8
BLACK
6
CONTINUOUS
10
54.9677
20
-163.653
11
56.2058
21
-163.653
0
LINE
8
BLACK
6
CONTINUOUS
10
57.063
20
-163.462
11
57.1582
21
-163.558
0
LINE
8
BLACK
6
CONTINUOUS
10
57.1582
20
-163.558
11
57.063
21
-163.653
0
LINE
8
BLACK
6
CONTINUOUS
10
57.063
20
-163.653
11
56.9677
21
-163.558
0
LINE
8
BLACK
6
CONTINUOUS
10
56.9677
20
-163.558
11
57.063
21
-163.462
0
LINE
8
BLACK
6
CONTINUOUS
10
57.063
20
-163.462
11
57.063
21
-163.653
0
LINE
8
BLACK
6
CONTINUOUS
10
58.9677
20
-161.653
11
58.0153
21
-161.653
0
LINE
8
BLACK
6
CONTINUOUS
10
58.0153
20
-161.653
11
57.9201
21
-162.605
0
LINE
8
BLACK
6
CONTINUOUS
10
57.9201
20
-162.605
11
58.0153
21
-162.51
0
LINE
8
BLACK
6
CONTINUOUS
10
58.0153
20
-162.51
11
58.2058
21
-162.415
0
LINE
8
BLACK
6
CONTINUOUS
10
58.2058
20
-162.415
11
58.682
21
-162.415
0
LINE
8
BLACK
6
CONTINUOUS
10
58.682
20
-162.415
11
58.8725
21
-162.51
0
LINE
8
BLACK
6
CONTINUOUS
10
58.8725
20
-162.51
11
58.9677
21
-162.605
0
LINE
8
BLACK
6
CONTINUOUS
10
58.9677
20
-162.605
11
59.063
21
-162.796
0
LINE
8
BLACK
6
CONTINUOUS
10
59.063
20
-162.796
11
59.063
21
-163.272
0
LINE
8
BLACK
6
CONTINUOUS
10
59.063
20
-163.272
11
58.9677
21
-163.462
0
LINE
8
BLACK
6
CONTINUOUS
10
58.9677
20
-163.462
11
58.8725
21
-163.558
0
LINE
8
BLACK
6
CONTINUOUS
10
58.8725
20
-163.558
11
58.682
21
-163.653
0
LINE
8
BLACK
6
CONTINUOUS
10
58.682
20
-163.653
11
58.2058
21
-163.653
0
LINE
8
BLACK
6
CONTINUOUS
10
58.2058
20
-163.653
11
58.0153
21
-163.558
0
LINE
8
BLACK
6
CONTINUOUS
10
58.0153
20
-163.558
11
57.9201
21
-163.462
0
LINE
8
BLACK
6
CONTINUOUS
10
60.301
20
-161.653
11
60.4915
21
-161.653
0
LINE
8
BLACK
6
CONTINUOUS
10
60.4915
20
-161.653
11
60.682
21
-161.748
0
LINE
8
BLACK
6
CONTINUOUS
10
60.682
20
-161.748
11
60.7772
21
-161.843
0
LINE
8
BLACK
6
CONTINUOUS
10
60.7772
20
-161.843
11
60.8725
21
-162.034
0
LINE
8
BLACK
6
CONTINUOUS
10
60.8725
20
-162.034
11
60.9677
21
-162.415
0
LINE
8
BLACK
6
CONTINUOUS
10
60.9677
20
-162.415
11
60.9677
21
-162.891
0
LINE
8
BLACK
6
CONTINUOUS
10
60.9677
20
-162.891
11
60.8725
21
-163.272
0
LINE
8
BLACK
6
CONTINUOUS
10
60.8725
20
-163.272
11
60.7772
21
-163.462
0
LINE
8
BLACK
6
CONTINUOUS
10
60.7772
20
-163.462
11
60.682
21
-163.558
0
LINE
8
BLACK
6
CONTINUOUS
10
60.682
20
-163.558
11
60.4915
21
-163.653
0
LINE
8
BLACK
6
CONTINUOUS
10
60.4915
20
-163.653
11
60.301
21
-163.653
0
LINE
8
BLACK
6
CONTINUOUS
10
60.301
20
-163.653
11
60.1106
21
-163.558
0
LINE
8
BLACK
6
CONTINUOUS
10
60.1106
20
-163.558
11
60.0153
21
-163.462
0
LINE
8
BLACK
6
CONTINUOUS
10
60.0153
20
-163.462
11
59.9201
21
-163.272
0
LINE
8
BLACK
6
CONTINUOUS
10
59.9201
20
-163.272
11
59.8249
21
-162.891
0
LINE
8
BLACK
6
CONTINUOUS
10
59.8249
20
-162.891
11
59.8249
21
-162.415
0
LINE
8
BLACK
6
CONTINUOUS
10
59.8249
20
-162.415
11
59.9201
21
-162.034
0
LINE
8
BLACK
6
CONTINUOUS
10
59.9201
20
-162.034
11
60.0153
21
-161.843
0
LINE
8
BLACK
6
CONTINUOUS
10
60.0153
20
-161.843
11
60.1106
21
-161.748
0
LINE
8
BLACK
6
CONTINUOUS
10
60.1106
20
-161.748
11
60.301
21
-161.653
0
LINE
8
BLACK
6
CONTINUOUS
10
62.2058
20
-161.653
11
62.3963
21
-161.653
0
LINE
8
BLACK
6
CONTINUOUS
10
62.3963
20
-161.653
11
62.5868
21
-161.748
0
LINE
8
BLACK
6
CONTINUOUS
10
62.5868
20
-161.748
11
62.682
21
-161.843
0
LINE
8
BLACK
6
CONTINUOUS
10
62.682
20
-161.843
11
62.7772
21
-162.034
0
LINE
8
BLACK
6
CONTINUOUS
10
62.7772
20
-162.034
11
62.8725
21
-162.415
0
LINE
8
BLACK
6
CONTINUOUS
10
62.8725
20
-162.415
11
62.8725
21
-162.891
0
LINE
8
BLACK
6
CONTINUOUS
10
62.8725
20
-162.891
11
62.7772
21
-163.272
0
LINE
8
BLACK
6
CONTINUOUS
10
62.7772
20
-163.272
11
62.682
21
-163.462
0
LINE
8
BLACK
6
CONTINUOUS
10
62.682
20
-163.462
11
62.5868
21
-163.558
0
LINE
8
BLACK
6
CONTINUOUS
10
62.5868
20
-163.558
11
62.3963
21
-163.653
0
LINE
8
BLACK
6
CONTINUOUS
10
62.3963
20
-163.653
11
62.2058
21
-163.653
0
LINE
8
BLACK
6
CONTINUOUS
10
62.2058
20
-163.653
11
62.0153
21
-163.558
0
LINE
8
BLACK
6
CONTINUOUS
10
62.0153
20
-163.558
11
61.9201
21
-163.462
0
LINE
8
BLACK
6
CONTINUOUS
10
61.9201
20
-163.462
11
61.8249
21
-163.272
0
LINE
8
BLACK
6
CONTINUOUS
10
61.8249
20
-163.272
11
61.7296
21
-162.891
0
LINE
8
BLACK
6
CONTINUOUS
10
61.7296
20
-162.891
11
61.7296
21
-162.415
0
LINE
8
BLACK
6
CONTINUOUS
10
61.7296
20
-162.415
11
61.8249
21
-162.034
0
LINE
8
BLACK
6
CONTINUOUS
10
61.8249
20
-162.034
11
61.9201
21
-161.843
0
LINE
8
BLACK
6
CONTINUOUS
10
61.9201
20
-161.843
11
62.0153
21
-161.748
0
LINE
8
BLACK
6
CONTINUOUS
10
62.0153
20
-161.748
11
62.2058
21
-161.653
0
LINE
8
BLACK
6
CONTINUOUS
10
63.7296
20
-163.653
11
63.7296
21
-162.319
0
LINE
8
BLACK
6
CONTINUOUS
10
63.7296
20
-162.51
11
63.8249
21
-162.415
0
LINE
8
BLACK
6
CONTINUOUS
10
63.8249
20
-162.415
11
64.0153
21
-162.319
0
LINE
8
BLACK
6
CONTINUOUS
10
64.0153
20
-162.319
11
64.301
21
-162.319
0
LINE
8
BLACK
6
CONTINUOUS
10
64.301
20
-162.319
11
64.4915
21
-162.415
0
LINE
8
BLACK
6
CONTINUOUS
10
64.4915
20
-162.415
11
64.5868
21
-162.605
0
LINE
8
BLACK
6
CONTINUOUS
10
64.5868
20
-162.605
11
64.5868
21
-163.653
0
LINE
8
BLACK
6
CONTINUOUS
10
64.5868
20
-162.605
11
64.682
21
-162.415
0
LINE
8
BLACK
6
CONTINUOUS
10
64.682
20
-162.415
11
64.8725
21
-162.319
0
LINE
8
BLACK
6
CONTINUOUS
10
64.8725
20
-162.319
11
65.1582
21
-162.319
0
LINE
8
BLACK
6
CONTINUOUS
10
65.1582
20
-162.319
11
65.3487
21
-162.415
0
LINE
8
BLACK
6
CONTINUOUS
10
65.3487
20
-162.415
11
65.4439
21
-162.605
0
LINE
8
BLACK
6
CONTINUOUS
10
65.4439
20
-162.605
11
65.4439
21
-163.653
0
LINE
8
BLACK
6
CONTINUOUS
10
66.3963
20
-163.653
11
66.3963
21
-162.319
0
LINE
8
BLACK
6
CONTINUOUS
10
66.3963
20
-162.51
11
66.4915
21
-162.415
0
LINE
8
BLACK
6
CONTINUOUS
10
66.4915
20
-162.415
11
66.682
21
-162.319
0
LINE
8
BLACK
6
CONTINUOUS
10
66.682
20
-162.319
11
66.9677
21
-162.319
0
LINE
8
BLACK
6
CONTINUOUS
10
66.9677
20
-162.319
11
67.1582
21
-162.415
0
LINE
8
BLACK
6
CONTINUOUS
10
67.1582
20
-162.415
11
67.2534
21
-162.605
0
LINE
8
BLACK
6
CONTINUOUS
10
67.2534
20
-162.605
11
67.2534
21
-163.653
0
LINE
8
BLACK
6
CONTINUOUS
10
67.2534
20
-162.605
11
67.3487
21
-162.415
0
LINE
8
BLACK
6
CONTINUOUS
10
67.3487
20
-162.415
11
67.5391
21
-162.319
0
LINE
8
BLACK
6
CONTINUOUS
10
67.5391
20
-162.319
11
67.8249
21
-162.319
0
LINE
8
BLACK
6
CONTINUOUS
10
67.8249
20
-162.319
11
68.0153
21
-162.415
0
LINE
8
BLACK
6
CONTINUOUS
10
68.0153
20
-162.415
11
68.1106
21
-162.605
0
LINE
8
BLACK
6
CONTINUOUS
10
68.1106
20
-162.605
11
68.1106
21
-163.653
0
LINE
8
BLACK
6
CONTINUOUS
10
71.6915
20
-161.558
11
69.9772
21
-164.129
0
LINE
8
BLACK
6
CONTINUOUS
10
73.9391
20
-161.653
11
74.1296
21
-161.653
0
LINE
8
BLACK
6
CONTINUOUS
10
74.1296
20
-161.653
11
74.3201
21
-161.748
0
LINE
8
BLACK
6
CONTINUOUS
10
74.3201
20
-161.748
11
74.4153
21
-161.843
0
LINE
8
BLACK
6
CONTINUOUS
10
74.4153
20
-161.843
11
74.5106
21
-162.034
0
LINE
8
BLACK
6
CONTINUOUS
10
74.5106
20
-162.034
11
74.6058
21
-162.415
0
LINE
8
BLACK
6
CONTINUOUS
10
74.6058
20
-162.415
11
74.6058
21
-162.891
0
LINE
8
BLACK
6
CONTINUOUS
10
74.6058
20
-162.891
11
74.5106
21
-163.272
0
LINE
8
BLACK
6
CONTINUOUS
10
74.5106
20
-163.272
11
74.4153
21
-163.462
0
LINE
8
BLACK
6
CONTINUOUS
10
74.4153
20
-163.462
11
74.3201
21
-163.558
0
LINE
8
BLACK
6
CONTINUOUS
10
74.3201
20
-163.558
11
74.1296
21
-163.653
0
LINE
8
BLACK
6
CONTINUOUS
10
74.1296
20
-163.653
11
73.9391
21
-163.653
0
LINE
8
BLACK
6
CONTINUOUS
10
73.9391
20
-163.653
11
73.7487
21
-163.558
0
LINE
8
BLACK
6
CONTINUOUS
10
73.7487
20
-163.558
11
73.6534
21
-163.462
0
LINE
8
BLACK
6
CONTINUOUS
10
73.6534
20
-163.462
11
73.5582
21
-163.272
0
LINE
8
BLACK
6
CONTINUOUS
10
73.5582
20
-163.272
11
73.463
21
-162.891
0
LINE
8
BLACK
6
CONTINUOUS
10
73.463
20
-162.891
11
73.463
21
-162.415
0
LINE
8
BLACK
6
CONTINUOUS
10
73.463
20
-162.415
11
73.5582
21
-162.034
0
LINE
8
BLACK
6
CONTINUOUS
10
73.5582
20
-162.034
11
73.6534
21
-161.843
0
LINE
8
BLACK
6
CONTINUOUS
10
73.6534
20
-161.843
11
73.7487
21
-161.748
0
LINE
8
BLACK
6
CONTINUOUS
10
73.7487
20
-161.748
11
73.9391
21
-161.653
0
LINE
8
BLACK
6
CONTINUOUS
10
75.463
20
-163.462
11
75.5582
21
-163.558
0
LINE
8
BLACK
6
CONTINUOUS
10
75.5582
20
-163.558
11
75.463
21
-163.653
0
LINE
8
BLACK
6
CONTINUOUS
10
75.463
20
-163.653
11
75.3677
21
-163.558
0
LINE
8
BLACK
6
CONTINUOUS
10
75.3677
20
-163.558
11
75.463
21
-163.462
0
LINE
8
BLACK
6
CONTINUOUS
10
75.463
20
-163.462
11
75.463
21
-163.653
0
LINE
8
BLACK
6
CONTINUOUS
10
76.7963
20
-161.653
11
76.9868
21
-161.653
0
LINE
8
BLACK
6
CONTINUOUS
10
76.9868
20
-161.653
11
77.1772
21
-161.748
0
LINE
8
BLACK
6
CONTINUOUS
10
77.1772
20
-161.748
11
77.2725
21
-161.843
0
LINE
8
BLACK
6
CONTINUOUS
10
77.2725
20
-161.843
11
77.3677
21
-162.034
0
LINE
8
BLACK
6
CONTINUOUS
10
77.3677
20
-162.034
11
77.463
21
-162.415
0
LINE
8
BLACK
6
CONTINUOUS
10
77.463
20
-162.415
11
77.463
21
-162.891
0
LINE
8
BLACK
6
CONTINUOUS
10
77.463
20
-162.891
11
77.3677
21
-163.272
0
LINE
8
BLACK
6
CONTINUOUS
10
77.3677
20
-163.272
11
77.2725
21
-163.462
0
LINE
8
BLACK
6
CONTINUOUS
10
77.2725
20
-163.462
11
77.1772
21
-163.558
0
LINE
8
BLACK
6
CONTINUOUS
10
77.1772
20
-163.558
11
76.9868
21
-163.653
0
LINE
8
BLACK
6
CONTINUOUS
10
76.9868
20
-163.653
11
76.7963
21
-163.653
0
LINE
8
BLACK
6
CONTINUOUS
10
76.7963
20
-163.653
11
76.6058
21
-163.558
0
LINE
8
BLACK
6
CONTINUOUS
10
76.6058
20
-163.558
11
76.5106
21
-163.462
0
LINE
8
BLACK
6
CONTINUOUS
10
76.5106
20
-163.462
11
76.4153
21
-163.272
0
LINE
8
BLACK
6
CONTINUOUS
10
76.4153
20
-163.272
11
76.3201
21
-162.891
0
LINE
8
BLACK
6
CONTINUOUS
10
76.3201
20
-162.891
11
76.3201
21
-162.415
0
LINE
8
BLACK
6
CONTINUOUS
10
76.3201
20
-162.415
11
76.4153
21
-162.034
0
LINE
8
BLACK
6
CONTINUOUS
10
76.4153
20
-162.034
11
76.5106
21
-161.843
0
LINE
8
BLACK
6
CONTINUOUS
10
76.5106
20
-161.843
11
76.6058
21
-161.748
0
LINE
8
BLACK
6
CONTINUOUS
10
76.6058
20
-161.748
11
76.7963
21
-161.653
0
LINE
8
BLACK
6
CONTINUOUS
10
78.4153
20
-163.653
11
78.7963
21
-163.653
0
LINE
8
BLACK
6
CONTINUOUS
10
78.7963
20
-163.653
11
78.9868
21
-163.558
0
LINE
8
BLACK
6
CONTINUOUS
10
78.9868
20
-163.558
11
79.082
21
-163.462
0
LINE
8
BLACK
6
CONTINUOUS
10
79.082
20
-163.462
11
79.2725
21
-163.177
0
LINE
8
BLACK
6
CONTINUOUS
10
79.2725
20
-163.177
11
79.3677
21
-162.796
0
LINE
8
BLACK
6
CONTINUOUS
10
79.3677
20
-162.796
11
79.3677
21
-162.034
0
LINE
8
BLACK
6
CONTINUOUS
10
79.3677
20
-162.034
11
79.2725
21
-161.843
0
LINE
8
BLACK
6
CONTINUOUS
10
79.2725
20
-161.843
11
79.1772
21
-161.748
0
LINE
8
BLACK
6
CONTINUOUS
10
79.1772
20
-161.748
11
78.9868
21
-161.653
0
LINE
8
BLACK
6
CONTINUOUS
10
78.9868
20
-161.653
11
78.6058
21
-161.653
0
LINE
8
BLACK
6
CONTINUOUS
10
78.6058
20
-161.653
11
78.4153
21
-161.748
0
LINE
8
BLACK
6
CONTINUOUS
10
78.4153
20
-161.748
11
78.3201
21
-161.843
0
LINE
8
BLACK
6
CONTINUOUS
10
78.3201
20
-161.843
11
78.2249
21
-162.034
0
LINE
8
BLACK
6
CONTINUOUS
10
78.2249
20
-162.034
11
78.2249
21
-162.51
0
LINE
8
BLACK
6
CONTINUOUS
10
78.2249
20
-162.51
11
78.3201
21
-162.7
0
LINE
8
BLACK
6
CONTINUOUS
10
78.3201
20
-162.7
11
78.4153
21
-162.796
0
LINE
8
BLACK
6
CONTINUOUS
10
78.4153
20
-162.796
11
78.6058
21
-162.891
0
LINE
8
BLACK
6
CONTINUOUS
10
78.6058
20
-162.891
11
78.9868
21
-162.891
0
LINE
8
BLACK
6
CONTINUOUS
10
78.9868
20
-162.891
11
79.1772
21
-162.796
0
LINE
8
BLACK
6
CONTINUOUS
10
79.1772
20
-162.796
11
79.2725
21
-162.7
0
LINE
8
BLACK
6
CONTINUOUS
10
79.2725
20
-162.7
11
79.3677
21
-162.51
0
LINE
8
BLACK
6
CONTINUOUS
10
80.5106
20
-162.51
11
80.3201
21
-162.415
0
LINE
8
BLACK
6
CONTINUOUS
10
80.3201
20
-162.415
11
80.2249
21
-162.319
0
LINE
8
BLACK
6
CONTINUOUS
10
80.2249
20
-162.319
11
80.1296
21
-162.129
0
LINE
8
BLACK
6
CONTINUOUS
10
80.1296
20
-162.129
11
80.1296
21
-162.034
0
LINE
8
BLACK
6
CONTINUOUS
10
80.1296
20
-162.034
11
80.2249
21
-161.843
0
LINE
8
BLACK
6
CONTINUOUS
10
80.2249
20
-161.843
11
80.3201
21
-161.748
0
LINE
8
BLACK
6
CONTINUOUS
10
80.3201
20
-161.748
11
80.5106
21
-161.653
0
LINE
8
BLACK
6
CONTINUOUS
10
80.5106
20
-161.653
11
80.8915
21
-161.653
0
LINE
8
BLACK
6
CONTINUOUS
10
80.8915
20
-161.653
11
81.082
21
-161.748
0
LINE
8
BLACK
6
CONTINUOUS
10
81.082
20
-161.748
11
81.1772
21
-161.843
0
LINE
8
BLACK
6
CONTINUOUS
10
81.1772
20
-161.843
11
81.2725
21
-162.034
0
LINE
8
BLACK
6
CONTINUOUS
10
81.2725
20
-162.034
11
81.2725
21
-162.129
0
LINE
8
BLACK
6
CONTINUOUS
10
81.2725
20
-162.129
11
81.1772
21
-162.319
0
LINE
8
BLACK
6
CONTINUOUS
10
81.1772
20
-162.319
11
81.082
21
-162.415
0
LINE
8
BLACK
6
CONTINUOUS
10
81.082
20
-162.415
11
80.8915
21
-162.51
0
LINE
8
BLACK
6
CONTINUOUS
10
80.8915
20
-162.51
11
80.5106
21
-162.51
0
LINE
8
BLACK
6
CONTINUOUS
10
80.5106
20
-162.51
11
80.3201
21
-162.605
0
LINE
8
BLACK
6
CONTINUOUS
10
80.3201
20
-162.605
11
80.2249
21
-162.7
0
LINE
8
BLACK
6
CONTINUOUS
10
80.2249
20
-162.7
11
80.1296
21
-162.891
0
LINE
8
BLACK
6
CONTINUOUS
10
80.1296
20
-162.891
11
80.1296
21
-163.272
0
LINE
8
BLACK
6
CONTINUOUS
10
80.1296
20
-163.272
11
80.2249
21
-163.462
0
LINE
8
BLACK
6
CONTINUOUS
10
80.2249
20
-163.462
11
80.3201
21
-163.558
0
LINE
8
BLACK
6
CONTINUOUS
10
80.3201
20
-163.558
11
80.5106
21
-163.653
0
LINE
8
BLACK
6
CONTINUOUS
10
80.5106
20
-163.653
11
80.8915
21
-163.653
0
LINE
8
BLACK
6
CONTINUOUS
10
80.8915
20
-163.653
11
81.082
21
-163.558
0
LINE
8
BLACK
6
CONTINUOUS
10
81.082
20
-163.558
11
81.1772
21
-163.462
0
LINE
8
BLACK
6
CONTINUOUS
10
81.1772
20
-163.462
11
81.2725
21
-163.272
0
LINE
8
BLACK
6
CONTINUOUS
10
81.2725
20
-163.272
11
81.2725
21
-162.891
0
LINE
8
BLACK
6
CONTINUOUS
10
81.2725
20
-162.891
11
81.1772
21
-162.7
0
LINE
8
BLACK
6
CONTINUOUS
10
81.1772
20
-162.7
11
81.082
21
-162.605
0
LINE
8
BLACK
6
CONTINUOUS
10
81.082
20
-162.605
11
80.8915
21
-162.51
0
LINE
8
BLACK
6
CONTINUOUS
10
82.9868
20
-162.319
11
82.9868
21
-163.653
0
LINE
8
BLACK
6
CONTINUOUS
10
82.5106
20
-161.558
11
82.0344
21
-162.986
0
LINE
8
BLACK
6
CONTINUOUS
10
82.0344
20
-162.986
11
83.2725
21
-162.986
0
LINE
8
BLACK
6
CONTINUOUS
10
83.9391
20
-161.653
11
83.9391
21
-162.034
0
LINE
8
BLACK
6
CONTINUOUS
10
84.701
20
-161.653
11
84.701
21
-162.034
0
LINE
8
BLACK
6
CONTINUOUS
10
87.3296
20
-164.415
11
87.2344
21
-164.319
0
LINE
8
BLACK
6
CONTINUOUS
10
87.2344
20
-164.319
11
87.0439
21
-164.034
0
LINE
8
BLACK
6
CONTINUOUS
10
87.0439
20
-164.034
11
86.9487
21
-163.843
0
LINE
8
BLACK
6
CONTINUOUS
10
86.9487
20
-163.843
11
86.8534
21
-163.558
0
LINE
8
BLACK
6
CONTINUOUS
10
86.8534
20
-163.558
11
86.7582
21
-163.081
0
LINE
8
BLACK
6
CONTINUOUS
10
86.7582
20
-163.081
11
86.7582
21
-162.7
0
LINE
8
BLACK
6
CONTINUOUS
10
86.7582
20
-162.7
11
86.8534
21
-162.224
0
LINE
8
BLACK
6
CONTINUOUS
10
86.8534
20
-162.224
11
86.9487
21
-161.938
0
LINE
8
BLACK
6
CONTINUOUS
10
86.9487
20
-161.938
11
87.0439
21
-161.748
0
LINE
8
BLACK
6
CONTINUOUS
10
87.0439
20
-161.748
11
87.2344
21
-161.462
0
LINE
8
BLACK
6
CONTINUOUS
10
87.2344
20
-161.462
11
87.3296
21
-161.367
0
LINE
8
BLACK
6
CONTINUOUS
10
88.9487
20
-162.319
11
88.9487
21
-163.653
0
LINE
8
BLACK
6
CONTINUOUS
10
88.4725
20
-161.558
11
87.9963
21
-162.986
0
LINE
8
BLACK
6
CONTINUOUS
10
87.9963
20
-162.986
11
89.2344
21
-162.986
0
LINE
8
BLACK
6
CONTINUOUS
10
91.1963
20
-163.653
11
91.1963
21
-161.653
0
LINE
8
BLACK
6
CONTINUOUS
10
92.0534
20
-163.653
11
92.0534
21
-162.605
0
LINE
8
BLACK
6
CONTINUOUS
10
92.0534
20
-162.605
11
91.9582
21
-162.415
0
LINE
8
BLACK
6
CONTINUOUS
10
91.9582
20
-162.415
11
91.7677
21
-162.319
0
LINE
8
BLACK
6
CONTINUOUS
10
91.7677
20
-162.319
11
91.482
21
-162.319
0
LINE
8
BLACK
6
CONTINUOUS
10
91.482
20
-162.319
11
91.2915
21
-162.415
0
LINE
8
BLACK
6
CONTINUOUS
10
91.2915
20
-162.415
11
91.1963
21
-162.51
0
LINE
8
BLACK
6
CONTINUOUS
10
93.2915
20
-163.653
11
93.101
21
-163.558
0
LINE
8
BLACK
6
CONTINUOUS
10
93.101
20
-163.558
11
93.0058
21
-163.462
0
LINE
8
BLACK
6
CONTINUOUS
10
93.0058
20
-163.462
11
92.9106
21
-163.272
0
LINE
8
BLACK
6
CONTINUOUS
10
92.9106
20
-163.272
11
92.9106
21
-162.7
0
LINE
8
BLACK
6
CONTINUOUS
10
92.9106
20
-162.7
11
93.0058
21
-162.51
0
LINE
8
BLACK
6
CONTINUOUS
10
93.0058
20
-162.51
11
93.101
21
-162.415
0
LINE
8
BLACK
6
CONTINUOUS
10
93.101
20
-162.415
11
93.2915
21
-162.319
0
LINE
8
BLACK
6
CONTINUOUS
10
93.2915
20
-162.319
11
93.5772
21
-162.319
0
LINE
8
BLACK
6
CONTINUOUS
10
93.5772
20
-162.319
11
93.7677
21
-162.415
0
LINE
8
BLACK
6
CONTINUOUS
10
93.7677
20
-162.415
11
93.863
21
-162.51
0
LINE
8
BLACK
6
CONTINUOUS
10
93.863
20
-162.51
11
93.9582
21
-162.7
0
LINE
8
BLACK
6
CONTINUOUS
10
93.9582
20
-162.7
11
93.9582
21
-163.272
0
LINE
8
BLACK
6
CONTINUOUS
10
93.9582
20
-163.272
11
93.863
21
-163.462
0
LINE
8
BLACK
6
CONTINUOUS
10
93.863
20
-163.462
11
93.7677
21
-163.558
0
LINE
8
BLACK
6
CONTINUOUS
10
93.7677
20
-163.558
11
93.5772
21
-163.653
0
LINE
8
BLACK
6
CONTINUOUS
10
93.5772
20
-163.653
11
93.2915
21
-163.653
0
LINE
8
BLACK
6
CONTINUOUS
10
95.101
20
-163.653
11
94.9106
21
-163.558
0
LINE
8
BLACK
6
CONTINUOUS
10
94.9106
20
-163.558
11
94.8153
21
-163.367
0
LINE
8
BLACK
6
CONTINUOUS
10
94.8153
20
-163.367
11
94.8153
21
-161.653
0
LINE
8
BLACK
6
CONTINUOUS
10
96.6249
20
-163.558
11
96.4344
21
-163.653
0
LINE
8
BLACK
6
CONTINUOUS
10
96.4344
20
-163.653
11
96.0534
21
-163.653
0
LINE
8
BLACK
6
CONTINUOUS
10
96.0534
20
-163.653
11
95.863
21
-163.558
0
LINE
8
BLACK
6
CONTINUOUS
10
95.863
20
-163.558
11
95.7677
21
-163.367
0
LINE
8
BLACK
6
CONTINUOUS
10
95.7677
20
-163.367
11
95.7677
21
-162.605
0
LINE
8
BLACK
6
CONTINUOUS
10
95.7677
20
-162.605
11
95.863
21
-162.415
0
LINE
8
BLACK
6
CONTINUOUS
10
95.863
20
-162.415
11
96.0534
21
-162.319
0
LINE
8
BLACK
6
CONTINUOUS
10
96.0534
20
-162.319
11
96.4344
21
-162.319
0
LINE
8
BLACK
6
CONTINUOUS
10
96.4344
20
-162.319
11
96.6249
21
-162.415
0
LINE
8
BLACK
6
CONTINUOUS
10
96.6249
20
-162.415
11
96.7201
21
-162.605
0
LINE
8
BLACK
6
CONTINUOUS
10
96.7201
20
-162.605
11
96.7201
21
-162.796
0
LINE
8
BLACK
6
CONTINUOUS
10
96.7201
20
-162.796
11
95.7677
21
-162.986
0
LINE
8
BLACK
6
CONTINUOUS
10
97.482
20
-163.558
11
97.6725
21
-163.653
0
LINE
8
BLACK
6
CONTINUOUS
10
97.6725
20
-163.653
11
98.0534
21
-163.653
0
LINE
8
BLACK
6
CONTINUOUS
10
98.0534
20
-163.653
11
98.2439
21
-163.558
0
LINE
8
BLACK
6
CONTINUOUS
10
98.2439
20
-163.558
11
98.3391
21
-163.367
0
LINE
8
BLACK
6
CONTINUOUS
10
98.3391
20
-163.367
11
98.3391
21
-163.272
0
LINE
8
BLACK
6
CONTINUOUS
10
98.3391
20
-163.272
11
98.2439
21
-163.081
0
LINE
8
BLACK
6
CONTINUOUS
10
98.2439
20
-163.081
11
98.0534
21
-162.986
0
LINE
8
BLACK
6
CONTINUOUS
10
98.0534
20
-162.986
11
97.7677
21
-162.986
0
LINE
8
BLACK
6
CONTINUOUS
10
97.7677
20
-162.986
11
97.5772
21
-162.891
0
LINE
8
BLACK
6
CONTINUOUS
10
97.5772
20
-162.891
11
97.482
21
-162.7
0
LINE
8
BLACK
6
CONTINUOUS
10
97.482
20
-162.7
11
97.482
21
-162.605
0
LINE
8
BLACK
6
CONTINUOUS
10
97.482
20
-162.605
11
97.5772
21
-162.415
0
LINE
8
BLACK
6
CONTINUOUS
10
97.5772
20
-162.415
11
97.7677
21
-162.319
0
LINE
8
BLACK
6
CONTINUOUS
10
97.7677
20
-162.319
11
98.0534
21
-162.319
0
LINE
8
BLACK
6
CONTINUOUS
10
98.0534
20
-162.319
11
98.2439
21
-162.415
0
LINE
8
BLACK
6
CONTINUOUS
10
99.0058
20
-164.415
11
99.1011
21
-164.319
0
LINE
8
BLACK
6
CONTINUOUS
10
99.1011
20
-164.319
11
99.2915
21
-164.034
0
LINE
8
BLACK
6
CONTINUOUS
10
99.2915
20
-164.034
11
99.3868
21
-163.843
0
LINE
8
BLACK
6
CONTINUOUS
10
99.3868
20
-163.843
11
99.482
21
-163.558
0
LINE
8
BLACK
6
CONTINUOUS
10
99.482
20
-163.558
11
99.5772
21
-163.081
0
LINE
8
BLACK
6
CONTINUOUS
10
99.5772
20
-163.081
11
99.5772
21
-162.7
0
LINE
8
BLACK
6
CONTINUOUS
10
99.5772
20
-162.7
11
99.482
21
-162.224
0
LINE
8
BLACK
6
CONTINUOUS
10
99.482
20
-162.224
11
99.3868
21
-161.938
0
LINE
8
BLACK
6
CONTINUOUS
10
99.3868
20
-161.938
11
99.2915
21
-161.748
0
LINE
8
BLACK
6
CONTINUOUS
10
99.2915
20
-161.748
11
99.1011
21
-161.462
0
LINE
8
BLACK
6
CONTINUOUS
10
99.1011
20
-161.462
11
99.0058
21
-161.367
0
LINE
8
BLACK
6
CONTINUOUS
10
102.301
20
-164.415
11
102.206
21
-164.319
0
LINE
8
BLACK
6
CONTINUOUS
10
102.206
20
-164.319
11
102.015
21
-164.034
0
LINE
8
BLACK
6
CONTINUOUS
10
102.015
20
-164.034
11
101.92
21
-163.843
0
LINE
8
BLACK
6
CONTINUOUS
10
101.92
20
-163.843
11
101.825
21
-163.558
0
LINE
8
BLACK
6
CONTINUOUS
10
101.825
20
-163.558
11
101.73
21
-163.081
0
LINE
8
BLACK
6
CONTINUOUS
10
101.73
20
-163.081
11
101.73
21
-162.7
0
LINE
8
BLACK
6
CONTINUOUS
10
101.73
20
-162.7
11
101.825
21
-162.224
0
LINE
8
BLACK
6
CONTINUOUS
10
101.825
20
-162.224
11
101.92
21
-161.938
0
LINE
8
BLACK
6
CONTINUOUS
10
101.92
20
-161.938
11
102.015
21
-161.748
0
LINE
8
BLACK
6
CONTINUOUS
10
102.015
20
-161.748
11
102.206
21
-161.462
0
LINE
8
BLACK
6
CONTINUOUS
10
102.206
20
-161.462
11
102.301
21
-161.367
0
LINE
8
BLACK
6
CONTINUOUS
10
103.063
20
-162.319
11
103.063
21
-163.653
0
LINE
8
BLACK
6
CONTINUOUS
10
103.063
20
-162.51
11
103.158
21
-162.415
0
LINE
8
BLACK
6
CONTINUOUS
10
103.158
20
-162.415
11
103.349
21
-162.319
0
LINE
8
BLACK
6
CONTINUOUS
10
103.349
20
-162.319
11
103.634
21
-162.319
0
LINE
8
BLACK
6
CONTINUOUS
10
103.634
20
-162.319
11
103.825
21
-162.415
0
LINE
8
BLACK
6
CONTINUOUS
10
103.825
20
-162.415
11
103.92
21
-162.605
0
LINE
8
BLACK
6
CONTINUOUS
10
103.92
20
-162.605
11
103.92
21
-163.653
0
LINE
8
BLACK
6
CONTINUOUS
10
105.158
20
-163.653
11
104.968
21
-163.558
0
LINE
8
BLACK
6
CONTINUOUS
10
104.968
20
-163.558
11
104.872
21
-163.462
0
LINE
8
BLACK
6
CONTINUOUS
10
104.872
20
-163.462
11
104.777
21
-163.272
0
LINE
8
BLACK
6
CONTINUOUS
10
104.777
20
-163.272
11
104.777
21
-162.7
0
LINE
8
BLACK
6
CONTINUOUS
10
104.777
20
-162.7
11
104.872
21
-162.51
0
LINE
8
BLACK
6
CONTINUOUS
10
104.872
20
-162.51
11
104.968
21
-162.415
0
LINE
8
BLACK
6
CONTINUOUS
10
104.968
20
-162.415
11
105.158
21
-162.319
0
LINE
8
BLACK
6
CONTINUOUS
10
105.158
20
-162.319
11
105.444
21
-162.319
0
LINE
8
BLACK
6
CONTINUOUS
10
105.444
20
-162.319
11
105.634
21
-162.415
0
LINE
8
BLACK
6
CONTINUOUS
10
105.634
20
-162.415
11
105.73
21
-162.51
0
LINE
8
BLACK
6
CONTINUOUS
10
105.73
20
-162.51
11
105.825
21
-162.7
0
LINE
8
BLACK
6
CONTINUOUS
10
105.825
20
-162.7
11
105.825
21
-163.272
0
LINE
8
BLACK
6
CONTINUOUS
10
105.825
20
-163.272
11
105.73
21
-163.462
0
LINE
8
BLACK
6
CONTINUOUS
10
105.73
20
-163.462
11
105.634
21
-163.558
0
LINE
8
BLACK
6
CONTINUOUS
10
105.634
20
-163.558
11
105.444
21
-163.653
0
LINE
8
BLACK
6
CONTINUOUS
10
105.444
20
-163.653
11
105.158
21
-163.653
0
LINE
8
BLACK
6
CONTINUOUS
10
106.396
20
-162.319
11
107.158
21
-162.319
0
LINE
8
BLACK
6
CONTINUOUS
10
106.682
20
-161.653
11
106.682
21
-163.367
0
LINE
8
BLACK
6
CONTINUOUS
10
106.682
20
-163.367
11
106.777
21
-163.558
0
LINE
8
BLACK
6
CONTINUOUS
10
106.777
20
-163.558
11
106.968
21
-163.653
0
LINE
8
BLACK
6
CONTINUOUS
10
106.968
20
-163.653
11
107.158
21
-163.653
0
LINE
8
BLACK
6
CONTINUOUS
10
109.025
20
-162.319
11
109.025
21
-164.319
0
LINE
8
BLACK
6
CONTINUOUS
10
109.025
20
-162.415
11
109.215
21
-162.319
0
LINE
8
BLACK
6
CONTINUOUS
10
109.215
20
-162.319
11
109.596
21
-162.319
0
LINE
8
BLACK
6
CONTINUOUS
10
109.596
20
-162.319
11
109.787
21
-162.415
0
LINE
8
BLACK
6
CONTINUOUS
10
109.787
20
-162.415
11
109.882
21
-162.51
0
LINE
8
BLACK
6
CONTINUOUS
10
109.882
20
-162.51
11
109.977
21
-162.7
0
LINE
8
BLACK
6
CONTINUOUS
10
109.977
20
-162.7
11
109.977
21
-163.272
0
LINE
8
BLACK
6
CONTINUOUS
10
109.977
20
-163.272
11
109.882
21
-163.462
0
LINE
8
BLACK
6
CONTINUOUS
10
109.882
20
-163.462
11
109.787
21
-163.558
0
LINE
8
BLACK
6
CONTINUOUS
10
109.787
20
-163.558
11
109.596
21
-163.653
0
LINE
8
BLACK
6
CONTINUOUS
10
109.596
20
-163.653
11
109.215
21
-163.653
0
LINE
8
BLACK
6
CONTINUOUS
10
109.215
20
-163.653
11
109.025
21
-163.558
0
LINE
8
BLACK
6
CONTINUOUS
10
111.12
20
-163.653
11
110.93
21
-163.558
0
LINE
8
BLACK
6
CONTINUOUS
10
110.93
20
-163.558
11
110.834
21
-163.367
0
LINE
8
BLACK
6
CONTINUOUS
10
110.834
20
-163.367
11
110.834
21
-161.653
0
LINE
8
BLACK
6
CONTINUOUS
10
112.739
20
-163.653
11
112.739
21
-162.605
0
LINE
8
BLACK
6
CONTINUOUS
10
112.739
20
-162.605
11
112.644
21
-162.415
0
LINE
8
BLACK
6
CONTINUOUS
10
112.644
20
-162.415
11
112.453
21
-162.319
0
LINE
8
BLACK
6
CONTINUOUS
10
112.453
20
-162.319
11
112.072
21
-162.319
0
LINE
8
BLACK
6
CONTINUOUS
10
112.072
20
-162.319
11
111.882
21
-162.415
0
LINE
8
BLACK
6
CONTINUOUS
10
112.739
20
-163.558
11
112.549
21
-163.653
0
LINE
8
BLACK
6
CONTINUOUS
10
112.549
20
-163.653
11
112.072
21
-163.653
0
LINE
8
BLACK
6
CONTINUOUS
10
112.072
20
-163.653
11
111.882
21
-163.558
0
LINE
8
BLACK
6
CONTINUOUS
10
111.882
20
-163.558
11
111.787
21
-163.367
0
LINE
8
BLACK
6
CONTINUOUS
10
111.787
20
-163.367
11
111.787
21
-163.177
0
LINE
8
BLACK
6
CONTINUOUS
10
111.787
20
-163.177
11
111.882
21
-162.986
0
LINE
8
BLACK
6
CONTINUOUS
10
111.882
20
-162.986
11
112.072
21
-162.891
0
LINE
8
BLACK
6
CONTINUOUS
10
112.072
20
-162.891
11
112.549
21
-162.891
0
LINE
8
BLACK
6
CONTINUOUS
10
112.549
20
-162.891
11
112.739
21
-162.796
0
LINE
8
BLACK
6
CONTINUOUS
10
113.406
20
-162.319
11
114.168
21
-162.319
0
LINE
8
BLACK
6
CONTINUOUS
10
113.692
20
-161.653
11
113.692
21
-163.367
0
LINE
8
BLACK
6
CONTINUOUS
10
113.692
20
-163.367
11
113.787
21
-163.558
0
LINE
8
BLACK
6
CONTINUOUS
10
113.787
20
-163.558
11
113.977
21
-163.653
0
LINE
8
BLACK
6
CONTINUOUS
10
113.977
20
-163.653
11
114.168
21
-163.653
0
LINE
8
BLACK
6
CONTINUOUS
10
115.596
20
-163.558
11
115.406
21
-163.653
0
LINE
8
BLACK
6
CONTINUOUS
10
115.406
20
-163.653
11
115.025
21
-163.653
0
LINE
8
BLACK
6
CONTINUOUS
10
115.025
20
-163.653
11
114.834
21
-163.558
0
LINE
8
BLACK
6
CONTINUOUS
10
114.834
20
-163.558
11
114.739
21
-163.367
0
LINE
8
BLACK
6
CONTINUOUS
10
114.739
20
-163.367
11
114.739
21
-162.605
0
LINE
8
BLACK
6
CONTINUOUS
10
114.739
20
-162.605
11
114.834
21
-162.415
0
LINE
8
BLACK
6
CONTINUOUS
10
114.834
20
-162.415
11
115.025
21
-162.319
0
LINE
8
BLACK
6
CONTINUOUS
10
115.025
20
-162.319
11
115.406
21
-162.319
0
LINE
8
BLACK
6
CONTINUOUS
10
115.406
20
-162.319
11
115.596
21
-162.415
0
LINE
8
BLACK
6
CONTINUOUS
10
115.596
20
-162.415
11
115.692
21
-162.605
0
LINE
8
BLACK
6
CONTINUOUS
10
115.692
20
-162.605
11
115.692
21
-162.796
0
LINE
8
BLACK
6
CONTINUOUS
10
115.692
20
-162.796
11
114.739
21
-162.986
0
LINE
8
BLACK
6
CONTINUOUS
10
117.406
20
-163.653
11
117.406
21
-161.653
0
LINE
8
BLACK
6
CONTINUOUS
10
117.406
20
-163.558
11
117.215
21
-163.653
0
LINE
8
BLACK
6
CONTINUOUS
10
117.215
20
-163.653
11
116.834
21
-163.653
0
LINE
8
BLACK
6
CONTINUOUS
10
116.834
20
-163.653
11
116.644
21
-163.558
0
LINE
8
BLACK
6
CONTINUOUS
10
116.644
20
-163.558
11
116.549
21
-163.462
0
LINE
8
BLACK
6
CONTINUOUS
10
116.549
20
-163.462
11
116.453
21
-163.272
0
LINE
8
BLACK
6
CONTINUOUS
10
116.453
20
-163.272
11
116.453
21
-162.7
0
LINE
8
BLACK
6
CONTINUOUS
10
116.453
20
-162.7
11
116.549
21
-162.51
0
LINE
8
BLACK
6
CONTINUOUS
10
116.549
20
-162.51
11
116.644
21
-162.415
0
LINE
8
BLACK
6
CONTINUOUS
10
116.644
20
-162.415
11
116.834
21
-162.319
0
LINE
8
BLACK
6
CONTINUOUS
10
116.834
20
-162.319
11
117.215
21
-162.319
0
LINE
8
BLACK
6
CONTINUOUS
10
117.215
20
-162.319
11
117.406
21
-162.415
0
LINE
8
BLACK
6
CONTINUOUS
10
118.168
20
-164.415
11
118.263
21
-164.319
0
LINE
8
BLACK
6
CONTINUOUS
10
118.263
20
-164.319
11
118.453
21
-164.034
0
LINE
8
BLACK
6
CONTINUOUS
10
118.453
20
-164.034
11
118.549
21
-163.843
0
LINE
8
BLACK
6
CONTINUOUS
10
118.549
20
-163.843
11
118.644
21
-163.558
0
LINE
8
BLACK
6
CONTINUOUS
10
118.644
20
-163.558
11
118.739
21
-163.081
0
LINE
8
BLACK
6
CONTINUOUS
10
118.739
20
-163.081
11
118.739
21
-162.7
0
LINE
8
BLACK
6
CONTINUOUS
10
118.739
20
-162.7
11
118.644
21
-162.224
0
LINE
8
BLACK
6
CONTINUOUS
10
118.644
20
-162.224
11
118.549
21
-161.938
0
LINE
8
BLACK
6
CONTINUOUS
10
118.549
20
-161.938
11
118.453
21
-161.748
0
LINE
8
BLACK
6
CONTINUOUS
10
118.453
20
-161.748
11
118.263
21
-161.462
0
LINE
8
BLACK
6
CONTINUOUS
10
118.263
20
-161.462
11
118.168
21
-161.367
0
CIRCLE
8
BLACK
10
51.682
20
-166.118
40
1
0
LINE
8
BLACK
6
CONTINUOUS
10
54.9677
20
-164.853
11
56.2058
21
-164.853
0
LINE
8
BLACK
6
CONTINUOUS
10
56.2058
20
-164.853
11
55.5391
21
-165.615
0
LINE
8
BLACK
6
CONTINUOUS
10
55.5391
20
-165.615
11
55.8249
21
-165.615
0
LINE
8
BLACK
6
CONTINUOUS
10
55.8249
20
-165.615
11
56.0153
21
-165.71
0
LINE
8
BLACK
6
CONTINUOUS
10
56.0153
20
-165.71
11
56.1106
21
-165.805
0
LINE
8
BLACK
6
CONTINUOUS
10
56.1106
20
-165.805
11
56.2058
21
-165.996
0
LINE
8
BLACK
6
CONTINUOUS
10
56.2058
20
-165.996
11
56.2058
21
-166.472
0
LINE
8
BLACK
6
CONTINUOUS
10
56.2058
20
-166.472
11
56.1106
21
-166.662
0
LINE
8
BLACK
6
CONTINUOUS
10
56.1106
20
-166.662
11
56.0153
21
-166.758
0
LINE
8
BLACK
6
CONTINUOUS
10
56.0153
20
-166.758
11
55.8249
21
-166.853
0
LINE
8
BLACK
6
CONTINUOUS
10
55.8249
20
-166.853
11
55.2534
21
-166.853
0
LINE
8
BLACK
6
CONTINUOUS
10
55.2534
20
-166.853
11
55.063
21
-166.758
0
LINE
8
BLACK
6
CONTINUOUS
10
55.063
20
-166.758
11
54.9677
21
-166.662
0
LINE
8
BLACK
6
CONTINUOUS
10
57.063
20
-166.662
11
57.1582
21
-166.758
0
LINE
8
BLACK
6
CONTINUOUS
10
57.1582
20
-166.758
11
57.063
21
-166.853
0
LINE
8
BLACK
6
CONTINUOUS
10
57.063
20
-166.853
11
56.9677
21
-166.758
0
LINE
8
BLACK
6
CONTINUOUS
10
56.9677
20
-166.758
11
57.063
21
-166.662
0
LINE
8
BLACK
6
CONTINUOUS
10
57.063
20
-166.662
11
57.063
21
-166.853
0
LINE
8
BLACK
6
CONTINUOUS
10
57.9201
20
-165.043
11
58.0153
21
-164.948
0
LINE
8
BLACK
6
CONTINUOUS
10
58.0153
20
-164.948
11
58.2058
21
-164.853
0
LINE
8
BLACK
6
CONTINUOUS
10
58.2058
20
-164.853
11
58.682
21
-164.853
0
LINE
8
BLACK
6
CONTINUOUS
10
58.682
20
-164.853
11
58.8725
21
-164.948
0
LINE
8
BLACK
6
CONTINUOUS
10
58.8725
20
-164.948
11
58.9677
21
-165.043
0
LINE
8
BLACK
6
CONTINUOUS
10
58.9677
20
-165.043
11
59.063
21
-165.234
0
LINE
8
BLACK
6
CONTINUOUS
10
59.063
20
-165.234
11
59.063
21
-165.424
0
LINE
8
BLACK
6
CONTINUOUS
10
59.063
20
-165.424
11
58.9677
21
-165.71
0
LINE
8
BLACK
6
CONTINUOUS
10
58.9677
20
-165.71
11
57.8249
21
-166.853
0
LINE
8
BLACK
6
CONTINUOUS
10
57.8249
20
-166.853
11
59.063
21
-166.853
0
LINE
8
BLACK
6
CONTINUOUS
10
60.8725
20
-164.853
11
59.9201
21
-164.853
0
LINE
8
BLACK
6
CONTINUOUS
10
59.9201
20
-164.853
11
59.8249
21
-165.805
0
LINE
8
BLACK
6
CONTINUOUS
10
59.8249
20
-165.805
11
59.9201
21
-165.71
0
LINE
8
BLACK
6
CONTINUOUS
10
59.9201
20
-165.71
11
60.1106
21
-165.615
0
LINE
8
BLACK
6
CONTINUOUS
10
60.1106
20
-165.615
11
60.5868
21
-165.615
0
LINE
8
BLACK
6
CONTINUOUS
10
60.5868
20
-165.615
11
60.7772
21
-165.71
0
LINE
8
BLACK
6
CONTINUOUS
10
60.7772
20
-165.71
11
60.8725
21
-165.805
0
LINE
8
BLACK
6
CONTINUOUS
10
60.8725
20
-165.805
11
60.9677
21
-165.996
0
LINE
8
BLACK
6
CONTINUOUS
10
60.9677
20
-165.996
11
60.9677
21
-166.472
0
LINE
8
BLACK
6
CONTINUOUS
10
60.9677
20
-166.472
11
60.8725
21
-166.662
0
LINE
8
BLACK
6
CONTINUOUS
10
60.8725
20
-166.662
11
60.7772
21
-166.758
0
LINE
8
BLACK
6
CONTINUOUS
10
60.7772
20
-166.758
11
60.5868
21
-166.853
0
LINE
8
BLACK
6
CONTINUOUS
10
60.5868
20
-166.853
11
60.1106
21
-166.853
0
LINE
8
BLACK
6
CONTINUOUS
10
60.1106
20
-166.853
11
59.9201
21
-166.758
0
LINE
8
BLACK
6
CONTINUOUS
10
59.9201
20
-166.758
11
59.8249
21
-166.662
0
LINE
8
BLACK
6
CONTINUOUS
10
62.2058
20
-164.853
11
62.3963
21
-164.853
0
LINE
8
BLACK
6
CONTINUOUS
10
62.3963
20
-164.853
11
62.5868
21
-164.948
0
LINE
8
BLACK
6
CONTINUOUS
10
62.5868
20
-164.948
11
62.682
21
-165.043
0
LINE
8
BLACK
6
CONTINUOUS
10
62.682
20
-165.043
11
62.7772
21
-165.234
0
LINE
8
BLACK
6
CONTINUOUS
10
62.7772
20
-165.234
11
62.8725
21
-165.615
0
LINE
8
BLACK
6
CONTINUOUS
10
62.8725
20
-165.615
11
62.8725
21
-166.091
0
LINE
8
BLACK
6
CONTINUOUS
10
62.8725
20
-166.091
11
62.7772
21
-166.472
0
LINE
8
BLACK
6
CONTINUOUS
10
62.7772
20
-166.472
11
62.682
21
-166.662
0
LINE
8
BLACK
6
CONTINUOUS
10
62.682
20
-166.662
11
62.5868
21
-166.758
0
LINE
8
BLACK
6
CONTINUOUS
10
62.5868
20
-166.758
11
62.3963
21
-166.853
0
LINE
8
BLACK
6
CONTINUOUS
10
62.3963
20
-166.853
11
62.2058
21
-166.853
0
LINE
8
BLACK
6
CONTINUOUS
10
62.2058
20
-166.853
11
62.0153
21
-166.758
0
LINE
8
BLACK
6
CONTINUOUS
10
62.0153
20
-166.758
11
61.9201
21
-166.662
0
LINE
8
BLACK
6
CONTINUOUS
10
61.9201
20
-166.662
11
61.8249
21
-166.472
0
LINE
8
BLACK
6
CONTINUOUS
10
61.8249
20
-166.472
11
61.7296
21
-166.091
0
LINE
8
BLACK
6
CONTINUOUS
10
61.7296
20
-166.091
11
61.7296
21
-165.615
0
LINE
8
BLACK
6
CONTINUOUS
10
61.7296
20
-165.615
11
61.8249
21
-165.234
0
LINE
8
BLACK
6
CONTINUOUS
10
61.8249
20
-165.234
11
61.9201
21
-165.043
0
LINE
8
BLACK
6
CONTINUOUS
10
61.9201
20
-165.043
11
62.0153
21
-164.948
0
LINE
8
BLACK
6
CONTINUOUS
10
62.0153
20
-164.948
11
62.2058
21
-164.853
0
LINE
8
BLACK
6
CONTINUOUS
10
63.7296
20
-166.853
11
63.7296
21
-165.519
0
LINE
8
BLACK
6
CONTINUOUS
10
63.7296
20
-165.71
11
63.8249
21
-165.615
0
LINE
8
BLACK
6
CONTINUOUS
10
63.8249
20
-165.615
11
64.0153
21
-165.519
0
LINE
8
BLACK
6
CONTINUOUS
10
64.0153
20
-165.519
11
64.301
21
-165.519
0
LINE
8
BLACK
6
CONTINUOUS
10
64.301
20
-165.519
11
64.4915
21
-165.615
0
LINE
8
BLACK
6
CONTINUOUS
10
64.4915
20
-165.615
11
64.5868
21
-165.805
0
LINE
8
BLACK
6
CONTINUOUS
10
64.5868
20
-165.805
11
64.5868
21
-166.853
0
LINE
8
BLACK
6
CONTINUOUS
10
64.5868
20
-165.805
11
64.682
21
-165.615
0
LINE
8
BLACK
6
CONTINUOUS
10
64.682
20
-165.615
11
64.8725
21
-165.519
0
LINE
8
BLACK
6
CONTINUOUS
10
64.8725
20
-165.519
11
65.1582
21
-165.519
0
LINE
8
BLACK
6
CONTINUOUS
10
65.1582
20
-165.519
11
65.3487
21
-165.615
0
LINE
8
BLACK
6
CONTINUOUS
10
65.3487
20
-165.615
11
65.4439
21
-165.805
0
LINE
8
BLACK
6
CONTINUOUS
10
65.4439
20
-165.805
11
65.4439
21
-166.853
0
LINE
8
BLACK
6
CONTINUOUS
10
66.3963
20
-166.853
11
66.3963
21
-165.519
0
LINE
8
BLACK
6
CONTINUOUS
10
66.3963
20
-165.71
11
66.4915
21
-165.615
0
LINE
8
BLACK
6
CONTINUOUS
10
66.4915
20
-165.615
11
66.682
21
-165.519
0
LINE
8
BLACK
6
CONTINUOUS
10
66.682
20
-165.519
11
66.9677
21
-165.519
0
LINE
8
BLACK
6
CONTINUOUS
10
66.9677
20
-165.519
11
67.1582
21
-165.615
0
LINE
8
BLACK
6
CONTINUOUS
10
67.1582
20
-165.615
11
67.2534
21
-165.805
0
LINE
8
BLACK
6
CONTINUOUS
10
67.2534
20
-165.805
11
67.2534
21
-166.853
0
LINE
8
BLACK
6
CONTINUOUS
10
67.2534
20
-165.805
11
67.3487
21
-165.615
0
LINE
8
BLACK
6
CONTINUOUS
10
67.3487
20
-165.615
11
67.5391
21
-165.519
0
LINE
8
BLACK
6
CONTINUOUS
10
67.5391
20
-165.519
11
67.8249
21
-165.519
0
LINE
8
BLACK
6
CONTINUOUS
10
67.8249
20
-165.519
11
68.0153
21
-165.615
0
LINE
8
BLACK
6
CONTINUOUS
10
68.0153
20
-165.615
11
68.1106
21
-165.805
0
LINE
8
BLACK
6
CONTINUOUS
10
68.1106
20
-165.805
11
68.1106
21
-166.853
0
LINE
8
BLACK
6
CONTINUOUS
10
71.6915
20
-164.758
11
69.9772
21
-167.329
0
LINE
8
BLACK
6
CONTINUOUS
10
73.9391
20
-164.853
11
74.1296
21
-164.853
0
LINE
8
BLACK
6
CONTINUOUS
10
74.1296
20
-164.853
11
74.3201
21
-164.948
0
LINE
8
BLACK
6
CONTINUOUS
10
74.3201
20
-164.948
11
74.4153
21
-165.043
0
LINE
8
BLACK
6
CONTINUOUS
10
74.4153
20
-165.043
11
74.5106
21
-165.234
0
LINE
8
BLACK
6
CONTINUOUS
10
74.5106
20
-165.234
11
74.6058
21
-165.615
0
LINE
8
BLACK
6
CONTINUOUS
10
74.6058
20
-165.615
11
74.6058
21
-166.091
0
LINE
8
BLACK
6
CONTINUOUS
10
74.6058
20
-166.091
11
74.5106
21
-166.472
0
LINE
8
BLACK
6
CONTINUOUS
10
74.5106
20
-166.472
11
74.4153
21
-166.662
0
LINE
8
BLACK
6
CONTINUOUS
10
74.4153
20
-166.662
11
74.3201
21
-166.758
0
LINE
8
BLACK
6
CONTINUOUS
10
74.3201
20
-166.758
11
74.1296
21
-166.853
0
LINE
8
BLACK
6
CONTINUOUS
10
74.1296
20
-166.853
11
73.9391
21
-166.853
0
LINE
8
BLACK
6
CONTINUOUS
10
73.9391
20
-166.853
11
73.7487
21
-166.758
0
LINE
8
BLACK
6
CONTINUOUS
10
73.7487
20
-166.758
11
73.6534
21
-166.662
0
LINE
8
BLACK
6
CONTINUOUS
10
73.6534
20
-166.662
11
73.5582
21
-166.472
0
LINE
8
BLACK
6
CONTINUOUS
10
73.5582
20
-166.472
11
73.463
21
-166.091
0
LINE
8
BLACK
6
CONTINUOUS
10
73.463
20
-166.091
11
73.463
21
-165.615
0
LINE
8
BLACK
6
CONTINUOUS
10
73.463
20
-165.615
11
73.5582
21
-165.234
0
LINE
8
BLACK
6
CONTINUOUS
10
73.5582
20
-165.234
11
73.6534
21
-165.043
0
LINE
8
BLACK
6
CONTINUOUS
10
73.6534
20
-165.043
11
73.7487
21
-164.948
0
LINE
8
BLACK
6
CONTINUOUS
10
73.7487
20
-164.948
11
73.9391
21
-164.853
0
LINE
8
BLACK
6
CONTINUOUS
10
75.463
20
-166.662
11
75.5582
21
-166.758
0
LINE
8
BLACK
6
CONTINUOUS
10
75.5582
20
-166.758
11
75.463
21
-166.853
0
LINE
8
BLACK
6
CONTINUOUS
10
75.463
20
-166.853
11
75.3677
21
-166.758
0
LINE
8
BLACK
6
CONTINUOUS
10
75.3677
20
-166.758
11
75.463
21
-166.662
0
LINE
8
BLACK
6
CONTINUOUS
10
75.463
20
-166.662
11
75.463
21
-166.853
0
LINE
8
BLACK
6
CONTINUOUS
10
77.463
20
-166.853
11
76.3201
21
-166.853
0
LINE
8
BLACK
6
CONTINUOUS
10
76.8915
20
-166.853
11
76.8915
21
-164.853
0
LINE
8
BLACK
6
CONTINUOUS
10
76.8915
20
-164.853
11
76.701
21
-165.138
0
LINE
8
BLACK
6
CONTINUOUS
10
76.701
20
-165.138
11
76.5106
21
-165.329
0
LINE
8
BLACK
6
CONTINUOUS
10
76.5106
20
-165.329
11
76.3201
21
-165.424
0
LINE
8
BLACK
6
CONTINUOUS
10
78.2249
20
-165.043
11
78.3201
21
-164.948
0
LINE
8
BLACK
6
CONTINUOUS
10
78.3201
20
-164.948
11
78.5106
21
-164.853
0
LINE
8
BLACK
6
CONTINUOUS
10
78.5106
20
-164.853
11
78.9868
21
-164.853
0
LINE
8
BLACK
6
CONTINUOUS
10
78.9868
20
-164.853
11
79.1772
21
-164.948
0
LINE
8
BLACK
6
CONTINUOUS
10
79.1772
20
-164.948
11
79.2725
21
-165.043
0
LINE
8
BLACK
6
CONTINUOUS
10
79.2725
20
-165.043
11
79.3677
21
-165.234
0
LINE
8
BLACK
6
CONTINUOUS
10
79.3677
20
-165.234
11
79.3677
21
-165.424
0
LINE
8
BLACK
6
CONTINUOUS
10
79.3677
20
-165.424
11
79.2725
21
-165.71
0
LINE
8
BLACK
6
CONTINUOUS
10
79.2725
20
-165.71
11
78.1296
21
-166.853
0
LINE
8
BLACK
6
CONTINUOUS
10
78.1296
20
-166.853
11
79.3677
21
-166.853
0
LINE
8
BLACK
6
CONTINUOUS
10
80.5106
20
-165.71
11
80.3201
21
-165.615
0
LINE
8
BLACK
6
CONTINUOUS
10
80.3201
20
-165.615
11
80.2249
21
-165.519
0
LINE
8
BLACK
6
CONTINUOUS
10
80.2249
20
-165.519
11
80.1296
21
-165.329
0
LINE
8
BLACK
6
CONTINUOUS
10
80.1296
20
-165.329
11
80.1296
21
-165.234
0
LINE
8
BLACK
6
CONTINUOUS
10
80.1296
20
-165.234
11
80.2249
21
-165.043
0
LINE
8
BLACK
6
CONTINUOUS
10
80.2249
20
-165.043
11
80.3201
21
-164.948
0
LINE
8
BLACK
6
CONTINUOUS
10
80.3201
20
-164.948
11
80.5106
21
-164.853
0
LINE
8
BLACK
6
CONTINUOUS
10
80.5106
20
-164.853
11
80.8915
21
-164.853
0
LINE
8
BLACK
6
CONTINUOUS
10
80.8915
20
-164.853
11
81.082
21
-164.948
0
LINE
8
BLACK
6
CONTINUOUS
10
81.082
20
-164.948
11
81.1772
21
-165.043
0
LINE
8
BLACK
6
CONTINUOUS
10
81.1772
20
-165.043
11
81.2725
21
-165.234
0
LINE
8
BLACK
6
CONTINUOUS
10
81.2725
20
-165.234
11
81.2725
21
-165.329
0
LINE
8
BLACK
6
CONTINUOUS
10
81.2725
20
-165.329
11
81.1772
21
-165.519
0
LINE
8
BLACK
6
CONTINUOUS
10
81.1772
20
-165.519
11
81.082
21
-165.615
0
LINE
8
BLACK
6
CONTINUOUS
10
81.082
20
-165.615
11
80.8915
21
-165.71
0
LINE
8
BLACK
6
CONTINUOUS
10
80.8915
20
-165.71
11
80.5106
21
-165.71
0
LINE
8
BLACK
6
CONTINUOUS
10
80.5106
20
-165.71
11
80.3201
21
-165.805
0
LINE
8
BLACK
6
CONTINUOUS
10
80.3201
20
-165.805
11
80.2249
21
-165.9
0
LINE
8
BLACK
6
CONTINUOUS
10
80.2249
20
-165.9
11
80.1296
21
-166.091
0
LINE
8
BLACK
6
CONTINUOUS
10
80.1296
20
-166.091
11
80.1296
21
-166.472
0
LINE
8
BLACK
6
CONTINUOUS
10
80.1296
20
-166.472
11
80.2249
21
-166.662
0
LINE
8
BLACK
6
CONTINUOUS
10
80.2249
20
-166.662
11
80.3201
21
-166.758
0
LINE
8
BLACK
6
CONTINUOUS
10
80.3201
20
-166.758
11
80.5106
21
-166.853
0
LINE
8
BLACK
6
CONTINUOUS
10
80.5106
20
-166.853
11
80.8915
21
-166.853
0
LINE
8
BLACK
6
CONTINUOUS
10
80.8915
20
-166.853
11
81.082
21
-166.758
0
LINE
8
BLACK
6
CONTINUOUS
10
81.082
20
-166.758
11
81.1772
21
-166.662
0
LINE
8
BLACK
6
CONTINUOUS
10
81.1772
20
-166.662
11
81.2725
21
-166.472
0
LINE
8
BLACK
6
CONTINUOUS
10
81.2725
20
-166.472
11
81.2725
21
-166.091
0
LINE
8
BLACK
6
CONTINUOUS
10
81.2725
20
-166.091
11
81.1772
21
-165.9
0
LINE
8
BLACK
6
CONTINUOUS
10
81.1772
20
-165.9
11
81.082
21
-165.805
0
LINE
8
BLACK
6
CONTINUOUS
10
81.082
20
-165.805
11
80.8915
21
-165.71
0
LINE
8
BLACK
6
CONTINUOUS
10
82.5106
20
-164.853
11
82.701
21
-164.853
0
LINE
8
BLACK
6
CONTINUOUS
10
82.701
20
-164.853
11
82.8915
21
-164.948
0
LINE
8
BLACK
6
CONTINUOUS
10
82.8915
20
-164.948
11
82.9868
21
-165.043
0
LINE
8
BLACK
6
CONTINUOUS
10
82.9868
20
-165.043
11
83.082
21
-165.234
0
LINE
8
BLACK
6
CONTINUOUS
10
83.082
20
-165.234
11
83.1772
21
-165.615
0
LINE
8
BLACK
6
CONTINUOUS
10
83.1772
20
-165.615
11
83.1772
21
-166.091
0
LINE
8
BLACK
6
CONTINUOUS
10
83.1772
20
-166.091
11
83.082
21
-166.472
0
LINE
8
BLACK
6
CONTINUOUS
10
83.082
20
-166.472
11
82.9868
21
-166.662
0
LINE
8
BLACK
6
CONTINUOUS
10
82.9868
20
-166.662
11
82.8915
21
-166.758
0
LINE
8
BLACK
6
CONTINUOUS
10
82.8915
20
-166.758
11
82.701
21
-166.853
0
LINE
8
BLACK
6
CONTINUOUS
10
82.701
20
-166.853
11
82.5106
21
-166.853
0
LINE
8
BLACK
6
CONTINUOUS
10
82.5106
20
-166.853
11
82.3201
21
-166.758
0
LINE
8
BLACK
6
CONTINUOUS
10
82.3201
20
-166.758
11
82.2249
21
-166.662
0
LINE
8
BLACK
6
CONTINUOUS
10
82.2249
20
-166.662
11
82.1296
21
-166.472
0
LINE
8
BLACK
6
CONTINUOUS
10
82.1296
20
-166.472
11
82.0344
21
-166.091
0
LINE
8
BLACK
6
CONTINUOUS
10
82.0344
20
-166.091
11
82.0344
21
-165.615
0
LINE
8
BLACK
6
CONTINUOUS
10
82.0344
20
-165.615
11
82.1296
21
-165.234
0
LINE
8
BLACK
6
CONTINUOUS
10
82.1296
20
-165.234
11
82.2249
21
-165.043
0
LINE
8
BLACK
6
CONTINUOUS
10
82.2249
20
-165.043
11
82.3201
21
-164.948
0
LINE
8
BLACK
6
CONTINUOUS
10
82.3201
20
-164.948
11
82.5106
21
-164.853
0
LINE
8
BLACK
6
CONTINUOUS
10
83.9391
20
-164.853
11
83.9391
21
-165.234
0
LINE
8
BLACK
6
CONTINUOUS
10
84.701
20
-164.853
11
84.701
21
-165.234
0
LINE
8
BLACK
6
CONTINUOUS
10
87.3296
20
-167.615
11
87.2344
21
-167.519
0
LINE
8
BLACK
6
CONTINUOUS
10
87.2344
20
-167.519
11
87.0439
21
-167.234
0
LINE
8
BLACK
6
CONTINUOUS
10
87.0439
20
-167.234
11
86.9487
21
-167.043
0
LINE
8
BLACK
6
CONTINUOUS
10
86.9487
20
-167.043
11
86.8534
21
-166.758
0
LINE
8
BLACK
6
CONTINUOUS
10
86.8534
20
-166.758
11
86.7582
21
-166.281
0
LINE
8
BLACK
6
CONTINUOUS
10
86.7582
20
-166.281
11
86.7582
21
-165.9
0
LINE
8
BLACK
6
CONTINUOUS
10
86.7582
20
-165.9
11
86.8534
21
-165.424
0
LINE
8
BLACK
6
CONTINUOUS
10
86.8534
20
-165.424
11
86.9487
21
-165.138
0
LINE
8
BLACK
6
CONTINUOUS
10
86.9487
20
-165.138
11
87.0439
21
-164.948
0
LINE
8
BLACK
6
CONTINUOUS
10
87.0439
20
-164.948
11
87.2344
21
-164.662
0
LINE
8
BLACK
6
CONTINUOUS
10
87.2344
20
-164.662
11
87.3296
21
-164.567
0
LINE
8
BLACK
6
CONTINUOUS
10
87.9963
20
-165.043
11
88.0915
21
-164.948
0
LINE
8
BLACK
6
CONTINUOUS
10
88.0915
20
-164.948
11
88.282
21
-164.853
0
LINE
8
BLACK
6
CONTINUOUS
10
88.282
20
-164.853
11
88.7582
21
-164.853
0
LINE
8
BLACK
6
CONTINUOUS
10
88.7582
20
-164.853
11
88.9487
21
-164.948
0
LINE
8
BLACK
6
CONTINUOUS
10
88.9487
20
-164.948
11
89.0439
21
-165.043
0
LINE
8
BLACK
6
CONTINUOUS
10
89.0439
20
-165.043
11
89.1391
21
-165.234
0
LINE
8
BLACK
6
CONTINUOUS
10
89.1391
20
-165.234
11
89.1391
21
-165.424
0
LINE
8
BLACK
6
CONTINUOUS
10
89.1391
20
-165.424
11
89.0439
21
-165.71
0
LINE
8
BLACK
6
CONTINUOUS
10
89.0439
20
-165.71
11
87.901
21
-166.853
0
LINE
8
BLACK
6
CONTINUOUS
10
87.901
20
-166.853
11
89.1391
21
-166.853
0
LINE
8
BLACK
6
CONTINUOUS
10
91.1963
20
-166.853
11
91.1963
21
-164.853
0
LINE
8
BLACK
6
CONTINUOUS
10
92.0534
20
-166.853
11
92.0534
21
-165.805
0
LINE
8
BLACK
6
CONTINUOUS
10
92.0534
20
-165.805
11
91.9582
21
-165.615
0
LINE
8
BLACK
6
CONTINUOUS
10
91.9582
20
-165.615
11
91.7677
21
-165.519
0
LINE
8
BLACK
6
CONTINUOUS
10
91.7677
20
-165.519
11
91.482
21
-165.519
0
LINE
8
BLACK
6
CONTINUOUS
10
91.482
20
-165.519
11
91.2915
21
-165.615
0
LINE
8
BLACK
6
CONTINUOUS
10
91.2915
20
-165.615
11
91.1963
21
-165.71
0
LINE
8
BLACK
6
CONTINUOUS
10
93.2915
20
-166.853
11
93.101
21
-166.758
0
LINE
8
BLACK
6
CONTINUOUS
10
93.101
20
-166.758
11
93.0058
21
-166.662
0
LINE
8
BLACK
6
CONTINUOUS
10
93.0058
20
-166.662
11
92.9106
21
-166.472
0
LINE
8
BLACK
6
CONTINUOUS
10
92.9106
20
-166.472
11
92.9106
21
-165.9
0
LINE
8
BLACK
6
CONTINUOUS
10
92.9106
20
-165.9
11
93.0058
21
-165.71
0
LINE
8
BLACK
6
CONTINUOUS
10
93.0058
20
-165.71
11
93.101
21
-165.615
0
LINE
8
BLACK
6
CONTINUOUS
10
93.101
20
-165.615
11
93.2915
21
-165.519
0
LINE
8
BLACK
6
CONTINUOUS
10
93.2915
20
-165.519
11
93.5772
21
-165.519
0
LINE
8
BLACK
6
CONTINUOUS
10
93.5772
20
-165.519
11
93.7677
21
-165.615
0
LINE
8
BLACK
6
CONTINUOUS
10
93.7677
20
-165.615
11
93.863
21
-165.71
0
LINE
8
BLACK
6
CONTINUOUS
10
93.863
20
-165.71
11
93.9582
21
-165.9
0
LINE
8
BLACK
6
CONTINUOUS
10
93.9582
20
-165.9
11
93.9582
21
-166.472
0
LINE
8
BLACK
6
CONTINUOUS
10
93.9582
20
-166.472
11
93.863
21
-166.662
0
LINE
8
BLACK
6
CONTINUOUS
10
93.863
20
-166.662
11
93.7677
21
-166.758
0
LINE
8
BLACK
6
CONTINUOUS
10
93.7677
20
-166.758
11
93.5772
21
-166.853
0
LINE
8
BLACK
6
CONTINUOUS
10
93.5772
20
-166.853
11
93.2915
21
-166.853
0
LINE
8
BLACK
6
CONTINUOUS
10
95.101
20
-166.853
11
94.9106
21
-166.758
0
LINE
8
BLACK
6
CONTINUOUS
10
94.9106
20
-166.758
11
94.8153
21
-166.567
0
LINE
8
BLACK
6
CONTINUOUS
10
94.8153
20
-166.567
11
94.8153
21
-164.853
0
LINE
8
BLACK
6
CONTINUOUS
10
96.6249
20
-166.758
11
96.4344
21
-166.853
0
LINE
8
BLACK
6
CONTINUOUS
10
96.4344
20
-166.853
11
96.0534
21
-166.853
0
LINE
8
BLACK
6
CONTINUOUS
10
96.0534
20
-166.853
11
95.863
21
-166.758
0
LINE
8
BLACK
6
CONTINUOUS
10
95.863
20
-166.758
11
95.7677
21
-166.567
0
LINE
8
BLACK
6
CONTINUOUS
10
95.7677
20
-166.567
11
95.7677
21
-165.805
0
LINE
8
BLACK
6
CONTINUOUS
10
95.7677
20
-165.805
11
95.863
21
-165.615
0
LINE
8
BLACK
6
CONTINUOUS
10
95.863
20
-165.615
11
96.0534
21
-165.519
0
LINE
8
BLACK
6
CONTINUOUS
10
96.0534
20
-165.519
11
96.4344
21
-165.519
0
LINE
8
BLACK
6
CONTINUOUS
10
96.4344
20
-165.519
11
96.6249
21
-165.615
0
LINE
8
BLACK
6
CONTINUOUS
10
96.6249
20
-165.615
11
96.7201
21
-165.805
0
LINE
8
BLACK
6
CONTINUOUS
10
96.7201
20
-165.805
11
96.7201
21
-165.996
0
LINE
8
BLACK
6
CONTINUOUS
10
96.7201
20
-165.996
11
95.7677
21
-166.186
0
LINE
8
BLACK
6
CONTINUOUS
10
97.482
20
-166.758
11
97.6725
21
-166.853
0
LINE
8
BLACK
6
CONTINUOUS
10
97.6725
20
-166.853
11
98.0534
21
-166.853
0
LINE
8
BLACK
6
CONTINUOUS
10
98.0534
20
-166.853
11
98.2439
21
-166.758
0
LINE
8
BLACK
6
CONTINUOUS
10
98.2439
20
-166.758
11
98.3391
21
-166.567
0
LINE
8
BLACK
6
CONTINUOUS
10
98.3391
20
-166.567
11
98.3391
21
-166.472
0
LINE
8
BLACK
6
CONTINUOUS
10
98.3391
20
-166.472
11
98.2439
21
-166.281
0
LINE
8
BLACK
6
CONTINUOUS
10
98.2439
20
-166.281
11
98.0534
21
-166.186
0
LINE
8
BLACK
6
CONTINUOUS
10
98.0534
20
-166.186
11
97.7677
21
-166.186
0
LINE
8
BLACK
6
CONTINUOUS
10
97.7677
20
-166.186
11
97.5772
21
-166.091
0
LINE
8
BLACK
6
CONTINUOUS
10
97.5772
20
-166.091
11
97.482
21
-165.9
0
LINE
8
BLACK
6
CONTINUOUS
10
97.482
20
-165.9
11
97.482
21
-165.805
0
LINE
8
BLACK
6
CONTINUOUS
10
97.482
20
-165.805
11
97.5772
21
-165.615
0
LINE
8
BLACK
6
CONTINUOUS
10
97.5772
20
-165.615
11
97.7677
21
-165.519
0
LINE
8
BLACK
6
CONTINUOUS
10
97.7677
20
-165.519
11
98.0534
21
-165.519
0
LINE
8
BLACK
6
CONTINUOUS
10
98.0534
20
-165.519
11
98.2439
21
-165.615
0
LINE
8
BLACK
6
CONTINUOUS
10
99.0058
20
-167.615
11
99.1011
21
-167.519
0
LINE
8
BLACK
6
CONTINUOUS
10
99.1011
20
-167.519
11
99.2915
21
-167.234
0
LINE
8
BLACK
6
CONTINUOUS
10
99.2915
20
-167.234
11
99.3868
21
-167.043
0
LINE
8
BLACK
6
CONTINUOUS
10
99.3868
20
-167.043
11
99.482
21
-166.758
0
LINE
8
BLACK
6
CONTINUOUS
10
99.482
20
-166.758
11
99.5772
21
-166.281
0
LINE
8
BLACK
6
CONTINUOUS
10
99.5772
20
-166.281
11
99.5772
21
-165.9
0
LINE
8
BLACK
6
CONTINUOUS
10
99.5772
20
-165.9
11
99.482
21
-165.424
0
LINE
8
BLACK
6
CONTINUOUS
10
99.482
20
-165.424
11
99.3868
21
-165.138
0
LINE
8
BLACK
6
CONTINUOUS
10
99.3868
20
-165.138
11
99.2915
21
-164.948
0
LINE
8
BLACK
6
CONTINUOUS
10
99.2915
20
-164.948
11
99.1011
21
-164.662
0
LINE
8
BLACK
6
CONTINUOUS
10
99.1011
20
-164.662
11
99.0058
21
-164.567
0
LINE
8
BLACK
6
CONTINUOUS
10
102.301
20
-167.615
11
102.206
21
-167.519
0
LINE
8
BLACK
6
CONTINUOUS
10
102.206
20
-167.519
11
102.015
21
-167.234
0
LINE
8
BLACK
6
CONTINUOUS
10
102.015
20
-167.234
11
101.92
21
-167.043
0
LINE
8
BLACK
6
CONTINUOUS
10
101.92
20
-167.043
11
101.825
21
-166.758
0
LINE
8
BLACK
6
CONTINUOUS
10
101.825
20
-166.758
11
101.73
21
-166.281
0
LINE
8
BLACK
6
CONTINUOUS
10
101.73
20
-166.281
11
101.73
21
-165.9
0
LINE
8
BLACK
6
CONTINUOUS
10
101.73
20
-165.9
11
101.825
21
-165.424
0
LINE
8
BLACK
6
CONTINUOUS
10
101.825
20
-165.424
11
101.92
21
-165.138
0
LINE
8
BLACK
6
CONTINUOUS
10
101.92
20
-165.138
11
102.015
21
-164.948
0
LINE
8
BLACK
6
CONTINUOUS
10
102.015
20
-164.948
11
102.206
21
-164.662
0
LINE
8
BLACK
6
CONTINUOUS
10
102.206
20
-164.662
11
102.301
21
-164.567
0
LINE
8
BLACK
6
CONTINUOUS
10
103.063
20
-165.519
11
103.063
21
-166.853
0
LINE
8
BLACK
6
CONTINUOUS
10
103.063
20
-165.71
11
103.158
21
-165.615
0
LINE
8
BLACK
6
CONTINUOUS
10
103.158
20
-165.615
11
103.349
21
-165.519
0
LINE
8
BLACK
6
CONTINUOUS
10
103.349
20
-165.519
11
103.634
21
-165.519
0
LINE
8
BLACK
6
CONTINUOUS
10
103.634
20
-165.519
11
103.825
21
-165.615
0
LINE
8
BLACK
6
CONTINUOUS
10
103.825
20
-165.615
11
103.92
21
-165.805
0
LINE
8
BLACK
6
CONTINUOUS
10
103.92
20
-165.805
11
103.92
21
-166.853
0
LINE
8
BLACK
6
CONTINUOUS
10
105.158
20
-166.853
11
104.968
21
-166.758
0
LINE
8
BLACK
6
CONTINUOUS
10
104.968
20
-166.758
11
104.872
21
-166.662
0
LINE
8
BLACK
6
CONTINUOUS
10
104.872
20
-166.662
11
104.777
21
-166.472
0
LINE
8
BLACK
6
CONTINUOUS
10
104.777
20
-166.472
11
104.777
21
-165.9
0
LINE
8
BLACK
6
CONTINUOUS
10
104.777
20
-165.9
11
104.872
21
-165.71
0
LINE
8
BLACK
6
CONTINUOUS
10
104.872
20
-165.71
11
104.968
21
-165.615
0
LINE
8
BLACK
6
CONTINUOUS
10
104.968
20
-165.615
11
105.158
21
-165.519
0
LINE
8
BLACK
6
CONTINUOUS
10
105.158
20
-165.519
11
105.444
21
-165.519
0
LINE
8
BLACK
6
CONTINUOUS
10
105.444
20
-165.519
11
105.634
21
-165.615
0
LINE
8
BLACK
6
CONTINUOUS
10
105.634
20
-165.615
11
105.73
21
-165.71
0
LINE
8
BLACK
6
CONTINUOUS
10
105.73
20
-165.71
11
105.825
21
-165.9
0
LINE
8
BLACK
6
CONTINUOUS
10
105.825
20
-165.9
11
105.825
21
-166.472
0
LINE
8
BLACK
6
CONTINUOUS
10
105.825
20
-166.472
11
105.73
21
-166.662
0
LINE
8
BLACK
6
CONTINUOUS
10
105.73
20
-166.662
11
105.634
21
-166.758
0
LINE
8
BLACK
6
CONTINUOUS
10
105.634
20
-166.758
11
105.444
21
-166.853
0
LINE
8
BLACK
6
CONTINUOUS
10
105.444
20
-166.853
11
105.158
21
-166.853
0
LINE
8
BLACK
6
CONTINUOUS
10
106.396
20
-165.519
11
107.158
21
-165.519
0
LINE
8
BLACK
6
CONTINUOUS
10
106.682
20
-164.853
11
106.682
21
-166.567
0
LINE
8
BLACK
6
CONTINUOUS
10
106.682
20
-166.567
11
106.777
21
-166.758
0
LINE
8
BLACK
6
CONTINUOUS
10
106.777
20
-166.758
11
106.968
21
-166.853
0
LINE
8
BLACK
6
CONTINUOUS
10
106.968
20
-166.853
11
107.158
21
-166.853
0
LINE
8
BLACK
6
CONTINUOUS
10
109.025
20
-165.519
11
109.025
21
-167.519
0
LINE
8
BLACK
6
CONTINUOUS
10
109.025
20
-165.615
11
109.215
21
-165.519
0
LINE
8
BLACK
6
CONTINUOUS
10
109.215
20
-165.519
11
109.596
21
-165.519
0
LINE
8
BLACK
6
CONTINUOUS
10
109.596
20
-165.519
11
109.787
21
-165.615
0
LINE
8
BLACK
6
CONTINUOUS
10
109.787
20
-165.615
11
109.882
21
-165.71
0
LINE
8
BLACK
6
CONTINUOUS
10
109.882
20
-165.71
11
109.977
21
-165.9
0
LINE
8
BLACK
6
CONTINUOUS
10
109.977
20
-165.9
11
109.977
21
-166.472
0
LINE
8
BLACK
6
CONTINUOUS
10
109.977
20
-166.472
11
109.882
21
-166.662
0
LINE
8
BLACK
6
CONTINUOUS
10
109.882
20
-166.662
11
109.787
21
-166.758
0
LINE
8
BLACK
6
CONTINUOUS
10
109.787
20
-166.758
11
109.596
21
-166.853
0
LINE
8
BLACK
6
CONTINUOUS
10
109.596
20
-166.853
11
109.215
21
-166.853
0
LINE
8
BLACK
6
CONTINUOUS
10
109.215
20
-166.853
11
109.025
21
-166.758
0
LINE
8
BLACK
6
CONTINUOUS
10
111.12
20
-166.853
11
110.93
21
-166.758
0
LINE
8
BLACK
6
CONTINUOUS
10
110.93
20
-166.758
11
110.834
21
-166.567
0
LINE
8
BLACK
6
CONTINUOUS
10
110.834
20
-166.567
11
110.834
21
-164.853
0
LINE
8
BLACK
6
CONTINUOUS
10
112.739
20
-166.853
11
112.739
21
-165.805
0
LINE
8
BLACK
6
CONTINUOUS
10
112.739
20
-165.805
11
112.644
21
-165.615
0
LINE
8
BLACK
6
CONTINUOUS
10
112.644
20
-165.615
11
112.453
21
-165.519
0
LINE
8
BLACK
6
CONTINUOUS
10
112.453
20
-165.519
11
112.072
21
-165.519
0
LINE
8
BLACK
6
CONTINUOUS
10
112.072
20
-165.519
11
111.882
21
-165.615
0
LINE
8
BLACK
6
CONTINUOUS
10
112.739
20
-166.758
11
112.549
21
-166.853
0
LINE
8
BLACK
6
CONTINUOUS
10
112.549
20
-166.853
11
112.072
21
-166.853
0
LINE
8
BLACK
6
CONTINUOUS
10
112.072
20
-166.853
11
111.882
21
-166.758
0
LINE
8
BLACK
6
CONTINUOUS
10
111.882
20
-166.758
11
111.787
21
-166.567
0
LINE
8
BLACK
6
CONTINUOUS
10
111.787
20
-166.567
11
111.787
21
-166.377
0
LINE
8
BLACK
6
CONTINUOUS
10
111.787
20
-166.377
11
111.882
21
-166.186
0
LINE
8
BLACK
6
CONTINUOUS
10
111.882
20
-166.186
11
112.072
21
-166.091
0
LINE
8
BLACK
6
CONTINUOUS
10
112.072
20
-166.091
11
112.549
21
-166.091
0
LINE
8
BLACK
6
CONTINUOUS
10
112.549
20
-166.091
11
112.739
21
-165.996
0
LINE
8
BLACK
6
CONTINUOUS
10
113.406
20
-165.519
11
114.168
21
-165.519
0
LINE
8
BLACK
6
CONTINUOUS
10
113.692
20
-164.853
11
113.692
21
-166.567
0
LINE
8
BLACK
6
CONTINUOUS
10
113.692
20
-166.567
11
113.787
21
-166.758
0
LINE
8
BLACK
6
CONTINUOUS
10
113.787
20
-166.758
11
113.977
21
-166.853
0
LINE
8
BLACK
6
CONTINUOUS
10
113.977
20
-166.853
11
114.168
21
-166.853
0
LINE
8
BLACK
6
CONTINUOUS
10
115.596
20
-166.758
11
115.406
21
-166.853
0
LINE
8
BLACK
6
CONTINUOUS
10
115.406
20
-166.853
11
115.025
21
-166.853
0
LINE
8
BLACK
6
CONTINUOUS
10
115.025
20
-166.853
11
114.834
21
-166.758
0
LINE
8
BLACK
6
CONTINUOUS
10
114.834
20
-166.758
11
114.739
21
-166.567
0
LINE
8
BLACK
6
CONTINUOUS
10
114.739
20
-166.567
11
114.739
21
-165.805
0
LINE
8
BLACK
6
CONTINUOUS
10
114.739
20
-165.805
11
114.834
21
-165.615
0
LINE
8
BLACK
6
CONTINUOUS
10
114.834
20
-165.615
11
115.025
21
-165.519
0
LINE
8
BLACK
6
CONTINUOUS
10
115.025
20
-165.519
11
115.406
21
-165.519
0
LINE
8
BLACK
6
CONTINUOUS
10
115.406
20
-165.519
11
115.596
21
-165.615
0
LINE
8
BLACK
6
CONTINUOUS
10
115.596
20
-165.615
11
115.692
21
-165.805
0
LINE
8
BLACK
6
CONTINUOUS
10
115.692
20
-165.805
11
115.692
21
-165.996
0
LINE
8
BLACK
6
CONTINUOUS
10
115.692
20
-165.996
11
114.739
21
-166.186
0
LINE
8
BLACK
6
CONTINUOUS
10
117.406
20
-166.853
11
117.406
21
-164.853
0
LINE
8
BLACK
6
CONTINUOUS
10
117.406
20
-166.758
11
117.215
21
-166.853
0
LINE
8
BLACK
6
CONTINUOUS
10
117.215
20
-166.853
11
116.834
21
-166.853
0
LINE
8
BLACK
6
CONTINUOUS
10
116.834
20
-166.853
11
116.644
21
-166.758
0
LINE
8
BLACK
6
CONTINUOUS
10
116.644
20
-166.758
11
116.549
21
-166.662
0
LINE
8
BLACK
6
CONTINUOUS
10
116.549
20
-166.662
11
116.453
21
-166.472
0
LINE
8
BLACK
6
CONTINUOUS
10
116.453
20
-166.472
11
116.453
21
-165.9
0
LINE
8
BLACK
6
CONTINUOUS
10
116.453
20
-165.9
11
116.549
21
-165.71
0
LINE
8
BLACK
6
CONTINUOUS
10
116.549
20
-165.71
11
116.644
21
-165.615
0
LINE
8
BLACK
6
CONTINUOUS
10
116.644
20
-165.615
11
116.834
21
-165.519
0
LINE
8
BLACK
6
CONTINUOUS
10
116.834
20
-165.519
11
117.215
21
-165.519
0
LINE
8
BLACK
6
CONTINUOUS
10
117.215
20
-165.519
11
117.406
21
-165.615
0
LINE
8
BLACK
6
CONTINUOUS
10
118.168
20
-167.615
11
118.263
21
-167.519
0
LINE
8
BLACK
6
CONTINUOUS
10
118.263
20
-167.519
11
118.453
21
-167.234
0
LINE
8
BLACK
6
CONTINUOUS
10
118.453
20
-167.234
11
118.549
21
-167.043
0
LINE
8
BLACK
6
CONTINUOUS
10
118.549
20
-167.043
11
118.644
21
-166.758
0
LINE
8
BLACK
6
CONTINUOUS
10
118.644
20
-166.758
11
118.739
21
-166.281
0
LINE
8
BLACK
6
CONTINUOUS
10
118.739
20
-166.281
11
118.739
21
-165.9
0
LINE
8
BLACK
6
CONTINUOUS
10
118.739
20
-165.9
11
118.644
21
-165.424
0
LINE
8
BLACK
6
CONTINUOUS
10
118.644
20
-165.424
11
118.549
21
-165.138
0
LINE
8
BLACK
6
CONTINUOUS
10
118.549
20
-165.138
11
118.453
21
-164.948
0
LINE
8
BLACK
6
CONTINUOUS
10
118.453
20
-164.948
11
118.263
21
-164.662
0
LINE
8
BLACK
6
CONTINUOUS
10
118.263
20
-164.662
11
118.168
21
-164.567
  0
ENDSEC
  0
EOF
