  0
SECTION
  2
HEADER
  9
$ANGBASE
  50
0.0
  9
$ANGDIR
  70
1
  9
$MEASUREMENT
  70
1
  0
ENDSEC
  0
SECTION
  2
TABLES
  0
TABLE
  2
LTYPE
  70
4
  0
LTYPE
  5
40F
  2
CONTINUOUS
  70
0
  3
Solid line
  72
65
  73
0
  40
0.0
  0
LTYPE
  5
410
  2
DASHDOT
 70
0
  3
Dash Dot ____ _ ____ _
 72
65
 73
4
 40
2.0
 49
1.25
 49
-0.25
 49
0.25
 49
-0.25
  0
LTYPE
  5
411
  2
DASHED
 70
0
  3
Dashed __ __ __ __ __
 72
65
 73
2
 40
0.75
 49
0.5
 49
-0.25
  0
LTYPE
  5
43B
  2
DOTTED
 70
0
  3
Dotted .  .  .  .
 72
65
 73
2
 40
0.2
 49
0.0
 49
-0.2
  0
ENDTAB
  0
TABLE
  2
STYLE
  70
4
  0
STYLE
  2
KICAD
  70
0
  40
0
  41
1
  42
1
  50
0
  71
0
  3
isocp.shx
  0
STYLE
  2
KICADB
  70
0
  40
0
  41
1
  42
1
  50
0
  71
0
  3
isocp.shx
  0
STYLE
  2
KICADI
  70
0
  40
0
  41
1
  42
1
  50
15
  71
0
  3
isocp.shx
  0
STYLE
  2
KICADBI
  70
0
  40
0
  41
1
  42
1
  50
15
  71
0
  3
isocp.shx
  0
ENDTAB
  0
TABLE
  2
LAYER
  70
1
  0
LAYER
  2
BLACK
  70
0
  62
7
  6
CONTINUOUS
  0
ENDTAB
  0
ENDSEC
  0
SECTION
  2
ENTITIES
0
ARC
8
BLACK
10
53.232
20
-155.968
40
0.5
50
-180
51
-90
0
LINE
8
BLACK
6
CONTINUOUS
10
91.8992
20
-106.668
11
53.232
21
-106.668
0
LINE
8
BLACK
6
CONTINUOUS
10
88.8606
20
-156.468
11
53.232
21
-156.468
0
LINE
8
BLACK
6
CONTINUOUS
10
115.332
20
-156.468
11
107.161
21
-156.468
0
ARC
8
BLACK
10
107.161
20
-155.968
40
0.5
50
-180
51
-90.0054
0
ARC
8
BLACK
10
115.332
20
-155.968
40
0.5
50
-90
51
-0
0
LINE
8
BLACK
6
CONTINUOUS
10
115.832
20
-155.968
11
115.832
21
-107.168
0
LINE
8
BLACK
6
CONTINUOUS
10
106.661
20
-149.968
11
89.3606
21
-149.968
0
LINE
8
BLACK
6
CONTINUOUS
10
52.732
20
-155.968
11
52.732
21
-107.168
0
ARC
8
BLACK
10
115.332
20
-107.168
40
0.5
50
-0
51
90
0
LINE
8
BLACK
6
CONTINUOUS
10
115.332
20
-106.668
11
110.693
21
-106.668
0
ARC
8
BLACK
10
110.693
20
-107.176
40
0.508164
50
90.0041
51
179.087
0
ARC
8
BLACK
10
93.2684
20
-112.569
40
0.863466
50
-181.4
51
-86.6006
0
LINE
8
BLACK
6
CONTINUOUS
10
110.185
20
-112.926
11
110.185
21
-107.168
0
LINE
8
BLACK
6
CONTINUOUS
10
106.661
20
-155.968
11
106.661
21
-149.968
0
ARC
8
BLACK
10
53.232
20
-107.168
40
0.5
50
90
51
180
0
ARC
8
BLACK
10
88.8606
20
-155.968
40
0.499953
50
-90.0054
51
-0
0
LINE
8
BLACK
6
CONTINUOUS
10
109.673
20
-113.431
11
93.3196
21
-113.43
0
LINE
8
BLACK
6
CONTINUOUS
10
89.3606
20
-149.968
11
89.3606
21
-155.968
0
ARC
8
BLACK
10
91.8992
20
-107.176
40
0.508
50
0.902315
51
89.9947
0
ARC
8
BLACK
10
109.673
20
-112.919
40
0.512043
50
-89.9983
51
-0.749726
0
LINE
8
BLACK
6
CONTINUOUS
10
92.4052
20
-112.547
11
92.4071
21
-107.168
0
LINE
8
BLACK
6
CONTINUOUS
10
58.3109
20
-119.591
11
58.7109
21
-119.991
0
LINE
8
BLACK
6
CONTINUOUS
10
58.7109
20
-119.591
11
58.3109
21
-119.991
0
LINE
8
BLACK
6
CONTINUOUS
10
58.3109
20
-126.684
11
58.7109
21
-127.084
0
LINE
8
BLACK
6
CONTINUOUS
10
58.7109
20
-126.684
11
58.3109
21
-127.084
0
LINE
8
BLACK
6
CONTINUOUS
10
59.871
20
-119.561
11
60.271
21
-119.961
0
LINE
8
BLACK
6
CONTINUOUS
10
60.271
20
-119.561
11
59.871
21
-119.961
0
LINE
8
BLACK
6
CONTINUOUS
10
62.919
20
-119.561
11
63.319
21
-119.961
0
LINE
8
BLACK
6
CONTINUOUS
10
63.319
20
-119.561
11
62.919
21
-119.961
0
LINE
8
BLACK
6
CONTINUOUS
10
64.57
20
-117.021
11
64.97
21
-117.421
0
LINE
8
BLACK
6
CONTINUOUS
10
64.97
20
-117.021
11
64.57
21
-117.421
0
LINE
8
BLACK
6
CONTINUOUS
10
65.8146
20
-136.427
11
66.2146
21
-136.827
0
LINE
8
BLACK
6
CONTINUOUS
10
66.2146
20
-136.427
11
65.8146
21
-136.827
0
LINE
8
BLACK
6
CONTINUOUS
10
65.9203
20
-152.268
11
66.3203
21
-152.668
0
LINE
8
BLACK
6
CONTINUOUS
10
66.3203
20
-152.268
11
65.9203
21
-152.668
0
LINE
8
BLACK
6
CONTINUOUS
10
68.126
20
-114.481
11
68.526
21
-114.881
0
LINE
8
BLACK
6
CONTINUOUS
10
68.526
20
-114.481
11
68.126
21
-114.881
0
LINE
8
BLACK
6
CONTINUOUS
10
68.126
20
-115.751
11
68.526
21
-116.151
0
LINE
8
BLACK
6
CONTINUOUS
10
68.526
20
-115.751
11
68.126
21
-116.151
0
LINE
8
BLACK
6
CONTINUOUS
10
68.7435
20
-136.434
11
69.1435
21
-136.834
0
LINE
8
BLACK
6
CONTINUOUS
10
69.1435
20
-136.434
11
68.7435
21
-136.834
0
LINE
8
BLACK
6
CONTINUOUS
10
68.888
20
-132.769
11
69.288
21
-133.169
0
LINE
8
BLACK
6
CONTINUOUS
10
69.288
20
-132.769
11
68.888
21
-133.169
0
LINE
8
BLACK
6
CONTINUOUS
10
68.888
20
-133.912
11
69.288
21
-134.312
0
LINE
8
BLACK
6
CONTINUOUS
10
69.288
20
-133.912
11
68.888
21
-134.312
0
LINE
8
BLACK
6
CONTINUOUS
10
68.888
20
-135.055
11
69.288
21
-135.455
0
LINE
8
BLACK
6
CONTINUOUS
10
69.288
20
-135.055
11
68.888
21
-135.455
0
LINE
8
BLACK
6
CONTINUOUS
10
70.3612
20
-128.172
11
70.7612
21
-128.572
0
LINE
8
BLACK
6
CONTINUOUS
10
70.7612
20
-128.172
11
70.3612
21
-128.572
0
LINE
8
BLACK
6
CONTINUOUS
10
70.539
20
-140.338
11
70.939
21
-140.738
0
LINE
8
BLACK
6
CONTINUOUS
10
70.939
20
-140.338
11
70.539
21
-140.738
0
LINE
8
BLACK
6
CONTINUOUS
10
71.301
20
-112.246
11
71.701
21
-112.646
0
LINE
8
BLACK
6
CONTINUOUS
10
71.701
20
-112.246
11
71.301
21
-112.646
0
LINE
8
BLACK
6
CONTINUOUS
10
72.3678
20
-141.481
11
72.7678
21
-141.881
0
LINE
8
BLACK
6
CONTINUOUS
10
72.7678
20
-141.481
11
72.3678
21
-141.881
0
LINE
8
BLACK
6
CONTINUOUS
10
72.444
20
-145.469
11
72.844
21
-145.869
0
LINE
8
BLACK
6
CONTINUOUS
10
72.844
20
-145.469
11
72.444
21
-145.869
0
LINE
8
BLACK
6
CONTINUOUS
10
73.714
20
-115.751
11
74.114
21
-116.151
0
LINE
8
BLACK
6
CONTINUOUS
10
74.114
20
-115.751
11
73.714
21
-116.151
0
LINE
8
BLACK
6
CONTINUOUS
10
73.714
20
-117.656
11
74.114
21
-118.056
0
LINE
8
BLACK
6
CONTINUOUS
10
74.114
20
-117.656
11
73.714
21
-118.056
0
LINE
8
BLACK
6
CONTINUOUS
10
74.6284
20
-121.331
11
75.0284
21
-121.731
0
LINE
8
BLACK
6
CONTINUOUS
10
75.0284
20
-121.331
11
74.6284
21
-121.731
0
LINE
8
BLACK
6
CONTINUOUS
10
74.6284
20
-122.431
11
75.0284
21
-122.831
0
LINE
8
BLACK
6
CONTINUOUS
10
75.0284
20
-122.431
11
74.6284
21
-122.831
0
LINE
8
BLACK
6
CONTINUOUS
10
74.6284
20
-123.531
11
75.0284
21
-123.931
0
LINE
8
BLACK
6
CONTINUOUS
10
75.0284
20
-123.531
11
74.6284
21
-123.931
0
LINE
8
BLACK
6
CONTINUOUS
10
75.6444
20
-108.258
11
76.0444
21
-108.658
0
LINE
8
BLACK
6
CONTINUOUS
10
76.0444
20
-108.258
11
75.6444
21
-108.658
0
LINE
8
BLACK
6
CONTINUOUS
10
75.6444
20
-110.099
11
76.0444
21
-110.499
0
LINE
8
BLACK
6
CONTINUOUS
10
76.0444
20
-110.099
11
75.6444
21
-110.499
0
LINE
8
BLACK
6
CONTINUOUS
10
76.0254
20
-114.227
11
76.4254
21
-114.627
0
LINE
8
BLACK
6
CONTINUOUS
10
76.4254
20
-114.227
11
76.0254
21
-114.627
0
LINE
8
BLACK
6
CONTINUOUS
10
77.2954
20
-108.258
11
77.6954
21
-108.658
0
LINE
8
BLACK
6
CONTINUOUS
10
77.6954
20
-108.258
11
77.2954
21
-108.658
0
LINE
8
BLACK
6
CONTINUOUS
10
77.7272
20
-144.898
11
78.1272
21
-145.298
0
LINE
8
BLACK
6
CONTINUOUS
10
78.1272
20
-144.898
11
77.7272
21
-145.298
0
LINE
8
BLACK
6
CONTINUOUS
10
77.7272
20
-148.898
11
78.1272
21
-149.298
0
LINE
8
BLACK
6
CONTINUOUS
10
78.1272
20
-148.898
11
77.7272
21
-149.298
0
LINE
8
BLACK
6
CONTINUOUS
10
78.921
20
-124.616
11
79.321
21
-125.016
0
LINE
8
BLACK
6
CONTINUOUS
10
79.321
20
-124.616
11
78.921
21
-125.016
0
LINE
8
BLACK
6
CONTINUOUS
10
78.921
20
-131.372
11
79.321
21
-131.772
0
LINE
8
BLACK
6
CONTINUOUS
10
79.321
20
-131.372
11
78.921
21
-131.772
0
LINE
8
BLACK
6
CONTINUOUS
10
78.921
20
-132.769
11
79.321
21
-133.169
0
LINE
8
BLACK
6
CONTINUOUS
10
79.321
20
-132.769
11
78.921
21
-133.169
0
LINE
8
BLACK
6
CONTINUOUS
10
78.921
20
-133.912
11
79.321
21
-134.312
0
LINE
8
BLACK
6
CONTINUOUS
10
79.321
20
-133.912
11
78.921
21
-134.312
0
LINE
8
BLACK
6
CONTINUOUS
10
78.921
20
-135.055
11
79.321
21
-135.455
0
LINE
8
BLACK
6
CONTINUOUS
10
79.321
20
-135.055
11
78.921
21
-135.455
0
LINE
8
BLACK
6
CONTINUOUS
10
79.1369
20
-108.258
11
79.5369
21
-108.658
0
LINE
8
BLACK
6
CONTINUOUS
10
79.5369
20
-108.258
11
79.1369
21
-108.658
0
LINE
8
BLACK
6
CONTINUOUS
10
79.302
20
-144.326
11
79.702
21
-144.726
0
LINE
8
BLACK
6
CONTINUOUS
10
79.702
20
-144.326
11
79.302
21
-144.726
0
LINE
8
BLACK
6
CONTINUOUS
10
79.302
20
-145.85
11
79.702
21
-146.25
0
LINE
8
BLACK
6
CONTINUOUS
10
79.702
20
-145.85
11
79.302
21
-146.25
0
LINE
8
BLACK
6
CONTINUOUS
10
79.81
20
-120.704
11
80.21
21
-121.104
0
LINE
8
BLACK
6
CONTINUOUS
10
80.21
20
-120.704
11
79.81
21
-121.104
0
LINE
8
BLACK
6
CONTINUOUS
10
81.0419
20
-108.258
11
81.4419
21
-108.658
0
LINE
8
BLACK
6
CONTINUOUS
10
81.4419
20
-108.258
11
81.0419
21
-108.658
0
LINE
8
BLACK
6
CONTINUOUS
10
81.0419
20
-110.036
11
81.4419
21
-110.436
0
LINE
8
BLACK
6
CONTINUOUS
10
81.4419
20
-110.036
11
81.0419
21
-110.436
0
LINE
8
BLACK
6
CONTINUOUS
10
81.08
20
-141.659
11
81.48
21
-142.059
0
LINE
8
BLACK
6
CONTINUOUS
10
81.48
20
-141.659
11
81.08
21
-142.059
0
LINE
8
BLACK
6
CONTINUOUS
10
82.2738
20
-114.125
11
82.6738
21
-114.525
0
LINE
8
BLACK
6
CONTINUOUS
10
82.6738
20
-114.125
11
82.2738
21
-114.525
0
LINE
8
BLACK
6
CONTINUOUS
10
82.5786
20
-143.081
11
82.9786
21
-143.481
0
LINE
8
BLACK
6
CONTINUOUS
10
82.9786
20
-143.081
11
82.5786
21
-143.481
0
LINE
8
BLACK
6
CONTINUOUS
10
83.112
20
-147.12
11
83.512
21
-147.52
0
LINE
8
BLACK
6
CONTINUOUS
10
83.512
20
-147.12
11
83.112
21
-147.52
0
LINE
8
BLACK
6
CONTINUOUS
10
84.001
20
-107.242
11
84.401
21
-107.642
0
LINE
8
BLACK
6
CONTINUOUS
10
84.401
20
-107.242
11
84.001
21
-107.642
0
LINE
8
BLACK
6
CONTINUOUS
10
84.001
20
-108.766
11
84.401
21
-109.166
0
LINE
8
BLACK
6
CONTINUOUS
10
84.401
20
-108.766
11
84.001
21
-109.166
0
LINE
8
BLACK
6
CONTINUOUS
10
84.001
20
-110.29
11
84.401
21
-110.69
0
LINE
8
BLACK
6
CONTINUOUS
10
84.401
20
-110.29
11
84.001
21
-110.69
0
LINE
8
BLACK
6
CONTINUOUS
10
84.001
20
-111.687
11
84.401
21
-112.087
0
LINE
8
BLACK
6
CONTINUOUS
10
84.401
20
-111.687
11
84.001
21
-112.087
0
LINE
8
BLACK
6
CONTINUOUS
10
84.4582
20
-142.954
11
84.8582
21
-143.354
0
LINE
8
BLACK
6
CONTINUOUS
10
84.8582
20
-142.954
11
84.4582
21
-143.354
0
LINE
8
BLACK
6
CONTINUOUS
10
84.8392
20
-121.331
11
85.2392
21
-121.731
0
LINE
8
BLACK
6
CONTINUOUS
10
85.2392
20
-121.331
11
84.8392
21
-121.731
0
LINE
8
BLACK
6
CONTINUOUS
10
84.8392
20
-122.431
11
85.2392
21
-122.831
0
LINE
8
BLACK
6
CONTINUOUS
10
85.2392
20
-122.431
11
84.8392
21
-122.831
0
LINE
8
BLACK
6
CONTINUOUS
10
84.8392
20
-123.531
11
85.2392
21
-123.931
0
LINE
8
BLACK
6
CONTINUOUS
10
85.2392
20
-123.531
11
84.8392
21
-123.931
0
LINE
8
BLACK
6
CONTINUOUS
10
85.398
20
-111.687
11
85.798
21
-112.087
0
LINE
8
BLACK
6
CONTINUOUS
10
85.798
20
-111.687
11
85.398
21
-112.087
0
LINE
8
BLACK
6
CONTINUOUS
10
85.652
20
-141.837
11
86.052
21
-142.237
0
LINE
8
BLACK
6
CONTINUOUS
10
86.052
20
-141.837
11
85.652
21
-142.237
0
LINE
8
BLACK
6
CONTINUOUS
10
86.287
20
-136.96
11
86.687
21
-137.36
0
LINE
8
BLACK
6
CONTINUOUS
10
86.687
20
-136.96
11
86.287
21
-137.36
0
LINE
8
BLACK
6
CONTINUOUS
10
86.795
20
-111.687
11
87.195
21
-112.087
0
LINE
8
BLACK
6
CONTINUOUS
10
87.195
20
-111.687
11
86.795
21
-112.087
0
LINE
8
BLACK
6
CONTINUOUS
10
87.176
20
-133.15
11
87.576
21
-133.55
0
LINE
8
BLACK
6
CONTINUOUS
10
87.576
20
-133.15
11
87.176
21
-133.55
0
LINE
8
BLACK
6
CONTINUOUS
10
87.176
20
-139.5
11
87.576
21
-139.9
0
LINE
8
BLACK
6
CONTINUOUS
10
87.576
20
-139.5
11
87.176
21
-139.9
0
LINE
8
BLACK
6
CONTINUOUS
10
87.43
20
-148.39
11
87.83
21
-148.79
0
LINE
8
BLACK
6
CONTINUOUS
10
87.83
20
-148.39
11
87.43
21
-148.79
0
LINE
8
BLACK
6
CONTINUOUS
10
88.065
20
-111.687
11
88.465
21
-112.087
0
LINE
8
BLACK
6
CONTINUOUS
10
88.465
20
-111.687
11
88.065
21
-112.087
0
LINE
8
BLACK
6
CONTINUOUS
10
88.192
20
-126.165
11
88.592
21
-126.565
0
LINE
8
BLACK
6
CONTINUOUS
10
88.592
20
-126.165
11
88.192
21
-126.565
0
LINE
8
BLACK
6
CONTINUOUS
10
88.827
20
-112.576
11
89.227
21
-112.976
0
LINE
8
BLACK
6
CONTINUOUS
10
89.227
20
-112.576
11
88.827
21
-112.976
0
LINE
8
BLACK
6
CONTINUOUS
10
89.843
20
-113.719
11
90.243
21
-114.119
0
LINE
8
BLACK
6
CONTINUOUS
10
90.243
20
-113.719
11
89.843
21
-114.119
0
LINE
8
BLACK
6
CONTINUOUS
10
90.351
20
-111.687
11
90.751
21
-112.087
0
LINE
8
BLACK
6
CONTINUOUS
10
90.751
20
-111.687
11
90.351
21
-112.087
0
LINE
8
BLACK
6
CONTINUOUS
10
90.859
20
-114.735
11
91.259
21
-115.135
0
LINE
8
BLACK
6
CONTINUOUS
10
91.259
20
-114.735
11
90.859
21
-115.135
0
LINE
8
BLACK
6
CONTINUOUS
10
91.367
20
-112.703
11
91.767
21
-113.103
0
LINE
8
BLACK
6
CONTINUOUS
10
91.767
20
-112.703
11
91.367
21
-113.103
0
LINE
8
BLACK
6
CONTINUOUS
10
91.494
20
-111.687
11
91.894
21
-112.087
0
LINE
8
BLACK
6
CONTINUOUS
10
91.894
20
-111.687
11
91.494
21
-112.087
0
LINE
8
BLACK
6
CONTINUOUS
10
92.002
20
-115.878
11
92.402
21
-116.278
0
LINE
8
BLACK
6
CONTINUOUS
10
92.402
20
-115.878
11
92.002
21
-116.278
0
LINE
8
BLACK
6
CONTINUOUS
10
92.002
20
-117.148
11
92.402
21
-117.548
0
LINE
8
BLACK
6
CONTINUOUS
10
92.402
20
-117.148
11
92.002
21
-117.548
0
LINE
8
BLACK
6
CONTINUOUS
10
92.51
20
-113.846
11
92.91
21
-114.246
0
LINE
8
BLACK
6
CONTINUOUS
10
92.91
20
-113.846
11
92.51
21
-114.246
0
LINE
8
BLACK
6
CONTINUOUS
10
92.51
20
-118.545
11
92.91
21
-118.945
0
LINE
8
BLACK
6
CONTINUOUS
10
92.91
20
-118.545
11
92.51
21
-118.945
0
LINE
8
BLACK
6
CONTINUOUS
10
93.399
20
-114.735
11
93.799
21
-115.135
0
LINE
8
BLACK
6
CONTINUOUS
10
93.799
20
-114.735
11
93.399
21
-115.135
0
LINE
8
BLACK
6
CONTINUOUS
10
93.78
20
-140.262
11
94.18
21
-140.662
0
LINE
8
BLACK
6
CONTINUOUS
10
94.18
20
-140.262
11
93.78
21
-140.662
0
LINE
8
BLACK
6
CONTINUOUS
10
94.161
20
-138.23
11
94.561
21
-138.63
0
LINE
8
BLACK
6
CONTINUOUS
10
94.561
20
-138.23
11
94.161
21
-138.63
0
LINE
8
BLACK
6
CONTINUOUS
10
94.288
20
-115.878
11
94.688
21
-116.278
0
LINE
8
BLACK
6
CONTINUOUS
10
94.688
20
-115.878
11
94.288
21
-116.278
0
LINE
8
BLACK
6
CONTINUOUS
10
94.288
20
-118.545
11
94.688
21
-118.945
0
LINE
8
BLACK
6
CONTINUOUS
10
94.688
20
-118.545
11
94.288
21
-118.945
0
LINE
8
BLACK
6
CONTINUOUS
10
94.415
20
-123.625
11
94.815
21
-124.025
0
LINE
8
BLACK
6
CONTINUOUS
10
94.815
20
-123.625
11
94.415
21
-124.025
0
LINE
8
BLACK
6
CONTINUOUS
10
94.669
20
-117.148
11
95.069
21
-117.548
0
LINE
8
BLACK
6
CONTINUOUS
10
95.069
20
-117.148
11
94.669
21
-117.548
0
LINE
8
BLACK
6
CONTINUOUS
10
94.678
20
-113.973
11
95.078
21
-114.373
0
LINE
8
BLACK
6
CONTINUOUS
10
95.078
20
-113.973
11
94.678
21
-114.373
0
LINE
8
BLACK
6
CONTINUOUS
10
96.378
20
-113.973
11
96.778
21
-114.373
0
LINE
8
BLACK
6
CONTINUOUS
10
96.778
20
-113.973
11
96.378
21
-114.373
0
LINE
8
BLACK
6
CONTINUOUS
10
96.955
20
-139.525
11
97.355
21
-139.925
0
LINE
8
BLACK
6
CONTINUOUS
10
97.355
20
-139.525
11
96.955
21
-139.925
0
LINE
8
BLACK
6
CONTINUOUS
10
96.955
20
-141.075
11
97.355
21
-141.475
0
LINE
8
BLACK
6
CONTINUOUS
10
97.355
20
-141.075
11
96.955
21
-141.475
0
LINE
8
BLACK
6
CONTINUOUS
10
96.955
20
-142.599
11
97.355
21
-142.999
0
LINE
8
BLACK
6
CONTINUOUS
10
97.355
20
-142.599
11
96.955
21
-142.999
0
LINE
8
BLACK
6
CONTINUOUS
10
97.844
20
-122.228
11
98.244
21
-122.628
0
LINE
8
BLACK
6
CONTINUOUS
10
98.244
20
-122.228
11
97.844
21
-122.628
0
LINE
8
BLACK
6
CONTINUOUS
10
98.078
20
-113.973
11
98.478
21
-114.373
0
LINE
8
BLACK
6
CONTINUOUS
10
98.478
20
-113.973
11
98.078
21
-114.373
0
LINE
8
BLACK
6
CONTINUOUS
10
98.479
20
-139.551
11
98.879
21
-139.951
0
LINE
8
BLACK
6
CONTINUOUS
10
98.879
20
-139.551
11
98.479
21
-139.951
0
LINE
8
BLACK
6
CONTINUOUS
10
98.479
20
-141.1
11
98.879
21
-141.5
0
LINE
8
BLACK
6
CONTINUOUS
10
98.879
20
-141.1
11
98.479
21
-141.5
0
LINE
8
BLACK
6
CONTINUOUS
10
98.479
20
-142.624
11
98.879
21
-143.024
0
LINE
8
BLACK
6
CONTINUOUS
10
98.879
20
-142.624
11
98.479
21
-143.024
0
LINE
8
BLACK
6
CONTINUOUS
10
99.778
20
-113.973
11
100.178
21
-114.373
0
LINE
8
BLACK
6
CONTINUOUS
10
100.178
20
-113.973
11
99.778
21
-114.373
0
LINE
8
BLACK
6
CONTINUOUS
10
99.9776
20
-139.551
11
100.378
21
-139.951
0
LINE
8
BLACK
6
CONTINUOUS
10
100.378
20
-139.551
11
99.9776
21
-139.951
0
LINE
8
BLACK
6
CONTINUOUS
10
99.9776
20
-141.1
11
100.378
21
-141.5
0
LINE
8
BLACK
6
CONTINUOUS
10
100.378
20
-141.1
11
99.9776
21
-141.5
0
LINE
8
BLACK
6
CONTINUOUS
10
99.9776
20
-142.624
11
100.378
21
-143.024
0
LINE
8
BLACK
6
CONTINUOUS
10
100.378
20
-142.624
11
99.9776
21
-143.024
0
LINE
8
BLACK
6
CONTINUOUS
10
101.4
20
-137.595
11
101.8
21
-137.995
0
LINE
8
BLACK
6
CONTINUOUS
10
101.8
20
-137.595
11
101.4
21
-137.995
0
LINE
8
BLACK
6
CONTINUOUS
10
101.478
20
-113.973
11
101.878
21
-114.373
0
LINE
8
BLACK
6
CONTINUOUS
10
101.878
20
-113.973
11
101.478
21
-114.373
0
LINE
8
BLACK
6
CONTINUOUS
10
103.178
20
-113.973
11
103.578
21
-114.373
0
LINE
8
BLACK
6
CONTINUOUS
10
103.578
20
-113.973
11
103.178
21
-114.373
0
LINE
8
BLACK
6
CONTINUOUS
10
103.534
20
-133.175
11
103.934
21
-133.575
0
LINE
8
BLACK
6
CONTINUOUS
10
103.934
20
-133.175
11
103.534
21
-133.575
0
LINE
8
BLACK
6
CONTINUOUS
10
104.829
20
-136.96
11
105.229
21
-137.36
0
LINE
8
BLACK
6
CONTINUOUS
10
105.229
20
-136.96
11
104.829
21
-137.36
0
LINE
8
BLACK
6
CONTINUOUS
10
104.838
20
-113.973
11
105.238
21
-114.373
0
LINE
8
BLACK
6
CONTINUOUS
10
105.238
20
-113.973
11
104.838
21
-114.373
0
LINE
8
BLACK
6
CONTINUOUS
10
105.007
20
-147.171
11
105.407
21
-147.571
0
LINE
8
BLACK
6
CONTINUOUS
10
105.407
20
-147.171
11
105.007
21
-147.571
0
LINE
8
BLACK
6
CONTINUOUS
10
105.108
20
-148.441
11
105.508
21
-148.841
0
LINE
8
BLACK
6
CONTINUOUS
10
105.508
20
-148.441
11
105.108
21
-148.841
0
LINE
8
BLACK
6
CONTINUOUS
10
106.538
20
-113.973
11
106.938
21
-114.373
0
LINE
8
BLACK
6
CONTINUOUS
10
106.938
20
-113.973
11
106.538
21
-114.373
0
LINE
8
BLACK
6
CONTINUOUS
10
108.238
20
-113.973
11
108.638
21
-114.373
0
LINE
8
BLACK
6
CONTINUOUS
10
108.638
20
-113.973
11
108.238
21
-114.373
0
LINE
8
BLACK
6
CONTINUOUS
10
109.071
20
-148.644
11
109.471
21
-149.044
0
LINE
8
BLACK
6
CONTINUOUS
10
109.471
20
-148.644
11
109.071
21
-149.044
0
LINE
8
BLACK
6
CONTINUOUS
10
109.938
20
-113.973
11
110.338
21
-114.373
0
LINE
8
BLACK
6
CONTINUOUS
10
110.338
20
-113.973
11
109.938
21
-114.373
0
LINE
8
BLACK
6
CONTINUOUS
10
110.925
20
-145.85
11
111.325
21
-146.25
0
LINE
8
BLACK
6
CONTINUOUS
10
111.325
20
-145.85
11
110.925
21
-146.25
0
LINE
8
BLACK
6
CONTINUOUS
10
111.638
20
-113.973
11
112.038
21
-114.373
0
LINE
8
BLACK
6
CONTINUOUS
10
112.038
20
-113.973
11
111.638
21
-114.373
0
LINE
8
BLACK
6
CONTINUOUS
10
112.83
20
-133.379
11
113.23
21
-133.779
0
LINE
8
BLACK
6
CONTINUOUS
10
113.23
20
-133.379
11
112.83
21
-133.779
0
LINE
8
BLACK
6
CONTINUOUS
10
113.338
20
-113.973
11
113.738
21
-114.373
0
LINE
8
BLACK
6
CONTINUOUS
10
113.738
20
-113.973
11
113.338
21
-114.373
0
LINE
8
BLACK
6
CONTINUOUS
10
114.862
20
-113.973
11
115.262
21
-114.373
0
LINE
8
BLACK
6
CONTINUOUS
10
115.262
20
-113.973
11
114.862
21
-114.373
0
CIRCLE
8
BLACK
10
57.0782
20
-118.743
40
0.325
0
LINE
8
BLACK
6
CONTINUOUS
10
57.1782
20
-118.418
11
56.9782
21
-118.418
0
ARC
8
BLACK
10
56.9782
20
-118.743
40
0.325
50
450
51
630
0
LINE
8
BLACK
6
CONTINUOUS
10
56.9782
20
-119.068
11
57.1782
21
-119.068
0
ARC
8
BLACK
10
57.1782
20
-118.743
40
0.325
50
270
51
450
0
CIRCLE
8
BLACK
10
57.0782
20
-123.593
40
0.325
0
LINE
8
BLACK
6
CONTINUOUS
10
57.1782
20
-123.268
11
56.9782
21
-123.268
0
ARC
8
BLACK
10
56.9782
20
-123.593
40
0.325
50
450
51
630
0
LINE
8
BLACK
6
CONTINUOUS
10
56.9782
20
-123.918
11
57.1782
21
-123.918
0
ARC
8
BLACK
10
57.1782
20
-123.593
40
0.325
50
270
51
450
0
LINE
8
BLACK
6
CONTINUOUS
10
54.1782
20
-117.153
11
54.1782
21
-117.983
0
LINE
8
BLACK
6
CONTINUOUS
10
53.7632
20
-117.568
11
54.5932
21
-117.568
0
LINE
8
BLACK
6
CONTINUOUS
10
54.5132
20
-117.153
11
53.8432
21
-117.153
0
ARC
8
BLACK
10
53.8432
20
-117.568
40
0.415
50
450
51
630
0
LINE
8
BLACK
6
CONTINUOUS
10
53.8432
20
-117.983
11
54.5132
21
-117.983
0
ARC
8
BLACK
10
54.5132
20
-117.568
40
0.415
50
270
51
450
0
LINE
8
BLACK
6
CONTINUOUS
10
54.1782
20
-124.353
11
54.1782
21
-125.183
0
LINE
8
BLACK
6
CONTINUOUS
10
53.7632
20
-124.768
11
54.5932
21
-124.768
0
LINE
8
BLACK
6
CONTINUOUS
10
54.5132
20
-124.353
11
53.8432
21
-124.353
0
ARC
8
BLACK
10
53.8432
20
-124.768
40
0.415
50
450
51
630
0
LINE
8
BLACK
6
CONTINUOUS
10
53.8432
20
-125.183
11
54.5132
21
-125.183
0
ARC
8
BLACK
10
54.5132
20
-124.768
40
0.415
50
270
51
450
0
LINE
8
BLACK
6
CONTINUOUS
10
59.6872
20
-136.371
11
59.6872
21
-135.742
0
LINE
8
BLACK
6
CONTINUOUS
10
59.6872
20
-135.742
11
59.0578
21
-135.742
0
LINE
8
BLACK
6
CONTINUOUS
10
59.0578
20
-135.742
11
59.0578
21
-136.371
0
LINE
8
BLACK
6
CONTINUOUS
10
59.0578
20
-136.371
11
59.6872
21
-136.371
0
LINE
8
BLACK
6
CONTINUOUS
10
59.6872
20
-138.411
11
59.6872
21
-137.782
0
LINE
8
BLACK
6
CONTINUOUS
10
59.6872
20
-137.782
11
59.0578
21
-137.782
0
LINE
8
BLACK
6
CONTINUOUS
10
59.0578
20
-137.782
11
59.0578
21
-138.411
0
LINE
8
BLACK
6
CONTINUOUS
10
59.0578
20
-138.411
11
59.6872
21
-138.411
0
LINE
8
BLACK
6
CONTINUOUS
10
59.6872
20
-140.451
11
59.6872
21
-139.822
0
LINE
8
BLACK
6
CONTINUOUS
10
59.6872
20
-139.822
11
59.0578
21
-139.822
0
LINE
8
BLACK
6
CONTINUOUS
10
59.0578
20
-139.822
11
59.0578
21
-140.451
0
LINE
8
BLACK
6
CONTINUOUS
10
59.0578
20
-140.451
11
59.6872
21
-140.451
0
LINE
8
BLACK
6
CONTINUOUS
10
59.6872
20
-142.491
11
59.6872
21
-141.862
0
LINE
8
BLACK
6
CONTINUOUS
10
59.6872
20
-141.862
11
59.0578
21
-141.862
0
LINE
8
BLACK
6
CONTINUOUS
10
59.0578
20
-141.862
11
59.0578
21
-142.491
0
LINE
8
BLACK
6
CONTINUOUS
10
59.0578
20
-142.491
11
59.6872
21
-142.491
0
LINE
8
BLACK
6
CONTINUOUS
10
61.4672
20
-135.351
11
61.4672
21
-134.722
0
LINE
8
BLACK
6
CONTINUOUS
10
61.4672
20
-134.722
11
60.8378
21
-134.722
0
LINE
8
BLACK
6
CONTINUOUS
10
60.8378
20
-134.722
11
60.8378
21
-135.351
0
LINE
8
BLACK
6
CONTINUOUS
10
60.8378
20
-135.351
11
61.4672
21
-135.351
0
LINE
8
BLACK
6
CONTINUOUS
10
61.4672
20
-137.391
11
61.4672
21
-136.762
0
LINE
8
BLACK
6
CONTINUOUS
10
61.4672
20
-136.762
11
60.8378
21
-136.762
0
LINE
8
BLACK
6
CONTINUOUS
10
60.8378
20
-136.762
11
60.8378
21
-137.391
0
LINE
8
BLACK
6
CONTINUOUS
10
60.8378
20
-137.391
11
61.4672
21
-137.391
0
LINE
8
BLACK
6
CONTINUOUS
10
61.4672
20
-139.431
11
61.4672
21
-138.802
0
LINE
8
BLACK
6
CONTINUOUS
10
61.4672
20
-138.802
11
60.8378
21
-138.802
0
LINE
8
BLACK
6
CONTINUOUS
10
60.8378
20
-138.802
11
60.8378
21
-139.431
0
LINE
8
BLACK
6
CONTINUOUS
10
60.8378
20
-139.431
11
61.4672
21
-139.431
0
LINE
8
BLACK
6
CONTINUOUS
10
61.4672
20
-141.471
11
61.4672
21
-140.842
0
LINE
8
BLACK
6
CONTINUOUS
10
61.4672
20
-140.842
11
60.8378
21
-140.842
0
LINE
8
BLACK
6
CONTINUOUS
10
60.8378
20
-140.842
11
60.8378
21
-141.471
0
LINE
8
BLACK
6
CONTINUOUS
10
60.8378
20
-141.471
11
61.4672
21
-141.471
0
LINE
8
BLACK
6
CONTINUOUS
10
66.2772
20
-132.061
11
66.2772
21
-131.432
0
LINE
8
BLACK
6
CONTINUOUS
10
66.2772
20
-131.432
11
65.6478
21
-131.432
0
LINE
8
BLACK
6
CONTINUOUS
10
65.6478
20
-131.432
11
65.6478
21
-132.061
0
LINE
8
BLACK
6
CONTINUOUS
10
65.6478
20
-132.061
11
66.2772
21
-132.061
0
LINE
8
BLACK
6
CONTINUOUS
10
66.2772
20
-134.351
11
66.2772
21
-133.722
0
LINE
8
BLACK
6
CONTINUOUS
10
66.2772
20
-133.722
11
65.6478
21
-133.722
0
LINE
8
BLACK
6
CONTINUOUS
10
65.6478
20
-133.722
11
65.6478
21
-134.351
0
LINE
8
BLACK
6
CONTINUOUS
10
65.6478
20
-134.351
11
66.2772
21
-134.351
0
LINE
8
BLACK
6
CONTINUOUS
10
66.2772
20
-143.491
11
66.2772
21
-142.862
0
LINE
8
BLACK
6
CONTINUOUS
10
66.2772
20
-142.862
11
65.6478
21
-142.862
0
LINE
8
BLACK
6
CONTINUOUS
10
65.6478
20
-142.862
11
65.6478
21
-143.491
0
LINE
8
BLACK
6
CONTINUOUS
10
65.6478
20
-143.491
11
66.2772
21
-143.491
0
LINE
8
BLACK
6
CONTINUOUS
10
66.2772
20
-145.781
11
66.2772
21
-145.152
0
LINE
8
BLACK
6
CONTINUOUS
10
66.2772
20
-145.152
11
65.6478
21
-145.152
0
LINE
8
BLACK
6
CONTINUOUS
10
65.6478
20
-145.152
11
65.6478
21
-145.781
0
LINE
8
BLACK
6
CONTINUOUS
10
65.6478
20
-145.781
11
66.2772
21
-145.781
0
LINE
8
BLACK
6
CONTINUOUS
10
60.706
20
-112.26
11
61.206
21
-111.76
0
LINE
8
BLACK
6
CONTINUOUS
10
61.206
20
-111.76
11
60.706
21
-111.26
0
LINE
8
BLACK
6
CONTINUOUS
10
60.706
20
-111.26
11
60.206
21
-111.76
0
LINE
8
BLACK
6
CONTINUOUS
10
60.206
20
-111.76
11
60.706
21
-112.26
0
LINE
8
BLACK
6
CONTINUOUS
10
60.706
20
-114.8
11
61.206
21
-114.3
0
LINE
8
BLACK
6
CONTINUOUS
10
61.206
20
-114.3
11
60.706
21
-113.8
0
LINE
8
BLACK
6
CONTINUOUS
10
60.706
20
-113.8
11
60.206
21
-114.3
0
LINE
8
BLACK
6
CONTINUOUS
10
60.206
20
-114.3
11
60.706
21
-114.8
0
LINE
8
BLACK
6
CONTINUOUS
10
63.246
20
-112.26
11
63.746
21
-111.76
0
LINE
8
BLACK
6
CONTINUOUS
10
63.746
20
-111.76
11
63.246
21
-111.26
0
LINE
8
BLACK
6
CONTINUOUS
10
63.246
20
-111.26
11
62.746
21
-111.76
0
LINE
8
BLACK
6
CONTINUOUS
10
62.746
20
-111.76
11
63.246
21
-112.26
0
LINE
8
BLACK
6
CONTINUOUS
10
63.246
20
-114.8
11
63.746
21
-114.3
0
LINE
8
BLACK
6
CONTINUOUS
10
63.746
20
-114.3
11
63.246
21
-113.8
0
LINE
8
BLACK
6
CONTINUOUS
10
63.246
20
-113.8
11
62.746
21
-114.3
0
LINE
8
BLACK
6
CONTINUOUS
10
62.746
20
-114.3
11
63.246
21
-114.8
0
LINE
8
BLACK
6
CONTINUOUS
10
73.1266
20
-151.986
11
73.6266
21
-151.486
0
LINE
8
BLACK
6
CONTINUOUS
10
73.6266
20
-151.486
11
73.1266
21
-150.986
0
LINE
8
BLACK
6
CONTINUOUS
10
73.1266
20
-150.986
11
72.6266
21
-151.486
0
LINE
8
BLACK
6
CONTINUOUS
10
72.6266
20
-151.486
11
73.1266
21
-151.986
0
LINE
8
BLACK
6
CONTINUOUS
10
73.1266
20
-154.526
11
73.6266
21
-154.026
0
LINE
8
BLACK
6
CONTINUOUS
10
73.6266
20
-154.026
11
73.1266
21
-153.526
0
LINE
8
BLACK
6
CONTINUOUS
10
73.1266
20
-153.526
11
72.6266
21
-154.026
0
LINE
8
BLACK
6
CONTINUOUS
10
72.6266
20
-154.026
11
73.1266
21
-154.526
0
LINE
8
BLACK
6
CONTINUOUS
10
75.6666
20
-151.986
11
76.1666
21
-151.486
0
LINE
8
BLACK
6
CONTINUOUS
10
76.1666
20
-151.486
11
75.6666
21
-150.986
0
LINE
8
BLACK
6
CONTINUOUS
10
75.6666
20
-150.986
11
75.1666
21
-151.486
0
LINE
8
BLACK
6
CONTINUOUS
10
75.1666
20
-151.486
11
75.6666
21
-151.986
0
LINE
8
BLACK
6
CONTINUOUS
10
75.6666
20
-154.526
11
76.1666
21
-154.026
0
LINE
8
BLACK
6
CONTINUOUS
10
76.1666
20
-154.026
11
75.6666
21
-153.526
0
LINE
8
BLACK
6
CONTINUOUS
10
75.6666
20
-153.526
11
75.1666
21
-154.026
0
LINE
8
BLACK
6
CONTINUOUS
10
75.1666
20
-154.026
11
75.6666
21
-154.526
0
LINE
8
BLACK
6
CONTINUOUS
10
89.0524
20
-110.533
11
89.5524
21
-110.033
0
LINE
8
BLACK
6
CONTINUOUS
10
89.5524
20
-110.033
11
89.0524
21
-109.533
0
LINE
8
BLACK
6
CONTINUOUS
10
89.0524
20
-109.533
11
88.5524
21
-110.033
0
LINE
8
BLACK
6
CONTINUOUS
10
88.5524
20
-110.033
11
89.0524
21
-110.533
0
LINE
8
BLACK
6
CONTINUOUS
10
59.4925
20
-129.576
11
61.2925
21
-131.376
0
LINE
8
BLACK
6
CONTINUOUS
10
61.2925
20
-129.576
11
59.4925
21
-131.376
0
CIRCLE
8
BLACK
10
60.3925
20
-130.476
40
0.9
0
LINE
8
BLACK
6
CONTINUOUS
10
59.4925
20
-145.837
11
61.2925
21
-147.636
0
LINE
8
BLACK
6
CONTINUOUS
10
61.2925
20
-145.837
11
59.4925
21
-147.636
0
CIRCLE
8
BLACK
10
60.3925
20
-146.737
40
0.9
0
LINE
8
BLACK
6
CONTINUOUS
10
55.1582
20
-159.453
11
55.1582
21
-157.453
0
LINE
8
BLACK
6
CONTINUOUS
10
55.1582
20
-157.453
11
55.6344
21
-157.453
0
LINE
8
BLACK
6
CONTINUOUS
10
55.6344
20
-157.453
11
55.9201
21
-157.548
0
LINE
8
BLACK
6
CONTINUOUS
10
55.9201
20
-157.548
11
56.1106
21
-157.738
0
LINE
8
BLACK
6
CONTINUOUS
10
56.1106
20
-157.738
11
56.2058
21
-157.929
0
LINE
8
BLACK
6
CONTINUOUS
10
56.2058
20
-157.929
11
56.301
21
-158.31
0
LINE
8
BLACK
6
CONTINUOUS
10
56.301
20
-158.31
11
56.301
21
-158.596
0
LINE
8
BLACK
6
CONTINUOUS
10
56.301
20
-158.596
11
56.2058
21
-158.977
0
LINE
8
BLACK
6
CONTINUOUS
10
56.2058
20
-158.977
11
56.1106
21
-159.167
0
LINE
8
BLACK
6
CONTINUOUS
10
56.1106
20
-159.167
11
55.9201
21
-159.358
0
LINE
8
BLACK
6
CONTINUOUS
10
55.9201
20
-159.358
11
55.6344
21
-159.453
0
LINE
8
BLACK
6
CONTINUOUS
10
55.6344
20
-159.453
11
55.1582
21
-159.453
0
LINE
8
BLACK
6
CONTINUOUS
10
57.1582
20
-159.453
11
57.1582
21
-158.119
0
LINE
8
BLACK
6
CONTINUOUS
10
57.1582
20
-158.5
11
57.2534
21
-158.31
0
LINE
8
BLACK
6
CONTINUOUS
10
57.2534
20
-158.31
11
57.3487
21
-158.215
0
LINE
8
BLACK
6
CONTINUOUS
10
57.3487
20
-158.215
11
57.5391
21
-158.119
0
LINE
8
BLACK
6
CONTINUOUS
10
57.5391
20
-158.119
11
57.7296
21
-158.119
0
LINE
8
BLACK
6
CONTINUOUS
10
58.3963
20
-159.453
11
58.3963
21
-158.119
0
LINE
8
BLACK
6
CONTINUOUS
10
58.3963
20
-157.453
11
58.301
21
-157.548
0
LINE
8
BLACK
6
CONTINUOUS
10
58.301
20
-157.548
11
58.3963
21
-157.643
0
LINE
8
BLACK
6
CONTINUOUS
10
58.3963
20
-157.643
11
58.4915
21
-157.548
0
LINE
8
BLACK
6
CONTINUOUS
10
58.4915
20
-157.548
11
58.3963
21
-157.453
0
LINE
8
BLACK
6
CONTINUOUS
10
58.3963
20
-157.453
11
58.3963
21
-157.643
0
LINE
8
BLACK
6
CONTINUOUS
10
59.6344
20
-159.453
11
59.4439
21
-159.358
0
LINE
8
BLACK
6
CONTINUOUS
10
59.4439
20
-159.358
11
59.3487
21
-159.167
0
LINE
8
BLACK
6
CONTINUOUS
10
59.3487
20
-159.167
11
59.3487
21
-157.453
0
LINE
8
BLACK
6
CONTINUOUS
10
60.682
20
-159.453
11
60.4915
21
-159.358
0
LINE
8
BLACK
6
CONTINUOUS
10
60.4915
20
-159.358
11
60.3963
21
-159.167
0
LINE
8
BLACK
6
CONTINUOUS
10
60.3963
20
-159.167
11
60.3963
21
-157.453
0
LINE
8
BLACK
6
CONTINUOUS
10
62.6439
20
-159.453
11
62.6439
21
-157.453
0
LINE
8
BLACK
6
CONTINUOUS
10
62.6439
20
-157.453
11
63.3106
21
-158.881
0
LINE
8
BLACK
6
CONTINUOUS
10
63.3106
20
-158.881
11
63.9772
21
-157.453
0
LINE
8
BLACK
6
CONTINUOUS
10
63.9772
20
-157.453
11
63.9772
21
-159.453
0
LINE
8
BLACK
6
CONTINUOUS
10
65.7868
20
-159.453
11
65.7868
21
-158.405
0
LINE
8
BLACK
6
CONTINUOUS
10
65.7868
20
-158.405
11
65.6915
21
-158.215
0
LINE
8
BLACK
6
CONTINUOUS
10
65.6915
20
-158.215
11
65.501
21
-158.119
0
LINE
8
BLACK
6
CONTINUOUS
10
65.501
20
-158.119
11
65.1201
21
-158.119
0
LINE
8
BLACK
6
CONTINUOUS
10
65.1201
20
-158.119
11
64.9296
21
-158.215
0
LINE
8
BLACK
6
CONTINUOUS
10
65.7868
20
-159.358
11
65.5963
21
-159.453
0
LINE
8
BLACK
6
CONTINUOUS
10
65.5963
20
-159.453
11
65.1201
21
-159.453
0
LINE
8
BLACK
6
CONTINUOUS
10
65.1201
20
-159.453
11
64.9296
21
-159.358
0
LINE
8
BLACK
6
CONTINUOUS
10
64.9296
20
-159.358
11
64.8344
21
-159.167
0
LINE
8
BLACK
6
CONTINUOUS
10
64.8344
20
-159.167
11
64.8344
21
-158.977
0
LINE
8
BLACK
6
CONTINUOUS
10
64.8344
20
-158.977
11
64.9296
21
-158.786
0
LINE
8
BLACK
6
CONTINUOUS
10
64.9296
20
-158.786
11
65.1201
21
-158.691
0
LINE
8
BLACK
6
CONTINUOUS
10
65.1201
20
-158.691
11
65.5963
21
-158.691
0
LINE
8
BLACK
6
CONTINUOUS
10
65.5963
20
-158.691
11
65.7868
21
-158.596
0
LINE
8
BLACK
6
CONTINUOUS
10
66.7391
20
-158.119
11
66.7391
21
-160.119
0
LINE
8
BLACK
6
CONTINUOUS
10
66.7391
20
-158.215
11
66.9296
21
-158.119
0
LINE
8
BLACK
6
CONTINUOUS
10
66.9296
20
-158.119
11
67.3106
21
-158.119
0
LINE
8
BLACK
6
CONTINUOUS
10
67.3106
20
-158.119
11
67.501
21
-158.215
0
LINE
8
BLACK
6
CONTINUOUS
10
67.501
20
-158.215
11
67.5963
21
-158.31
0
LINE
8
BLACK
6
CONTINUOUS
10
67.5963
20
-158.31
11
67.6915
21
-158.5
0
LINE
8
BLACK
6
CONTINUOUS
10
67.6915
20
-158.5
11
67.6915
21
-159.072
0
LINE
8
BLACK
6
CONTINUOUS
10
67.6915
20
-159.072
11
67.5963
21
-159.262
0
LINE
8
BLACK
6
CONTINUOUS
10
67.5963
20
-159.262
11
67.501
21
-159.358
0
LINE
8
BLACK
6
CONTINUOUS
10
67.501
20
-159.358
11
67.3106
21
-159.453
0
LINE
8
BLACK
6
CONTINUOUS
10
67.3106
20
-159.453
11
66.9296
21
-159.453
0
LINE
8
BLACK
6
CONTINUOUS
10
66.9296
20
-159.453
11
66.7391
21
-159.358
0
LINE
8
BLACK
6
CONTINUOUS
10
68.5487
20
-159.262
11
68.6439
21
-159.358
0
LINE
8
BLACK
6
CONTINUOUS
10
68.6439
20
-159.358
11
68.5487
21
-159.453
0
LINE
8
BLACK
6
CONTINUOUS
10
68.5487
20
-159.453
11
68.4534
21
-159.358
0
LINE
8
BLACK
6
CONTINUOUS
10
68.4534
20
-159.358
11
68.5487
21
-159.262
0
LINE
8
BLACK
6
CONTINUOUS
10
68.5487
20
-159.262
11
68.5487
21
-159.453
0
LINE
8
BLACK
6
CONTINUOUS
10
68.5487
20
-158.215
11
68.6439
21
-158.31
0
LINE
8
BLACK
6
CONTINUOUS
10
68.6439
20
-158.31
11
68.5487
21
-158.405
0
LINE
8
BLACK
6
CONTINUOUS
10
68.5487
20
-158.405
11
68.4534
21
-158.31
0
LINE
8
BLACK
6
CONTINUOUS
10
68.4534
20
-158.31
11
68.5487
21
-158.215
0
LINE
8
BLACK
6
CONTINUOUS
10
68.5487
20
-158.215
11
68.5487
21
-158.405
0
LINE
8
BLACK
6
CONTINUOUS
10
52.282
20
-162.718
11
52.682
21
-163.118
0
LINE
8
BLACK
6
CONTINUOUS
10
52.682
20
-162.718
11
52.282
21
-163.118
0
LINE
8
BLACK
6
CONTINUOUS
10
55.5391
20
-161.653
11
55.7296
21
-161.653
0
LINE
8
BLACK
6
CONTINUOUS
10
55.7296
20
-161.653
11
55.9201
21
-161.748
0
LINE
8
BLACK
6
CONTINUOUS
10
55.9201
20
-161.748
11
56.0153
21
-161.843
0
LINE
8
BLACK
6
CONTINUOUS
10
56.0153
20
-161.843
11
56.1106
21
-162.034
0
LINE
8
BLACK
6
CONTINUOUS
10
56.1106
20
-162.034
11
56.2058
21
-162.415
0
LINE
8
BLACK
6
CONTINUOUS
10
56.2058
20
-162.415
11
56.2058
21
-162.891
0
LINE
8
BLACK
6
CONTINUOUS
10
56.2058
20
-162.891
11
56.1106
21
-163.272
0
LINE
8
BLACK
6
CONTINUOUS
10
56.1106
20
-163.272
11
56.0153
21
-163.462
0
LINE
8
BLACK
6
CONTINUOUS
10
56.0153
20
-163.462
11
55.9201
21
-163.558
0
LINE
8
BLACK
6
CONTINUOUS
10
55.9201
20
-163.558
11
55.7296
21
-163.653
0
LINE
8
BLACK
6
CONTINUOUS
10
55.7296
20
-163.653
11
55.5391
21
-163.653
0
LINE
8
BLACK
6
CONTINUOUS
10
55.5391
20
-163.653
11
55.3487
21
-163.558
0
LINE
8
BLACK
6
CONTINUOUS
10
55.3487
20
-163.558
11
55.2534
21
-163.462
0
LINE
8
BLACK
6
CONTINUOUS
10
55.2534
20
-163.462
11
55.1582
21
-163.272
0
LINE
8
BLACK
6
CONTINUOUS
10
55.1582
20
-163.272
11
55.063
21
-162.891
0
LINE
8
BLACK
6
CONTINUOUS
10
55.063
20
-162.891
11
55.063
21
-162.415
0
LINE
8
BLACK
6
CONTINUOUS
10
55.063
20
-162.415
11
55.1582
21
-162.034
0
LINE
8
BLACK
6
CONTINUOUS
10
55.1582
20
-162.034
11
55.2534
21
-161.843
0
LINE
8
BLACK
6
CONTINUOUS
10
55.2534
20
-161.843
11
55.3487
21
-161.748
0
LINE
8
BLACK
6
CONTINUOUS
10
55.3487
20
-161.748
11
55.5391
21
-161.653
0
LINE
8
BLACK
6
CONTINUOUS
10
57.063
20
-163.462
11
57.1582
21
-163.558
0
LINE
8
BLACK
6
CONTINUOUS
10
57.1582
20
-163.558
11
57.063
21
-163.653
0
LINE
8
BLACK
6
CONTINUOUS
10
57.063
20
-163.653
11
56.9677
21
-163.558
0
LINE
8
BLACK
6
CONTINUOUS
10
56.9677
20
-163.558
11
57.063
21
-163.462
0
LINE
8
BLACK
6
CONTINUOUS
10
57.063
20
-163.462
11
57.063
21
-163.653
0
LINE
8
BLACK
6
CONTINUOUS
10
58.8725
20
-162.319
11
58.8725
21
-163.653
0
LINE
8
BLACK
6
CONTINUOUS
10
58.3963
20
-161.558
11
57.9201
21
-162.986
0
LINE
8
BLACK
6
CONTINUOUS
10
57.9201
20
-162.986
11
59.1582
21
-162.986
0
LINE
8
BLACK
6
CONTINUOUS
10
60.301
20
-161.653
11
60.4915
21
-161.653
0
LINE
8
BLACK
6
CONTINUOUS
10
60.4915
20
-161.653
11
60.682
21
-161.748
0
LINE
8
BLACK
6
CONTINUOUS
10
60.682
20
-161.748
11
60.7772
21
-161.843
0
LINE
8
BLACK
6
CONTINUOUS
10
60.7772
20
-161.843
11
60.8725
21
-162.034
0
LINE
8
BLACK
6
CONTINUOUS
10
60.8725
20
-162.034
11
60.9677
21
-162.415
0
LINE
8
BLACK
6
CONTINUOUS
10
60.9677
20
-162.415
11
60.9677
21
-162.891
0
LINE
8
BLACK
6
CONTINUOUS
10
60.9677
20
-162.891
11
60.8725
21
-163.272
0
LINE
8
BLACK
6
CONTINUOUS
10
60.8725
20
-163.272
11
60.7772
21
-163.462
0
LINE
8
BLACK
6
CONTINUOUS
10
60.7772
20
-163.462
11
60.682
21
-163.558
0
LINE
8
BLACK
6
CONTINUOUS
10
60.682
20
-163.558
11
60.4915
21
-163.653
0
LINE
8
BLACK
6
CONTINUOUS
10
60.4915
20
-163.653
11
60.301
21
-163.653
0
LINE
8
BLACK
6
CONTINUOUS
10
60.301
20
-163.653
11
60.1106
21
-163.558
0
LINE
8
BLACK
6
CONTINUOUS
10
60.1106
20
-163.558
11
60.0153
21
-163.462
0
LINE
8
BLACK
6
CONTINUOUS
10
60.0153
20
-163.462
11
59.9201
21
-163.272
0
LINE
8
BLACK
6
CONTINUOUS
10
59.9201
20
-163.272
11
59.8249
21
-162.891
0
LINE
8
BLACK
6
CONTINUOUS
10
59.8249
20
-162.891
11
59.8249
21
-162.415
0
LINE
8
BLACK
6
CONTINUOUS
10
59.8249
20
-162.415
11
59.9201
21
-162.034
0
LINE
8
BLACK
6
CONTINUOUS
10
59.9201
20
-162.034
11
60.0153
21
-161.843
0
LINE
8
BLACK
6
CONTINUOUS
10
60.0153
20
-161.843
11
60.1106
21
-161.748
0
LINE
8
BLACK
6
CONTINUOUS
10
60.1106
20
-161.748
11
60.301
21
-161.653
0
LINE
8
BLACK
6
CONTINUOUS
10
62.2058
20
-161.653
11
62.3963
21
-161.653
0
LINE
8
BLACK
6
CONTINUOUS
10
62.3963
20
-161.653
11
62.5868
21
-161.748
0
LINE
8
BLACK
6
CONTINUOUS
10
62.5868
20
-161.748
11
62.682
21
-161.843
0
LINE
8
BLACK
6
CONTINUOUS
10
62.682
20
-161.843
11
62.7772
21
-162.034
0
LINE
8
BLACK
6
CONTINUOUS
10
62.7772
20
-162.034
11
62.8725
21
-162.415
0
LINE
8
BLACK
6
CONTINUOUS
10
62.8725
20
-162.415
11
62.8725
21
-162.891
0
LINE
8
BLACK
6
CONTINUOUS
10
62.8725
20
-162.891
11
62.7772
21
-163.272
0
LINE
8
BLACK
6
CONTINUOUS
10
62.7772
20
-163.272
11
62.682
21
-163.462
0
LINE
8
BLACK
6
CONTINUOUS
10
62.682
20
-163.462
11
62.5868
21
-163.558
0
LINE
8
BLACK
6
CONTINUOUS
10
62.5868
20
-163.558
11
62.3963
21
-163.653
0
LINE
8
BLACK
6
CONTINUOUS
10
62.3963
20
-163.653
11
62.2058
21
-163.653
0
LINE
8
BLACK
6
CONTINUOUS
10
62.2058
20
-163.653
11
62.0153
21
-163.558
0
LINE
8
BLACK
6
CONTINUOUS
10
62.0153
20
-163.558
11
61.9201
21
-163.462
0
LINE
8
BLACK
6
CONTINUOUS
10
61.9201
20
-163.462
11
61.8249
21
-163.272
0
LINE
8
BLACK
6
CONTINUOUS
10
61.8249
20
-163.272
11
61.7296
21
-162.891
0
LINE
8
BLACK
6
CONTINUOUS
10
61.7296
20
-162.891
11
61.7296
21
-162.415
0
LINE
8
BLACK
6
CONTINUOUS
10
61.7296
20
-162.415
11
61.8249
21
-162.034
0
LINE
8
BLACK
6
CONTINUOUS
10
61.8249
20
-162.034
11
61.9201
21
-161.843
0
LINE
8
BLACK
6
CONTINUOUS
10
61.9201
20
-161.843
11
62.0153
21
-161.748
0
LINE
8
BLACK
6
CONTINUOUS
10
62.0153
20
-161.748
11
62.2058
21
-161.653
0
LINE
8
BLACK
6
CONTINUOUS
10
63.7296
20
-163.653
11
63.7296
21
-162.319
0
LINE
8
BLACK
6
CONTINUOUS
10
63.7296
20
-162.51
11
63.8249
21
-162.415
0
LINE
8
BLACK
6
CONTINUOUS
10
63.8249
20
-162.415
11
64.0153
21
-162.319
0
LINE
8
BLACK
6
CONTINUOUS
10
64.0153
20
-162.319
11
64.301
21
-162.319
0
LINE
8
BLACK
6
CONTINUOUS
10
64.301
20
-162.319
11
64.4915
21
-162.415
0
LINE
8
BLACK
6
CONTINUOUS
10
64.4915
20
-162.415
11
64.5868
21
-162.605
0
LINE
8
BLACK
6
CONTINUOUS
10
64.5868
20
-162.605
11
64.5868
21
-163.653
0
LINE
8
BLACK
6
CONTINUOUS
10
64.5868
20
-162.605
11
64.682
21
-162.415
0
LINE
8
BLACK
6
CONTINUOUS
10
64.682
20
-162.415
11
64.8725
21
-162.319
0
LINE
8
BLACK
6
CONTINUOUS
10
64.8725
20
-162.319
11
65.1582
21
-162.319
0
LINE
8
BLACK
6
CONTINUOUS
10
65.1582
20
-162.319
11
65.3487
21
-162.415
0
LINE
8
BLACK
6
CONTINUOUS
10
65.3487
20
-162.415
11
65.4439
21
-162.605
0
LINE
8
BLACK
6
CONTINUOUS
10
65.4439
20
-162.605
11
65.4439
21
-163.653
0
LINE
8
BLACK
6
CONTINUOUS
10
66.3963
20
-163.653
11
66.3963
21
-162.319
0
LINE
8
BLACK
6
CONTINUOUS
10
66.3963
20
-162.51
11
66.4915
21
-162.415
0
LINE
8
BLACK
6
CONTINUOUS
10
66.4915
20
-162.415
11
66.682
21
-162.319
0
LINE
8
BLACK
6
CONTINUOUS
10
66.682
20
-162.319
11
66.9677
21
-162.319
0
LINE
8
BLACK
6
CONTINUOUS
10
66.9677
20
-162.319
11
67.1582
21
-162.415
0
LINE
8
BLACK
6
CONTINUOUS
10
67.1582
20
-162.415
11
67.2534
21
-162.605
0
LINE
8
BLACK
6
CONTINUOUS
10
67.2534
20
-162.605
11
67.2534
21
-163.653
0
LINE
8
BLACK
6
CONTINUOUS
10
67.2534
20
-162.605
11
67.3487
21
-162.415
0
LINE
8
BLACK
6
CONTINUOUS
10
67.3487
20
-162.415
11
67.5391
21
-162.319
0
LINE
8
BLACK
6
CONTINUOUS
10
67.5391
20
-162.319
11
67.8249
21
-162.319
0
LINE
8
BLACK
6
CONTINUOUS
10
67.8249
20
-162.319
11
68.0153
21
-162.415
0
LINE
8
BLACK
6
CONTINUOUS
10
68.0153
20
-162.415
11
68.1106
21
-162.605
0
LINE
8
BLACK
6
CONTINUOUS
10
68.1106
20
-162.605
11
68.1106
21
-163.653
0
LINE
8
BLACK
6
CONTINUOUS
10
71.6915
20
-161.558
11
69.9772
21
-164.129
0
LINE
8
BLACK
6
CONTINUOUS
10
73.9391
20
-161.653
11
74.1296
21
-161.653
0
LINE
8
BLACK
6
CONTINUOUS
10
74.1296
20
-161.653
11
74.3201
21
-161.748
0
LINE
8
BLACK
6
CONTINUOUS
10
74.3201
20
-161.748
11
74.4153
21
-161.843
0
LINE
8
BLACK
6
CONTINUOUS
10
74.4153
20
-161.843
11
74.5106
21
-162.034
0
LINE
8
BLACK
6
CONTINUOUS
10
74.5106
20
-162.034
11
74.6058
21
-162.415
0
LINE
8
BLACK
6
CONTINUOUS
10
74.6058
20
-162.415
11
74.6058
21
-162.891
0
LINE
8
BLACK
6
CONTINUOUS
10
74.6058
20
-162.891
11
74.5106
21
-163.272
0
LINE
8
BLACK
6
CONTINUOUS
10
74.5106
20
-163.272
11
74.4153
21
-163.462
0
LINE
8
BLACK
6
CONTINUOUS
10
74.4153
20
-163.462
11
74.3201
21
-163.558
0
LINE
8
BLACK
6
CONTINUOUS
10
74.3201
20
-163.558
11
74.1296
21
-163.653
0
LINE
8
BLACK
6
CONTINUOUS
10
74.1296
20
-163.653
11
73.9391
21
-163.653
0
LINE
8
BLACK
6
CONTINUOUS
10
73.9391
20
-163.653
11
73.7487
21
-163.558
0
LINE
8
BLACK
6
CONTINUOUS
10
73.7487
20
-163.558
11
73.6534
21
-163.462
0
LINE
8
BLACK
6
CONTINUOUS
10
73.6534
20
-163.462
11
73.5582
21
-163.272
0
LINE
8
BLACK
6
CONTINUOUS
10
73.5582
20
-163.272
11
73.463
21
-162.891
0
LINE
8
BLACK
6
CONTINUOUS
10
73.463
20
-162.891
11
73.463
21
-162.415
0
LINE
8
BLACK
6
CONTINUOUS
10
73.463
20
-162.415
11
73.5582
21
-162.034
0
LINE
8
BLACK
6
CONTINUOUS
10
73.5582
20
-162.034
11
73.6534
21
-161.843
0
LINE
8
BLACK
6
CONTINUOUS
10
73.6534
20
-161.843
11
73.7487
21
-161.748
0
LINE
8
BLACK
6
CONTINUOUS
10
73.7487
20
-161.748
11
73.9391
21
-161.653
0
LINE
8
BLACK
6
CONTINUOUS
10
75.463
20
-163.462
11
75.5582
21
-163.558
0
LINE
8
BLACK
6
CONTINUOUS
10
75.5582
20
-163.558
11
75.463
21
-163.653
0
LINE
8
BLACK
6
CONTINUOUS
10
75.463
20
-163.653
11
75.3677
21
-163.558
0
LINE
8
BLACK
6
CONTINUOUS
10
75.3677
20
-163.558
11
75.463
21
-163.462
0
LINE
8
BLACK
6
CONTINUOUS
10
75.463
20
-163.462
11
75.463
21
-163.653
0
LINE
8
BLACK
6
CONTINUOUS
10
76.7963
20
-161.653
11
76.9868
21
-161.653
0
LINE
8
BLACK
6
CONTINUOUS
10
76.9868
20
-161.653
11
77.1772
21
-161.748
0
LINE
8
BLACK
6
CONTINUOUS
10
77.1772
20
-161.748
11
77.2725
21
-161.843
0
LINE
8
BLACK
6
CONTINUOUS
10
77.2725
20
-161.843
11
77.3677
21
-162.034
0
LINE
8
BLACK
6
CONTINUOUS
10
77.3677
20
-162.034
11
77.463
21
-162.415
0
LINE
8
BLACK
6
CONTINUOUS
10
77.463
20
-162.415
11
77.463
21
-162.891
0
LINE
8
BLACK
6
CONTINUOUS
10
77.463
20
-162.891
11
77.3677
21
-163.272
0
LINE
8
BLACK
6
CONTINUOUS
10
77.3677
20
-163.272
11
77.2725
21
-163.462
0
LINE
8
BLACK
6
CONTINUOUS
10
77.2725
20
-163.462
11
77.1772
21
-163.558
0
LINE
8
BLACK
6
CONTINUOUS
10
77.1772
20
-163.558
11
76.9868
21
-163.653
0
LINE
8
BLACK
6
CONTINUOUS
10
76.9868
20
-163.653
11
76.7963
21
-163.653
0
LINE
8
BLACK
6
CONTINUOUS
10
76.7963
20
-163.653
11
76.6058
21
-163.558
0
LINE
8
BLACK
6
CONTINUOUS
10
76.6058
20
-163.558
11
76.5106
21
-163.462
0
LINE
8
BLACK
6
CONTINUOUS
10
76.5106
20
-163.462
11
76.4153
21
-163.272
0
LINE
8
BLACK
6
CONTINUOUS
10
76.4153
20
-163.272
11
76.3201
21
-162.891
0
LINE
8
BLACK
6
CONTINUOUS
10
76.3201
20
-162.891
11
76.3201
21
-162.415
0
LINE
8
BLACK
6
CONTINUOUS
10
76.3201
20
-162.415
11
76.4153
21
-162.034
0
LINE
8
BLACK
6
CONTINUOUS
10
76.4153
20
-162.034
11
76.5106
21
-161.843
0
LINE
8
BLACK
6
CONTINUOUS
10
76.5106
20
-161.843
11
76.6058
21
-161.748
0
LINE
8
BLACK
6
CONTINUOUS
10
76.6058
20
-161.748
11
76.7963
21
-161.653
0
LINE
8
BLACK
6
CONTINUOUS
10
79.3677
20
-163.653
11
78.2249
21
-163.653
0
LINE
8
BLACK
6
CONTINUOUS
10
78.7963
20
-163.653
11
78.7963
21
-161.653
0
LINE
8
BLACK
6
CONTINUOUS
10
78.7963
20
-161.653
11
78.6058
21
-161.938
0
LINE
8
BLACK
6
CONTINUOUS
10
78.6058
20
-161.938
11
78.4153
21
-162.129
0
LINE
8
BLACK
6
CONTINUOUS
10
78.4153
20
-162.129
11
78.2249
21
-162.224
0
LINE
8
BLACK
6
CONTINUOUS
10
81.1772
20
-161.653
11
80.2249
21
-161.653
0
LINE
8
BLACK
6
CONTINUOUS
10
80.2249
20
-161.653
11
80.1296
21
-162.605
0
LINE
8
BLACK
6
CONTINUOUS
10
80.1296
20
-162.605
11
80.2249
21
-162.51
0
LINE
8
BLACK
6
CONTINUOUS
10
80.2249
20
-162.51
11
80.4153
21
-162.415
0
LINE
8
BLACK
6
CONTINUOUS
10
80.4153
20
-162.415
11
80.8915
21
-162.415
0
LINE
8
BLACK
6
CONTINUOUS
10
80.8915
20
-162.415
11
81.082
21
-162.51
0
LINE
8
BLACK
6
CONTINUOUS
10
81.082
20
-162.51
11
81.1772
21
-162.605
0
LINE
8
BLACK
6
CONTINUOUS
10
81.1772
20
-162.605
11
81.2725
21
-162.796
0
LINE
8
BLACK
6
CONTINUOUS
10
81.2725
20
-162.796
11
81.2725
21
-163.272
0
LINE
8
BLACK
6
CONTINUOUS
10
81.2725
20
-163.272
11
81.1772
21
-163.462
0
LINE
8
BLACK
6
CONTINUOUS
10
81.1772
20
-163.462
11
81.082
21
-163.558
0
LINE
8
BLACK
6
CONTINUOUS
10
81.082
20
-163.558
11
80.8915
21
-163.653
0
LINE
8
BLACK
6
CONTINUOUS
10
80.8915
20
-163.653
11
80.4153
21
-163.653
0
LINE
8
BLACK
6
CONTINUOUS
10
80.4153
20
-163.653
11
80.2249
21
-163.558
0
LINE
8
BLACK
6
CONTINUOUS
10
80.2249
20
-163.558
11
80.1296
21
-163.462
0
LINE
8
BLACK
6
CONTINUOUS
10
81.9391
20
-161.653
11
83.2725
21
-161.653
0
LINE
8
BLACK
6
CONTINUOUS
10
83.2725
20
-161.653
11
82.4153
21
-163.653
0
LINE
8
BLACK
6
CONTINUOUS
10
83.9391
20
-161.653
11
83.9391
21
-162.034
0
LINE
8
BLACK
6
CONTINUOUS
10
84.701
20
-161.653
11
84.701
21
-162.034
0
LINE
8
BLACK
6
CONTINUOUS
10
87.3296
20
-164.415
11
87.2344
21
-164.319
0
LINE
8
BLACK
6
CONTINUOUS
10
87.2344
20
-164.319
11
87.0439
21
-164.034
0
LINE
8
BLACK
6
CONTINUOUS
10
87.0439
20
-164.034
11
86.9487
21
-163.843
0
LINE
8
BLACK
6
CONTINUOUS
10
86.9487
20
-163.843
11
86.8534
21
-163.558
0
LINE
8
BLACK
6
CONTINUOUS
10
86.8534
20
-163.558
11
86.7582
21
-163.081
0
LINE
8
BLACK
6
CONTINUOUS
10
86.7582
20
-163.081
11
86.7582
21
-162.7
0
LINE
8
BLACK
6
CONTINUOUS
10
86.7582
20
-162.7
11
86.8534
21
-162.224
0
LINE
8
BLACK
6
CONTINUOUS
10
86.8534
20
-162.224
11
86.9487
21
-161.938
0
LINE
8
BLACK
6
CONTINUOUS
10
86.9487
20
-161.938
11
87.0439
21
-161.748
0
LINE
8
BLACK
6
CONTINUOUS
10
87.0439
20
-161.748
11
87.2344
21
-161.462
0
LINE
8
BLACK
6
CONTINUOUS
10
87.2344
20
-161.462
11
87.3296
21
-161.367
0
LINE
8
BLACK
6
CONTINUOUS
10
89.1391
20
-163.653
11
87.9963
21
-163.653
0
LINE
8
BLACK
6
CONTINUOUS
10
88.5677
20
-163.653
11
88.5677
21
-161.653
0
LINE
8
BLACK
6
CONTINUOUS
10
88.5677
20
-161.653
11
88.3772
21
-161.938
0
LINE
8
BLACK
6
CONTINUOUS
10
88.3772
20
-161.938
11
88.1868
21
-162.129
0
LINE
8
BLACK
6
CONTINUOUS
10
88.1868
20
-162.129
11
87.9963
21
-162.224
0
LINE
8
BLACK
6
CONTINUOUS
10
90.3772
20
-161.653
11
90.5677
21
-161.653
0
LINE
8
BLACK
6
CONTINUOUS
10
90.5677
20
-161.653
11
90.7582
21
-161.748
0
LINE
8
BLACK
6
CONTINUOUS
10
90.7582
20
-161.748
11
90.8534
21
-161.843
0
LINE
8
BLACK
6
CONTINUOUS
10
90.8534
20
-161.843
11
90.9487
21
-162.034
0
LINE
8
BLACK
6
CONTINUOUS
10
90.9487
20
-162.034
11
91.0439
21
-162.415
0
LINE
8
BLACK
6
CONTINUOUS
10
91.0439
20
-162.415
11
91.0439
21
-162.891
0
LINE
8
BLACK
6
CONTINUOUS
10
91.0439
20
-162.891
11
90.9487
21
-163.272
0
LINE
8
BLACK
6
CONTINUOUS
10
90.9487
20
-163.272
11
90.8534
21
-163.462
0
LINE
8
BLACK
6
CONTINUOUS
10
90.8534
20
-163.462
11
90.7582
21
-163.558
0
LINE
8
BLACK
6
CONTINUOUS
10
90.7582
20
-163.558
11
90.5677
21
-163.653
0
LINE
8
BLACK
6
CONTINUOUS
10
90.5677
20
-163.653
11
90.3772
21
-163.653
0
LINE
8
BLACK
6
CONTINUOUS
10
90.3772
20
-163.653
11
90.1868
21
-163.558
0
LINE
8
BLACK
6
CONTINUOUS
10
90.1868
20
-163.558
11
90.0915
21
-163.462
0
LINE
8
BLACK
6
CONTINUOUS
10
90.0915
20
-163.462
11
89.9963
21
-163.272
0
LINE
8
BLACK
6
CONTINUOUS
10
89.9963
20
-163.272
11
89.901
21
-162.891
0
LINE
8
BLACK
6
CONTINUOUS
10
89.901
20
-162.891
11
89.901
21
-162.415
0
LINE
8
BLACK
6
CONTINUOUS
10
89.901
20
-162.415
11
89.9963
21
-162.034
0
LINE
8
BLACK
6
CONTINUOUS
10
89.9963
20
-162.034
11
90.0915
21
-161.843
0
LINE
8
BLACK
6
CONTINUOUS
10
90.0915
20
-161.843
11
90.1868
21
-161.748
0
LINE
8
BLACK
6
CONTINUOUS
10
90.1868
20
-161.748
11
90.3772
21
-161.653
0
LINE
8
BLACK
6
CONTINUOUS
10
91.9963
20
-163.653
11
92.3772
21
-163.653
0
LINE
8
BLACK
6
CONTINUOUS
10
92.3772
20
-163.653
11
92.5677
21
-163.558
0
LINE
8
BLACK
6
CONTINUOUS
10
92.5677
20
-163.558
11
92.663
21
-163.462
0
LINE
8
BLACK
6
CONTINUOUS
10
92.663
20
-163.462
11
92.8534
21
-163.177
0
LINE
8
BLACK
6
CONTINUOUS
10
92.8534
20
-163.177
11
92.9487
21
-162.796
0
LINE
8
BLACK
6
CONTINUOUS
10
92.9487
20
-162.796
11
92.9487
21
-162.034
0
LINE
8
BLACK
6
CONTINUOUS
10
92.9487
20
-162.034
11
92.8534
21
-161.843
0
LINE
8
BLACK
6
CONTINUOUS
10
92.8534
20
-161.843
11
92.7582
21
-161.748
0
LINE
8
BLACK
6
CONTINUOUS
10
92.7582
20
-161.748
11
92.5677
21
-161.653
0
LINE
8
BLACK
6
CONTINUOUS
10
92.5677
20
-161.653
11
92.1868
21
-161.653
0
LINE
8
BLACK
6
CONTINUOUS
10
92.1868
20
-161.653
11
91.9963
21
-161.748
0
LINE
8
BLACK
6
CONTINUOUS
10
91.9963
20
-161.748
11
91.901
21
-161.843
0
LINE
8
BLACK
6
CONTINUOUS
10
91.901
20
-161.843
11
91.8058
21
-162.034
0
LINE
8
BLACK
6
CONTINUOUS
10
91.8058
20
-162.034
11
91.8058
21
-162.51
0
LINE
8
BLACK
6
CONTINUOUS
10
91.8058
20
-162.51
11
91.901
21
-162.7
0
LINE
8
BLACK
6
CONTINUOUS
10
91.901
20
-162.7
11
91.9963
21
-162.796
0
LINE
8
BLACK
6
CONTINUOUS
10
91.9963
20
-162.796
11
92.1868
21
-162.891
0
LINE
8
BLACK
6
CONTINUOUS
10
92.1868
20
-162.891
11
92.5677
21
-162.891
0
LINE
8
BLACK
6
CONTINUOUS
10
92.5677
20
-162.891
11
92.7582
21
-162.796
0
LINE
8
BLACK
6
CONTINUOUS
10
92.7582
20
-162.796
11
92.8534
21
-162.7
0
LINE
8
BLACK
6
CONTINUOUS
10
92.8534
20
-162.7
11
92.9487
21
-162.51
0
LINE
8
BLACK
6
CONTINUOUS
10
95.0058
20
-163.653
11
95.0058
21
-161.653
0
LINE
8
BLACK
6
CONTINUOUS
10
95.863
20
-163.653
11
95.863
21
-162.605
0
LINE
8
BLACK
6
CONTINUOUS
10
95.863
20
-162.605
11
95.7677
21
-162.415
0
LINE
8
BLACK
6
CONTINUOUS
10
95.7677
20
-162.415
11
95.5772
21
-162.319
0
LINE
8
BLACK
6
CONTINUOUS
10
95.5772
20
-162.319
11
95.2915
21
-162.319
0
LINE
8
BLACK
6
CONTINUOUS
10
95.2915
20
-162.319
11
95.101
21
-162.415
0
LINE
8
BLACK
6
CONTINUOUS
10
95.101
20
-162.415
11
95.0058
21
-162.51
0
LINE
8
BLACK
6
CONTINUOUS
10
97.101
20
-163.653
11
96.9106
21
-163.558
0
LINE
8
BLACK
6
CONTINUOUS
10
96.9106
20
-163.558
11
96.8153
21
-163.462
0
LINE
8
BLACK
6
CONTINUOUS
10
96.8153
20
-163.462
11
96.7201
21
-163.272
0
LINE
8
BLACK
6
CONTINUOUS
10
96.7201
20
-163.272
11
96.7201
21
-162.7
0
LINE
8
BLACK
6
CONTINUOUS
10
96.7201
20
-162.7
11
96.8153
21
-162.51
0
LINE
8
BLACK
6
CONTINUOUS
10
96.8153
20
-162.51
11
96.9106
21
-162.415
0
LINE
8
BLACK
6
CONTINUOUS
10
96.9106
20
-162.415
11
97.101
21
-162.319
0
LINE
8
BLACK
6
CONTINUOUS
10
97.101
20
-162.319
11
97.3868
21
-162.319
0
LINE
8
BLACK
6
CONTINUOUS
10
97.3868
20
-162.319
11
97.5772
21
-162.415
0
LINE
8
BLACK
6
CONTINUOUS
10
97.5772
20
-162.415
11
97.6725
21
-162.51
0
LINE
8
BLACK
6
CONTINUOUS
10
97.6725
20
-162.51
11
97.7677
21
-162.7
0
LINE
8
BLACK
6
CONTINUOUS
10
97.7677
20
-162.7
11
97.7677
21
-163.272
0
LINE
8
BLACK
6
CONTINUOUS
10
97.7677
20
-163.272
11
97.6725
21
-163.462
0
LINE
8
BLACK
6
CONTINUOUS
10
97.6725
20
-163.462
11
97.5772
21
-163.558
0
LINE
8
BLACK
6
CONTINUOUS
10
97.5772
20
-163.558
11
97.3868
21
-163.653
0
LINE
8
BLACK
6
CONTINUOUS
10
97.3868
20
-163.653
11
97.101
21
-163.653
0
LINE
8
BLACK
6
CONTINUOUS
10
98.9106
20
-163.653
11
98.7201
21
-163.558
0
LINE
8
BLACK
6
CONTINUOUS
10
98.7201
20
-163.558
11
98.6249
21
-163.367
0
LINE
8
BLACK
6
CONTINUOUS
10
98.6249
20
-163.367
11
98.6249
21
-161.653
0
LINE
8
BLACK
6
CONTINUOUS
10
100.434
20
-163.558
11
100.244
21
-163.653
0
LINE
8
BLACK
6
CONTINUOUS
10
100.244
20
-163.653
11
99.863
21
-163.653
0
LINE
8
BLACK
6
CONTINUOUS
10
99.863
20
-163.653
11
99.6725
21
-163.558
0
LINE
8
BLACK
6
CONTINUOUS
10
99.6725
20
-163.558
11
99.5772
21
-163.367
0
LINE
8
BLACK
6
CONTINUOUS
10
99.5772
20
-163.367
11
99.5772
21
-162.605
0
LINE
8
BLACK
6
CONTINUOUS
10
99.5772
20
-162.605
11
99.6725
21
-162.415
0
LINE
8
BLACK
6
CONTINUOUS
10
99.6725
20
-162.415
11
99.863
21
-162.319
0
LINE
8
BLACK
6
CONTINUOUS
10
99.863
20
-162.319
11
100.244
21
-162.319
0
LINE
8
BLACK
6
CONTINUOUS
10
100.244
20
-162.319
11
100.434
21
-162.415
0
LINE
8
BLACK
6
CONTINUOUS
10
100.434
20
-162.415
11
100.53
21
-162.605
0
LINE
8
BLACK
6
CONTINUOUS
10
100.53
20
-162.605
11
100.53
21
-162.796
0
LINE
8
BLACK
6
CONTINUOUS
10
100.53
20
-162.796
11
99.5772
21
-162.986
0
LINE
8
BLACK
6
CONTINUOUS
10
101.292
20
-163.558
11
101.482
21
-163.653
0
LINE
8
BLACK
6
CONTINUOUS
10
101.482
20
-163.653
11
101.863
21
-163.653
0
LINE
8
BLACK
6
CONTINUOUS
10
101.863
20
-163.653
11
102.053
21
-163.558
0
LINE
8
BLACK
6
CONTINUOUS
10
102.053
20
-163.558
11
102.149
21
-163.367
0
LINE
8
BLACK
6
CONTINUOUS
10
102.149
20
-163.367
11
102.149
21
-163.272
0
LINE
8
BLACK
6
CONTINUOUS
10
102.149
20
-163.272
11
102.053
21
-163.081
0
LINE
8
BLACK
6
CONTINUOUS
10
102.053
20
-163.081
11
101.863
21
-162.986
0
LINE
8
BLACK
6
CONTINUOUS
10
101.863
20
-162.986
11
101.577
21
-162.986
0
LINE
8
BLACK
6
CONTINUOUS
10
101.577
20
-162.986
11
101.387
21
-162.891
0
LINE
8
BLACK
6
CONTINUOUS
10
101.387
20
-162.891
11
101.292
21
-162.7
0
LINE
8
BLACK
6
CONTINUOUS
10
101.292
20
-162.7
11
101.292
21
-162.605
0
LINE
8
BLACK
6
CONTINUOUS
10
101.292
20
-162.605
11
101.387
21
-162.415
0
LINE
8
BLACK
6
CONTINUOUS
10
101.387
20
-162.415
11
101.577
21
-162.319
0
LINE
8
BLACK
6
CONTINUOUS
10
101.577
20
-162.319
11
101.863
21
-162.319
0
LINE
8
BLACK
6
CONTINUOUS
10
101.863
20
-162.319
11
102.053
21
-162.415
0
LINE
8
BLACK
6
CONTINUOUS
10
102.815
20
-164.415
11
102.911
21
-164.319
0
LINE
8
BLACK
6
CONTINUOUS
10
102.911
20
-164.319
11
103.101
21
-164.034
0
LINE
8
BLACK
6
CONTINUOUS
10
103.101
20
-164.034
11
103.196
21
-163.843
0
LINE
8
BLACK
6
CONTINUOUS
10
103.196
20
-163.843
11
103.292
21
-163.558
0
LINE
8
BLACK
6
CONTINUOUS
10
103.292
20
-163.558
11
103.387
21
-163.081
0
LINE
8
BLACK
6
CONTINUOUS
10
103.387
20
-163.081
11
103.387
21
-162.7
0
LINE
8
BLACK
6
CONTINUOUS
10
103.387
20
-162.7
11
103.292
21
-162.224
0
LINE
8
BLACK
6
CONTINUOUS
10
103.292
20
-162.224
11
103.196
21
-161.938
0
LINE
8
BLACK
6
CONTINUOUS
10
103.196
20
-161.938
11
103.101
21
-161.748
0
LINE
8
BLACK
6
CONTINUOUS
10
103.101
20
-161.748
11
102.911
21
-161.462
0
LINE
8
BLACK
6
CONTINUOUS
10
102.911
20
-161.462
11
102.815
21
-161.367
0
CIRCLE
8
BLACK
10
52.357
20
-165.558
40
0.325
0
LINE
8
BLACK
6
CONTINUOUS
10
55.5391
20
-164.293
11
55.7296
21
-164.293
0
LINE
8
BLACK
6
CONTINUOUS
10
55.7296
20
-164.293
11
55.9201
21
-164.388
0
LINE
8
BLACK
6
CONTINUOUS
10
55.9201
20
-164.388
11
56.0153
21
-164.483
0
LINE
8
BLACK
6
CONTINUOUS
10
56.0153
20
-164.483
11
56.1106
21
-164.674
0
LINE
8
BLACK
6
CONTINUOUS
10
56.1106
20
-164.674
11
56.2058
21
-165.055
0
LINE
8
BLACK
6
CONTINUOUS
10
56.2058
20
-165.055
11
56.2058
21
-165.531
0
LINE
8
BLACK
6
CONTINUOUS
10
56.2058
20
-165.531
11
56.1106
21
-165.912
0
LINE
8
BLACK
6
CONTINUOUS
10
56.1106
20
-165.912
11
56.0153
21
-166.102
0
LINE
8
BLACK
6
CONTINUOUS
10
56.0153
20
-166.102
11
55.9201
21
-166.198
0
LINE
8
BLACK
6
CONTINUOUS
10
55.9201
20
-166.198
11
55.7296
21
-166.293
0
LINE
8
BLACK
6
CONTINUOUS
10
55.7296
20
-166.293
11
55.5391
21
-166.293
0
LINE
8
BLACK
6
CONTINUOUS
10
55.5391
20
-166.293
11
55.3487
21
-166.198
0
LINE
8
BLACK
6
CONTINUOUS
10
55.3487
20
-166.198
11
55.2534
21
-166.102
0
LINE
8
BLACK
6
CONTINUOUS
10
55.2534
20
-166.102
11
55.1582
21
-165.912
0
LINE
8
BLACK
6
CONTINUOUS
10
55.1582
20
-165.912
11
55.063
21
-165.531
0
LINE
8
BLACK
6
CONTINUOUS
10
55.063
20
-165.531
11
55.063
21
-165.055
0
LINE
8
BLACK
6
CONTINUOUS
10
55.063
20
-165.055
11
55.1582
21
-164.674
0
LINE
8
BLACK
6
CONTINUOUS
10
55.1582
20
-164.674
11
55.2534
21
-164.483
0
LINE
8
BLACK
6
CONTINUOUS
10
55.2534
20
-164.483
11
55.3487
21
-164.388
0
LINE
8
BLACK
6
CONTINUOUS
10
55.3487
20
-164.388
11
55.5391
21
-164.293
0
LINE
8
BLACK
6
CONTINUOUS
10
57.063
20
-166.102
11
57.1582
21
-166.198
0
LINE
8
BLACK
6
CONTINUOUS
10
57.1582
20
-166.198
11
57.063
21
-166.293
0
LINE
8
BLACK
6
CONTINUOUS
10
57.063
20
-166.293
11
56.9677
21
-166.198
0
LINE
8
BLACK
6
CONTINUOUS
10
56.9677
20
-166.198
11
57.063
21
-166.102
0
LINE
8
BLACK
6
CONTINUOUS
10
57.063
20
-166.102
11
57.063
21
-166.293
0
LINE
8
BLACK
6
CONTINUOUS
10
58.8725
20
-164.293
11
58.4915
21
-164.293
0
LINE
8
BLACK
6
CONTINUOUS
10
58.4915
20
-164.293
11
58.301
21
-164.388
0
LINE
8
BLACK
6
CONTINUOUS
10
58.301
20
-164.388
11
58.2058
21
-164.483
0
LINE
8
BLACK
6
CONTINUOUS
10
58.2058
20
-164.483
11
58.0153
21
-164.769
0
LINE
8
BLACK
6
CONTINUOUS
10
58.0153
20
-164.769
11
57.9201
21
-165.15
0
LINE
8
BLACK
6
CONTINUOUS
10
57.9201
20
-165.15
11
57.9201
21
-165.912
0
LINE
8
BLACK
6
CONTINUOUS
10
57.9201
20
-165.912
11
58.0153
21
-166.102
0
LINE
8
BLACK
6
CONTINUOUS
10
58.0153
20
-166.102
11
58.1106
21
-166.198
0
LINE
8
BLACK
6
CONTINUOUS
10
58.1106
20
-166.198
11
58.301
21
-166.293
0
LINE
8
BLACK
6
CONTINUOUS
10
58.301
20
-166.293
11
58.682
21
-166.293
0
LINE
8
BLACK
6
CONTINUOUS
10
58.682
20
-166.293
11
58.8725
21
-166.198
0
LINE
8
BLACK
6
CONTINUOUS
10
58.8725
20
-166.198
11
58.9677
21
-166.102
0
LINE
8
BLACK
6
CONTINUOUS
10
58.9677
20
-166.102
11
59.063
21
-165.912
0
LINE
8
BLACK
6
CONTINUOUS
10
59.063
20
-165.912
11
59.063
21
-165.436
0
LINE
8
BLACK
6
CONTINUOUS
10
59.063
20
-165.436
11
58.9677
21
-165.245
0
LINE
8
BLACK
6
CONTINUOUS
10
58.9677
20
-165.245
11
58.8725
21
-165.15
0
LINE
8
BLACK
6
CONTINUOUS
10
58.8725
20
-165.15
11
58.682
21
-165.055
0
LINE
8
BLACK
6
CONTINUOUS
10
58.682
20
-165.055
11
58.301
21
-165.055
0
LINE
8
BLACK
6
CONTINUOUS
10
58.301
20
-165.055
11
58.1106
21
-165.15
0
LINE
8
BLACK
6
CONTINUOUS
10
58.1106
20
-165.15
11
58.0153
21
-165.245
0
LINE
8
BLACK
6
CONTINUOUS
10
58.0153
20
-165.245
11
57.9201
21
-165.436
0
LINE
8
BLACK
6
CONTINUOUS
10
60.8725
20
-164.293
11
59.9201
21
-164.293
0
LINE
8
BLACK
6
CONTINUOUS
10
59.9201
20
-164.293
11
59.8249
21
-165.245
0
LINE
8
BLACK
6
CONTINUOUS
10
59.8249
20
-165.245
11
59.9201
21
-165.15
0
LINE
8
BLACK
6
CONTINUOUS
10
59.9201
20
-165.15
11
60.1106
21
-165.055
0
LINE
8
BLACK
6
CONTINUOUS
10
60.1106
20
-165.055
11
60.5868
21
-165.055
0
LINE
8
BLACK
6
CONTINUOUS
10
60.5868
20
-165.055
11
60.7772
21
-165.15
0
LINE
8
BLACK
6
CONTINUOUS
10
60.7772
20
-165.15
11
60.8725
21
-165.245
0
LINE
8
BLACK
6
CONTINUOUS
10
60.8725
20
-165.245
11
60.9677
21
-165.436
0
LINE
8
BLACK
6
CONTINUOUS
10
60.9677
20
-165.436
11
60.9677
21
-165.912
0
LINE
8
BLACK
6
CONTINUOUS
10
60.9677
20
-165.912
11
60.8725
21
-166.102
0
LINE
8
BLACK
6
CONTINUOUS
10
60.8725
20
-166.102
11
60.7772
21
-166.198
0
LINE
8
BLACK
6
CONTINUOUS
10
60.7772
20
-166.198
11
60.5868
21
-166.293
0
LINE
8
BLACK
6
CONTINUOUS
10
60.5868
20
-166.293
11
60.1106
21
-166.293
0
LINE
8
BLACK
6
CONTINUOUS
10
60.1106
20
-166.293
11
59.9201
21
-166.198
0
LINE
8
BLACK
6
CONTINUOUS
10
59.9201
20
-166.198
11
59.8249
21
-166.102
0
LINE
8
BLACK
6
CONTINUOUS
10
62.2058
20
-164.293
11
62.3963
21
-164.293
0
LINE
8
BLACK
6
CONTINUOUS
10
62.3963
20
-164.293
11
62.5868
21
-164.388
0
LINE
8
BLACK
6
CONTINUOUS
10
62.5868
20
-164.388
11
62.682
21
-164.483
0
LINE
8
BLACK
6
CONTINUOUS
10
62.682
20
-164.483
11
62.7772
21
-164.674
0
LINE
8
BLACK
6
CONTINUOUS
10
62.7772
20
-164.674
11
62.8725
21
-165.055
0
LINE
8
BLACK
6
CONTINUOUS
10
62.8725
20
-165.055
11
62.8725
21
-165.531
0
LINE
8
BLACK
6
CONTINUOUS
10
62.8725
20
-165.531
11
62.7772
21
-165.912
0
LINE
8
BLACK
6
CONTINUOUS
10
62.7772
20
-165.912
11
62.682
21
-166.102
0
LINE
8
BLACK
6
CONTINUOUS
10
62.682
20
-166.102
11
62.5868
21
-166.198
0
LINE
8
BLACK
6
CONTINUOUS
10
62.5868
20
-166.198
11
62.3963
21
-166.293
0
LINE
8
BLACK
6
CONTINUOUS
10
62.3963
20
-166.293
11
62.2058
21
-166.293
0
LINE
8
BLACK
6
CONTINUOUS
10
62.2058
20
-166.293
11
62.0153
21
-166.198
0
LINE
8
BLACK
6
CONTINUOUS
10
62.0153
20
-166.198
11
61.9201
21
-166.102
0
LINE
8
BLACK
6
CONTINUOUS
10
61.9201
20
-166.102
11
61.8249
21
-165.912
0
LINE
8
BLACK
6
CONTINUOUS
10
61.8249
20
-165.912
11
61.7296
21
-165.531
0
LINE
8
BLACK
6
CONTINUOUS
10
61.7296
20
-165.531
11
61.7296
21
-165.055
0
LINE
8
BLACK
6
CONTINUOUS
10
61.7296
20
-165.055
11
61.8249
21
-164.674
0
LINE
8
BLACK
6
CONTINUOUS
10
61.8249
20
-164.674
11
61.9201
21
-164.483
0
LINE
8
BLACK
6
CONTINUOUS
10
61.9201
20
-164.483
11
62.0153
21
-164.388
0
LINE
8
BLACK
6
CONTINUOUS
10
62.0153
20
-164.388
11
62.2058
21
-164.293
0
LINE
8
BLACK
6
CONTINUOUS
10
63.7296
20
-166.293
11
63.7296
21
-164.959
0
LINE
8
BLACK
6
CONTINUOUS
10
63.7296
20
-165.15
11
63.8249
21
-165.055
0
LINE
8
BLACK
6
CONTINUOUS
10
63.8249
20
-165.055
11
64.0153
21
-164.959
0
LINE
8
BLACK
6
CONTINUOUS
10
64.0153
20
-164.959
11
64.301
21
-164.959
0
LINE
8
BLACK
6
CONTINUOUS
10
64.301
20
-164.959
11
64.4915
21
-165.055
0
LINE
8
BLACK
6
CONTINUOUS
10
64.4915
20
-165.055
11
64.5868
21
-165.245
0
LINE
8
BLACK
6
CONTINUOUS
10
64.5868
20
-165.245
11
64.5868
21
-166.293
0
LINE
8
BLACK
6
CONTINUOUS
10
64.5868
20
-165.245
11
64.682
21
-165.055
0
LINE
8
BLACK
6
CONTINUOUS
10
64.682
20
-165.055
11
64.8725
21
-164.959
0
LINE
8
BLACK
6
CONTINUOUS
10
64.8725
20
-164.959
11
65.1582
21
-164.959
0
LINE
8
BLACK
6
CONTINUOUS
10
65.1582
20
-164.959
11
65.3487
21
-165.055
0
LINE
8
BLACK
6
CONTINUOUS
10
65.3487
20
-165.055
11
65.4439
21
-165.245
0
LINE
8
BLACK
6
CONTINUOUS
10
65.4439
20
-165.245
11
65.4439
21
-166.293
0
LINE
8
BLACK
6
CONTINUOUS
10
66.3963
20
-166.293
11
66.3963
21
-164.959
0
LINE
8
BLACK
6
CONTINUOUS
10
66.3963
20
-165.15
11
66.4915
21
-165.055
0
LINE
8
BLACK
6
CONTINUOUS
10
66.4915
20
-165.055
11
66.682
21
-164.959
0
LINE
8
BLACK
6
CONTINUOUS
10
66.682
20
-164.959
11
66.9677
21
-164.959
0
LINE
8
BLACK
6
CONTINUOUS
10
66.9677
20
-164.959
11
67.1582
21
-165.055
0
LINE
8
BLACK
6
CONTINUOUS
10
67.1582
20
-165.055
11
67.2534
21
-165.245
0
LINE
8
BLACK
6
CONTINUOUS
10
67.2534
20
-165.245
11
67.2534
21
-166.293
0
LINE
8
BLACK
6
CONTINUOUS
10
67.2534
20
-165.245
11
67.3487
21
-165.055
0
LINE
8
BLACK
6
CONTINUOUS
10
67.3487
20
-165.055
11
67.5391
21
-164.959
0
LINE
8
BLACK
6
CONTINUOUS
10
67.5391
20
-164.959
11
67.8249
21
-164.959
0
LINE
8
BLACK
6
CONTINUOUS
10
67.8249
20
-164.959
11
68.0153
21
-165.055
0
LINE
8
BLACK
6
CONTINUOUS
10
68.0153
20
-165.055
11
68.1106
21
-165.245
0
LINE
8
BLACK
6
CONTINUOUS
10
68.1106
20
-165.245
11
68.1106
21
-166.293
0
LINE
8
BLACK
6
CONTINUOUS
10
71.6915
20
-164.198
11
69.9772
21
-166.769
0
LINE
8
BLACK
6
CONTINUOUS
10
73.9391
20
-164.293
11
74.1296
21
-164.293
0
LINE
8
BLACK
6
CONTINUOUS
10
74.1296
20
-164.293
11
74.3201
21
-164.388
0
LINE
8
BLACK
6
CONTINUOUS
10
74.3201
20
-164.388
11
74.4153
21
-164.483
0
LINE
8
BLACK
6
CONTINUOUS
10
74.4153
20
-164.483
11
74.5106
21
-164.674
0
LINE
8
BLACK
6
CONTINUOUS
10
74.5106
20
-164.674
11
74.6058
21
-165.055
0
LINE
8
BLACK
6
CONTINUOUS
10
74.6058
20
-165.055
11
74.6058
21
-165.531
0
LINE
8
BLACK
6
CONTINUOUS
10
74.6058
20
-165.531
11
74.5106
21
-165.912
0
LINE
8
BLACK
6
CONTINUOUS
10
74.5106
20
-165.912
11
74.4153
21
-166.102
0
LINE
8
BLACK
6
CONTINUOUS
10
74.4153
20
-166.102
11
74.3201
21
-166.198
0
LINE
8
BLACK
6
CONTINUOUS
10
74.3201
20
-166.198
11
74.1296
21
-166.293
0
LINE
8
BLACK
6
CONTINUOUS
10
74.1296
20
-166.293
11
73.9391
21
-166.293
0
LINE
8
BLACK
6
CONTINUOUS
10
73.9391
20
-166.293
11
73.7487
21
-166.198
0
LINE
8
BLACK
6
CONTINUOUS
10
73.7487
20
-166.198
11
73.6534
21
-166.102
0
LINE
8
BLACK
6
CONTINUOUS
10
73.6534
20
-166.102
11
73.5582
21
-165.912
0
LINE
8
BLACK
6
CONTINUOUS
10
73.5582
20
-165.912
11
73.463
21
-165.531
0
LINE
8
BLACK
6
CONTINUOUS
10
73.463
20
-165.531
11
73.463
21
-165.055
0
LINE
8
BLACK
6
CONTINUOUS
10
73.463
20
-165.055
11
73.5582
21
-164.674
0
LINE
8
BLACK
6
CONTINUOUS
10
73.5582
20
-164.674
11
73.6534
21
-164.483
0
LINE
8
BLACK
6
CONTINUOUS
10
73.6534
20
-164.483
11
73.7487
21
-164.388
0
LINE
8
BLACK
6
CONTINUOUS
10
73.7487
20
-164.388
11
73.9391
21
-164.293
0
LINE
8
BLACK
6
CONTINUOUS
10
75.463
20
-166.102
11
75.5582
21
-166.198
0
LINE
8
BLACK
6
CONTINUOUS
10
75.5582
20
-166.198
11
75.463
21
-166.293
0
LINE
8
BLACK
6
CONTINUOUS
10
75.463
20
-166.293
11
75.3677
21
-166.198
0
LINE
8
BLACK
6
CONTINUOUS
10
75.3677
20
-166.198
11
75.463
21
-166.102
0
LINE
8
BLACK
6
CONTINUOUS
10
75.463
20
-166.102
11
75.463
21
-166.293
0
LINE
8
BLACK
6
CONTINUOUS
10
76.7963
20
-164.293
11
76.9868
21
-164.293
0
LINE
8
BLACK
6
CONTINUOUS
10
76.9868
20
-164.293
11
77.1772
21
-164.388
0
LINE
8
BLACK
6
CONTINUOUS
10
77.1772
20
-164.388
11
77.2725
21
-164.483
0
LINE
8
BLACK
6
CONTINUOUS
10
77.2725
20
-164.483
11
77.3677
21
-164.674
0
LINE
8
BLACK
6
CONTINUOUS
10
77.3677
20
-164.674
11
77.463
21
-165.055
0
LINE
8
BLACK
6
CONTINUOUS
10
77.463
20
-165.055
11
77.463
21
-165.531
0
LINE
8
BLACK
6
CONTINUOUS
10
77.463
20
-165.531
11
77.3677
21
-165.912
0
LINE
8
BLACK
6
CONTINUOUS
10
77.3677
20
-165.912
11
77.2725
21
-166.102
0
LINE
8
BLACK
6
CONTINUOUS
10
77.2725
20
-166.102
11
77.1772
21
-166.198
0
LINE
8
BLACK
6
CONTINUOUS
10
77.1772
20
-166.198
11
76.9868
21
-166.293
0
LINE
8
BLACK
6
CONTINUOUS
10
76.9868
20
-166.293
11
76.7963
21
-166.293
0
LINE
8
BLACK
6
CONTINUOUS
10
76.7963
20
-166.293
11
76.6058
21
-166.198
0
LINE
8
BLACK
6
CONTINUOUS
10
76.6058
20
-166.198
11
76.5106
21
-166.102
0
LINE
8
BLACK
6
CONTINUOUS
10
76.5106
20
-166.102
11
76.4153
21
-165.912
0
LINE
8
BLACK
6
CONTINUOUS
10
76.4153
20
-165.912
11
76.3201
21
-165.531
0
LINE
8
BLACK
6
CONTINUOUS
10
76.3201
20
-165.531
11
76.3201
21
-165.055
0
LINE
8
BLACK
6
CONTINUOUS
10
76.3201
20
-165.055
11
76.4153
21
-164.674
0
LINE
8
BLACK
6
CONTINUOUS
10
76.4153
20
-164.674
11
76.5106
21
-164.483
0
LINE
8
BLACK
6
CONTINUOUS
10
76.5106
20
-164.483
11
76.6058
21
-164.388
0
LINE
8
BLACK
6
CONTINUOUS
10
76.6058
20
-164.388
11
76.7963
21
-164.293
0
LINE
8
BLACK
6
CONTINUOUS
10
78.2249
20
-164.483
11
78.3201
21
-164.388
0
LINE
8
BLACK
6
CONTINUOUS
10
78.3201
20
-164.388
11
78.5106
21
-164.293
0
LINE
8
BLACK
6
CONTINUOUS
10
78.5106
20
-164.293
11
78.9868
21
-164.293
0
LINE
8
BLACK
6
CONTINUOUS
10
78.9868
20
-164.293
11
79.1772
21
-164.388
0
LINE
8
BLACK
6
CONTINUOUS
10
79.1772
20
-164.388
11
79.2725
21
-164.483
0
LINE
8
BLACK
6
CONTINUOUS
10
79.2725
20
-164.483
11
79.3677
21
-164.674
0
LINE
8
BLACK
6
CONTINUOUS
10
79.3677
20
-164.674
11
79.3677
21
-164.864
0
LINE
8
BLACK
6
CONTINUOUS
10
79.3677
20
-164.864
11
79.2725
21
-165.15
0
LINE
8
BLACK
6
CONTINUOUS
10
79.2725
20
-165.15
11
78.1296
21
-166.293
0
LINE
8
BLACK
6
CONTINUOUS
10
78.1296
20
-166.293
11
79.3677
21
-166.293
0
LINE
8
BLACK
6
CONTINUOUS
10
81.1772
20
-164.293
11
80.2249
21
-164.293
0
LINE
8
BLACK
6
CONTINUOUS
10
80.2249
20
-164.293
11
80.1296
21
-165.245
0
LINE
8
BLACK
6
CONTINUOUS
10
80.1296
20
-165.245
11
80.2249
21
-165.15
0
LINE
8
BLACK
6
CONTINUOUS
10
80.2249
20
-165.15
11
80.4153
21
-165.055
0
LINE
8
BLACK
6
CONTINUOUS
10
80.4153
20
-165.055
11
80.8915
21
-165.055
0
LINE
8
BLACK
6
CONTINUOUS
10
80.8915
20
-165.055
11
81.082
21
-165.15
0
LINE
8
BLACK
6
CONTINUOUS
10
81.082
20
-165.15
11
81.1772
21
-165.245
0
LINE
8
BLACK
6
CONTINUOUS
10
81.1772
20
-165.245
11
81.2725
21
-165.436
0
LINE
8
BLACK
6
CONTINUOUS
10
81.2725
20
-165.436
11
81.2725
21
-165.912
0
LINE
8
BLACK
6
CONTINUOUS
10
81.2725
20
-165.912
11
81.1772
21
-166.102
0
LINE
8
BLACK
6
CONTINUOUS
10
81.1772
20
-166.102
11
81.082
21
-166.198
0
LINE
8
BLACK
6
CONTINUOUS
10
81.082
20
-166.198
11
80.8915
21
-166.293
0
LINE
8
BLACK
6
CONTINUOUS
10
80.8915
20
-166.293
11
80.4153
21
-166.293
0
LINE
8
BLACK
6
CONTINUOUS
10
80.4153
20
-166.293
11
80.2249
21
-166.198
0
LINE
8
BLACK
6
CONTINUOUS
10
80.2249
20
-166.198
11
80.1296
21
-166.102
0
LINE
8
BLACK
6
CONTINUOUS
10
82.9868
20
-164.293
11
82.6058
21
-164.293
0
LINE
8
BLACK
6
CONTINUOUS
10
82.6058
20
-164.293
11
82.4153
21
-164.388
0
LINE
8
BLACK
6
CONTINUOUS
10
82.4153
20
-164.388
11
82.3201
21
-164.483
0
LINE
8
BLACK
6
CONTINUOUS
10
82.3201
20
-164.483
11
82.1296
21
-164.769
0
LINE
8
BLACK
6
CONTINUOUS
10
82.1296
20
-164.769
11
82.0344
21
-165.15
0
LINE
8
BLACK
6
CONTINUOUS
10
82.0344
20
-165.15
11
82.0344
21
-165.912
0
LINE
8
BLACK
6
CONTINUOUS
10
82.0344
20
-165.912
11
82.1296
21
-166.102
0
LINE
8
BLACK
6
CONTINUOUS
10
82.1296
20
-166.102
11
82.2249
21
-166.198
0
LINE
8
BLACK
6
CONTINUOUS
10
82.2249
20
-166.198
11
82.4153
21
-166.293
0
LINE
8
BLACK
6
CONTINUOUS
10
82.4153
20
-166.293
11
82.7963
21
-166.293
0
LINE
8
BLACK
6
CONTINUOUS
10
82.7963
20
-166.293
11
82.9868
21
-166.198
0
LINE
8
BLACK
6
CONTINUOUS
10
82.9868
20
-166.198
11
83.082
21
-166.102
0
LINE
8
BLACK
6
CONTINUOUS
10
83.082
20
-166.102
11
83.1772
21
-165.912
0
LINE
8
BLACK
6
CONTINUOUS
10
83.1772
20
-165.912
11
83.1772
21
-165.436
0
LINE
8
BLACK
6
CONTINUOUS
10
83.1772
20
-165.436
11
83.082
21
-165.245
0
LINE
8
BLACK
6
CONTINUOUS
10
83.082
20
-165.245
11
82.9868
21
-165.15
0
LINE
8
BLACK
6
CONTINUOUS
10
82.9868
20
-165.15
11
82.7963
21
-165.055
0
LINE
8
BLACK
6
CONTINUOUS
10
82.7963
20
-165.055
11
82.4153
21
-165.055
0
LINE
8
BLACK
6
CONTINUOUS
10
82.4153
20
-165.055
11
82.2249
21
-165.15
0
LINE
8
BLACK
6
CONTINUOUS
10
82.2249
20
-165.15
11
82.1296
21
-165.245
0
LINE
8
BLACK
6
CONTINUOUS
10
82.1296
20
-165.245
11
82.0344
21
-165.436
0
LINE
8
BLACK
6
CONTINUOUS
10
83.9391
20
-164.293
11
83.9391
21
-164.674
0
LINE
8
BLACK
6
CONTINUOUS
10
84.701
20
-164.293
11
84.701
21
-164.674
0
LINE
8
BLACK
6
CONTINUOUS
10
87.3296
20
-167.055
11
87.2344
21
-166.959
0
LINE
8
BLACK
6
CONTINUOUS
10
87.2344
20
-166.959
11
87.0439
21
-166.674
0
LINE
8
BLACK
6
CONTINUOUS
10
87.0439
20
-166.674
11
86.9487
21
-166.483
0
LINE
8
BLACK
6
CONTINUOUS
10
86.9487
20
-166.483
11
86.8534
21
-166.198
0
LINE
8
BLACK
6
CONTINUOUS
10
86.8534
20
-166.198
11
86.7582
21
-165.721
0
LINE
8
BLACK
6
CONTINUOUS
10
86.7582
20
-165.721
11
86.7582
21
-165.34
0
LINE
8
BLACK
6
CONTINUOUS
10
86.7582
20
-165.34
11
86.8534
21
-164.864
0
LINE
8
BLACK
6
CONTINUOUS
10
86.8534
20
-164.864
11
86.9487
21
-164.578
0
LINE
8
BLACK
6
CONTINUOUS
10
86.9487
20
-164.578
11
87.0439
21
-164.388
0
LINE
8
BLACK
6
CONTINUOUS
10
87.0439
20
-164.388
11
87.2344
21
-164.102
0
LINE
8
BLACK
6
CONTINUOUS
10
87.2344
20
-164.102
11
87.3296
21
-164.007
0
LINE
8
BLACK
6
CONTINUOUS
10
88.4725
20
-164.293
11
88.663
21
-164.293
0
LINE
8
BLACK
6
CONTINUOUS
10
88.663
20
-164.293
11
88.8534
21
-164.388
0
LINE
8
BLACK
6
CONTINUOUS
10
88.8534
20
-164.388
11
88.9487
21
-164.483
0
LINE
8
BLACK
6
CONTINUOUS
10
88.9487
20
-164.483
11
89.0439
21
-164.674
0
LINE
8
BLACK
6
CONTINUOUS
10
89.0439
20
-164.674
11
89.1391
21
-165.055
0
LINE
8
BLACK
6
CONTINUOUS
10
89.1391
20
-165.055
11
89.1391
21
-165.531
0
LINE
8
BLACK
6
CONTINUOUS
10
89.1391
20
-165.531
11
89.0439
21
-165.912
0
LINE
8
BLACK
6
CONTINUOUS
10
89.0439
20
-165.912
11
88.9487
21
-166.102
0
LINE
8
BLACK
6
CONTINUOUS
10
88.9487
20
-166.102
11
88.8534
21
-166.198
0
LINE
8
BLACK
6
CONTINUOUS
10
88.8534
20
-166.198
11
88.663
21
-166.293
0
LINE
8
BLACK
6
CONTINUOUS
10
88.663
20
-166.293
11
88.4725
21
-166.293
0
LINE
8
BLACK
6
CONTINUOUS
10
88.4725
20
-166.293
11
88.282
21
-166.198
0
LINE
8
BLACK
6
CONTINUOUS
10
88.282
20
-166.198
11
88.1868
21
-166.102
0
LINE
8
BLACK
6
CONTINUOUS
10
88.1868
20
-166.102
11
88.0915
21
-165.912
0
LINE
8
BLACK
6
CONTINUOUS
10
88.0915
20
-165.912
11
87.9963
21
-165.531
0
LINE
8
BLACK
6
CONTINUOUS
10
87.9963
20
-165.531
11
87.9963
21
-165.055
0
LINE
8
BLACK
6
CONTINUOUS
10
87.9963
20
-165.055
11
88.0915
21
-164.674
0
LINE
8
BLACK
6
CONTINUOUS
10
88.0915
20
-164.674
11
88.1868
21
-164.483
0
LINE
8
BLACK
6
CONTINUOUS
10
88.1868
20
-164.483
11
88.282
21
-164.388
0
LINE
8
BLACK
6
CONTINUOUS
10
88.282
20
-164.388
11
88.4725
21
-164.293
0
LINE
8
BLACK
6
CONTINUOUS
10
91.1963
20
-166.293
11
91.1963
21
-164.293
0
LINE
8
BLACK
6
CONTINUOUS
10
92.0534
20
-166.293
11
92.0534
21
-165.245
0
LINE
8
BLACK
6
CONTINUOUS
10
92.0534
20
-165.245
11
91.9582
21
-165.055
0
LINE
8
BLACK
6
CONTINUOUS
10
91.9582
20
-165.055
11
91.7677
21
-164.959
0
LINE
8
BLACK
6
CONTINUOUS
10
91.7677
20
-164.959
11
91.482
21
-164.959
0
LINE
8
BLACK
6
CONTINUOUS
10
91.482
20
-164.959
11
91.2915
21
-165.055
0
LINE
8
BLACK
6
CONTINUOUS
10
91.2915
20
-165.055
11
91.1963
21
-165.15
0
LINE
8
BLACK
6
CONTINUOUS
10
93.2915
20
-166.293
11
93.101
21
-166.198
0
LINE
8
BLACK
6
CONTINUOUS
10
93.101
20
-166.198
11
93.0058
21
-166.102
0
LINE
8
BLACK
6
CONTINUOUS
10
93.0058
20
-166.102
11
92.9106
21
-165.912
0
LINE
8
BLACK
6
CONTINUOUS
10
92.9106
20
-165.912
11
92.9106
21
-165.34
0
LINE
8
BLACK
6
CONTINUOUS
10
92.9106
20
-165.34
11
93.0058
21
-165.15
0
LINE
8
BLACK
6
CONTINUOUS
10
93.0058
20
-165.15
11
93.101
21
-165.055
0
LINE
8
BLACK
6
CONTINUOUS
10
93.101
20
-165.055
11
93.2915
21
-164.959
0
LINE
8
BLACK
6
CONTINUOUS
10
93.2915
20
-164.959
11
93.5772
21
-164.959
0
LINE
8
BLACK
6
CONTINUOUS
10
93.5772
20
-164.959
11
93.7677
21
-165.055
0
LINE
8
BLACK
6
CONTINUOUS
10
93.7677
20
-165.055
11
93.863
21
-165.15
0
LINE
8
BLACK
6
CONTINUOUS
10
93.863
20
-165.15
11
93.9582
21
-165.34
0
LINE
8
BLACK
6
CONTINUOUS
10
93.9582
20
-165.34
11
93.9582
21
-165.912
0
LINE
8
BLACK
6
CONTINUOUS
10
93.9582
20
-165.912
11
93.863
21
-166.102
0
LINE
8
BLACK
6
CONTINUOUS
10
93.863
20
-166.102
11
93.7677
21
-166.198
0
LINE
8
BLACK
6
CONTINUOUS
10
93.7677
20
-166.198
11
93.5772
21
-166.293
0
LINE
8
BLACK
6
CONTINUOUS
10
93.5772
20
-166.293
11
93.2915
21
-166.293
0
LINE
8
BLACK
6
CONTINUOUS
10
95.101
20
-166.293
11
94.9106
21
-166.198
0
LINE
8
BLACK
6
CONTINUOUS
10
94.9106
20
-166.198
11
94.8153
21
-166.007
0
LINE
8
BLACK
6
CONTINUOUS
10
94.8153
20
-166.007
11
94.8153
21
-164.293
0
LINE
8
BLACK
6
CONTINUOUS
10
96.6249
20
-166.198
11
96.4344
21
-166.293
0
LINE
8
BLACK
6
CONTINUOUS
10
96.4344
20
-166.293
11
96.0534
21
-166.293
0
LINE
8
BLACK
6
CONTINUOUS
10
96.0534
20
-166.293
11
95.863
21
-166.198
0
LINE
8
BLACK
6
CONTINUOUS
10
95.863
20
-166.198
11
95.7677
21
-166.007
0
LINE
8
BLACK
6
CONTINUOUS
10
95.7677
20
-166.007
11
95.7677
21
-165.245
0
LINE
8
BLACK
6
CONTINUOUS
10
95.7677
20
-165.245
11
95.863
21
-165.055
0
LINE
8
BLACK
6
CONTINUOUS
10
95.863
20
-165.055
11
96.0534
21
-164.959
0
LINE
8
BLACK
6
CONTINUOUS
10
96.0534
20
-164.959
11
96.4344
21
-164.959
0
LINE
8
BLACK
6
CONTINUOUS
10
96.4344
20
-164.959
11
96.6249
21
-165.055
0
LINE
8
BLACK
6
CONTINUOUS
10
96.6249
20
-165.055
11
96.7201
21
-165.245
0
LINE
8
BLACK
6
CONTINUOUS
10
96.7201
20
-165.245
11
96.7201
21
-165.436
0
LINE
8
BLACK
6
CONTINUOUS
10
96.7201
20
-165.436
11
95.7677
21
-165.626
0
LINE
8
BLACK
6
CONTINUOUS
10
97.482
20
-166.198
11
97.6725
21
-166.293
0
LINE
8
BLACK
6
CONTINUOUS
10
97.6725
20
-166.293
11
98.0534
21
-166.293
0
LINE
8
BLACK
6
CONTINUOUS
10
98.0534
20
-166.293
11
98.2439
21
-166.198
0
LINE
8
BLACK
6
CONTINUOUS
10
98.2439
20
-166.198
11
98.3391
21
-166.007
0
LINE
8
BLACK
6
CONTINUOUS
10
98.3391
20
-166.007
11
98.3391
21
-165.912
0
LINE
8
BLACK
6
CONTINUOUS
10
98.3391
20
-165.912
11
98.2439
21
-165.721
0
LINE
8
BLACK
6
CONTINUOUS
10
98.2439
20
-165.721
11
98.0534
21
-165.626
0
LINE
8
BLACK
6
CONTINUOUS
10
98.0534
20
-165.626
11
97.7677
21
-165.626
0
LINE
8
BLACK
6
CONTINUOUS
10
97.7677
20
-165.626
11
97.5772
21
-165.531
0
LINE
8
BLACK
6
CONTINUOUS
10
97.5772
20
-165.531
11
97.482
21
-165.34
0
LINE
8
BLACK
6
CONTINUOUS
10
97.482
20
-165.34
11
97.482
21
-165.245
0
LINE
8
BLACK
6
CONTINUOUS
10
97.482
20
-165.245
11
97.5772
21
-165.055
0
LINE
8
BLACK
6
CONTINUOUS
10
97.5772
20
-165.055
11
97.7677
21
-164.959
0
LINE
8
BLACK
6
CONTINUOUS
10
97.7677
20
-164.959
11
98.0534
21
-164.959
0
LINE
8
BLACK
6
CONTINUOUS
10
98.0534
20
-164.959
11
98.2439
21
-165.055
0
LINE
8
BLACK
6
CONTINUOUS
10
100.396
20
-165.531
11
101.92
21
-165.531
0
LINE
8
BLACK
6
CONTINUOUS
10
101.158
20
-166.293
11
101.158
21
-164.769
0
LINE
8
BLACK
6
CONTINUOUS
10
103.977
20
-164.483
11
104.072
21
-164.388
0
LINE
8
BLACK
6
CONTINUOUS
10
104.072
20
-164.388
11
104.263
21
-164.293
0
LINE
8
BLACK
6
CONTINUOUS
10
104.263
20
-164.293
11
104.739
21
-164.293
0
LINE
8
BLACK
6
CONTINUOUS
10
104.739
20
-164.293
11
104.93
21
-164.388
0
LINE
8
BLACK
6
CONTINUOUS
10
104.93
20
-164.388
11
105.025
21
-164.483
0
LINE
8
BLACK
6
CONTINUOUS
10
105.025
20
-164.483
11
105.12
21
-164.674
0
LINE
8
BLACK
6
CONTINUOUS
10
105.12
20
-164.674
11
105.12
21
-164.864
0
LINE
8
BLACK
6
CONTINUOUS
10
105.12
20
-164.864
11
105.025
21
-165.15
0
LINE
8
BLACK
6
CONTINUOUS
10
105.025
20
-165.15
11
103.882
21
-166.293
0
LINE
8
BLACK
6
CONTINUOUS
10
103.882
20
-166.293
11
105.12
21
-166.293
0
LINE
8
BLACK
6
CONTINUOUS
10
107.082
20
-166.198
11
107.272
21
-166.293
0
LINE
8
BLACK
6
CONTINUOUS
10
107.272
20
-166.293
11
107.653
21
-166.293
0
LINE
8
BLACK
6
CONTINUOUS
10
107.653
20
-166.293
11
107.844
21
-166.198
0
LINE
8
BLACK
6
CONTINUOUS
10
107.844
20
-166.198
11
107.939
21
-166.007
0
LINE
8
BLACK
6
CONTINUOUS
10
107.939
20
-166.007
11
107.939
21
-165.912
0
LINE
8
BLACK
6
CONTINUOUS
10
107.939
20
-165.912
11
107.844
21
-165.721
0
LINE
8
BLACK
6
CONTINUOUS
10
107.844
20
-165.721
11
107.653
21
-165.626
0
LINE
8
BLACK
6
CONTINUOUS
10
107.653
20
-165.626
11
107.368
21
-165.626
0
LINE
8
BLACK
6
CONTINUOUS
10
107.368
20
-165.626
11
107.177
21
-165.531
0
LINE
8
BLACK
6
CONTINUOUS
10
107.177
20
-165.531
11
107.082
21
-165.34
0
LINE
8
BLACK
6
CONTINUOUS
10
107.082
20
-165.34
11
107.082
21
-165.245
0
LINE
8
BLACK
6
CONTINUOUS
10
107.082
20
-165.245
11
107.177
21
-165.055
0
LINE
8
BLACK
6
CONTINUOUS
10
107.177
20
-165.055
11
107.368
21
-164.959
0
LINE
8
BLACK
6
CONTINUOUS
10
107.368
20
-164.959
11
107.653
21
-164.959
0
LINE
8
BLACK
6
CONTINUOUS
10
107.653
20
-164.959
11
107.844
21
-165.055
0
LINE
8
BLACK
6
CONTINUOUS
10
109.082
20
-166.293
11
108.892
21
-166.198
0
LINE
8
BLACK
6
CONTINUOUS
10
108.892
20
-166.198
11
108.796
21
-166.007
0
LINE
8
BLACK
6
CONTINUOUS
10
108.796
20
-166.007
11
108.796
21
-164.293
0
LINE
8
BLACK
6
CONTINUOUS
10
110.13
20
-166.293
11
109.939
21
-166.198
0
LINE
8
BLACK
6
CONTINUOUS
10
109.939
20
-166.198
11
109.844
21
-166.102
0
LINE
8
BLACK
6
CONTINUOUS
10
109.844
20
-166.102
11
109.749
21
-165.912
0
LINE
8
BLACK
6
CONTINUOUS
10
109.749
20
-165.912
11
109.749
21
-165.34
0
LINE
8
BLACK
6
CONTINUOUS
10
109.749
20
-165.34
11
109.844
21
-165.15
0
LINE
8
BLACK
6
CONTINUOUS
10
109.844
20
-165.15
11
109.939
21
-165.055
0
LINE
8
BLACK
6
CONTINUOUS
10
109.939
20
-165.055
11
110.13
21
-164.959
0
LINE
8
BLACK
6
CONTINUOUS
10
110.13
20
-164.959
11
110.415
21
-164.959
0
LINE
8
BLACK
6
CONTINUOUS
10
110.415
20
-164.959
11
110.606
21
-165.055
0
LINE
8
BLACK
6
CONTINUOUS
10
110.606
20
-165.055
11
110.701
21
-165.15
0
LINE
8
BLACK
6
CONTINUOUS
10
110.701
20
-165.15
11
110.796
21
-165.34
0
LINE
8
BLACK
6
CONTINUOUS
10
110.796
20
-165.34
11
110.796
21
-165.912
0
LINE
8
BLACK
6
CONTINUOUS
10
110.796
20
-165.912
11
110.701
21
-166.102
0
LINE
8
BLACK
6
CONTINUOUS
10
110.701
20
-166.102
11
110.606
21
-166.198
0
LINE
8
BLACK
6
CONTINUOUS
10
110.606
20
-166.198
11
110.415
21
-166.293
0
LINE
8
BLACK
6
CONTINUOUS
10
110.415
20
-166.293
11
110.13
21
-166.293
0
LINE
8
BLACK
6
CONTINUOUS
10
111.368
20
-164.959
11
112.13
21
-164.959
0
LINE
8
BLACK
6
CONTINUOUS
10
111.653
20
-164.293
11
111.653
21
-166.007
0
LINE
8
BLACK
6
CONTINUOUS
10
111.653
20
-166.007
11
111.749
21
-166.198
0
LINE
8
BLACK
6
CONTINUOUS
10
111.749
20
-166.198
11
111.939
21
-166.293
0
LINE
8
BLACK
6
CONTINUOUS
10
111.939
20
-166.293
11
112.13
21
-166.293
0
LINE
8
BLACK
6
CONTINUOUS
10
112.701
20
-166.198
11
112.892
21
-166.293
0
LINE
8
BLACK
6
CONTINUOUS
10
112.892
20
-166.293
11
113.272
21
-166.293
0
LINE
8
BLACK
6
CONTINUOUS
10
113.272
20
-166.293
11
113.463
21
-166.198
0
LINE
8
BLACK
6
CONTINUOUS
10
113.463
20
-166.198
11
113.558
21
-166.007
0
LINE
8
BLACK
6
CONTINUOUS
10
113.558
20
-166.007
11
113.558
21
-165.912
0
LINE
8
BLACK
6
CONTINUOUS
10
113.558
20
-165.912
11
113.463
21
-165.721
0
LINE
8
BLACK
6
CONTINUOUS
10
113.463
20
-165.721
11
113.272
21
-165.626
0
LINE
8
BLACK
6
CONTINUOUS
10
113.272
20
-165.626
11
112.987
21
-165.626
0
LINE
8
BLACK
6
CONTINUOUS
10
112.987
20
-165.626
11
112.796
21
-165.531
0
LINE
8
BLACK
6
CONTINUOUS
10
112.796
20
-165.531
11
112.701
21
-165.34
0
LINE
8
BLACK
6
CONTINUOUS
10
112.701
20
-165.34
11
112.701
21
-165.245
0
LINE
8
BLACK
6
CONTINUOUS
10
112.701
20
-165.245
11
112.796
21
-165.055
0
LINE
8
BLACK
6
CONTINUOUS
10
112.796
20
-165.055
11
112.987
21
-164.959
0
LINE
8
BLACK
6
CONTINUOUS
10
112.987
20
-164.959
11
113.272
21
-164.959
0
LINE
8
BLACK
6
CONTINUOUS
10
113.272
20
-164.959
11
113.463
21
-165.055
0
LINE
8
BLACK
6
CONTINUOUS
10
114.225
20
-167.055
11
114.32
21
-166.959
0
LINE
8
BLACK
6
CONTINUOUS
10
114.32
20
-166.959
11
114.511
21
-166.674
0
LINE
8
BLACK
6
CONTINUOUS
10
114.511
20
-166.674
11
114.606
21
-166.483
0
LINE
8
BLACK
6
CONTINUOUS
10
114.606
20
-166.483
11
114.701
21
-166.198
0
LINE
8
BLACK
6
CONTINUOUS
10
114.701
20
-166.198
11
114.796
21
-165.721
0
LINE
8
BLACK
6
CONTINUOUS
10
114.796
20
-165.721
11
114.796
21
-165.34
0
LINE
8
BLACK
6
CONTINUOUS
10
114.796
20
-165.34
11
114.701
21
-164.864
0
LINE
8
BLACK
6
CONTINUOUS
10
114.701
20
-164.864
11
114.606
21
-164.578
0
LINE
8
BLACK
6
CONTINUOUS
10
114.606
20
-164.578
11
114.511
21
-164.388
0
LINE
8
BLACK
6
CONTINUOUS
10
114.511
20
-164.388
11
114.32
21
-164.102
0
LINE
8
BLACK
6
CONTINUOUS
10
114.32
20
-164.102
11
114.225
21
-164.007
0
LINE
8
BLACK
6
CONTINUOUS
10
52.267
20
-167.783
11
52.267
21
-168.613
0
LINE
8
BLACK
6
CONTINUOUS
10
51.852
20
-168.198
11
52.682
21
-168.198
0
LINE
8
BLACK
6
CONTINUOUS
10
55.5391
20
-166.933
11
55.7296
21
-166.933
0
LINE
8
BLACK
6
CONTINUOUS
10
55.7296
20
-166.933
11
55.9201
21
-167.028
0
LINE
8
BLACK
6
CONTINUOUS
10
55.9201
20
-167.028
11
56.0153
21
-167.123
0
LINE
8
BLACK
6
CONTINUOUS
10
56.0153
20
-167.123
11
56.1106
21
-167.314
0
LINE
8
BLACK
6
CONTINUOUS
10
56.1106
20
-167.314
11
56.2058
21
-167.695
0
LINE
8
BLACK
6
CONTINUOUS
10
56.2058
20
-167.695
11
56.2058
21
-168.171
0
LINE
8
BLACK
6
CONTINUOUS
10
56.2058
20
-168.171
11
56.1106
21
-168.552
0
LINE
8
BLACK
6
CONTINUOUS
10
56.1106
20
-168.552
11
56.0153
21
-168.742
0
LINE
8
BLACK
6
CONTINUOUS
10
56.0153
20
-168.742
11
55.9201
21
-168.838
0
LINE
8
BLACK
6
CONTINUOUS
10
55.9201
20
-168.838
11
55.7296
21
-168.933
0
LINE
8
BLACK
6
CONTINUOUS
10
55.7296
20
-168.933
11
55.5391
21
-168.933
0
LINE
8
BLACK
6
CONTINUOUS
10
55.5391
20
-168.933
11
55.3487
21
-168.838
0
LINE
8
BLACK
6
CONTINUOUS
10
55.3487
20
-168.838
11
55.2534
21
-168.742
0
LINE
8
BLACK
6
CONTINUOUS
10
55.2534
20
-168.742
11
55.1582
21
-168.552
0
LINE
8
BLACK
6
CONTINUOUS
10
55.1582
20
-168.552
11
55.063
21
-168.171
0
LINE
8
BLACK
6
CONTINUOUS
10
55.063
20
-168.171
11
55.063
21
-167.695
0
LINE
8
BLACK
6
CONTINUOUS
10
55.063
20
-167.695
11
55.1582
21
-167.314
0
LINE
8
BLACK
6
CONTINUOUS
10
55.1582
20
-167.314
11
55.2534
21
-167.123
0
LINE
8
BLACK
6
CONTINUOUS
10
55.2534
20
-167.123
11
55.3487
21
-167.028
0
LINE
8
BLACK
6
CONTINUOUS
10
55.3487
20
-167.028
11
55.5391
21
-166.933
0
LINE
8
BLACK
6
CONTINUOUS
10
57.063
20
-168.742
11
57.1582
21
-168.838
0
LINE
8
BLACK
6
CONTINUOUS
10
57.1582
20
-168.838
11
57.063
21
-168.933
0
LINE
8
BLACK
6
CONTINUOUS
10
57.063
20
-168.933
11
56.9677
21
-168.838
0
LINE
8
BLACK
6
CONTINUOUS
10
56.9677
20
-168.838
11
57.063
21
-168.742
0
LINE
8
BLACK
6
CONTINUOUS
10
57.063
20
-168.742
11
57.063
21
-168.933
0
LINE
8
BLACK
6
CONTINUOUS
10
58.301
20
-167.79
11
58.1106
21
-167.695
0
LINE
8
BLACK
6
CONTINUOUS
10
58.1106
20
-167.695
11
58.0153
21
-167.599
0
LINE
8
BLACK
6
CONTINUOUS
10
58.0153
20
-167.599
11
57.9201
21
-167.409
0
LINE
8
BLACK
6
CONTINUOUS
10
57.9201
20
-167.409
11
57.9201
21
-167.314
0
LINE
8
BLACK
6
CONTINUOUS
10
57.9201
20
-167.314
11
58.0153
21
-167.123
0
LINE
8
BLACK
6
CONTINUOUS
10
58.0153
20
-167.123
11
58.1106
21
-167.028
0
LINE
8
BLACK
6
CONTINUOUS
10
58.1106
20
-167.028
11
58.301
21
-166.933
0
LINE
8
BLACK
6
CONTINUOUS
10
58.301
20
-166.933
11
58.682
21
-166.933
0
LINE
8
BLACK
6
CONTINUOUS
10
58.682
20
-166.933
11
58.8725
21
-167.028
0
LINE
8
BLACK
6
CONTINUOUS
10
58.8725
20
-167.028
11
58.9677
21
-167.123
0
LINE
8
BLACK
6
CONTINUOUS
10
58.9677
20
-167.123
11
59.063
21
-167.314
0
LINE
8
BLACK
6
CONTINUOUS
10
59.063
20
-167.314
11
59.063
21
-167.409
0
LINE
8
BLACK
6
CONTINUOUS
10
59.063
20
-167.409
11
58.9677
21
-167.599
0
LINE
8
BLACK
6
CONTINUOUS
10
58.9677
20
-167.599
11
58.8725
21
-167.695
0
LINE
8
BLACK
6
CONTINUOUS
10
58.8725
20
-167.695
11
58.682
21
-167.79
0
LINE
8
BLACK
6
CONTINUOUS
10
58.682
20
-167.79
11
58.301
21
-167.79
0
LINE
8
BLACK
6
CONTINUOUS
10
58.301
20
-167.79
11
58.1106
21
-167.885
0
LINE
8
BLACK
6
CONTINUOUS
10
58.1106
20
-167.885
11
58.0153
21
-167.98
0
LINE
8
BLACK
6
CONTINUOUS
10
58.0153
20
-167.98
11
57.9201
21
-168.171
0
LINE
8
BLACK
6
CONTINUOUS
10
57.9201
20
-168.171
11
57.9201
21
-168.552
0
LINE
8
BLACK
6
CONTINUOUS
10
57.9201
20
-168.552
11
58.0153
21
-168.742
0
LINE
8
BLACK
6
CONTINUOUS
10
58.0153
20
-168.742
11
58.1106
21
-168.838
0
LINE
8
BLACK
6
CONTINUOUS
10
58.1106
20
-168.838
11
58.301
21
-168.933
0
LINE
8
BLACK
6
CONTINUOUS
10
58.301
20
-168.933
11
58.682
21
-168.933
0
LINE
8
BLACK
6
CONTINUOUS
10
58.682
20
-168.933
11
58.8725
21
-168.838
0
LINE
8
BLACK
6
CONTINUOUS
10
58.8725
20
-168.838
11
58.9677
21
-168.742
0
LINE
8
BLACK
6
CONTINUOUS
10
58.9677
20
-168.742
11
59.063
21
-168.552
0
LINE
8
BLACK
6
CONTINUOUS
10
59.063
20
-168.552
11
59.063
21
-168.171
0
LINE
8
BLACK
6
CONTINUOUS
10
59.063
20
-168.171
11
58.9677
21
-167.98
0
LINE
8
BLACK
6
CONTINUOUS
10
58.9677
20
-167.98
11
58.8725
21
-167.885
0
LINE
8
BLACK
6
CONTINUOUS
10
58.8725
20
-167.885
11
58.682
21
-167.79
0
LINE
8
BLACK
6
CONTINUOUS
10
59.7296
20
-166.933
11
60.9677
21
-166.933
0
LINE
8
BLACK
6
CONTINUOUS
10
60.9677
20
-166.933
11
60.301
21
-167.695
0
LINE
8
BLACK
6
CONTINUOUS
10
60.301
20
-167.695
11
60.5868
21
-167.695
0
LINE
8
BLACK
6
CONTINUOUS
10
60.5868
20
-167.695
11
60.7772
21
-167.79
0
LINE
8
BLACK
6
CONTINUOUS
10
60.7772
20
-167.79
11
60.8725
21
-167.885
0
LINE
8
BLACK
6
CONTINUOUS
10
60.8725
20
-167.885
11
60.9677
21
-168.076
0
LINE
8
BLACK
6
CONTINUOUS
10
60.9677
20
-168.076
11
60.9677
21
-168.552
0
LINE
8
BLACK
6
CONTINUOUS
10
60.9677
20
-168.552
11
60.8725
21
-168.742
0
LINE
8
BLACK
6
CONTINUOUS
10
60.8725
20
-168.742
11
60.7772
21
-168.838
0
LINE
8
BLACK
6
CONTINUOUS
10
60.7772
20
-168.838
11
60.5868
21
-168.933
0
LINE
8
BLACK
6
CONTINUOUS
10
60.5868
20
-168.933
11
60.0153
21
-168.933
0
LINE
8
BLACK
6
CONTINUOUS
10
60.0153
20
-168.933
11
59.8249
21
-168.838
0
LINE
8
BLACK
6
CONTINUOUS
10
59.8249
20
-168.838
11
59.7296
21
-168.742
0
LINE
8
BLACK
6
CONTINUOUS
10
62.2058
20
-166.933
11
62.3963
21
-166.933
0
LINE
8
BLACK
6
CONTINUOUS
10
62.3963
20
-166.933
11
62.5868
21
-167.028
0
LINE
8
BLACK
6
CONTINUOUS
10
62.5868
20
-167.028
11
62.682
21
-167.123
0
LINE
8
BLACK
6
CONTINUOUS
10
62.682
20
-167.123
11
62.7772
21
-167.314
0
LINE
8
BLACK
6
CONTINUOUS
10
62.7772
20
-167.314
11
62.8725
21
-167.695
0
LINE
8
BLACK
6
CONTINUOUS
10
62.8725
20
-167.695
11
62.8725
21
-168.171
0
LINE
8
BLACK
6
CONTINUOUS
10
62.8725
20
-168.171
11
62.7772
21
-168.552
0
LINE
8
BLACK
6
CONTINUOUS
10
62.7772
20
-168.552
11
62.682
21
-168.742
0
LINE
8
BLACK
6
CONTINUOUS
10
62.682
20
-168.742
11
62.5868
21
-168.838
0
LINE
8
BLACK
6
CONTINUOUS
10
62.5868
20
-168.838
11
62.3963
21
-168.933
0
LINE
8
BLACK
6
CONTINUOUS
10
62.3963
20
-168.933
11
62.2058
21
-168.933
0
LINE
8
BLACK
6
CONTINUOUS
10
62.2058
20
-168.933
11
62.0153
21
-168.838
0
LINE
8
BLACK
6
CONTINUOUS
10
62.0153
20
-168.838
11
61.9201
21
-168.742
0
LINE
8
BLACK
6
CONTINUOUS
10
61.9201
20
-168.742
11
61.8249
21
-168.552
0
LINE
8
BLACK
6
CONTINUOUS
10
61.8249
20
-168.552
11
61.7296
21
-168.171
0
LINE
8
BLACK
6
CONTINUOUS
10
61.7296
20
-168.171
11
61.7296
21
-167.695
0
LINE
8
BLACK
6
CONTINUOUS
10
61.7296
20
-167.695
11
61.8249
21
-167.314
0
LINE
8
BLACK
6
CONTINUOUS
10
61.8249
20
-167.314
11
61.9201
21
-167.123
0
LINE
8
BLACK
6
CONTINUOUS
10
61.9201
20
-167.123
11
62.0153
21
-167.028
0
LINE
8
BLACK
6
CONTINUOUS
10
62.0153
20
-167.028
11
62.2058
21
-166.933
0
LINE
8
BLACK
6
CONTINUOUS
10
63.7296
20
-168.933
11
63.7296
21
-167.599
0
LINE
8
BLACK
6
CONTINUOUS
10
63.7296
20
-167.79
11
63.8249
21
-167.695
0
LINE
8
BLACK
6
CONTINUOUS
10
63.8249
20
-167.695
11
64.0153
21
-167.599
0
LINE
8
BLACK
6
CONTINUOUS
10
64.0153
20
-167.599
11
64.301
21
-167.599
0
LINE
8
BLACK
6
CONTINUOUS
10
64.301
20
-167.599
11
64.4915
21
-167.695
0
LINE
8
BLACK
6
CONTINUOUS
10
64.4915
20
-167.695
11
64.5868
21
-167.885
0
LINE
8
BLACK
6
CONTINUOUS
10
64.5868
20
-167.885
11
64.5868
21
-168.933
0
LINE
8
BLACK
6
CONTINUOUS
10
64.5868
20
-167.885
11
64.682
21
-167.695
0
LINE
8
BLACK
6
CONTINUOUS
10
64.682
20
-167.695
11
64.8725
21
-167.599
0
LINE
8
BLACK
6
CONTINUOUS
10
64.8725
20
-167.599
11
65.1582
21
-167.599
0
LINE
8
BLACK
6
CONTINUOUS
10
65.1582
20
-167.599
11
65.3487
21
-167.695
0
LINE
8
BLACK
6
CONTINUOUS
10
65.3487
20
-167.695
11
65.4439
21
-167.885
0
LINE
8
BLACK
6
CONTINUOUS
10
65.4439
20
-167.885
11
65.4439
21
-168.933
0
LINE
8
BLACK
6
CONTINUOUS
10
66.3963
20
-168.933
11
66.3963
21
-167.599
0
LINE
8
BLACK
6
CONTINUOUS
10
66.3963
20
-167.79
11
66.4915
21
-167.695
0
LINE
8
BLACK
6
CONTINUOUS
10
66.4915
20
-167.695
11
66.682
21
-167.599
0
LINE
8
BLACK
6
CONTINUOUS
10
66.682
20
-167.599
11
66.9677
21
-167.599
0
LINE
8
BLACK
6
CONTINUOUS
10
66.9677
20
-167.599
11
67.1582
21
-167.695
0
LINE
8
BLACK
6
CONTINUOUS
10
67.1582
20
-167.695
11
67.2534
21
-167.885
0
LINE
8
BLACK
6
CONTINUOUS
10
67.2534
20
-167.885
11
67.2534
21
-168.933
0
LINE
8
BLACK
6
CONTINUOUS
10
67.2534
20
-167.885
11
67.3487
21
-167.695
0
LINE
8
BLACK
6
CONTINUOUS
10
67.3487
20
-167.695
11
67.5391
21
-167.599
0
LINE
8
BLACK
6
CONTINUOUS
10
67.5391
20
-167.599
11
67.8249
21
-167.599
0
LINE
8
BLACK
6
CONTINUOUS
10
67.8249
20
-167.599
11
68.0153
21
-167.695
0
LINE
8
BLACK
6
CONTINUOUS
10
68.0153
20
-167.695
11
68.1106
21
-167.885
0
LINE
8
BLACK
6
CONTINUOUS
10
68.1106
20
-167.885
11
68.1106
21
-168.933
0
LINE
8
BLACK
6
CONTINUOUS
10
71.6915
20
-166.838
11
69.9772
21
-169.409
0
LINE
8
BLACK
6
CONTINUOUS
10
73.9391
20
-166.933
11
74.1296
21
-166.933
0
LINE
8
BLACK
6
CONTINUOUS
10
74.1296
20
-166.933
11
74.3201
21
-167.028
0
LINE
8
BLACK
6
CONTINUOUS
10
74.3201
20
-167.028
11
74.4153
21
-167.123
0
LINE
8
BLACK
6
CONTINUOUS
10
74.4153
20
-167.123
11
74.5106
21
-167.314
0
LINE
8
BLACK
6
CONTINUOUS
10
74.5106
20
-167.314
11
74.6058
21
-167.695
0
LINE
8
BLACK
6
CONTINUOUS
10
74.6058
20
-167.695
11
74.6058
21
-168.171
0
LINE
8
BLACK
6
CONTINUOUS
10
74.6058
20
-168.171
11
74.5106
21
-168.552
0
LINE
8
BLACK
6
CONTINUOUS
10
74.5106
20
-168.552
11
74.4153
21
-168.742
0
LINE
8
BLACK
6
CONTINUOUS
10
74.4153
20
-168.742
11
74.3201
21
-168.838
0
LINE
8
BLACK
6
CONTINUOUS
10
74.3201
20
-168.838
11
74.1296
21
-168.933
0
LINE
8
BLACK
6
CONTINUOUS
10
74.1296
20
-168.933
11
73.9391
21
-168.933
0
LINE
8
BLACK
6
CONTINUOUS
10
73.9391
20
-168.933
11
73.7487
21
-168.838
0
LINE
8
BLACK
6
CONTINUOUS
10
73.7487
20
-168.838
11
73.6534
21
-168.742
0
LINE
8
BLACK
6
CONTINUOUS
10
73.6534
20
-168.742
11
73.5582
21
-168.552
0
LINE
8
BLACK
6
CONTINUOUS
10
73.5582
20
-168.552
11
73.463
21
-168.171
0
LINE
8
BLACK
6
CONTINUOUS
10
73.463
20
-168.171
11
73.463
21
-167.695
0
LINE
8
BLACK
6
CONTINUOUS
10
73.463
20
-167.695
11
73.5582
21
-167.314
0
LINE
8
BLACK
6
CONTINUOUS
10
73.5582
20
-167.314
11
73.6534
21
-167.123
0
LINE
8
BLACK
6
CONTINUOUS
10
73.6534
20
-167.123
11
73.7487
21
-167.028
0
LINE
8
BLACK
6
CONTINUOUS
10
73.7487
20
-167.028
11
73.9391
21
-166.933
0
LINE
8
BLACK
6
CONTINUOUS
10
75.463
20
-168.742
11
75.5582
21
-168.838
0
LINE
8
BLACK
6
CONTINUOUS
10
75.5582
20
-168.838
11
75.463
21
-168.933
0
LINE
8
BLACK
6
CONTINUOUS
10
75.463
20
-168.933
11
75.3677
21
-168.838
0
LINE
8
BLACK
6
CONTINUOUS
10
75.3677
20
-168.838
11
75.463
21
-168.742
0
LINE
8
BLACK
6
CONTINUOUS
10
75.463
20
-168.742
11
75.463
21
-168.933
0
LINE
8
BLACK
6
CONTINUOUS
10
76.7963
20
-166.933
11
76.9868
21
-166.933
0
LINE
8
BLACK
6
CONTINUOUS
10
76.9868
20
-166.933
11
77.1772
21
-167.028
0
LINE
8
BLACK
6
CONTINUOUS
10
77.1772
20
-167.028
11
77.2725
21
-167.123
0
LINE
8
BLACK
6
CONTINUOUS
10
77.2725
20
-167.123
11
77.3677
21
-167.314
0
LINE
8
BLACK
6
CONTINUOUS
10
77.3677
20
-167.314
11
77.463
21
-167.695
0
LINE
8
BLACK
6
CONTINUOUS
10
77.463
20
-167.695
11
77.463
21
-168.171
0
LINE
8
BLACK
6
CONTINUOUS
10
77.463
20
-168.171
11
77.3677
21
-168.552
0
LINE
8
BLACK
6
CONTINUOUS
10
77.3677
20
-168.552
11
77.2725
21
-168.742
0
LINE
8
BLACK
6
CONTINUOUS
10
77.2725
20
-168.742
11
77.1772
21
-168.838
0
LINE
8
BLACK
6
CONTINUOUS
10
77.1772
20
-168.838
11
76.9868
21
-168.933
0
LINE
8
BLACK
6
CONTINUOUS
10
76.9868
20
-168.933
11
76.7963
21
-168.933
0
LINE
8
BLACK
6
CONTINUOUS
10
76.7963
20
-168.933
11
76.6058
21
-168.838
0
LINE
8
BLACK
6
CONTINUOUS
10
76.6058
20
-168.838
11
76.5106
21
-168.742
0
LINE
8
BLACK
6
CONTINUOUS
10
76.5106
20
-168.742
11
76.4153
21
-168.552
0
LINE
8
BLACK
6
CONTINUOUS
10
76.4153
20
-168.552
11
76.3201
21
-168.171
0
LINE
8
BLACK
6
CONTINUOUS
10
76.3201
20
-168.171
11
76.3201
21
-167.695
0
LINE
8
BLACK
6
CONTINUOUS
10
76.3201
20
-167.695
11
76.4153
21
-167.314
0
LINE
8
BLACK
6
CONTINUOUS
10
76.4153
20
-167.314
11
76.5106
21
-167.123
0
LINE
8
BLACK
6
CONTINUOUS
10
76.5106
20
-167.123
11
76.6058
21
-167.028
0
LINE
8
BLACK
6
CONTINUOUS
10
76.6058
20
-167.028
11
76.7963
21
-166.933
0
LINE
8
BLACK
6
CONTINUOUS
10
78.1296
20
-166.933
11
79.3677
21
-166.933
0
LINE
8
BLACK
6
CONTINUOUS
10
79.3677
20
-166.933
11
78.701
21
-167.695
0
LINE
8
BLACK
6
CONTINUOUS
10
78.701
20
-167.695
11
78.9868
21
-167.695
0
LINE
8
BLACK
6
CONTINUOUS
10
78.9868
20
-167.695
11
79.1772
21
-167.79
0
LINE
8
BLACK
6
CONTINUOUS
10
79.1772
20
-167.79
11
79.2725
21
-167.885
0
LINE
8
BLACK
6
CONTINUOUS
10
79.2725
20
-167.885
11
79.3677
21
-168.076
0
LINE
8
BLACK
6
CONTINUOUS
10
79.3677
20
-168.076
11
79.3677
21
-168.552
0
LINE
8
BLACK
6
CONTINUOUS
10
79.3677
20
-168.552
11
79.2725
21
-168.742
0
LINE
8
BLACK
6
CONTINUOUS
10
79.2725
20
-168.742
11
79.1772
21
-168.838
0
LINE
8
BLACK
6
CONTINUOUS
10
79.1772
20
-168.838
11
78.9868
21
-168.933
0
LINE
8
BLACK
6
CONTINUOUS
10
78.9868
20
-168.933
11
78.4153
21
-168.933
0
LINE
8
BLACK
6
CONTINUOUS
10
78.4153
20
-168.933
11
78.2249
21
-168.838
0
LINE
8
BLACK
6
CONTINUOUS
10
78.2249
20
-168.838
11
78.1296
21
-168.742
0
LINE
8
BLACK
6
CONTINUOUS
10
80.1296
20
-167.123
11
80.2249
21
-167.028
0
LINE
8
BLACK
6
CONTINUOUS
10
80.2249
20
-167.028
11
80.4153
21
-166.933
0
LINE
8
BLACK
6
CONTINUOUS
10
80.4153
20
-166.933
11
80.8915
21
-166.933
0
LINE
8
BLACK
6
CONTINUOUS
10
80.8915
20
-166.933
11
81.082
21
-167.028
0
LINE
8
BLACK
6
CONTINUOUS
10
81.082
20
-167.028
11
81.1772
21
-167.123
0
LINE
8
BLACK
6
CONTINUOUS
10
81.1772
20
-167.123
11
81.2725
21
-167.314
0
LINE
8
BLACK
6
CONTINUOUS
10
81.2725
20
-167.314
11
81.2725
21
-167.504
0
LINE
8
BLACK
6
CONTINUOUS
10
81.2725
20
-167.504
11
81.1772
21
-167.79
0
LINE
8
BLACK
6
CONTINUOUS
10
81.1772
20
-167.79
11
80.0344
21
-168.933
0
LINE
8
BLACK
6
CONTINUOUS
10
80.0344
20
-168.933
11
81.2725
21
-168.933
0
LINE
8
BLACK
6
CONTINUOUS
10
81.9391
20
-166.933
11
83.2725
21
-166.933
0
LINE
8
BLACK
6
CONTINUOUS
10
83.2725
20
-166.933
11
82.4153
21
-168.933
0
LINE
8
BLACK
6
CONTINUOUS
10
83.9391
20
-166.933
11
83.9391
21
-167.314
0
LINE
8
BLACK
6
CONTINUOUS
10
84.701
20
-166.933
11
84.701
21
-167.314
0
LINE
8
BLACK
6
CONTINUOUS
10
87.3296
20
-169.695
11
87.2344
21
-169.599
0
LINE
8
BLACK
6
CONTINUOUS
10
87.2344
20
-169.599
11
87.0439
21
-169.314
0
LINE
8
BLACK
6
CONTINUOUS
10
87.0439
20
-169.314
11
86.9487
21
-169.123
0
LINE
8
BLACK
6
CONTINUOUS
10
86.9487
20
-169.123
11
86.8534
21
-168.838
0
LINE
8
BLACK
6
CONTINUOUS
10
86.8534
20
-168.838
11
86.7582
21
-168.361
0
LINE
8
BLACK
6
CONTINUOUS
10
86.7582
20
-168.361
11
86.7582
21
-167.98
0
LINE
8
BLACK
6
CONTINUOUS
10
86.7582
20
-167.98
11
86.8534
21
-167.504
0
LINE
8
BLACK
6
CONTINUOUS
10
86.8534
20
-167.504
11
86.9487
21
-167.218
0
LINE
8
BLACK
6
CONTINUOUS
10
86.9487
20
-167.218
11
87.0439
21
-167.028
0
LINE
8
BLACK
6
CONTINUOUS
10
87.0439
20
-167.028
11
87.2344
21
-166.742
0
LINE
8
BLACK
6
CONTINUOUS
10
87.2344
20
-166.742
11
87.3296
21
-166.647
0
LINE
8
BLACK
6
CONTINUOUS
10
88.4725
20
-166.933
11
88.663
21
-166.933
0
LINE
8
BLACK
6
CONTINUOUS
10
88.663
20
-166.933
11
88.8534
21
-167.028
0
LINE
8
BLACK
6
CONTINUOUS
10
88.8534
20
-167.028
11
88.9487
21
-167.123
0
LINE
8
BLACK
6
CONTINUOUS
10
88.9487
20
-167.123
11
89.0439
21
-167.314
0
LINE
8
BLACK
6
CONTINUOUS
10
89.0439
20
-167.314
11
89.1391
21
-167.695
0
LINE
8
BLACK
6
CONTINUOUS
10
89.1391
20
-167.695
11
89.1391
21
-168.171
0
LINE
8
BLACK
6
CONTINUOUS
10
89.1391
20
-168.171
11
89.0439
21
-168.552
0
LINE
8
BLACK
6
CONTINUOUS
10
89.0439
20
-168.552
11
88.9487
21
-168.742
0
LINE
8
BLACK
6
CONTINUOUS
10
88.9487
20
-168.742
11
88.8534
21
-168.838
0
LINE
8
BLACK
6
CONTINUOUS
10
88.8534
20
-168.838
11
88.663
21
-168.933
0
LINE
8
BLACK
6
CONTINUOUS
10
88.663
20
-168.933
11
88.4725
21
-168.933
0
LINE
8
BLACK
6
CONTINUOUS
10
88.4725
20
-168.933
11
88.282
21
-168.838
0
LINE
8
BLACK
6
CONTINUOUS
10
88.282
20
-168.838
11
88.1868
21
-168.742
0
LINE
8
BLACK
6
CONTINUOUS
10
88.1868
20
-168.742
11
88.0915
21
-168.552
0
LINE
8
BLACK
6
CONTINUOUS
10
88.0915
20
-168.552
11
87.9963
21
-168.171
0
LINE
8
BLACK
6
CONTINUOUS
10
87.9963
20
-168.171
11
87.9963
21
-167.695
0
LINE
8
BLACK
6
CONTINUOUS
10
87.9963
20
-167.695
11
88.0915
21
-167.314
0
LINE
8
BLACK
6
CONTINUOUS
10
88.0915
20
-167.314
11
88.1868
21
-167.123
0
LINE
8
BLACK
6
CONTINUOUS
10
88.1868
20
-167.123
11
88.282
21
-167.028
0
LINE
8
BLACK
6
CONTINUOUS
10
88.282
20
-167.028
11
88.4725
21
-166.933
0
LINE
8
BLACK
6
CONTINUOUS
10
91.1963
20
-168.933
11
91.1963
21
-166.933
0
LINE
8
BLACK
6
CONTINUOUS
10
92.0534
20
-168.933
11
92.0534
21
-167.885
0
LINE
8
BLACK
6
CONTINUOUS
10
92.0534
20
-167.885
11
91.9582
21
-167.695
0
LINE
8
BLACK
6
CONTINUOUS
10
91.9582
20
-167.695
11
91.7677
21
-167.599
0
LINE
8
BLACK
6
CONTINUOUS
10
91.7677
20
-167.599
11
91.482
21
-167.599
0
LINE
8
BLACK
6
CONTINUOUS
10
91.482
20
-167.599
11
91.2915
21
-167.695
0
LINE
8
BLACK
6
CONTINUOUS
10
91.2915
20
-167.695
11
91.1963
21
-167.79
0
LINE
8
BLACK
6
CONTINUOUS
10
93.2915
20
-168.933
11
93.101
21
-168.838
0
LINE
8
BLACK
6
CONTINUOUS
10
93.101
20
-168.838
11
93.0058
21
-168.742
0
LINE
8
BLACK
6
CONTINUOUS
10
93.0058
20
-168.742
11
92.9106
21
-168.552
0
LINE
8
BLACK
6
CONTINUOUS
10
92.9106
20
-168.552
11
92.9106
21
-167.98
0
LINE
8
BLACK
6
CONTINUOUS
10
92.9106
20
-167.98
11
93.0058
21
-167.79
0
LINE
8
BLACK
6
CONTINUOUS
10
93.0058
20
-167.79
11
93.101
21
-167.695
0
LINE
8
BLACK
6
CONTINUOUS
10
93.101
20
-167.695
11
93.2915
21
-167.599
0
LINE
8
BLACK
6
CONTINUOUS
10
93.2915
20
-167.599
11
93.5772
21
-167.599
0
LINE
8
BLACK
6
CONTINUOUS
10
93.5772
20
-167.599
11
93.7677
21
-167.695
0
LINE
8
BLACK
6
CONTINUOUS
10
93.7677
20
-167.695
11
93.863
21
-167.79
0
LINE
8
BLACK
6
CONTINUOUS
10
93.863
20
-167.79
11
93.9582
21
-167.98
0
LINE
8
BLACK
6
CONTINUOUS
10
93.9582
20
-167.98
11
93.9582
21
-168.552
0
LINE
8
BLACK
6
CONTINUOUS
10
93.9582
20
-168.552
11
93.863
21
-168.742
0
LINE
8
BLACK
6
CONTINUOUS
10
93.863
20
-168.742
11
93.7677
21
-168.838
0
LINE
8
BLACK
6
CONTINUOUS
10
93.7677
20
-168.838
11
93.5772
21
-168.933
0
LINE
8
BLACK
6
CONTINUOUS
10
93.5772
20
-168.933
11
93.2915
21
-168.933
0
LINE
8
BLACK
6
CONTINUOUS
10
95.101
20
-168.933
11
94.9106
21
-168.838
0
LINE
8
BLACK
6
CONTINUOUS
10
94.9106
20
-168.838
11
94.8153
21
-168.647
0
LINE
8
BLACK
6
CONTINUOUS
10
94.8153
20
-168.647
11
94.8153
21
-166.933
0
LINE
8
BLACK
6
CONTINUOUS
10
96.6249
20
-168.838
11
96.4344
21
-168.933
0
LINE
8
BLACK
6
CONTINUOUS
10
96.4344
20
-168.933
11
96.0534
21
-168.933
0
LINE
8
BLACK
6
CONTINUOUS
10
96.0534
20
-168.933
11
95.863
21
-168.838
0
LINE
8
BLACK
6
CONTINUOUS
10
95.863
20
-168.838
11
95.7677
21
-168.647
0
LINE
8
BLACK
6
CONTINUOUS
10
95.7677
20
-168.647
11
95.7677
21
-167.885
0
LINE
8
BLACK
6
CONTINUOUS
10
95.7677
20
-167.885
11
95.863
21
-167.695
0
LINE
8
BLACK
6
CONTINUOUS
10
95.863
20
-167.695
11
96.0534
21
-167.599
0
LINE
8
BLACK
6
CONTINUOUS
10
96.0534
20
-167.599
11
96.4344
21
-167.599
0
LINE
8
BLACK
6
CONTINUOUS
10
96.4344
20
-167.599
11
96.6249
21
-167.695
0
LINE
8
BLACK
6
CONTINUOUS
10
96.6249
20
-167.695
11
96.7201
21
-167.885
0
LINE
8
BLACK
6
CONTINUOUS
10
96.7201
20
-167.885
11
96.7201
21
-168.076
0
LINE
8
BLACK
6
CONTINUOUS
10
96.7201
20
-168.076
11
95.7677
21
-168.266
0
LINE
8
BLACK
6
CONTINUOUS
10
97.482
20
-168.838
11
97.6725
21
-168.933
0
LINE
8
BLACK
6
CONTINUOUS
10
97.6725
20
-168.933
11
98.0534
21
-168.933
0
LINE
8
BLACK
6
CONTINUOUS
10
98.0534
20
-168.933
11
98.2439
21
-168.838
0
LINE
8
BLACK
6
CONTINUOUS
10
98.2439
20
-168.838
11
98.3391
21
-168.647
0
LINE
8
BLACK
6
CONTINUOUS
10
98.3391
20
-168.647
11
98.3391
21
-168.552
0
LINE
8
BLACK
6
CONTINUOUS
10
98.3391
20
-168.552
11
98.2439
21
-168.361
0
LINE
8
BLACK
6
CONTINUOUS
10
98.2439
20
-168.361
11
98.0534
21
-168.266
0
LINE
8
BLACK
6
CONTINUOUS
10
98.0534
20
-168.266
11
97.7677
21
-168.266
0
LINE
8
BLACK
6
CONTINUOUS
10
97.7677
20
-168.266
11
97.5772
21
-168.171
0
LINE
8
BLACK
6
CONTINUOUS
10
97.5772
20
-168.171
11
97.482
21
-167.98
0
LINE
8
BLACK
6
CONTINUOUS
10
97.482
20
-167.98
11
97.482
21
-167.885
0
LINE
8
BLACK
6
CONTINUOUS
10
97.482
20
-167.885
11
97.5772
21
-167.695
0
LINE
8
BLACK
6
CONTINUOUS
10
97.5772
20
-167.695
11
97.7677
21
-167.599
0
LINE
8
BLACK
6
CONTINUOUS
10
97.7677
20
-167.599
11
98.0534
21
-167.599
0
LINE
8
BLACK
6
CONTINUOUS
10
98.0534
20
-167.599
11
98.2439
21
-167.695
0
LINE
8
BLACK
6
CONTINUOUS
10
100.396
20
-168.171
11
101.92
21
-168.171
0
LINE
8
BLACK
6
CONTINUOUS
10
101.158
20
-168.933
11
101.158
21
-167.409
0
LINE
8
BLACK
6
CONTINUOUS
10
103.977
20
-167.123
11
104.072
21
-167.028
0
LINE
8
BLACK
6
CONTINUOUS
10
104.072
20
-167.028
11
104.263
21
-166.933
0
LINE
8
BLACK
6
CONTINUOUS
10
104.263
20
-166.933
11
104.739
21
-166.933
0
LINE
8
BLACK
6
CONTINUOUS
10
104.739
20
-166.933
11
104.93
21
-167.028
0
LINE
8
BLACK
6
CONTINUOUS
10
104.93
20
-167.028
11
105.025
21
-167.123
0
LINE
8
BLACK
6
CONTINUOUS
10
105.025
20
-167.123
11
105.12
21
-167.314
0
LINE
8
BLACK
6
CONTINUOUS
10
105.12
20
-167.314
11
105.12
21
-167.504
0
LINE
8
BLACK
6
CONTINUOUS
10
105.12
20
-167.504
11
105.025
21
-167.79
0
LINE
8
BLACK
6
CONTINUOUS
10
105.025
20
-167.79
11
103.882
21
-168.933
0
LINE
8
BLACK
6
CONTINUOUS
10
103.882
20
-168.933
11
105.12
21
-168.933
0
LINE
8
BLACK
6
CONTINUOUS
10
107.082
20
-168.838
11
107.272
21
-168.933
0
LINE
8
BLACK
6
CONTINUOUS
10
107.272
20
-168.933
11
107.653
21
-168.933
0
LINE
8
BLACK
6
CONTINUOUS
10
107.653
20
-168.933
11
107.844
21
-168.838
0
LINE
8
BLACK
6
CONTINUOUS
10
107.844
20
-168.838
11
107.939
21
-168.647
0
LINE
8
BLACK
6
CONTINUOUS
10
107.939
20
-168.647
11
107.939
21
-168.552
0
LINE
8
BLACK
6
CONTINUOUS
10
107.939
20
-168.552
11
107.844
21
-168.361
0
LINE
8
BLACK
6
CONTINUOUS
10
107.844
20
-168.361
11
107.653
21
-168.266
0
LINE
8
BLACK
6
CONTINUOUS
10
107.653
20
-168.266
11
107.368
21
-168.266
0
LINE
8
BLACK
6
CONTINUOUS
10
107.368
20
-168.266
11
107.177
21
-168.171
0
LINE
8
BLACK
6
CONTINUOUS
10
107.177
20
-168.171
11
107.082
21
-167.98
0
LINE
8
BLACK
6
CONTINUOUS
10
107.082
20
-167.98
11
107.082
21
-167.885
0
LINE
8
BLACK
6
CONTINUOUS
10
107.082
20
-167.885
11
107.177
21
-167.695
0
LINE
8
BLACK
6
CONTINUOUS
10
107.177
20
-167.695
11
107.368
21
-167.599
0
LINE
8
BLACK
6
CONTINUOUS
10
107.368
20
-167.599
11
107.653
21
-167.599
0
LINE
8
BLACK
6
CONTINUOUS
10
107.653
20
-167.599
11
107.844
21
-167.695
0
LINE
8
BLACK
6
CONTINUOUS
10
109.082
20
-168.933
11
108.892
21
-168.838
0
LINE
8
BLACK
6
CONTINUOUS
10
108.892
20
-168.838
11
108.796
21
-168.647
0
LINE
8
BLACK
6
CONTINUOUS
10
108.796
20
-168.647
11
108.796
21
-166.933
0
LINE
8
BLACK
6
CONTINUOUS
10
110.13
20
-168.933
11
109.939
21
-168.838
0
LINE
8
BLACK
6
CONTINUOUS
10
109.939
20
-168.838
11
109.844
21
-168.742
0
LINE
8
BLACK
6
CONTINUOUS
10
109.844
20
-168.742
11
109.749
21
-168.552
0
LINE
8
BLACK
6
CONTINUOUS
10
109.749
20
-168.552
11
109.749
21
-167.98
0
LINE
8
BLACK
6
CONTINUOUS
10
109.749
20
-167.98
11
109.844
21
-167.79
0
LINE
8
BLACK
6
CONTINUOUS
10
109.844
20
-167.79
11
109.939
21
-167.695
0
LINE
8
BLACK
6
CONTINUOUS
10
109.939
20
-167.695
11
110.13
21
-167.599
0
LINE
8
BLACK
6
CONTINUOUS
10
110.13
20
-167.599
11
110.415
21
-167.599
0
LINE
8
BLACK
6
CONTINUOUS
10
110.415
20
-167.599
11
110.606
21
-167.695
0
LINE
8
BLACK
6
CONTINUOUS
10
110.606
20
-167.695
11
110.701
21
-167.79
0
LINE
8
BLACK
6
CONTINUOUS
10
110.701
20
-167.79
11
110.796
21
-167.98
0
LINE
8
BLACK
6
CONTINUOUS
10
110.796
20
-167.98
11
110.796
21
-168.552
0
LINE
8
BLACK
6
CONTINUOUS
10
110.796
20
-168.552
11
110.701
21
-168.742
0
LINE
8
BLACK
6
CONTINUOUS
10
110.701
20
-168.742
11
110.606
21
-168.838
0
LINE
8
BLACK
6
CONTINUOUS
10
110.606
20
-168.838
11
110.415
21
-168.933
0
LINE
8
BLACK
6
CONTINUOUS
10
110.415
20
-168.933
11
110.13
21
-168.933
0
LINE
8
BLACK
6
CONTINUOUS
10
111.368
20
-167.599
11
112.13
21
-167.599
0
LINE
8
BLACK
6
CONTINUOUS
10
111.653
20
-166.933
11
111.653
21
-168.647
0
LINE
8
BLACK
6
CONTINUOUS
10
111.653
20
-168.647
11
111.749
21
-168.838
0
LINE
8
BLACK
6
CONTINUOUS
10
111.749
20
-168.838
11
111.939
21
-168.933
0
LINE
8
BLACK
6
CONTINUOUS
10
111.939
20
-168.933
11
112.13
21
-168.933
0
LINE
8
BLACK
6
CONTINUOUS
10
112.701
20
-168.838
11
112.892
21
-168.933
0
LINE
8
BLACK
6
CONTINUOUS
10
112.892
20
-168.933
11
113.272
21
-168.933
0
LINE
8
BLACK
6
CONTINUOUS
10
113.272
20
-168.933
11
113.463
21
-168.838
0
LINE
8
BLACK
6
CONTINUOUS
10
113.463
20
-168.838
11
113.558
21
-168.647
0
LINE
8
BLACK
6
CONTINUOUS
10
113.558
20
-168.647
11
113.558
21
-168.552
0
LINE
8
BLACK
6
CONTINUOUS
10
113.558
20
-168.552
11
113.463
21
-168.361
0
LINE
8
BLACK
6
CONTINUOUS
10
113.463
20
-168.361
11
113.272
21
-168.266
0
LINE
8
BLACK
6
CONTINUOUS
10
113.272
20
-168.266
11
112.987
21
-168.266
0
LINE
8
BLACK
6
CONTINUOUS
10
112.987
20
-168.266
11
112.796
21
-168.171
0
LINE
8
BLACK
6
CONTINUOUS
10
112.796
20
-168.171
11
112.701
21
-167.98
0
LINE
8
BLACK
6
CONTINUOUS
10
112.701
20
-167.98
11
112.701
21
-167.885
0
LINE
8
BLACK
6
CONTINUOUS
10
112.701
20
-167.885
11
112.796
21
-167.695
0
LINE
8
BLACK
6
CONTINUOUS
10
112.796
20
-167.695
11
112.987
21
-167.599
0
LINE
8
BLACK
6
CONTINUOUS
10
112.987
20
-167.599
11
113.272
21
-167.599
0
LINE
8
BLACK
6
CONTINUOUS
10
113.272
20
-167.599
11
113.463
21
-167.695
0
LINE
8
BLACK
6
CONTINUOUS
10
114.225
20
-169.695
11
114.32
21
-169.599
0
LINE
8
BLACK
6
CONTINUOUS
10
114.32
20
-169.599
11
114.511
21
-169.314
0
LINE
8
BLACK
6
CONTINUOUS
10
114.511
20
-169.314
11
114.606
21
-169.123
0
LINE
8
BLACK
6
CONTINUOUS
10
114.606
20
-169.123
11
114.701
21
-168.838
0
LINE
8
BLACK
6
CONTINUOUS
10
114.701
20
-168.838
11
114.796
21
-168.361
0
LINE
8
BLACK
6
CONTINUOUS
10
114.796
20
-168.361
11
114.796
21
-167.98
0
LINE
8
BLACK
6
CONTINUOUS
10
114.796
20
-167.98
11
114.701
21
-167.504
0
LINE
8
BLACK
6
CONTINUOUS
10
114.701
20
-167.504
11
114.606
21
-167.218
0
LINE
8
BLACK
6
CONTINUOUS
10
114.606
20
-167.218
11
114.511
21
-167.028
0
LINE
8
BLACK
6
CONTINUOUS
10
114.511
20
-167.028
11
114.32
21
-166.742
0
LINE
8
BLACK
6
CONTINUOUS
10
114.32
20
-166.742
11
114.225
21
-166.647
0
LINE
8
BLACK
6
CONTINUOUS
10
52.5517
20
-171.153
11
52.5517
21
-170.523
0
LINE
8
BLACK
6
CONTINUOUS
10
52.5517
20
-170.523
11
51.9223
21
-170.523
0
LINE
8
BLACK
6
CONTINUOUS
10
51.9223
20
-170.523
11
51.9223
21
-171.153
0
LINE
8
BLACK
6
CONTINUOUS
10
51.9223
20
-171.153
11
52.5517
21
-171.153
0
LINE
8
BLACK
6
CONTINUOUS
10
55.5391
20
-169.573
11
55.7296
21
-169.573
0
LINE
8
BLACK
6
CONTINUOUS
10
55.7296
20
-169.573
11
55.9201
21
-169.668
0
LINE
8
BLACK
6
CONTINUOUS
10
55.9201
20
-169.668
11
56.0153
21
-169.763
0
LINE
8
BLACK
6
CONTINUOUS
10
56.0153
20
-169.763
11
56.1106
21
-169.954
0
LINE
8
BLACK
6
CONTINUOUS
10
56.1106
20
-169.954
11
56.2058
21
-170.335
0
LINE
8
BLACK
6
CONTINUOUS
10
56.2058
20
-170.335
11
56.2058
21
-170.811
0
LINE
8
BLACK
6
CONTINUOUS
10
56.2058
20
-170.811
11
56.1106
21
-171.192
0
LINE
8
BLACK
6
CONTINUOUS
10
56.1106
20
-171.192
11
56.0153
21
-171.382
0
LINE
8
BLACK
6
CONTINUOUS
10
56.0153
20
-171.382
11
55.9201
21
-171.478
0
LINE
8
BLACK
6
CONTINUOUS
10
55.9201
20
-171.478
11
55.7296
21
-171.573
0
LINE
8
BLACK
6
CONTINUOUS
10
55.7296
20
-171.573
11
55.5391
21
-171.573
0
LINE
8
BLACK
6
CONTINUOUS
10
55.5391
20
-171.573
11
55.3487
21
-171.478
0
LINE
8
BLACK
6
CONTINUOUS
10
55.3487
20
-171.478
11
55.2534
21
-171.382
0
LINE
8
BLACK
6
CONTINUOUS
10
55.2534
20
-171.382
11
55.1582
21
-171.192
0
LINE
8
BLACK
6
CONTINUOUS
10
55.1582
20
-171.192
11
55.063
21
-170.811
0
LINE
8
BLACK
6
CONTINUOUS
10
55.063
20
-170.811
11
55.063
21
-170.335
0
LINE
8
BLACK
6
CONTINUOUS
10
55.063
20
-170.335
11
55.1582
21
-169.954
0
LINE
8
BLACK
6
CONTINUOUS
10
55.1582
20
-169.954
11
55.2534
21
-169.763
0
LINE
8
BLACK
6
CONTINUOUS
10
55.2534
20
-169.763
11
55.3487
21
-169.668
0
LINE
8
BLACK
6
CONTINUOUS
10
55.3487
20
-169.668
11
55.5391
21
-169.573
0
LINE
8
BLACK
6
CONTINUOUS
10
57.063
20
-171.382
11
57.1582
21
-171.478
0
LINE
8
BLACK
6
CONTINUOUS
10
57.1582
20
-171.478
11
57.063
21
-171.573
0
LINE
8
BLACK
6
CONTINUOUS
10
57.063
20
-171.573
11
56.9677
21
-171.478
0
LINE
8
BLACK
6
CONTINUOUS
10
56.9677
20
-171.478
11
57.063
21
-171.382
0
LINE
8
BLACK
6
CONTINUOUS
10
57.063
20
-171.382
11
57.063
21
-171.573
0
LINE
8
BLACK
6
CONTINUOUS
10
58.301
20
-170.43
11
58.1106
21
-170.335
0
LINE
8
BLACK
6
CONTINUOUS
10
58.1106
20
-170.335
11
58.0153
21
-170.239
0
LINE
8
BLACK
6
CONTINUOUS
10
58.0153
20
-170.239
11
57.9201
21
-170.049
0
LINE
8
BLACK
6
CONTINUOUS
10
57.9201
20
-170.049
11
57.9201
21
-169.954
0
LINE
8
BLACK
6
CONTINUOUS
10
57.9201
20
-169.954
11
58.0153
21
-169.763
0
LINE
8
BLACK
6
CONTINUOUS
10
58.0153
20
-169.763
11
58.1106
21
-169.668
0
LINE
8
BLACK
6
CONTINUOUS
10
58.1106
20
-169.668
11
58.301
21
-169.573
0
LINE
8
BLACK
6
CONTINUOUS
10
58.301
20
-169.573
11
58.682
21
-169.573
0
LINE
8
BLACK
6
CONTINUOUS
10
58.682
20
-169.573
11
58.8725
21
-169.668
0
LINE
8
BLACK
6
CONTINUOUS
10
58.8725
20
-169.668
11
58.9677
21
-169.763
0
LINE
8
BLACK
6
CONTINUOUS
10
58.9677
20
-169.763
11
59.063
21
-169.954
0
LINE
8
BLACK
6
CONTINUOUS
10
59.063
20
-169.954
11
59.063
21
-170.049
0
LINE
8
BLACK
6
CONTINUOUS
10
59.063
20
-170.049
11
58.9677
21
-170.239
0
LINE
8
BLACK
6
CONTINUOUS
10
58.9677
20
-170.239
11
58.8725
21
-170.335
0
LINE
8
BLACK
6
CONTINUOUS
10
58.8725
20
-170.335
11
58.682
21
-170.43
0
LINE
8
BLACK
6
CONTINUOUS
10
58.682
20
-170.43
11
58.301
21
-170.43
0
LINE
8
BLACK
6
CONTINUOUS
10
58.301
20
-170.43
11
58.1106
21
-170.525
0
LINE
8
BLACK
6
CONTINUOUS
10
58.1106
20
-170.525
11
58.0153
21
-170.62
0
LINE
8
BLACK
6
CONTINUOUS
10
58.0153
20
-170.62
11
57.9201
21
-170.811
0
LINE
8
BLACK
6
CONTINUOUS
10
57.9201
20
-170.811
11
57.9201
21
-171.192
0
LINE
8
BLACK
6
CONTINUOUS
10
57.9201
20
-171.192
11
58.0153
21
-171.382
0
LINE
8
BLACK
6
CONTINUOUS
10
58.0153
20
-171.382
11
58.1106
21
-171.478
0
LINE
8
BLACK
6
CONTINUOUS
10
58.1106
20
-171.478
11
58.301
21
-171.573
0
LINE
8
BLACK
6
CONTINUOUS
10
58.301
20
-171.573
11
58.682
21
-171.573
0
LINE
8
BLACK
6
CONTINUOUS
10
58.682
20
-171.573
11
58.8725
21
-171.478
0
LINE
8
BLACK
6
CONTINUOUS
10
58.8725
20
-171.478
11
58.9677
21
-171.382
0
LINE
8
BLACK
6
CONTINUOUS
10
58.9677
20
-171.382
11
59.063
21
-171.192
0
LINE
8
BLACK
6
CONTINUOUS
10
59.063
20
-171.192
11
59.063
21
-170.811
0
LINE
8
BLACK
6
CONTINUOUS
10
59.063
20
-170.811
11
58.9677
21
-170.62
0
LINE
8
BLACK
6
CONTINUOUS
10
58.9677
20
-170.62
11
58.8725
21
-170.525
0
LINE
8
BLACK
6
CONTINUOUS
10
58.8725
20
-170.525
11
58.682
21
-170.43
0
LINE
8
BLACK
6
CONTINUOUS
10
60.0153
20
-171.573
11
60.3963
21
-171.573
0
LINE
8
BLACK
6
CONTINUOUS
10
60.3963
20
-171.573
11
60.5868
21
-171.478
0
LINE
8
BLACK
6
CONTINUOUS
10
60.5868
20
-171.478
11
60.682
21
-171.382
0
LINE
8
BLACK
6
CONTINUOUS
10
60.682
20
-171.382
11
60.8725
21
-171.097
0
LINE
8
BLACK
6
CONTINUOUS
10
60.8725
20
-171.097
11
60.9677
21
-170.716
0
LINE
8
BLACK
6
CONTINUOUS
10
60.9677
20
-170.716
11
60.9677
21
-169.954
0
LINE
8
BLACK
6
CONTINUOUS
10
60.9677
20
-169.954
11
60.8725
21
-169.763
0
LINE
8
BLACK
6
CONTINUOUS
10
60.8725
20
-169.763
11
60.7772
21
-169.668
0
LINE
8
BLACK
6
CONTINUOUS
10
60.7772
20
-169.668
11
60.5868
21
-169.573
0
LINE
8
BLACK
6
CONTINUOUS
10
60.5868
20
-169.573
11
60.2058
21
-169.573
0
LINE
8
BLACK
6
CONTINUOUS
10
60.2058
20
-169.573
11
60.0153
21
-169.668
0
LINE
8
BLACK
6
CONTINUOUS
10
60.0153
20
-169.668
11
59.9201
21
-169.763
0
LINE
8
BLACK
6
CONTINUOUS
10
59.9201
20
-169.763
11
59.8249
21
-169.954
0
LINE
8
BLACK
6
CONTINUOUS
10
59.8249
20
-169.954
11
59.8249
21
-170.43
0
LINE
8
BLACK
6
CONTINUOUS
10
59.8249
20
-170.43
11
59.9201
21
-170.62
0
LINE
8
BLACK
6
CONTINUOUS
10
59.9201
20
-170.62
11
60.0153
21
-170.716
0
LINE
8
BLACK
6
CONTINUOUS
10
60.0153
20
-170.716
11
60.2058
21
-170.811
0
LINE
8
BLACK
6
CONTINUOUS
10
60.2058
20
-170.811
11
60.5868
21
-170.811
0
LINE
8
BLACK
6
CONTINUOUS
10
60.5868
20
-170.811
11
60.7772
21
-170.716
0
LINE
8
BLACK
6
CONTINUOUS
10
60.7772
20
-170.716
11
60.8725
21
-170.62
0
LINE
8
BLACK
6
CONTINUOUS
10
60.8725
20
-170.62
11
60.9677
21
-170.43
0
LINE
8
BLACK
6
CONTINUOUS
10
62.2058
20
-169.573
11
62.3963
21
-169.573
0
LINE
8
BLACK
6
CONTINUOUS
10
62.3963
20
-169.573
11
62.5868
21
-169.668
0
LINE
8
BLACK
6
CONTINUOUS
10
62.5868
20
-169.668
11
62.682
21
-169.763
0
LINE
8
BLACK
6
CONTINUOUS
10
62.682
20
-169.763
11
62.7772
21
-169.954
0
LINE
8
BLACK
6
CONTINUOUS
10
62.7772
20
-169.954
11
62.8725
21
-170.335
0
LINE
8
BLACK
6
CONTINUOUS
10
62.8725
20
-170.335
11
62.8725
21
-170.811
0
LINE
8
BLACK
6
CONTINUOUS
10
62.8725
20
-170.811
11
62.7772
21
-171.192
0
LINE
8
BLACK
6
CONTINUOUS
10
62.7772
20
-171.192
11
62.682
21
-171.382
0
LINE
8
BLACK
6
CONTINUOUS
10
62.682
20
-171.382
11
62.5868
21
-171.478
0
LINE
8
BLACK
6
CONTINUOUS
10
62.5868
20
-171.478
11
62.3963
21
-171.573
0
LINE
8
BLACK
6
CONTINUOUS
10
62.3963
20
-171.573
11
62.2058
21
-171.573
0
LINE
8
BLACK
6
CONTINUOUS
10
62.2058
20
-171.573
11
62.0153
21
-171.478
0
LINE
8
BLACK
6
CONTINUOUS
10
62.0153
20
-171.478
11
61.9201
21
-171.382
0
LINE
8
BLACK
6
CONTINUOUS
10
61.9201
20
-171.382
11
61.8249
21
-171.192
0
LINE
8
BLACK
6
CONTINUOUS
10
61.8249
20
-171.192
11
61.7296
21
-170.811
0
LINE
8
BLACK
6
CONTINUOUS
10
61.7296
20
-170.811
11
61.7296
21
-170.335
0
LINE
8
BLACK
6
CONTINUOUS
10
61.7296
20
-170.335
11
61.8249
21
-169.954
0
LINE
8
BLACK
6
CONTINUOUS
10
61.8249
20
-169.954
11
61.9201
21
-169.763
0
LINE
8
BLACK
6
CONTINUOUS
10
61.9201
20
-169.763
11
62.0153
21
-169.668
0
LINE
8
BLACK
6
CONTINUOUS
10
62.0153
20
-169.668
11
62.2058
21
-169.573
0
LINE
8
BLACK
6
CONTINUOUS
10
63.7296
20
-171.573
11
63.7296
21
-170.239
0
LINE
8
BLACK
6
CONTINUOUS
10
63.7296
20
-170.43
11
63.8249
21
-170.335
0
LINE
8
BLACK
6
CONTINUOUS
10
63.8249
20
-170.335
11
64.0153
21
-170.239
0
LINE
8
BLACK
6
CONTINUOUS
10
64.0153
20
-170.239
11
64.301
21
-170.239
0
LINE
8
BLACK
6
CONTINUOUS
10
64.301
20
-170.239
11
64.4915
21
-170.335
0
LINE
8
BLACK
6
CONTINUOUS
10
64.4915
20
-170.335
11
64.5868
21
-170.525
0
LINE
8
BLACK
6
CONTINUOUS
10
64.5868
20
-170.525
11
64.5868
21
-171.573
0
LINE
8
BLACK
6
CONTINUOUS
10
64.5868
20
-170.525
11
64.682
21
-170.335
0
LINE
8
BLACK
6
CONTINUOUS
10
64.682
20
-170.335
11
64.8725
21
-170.239
0
LINE
8
BLACK
6
CONTINUOUS
10
64.8725
20
-170.239
11
65.1582
21
-170.239
0
LINE
8
BLACK
6
CONTINUOUS
10
65.1582
20
-170.239
11
65.3487
21
-170.335
0
LINE
8
BLACK
6
CONTINUOUS
10
65.3487
20
-170.335
11
65.4439
21
-170.525
0
LINE
8
BLACK
6
CONTINUOUS
10
65.4439
20
-170.525
11
65.4439
21
-171.573
0
LINE
8
BLACK
6
CONTINUOUS
10
66.3963
20
-171.573
11
66.3963
21
-170.239
0
LINE
8
BLACK
6
CONTINUOUS
10
66.3963
20
-170.43
11
66.4915
21
-170.335
0
LINE
8
BLACK
6
CONTINUOUS
10
66.4915
20
-170.335
11
66.682
21
-170.239
0
LINE
8
BLACK
6
CONTINUOUS
10
66.682
20
-170.239
11
66.9677
21
-170.239
0
LINE
8
BLACK
6
CONTINUOUS
10
66.9677
20
-170.239
11
67.1582
21
-170.335
0
LINE
8
BLACK
6
CONTINUOUS
10
67.1582
20
-170.335
11
67.2534
21
-170.525
0
LINE
8
BLACK
6
CONTINUOUS
10
67.2534
20
-170.525
11
67.2534
21
-171.573
0
LINE
8
BLACK
6
CONTINUOUS
10
67.2534
20
-170.525
11
67.3487
21
-170.335
0
LINE
8
BLACK
6
CONTINUOUS
10
67.3487
20
-170.335
11
67.5391
21
-170.239
0
LINE
8
BLACK
6
CONTINUOUS
10
67.5391
20
-170.239
11
67.8249
21
-170.239
0
LINE
8
BLACK
6
CONTINUOUS
10
67.8249
20
-170.239
11
68.0153
21
-170.335
0
LINE
8
BLACK
6
CONTINUOUS
10
68.0153
20
-170.335
11
68.1106
21
-170.525
0
LINE
8
BLACK
6
CONTINUOUS
10
68.1106
20
-170.525
11
68.1106
21
-171.573
0
LINE
8
BLACK
6
CONTINUOUS
10
71.6915
20
-169.478
11
69.9772
21
-172.049
0
LINE
8
BLACK
6
CONTINUOUS
10
73.9391
20
-169.573
11
74.1296
21
-169.573
0
LINE
8
BLACK
6
CONTINUOUS
10
74.1296
20
-169.573
11
74.3201
21
-169.668
0
LINE
8
BLACK
6
CONTINUOUS
10
74.3201
20
-169.668
11
74.4153
21
-169.763
0
LINE
8
BLACK
6
CONTINUOUS
10
74.4153
20
-169.763
11
74.5106
21
-169.954
0
LINE
8
BLACK
6
CONTINUOUS
10
74.5106
20
-169.954
11
74.6058
21
-170.335
0
LINE
8
BLACK
6
CONTINUOUS
10
74.6058
20
-170.335
11
74.6058
21
-170.811
0
LINE
8
BLACK
6
CONTINUOUS
10
74.6058
20
-170.811
11
74.5106
21
-171.192
0
LINE
8
BLACK
6
CONTINUOUS
10
74.5106
20
-171.192
11
74.4153
21
-171.382
0
LINE
8
BLACK
6
CONTINUOUS
10
74.4153
20
-171.382
11
74.3201
21
-171.478
0
LINE
8
BLACK
6
CONTINUOUS
10
74.3201
20
-171.478
11
74.1296
21
-171.573
0
LINE
8
BLACK
6
CONTINUOUS
10
74.1296
20
-171.573
11
73.9391
21
-171.573
0
LINE
8
BLACK
6
CONTINUOUS
10
73.9391
20
-171.573
11
73.7487
21
-171.478
0
LINE
8
BLACK
6
CONTINUOUS
10
73.7487
20
-171.478
11
73.6534
21
-171.382
0
LINE
8
BLACK
6
CONTINUOUS
10
73.6534
20
-171.382
11
73.5582
21
-171.192
0
LINE
8
BLACK
6
CONTINUOUS
10
73.5582
20
-171.192
11
73.463
21
-170.811
0
LINE
8
BLACK
6
CONTINUOUS
10
73.463
20
-170.811
11
73.463
21
-170.335
0
LINE
8
BLACK
6
CONTINUOUS
10
73.463
20
-170.335
11
73.5582
21
-169.954
0
LINE
8
BLACK
6
CONTINUOUS
10
73.5582
20
-169.954
11
73.6534
21
-169.763
0
LINE
8
BLACK
6
CONTINUOUS
10
73.6534
20
-169.763
11
73.7487
21
-169.668
0
LINE
8
BLACK
6
CONTINUOUS
10
73.7487
20
-169.668
11
73.9391
21
-169.573
0
LINE
8
BLACK
6
CONTINUOUS
10
75.463
20
-171.382
11
75.5582
21
-171.478
0
LINE
8
BLACK
6
CONTINUOUS
10
75.5582
20
-171.478
11
75.463
21
-171.573
0
LINE
8
BLACK
6
CONTINUOUS
10
75.463
20
-171.573
11
75.3677
21
-171.478
0
LINE
8
BLACK
6
CONTINUOUS
10
75.3677
20
-171.478
11
75.463
21
-171.382
0
LINE
8
BLACK
6
CONTINUOUS
10
75.463
20
-171.382
11
75.463
21
-171.573
0
LINE
8
BLACK
6
CONTINUOUS
10
76.7963
20
-169.573
11
76.9868
21
-169.573
0
LINE
8
BLACK
6
CONTINUOUS
10
76.9868
20
-169.573
11
77.1772
21
-169.668
0
LINE
8
BLACK
6
CONTINUOUS
10
77.1772
20
-169.668
11
77.2725
21
-169.763
0
LINE
8
BLACK
6
CONTINUOUS
10
77.2725
20
-169.763
11
77.3677
21
-169.954
0
LINE
8
BLACK
6
CONTINUOUS
10
77.3677
20
-169.954
11
77.463
21
-170.335
0
LINE
8
BLACK
6
CONTINUOUS
10
77.463
20
-170.335
11
77.463
21
-170.811
0
LINE
8
BLACK
6
CONTINUOUS
10
77.463
20
-170.811
11
77.3677
21
-171.192
0
LINE
8
BLACK
6
CONTINUOUS
10
77.3677
20
-171.192
11
77.2725
21
-171.382
0
LINE
8
BLACK
6
CONTINUOUS
10
77.2725
20
-171.382
11
77.1772
21
-171.478
0
LINE
8
BLACK
6
CONTINUOUS
10
77.1772
20
-171.478
11
76.9868
21
-171.573
0
LINE
8
BLACK
6
CONTINUOUS
10
76.9868
20
-171.573
11
76.7963
21
-171.573
0
LINE
8
BLACK
6
CONTINUOUS
10
76.7963
20
-171.573
11
76.6058
21
-171.478
0
LINE
8
BLACK
6
CONTINUOUS
10
76.6058
20
-171.478
11
76.5106
21
-171.382
0
LINE
8
BLACK
6
CONTINUOUS
10
76.5106
20
-171.382
11
76.4153
21
-171.192
0
LINE
8
BLACK
6
CONTINUOUS
10
76.4153
20
-171.192
11
76.3201
21
-170.811
0
LINE
8
BLACK
6
CONTINUOUS
10
76.3201
20
-170.811
11
76.3201
21
-170.335
0
LINE
8
BLACK
6
CONTINUOUS
10
76.3201
20
-170.335
11
76.4153
21
-169.954
0
LINE
8
BLACK
6
CONTINUOUS
10
76.4153
20
-169.954
11
76.5106
21
-169.763
0
LINE
8
BLACK
6
CONTINUOUS
10
76.5106
20
-169.763
11
76.6058
21
-169.668
0
LINE
8
BLACK
6
CONTINUOUS
10
76.6058
20
-169.668
11
76.7963
21
-169.573
0
LINE
8
BLACK
6
CONTINUOUS
10
78.1296
20
-169.573
11
79.3677
21
-169.573
0
LINE
8
BLACK
6
CONTINUOUS
10
79.3677
20
-169.573
11
78.701
21
-170.335
0
LINE
8
BLACK
6
CONTINUOUS
10
78.701
20
-170.335
11
78.9868
21
-170.335
0
LINE
8
BLACK
6
CONTINUOUS
10
78.9868
20
-170.335
11
79.1772
21
-170.43
0
LINE
8
BLACK
6
CONTINUOUS
10
79.1772
20
-170.43
11
79.2725
21
-170.525
0
LINE
8
BLACK
6
CONTINUOUS
10
79.2725
20
-170.525
11
79.3677
21
-170.716
0
LINE
8
BLACK
6
CONTINUOUS
10
79.3677
20
-170.716
11
79.3677
21
-171.192
0
LINE
8
BLACK
6
CONTINUOUS
10
79.3677
20
-171.192
11
79.2725
21
-171.382
0
LINE
8
BLACK
6
CONTINUOUS
10
79.2725
20
-171.382
11
79.1772
21
-171.478
0
LINE
8
BLACK
6
CONTINUOUS
10
79.1772
20
-171.478
11
78.9868
21
-171.573
0
LINE
8
BLACK
6
CONTINUOUS
10
78.9868
20
-171.573
11
78.4153
21
-171.573
0
LINE
8
BLACK
6
CONTINUOUS
10
78.4153
20
-171.573
11
78.2249
21
-171.478
0
LINE
8
BLACK
6
CONTINUOUS
10
78.2249
20
-171.478
11
78.1296
21
-171.382
0
LINE
8
BLACK
6
CONTINUOUS
10
81.1772
20
-169.573
11
80.2249
21
-169.573
0
LINE
8
BLACK
6
CONTINUOUS
10
80.2249
20
-169.573
11
80.1296
21
-170.525
0
LINE
8
BLACK
6
CONTINUOUS
10
80.1296
20
-170.525
11
80.2249
21
-170.43
0
LINE
8
BLACK
6
CONTINUOUS
10
80.2249
20
-170.43
11
80.4153
21
-170.335
0
LINE
8
BLACK
6
CONTINUOUS
10
80.4153
20
-170.335
11
80.8915
21
-170.335
0
LINE
8
BLACK
6
CONTINUOUS
10
80.8915
20
-170.335
11
81.082
21
-170.43
0
LINE
8
BLACK
6
CONTINUOUS
10
81.082
20
-170.43
11
81.1772
21
-170.525
0
LINE
8
BLACK
6
CONTINUOUS
10
81.1772
20
-170.525
11
81.2725
21
-170.716
0
LINE
8
BLACK
6
CONTINUOUS
10
81.2725
20
-170.716
11
81.2725
21
-171.192
0
LINE
8
BLACK
6
CONTINUOUS
10
81.2725
20
-171.192
11
81.1772
21
-171.382
0
LINE
8
BLACK
6
CONTINUOUS
10
81.1772
20
-171.382
11
81.082
21
-171.478
0
LINE
8
BLACK
6
CONTINUOUS
10
81.082
20
-171.478
11
80.8915
21
-171.573
0
LINE
8
BLACK
6
CONTINUOUS
10
80.8915
20
-171.573
11
80.4153
21
-171.573
0
LINE
8
BLACK
6
CONTINUOUS
10
80.4153
20
-171.573
11
80.2249
21
-171.478
0
LINE
8
BLACK
6
CONTINUOUS
10
80.2249
20
-171.478
11
80.1296
21
-171.382
0
LINE
8
BLACK
6
CONTINUOUS
10
82.5106
20
-169.573
11
82.701
21
-169.573
0
LINE
8
BLACK
6
CONTINUOUS
10
82.701
20
-169.573
11
82.8915
21
-169.668
0
LINE
8
BLACK
6
CONTINUOUS
10
82.8915
20
-169.668
11
82.9868
21
-169.763
0
LINE
8
BLACK
6
CONTINUOUS
10
82.9868
20
-169.763
11
83.082
21
-169.954
0
LINE
8
BLACK
6
CONTINUOUS
10
83.082
20
-169.954
11
83.1772
21
-170.335
0
LINE
8
BLACK
6
CONTINUOUS
10
83.1772
20
-170.335
11
83.1772
21
-170.811
0
LINE
8
BLACK
6
CONTINUOUS
10
83.1772
20
-170.811
11
83.082
21
-171.192
0
LINE
8
BLACK
6
CONTINUOUS
10
83.082
20
-171.192
11
82.9868
21
-171.382
0
LINE
8
BLACK
6
CONTINUOUS
10
82.9868
20
-171.382
11
82.8915
21
-171.478
0
LINE
8
BLACK
6
CONTINUOUS
10
82.8915
20
-171.478
11
82.701
21
-171.573
0
LINE
8
BLACK
6
CONTINUOUS
10
82.701
20
-171.573
11
82.5106
21
-171.573
0
LINE
8
BLACK
6
CONTINUOUS
10
82.5106
20
-171.573
11
82.3201
21
-171.478
0
LINE
8
BLACK
6
CONTINUOUS
10
82.3201
20
-171.478
11
82.2249
21
-171.382
0
LINE
8
BLACK
6
CONTINUOUS
10
82.2249
20
-171.382
11
82.1296
21
-171.192
0
LINE
8
BLACK
6
CONTINUOUS
10
82.1296
20
-171.192
11
82.0344
21
-170.811
0
LINE
8
BLACK
6
CONTINUOUS
10
82.0344
20
-170.811
11
82.0344
21
-170.335
0
LINE
8
BLACK
6
CONTINUOUS
10
82.0344
20
-170.335
11
82.1296
21
-169.954
0
LINE
8
BLACK
6
CONTINUOUS
10
82.1296
20
-169.954
11
82.2249
21
-169.763
0
LINE
8
BLACK
6
CONTINUOUS
10
82.2249
20
-169.763
11
82.3201
21
-169.668
0
LINE
8
BLACK
6
CONTINUOUS
10
82.3201
20
-169.668
11
82.5106
21
-169.573
0
LINE
8
BLACK
6
CONTINUOUS
10
83.9391
20
-169.573
11
83.9391
21
-169.954
0
LINE
8
BLACK
6
CONTINUOUS
10
84.701
20
-169.573
11
84.701
21
-169.954
0
LINE
8
BLACK
6
CONTINUOUS
10
87.3296
20
-172.335
11
87.2344
21
-172.239
0
LINE
8
BLACK
6
CONTINUOUS
10
87.2344
20
-172.239
11
87.0439
21
-171.954
0
LINE
8
BLACK
6
CONTINUOUS
10
87.0439
20
-171.954
11
86.9487
21
-171.763
0
LINE
8
BLACK
6
CONTINUOUS
10
86.9487
20
-171.763
11
86.8534
21
-171.478
0
LINE
8
BLACK
6
CONTINUOUS
10
86.8534
20
-171.478
11
86.7582
21
-171.001
0
LINE
8
BLACK
6
CONTINUOUS
10
86.7582
20
-171.001
11
86.7582
21
-170.62
0
LINE
8
BLACK
6
CONTINUOUS
10
86.7582
20
-170.62
11
86.8534
21
-170.144
0
LINE
8
BLACK
6
CONTINUOUS
10
86.8534
20
-170.144
11
86.9487
21
-169.858
0
LINE
8
BLACK
6
CONTINUOUS
10
86.9487
20
-169.858
11
87.0439
21
-169.668
0
LINE
8
BLACK
6
CONTINUOUS
10
87.0439
20
-169.668
11
87.2344
21
-169.382
0
LINE
8
BLACK
6
CONTINUOUS
10
87.2344
20
-169.382
11
87.3296
21
-169.287
0
LINE
8
BLACK
6
CONTINUOUS
10
89.1391
20
-171.573
11
87.9963
21
-171.573
0
LINE
8
BLACK
6
CONTINUOUS
10
88.5677
20
-171.573
11
88.5677
21
-169.573
0
LINE
8
BLACK
6
CONTINUOUS
10
88.5677
20
-169.573
11
88.3772
21
-169.858
0
LINE
8
BLACK
6
CONTINUOUS
10
88.3772
20
-169.858
11
88.1868
21
-170.049
0
LINE
8
BLACK
6
CONTINUOUS
10
88.1868
20
-170.049
11
87.9963
21
-170.144
0
LINE
8
BLACK
6
CONTINUOUS
10
89.901
20
-169.763
11
89.9963
21
-169.668
0
LINE
8
BLACK
6
CONTINUOUS
10
89.9963
20
-169.668
11
90.1868
21
-169.573
0
LINE
8
BLACK
6
CONTINUOUS
10
90.1868
20
-169.573
11
90.663
21
-169.573
0
LINE
8
BLACK
6
CONTINUOUS
10
90.663
20
-169.573
11
90.8534
21
-169.668
0
LINE
8
BLACK
6
CONTINUOUS
10
90.8534
20
-169.668
11
90.9487
21
-169.763
0
LINE
8
BLACK
6
CONTINUOUS
10
90.9487
20
-169.763
11
91.0439
21
-169.954
0
LINE
8
BLACK
6
CONTINUOUS
10
91.0439
20
-169.954
11
91.0439
21
-170.144
0
LINE
8
BLACK
6
CONTINUOUS
10
91.0439
20
-170.144
11
90.9487
21
-170.43
0
LINE
8
BLACK
6
CONTINUOUS
10
90.9487
20
-170.43
11
89.8058
21
-171.573
0
LINE
8
BLACK
6
CONTINUOUS
10
89.8058
20
-171.573
11
91.0439
21
-171.573
0
LINE
8
BLACK
6
CONTINUOUS
10
93.101
20
-171.573
11
93.101
21
-169.573
0
LINE
8
BLACK
6
CONTINUOUS
10
93.9582
20
-171.573
11
93.9582
21
-170.525
0
LINE
8
BLACK
6
CONTINUOUS
10
93.9582
20
-170.525
11
93.863
21
-170.335
0
LINE
8
BLACK
6
CONTINUOUS
10
93.863
20
-170.335
11
93.6725
21
-170.239
0
LINE
8
BLACK
6
CONTINUOUS
10
93.6725
20
-170.239
11
93.3868
21
-170.239
0
LINE
8
BLACK
6
CONTINUOUS
10
93.3868
20
-170.239
11
93.1963
21
-170.335
0
LINE
8
BLACK
6
CONTINUOUS
10
93.1963
20
-170.335
11
93.101
21
-170.43
0
LINE
8
BLACK
6
CONTINUOUS
10
95.1963
20
-171.573
11
95.0058
21
-171.478
0
LINE
8
BLACK
6
CONTINUOUS
10
95.0058
20
-171.478
11
94.9106
21
-171.382
0
LINE
8
BLACK
6
CONTINUOUS
10
94.9106
20
-171.382
11
94.8153
21
-171.192
0
LINE
8
BLACK
6
CONTINUOUS
10
94.8153
20
-171.192
11
94.8153
21
-170.62
0
LINE
8
BLACK
6
CONTINUOUS
10
94.8153
20
-170.62
11
94.9106
21
-170.43
0
LINE
8
BLACK
6
CONTINUOUS
10
94.9106
20
-170.43
11
95.0058
21
-170.335
0
LINE
8
BLACK
6
CONTINUOUS
10
95.0058
20
-170.335
11
95.1963
21
-170.239
0
LINE
8
BLACK
6
CONTINUOUS
10
95.1963
20
-170.239
11
95.482
21
-170.239
0
LINE
8
BLACK
6
CONTINUOUS
10
95.482
20
-170.239
11
95.6725
21
-170.335
0
LINE
8
BLACK
6
CONTINUOUS
10
95.6725
20
-170.335
11
95.7677
21
-170.43
0
LINE
8
BLACK
6
CONTINUOUS
10
95.7677
20
-170.43
11
95.863
21
-170.62
0
LINE
8
BLACK
6
CONTINUOUS
10
95.863
20
-170.62
11
95.863
21
-171.192
0
LINE
8
BLACK
6
CONTINUOUS
10
95.863
20
-171.192
11
95.7677
21
-171.382
0
LINE
8
BLACK
6
CONTINUOUS
10
95.7677
20
-171.382
11
95.6725
21
-171.478
0
LINE
8
BLACK
6
CONTINUOUS
10
95.6725
20
-171.478
11
95.482
21
-171.573
0
LINE
8
BLACK
6
CONTINUOUS
10
95.482
20
-171.573
11
95.1963
21
-171.573
0
LINE
8
BLACK
6
CONTINUOUS
10
97.0058
20
-171.573
11
96.8153
21
-171.478
0
LINE
8
BLACK
6
CONTINUOUS
10
96.8153
20
-171.478
11
96.7201
21
-171.287
0
LINE
8
BLACK
6
CONTINUOUS
10
96.7201
20
-171.287
11
96.7201
21
-169.573
0
LINE
8
BLACK
6
CONTINUOUS
10
98.5296
20
-171.478
11
98.3391
21
-171.573
0
LINE
8
BLACK
6
CONTINUOUS
10
98.3391
20
-171.573
11
97.9582
21
-171.573
0
LINE
8
BLACK
6
CONTINUOUS
10
97.9582
20
-171.573
11
97.7677
21
-171.478
0
LINE
8
BLACK
6
CONTINUOUS
10
97.7677
20
-171.478
11
97.6725
21
-171.287
0
LINE
8
BLACK
6
CONTINUOUS
10
97.6725
20
-171.287
11
97.6725
21
-170.525
0
LINE
8
BLACK
6
CONTINUOUS
10
97.6725
20
-170.525
11
97.7677
21
-170.335
0
LINE
8
BLACK
6
CONTINUOUS
10
97.7677
20
-170.335
11
97.9582
21
-170.239
0
LINE
8
BLACK
6
CONTINUOUS
10
97.9582
20
-170.239
11
98.3391
21
-170.239
0
LINE
8
BLACK
6
CONTINUOUS
10
98.3391
20
-170.239
11
98.5296
21
-170.335
0
LINE
8
BLACK
6
CONTINUOUS
10
98.5296
20
-170.335
11
98.6249
21
-170.525
0
LINE
8
BLACK
6
CONTINUOUS
10
98.6249
20
-170.525
11
98.6249
21
-170.716
0
LINE
8
BLACK
6
CONTINUOUS
10
98.6249
20
-170.716
11
97.6725
21
-170.906
0
LINE
8
BLACK
6
CONTINUOUS
10
99.3868
20
-171.478
11
99.5772
21
-171.573
0
LINE
8
BLACK
6
CONTINUOUS
10
99.5772
20
-171.573
11
99.9582
21
-171.573
0
LINE
8
BLACK
6
CONTINUOUS
10
99.9582
20
-171.573
11
100.149
21
-171.478
0
LINE
8
BLACK
6
CONTINUOUS
10
100.149
20
-171.478
11
100.244
21
-171.287
0
LINE
8
BLACK
6
CONTINUOUS
10
100.244
20
-171.287
11
100.244
21
-171.192
0
LINE
8
BLACK
6
CONTINUOUS
10
100.244
20
-171.192
11
100.149
21
-171.001
0
LINE
8
BLACK
6
CONTINUOUS
10
100.149
20
-171.001
11
99.9582
21
-170.906
0
LINE
8
BLACK
6
CONTINUOUS
10
99.9582
20
-170.906
11
99.6725
21
-170.906
0
LINE
8
BLACK
6
CONTINUOUS
10
99.6725
20
-170.906
11
99.482
21
-170.811
0
LINE
8
BLACK
6
CONTINUOUS
10
99.482
20
-170.811
11
99.3868
21
-170.62
0
LINE
8
BLACK
6
CONTINUOUS
10
99.3868
20
-170.62
11
99.3868
21
-170.525
0
LINE
8
BLACK
6
CONTINUOUS
10
99.3868
20
-170.525
11
99.482
21
-170.335
0
LINE
8
BLACK
6
CONTINUOUS
10
99.482
20
-170.335
11
99.6725
21
-170.239
0
LINE
8
BLACK
6
CONTINUOUS
10
99.6725
20
-170.239
11
99.9582
21
-170.239
0
LINE
8
BLACK
6
CONTINUOUS
10
99.9582
20
-170.239
11
100.149
21
-170.335
0
LINE
8
BLACK
6
CONTINUOUS
10
100.911
20
-172.335
11
101.006
21
-172.239
0
LINE
8
BLACK
6
CONTINUOUS
10
101.006
20
-172.239
11
101.196
21
-171.954
0
LINE
8
BLACK
6
CONTINUOUS
10
101.196
20
-171.954
11
101.292
21
-171.763
0
LINE
8
BLACK
6
CONTINUOUS
10
101.292
20
-171.763
11
101.387
21
-171.478
0
LINE
8
BLACK
6
CONTINUOUS
10
101.387
20
-171.478
11
101.482
21
-171.001
0
LINE
8
BLACK
6
CONTINUOUS
10
101.482
20
-171.001
11
101.482
21
-170.62
0
LINE
8
BLACK
6
CONTINUOUS
10
101.482
20
-170.62
11
101.387
21
-170.144
0
LINE
8
BLACK
6
CONTINUOUS
10
101.387
20
-170.144
11
101.292
21
-169.858
0
LINE
8
BLACK
6
CONTINUOUS
10
101.292
20
-169.858
11
101.196
21
-169.668
0
LINE
8
BLACK
6
CONTINUOUS
10
101.196
20
-169.668
11
101.006
21
-169.382
0
LINE
8
BLACK
6
CONTINUOUS
10
101.006
20
-169.382
11
100.911
21
-169.287
0
LINE
8
BLACK
6
CONTINUOUS
10
52.182
20
-173.978
11
52.682
21
-173.478
0
LINE
8
BLACK
6
CONTINUOUS
10
52.682
20
-173.478
11
52.182
21
-172.978
0
LINE
8
BLACK
6
CONTINUOUS
10
52.182
20
-172.978
11
51.682
21
-173.478
0
LINE
8
BLACK
6
CONTINUOUS
10
51.682
20
-173.478
11
52.182
21
-173.978
0
LINE
8
BLACK
6
CONTINUOUS
10
56.2058
20
-174.213
11
55.063
21
-174.213
0
LINE
8
BLACK
6
CONTINUOUS
10
55.6344
20
-174.213
11
55.6344
21
-172.213
0
LINE
8
BLACK
6
CONTINUOUS
10
55.6344
20
-172.213
11
55.4439
21
-172.498
0
LINE
8
BLACK
6
CONTINUOUS
10
55.4439
20
-172.498
11
55.2534
21
-172.689
0
LINE
8
BLACK
6
CONTINUOUS
10
55.2534
20
-172.689
11
55.063
21
-172.784
0
LINE
8
BLACK
6
CONTINUOUS
10
57.063
20
-174.022
11
57.1582
21
-174.118
0
LINE
8
BLACK
6
CONTINUOUS
10
57.1582
20
-174.118
11
57.063
21
-174.213
0
LINE
8
BLACK
6
CONTINUOUS
10
57.063
20
-174.213
11
56.9677
21
-174.118
0
LINE
8
BLACK
6
CONTINUOUS
10
56.9677
20
-174.118
11
57.063
21
-174.022
0
LINE
8
BLACK
6
CONTINUOUS
10
57.063
20
-174.022
11
57.063
21
-174.213
0
LINE
8
BLACK
6
CONTINUOUS
10
58.3963
20
-172.213
11
58.5868
21
-172.213
0
LINE
8
BLACK
6
CONTINUOUS
10
58.5868
20
-172.213
11
58.7772
21
-172.308
0
LINE
8
BLACK
6
CONTINUOUS
10
58.7772
20
-172.308
11
58.8725
21
-172.403
0
LINE
8
BLACK
6
CONTINUOUS
10
58.8725
20
-172.403
11
58.9677
21
-172.594
0
LINE
8
BLACK
6
CONTINUOUS
10
58.9677
20
-172.594
11
59.063
21
-172.975
0
LINE
8
BLACK
6
CONTINUOUS
10
59.063
20
-172.975
11
59.063
21
-173.451
0
LINE
8
BLACK
6
CONTINUOUS
10
59.063
20
-173.451
11
58.9677
21
-173.832
0
LINE
8
BLACK
6
CONTINUOUS
10
58.9677
20
-173.832
11
58.8725
21
-174.022
0
LINE
8
BLACK
6
CONTINUOUS
10
58.8725
20
-174.022
11
58.7772
21
-174.118
0
LINE
8
BLACK
6
CONTINUOUS
10
58.7772
20
-174.118
11
58.5868
21
-174.213
0
LINE
8
BLACK
6
CONTINUOUS
10
58.5868
20
-174.213
11
58.3963
21
-174.213
0
LINE
8
BLACK
6
CONTINUOUS
10
58.3963
20
-174.213
11
58.2058
21
-174.118
0
LINE
8
BLACK
6
CONTINUOUS
10
58.2058
20
-174.118
11
58.1106
21
-174.022
0
LINE
8
BLACK
6
CONTINUOUS
10
58.1106
20
-174.022
11
58.0153
21
-173.832
0
LINE
8
BLACK
6
CONTINUOUS
10
58.0153
20
-173.832
11
57.9201
21
-173.451
0
LINE
8
BLACK
6
CONTINUOUS
10
57.9201
20
-173.451
11
57.9201
21
-172.975
0
LINE
8
BLACK
6
CONTINUOUS
10
57.9201
20
-172.975
11
58.0153
21
-172.594
0
LINE
8
BLACK
6
CONTINUOUS
10
58.0153
20
-172.594
11
58.1106
21
-172.403
0
LINE
8
BLACK
6
CONTINUOUS
10
58.1106
20
-172.403
11
58.2058
21
-172.308
0
LINE
8
BLACK
6
CONTINUOUS
10
58.2058
20
-172.308
11
58.3963
21
-172.213
0
LINE
8
BLACK
6
CONTINUOUS
10
60.301
20
-172.213
11
60.4915
21
-172.213
0
LINE
8
BLACK
6
CONTINUOUS
10
60.4915
20
-172.213
11
60.682
21
-172.308
0
LINE
8
BLACK
6
CONTINUOUS
10
60.682
20
-172.308
11
60.7772
21
-172.403
0
LINE
8
BLACK
6
CONTINUOUS
10
60.7772
20
-172.403
11
60.8725
21
-172.594
0
LINE
8
BLACK
6
CONTINUOUS
10
60.8725
20
-172.594
11
60.9677
21
-172.975
0
LINE
8
BLACK
6
CONTINUOUS
10
60.9677
20
-172.975
11
60.9677
21
-173.451
0
LINE
8
BLACK
6
CONTINUOUS
10
60.9677
20
-173.451
11
60.8725
21
-173.832
0
LINE
8
BLACK
6
CONTINUOUS
10
60.8725
20
-173.832
11
60.7772
21
-174.022
0
LINE
8
BLACK
6
CONTINUOUS
10
60.7772
20
-174.022
11
60.682
21
-174.118
0
LINE
8
BLACK
6
CONTINUOUS
10
60.682
20
-174.118
11
60.4915
21
-174.213
0
LINE
8
BLACK
6
CONTINUOUS
10
60.4915
20
-174.213
11
60.301
21
-174.213
0
LINE
8
BLACK
6
CONTINUOUS
10
60.301
20
-174.213
11
60.1106
21
-174.118
0
LINE
8
BLACK
6
CONTINUOUS
10
60.1106
20
-174.118
11
60.0153
21
-174.022
0
LINE
8
BLACK
6
CONTINUOUS
10
60.0153
20
-174.022
11
59.9201
21
-173.832
0
LINE
8
BLACK
6
CONTINUOUS
10
59.9201
20
-173.832
11
59.8249
21
-173.451
0
LINE
8
BLACK
6
CONTINUOUS
10
59.8249
20
-173.451
11
59.8249
21
-172.975
0
LINE
8
BLACK
6
CONTINUOUS
10
59.8249
20
-172.975
11
59.9201
21
-172.594
0
LINE
8
BLACK
6
CONTINUOUS
10
59.9201
20
-172.594
11
60.0153
21
-172.403
0
LINE
8
BLACK
6
CONTINUOUS
10
60.0153
20
-172.403
11
60.1106
21
-172.308
0
LINE
8
BLACK
6
CONTINUOUS
10
60.1106
20
-172.308
11
60.301
21
-172.213
0
LINE
8
BLACK
6
CONTINUOUS
10
62.2058
20
-172.213
11
62.3963
21
-172.213
0
LINE
8
BLACK
6
CONTINUOUS
10
62.3963
20
-172.213
11
62.5868
21
-172.308
0
LINE
8
BLACK
6
CONTINUOUS
10
62.5868
20
-172.308
11
62.682
21
-172.403
0
LINE
8
BLACK
6
CONTINUOUS
10
62.682
20
-172.403
11
62.7772
21
-172.594
0
LINE
8
BLACK
6
CONTINUOUS
10
62.7772
20
-172.594
11
62.8725
21
-172.975
0
LINE
8
BLACK
6
CONTINUOUS
10
62.8725
20
-172.975
11
62.8725
21
-173.451
0
LINE
8
BLACK
6
CONTINUOUS
10
62.8725
20
-173.451
11
62.7772
21
-173.832
0
LINE
8
BLACK
6
CONTINUOUS
10
62.7772
20
-173.832
11
62.682
21
-174.022
0
LINE
8
BLACK
6
CONTINUOUS
10
62.682
20
-174.022
11
62.5868
21
-174.118
0
LINE
8
BLACK
6
CONTINUOUS
10
62.5868
20
-174.118
11
62.3963
21
-174.213
0
LINE
8
BLACK
6
CONTINUOUS
10
62.3963
20
-174.213
11
62.2058
21
-174.213
0
LINE
8
BLACK
6
CONTINUOUS
10
62.2058
20
-174.213
11
62.0153
21
-174.118
0
LINE
8
BLACK
6
CONTINUOUS
10
62.0153
20
-174.118
11
61.9201
21
-174.022
0
LINE
8
BLACK
6
CONTINUOUS
10
61.9201
20
-174.022
11
61.8249
21
-173.832
0
LINE
8
BLACK
6
CONTINUOUS
10
61.8249
20
-173.832
11
61.7296
21
-173.451
0
LINE
8
BLACK
6
CONTINUOUS
10
61.7296
20
-173.451
11
61.7296
21
-172.975
0
LINE
8
BLACK
6
CONTINUOUS
10
61.7296
20
-172.975
11
61.8249
21
-172.594
0
LINE
8
BLACK
6
CONTINUOUS
10
61.8249
20
-172.594
11
61.9201
21
-172.403
0
LINE
8
BLACK
6
CONTINUOUS
10
61.9201
20
-172.403
11
62.0153
21
-172.308
0
LINE
8
BLACK
6
CONTINUOUS
10
62.0153
20
-172.308
11
62.2058
21
-172.213
0
LINE
8
BLACK
6
CONTINUOUS
10
63.7296
20
-174.213
11
63.7296
21
-172.879
0
LINE
8
BLACK
6
CONTINUOUS
10
63.7296
20
-173.07
11
63.8249
21
-172.975
0
LINE
8
BLACK
6
CONTINUOUS
10
63.8249
20
-172.975
11
64.0153
21
-172.879
0
LINE
8
BLACK
6
CONTINUOUS
10
64.0153
20
-172.879
11
64.301
21
-172.879
0
LINE
8
BLACK
6
CONTINUOUS
10
64.301
20
-172.879
11
64.4915
21
-172.975
0
LINE
8
BLACK
6
CONTINUOUS
10
64.4915
20
-172.975
11
64.5868
21
-173.165
0
LINE
8
BLACK
6
CONTINUOUS
10
64.5868
20
-173.165
11
64.5868
21
-174.213
0
LINE
8
BLACK
6
CONTINUOUS
10
64.5868
20
-173.165
11
64.682
21
-172.975
0
LINE
8
BLACK
6
CONTINUOUS
10
64.682
20
-172.975
11
64.8725
21
-172.879
0
LINE
8
BLACK
6
CONTINUOUS
10
64.8725
20
-172.879
11
65.1582
21
-172.879
0
LINE
8
BLACK
6
CONTINUOUS
10
65.1582
20
-172.879
11
65.3487
21
-172.975
0
LINE
8
BLACK
6
CONTINUOUS
10
65.3487
20
-172.975
11
65.4439
21
-173.165
0
LINE
8
BLACK
6
CONTINUOUS
10
65.4439
20
-173.165
11
65.4439
21
-174.213
0
LINE
8
BLACK
6
CONTINUOUS
10
66.3963
20
-174.213
11
66.3963
21
-172.879
0
LINE
8
BLACK
6
CONTINUOUS
10
66.3963
20
-173.07
11
66.4915
21
-172.975
0
LINE
8
BLACK
6
CONTINUOUS
10
66.4915
20
-172.975
11
66.682
21
-172.879
0
LINE
8
BLACK
6
CONTINUOUS
10
66.682
20
-172.879
11
66.9677
21
-172.879
0
LINE
8
BLACK
6
CONTINUOUS
10
66.9677
20
-172.879
11
67.1582
21
-172.975
0
LINE
8
BLACK
6
CONTINUOUS
10
67.1582
20
-172.975
11
67.2534
21
-173.165
0
LINE
8
BLACK
6
CONTINUOUS
10
67.2534
20
-173.165
11
67.2534
21
-174.213
0
LINE
8
BLACK
6
CONTINUOUS
10
67.2534
20
-173.165
11
67.3487
21
-172.975
0
LINE
8
BLACK
6
CONTINUOUS
10
67.3487
20
-172.975
11
67.5391
21
-172.879
0
LINE
8
BLACK
6
CONTINUOUS
10
67.5391
20
-172.879
11
67.8249
21
-172.879
0
LINE
8
BLACK
6
CONTINUOUS
10
67.8249
20
-172.879
11
68.0153
21
-172.975
0
LINE
8
BLACK
6
CONTINUOUS
10
68.0153
20
-172.975
11
68.1106
21
-173.165
0
LINE
8
BLACK
6
CONTINUOUS
10
68.1106
20
-173.165
11
68.1106
21
-174.213
0
LINE
8
BLACK
6
CONTINUOUS
10
71.6915
20
-172.118
11
69.9772
21
-174.689
0
LINE
8
BLACK
6
CONTINUOUS
10
73.9391
20
-172.213
11
74.1296
21
-172.213
0
LINE
8
BLACK
6
CONTINUOUS
10
74.1296
20
-172.213
11
74.3201
21
-172.308
0
LINE
8
BLACK
6
CONTINUOUS
10
74.3201
20
-172.308
11
74.4153
21
-172.403
0
LINE
8
BLACK
6
CONTINUOUS
10
74.4153
20
-172.403
11
74.5106
21
-172.594
0
LINE
8
BLACK
6
CONTINUOUS
10
74.5106
20
-172.594
11
74.6058
21
-172.975
0
LINE
8
BLACK
6
CONTINUOUS
10
74.6058
20
-172.975
11
74.6058
21
-173.451
0
LINE
8
BLACK
6
CONTINUOUS
10
74.6058
20
-173.451
11
74.5106
21
-173.832
0
LINE
8
BLACK
6
CONTINUOUS
10
74.5106
20
-173.832
11
74.4153
21
-174.022
0
LINE
8
BLACK
6
CONTINUOUS
10
74.4153
20
-174.022
11
74.3201
21
-174.118
0
LINE
8
BLACK
6
CONTINUOUS
10
74.3201
20
-174.118
11
74.1296
21
-174.213
0
LINE
8
BLACK
6
CONTINUOUS
10
74.1296
20
-174.213
11
73.9391
21
-174.213
0
LINE
8
BLACK
6
CONTINUOUS
10
73.9391
20
-174.213
11
73.7487
21
-174.118
0
LINE
8
BLACK
6
CONTINUOUS
10
73.7487
20
-174.118
11
73.6534
21
-174.022
0
LINE
8
BLACK
6
CONTINUOUS
10
73.6534
20
-174.022
11
73.5582
21
-173.832
0
LINE
8
BLACK
6
CONTINUOUS
10
73.5582
20
-173.832
11
73.463
21
-173.451
0
LINE
8
BLACK
6
CONTINUOUS
10
73.463
20
-173.451
11
73.463
21
-172.975
0
LINE
8
BLACK
6
CONTINUOUS
10
73.463
20
-172.975
11
73.5582
21
-172.594
0
LINE
8
BLACK
6
CONTINUOUS
10
73.5582
20
-172.594
11
73.6534
21
-172.403
0
LINE
8
BLACK
6
CONTINUOUS
10
73.6534
20
-172.403
11
73.7487
21
-172.308
0
LINE
8
BLACK
6
CONTINUOUS
10
73.7487
20
-172.308
11
73.9391
21
-172.213
0
LINE
8
BLACK
6
CONTINUOUS
10
75.463
20
-174.022
11
75.5582
21
-174.118
0
LINE
8
BLACK
6
CONTINUOUS
10
75.5582
20
-174.118
11
75.463
21
-174.213
0
LINE
8
BLACK
6
CONTINUOUS
10
75.463
20
-174.213
11
75.3677
21
-174.118
0
LINE
8
BLACK
6
CONTINUOUS
10
75.3677
20
-174.118
11
75.463
21
-174.022
0
LINE
8
BLACK
6
CONTINUOUS
10
75.463
20
-174.022
11
75.463
21
-174.213
0
LINE
8
BLACK
6
CONTINUOUS
10
76.7963
20
-172.213
11
76.9868
21
-172.213
0
LINE
8
BLACK
6
CONTINUOUS
10
76.9868
20
-172.213
11
77.1772
21
-172.308
0
LINE
8
BLACK
6
CONTINUOUS
10
77.1772
20
-172.308
11
77.2725
21
-172.403
0
LINE
8
BLACK
6
CONTINUOUS
10
77.2725
20
-172.403
11
77.3677
21
-172.594
0
LINE
8
BLACK
6
CONTINUOUS
10
77.3677
20
-172.594
11
77.463
21
-172.975
0
LINE
8
BLACK
6
CONTINUOUS
10
77.463
20
-172.975
11
77.463
21
-173.451
0
LINE
8
BLACK
6
CONTINUOUS
10
77.463
20
-173.451
11
77.3677
21
-173.832
0
LINE
8
BLACK
6
CONTINUOUS
10
77.3677
20
-173.832
11
77.2725
21
-174.022
0
LINE
8
BLACK
6
CONTINUOUS
10
77.2725
20
-174.022
11
77.1772
21
-174.118
0
LINE
8
BLACK
6
CONTINUOUS
10
77.1772
20
-174.118
11
76.9868
21
-174.213
0
LINE
8
BLACK
6
CONTINUOUS
10
76.9868
20
-174.213
11
76.7963
21
-174.213
0
LINE
8
BLACK
6
CONTINUOUS
10
76.7963
20
-174.213
11
76.6058
21
-174.118
0
LINE
8
BLACK
6
CONTINUOUS
10
76.6058
20
-174.118
11
76.5106
21
-174.022
0
LINE
8
BLACK
6
CONTINUOUS
10
76.5106
20
-174.022
11
76.4153
21
-173.832
0
LINE
8
BLACK
6
CONTINUOUS
10
76.4153
20
-173.832
11
76.3201
21
-173.451
0
LINE
8
BLACK
6
CONTINUOUS
10
76.3201
20
-173.451
11
76.3201
21
-172.975
0
LINE
8
BLACK
6
CONTINUOUS
10
76.3201
20
-172.975
11
76.4153
21
-172.594
0
LINE
8
BLACK
6
CONTINUOUS
10
76.4153
20
-172.594
11
76.5106
21
-172.403
0
LINE
8
BLACK
6
CONTINUOUS
10
76.5106
20
-172.403
11
76.6058
21
-172.308
0
LINE
8
BLACK
6
CONTINUOUS
10
76.6058
20
-172.308
11
76.7963
21
-172.213
0
LINE
8
BLACK
6
CONTINUOUS
10
78.1296
20
-172.213
11
79.3677
21
-172.213
0
LINE
8
BLACK
6
CONTINUOUS
10
79.3677
20
-172.213
11
78.701
21
-172.975
0
LINE
8
BLACK
6
CONTINUOUS
10
78.701
20
-172.975
11
78.9868
21
-172.975
0
LINE
8
BLACK
6
CONTINUOUS
10
78.9868
20
-172.975
11
79.1772
21
-173.07
0
LINE
8
BLACK
6
CONTINUOUS
10
79.1772
20
-173.07
11
79.2725
21
-173.165
0
LINE
8
BLACK
6
CONTINUOUS
10
79.2725
20
-173.165
11
79.3677
21
-173.356
0
LINE
8
BLACK
6
CONTINUOUS
10
79.3677
20
-173.356
11
79.3677
21
-173.832
0
LINE
8
BLACK
6
CONTINUOUS
10
79.3677
20
-173.832
11
79.2725
21
-174.022
0
LINE
8
BLACK
6
CONTINUOUS
10
79.2725
20
-174.022
11
79.1772
21
-174.118
0
LINE
8
BLACK
6
CONTINUOUS
10
79.1772
20
-174.118
11
78.9868
21
-174.213
0
LINE
8
BLACK
6
CONTINUOUS
10
78.9868
20
-174.213
11
78.4153
21
-174.213
0
LINE
8
BLACK
6
CONTINUOUS
10
78.4153
20
-174.213
11
78.2249
21
-174.118
0
LINE
8
BLACK
6
CONTINUOUS
10
78.2249
20
-174.118
11
78.1296
21
-174.022
0
LINE
8
BLACK
6
CONTINUOUS
10
80.3201
20
-174.213
11
80.701
21
-174.213
0
LINE
8
BLACK
6
CONTINUOUS
10
80.701
20
-174.213
11
80.8915
21
-174.118
0
LINE
8
BLACK
6
CONTINUOUS
10
80.8915
20
-174.118
11
80.9868
21
-174.022
0
LINE
8
BLACK
6
CONTINUOUS
10
80.9868
20
-174.022
11
81.1772
21
-173.737
0
LINE
8
BLACK
6
CONTINUOUS
10
81.1772
20
-173.737
11
81.2725
21
-173.356
0
LINE
8
BLACK
6
CONTINUOUS
10
81.2725
20
-173.356
11
81.2725
21
-172.594
0
LINE
8
BLACK
6
CONTINUOUS
10
81.2725
20
-172.594
11
81.1772
21
-172.403
0
LINE
8
BLACK
6
CONTINUOUS
10
81.1772
20
-172.403
11
81.082
21
-172.308
0
LINE
8
BLACK
6
CONTINUOUS
10
81.082
20
-172.308
11
80.8915
21
-172.213
0
LINE
8
BLACK
6
CONTINUOUS
10
80.8915
20
-172.213
11
80.5106
21
-172.213
0
LINE
8
BLACK
6
CONTINUOUS
10
80.5106
20
-172.213
11
80.3201
21
-172.308
0
LINE
8
BLACK
6
CONTINUOUS
10
80.3201
20
-172.308
11
80.2249
21
-172.403
0
LINE
8
BLACK
6
CONTINUOUS
10
80.2249
20
-172.403
11
80.1296
21
-172.594
0
LINE
8
BLACK
6
CONTINUOUS
10
80.1296
20
-172.594
11
80.1296
21
-173.07
0
LINE
8
BLACK
6
CONTINUOUS
10
80.1296
20
-173.07
11
80.2249
21
-173.26
0
LINE
8
BLACK
6
CONTINUOUS
10
80.2249
20
-173.26
11
80.3201
21
-173.356
0
LINE
8
BLACK
6
CONTINUOUS
10
80.3201
20
-173.356
11
80.5106
21
-173.451
0
LINE
8
BLACK
6
CONTINUOUS
10
80.5106
20
-173.451
11
80.8915
21
-173.451
0
LINE
8
BLACK
6
CONTINUOUS
10
80.8915
20
-173.451
11
81.082
21
-173.356
0
LINE
8
BLACK
6
CONTINUOUS
10
81.082
20
-173.356
11
81.1772
21
-173.26
0
LINE
8
BLACK
6
CONTINUOUS
10
81.1772
20
-173.26
11
81.2725
21
-173.07
0
LINE
8
BLACK
6
CONTINUOUS
10
82.9868
20
-172.879
11
82.9868
21
-174.213
0
LINE
8
BLACK
6
CONTINUOUS
10
82.5106
20
-172.118
11
82.0344
21
-173.546
0
LINE
8
BLACK
6
CONTINUOUS
10
82.0344
20
-173.546
11
83.2725
21
-173.546
0
LINE
8
BLACK
6
CONTINUOUS
10
83.9391
20
-172.213
11
83.9391
21
-172.594
0
LINE
8
BLACK
6
CONTINUOUS
10
84.701
20
-172.213
11
84.701
21
-172.594
0
LINE
8
BLACK
6
CONTINUOUS
10
87.3296
20
-174.975
11
87.2344
21
-174.879
0
LINE
8
BLACK
6
CONTINUOUS
10
87.2344
20
-174.879
11
87.0439
21
-174.594
0
LINE
8
BLACK
6
CONTINUOUS
10
87.0439
20
-174.594
11
86.9487
21
-174.403
0
LINE
8
BLACK
6
CONTINUOUS
10
86.9487
20
-174.403
11
86.8534
21
-174.118
0
LINE
8
BLACK
6
CONTINUOUS
10
86.8534
20
-174.118
11
86.7582
21
-173.641
0
LINE
8
BLACK
6
CONTINUOUS
10
86.7582
20
-173.641
11
86.7582
21
-173.26
0
LINE
8
BLACK
6
CONTINUOUS
10
86.7582
20
-173.26
11
86.8534
21
-172.784
0
LINE
8
BLACK
6
CONTINUOUS
10
86.8534
20
-172.784
11
86.9487
21
-172.498
0
LINE
8
BLACK
6
CONTINUOUS
10
86.9487
20
-172.498
11
87.0439
21
-172.308
0
LINE
8
BLACK
6
CONTINUOUS
10
87.0439
20
-172.308
11
87.2344
21
-172.022
0
LINE
8
BLACK
6
CONTINUOUS
10
87.2344
20
-172.022
11
87.3296
21
-171.927
0
LINE
8
BLACK
6
CONTINUOUS
10
88.1868
20
-174.213
11
88.5677
21
-174.213
0
LINE
8
BLACK
6
CONTINUOUS
10
88.5677
20
-174.213
11
88.7582
21
-174.118
0
LINE
8
BLACK
6
CONTINUOUS
10
88.7582
20
-174.118
11
88.8534
21
-174.022
0
LINE
8
BLACK
6
CONTINUOUS
10
88.8534
20
-174.022
11
89.0439
21
-173.737
0
LINE
8
BLACK
6
CONTINUOUS
10
89.0439
20
-173.737
11
89.1391
21
-173.356
0
LINE
8
BLACK
6
CONTINUOUS
10
89.1391
20
-173.356
11
89.1391
21
-172.594
0
LINE
8
BLACK
6
CONTINUOUS
10
89.1391
20
-172.594
11
89.0439
21
-172.403
0
LINE
8
BLACK
6
CONTINUOUS
10
89.0439
20
-172.403
11
88.9487
21
-172.308
0
LINE
8
BLACK
6
CONTINUOUS
10
88.9487
20
-172.308
11
88.7582
21
-172.213
0
LINE
8
BLACK
6
CONTINUOUS
10
88.7582
20
-172.213
11
88.3772
21
-172.213
0
LINE
8
BLACK
6
CONTINUOUS
10
88.3772
20
-172.213
11
88.1868
21
-172.308
0
LINE
8
BLACK
6
CONTINUOUS
10
88.1868
20
-172.308
11
88.0915
21
-172.403
0
LINE
8
BLACK
6
CONTINUOUS
10
88.0915
20
-172.403
11
87.9963
21
-172.594
0
LINE
8
BLACK
6
CONTINUOUS
10
87.9963
20
-172.594
11
87.9963
21
-173.07
0
LINE
8
BLACK
6
CONTINUOUS
10
87.9963
20
-173.07
11
88.0915
21
-173.26
0
LINE
8
BLACK
6
CONTINUOUS
10
88.0915
20
-173.26
11
88.1868
21
-173.356
0
LINE
8
BLACK
6
CONTINUOUS
10
88.1868
20
-173.356
11
88.3772
21
-173.451
0
LINE
8
BLACK
6
CONTINUOUS
10
88.3772
20
-173.451
11
88.7582
21
-173.451
0
LINE
8
BLACK
6
CONTINUOUS
10
88.7582
20
-173.451
11
88.9487
21
-173.356
0
LINE
8
BLACK
6
CONTINUOUS
10
88.9487
20
-173.356
11
89.0439
21
-173.26
0
LINE
8
BLACK
6
CONTINUOUS
10
89.0439
20
-173.26
11
89.1391
21
-173.07
0
LINE
8
BLACK
6
CONTINUOUS
10
91.1963
20
-174.213
11
91.1963
21
-172.213
0
LINE
8
BLACK
6
CONTINUOUS
10
92.0534
20
-174.213
11
92.0534
21
-173.165
0
LINE
8
BLACK
6
CONTINUOUS
10
92.0534
20
-173.165
11
91.9582
21
-172.975
0
LINE
8
BLACK
6
CONTINUOUS
10
91.9582
20
-172.975
11
91.7677
21
-172.879
0
LINE
8
BLACK
6
CONTINUOUS
10
91.7677
20
-172.879
11
91.482
21
-172.879
0
LINE
8
BLACK
6
CONTINUOUS
10
91.482
20
-172.879
11
91.2915
21
-172.975
0
LINE
8
BLACK
6
CONTINUOUS
10
91.2915
20
-172.975
11
91.1963
21
-173.07
0
LINE
8
BLACK
6
CONTINUOUS
10
93.2915
20
-174.213
11
93.101
21
-174.118
0
LINE
8
BLACK
6
CONTINUOUS
10
93.101
20
-174.118
11
93.0058
21
-174.022
0
LINE
8
BLACK
6
CONTINUOUS
10
93.0058
20
-174.022
11
92.9106
21
-173.832
0
LINE
8
BLACK
6
CONTINUOUS
10
92.9106
20
-173.832
11
92.9106
21
-173.26
0
LINE
8
BLACK
6
CONTINUOUS
10
92.9106
20
-173.26
11
93.0058
21
-173.07
0
LINE
8
BLACK
6
CONTINUOUS
10
93.0058
20
-173.07
11
93.101
21
-172.975
0
LINE
8
BLACK
6
CONTINUOUS
10
93.101
20
-172.975
11
93.2915
21
-172.879
0
LINE
8
BLACK
6
CONTINUOUS
10
93.2915
20
-172.879
11
93.5772
21
-172.879
0
LINE
8
BLACK
6
CONTINUOUS
10
93.5772
20
-172.879
11
93.7677
21
-172.975
0
LINE
8
BLACK
6
CONTINUOUS
10
93.7677
20
-172.975
11
93.863
21
-173.07
0
LINE
8
BLACK
6
CONTINUOUS
10
93.863
20
-173.07
11
93.9582
21
-173.26
0
LINE
8
BLACK
6
CONTINUOUS
10
93.9582
20
-173.26
11
93.9582
21
-173.832
0
LINE
8
BLACK
6
CONTINUOUS
10
93.9582
20
-173.832
11
93.863
21
-174.022
0
LINE
8
BLACK
6
CONTINUOUS
10
93.863
20
-174.022
11
93.7677
21
-174.118
0
LINE
8
BLACK
6
CONTINUOUS
10
93.7677
20
-174.118
11
93.5772
21
-174.213
0
LINE
8
BLACK
6
CONTINUOUS
10
93.5772
20
-174.213
11
93.2915
21
-174.213
0
LINE
8
BLACK
6
CONTINUOUS
10
95.101
20
-174.213
11
94.9106
21
-174.118
0
LINE
8
BLACK
6
CONTINUOUS
10
94.9106
20
-174.118
11
94.8153
21
-173.927
0
LINE
8
BLACK
6
CONTINUOUS
10
94.8153
20
-173.927
11
94.8153
21
-172.213
0
LINE
8
BLACK
6
CONTINUOUS
10
96.6249
20
-174.118
11
96.4344
21
-174.213
0
LINE
8
BLACK
6
CONTINUOUS
10
96.4344
20
-174.213
11
96.0534
21
-174.213
0
LINE
8
BLACK
6
CONTINUOUS
10
96.0534
20
-174.213
11
95.863
21
-174.118
0
LINE
8
BLACK
6
CONTINUOUS
10
95.863
20
-174.118
11
95.7677
21
-173.927
0
LINE
8
BLACK
6
CONTINUOUS
10
95.7677
20
-173.927
11
95.7677
21
-173.165
0
LINE
8
BLACK
6
CONTINUOUS
10
95.7677
20
-173.165
11
95.863
21
-172.975
0
LINE
8
BLACK
6
CONTINUOUS
10
95.863
20
-172.975
11
96.0534
21
-172.879
0
LINE
8
BLACK
6
CONTINUOUS
10
96.0534
20
-172.879
11
96.4344
21
-172.879
0
LINE
8
BLACK
6
CONTINUOUS
10
96.4344
20
-172.879
11
96.6249
21
-172.975
0
LINE
8
BLACK
6
CONTINUOUS
10
96.6249
20
-172.975
11
96.7201
21
-173.165
0
LINE
8
BLACK
6
CONTINUOUS
10
96.7201
20
-173.165
11
96.7201
21
-173.356
0
LINE
8
BLACK
6
CONTINUOUS
10
96.7201
20
-173.356
11
95.7677
21
-173.546
0
LINE
8
BLACK
6
CONTINUOUS
10
97.482
20
-174.118
11
97.6725
21
-174.213
0
LINE
8
BLACK
6
CONTINUOUS
10
97.6725
20
-174.213
11
98.0534
21
-174.213
0
LINE
8
BLACK
6
CONTINUOUS
10
98.0534
20
-174.213
11
98.2439
21
-174.118
0
LINE
8
BLACK
6
CONTINUOUS
10
98.2439
20
-174.118
11
98.3391
21
-173.927
0
LINE
8
BLACK
6
CONTINUOUS
10
98.3391
20
-173.927
11
98.3391
21
-173.832
0
LINE
8
BLACK
6
CONTINUOUS
10
98.3391
20
-173.832
11
98.2439
21
-173.641
0
LINE
8
BLACK
6
CONTINUOUS
10
98.2439
20
-173.641
11
98.0534
21
-173.546
0
LINE
8
BLACK
6
CONTINUOUS
10
98.0534
20
-173.546
11
97.7677
21
-173.546
0
LINE
8
BLACK
6
CONTINUOUS
10
97.7677
20
-173.546
11
97.5772
21
-173.451
0
LINE
8
BLACK
6
CONTINUOUS
10
97.5772
20
-173.451
11
97.482
21
-173.26
0
LINE
8
BLACK
6
CONTINUOUS
10
97.482
20
-173.26
11
97.482
21
-173.165
0
LINE
8
BLACK
6
CONTINUOUS
10
97.482
20
-173.165
11
97.5772
21
-172.975
0
LINE
8
BLACK
6
CONTINUOUS
10
97.5772
20
-172.975
11
97.7677
21
-172.879
0
LINE
8
BLACK
6
CONTINUOUS
10
97.7677
20
-172.879
11
98.0534
21
-172.879
0
LINE
8
BLACK
6
CONTINUOUS
10
98.0534
20
-172.879
11
98.2439
21
-172.975
0
LINE
8
BLACK
6
CONTINUOUS
10
99.0058
20
-174.975
11
99.1011
21
-174.879
0
LINE
8
BLACK
6
CONTINUOUS
10
99.1011
20
-174.879
11
99.2915
21
-174.594
0
LINE
8
BLACK
6
CONTINUOUS
10
99.2915
20
-174.594
11
99.3868
21
-174.403
0
LINE
8
BLACK
6
CONTINUOUS
10
99.3868
20
-174.403
11
99.482
21
-174.118
0
LINE
8
BLACK
6
CONTINUOUS
10
99.482
20
-174.118
11
99.5772
21
-173.641
0
LINE
8
BLACK
6
CONTINUOUS
10
99.5772
20
-173.641
11
99.5772
21
-173.26
0
LINE
8
BLACK
6
CONTINUOUS
10
99.5772
20
-173.26
11
99.482
21
-172.784
0
LINE
8
BLACK
6
CONTINUOUS
10
99.482
20
-172.784
11
99.3868
21
-172.498
0
LINE
8
BLACK
6
CONTINUOUS
10
99.3868
20
-172.498
11
99.2915
21
-172.308
0
LINE
8
BLACK
6
CONTINUOUS
10
99.2915
20
-172.308
11
99.1011
21
-172.022
0
LINE
8
BLACK
6
CONTINUOUS
10
99.1011
20
-172.022
11
99.0058
21
-171.927
0
LINE
8
BLACK
6
CONTINUOUS
10
50.882
20
-175.218
11
52.682
21
-177.018
0
LINE
8
BLACK
6
CONTINUOUS
10
52.682
20
-175.218
11
50.882
21
-177.018
0
CIRCLE
8
BLACK
10
51.782
20
-176.118
40
0.9
0
LINE
8
BLACK
6
CONTINUOUS
10
56.2058
20
-176.853
11
55.063
21
-176.853
0
LINE
8
BLACK
6
CONTINUOUS
10
55.6344
20
-176.853
11
55.6344
21
-174.853
0
LINE
8
BLACK
6
CONTINUOUS
10
55.6344
20
-174.853
11
55.4439
21
-175.138
0
LINE
8
BLACK
6
CONTINUOUS
10
55.4439
20
-175.138
11
55.2534
21
-175.329
0
LINE
8
BLACK
6
CONTINUOUS
10
55.2534
20
-175.329
11
55.063
21
-175.424
0
LINE
8
BLACK
6
CONTINUOUS
10
57.063
20
-176.662
11
57.1582
21
-176.758
0
LINE
8
BLACK
6
CONTINUOUS
10
57.1582
20
-176.758
11
57.063
21
-176.853
0
LINE
8
BLACK
6
CONTINUOUS
10
57.063
20
-176.853
11
56.9677
21
-176.758
0
LINE
8
BLACK
6
CONTINUOUS
10
56.9677
20
-176.758
11
57.063
21
-176.662
0
LINE
8
BLACK
6
CONTINUOUS
10
57.063
20
-176.662
11
57.063
21
-176.853
0
LINE
8
BLACK
6
CONTINUOUS
10
58.301
20
-175.71
11
58.1106
21
-175.615
0
LINE
8
BLACK
6
CONTINUOUS
10
58.1106
20
-175.615
11
58.0153
21
-175.519
0
LINE
8
BLACK
6
CONTINUOUS
10
58.0153
20
-175.519
11
57.9201
21
-175.329
0
LINE
8
BLACK
6
CONTINUOUS
10
57.9201
20
-175.329
11
57.9201
21
-175.234
0
LINE
8
BLACK
6
CONTINUOUS
10
57.9201
20
-175.234
11
58.0153
21
-175.043
0
LINE
8
BLACK
6
CONTINUOUS
10
58.0153
20
-175.043
11
58.1106
21
-174.948
0
LINE
8
BLACK
6
CONTINUOUS
10
58.1106
20
-174.948
11
58.301
21
-174.853
0
LINE
8
BLACK
6
CONTINUOUS
10
58.301
20
-174.853
11
58.682
21
-174.853
0
LINE
8
BLACK
6
CONTINUOUS
10
58.682
20
-174.853
11
58.8725
21
-174.948
0
LINE
8
BLACK
6
CONTINUOUS
10
58.8725
20
-174.948
11
58.9677
21
-175.043
0
LINE
8
BLACK
6
CONTINUOUS
10
58.9677
20
-175.043
11
59.063
21
-175.234
0
LINE
8
BLACK
6
CONTINUOUS
10
59.063
20
-175.234
11
59.063
21
-175.329
0
LINE
8
BLACK
6
CONTINUOUS
10
59.063
20
-175.329
11
58.9677
21
-175.519
0
LINE
8
BLACK
6
CONTINUOUS
10
58.9677
20
-175.519
11
58.8725
21
-175.615
0
LINE
8
BLACK
6
CONTINUOUS
10
58.8725
20
-175.615
11
58.682
21
-175.71
0
LINE
8
BLACK
6
CONTINUOUS
10
58.682
20
-175.71
11
58.301
21
-175.71
0
LINE
8
BLACK
6
CONTINUOUS
10
58.301
20
-175.71
11
58.1106
21
-175.805
0
LINE
8
BLACK
6
CONTINUOUS
10
58.1106
20
-175.805
11
58.0153
21
-175.9
0
LINE
8
BLACK
6
CONTINUOUS
10
58.0153
20
-175.9
11
57.9201
21
-176.091
0
LINE
8
BLACK
6
CONTINUOUS
10
57.9201
20
-176.091
11
57.9201
21
-176.472
0
LINE
8
BLACK
6
CONTINUOUS
10
57.9201
20
-176.472
11
58.0153
21
-176.662
0
LINE
8
BLACK
6
CONTINUOUS
10
58.0153
20
-176.662
11
58.1106
21
-176.758
0
LINE
8
BLACK
6
CONTINUOUS
10
58.1106
20
-176.758
11
58.301
21
-176.853
0
LINE
8
BLACK
6
CONTINUOUS
10
58.301
20
-176.853
11
58.682
21
-176.853
0
LINE
8
BLACK
6
CONTINUOUS
10
58.682
20
-176.853
11
58.8725
21
-176.758
0
LINE
8
BLACK
6
CONTINUOUS
10
58.8725
20
-176.758
11
58.9677
21
-176.662
0
LINE
8
BLACK
6
CONTINUOUS
10
58.9677
20
-176.662
11
59.063
21
-176.472
0
LINE
8
BLACK
6
CONTINUOUS
10
59.063
20
-176.472
11
59.063
21
-176.091
0
LINE
8
BLACK
6
CONTINUOUS
10
59.063
20
-176.091
11
58.9677
21
-175.9
0
LINE
8
BLACK
6
CONTINUOUS
10
58.9677
20
-175.9
11
58.8725
21
-175.805
0
LINE
8
BLACK
6
CONTINUOUS
10
58.8725
20
-175.805
11
58.682
21
-175.71
0
LINE
8
BLACK
6
CONTINUOUS
10
60.301
20
-174.853
11
60.4915
21
-174.853
0
LINE
8
BLACK
6
CONTINUOUS
10
60.4915
20
-174.853
11
60.682
21
-174.948
0
LINE
8
BLACK
6
CONTINUOUS
10
60.682
20
-174.948
11
60.7772
21
-175.043
0
LINE
8
BLACK
6
CONTINUOUS
10
60.7772
20
-175.043
11
60.8725
21
-175.234
0
LINE
8
BLACK
6
CONTINUOUS
10
60.8725
20
-175.234
11
60.9677
21
-175.615
0
LINE
8
BLACK
6
CONTINUOUS
10
60.9677
20
-175.615
11
60.9677
21
-176.091
0
LINE
8
BLACK
6
CONTINUOUS
10
60.9677
20
-176.091
11
60.8725
21
-176.472
0
LINE
8
BLACK
6
CONTINUOUS
10
60.8725
20
-176.472
11
60.7772
21
-176.662
0
LINE
8
BLACK
6
CONTINUOUS
10
60.7772
20
-176.662
11
60.682
21
-176.758
0
LINE
8
BLACK
6
CONTINUOUS
10
60.682
20
-176.758
11
60.4915
21
-176.853
0
LINE
8
BLACK
6
CONTINUOUS
10
60.4915
20
-176.853
11
60.301
21
-176.853
0
LINE
8
BLACK
6
CONTINUOUS
10
60.301
20
-176.853
11
60.1106
21
-176.758
0
LINE
8
BLACK
6
CONTINUOUS
10
60.1106
20
-176.758
11
60.0153
21
-176.662
0
LINE
8
BLACK
6
CONTINUOUS
10
60.0153
20
-176.662
11
59.9201
21
-176.472
0
LINE
8
BLACK
6
CONTINUOUS
10
59.9201
20
-176.472
11
59.8249
21
-176.091
0
LINE
8
BLACK
6
CONTINUOUS
10
59.8249
20
-176.091
11
59.8249
21
-175.615
0
LINE
8
BLACK
6
CONTINUOUS
10
59.8249
20
-175.615
11
59.9201
21
-175.234
0
LINE
8
BLACK
6
CONTINUOUS
10
59.9201
20
-175.234
11
60.0153
21
-175.043
0
LINE
8
BLACK
6
CONTINUOUS
10
60.0153
20
-175.043
11
60.1106
21
-174.948
0
LINE
8
BLACK
6
CONTINUOUS
10
60.1106
20
-174.948
11
60.301
21
-174.853
0
LINE
8
BLACK
6
CONTINUOUS
10
62.2058
20
-174.853
11
62.3963
21
-174.853
0
LINE
8
BLACK
6
CONTINUOUS
10
62.3963
20
-174.853
11
62.5868
21
-174.948
0
LINE
8
BLACK
6
CONTINUOUS
10
62.5868
20
-174.948
11
62.682
21
-175.043
0
LINE
8
BLACK
6
CONTINUOUS
10
62.682
20
-175.043
11
62.7772
21
-175.234
0
LINE
8
BLACK
6
CONTINUOUS
10
62.7772
20
-175.234
11
62.8725
21
-175.615
0
LINE
8
BLACK
6
CONTINUOUS
10
62.8725
20
-175.615
11
62.8725
21
-176.091
0
LINE
8
BLACK
6
CONTINUOUS
10
62.8725
20
-176.091
11
62.7772
21
-176.472
0
LINE
8
BLACK
6
CONTINUOUS
10
62.7772
20
-176.472
11
62.682
21
-176.662
0
LINE
8
BLACK
6
CONTINUOUS
10
62.682
20
-176.662
11
62.5868
21
-176.758
0
LINE
8
BLACK
6
CONTINUOUS
10
62.5868
20
-176.758
11
62.3963
21
-176.853
0
LINE
8
BLACK
6
CONTINUOUS
10
62.3963
20
-176.853
11
62.2058
21
-176.853
0
LINE
8
BLACK
6
CONTINUOUS
10
62.2058
20
-176.853
11
62.0153
21
-176.758
0
LINE
8
BLACK
6
CONTINUOUS
10
62.0153
20
-176.758
11
61.9201
21
-176.662
0
LINE
8
BLACK
6
CONTINUOUS
10
61.9201
20
-176.662
11
61.8249
21
-176.472
0
LINE
8
BLACK
6
CONTINUOUS
10
61.8249
20
-176.472
11
61.7296
21
-176.091
0
LINE
8
BLACK
6
CONTINUOUS
10
61.7296
20
-176.091
11
61.7296
21
-175.615
0
LINE
8
BLACK
6
CONTINUOUS
10
61.7296
20
-175.615
11
61.8249
21
-175.234
0
LINE
8
BLACK
6
CONTINUOUS
10
61.8249
20
-175.234
11
61.9201
21
-175.043
0
LINE
8
BLACK
6
CONTINUOUS
10
61.9201
20
-175.043
11
62.0153
21
-174.948
0
LINE
8
BLACK
6
CONTINUOUS
10
62.0153
20
-174.948
11
62.2058
21
-174.853
0
LINE
8
BLACK
6
CONTINUOUS
10
63.7296
20
-176.853
11
63.7296
21
-175.519
0
LINE
8
BLACK
6
CONTINUOUS
10
63.7296
20
-175.71
11
63.8249
21
-175.615
0
LINE
8
BLACK
6
CONTINUOUS
10
63.8249
20
-175.615
11
64.0153
21
-175.519
0
LINE
8
BLACK
6
CONTINUOUS
10
64.0153
20
-175.519
11
64.301
21
-175.519
0
LINE
8
BLACK
6
CONTINUOUS
10
64.301
20
-175.519
11
64.4915
21
-175.615
0
LINE
8
BLACK
6
CONTINUOUS
10
64.4915
20
-175.615
11
64.5868
21
-175.805
0
LINE
8
BLACK
6
CONTINUOUS
10
64.5868
20
-175.805
11
64.5868
21
-176.853
0
LINE
8
BLACK
6
CONTINUOUS
10
64.5868
20
-175.805
11
64.682
21
-175.615
0
LINE
8
BLACK
6
CONTINUOUS
10
64.682
20
-175.615
11
64.8725
21
-175.519
0
LINE
8
BLACK
6
CONTINUOUS
10
64.8725
20
-175.519
11
65.1582
21
-175.519
0
LINE
8
BLACK
6
CONTINUOUS
10
65.1582
20
-175.519
11
65.3487
21
-175.615
0
LINE
8
BLACK
6
CONTINUOUS
10
65.3487
20
-175.615
11
65.4439
21
-175.805
0
LINE
8
BLACK
6
CONTINUOUS
10
65.4439
20
-175.805
11
65.4439
21
-176.853
0
LINE
8
BLACK
6
CONTINUOUS
10
66.3963
20
-176.853
11
66.3963
21
-175.519
0
LINE
8
BLACK
6
CONTINUOUS
10
66.3963
20
-175.71
11
66.4915
21
-175.615
0
LINE
8
BLACK
6
CONTINUOUS
10
66.4915
20
-175.615
11
66.682
21
-175.519
0
LINE
8
BLACK
6
CONTINUOUS
10
66.682
20
-175.519
11
66.9677
21
-175.519
0
LINE
8
BLACK
6
CONTINUOUS
10
66.9677
20
-175.519
11
67.1582
21
-175.615
0
LINE
8
BLACK
6
CONTINUOUS
10
67.1582
20
-175.615
11
67.2534
21
-175.805
0
LINE
8
BLACK
6
CONTINUOUS
10
67.2534
20
-175.805
11
67.2534
21
-176.853
0
LINE
8
BLACK
6
CONTINUOUS
10
67.2534
20
-175.805
11
67.3487
21
-175.615
0
LINE
8
BLACK
6
CONTINUOUS
10
67.3487
20
-175.615
11
67.5391
21
-175.519
0
LINE
8
BLACK
6
CONTINUOUS
10
67.5391
20
-175.519
11
67.8249
21
-175.519
0
LINE
8
BLACK
6
CONTINUOUS
10
67.8249
20
-175.519
11
68.0153
21
-175.615
0
LINE
8
BLACK
6
CONTINUOUS
10
68.0153
20
-175.615
11
68.1106
21
-175.805
0
LINE
8
BLACK
6
CONTINUOUS
10
68.1106
20
-175.805
11
68.1106
21
-176.853
0
LINE
8
BLACK
6
CONTINUOUS
10
71.6915
20
-174.758
11
69.9772
21
-177.329
0
LINE
8
BLACK
6
CONTINUOUS
10
73.9391
20
-174.853
11
74.1296
21
-174.853
0
LINE
8
BLACK
6
CONTINUOUS
10
74.1296
20
-174.853
11
74.3201
21
-174.948
0
LINE
8
BLACK
6
CONTINUOUS
10
74.3201
20
-174.948
11
74.4153
21
-175.043
0
LINE
8
BLACK
6
CONTINUOUS
10
74.4153
20
-175.043
11
74.5106
21
-175.234
0
LINE
8
BLACK
6
CONTINUOUS
10
74.5106
20
-175.234
11
74.6058
21
-175.615
0
LINE
8
BLACK
6
CONTINUOUS
10
74.6058
20
-175.615
11
74.6058
21
-176.091
0
LINE
8
BLACK
6
CONTINUOUS
10
74.6058
20
-176.091
11
74.5106
21
-176.472
0
LINE
8
BLACK
6
CONTINUOUS
10
74.5106
20
-176.472
11
74.4153
21
-176.662
0
LINE
8
BLACK
6
CONTINUOUS
10
74.4153
20
-176.662
11
74.3201
21
-176.758
0
LINE
8
BLACK
6
CONTINUOUS
10
74.3201
20
-176.758
11
74.1296
21
-176.853
0
LINE
8
BLACK
6
CONTINUOUS
10
74.1296
20
-176.853
11
73.9391
21
-176.853
0
LINE
8
BLACK
6
CONTINUOUS
10
73.9391
20
-176.853
11
73.7487
21
-176.758
0
LINE
8
BLACK
6
CONTINUOUS
10
73.7487
20
-176.758
11
73.6534
21
-176.662
0
LINE
8
BLACK
6
CONTINUOUS
10
73.6534
20
-176.662
11
73.5582
21
-176.472
0
LINE
8
BLACK
6
CONTINUOUS
10
73.5582
20
-176.472
11
73.463
21
-176.091
0
LINE
8
BLACK
6
CONTINUOUS
10
73.463
20
-176.091
11
73.463
21
-175.615
0
LINE
8
BLACK
6
CONTINUOUS
10
73.463
20
-175.615
11
73.5582
21
-175.234
0
LINE
8
BLACK
6
CONTINUOUS
10
73.5582
20
-175.234
11
73.6534
21
-175.043
0
LINE
8
BLACK
6
CONTINUOUS
10
73.6534
20
-175.043
11
73.7487
21
-174.948
0
LINE
8
BLACK
6
CONTINUOUS
10
73.7487
20
-174.948
11
73.9391
21
-174.853
0
LINE
8
BLACK
6
CONTINUOUS
10
75.463
20
-176.662
11
75.5582
21
-176.758
0
LINE
8
BLACK
6
CONTINUOUS
10
75.5582
20
-176.758
11
75.463
21
-176.853
0
LINE
8
BLACK
6
CONTINUOUS
10
75.463
20
-176.853
11
75.3677
21
-176.758
0
LINE
8
BLACK
6
CONTINUOUS
10
75.3677
20
-176.758
11
75.463
21
-176.662
0
LINE
8
BLACK
6
CONTINUOUS
10
75.463
20
-176.662
11
75.463
21
-176.853
0
LINE
8
BLACK
6
CONTINUOUS
10
76.7963
20
-174.853
11
76.9868
21
-174.853
0
LINE
8
BLACK
6
CONTINUOUS
10
76.9868
20
-174.853
11
77.1772
21
-174.948
0
LINE
8
BLACK
6
CONTINUOUS
10
77.1772
20
-174.948
11
77.2725
21
-175.043
0
LINE
8
BLACK
6
CONTINUOUS
10
77.2725
20
-175.043
11
77.3677
21
-175.234
0
LINE
8
BLACK
6
CONTINUOUS
10
77.3677
20
-175.234
11
77.463
21
-175.615
0
LINE
8
BLACK
6
CONTINUOUS
10
77.463
20
-175.615
11
77.463
21
-176.091
0
LINE
8
BLACK
6
CONTINUOUS
10
77.463
20
-176.091
11
77.3677
21
-176.472
0
LINE
8
BLACK
6
CONTINUOUS
10
77.3677
20
-176.472
11
77.2725
21
-176.662
0
LINE
8
BLACK
6
CONTINUOUS
10
77.2725
20
-176.662
11
77.1772
21
-176.758
0
LINE
8
BLACK
6
CONTINUOUS
10
77.1772
20
-176.758
11
76.9868
21
-176.853
0
LINE
8
BLACK
6
CONTINUOUS
10
76.9868
20
-176.853
11
76.7963
21
-176.853
0
LINE
8
BLACK
6
CONTINUOUS
10
76.7963
20
-176.853
11
76.6058
21
-176.758
0
LINE
8
BLACK
6
CONTINUOUS
10
76.6058
20
-176.758
11
76.5106
21
-176.662
0
LINE
8
BLACK
6
CONTINUOUS
10
76.5106
20
-176.662
11
76.4153
21
-176.472
0
LINE
8
BLACK
6
CONTINUOUS
10
76.4153
20
-176.472
11
76.3201
21
-176.091
0
LINE
8
BLACK
6
CONTINUOUS
10
76.3201
20
-176.091
11
76.3201
21
-175.615
0
LINE
8
BLACK
6
CONTINUOUS
10
76.3201
20
-175.615
11
76.4153
21
-175.234
0
LINE
8
BLACK
6
CONTINUOUS
10
76.4153
20
-175.234
11
76.5106
21
-175.043
0
LINE
8
BLACK
6
CONTINUOUS
10
76.5106
20
-175.043
11
76.6058
21
-174.948
0
LINE
8
BLACK
6
CONTINUOUS
10
76.6058
20
-174.948
11
76.7963
21
-174.853
0
LINE
8
BLACK
6
CONTINUOUS
10
78.1296
20
-174.853
11
79.463
21
-174.853
0
LINE
8
BLACK
6
CONTINUOUS
10
79.463
20
-174.853
11
78.6058
21
-176.853
0
LINE
8
BLACK
6
CONTINUOUS
10
80.6058
20
-174.853
11
80.7963
21
-174.853
0
LINE
8
BLACK
6
CONTINUOUS
10
80.7963
20
-174.853
11
80.9868
21
-174.948
0
LINE
8
BLACK
6
CONTINUOUS
10
80.9868
20
-174.948
11
81.082
21
-175.043
0
LINE
8
BLACK
6
CONTINUOUS
10
81.082
20
-175.043
11
81.1772
21
-175.234
0
LINE
8
BLACK
6
CONTINUOUS
10
81.1772
20
-175.234
11
81.2725
21
-175.615
0
LINE
8
BLACK
6
CONTINUOUS
10
81.2725
20
-175.615
11
81.2725
21
-176.091
0
LINE
8
BLACK
6
CONTINUOUS
10
81.2725
20
-176.091
11
81.1772
21
-176.472
0
LINE
8
BLACK
6
CONTINUOUS
10
81.1772
20
-176.472
11
81.082
21
-176.662
0
LINE
8
BLACK
6
CONTINUOUS
10
81.082
20
-176.662
11
80.9868
21
-176.758
0
LINE
8
BLACK
6
CONTINUOUS
10
80.9868
20
-176.758
11
80.7963
21
-176.853
0
LINE
8
BLACK
6
CONTINUOUS
10
80.7963
20
-176.853
11
80.6058
21
-176.853
0
LINE
8
BLACK
6
CONTINUOUS
10
80.6058
20
-176.853
11
80.4153
21
-176.758
0
LINE
8
BLACK
6
CONTINUOUS
10
80.4153
20
-176.758
11
80.3201
21
-176.662
0
LINE
8
BLACK
6
CONTINUOUS
10
80.3201
20
-176.662
11
80.2249
21
-176.472
0
LINE
8
BLACK
6
CONTINUOUS
10
80.2249
20
-176.472
11
80.1296
21
-176.091
0
LINE
8
BLACK
6
CONTINUOUS
10
80.1296
20
-176.091
11
80.1296
21
-175.615
0
LINE
8
BLACK
6
CONTINUOUS
10
80.1296
20
-175.615
11
80.2249
21
-175.234
0
LINE
8
BLACK
6
CONTINUOUS
10
80.2249
20
-175.234
11
80.3201
21
-175.043
0
LINE
8
BLACK
6
CONTINUOUS
10
80.3201
20
-175.043
11
80.4153
21
-174.948
0
LINE
8
BLACK
6
CONTINUOUS
10
80.4153
20
-174.948
11
80.6058
21
-174.853
0
LINE
8
BLACK
6
CONTINUOUS
10
82.2249
20
-176.853
11
82.6058
21
-176.853
0
LINE
8
BLACK
6
CONTINUOUS
10
82.6058
20
-176.853
11
82.7963
21
-176.758
0
LINE
8
BLACK
6
CONTINUOUS
10
82.7963
20
-176.758
11
82.8915
21
-176.662
0
LINE
8
BLACK
6
CONTINUOUS
10
82.8915
20
-176.662
11
83.082
21
-176.377
0
LINE
8
BLACK
6
CONTINUOUS
10
83.082
20
-176.377
11
83.1772
21
-175.996
0
LINE
8
BLACK
6
CONTINUOUS
10
83.1772
20
-175.996
11
83.1772
21
-175.234
0
LINE
8
BLACK
6
CONTINUOUS
10
83.1772
20
-175.234
11
83.082
21
-175.043
0
LINE
8
BLACK
6
CONTINUOUS
10
83.082
20
-175.043
11
82.9868
21
-174.948
0
LINE
8
BLACK
6
CONTINUOUS
10
82.9868
20
-174.948
11
82.7963
21
-174.853
0
LINE
8
BLACK
6
CONTINUOUS
10
82.7963
20
-174.853
11
82.4153
21
-174.853
0
LINE
8
BLACK
6
CONTINUOUS
10
82.4153
20
-174.853
11
82.2249
21
-174.948
0
LINE
8
BLACK
6
CONTINUOUS
10
82.2249
20
-174.948
11
82.1296
21
-175.043
0
LINE
8
BLACK
6
CONTINUOUS
10
82.1296
20
-175.043
11
82.0344
21
-175.234
0
LINE
8
BLACK
6
CONTINUOUS
10
82.0344
20
-175.234
11
82.0344
21
-175.71
0
LINE
8
BLACK
6
CONTINUOUS
10
82.0344
20
-175.71
11
82.1296
21
-175.9
0
LINE
8
BLACK
6
CONTINUOUS
10
82.1296
20
-175.9
11
82.2249
21
-175.996
0
LINE
8
BLACK
6
CONTINUOUS
10
82.2249
20
-175.996
11
82.4153
21
-176.091
0
LINE
8
BLACK
6
CONTINUOUS
10
82.4153
20
-176.091
11
82.7963
21
-176.091
0
LINE
8
BLACK
6
CONTINUOUS
10
82.7963
20
-176.091
11
82.9868
21
-175.996
0
LINE
8
BLACK
6
CONTINUOUS
10
82.9868
20
-175.996
11
83.082
21
-175.9
0
LINE
8
BLACK
6
CONTINUOUS
10
83.082
20
-175.9
11
83.1772
21
-175.71
0
LINE
8
BLACK
6
CONTINUOUS
10
83.9391
20
-174.853
11
83.9391
21
-175.234
0
LINE
8
BLACK
6
CONTINUOUS
10
84.701
20
-174.853
11
84.701
21
-175.234
0
LINE
8
BLACK
6
CONTINUOUS
10
87.3296
20
-177.615
11
87.2344
21
-177.519
0
LINE
8
BLACK
6
CONTINUOUS
10
87.2344
20
-177.519
11
87.0439
21
-177.234
0
LINE
8
BLACK
6
CONTINUOUS
10
87.0439
20
-177.234
11
86.9487
21
-177.043
0
LINE
8
BLACK
6
CONTINUOUS
10
86.9487
20
-177.043
11
86.8534
21
-176.758
0
LINE
8
BLACK
6
CONTINUOUS
10
86.8534
20
-176.758
11
86.7582
21
-176.281
0
LINE
8
BLACK
6
CONTINUOUS
10
86.7582
20
-176.281
11
86.7582
21
-175.9
0
LINE
8
BLACK
6
CONTINUOUS
10
86.7582
20
-175.9
11
86.8534
21
-175.424
0
LINE
8
BLACK
6
CONTINUOUS
10
86.8534
20
-175.424
11
86.9487
21
-175.138
0
LINE
8
BLACK
6
CONTINUOUS
10
86.9487
20
-175.138
11
87.0439
21
-174.948
0
LINE
8
BLACK
6
CONTINUOUS
10
87.0439
20
-174.948
11
87.2344
21
-174.662
0
LINE
8
BLACK
6
CONTINUOUS
10
87.2344
20
-174.662
11
87.3296
21
-174.567
0
LINE
8
BLACK
6
CONTINUOUS
10
87.9963
20
-175.043
11
88.0915
21
-174.948
0
LINE
8
BLACK
6
CONTINUOUS
10
88.0915
20
-174.948
11
88.282
21
-174.853
0
LINE
8
BLACK
6
CONTINUOUS
10
88.282
20
-174.853
11
88.7582
21
-174.853
0
LINE
8
BLACK
6
CONTINUOUS
10
88.7582
20
-174.853
11
88.9487
21
-174.948
0
LINE
8
BLACK
6
CONTINUOUS
10
88.9487
20
-174.948
11
89.0439
21
-175.043
0
LINE
8
BLACK
6
CONTINUOUS
10
89.0439
20
-175.043
11
89.1391
21
-175.234
0
LINE
8
BLACK
6
CONTINUOUS
10
89.1391
20
-175.234
11
89.1391
21
-175.424
0
LINE
8
BLACK
6
CONTINUOUS
10
89.1391
20
-175.424
11
89.0439
21
-175.71
0
LINE
8
BLACK
6
CONTINUOUS
10
89.0439
20
-175.71
11
87.901
21
-176.853
0
LINE
8
BLACK
6
CONTINUOUS
10
87.901
20
-176.853
11
89.1391
21
-176.853
0
LINE
8
BLACK
6
CONTINUOUS
10
91.1963
20
-176.853
11
91.1963
21
-174.853
0
LINE
8
BLACK
6
CONTINUOUS
10
92.0534
20
-176.853
11
92.0534
21
-175.805
0
LINE
8
BLACK
6
CONTINUOUS
10
92.0534
20
-175.805
11
91.9582
21
-175.615
0
LINE
8
BLACK
6
CONTINUOUS
10
91.9582
20
-175.615
11
91.7677
21
-175.519
0
LINE
8
BLACK
6
CONTINUOUS
10
91.7677
20
-175.519
11
91.482
21
-175.519
0
LINE
8
BLACK
6
CONTINUOUS
10
91.482
20
-175.519
11
91.2915
21
-175.615
0
LINE
8
BLACK
6
CONTINUOUS
10
91.2915
20
-175.615
11
91.1963
21
-175.71
0
LINE
8
BLACK
6
CONTINUOUS
10
93.2915
20
-176.853
11
93.101
21
-176.758
0
LINE
8
BLACK
6
CONTINUOUS
10
93.101
20
-176.758
11
93.0058
21
-176.662
0
LINE
8
BLACK
6
CONTINUOUS
10
93.0058
20
-176.662
11
92.9106
21
-176.472
0
LINE
8
BLACK
6
CONTINUOUS
10
92.9106
20
-176.472
11
92.9106
21
-175.9
0
LINE
8
BLACK
6
CONTINUOUS
10
92.9106
20
-175.9
11
93.0058
21
-175.71
0
LINE
8
BLACK
6
CONTINUOUS
10
93.0058
20
-175.71
11
93.101
21
-175.615
0
LINE
8
BLACK
6
CONTINUOUS
10
93.101
20
-175.615
11
93.2915
21
-175.519
0
LINE
8
BLACK
6
CONTINUOUS
10
93.2915
20
-175.519
11
93.5772
21
-175.519
0
LINE
8
BLACK
6
CONTINUOUS
10
93.5772
20
-175.519
11
93.7677
21
-175.615
0
LINE
8
BLACK
6
CONTINUOUS
10
93.7677
20
-175.615
11
93.863
21
-175.71
0
LINE
8
BLACK
6
CONTINUOUS
10
93.863
20
-175.71
11
93.9582
21
-175.9
0
LINE
8
BLACK
6
CONTINUOUS
10
93.9582
20
-175.9
11
93.9582
21
-176.472
0
LINE
8
BLACK
6
CONTINUOUS
10
93.9582
20
-176.472
11
93.863
21
-176.662
0
LINE
8
BLACK
6
CONTINUOUS
10
93.863
20
-176.662
11
93.7677
21
-176.758
0
LINE
8
BLACK
6
CONTINUOUS
10
93.7677
20
-176.758
11
93.5772
21
-176.853
0
LINE
8
BLACK
6
CONTINUOUS
10
93.5772
20
-176.853
11
93.2915
21
-176.853
0
LINE
8
BLACK
6
CONTINUOUS
10
95.101
20
-176.853
11
94.9106
21
-176.758
0
LINE
8
BLACK
6
CONTINUOUS
10
94.9106
20
-176.758
11
94.8153
21
-176.567
0
LINE
8
BLACK
6
CONTINUOUS
10
94.8153
20
-176.567
11
94.8153
21
-174.853
0
LINE
8
BLACK
6
CONTINUOUS
10
96.6249
20
-176.758
11
96.4344
21
-176.853
0
LINE
8
BLACK
6
CONTINUOUS
10
96.4344
20
-176.853
11
96.0534
21
-176.853
0
LINE
8
BLACK
6
CONTINUOUS
10
96.0534
20
-176.853
11
95.863
21
-176.758
0
LINE
8
BLACK
6
CONTINUOUS
10
95.863
20
-176.758
11
95.7677
21
-176.567
0
LINE
8
BLACK
6
CONTINUOUS
10
95.7677
20
-176.567
11
95.7677
21
-175.805
0
LINE
8
BLACK
6
CONTINUOUS
10
95.7677
20
-175.805
11
95.863
21
-175.615
0
LINE
8
BLACK
6
CONTINUOUS
10
95.863
20
-175.615
11
96.0534
21
-175.519
0
LINE
8
BLACK
6
CONTINUOUS
10
96.0534
20
-175.519
11
96.4344
21
-175.519
0
LINE
8
BLACK
6
CONTINUOUS
10
96.4344
20
-175.519
11
96.6249
21
-175.615
0
LINE
8
BLACK
6
CONTINUOUS
10
96.6249
20
-175.615
11
96.7201
21
-175.805
0
LINE
8
BLACK
6
CONTINUOUS
10
96.7201
20
-175.805
11
96.7201
21
-175.996
0
LINE
8
BLACK
6
CONTINUOUS
10
96.7201
20
-175.996
11
95.7677
21
-176.186
0
LINE
8
BLACK
6
CONTINUOUS
10
97.482
20
-176.758
11
97.6725
21
-176.853
0
LINE
8
BLACK
6
CONTINUOUS
10
97.6725
20
-176.853
11
98.0534
21
-176.853
0
LINE
8
BLACK
6
CONTINUOUS
10
98.0534
20
-176.853
11
98.2439
21
-176.758
0
LINE
8
BLACK
6
CONTINUOUS
10
98.2439
20
-176.758
11
98.3391
21
-176.567
0
LINE
8
BLACK
6
CONTINUOUS
10
98.3391
20
-176.567
11
98.3391
21
-176.472
0
LINE
8
BLACK
6
CONTINUOUS
10
98.3391
20
-176.472
11
98.2439
21
-176.281
0
LINE
8
BLACK
6
CONTINUOUS
10
98.2439
20
-176.281
11
98.0534
21
-176.186
0
LINE
8
BLACK
6
CONTINUOUS
10
98.0534
20
-176.186
11
97.7677
21
-176.186
0
LINE
8
BLACK
6
CONTINUOUS
10
97.7677
20
-176.186
11
97.5772
21
-176.091
0
LINE
8
BLACK
6
CONTINUOUS
10
97.5772
20
-176.091
11
97.482
21
-175.9
0
LINE
8
BLACK
6
CONTINUOUS
10
97.482
20
-175.9
11
97.482
21
-175.805
0
LINE
8
BLACK
6
CONTINUOUS
10
97.482
20
-175.805
11
97.5772
21
-175.615
0
LINE
8
BLACK
6
CONTINUOUS
10
97.5772
20
-175.615
11
97.7677
21
-175.519
0
LINE
8
BLACK
6
CONTINUOUS
10
97.7677
20
-175.519
11
98.0534
21
-175.519
0
LINE
8
BLACK
6
CONTINUOUS
10
98.0534
20
-175.519
11
98.2439
21
-175.615
0
LINE
8
BLACK
6
CONTINUOUS
10
99.0058
20
-177.615
11
99.1011
21
-177.519
0
LINE
8
BLACK
6
CONTINUOUS
10
99.1011
20
-177.519
11
99.2915
21
-177.234
0
LINE
8
BLACK
6
CONTINUOUS
10
99.2915
20
-177.234
11
99.3868
21
-177.043
0
LINE
8
BLACK
6
CONTINUOUS
10
99.3868
20
-177.043
11
99.482
21
-176.758
0
LINE
8
BLACK
6
CONTINUOUS
10
99.482
20
-176.758
11
99.5772
21
-176.281
0
LINE
8
BLACK
6
CONTINUOUS
10
99.5772
20
-176.281
11
99.5772
21
-175.9
0
LINE
8
BLACK
6
CONTINUOUS
10
99.5772
20
-175.9
11
99.482
21
-175.424
0
LINE
8
BLACK
6
CONTINUOUS
10
99.482
20
-175.424
11
99.3868
21
-175.138
0
LINE
8
BLACK
6
CONTINUOUS
10
99.3868
20
-175.138
11
99.2915
21
-174.948
0
LINE
8
BLACK
6
CONTINUOUS
10
99.2915
20
-174.948
11
99.1011
21
-174.662
0
LINE
8
BLACK
6
CONTINUOUS
10
99.1011
20
-174.662
11
99.0058
21
-174.567
  0
ENDSEC
  0
EOF
