  0
SECTION
  2
HEADER
  9
$ANGBASE
  50
0.0
  9
$ANGDIR
  70
1
  9
$MEASUREMENT
  70
1
  0
ENDSEC
  0
SECTION
  2
TABLES
  0
TABLE
  2
LTYPE
  70
4
  0
LTYPE
  5
40F
  2
CONTINUOUS
  70
0
  3
Solid line
  72
65
  73
0
  40
0.0
  0
LTYPE
  5
410
  2
DASHDOT
 70
0
  3
Dash Dot ____ _ ____ _
 72
65
 73
4
 40
2.0
 49
1.25
 49
-0.25
 49
0.25
 49
-0.25
  0
LTYPE
  5
411
  2
DASHED
 70
0
  3
Dashed __ __ __ __ __
 72
65
 73
2
 40
0.75
 49
0.5
 49
-0.25
  0
LTYPE
  5
43B
  2
DOTTED
 70
0
  3
Dotted .  .  .  .
 72
65
 73
2
 40
0.2
 49
0.0
 49
-0.2
  0
ENDTAB
  0
TABLE
  2
STYLE
  70
4
  0
STYLE
  2
KICAD
  70
0
  40
0
  41
1
  42
1
  50
0
  71
0
  3
isocp.shx
  0
STYLE
  2
KICADB
  70
0
  40
0
  41
1
  42
1
  50
0
  71
0
  3
isocp.shx
  0
STYLE
  2
KICADI
  70
0
  40
0
  41
1
  42
1
  50
15
  71
0
  3
isocp.shx
  0
STYLE
  2
KICADBI
  70
0
  40
0
  41
1
  42
1
  50
15
  71
0
  3
isocp.shx
  0
ENDTAB
  0
TABLE
  2
LAYER
  70
1
  0
LAYER
  2
BLACK
  70
0
  62
7
  6
CONTINUOUS
  0
ENDTAB
  0
ENDSEC
  0
SECTION
  2
ENTITIES
0
ARC
8
BLACK
10
83.532
20
-155.968
40
0.5
50
-180
51
-90
0
ARC
8
BLACK
10
123.332
20
-106.968
40
2
50
-0
51
90
0
LINE
8
BLACK
6
CONTINUOUS
10
123.332
20
-104.968
11
85.032
21
-104.968
0
ARC
8
BLACK
10
124.832
20
-149.468
40
0.5
50
-90
51
-0
0
LINE
8
BLACK
6
CONTINUOUS
10
86.832
20
-156.468
11
83.532
21
-156.468
0
LINE
8
BLACK
6
CONTINUOUS
10
115.332
20
-156.468
11
105.132
21
-156.468
0
ARC
8
BLACK
10
105.132
20
-155.968
40
0.5
50
-180
51
-90
0
ARC
8
BLACK
10
115.332
20
-155.968
40
0.5
50
-90
51
-0
0
LINE
8
BLACK
6
CONTINUOUS
10
115.832
20
-155.968
11
115.832
21
-150.468
0
LINE
8
BLACK
6
CONTINUOUS
10
104.632
20
-149.968
11
87.332
21
-149.968
0
ARC
8
BLACK
10
116.332
20
-150.468
40
0.5
50
90
51
180
0
LINE
8
BLACK
6
CONTINUOUS
10
87.332
20
-149.968
11
87.332
21
-155.968
0
LINE
8
BLACK
6
CONTINUOUS
10
104.632
20
-155.968
11
104.632
21
-149.968
0
ARC
8
BLACK
10
86.832
20
-155.968
40
0.5
50
-90
51
-0
0
LINE
8
BLACK
6
CONTINUOUS
10
83.032
20
-155.968
11
83.032
21
-106.968
0
ARC
8
BLACK
10
85.032
20
-106.968
40
2
50
90
51
180
0
LINE
8
BLACK
6
CONTINUOUS
10
125.332
20
-106.968
11
125.332
21
-149.468
0
LINE
8
BLACK
6
CONTINUOUS
10
124.832
20
-149.968
11
116.332
21
-149.968
0
LINE
8
BLACK
6
CONTINUOUS
10
89.0007
20
-107.406
11
89.9913
21
-108.397
0
LINE
8
BLACK
6
CONTINUOUS
10
89.9913
20
-107.406
11
89.0007
21
-108.397
0
LINE
8
BLACK
6
CONTINUOUS
10
94.0807
20
-106.39
11
95.0713
21
-107.381
0
LINE
8
BLACK
6
CONTINUOUS
10
95.0713
20
-106.39
11
94.0807
21
-107.381
0
LINE
8
BLACK
6
CONTINUOUS
10
94.0807
20
-108.422
11
95.0713
21
-109.413
0
LINE
8
BLACK
6
CONTINUOUS
10
95.0713
20
-108.422
11
94.0807
21
-109.413
0
CIRCLE
8
BLACK
10
94.488
20
-113.538
40
1.6
0
CIRCLE
8
BLACK
10
121.63
20
-108.12
40
1.6
0
LINE
8
BLACK
6
CONTINUOUS
10
85.4582
20
-159.453
11
85.4582
21
-157.453
0
LINE
8
BLACK
6
CONTINUOUS
10
85.4582
20
-157.453
11
85.9344
21
-157.453
0
LINE
8
BLACK
6
CONTINUOUS
10
85.9344
20
-157.453
11
86.2201
21
-157.548
0
LINE
8
BLACK
6
CONTINUOUS
10
86.2201
20
-157.548
11
86.4106
21
-157.738
0
LINE
8
BLACK
6
CONTINUOUS
10
86.4106
20
-157.738
11
86.5058
21
-157.929
0
LINE
8
BLACK
6
CONTINUOUS
10
86.5058
20
-157.929
11
86.601
21
-158.31
0
LINE
8
BLACK
6
CONTINUOUS
10
86.601
20
-158.31
11
86.601
21
-158.596
0
LINE
8
BLACK
6
CONTINUOUS
10
86.601
20
-158.596
11
86.5058
21
-158.977
0
LINE
8
BLACK
6
CONTINUOUS
10
86.5058
20
-158.977
11
86.4106
21
-159.167
0
LINE
8
BLACK
6
CONTINUOUS
10
86.4106
20
-159.167
11
86.2201
21
-159.358
0
LINE
8
BLACK
6
CONTINUOUS
10
86.2201
20
-159.358
11
85.9344
21
-159.453
0
LINE
8
BLACK
6
CONTINUOUS
10
85.9344
20
-159.453
11
85.4582
21
-159.453
0
LINE
8
BLACK
6
CONTINUOUS
10
87.4582
20
-159.453
11
87.4582
21
-158.119
0
LINE
8
BLACK
6
CONTINUOUS
10
87.4582
20
-158.5
11
87.5534
21
-158.31
0
LINE
8
BLACK
6
CONTINUOUS
10
87.5534
20
-158.31
11
87.6487
21
-158.215
0
LINE
8
BLACK
6
CONTINUOUS
10
87.6487
20
-158.215
11
87.8391
21
-158.119
0
LINE
8
BLACK
6
CONTINUOUS
10
87.8391
20
-158.119
11
88.0296
21
-158.119
0
LINE
8
BLACK
6
CONTINUOUS
10
88.6963
20
-159.453
11
88.6963
21
-158.119
0
LINE
8
BLACK
6
CONTINUOUS
10
88.6963
20
-157.453
11
88.601
21
-157.548
0
LINE
8
BLACK
6
CONTINUOUS
10
88.601
20
-157.548
11
88.6963
21
-157.643
0
LINE
8
BLACK
6
CONTINUOUS
10
88.6963
20
-157.643
11
88.7915
21
-157.548
0
LINE
8
BLACK
6
CONTINUOUS
10
88.7915
20
-157.548
11
88.6963
21
-157.453
0
LINE
8
BLACK
6
CONTINUOUS
10
88.6963
20
-157.453
11
88.6963
21
-157.643
0
LINE
8
BLACK
6
CONTINUOUS
10
89.9344
20
-159.453
11
89.7439
21
-159.358
0
LINE
8
BLACK
6
CONTINUOUS
10
89.7439
20
-159.358
11
89.6487
21
-159.167
0
LINE
8
BLACK
6
CONTINUOUS
10
89.6487
20
-159.167
11
89.6487
21
-157.453
0
LINE
8
BLACK
6
CONTINUOUS
10
90.982
20
-159.453
11
90.7915
21
-159.358
0
LINE
8
BLACK
6
CONTINUOUS
10
90.7915
20
-159.358
11
90.6963
21
-159.167
0
LINE
8
BLACK
6
CONTINUOUS
10
90.6963
20
-159.167
11
90.6963
21
-157.453
0
LINE
8
BLACK
6
CONTINUOUS
10
92.9439
20
-159.453
11
92.9439
21
-157.453
0
LINE
8
BLACK
6
CONTINUOUS
10
92.9439
20
-157.453
11
93.6106
21
-158.881
0
LINE
8
BLACK
6
CONTINUOUS
10
93.6106
20
-158.881
11
94.2772
21
-157.453
0
LINE
8
BLACK
6
CONTINUOUS
10
94.2772
20
-157.453
11
94.2772
21
-159.453
0
LINE
8
BLACK
6
CONTINUOUS
10
96.0868
20
-159.453
11
96.0868
21
-158.405
0
LINE
8
BLACK
6
CONTINUOUS
10
96.0868
20
-158.405
11
95.9915
21
-158.215
0
LINE
8
BLACK
6
CONTINUOUS
10
95.9915
20
-158.215
11
95.801
21
-158.119
0
LINE
8
BLACK
6
CONTINUOUS
10
95.801
20
-158.119
11
95.4201
21
-158.119
0
LINE
8
BLACK
6
CONTINUOUS
10
95.4201
20
-158.119
11
95.2296
21
-158.215
0
LINE
8
BLACK
6
CONTINUOUS
10
96.0868
20
-159.358
11
95.8963
21
-159.453
0
LINE
8
BLACK
6
CONTINUOUS
10
95.8963
20
-159.453
11
95.4201
21
-159.453
0
LINE
8
BLACK
6
CONTINUOUS
10
95.4201
20
-159.453
11
95.2296
21
-159.358
0
LINE
8
BLACK
6
CONTINUOUS
10
95.2296
20
-159.358
11
95.1344
21
-159.167
0
LINE
8
BLACK
6
CONTINUOUS
10
95.1344
20
-159.167
11
95.1344
21
-158.977
0
LINE
8
BLACK
6
CONTINUOUS
10
95.1344
20
-158.977
11
95.2296
21
-158.786
0
LINE
8
BLACK
6
CONTINUOUS
10
95.2296
20
-158.786
11
95.4201
21
-158.691
0
LINE
8
BLACK
6
CONTINUOUS
10
95.4201
20
-158.691
11
95.8963
21
-158.691
0
LINE
8
BLACK
6
CONTINUOUS
10
95.8963
20
-158.691
11
96.0868
21
-158.596
0
LINE
8
BLACK
6
CONTINUOUS
10
97.0391
20
-158.119
11
97.0391
21
-160.119
0
LINE
8
BLACK
6
CONTINUOUS
10
97.0391
20
-158.215
11
97.2296
21
-158.119
0
LINE
8
BLACK
6
CONTINUOUS
10
97.2296
20
-158.119
11
97.6106
21
-158.119
0
LINE
8
BLACK
6
CONTINUOUS
10
97.6106
20
-158.119
11
97.801
21
-158.215
0
LINE
8
BLACK
6
CONTINUOUS
10
97.801
20
-158.215
11
97.8963
21
-158.31
0
LINE
8
BLACK
6
CONTINUOUS
10
97.8963
20
-158.31
11
97.9915
21
-158.5
0
LINE
8
BLACK
6
CONTINUOUS
10
97.9915
20
-158.5
11
97.9915
21
-159.072
0
LINE
8
BLACK
6
CONTINUOUS
10
97.9915
20
-159.072
11
97.8963
21
-159.262
0
LINE
8
BLACK
6
CONTINUOUS
10
97.8963
20
-159.262
11
97.801
21
-159.358
0
LINE
8
BLACK
6
CONTINUOUS
10
97.801
20
-159.358
11
97.6106
21
-159.453
0
LINE
8
BLACK
6
CONTINUOUS
10
97.6106
20
-159.453
11
97.2296
21
-159.453
0
LINE
8
BLACK
6
CONTINUOUS
10
97.2296
20
-159.453
11
97.0391
21
-159.358
0
LINE
8
BLACK
6
CONTINUOUS
10
98.8487
20
-159.262
11
98.9439
21
-159.358
0
LINE
8
BLACK
6
CONTINUOUS
10
98.9439
20
-159.358
11
98.8487
21
-159.453
0
LINE
8
BLACK
6
CONTINUOUS
10
98.8487
20
-159.453
11
98.7534
21
-159.358
0
LINE
8
BLACK
6
CONTINUOUS
10
98.7534
20
-159.358
11
98.8487
21
-159.262
0
LINE
8
BLACK
6
CONTINUOUS
10
98.8487
20
-159.262
11
98.8487
21
-159.453
0
LINE
8
BLACK
6
CONTINUOUS
10
98.8487
20
-158.215
11
98.9439
21
-158.31
0
LINE
8
BLACK
6
CONTINUOUS
10
98.9439
20
-158.31
11
98.8487
21
-158.405
0
LINE
8
BLACK
6
CONTINUOUS
10
98.8487
20
-158.405
11
98.7534
21
-158.31
0
LINE
8
BLACK
6
CONTINUOUS
10
98.7534
20
-158.31
11
98.8487
21
-158.215
0
LINE
8
BLACK
6
CONTINUOUS
10
98.8487
20
-158.215
11
98.8487
21
-158.405
0
LINE
8
BLACK
6
CONTINUOUS
10
81.9914
20
-162.423
11
82.982
21
-163.413
0
LINE
8
BLACK
6
CONTINUOUS
10
82.982
20
-162.423
11
81.9914
21
-163.413
0
LINE
8
BLACK
6
CONTINUOUS
10
85.8391
20
-161.653
11
86.0296
21
-161.653
0
LINE
8
BLACK
6
CONTINUOUS
10
86.0296
20
-161.653
11
86.2201
21
-161.748
0
LINE
8
BLACK
6
CONTINUOUS
10
86.2201
20
-161.748
11
86.3153
21
-161.843
0
LINE
8
BLACK
6
CONTINUOUS
10
86.3153
20
-161.843
11
86.4106
21
-162.034
0
LINE
8
BLACK
6
CONTINUOUS
10
86.4106
20
-162.034
11
86.5058
21
-162.415
0
LINE
8
BLACK
6
CONTINUOUS
10
86.5058
20
-162.415
11
86.5058
21
-162.891
0
LINE
8
BLACK
6
CONTINUOUS
10
86.5058
20
-162.891
11
86.4106
21
-163.272
0
LINE
8
BLACK
6
CONTINUOUS
10
86.4106
20
-163.272
11
86.3153
21
-163.462
0
LINE
8
BLACK
6
CONTINUOUS
10
86.3153
20
-163.462
11
86.2201
21
-163.558
0
LINE
8
BLACK
6
CONTINUOUS
10
86.2201
20
-163.558
11
86.0296
21
-163.653
0
LINE
8
BLACK
6
CONTINUOUS
10
86.0296
20
-163.653
11
85.8391
21
-163.653
0
LINE
8
BLACK
6
CONTINUOUS
10
85.8391
20
-163.653
11
85.6487
21
-163.558
0
LINE
8
BLACK
6
CONTINUOUS
10
85.6487
20
-163.558
11
85.5534
21
-163.462
0
LINE
8
BLACK
6
CONTINUOUS
10
85.5534
20
-163.462
11
85.4582
21
-163.272
0
LINE
8
BLACK
6
CONTINUOUS
10
85.4582
20
-163.272
11
85.363
21
-162.891
0
LINE
8
BLACK
6
CONTINUOUS
10
85.363
20
-162.891
11
85.363
21
-162.415
0
LINE
8
BLACK
6
CONTINUOUS
10
85.363
20
-162.415
11
85.4582
21
-162.034
0
LINE
8
BLACK
6
CONTINUOUS
10
85.4582
20
-162.034
11
85.5534
21
-161.843
0
LINE
8
BLACK
6
CONTINUOUS
10
85.5534
20
-161.843
11
85.6487
21
-161.748
0
LINE
8
BLACK
6
CONTINUOUS
10
85.6487
20
-161.748
11
85.8391
21
-161.653
0
LINE
8
BLACK
6
CONTINUOUS
10
87.363
20
-163.462
11
87.4582
21
-163.558
0
LINE
8
BLACK
6
CONTINUOUS
10
87.4582
20
-163.558
11
87.363
21
-163.653
0
LINE
8
BLACK
6
CONTINUOUS
10
87.363
20
-163.653
11
87.2677
21
-163.558
0
LINE
8
BLACK
6
CONTINUOUS
10
87.2677
20
-163.558
11
87.363
21
-163.462
0
LINE
8
BLACK
6
CONTINUOUS
10
87.363
20
-163.462
11
87.363
21
-163.653
0
LINE
8
BLACK
6
CONTINUOUS
10
88.4106
20
-163.653
11
88.7915
21
-163.653
0
LINE
8
BLACK
6
CONTINUOUS
10
88.7915
20
-163.653
11
88.982
21
-163.558
0
LINE
8
BLACK
6
CONTINUOUS
10
88.982
20
-163.558
11
89.0772
21
-163.462
0
LINE
8
BLACK
6
CONTINUOUS
10
89.0772
20
-163.462
11
89.2677
21
-163.177
0
LINE
8
BLACK
6
CONTINUOUS
10
89.2677
20
-163.177
11
89.363
21
-162.796
0
LINE
8
BLACK
6
CONTINUOUS
10
89.363
20
-162.796
11
89.363
21
-162.034
0
LINE
8
BLACK
6
CONTINUOUS
10
89.363
20
-162.034
11
89.2677
21
-161.843
0
LINE
8
BLACK
6
CONTINUOUS
10
89.2677
20
-161.843
11
89.1725
21
-161.748
0
LINE
8
BLACK
6
CONTINUOUS
10
89.1725
20
-161.748
11
88.982
21
-161.653
0
LINE
8
BLACK
6
CONTINUOUS
10
88.982
20
-161.653
11
88.601
21
-161.653
0
LINE
8
BLACK
6
CONTINUOUS
10
88.601
20
-161.653
11
88.4106
21
-161.748
0
LINE
8
BLACK
6
CONTINUOUS
10
88.4106
20
-161.748
11
88.3153
21
-161.843
0
LINE
8
BLACK
6
CONTINUOUS
10
88.3153
20
-161.843
11
88.2201
21
-162.034
0
LINE
8
BLACK
6
CONTINUOUS
10
88.2201
20
-162.034
11
88.2201
21
-162.51
0
LINE
8
BLACK
6
CONTINUOUS
10
88.2201
20
-162.51
11
88.3153
21
-162.7
0
LINE
8
BLACK
6
CONTINUOUS
10
88.3153
20
-162.7
11
88.4106
21
-162.796
0
LINE
8
BLACK
6
CONTINUOUS
10
88.4106
20
-162.796
11
88.601
21
-162.891
0
LINE
8
BLACK
6
CONTINUOUS
10
88.601
20
-162.891
11
88.982
21
-162.891
0
LINE
8
BLACK
6
CONTINUOUS
10
88.982
20
-162.891
11
89.1725
21
-162.796
0
LINE
8
BLACK
6
CONTINUOUS
10
89.1725
20
-162.796
11
89.2677
21
-162.7
0
LINE
8
BLACK
6
CONTINUOUS
10
89.2677
20
-162.7
11
89.363
21
-162.51
0
LINE
8
BLACK
6
CONTINUOUS
10
90.3153
20
-163.653
11
90.6963
21
-163.653
0
LINE
8
BLACK
6
CONTINUOUS
10
90.6963
20
-163.653
11
90.8868
21
-163.558
0
LINE
8
BLACK
6
CONTINUOUS
10
90.8868
20
-163.558
11
90.982
21
-163.462
0
LINE
8
BLACK
6
CONTINUOUS
10
90.982
20
-163.462
11
91.1725
21
-163.177
0
LINE
8
BLACK
6
CONTINUOUS
10
91.1725
20
-163.177
11
91.2677
21
-162.796
0
LINE
8
BLACK
6
CONTINUOUS
10
91.2677
20
-162.796
11
91.2677
21
-162.034
0
LINE
8
BLACK
6
CONTINUOUS
10
91.2677
20
-162.034
11
91.1725
21
-161.843
0
LINE
8
BLACK
6
CONTINUOUS
10
91.1725
20
-161.843
11
91.0772
21
-161.748
0
LINE
8
BLACK
6
CONTINUOUS
10
91.0772
20
-161.748
11
90.8868
21
-161.653
0
LINE
8
BLACK
6
CONTINUOUS
10
90.8868
20
-161.653
11
90.5058
21
-161.653
0
LINE
8
BLACK
6
CONTINUOUS
10
90.5058
20
-161.653
11
90.3153
21
-161.748
0
LINE
8
BLACK
6
CONTINUOUS
10
90.3153
20
-161.748
11
90.2201
21
-161.843
0
LINE
8
BLACK
6
CONTINUOUS
10
90.2201
20
-161.843
11
90.1249
21
-162.034
0
LINE
8
BLACK
6
CONTINUOUS
10
90.1249
20
-162.034
11
90.1249
21
-162.51
0
LINE
8
BLACK
6
CONTINUOUS
10
90.1249
20
-162.51
11
90.2201
21
-162.7
0
LINE
8
BLACK
6
CONTINUOUS
10
90.2201
20
-162.7
11
90.3153
21
-162.796
0
LINE
8
BLACK
6
CONTINUOUS
10
90.3153
20
-162.796
11
90.5058
21
-162.891
0
LINE
8
BLACK
6
CONTINUOUS
10
90.5058
20
-162.891
11
90.8868
21
-162.891
0
LINE
8
BLACK
6
CONTINUOUS
10
90.8868
20
-162.891
11
91.0772
21
-162.796
0
LINE
8
BLACK
6
CONTINUOUS
10
91.0772
20
-162.796
11
91.1725
21
-162.7
0
LINE
8
BLACK
6
CONTINUOUS
10
91.1725
20
-162.7
11
91.2677
21
-162.51
0
LINE
8
BLACK
6
CONTINUOUS
10
93.1725
20
-163.653
11
92.0296
21
-163.653
0
LINE
8
BLACK
6
CONTINUOUS
10
92.601
20
-163.653
11
92.601
21
-161.653
0
LINE
8
BLACK
6
CONTINUOUS
10
92.601
20
-161.653
11
92.4106
21
-161.938
0
LINE
8
BLACK
6
CONTINUOUS
10
92.4106
20
-161.938
11
92.2201
21
-162.129
0
LINE
8
BLACK
6
CONTINUOUS
10
92.2201
20
-162.129
11
92.0296
21
-162.224
0
LINE
8
BLACK
6
CONTINUOUS
10
94.0296
20
-163.653
11
94.0296
21
-162.319
0
LINE
8
BLACK
6
CONTINUOUS
10
94.0296
20
-162.51
11
94.1249
21
-162.415
0
LINE
8
BLACK
6
CONTINUOUS
10
94.1249
20
-162.415
11
94.3153
21
-162.319
0
LINE
8
BLACK
6
CONTINUOUS
10
94.3153
20
-162.319
11
94.601
21
-162.319
0
LINE
8
BLACK
6
CONTINUOUS
10
94.601
20
-162.319
11
94.7915
21
-162.415
0
LINE
8
BLACK
6
CONTINUOUS
10
94.7915
20
-162.415
11
94.8868
21
-162.605
0
LINE
8
BLACK
6
CONTINUOUS
10
94.8868
20
-162.605
11
94.8868
21
-163.653
0
LINE
8
BLACK
6
CONTINUOUS
10
94.8868
20
-162.605
11
94.982
21
-162.415
0
LINE
8
BLACK
6
CONTINUOUS
10
94.982
20
-162.415
11
95.1725
21
-162.319
0
LINE
8
BLACK
6
CONTINUOUS
10
95.1725
20
-162.319
11
95.4582
21
-162.319
0
LINE
8
BLACK
6
CONTINUOUS
10
95.4582
20
-162.319
11
95.6487
21
-162.415
0
LINE
8
BLACK
6
CONTINUOUS
10
95.6487
20
-162.415
11
95.7439
21
-162.605
0
LINE
8
BLACK
6
CONTINUOUS
10
95.7439
20
-162.605
11
95.7439
21
-163.653
0
LINE
8
BLACK
6
CONTINUOUS
10
96.6963
20
-163.653
11
96.6963
21
-162.319
0
LINE
8
BLACK
6
CONTINUOUS
10
96.6963
20
-162.51
11
96.7915
21
-162.415
0
LINE
8
BLACK
6
CONTINUOUS
10
96.7915
20
-162.415
11
96.982
21
-162.319
0
LINE
8
BLACK
6
CONTINUOUS
10
96.982
20
-162.319
11
97.2677
21
-162.319
0
LINE
8
BLACK
6
CONTINUOUS
10
97.2677
20
-162.319
11
97.4582
21
-162.415
0
LINE
8
BLACK
6
CONTINUOUS
10
97.4582
20
-162.415
11
97.5534
21
-162.605
0
LINE
8
BLACK
6
CONTINUOUS
10
97.5534
20
-162.605
11
97.5534
21
-163.653
0
LINE
8
BLACK
6
CONTINUOUS
10
97.5534
20
-162.605
11
97.6487
21
-162.415
0
LINE
8
BLACK
6
CONTINUOUS
10
97.6487
20
-162.415
11
97.8391
21
-162.319
0
LINE
8
BLACK
6
CONTINUOUS
10
97.8391
20
-162.319
11
98.1249
21
-162.319
0
LINE
8
BLACK
6
CONTINUOUS
10
98.1249
20
-162.319
11
98.3153
21
-162.415
0
LINE
8
BLACK
6
CONTINUOUS
10
98.3153
20
-162.415
11
98.4106
21
-162.605
0
LINE
8
BLACK
6
CONTINUOUS
10
98.4106
20
-162.605
11
98.4106
21
-163.653
0
LINE
8
BLACK
6
CONTINUOUS
10
101.992
20
-161.558
11
100.277
21
-164.129
0
LINE
8
BLACK
6
CONTINUOUS
10
104.239
20
-161.653
11
104.43
21
-161.653
0
LINE
8
BLACK
6
CONTINUOUS
10
104.43
20
-161.653
11
104.62
21
-161.748
0
LINE
8
BLACK
6
CONTINUOUS
10
104.62
20
-161.748
11
104.715
21
-161.843
0
LINE
8
BLACK
6
CONTINUOUS
10
104.715
20
-161.843
11
104.811
21
-162.034
0
LINE
8
BLACK
6
CONTINUOUS
10
104.811
20
-162.034
11
104.906
21
-162.415
0
LINE
8
BLACK
6
CONTINUOUS
10
104.906
20
-162.415
11
104.906
21
-162.891
0
LINE
8
BLACK
6
CONTINUOUS
10
104.906
20
-162.891
11
104.811
21
-163.272
0
LINE
8
BLACK
6
CONTINUOUS
10
104.811
20
-163.272
11
104.715
21
-163.462
0
LINE
8
BLACK
6
CONTINUOUS
10
104.715
20
-163.462
11
104.62
21
-163.558
0
LINE
8
BLACK
6
CONTINUOUS
10
104.62
20
-163.558
11
104.43
21
-163.653
0
LINE
8
BLACK
6
CONTINUOUS
10
104.43
20
-163.653
11
104.239
21
-163.653
0
LINE
8
BLACK
6
CONTINUOUS
10
104.239
20
-163.653
11
104.049
21
-163.558
0
LINE
8
BLACK
6
CONTINUOUS
10
104.049
20
-163.558
11
103.953
21
-163.462
0
LINE
8
BLACK
6
CONTINUOUS
10
103.953
20
-163.462
11
103.858
21
-163.272
0
LINE
8
BLACK
6
CONTINUOUS
10
103.858
20
-163.272
11
103.763
21
-162.891
0
LINE
8
BLACK
6
CONTINUOUS
10
103.763
20
-162.891
11
103.763
21
-162.415
0
LINE
8
BLACK
6
CONTINUOUS
10
103.763
20
-162.415
11
103.858
21
-162.034
0
LINE
8
BLACK
6
CONTINUOUS
10
103.858
20
-162.034
11
103.953
21
-161.843
0
LINE
8
BLACK
6
CONTINUOUS
10
103.953
20
-161.843
11
104.049
21
-161.748
0
LINE
8
BLACK
6
CONTINUOUS
10
104.049
20
-161.748
11
104.239
21
-161.653
0
LINE
8
BLACK
6
CONTINUOUS
10
105.763
20
-163.462
11
105.858
21
-163.558
0
LINE
8
BLACK
6
CONTINUOUS
10
105.858
20
-163.558
11
105.763
21
-163.653
0
LINE
8
BLACK
6
CONTINUOUS
10
105.763
20
-163.653
11
105.668
21
-163.558
0
LINE
8
BLACK
6
CONTINUOUS
10
105.668
20
-163.558
11
105.763
21
-163.462
0
LINE
8
BLACK
6
CONTINUOUS
10
105.763
20
-163.462
11
105.763
21
-163.653
0
LINE
8
BLACK
6
CONTINUOUS
10
107.096
20
-161.653
11
107.287
21
-161.653
0
LINE
8
BLACK
6
CONTINUOUS
10
107.287
20
-161.653
11
107.477
21
-161.748
0
LINE
8
BLACK
6
CONTINUOUS
10
107.477
20
-161.748
11
107.572
21
-161.843
0
LINE
8
BLACK
6
CONTINUOUS
10
107.572
20
-161.843
11
107.668
21
-162.034
0
LINE
8
BLACK
6
CONTINUOUS
10
107.668
20
-162.034
11
107.763
21
-162.415
0
LINE
8
BLACK
6
CONTINUOUS
10
107.763
20
-162.415
11
107.763
21
-162.891
0
LINE
8
BLACK
6
CONTINUOUS
10
107.763
20
-162.891
11
107.668
21
-163.272
0
LINE
8
BLACK
6
CONTINUOUS
10
107.668
20
-163.272
11
107.572
21
-163.462
0
LINE
8
BLACK
6
CONTINUOUS
10
107.572
20
-163.462
11
107.477
21
-163.558
0
LINE
8
BLACK
6
CONTINUOUS
10
107.477
20
-163.558
11
107.287
21
-163.653
0
LINE
8
BLACK
6
CONTINUOUS
10
107.287
20
-163.653
11
107.096
21
-163.653
0
LINE
8
BLACK
6
CONTINUOUS
10
107.096
20
-163.653
11
106.906
21
-163.558
0
LINE
8
BLACK
6
CONTINUOUS
10
106.906
20
-163.558
11
106.811
21
-163.462
0
LINE
8
BLACK
6
CONTINUOUS
10
106.811
20
-163.462
11
106.715
21
-163.272
0
LINE
8
BLACK
6
CONTINUOUS
10
106.715
20
-163.272
11
106.62
21
-162.891
0
LINE
8
BLACK
6
CONTINUOUS
10
106.62
20
-162.891
11
106.62
21
-162.415
0
LINE
8
BLACK
6
CONTINUOUS
10
106.62
20
-162.415
11
106.715
21
-162.034
0
LINE
8
BLACK
6
CONTINUOUS
10
106.715
20
-162.034
11
106.811
21
-161.843
0
LINE
8
BLACK
6
CONTINUOUS
10
106.811
20
-161.843
11
106.906
21
-161.748
0
LINE
8
BLACK
6
CONTINUOUS
10
106.906
20
-161.748
11
107.096
21
-161.653
0
LINE
8
BLACK
6
CONTINUOUS
10
108.43
20
-161.653
11
109.668
21
-161.653
0
LINE
8
BLACK
6
CONTINUOUS
10
109.668
20
-161.653
11
109.001
21
-162.415
0
LINE
8
BLACK
6
CONTINUOUS
10
109.001
20
-162.415
11
109.287
21
-162.415
0
LINE
8
BLACK
6
CONTINUOUS
10
109.287
20
-162.415
11
109.477
21
-162.51
0
LINE
8
BLACK
6
CONTINUOUS
10
109.477
20
-162.51
11
109.572
21
-162.605
0
LINE
8
BLACK
6
CONTINUOUS
10
109.572
20
-162.605
11
109.668
21
-162.796
0
LINE
8
BLACK
6
CONTINUOUS
10
109.668
20
-162.796
11
109.668
21
-163.272
0
LINE
8
BLACK
6
CONTINUOUS
10
109.668
20
-163.272
11
109.572
21
-163.462
0
LINE
8
BLACK
6
CONTINUOUS
10
109.572
20
-163.462
11
109.477
21
-163.558
0
LINE
8
BLACK
6
CONTINUOUS
10
109.477
20
-163.558
11
109.287
21
-163.653
0
LINE
8
BLACK
6
CONTINUOUS
10
109.287
20
-163.653
11
108.715
21
-163.653
0
LINE
8
BLACK
6
CONTINUOUS
10
108.715
20
-163.653
11
108.525
21
-163.558
0
LINE
8
BLACK
6
CONTINUOUS
10
108.525
20
-163.558
11
108.43
21
-163.462
0
LINE
8
BLACK
6
CONTINUOUS
10
110.62
20
-163.653
11
111.001
21
-163.653
0
LINE
8
BLACK
6
CONTINUOUS
10
111.001
20
-163.653
11
111.192
21
-163.558
0
LINE
8
BLACK
6
CONTINUOUS
10
111.192
20
-163.558
11
111.287
21
-163.462
0
LINE
8
BLACK
6
CONTINUOUS
10
111.287
20
-163.462
11
111.477
21
-163.177
0
LINE
8
BLACK
6
CONTINUOUS
10
111.477
20
-163.177
11
111.572
21
-162.796
0
LINE
8
BLACK
6
CONTINUOUS
10
111.572
20
-162.796
11
111.572
21
-162.034
0
LINE
8
BLACK
6
CONTINUOUS
10
111.572
20
-162.034
11
111.477
21
-161.843
0
LINE
8
BLACK
6
CONTINUOUS
10
111.477
20
-161.843
11
111.382
21
-161.748
0
LINE
8
BLACK
6
CONTINUOUS
10
111.382
20
-161.748
11
111.192
21
-161.653
0
LINE
8
BLACK
6
CONTINUOUS
10
111.192
20
-161.653
11
110.811
21
-161.653
0
LINE
8
BLACK
6
CONTINUOUS
10
110.811
20
-161.653
11
110.62
21
-161.748
0
LINE
8
BLACK
6
CONTINUOUS
10
110.62
20
-161.748
11
110.525
21
-161.843
0
LINE
8
BLACK
6
CONTINUOUS
10
110.525
20
-161.843
11
110.43
21
-162.034
0
LINE
8
BLACK
6
CONTINUOUS
10
110.43
20
-162.034
11
110.43
21
-162.51
0
LINE
8
BLACK
6
CONTINUOUS
10
110.43
20
-162.51
11
110.525
21
-162.7
0
LINE
8
BLACK
6
CONTINUOUS
10
110.525
20
-162.7
11
110.62
21
-162.796
0
LINE
8
BLACK
6
CONTINUOUS
10
110.62
20
-162.796
11
110.811
21
-162.891
0
LINE
8
BLACK
6
CONTINUOUS
10
110.811
20
-162.891
11
111.192
21
-162.891
0
LINE
8
BLACK
6
CONTINUOUS
10
111.192
20
-162.891
11
111.382
21
-162.796
0
LINE
8
BLACK
6
CONTINUOUS
10
111.382
20
-162.796
11
111.477
21
-162.7
0
LINE
8
BLACK
6
CONTINUOUS
10
111.477
20
-162.7
11
111.572
21
-162.51
0
LINE
8
BLACK
6
CONTINUOUS
10
112.811
20
-161.653
11
113.001
21
-161.653
0
LINE
8
BLACK
6
CONTINUOUS
10
113.001
20
-161.653
11
113.192
21
-161.748
0
LINE
8
BLACK
6
CONTINUOUS
10
113.192
20
-161.748
11
113.287
21
-161.843
0
LINE
8
BLACK
6
CONTINUOUS
10
113.287
20
-161.843
11
113.382
21
-162.034
0
LINE
8
BLACK
6
CONTINUOUS
10
113.382
20
-162.034
11
113.477
21
-162.415
0
LINE
8
BLACK
6
CONTINUOUS
10
113.477
20
-162.415
11
113.477
21
-162.891
0
LINE
8
BLACK
6
CONTINUOUS
10
113.477
20
-162.891
11
113.382
21
-163.272
0
LINE
8
BLACK
6
CONTINUOUS
10
113.382
20
-163.272
11
113.287
21
-163.462
0
LINE
8
BLACK
6
CONTINUOUS
10
113.287
20
-163.462
11
113.192
21
-163.558
0
LINE
8
BLACK
6
CONTINUOUS
10
113.192
20
-163.558
11
113.001
21
-163.653
0
LINE
8
BLACK
6
CONTINUOUS
10
113.001
20
-163.653
11
112.811
21
-163.653
0
LINE
8
BLACK
6
CONTINUOUS
10
112.811
20
-163.653
11
112.62
21
-163.558
0
LINE
8
BLACK
6
CONTINUOUS
10
112.62
20
-163.558
11
112.525
21
-163.462
0
LINE
8
BLACK
6
CONTINUOUS
10
112.525
20
-163.462
11
112.43
21
-163.272
0
LINE
8
BLACK
6
CONTINUOUS
10
112.43
20
-163.272
11
112.334
21
-162.891
0
LINE
8
BLACK
6
CONTINUOUS
10
112.334
20
-162.891
11
112.334
21
-162.415
0
LINE
8
BLACK
6
CONTINUOUS
10
112.334
20
-162.415
11
112.43
21
-162.034
0
LINE
8
BLACK
6
CONTINUOUS
10
112.43
20
-162.034
11
112.525
21
-161.843
0
LINE
8
BLACK
6
CONTINUOUS
10
112.525
20
-161.843
11
112.62
21
-161.748
0
LINE
8
BLACK
6
CONTINUOUS
10
112.62
20
-161.748
11
112.811
21
-161.653
0
LINE
8
BLACK
6
CONTINUOUS
10
114.239
20
-161.653
11
114.239
21
-162.034
0
LINE
8
BLACK
6
CONTINUOUS
10
115.001
20
-161.653
11
115.001
21
-162.034
0
LINE
8
BLACK
6
CONTINUOUS
10
117.63
20
-164.415
11
117.534
21
-164.319
0
LINE
8
BLACK
6
CONTINUOUS
10
117.534
20
-164.319
11
117.344
21
-164.034
0
LINE
8
BLACK
6
CONTINUOUS
10
117.344
20
-164.034
11
117.249
21
-163.843
0
LINE
8
BLACK
6
CONTINUOUS
10
117.249
20
-163.843
11
117.153
21
-163.558
0
LINE
8
BLACK
6
CONTINUOUS
10
117.153
20
-163.558
11
117.058
21
-163.081
0
LINE
8
BLACK
6
CONTINUOUS
10
117.058
20
-163.081
11
117.058
21
-162.7
0
LINE
8
BLACK
6
CONTINUOUS
10
117.058
20
-162.7
11
117.153
21
-162.224
0
LINE
8
BLACK
6
CONTINUOUS
10
117.153
20
-162.224
11
117.249
21
-161.938
0
LINE
8
BLACK
6
CONTINUOUS
10
117.249
20
-161.938
11
117.344
21
-161.748
0
LINE
8
BLACK
6
CONTINUOUS
10
117.344
20
-161.748
11
117.534
21
-161.462
0
LINE
8
BLACK
6
CONTINUOUS
10
117.534
20
-161.462
11
117.63
21
-161.367
0
LINE
8
BLACK
6
CONTINUOUS
10
118.201
20
-161.653
11
119.439
21
-161.653
0
LINE
8
BLACK
6
CONTINUOUS
10
119.439
20
-161.653
11
118.772
21
-162.415
0
LINE
8
BLACK
6
CONTINUOUS
10
118.772
20
-162.415
11
119.058
21
-162.415
0
LINE
8
BLACK
6
CONTINUOUS
10
119.058
20
-162.415
11
119.249
21
-162.51
0
LINE
8
BLACK
6
CONTINUOUS
10
119.249
20
-162.51
11
119.344
21
-162.605
0
LINE
8
BLACK
6
CONTINUOUS
10
119.344
20
-162.605
11
119.439
21
-162.796
0
LINE
8
BLACK
6
CONTINUOUS
10
119.439
20
-162.796
11
119.439
21
-163.272
0
LINE
8
BLACK
6
CONTINUOUS
10
119.439
20
-163.272
11
119.344
21
-163.462
0
LINE
8
BLACK
6
CONTINUOUS
10
119.344
20
-163.462
11
119.249
21
-163.558
0
LINE
8
BLACK
6
CONTINUOUS
10
119.249
20
-163.558
11
119.058
21
-163.653
0
LINE
8
BLACK
6
CONTINUOUS
10
119.058
20
-163.653
11
118.487
21
-163.653
0
LINE
8
BLACK
6
CONTINUOUS
10
118.487
20
-163.653
11
118.296
21
-163.558
0
LINE
8
BLACK
6
CONTINUOUS
10
118.296
20
-163.558
11
118.201
21
-163.462
0
LINE
8
BLACK
6
CONTINUOUS
10
121.496
20
-163.653
11
121.496
21
-161.653
0
LINE
8
BLACK
6
CONTINUOUS
10
122.353
20
-163.653
11
122.353
21
-162.605
0
LINE
8
BLACK
6
CONTINUOUS
10
122.353
20
-162.605
11
122.258
21
-162.415
0
LINE
8
BLACK
6
CONTINUOUS
10
122.258
20
-162.415
11
122.068
21
-162.319
0
LINE
8
BLACK
6
CONTINUOUS
10
122.068
20
-162.319
11
121.782
21
-162.319
0
LINE
8
BLACK
6
CONTINUOUS
10
121.782
20
-162.319
11
121.592
21
-162.415
0
LINE
8
BLACK
6
CONTINUOUS
10
121.592
20
-162.415
11
121.496
21
-162.51
0
LINE
8
BLACK
6
CONTINUOUS
10
123.592
20
-163.653
11
123.401
21
-163.558
0
LINE
8
BLACK
6
CONTINUOUS
10
123.401
20
-163.558
11
123.306
21
-163.462
0
LINE
8
BLACK
6
CONTINUOUS
10
123.306
20
-163.462
11
123.211
21
-163.272
0
LINE
8
BLACK
6
CONTINUOUS
10
123.211
20
-163.272
11
123.211
21
-162.7
0
LINE
8
BLACK
6
CONTINUOUS
10
123.211
20
-162.7
11
123.306
21
-162.51
0
LINE
8
BLACK
6
CONTINUOUS
10
123.306
20
-162.51
11
123.401
21
-162.415
0
LINE
8
BLACK
6
CONTINUOUS
10
123.401
20
-162.415
11
123.592
21
-162.319
0
LINE
8
BLACK
6
CONTINUOUS
10
123.592
20
-162.319
11
123.877
21
-162.319
0
LINE
8
BLACK
6
CONTINUOUS
10
123.877
20
-162.319
11
124.068
21
-162.415
0
LINE
8
BLACK
6
CONTINUOUS
10
124.068
20
-162.415
11
124.163
21
-162.51
0
LINE
8
BLACK
6
CONTINUOUS
10
124.163
20
-162.51
11
124.258
21
-162.7
0
LINE
8
BLACK
6
CONTINUOUS
10
124.258
20
-162.7
11
124.258
21
-163.272
0
LINE
8
BLACK
6
CONTINUOUS
10
124.258
20
-163.272
11
124.163
21
-163.462
0
LINE
8
BLACK
6
CONTINUOUS
10
124.163
20
-163.462
11
124.068
21
-163.558
0
LINE
8
BLACK
6
CONTINUOUS
10
124.068
20
-163.558
11
123.877
21
-163.653
0
LINE
8
BLACK
6
CONTINUOUS
10
123.877
20
-163.653
11
123.592
21
-163.653
0
LINE
8
BLACK
6
CONTINUOUS
10
125.401
20
-163.653
11
125.211
21
-163.558
0
LINE
8
BLACK
6
CONTINUOUS
10
125.211
20
-163.558
11
125.115
21
-163.367
0
LINE
8
BLACK
6
CONTINUOUS
10
125.115
20
-163.367
11
125.115
21
-161.653
0
LINE
8
BLACK
6
CONTINUOUS
10
126.925
20
-163.558
11
126.734
21
-163.653
0
LINE
8
BLACK
6
CONTINUOUS
10
126.734
20
-163.653
11
126.353
21
-163.653
0
LINE
8
BLACK
6
CONTINUOUS
10
126.353
20
-163.653
11
126.163
21
-163.558
0
LINE
8
BLACK
6
CONTINUOUS
10
126.163
20
-163.558
11
126.068
21
-163.367
0
LINE
8
BLACK
6
CONTINUOUS
10
126.068
20
-163.367
11
126.068
21
-162.605
0
LINE
8
BLACK
6
CONTINUOUS
10
126.068
20
-162.605
11
126.163
21
-162.415
0
LINE
8
BLACK
6
CONTINUOUS
10
126.163
20
-162.415
11
126.353
21
-162.319
0
LINE
8
BLACK
6
CONTINUOUS
10
126.353
20
-162.319
11
126.734
21
-162.319
0
LINE
8
BLACK
6
CONTINUOUS
10
126.734
20
-162.319
11
126.925
21
-162.415
0
LINE
8
BLACK
6
CONTINUOUS
10
126.925
20
-162.415
11
127.02
21
-162.605
0
LINE
8
BLACK
6
CONTINUOUS
10
127.02
20
-162.605
11
127.02
21
-162.796
0
LINE
8
BLACK
6
CONTINUOUS
10
127.02
20
-162.796
11
126.068
21
-162.986
0
LINE
8
BLACK
6
CONTINUOUS
10
127.782
20
-163.558
11
127.972
21
-163.653
0
LINE
8
BLACK
6
CONTINUOUS
10
127.972
20
-163.653
11
128.353
21
-163.653
0
LINE
8
BLACK
6
CONTINUOUS
10
128.353
20
-163.653
11
128.544
21
-163.558
0
LINE
8
BLACK
6
CONTINUOUS
10
128.544
20
-163.558
11
128.639
21
-163.367
0
LINE
8
BLACK
6
CONTINUOUS
10
128.639
20
-163.367
11
128.639
21
-163.272
0
LINE
8
BLACK
6
CONTINUOUS
10
128.639
20
-163.272
11
128.544
21
-163.081
0
LINE
8
BLACK
6
CONTINUOUS
10
128.544
20
-163.081
11
128.353
21
-162.986
0
LINE
8
BLACK
6
CONTINUOUS
10
128.353
20
-162.986
11
128.068
21
-162.986
0
LINE
8
BLACK
6
CONTINUOUS
10
128.068
20
-162.986
11
127.877
21
-162.891
0
LINE
8
BLACK
6
CONTINUOUS
10
127.877
20
-162.891
11
127.782
21
-162.7
0
LINE
8
BLACK
6
CONTINUOUS
10
127.782
20
-162.7
11
127.782
21
-162.605
0
LINE
8
BLACK
6
CONTINUOUS
10
127.782
20
-162.605
11
127.877
21
-162.415
0
LINE
8
BLACK
6
CONTINUOUS
10
127.877
20
-162.415
11
128.068
21
-162.319
0
LINE
8
BLACK
6
CONTINUOUS
10
128.068
20
-162.319
11
128.353
21
-162.319
0
LINE
8
BLACK
6
CONTINUOUS
10
128.353
20
-162.319
11
128.544
21
-162.415
0
LINE
8
BLACK
6
CONTINUOUS
10
129.306
20
-164.415
11
129.401
21
-164.319
0
LINE
8
BLACK
6
CONTINUOUS
10
129.401
20
-164.319
11
129.592
21
-164.034
0
LINE
8
BLACK
6
CONTINUOUS
10
129.592
20
-164.034
11
129.687
21
-163.843
0
LINE
8
BLACK
6
CONTINUOUS
10
129.687
20
-163.843
11
129.782
21
-163.558
0
LINE
8
BLACK
6
CONTINUOUS
10
129.782
20
-163.558
11
129.877
21
-163.081
0
LINE
8
BLACK
6
CONTINUOUS
10
129.877
20
-163.081
11
129.877
21
-162.7
0
LINE
8
BLACK
6
CONTINUOUS
10
129.877
20
-162.7
11
129.782
21
-162.224
0
LINE
8
BLACK
6
CONTINUOUS
10
129.782
20
-162.224
11
129.687
21
-161.938
0
LINE
8
BLACK
6
CONTINUOUS
10
129.687
20
-161.938
11
129.592
21
-161.748
0
LINE
8
BLACK
6
CONTINUOUS
10
129.592
20
-161.748
11
129.401
21
-161.462
0
LINE
8
BLACK
6
CONTINUOUS
10
129.401
20
-161.462
11
129.306
21
-161.367
0
LINE
8
BLACK
6
CONTINUOUS
10
132.601
20
-164.415
11
132.506
21
-164.319
0
LINE
8
BLACK
6
CONTINUOUS
10
132.506
20
-164.319
11
132.315
21
-164.034
0
LINE
8
BLACK
6
CONTINUOUS
10
132.315
20
-164.034
11
132.22
21
-163.843
0
LINE
8
BLACK
6
CONTINUOUS
10
132.22
20
-163.843
11
132.125
21
-163.558
0
LINE
8
BLACK
6
CONTINUOUS
10
132.125
20
-163.558
11
132.03
21
-163.081
0
LINE
8
BLACK
6
CONTINUOUS
10
132.03
20
-163.081
11
132.03
21
-162.7
0
LINE
8
BLACK
6
CONTINUOUS
10
132.03
20
-162.7
11
132.125
21
-162.224
0
LINE
8
BLACK
6
CONTINUOUS
10
132.125
20
-162.224
11
132.22
21
-161.938
0
LINE
8
BLACK
6
CONTINUOUS
10
132.22
20
-161.938
11
132.315
21
-161.748
0
LINE
8
BLACK
6
CONTINUOUS
10
132.315
20
-161.748
11
132.506
21
-161.462
0
LINE
8
BLACK
6
CONTINUOUS
10
132.506
20
-161.462
11
132.601
21
-161.367
0
LINE
8
BLACK
6
CONTINUOUS
10
133.363
20
-162.319
11
133.363
21
-163.653
0
LINE
8
BLACK
6
CONTINUOUS
10
133.363
20
-162.51
11
133.458
21
-162.415
0
LINE
8
BLACK
6
CONTINUOUS
10
133.458
20
-162.415
11
133.649
21
-162.319
0
LINE
8
BLACK
6
CONTINUOUS
10
133.649
20
-162.319
11
133.934
21
-162.319
0
LINE
8
BLACK
6
CONTINUOUS
10
133.934
20
-162.319
11
134.125
21
-162.415
0
LINE
8
BLACK
6
CONTINUOUS
10
134.125
20
-162.415
11
134.22
21
-162.605
0
LINE
8
BLACK
6
CONTINUOUS
10
134.22
20
-162.605
11
134.22
21
-163.653
0
LINE
8
BLACK
6
CONTINUOUS
10
135.458
20
-163.653
11
135.268
21
-163.558
0
LINE
8
BLACK
6
CONTINUOUS
10
135.268
20
-163.558
11
135.172
21
-163.462
0
LINE
8
BLACK
6
CONTINUOUS
10
135.172
20
-163.462
11
135.077
21
-163.272
0
LINE
8
BLACK
6
CONTINUOUS
10
135.077
20
-163.272
11
135.077
21
-162.7
0
LINE
8
BLACK
6
CONTINUOUS
10
135.077
20
-162.7
11
135.172
21
-162.51
0
LINE
8
BLACK
6
CONTINUOUS
10
135.172
20
-162.51
11
135.268
21
-162.415
0
LINE
8
BLACK
6
CONTINUOUS
10
135.268
20
-162.415
11
135.458
21
-162.319
0
LINE
8
BLACK
6
CONTINUOUS
10
135.458
20
-162.319
11
135.744
21
-162.319
0
LINE
8
BLACK
6
CONTINUOUS
10
135.744
20
-162.319
11
135.934
21
-162.415
0
LINE
8
BLACK
6
CONTINUOUS
10
135.934
20
-162.415
11
136.03
21
-162.51
0
LINE
8
BLACK
6
CONTINUOUS
10
136.03
20
-162.51
11
136.125
21
-162.7
0
LINE
8
BLACK
6
CONTINUOUS
10
136.125
20
-162.7
11
136.125
21
-163.272
0
LINE
8
BLACK
6
CONTINUOUS
10
136.125
20
-163.272
11
136.03
21
-163.462
0
LINE
8
BLACK
6
CONTINUOUS
10
136.03
20
-163.462
11
135.934
21
-163.558
0
LINE
8
BLACK
6
CONTINUOUS
10
135.934
20
-163.558
11
135.744
21
-163.653
0
LINE
8
BLACK
6
CONTINUOUS
10
135.744
20
-163.653
11
135.458
21
-163.653
0
LINE
8
BLACK
6
CONTINUOUS
10
136.696
20
-162.319
11
137.458
21
-162.319
0
LINE
8
BLACK
6
CONTINUOUS
10
136.982
20
-161.653
11
136.982
21
-163.367
0
LINE
8
BLACK
6
CONTINUOUS
10
136.982
20
-163.367
11
137.077
21
-163.558
0
LINE
8
BLACK
6
CONTINUOUS
10
137.077
20
-163.558
11
137.268
21
-163.653
0
LINE
8
BLACK
6
CONTINUOUS
10
137.268
20
-163.653
11
137.458
21
-163.653
0
LINE
8
BLACK
6
CONTINUOUS
10
139.325
20
-162.319
11
139.325
21
-164.319
0
LINE
8
BLACK
6
CONTINUOUS
10
139.325
20
-162.415
11
139.515
21
-162.319
0
LINE
8
BLACK
6
CONTINUOUS
10
139.515
20
-162.319
11
139.896
21
-162.319
0
LINE
8
BLACK
6
CONTINUOUS
10
139.896
20
-162.319
11
140.087
21
-162.415
0
LINE
8
BLACK
6
CONTINUOUS
10
140.087
20
-162.415
11
140.182
21
-162.51
0
LINE
8
BLACK
6
CONTINUOUS
10
140.182
20
-162.51
11
140.277
21
-162.7
0
LINE
8
BLACK
6
CONTINUOUS
10
140.277
20
-162.7
11
140.277
21
-163.272
0
LINE
8
BLACK
6
CONTINUOUS
10
140.277
20
-163.272
11
140.182
21
-163.462
0
LINE
8
BLACK
6
CONTINUOUS
10
140.182
20
-163.462
11
140.087
21
-163.558
0
LINE
8
BLACK
6
CONTINUOUS
10
140.087
20
-163.558
11
139.896
21
-163.653
0
LINE
8
BLACK
6
CONTINUOUS
10
139.896
20
-163.653
11
139.515
21
-163.653
0
LINE
8
BLACK
6
CONTINUOUS
10
139.515
20
-163.653
11
139.325
21
-163.558
0
LINE
8
BLACK
6
CONTINUOUS
10
141.42
20
-163.653
11
141.23
21
-163.558
0
LINE
8
BLACK
6
CONTINUOUS
10
141.23
20
-163.558
11
141.134
21
-163.367
0
LINE
8
BLACK
6
CONTINUOUS
10
141.134
20
-163.367
11
141.134
21
-161.653
0
LINE
8
BLACK
6
CONTINUOUS
10
143.039
20
-163.653
11
143.039
21
-162.605
0
LINE
8
BLACK
6
CONTINUOUS
10
143.039
20
-162.605
11
142.944
21
-162.415
0
LINE
8
BLACK
6
CONTINUOUS
10
142.944
20
-162.415
11
142.753
21
-162.319
0
LINE
8
BLACK
6
CONTINUOUS
10
142.753
20
-162.319
11
142.372
21
-162.319
0
LINE
8
BLACK
6
CONTINUOUS
10
142.372
20
-162.319
11
142.182
21
-162.415
0
LINE
8
BLACK
6
CONTINUOUS
10
143.039
20
-163.558
11
142.849
21
-163.653
0
LINE
8
BLACK
6
CONTINUOUS
10
142.849
20
-163.653
11
142.372
21
-163.653
0
LINE
8
BLACK
6
CONTINUOUS
10
142.372
20
-163.653
11
142.182
21
-163.558
0
LINE
8
BLACK
6
CONTINUOUS
10
142.182
20
-163.558
11
142.087
21
-163.367
0
LINE
8
BLACK
6
CONTINUOUS
10
142.087
20
-163.367
11
142.087
21
-163.177
0
LINE
8
BLACK
6
CONTINUOUS
10
142.087
20
-163.177
11
142.182
21
-162.986
0
LINE
8
BLACK
6
CONTINUOUS
10
142.182
20
-162.986
11
142.372
21
-162.891
0
LINE
8
BLACK
6
CONTINUOUS
10
142.372
20
-162.891
11
142.849
21
-162.891
0
LINE
8
BLACK
6
CONTINUOUS
10
142.849
20
-162.891
11
143.039
21
-162.796
0
LINE
8
BLACK
6
CONTINUOUS
10
143.706
20
-162.319
11
144.468
21
-162.319
0
LINE
8
BLACK
6
CONTINUOUS
10
143.992
20
-161.653
11
143.992
21
-163.367
0
LINE
8
BLACK
6
CONTINUOUS
10
143.992
20
-163.367
11
144.087
21
-163.558
0
LINE
8
BLACK
6
CONTINUOUS
10
144.087
20
-163.558
11
144.277
21
-163.653
0
LINE
8
BLACK
6
CONTINUOUS
10
144.277
20
-163.653
11
144.468
21
-163.653
0
LINE
8
BLACK
6
CONTINUOUS
10
145.896
20
-163.558
11
145.706
21
-163.653
0
LINE
8
BLACK
6
CONTINUOUS
10
145.706
20
-163.653
11
145.325
21
-163.653
0
LINE
8
BLACK
6
CONTINUOUS
10
145.325
20
-163.653
11
145.134
21
-163.558
0
LINE
8
BLACK
6
CONTINUOUS
10
145.134
20
-163.558
11
145.039
21
-163.367
0
LINE
8
BLACK
6
CONTINUOUS
10
145.039
20
-163.367
11
145.039
21
-162.605
0
LINE
8
BLACK
6
CONTINUOUS
10
145.039
20
-162.605
11
145.134
21
-162.415
0
LINE
8
BLACK
6
CONTINUOUS
10
145.134
20
-162.415
11
145.325
21
-162.319
0
LINE
8
BLACK
6
CONTINUOUS
10
145.325
20
-162.319
11
145.706
21
-162.319
0
LINE
8
BLACK
6
CONTINUOUS
10
145.706
20
-162.319
11
145.896
21
-162.415
0
LINE
8
BLACK
6
CONTINUOUS
10
145.896
20
-162.415
11
145.992
21
-162.605
0
LINE
8
BLACK
6
CONTINUOUS
10
145.992
20
-162.605
11
145.992
21
-162.796
0
LINE
8
BLACK
6
CONTINUOUS
10
145.992
20
-162.796
11
145.039
21
-162.986
0
LINE
8
BLACK
6
CONTINUOUS
10
147.706
20
-163.653
11
147.706
21
-161.653
0
LINE
8
BLACK
6
CONTINUOUS
10
147.706
20
-163.558
11
147.515
21
-163.653
0
LINE
8
BLACK
6
CONTINUOUS
10
147.515
20
-163.653
11
147.134
21
-163.653
0
LINE
8
BLACK
6
CONTINUOUS
10
147.134
20
-163.653
11
146.944
21
-163.558
0
LINE
8
BLACK
6
CONTINUOUS
10
146.944
20
-163.558
11
146.849
21
-163.462
0
LINE
8
BLACK
6
CONTINUOUS
10
146.849
20
-163.462
11
146.753
21
-163.272
0
LINE
8
BLACK
6
CONTINUOUS
10
146.753
20
-163.272
11
146.753
21
-162.7
0
LINE
8
BLACK
6
CONTINUOUS
10
146.753
20
-162.7
11
146.849
21
-162.51
0
LINE
8
BLACK
6
CONTINUOUS
10
146.849
20
-162.51
11
146.944
21
-162.415
0
LINE
8
BLACK
6
CONTINUOUS
10
146.944
20
-162.415
11
147.134
21
-162.319
0
LINE
8
BLACK
6
CONTINUOUS
10
147.134
20
-162.319
11
147.515
21
-162.319
0
LINE
8
BLACK
6
CONTINUOUS
10
147.515
20
-162.319
11
147.706
21
-162.415
0
LINE
8
BLACK
6
CONTINUOUS
10
148.468
20
-164.415
11
148.563
21
-164.319
0
LINE
8
BLACK
6
CONTINUOUS
10
148.563
20
-164.319
11
148.753
21
-164.034
0
LINE
8
BLACK
6
CONTINUOUS
10
148.753
20
-164.034
11
148.849
21
-163.843
0
LINE
8
BLACK
6
CONTINUOUS
10
148.849
20
-163.843
11
148.944
21
-163.558
0
LINE
8
BLACK
6
CONTINUOUS
10
148.944
20
-163.558
11
149.039
21
-163.081
0
LINE
8
BLACK
6
CONTINUOUS
10
149.039
20
-163.081
11
149.039
21
-162.7
0
LINE
8
BLACK
6
CONTINUOUS
10
149.039
20
-162.7
11
148.944
21
-162.224
0
LINE
8
BLACK
6
CONTINUOUS
10
148.944
20
-162.224
11
148.849
21
-161.938
0
LINE
8
BLACK
6
CONTINUOUS
10
148.849
20
-161.938
11
148.753
21
-161.748
0
LINE
8
BLACK
6
CONTINUOUS
10
148.753
20
-161.748
11
148.563
21
-161.462
0
LINE
8
BLACK
6
CONTINUOUS
10
148.563
20
-161.462
11
148.468
21
-161.367
0
CIRCLE
8
BLACK
10
81.982
20
-165.558
40
1
0
LINE
8
BLACK
6
CONTINUOUS
10
85.2677
20
-164.293
11
86.5058
21
-164.293
0
LINE
8
BLACK
6
CONTINUOUS
10
86.5058
20
-164.293
11
85.8391
21
-165.055
0
LINE
8
BLACK
6
CONTINUOUS
10
85.8391
20
-165.055
11
86.1249
21
-165.055
0
LINE
8
BLACK
6
CONTINUOUS
10
86.1249
20
-165.055
11
86.3153
21
-165.15
0
LINE
8
BLACK
6
CONTINUOUS
10
86.3153
20
-165.15
11
86.4106
21
-165.245
0
LINE
8
BLACK
6
CONTINUOUS
10
86.4106
20
-165.245
11
86.5058
21
-165.436
0
LINE
8
BLACK
6
CONTINUOUS
10
86.5058
20
-165.436
11
86.5058
21
-165.912
0
LINE
8
BLACK
6
CONTINUOUS
10
86.5058
20
-165.912
11
86.4106
21
-166.102
0
LINE
8
BLACK
6
CONTINUOUS
10
86.4106
20
-166.102
11
86.3153
21
-166.198
0
LINE
8
BLACK
6
CONTINUOUS
10
86.3153
20
-166.198
11
86.1249
21
-166.293
0
LINE
8
BLACK
6
CONTINUOUS
10
86.1249
20
-166.293
11
85.5534
21
-166.293
0
LINE
8
BLACK
6
CONTINUOUS
10
85.5534
20
-166.293
11
85.363
21
-166.198
0
LINE
8
BLACK
6
CONTINUOUS
10
85.363
20
-166.198
11
85.2677
21
-166.102
0
LINE
8
BLACK
6
CONTINUOUS
10
87.363
20
-166.102
11
87.4582
21
-166.198
0
LINE
8
BLACK
6
CONTINUOUS
10
87.4582
20
-166.198
11
87.363
21
-166.293
0
LINE
8
BLACK
6
CONTINUOUS
10
87.363
20
-166.293
11
87.2677
21
-166.198
0
LINE
8
BLACK
6
CONTINUOUS
10
87.2677
20
-166.198
11
87.363
21
-166.102
0
LINE
8
BLACK
6
CONTINUOUS
10
87.363
20
-166.102
11
87.363
21
-166.293
0
LINE
8
BLACK
6
CONTINUOUS
10
88.2201
20
-164.483
11
88.3153
21
-164.388
0
LINE
8
BLACK
6
CONTINUOUS
10
88.3153
20
-164.388
11
88.5058
21
-164.293
0
LINE
8
BLACK
6
CONTINUOUS
10
88.5058
20
-164.293
11
88.982
21
-164.293
0
LINE
8
BLACK
6
CONTINUOUS
10
88.982
20
-164.293
11
89.1725
21
-164.388
0
LINE
8
BLACK
6
CONTINUOUS
10
89.1725
20
-164.388
11
89.2677
21
-164.483
0
LINE
8
BLACK
6
CONTINUOUS
10
89.2677
20
-164.483
11
89.363
21
-164.674
0
LINE
8
BLACK
6
CONTINUOUS
10
89.363
20
-164.674
11
89.363
21
-164.864
0
LINE
8
BLACK
6
CONTINUOUS
10
89.363
20
-164.864
11
89.2677
21
-165.15
0
LINE
8
BLACK
6
CONTINUOUS
10
89.2677
20
-165.15
11
88.1249
21
-166.293
0
LINE
8
BLACK
6
CONTINUOUS
10
88.1249
20
-166.293
11
89.363
21
-166.293
0
LINE
8
BLACK
6
CONTINUOUS
10
90.601
20
-164.293
11
90.7915
21
-164.293
0
LINE
8
BLACK
6
CONTINUOUS
10
90.7915
20
-164.293
11
90.982
21
-164.388
0
LINE
8
BLACK
6
CONTINUOUS
10
90.982
20
-164.388
11
91.0772
21
-164.483
0
LINE
8
BLACK
6
CONTINUOUS
10
91.0772
20
-164.483
11
91.1725
21
-164.674
0
LINE
8
BLACK
6
CONTINUOUS
10
91.1725
20
-164.674
11
91.2677
21
-165.055
0
LINE
8
BLACK
6
CONTINUOUS
10
91.2677
20
-165.055
11
91.2677
21
-165.531
0
LINE
8
BLACK
6
CONTINUOUS
10
91.2677
20
-165.531
11
91.1725
21
-165.912
0
LINE
8
BLACK
6
CONTINUOUS
10
91.1725
20
-165.912
11
91.0772
21
-166.102
0
LINE
8
BLACK
6
CONTINUOUS
10
91.0772
20
-166.102
11
90.982
21
-166.198
0
LINE
8
BLACK
6
CONTINUOUS
10
90.982
20
-166.198
11
90.7915
21
-166.293
0
LINE
8
BLACK
6
CONTINUOUS
10
90.7915
20
-166.293
11
90.601
21
-166.293
0
LINE
8
BLACK
6
CONTINUOUS
10
90.601
20
-166.293
11
90.4106
21
-166.198
0
LINE
8
BLACK
6
CONTINUOUS
10
90.4106
20
-166.198
11
90.3153
21
-166.102
0
LINE
8
BLACK
6
CONTINUOUS
10
90.3153
20
-166.102
11
90.2201
21
-165.912
0
LINE
8
BLACK
6
CONTINUOUS
10
90.2201
20
-165.912
11
90.1249
21
-165.531
0
LINE
8
BLACK
6
CONTINUOUS
10
90.1249
20
-165.531
11
90.1249
21
-165.055
0
LINE
8
BLACK
6
CONTINUOUS
10
90.1249
20
-165.055
11
90.2201
21
-164.674
0
LINE
8
BLACK
6
CONTINUOUS
10
90.2201
20
-164.674
11
90.3153
21
-164.483
0
LINE
8
BLACK
6
CONTINUOUS
10
90.3153
20
-164.483
11
90.4106
21
-164.388
0
LINE
8
BLACK
6
CONTINUOUS
10
90.4106
20
-164.388
11
90.601
21
-164.293
0
LINE
8
BLACK
6
CONTINUOUS
10
92.5058
20
-164.293
11
92.6963
21
-164.293
0
LINE
8
BLACK
6
CONTINUOUS
10
92.6963
20
-164.293
11
92.8868
21
-164.388
0
LINE
8
BLACK
6
CONTINUOUS
10
92.8868
20
-164.388
11
92.982
21
-164.483
0
LINE
8
BLACK
6
CONTINUOUS
10
92.982
20
-164.483
11
93.0772
21
-164.674
0
LINE
8
BLACK
6
CONTINUOUS
10
93.0772
20
-164.674
11
93.1725
21
-165.055
0
LINE
8
BLACK
6
CONTINUOUS
10
93.1725
20
-165.055
11
93.1725
21
-165.531
0
LINE
8
BLACK
6
CONTINUOUS
10
93.1725
20
-165.531
11
93.0772
21
-165.912
0
LINE
8
BLACK
6
CONTINUOUS
10
93.0772
20
-165.912
11
92.982
21
-166.102
0
LINE
8
BLACK
6
CONTINUOUS
10
92.982
20
-166.102
11
92.8868
21
-166.198
0
LINE
8
BLACK
6
CONTINUOUS
10
92.8868
20
-166.198
11
92.6963
21
-166.293
0
LINE
8
BLACK
6
CONTINUOUS
10
92.6963
20
-166.293
11
92.5058
21
-166.293
0
LINE
8
BLACK
6
CONTINUOUS
10
92.5058
20
-166.293
11
92.3153
21
-166.198
0
LINE
8
BLACK
6
CONTINUOUS
10
92.3153
20
-166.198
11
92.2201
21
-166.102
0
LINE
8
BLACK
6
CONTINUOUS
10
92.2201
20
-166.102
11
92.1249
21
-165.912
0
LINE
8
BLACK
6
CONTINUOUS
10
92.1249
20
-165.912
11
92.0296
21
-165.531
0
LINE
8
BLACK
6
CONTINUOUS
10
92.0296
20
-165.531
11
92.0296
21
-165.055
0
LINE
8
BLACK
6
CONTINUOUS
10
92.0296
20
-165.055
11
92.1249
21
-164.674
0
LINE
8
BLACK
6
CONTINUOUS
10
92.1249
20
-164.674
11
92.2201
21
-164.483
0
LINE
8
BLACK
6
CONTINUOUS
10
92.2201
20
-164.483
11
92.3153
21
-164.388
0
LINE
8
BLACK
6
CONTINUOUS
10
92.3153
20
-164.388
11
92.5058
21
-164.293
0
LINE
8
BLACK
6
CONTINUOUS
10
94.0296
20
-166.293
11
94.0296
21
-164.959
0
LINE
8
BLACK
6
CONTINUOUS
10
94.0296
20
-165.15
11
94.1249
21
-165.055
0
LINE
8
BLACK
6
CONTINUOUS
10
94.1249
20
-165.055
11
94.3153
21
-164.959
0
LINE
8
BLACK
6
CONTINUOUS
10
94.3153
20
-164.959
11
94.601
21
-164.959
0
LINE
8
BLACK
6
CONTINUOUS
10
94.601
20
-164.959
11
94.7915
21
-165.055
0
LINE
8
BLACK
6
CONTINUOUS
10
94.7915
20
-165.055
11
94.8868
21
-165.245
0
LINE
8
BLACK
6
CONTINUOUS
10
94.8868
20
-165.245
11
94.8868
21
-166.293
0
LINE
8
BLACK
6
CONTINUOUS
10
94.8868
20
-165.245
11
94.982
21
-165.055
0
LINE
8
BLACK
6
CONTINUOUS
10
94.982
20
-165.055
11
95.1725
21
-164.959
0
LINE
8
BLACK
6
CONTINUOUS
10
95.1725
20
-164.959
11
95.4582
21
-164.959
0
LINE
8
BLACK
6
CONTINUOUS
10
95.4582
20
-164.959
11
95.6487
21
-165.055
0
LINE
8
BLACK
6
CONTINUOUS
10
95.6487
20
-165.055
11
95.7439
21
-165.245
0
LINE
8
BLACK
6
CONTINUOUS
10
95.7439
20
-165.245
11
95.7439
21
-166.293
0
LINE
8
BLACK
6
CONTINUOUS
10
96.6963
20
-166.293
11
96.6963
21
-164.959
0
LINE
8
BLACK
6
CONTINUOUS
10
96.6963
20
-165.15
11
96.7915
21
-165.055
0
LINE
8
BLACK
6
CONTINUOUS
10
96.7915
20
-165.055
11
96.982
21
-164.959
0
LINE
8
BLACK
6
CONTINUOUS
10
96.982
20
-164.959
11
97.2677
21
-164.959
0
LINE
8
BLACK
6
CONTINUOUS
10
97.2677
20
-164.959
11
97.4582
21
-165.055
0
LINE
8
BLACK
6
CONTINUOUS
10
97.4582
20
-165.055
11
97.5534
21
-165.245
0
LINE
8
BLACK
6
CONTINUOUS
10
97.5534
20
-165.245
11
97.5534
21
-166.293
0
LINE
8
BLACK
6
CONTINUOUS
10
97.5534
20
-165.245
11
97.6487
21
-165.055
0
LINE
8
BLACK
6
CONTINUOUS
10
97.6487
20
-165.055
11
97.8391
21
-164.959
0
LINE
8
BLACK
6
CONTINUOUS
10
97.8391
20
-164.959
11
98.1249
21
-164.959
0
LINE
8
BLACK
6
CONTINUOUS
10
98.1249
20
-164.959
11
98.3153
21
-165.055
0
LINE
8
BLACK
6
CONTINUOUS
10
98.3153
20
-165.055
11
98.4106
21
-165.245
0
LINE
8
BLACK
6
CONTINUOUS
10
98.4106
20
-165.245
11
98.4106
21
-166.293
0
LINE
8
BLACK
6
CONTINUOUS
10
101.992
20
-164.198
11
100.277
21
-166.769
0
LINE
8
BLACK
6
CONTINUOUS
10
104.239
20
-164.293
11
104.43
21
-164.293
0
LINE
8
BLACK
6
CONTINUOUS
10
104.43
20
-164.293
11
104.62
21
-164.388
0
LINE
8
BLACK
6
CONTINUOUS
10
104.62
20
-164.388
11
104.715
21
-164.483
0
LINE
8
BLACK
6
CONTINUOUS
10
104.715
20
-164.483
11
104.811
21
-164.674
0
LINE
8
BLACK
6
CONTINUOUS
10
104.811
20
-164.674
11
104.906
21
-165.055
0
LINE
8
BLACK
6
CONTINUOUS
10
104.906
20
-165.055
11
104.906
21
-165.531
0
LINE
8
BLACK
6
CONTINUOUS
10
104.906
20
-165.531
11
104.811
21
-165.912
0
LINE
8
BLACK
6
CONTINUOUS
10
104.811
20
-165.912
11
104.715
21
-166.102
0
LINE
8
BLACK
6
CONTINUOUS
10
104.715
20
-166.102
11
104.62
21
-166.198
0
LINE
8
BLACK
6
CONTINUOUS
10
104.62
20
-166.198
11
104.43
21
-166.293
0
LINE
8
BLACK
6
CONTINUOUS
10
104.43
20
-166.293
11
104.239
21
-166.293
0
LINE
8
BLACK
6
CONTINUOUS
10
104.239
20
-166.293
11
104.049
21
-166.198
0
LINE
8
BLACK
6
CONTINUOUS
10
104.049
20
-166.198
11
103.953
21
-166.102
0
LINE
8
BLACK
6
CONTINUOUS
10
103.953
20
-166.102
11
103.858
21
-165.912
0
LINE
8
BLACK
6
CONTINUOUS
10
103.858
20
-165.912
11
103.763
21
-165.531
0
LINE
8
BLACK
6
CONTINUOUS
10
103.763
20
-165.531
11
103.763
21
-165.055
0
LINE
8
BLACK
6
CONTINUOUS
10
103.763
20
-165.055
11
103.858
21
-164.674
0
LINE
8
BLACK
6
CONTINUOUS
10
103.858
20
-164.674
11
103.953
21
-164.483
0
LINE
8
BLACK
6
CONTINUOUS
10
103.953
20
-164.483
11
104.049
21
-164.388
0
LINE
8
BLACK
6
CONTINUOUS
10
104.049
20
-164.388
11
104.239
21
-164.293
0
LINE
8
BLACK
6
CONTINUOUS
10
105.763
20
-166.102
11
105.858
21
-166.198
0
LINE
8
BLACK
6
CONTINUOUS
10
105.858
20
-166.198
11
105.763
21
-166.293
0
LINE
8
BLACK
6
CONTINUOUS
10
105.763
20
-166.293
11
105.668
21
-166.198
0
LINE
8
BLACK
6
CONTINUOUS
10
105.668
20
-166.198
11
105.763
21
-166.102
0
LINE
8
BLACK
6
CONTINUOUS
10
105.763
20
-166.102
11
105.763
21
-166.293
0
LINE
8
BLACK
6
CONTINUOUS
10
107.763
20
-166.293
11
106.62
21
-166.293
0
LINE
8
BLACK
6
CONTINUOUS
10
107.192
20
-166.293
11
107.192
21
-164.293
0
LINE
8
BLACK
6
CONTINUOUS
10
107.192
20
-164.293
11
107.001
21
-164.578
0
LINE
8
BLACK
6
CONTINUOUS
10
107.001
20
-164.578
11
106.811
21
-164.769
0
LINE
8
BLACK
6
CONTINUOUS
10
106.811
20
-164.769
11
106.62
21
-164.864
0
LINE
8
BLACK
6
CONTINUOUS
10
108.525
20
-164.483
11
108.62
21
-164.388
0
LINE
8
BLACK
6
CONTINUOUS
10
108.62
20
-164.388
11
108.811
21
-164.293
0
LINE
8
BLACK
6
CONTINUOUS
10
108.811
20
-164.293
11
109.287
21
-164.293
0
LINE
8
BLACK
6
CONTINUOUS
10
109.287
20
-164.293
11
109.477
21
-164.388
0
LINE
8
BLACK
6
CONTINUOUS
10
109.477
20
-164.388
11
109.572
21
-164.483
0
LINE
8
BLACK
6
CONTINUOUS
10
109.572
20
-164.483
11
109.668
21
-164.674
0
LINE
8
BLACK
6
CONTINUOUS
10
109.668
20
-164.674
11
109.668
21
-164.864
0
LINE
8
BLACK
6
CONTINUOUS
10
109.668
20
-164.864
11
109.572
21
-165.15
0
LINE
8
BLACK
6
CONTINUOUS
10
109.572
20
-165.15
11
108.43
21
-166.293
0
LINE
8
BLACK
6
CONTINUOUS
10
108.43
20
-166.293
11
109.668
21
-166.293
0
LINE
8
BLACK
6
CONTINUOUS
10
111.382
20
-164.293
11
111.001
21
-164.293
0
LINE
8
BLACK
6
CONTINUOUS
10
111.001
20
-164.293
11
110.811
21
-164.388
0
LINE
8
BLACK
6
CONTINUOUS
10
110.811
20
-164.388
11
110.715
21
-164.483
0
LINE
8
BLACK
6
CONTINUOUS
10
110.715
20
-164.483
11
110.525
21
-164.769
0
LINE
8
BLACK
6
CONTINUOUS
10
110.525
20
-164.769
11
110.43
21
-165.15
0
LINE
8
BLACK
6
CONTINUOUS
10
110.43
20
-165.15
11
110.43
21
-165.912
0
LINE
8
BLACK
6
CONTINUOUS
10
110.43
20
-165.912
11
110.525
21
-166.102
0
LINE
8
BLACK
6
CONTINUOUS
10
110.525
20
-166.102
11
110.62
21
-166.198
0
LINE
8
BLACK
6
CONTINUOUS
10
110.62
20
-166.198
11
110.811
21
-166.293
0
LINE
8
BLACK
6
CONTINUOUS
10
110.811
20
-166.293
11
111.192
21
-166.293
0
LINE
8
BLACK
6
CONTINUOUS
10
111.192
20
-166.293
11
111.382
21
-166.198
0
LINE
8
BLACK
6
CONTINUOUS
10
111.382
20
-166.198
11
111.477
21
-166.102
0
LINE
8
BLACK
6
CONTINUOUS
10
111.477
20
-166.102
11
111.572
21
-165.912
0
LINE
8
BLACK
6
CONTINUOUS
10
111.572
20
-165.912
11
111.572
21
-165.436
0
LINE
8
BLACK
6
CONTINUOUS
10
111.572
20
-165.436
11
111.477
21
-165.245
0
LINE
8
BLACK
6
CONTINUOUS
10
111.477
20
-165.245
11
111.382
21
-165.15
0
LINE
8
BLACK
6
CONTINUOUS
10
111.382
20
-165.15
11
111.192
21
-165.055
0
LINE
8
BLACK
6
CONTINUOUS
10
111.192
20
-165.055
11
110.811
21
-165.055
0
LINE
8
BLACK
6
CONTINUOUS
10
110.811
20
-165.055
11
110.62
21
-165.15
0
LINE
8
BLACK
6
CONTINUOUS
10
110.62
20
-165.15
11
110.525
21
-165.245
0
LINE
8
BLACK
6
CONTINUOUS
10
110.525
20
-165.245
11
110.43
21
-165.436
0
LINE
8
BLACK
6
CONTINUOUS
10
112.811
20
-164.293
11
113.001
21
-164.293
0
LINE
8
BLACK
6
CONTINUOUS
10
113.001
20
-164.293
11
113.192
21
-164.388
0
LINE
8
BLACK
6
CONTINUOUS
10
113.192
20
-164.388
11
113.287
21
-164.483
0
LINE
8
BLACK
6
CONTINUOUS
10
113.287
20
-164.483
11
113.382
21
-164.674
0
LINE
8
BLACK
6
CONTINUOUS
10
113.382
20
-164.674
11
113.477
21
-165.055
0
LINE
8
BLACK
6
CONTINUOUS
10
113.477
20
-165.055
11
113.477
21
-165.531
0
LINE
8
BLACK
6
CONTINUOUS
10
113.477
20
-165.531
11
113.382
21
-165.912
0
LINE
8
BLACK
6
CONTINUOUS
10
113.382
20
-165.912
11
113.287
21
-166.102
0
LINE
8
BLACK
6
CONTINUOUS
10
113.287
20
-166.102
11
113.192
21
-166.198
0
LINE
8
BLACK
6
CONTINUOUS
10
113.192
20
-166.198
11
113.001
21
-166.293
0
LINE
8
BLACK
6
CONTINUOUS
10
113.001
20
-166.293
11
112.811
21
-166.293
0
LINE
8
BLACK
6
CONTINUOUS
10
112.811
20
-166.293
11
112.62
21
-166.198
0
LINE
8
BLACK
6
CONTINUOUS
10
112.62
20
-166.198
11
112.525
21
-166.102
0
LINE
8
BLACK
6
CONTINUOUS
10
112.525
20
-166.102
11
112.43
21
-165.912
0
LINE
8
BLACK
6
CONTINUOUS
10
112.43
20
-165.912
11
112.334
21
-165.531
0
LINE
8
BLACK
6
CONTINUOUS
10
112.334
20
-165.531
11
112.334
21
-165.055
0
LINE
8
BLACK
6
CONTINUOUS
10
112.334
20
-165.055
11
112.43
21
-164.674
0
LINE
8
BLACK
6
CONTINUOUS
10
112.43
20
-164.674
11
112.525
21
-164.483
0
LINE
8
BLACK
6
CONTINUOUS
10
112.525
20
-164.483
11
112.62
21
-164.388
0
LINE
8
BLACK
6
CONTINUOUS
10
112.62
20
-164.388
11
112.811
21
-164.293
0
LINE
8
BLACK
6
CONTINUOUS
10
114.239
20
-164.293
11
114.239
21
-164.674
0
LINE
8
BLACK
6
CONTINUOUS
10
115.001
20
-164.293
11
115.001
21
-164.674
0
LINE
8
BLACK
6
CONTINUOUS
10
117.63
20
-167.055
11
117.534
21
-166.959
0
LINE
8
BLACK
6
CONTINUOUS
10
117.534
20
-166.959
11
117.344
21
-166.674
0
LINE
8
BLACK
6
CONTINUOUS
10
117.344
20
-166.674
11
117.249
21
-166.483
0
LINE
8
BLACK
6
CONTINUOUS
10
117.249
20
-166.483
11
117.153
21
-166.198
0
LINE
8
BLACK
6
CONTINUOUS
10
117.153
20
-166.198
11
117.058
21
-165.721
0
LINE
8
BLACK
6
CONTINUOUS
10
117.058
20
-165.721
11
117.058
21
-165.34
0
LINE
8
BLACK
6
CONTINUOUS
10
117.058
20
-165.34
11
117.153
21
-164.864
0
LINE
8
BLACK
6
CONTINUOUS
10
117.153
20
-164.864
11
117.249
21
-164.578
0
LINE
8
BLACK
6
CONTINUOUS
10
117.249
20
-164.578
11
117.344
21
-164.388
0
LINE
8
BLACK
6
CONTINUOUS
10
117.344
20
-164.388
11
117.534
21
-164.102
0
LINE
8
BLACK
6
CONTINUOUS
10
117.534
20
-164.102
11
117.63
21
-164.007
0
LINE
8
BLACK
6
CONTINUOUS
10
118.296
20
-164.483
11
118.392
21
-164.388
0
LINE
8
BLACK
6
CONTINUOUS
10
118.392
20
-164.388
11
118.582
21
-164.293
0
LINE
8
BLACK
6
CONTINUOUS
10
118.582
20
-164.293
11
119.058
21
-164.293
0
LINE
8
BLACK
6
CONTINUOUS
10
119.058
20
-164.293
11
119.249
21
-164.388
0
LINE
8
BLACK
6
CONTINUOUS
10
119.249
20
-164.388
11
119.344
21
-164.483
0
LINE
8
BLACK
6
CONTINUOUS
10
119.344
20
-164.483
11
119.439
21
-164.674
0
LINE
8
BLACK
6
CONTINUOUS
10
119.439
20
-164.674
11
119.439
21
-164.864
0
LINE
8
BLACK
6
CONTINUOUS
10
119.439
20
-164.864
11
119.344
21
-165.15
0
LINE
8
BLACK
6
CONTINUOUS
10
119.344
20
-165.15
11
118.201
21
-166.293
0
LINE
8
BLACK
6
CONTINUOUS
10
118.201
20
-166.293
11
119.439
21
-166.293
0
LINE
8
BLACK
6
CONTINUOUS
10
121.496
20
-166.293
11
121.496
21
-164.293
0
LINE
8
BLACK
6
CONTINUOUS
10
122.353
20
-166.293
11
122.353
21
-165.245
0
LINE
8
BLACK
6
CONTINUOUS
10
122.353
20
-165.245
11
122.258
21
-165.055
0
LINE
8
BLACK
6
CONTINUOUS
10
122.258
20
-165.055
11
122.068
21
-164.959
0
LINE
8
BLACK
6
CONTINUOUS
10
122.068
20
-164.959
11
121.782
21
-164.959
0
LINE
8
BLACK
6
CONTINUOUS
10
121.782
20
-164.959
11
121.592
21
-165.055
0
LINE
8
BLACK
6
CONTINUOUS
10
121.592
20
-165.055
11
121.496
21
-165.15
0
LINE
8
BLACK
6
CONTINUOUS
10
123.592
20
-166.293
11
123.401
21
-166.198
0
LINE
8
BLACK
6
CONTINUOUS
10
123.401
20
-166.198
11
123.306
21
-166.102
0
LINE
8
BLACK
6
CONTINUOUS
10
123.306
20
-166.102
11
123.211
21
-165.912
0
LINE
8
BLACK
6
CONTINUOUS
10
123.211
20
-165.912
11
123.211
21
-165.34
0
LINE
8
BLACK
6
CONTINUOUS
10
123.211
20
-165.34
11
123.306
21
-165.15
0
LINE
8
BLACK
6
CONTINUOUS
10
123.306
20
-165.15
11
123.401
21
-165.055
0
LINE
8
BLACK
6
CONTINUOUS
10
123.401
20
-165.055
11
123.592
21
-164.959
0
LINE
8
BLACK
6
CONTINUOUS
10
123.592
20
-164.959
11
123.877
21
-164.959
0
LINE
8
BLACK
6
CONTINUOUS
10
123.877
20
-164.959
11
124.068
21
-165.055
0
LINE
8
BLACK
6
CONTINUOUS
10
124.068
20
-165.055
11
124.163
21
-165.15
0
LINE
8
BLACK
6
CONTINUOUS
10
124.163
20
-165.15
11
124.258
21
-165.34
0
LINE
8
BLACK
6
CONTINUOUS
10
124.258
20
-165.34
11
124.258
21
-165.912
0
LINE
8
BLACK
6
CONTINUOUS
10
124.258
20
-165.912
11
124.163
21
-166.102
0
LINE
8
BLACK
6
CONTINUOUS
10
124.163
20
-166.102
11
124.068
21
-166.198
0
LINE
8
BLACK
6
CONTINUOUS
10
124.068
20
-166.198
11
123.877
21
-166.293
0
LINE
8
BLACK
6
CONTINUOUS
10
123.877
20
-166.293
11
123.592
21
-166.293
0
LINE
8
BLACK
6
CONTINUOUS
10
125.401
20
-166.293
11
125.211
21
-166.198
0
LINE
8
BLACK
6
CONTINUOUS
10
125.211
20
-166.198
11
125.115
21
-166.007
0
LINE
8
BLACK
6
CONTINUOUS
10
125.115
20
-166.007
11
125.115
21
-164.293
0
LINE
8
BLACK
6
CONTINUOUS
10
126.925
20
-166.198
11
126.734
21
-166.293
0
LINE
8
BLACK
6
CONTINUOUS
10
126.734
20
-166.293
11
126.353
21
-166.293
0
LINE
8
BLACK
6
CONTINUOUS
10
126.353
20
-166.293
11
126.163
21
-166.198
0
LINE
8
BLACK
6
CONTINUOUS
10
126.163
20
-166.198
11
126.068
21
-166.007
0
LINE
8
BLACK
6
CONTINUOUS
10
126.068
20
-166.007
11
126.068
21
-165.245
0
LINE
8
BLACK
6
CONTINUOUS
10
126.068
20
-165.245
11
126.163
21
-165.055
0
LINE
8
BLACK
6
CONTINUOUS
10
126.163
20
-165.055
11
126.353
21
-164.959
0
LINE
8
BLACK
6
CONTINUOUS
10
126.353
20
-164.959
11
126.734
21
-164.959
0
LINE
8
BLACK
6
CONTINUOUS
10
126.734
20
-164.959
11
126.925
21
-165.055
0
LINE
8
BLACK
6
CONTINUOUS
10
126.925
20
-165.055
11
127.02
21
-165.245
0
LINE
8
BLACK
6
CONTINUOUS
10
127.02
20
-165.245
11
127.02
21
-165.436
0
LINE
8
BLACK
6
CONTINUOUS
10
127.02
20
-165.436
11
126.068
21
-165.626
0
LINE
8
BLACK
6
CONTINUOUS
10
127.782
20
-166.198
11
127.972
21
-166.293
0
LINE
8
BLACK
6
CONTINUOUS
10
127.972
20
-166.293
11
128.353
21
-166.293
0
LINE
8
BLACK
6
CONTINUOUS
10
128.353
20
-166.293
11
128.544
21
-166.198
0
LINE
8
BLACK
6
CONTINUOUS
10
128.544
20
-166.198
11
128.639
21
-166.007
0
LINE
8
BLACK
6
CONTINUOUS
10
128.639
20
-166.007
11
128.639
21
-165.912
0
LINE
8
BLACK
6
CONTINUOUS
10
128.639
20
-165.912
11
128.544
21
-165.721
0
LINE
8
BLACK
6
CONTINUOUS
10
128.544
20
-165.721
11
128.353
21
-165.626
0
LINE
8
BLACK
6
CONTINUOUS
10
128.353
20
-165.626
11
128.068
21
-165.626
0
LINE
8
BLACK
6
CONTINUOUS
10
128.068
20
-165.626
11
127.877
21
-165.531
0
LINE
8
BLACK
6
CONTINUOUS
10
127.877
20
-165.531
11
127.782
21
-165.34
0
LINE
8
BLACK
6
CONTINUOUS
10
127.782
20
-165.34
11
127.782
21
-165.245
0
LINE
8
BLACK
6
CONTINUOUS
10
127.782
20
-165.245
11
127.877
21
-165.055
0
LINE
8
BLACK
6
CONTINUOUS
10
127.877
20
-165.055
11
128.068
21
-164.959
0
LINE
8
BLACK
6
CONTINUOUS
10
128.068
20
-164.959
11
128.353
21
-164.959
0
LINE
8
BLACK
6
CONTINUOUS
10
128.353
20
-164.959
11
128.544
21
-165.055
0
LINE
8
BLACK
6
CONTINUOUS
10
129.306
20
-167.055
11
129.401
21
-166.959
0
LINE
8
BLACK
6
CONTINUOUS
10
129.401
20
-166.959
11
129.592
21
-166.674
0
LINE
8
BLACK
6
CONTINUOUS
10
129.592
20
-166.674
11
129.687
21
-166.483
0
LINE
8
BLACK
6
CONTINUOUS
10
129.687
20
-166.483
11
129.782
21
-166.198
0
LINE
8
BLACK
6
CONTINUOUS
10
129.782
20
-166.198
11
129.877
21
-165.721
0
LINE
8
BLACK
6
CONTINUOUS
10
129.877
20
-165.721
11
129.877
21
-165.34
0
LINE
8
BLACK
6
CONTINUOUS
10
129.877
20
-165.34
11
129.782
21
-164.864
0
LINE
8
BLACK
6
CONTINUOUS
10
129.782
20
-164.864
11
129.687
21
-164.578
0
LINE
8
BLACK
6
CONTINUOUS
10
129.687
20
-164.578
11
129.592
21
-164.388
0
LINE
8
BLACK
6
CONTINUOUS
10
129.592
20
-164.388
11
129.401
21
-164.102
0
LINE
8
BLACK
6
CONTINUOUS
10
129.401
20
-164.102
11
129.306
21
-164.007
0
LINE
8
BLACK
6
CONTINUOUS
10
132.601
20
-167.055
11
132.506
21
-166.959
0
LINE
8
BLACK
6
CONTINUOUS
10
132.506
20
-166.959
11
132.315
21
-166.674
0
LINE
8
BLACK
6
CONTINUOUS
10
132.315
20
-166.674
11
132.22
21
-166.483
0
LINE
8
BLACK
6
CONTINUOUS
10
132.22
20
-166.483
11
132.125
21
-166.198
0
LINE
8
BLACK
6
CONTINUOUS
10
132.125
20
-166.198
11
132.03
21
-165.721
0
LINE
8
BLACK
6
CONTINUOUS
10
132.03
20
-165.721
11
132.03
21
-165.34
0
LINE
8
BLACK
6
CONTINUOUS
10
132.03
20
-165.34
11
132.125
21
-164.864
0
LINE
8
BLACK
6
CONTINUOUS
10
132.125
20
-164.864
11
132.22
21
-164.578
0
LINE
8
BLACK
6
CONTINUOUS
10
132.22
20
-164.578
11
132.315
21
-164.388
0
LINE
8
BLACK
6
CONTINUOUS
10
132.315
20
-164.388
11
132.506
21
-164.102
0
LINE
8
BLACK
6
CONTINUOUS
10
132.506
20
-164.102
11
132.601
21
-164.007
0
LINE
8
BLACK
6
CONTINUOUS
10
133.363
20
-164.959
11
133.363
21
-166.293
0
LINE
8
BLACK
6
CONTINUOUS
10
133.363
20
-165.15
11
133.458
21
-165.055
0
LINE
8
BLACK
6
CONTINUOUS
10
133.458
20
-165.055
11
133.649
21
-164.959
0
LINE
8
BLACK
6
CONTINUOUS
10
133.649
20
-164.959
11
133.934
21
-164.959
0
LINE
8
BLACK
6
CONTINUOUS
10
133.934
20
-164.959
11
134.125
21
-165.055
0
LINE
8
BLACK
6
CONTINUOUS
10
134.125
20
-165.055
11
134.22
21
-165.245
0
LINE
8
BLACK
6
CONTINUOUS
10
134.22
20
-165.245
11
134.22
21
-166.293
0
LINE
8
BLACK
6
CONTINUOUS
10
135.458
20
-166.293
11
135.268
21
-166.198
0
LINE
8
BLACK
6
CONTINUOUS
10
135.268
20
-166.198
11
135.172
21
-166.102
0
LINE
8
BLACK
6
CONTINUOUS
10
135.172
20
-166.102
11
135.077
21
-165.912
0
LINE
8
BLACK
6
CONTINUOUS
10
135.077
20
-165.912
11
135.077
21
-165.34
0
LINE
8
BLACK
6
CONTINUOUS
10
135.077
20
-165.34
11
135.172
21
-165.15
0
LINE
8
BLACK
6
CONTINUOUS
10
135.172
20
-165.15
11
135.268
21
-165.055
0
LINE
8
BLACK
6
CONTINUOUS
10
135.268
20
-165.055
11
135.458
21
-164.959
0
LINE
8
BLACK
6
CONTINUOUS
10
135.458
20
-164.959
11
135.744
21
-164.959
0
LINE
8
BLACK
6
CONTINUOUS
10
135.744
20
-164.959
11
135.934
21
-165.055
0
LINE
8
BLACK
6
CONTINUOUS
10
135.934
20
-165.055
11
136.03
21
-165.15
0
LINE
8
BLACK
6
CONTINUOUS
10
136.03
20
-165.15
11
136.125
21
-165.34
0
LINE
8
BLACK
6
CONTINUOUS
10
136.125
20
-165.34
11
136.125
21
-165.912
0
LINE
8
BLACK
6
CONTINUOUS
10
136.125
20
-165.912
11
136.03
21
-166.102
0
LINE
8
BLACK
6
CONTINUOUS
10
136.03
20
-166.102
11
135.934
21
-166.198
0
LINE
8
BLACK
6
CONTINUOUS
10
135.934
20
-166.198
11
135.744
21
-166.293
0
LINE
8
BLACK
6
CONTINUOUS
10
135.744
20
-166.293
11
135.458
21
-166.293
0
LINE
8
BLACK
6
CONTINUOUS
10
136.696
20
-164.959
11
137.458
21
-164.959
0
LINE
8
BLACK
6
CONTINUOUS
10
136.982
20
-164.293
11
136.982
21
-166.007
0
LINE
8
BLACK
6
CONTINUOUS
10
136.982
20
-166.007
11
137.077
21
-166.198
0
LINE
8
BLACK
6
CONTINUOUS
10
137.077
20
-166.198
11
137.268
21
-166.293
0
LINE
8
BLACK
6
CONTINUOUS
10
137.268
20
-166.293
11
137.458
21
-166.293
0
LINE
8
BLACK
6
CONTINUOUS
10
139.325
20
-164.959
11
139.325
21
-166.959
0
LINE
8
BLACK
6
CONTINUOUS
10
139.325
20
-165.055
11
139.515
21
-164.959
0
LINE
8
BLACK
6
CONTINUOUS
10
139.515
20
-164.959
11
139.896
21
-164.959
0
LINE
8
BLACK
6
CONTINUOUS
10
139.896
20
-164.959
11
140.087
21
-165.055
0
LINE
8
BLACK
6
CONTINUOUS
10
140.087
20
-165.055
11
140.182
21
-165.15
0
LINE
8
BLACK
6
CONTINUOUS
10
140.182
20
-165.15
11
140.277
21
-165.34
0
LINE
8
BLACK
6
CONTINUOUS
10
140.277
20
-165.34
11
140.277
21
-165.912
0
LINE
8
BLACK
6
CONTINUOUS
10
140.277
20
-165.912
11
140.182
21
-166.102
0
LINE
8
BLACK
6
CONTINUOUS
10
140.182
20
-166.102
11
140.087
21
-166.198
0
LINE
8
BLACK
6
CONTINUOUS
10
140.087
20
-166.198
11
139.896
21
-166.293
0
LINE
8
BLACK
6
CONTINUOUS
10
139.896
20
-166.293
11
139.515
21
-166.293
0
LINE
8
BLACK
6
CONTINUOUS
10
139.515
20
-166.293
11
139.325
21
-166.198
0
LINE
8
BLACK
6
CONTINUOUS
10
141.42
20
-166.293
11
141.23
21
-166.198
0
LINE
8
BLACK
6
CONTINUOUS
10
141.23
20
-166.198
11
141.134
21
-166.007
0
LINE
8
BLACK
6
CONTINUOUS
10
141.134
20
-166.007
11
141.134
21
-164.293
0
LINE
8
BLACK
6
CONTINUOUS
10
143.039
20
-166.293
11
143.039
21
-165.245
0
LINE
8
BLACK
6
CONTINUOUS
10
143.039
20
-165.245
11
142.944
21
-165.055
0
LINE
8
BLACK
6
CONTINUOUS
10
142.944
20
-165.055
11
142.753
21
-164.959
0
LINE
8
BLACK
6
CONTINUOUS
10
142.753
20
-164.959
11
142.372
21
-164.959
0
LINE
8
BLACK
6
CONTINUOUS
10
142.372
20
-164.959
11
142.182
21
-165.055
0
LINE
8
BLACK
6
CONTINUOUS
10
143.039
20
-166.198
11
142.849
21
-166.293
0
LINE
8
BLACK
6
CONTINUOUS
10
142.849
20
-166.293
11
142.372
21
-166.293
0
LINE
8
BLACK
6
CONTINUOUS
10
142.372
20
-166.293
11
142.182
21
-166.198
0
LINE
8
BLACK
6
CONTINUOUS
10
142.182
20
-166.198
11
142.087
21
-166.007
0
LINE
8
BLACK
6
CONTINUOUS
10
142.087
20
-166.007
11
142.087
21
-165.817
0
LINE
8
BLACK
6
CONTINUOUS
10
142.087
20
-165.817
11
142.182
21
-165.626
0
LINE
8
BLACK
6
CONTINUOUS
10
142.182
20
-165.626
11
142.372
21
-165.531
0
LINE
8
BLACK
6
CONTINUOUS
10
142.372
20
-165.531
11
142.849
21
-165.531
0
LINE
8
BLACK
6
CONTINUOUS
10
142.849
20
-165.531
11
143.039
21
-165.436
0
LINE
8
BLACK
6
CONTINUOUS
10
143.706
20
-164.959
11
144.468
21
-164.959
0
LINE
8
BLACK
6
CONTINUOUS
10
143.992
20
-164.293
11
143.992
21
-166.007
0
LINE
8
BLACK
6
CONTINUOUS
10
143.992
20
-166.007
11
144.087
21
-166.198
0
LINE
8
BLACK
6
CONTINUOUS
10
144.087
20
-166.198
11
144.277
21
-166.293
0
LINE
8
BLACK
6
CONTINUOUS
10
144.277
20
-166.293
11
144.468
21
-166.293
0
LINE
8
BLACK
6
CONTINUOUS
10
145.896
20
-166.198
11
145.706
21
-166.293
0
LINE
8
BLACK
6
CONTINUOUS
10
145.706
20
-166.293
11
145.325
21
-166.293
0
LINE
8
BLACK
6
CONTINUOUS
10
145.325
20
-166.293
11
145.134
21
-166.198
0
LINE
8
BLACK
6
CONTINUOUS
10
145.134
20
-166.198
11
145.039
21
-166.007
0
LINE
8
BLACK
6
CONTINUOUS
10
145.039
20
-166.007
11
145.039
21
-165.245
0
LINE
8
BLACK
6
CONTINUOUS
10
145.039
20
-165.245
11
145.134
21
-165.055
0
LINE
8
BLACK
6
CONTINUOUS
10
145.134
20
-165.055
11
145.325
21
-164.959
0
LINE
8
BLACK
6
CONTINUOUS
10
145.325
20
-164.959
11
145.706
21
-164.959
0
LINE
8
BLACK
6
CONTINUOUS
10
145.706
20
-164.959
11
145.896
21
-165.055
0
LINE
8
BLACK
6
CONTINUOUS
10
145.896
20
-165.055
11
145.992
21
-165.245
0
LINE
8
BLACK
6
CONTINUOUS
10
145.992
20
-165.245
11
145.992
21
-165.436
0
LINE
8
BLACK
6
CONTINUOUS
10
145.992
20
-165.436
11
145.039
21
-165.626
0
LINE
8
BLACK
6
CONTINUOUS
10
147.706
20
-166.293
11
147.706
21
-164.293
0
LINE
8
BLACK
6
CONTINUOUS
10
147.706
20
-166.198
11
147.515
21
-166.293
0
LINE
8
BLACK
6
CONTINUOUS
10
147.515
20
-166.293
11
147.134
21
-166.293
0
LINE
8
BLACK
6
CONTINUOUS
10
147.134
20
-166.293
11
146.944
21
-166.198
0
LINE
8
BLACK
6
CONTINUOUS
10
146.944
20
-166.198
11
146.849
21
-166.102
0
LINE
8
BLACK
6
CONTINUOUS
10
146.849
20
-166.102
11
146.753
21
-165.912
0
LINE
8
BLACK
6
CONTINUOUS
10
146.753
20
-165.912
11
146.753
21
-165.34
0
LINE
8
BLACK
6
CONTINUOUS
10
146.753
20
-165.34
11
146.849
21
-165.15
0
LINE
8
BLACK
6
CONTINUOUS
10
146.849
20
-165.15
11
146.944
21
-165.055
0
LINE
8
BLACK
6
CONTINUOUS
10
146.944
20
-165.055
11
147.134
21
-164.959
0
LINE
8
BLACK
6
CONTINUOUS
10
147.134
20
-164.959
11
147.515
21
-164.959
0
LINE
8
BLACK
6
CONTINUOUS
10
147.515
20
-164.959
11
147.706
21
-165.055
0
LINE
8
BLACK
6
CONTINUOUS
10
148.468
20
-167.055
11
148.563
21
-166.959
0
LINE
8
BLACK
6
CONTINUOUS
10
148.563
20
-166.959
11
148.753
21
-166.674
0
LINE
8
BLACK
6
CONTINUOUS
10
148.753
20
-166.674
11
148.849
21
-166.483
0
LINE
8
BLACK
6
CONTINUOUS
10
148.849
20
-166.483
11
148.944
21
-166.198
0
LINE
8
BLACK
6
CONTINUOUS
10
148.944
20
-166.198
11
149.039
21
-165.721
0
LINE
8
BLACK
6
CONTINUOUS
10
149.039
20
-165.721
11
149.039
21
-165.34
0
LINE
8
BLACK
6
CONTINUOUS
10
149.039
20
-165.34
11
148.944
21
-164.864
0
LINE
8
BLACK
6
CONTINUOUS
10
148.944
20
-164.864
11
148.849
21
-164.578
0
LINE
8
BLACK
6
CONTINUOUS
10
148.849
20
-164.578
11
148.753
21
-164.388
0
LINE
8
BLACK
6
CONTINUOUS
10
148.753
20
-164.388
11
148.563
21
-164.102
0
LINE
8
BLACK
6
CONTINUOUS
10
148.563
20
-164.102
11
148.468
21
-164.007
  0
ENDSEC
  0
EOF
