G04 #@! TF.GenerationSoftware,KiCad,Pcbnew,(7.0.0-0)*
G04 #@! TF.CreationDate,2023-06-06T22:29:37+02:00*
G04 #@! TF.ProjectId,ithowifi_4l,6974686f-7769-4666-995f-346c2e6b6963,rev?*
G04 #@! TF.SameCoordinates,Original*
G04 #@! TF.FileFunction,Legend,Bot*
G04 #@! TF.FilePolarity,Positive*
%FSLAX46Y46*%
G04 Gerber Fmt 4.6, Leading zero omitted, Abs format (unit mm)*
G04 Created by KiCad (PCBNEW (7.0.0-0)) date 2023-06-06 22:29:37*
%MOMM*%
%LPD*%
G01*
G04 APERTURE LIST*
%ADD10C,0.100000*%
%ADD11C,0.200000*%
%ADD12C,0.150000*%
%ADD13C,0.120000*%
G04 APERTURE END LIST*
D10*
G36*
X114808000Y-129997200D02*
G01*
X97561400Y-129997200D01*
X97536000Y-113030000D01*
X114808000Y-113030000D01*
X114808000Y-129997200D01*
G37*
X114808000Y-129997200D02*
X97561400Y-129997200D01*
X97536000Y-113030000D01*
X114808000Y-113030000D01*
X114808000Y-129997200D01*
D11*
X86831236Y-126961869D02*
X85585236Y-126961869D01*
X86000570Y-127377202D02*
X86000570Y-127851869D01*
X85585236Y-127555202D02*
X86653236Y-127555202D01*
X86653236Y-127555202D02*
X86771903Y-127614536D01*
X86771903Y-127614536D02*
X86831236Y-127733202D01*
X86831236Y-127733202D02*
X86831236Y-127851869D01*
X86831236Y-128267202D02*
X85585236Y-128267202D01*
X86831236Y-128801202D02*
X86178570Y-128801202D01*
X86178570Y-128801202D02*
X86059903Y-128741869D01*
X86059903Y-128741869D02*
X86000570Y-128623202D01*
X86000570Y-128623202D02*
X86000570Y-128445202D01*
X86000570Y-128445202D02*
X86059903Y-128326536D01*
X86059903Y-128326536D02*
X86119236Y-128267202D01*
X86831236Y-129572535D02*
X86771903Y-129453869D01*
X86771903Y-129453869D02*
X86712570Y-129394535D01*
X86712570Y-129394535D02*
X86593903Y-129335202D01*
X86593903Y-129335202D02*
X86237903Y-129335202D01*
X86237903Y-129335202D02*
X86119236Y-129394535D01*
X86119236Y-129394535D02*
X86059903Y-129453869D01*
X86059903Y-129453869D02*
X86000570Y-129572535D01*
X86000570Y-129572535D02*
X86000570Y-129750535D01*
X86000570Y-129750535D02*
X86059903Y-129869202D01*
X86059903Y-129869202D02*
X86119236Y-129928535D01*
X86119236Y-129928535D02*
X86237903Y-129987869D01*
X86237903Y-129987869D02*
X86593903Y-129987869D01*
X86593903Y-129987869D02*
X86712570Y-129928535D01*
X86712570Y-129928535D02*
X86771903Y-129869202D01*
X86771903Y-129869202D02*
X86831236Y-129750535D01*
X86831236Y-129750535D02*
X86831236Y-129572535D01*
X86712570Y-131981468D02*
X86771903Y-131922135D01*
X86771903Y-131922135D02*
X86831236Y-131744135D01*
X86831236Y-131744135D02*
X86831236Y-131625468D01*
X86831236Y-131625468D02*
X86771903Y-131447468D01*
X86771903Y-131447468D02*
X86653236Y-131328802D01*
X86653236Y-131328802D02*
X86534570Y-131269468D01*
X86534570Y-131269468D02*
X86297236Y-131210135D01*
X86297236Y-131210135D02*
X86119236Y-131210135D01*
X86119236Y-131210135D02*
X85881903Y-131269468D01*
X85881903Y-131269468D02*
X85763236Y-131328802D01*
X85763236Y-131328802D02*
X85644570Y-131447468D01*
X85644570Y-131447468D02*
X85585236Y-131625468D01*
X85585236Y-131625468D02*
X85585236Y-131744135D01*
X85585236Y-131744135D02*
X85644570Y-131922135D01*
X85644570Y-131922135D02*
X85703903Y-131981468D01*
X85585236Y-132337468D02*
X86831236Y-132752802D01*
X86831236Y-132752802D02*
X85585236Y-133168135D01*
X86178570Y-133583468D02*
X86178570Y-133998802D01*
X86831236Y-134176802D02*
X86831236Y-133583468D01*
X86831236Y-133583468D02*
X85585236Y-133583468D01*
X85585236Y-133583468D02*
X85585236Y-134176802D01*
X85585236Y-135339735D02*
X86831236Y-135636401D01*
X86831236Y-135636401D02*
X85941236Y-135873735D01*
X85941236Y-135873735D02*
X86831236Y-136111068D01*
X86831236Y-136111068D02*
X85585236Y-136407735D01*
X86831236Y-136882401D02*
X86000570Y-136882401D01*
X85585236Y-136882401D02*
X85644570Y-136823068D01*
X85644570Y-136823068D02*
X85703903Y-136882401D01*
X85703903Y-136882401D02*
X85644570Y-136941735D01*
X85644570Y-136941735D02*
X85585236Y-136882401D01*
X85585236Y-136882401D02*
X85703903Y-136882401D01*
X86178570Y-137891068D02*
X86178570Y-137475734D01*
X86831236Y-137475734D02*
X85585236Y-137475734D01*
X85585236Y-137475734D02*
X85585236Y-138069068D01*
X86831236Y-138543734D02*
X86000570Y-138543734D01*
X85585236Y-138543734D02*
X85644570Y-138484401D01*
X85644570Y-138484401D02*
X85703903Y-138543734D01*
X85703903Y-138543734D02*
X85644570Y-138603068D01*
X85644570Y-138603068D02*
X85585236Y-138543734D01*
X85585236Y-138543734D02*
X85703903Y-138543734D01*
X86712570Y-140596667D02*
X86771903Y-140537334D01*
X86771903Y-140537334D02*
X86831236Y-140359334D01*
X86831236Y-140359334D02*
X86831236Y-140240667D01*
X86831236Y-140240667D02*
X86771903Y-140062667D01*
X86771903Y-140062667D02*
X86653236Y-139944001D01*
X86653236Y-139944001D02*
X86534570Y-139884667D01*
X86534570Y-139884667D02*
X86297236Y-139825334D01*
X86297236Y-139825334D02*
X86119236Y-139825334D01*
X86119236Y-139825334D02*
X85881903Y-139884667D01*
X85881903Y-139884667D02*
X85763236Y-139944001D01*
X85763236Y-139944001D02*
X85644570Y-140062667D01*
X85644570Y-140062667D02*
X85585236Y-140240667D01*
X85585236Y-140240667D02*
X85585236Y-140359334D01*
X85585236Y-140359334D02*
X85644570Y-140537334D01*
X85644570Y-140537334D02*
X85703903Y-140596667D01*
X86831236Y-141308667D02*
X86771903Y-141190001D01*
X86771903Y-141190001D02*
X86712570Y-141130667D01*
X86712570Y-141130667D02*
X86593903Y-141071334D01*
X86593903Y-141071334D02*
X86237903Y-141071334D01*
X86237903Y-141071334D02*
X86119236Y-141130667D01*
X86119236Y-141130667D02*
X86059903Y-141190001D01*
X86059903Y-141190001D02*
X86000570Y-141308667D01*
X86000570Y-141308667D02*
X86000570Y-141486667D01*
X86000570Y-141486667D02*
X86059903Y-141605334D01*
X86059903Y-141605334D02*
X86119236Y-141664667D01*
X86119236Y-141664667D02*
X86237903Y-141724001D01*
X86237903Y-141724001D02*
X86593903Y-141724001D01*
X86593903Y-141724001D02*
X86712570Y-141664667D01*
X86712570Y-141664667D02*
X86771903Y-141605334D01*
X86771903Y-141605334D02*
X86831236Y-141486667D01*
X86831236Y-141486667D02*
X86831236Y-141308667D01*
X86000570Y-142258000D02*
X86831236Y-142258000D01*
X86119236Y-142258000D02*
X86059903Y-142317334D01*
X86059903Y-142317334D02*
X86000570Y-142436000D01*
X86000570Y-142436000D02*
X86000570Y-142614000D01*
X86000570Y-142614000D02*
X86059903Y-142732667D01*
X86059903Y-142732667D02*
X86178570Y-142792000D01*
X86178570Y-142792000D02*
X86831236Y-142792000D01*
X86000570Y-143207333D02*
X86000570Y-143682000D01*
X85585236Y-143385333D02*
X86653236Y-143385333D01*
X86653236Y-143385333D02*
X86771903Y-143444667D01*
X86771903Y-143444667D02*
X86831236Y-143563333D01*
X86831236Y-143563333D02*
X86831236Y-143682000D01*
X86831236Y-144097333D02*
X86000570Y-144097333D01*
X86237903Y-144097333D02*
X86119236Y-144156667D01*
X86119236Y-144156667D02*
X86059903Y-144216000D01*
X86059903Y-144216000D02*
X86000570Y-144334667D01*
X86000570Y-144334667D02*
X86000570Y-144453333D01*
X86831236Y-145046666D02*
X86771903Y-144928000D01*
X86771903Y-144928000D02*
X86712570Y-144868666D01*
X86712570Y-144868666D02*
X86593903Y-144809333D01*
X86593903Y-144809333D02*
X86237903Y-144809333D01*
X86237903Y-144809333D02*
X86119236Y-144868666D01*
X86119236Y-144868666D02*
X86059903Y-144928000D01*
X86059903Y-144928000D02*
X86000570Y-145046666D01*
X86000570Y-145046666D02*
X86000570Y-145224666D01*
X86000570Y-145224666D02*
X86059903Y-145343333D01*
X86059903Y-145343333D02*
X86119236Y-145402666D01*
X86119236Y-145402666D02*
X86237903Y-145462000D01*
X86237903Y-145462000D02*
X86593903Y-145462000D01*
X86593903Y-145462000D02*
X86712570Y-145402666D01*
X86712570Y-145402666D02*
X86771903Y-145343333D01*
X86771903Y-145343333D02*
X86831236Y-145224666D01*
X86831236Y-145224666D02*
X86831236Y-145046666D01*
X86831236Y-146173999D02*
X86771903Y-146055333D01*
X86771903Y-146055333D02*
X86653236Y-145995999D01*
X86653236Y-145995999D02*
X85585236Y-145995999D01*
X86831236Y-146826666D02*
X86771903Y-146708000D01*
X86771903Y-146708000D02*
X86653236Y-146648666D01*
X86653236Y-146648666D02*
X85585236Y-146648666D01*
X86771903Y-147776000D02*
X86831236Y-147657333D01*
X86831236Y-147657333D02*
X86831236Y-147420000D01*
X86831236Y-147420000D02*
X86771903Y-147301333D01*
X86771903Y-147301333D02*
X86653236Y-147242000D01*
X86653236Y-147242000D02*
X86178570Y-147242000D01*
X86178570Y-147242000D02*
X86059903Y-147301333D01*
X86059903Y-147301333D02*
X86000570Y-147420000D01*
X86000570Y-147420000D02*
X86000570Y-147657333D01*
X86000570Y-147657333D02*
X86059903Y-147776000D01*
X86059903Y-147776000D02*
X86178570Y-147835333D01*
X86178570Y-147835333D02*
X86297236Y-147835333D01*
X86297236Y-147835333D02*
X86415903Y-147242000D01*
X86831236Y-148369333D02*
X86000570Y-148369333D01*
X86237903Y-148369333D02*
X86119236Y-148428667D01*
X86119236Y-148428667D02*
X86059903Y-148488000D01*
X86059903Y-148488000D02*
X86000570Y-148606667D01*
X86000570Y-148606667D02*
X86000570Y-148725333D01*
X88493756Y-120601335D02*
X88493756Y-121194668D01*
X88849756Y-120482668D02*
X87603756Y-120898002D01*
X87603756Y-120898002D02*
X88849756Y-121313335D01*
X88849756Y-121728668D02*
X88019090Y-121728668D01*
X88256423Y-121728668D02*
X88137756Y-121788002D01*
X88137756Y-121788002D02*
X88078423Y-121847335D01*
X88078423Y-121847335D02*
X88019090Y-121966002D01*
X88019090Y-121966002D02*
X88019090Y-122084668D01*
X88019090Y-122500001D02*
X89087090Y-122500001D01*
X89087090Y-122500001D02*
X89205756Y-122440668D01*
X89205756Y-122440668D02*
X89265090Y-122322001D01*
X89265090Y-122322001D02*
X89265090Y-122262668D01*
X87603756Y-122500001D02*
X87663090Y-122440668D01*
X87663090Y-122440668D02*
X87722423Y-122500001D01*
X87722423Y-122500001D02*
X87663090Y-122559335D01*
X87663090Y-122559335D02*
X87603756Y-122500001D01*
X87603756Y-122500001D02*
X87722423Y-122500001D01*
X88790423Y-123568001D02*
X88849756Y-123449334D01*
X88849756Y-123449334D02*
X88849756Y-123212001D01*
X88849756Y-123212001D02*
X88790423Y-123093334D01*
X88790423Y-123093334D02*
X88671756Y-123034001D01*
X88671756Y-123034001D02*
X88197090Y-123034001D01*
X88197090Y-123034001D02*
X88078423Y-123093334D01*
X88078423Y-123093334D02*
X88019090Y-123212001D01*
X88019090Y-123212001D02*
X88019090Y-123449334D01*
X88019090Y-123449334D02*
X88078423Y-123568001D01*
X88078423Y-123568001D02*
X88197090Y-123627334D01*
X88197090Y-123627334D02*
X88315756Y-123627334D01*
X88315756Y-123627334D02*
X88434423Y-123034001D01*
X88019090Y-124161334D02*
X88849756Y-124161334D01*
X88137756Y-124161334D02*
X88078423Y-124220668D01*
X88078423Y-124220668D02*
X88019090Y-124339334D01*
X88019090Y-124339334D02*
X88019090Y-124517334D01*
X88019090Y-124517334D02*
X88078423Y-124636001D01*
X88078423Y-124636001D02*
X88197090Y-124695334D01*
X88197090Y-124695334D02*
X88849756Y-124695334D01*
X88849756Y-126036267D02*
X87603756Y-126036267D01*
X88197090Y-126036267D02*
X88197090Y-126748267D01*
X88849756Y-126748267D02*
X87603756Y-126748267D01*
X88849756Y-127341600D02*
X88019090Y-127341600D01*
X87603756Y-127341600D02*
X87663090Y-127282267D01*
X87663090Y-127282267D02*
X87722423Y-127341600D01*
X87722423Y-127341600D02*
X87663090Y-127400934D01*
X87663090Y-127400934D02*
X87603756Y-127341600D01*
X87603756Y-127341600D02*
X87722423Y-127341600D01*
X88790423Y-128409600D02*
X88849756Y-128290933D01*
X88849756Y-128290933D02*
X88849756Y-128053600D01*
X88849756Y-128053600D02*
X88790423Y-127934933D01*
X88790423Y-127934933D02*
X88671756Y-127875600D01*
X88671756Y-127875600D02*
X88197090Y-127875600D01*
X88197090Y-127875600D02*
X88078423Y-127934933D01*
X88078423Y-127934933D02*
X88019090Y-128053600D01*
X88019090Y-128053600D02*
X88019090Y-128290933D01*
X88019090Y-128290933D02*
X88078423Y-128409600D01*
X88078423Y-128409600D02*
X88197090Y-128468933D01*
X88197090Y-128468933D02*
X88315756Y-128468933D01*
X88315756Y-128468933D02*
X88434423Y-127875600D01*
X88849756Y-129002933D02*
X88019090Y-129002933D01*
X88137756Y-129002933D02*
X88078423Y-129062267D01*
X88078423Y-129062267D02*
X88019090Y-129180933D01*
X88019090Y-129180933D02*
X88019090Y-129358933D01*
X88019090Y-129358933D02*
X88078423Y-129477600D01*
X88078423Y-129477600D02*
X88197090Y-129536933D01*
X88197090Y-129536933D02*
X88849756Y-129536933D01*
X88197090Y-129536933D02*
X88078423Y-129596267D01*
X88078423Y-129596267D02*
X88019090Y-129714933D01*
X88019090Y-129714933D02*
X88019090Y-129892933D01*
X88019090Y-129892933D02*
X88078423Y-130011600D01*
X88078423Y-130011600D02*
X88197090Y-130070933D01*
X88197090Y-130070933D02*
X88849756Y-130070933D01*
X88790423Y-130604933D02*
X88849756Y-130723600D01*
X88849756Y-130723600D02*
X88849756Y-130960933D01*
X88849756Y-130960933D02*
X88790423Y-131079600D01*
X88790423Y-131079600D02*
X88671756Y-131138933D01*
X88671756Y-131138933D02*
X88612423Y-131138933D01*
X88612423Y-131138933D02*
X88493756Y-131079600D01*
X88493756Y-131079600D02*
X88434423Y-130960933D01*
X88434423Y-130960933D02*
X88434423Y-130782933D01*
X88434423Y-130782933D02*
X88375090Y-130664266D01*
X88375090Y-130664266D02*
X88256423Y-130604933D01*
X88256423Y-130604933D02*
X88197090Y-130604933D01*
X88197090Y-130604933D02*
X88078423Y-130664266D01*
X88078423Y-130664266D02*
X88019090Y-130782933D01*
X88019090Y-130782933D02*
X88019090Y-130960933D01*
X88019090Y-130960933D02*
X88078423Y-131079600D01*
X88019090Y-131494933D02*
X88019090Y-131969600D01*
X87603756Y-131672933D02*
X88671756Y-131672933D01*
X88671756Y-131672933D02*
X88790423Y-131732267D01*
X88790423Y-131732267D02*
X88849756Y-131850933D01*
X88849756Y-131850933D02*
X88849756Y-131969600D01*
X88849756Y-132384933D02*
X88019090Y-132384933D01*
X88256423Y-132384933D02*
X88137756Y-132444267D01*
X88137756Y-132444267D02*
X88078423Y-132503600D01*
X88078423Y-132503600D02*
X88019090Y-132622267D01*
X88019090Y-132622267D02*
X88019090Y-132740933D01*
X88849756Y-133690266D02*
X88197090Y-133690266D01*
X88197090Y-133690266D02*
X88078423Y-133630933D01*
X88078423Y-133630933D02*
X88019090Y-133512266D01*
X88019090Y-133512266D02*
X88019090Y-133274933D01*
X88019090Y-133274933D02*
X88078423Y-133156266D01*
X88790423Y-133690266D02*
X88849756Y-133571600D01*
X88849756Y-133571600D02*
X88849756Y-133274933D01*
X88849756Y-133274933D02*
X88790423Y-133156266D01*
X88790423Y-133156266D02*
X88671756Y-133096933D01*
X88671756Y-133096933D02*
X88553090Y-133096933D01*
X88553090Y-133096933D02*
X88434423Y-133156266D01*
X88434423Y-133156266D02*
X88375090Y-133274933D01*
X88375090Y-133274933D02*
X88375090Y-133571600D01*
X88375090Y-133571600D02*
X88315756Y-133690266D01*
X88375090Y-135031199D02*
X88375090Y-135980533D01*
X87663090Y-137974133D02*
X87603756Y-137855466D01*
X87603756Y-137855466D02*
X87603756Y-137677466D01*
X87603756Y-137677466D02*
X87663090Y-137499466D01*
X87663090Y-137499466D02*
X87781756Y-137380800D01*
X87781756Y-137380800D02*
X87900423Y-137321466D01*
X87900423Y-137321466D02*
X88137756Y-137262133D01*
X88137756Y-137262133D02*
X88315756Y-137262133D01*
X88315756Y-137262133D02*
X88553090Y-137321466D01*
X88553090Y-137321466D02*
X88671756Y-137380800D01*
X88671756Y-137380800D02*
X88790423Y-137499466D01*
X88790423Y-137499466D02*
X88849756Y-137677466D01*
X88849756Y-137677466D02*
X88849756Y-137796133D01*
X88849756Y-137796133D02*
X88790423Y-137974133D01*
X88790423Y-137974133D02*
X88731090Y-138033466D01*
X88731090Y-138033466D02*
X88315756Y-138033466D01*
X88315756Y-138033466D02*
X88315756Y-137796133D01*
X88849756Y-138567466D02*
X87603756Y-138567466D01*
X87603756Y-138567466D02*
X88849756Y-139279466D01*
X88849756Y-139279466D02*
X87603756Y-139279466D01*
X87603756Y-139872799D02*
X88612423Y-139872799D01*
X88612423Y-139872799D02*
X88731090Y-139932133D01*
X88731090Y-139932133D02*
X88790423Y-139991466D01*
X88790423Y-139991466D02*
X88849756Y-140110133D01*
X88849756Y-140110133D02*
X88849756Y-140347466D01*
X88849756Y-140347466D02*
X88790423Y-140466133D01*
X88790423Y-140466133D02*
X88731090Y-140525466D01*
X88731090Y-140525466D02*
X88612423Y-140584799D01*
X88612423Y-140584799D02*
X87603756Y-140584799D01*
X87663090Y-142578399D02*
X87603756Y-142459732D01*
X87603756Y-142459732D02*
X87603756Y-142281732D01*
X87603756Y-142281732D02*
X87663090Y-142103732D01*
X87663090Y-142103732D02*
X87781756Y-141985066D01*
X87781756Y-141985066D02*
X87900423Y-141925732D01*
X87900423Y-141925732D02*
X88137756Y-141866399D01*
X88137756Y-141866399D02*
X88315756Y-141866399D01*
X88315756Y-141866399D02*
X88553090Y-141925732D01*
X88553090Y-141925732D02*
X88671756Y-141985066D01*
X88671756Y-141985066D02*
X88790423Y-142103732D01*
X88790423Y-142103732D02*
X88849756Y-142281732D01*
X88849756Y-142281732D02*
X88849756Y-142400399D01*
X88849756Y-142400399D02*
X88790423Y-142578399D01*
X88790423Y-142578399D02*
X88731090Y-142637732D01*
X88731090Y-142637732D02*
X88315756Y-142637732D01*
X88315756Y-142637732D02*
X88315756Y-142400399D01*
X88849756Y-143171732D02*
X87603756Y-143171732D01*
X87603756Y-143171732D02*
X87603756Y-143646399D01*
X87603756Y-143646399D02*
X87663090Y-143765066D01*
X87663090Y-143765066D02*
X87722423Y-143824399D01*
X87722423Y-143824399D02*
X87841090Y-143883732D01*
X87841090Y-143883732D02*
X88019090Y-143883732D01*
X88019090Y-143883732D02*
X88137756Y-143824399D01*
X88137756Y-143824399D02*
X88197090Y-143765066D01*
X88197090Y-143765066D02*
X88256423Y-143646399D01*
X88256423Y-143646399D02*
X88256423Y-143171732D01*
X88849756Y-145011066D02*
X88849756Y-144417732D01*
X88849756Y-144417732D02*
X87603756Y-144417732D01*
X87603756Y-146055333D02*
X87603756Y-146826666D01*
X87603756Y-146826666D02*
X88078423Y-146411333D01*
X88078423Y-146411333D02*
X88078423Y-146589333D01*
X88078423Y-146589333D02*
X88137756Y-146707999D01*
X88137756Y-146707999D02*
X88197090Y-146767333D01*
X88197090Y-146767333D02*
X88315756Y-146826666D01*
X88315756Y-146826666D02*
X88612423Y-146826666D01*
X88612423Y-146826666D02*
X88731090Y-146767333D01*
X88731090Y-146767333D02*
X88790423Y-146707999D01*
X88790423Y-146707999D02*
X88849756Y-146589333D01*
X88849756Y-146589333D02*
X88849756Y-146233333D01*
X88849756Y-146233333D02*
X88790423Y-146114666D01*
X88790423Y-146114666D02*
X88731090Y-146055333D01*
X88731090Y-147360666D02*
X88790423Y-147420000D01*
X88790423Y-147420000D02*
X88849756Y-147360666D01*
X88849756Y-147360666D02*
X88790423Y-147301333D01*
X88790423Y-147301333D02*
X88731090Y-147360666D01*
X88731090Y-147360666D02*
X88849756Y-147360666D01*
X87603756Y-148191333D02*
X87603756Y-148309999D01*
X87603756Y-148309999D02*
X87663090Y-148428666D01*
X87663090Y-148428666D02*
X87722423Y-148487999D01*
X87722423Y-148487999D02*
X87841090Y-148547333D01*
X87841090Y-148547333D02*
X88078423Y-148606666D01*
X88078423Y-148606666D02*
X88375090Y-148606666D01*
X88375090Y-148606666D02*
X88612423Y-148547333D01*
X88612423Y-148547333D02*
X88731090Y-148487999D01*
X88731090Y-148487999D02*
X88790423Y-148428666D01*
X88790423Y-148428666D02*
X88849756Y-148309999D01*
X88849756Y-148309999D02*
X88849756Y-148191333D01*
X88849756Y-148191333D02*
X88790423Y-148072666D01*
X88790423Y-148072666D02*
X88731090Y-148013333D01*
X88731090Y-148013333D02*
X88612423Y-147953999D01*
X88612423Y-147953999D02*
X88375090Y-147894666D01*
X88375090Y-147894666D02*
X88078423Y-147894666D01*
X88078423Y-147894666D02*
X87841090Y-147953999D01*
X87841090Y-147953999D02*
X87722423Y-148013333D01*
X87722423Y-148013333D02*
X87663090Y-148072666D01*
X87663090Y-148072666D02*
X87603756Y-148191333D01*
X90868276Y-108853342D02*
X89622276Y-108853342D01*
X90868276Y-109387342D02*
X90215610Y-109387342D01*
X90215610Y-109387342D02*
X90096943Y-109328009D01*
X90096943Y-109328009D02*
X90037610Y-109209342D01*
X90037610Y-109209342D02*
X90037610Y-109031342D01*
X90037610Y-109031342D02*
X90096943Y-108912676D01*
X90096943Y-108912676D02*
X90156276Y-108853342D01*
X90037610Y-109802675D02*
X90037610Y-110277342D01*
X89622276Y-109980675D02*
X90690276Y-109980675D01*
X90690276Y-109980675D02*
X90808943Y-110040009D01*
X90808943Y-110040009D02*
X90868276Y-110158675D01*
X90868276Y-110158675D02*
X90868276Y-110277342D01*
X90037610Y-110514675D02*
X90037610Y-110989342D01*
X89622276Y-110692675D02*
X90690276Y-110692675D01*
X90690276Y-110692675D02*
X90808943Y-110752009D01*
X90808943Y-110752009D02*
X90868276Y-110870675D01*
X90868276Y-110870675D02*
X90868276Y-110989342D01*
X90037610Y-111404675D02*
X91283610Y-111404675D01*
X90096943Y-111404675D02*
X90037610Y-111523342D01*
X90037610Y-111523342D02*
X90037610Y-111760675D01*
X90037610Y-111760675D02*
X90096943Y-111879342D01*
X90096943Y-111879342D02*
X90156276Y-111938675D01*
X90156276Y-111938675D02*
X90274943Y-111998009D01*
X90274943Y-111998009D02*
X90630943Y-111998009D01*
X90630943Y-111998009D02*
X90749610Y-111938675D01*
X90749610Y-111938675D02*
X90808943Y-111879342D01*
X90808943Y-111879342D02*
X90868276Y-111760675D01*
X90868276Y-111760675D02*
X90868276Y-111523342D01*
X90868276Y-111523342D02*
X90808943Y-111404675D01*
X90808943Y-112472675D02*
X90868276Y-112591342D01*
X90868276Y-112591342D02*
X90868276Y-112828675D01*
X90868276Y-112828675D02*
X90808943Y-112947342D01*
X90808943Y-112947342D02*
X90690276Y-113006675D01*
X90690276Y-113006675D02*
X90630943Y-113006675D01*
X90630943Y-113006675D02*
X90512276Y-112947342D01*
X90512276Y-112947342D02*
X90452943Y-112828675D01*
X90452943Y-112828675D02*
X90452943Y-112650675D01*
X90452943Y-112650675D02*
X90393610Y-112532008D01*
X90393610Y-112532008D02*
X90274943Y-112472675D01*
X90274943Y-112472675D02*
X90215610Y-112472675D01*
X90215610Y-112472675D02*
X90096943Y-112532008D01*
X90096943Y-112532008D02*
X90037610Y-112650675D01*
X90037610Y-112650675D02*
X90037610Y-112828675D01*
X90037610Y-112828675D02*
X90096943Y-112947342D01*
X90749610Y-113540675D02*
X90808943Y-113600009D01*
X90808943Y-113600009D02*
X90868276Y-113540675D01*
X90868276Y-113540675D02*
X90808943Y-113481342D01*
X90808943Y-113481342D02*
X90749610Y-113540675D01*
X90749610Y-113540675D02*
X90868276Y-113540675D01*
X90096943Y-113540675D02*
X90156276Y-113600009D01*
X90156276Y-113600009D02*
X90215610Y-113540675D01*
X90215610Y-113540675D02*
X90156276Y-113481342D01*
X90156276Y-113481342D02*
X90096943Y-113540675D01*
X90096943Y-113540675D02*
X90215610Y-113540675D01*
X89562943Y-115024008D02*
X91164943Y-113956008D01*
X89562943Y-116329341D02*
X91164943Y-115261341D01*
X90037610Y-117278674D02*
X91046276Y-117278674D01*
X91046276Y-117278674D02*
X91164943Y-117219341D01*
X91164943Y-117219341D02*
X91224276Y-117160008D01*
X91224276Y-117160008D02*
X91283610Y-117041341D01*
X91283610Y-117041341D02*
X91283610Y-116863341D01*
X91283610Y-116863341D02*
X91224276Y-116744674D01*
X90808943Y-117278674D02*
X90868276Y-117160008D01*
X90868276Y-117160008D02*
X90868276Y-116922674D01*
X90868276Y-116922674D02*
X90808943Y-116804008D01*
X90808943Y-116804008D02*
X90749610Y-116744674D01*
X90749610Y-116744674D02*
X90630943Y-116685341D01*
X90630943Y-116685341D02*
X90274943Y-116685341D01*
X90274943Y-116685341D02*
X90156276Y-116744674D01*
X90156276Y-116744674D02*
X90096943Y-116804008D01*
X90096943Y-116804008D02*
X90037610Y-116922674D01*
X90037610Y-116922674D02*
X90037610Y-117160008D01*
X90037610Y-117160008D02*
X90096943Y-117278674D01*
X90868276Y-117872007D02*
X90037610Y-117872007D01*
X89622276Y-117872007D02*
X89681610Y-117812674D01*
X89681610Y-117812674D02*
X89740943Y-117872007D01*
X89740943Y-117872007D02*
X89681610Y-117931341D01*
X89681610Y-117931341D02*
X89622276Y-117872007D01*
X89622276Y-117872007D02*
X89740943Y-117872007D01*
X90037610Y-118287340D02*
X90037610Y-118762007D01*
X89622276Y-118465340D02*
X90690276Y-118465340D01*
X90690276Y-118465340D02*
X90808943Y-118524674D01*
X90808943Y-118524674D02*
X90868276Y-118643340D01*
X90868276Y-118643340D02*
X90868276Y-118762007D01*
X90868276Y-119177340D02*
X89622276Y-119177340D01*
X90868276Y-119711340D02*
X90215610Y-119711340D01*
X90215610Y-119711340D02*
X90096943Y-119652007D01*
X90096943Y-119652007D02*
X90037610Y-119533340D01*
X90037610Y-119533340D02*
X90037610Y-119355340D01*
X90037610Y-119355340D02*
X90096943Y-119236674D01*
X90096943Y-119236674D02*
X90156276Y-119177340D01*
X90037610Y-120838673D02*
X90868276Y-120838673D01*
X90037610Y-120304673D02*
X90690276Y-120304673D01*
X90690276Y-120304673D02*
X90808943Y-120364007D01*
X90808943Y-120364007D02*
X90868276Y-120482673D01*
X90868276Y-120482673D02*
X90868276Y-120660673D01*
X90868276Y-120660673D02*
X90808943Y-120779340D01*
X90808943Y-120779340D02*
X90749610Y-120838673D01*
X90868276Y-121432006D02*
X89622276Y-121432006D01*
X90096943Y-121432006D02*
X90037610Y-121550673D01*
X90037610Y-121550673D02*
X90037610Y-121788006D01*
X90037610Y-121788006D02*
X90096943Y-121906673D01*
X90096943Y-121906673D02*
X90156276Y-121966006D01*
X90156276Y-121966006D02*
X90274943Y-122025340D01*
X90274943Y-122025340D02*
X90630943Y-122025340D01*
X90630943Y-122025340D02*
X90749610Y-121966006D01*
X90749610Y-121966006D02*
X90808943Y-121906673D01*
X90808943Y-121906673D02*
X90868276Y-121788006D01*
X90868276Y-121788006D02*
X90868276Y-121550673D01*
X90868276Y-121550673D02*
X90808943Y-121432006D01*
X90749610Y-122559339D02*
X90808943Y-122618673D01*
X90808943Y-122618673D02*
X90868276Y-122559339D01*
X90868276Y-122559339D02*
X90808943Y-122500006D01*
X90808943Y-122500006D02*
X90749610Y-122559339D01*
X90749610Y-122559339D02*
X90868276Y-122559339D01*
X90808943Y-123686672D02*
X90868276Y-123568006D01*
X90868276Y-123568006D02*
X90868276Y-123330672D01*
X90868276Y-123330672D02*
X90808943Y-123212006D01*
X90808943Y-123212006D02*
X90749610Y-123152672D01*
X90749610Y-123152672D02*
X90630943Y-123093339D01*
X90630943Y-123093339D02*
X90274943Y-123093339D01*
X90274943Y-123093339D02*
X90156276Y-123152672D01*
X90156276Y-123152672D02*
X90096943Y-123212006D01*
X90096943Y-123212006D02*
X90037610Y-123330672D01*
X90037610Y-123330672D02*
X90037610Y-123568006D01*
X90037610Y-123568006D02*
X90096943Y-123686672D01*
X90868276Y-124398672D02*
X90808943Y-124280006D01*
X90808943Y-124280006D02*
X90749610Y-124220672D01*
X90749610Y-124220672D02*
X90630943Y-124161339D01*
X90630943Y-124161339D02*
X90274943Y-124161339D01*
X90274943Y-124161339D02*
X90156276Y-124220672D01*
X90156276Y-124220672D02*
X90096943Y-124280006D01*
X90096943Y-124280006D02*
X90037610Y-124398672D01*
X90037610Y-124398672D02*
X90037610Y-124576672D01*
X90037610Y-124576672D02*
X90096943Y-124695339D01*
X90096943Y-124695339D02*
X90156276Y-124754672D01*
X90156276Y-124754672D02*
X90274943Y-124814006D01*
X90274943Y-124814006D02*
X90630943Y-124814006D01*
X90630943Y-124814006D02*
X90749610Y-124754672D01*
X90749610Y-124754672D02*
X90808943Y-124695339D01*
X90808943Y-124695339D02*
X90868276Y-124576672D01*
X90868276Y-124576672D02*
X90868276Y-124398672D01*
X90868276Y-125348005D02*
X90037610Y-125348005D01*
X90156276Y-125348005D02*
X90096943Y-125407339D01*
X90096943Y-125407339D02*
X90037610Y-125526005D01*
X90037610Y-125526005D02*
X90037610Y-125704005D01*
X90037610Y-125704005D02*
X90096943Y-125822672D01*
X90096943Y-125822672D02*
X90215610Y-125882005D01*
X90215610Y-125882005D02*
X90868276Y-125882005D01*
X90215610Y-125882005D02*
X90096943Y-125941339D01*
X90096943Y-125941339D02*
X90037610Y-126060005D01*
X90037610Y-126060005D02*
X90037610Y-126238005D01*
X90037610Y-126238005D02*
X90096943Y-126356672D01*
X90096943Y-126356672D02*
X90215610Y-126416005D01*
X90215610Y-126416005D02*
X90868276Y-126416005D01*
X89562943Y-127899338D02*
X91164943Y-126831338D01*
X90868276Y-128848671D02*
X90215610Y-128848671D01*
X90215610Y-128848671D02*
X90096943Y-128789338D01*
X90096943Y-128789338D02*
X90037610Y-128670671D01*
X90037610Y-128670671D02*
X90037610Y-128433338D01*
X90037610Y-128433338D02*
X90096943Y-128314671D01*
X90808943Y-128848671D02*
X90868276Y-128730005D01*
X90868276Y-128730005D02*
X90868276Y-128433338D01*
X90868276Y-128433338D02*
X90808943Y-128314671D01*
X90808943Y-128314671D02*
X90690276Y-128255338D01*
X90690276Y-128255338D02*
X90571610Y-128255338D01*
X90571610Y-128255338D02*
X90452943Y-128314671D01*
X90452943Y-128314671D02*
X90393610Y-128433338D01*
X90393610Y-128433338D02*
X90393610Y-128730005D01*
X90393610Y-128730005D02*
X90334276Y-128848671D01*
X90868276Y-129442004D02*
X90037610Y-129442004D01*
X90274943Y-129442004D02*
X90156276Y-129501338D01*
X90156276Y-129501338D02*
X90096943Y-129560671D01*
X90096943Y-129560671D02*
X90037610Y-129679338D01*
X90037610Y-129679338D02*
X90037610Y-129798004D01*
X90037610Y-130213337D02*
X91105610Y-130213337D01*
X91105610Y-130213337D02*
X91224276Y-130154004D01*
X91224276Y-130154004D02*
X91283610Y-130035337D01*
X91283610Y-130035337D02*
X91283610Y-129976004D01*
X89622276Y-130213337D02*
X89681610Y-130154004D01*
X89681610Y-130154004D02*
X89740943Y-130213337D01*
X89740943Y-130213337D02*
X89681610Y-130272671D01*
X89681610Y-130272671D02*
X89622276Y-130213337D01*
X89622276Y-130213337D02*
X89740943Y-130213337D01*
X90808943Y-131281337D02*
X90868276Y-131162670D01*
X90868276Y-131162670D02*
X90868276Y-130925337D01*
X90868276Y-130925337D02*
X90808943Y-130806670D01*
X90808943Y-130806670D02*
X90690276Y-130747337D01*
X90690276Y-130747337D02*
X90215610Y-130747337D01*
X90215610Y-130747337D02*
X90096943Y-130806670D01*
X90096943Y-130806670D02*
X90037610Y-130925337D01*
X90037610Y-130925337D02*
X90037610Y-131162670D01*
X90037610Y-131162670D02*
X90096943Y-131281337D01*
X90096943Y-131281337D02*
X90215610Y-131340670D01*
X90215610Y-131340670D02*
X90334276Y-131340670D01*
X90334276Y-131340670D02*
X90452943Y-130747337D01*
X90037610Y-131874670D02*
X90868276Y-131874670D01*
X90156276Y-131874670D02*
X90096943Y-131934004D01*
X90096943Y-131934004D02*
X90037610Y-132052670D01*
X90037610Y-132052670D02*
X90037610Y-132230670D01*
X90037610Y-132230670D02*
X90096943Y-132349337D01*
X90096943Y-132349337D02*
X90215610Y-132408670D01*
X90215610Y-132408670D02*
X90868276Y-132408670D01*
X90868276Y-133002003D02*
X89622276Y-133002003D01*
X90868276Y-133536003D02*
X90215610Y-133536003D01*
X90215610Y-133536003D02*
X90096943Y-133476670D01*
X90096943Y-133476670D02*
X90037610Y-133358003D01*
X90037610Y-133358003D02*
X90037610Y-133180003D01*
X90037610Y-133180003D02*
X90096943Y-133061337D01*
X90096943Y-133061337D02*
X90156276Y-133002003D01*
X90868276Y-134129336D02*
X90037610Y-134129336D01*
X89622276Y-134129336D02*
X89681610Y-134070003D01*
X89681610Y-134070003D02*
X89740943Y-134129336D01*
X89740943Y-134129336D02*
X89681610Y-134188670D01*
X89681610Y-134188670D02*
X89622276Y-134129336D01*
X89622276Y-134129336D02*
X89740943Y-134129336D01*
X90808943Y-135197336D02*
X90868276Y-135078669D01*
X90868276Y-135078669D02*
X90868276Y-134841336D01*
X90868276Y-134841336D02*
X90808943Y-134722669D01*
X90808943Y-134722669D02*
X90690276Y-134663336D01*
X90690276Y-134663336D02*
X90215610Y-134663336D01*
X90215610Y-134663336D02*
X90096943Y-134722669D01*
X90096943Y-134722669D02*
X90037610Y-134841336D01*
X90037610Y-134841336D02*
X90037610Y-135078669D01*
X90037610Y-135078669D02*
X90096943Y-135197336D01*
X90096943Y-135197336D02*
X90215610Y-135256669D01*
X90215610Y-135256669D02*
X90334276Y-135256669D01*
X90334276Y-135256669D02*
X90452943Y-134663336D01*
X90868276Y-135790669D02*
X90037610Y-135790669D01*
X90156276Y-135790669D02*
X90096943Y-135850003D01*
X90096943Y-135850003D02*
X90037610Y-135968669D01*
X90037610Y-135968669D02*
X90037610Y-136146669D01*
X90037610Y-136146669D02*
X90096943Y-136265336D01*
X90096943Y-136265336D02*
X90215610Y-136324669D01*
X90215610Y-136324669D02*
X90868276Y-136324669D01*
X90215610Y-136324669D02*
X90096943Y-136384003D01*
X90096943Y-136384003D02*
X90037610Y-136502669D01*
X90037610Y-136502669D02*
X90037610Y-136680669D01*
X90037610Y-136680669D02*
X90096943Y-136799336D01*
X90096943Y-136799336D02*
X90215610Y-136858669D01*
X90215610Y-136858669D02*
X90868276Y-136858669D01*
X90808943Y-137392669D02*
X90868276Y-137511336D01*
X90868276Y-137511336D02*
X90868276Y-137748669D01*
X90868276Y-137748669D02*
X90808943Y-137867336D01*
X90808943Y-137867336D02*
X90690276Y-137926669D01*
X90690276Y-137926669D02*
X90630943Y-137926669D01*
X90630943Y-137926669D02*
X90512276Y-137867336D01*
X90512276Y-137867336D02*
X90452943Y-137748669D01*
X90452943Y-137748669D02*
X90452943Y-137570669D01*
X90452943Y-137570669D02*
X90393610Y-137452002D01*
X90393610Y-137452002D02*
X90274943Y-137392669D01*
X90274943Y-137392669D02*
X90215610Y-137392669D01*
X90215610Y-137392669D02*
X90096943Y-137452002D01*
X90096943Y-137452002D02*
X90037610Y-137570669D01*
X90037610Y-137570669D02*
X90037610Y-137748669D01*
X90037610Y-137748669D02*
X90096943Y-137867336D01*
X90037610Y-138282669D02*
X90037610Y-138757336D01*
X89622276Y-138460669D02*
X90690276Y-138460669D01*
X90690276Y-138460669D02*
X90808943Y-138520003D01*
X90808943Y-138520003D02*
X90868276Y-138638669D01*
X90868276Y-138638669D02*
X90868276Y-138757336D01*
X90868276Y-139172669D02*
X90037610Y-139172669D01*
X90274943Y-139172669D02*
X90156276Y-139232003D01*
X90156276Y-139232003D02*
X90096943Y-139291336D01*
X90096943Y-139291336D02*
X90037610Y-139410003D01*
X90037610Y-139410003D02*
X90037610Y-139528669D01*
X90868276Y-140478002D02*
X90215610Y-140478002D01*
X90215610Y-140478002D02*
X90096943Y-140418669D01*
X90096943Y-140418669D02*
X90037610Y-140300002D01*
X90037610Y-140300002D02*
X90037610Y-140062669D01*
X90037610Y-140062669D02*
X90096943Y-139944002D01*
X90808943Y-140478002D02*
X90868276Y-140359336D01*
X90868276Y-140359336D02*
X90868276Y-140062669D01*
X90868276Y-140062669D02*
X90808943Y-139944002D01*
X90808943Y-139944002D02*
X90690276Y-139884669D01*
X90690276Y-139884669D02*
X90571610Y-139884669D01*
X90571610Y-139884669D02*
X90452943Y-139944002D01*
X90452943Y-139944002D02*
X90393610Y-140062669D01*
X90393610Y-140062669D02*
X90393610Y-140359336D01*
X90393610Y-140359336D02*
X90334276Y-140478002D01*
X89562943Y-141961335D02*
X91164943Y-140893335D01*
X90868276Y-142376668D02*
X90037610Y-142376668D01*
X89622276Y-142376668D02*
X89681610Y-142317335D01*
X89681610Y-142317335D02*
X89740943Y-142376668D01*
X89740943Y-142376668D02*
X89681610Y-142436002D01*
X89681610Y-142436002D02*
X89622276Y-142376668D01*
X89622276Y-142376668D02*
X89740943Y-142376668D01*
X90037610Y-142792001D02*
X90037610Y-143266668D01*
X89622276Y-142970001D02*
X90690276Y-142970001D01*
X90690276Y-142970001D02*
X90808943Y-143029335D01*
X90808943Y-143029335D02*
X90868276Y-143148001D01*
X90868276Y-143148001D02*
X90868276Y-143266668D01*
X90868276Y-143682001D02*
X89622276Y-143682001D01*
X90868276Y-144216001D02*
X90215610Y-144216001D01*
X90215610Y-144216001D02*
X90096943Y-144156668D01*
X90096943Y-144156668D02*
X90037610Y-144038001D01*
X90037610Y-144038001D02*
X90037610Y-143860001D01*
X90037610Y-143860001D02*
X90096943Y-143741335D01*
X90096943Y-143741335D02*
X90156276Y-143682001D01*
X90868276Y-144987334D02*
X90808943Y-144868668D01*
X90808943Y-144868668D02*
X90749610Y-144809334D01*
X90749610Y-144809334D02*
X90630943Y-144750001D01*
X90630943Y-144750001D02*
X90274943Y-144750001D01*
X90274943Y-144750001D02*
X90156276Y-144809334D01*
X90156276Y-144809334D02*
X90096943Y-144868668D01*
X90096943Y-144868668D02*
X90037610Y-144987334D01*
X90037610Y-144987334D02*
X90037610Y-145165334D01*
X90037610Y-145165334D02*
X90096943Y-145284001D01*
X90096943Y-145284001D02*
X90156276Y-145343334D01*
X90156276Y-145343334D02*
X90274943Y-145402668D01*
X90274943Y-145402668D02*
X90630943Y-145402668D01*
X90630943Y-145402668D02*
X90749610Y-145343334D01*
X90749610Y-145343334D02*
X90808943Y-145284001D01*
X90808943Y-145284001D02*
X90868276Y-145165334D01*
X90868276Y-145165334D02*
X90868276Y-144987334D01*
X90037610Y-145818001D02*
X90868276Y-146055334D01*
X90868276Y-146055334D02*
X90274943Y-146292667D01*
X90274943Y-146292667D02*
X90868276Y-146530001D01*
X90868276Y-146530001D02*
X90037610Y-146767334D01*
X90868276Y-147242000D02*
X90037610Y-147242000D01*
X89622276Y-147242000D02*
X89681610Y-147182667D01*
X89681610Y-147182667D02*
X89740943Y-147242000D01*
X89740943Y-147242000D02*
X89681610Y-147301334D01*
X89681610Y-147301334D02*
X89622276Y-147242000D01*
X89622276Y-147242000D02*
X89740943Y-147242000D01*
X90037610Y-147657333D02*
X90037610Y-148132000D01*
X90868276Y-147835333D02*
X89800276Y-147835333D01*
X89800276Y-147835333D02*
X89681610Y-147894667D01*
X89681610Y-147894667D02*
X89622276Y-148013333D01*
X89622276Y-148013333D02*
X89622276Y-148132000D01*
X90868276Y-148547333D02*
X90037610Y-148547333D01*
X89622276Y-148547333D02*
X89681610Y-148488000D01*
X89681610Y-148488000D02*
X89740943Y-148547333D01*
X89740943Y-148547333D02*
X89681610Y-148606667D01*
X89681610Y-148606667D02*
X89622276Y-148547333D01*
X89622276Y-148547333D02*
X89740943Y-148547333D01*
X102826496Y-139881134D02*
X101580496Y-139881134D01*
X102173830Y-139881134D02*
X102173830Y-140593134D01*
X102826496Y-140593134D02*
X101580496Y-140593134D01*
X101580496Y-141067801D02*
X102826496Y-141364467D01*
X102826496Y-141364467D02*
X101936496Y-141601801D01*
X101936496Y-141601801D02*
X102826496Y-141839134D01*
X102826496Y-141839134D02*
X101580496Y-142135801D01*
X102826496Y-143358067D02*
X101995830Y-143358067D01*
X102233163Y-143358067D02*
X102114496Y-143417401D01*
X102114496Y-143417401D02*
X102055163Y-143476734D01*
X102055163Y-143476734D02*
X101995830Y-143595401D01*
X101995830Y-143595401D02*
X101995830Y-143714067D01*
X102767163Y-144604067D02*
X102826496Y-144485400D01*
X102826496Y-144485400D02*
X102826496Y-144248067D01*
X102826496Y-144248067D02*
X102767163Y-144129400D01*
X102767163Y-144129400D02*
X102648496Y-144070067D01*
X102648496Y-144070067D02*
X102173830Y-144070067D01*
X102173830Y-144070067D02*
X102055163Y-144129400D01*
X102055163Y-144129400D02*
X101995830Y-144248067D01*
X101995830Y-144248067D02*
X101995830Y-144485400D01*
X101995830Y-144485400D02*
X102055163Y-144604067D01*
X102055163Y-144604067D02*
X102173830Y-144663400D01*
X102173830Y-144663400D02*
X102292496Y-144663400D01*
X102292496Y-144663400D02*
X102411163Y-144070067D01*
X101995830Y-145078734D02*
X102826496Y-145375400D01*
X102826496Y-145375400D02*
X101995830Y-145672067D01*
X102707830Y-146146733D02*
X102767163Y-146206067D01*
X102767163Y-146206067D02*
X102826496Y-146146733D01*
X102826496Y-146146733D02*
X102767163Y-146087400D01*
X102767163Y-146087400D02*
X102707830Y-146146733D01*
X102707830Y-146146733D02*
X102826496Y-146146733D01*
X102707830Y-146740066D02*
X102767163Y-146799400D01*
X102767163Y-146799400D02*
X102826496Y-146740066D01*
X102826496Y-146740066D02*
X102767163Y-146680733D01*
X102767163Y-146680733D02*
X102707830Y-146740066D01*
X102707830Y-146740066D02*
X102826496Y-146740066D01*
X102055163Y-146740066D02*
X102114496Y-146799400D01*
X102114496Y-146799400D02*
X102173830Y-146740066D01*
X102173830Y-146740066D02*
X102114496Y-146680733D01*
X102114496Y-146680733D02*
X102055163Y-146740066D01*
X102055163Y-146740066D02*
X102173830Y-146740066D01*
X101699163Y-148021666D02*
X101639830Y-148080999D01*
X101639830Y-148080999D02*
X101580496Y-148199666D01*
X101580496Y-148199666D02*
X101580496Y-148496333D01*
X101580496Y-148496333D02*
X101639830Y-148614999D01*
X101639830Y-148614999D02*
X101699163Y-148674333D01*
X101699163Y-148674333D02*
X101817830Y-148733666D01*
X101817830Y-148733666D02*
X101936496Y-148733666D01*
X101936496Y-148733666D02*
X102114496Y-148674333D01*
X102114496Y-148674333D02*
X102826496Y-147962333D01*
X102826496Y-147962333D02*
X102826496Y-148733666D01*
X104192350Y-134398732D02*
X104251683Y-134576732D01*
X104251683Y-134576732D02*
X104311016Y-134636065D01*
X104311016Y-134636065D02*
X104429683Y-134695398D01*
X104429683Y-134695398D02*
X104607683Y-134695398D01*
X104607683Y-134695398D02*
X104726350Y-134636065D01*
X104726350Y-134636065D02*
X104785683Y-134576732D01*
X104785683Y-134576732D02*
X104845016Y-134458065D01*
X104845016Y-134458065D02*
X104845016Y-133983398D01*
X104845016Y-133983398D02*
X103599016Y-133983398D01*
X103599016Y-133983398D02*
X103599016Y-134398732D01*
X103599016Y-134398732D02*
X103658350Y-134517398D01*
X103658350Y-134517398D02*
X103717683Y-134576732D01*
X103717683Y-134576732D02*
X103836350Y-134636065D01*
X103836350Y-134636065D02*
X103955016Y-134636065D01*
X103955016Y-134636065D02*
X104073683Y-134576732D01*
X104073683Y-134576732D02*
X104133016Y-134517398D01*
X104133016Y-134517398D02*
X104192350Y-134398732D01*
X104192350Y-134398732D02*
X104192350Y-133983398D01*
X104845016Y-135763398D02*
X104192350Y-135763398D01*
X104192350Y-135763398D02*
X104073683Y-135704065D01*
X104073683Y-135704065D02*
X104014350Y-135585398D01*
X104014350Y-135585398D02*
X104014350Y-135348065D01*
X104014350Y-135348065D02*
X104073683Y-135229398D01*
X104785683Y-135763398D02*
X104845016Y-135644732D01*
X104845016Y-135644732D02*
X104845016Y-135348065D01*
X104845016Y-135348065D02*
X104785683Y-135229398D01*
X104785683Y-135229398D02*
X104667016Y-135170065D01*
X104667016Y-135170065D02*
X104548350Y-135170065D01*
X104548350Y-135170065D02*
X104429683Y-135229398D01*
X104429683Y-135229398D02*
X104370350Y-135348065D01*
X104370350Y-135348065D02*
X104370350Y-135644732D01*
X104370350Y-135644732D02*
X104311016Y-135763398D01*
X104014350Y-136178731D02*
X104014350Y-136653398D01*
X103599016Y-136356731D02*
X104667016Y-136356731D01*
X104667016Y-136356731D02*
X104785683Y-136416065D01*
X104785683Y-136416065D02*
X104845016Y-136534731D01*
X104845016Y-136534731D02*
X104845016Y-136653398D01*
X104785683Y-137602731D02*
X104845016Y-137484065D01*
X104845016Y-137484065D02*
X104845016Y-137246731D01*
X104845016Y-137246731D02*
X104785683Y-137128065D01*
X104785683Y-137128065D02*
X104726350Y-137068731D01*
X104726350Y-137068731D02*
X104607683Y-137009398D01*
X104607683Y-137009398D02*
X104251683Y-137009398D01*
X104251683Y-137009398D02*
X104133016Y-137068731D01*
X104133016Y-137068731D02*
X104073683Y-137128065D01*
X104073683Y-137128065D02*
X104014350Y-137246731D01*
X104014350Y-137246731D02*
X104014350Y-137484065D01*
X104014350Y-137484065D02*
X104073683Y-137602731D01*
X104845016Y-138136731D02*
X103599016Y-138136731D01*
X104845016Y-138670731D02*
X104192350Y-138670731D01*
X104192350Y-138670731D02*
X104073683Y-138611398D01*
X104073683Y-138611398D02*
X104014350Y-138492731D01*
X104014350Y-138492731D02*
X104014350Y-138314731D01*
X104014350Y-138314731D02*
X104073683Y-138196065D01*
X104073683Y-138196065D02*
X104133016Y-138136731D01*
X104726350Y-139264064D02*
X104785683Y-139323398D01*
X104785683Y-139323398D02*
X104845016Y-139264064D01*
X104845016Y-139264064D02*
X104785683Y-139204731D01*
X104785683Y-139204731D02*
X104726350Y-139264064D01*
X104726350Y-139264064D02*
X104845016Y-139264064D01*
X104073683Y-139264064D02*
X104133016Y-139323398D01*
X104133016Y-139323398D02*
X104192350Y-139264064D01*
X104192350Y-139264064D02*
X104133016Y-139204731D01*
X104133016Y-139204731D02*
X104073683Y-139264064D01*
X104073683Y-139264064D02*
X104192350Y-139264064D01*
X103717683Y-140545664D02*
X103658350Y-140604997D01*
X103658350Y-140604997D02*
X103599016Y-140723664D01*
X103599016Y-140723664D02*
X103599016Y-141020331D01*
X103599016Y-141020331D02*
X103658350Y-141138997D01*
X103658350Y-141138997D02*
X103717683Y-141198331D01*
X103717683Y-141198331D02*
X103836350Y-141257664D01*
X103836350Y-141257664D02*
X103955016Y-141257664D01*
X103955016Y-141257664D02*
X104133016Y-141198331D01*
X104133016Y-141198331D02*
X104845016Y-140486331D01*
X104845016Y-140486331D02*
X104845016Y-141257664D01*
X103599016Y-141672998D02*
X103599016Y-142444331D01*
X103599016Y-142444331D02*
X104073683Y-142028998D01*
X104073683Y-142028998D02*
X104073683Y-142206998D01*
X104073683Y-142206998D02*
X104133016Y-142325664D01*
X104133016Y-142325664D02*
X104192350Y-142384998D01*
X104192350Y-142384998D02*
X104311016Y-142444331D01*
X104311016Y-142444331D02*
X104607683Y-142444331D01*
X104607683Y-142444331D02*
X104726350Y-142384998D01*
X104726350Y-142384998D02*
X104785683Y-142325664D01*
X104785683Y-142325664D02*
X104845016Y-142206998D01*
X104845016Y-142206998D02*
X104845016Y-141850998D01*
X104845016Y-141850998D02*
X104785683Y-141732331D01*
X104785683Y-141732331D02*
X104726350Y-141672998D01*
X104370350Y-142978331D02*
X104370350Y-143927665D01*
X103717683Y-144461665D02*
X103658350Y-144520998D01*
X103658350Y-144520998D02*
X103599016Y-144639665D01*
X103599016Y-144639665D02*
X103599016Y-144936332D01*
X103599016Y-144936332D02*
X103658350Y-145054998D01*
X103658350Y-145054998D02*
X103717683Y-145114332D01*
X103717683Y-145114332D02*
X103836350Y-145173665D01*
X103836350Y-145173665D02*
X103955016Y-145173665D01*
X103955016Y-145173665D02*
X104133016Y-145114332D01*
X104133016Y-145114332D02*
X104845016Y-144402332D01*
X104845016Y-144402332D02*
X104845016Y-145173665D01*
X103599016Y-145588999D02*
X103599016Y-146360332D01*
X103599016Y-146360332D02*
X104073683Y-145944999D01*
X104073683Y-145944999D02*
X104073683Y-146122999D01*
X104073683Y-146122999D02*
X104133016Y-146241665D01*
X104133016Y-146241665D02*
X104192350Y-146300999D01*
X104192350Y-146300999D02*
X104311016Y-146360332D01*
X104311016Y-146360332D02*
X104607683Y-146360332D01*
X104607683Y-146360332D02*
X104726350Y-146300999D01*
X104726350Y-146300999D02*
X104785683Y-146241665D01*
X104785683Y-146241665D02*
X104845016Y-146122999D01*
X104845016Y-146122999D02*
X104845016Y-145766999D01*
X104845016Y-145766999D02*
X104785683Y-145648332D01*
X104785683Y-145648332D02*
X104726350Y-145588999D01*
X103717683Y-146834999D02*
X103658350Y-146894332D01*
X103658350Y-146894332D02*
X103599016Y-147012999D01*
X103599016Y-147012999D02*
X103599016Y-147309666D01*
X103599016Y-147309666D02*
X103658350Y-147428332D01*
X103658350Y-147428332D02*
X103717683Y-147487666D01*
X103717683Y-147487666D02*
X103836350Y-147546999D01*
X103836350Y-147546999D02*
X103955016Y-147546999D01*
X103955016Y-147546999D02*
X104133016Y-147487666D01*
X104133016Y-147487666D02*
X104845016Y-146775666D01*
X104845016Y-146775666D02*
X104845016Y-147546999D01*
X103599016Y-147962333D02*
X103599016Y-148733666D01*
X103599016Y-148733666D02*
X104073683Y-148318333D01*
X104073683Y-148318333D02*
X104073683Y-148496333D01*
X104073683Y-148496333D02*
X104133016Y-148614999D01*
X104133016Y-148614999D02*
X104192350Y-148674333D01*
X104192350Y-148674333D02*
X104311016Y-148733666D01*
X104311016Y-148733666D02*
X104607683Y-148733666D01*
X104607683Y-148733666D02*
X104726350Y-148674333D01*
X104726350Y-148674333D02*
X104785683Y-148614999D01*
X104785683Y-148614999D02*
X104845016Y-148496333D01*
X104845016Y-148496333D02*
X104845016Y-148140333D01*
X104845016Y-148140333D02*
X104785683Y-148021666D01*
X104785683Y-148021666D02*
X104726350Y-147962333D01*
D12*
X121110333Y-139932380D02*
X121110333Y-140646666D01*
X121110333Y-140646666D02*
X121157952Y-140789523D01*
X121157952Y-140789523D02*
X121253190Y-140884761D01*
X121253190Y-140884761D02*
X121396047Y-140932380D01*
X121396047Y-140932380D02*
X121491285Y-140932380D01*
X120681761Y-140027619D02*
X120634142Y-139980000D01*
X120634142Y-139980000D02*
X120538904Y-139932380D01*
X120538904Y-139932380D02*
X120300809Y-139932380D01*
X120300809Y-139932380D02*
X120205571Y-139980000D01*
X120205571Y-139980000D02*
X120157952Y-140027619D01*
X120157952Y-140027619D02*
X120110333Y-140122857D01*
X120110333Y-140122857D02*
X120110333Y-140218095D01*
X120110333Y-140218095D02*
X120157952Y-140360952D01*
X120157952Y-140360952D02*
X120729380Y-140932380D01*
X120729380Y-140932380D02*
X120110333Y-140932380D01*
X116350142Y-112404047D02*
X116397761Y-112356428D01*
X116397761Y-112356428D02*
X116445380Y-112213571D01*
X116445380Y-112213571D02*
X116445380Y-112118333D01*
X116445380Y-112118333D02*
X116397761Y-111975476D01*
X116397761Y-111975476D02*
X116302523Y-111880238D01*
X116302523Y-111880238D02*
X116207285Y-111832619D01*
X116207285Y-111832619D02*
X116016809Y-111785000D01*
X116016809Y-111785000D02*
X115873952Y-111785000D01*
X115873952Y-111785000D02*
X115683476Y-111832619D01*
X115683476Y-111832619D02*
X115588238Y-111880238D01*
X115588238Y-111880238D02*
X115493000Y-111975476D01*
X115493000Y-111975476D02*
X115445380Y-112118333D01*
X115445380Y-112118333D02*
X115445380Y-112213571D01*
X115445380Y-112213571D02*
X115493000Y-112356428D01*
X115493000Y-112356428D02*
X115540619Y-112404047D01*
X116350142Y-113404047D02*
X116397761Y-113356428D01*
X116397761Y-113356428D02*
X116445380Y-113213571D01*
X116445380Y-113213571D02*
X116445380Y-113118333D01*
X116445380Y-113118333D02*
X116397761Y-112975476D01*
X116397761Y-112975476D02*
X116302523Y-112880238D01*
X116302523Y-112880238D02*
X116207285Y-112832619D01*
X116207285Y-112832619D02*
X116016809Y-112785000D01*
X116016809Y-112785000D02*
X115873952Y-112785000D01*
X115873952Y-112785000D02*
X115683476Y-112832619D01*
X115683476Y-112832619D02*
X115588238Y-112880238D01*
X115588238Y-112880238D02*
X115493000Y-112975476D01*
X115493000Y-112975476D02*
X115445380Y-113118333D01*
X115445380Y-113118333D02*
X115445380Y-113213571D01*
X115445380Y-113213571D02*
X115493000Y-113356428D01*
X115493000Y-113356428D02*
X115540619Y-113404047D01*
X116445380Y-114356428D02*
X116445380Y-113785000D01*
X116445380Y-114070714D02*
X115445380Y-114070714D01*
X115445380Y-114070714D02*
X115588238Y-113975476D01*
X115588238Y-113975476D02*
X115683476Y-113880238D01*
X115683476Y-113880238D02*
X115731095Y-113785000D01*
X116445380Y-115308809D02*
X116445380Y-114737381D01*
X116445380Y-115023095D02*
X115445380Y-115023095D01*
X115445380Y-115023095D02*
X115588238Y-114927857D01*
X115588238Y-114927857D02*
X115683476Y-114832619D01*
X115683476Y-114832619D02*
X115731095Y-114737381D01*
X115445380Y-115927857D02*
X115445380Y-116023095D01*
X115445380Y-116023095D02*
X115493000Y-116118333D01*
X115493000Y-116118333D02*
X115540619Y-116165952D01*
X115540619Y-116165952D02*
X115635857Y-116213571D01*
X115635857Y-116213571D02*
X115826333Y-116261190D01*
X115826333Y-116261190D02*
X116064428Y-116261190D01*
X116064428Y-116261190D02*
X116254904Y-116213571D01*
X116254904Y-116213571D02*
X116350142Y-116165952D01*
X116350142Y-116165952D02*
X116397761Y-116118333D01*
X116397761Y-116118333D02*
X116445380Y-116023095D01*
X116445380Y-116023095D02*
X116445380Y-115927857D01*
X116445380Y-115927857D02*
X116397761Y-115832619D01*
X116397761Y-115832619D02*
X116350142Y-115785000D01*
X116350142Y-115785000D02*
X116254904Y-115737381D01*
X116254904Y-115737381D02*
X116064428Y-115689762D01*
X116064428Y-115689762D02*
X115826333Y-115689762D01*
X115826333Y-115689762D02*
X115635857Y-115737381D01*
X115635857Y-115737381D02*
X115540619Y-115785000D01*
X115540619Y-115785000D02*
X115493000Y-115832619D01*
X115493000Y-115832619D02*
X115445380Y-115927857D01*
X116445380Y-117213571D02*
X116445380Y-116642143D01*
X116445380Y-116927857D02*
X115445380Y-116927857D01*
X115445380Y-116927857D02*
X115588238Y-116832619D01*
X115588238Y-116832619D02*
X115683476Y-116737381D01*
X115683476Y-116737381D02*
X115731095Y-116642143D01*
X116064428Y-117642143D02*
X116064428Y-118404048D01*
X115873952Y-119023095D02*
X115826333Y-118927857D01*
X115826333Y-118927857D02*
X115778714Y-118880238D01*
X115778714Y-118880238D02*
X115683476Y-118832619D01*
X115683476Y-118832619D02*
X115635857Y-118832619D01*
X115635857Y-118832619D02*
X115540619Y-118880238D01*
X115540619Y-118880238D02*
X115493000Y-118927857D01*
X115493000Y-118927857D02*
X115445380Y-119023095D01*
X115445380Y-119023095D02*
X115445380Y-119213571D01*
X115445380Y-119213571D02*
X115493000Y-119308809D01*
X115493000Y-119308809D02*
X115540619Y-119356428D01*
X115540619Y-119356428D02*
X115635857Y-119404047D01*
X115635857Y-119404047D02*
X115683476Y-119404047D01*
X115683476Y-119404047D02*
X115778714Y-119356428D01*
X115778714Y-119356428D02*
X115826333Y-119308809D01*
X115826333Y-119308809D02*
X115873952Y-119213571D01*
X115873952Y-119213571D02*
X115873952Y-119023095D01*
X115873952Y-119023095D02*
X115921571Y-118927857D01*
X115921571Y-118927857D02*
X115969190Y-118880238D01*
X115969190Y-118880238D02*
X116064428Y-118832619D01*
X116064428Y-118832619D02*
X116254904Y-118832619D01*
X116254904Y-118832619D02*
X116350142Y-118880238D01*
X116350142Y-118880238D02*
X116397761Y-118927857D01*
X116397761Y-118927857D02*
X116445380Y-119023095D01*
X116445380Y-119023095D02*
X116445380Y-119213571D01*
X116445380Y-119213571D02*
X116397761Y-119308809D01*
X116397761Y-119308809D02*
X116350142Y-119356428D01*
X116350142Y-119356428D02*
X116254904Y-119404047D01*
X116254904Y-119404047D02*
X116064428Y-119404047D01*
X116064428Y-119404047D02*
X115969190Y-119356428D01*
X115969190Y-119356428D02*
X115921571Y-119308809D01*
X115921571Y-119308809D02*
X115873952Y-119213571D01*
X115445380Y-120261190D02*
X115445380Y-120070714D01*
X115445380Y-120070714D02*
X115493000Y-119975476D01*
X115493000Y-119975476D02*
X115540619Y-119927857D01*
X115540619Y-119927857D02*
X115683476Y-119832619D01*
X115683476Y-119832619D02*
X115873952Y-119785000D01*
X115873952Y-119785000D02*
X116254904Y-119785000D01*
X116254904Y-119785000D02*
X116350142Y-119832619D01*
X116350142Y-119832619D02*
X116397761Y-119880238D01*
X116397761Y-119880238D02*
X116445380Y-119975476D01*
X116445380Y-119975476D02*
X116445380Y-120165952D01*
X116445380Y-120165952D02*
X116397761Y-120261190D01*
X116397761Y-120261190D02*
X116350142Y-120308809D01*
X116350142Y-120308809D02*
X116254904Y-120356428D01*
X116254904Y-120356428D02*
X116016809Y-120356428D01*
X116016809Y-120356428D02*
X115921571Y-120308809D01*
X115921571Y-120308809D02*
X115873952Y-120261190D01*
X115873952Y-120261190D02*
X115826333Y-120165952D01*
X115826333Y-120165952D02*
X115826333Y-119975476D01*
X115826333Y-119975476D02*
X115873952Y-119880238D01*
X115873952Y-119880238D02*
X115921571Y-119832619D01*
X115921571Y-119832619D02*
X116016809Y-119785000D01*
X115873952Y-120927857D02*
X115826333Y-120832619D01*
X115826333Y-120832619D02*
X115778714Y-120785000D01*
X115778714Y-120785000D02*
X115683476Y-120737381D01*
X115683476Y-120737381D02*
X115635857Y-120737381D01*
X115635857Y-120737381D02*
X115540619Y-120785000D01*
X115540619Y-120785000D02*
X115493000Y-120832619D01*
X115493000Y-120832619D02*
X115445380Y-120927857D01*
X115445380Y-120927857D02*
X115445380Y-121118333D01*
X115445380Y-121118333D02*
X115493000Y-121213571D01*
X115493000Y-121213571D02*
X115540619Y-121261190D01*
X115540619Y-121261190D02*
X115635857Y-121308809D01*
X115635857Y-121308809D02*
X115683476Y-121308809D01*
X115683476Y-121308809D02*
X115778714Y-121261190D01*
X115778714Y-121261190D02*
X115826333Y-121213571D01*
X115826333Y-121213571D02*
X115873952Y-121118333D01*
X115873952Y-121118333D02*
X115873952Y-120927857D01*
X115873952Y-120927857D02*
X115921571Y-120832619D01*
X115921571Y-120832619D02*
X115969190Y-120785000D01*
X115969190Y-120785000D02*
X116064428Y-120737381D01*
X116064428Y-120737381D02*
X116254904Y-120737381D01*
X116254904Y-120737381D02*
X116350142Y-120785000D01*
X116350142Y-120785000D02*
X116397761Y-120832619D01*
X116397761Y-120832619D02*
X116445380Y-120927857D01*
X116445380Y-120927857D02*
X116445380Y-121118333D01*
X116445380Y-121118333D02*
X116397761Y-121213571D01*
X116397761Y-121213571D02*
X116350142Y-121261190D01*
X116350142Y-121261190D02*
X116254904Y-121308809D01*
X116254904Y-121308809D02*
X116064428Y-121308809D01*
X116064428Y-121308809D02*
X115969190Y-121261190D01*
X115969190Y-121261190D02*
X115921571Y-121213571D01*
X115921571Y-121213571D02*
X115873952Y-121118333D01*
X116445380Y-121737381D02*
X115445380Y-121737381D01*
X115445380Y-121737381D02*
X116159666Y-122070714D01*
X116159666Y-122070714D02*
X115445380Y-122404047D01*
X115445380Y-122404047D02*
X116445380Y-122404047D01*
X116445380Y-122880238D02*
X115445380Y-122880238D01*
X115921571Y-122880238D02*
X115921571Y-123451666D01*
X116445380Y-123451666D02*
X115445380Y-123451666D01*
X115778714Y-123832619D02*
X115778714Y-124356428D01*
X115778714Y-124356428D02*
X116445380Y-123832619D01*
X116445380Y-123832619D02*
X116445380Y-124356428D01*
X116064428Y-124737381D02*
X116064428Y-125499286D01*
X116445380Y-125975476D02*
X115445380Y-125975476D01*
X115445380Y-125975476D02*
X116159666Y-126308809D01*
X116159666Y-126308809D02*
X115445380Y-126642142D01*
X115445380Y-126642142D02*
X116445380Y-126642142D01*
X116445380Y-127261190D02*
X116397761Y-127165952D01*
X116397761Y-127165952D02*
X116350142Y-127118333D01*
X116350142Y-127118333D02*
X116254904Y-127070714D01*
X116254904Y-127070714D02*
X115969190Y-127070714D01*
X115969190Y-127070714D02*
X115873952Y-127118333D01*
X115873952Y-127118333D02*
X115826333Y-127165952D01*
X115826333Y-127165952D02*
X115778714Y-127261190D01*
X115778714Y-127261190D02*
X115778714Y-127404047D01*
X115778714Y-127404047D02*
X115826333Y-127499285D01*
X115826333Y-127499285D02*
X115873952Y-127546904D01*
X115873952Y-127546904D02*
X115969190Y-127594523D01*
X115969190Y-127594523D02*
X116254904Y-127594523D01*
X116254904Y-127594523D02*
X116350142Y-127546904D01*
X116350142Y-127546904D02*
X116397761Y-127499285D01*
X116397761Y-127499285D02*
X116445380Y-127404047D01*
X116445380Y-127404047D02*
X116445380Y-127261190D01*
X116445380Y-128451666D02*
X115445380Y-128451666D01*
X116397761Y-128451666D02*
X116445380Y-128356428D01*
X116445380Y-128356428D02*
X116445380Y-128165952D01*
X116445380Y-128165952D02*
X116397761Y-128070714D01*
X116397761Y-128070714D02*
X116350142Y-128023095D01*
X116350142Y-128023095D02*
X116254904Y-127975476D01*
X116254904Y-127975476D02*
X115969190Y-127975476D01*
X115969190Y-127975476D02*
X115873952Y-128023095D01*
X115873952Y-128023095D02*
X115826333Y-128070714D01*
X115826333Y-128070714D02*
X115778714Y-128165952D01*
X115778714Y-128165952D02*
X115778714Y-128356428D01*
X115778714Y-128356428D02*
X115826333Y-128451666D01*
X115778714Y-129356428D02*
X116445380Y-129356428D01*
X115778714Y-128927857D02*
X116302523Y-128927857D01*
X116302523Y-128927857D02*
X116397761Y-128975476D01*
X116397761Y-128975476D02*
X116445380Y-129070714D01*
X116445380Y-129070714D02*
X116445380Y-129213571D01*
X116445380Y-129213571D02*
X116397761Y-129308809D01*
X116397761Y-129308809D02*
X116350142Y-129356428D01*
X116445380Y-129975476D02*
X116397761Y-129880238D01*
X116397761Y-129880238D02*
X116302523Y-129832619D01*
X116302523Y-129832619D02*
X115445380Y-129832619D01*
X116397761Y-130737381D02*
X116445380Y-130642143D01*
X116445380Y-130642143D02*
X116445380Y-130451667D01*
X116445380Y-130451667D02*
X116397761Y-130356429D01*
X116397761Y-130356429D02*
X116302523Y-130308810D01*
X116302523Y-130308810D02*
X115921571Y-130308810D01*
X115921571Y-130308810D02*
X115826333Y-130356429D01*
X115826333Y-130356429D02*
X115778714Y-130451667D01*
X115778714Y-130451667D02*
X115778714Y-130642143D01*
X115778714Y-130642143D02*
X115826333Y-130737381D01*
X115826333Y-130737381D02*
X115921571Y-130785000D01*
X115921571Y-130785000D02*
X116016809Y-130785000D01*
X116016809Y-130785000D02*
X116112047Y-130308810D01*
D13*
X120777000Y-139125000D02*
X120777000Y-136525000D01*
X118177000Y-128845000D02*
X123377000Y-128845000D01*
X118177000Y-139125000D02*
X118177000Y-128845000D01*
X120777000Y-136525000D02*
X123377000Y-136525000D01*
X123377000Y-136525000D02*
X123377000Y-128845000D01*
X122047000Y-139125000D02*
X123377000Y-139125000D01*
X118177000Y-139125000D02*
X120777000Y-139125000D01*
X123377000Y-139125000D02*
X123377000Y-137795000D01*
X104931400Y-111558400D02*
X105181400Y-111058400D01*
X105181400Y-111058400D02*
X105431400Y-111558400D01*
X105431400Y-111558400D02*
X104931400Y-111558400D01*
D12*
X114822000Y-111889000D02*
X108797000Y-111889000D01*
X97522000Y-111889000D02*
X97522000Y-131189000D01*
X97522000Y-131189000D02*
X98272000Y-131189000D01*
X114822000Y-131189000D02*
X114822000Y-111889000D01*
X114072000Y-131189000D02*
X114822000Y-131189000D01*
X101547000Y-111889000D02*
X97522000Y-111889000D01*
M02*
