G04 #@! TF.GenerationSoftware,KiCad,Pcbnew,(6.0.1-0)*
G04 #@! TF.CreationDate,2022-03-22T23:13:11+01:00*
G04 #@! TF.ProjectId,ithowifi_4l,6974686f-7769-4666-995f-346c2e6b6963,rev?*
G04 #@! TF.SameCoordinates,Original*
G04 #@! TF.FileFunction,Profile,NP*
%FSLAX46Y46*%
G04 Gerber Fmt 4.6, Leading zero omitted, Abs format (unit mm)*
G04 Created by KiCad (PCBNEW (6.0.1-0)) date 2022-03-22 23:13:11*
%MOMM*%
%LPD*%
G01*
G04 APERTURE LIST*
G04 #@! TA.AperFunction,Profile*
%ADD10C,0.100000*%
G04 #@! TD*
G04 APERTURE END LIST*
D10*
X52732000Y-155968000D02*
G75*
G03*
X53232000Y-156468000I500001J1D01*
G01*
X91899247Y-106668000D02*
X53232000Y-106668000D01*
X115332000Y-106668000D02*
X110693264Y-106668000D01*
X88860553Y-156468000D02*
X53232000Y-156468000D01*
X115332000Y-156468000D02*
X107160553Y-156468000D01*
X106660553Y-155968000D02*
G75*
G03*
X107160553Y-156468000I500001J1D01*
G01*
X115332000Y-156468000D02*
G75*
G03*
X115832000Y-155968000I-1J500001D01*
G01*
X115832000Y-155968000D02*
X115832000Y-107168000D01*
X106660553Y-149968000D02*
X89360553Y-149968000D01*
X52732000Y-155968000D02*
X52732000Y-107168000D01*
X115832000Y-107168000D02*
G75*
G03*
X115332000Y-106668000I-500001J-1D01*
G01*
X110693264Y-106668000D02*
G75*
G03*
X110185200Y-107168000I0J-508129D01*
G01*
X92405201Y-112547400D02*
G75*
G03*
X93319600Y-113430447I863205J-21103D01*
G01*
X110185200Y-112926000D02*
X110185200Y-107168000D01*
X106660553Y-155968000D02*
X106660553Y-149968000D01*
X53232000Y-106668000D02*
G75*
G03*
X52732000Y-107168000I1J-500001D01*
G01*
X88860553Y-156468000D02*
G75*
G03*
X89360553Y-155968000I-1J500001D01*
G01*
X109673215Y-113431305D02*
X93319600Y-113430447D01*
X89360553Y-149968000D02*
X89360553Y-155968000D01*
X92407147Y-107168000D02*
G75*
G03*
X91899247Y-106668000I-507905J-7967D01*
G01*
X109673215Y-113431304D02*
G75*
G03*
X110185200Y-112926000I-15J512044D01*
G01*
X92405200Y-112547400D02*
X92407147Y-107168000D01*
M02*
