G04 #@! TF.GenerationSoftware,KiCad,Pcbnew,(6.0.1-0)*
G04 #@! TF.CreationDate,2022-03-22T23:13:11+01:00*
G04 #@! TF.ProjectId,ithowifi_4l,6974686f-7769-4666-995f-346c2e6b6963,rev?*
G04 #@! TF.SameCoordinates,Original*
G04 #@! TF.FileFunction,Soldermask,Top*
G04 #@! TF.FilePolarity,Negative*
%FSLAX46Y46*%
G04 Gerber Fmt 4.6, Leading zero omitted, Abs format (unit mm)*
G04 Created by KiCad (PCBNEW (6.0.1-0)) date 2022-03-22 23:13:11*
%MOMM*%
%LPD*%
G01*
G04 APERTURE LIST*
G04 Aperture macros list*
%AMRoundRect*
0 Rectangle with rounded corners*
0 $1 Rounding radius*
0 $2 $3 $4 $5 $6 $7 $8 $9 X,Y pos of 4 corners*
0 Add a 4 corners polygon primitive as box body*
4,1,4,$2,$3,$4,$5,$6,$7,$8,$9,$2,$3,0*
0 Add four circle primitives for the rounded corners*
1,1,$1+$1,$2,$3*
1,1,$1+$1,$4,$5*
1,1,$1+$1,$6,$7*
1,1,$1+$1,$8,$9*
0 Add four rect primitives between the rounded corners*
20,1,$1+$1,$2,$3,$4,$5,0*
20,1,$1+$1,$4,$5,$6,$7,0*
20,1,$1+$1,$6,$7,$8,$9,0*
20,1,$1+$1,$8,$9,$2,$3,0*%
G04 Aperture macros list end*
%ADD10R,1.500000X0.900000*%
%ADD11R,0.900000X1.500000*%
%ADD12R,1.050000X1.050000*%
%ADD13RoundRect,0.250000X0.262500X0.450000X-0.262500X0.450000X-0.262500X-0.450000X0.262500X-0.450000X0*%
%ADD14R,1.700000X1.700000*%
%ADD15O,1.700000X1.700000*%
%ADD16RoundRect,0.250000X-0.475000X0.250000X-0.475000X-0.250000X0.475000X-0.250000X0.475000X0.250000X0*%
%ADD17RoundRect,0.250000X-0.262500X-0.450000X0.262500X-0.450000X0.262500X0.450000X-0.262500X0.450000X0*%
%ADD18C,2.500000*%
%ADD19R,1.350000X0.400000*%
%ADD20RoundRect,0.273000X-0.677000X0.637000X-0.677000X-0.637000X0.677000X-0.637000X0.677000X0.637000X0*%
%ADD21O,1.250000X1.050000*%
%ADD22RoundRect,0.250000X0.250000X0.475000X-0.250000X0.475000X-0.250000X-0.475000X0.250000X-0.475000X0*%
%ADD23R,1.000000X0.700000*%
%ADD24R,1.500000X2.000000*%
%ADD25R,3.800000X2.000000*%
%ADD26R,2.300000X1.500000*%
%ADD27O,2.300000X1.500000*%
%ADD28C,1.446000*%
%ADD29C,2.700000*%
%ADD30RoundRect,0.250000X-1.412500X-0.550000X1.412500X-0.550000X1.412500X0.550000X-1.412500X0.550000X0*%
%ADD31RoundRect,0.250000X-0.250000X-0.475000X0.250000X-0.475000X0.250000X0.475000X-0.250000X0.475000X0*%
%ADD32R,0.750000X1.000000*%
%ADD33RoundRect,0.243750X-0.243750X-0.456250X0.243750X-0.456250X0.243750X0.456250X-0.243750X0.456250X0*%
%ADD34RoundRect,0.150000X-0.825000X-0.150000X0.825000X-0.150000X0.825000X0.150000X-0.825000X0.150000X0*%
%ADD35R,1.200000X1.400000*%
%ADD36C,2.000000*%
%ADD37RoundRect,0.250000X0.475000X-0.250000X0.475000X0.250000X-0.475000X0.250000X-0.475000X-0.250000X0*%
G04 APERTURE END LIST*
D10*
X106743200Y-148615406D03*
X106743200Y-147345406D03*
X106743200Y-146075406D03*
X106743200Y-144805406D03*
X106743200Y-143535406D03*
X106743200Y-142265406D03*
X106743200Y-140995406D03*
X106743200Y-139725406D03*
X106743200Y-138455406D03*
X106743200Y-137185406D03*
X106743200Y-135915406D03*
X106743200Y-134645406D03*
X106743200Y-133375406D03*
X106743200Y-132105406D03*
D11*
X103713200Y-130855406D03*
X102443200Y-130855406D03*
X101173200Y-130855406D03*
X99903200Y-130855406D03*
X98633200Y-130855406D03*
X97363200Y-130855406D03*
X96093200Y-130855406D03*
X94823200Y-130855406D03*
X93553200Y-130855406D03*
X92283200Y-130855406D03*
D10*
X89243200Y-132105406D03*
X89243200Y-133375406D03*
X89243200Y-134645406D03*
X89243200Y-135915406D03*
X89243200Y-137185406D03*
X89243200Y-138455406D03*
X89243200Y-139725406D03*
X89243200Y-140995406D03*
X89243200Y-142265406D03*
X89243200Y-143535406D03*
X89243200Y-144805406D03*
X89243200Y-146075406D03*
X89243200Y-147345406D03*
X89243200Y-148615406D03*
D12*
X98673200Y-141275406D03*
X97148200Y-139750406D03*
X100198200Y-141275406D03*
X100198200Y-139750406D03*
X97148200Y-142800406D03*
X100198200Y-142800406D03*
X98673200Y-139750406D03*
X97148200Y-141275406D03*
X98673200Y-142800406D03*
D13*
X111131500Y-139734000D03*
X109306500Y-139734000D03*
D14*
X75666600Y-154025600D03*
D15*
X73126600Y-154025600D03*
X75666600Y-151485600D03*
X73126600Y-151485600D03*
D16*
X80645000Y-131572000D03*
X80645000Y-133472000D03*
D17*
X109330000Y-144754600D03*
X111155000Y-144754600D03*
D13*
X90200000Y-127855000D03*
X88375000Y-127855000D03*
D18*
X55482000Y-109381000D03*
D19*
X56853200Y-119868000D03*
X56853200Y-120518000D03*
X56853200Y-121168000D03*
X56853200Y-121818000D03*
X56853200Y-122468000D03*
D20*
X54178200Y-124768000D03*
D21*
X57078200Y-123593000D03*
D20*
X54178200Y-117568000D03*
D21*
X57078200Y-118743000D03*
D22*
X111182000Y-147412500D03*
X109282000Y-147412500D03*
D23*
X77338202Y-144234092D03*
X77338202Y-142334092D03*
X74938202Y-143284092D03*
X77338200Y-148296600D03*
X77338200Y-146396600D03*
X74938200Y-147346600D03*
D17*
X79476200Y-147320000D03*
X81301200Y-147320000D03*
X79476200Y-143319500D03*
X81301200Y-143319500D03*
D13*
X72620700Y-147372000D03*
X70795700Y-147372000D03*
X70024000Y-126746000D03*
X68199000Y-126746000D03*
D24*
X76211400Y-116599500D03*
X78511400Y-116599500D03*
D25*
X78511400Y-110299500D03*
D24*
X80811400Y-116599500D03*
D13*
X66103300Y-150977600D03*
X64278300Y-150977600D03*
D26*
X76654900Y-136686000D03*
D27*
X76654900Y-134146000D03*
X76654900Y-131606000D03*
D18*
X113013000Y-109508000D03*
X113013000Y-153704000D03*
X55482000Y-153704000D03*
D28*
X59372500Y-142176500D03*
X61152500Y-141156500D03*
X59372500Y-140136500D03*
X61152500Y-139116500D03*
X59372500Y-138096500D03*
X61152500Y-137076500D03*
X59372500Y-136056500D03*
X61152500Y-135036500D03*
X65962500Y-145466500D03*
X65962500Y-143176500D03*
X65962500Y-134036500D03*
X65962500Y-131746500D03*
D29*
X60392500Y-130476500D03*
X60392500Y-146736500D03*
D13*
X72568200Y-143243500D03*
X70743200Y-143243500D03*
D16*
X80670400Y-136682400D03*
X80670400Y-138582400D03*
X83743800Y-115194000D03*
X83743800Y-117094000D03*
D13*
X99090000Y-127855000D03*
X97265000Y-127855000D03*
D23*
X94655000Y-127442000D03*
X94655000Y-125542000D03*
X92255000Y-126492000D03*
X102050000Y-125542000D03*
X102050000Y-127442000D03*
X104450000Y-126492000D03*
D30*
X77396300Y-122631200D03*
X82471300Y-122631200D03*
D17*
X97265000Y-125569000D03*
X99090000Y-125569000D03*
D31*
X109301200Y-142189200D03*
X111201200Y-142189200D03*
D32*
X109250000Y-130638011D03*
X109250000Y-136638011D03*
X113000000Y-136638011D03*
X113000000Y-130638011D03*
D22*
X63942000Y-121920000D03*
X62042000Y-121920000D03*
D16*
X66167000Y-124460000D03*
X66167000Y-126360000D03*
D14*
X63246000Y-114300000D03*
D15*
X60706000Y-114300000D03*
X63246000Y-111760000D03*
X60706000Y-111760000D03*
D22*
X63500000Y-117475000D03*
X61600000Y-117475000D03*
D33*
X66262000Y-108666000D03*
X68137000Y-108666000D03*
D13*
X71962000Y-111092000D03*
X70137000Y-111092000D03*
X71962000Y-108666000D03*
X70137000Y-108666000D03*
D34*
X66538400Y-113414600D03*
X66538400Y-114684600D03*
X66538400Y-115954600D03*
X66538400Y-117224600D03*
X66538400Y-118494600D03*
X66538400Y-119764600D03*
X66538400Y-121034600D03*
X66538400Y-122304600D03*
X71488400Y-122304600D03*
X71488400Y-121034600D03*
X71488400Y-119764600D03*
X71488400Y-118494600D03*
X71488400Y-117224600D03*
X71488400Y-115954600D03*
X71488400Y-114684600D03*
X71488400Y-113414600D03*
D35*
X62142000Y-124503000D03*
X62142000Y-126703000D03*
X63842000Y-126703000D03*
X63842000Y-124503000D03*
D36*
X89052400Y-110032800D03*
D33*
X66262000Y-111092000D03*
X68137000Y-111092000D03*
D37*
X59817000Y-126868000D03*
X59817000Y-124968000D03*
D32*
X112991593Y-126444000D03*
X112991593Y-120444000D03*
X109241593Y-126444000D03*
X109241593Y-120444000D03*
M02*
