%TF.GenerationSoftware,KiCad,Pcbnew,(5.1.9-0-10_14)*%
%TF.CreationDate,2021-02-05T22:05:55+01:00*%
%TF.ProjectId,itho_rv_sensor,6974686f-5f72-4765-9f73-656e736f722e,rev?*%
%TF.SameCoordinates,Original*%
%TF.FileFunction,Profile,NP*%
%FSLAX46Y46*%
G04 Gerber Fmt 4.6, Leading zero omitted, Abs format (unit mm)*
G04 Created by KiCad (PCBNEW (5.1.9-0-10_14)) date 2021-02-05 22:05:55*
%MOMM*%
%LPD*%
G01*
G04 APERTURE LIST*
%TA.AperFunction,Profile*%
%ADD10C,0.050000*%
%TD*%
G04 APERTURE END LIST*
D10*
X130048000Y-110871000D02*
X130048000Y-108331000D01*
X130048000Y-95885000D02*
X130048000Y-93345000D01*
X136906000Y-97663000D02*
X136906000Y-92075000D01*
X138684000Y-97663000D02*
X136906000Y-97663000D01*
X138684000Y-98933000D02*
X138684000Y-97663000D01*
X136906000Y-98933000D02*
X138684000Y-98933000D01*
X136906000Y-105283000D02*
X136906000Y-98933000D01*
X138684000Y-105283000D02*
X136906000Y-105283000D01*
X138684000Y-106553000D02*
X138684000Y-105283000D01*
X136906000Y-106553000D02*
X138684000Y-106553000D01*
X136906000Y-112141000D02*
X136906000Y-106553000D01*
X130048000Y-95885000D02*
G75*
G02*
X128778000Y-97155000I-1270000J0D01*
G01*
X128778000Y-107061000D02*
G75*
G02*
X130048000Y-108331000I0J-1270000D01*
G01*
X131318000Y-112141000D02*
G75*
G02*
X130048000Y-110871000I0J1270000D01*
G01*
X130048000Y-93345000D02*
G75*
G02*
X131318000Y-92075000I1270000J0D01*
G01*
X128778000Y-107061000D02*
X116713000Y-107061000D01*
X116713000Y-107061000D02*
G75*
G02*
X114173000Y-104521000I0J2540000D01*
G01*
X116713000Y-97155000D02*
X128778000Y-97155000D01*
X114173000Y-99695000D02*
G75*
G02*
X116713000Y-97155000I2540000J0D01*
G01*
X131318000Y-112141000D02*
X136906000Y-112141000D01*
X114173000Y-99695000D02*
X114173000Y-104521000D01*
X136906000Y-92075000D02*
X131318000Y-92075000D01*
M02*
