%TF.GenerationSoftware,KiCad,Pcbnew,(5.1.9-0-10_14)*%
%TF.CreationDate,2021-02-05T22:05:55+01:00*%
%TF.ProjectId,itho_rv_sensor,6974686f-5f72-4765-9f73-656e736f722e,rev?*%
%TF.SameCoordinates,Original*%
%TF.FileFunction,Soldermask,Top*%
%TF.FilePolarity,Negative*%
%FSLAX46Y46*%
G04 Gerber Fmt 4.6, Leading zero omitted, Abs format (unit mm)*
G04 Created by KiCad (PCBNEW (5.1.9-0-10_14)) date 2021-02-05 22:05:55*
%MOMM*%
%LPD*%
G01*
G04 APERTURE LIST*
%ADD10R,0.550000X0.250000*%
%ADD11C,0.100000*%
%ADD12R,1.500000X1.000000*%
%ADD13O,1.700000X1.700000*%
%ADD14R,1.700000X1.700000*%
G04 APERTURE END LIST*
%TO.C,R5*%
G36*
G01*
X126765000Y-101198000D02*
X126765000Y-101748000D01*
G75*
G02*
X126565000Y-101948000I-200000J0D01*
G01*
X126165000Y-101948000D01*
G75*
G02*
X125965000Y-101748000I0J200000D01*
G01*
X125965000Y-101198000D01*
G75*
G02*
X126165000Y-100998000I200000J0D01*
G01*
X126565000Y-100998000D01*
G75*
G02*
X126765000Y-101198000I0J-200000D01*
G01*
G37*
G36*
G01*
X128415000Y-101198000D02*
X128415000Y-101748000D01*
G75*
G02*
X128215000Y-101948000I-200000J0D01*
G01*
X127815000Y-101948000D01*
G75*
G02*
X127615000Y-101748000I0J200000D01*
G01*
X127615000Y-101198000D01*
G75*
G02*
X127815000Y-100998000I200000J0D01*
G01*
X128215000Y-100998000D01*
G75*
G02*
X128415000Y-101198000I0J-200000D01*
G01*
G37*
%TD*%
%TO.C,R4*%
G36*
G01*
X127616000Y-100097000D02*
X127616000Y-99547000D01*
G75*
G02*
X127816000Y-99347000I200000J0D01*
G01*
X128216000Y-99347000D01*
G75*
G02*
X128416000Y-99547000I0J-200000D01*
G01*
X128416000Y-100097000D01*
G75*
G02*
X128216000Y-100297000I-200000J0D01*
G01*
X127816000Y-100297000D01*
G75*
G02*
X127616000Y-100097000I0J200000D01*
G01*
G37*
G36*
G01*
X125966000Y-100097000D02*
X125966000Y-99547000D01*
G75*
G02*
X126166000Y-99347000I200000J0D01*
G01*
X126566000Y-99347000D01*
G75*
G02*
X126766000Y-99547000I0J-200000D01*
G01*
X126766000Y-100097000D01*
G75*
G02*
X126566000Y-100297000I-200000J0D01*
G01*
X126166000Y-100297000D01*
G75*
G02*
X125966000Y-100097000I0J200000D01*
G01*
G37*
%TD*%
%TO.C,R3*%
G36*
G01*
X126765000Y-104373000D02*
X126765000Y-104923000D01*
G75*
G02*
X126565000Y-105123000I-200000J0D01*
G01*
X126165000Y-105123000D01*
G75*
G02*
X125965000Y-104923000I0J200000D01*
G01*
X125965000Y-104373000D01*
G75*
G02*
X126165000Y-104173000I200000J0D01*
G01*
X126565000Y-104173000D01*
G75*
G02*
X126765000Y-104373000I0J-200000D01*
G01*
G37*
G36*
G01*
X128415000Y-104373000D02*
X128415000Y-104923000D01*
G75*
G02*
X128215000Y-105123000I-200000J0D01*
G01*
X127815000Y-105123000D01*
G75*
G02*
X127615000Y-104923000I0J200000D01*
G01*
X127615000Y-104373000D01*
G75*
G02*
X127815000Y-104173000I200000J0D01*
G01*
X128215000Y-104173000D01*
G75*
G02*
X128415000Y-104373000I0J-200000D01*
G01*
G37*
%TD*%
%TO.C,R2*%
G36*
G01*
X124504000Y-100097000D02*
X124504000Y-99547000D01*
G75*
G02*
X124704000Y-99347000I200000J0D01*
G01*
X125104000Y-99347000D01*
G75*
G02*
X125304000Y-99547000I0J-200000D01*
G01*
X125304000Y-100097000D01*
G75*
G02*
X125104000Y-100297000I-200000J0D01*
G01*
X124704000Y-100297000D01*
G75*
G02*
X124504000Y-100097000I0J200000D01*
G01*
G37*
G36*
G01*
X122854000Y-100097000D02*
X122854000Y-99547000D01*
G75*
G02*
X123054000Y-99347000I200000J0D01*
G01*
X123454000Y-99347000D01*
G75*
G02*
X123654000Y-99547000I0J-200000D01*
G01*
X123654000Y-100097000D01*
G75*
G02*
X123454000Y-100297000I-200000J0D01*
G01*
X123054000Y-100297000D01*
G75*
G02*
X122854000Y-100097000I0J200000D01*
G01*
G37*
%TD*%
%TO.C,R1*%
G36*
G01*
X124504000Y-104923000D02*
X124504000Y-104373000D01*
G75*
G02*
X124704000Y-104173000I200000J0D01*
G01*
X125104000Y-104173000D01*
G75*
G02*
X125304000Y-104373000I0J-200000D01*
G01*
X125304000Y-104923000D01*
G75*
G02*
X125104000Y-105123000I-200000J0D01*
G01*
X124704000Y-105123000D01*
G75*
G02*
X124504000Y-104923000I0J200000D01*
G01*
G37*
G36*
G01*
X122854000Y-104923000D02*
X122854000Y-104373000D01*
G75*
G02*
X123054000Y-104173000I200000J0D01*
G01*
X123454000Y-104173000D01*
G75*
G02*
X123654000Y-104373000I0J-200000D01*
G01*
X123654000Y-104923000D01*
G75*
G02*
X123454000Y-105123000I-200000J0D01*
G01*
X123054000Y-105123000D01*
G75*
G02*
X122854000Y-104923000I0J200000D01*
G01*
G37*
%TD*%
%TO.C,C1*%
G36*
G01*
X123567000Y-101923000D02*
X123067000Y-101923000D01*
G75*
G02*
X122842000Y-101698000I0J225000D01*
G01*
X122842000Y-101248000D01*
G75*
G02*
X123067000Y-101023000I225000J0D01*
G01*
X123567000Y-101023000D01*
G75*
G02*
X123792000Y-101248000I0J-225000D01*
G01*
X123792000Y-101698000D01*
G75*
G02*
X123567000Y-101923000I-225000J0D01*
G01*
G37*
G36*
G01*
X123567000Y-103473000D02*
X123067000Y-103473000D01*
G75*
G02*
X122842000Y-103248000I0J225000D01*
G01*
X122842000Y-102798000D01*
G75*
G02*
X123067000Y-102573000I225000J0D01*
G01*
X123567000Y-102573000D01*
G75*
G02*
X123792000Y-102798000I0J-225000D01*
G01*
X123792000Y-103248000D01*
G75*
G02*
X123567000Y-103473000I-225000J0D01*
G01*
G37*
%TD*%
D10*
%TO.C,U1*%
X118967000Y-101485000D03*
X118967000Y-101985000D03*
X118967000Y-102485000D03*
X118967000Y-102985000D03*
X121317000Y-102985000D03*
X121317000Y-102485000D03*
X121317000Y-101985000D03*
X121317000Y-101485000D03*
D11*
G36*
X120642000Y-103085000D02*
G01*
X119642000Y-103085000D01*
X119642000Y-101685000D01*
X119942000Y-101385000D01*
X120642000Y-101385000D01*
X120642000Y-103085000D01*
G37*
%TD*%
D12*
%TO.C,Address*%
X115951000Y-101981000D03*
D11*
G36*
X116700398Y-103281000D02*
G01*
X116700398Y-103305534D01*
X116695588Y-103354365D01*
X116686016Y-103402490D01*
X116671772Y-103449445D01*
X116652995Y-103494778D01*
X116629864Y-103538051D01*
X116602604Y-103578850D01*
X116571476Y-103616779D01*
X116536779Y-103651476D01*
X116498850Y-103682604D01*
X116458051Y-103709864D01*
X116414778Y-103732995D01*
X116369445Y-103751772D01*
X116322490Y-103766016D01*
X116274365Y-103775588D01*
X116225534Y-103780398D01*
X116201000Y-103780398D01*
X116201000Y-103781000D01*
X115701000Y-103781000D01*
X115701000Y-103780398D01*
X115676466Y-103780398D01*
X115627635Y-103775588D01*
X115579510Y-103766016D01*
X115532555Y-103751772D01*
X115487222Y-103732995D01*
X115443949Y-103709864D01*
X115403150Y-103682604D01*
X115365221Y-103651476D01*
X115330524Y-103616779D01*
X115299396Y-103578850D01*
X115272136Y-103538051D01*
X115249005Y-103494778D01*
X115230228Y-103449445D01*
X115215984Y-103402490D01*
X115206412Y-103354365D01*
X115201602Y-103305534D01*
X115201602Y-103281000D01*
X115201000Y-103281000D01*
X115201000Y-102731000D01*
X116701000Y-102731000D01*
X116701000Y-103281000D01*
X116700398Y-103281000D01*
G37*
G36*
X115201000Y-101231000D02*
G01*
X115201000Y-100681000D01*
X115201602Y-100681000D01*
X115201602Y-100656466D01*
X115206412Y-100607635D01*
X115215984Y-100559510D01*
X115230228Y-100512555D01*
X115249005Y-100467222D01*
X115272136Y-100423949D01*
X115299396Y-100383150D01*
X115330524Y-100345221D01*
X115365221Y-100310524D01*
X115403150Y-100279396D01*
X115443949Y-100252136D01*
X115487222Y-100229005D01*
X115532555Y-100210228D01*
X115579510Y-100195984D01*
X115627635Y-100186412D01*
X115676466Y-100181602D01*
X115701000Y-100181602D01*
X115701000Y-100181000D01*
X116201000Y-100181000D01*
X116201000Y-100181602D01*
X116225534Y-100181602D01*
X116274365Y-100186412D01*
X116322490Y-100195984D01*
X116369445Y-100210228D01*
X116414778Y-100229005D01*
X116458051Y-100252136D01*
X116498850Y-100279396D01*
X116536779Y-100310524D01*
X116571476Y-100345221D01*
X116602604Y-100383150D01*
X116629864Y-100423949D01*
X116652995Y-100467222D01*
X116671772Y-100512555D01*
X116686016Y-100559510D01*
X116695588Y-100607635D01*
X116700398Y-100656466D01*
X116700398Y-100681000D01*
X116701000Y-100681000D01*
X116701000Y-101231000D01*
X115201000Y-101231000D01*
G37*
%TD*%
D13*
%TO.C,J1*%
X134620000Y-107188000D03*
X132080000Y-107188000D03*
X134620000Y-104648000D03*
X132080000Y-104648000D03*
X134620000Y-102108000D03*
X132080000Y-102108000D03*
X134620000Y-99568000D03*
X132080000Y-99568000D03*
X134620000Y-97028000D03*
D14*
X132080000Y-97028000D03*
%TD*%
M02*
