M48
; DRILL file {KiCad (5.1.9-0-10_14)} date Thursday, January 28, 2021 at 01:50:11 PM
; FORMAT={-:-/ absolute / metric / decimal}
; #@! TF.CreationDate,2021-01-28T13:50:11+01:00
; #@! TF.GenerationSoftware,Kicad,Pcbnew,(5.1.9-0-10_14)
FMAT,2
METRIC
T1C0.400
T2C1.000
T3C0.991
T4C3.200
%
G90
G05
T1
X84.531Y-144.805
X85.039Y-143.561
X89.129Y-133.375
X89.205Y-142.265
X89.586Y-146.075
X90.424Y-122.301
X91.11Y-140.843
X91.161Y-136.728
X92.456Y-117.602
X95.25Y-139.7
X95.25Y-141.224
X95.25Y-142.748
X95.479Y-132.715
X95.733Y-127.836
X96.571Y-135.331
X97.028Y-139.7
X97.028Y-141.224
X97.028Y-142.748
X97.485Y-121.031
X97.917Y-106.68
X97.917Y-108.458
X97.917Y-109.982
X97.917Y-112.014
X98.806Y-139.7
X98.806Y-141.224
X98.806Y-142.748
X99.187Y-105.918
X99.187Y-107.442
X99.187Y-109.22
X99.187Y-110.998
X99.187Y-113.03
X100.457Y-112.014
X100.965Y-114.046
X101.981Y-115.57
X102.997Y-114.046
X104.267Y-115.57
X104.623Y-121.793
X104.648Y-120.142
X105.283Y-114.046
X106.553Y-115.57
X107.061Y-137.668
X107.569Y-114.046
X108.229Y-143.002
X108.585Y-115.189
X109.601Y-112.014
X109.855Y-114.046
X110.973Y-120.015
X111.125Y-105.918
X111.125Y-107.442
X111.125Y-109.22
X111.125Y-110.998
X111.125Y-113.03
X112.243Y-121.26
X112.395Y-106.68
X112.395Y-108.204
X112.395Y-109.982
X112.395Y-112.014
X112.738Y-125.768
X113.182Y-129.464
X115.252Y-121.666
X115.252Y-121.666
X115.811Y-138.036
X116.434Y-135.407
X116.697Y-120.539
X118.618Y-127.698
X122.682Y-127.698
T2
X85.725Y-107.798
X85.725Y-110.338
X85.725Y-112.878
X85.725Y-115.418
X85.725Y-117.958
X85.725Y-120.498
X85.725Y-123.038
X105.181Y-109.474
X116.18Y-142.951
X118.72Y-142.951
X119.507Y-130.175
X119.507Y-132.715
X119.507Y-135.255
X119.507Y-137.795
X121.26Y-142.951
X122.047Y-130.175
X122.047Y-132.715
X122.047Y-135.255
X122.047Y-137.795
T3
X89.383Y-121.412
X90.399Y-116.332
X91.415Y-121.412
T4
X94.488Y-113.538
X121.63Y-108.12
T0
M30
