M48
; DRILL file {KiCad (6.0.6-0)} date 2022 June 29, Wednesday 17:43:45
; FORMAT={-:-/ absolute / metric / decimal}
; #@! TF.CreationDate,2022-06-29T17:43:45+02:00
; #@! TF.GenerationSoftware,Kicad,Pcbnew,(6.0.6-0)
; #@! TF.FileFunction,NonPlated,1,4,NPTH
FMAT,2
METRIC
; #@! TA.AperFunction,NonPlated,NPTH,ComponentDrill
T1C0.991
; #@! TA.AperFunction,NonPlated,NPTH,ComponentDrill
T2C3.200
%
G90
G05
T1
X28.464Y-24.933
X28.464Y-84.433
X28.464Y-143.933
X33.544Y-23.917
X33.544Y-25.949
X33.544Y-83.417
X33.544Y-85.449
X33.544Y-142.917
X33.544Y-144.949
X76.764Y-24.933
X76.764Y-84.433
X76.764Y-143.933
X81.844Y-23.917
X81.844Y-25.949
X81.844Y-83.417
X81.844Y-85.449
X81.844Y-142.917
X81.844Y-144.949
T2
X33.456Y-30.57
X33.456Y-90.07
X33.456Y-149.57
X60.598Y-25.152
X60.598Y-84.652
X60.598Y-144.152
X81.756Y-30.57
X81.756Y-90.07
X81.756Y-149.57
X108.898Y-25.152
X108.898Y-84.652
X108.898Y-144.152
T0
M30
