M48
; DRILL file {KiCad (6.0.6-0)} date 2022 June 29, Wednesday 17:43:45
; FORMAT={-:-/ absolute / metric / decimal}
; #@! TF.CreationDate,2022-06-29T17:43:45+02:00
; #@! TF.GenerationSoftware,Kicad,Pcbnew,(6.0.6-0)
; #@! TF.FileFunction,Plated,1,4,PTH
FMAT,2
METRIC
; #@! TA.AperFunction,Plated,PTH,ViaDrill
T1C0.400
; #@! TA.AperFunction,Plated,PTH,ComponentDrill
T2C1.000
%
G90
G05
T1
X23.499Y-61.837
X23.499Y-121.337
X23.499Y-180.837
X24.007Y-60.593
X24.007Y-120.093
X24.007Y-179.593
X25.709Y-45.302
X25.709Y-104.802
X25.709Y-164.302
X28.122Y-55.462
X28.122Y-65.622
X28.122Y-114.962
X28.122Y-125.122
X28.122Y-174.462
X28.122Y-184.622
X28.249Y-50.382
X28.249Y-109.882
X28.249Y-169.382
X28.277Y-64.377
X28.277Y-123.877
X28.277Y-183.377
X28.376Y-32.704
X28.376Y-92.204
X28.376Y-151.704
X28.63Y-53.43
X28.63Y-112.93
X28.63Y-172.43
X30.493Y-46.327
X30.493Y-105.827
X30.493Y-165.327
X32.694Y-40.349
X32.694Y-99.849
X32.694Y-159.349
X34.116Y-56.783
X34.116Y-58.307
X34.116Y-59.831
X34.116Y-116.283
X34.116Y-117.807
X34.116Y-119.331
X34.116Y-175.783
X34.116Y-177.307
X34.116Y-178.831
X34.472Y-50.7
X34.472Y-110.2
X34.472Y-169.7
X35.615Y-56.783
X35.615Y-58.307
X35.615Y-59.831
X35.615Y-116.283
X35.615Y-117.807
X35.615Y-119.331
X35.615Y-175.783
X35.615Y-177.307
X35.615Y-178.831
X37.139Y-56.783
X37.139Y-58.307
X37.139Y-59.831
X37.139Y-116.283
X37.139Y-117.807
X37.139Y-119.331
X37.139Y-175.783
X37.139Y-177.307
X37.139Y-178.831
X37.52Y-40.349
X37.52Y-99.849
X37.52Y-159.349
X38.155Y-22.95
X38.155Y-24.474
X38.155Y-26.125
X38.155Y-27.903
X38.155Y-29.554
X38.155Y-31.205
X38.155Y-82.45
X38.155Y-83.974
X38.155Y-85.625
X38.155Y-87.403
X38.155Y-89.054
X38.155Y-90.705
X38.155Y-141.95
X38.155Y-143.474
X38.155Y-145.125
X38.155Y-146.903
X38.155Y-148.554
X38.155Y-150.205
X39.933Y-31.205
X39.933Y-90.705
X39.933Y-150.205
X40.06Y-29.046
X40.06Y-88.546
X40.06Y-148.046
X40.695Y-49.747
X40.695Y-109.247
X40.695Y-168.747
X41.4Y-55.6
X41.4Y-115.1
X41.4Y-174.6
X41.457Y-31.205
X41.457Y-90.705
X41.457Y-150.205
X42.346Y-38.952
X42.346Y-98.452
X42.346Y-157.952
X43.108Y-31.205
X43.108Y-90.705
X43.108Y-150.205
X43.87Y-43.524
X43.87Y-103.024
X43.87Y-162.524
X44.886Y-31.205
X44.886Y-90.705
X44.886Y-150.205
X45.14Y-64.352
X45.14Y-65.622
X45.14Y-123.852
X45.14Y-125.122
X45.14Y-183.352
X45.14Y-184.622
X45.817Y-54.217
X45.817Y-113.717
X45.817Y-173.217
X46.537Y-31.205
X46.537Y-90.705
X46.537Y-150.205
X47.143Y-56.757
X47.143Y-116.257
X47.143Y-175.757
X47.599Y-65.783
X47.599Y-125.283
X47.599Y-184.783
X48.1Y-44.7
X48.1Y-104.2
X48.1Y-163.7
X48.188Y-29.046
X48.188Y-31.205
X48.188Y-88.546
X48.188Y-90.705
X48.188Y-148.046
X48.188Y-150.205
X49.5Y-41.2
X49.5Y-51.3
X49.5Y-100.7
X49.5Y-110.8
X49.5Y-160.2
X49.5Y-170.3
X50.093Y-22.95
X50.093Y-24.474
X50.093Y-26.125
X50.093Y-27.903
X50.093Y-29.554
X50.093Y-31.205
X50.093Y-82.45
X50.093Y-83.974
X50.093Y-85.625
X50.093Y-87.403
X50.093Y-89.054
X50.093Y-90.705
X50.093Y-141.95
X50.093Y-143.474
X50.093Y-145.125
X50.093Y-146.903
X50.093Y-148.554
X50.093Y-150.205
X50.6Y-41.2
X50.6Y-51.3
X50.6Y-100.7
X50.6Y-110.8
X50.6Y-160.2
X50.6Y-170.3
X51.0Y-56.4
X51.0Y-115.9
X51.0Y-175.4
X51.363Y-35.904
X51.363Y-95.404
X51.363Y-154.904
X51.7Y-41.2
X51.7Y-51.3
X51.7Y-100.7
X51.7Y-110.8
X51.7Y-160.2
X51.7Y-170.3
X52.1Y-49.6
X52.1Y-109.1
X52.1Y-168.6
X54.2Y-38.571
X54.2Y-98.071
X54.2Y-157.571
X55.665Y-37.571
X55.665Y-97.071
X55.665Y-156.571
X57.586Y-44.73
X57.586Y-104.23
X57.586Y-163.731
X59.5Y-37.5
X59.5Y-97.0
X59.5Y-156.5
X59.781Y-33.719
X59.781Y-93.219
X59.781Y-152.719
X61.65Y-36.793
X61.65Y-44.73
X61.65Y-96.293
X61.65Y-104.23
X61.65Y-155.793
X61.65Y-163.731
X71.799Y-61.837
X71.799Y-121.337
X71.799Y-180.837
X72.307Y-60.593
X72.307Y-120.093
X72.307Y-179.593
X74.009Y-45.302
X74.009Y-104.802
X74.009Y-164.302
X76.422Y-55.462
X76.422Y-65.622
X76.422Y-114.962
X76.422Y-125.122
X76.422Y-174.462
X76.422Y-184.622
X76.549Y-50.382
X76.549Y-109.882
X76.549Y-169.382
X76.577Y-64.377
X76.577Y-123.877
X76.577Y-183.377
X76.676Y-32.704
X76.676Y-92.204
X76.676Y-151.704
X76.93Y-53.43
X76.93Y-112.93
X76.93Y-172.43
X78.793Y-46.327
X78.793Y-105.827
X78.793Y-165.327
X80.994Y-40.349
X80.994Y-99.849
X80.994Y-159.349
X82.416Y-56.783
X82.416Y-58.307
X82.416Y-59.831
X82.416Y-116.283
X82.416Y-117.807
X82.416Y-119.331
X82.416Y-175.783
X82.416Y-177.307
X82.416Y-178.831
X82.772Y-50.7
X82.772Y-110.2
X82.772Y-169.7
X83.915Y-56.783
X83.915Y-58.307
X83.915Y-59.831
X83.915Y-116.283
X83.915Y-117.807
X83.915Y-119.331
X83.915Y-175.783
X83.915Y-177.307
X83.915Y-178.831
X85.439Y-56.783
X85.439Y-58.307
X85.439Y-59.831
X85.439Y-116.283
X85.439Y-117.807
X85.439Y-119.331
X85.439Y-175.783
X85.439Y-177.307
X85.439Y-178.831
X85.82Y-40.349
X85.82Y-99.849
X85.82Y-159.349
X86.455Y-22.95
X86.455Y-24.474
X86.455Y-26.125
X86.455Y-27.903
X86.455Y-29.554
X86.455Y-31.205
X86.455Y-82.45
X86.455Y-83.974
X86.455Y-85.625
X86.455Y-87.403
X86.455Y-89.054
X86.455Y-90.705
X86.455Y-141.95
X86.455Y-143.474
X86.455Y-145.125
X86.455Y-146.903
X86.455Y-148.554
X86.455Y-150.205
X88.233Y-31.205
X88.233Y-90.705
X88.233Y-150.205
X88.36Y-29.046
X88.36Y-88.546
X88.36Y-148.046
X88.995Y-49.747
X88.995Y-109.247
X88.995Y-168.747
X89.7Y-55.6
X89.7Y-115.1
X89.7Y-174.6
X89.757Y-31.205
X89.757Y-90.705
X89.757Y-150.205
X90.646Y-38.952
X90.646Y-98.452
X90.646Y-157.952
X91.408Y-31.205
X91.408Y-90.705
X91.408Y-150.205
X92.17Y-43.524
X92.17Y-103.024
X92.17Y-162.524
X93.186Y-31.205
X93.186Y-90.705
X93.186Y-150.205
X93.44Y-64.352
X93.44Y-65.622
X93.44Y-123.852
X93.44Y-125.122
X93.44Y-183.352
X93.44Y-184.622
X94.117Y-54.217
X94.117Y-113.717
X94.117Y-173.217
X94.837Y-31.205
X94.837Y-90.705
X94.837Y-150.205
X95.443Y-56.757
X95.443Y-116.257
X95.443Y-175.757
X95.899Y-65.783
X95.899Y-125.283
X95.899Y-184.783
X96.4Y-44.7
X96.4Y-104.2
X96.4Y-163.7
X96.488Y-29.046
X96.488Y-31.205
X96.488Y-88.546
X96.488Y-90.705
X96.488Y-148.046
X96.488Y-150.205
X97.8Y-41.2
X97.8Y-51.3
X97.8Y-100.7
X97.8Y-110.8
X97.8Y-160.2
X97.8Y-170.3
X98.393Y-22.95
X98.393Y-24.474
X98.393Y-26.125
X98.393Y-27.903
X98.393Y-29.554
X98.393Y-31.205
X98.393Y-82.45
X98.393Y-83.974
X98.393Y-85.625
X98.393Y-87.403
X98.393Y-89.054
X98.393Y-90.705
X98.393Y-141.95
X98.393Y-143.474
X98.393Y-145.125
X98.393Y-146.903
X98.393Y-148.554
X98.393Y-150.205
X98.9Y-41.2
X98.9Y-51.3
X98.9Y-100.7
X98.9Y-110.8
X98.9Y-160.2
X98.9Y-170.3
X99.3Y-56.4
X99.3Y-115.9
X99.3Y-175.4
X99.663Y-35.904
X99.663Y-95.404
X99.663Y-154.904
X100.0Y-41.2
X100.0Y-51.3
X100.0Y-100.7
X100.0Y-110.8
X100.0Y-160.2
X100.0Y-170.3
X100.4Y-49.6
X100.4Y-109.1
X100.4Y-168.6
X102.5Y-38.571
X102.5Y-98.071
X102.5Y-157.571
X103.965Y-37.571
X103.965Y-97.071
X103.965Y-156.571
X105.886Y-44.73
X105.886Y-104.23
X105.886Y-163.731
X107.8Y-37.5
X107.8Y-97.0
X107.8Y-156.5
X108.081Y-33.719
X108.081Y-93.219
X108.081Y-152.719
X109.95Y-36.793
X109.95Y-44.73
X109.95Y-96.293
X109.95Y-104.23
X109.95Y-155.793
X109.95Y-163.731
T2
X24.693Y-24.83
X24.693Y-27.37
X24.693Y-29.91
X24.693Y-32.45
X24.693Y-34.99
X24.693Y-37.53
X24.693Y-40.07
X24.693Y-84.33
X24.693Y-86.87
X24.693Y-89.41
X24.693Y-91.95
X24.693Y-94.49
X24.693Y-97.03
X24.693Y-99.57
X24.693Y-143.83
X24.693Y-146.37
X24.693Y-148.91
X24.693Y-151.45
X24.693Y-153.99
X24.693Y-156.53
X24.693Y-159.07
X44.15Y-26.283
X44.15Y-85.783
X44.15Y-145.283
X50.26Y-68.96
X50.26Y-71.5
X50.26Y-128.46
X50.26Y-131.0
X50.26Y-187.96
X50.26Y-190.5
X52.8Y-68.96
X52.8Y-71.5
X52.8Y-128.46
X52.8Y-131.0
X52.8Y-187.96
X52.8Y-190.5
X55.148Y-59.983
X55.148Y-119.483
X55.148Y-178.983
X57.688Y-59.983
X57.688Y-119.483
X57.688Y-178.983
X58.475Y-47.207
X58.475Y-49.747
X58.475Y-52.287
X58.475Y-54.827
X58.475Y-106.707
X58.475Y-109.247
X58.475Y-111.787
X58.475Y-114.327
X58.475Y-166.207
X58.475Y-168.747
X58.475Y-171.287
X58.475Y-173.827
X60.228Y-59.983
X60.228Y-119.483
X60.228Y-178.983
X61.015Y-47.207
X61.015Y-49.747
X61.015Y-52.287
X61.015Y-54.827
X61.015Y-106.707
X61.015Y-109.247
X61.015Y-111.787
X61.015Y-114.327
X61.015Y-166.207
X61.015Y-168.747
X61.015Y-171.287
X61.015Y-173.827
X72.993Y-24.83
X72.993Y-27.37
X72.993Y-29.91
X72.993Y-32.45
X72.993Y-34.99
X72.993Y-37.53
X72.993Y-40.07
X72.993Y-84.33
X72.993Y-86.87
X72.993Y-89.41
X72.993Y-91.95
X72.993Y-94.49
X72.993Y-97.03
X72.993Y-99.57
X72.993Y-143.83
X72.993Y-146.37
X72.993Y-148.91
X72.993Y-151.45
X72.993Y-153.99
X72.993Y-156.53
X72.993Y-159.07
X92.45Y-26.283
X92.45Y-85.783
X92.45Y-145.283
X98.56Y-68.96
X98.56Y-71.5
X98.56Y-128.46
X98.56Y-131.0
X98.56Y-187.96
X98.56Y-190.5
X101.1Y-68.96
X101.1Y-71.5
X101.1Y-128.46
X101.1Y-131.0
X101.1Y-187.96
X101.1Y-190.5
X103.448Y-59.983
X103.448Y-119.483
X103.448Y-178.983
X105.988Y-59.983
X105.988Y-119.483
X105.988Y-178.983
X106.775Y-47.207
X106.775Y-49.747
X106.775Y-52.287
X106.775Y-54.827
X106.775Y-106.707
X106.775Y-109.247
X106.775Y-111.787
X106.775Y-114.327
X106.775Y-166.207
X106.775Y-168.747
X106.775Y-171.287
X106.775Y-173.827
X108.528Y-59.983
X108.528Y-119.483
X108.528Y-178.983
X109.315Y-47.207
X109.315Y-49.747
X109.315Y-52.287
X109.315Y-54.827
X109.315Y-106.707
X109.315Y-109.247
X109.315Y-111.787
X109.315Y-114.327
X109.315Y-166.207
X109.315Y-168.747
X109.315Y-171.287
X109.315Y-173.827
T0
M30
