%TF.GenerationSoftware,KiCad,Pcbnew,(6.0.6-0)*%
%TF.CreationDate,2022-06-29T17:43:41+02:00*%
%TF.ProjectId,panel,70616e65-6c2e-46b6-9963-61645f706362,rev?*%
%TF.SameCoordinates,Original*%
%TF.FileFunction,Legend,Bot*%
%TF.FilePolarity,Positive*%
%FSLAX46Y46*%
G04 Gerber Fmt 4.6, Leading zero omitted, Abs format (unit mm)*
G04 Created by KiCad (PCBNEW (6.0.6-0)) date 2022-06-29 17:43:41*
%MOMM*%
%LPD*%
G01*
G04 APERTURE LIST*
%ADD10C,0.200000*%
%ADD11C,0.100000*%
%ADD12C,0.150000*%
%ADD13C,0.120000*%
G04 APERTURE END LIST*
D10*
X90206636Y-115879666D02*
X88960636Y-115879666D01*
X89553970Y-115879666D02*
X89553970Y-116591666D01*
X90206636Y-116591666D02*
X88960636Y-116591666D01*
X88960636Y-117066333D02*
X90206636Y-117363000D01*
X89316636Y-117600333D01*
X90206636Y-117837666D01*
X88960636Y-118134333D01*
X90206636Y-119558333D02*
X89375970Y-119558333D01*
X89613303Y-119558333D02*
X89494636Y-119617666D01*
X89435303Y-119677000D01*
X89375970Y-119795666D01*
X89375970Y-119914333D01*
X90147303Y-120804333D02*
X90206636Y-120685666D01*
X90206636Y-120448333D01*
X90147303Y-120329666D01*
X90028636Y-120270333D01*
X89553970Y-120270333D01*
X89435303Y-120329666D01*
X89375970Y-120448333D01*
X89375970Y-120685666D01*
X89435303Y-120804333D01*
X89553970Y-120863666D01*
X89672636Y-120863666D01*
X89791303Y-120270333D01*
X89375970Y-121279000D02*
X90206636Y-121575666D01*
X89375970Y-121872333D01*
X90087970Y-122347000D02*
X90147303Y-122406333D01*
X90206636Y-122347000D01*
X90147303Y-122287666D01*
X90087970Y-122347000D01*
X90206636Y-122347000D01*
X90087970Y-122940333D02*
X90147303Y-122999666D01*
X90206636Y-122940333D01*
X90147303Y-122881000D01*
X90087970Y-122940333D01*
X90206636Y-122940333D01*
X89435303Y-122940333D02*
X89494636Y-122999666D01*
X89553970Y-122940333D01*
X89494636Y-122881000D01*
X89435303Y-122940333D01*
X89553970Y-122940333D01*
X89079303Y-124423666D02*
X89019970Y-124483000D01*
X88960636Y-124601666D01*
X88960636Y-124898333D01*
X89019970Y-125017000D01*
X89079303Y-125076333D01*
X89197970Y-125135666D01*
X89316636Y-125135666D01*
X89494636Y-125076333D01*
X90206636Y-124364333D01*
X90206636Y-125135666D01*
X91560030Y-110599000D02*
X91619363Y-110777000D01*
X91678696Y-110836333D01*
X91797363Y-110895666D01*
X91975363Y-110895666D01*
X92094030Y-110836333D01*
X92153363Y-110777000D01*
X92212696Y-110658333D01*
X92212696Y-110183666D01*
X90966696Y-110183666D01*
X90966696Y-110599000D01*
X91026030Y-110717666D01*
X91085363Y-110777000D01*
X91204030Y-110836333D01*
X91322696Y-110836333D01*
X91441363Y-110777000D01*
X91500696Y-110717666D01*
X91560030Y-110599000D01*
X91560030Y-110183666D01*
X92212696Y-111963666D02*
X91560030Y-111963666D01*
X91441363Y-111904333D01*
X91382030Y-111785666D01*
X91382030Y-111548333D01*
X91441363Y-111429666D01*
X92153363Y-111963666D02*
X92212696Y-111845000D01*
X92212696Y-111548333D01*
X92153363Y-111429666D01*
X92034696Y-111370333D01*
X91916030Y-111370333D01*
X91797363Y-111429666D01*
X91738030Y-111548333D01*
X91738030Y-111845000D01*
X91678696Y-111963666D01*
X91382030Y-112379000D02*
X91382030Y-112853666D01*
X90966696Y-112557000D02*
X92034696Y-112557000D01*
X92153363Y-112616333D01*
X92212696Y-112735000D01*
X92212696Y-112853666D01*
X92153363Y-113803000D02*
X92212696Y-113684333D01*
X92212696Y-113447000D01*
X92153363Y-113328333D01*
X92094030Y-113269000D01*
X91975363Y-113209666D01*
X91619363Y-113209666D01*
X91500696Y-113269000D01*
X91441363Y-113328333D01*
X91382030Y-113447000D01*
X91382030Y-113684333D01*
X91441363Y-113803000D01*
X92212696Y-114337000D02*
X90966696Y-114337000D01*
X92212696Y-114871000D02*
X91560030Y-114871000D01*
X91441363Y-114811666D01*
X91382030Y-114693000D01*
X91382030Y-114515000D01*
X91441363Y-114396333D01*
X91500696Y-114337000D01*
X92094030Y-115464333D02*
X92153363Y-115523666D01*
X92212696Y-115464333D01*
X92153363Y-115405000D01*
X92094030Y-115464333D01*
X92212696Y-115464333D01*
X91441363Y-115464333D02*
X91500696Y-115523666D01*
X91560030Y-115464333D01*
X91500696Y-115405000D01*
X91441363Y-115464333D01*
X91560030Y-115464333D01*
X92212696Y-117659666D02*
X92212696Y-116947666D01*
X92212696Y-117303666D02*
X90966696Y-117303666D01*
X91144696Y-117185000D01*
X91263363Y-117066333D01*
X91322696Y-116947666D01*
X90966696Y-118075000D02*
X90966696Y-118905666D01*
X92212696Y-118371666D01*
X91738030Y-119380333D02*
X91738030Y-120329666D01*
X91085363Y-120863666D02*
X91026030Y-120923000D01*
X90966696Y-121041666D01*
X90966696Y-121338333D01*
X91026030Y-121457000D01*
X91085363Y-121516333D01*
X91204030Y-121575666D01*
X91322696Y-121575666D01*
X91500696Y-121516333D01*
X92212696Y-120804333D01*
X92212696Y-121575666D01*
X90966696Y-122643666D02*
X90966696Y-122406333D01*
X91026030Y-122287666D01*
X91085363Y-122228333D01*
X91263363Y-122109666D01*
X91500696Y-122050333D01*
X91975363Y-122050333D01*
X92094030Y-122109666D01*
X92153363Y-122169000D01*
X92212696Y-122287666D01*
X92212696Y-122525000D01*
X92153363Y-122643666D01*
X92094030Y-122703000D01*
X91975363Y-122762333D01*
X91678696Y-122762333D01*
X91560030Y-122703000D01*
X91500696Y-122643666D01*
X91441363Y-122525000D01*
X91441363Y-122287666D01*
X91500696Y-122169000D01*
X91560030Y-122109666D01*
X91678696Y-122050333D01*
X91085363Y-123237000D02*
X91026030Y-123296333D01*
X90966696Y-123415000D01*
X90966696Y-123711666D01*
X91026030Y-123830333D01*
X91085363Y-123889666D01*
X91204030Y-123949000D01*
X91322696Y-123949000D01*
X91500696Y-123889666D01*
X92212696Y-123177666D01*
X92212696Y-123949000D01*
X91085363Y-124423666D02*
X91026030Y-124483000D01*
X90966696Y-124601666D01*
X90966696Y-124898333D01*
X91026030Y-125017000D01*
X91085363Y-125076333D01*
X91204030Y-125135666D01*
X91322696Y-125135666D01*
X91500696Y-125076333D01*
X92212696Y-124364333D01*
X92212696Y-125135666D01*
X90206636Y-175379666D02*
X88960636Y-175379666D01*
X89553970Y-175379666D02*
X89553970Y-176091666D01*
X90206636Y-176091666D02*
X88960636Y-176091666D01*
X88960636Y-176566333D02*
X90206636Y-176863000D01*
X89316636Y-177100333D01*
X90206636Y-177337666D01*
X88960636Y-177634333D01*
X90206636Y-179058333D02*
X89375970Y-179058333D01*
X89613303Y-179058333D02*
X89494636Y-179117666D01*
X89435303Y-179177000D01*
X89375970Y-179295666D01*
X89375970Y-179414333D01*
X90147303Y-180304333D02*
X90206636Y-180185666D01*
X90206636Y-179948333D01*
X90147303Y-179829666D01*
X90028636Y-179770333D01*
X89553970Y-179770333D01*
X89435303Y-179829666D01*
X89375970Y-179948333D01*
X89375970Y-180185666D01*
X89435303Y-180304333D01*
X89553970Y-180363666D01*
X89672636Y-180363666D01*
X89791303Y-179770333D01*
X89375970Y-180779000D02*
X90206636Y-181075666D01*
X89375970Y-181372333D01*
X90087970Y-181847000D02*
X90147303Y-181906333D01*
X90206636Y-181847000D01*
X90147303Y-181787666D01*
X90087970Y-181847000D01*
X90206636Y-181847000D01*
X90087970Y-182440333D02*
X90147303Y-182499666D01*
X90206636Y-182440333D01*
X90147303Y-182381000D01*
X90087970Y-182440333D01*
X90206636Y-182440333D01*
X89435303Y-182440333D02*
X89494636Y-182499666D01*
X89553970Y-182440333D01*
X89494636Y-182381000D01*
X89435303Y-182440333D01*
X89553970Y-182440333D01*
X89079303Y-183923666D02*
X89019970Y-183983000D01*
X88960636Y-184101666D01*
X88960636Y-184398333D01*
X89019970Y-184517000D01*
X89079303Y-184576333D01*
X89197970Y-184635666D01*
X89316636Y-184635666D01*
X89494636Y-184576333D01*
X90206636Y-183864333D01*
X90206636Y-184635666D01*
X91560030Y-170099000D02*
X91619363Y-170277000D01*
X91678696Y-170336333D01*
X91797363Y-170395666D01*
X91975363Y-170395666D01*
X92094030Y-170336333D01*
X92153363Y-170277000D01*
X92212696Y-170158333D01*
X92212696Y-169683666D01*
X90966696Y-169683666D01*
X90966696Y-170099000D01*
X91026030Y-170217666D01*
X91085363Y-170277000D01*
X91204030Y-170336333D01*
X91322696Y-170336333D01*
X91441363Y-170277000D01*
X91500696Y-170217666D01*
X91560030Y-170099000D01*
X91560030Y-169683666D01*
X92212696Y-171463666D02*
X91560030Y-171463666D01*
X91441363Y-171404333D01*
X91382030Y-171285666D01*
X91382030Y-171048333D01*
X91441363Y-170929666D01*
X92153363Y-171463666D02*
X92212696Y-171345000D01*
X92212696Y-171048333D01*
X92153363Y-170929666D01*
X92034696Y-170870333D01*
X91916030Y-170870333D01*
X91797363Y-170929666D01*
X91738030Y-171048333D01*
X91738030Y-171345000D01*
X91678696Y-171463666D01*
X91382030Y-171879000D02*
X91382030Y-172353666D01*
X90966696Y-172057000D02*
X92034696Y-172057000D01*
X92153363Y-172116333D01*
X92212696Y-172235000D01*
X92212696Y-172353666D01*
X92153363Y-173303000D02*
X92212696Y-173184333D01*
X92212696Y-172947000D01*
X92153363Y-172828333D01*
X92094030Y-172769000D01*
X91975363Y-172709666D01*
X91619363Y-172709666D01*
X91500696Y-172769000D01*
X91441363Y-172828333D01*
X91382030Y-172947000D01*
X91382030Y-173184333D01*
X91441363Y-173303000D01*
X92212696Y-173837000D02*
X90966696Y-173837000D01*
X92212696Y-174371000D02*
X91560030Y-174371000D01*
X91441363Y-174311666D01*
X91382030Y-174193000D01*
X91382030Y-174015000D01*
X91441363Y-173896333D01*
X91500696Y-173837000D01*
X92094030Y-174964333D02*
X92153363Y-175023666D01*
X92212696Y-174964333D01*
X92153363Y-174905000D01*
X92094030Y-174964333D01*
X92212696Y-174964333D01*
X91441363Y-174964333D02*
X91500696Y-175023666D01*
X91560030Y-174964333D01*
X91500696Y-174905000D01*
X91441363Y-174964333D01*
X91560030Y-174964333D01*
X92212696Y-177159666D02*
X92212696Y-176447666D01*
X92212696Y-176803666D02*
X90966696Y-176803666D01*
X91144696Y-176685000D01*
X91263363Y-176566333D01*
X91322696Y-176447666D01*
X90966696Y-177575000D02*
X90966696Y-178405666D01*
X92212696Y-177871666D01*
X91738030Y-178880333D02*
X91738030Y-179829666D01*
X91085363Y-180363666D02*
X91026030Y-180423000D01*
X90966696Y-180541666D01*
X90966696Y-180838333D01*
X91026030Y-180957000D01*
X91085363Y-181016333D01*
X91204030Y-181075666D01*
X91322696Y-181075666D01*
X91500696Y-181016333D01*
X92212696Y-180304333D01*
X92212696Y-181075666D01*
X90966696Y-182143666D02*
X90966696Y-181906333D01*
X91026030Y-181787666D01*
X91085363Y-181728333D01*
X91263363Y-181609666D01*
X91500696Y-181550333D01*
X91975363Y-181550333D01*
X92094030Y-181609666D01*
X92153363Y-181669000D01*
X92212696Y-181787666D01*
X92212696Y-182025000D01*
X92153363Y-182143666D01*
X92094030Y-182203000D01*
X91975363Y-182262333D01*
X91678696Y-182262333D01*
X91560030Y-182203000D01*
X91500696Y-182143666D01*
X91441363Y-182025000D01*
X91441363Y-181787666D01*
X91500696Y-181669000D01*
X91560030Y-181609666D01*
X91678696Y-181550333D01*
X91085363Y-182737000D02*
X91026030Y-182796333D01*
X90966696Y-182915000D01*
X90966696Y-183211666D01*
X91026030Y-183330333D01*
X91085363Y-183389666D01*
X91204030Y-183449000D01*
X91322696Y-183449000D01*
X91500696Y-183389666D01*
X92212696Y-182677666D01*
X92212696Y-183449000D01*
X91085363Y-183923666D02*
X91026030Y-183983000D01*
X90966696Y-184101666D01*
X90966696Y-184398333D01*
X91026030Y-184517000D01*
X91085363Y-184576333D01*
X91204030Y-184635666D01*
X91322696Y-184635666D01*
X91500696Y-184576333D01*
X92212696Y-183864333D01*
X92212696Y-184635666D01*
X41906636Y-56379666D02*
X40660636Y-56379666D01*
X41253970Y-56379666D02*
X41253970Y-57091666D01*
X41906636Y-57091666D02*
X40660636Y-57091666D01*
X40660636Y-57566333D02*
X41906636Y-57863000D01*
X41016636Y-58100333D01*
X41906636Y-58337666D01*
X40660636Y-58634333D01*
X41906636Y-60058333D02*
X41075970Y-60058333D01*
X41313303Y-60058333D02*
X41194636Y-60117666D01*
X41135303Y-60177000D01*
X41075970Y-60295666D01*
X41075970Y-60414333D01*
X41847303Y-61304333D02*
X41906636Y-61185666D01*
X41906636Y-60948333D01*
X41847303Y-60829666D01*
X41728636Y-60770333D01*
X41253970Y-60770333D01*
X41135303Y-60829666D01*
X41075970Y-60948333D01*
X41075970Y-61185666D01*
X41135303Y-61304333D01*
X41253970Y-61363666D01*
X41372636Y-61363666D01*
X41491303Y-60770333D01*
X41075970Y-61779000D02*
X41906636Y-62075666D01*
X41075970Y-62372333D01*
X41787970Y-62847000D02*
X41847303Y-62906333D01*
X41906636Y-62847000D01*
X41847303Y-62787666D01*
X41787970Y-62847000D01*
X41906636Y-62847000D01*
X41787970Y-63440333D02*
X41847303Y-63499666D01*
X41906636Y-63440333D01*
X41847303Y-63381000D01*
X41787970Y-63440333D01*
X41906636Y-63440333D01*
X41135303Y-63440333D02*
X41194636Y-63499666D01*
X41253970Y-63440333D01*
X41194636Y-63381000D01*
X41135303Y-63440333D01*
X41253970Y-63440333D01*
X40779303Y-64923666D02*
X40719970Y-64983000D01*
X40660636Y-65101666D01*
X40660636Y-65398333D01*
X40719970Y-65517000D01*
X40779303Y-65576333D01*
X40897970Y-65635666D01*
X41016636Y-65635666D01*
X41194636Y-65576333D01*
X41906636Y-64864333D01*
X41906636Y-65635666D01*
X43260030Y-51099000D02*
X43319363Y-51277000D01*
X43378696Y-51336333D01*
X43497363Y-51395666D01*
X43675363Y-51395666D01*
X43794030Y-51336333D01*
X43853363Y-51277000D01*
X43912696Y-51158333D01*
X43912696Y-50683666D01*
X42666696Y-50683666D01*
X42666696Y-51099000D01*
X42726030Y-51217666D01*
X42785363Y-51277000D01*
X42904030Y-51336333D01*
X43022696Y-51336333D01*
X43141363Y-51277000D01*
X43200696Y-51217666D01*
X43260030Y-51099000D01*
X43260030Y-50683666D01*
X43912696Y-52463666D02*
X43260030Y-52463666D01*
X43141363Y-52404333D01*
X43082030Y-52285666D01*
X43082030Y-52048333D01*
X43141363Y-51929666D01*
X43853363Y-52463666D02*
X43912696Y-52345000D01*
X43912696Y-52048333D01*
X43853363Y-51929666D01*
X43734696Y-51870333D01*
X43616030Y-51870333D01*
X43497363Y-51929666D01*
X43438030Y-52048333D01*
X43438030Y-52345000D01*
X43378696Y-52463666D01*
X43082030Y-52879000D02*
X43082030Y-53353666D01*
X42666696Y-53057000D02*
X43734696Y-53057000D01*
X43853363Y-53116333D01*
X43912696Y-53235000D01*
X43912696Y-53353666D01*
X43853363Y-54303000D02*
X43912696Y-54184333D01*
X43912696Y-53947000D01*
X43853363Y-53828333D01*
X43794030Y-53769000D01*
X43675363Y-53709666D01*
X43319363Y-53709666D01*
X43200696Y-53769000D01*
X43141363Y-53828333D01*
X43082030Y-53947000D01*
X43082030Y-54184333D01*
X43141363Y-54303000D01*
X43912696Y-54837000D02*
X42666696Y-54837000D01*
X43912696Y-55371000D02*
X43260030Y-55371000D01*
X43141363Y-55311666D01*
X43082030Y-55193000D01*
X43082030Y-55015000D01*
X43141363Y-54896333D01*
X43200696Y-54837000D01*
X43794030Y-55964333D02*
X43853363Y-56023666D01*
X43912696Y-55964333D01*
X43853363Y-55905000D01*
X43794030Y-55964333D01*
X43912696Y-55964333D01*
X43141363Y-55964333D02*
X43200696Y-56023666D01*
X43260030Y-55964333D01*
X43200696Y-55905000D01*
X43141363Y-55964333D01*
X43260030Y-55964333D01*
X43912696Y-58159666D02*
X43912696Y-57447666D01*
X43912696Y-57803666D02*
X42666696Y-57803666D01*
X42844696Y-57685000D01*
X42963363Y-57566333D01*
X43022696Y-57447666D01*
X42666696Y-58575000D02*
X42666696Y-59405666D01*
X43912696Y-58871666D01*
X43438030Y-59880333D02*
X43438030Y-60829666D01*
X42785363Y-61363666D02*
X42726030Y-61423000D01*
X42666696Y-61541666D01*
X42666696Y-61838333D01*
X42726030Y-61957000D01*
X42785363Y-62016333D01*
X42904030Y-62075666D01*
X43022696Y-62075666D01*
X43200696Y-62016333D01*
X43912696Y-61304333D01*
X43912696Y-62075666D01*
X42666696Y-63143666D02*
X42666696Y-62906333D01*
X42726030Y-62787666D01*
X42785363Y-62728333D01*
X42963363Y-62609666D01*
X43200696Y-62550333D01*
X43675363Y-62550333D01*
X43794030Y-62609666D01*
X43853363Y-62669000D01*
X43912696Y-62787666D01*
X43912696Y-63025000D01*
X43853363Y-63143666D01*
X43794030Y-63203000D01*
X43675363Y-63262333D01*
X43378696Y-63262333D01*
X43260030Y-63203000D01*
X43200696Y-63143666D01*
X43141363Y-63025000D01*
X43141363Y-62787666D01*
X43200696Y-62669000D01*
X43260030Y-62609666D01*
X43378696Y-62550333D01*
X42785363Y-63737000D02*
X42726030Y-63796333D01*
X42666696Y-63915000D01*
X42666696Y-64211666D01*
X42726030Y-64330333D01*
X42785363Y-64389666D01*
X42904030Y-64449000D01*
X43022696Y-64449000D01*
X43200696Y-64389666D01*
X43912696Y-63677666D01*
X43912696Y-64449000D01*
X42785363Y-64923666D02*
X42726030Y-64983000D01*
X42666696Y-65101666D01*
X42666696Y-65398333D01*
X42726030Y-65517000D01*
X42785363Y-65576333D01*
X42904030Y-65635666D01*
X43022696Y-65635666D01*
X43200696Y-65576333D01*
X43912696Y-64864333D01*
X43912696Y-65635666D01*
X41906636Y-175379666D02*
X40660636Y-175379666D01*
X41253970Y-175379666D02*
X41253970Y-176091666D01*
X41906636Y-176091666D02*
X40660636Y-176091666D01*
X40660636Y-176566333D02*
X41906636Y-176863000D01*
X41016636Y-177100333D01*
X41906636Y-177337666D01*
X40660636Y-177634333D01*
X41906636Y-179058333D02*
X41075970Y-179058333D01*
X41313303Y-179058333D02*
X41194636Y-179117666D01*
X41135303Y-179177000D01*
X41075970Y-179295666D01*
X41075970Y-179414333D01*
X41847303Y-180304333D02*
X41906636Y-180185666D01*
X41906636Y-179948333D01*
X41847303Y-179829666D01*
X41728636Y-179770333D01*
X41253970Y-179770333D01*
X41135303Y-179829666D01*
X41075970Y-179948333D01*
X41075970Y-180185666D01*
X41135303Y-180304333D01*
X41253970Y-180363666D01*
X41372636Y-180363666D01*
X41491303Y-179770333D01*
X41075970Y-180779000D02*
X41906636Y-181075666D01*
X41075970Y-181372333D01*
X41787970Y-181847000D02*
X41847303Y-181906333D01*
X41906636Y-181847000D01*
X41847303Y-181787666D01*
X41787970Y-181847000D01*
X41906636Y-181847000D01*
X41787970Y-182440333D02*
X41847303Y-182499666D01*
X41906636Y-182440333D01*
X41847303Y-182381000D01*
X41787970Y-182440333D01*
X41906636Y-182440333D01*
X41135303Y-182440333D02*
X41194636Y-182499666D01*
X41253970Y-182440333D01*
X41194636Y-182381000D01*
X41135303Y-182440333D01*
X41253970Y-182440333D01*
X40779303Y-183923666D02*
X40719970Y-183983000D01*
X40660636Y-184101666D01*
X40660636Y-184398333D01*
X40719970Y-184517000D01*
X40779303Y-184576333D01*
X40897970Y-184635666D01*
X41016636Y-184635666D01*
X41194636Y-184576333D01*
X41906636Y-183864333D01*
X41906636Y-184635666D01*
X43260030Y-170099000D02*
X43319363Y-170277000D01*
X43378696Y-170336333D01*
X43497363Y-170395666D01*
X43675363Y-170395666D01*
X43794030Y-170336333D01*
X43853363Y-170277000D01*
X43912696Y-170158333D01*
X43912696Y-169683666D01*
X42666696Y-169683666D01*
X42666696Y-170099000D01*
X42726030Y-170217666D01*
X42785363Y-170277000D01*
X42904030Y-170336333D01*
X43022696Y-170336333D01*
X43141363Y-170277000D01*
X43200696Y-170217666D01*
X43260030Y-170099000D01*
X43260030Y-169683666D01*
X43912696Y-171463666D02*
X43260030Y-171463666D01*
X43141363Y-171404333D01*
X43082030Y-171285666D01*
X43082030Y-171048333D01*
X43141363Y-170929666D01*
X43853363Y-171463666D02*
X43912696Y-171345000D01*
X43912696Y-171048333D01*
X43853363Y-170929666D01*
X43734696Y-170870333D01*
X43616030Y-170870333D01*
X43497363Y-170929666D01*
X43438030Y-171048333D01*
X43438030Y-171345000D01*
X43378696Y-171463666D01*
X43082030Y-171879000D02*
X43082030Y-172353666D01*
X42666696Y-172057000D02*
X43734696Y-172057000D01*
X43853363Y-172116333D01*
X43912696Y-172235000D01*
X43912696Y-172353666D01*
X43853363Y-173303000D02*
X43912696Y-173184333D01*
X43912696Y-172947000D01*
X43853363Y-172828333D01*
X43794030Y-172769000D01*
X43675363Y-172709666D01*
X43319363Y-172709666D01*
X43200696Y-172769000D01*
X43141363Y-172828333D01*
X43082030Y-172947000D01*
X43082030Y-173184333D01*
X43141363Y-173303000D01*
X43912696Y-173837000D02*
X42666696Y-173837000D01*
X43912696Y-174371000D02*
X43260030Y-174371000D01*
X43141363Y-174311666D01*
X43082030Y-174193000D01*
X43082030Y-174015000D01*
X43141363Y-173896333D01*
X43200696Y-173837000D01*
X43794030Y-174964333D02*
X43853363Y-175023666D01*
X43912696Y-174964333D01*
X43853363Y-174905000D01*
X43794030Y-174964333D01*
X43912696Y-174964333D01*
X43141363Y-174964333D02*
X43200696Y-175023666D01*
X43260030Y-174964333D01*
X43200696Y-174905000D01*
X43141363Y-174964333D01*
X43260030Y-174964333D01*
X43912696Y-177159666D02*
X43912696Y-176447666D01*
X43912696Y-176803666D02*
X42666696Y-176803666D01*
X42844696Y-176685000D01*
X42963363Y-176566333D01*
X43022696Y-176447666D01*
X42666696Y-177575000D02*
X42666696Y-178405666D01*
X43912696Y-177871666D01*
X43438030Y-178880333D02*
X43438030Y-179829666D01*
X42785363Y-180363666D02*
X42726030Y-180423000D01*
X42666696Y-180541666D01*
X42666696Y-180838333D01*
X42726030Y-180957000D01*
X42785363Y-181016333D01*
X42904030Y-181075666D01*
X43022696Y-181075666D01*
X43200696Y-181016333D01*
X43912696Y-180304333D01*
X43912696Y-181075666D01*
X42666696Y-182143666D02*
X42666696Y-181906333D01*
X42726030Y-181787666D01*
X42785363Y-181728333D01*
X42963363Y-181609666D01*
X43200696Y-181550333D01*
X43675363Y-181550333D01*
X43794030Y-181609666D01*
X43853363Y-181669000D01*
X43912696Y-181787666D01*
X43912696Y-182025000D01*
X43853363Y-182143666D01*
X43794030Y-182203000D01*
X43675363Y-182262333D01*
X43378696Y-182262333D01*
X43260030Y-182203000D01*
X43200696Y-182143666D01*
X43141363Y-182025000D01*
X43141363Y-181787666D01*
X43200696Y-181669000D01*
X43260030Y-181609666D01*
X43378696Y-181550333D01*
X42785363Y-182737000D02*
X42726030Y-182796333D01*
X42666696Y-182915000D01*
X42666696Y-183211666D01*
X42726030Y-183330333D01*
X42785363Y-183389666D01*
X42904030Y-183449000D01*
X43022696Y-183449000D01*
X43200696Y-183389666D01*
X43912696Y-182677666D01*
X43912696Y-183449000D01*
X42785363Y-183923666D02*
X42726030Y-183983000D01*
X42666696Y-184101666D01*
X42666696Y-184398333D01*
X42726030Y-184517000D01*
X42785363Y-184576333D01*
X42904030Y-184635666D01*
X43022696Y-184635666D01*
X43200696Y-184576333D01*
X43912696Y-183864333D01*
X43912696Y-184635666D01*
X41906636Y-115879666D02*
X40660636Y-115879666D01*
X41253970Y-115879666D02*
X41253970Y-116591666D01*
X41906636Y-116591666D02*
X40660636Y-116591666D01*
X40660636Y-117066333D02*
X41906636Y-117363000D01*
X41016636Y-117600333D01*
X41906636Y-117837666D01*
X40660636Y-118134333D01*
X41906636Y-119558333D02*
X41075970Y-119558333D01*
X41313303Y-119558333D02*
X41194636Y-119617666D01*
X41135303Y-119677000D01*
X41075970Y-119795666D01*
X41075970Y-119914333D01*
X41847303Y-120804333D02*
X41906636Y-120685666D01*
X41906636Y-120448333D01*
X41847303Y-120329666D01*
X41728636Y-120270333D01*
X41253970Y-120270333D01*
X41135303Y-120329666D01*
X41075970Y-120448333D01*
X41075970Y-120685666D01*
X41135303Y-120804333D01*
X41253970Y-120863666D01*
X41372636Y-120863666D01*
X41491303Y-120270333D01*
X41075970Y-121279000D02*
X41906636Y-121575666D01*
X41075970Y-121872333D01*
X41787970Y-122347000D02*
X41847303Y-122406333D01*
X41906636Y-122347000D01*
X41847303Y-122287666D01*
X41787970Y-122347000D01*
X41906636Y-122347000D01*
X41787970Y-122940333D02*
X41847303Y-122999666D01*
X41906636Y-122940333D01*
X41847303Y-122881000D01*
X41787970Y-122940333D01*
X41906636Y-122940333D01*
X41135303Y-122940333D02*
X41194636Y-122999666D01*
X41253970Y-122940333D01*
X41194636Y-122881000D01*
X41135303Y-122940333D01*
X41253970Y-122940333D01*
X40779303Y-124423666D02*
X40719970Y-124483000D01*
X40660636Y-124601666D01*
X40660636Y-124898333D01*
X40719970Y-125017000D01*
X40779303Y-125076333D01*
X40897970Y-125135666D01*
X41016636Y-125135666D01*
X41194636Y-125076333D01*
X41906636Y-124364333D01*
X41906636Y-125135666D01*
X43260030Y-110599000D02*
X43319363Y-110777000D01*
X43378696Y-110836333D01*
X43497363Y-110895666D01*
X43675363Y-110895666D01*
X43794030Y-110836333D01*
X43853363Y-110777000D01*
X43912696Y-110658333D01*
X43912696Y-110183666D01*
X42666696Y-110183666D01*
X42666696Y-110599000D01*
X42726030Y-110717666D01*
X42785363Y-110777000D01*
X42904030Y-110836333D01*
X43022696Y-110836333D01*
X43141363Y-110777000D01*
X43200696Y-110717666D01*
X43260030Y-110599000D01*
X43260030Y-110183666D01*
X43912696Y-111963666D02*
X43260030Y-111963666D01*
X43141363Y-111904333D01*
X43082030Y-111785666D01*
X43082030Y-111548333D01*
X43141363Y-111429666D01*
X43853363Y-111963666D02*
X43912696Y-111845000D01*
X43912696Y-111548333D01*
X43853363Y-111429666D01*
X43734696Y-111370333D01*
X43616030Y-111370333D01*
X43497363Y-111429666D01*
X43438030Y-111548333D01*
X43438030Y-111845000D01*
X43378696Y-111963666D01*
X43082030Y-112379000D02*
X43082030Y-112853666D01*
X42666696Y-112557000D02*
X43734696Y-112557000D01*
X43853363Y-112616333D01*
X43912696Y-112735000D01*
X43912696Y-112853666D01*
X43853363Y-113803000D02*
X43912696Y-113684333D01*
X43912696Y-113447000D01*
X43853363Y-113328333D01*
X43794030Y-113269000D01*
X43675363Y-113209666D01*
X43319363Y-113209666D01*
X43200696Y-113269000D01*
X43141363Y-113328333D01*
X43082030Y-113447000D01*
X43082030Y-113684333D01*
X43141363Y-113803000D01*
X43912696Y-114337000D02*
X42666696Y-114337000D01*
X43912696Y-114871000D02*
X43260030Y-114871000D01*
X43141363Y-114811666D01*
X43082030Y-114693000D01*
X43082030Y-114515000D01*
X43141363Y-114396333D01*
X43200696Y-114337000D01*
X43794030Y-115464333D02*
X43853363Y-115523666D01*
X43912696Y-115464333D01*
X43853363Y-115405000D01*
X43794030Y-115464333D01*
X43912696Y-115464333D01*
X43141363Y-115464333D02*
X43200696Y-115523666D01*
X43260030Y-115464333D01*
X43200696Y-115405000D01*
X43141363Y-115464333D01*
X43260030Y-115464333D01*
X43912696Y-117659666D02*
X43912696Y-116947666D01*
X43912696Y-117303666D02*
X42666696Y-117303666D01*
X42844696Y-117185000D01*
X42963363Y-117066333D01*
X43022696Y-116947666D01*
X42666696Y-118075000D02*
X42666696Y-118905666D01*
X43912696Y-118371666D01*
X43438030Y-119380333D02*
X43438030Y-120329666D01*
X42785363Y-120863666D02*
X42726030Y-120923000D01*
X42666696Y-121041666D01*
X42666696Y-121338333D01*
X42726030Y-121457000D01*
X42785363Y-121516333D01*
X42904030Y-121575666D01*
X43022696Y-121575666D01*
X43200696Y-121516333D01*
X43912696Y-120804333D01*
X43912696Y-121575666D01*
X42666696Y-122643666D02*
X42666696Y-122406333D01*
X42726030Y-122287666D01*
X42785363Y-122228333D01*
X42963363Y-122109666D01*
X43200696Y-122050333D01*
X43675363Y-122050333D01*
X43794030Y-122109666D01*
X43853363Y-122169000D01*
X43912696Y-122287666D01*
X43912696Y-122525000D01*
X43853363Y-122643666D01*
X43794030Y-122703000D01*
X43675363Y-122762333D01*
X43378696Y-122762333D01*
X43260030Y-122703000D01*
X43200696Y-122643666D01*
X43141363Y-122525000D01*
X43141363Y-122287666D01*
X43200696Y-122169000D01*
X43260030Y-122109666D01*
X43378696Y-122050333D01*
X42785363Y-123237000D02*
X42726030Y-123296333D01*
X42666696Y-123415000D01*
X42666696Y-123711666D01*
X42726030Y-123830333D01*
X42785363Y-123889666D01*
X42904030Y-123949000D01*
X43022696Y-123949000D01*
X43200696Y-123889666D01*
X43912696Y-123177666D01*
X43912696Y-123949000D01*
X42785363Y-124423666D02*
X42726030Y-124483000D01*
X42666696Y-124601666D01*
X42666696Y-124898333D01*
X42726030Y-125017000D01*
X42785363Y-125076333D01*
X42904030Y-125135666D01*
X43022696Y-125135666D01*
X43200696Y-125076333D01*
X43912696Y-124364333D01*
X43912696Y-125135666D01*
X90206636Y-56379666D02*
X88960636Y-56379666D01*
X89553970Y-56379666D02*
X89553970Y-57091666D01*
X90206636Y-57091666D02*
X88960636Y-57091666D01*
X88960636Y-57566333D02*
X90206636Y-57863000D01*
X89316636Y-58100333D01*
X90206636Y-58337666D01*
X88960636Y-58634333D01*
X90206636Y-60058333D02*
X89375970Y-60058333D01*
X89613303Y-60058333D02*
X89494636Y-60117666D01*
X89435303Y-60177000D01*
X89375970Y-60295666D01*
X89375970Y-60414333D01*
X90147303Y-61304333D02*
X90206636Y-61185666D01*
X90206636Y-60948333D01*
X90147303Y-60829666D01*
X90028636Y-60770333D01*
X89553970Y-60770333D01*
X89435303Y-60829666D01*
X89375970Y-60948333D01*
X89375970Y-61185666D01*
X89435303Y-61304333D01*
X89553970Y-61363666D01*
X89672636Y-61363666D01*
X89791303Y-60770333D01*
X89375970Y-61779000D02*
X90206636Y-62075666D01*
X89375970Y-62372333D01*
X90087970Y-62847000D02*
X90147303Y-62906333D01*
X90206636Y-62847000D01*
X90147303Y-62787666D01*
X90087970Y-62847000D01*
X90206636Y-62847000D01*
X90087970Y-63440333D02*
X90147303Y-63499666D01*
X90206636Y-63440333D01*
X90147303Y-63381000D01*
X90087970Y-63440333D01*
X90206636Y-63440333D01*
X89435303Y-63440333D02*
X89494636Y-63499666D01*
X89553970Y-63440333D01*
X89494636Y-63381000D01*
X89435303Y-63440333D01*
X89553970Y-63440333D01*
X89079303Y-64923666D02*
X89019970Y-64983000D01*
X88960636Y-65101666D01*
X88960636Y-65398333D01*
X89019970Y-65517000D01*
X89079303Y-65576333D01*
X89197970Y-65635666D01*
X89316636Y-65635666D01*
X89494636Y-65576333D01*
X90206636Y-64864333D01*
X90206636Y-65635666D01*
X91560030Y-51099000D02*
X91619363Y-51277000D01*
X91678696Y-51336333D01*
X91797363Y-51395666D01*
X91975363Y-51395666D01*
X92094030Y-51336333D01*
X92153363Y-51277000D01*
X92212696Y-51158333D01*
X92212696Y-50683666D01*
X90966696Y-50683666D01*
X90966696Y-51099000D01*
X91026030Y-51217666D01*
X91085363Y-51277000D01*
X91204030Y-51336333D01*
X91322696Y-51336333D01*
X91441363Y-51277000D01*
X91500696Y-51217666D01*
X91560030Y-51099000D01*
X91560030Y-50683666D01*
X92212696Y-52463666D02*
X91560030Y-52463666D01*
X91441363Y-52404333D01*
X91382030Y-52285666D01*
X91382030Y-52048333D01*
X91441363Y-51929666D01*
X92153363Y-52463666D02*
X92212696Y-52345000D01*
X92212696Y-52048333D01*
X92153363Y-51929666D01*
X92034696Y-51870333D01*
X91916030Y-51870333D01*
X91797363Y-51929666D01*
X91738030Y-52048333D01*
X91738030Y-52345000D01*
X91678696Y-52463666D01*
X91382030Y-52879000D02*
X91382030Y-53353666D01*
X90966696Y-53057000D02*
X92034696Y-53057000D01*
X92153363Y-53116333D01*
X92212696Y-53235000D01*
X92212696Y-53353666D01*
X92153363Y-54303000D02*
X92212696Y-54184333D01*
X92212696Y-53947000D01*
X92153363Y-53828333D01*
X92094030Y-53769000D01*
X91975363Y-53709666D01*
X91619363Y-53709666D01*
X91500696Y-53769000D01*
X91441363Y-53828333D01*
X91382030Y-53947000D01*
X91382030Y-54184333D01*
X91441363Y-54303000D01*
X92212696Y-54837000D02*
X90966696Y-54837000D01*
X92212696Y-55371000D02*
X91560030Y-55371000D01*
X91441363Y-55311666D01*
X91382030Y-55193000D01*
X91382030Y-55015000D01*
X91441363Y-54896333D01*
X91500696Y-54837000D01*
X92094030Y-55964333D02*
X92153363Y-56023666D01*
X92212696Y-55964333D01*
X92153363Y-55905000D01*
X92094030Y-55964333D01*
X92212696Y-55964333D01*
X91441363Y-55964333D02*
X91500696Y-56023666D01*
X91560030Y-55964333D01*
X91500696Y-55905000D01*
X91441363Y-55964333D01*
X91560030Y-55964333D01*
X92212696Y-58159666D02*
X92212696Y-57447666D01*
X92212696Y-57803666D02*
X90966696Y-57803666D01*
X91144696Y-57685000D01*
X91263363Y-57566333D01*
X91322696Y-57447666D01*
X90966696Y-58575000D02*
X90966696Y-59405666D01*
X92212696Y-58871666D01*
X91738030Y-59880333D02*
X91738030Y-60829666D01*
X91085363Y-61363666D02*
X91026030Y-61423000D01*
X90966696Y-61541666D01*
X90966696Y-61838333D01*
X91026030Y-61957000D01*
X91085363Y-62016333D01*
X91204030Y-62075666D01*
X91322696Y-62075666D01*
X91500696Y-62016333D01*
X92212696Y-61304333D01*
X92212696Y-62075666D01*
X90966696Y-63143666D02*
X90966696Y-62906333D01*
X91026030Y-62787666D01*
X91085363Y-62728333D01*
X91263363Y-62609666D01*
X91500696Y-62550333D01*
X91975363Y-62550333D01*
X92094030Y-62609666D01*
X92153363Y-62669000D01*
X92212696Y-62787666D01*
X92212696Y-63025000D01*
X92153363Y-63143666D01*
X92094030Y-63203000D01*
X91975363Y-63262333D01*
X91678696Y-63262333D01*
X91560030Y-63203000D01*
X91500696Y-63143666D01*
X91441363Y-63025000D01*
X91441363Y-62787666D01*
X91500696Y-62669000D01*
X91560030Y-62609666D01*
X91678696Y-62550333D01*
X91085363Y-63737000D02*
X91026030Y-63796333D01*
X90966696Y-63915000D01*
X90966696Y-64211666D01*
X91026030Y-64330333D01*
X91085363Y-64389666D01*
X91204030Y-64449000D01*
X91322696Y-64449000D01*
X91500696Y-64389666D01*
X92212696Y-63677666D01*
X92212696Y-64449000D01*
X91085363Y-64923666D02*
X91026030Y-64983000D01*
X90966696Y-65101666D01*
X90966696Y-65398333D01*
X91026030Y-65517000D01*
X91085363Y-65576333D01*
X91204030Y-65635666D01*
X91322696Y-65635666D01*
X91500696Y-65576333D01*
X92212696Y-64864333D01*
X92212696Y-65635666D01*
X74217606Y-102758666D02*
X72971606Y-102758666D01*
X73386940Y-103174000D02*
X73386940Y-103648666D01*
X72971606Y-103352000D02*
X74039606Y-103352000D01*
X74158273Y-103411333D01*
X74217606Y-103530000D01*
X74217606Y-103648666D01*
X74217606Y-104064000D02*
X72971606Y-104064000D01*
X74217606Y-104598000D02*
X73564940Y-104598000D01*
X73446273Y-104538666D01*
X73386940Y-104420000D01*
X73386940Y-104242000D01*
X73446273Y-104123333D01*
X73505606Y-104064000D01*
X74217606Y-105369333D02*
X74158273Y-105250666D01*
X74098940Y-105191333D01*
X73980273Y-105132000D01*
X73624273Y-105132000D01*
X73505606Y-105191333D01*
X73446273Y-105250666D01*
X73386940Y-105369333D01*
X73386940Y-105547333D01*
X73446273Y-105666000D01*
X73505606Y-105725333D01*
X73624273Y-105784666D01*
X73980273Y-105784666D01*
X74098940Y-105725333D01*
X74158273Y-105666000D01*
X74217606Y-105547333D01*
X74217606Y-105369333D01*
X74098940Y-107980000D02*
X74158273Y-107920666D01*
X74217606Y-107742666D01*
X74217606Y-107624000D01*
X74158273Y-107446000D01*
X74039606Y-107327333D01*
X73920940Y-107268000D01*
X73683606Y-107208666D01*
X73505606Y-107208666D01*
X73268273Y-107268000D01*
X73149606Y-107327333D01*
X73030940Y-107446000D01*
X72971606Y-107624000D01*
X72971606Y-107742666D01*
X73030940Y-107920666D01*
X73090273Y-107980000D01*
X72971606Y-108336000D02*
X74217606Y-108751333D01*
X72971606Y-109166666D01*
X73564940Y-109581999D02*
X73564940Y-109997333D01*
X74217606Y-110175333D02*
X74217606Y-109581999D01*
X72971606Y-109581999D01*
X72971606Y-110175333D01*
X72971606Y-111540000D02*
X74217606Y-111836666D01*
X73327606Y-112074000D01*
X74217606Y-112311333D01*
X72971606Y-112608000D01*
X74217606Y-113082666D02*
X73386940Y-113082666D01*
X72971606Y-113082666D02*
X73030940Y-113023333D01*
X73090273Y-113082666D01*
X73030940Y-113142000D01*
X72971606Y-113082666D01*
X73090273Y-113082666D01*
X73564940Y-114091333D02*
X73564940Y-113676000D01*
X74217606Y-113676000D02*
X72971606Y-113676000D01*
X72971606Y-114269333D01*
X74217606Y-114744000D02*
X73386940Y-114744000D01*
X72971606Y-114744000D02*
X73030940Y-114684666D01*
X73090273Y-114744000D01*
X73030940Y-114803333D01*
X72971606Y-114744000D01*
X73090273Y-114744000D01*
X74098940Y-116998666D02*
X74158273Y-116939333D01*
X74217606Y-116761333D01*
X74217606Y-116642666D01*
X74158273Y-116464666D01*
X74039606Y-116346000D01*
X73920940Y-116286666D01*
X73683606Y-116227333D01*
X73505606Y-116227333D01*
X73268273Y-116286666D01*
X73149606Y-116346000D01*
X73030940Y-116464666D01*
X72971606Y-116642666D01*
X72971606Y-116761333D01*
X73030940Y-116939333D01*
X73090273Y-116998666D01*
X74217606Y-117710666D02*
X74158273Y-117592000D01*
X74098940Y-117532666D01*
X73980273Y-117473333D01*
X73624273Y-117473333D01*
X73505606Y-117532666D01*
X73446273Y-117592000D01*
X73386940Y-117710666D01*
X73386940Y-117888666D01*
X73446273Y-118007333D01*
X73505606Y-118066666D01*
X73624273Y-118126000D01*
X73980273Y-118126000D01*
X74098940Y-118066666D01*
X74158273Y-118007333D01*
X74217606Y-117888666D01*
X74217606Y-117710666D01*
X73386940Y-118660000D02*
X74217606Y-118660000D01*
X73505606Y-118660000D02*
X73446273Y-118719333D01*
X73386940Y-118838000D01*
X73386940Y-119016000D01*
X73446273Y-119134666D01*
X73564940Y-119194000D01*
X74217606Y-119194000D01*
X73386940Y-119609333D02*
X73386940Y-120084000D01*
X72971606Y-119787333D02*
X74039606Y-119787333D01*
X74158273Y-119846666D01*
X74217606Y-119965333D01*
X74217606Y-120084000D01*
X74217606Y-120499333D02*
X73386940Y-120499333D01*
X73624273Y-120499333D02*
X73505606Y-120558666D01*
X73446273Y-120618000D01*
X73386940Y-120736666D01*
X73386940Y-120855333D01*
X74217606Y-121448666D02*
X74158273Y-121330000D01*
X74098940Y-121270666D01*
X73980273Y-121211333D01*
X73624273Y-121211333D01*
X73505606Y-121270666D01*
X73446273Y-121330000D01*
X73386940Y-121448666D01*
X73386940Y-121626666D01*
X73446273Y-121745333D01*
X73505606Y-121804666D01*
X73624273Y-121864000D01*
X73980273Y-121864000D01*
X74098940Y-121804666D01*
X74158273Y-121745333D01*
X74217606Y-121626666D01*
X74217606Y-121448666D01*
X74217606Y-122576000D02*
X74158273Y-122457333D01*
X74039606Y-122398000D01*
X72971606Y-122398000D01*
X74217606Y-123228666D02*
X74158273Y-123110000D01*
X74039606Y-123050666D01*
X72971606Y-123050666D01*
X74158273Y-124178000D02*
X74217606Y-124059333D01*
X74217606Y-123822000D01*
X74158273Y-123703333D01*
X74039606Y-123644000D01*
X73564940Y-123644000D01*
X73446273Y-123703333D01*
X73386940Y-123822000D01*
X73386940Y-124059333D01*
X73446273Y-124178000D01*
X73564940Y-124237333D01*
X73683606Y-124237333D01*
X73802273Y-123644000D01*
X74217606Y-124771333D02*
X73386940Y-124771333D01*
X73624273Y-124771333D02*
X73505606Y-124830666D01*
X73446273Y-124890000D01*
X73386940Y-125008666D01*
X73386940Y-125127333D01*
X75867666Y-95994666D02*
X75867666Y-96588000D01*
X76223666Y-95876000D02*
X74977666Y-96291333D01*
X76223666Y-96706666D01*
X76223666Y-97122000D02*
X75393000Y-97122000D01*
X75630333Y-97122000D02*
X75511666Y-97181333D01*
X75452333Y-97240666D01*
X75393000Y-97359333D01*
X75393000Y-97478000D01*
X75393000Y-97893333D02*
X76461000Y-97893333D01*
X76579666Y-97834000D01*
X76639000Y-97715333D01*
X76639000Y-97656000D01*
X74977666Y-97893333D02*
X75037000Y-97834000D01*
X75096333Y-97893333D01*
X75037000Y-97952666D01*
X74977666Y-97893333D01*
X75096333Y-97893333D01*
X76164333Y-98961333D02*
X76223666Y-98842666D01*
X76223666Y-98605333D01*
X76164333Y-98486666D01*
X76045666Y-98427333D01*
X75571000Y-98427333D01*
X75452333Y-98486666D01*
X75393000Y-98605333D01*
X75393000Y-98842666D01*
X75452333Y-98961333D01*
X75571000Y-99020666D01*
X75689666Y-99020666D01*
X75808333Y-98427333D01*
X75393000Y-99554666D02*
X76223666Y-99554666D01*
X75511666Y-99554666D02*
X75452333Y-99614000D01*
X75393000Y-99732666D01*
X75393000Y-99910666D01*
X75452333Y-100029333D01*
X75571000Y-100088666D01*
X76223666Y-100088666D01*
X76223666Y-101631333D02*
X74977666Y-101631333D01*
X75571000Y-101631333D02*
X75571000Y-102343333D01*
X76223666Y-102343333D02*
X74977666Y-102343333D01*
X76223666Y-102936666D02*
X75393000Y-102936666D01*
X74977666Y-102936666D02*
X75037000Y-102877333D01*
X75096333Y-102936666D01*
X75037000Y-102996000D01*
X74977666Y-102936666D01*
X75096333Y-102936666D01*
X76164333Y-104004666D02*
X76223666Y-103886000D01*
X76223666Y-103648666D01*
X76164333Y-103530000D01*
X76045666Y-103470666D01*
X75571000Y-103470666D01*
X75452333Y-103530000D01*
X75393000Y-103648666D01*
X75393000Y-103886000D01*
X75452333Y-104004666D01*
X75571000Y-104064000D01*
X75689666Y-104064000D01*
X75808333Y-103470666D01*
X76223666Y-104598000D02*
X75393000Y-104598000D01*
X75511666Y-104598000D02*
X75452333Y-104657333D01*
X75393000Y-104776000D01*
X75393000Y-104954000D01*
X75452333Y-105072666D01*
X75571000Y-105132000D01*
X76223666Y-105132000D01*
X75571000Y-105132000D02*
X75452333Y-105191333D01*
X75393000Y-105310000D01*
X75393000Y-105488000D01*
X75452333Y-105606666D01*
X75571000Y-105666000D01*
X76223666Y-105666000D01*
X76164333Y-106199999D02*
X76223666Y-106318666D01*
X76223666Y-106555999D01*
X76164333Y-106674666D01*
X76045666Y-106733999D01*
X75986333Y-106733999D01*
X75867666Y-106674666D01*
X75808333Y-106555999D01*
X75808333Y-106377999D01*
X75749000Y-106259333D01*
X75630333Y-106199999D01*
X75571000Y-106199999D01*
X75452333Y-106259333D01*
X75393000Y-106377999D01*
X75393000Y-106555999D01*
X75452333Y-106674666D01*
X75393000Y-107090000D02*
X75393000Y-107564666D01*
X74977666Y-107268000D02*
X76045666Y-107268000D01*
X76164333Y-107327333D01*
X76223666Y-107446000D01*
X76223666Y-107564666D01*
X76223666Y-107980000D02*
X75393000Y-107980000D01*
X75630333Y-107980000D02*
X75511666Y-108039333D01*
X75452333Y-108098666D01*
X75393000Y-108217333D01*
X75393000Y-108336000D01*
X76223666Y-109285333D02*
X75571000Y-109285333D01*
X75452333Y-109225999D01*
X75393000Y-109107333D01*
X75393000Y-108869999D01*
X75452333Y-108751333D01*
X76164333Y-109285333D02*
X76223666Y-109166666D01*
X76223666Y-108869999D01*
X76164333Y-108751333D01*
X76045666Y-108691999D01*
X75927000Y-108691999D01*
X75808333Y-108751333D01*
X75749000Y-108869999D01*
X75749000Y-109166666D01*
X75689666Y-109285333D01*
X75749000Y-110827999D02*
X75749000Y-111777333D01*
X75037000Y-113972666D02*
X74977666Y-113853999D01*
X74977666Y-113675999D01*
X75037000Y-113497999D01*
X75155666Y-113379333D01*
X75274333Y-113319999D01*
X75511666Y-113260666D01*
X75689666Y-113260666D01*
X75927000Y-113319999D01*
X76045666Y-113379333D01*
X76164333Y-113497999D01*
X76223666Y-113675999D01*
X76223666Y-113794666D01*
X76164333Y-113972666D01*
X76105000Y-114031999D01*
X75689666Y-114031999D01*
X75689666Y-113794666D01*
X76223666Y-114565999D02*
X74977666Y-114565999D01*
X76223666Y-115277999D01*
X74977666Y-115277999D01*
X74977666Y-115871333D02*
X75986333Y-115871333D01*
X76105000Y-115930666D01*
X76164333Y-115989999D01*
X76223666Y-116108666D01*
X76223666Y-116345999D01*
X76164333Y-116464666D01*
X76105000Y-116523999D01*
X75986333Y-116583333D01*
X74977666Y-116583333D01*
X75037000Y-118778666D02*
X74977666Y-118659999D01*
X74977666Y-118481999D01*
X75037000Y-118303999D01*
X75155666Y-118185333D01*
X75274333Y-118125999D01*
X75511666Y-118066666D01*
X75689666Y-118066666D01*
X75927000Y-118125999D01*
X76045666Y-118185333D01*
X76164333Y-118303999D01*
X76223666Y-118481999D01*
X76223666Y-118600666D01*
X76164333Y-118778666D01*
X76105000Y-118837999D01*
X75689666Y-118837999D01*
X75689666Y-118600666D01*
X76223666Y-119371999D02*
X74977666Y-119371999D01*
X74977666Y-119846666D01*
X75037000Y-119965333D01*
X75096333Y-120024666D01*
X75215000Y-120083999D01*
X75393000Y-120083999D01*
X75511666Y-120024666D01*
X75571000Y-119965333D01*
X75630333Y-119846666D01*
X75630333Y-119371999D01*
X76223666Y-121211333D02*
X76223666Y-120617999D01*
X74977666Y-120617999D01*
X74977666Y-122457333D02*
X74977666Y-123228666D01*
X75452333Y-122813333D01*
X75452333Y-122991333D01*
X75511666Y-123109999D01*
X75571000Y-123169333D01*
X75689666Y-123228666D01*
X75986333Y-123228666D01*
X76105000Y-123169333D01*
X76164333Y-123109999D01*
X76223666Y-122991333D01*
X76223666Y-122635333D01*
X76164333Y-122516666D01*
X76105000Y-122457333D01*
X76105000Y-123762666D02*
X76164333Y-123821999D01*
X76223666Y-123762666D01*
X76164333Y-123703333D01*
X76105000Y-123762666D01*
X76223666Y-123762666D01*
X74977666Y-124593333D02*
X74977666Y-124711999D01*
X75037000Y-124830666D01*
X75096333Y-124889999D01*
X75215000Y-124949333D01*
X75452333Y-125008666D01*
X75749000Y-125008666D01*
X75986333Y-124949333D01*
X76105000Y-124889999D01*
X76164333Y-124830666D01*
X76223666Y-124711999D01*
X76223666Y-124593333D01*
X76164333Y-124474666D01*
X76105000Y-124415333D01*
X75986333Y-124355999D01*
X75749000Y-124296666D01*
X75452333Y-124296666D01*
X75215000Y-124355999D01*
X75096333Y-124415333D01*
X75037000Y-124474666D01*
X74977666Y-124593333D01*
X78229726Y-85255333D02*
X76983726Y-85255333D01*
X78229726Y-85789333D02*
X77577060Y-85789333D01*
X77458393Y-85730000D01*
X77399060Y-85611333D01*
X77399060Y-85433333D01*
X77458393Y-85314666D01*
X77517726Y-85255333D01*
X77399060Y-86204666D02*
X77399060Y-86679333D01*
X76983726Y-86382666D02*
X78051726Y-86382666D01*
X78170393Y-86442000D01*
X78229726Y-86560666D01*
X78229726Y-86679333D01*
X77399060Y-86916666D02*
X77399060Y-87391333D01*
X76983726Y-87094666D02*
X78051726Y-87094666D01*
X78170393Y-87154000D01*
X78229726Y-87272666D01*
X78229726Y-87391333D01*
X77399060Y-87806666D02*
X78645060Y-87806666D01*
X77458393Y-87806666D02*
X77399060Y-87925333D01*
X77399060Y-88162666D01*
X77458393Y-88281333D01*
X77517726Y-88340666D01*
X77636393Y-88400000D01*
X77992393Y-88400000D01*
X78111060Y-88340666D01*
X78170393Y-88281333D01*
X78229726Y-88162666D01*
X78229726Y-87925333D01*
X78170393Y-87806666D01*
X78170393Y-88874666D02*
X78229726Y-88993333D01*
X78229726Y-89230666D01*
X78170393Y-89349333D01*
X78051726Y-89408666D01*
X77992393Y-89408666D01*
X77873726Y-89349333D01*
X77814393Y-89230666D01*
X77814393Y-89052666D01*
X77755060Y-88934000D01*
X77636393Y-88874666D01*
X77577060Y-88874666D01*
X77458393Y-88934000D01*
X77399060Y-89052666D01*
X77399060Y-89230666D01*
X77458393Y-89349333D01*
X78111060Y-89942666D02*
X78170393Y-90002000D01*
X78229726Y-89942666D01*
X78170393Y-89883333D01*
X78111060Y-89942666D01*
X78229726Y-89942666D01*
X77458393Y-89942666D02*
X77517726Y-90002000D01*
X77577060Y-89942666D01*
X77517726Y-89883333D01*
X77458393Y-89942666D01*
X77577060Y-89942666D01*
X76924393Y-91426000D02*
X78526393Y-90358000D01*
X76924393Y-92731333D02*
X78526393Y-91663333D01*
X77399060Y-93680666D02*
X78407726Y-93680666D01*
X78526393Y-93621333D01*
X78585726Y-93562000D01*
X78645060Y-93443333D01*
X78645060Y-93265333D01*
X78585726Y-93146666D01*
X78170393Y-93680666D02*
X78229726Y-93562000D01*
X78229726Y-93324666D01*
X78170393Y-93206000D01*
X78111060Y-93146666D01*
X77992393Y-93087333D01*
X77636393Y-93087333D01*
X77517726Y-93146666D01*
X77458393Y-93206000D01*
X77399060Y-93324666D01*
X77399060Y-93562000D01*
X77458393Y-93680666D01*
X78229726Y-94274000D02*
X77399060Y-94274000D01*
X76983726Y-94274000D02*
X77043060Y-94214666D01*
X77102393Y-94274000D01*
X77043060Y-94333333D01*
X76983726Y-94274000D01*
X77102393Y-94274000D01*
X77399060Y-94689333D02*
X77399060Y-95164000D01*
X76983726Y-94867333D02*
X78051726Y-94867333D01*
X78170393Y-94926666D01*
X78229726Y-95045333D01*
X78229726Y-95164000D01*
X78229726Y-95579333D02*
X76983726Y-95579333D01*
X78229726Y-96113333D02*
X77577060Y-96113333D01*
X77458393Y-96054000D01*
X77399060Y-95935333D01*
X77399060Y-95757333D01*
X77458393Y-95638666D01*
X77517726Y-95579333D01*
X77399060Y-97240666D02*
X78229726Y-97240666D01*
X77399060Y-96706666D02*
X78051726Y-96706666D01*
X78170393Y-96766000D01*
X78229726Y-96884666D01*
X78229726Y-97062666D01*
X78170393Y-97181333D01*
X78111060Y-97240666D01*
X78229726Y-97834000D02*
X76983726Y-97834000D01*
X77458393Y-97834000D02*
X77399060Y-97952666D01*
X77399060Y-98190000D01*
X77458393Y-98308666D01*
X77517726Y-98368000D01*
X77636393Y-98427333D01*
X77992393Y-98427333D01*
X78111060Y-98368000D01*
X78170393Y-98308666D01*
X78229726Y-98190000D01*
X78229726Y-97952666D01*
X78170393Y-97834000D01*
X78111060Y-98961333D02*
X78170393Y-99020666D01*
X78229726Y-98961333D01*
X78170393Y-98902000D01*
X78111060Y-98961333D01*
X78229726Y-98961333D01*
X78170393Y-100088666D02*
X78229726Y-99970000D01*
X78229726Y-99732666D01*
X78170393Y-99614000D01*
X78111060Y-99554666D01*
X77992393Y-99495333D01*
X77636393Y-99495333D01*
X77517726Y-99554666D01*
X77458393Y-99614000D01*
X77399060Y-99732666D01*
X77399060Y-99970000D01*
X77458393Y-100088666D01*
X78229726Y-100800666D02*
X78170393Y-100682000D01*
X78111060Y-100622666D01*
X77992393Y-100563333D01*
X77636393Y-100563333D01*
X77517726Y-100622666D01*
X77458393Y-100682000D01*
X77399060Y-100800666D01*
X77399060Y-100978666D01*
X77458393Y-101097333D01*
X77517726Y-101156666D01*
X77636393Y-101216000D01*
X77992393Y-101216000D01*
X78111060Y-101156666D01*
X78170393Y-101097333D01*
X78229726Y-100978666D01*
X78229726Y-100800666D01*
X78229726Y-101750000D02*
X77399060Y-101750000D01*
X77517726Y-101750000D02*
X77458393Y-101809333D01*
X77399060Y-101928000D01*
X77399060Y-102106000D01*
X77458393Y-102224666D01*
X77577060Y-102284000D01*
X78229726Y-102284000D01*
X77577060Y-102284000D02*
X77458393Y-102343333D01*
X77399060Y-102462000D01*
X77399060Y-102640000D01*
X77458393Y-102758666D01*
X77577060Y-102818000D01*
X78229726Y-102818000D01*
X76924393Y-104301333D02*
X78526393Y-103233333D01*
X78229726Y-105250666D02*
X77577060Y-105250666D01*
X77458393Y-105191333D01*
X77399060Y-105072666D01*
X77399060Y-104835333D01*
X77458393Y-104716666D01*
X78170393Y-105250666D02*
X78229726Y-105132000D01*
X78229726Y-104835333D01*
X78170393Y-104716666D01*
X78051726Y-104657333D01*
X77933060Y-104657333D01*
X77814393Y-104716666D01*
X77755060Y-104835333D01*
X77755060Y-105132000D01*
X77695726Y-105250666D01*
X78229726Y-105844000D02*
X77399060Y-105844000D01*
X77636393Y-105844000D02*
X77517726Y-105903333D01*
X77458393Y-105962666D01*
X77399060Y-106081333D01*
X77399060Y-106200000D01*
X77399060Y-106615333D02*
X78467060Y-106615333D01*
X78585726Y-106555999D01*
X78645060Y-106437333D01*
X78645060Y-106377999D01*
X76983726Y-106615333D02*
X77043060Y-106555999D01*
X77102393Y-106615333D01*
X77043060Y-106674666D01*
X76983726Y-106615333D01*
X77102393Y-106615333D01*
X78170393Y-107683333D02*
X78229726Y-107564666D01*
X78229726Y-107327333D01*
X78170393Y-107208666D01*
X78051726Y-107149333D01*
X77577060Y-107149333D01*
X77458393Y-107208666D01*
X77399060Y-107327333D01*
X77399060Y-107564666D01*
X77458393Y-107683333D01*
X77577060Y-107742666D01*
X77695726Y-107742666D01*
X77814393Y-107149333D01*
X77399060Y-108276666D02*
X78229726Y-108276666D01*
X77517726Y-108276666D02*
X77458393Y-108335999D01*
X77399060Y-108454666D01*
X77399060Y-108632666D01*
X77458393Y-108751333D01*
X77577060Y-108810666D01*
X78229726Y-108810666D01*
X78229726Y-109403999D02*
X76983726Y-109403999D01*
X78229726Y-109937999D02*
X77577060Y-109937999D01*
X77458393Y-109878666D01*
X77399060Y-109759999D01*
X77399060Y-109581999D01*
X77458393Y-109463333D01*
X77517726Y-109403999D01*
X78229726Y-110531333D02*
X77399060Y-110531333D01*
X76983726Y-110531333D02*
X77043060Y-110471999D01*
X77102393Y-110531333D01*
X77043060Y-110590666D01*
X76983726Y-110531333D01*
X77102393Y-110531333D01*
X78170393Y-111599333D02*
X78229726Y-111480666D01*
X78229726Y-111243333D01*
X78170393Y-111124666D01*
X78051726Y-111065333D01*
X77577060Y-111065333D01*
X77458393Y-111124666D01*
X77399060Y-111243333D01*
X77399060Y-111480666D01*
X77458393Y-111599333D01*
X77577060Y-111658666D01*
X77695726Y-111658666D01*
X77814393Y-111065333D01*
X78229726Y-112192666D02*
X77399060Y-112192666D01*
X77517726Y-112192666D02*
X77458393Y-112251999D01*
X77399060Y-112370666D01*
X77399060Y-112548666D01*
X77458393Y-112667333D01*
X77577060Y-112726666D01*
X78229726Y-112726666D01*
X77577060Y-112726666D02*
X77458393Y-112785999D01*
X77399060Y-112904666D01*
X77399060Y-113082666D01*
X77458393Y-113201333D01*
X77577060Y-113260666D01*
X78229726Y-113260666D01*
X78170393Y-113794666D02*
X78229726Y-113913333D01*
X78229726Y-114150666D01*
X78170393Y-114269333D01*
X78051726Y-114328666D01*
X77992393Y-114328666D01*
X77873726Y-114269333D01*
X77814393Y-114150666D01*
X77814393Y-113972666D01*
X77755060Y-113853999D01*
X77636393Y-113794666D01*
X77577060Y-113794666D01*
X77458393Y-113853999D01*
X77399060Y-113972666D01*
X77399060Y-114150666D01*
X77458393Y-114269333D01*
X77399060Y-114684666D02*
X77399060Y-115159333D01*
X76983726Y-114862666D02*
X78051726Y-114862666D01*
X78170393Y-114921999D01*
X78229726Y-115040666D01*
X78229726Y-115159333D01*
X78229726Y-115574666D02*
X77399060Y-115574666D01*
X77636393Y-115574666D02*
X77517726Y-115633999D01*
X77458393Y-115693333D01*
X77399060Y-115811999D01*
X77399060Y-115930666D01*
X78229726Y-116879999D02*
X77577060Y-116879999D01*
X77458393Y-116820666D01*
X77399060Y-116701999D01*
X77399060Y-116464666D01*
X77458393Y-116345999D01*
X78170393Y-116879999D02*
X78229726Y-116761333D01*
X78229726Y-116464666D01*
X78170393Y-116345999D01*
X78051726Y-116286666D01*
X77933060Y-116286666D01*
X77814393Y-116345999D01*
X77755060Y-116464666D01*
X77755060Y-116761333D01*
X77695726Y-116879999D01*
X76924393Y-118363333D02*
X78526393Y-117295333D01*
X78229726Y-118778666D02*
X77399060Y-118778666D01*
X76983726Y-118778666D02*
X77043060Y-118719333D01*
X77102393Y-118778666D01*
X77043060Y-118837999D01*
X76983726Y-118778666D01*
X77102393Y-118778666D01*
X77399060Y-119193999D02*
X77399060Y-119668666D01*
X76983726Y-119371999D02*
X78051726Y-119371999D01*
X78170393Y-119431333D01*
X78229726Y-119549999D01*
X78229726Y-119668666D01*
X78229726Y-120083999D02*
X76983726Y-120083999D01*
X78229726Y-120617999D02*
X77577060Y-120617999D01*
X77458393Y-120558666D01*
X77399060Y-120439999D01*
X77399060Y-120261999D01*
X77458393Y-120143333D01*
X77517726Y-120083999D01*
X78229726Y-121389333D02*
X78170393Y-121270666D01*
X78111060Y-121211333D01*
X77992393Y-121151999D01*
X77636393Y-121151999D01*
X77517726Y-121211333D01*
X77458393Y-121270666D01*
X77399060Y-121389333D01*
X77399060Y-121567333D01*
X77458393Y-121685999D01*
X77517726Y-121745333D01*
X77636393Y-121804666D01*
X77992393Y-121804666D01*
X78111060Y-121745333D01*
X78170393Y-121685999D01*
X78229726Y-121567333D01*
X78229726Y-121389333D01*
X77399060Y-122219999D02*
X78229726Y-122457333D01*
X77636393Y-122694666D01*
X78229726Y-122931999D01*
X77399060Y-123169333D01*
X78229726Y-123643999D02*
X77399060Y-123643999D01*
X76983726Y-123643999D02*
X77043060Y-123584666D01*
X77102393Y-123643999D01*
X77043060Y-123703333D01*
X76983726Y-123643999D01*
X77102393Y-123643999D01*
X77399060Y-124059333D02*
X77399060Y-124533999D01*
X78229726Y-124237333D02*
X77161726Y-124237333D01*
X77043060Y-124296666D01*
X76983726Y-124415333D01*
X76983726Y-124533999D01*
X78229726Y-124949333D02*
X77399060Y-124949333D01*
X76983726Y-124949333D02*
X77043060Y-124889999D01*
X77102393Y-124949333D01*
X77043060Y-125008666D01*
X76983726Y-124949333D01*
X77102393Y-124949333D01*
X74217606Y-162258666D02*
X72971606Y-162258666D01*
X73386940Y-162674000D02*
X73386940Y-163148666D01*
X72971606Y-162852000D02*
X74039606Y-162852000D01*
X74158273Y-162911333D01*
X74217606Y-163030000D01*
X74217606Y-163148666D01*
X74217606Y-163564000D02*
X72971606Y-163564000D01*
X74217606Y-164098000D02*
X73564940Y-164098000D01*
X73446273Y-164038666D01*
X73386940Y-163920000D01*
X73386940Y-163742000D01*
X73446273Y-163623333D01*
X73505606Y-163564000D01*
X74217606Y-164869333D02*
X74158273Y-164750666D01*
X74098940Y-164691333D01*
X73980273Y-164632000D01*
X73624273Y-164632000D01*
X73505606Y-164691333D01*
X73446273Y-164750666D01*
X73386940Y-164869333D01*
X73386940Y-165047333D01*
X73446273Y-165166000D01*
X73505606Y-165225333D01*
X73624273Y-165284666D01*
X73980273Y-165284666D01*
X74098940Y-165225333D01*
X74158273Y-165166000D01*
X74217606Y-165047333D01*
X74217606Y-164869333D01*
X74098940Y-167480000D02*
X74158273Y-167420666D01*
X74217606Y-167242666D01*
X74217606Y-167124000D01*
X74158273Y-166946000D01*
X74039606Y-166827333D01*
X73920940Y-166768000D01*
X73683606Y-166708666D01*
X73505606Y-166708666D01*
X73268273Y-166768000D01*
X73149606Y-166827333D01*
X73030940Y-166946000D01*
X72971606Y-167124000D01*
X72971606Y-167242666D01*
X73030940Y-167420666D01*
X73090273Y-167480000D01*
X72971606Y-167836000D02*
X74217606Y-168251333D01*
X72971606Y-168666666D01*
X73564940Y-169082000D02*
X73564940Y-169497333D01*
X74217606Y-169675333D02*
X74217606Y-169082000D01*
X72971606Y-169082000D01*
X72971606Y-169675333D01*
X72971606Y-171040000D02*
X74217606Y-171336666D01*
X73327606Y-171574000D01*
X74217606Y-171811333D01*
X72971606Y-172108000D01*
X74217606Y-172582666D02*
X73386940Y-172582666D01*
X72971606Y-172582666D02*
X73030940Y-172523333D01*
X73090273Y-172582666D01*
X73030940Y-172642000D01*
X72971606Y-172582666D01*
X73090273Y-172582666D01*
X73564940Y-173591333D02*
X73564940Y-173176000D01*
X74217606Y-173176000D02*
X72971606Y-173176000D01*
X72971606Y-173769333D01*
X74217606Y-174244000D02*
X73386940Y-174244000D01*
X72971606Y-174244000D02*
X73030940Y-174184666D01*
X73090273Y-174244000D01*
X73030940Y-174303333D01*
X72971606Y-174244000D01*
X73090273Y-174244000D01*
X74098940Y-176498666D02*
X74158273Y-176439333D01*
X74217606Y-176261333D01*
X74217606Y-176142666D01*
X74158273Y-175964666D01*
X74039606Y-175846000D01*
X73920940Y-175786666D01*
X73683606Y-175727333D01*
X73505606Y-175727333D01*
X73268273Y-175786666D01*
X73149606Y-175846000D01*
X73030940Y-175964666D01*
X72971606Y-176142666D01*
X72971606Y-176261333D01*
X73030940Y-176439333D01*
X73090273Y-176498666D01*
X74217606Y-177210666D02*
X74158273Y-177092000D01*
X74098940Y-177032666D01*
X73980273Y-176973333D01*
X73624273Y-176973333D01*
X73505606Y-177032666D01*
X73446273Y-177092000D01*
X73386940Y-177210666D01*
X73386940Y-177388666D01*
X73446273Y-177507333D01*
X73505606Y-177566666D01*
X73624273Y-177626000D01*
X73980273Y-177626000D01*
X74098940Y-177566666D01*
X74158273Y-177507333D01*
X74217606Y-177388666D01*
X74217606Y-177210666D01*
X73386940Y-178160000D02*
X74217606Y-178160000D01*
X73505606Y-178160000D02*
X73446273Y-178219333D01*
X73386940Y-178338000D01*
X73386940Y-178516000D01*
X73446273Y-178634666D01*
X73564940Y-178694000D01*
X74217606Y-178694000D01*
X73386940Y-179109333D02*
X73386940Y-179584000D01*
X72971606Y-179287333D02*
X74039606Y-179287333D01*
X74158273Y-179346666D01*
X74217606Y-179465333D01*
X74217606Y-179584000D01*
X74217606Y-179999333D02*
X73386940Y-179999333D01*
X73624273Y-179999333D02*
X73505606Y-180058666D01*
X73446273Y-180118000D01*
X73386940Y-180236666D01*
X73386940Y-180355333D01*
X74217606Y-180948666D02*
X74158273Y-180830000D01*
X74098940Y-180770666D01*
X73980273Y-180711333D01*
X73624273Y-180711333D01*
X73505606Y-180770666D01*
X73446273Y-180830000D01*
X73386940Y-180948666D01*
X73386940Y-181126666D01*
X73446273Y-181245333D01*
X73505606Y-181304666D01*
X73624273Y-181364000D01*
X73980273Y-181364000D01*
X74098940Y-181304666D01*
X74158273Y-181245333D01*
X74217606Y-181126666D01*
X74217606Y-180948666D01*
X74217606Y-182076000D02*
X74158273Y-181957333D01*
X74039606Y-181898000D01*
X72971606Y-181898000D01*
X74217606Y-182728666D02*
X74158273Y-182610000D01*
X74039606Y-182550666D01*
X72971606Y-182550666D01*
X74158273Y-183678000D02*
X74217606Y-183559333D01*
X74217606Y-183322000D01*
X74158273Y-183203333D01*
X74039606Y-183144000D01*
X73564940Y-183144000D01*
X73446273Y-183203333D01*
X73386940Y-183322000D01*
X73386940Y-183559333D01*
X73446273Y-183678000D01*
X73564940Y-183737333D01*
X73683606Y-183737333D01*
X73802273Y-183144000D01*
X74217606Y-184271333D02*
X73386940Y-184271333D01*
X73624273Y-184271333D02*
X73505606Y-184330666D01*
X73446273Y-184390000D01*
X73386940Y-184508666D01*
X73386940Y-184627333D01*
X75867666Y-155494666D02*
X75867666Y-156088000D01*
X76223666Y-155376000D02*
X74977666Y-155791333D01*
X76223666Y-156206666D01*
X76223666Y-156622000D02*
X75393000Y-156622000D01*
X75630333Y-156622000D02*
X75511666Y-156681333D01*
X75452333Y-156740666D01*
X75393000Y-156859333D01*
X75393000Y-156978000D01*
X75393000Y-157393333D02*
X76461000Y-157393333D01*
X76579666Y-157334000D01*
X76639000Y-157215333D01*
X76639000Y-157156000D01*
X74977666Y-157393333D02*
X75037000Y-157334000D01*
X75096333Y-157393333D01*
X75037000Y-157452666D01*
X74977666Y-157393333D01*
X75096333Y-157393333D01*
X76164333Y-158461333D02*
X76223666Y-158342666D01*
X76223666Y-158105333D01*
X76164333Y-157986666D01*
X76045666Y-157927333D01*
X75571000Y-157927333D01*
X75452333Y-157986666D01*
X75393000Y-158105333D01*
X75393000Y-158342666D01*
X75452333Y-158461333D01*
X75571000Y-158520666D01*
X75689666Y-158520666D01*
X75808333Y-157927333D01*
X75393000Y-159054666D02*
X76223666Y-159054666D01*
X75511666Y-159054666D02*
X75452333Y-159114000D01*
X75393000Y-159232666D01*
X75393000Y-159410666D01*
X75452333Y-159529333D01*
X75571000Y-159588666D01*
X76223666Y-159588666D01*
X76223666Y-161131333D02*
X74977666Y-161131333D01*
X75571000Y-161131333D02*
X75571000Y-161843333D01*
X76223666Y-161843333D02*
X74977666Y-161843333D01*
X76223666Y-162436666D02*
X75393000Y-162436666D01*
X74977666Y-162436666D02*
X75037000Y-162377333D01*
X75096333Y-162436666D01*
X75037000Y-162496000D01*
X74977666Y-162436666D01*
X75096333Y-162436666D01*
X76164333Y-163504666D02*
X76223666Y-163386000D01*
X76223666Y-163148666D01*
X76164333Y-163030000D01*
X76045666Y-162970666D01*
X75571000Y-162970666D01*
X75452333Y-163030000D01*
X75393000Y-163148666D01*
X75393000Y-163386000D01*
X75452333Y-163504666D01*
X75571000Y-163564000D01*
X75689666Y-163564000D01*
X75808333Y-162970666D01*
X76223666Y-164098000D02*
X75393000Y-164098000D01*
X75511666Y-164098000D02*
X75452333Y-164157333D01*
X75393000Y-164276000D01*
X75393000Y-164454000D01*
X75452333Y-164572666D01*
X75571000Y-164632000D01*
X76223666Y-164632000D01*
X75571000Y-164632000D02*
X75452333Y-164691333D01*
X75393000Y-164810000D01*
X75393000Y-164988000D01*
X75452333Y-165106666D01*
X75571000Y-165166000D01*
X76223666Y-165166000D01*
X76164333Y-165700000D02*
X76223666Y-165818666D01*
X76223666Y-166056000D01*
X76164333Y-166174666D01*
X76045666Y-166234000D01*
X75986333Y-166234000D01*
X75867666Y-166174666D01*
X75808333Y-166056000D01*
X75808333Y-165878000D01*
X75749000Y-165759333D01*
X75630333Y-165700000D01*
X75571000Y-165700000D01*
X75452333Y-165759333D01*
X75393000Y-165878000D01*
X75393000Y-166056000D01*
X75452333Y-166174666D01*
X75393000Y-166590000D02*
X75393000Y-167064666D01*
X74977666Y-166768000D02*
X76045666Y-166768000D01*
X76164333Y-166827333D01*
X76223666Y-166946000D01*
X76223666Y-167064666D01*
X76223666Y-167480000D02*
X75393000Y-167480000D01*
X75630333Y-167480000D02*
X75511666Y-167539333D01*
X75452333Y-167598666D01*
X75393000Y-167717333D01*
X75393000Y-167836000D01*
X76223666Y-168785333D02*
X75571000Y-168785333D01*
X75452333Y-168726000D01*
X75393000Y-168607333D01*
X75393000Y-168370000D01*
X75452333Y-168251333D01*
X76164333Y-168785333D02*
X76223666Y-168666666D01*
X76223666Y-168370000D01*
X76164333Y-168251333D01*
X76045666Y-168192000D01*
X75927000Y-168192000D01*
X75808333Y-168251333D01*
X75749000Y-168370000D01*
X75749000Y-168666666D01*
X75689666Y-168785333D01*
X75749000Y-170328000D02*
X75749000Y-171277333D01*
X75037000Y-173472666D02*
X74977666Y-173354000D01*
X74977666Y-173176000D01*
X75037000Y-172998000D01*
X75155666Y-172879333D01*
X75274333Y-172820000D01*
X75511666Y-172760666D01*
X75689666Y-172760666D01*
X75927000Y-172820000D01*
X76045666Y-172879333D01*
X76164333Y-172998000D01*
X76223666Y-173176000D01*
X76223666Y-173294666D01*
X76164333Y-173472666D01*
X76105000Y-173532000D01*
X75689666Y-173532000D01*
X75689666Y-173294666D01*
X76223666Y-174066000D02*
X74977666Y-174066000D01*
X76223666Y-174778000D01*
X74977666Y-174778000D01*
X74977666Y-175371333D02*
X75986333Y-175371333D01*
X76105000Y-175430666D01*
X76164333Y-175490000D01*
X76223666Y-175608666D01*
X76223666Y-175846000D01*
X76164333Y-175964666D01*
X76105000Y-176024000D01*
X75986333Y-176083333D01*
X74977666Y-176083333D01*
X75037000Y-178278666D02*
X74977666Y-178160000D01*
X74977666Y-177982000D01*
X75037000Y-177804000D01*
X75155666Y-177685333D01*
X75274333Y-177626000D01*
X75511666Y-177566666D01*
X75689666Y-177566666D01*
X75927000Y-177626000D01*
X76045666Y-177685333D01*
X76164333Y-177804000D01*
X76223666Y-177982000D01*
X76223666Y-178100666D01*
X76164333Y-178278666D01*
X76105000Y-178338000D01*
X75689666Y-178338000D01*
X75689666Y-178100666D01*
X76223666Y-178872000D02*
X74977666Y-178872000D01*
X74977666Y-179346666D01*
X75037000Y-179465333D01*
X75096333Y-179524666D01*
X75215000Y-179584000D01*
X75393000Y-179584000D01*
X75511666Y-179524666D01*
X75571000Y-179465333D01*
X75630333Y-179346666D01*
X75630333Y-178872000D01*
X76223666Y-180711333D02*
X76223666Y-180118000D01*
X74977666Y-180118000D01*
X74977666Y-181957333D02*
X74977666Y-182728666D01*
X75452333Y-182313333D01*
X75452333Y-182491333D01*
X75511666Y-182610000D01*
X75571000Y-182669333D01*
X75689666Y-182728666D01*
X75986333Y-182728666D01*
X76105000Y-182669333D01*
X76164333Y-182610000D01*
X76223666Y-182491333D01*
X76223666Y-182135333D01*
X76164333Y-182016666D01*
X76105000Y-181957333D01*
X76105000Y-183262666D02*
X76164333Y-183322000D01*
X76223666Y-183262666D01*
X76164333Y-183203333D01*
X76105000Y-183262666D01*
X76223666Y-183262666D01*
X74977666Y-184093333D02*
X74977666Y-184212000D01*
X75037000Y-184330666D01*
X75096333Y-184389999D01*
X75215000Y-184449333D01*
X75452333Y-184508666D01*
X75749000Y-184508666D01*
X75986333Y-184449333D01*
X76105000Y-184390000D01*
X76164333Y-184330666D01*
X76223666Y-184212000D01*
X76223666Y-184093333D01*
X76164333Y-183974666D01*
X76105000Y-183915333D01*
X75986333Y-183856000D01*
X75749000Y-183796666D01*
X75452333Y-183796666D01*
X75215000Y-183856000D01*
X75096333Y-183915333D01*
X75037000Y-183974666D01*
X74977666Y-184093333D01*
X78229726Y-144755333D02*
X76983726Y-144755333D01*
X78229726Y-145289333D02*
X77577060Y-145289333D01*
X77458393Y-145230000D01*
X77399060Y-145111333D01*
X77399060Y-144933333D01*
X77458393Y-144814666D01*
X77517726Y-144755333D01*
X77399060Y-145704666D02*
X77399060Y-146179333D01*
X76983726Y-145882666D02*
X78051726Y-145882666D01*
X78170393Y-145942000D01*
X78229726Y-146060666D01*
X78229726Y-146179333D01*
X77399060Y-146416666D02*
X77399060Y-146891333D01*
X76983726Y-146594666D02*
X78051726Y-146594666D01*
X78170393Y-146654000D01*
X78229726Y-146772666D01*
X78229726Y-146891333D01*
X77399060Y-147306666D02*
X78645060Y-147306666D01*
X77458393Y-147306666D02*
X77399060Y-147425333D01*
X77399060Y-147662666D01*
X77458393Y-147781333D01*
X77517726Y-147840666D01*
X77636393Y-147900000D01*
X77992393Y-147900000D01*
X78111060Y-147840666D01*
X78170393Y-147781333D01*
X78229726Y-147662666D01*
X78229726Y-147425333D01*
X78170393Y-147306666D01*
X78170393Y-148374666D02*
X78229726Y-148493333D01*
X78229726Y-148730666D01*
X78170393Y-148849333D01*
X78051726Y-148908666D01*
X77992393Y-148908666D01*
X77873726Y-148849333D01*
X77814393Y-148730666D01*
X77814393Y-148552666D01*
X77755060Y-148434000D01*
X77636393Y-148374666D01*
X77577060Y-148374666D01*
X77458393Y-148434000D01*
X77399060Y-148552666D01*
X77399060Y-148730666D01*
X77458393Y-148849333D01*
X78111060Y-149442666D02*
X78170393Y-149502000D01*
X78229726Y-149442666D01*
X78170393Y-149383333D01*
X78111060Y-149442666D01*
X78229726Y-149442666D01*
X77458393Y-149442666D02*
X77517726Y-149502000D01*
X77577060Y-149442666D01*
X77517726Y-149383333D01*
X77458393Y-149442666D01*
X77577060Y-149442666D01*
X76924393Y-150926000D02*
X78526393Y-149858000D01*
X76924393Y-152231333D02*
X78526393Y-151163333D01*
X77399060Y-153180666D02*
X78407726Y-153180666D01*
X78526393Y-153121333D01*
X78585726Y-153062000D01*
X78645060Y-152943333D01*
X78645060Y-152765333D01*
X78585726Y-152646666D01*
X78170393Y-153180666D02*
X78229726Y-153062000D01*
X78229726Y-152824666D01*
X78170393Y-152706000D01*
X78111060Y-152646666D01*
X77992393Y-152587333D01*
X77636393Y-152587333D01*
X77517726Y-152646666D01*
X77458393Y-152706000D01*
X77399060Y-152824666D01*
X77399060Y-153062000D01*
X77458393Y-153180666D01*
X78229726Y-153774000D02*
X77399060Y-153774000D01*
X76983726Y-153774000D02*
X77043060Y-153714666D01*
X77102393Y-153774000D01*
X77043060Y-153833333D01*
X76983726Y-153774000D01*
X77102393Y-153774000D01*
X77399060Y-154189333D02*
X77399060Y-154664000D01*
X76983726Y-154367333D02*
X78051726Y-154367333D01*
X78170393Y-154426666D01*
X78229726Y-154545333D01*
X78229726Y-154664000D01*
X78229726Y-155079333D02*
X76983726Y-155079333D01*
X78229726Y-155613333D02*
X77577060Y-155613333D01*
X77458393Y-155554000D01*
X77399060Y-155435333D01*
X77399060Y-155257333D01*
X77458393Y-155138666D01*
X77517726Y-155079333D01*
X77399060Y-156740666D02*
X78229726Y-156740666D01*
X77399060Y-156206666D02*
X78051726Y-156206666D01*
X78170393Y-156266000D01*
X78229726Y-156384666D01*
X78229726Y-156562666D01*
X78170393Y-156681333D01*
X78111060Y-156740666D01*
X78229726Y-157334000D02*
X76983726Y-157334000D01*
X77458393Y-157334000D02*
X77399060Y-157452666D01*
X77399060Y-157690000D01*
X77458393Y-157808666D01*
X77517726Y-157868000D01*
X77636393Y-157927333D01*
X77992393Y-157927333D01*
X78111060Y-157868000D01*
X78170393Y-157808666D01*
X78229726Y-157690000D01*
X78229726Y-157452666D01*
X78170393Y-157334000D01*
X78111060Y-158461333D02*
X78170393Y-158520666D01*
X78229726Y-158461333D01*
X78170393Y-158402000D01*
X78111060Y-158461333D01*
X78229726Y-158461333D01*
X78170393Y-159588666D02*
X78229726Y-159470000D01*
X78229726Y-159232666D01*
X78170393Y-159114000D01*
X78111060Y-159054666D01*
X77992393Y-158995333D01*
X77636393Y-158995333D01*
X77517726Y-159054666D01*
X77458393Y-159114000D01*
X77399060Y-159232666D01*
X77399060Y-159470000D01*
X77458393Y-159588666D01*
X78229726Y-160300666D02*
X78170393Y-160182000D01*
X78111060Y-160122666D01*
X77992393Y-160063333D01*
X77636393Y-160063333D01*
X77517726Y-160122666D01*
X77458393Y-160182000D01*
X77399060Y-160300666D01*
X77399060Y-160478666D01*
X77458393Y-160597333D01*
X77517726Y-160656666D01*
X77636393Y-160716000D01*
X77992393Y-160716000D01*
X78111060Y-160656666D01*
X78170393Y-160597333D01*
X78229726Y-160478666D01*
X78229726Y-160300666D01*
X78229726Y-161250000D02*
X77399060Y-161250000D01*
X77517726Y-161250000D02*
X77458393Y-161309333D01*
X77399060Y-161428000D01*
X77399060Y-161606000D01*
X77458393Y-161724666D01*
X77577060Y-161784000D01*
X78229726Y-161784000D01*
X77577060Y-161784000D02*
X77458393Y-161843333D01*
X77399060Y-161962000D01*
X77399060Y-162140000D01*
X77458393Y-162258666D01*
X77577060Y-162318000D01*
X78229726Y-162318000D01*
X76924393Y-163801333D02*
X78526393Y-162733333D01*
X78229726Y-164750666D02*
X77577060Y-164750666D01*
X77458393Y-164691333D01*
X77399060Y-164572666D01*
X77399060Y-164335333D01*
X77458393Y-164216666D01*
X78170393Y-164750666D02*
X78229726Y-164632000D01*
X78229726Y-164335333D01*
X78170393Y-164216666D01*
X78051726Y-164157333D01*
X77933060Y-164157333D01*
X77814393Y-164216666D01*
X77755060Y-164335333D01*
X77755060Y-164632000D01*
X77695726Y-164750666D01*
X78229726Y-165344000D02*
X77399060Y-165344000D01*
X77636393Y-165344000D02*
X77517726Y-165403333D01*
X77458393Y-165462666D01*
X77399060Y-165581333D01*
X77399060Y-165700000D01*
X77399060Y-166115333D02*
X78467060Y-166115333D01*
X78585726Y-166056000D01*
X78645060Y-165937333D01*
X78645060Y-165878000D01*
X76983726Y-166115333D02*
X77043060Y-166056000D01*
X77102393Y-166115333D01*
X77043060Y-166174666D01*
X76983726Y-166115333D01*
X77102393Y-166115333D01*
X78170393Y-167183333D02*
X78229726Y-167064666D01*
X78229726Y-166827333D01*
X78170393Y-166708666D01*
X78051726Y-166649333D01*
X77577060Y-166649333D01*
X77458393Y-166708666D01*
X77399060Y-166827333D01*
X77399060Y-167064666D01*
X77458393Y-167183333D01*
X77577060Y-167242666D01*
X77695726Y-167242666D01*
X77814393Y-166649333D01*
X77399060Y-167776666D02*
X78229726Y-167776666D01*
X77517726Y-167776666D02*
X77458393Y-167836000D01*
X77399060Y-167954666D01*
X77399060Y-168132666D01*
X77458393Y-168251333D01*
X77577060Y-168310666D01*
X78229726Y-168310666D01*
X78229726Y-168904000D02*
X76983726Y-168904000D01*
X78229726Y-169438000D02*
X77577060Y-169438000D01*
X77458393Y-169378666D01*
X77399060Y-169260000D01*
X77399060Y-169082000D01*
X77458393Y-168963333D01*
X77517726Y-168904000D01*
X78229726Y-170031333D02*
X77399060Y-170031333D01*
X76983726Y-170031333D02*
X77043060Y-169972000D01*
X77102393Y-170031333D01*
X77043060Y-170090666D01*
X76983726Y-170031333D01*
X77102393Y-170031333D01*
X78170393Y-171099333D02*
X78229726Y-170980666D01*
X78229726Y-170743333D01*
X78170393Y-170624666D01*
X78051726Y-170565333D01*
X77577060Y-170565333D01*
X77458393Y-170624666D01*
X77399060Y-170743333D01*
X77399060Y-170980666D01*
X77458393Y-171099333D01*
X77577060Y-171158666D01*
X77695726Y-171158666D01*
X77814393Y-170565333D01*
X78229726Y-171692666D02*
X77399060Y-171692666D01*
X77517726Y-171692666D02*
X77458393Y-171752000D01*
X77399060Y-171870666D01*
X77399060Y-172048666D01*
X77458393Y-172167333D01*
X77577060Y-172226666D01*
X78229726Y-172226666D01*
X77577060Y-172226666D02*
X77458393Y-172286000D01*
X77399060Y-172404666D01*
X77399060Y-172582666D01*
X77458393Y-172701333D01*
X77577060Y-172760666D01*
X78229726Y-172760666D01*
X78170393Y-173294666D02*
X78229726Y-173413333D01*
X78229726Y-173650666D01*
X78170393Y-173769333D01*
X78051726Y-173828666D01*
X77992393Y-173828666D01*
X77873726Y-173769333D01*
X77814393Y-173650666D01*
X77814393Y-173472666D01*
X77755060Y-173354000D01*
X77636393Y-173294666D01*
X77577060Y-173294666D01*
X77458393Y-173354000D01*
X77399060Y-173472666D01*
X77399060Y-173650666D01*
X77458393Y-173769333D01*
X77399060Y-174184666D02*
X77399060Y-174659333D01*
X76983726Y-174362666D02*
X78051726Y-174362666D01*
X78170393Y-174422000D01*
X78229726Y-174540666D01*
X78229726Y-174659333D01*
X78229726Y-175074666D02*
X77399060Y-175074666D01*
X77636393Y-175074666D02*
X77517726Y-175134000D01*
X77458393Y-175193333D01*
X77399060Y-175312000D01*
X77399060Y-175430666D01*
X78229726Y-176380000D02*
X77577060Y-176380000D01*
X77458393Y-176320666D01*
X77399060Y-176202000D01*
X77399060Y-175964666D01*
X77458393Y-175846000D01*
X78170393Y-176380000D02*
X78229726Y-176261333D01*
X78229726Y-175964666D01*
X78170393Y-175846000D01*
X78051726Y-175786666D01*
X77933060Y-175786666D01*
X77814393Y-175846000D01*
X77755060Y-175964666D01*
X77755060Y-176261333D01*
X77695726Y-176380000D01*
X76924393Y-177863333D02*
X78526393Y-176795333D01*
X78229726Y-178278666D02*
X77399060Y-178278666D01*
X76983726Y-178278666D02*
X77043060Y-178219333D01*
X77102393Y-178278666D01*
X77043060Y-178338000D01*
X76983726Y-178278666D01*
X77102393Y-178278666D01*
X77399060Y-178694000D02*
X77399060Y-179168666D01*
X76983726Y-178872000D02*
X78051726Y-178872000D01*
X78170393Y-178931333D01*
X78229726Y-179050000D01*
X78229726Y-179168666D01*
X78229726Y-179584000D02*
X76983726Y-179584000D01*
X78229726Y-180118000D02*
X77577060Y-180118000D01*
X77458393Y-180058666D01*
X77399060Y-179940000D01*
X77399060Y-179762000D01*
X77458393Y-179643333D01*
X77517726Y-179584000D01*
X78229726Y-180889333D02*
X78170393Y-180770666D01*
X78111060Y-180711333D01*
X77992393Y-180652000D01*
X77636393Y-180652000D01*
X77517726Y-180711333D01*
X77458393Y-180770666D01*
X77399060Y-180889333D01*
X77399060Y-181067333D01*
X77458393Y-181186000D01*
X77517726Y-181245333D01*
X77636393Y-181304666D01*
X77992393Y-181304666D01*
X78111060Y-181245333D01*
X78170393Y-181186000D01*
X78229726Y-181067333D01*
X78229726Y-180889333D01*
X77399060Y-181720000D02*
X78229726Y-181957333D01*
X77636393Y-182194666D01*
X78229726Y-182432000D01*
X77399060Y-182669333D01*
X78229726Y-183144000D02*
X77399060Y-183144000D01*
X76983726Y-183144000D02*
X77043060Y-183084666D01*
X77102393Y-183144000D01*
X77043060Y-183203333D01*
X76983726Y-183144000D01*
X77102393Y-183144000D01*
X77399060Y-183559333D02*
X77399060Y-184034000D01*
X78229726Y-183737333D02*
X77161726Y-183737333D01*
X77043060Y-183796666D01*
X76983726Y-183915333D01*
X76983726Y-184034000D01*
X78229726Y-184449333D02*
X77399060Y-184449333D01*
X76983726Y-184449333D02*
X77043060Y-184389999D01*
X77102393Y-184449333D01*
X77043060Y-184508666D01*
X76983726Y-184449333D01*
X77102393Y-184449333D01*
X25917606Y-43258666D02*
X24671606Y-43258666D01*
X25086940Y-43674000D02*
X25086940Y-44148666D01*
X24671606Y-43852000D02*
X25739606Y-43852000D01*
X25858273Y-43911333D01*
X25917606Y-44030000D01*
X25917606Y-44148666D01*
X25917606Y-44564000D02*
X24671606Y-44564000D01*
X25917606Y-45098000D02*
X25264940Y-45098000D01*
X25146273Y-45038666D01*
X25086940Y-44920000D01*
X25086940Y-44742000D01*
X25146273Y-44623333D01*
X25205606Y-44564000D01*
X25917606Y-45869333D02*
X25858273Y-45750666D01*
X25798940Y-45691333D01*
X25680273Y-45631999D01*
X25324273Y-45631999D01*
X25205606Y-45691333D01*
X25146273Y-45750666D01*
X25086940Y-45869333D01*
X25086940Y-46047333D01*
X25146273Y-46165999D01*
X25205606Y-46225333D01*
X25324273Y-46284666D01*
X25680273Y-46284666D01*
X25798940Y-46225333D01*
X25858273Y-46165999D01*
X25917606Y-46047333D01*
X25917606Y-45869333D01*
X25798940Y-48479999D02*
X25858273Y-48420666D01*
X25917606Y-48242666D01*
X25917606Y-48123999D01*
X25858273Y-47945999D01*
X25739606Y-47827333D01*
X25620940Y-47767999D01*
X25383606Y-47708666D01*
X25205606Y-47708666D01*
X24968273Y-47767999D01*
X24849606Y-47827333D01*
X24730940Y-47945999D01*
X24671606Y-48123999D01*
X24671606Y-48242666D01*
X24730940Y-48420666D01*
X24790273Y-48479999D01*
X24671606Y-48835999D02*
X25917606Y-49251333D01*
X24671606Y-49666666D01*
X25264940Y-50081999D02*
X25264940Y-50497333D01*
X25917606Y-50675333D02*
X25917606Y-50081999D01*
X24671606Y-50081999D01*
X24671606Y-50675333D01*
X24671606Y-52039999D02*
X25917606Y-52336666D01*
X25027606Y-52573999D01*
X25917606Y-52811333D01*
X24671606Y-53107999D01*
X25917606Y-53582666D02*
X25086940Y-53582666D01*
X24671606Y-53582666D02*
X24730940Y-53523333D01*
X24790273Y-53582666D01*
X24730940Y-53641999D01*
X24671606Y-53582666D01*
X24790273Y-53582666D01*
X25264940Y-54591333D02*
X25264940Y-54175999D01*
X25917606Y-54175999D02*
X24671606Y-54175999D01*
X24671606Y-54769333D01*
X25917606Y-55243999D02*
X25086940Y-55243999D01*
X24671606Y-55243999D02*
X24730940Y-55184666D01*
X24790273Y-55243999D01*
X24730940Y-55303333D01*
X24671606Y-55243999D01*
X24790273Y-55243999D01*
X25798940Y-57498666D02*
X25858273Y-57439333D01*
X25917606Y-57261333D01*
X25917606Y-57142666D01*
X25858273Y-56964666D01*
X25739606Y-56845999D01*
X25620940Y-56786666D01*
X25383606Y-56727333D01*
X25205606Y-56727333D01*
X24968273Y-56786666D01*
X24849606Y-56845999D01*
X24730940Y-56964666D01*
X24671606Y-57142666D01*
X24671606Y-57261333D01*
X24730940Y-57439333D01*
X24790273Y-57498666D01*
X25917606Y-58210666D02*
X25858273Y-58091999D01*
X25798940Y-58032666D01*
X25680273Y-57973333D01*
X25324273Y-57973333D01*
X25205606Y-58032666D01*
X25146273Y-58091999D01*
X25086940Y-58210666D01*
X25086940Y-58388666D01*
X25146273Y-58507333D01*
X25205606Y-58566666D01*
X25324273Y-58625999D01*
X25680273Y-58625999D01*
X25798940Y-58566666D01*
X25858273Y-58507333D01*
X25917606Y-58388666D01*
X25917606Y-58210666D01*
X25086940Y-59159999D02*
X25917606Y-59159999D01*
X25205606Y-59159999D02*
X25146273Y-59219333D01*
X25086940Y-59337999D01*
X25086940Y-59515999D01*
X25146273Y-59634666D01*
X25264940Y-59693999D01*
X25917606Y-59693999D01*
X25086940Y-60109333D02*
X25086940Y-60583999D01*
X24671606Y-60287333D02*
X25739606Y-60287333D01*
X25858273Y-60346666D01*
X25917606Y-60465333D01*
X25917606Y-60583999D01*
X25917606Y-60999333D02*
X25086940Y-60999333D01*
X25324273Y-60999333D02*
X25205606Y-61058666D01*
X25146273Y-61117999D01*
X25086940Y-61236666D01*
X25086940Y-61355333D01*
X25917606Y-61948666D02*
X25858273Y-61829999D01*
X25798940Y-61770666D01*
X25680273Y-61711333D01*
X25324273Y-61711333D01*
X25205606Y-61770666D01*
X25146273Y-61829999D01*
X25086940Y-61948666D01*
X25086940Y-62126666D01*
X25146273Y-62245333D01*
X25205606Y-62304666D01*
X25324273Y-62363999D01*
X25680273Y-62363999D01*
X25798940Y-62304666D01*
X25858273Y-62245333D01*
X25917606Y-62126666D01*
X25917606Y-61948666D01*
X25917606Y-63075999D02*
X25858273Y-62957333D01*
X25739606Y-62897999D01*
X24671606Y-62897999D01*
X25917606Y-63728666D02*
X25858273Y-63609999D01*
X25739606Y-63550666D01*
X24671606Y-63550666D01*
X25858273Y-64677999D02*
X25917606Y-64559333D01*
X25917606Y-64321999D01*
X25858273Y-64203333D01*
X25739606Y-64143999D01*
X25264940Y-64143999D01*
X25146273Y-64203333D01*
X25086940Y-64321999D01*
X25086940Y-64559333D01*
X25146273Y-64677999D01*
X25264940Y-64737333D01*
X25383606Y-64737333D01*
X25502273Y-64143999D01*
X25917606Y-65271333D02*
X25086940Y-65271333D01*
X25324273Y-65271333D02*
X25205606Y-65330666D01*
X25146273Y-65389999D01*
X25086940Y-65508666D01*
X25086940Y-65627333D01*
X27567666Y-36494666D02*
X27567666Y-37088000D01*
X27923666Y-36376000D02*
X26677666Y-36791333D01*
X27923666Y-37206666D01*
X27923666Y-37622000D02*
X27093000Y-37622000D01*
X27330333Y-37622000D02*
X27211666Y-37681333D01*
X27152333Y-37740666D01*
X27093000Y-37859333D01*
X27093000Y-37978000D01*
X27093000Y-38393333D02*
X28161000Y-38393333D01*
X28279666Y-38334000D01*
X28339000Y-38215333D01*
X28339000Y-38156000D01*
X26677666Y-38393333D02*
X26737000Y-38334000D01*
X26796333Y-38393333D01*
X26737000Y-38452666D01*
X26677666Y-38393333D01*
X26796333Y-38393333D01*
X27864333Y-39461333D02*
X27923666Y-39342666D01*
X27923666Y-39105333D01*
X27864333Y-38986666D01*
X27745666Y-38927333D01*
X27271000Y-38927333D01*
X27152333Y-38986666D01*
X27093000Y-39105333D01*
X27093000Y-39342666D01*
X27152333Y-39461333D01*
X27271000Y-39520666D01*
X27389666Y-39520666D01*
X27508333Y-38927333D01*
X27093000Y-40054666D02*
X27923666Y-40054666D01*
X27211666Y-40054666D02*
X27152333Y-40114000D01*
X27093000Y-40232666D01*
X27093000Y-40410666D01*
X27152333Y-40529333D01*
X27271000Y-40588666D01*
X27923666Y-40588666D01*
X27923666Y-42131333D02*
X26677666Y-42131333D01*
X27271000Y-42131333D02*
X27271000Y-42843333D01*
X27923666Y-42843333D02*
X26677666Y-42843333D01*
X27923666Y-43436666D02*
X27093000Y-43436666D01*
X26677666Y-43436666D02*
X26737000Y-43377333D01*
X26796333Y-43436666D01*
X26737000Y-43495999D01*
X26677666Y-43436666D01*
X26796333Y-43436666D01*
X27864333Y-44504666D02*
X27923666Y-44385999D01*
X27923666Y-44148666D01*
X27864333Y-44029999D01*
X27745666Y-43970666D01*
X27271000Y-43970666D01*
X27152333Y-44029999D01*
X27093000Y-44148666D01*
X27093000Y-44385999D01*
X27152333Y-44504666D01*
X27271000Y-44563999D01*
X27389666Y-44563999D01*
X27508333Y-43970666D01*
X27923666Y-45097999D02*
X27093000Y-45097999D01*
X27211666Y-45097999D02*
X27152333Y-45157333D01*
X27093000Y-45275999D01*
X27093000Y-45453999D01*
X27152333Y-45572666D01*
X27271000Y-45631999D01*
X27923666Y-45631999D01*
X27271000Y-45631999D02*
X27152333Y-45691333D01*
X27093000Y-45809999D01*
X27093000Y-45987999D01*
X27152333Y-46106666D01*
X27271000Y-46165999D01*
X27923666Y-46165999D01*
X27864333Y-46699999D02*
X27923666Y-46818666D01*
X27923666Y-47055999D01*
X27864333Y-47174666D01*
X27745666Y-47233999D01*
X27686333Y-47233999D01*
X27567666Y-47174666D01*
X27508333Y-47055999D01*
X27508333Y-46877999D01*
X27449000Y-46759333D01*
X27330333Y-46699999D01*
X27271000Y-46699999D01*
X27152333Y-46759333D01*
X27093000Y-46877999D01*
X27093000Y-47055999D01*
X27152333Y-47174666D01*
X27093000Y-47589999D02*
X27093000Y-48064666D01*
X26677666Y-47767999D02*
X27745666Y-47767999D01*
X27864333Y-47827333D01*
X27923666Y-47945999D01*
X27923666Y-48064666D01*
X27923666Y-48479999D02*
X27093000Y-48479999D01*
X27330333Y-48479999D02*
X27211666Y-48539333D01*
X27152333Y-48598666D01*
X27093000Y-48717333D01*
X27093000Y-48835999D01*
X27923666Y-49785333D02*
X27271000Y-49785333D01*
X27152333Y-49725999D01*
X27093000Y-49607333D01*
X27093000Y-49369999D01*
X27152333Y-49251333D01*
X27864333Y-49785333D02*
X27923666Y-49666666D01*
X27923666Y-49369999D01*
X27864333Y-49251333D01*
X27745666Y-49191999D01*
X27627000Y-49191999D01*
X27508333Y-49251333D01*
X27449000Y-49369999D01*
X27449000Y-49666666D01*
X27389666Y-49785333D01*
X27449000Y-51327999D02*
X27449000Y-52277333D01*
X26737000Y-54472666D02*
X26677666Y-54353999D01*
X26677666Y-54175999D01*
X26737000Y-53997999D01*
X26855666Y-53879333D01*
X26974333Y-53819999D01*
X27211666Y-53760666D01*
X27389666Y-53760666D01*
X27627000Y-53819999D01*
X27745666Y-53879333D01*
X27864333Y-53997999D01*
X27923666Y-54175999D01*
X27923666Y-54294666D01*
X27864333Y-54472666D01*
X27805000Y-54531999D01*
X27389666Y-54531999D01*
X27389666Y-54294666D01*
X27923666Y-55065999D02*
X26677666Y-55065999D01*
X27923666Y-55777999D01*
X26677666Y-55777999D01*
X26677666Y-56371333D02*
X27686333Y-56371333D01*
X27805000Y-56430666D01*
X27864333Y-56489999D01*
X27923666Y-56608666D01*
X27923666Y-56845999D01*
X27864333Y-56964666D01*
X27805000Y-57023999D01*
X27686333Y-57083333D01*
X26677666Y-57083333D01*
X26737000Y-59278666D02*
X26677666Y-59159999D01*
X26677666Y-58981999D01*
X26737000Y-58803999D01*
X26855666Y-58685333D01*
X26974333Y-58625999D01*
X27211666Y-58566666D01*
X27389666Y-58566666D01*
X27627000Y-58625999D01*
X27745666Y-58685333D01*
X27864333Y-58803999D01*
X27923666Y-58981999D01*
X27923666Y-59100666D01*
X27864333Y-59278666D01*
X27805000Y-59337999D01*
X27389666Y-59337999D01*
X27389666Y-59100666D01*
X27923666Y-59871999D02*
X26677666Y-59871999D01*
X26677666Y-60346666D01*
X26737000Y-60465333D01*
X26796333Y-60524666D01*
X26915000Y-60583999D01*
X27093000Y-60583999D01*
X27211666Y-60524666D01*
X27271000Y-60465333D01*
X27330333Y-60346666D01*
X27330333Y-59871999D01*
X27923666Y-61711333D02*
X27923666Y-61117999D01*
X26677666Y-61117999D01*
X26677666Y-62957333D02*
X26677666Y-63728666D01*
X27152333Y-63313333D01*
X27152333Y-63491333D01*
X27211666Y-63609999D01*
X27271000Y-63669333D01*
X27389666Y-63728666D01*
X27686333Y-63728666D01*
X27805000Y-63669333D01*
X27864333Y-63609999D01*
X27923666Y-63491333D01*
X27923666Y-63135333D01*
X27864333Y-63016666D01*
X27805000Y-62957333D01*
X27805000Y-64262666D02*
X27864333Y-64321999D01*
X27923666Y-64262666D01*
X27864333Y-64203333D01*
X27805000Y-64262666D01*
X27923666Y-64262666D01*
X26677666Y-65093333D02*
X26677666Y-65211999D01*
X26737000Y-65330666D01*
X26796333Y-65389999D01*
X26915000Y-65449333D01*
X27152333Y-65508666D01*
X27449000Y-65508666D01*
X27686333Y-65449333D01*
X27805000Y-65389999D01*
X27864333Y-65330666D01*
X27923666Y-65211999D01*
X27923666Y-65093333D01*
X27864333Y-64974666D01*
X27805000Y-64915333D01*
X27686333Y-64855999D01*
X27449000Y-64796666D01*
X27152333Y-64796666D01*
X26915000Y-64855999D01*
X26796333Y-64915333D01*
X26737000Y-64974666D01*
X26677666Y-65093333D01*
X29929726Y-25755333D02*
X28683726Y-25755333D01*
X29929726Y-26289333D02*
X29277060Y-26289333D01*
X29158393Y-26230000D01*
X29099060Y-26111333D01*
X29099060Y-25933333D01*
X29158393Y-25814666D01*
X29217726Y-25755333D01*
X29099060Y-26704666D02*
X29099060Y-27179333D01*
X28683726Y-26882666D02*
X29751726Y-26882666D01*
X29870393Y-26942000D01*
X29929726Y-27060666D01*
X29929726Y-27179333D01*
X29099060Y-27416666D02*
X29099060Y-27891333D01*
X28683726Y-27594666D02*
X29751726Y-27594666D01*
X29870393Y-27654000D01*
X29929726Y-27772666D01*
X29929726Y-27891333D01*
X29099060Y-28306666D02*
X30345060Y-28306666D01*
X29158393Y-28306666D02*
X29099060Y-28425333D01*
X29099060Y-28662666D01*
X29158393Y-28781333D01*
X29217726Y-28840666D01*
X29336393Y-28900000D01*
X29692393Y-28900000D01*
X29811060Y-28840666D01*
X29870393Y-28781333D01*
X29929726Y-28662666D01*
X29929726Y-28425333D01*
X29870393Y-28306666D01*
X29870393Y-29374666D02*
X29929726Y-29493333D01*
X29929726Y-29730666D01*
X29870393Y-29849333D01*
X29751726Y-29908666D01*
X29692393Y-29908666D01*
X29573726Y-29849333D01*
X29514393Y-29730666D01*
X29514393Y-29552666D01*
X29455060Y-29434000D01*
X29336393Y-29374666D01*
X29277060Y-29374666D01*
X29158393Y-29434000D01*
X29099060Y-29552666D01*
X29099060Y-29730666D01*
X29158393Y-29849333D01*
X29811060Y-30442666D02*
X29870393Y-30502000D01*
X29929726Y-30442666D01*
X29870393Y-30383333D01*
X29811060Y-30442666D01*
X29929726Y-30442666D01*
X29158393Y-30442666D02*
X29217726Y-30502000D01*
X29277060Y-30442666D01*
X29217726Y-30383333D01*
X29158393Y-30442666D01*
X29277060Y-30442666D01*
X28624393Y-31926000D02*
X30226393Y-30858000D01*
X28624393Y-33231333D02*
X30226393Y-32163333D01*
X29099060Y-34180666D02*
X30107726Y-34180666D01*
X30226393Y-34121333D01*
X30285726Y-34062000D01*
X30345060Y-33943333D01*
X30345060Y-33765333D01*
X30285726Y-33646666D01*
X29870393Y-34180666D02*
X29929726Y-34062000D01*
X29929726Y-33824666D01*
X29870393Y-33706000D01*
X29811060Y-33646666D01*
X29692393Y-33587333D01*
X29336393Y-33587333D01*
X29217726Y-33646666D01*
X29158393Y-33706000D01*
X29099060Y-33824666D01*
X29099060Y-34062000D01*
X29158393Y-34180666D01*
X29929726Y-34774000D02*
X29099060Y-34774000D01*
X28683726Y-34774000D02*
X28743060Y-34714666D01*
X28802393Y-34774000D01*
X28743060Y-34833333D01*
X28683726Y-34774000D01*
X28802393Y-34774000D01*
X29099060Y-35189333D02*
X29099060Y-35664000D01*
X28683726Y-35367333D02*
X29751726Y-35367333D01*
X29870393Y-35426666D01*
X29929726Y-35545333D01*
X29929726Y-35664000D01*
X29929726Y-36079333D02*
X28683726Y-36079333D01*
X29929726Y-36613333D02*
X29277060Y-36613333D01*
X29158393Y-36554000D01*
X29099060Y-36435333D01*
X29099060Y-36257333D01*
X29158393Y-36138666D01*
X29217726Y-36079333D01*
X29099060Y-37740666D02*
X29929726Y-37740666D01*
X29099060Y-37206666D02*
X29751726Y-37206666D01*
X29870393Y-37266000D01*
X29929726Y-37384666D01*
X29929726Y-37562666D01*
X29870393Y-37681333D01*
X29811060Y-37740666D01*
X29929726Y-38334000D02*
X28683726Y-38334000D01*
X29158393Y-38334000D02*
X29099060Y-38452666D01*
X29099060Y-38690000D01*
X29158393Y-38808666D01*
X29217726Y-38868000D01*
X29336393Y-38927333D01*
X29692393Y-38927333D01*
X29811060Y-38868000D01*
X29870393Y-38808666D01*
X29929726Y-38690000D01*
X29929726Y-38452666D01*
X29870393Y-38334000D01*
X29811060Y-39461333D02*
X29870393Y-39520666D01*
X29929726Y-39461333D01*
X29870393Y-39402000D01*
X29811060Y-39461333D01*
X29929726Y-39461333D01*
X29870393Y-40588666D02*
X29929726Y-40470000D01*
X29929726Y-40232666D01*
X29870393Y-40114000D01*
X29811060Y-40054666D01*
X29692393Y-39995333D01*
X29336393Y-39995333D01*
X29217726Y-40054666D01*
X29158393Y-40114000D01*
X29099060Y-40232666D01*
X29099060Y-40470000D01*
X29158393Y-40588666D01*
X29929726Y-41300666D02*
X29870393Y-41182000D01*
X29811060Y-41122666D01*
X29692393Y-41063333D01*
X29336393Y-41063333D01*
X29217726Y-41122666D01*
X29158393Y-41182000D01*
X29099060Y-41300666D01*
X29099060Y-41478666D01*
X29158393Y-41597333D01*
X29217726Y-41656666D01*
X29336393Y-41716000D01*
X29692393Y-41716000D01*
X29811060Y-41656666D01*
X29870393Y-41597333D01*
X29929726Y-41478666D01*
X29929726Y-41300666D01*
X29929726Y-42250000D02*
X29099060Y-42250000D01*
X29217726Y-42250000D02*
X29158393Y-42309333D01*
X29099060Y-42428000D01*
X29099060Y-42606000D01*
X29158393Y-42724666D01*
X29277060Y-42784000D01*
X29929726Y-42784000D01*
X29277060Y-42784000D02*
X29158393Y-42843333D01*
X29099060Y-42962000D01*
X29099060Y-43140000D01*
X29158393Y-43258666D01*
X29277060Y-43318000D01*
X29929726Y-43318000D01*
X28624393Y-44801333D02*
X30226393Y-43733333D01*
X29929726Y-45750666D02*
X29277060Y-45750666D01*
X29158393Y-45691333D01*
X29099060Y-45572666D01*
X29099060Y-45335333D01*
X29158393Y-45216666D01*
X29870393Y-45750666D02*
X29929726Y-45631999D01*
X29929726Y-45335333D01*
X29870393Y-45216666D01*
X29751726Y-45157333D01*
X29633060Y-45157333D01*
X29514393Y-45216666D01*
X29455060Y-45335333D01*
X29455060Y-45631999D01*
X29395726Y-45750666D01*
X29929726Y-46343999D02*
X29099060Y-46343999D01*
X29336393Y-46343999D02*
X29217726Y-46403333D01*
X29158393Y-46462666D01*
X29099060Y-46581333D01*
X29099060Y-46699999D01*
X29099060Y-47115333D02*
X30167060Y-47115333D01*
X30285726Y-47055999D01*
X30345060Y-46937333D01*
X30345060Y-46877999D01*
X28683726Y-47115333D02*
X28743060Y-47055999D01*
X28802393Y-47115333D01*
X28743060Y-47174666D01*
X28683726Y-47115333D01*
X28802393Y-47115333D01*
X29870393Y-48183333D02*
X29929726Y-48064666D01*
X29929726Y-47827333D01*
X29870393Y-47708666D01*
X29751726Y-47649333D01*
X29277060Y-47649333D01*
X29158393Y-47708666D01*
X29099060Y-47827333D01*
X29099060Y-48064666D01*
X29158393Y-48183333D01*
X29277060Y-48242666D01*
X29395726Y-48242666D01*
X29514393Y-47649333D01*
X29099060Y-48776666D02*
X29929726Y-48776666D01*
X29217726Y-48776666D02*
X29158393Y-48835999D01*
X29099060Y-48954666D01*
X29099060Y-49132666D01*
X29158393Y-49251333D01*
X29277060Y-49310666D01*
X29929726Y-49310666D01*
X29929726Y-49903999D02*
X28683726Y-49903999D01*
X29929726Y-50437999D02*
X29277060Y-50437999D01*
X29158393Y-50378666D01*
X29099060Y-50259999D01*
X29099060Y-50081999D01*
X29158393Y-49963333D01*
X29217726Y-49903999D01*
X29929726Y-51031333D02*
X29099060Y-51031333D01*
X28683726Y-51031333D02*
X28743060Y-50971999D01*
X28802393Y-51031333D01*
X28743060Y-51090666D01*
X28683726Y-51031333D01*
X28802393Y-51031333D01*
X29870393Y-52099333D02*
X29929726Y-51980666D01*
X29929726Y-51743333D01*
X29870393Y-51624666D01*
X29751726Y-51565333D01*
X29277060Y-51565333D01*
X29158393Y-51624666D01*
X29099060Y-51743333D01*
X29099060Y-51980666D01*
X29158393Y-52099333D01*
X29277060Y-52158666D01*
X29395726Y-52158666D01*
X29514393Y-51565333D01*
X29929726Y-52692666D02*
X29099060Y-52692666D01*
X29217726Y-52692666D02*
X29158393Y-52751999D01*
X29099060Y-52870666D01*
X29099060Y-53048666D01*
X29158393Y-53167333D01*
X29277060Y-53226666D01*
X29929726Y-53226666D01*
X29277060Y-53226666D02*
X29158393Y-53285999D01*
X29099060Y-53404666D01*
X29099060Y-53582666D01*
X29158393Y-53701333D01*
X29277060Y-53760666D01*
X29929726Y-53760666D01*
X29870393Y-54294666D02*
X29929726Y-54413333D01*
X29929726Y-54650666D01*
X29870393Y-54769333D01*
X29751726Y-54828666D01*
X29692393Y-54828666D01*
X29573726Y-54769333D01*
X29514393Y-54650666D01*
X29514393Y-54472666D01*
X29455060Y-54353999D01*
X29336393Y-54294666D01*
X29277060Y-54294666D01*
X29158393Y-54353999D01*
X29099060Y-54472666D01*
X29099060Y-54650666D01*
X29158393Y-54769333D01*
X29099060Y-55184666D02*
X29099060Y-55659333D01*
X28683726Y-55362666D02*
X29751726Y-55362666D01*
X29870393Y-55421999D01*
X29929726Y-55540666D01*
X29929726Y-55659333D01*
X29929726Y-56074666D02*
X29099060Y-56074666D01*
X29336393Y-56074666D02*
X29217726Y-56133999D01*
X29158393Y-56193333D01*
X29099060Y-56311999D01*
X29099060Y-56430666D01*
X29929726Y-57379999D02*
X29277060Y-57379999D01*
X29158393Y-57320666D01*
X29099060Y-57201999D01*
X29099060Y-56964666D01*
X29158393Y-56845999D01*
X29870393Y-57379999D02*
X29929726Y-57261333D01*
X29929726Y-56964666D01*
X29870393Y-56845999D01*
X29751726Y-56786666D01*
X29633060Y-56786666D01*
X29514393Y-56845999D01*
X29455060Y-56964666D01*
X29455060Y-57261333D01*
X29395726Y-57379999D01*
X28624393Y-58863333D02*
X30226393Y-57795333D01*
X29929726Y-59278666D02*
X29099060Y-59278666D01*
X28683726Y-59278666D02*
X28743060Y-59219333D01*
X28802393Y-59278666D01*
X28743060Y-59337999D01*
X28683726Y-59278666D01*
X28802393Y-59278666D01*
X29099060Y-59693999D02*
X29099060Y-60168666D01*
X28683726Y-59871999D02*
X29751726Y-59871999D01*
X29870393Y-59931333D01*
X29929726Y-60049999D01*
X29929726Y-60168666D01*
X29929726Y-60583999D02*
X28683726Y-60583999D01*
X29929726Y-61117999D02*
X29277060Y-61117999D01*
X29158393Y-61058666D01*
X29099060Y-60939999D01*
X29099060Y-60761999D01*
X29158393Y-60643333D01*
X29217726Y-60583999D01*
X29929726Y-61889333D02*
X29870393Y-61770666D01*
X29811060Y-61711333D01*
X29692393Y-61651999D01*
X29336393Y-61651999D01*
X29217726Y-61711333D01*
X29158393Y-61770666D01*
X29099060Y-61889333D01*
X29099060Y-62067333D01*
X29158393Y-62185999D01*
X29217726Y-62245333D01*
X29336393Y-62304666D01*
X29692393Y-62304666D01*
X29811060Y-62245333D01*
X29870393Y-62185999D01*
X29929726Y-62067333D01*
X29929726Y-61889333D01*
X29099060Y-62719999D02*
X29929726Y-62957333D01*
X29336393Y-63194666D01*
X29929726Y-63431999D01*
X29099060Y-63669333D01*
X29929726Y-64143999D02*
X29099060Y-64143999D01*
X28683726Y-64143999D02*
X28743060Y-64084666D01*
X28802393Y-64143999D01*
X28743060Y-64203333D01*
X28683726Y-64143999D01*
X28802393Y-64143999D01*
X29099060Y-64559333D02*
X29099060Y-65033999D01*
X29929726Y-64737333D02*
X28861726Y-64737333D01*
X28743060Y-64796666D01*
X28683726Y-64915333D01*
X28683726Y-65033999D01*
X29929726Y-65449333D02*
X29099060Y-65449333D01*
X28683726Y-65449333D02*
X28743060Y-65389999D01*
X28802393Y-65449333D01*
X28743060Y-65508666D01*
X28683726Y-65449333D01*
X28802393Y-65449333D01*
X25917606Y-162258666D02*
X24671606Y-162258666D01*
X25086940Y-162674000D02*
X25086940Y-163148666D01*
X24671606Y-162852000D02*
X25739606Y-162852000D01*
X25858273Y-162911333D01*
X25917606Y-163030000D01*
X25917606Y-163148666D01*
X25917606Y-163564000D02*
X24671606Y-163564000D01*
X25917606Y-164098000D02*
X25264940Y-164098000D01*
X25146273Y-164038666D01*
X25086940Y-163920000D01*
X25086940Y-163742000D01*
X25146273Y-163623333D01*
X25205606Y-163564000D01*
X25917606Y-164869333D02*
X25858273Y-164750666D01*
X25798940Y-164691333D01*
X25680273Y-164632000D01*
X25324273Y-164632000D01*
X25205606Y-164691333D01*
X25146273Y-164750666D01*
X25086940Y-164869333D01*
X25086940Y-165047333D01*
X25146273Y-165166000D01*
X25205606Y-165225333D01*
X25324273Y-165284666D01*
X25680273Y-165284666D01*
X25798940Y-165225333D01*
X25858273Y-165166000D01*
X25917606Y-165047333D01*
X25917606Y-164869333D01*
X25798940Y-167480000D02*
X25858273Y-167420666D01*
X25917606Y-167242666D01*
X25917606Y-167124000D01*
X25858273Y-166946000D01*
X25739606Y-166827333D01*
X25620940Y-166768000D01*
X25383606Y-166708666D01*
X25205606Y-166708666D01*
X24968273Y-166768000D01*
X24849606Y-166827333D01*
X24730940Y-166946000D01*
X24671606Y-167124000D01*
X24671606Y-167242666D01*
X24730940Y-167420666D01*
X24790273Y-167480000D01*
X24671606Y-167836000D02*
X25917606Y-168251333D01*
X24671606Y-168666666D01*
X25264940Y-169082000D02*
X25264940Y-169497333D01*
X25917606Y-169675333D02*
X25917606Y-169082000D01*
X24671606Y-169082000D01*
X24671606Y-169675333D01*
X24671606Y-171040000D02*
X25917606Y-171336666D01*
X25027606Y-171574000D01*
X25917606Y-171811333D01*
X24671606Y-172108000D01*
X25917606Y-172582666D02*
X25086940Y-172582666D01*
X24671606Y-172582666D02*
X24730940Y-172523333D01*
X24790273Y-172582666D01*
X24730940Y-172642000D01*
X24671606Y-172582666D01*
X24790273Y-172582666D01*
X25264940Y-173591333D02*
X25264940Y-173176000D01*
X25917606Y-173176000D02*
X24671606Y-173176000D01*
X24671606Y-173769333D01*
X25917606Y-174244000D02*
X25086940Y-174244000D01*
X24671606Y-174244000D02*
X24730940Y-174184666D01*
X24790273Y-174244000D01*
X24730940Y-174303333D01*
X24671606Y-174244000D01*
X24790273Y-174244000D01*
X25798940Y-176498666D02*
X25858273Y-176439333D01*
X25917606Y-176261333D01*
X25917606Y-176142666D01*
X25858273Y-175964666D01*
X25739606Y-175846000D01*
X25620940Y-175786666D01*
X25383606Y-175727333D01*
X25205606Y-175727333D01*
X24968273Y-175786666D01*
X24849606Y-175846000D01*
X24730940Y-175964666D01*
X24671606Y-176142666D01*
X24671606Y-176261333D01*
X24730940Y-176439333D01*
X24790273Y-176498666D01*
X25917606Y-177210666D02*
X25858273Y-177092000D01*
X25798940Y-177032666D01*
X25680273Y-176973333D01*
X25324273Y-176973333D01*
X25205606Y-177032666D01*
X25146273Y-177092000D01*
X25086940Y-177210666D01*
X25086940Y-177388666D01*
X25146273Y-177507333D01*
X25205606Y-177566666D01*
X25324273Y-177626000D01*
X25680273Y-177626000D01*
X25798940Y-177566666D01*
X25858273Y-177507333D01*
X25917606Y-177388666D01*
X25917606Y-177210666D01*
X25086940Y-178160000D02*
X25917606Y-178160000D01*
X25205606Y-178160000D02*
X25146273Y-178219333D01*
X25086940Y-178338000D01*
X25086940Y-178516000D01*
X25146273Y-178634666D01*
X25264940Y-178694000D01*
X25917606Y-178694000D01*
X25086940Y-179109333D02*
X25086940Y-179584000D01*
X24671606Y-179287333D02*
X25739606Y-179287333D01*
X25858273Y-179346666D01*
X25917606Y-179465333D01*
X25917606Y-179584000D01*
X25917606Y-179999333D02*
X25086940Y-179999333D01*
X25324273Y-179999333D02*
X25205606Y-180058666D01*
X25146273Y-180118000D01*
X25086940Y-180236666D01*
X25086940Y-180355333D01*
X25917606Y-180948666D02*
X25858273Y-180830000D01*
X25798940Y-180770666D01*
X25680273Y-180711333D01*
X25324273Y-180711333D01*
X25205606Y-180770666D01*
X25146273Y-180830000D01*
X25086940Y-180948666D01*
X25086940Y-181126666D01*
X25146273Y-181245333D01*
X25205606Y-181304666D01*
X25324273Y-181364000D01*
X25680273Y-181364000D01*
X25798940Y-181304666D01*
X25858273Y-181245333D01*
X25917606Y-181126666D01*
X25917606Y-180948666D01*
X25917606Y-182076000D02*
X25858273Y-181957333D01*
X25739606Y-181898000D01*
X24671606Y-181898000D01*
X25917606Y-182728666D02*
X25858273Y-182610000D01*
X25739606Y-182550666D01*
X24671606Y-182550666D01*
X25858273Y-183678000D02*
X25917606Y-183559333D01*
X25917606Y-183322000D01*
X25858273Y-183203333D01*
X25739606Y-183144000D01*
X25264940Y-183144000D01*
X25146273Y-183203333D01*
X25086940Y-183322000D01*
X25086940Y-183559333D01*
X25146273Y-183678000D01*
X25264940Y-183737333D01*
X25383606Y-183737333D01*
X25502273Y-183144000D01*
X25917606Y-184271333D02*
X25086940Y-184271333D01*
X25324273Y-184271333D02*
X25205606Y-184330666D01*
X25146273Y-184390000D01*
X25086940Y-184508666D01*
X25086940Y-184627333D01*
X27567666Y-155494666D02*
X27567666Y-156088000D01*
X27923666Y-155376000D02*
X26677666Y-155791333D01*
X27923666Y-156206666D01*
X27923666Y-156622000D02*
X27093000Y-156622000D01*
X27330333Y-156622000D02*
X27211666Y-156681333D01*
X27152333Y-156740666D01*
X27093000Y-156859333D01*
X27093000Y-156978000D01*
X27093000Y-157393333D02*
X28161000Y-157393333D01*
X28279666Y-157334000D01*
X28339000Y-157215333D01*
X28339000Y-157156000D01*
X26677666Y-157393333D02*
X26737000Y-157334000D01*
X26796333Y-157393333D01*
X26737000Y-157452666D01*
X26677666Y-157393333D01*
X26796333Y-157393333D01*
X27864333Y-158461333D02*
X27923666Y-158342666D01*
X27923666Y-158105333D01*
X27864333Y-157986666D01*
X27745666Y-157927333D01*
X27271000Y-157927333D01*
X27152333Y-157986666D01*
X27093000Y-158105333D01*
X27093000Y-158342666D01*
X27152333Y-158461333D01*
X27271000Y-158520666D01*
X27389666Y-158520666D01*
X27508333Y-157927333D01*
X27093000Y-159054666D02*
X27923666Y-159054666D01*
X27211666Y-159054666D02*
X27152333Y-159114000D01*
X27093000Y-159232666D01*
X27093000Y-159410666D01*
X27152333Y-159529333D01*
X27271000Y-159588666D01*
X27923666Y-159588666D01*
X27923666Y-161131333D02*
X26677666Y-161131333D01*
X27271000Y-161131333D02*
X27271000Y-161843333D01*
X27923666Y-161843333D02*
X26677666Y-161843333D01*
X27923666Y-162436666D02*
X27093000Y-162436666D01*
X26677666Y-162436666D02*
X26737000Y-162377333D01*
X26796333Y-162436666D01*
X26737000Y-162496000D01*
X26677666Y-162436666D01*
X26796333Y-162436666D01*
X27864333Y-163504666D02*
X27923666Y-163386000D01*
X27923666Y-163148666D01*
X27864333Y-163030000D01*
X27745666Y-162970666D01*
X27271000Y-162970666D01*
X27152333Y-163030000D01*
X27093000Y-163148666D01*
X27093000Y-163386000D01*
X27152333Y-163504666D01*
X27271000Y-163564000D01*
X27389666Y-163564000D01*
X27508333Y-162970666D01*
X27923666Y-164098000D02*
X27093000Y-164098000D01*
X27211666Y-164098000D02*
X27152333Y-164157333D01*
X27093000Y-164276000D01*
X27093000Y-164454000D01*
X27152333Y-164572666D01*
X27271000Y-164632000D01*
X27923666Y-164632000D01*
X27271000Y-164632000D02*
X27152333Y-164691333D01*
X27093000Y-164810000D01*
X27093000Y-164988000D01*
X27152333Y-165106666D01*
X27271000Y-165166000D01*
X27923666Y-165166000D01*
X27864333Y-165700000D02*
X27923666Y-165818666D01*
X27923666Y-166056000D01*
X27864333Y-166174666D01*
X27745666Y-166234000D01*
X27686333Y-166234000D01*
X27567666Y-166174666D01*
X27508333Y-166056000D01*
X27508333Y-165878000D01*
X27449000Y-165759333D01*
X27330333Y-165700000D01*
X27271000Y-165700000D01*
X27152333Y-165759333D01*
X27093000Y-165878000D01*
X27093000Y-166056000D01*
X27152333Y-166174666D01*
X27093000Y-166590000D02*
X27093000Y-167064666D01*
X26677666Y-166768000D02*
X27745666Y-166768000D01*
X27864333Y-166827333D01*
X27923666Y-166946000D01*
X27923666Y-167064666D01*
X27923666Y-167480000D02*
X27093000Y-167480000D01*
X27330333Y-167480000D02*
X27211666Y-167539333D01*
X27152333Y-167598666D01*
X27093000Y-167717333D01*
X27093000Y-167836000D01*
X27923666Y-168785333D02*
X27271000Y-168785333D01*
X27152333Y-168726000D01*
X27093000Y-168607333D01*
X27093000Y-168370000D01*
X27152333Y-168251333D01*
X27864333Y-168785333D02*
X27923666Y-168666666D01*
X27923666Y-168370000D01*
X27864333Y-168251333D01*
X27745666Y-168192000D01*
X27627000Y-168192000D01*
X27508333Y-168251333D01*
X27449000Y-168370000D01*
X27449000Y-168666666D01*
X27389666Y-168785333D01*
X27449000Y-170328000D02*
X27449000Y-171277333D01*
X26737000Y-173472666D02*
X26677666Y-173354000D01*
X26677666Y-173176000D01*
X26737000Y-172998000D01*
X26855666Y-172879333D01*
X26974333Y-172820000D01*
X27211666Y-172760666D01*
X27389666Y-172760666D01*
X27627000Y-172820000D01*
X27745666Y-172879333D01*
X27864333Y-172998000D01*
X27923666Y-173176000D01*
X27923666Y-173294666D01*
X27864333Y-173472666D01*
X27805000Y-173532000D01*
X27389666Y-173532000D01*
X27389666Y-173294666D01*
X27923666Y-174066000D02*
X26677666Y-174066000D01*
X27923666Y-174778000D01*
X26677666Y-174778000D01*
X26677666Y-175371333D02*
X27686333Y-175371333D01*
X27805000Y-175430666D01*
X27864333Y-175490000D01*
X27923666Y-175608666D01*
X27923666Y-175846000D01*
X27864333Y-175964666D01*
X27805000Y-176024000D01*
X27686333Y-176083333D01*
X26677666Y-176083333D01*
X26737000Y-178278666D02*
X26677666Y-178160000D01*
X26677666Y-177982000D01*
X26737000Y-177804000D01*
X26855666Y-177685333D01*
X26974333Y-177626000D01*
X27211666Y-177566666D01*
X27389666Y-177566666D01*
X27627000Y-177626000D01*
X27745666Y-177685333D01*
X27864333Y-177804000D01*
X27923666Y-177982000D01*
X27923666Y-178100666D01*
X27864333Y-178278666D01*
X27805000Y-178338000D01*
X27389666Y-178338000D01*
X27389666Y-178100666D01*
X27923666Y-178872000D02*
X26677666Y-178872000D01*
X26677666Y-179346666D01*
X26737000Y-179465333D01*
X26796333Y-179524666D01*
X26915000Y-179584000D01*
X27093000Y-179584000D01*
X27211666Y-179524666D01*
X27271000Y-179465333D01*
X27330333Y-179346666D01*
X27330333Y-178872000D01*
X27923666Y-180711333D02*
X27923666Y-180118000D01*
X26677666Y-180118000D01*
X26677666Y-181957333D02*
X26677666Y-182728666D01*
X27152333Y-182313333D01*
X27152333Y-182491333D01*
X27211666Y-182610000D01*
X27271000Y-182669333D01*
X27389666Y-182728666D01*
X27686333Y-182728666D01*
X27805000Y-182669333D01*
X27864333Y-182610000D01*
X27923666Y-182491333D01*
X27923666Y-182135333D01*
X27864333Y-182016666D01*
X27805000Y-181957333D01*
X27805000Y-183262666D02*
X27864333Y-183322000D01*
X27923666Y-183262666D01*
X27864333Y-183203333D01*
X27805000Y-183262666D01*
X27923666Y-183262666D01*
X26677666Y-184093333D02*
X26677666Y-184212000D01*
X26737000Y-184330666D01*
X26796333Y-184390000D01*
X26915000Y-184449333D01*
X27152333Y-184508666D01*
X27449000Y-184508666D01*
X27686333Y-184449333D01*
X27805000Y-184390000D01*
X27864333Y-184330666D01*
X27923666Y-184212000D01*
X27923666Y-184093333D01*
X27864333Y-183974666D01*
X27805000Y-183915333D01*
X27686333Y-183856000D01*
X27449000Y-183796666D01*
X27152333Y-183796666D01*
X26915000Y-183856000D01*
X26796333Y-183915333D01*
X26737000Y-183974666D01*
X26677666Y-184093333D01*
X29929726Y-144755333D02*
X28683726Y-144755333D01*
X29929726Y-145289333D02*
X29277060Y-145289333D01*
X29158393Y-145230000D01*
X29099060Y-145111333D01*
X29099060Y-144933333D01*
X29158393Y-144814666D01*
X29217726Y-144755333D01*
X29099060Y-145704666D02*
X29099060Y-146179333D01*
X28683726Y-145882666D02*
X29751726Y-145882666D01*
X29870393Y-145942000D01*
X29929726Y-146060666D01*
X29929726Y-146179333D01*
X29099060Y-146416666D02*
X29099060Y-146891333D01*
X28683726Y-146594666D02*
X29751726Y-146594666D01*
X29870393Y-146654000D01*
X29929726Y-146772666D01*
X29929726Y-146891333D01*
X29099060Y-147306666D02*
X30345060Y-147306666D01*
X29158393Y-147306666D02*
X29099060Y-147425333D01*
X29099060Y-147662666D01*
X29158393Y-147781333D01*
X29217726Y-147840666D01*
X29336393Y-147900000D01*
X29692393Y-147900000D01*
X29811060Y-147840666D01*
X29870393Y-147781333D01*
X29929726Y-147662666D01*
X29929726Y-147425333D01*
X29870393Y-147306666D01*
X29870393Y-148374666D02*
X29929726Y-148493333D01*
X29929726Y-148730666D01*
X29870393Y-148849333D01*
X29751726Y-148908666D01*
X29692393Y-148908666D01*
X29573726Y-148849333D01*
X29514393Y-148730666D01*
X29514393Y-148552666D01*
X29455060Y-148434000D01*
X29336393Y-148374666D01*
X29277060Y-148374666D01*
X29158393Y-148434000D01*
X29099060Y-148552666D01*
X29099060Y-148730666D01*
X29158393Y-148849333D01*
X29811060Y-149442666D02*
X29870393Y-149502000D01*
X29929726Y-149442666D01*
X29870393Y-149383333D01*
X29811060Y-149442666D01*
X29929726Y-149442666D01*
X29158393Y-149442666D02*
X29217726Y-149502000D01*
X29277060Y-149442666D01*
X29217726Y-149383333D01*
X29158393Y-149442666D01*
X29277060Y-149442666D01*
X28624393Y-150926000D02*
X30226393Y-149858000D01*
X28624393Y-152231333D02*
X30226393Y-151163333D01*
X29099060Y-153180666D02*
X30107726Y-153180666D01*
X30226393Y-153121333D01*
X30285726Y-153062000D01*
X30345060Y-152943333D01*
X30345060Y-152765333D01*
X30285726Y-152646666D01*
X29870393Y-153180666D02*
X29929726Y-153062000D01*
X29929726Y-152824666D01*
X29870393Y-152706000D01*
X29811060Y-152646666D01*
X29692393Y-152587333D01*
X29336393Y-152587333D01*
X29217726Y-152646666D01*
X29158393Y-152706000D01*
X29099060Y-152824666D01*
X29099060Y-153062000D01*
X29158393Y-153180666D01*
X29929726Y-153774000D02*
X29099060Y-153774000D01*
X28683726Y-153774000D02*
X28743060Y-153714666D01*
X28802393Y-153774000D01*
X28743060Y-153833333D01*
X28683726Y-153774000D01*
X28802393Y-153774000D01*
X29099060Y-154189333D02*
X29099060Y-154664000D01*
X28683726Y-154367333D02*
X29751726Y-154367333D01*
X29870393Y-154426666D01*
X29929726Y-154545333D01*
X29929726Y-154664000D01*
X29929726Y-155079333D02*
X28683726Y-155079333D01*
X29929726Y-155613333D02*
X29277060Y-155613333D01*
X29158393Y-155554000D01*
X29099060Y-155435333D01*
X29099060Y-155257333D01*
X29158393Y-155138666D01*
X29217726Y-155079333D01*
X29099060Y-156740666D02*
X29929726Y-156740666D01*
X29099060Y-156206666D02*
X29751726Y-156206666D01*
X29870393Y-156266000D01*
X29929726Y-156384666D01*
X29929726Y-156562666D01*
X29870393Y-156681333D01*
X29811060Y-156740666D01*
X29929726Y-157334000D02*
X28683726Y-157334000D01*
X29158393Y-157334000D02*
X29099060Y-157452666D01*
X29099060Y-157690000D01*
X29158393Y-157808666D01*
X29217726Y-157868000D01*
X29336393Y-157927333D01*
X29692393Y-157927333D01*
X29811060Y-157868000D01*
X29870393Y-157808666D01*
X29929726Y-157690000D01*
X29929726Y-157452666D01*
X29870393Y-157334000D01*
X29811060Y-158461333D02*
X29870393Y-158520666D01*
X29929726Y-158461333D01*
X29870393Y-158402000D01*
X29811060Y-158461333D01*
X29929726Y-158461333D01*
X29870393Y-159588666D02*
X29929726Y-159470000D01*
X29929726Y-159232666D01*
X29870393Y-159114000D01*
X29811060Y-159054666D01*
X29692393Y-158995333D01*
X29336393Y-158995333D01*
X29217726Y-159054666D01*
X29158393Y-159114000D01*
X29099060Y-159232666D01*
X29099060Y-159470000D01*
X29158393Y-159588666D01*
X29929726Y-160300666D02*
X29870393Y-160182000D01*
X29811060Y-160122666D01*
X29692393Y-160063333D01*
X29336393Y-160063333D01*
X29217726Y-160122666D01*
X29158393Y-160182000D01*
X29099060Y-160300666D01*
X29099060Y-160478666D01*
X29158393Y-160597333D01*
X29217726Y-160656666D01*
X29336393Y-160716000D01*
X29692393Y-160716000D01*
X29811060Y-160656666D01*
X29870393Y-160597333D01*
X29929726Y-160478666D01*
X29929726Y-160300666D01*
X29929726Y-161250000D02*
X29099060Y-161250000D01*
X29217726Y-161250000D02*
X29158393Y-161309333D01*
X29099060Y-161428000D01*
X29099060Y-161606000D01*
X29158393Y-161724666D01*
X29277060Y-161784000D01*
X29929726Y-161784000D01*
X29277060Y-161784000D02*
X29158393Y-161843333D01*
X29099060Y-161962000D01*
X29099060Y-162140000D01*
X29158393Y-162258666D01*
X29277060Y-162318000D01*
X29929726Y-162318000D01*
X28624393Y-163801333D02*
X30226393Y-162733333D01*
X29929726Y-164750666D02*
X29277060Y-164750666D01*
X29158393Y-164691333D01*
X29099060Y-164572666D01*
X29099060Y-164335333D01*
X29158393Y-164216666D01*
X29870393Y-164750666D02*
X29929726Y-164632000D01*
X29929726Y-164335333D01*
X29870393Y-164216666D01*
X29751726Y-164157333D01*
X29633060Y-164157333D01*
X29514393Y-164216666D01*
X29455060Y-164335333D01*
X29455060Y-164632000D01*
X29395726Y-164750666D01*
X29929726Y-165344000D02*
X29099060Y-165344000D01*
X29336393Y-165344000D02*
X29217726Y-165403333D01*
X29158393Y-165462666D01*
X29099060Y-165581333D01*
X29099060Y-165700000D01*
X29099060Y-166115333D02*
X30167060Y-166115333D01*
X30285726Y-166056000D01*
X30345060Y-165937333D01*
X30345060Y-165878000D01*
X28683726Y-166115333D02*
X28743060Y-166056000D01*
X28802393Y-166115333D01*
X28743060Y-166174666D01*
X28683726Y-166115333D01*
X28802393Y-166115333D01*
X29870393Y-167183333D02*
X29929726Y-167064666D01*
X29929726Y-166827333D01*
X29870393Y-166708666D01*
X29751726Y-166649333D01*
X29277060Y-166649333D01*
X29158393Y-166708666D01*
X29099060Y-166827333D01*
X29099060Y-167064666D01*
X29158393Y-167183333D01*
X29277060Y-167242666D01*
X29395726Y-167242666D01*
X29514393Y-166649333D01*
X29099060Y-167776666D02*
X29929726Y-167776666D01*
X29217726Y-167776666D02*
X29158393Y-167836000D01*
X29099060Y-167954666D01*
X29099060Y-168132666D01*
X29158393Y-168251333D01*
X29277060Y-168310666D01*
X29929726Y-168310666D01*
X29929726Y-168904000D02*
X28683726Y-168904000D01*
X29929726Y-169438000D02*
X29277060Y-169438000D01*
X29158393Y-169378666D01*
X29099060Y-169260000D01*
X29099060Y-169082000D01*
X29158393Y-168963333D01*
X29217726Y-168904000D01*
X29929726Y-170031333D02*
X29099060Y-170031333D01*
X28683726Y-170031333D02*
X28743060Y-169972000D01*
X28802393Y-170031333D01*
X28743060Y-170090666D01*
X28683726Y-170031333D01*
X28802393Y-170031333D01*
X29870393Y-171099333D02*
X29929726Y-170980666D01*
X29929726Y-170743333D01*
X29870393Y-170624666D01*
X29751726Y-170565333D01*
X29277060Y-170565333D01*
X29158393Y-170624666D01*
X29099060Y-170743333D01*
X29099060Y-170980666D01*
X29158393Y-171099333D01*
X29277060Y-171158666D01*
X29395726Y-171158666D01*
X29514393Y-170565333D01*
X29929726Y-171692666D02*
X29099060Y-171692666D01*
X29217726Y-171692666D02*
X29158393Y-171752000D01*
X29099060Y-171870666D01*
X29099060Y-172048666D01*
X29158393Y-172167333D01*
X29277060Y-172226666D01*
X29929726Y-172226666D01*
X29277060Y-172226666D02*
X29158393Y-172286000D01*
X29099060Y-172404666D01*
X29099060Y-172582666D01*
X29158393Y-172701333D01*
X29277060Y-172760666D01*
X29929726Y-172760666D01*
X29870393Y-173294666D02*
X29929726Y-173413333D01*
X29929726Y-173650666D01*
X29870393Y-173769333D01*
X29751726Y-173828666D01*
X29692393Y-173828666D01*
X29573726Y-173769333D01*
X29514393Y-173650666D01*
X29514393Y-173472666D01*
X29455060Y-173354000D01*
X29336393Y-173294666D01*
X29277060Y-173294666D01*
X29158393Y-173354000D01*
X29099060Y-173472666D01*
X29099060Y-173650666D01*
X29158393Y-173769333D01*
X29099060Y-174184666D02*
X29099060Y-174659333D01*
X28683726Y-174362666D02*
X29751726Y-174362666D01*
X29870393Y-174422000D01*
X29929726Y-174540666D01*
X29929726Y-174659333D01*
X29929726Y-175074666D02*
X29099060Y-175074666D01*
X29336393Y-175074666D02*
X29217726Y-175134000D01*
X29158393Y-175193333D01*
X29099060Y-175312000D01*
X29099060Y-175430666D01*
X29929726Y-176380000D02*
X29277060Y-176380000D01*
X29158393Y-176320666D01*
X29099060Y-176202000D01*
X29099060Y-175964666D01*
X29158393Y-175846000D01*
X29870393Y-176380000D02*
X29929726Y-176261333D01*
X29929726Y-175964666D01*
X29870393Y-175846000D01*
X29751726Y-175786666D01*
X29633060Y-175786666D01*
X29514393Y-175846000D01*
X29455060Y-175964666D01*
X29455060Y-176261333D01*
X29395726Y-176380000D01*
X28624393Y-177863333D02*
X30226393Y-176795333D01*
X29929726Y-178278666D02*
X29099060Y-178278666D01*
X28683726Y-178278666D02*
X28743060Y-178219333D01*
X28802393Y-178278666D01*
X28743060Y-178338000D01*
X28683726Y-178278666D01*
X28802393Y-178278666D01*
X29099060Y-178694000D02*
X29099060Y-179168666D01*
X28683726Y-178872000D02*
X29751726Y-178872000D01*
X29870393Y-178931333D01*
X29929726Y-179050000D01*
X29929726Y-179168666D01*
X29929726Y-179584000D02*
X28683726Y-179584000D01*
X29929726Y-180118000D02*
X29277060Y-180118000D01*
X29158393Y-180058666D01*
X29099060Y-179940000D01*
X29099060Y-179762000D01*
X29158393Y-179643333D01*
X29217726Y-179584000D01*
X29929726Y-180889333D02*
X29870393Y-180770666D01*
X29811060Y-180711333D01*
X29692393Y-180652000D01*
X29336393Y-180652000D01*
X29217726Y-180711333D01*
X29158393Y-180770666D01*
X29099060Y-180889333D01*
X29099060Y-181067333D01*
X29158393Y-181186000D01*
X29217726Y-181245333D01*
X29336393Y-181304666D01*
X29692393Y-181304666D01*
X29811060Y-181245333D01*
X29870393Y-181186000D01*
X29929726Y-181067333D01*
X29929726Y-180889333D01*
X29099060Y-181720000D02*
X29929726Y-181957333D01*
X29336393Y-182194666D01*
X29929726Y-182432000D01*
X29099060Y-182669333D01*
X29929726Y-183144000D02*
X29099060Y-183144000D01*
X28683726Y-183144000D02*
X28743060Y-183084666D01*
X28802393Y-183144000D01*
X28743060Y-183203333D01*
X28683726Y-183144000D01*
X28802393Y-183144000D01*
X29099060Y-183559333D02*
X29099060Y-184034000D01*
X29929726Y-183737333D02*
X28861726Y-183737333D01*
X28743060Y-183796666D01*
X28683726Y-183915333D01*
X28683726Y-184034000D01*
X29929726Y-184449333D02*
X29099060Y-184449333D01*
X28683726Y-184449333D02*
X28743060Y-184390000D01*
X28802393Y-184449333D01*
X28743060Y-184508666D01*
X28683726Y-184449333D01*
X28802393Y-184449333D01*
X25917606Y-102758666D02*
X24671606Y-102758666D01*
X25086940Y-103174000D02*
X25086940Y-103648666D01*
X24671606Y-103352000D02*
X25739606Y-103352000D01*
X25858273Y-103411333D01*
X25917606Y-103530000D01*
X25917606Y-103648666D01*
X25917606Y-104064000D02*
X24671606Y-104064000D01*
X25917606Y-104598000D02*
X25264940Y-104598000D01*
X25146273Y-104538666D01*
X25086940Y-104420000D01*
X25086940Y-104242000D01*
X25146273Y-104123333D01*
X25205606Y-104064000D01*
X25917606Y-105369333D02*
X25858273Y-105250666D01*
X25798940Y-105191333D01*
X25680273Y-105132000D01*
X25324273Y-105132000D01*
X25205606Y-105191333D01*
X25146273Y-105250666D01*
X25086940Y-105369333D01*
X25086940Y-105547333D01*
X25146273Y-105666000D01*
X25205606Y-105725333D01*
X25324273Y-105784666D01*
X25680273Y-105784666D01*
X25798940Y-105725333D01*
X25858273Y-105666000D01*
X25917606Y-105547333D01*
X25917606Y-105369333D01*
X25798940Y-107980000D02*
X25858273Y-107920666D01*
X25917606Y-107742666D01*
X25917606Y-107624000D01*
X25858273Y-107446000D01*
X25739606Y-107327333D01*
X25620940Y-107268000D01*
X25383606Y-107208666D01*
X25205606Y-107208666D01*
X24968273Y-107268000D01*
X24849606Y-107327333D01*
X24730940Y-107446000D01*
X24671606Y-107624000D01*
X24671606Y-107742666D01*
X24730940Y-107920666D01*
X24790273Y-107980000D01*
X24671606Y-108336000D02*
X25917606Y-108751333D01*
X24671606Y-109166666D01*
X25264940Y-109582000D02*
X25264940Y-109997333D01*
X25917606Y-110175333D02*
X25917606Y-109582000D01*
X24671606Y-109582000D01*
X24671606Y-110175333D01*
X24671606Y-111540000D02*
X25917606Y-111836666D01*
X25027606Y-112074000D01*
X25917606Y-112311333D01*
X24671606Y-112608000D01*
X25917606Y-113082666D02*
X25086940Y-113082666D01*
X24671606Y-113082666D02*
X24730940Y-113023333D01*
X24790273Y-113082666D01*
X24730940Y-113142000D01*
X24671606Y-113082666D01*
X24790273Y-113082666D01*
X25264940Y-114091333D02*
X25264940Y-113676000D01*
X25917606Y-113676000D02*
X24671606Y-113676000D01*
X24671606Y-114269333D01*
X25917606Y-114744000D02*
X25086940Y-114744000D01*
X24671606Y-114744000D02*
X24730940Y-114684666D01*
X24790273Y-114744000D01*
X24730940Y-114803333D01*
X24671606Y-114744000D01*
X24790273Y-114744000D01*
X25798940Y-116998666D02*
X25858273Y-116939333D01*
X25917606Y-116761333D01*
X25917606Y-116642666D01*
X25858273Y-116464666D01*
X25739606Y-116346000D01*
X25620940Y-116286666D01*
X25383606Y-116227333D01*
X25205606Y-116227333D01*
X24968273Y-116286666D01*
X24849606Y-116346000D01*
X24730940Y-116464666D01*
X24671606Y-116642666D01*
X24671606Y-116761333D01*
X24730940Y-116939333D01*
X24790273Y-116998666D01*
X25917606Y-117710666D02*
X25858273Y-117592000D01*
X25798940Y-117532666D01*
X25680273Y-117473333D01*
X25324273Y-117473333D01*
X25205606Y-117532666D01*
X25146273Y-117592000D01*
X25086940Y-117710666D01*
X25086940Y-117888666D01*
X25146273Y-118007333D01*
X25205606Y-118066666D01*
X25324273Y-118126000D01*
X25680273Y-118126000D01*
X25798940Y-118066666D01*
X25858273Y-118007333D01*
X25917606Y-117888666D01*
X25917606Y-117710666D01*
X25086940Y-118660000D02*
X25917606Y-118660000D01*
X25205606Y-118660000D02*
X25146273Y-118719333D01*
X25086940Y-118838000D01*
X25086940Y-119016000D01*
X25146273Y-119134666D01*
X25264940Y-119194000D01*
X25917606Y-119194000D01*
X25086940Y-119609333D02*
X25086940Y-120084000D01*
X24671606Y-119787333D02*
X25739606Y-119787333D01*
X25858273Y-119846666D01*
X25917606Y-119965333D01*
X25917606Y-120084000D01*
X25917606Y-120499333D02*
X25086940Y-120499333D01*
X25324273Y-120499333D02*
X25205606Y-120558666D01*
X25146273Y-120618000D01*
X25086940Y-120736666D01*
X25086940Y-120855333D01*
X25917606Y-121448666D02*
X25858273Y-121330000D01*
X25798940Y-121270666D01*
X25680273Y-121211333D01*
X25324273Y-121211333D01*
X25205606Y-121270666D01*
X25146273Y-121330000D01*
X25086940Y-121448666D01*
X25086940Y-121626666D01*
X25146273Y-121745333D01*
X25205606Y-121804666D01*
X25324273Y-121864000D01*
X25680273Y-121864000D01*
X25798940Y-121804666D01*
X25858273Y-121745333D01*
X25917606Y-121626666D01*
X25917606Y-121448666D01*
X25917606Y-122576000D02*
X25858273Y-122457333D01*
X25739606Y-122398000D01*
X24671606Y-122398000D01*
X25917606Y-123228666D02*
X25858273Y-123110000D01*
X25739606Y-123050666D01*
X24671606Y-123050666D01*
X25858273Y-124178000D02*
X25917606Y-124059333D01*
X25917606Y-123822000D01*
X25858273Y-123703333D01*
X25739606Y-123644000D01*
X25264940Y-123644000D01*
X25146273Y-123703333D01*
X25086940Y-123822000D01*
X25086940Y-124059333D01*
X25146273Y-124178000D01*
X25264940Y-124237333D01*
X25383606Y-124237333D01*
X25502273Y-123644000D01*
X25917606Y-124771333D02*
X25086940Y-124771333D01*
X25324273Y-124771333D02*
X25205606Y-124830666D01*
X25146273Y-124890000D01*
X25086940Y-125008666D01*
X25086940Y-125127333D01*
X27567666Y-95994666D02*
X27567666Y-96588000D01*
X27923666Y-95876000D02*
X26677666Y-96291333D01*
X27923666Y-96706666D01*
X27923666Y-97122000D02*
X27093000Y-97122000D01*
X27330333Y-97122000D02*
X27211666Y-97181333D01*
X27152333Y-97240666D01*
X27093000Y-97359333D01*
X27093000Y-97478000D01*
X27093000Y-97893333D02*
X28161000Y-97893333D01*
X28279666Y-97834000D01*
X28339000Y-97715333D01*
X28339000Y-97656000D01*
X26677666Y-97893333D02*
X26737000Y-97834000D01*
X26796333Y-97893333D01*
X26737000Y-97952666D01*
X26677666Y-97893333D01*
X26796333Y-97893333D01*
X27864333Y-98961333D02*
X27923666Y-98842666D01*
X27923666Y-98605333D01*
X27864333Y-98486666D01*
X27745666Y-98427333D01*
X27271000Y-98427333D01*
X27152333Y-98486666D01*
X27093000Y-98605333D01*
X27093000Y-98842666D01*
X27152333Y-98961333D01*
X27271000Y-99020666D01*
X27389666Y-99020666D01*
X27508333Y-98427333D01*
X27093000Y-99554666D02*
X27923666Y-99554666D01*
X27211666Y-99554666D02*
X27152333Y-99614000D01*
X27093000Y-99732666D01*
X27093000Y-99910666D01*
X27152333Y-100029333D01*
X27271000Y-100088666D01*
X27923666Y-100088666D01*
X27923666Y-101631333D02*
X26677666Y-101631333D01*
X27271000Y-101631333D02*
X27271000Y-102343333D01*
X27923666Y-102343333D02*
X26677666Y-102343333D01*
X27923666Y-102936666D02*
X27093000Y-102936666D01*
X26677666Y-102936666D02*
X26737000Y-102877333D01*
X26796333Y-102936666D01*
X26737000Y-102996000D01*
X26677666Y-102936666D01*
X26796333Y-102936666D01*
X27864333Y-104004666D02*
X27923666Y-103886000D01*
X27923666Y-103648666D01*
X27864333Y-103530000D01*
X27745666Y-103470666D01*
X27271000Y-103470666D01*
X27152333Y-103530000D01*
X27093000Y-103648666D01*
X27093000Y-103886000D01*
X27152333Y-104004666D01*
X27271000Y-104064000D01*
X27389666Y-104064000D01*
X27508333Y-103470666D01*
X27923666Y-104598000D02*
X27093000Y-104598000D01*
X27211666Y-104598000D02*
X27152333Y-104657333D01*
X27093000Y-104776000D01*
X27093000Y-104954000D01*
X27152333Y-105072666D01*
X27271000Y-105132000D01*
X27923666Y-105132000D01*
X27271000Y-105132000D02*
X27152333Y-105191333D01*
X27093000Y-105310000D01*
X27093000Y-105488000D01*
X27152333Y-105606666D01*
X27271000Y-105666000D01*
X27923666Y-105666000D01*
X27864333Y-106199999D02*
X27923666Y-106318666D01*
X27923666Y-106555999D01*
X27864333Y-106674666D01*
X27745666Y-106733999D01*
X27686333Y-106733999D01*
X27567666Y-106674666D01*
X27508333Y-106555999D01*
X27508333Y-106377999D01*
X27449000Y-106259333D01*
X27330333Y-106199999D01*
X27271000Y-106199999D01*
X27152333Y-106259333D01*
X27093000Y-106377999D01*
X27093000Y-106555999D01*
X27152333Y-106674666D01*
X27093000Y-107090000D02*
X27093000Y-107564666D01*
X26677666Y-107268000D02*
X27745666Y-107268000D01*
X27864333Y-107327333D01*
X27923666Y-107446000D01*
X27923666Y-107564666D01*
X27923666Y-107980000D02*
X27093000Y-107980000D01*
X27330333Y-107980000D02*
X27211666Y-108039333D01*
X27152333Y-108098666D01*
X27093000Y-108217333D01*
X27093000Y-108336000D01*
X27923666Y-109285333D02*
X27271000Y-109285333D01*
X27152333Y-109226000D01*
X27093000Y-109107333D01*
X27093000Y-108870000D01*
X27152333Y-108751333D01*
X27864333Y-109285333D02*
X27923666Y-109166666D01*
X27923666Y-108870000D01*
X27864333Y-108751333D01*
X27745666Y-108692000D01*
X27627000Y-108692000D01*
X27508333Y-108751333D01*
X27449000Y-108870000D01*
X27449000Y-109166666D01*
X27389666Y-109285333D01*
X27449000Y-110828000D02*
X27449000Y-111777333D01*
X26737000Y-113972666D02*
X26677666Y-113854000D01*
X26677666Y-113676000D01*
X26737000Y-113498000D01*
X26855666Y-113379333D01*
X26974333Y-113320000D01*
X27211666Y-113260666D01*
X27389666Y-113260666D01*
X27627000Y-113320000D01*
X27745666Y-113379333D01*
X27864333Y-113498000D01*
X27923666Y-113676000D01*
X27923666Y-113794666D01*
X27864333Y-113972666D01*
X27805000Y-114032000D01*
X27389666Y-114032000D01*
X27389666Y-113794666D01*
X27923666Y-114566000D02*
X26677666Y-114566000D01*
X27923666Y-115278000D01*
X26677666Y-115278000D01*
X26677666Y-115871333D02*
X27686333Y-115871333D01*
X27805000Y-115930666D01*
X27864333Y-115990000D01*
X27923666Y-116108666D01*
X27923666Y-116346000D01*
X27864333Y-116464666D01*
X27805000Y-116524000D01*
X27686333Y-116583333D01*
X26677666Y-116583333D01*
X26737000Y-118778666D02*
X26677666Y-118660000D01*
X26677666Y-118481999D01*
X26737000Y-118304000D01*
X26855666Y-118185333D01*
X26974333Y-118126000D01*
X27211666Y-118066666D01*
X27389666Y-118066666D01*
X27627000Y-118126000D01*
X27745666Y-118185333D01*
X27864333Y-118304000D01*
X27923666Y-118481999D01*
X27923666Y-118600666D01*
X27864333Y-118778666D01*
X27805000Y-118838000D01*
X27389666Y-118838000D01*
X27389666Y-118600666D01*
X27923666Y-119371999D02*
X26677666Y-119371999D01*
X26677666Y-119846666D01*
X26737000Y-119965333D01*
X26796333Y-120024666D01*
X26915000Y-120083999D01*
X27093000Y-120083999D01*
X27211666Y-120024666D01*
X27271000Y-119965333D01*
X27330333Y-119846666D01*
X27330333Y-119371999D01*
X27923666Y-121211333D02*
X27923666Y-120617999D01*
X26677666Y-120617999D01*
X26677666Y-122457333D02*
X26677666Y-123228666D01*
X27152333Y-122813333D01*
X27152333Y-122991333D01*
X27211666Y-123109999D01*
X27271000Y-123169333D01*
X27389666Y-123228666D01*
X27686333Y-123228666D01*
X27805000Y-123169333D01*
X27864333Y-123109999D01*
X27923666Y-122991333D01*
X27923666Y-122635333D01*
X27864333Y-122516666D01*
X27805000Y-122457333D01*
X27805000Y-123762666D02*
X27864333Y-123821999D01*
X27923666Y-123762666D01*
X27864333Y-123703333D01*
X27805000Y-123762666D01*
X27923666Y-123762666D01*
X26677666Y-124593333D02*
X26677666Y-124711999D01*
X26737000Y-124830666D01*
X26796333Y-124889999D01*
X26915000Y-124949333D01*
X27152333Y-125008666D01*
X27449000Y-125008666D01*
X27686333Y-124949333D01*
X27805000Y-124889999D01*
X27864333Y-124830666D01*
X27923666Y-124711999D01*
X27923666Y-124593333D01*
X27864333Y-124474666D01*
X27805000Y-124415333D01*
X27686333Y-124355999D01*
X27449000Y-124296666D01*
X27152333Y-124296666D01*
X26915000Y-124355999D01*
X26796333Y-124415333D01*
X26737000Y-124474666D01*
X26677666Y-124593333D01*
X29929726Y-85255333D02*
X28683726Y-85255333D01*
X29929726Y-85789333D02*
X29277060Y-85789333D01*
X29158393Y-85730000D01*
X29099060Y-85611333D01*
X29099060Y-85433333D01*
X29158393Y-85314666D01*
X29217726Y-85255333D01*
X29099060Y-86204666D02*
X29099060Y-86679333D01*
X28683726Y-86382666D02*
X29751726Y-86382666D01*
X29870393Y-86442000D01*
X29929726Y-86560666D01*
X29929726Y-86679333D01*
X29099060Y-86916666D02*
X29099060Y-87391333D01*
X28683726Y-87094666D02*
X29751726Y-87094666D01*
X29870393Y-87154000D01*
X29929726Y-87272666D01*
X29929726Y-87391333D01*
X29099060Y-87806666D02*
X30345060Y-87806666D01*
X29158393Y-87806666D02*
X29099060Y-87925333D01*
X29099060Y-88162666D01*
X29158393Y-88281333D01*
X29217726Y-88340666D01*
X29336393Y-88400000D01*
X29692393Y-88400000D01*
X29811060Y-88340666D01*
X29870393Y-88281333D01*
X29929726Y-88162666D01*
X29929726Y-87925333D01*
X29870393Y-87806666D01*
X29870393Y-88874666D02*
X29929726Y-88993333D01*
X29929726Y-89230666D01*
X29870393Y-89349333D01*
X29751726Y-89408666D01*
X29692393Y-89408666D01*
X29573726Y-89349333D01*
X29514393Y-89230666D01*
X29514393Y-89052666D01*
X29455060Y-88934000D01*
X29336393Y-88874666D01*
X29277060Y-88874666D01*
X29158393Y-88934000D01*
X29099060Y-89052666D01*
X29099060Y-89230666D01*
X29158393Y-89349333D01*
X29811060Y-89942666D02*
X29870393Y-90002000D01*
X29929726Y-89942666D01*
X29870393Y-89883333D01*
X29811060Y-89942666D01*
X29929726Y-89942666D01*
X29158393Y-89942666D02*
X29217726Y-90002000D01*
X29277060Y-89942666D01*
X29217726Y-89883333D01*
X29158393Y-89942666D01*
X29277060Y-89942666D01*
X28624393Y-91426000D02*
X30226393Y-90358000D01*
X28624393Y-92731333D02*
X30226393Y-91663333D01*
X29099060Y-93680666D02*
X30107726Y-93680666D01*
X30226393Y-93621333D01*
X30285726Y-93562000D01*
X30345060Y-93443333D01*
X30345060Y-93265333D01*
X30285726Y-93146666D01*
X29870393Y-93680666D02*
X29929726Y-93562000D01*
X29929726Y-93324666D01*
X29870393Y-93206000D01*
X29811060Y-93146666D01*
X29692393Y-93087333D01*
X29336393Y-93087333D01*
X29217726Y-93146666D01*
X29158393Y-93206000D01*
X29099060Y-93324666D01*
X29099060Y-93562000D01*
X29158393Y-93680666D01*
X29929726Y-94274000D02*
X29099060Y-94274000D01*
X28683726Y-94274000D02*
X28743060Y-94214666D01*
X28802393Y-94274000D01*
X28743060Y-94333333D01*
X28683726Y-94274000D01*
X28802393Y-94274000D01*
X29099060Y-94689333D02*
X29099060Y-95164000D01*
X28683726Y-94867333D02*
X29751726Y-94867333D01*
X29870393Y-94926666D01*
X29929726Y-95045333D01*
X29929726Y-95164000D01*
X29929726Y-95579333D02*
X28683726Y-95579333D01*
X29929726Y-96113333D02*
X29277060Y-96113333D01*
X29158393Y-96054000D01*
X29099060Y-95935333D01*
X29099060Y-95757333D01*
X29158393Y-95638666D01*
X29217726Y-95579333D01*
X29099060Y-97240666D02*
X29929726Y-97240666D01*
X29099060Y-96706666D02*
X29751726Y-96706666D01*
X29870393Y-96766000D01*
X29929726Y-96884666D01*
X29929726Y-97062666D01*
X29870393Y-97181333D01*
X29811060Y-97240666D01*
X29929726Y-97834000D02*
X28683726Y-97834000D01*
X29158393Y-97834000D02*
X29099060Y-97952666D01*
X29099060Y-98190000D01*
X29158393Y-98308666D01*
X29217726Y-98368000D01*
X29336393Y-98427333D01*
X29692393Y-98427333D01*
X29811060Y-98368000D01*
X29870393Y-98308666D01*
X29929726Y-98190000D01*
X29929726Y-97952666D01*
X29870393Y-97834000D01*
X29811060Y-98961333D02*
X29870393Y-99020666D01*
X29929726Y-98961333D01*
X29870393Y-98902000D01*
X29811060Y-98961333D01*
X29929726Y-98961333D01*
X29870393Y-100088666D02*
X29929726Y-99970000D01*
X29929726Y-99732666D01*
X29870393Y-99614000D01*
X29811060Y-99554666D01*
X29692393Y-99495333D01*
X29336393Y-99495333D01*
X29217726Y-99554666D01*
X29158393Y-99614000D01*
X29099060Y-99732666D01*
X29099060Y-99970000D01*
X29158393Y-100088666D01*
X29929726Y-100800666D02*
X29870393Y-100682000D01*
X29811060Y-100622666D01*
X29692393Y-100563333D01*
X29336393Y-100563333D01*
X29217726Y-100622666D01*
X29158393Y-100682000D01*
X29099060Y-100800666D01*
X29099060Y-100978666D01*
X29158393Y-101097333D01*
X29217726Y-101156666D01*
X29336393Y-101216000D01*
X29692393Y-101216000D01*
X29811060Y-101156666D01*
X29870393Y-101097333D01*
X29929726Y-100978666D01*
X29929726Y-100800666D01*
X29929726Y-101750000D02*
X29099060Y-101750000D01*
X29217726Y-101750000D02*
X29158393Y-101809333D01*
X29099060Y-101928000D01*
X29099060Y-102106000D01*
X29158393Y-102224666D01*
X29277060Y-102284000D01*
X29929726Y-102284000D01*
X29277060Y-102284000D02*
X29158393Y-102343333D01*
X29099060Y-102462000D01*
X29099060Y-102640000D01*
X29158393Y-102758666D01*
X29277060Y-102818000D01*
X29929726Y-102818000D01*
X28624393Y-104301333D02*
X30226393Y-103233333D01*
X29929726Y-105250666D02*
X29277060Y-105250666D01*
X29158393Y-105191333D01*
X29099060Y-105072666D01*
X29099060Y-104835333D01*
X29158393Y-104716666D01*
X29870393Y-105250666D02*
X29929726Y-105132000D01*
X29929726Y-104835333D01*
X29870393Y-104716666D01*
X29751726Y-104657333D01*
X29633060Y-104657333D01*
X29514393Y-104716666D01*
X29455060Y-104835333D01*
X29455060Y-105132000D01*
X29395726Y-105250666D01*
X29929726Y-105844000D02*
X29099060Y-105844000D01*
X29336393Y-105844000D02*
X29217726Y-105903333D01*
X29158393Y-105962666D01*
X29099060Y-106081333D01*
X29099060Y-106200000D01*
X29099060Y-106615333D02*
X30167060Y-106615333D01*
X30285726Y-106555999D01*
X30345060Y-106437333D01*
X30345060Y-106377999D01*
X28683726Y-106615333D02*
X28743060Y-106555999D01*
X28802393Y-106615333D01*
X28743060Y-106674666D01*
X28683726Y-106615333D01*
X28802393Y-106615333D01*
X29870393Y-107683333D02*
X29929726Y-107564666D01*
X29929726Y-107327333D01*
X29870393Y-107208666D01*
X29751726Y-107149333D01*
X29277060Y-107149333D01*
X29158393Y-107208666D01*
X29099060Y-107327333D01*
X29099060Y-107564666D01*
X29158393Y-107683333D01*
X29277060Y-107742666D01*
X29395726Y-107742666D01*
X29514393Y-107149333D01*
X29099060Y-108276666D02*
X29929726Y-108276666D01*
X29217726Y-108276666D02*
X29158393Y-108335999D01*
X29099060Y-108454666D01*
X29099060Y-108632666D01*
X29158393Y-108751333D01*
X29277060Y-108810666D01*
X29929726Y-108810666D01*
X29929726Y-109403999D02*
X28683726Y-109403999D01*
X29929726Y-109937999D02*
X29277060Y-109937999D01*
X29158393Y-109878666D01*
X29099060Y-109759999D01*
X29099060Y-109581999D01*
X29158393Y-109463333D01*
X29217726Y-109403999D01*
X29929726Y-110531333D02*
X29099060Y-110531333D01*
X28683726Y-110531333D02*
X28743060Y-110472000D01*
X28802393Y-110531333D01*
X28743060Y-110590666D01*
X28683726Y-110531333D01*
X28802393Y-110531333D01*
X29870393Y-111599333D02*
X29929726Y-111480666D01*
X29929726Y-111243333D01*
X29870393Y-111124666D01*
X29751726Y-111065333D01*
X29277060Y-111065333D01*
X29158393Y-111124666D01*
X29099060Y-111243333D01*
X29099060Y-111480666D01*
X29158393Y-111599333D01*
X29277060Y-111658666D01*
X29395726Y-111658666D01*
X29514393Y-111065333D01*
X29929726Y-112192666D02*
X29099060Y-112192666D01*
X29217726Y-112192666D02*
X29158393Y-112252000D01*
X29099060Y-112370666D01*
X29099060Y-112548666D01*
X29158393Y-112667333D01*
X29277060Y-112726666D01*
X29929726Y-112726666D01*
X29277060Y-112726666D02*
X29158393Y-112786000D01*
X29099060Y-112904666D01*
X29099060Y-113082666D01*
X29158393Y-113201333D01*
X29277060Y-113260666D01*
X29929726Y-113260666D01*
X29870393Y-113794666D02*
X29929726Y-113913333D01*
X29929726Y-114150666D01*
X29870393Y-114269333D01*
X29751726Y-114328666D01*
X29692393Y-114328666D01*
X29573726Y-114269333D01*
X29514393Y-114150666D01*
X29514393Y-113972666D01*
X29455060Y-113854000D01*
X29336393Y-113794666D01*
X29277060Y-113794666D01*
X29158393Y-113854000D01*
X29099060Y-113972666D01*
X29099060Y-114150666D01*
X29158393Y-114269333D01*
X29099060Y-114684666D02*
X29099060Y-115159333D01*
X28683726Y-114862666D02*
X29751726Y-114862666D01*
X29870393Y-114922000D01*
X29929726Y-115040666D01*
X29929726Y-115159333D01*
X29929726Y-115574666D02*
X29099060Y-115574666D01*
X29336393Y-115574666D02*
X29217726Y-115634000D01*
X29158393Y-115693333D01*
X29099060Y-115812000D01*
X29099060Y-115930666D01*
X29929726Y-116880000D02*
X29277060Y-116880000D01*
X29158393Y-116820666D01*
X29099060Y-116702000D01*
X29099060Y-116464666D01*
X29158393Y-116346000D01*
X29870393Y-116880000D02*
X29929726Y-116761333D01*
X29929726Y-116464666D01*
X29870393Y-116346000D01*
X29751726Y-116286666D01*
X29633060Y-116286666D01*
X29514393Y-116346000D01*
X29455060Y-116464666D01*
X29455060Y-116761333D01*
X29395726Y-116880000D01*
X28624393Y-118363333D02*
X30226393Y-117295333D01*
X29929726Y-118778666D02*
X29099060Y-118778666D01*
X28683726Y-118778666D02*
X28743060Y-118719333D01*
X28802393Y-118778666D01*
X28743060Y-118838000D01*
X28683726Y-118778666D01*
X28802393Y-118778666D01*
X29099060Y-119194000D02*
X29099060Y-119668666D01*
X28683726Y-119372000D02*
X29751726Y-119372000D01*
X29870393Y-119431333D01*
X29929726Y-119550000D01*
X29929726Y-119668666D01*
X29929726Y-120084000D02*
X28683726Y-120084000D01*
X29929726Y-120618000D02*
X29277060Y-120618000D01*
X29158393Y-120558666D01*
X29099060Y-120440000D01*
X29099060Y-120262000D01*
X29158393Y-120143333D01*
X29217726Y-120084000D01*
X29929726Y-121389333D02*
X29870393Y-121270666D01*
X29811060Y-121211333D01*
X29692393Y-121152000D01*
X29336393Y-121152000D01*
X29217726Y-121211333D01*
X29158393Y-121270666D01*
X29099060Y-121389333D01*
X29099060Y-121567333D01*
X29158393Y-121685999D01*
X29217726Y-121745333D01*
X29336393Y-121804666D01*
X29692393Y-121804666D01*
X29811060Y-121745333D01*
X29870393Y-121685999D01*
X29929726Y-121567333D01*
X29929726Y-121389333D01*
X29099060Y-122219999D02*
X29929726Y-122457333D01*
X29336393Y-122694666D01*
X29929726Y-122931999D01*
X29099060Y-123169333D01*
X29929726Y-123643999D02*
X29099060Y-123643999D01*
X28683726Y-123643999D02*
X28743060Y-123584666D01*
X28802393Y-123643999D01*
X28743060Y-123703333D01*
X28683726Y-123643999D01*
X28802393Y-123643999D01*
X29099060Y-124059333D02*
X29099060Y-124533999D01*
X29929726Y-124237333D02*
X28861726Y-124237333D01*
X28743060Y-124296666D01*
X28683726Y-124415333D01*
X28683726Y-124533999D01*
X29929726Y-124949333D02*
X29099060Y-124949333D01*
X28683726Y-124949333D02*
X28743060Y-124889999D01*
X28802393Y-124949333D01*
X28743060Y-125008666D01*
X28683726Y-124949333D01*
X28802393Y-124949333D01*
X74217606Y-43258666D02*
X72971606Y-43258666D01*
X73386940Y-43674000D02*
X73386940Y-44148666D01*
X72971606Y-43852000D02*
X74039606Y-43852000D01*
X74158273Y-43911333D01*
X74217606Y-44030000D01*
X74217606Y-44148666D01*
X74217606Y-44564000D02*
X72971606Y-44564000D01*
X74217606Y-45098000D02*
X73564940Y-45098000D01*
X73446273Y-45038666D01*
X73386940Y-44920000D01*
X73386940Y-44742000D01*
X73446273Y-44623333D01*
X73505606Y-44564000D01*
X74217606Y-45869333D02*
X74158273Y-45750666D01*
X74098940Y-45691333D01*
X73980273Y-45632000D01*
X73624273Y-45632000D01*
X73505606Y-45691333D01*
X73446273Y-45750666D01*
X73386940Y-45869333D01*
X73386940Y-46047333D01*
X73446273Y-46166000D01*
X73505606Y-46225333D01*
X73624273Y-46284666D01*
X73980273Y-46284666D01*
X74098940Y-46225333D01*
X74158273Y-46166000D01*
X74217606Y-46047333D01*
X74217606Y-45869333D01*
X74098940Y-48480000D02*
X74158273Y-48420666D01*
X74217606Y-48242666D01*
X74217606Y-48124000D01*
X74158273Y-47946000D01*
X74039606Y-47827333D01*
X73920940Y-47768000D01*
X73683606Y-47708666D01*
X73505606Y-47708666D01*
X73268273Y-47768000D01*
X73149606Y-47827333D01*
X73030940Y-47946000D01*
X72971606Y-48124000D01*
X72971606Y-48242666D01*
X73030940Y-48420666D01*
X73090273Y-48480000D01*
X72971606Y-48836000D02*
X74217606Y-49251333D01*
X72971606Y-49666666D01*
X73564940Y-50081999D02*
X73564940Y-50497333D01*
X74217606Y-50675333D02*
X74217606Y-50081999D01*
X72971606Y-50081999D01*
X72971606Y-50675333D01*
X72971606Y-52040000D02*
X74217606Y-52336666D01*
X73327606Y-52574000D01*
X74217606Y-52811333D01*
X72971606Y-53108000D01*
X74217606Y-53582666D02*
X73386940Y-53582666D01*
X72971606Y-53582666D02*
X73030940Y-53523333D01*
X73090273Y-53582666D01*
X73030940Y-53642000D01*
X72971606Y-53582666D01*
X73090273Y-53582666D01*
X73564940Y-54591333D02*
X73564940Y-54176000D01*
X74217606Y-54176000D02*
X72971606Y-54176000D01*
X72971606Y-54769333D01*
X74217606Y-55244000D02*
X73386940Y-55244000D01*
X72971606Y-55244000D02*
X73030940Y-55184666D01*
X73090273Y-55244000D01*
X73030940Y-55303333D01*
X72971606Y-55244000D01*
X73090273Y-55244000D01*
X74098940Y-57498666D02*
X74158273Y-57439333D01*
X74217606Y-57261333D01*
X74217606Y-57142666D01*
X74158273Y-56964666D01*
X74039606Y-56846000D01*
X73920940Y-56786666D01*
X73683606Y-56727333D01*
X73505606Y-56727333D01*
X73268273Y-56786666D01*
X73149606Y-56846000D01*
X73030940Y-56964666D01*
X72971606Y-57142666D01*
X72971606Y-57261333D01*
X73030940Y-57439333D01*
X73090273Y-57498666D01*
X74217606Y-58210666D02*
X74158273Y-58092000D01*
X74098940Y-58032666D01*
X73980273Y-57973333D01*
X73624273Y-57973333D01*
X73505606Y-58032666D01*
X73446273Y-58092000D01*
X73386940Y-58210666D01*
X73386940Y-58388666D01*
X73446273Y-58507333D01*
X73505606Y-58566666D01*
X73624273Y-58626000D01*
X73980273Y-58626000D01*
X74098940Y-58566666D01*
X74158273Y-58507333D01*
X74217606Y-58388666D01*
X74217606Y-58210666D01*
X73386940Y-59160000D02*
X74217606Y-59160000D01*
X73505606Y-59160000D02*
X73446273Y-59219333D01*
X73386940Y-59338000D01*
X73386940Y-59516000D01*
X73446273Y-59634666D01*
X73564940Y-59694000D01*
X74217606Y-59694000D01*
X73386940Y-60109333D02*
X73386940Y-60584000D01*
X72971606Y-60287333D02*
X74039606Y-60287333D01*
X74158273Y-60346666D01*
X74217606Y-60465333D01*
X74217606Y-60584000D01*
X74217606Y-60999333D02*
X73386940Y-60999333D01*
X73624273Y-60999333D02*
X73505606Y-61058666D01*
X73446273Y-61118000D01*
X73386940Y-61236666D01*
X73386940Y-61355333D01*
X74217606Y-61948666D02*
X74158273Y-61830000D01*
X74098940Y-61770666D01*
X73980273Y-61711333D01*
X73624273Y-61711333D01*
X73505606Y-61770666D01*
X73446273Y-61830000D01*
X73386940Y-61948666D01*
X73386940Y-62126666D01*
X73446273Y-62245333D01*
X73505606Y-62304666D01*
X73624273Y-62364000D01*
X73980273Y-62364000D01*
X74098940Y-62304666D01*
X74158273Y-62245333D01*
X74217606Y-62126666D01*
X74217606Y-61948666D01*
X74217606Y-63076000D02*
X74158273Y-62957333D01*
X74039606Y-62898000D01*
X72971606Y-62898000D01*
X74217606Y-63728666D02*
X74158273Y-63610000D01*
X74039606Y-63550666D01*
X72971606Y-63550666D01*
X74158273Y-64678000D02*
X74217606Y-64559333D01*
X74217606Y-64322000D01*
X74158273Y-64203333D01*
X74039606Y-64144000D01*
X73564940Y-64144000D01*
X73446273Y-64203333D01*
X73386940Y-64322000D01*
X73386940Y-64559333D01*
X73446273Y-64678000D01*
X73564940Y-64737333D01*
X73683606Y-64737333D01*
X73802273Y-64144000D01*
X74217606Y-65271333D02*
X73386940Y-65271333D01*
X73624273Y-65271333D02*
X73505606Y-65330666D01*
X73446273Y-65390000D01*
X73386940Y-65508666D01*
X73386940Y-65627333D01*
X75867666Y-36494666D02*
X75867666Y-37088000D01*
X76223666Y-36376000D02*
X74977666Y-36791333D01*
X76223666Y-37206666D01*
X76223666Y-37622000D02*
X75393000Y-37622000D01*
X75630333Y-37622000D02*
X75511666Y-37681333D01*
X75452333Y-37740666D01*
X75393000Y-37859333D01*
X75393000Y-37978000D01*
X75393000Y-38393333D02*
X76461000Y-38393333D01*
X76579666Y-38334000D01*
X76639000Y-38215333D01*
X76639000Y-38156000D01*
X74977666Y-38393333D02*
X75037000Y-38334000D01*
X75096333Y-38393333D01*
X75037000Y-38452666D01*
X74977666Y-38393333D01*
X75096333Y-38393333D01*
X76164333Y-39461333D02*
X76223666Y-39342666D01*
X76223666Y-39105333D01*
X76164333Y-38986666D01*
X76045666Y-38927333D01*
X75571000Y-38927333D01*
X75452333Y-38986666D01*
X75393000Y-39105333D01*
X75393000Y-39342666D01*
X75452333Y-39461333D01*
X75571000Y-39520666D01*
X75689666Y-39520666D01*
X75808333Y-38927333D01*
X75393000Y-40054666D02*
X76223666Y-40054666D01*
X75511666Y-40054666D02*
X75452333Y-40114000D01*
X75393000Y-40232666D01*
X75393000Y-40410666D01*
X75452333Y-40529333D01*
X75571000Y-40588666D01*
X76223666Y-40588666D01*
X76223666Y-42131333D02*
X74977666Y-42131333D01*
X75571000Y-42131333D02*
X75571000Y-42843333D01*
X76223666Y-42843333D02*
X74977666Y-42843333D01*
X76223666Y-43436666D02*
X75393000Y-43436666D01*
X74977666Y-43436666D02*
X75037000Y-43377333D01*
X75096333Y-43436666D01*
X75037000Y-43496000D01*
X74977666Y-43436666D01*
X75096333Y-43436666D01*
X76164333Y-44504666D02*
X76223666Y-44386000D01*
X76223666Y-44148666D01*
X76164333Y-44030000D01*
X76045666Y-43970666D01*
X75571000Y-43970666D01*
X75452333Y-44030000D01*
X75393000Y-44148666D01*
X75393000Y-44386000D01*
X75452333Y-44504666D01*
X75571000Y-44564000D01*
X75689666Y-44564000D01*
X75808333Y-43970666D01*
X76223666Y-45098000D02*
X75393000Y-45098000D01*
X75511666Y-45098000D02*
X75452333Y-45157333D01*
X75393000Y-45276000D01*
X75393000Y-45454000D01*
X75452333Y-45572666D01*
X75571000Y-45632000D01*
X76223666Y-45632000D01*
X75571000Y-45632000D02*
X75452333Y-45691333D01*
X75393000Y-45810000D01*
X75393000Y-45988000D01*
X75452333Y-46106666D01*
X75571000Y-46166000D01*
X76223666Y-46166000D01*
X76164333Y-46699999D02*
X76223666Y-46818666D01*
X76223666Y-47055999D01*
X76164333Y-47174666D01*
X76045666Y-47233999D01*
X75986333Y-47233999D01*
X75867666Y-47174666D01*
X75808333Y-47055999D01*
X75808333Y-46877999D01*
X75749000Y-46759333D01*
X75630333Y-46699999D01*
X75571000Y-46699999D01*
X75452333Y-46759333D01*
X75393000Y-46877999D01*
X75393000Y-47055999D01*
X75452333Y-47174666D01*
X75393000Y-47590000D02*
X75393000Y-48064666D01*
X74977666Y-47768000D02*
X76045666Y-47768000D01*
X76164333Y-47827333D01*
X76223666Y-47946000D01*
X76223666Y-48064666D01*
X76223666Y-48480000D02*
X75393000Y-48480000D01*
X75630333Y-48480000D02*
X75511666Y-48539333D01*
X75452333Y-48598666D01*
X75393000Y-48717333D01*
X75393000Y-48836000D01*
X76223666Y-49785333D02*
X75571000Y-49785333D01*
X75452333Y-49725999D01*
X75393000Y-49607333D01*
X75393000Y-49369999D01*
X75452333Y-49251333D01*
X76164333Y-49785333D02*
X76223666Y-49666666D01*
X76223666Y-49369999D01*
X76164333Y-49251333D01*
X76045666Y-49191999D01*
X75927000Y-49191999D01*
X75808333Y-49251333D01*
X75749000Y-49369999D01*
X75749000Y-49666666D01*
X75689666Y-49785333D01*
X75749000Y-51327999D02*
X75749000Y-52277333D01*
X75037000Y-54472666D02*
X74977666Y-54353999D01*
X74977666Y-54175999D01*
X75037000Y-53997999D01*
X75155666Y-53879333D01*
X75274333Y-53819999D01*
X75511666Y-53760666D01*
X75689666Y-53760666D01*
X75927000Y-53819999D01*
X76045666Y-53879333D01*
X76164333Y-53997999D01*
X76223666Y-54175999D01*
X76223666Y-54294666D01*
X76164333Y-54472666D01*
X76105000Y-54531999D01*
X75689666Y-54531999D01*
X75689666Y-54294666D01*
X76223666Y-55065999D02*
X74977666Y-55065999D01*
X76223666Y-55777999D01*
X74977666Y-55777999D01*
X74977666Y-56371333D02*
X75986333Y-56371333D01*
X76105000Y-56430666D01*
X76164333Y-56489999D01*
X76223666Y-56608666D01*
X76223666Y-56845999D01*
X76164333Y-56964666D01*
X76105000Y-57023999D01*
X75986333Y-57083333D01*
X74977666Y-57083333D01*
X75037000Y-59278666D02*
X74977666Y-59159999D01*
X74977666Y-58981999D01*
X75037000Y-58803999D01*
X75155666Y-58685333D01*
X75274333Y-58625999D01*
X75511666Y-58566666D01*
X75689666Y-58566666D01*
X75927000Y-58625999D01*
X76045666Y-58685333D01*
X76164333Y-58803999D01*
X76223666Y-58981999D01*
X76223666Y-59100666D01*
X76164333Y-59278666D01*
X76105000Y-59337999D01*
X75689666Y-59337999D01*
X75689666Y-59100666D01*
X76223666Y-59871999D02*
X74977666Y-59871999D01*
X74977666Y-60346666D01*
X75037000Y-60465333D01*
X75096333Y-60524666D01*
X75215000Y-60583999D01*
X75393000Y-60583999D01*
X75511666Y-60524666D01*
X75571000Y-60465333D01*
X75630333Y-60346666D01*
X75630333Y-59871999D01*
X76223666Y-61711333D02*
X76223666Y-61117999D01*
X74977666Y-61117999D01*
X74977666Y-62957333D02*
X74977666Y-63728666D01*
X75452333Y-63313333D01*
X75452333Y-63491333D01*
X75511666Y-63609999D01*
X75571000Y-63669333D01*
X75689666Y-63728666D01*
X75986333Y-63728666D01*
X76105000Y-63669333D01*
X76164333Y-63609999D01*
X76223666Y-63491333D01*
X76223666Y-63135333D01*
X76164333Y-63016666D01*
X76105000Y-62957333D01*
X76105000Y-64262666D02*
X76164333Y-64321999D01*
X76223666Y-64262666D01*
X76164333Y-64203333D01*
X76105000Y-64262666D01*
X76223666Y-64262666D01*
X74977666Y-65093333D02*
X74977666Y-65211999D01*
X75037000Y-65330666D01*
X75096333Y-65389999D01*
X75215000Y-65449333D01*
X75452333Y-65508666D01*
X75749000Y-65508666D01*
X75986333Y-65449333D01*
X76105000Y-65389999D01*
X76164333Y-65330666D01*
X76223666Y-65211999D01*
X76223666Y-65093333D01*
X76164333Y-64974666D01*
X76105000Y-64915333D01*
X75986333Y-64855999D01*
X75749000Y-64796666D01*
X75452333Y-64796666D01*
X75215000Y-64855999D01*
X75096333Y-64915333D01*
X75037000Y-64974666D01*
X74977666Y-65093333D01*
X78229726Y-25755333D02*
X76983726Y-25755333D01*
X78229726Y-26289333D02*
X77577060Y-26289333D01*
X77458393Y-26230000D01*
X77399060Y-26111333D01*
X77399060Y-25933333D01*
X77458393Y-25814666D01*
X77517726Y-25755333D01*
X77399060Y-26704666D02*
X77399060Y-27179333D01*
X76983726Y-26882666D02*
X78051726Y-26882666D01*
X78170393Y-26942000D01*
X78229726Y-27060666D01*
X78229726Y-27179333D01*
X77399060Y-27416666D02*
X77399060Y-27891333D01*
X76983726Y-27594666D02*
X78051726Y-27594666D01*
X78170393Y-27654000D01*
X78229726Y-27772666D01*
X78229726Y-27891333D01*
X77399060Y-28306666D02*
X78645060Y-28306666D01*
X77458393Y-28306666D02*
X77399060Y-28425333D01*
X77399060Y-28662666D01*
X77458393Y-28781333D01*
X77517726Y-28840666D01*
X77636393Y-28900000D01*
X77992393Y-28900000D01*
X78111060Y-28840666D01*
X78170393Y-28781333D01*
X78229726Y-28662666D01*
X78229726Y-28425333D01*
X78170393Y-28306666D01*
X78170393Y-29374666D02*
X78229726Y-29493333D01*
X78229726Y-29730666D01*
X78170393Y-29849333D01*
X78051726Y-29908666D01*
X77992393Y-29908666D01*
X77873726Y-29849333D01*
X77814393Y-29730666D01*
X77814393Y-29552666D01*
X77755060Y-29434000D01*
X77636393Y-29374666D01*
X77577060Y-29374666D01*
X77458393Y-29434000D01*
X77399060Y-29552666D01*
X77399060Y-29730666D01*
X77458393Y-29849333D01*
X78111060Y-30442666D02*
X78170393Y-30502000D01*
X78229726Y-30442666D01*
X78170393Y-30383333D01*
X78111060Y-30442666D01*
X78229726Y-30442666D01*
X77458393Y-30442666D02*
X77517726Y-30502000D01*
X77577060Y-30442666D01*
X77517726Y-30383333D01*
X77458393Y-30442666D01*
X77577060Y-30442666D01*
X76924393Y-31926000D02*
X78526393Y-30858000D01*
X76924393Y-33231333D02*
X78526393Y-32163333D01*
X77399060Y-34180666D02*
X78407726Y-34180666D01*
X78526393Y-34121333D01*
X78585726Y-34062000D01*
X78645060Y-33943333D01*
X78645060Y-33765333D01*
X78585726Y-33646666D01*
X78170393Y-34180666D02*
X78229726Y-34062000D01*
X78229726Y-33824666D01*
X78170393Y-33706000D01*
X78111060Y-33646666D01*
X77992393Y-33587333D01*
X77636393Y-33587333D01*
X77517726Y-33646666D01*
X77458393Y-33706000D01*
X77399060Y-33824666D01*
X77399060Y-34062000D01*
X77458393Y-34180666D01*
X78229726Y-34774000D02*
X77399060Y-34774000D01*
X76983726Y-34774000D02*
X77043060Y-34714666D01*
X77102393Y-34774000D01*
X77043060Y-34833333D01*
X76983726Y-34774000D01*
X77102393Y-34774000D01*
X77399060Y-35189333D02*
X77399060Y-35664000D01*
X76983726Y-35367333D02*
X78051726Y-35367333D01*
X78170393Y-35426666D01*
X78229726Y-35545333D01*
X78229726Y-35664000D01*
X78229726Y-36079333D02*
X76983726Y-36079333D01*
X78229726Y-36613333D02*
X77577060Y-36613333D01*
X77458393Y-36554000D01*
X77399060Y-36435333D01*
X77399060Y-36257333D01*
X77458393Y-36138666D01*
X77517726Y-36079333D01*
X77399060Y-37740666D02*
X78229726Y-37740666D01*
X77399060Y-37206666D02*
X78051726Y-37206666D01*
X78170393Y-37266000D01*
X78229726Y-37384666D01*
X78229726Y-37562666D01*
X78170393Y-37681333D01*
X78111060Y-37740666D01*
X78229726Y-38334000D02*
X76983726Y-38334000D01*
X77458393Y-38334000D02*
X77399060Y-38452666D01*
X77399060Y-38690000D01*
X77458393Y-38808666D01*
X77517726Y-38868000D01*
X77636393Y-38927333D01*
X77992393Y-38927333D01*
X78111060Y-38868000D01*
X78170393Y-38808666D01*
X78229726Y-38690000D01*
X78229726Y-38452666D01*
X78170393Y-38334000D01*
X78111060Y-39461333D02*
X78170393Y-39520666D01*
X78229726Y-39461333D01*
X78170393Y-39402000D01*
X78111060Y-39461333D01*
X78229726Y-39461333D01*
X78170393Y-40588666D02*
X78229726Y-40470000D01*
X78229726Y-40232666D01*
X78170393Y-40114000D01*
X78111060Y-40054666D01*
X77992393Y-39995333D01*
X77636393Y-39995333D01*
X77517726Y-40054666D01*
X77458393Y-40114000D01*
X77399060Y-40232666D01*
X77399060Y-40470000D01*
X77458393Y-40588666D01*
X78229726Y-41300666D02*
X78170393Y-41182000D01*
X78111060Y-41122666D01*
X77992393Y-41063333D01*
X77636393Y-41063333D01*
X77517726Y-41122666D01*
X77458393Y-41182000D01*
X77399060Y-41300666D01*
X77399060Y-41478666D01*
X77458393Y-41597333D01*
X77517726Y-41656666D01*
X77636393Y-41716000D01*
X77992393Y-41716000D01*
X78111060Y-41656666D01*
X78170393Y-41597333D01*
X78229726Y-41478666D01*
X78229726Y-41300666D01*
X78229726Y-42250000D02*
X77399060Y-42250000D01*
X77517726Y-42250000D02*
X77458393Y-42309333D01*
X77399060Y-42428000D01*
X77399060Y-42606000D01*
X77458393Y-42724666D01*
X77577060Y-42784000D01*
X78229726Y-42784000D01*
X77577060Y-42784000D02*
X77458393Y-42843333D01*
X77399060Y-42962000D01*
X77399060Y-43140000D01*
X77458393Y-43258666D01*
X77577060Y-43318000D01*
X78229726Y-43318000D01*
X76924393Y-44801333D02*
X78526393Y-43733333D01*
X78229726Y-45750666D02*
X77577060Y-45750666D01*
X77458393Y-45691333D01*
X77399060Y-45572666D01*
X77399060Y-45335333D01*
X77458393Y-45216666D01*
X78170393Y-45750666D02*
X78229726Y-45632000D01*
X78229726Y-45335333D01*
X78170393Y-45216666D01*
X78051726Y-45157333D01*
X77933060Y-45157333D01*
X77814393Y-45216666D01*
X77755060Y-45335333D01*
X77755060Y-45632000D01*
X77695726Y-45750666D01*
X78229726Y-46344000D02*
X77399060Y-46344000D01*
X77636393Y-46344000D02*
X77517726Y-46403333D01*
X77458393Y-46462666D01*
X77399060Y-46581333D01*
X77399060Y-46700000D01*
X77399060Y-47115333D02*
X78467060Y-47115333D01*
X78585726Y-47055999D01*
X78645060Y-46937333D01*
X78645060Y-46877999D01*
X76983726Y-47115333D02*
X77043060Y-47055999D01*
X77102393Y-47115333D01*
X77043060Y-47174666D01*
X76983726Y-47115333D01*
X77102393Y-47115333D01*
X78170393Y-48183333D02*
X78229726Y-48064666D01*
X78229726Y-47827333D01*
X78170393Y-47708666D01*
X78051726Y-47649333D01*
X77577060Y-47649333D01*
X77458393Y-47708666D01*
X77399060Y-47827333D01*
X77399060Y-48064666D01*
X77458393Y-48183333D01*
X77577060Y-48242666D01*
X77695726Y-48242666D01*
X77814393Y-47649333D01*
X77399060Y-48776666D02*
X78229726Y-48776666D01*
X77517726Y-48776666D02*
X77458393Y-48835999D01*
X77399060Y-48954666D01*
X77399060Y-49132666D01*
X77458393Y-49251333D01*
X77577060Y-49310666D01*
X78229726Y-49310666D01*
X78229726Y-49903999D02*
X76983726Y-49903999D01*
X78229726Y-50437999D02*
X77577060Y-50437999D01*
X77458393Y-50378666D01*
X77399060Y-50259999D01*
X77399060Y-50081999D01*
X77458393Y-49963333D01*
X77517726Y-49903999D01*
X78229726Y-51031333D02*
X77399060Y-51031333D01*
X76983726Y-51031333D02*
X77043060Y-50971999D01*
X77102393Y-51031333D01*
X77043060Y-51090666D01*
X76983726Y-51031333D01*
X77102393Y-51031333D01*
X78170393Y-52099333D02*
X78229726Y-51980666D01*
X78229726Y-51743333D01*
X78170393Y-51624666D01*
X78051726Y-51565333D01*
X77577060Y-51565333D01*
X77458393Y-51624666D01*
X77399060Y-51743333D01*
X77399060Y-51980666D01*
X77458393Y-52099333D01*
X77577060Y-52158666D01*
X77695726Y-52158666D01*
X77814393Y-51565333D01*
X78229726Y-52692666D02*
X77399060Y-52692666D01*
X77517726Y-52692666D02*
X77458393Y-52751999D01*
X77399060Y-52870666D01*
X77399060Y-53048666D01*
X77458393Y-53167333D01*
X77577060Y-53226666D01*
X78229726Y-53226666D01*
X77577060Y-53226666D02*
X77458393Y-53285999D01*
X77399060Y-53404666D01*
X77399060Y-53582666D01*
X77458393Y-53701333D01*
X77577060Y-53760666D01*
X78229726Y-53760666D01*
X78170393Y-54294666D02*
X78229726Y-54413333D01*
X78229726Y-54650666D01*
X78170393Y-54769333D01*
X78051726Y-54828666D01*
X77992393Y-54828666D01*
X77873726Y-54769333D01*
X77814393Y-54650666D01*
X77814393Y-54472666D01*
X77755060Y-54353999D01*
X77636393Y-54294666D01*
X77577060Y-54294666D01*
X77458393Y-54353999D01*
X77399060Y-54472666D01*
X77399060Y-54650666D01*
X77458393Y-54769333D01*
X77399060Y-55184666D02*
X77399060Y-55659333D01*
X76983726Y-55362666D02*
X78051726Y-55362666D01*
X78170393Y-55421999D01*
X78229726Y-55540666D01*
X78229726Y-55659333D01*
X78229726Y-56074666D02*
X77399060Y-56074666D01*
X77636393Y-56074666D02*
X77517726Y-56133999D01*
X77458393Y-56193333D01*
X77399060Y-56311999D01*
X77399060Y-56430666D01*
X78229726Y-57379999D02*
X77577060Y-57379999D01*
X77458393Y-57320666D01*
X77399060Y-57201999D01*
X77399060Y-56964666D01*
X77458393Y-56845999D01*
X78170393Y-57379999D02*
X78229726Y-57261333D01*
X78229726Y-56964666D01*
X78170393Y-56845999D01*
X78051726Y-56786666D01*
X77933060Y-56786666D01*
X77814393Y-56845999D01*
X77755060Y-56964666D01*
X77755060Y-57261333D01*
X77695726Y-57379999D01*
X76924393Y-58863333D02*
X78526393Y-57795333D01*
X78229726Y-59278666D02*
X77399060Y-59278666D01*
X76983726Y-59278666D02*
X77043060Y-59219333D01*
X77102393Y-59278666D01*
X77043060Y-59337999D01*
X76983726Y-59278666D01*
X77102393Y-59278666D01*
X77399060Y-59693999D02*
X77399060Y-60168666D01*
X76983726Y-59871999D02*
X78051726Y-59871999D01*
X78170393Y-59931333D01*
X78229726Y-60049999D01*
X78229726Y-60168666D01*
X78229726Y-60583999D02*
X76983726Y-60583999D01*
X78229726Y-61117999D02*
X77577060Y-61117999D01*
X77458393Y-61058666D01*
X77399060Y-60939999D01*
X77399060Y-60761999D01*
X77458393Y-60643333D01*
X77517726Y-60583999D01*
X78229726Y-61889333D02*
X78170393Y-61770666D01*
X78111060Y-61711333D01*
X77992393Y-61651999D01*
X77636393Y-61651999D01*
X77517726Y-61711333D01*
X77458393Y-61770666D01*
X77399060Y-61889333D01*
X77399060Y-62067333D01*
X77458393Y-62185999D01*
X77517726Y-62245333D01*
X77636393Y-62304666D01*
X77992393Y-62304666D01*
X78111060Y-62245333D01*
X78170393Y-62185999D01*
X78229726Y-62067333D01*
X78229726Y-61889333D01*
X77399060Y-62719999D02*
X78229726Y-62957333D01*
X77636393Y-63194666D01*
X78229726Y-63431999D01*
X77399060Y-63669333D01*
X78229726Y-64143999D02*
X77399060Y-64143999D01*
X76983726Y-64143999D02*
X77043060Y-64084666D01*
X77102393Y-64143999D01*
X77043060Y-64203333D01*
X76983726Y-64143999D01*
X77102393Y-64143999D01*
X77399060Y-64559333D02*
X77399060Y-65033999D01*
X78229726Y-64737333D02*
X77161726Y-64737333D01*
X77043060Y-64796666D01*
X76983726Y-64915333D01*
X76983726Y-65033999D01*
X78229726Y-65449333D02*
X77399060Y-65449333D01*
X76983726Y-65449333D02*
X77043060Y-65389999D01*
X77102393Y-65449333D01*
X77043060Y-65508666D01*
X76983726Y-65449333D01*
X77102393Y-65449333D01*
D11*
G36*
X102076000Y-166029200D02*
G01*
X84829400Y-166029200D01*
X84804000Y-149062000D01*
X102076000Y-149062000D01*
X102076000Y-166029200D01*
G37*
X102076000Y-166029200D02*
X84829400Y-166029200D01*
X84804000Y-149062000D01*
X102076000Y-149062000D01*
X102076000Y-166029200D01*
G36*
X53776000Y-166029200D02*
G01*
X36529400Y-166029200D01*
X36504000Y-149062000D01*
X53776000Y-149062000D01*
X53776000Y-166029200D01*
G37*
X53776000Y-166029200D02*
X36529400Y-166029200D01*
X36504000Y-149062000D01*
X53776000Y-149062000D01*
X53776000Y-166029200D01*
G36*
X53776000Y-47029200D02*
G01*
X36529400Y-47029200D01*
X36504000Y-30062000D01*
X53776000Y-30062000D01*
X53776000Y-47029200D01*
G37*
X53776000Y-47029200D02*
X36529400Y-47029200D01*
X36504000Y-30062000D01*
X53776000Y-30062000D01*
X53776000Y-47029200D01*
G36*
X53776000Y-106529200D02*
G01*
X36529400Y-106529200D01*
X36504000Y-89562000D01*
X53776000Y-89562000D01*
X53776000Y-106529200D01*
G37*
X53776000Y-106529200D02*
X36529400Y-106529200D01*
X36504000Y-89562000D01*
X53776000Y-89562000D01*
X53776000Y-106529200D01*
G36*
X102076000Y-47029200D02*
G01*
X84829400Y-47029200D01*
X84804000Y-30062000D01*
X102076000Y-30062000D01*
X102076000Y-47029200D01*
G37*
X102076000Y-47029200D02*
X84829400Y-47029200D01*
X84804000Y-30062000D01*
X102076000Y-30062000D01*
X102076000Y-47029200D01*
G36*
X102076000Y-106529200D02*
G01*
X84829400Y-106529200D01*
X84804000Y-89562000D01*
X102076000Y-89562000D01*
X102076000Y-106529200D01*
G37*
X102076000Y-106529200D02*
X84829400Y-106529200D01*
X84804000Y-89562000D01*
X102076000Y-89562000D01*
X102076000Y-106529200D01*
D12*
%TO.C,U2*%
X55403142Y-29436047D02*
X55450761Y-29388428D01*
X55498380Y-29245571D01*
X55498380Y-29150333D01*
X55450761Y-29007476D01*
X55355523Y-28912238D01*
X55260285Y-28864619D01*
X55069809Y-28817000D01*
X54926952Y-28817000D01*
X54736476Y-28864619D01*
X54641238Y-28912238D01*
X54546000Y-29007476D01*
X54498380Y-29150333D01*
X54498380Y-29245571D01*
X54546000Y-29388428D01*
X54593619Y-29436047D01*
X55403142Y-30436047D02*
X55450761Y-30388428D01*
X55498380Y-30245571D01*
X55498380Y-30150333D01*
X55450761Y-30007476D01*
X55355523Y-29912238D01*
X55260285Y-29864619D01*
X55069809Y-29817000D01*
X54926952Y-29817000D01*
X54736476Y-29864619D01*
X54641238Y-29912238D01*
X54546000Y-30007476D01*
X54498380Y-30150333D01*
X54498380Y-30245571D01*
X54546000Y-30388428D01*
X54593619Y-30436047D01*
X55498380Y-31388428D02*
X55498380Y-30817000D01*
X55498380Y-31102714D02*
X54498380Y-31102714D01*
X54641238Y-31007476D01*
X54736476Y-30912238D01*
X54784095Y-30817000D01*
X55498380Y-32340809D02*
X55498380Y-31769380D01*
X55498380Y-32055095D02*
X54498380Y-32055095D01*
X54641238Y-31959857D01*
X54736476Y-31864619D01*
X54784095Y-31769380D01*
X54498380Y-32959857D02*
X54498380Y-33055095D01*
X54546000Y-33150333D01*
X54593619Y-33197952D01*
X54688857Y-33245571D01*
X54879333Y-33293190D01*
X55117428Y-33293190D01*
X55307904Y-33245571D01*
X55403142Y-33197952D01*
X55450761Y-33150333D01*
X55498380Y-33055095D01*
X55498380Y-32959857D01*
X55450761Y-32864619D01*
X55403142Y-32817000D01*
X55307904Y-32769380D01*
X55117428Y-32721761D01*
X54879333Y-32721761D01*
X54688857Y-32769380D01*
X54593619Y-32817000D01*
X54546000Y-32864619D01*
X54498380Y-32959857D01*
X55498380Y-34245571D02*
X55498380Y-33674142D01*
X55498380Y-33959857D02*
X54498380Y-33959857D01*
X54641238Y-33864619D01*
X54736476Y-33769380D01*
X54784095Y-33674142D01*
X55117428Y-34674142D02*
X55117428Y-35436047D01*
X54926952Y-36055095D02*
X54879333Y-35959857D01*
X54831714Y-35912238D01*
X54736476Y-35864619D01*
X54688857Y-35864619D01*
X54593619Y-35912238D01*
X54546000Y-35959857D01*
X54498380Y-36055095D01*
X54498380Y-36245571D01*
X54546000Y-36340809D01*
X54593619Y-36388428D01*
X54688857Y-36436047D01*
X54736476Y-36436047D01*
X54831714Y-36388428D01*
X54879333Y-36340809D01*
X54926952Y-36245571D01*
X54926952Y-36055095D01*
X54974571Y-35959857D01*
X55022190Y-35912238D01*
X55117428Y-35864619D01*
X55307904Y-35864619D01*
X55403142Y-35912238D01*
X55450761Y-35959857D01*
X55498380Y-36055095D01*
X55498380Y-36245571D01*
X55450761Y-36340809D01*
X55403142Y-36388428D01*
X55307904Y-36436047D01*
X55117428Y-36436047D01*
X55022190Y-36388428D01*
X54974571Y-36340809D01*
X54926952Y-36245571D01*
X54498380Y-37293190D02*
X54498380Y-37102714D01*
X54546000Y-37007476D01*
X54593619Y-36959857D01*
X54736476Y-36864619D01*
X54926952Y-36817000D01*
X55307904Y-36817000D01*
X55403142Y-36864619D01*
X55450761Y-36912238D01*
X55498380Y-37007476D01*
X55498380Y-37197952D01*
X55450761Y-37293190D01*
X55403142Y-37340809D01*
X55307904Y-37388428D01*
X55069809Y-37388428D01*
X54974571Y-37340809D01*
X54926952Y-37293190D01*
X54879333Y-37197952D01*
X54879333Y-37007476D01*
X54926952Y-36912238D01*
X54974571Y-36864619D01*
X55069809Y-36817000D01*
X54926952Y-37959857D02*
X54879333Y-37864619D01*
X54831714Y-37817000D01*
X54736476Y-37769380D01*
X54688857Y-37769380D01*
X54593619Y-37817000D01*
X54546000Y-37864619D01*
X54498380Y-37959857D01*
X54498380Y-38150333D01*
X54546000Y-38245571D01*
X54593619Y-38293190D01*
X54688857Y-38340809D01*
X54736476Y-38340809D01*
X54831714Y-38293190D01*
X54879333Y-38245571D01*
X54926952Y-38150333D01*
X54926952Y-37959857D01*
X54974571Y-37864619D01*
X55022190Y-37817000D01*
X55117428Y-37769380D01*
X55307904Y-37769380D01*
X55403142Y-37817000D01*
X55450761Y-37864619D01*
X55498380Y-37959857D01*
X55498380Y-38150333D01*
X55450761Y-38245571D01*
X55403142Y-38293190D01*
X55307904Y-38340809D01*
X55117428Y-38340809D01*
X55022190Y-38293190D01*
X54974571Y-38245571D01*
X54926952Y-38150333D01*
X55498380Y-38769380D02*
X54498380Y-38769380D01*
X55212666Y-39102714D01*
X54498380Y-39436047D01*
X55498380Y-39436047D01*
X55498380Y-39912238D02*
X54498380Y-39912238D01*
X54974571Y-39912238D02*
X54974571Y-40483666D01*
X55498380Y-40483666D02*
X54498380Y-40483666D01*
X54831714Y-40864619D02*
X54831714Y-41388428D01*
X55498380Y-40864619D01*
X55498380Y-41388428D01*
X55117428Y-41769380D02*
X55117428Y-42531285D01*
X55498380Y-43007476D02*
X54498380Y-43007476D01*
X55212666Y-43340809D01*
X54498380Y-43674142D01*
X55498380Y-43674142D01*
X55498380Y-44293190D02*
X55450761Y-44197952D01*
X55403142Y-44150333D01*
X55307904Y-44102714D01*
X55022190Y-44102714D01*
X54926952Y-44150333D01*
X54879333Y-44197952D01*
X54831714Y-44293190D01*
X54831714Y-44436047D01*
X54879333Y-44531285D01*
X54926952Y-44578904D01*
X55022190Y-44626523D01*
X55307904Y-44626523D01*
X55403142Y-44578904D01*
X55450761Y-44531285D01*
X55498380Y-44436047D01*
X55498380Y-44293190D01*
X55498380Y-45483666D02*
X54498380Y-45483666D01*
X55450761Y-45483666D02*
X55498380Y-45388428D01*
X55498380Y-45197952D01*
X55450761Y-45102714D01*
X55403142Y-45055095D01*
X55307904Y-45007476D01*
X55022190Y-45007476D01*
X54926952Y-45055095D01*
X54879333Y-45102714D01*
X54831714Y-45197952D01*
X54831714Y-45388428D01*
X54879333Y-45483666D01*
X54831714Y-46388428D02*
X55498380Y-46388428D01*
X54831714Y-45959857D02*
X55355523Y-45959857D01*
X55450761Y-46007476D01*
X55498380Y-46102714D01*
X55498380Y-46245571D01*
X55450761Y-46340809D01*
X55403142Y-46388428D01*
X55498380Y-47007476D02*
X55450761Y-46912238D01*
X55355523Y-46864619D01*
X54498380Y-46864619D01*
X55450761Y-47769380D02*
X55498380Y-47674142D01*
X55498380Y-47483666D01*
X55450761Y-47388428D01*
X55355523Y-47340809D01*
X54974571Y-47340809D01*
X54879333Y-47388428D01*
X54831714Y-47483666D01*
X54831714Y-47674142D01*
X54879333Y-47769380D01*
X54974571Y-47816999D01*
X55069809Y-47816999D01*
X55165047Y-47340809D01*
%TO.C,J2*%
X108378333Y-176049380D02*
X108378333Y-176763666D01*
X108425952Y-176906523D01*
X108521190Y-177001761D01*
X108664047Y-177049380D01*
X108759285Y-177049380D01*
X107949761Y-176144619D02*
X107902142Y-176097000D01*
X107806904Y-176049380D01*
X107568809Y-176049380D01*
X107473571Y-176097000D01*
X107425952Y-176144619D01*
X107378333Y-176239857D01*
X107378333Y-176335095D01*
X107425952Y-176477952D01*
X107997380Y-177049380D01*
X107378333Y-177049380D01*
X108378333Y-116549380D02*
X108378333Y-117263666D01*
X108425952Y-117406523D01*
X108521190Y-117501761D01*
X108664047Y-117549380D01*
X108759285Y-117549380D01*
X107949761Y-116644619D02*
X107902142Y-116597000D01*
X107806904Y-116549380D01*
X107568809Y-116549380D01*
X107473571Y-116597000D01*
X107425952Y-116644619D01*
X107378333Y-116739857D01*
X107378333Y-116835095D01*
X107425952Y-116977952D01*
X107997380Y-117549380D01*
X107378333Y-117549380D01*
%TO.C,U2*%
X103703142Y-148436047D02*
X103750761Y-148388428D01*
X103798380Y-148245571D01*
X103798380Y-148150333D01*
X103750761Y-148007476D01*
X103655523Y-147912238D01*
X103560285Y-147864619D01*
X103369809Y-147817000D01*
X103226952Y-147817000D01*
X103036476Y-147864619D01*
X102941238Y-147912238D01*
X102846000Y-148007476D01*
X102798380Y-148150333D01*
X102798380Y-148245571D01*
X102846000Y-148388428D01*
X102893619Y-148436047D01*
X103703142Y-149436047D02*
X103750761Y-149388428D01*
X103798380Y-149245571D01*
X103798380Y-149150333D01*
X103750761Y-149007476D01*
X103655523Y-148912238D01*
X103560285Y-148864619D01*
X103369809Y-148817000D01*
X103226952Y-148817000D01*
X103036476Y-148864619D01*
X102941238Y-148912238D01*
X102846000Y-149007476D01*
X102798380Y-149150333D01*
X102798380Y-149245571D01*
X102846000Y-149388428D01*
X102893619Y-149436047D01*
X103798380Y-150388428D02*
X103798380Y-149817000D01*
X103798380Y-150102714D02*
X102798380Y-150102714D01*
X102941238Y-150007476D01*
X103036476Y-149912238D01*
X103084095Y-149817000D01*
X103798380Y-151340809D02*
X103798380Y-150769380D01*
X103798380Y-151055095D02*
X102798380Y-151055095D01*
X102941238Y-150959857D01*
X103036476Y-150864619D01*
X103084095Y-150769380D01*
X102798380Y-151959857D02*
X102798380Y-152055095D01*
X102846000Y-152150333D01*
X102893619Y-152197952D01*
X102988857Y-152245571D01*
X103179333Y-152293190D01*
X103417428Y-152293190D01*
X103607904Y-152245571D01*
X103703142Y-152197952D01*
X103750761Y-152150333D01*
X103798380Y-152055095D01*
X103798380Y-151959857D01*
X103750761Y-151864619D01*
X103703142Y-151817000D01*
X103607904Y-151769380D01*
X103417428Y-151721761D01*
X103179333Y-151721761D01*
X102988857Y-151769380D01*
X102893619Y-151817000D01*
X102846000Y-151864619D01*
X102798380Y-151959857D01*
X103798380Y-153245571D02*
X103798380Y-152674142D01*
X103798380Y-152959857D02*
X102798380Y-152959857D01*
X102941238Y-152864619D01*
X103036476Y-152769380D01*
X103084095Y-152674142D01*
X103417428Y-153674142D02*
X103417428Y-154436047D01*
X103226952Y-155055095D02*
X103179333Y-154959857D01*
X103131714Y-154912238D01*
X103036476Y-154864619D01*
X102988857Y-154864619D01*
X102893619Y-154912238D01*
X102846000Y-154959857D01*
X102798380Y-155055095D01*
X102798380Y-155245571D01*
X102846000Y-155340809D01*
X102893619Y-155388428D01*
X102988857Y-155436047D01*
X103036476Y-155436047D01*
X103131714Y-155388428D01*
X103179333Y-155340809D01*
X103226952Y-155245571D01*
X103226952Y-155055095D01*
X103274571Y-154959857D01*
X103322190Y-154912238D01*
X103417428Y-154864619D01*
X103607904Y-154864619D01*
X103703142Y-154912238D01*
X103750761Y-154959857D01*
X103798380Y-155055095D01*
X103798380Y-155245571D01*
X103750761Y-155340809D01*
X103703142Y-155388428D01*
X103607904Y-155436047D01*
X103417428Y-155436047D01*
X103322190Y-155388428D01*
X103274571Y-155340809D01*
X103226952Y-155245571D01*
X102798380Y-156293190D02*
X102798380Y-156102714D01*
X102846000Y-156007476D01*
X102893619Y-155959857D01*
X103036476Y-155864619D01*
X103226952Y-155817000D01*
X103607904Y-155817000D01*
X103703142Y-155864619D01*
X103750761Y-155912238D01*
X103798380Y-156007476D01*
X103798380Y-156197952D01*
X103750761Y-156293190D01*
X103703142Y-156340809D01*
X103607904Y-156388428D01*
X103369809Y-156388428D01*
X103274571Y-156340809D01*
X103226952Y-156293190D01*
X103179333Y-156197952D01*
X103179333Y-156007476D01*
X103226952Y-155912238D01*
X103274571Y-155864619D01*
X103369809Y-155817000D01*
X103226952Y-156959857D02*
X103179333Y-156864619D01*
X103131714Y-156817000D01*
X103036476Y-156769380D01*
X102988857Y-156769380D01*
X102893619Y-156817000D01*
X102846000Y-156864619D01*
X102798380Y-156959857D01*
X102798380Y-157150333D01*
X102846000Y-157245571D01*
X102893619Y-157293190D01*
X102988857Y-157340809D01*
X103036476Y-157340809D01*
X103131714Y-157293190D01*
X103179333Y-157245571D01*
X103226952Y-157150333D01*
X103226952Y-156959857D01*
X103274571Y-156864619D01*
X103322190Y-156817000D01*
X103417428Y-156769380D01*
X103607904Y-156769380D01*
X103703142Y-156817000D01*
X103750761Y-156864619D01*
X103798380Y-156959857D01*
X103798380Y-157150333D01*
X103750761Y-157245571D01*
X103703142Y-157293190D01*
X103607904Y-157340809D01*
X103417428Y-157340809D01*
X103322190Y-157293190D01*
X103274571Y-157245571D01*
X103226952Y-157150333D01*
X103798380Y-157769380D02*
X102798380Y-157769380D01*
X103512666Y-158102714D01*
X102798380Y-158436047D01*
X103798380Y-158436047D01*
X103798380Y-158912238D02*
X102798380Y-158912238D01*
X103274571Y-158912238D02*
X103274571Y-159483666D01*
X103798380Y-159483666D02*
X102798380Y-159483666D01*
X103131714Y-159864619D02*
X103131714Y-160388428D01*
X103798380Y-159864619D01*
X103798380Y-160388428D01*
X103417428Y-160769380D02*
X103417428Y-161531285D01*
X103798380Y-162007476D02*
X102798380Y-162007476D01*
X103512666Y-162340809D01*
X102798380Y-162674142D01*
X103798380Y-162674142D01*
X103798380Y-163293190D02*
X103750761Y-163197952D01*
X103703142Y-163150333D01*
X103607904Y-163102714D01*
X103322190Y-163102714D01*
X103226952Y-163150333D01*
X103179333Y-163197952D01*
X103131714Y-163293190D01*
X103131714Y-163436047D01*
X103179333Y-163531285D01*
X103226952Y-163578904D01*
X103322190Y-163626523D01*
X103607904Y-163626523D01*
X103703142Y-163578904D01*
X103750761Y-163531285D01*
X103798380Y-163436047D01*
X103798380Y-163293190D01*
X103798380Y-164483666D02*
X102798380Y-164483666D01*
X103750761Y-164483666D02*
X103798380Y-164388428D01*
X103798380Y-164197952D01*
X103750761Y-164102714D01*
X103703142Y-164055095D01*
X103607904Y-164007476D01*
X103322190Y-164007476D01*
X103226952Y-164055095D01*
X103179333Y-164102714D01*
X103131714Y-164197952D01*
X103131714Y-164388428D01*
X103179333Y-164483666D01*
X103131714Y-165388428D02*
X103798380Y-165388428D01*
X103131714Y-164959857D02*
X103655523Y-164959857D01*
X103750761Y-165007476D01*
X103798380Y-165102714D01*
X103798380Y-165245571D01*
X103750761Y-165340809D01*
X103703142Y-165388428D01*
X103798380Y-166007476D02*
X103750761Y-165912238D01*
X103655523Y-165864619D01*
X102798380Y-165864619D01*
X103750761Y-166769380D02*
X103798380Y-166674142D01*
X103798380Y-166483666D01*
X103750761Y-166388428D01*
X103655523Y-166340809D01*
X103274571Y-166340809D01*
X103179333Y-166388428D01*
X103131714Y-166483666D01*
X103131714Y-166674142D01*
X103179333Y-166769380D01*
X103274571Y-166817000D01*
X103369809Y-166817000D01*
X103465047Y-166340809D01*
%TO.C,J2*%
X108378333Y-57049380D02*
X108378333Y-57763666D01*
X108425952Y-57906523D01*
X108521190Y-58001761D01*
X108664047Y-58049380D01*
X108759285Y-58049380D01*
X107949761Y-57144619D02*
X107902142Y-57097000D01*
X107806904Y-57049380D01*
X107568809Y-57049380D01*
X107473571Y-57097000D01*
X107425952Y-57144619D01*
X107378333Y-57239857D01*
X107378333Y-57335095D01*
X107425952Y-57477952D01*
X107997380Y-58049380D01*
X107378333Y-58049380D01*
%TO.C,U2*%
X103703142Y-88936047D02*
X103750761Y-88888428D01*
X103798380Y-88745571D01*
X103798380Y-88650333D01*
X103750761Y-88507476D01*
X103655523Y-88412238D01*
X103560285Y-88364619D01*
X103369809Y-88317000D01*
X103226952Y-88317000D01*
X103036476Y-88364619D01*
X102941238Y-88412238D01*
X102846000Y-88507476D01*
X102798380Y-88650333D01*
X102798380Y-88745571D01*
X102846000Y-88888428D01*
X102893619Y-88936047D01*
X103703142Y-89936047D02*
X103750761Y-89888428D01*
X103798380Y-89745571D01*
X103798380Y-89650333D01*
X103750761Y-89507476D01*
X103655523Y-89412238D01*
X103560285Y-89364619D01*
X103369809Y-89317000D01*
X103226952Y-89317000D01*
X103036476Y-89364619D01*
X102941238Y-89412238D01*
X102846000Y-89507476D01*
X102798380Y-89650333D01*
X102798380Y-89745571D01*
X102846000Y-89888428D01*
X102893619Y-89936047D01*
X103798380Y-90888428D02*
X103798380Y-90317000D01*
X103798380Y-90602714D02*
X102798380Y-90602714D01*
X102941238Y-90507476D01*
X103036476Y-90412238D01*
X103084095Y-90317000D01*
X103798380Y-91840809D02*
X103798380Y-91269380D01*
X103798380Y-91555095D02*
X102798380Y-91555095D01*
X102941238Y-91459857D01*
X103036476Y-91364619D01*
X103084095Y-91269380D01*
X102798380Y-92459857D02*
X102798380Y-92555095D01*
X102846000Y-92650333D01*
X102893619Y-92697952D01*
X102988857Y-92745571D01*
X103179333Y-92793190D01*
X103417428Y-92793190D01*
X103607904Y-92745571D01*
X103703142Y-92697952D01*
X103750761Y-92650333D01*
X103798380Y-92555095D01*
X103798380Y-92459857D01*
X103750761Y-92364619D01*
X103703142Y-92317000D01*
X103607904Y-92269380D01*
X103417428Y-92221761D01*
X103179333Y-92221761D01*
X102988857Y-92269380D01*
X102893619Y-92317000D01*
X102846000Y-92364619D01*
X102798380Y-92459857D01*
X103798380Y-93745571D02*
X103798380Y-93174142D01*
X103798380Y-93459857D02*
X102798380Y-93459857D01*
X102941238Y-93364619D01*
X103036476Y-93269380D01*
X103084095Y-93174142D01*
X103417428Y-94174142D02*
X103417428Y-94936047D01*
X103226952Y-95555095D02*
X103179333Y-95459857D01*
X103131714Y-95412238D01*
X103036476Y-95364619D01*
X102988857Y-95364619D01*
X102893619Y-95412238D01*
X102846000Y-95459857D01*
X102798380Y-95555095D01*
X102798380Y-95745571D01*
X102846000Y-95840809D01*
X102893619Y-95888428D01*
X102988857Y-95936047D01*
X103036476Y-95936047D01*
X103131714Y-95888428D01*
X103179333Y-95840809D01*
X103226952Y-95745571D01*
X103226952Y-95555095D01*
X103274571Y-95459857D01*
X103322190Y-95412238D01*
X103417428Y-95364619D01*
X103607904Y-95364619D01*
X103703142Y-95412238D01*
X103750761Y-95459857D01*
X103798380Y-95555095D01*
X103798380Y-95745571D01*
X103750761Y-95840809D01*
X103703142Y-95888428D01*
X103607904Y-95936047D01*
X103417428Y-95936047D01*
X103322190Y-95888428D01*
X103274571Y-95840809D01*
X103226952Y-95745571D01*
X102798380Y-96793190D02*
X102798380Y-96602714D01*
X102846000Y-96507476D01*
X102893619Y-96459857D01*
X103036476Y-96364619D01*
X103226952Y-96317000D01*
X103607904Y-96317000D01*
X103703142Y-96364619D01*
X103750761Y-96412238D01*
X103798380Y-96507476D01*
X103798380Y-96697952D01*
X103750761Y-96793190D01*
X103703142Y-96840809D01*
X103607904Y-96888428D01*
X103369809Y-96888428D01*
X103274571Y-96840809D01*
X103226952Y-96793190D01*
X103179333Y-96697952D01*
X103179333Y-96507476D01*
X103226952Y-96412238D01*
X103274571Y-96364619D01*
X103369809Y-96317000D01*
X103226952Y-97459857D02*
X103179333Y-97364619D01*
X103131714Y-97317000D01*
X103036476Y-97269380D01*
X102988857Y-97269380D01*
X102893619Y-97317000D01*
X102846000Y-97364619D01*
X102798380Y-97459857D01*
X102798380Y-97650333D01*
X102846000Y-97745571D01*
X102893619Y-97793190D01*
X102988857Y-97840809D01*
X103036476Y-97840809D01*
X103131714Y-97793190D01*
X103179333Y-97745571D01*
X103226952Y-97650333D01*
X103226952Y-97459857D01*
X103274571Y-97364619D01*
X103322190Y-97317000D01*
X103417428Y-97269380D01*
X103607904Y-97269380D01*
X103703142Y-97317000D01*
X103750761Y-97364619D01*
X103798380Y-97459857D01*
X103798380Y-97650333D01*
X103750761Y-97745571D01*
X103703142Y-97793190D01*
X103607904Y-97840809D01*
X103417428Y-97840809D01*
X103322190Y-97793190D01*
X103274571Y-97745571D01*
X103226952Y-97650333D01*
X103798380Y-98269380D02*
X102798380Y-98269380D01*
X103512666Y-98602714D01*
X102798380Y-98936047D01*
X103798380Y-98936047D01*
X103798380Y-99412238D02*
X102798380Y-99412238D01*
X103274571Y-99412238D02*
X103274571Y-99983666D01*
X103798380Y-99983666D02*
X102798380Y-99983666D01*
X103131714Y-100364619D02*
X103131714Y-100888428D01*
X103798380Y-100364619D01*
X103798380Y-100888428D01*
X103417428Y-101269380D02*
X103417428Y-102031285D01*
X103798380Y-102507476D02*
X102798380Y-102507476D01*
X103512666Y-102840809D01*
X102798380Y-103174142D01*
X103798380Y-103174142D01*
X103798380Y-103793190D02*
X103750761Y-103697952D01*
X103703142Y-103650333D01*
X103607904Y-103602714D01*
X103322190Y-103602714D01*
X103226952Y-103650333D01*
X103179333Y-103697952D01*
X103131714Y-103793190D01*
X103131714Y-103936047D01*
X103179333Y-104031285D01*
X103226952Y-104078904D01*
X103322190Y-104126523D01*
X103607904Y-104126523D01*
X103703142Y-104078904D01*
X103750761Y-104031285D01*
X103798380Y-103936047D01*
X103798380Y-103793190D01*
X103798380Y-104983666D02*
X102798380Y-104983666D01*
X103750761Y-104983666D02*
X103798380Y-104888428D01*
X103798380Y-104697952D01*
X103750761Y-104602714D01*
X103703142Y-104555095D01*
X103607904Y-104507476D01*
X103322190Y-104507476D01*
X103226952Y-104555095D01*
X103179333Y-104602714D01*
X103131714Y-104697952D01*
X103131714Y-104888428D01*
X103179333Y-104983666D01*
X103131714Y-105888428D02*
X103798380Y-105888428D01*
X103131714Y-105459857D02*
X103655523Y-105459857D01*
X103750761Y-105507476D01*
X103798380Y-105602714D01*
X103798380Y-105745571D01*
X103750761Y-105840809D01*
X103703142Y-105888428D01*
X103798380Y-106507476D02*
X103750761Y-106412238D01*
X103655523Y-106364619D01*
X102798380Y-106364619D01*
X103750761Y-107269380D02*
X103798380Y-107174142D01*
X103798380Y-106983666D01*
X103750761Y-106888428D01*
X103655523Y-106840809D01*
X103274571Y-106840809D01*
X103179333Y-106888428D01*
X103131714Y-106983666D01*
X103131714Y-107174142D01*
X103179333Y-107269380D01*
X103274571Y-107317000D01*
X103369809Y-107317000D01*
X103465047Y-106840809D01*
%TO.C,J2*%
X60078333Y-57049380D02*
X60078333Y-57763666D01*
X60125952Y-57906523D01*
X60221190Y-58001761D01*
X60364047Y-58049380D01*
X60459285Y-58049380D01*
X59649761Y-57144619D02*
X59602142Y-57097000D01*
X59506904Y-57049380D01*
X59268809Y-57049380D01*
X59173571Y-57097000D01*
X59125952Y-57144619D01*
X59078333Y-57239857D01*
X59078333Y-57335095D01*
X59125952Y-57477952D01*
X59697380Y-58049380D01*
X59078333Y-58049380D01*
%TO.C,U2*%
X55403142Y-88936047D02*
X55450761Y-88888428D01*
X55498380Y-88745571D01*
X55498380Y-88650333D01*
X55450761Y-88507476D01*
X55355523Y-88412238D01*
X55260285Y-88364619D01*
X55069809Y-88317000D01*
X54926952Y-88317000D01*
X54736476Y-88364619D01*
X54641238Y-88412238D01*
X54546000Y-88507476D01*
X54498380Y-88650333D01*
X54498380Y-88745571D01*
X54546000Y-88888428D01*
X54593619Y-88936047D01*
X55403142Y-89936047D02*
X55450761Y-89888428D01*
X55498380Y-89745571D01*
X55498380Y-89650333D01*
X55450761Y-89507476D01*
X55355523Y-89412238D01*
X55260285Y-89364619D01*
X55069809Y-89317000D01*
X54926952Y-89317000D01*
X54736476Y-89364619D01*
X54641238Y-89412238D01*
X54546000Y-89507476D01*
X54498380Y-89650333D01*
X54498380Y-89745571D01*
X54546000Y-89888428D01*
X54593619Y-89936047D01*
X55498380Y-90888428D02*
X55498380Y-90317000D01*
X55498380Y-90602714D02*
X54498380Y-90602714D01*
X54641238Y-90507476D01*
X54736476Y-90412238D01*
X54784095Y-90317000D01*
X55498380Y-91840809D02*
X55498380Y-91269380D01*
X55498380Y-91555095D02*
X54498380Y-91555095D01*
X54641238Y-91459857D01*
X54736476Y-91364619D01*
X54784095Y-91269380D01*
X54498380Y-92459857D02*
X54498380Y-92555095D01*
X54546000Y-92650333D01*
X54593619Y-92697952D01*
X54688857Y-92745571D01*
X54879333Y-92793190D01*
X55117428Y-92793190D01*
X55307904Y-92745571D01*
X55403142Y-92697952D01*
X55450761Y-92650333D01*
X55498380Y-92555095D01*
X55498380Y-92459857D01*
X55450761Y-92364619D01*
X55403142Y-92317000D01*
X55307904Y-92269380D01*
X55117428Y-92221761D01*
X54879333Y-92221761D01*
X54688857Y-92269380D01*
X54593619Y-92317000D01*
X54546000Y-92364619D01*
X54498380Y-92459857D01*
X55498380Y-93745571D02*
X55498380Y-93174142D01*
X55498380Y-93459857D02*
X54498380Y-93459857D01*
X54641238Y-93364619D01*
X54736476Y-93269380D01*
X54784095Y-93174142D01*
X55117428Y-94174142D02*
X55117428Y-94936047D01*
X54926952Y-95555095D02*
X54879333Y-95459857D01*
X54831714Y-95412238D01*
X54736476Y-95364619D01*
X54688857Y-95364619D01*
X54593619Y-95412238D01*
X54546000Y-95459857D01*
X54498380Y-95555095D01*
X54498380Y-95745571D01*
X54546000Y-95840809D01*
X54593619Y-95888428D01*
X54688857Y-95936047D01*
X54736476Y-95936047D01*
X54831714Y-95888428D01*
X54879333Y-95840809D01*
X54926952Y-95745571D01*
X54926952Y-95555095D01*
X54974571Y-95459857D01*
X55022190Y-95412238D01*
X55117428Y-95364619D01*
X55307904Y-95364619D01*
X55403142Y-95412238D01*
X55450761Y-95459857D01*
X55498380Y-95555095D01*
X55498380Y-95745571D01*
X55450761Y-95840809D01*
X55403142Y-95888428D01*
X55307904Y-95936047D01*
X55117428Y-95936047D01*
X55022190Y-95888428D01*
X54974571Y-95840809D01*
X54926952Y-95745571D01*
X54498380Y-96793190D02*
X54498380Y-96602714D01*
X54546000Y-96507476D01*
X54593619Y-96459857D01*
X54736476Y-96364619D01*
X54926952Y-96317000D01*
X55307904Y-96317000D01*
X55403142Y-96364619D01*
X55450761Y-96412238D01*
X55498380Y-96507476D01*
X55498380Y-96697952D01*
X55450761Y-96793190D01*
X55403142Y-96840809D01*
X55307904Y-96888428D01*
X55069809Y-96888428D01*
X54974571Y-96840809D01*
X54926952Y-96793190D01*
X54879333Y-96697952D01*
X54879333Y-96507476D01*
X54926952Y-96412238D01*
X54974571Y-96364619D01*
X55069809Y-96317000D01*
X54926952Y-97459857D02*
X54879333Y-97364619D01*
X54831714Y-97317000D01*
X54736476Y-97269380D01*
X54688857Y-97269380D01*
X54593619Y-97317000D01*
X54546000Y-97364619D01*
X54498380Y-97459857D01*
X54498380Y-97650333D01*
X54546000Y-97745571D01*
X54593619Y-97793190D01*
X54688857Y-97840809D01*
X54736476Y-97840809D01*
X54831714Y-97793190D01*
X54879333Y-97745571D01*
X54926952Y-97650333D01*
X54926952Y-97459857D01*
X54974571Y-97364619D01*
X55022190Y-97317000D01*
X55117428Y-97269380D01*
X55307904Y-97269380D01*
X55403142Y-97317000D01*
X55450761Y-97364619D01*
X55498380Y-97459857D01*
X55498380Y-97650333D01*
X55450761Y-97745571D01*
X55403142Y-97793190D01*
X55307904Y-97840809D01*
X55117428Y-97840809D01*
X55022190Y-97793190D01*
X54974571Y-97745571D01*
X54926952Y-97650333D01*
X55498380Y-98269380D02*
X54498380Y-98269380D01*
X55212666Y-98602714D01*
X54498380Y-98936047D01*
X55498380Y-98936047D01*
X55498380Y-99412238D02*
X54498380Y-99412238D01*
X54974571Y-99412238D02*
X54974571Y-99983666D01*
X55498380Y-99983666D02*
X54498380Y-99983666D01*
X54831714Y-100364619D02*
X54831714Y-100888428D01*
X55498380Y-100364619D01*
X55498380Y-100888428D01*
X55117428Y-101269380D02*
X55117428Y-102031285D01*
X55498380Y-102507476D02*
X54498380Y-102507476D01*
X55212666Y-102840809D01*
X54498380Y-103174142D01*
X55498380Y-103174142D01*
X55498380Y-103793190D02*
X55450761Y-103697952D01*
X55403142Y-103650333D01*
X55307904Y-103602714D01*
X55022190Y-103602714D01*
X54926952Y-103650333D01*
X54879333Y-103697952D01*
X54831714Y-103793190D01*
X54831714Y-103936047D01*
X54879333Y-104031285D01*
X54926952Y-104078904D01*
X55022190Y-104126523D01*
X55307904Y-104126523D01*
X55403142Y-104078904D01*
X55450761Y-104031285D01*
X55498380Y-103936047D01*
X55498380Y-103793190D01*
X55498380Y-104983666D02*
X54498380Y-104983666D01*
X55450761Y-104983666D02*
X55498380Y-104888428D01*
X55498380Y-104697952D01*
X55450761Y-104602714D01*
X55403142Y-104555095D01*
X55307904Y-104507476D01*
X55022190Y-104507476D01*
X54926952Y-104555095D01*
X54879333Y-104602714D01*
X54831714Y-104697952D01*
X54831714Y-104888428D01*
X54879333Y-104983666D01*
X54831714Y-105888428D02*
X55498380Y-105888428D01*
X54831714Y-105459857D02*
X55355523Y-105459857D01*
X55450761Y-105507476D01*
X55498380Y-105602714D01*
X55498380Y-105745571D01*
X55450761Y-105840809D01*
X55403142Y-105888428D01*
X55498380Y-106507476D02*
X55450761Y-106412238D01*
X55355523Y-106364619D01*
X54498380Y-106364619D01*
X55450761Y-107269380D02*
X55498380Y-107174142D01*
X55498380Y-106983666D01*
X55450761Y-106888428D01*
X55355523Y-106840809D01*
X54974571Y-106840809D01*
X54879333Y-106888428D01*
X54831714Y-106983666D01*
X54831714Y-107174142D01*
X54879333Y-107269380D01*
X54974571Y-107317000D01*
X55069809Y-107317000D01*
X55165047Y-106840809D01*
%TO.C,J2*%
X60078333Y-116549380D02*
X60078333Y-117263666D01*
X60125952Y-117406523D01*
X60221190Y-117501761D01*
X60364047Y-117549380D01*
X60459285Y-117549380D01*
X59649761Y-116644619D02*
X59602142Y-116597000D01*
X59506904Y-116549380D01*
X59268809Y-116549380D01*
X59173571Y-116597000D01*
X59125952Y-116644619D01*
X59078333Y-116739857D01*
X59078333Y-116835095D01*
X59125952Y-116977952D01*
X59697380Y-117549380D01*
X59078333Y-117549380D01*
X60078333Y-176049380D02*
X60078333Y-176763666D01*
X60125952Y-176906523D01*
X60221190Y-177001761D01*
X60364047Y-177049380D01*
X60459285Y-177049380D01*
X59649761Y-176144619D02*
X59602142Y-176097000D01*
X59506904Y-176049380D01*
X59268809Y-176049380D01*
X59173571Y-176097000D01*
X59125952Y-176144619D01*
X59078333Y-176239857D01*
X59078333Y-176335095D01*
X59125952Y-176477952D01*
X59697380Y-177049380D01*
X59078333Y-177049380D01*
%TO.C,U2*%
X103703142Y-29436047D02*
X103750761Y-29388428D01*
X103798380Y-29245571D01*
X103798380Y-29150333D01*
X103750761Y-29007476D01*
X103655523Y-28912238D01*
X103560285Y-28864619D01*
X103369809Y-28817000D01*
X103226952Y-28817000D01*
X103036476Y-28864619D01*
X102941238Y-28912238D01*
X102846000Y-29007476D01*
X102798380Y-29150333D01*
X102798380Y-29245571D01*
X102846000Y-29388428D01*
X102893619Y-29436047D01*
X103703142Y-30436047D02*
X103750761Y-30388428D01*
X103798380Y-30245571D01*
X103798380Y-30150333D01*
X103750761Y-30007476D01*
X103655523Y-29912238D01*
X103560285Y-29864619D01*
X103369809Y-29817000D01*
X103226952Y-29817000D01*
X103036476Y-29864619D01*
X102941238Y-29912238D01*
X102846000Y-30007476D01*
X102798380Y-30150333D01*
X102798380Y-30245571D01*
X102846000Y-30388428D01*
X102893619Y-30436047D01*
X103798380Y-31388428D02*
X103798380Y-30817000D01*
X103798380Y-31102714D02*
X102798380Y-31102714D01*
X102941238Y-31007476D01*
X103036476Y-30912238D01*
X103084095Y-30817000D01*
X103798380Y-32340809D02*
X103798380Y-31769380D01*
X103798380Y-32055095D02*
X102798380Y-32055095D01*
X102941238Y-31959857D01*
X103036476Y-31864619D01*
X103084095Y-31769380D01*
X102798380Y-32959857D02*
X102798380Y-33055095D01*
X102846000Y-33150333D01*
X102893619Y-33197952D01*
X102988857Y-33245571D01*
X103179333Y-33293190D01*
X103417428Y-33293190D01*
X103607904Y-33245571D01*
X103703142Y-33197952D01*
X103750761Y-33150333D01*
X103798380Y-33055095D01*
X103798380Y-32959857D01*
X103750761Y-32864619D01*
X103703142Y-32817000D01*
X103607904Y-32769380D01*
X103417428Y-32721761D01*
X103179333Y-32721761D01*
X102988857Y-32769380D01*
X102893619Y-32817000D01*
X102846000Y-32864619D01*
X102798380Y-32959857D01*
X103798380Y-34245571D02*
X103798380Y-33674142D01*
X103798380Y-33959857D02*
X102798380Y-33959857D01*
X102941238Y-33864619D01*
X103036476Y-33769380D01*
X103084095Y-33674142D01*
X103417428Y-34674142D02*
X103417428Y-35436047D01*
X103226952Y-36055095D02*
X103179333Y-35959857D01*
X103131714Y-35912238D01*
X103036476Y-35864619D01*
X102988857Y-35864619D01*
X102893619Y-35912238D01*
X102846000Y-35959857D01*
X102798380Y-36055095D01*
X102798380Y-36245571D01*
X102846000Y-36340809D01*
X102893619Y-36388428D01*
X102988857Y-36436047D01*
X103036476Y-36436047D01*
X103131714Y-36388428D01*
X103179333Y-36340809D01*
X103226952Y-36245571D01*
X103226952Y-36055095D01*
X103274571Y-35959857D01*
X103322190Y-35912238D01*
X103417428Y-35864619D01*
X103607904Y-35864619D01*
X103703142Y-35912238D01*
X103750761Y-35959857D01*
X103798380Y-36055095D01*
X103798380Y-36245571D01*
X103750761Y-36340809D01*
X103703142Y-36388428D01*
X103607904Y-36436047D01*
X103417428Y-36436047D01*
X103322190Y-36388428D01*
X103274571Y-36340809D01*
X103226952Y-36245571D01*
X102798380Y-37293190D02*
X102798380Y-37102714D01*
X102846000Y-37007476D01*
X102893619Y-36959857D01*
X103036476Y-36864619D01*
X103226952Y-36817000D01*
X103607904Y-36817000D01*
X103703142Y-36864619D01*
X103750761Y-36912238D01*
X103798380Y-37007476D01*
X103798380Y-37197952D01*
X103750761Y-37293190D01*
X103703142Y-37340809D01*
X103607904Y-37388428D01*
X103369809Y-37388428D01*
X103274571Y-37340809D01*
X103226952Y-37293190D01*
X103179333Y-37197952D01*
X103179333Y-37007476D01*
X103226952Y-36912238D01*
X103274571Y-36864619D01*
X103369809Y-36817000D01*
X103226952Y-37959857D02*
X103179333Y-37864619D01*
X103131714Y-37817000D01*
X103036476Y-37769380D01*
X102988857Y-37769380D01*
X102893619Y-37817000D01*
X102846000Y-37864619D01*
X102798380Y-37959857D01*
X102798380Y-38150333D01*
X102846000Y-38245571D01*
X102893619Y-38293190D01*
X102988857Y-38340809D01*
X103036476Y-38340809D01*
X103131714Y-38293190D01*
X103179333Y-38245571D01*
X103226952Y-38150333D01*
X103226952Y-37959857D01*
X103274571Y-37864619D01*
X103322190Y-37817000D01*
X103417428Y-37769380D01*
X103607904Y-37769380D01*
X103703142Y-37817000D01*
X103750761Y-37864619D01*
X103798380Y-37959857D01*
X103798380Y-38150333D01*
X103750761Y-38245571D01*
X103703142Y-38293190D01*
X103607904Y-38340809D01*
X103417428Y-38340809D01*
X103322190Y-38293190D01*
X103274571Y-38245571D01*
X103226952Y-38150333D01*
X103798380Y-38769380D02*
X102798380Y-38769380D01*
X103512666Y-39102714D01*
X102798380Y-39436047D01*
X103798380Y-39436047D01*
X103798380Y-39912238D02*
X102798380Y-39912238D01*
X103274571Y-39912238D02*
X103274571Y-40483666D01*
X103798380Y-40483666D02*
X102798380Y-40483666D01*
X103131714Y-40864619D02*
X103131714Y-41388428D01*
X103798380Y-40864619D01*
X103798380Y-41388428D01*
X103417428Y-41769380D02*
X103417428Y-42531285D01*
X103798380Y-43007476D02*
X102798380Y-43007476D01*
X103512666Y-43340809D01*
X102798380Y-43674142D01*
X103798380Y-43674142D01*
X103798380Y-44293190D02*
X103750761Y-44197952D01*
X103703142Y-44150333D01*
X103607904Y-44102714D01*
X103322190Y-44102714D01*
X103226952Y-44150333D01*
X103179333Y-44197952D01*
X103131714Y-44293190D01*
X103131714Y-44436047D01*
X103179333Y-44531285D01*
X103226952Y-44578904D01*
X103322190Y-44626523D01*
X103607904Y-44626523D01*
X103703142Y-44578904D01*
X103750761Y-44531285D01*
X103798380Y-44436047D01*
X103798380Y-44293190D01*
X103798380Y-45483666D02*
X102798380Y-45483666D01*
X103750761Y-45483666D02*
X103798380Y-45388428D01*
X103798380Y-45197952D01*
X103750761Y-45102714D01*
X103703142Y-45055095D01*
X103607904Y-45007476D01*
X103322190Y-45007476D01*
X103226952Y-45055095D01*
X103179333Y-45102714D01*
X103131714Y-45197952D01*
X103131714Y-45388428D01*
X103179333Y-45483666D01*
X103131714Y-46388428D02*
X103798380Y-46388428D01*
X103131714Y-45959857D02*
X103655523Y-45959857D01*
X103750761Y-46007476D01*
X103798380Y-46102714D01*
X103798380Y-46245571D01*
X103750761Y-46340809D01*
X103703142Y-46388428D01*
X103798380Y-47007476D02*
X103750761Y-46912238D01*
X103655523Y-46864619D01*
X102798380Y-46864619D01*
X103750761Y-47769380D02*
X103798380Y-47674142D01*
X103798380Y-47483666D01*
X103750761Y-47388428D01*
X103655523Y-47340809D01*
X103274571Y-47340809D01*
X103179333Y-47388428D01*
X103131714Y-47483666D01*
X103131714Y-47674142D01*
X103179333Y-47769380D01*
X103274571Y-47817000D01*
X103369809Y-47817000D01*
X103465047Y-47340809D01*
X55403142Y-148436047D02*
X55450761Y-148388428D01*
X55498380Y-148245571D01*
X55498380Y-148150333D01*
X55450761Y-148007476D01*
X55355523Y-147912238D01*
X55260285Y-147864619D01*
X55069809Y-147817000D01*
X54926952Y-147817000D01*
X54736476Y-147864619D01*
X54641238Y-147912238D01*
X54546000Y-148007476D01*
X54498380Y-148150333D01*
X54498380Y-148245571D01*
X54546000Y-148388428D01*
X54593619Y-148436047D01*
X55403142Y-149436047D02*
X55450761Y-149388428D01*
X55498380Y-149245571D01*
X55498380Y-149150333D01*
X55450761Y-149007476D01*
X55355523Y-148912238D01*
X55260285Y-148864619D01*
X55069809Y-148817000D01*
X54926952Y-148817000D01*
X54736476Y-148864619D01*
X54641238Y-148912238D01*
X54546000Y-149007476D01*
X54498380Y-149150333D01*
X54498380Y-149245571D01*
X54546000Y-149388428D01*
X54593619Y-149436047D01*
X55498380Y-150388428D02*
X55498380Y-149817000D01*
X55498380Y-150102714D02*
X54498380Y-150102714D01*
X54641238Y-150007476D01*
X54736476Y-149912238D01*
X54784095Y-149817000D01*
X55498380Y-151340809D02*
X55498380Y-150769380D01*
X55498380Y-151055095D02*
X54498380Y-151055095D01*
X54641238Y-150959857D01*
X54736476Y-150864619D01*
X54784095Y-150769380D01*
X54498380Y-151959857D02*
X54498380Y-152055095D01*
X54546000Y-152150333D01*
X54593619Y-152197952D01*
X54688857Y-152245571D01*
X54879333Y-152293190D01*
X55117428Y-152293190D01*
X55307904Y-152245571D01*
X55403142Y-152197952D01*
X55450761Y-152150333D01*
X55498380Y-152055095D01*
X55498380Y-151959857D01*
X55450761Y-151864619D01*
X55403142Y-151817000D01*
X55307904Y-151769380D01*
X55117428Y-151721761D01*
X54879333Y-151721761D01*
X54688857Y-151769380D01*
X54593619Y-151817000D01*
X54546000Y-151864619D01*
X54498380Y-151959857D01*
X55498380Y-153245571D02*
X55498380Y-152674142D01*
X55498380Y-152959857D02*
X54498380Y-152959857D01*
X54641238Y-152864619D01*
X54736476Y-152769380D01*
X54784095Y-152674142D01*
X55117428Y-153674142D02*
X55117428Y-154436047D01*
X54926952Y-155055095D02*
X54879333Y-154959857D01*
X54831714Y-154912238D01*
X54736476Y-154864619D01*
X54688857Y-154864619D01*
X54593619Y-154912238D01*
X54546000Y-154959857D01*
X54498380Y-155055095D01*
X54498380Y-155245571D01*
X54546000Y-155340809D01*
X54593619Y-155388428D01*
X54688857Y-155436047D01*
X54736476Y-155436047D01*
X54831714Y-155388428D01*
X54879333Y-155340809D01*
X54926952Y-155245571D01*
X54926952Y-155055095D01*
X54974571Y-154959857D01*
X55022190Y-154912238D01*
X55117428Y-154864619D01*
X55307904Y-154864619D01*
X55403142Y-154912238D01*
X55450761Y-154959857D01*
X55498380Y-155055095D01*
X55498380Y-155245571D01*
X55450761Y-155340809D01*
X55403142Y-155388428D01*
X55307904Y-155436047D01*
X55117428Y-155436047D01*
X55022190Y-155388428D01*
X54974571Y-155340809D01*
X54926952Y-155245571D01*
X54498380Y-156293190D02*
X54498380Y-156102714D01*
X54546000Y-156007476D01*
X54593619Y-155959857D01*
X54736476Y-155864619D01*
X54926952Y-155817000D01*
X55307904Y-155817000D01*
X55403142Y-155864619D01*
X55450761Y-155912238D01*
X55498380Y-156007476D01*
X55498380Y-156197952D01*
X55450761Y-156293190D01*
X55403142Y-156340809D01*
X55307904Y-156388428D01*
X55069809Y-156388428D01*
X54974571Y-156340809D01*
X54926952Y-156293190D01*
X54879333Y-156197952D01*
X54879333Y-156007476D01*
X54926952Y-155912238D01*
X54974571Y-155864619D01*
X55069809Y-155817000D01*
X54926952Y-156959857D02*
X54879333Y-156864619D01*
X54831714Y-156817000D01*
X54736476Y-156769380D01*
X54688857Y-156769380D01*
X54593619Y-156817000D01*
X54546000Y-156864619D01*
X54498380Y-156959857D01*
X54498380Y-157150333D01*
X54546000Y-157245571D01*
X54593619Y-157293190D01*
X54688857Y-157340809D01*
X54736476Y-157340809D01*
X54831714Y-157293190D01*
X54879333Y-157245571D01*
X54926952Y-157150333D01*
X54926952Y-156959857D01*
X54974571Y-156864619D01*
X55022190Y-156817000D01*
X55117428Y-156769380D01*
X55307904Y-156769380D01*
X55403142Y-156817000D01*
X55450761Y-156864619D01*
X55498380Y-156959857D01*
X55498380Y-157150333D01*
X55450761Y-157245571D01*
X55403142Y-157293190D01*
X55307904Y-157340809D01*
X55117428Y-157340809D01*
X55022190Y-157293190D01*
X54974571Y-157245571D01*
X54926952Y-157150333D01*
X55498380Y-157769380D02*
X54498380Y-157769380D01*
X55212666Y-158102714D01*
X54498380Y-158436047D01*
X55498380Y-158436047D01*
X55498380Y-158912238D02*
X54498380Y-158912238D01*
X54974571Y-158912238D02*
X54974571Y-159483666D01*
X55498380Y-159483666D02*
X54498380Y-159483666D01*
X54831714Y-159864619D02*
X54831714Y-160388428D01*
X55498380Y-159864619D01*
X55498380Y-160388428D01*
X55117428Y-160769380D02*
X55117428Y-161531285D01*
X55498380Y-162007476D02*
X54498380Y-162007476D01*
X55212666Y-162340809D01*
X54498380Y-162674142D01*
X55498380Y-162674142D01*
X55498380Y-163293190D02*
X55450761Y-163197952D01*
X55403142Y-163150333D01*
X55307904Y-163102714D01*
X55022190Y-163102714D01*
X54926952Y-163150333D01*
X54879333Y-163197952D01*
X54831714Y-163293190D01*
X54831714Y-163436047D01*
X54879333Y-163531285D01*
X54926952Y-163578904D01*
X55022190Y-163626523D01*
X55307904Y-163626523D01*
X55403142Y-163578904D01*
X55450761Y-163531285D01*
X55498380Y-163436047D01*
X55498380Y-163293190D01*
X55498380Y-164483666D02*
X54498380Y-164483666D01*
X55450761Y-164483666D02*
X55498380Y-164388428D01*
X55498380Y-164197952D01*
X55450761Y-164102714D01*
X55403142Y-164055095D01*
X55307904Y-164007476D01*
X55022190Y-164007476D01*
X54926952Y-164055095D01*
X54879333Y-164102714D01*
X54831714Y-164197952D01*
X54831714Y-164388428D01*
X54879333Y-164483666D01*
X54831714Y-165388428D02*
X55498380Y-165388428D01*
X54831714Y-164959857D02*
X55355523Y-164959857D01*
X55450761Y-165007476D01*
X55498380Y-165102714D01*
X55498380Y-165245571D01*
X55450761Y-165340809D01*
X55403142Y-165388428D01*
X55498380Y-166007476D02*
X55450761Y-165912238D01*
X55355523Y-165864619D01*
X54498380Y-165864619D01*
X55450761Y-166769380D02*
X55498380Y-166674142D01*
X55498380Y-166483666D01*
X55450761Y-166388428D01*
X55355523Y-166340809D01*
X54974571Y-166340809D01*
X54879333Y-166388428D01*
X54831714Y-166483666D01*
X54831714Y-166674142D01*
X54879333Y-166769380D01*
X54974571Y-166817000D01*
X55069809Y-166817000D01*
X55165047Y-166340809D01*
D13*
%TO.C,J3*%
X92699400Y-88090400D02*
X92199400Y-88090400D01*
X92199400Y-88090400D02*
X92449400Y-87590400D01*
X92449400Y-87590400D02*
X92699400Y-88090400D01*
X44399400Y-88090400D02*
X43899400Y-88090400D01*
X43899400Y-88090400D02*
X44149400Y-87590400D01*
X44149400Y-87590400D02*
X44399400Y-88090400D01*
D12*
%TO.C,U2*%
X53790000Y-48221000D02*
X53790000Y-28921000D01*
X53040000Y-48221000D02*
X53790000Y-48221000D01*
X36490000Y-28921000D02*
X36490000Y-48221000D01*
X53790000Y-28921000D02*
X47765000Y-28921000D01*
X36490000Y-48221000D02*
X37240000Y-48221000D01*
X40515000Y-28921000D02*
X36490000Y-28921000D01*
D13*
%TO.C,J2*%
X105445000Y-175157000D02*
X108045000Y-175157000D01*
X105445000Y-164877000D02*
X110645000Y-164877000D01*
X109315000Y-175157000D02*
X110645000Y-175157000D01*
X108045000Y-172557000D02*
X110645000Y-172557000D01*
X110645000Y-175157000D02*
X110645000Y-173827000D01*
X105445000Y-175157000D02*
X105445000Y-164877000D01*
X110645000Y-172557000D02*
X110645000Y-164877000D01*
X108045000Y-175157000D02*
X108045000Y-172557000D01*
%TO.C,J3*%
X44399400Y-28590400D02*
X43899400Y-28590400D01*
X44149400Y-28090400D02*
X44399400Y-28590400D01*
X43899400Y-28590400D02*
X44149400Y-28090400D01*
%TO.C,J2*%
X108045000Y-115657000D02*
X108045000Y-113057000D01*
X110645000Y-113057000D02*
X110645000Y-105377000D01*
X108045000Y-113057000D02*
X110645000Y-113057000D01*
X109315000Y-115657000D02*
X110645000Y-115657000D01*
X105445000Y-115657000D02*
X108045000Y-115657000D01*
X110645000Y-115657000D02*
X110645000Y-114327000D01*
X105445000Y-105377000D02*
X110645000Y-105377000D01*
X105445000Y-115657000D02*
X105445000Y-105377000D01*
D12*
%TO.C,U2*%
X102090000Y-167221000D02*
X102090000Y-147921000D01*
X88815000Y-147921000D02*
X84790000Y-147921000D01*
X102090000Y-147921000D02*
X96065000Y-147921000D01*
X84790000Y-167221000D02*
X85540000Y-167221000D01*
X84790000Y-147921000D02*
X84790000Y-167221000D01*
X101340000Y-167221000D02*
X102090000Y-167221000D01*
D13*
%TO.C,J2*%
X110645000Y-56157000D02*
X110645000Y-54827000D01*
X108045000Y-53557000D02*
X110645000Y-53557000D01*
X105445000Y-45877000D02*
X110645000Y-45877000D01*
X108045000Y-56157000D02*
X108045000Y-53557000D01*
X105445000Y-56157000D02*
X105445000Y-45877000D01*
X110645000Y-53557000D02*
X110645000Y-45877000D01*
X105445000Y-56157000D02*
X108045000Y-56157000D01*
X109315000Y-56157000D02*
X110645000Y-56157000D01*
D12*
%TO.C,U2*%
X88815000Y-88421000D02*
X84790000Y-88421000D01*
X84790000Y-88421000D02*
X84790000Y-107721000D01*
X84790000Y-107721000D02*
X85540000Y-107721000D01*
X102090000Y-107721000D02*
X102090000Y-88421000D01*
X102090000Y-88421000D02*
X96065000Y-88421000D01*
X101340000Y-107721000D02*
X102090000Y-107721000D01*
D13*
%TO.C,J2*%
X62345000Y-56157000D02*
X62345000Y-54827000D01*
X57145000Y-56157000D02*
X57145000Y-45877000D01*
X57145000Y-56157000D02*
X59745000Y-56157000D01*
X61015000Y-56157000D02*
X62345000Y-56157000D01*
X59745000Y-53557000D02*
X62345000Y-53557000D01*
X57145000Y-45877000D02*
X62345000Y-45877000D01*
X62345000Y-53557000D02*
X62345000Y-45877000D01*
X59745000Y-56157000D02*
X59745000Y-53557000D01*
%TO.C,J3*%
X44399400Y-147590400D02*
X43899400Y-147590400D01*
X44149400Y-147090400D02*
X44399400Y-147590400D01*
X43899400Y-147590400D02*
X44149400Y-147090400D01*
D12*
%TO.C,U2*%
X36490000Y-107721000D02*
X37240000Y-107721000D01*
X53790000Y-107721000D02*
X53790000Y-88421000D01*
X53040000Y-107721000D02*
X53790000Y-107721000D01*
X53790000Y-88421000D02*
X47765000Y-88421000D01*
X36490000Y-88421000D02*
X36490000Y-107721000D01*
X40515000Y-88421000D02*
X36490000Y-88421000D01*
D13*
%TO.C,J2*%
X59745000Y-115657000D02*
X59745000Y-113057000D01*
X62345000Y-113057000D02*
X62345000Y-105377000D01*
X57145000Y-115657000D02*
X57145000Y-105377000D01*
X61015000Y-115657000D02*
X62345000Y-115657000D01*
X59745000Y-113057000D02*
X62345000Y-113057000D01*
X57145000Y-115657000D02*
X59745000Y-115657000D01*
X62345000Y-115657000D02*
X62345000Y-114327000D01*
X57145000Y-105377000D02*
X62345000Y-105377000D01*
X57145000Y-175157000D02*
X59745000Y-175157000D01*
X59745000Y-175157000D02*
X59745000Y-172557000D01*
X62345000Y-175157000D02*
X62345000Y-173827000D01*
X61015000Y-175157000D02*
X62345000Y-175157000D01*
X57145000Y-175157000D02*
X57145000Y-164877000D01*
X59745000Y-172557000D02*
X62345000Y-172557000D01*
X57145000Y-164877000D02*
X62345000Y-164877000D01*
X62345000Y-172557000D02*
X62345000Y-164877000D01*
%TO.C,J3*%
X92199400Y-28590400D02*
X92449400Y-28090400D01*
X92449400Y-28090400D02*
X92699400Y-28590400D01*
X92699400Y-28590400D02*
X92199400Y-28590400D01*
X92199400Y-147590400D02*
X92449400Y-147090400D01*
X92449400Y-147090400D02*
X92699400Y-147590400D01*
X92699400Y-147590400D02*
X92199400Y-147590400D01*
D12*
%TO.C,U2*%
X101340000Y-48221000D02*
X102090000Y-48221000D01*
X88815000Y-28921000D02*
X84790000Y-28921000D01*
X84790000Y-48221000D02*
X85540000Y-48221000D01*
X102090000Y-48221000D02*
X102090000Y-28921000D01*
X102090000Y-28921000D02*
X96065000Y-28921000D01*
X84790000Y-28921000D02*
X84790000Y-48221000D01*
X40515000Y-147921000D02*
X36490000Y-147921000D01*
X53790000Y-167221000D02*
X53790000Y-147921000D01*
X53790000Y-147921000D02*
X47765000Y-147921000D01*
X36490000Y-167221000D02*
X37240000Y-167221000D01*
X36490000Y-147921000D02*
X36490000Y-167221000D01*
X53040000Y-167221000D02*
X53790000Y-167221000D01*
%TD*%
M02*
