G04 #@! TF.GenerationSoftware,KiCad,Pcbnew,(5.1.9-0-10_14)*
G04 #@! TF.CreationDate,2021-10-19T11:17:07+02:00*
G04 #@! TF.ProjectId,ithowifi_4l,6974686f-7769-4666-995f-346c2e6b6963,rev?*
G04 #@! TF.SameCoordinates,Original*
G04 #@! TF.FileFunction,Legend,Top*
G04 #@! TF.FilePolarity,Positive*
%FSLAX46Y46*%
G04 Gerber Fmt 4.6, Leading zero omitted, Abs format (unit mm)*
G04 Created by KiCad (PCBNEW (5.1.9-0-10_14)) date 2021-10-19 11:17:07*
%MOMM*%
%LPD*%
G01*
G04 APERTURE LIST*
%ADD10C,0.150000*%
%ADD11C,0.120000*%
G04 APERTURE END LIST*
D10*
X100965000Y-123571000D02*
X100965000Y-119126000D01*
X99949000Y-119126000D02*
X100965000Y-119126000D01*
X99949000Y-123444000D02*
X99314000Y-123444000D01*
X99949000Y-114554000D02*
X99314000Y-114554000D01*
X99949000Y-119126000D02*
X99949000Y-123444000D01*
X99949000Y-119126000D02*
X99949000Y-114554000D01*
X90805000Y-123698000D02*
X91440000Y-123698000D01*
X90805000Y-119126000D02*
X90805000Y-123698000D01*
X90805000Y-114808000D02*
X91440000Y-114808000D01*
X90805000Y-119126000D02*
X90805000Y-114808000D01*
X88900000Y-119126000D02*
X90805000Y-119126000D01*
X88900000Y-123571000D02*
X88900000Y-119126000D01*
X86304380Y-127452285D02*
X85304380Y-127452285D01*
X85304380Y-127214190D01*
X85352000Y-127071333D01*
X85447238Y-126976095D01*
X85542476Y-126928476D01*
X85732952Y-126880857D01*
X85875809Y-126880857D01*
X86066285Y-126928476D01*
X86161523Y-126976095D01*
X86256761Y-127071333D01*
X86304380Y-127214190D01*
X86304380Y-127452285D01*
X86304380Y-125928476D02*
X86304380Y-126499904D01*
X86304380Y-126214190D02*
X85304380Y-126214190D01*
X85447238Y-126309428D01*
X85542476Y-126404666D01*
X85590095Y-126499904D01*
X85304380Y-125023714D02*
X85304380Y-125499904D01*
X85780571Y-125547523D01*
X85732952Y-125499904D01*
X85685333Y-125404666D01*
X85685333Y-125166571D01*
X85732952Y-125071333D01*
X85780571Y-125023714D01*
X85875809Y-124976095D01*
X86113904Y-124976095D01*
X86209142Y-125023714D01*
X86256761Y-125071333D01*
X86304380Y-125166571D01*
X86304380Y-125404666D01*
X86256761Y-125499904D01*
X86209142Y-125547523D01*
X117141523Y-132020380D02*
X116665333Y-132020380D01*
X116617714Y-132496571D01*
X116665333Y-132448952D01*
X116760571Y-132401333D01*
X116998666Y-132401333D01*
X117093904Y-132448952D01*
X117141523Y-132496571D01*
X117189142Y-132591809D01*
X117189142Y-132829904D01*
X117141523Y-132925142D01*
X117093904Y-132972761D01*
X116998666Y-133020380D01*
X116760571Y-133020380D01*
X116665333Y-132972761D01*
X116617714Y-132925142D01*
X117474857Y-132020380D02*
X117808190Y-133020380D01*
X118141523Y-132020380D01*
X108084380Y-152658476D02*
X108084380Y-152039428D01*
X108465333Y-152372761D01*
X108465333Y-152229904D01*
X108512952Y-152134666D01*
X108560571Y-152087047D01*
X108655809Y-152039428D01*
X108893904Y-152039428D01*
X108989142Y-152087047D01*
X109036761Y-152134666D01*
X109084380Y-152229904D01*
X109084380Y-152515619D01*
X109036761Y-152610857D01*
X108989142Y-152658476D01*
X108417714Y-151706095D02*
X109084380Y-151468000D01*
X108417714Y-151229904D01*
X108084380Y-150944190D02*
X108084380Y-150325142D01*
X108465333Y-150658476D01*
X108465333Y-150515619D01*
X108512952Y-150420380D01*
X108560571Y-150372761D01*
X108655809Y-150325142D01*
X108893904Y-150325142D01*
X108989142Y-150372761D01*
X109036761Y-150420380D01*
X109084380Y-150515619D01*
X109084380Y-150801333D01*
X109036761Y-150896571D01*
X108989142Y-150944190D01*
X108132000Y-155329904D02*
X108084380Y-155425142D01*
X108084380Y-155568000D01*
X108132000Y-155710857D01*
X108227238Y-155806095D01*
X108322476Y-155853714D01*
X108512952Y-155901333D01*
X108655809Y-155901333D01*
X108846285Y-155853714D01*
X108941523Y-155806095D01*
X109036761Y-155710857D01*
X109084380Y-155568000D01*
X109084380Y-155472761D01*
X109036761Y-155329904D01*
X108989142Y-155282285D01*
X108655809Y-155282285D01*
X108655809Y-155472761D01*
X109084380Y-154853714D02*
X108084380Y-154853714D01*
X109084380Y-154282285D01*
X108084380Y-154282285D01*
X109084380Y-153806095D02*
X108084380Y-153806095D01*
X108084380Y-153568000D01*
X108132000Y-153425142D01*
X108227238Y-153329904D01*
X108322476Y-153282285D01*
X108512952Y-153234666D01*
X108655809Y-153234666D01*
X108846285Y-153282285D01*
X108941523Y-153329904D01*
X109036761Y-153425142D01*
X109084380Y-153568000D01*
X109084380Y-153806095D01*
X106936761Y-155782285D02*
X106984380Y-155639428D01*
X106984380Y-155401333D01*
X106936761Y-155306095D01*
X106889142Y-155258476D01*
X106793904Y-155210857D01*
X106698666Y-155210857D01*
X106603428Y-155258476D01*
X106555809Y-155306095D01*
X106508190Y-155401333D01*
X106460571Y-155591809D01*
X106412952Y-155687047D01*
X106365333Y-155734666D01*
X106270095Y-155782285D01*
X106174857Y-155782285D01*
X106079619Y-155734666D01*
X106032000Y-155687047D01*
X105984380Y-155591809D01*
X105984380Y-155353714D01*
X106032000Y-155210857D01*
X106984380Y-154782285D02*
X105984380Y-154782285D01*
X105984380Y-154544190D01*
X106032000Y-154401333D01*
X106127238Y-154306095D01*
X106222476Y-154258476D01*
X106412952Y-154210857D01*
X106555809Y-154210857D01*
X106746285Y-154258476D01*
X106841523Y-154306095D01*
X106936761Y-154401333D01*
X106984380Y-154544190D01*
X106984380Y-154782285D01*
X106698666Y-153829904D02*
X106698666Y-153353714D01*
X106984380Y-153925142D02*
X105984380Y-153591809D01*
X106984380Y-153258476D01*
X106936761Y-152658476D02*
X106984380Y-152515619D01*
X106984380Y-152277523D01*
X106936761Y-152182285D01*
X106889142Y-152134666D01*
X106793904Y-152087047D01*
X106698666Y-152087047D01*
X106603428Y-152134666D01*
X106555809Y-152182285D01*
X106508190Y-152277523D01*
X106460571Y-152468000D01*
X106412952Y-152563238D01*
X106365333Y-152610857D01*
X106270095Y-152658476D01*
X106174857Y-152658476D01*
X106079619Y-152610857D01*
X106032000Y-152563238D01*
X105984380Y-152468000D01*
X105984380Y-152229904D01*
X106032000Y-152087047D01*
X106889142Y-151087047D02*
X106936761Y-151134666D01*
X106984380Y-151277523D01*
X106984380Y-151372761D01*
X106936761Y-151515619D01*
X106841523Y-151610857D01*
X106746285Y-151658476D01*
X106555809Y-151706095D01*
X106412952Y-151706095D01*
X106222476Y-151658476D01*
X106127238Y-151610857D01*
X106032000Y-151515619D01*
X105984380Y-151372761D01*
X105984380Y-151277523D01*
X106032000Y-151134666D01*
X106079619Y-151087047D01*
X106984380Y-150182285D02*
X106984380Y-150658476D01*
X105984380Y-150658476D01*
X87331600Y-121259504D02*
X87293504Y-121354742D01*
X87293504Y-121497600D01*
X87331600Y-121640457D01*
X87407790Y-121735695D01*
X87483980Y-121783314D01*
X87636361Y-121830933D01*
X87750647Y-121830933D01*
X87903028Y-121783314D01*
X87979219Y-121735695D01*
X88055409Y-121640457D01*
X88093504Y-121497600D01*
X88093504Y-121402361D01*
X88055409Y-121259504D01*
X88017314Y-121211885D01*
X87750647Y-121211885D01*
X87750647Y-121402361D01*
X88093504Y-120783314D02*
X87293504Y-120783314D01*
X88093504Y-120211885D01*
X87293504Y-120211885D01*
X88093504Y-119735695D02*
X87293504Y-119735695D01*
X87293504Y-119497600D01*
X87331600Y-119354742D01*
X87407790Y-119259504D01*
X87483980Y-119211885D01*
X87636361Y-119164266D01*
X87750647Y-119164266D01*
X87903028Y-119211885D01*
X87979219Y-119259504D01*
X88055409Y-119354742D01*
X88093504Y-119497600D01*
X88093504Y-119735695D01*
X87268104Y-116681095D02*
X87268104Y-116062047D01*
X87572866Y-116395380D01*
X87572866Y-116252523D01*
X87610961Y-116157285D01*
X87649057Y-116109666D01*
X87725247Y-116062047D01*
X87915723Y-116062047D01*
X87991914Y-116109666D01*
X88030009Y-116157285D01*
X88068104Y-116252523D01*
X88068104Y-116538238D01*
X88030009Y-116633476D01*
X87991914Y-116681095D01*
X87268104Y-115776333D02*
X88068104Y-115443000D01*
X87268104Y-115109666D01*
X87268104Y-114871571D02*
X87268104Y-114252523D01*
X87572866Y-114585857D01*
X87572866Y-114443000D01*
X87610961Y-114347761D01*
X87649057Y-114300142D01*
X87725247Y-114252523D01*
X87915723Y-114252523D01*
X87991914Y-114300142D01*
X88030009Y-114347761D01*
X88068104Y-114443000D01*
X88068104Y-114728714D01*
X88030009Y-114823952D01*
X87991914Y-114871571D01*
X88093504Y-112968066D02*
X87712552Y-113301400D01*
X88093504Y-113539495D02*
X87293504Y-113539495D01*
X87293504Y-113158542D01*
X87331600Y-113063304D01*
X87369695Y-113015685D01*
X87445885Y-112968066D01*
X87560171Y-112968066D01*
X87636361Y-113015685D01*
X87674457Y-113063304D01*
X87712552Y-113158542D01*
X87712552Y-113539495D01*
X87293504Y-112634733D02*
X88093504Y-111968066D01*
X87293504Y-111968066D02*
X88093504Y-112634733D01*
X87318904Y-111048704D02*
X87318904Y-110477276D01*
X88118904Y-110762990D02*
X87318904Y-110762990D01*
X87318904Y-110239180D02*
X88118904Y-109572514D01*
X87318904Y-109572514D02*
X88118904Y-110239180D01*
X88144304Y-108788057D02*
X87344304Y-108788057D01*
X87344304Y-108549961D01*
X87382400Y-108407104D01*
X87458590Y-108311866D01*
X87534780Y-108264247D01*
X87687161Y-108216628D01*
X87801447Y-108216628D01*
X87953828Y-108264247D01*
X88030019Y-108311866D01*
X88106209Y-108407104D01*
X88144304Y-108549961D01*
X88144304Y-108788057D01*
X87344304Y-107930914D02*
X87344304Y-107359485D01*
X88144304Y-107645200D02*
X87344304Y-107645200D01*
X88144304Y-106454723D02*
X87763352Y-106788057D01*
X88144304Y-107026152D02*
X87344304Y-107026152D01*
X87344304Y-106645200D01*
X87382400Y-106549961D01*
X87420495Y-106502342D01*
X87496685Y-106454723D01*
X87610971Y-106454723D01*
X87687161Y-106502342D01*
X87725257Y-106549961D01*
X87763352Y-106645200D01*
X87763352Y-107026152D01*
X116008190Y-137120380D02*
X116341523Y-138120380D01*
X116674857Y-137120380D01*
X117008190Y-138120380D02*
X117008190Y-137453714D01*
X117008190Y-137120380D02*
X116960571Y-137168000D01*
X117008190Y-137215619D01*
X117055809Y-137168000D01*
X117008190Y-137120380D01*
X117008190Y-137215619D01*
X117484380Y-137453714D02*
X117484380Y-138120380D01*
X117484380Y-137548952D02*
X117532000Y-137501333D01*
X117627238Y-137453714D01*
X117770095Y-137453714D01*
X117865333Y-137501333D01*
X117912952Y-137596571D01*
X117912952Y-138120380D01*
X123579000Y-133476904D02*
X123531380Y-133572142D01*
X123531380Y-133715000D01*
X123579000Y-133857857D01*
X123674238Y-133953095D01*
X123769476Y-134000714D01*
X123959952Y-134048333D01*
X124102809Y-134048333D01*
X124293285Y-134000714D01*
X124388523Y-133953095D01*
X124483761Y-133857857D01*
X124531380Y-133715000D01*
X124531380Y-133619761D01*
X124483761Y-133476904D01*
X124436142Y-133429285D01*
X124102809Y-133429285D01*
X124102809Y-133619761D01*
X124531380Y-133000714D02*
X123531380Y-133000714D01*
X124531380Y-132429285D01*
X123531380Y-132429285D01*
X124531380Y-131953095D02*
X123531380Y-131953095D01*
X123531380Y-131715000D01*
X123579000Y-131572142D01*
X123674238Y-131476904D01*
X123769476Y-131429285D01*
X123959952Y-131381666D01*
X124102809Y-131381666D01*
X124293285Y-131429285D01*
X124388523Y-131476904D01*
X124483761Y-131572142D01*
X124531380Y-131715000D01*
X124531380Y-131953095D01*
X115649523Y-130579761D02*
X115792380Y-130627380D01*
X116030476Y-130627380D01*
X116125714Y-130579761D01*
X116173333Y-130532142D01*
X116220952Y-130436904D01*
X116220952Y-130341666D01*
X116173333Y-130246428D01*
X116125714Y-130198809D01*
X116030476Y-130151190D01*
X115840000Y-130103571D01*
X115744761Y-130055952D01*
X115697142Y-130008333D01*
X115649523Y-129913095D01*
X115649523Y-129817857D01*
X115697142Y-129722619D01*
X115744761Y-129675000D01*
X115840000Y-129627380D01*
X116078095Y-129627380D01*
X116220952Y-129675000D01*
X117220952Y-130532142D02*
X117173333Y-130579761D01*
X117030476Y-130627380D01*
X116935238Y-130627380D01*
X116792380Y-130579761D01*
X116697142Y-130484523D01*
X116649523Y-130389285D01*
X116601904Y-130198809D01*
X116601904Y-130055952D01*
X116649523Y-129865476D01*
X116697142Y-129770238D01*
X116792380Y-129675000D01*
X116935238Y-129627380D01*
X117030476Y-129627380D01*
X117173333Y-129675000D01*
X117220952Y-129722619D01*
X118125714Y-130627380D02*
X117649523Y-130627380D01*
X117649523Y-129627380D01*
X124483761Y-130627285D02*
X124531380Y-130484428D01*
X124531380Y-130246333D01*
X124483761Y-130151095D01*
X124436142Y-130103476D01*
X124340904Y-130055857D01*
X124245666Y-130055857D01*
X124150428Y-130103476D01*
X124102809Y-130151095D01*
X124055190Y-130246333D01*
X124007571Y-130436809D01*
X123959952Y-130532047D01*
X123912333Y-130579666D01*
X123817095Y-130627285D01*
X123721857Y-130627285D01*
X123626619Y-130579666D01*
X123579000Y-130532047D01*
X123531380Y-130436809D01*
X123531380Y-130198714D01*
X123579000Y-130055857D01*
X124531380Y-129627285D02*
X123531380Y-129627285D01*
X123531380Y-129389190D01*
X123579000Y-129246333D01*
X123674238Y-129151095D01*
X123769476Y-129103476D01*
X123959952Y-129055857D01*
X124102809Y-129055857D01*
X124293285Y-129103476D01*
X124388523Y-129151095D01*
X124483761Y-129246333D01*
X124531380Y-129389190D01*
X124531380Y-129627285D01*
X124245666Y-128674904D02*
X124245666Y-128198714D01*
X124531380Y-128770142D02*
X123531380Y-128436809D01*
X124531380Y-128103476D01*
D11*
X106433180Y-109251460D02*
G75*
G03*
X106433180Y-109251460I-1251000J0D01*
G01*
X110436500Y-142604564D02*
X110436500Y-142150436D01*
X111906500Y-142604564D02*
X111906500Y-142150436D01*
X112025500Y-147084000D02*
X112025500Y-145084000D01*
X112025500Y-145084000D02*
X108125500Y-145084000D01*
X112025500Y-147084000D02*
X108125500Y-147084000D01*
X107642500Y-142662252D02*
X107642500Y-142139748D01*
X109112500Y-142662252D02*
X109112500Y-142139748D01*
X113743252Y-138503000D02*
X113220748Y-138503000D01*
X113743252Y-137033000D02*
X113220748Y-137033000D01*
X115042000Y-125820500D02*
X112692000Y-125820500D01*
X108222000Y-125820500D02*
X110572000Y-125820500D01*
X108222000Y-131576063D02*
X108222000Y-125820500D01*
X115042000Y-131576063D02*
X115042000Y-125820500D01*
X113977563Y-132640500D02*
X112692000Y-132640500D01*
X109286437Y-132640500D02*
X110572000Y-132640500D01*
X109286437Y-132640500D02*
X108222000Y-131576063D01*
X113977563Y-132640500D02*
X115042000Y-131576063D01*
X109962000Y-155798000D02*
X115162000Y-155798000D01*
X109962000Y-153198000D02*
X109962000Y-155798000D01*
X115162000Y-150598000D02*
X115162000Y-155798000D01*
X109962000Y-153198000D02*
X112562000Y-153198000D01*
X112562000Y-153198000D02*
X112562000Y-150598000D01*
X112562000Y-150598000D02*
X115162000Y-150598000D01*
X109962000Y-151928000D02*
X109962000Y-150598000D01*
X109962000Y-150598000D02*
X111292000Y-150598000D01*
D10*
X89496000Y-109933400D02*
X95719000Y-109933400D01*
X88480000Y-108917400D02*
X89496000Y-109933400D01*
X88480000Y-106885400D02*
X88480000Y-108917400D01*
X89496000Y-105869400D02*
X88480000Y-106885400D01*
X95719000Y-105869400D02*
X89496000Y-105869400D01*
X95719000Y-109933400D02*
X95719000Y-105869400D01*
D11*
X105097600Y-131260400D02*
X105097600Y-130480400D01*
X105097600Y-130480400D02*
X104097600Y-130480400D01*
X86857600Y-131260400D02*
X86857600Y-130480400D01*
X86857600Y-130480400D02*
X87857600Y-130480400D01*
X105097600Y-156225400D02*
X86857600Y-156225400D01*
X86857600Y-156225400D02*
X86857600Y-149805400D01*
X105097600Y-156225400D02*
X105097600Y-149805400D01*
X105097600Y-149805400D02*
X105477600Y-149805400D01*
X107246000Y-125251422D02*
X107246000Y-125768578D01*
X105826000Y-125251422D02*
X105826000Y-125768578D01*
X87940000Y-124501400D02*
X87940000Y-127186400D01*
X87940000Y-127186400D02*
X89860000Y-127186400D01*
X89860000Y-127186400D02*
X89860000Y-124501400D01*
X92023000Y-125242822D02*
X92023000Y-125759978D01*
X90603000Y-125242822D02*
X90603000Y-125759978D01*
X93016000Y-125759978D02*
X93016000Y-125242822D01*
X94436000Y-125759978D02*
X94436000Y-125242822D01*
X97842000Y-125774078D02*
X97842000Y-125256922D01*
X99262000Y-125774078D02*
X99262000Y-125256922D01*
X84395000Y-124367600D02*
X87055000Y-124367600D01*
X84395000Y-109067600D02*
X84395000Y-124367600D01*
X87055000Y-109067600D02*
X87055000Y-124367600D01*
X84395000Y-109067600D02*
X87055000Y-109067600D01*
X84395000Y-107797600D02*
X84395000Y-106467600D01*
X84395000Y-106467600D02*
X85725000Y-106467600D01*
X110178322Y-148041000D02*
X110695478Y-148041000D01*
X110178322Y-149461000D02*
X110695478Y-149461000D01*
X95429000Y-125759978D02*
X95429000Y-125242822D01*
X96849000Y-125759978D02*
X96849000Y-125242822D01*
X100005000Y-124515500D02*
X100005000Y-127200500D01*
X100005000Y-127200500D02*
X101925000Y-127200500D01*
X101925000Y-127200500D02*
X101925000Y-124515500D01*
X102668000Y-125774078D02*
X102668000Y-125256922D01*
X104088000Y-125774078D02*
X104088000Y-125256922D01*
X119328000Y-125202422D02*
X119328000Y-125719578D01*
X117908000Y-125202422D02*
X117908000Y-125719578D01*
X123392000Y-125202422D02*
X123392000Y-125719578D01*
X121972000Y-125202422D02*
X121972000Y-125719578D01*
X119582000Y-117365822D02*
X119582000Y-117882978D01*
X118162000Y-117365822D02*
X118162000Y-117882978D01*
X122149800Y-117882978D02*
X122149800Y-117365822D01*
X123569800Y-117882978D02*
X123569800Y-117365822D01*
X117078600Y-122299000D02*
X118008600Y-122299000D01*
X120238600Y-122299000D02*
X119308600Y-122299000D01*
X120238600Y-122299000D02*
X120238600Y-120139000D01*
X117078600Y-122299000D02*
X117078600Y-120839000D01*
X121076600Y-122299000D02*
X122006600Y-122299000D01*
X124236600Y-122299000D02*
X123306600Y-122299000D01*
X124236600Y-122299000D02*
X124236600Y-120139000D01*
X121076600Y-122299000D02*
X121076600Y-120839000D01*
X124630600Y-149511200D02*
X112909600Y-149511200D01*
X124630600Y-140891200D02*
X112909600Y-140891200D01*
X124630600Y-149511200D02*
X124630600Y-140891200D01*
X112909600Y-149511200D02*
X112909600Y-140891200D01*
X124870600Y-141891200D02*
X124870600Y-140651200D01*
X124870600Y-140651200D02*
X123630600Y-140651200D01*
D10*
X107767380Y-120110095D02*
X107291190Y-120443428D01*
X107767380Y-120681523D02*
X106767380Y-120681523D01*
X106767380Y-120300571D01*
X106815000Y-120205333D01*
X106862619Y-120157714D01*
X106957857Y-120110095D01*
X107100714Y-120110095D01*
X107195952Y-120157714D01*
X107243571Y-120205333D01*
X107291190Y-120300571D01*
X107291190Y-120681523D01*
X107719761Y-119300571D02*
X107767380Y-119395809D01*
X107767380Y-119586285D01*
X107719761Y-119681523D01*
X107624523Y-119729142D01*
X107243571Y-119729142D01*
X107148333Y-119681523D01*
X107100714Y-119586285D01*
X107100714Y-119395809D01*
X107148333Y-119300571D01*
X107243571Y-119252952D01*
X107338809Y-119252952D01*
X107434047Y-119729142D01*
X107719761Y-118872000D02*
X107767380Y-118776761D01*
X107767380Y-118586285D01*
X107719761Y-118491047D01*
X107624523Y-118443428D01*
X107576904Y-118443428D01*
X107481666Y-118491047D01*
X107434047Y-118586285D01*
X107434047Y-118729142D01*
X107386428Y-118824380D01*
X107291190Y-118872000D01*
X107243571Y-118872000D01*
X107148333Y-118824380D01*
X107100714Y-118729142D01*
X107100714Y-118586285D01*
X107148333Y-118491047D01*
X107719761Y-117633904D02*
X107767380Y-117729142D01*
X107767380Y-117919619D01*
X107719761Y-118014857D01*
X107624523Y-118062476D01*
X107243571Y-118062476D01*
X107148333Y-118014857D01*
X107100714Y-117919619D01*
X107100714Y-117729142D01*
X107148333Y-117633904D01*
X107243571Y-117586285D01*
X107338809Y-117586285D01*
X107434047Y-118062476D01*
X107100714Y-117300571D02*
X107100714Y-116919619D01*
X106767380Y-117157714D02*
X107624523Y-117157714D01*
X107719761Y-117110095D01*
X107767380Y-117014857D01*
X107767380Y-116919619D01*
X113847571Y-121633904D02*
X113847571Y-121967238D01*
X114371380Y-121967238D02*
X113371380Y-121967238D01*
X113371380Y-121491047D01*
X114371380Y-120681523D02*
X113847571Y-120681523D01*
X113752333Y-120729142D01*
X113704714Y-120824380D01*
X113704714Y-121014857D01*
X113752333Y-121110095D01*
X114323761Y-120681523D02*
X114371380Y-120776761D01*
X114371380Y-121014857D01*
X114323761Y-121110095D01*
X114228523Y-121157714D01*
X114133285Y-121157714D01*
X114038047Y-121110095D01*
X113990428Y-121014857D01*
X113990428Y-120776761D01*
X113942809Y-120681523D01*
X114371380Y-120205333D02*
X113704714Y-120205333D01*
X113371380Y-120205333D02*
X113419000Y-120252952D01*
X113466619Y-120205333D01*
X113419000Y-120157714D01*
X113371380Y-120205333D01*
X113466619Y-120205333D01*
X114371380Y-119586285D02*
X114323761Y-119681523D01*
X114228523Y-119729142D01*
X113371380Y-119729142D01*
X114323761Y-118491047D02*
X114371380Y-118395809D01*
X114371380Y-118205333D01*
X114323761Y-118110095D01*
X114228523Y-118062476D01*
X114180904Y-118062476D01*
X114085666Y-118110095D01*
X114038047Y-118205333D01*
X114038047Y-118348190D01*
X113990428Y-118443428D01*
X113895190Y-118491047D01*
X113847571Y-118491047D01*
X113752333Y-118443428D01*
X113704714Y-118348190D01*
X113704714Y-118205333D01*
X113752333Y-118110095D01*
X114371380Y-117205333D02*
X113847571Y-117205333D01*
X113752333Y-117252952D01*
X113704714Y-117348190D01*
X113704714Y-117538666D01*
X113752333Y-117633904D01*
X114323761Y-117205333D02*
X114371380Y-117300571D01*
X114371380Y-117538666D01*
X114323761Y-117633904D01*
X114228523Y-117681523D01*
X114133285Y-117681523D01*
X114038047Y-117633904D01*
X113990428Y-117538666D01*
X113990428Y-117300571D01*
X113942809Y-117205333D01*
X113704714Y-116872000D02*
X113704714Y-116491047D01*
X114371380Y-116729142D02*
X113514238Y-116729142D01*
X113419000Y-116681523D01*
X113371380Y-116586285D01*
X113371380Y-116491047D01*
X114323761Y-115776761D02*
X114371380Y-115872000D01*
X114371380Y-116062476D01*
X114323761Y-116157714D01*
X114228523Y-116205333D01*
X113847571Y-116205333D01*
X113752333Y-116157714D01*
X113704714Y-116062476D01*
X113704714Y-115872000D01*
X113752333Y-115776761D01*
X113847571Y-115729142D01*
X113942809Y-115729142D01*
X114038047Y-116205333D01*
X111560380Y-139932357D02*
X111084190Y-140265690D01*
X111560380Y-140503785D02*
X110560380Y-140503785D01*
X110560380Y-140122833D01*
X110608000Y-140027595D01*
X110655619Y-139979976D01*
X110750857Y-139932357D01*
X110893714Y-139932357D01*
X110988952Y-139979976D01*
X111036571Y-140027595D01*
X111084190Y-140122833D01*
X111084190Y-140503785D01*
X111560380Y-138979976D02*
X111560380Y-139551404D01*
X111560380Y-139265690D02*
X110560380Y-139265690D01*
X110703238Y-139360928D01*
X110798476Y-139456166D01*
X110846095Y-139551404D01*
X111560380Y-138027595D02*
X111560380Y-138599023D01*
X111560380Y-138313309D02*
X110560380Y-138313309D01*
X110703238Y-138408547D01*
X110798476Y-138503785D01*
X110846095Y-138599023D01*
X107496380Y-146822095D02*
X106496380Y-146822095D01*
X106496380Y-146584000D01*
X106544000Y-146441142D01*
X106639238Y-146345904D01*
X106734476Y-146298285D01*
X106924952Y-146250666D01*
X107067809Y-146250666D01*
X107258285Y-146298285D01*
X107353523Y-146345904D01*
X107448761Y-146441142D01*
X107496380Y-146584000D01*
X107496380Y-146822095D01*
X106591619Y-145869714D02*
X106544000Y-145822095D01*
X106496380Y-145726857D01*
X106496380Y-145488761D01*
X106544000Y-145393523D01*
X106591619Y-145345904D01*
X106686857Y-145298285D01*
X106782095Y-145298285D01*
X106924952Y-145345904D01*
X107496380Y-145917333D01*
X107496380Y-145298285D01*
X108607642Y-139837166D02*
X108655261Y-139884785D01*
X108702880Y-140027642D01*
X108702880Y-140122880D01*
X108655261Y-140265738D01*
X108560023Y-140360976D01*
X108464785Y-140408595D01*
X108274309Y-140456214D01*
X108131452Y-140456214D01*
X107940976Y-140408595D01*
X107845738Y-140360976D01*
X107750500Y-140265738D01*
X107702880Y-140122880D01*
X107702880Y-140027642D01*
X107750500Y-139884785D01*
X107798119Y-139837166D01*
X107702880Y-139503833D02*
X107702880Y-138884785D01*
X108083833Y-139218119D01*
X108083833Y-139075261D01*
X108131452Y-138980023D01*
X108179071Y-138932404D01*
X108274309Y-138884785D01*
X108512404Y-138884785D01*
X108607642Y-138932404D01*
X108655261Y-138980023D01*
X108702880Y-139075261D01*
X108702880Y-139360976D01*
X108655261Y-139456214D01*
X108607642Y-139503833D01*
X113227333Y-136471642D02*
X113179714Y-136519261D01*
X113036857Y-136566880D01*
X112941619Y-136566880D01*
X112798761Y-136519261D01*
X112703523Y-136424023D01*
X112655904Y-136328785D01*
X112608285Y-136138309D01*
X112608285Y-135995452D01*
X112655904Y-135804976D01*
X112703523Y-135709738D01*
X112798761Y-135614500D01*
X112941619Y-135566880D01*
X113036857Y-135566880D01*
X113179714Y-135614500D01*
X113227333Y-135662119D01*
X114084476Y-135566880D02*
X113894000Y-135566880D01*
X113798761Y-135614500D01*
X113751142Y-135662119D01*
X113655904Y-135804976D01*
X113608285Y-135995452D01*
X113608285Y-136376404D01*
X113655904Y-136471642D01*
X113703523Y-136519261D01*
X113798761Y-136566880D01*
X113989238Y-136566880D01*
X114084476Y-136519261D01*
X114132095Y-136471642D01*
X114179714Y-136376404D01*
X114179714Y-136138309D01*
X114132095Y-136043071D01*
X114084476Y-135995452D01*
X113989238Y-135947833D01*
X113798761Y-135947833D01*
X113703523Y-135995452D01*
X113655904Y-136043071D01*
X113608285Y-136138309D01*
X114889142Y-124834666D02*
X114936761Y-124882285D01*
X114984380Y-125025142D01*
X114984380Y-125120380D01*
X114936761Y-125263238D01*
X114841523Y-125358476D01*
X114746285Y-125406095D01*
X114555809Y-125453714D01*
X114412952Y-125453714D01*
X114222476Y-125406095D01*
X114127238Y-125358476D01*
X114032000Y-125263238D01*
X113984380Y-125120380D01*
X113984380Y-125025142D01*
X114032000Y-124882285D01*
X114079619Y-124834666D01*
X114317714Y-123977523D02*
X114984380Y-123977523D01*
X113936761Y-124215619D02*
X114651047Y-124453714D01*
X114651047Y-123834666D01*
X96084380Y-108247433D02*
X96798666Y-108247433D01*
X96941523Y-108295052D01*
X97036761Y-108390290D01*
X97084380Y-108533147D01*
X97084380Y-108628385D01*
X96417714Y-107342671D02*
X97084380Y-107342671D01*
X96036761Y-107580766D02*
X96751047Y-107818861D01*
X96751047Y-107199814D01*
X85383619Y-139573095D02*
X84574095Y-139573095D01*
X84478857Y-139620714D01*
X84431238Y-139668333D01*
X84383619Y-139763571D01*
X84383619Y-139954047D01*
X84431238Y-140049285D01*
X84478857Y-140096904D01*
X84574095Y-140144523D01*
X85383619Y-140144523D01*
X84383619Y-141144523D02*
X84383619Y-140573095D01*
X84383619Y-140858809D02*
X85383619Y-140858809D01*
X85240761Y-140763571D01*
X85145523Y-140668333D01*
X85097904Y-140573095D01*
X107039180Y-129277057D02*
X106562990Y-129610390D01*
X107039180Y-129848485D02*
X106039180Y-129848485D01*
X106039180Y-129467533D01*
X106086800Y-129372295D01*
X106134419Y-129324676D01*
X106229657Y-129277057D01*
X106372514Y-129277057D01*
X106467752Y-129324676D01*
X106515371Y-129372295D01*
X106562990Y-129467533D01*
X106562990Y-129848485D01*
X107039180Y-128324676D02*
X107039180Y-128896104D01*
X107039180Y-128610390D02*
X106039180Y-128610390D01*
X106182038Y-128705628D01*
X106277276Y-128800866D01*
X106324895Y-128896104D01*
X106039180Y-127705628D02*
X106039180Y-127610390D01*
X106086800Y-127515152D01*
X106134419Y-127467533D01*
X106229657Y-127419914D01*
X106420133Y-127372295D01*
X106658228Y-127372295D01*
X106848704Y-127419914D01*
X106943942Y-127467533D01*
X106991561Y-127515152D01*
X107039180Y-127610390D01*
X107039180Y-127705628D01*
X106991561Y-127800866D01*
X106943942Y-127848485D01*
X106848704Y-127896104D01*
X106658228Y-127943723D01*
X106420133Y-127943723D01*
X106229657Y-127896104D01*
X106134419Y-127848485D01*
X106086800Y-127800866D01*
X106039180Y-127705628D01*
X91273380Y-123126000D02*
X92273380Y-122887904D01*
X91559095Y-122697428D01*
X92273380Y-122506952D01*
X91273380Y-122268857D01*
X92273380Y-121887904D02*
X91273380Y-121887904D01*
X91749571Y-121078380D02*
X91749571Y-121411714D01*
X92273380Y-121411714D02*
X91273380Y-121411714D01*
X91273380Y-120935523D01*
X92273380Y-120554571D02*
X91273380Y-120554571D01*
X92225761Y-119364095D02*
X92273380Y-119268857D01*
X92273380Y-119078380D01*
X92225761Y-118983142D01*
X92130523Y-118935523D01*
X92082904Y-118935523D01*
X91987666Y-118983142D01*
X91940047Y-119078380D01*
X91940047Y-119221238D01*
X91892428Y-119316476D01*
X91797190Y-119364095D01*
X91749571Y-119364095D01*
X91654333Y-119316476D01*
X91606714Y-119221238D01*
X91606714Y-119078380D01*
X91654333Y-118983142D01*
X91606714Y-118649809D02*
X91606714Y-118268857D01*
X91273380Y-118506952D02*
X92130523Y-118506952D01*
X92225761Y-118459333D01*
X92273380Y-118364095D01*
X92273380Y-118268857D01*
X92273380Y-117506952D02*
X91749571Y-117506952D01*
X91654333Y-117554571D01*
X91606714Y-117649809D01*
X91606714Y-117840285D01*
X91654333Y-117935523D01*
X92225761Y-117506952D02*
X92273380Y-117602190D01*
X92273380Y-117840285D01*
X92225761Y-117935523D01*
X92130523Y-117983142D01*
X92035285Y-117983142D01*
X91940047Y-117935523D01*
X91892428Y-117840285D01*
X91892428Y-117602190D01*
X91844809Y-117506952D01*
X91606714Y-117173619D02*
X91606714Y-116792666D01*
X91273380Y-117030761D02*
X92130523Y-117030761D01*
X92225761Y-116983142D01*
X92273380Y-116887904D01*
X92273380Y-116792666D01*
X91606714Y-116030761D02*
X92273380Y-116030761D01*
X91606714Y-116459333D02*
X92130523Y-116459333D01*
X92225761Y-116411714D01*
X92273380Y-116316476D01*
X92273380Y-116173619D01*
X92225761Y-116078380D01*
X92178142Y-116030761D01*
X92225761Y-115602190D02*
X92273380Y-115506952D01*
X92273380Y-115316476D01*
X92225761Y-115221238D01*
X92130523Y-115173619D01*
X92082904Y-115173619D01*
X91987666Y-115221238D01*
X91940047Y-115316476D01*
X91940047Y-115459333D01*
X91892428Y-115554571D01*
X91797190Y-115602190D01*
X91749571Y-115602190D01*
X91654333Y-115554571D01*
X91606714Y-115459333D01*
X91606714Y-115316476D01*
X91654333Y-115221238D01*
X92146380Y-128413566D02*
X91670190Y-128746900D01*
X92146380Y-128984995D02*
X91146380Y-128984995D01*
X91146380Y-128604042D01*
X91194000Y-128508804D01*
X91241619Y-128461185D01*
X91336857Y-128413566D01*
X91479714Y-128413566D01*
X91574952Y-128461185D01*
X91622571Y-128508804D01*
X91670190Y-128604042D01*
X91670190Y-128984995D01*
X92146380Y-127937376D02*
X92146380Y-127746900D01*
X92098761Y-127651661D01*
X92051142Y-127604042D01*
X91908285Y-127508804D01*
X91717809Y-127461185D01*
X91336857Y-127461185D01*
X91241619Y-127508804D01*
X91194000Y-127556423D01*
X91146380Y-127651661D01*
X91146380Y-127842138D01*
X91194000Y-127937376D01*
X91241619Y-127984995D01*
X91336857Y-128032614D01*
X91574952Y-128032614D01*
X91670190Y-127984995D01*
X91717809Y-127937376D01*
X91765428Y-127842138D01*
X91765428Y-127651661D01*
X91717809Y-127556423D01*
X91670190Y-127508804D01*
X91574952Y-127461185D01*
X94559380Y-128413566D02*
X94083190Y-128746900D01*
X94559380Y-128984995D02*
X93559380Y-128984995D01*
X93559380Y-128604042D01*
X93607000Y-128508804D01*
X93654619Y-128461185D01*
X93749857Y-128413566D01*
X93892714Y-128413566D01*
X93987952Y-128461185D01*
X94035571Y-128508804D01*
X94083190Y-128604042D01*
X94083190Y-128984995D01*
X93987952Y-127842138D02*
X93940333Y-127937376D01*
X93892714Y-127984995D01*
X93797476Y-128032614D01*
X93749857Y-128032614D01*
X93654619Y-127984995D01*
X93607000Y-127937376D01*
X93559380Y-127842138D01*
X93559380Y-127651661D01*
X93607000Y-127556423D01*
X93654619Y-127508804D01*
X93749857Y-127461185D01*
X93797476Y-127461185D01*
X93892714Y-127508804D01*
X93940333Y-127556423D01*
X93987952Y-127651661D01*
X93987952Y-127842138D01*
X94035571Y-127937376D01*
X94083190Y-127984995D01*
X94178428Y-128032614D01*
X94368904Y-128032614D01*
X94464142Y-127984995D01*
X94511761Y-127937376D01*
X94559380Y-127842138D01*
X94559380Y-127651661D01*
X94511761Y-127556423D01*
X94464142Y-127508804D01*
X94368904Y-127461185D01*
X94178428Y-127461185D01*
X94083190Y-127508804D01*
X94035571Y-127556423D01*
X93987952Y-127651661D01*
X99004380Y-128436666D02*
X98528190Y-128770000D01*
X99004380Y-129008095D02*
X98004380Y-129008095D01*
X98004380Y-128627142D01*
X98052000Y-128531904D01*
X98099619Y-128484285D01*
X98194857Y-128436666D01*
X98337714Y-128436666D01*
X98432952Y-128484285D01*
X98480571Y-128531904D01*
X98528190Y-128627142D01*
X98528190Y-129008095D01*
X98004380Y-128103333D02*
X98004380Y-127436666D01*
X99004380Y-127865238D01*
X108226642Y-148917666D02*
X108274261Y-148965285D01*
X108321880Y-149108142D01*
X108321880Y-149203380D01*
X108274261Y-149346238D01*
X108179023Y-149441476D01*
X108083785Y-149489095D01*
X107893309Y-149536714D01*
X107750452Y-149536714D01*
X107559976Y-149489095D01*
X107464738Y-149441476D01*
X107369500Y-149346238D01*
X107321880Y-149203380D01*
X107321880Y-149108142D01*
X107369500Y-148965285D01*
X107417119Y-148917666D01*
X107321880Y-148012904D02*
X107321880Y-148489095D01*
X107798071Y-148536714D01*
X107750452Y-148489095D01*
X107702833Y-148393857D01*
X107702833Y-148155761D01*
X107750452Y-148060523D01*
X107798071Y-148012904D01*
X107893309Y-147965285D01*
X108131404Y-147965285D01*
X108226642Y-148012904D01*
X108274261Y-148060523D01*
X108321880Y-148155761D01*
X108321880Y-148393857D01*
X108274261Y-148489095D01*
X108226642Y-148536714D01*
X96496142Y-128436666D02*
X96543761Y-128484285D01*
X96591380Y-128627142D01*
X96591380Y-128722380D01*
X96543761Y-128865238D01*
X96448523Y-128960476D01*
X96353285Y-129008095D01*
X96162809Y-129055714D01*
X96019952Y-129055714D01*
X95829476Y-129008095D01*
X95734238Y-128960476D01*
X95639000Y-128865238D01*
X95591380Y-128722380D01*
X95591380Y-128627142D01*
X95639000Y-128484285D01*
X95686619Y-128436666D01*
X95686619Y-128055714D02*
X95639000Y-128008095D01*
X95591380Y-127912857D01*
X95591380Y-127674761D01*
X95639000Y-127579523D01*
X95686619Y-127531904D01*
X95781857Y-127484285D01*
X95877095Y-127484285D01*
X96019952Y-127531904D01*
X96591380Y-128103333D01*
X96591380Y-127484285D01*
X99385380Y-122856142D02*
X98718714Y-122856142D01*
X98385380Y-122856142D02*
X98433000Y-122903761D01*
X98480619Y-122856142D01*
X98433000Y-122808523D01*
X98385380Y-122856142D01*
X98480619Y-122856142D01*
X98718714Y-122522809D02*
X98718714Y-122141857D01*
X98385380Y-122379952D02*
X99242523Y-122379952D01*
X99337761Y-122332333D01*
X99385380Y-122237095D01*
X99385380Y-122141857D01*
X99385380Y-121808523D02*
X98385380Y-121808523D01*
X99385380Y-121379952D02*
X98861571Y-121379952D01*
X98766333Y-121427571D01*
X98718714Y-121522809D01*
X98718714Y-121665666D01*
X98766333Y-121760904D01*
X98813952Y-121808523D01*
X99385380Y-120760904D02*
X99337761Y-120856142D01*
X99290142Y-120903761D01*
X99194904Y-120951380D01*
X98909190Y-120951380D01*
X98813952Y-120903761D01*
X98766333Y-120856142D01*
X98718714Y-120760904D01*
X98718714Y-120618047D01*
X98766333Y-120522809D01*
X98813952Y-120475190D01*
X98909190Y-120427571D01*
X99194904Y-120427571D01*
X99290142Y-120475190D01*
X99337761Y-120522809D01*
X99385380Y-120618047D01*
X99385380Y-120760904D01*
X99337761Y-119284714D02*
X99385380Y-119189476D01*
X99385380Y-118999000D01*
X99337761Y-118903761D01*
X99242523Y-118856142D01*
X99194904Y-118856142D01*
X99099666Y-118903761D01*
X99052047Y-118999000D01*
X99052047Y-119141857D01*
X99004428Y-119237095D01*
X98909190Y-119284714D01*
X98861571Y-119284714D01*
X98766333Y-119237095D01*
X98718714Y-119141857D01*
X98718714Y-118999000D01*
X98766333Y-118903761D01*
X98718714Y-118570428D02*
X98718714Y-118189476D01*
X98385380Y-118427571D02*
X99242523Y-118427571D01*
X99337761Y-118379952D01*
X99385380Y-118284714D01*
X99385380Y-118189476D01*
X99385380Y-117427571D02*
X98861571Y-117427571D01*
X98766333Y-117475190D01*
X98718714Y-117570428D01*
X98718714Y-117760904D01*
X98766333Y-117856142D01*
X99337761Y-117427571D02*
X99385380Y-117522809D01*
X99385380Y-117760904D01*
X99337761Y-117856142D01*
X99242523Y-117903761D01*
X99147285Y-117903761D01*
X99052047Y-117856142D01*
X99004428Y-117760904D01*
X99004428Y-117522809D01*
X98956809Y-117427571D01*
X98718714Y-117094238D02*
X98718714Y-116713285D01*
X98385380Y-116951380D02*
X99242523Y-116951380D01*
X99337761Y-116903761D01*
X99385380Y-116808523D01*
X99385380Y-116713285D01*
X98718714Y-115951380D02*
X99385380Y-115951380D01*
X98718714Y-116379952D02*
X99242523Y-116379952D01*
X99337761Y-116332333D01*
X99385380Y-116237095D01*
X99385380Y-116094238D01*
X99337761Y-115999000D01*
X99290142Y-115951380D01*
X99337761Y-115522809D02*
X99385380Y-115427571D01*
X99385380Y-115237095D01*
X99337761Y-115141857D01*
X99242523Y-115094238D01*
X99194904Y-115094238D01*
X99099666Y-115141857D01*
X99052047Y-115237095D01*
X99052047Y-115379952D01*
X99004428Y-115475190D01*
X98909190Y-115522809D01*
X98861571Y-115522809D01*
X98766333Y-115475190D01*
X98718714Y-115379952D01*
X98718714Y-115237095D01*
X98766333Y-115141857D01*
X103914380Y-128470666D02*
X103438190Y-128804000D01*
X103914380Y-129042095D02*
X102914380Y-129042095D01*
X102914380Y-128661142D01*
X102962000Y-128565904D01*
X103009619Y-128518285D01*
X103104857Y-128470666D01*
X103247714Y-128470666D01*
X103342952Y-128518285D01*
X103390571Y-128565904D01*
X103438190Y-128661142D01*
X103438190Y-129042095D01*
X102914380Y-127565904D02*
X102914380Y-128042095D01*
X103390571Y-128089714D01*
X103342952Y-128042095D01*
X103295333Y-127946857D01*
X103295333Y-127708761D01*
X103342952Y-127613523D01*
X103390571Y-127565904D01*
X103485809Y-127518285D01*
X103723904Y-127518285D01*
X103819142Y-127565904D01*
X103866761Y-127613523D01*
X103914380Y-127708761D01*
X103914380Y-127946857D01*
X103866761Y-128042095D01*
X103819142Y-128089714D01*
X117419380Y-126531666D02*
X116943190Y-126865000D01*
X117419380Y-127103095D02*
X116419380Y-127103095D01*
X116419380Y-126722142D01*
X116467000Y-126626904D01*
X116514619Y-126579285D01*
X116609857Y-126531666D01*
X116752714Y-126531666D01*
X116847952Y-126579285D01*
X116895571Y-126626904D01*
X116943190Y-126722142D01*
X116943190Y-127103095D01*
X116752714Y-125674523D02*
X117419380Y-125674523D01*
X116371761Y-125912619D02*
X117086047Y-126150714D01*
X117086047Y-125531666D01*
X121483380Y-126531666D02*
X121007190Y-126865000D01*
X121483380Y-127103095D02*
X120483380Y-127103095D01*
X120483380Y-126722142D01*
X120531000Y-126626904D01*
X120578619Y-126579285D01*
X120673857Y-126531666D01*
X120816714Y-126531666D01*
X120911952Y-126579285D01*
X120959571Y-126626904D01*
X121007190Y-126722142D01*
X121007190Y-127103095D01*
X120483380Y-126198333D02*
X120483380Y-125579285D01*
X120864333Y-125912619D01*
X120864333Y-125769761D01*
X120911952Y-125674523D01*
X120959571Y-125626904D01*
X121054809Y-125579285D01*
X121292904Y-125579285D01*
X121388142Y-125626904D01*
X121435761Y-125674523D01*
X121483380Y-125769761D01*
X121483380Y-126055476D01*
X121435761Y-126150714D01*
X121388142Y-126198333D01*
X117673380Y-118657666D02*
X117197190Y-118991000D01*
X117673380Y-119229095D02*
X116673380Y-119229095D01*
X116673380Y-118848142D01*
X116721000Y-118752904D01*
X116768619Y-118705285D01*
X116863857Y-118657666D01*
X117006714Y-118657666D01*
X117101952Y-118705285D01*
X117149571Y-118752904D01*
X117197190Y-118848142D01*
X117197190Y-119229095D01*
X116768619Y-118276714D02*
X116721000Y-118229095D01*
X116673380Y-118133857D01*
X116673380Y-117895761D01*
X116721000Y-117800523D01*
X116768619Y-117752904D01*
X116863857Y-117705285D01*
X116959095Y-117705285D01*
X117101952Y-117752904D01*
X117673380Y-118324333D01*
X117673380Y-117705285D01*
X121610380Y-118657666D02*
X121134190Y-118991000D01*
X121610380Y-119229095D02*
X120610380Y-119229095D01*
X120610380Y-118848142D01*
X120658000Y-118752904D01*
X120705619Y-118705285D01*
X120800857Y-118657666D01*
X120943714Y-118657666D01*
X121038952Y-118705285D01*
X121086571Y-118752904D01*
X121134190Y-118848142D01*
X121134190Y-119229095D01*
X121610380Y-117705285D02*
X121610380Y-118276714D01*
X121610380Y-117991000D02*
X120610380Y-117991000D01*
X120753238Y-118086238D01*
X120848476Y-118181476D01*
X120896095Y-118276714D01*
X116622219Y-122380238D02*
X116574600Y-122475476D01*
X116479361Y-122570714D01*
X116336504Y-122713571D01*
X116288885Y-122808809D01*
X116288885Y-122904047D01*
X116526980Y-122856428D02*
X116479361Y-122951666D01*
X116384123Y-123046904D01*
X116193647Y-123094523D01*
X115860314Y-123094523D01*
X115669838Y-123046904D01*
X115574600Y-122951666D01*
X115526980Y-122856428D01*
X115526980Y-122665952D01*
X115574600Y-122570714D01*
X115669838Y-122475476D01*
X115860314Y-122427857D01*
X116193647Y-122427857D01*
X116384123Y-122475476D01*
X116479361Y-122570714D01*
X116526980Y-122665952D01*
X116526980Y-122856428D01*
X115622219Y-122046904D02*
X115574600Y-121999285D01*
X115526980Y-121904047D01*
X115526980Y-121665952D01*
X115574600Y-121570714D01*
X115622219Y-121523095D01*
X115717457Y-121475476D01*
X115812695Y-121475476D01*
X115955552Y-121523095D01*
X116526980Y-122094523D01*
X116526980Y-121475476D01*
X124664719Y-123348738D02*
X124617100Y-123443976D01*
X124521861Y-123539214D01*
X124379004Y-123682071D01*
X124331385Y-123777309D01*
X124331385Y-123872547D01*
X124569480Y-123824928D02*
X124521861Y-123920166D01*
X124426623Y-124015404D01*
X124236147Y-124063023D01*
X123902814Y-124063023D01*
X123712338Y-124015404D01*
X123617100Y-123920166D01*
X123569480Y-123824928D01*
X123569480Y-123634452D01*
X123617100Y-123539214D01*
X123712338Y-123443976D01*
X123902814Y-123396357D01*
X124236147Y-123396357D01*
X124426623Y-123443976D01*
X124521861Y-123539214D01*
X124569480Y-123634452D01*
X124569480Y-123824928D01*
X124569480Y-122443976D02*
X124569480Y-123015404D01*
X124569480Y-122729690D02*
X123569480Y-122729690D01*
X123712338Y-122824928D01*
X123807576Y-122920166D01*
X123855195Y-123015404D01*
X115814838Y-140406380D02*
X115481504Y-139930190D01*
X115243409Y-140406380D02*
X115243409Y-139406380D01*
X115624361Y-139406380D01*
X115719600Y-139454000D01*
X115767219Y-139501619D01*
X115814838Y-139596857D01*
X115814838Y-139739714D01*
X115767219Y-139834952D01*
X115719600Y-139882571D01*
X115624361Y-139930190D01*
X115243409Y-139930190D01*
X116243409Y-140025428D02*
X117005314Y-140025428D01*
X117386266Y-139406380D02*
X118052933Y-139406380D01*
X117624361Y-140406380D01*
X118576742Y-139834952D02*
X118481504Y-139787333D01*
X118433885Y-139739714D01*
X118386266Y-139644476D01*
X118386266Y-139596857D01*
X118433885Y-139501619D01*
X118481504Y-139454000D01*
X118576742Y-139406380D01*
X118767219Y-139406380D01*
X118862457Y-139454000D01*
X118910076Y-139501619D01*
X118957695Y-139596857D01*
X118957695Y-139644476D01*
X118910076Y-139739714D01*
X118862457Y-139787333D01*
X118767219Y-139834952D01*
X118576742Y-139834952D01*
X118481504Y-139882571D01*
X118433885Y-139930190D01*
X118386266Y-140025428D01*
X118386266Y-140215904D01*
X118433885Y-140311142D01*
X118481504Y-140358761D01*
X118576742Y-140406380D01*
X118767219Y-140406380D01*
X118862457Y-140358761D01*
X118910076Y-140311142D01*
X118957695Y-140215904D01*
X118957695Y-140025428D01*
X118910076Y-139930190D01*
X118862457Y-139882571D01*
X118767219Y-139834952D01*
X119386266Y-139882571D02*
X119719600Y-139882571D01*
X119862457Y-140406380D02*
X119386266Y-140406380D01*
X119386266Y-139406380D01*
X119862457Y-139406380D01*
X120195790Y-139406380D02*
X120814838Y-139406380D01*
X120481504Y-139787333D01*
X120624361Y-139787333D01*
X120719600Y-139834952D01*
X120767219Y-139882571D01*
X120814838Y-139977809D01*
X120814838Y-140215904D01*
X120767219Y-140311142D01*
X120719600Y-140358761D01*
X120624361Y-140406380D01*
X120338647Y-140406380D01*
X120243409Y-140358761D01*
X120195790Y-140311142D01*
X121243409Y-140311142D02*
X121291028Y-140358761D01*
X121243409Y-140406380D01*
X121195790Y-140358761D01*
X121243409Y-140311142D01*
X121243409Y-140406380D01*
X121624361Y-139406380D02*
X122243409Y-139406380D01*
X121910076Y-139787333D01*
X122052933Y-139787333D01*
X122148171Y-139834952D01*
X122195790Y-139882571D01*
X122243409Y-139977809D01*
X122243409Y-140215904D01*
X122195790Y-140311142D01*
X122148171Y-140358761D01*
X122052933Y-140406380D01*
X121767219Y-140406380D01*
X121671980Y-140358761D01*
X121624361Y-140311142D01*
M02*
