M48
; DRILL file {KiCad (5.1.9-0-10_14)} date Monday, January 18, 2021 at 10:51:15 AM
; FORMAT={-:-/ absolute / metric / decimal}
; #@! TF.CreationDate,2021-01-18T10:51:15+01:00
; #@! TF.GenerationSoftware,Kicad,Pcbnew,(5.1.9-0-10_14)
FMAT,2
METRIC
T1C0.400
T2C1.000
T3C0.991
T4C3.200
%
G90
G05
T1
X84.531Y-144.805
X85.039Y-143.561
X87.732Y-117.983
X89.205Y-142.265
X89.23Y-134.645
X89.586Y-146.075
X90.386Y-123.038
X91.11Y-140.843
X91.161Y-136.728
X92.151Y-126.416
X92.329Y-117.983
X92.634Y-133.833
X93.396Y-128.448
X94.234Y-106.68
X94.234Y-108.458
X94.234Y-109.982
X94.234Y-112.014
X95.25Y-139.7
X95.25Y-141.224
X95.25Y-142.748
X95.479Y-132.893
X95.504Y-105.918
X95.504Y-107.442
X95.504Y-109.22
X95.504Y-110.998
X95.504Y-113.03
X96.52Y-116.586
X96.52Y-119.761
X96.571Y-135.331
X96.774Y-112.014
X97.028Y-139.7
X97.028Y-141.224
X97.028Y-142.748
X97.282Y-114.046
X98.298Y-115.57
X98.806Y-139.7
X98.806Y-141.224
X98.806Y-142.748
X99.314Y-114.046
X100.076Y-121.158
X100.584Y-115.57
X101.6Y-114.046
X102.87Y-115.57
X103.886Y-114.046
X104.902Y-115.189
X105.105Y-129.083
X105.918Y-112.014
X106.172Y-114.046
X106.426Y-121.158
X107.442Y-105.918
X107.442Y-107.442
X107.442Y-109.22
X107.442Y-110.998
X107.442Y-113.03
X108.712Y-106.68
X108.712Y-108.204
X108.712Y-109.982
X108.712Y-112.014
X109.982Y-121.158
X110.947Y-116.027
X110.947Y-131.039
X113.284Y-124.841
X114.859Y-122.403
X116.18Y-133.553
X120.6Y-126.45
X120.726Y-118.669
T2
X85.725Y-107.798
X85.725Y-110.338
X85.725Y-112.878
X85.725Y-115.418
X85.725Y-117.958
X85.725Y-120.498
X85.725Y-123.038
X101.498Y-109.347
X116.18Y-142.951
X118.72Y-142.951
X119.507Y-130.175
X119.507Y-132.715
X119.507Y-135.255
X119.507Y-137.795
X121.26Y-142.951
X122.047Y-130.175
X122.047Y-132.715
X122.047Y-135.255
X122.047Y-137.795
T3
X89.383Y-115.418
X90.399Y-110.338
X91.415Y-115.418
T4
X120.65Y-108.128
T0
M30
