  0
SECTION
  2
HEADER
  9
$ANGBASE
  50
0.0
  9
$ANGDIR
  70
1
  9
$MEASUREMENT
  70
1
  0
ENDSEC
  0
SECTION
  2
TABLES
  0
TABLE
  2
LTYPE
  70
4
  0
LTYPE
  5
40F
  2
CONTINUOUS
  70
0
  3
Solid line
  72
65
  73
0
  40
0.0
  0
LTYPE
  5
410
  2
DASHDOT
 70
0
  3
Dash Dot ____ _ ____ _
 72
65
 73
4
 40
2.0
 49
1.25
 49
-0.25
 49
0.25
 49
-0.25
  0
LTYPE
  5
411
  2
DASHED
 70
0
  3
Dashed __ __ __ __ __
 72
65
 73
2
 40
0.75
 49
0.5
 49
-0.25
  0
LTYPE
  5
43B
  2
DOTTED
 70
0
  3
Dotted .  .  .  .
 72
65
 73
2
 40
0.2
 49
0.0
 49
-0.2
  0
ENDTAB
  0
TABLE
  2
STYLE
  70
4
  0
STYLE
  2
KICAD
  70
0
  40
0
  41
1
  42
1
  50
0
  71
0
  3
isocp.shx
  0
STYLE
  2
KICADB
  70
0
  40
0
  41
1
  42
1
  50
0
  71
0
  3
isocp.shx
  0
STYLE
  2
KICADI
  70
0
  40
0
  41
1
  42
1
  50
15
  71
0
  3
isocp.shx
  0
STYLE
  2
KICADBI
  70
0
  40
0
  41
1
  42
1
  50
15
  71
0
  3
isocp.shx
  0
ENDTAB
  0
TABLE
  2
LAYER
  70
1
  0
LAYER
  2
BLACK
  70
0
  62
7
  6
CONTINUOUS
  0
ENDTAB
  0
ENDSEC
  0
SECTION
  2
ENTITIES
0
ARC
8
BLACK
10
53.232
20
-155.968
40
0.5
50
-180
51
-90
0
LINE
8
BLACK
6
CONTINUOUS
10
91.8992
20
-106.668
11
53.232
21
-106.668
0
LINE
8
BLACK
6
CONTINUOUS
10
88.8606
20
-156.468
11
53.232
21
-156.468
0
LINE
8
BLACK
6
CONTINUOUS
10
115.332
20
-156.468
11
107.161
21
-156.468
0
ARC
8
BLACK
10
107.161
20
-155.968
40
0.5
50
-180
51
-90.0054
0
ARC
8
BLACK
10
115.332
20
-155.968
40
0.5
50
-90
51
-0
0
LINE
8
BLACK
6
CONTINUOUS
10
115.832
20
-155.968
11
115.832
21
-107.168
0
LINE
8
BLACK
6
CONTINUOUS
10
106.661
20
-149.968
11
89.3606
21
-149.968
0
LINE
8
BLACK
6
CONTINUOUS
10
52.732
20
-155.968
11
52.732
21
-107.168
0
ARC
8
BLACK
10
115.332
20
-107.168
40
0.5
50
-0
51
90
0
LINE
8
BLACK
6
CONTINUOUS
10
115.332
20
-106.668
11
110.693
21
-106.668
0
ARC
8
BLACK
10
110.693
20
-107.176
40
0.508165
50
90.0041
51
179.087
0
ARC
8
BLACK
10
93.2684
20
-112.569
40
0.863466
50
-181.4
51
-86.6006
0
LINE
8
BLACK
6
CONTINUOUS
10
110.185
20
-112.926
11
110.185
21
-107.168
0
LINE
8
BLACK
6
CONTINUOUS
10
106.661
20
-155.968
11
106.661
21
-149.968
0
ARC
8
BLACK
10
53.232
20
-107.168
40
0.5
50
90
51
180
0
ARC
8
BLACK
10
88.8606
20
-155.968
40
0.499953
50
-90.0054
51
-0
0
LINE
8
BLACK
6
CONTINUOUS
10
109.673
20
-113.431
11
93.3196
21
-113.43
0
LINE
8
BLACK
6
CONTINUOUS
10
89.3606
20
-149.968
11
89.3606
21
-155.968
0
ARC
8
BLACK
10
91.8992
20
-107.176
40
0.508
50
0.902315
51
89.9947
0
ARC
8
BLACK
10
109.673
20
-112.919
40
0.512044
50
-89.9983
51
-0.749726
0
LINE
8
BLACK
6
CONTINUOUS
10
92.4052
20
-112.547
11
92.4071
21
-107.168
0
LINE
8
BLACK
6
CONTINUOUS
10
58.3109
20
-119.591
11
58.7109
21
-119.991
0
LINE
8
BLACK
6
CONTINUOUS
10
58.7109
20
-119.591
11
58.3109
21
-119.991
0
LINE
8
BLACK
6
CONTINUOUS
10
58.3109
20
-126.684
11
58.7109
21
-127.084
0
LINE
8
BLACK
6
CONTINUOUS
10
58.7109
20
-126.684
11
58.3109
21
-127.084
0
LINE
8
BLACK
6
CONTINUOUS
10
59.871
20
-119.561
11
60.271
21
-119.961
0
LINE
8
BLACK
6
CONTINUOUS
10
60.271
20
-119.561
11
59.871
21
-119.961
0
LINE
8
BLACK
6
CONTINUOUS
10
62.919
20
-119.561
11
63.319
21
-119.961
0
LINE
8
BLACK
6
CONTINUOUS
10
63.319
20
-119.561
11
62.919
21
-119.961
0
LINE
8
BLACK
6
CONTINUOUS
10
64.57
20
-117.021
11
64.97
21
-117.421
0
LINE
8
BLACK
6
CONTINUOUS
10
64.97
20
-117.021
11
64.57
21
-117.421
0
LINE
8
BLACK
6
CONTINUOUS
10
65.8146
20
-136.427
11
66.2146
21
-136.827
0
LINE
8
BLACK
6
CONTINUOUS
10
66.2146
20
-136.427
11
65.8146
21
-136.827
0
LINE
8
BLACK
6
CONTINUOUS
10
65.9203
20
-152.268
11
66.3203
21
-152.668
0
LINE
8
BLACK
6
CONTINUOUS
10
66.3203
20
-152.268
11
65.9203
21
-152.668
0
LINE
8
BLACK
6
CONTINUOUS
10
68.126
20
-114.481
11
68.526
21
-114.881
0
LINE
8
BLACK
6
CONTINUOUS
10
68.526
20
-114.481
11
68.126
21
-114.881
0
LINE
8
BLACK
6
CONTINUOUS
10
68.126
20
-115.751
11
68.526
21
-116.151
0
LINE
8
BLACK
6
CONTINUOUS
10
68.526
20
-115.751
11
68.126
21
-116.151
0
LINE
8
BLACK
6
CONTINUOUS
10
68.7435
20
-136.434
11
69.1435
21
-136.834
0
LINE
8
BLACK
6
CONTINUOUS
10
69.1435
20
-136.434
11
68.7435
21
-136.834
0
LINE
8
BLACK
6
CONTINUOUS
10
68.888
20
-132.769
11
69.288
21
-133.169
0
LINE
8
BLACK
6
CONTINUOUS
10
69.288
20
-132.769
11
68.888
21
-133.169
0
LINE
8
BLACK
6
CONTINUOUS
10
68.888
20
-133.912
11
69.288
21
-134.312
0
LINE
8
BLACK
6
CONTINUOUS
10
69.288
20
-133.912
11
68.888
21
-134.312
0
LINE
8
BLACK
6
CONTINUOUS
10
68.888
20
-135.055
11
69.288
21
-135.455
0
LINE
8
BLACK
6
CONTINUOUS
10
69.288
20
-135.055
11
68.888
21
-135.455
0
LINE
8
BLACK
6
CONTINUOUS
10
70.3612
20
-128.172
11
70.7612
21
-128.572
0
LINE
8
BLACK
6
CONTINUOUS
10
70.7612
20
-128.172
11
70.3612
21
-128.572
0
LINE
8
BLACK
6
CONTINUOUS
10
70.539
20
-140.338
11
70.939
21
-140.738
0
LINE
8
BLACK
6
CONTINUOUS
10
70.939
20
-140.338
11
70.539
21
-140.738
0
LINE
8
BLACK
6
CONTINUOUS
10
71.301
20
-112.246
11
71.701
21
-112.646
0
LINE
8
BLACK
6
CONTINUOUS
10
71.701
20
-112.246
11
71.301
21
-112.646
0
LINE
8
BLACK
6
CONTINUOUS
10
72.3678
20
-141.481
11
72.7678
21
-141.881
0
LINE
8
BLACK
6
CONTINUOUS
10
72.7678
20
-141.481
11
72.3678
21
-141.881
0
LINE
8
BLACK
6
CONTINUOUS
10
72.444
20
-145.469
11
72.844
21
-145.869
0
LINE
8
BLACK
6
CONTINUOUS
10
72.844
20
-145.469
11
72.444
21
-145.869
0
LINE
8
BLACK
6
CONTINUOUS
10
73.714
20
-115.751
11
74.114
21
-116.151
0
LINE
8
BLACK
6
CONTINUOUS
10
74.114
20
-115.751
11
73.714
21
-116.151
0
LINE
8
BLACK
6
CONTINUOUS
10
73.714
20
-117.656
11
74.114
21
-118.056
0
LINE
8
BLACK
6
CONTINUOUS
10
74.114
20
-117.656
11
73.714
21
-118.056
0
LINE
8
BLACK
6
CONTINUOUS
10
74.6963
20
-121.331
11
75.0963
21
-121.731
0
LINE
8
BLACK
6
CONTINUOUS
10
75.0963
20
-121.331
11
74.6963
21
-121.731
0
LINE
8
BLACK
6
CONTINUOUS
10
74.6963
20
-122.431
11
75.0963
21
-122.831
0
LINE
8
BLACK
6
CONTINUOUS
10
75.0963
20
-122.431
11
74.6963
21
-122.831
0
LINE
8
BLACK
6
CONTINUOUS
10
74.6963
20
-123.531
11
75.0963
21
-123.931
0
LINE
8
BLACK
6
CONTINUOUS
10
75.0963
20
-123.531
11
74.6963
21
-123.931
0
LINE
8
BLACK
6
CONTINUOUS
10
75.6444
20
-108.258
11
76.0444
21
-108.658
0
LINE
8
BLACK
6
CONTINUOUS
10
76.0444
20
-108.258
11
75.6444
21
-108.658
0
LINE
8
BLACK
6
CONTINUOUS
10
75.6444
20
-110.099
11
76.0444
21
-110.499
0
LINE
8
BLACK
6
CONTINUOUS
10
76.0444
20
-110.099
11
75.6444
21
-110.499
0
LINE
8
BLACK
6
CONTINUOUS
10
76.0254
20
-114.227
11
76.4254
21
-114.627
0
LINE
8
BLACK
6
CONTINUOUS
10
76.4254
20
-114.227
11
76.0254
21
-114.627
0
LINE
8
BLACK
6
CONTINUOUS
10
77.2954
20
-108.258
11
77.6954
21
-108.658
0
LINE
8
BLACK
6
CONTINUOUS
10
77.6954
20
-108.258
11
77.2954
21
-108.658
0
LINE
8
BLACK
6
CONTINUOUS
10
77.7272
20
-144.898
11
78.1272
21
-145.298
0
LINE
8
BLACK
6
CONTINUOUS
10
78.1272
20
-144.898
11
77.7272
21
-145.298
0
LINE
8
BLACK
6
CONTINUOUS
10
77.7272
20
-148.898
11
78.1272
21
-149.298
0
LINE
8
BLACK
6
CONTINUOUS
10
78.1272
20
-148.898
11
77.7272
21
-149.298
0
LINE
8
BLACK
6
CONTINUOUS
10
78.921
20
-124.616
11
79.321
21
-125.016
0
LINE
8
BLACK
6
CONTINUOUS
10
79.321
20
-124.616
11
78.921
21
-125.016
0
LINE
8
BLACK
6
CONTINUOUS
10
78.921
20
-131.372
11
79.321
21
-131.772
0
LINE
8
BLACK
6
CONTINUOUS
10
79.321
20
-131.372
11
78.921
21
-131.772
0
LINE
8
BLACK
6
CONTINUOUS
10
78.921
20
-132.769
11
79.321
21
-133.169
0
LINE
8
BLACK
6
CONTINUOUS
10
79.321
20
-132.769
11
78.921
21
-133.169
0
LINE
8
BLACK
6
CONTINUOUS
10
78.921
20
-133.912
11
79.321
21
-134.312
0
LINE
8
BLACK
6
CONTINUOUS
10
79.321
20
-133.912
11
78.921
21
-134.312
0
LINE
8
BLACK
6
CONTINUOUS
10
78.921
20
-135.055
11
79.321
21
-135.455
0
LINE
8
BLACK
6
CONTINUOUS
10
79.321
20
-135.055
11
78.921
21
-135.455
0
LINE
8
BLACK
6
CONTINUOUS
10
79.1369
20
-108.258
11
79.5369
21
-108.658
0
LINE
8
BLACK
6
CONTINUOUS
10
79.5369
20
-108.258
11
79.1369
21
-108.658
0
LINE
8
BLACK
6
CONTINUOUS
10
79.302
20
-144.326
11
79.702
21
-144.726
0
LINE
8
BLACK
6
CONTINUOUS
10
79.702
20
-144.326
11
79.302
21
-144.726
0
LINE
8
BLACK
6
CONTINUOUS
10
79.302
20
-145.85
11
79.702
21
-146.25
0
LINE
8
BLACK
6
CONTINUOUS
10
79.702
20
-145.85
11
79.302
21
-146.25
0
LINE
8
BLACK
6
CONTINUOUS
10
79.81
20
-120.704
11
80.21
21
-121.104
0
LINE
8
BLACK
6
CONTINUOUS
10
80.21
20
-120.704
11
79.81
21
-121.104
0
LINE
8
BLACK
6
CONTINUOUS
10
81.0419
20
-108.258
11
81.4419
21
-108.658
0
LINE
8
BLACK
6
CONTINUOUS
10
81.4419
20
-108.258
11
81.0419
21
-108.658
0
LINE
8
BLACK
6
CONTINUOUS
10
81.0419
20
-110.036
11
81.4419
21
-110.436
0
LINE
8
BLACK
6
CONTINUOUS
10
81.4419
20
-110.036
11
81.0419
21
-110.436
0
LINE
8
BLACK
6
CONTINUOUS
10
81.08
20
-141.659
11
81.48
21
-142.059
0
LINE
8
BLACK
6
CONTINUOUS
10
81.48
20
-141.659
11
81.08
21
-142.059
0
LINE
8
BLACK
6
CONTINUOUS
10
82.5786
20
-143.081
11
82.9786
21
-143.481
0
LINE
8
BLACK
6
CONTINUOUS
10
82.9786
20
-143.081
11
82.5786
21
-143.481
0
LINE
8
BLACK
6
CONTINUOUS
10
83.112
20
-147.12
11
83.512
21
-147.52
0
LINE
8
BLACK
6
CONTINUOUS
10
83.512
20
-147.12
11
83.112
21
-147.52
0
LINE
8
BLACK
6
CONTINUOUS
10
84.001
20
-107.242
11
84.401
21
-107.642
0
LINE
8
BLACK
6
CONTINUOUS
10
84.401
20
-107.242
11
84.001
21
-107.642
0
LINE
8
BLACK
6
CONTINUOUS
10
84.001
20
-108.766
11
84.401
21
-109.166
0
LINE
8
BLACK
6
CONTINUOUS
10
84.401
20
-108.766
11
84.001
21
-109.166
0
LINE
8
BLACK
6
CONTINUOUS
10
84.001
20
-110.29
11
84.401
21
-110.69
0
LINE
8
BLACK
6
CONTINUOUS
10
84.401
20
-110.29
11
84.001
21
-110.69
0
LINE
8
BLACK
6
CONTINUOUS
10
84.001
20
-111.687
11
84.401
21
-112.087
0
LINE
8
BLACK
6
CONTINUOUS
10
84.401
20
-111.687
11
84.001
21
-112.087
0
LINE
8
BLACK
6
CONTINUOUS
10
84.4582
20
-142.954
11
84.8582
21
-143.354
0
LINE
8
BLACK
6
CONTINUOUS
10
84.8582
20
-142.954
11
84.4582
21
-143.354
0
LINE
8
BLACK
6
CONTINUOUS
10
84.7963
20
-121.331
11
85.1963
21
-121.731
0
LINE
8
BLACK
6
CONTINUOUS
10
85.1963
20
-121.331
11
84.7963
21
-121.731
0
LINE
8
BLACK
6
CONTINUOUS
10
84.7963
20
-122.431
11
85.1963
21
-122.831
0
LINE
8
BLACK
6
CONTINUOUS
10
85.1963
20
-122.431
11
84.7963
21
-122.831
0
LINE
8
BLACK
6
CONTINUOUS
10
84.7963
20
-123.531
11
85.1963
21
-123.931
0
LINE
8
BLACK
6
CONTINUOUS
10
85.1963
20
-123.531
11
84.7963
21
-123.931
0
LINE
8
BLACK
6
CONTINUOUS
10
85.144
20
-117.148
11
85.544
21
-117.548
0
LINE
8
BLACK
6
CONTINUOUS
10
85.544
20
-117.148
11
85.144
21
-117.548
0
LINE
8
BLACK
6
CONTINUOUS
10
85.398
20
-111.687
11
85.798
21
-112.087
0
LINE
8
BLACK
6
CONTINUOUS
10
85.798
20
-111.687
11
85.398
21
-112.087
0
LINE
8
BLACK
6
CONTINUOUS
10
85.652
20
-141.837
11
86.052
21
-142.237
0
LINE
8
BLACK
6
CONTINUOUS
10
86.052
20
-141.837
11
85.652
21
-142.237
0
LINE
8
BLACK
6
CONTINUOUS
10
86.287
20
-136.96
11
86.687
21
-137.36
0
LINE
8
BLACK
6
CONTINUOUS
10
86.687
20
-136.96
11
86.287
21
-137.36
0
LINE
8
BLACK
6
CONTINUOUS
10
86.795
20
-111.687
11
87.195
21
-112.087
0
LINE
8
BLACK
6
CONTINUOUS
10
87.195
20
-111.687
11
86.795
21
-112.087
0
LINE
8
BLACK
6
CONTINUOUS
10
87.176
20
-133.15
11
87.576
21
-133.55
0
LINE
8
BLACK
6
CONTINUOUS
10
87.576
20
-133.15
11
87.176
21
-133.55
0
LINE
8
BLACK
6
CONTINUOUS
10
87.176
20
-139.5
11
87.576
21
-139.9
0
LINE
8
BLACK
6
CONTINUOUS
10
87.576
20
-139.5
11
87.176
21
-139.9
0
LINE
8
BLACK
6
CONTINUOUS
10
87.43
20
-148.39
11
87.83
21
-148.79
0
LINE
8
BLACK
6
CONTINUOUS
10
87.83
20
-148.39
11
87.43
21
-148.79
0
LINE
8
BLACK
6
CONTINUOUS
10
88.065
20
-111.687
11
88.465
21
-112.087
0
LINE
8
BLACK
6
CONTINUOUS
10
88.465
20
-111.687
11
88.065
21
-112.087
0
LINE
8
BLACK
6
CONTINUOUS
10
88.192
20
-126.165
11
88.592
21
-126.565
0
LINE
8
BLACK
6
CONTINUOUS
10
88.592
20
-126.165
11
88.192
21
-126.565
0
LINE
8
BLACK
6
CONTINUOUS
10
88.827
20
-112.576
11
89.227
21
-112.976
0
LINE
8
BLACK
6
CONTINUOUS
10
89.227
20
-112.576
11
88.827
21
-112.976
0
LINE
8
BLACK
6
CONTINUOUS
10
89.843
20
-113.719
11
90.243
21
-114.119
0
LINE
8
BLACK
6
CONTINUOUS
10
90.243
20
-113.719
11
89.843
21
-114.119
0
LINE
8
BLACK
6
CONTINUOUS
10
90.351
20
-111.687
11
90.751
21
-112.087
0
LINE
8
BLACK
6
CONTINUOUS
10
90.751
20
-111.687
11
90.351
21
-112.087
0
LINE
8
BLACK
6
CONTINUOUS
10
90.859
20
-114.735
11
91.259
21
-115.135
0
LINE
8
BLACK
6
CONTINUOUS
10
91.259
20
-114.735
11
90.859
21
-115.135
0
LINE
8
BLACK
6
CONTINUOUS
10
91.367
20
-112.703
11
91.767
21
-113.103
0
LINE
8
BLACK
6
CONTINUOUS
10
91.767
20
-112.703
11
91.367
21
-113.103
0
LINE
8
BLACK
6
CONTINUOUS
10
91.494
20
-111.687
11
91.894
21
-112.087
0
LINE
8
BLACK
6
CONTINUOUS
10
91.894
20
-111.687
11
91.494
21
-112.087
0
LINE
8
BLACK
6
CONTINUOUS
10
92.002
20
-115.878
11
92.402
21
-116.278
0
LINE
8
BLACK
6
CONTINUOUS
10
92.402
20
-115.878
11
92.002
21
-116.278
0
LINE
8
BLACK
6
CONTINUOUS
10
92.002
20
-117.148
11
92.402
21
-117.548
0
LINE
8
BLACK
6
CONTINUOUS
10
92.402
20
-117.148
11
92.002
21
-117.548
0
LINE
8
BLACK
6
CONTINUOUS
10
92.51
20
-113.846
11
92.91
21
-114.246
0
LINE
8
BLACK
6
CONTINUOUS
10
92.91
20
-113.846
11
92.51
21
-114.246
0
LINE
8
BLACK
6
CONTINUOUS
10
92.51
20
-118.545
11
92.91
21
-118.945
0
LINE
8
BLACK
6
CONTINUOUS
10
92.91
20
-118.545
11
92.51
21
-118.945
0
LINE
8
BLACK
6
CONTINUOUS
10
93.399
20
-114.735
11
93.799
21
-115.135
0
LINE
8
BLACK
6
CONTINUOUS
10
93.799
20
-114.735
11
93.399
21
-115.135
0
LINE
8
BLACK
6
CONTINUOUS
10
93.78
20
-140.262
11
94.18
21
-140.662
0
LINE
8
BLACK
6
CONTINUOUS
10
94.18
20
-140.262
11
93.78
21
-140.662
0
LINE
8
BLACK
6
CONTINUOUS
10
94.161
20
-138.23
11
94.561
21
-138.63
0
LINE
8
BLACK
6
CONTINUOUS
10
94.561
20
-138.23
11
94.161
21
-138.63
0
LINE
8
BLACK
6
CONTINUOUS
10
94.288
20
-115.878
11
94.688
21
-116.278
0
LINE
8
BLACK
6
CONTINUOUS
10
94.688
20
-115.878
11
94.288
21
-116.278
0
LINE
8
BLACK
6
CONTINUOUS
10
94.288
20
-118.545
11
94.688
21
-118.945
0
LINE
8
BLACK
6
CONTINUOUS
10
94.688
20
-118.545
11
94.288
21
-118.945
0
LINE
8
BLACK
6
CONTINUOUS
10
94.415
20
-123.625
11
94.815
21
-124.025
0
LINE
8
BLACK
6
CONTINUOUS
10
94.815
20
-123.625
11
94.415
21
-124.025
0
LINE
8
BLACK
6
CONTINUOUS
10
94.669
20
-117.148
11
95.069
21
-117.548
0
LINE
8
BLACK
6
CONTINUOUS
10
95.069
20
-117.148
11
94.669
21
-117.548
0
LINE
8
BLACK
6
CONTINUOUS
10
94.678
20
-113.973
11
95.078
21
-114.373
0
LINE
8
BLACK
6
CONTINUOUS
10
95.078
20
-113.973
11
94.678
21
-114.373
0
LINE
8
BLACK
6
CONTINUOUS
10
96.378
20
-113.973
11
96.778
21
-114.373
0
LINE
8
BLACK
6
CONTINUOUS
10
96.778
20
-113.973
11
96.378
21
-114.373
0
LINE
8
BLACK
6
CONTINUOUS
10
96.955
20
-139.525
11
97.355
21
-139.925
0
LINE
8
BLACK
6
CONTINUOUS
10
97.355
20
-139.525
11
96.955
21
-139.925
0
LINE
8
BLACK
6
CONTINUOUS
10
96.955
20
-141.075
11
97.355
21
-141.475
0
LINE
8
BLACK
6
CONTINUOUS
10
97.355
20
-141.075
11
96.955
21
-141.475
0
LINE
8
BLACK
6
CONTINUOUS
10
96.955
20
-142.599
11
97.355
21
-142.999
0
LINE
8
BLACK
6
CONTINUOUS
10
97.355
20
-142.599
11
96.955
21
-142.999
0
LINE
8
BLACK
6
CONTINUOUS
10
97.844
20
-122.228
11
98.244
21
-122.628
0
LINE
8
BLACK
6
CONTINUOUS
10
98.244
20
-122.228
11
97.844
21
-122.628
0
LINE
8
BLACK
6
CONTINUOUS
10
98.078
20
-113.973
11
98.478
21
-114.373
0
LINE
8
BLACK
6
CONTINUOUS
10
98.478
20
-113.973
11
98.078
21
-114.373
0
LINE
8
BLACK
6
CONTINUOUS
10
98.479
20
-139.551
11
98.879
21
-139.951
0
LINE
8
BLACK
6
CONTINUOUS
10
98.879
20
-139.551
11
98.479
21
-139.951
0
LINE
8
BLACK
6
CONTINUOUS
10
98.479
20
-141.1
11
98.879
21
-141.5
0
LINE
8
BLACK
6
CONTINUOUS
10
98.879
20
-141.1
11
98.479
21
-141.5
0
LINE
8
BLACK
6
CONTINUOUS
10
98.479
20
-142.624
11
98.879
21
-143.024
0
LINE
8
BLACK
6
CONTINUOUS
10
98.879
20
-142.624
11
98.479
21
-143.024
0
LINE
8
BLACK
6
CONTINUOUS
10
99.778
20
-113.973
11
100.178
21
-114.373
0
LINE
8
BLACK
6
CONTINUOUS
10
100.178
20
-113.973
11
99.778
21
-114.373
0
LINE
8
BLACK
6
CONTINUOUS
10
99.9776
20
-139.551
11
100.378
21
-139.951
0
LINE
8
BLACK
6
CONTINUOUS
10
100.378
20
-139.551
11
99.9776
21
-139.951
0
LINE
8
BLACK
6
CONTINUOUS
10
99.9776
20
-141.1
11
100.378
21
-141.5
0
LINE
8
BLACK
6
CONTINUOUS
10
100.378
20
-141.1
11
99.9776
21
-141.5
0
LINE
8
BLACK
6
CONTINUOUS
10
99.9776
20
-142.624
11
100.378
21
-143.024
0
LINE
8
BLACK
6
CONTINUOUS
10
100.378
20
-142.624
11
99.9776
21
-143.024
0
LINE
8
BLACK
6
CONTINUOUS
10
101.4
20
-137.595
11
101.8
21
-137.995
0
LINE
8
BLACK
6
CONTINUOUS
10
101.8
20
-137.595
11
101.4
21
-137.995
0
LINE
8
BLACK
6
CONTINUOUS
10
101.478
20
-113.973
11
101.878
21
-114.373
0
LINE
8
BLACK
6
CONTINUOUS
10
101.878
20
-113.973
11
101.478
21
-114.373
0
LINE
8
BLACK
6
CONTINUOUS
10
103.178
20
-113.973
11
103.578
21
-114.373
0
LINE
8
BLACK
6
CONTINUOUS
10
103.578
20
-113.973
11
103.178
21
-114.373
0
LINE
8
BLACK
6
CONTINUOUS
10
103.534
20
-133.175
11
103.934
21
-133.575
0
LINE
8
BLACK
6
CONTINUOUS
10
103.934
20
-133.175
11
103.534
21
-133.575
0
LINE
8
BLACK
6
CONTINUOUS
10
104.829
20
-136.96
11
105.229
21
-137.36
0
LINE
8
BLACK
6
CONTINUOUS
10
105.229
20
-136.96
11
104.829
21
-137.36
0
LINE
8
BLACK
6
CONTINUOUS
10
104.838
20
-113.973
11
105.238
21
-114.373
0
LINE
8
BLACK
6
CONTINUOUS
10
105.238
20
-113.973
11
104.838
21
-114.373
0
LINE
8
BLACK
6
CONTINUOUS
10
105.007
20
-147.171
11
105.407
21
-147.571
0
LINE
8
BLACK
6
CONTINUOUS
10
105.407
20
-147.171
11
105.007
21
-147.571
0
LINE
8
BLACK
6
CONTINUOUS
10
105.108
20
-148.441
11
105.508
21
-148.841
0
LINE
8
BLACK
6
CONTINUOUS
10
105.508
20
-148.441
11
105.108
21
-148.841
0
LINE
8
BLACK
6
CONTINUOUS
10
106.538
20
-113.973
11
106.938
21
-114.373
0
LINE
8
BLACK
6
CONTINUOUS
10
106.938
20
-113.973
11
106.538
21
-114.373
0
LINE
8
BLACK
6
CONTINUOUS
10
108.238
20
-113.973
11
108.638
21
-114.373
0
LINE
8
BLACK
6
CONTINUOUS
10
108.638
20
-113.973
11
108.238
21
-114.373
0
LINE
8
BLACK
6
CONTINUOUS
10
109.071
20
-148.644
11
109.471
21
-149.044
0
LINE
8
BLACK
6
CONTINUOUS
10
109.471
20
-148.644
11
109.071
21
-149.044
0
LINE
8
BLACK
6
CONTINUOUS
10
109.938
20
-113.973
11
110.338
21
-114.373
0
LINE
8
BLACK
6
CONTINUOUS
10
110.338
20
-113.973
11
109.938
21
-114.373
0
LINE
8
BLACK
6
CONTINUOUS
10
110.925
20
-145.85
11
111.325
21
-146.25
0
LINE
8
BLACK
6
CONTINUOUS
10
111.325
20
-145.85
11
110.925
21
-146.25
0
LINE
8
BLACK
6
CONTINUOUS
10
111.638
20
-113.973
11
112.038
21
-114.373
0
LINE
8
BLACK
6
CONTINUOUS
10
112.038
20
-113.973
11
111.638
21
-114.373
0
LINE
8
BLACK
6
CONTINUOUS
10
112.83
20
-133.379
11
113.23
21
-133.779
0
LINE
8
BLACK
6
CONTINUOUS
10
113.23
20
-133.379
11
112.83
21
-133.779
0
LINE
8
BLACK
6
CONTINUOUS
10
113.338
20
-113.973
11
113.738
21
-114.373
0
LINE
8
BLACK
6
CONTINUOUS
10
113.738
20
-113.973
11
113.338
21
-114.373
0
LINE
8
BLACK
6
CONTINUOUS
10
114.862
20
-113.973
11
115.262
21
-114.373
0
LINE
8
BLACK
6
CONTINUOUS
10
115.262
20
-113.973
11
114.862
21
-114.373
0
CIRCLE
8
BLACK
10
57.0782
20
-118.743
40
0.325
0
LINE
8
BLACK
6
CONTINUOUS
10
57.1782
20
-118.418
11
56.9782
21
-118.418
0
LINE
8
BLACK
6
CONTINUOUS
10
57.1782
20
-119.068
11
56.9782
21
-119.068
0
ARC
8
BLACK
10
56.9782
20
-118.743
40
0.325
50
450
51
630
0
ARC
8
BLACK
10
57.1782
20
-118.743
40
0.325
50
270
51
450
0
CIRCLE
8
BLACK
10
57.0782
20
-123.593
40
0.325
0
LINE
8
BLACK
6
CONTINUOUS
10
57.1782
20
-123.268
11
56.9782
21
-123.268
0
LINE
8
BLACK
6
CONTINUOUS
10
57.1782
20
-123.918
11
56.9782
21
-123.918
0
ARC
8
BLACK
10
56.9782
20
-123.593
40
0.325
50
450
51
630
0
ARC
8
BLACK
10
57.1782
20
-123.593
40
0.325
50
270
51
450
0
LINE
8
BLACK
6
CONTINUOUS
10
54.1782
20
-117.153
11
54.1782
21
-117.983
0
LINE
8
BLACK
6
CONTINUOUS
10
53.7632
20
-117.568
11
54.5932
21
-117.568
0
LINE
8
BLACK
6
CONTINUOUS
10
54.5132
20
-117.153
11
53.8432
21
-117.153
0
LINE
8
BLACK
6
CONTINUOUS
10
54.5132
20
-117.983
11
53.8432
21
-117.983
0
ARC
8
BLACK
10
53.8432
20
-117.568
40
0.415
50
450
51
630
0
ARC
8
BLACK
10
54.5132
20
-117.568
40
0.415
50
270
51
450
0
LINE
8
BLACK
6
CONTINUOUS
10
54.1782
20
-124.353
11
54.1782
21
-125.183
0
LINE
8
BLACK
6
CONTINUOUS
10
53.7632
20
-124.768
11
54.5932
21
-124.768
0
LINE
8
BLACK
6
CONTINUOUS
10
54.5132
20
-124.353
11
53.8432
21
-124.353
0
LINE
8
BLACK
6
CONTINUOUS
10
54.5132
20
-125.183
11
53.8432
21
-125.183
0
ARC
8
BLACK
10
53.8432
20
-124.768
40
0.415
50
450
51
630
0
ARC
8
BLACK
10
54.5132
20
-124.768
40
0.415
50
270
51
450
0
LINE
8
BLACK
6
CONTINUOUS
10
59.6872
20
-136.371
11
59.6872
21
-135.742
0
LINE
8
BLACK
6
CONTINUOUS
10
59.6872
20
-135.742
11
59.0578
21
-135.742
0
LINE
8
BLACK
6
CONTINUOUS
10
59.0578
20
-135.742
11
59.0578
21
-136.371
0
LINE
8
BLACK
6
CONTINUOUS
10
59.0578
20
-136.371
11
59.6872
21
-136.371
0
LINE
8
BLACK
6
CONTINUOUS
10
59.6872
20
-138.411
11
59.6872
21
-137.782
0
LINE
8
BLACK
6
CONTINUOUS
10
59.6872
20
-137.782
11
59.0578
21
-137.782
0
LINE
8
BLACK
6
CONTINUOUS
10
59.0578
20
-137.782
11
59.0578
21
-138.411
0
LINE
8
BLACK
6
CONTINUOUS
10
59.0578
20
-138.411
11
59.6872
21
-138.411
0
LINE
8
BLACK
6
CONTINUOUS
10
59.6872
20
-140.451
11
59.6872
21
-139.822
0
LINE
8
BLACK
6
CONTINUOUS
10
59.6872
20
-139.822
11
59.0578
21
-139.822
0
LINE
8
BLACK
6
CONTINUOUS
10
59.0578
20
-139.822
11
59.0578
21
-140.451
0
LINE
8
BLACK
6
CONTINUOUS
10
59.0578
20
-140.451
11
59.6872
21
-140.451
0
LINE
8
BLACK
6
CONTINUOUS
10
59.6872
20
-142.491
11
59.6872
21
-141.862
0
LINE
8
BLACK
6
CONTINUOUS
10
59.6872
20
-141.862
11
59.0578
21
-141.862
0
LINE
8
BLACK
6
CONTINUOUS
10
59.0578
20
-141.862
11
59.0578
21
-142.491
0
LINE
8
BLACK
6
CONTINUOUS
10
59.0578
20
-142.491
11
59.6872
21
-142.491
0
LINE
8
BLACK
6
CONTINUOUS
10
61.4672
20
-135.351
11
61.4672
21
-134.722
0
LINE
8
BLACK
6
CONTINUOUS
10
61.4672
20
-134.722
11
60.8378
21
-134.722
0
LINE
8
BLACK
6
CONTINUOUS
10
60.8378
20
-134.722
11
60.8378
21
-135.351
0
LINE
8
BLACK
6
CONTINUOUS
10
60.8378
20
-135.351
11
61.4672
21
-135.351
0
LINE
8
BLACK
6
CONTINUOUS
10
61.4672
20
-137.391
11
61.4672
21
-136.762
0
LINE
8
BLACK
6
CONTINUOUS
10
61.4672
20
-136.762
11
60.8378
21
-136.762
0
LINE
8
BLACK
6
CONTINUOUS
10
60.8378
20
-136.762
11
60.8378
21
-137.391
0
LINE
8
BLACK
6
CONTINUOUS
10
60.8378
20
-137.391
11
61.4672
21
-137.391
0
LINE
8
BLACK
6
CONTINUOUS
10
61.4672
20
-139.431
11
61.4672
21
-138.802
0
LINE
8
BLACK
6
CONTINUOUS
10
61.4672
20
-138.802
11
60.8378
21
-138.802
0
LINE
8
BLACK
6
CONTINUOUS
10
60.8378
20
-138.802
11
60.8378
21
-139.431
0
LINE
8
BLACK
6
CONTINUOUS
10
60.8378
20
-139.431
11
61.4672
21
-139.431
0
LINE
8
BLACK
6
CONTINUOUS
10
61.4672
20
-141.471
11
61.4672
21
-140.842
0
LINE
8
BLACK
6
CONTINUOUS
10
61.4672
20
-140.842
11
60.8378
21
-140.842
0
LINE
8
BLACK
6
CONTINUOUS
10
60.8378
20
-140.842
11
60.8378
21
-141.471
0
LINE
8
BLACK
6
CONTINUOUS
10
60.8378
20
-141.471
11
61.4672
21
-141.471
0
LINE
8
BLACK
6
CONTINUOUS
10
66.2772
20
-132.061
11
66.2772
21
-131.432
0
LINE
8
BLACK
6
CONTINUOUS
10
66.2772
20
-131.432
11
65.6478
21
-131.432
0
LINE
8
BLACK
6
CONTINUOUS
10
65.6478
20
-131.432
11
65.6478
21
-132.061
0
LINE
8
BLACK
6
CONTINUOUS
10
65.6478
20
-132.061
11
66.2772
21
-132.061
0
LINE
8
BLACK
6
CONTINUOUS
10
66.2772
20
-134.351
11
66.2772
21
-133.722
0
LINE
8
BLACK
6
CONTINUOUS
10
66.2772
20
-133.722
11
65.6478
21
-133.722
0
LINE
8
BLACK
6
CONTINUOUS
10
65.6478
20
-133.722
11
65.6478
21
-134.351
0
LINE
8
BLACK
6
CONTINUOUS
10
65.6478
20
-134.351
11
66.2772
21
-134.351
0
LINE
8
BLACK
6
CONTINUOUS
10
66.2772
20
-143.491
11
66.2772
21
-142.862
0
LINE
8
BLACK
6
CONTINUOUS
10
66.2772
20
-142.862
11
65.6478
21
-142.862
0
LINE
8
BLACK
6
CONTINUOUS
10
65.6478
20
-142.862
11
65.6478
21
-143.491
0
LINE
8
BLACK
6
CONTINUOUS
10
65.6478
20
-143.491
11
66.2772
21
-143.491
0
LINE
8
BLACK
6
CONTINUOUS
10
66.2772
20
-145.781
11
66.2772
21
-145.152
0
LINE
8
BLACK
6
CONTINUOUS
10
66.2772
20
-145.152
11
65.6478
21
-145.152
0
LINE
8
BLACK
6
CONTINUOUS
10
65.6478
20
-145.152
11
65.6478
21
-145.781
0
LINE
8
BLACK
6
CONTINUOUS
10
65.6478
20
-145.781
11
66.2772
21
-145.781
0
LINE
8
BLACK
6
CONTINUOUS
10
60.706
20
-112.26
11
61.206
21
-111.76
0
LINE
8
BLACK
6
CONTINUOUS
10
61.206
20
-111.76
11
60.706
21
-111.26
0
LINE
8
BLACK
6
CONTINUOUS
10
60.706
20
-111.26
11
60.206
21
-111.76
0
LINE
8
BLACK
6
CONTINUOUS
10
60.206
20
-111.76
11
60.706
21
-112.26
0
LINE
8
BLACK
6
CONTINUOUS
10
60.706
20
-114.8
11
61.206
21
-114.3
0
LINE
8
BLACK
6
CONTINUOUS
10
61.206
20
-114.3
11
60.706
21
-113.8
0
LINE
8
BLACK
6
CONTINUOUS
10
60.706
20
-113.8
11
60.206
21
-114.3
0
LINE
8
BLACK
6
CONTINUOUS
10
60.206
20
-114.3
11
60.706
21
-114.8
0
LINE
8
BLACK
6
CONTINUOUS
10
63.246
20
-112.26
11
63.746
21
-111.76
0
LINE
8
BLACK
6
CONTINUOUS
10
63.746
20
-111.76
11
63.246
21
-111.26
0
LINE
8
BLACK
6
CONTINUOUS
10
63.246
20
-111.26
11
62.746
21
-111.76
0
LINE
8
BLACK
6
CONTINUOUS
10
62.746
20
-111.76
11
63.246
21
-112.26
0
LINE
8
BLACK
6
CONTINUOUS
10
63.246
20
-114.8
11
63.746
21
-114.3
0
LINE
8
BLACK
6
CONTINUOUS
10
63.746
20
-114.3
11
63.246
21
-113.8
0
LINE
8
BLACK
6
CONTINUOUS
10
63.246
20
-113.8
11
62.746
21
-114.3
0
LINE
8
BLACK
6
CONTINUOUS
10
62.746
20
-114.3
11
63.246
21
-114.8
0
LINE
8
BLACK
6
CONTINUOUS
10
73.1266
20
-151.986
11
73.6266
21
-151.486
0
LINE
8
BLACK
6
CONTINUOUS
10
73.6266
20
-151.486
11
73.1266
21
-150.986
0
LINE
8
BLACK
6
CONTINUOUS
10
73.1266
20
-150.986
11
72.6266
21
-151.486
0
LINE
8
BLACK
6
CONTINUOUS
10
72.6266
20
-151.486
11
73.1266
21
-151.986
0
LINE
8
BLACK
6
CONTINUOUS
10
73.1266
20
-154.526
11
73.6266
21
-154.026
0
LINE
8
BLACK
6
CONTINUOUS
10
73.6266
20
-154.026
11
73.1266
21
-153.526
0
LINE
8
BLACK
6
CONTINUOUS
10
73.1266
20
-153.526
11
72.6266
21
-154.026
0
LINE
8
BLACK
6
CONTINUOUS
10
72.6266
20
-154.026
11
73.1266
21
-154.526
0
LINE
8
BLACK
6
CONTINUOUS
10
75.6666
20
-151.986
11
76.1666
21
-151.486
0
LINE
8
BLACK
6
CONTINUOUS
10
76.1666
20
-151.486
11
75.6666
21
-150.986
0
LINE
8
BLACK
6
CONTINUOUS
10
75.6666
20
-150.986
11
75.1666
21
-151.486
0
LINE
8
BLACK
6
CONTINUOUS
10
75.1666
20
-151.486
11
75.6666
21
-151.986
0
LINE
8
BLACK
6
CONTINUOUS
10
75.6666
20
-154.526
11
76.1666
21
-154.026
0
LINE
8
BLACK
6
CONTINUOUS
10
76.1666
20
-154.026
11
75.6666
21
-153.526
0
LINE
8
BLACK
6
CONTINUOUS
10
75.6666
20
-153.526
11
75.1666
21
-154.026
0
LINE
8
BLACK
6
CONTINUOUS
10
75.1666
20
-154.026
11
75.6666
21
-154.526
0
LINE
8
BLACK
6
CONTINUOUS
10
89.0524
20
-110.533
11
89.5524
21
-110.033
0
LINE
8
BLACK
6
CONTINUOUS
10
89.5524
20
-110.033
11
89.0524
21
-109.533
0
LINE
8
BLACK
6
CONTINUOUS
10
89.0524
20
-109.533
11
88.5524
21
-110.033
0
LINE
8
BLACK
6
CONTINUOUS
10
88.5524
20
-110.033
11
89.0524
21
-110.533
0
LINE
8
BLACK
6
CONTINUOUS
10
59.4925
20
-129.576
11
61.2925
21
-131.376
0
LINE
8
BLACK
6
CONTINUOUS
10
61.2925
20
-129.576
11
59.4925
21
-131.376
0
CIRCLE
8
BLACK
10
60.3925
20
-130.476
40
0.9
0
LINE
8
BLACK
6
CONTINUOUS
10
59.4925
20
-145.837
11
61.2925
21
-147.636
0
LINE
8
BLACK
6
CONTINUOUS
10
61.2925
20
-145.837
11
59.4925
21
-147.636
0
CIRCLE
8
BLACK
10
60.3925
20
-146.737
40
0.9
0
LINE
8
BLACK
6
CONTINUOUS
10
55.2582
20
-159.623
11
55.2582
21
-157.623
0
LINE
8
BLACK
6
CONTINUOUS
10
55.2582
20
-157.623
11
55.7344
21
-157.623
0
LINE
8
BLACK
6
CONTINUOUS
10
55.7344
20
-157.623
11
56.0201
21
-157.718
0
LINE
8
BLACK
6
CONTINUOUS
10
56.0201
20
-157.718
11
56.2106
21
-157.908
0
LINE
8
BLACK
6
CONTINUOUS
10
56.2106
20
-157.908
11
56.3058
21
-158.099
0
LINE
8
BLACK
6
CONTINUOUS
10
56.3058
20
-158.099
11
56.401
21
-158.48
0
LINE
8
BLACK
6
CONTINUOUS
10
56.401
20
-158.48
11
56.401
21
-158.766
0
LINE
8
BLACK
6
CONTINUOUS
10
56.401
20
-158.766
11
56.3058
21
-159.147
0
LINE
8
BLACK
6
CONTINUOUS
10
56.3058
20
-159.147
11
56.2106
21
-159.337
0
LINE
8
BLACK
6
CONTINUOUS
10
56.2106
20
-159.337
11
56.0201
21
-159.528
0
LINE
8
BLACK
6
CONTINUOUS
10
56.0201
20
-159.528
11
55.7344
21
-159.623
0
LINE
8
BLACK
6
CONTINUOUS
10
55.7344
20
-159.623
11
55.2582
21
-159.623
0
LINE
8
BLACK
6
CONTINUOUS
10
57.2582
20
-159.623
11
57.2582
21
-158.289
0
LINE
8
BLACK
6
CONTINUOUS
10
57.2582
20
-158.67
11
57.3534
21
-158.48
0
LINE
8
BLACK
6
CONTINUOUS
10
57.3534
20
-158.48
11
57.4487
21
-158.385
0
LINE
8
BLACK
6
CONTINUOUS
10
57.4487
20
-158.385
11
57.6391
21
-158.289
0
LINE
8
BLACK
6
CONTINUOUS
10
57.6391
20
-158.289
11
57.8296
21
-158.289
0
LINE
8
BLACK
6
CONTINUOUS
10
58.4963
20
-159.623
11
58.4963
21
-158.289
0
LINE
8
BLACK
6
CONTINUOUS
10
58.4963
20
-157.623
11
58.401
21
-157.718
0
LINE
8
BLACK
6
CONTINUOUS
10
58.401
20
-157.718
11
58.4963
21
-157.813
0
LINE
8
BLACK
6
CONTINUOUS
10
58.4963
20
-157.813
11
58.5915
21
-157.718
0
LINE
8
BLACK
6
CONTINUOUS
10
58.5915
20
-157.718
11
58.4963
21
-157.623
0
LINE
8
BLACK
6
CONTINUOUS
10
58.4963
20
-157.623
11
58.4963
21
-157.813
0
LINE
8
BLACK
6
CONTINUOUS
10
59.7344
20
-159.623
11
59.5439
21
-159.528
0
LINE
8
BLACK
6
CONTINUOUS
10
59.5439
20
-159.528
11
59.4487
21
-159.337
0
LINE
8
BLACK
6
CONTINUOUS
10
59.4487
20
-159.337
11
59.4487
21
-157.623
0
LINE
8
BLACK
6
CONTINUOUS
10
60.782
20
-159.623
11
60.5915
21
-159.528
0
LINE
8
BLACK
6
CONTINUOUS
10
60.5915
20
-159.528
11
60.4963
21
-159.337
0
LINE
8
BLACK
6
CONTINUOUS
10
60.4963
20
-159.337
11
60.4963
21
-157.623
0
LINE
8
BLACK
6
CONTINUOUS
10
63.0677
20
-159.623
11
63.0677
21
-157.623
0
LINE
8
BLACK
6
CONTINUOUS
10
63.0677
20
-157.623
11
63.7344
21
-159.051
0
LINE
8
BLACK
6
CONTINUOUS
10
63.7344
20
-159.051
11
64.401
21
-157.623
0
LINE
8
BLACK
6
CONTINUOUS
10
64.401
20
-157.623
11
64.401
21
-159.623
0
LINE
8
BLACK
6
CONTINUOUS
10
66.2106
20
-159.623
11
66.2106
21
-158.575
0
LINE
8
BLACK
6
CONTINUOUS
10
66.2106
20
-158.575
11
66.1153
21
-158.385
0
LINE
8
BLACK
6
CONTINUOUS
10
66.1153
20
-158.385
11
65.9249
21
-158.289
0
LINE
8
BLACK
6
CONTINUOUS
10
65.9249
20
-158.289
11
65.5439
21
-158.289
0
LINE
8
BLACK
6
CONTINUOUS
10
65.5439
20
-158.289
11
65.3534
21
-158.385
0
LINE
8
BLACK
6
CONTINUOUS
10
66.2106
20
-159.528
11
66.0201
21
-159.623
0
LINE
8
BLACK
6
CONTINUOUS
10
66.0201
20
-159.623
11
65.5439
21
-159.623
0
LINE
8
BLACK
6
CONTINUOUS
10
65.5439
20
-159.623
11
65.3534
21
-159.528
0
LINE
8
BLACK
6
CONTINUOUS
10
65.3534
20
-159.528
11
65.2582
21
-159.337
0
LINE
8
BLACK
6
CONTINUOUS
10
65.2582
20
-159.337
11
65.2582
21
-159.147
0
LINE
8
BLACK
6
CONTINUOUS
10
65.2582
20
-159.147
11
65.3534
21
-158.956
0
LINE
8
BLACK
6
CONTINUOUS
10
65.3534
20
-158.956
11
65.5439
21
-158.861
0
LINE
8
BLACK
6
CONTINUOUS
10
65.5439
20
-158.861
11
66.0201
21
-158.861
0
LINE
8
BLACK
6
CONTINUOUS
10
66.0201
20
-158.861
11
66.2106
21
-158.766
0
LINE
8
BLACK
6
CONTINUOUS
10
67.163
20
-158.289
11
67.163
21
-160.289
0
LINE
8
BLACK
6
CONTINUOUS
10
67.163
20
-158.385
11
67.3534
21
-158.289
0
LINE
8
BLACK
6
CONTINUOUS
10
67.3534
20
-158.289
11
67.7344
21
-158.289
0
LINE
8
BLACK
6
CONTINUOUS
10
67.7344
20
-158.289
11
67.9249
21
-158.385
0
LINE
8
BLACK
6
CONTINUOUS
10
67.9249
20
-158.385
11
68.0201
21
-158.48
0
LINE
8
BLACK
6
CONTINUOUS
10
68.0201
20
-158.48
11
68.1153
21
-158.67
0
LINE
8
BLACK
6
CONTINUOUS
10
68.1153
20
-158.67
11
68.1153
21
-159.242
0
LINE
8
BLACK
6
CONTINUOUS
10
68.1153
20
-159.242
11
68.0201
21
-159.432
0
LINE
8
BLACK
6
CONTINUOUS
10
68.0201
20
-159.432
11
67.9249
21
-159.528
0
LINE
8
BLACK
6
CONTINUOUS
10
67.9249
20
-159.528
11
67.7344
21
-159.623
0
LINE
8
BLACK
6
CONTINUOUS
10
67.7344
20
-159.623
11
67.3534
21
-159.623
0
LINE
8
BLACK
6
CONTINUOUS
10
67.3534
20
-159.623
11
67.163
21
-159.528
0
LINE
8
BLACK
6
CONTINUOUS
10
68.9725
20
-159.432
11
69.0677
21
-159.528
0
LINE
8
BLACK
6
CONTINUOUS
10
69.0677
20
-159.528
11
68.9725
21
-159.623
0
LINE
8
BLACK
6
CONTINUOUS
10
68.9725
20
-159.623
11
68.8772
21
-159.528
0
LINE
8
BLACK
6
CONTINUOUS
10
68.8772
20
-159.528
11
68.9725
21
-159.432
0
LINE
8
BLACK
6
CONTINUOUS
10
68.9725
20
-159.432
11
68.9725
21
-159.623
0
LINE
8
BLACK
6
CONTINUOUS
10
68.9725
20
-158.385
11
69.0677
21
-158.48
0
LINE
8
BLACK
6
CONTINUOUS
10
69.0677
20
-158.48
11
68.9725
21
-158.575
0
LINE
8
BLACK
6
CONTINUOUS
10
68.9725
20
-158.575
11
68.8772
21
-158.48
0
LINE
8
BLACK
6
CONTINUOUS
10
68.8772
20
-158.48
11
68.9725
21
-158.385
0
LINE
8
BLACK
6
CONTINUOUS
10
68.9725
20
-158.385
11
68.9725
21
-158.575
0
LINE
8
BLACK
6
CONTINUOUS
10
52.282
20
-162.718
11
52.682
21
-163.118
0
LINE
8
BLACK
6
CONTINUOUS
10
52.682
20
-162.718
11
52.282
21
-163.118
0
LINE
8
BLACK
6
CONTINUOUS
10
55.6391
20
-161.823
11
55.8296
21
-161.823
0
LINE
8
BLACK
6
CONTINUOUS
10
55.8296
20
-161.823
11
56.0201
21
-161.918
0
LINE
8
BLACK
6
CONTINUOUS
10
56.0201
20
-161.918
11
56.1153
21
-162.013
0
LINE
8
BLACK
6
CONTINUOUS
10
56.1153
20
-162.013
11
56.2106
21
-162.204
0
LINE
8
BLACK
6
CONTINUOUS
10
56.2106
20
-162.204
11
56.3058
21
-162.585
0
LINE
8
BLACK
6
CONTINUOUS
10
56.3058
20
-162.585
11
56.3058
21
-163.061
0
LINE
8
BLACK
6
CONTINUOUS
10
56.3058
20
-163.061
11
56.2106
21
-163.442
0
LINE
8
BLACK
6
CONTINUOUS
10
56.2106
20
-163.442
11
56.1153
21
-163.632
0
LINE
8
BLACK
6
CONTINUOUS
10
56.1153
20
-163.632
11
56.0201
21
-163.728
0
LINE
8
BLACK
6
CONTINUOUS
10
56.0201
20
-163.728
11
55.8296
21
-163.823
0
LINE
8
BLACK
6
CONTINUOUS
10
55.8296
20
-163.823
11
55.6391
21
-163.823
0
LINE
8
BLACK
6
CONTINUOUS
10
55.6391
20
-163.823
11
55.4487
21
-163.728
0
LINE
8
BLACK
6
CONTINUOUS
10
55.4487
20
-163.728
11
55.3534
21
-163.632
0
LINE
8
BLACK
6
CONTINUOUS
10
55.3534
20
-163.632
11
55.2582
21
-163.442
0
LINE
8
BLACK
6
CONTINUOUS
10
55.2582
20
-163.442
11
55.163
21
-163.061
0
LINE
8
BLACK
6
CONTINUOUS
10
55.163
20
-163.061
11
55.163
21
-162.585
0
LINE
8
BLACK
6
CONTINUOUS
10
55.163
20
-162.585
11
55.2582
21
-162.204
0
LINE
8
BLACK
6
CONTINUOUS
10
55.2582
20
-162.204
11
55.3534
21
-162.013
0
LINE
8
BLACK
6
CONTINUOUS
10
55.3534
20
-162.013
11
55.4487
21
-161.918
0
LINE
8
BLACK
6
CONTINUOUS
10
55.4487
20
-161.918
11
55.6391
21
-161.823
0
LINE
8
BLACK
6
CONTINUOUS
10
57.163
20
-163.632
11
57.2582
21
-163.728
0
LINE
8
BLACK
6
CONTINUOUS
10
57.2582
20
-163.728
11
57.163
21
-163.823
0
LINE
8
BLACK
6
CONTINUOUS
10
57.163
20
-163.823
11
57.0677
21
-163.728
0
LINE
8
BLACK
6
CONTINUOUS
10
57.0677
20
-163.728
11
57.163
21
-163.632
0
LINE
8
BLACK
6
CONTINUOUS
10
57.163
20
-163.632
11
57.163
21
-163.823
0
LINE
8
BLACK
6
CONTINUOUS
10
58.9725
20
-162.489
11
58.9725
21
-163.823
0
LINE
8
BLACK
6
CONTINUOUS
10
58.4963
20
-161.728
11
58.0201
21
-163.156
0
LINE
8
BLACK
6
CONTINUOUS
10
58.0201
20
-163.156
11
59.2582
21
-163.156
0
LINE
8
BLACK
6
CONTINUOUS
10
60.401
20
-161.823
11
60.5915
21
-161.823
0
LINE
8
BLACK
6
CONTINUOUS
10
60.5915
20
-161.823
11
60.782
21
-161.918
0
LINE
8
BLACK
6
CONTINUOUS
10
60.782
20
-161.918
11
60.8772
21
-162.013
0
LINE
8
BLACK
6
CONTINUOUS
10
60.8772
20
-162.013
11
60.9725
21
-162.204
0
LINE
8
BLACK
6
CONTINUOUS
10
60.9725
20
-162.204
11
61.0677
21
-162.585
0
LINE
8
BLACK
6
CONTINUOUS
10
61.0677
20
-162.585
11
61.0677
21
-163.061
0
LINE
8
BLACK
6
CONTINUOUS
10
61.0677
20
-163.061
11
60.9725
21
-163.442
0
LINE
8
BLACK
6
CONTINUOUS
10
60.9725
20
-163.442
11
60.8772
21
-163.632
0
LINE
8
BLACK
6
CONTINUOUS
10
60.8772
20
-163.632
11
60.782
21
-163.728
0
LINE
8
BLACK
6
CONTINUOUS
10
60.782
20
-163.728
11
60.5915
21
-163.823
0
LINE
8
BLACK
6
CONTINUOUS
10
60.5915
20
-163.823
11
60.401
21
-163.823
0
LINE
8
BLACK
6
CONTINUOUS
10
60.401
20
-163.823
11
60.2106
21
-163.728
0
LINE
8
BLACK
6
CONTINUOUS
10
60.2106
20
-163.728
11
60.1153
21
-163.632
0
LINE
8
BLACK
6
CONTINUOUS
10
60.1153
20
-163.632
11
60.0201
21
-163.442
0
LINE
8
BLACK
6
CONTINUOUS
10
60.0201
20
-163.442
11
59.9249
21
-163.061
0
LINE
8
BLACK
6
CONTINUOUS
10
59.9249
20
-163.061
11
59.9249
21
-162.585
0
LINE
8
BLACK
6
CONTINUOUS
10
59.9249
20
-162.585
11
60.0201
21
-162.204
0
LINE
8
BLACK
6
CONTINUOUS
10
60.0201
20
-162.204
11
60.1153
21
-162.013
0
LINE
8
BLACK
6
CONTINUOUS
10
60.1153
20
-162.013
11
60.2106
21
-161.918
0
LINE
8
BLACK
6
CONTINUOUS
10
60.2106
20
-161.918
11
60.401
21
-161.823
0
LINE
8
BLACK
6
CONTINUOUS
10
62.3058
20
-161.823
11
62.4963
21
-161.823
0
LINE
8
BLACK
6
CONTINUOUS
10
62.4963
20
-161.823
11
62.6868
21
-161.918
0
LINE
8
BLACK
6
CONTINUOUS
10
62.6868
20
-161.918
11
62.782
21
-162.013
0
LINE
8
BLACK
6
CONTINUOUS
10
62.782
20
-162.013
11
62.8772
21
-162.204
0
LINE
8
BLACK
6
CONTINUOUS
10
62.8772
20
-162.204
11
62.9725
21
-162.585
0
LINE
8
BLACK
6
CONTINUOUS
10
62.9725
20
-162.585
11
62.9725
21
-163.061
0
LINE
8
BLACK
6
CONTINUOUS
10
62.9725
20
-163.061
11
62.8772
21
-163.442
0
LINE
8
BLACK
6
CONTINUOUS
10
62.8772
20
-163.442
11
62.782
21
-163.632
0
LINE
8
BLACK
6
CONTINUOUS
10
62.782
20
-163.632
11
62.6868
21
-163.728
0
LINE
8
BLACK
6
CONTINUOUS
10
62.6868
20
-163.728
11
62.4963
21
-163.823
0
LINE
8
BLACK
6
CONTINUOUS
10
62.4963
20
-163.823
11
62.3058
21
-163.823
0
LINE
8
BLACK
6
CONTINUOUS
10
62.3058
20
-163.823
11
62.1153
21
-163.728
0
LINE
8
BLACK
6
CONTINUOUS
10
62.1153
20
-163.728
11
62.0201
21
-163.632
0
LINE
8
BLACK
6
CONTINUOUS
10
62.0201
20
-163.632
11
61.9249
21
-163.442
0
LINE
8
BLACK
6
CONTINUOUS
10
61.9249
20
-163.442
11
61.8296
21
-163.061
0
LINE
8
BLACK
6
CONTINUOUS
10
61.8296
20
-163.061
11
61.8296
21
-162.585
0
LINE
8
BLACK
6
CONTINUOUS
10
61.8296
20
-162.585
11
61.9249
21
-162.204
0
LINE
8
BLACK
6
CONTINUOUS
10
61.9249
20
-162.204
11
62.0201
21
-162.013
0
LINE
8
BLACK
6
CONTINUOUS
10
62.0201
20
-162.013
11
62.1153
21
-161.918
0
LINE
8
BLACK
6
CONTINUOUS
10
62.1153
20
-161.918
11
62.3058
21
-161.823
0
LINE
8
BLACK
6
CONTINUOUS
10
63.8296
20
-163.823
11
63.8296
21
-162.489
0
LINE
8
BLACK
6
CONTINUOUS
10
63.8296
20
-162.68
11
63.9249
21
-162.585
0
LINE
8
BLACK
6
CONTINUOUS
10
63.9249
20
-162.585
11
64.1153
21
-162.489
0
LINE
8
BLACK
6
CONTINUOUS
10
64.1153
20
-162.489
11
64.401
21
-162.489
0
LINE
8
BLACK
6
CONTINUOUS
10
64.401
20
-162.489
11
64.5915
21
-162.585
0
LINE
8
BLACK
6
CONTINUOUS
10
64.5915
20
-162.585
11
64.6868
21
-162.775
0
LINE
8
BLACK
6
CONTINUOUS
10
64.6868
20
-162.775
11
64.6868
21
-163.823
0
LINE
8
BLACK
6
CONTINUOUS
10
64.6868
20
-162.775
11
64.782
21
-162.585
0
LINE
8
BLACK
6
CONTINUOUS
10
64.782
20
-162.585
11
64.9725
21
-162.489
0
LINE
8
BLACK
6
CONTINUOUS
10
64.9725
20
-162.489
11
65.2582
21
-162.489
0
LINE
8
BLACK
6
CONTINUOUS
10
65.2582
20
-162.489
11
65.4487
21
-162.585
0
LINE
8
BLACK
6
CONTINUOUS
10
65.4487
20
-162.585
11
65.5439
21
-162.775
0
LINE
8
BLACK
6
CONTINUOUS
10
65.5439
20
-162.775
11
65.5439
21
-163.823
0
LINE
8
BLACK
6
CONTINUOUS
10
66.4963
20
-163.823
11
66.4963
21
-162.489
0
LINE
8
BLACK
6
CONTINUOUS
10
66.4963
20
-162.68
11
66.5915
21
-162.585
0
LINE
8
BLACK
6
CONTINUOUS
10
66.5915
20
-162.585
11
66.782
21
-162.489
0
LINE
8
BLACK
6
CONTINUOUS
10
66.782
20
-162.489
11
67.0677
21
-162.489
0
LINE
8
BLACK
6
CONTINUOUS
10
67.0677
20
-162.489
11
67.2582
21
-162.585
0
LINE
8
BLACK
6
CONTINUOUS
10
67.2582
20
-162.585
11
67.3534
21
-162.775
0
LINE
8
BLACK
6
CONTINUOUS
10
67.3534
20
-162.775
11
67.3534
21
-163.823
0
LINE
8
BLACK
6
CONTINUOUS
10
67.3534
20
-162.775
11
67.4487
21
-162.585
0
LINE
8
BLACK
6
CONTINUOUS
10
67.4487
20
-162.585
11
67.6391
21
-162.489
0
LINE
8
BLACK
6
CONTINUOUS
10
67.6391
20
-162.489
11
67.9249
21
-162.489
0
LINE
8
BLACK
6
CONTINUOUS
10
67.9249
20
-162.489
11
68.1153
21
-162.585
0
LINE
8
BLACK
6
CONTINUOUS
10
68.1153
20
-162.585
11
68.2106
21
-162.775
0
LINE
8
BLACK
6
CONTINUOUS
10
68.2106
20
-162.775
11
68.2106
21
-163.823
0
LINE
8
BLACK
6
CONTINUOUS
10
72.1153
20
-161.728
11
70.401
21
-164.299
0
LINE
8
BLACK
6
CONTINUOUS
10
74.6868
20
-161.823
11
74.8772
21
-161.823
0
LINE
8
BLACK
6
CONTINUOUS
10
74.8772
20
-161.823
11
75.0677
21
-161.918
0
LINE
8
BLACK
6
CONTINUOUS
10
75.0677
20
-161.918
11
75.163
21
-162.013
0
LINE
8
BLACK
6
CONTINUOUS
10
75.163
20
-162.013
11
75.2582
21
-162.204
0
LINE
8
BLACK
6
CONTINUOUS
10
75.2582
20
-162.204
11
75.3534
21
-162.585
0
LINE
8
BLACK
6
CONTINUOUS
10
75.3534
20
-162.585
11
75.3534
21
-163.061
0
LINE
8
BLACK
6
CONTINUOUS
10
75.3534
20
-163.061
11
75.2582
21
-163.442
0
LINE
8
BLACK
6
CONTINUOUS
10
75.2582
20
-163.442
11
75.163
21
-163.632
0
LINE
8
BLACK
6
CONTINUOUS
10
75.163
20
-163.632
11
75.0677
21
-163.728
0
LINE
8
BLACK
6
CONTINUOUS
10
75.0677
20
-163.728
11
74.8772
21
-163.823
0
LINE
8
BLACK
6
CONTINUOUS
10
74.8772
20
-163.823
11
74.6868
21
-163.823
0
LINE
8
BLACK
6
CONTINUOUS
10
74.6868
20
-163.823
11
74.4963
21
-163.728
0
LINE
8
BLACK
6
CONTINUOUS
10
74.4963
20
-163.728
11
74.401
21
-163.632
0
LINE
8
BLACK
6
CONTINUOUS
10
74.401
20
-163.632
11
74.3058
21
-163.442
0
LINE
8
BLACK
6
CONTINUOUS
10
74.3058
20
-163.442
11
74.2106
21
-163.061
0
LINE
8
BLACK
6
CONTINUOUS
10
74.2106
20
-163.061
11
74.2106
21
-162.585
0
LINE
8
BLACK
6
CONTINUOUS
10
74.2106
20
-162.585
11
74.3058
21
-162.204
0
LINE
8
BLACK
6
CONTINUOUS
10
74.3058
20
-162.204
11
74.401
21
-162.013
0
LINE
8
BLACK
6
CONTINUOUS
10
74.401
20
-162.013
11
74.4963
21
-161.918
0
LINE
8
BLACK
6
CONTINUOUS
10
74.4963
20
-161.918
11
74.6868
21
-161.823
0
LINE
8
BLACK
6
CONTINUOUS
10
76.2106
20
-163.632
11
76.3058
21
-163.728
0
LINE
8
BLACK
6
CONTINUOUS
10
76.3058
20
-163.728
11
76.2106
21
-163.823
0
LINE
8
BLACK
6
CONTINUOUS
10
76.2106
20
-163.823
11
76.1153
21
-163.728
0
LINE
8
BLACK
6
CONTINUOUS
10
76.1153
20
-163.728
11
76.2106
21
-163.632
0
LINE
8
BLACK
6
CONTINUOUS
10
76.2106
20
-163.632
11
76.2106
21
-163.823
0
LINE
8
BLACK
6
CONTINUOUS
10
77.5439
20
-161.823
11
77.7344
21
-161.823
0
LINE
8
BLACK
6
CONTINUOUS
10
77.7344
20
-161.823
11
77.9249
21
-161.918
0
LINE
8
BLACK
6
CONTINUOUS
10
77.9249
20
-161.918
11
78.0201
21
-162.013
0
LINE
8
BLACK
6
CONTINUOUS
10
78.0201
20
-162.013
11
78.1153
21
-162.204
0
LINE
8
BLACK
6
CONTINUOUS
10
78.1153
20
-162.204
11
78.2106
21
-162.585
0
LINE
8
BLACK
6
CONTINUOUS
10
78.2106
20
-162.585
11
78.2106
21
-163.061
0
LINE
8
BLACK
6
CONTINUOUS
10
78.2106
20
-163.061
11
78.1153
21
-163.442
0
LINE
8
BLACK
6
CONTINUOUS
10
78.1153
20
-163.442
11
78.0201
21
-163.632
0
LINE
8
BLACK
6
CONTINUOUS
10
78.0201
20
-163.632
11
77.9249
21
-163.728
0
LINE
8
BLACK
6
CONTINUOUS
10
77.9249
20
-163.728
11
77.7344
21
-163.823
0
LINE
8
BLACK
6
CONTINUOUS
10
77.7344
20
-163.823
11
77.5439
21
-163.823
0
LINE
8
BLACK
6
CONTINUOUS
10
77.5439
20
-163.823
11
77.3534
21
-163.728
0
LINE
8
BLACK
6
CONTINUOUS
10
77.3534
20
-163.728
11
77.2582
21
-163.632
0
LINE
8
BLACK
6
CONTINUOUS
10
77.2582
20
-163.632
11
77.163
21
-163.442
0
LINE
8
BLACK
6
CONTINUOUS
10
77.163
20
-163.442
11
77.0677
21
-163.061
0
LINE
8
BLACK
6
CONTINUOUS
10
77.0677
20
-163.061
11
77.0677
21
-162.585
0
LINE
8
BLACK
6
CONTINUOUS
10
77.0677
20
-162.585
11
77.163
21
-162.204
0
LINE
8
BLACK
6
CONTINUOUS
10
77.163
20
-162.204
11
77.2582
21
-162.013
0
LINE
8
BLACK
6
CONTINUOUS
10
77.2582
20
-162.013
11
77.3534
21
-161.918
0
LINE
8
BLACK
6
CONTINUOUS
10
77.3534
20
-161.918
11
77.5439
21
-161.823
0
LINE
8
BLACK
6
CONTINUOUS
10
80.1153
20
-163.823
11
78.9725
21
-163.823
0
LINE
8
BLACK
6
CONTINUOUS
10
79.5439
20
-163.823
11
79.5439
21
-161.823
0
LINE
8
BLACK
6
CONTINUOUS
10
79.5439
20
-161.823
11
79.3534
21
-162.108
0
LINE
8
BLACK
6
CONTINUOUS
10
79.3534
20
-162.108
11
79.163
21
-162.299
0
LINE
8
BLACK
6
CONTINUOUS
10
79.163
20
-162.299
11
78.9725
21
-162.394
0
LINE
8
BLACK
6
CONTINUOUS
10
81.9249
20
-161.823
11
80.9725
21
-161.823
0
LINE
8
BLACK
6
CONTINUOUS
10
80.9725
20
-161.823
11
80.8772
21
-162.775
0
LINE
8
BLACK
6
CONTINUOUS
10
80.8772
20
-162.775
11
80.9725
21
-162.68
0
LINE
8
BLACK
6
CONTINUOUS
10
80.9725
20
-162.68
11
81.163
21
-162.585
0
LINE
8
BLACK
6
CONTINUOUS
10
81.163
20
-162.585
11
81.6391
21
-162.585
0
LINE
8
BLACK
6
CONTINUOUS
10
81.6391
20
-162.585
11
81.8296
21
-162.68
0
LINE
8
BLACK
6
CONTINUOUS
10
81.8296
20
-162.68
11
81.9249
21
-162.775
0
LINE
8
BLACK
6
CONTINUOUS
10
81.9249
20
-162.775
11
82.0201
21
-162.966
0
LINE
8
BLACK
6
CONTINUOUS
10
82.0201
20
-162.966
11
82.0201
21
-163.442
0
LINE
8
BLACK
6
CONTINUOUS
10
82.0201
20
-163.442
11
81.9249
21
-163.632
0
LINE
8
BLACK
6
CONTINUOUS
10
81.9249
20
-163.632
11
81.8296
21
-163.728
0
LINE
8
BLACK
6
CONTINUOUS
10
81.8296
20
-163.728
11
81.6391
21
-163.823
0
LINE
8
BLACK
6
CONTINUOUS
10
81.6391
20
-163.823
11
81.163
21
-163.823
0
LINE
8
BLACK
6
CONTINUOUS
10
81.163
20
-163.823
11
80.9725
21
-163.728
0
LINE
8
BLACK
6
CONTINUOUS
10
80.9725
20
-163.728
11
80.8772
21
-163.632
0
LINE
8
BLACK
6
CONTINUOUS
10
82.6868
20
-161.823
11
84.0201
21
-161.823
0
LINE
8
BLACK
6
CONTINUOUS
10
84.0201
20
-161.823
11
83.163
21
-163.823
0
LINE
8
BLACK
6
CONTINUOUS
10
84.6868
20
-161.823
11
84.6868
21
-162.204
0
LINE
8
BLACK
6
CONTINUOUS
10
85.4487
20
-161.823
11
85.4487
21
-162.204
0
LINE
8
BLACK
6
CONTINUOUS
10
88.401
20
-164.585
11
88.3058
21
-164.489
0
LINE
8
BLACK
6
CONTINUOUS
10
88.3058
20
-164.489
11
88.1153
21
-164.204
0
LINE
8
BLACK
6
CONTINUOUS
10
88.1153
20
-164.204
11
88.0201
21
-164.013
0
LINE
8
BLACK
6
CONTINUOUS
10
88.0201
20
-164.013
11
87.9249
21
-163.728
0
LINE
8
BLACK
6
CONTINUOUS
10
87.9249
20
-163.728
11
87.8296
21
-163.251
0
LINE
8
BLACK
6
CONTINUOUS
10
87.8296
20
-163.251
11
87.8296
21
-162.87
0
LINE
8
BLACK
6
CONTINUOUS
10
87.8296
20
-162.87
11
87.9249
21
-162.394
0
LINE
8
BLACK
6
CONTINUOUS
10
87.9249
20
-162.394
11
88.0201
21
-162.108
0
LINE
8
BLACK
6
CONTINUOUS
10
88.0201
20
-162.108
11
88.1153
21
-161.918
0
LINE
8
BLACK
6
CONTINUOUS
10
88.1153
20
-161.918
11
88.3058
21
-161.632
0
LINE
8
BLACK
6
CONTINUOUS
10
88.3058
20
-161.632
11
88.401
21
-161.537
0
LINE
8
BLACK
6
CONTINUOUS
10
90.2106
20
-163.823
11
89.0677
21
-163.823
0
LINE
8
BLACK
6
CONTINUOUS
10
89.6391
20
-163.823
11
89.6391
21
-161.823
0
LINE
8
BLACK
6
CONTINUOUS
10
89.6391
20
-161.823
11
89.4487
21
-162.108
0
LINE
8
BLACK
6
CONTINUOUS
10
89.4487
20
-162.108
11
89.2582
21
-162.299
0
LINE
8
BLACK
6
CONTINUOUS
10
89.2582
20
-162.299
11
89.0677
21
-162.394
0
LINE
8
BLACK
6
CONTINUOUS
10
91.4487
20
-161.823
11
91.6391
21
-161.823
0
LINE
8
BLACK
6
CONTINUOUS
10
91.6391
20
-161.823
11
91.8296
21
-161.918
0
LINE
8
BLACK
6
CONTINUOUS
10
91.8296
20
-161.918
11
91.9249
21
-162.013
0
LINE
8
BLACK
6
CONTINUOUS
10
91.9249
20
-162.013
11
92.0201
21
-162.204
0
LINE
8
BLACK
6
CONTINUOUS
10
92.0201
20
-162.204
11
92.1153
21
-162.585
0
LINE
8
BLACK
6
CONTINUOUS
10
92.1153
20
-162.585
11
92.1153
21
-163.061
0
LINE
8
BLACK
6
CONTINUOUS
10
92.1153
20
-163.061
11
92.0201
21
-163.442
0
LINE
8
BLACK
6
CONTINUOUS
10
92.0201
20
-163.442
11
91.9249
21
-163.632
0
LINE
8
BLACK
6
CONTINUOUS
10
91.9249
20
-163.632
11
91.8296
21
-163.728
0
LINE
8
BLACK
6
CONTINUOUS
10
91.8296
20
-163.728
11
91.6391
21
-163.823
0
LINE
8
BLACK
6
CONTINUOUS
10
91.6391
20
-163.823
11
91.4487
21
-163.823
0
LINE
8
BLACK
6
CONTINUOUS
10
91.4487
20
-163.823
11
91.2582
21
-163.728
0
LINE
8
BLACK
6
CONTINUOUS
10
91.2582
20
-163.728
11
91.163
21
-163.632
0
LINE
8
BLACK
6
CONTINUOUS
10
91.163
20
-163.632
11
91.0677
21
-163.442
0
LINE
8
BLACK
6
CONTINUOUS
10
91.0677
20
-163.442
11
90.9725
21
-163.061
0
LINE
8
BLACK
6
CONTINUOUS
10
90.9725
20
-163.061
11
90.9725
21
-162.585
0
LINE
8
BLACK
6
CONTINUOUS
10
90.9725
20
-162.585
11
91.0677
21
-162.204
0
LINE
8
BLACK
6
CONTINUOUS
10
91.0677
20
-162.204
11
91.163
21
-162.013
0
LINE
8
BLACK
6
CONTINUOUS
10
91.163
20
-162.013
11
91.2582
21
-161.918
0
LINE
8
BLACK
6
CONTINUOUS
10
91.2582
20
-161.918
11
91.4487
21
-161.823
0
LINE
8
BLACK
6
CONTINUOUS
10
93.0677
20
-163.823
11
93.4487
21
-163.823
0
LINE
8
BLACK
6
CONTINUOUS
10
93.4487
20
-163.823
11
93.6391
21
-163.728
0
LINE
8
BLACK
6
CONTINUOUS
10
93.6391
20
-163.728
11
93.7344
21
-163.632
0
LINE
8
BLACK
6
CONTINUOUS
10
93.7344
20
-163.632
11
93.9249
21
-163.347
0
LINE
8
BLACK
6
CONTINUOUS
10
93.9249
20
-163.347
11
94.0201
21
-162.966
0
LINE
8
BLACK
6
CONTINUOUS
10
94.0201
20
-162.966
11
94.0201
21
-162.204
0
LINE
8
BLACK
6
CONTINUOUS
10
94.0201
20
-162.204
11
93.9249
21
-162.013
0
LINE
8
BLACK
6
CONTINUOUS
10
93.9249
20
-162.013
11
93.8296
21
-161.918
0
LINE
8
BLACK
6
CONTINUOUS
10
93.8296
20
-161.918
11
93.6391
21
-161.823
0
LINE
8
BLACK
6
CONTINUOUS
10
93.6391
20
-161.823
11
93.2582
21
-161.823
0
LINE
8
BLACK
6
CONTINUOUS
10
93.2582
20
-161.823
11
93.0677
21
-161.918
0
LINE
8
BLACK
6
CONTINUOUS
10
93.0677
20
-161.918
11
92.9725
21
-162.013
0
LINE
8
BLACK
6
CONTINUOUS
10
92.9725
20
-162.013
11
92.8772
21
-162.204
0
LINE
8
BLACK
6
CONTINUOUS
10
92.8772
20
-162.204
11
92.8772
21
-162.68
0
LINE
8
BLACK
6
CONTINUOUS
10
92.8772
20
-162.68
11
92.9725
21
-162.87
0
LINE
8
BLACK
6
CONTINUOUS
10
92.9725
20
-162.87
11
93.0677
21
-162.966
0
LINE
8
BLACK
6
CONTINUOUS
10
93.0677
20
-162.966
11
93.2582
21
-163.061
0
LINE
8
BLACK
6
CONTINUOUS
10
93.2582
20
-163.061
11
93.6391
21
-163.061
0
LINE
8
BLACK
6
CONTINUOUS
10
93.6391
20
-163.061
11
93.8296
21
-162.966
0
LINE
8
BLACK
6
CONTINUOUS
10
93.8296
20
-162.966
11
93.9249
21
-162.87
0
LINE
8
BLACK
6
CONTINUOUS
10
93.9249
20
-162.87
11
94.0201
21
-162.68
0
LINE
8
BLACK
6
CONTINUOUS
10
96.401
20
-163.823
11
96.401
21
-161.823
0
LINE
8
BLACK
6
CONTINUOUS
10
97.2582
20
-163.823
11
97.2582
21
-162.775
0
LINE
8
BLACK
6
CONTINUOUS
10
97.2582
20
-162.775
11
97.163
21
-162.585
0
LINE
8
BLACK
6
CONTINUOUS
10
97.163
20
-162.585
11
96.9725
21
-162.489
0
LINE
8
BLACK
6
CONTINUOUS
10
96.9725
20
-162.489
11
96.6868
21
-162.489
0
LINE
8
BLACK
6
CONTINUOUS
10
96.6868
20
-162.489
11
96.4963
21
-162.585
0
LINE
8
BLACK
6
CONTINUOUS
10
96.4963
20
-162.585
11
96.401
21
-162.68
0
LINE
8
BLACK
6
CONTINUOUS
10
98.4963
20
-163.823
11
98.3058
21
-163.728
0
LINE
8
BLACK
6
CONTINUOUS
10
98.3058
20
-163.728
11
98.2106
21
-163.632
0
LINE
8
BLACK
6
CONTINUOUS
10
98.2106
20
-163.632
11
98.1153
21
-163.442
0
LINE
8
BLACK
6
CONTINUOUS
10
98.1153
20
-163.442
11
98.1153
21
-162.87
0
LINE
8
BLACK
6
CONTINUOUS
10
98.1153
20
-162.87
11
98.2106
21
-162.68
0
LINE
8
BLACK
6
CONTINUOUS
10
98.2106
20
-162.68
11
98.3058
21
-162.585
0
LINE
8
BLACK
6
CONTINUOUS
10
98.3058
20
-162.585
11
98.4963
21
-162.489
0
LINE
8
BLACK
6
CONTINUOUS
10
98.4963
20
-162.489
11
98.782
21
-162.489
0
LINE
8
BLACK
6
CONTINUOUS
10
98.782
20
-162.489
11
98.9725
21
-162.585
0
LINE
8
BLACK
6
CONTINUOUS
10
98.9725
20
-162.585
11
99.0677
21
-162.68
0
LINE
8
BLACK
6
CONTINUOUS
10
99.0677
20
-162.68
11
99.163
21
-162.87
0
LINE
8
BLACK
6
CONTINUOUS
10
99.163
20
-162.87
11
99.163
21
-163.442
0
LINE
8
BLACK
6
CONTINUOUS
10
99.163
20
-163.442
11
99.0677
21
-163.632
0
LINE
8
BLACK
6
CONTINUOUS
10
99.0677
20
-163.632
11
98.9725
21
-163.728
0
LINE
8
BLACK
6
CONTINUOUS
10
98.9725
20
-163.728
11
98.782
21
-163.823
0
LINE
8
BLACK
6
CONTINUOUS
10
98.782
20
-163.823
11
98.4963
21
-163.823
0
LINE
8
BLACK
6
CONTINUOUS
10
100.306
20
-163.823
11
100.115
21
-163.728
0
LINE
8
BLACK
6
CONTINUOUS
10
100.115
20
-163.728
11
100.02
21
-163.537
0
LINE
8
BLACK
6
CONTINUOUS
10
100.02
20
-163.537
11
100.02
21
-161.823
0
LINE
8
BLACK
6
CONTINUOUS
10
101.83
20
-163.728
11
101.639
21
-163.823
0
LINE
8
BLACK
6
CONTINUOUS
10
101.639
20
-163.823
11
101.258
21
-163.823
0
LINE
8
BLACK
6
CONTINUOUS
10
101.258
20
-163.823
11
101.068
21
-163.728
0
LINE
8
BLACK
6
CONTINUOUS
10
101.068
20
-163.728
11
100.972
21
-163.537
0
LINE
8
BLACK
6
CONTINUOUS
10
100.972
20
-163.537
11
100.972
21
-162.775
0
LINE
8
BLACK
6
CONTINUOUS
10
100.972
20
-162.775
11
101.068
21
-162.585
0
LINE
8
BLACK
6
CONTINUOUS
10
101.068
20
-162.585
11
101.258
21
-162.489
0
LINE
8
BLACK
6
CONTINUOUS
10
101.258
20
-162.489
11
101.639
21
-162.489
0
LINE
8
BLACK
6
CONTINUOUS
10
101.639
20
-162.489
11
101.83
21
-162.585
0
LINE
8
BLACK
6
CONTINUOUS
10
101.83
20
-162.585
11
101.925
21
-162.775
0
LINE
8
BLACK
6
CONTINUOUS
10
101.925
20
-162.775
11
101.925
21
-162.966
0
LINE
8
BLACK
6
CONTINUOUS
10
101.925
20
-162.966
11
100.972
21
-163.156
0
LINE
8
BLACK
6
CONTINUOUS
10
102.687
20
-163.728
11
102.877
21
-163.823
0
LINE
8
BLACK
6
CONTINUOUS
10
102.877
20
-163.823
11
103.258
21
-163.823
0
LINE
8
BLACK
6
CONTINUOUS
10
103.258
20
-163.823
11
103.449
21
-163.728
0
LINE
8
BLACK
6
CONTINUOUS
10
103.449
20
-163.728
11
103.544
21
-163.537
0
LINE
8
BLACK
6
CONTINUOUS
10
103.544
20
-163.537
11
103.544
21
-163.442
0
LINE
8
BLACK
6
CONTINUOUS
10
103.544
20
-163.442
11
103.449
21
-163.251
0
LINE
8
BLACK
6
CONTINUOUS
10
103.449
20
-163.251
11
103.258
21
-163.156
0
LINE
8
BLACK
6
CONTINUOUS
10
103.258
20
-163.156
11
102.972
21
-163.156
0
LINE
8
BLACK
6
CONTINUOUS
10
102.972
20
-163.156
11
102.782
21
-163.061
0
LINE
8
BLACK
6
CONTINUOUS
10
102.782
20
-163.061
11
102.687
21
-162.87
0
LINE
8
BLACK
6
CONTINUOUS
10
102.687
20
-162.87
11
102.687
21
-162.775
0
LINE
8
BLACK
6
CONTINUOUS
10
102.687
20
-162.775
11
102.782
21
-162.585
0
LINE
8
BLACK
6
CONTINUOUS
10
102.782
20
-162.585
11
102.972
21
-162.489
0
LINE
8
BLACK
6
CONTINUOUS
10
102.972
20
-162.489
11
103.258
21
-162.489
0
LINE
8
BLACK
6
CONTINUOUS
10
103.258
20
-162.489
11
103.449
21
-162.585
0
LINE
8
BLACK
6
CONTINUOUS
10
104.211
20
-164.585
11
104.306
21
-164.489
0
LINE
8
BLACK
6
CONTINUOUS
10
104.306
20
-164.489
11
104.496
21
-164.204
0
LINE
8
BLACK
6
CONTINUOUS
10
104.496
20
-164.204
11
104.592
21
-164.013
0
LINE
8
BLACK
6
CONTINUOUS
10
104.592
20
-164.013
11
104.687
21
-163.728
0
LINE
8
BLACK
6
CONTINUOUS
10
104.687
20
-163.728
11
104.782
21
-163.251
0
LINE
8
BLACK
6
CONTINUOUS
10
104.782
20
-163.251
11
104.782
21
-162.87
0
LINE
8
BLACK
6
CONTINUOUS
10
104.782
20
-162.87
11
104.687
21
-162.394
0
LINE
8
BLACK
6
CONTINUOUS
10
104.687
20
-162.394
11
104.592
21
-162.108
0
LINE
8
BLACK
6
CONTINUOUS
10
104.592
20
-162.108
11
104.496
21
-161.918
0
LINE
8
BLACK
6
CONTINUOUS
10
104.496
20
-161.918
11
104.306
21
-161.632
0
LINE
8
BLACK
6
CONTINUOUS
10
104.306
20
-161.632
11
104.211
21
-161.537
0
CIRCLE
8
BLACK
10
52.357
20
-165.558
40
0.325
0
LINE
8
BLACK
6
CONTINUOUS
10
55.6391
20
-164.463
11
55.8296
21
-164.463
0
LINE
8
BLACK
6
CONTINUOUS
10
55.8296
20
-164.463
11
56.0201
21
-164.558
0
LINE
8
BLACK
6
CONTINUOUS
10
56.0201
20
-164.558
11
56.1153
21
-164.653
0
LINE
8
BLACK
6
CONTINUOUS
10
56.1153
20
-164.653
11
56.2106
21
-164.844
0
LINE
8
BLACK
6
CONTINUOUS
10
56.2106
20
-164.844
11
56.3058
21
-165.225
0
LINE
8
BLACK
6
CONTINUOUS
10
56.3058
20
-165.225
11
56.3058
21
-165.701
0
LINE
8
BLACK
6
CONTINUOUS
10
56.3058
20
-165.701
11
56.2106
21
-166.082
0
LINE
8
BLACK
6
CONTINUOUS
10
56.2106
20
-166.082
11
56.1153
21
-166.272
0
LINE
8
BLACK
6
CONTINUOUS
10
56.1153
20
-166.272
11
56.0201
21
-166.368
0
LINE
8
BLACK
6
CONTINUOUS
10
56.0201
20
-166.368
11
55.8296
21
-166.463
0
LINE
8
BLACK
6
CONTINUOUS
10
55.8296
20
-166.463
11
55.6391
21
-166.463
0
LINE
8
BLACK
6
CONTINUOUS
10
55.6391
20
-166.463
11
55.4487
21
-166.368
0
LINE
8
BLACK
6
CONTINUOUS
10
55.4487
20
-166.368
11
55.3534
21
-166.272
0
LINE
8
BLACK
6
CONTINUOUS
10
55.3534
20
-166.272
11
55.2582
21
-166.082
0
LINE
8
BLACK
6
CONTINUOUS
10
55.2582
20
-166.082
11
55.163
21
-165.701
0
LINE
8
BLACK
6
CONTINUOUS
10
55.163
20
-165.701
11
55.163
21
-165.225
0
LINE
8
BLACK
6
CONTINUOUS
10
55.163
20
-165.225
11
55.2582
21
-164.844
0
LINE
8
BLACK
6
CONTINUOUS
10
55.2582
20
-164.844
11
55.3534
21
-164.653
0
LINE
8
BLACK
6
CONTINUOUS
10
55.3534
20
-164.653
11
55.4487
21
-164.558
0
LINE
8
BLACK
6
CONTINUOUS
10
55.4487
20
-164.558
11
55.6391
21
-164.463
0
LINE
8
BLACK
6
CONTINUOUS
10
57.163
20
-166.272
11
57.2582
21
-166.368
0
LINE
8
BLACK
6
CONTINUOUS
10
57.2582
20
-166.368
11
57.163
21
-166.463
0
LINE
8
BLACK
6
CONTINUOUS
10
57.163
20
-166.463
11
57.0677
21
-166.368
0
LINE
8
BLACK
6
CONTINUOUS
10
57.0677
20
-166.368
11
57.163
21
-166.272
0
LINE
8
BLACK
6
CONTINUOUS
10
57.163
20
-166.272
11
57.163
21
-166.463
0
LINE
8
BLACK
6
CONTINUOUS
10
58.9725
20
-164.463
11
58.5915
21
-164.463
0
LINE
8
BLACK
6
CONTINUOUS
10
58.5915
20
-164.463
11
58.401
21
-164.558
0
LINE
8
BLACK
6
CONTINUOUS
10
58.401
20
-164.558
11
58.3058
21
-164.653
0
LINE
8
BLACK
6
CONTINUOUS
10
58.3058
20
-164.653
11
58.1153
21
-164.939
0
LINE
8
BLACK
6
CONTINUOUS
10
58.1153
20
-164.939
11
58.0201
21
-165.32
0
LINE
8
BLACK
6
CONTINUOUS
10
58.0201
20
-165.32
11
58.0201
21
-166.082
0
LINE
8
BLACK
6
CONTINUOUS
10
58.0201
20
-166.082
11
58.1153
21
-166.272
0
LINE
8
BLACK
6
CONTINUOUS
10
58.1153
20
-166.272
11
58.2106
21
-166.368
0
LINE
8
BLACK
6
CONTINUOUS
10
58.2106
20
-166.368
11
58.401
21
-166.463
0
LINE
8
BLACK
6
CONTINUOUS
10
58.401
20
-166.463
11
58.782
21
-166.463
0
LINE
8
BLACK
6
CONTINUOUS
10
58.782
20
-166.463
11
58.9725
21
-166.368
0
LINE
8
BLACK
6
CONTINUOUS
10
58.9725
20
-166.368
11
59.0677
21
-166.272
0
LINE
8
BLACK
6
CONTINUOUS
10
59.0677
20
-166.272
11
59.163
21
-166.082
0
LINE
8
BLACK
6
CONTINUOUS
10
59.163
20
-166.082
11
59.163
21
-165.606
0
LINE
8
BLACK
6
CONTINUOUS
10
59.163
20
-165.606
11
59.0677
21
-165.415
0
LINE
8
BLACK
6
CONTINUOUS
10
59.0677
20
-165.415
11
58.9725
21
-165.32
0
LINE
8
BLACK
6
CONTINUOUS
10
58.9725
20
-165.32
11
58.782
21
-165.225
0
LINE
8
BLACK
6
CONTINUOUS
10
58.782
20
-165.225
11
58.401
21
-165.225
0
LINE
8
BLACK
6
CONTINUOUS
10
58.401
20
-165.225
11
58.2106
21
-165.32
0
LINE
8
BLACK
6
CONTINUOUS
10
58.2106
20
-165.32
11
58.1153
21
-165.415
0
LINE
8
BLACK
6
CONTINUOUS
10
58.1153
20
-165.415
11
58.0201
21
-165.606
0
LINE
8
BLACK
6
CONTINUOUS
10
60.9725
20
-164.463
11
60.0201
21
-164.463
0
LINE
8
BLACK
6
CONTINUOUS
10
60.0201
20
-164.463
11
59.9249
21
-165.415
0
LINE
8
BLACK
6
CONTINUOUS
10
59.9249
20
-165.415
11
60.0201
21
-165.32
0
LINE
8
BLACK
6
CONTINUOUS
10
60.0201
20
-165.32
11
60.2106
21
-165.225
0
LINE
8
BLACK
6
CONTINUOUS
10
60.2106
20
-165.225
11
60.6868
21
-165.225
0
LINE
8
BLACK
6
CONTINUOUS
10
60.6868
20
-165.225
11
60.8772
21
-165.32
0
LINE
8
BLACK
6
CONTINUOUS
10
60.8772
20
-165.32
11
60.9725
21
-165.415
0
LINE
8
BLACK
6
CONTINUOUS
10
60.9725
20
-165.415
11
61.0677
21
-165.606
0
LINE
8
BLACK
6
CONTINUOUS
10
61.0677
20
-165.606
11
61.0677
21
-166.082
0
LINE
8
BLACK
6
CONTINUOUS
10
61.0677
20
-166.082
11
60.9725
21
-166.272
0
LINE
8
BLACK
6
CONTINUOUS
10
60.9725
20
-166.272
11
60.8772
21
-166.368
0
LINE
8
BLACK
6
CONTINUOUS
10
60.8772
20
-166.368
11
60.6868
21
-166.463
0
LINE
8
BLACK
6
CONTINUOUS
10
60.6868
20
-166.463
11
60.2106
21
-166.463
0
LINE
8
BLACK
6
CONTINUOUS
10
60.2106
20
-166.463
11
60.0201
21
-166.368
0
LINE
8
BLACK
6
CONTINUOUS
10
60.0201
20
-166.368
11
59.9249
21
-166.272
0
LINE
8
BLACK
6
CONTINUOUS
10
62.3058
20
-164.463
11
62.4963
21
-164.463
0
LINE
8
BLACK
6
CONTINUOUS
10
62.4963
20
-164.463
11
62.6868
21
-164.558
0
LINE
8
BLACK
6
CONTINUOUS
10
62.6868
20
-164.558
11
62.782
21
-164.653
0
LINE
8
BLACK
6
CONTINUOUS
10
62.782
20
-164.653
11
62.8772
21
-164.844
0
LINE
8
BLACK
6
CONTINUOUS
10
62.8772
20
-164.844
11
62.9725
21
-165.225
0
LINE
8
BLACK
6
CONTINUOUS
10
62.9725
20
-165.225
11
62.9725
21
-165.701
0
LINE
8
BLACK
6
CONTINUOUS
10
62.9725
20
-165.701
11
62.8772
21
-166.082
0
LINE
8
BLACK
6
CONTINUOUS
10
62.8772
20
-166.082
11
62.782
21
-166.272
0
LINE
8
BLACK
6
CONTINUOUS
10
62.782
20
-166.272
11
62.6868
21
-166.368
0
LINE
8
BLACK
6
CONTINUOUS
10
62.6868
20
-166.368
11
62.4963
21
-166.463
0
LINE
8
BLACK
6
CONTINUOUS
10
62.4963
20
-166.463
11
62.3058
21
-166.463
0
LINE
8
BLACK
6
CONTINUOUS
10
62.3058
20
-166.463
11
62.1153
21
-166.368
0
LINE
8
BLACK
6
CONTINUOUS
10
62.1153
20
-166.368
11
62.0201
21
-166.272
0
LINE
8
BLACK
6
CONTINUOUS
10
62.0201
20
-166.272
11
61.9249
21
-166.082
0
LINE
8
BLACK
6
CONTINUOUS
10
61.9249
20
-166.082
11
61.8296
21
-165.701
0
LINE
8
BLACK
6
CONTINUOUS
10
61.8296
20
-165.701
11
61.8296
21
-165.225
0
LINE
8
BLACK
6
CONTINUOUS
10
61.8296
20
-165.225
11
61.9249
21
-164.844
0
LINE
8
BLACK
6
CONTINUOUS
10
61.9249
20
-164.844
11
62.0201
21
-164.653
0
LINE
8
BLACK
6
CONTINUOUS
10
62.0201
20
-164.653
11
62.1153
21
-164.558
0
LINE
8
BLACK
6
CONTINUOUS
10
62.1153
20
-164.558
11
62.3058
21
-164.463
0
LINE
8
BLACK
6
CONTINUOUS
10
63.8296
20
-166.463
11
63.8296
21
-165.129
0
LINE
8
BLACK
6
CONTINUOUS
10
63.8296
20
-165.32
11
63.9249
21
-165.225
0
LINE
8
BLACK
6
CONTINUOUS
10
63.9249
20
-165.225
11
64.1153
21
-165.129
0
LINE
8
BLACK
6
CONTINUOUS
10
64.1153
20
-165.129
11
64.401
21
-165.129
0
LINE
8
BLACK
6
CONTINUOUS
10
64.401
20
-165.129
11
64.5915
21
-165.225
0
LINE
8
BLACK
6
CONTINUOUS
10
64.5915
20
-165.225
11
64.6868
21
-165.415
0
LINE
8
BLACK
6
CONTINUOUS
10
64.6868
20
-165.415
11
64.6868
21
-166.463
0
LINE
8
BLACK
6
CONTINUOUS
10
64.6868
20
-165.415
11
64.782
21
-165.225
0
LINE
8
BLACK
6
CONTINUOUS
10
64.782
20
-165.225
11
64.9725
21
-165.129
0
LINE
8
BLACK
6
CONTINUOUS
10
64.9725
20
-165.129
11
65.2582
21
-165.129
0
LINE
8
BLACK
6
CONTINUOUS
10
65.2582
20
-165.129
11
65.4487
21
-165.225
0
LINE
8
BLACK
6
CONTINUOUS
10
65.4487
20
-165.225
11
65.5439
21
-165.415
0
LINE
8
BLACK
6
CONTINUOUS
10
65.5439
20
-165.415
11
65.5439
21
-166.463
0
LINE
8
BLACK
6
CONTINUOUS
10
66.4963
20
-166.463
11
66.4963
21
-165.129
0
LINE
8
BLACK
6
CONTINUOUS
10
66.4963
20
-165.32
11
66.5915
21
-165.225
0
LINE
8
BLACK
6
CONTINUOUS
10
66.5915
20
-165.225
11
66.782
21
-165.129
0
LINE
8
BLACK
6
CONTINUOUS
10
66.782
20
-165.129
11
67.0677
21
-165.129
0
LINE
8
BLACK
6
CONTINUOUS
10
67.0677
20
-165.129
11
67.2582
21
-165.225
0
LINE
8
BLACK
6
CONTINUOUS
10
67.2582
20
-165.225
11
67.3534
21
-165.415
0
LINE
8
BLACK
6
CONTINUOUS
10
67.3534
20
-165.415
11
67.3534
21
-166.463
0
LINE
8
BLACK
6
CONTINUOUS
10
67.3534
20
-165.415
11
67.4487
21
-165.225
0
LINE
8
BLACK
6
CONTINUOUS
10
67.4487
20
-165.225
11
67.6391
21
-165.129
0
LINE
8
BLACK
6
CONTINUOUS
10
67.6391
20
-165.129
11
67.9249
21
-165.129
0
LINE
8
BLACK
6
CONTINUOUS
10
67.9249
20
-165.129
11
68.1153
21
-165.225
0
LINE
8
BLACK
6
CONTINUOUS
10
68.1153
20
-165.225
11
68.2106
21
-165.415
0
LINE
8
BLACK
6
CONTINUOUS
10
68.2106
20
-165.415
11
68.2106
21
-166.463
0
LINE
8
BLACK
6
CONTINUOUS
10
72.1153
20
-164.368
11
70.401
21
-166.939
0
LINE
8
BLACK
6
CONTINUOUS
10
74.6868
20
-164.463
11
74.8772
21
-164.463
0
LINE
8
BLACK
6
CONTINUOUS
10
74.8772
20
-164.463
11
75.0677
21
-164.558
0
LINE
8
BLACK
6
CONTINUOUS
10
75.0677
20
-164.558
11
75.163
21
-164.653
0
LINE
8
BLACK
6
CONTINUOUS
10
75.163
20
-164.653
11
75.2582
21
-164.844
0
LINE
8
BLACK
6
CONTINUOUS
10
75.2582
20
-164.844
11
75.3534
21
-165.225
0
LINE
8
BLACK
6
CONTINUOUS
10
75.3534
20
-165.225
11
75.3534
21
-165.701
0
LINE
8
BLACK
6
CONTINUOUS
10
75.3534
20
-165.701
11
75.2582
21
-166.082
0
LINE
8
BLACK
6
CONTINUOUS
10
75.2582
20
-166.082
11
75.163
21
-166.272
0
LINE
8
BLACK
6
CONTINUOUS
10
75.163
20
-166.272
11
75.0677
21
-166.368
0
LINE
8
BLACK
6
CONTINUOUS
10
75.0677
20
-166.368
11
74.8772
21
-166.463
0
LINE
8
BLACK
6
CONTINUOUS
10
74.8772
20
-166.463
11
74.6868
21
-166.463
0
LINE
8
BLACK
6
CONTINUOUS
10
74.6868
20
-166.463
11
74.4963
21
-166.368
0
LINE
8
BLACK
6
CONTINUOUS
10
74.4963
20
-166.368
11
74.401
21
-166.272
0
LINE
8
BLACK
6
CONTINUOUS
10
74.401
20
-166.272
11
74.3058
21
-166.082
0
LINE
8
BLACK
6
CONTINUOUS
10
74.3058
20
-166.082
11
74.2106
21
-165.701
0
LINE
8
BLACK
6
CONTINUOUS
10
74.2106
20
-165.701
11
74.2106
21
-165.225
0
LINE
8
BLACK
6
CONTINUOUS
10
74.2106
20
-165.225
11
74.3058
21
-164.844
0
LINE
8
BLACK
6
CONTINUOUS
10
74.3058
20
-164.844
11
74.401
21
-164.653
0
LINE
8
BLACK
6
CONTINUOUS
10
74.401
20
-164.653
11
74.4963
21
-164.558
0
LINE
8
BLACK
6
CONTINUOUS
10
74.4963
20
-164.558
11
74.6868
21
-164.463
0
LINE
8
BLACK
6
CONTINUOUS
10
76.2106
20
-166.272
11
76.3058
21
-166.368
0
LINE
8
BLACK
6
CONTINUOUS
10
76.3058
20
-166.368
11
76.2106
21
-166.463
0
LINE
8
BLACK
6
CONTINUOUS
10
76.2106
20
-166.463
11
76.1153
21
-166.368
0
LINE
8
BLACK
6
CONTINUOUS
10
76.1153
20
-166.368
11
76.2106
21
-166.272
0
LINE
8
BLACK
6
CONTINUOUS
10
76.2106
20
-166.272
11
76.2106
21
-166.463
0
LINE
8
BLACK
6
CONTINUOUS
10
77.5439
20
-164.463
11
77.7344
21
-164.463
0
LINE
8
BLACK
6
CONTINUOUS
10
77.7344
20
-164.463
11
77.9249
21
-164.558
0
LINE
8
BLACK
6
CONTINUOUS
10
77.9249
20
-164.558
11
78.0201
21
-164.653
0
LINE
8
BLACK
6
CONTINUOUS
10
78.0201
20
-164.653
11
78.1153
21
-164.844
0
LINE
8
BLACK
6
CONTINUOUS
10
78.1153
20
-164.844
11
78.2106
21
-165.225
0
LINE
8
BLACK
6
CONTINUOUS
10
78.2106
20
-165.225
11
78.2106
21
-165.701
0
LINE
8
BLACK
6
CONTINUOUS
10
78.2106
20
-165.701
11
78.1153
21
-166.082
0
LINE
8
BLACK
6
CONTINUOUS
10
78.1153
20
-166.082
11
78.0201
21
-166.272
0
LINE
8
BLACK
6
CONTINUOUS
10
78.0201
20
-166.272
11
77.9249
21
-166.368
0
LINE
8
BLACK
6
CONTINUOUS
10
77.9249
20
-166.368
11
77.7344
21
-166.463
0
LINE
8
BLACK
6
CONTINUOUS
10
77.7344
20
-166.463
11
77.5439
21
-166.463
0
LINE
8
BLACK
6
CONTINUOUS
10
77.5439
20
-166.463
11
77.3534
21
-166.368
0
LINE
8
BLACK
6
CONTINUOUS
10
77.3534
20
-166.368
11
77.2582
21
-166.272
0
LINE
8
BLACK
6
CONTINUOUS
10
77.2582
20
-166.272
11
77.163
21
-166.082
0
LINE
8
BLACK
6
CONTINUOUS
10
77.163
20
-166.082
11
77.0677
21
-165.701
0
LINE
8
BLACK
6
CONTINUOUS
10
77.0677
20
-165.701
11
77.0677
21
-165.225
0
LINE
8
BLACK
6
CONTINUOUS
10
77.0677
20
-165.225
11
77.163
21
-164.844
0
LINE
8
BLACK
6
CONTINUOUS
10
77.163
20
-164.844
11
77.2582
21
-164.653
0
LINE
8
BLACK
6
CONTINUOUS
10
77.2582
20
-164.653
11
77.3534
21
-164.558
0
LINE
8
BLACK
6
CONTINUOUS
10
77.3534
20
-164.558
11
77.5439
21
-164.463
0
LINE
8
BLACK
6
CONTINUOUS
10
78.9725
20
-164.653
11
79.0677
21
-164.558
0
LINE
8
BLACK
6
CONTINUOUS
10
79.0677
20
-164.558
11
79.2582
21
-164.463
0
LINE
8
BLACK
6
CONTINUOUS
10
79.2582
20
-164.463
11
79.7344
21
-164.463
0
LINE
8
BLACK
6
CONTINUOUS
10
79.7344
20
-164.463
11
79.9249
21
-164.558
0
LINE
8
BLACK
6
CONTINUOUS
10
79.9249
20
-164.558
11
80.0201
21
-164.653
0
LINE
8
BLACK
6
CONTINUOUS
10
80.0201
20
-164.653
11
80.1153
21
-164.844
0
LINE
8
BLACK
6
CONTINUOUS
10
80.1153
20
-164.844
11
80.1153
21
-165.034
0
LINE
8
BLACK
6
CONTINUOUS
10
80.1153
20
-165.034
11
80.0201
21
-165.32
0
LINE
8
BLACK
6
CONTINUOUS
10
80.0201
20
-165.32
11
78.8772
21
-166.463
0
LINE
8
BLACK
6
CONTINUOUS
10
78.8772
20
-166.463
11
80.1153
21
-166.463
0
LINE
8
BLACK
6
CONTINUOUS
10
81.9249
20
-164.463
11
80.9725
21
-164.463
0
LINE
8
BLACK
6
CONTINUOUS
10
80.9725
20
-164.463
11
80.8772
21
-165.415
0
LINE
8
BLACK
6
CONTINUOUS
10
80.8772
20
-165.415
11
80.9725
21
-165.32
0
LINE
8
BLACK
6
CONTINUOUS
10
80.9725
20
-165.32
11
81.163
21
-165.225
0
LINE
8
BLACK
6
CONTINUOUS
10
81.163
20
-165.225
11
81.6391
21
-165.225
0
LINE
8
BLACK
6
CONTINUOUS
10
81.6391
20
-165.225
11
81.8296
21
-165.32
0
LINE
8
BLACK
6
CONTINUOUS
10
81.8296
20
-165.32
11
81.9249
21
-165.415
0
LINE
8
BLACK
6
CONTINUOUS
10
81.9249
20
-165.415
11
82.0201
21
-165.606
0
LINE
8
BLACK
6
CONTINUOUS
10
82.0201
20
-165.606
11
82.0201
21
-166.082
0
LINE
8
BLACK
6
CONTINUOUS
10
82.0201
20
-166.082
11
81.9249
21
-166.272
0
LINE
8
BLACK
6
CONTINUOUS
10
81.9249
20
-166.272
11
81.8296
21
-166.368
0
LINE
8
BLACK
6
CONTINUOUS
10
81.8296
20
-166.368
11
81.6391
21
-166.463
0
LINE
8
BLACK
6
CONTINUOUS
10
81.6391
20
-166.463
11
81.163
21
-166.463
0
LINE
8
BLACK
6
CONTINUOUS
10
81.163
20
-166.463
11
80.9725
21
-166.368
0
LINE
8
BLACK
6
CONTINUOUS
10
80.9725
20
-166.368
11
80.8772
21
-166.272
0
LINE
8
BLACK
6
CONTINUOUS
10
83.7344
20
-164.463
11
83.3534
21
-164.463
0
LINE
8
BLACK
6
CONTINUOUS
10
83.3534
20
-164.463
11
83.163
21
-164.558
0
LINE
8
BLACK
6
CONTINUOUS
10
83.163
20
-164.558
11
83.0677
21
-164.653
0
LINE
8
BLACK
6
CONTINUOUS
10
83.0677
20
-164.653
11
82.8772
21
-164.939
0
LINE
8
BLACK
6
CONTINUOUS
10
82.8772
20
-164.939
11
82.782
21
-165.32
0
LINE
8
BLACK
6
CONTINUOUS
10
82.782
20
-165.32
11
82.782
21
-166.082
0
LINE
8
BLACK
6
CONTINUOUS
10
82.782
20
-166.082
11
82.8772
21
-166.272
0
LINE
8
BLACK
6
CONTINUOUS
10
82.8772
20
-166.272
11
82.9725
21
-166.368
0
LINE
8
BLACK
6
CONTINUOUS
10
82.9725
20
-166.368
11
83.163
21
-166.463
0
LINE
8
BLACK
6
CONTINUOUS
10
83.163
20
-166.463
11
83.5439
21
-166.463
0
LINE
8
BLACK
6
CONTINUOUS
10
83.5439
20
-166.463
11
83.7344
21
-166.368
0
LINE
8
BLACK
6
CONTINUOUS
10
83.7344
20
-166.368
11
83.8296
21
-166.272
0
LINE
8
BLACK
6
CONTINUOUS
10
83.8296
20
-166.272
11
83.9249
21
-166.082
0
LINE
8
BLACK
6
CONTINUOUS
10
83.9249
20
-166.082
11
83.9249
21
-165.606
0
LINE
8
BLACK
6
CONTINUOUS
10
83.9249
20
-165.606
11
83.8296
21
-165.415
0
LINE
8
BLACK
6
CONTINUOUS
10
83.8296
20
-165.415
11
83.7344
21
-165.32
0
LINE
8
BLACK
6
CONTINUOUS
10
83.7344
20
-165.32
11
83.5439
21
-165.225
0
LINE
8
BLACK
6
CONTINUOUS
10
83.5439
20
-165.225
11
83.163
21
-165.225
0
LINE
8
BLACK
6
CONTINUOUS
10
83.163
20
-165.225
11
82.9725
21
-165.32
0
LINE
8
BLACK
6
CONTINUOUS
10
82.9725
20
-165.32
11
82.8772
21
-165.415
0
LINE
8
BLACK
6
CONTINUOUS
10
82.8772
20
-165.415
11
82.782
21
-165.606
0
LINE
8
BLACK
6
CONTINUOUS
10
84.6868
20
-164.463
11
84.6868
21
-164.844
0
LINE
8
BLACK
6
CONTINUOUS
10
85.4487
20
-164.463
11
85.4487
21
-164.844
0
LINE
8
BLACK
6
CONTINUOUS
10
88.401
20
-167.225
11
88.3058
21
-167.129
0
LINE
8
BLACK
6
CONTINUOUS
10
88.3058
20
-167.129
11
88.1153
21
-166.844
0
LINE
8
BLACK
6
CONTINUOUS
10
88.1153
20
-166.844
11
88.0201
21
-166.653
0
LINE
8
BLACK
6
CONTINUOUS
10
88.0201
20
-166.653
11
87.9249
21
-166.368
0
LINE
8
BLACK
6
CONTINUOUS
10
87.9249
20
-166.368
11
87.8296
21
-165.891
0
LINE
8
BLACK
6
CONTINUOUS
10
87.8296
20
-165.891
11
87.8296
21
-165.51
0
LINE
8
BLACK
6
CONTINUOUS
10
87.8296
20
-165.51
11
87.9249
21
-165.034
0
LINE
8
BLACK
6
CONTINUOUS
10
87.9249
20
-165.034
11
88.0201
21
-164.748
0
LINE
8
BLACK
6
CONTINUOUS
10
88.0201
20
-164.748
11
88.1153
21
-164.558
0
LINE
8
BLACK
6
CONTINUOUS
10
88.1153
20
-164.558
11
88.3058
21
-164.272
0
LINE
8
BLACK
6
CONTINUOUS
10
88.3058
20
-164.272
11
88.401
21
-164.177
0
LINE
8
BLACK
6
CONTINUOUS
10
89.5439
20
-164.463
11
89.7344
21
-164.463
0
LINE
8
BLACK
6
CONTINUOUS
10
89.7344
20
-164.463
11
89.9249
21
-164.558
0
LINE
8
BLACK
6
CONTINUOUS
10
89.9249
20
-164.558
11
90.0201
21
-164.653
0
LINE
8
BLACK
6
CONTINUOUS
10
90.0201
20
-164.653
11
90.1153
21
-164.844
0
LINE
8
BLACK
6
CONTINUOUS
10
90.1153
20
-164.844
11
90.2106
21
-165.225
0
LINE
8
BLACK
6
CONTINUOUS
10
90.2106
20
-165.225
11
90.2106
21
-165.701
0
LINE
8
BLACK
6
CONTINUOUS
10
90.2106
20
-165.701
11
90.1153
21
-166.082
0
LINE
8
BLACK
6
CONTINUOUS
10
90.1153
20
-166.082
11
90.0201
21
-166.272
0
LINE
8
BLACK
6
CONTINUOUS
10
90.0201
20
-166.272
11
89.9249
21
-166.368
0
LINE
8
BLACK
6
CONTINUOUS
10
89.9249
20
-166.368
11
89.7344
21
-166.463
0
LINE
8
BLACK
6
CONTINUOUS
10
89.7344
20
-166.463
11
89.5439
21
-166.463
0
LINE
8
BLACK
6
CONTINUOUS
10
89.5439
20
-166.463
11
89.3534
21
-166.368
0
LINE
8
BLACK
6
CONTINUOUS
10
89.3534
20
-166.368
11
89.2582
21
-166.272
0
LINE
8
BLACK
6
CONTINUOUS
10
89.2582
20
-166.272
11
89.163
21
-166.082
0
LINE
8
BLACK
6
CONTINUOUS
10
89.163
20
-166.082
11
89.0677
21
-165.701
0
LINE
8
BLACK
6
CONTINUOUS
10
89.0677
20
-165.701
11
89.0677
21
-165.225
0
LINE
8
BLACK
6
CONTINUOUS
10
89.0677
20
-165.225
11
89.163
21
-164.844
0
LINE
8
BLACK
6
CONTINUOUS
10
89.163
20
-164.844
11
89.2582
21
-164.653
0
LINE
8
BLACK
6
CONTINUOUS
10
89.2582
20
-164.653
11
89.3534
21
-164.558
0
LINE
8
BLACK
6
CONTINUOUS
10
89.3534
20
-164.558
11
89.5439
21
-164.463
0
LINE
8
BLACK
6
CONTINUOUS
10
92.5915
20
-166.463
11
92.5915
21
-164.463
0
LINE
8
BLACK
6
CONTINUOUS
10
93.4487
20
-166.463
11
93.4487
21
-165.415
0
LINE
8
BLACK
6
CONTINUOUS
10
93.4487
20
-165.415
11
93.3534
21
-165.225
0
LINE
8
BLACK
6
CONTINUOUS
10
93.3534
20
-165.225
11
93.163
21
-165.129
0
LINE
8
BLACK
6
CONTINUOUS
10
93.163
20
-165.129
11
92.8772
21
-165.129
0
LINE
8
BLACK
6
CONTINUOUS
10
92.8772
20
-165.129
11
92.6868
21
-165.225
0
LINE
8
BLACK
6
CONTINUOUS
10
92.6868
20
-165.225
11
92.5915
21
-165.32
0
LINE
8
BLACK
6
CONTINUOUS
10
94.6868
20
-166.463
11
94.4963
21
-166.368
0
LINE
8
BLACK
6
CONTINUOUS
10
94.4963
20
-166.368
11
94.401
21
-166.272
0
LINE
8
BLACK
6
CONTINUOUS
10
94.401
20
-166.272
11
94.3058
21
-166.082
0
LINE
8
BLACK
6
CONTINUOUS
10
94.3058
20
-166.082
11
94.3058
21
-165.51
0
LINE
8
BLACK
6
CONTINUOUS
10
94.3058
20
-165.51
11
94.401
21
-165.32
0
LINE
8
BLACK
6
CONTINUOUS
10
94.401
20
-165.32
11
94.4963
21
-165.225
0
LINE
8
BLACK
6
CONTINUOUS
10
94.4963
20
-165.225
11
94.6868
21
-165.129
0
LINE
8
BLACK
6
CONTINUOUS
10
94.6868
20
-165.129
11
94.9725
21
-165.129
0
LINE
8
BLACK
6
CONTINUOUS
10
94.9725
20
-165.129
11
95.163
21
-165.225
0
LINE
8
BLACK
6
CONTINUOUS
10
95.163
20
-165.225
11
95.2582
21
-165.32
0
LINE
8
BLACK
6
CONTINUOUS
10
95.2582
20
-165.32
11
95.3534
21
-165.51
0
LINE
8
BLACK
6
CONTINUOUS
10
95.3534
20
-165.51
11
95.3534
21
-166.082
0
LINE
8
BLACK
6
CONTINUOUS
10
95.3534
20
-166.082
11
95.2582
21
-166.272
0
LINE
8
BLACK
6
CONTINUOUS
10
95.2582
20
-166.272
11
95.163
21
-166.368
0
LINE
8
BLACK
6
CONTINUOUS
10
95.163
20
-166.368
11
94.9725
21
-166.463
0
LINE
8
BLACK
6
CONTINUOUS
10
94.9725
20
-166.463
11
94.6868
21
-166.463
0
LINE
8
BLACK
6
CONTINUOUS
10
96.4963
20
-166.463
11
96.3058
21
-166.368
0
LINE
8
BLACK
6
CONTINUOUS
10
96.3058
20
-166.368
11
96.2106
21
-166.177
0
LINE
8
BLACK
6
CONTINUOUS
10
96.2106
20
-166.177
11
96.2106
21
-164.463
0
LINE
8
BLACK
6
CONTINUOUS
10
98.0201
20
-166.368
11
97.8296
21
-166.463
0
LINE
8
BLACK
6
CONTINUOUS
10
97.8296
20
-166.463
11
97.4487
21
-166.463
0
LINE
8
BLACK
6
CONTINUOUS
10
97.4487
20
-166.463
11
97.2582
21
-166.368
0
LINE
8
BLACK
6
CONTINUOUS
10
97.2582
20
-166.368
11
97.163
21
-166.177
0
LINE
8
BLACK
6
CONTINUOUS
10
97.163
20
-166.177
11
97.163
21
-165.415
0
LINE
8
BLACK
6
CONTINUOUS
10
97.163
20
-165.415
11
97.2582
21
-165.225
0
LINE
8
BLACK
6
CONTINUOUS
10
97.2582
20
-165.225
11
97.4487
21
-165.129
0
LINE
8
BLACK
6
CONTINUOUS
10
97.4487
20
-165.129
11
97.8296
21
-165.129
0
LINE
8
BLACK
6
CONTINUOUS
10
97.8296
20
-165.129
11
98.0201
21
-165.225
0
LINE
8
BLACK
6
CONTINUOUS
10
98.0201
20
-165.225
11
98.1153
21
-165.415
0
LINE
8
BLACK
6
CONTINUOUS
10
98.1153
20
-165.415
11
98.1153
21
-165.606
0
LINE
8
BLACK
6
CONTINUOUS
10
98.1153
20
-165.606
11
97.163
21
-165.796
0
LINE
8
BLACK
6
CONTINUOUS
10
98.8772
20
-166.368
11
99.0677
21
-166.463
0
LINE
8
BLACK
6
CONTINUOUS
10
99.0677
20
-166.463
11
99.4487
21
-166.463
0
LINE
8
BLACK
6
CONTINUOUS
10
99.4487
20
-166.463
11
99.6391
21
-166.368
0
LINE
8
BLACK
6
CONTINUOUS
10
99.6391
20
-166.368
11
99.7344
21
-166.177
0
LINE
8
BLACK
6
CONTINUOUS
10
99.7344
20
-166.177
11
99.7344
21
-166.082
0
LINE
8
BLACK
6
CONTINUOUS
10
99.7344
20
-166.082
11
99.6391
21
-165.891
0
LINE
8
BLACK
6
CONTINUOUS
10
99.6391
20
-165.891
11
99.4487
21
-165.796
0
LINE
8
BLACK
6
CONTINUOUS
10
99.4487
20
-165.796
11
99.163
21
-165.796
0
LINE
8
BLACK
6
CONTINUOUS
10
99.163
20
-165.796
11
98.9725
21
-165.701
0
LINE
8
BLACK
6
CONTINUOUS
10
98.9725
20
-165.701
11
98.8772
21
-165.51
0
LINE
8
BLACK
6
CONTINUOUS
10
98.8772
20
-165.51
11
98.8772
21
-165.415
0
LINE
8
BLACK
6
CONTINUOUS
10
98.8772
20
-165.415
11
98.9725
21
-165.225
0
LINE
8
BLACK
6
CONTINUOUS
10
98.9725
20
-165.225
11
99.163
21
-165.129
0
LINE
8
BLACK
6
CONTINUOUS
10
99.163
20
-165.129
11
99.4487
21
-165.129
0
LINE
8
BLACK
6
CONTINUOUS
10
99.4487
20
-165.129
11
99.6391
21
-165.225
0
LINE
8
BLACK
6
CONTINUOUS
10
102.115
20
-165.701
11
103.639
21
-165.701
0
LINE
8
BLACK
6
CONTINUOUS
10
102.877
20
-166.463
11
102.877
21
-164.939
0
LINE
8
BLACK
6
CONTINUOUS
10
106.02
20
-164.653
11
106.115
21
-164.558
0
LINE
8
BLACK
6
CONTINUOUS
10
106.115
20
-164.558
11
106.306
21
-164.463
0
LINE
8
BLACK
6
CONTINUOUS
10
106.306
20
-164.463
11
106.782
21
-164.463
0
LINE
8
BLACK
6
CONTINUOUS
10
106.782
20
-164.463
11
106.972
21
-164.558
0
LINE
8
BLACK
6
CONTINUOUS
10
106.972
20
-164.558
11
107.068
21
-164.653
0
LINE
8
BLACK
6
CONTINUOUS
10
107.068
20
-164.653
11
107.163
21
-164.844
0
LINE
8
BLACK
6
CONTINUOUS
10
107.163
20
-164.844
11
107.163
21
-165.034
0
LINE
8
BLACK
6
CONTINUOUS
10
107.163
20
-165.034
11
107.068
21
-165.32
0
LINE
8
BLACK
6
CONTINUOUS
10
107.068
20
-165.32
11
105.925
21
-166.463
0
LINE
8
BLACK
6
CONTINUOUS
10
105.925
20
-166.463
11
107.163
21
-166.463
0
LINE
8
BLACK
6
CONTINUOUS
10
109.449
20
-166.368
11
109.639
21
-166.463
0
LINE
8
BLACK
6
CONTINUOUS
10
109.639
20
-166.463
11
110.02
21
-166.463
0
LINE
8
BLACK
6
CONTINUOUS
10
110.02
20
-166.463
11
110.211
21
-166.368
0
LINE
8
BLACK
6
CONTINUOUS
10
110.211
20
-166.368
11
110.306
21
-166.177
0
LINE
8
BLACK
6
CONTINUOUS
10
110.306
20
-166.177
11
110.306
21
-166.082
0
LINE
8
BLACK
6
CONTINUOUS
10
110.306
20
-166.082
11
110.211
21
-165.891
0
LINE
8
BLACK
6
CONTINUOUS
10
110.211
20
-165.891
11
110.02
21
-165.796
0
LINE
8
BLACK
6
CONTINUOUS
10
110.02
20
-165.796
11
109.734
21
-165.796
0
LINE
8
BLACK
6
CONTINUOUS
10
109.734
20
-165.796
11
109.544
21
-165.701
0
LINE
8
BLACK
6
CONTINUOUS
10
109.544
20
-165.701
11
109.449
21
-165.51
0
LINE
8
BLACK
6
CONTINUOUS
10
109.449
20
-165.51
11
109.449
21
-165.415
0
LINE
8
BLACK
6
CONTINUOUS
10
109.449
20
-165.415
11
109.544
21
-165.225
0
LINE
8
BLACK
6
CONTINUOUS
10
109.544
20
-165.225
11
109.734
21
-165.129
0
LINE
8
BLACK
6
CONTINUOUS
10
109.734
20
-165.129
11
110.02
21
-165.129
0
LINE
8
BLACK
6
CONTINUOUS
10
110.02
20
-165.129
11
110.211
21
-165.225
0
LINE
8
BLACK
6
CONTINUOUS
10
111.449
20
-166.463
11
111.258
21
-166.368
0
LINE
8
BLACK
6
CONTINUOUS
10
111.258
20
-166.368
11
111.163
21
-166.177
0
LINE
8
BLACK
6
CONTINUOUS
10
111.163
20
-166.177
11
111.163
21
-164.463
0
LINE
8
BLACK
6
CONTINUOUS
10
112.496
20
-166.463
11
112.306
21
-166.368
0
LINE
8
BLACK
6
CONTINUOUS
10
112.306
20
-166.368
11
112.211
21
-166.272
0
LINE
8
BLACK
6
CONTINUOUS
10
112.211
20
-166.272
11
112.115
21
-166.082
0
LINE
8
BLACK
6
CONTINUOUS
10
112.115
20
-166.082
11
112.115
21
-165.51
0
LINE
8
BLACK
6
CONTINUOUS
10
112.115
20
-165.51
11
112.211
21
-165.32
0
LINE
8
BLACK
6
CONTINUOUS
10
112.211
20
-165.32
11
112.306
21
-165.225
0
LINE
8
BLACK
6
CONTINUOUS
10
112.306
20
-165.225
11
112.496
21
-165.129
0
LINE
8
BLACK
6
CONTINUOUS
10
112.496
20
-165.129
11
112.782
21
-165.129
0
LINE
8
BLACK
6
CONTINUOUS
10
112.782
20
-165.129
11
112.972
21
-165.225
0
LINE
8
BLACK
6
CONTINUOUS
10
112.972
20
-165.225
11
113.068
21
-165.32
0
LINE
8
BLACK
6
CONTINUOUS
10
113.068
20
-165.32
11
113.163
21
-165.51
0
LINE
8
BLACK
6
CONTINUOUS
10
113.163
20
-165.51
11
113.163
21
-166.082
0
LINE
8
BLACK
6
CONTINUOUS
10
113.163
20
-166.082
11
113.068
21
-166.272
0
LINE
8
BLACK
6
CONTINUOUS
10
113.068
20
-166.272
11
112.972
21
-166.368
0
LINE
8
BLACK
6
CONTINUOUS
10
112.972
20
-166.368
11
112.782
21
-166.463
0
LINE
8
BLACK
6
CONTINUOUS
10
112.782
20
-166.463
11
112.496
21
-166.463
0
LINE
8
BLACK
6
CONTINUOUS
10
113.734
20
-165.129
11
114.496
21
-165.129
0
LINE
8
BLACK
6
CONTINUOUS
10
114.02
20
-164.463
11
114.02
21
-166.177
0
LINE
8
BLACK
6
CONTINUOUS
10
114.02
20
-166.177
11
114.115
21
-166.368
0
LINE
8
BLACK
6
CONTINUOUS
10
114.115
20
-166.368
11
114.306
21
-166.463
0
LINE
8
BLACK
6
CONTINUOUS
10
114.306
20
-166.463
11
114.496
21
-166.463
0
LINE
8
BLACK
6
CONTINUOUS
10
115.068
20
-166.368
11
115.258
21
-166.463
0
LINE
8
BLACK
6
CONTINUOUS
10
115.258
20
-166.463
11
115.639
21
-166.463
0
LINE
8
BLACK
6
CONTINUOUS
10
115.639
20
-166.463
11
115.83
21
-166.368
0
LINE
8
BLACK
6
CONTINUOUS
10
115.83
20
-166.368
11
115.925
21
-166.177
0
LINE
8
BLACK
6
CONTINUOUS
10
115.925
20
-166.177
11
115.925
21
-166.082
0
LINE
8
BLACK
6
CONTINUOUS
10
115.925
20
-166.082
11
115.83
21
-165.891
0
LINE
8
BLACK
6
CONTINUOUS
10
115.83
20
-165.891
11
115.639
21
-165.796
0
LINE
8
BLACK
6
CONTINUOUS
10
115.639
20
-165.796
11
115.353
21
-165.796
0
LINE
8
BLACK
6
CONTINUOUS
10
115.353
20
-165.796
11
115.163
21
-165.701
0
LINE
8
BLACK
6
CONTINUOUS
10
115.163
20
-165.701
11
115.068
21
-165.51
0
LINE
8
BLACK
6
CONTINUOUS
10
115.068
20
-165.51
11
115.068
21
-165.415
0
LINE
8
BLACK
6
CONTINUOUS
10
115.068
20
-165.415
11
115.163
21
-165.225
0
LINE
8
BLACK
6
CONTINUOUS
10
115.163
20
-165.225
11
115.353
21
-165.129
0
LINE
8
BLACK
6
CONTINUOUS
10
115.353
20
-165.129
11
115.639
21
-165.129
0
LINE
8
BLACK
6
CONTINUOUS
10
115.639
20
-165.129
11
115.83
21
-165.225
0
LINE
8
BLACK
6
CONTINUOUS
10
116.592
20
-167.225
11
116.687
21
-167.129
0
LINE
8
BLACK
6
CONTINUOUS
10
116.687
20
-167.129
11
116.877
21
-166.844
0
LINE
8
BLACK
6
CONTINUOUS
10
116.877
20
-166.844
11
116.972
21
-166.653
0
LINE
8
BLACK
6
CONTINUOUS
10
116.972
20
-166.653
11
117.068
21
-166.368
0
LINE
8
BLACK
6
CONTINUOUS
10
117.068
20
-166.368
11
117.163
21
-165.891
0
LINE
8
BLACK
6
CONTINUOUS
10
117.163
20
-165.891
11
117.163
21
-165.51
0
LINE
8
BLACK
6
CONTINUOUS
10
117.163
20
-165.51
11
117.068
21
-165.034
0
LINE
8
BLACK
6
CONTINUOUS
10
117.068
20
-165.034
11
116.972
21
-164.748
0
LINE
8
BLACK
6
CONTINUOUS
10
116.972
20
-164.748
11
116.877
21
-164.558
0
LINE
8
BLACK
6
CONTINUOUS
10
116.877
20
-164.558
11
116.687
21
-164.272
0
LINE
8
BLACK
6
CONTINUOUS
10
116.687
20
-164.272
11
116.592
21
-164.177
0
LINE
8
BLACK
6
CONTINUOUS
10
52.267
20
-167.783
11
52.267
21
-168.613
0
LINE
8
BLACK
6
CONTINUOUS
10
51.852
20
-168.198
11
52.682
21
-168.198
0
LINE
8
BLACK
6
CONTINUOUS
10
55.6391
20
-167.103
11
55.8296
21
-167.103
0
LINE
8
BLACK
6
CONTINUOUS
10
55.8296
20
-167.103
11
56.0201
21
-167.198
0
LINE
8
BLACK
6
CONTINUOUS
10
56.0201
20
-167.198
11
56.1153
21
-167.293
0
LINE
8
BLACK
6
CONTINUOUS
10
56.1153
20
-167.293
11
56.2106
21
-167.484
0
LINE
8
BLACK
6
CONTINUOUS
10
56.2106
20
-167.484
11
56.3058
21
-167.865
0
LINE
8
BLACK
6
CONTINUOUS
10
56.3058
20
-167.865
11
56.3058
21
-168.341
0
LINE
8
BLACK
6
CONTINUOUS
10
56.3058
20
-168.341
11
56.2106
21
-168.722
0
LINE
8
BLACK
6
CONTINUOUS
10
56.2106
20
-168.722
11
56.1153
21
-168.912
0
LINE
8
BLACK
6
CONTINUOUS
10
56.1153
20
-168.912
11
56.0201
21
-169.008
0
LINE
8
BLACK
6
CONTINUOUS
10
56.0201
20
-169.008
11
55.8296
21
-169.103
0
LINE
8
BLACK
6
CONTINUOUS
10
55.8296
20
-169.103
11
55.6391
21
-169.103
0
LINE
8
BLACK
6
CONTINUOUS
10
55.6391
20
-169.103
11
55.4487
21
-169.008
0
LINE
8
BLACK
6
CONTINUOUS
10
55.4487
20
-169.008
11
55.3534
21
-168.912
0
LINE
8
BLACK
6
CONTINUOUS
10
55.3534
20
-168.912
11
55.2582
21
-168.722
0
LINE
8
BLACK
6
CONTINUOUS
10
55.2582
20
-168.722
11
55.163
21
-168.341
0
LINE
8
BLACK
6
CONTINUOUS
10
55.163
20
-168.341
11
55.163
21
-167.865
0
LINE
8
BLACK
6
CONTINUOUS
10
55.163
20
-167.865
11
55.2582
21
-167.484
0
LINE
8
BLACK
6
CONTINUOUS
10
55.2582
20
-167.484
11
55.3534
21
-167.293
0
LINE
8
BLACK
6
CONTINUOUS
10
55.3534
20
-167.293
11
55.4487
21
-167.198
0
LINE
8
BLACK
6
CONTINUOUS
10
55.4487
20
-167.198
11
55.6391
21
-167.103
0
LINE
8
BLACK
6
CONTINUOUS
10
57.163
20
-168.912
11
57.2582
21
-169.008
0
LINE
8
BLACK
6
CONTINUOUS
10
57.2582
20
-169.008
11
57.163
21
-169.103
0
LINE
8
BLACK
6
CONTINUOUS
10
57.163
20
-169.103
11
57.0677
21
-169.008
0
LINE
8
BLACK
6
CONTINUOUS
10
57.0677
20
-169.008
11
57.163
21
-168.912
0
LINE
8
BLACK
6
CONTINUOUS
10
57.163
20
-168.912
11
57.163
21
-169.103
0
LINE
8
BLACK
6
CONTINUOUS
10
58.401
20
-167.96
11
58.2106
21
-167.865
0
LINE
8
BLACK
6
CONTINUOUS
10
58.2106
20
-167.865
11
58.1153
21
-167.769
0
LINE
8
BLACK
6
CONTINUOUS
10
58.1153
20
-167.769
11
58.0201
21
-167.579
0
LINE
8
BLACK
6
CONTINUOUS
10
58.0201
20
-167.579
11
58.0201
21
-167.484
0
LINE
8
BLACK
6
CONTINUOUS
10
58.0201
20
-167.484
11
58.1153
21
-167.293
0
LINE
8
BLACK
6
CONTINUOUS
10
58.1153
20
-167.293
11
58.2106
21
-167.198
0
LINE
8
BLACK
6
CONTINUOUS
10
58.2106
20
-167.198
11
58.401
21
-167.103
0
LINE
8
BLACK
6
CONTINUOUS
10
58.401
20
-167.103
11
58.782
21
-167.103
0
LINE
8
BLACK
6
CONTINUOUS
10
58.782
20
-167.103
11
58.9725
21
-167.198
0
LINE
8
BLACK
6
CONTINUOUS
10
58.9725
20
-167.198
11
59.0677
21
-167.293
0
LINE
8
BLACK
6
CONTINUOUS
10
59.0677
20
-167.293
11
59.163
21
-167.484
0
LINE
8
BLACK
6
CONTINUOUS
10
59.163
20
-167.484
11
59.163
21
-167.579
0
LINE
8
BLACK
6
CONTINUOUS
10
59.163
20
-167.579
11
59.0677
21
-167.769
0
LINE
8
BLACK
6
CONTINUOUS
10
59.0677
20
-167.769
11
58.9725
21
-167.865
0
LINE
8
BLACK
6
CONTINUOUS
10
58.9725
20
-167.865
11
58.782
21
-167.96
0
LINE
8
BLACK
6
CONTINUOUS
10
58.782
20
-167.96
11
58.401
21
-167.96
0
LINE
8
BLACK
6
CONTINUOUS
10
58.401
20
-167.96
11
58.2106
21
-168.055
0
LINE
8
BLACK
6
CONTINUOUS
10
58.2106
20
-168.055
11
58.1153
21
-168.15
0
LINE
8
BLACK
6
CONTINUOUS
10
58.1153
20
-168.15
11
58.0201
21
-168.341
0
LINE
8
BLACK
6
CONTINUOUS
10
58.0201
20
-168.341
11
58.0201
21
-168.722
0
LINE
8
BLACK
6
CONTINUOUS
10
58.0201
20
-168.722
11
58.1153
21
-168.912
0
LINE
8
BLACK
6
CONTINUOUS
10
58.1153
20
-168.912
11
58.2106
21
-169.008
0
LINE
8
BLACK
6
CONTINUOUS
10
58.2106
20
-169.008
11
58.401
21
-169.103
0
LINE
8
BLACK
6
CONTINUOUS
10
58.401
20
-169.103
11
58.782
21
-169.103
0
LINE
8
BLACK
6
CONTINUOUS
10
58.782
20
-169.103
11
58.9725
21
-169.008
0
LINE
8
BLACK
6
CONTINUOUS
10
58.9725
20
-169.008
11
59.0677
21
-168.912
0
LINE
8
BLACK
6
CONTINUOUS
10
59.0677
20
-168.912
11
59.163
21
-168.722
0
LINE
8
BLACK
6
CONTINUOUS
10
59.163
20
-168.722
11
59.163
21
-168.341
0
LINE
8
BLACK
6
CONTINUOUS
10
59.163
20
-168.341
11
59.0677
21
-168.15
0
LINE
8
BLACK
6
CONTINUOUS
10
59.0677
20
-168.15
11
58.9725
21
-168.055
0
LINE
8
BLACK
6
CONTINUOUS
10
58.9725
20
-168.055
11
58.782
21
-167.96
0
LINE
8
BLACK
6
CONTINUOUS
10
59.8296
20
-167.103
11
61.0677
21
-167.103
0
LINE
8
BLACK
6
CONTINUOUS
10
61.0677
20
-167.103
11
60.401
21
-167.865
0
LINE
8
BLACK
6
CONTINUOUS
10
60.401
20
-167.865
11
60.6868
21
-167.865
0
LINE
8
BLACK
6
CONTINUOUS
10
60.6868
20
-167.865
11
60.8772
21
-167.96
0
LINE
8
BLACK
6
CONTINUOUS
10
60.8772
20
-167.96
11
60.9725
21
-168.055
0
LINE
8
BLACK
6
CONTINUOUS
10
60.9725
20
-168.055
11
61.0677
21
-168.246
0
LINE
8
BLACK
6
CONTINUOUS
10
61.0677
20
-168.246
11
61.0677
21
-168.722
0
LINE
8
BLACK
6
CONTINUOUS
10
61.0677
20
-168.722
11
60.9725
21
-168.912
0
LINE
8
BLACK
6
CONTINUOUS
10
60.9725
20
-168.912
11
60.8772
21
-169.008
0
LINE
8
BLACK
6
CONTINUOUS
10
60.8772
20
-169.008
11
60.6868
21
-169.103
0
LINE
8
BLACK
6
CONTINUOUS
10
60.6868
20
-169.103
11
60.1153
21
-169.103
0
LINE
8
BLACK
6
CONTINUOUS
10
60.1153
20
-169.103
11
59.9249
21
-169.008
0
LINE
8
BLACK
6
CONTINUOUS
10
59.9249
20
-169.008
11
59.8296
21
-168.912
0
LINE
8
BLACK
6
CONTINUOUS
10
62.3058
20
-167.103
11
62.4963
21
-167.103
0
LINE
8
BLACK
6
CONTINUOUS
10
62.4963
20
-167.103
11
62.6868
21
-167.198
0
LINE
8
BLACK
6
CONTINUOUS
10
62.6868
20
-167.198
11
62.782
21
-167.293
0
LINE
8
BLACK
6
CONTINUOUS
10
62.782
20
-167.293
11
62.8772
21
-167.484
0
LINE
8
BLACK
6
CONTINUOUS
10
62.8772
20
-167.484
11
62.9725
21
-167.865
0
LINE
8
BLACK
6
CONTINUOUS
10
62.9725
20
-167.865
11
62.9725
21
-168.341
0
LINE
8
BLACK
6
CONTINUOUS
10
62.9725
20
-168.341
11
62.8772
21
-168.722
0
LINE
8
BLACK
6
CONTINUOUS
10
62.8772
20
-168.722
11
62.782
21
-168.912
0
LINE
8
BLACK
6
CONTINUOUS
10
62.782
20
-168.912
11
62.6868
21
-169.008
0
LINE
8
BLACK
6
CONTINUOUS
10
62.6868
20
-169.008
11
62.4963
21
-169.103
0
LINE
8
BLACK
6
CONTINUOUS
10
62.4963
20
-169.103
11
62.3058
21
-169.103
0
LINE
8
BLACK
6
CONTINUOUS
10
62.3058
20
-169.103
11
62.1153
21
-169.008
0
LINE
8
BLACK
6
CONTINUOUS
10
62.1153
20
-169.008
11
62.0201
21
-168.912
0
LINE
8
BLACK
6
CONTINUOUS
10
62.0201
20
-168.912
11
61.9249
21
-168.722
0
LINE
8
BLACK
6
CONTINUOUS
10
61.9249
20
-168.722
11
61.8296
21
-168.341
0
LINE
8
BLACK
6
CONTINUOUS
10
61.8296
20
-168.341
11
61.8296
21
-167.865
0
LINE
8
BLACK
6
CONTINUOUS
10
61.8296
20
-167.865
11
61.9249
21
-167.484
0
LINE
8
BLACK
6
CONTINUOUS
10
61.9249
20
-167.484
11
62.0201
21
-167.293
0
LINE
8
BLACK
6
CONTINUOUS
10
62.0201
20
-167.293
11
62.1153
21
-167.198
0
LINE
8
BLACK
6
CONTINUOUS
10
62.1153
20
-167.198
11
62.3058
21
-167.103
0
LINE
8
BLACK
6
CONTINUOUS
10
63.8296
20
-169.103
11
63.8296
21
-167.769
0
LINE
8
BLACK
6
CONTINUOUS
10
63.8296
20
-167.96
11
63.9249
21
-167.865
0
LINE
8
BLACK
6
CONTINUOUS
10
63.9249
20
-167.865
11
64.1153
21
-167.769
0
LINE
8
BLACK
6
CONTINUOUS
10
64.1153
20
-167.769
11
64.401
21
-167.769
0
LINE
8
BLACK
6
CONTINUOUS
10
64.401
20
-167.769
11
64.5915
21
-167.865
0
LINE
8
BLACK
6
CONTINUOUS
10
64.5915
20
-167.865
11
64.6868
21
-168.055
0
LINE
8
BLACK
6
CONTINUOUS
10
64.6868
20
-168.055
11
64.6868
21
-169.103
0
LINE
8
BLACK
6
CONTINUOUS
10
64.6868
20
-168.055
11
64.782
21
-167.865
0
LINE
8
BLACK
6
CONTINUOUS
10
64.782
20
-167.865
11
64.9725
21
-167.769
0
LINE
8
BLACK
6
CONTINUOUS
10
64.9725
20
-167.769
11
65.2582
21
-167.769
0
LINE
8
BLACK
6
CONTINUOUS
10
65.2582
20
-167.769
11
65.4487
21
-167.865
0
LINE
8
BLACK
6
CONTINUOUS
10
65.4487
20
-167.865
11
65.5439
21
-168.055
0
LINE
8
BLACK
6
CONTINUOUS
10
65.5439
20
-168.055
11
65.5439
21
-169.103
0
LINE
8
BLACK
6
CONTINUOUS
10
66.4963
20
-169.103
11
66.4963
21
-167.769
0
LINE
8
BLACK
6
CONTINUOUS
10
66.4963
20
-167.96
11
66.5915
21
-167.865
0
LINE
8
BLACK
6
CONTINUOUS
10
66.5915
20
-167.865
11
66.782
21
-167.769
0
LINE
8
BLACK
6
CONTINUOUS
10
66.782
20
-167.769
11
67.0677
21
-167.769
0
LINE
8
BLACK
6
CONTINUOUS
10
67.0677
20
-167.769
11
67.2582
21
-167.865
0
LINE
8
BLACK
6
CONTINUOUS
10
67.2582
20
-167.865
11
67.3534
21
-168.055
0
LINE
8
BLACK
6
CONTINUOUS
10
67.3534
20
-168.055
11
67.3534
21
-169.103
0
LINE
8
BLACK
6
CONTINUOUS
10
67.3534
20
-168.055
11
67.4487
21
-167.865
0
LINE
8
BLACK
6
CONTINUOUS
10
67.4487
20
-167.865
11
67.6391
21
-167.769
0
LINE
8
BLACK
6
CONTINUOUS
10
67.6391
20
-167.769
11
67.9249
21
-167.769
0
LINE
8
BLACK
6
CONTINUOUS
10
67.9249
20
-167.769
11
68.1153
21
-167.865
0
LINE
8
BLACK
6
CONTINUOUS
10
68.1153
20
-167.865
11
68.2106
21
-168.055
0
LINE
8
BLACK
6
CONTINUOUS
10
68.2106
20
-168.055
11
68.2106
21
-169.103
0
LINE
8
BLACK
6
CONTINUOUS
10
72.1153
20
-167.008
11
70.401
21
-169.579
0
LINE
8
BLACK
6
CONTINUOUS
10
74.6868
20
-167.103
11
74.8772
21
-167.103
0
LINE
8
BLACK
6
CONTINUOUS
10
74.8772
20
-167.103
11
75.0677
21
-167.198
0
LINE
8
BLACK
6
CONTINUOUS
10
75.0677
20
-167.198
11
75.163
21
-167.293
0
LINE
8
BLACK
6
CONTINUOUS
10
75.163
20
-167.293
11
75.2582
21
-167.484
0
LINE
8
BLACK
6
CONTINUOUS
10
75.2582
20
-167.484
11
75.3534
21
-167.865
0
LINE
8
BLACK
6
CONTINUOUS
10
75.3534
20
-167.865
11
75.3534
21
-168.341
0
LINE
8
BLACK
6
CONTINUOUS
10
75.3534
20
-168.341
11
75.2582
21
-168.722
0
LINE
8
BLACK
6
CONTINUOUS
10
75.2582
20
-168.722
11
75.163
21
-168.912
0
LINE
8
BLACK
6
CONTINUOUS
10
75.163
20
-168.912
11
75.0677
21
-169.008
0
LINE
8
BLACK
6
CONTINUOUS
10
75.0677
20
-169.008
11
74.8772
21
-169.103
0
LINE
8
BLACK
6
CONTINUOUS
10
74.8772
20
-169.103
11
74.6868
21
-169.103
0
LINE
8
BLACK
6
CONTINUOUS
10
74.6868
20
-169.103
11
74.4963
21
-169.008
0
LINE
8
BLACK
6
CONTINUOUS
10
74.4963
20
-169.008
11
74.401
21
-168.912
0
LINE
8
BLACK
6
CONTINUOUS
10
74.401
20
-168.912
11
74.3058
21
-168.722
0
LINE
8
BLACK
6
CONTINUOUS
10
74.3058
20
-168.722
11
74.2106
21
-168.341
0
LINE
8
BLACK
6
CONTINUOUS
10
74.2106
20
-168.341
11
74.2106
21
-167.865
0
LINE
8
BLACK
6
CONTINUOUS
10
74.2106
20
-167.865
11
74.3058
21
-167.484
0
LINE
8
BLACK
6
CONTINUOUS
10
74.3058
20
-167.484
11
74.401
21
-167.293
0
LINE
8
BLACK
6
CONTINUOUS
10
74.401
20
-167.293
11
74.4963
21
-167.198
0
LINE
8
BLACK
6
CONTINUOUS
10
74.4963
20
-167.198
11
74.6868
21
-167.103
0
LINE
8
BLACK
6
CONTINUOUS
10
76.2106
20
-168.912
11
76.3058
21
-169.008
0
LINE
8
BLACK
6
CONTINUOUS
10
76.3058
20
-169.008
11
76.2106
21
-169.103
0
LINE
8
BLACK
6
CONTINUOUS
10
76.2106
20
-169.103
11
76.1153
21
-169.008
0
LINE
8
BLACK
6
CONTINUOUS
10
76.1153
20
-169.008
11
76.2106
21
-168.912
0
LINE
8
BLACK
6
CONTINUOUS
10
76.2106
20
-168.912
11
76.2106
21
-169.103
0
LINE
8
BLACK
6
CONTINUOUS
10
77.5439
20
-167.103
11
77.7344
21
-167.103
0
LINE
8
BLACK
6
CONTINUOUS
10
77.7344
20
-167.103
11
77.9249
21
-167.198
0
LINE
8
BLACK
6
CONTINUOUS
10
77.9249
20
-167.198
11
78.0201
21
-167.293
0
LINE
8
BLACK
6
CONTINUOUS
10
78.0201
20
-167.293
11
78.1153
21
-167.484
0
LINE
8
BLACK
6
CONTINUOUS
10
78.1153
20
-167.484
11
78.2106
21
-167.865
0
LINE
8
BLACK
6
CONTINUOUS
10
78.2106
20
-167.865
11
78.2106
21
-168.341
0
LINE
8
BLACK
6
CONTINUOUS
10
78.2106
20
-168.341
11
78.1153
21
-168.722
0
LINE
8
BLACK
6
CONTINUOUS
10
78.1153
20
-168.722
11
78.0201
21
-168.912
0
LINE
8
BLACK
6
CONTINUOUS
10
78.0201
20
-168.912
11
77.9249
21
-169.008
0
LINE
8
BLACK
6
CONTINUOUS
10
77.9249
20
-169.008
11
77.7344
21
-169.103
0
LINE
8
BLACK
6
CONTINUOUS
10
77.7344
20
-169.103
11
77.5439
21
-169.103
0
LINE
8
BLACK
6
CONTINUOUS
10
77.5439
20
-169.103
11
77.3534
21
-169.008
0
LINE
8
BLACK
6
CONTINUOUS
10
77.3534
20
-169.008
11
77.2582
21
-168.912
0
LINE
8
BLACK
6
CONTINUOUS
10
77.2582
20
-168.912
11
77.163
21
-168.722
0
LINE
8
BLACK
6
CONTINUOUS
10
77.163
20
-168.722
11
77.0677
21
-168.341
0
LINE
8
BLACK
6
CONTINUOUS
10
77.0677
20
-168.341
11
77.0677
21
-167.865
0
LINE
8
BLACK
6
CONTINUOUS
10
77.0677
20
-167.865
11
77.163
21
-167.484
0
LINE
8
BLACK
6
CONTINUOUS
10
77.163
20
-167.484
11
77.2582
21
-167.293
0
LINE
8
BLACK
6
CONTINUOUS
10
77.2582
20
-167.293
11
77.3534
21
-167.198
0
LINE
8
BLACK
6
CONTINUOUS
10
77.3534
20
-167.198
11
77.5439
21
-167.103
0
LINE
8
BLACK
6
CONTINUOUS
10
78.8772
20
-167.103
11
80.1153
21
-167.103
0
LINE
8
BLACK
6
CONTINUOUS
10
80.1153
20
-167.103
11
79.4487
21
-167.865
0
LINE
8
BLACK
6
CONTINUOUS
10
79.4487
20
-167.865
11
79.7344
21
-167.865
0
LINE
8
BLACK
6
CONTINUOUS
10
79.7344
20
-167.865
11
79.9249
21
-167.96
0
LINE
8
BLACK
6
CONTINUOUS
10
79.9249
20
-167.96
11
80.0201
21
-168.055
0
LINE
8
BLACK
6
CONTINUOUS
10
80.0201
20
-168.055
11
80.1153
21
-168.246
0
LINE
8
BLACK
6
CONTINUOUS
10
80.1153
20
-168.246
11
80.1153
21
-168.722
0
LINE
8
BLACK
6
CONTINUOUS
10
80.1153
20
-168.722
11
80.0201
21
-168.912
0
LINE
8
BLACK
6
CONTINUOUS
10
80.0201
20
-168.912
11
79.9249
21
-169.008
0
LINE
8
BLACK
6
CONTINUOUS
10
79.9249
20
-169.008
11
79.7344
21
-169.103
0
LINE
8
BLACK
6
CONTINUOUS
10
79.7344
20
-169.103
11
79.163
21
-169.103
0
LINE
8
BLACK
6
CONTINUOUS
10
79.163
20
-169.103
11
78.9725
21
-169.008
0
LINE
8
BLACK
6
CONTINUOUS
10
78.9725
20
-169.008
11
78.8772
21
-168.912
0
LINE
8
BLACK
6
CONTINUOUS
10
80.8772
20
-167.293
11
80.9725
21
-167.198
0
LINE
8
BLACK
6
CONTINUOUS
10
80.9725
20
-167.198
11
81.163
21
-167.103
0
LINE
8
BLACK
6
CONTINUOUS
10
81.163
20
-167.103
11
81.6391
21
-167.103
0
LINE
8
BLACK
6
CONTINUOUS
10
81.6391
20
-167.103
11
81.8296
21
-167.198
0
LINE
8
BLACK
6
CONTINUOUS
10
81.8296
20
-167.198
11
81.9249
21
-167.293
0
LINE
8
BLACK
6
CONTINUOUS
10
81.9249
20
-167.293
11
82.0201
21
-167.484
0
LINE
8
BLACK
6
CONTINUOUS
10
82.0201
20
-167.484
11
82.0201
21
-167.674
0
LINE
8
BLACK
6
CONTINUOUS
10
82.0201
20
-167.674
11
81.9249
21
-167.96
0
LINE
8
BLACK
6
CONTINUOUS
10
81.9249
20
-167.96
11
80.782
21
-169.103
0
LINE
8
BLACK
6
CONTINUOUS
10
80.782
20
-169.103
11
82.0201
21
-169.103
0
LINE
8
BLACK
6
CONTINUOUS
10
82.6868
20
-167.103
11
84.0201
21
-167.103
0
LINE
8
BLACK
6
CONTINUOUS
10
84.0201
20
-167.103
11
83.163
21
-169.103
0
LINE
8
BLACK
6
CONTINUOUS
10
84.6868
20
-167.103
11
84.6868
21
-167.484
0
LINE
8
BLACK
6
CONTINUOUS
10
85.4487
20
-167.103
11
85.4487
21
-167.484
0
LINE
8
BLACK
6
CONTINUOUS
10
88.401
20
-169.865
11
88.3058
21
-169.769
0
LINE
8
BLACK
6
CONTINUOUS
10
88.3058
20
-169.769
11
88.1153
21
-169.484
0
LINE
8
BLACK
6
CONTINUOUS
10
88.1153
20
-169.484
11
88.0201
21
-169.293
0
LINE
8
BLACK
6
CONTINUOUS
10
88.0201
20
-169.293
11
87.9249
21
-169.008
0
LINE
8
BLACK
6
CONTINUOUS
10
87.9249
20
-169.008
11
87.8296
21
-168.531
0
LINE
8
BLACK
6
CONTINUOUS
10
87.8296
20
-168.531
11
87.8296
21
-168.15
0
LINE
8
BLACK
6
CONTINUOUS
10
87.8296
20
-168.15
11
87.9249
21
-167.674
0
LINE
8
BLACK
6
CONTINUOUS
10
87.9249
20
-167.674
11
88.0201
21
-167.388
0
LINE
8
BLACK
6
CONTINUOUS
10
88.0201
20
-167.388
11
88.1153
21
-167.198
0
LINE
8
BLACK
6
CONTINUOUS
10
88.1153
20
-167.198
11
88.3058
21
-166.912
0
LINE
8
BLACK
6
CONTINUOUS
10
88.3058
20
-166.912
11
88.401
21
-166.817
0
LINE
8
BLACK
6
CONTINUOUS
10
89.5439
20
-167.103
11
89.7344
21
-167.103
0
LINE
8
BLACK
6
CONTINUOUS
10
89.7344
20
-167.103
11
89.9249
21
-167.198
0
LINE
8
BLACK
6
CONTINUOUS
10
89.9249
20
-167.198
11
90.0201
21
-167.293
0
LINE
8
BLACK
6
CONTINUOUS
10
90.0201
20
-167.293
11
90.1153
21
-167.484
0
LINE
8
BLACK
6
CONTINUOUS
10
90.1153
20
-167.484
11
90.2106
21
-167.865
0
LINE
8
BLACK
6
CONTINUOUS
10
90.2106
20
-167.865
11
90.2106
21
-168.341
0
LINE
8
BLACK
6
CONTINUOUS
10
90.2106
20
-168.341
11
90.1153
21
-168.722
0
LINE
8
BLACK
6
CONTINUOUS
10
90.1153
20
-168.722
11
90.0201
21
-168.912
0
LINE
8
BLACK
6
CONTINUOUS
10
90.0201
20
-168.912
11
89.9249
21
-169.008
0
LINE
8
BLACK
6
CONTINUOUS
10
89.9249
20
-169.008
11
89.7344
21
-169.103
0
LINE
8
BLACK
6
CONTINUOUS
10
89.7344
20
-169.103
11
89.5439
21
-169.103
0
LINE
8
BLACK
6
CONTINUOUS
10
89.5439
20
-169.103
11
89.3534
21
-169.008
0
LINE
8
BLACK
6
CONTINUOUS
10
89.3534
20
-169.008
11
89.2582
21
-168.912
0
LINE
8
BLACK
6
CONTINUOUS
10
89.2582
20
-168.912
11
89.163
21
-168.722
0
LINE
8
BLACK
6
CONTINUOUS
10
89.163
20
-168.722
11
89.0677
21
-168.341
0
LINE
8
BLACK
6
CONTINUOUS
10
89.0677
20
-168.341
11
89.0677
21
-167.865
0
LINE
8
BLACK
6
CONTINUOUS
10
89.0677
20
-167.865
11
89.163
21
-167.484
0
LINE
8
BLACK
6
CONTINUOUS
10
89.163
20
-167.484
11
89.2582
21
-167.293
0
LINE
8
BLACK
6
CONTINUOUS
10
89.2582
20
-167.293
11
89.3534
21
-167.198
0
LINE
8
BLACK
6
CONTINUOUS
10
89.3534
20
-167.198
11
89.5439
21
-167.103
0
LINE
8
BLACK
6
CONTINUOUS
10
92.5915
20
-169.103
11
92.5915
21
-167.103
0
LINE
8
BLACK
6
CONTINUOUS
10
93.4487
20
-169.103
11
93.4487
21
-168.055
0
LINE
8
BLACK
6
CONTINUOUS
10
93.4487
20
-168.055
11
93.3534
21
-167.865
0
LINE
8
BLACK
6
CONTINUOUS
10
93.3534
20
-167.865
11
93.163
21
-167.769
0
LINE
8
BLACK
6
CONTINUOUS
10
93.163
20
-167.769
11
92.8772
21
-167.769
0
LINE
8
BLACK
6
CONTINUOUS
10
92.8772
20
-167.769
11
92.6868
21
-167.865
0
LINE
8
BLACK
6
CONTINUOUS
10
92.6868
20
-167.865
11
92.5915
21
-167.96
0
LINE
8
BLACK
6
CONTINUOUS
10
94.6868
20
-169.103
11
94.4963
21
-169.008
0
LINE
8
BLACK
6
CONTINUOUS
10
94.4963
20
-169.008
11
94.401
21
-168.912
0
LINE
8
BLACK
6
CONTINUOUS
10
94.401
20
-168.912
11
94.3058
21
-168.722
0
LINE
8
BLACK
6
CONTINUOUS
10
94.3058
20
-168.722
11
94.3058
21
-168.15
0
LINE
8
BLACK
6
CONTINUOUS
10
94.3058
20
-168.15
11
94.401
21
-167.96
0
LINE
8
BLACK
6
CONTINUOUS
10
94.401
20
-167.96
11
94.4963
21
-167.865
0
LINE
8
BLACK
6
CONTINUOUS
10
94.4963
20
-167.865
11
94.6868
21
-167.769
0
LINE
8
BLACK
6
CONTINUOUS
10
94.6868
20
-167.769
11
94.9725
21
-167.769
0
LINE
8
BLACK
6
CONTINUOUS
10
94.9725
20
-167.769
11
95.163
21
-167.865
0
LINE
8
BLACK
6
CONTINUOUS
10
95.163
20
-167.865
11
95.2582
21
-167.96
0
LINE
8
BLACK
6
CONTINUOUS
10
95.2582
20
-167.96
11
95.3534
21
-168.15
0
LINE
8
BLACK
6
CONTINUOUS
10
95.3534
20
-168.15
11
95.3534
21
-168.722
0
LINE
8
BLACK
6
CONTINUOUS
10
95.3534
20
-168.722
11
95.2582
21
-168.912
0
LINE
8
BLACK
6
CONTINUOUS
10
95.2582
20
-168.912
11
95.163
21
-169.008
0
LINE
8
BLACK
6
CONTINUOUS
10
95.163
20
-169.008
11
94.9725
21
-169.103
0
LINE
8
BLACK
6
CONTINUOUS
10
94.9725
20
-169.103
11
94.6868
21
-169.103
0
LINE
8
BLACK
6
CONTINUOUS
10
96.4963
20
-169.103
11
96.3058
21
-169.008
0
LINE
8
BLACK
6
CONTINUOUS
10
96.3058
20
-169.008
11
96.2106
21
-168.817
0
LINE
8
BLACK
6
CONTINUOUS
10
96.2106
20
-168.817
11
96.2106
21
-167.103
0
LINE
8
BLACK
6
CONTINUOUS
10
98.0201
20
-169.008
11
97.8296
21
-169.103
0
LINE
8
BLACK
6
CONTINUOUS
10
97.8296
20
-169.103
11
97.4487
21
-169.103
0
LINE
8
BLACK
6
CONTINUOUS
10
97.4487
20
-169.103
11
97.2582
21
-169.008
0
LINE
8
BLACK
6
CONTINUOUS
10
97.2582
20
-169.008
11
97.163
21
-168.817
0
LINE
8
BLACK
6
CONTINUOUS
10
97.163
20
-168.817
11
97.163
21
-168.055
0
LINE
8
BLACK
6
CONTINUOUS
10
97.163
20
-168.055
11
97.2582
21
-167.865
0
LINE
8
BLACK
6
CONTINUOUS
10
97.2582
20
-167.865
11
97.4487
21
-167.769
0
LINE
8
BLACK
6
CONTINUOUS
10
97.4487
20
-167.769
11
97.8296
21
-167.769
0
LINE
8
BLACK
6
CONTINUOUS
10
97.8296
20
-167.769
11
98.0201
21
-167.865
0
LINE
8
BLACK
6
CONTINUOUS
10
98.0201
20
-167.865
11
98.1153
21
-168.055
0
LINE
8
BLACK
6
CONTINUOUS
10
98.1153
20
-168.055
11
98.1153
21
-168.246
0
LINE
8
BLACK
6
CONTINUOUS
10
98.1153
20
-168.246
11
97.163
21
-168.436
0
LINE
8
BLACK
6
CONTINUOUS
10
98.8772
20
-169.008
11
99.0677
21
-169.103
0
LINE
8
BLACK
6
CONTINUOUS
10
99.0677
20
-169.103
11
99.4487
21
-169.103
0
LINE
8
BLACK
6
CONTINUOUS
10
99.4487
20
-169.103
11
99.6391
21
-169.008
0
LINE
8
BLACK
6
CONTINUOUS
10
99.6391
20
-169.008
11
99.7344
21
-168.817
0
LINE
8
BLACK
6
CONTINUOUS
10
99.7344
20
-168.817
11
99.7344
21
-168.722
0
LINE
8
BLACK
6
CONTINUOUS
10
99.7344
20
-168.722
11
99.6391
21
-168.531
0
LINE
8
BLACK
6
CONTINUOUS
10
99.6391
20
-168.531
11
99.4487
21
-168.436
0
LINE
8
BLACK
6
CONTINUOUS
10
99.4487
20
-168.436
11
99.163
21
-168.436
0
LINE
8
BLACK
6
CONTINUOUS
10
99.163
20
-168.436
11
98.9725
21
-168.341
0
LINE
8
BLACK
6
CONTINUOUS
10
98.9725
20
-168.341
11
98.8772
21
-168.15
0
LINE
8
BLACK
6
CONTINUOUS
10
98.8772
20
-168.15
11
98.8772
21
-168.055
0
LINE
8
BLACK
6
CONTINUOUS
10
98.8772
20
-168.055
11
98.9725
21
-167.865
0
LINE
8
BLACK
6
CONTINUOUS
10
98.9725
20
-167.865
11
99.163
21
-167.769
0
LINE
8
BLACK
6
CONTINUOUS
10
99.163
20
-167.769
11
99.4487
21
-167.769
0
LINE
8
BLACK
6
CONTINUOUS
10
99.4487
20
-167.769
11
99.6391
21
-167.865
0
LINE
8
BLACK
6
CONTINUOUS
10
102.115
20
-168.341
11
103.639
21
-168.341
0
LINE
8
BLACK
6
CONTINUOUS
10
102.877
20
-169.103
11
102.877
21
-167.579
0
LINE
8
BLACK
6
CONTINUOUS
10
106.02
20
-167.293
11
106.115
21
-167.198
0
LINE
8
BLACK
6
CONTINUOUS
10
106.115
20
-167.198
11
106.306
21
-167.103
0
LINE
8
BLACK
6
CONTINUOUS
10
106.306
20
-167.103
11
106.782
21
-167.103
0
LINE
8
BLACK
6
CONTINUOUS
10
106.782
20
-167.103
11
106.972
21
-167.198
0
LINE
8
BLACK
6
CONTINUOUS
10
106.972
20
-167.198
11
107.068
21
-167.293
0
LINE
8
BLACK
6
CONTINUOUS
10
107.068
20
-167.293
11
107.163
21
-167.484
0
LINE
8
BLACK
6
CONTINUOUS
10
107.163
20
-167.484
11
107.163
21
-167.674
0
LINE
8
BLACK
6
CONTINUOUS
10
107.163
20
-167.674
11
107.068
21
-167.96
0
LINE
8
BLACK
6
CONTINUOUS
10
107.068
20
-167.96
11
105.925
21
-169.103
0
LINE
8
BLACK
6
CONTINUOUS
10
105.925
20
-169.103
11
107.163
21
-169.103
0
LINE
8
BLACK
6
CONTINUOUS
10
109.449
20
-169.008
11
109.639
21
-169.103
0
LINE
8
BLACK
6
CONTINUOUS
10
109.639
20
-169.103
11
110.02
21
-169.103
0
LINE
8
BLACK
6
CONTINUOUS
10
110.02
20
-169.103
11
110.211
21
-169.008
0
LINE
8
BLACK
6
CONTINUOUS
10
110.211
20
-169.008
11
110.306
21
-168.817
0
LINE
8
BLACK
6
CONTINUOUS
10
110.306
20
-168.817
11
110.306
21
-168.722
0
LINE
8
BLACK
6
CONTINUOUS
10
110.306
20
-168.722
11
110.211
21
-168.531
0
LINE
8
BLACK
6
CONTINUOUS
10
110.211
20
-168.531
11
110.02
21
-168.436
0
LINE
8
BLACK
6
CONTINUOUS
10
110.02
20
-168.436
11
109.734
21
-168.436
0
LINE
8
BLACK
6
CONTINUOUS
10
109.734
20
-168.436
11
109.544
21
-168.341
0
LINE
8
BLACK
6
CONTINUOUS
10
109.544
20
-168.341
11
109.449
21
-168.15
0
LINE
8
BLACK
6
CONTINUOUS
10
109.449
20
-168.15
11
109.449
21
-168.055
0
LINE
8
BLACK
6
CONTINUOUS
10
109.449
20
-168.055
11
109.544
21
-167.865
0
LINE
8
BLACK
6
CONTINUOUS
10
109.544
20
-167.865
11
109.734
21
-167.769
0
LINE
8
BLACK
6
CONTINUOUS
10
109.734
20
-167.769
11
110.02
21
-167.769
0
LINE
8
BLACK
6
CONTINUOUS
10
110.02
20
-167.769
11
110.211
21
-167.865
0
LINE
8
BLACK
6
CONTINUOUS
10
111.449
20
-169.103
11
111.258
21
-169.008
0
LINE
8
BLACK
6
CONTINUOUS
10
111.258
20
-169.008
11
111.163
21
-168.817
0
LINE
8
BLACK
6
CONTINUOUS
10
111.163
20
-168.817
11
111.163
21
-167.103
0
LINE
8
BLACK
6
CONTINUOUS
10
112.496
20
-169.103
11
112.306
21
-169.008
0
LINE
8
BLACK
6
CONTINUOUS
10
112.306
20
-169.008
11
112.211
21
-168.912
0
LINE
8
BLACK
6
CONTINUOUS
10
112.211
20
-168.912
11
112.115
21
-168.722
0
LINE
8
BLACK
6
CONTINUOUS
10
112.115
20
-168.722
11
112.115
21
-168.15
0
LINE
8
BLACK
6
CONTINUOUS
10
112.115
20
-168.15
11
112.211
21
-167.96
0
LINE
8
BLACK
6
CONTINUOUS
10
112.211
20
-167.96
11
112.306
21
-167.865
0
LINE
8
BLACK
6
CONTINUOUS
10
112.306
20
-167.865
11
112.496
21
-167.769
0
LINE
8
BLACK
6
CONTINUOUS
10
112.496
20
-167.769
11
112.782
21
-167.769
0
LINE
8
BLACK
6
CONTINUOUS
10
112.782
20
-167.769
11
112.972
21
-167.865
0
LINE
8
BLACK
6
CONTINUOUS
10
112.972
20
-167.865
11
113.068
21
-167.96
0
LINE
8
BLACK
6
CONTINUOUS
10
113.068
20
-167.96
11
113.163
21
-168.15
0
LINE
8
BLACK
6
CONTINUOUS
10
113.163
20
-168.15
11
113.163
21
-168.722
0
LINE
8
BLACK
6
CONTINUOUS
10
113.163
20
-168.722
11
113.068
21
-168.912
0
LINE
8
BLACK
6
CONTINUOUS
10
113.068
20
-168.912
11
112.972
21
-169.008
0
LINE
8
BLACK
6
CONTINUOUS
10
112.972
20
-169.008
11
112.782
21
-169.103
0
LINE
8
BLACK
6
CONTINUOUS
10
112.782
20
-169.103
11
112.496
21
-169.103
0
LINE
8
BLACK
6
CONTINUOUS
10
113.734
20
-167.769
11
114.496
21
-167.769
0
LINE
8
BLACK
6
CONTINUOUS
10
114.02
20
-167.103
11
114.02
21
-168.817
0
LINE
8
BLACK
6
CONTINUOUS
10
114.02
20
-168.817
11
114.115
21
-169.008
0
LINE
8
BLACK
6
CONTINUOUS
10
114.115
20
-169.008
11
114.306
21
-169.103
0
LINE
8
BLACK
6
CONTINUOUS
10
114.306
20
-169.103
11
114.496
21
-169.103
0
LINE
8
BLACK
6
CONTINUOUS
10
115.068
20
-169.008
11
115.258
21
-169.103
0
LINE
8
BLACK
6
CONTINUOUS
10
115.258
20
-169.103
11
115.639
21
-169.103
0
LINE
8
BLACK
6
CONTINUOUS
10
115.639
20
-169.103
11
115.83
21
-169.008
0
LINE
8
BLACK
6
CONTINUOUS
10
115.83
20
-169.008
11
115.925
21
-168.817
0
LINE
8
BLACK
6
CONTINUOUS
10
115.925
20
-168.817
11
115.925
21
-168.722
0
LINE
8
BLACK
6
CONTINUOUS
10
115.925
20
-168.722
11
115.83
21
-168.531
0
LINE
8
BLACK
6
CONTINUOUS
10
115.83
20
-168.531
11
115.639
21
-168.436
0
LINE
8
BLACK
6
CONTINUOUS
10
115.639
20
-168.436
11
115.353
21
-168.436
0
LINE
8
BLACK
6
CONTINUOUS
10
115.353
20
-168.436
11
115.163
21
-168.341
0
LINE
8
BLACK
6
CONTINUOUS
10
115.163
20
-168.341
11
115.068
21
-168.15
0
LINE
8
BLACK
6
CONTINUOUS
10
115.068
20
-168.15
11
115.068
21
-168.055
0
LINE
8
BLACK
6
CONTINUOUS
10
115.068
20
-168.055
11
115.163
21
-167.865
0
LINE
8
BLACK
6
CONTINUOUS
10
115.163
20
-167.865
11
115.353
21
-167.769
0
LINE
8
BLACK
6
CONTINUOUS
10
115.353
20
-167.769
11
115.639
21
-167.769
0
LINE
8
BLACK
6
CONTINUOUS
10
115.639
20
-167.769
11
115.83
21
-167.865
0
LINE
8
BLACK
6
CONTINUOUS
10
116.592
20
-169.865
11
116.687
21
-169.769
0
LINE
8
BLACK
6
CONTINUOUS
10
116.687
20
-169.769
11
116.877
21
-169.484
0
LINE
8
BLACK
6
CONTINUOUS
10
116.877
20
-169.484
11
116.972
21
-169.293
0
LINE
8
BLACK
6
CONTINUOUS
10
116.972
20
-169.293
11
117.068
21
-169.008
0
LINE
8
BLACK
6
CONTINUOUS
10
117.068
20
-169.008
11
117.163
21
-168.531
0
LINE
8
BLACK
6
CONTINUOUS
10
117.163
20
-168.531
11
117.163
21
-168.15
0
LINE
8
BLACK
6
CONTINUOUS
10
117.163
20
-168.15
11
117.068
21
-167.674
0
LINE
8
BLACK
6
CONTINUOUS
10
117.068
20
-167.674
11
116.972
21
-167.388
0
LINE
8
BLACK
6
CONTINUOUS
10
116.972
20
-167.388
11
116.877
21
-167.198
0
LINE
8
BLACK
6
CONTINUOUS
10
116.877
20
-167.198
11
116.687
21
-166.912
0
LINE
8
BLACK
6
CONTINUOUS
10
116.687
20
-166.912
11
116.592
21
-166.817
0
LINE
8
BLACK
6
CONTINUOUS
10
52.5517
20
-171.153
11
52.5517
21
-170.523
0
LINE
8
BLACK
6
CONTINUOUS
10
52.5517
20
-170.523
11
51.9223
21
-170.523
0
LINE
8
BLACK
6
CONTINUOUS
10
51.9223
20
-170.523
11
51.9223
21
-171.153
0
LINE
8
BLACK
6
CONTINUOUS
10
51.9223
20
-171.153
11
52.5517
21
-171.153
0
LINE
8
BLACK
6
CONTINUOUS
10
55.6391
20
-169.743
11
55.8296
21
-169.743
0
LINE
8
BLACK
6
CONTINUOUS
10
55.8296
20
-169.743
11
56.0201
21
-169.838
0
LINE
8
BLACK
6
CONTINUOUS
10
56.0201
20
-169.838
11
56.1153
21
-169.933
0
LINE
8
BLACK
6
CONTINUOUS
10
56.1153
20
-169.933
11
56.2106
21
-170.124
0
LINE
8
BLACK
6
CONTINUOUS
10
56.2106
20
-170.124
11
56.3058
21
-170.505
0
LINE
8
BLACK
6
CONTINUOUS
10
56.3058
20
-170.505
11
56.3058
21
-170.981
0
LINE
8
BLACK
6
CONTINUOUS
10
56.3058
20
-170.981
11
56.2106
21
-171.362
0
LINE
8
BLACK
6
CONTINUOUS
10
56.2106
20
-171.362
11
56.1153
21
-171.552
0
LINE
8
BLACK
6
CONTINUOUS
10
56.1153
20
-171.552
11
56.0201
21
-171.648
0
LINE
8
BLACK
6
CONTINUOUS
10
56.0201
20
-171.648
11
55.8296
21
-171.743
0
LINE
8
BLACK
6
CONTINUOUS
10
55.8296
20
-171.743
11
55.6391
21
-171.743
0
LINE
8
BLACK
6
CONTINUOUS
10
55.6391
20
-171.743
11
55.4487
21
-171.648
0
LINE
8
BLACK
6
CONTINUOUS
10
55.4487
20
-171.648
11
55.3534
21
-171.552
0
LINE
8
BLACK
6
CONTINUOUS
10
55.3534
20
-171.552
11
55.2582
21
-171.362
0
LINE
8
BLACK
6
CONTINUOUS
10
55.2582
20
-171.362
11
55.163
21
-170.981
0
LINE
8
BLACK
6
CONTINUOUS
10
55.163
20
-170.981
11
55.163
21
-170.505
0
LINE
8
BLACK
6
CONTINUOUS
10
55.163
20
-170.505
11
55.2582
21
-170.124
0
LINE
8
BLACK
6
CONTINUOUS
10
55.2582
20
-170.124
11
55.3534
21
-169.933
0
LINE
8
BLACK
6
CONTINUOUS
10
55.3534
20
-169.933
11
55.4487
21
-169.838
0
LINE
8
BLACK
6
CONTINUOUS
10
55.4487
20
-169.838
11
55.6391
21
-169.743
0
LINE
8
BLACK
6
CONTINUOUS
10
57.163
20
-171.552
11
57.2582
21
-171.648
0
LINE
8
BLACK
6
CONTINUOUS
10
57.2582
20
-171.648
11
57.163
21
-171.743
0
LINE
8
BLACK
6
CONTINUOUS
10
57.163
20
-171.743
11
57.0677
21
-171.648
0
LINE
8
BLACK
6
CONTINUOUS
10
57.0677
20
-171.648
11
57.163
21
-171.552
0
LINE
8
BLACK
6
CONTINUOUS
10
57.163
20
-171.552
11
57.163
21
-171.743
0
LINE
8
BLACK
6
CONTINUOUS
10
58.401
20
-170.6
11
58.2106
21
-170.505
0
LINE
8
BLACK
6
CONTINUOUS
10
58.2106
20
-170.505
11
58.1153
21
-170.409
0
LINE
8
BLACK
6
CONTINUOUS
10
58.1153
20
-170.409
11
58.0201
21
-170.219
0
LINE
8
BLACK
6
CONTINUOUS
10
58.0201
20
-170.219
11
58.0201
21
-170.124
0
LINE
8
BLACK
6
CONTINUOUS
10
58.0201
20
-170.124
11
58.1153
21
-169.933
0
LINE
8
BLACK
6
CONTINUOUS
10
58.1153
20
-169.933
11
58.2106
21
-169.838
0
LINE
8
BLACK
6
CONTINUOUS
10
58.2106
20
-169.838
11
58.401
21
-169.743
0
LINE
8
BLACK
6
CONTINUOUS
10
58.401
20
-169.743
11
58.782
21
-169.743
0
LINE
8
BLACK
6
CONTINUOUS
10
58.782
20
-169.743
11
58.9725
21
-169.838
0
LINE
8
BLACK
6
CONTINUOUS
10
58.9725
20
-169.838
11
59.0677
21
-169.933
0
LINE
8
BLACK
6
CONTINUOUS
10
59.0677
20
-169.933
11
59.163
21
-170.124
0
LINE
8
BLACK
6
CONTINUOUS
10
59.163
20
-170.124
11
59.163
21
-170.219
0
LINE
8
BLACK
6
CONTINUOUS
10
59.163
20
-170.219
11
59.0677
21
-170.409
0
LINE
8
BLACK
6
CONTINUOUS
10
59.0677
20
-170.409
11
58.9725
21
-170.505
0
LINE
8
BLACK
6
CONTINUOUS
10
58.9725
20
-170.505
11
58.782
21
-170.6
0
LINE
8
BLACK
6
CONTINUOUS
10
58.782
20
-170.6
11
58.401
21
-170.6
0
LINE
8
BLACK
6
CONTINUOUS
10
58.401
20
-170.6
11
58.2106
21
-170.695
0
LINE
8
BLACK
6
CONTINUOUS
10
58.2106
20
-170.695
11
58.1153
21
-170.79
0
LINE
8
BLACK
6
CONTINUOUS
10
58.1153
20
-170.79
11
58.0201
21
-170.981
0
LINE
8
BLACK
6
CONTINUOUS
10
58.0201
20
-170.981
11
58.0201
21
-171.362
0
LINE
8
BLACK
6
CONTINUOUS
10
58.0201
20
-171.362
11
58.1153
21
-171.552
0
LINE
8
BLACK
6
CONTINUOUS
10
58.1153
20
-171.552
11
58.2106
21
-171.648
0
LINE
8
BLACK
6
CONTINUOUS
10
58.2106
20
-171.648
11
58.401
21
-171.743
0
LINE
8
BLACK
6
CONTINUOUS
10
58.401
20
-171.743
11
58.782
21
-171.743
0
LINE
8
BLACK
6
CONTINUOUS
10
58.782
20
-171.743
11
58.9725
21
-171.648
0
LINE
8
BLACK
6
CONTINUOUS
10
58.9725
20
-171.648
11
59.0677
21
-171.552
0
LINE
8
BLACK
6
CONTINUOUS
10
59.0677
20
-171.552
11
59.163
21
-171.362
0
LINE
8
BLACK
6
CONTINUOUS
10
59.163
20
-171.362
11
59.163
21
-170.981
0
LINE
8
BLACK
6
CONTINUOUS
10
59.163
20
-170.981
11
59.0677
21
-170.79
0
LINE
8
BLACK
6
CONTINUOUS
10
59.0677
20
-170.79
11
58.9725
21
-170.695
0
LINE
8
BLACK
6
CONTINUOUS
10
58.9725
20
-170.695
11
58.782
21
-170.6
0
LINE
8
BLACK
6
CONTINUOUS
10
60.1153
20
-171.743
11
60.4963
21
-171.743
0
LINE
8
BLACK
6
CONTINUOUS
10
60.4963
20
-171.743
11
60.6868
21
-171.648
0
LINE
8
BLACK
6
CONTINUOUS
10
60.6868
20
-171.648
11
60.782
21
-171.552
0
LINE
8
BLACK
6
CONTINUOUS
10
60.782
20
-171.552
11
60.9725
21
-171.267
0
LINE
8
BLACK
6
CONTINUOUS
10
60.9725
20
-171.267
11
61.0677
21
-170.886
0
LINE
8
BLACK
6
CONTINUOUS
10
61.0677
20
-170.886
11
61.0677
21
-170.124
0
LINE
8
BLACK
6
CONTINUOUS
10
61.0677
20
-170.124
11
60.9725
21
-169.933
0
LINE
8
BLACK
6
CONTINUOUS
10
60.9725
20
-169.933
11
60.8772
21
-169.838
0
LINE
8
BLACK
6
CONTINUOUS
10
60.8772
20
-169.838
11
60.6868
21
-169.743
0
LINE
8
BLACK
6
CONTINUOUS
10
60.6868
20
-169.743
11
60.3058
21
-169.743
0
LINE
8
BLACK
6
CONTINUOUS
10
60.3058
20
-169.743
11
60.1153
21
-169.838
0
LINE
8
BLACK
6
CONTINUOUS
10
60.1153
20
-169.838
11
60.0201
21
-169.933
0
LINE
8
BLACK
6
CONTINUOUS
10
60.0201
20
-169.933
11
59.9249
21
-170.124
0
LINE
8
BLACK
6
CONTINUOUS
10
59.9249
20
-170.124
11
59.9249
21
-170.6
0
LINE
8
BLACK
6
CONTINUOUS
10
59.9249
20
-170.6
11
60.0201
21
-170.79
0
LINE
8
BLACK
6
CONTINUOUS
10
60.0201
20
-170.79
11
60.1153
21
-170.886
0
LINE
8
BLACK
6
CONTINUOUS
10
60.1153
20
-170.886
11
60.3058
21
-170.981
0
LINE
8
BLACK
6
CONTINUOUS
10
60.3058
20
-170.981
11
60.6868
21
-170.981
0
LINE
8
BLACK
6
CONTINUOUS
10
60.6868
20
-170.981
11
60.8772
21
-170.886
0
LINE
8
BLACK
6
CONTINUOUS
10
60.8772
20
-170.886
11
60.9725
21
-170.79
0
LINE
8
BLACK
6
CONTINUOUS
10
60.9725
20
-170.79
11
61.0677
21
-170.6
0
LINE
8
BLACK
6
CONTINUOUS
10
62.3058
20
-169.743
11
62.4963
21
-169.743
0
LINE
8
BLACK
6
CONTINUOUS
10
62.4963
20
-169.743
11
62.6868
21
-169.838
0
LINE
8
BLACK
6
CONTINUOUS
10
62.6868
20
-169.838
11
62.782
21
-169.933
0
LINE
8
BLACK
6
CONTINUOUS
10
62.782
20
-169.933
11
62.8772
21
-170.124
0
LINE
8
BLACK
6
CONTINUOUS
10
62.8772
20
-170.124
11
62.9725
21
-170.505
0
LINE
8
BLACK
6
CONTINUOUS
10
62.9725
20
-170.505
11
62.9725
21
-170.981
0
LINE
8
BLACK
6
CONTINUOUS
10
62.9725
20
-170.981
11
62.8772
21
-171.362
0
LINE
8
BLACK
6
CONTINUOUS
10
62.8772
20
-171.362
11
62.782
21
-171.552
0
LINE
8
BLACK
6
CONTINUOUS
10
62.782
20
-171.552
11
62.6868
21
-171.648
0
LINE
8
BLACK
6
CONTINUOUS
10
62.6868
20
-171.648
11
62.4963
21
-171.743
0
LINE
8
BLACK
6
CONTINUOUS
10
62.4963
20
-171.743
11
62.3058
21
-171.743
0
LINE
8
BLACK
6
CONTINUOUS
10
62.3058
20
-171.743
11
62.1153
21
-171.648
0
LINE
8
BLACK
6
CONTINUOUS
10
62.1153
20
-171.648
11
62.0201
21
-171.552
0
LINE
8
BLACK
6
CONTINUOUS
10
62.0201
20
-171.552
11
61.9249
21
-171.362
0
LINE
8
BLACK
6
CONTINUOUS
10
61.9249
20
-171.362
11
61.8296
21
-170.981
0
LINE
8
BLACK
6
CONTINUOUS
10
61.8296
20
-170.981
11
61.8296
21
-170.505
0
LINE
8
BLACK
6
CONTINUOUS
10
61.8296
20
-170.505
11
61.9249
21
-170.124
0
LINE
8
BLACK
6
CONTINUOUS
10
61.9249
20
-170.124
11
62.0201
21
-169.933
0
LINE
8
BLACK
6
CONTINUOUS
10
62.0201
20
-169.933
11
62.1153
21
-169.838
0
LINE
8
BLACK
6
CONTINUOUS
10
62.1153
20
-169.838
11
62.3058
21
-169.743
0
LINE
8
BLACK
6
CONTINUOUS
10
63.8296
20
-171.743
11
63.8296
21
-170.409
0
LINE
8
BLACK
6
CONTINUOUS
10
63.8296
20
-170.6
11
63.9249
21
-170.505
0
LINE
8
BLACK
6
CONTINUOUS
10
63.9249
20
-170.505
11
64.1153
21
-170.409
0
LINE
8
BLACK
6
CONTINUOUS
10
64.1153
20
-170.409
11
64.401
21
-170.409
0
LINE
8
BLACK
6
CONTINUOUS
10
64.401
20
-170.409
11
64.5915
21
-170.505
0
LINE
8
BLACK
6
CONTINUOUS
10
64.5915
20
-170.505
11
64.6868
21
-170.695
0
LINE
8
BLACK
6
CONTINUOUS
10
64.6868
20
-170.695
11
64.6868
21
-171.743
0
LINE
8
BLACK
6
CONTINUOUS
10
64.6868
20
-170.695
11
64.782
21
-170.505
0
LINE
8
BLACK
6
CONTINUOUS
10
64.782
20
-170.505
11
64.9725
21
-170.409
0
LINE
8
BLACK
6
CONTINUOUS
10
64.9725
20
-170.409
11
65.2582
21
-170.409
0
LINE
8
BLACK
6
CONTINUOUS
10
65.2582
20
-170.409
11
65.4487
21
-170.505
0
LINE
8
BLACK
6
CONTINUOUS
10
65.4487
20
-170.505
11
65.5439
21
-170.695
0
LINE
8
BLACK
6
CONTINUOUS
10
65.5439
20
-170.695
11
65.5439
21
-171.743
0
LINE
8
BLACK
6
CONTINUOUS
10
66.4963
20
-171.743
11
66.4963
21
-170.409
0
LINE
8
BLACK
6
CONTINUOUS
10
66.4963
20
-170.6
11
66.5915
21
-170.505
0
LINE
8
BLACK
6
CONTINUOUS
10
66.5915
20
-170.505
11
66.782
21
-170.409
0
LINE
8
BLACK
6
CONTINUOUS
10
66.782
20
-170.409
11
67.0677
21
-170.409
0
LINE
8
BLACK
6
CONTINUOUS
10
67.0677
20
-170.409
11
67.2582
21
-170.505
0
LINE
8
BLACK
6
CONTINUOUS
10
67.2582
20
-170.505
11
67.3534
21
-170.695
0
LINE
8
BLACK
6
CONTINUOUS
10
67.3534
20
-170.695
11
67.3534
21
-171.743
0
LINE
8
BLACK
6
CONTINUOUS
10
67.3534
20
-170.695
11
67.4487
21
-170.505
0
LINE
8
BLACK
6
CONTINUOUS
10
67.4487
20
-170.505
11
67.6391
21
-170.409
0
LINE
8
BLACK
6
CONTINUOUS
10
67.6391
20
-170.409
11
67.9249
21
-170.409
0
LINE
8
BLACK
6
CONTINUOUS
10
67.9249
20
-170.409
11
68.1153
21
-170.505
0
LINE
8
BLACK
6
CONTINUOUS
10
68.1153
20
-170.505
11
68.2106
21
-170.695
0
LINE
8
BLACK
6
CONTINUOUS
10
68.2106
20
-170.695
11
68.2106
21
-171.743
0
LINE
8
BLACK
6
CONTINUOUS
10
72.1153
20
-169.648
11
70.401
21
-172.219
0
LINE
8
BLACK
6
CONTINUOUS
10
74.6868
20
-169.743
11
74.8772
21
-169.743
0
LINE
8
BLACK
6
CONTINUOUS
10
74.8772
20
-169.743
11
75.0677
21
-169.838
0
LINE
8
BLACK
6
CONTINUOUS
10
75.0677
20
-169.838
11
75.163
21
-169.933
0
LINE
8
BLACK
6
CONTINUOUS
10
75.163
20
-169.933
11
75.2582
21
-170.124
0
LINE
8
BLACK
6
CONTINUOUS
10
75.2582
20
-170.124
11
75.3534
21
-170.505
0
LINE
8
BLACK
6
CONTINUOUS
10
75.3534
20
-170.505
11
75.3534
21
-170.981
0
LINE
8
BLACK
6
CONTINUOUS
10
75.3534
20
-170.981
11
75.2582
21
-171.362
0
LINE
8
BLACK
6
CONTINUOUS
10
75.2582
20
-171.362
11
75.163
21
-171.552
0
LINE
8
BLACK
6
CONTINUOUS
10
75.163
20
-171.552
11
75.0677
21
-171.648
0
LINE
8
BLACK
6
CONTINUOUS
10
75.0677
20
-171.648
11
74.8772
21
-171.743
0
LINE
8
BLACK
6
CONTINUOUS
10
74.8772
20
-171.743
11
74.6868
21
-171.743
0
LINE
8
BLACK
6
CONTINUOUS
10
74.6868
20
-171.743
11
74.4963
21
-171.648
0
LINE
8
BLACK
6
CONTINUOUS
10
74.4963
20
-171.648
11
74.401
21
-171.552
0
LINE
8
BLACK
6
CONTINUOUS
10
74.401
20
-171.552
11
74.3058
21
-171.362
0
LINE
8
BLACK
6
CONTINUOUS
10
74.3058
20
-171.362
11
74.2106
21
-170.981
0
LINE
8
BLACK
6
CONTINUOUS
10
74.2106
20
-170.981
11
74.2106
21
-170.505
0
LINE
8
BLACK
6
CONTINUOUS
10
74.2106
20
-170.505
11
74.3058
21
-170.124
0
LINE
8
BLACK
6
CONTINUOUS
10
74.3058
20
-170.124
11
74.401
21
-169.933
0
LINE
8
BLACK
6
CONTINUOUS
10
74.401
20
-169.933
11
74.4963
21
-169.838
0
LINE
8
BLACK
6
CONTINUOUS
10
74.4963
20
-169.838
11
74.6868
21
-169.743
0
LINE
8
BLACK
6
CONTINUOUS
10
76.2106
20
-171.552
11
76.3058
21
-171.648
0
LINE
8
BLACK
6
CONTINUOUS
10
76.3058
20
-171.648
11
76.2106
21
-171.743
0
LINE
8
BLACK
6
CONTINUOUS
10
76.2106
20
-171.743
11
76.1153
21
-171.648
0
LINE
8
BLACK
6
CONTINUOUS
10
76.1153
20
-171.648
11
76.2106
21
-171.552
0
LINE
8
BLACK
6
CONTINUOUS
10
76.2106
20
-171.552
11
76.2106
21
-171.743
0
LINE
8
BLACK
6
CONTINUOUS
10
77.5439
20
-169.743
11
77.7344
21
-169.743
0
LINE
8
BLACK
6
CONTINUOUS
10
77.7344
20
-169.743
11
77.9249
21
-169.838
0
LINE
8
BLACK
6
CONTINUOUS
10
77.9249
20
-169.838
11
78.0201
21
-169.933
0
LINE
8
BLACK
6
CONTINUOUS
10
78.0201
20
-169.933
11
78.1153
21
-170.124
0
LINE
8
BLACK
6
CONTINUOUS
10
78.1153
20
-170.124
11
78.2106
21
-170.505
0
LINE
8
BLACK
6
CONTINUOUS
10
78.2106
20
-170.505
11
78.2106
21
-170.981
0
LINE
8
BLACK
6
CONTINUOUS
10
78.2106
20
-170.981
11
78.1153
21
-171.362
0
LINE
8
BLACK
6
CONTINUOUS
10
78.1153
20
-171.362
11
78.0201
21
-171.552
0
LINE
8
BLACK
6
CONTINUOUS
10
78.0201
20
-171.552
11
77.9249
21
-171.648
0
LINE
8
BLACK
6
CONTINUOUS
10
77.9249
20
-171.648
11
77.7344
21
-171.743
0
LINE
8
BLACK
6
CONTINUOUS
10
77.7344
20
-171.743
11
77.5439
21
-171.743
0
LINE
8
BLACK
6
CONTINUOUS
10
77.5439
20
-171.743
11
77.3534
21
-171.648
0
LINE
8
BLACK
6
CONTINUOUS
10
77.3534
20
-171.648
11
77.2582
21
-171.552
0
LINE
8
BLACK
6
CONTINUOUS
10
77.2582
20
-171.552
11
77.163
21
-171.362
0
LINE
8
BLACK
6
CONTINUOUS
10
77.163
20
-171.362
11
77.0677
21
-170.981
0
LINE
8
BLACK
6
CONTINUOUS
10
77.0677
20
-170.981
11
77.0677
21
-170.505
0
LINE
8
BLACK
6
CONTINUOUS
10
77.0677
20
-170.505
11
77.163
21
-170.124
0
LINE
8
BLACK
6
CONTINUOUS
10
77.163
20
-170.124
11
77.2582
21
-169.933
0
LINE
8
BLACK
6
CONTINUOUS
10
77.2582
20
-169.933
11
77.3534
21
-169.838
0
LINE
8
BLACK
6
CONTINUOUS
10
77.3534
20
-169.838
11
77.5439
21
-169.743
0
LINE
8
BLACK
6
CONTINUOUS
10
78.8772
20
-169.743
11
80.1153
21
-169.743
0
LINE
8
BLACK
6
CONTINUOUS
10
80.1153
20
-169.743
11
79.4487
21
-170.505
0
LINE
8
BLACK
6
CONTINUOUS
10
79.4487
20
-170.505
11
79.7344
21
-170.505
0
LINE
8
BLACK
6
CONTINUOUS
10
79.7344
20
-170.505
11
79.9249
21
-170.6
0
LINE
8
BLACK
6
CONTINUOUS
10
79.9249
20
-170.6
11
80.0201
21
-170.695
0
LINE
8
BLACK
6
CONTINUOUS
10
80.0201
20
-170.695
11
80.1153
21
-170.886
0
LINE
8
BLACK
6
CONTINUOUS
10
80.1153
20
-170.886
11
80.1153
21
-171.362
0
LINE
8
BLACK
6
CONTINUOUS
10
80.1153
20
-171.362
11
80.0201
21
-171.552
0
LINE
8
BLACK
6
CONTINUOUS
10
80.0201
20
-171.552
11
79.9249
21
-171.648
0
LINE
8
BLACK
6
CONTINUOUS
10
79.9249
20
-171.648
11
79.7344
21
-171.743
0
LINE
8
BLACK
6
CONTINUOUS
10
79.7344
20
-171.743
11
79.163
21
-171.743
0
LINE
8
BLACK
6
CONTINUOUS
10
79.163
20
-171.743
11
78.9725
21
-171.648
0
LINE
8
BLACK
6
CONTINUOUS
10
78.9725
20
-171.648
11
78.8772
21
-171.552
0
LINE
8
BLACK
6
CONTINUOUS
10
81.9249
20
-169.743
11
80.9725
21
-169.743
0
LINE
8
BLACK
6
CONTINUOUS
10
80.9725
20
-169.743
11
80.8772
21
-170.695
0
LINE
8
BLACK
6
CONTINUOUS
10
80.8772
20
-170.695
11
80.9725
21
-170.6
0
LINE
8
BLACK
6
CONTINUOUS
10
80.9725
20
-170.6
11
81.163
21
-170.505
0
LINE
8
BLACK
6
CONTINUOUS
10
81.163
20
-170.505
11
81.6391
21
-170.505
0
LINE
8
BLACK
6
CONTINUOUS
10
81.6391
20
-170.505
11
81.8296
21
-170.6
0
LINE
8
BLACK
6
CONTINUOUS
10
81.8296
20
-170.6
11
81.9249
21
-170.695
0
LINE
8
BLACK
6
CONTINUOUS
10
81.9249
20
-170.695
11
82.0201
21
-170.886
0
LINE
8
BLACK
6
CONTINUOUS
10
82.0201
20
-170.886
11
82.0201
21
-171.362
0
LINE
8
BLACK
6
CONTINUOUS
10
82.0201
20
-171.362
11
81.9249
21
-171.552
0
LINE
8
BLACK
6
CONTINUOUS
10
81.9249
20
-171.552
11
81.8296
21
-171.648
0
LINE
8
BLACK
6
CONTINUOUS
10
81.8296
20
-171.648
11
81.6391
21
-171.743
0
LINE
8
BLACK
6
CONTINUOUS
10
81.6391
20
-171.743
11
81.163
21
-171.743
0
LINE
8
BLACK
6
CONTINUOUS
10
81.163
20
-171.743
11
80.9725
21
-171.648
0
LINE
8
BLACK
6
CONTINUOUS
10
80.9725
20
-171.648
11
80.8772
21
-171.552
0
LINE
8
BLACK
6
CONTINUOUS
10
83.2582
20
-169.743
11
83.4487
21
-169.743
0
LINE
8
BLACK
6
CONTINUOUS
10
83.4487
20
-169.743
11
83.6391
21
-169.838
0
LINE
8
BLACK
6
CONTINUOUS
10
83.6391
20
-169.838
11
83.7344
21
-169.933
0
LINE
8
BLACK
6
CONTINUOUS
10
83.7344
20
-169.933
11
83.8296
21
-170.124
0
LINE
8
BLACK
6
CONTINUOUS
10
83.8296
20
-170.124
11
83.9249
21
-170.505
0
LINE
8
BLACK
6
CONTINUOUS
10
83.9249
20
-170.505
11
83.9249
21
-170.981
0
LINE
8
BLACK
6
CONTINUOUS
10
83.9249
20
-170.981
11
83.8296
21
-171.362
0
LINE
8
BLACK
6
CONTINUOUS
10
83.8296
20
-171.362
11
83.7344
21
-171.552
0
LINE
8
BLACK
6
CONTINUOUS
10
83.7344
20
-171.552
11
83.6391
21
-171.648
0
LINE
8
BLACK
6
CONTINUOUS
10
83.6391
20
-171.648
11
83.4487
21
-171.743
0
LINE
8
BLACK
6
CONTINUOUS
10
83.4487
20
-171.743
11
83.2582
21
-171.743
0
LINE
8
BLACK
6
CONTINUOUS
10
83.2582
20
-171.743
11
83.0677
21
-171.648
0
LINE
8
BLACK
6
CONTINUOUS
10
83.0677
20
-171.648
11
82.9725
21
-171.552
0
LINE
8
BLACK
6
CONTINUOUS
10
82.9725
20
-171.552
11
82.8772
21
-171.362
0
LINE
8
BLACK
6
CONTINUOUS
10
82.8772
20
-171.362
11
82.782
21
-170.981
0
LINE
8
BLACK
6
CONTINUOUS
10
82.782
20
-170.981
11
82.782
21
-170.505
0
LINE
8
BLACK
6
CONTINUOUS
10
82.782
20
-170.505
11
82.8772
21
-170.124
0
LINE
8
BLACK
6
CONTINUOUS
10
82.8772
20
-170.124
11
82.9725
21
-169.933
0
LINE
8
BLACK
6
CONTINUOUS
10
82.9725
20
-169.933
11
83.0677
21
-169.838
0
LINE
8
BLACK
6
CONTINUOUS
10
83.0677
20
-169.838
11
83.2582
21
-169.743
0
LINE
8
BLACK
6
CONTINUOUS
10
84.6868
20
-169.743
11
84.6868
21
-170.124
0
LINE
8
BLACK
6
CONTINUOUS
10
85.4487
20
-169.743
11
85.4487
21
-170.124
0
LINE
8
BLACK
6
CONTINUOUS
10
88.401
20
-172.505
11
88.3058
21
-172.409
0
LINE
8
BLACK
6
CONTINUOUS
10
88.3058
20
-172.409
11
88.1153
21
-172.124
0
LINE
8
BLACK
6
CONTINUOUS
10
88.1153
20
-172.124
11
88.0201
21
-171.933
0
LINE
8
BLACK
6
CONTINUOUS
10
88.0201
20
-171.933
11
87.9249
21
-171.648
0
LINE
8
BLACK
6
CONTINUOUS
10
87.9249
20
-171.648
11
87.8296
21
-171.171
0
LINE
8
BLACK
6
CONTINUOUS
10
87.8296
20
-171.171
11
87.8296
21
-170.79
0
LINE
8
BLACK
6
CONTINUOUS
10
87.8296
20
-170.79
11
87.9249
21
-170.314
0
LINE
8
BLACK
6
CONTINUOUS
10
87.9249
20
-170.314
11
88.0201
21
-170.028
0
LINE
8
BLACK
6
CONTINUOUS
10
88.0201
20
-170.028
11
88.1153
21
-169.838
0
LINE
8
BLACK
6
CONTINUOUS
10
88.1153
20
-169.838
11
88.3058
21
-169.552
0
LINE
8
BLACK
6
CONTINUOUS
10
88.3058
20
-169.552
11
88.401
21
-169.457
0
LINE
8
BLACK
6
CONTINUOUS
10
90.2106
20
-171.743
11
89.0677
21
-171.743
0
LINE
8
BLACK
6
CONTINUOUS
10
89.6391
20
-171.743
11
89.6391
21
-169.743
0
LINE
8
BLACK
6
CONTINUOUS
10
89.6391
20
-169.743
11
89.4487
21
-170.028
0
LINE
8
BLACK
6
CONTINUOUS
10
89.4487
20
-170.028
11
89.2582
21
-170.219
0
LINE
8
BLACK
6
CONTINUOUS
10
89.2582
20
-170.219
11
89.0677
21
-170.314
0
LINE
8
BLACK
6
CONTINUOUS
10
90.9725
20
-169.933
11
91.0677
21
-169.838
0
LINE
8
BLACK
6
CONTINUOUS
10
91.0677
20
-169.838
11
91.2582
21
-169.743
0
LINE
8
BLACK
6
CONTINUOUS
10
91.2582
20
-169.743
11
91.7344
21
-169.743
0
LINE
8
BLACK
6
CONTINUOUS
10
91.7344
20
-169.743
11
91.9249
21
-169.838
0
LINE
8
BLACK
6
CONTINUOUS
10
91.9249
20
-169.838
11
92.0201
21
-169.933
0
LINE
8
BLACK
6
CONTINUOUS
10
92.0201
20
-169.933
11
92.1153
21
-170.124
0
LINE
8
BLACK
6
CONTINUOUS
10
92.1153
20
-170.124
11
92.1153
21
-170.314
0
LINE
8
BLACK
6
CONTINUOUS
10
92.1153
20
-170.314
11
92.0201
21
-170.6
0
LINE
8
BLACK
6
CONTINUOUS
10
92.0201
20
-170.6
11
90.8772
21
-171.743
0
LINE
8
BLACK
6
CONTINUOUS
10
90.8772
20
-171.743
11
92.1153
21
-171.743
0
LINE
8
BLACK
6
CONTINUOUS
10
94.4963
20
-171.743
11
94.4963
21
-169.743
0
LINE
8
BLACK
6
CONTINUOUS
10
95.3534
20
-171.743
11
95.3534
21
-170.695
0
LINE
8
BLACK
6
CONTINUOUS
10
95.3534
20
-170.695
11
95.2582
21
-170.505
0
LINE
8
BLACK
6
CONTINUOUS
10
95.2582
20
-170.505
11
95.0677
21
-170.409
0
LINE
8
BLACK
6
CONTINUOUS
10
95.0677
20
-170.409
11
94.782
21
-170.409
0
LINE
8
BLACK
6
CONTINUOUS
10
94.782
20
-170.409
11
94.5915
21
-170.505
0
LINE
8
BLACK
6
CONTINUOUS
10
94.5915
20
-170.505
11
94.4963
21
-170.6
0
LINE
8
BLACK
6
CONTINUOUS
10
96.5915
20
-171.743
11
96.401
21
-171.648
0
LINE
8
BLACK
6
CONTINUOUS
10
96.401
20
-171.648
11
96.3058
21
-171.552
0
LINE
8
BLACK
6
CONTINUOUS
10
96.3058
20
-171.552
11
96.2106
21
-171.362
0
LINE
8
BLACK
6
CONTINUOUS
10
96.2106
20
-171.362
11
96.2106
21
-170.79
0
LINE
8
BLACK
6
CONTINUOUS
10
96.2106
20
-170.79
11
96.3058
21
-170.6
0
LINE
8
BLACK
6
CONTINUOUS
10
96.3058
20
-170.6
11
96.401
21
-170.505
0
LINE
8
BLACK
6
CONTINUOUS
10
96.401
20
-170.505
11
96.5915
21
-170.409
0
LINE
8
BLACK
6
CONTINUOUS
10
96.5915
20
-170.409
11
96.8772
21
-170.409
0
LINE
8
BLACK
6
CONTINUOUS
10
96.8772
20
-170.409
11
97.0677
21
-170.505
0
LINE
8
BLACK
6
CONTINUOUS
10
97.0677
20
-170.505
11
97.163
21
-170.6
0
LINE
8
BLACK
6
CONTINUOUS
10
97.163
20
-170.6
11
97.2582
21
-170.79
0
LINE
8
BLACK
6
CONTINUOUS
10
97.2582
20
-170.79
11
97.2582
21
-171.362
0
LINE
8
BLACK
6
CONTINUOUS
10
97.2582
20
-171.362
11
97.163
21
-171.552
0
LINE
8
BLACK
6
CONTINUOUS
10
97.163
20
-171.552
11
97.0677
21
-171.648
0
LINE
8
BLACK
6
CONTINUOUS
10
97.0677
20
-171.648
11
96.8772
21
-171.743
0
LINE
8
BLACK
6
CONTINUOUS
10
96.8772
20
-171.743
11
96.5915
21
-171.743
0
LINE
8
BLACK
6
CONTINUOUS
10
98.401
20
-171.743
11
98.2106
21
-171.648
0
LINE
8
BLACK
6
CONTINUOUS
10
98.2106
20
-171.648
11
98.1153
21
-171.457
0
LINE
8
BLACK
6
CONTINUOUS
10
98.1153
20
-171.457
11
98.1153
21
-169.743
0
LINE
8
BLACK
6
CONTINUOUS
10
99.9249
20
-171.648
11
99.7344
21
-171.743
0
LINE
8
BLACK
6
CONTINUOUS
10
99.7344
20
-171.743
11
99.3534
21
-171.743
0
LINE
8
BLACK
6
CONTINUOUS
10
99.3534
20
-171.743
11
99.163
21
-171.648
0
LINE
8
BLACK
6
CONTINUOUS
10
99.163
20
-171.648
11
99.0677
21
-171.457
0
LINE
8
BLACK
6
CONTINUOUS
10
99.0677
20
-171.457
11
99.0677
21
-170.695
0
LINE
8
BLACK
6
CONTINUOUS
10
99.0677
20
-170.695
11
99.163
21
-170.505
0
LINE
8
BLACK
6
CONTINUOUS
10
99.163
20
-170.505
11
99.3534
21
-170.409
0
LINE
8
BLACK
6
CONTINUOUS
10
99.3534
20
-170.409
11
99.7344
21
-170.409
0
LINE
8
BLACK
6
CONTINUOUS
10
99.7344
20
-170.409
11
99.9249
21
-170.505
0
LINE
8
BLACK
6
CONTINUOUS
10
99.9249
20
-170.505
11
100.02
21
-170.695
0
LINE
8
BLACK
6
CONTINUOUS
10
100.02
20
-170.695
11
100.02
21
-170.886
0
LINE
8
BLACK
6
CONTINUOUS
10
100.02
20
-170.886
11
99.0677
21
-171.076
0
LINE
8
BLACK
6
CONTINUOUS
10
100.782
20
-171.648
11
100.972
21
-171.743
0
LINE
8
BLACK
6
CONTINUOUS
10
100.972
20
-171.743
11
101.353
21
-171.743
0
LINE
8
BLACK
6
CONTINUOUS
10
101.353
20
-171.743
11
101.544
21
-171.648
0
LINE
8
BLACK
6
CONTINUOUS
10
101.544
20
-171.648
11
101.639
21
-171.457
0
LINE
8
BLACK
6
CONTINUOUS
10
101.639
20
-171.457
11
101.639
21
-171.362
0
LINE
8
BLACK
6
CONTINUOUS
10
101.639
20
-171.362
11
101.544
21
-171.171
0
LINE
8
BLACK
6
CONTINUOUS
10
101.544
20
-171.171
11
101.353
21
-171.076
0
LINE
8
BLACK
6
CONTINUOUS
10
101.353
20
-171.076
11
101.068
21
-171.076
0
LINE
8
BLACK
6
CONTINUOUS
10
101.068
20
-171.076
11
100.877
21
-170.981
0
LINE
8
BLACK
6
CONTINUOUS
10
100.877
20
-170.981
11
100.782
21
-170.79
0
LINE
8
BLACK
6
CONTINUOUS
10
100.782
20
-170.79
11
100.782
21
-170.695
0
LINE
8
BLACK
6
CONTINUOUS
10
100.782
20
-170.695
11
100.877
21
-170.505
0
LINE
8
BLACK
6
CONTINUOUS
10
100.877
20
-170.505
11
101.068
21
-170.409
0
LINE
8
BLACK
6
CONTINUOUS
10
101.068
20
-170.409
11
101.353
21
-170.409
0
LINE
8
BLACK
6
CONTINUOUS
10
101.353
20
-170.409
11
101.544
21
-170.505
0
LINE
8
BLACK
6
CONTINUOUS
10
102.306
20
-172.505
11
102.401
21
-172.409
0
LINE
8
BLACK
6
CONTINUOUS
10
102.401
20
-172.409
11
102.592
21
-172.124
0
LINE
8
BLACK
6
CONTINUOUS
10
102.592
20
-172.124
11
102.687
21
-171.933
0
LINE
8
BLACK
6
CONTINUOUS
10
102.687
20
-171.933
11
102.782
21
-171.648
0
LINE
8
BLACK
6
CONTINUOUS
10
102.782
20
-171.648
11
102.877
21
-171.171
0
LINE
8
BLACK
6
CONTINUOUS
10
102.877
20
-171.171
11
102.877
21
-170.79
0
LINE
8
BLACK
6
CONTINUOUS
10
102.877
20
-170.79
11
102.782
21
-170.314
0
LINE
8
BLACK
6
CONTINUOUS
10
102.782
20
-170.314
11
102.687
21
-170.028
0
LINE
8
BLACK
6
CONTINUOUS
10
102.687
20
-170.028
11
102.592
21
-169.838
0
LINE
8
BLACK
6
CONTINUOUS
10
102.592
20
-169.838
11
102.401
21
-169.552
0
LINE
8
BLACK
6
CONTINUOUS
10
102.401
20
-169.552
11
102.306
21
-169.457
0
LINE
8
BLACK
6
CONTINUOUS
10
52.182
20
-173.978
11
52.682
21
-173.478
0
LINE
8
BLACK
6
CONTINUOUS
10
52.682
20
-173.478
11
52.182
21
-172.978
0
LINE
8
BLACK
6
CONTINUOUS
10
52.182
20
-172.978
11
51.682
21
-173.478
0
LINE
8
BLACK
6
CONTINUOUS
10
51.682
20
-173.478
11
52.182
21
-173.978
0
LINE
8
BLACK
6
CONTINUOUS
10
56.3058
20
-174.383
11
55.163
21
-174.383
0
LINE
8
BLACK
6
CONTINUOUS
10
55.7344
20
-174.383
11
55.7344
21
-172.383
0
LINE
8
BLACK
6
CONTINUOUS
10
55.7344
20
-172.383
11
55.5439
21
-172.668
0
LINE
8
BLACK
6
CONTINUOUS
10
55.5439
20
-172.668
11
55.3534
21
-172.859
0
LINE
8
BLACK
6
CONTINUOUS
10
55.3534
20
-172.859
11
55.163
21
-172.954
0
LINE
8
BLACK
6
CONTINUOUS
10
57.163
20
-174.192
11
57.2582
21
-174.288
0
LINE
8
BLACK
6
CONTINUOUS
10
57.2582
20
-174.288
11
57.163
21
-174.383
0
LINE
8
BLACK
6
CONTINUOUS
10
57.163
20
-174.383
11
57.0677
21
-174.288
0
LINE
8
BLACK
6
CONTINUOUS
10
57.0677
20
-174.288
11
57.163
21
-174.192
0
LINE
8
BLACK
6
CONTINUOUS
10
57.163
20
-174.192
11
57.163
21
-174.383
0
LINE
8
BLACK
6
CONTINUOUS
10
58.4963
20
-172.383
11
58.6868
21
-172.383
0
LINE
8
BLACK
6
CONTINUOUS
10
58.6868
20
-172.383
11
58.8772
21
-172.478
0
LINE
8
BLACK
6
CONTINUOUS
10
58.8772
20
-172.478
11
58.9725
21
-172.573
0
LINE
8
BLACK
6
CONTINUOUS
10
58.9725
20
-172.573
11
59.0677
21
-172.764
0
LINE
8
BLACK
6
CONTINUOUS
10
59.0677
20
-172.764
11
59.163
21
-173.145
0
LINE
8
BLACK
6
CONTINUOUS
10
59.163
20
-173.145
11
59.163
21
-173.621
0
LINE
8
BLACK
6
CONTINUOUS
10
59.163
20
-173.621
11
59.0677
21
-174.002
0
LINE
8
BLACK
6
CONTINUOUS
10
59.0677
20
-174.002
11
58.9725
21
-174.192
0
LINE
8
BLACK
6
CONTINUOUS
10
58.9725
20
-174.192
11
58.8772
21
-174.288
0
LINE
8
BLACK
6
CONTINUOUS
10
58.8772
20
-174.288
11
58.6868
21
-174.383
0
LINE
8
BLACK
6
CONTINUOUS
10
58.6868
20
-174.383
11
58.4963
21
-174.383
0
LINE
8
BLACK
6
CONTINUOUS
10
58.4963
20
-174.383
11
58.3058
21
-174.288
0
LINE
8
BLACK
6
CONTINUOUS
10
58.3058
20
-174.288
11
58.2106
21
-174.192
0
LINE
8
BLACK
6
CONTINUOUS
10
58.2106
20
-174.192
11
58.1153
21
-174.002
0
LINE
8
BLACK
6
CONTINUOUS
10
58.1153
20
-174.002
11
58.0201
21
-173.621
0
LINE
8
BLACK
6
CONTINUOUS
10
58.0201
20
-173.621
11
58.0201
21
-173.145
0
LINE
8
BLACK
6
CONTINUOUS
10
58.0201
20
-173.145
11
58.1153
21
-172.764
0
LINE
8
BLACK
6
CONTINUOUS
10
58.1153
20
-172.764
11
58.2106
21
-172.573
0
LINE
8
BLACK
6
CONTINUOUS
10
58.2106
20
-172.573
11
58.3058
21
-172.478
0
LINE
8
BLACK
6
CONTINUOUS
10
58.3058
20
-172.478
11
58.4963
21
-172.383
0
LINE
8
BLACK
6
CONTINUOUS
10
60.401
20
-172.383
11
60.5915
21
-172.383
0
LINE
8
BLACK
6
CONTINUOUS
10
60.5915
20
-172.383
11
60.782
21
-172.478
0
LINE
8
BLACK
6
CONTINUOUS
10
60.782
20
-172.478
11
60.8772
21
-172.573
0
LINE
8
BLACK
6
CONTINUOUS
10
60.8772
20
-172.573
11
60.9725
21
-172.764
0
LINE
8
BLACK
6
CONTINUOUS
10
60.9725
20
-172.764
11
61.0677
21
-173.145
0
LINE
8
BLACK
6
CONTINUOUS
10
61.0677
20
-173.145
11
61.0677
21
-173.621
0
LINE
8
BLACK
6
CONTINUOUS
10
61.0677
20
-173.621
11
60.9725
21
-174.002
0
LINE
8
BLACK
6
CONTINUOUS
10
60.9725
20
-174.002
11
60.8772
21
-174.192
0
LINE
8
BLACK
6
CONTINUOUS
10
60.8772
20
-174.192
11
60.782
21
-174.288
0
LINE
8
BLACK
6
CONTINUOUS
10
60.782
20
-174.288
11
60.5915
21
-174.383
0
LINE
8
BLACK
6
CONTINUOUS
10
60.5915
20
-174.383
11
60.401
21
-174.383
0
LINE
8
BLACK
6
CONTINUOUS
10
60.401
20
-174.383
11
60.2106
21
-174.288
0
LINE
8
BLACK
6
CONTINUOUS
10
60.2106
20
-174.288
11
60.1153
21
-174.192
0
LINE
8
BLACK
6
CONTINUOUS
10
60.1153
20
-174.192
11
60.0201
21
-174.002
0
LINE
8
BLACK
6
CONTINUOUS
10
60.0201
20
-174.002
11
59.9249
21
-173.621
0
LINE
8
BLACK
6
CONTINUOUS
10
59.9249
20
-173.621
11
59.9249
21
-173.145
0
LINE
8
BLACK
6
CONTINUOUS
10
59.9249
20
-173.145
11
60.0201
21
-172.764
0
LINE
8
BLACK
6
CONTINUOUS
10
60.0201
20
-172.764
11
60.1153
21
-172.573
0
LINE
8
BLACK
6
CONTINUOUS
10
60.1153
20
-172.573
11
60.2106
21
-172.478
0
LINE
8
BLACK
6
CONTINUOUS
10
60.2106
20
-172.478
11
60.401
21
-172.383
0
LINE
8
BLACK
6
CONTINUOUS
10
62.3058
20
-172.383
11
62.4963
21
-172.383
0
LINE
8
BLACK
6
CONTINUOUS
10
62.4963
20
-172.383
11
62.6868
21
-172.478
0
LINE
8
BLACK
6
CONTINUOUS
10
62.6868
20
-172.478
11
62.782
21
-172.573
0
LINE
8
BLACK
6
CONTINUOUS
10
62.782
20
-172.573
11
62.8772
21
-172.764
0
LINE
8
BLACK
6
CONTINUOUS
10
62.8772
20
-172.764
11
62.9725
21
-173.145
0
LINE
8
BLACK
6
CONTINUOUS
10
62.9725
20
-173.145
11
62.9725
21
-173.621
0
LINE
8
BLACK
6
CONTINUOUS
10
62.9725
20
-173.621
11
62.8772
21
-174.002
0
LINE
8
BLACK
6
CONTINUOUS
10
62.8772
20
-174.002
11
62.782
21
-174.192
0
LINE
8
BLACK
6
CONTINUOUS
10
62.782
20
-174.192
11
62.6868
21
-174.288
0
LINE
8
BLACK
6
CONTINUOUS
10
62.6868
20
-174.288
11
62.4963
21
-174.383
0
LINE
8
BLACK
6
CONTINUOUS
10
62.4963
20
-174.383
11
62.3058
21
-174.383
0
LINE
8
BLACK
6
CONTINUOUS
10
62.3058
20
-174.383
11
62.1153
21
-174.288
0
LINE
8
BLACK
6
CONTINUOUS
10
62.1153
20
-174.288
11
62.0201
21
-174.192
0
LINE
8
BLACK
6
CONTINUOUS
10
62.0201
20
-174.192
11
61.9249
21
-174.002
0
LINE
8
BLACK
6
CONTINUOUS
10
61.9249
20
-174.002
11
61.8296
21
-173.621
0
LINE
8
BLACK
6
CONTINUOUS
10
61.8296
20
-173.621
11
61.8296
21
-173.145
0
LINE
8
BLACK
6
CONTINUOUS
10
61.8296
20
-173.145
11
61.9249
21
-172.764
0
LINE
8
BLACK
6
CONTINUOUS
10
61.9249
20
-172.764
11
62.0201
21
-172.573
0
LINE
8
BLACK
6
CONTINUOUS
10
62.0201
20
-172.573
11
62.1153
21
-172.478
0
LINE
8
BLACK
6
CONTINUOUS
10
62.1153
20
-172.478
11
62.3058
21
-172.383
0
LINE
8
BLACK
6
CONTINUOUS
10
63.8296
20
-174.383
11
63.8296
21
-173.049
0
LINE
8
BLACK
6
CONTINUOUS
10
63.8296
20
-173.24
11
63.9249
21
-173.145
0
LINE
8
BLACK
6
CONTINUOUS
10
63.9249
20
-173.145
11
64.1153
21
-173.049
0
LINE
8
BLACK
6
CONTINUOUS
10
64.1153
20
-173.049
11
64.401
21
-173.049
0
LINE
8
BLACK
6
CONTINUOUS
10
64.401
20
-173.049
11
64.5915
21
-173.145
0
LINE
8
BLACK
6
CONTINUOUS
10
64.5915
20
-173.145
11
64.6868
21
-173.335
0
LINE
8
BLACK
6
CONTINUOUS
10
64.6868
20
-173.335
11
64.6868
21
-174.383
0
LINE
8
BLACK
6
CONTINUOUS
10
64.6868
20
-173.335
11
64.782
21
-173.145
0
LINE
8
BLACK
6
CONTINUOUS
10
64.782
20
-173.145
11
64.9725
21
-173.049
0
LINE
8
BLACK
6
CONTINUOUS
10
64.9725
20
-173.049
11
65.2582
21
-173.049
0
LINE
8
BLACK
6
CONTINUOUS
10
65.2582
20
-173.049
11
65.4487
21
-173.145
0
LINE
8
BLACK
6
CONTINUOUS
10
65.4487
20
-173.145
11
65.5439
21
-173.335
0
LINE
8
BLACK
6
CONTINUOUS
10
65.5439
20
-173.335
11
65.5439
21
-174.383
0
LINE
8
BLACK
6
CONTINUOUS
10
66.4963
20
-174.383
11
66.4963
21
-173.049
0
LINE
8
BLACK
6
CONTINUOUS
10
66.4963
20
-173.24
11
66.5915
21
-173.145
0
LINE
8
BLACK
6
CONTINUOUS
10
66.5915
20
-173.145
11
66.782
21
-173.049
0
LINE
8
BLACK
6
CONTINUOUS
10
66.782
20
-173.049
11
67.0677
21
-173.049
0
LINE
8
BLACK
6
CONTINUOUS
10
67.0677
20
-173.049
11
67.2582
21
-173.145
0
LINE
8
BLACK
6
CONTINUOUS
10
67.2582
20
-173.145
11
67.3534
21
-173.335
0
LINE
8
BLACK
6
CONTINUOUS
10
67.3534
20
-173.335
11
67.3534
21
-174.383
0
LINE
8
BLACK
6
CONTINUOUS
10
67.3534
20
-173.335
11
67.4487
21
-173.145
0
LINE
8
BLACK
6
CONTINUOUS
10
67.4487
20
-173.145
11
67.6391
21
-173.049
0
LINE
8
BLACK
6
CONTINUOUS
10
67.6391
20
-173.049
11
67.9249
21
-173.049
0
LINE
8
BLACK
6
CONTINUOUS
10
67.9249
20
-173.049
11
68.1153
21
-173.145
0
LINE
8
BLACK
6
CONTINUOUS
10
68.1153
20
-173.145
11
68.2106
21
-173.335
0
LINE
8
BLACK
6
CONTINUOUS
10
68.2106
20
-173.335
11
68.2106
21
-174.383
0
LINE
8
BLACK
6
CONTINUOUS
10
72.1153
20
-172.288
11
70.401
21
-174.859
0
LINE
8
BLACK
6
CONTINUOUS
10
74.6868
20
-172.383
11
74.8772
21
-172.383
0
LINE
8
BLACK
6
CONTINUOUS
10
74.8772
20
-172.383
11
75.0677
21
-172.478
0
LINE
8
BLACK
6
CONTINUOUS
10
75.0677
20
-172.478
11
75.163
21
-172.573
0
LINE
8
BLACK
6
CONTINUOUS
10
75.163
20
-172.573
11
75.2582
21
-172.764
0
LINE
8
BLACK
6
CONTINUOUS
10
75.2582
20
-172.764
11
75.3534
21
-173.145
0
LINE
8
BLACK
6
CONTINUOUS
10
75.3534
20
-173.145
11
75.3534
21
-173.621
0
LINE
8
BLACK
6
CONTINUOUS
10
75.3534
20
-173.621
11
75.2582
21
-174.002
0
LINE
8
BLACK
6
CONTINUOUS
10
75.2582
20
-174.002
11
75.163
21
-174.192
0
LINE
8
BLACK
6
CONTINUOUS
10
75.163
20
-174.192
11
75.0677
21
-174.288
0
LINE
8
BLACK
6
CONTINUOUS
10
75.0677
20
-174.288
11
74.8772
21
-174.383
0
LINE
8
BLACK
6
CONTINUOUS
10
74.8772
20
-174.383
11
74.6868
21
-174.383
0
LINE
8
BLACK
6
CONTINUOUS
10
74.6868
20
-174.383
11
74.4963
21
-174.288
0
LINE
8
BLACK
6
CONTINUOUS
10
74.4963
20
-174.288
11
74.401
21
-174.192
0
LINE
8
BLACK
6
CONTINUOUS
10
74.401
20
-174.192
11
74.3058
21
-174.002
0
LINE
8
BLACK
6
CONTINUOUS
10
74.3058
20
-174.002
11
74.2106
21
-173.621
0
LINE
8
BLACK
6
CONTINUOUS
10
74.2106
20
-173.621
11
74.2106
21
-173.145
0
LINE
8
BLACK
6
CONTINUOUS
10
74.2106
20
-173.145
11
74.3058
21
-172.764
0
LINE
8
BLACK
6
CONTINUOUS
10
74.3058
20
-172.764
11
74.401
21
-172.573
0
LINE
8
BLACK
6
CONTINUOUS
10
74.401
20
-172.573
11
74.4963
21
-172.478
0
LINE
8
BLACK
6
CONTINUOUS
10
74.4963
20
-172.478
11
74.6868
21
-172.383
0
LINE
8
BLACK
6
CONTINUOUS
10
76.2106
20
-174.192
11
76.3058
21
-174.288
0
LINE
8
BLACK
6
CONTINUOUS
10
76.3058
20
-174.288
11
76.2106
21
-174.383
0
LINE
8
BLACK
6
CONTINUOUS
10
76.2106
20
-174.383
11
76.1153
21
-174.288
0
LINE
8
BLACK
6
CONTINUOUS
10
76.1153
20
-174.288
11
76.2106
21
-174.192
0
LINE
8
BLACK
6
CONTINUOUS
10
76.2106
20
-174.192
11
76.2106
21
-174.383
0
LINE
8
BLACK
6
CONTINUOUS
10
77.5439
20
-172.383
11
77.7344
21
-172.383
0
LINE
8
BLACK
6
CONTINUOUS
10
77.7344
20
-172.383
11
77.9249
21
-172.478
0
LINE
8
BLACK
6
CONTINUOUS
10
77.9249
20
-172.478
11
78.0201
21
-172.573
0
LINE
8
BLACK
6
CONTINUOUS
10
78.0201
20
-172.573
11
78.1153
21
-172.764
0
LINE
8
BLACK
6
CONTINUOUS
10
78.1153
20
-172.764
11
78.2106
21
-173.145
0
LINE
8
BLACK
6
CONTINUOUS
10
78.2106
20
-173.145
11
78.2106
21
-173.621
0
LINE
8
BLACK
6
CONTINUOUS
10
78.2106
20
-173.621
11
78.1153
21
-174.002
0
LINE
8
BLACK
6
CONTINUOUS
10
78.1153
20
-174.002
11
78.0201
21
-174.192
0
LINE
8
BLACK
6
CONTINUOUS
10
78.0201
20
-174.192
11
77.9249
21
-174.288
0
LINE
8
BLACK
6
CONTINUOUS
10
77.9249
20
-174.288
11
77.7344
21
-174.383
0
LINE
8
BLACK
6
CONTINUOUS
10
77.7344
20
-174.383
11
77.5439
21
-174.383
0
LINE
8
BLACK
6
CONTINUOUS
10
77.5439
20
-174.383
11
77.3534
21
-174.288
0
LINE
8
BLACK
6
CONTINUOUS
10
77.3534
20
-174.288
11
77.2582
21
-174.192
0
LINE
8
BLACK
6
CONTINUOUS
10
77.2582
20
-174.192
11
77.163
21
-174.002
0
LINE
8
BLACK
6
CONTINUOUS
10
77.163
20
-174.002
11
77.0677
21
-173.621
0
LINE
8
BLACK
6
CONTINUOUS
10
77.0677
20
-173.621
11
77.0677
21
-173.145
0
LINE
8
BLACK
6
CONTINUOUS
10
77.0677
20
-173.145
11
77.163
21
-172.764
0
LINE
8
BLACK
6
CONTINUOUS
10
77.163
20
-172.764
11
77.2582
21
-172.573
0
LINE
8
BLACK
6
CONTINUOUS
10
77.2582
20
-172.573
11
77.3534
21
-172.478
0
LINE
8
BLACK
6
CONTINUOUS
10
77.3534
20
-172.478
11
77.5439
21
-172.383
0
LINE
8
BLACK
6
CONTINUOUS
10
78.8772
20
-172.383
11
80.1153
21
-172.383
0
LINE
8
BLACK
6
CONTINUOUS
10
80.1153
20
-172.383
11
79.4487
21
-173.145
0
LINE
8
BLACK
6
CONTINUOUS
10
79.4487
20
-173.145
11
79.7344
21
-173.145
0
LINE
8
BLACK
6
CONTINUOUS
10
79.7344
20
-173.145
11
79.9249
21
-173.24
0
LINE
8
BLACK
6
CONTINUOUS
10
79.9249
20
-173.24
11
80.0201
21
-173.335
0
LINE
8
BLACK
6
CONTINUOUS
10
80.0201
20
-173.335
11
80.1153
21
-173.526
0
LINE
8
BLACK
6
CONTINUOUS
10
80.1153
20
-173.526
11
80.1153
21
-174.002
0
LINE
8
BLACK
6
CONTINUOUS
10
80.1153
20
-174.002
11
80.0201
21
-174.192
0
LINE
8
BLACK
6
CONTINUOUS
10
80.0201
20
-174.192
11
79.9249
21
-174.288
0
LINE
8
BLACK
6
CONTINUOUS
10
79.9249
20
-174.288
11
79.7344
21
-174.383
0
LINE
8
BLACK
6
CONTINUOUS
10
79.7344
20
-174.383
11
79.163
21
-174.383
0
LINE
8
BLACK
6
CONTINUOUS
10
79.163
20
-174.383
11
78.9725
21
-174.288
0
LINE
8
BLACK
6
CONTINUOUS
10
78.9725
20
-174.288
11
78.8772
21
-174.192
0
LINE
8
BLACK
6
CONTINUOUS
10
81.0677
20
-174.383
11
81.4487
21
-174.383
0
LINE
8
BLACK
6
CONTINUOUS
10
81.4487
20
-174.383
11
81.6391
21
-174.288
0
LINE
8
BLACK
6
CONTINUOUS
10
81.6391
20
-174.288
11
81.7344
21
-174.192
0
LINE
8
BLACK
6
CONTINUOUS
10
81.7344
20
-174.192
11
81.9249
21
-173.907
0
LINE
8
BLACK
6
CONTINUOUS
10
81.9249
20
-173.907
11
82.0201
21
-173.526
0
LINE
8
BLACK
6
CONTINUOUS
10
82.0201
20
-173.526
11
82.0201
21
-172.764
0
LINE
8
BLACK
6
CONTINUOUS
10
82.0201
20
-172.764
11
81.9249
21
-172.573
0
LINE
8
BLACK
6
CONTINUOUS
10
81.9249
20
-172.573
11
81.8296
21
-172.478
0
LINE
8
BLACK
6
CONTINUOUS
10
81.8296
20
-172.478
11
81.6391
21
-172.383
0
LINE
8
BLACK
6
CONTINUOUS
10
81.6391
20
-172.383
11
81.2582
21
-172.383
0
LINE
8
BLACK
6
CONTINUOUS
10
81.2582
20
-172.383
11
81.0677
21
-172.478
0
LINE
8
BLACK
6
CONTINUOUS
10
81.0677
20
-172.478
11
80.9725
21
-172.573
0
LINE
8
BLACK
6
CONTINUOUS
10
80.9725
20
-172.573
11
80.8772
21
-172.764
0
LINE
8
BLACK
6
CONTINUOUS
10
80.8772
20
-172.764
11
80.8772
21
-173.24
0
LINE
8
BLACK
6
CONTINUOUS
10
80.8772
20
-173.24
11
80.9725
21
-173.43
0
LINE
8
BLACK
6
CONTINUOUS
10
80.9725
20
-173.43
11
81.0677
21
-173.526
0
LINE
8
BLACK
6
CONTINUOUS
10
81.0677
20
-173.526
11
81.2582
21
-173.621
0
LINE
8
BLACK
6
CONTINUOUS
10
81.2582
20
-173.621
11
81.6391
21
-173.621
0
LINE
8
BLACK
6
CONTINUOUS
10
81.6391
20
-173.621
11
81.8296
21
-173.526
0
LINE
8
BLACK
6
CONTINUOUS
10
81.8296
20
-173.526
11
81.9249
21
-173.43
0
LINE
8
BLACK
6
CONTINUOUS
10
81.9249
20
-173.43
11
82.0201
21
-173.24
0
LINE
8
BLACK
6
CONTINUOUS
10
83.7344
20
-173.049
11
83.7344
21
-174.383
0
LINE
8
BLACK
6
CONTINUOUS
10
83.2582
20
-172.288
11
82.782
21
-173.716
0
LINE
8
BLACK
6
CONTINUOUS
10
82.782
20
-173.716
11
84.0201
21
-173.716
0
LINE
8
BLACK
6
CONTINUOUS
10
84.6868
20
-172.383
11
84.6868
21
-172.764
0
LINE
8
BLACK
6
CONTINUOUS
10
85.4487
20
-172.383
11
85.4487
21
-172.764
0
LINE
8
BLACK
6
CONTINUOUS
10
88.401
20
-175.145
11
88.3058
21
-175.049
0
LINE
8
BLACK
6
CONTINUOUS
10
88.3058
20
-175.049
11
88.1153
21
-174.764
0
LINE
8
BLACK
6
CONTINUOUS
10
88.1153
20
-174.764
11
88.0201
21
-174.573
0
LINE
8
BLACK
6
CONTINUOUS
10
88.0201
20
-174.573
11
87.9249
21
-174.288
0
LINE
8
BLACK
6
CONTINUOUS
10
87.9249
20
-174.288
11
87.8296
21
-173.811
0
LINE
8
BLACK
6
CONTINUOUS
10
87.8296
20
-173.811
11
87.8296
21
-173.43
0
LINE
8
BLACK
6
CONTINUOUS
10
87.8296
20
-173.43
11
87.9249
21
-172.954
0
LINE
8
BLACK
6
CONTINUOUS
10
87.9249
20
-172.954
11
88.0201
21
-172.668
0
LINE
8
BLACK
6
CONTINUOUS
10
88.0201
20
-172.668
11
88.1153
21
-172.478
0
LINE
8
BLACK
6
CONTINUOUS
10
88.1153
20
-172.478
11
88.3058
21
-172.192
0
LINE
8
BLACK
6
CONTINUOUS
10
88.3058
20
-172.192
11
88.401
21
-172.097
0
LINE
8
BLACK
6
CONTINUOUS
10
89.2582
20
-174.383
11
89.6391
21
-174.383
0
LINE
8
BLACK
6
CONTINUOUS
10
89.6391
20
-174.383
11
89.8296
21
-174.288
0
LINE
8
BLACK
6
CONTINUOUS
10
89.8296
20
-174.288
11
89.9249
21
-174.192
0
LINE
8
BLACK
6
CONTINUOUS
10
89.9249
20
-174.192
11
90.1153
21
-173.907
0
LINE
8
BLACK
6
CONTINUOUS
10
90.1153
20
-173.907
11
90.2106
21
-173.526
0
LINE
8
BLACK
6
CONTINUOUS
10
90.2106
20
-173.526
11
90.2106
21
-172.764
0
LINE
8
BLACK
6
CONTINUOUS
10
90.2106
20
-172.764
11
90.1153
21
-172.573
0
LINE
8
BLACK
6
CONTINUOUS
10
90.1153
20
-172.573
11
90.0201
21
-172.478
0
LINE
8
BLACK
6
CONTINUOUS
10
90.0201
20
-172.478
11
89.8296
21
-172.383
0
LINE
8
BLACK
6
CONTINUOUS
10
89.8296
20
-172.383
11
89.4487
21
-172.383
0
LINE
8
BLACK
6
CONTINUOUS
10
89.4487
20
-172.383
11
89.2582
21
-172.478
0
LINE
8
BLACK
6
CONTINUOUS
10
89.2582
20
-172.478
11
89.163
21
-172.573
0
LINE
8
BLACK
6
CONTINUOUS
10
89.163
20
-172.573
11
89.0677
21
-172.764
0
LINE
8
BLACK
6
CONTINUOUS
10
89.0677
20
-172.764
11
89.0677
21
-173.24
0
LINE
8
BLACK
6
CONTINUOUS
10
89.0677
20
-173.24
11
89.163
21
-173.43
0
LINE
8
BLACK
6
CONTINUOUS
10
89.163
20
-173.43
11
89.2582
21
-173.526
0
LINE
8
BLACK
6
CONTINUOUS
10
89.2582
20
-173.526
11
89.4487
21
-173.621
0
LINE
8
BLACK
6
CONTINUOUS
10
89.4487
20
-173.621
11
89.8296
21
-173.621
0
LINE
8
BLACK
6
CONTINUOUS
10
89.8296
20
-173.621
11
90.0201
21
-173.526
0
LINE
8
BLACK
6
CONTINUOUS
10
90.0201
20
-173.526
11
90.1153
21
-173.43
0
LINE
8
BLACK
6
CONTINUOUS
10
90.1153
20
-173.43
11
90.2106
21
-173.24
0
LINE
8
BLACK
6
CONTINUOUS
10
92.5915
20
-174.383
11
92.5915
21
-172.383
0
LINE
8
BLACK
6
CONTINUOUS
10
93.4487
20
-174.383
11
93.4487
21
-173.335
0
LINE
8
BLACK
6
CONTINUOUS
10
93.4487
20
-173.335
11
93.3534
21
-173.145
0
LINE
8
BLACK
6
CONTINUOUS
10
93.3534
20
-173.145
11
93.163
21
-173.049
0
LINE
8
BLACK
6
CONTINUOUS
10
93.163
20
-173.049
11
92.8772
21
-173.049
0
LINE
8
BLACK
6
CONTINUOUS
10
92.8772
20
-173.049
11
92.6868
21
-173.145
0
LINE
8
BLACK
6
CONTINUOUS
10
92.6868
20
-173.145
11
92.5915
21
-173.24
0
LINE
8
BLACK
6
CONTINUOUS
10
94.6868
20
-174.383
11
94.4963
21
-174.288
0
LINE
8
BLACK
6
CONTINUOUS
10
94.4963
20
-174.288
11
94.401
21
-174.192
0
LINE
8
BLACK
6
CONTINUOUS
10
94.401
20
-174.192
11
94.3058
21
-174.002
0
LINE
8
BLACK
6
CONTINUOUS
10
94.3058
20
-174.002
11
94.3058
21
-173.43
0
LINE
8
BLACK
6
CONTINUOUS
10
94.3058
20
-173.43
11
94.401
21
-173.24
0
LINE
8
BLACK
6
CONTINUOUS
10
94.401
20
-173.24
11
94.4963
21
-173.145
0
LINE
8
BLACK
6
CONTINUOUS
10
94.4963
20
-173.145
11
94.6868
21
-173.049
0
LINE
8
BLACK
6
CONTINUOUS
10
94.6868
20
-173.049
11
94.9725
21
-173.049
0
LINE
8
BLACK
6
CONTINUOUS
10
94.9725
20
-173.049
11
95.163
21
-173.145
0
LINE
8
BLACK
6
CONTINUOUS
10
95.163
20
-173.145
11
95.2582
21
-173.24
0
LINE
8
BLACK
6
CONTINUOUS
10
95.2582
20
-173.24
11
95.3534
21
-173.43
0
LINE
8
BLACK
6
CONTINUOUS
10
95.3534
20
-173.43
11
95.3534
21
-174.002
0
LINE
8
BLACK
6
CONTINUOUS
10
95.3534
20
-174.002
11
95.2582
21
-174.192
0
LINE
8
BLACK
6
CONTINUOUS
10
95.2582
20
-174.192
11
95.163
21
-174.288
0
LINE
8
BLACK
6
CONTINUOUS
10
95.163
20
-174.288
11
94.9725
21
-174.383
0
LINE
8
BLACK
6
CONTINUOUS
10
94.9725
20
-174.383
11
94.6868
21
-174.383
0
LINE
8
BLACK
6
CONTINUOUS
10
96.4963
20
-174.383
11
96.3058
21
-174.288
0
LINE
8
BLACK
6
CONTINUOUS
10
96.3058
20
-174.288
11
96.2106
21
-174.097
0
LINE
8
BLACK
6
CONTINUOUS
10
96.2106
20
-174.097
11
96.2106
21
-172.383
0
LINE
8
BLACK
6
CONTINUOUS
10
98.0201
20
-174.288
11
97.8296
21
-174.383
0
LINE
8
BLACK
6
CONTINUOUS
10
97.8296
20
-174.383
11
97.4487
21
-174.383
0
LINE
8
BLACK
6
CONTINUOUS
10
97.4487
20
-174.383
11
97.2582
21
-174.288
0
LINE
8
BLACK
6
CONTINUOUS
10
97.2582
20
-174.288
11
97.163
21
-174.097
0
LINE
8
BLACK
6
CONTINUOUS
10
97.163
20
-174.097
11
97.163
21
-173.335
0
LINE
8
BLACK
6
CONTINUOUS
10
97.163
20
-173.335
11
97.2582
21
-173.145
0
LINE
8
BLACK
6
CONTINUOUS
10
97.2582
20
-173.145
11
97.4487
21
-173.049
0
LINE
8
BLACK
6
CONTINUOUS
10
97.4487
20
-173.049
11
97.8296
21
-173.049
0
LINE
8
BLACK
6
CONTINUOUS
10
97.8296
20
-173.049
11
98.0201
21
-173.145
0
LINE
8
BLACK
6
CONTINUOUS
10
98.0201
20
-173.145
11
98.1153
21
-173.335
0
LINE
8
BLACK
6
CONTINUOUS
10
98.1153
20
-173.335
11
98.1153
21
-173.526
0
LINE
8
BLACK
6
CONTINUOUS
10
98.1153
20
-173.526
11
97.163
21
-173.716
0
LINE
8
BLACK
6
CONTINUOUS
10
98.8772
20
-174.288
11
99.0677
21
-174.383
0
LINE
8
BLACK
6
CONTINUOUS
10
99.0677
20
-174.383
11
99.4487
21
-174.383
0
LINE
8
BLACK
6
CONTINUOUS
10
99.4487
20
-174.383
11
99.6391
21
-174.288
0
LINE
8
BLACK
6
CONTINUOUS
10
99.6391
20
-174.288
11
99.7344
21
-174.097
0
LINE
8
BLACK
6
CONTINUOUS
10
99.7344
20
-174.097
11
99.7344
21
-174.002
0
LINE
8
BLACK
6
CONTINUOUS
10
99.7344
20
-174.002
11
99.6391
21
-173.811
0
LINE
8
BLACK
6
CONTINUOUS
10
99.6391
20
-173.811
11
99.4487
21
-173.716
0
LINE
8
BLACK
6
CONTINUOUS
10
99.4487
20
-173.716
11
99.163
21
-173.716
0
LINE
8
BLACK
6
CONTINUOUS
10
99.163
20
-173.716
11
98.9725
21
-173.621
0
LINE
8
BLACK
6
CONTINUOUS
10
98.9725
20
-173.621
11
98.8772
21
-173.43
0
LINE
8
BLACK
6
CONTINUOUS
10
98.8772
20
-173.43
11
98.8772
21
-173.335
0
LINE
8
BLACK
6
CONTINUOUS
10
98.8772
20
-173.335
11
98.9725
21
-173.145
0
LINE
8
BLACK
6
CONTINUOUS
10
98.9725
20
-173.145
11
99.163
21
-173.049
0
LINE
8
BLACK
6
CONTINUOUS
10
99.163
20
-173.049
11
99.4487
21
-173.049
0
LINE
8
BLACK
6
CONTINUOUS
10
99.4487
20
-173.049
11
99.6391
21
-173.145
0
LINE
8
BLACK
6
CONTINUOUS
10
100.401
20
-175.145
11
100.496
21
-175.049
0
LINE
8
BLACK
6
CONTINUOUS
10
100.496
20
-175.049
11
100.687
21
-174.764
0
LINE
8
BLACK
6
CONTINUOUS
10
100.687
20
-174.764
11
100.782
21
-174.573
0
LINE
8
BLACK
6
CONTINUOUS
10
100.782
20
-174.573
11
100.877
21
-174.288
0
LINE
8
BLACK
6
CONTINUOUS
10
100.877
20
-174.288
11
100.972
21
-173.811
0
LINE
8
BLACK
6
CONTINUOUS
10
100.972
20
-173.811
11
100.972
21
-173.43
0
LINE
8
BLACK
6
CONTINUOUS
10
100.972
20
-173.43
11
100.877
21
-172.954
0
LINE
8
BLACK
6
CONTINUOUS
10
100.877
20
-172.954
11
100.782
21
-172.668
0
LINE
8
BLACK
6
CONTINUOUS
10
100.782
20
-172.668
11
100.687
21
-172.478
0
LINE
8
BLACK
6
CONTINUOUS
10
100.687
20
-172.478
11
100.496
21
-172.192
0
LINE
8
BLACK
6
CONTINUOUS
10
100.496
20
-172.192
11
100.401
21
-172.097
0
LINE
8
BLACK
6
CONTINUOUS
10
50.882
20
-175.218
11
52.682
21
-177.018
0
LINE
8
BLACK
6
CONTINUOUS
10
52.682
20
-175.218
11
50.882
21
-177.018
0
CIRCLE
8
BLACK
10
51.782
20
-176.118
40
0.9
0
LINE
8
BLACK
6
CONTINUOUS
10
56.3058
20
-177.023
11
55.163
21
-177.023
0
LINE
8
BLACK
6
CONTINUOUS
10
55.7344
20
-177.023
11
55.7344
21
-175.023
0
LINE
8
BLACK
6
CONTINUOUS
10
55.7344
20
-175.023
11
55.5439
21
-175.308
0
LINE
8
BLACK
6
CONTINUOUS
10
55.5439
20
-175.308
11
55.3534
21
-175.499
0
LINE
8
BLACK
6
CONTINUOUS
10
55.3534
20
-175.499
11
55.163
21
-175.594
0
LINE
8
BLACK
6
CONTINUOUS
10
57.163
20
-176.832
11
57.2582
21
-176.928
0
LINE
8
BLACK
6
CONTINUOUS
10
57.2582
20
-176.928
11
57.163
21
-177.023
0
LINE
8
BLACK
6
CONTINUOUS
10
57.163
20
-177.023
11
57.0677
21
-176.928
0
LINE
8
BLACK
6
CONTINUOUS
10
57.0677
20
-176.928
11
57.163
21
-176.832
0
LINE
8
BLACK
6
CONTINUOUS
10
57.163
20
-176.832
11
57.163
21
-177.023
0
LINE
8
BLACK
6
CONTINUOUS
10
58.401
20
-175.88
11
58.2106
21
-175.785
0
LINE
8
BLACK
6
CONTINUOUS
10
58.2106
20
-175.785
11
58.1153
21
-175.689
0
LINE
8
BLACK
6
CONTINUOUS
10
58.1153
20
-175.689
11
58.0201
21
-175.499
0
LINE
8
BLACK
6
CONTINUOUS
10
58.0201
20
-175.499
11
58.0201
21
-175.404
0
LINE
8
BLACK
6
CONTINUOUS
10
58.0201
20
-175.404
11
58.1153
21
-175.213
0
LINE
8
BLACK
6
CONTINUOUS
10
58.1153
20
-175.213
11
58.2106
21
-175.118
0
LINE
8
BLACK
6
CONTINUOUS
10
58.2106
20
-175.118
11
58.401
21
-175.023
0
LINE
8
BLACK
6
CONTINUOUS
10
58.401
20
-175.023
11
58.782
21
-175.023
0
LINE
8
BLACK
6
CONTINUOUS
10
58.782
20
-175.023
11
58.9725
21
-175.118
0
LINE
8
BLACK
6
CONTINUOUS
10
58.9725
20
-175.118
11
59.0677
21
-175.213
0
LINE
8
BLACK
6
CONTINUOUS
10
59.0677
20
-175.213
11
59.163
21
-175.404
0
LINE
8
BLACK
6
CONTINUOUS
10
59.163
20
-175.404
11
59.163
21
-175.499
0
LINE
8
BLACK
6
CONTINUOUS
10
59.163
20
-175.499
11
59.0677
21
-175.689
0
LINE
8
BLACK
6
CONTINUOUS
10
59.0677
20
-175.689
11
58.9725
21
-175.785
0
LINE
8
BLACK
6
CONTINUOUS
10
58.9725
20
-175.785
11
58.782
21
-175.88
0
LINE
8
BLACK
6
CONTINUOUS
10
58.782
20
-175.88
11
58.401
21
-175.88
0
LINE
8
BLACK
6
CONTINUOUS
10
58.401
20
-175.88
11
58.2106
21
-175.975
0
LINE
8
BLACK
6
CONTINUOUS
10
58.2106
20
-175.975
11
58.1153
21
-176.07
0
LINE
8
BLACK
6
CONTINUOUS
10
58.1153
20
-176.07
11
58.0201
21
-176.261
0
LINE
8
BLACK
6
CONTINUOUS
10
58.0201
20
-176.261
11
58.0201
21
-176.642
0
LINE
8
BLACK
6
CONTINUOUS
10
58.0201
20
-176.642
11
58.1153
21
-176.832
0
LINE
8
BLACK
6
CONTINUOUS
10
58.1153
20
-176.832
11
58.2106
21
-176.928
0
LINE
8
BLACK
6
CONTINUOUS
10
58.2106
20
-176.928
11
58.401
21
-177.023
0
LINE
8
BLACK
6
CONTINUOUS
10
58.401
20
-177.023
11
58.782
21
-177.023
0
LINE
8
BLACK
6
CONTINUOUS
10
58.782
20
-177.023
11
58.9725
21
-176.928
0
LINE
8
BLACK
6
CONTINUOUS
10
58.9725
20
-176.928
11
59.0677
21
-176.832
0
LINE
8
BLACK
6
CONTINUOUS
10
59.0677
20
-176.832
11
59.163
21
-176.642
0
LINE
8
BLACK
6
CONTINUOUS
10
59.163
20
-176.642
11
59.163
21
-176.261
0
LINE
8
BLACK
6
CONTINUOUS
10
59.163
20
-176.261
11
59.0677
21
-176.07
0
LINE
8
BLACK
6
CONTINUOUS
10
59.0677
20
-176.07
11
58.9725
21
-175.975
0
LINE
8
BLACK
6
CONTINUOUS
10
58.9725
20
-175.975
11
58.782
21
-175.88
0
LINE
8
BLACK
6
CONTINUOUS
10
60.401
20
-175.023
11
60.5915
21
-175.023
0
LINE
8
BLACK
6
CONTINUOUS
10
60.5915
20
-175.023
11
60.782
21
-175.118
0
LINE
8
BLACK
6
CONTINUOUS
10
60.782
20
-175.118
11
60.8772
21
-175.213
0
LINE
8
BLACK
6
CONTINUOUS
10
60.8772
20
-175.213
11
60.9725
21
-175.404
0
LINE
8
BLACK
6
CONTINUOUS
10
60.9725
20
-175.404
11
61.0677
21
-175.785
0
LINE
8
BLACK
6
CONTINUOUS
10
61.0677
20
-175.785
11
61.0677
21
-176.261
0
LINE
8
BLACK
6
CONTINUOUS
10
61.0677
20
-176.261
11
60.9725
21
-176.642
0
LINE
8
BLACK
6
CONTINUOUS
10
60.9725
20
-176.642
11
60.8772
21
-176.832
0
LINE
8
BLACK
6
CONTINUOUS
10
60.8772
20
-176.832
11
60.782
21
-176.928
0
LINE
8
BLACK
6
CONTINUOUS
10
60.782
20
-176.928
11
60.5915
21
-177.023
0
LINE
8
BLACK
6
CONTINUOUS
10
60.5915
20
-177.023
11
60.401
21
-177.023
0
LINE
8
BLACK
6
CONTINUOUS
10
60.401
20
-177.023
11
60.2106
21
-176.928
0
LINE
8
BLACK
6
CONTINUOUS
10
60.2106
20
-176.928
11
60.1153
21
-176.832
0
LINE
8
BLACK
6
CONTINUOUS
10
60.1153
20
-176.832
11
60.0201
21
-176.642
0
LINE
8
BLACK
6
CONTINUOUS
10
60.0201
20
-176.642
11
59.9249
21
-176.261
0
LINE
8
BLACK
6
CONTINUOUS
10
59.9249
20
-176.261
11
59.9249
21
-175.785
0
LINE
8
BLACK
6
CONTINUOUS
10
59.9249
20
-175.785
11
60.0201
21
-175.404
0
LINE
8
BLACK
6
CONTINUOUS
10
60.0201
20
-175.404
11
60.1153
21
-175.213
0
LINE
8
BLACK
6
CONTINUOUS
10
60.1153
20
-175.213
11
60.2106
21
-175.118
0
LINE
8
BLACK
6
CONTINUOUS
10
60.2106
20
-175.118
11
60.401
21
-175.023
0
LINE
8
BLACK
6
CONTINUOUS
10
62.3058
20
-175.023
11
62.4963
21
-175.023
0
LINE
8
BLACK
6
CONTINUOUS
10
62.4963
20
-175.023
11
62.6868
21
-175.118
0
LINE
8
BLACK
6
CONTINUOUS
10
62.6868
20
-175.118
11
62.782
21
-175.213
0
LINE
8
BLACK
6
CONTINUOUS
10
62.782
20
-175.213
11
62.8772
21
-175.404
0
LINE
8
BLACK
6
CONTINUOUS
10
62.8772
20
-175.404
11
62.9725
21
-175.785
0
LINE
8
BLACK
6
CONTINUOUS
10
62.9725
20
-175.785
11
62.9725
21
-176.261
0
LINE
8
BLACK
6
CONTINUOUS
10
62.9725
20
-176.261
11
62.8772
21
-176.642
0
LINE
8
BLACK
6
CONTINUOUS
10
62.8772
20
-176.642
11
62.782
21
-176.832
0
LINE
8
BLACK
6
CONTINUOUS
10
62.782
20
-176.832
11
62.6868
21
-176.928
0
LINE
8
BLACK
6
CONTINUOUS
10
62.6868
20
-176.928
11
62.4963
21
-177.023
0
LINE
8
BLACK
6
CONTINUOUS
10
62.4963
20
-177.023
11
62.3058
21
-177.023
0
LINE
8
BLACK
6
CONTINUOUS
10
62.3058
20
-177.023
11
62.1153
21
-176.928
0
LINE
8
BLACK
6
CONTINUOUS
10
62.1153
20
-176.928
11
62.0201
21
-176.832
0
LINE
8
BLACK
6
CONTINUOUS
10
62.0201
20
-176.832
11
61.9249
21
-176.642
0
LINE
8
BLACK
6
CONTINUOUS
10
61.9249
20
-176.642
11
61.8296
21
-176.261
0
LINE
8
BLACK
6
CONTINUOUS
10
61.8296
20
-176.261
11
61.8296
21
-175.785
0
LINE
8
BLACK
6
CONTINUOUS
10
61.8296
20
-175.785
11
61.9249
21
-175.404
0
LINE
8
BLACK
6
CONTINUOUS
10
61.9249
20
-175.404
11
62.0201
21
-175.213
0
LINE
8
BLACK
6
CONTINUOUS
10
62.0201
20
-175.213
11
62.1153
21
-175.118
0
LINE
8
BLACK
6
CONTINUOUS
10
62.1153
20
-175.118
11
62.3058
21
-175.023
0
LINE
8
BLACK
6
CONTINUOUS
10
63.8296
20
-177.023
11
63.8296
21
-175.689
0
LINE
8
BLACK
6
CONTINUOUS
10
63.8296
20
-175.88
11
63.9249
21
-175.785
0
LINE
8
BLACK
6
CONTINUOUS
10
63.9249
20
-175.785
11
64.1153
21
-175.689
0
LINE
8
BLACK
6
CONTINUOUS
10
64.1153
20
-175.689
11
64.401
21
-175.689
0
LINE
8
BLACK
6
CONTINUOUS
10
64.401
20
-175.689
11
64.5915
21
-175.785
0
LINE
8
BLACK
6
CONTINUOUS
10
64.5915
20
-175.785
11
64.6868
21
-175.975
0
LINE
8
BLACK
6
CONTINUOUS
10
64.6868
20
-175.975
11
64.6868
21
-177.023
0
LINE
8
BLACK
6
CONTINUOUS
10
64.6868
20
-175.975
11
64.782
21
-175.785
0
LINE
8
BLACK
6
CONTINUOUS
10
64.782
20
-175.785
11
64.9725
21
-175.689
0
LINE
8
BLACK
6
CONTINUOUS
10
64.9725
20
-175.689
11
65.2582
21
-175.689
0
LINE
8
BLACK
6
CONTINUOUS
10
65.2582
20
-175.689
11
65.4487
21
-175.785
0
LINE
8
BLACK
6
CONTINUOUS
10
65.4487
20
-175.785
11
65.5439
21
-175.975
0
LINE
8
BLACK
6
CONTINUOUS
10
65.5439
20
-175.975
11
65.5439
21
-177.023
0
LINE
8
BLACK
6
CONTINUOUS
10
66.4963
20
-177.023
11
66.4963
21
-175.689
0
LINE
8
BLACK
6
CONTINUOUS
10
66.4963
20
-175.88
11
66.5915
21
-175.785
0
LINE
8
BLACK
6
CONTINUOUS
10
66.5915
20
-175.785
11
66.782
21
-175.689
0
LINE
8
BLACK
6
CONTINUOUS
10
66.782
20
-175.689
11
67.0677
21
-175.689
0
LINE
8
BLACK
6
CONTINUOUS
10
67.0677
20
-175.689
11
67.2582
21
-175.785
0
LINE
8
BLACK
6
CONTINUOUS
10
67.2582
20
-175.785
11
67.3534
21
-175.975
0
LINE
8
BLACK
6
CONTINUOUS
10
67.3534
20
-175.975
11
67.3534
21
-177.023
0
LINE
8
BLACK
6
CONTINUOUS
10
67.3534
20
-175.975
11
67.4487
21
-175.785
0
LINE
8
BLACK
6
CONTINUOUS
10
67.4487
20
-175.785
11
67.6391
21
-175.689
0
LINE
8
BLACK
6
CONTINUOUS
10
67.6391
20
-175.689
11
67.9249
21
-175.689
0
LINE
8
BLACK
6
CONTINUOUS
10
67.9249
20
-175.689
11
68.1153
21
-175.785
0
LINE
8
BLACK
6
CONTINUOUS
10
68.1153
20
-175.785
11
68.2106
21
-175.975
0
LINE
8
BLACK
6
CONTINUOUS
10
68.2106
20
-175.975
11
68.2106
21
-177.023
0
LINE
8
BLACK
6
CONTINUOUS
10
72.1153
20
-174.928
11
70.401
21
-177.499
0
LINE
8
BLACK
6
CONTINUOUS
10
74.6868
20
-175.023
11
74.8772
21
-175.023
0
LINE
8
BLACK
6
CONTINUOUS
10
74.8772
20
-175.023
11
75.0677
21
-175.118
0
LINE
8
BLACK
6
CONTINUOUS
10
75.0677
20
-175.118
11
75.163
21
-175.213
0
LINE
8
BLACK
6
CONTINUOUS
10
75.163
20
-175.213
11
75.2582
21
-175.404
0
LINE
8
BLACK
6
CONTINUOUS
10
75.2582
20
-175.404
11
75.3534
21
-175.785
0
LINE
8
BLACK
6
CONTINUOUS
10
75.3534
20
-175.785
11
75.3534
21
-176.261
0
LINE
8
BLACK
6
CONTINUOUS
10
75.3534
20
-176.261
11
75.2582
21
-176.642
0
LINE
8
BLACK
6
CONTINUOUS
10
75.2582
20
-176.642
11
75.163
21
-176.832
0
LINE
8
BLACK
6
CONTINUOUS
10
75.163
20
-176.832
11
75.0677
21
-176.928
0
LINE
8
BLACK
6
CONTINUOUS
10
75.0677
20
-176.928
11
74.8772
21
-177.023
0
LINE
8
BLACK
6
CONTINUOUS
10
74.8772
20
-177.023
11
74.6868
21
-177.023
0
LINE
8
BLACK
6
CONTINUOUS
10
74.6868
20
-177.023
11
74.4963
21
-176.928
0
LINE
8
BLACK
6
CONTINUOUS
10
74.4963
20
-176.928
11
74.401
21
-176.832
0
LINE
8
BLACK
6
CONTINUOUS
10
74.401
20
-176.832
11
74.3058
21
-176.642
0
LINE
8
BLACK
6
CONTINUOUS
10
74.3058
20
-176.642
11
74.2106
21
-176.261
0
LINE
8
BLACK
6
CONTINUOUS
10
74.2106
20
-176.261
11
74.2106
21
-175.785
0
LINE
8
BLACK
6
CONTINUOUS
10
74.2106
20
-175.785
11
74.3058
21
-175.404
0
LINE
8
BLACK
6
CONTINUOUS
10
74.3058
20
-175.404
11
74.401
21
-175.213
0
LINE
8
BLACK
6
CONTINUOUS
10
74.401
20
-175.213
11
74.4963
21
-175.118
0
LINE
8
BLACK
6
CONTINUOUS
10
74.4963
20
-175.118
11
74.6868
21
-175.023
0
LINE
8
BLACK
6
CONTINUOUS
10
76.2106
20
-176.832
11
76.3058
21
-176.928
0
LINE
8
BLACK
6
CONTINUOUS
10
76.3058
20
-176.928
11
76.2106
21
-177.023
0
LINE
8
BLACK
6
CONTINUOUS
10
76.2106
20
-177.023
11
76.1153
21
-176.928
0
LINE
8
BLACK
6
CONTINUOUS
10
76.1153
20
-176.928
11
76.2106
21
-176.832
0
LINE
8
BLACK
6
CONTINUOUS
10
76.2106
20
-176.832
11
76.2106
21
-177.023
0
LINE
8
BLACK
6
CONTINUOUS
10
77.5439
20
-175.023
11
77.7344
21
-175.023
0
LINE
8
BLACK
6
CONTINUOUS
10
77.7344
20
-175.023
11
77.9249
21
-175.118
0
LINE
8
BLACK
6
CONTINUOUS
10
77.9249
20
-175.118
11
78.0201
21
-175.213
0
LINE
8
BLACK
6
CONTINUOUS
10
78.0201
20
-175.213
11
78.1153
21
-175.404
0
LINE
8
BLACK
6
CONTINUOUS
10
78.1153
20
-175.404
11
78.2106
21
-175.785
0
LINE
8
BLACK
6
CONTINUOUS
10
78.2106
20
-175.785
11
78.2106
21
-176.261
0
LINE
8
BLACK
6
CONTINUOUS
10
78.2106
20
-176.261
11
78.1153
21
-176.642
0
LINE
8
BLACK
6
CONTINUOUS
10
78.1153
20
-176.642
11
78.0201
21
-176.832
0
LINE
8
BLACK
6
CONTINUOUS
10
78.0201
20
-176.832
11
77.9249
21
-176.928
0
LINE
8
BLACK
6
CONTINUOUS
10
77.9249
20
-176.928
11
77.7344
21
-177.023
0
LINE
8
BLACK
6
CONTINUOUS
10
77.7344
20
-177.023
11
77.5439
21
-177.023
0
LINE
8
BLACK
6
CONTINUOUS
10
77.5439
20
-177.023
11
77.3534
21
-176.928
0
LINE
8
BLACK
6
CONTINUOUS
10
77.3534
20
-176.928
11
77.2582
21
-176.832
0
LINE
8
BLACK
6
CONTINUOUS
10
77.2582
20
-176.832
11
77.163
21
-176.642
0
LINE
8
BLACK
6
CONTINUOUS
10
77.163
20
-176.642
11
77.0677
21
-176.261
0
LINE
8
BLACK
6
CONTINUOUS
10
77.0677
20
-176.261
11
77.0677
21
-175.785
0
LINE
8
BLACK
6
CONTINUOUS
10
77.0677
20
-175.785
11
77.163
21
-175.404
0
LINE
8
BLACK
6
CONTINUOUS
10
77.163
20
-175.404
11
77.2582
21
-175.213
0
LINE
8
BLACK
6
CONTINUOUS
10
77.2582
20
-175.213
11
77.3534
21
-175.118
0
LINE
8
BLACK
6
CONTINUOUS
10
77.3534
20
-175.118
11
77.5439
21
-175.023
0
LINE
8
BLACK
6
CONTINUOUS
10
78.8772
20
-175.023
11
80.2106
21
-175.023
0
LINE
8
BLACK
6
CONTINUOUS
10
80.2106
20
-175.023
11
79.3534
21
-177.023
0
LINE
8
BLACK
6
CONTINUOUS
10
81.3534
20
-175.023
11
81.5439
21
-175.023
0
LINE
8
BLACK
6
CONTINUOUS
10
81.5439
20
-175.023
11
81.7344
21
-175.118
0
LINE
8
BLACK
6
CONTINUOUS
10
81.7344
20
-175.118
11
81.8296
21
-175.213
0
LINE
8
BLACK
6
CONTINUOUS
10
81.8296
20
-175.213
11
81.9249
21
-175.404
0
LINE
8
BLACK
6
CONTINUOUS
10
81.9249
20
-175.404
11
82.0201
21
-175.785
0
LINE
8
BLACK
6
CONTINUOUS
10
82.0201
20
-175.785
11
82.0201
21
-176.261
0
LINE
8
BLACK
6
CONTINUOUS
10
82.0201
20
-176.261
11
81.9249
21
-176.642
0
LINE
8
BLACK
6
CONTINUOUS
10
81.9249
20
-176.642
11
81.8296
21
-176.832
0
LINE
8
BLACK
6
CONTINUOUS
10
81.8296
20
-176.832
11
81.7344
21
-176.928
0
LINE
8
BLACK
6
CONTINUOUS
10
81.7344
20
-176.928
11
81.5439
21
-177.023
0
LINE
8
BLACK
6
CONTINUOUS
10
81.5439
20
-177.023
11
81.3534
21
-177.023
0
LINE
8
BLACK
6
CONTINUOUS
10
81.3534
20
-177.023
11
81.163
21
-176.928
0
LINE
8
BLACK
6
CONTINUOUS
10
81.163
20
-176.928
11
81.0677
21
-176.832
0
LINE
8
BLACK
6
CONTINUOUS
10
81.0677
20
-176.832
11
80.9725
21
-176.642
0
LINE
8
BLACK
6
CONTINUOUS
10
80.9725
20
-176.642
11
80.8772
21
-176.261
0
LINE
8
BLACK
6
CONTINUOUS
10
80.8772
20
-176.261
11
80.8772
21
-175.785
0
LINE
8
BLACK
6
CONTINUOUS
10
80.8772
20
-175.785
11
80.9725
21
-175.404
0
LINE
8
BLACK
6
CONTINUOUS
10
80.9725
20
-175.404
11
81.0677
21
-175.213
0
LINE
8
BLACK
6
CONTINUOUS
10
81.0677
20
-175.213
11
81.163
21
-175.118
0
LINE
8
BLACK
6
CONTINUOUS
10
81.163
20
-175.118
11
81.3534
21
-175.023
0
LINE
8
BLACK
6
CONTINUOUS
10
82.9725
20
-177.023
11
83.3534
21
-177.023
0
LINE
8
BLACK
6
CONTINUOUS
10
83.3534
20
-177.023
11
83.5439
21
-176.928
0
LINE
8
BLACK
6
CONTINUOUS
10
83.5439
20
-176.928
11
83.6391
21
-176.832
0
LINE
8
BLACK
6
CONTINUOUS
10
83.6391
20
-176.832
11
83.8296
21
-176.547
0
LINE
8
BLACK
6
CONTINUOUS
10
83.8296
20
-176.547
11
83.9249
21
-176.166
0
LINE
8
BLACK
6
CONTINUOUS
10
83.9249
20
-176.166
11
83.9249
21
-175.404
0
LINE
8
BLACK
6
CONTINUOUS
10
83.9249
20
-175.404
11
83.8296
21
-175.213
0
LINE
8
BLACK
6
CONTINUOUS
10
83.8296
20
-175.213
11
83.7344
21
-175.118
0
LINE
8
BLACK
6
CONTINUOUS
10
83.7344
20
-175.118
11
83.5439
21
-175.023
0
LINE
8
BLACK
6
CONTINUOUS
10
83.5439
20
-175.023
11
83.163
21
-175.023
0
LINE
8
BLACK
6
CONTINUOUS
10
83.163
20
-175.023
11
82.9725
21
-175.118
0
LINE
8
BLACK
6
CONTINUOUS
10
82.9725
20
-175.118
11
82.8772
21
-175.213
0
LINE
8
BLACK
6
CONTINUOUS
10
82.8772
20
-175.213
11
82.782
21
-175.404
0
LINE
8
BLACK
6
CONTINUOUS
10
82.782
20
-175.404
11
82.782
21
-175.88
0
LINE
8
BLACK
6
CONTINUOUS
10
82.782
20
-175.88
11
82.8772
21
-176.07
0
LINE
8
BLACK
6
CONTINUOUS
10
82.8772
20
-176.07
11
82.9725
21
-176.166
0
LINE
8
BLACK
6
CONTINUOUS
10
82.9725
20
-176.166
11
83.163
21
-176.261
0
LINE
8
BLACK
6
CONTINUOUS
10
83.163
20
-176.261
11
83.5439
21
-176.261
0
LINE
8
BLACK
6
CONTINUOUS
10
83.5439
20
-176.261
11
83.7344
21
-176.166
0
LINE
8
BLACK
6
CONTINUOUS
10
83.7344
20
-176.166
11
83.8296
21
-176.07
0
LINE
8
BLACK
6
CONTINUOUS
10
83.8296
20
-176.07
11
83.9249
21
-175.88
0
LINE
8
BLACK
6
CONTINUOUS
10
84.6868
20
-175.023
11
84.6868
21
-175.404
0
LINE
8
BLACK
6
CONTINUOUS
10
85.4487
20
-175.023
11
85.4487
21
-175.404
0
LINE
8
BLACK
6
CONTINUOUS
10
88.401
20
-177.785
11
88.3058
21
-177.689
0
LINE
8
BLACK
6
CONTINUOUS
10
88.3058
20
-177.689
11
88.1153
21
-177.404
0
LINE
8
BLACK
6
CONTINUOUS
10
88.1153
20
-177.404
11
88.0201
21
-177.213
0
LINE
8
BLACK
6
CONTINUOUS
10
88.0201
20
-177.213
11
87.9249
21
-176.928
0
LINE
8
BLACK
6
CONTINUOUS
10
87.9249
20
-176.928
11
87.8296
21
-176.451
0
LINE
8
BLACK
6
CONTINUOUS
10
87.8296
20
-176.451
11
87.8296
21
-176.07
0
LINE
8
BLACK
6
CONTINUOUS
10
87.8296
20
-176.07
11
87.9249
21
-175.594
0
LINE
8
BLACK
6
CONTINUOUS
10
87.9249
20
-175.594
11
88.0201
21
-175.308
0
LINE
8
BLACK
6
CONTINUOUS
10
88.0201
20
-175.308
11
88.1153
21
-175.118
0
LINE
8
BLACK
6
CONTINUOUS
10
88.1153
20
-175.118
11
88.3058
21
-174.832
0
LINE
8
BLACK
6
CONTINUOUS
10
88.3058
20
-174.832
11
88.401
21
-174.737
0
LINE
8
BLACK
6
CONTINUOUS
10
89.0677
20
-175.213
11
89.163
21
-175.118
0
LINE
8
BLACK
6
CONTINUOUS
10
89.163
20
-175.118
11
89.3534
21
-175.023
0
LINE
8
BLACK
6
CONTINUOUS
10
89.3534
20
-175.023
11
89.8296
21
-175.023
0
LINE
8
BLACK
6
CONTINUOUS
10
89.8296
20
-175.023
11
90.0201
21
-175.118
0
LINE
8
BLACK
6
CONTINUOUS
10
90.0201
20
-175.118
11
90.1153
21
-175.213
0
LINE
8
BLACK
6
CONTINUOUS
10
90.1153
20
-175.213
11
90.2106
21
-175.404
0
LINE
8
BLACK
6
CONTINUOUS
10
90.2106
20
-175.404
11
90.2106
21
-175.594
0
LINE
8
BLACK
6
CONTINUOUS
10
90.2106
20
-175.594
11
90.1153
21
-175.88
0
LINE
8
BLACK
6
CONTINUOUS
10
90.1153
20
-175.88
11
88.9725
21
-177.023
0
LINE
8
BLACK
6
CONTINUOUS
10
88.9725
20
-177.023
11
90.2106
21
-177.023
0
LINE
8
BLACK
6
CONTINUOUS
10
92.5915
20
-177.023
11
92.5915
21
-175.023
0
LINE
8
BLACK
6
CONTINUOUS
10
93.4487
20
-177.023
11
93.4487
21
-175.975
0
LINE
8
BLACK
6
CONTINUOUS
10
93.4487
20
-175.975
11
93.3534
21
-175.785
0
LINE
8
BLACK
6
CONTINUOUS
10
93.3534
20
-175.785
11
93.163
21
-175.689
0
LINE
8
BLACK
6
CONTINUOUS
10
93.163
20
-175.689
11
92.8772
21
-175.689
0
LINE
8
BLACK
6
CONTINUOUS
10
92.8772
20
-175.689
11
92.6868
21
-175.785
0
LINE
8
BLACK
6
CONTINUOUS
10
92.6868
20
-175.785
11
92.5915
21
-175.88
0
LINE
8
BLACK
6
CONTINUOUS
10
94.6868
20
-177.023
11
94.4963
21
-176.928
0
LINE
8
BLACK
6
CONTINUOUS
10
94.4963
20
-176.928
11
94.401
21
-176.832
0
LINE
8
BLACK
6
CONTINUOUS
10
94.401
20
-176.832
11
94.3058
21
-176.642
0
LINE
8
BLACK
6
CONTINUOUS
10
94.3058
20
-176.642
11
94.3058
21
-176.07
0
LINE
8
BLACK
6
CONTINUOUS
10
94.3058
20
-176.07
11
94.401
21
-175.88
0
LINE
8
BLACK
6
CONTINUOUS
10
94.401
20
-175.88
11
94.4963
21
-175.785
0
LINE
8
BLACK
6
CONTINUOUS
10
94.4963
20
-175.785
11
94.6868
21
-175.689
0
LINE
8
BLACK
6
CONTINUOUS
10
94.6868
20
-175.689
11
94.9725
21
-175.689
0
LINE
8
BLACK
6
CONTINUOUS
10
94.9725
20
-175.689
11
95.163
21
-175.785
0
LINE
8
BLACK
6
CONTINUOUS
10
95.163
20
-175.785
11
95.2582
21
-175.88
0
LINE
8
BLACK
6
CONTINUOUS
10
95.2582
20
-175.88
11
95.3534
21
-176.07
0
LINE
8
BLACK
6
CONTINUOUS
10
95.3534
20
-176.07
11
95.3534
21
-176.642
0
LINE
8
BLACK
6
CONTINUOUS
10
95.3534
20
-176.642
11
95.2582
21
-176.832
0
LINE
8
BLACK
6
CONTINUOUS
10
95.2582
20
-176.832
11
95.163
21
-176.928
0
LINE
8
BLACK
6
CONTINUOUS
10
95.163
20
-176.928
11
94.9725
21
-177.023
0
LINE
8
BLACK
6
CONTINUOUS
10
94.9725
20
-177.023
11
94.6868
21
-177.023
0
LINE
8
BLACK
6
CONTINUOUS
10
96.4963
20
-177.023
11
96.3058
21
-176.928
0
LINE
8
BLACK
6
CONTINUOUS
10
96.3058
20
-176.928
11
96.2106
21
-176.737
0
LINE
8
BLACK
6
CONTINUOUS
10
96.2106
20
-176.737
11
96.2106
21
-175.023
0
LINE
8
BLACK
6
CONTINUOUS
10
98.0201
20
-176.928
11
97.8296
21
-177.023
0
LINE
8
BLACK
6
CONTINUOUS
10
97.8296
20
-177.023
11
97.4487
21
-177.023
0
LINE
8
BLACK
6
CONTINUOUS
10
97.4487
20
-177.023
11
97.2582
21
-176.928
0
LINE
8
BLACK
6
CONTINUOUS
10
97.2582
20
-176.928
11
97.163
21
-176.737
0
LINE
8
BLACK
6
CONTINUOUS
10
97.163
20
-176.737
11
97.163
21
-175.975
0
LINE
8
BLACK
6
CONTINUOUS
10
97.163
20
-175.975
11
97.2582
21
-175.785
0
LINE
8
BLACK
6
CONTINUOUS
10
97.2582
20
-175.785
11
97.4487
21
-175.689
0
LINE
8
BLACK
6
CONTINUOUS
10
97.4487
20
-175.689
11
97.8296
21
-175.689
0
LINE
8
BLACK
6
CONTINUOUS
10
97.8296
20
-175.689
11
98.0201
21
-175.785
0
LINE
8
BLACK
6
CONTINUOUS
10
98.0201
20
-175.785
11
98.1153
21
-175.975
0
LINE
8
BLACK
6
CONTINUOUS
10
98.1153
20
-175.975
11
98.1153
21
-176.166
0
LINE
8
BLACK
6
CONTINUOUS
10
98.1153
20
-176.166
11
97.163
21
-176.356
0
LINE
8
BLACK
6
CONTINUOUS
10
98.8772
20
-176.928
11
99.0677
21
-177.023
0
LINE
8
BLACK
6
CONTINUOUS
10
99.0677
20
-177.023
11
99.4487
21
-177.023
0
LINE
8
BLACK
6
CONTINUOUS
10
99.4487
20
-177.023
11
99.6391
21
-176.928
0
LINE
8
BLACK
6
CONTINUOUS
10
99.6391
20
-176.928
11
99.7344
21
-176.737
0
LINE
8
BLACK
6
CONTINUOUS
10
99.7344
20
-176.737
11
99.7344
21
-176.642
0
LINE
8
BLACK
6
CONTINUOUS
10
99.7344
20
-176.642
11
99.6391
21
-176.451
0
LINE
8
BLACK
6
CONTINUOUS
10
99.6391
20
-176.451
11
99.4487
21
-176.356
0
LINE
8
BLACK
6
CONTINUOUS
10
99.4487
20
-176.356
11
99.163
21
-176.356
0
LINE
8
BLACK
6
CONTINUOUS
10
99.163
20
-176.356
11
98.9725
21
-176.261
0
LINE
8
BLACK
6
CONTINUOUS
10
98.9725
20
-176.261
11
98.8772
21
-176.07
0
LINE
8
BLACK
6
CONTINUOUS
10
98.8772
20
-176.07
11
98.8772
21
-175.975
0
LINE
8
BLACK
6
CONTINUOUS
10
98.8772
20
-175.975
11
98.9725
21
-175.785
0
LINE
8
BLACK
6
CONTINUOUS
10
98.9725
20
-175.785
11
99.163
21
-175.689
0
LINE
8
BLACK
6
CONTINUOUS
10
99.163
20
-175.689
11
99.4487
21
-175.689
0
LINE
8
BLACK
6
CONTINUOUS
10
99.4487
20
-175.689
11
99.6391
21
-175.785
0
LINE
8
BLACK
6
CONTINUOUS
10
100.401
20
-177.785
11
100.496
21
-177.689
0
LINE
8
BLACK
6
CONTINUOUS
10
100.496
20
-177.689
11
100.687
21
-177.404
0
LINE
8
BLACK
6
CONTINUOUS
10
100.687
20
-177.404
11
100.782
21
-177.213
0
LINE
8
BLACK
6
CONTINUOUS
10
100.782
20
-177.213
11
100.877
21
-176.928
0
LINE
8
BLACK
6
CONTINUOUS
10
100.877
20
-176.928
11
100.972
21
-176.451
0
LINE
8
BLACK
6
CONTINUOUS
10
100.972
20
-176.451
11
100.972
21
-176.07
0
LINE
8
BLACK
6
CONTINUOUS
10
100.972
20
-176.07
11
100.877
21
-175.594
0
LINE
8
BLACK
6
CONTINUOUS
10
100.877
20
-175.594
11
100.782
21
-175.308
0
LINE
8
BLACK
6
CONTINUOUS
10
100.782
20
-175.308
11
100.687
21
-175.118
0
LINE
8
BLACK
6
CONTINUOUS
10
100.687
20
-175.118
11
100.496
21
-174.832
0
LINE
8
BLACK
6
CONTINUOUS
10
100.496
20
-174.832
11
100.401
21
-174.737
  0
ENDSEC
  0
EOF
