%FSLAX45Y45*%
G04 Gerber Fmt 4.5, Leading zero omitted, Abs format (unit mm)*
G04 Created by KiCad (PCBNEW (6.0.1-0)) date 2022-02-11 21:02:17*
%MOMM*%
%LPD*%
G01*
G04 APERTURE LIST*
%TA.AperFunction,Profile*%
%ADD10C,0.100000*%
%TD*%
%ADD11C,0.200000*%
%ADD12C,0.099060*%
%ADD13C,0.320000*%
G04 APERTURE END LIST*
D10*
X8303200Y-15596800D02*
G75*
G03*
X8353200Y-15646800I50000J0D01*
G01*
X12533200Y-10696800D02*
G75*
G03*
X12333200Y-10496800I-200000J0D01*
G01*
X12333200Y-10496800D02*
X8503200Y-10496800D01*
X12483200Y-14996800D02*
G75*
G03*
X12533200Y-14946800I0J50000D01*
G01*
X8683200Y-15646800D02*
X8353200Y-15646800D01*
X11533200Y-15646800D02*
X10513200Y-15646800D01*
X10463200Y-15596800D02*
G75*
G03*
X10513200Y-15646800I50000J0D01*
G01*
X11533200Y-15646800D02*
G75*
G03*
X11583200Y-15596800I0J50000D01*
G01*
X11583200Y-15596800D02*
X11583200Y-15046800D01*
X10463200Y-14996800D02*
X8733200Y-14996800D01*
X11633200Y-14996800D02*
G75*
G03*
X11583200Y-15046800I0J-50000D01*
G01*
X8733200Y-14996800D02*
X8733200Y-15596800D01*
X10463200Y-15596800D02*
X10463200Y-14996800D01*
X8683200Y-15646800D02*
G75*
G03*
X8733200Y-15596800I0J50000D01*
G01*
X8303200Y-15596800D02*
X8303200Y-10696800D01*
X8503200Y-10496800D02*
G75*
G03*
X8303200Y-10696800I0J-200000D01*
G01*
X12533200Y-10696800D02*
X12533200Y-14946800D01*
X12483200Y-14996800D02*
X11633200Y-14996800D01*
D11*
D12*
X8900070Y-10740610D02*
X8999130Y-10839670D01*
X8999130Y-10740610D02*
X8900070Y-10839670D01*
X9408070Y-10639010D02*
X9507130Y-10738070D01*
X9507130Y-10639010D02*
X9408070Y-10738070D01*
X9408070Y-10842210D02*
X9507130Y-10941270D01*
X9507130Y-10842210D02*
X9408070Y-10941270D01*
D13*
X9608800Y-11353800D02*
G75*
G03*
X9608800Y-11353800I-160000J0D01*
G01*
X12323000Y-10812000D02*
G75*
G03*
X12323000Y-10812000I-160000J0D01*
G01*
D11*
X8555819Y-15962276D02*
X8555819Y-15762276D01*
X8603438Y-15762276D01*
X8632010Y-15771800D01*
X8651057Y-15790848D01*
X8660581Y-15809895D01*
X8670105Y-15847990D01*
X8670105Y-15876562D01*
X8660581Y-15914657D01*
X8651057Y-15933705D01*
X8632010Y-15952752D01*
X8603438Y-15962276D01*
X8555819Y-15962276D01*
X8755819Y-15962276D02*
X8755819Y-15828943D01*
X8755819Y-15867038D02*
X8765343Y-15847990D01*
X8774867Y-15838467D01*
X8793914Y-15828943D01*
X8812962Y-15828943D01*
X8879629Y-15962276D02*
X8879629Y-15828943D01*
X8879629Y-15762276D02*
X8870105Y-15771800D01*
X8879629Y-15781324D01*
X8889152Y-15771800D01*
X8879629Y-15762276D01*
X8879629Y-15781324D01*
X9003438Y-15962276D02*
X8984390Y-15952752D01*
X8974867Y-15933705D01*
X8974867Y-15762276D01*
X9108200Y-15962276D02*
X9089152Y-15952752D01*
X9079629Y-15933705D01*
X9079629Y-15762276D01*
X9336771Y-15962276D02*
X9336771Y-15762276D01*
X9403438Y-15905133D01*
X9470105Y-15762276D01*
X9470105Y-15962276D01*
X9651057Y-15962276D02*
X9651057Y-15857514D01*
X9641533Y-15838467D01*
X9622486Y-15828943D01*
X9584390Y-15828943D01*
X9565343Y-15838467D01*
X9651057Y-15952752D02*
X9632010Y-15962276D01*
X9584390Y-15962276D01*
X9565343Y-15952752D01*
X9555819Y-15933705D01*
X9555819Y-15914657D01*
X9565343Y-15895609D01*
X9584390Y-15886086D01*
X9632010Y-15886086D01*
X9651057Y-15876562D01*
X9746295Y-15828943D02*
X9746295Y-16028943D01*
X9746295Y-15838467D02*
X9765343Y-15828943D01*
X9803438Y-15828943D01*
X9822486Y-15838467D01*
X9832010Y-15847990D01*
X9841533Y-15867038D01*
X9841533Y-15924181D01*
X9832010Y-15943228D01*
X9822486Y-15952752D01*
X9803438Y-15962276D01*
X9765343Y-15962276D01*
X9746295Y-15952752D01*
X9927248Y-15943228D02*
X9936771Y-15952752D01*
X9927248Y-15962276D01*
X9917724Y-15952752D01*
X9927248Y-15943228D01*
X9927248Y-15962276D01*
X9927248Y-15838467D02*
X9936771Y-15847990D01*
X9927248Y-15857514D01*
X9917724Y-15847990D01*
X9927248Y-15838467D01*
X9927248Y-15857514D01*
D12*
X8199140Y-16242270D02*
X8298200Y-16341330D01*
X8298200Y-16242270D02*
X8199140Y-16341330D01*
D11*
X8593914Y-16182276D02*
X8612962Y-16182276D01*
X8632010Y-16191800D01*
X8641533Y-16201324D01*
X8651057Y-16220371D01*
X8660581Y-16258467D01*
X8660581Y-16306086D01*
X8651057Y-16344181D01*
X8641533Y-16363228D01*
X8632010Y-16372752D01*
X8612962Y-16382276D01*
X8593914Y-16382276D01*
X8574867Y-16372752D01*
X8565343Y-16363228D01*
X8555819Y-16344181D01*
X8546295Y-16306086D01*
X8546295Y-16258467D01*
X8555819Y-16220371D01*
X8565343Y-16201324D01*
X8574867Y-16191800D01*
X8593914Y-16182276D01*
X8746295Y-16363228D02*
X8755819Y-16372752D01*
X8746295Y-16382276D01*
X8736771Y-16372752D01*
X8746295Y-16363228D01*
X8746295Y-16382276D01*
X8851057Y-16382276D02*
X8889152Y-16382276D01*
X8908200Y-16372752D01*
X8917724Y-16363228D01*
X8936771Y-16334657D01*
X8946295Y-16296562D01*
X8946295Y-16220371D01*
X8936771Y-16201324D01*
X8927248Y-16191800D01*
X8908200Y-16182276D01*
X8870105Y-16182276D01*
X8851057Y-16191800D01*
X8841533Y-16201324D01*
X8832010Y-16220371D01*
X8832010Y-16267990D01*
X8841533Y-16287038D01*
X8851057Y-16296562D01*
X8870105Y-16306086D01*
X8908200Y-16306086D01*
X8927248Y-16296562D01*
X8936771Y-16287038D01*
X8946295Y-16267990D01*
X9041533Y-16382276D02*
X9079629Y-16382276D01*
X9098676Y-16372752D01*
X9108200Y-16363228D01*
X9127248Y-16334657D01*
X9136771Y-16296562D01*
X9136771Y-16220371D01*
X9127248Y-16201324D01*
X9117724Y-16191800D01*
X9098676Y-16182276D01*
X9060581Y-16182276D01*
X9041533Y-16191800D01*
X9032010Y-16201324D01*
X9022486Y-16220371D01*
X9022486Y-16267990D01*
X9032010Y-16287038D01*
X9041533Y-16296562D01*
X9060581Y-16306086D01*
X9098676Y-16306086D01*
X9117724Y-16296562D01*
X9127248Y-16287038D01*
X9136771Y-16267990D01*
X9327248Y-16382276D02*
X9212962Y-16382276D01*
X9270105Y-16382276D02*
X9270105Y-16182276D01*
X9251057Y-16210848D01*
X9232010Y-16229895D01*
X9212962Y-16239419D01*
X9412962Y-16382276D02*
X9412962Y-16248943D01*
X9412962Y-16267990D02*
X9422486Y-16258467D01*
X9441533Y-16248943D01*
X9470105Y-16248943D01*
X9489152Y-16258467D01*
X9498676Y-16277514D01*
X9498676Y-16382276D01*
X9498676Y-16277514D02*
X9508200Y-16258467D01*
X9527248Y-16248943D01*
X9555819Y-16248943D01*
X9574867Y-16258467D01*
X9584390Y-16277514D01*
X9584390Y-16382276D01*
X9679629Y-16382276D02*
X9679629Y-16248943D01*
X9679629Y-16267990D02*
X9689152Y-16258467D01*
X9708200Y-16248943D01*
X9736771Y-16248943D01*
X9755819Y-16258467D01*
X9765343Y-16277514D01*
X9765343Y-16382276D01*
X9765343Y-16277514D02*
X9774867Y-16258467D01*
X9793914Y-16248943D01*
X9822486Y-16248943D01*
X9841533Y-16258467D01*
X9851057Y-16277514D01*
X9851057Y-16382276D01*
X10241533Y-16172752D02*
X10070105Y-16429895D01*
X10498676Y-16182276D02*
X10517724Y-16182276D01*
X10536771Y-16191800D01*
X10546295Y-16201324D01*
X10555819Y-16220371D01*
X10565343Y-16258467D01*
X10565343Y-16306086D01*
X10555819Y-16344181D01*
X10546295Y-16363228D01*
X10536771Y-16372752D01*
X10517724Y-16382276D01*
X10498676Y-16382276D01*
X10479629Y-16372752D01*
X10470105Y-16363228D01*
X10460581Y-16344181D01*
X10451057Y-16306086D01*
X10451057Y-16258467D01*
X10460581Y-16220371D01*
X10470105Y-16201324D01*
X10479629Y-16191800D01*
X10498676Y-16182276D01*
X10651057Y-16363228D02*
X10660581Y-16372752D01*
X10651057Y-16382276D01*
X10641533Y-16372752D01*
X10651057Y-16363228D01*
X10651057Y-16382276D01*
X10784390Y-16182276D02*
X10803438Y-16182276D01*
X10822486Y-16191800D01*
X10832010Y-16201324D01*
X10841533Y-16220371D01*
X10851057Y-16258467D01*
X10851057Y-16306086D01*
X10841533Y-16344181D01*
X10832010Y-16363228D01*
X10822486Y-16372752D01*
X10803438Y-16382276D01*
X10784390Y-16382276D01*
X10765343Y-16372752D01*
X10755819Y-16363228D01*
X10746295Y-16344181D01*
X10736771Y-16306086D01*
X10736771Y-16258467D01*
X10746295Y-16220371D01*
X10755819Y-16201324D01*
X10765343Y-16191800D01*
X10784390Y-16182276D01*
X10917724Y-16182276D02*
X11041533Y-16182276D01*
X10974867Y-16258467D01*
X11003438Y-16258467D01*
X11022486Y-16267990D01*
X11032010Y-16277514D01*
X11041533Y-16296562D01*
X11041533Y-16344181D01*
X11032010Y-16363228D01*
X11022486Y-16372752D01*
X11003438Y-16382276D01*
X10946295Y-16382276D01*
X10927248Y-16372752D01*
X10917724Y-16363228D01*
X11136771Y-16382276D02*
X11174867Y-16382276D01*
X11193914Y-16372752D01*
X11203438Y-16363228D01*
X11222486Y-16334657D01*
X11232009Y-16296562D01*
X11232009Y-16220371D01*
X11222486Y-16201324D01*
X11212962Y-16191800D01*
X11193914Y-16182276D01*
X11155819Y-16182276D01*
X11136771Y-16191800D01*
X11127248Y-16201324D01*
X11117724Y-16220371D01*
X11117724Y-16267990D01*
X11127248Y-16287038D01*
X11136771Y-16296562D01*
X11155819Y-16306086D01*
X11193914Y-16306086D01*
X11212962Y-16296562D01*
X11222486Y-16287038D01*
X11232009Y-16267990D01*
X11355819Y-16182276D02*
X11374867Y-16182276D01*
X11393914Y-16191800D01*
X11403438Y-16201324D01*
X11412962Y-16220371D01*
X11422486Y-16258467D01*
X11422486Y-16306086D01*
X11412962Y-16344181D01*
X11403438Y-16363228D01*
X11393914Y-16372752D01*
X11374867Y-16382276D01*
X11355819Y-16382276D01*
X11336771Y-16372752D01*
X11327248Y-16363228D01*
X11317724Y-16344181D01*
X11308200Y-16306086D01*
X11308200Y-16258467D01*
X11317724Y-16220371D01*
X11327248Y-16201324D01*
X11336771Y-16191800D01*
X11355819Y-16182276D01*
X11498676Y-16182276D02*
X11498676Y-16220371D01*
X11574867Y-16182276D02*
X11574867Y-16220371D01*
X11870105Y-16458467D02*
X11860581Y-16448943D01*
X11841533Y-16420371D01*
X11832009Y-16401324D01*
X11822486Y-16372752D01*
X11812962Y-16325133D01*
X11812962Y-16287038D01*
X11822486Y-16239419D01*
X11832009Y-16210848D01*
X11841533Y-16191800D01*
X11860581Y-16163228D01*
X11870105Y-16153705D01*
X11927248Y-16182276D02*
X12051057Y-16182276D01*
X11984390Y-16258467D01*
X12012962Y-16258467D01*
X12032009Y-16267990D01*
X12041533Y-16277514D01*
X12051057Y-16296562D01*
X12051057Y-16344181D01*
X12041533Y-16363228D01*
X12032009Y-16372752D01*
X12012962Y-16382276D01*
X11955819Y-16382276D01*
X11936771Y-16372752D01*
X11927248Y-16363228D01*
X12289152Y-16382276D02*
X12289152Y-16182276D01*
X12374867Y-16382276D02*
X12374867Y-16277514D01*
X12365343Y-16258467D01*
X12346295Y-16248943D01*
X12317724Y-16248943D01*
X12298676Y-16258467D01*
X12289152Y-16267990D01*
X12498676Y-16382276D02*
X12479628Y-16372752D01*
X12470105Y-16363228D01*
X12460581Y-16344181D01*
X12460581Y-16287038D01*
X12470105Y-16267990D01*
X12479628Y-16258467D01*
X12498676Y-16248943D01*
X12527248Y-16248943D01*
X12546295Y-16258467D01*
X12555819Y-16267990D01*
X12565343Y-16287038D01*
X12565343Y-16344181D01*
X12555819Y-16363228D01*
X12546295Y-16372752D01*
X12527248Y-16382276D01*
X12498676Y-16382276D01*
X12679628Y-16382276D02*
X12660581Y-16372752D01*
X12651057Y-16353705D01*
X12651057Y-16182276D01*
X12832009Y-16372752D02*
X12812962Y-16382276D01*
X12774867Y-16382276D01*
X12755819Y-16372752D01*
X12746295Y-16353705D01*
X12746295Y-16277514D01*
X12755819Y-16258467D01*
X12774867Y-16248943D01*
X12812962Y-16248943D01*
X12832009Y-16258467D01*
X12841533Y-16277514D01*
X12841533Y-16296562D01*
X12746295Y-16315609D01*
X12917724Y-16372752D02*
X12936771Y-16382276D01*
X12974867Y-16382276D01*
X12993914Y-16372752D01*
X13003438Y-16353705D01*
X13003438Y-16344181D01*
X12993914Y-16325133D01*
X12974867Y-16315609D01*
X12946295Y-16315609D01*
X12927248Y-16306086D01*
X12917724Y-16287038D01*
X12917724Y-16277514D01*
X12927248Y-16258467D01*
X12946295Y-16248943D01*
X12974867Y-16248943D01*
X12993914Y-16258467D01*
X13070105Y-16458467D02*
X13079628Y-16448943D01*
X13098676Y-16420371D01*
X13108200Y-16401324D01*
X13117724Y-16372752D01*
X13127248Y-16325133D01*
X13127248Y-16287038D01*
X13117724Y-16239419D01*
X13108200Y-16210848D01*
X13098676Y-16191800D01*
X13079628Y-16163228D01*
X13070105Y-16153705D01*
X13432009Y-16458467D02*
X13422486Y-16448943D01*
X13403438Y-16420371D01*
X13393914Y-16401324D01*
X13384390Y-16372752D01*
X13374867Y-16325133D01*
X13374867Y-16287038D01*
X13384390Y-16239419D01*
X13393914Y-16210848D01*
X13403438Y-16191800D01*
X13422486Y-16163228D01*
X13432009Y-16153705D01*
X13508200Y-16248943D02*
X13508200Y-16382276D01*
X13508200Y-16267990D02*
X13517724Y-16258467D01*
X13536771Y-16248943D01*
X13565343Y-16248943D01*
X13584390Y-16258467D01*
X13593914Y-16277514D01*
X13593914Y-16382276D01*
X13717724Y-16382276D02*
X13698676Y-16372752D01*
X13689152Y-16363228D01*
X13679628Y-16344181D01*
X13679628Y-16287038D01*
X13689152Y-16267990D01*
X13698676Y-16258467D01*
X13717724Y-16248943D01*
X13746295Y-16248943D01*
X13765343Y-16258467D01*
X13774867Y-16267990D01*
X13784390Y-16287038D01*
X13784390Y-16344181D01*
X13774867Y-16363228D01*
X13765343Y-16372752D01*
X13746295Y-16382276D01*
X13717724Y-16382276D01*
X13841533Y-16248943D02*
X13917724Y-16248943D01*
X13870105Y-16182276D02*
X13870105Y-16353705D01*
X13879628Y-16372752D01*
X13898676Y-16382276D01*
X13917724Y-16382276D01*
X14136771Y-16248943D02*
X14136771Y-16448943D01*
X14136771Y-16258467D02*
X14155819Y-16248943D01*
X14193914Y-16248943D01*
X14212962Y-16258467D01*
X14222486Y-16267990D01*
X14232009Y-16287038D01*
X14232009Y-16344181D01*
X14222486Y-16363228D01*
X14212962Y-16372752D01*
X14193914Y-16382276D01*
X14155819Y-16382276D01*
X14136771Y-16372752D01*
X14346295Y-16382276D02*
X14327248Y-16372752D01*
X14317724Y-16353705D01*
X14317724Y-16182276D01*
X14508200Y-16382276D02*
X14508200Y-16277514D01*
X14498676Y-16258467D01*
X14479628Y-16248943D01*
X14441533Y-16248943D01*
X14422486Y-16258467D01*
X14508200Y-16372752D02*
X14489152Y-16382276D01*
X14441533Y-16382276D01*
X14422486Y-16372752D01*
X14412962Y-16353705D01*
X14412962Y-16334657D01*
X14422486Y-16315609D01*
X14441533Y-16306086D01*
X14489152Y-16306086D01*
X14508200Y-16296562D01*
X14574867Y-16248943D02*
X14651057Y-16248943D01*
X14603438Y-16182276D02*
X14603438Y-16353705D01*
X14612962Y-16372752D01*
X14632009Y-16382276D01*
X14651057Y-16382276D01*
X14793914Y-16372752D02*
X14774867Y-16382276D01*
X14736771Y-16382276D01*
X14717724Y-16372752D01*
X14708200Y-16353705D01*
X14708200Y-16277514D01*
X14717724Y-16258467D01*
X14736771Y-16248943D01*
X14774867Y-16248943D01*
X14793914Y-16258467D01*
X14803438Y-16277514D01*
X14803438Y-16296562D01*
X14708200Y-16315609D01*
X14974867Y-16382276D02*
X14974867Y-16182276D01*
X14974867Y-16372752D02*
X14955819Y-16382276D01*
X14917724Y-16382276D01*
X14898676Y-16372752D01*
X14889152Y-16363228D01*
X14879628Y-16344181D01*
X14879628Y-16287038D01*
X14889152Y-16267990D01*
X14898676Y-16258467D01*
X14917724Y-16248943D01*
X14955819Y-16248943D01*
X14974867Y-16258467D01*
X15051057Y-16458467D02*
X15060581Y-16448943D01*
X15079628Y-16420371D01*
X15089152Y-16401324D01*
X15098676Y-16372752D01*
X15108200Y-16325133D01*
X15108200Y-16287038D01*
X15098676Y-16239419D01*
X15089152Y-16210848D01*
X15079628Y-16191800D01*
X15060581Y-16163228D01*
X15051057Y-16153705D01*
X8298200Y-16555800D02*
G75*
G03*
X8298200Y-16555800I-100000J0D01*
G01*
X8536771Y-16446276D02*
X8660581Y-16446276D01*
X8593914Y-16522467D01*
X8622486Y-16522467D01*
X8641533Y-16531990D01*
X8651057Y-16541514D01*
X8660581Y-16560562D01*
X8660581Y-16608181D01*
X8651057Y-16627228D01*
X8641533Y-16636752D01*
X8622486Y-16646276D01*
X8565343Y-16646276D01*
X8546295Y-16636752D01*
X8536771Y-16627228D01*
X8746295Y-16627228D02*
X8755819Y-16636752D01*
X8746295Y-16646276D01*
X8736771Y-16636752D01*
X8746295Y-16627228D01*
X8746295Y-16646276D01*
X8832010Y-16465324D02*
X8841533Y-16455800D01*
X8860581Y-16446276D01*
X8908200Y-16446276D01*
X8927248Y-16455800D01*
X8936771Y-16465324D01*
X8946295Y-16484371D01*
X8946295Y-16503419D01*
X8936771Y-16531990D01*
X8822486Y-16646276D01*
X8946295Y-16646276D01*
X9070105Y-16446276D02*
X9089152Y-16446276D01*
X9108200Y-16455800D01*
X9117724Y-16465324D01*
X9127248Y-16484371D01*
X9136771Y-16522467D01*
X9136771Y-16570086D01*
X9127248Y-16608181D01*
X9117724Y-16627228D01*
X9108200Y-16636752D01*
X9089152Y-16646276D01*
X9070105Y-16646276D01*
X9051057Y-16636752D01*
X9041533Y-16627228D01*
X9032010Y-16608181D01*
X9022486Y-16570086D01*
X9022486Y-16522467D01*
X9032010Y-16484371D01*
X9041533Y-16465324D01*
X9051057Y-16455800D01*
X9070105Y-16446276D01*
X9260581Y-16446276D02*
X9279629Y-16446276D01*
X9298676Y-16455800D01*
X9308200Y-16465324D01*
X9317724Y-16484371D01*
X9327248Y-16522467D01*
X9327248Y-16570086D01*
X9317724Y-16608181D01*
X9308200Y-16627228D01*
X9298676Y-16636752D01*
X9279629Y-16646276D01*
X9260581Y-16646276D01*
X9241533Y-16636752D01*
X9232010Y-16627228D01*
X9222486Y-16608181D01*
X9212962Y-16570086D01*
X9212962Y-16522467D01*
X9222486Y-16484371D01*
X9232010Y-16465324D01*
X9241533Y-16455800D01*
X9260581Y-16446276D01*
X9412962Y-16646276D02*
X9412962Y-16512943D01*
X9412962Y-16531990D02*
X9422486Y-16522467D01*
X9441533Y-16512943D01*
X9470105Y-16512943D01*
X9489152Y-16522467D01*
X9498676Y-16541514D01*
X9498676Y-16646276D01*
X9498676Y-16541514D02*
X9508200Y-16522467D01*
X9527248Y-16512943D01*
X9555819Y-16512943D01*
X9574867Y-16522467D01*
X9584390Y-16541514D01*
X9584390Y-16646276D01*
X9679629Y-16646276D02*
X9679629Y-16512943D01*
X9679629Y-16531990D02*
X9689152Y-16522467D01*
X9708200Y-16512943D01*
X9736771Y-16512943D01*
X9755819Y-16522467D01*
X9765343Y-16541514D01*
X9765343Y-16646276D01*
X9765343Y-16541514D02*
X9774867Y-16522467D01*
X9793914Y-16512943D01*
X9822486Y-16512943D01*
X9841533Y-16522467D01*
X9851057Y-16541514D01*
X9851057Y-16646276D01*
X10241533Y-16436752D02*
X10070105Y-16693895D01*
X10498676Y-16446276D02*
X10517724Y-16446276D01*
X10536771Y-16455800D01*
X10546295Y-16465324D01*
X10555819Y-16484371D01*
X10565343Y-16522467D01*
X10565343Y-16570086D01*
X10555819Y-16608181D01*
X10546295Y-16627228D01*
X10536771Y-16636752D01*
X10517724Y-16646276D01*
X10498676Y-16646276D01*
X10479629Y-16636752D01*
X10470105Y-16627228D01*
X10460581Y-16608181D01*
X10451057Y-16570086D01*
X10451057Y-16522467D01*
X10460581Y-16484371D01*
X10470105Y-16465324D01*
X10479629Y-16455800D01*
X10498676Y-16446276D01*
X10651057Y-16627228D02*
X10660581Y-16636752D01*
X10651057Y-16646276D01*
X10641533Y-16636752D01*
X10651057Y-16627228D01*
X10651057Y-16646276D01*
X10851057Y-16646276D02*
X10736771Y-16646276D01*
X10793914Y-16646276D02*
X10793914Y-16446276D01*
X10774867Y-16474848D01*
X10755819Y-16493895D01*
X10736771Y-16503419D01*
X10927248Y-16465324D02*
X10936771Y-16455800D01*
X10955819Y-16446276D01*
X11003438Y-16446276D01*
X11022486Y-16455800D01*
X11032010Y-16465324D01*
X11041533Y-16484371D01*
X11041533Y-16503419D01*
X11032010Y-16531990D01*
X10917724Y-16646276D01*
X11041533Y-16646276D01*
X11212962Y-16446276D02*
X11174867Y-16446276D01*
X11155819Y-16455800D01*
X11146295Y-16465324D01*
X11127248Y-16493895D01*
X11117724Y-16531990D01*
X11117724Y-16608181D01*
X11127248Y-16627228D01*
X11136771Y-16636752D01*
X11155819Y-16646276D01*
X11193914Y-16646276D01*
X11212962Y-16636752D01*
X11222486Y-16627228D01*
X11232009Y-16608181D01*
X11232009Y-16560562D01*
X11222486Y-16541514D01*
X11212962Y-16531990D01*
X11193914Y-16522467D01*
X11155819Y-16522467D01*
X11136771Y-16531990D01*
X11127248Y-16541514D01*
X11117724Y-16560562D01*
X11355819Y-16446276D02*
X11374867Y-16446276D01*
X11393914Y-16455800D01*
X11403438Y-16465324D01*
X11412962Y-16484371D01*
X11422486Y-16522467D01*
X11422486Y-16570086D01*
X11412962Y-16608181D01*
X11403438Y-16627228D01*
X11393914Y-16636752D01*
X11374867Y-16646276D01*
X11355819Y-16646276D01*
X11336771Y-16636752D01*
X11327248Y-16627228D01*
X11317724Y-16608181D01*
X11308200Y-16570086D01*
X11308200Y-16522467D01*
X11317724Y-16484371D01*
X11327248Y-16465324D01*
X11336771Y-16455800D01*
X11355819Y-16446276D01*
X11498676Y-16446276D02*
X11498676Y-16484371D01*
X11574867Y-16446276D02*
X11574867Y-16484371D01*
X11870105Y-16722467D02*
X11860581Y-16712943D01*
X11841533Y-16684371D01*
X11832009Y-16665324D01*
X11822486Y-16636752D01*
X11812962Y-16589133D01*
X11812962Y-16551038D01*
X11822486Y-16503419D01*
X11832009Y-16474848D01*
X11841533Y-16455800D01*
X11860581Y-16427228D01*
X11870105Y-16417705D01*
X11936771Y-16465324D02*
X11946295Y-16455800D01*
X11965343Y-16446276D01*
X12012962Y-16446276D01*
X12032009Y-16455800D01*
X12041533Y-16465324D01*
X12051057Y-16484371D01*
X12051057Y-16503419D01*
X12041533Y-16531990D01*
X11927248Y-16646276D01*
X12051057Y-16646276D01*
X12289152Y-16646276D02*
X12289152Y-16446276D01*
X12374867Y-16646276D02*
X12374867Y-16541514D01*
X12365343Y-16522467D01*
X12346295Y-16512943D01*
X12317724Y-16512943D01*
X12298676Y-16522467D01*
X12289152Y-16531990D01*
X12498676Y-16646276D02*
X12479628Y-16636752D01*
X12470105Y-16627228D01*
X12460581Y-16608181D01*
X12460581Y-16551038D01*
X12470105Y-16531990D01*
X12479628Y-16522467D01*
X12498676Y-16512943D01*
X12527248Y-16512943D01*
X12546295Y-16522467D01*
X12555819Y-16531990D01*
X12565343Y-16551038D01*
X12565343Y-16608181D01*
X12555819Y-16627228D01*
X12546295Y-16636752D01*
X12527248Y-16646276D01*
X12498676Y-16646276D01*
X12679628Y-16646276D02*
X12660581Y-16636752D01*
X12651057Y-16617705D01*
X12651057Y-16446276D01*
X12832009Y-16636752D02*
X12812962Y-16646276D01*
X12774867Y-16646276D01*
X12755819Y-16636752D01*
X12746295Y-16617705D01*
X12746295Y-16541514D01*
X12755819Y-16522467D01*
X12774867Y-16512943D01*
X12812962Y-16512943D01*
X12832009Y-16522467D01*
X12841533Y-16541514D01*
X12841533Y-16560562D01*
X12746295Y-16579609D01*
X12917724Y-16636752D02*
X12936771Y-16646276D01*
X12974867Y-16646276D01*
X12993914Y-16636752D01*
X13003438Y-16617705D01*
X13003438Y-16608181D01*
X12993914Y-16589133D01*
X12974867Y-16579609D01*
X12946295Y-16579609D01*
X12927248Y-16570086D01*
X12917724Y-16551038D01*
X12917724Y-16541514D01*
X12927248Y-16522467D01*
X12946295Y-16512943D01*
X12974867Y-16512943D01*
X12993914Y-16522467D01*
X13070105Y-16722467D02*
X13079628Y-16712943D01*
X13098676Y-16684371D01*
X13108200Y-16665324D01*
X13117724Y-16636752D01*
X13127248Y-16589133D01*
X13127248Y-16551038D01*
X13117724Y-16503419D01*
X13108200Y-16474848D01*
X13098676Y-16455800D01*
X13079628Y-16427228D01*
X13070105Y-16417705D01*
X13432009Y-16722467D02*
X13422486Y-16712943D01*
X13403438Y-16684371D01*
X13393914Y-16665324D01*
X13384390Y-16636752D01*
X13374867Y-16589133D01*
X13374867Y-16551038D01*
X13384390Y-16503419D01*
X13393914Y-16474848D01*
X13403438Y-16455800D01*
X13422486Y-16427228D01*
X13432009Y-16417705D01*
X13508200Y-16512943D02*
X13508200Y-16646276D01*
X13508200Y-16531990D02*
X13517724Y-16522467D01*
X13536771Y-16512943D01*
X13565343Y-16512943D01*
X13584390Y-16522467D01*
X13593914Y-16541514D01*
X13593914Y-16646276D01*
X13717724Y-16646276D02*
X13698676Y-16636752D01*
X13689152Y-16627228D01*
X13679628Y-16608181D01*
X13679628Y-16551038D01*
X13689152Y-16531990D01*
X13698676Y-16522467D01*
X13717724Y-16512943D01*
X13746295Y-16512943D01*
X13765343Y-16522467D01*
X13774867Y-16531990D01*
X13784390Y-16551038D01*
X13784390Y-16608181D01*
X13774867Y-16627228D01*
X13765343Y-16636752D01*
X13746295Y-16646276D01*
X13717724Y-16646276D01*
X13841533Y-16512943D02*
X13917724Y-16512943D01*
X13870105Y-16446276D02*
X13870105Y-16617705D01*
X13879628Y-16636752D01*
X13898676Y-16646276D01*
X13917724Y-16646276D01*
X14136771Y-16512943D02*
X14136771Y-16712943D01*
X14136771Y-16522467D02*
X14155819Y-16512943D01*
X14193914Y-16512943D01*
X14212962Y-16522467D01*
X14222486Y-16531990D01*
X14232009Y-16551038D01*
X14232009Y-16608181D01*
X14222486Y-16627228D01*
X14212962Y-16636752D01*
X14193914Y-16646276D01*
X14155819Y-16646276D01*
X14136771Y-16636752D01*
X14346295Y-16646276D02*
X14327248Y-16636752D01*
X14317724Y-16617705D01*
X14317724Y-16446276D01*
X14508200Y-16646276D02*
X14508200Y-16541514D01*
X14498676Y-16522467D01*
X14479628Y-16512943D01*
X14441533Y-16512943D01*
X14422486Y-16522467D01*
X14508200Y-16636752D02*
X14489152Y-16646276D01*
X14441533Y-16646276D01*
X14422486Y-16636752D01*
X14412962Y-16617705D01*
X14412962Y-16598657D01*
X14422486Y-16579609D01*
X14441533Y-16570086D01*
X14489152Y-16570086D01*
X14508200Y-16560562D01*
X14574867Y-16512943D02*
X14651057Y-16512943D01*
X14603438Y-16446276D02*
X14603438Y-16617705D01*
X14612962Y-16636752D01*
X14632009Y-16646276D01*
X14651057Y-16646276D01*
X14793914Y-16636752D02*
X14774867Y-16646276D01*
X14736771Y-16646276D01*
X14717724Y-16636752D01*
X14708200Y-16617705D01*
X14708200Y-16541514D01*
X14717724Y-16522467D01*
X14736771Y-16512943D01*
X14774867Y-16512943D01*
X14793914Y-16522467D01*
X14803438Y-16541514D01*
X14803438Y-16560562D01*
X14708200Y-16579609D01*
X14974867Y-16646276D02*
X14974867Y-16446276D01*
X14974867Y-16636752D02*
X14955819Y-16646276D01*
X14917724Y-16646276D01*
X14898676Y-16636752D01*
X14889152Y-16627228D01*
X14879628Y-16608181D01*
X14879628Y-16551038D01*
X14889152Y-16531990D01*
X14898676Y-16522467D01*
X14917724Y-16512943D01*
X14955819Y-16512943D01*
X14974867Y-16522467D01*
X15051057Y-16722467D02*
X15060581Y-16712943D01*
X15079628Y-16684371D01*
X15089152Y-16665324D01*
X15098676Y-16636752D01*
X15108200Y-16589133D01*
X15108200Y-16551038D01*
X15098676Y-16503419D01*
X15089152Y-16474848D01*
X15079628Y-16455800D01*
X15060581Y-16427228D01*
X15051057Y-16417705D01*
M02*
