G04 #@! TF.GenerationSoftware,KiCad,Pcbnew,(6.0.1-0)*
G04 #@! TF.CreationDate,2022-02-11T21:02:13+01:00*
G04 #@! TF.ProjectId,ithowifi_4l,6974686f-7769-4666-995f-346c2e6b6963,rev?*
G04 #@! TF.SameCoordinates,Original*
G04 #@! TF.FileFunction,Legend,Bot*
G04 #@! TF.FilePolarity,Positive*
%FSLAX46Y46*%
G04 Gerber Fmt 4.6, Leading zero omitted, Abs format (unit mm)*
G04 Created by KiCad (PCBNEW (6.0.1-0)) date 2022-02-11 21:02:13*
%MOMM*%
%LPD*%
G01*
G04 APERTURE LIST*
%ADD10C,0.100000*%
%ADD11C,0.200000*%
%ADD12C,0.150000*%
%ADD13C,0.120000*%
G04 APERTURE END LIST*
D10*
X114808000Y-129997200D02*
X97561400Y-129997200D01*
X97561400Y-129997200D02*
X97536000Y-113030000D01*
X97536000Y-113030000D02*
X114808000Y-113030000D01*
X114808000Y-113030000D02*
X114808000Y-129997200D01*
G36*
X114808000Y-129997200D02*
G01*
X97561400Y-129997200D01*
X97536000Y-113030000D01*
X114808000Y-113030000D01*
X114808000Y-129997200D01*
G37*
X114808000Y-129997200D02*
X97561400Y-129997200D01*
X97536000Y-113030000D01*
X114808000Y-113030000D01*
X114808000Y-129997200D01*
D11*
X83859000Y-135764666D02*
X83859000Y-137164666D01*
X84309000Y-135764666D02*
X84309000Y-136498000D01*
X84259000Y-136631333D01*
X84159000Y-136698000D01*
X84009000Y-136698000D01*
X83909000Y-136631333D01*
X83859000Y-136564666D01*
X84659000Y-136698000D02*
X85059000Y-136698000D01*
X84809000Y-137164666D02*
X84809000Y-135964666D01*
X84859000Y-135831333D01*
X84959000Y-135764666D01*
X85059000Y-135764666D01*
X85259000Y-136698000D02*
X85659000Y-136698000D01*
X85409000Y-137164666D02*
X85409000Y-135964666D01*
X85459000Y-135831333D01*
X85559000Y-135764666D01*
X85659000Y-135764666D01*
X86009000Y-136698000D02*
X86009000Y-135298000D01*
X86009000Y-136631333D02*
X86109000Y-136698000D01*
X86309000Y-136698000D01*
X86409000Y-136631333D01*
X86459000Y-136564666D01*
X86509000Y-136431333D01*
X86509000Y-136031333D01*
X86459000Y-135898000D01*
X86409000Y-135831333D01*
X86309000Y-135764666D01*
X86109000Y-135764666D01*
X86009000Y-135831333D01*
X86909000Y-135831333D02*
X87009000Y-135764666D01*
X87209000Y-135764666D01*
X87309000Y-135831333D01*
X87359000Y-135964666D01*
X87359000Y-136031333D01*
X87309000Y-136164666D01*
X87209000Y-136231333D01*
X87059000Y-136231333D01*
X86959000Y-136298000D01*
X86909000Y-136431333D01*
X86909000Y-136498000D01*
X86959000Y-136631333D01*
X87059000Y-136698000D01*
X87209000Y-136698000D01*
X87309000Y-136631333D01*
X87809000Y-135898000D02*
X87859000Y-135831333D01*
X87809000Y-135764666D01*
X87759000Y-135831333D01*
X87809000Y-135898000D01*
X87809000Y-135764666D01*
X87809000Y-136631333D02*
X87859000Y-136564666D01*
X87809000Y-136498000D01*
X87759000Y-136564666D01*
X87809000Y-136631333D01*
X87809000Y-136498000D01*
X89059000Y-137231333D02*
X88159000Y-135431333D01*
X90159000Y-137231333D02*
X89259000Y-135431333D01*
X90959000Y-136698000D02*
X90959000Y-135564666D01*
X90909000Y-135431333D01*
X90859000Y-135364666D01*
X90759000Y-135298000D01*
X90609000Y-135298000D01*
X90509000Y-135364666D01*
X90959000Y-135831333D02*
X90859000Y-135764666D01*
X90659000Y-135764666D01*
X90559000Y-135831333D01*
X90509000Y-135898000D01*
X90459000Y-136031333D01*
X90459000Y-136431333D01*
X90509000Y-136564666D01*
X90559000Y-136631333D01*
X90659000Y-136698000D01*
X90859000Y-136698000D01*
X90959000Y-136631333D01*
X91459000Y-135764666D02*
X91459000Y-136698000D01*
X91459000Y-137164666D02*
X91409000Y-137098000D01*
X91459000Y-137031333D01*
X91509000Y-137098000D01*
X91459000Y-137164666D01*
X91459000Y-137031333D01*
X91809000Y-136698000D02*
X92209000Y-136698000D01*
X91959000Y-137164666D02*
X91959000Y-135964666D01*
X92009000Y-135831333D01*
X92109000Y-135764666D01*
X92209000Y-135764666D01*
X92559000Y-135764666D02*
X92559000Y-137164666D01*
X93009000Y-135764666D02*
X93009000Y-136498000D01*
X92959000Y-136631333D01*
X92859000Y-136698000D01*
X92709000Y-136698000D01*
X92609000Y-136631333D01*
X92559000Y-136564666D01*
X93959000Y-136698000D02*
X93959000Y-135764666D01*
X93509000Y-136698000D02*
X93509000Y-135964666D01*
X93559000Y-135831333D01*
X93659000Y-135764666D01*
X93809000Y-135764666D01*
X93909000Y-135831333D01*
X93959000Y-135898000D01*
X94459000Y-135764666D02*
X94459000Y-137164666D01*
X94459000Y-136631333D02*
X94559000Y-136698000D01*
X94759000Y-136698000D01*
X94859000Y-136631333D01*
X94909000Y-136564666D01*
X94959000Y-136431333D01*
X94959000Y-136031333D01*
X94909000Y-135898000D01*
X94859000Y-135831333D01*
X94759000Y-135764666D01*
X94559000Y-135764666D01*
X94459000Y-135831333D01*
X95409000Y-135898000D02*
X95459000Y-135831333D01*
X95409000Y-135764666D01*
X95359000Y-135831333D01*
X95409000Y-135898000D01*
X95409000Y-135764666D01*
X96359000Y-135831333D02*
X96259000Y-135764666D01*
X96059000Y-135764666D01*
X95959000Y-135831333D01*
X95909000Y-135898000D01*
X95859000Y-136031333D01*
X95859000Y-136431333D01*
X95909000Y-136564666D01*
X95959000Y-136631333D01*
X96059000Y-136698000D01*
X96259000Y-136698000D01*
X96359000Y-136631333D01*
X96959000Y-135764666D02*
X96859000Y-135831333D01*
X96809000Y-135898000D01*
X96759000Y-136031333D01*
X96759000Y-136431333D01*
X96809000Y-136564666D01*
X96859000Y-136631333D01*
X96959000Y-136698000D01*
X97109000Y-136698000D01*
X97209000Y-136631333D01*
X97259000Y-136564666D01*
X97309000Y-136431333D01*
X97309000Y-136031333D01*
X97259000Y-135898000D01*
X97209000Y-135831333D01*
X97109000Y-135764666D01*
X96959000Y-135764666D01*
X97759000Y-135764666D02*
X97759000Y-136698000D01*
X97759000Y-136564666D02*
X97809000Y-136631333D01*
X97909000Y-136698000D01*
X98059000Y-136698000D01*
X98159000Y-136631333D01*
X98209000Y-136498000D01*
X98209000Y-135764666D01*
X98209000Y-136498000D02*
X98259000Y-136631333D01*
X98359000Y-136698000D01*
X98509000Y-136698000D01*
X98609000Y-136631333D01*
X98659000Y-136498000D01*
X98659000Y-135764666D01*
X99909000Y-137231333D02*
X99009000Y-135431333D01*
X100709000Y-135764666D02*
X100709000Y-136498000D01*
X100659000Y-136631333D01*
X100559000Y-136698000D01*
X100359000Y-136698000D01*
X100259000Y-136631333D01*
X100709000Y-135831333D02*
X100609000Y-135764666D01*
X100359000Y-135764666D01*
X100259000Y-135831333D01*
X100209000Y-135964666D01*
X100209000Y-136098000D01*
X100259000Y-136231333D01*
X100359000Y-136298000D01*
X100609000Y-136298000D01*
X100709000Y-136364666D01*
X101209000Y-135764666D02*
X101209000Y-136698000D01*
X101209000Y-136431333D02*
X101259000Y-136564666D01*
X101309000Y-136631333D01*
X101409000Y-136698000D01*
X101509000Y-136698000D01*
X101859000Y-136698000D02*
X101859000Y-135498000D01*
X101809000Y-135364666D01*
X101709000Y-135298000D01*
X101659000Y-135298000D01*
X101859000Y-137164666D02*
X101809000Y-137098000D01*
X101859000Y-137031333D01*
X101909000Y-137098000D01*
X101859000Y-137164666D01*
X101859000Y-137031333D01*
X102759000Y-135831333D02*
X102659000Y-135764666D01*
X102459000Y-135764666D01*
X102359000Y-135831333D01*
X102309000Y-135964666D01*
X102309000Y-136498000D01*
X102359000Y-136631333D01*
X102459000Y-136698000D01*
X102659000Y-136698000D01*
X102759000Y-136631333D01*
X102809000Y-136498000D01*
X102809000Y-136364666D01*
X102309000Y-136231333D01*
X103259000Y-136698000D02*
X103259000Y-135764666D01*
X103259000Y-136564666D02*
X103309000Y-136631333D01*
X103409000Y-136698000D01*
X103559000Y-136698000D01*
X103659000Y-136631333D01*
X103709000Y-136498000D01*
X103709000Y-135764666D01*
X104209000Y-135764666D02*
X104209000Y-137164666D01*
X104659000Y-135764666D02*
X104659000Y-136498000D01*
X104609000Y-136631333D01*
X104509000Y-136698000D01*
X104359000Y-136698000D01*
X104259000Y-136631333D01*
X104209000Y-136564666D01*
X105159000Y-135764666D02*
X105159000Y-136698000D01*
X105159000Y-137164666D02*
X105109000Y-137098000D01*
X105159000Y-137031333D01*
X105209000Y-137098000D01*
X105159000Y-137164666D01*
X105159000Y-137031333D01*
X106059000Y-135831333D02*
X105959000Y-135764666D01*
X105759000Y-135764666D01*
X105659000Y-135831333D01*
X105609000Y-135964666D01*
X105609000Y-136498000D01*
X105659000Y-136631333D01*
X105759000Y-136698000D01*
X105959000Y-136698000D01*
X106059000Y-136631333D01*
X106109000Y-136498000D01*
X106109000Y-136364666D01*
X105609000Y-136231333D01*
X106559000Y-135764666D02*
X106559000Y-136698000D01*
X106559000Y-136564666D02*
X106609000Y-136631333D01*
X106709000Y-136698000D01*
X106859000Y-136698000D01*
X106959000Y-136631333D01*
X107009000Y-136498000D01*
X107009000Y-135764666D01*
X107009000Y-136498000D02*
X107059000Y-136631333D01*
X107159000Y-136698000D01*
X107309000Y-136698000D01*
X107409000Y-136631333D01*
X107459000Y-136498000D01*
X107459000Y-135764666D01*
X107909000Y-135831333D02*
X108009000Y-135764666D01*
X108209000Y-135764666D01*
X108309000Y-135831333D01*
X108359000Y-135964666D01*
X108359000Y-136031333D01*
X108309000Y-136164666D01*
X108209000Y-136231333D01*
X108059000Y-136231333D01*
X107959000Y-136298000D01*
X107909000Y-136431333D01*
X107909000Y-136498000D01*
X107959000Y-136631333D01*
X108059000Y-136698000D01*
X108209000Y-136698000D01*
X108309000Y-136631333D01*
X108659000Y-136698000D02*
X109059000Y-136698000D01*
X108809000Y-137164666D02*
X108809000Y-135964666D01*
X108859000Y-135831333D01*
X108959000Y-135764666D01*
X109059000Y-135764666D01*
X109409000Y-135764666D02*
X109409000Y-136698000D01*
X109409000Y-136431333D02*
X109459000Y-136564666D01*
X109509000Y-136631333D01*
X109609000Y-136698000D01*
X109709000Y-136698000D01*
X110509000Y-135764666D02*
X110509000Y-136498000D01*
X110459000Y-136631333D01*
X110359000Y-136698000D01*
X110159000Y-136698000D01*
X110059000Y-136631333D01*
X110509000Y-135831333D02*
X110409000Y-135764666D01*
X110159000Y-135764666D01*
X110059000Y-135831333D01*
X110009000Y-135964666D01*
X110009000Y-136098000D01*
X110059000Y-136231333D01*
X110159000Y-136298000D01*
X110409000Y-136298000D01*
X110509000Y-136364666D01*
X111759000Y-137231333D02*
X110859000Y-135431333D01*
X112109000Y-135764666D02*
X112109000Y-136698000D01*
X112109000Y-137164666D02*
X112059000Y-137098000D01*
X112109000Y-137031333D01*
X112159000Y-137098000D01*
X112109000Y-137164666D01*
X112109000Y-137031333D01*
X112459000Y-136698000D02*
X112859000Y-136698000D01*
X112609000Y-137164666D02*
X112609000Y-135964666D01*
X112659000Y-135831333D01*
X112759000Y-135764666D01*
X112859000Y-135764666D01*
X113209000Y-135764666D02*
X113209000Y-137164666D01*
X113659000Y-135764666D02*
X113659000Y-136498000D01*
X113609000Y-136631333D01*
X113509000Y-136698000D01*
X113359000Y-136698000D01*
X113259000Y-136631333D01*
X113209000Y-136564666D01*
X114309000Y-135764666D02*
X114209000Y-135831333D01*
X114159000Y-135898000D01*
X114109000Y-136031333D01*
X114109000Y-136431333D01*
X114159000Y-136564666D01*
X114209000Y-136631333D01*
X114309000Y-136698000D01*
X114459000Y-136698000D01*
X114559000Y-136631333D01*
X114609000Y-136564666D01*
X114659000Y-136431333D01*
X114659000Y-136031333D01*
X114609000Y-135898000D01*
X114559000Y-135831333D01*
X114459000Y-135764666D01*
X114309000Y-135764666D01*
X115009000Y-136698000D02*
X115209000Y-135764666D01*
X115409000Y-136431333D01*
X115609000Y-135764666D01*
X115809000Y-136698000D01*
X116209000Y-135764666D02*
X116209000Y-136698000D01*
X116209000Y-137164666D02*
X116159000Y-137098000D01*
X116209000Y-137031333D01*
X116259000Y-137098000D01*
X116209000Y-137164666D01*
X116209000Y-137031333D01*
X116559000Y-136698000D02*
X116959000Y-136698000D01*
X116709000Y-135764666D02*
X116709000Y-136964666D01*
X116759000Y-137098000D01*
X116859000Y-137164666D01*
X116959000Y-137164666D01*
X117309000Y-135764666D02*
X117309000Y-136698000D01*
X117309000Y-137164666D02*
X117259000Y-137098000D01*
X117309000Y-137031333D01*
X117359000Y-137098000D01*
X117309000Y-137164666D01*
X117309000Y-137031333D01*
X90681257Y-147493328D02*
X90681257Y-148993328D01*
X91181257Y-148493328D02*
X91752685Y-148493328D01*
X91395542Y-148993328D02*
X91395542Y-147707614D01*
X91466971Y-147564757D01*
X91609828Y-147493328D01*
X91752685Y-147493328D01*
X92252685Y-147493328D02*
X92252685Y-148993328D01*
X92895542Y-147493328D02*
X92895542Y-148279042D01*
X92824114Y-148421900D01*
X92681257Y-148493328D01*
X92466971Y-148493328D01*
X92324114Y-148421900D01*
X92252685Y-148350471D01*
X93824114Y-147493328D02*
X93681257Y-147564757D01*
X93609828Y-147636185D01*
X93538400Y-147779042D01*
X93538400Y-148207614D01*
X93609828Y-148350471D01*
X93681257Y-148421900D01*
X93824114Y-148493328D01*
X94038400Y-148493328D01*
X94181257Y-148421900D01*
X94252685Y-148350471D01*
X94324114Y-148207614D01*
X94324114Y-147779042D01*
X94252685Y-147636185D01*
X94181257Y-147564757D01*
X94038400Y-147493328D01*
X93824114Y-147493328D01*
X96966971Y-147636185D02*
X96895542Y-147564757D01*
X96681257Y-147493328D01*
X96538400Y-147493328D01*
X96324114Y-147564757D01*
X96181257Y-147707614D01*
X96109828Y-147850471D01*
X96038400Y-148136185D01*
X96038400Y-148350471D01*
X96109828Y-148636185D01*
X96181257Y-148779042D01*
X96324114Y-148921900D01*
X96538400Y-148993328D01*
X96681257Y-148993328D01*
X96895542Y-148921900D01*
X96966971Y-148850471D01*
X97395542Y-148993328D02*
X97895542Y-147493328D01*
X98395542Y-148993328D01*
X98895542Y-148279042D02*
X99395542Y-148279042D01*
X99609828Y-147493328D02*
X98895542Y-147493328D01*
X98895542Y-148993328D01*
X99609828Y-148993328D01*
X101252685Y-148993328D02*
X101609828Y-147493328D01*
X101895542Y-148564757D01*
X102181257Y-147493328D01*
X102538400Y-148993328D01*
X103109828Y-147493328D02*
X103109828Y-148493328D01*
X103109828Y-148993328D02*
X103038400Y-148921900D01*
X103109828Y-148850471D01*
X103181257Y-148921900D01*
X103109828Y-148993328D01*
X103109828Y-148850471D01*
X104324114Y-148279042D02*
X103824114Y-148279042D01*
X103824114Y-147493328D02*
X103824114Y-148993328D01*
X104538400Y-148993328D01*
X105109828Y-147493328D02*
X105109828Y-148493328D01*
X105109828Y-148993328D02*
X105038400Y-148921900D01*
X105109828Y-148850471D01*
X105181257Y-148921900D01*
X105109828Y-148993328D01*
X105109828Y-148850471D01*
X107824114Y-147636185D02*
X107752685Y-147564757D01*
X107538400Y-147493328D01*
X107395542Y-147493328D01*
X107181257Y-147564757D01*
X107038400Y-147707614D01*
X106966971Y-147850471D01*
X106895542Y-148136185D01*
X106895542Y-148350471D01*
X106966971Y-148636185D01*
X107038400Y-148779042D01*
X107181257Y-148921900D01*
X107395542Y-148993328D01*
X107538400Y-148993328D01*
X107752685Y-148921900D01*
X107824114Y-148850471D01*
X108681257Y-147493328D02*
X108538400Y-147564757D01*
X108466971Y-147636185D01*
X108395542Y-147779042D01*
X108395542Y-148207614D01*
X108466971Y-148350471D01*
X108538400Y-148421900D01*
X108681257Y-148493328D01*
X108895542Y-148493328D01*
X109038400Y-148421900D01*
X109109828Y-148350471D01*
X109181257Y-148207614D01*
X109181257Y-147779042D01*
X109109828Y-147636185D01*
X109038400Y-147564757D01*
X108895542Y-147493328D01*
X108681257Y-147493328D01*
X109824114Y-148493328D02*
X109824114Y-147493328D01*
X109824114Y-148350471D02*
X109895542Y-148421900D01*
X110038400Y-148493328D01*
X110252685Y-148493328D01*
X110395542Y-148421900D01*
X110466971Y-148279042D01*
X110466971Y-147493328D01*
X110966971Y-148493328D02*
X111538400Y-148493328D01*
X111181257Y-148993328D02*
X111181257Y-147707614D01*
X111252685Y-147564757D01*
X111395542Y-147493328D01*
X111538400Y-147493328D01*
X112038400Y-147493328D02*
X112038400Y-148493328D01*
X112038400Y-148207614D02*
X112109828Y-148350471D01*
X112181257Y-148421900D01*
X112324114Y-148493328D01*
X112466971Y-148493328D01*
X113181257Y-147493328D02*
X113038400Y-147564757D01*
X112966971Y-147636185D01*
X112895542Y-147779042D01*
X112895542Y-148207614D01*
X112966971Y-148350471D01*
X113038400Y-148421900D01*
X113181257Y-148493328D01*
X113395542Y-148493328D01*
X113538400Y-148421900D01*
X113609828Y-148350471D01*
X113681257Y-148207614D01*
X113681257Y-147779042D01*
X113609828Y-147636185D01*
X113538400Y-147564757D01*
X113395542Y-147493328D01*
X113181257Y-147493328D01*
X114538400Y-147493328D02*
X114395542Y-147564757D01*
X114324114Y-147707614D01*
X114324114Y-148993328D01*
X115324114Y-147493328D02*
X115181257Y-147564757D01*
X115109828Y-147707614D01*
X115109828Y-148993328D01*
X116466971Y-147564757D02*
X116324114Y-147493328D01*
X116038400Y-147493328D01*
X115895542Y-147564757D01*
X115824114Y-147707614D01*
X115824114Y-148279042D01*
X115895542Y-148421900D01*
X116038400Y-148493328D01*
X116324114Y-148493328D01*
X116466971Y-148421900D01*
X116538400Y-148279042D01*
X116538400Y-148136185D01*
X115824114Y-147993328D01*
X117181257Y-147493328D02*
X117181257Y-148493328D01*
X117181257Y-148207614D02*
X117252685Y-148350471D01*
X117324114Y-148421900D01*
X117466971Y-148493328D01*
X117609828Y-148493328D01*
X86574114Y-145506900D02*
X87288400Y-145506900D01*
X86431257Y-145078328D02*
X86931257Y-146578328D01*
X87431257Y-145078328D01*
X87931257Y-145078328D02*
X87931257Y-146078328D01*
X87931257Y-145792614D02*
X88002685Y-145935471D01*
X88074114Y-146006900D01*
X88216971Y-146078328D01*
X88359828Y-146078328D01*
X88859828Y-146078328D02*
X88859828Y-144792614D01*
X88788400Y-144649757D01*
X88645542Y-144578328D01*
X88574114Y-144578328D01*
X88859828Y-146578328D02*
X88788400Y-146506900D01*
X88859828Y-146435471D01*
X88931257Y-146506900D01*
X88859828Y-146578328D01*
X88859828Y-146435471D01*
X90145542Y-145149757D02*
X90002685Y-145078328D01*
X89716971Y-145078328D01*
X89574114Y-145149757D01*
X89502685Y-145292614D01*
X89502685Y-145864042D01*
X89574114Y-146006900D01*
X89716971Y-146078328D01*
X90002685Y-146078328D01*
X90145542Y-146006900D01*
X90216971Y-145864042D01*
X90216971Y-145721185D01*
X89502685Y-145578328D01*
X90859828Y-146078328D02*
X90859828Y-145078328D01*
X90859828Y-145935471D02*
X90931257Y-146006900D01*
X91074114Y-146078328D01*
X91288400Y-146078328D01*
X91431257Y-146006900D01*
X91502685Y-145864042D01*
X91502685Y-145078328D01*
X93359828Y-145078328D02*
X93359828Y-146578328D01*
X93359828Y-145864042D02*
X94216971Y-145864042D01*
X94216971Y-145078328D02*
X94216971Y-146578328D01*
X94931257Y-145078328D02*
X94931257Y-146078328D01*
X94931257Y-146578328D02*
X94859828Y-146506900D01*
X94931257Y-146435471D01*
X95002685Y-146506900D01*
X94931257Y-146578328D01*
X94931257Y-146435471D01*
X96216971Y-145149757D02*
X96074114Y-145078328D01*
X95788400Y-145078328D01*
X95645542Y-145149757D01*
X95574114Y-145292614D01*
X95574114Y-145864042D01*
X95645542Y-146006900D01*
X95788400Y-146078328D01*
X96074114Y-146078328D01*
X96216971Y-146006900D01*
X96288400Y-145864042D01*
X96288400Y-145721185D01*
X95574114Y-145578328D01*
X96931257Y-145078328D02*
X96931257Y-146078328D01*
X96931257Y-145935471D02*
X97002685Y-146006900D01*
X97145542Y-146078328D01*
X97359828Y-146078328D01*
X97502685Y-146006900D01*
X97574114Y-145864042D01*
X97574114Y-145078328D01*
X97574114Y-145864042D02*
X97645542Y-146006900D01*
X97788400Y-146078328D01*
X98002685Y-146078328D01*
X98145542Y-146006900D01*
X98216971Y-145864042D01*
X98216971Y-145078328D01*
X98859828Y-145149757D02*
X99002685Y-145078328D01*
X99288400Y-145078328D01*
X99431257Y-145149757D01*
X99502685Y-145292614D01*
X99502685Y-145364042D01*
X99431257Y-145506900D01*
X99288400Y-145578328D01*
X99074114Y-145578328D01*
X98931257Y-145649757D01*
X98859828Y-145792614D01*
X98859828Y-145864042D01*
X98931257Y-146006900D01*
X99074114Y-146078328D01*
X99288400Y-146078328D01*
X99431257Y-146006900D01*
X99931257Y-146078328D02*
X100502685Y-146078328D01*
X100145542Y-146578328D02*
X100145542Y-145292614D01*
X100216971Y-145149757D01*
X100359828Y-145078328D01*
X100502685Y-145078328D01*
X101002685Y-145078328D02*
X101002685Y-146078328D01*
X101002685Y-145792614D02*
X101074114Y-145935471D01*
X101145542Y-146006900D01*
X101288400Y-146078328D01*
X101431257Y-146078328D01*
X102574114Y-145078328D02*
X102574114Y-145864042D01*
X102502685Y-146006900D01*
X102359828Y-146078328D01*
X102074114Y-146078328D01*
X101931257Y-146006900D01*
X102574114Y-145149757D02*
X102431257Y-145078328D01*
X102074114Y-145078328D01*
X101931257Y-145149757D01*
X101859828Y-145292614D01*
X101859828Y-145435471D01*
X101931257Y-145578328D01*
X102074114Y-145649757D01*
X102431257Y-145649757D01*
X102574114Y-145721185D01*
X104431257Y-145649757D02*
X105574114Y-145649757D01*
X108216971Y-146506900D02*
X108074114Y-146578328D01*
X107859828Y-146578328D01*
X107645542Y-146506900D01*
X107502685Y-146364042D01*
X107431257Y-146221185D01*
X107359828Y-145935471D01*
X107359828Y-145721185D01*
X107431257Y-145435471D01*
X107502685Y-145292614D01*
X107645542Y-145149757D01*
X107859828Y-145078328D01*
X108002685Y-145078328D01*
X108216971Y-145149757D01*
X108288400Y-145221185D01*
X108288400Y-145721185D01*
X108002685Y-145721185D01*
X108931257Y-145078328D02*
X108931257Y-146578328D01*
X109788400Y-145078328D01*
X109788400Y-146578328D01*
X110502685Y-146578328D02*
X110502685Y-145364042D01*
X110574114Y-145221185D01*
X110645542Y-145149757D01*
X110788400Y-145078328D01*
X111074114Y-145078328D01*
X111216971Y-145149757D01*
X111288400Y-145221185D01*
X111359828Y-145364042D01*
X111359828Y-146578328D01*
X114002685Y-146506900D02*
X113859828Y-146578328D01*
X113645542Y-146578328D01*
X113431257Y-146506900D01*
X113288400Y-146364042D01*
X113216971Y-146221185D01*
X113145542Y-145935471D01*
X113145542Y-145721185D01*
X113216971Y-145435471D01*
X113288400Y-145292614D01*
X113431257Y-145149757D01*
X113645542Y-145078328D01*
X113788400Y-145078328D01*
X114002685Y-145149757D01*
X114074114Y-145221185D01*
X114074114Y-145721185D01*
X113788400Y-145721185D01*
X114716971Y-145078328D02*
X114716971Y-146578328D01*
X115288400Y-146578328D01*
X115431257Y-146506900D01*
X115502685Y-146435471D01*
X115574114Y-146292614D01*
X115574114Y-146078328D01*
X115502685Y-145935471D01*
X115431257Y-145864042D01*
X115288400Y-145792614D01*
X114716971Y-145792614D01*
X116931257Y-145078328D02*
X116216971Y-145078328D01*
X116216971Y-146578328D01*
X118431257Y-146578328D02*
X119359828Y-146578328D01*
X118859828Y-146006900D01*
X119074114Y-146006900D01*
X119216971Y-145935471D01*
X119288400Y-145864042D01*
X119359828Y-145721185D01*
X119359828Y-145364042D01*
X119288400Y-145221185D01*
X119216971Y-145149757D01*
X119074114Y-145078328D01*
X118645542Y-145078328D01*
X118502685Y-145149757D01*
X118431257Y-145221185D01*
X120002685Y-145221185D02*
X120074114Y-145149757D01*
X120002685Y-145078328D01*
X119931257Y-145149757D01*
X120002685Y-145221185D01*
X120002685Y-145078328D01*
X121002685Y-146578328D02*
X121145542Y-146578328D01*
X121288400Y-146506900D01*
X121359828Y-146435471D01*
X121431257Y-146292614D01*
X121502685Y-146006900D01*
X121502685Y-145649757D01*
X121431257Y-145364042D01*
X121359828Y-145221185D01*
X121288400Y-145149757D01*
X121145542Y-145078328D01*
X121002685Y-145078328D01*
X120859828Y-145149757D01*
X120788400Y-145221185D01*
X120716971Y-145364042D01*
X120645542Y-145649757D01*
X120645542Y-146006900D01*
X120716971Y-146292614D01*
X120788400Y-146435471D01*
X120859828Y-146506900D01*
X121002685Y-146578328D01*
X90190928Y-124153714D02*
X91690928Y-124153714D01*
X90976642Y-124153714D02*
X90976642Y-123296571D01*
X90190928Y-123296571D02*
X91690928Y-123296571D01*
X91690928Y-122725142D02*
X90190928Y-122368000D01*
X91262357Y-122082285D01*
X90190928Y-121796571D01*
X91690928Y-121439428D01*
X90190928Y-119725142D02*
X91190928Y-119725142D01*
X90905214Y-119725142D02*
X91048071Y-119653714D01*
X91119500Y-119582285D01*
X91190928Y-119439428D01*
X91190928Y-119296571D01*
X90262357Y-118225142D02*
X90190928Y-118368000D01*
X90190928Y-118653714D01*
X90262357Y-118796571D01*
X90405214Y-118868000D01*
X90976642Y-118868000D01*
X91119500Y-118796571D01*
X91190928Y-118653714D01*
X91190928Y-118368000D01*
X91119500Y-118225142D01*
X90976642Y-118153714D01*
X90833785Y-118153714D01*
X90690928Y-118868000D01*
X91190928Y-117653714D02*
X90190928Y-117296571D01*
X91190928Y-116939428D01*
X90333785Y-116368000D02*
X90262357Y-116296571D01*
X90190928Y-116368000D01*
X90262357Y-116439428D01*
X90333785Y-116368000D01*
X90190928Y-116368000D01*
X90333785Y-115653714D02*
X90262357Y-115582285D01*
X90190928Y-115653714D01*
X90262357Y-115725142D01*
X90333785Y-115653714D01*
X90190928Y-115653714D01*
X91119500Y-115653714D02*
X91048071Y-115582285D01*
X90976642Y-115653714D01*
X91048071Y-115725142D01*
X91119500Y-115653714D01*
X90976642Y-115653714D01*
X91548071Y-113868000D02*
X91619500Y-113796571D01*
X91690928Y-113653714D01*
X91690928Y-113296571D01*
X91619500Y-113153714D01*
X91548071Y-113082285D01*
X91405214Y-113010857D01*
X91262357Y-113010857D01*
X91048071Y-113082285D01*
X90190928Y-113939428D01*
X90190928Y-113010857D01*
X88561642Y-127082285D02*
X88490214Y-126868000D01*
X88418785Y-126796571D01*
X88275928Y-126725142D01*
X88061642Y-126725142D01*
X87918785Y-126796571D01*
X87847357Y-126868000D01*
X87775928Y-127010857D01*
X87775928Y-127582285D01*
X89275928Y-127582285D01*
X89275928Y-127082285D01*
X89204500Y-126939428D01*
X89133071Y-126868000D01*
X88990214Y-126796571D01*
X88847357Y-126796571D01*
X88704500Y-126868000D01*
X88633071Y-126939428D01*
X88561642Y-127082285D01*
X88561642Y-127582285D01*
X87775928Y-125439428D02*
X88561642Y-125439428D01*
X88704500Y-125510857D01*
X88775928Y-125653714D01*
X88775928Y-125939428D01*
X88704500Y-126082285D01*
X87847357Y-125439428D02*
X87775928Y-125582285D01*
X87775928Y-125939428D01*
X87847357Y-126082285D01*
X87990214Y-126153714D01*
X88133071Y-126153714D01*
X88275928Y-126082285D01*
X88347357Y-125939428D01*
X88347357Y-125582285D01*
X88418785Y-125439428D01*
X88775928Y-124939428D02*
X88775928Y-124368000D01*
X89275928Y-124725142D02*
X87990214Y-124725142D01*
X87847357Y-124653714D01*
X87775928Y-124510857D01*
X87775928Y-124368000D01*
X87847357Y-123225142D02*
X87775928Y-123368000D01*
X87775928Y-123653714D01*
X87847357Y-123796571D01*
X87918785Y-123868000D01*
X88061642Y-123939428D01*
X88490214Y-123939428D01*
X88633071Y-123868000D01*
X88704500Y-123796571D01*
X88775928Y-123653714D01*
X88775928Y-123368000D01*
X88704500Y-123225142D01*
X87775928Y-122582285D02*
X89275928Y-122582285D01*
X87775928Y-121939428D02*
X88561642Y-121939428D01*
X88704500Y-122010857D01*
X88775928Y-122153714D01*
X88775928Y-122368000D01*
X88704500Y-122510857D01*
X88633071Y-122582285D01*
X87918785Y-121225142D02*
X87847357Y-121153714D01*
X87775928Y-121225142D01*
X87847357Y-121296571D01*
X87918785Y-121225142D01*
X87775928Y-121225142D01*
X88704500Y-121225142D02*
X88633071Y-121153714D01*
X88561642Y-121225142D01*
X88633071Y-121296571D01*
X88704500Y-121225142D01*
X88561642Y-121225142D01*
X87775928Y-118582285D02*
X87775928Y-119439428D01*
X87775928Y-119010857D02*
X89275928Y-119010857D01*
X89061642Y-119153714D01*
X88918785Y-119296571D01*
X88847357Y-119439428D01*
X89275928Y-118082285D02*
X89275928Y-117153714D01*
X88704500Y-117653714D01*
X88704500Y-117439428D01*
X88633071Y-117296571D01*
X88561642Y-117225142D01*
X88418785Y-117153714D01*
X88061642Y-117153714D01*
X87918785Y-117225142D01*
X87847357Y-117296571D01*
X87775928Y-117439428D01*
X87775928Y-117868000D01*
X87847357Y-118010857D01*
X87918785Y-118082285D01*
X88347357Y-116510857D02*
X88347357Y-115368000D01*
X89275928Y-114368000D02*
X89275928Y-114225142D01*
X89204500Y-114082285D01*
X89133071Y-114010857D01*
X88990214Y-113939428D01*
X88704500Y-113868000D01*
X88347357Y-113868000D01*
X88061642Y-113939428D01*
X87918785Y-114010857D01*
X87847357Y-114082285D01*
X87775928Y-114225142D01*
X87775928Y-114368000D01*
X87847357Y-114510857D01*
X87918785Y-114582285D01*
X88061642Y-114653714D01*
X88347357Y-114725142D01*
X88704500Y-114725142D01*
X88990214Y-114653714D01*
X89133071Y-114582285D01*
X89204500Y-114510857D01*
X89275928Y-114368000D01*
X89275928Y-112582285D02*
X89275928Y-112868000D01*
X89204500Y-113010857D01*
X89133071Y-113082285D01*
X88918785Y-113225142D01*
X88633071Y-113296571D01*
X88061642Y-113296571D01*
X87918785Y-113225142D01*
X87847357Y-113153714D01*
X87775928Y-113010857D01*
X87775928Y-112725142D01*
X87847357Y-112582285D01*
X87918785Y-112510857D01*
X88061642Y-112439428D01*
X88418785Y-112439428D01*
X88561642Y-112510857D01*
X88633071Y-112582285D01*
X88704500Y-112725142D01*
X88704500Y-113010857D01*
X88633071Y-113153714D01*
X88561642Y-113225142D01*
X88418785Y-113296571D01*
X89133071Y-111868000D02*
X89204500Y-111796571D01*
X89275928Y-111653714D01*
X89275928Y-111296571D01*
X89204500Y-111153714D01*
X89133071Y-111082285D01*
X88990214Y-111010857D01*
X88847357Y-111010857D01*
X88633071Y-111082285D01*
X87775928Y-111939428D01*
X87775928Y-111010857D01*
X89133071Y-110439428D02*
X89204500Y-110368000D01*
X89275928Y-110225142D01*
X89275928Y-109868000D01*
X89204500Y-109725142D01*
X89133071Y-109653714D01*
X88990214Y-109582285D01*
X88847357Y-109582285D01*
X88633071Y-109653714D01*
X87775928Y-110510857D01*
X87775928Y-109582285D01*
D12*
X121110333Y-140017380D02*
X121110333Y-140731666D01*
X121157952Y-140874523D01*
X121253190Y-140969761D01*
X121396047Y-141017380D01*
X121491285Y-141017380D01*
X120681761Y-140112619D02*
X120634142Y-140065000D01*
X120538904Y-140017380D01*
X120300809Y-140017380D01*
X120205571Y-140065000D01*
X120157952Y-140112619D01*
X120110333Y-140207857D01*
X120110333Y-140303095D01*
X120157952Y-140445952D01*
X120729380Y-141017380D01*
X120110333Y-141017380D01*
X116435142Y-112404047D02*
X116482761Y-112356428D01*
X116530380Y-112213571D01*
X116530380Y-112118333D01*
X116482761Y-111975476D01*
X116387523Y-111880238D01*
X116292285Y-111832619D01*
X116101809Y-111785000D01*
X115958952Y-111785000D01*
X115768476Y-111832619D01*
X115673238Y-111880238D01*
X115578000Y-111975476D01*
X115530380Y-112118333D01*
X115530380Y-112213571D01*
X115578000Y-112356428D01*
X115625619Y-112404047D01*
X116435142Y-113404047D02*
X116482761Y-113356428D01*
X116530380Y-113213571D01*
X116530380Y-113118333D01*
X116482761Y-112975476D01*
X116387523Y-112880238D01*
X116292285Y-112832619D01*
X116101809Y-112785000D01*
X115958952Y-112785000D01*
X115768476Y-112832619D01*
X115673238Y-112880238D01*
X115578000Y-112975476D01*
X115530380Y-113118333D01*
X115530380Y-113213571D01*
X115578000Y-113356428D01*
X115625619Y-113404047D01*
X116530380Y-114356428D02*
X116530380Y-113785000D01*
X116530380Y-114070714D02*
X115530380Y-114070714D01*
X115673238Y-113975476D01*
X115768476Y-113880238D01*
X115816095Y-113785000D01*
X116530380Y-115308809D02*
X116530380Y-114737380D01*
X116530380Y-115023095D02*
X115530380Y-115023095D01*
X115673238Y-114927857D01*
X115768476Y-114832619D01*
X115816095Y-114737380D01*
X115530380Y-115927857D02*
X115530380Y-116023095D01*
X115578000Y-116118333D01*
X115625619Y-116165952D01*
X115720857Y-116213571D01*
X115911333Y-116261190D01*
X116149428Y-116261190D01*
X116339904Y-116213571D01*
X116435142Y-116165952D01*
X116482761Y-116118333D01*
X116530380Y-116023095D01*
X116530380Y-115927857D01*
X116482761Y-115832619D01*
X116435142Y-115785000D01*
X116339904Y-115737380D01*
X116149428Y-115689761D01*
X115911333Y-115689761D01*
X115720857Y-115737380D01*
X115625619Y-115785000D01*
X115578000Y-115832619D01*
X115530380Y-115927857D01*
X116530380Y-117213571D02*
X116530380Y-116642142D01*
X116530380Y-116927857D02*
X115530380Y-116927857D01*
X115673238Y-116832619D01*
X115768476Y-116737380D01*
X115816095Y-116642142D01*
X116149428Y-117642142D02*
X116149428Y-118404047D01*
X115958952Y-119023095D02*
X115911333Y-118927857D01*
X115863714Y-118880238D01*
X115768476Y-118832619D01*
X115720857Y-118832619D01*
X115625619Y-118880238D01*
X115578000Y-118927857D01*
X115530380Y-119023095D01*
X115530380Y-119213571D01*
X115578000Y-119308809D01*
X115625619Y-119356428D01*
X115720857Y-119404047D01*
X115768476Y-119404047D01*
X115863714Y-119356428D01*
X115911333Y-119308809D01*
X115958952Y-119213571D01*
X115958952Y-119023095D01*
X116006571Y-118927857D01*
X116054190Y-118880238D01*
X116149428Y-118832619D01*
X116339904Y-118832619D01*
X116435142Y-118880238D01*
X116482761Y-118927857D01*
X116530380Y-119023095D01*
X116530380Y-119213571D01*
X116482761Y-119308809D01*
X116435142Y-119356428D01*
X116339904Y-119404047D01*
X116149428Y-119404047D01*
X116054190Y-119356428D01*
X116006571Y-119308809D01*
X115958952Y-119213571D01*
X115530380Y-120261190D02*
X115530380Y-120070714D01*
X115578000Y-119975476D01*
X115625619Y-119927857D01*
X115768476Y-119832619D01*
X115958952Y-119785000D01*
X116339904Y-119785000D01*
X116435142Y-119832619D01*
X116482761Y-119880238D01*
X116530380Y-119975476D01*
X116530380Y-120165952D01*
X116482761Y-120261190D01*
X116435142Y-120308809D01*
X116339904Y-120356428D01*
X116101809Y-120356428D01*
X116006571Y-120308809D01*
X115958952Y-120261190D01*
X115911333Y-120165952D01*
X115911333Y-119975476D01*
X115958952Y-119880238D01*
X116006571Y-119832619D01*
X116101809Y-119785000D01*
X115958952Y-120927857D02*
X115911333Y-120832619D01*
X115863714Y-120785000D01*
X115768476Y-120737380D01*
X115720857Y-120737380D01*
X115625619Y-120785000D01*
X115578000Y-120832619D01*
X115530380Y-120927857D01*
X115530380Y-121118333D01*
X115578000Y-121213571D01*
X115625619Y-121261190D01*
X115720857Y-121308809D01*
X115768476Y-121308809D01*
X115863714Y-121261190D01*
X115911333Y-121213571D01*
X115958952Y-121118333D01*
X115958952Y-120927857D01*
X116006571Y-120832619D01*
X116054190Y-120785000D01*
X116149428Y-120737380D01*
X116339904Y-120737380D01*
X116435142Y-120785000D01*
X116482761Y-120832619D01*
X116530380Y-120927857D01*
X116530380Y-121118333D01*
X116482761Y-121213571D01*
X116435142Y-121261190D01*
X116339904Y-121308809D01*
X116149428Y-121308809D01*
X116054190Y-121261190D01*
X116006571Y-121213571D01*
X115958952Y-121118333D01*
X116530380Y-121737380D02*
X115530380Y-121737380D01*
X116244666Y-122070714D01*
X115530380Y-122404047D01*
X116530380Y-122404047D01*
X116530380Y-122880238D02*
X115530380Y-122880238D01*
X116006571Y-122880238D02*
X116006571Y-123451666D01*
X116530380Y-123451666D02*
X115530380Y-123451666D01*
X115863714Y-123832619D02*
X115863714Y-124356428D01*
X116530380Y-123832619D01*
X116530380Y-124356428D01*
X116149428Y-124737380D02*
X116149428Y-125499285D01*
X116530380Y-125975476D02*
X115530380Y-125975476D01*
X116244666Y-126308809D01*
X115530380Y-126642142D01*
X116530380Y-126642142D01*
X116530380Y-127261190D02*
X116482761Y-127165952D01*
X116435142Y-127118333D01*
X116339904Y-127070714D01*
X116054190Y-127070714D01*
X115958952Y-127118333D01*
X115911333Y-127165952D01*
X115863714Y-127261190D01*
X115863714Y-127404047D01*
X115911333Y-127499285D01*
X115958952Y-127546904D01*
X116054190Y-127594523D01*
X116339904Y-127594523D01*
X116435142Y-127546904D01*
X116482761Y-127499285D01*
X116530380Y-127404047D01*
X116530380Y-127261190D01*
X116530380Y-128451666D02*
X115530380Y-128451666D01*
X116482761Y-128451666D02*
X116530380Y-128356428D01*
X116530380Y-128165952D01*
X116482761Y-128070714D01*
X116435142Y-128023095D01*
X116339904Y-127975476D01*
X116054190Y-127975476D01*
X115958952Y-128023095D01*
X115911333Y-128070714D01*
X115863714Y-128165952D01*
X115863714Y-128356428D01*
X115911333Y-128451666D01*
X115863714Y-129356428D02*
X116530380Y-129356428D01*
X115863714Y-128927857D02*
X116387523Y-128927857D01*
X116482761Y-128975476D01*
X116530380Y-129070714D01*
X116530380Y-129213571D01*
X116482761Y-129308809D01*
X116435142Y-129356428D01*
X116530380Y-129975476D02*
X116482761Y-129880238D01*
X116387523Y-129832619D01*
X115530380Y-129832619D01*
X116482761Y-130737380D02*
X116530380Y-130642142D01*
X116530380Y-130451666D01*
X116482761Y-130356428D01*
X116387523Y-130308809D01*
X116006571Y-130308809D01*
X115911333Y-130356428D01*
X115863714Y-130451666D01*
X115863714Y-130642142D01*
X115911333Y-130737380D01*
X116006571Y-130785000D01*
X116101809Y-130785000D01*
X116197047Y-130308809D01*
D13*
X123377000Y-136525000D02*
X123377000Y-128845000D01*
X123377000Y-139125000D02*
X123377000Y-137795000D01*
X120777000Y-139125000D02*
X120777000Y-136525000D01*
X118177000Y-139125000D02*
X118177000Y-128845000D01*
X122047000Y-139125000D02*
X123377000Y-139125000D01*
X118177000Y-128845000D02*
X123377000Y-128845000D01*
X118177000Y-139125000D02*
X120777000Y-139125000D01*
X120777000Y-136525000D02*
X123377000Y-136525000D01*
X105181400Y-111058400D02*
X105431400Y-111558400D01*
X104931400Y-111558400D02*
X105181400Y-111058400D01*
X105431400Y-111558400D02*
X104931400Y-111558400D01*
D12*
X101547000Y-111889000D02*
X97522000Y-111889000D01*
X114822000Y-111889000D02*
X108797000Y-111889000D01*
X114822000Y-131189000D02*
X114822000Y-111889000D01*
X97522000Y-111889000D02*
X97522000Y-131189000D01*
X97522000Y-131189000D02*
X98272000Y-131189000D01*
X114072000Y-131189000D02*
X114822000Y-131189000D01*
M02*
