G04 #@! TF.GenerationSoftware,KiCad,Pcbnew,(6.0.1-0)*
G04 #@! TF.CreationDate,2022-02-11T21:02:12+01:00*
G04 #@! TF.ProjectId,ithowifi_4l,6974686f-7769-4666-995f-346c2e6b6963,rev?*
G04 #@! TF.SameCoordinates,Original*
G04 #@! TF.FileFunction,Paste,Top*
G04 #@! TF.FilePolarity,Positive*
%FSLAX46Y46*%
G04 Gerber Fmt 4.6, Leading zero omitted, Abs format (unit mm)*
G04 Created by KiCad (PCBNEW (6.0.1-0)) date 2022-02-11 21:02:12*
%MOMM*%
%LPD*%
G01*
G04 APERTURE LIST*
G04 Aperture macros list*
%AMRoundRect*
0 Rectangle with rounded corners*
0 $1 Rounding radius*
0 $2 $3 $4 $5 $6 $7 $8 $9 X,Y pos of 4 corners*
0 Add a 4 corners polygon primitive as box body*
4,1,4,$2,$3,$4,$5,$6,$7,$8,$9,$2,$3,0*
0 Add four circle primitives for the rounded corners*
1,1,$1+$1,$2,$3*
1,1,$1+$1,$4,$5*
1,1,$1+$1,$6,$7*
1,1,$1+$1,$8,$9*
0 Add four rect primitives between the rounded corners*
20,1,$1+$1,$2,$3,$4,$5,0*
20,1,$1+$1,$4,$5,$6,$7,0*
20,1,$1+$1,$6,$7,$8,$9,0*
20,1,$1+$1,$8,$9,$2,$3,0*%
G04 Aperture macros list end*
%ADD10R,0.800000X0.900000*%
%ADD11RoundRect,0.243750X-0.456250X0.243750X-0.456250X-0.243750X0.456250X-0.243750X0.456250X0.243750X0*%
%ADD12R,1.500000X0.900000*%
%ADD13R,0.900000X1.500000*%
%ADD14R,1.050000X1.050000*%
%ADD15RoundRect,0.243750X0.456250X-0.243750X0.456250X0.243750X-0.456250X0.243750X-0.456250X-0.243750X0*%
%ADD16R,0.750000X1.000000*%
%ADD17RoundRect,0.250000X0.250000X0.475000X-0.250000X0.475000X-0.250000X-0.475000X0.250000X-0.475000X0*%
%ADD18RoundRect,0.250000X0.550000X-1.412500X0.550000X1.412500X-0.550000X1.412500X-0.550000X-1.412500X0*%
%ADD19RoundRect,0.243750X-0.243750X-0.456250X0.243750X-0.456250X0.243750X0.456250X-0.243750X0.456250X0*%
%ADD20RoundRect,0.250000X0.475000X-0.250000X0.475000X0.250000X-0.475000X0.250000X-0.475000X-0.250000X0*%
%ADD21R,0.900000X1.200000*%
%ADD22RoundRect,0.249998X0.450002X-0.262502X0.450002X0.262502X-0.450002X0.262502X-0.450002X-0.262502X0*%
%ADD23R,1.500000X5.080000*%
G04 APERTURE END LIST*
D10*
X119608600Y-120539000D03*
X117708600Y-120539000D03*
X118658600Y-122539000D03*
D11*
X118872000Y-116686900D03*
X118872000Y-118561900D03*
D12*
X104727600Y-148613600D03*
X104727600Y-147343600D03*
X104727600Y-146073600D03*
X104727600Y-144803600D03*
X104727600Y-143533600D03*
X104727600Y-142263600D03*
X104727600Y-140993600D03*
X104727600Y-139723600D03*
X104727600Y-138453600D03*
X104727600Y-137183600D03*
X104727600Y-135913600D03*
X104727600Y-134643600D03*
X104727600Y-133373600D03*
X104727600Y-132103600D03*
D13*
X101697600Y-130853600D03*
X100427600Y-130853600D03*
X99157600Y-130853600D03*
X97887600Y-130853600D03*
X96617600Y-130853600D03*
X95347600Y-130853600D03*
X94077600Y-130853600D03*
X92807600Y-130853600D03*
X91537600Y-130853600D03*
X90267600Y-130853600D03*
D12*
X87227600Y-132103600D03*
X87227600Y-133373600D03*
X87227600Y-134643600D03*
X87227600Y-135913600D03*
X87227600Y-137183600D03*
X87227600Y-138453600D03*
X87227600Y-139723600D03*
X87227600Y-140993600D03*
X87227600Y-142263600D03*
X87227600Y-143533600D03*
X87227600Y-144803600D03*
X87227600Y-146073600D03*
X87227600Y-147343600D03*
X87227600Y-148613600D03*
D14*
X96657600Y-141273600D03*
X95132600Y-141273600D03*
X95132600Y-142798600D03*
X96657600Y-142798600D03*
X96657600Y-139748600D03*
X98182600Y-142798600D03*
X95132600Y-139748600D03*
X98182600Y-141273600D03*
X98182600Y-139748600D03*
D11*
X91313000Y-124563900D03*
X91313000Y-126438900D03*
X106536000Y-124572500D03*
X106536000Y-126447500D03*
X118618000Y-124523500D03*
X118618000Y-126398500D03*
D15*
X88900000Y-126438900D03*
X88900000Y-124563900D03*
D16*
X108665400Y-115872000D03*
X108665400Y-121872000D03*
X112415400Y-121872000D03*
X112415400Y-115872000D03*
D17*
X114432000Y-137768000D03*
X112532000Y-137768000D03*
D10*
X123606600Y-120539000D03*
X121706600Y-120539000D03*
X122656600Y-122539000D03*
D15*
X122859800Y-118561900D03*
X122859800Y-116686900D03*
D11*
X122682000Y-124523500D03*
X122682000Y-126398500D03*
D15*
X96139000Y-126438900D03*
X96139000Y-124563900D03*
X98552000Y-126453000D03*
X98552000Y-124578000D03*
D18*
X111632000Y-131768000D03*
X111632000Y-126693000D03*
D19*
X109499400Y-148751000D03*
X111374400Y-148751000D03*
D20*
X108377500Y-143351000D03*
X108377500Y-141451000D03*
D21*
X111425500Y-146084000D03*
X108125500Y-146084000D03*
D22*
X111171500Y-143290000D03*
X111171500Y-141465000D03*
D15*
X93726000Y-126438900D03*
X93726000Y-124563900D03*
X103378000Y-126453000D03*
X103378000Y-124578000D03*
X100965000Y-126453000D03*
X100965000Y-124578000D03*
D16*
X106015000Y-121872000D03*
X106015000Y-115872000D03*
X102265000Y-115872000D03*
X102265000Y-121872000D03*
D23*
X109431400Y-107848400D03*
X100931400Y-107848400D03*
M02*
