  0
SECTION
  2
HEADER
  9
$ANGBASE
  50
0.0
  9
$ANGDIR
  70
1
  9
$MEASUREMENT
  70
1
  0
ENDSEC
  0
SECTION
  2
TABLES
  0
TABLE
  2
LTYPE
  70
4
  0
LTYPE
  5
40F
  2
CONTINUOUS
  70
0
  3
Solid line
  72
65
  73
0
  40
0.0
  0
LTYPE
  5
410
  2
DASHDOT
 70
0
  3
Dash Dot ____ _ ____ _
 72
65
 73
4
 40
2.0
 49
1.25
 49
-0.25
 49
0.25
 49
-0.25
  0
LTYPE
  5
411
  2
DASHED
 70
0
  3
Dashed __ __ __ __ __
 72
65
 73
2
 40
0.75
 49
0.5
 49
-0.25
  0
LTYPE
  5
43B
  2
DOTTED
 70
0
  3
Dotted .  .  .  .
 72
65
 73
2
 40
0.2
 49
0.0
 49
-0.2
  0
ENDTAB
  0
TABLE
  2
STYLE
  70
4
  0
STYLE
  2
KICAD
  70
0
  40
0
  41
1
  42
1
  50
0
  71
0
  3
isocp.shx
  0
STYLE
  2
KICADB
  70
0
  40
0
  41
1
  42
1
  50
0
  71
0
  3
isocp.shx
  0
STYLE
  2
KICADI
  70
0
  40
0
  41
1
  42
1
  50
15
  71
0
  3
isocp.shx
  0
STYLE
  2
KICADBI
  70
0
  40
0
  41
1
  42
1
  50
15
  71
0
  3
isocp.shx
  0
ENDTAB
  0
TABLE
  2
LAYER
  70
1
  0
LAYER
  2
BLACK
  70
0
  62
7
  6
CONTINUOUS
  0
ENDTAB
  0
ENDSEC
  0
SECTION
  2
ENTITIES
0
LINE
8
BLACK
6
CONTINUOUS
10
127.5
20
-70.8406
11
127.5
21
-104.841
0
LINE
8
BLACK
6
CONTINUOUS
10
127.5
20
-104.841
11
162
21
-104.841
0
LINE
8
BLACK
6
CONTINUOUS
10
162
20
-70.8406
11
162
21
-104.841
0
LINE
8
BLACK
6
CONTINUOUS
10
127.5
20
-70.8406
11
162
21
-70.8406
0
LINE
8
BLACK
6
CONTINUOUS
10
129.75
20
-72.75
11
132.25
21
-75.25
0
LINE
8
BLACK
6
CONTINUOUS
10
132.25
20
-72.75
11
129.75
21
-75.25
0
LINE
8
BLACK
6
CONTINUOUS
10
129.75
20
-100.25
11
132.25
21
-102.75
0
LINE
8
BLACK
6
CONTINUOUS
10
132.25
20
-100.25
11
129.75
21
-102.75
0
LINE
8
BLACK
6
CONTINUOUS
10
157.119
20
-72.75
11
159.619
21
-75.25
0
LINE
8
BLACK
6
CONTINUOUS
10
159.619
20
-72.75
11
157.119
21
-75.25
0
LINE
8
BLACK
6
CONTINUOUS
10
157.119
20
-100.25
11
159.619
21
-102.75
0
LINE
8
BLACK
6
CONTINUOUS
10
159.619
20
-100.25
11
157.119
21
-102.75
0
CIRCLE
8
BLACK
10
140.097
20
-100.782
40
1.5
0
CIRCLE
8
BLACK
10
148.597
20
-100.882
40
1.5
0
LINE
8
BLACK
6
CONTINUOUS
10
138.004
20
-72.8478
11
138.004
21
-76.0978
0
LINE
8
BLACK
6
CONTINUOUS
10
136.379
20
-74.4728
11
139.629
21
-74.4728
0
LINE
8
BLACK
6
CONTINUOUS
10
150.704
20
-72.8478
11
150.704
21
-76.0978
0
LINE
8
BLACK
6
CONTINUOUS
10
149.079
20
-74.4728
11
152.329
21
-74.4728
0
LINE
8
BLACK
6
CONTINUOUS
10
129.926
20
-107.825
11
129.926
21
-105.825
0
LINE
8
BLACK
6
CONTINUOUS
10
129.926
20
-105.825
11
130.402
21
-105.825
0
LINE
8
BLACK
6
CONTINUOUS
10
130.402
20
-105.825
11
130.688
21
-105.921
0
LINE
8
BLACK
6
CONTINUOUS
10
130.688
20
-105.921
11
130.879
21
-106.111
0
LINE
8
BLACK
6
CONTINUOUS
10
130.879
20
-106.111
11
130.974
21
-106.302
0
LINE
8
BLACK
6
CONTINUOUS
10
130.974
20
-106.302
11
131.069
21
-106.683
0
LINE
8
BLACK
6
CONTINUOUS
10
131.069
20
-106.683
11
131.069
21
-106.968
0
LINE
8
BLACK
6
CONTINUOUS
10
131.069
20
-106.968
11
130.974
21
-107.349
0
LINE
8
BLACK
6
CONTINUOUS
10
130.974
20
-107.349
11
130.879
21
-107.54
0
LINE
8
BLACK
6
CONTINUOUS
10
130.879
20
-107.54
11
130.688
21
-107.73
0
LINE
8
BLACK
6
CONTINUOUS
10
130.688
20
-107.73
11
130.402
21
-107.825
0
LINE
8
BLACK
6
CONTINUOUS
10
130.402
20
-107.825
11
129.926
21
-107.825
0
LINE
8
BLACK
6
CONTINUOUS
10
131.926
20
-107.825
11
131.926
21
-106.492
0
LINE
8
BLACK
6
CONTINUOUS
10
131.926
20
-106.873
11
132.021
21
-106.683
0
LINE
8
BLACK
6
CONTINUOUS
10
132.021
20
-106.683
11
132.117
21
-106.587
0
LINE
8
BLACK
6
CONTINUOUS
10
132.117
20
-106.587
11
132.307
21
-106.492
0
LINE
8
BLACK
6
CONTINUOUS
10
132.307
20
-106.492
11
132.498
21
-106.492
0
LINE
8
BLACK
6
CONTINUOUS
10
133.164
20
-107.825
11
133.164
21
-106.492
0
LINE
8
BLACK
6
CONTINUOUS
10
133.164
20
-105.825
11
133.069
21
-105.921
0
LINE
8
BLACK
6
CONTINUOUS
10
133.069
20
-105.921
11
133.164
21
-106.016
0
LINE
8
BLACK
6
CONTINUOUS
10
133.164
20
-106.016
11
133.26
21
-105.921
0
LINE
8
BLACK
6
CONTINUOUS
10
133.26
20
-105.921
11
133.164
21
-105.825
0
LINE
8
BLACK
6
CONTINUOUS
10
133.164
20
-105.825
11
133.164
21
-106.016
0
LINE
8
BLACK
6
CONTINUOUS
10
134.402
20
-107.825
11
134.212
21
-107.73
0
LINE
8
BLACK
6
CONTINUOUS
10
134.212
20
-107.73
11
134.117
21
-107.54
0
LINE
8
BLACK
6
CONTINUOUS
10
134.117
20
-107.54
11
134.117
21
-105.825
0
LINE
8
BLACK
6
CONTINUOUS
10
135.45
20
-107.825
11
135.26
21
-107.73
0
LINE
8
BLACK
6
CONTINUOUS
10
135.26
20
-107.73
11
135.164
21
-107.54
0
LINE
8
BLACK
6
CONTINUOUS
10
135.164
20
-107.54
11
135.164
21
-105.825
0
LINE
8
BLACK
6
CONTINUOUS
10
137.412
20
-107.825
11
137.412
21
-105.825
0
LINE
8
BLACK
6
CONTINUOUS
10
137.412
20
-105.825
11
138.079
21
-107.254
0
LINE
8
BLACK
6
CONTINUOUS
10
138.079
20
-107.254
11
138.745
21
-105.825
0
LINE
8
BLACK
6
CONTINUOUS
10
138.745
20
-105.825
11
138.745
21
-107.825
0
LINE
8
BLACK
6
CONTINUOUS
10
140.555
20
-107.825
11
140.555
21
-106.778
0
LINE
8
BLACK
6
CONTINUOUS
10
140.555
20
-106.778
11
140.46
21
-106.587
0
LINE
8
BLACK
6
CONTINUOUS
10
140.46
20
-106.587
11
140.269
21
-106.492
0
LINE
8
BLACK
6
CONTINUOUS
10
140.269
20
-106.492
11
139.888
21
-106.492
0
LINE
8
BLACK
6
CONTINUOUS
10
139.888
20
-106.492
11
139.698
21
-106.587
0
LINE
8
BLACK
6
CONTINUOUS
10
140.555
20
-107.73
11
140.364
21
-107.825
0
LINE
8
BLACK
6
CONTINUOUS
10
140.364
20
-107.825
11
139.888
21
-107.825
0
LINE
8
BLACK
6
CONTINUOUS
10
139.888
20
-107.825
11
139.698
21
-107.73
0
LINE
8
BLACK
6
CONTINUOUS
10
139.698
20
-107.73
11
139.602
21
-107.54
0
LINE
8
BLACK
6
CONTINUOUS
10
139.602
20
-107.54
11
139.602
21
-107.349
0
LINE
8
BLACK
6
CONTINUOUS
10
139.602
20
-107.349
11
139.698
21
-107.159
0
LINE
8
BLACK
6
CONTINUOUS
10
139.698
20
-107.159
11
139.888
21
-107.063
0
LINE
8
BLACK
6
CONTINUOUS
10
139.888
20
-107.063
11
140.364
21
-107.063
0
LINE
8
BLACK
6
CONTINUOUS
10
140.364
20
-107.063
11
140.555
21
-106.968
0
LINE
8
BLACK
6
CONTINUOUS
10
141.507
20
-106.492
11
141.507
21
-108.492
0
LINE
8
BLACK
6
CONTINUOUS
10
141.507
20
-106.587
11
141.698
21
-106.492
0
LINE
8
BLACK
6
CONTINUOUS
10
141.698
20
-106.492
11
142.079
21
-106.492
0
LINE
8
BLACK
6
CONTINUOUS
10
142.079
20
-106.492
11
142.269
21
-106.587
0
LINE
8
BLACK
6
CONTINUOUS
10
142.269
20
-106.587
11
142.364
21
-106.683
0
LINE
8
BLACK
6
CONTINUOUS
10
142.364
20
-106.683
11
142.46
21
-106.873
0
LINE
8
BLACK
6
CONTINUOUS
10
142.46
20
-106.873
11
142.46
21
-107.444
0
LINE
8
BLACK
6
CONTINUOUS
10
142.46
20
-107.444
11
142.364
21
-107.635
0
LINE
8
BLACK
6
CONTINUOUS
10
142.364
20
-107.635
11
142.269
21
-107.73
0
LINE
8
BLACK
6
CONTINUOUS
10
142.269
20
-107.73
11
142.079
21
-107.825
0
LINE
8
BLACK
6
CONTINUOUS
10
142.079
20
-107.825
11
141.698
21
-107.825
0
LINE
8
BLACK
6
CONTINUOUS
10
141.698
20
-107.825
11
141.507
21
-107.73
0
LINE
8
BLACK
6
CONTINUOUS
10
143.317
20
-107.635
11
143.412
21
-107.73
0
LINE
8
BLACK
6
CONTINUOUS
10
143.412
20
-107.73
11
143.317
21
-107.825
0
LINE
8
BLACK
6
CONTINUOUS
10
143.317
20
-107.825
11
143.221
21
-107.73
0
LINE
8
BLACK
6
CONTINUOUS
10
143.221
20
-107.73
11
143.317
21
-107.635
0
LINE
8
BLACK
6
CONTINUOUS
10
143.317
20
-107.635
11
143.317
21
-107.825
0
LINE
8
BLACK
6
CONTINUOUS
10
143.317
20
-106.587
11
143.412
21
-106.683
0
LINE
8
BLACK
6
CONTINUOUS
10
143.412
20
-106.683
11
143.317
21
-106.778
0
LINE
8
BLACK
6
CONTINUOUS
10
143.317
20
-106.778
11
143.221
21
-106.683
0
LINE
8
BLACK
6
CONTINUOUS
10
143.221
20
-106.683
11
143.317
21
-106.587
0
LINE
8
BLACK
6
CONTINUOUS
10
143.317
20
-106.587
11
143.317
21
-106.778
0
LINE
8
BLACK
6
CONTINUOUS
10
125.45
20
-110.291
11
127.45
21
-112.291
0
LINE
8
BLACK
6
CONTINUOUS
10
127.45
20
-110.291
11
125.45
21
-112.291
0
LINE
8
BLACK
6
CONTINUOUS
10
129.831
20
-110.216
11
129.926
21
-110.121
0
LINE
8
BLACK
6
CONTINUOUS
10
129.926
20
-110.121
11
130.117
21
-110.025
0
LINE
8
BLACK
6
CONTINUOUS
10
130.117
20
-110.025
11
130.593
21
-110.025
0
LINE
8
BLACK
6
CONTINUOUS
10
130.593
20
-110.025
11
130.783
21
-110.121
0
LINE
8
BLACK
6
CONTINUOUS
10
130.783
20
-110.121
11
130.879
21
-110.216
0
LINE
8
BLACK
6
CONTINUOUS
10
130.879
20
-110.216
11
130.974
21
-110.406
0
LINE
8
BLACK
6
CONTINUOUS
10
130.974
20
-110.406
11
130.974
21
-110.597
0
LINE
8
BLACK
6
CONTINUOUS
10
130.974
20
-110.597
11
130.879
21
-110.883
0
LINE
8
BLACK
6
CONTINUOUS
10
130.879
20
-110.883
11
129.736
21
-112.025
0
LINE
8
BLACK
6
CONTINUOUS
10
129.736
20
-112.025
11
130.974
21
-112.025
0
LINE
8
BLACK
6
CONTINUOUS
10
131.831
20
-111.835
11
131.926
21
-111.93
0
LINE
8
BLACK
6
CONTINUOUS
10
131.926
20
-111.93
11
131.831
21
-112.025
0
LINE
8
BLACK
6
CONTINUOUS
10
131.831
20
-112.025
11
131.736
21
-111.93
0
LINE
8
BLACK
6
CONTINUOUS
10
131.736
20
-111.93
11
131.831
21
-111.835
0
LINE
8
BLACK
6
CONTINUOUS
10
131.831
20
-111.835
11
131.831
21
-112.025
0
LINE
8
BLACK
6
CONTINUOUS
10
133.736
20
-110.025
11
132.783
21
-110.025
0
LINE
8
BLACK
6
CONTINUOUS
10
132.783
20
-110.025
11
132.688
21
-110.978
0
LINE
8
BLACK
6
CONTINUOUS
10
132.688
20
-110.978
11
132.783
21
-110.883
0
LINE
8
BLACK
6
CONTINUOUS
10
132.783
20
-110.883
11
132.974
21
-110.787
0
LINE
8
BLACK
6
CONTINUOUS
10
132.974
20
-110.787
11
133.45
21
-110.787
0
LINE
8
BLACK
6
CONTINUOUS
10
133.45
20
-110.787
11
133.64
21
-110.883
0
LINE
8
BLACK
6
CONTINUOUS
10
133.64
20
-110.883
11
133.736
21
-110.978
0
LINE
8
BLACK
6
CONTINUOUS
10
133.736
20
-110.978
11
133.831
21
-111.168
0
LINE
8
BLACK
6
CONTINUOUS
10
133.831
20
-111.168
11
133.831
21
-111.644
0
LINE
8
BLACK
6
CONTINUOUS
10
133.831
20
-111.644
11
133.736
21
-111.835
0
LINE
8
BLACK
6
CONTINUOUS
10
133.736
20
-111.835
11
133.64
21
-111.93
0
LINE
8
BLACK
6
CONTINUOUS
10
133.64
20
-111.93
11
133.45
21
-112.025
0
LINE
8
BLACK
6
CONTINUOUS
10
133.45
20
-112.025
11
132.974
21
-112.025
0
LINE
8
BLACK
6
CONTINUOUS
10
132.974
20
-112.025
11
132.783
21
-111.93
0
LINE
8
BLACK
6
CONTINUOUS
10
132.783
20
-111.93
11
132.688
21
-111.835
0
LINE
8
BLACK
6
CONTINUOUS
10
135.069
20
-110.025
11
135.26
21
-110.025
0
LINE
8
BLACK
6
CONTINUOUS
10
135.26
20
-110.025
11
135.45
21
-110.121
0
LINE
8
BLACK
6
CONTINUOUS
10
135.45
20
-110.121
11
135.545
21
-110.216
0
LINE
8
BLACK
6
CONTINUOUS
10
135.545
20
-110.216
11
135.64
21
-110.406
0
LINE
8
BLACK
6
CONTINUOUS
10
135.64
20
-110.406
11
135.736
21
-110.787
0
LINE
8
BLACK
6
CONTINUOUS
10
135.736
20
-110.787
11
135.736
21
-111.263
0
LINE
8
BLACK
6
CONTINUOUS
10
135.736
20
-111.263
11
135.64
21
-111.644
0
LINE
8
BLACK
6
CONTINUOUS
10
135.64
20
-111.644
11
135.545
21
-111.835
0
LINE
8
BLACK
6
CONTINUOUS
10
135.545
20
-111.835
11
135.45
21
-111.93
0
LINE
8
BLACK
6
CONTINUOUS
10
135.45
20
-111.93
11
135.26
21
-112.025
0
LINE
8
BLACK
6
CONTINUOUS
10
135.26
20
-112.025
11
135.069
21
-112.025
0
LINE
8
BLACK
6
CONTINUOUS
10
135.069
20
-112.025
11
134.879
21
-111.93
0
LINE
8
BLACK
6
CONTINUOUS
10
134.879
20
-111.93
11
134.783
21
-111.835
0
LINE
8
BLACK
6
CONTINUOUS
10
134.783
20
-111.835
11
134.688
21
-111.644
0
LINE
8
BLACK
6
CONTINUOUS
10
134.688
20
-111.644
11
134.593
21
-111.263
0
LINE
8
BLACK
6
CONTINUOUS
10
134.593
20
-111.263
11
134.593
21
-110.787
0
LINE
8
BLACK
6
CONTINUOUS
10
134.593
20
-110.787
11
134.688
21
-110.406
0
LINE
8
BLACK
6
CONTINUOUS
10
134.688
20
-110.406
11
134.783
21
-110.216
0
LINE
8
BLACK
6
CONTINUOUS
10
134.783
20
-110.216
11
134.879
21
-110.121
0
LINE
8
BLACK
6
CONTINUOUS
10
134.879
20
-110.121
11
135.069
21
-110.025
0
LINE
8
BLACK
6
CONTINUOUS
10
136.974
20
-110.025
11
137.164
21
-110.025
0
LINE
8
BLACK
6
CONTINUOUS
10
137.164
20
-110.025
11
137.355
21
-110.121
0
LINE
8
BLACK
6
CONTINUOUS
10
137.355
20
-110.121
11
137.45
21
-110.216
0
LINE
8
BLACK
6
CONTINUOUS
10
137.45
20
-110.216
11
137.545
21
-110.406
0
LINE
8
BLACK
6
CONTINUOUS
10
137.545
20
-110.406
11
137.64
21
-110.787
0
LINE
8
BLACK
6
CONTINUOUS
10
137.64
20
-110.787
11
137.64
21
-111.263
0
LINE
8
BLACK
6
CONTINUOUS
10
137.64
20
-111.263
11
137.545
21
-111.644
0
LINE
8
BLACK
6
CONTINUOUS
10
137.545
20
-111.644
11
137.45
21
-111.835
0
LINE
8
BLACK
6
CONTINUOUS
10
137.45
20
-111.835
11
137.355
21
-111.93
0
LINE
8
BLACK
6
CONTINUOUS
10
137.355
20
-111.93
11
137.164
21
-112.025
0
LINE
8
BLACK
6
CONTINUOUS
10
137.164
20
-112.025
11
136.974
21
-112.025
0
LINE
8
BLACK
6
CONTINUOUS
10
136.974
20
-112.025
11
136.783
21
-111.93
0
LINE
8
BLACK
6
CONTINUOUS
10
136.783
20
-111.93
11
136.688
21
-111.835
0
LINE
8
BLACK
6
CONTINUOUS
10
136.688
20
-111.835
11
136.593
21
-111.644
0
LINE
8
BLACK
6
CONTINUOUS
10
136.593
20
-111.644
11
136.498
21
-111.263
0
LINE
8
BLACK
6
CONTINUOUS
10
136.498
20
-111.263
11
136.498
21
-110.787
0
LINE
8
BLACK
6
CONTINUOUS
10
136.498
20
-110.787
11
136.593
21
-110.406
0
LINE
8
BLACK
6
CONTINUOUS
10
136.593
20
-110.406
11
136.688
21
-110.216
0
LINE
8
BLACK
6
CONTINUOUS
10
136.688
20
-110.216
11
136.783
21
-110.121
0
LINE
8
BLACK
6
CONTINUOUS
10
136.783
20
-110.121
11
136.974
21
-110.025
0
LINE
8
BLACK
6
CONTINUOUS
10
138.498
20
-112.025
11
138.498
21
-110.692
0
LINE
8
BLACK
6
CONTINUOUS
10
138.498
20
-110.883
11
138.593
21
-110.787
0
LINE
8
BLACK
6
CONTINUOUS
10
138.593
20
-110.787
11
138.783
21
-110.692
0
LINE
8
BLACK
6
CONTINUOUS
10
138.783
20
-110.692
11
139.069
21
-110.692
0
LINE
8
BLACK
6
CONTINUOUS
10
139.069
20
-110.692
11
139.26
21
-110.787
0
LINE
8
BLACK
6
CONTINUOUS
10
139.26
20
-110.787
11
139.355
21
-110.978
0
LINE
8
BLACK
6
CONTINUOUS
10
139.355
20
-110.978
11
139.355
21
-112.025
0
LINE
8
BLACK
6
CONTINUOUS
10
139.355
20
-110.978
11
139.45
21
-110.787
0
LINE
8
BLACK
6
CONTINUOUS
10
139.45
20
-110.787
11
139.64
21
-110.692
0
LINE
8
BLACK
6
CONTINUOUS
10
139.64
20
-110.692
11
139.926
21
-110.692
0
LINE
8
BLACK
6
CONTINUOUS
10
139.926
20
-110.692
11
140.117
21
-110.787
0
LINE
8
BLACK
6
CONTINUOUS
10
140.117
20
-110.787
11
140.212
21
-110.978
0
LINE
8
BLACK
6
CONTINUOUS
10
140.212
20
-110.978
11
140.212
21
-112.025
0
LINE
8
BLACK
6
CONTINUOUS
10
141.164
20
-112.025
11
141.164
21
-110.692
0
LINE
8
BLACK
6
CONTINUOUS
10
141.164
20
-110.883
11
141.26
21
-110.787
0
LINE
8
BLACK
6
CONTINUOUS
10
141.26
20
-110.787
11
141.45
21
-110.692
0
LINE
8
BLACK
6
CONTINUOUS
10
141.45
20
-110.692
11
141.736
21
-110.692
0
LINE
8
BLACK
6
CONTINUOUS
10
141.736
20
-110.692
11
141.926
21
-110.787
0
LINE
8
BLACK
6
CONTINUOUS
10
141.926
20
-110.787
11
142.021
21
-110.978
0
LINE
8
BLACK
6
CONTINUOUS
10
142.021
20
-110.978
11
142.021
21
-112.025
0
LINE
8
BLACK
6
CONTINUOUS
10
142.021
20
-110.978
11
142.117
21
-110.787
0
LINE
8
BLACK
6
CONTINUOUS
10
142.117
20
-110.787
11
142.307
21
-110.692
0
LINE
8
BLACK
6
CONTINUOUS
10
142.307
20
-110.692
11
142.593
21
-110.692
0
LINE
8
BLACK
6
CONTINUOUS
10
142.593
20
-110.692
11
142.783
21
-110.787
0
LINE
8
BLACK
6
CONTINUOUS
10
142.783
20
-110.787
11
142.879
21
-110.978
0
LINE
8
BLACK
6
CONTINUOUS
10
142.879
20
-110.978
11
142.879
21
-112.025
0
LINE
8
BLACK
6
CONTINUOUS
10
146.46
20
-109.93
11
144.745
21
-112.502
0
LINE
8
BLACK
6
CONTINUOUS
10
148.707
20
-110.025
11
148.898
21
-110.025
0
LINE
8
BLACK
6
CONTINUOUS
10
148.898
20
-110.025
11
149.088
21
-110.121
0
LINE
8
BLACK
6
CONTINUOUS
10
149.088
20
-110.121
11
149.183
21
-110.216
0
LINE
8
BLACK
6
CONTINUOUS
10
149.183
20
-110.216
11
149.279
21
-110.406
0
LINE
8
BLACK
6
CONTINUOUS
10
149.279
20
-110.406
11
149.374
21
-110.787
0
LINE
8
BLACK
6
CONTINUOUS
10
149.374
20
-110.787
11
149.374
21
-111.263
0
LINE
8
BLACK
6
CONTINUOUS
10
149.374
20
-111.263
11
149.279
21
-111.644
0
LINE
8
BLACK
6
CONTINUOUS
10
149.279
20
-111.644
11
149.183
21
-111.835
0
LINE
8
BLACK
6
CONTINUOUS
10
149.183
20
-111.835
11
149.088
21
-111.93
0
LINE
8
BLACK
6
CONTINUOUS
10
149.088
20
-111.93
11
148.898
21
-112.025
0
LINE
8
BLACK
6
CONTINUOUS
10
148.898
20
-112.025
11
148.707
21
-112.025
0
LINE
8
BLACK
6
CONTINUOUS
10
148.707
20
-112.025
11
148.517
21
-111.93
0
LINE
8
BLACK
6
CONTINUOUS
10
148.517
20
-111.93
11
148.421
21
-111.835
0
LINE
8
BLACK
6
CONTINUOUS
10
148.421
20
-111.835
11
148.326
21
-111.644
0
LINE
8
BLACK
6
CONTINUOUS
10
148.326
20
-111.644
11
148.231
21
-111.263
0
LINE
8
BLACK
6
CONTINUOUS
10
148.231
20
-111.263
11
148.231
21
-110.787
0
LINE
8
BLACK
6
CONTINUOUS
10
148.231
20
-110.787
11
148.326
21
-110.406
0
LINE
8
BLACK
6
CONTINUOUS
10
148.326
20
-110.406
11
148.421
21
-110.216
0
LINE
8
BLACK
6
CONTINUOUS
10
148.421
20
-110.216
11
148.517
21
-110.121
0
LINE
8
BLACK
6
CONTINUOUS
10
148.517
20
-110.121
11
148.707
21
-110.025
0
LINE
8
BLACK
6
CONTINUOUS
10
150.231
20
-111.835
11
150.326
21
-111.93
0
LINE
8
BLACK
6
CONTINUOUS
10
150.326
20
-111.93
11
150.231
21
-112.025
0
LINE
8
BLACK
6
CONTINUOUS
10
150.231
20
-112.025
11
150.136
21
-111.93
0
LINE
8
BLACK
6
CONTINUOUS
10
150.136
20
-111.93
11
150.231
21
-111.835
0
LINE
8
BLACK
6
CONTINUOUS
10
150.231
20
-111.835
11
150.231
21
-112.025
0
LINE
8
BLACK
6
CONTINUOUS
10
151.564
20
-110.025
11
151.755
21
-110.025
0
LINE
8
BLACK
6
CONTINUOUS
10
151.755
20
-110.025
11
151.945
21
-110.121
0
LINE
8
BLACK
6
CONTINUOUS
10
151.945
20
-110.121
11
152.04
21
-110.216
0
LINE
8
BLACK
6
CONTINUOUS
10
152.04
20
-110.216
11
152.136
21
-110.406
0
LINE
8
BLACK
6
CONTINUOUS
10
152.136
20
-110.406
11
152.231
21
-110.787
0
LINE
8
BLACK
6
CONTINUOUS
10
152.231
20
-110.787
11
152.231
21
-111.263
0
LINE
8
BLACK
6
CONTINUOUS
10
152.231
20
-111.263
11
152.136
21
-111.644
0
LINE
8
BLACK
6
CONTINUOUS
10
152.136
20
-111.644
11
152.04
21
-111.835
0
LINE
8
BLACK
6
CONTINUOUS
10
152.04
20
-111.835
11
151.945
21
-111.93
0
LINE
8
BLACK
6
CONTINUOUS
10
151.945
20
-111.93
11
151.755
21
-112.025
0
LINE
8
BLACK
6
CONTINUOUS
10
151.755
20
-112.025
11
151.564
21
-112.025
0
LINE
8
BLACK
6
CONTINUOUS
10
151.564
20
-112.025
11
151.374
21
-111.93
0
LINE
8
BLACK
6
CONTINUOUS
10
151.374
20
-111.93
11
151.279
21
-111.835
0
LINE
8
BLACK
6
CONTINUOUS
10
151.279
20
-111.835
11
151.183
21
-111.644
0
LINE
8
BLACK
6
CONTINUOUS
10
151.183
20
-111.644
11
151.088
21
-111.263
0
LINE
8
BLACK
6
CONTINUOUS
10
151.088
20
-111.263
11
151.088
21
-110.787
0
LINE
8
BLACK
6
CONTINUOUS
10
151.088
20
-110.787
11
151.183
21
-110.406
0
LINE
8
BLACK
6
CONTINUOUS
10
151.183
20
-110.406
11
151.279
21
-110.216
0
LINE
8
BLACK
6
CONTINUOUS
10
151.279
20
-110.216
11
151.374
21
-110.121
0
LINE
8
BLACK
6
CONTINUOUS
10
151.374
20
-110.121
11
151.564
21
-110.025
0
LINE
8
BLACK
6
CONTINUOUS
10
153.183
20
-112.025
11
153.564
21
-112.025
0
LINE
8
BLACK
6
CONTINUOUS
10
153.564
20
-112.025
11
153.755
21
-111.93
0
LINE
8
BLACK
6
CONTINUOUS
10
153.755
20
-111.93
11
153.85
21
-111.835
0
LINE
8
BLACK
6
CONTINUOUS
10
153.85
20
-111.835
11
154.04
21
-111.549
0
LINE
8
BLACK
6
CONTINUOUS
10
154.04
20
-111.549
11
154.136
21
-111.168
0
LINE
8
BLACK
6
CONTINUOUS
10
154.136
20
-111.168
11
154.136
21
-110.406
0
LINE
8
BLACK
6
CONTINUOUS
10
154.136
20
-110.406
11
154.04
21
-110.216
0
LINE
8
BLACK
6
CONTINUOUS
10
154.04
20
-110.216
11
153.945
21
-110.121
0
LINE
8
BLACK
6
CONTINUOUS
10
153.945
20
-110.121
11
153.755
21
-110.025
0
LINE
8
BLACK
6
CONTINUOUS
10
153.755
20
-110.025
11
153.374
21
-110.025
0
LINE
8
BLACK
6
CONTINUOUS
10
153.374
20
-110.025
11
153.183
21
-110.121
0
LINE
8
BLACK
6
CONTINUOUS
10
153.183
20
-110.121
11
153.088
21
-110.216
0
LINE
8
BLACK
6
CONTINUOUS
10
153.088
20
-110.216
11
152.993
21
-110.406
0
LINE
8
BLACK
6
CONTINUOUS
10
152.993
20
-110.406
11
152.993
21
-110.883
0
LINE
8
BLACK
6
CONTINUOUS
10
152.993
20
-110.883
11
153.088
21
-111.073
0
LINE
8
BLACK
6
CONTINUOUS
10
153.088
20
-111.073
11
153.183
21
-111.168
0
LINE
8
BLACK
6
CONTINUOUS
10
153.183
20
-111.168
11
153.374
21
-111.263
0
LINE
8
BLACK
6
CONTINUOUS
10
153.374
20
-111.263
11
153.755
21
-111.263
0
LINE
8
BLACK
6
CONTINUOUS
10
153.755
20
-111.263
11
153.945
21
-111.168
0
LINE
8
BLACK
6
CONTINUOUS
10
153.945
20
-111.168
11
154.04
21
-111.073
0
LINE
8
BLACK
6
CONTINUOUS
10
154.04
20
-111.073
11
154.136
21
-110.883
0
LINE
8
BLACK
6
CONTINUOUS
10
155.279
20
-110.883
11
155.088
21
-110.787
0
LINE
8
BLACK
6
CONTINUOUS
10
155.088
20
-110.787
11
154.993
21
-110.692
0
LINE
8
BLACK
6
CONTINUOUS
10
154.993
20
-110.692
11
154.898
21
-110.502
0
LINE
8
BLACK
6
CONTINUOUS
10
154.898
20
-110.502
11
154.898
21
-110.406
0
LINE
8
BLACK
6
CONTINUOUS
10
154.898
20
-110.406
11
154.993
21
-110.216
0
LINE
8
BLACK
6
CONTINUOUS
10
154.993
20
-110.216
11
155.088
21
-110.121
0
LINE
8
BLACK
6
CONTINUOUS
10
155.088
20
-110.121
11
155.279
21
-110.025
0
LINE
8
BLACK
6
CONTINUOUS
10
155.279
20
-110.025
11
155.66
21
-110.025
0
LINE
8
BLACK
6
CONTINUOUS
10
155.66
20
-110.025
11
155.85
21
-110.121
0
LINE
8
BLACK
6
CONTINUOUS
10
155.85
20
-110.121
11
155.945
21
-110.216
0
LINE
8
BLACK
6
CONTINUOUS
10
155.945
20
-110.216
11
156.04
21
-110.406
0
LINE
8
BLACK
6
CONTINUOUS
10
156.04
20
-110.406
11
156.04
21
-110.502
0
LINE
8
BLACK
6
CONTINUOUS
10
156.04
20
-110.502
11
155.945
21
-110.692
0
LINE
8
BLACK
6
CONTINUOUS
10
155.945
20
-110.692
11
155.85
21
-110.787
0
LINE
8
BLACK
6
CONTINUOUS
10
155.85
20
-110.787
11
155.66
21
-110.883
0
LINE
8
BLACK
6
CONTINUOUS
10
155.66
20
-110.883
11
155.279
21
-110.883
0
LINE
8
BLACK
6
CONTINUOUS
10
155.279
20
-110.883
11
155.088
21
-110.978
0
LINE
8
BLACK
6
CONTINUOUS
10
155.088
20
-110.978
11
154.993
21
-111.073
0
LINE
8
BLACK
6
CONTINUOUS
10
154.993
20
-111.073
11
154.898
21
-111.263
0
LINE
8
BLACK
6
CONTINUOUS
10
154.898
20
-111.263
11
154.898
21
-111.644
0
LINE
8
BLACK
6
CONTINUOUS
10
154.898
20
-111.644
11
154.993
21
-111.835
0
LINE
8
BLACK
6
CONTINUOUS
10
154.993
20
-111.835
11
155.088
21
-111.93
0
LINE
8
BLACK
6
CONTINUOUS
10
155.088
20
-111.93
11
155.279
21
-112.025
0
LINE
8
BLACK
6
CONTINUOUS
10
155.279
20
-112.025
11
155.66
21
-112.025
0
LINE
8
BLACK
6
CONTINUOUS
10
155.66
20
-112.025
11
155.85
21
-111.93
0
LINE
8
BLACK
6
CONTINUOUS
10
155.85
20
-111.93
11
155.945
21
-111.835
0
LINE
8
BLACK
6
CONTINUOUS
10
155.945
20
-111.835
11
156.04
21
-111.644
0
LINE
8
BLACK
6
CONTINUOUS
10
156.04
20
-111.644
11
156.04
21
-111.263
0
LINE
8
BLACK
6
CONTINUOUS
10
156.04
20
-111.263
11
155.945
21
-111.073
0
LINE
8
BLACK
6
CONTINUOUS
10
155.945
20
-111.073
11
155.85
21
-110.978
0
LINE
8
BLACK
6
CONTINUOUS
10
155.85
20
-110.978
11
155.66
21
-110.883
0
LINE
8
BLACK
6
CONTINUOUS
10
157.755
20
-110.692
11
157.755
21
-112.025
0
LINE
8
BLACK
6
CONTINUOUS
10
157.279
20
-109.93
11
156.802
21
-111.359
0
LINE
8
BLACK
6
CONTINUOUS
10
156.802
20
-111.359
11
158.04
21
-111.359
0
LINE
8
BLACK
6
CONTINUOUS
10
158.707
20
-110.025
11
158.707
21
-110.406
0
LINE
8
BLACK
6
CONTINUOUS
10
159.469
20
-110.025
11
159.469
21
-110.406
0
LINE
8
BLACK
6
CONTINUOUS
10
162.098
20
-112.787
11
162.002
21
-112.692
0
LINE
8
BLACK
6
CONTINUOUS
10
162.002
20
-112.692
11
161.812
21
-112.406
0
LINE
8
BLACK
6
CONTINUOUS
10
161.812
20
-112.406
11
161.717
21
-112.216
0
LINE
8
BLACK
6
CONTINUOUS
10
161.717
20
-112.216
11
161.621
21
-111.93
0
LINE
8
BLACK
6
CONTINUOUS
10
161.621
20
-111.93
11
161.526
21
-111.454
0
LINE
8
BLACK
6
CONTINUOUS
10
161.526
20
-111.454
11
161.526
21
-111.073
0
LINE
8
BLACK
6
CONTINUOUS
10
161.526
20
-111.073
11
161.621
21
-110.597
0
LINE
8
BLACK
6
CONTINUOUS
10
161.621
20
-110.597
11
161.717
21
-110.311
0
LINE
8
BLACK
6
CONTINUOUS
10
161.717
20
-110.311
11
161.812
21
-110.121
0
LINE
8
BLACK
6
CONTINUOUS
10
161.812
20
-110.121
11
162.002
21
-109.835
0
LINE
8
BLACK
6
CONTINUOUS
10
162.002
20
-109.835
11
162.098
21
-109.74
0
LINE
8
BLACK
6
CONTINUOUS
10
163.717
20
-110.692
11
163.717
21
-112.025
0
LINE
8
BLACK
6
CONTINUOUS
10
163.24
20
-109.93
11
162.764
21
-111.359
0
LINE
8
BLACK
6
CONTINUOUS
10
162.764
20
-111.359
11
164.002
21
-111.359
0
LINE
8
BLACK
6
CONTINUOUS
10
165.964
20
-112.025
11
165.964
21
-110.025
0
LINE
8
BLACK
6
CONTINUOUS
10
166.821
20
-112.025
11
166.821
21
-110.978
0
LINE
8
BLACK
6
CONTINUOUS
10
166.821
20
-110.978
11
166.726
21
-110.787
0
LINE
8
BLACK
6
CONTINUOUS
10
166.726
20
-110.787
11
166.536
21
-110.692
0
LINE
8
BLACK
6
CONTINUOUS
10
166.536
20
-110.692
11
166.25
21
-110.692
0
LINE
8
BLACK
6
CONTINUOUS
10
166.25
20
-110.692
11
166.06
21
-110.787
0
LINE
8
BLACK
6
CONTINUOUS
10
166.06
20
-110.787
11
165.964
21
-110.883
0
LINE
8
BLACK
6
CONTINUOUS
10
168.06
20
-112.025
11
167.869
21
-111.93
0
LINE
8
BLACK
6
CONTINUOUS
10
167.869
20
-111.93
11
167.774
21
-111.835
0
LINE
8
BLACK
6
CONTINUOUS
10
167.774
20
-111.835
11
167.679
21
-111.644
0
LINE
8
BLACK
6
CONTINUOUS
10
167.679
20
-111.644
11
167.679
21
-111.073
0
LINE
8
BLACK
6
CONTINUOUS
10
167.679
20
-111.073
11
167.774
21
-110.883
0
LINE
8
BLACK
6
CONTINUOUS
10
167.774
20
-110.883
11
167.869
21
-110.787
0
LINE
8
BLACK
6
CONTINUOUS
10
167.869
20
-110.787
11
168.06
21
-110.692
0
LINE
8
BLACK
6
CONTINUOUS
10
168.06
20
-110.692
11
168.345
21
-110.692
0
LINE
8
BLACK
6
CONTINUOUS
10
168.345
20
-110.692
11
168.536
21
-110.787
0
LINE
8
BLACK
6
CONTINUOUS
10
168.536
20
-110.787
11
168.631
21
-110.883
0
LINE
8
BLACK
6
CONTINUOUS
10
168.631
20
-110.883
11
168.726
21
-111.073
0
LINE
8
BLACK
6
CONTINUOUS
10
168.726
20
-111.073
11
168.726
21
-111.644
0
LINE
8
BLACK
6
CONTINUOUS
10
168.726
20
-111.644
11
168.631
21
-111.835
0
LINE
8
BLACK
6
CONTINUOUS
10
168.631
20
-111.835
11
168.536
21
-111.93
0
LINE
8
BLACK
6
CONTINUOUS
10
168.536
20
-111.93
11
168.345
21
-112.025
0
LINE
8
BLACK
6
CONTINUOUS
10
168.345
20
-112.025
11
168.06
21
-112.025
0
LINE
8
BLACK
6
CONTINUOUS
10
169.869
20
-112.025
11
169.679
21
-111.93
0
LINE
8
BLACK
6
CONTINUOUS
10
169.679
20
-111.93
11
169.583
21
-111.74
0
LINE
8
BLACK
6
CONTINUOUS
10
169.583
20
-111.74
11
169.583
21
-110.025
0
LINE
8
BLACK
6
CONTINUOUS
10
171.393
20
-111.93
11
171.202
21
-112.025
0
LINE
8
BLACK
6
CONTINUOUS
10
171.202
20
-112.025
11
170.821
21
-112.025
0
LINE
8
BLACK
6
CONTINUOUS
10
170.821
20
-112.025
11
170.631
21
-111.93
0
LINE
8
BLACK
6
CONTINUOUS
10
170.631
20
-111.93
11
170.536
21
-111.74
0
LINE
8
BLACK
6
CONTINUOUS
10
170.536
20
-111.74
11
170.536
21
-110.978
0
LINE
8
BLACK
6
CONTINUOUS
10
170.536
20
-110.978
11
170.631
21
-110.787
0
LINE
8
BLACK
6
CONTINUOUS
10
170.631
20
-110.787
11
170.821
21
-110.692
0
LINE
8
BLACK
6
CONTINUOUS
10
170.821
20
-110.692
11
171.202
21
-110.692
0
LINE
8
BLACK
6
CONTINUOUS
10
171.202
20
-110.692
11
171.393
21
-110.787
0
LINE
8
BLACK
6
CONTINUOUS
10
171.393
20
-110.787
11
171.488
21
-110.978
0
LINE
8
BLACK
6
CONTINUOUS
10
171.488
20
-110.978
11
171.488
21
-111.168
0
LINE
8
BLACK
6
CONTINUOUS
10
171.488
20
-111.168
11
170.536
21
-111.359
0
LINE
8
BLACK
6
CONTINUOUS
10
172.25
20
-111.93
11
172.44
21
-112.025
0
LINE
8
BLACK
6
CONTINUOUS
10
172.44
20
-112.025
11
172.821
21
-112.025
0
LINE
8
BLACK
6
CONTINUOUS
10
172.821
20
-112.025
11
173.012
21
-111.93
0
LINE
8
BLACK
6
CONTINUOUS
10
173.012
20
-111.93
11
173.107
21
-111.74
0
LINE
8
BLACK
6
CONTINUOUS
10
173.107
20
-111.74
11
173.107
21
-111.644
0
LINE
8
BLACK
6
CONTINUOUS
10
173.107
20
-111.644
11
173.012
21
-111.454
0
LINE
8
BLACK
6
CONTINUOUS
10
173.012
20
-111.454
11
172.821
21
-111.359
0
LINE
8
BLACK
6
CONTINUOUS
10
172.821
20
-111.359
11
172.536
21
-111.359
0
LINE
8
BLACK
6
CONTINUOUS
10
172.536
20
-111.359
11
172.345
21
-111.263
0
LINE
8
BLACK
6
CONTINUOUS
10
172.345
20
-111.263
11
172.25
21
-111.073
0
LINE
8
BLACK
6
CONTINUOUS
10
172.25
20
-111.073
11
172.25
21
-110.978
0
LINE
8
BLACK
6
CONTINUOUS
10
172.25
20
-110.978
11
172.345
21
-110.787
0
LINE
8
BLACK
6
CONTINUOUS
10
172.345
20
-110.787
11
172.536
21
-110.692
0
LINE
8
BLACK
6
CONTINUOUS
10
172.536
20
-110.692
11
172.821
21
-110.692
0
LINE
8
BLACK
6
CONTINUOUS
10
172.821
20
-110.692
11
173.012
21
-110.787
0
LINE
8
BLACK
6
CONTINUOUS
10
173.774
20
-112.787
11
173.869
21
-112.692
0
LINE
8
BLACK
6
CONTINUOUS
10
173.869
20
-112.692
11
174.06
21
-112.406
0
LINE
8
BLACK
6
CONTINUOUS
10
174.06
20
-112.406
11
174.155
21
-112.216
0
LINE
8
BLACK
6
CONTINUOUS
10
174.155
20
-112.216
11
174.25
21
-111.93
0
LINE
8
BLACK
6
CONTINUOUS
10
174.25
20
-111.93
11
174.345
21
-111.454
0
LINE
8
BLACK
6
CONTINUOUS
10
174.345
20
-111.454
11
174.345
21
-111.073
0
LINE
8
BLACK
6
CONTINUOUS
10
174.345
20
-111.073
11
174.25
21
-110.597
0
LINE
8
BLACK
6
CONTINUOUS
10
174.25
20
-110.597
11
174.155
21
-110.311
0
LINE
8
BLACK
6
CONTINUOUS
10
174.155
20
-110.311
11
174.06
21
-110.121
0
LINE
8
BLACK
6
CONTINUOUS
10
174.06
20
-110.121
11
173.869
21
-109.835
0
LINE
8
BLACK
6
CONTINUOUS
10
173.869
20
-109.835
11
173.774
21
-109.74
0
LINE
8
BLACK
6
CONTINUOUS
10
177.069
20
-112.787
11
176.974
21
-112.692
0
LINE
8
BLACK
6
CONTINUOUS
10
176.974
20
-112.692
11
176.783
21
-112.406
0
LINE
8
BLACK
6
CONTINUOUS
10
176.783
20
-112.406
11
176.688
21
-112.216
0
LINE
8
BLACK
6
CONTINUOUS
10
176.688
20
-112.216
11
176.593
21
-111.93
0
LINE
8
BLACK
6
CONTINUOUS
10
176.593
20
-111.93
11
176.498
21
-111.454
0
LINE
8
BLACK
6
CONTINUOUS
10
176.498
20
-111.454
11
176.498
21
-111.073
0
LINE
8
BLACK
6
CONTINUOUS
10
176.498
20
-111.073
11
176.593
21
-110.597
0
LINE
8
BLACK
6
CONTINUOUS
10
176.593
20
-110.597
11
176.688
21
-110.311
0
LINE
8
BLACK
6
CONTINUOUS
10
176.688
20
-110.311
11
176.783
21
-110.121
0
LINE
8
BLACK
6
CONTINUOUS
10
176.783
20
-110.121
11
176.974
21
-109.835
0
LINE
8
BLACK
6
CONTINUOUS
10
176.974
20
-109.835
11
177.069
21
-109.74
0
LINE
8
BLACK
6
CONTINUOUS
10
177.831
20
-110.692
11
177.831
21
-112.025
0
LINE
8
BLACK
6
CONTINUOUS
10
177.831
20
-110.883
11
177.926
21
-110.787
0
LINE
8
BLACK
6
CONTINUOUS
10
177.926
20
-110.787
11
178.117
21
-110.692
0
LINE
8
BLACK
6
CONTINUOUS
10
178.117
20
-110.692
11
178.402
21
-110.692
0
LINE
8
BLACK
6
CONTINUOUS
10
178.402
20
-110.692
11
178.593
21
-110.787
0
LINE
8
BLACK
6
CONTINUOUS
10
178.593
20
-110.787
11
178.688
21
-110.978
0
LINE
8
BLACK
6
CONTINUOUS
10
178.688
20
-110.978
11
178.688
21
-112.025
0
LINE
8
BLACK
6
CONTINUOUS
10
179.926
20
-112.025
11
179.736
21
-111.93
0
LINE
8
BLACK
6
CONTINUOUS
10
179.736
20
-111.93
11
179.64
21
-111.835
0
LINE
8
BLACK
6
CONTINUOUS
10
179.64
20
-111.835
11
179.545
21
-111.644
0
LINE
8
BLACK
6
CONTINUOUS
10
179.545
20
-111.644
11
179.545
21
-111.073
0
LINE
8
BLACK
6
CONTINUOUS
10
179.545
20
-111.073
11
179.64
21
-110.883
0
LINE
8
BLACK
6
CONTINUOUS
10
179.64
20
-110.883
11
179.736
21
-110.787
0
LINE
8
BLACK
6
CONTINUOUS
10
179.736
20
-110.787
11
179.926
21
-110.692
0
LINE
8
BLACK
6
CONTINUOUS
10
179.926
20
-110.692
11
180.212
21
-110.692
0
LINE
8
BLACK
6
CONTINUOUS
10
180.212
20
-110.692
11
180.402
21
-110.787
0
LINE
8
BLACK
6
CONTINUOUS
10
180.402
20
-110.787
11
180.498
21
-110.883
0
LINE
8
BLACK
6
CONTINUOUS
10
180.498
20
-110.883
11
180.593
21
-111.073
0
LINE
8
BLACK
6
CONTINUOUS
10
180.593
20
-111.073
11
180.593
21
-111.644
0
LINE
8
BLACK
6
CONTINUOUS
10
180.593
20
-111.644
11
180.498
21
-111.835
0
LINE
8
BLACK
6
CONTINUOUS
10
180.498
20
-111.835
11
180.402
21
-111.93
0
LINE
8
BLACK
6
CONTINUOUS
10
180.402
20
-111.93
11
180.212
21
-112.025
0
LINE
8
BLACK
6
CONTINUOUS
10
180.212
20
-112.025
11
179.926
21
-112.025
0
LINE
8
BLACK
6
CONTINUOUS
10
181.164
20
-110.692
11
181.926
21
-110.692
0
LINE
8
BLACK
6
CONTINUOUS
10
181.45
20
-110.025
11
181.45
21
-111.74
0
LINE
8
BLACK
6
CONTINUOUS
10
181.45
20
-111.74
11
181.545
21
-111.93
0
LINE
8
BLACK
6
CONTINUOUS
10
181.545
20
-111.93
11
181.736
21
-112.025
0
LINE
8
BLACK
6
CONTINUOUS
10
181.736
20
-112.025
11
181.926
21
-112.025
0
LINE
8
BLACK
6
CONTINUOUS
10
183.793
20
-110.692
11
183.793
21
-112.692
0
LINE
8
BLACK
6
CONTINUOUS
10
183.793
20
-110.787
11
183.983
21
-110.692
0
LINE
8
BLACK
6
CONTINUOUS
10
183.983
20
-110.692
11
184.364
21
-110.692
0
LINE
8
BLACK
6
CONTINUOUS
10
184.364
20
-110.692
11
184.555
21
-110.787
0
LINE
8
BLACK
6
CONTINUOUS
10
184.555
20
-110.787
11
184.65
21
-110.883
0
LINE
8
BLACK
6
CONTINUOUS
10
184.65
20
-110.883
11
184.745
21
-111.073
0
LINE
8
BLACK
6
CONTINUOUS
10
184.745
20
-111.073
11
184.745
21
-111.644
0
LINE
8
BLACK
6
CONTINUOUS
10
184.745
20
-111.644
11
184.65
21
-111.835
0
LINE
8
BLACK
6
CONTINUOUS
10
184.65
20
-111.835
11
184.555
21
-111.93
0
LINE
8
BLACK
6
CONTINUOUS
10
184.555
20
-111.93
11
184.364
21
-112.025
0
LINE
8
BLACK
6
CONTINUOUS
10
184.364
20
-112.025
11
183.983
21
-112.025
0
LINE
8
BLACK
6
CONTINUOUS
10
183.983
20
-112.025
11
183.793
21
-111.93
0
LINE
8
BLACK
6
CONTINUOUS
10
185.888
20
-112.025
11
185.698
21
-111.93
0
LINE
8
BLACK
6
CONTINUOUS
10
185.698
20
-111.93
11
185.602
21
-111.74
0
LINE
8
BLACK
6
CONTINUOUS
10
185.602
20
-111.74
11
185.602
21
-110.025
0
LINE
8
BLACK
6
CONTINUOUS
10
187.507
20
-112.025
11
187.507
21
-110.978
0
LINE
8
BLACK
6
CONTINUOUS
10
187.507
20
-110.978
11
187.412
21
-110.787
0
LINE
8
BLACK
6
CONTINUOUS
10
187.412
20
-110.787
11
187.221
21
-110.692
0
LINE
8
BLACK
6
CONTINUOUS
10
187.221
20
-110.692
11
186.84
21
-110.692
0
LINE
8
BLACK
6
CONTINUOUS
10
186.84
20
-110.692
11
186.65
21
-110.787
0
LINE
8
BLACK
6
CONTINUOUS
10
187.507
20
-111.93
11
187.317
21
-112.025
0
LINE
8
BLACK
6
CONTINUOUS
10
187.317
20
-112.025
11
186.84
21
-112.025
0
LINE
8
BLACK
6
CONTINUOUS
10
186.84
20
-112.025
11
186.65
21
-111.93
0
LINE
8
BLACK
6
CONTINUOUS
10
186.65
20
-111.93
11
186.555
21
-111.74
0
LINE
8
BLACK
6
CONTINUOUS
10
186.555
20
-111.74
11
186.555
21
-111.549
0
LINE
8
BLACK
6
CONTINUOUS
10
186.555
20
-111.549
11
186.65
21
-111.359
0
LINE
8
BLACK
6
CONTINUOUS
10
186.65
20
-111.359
11
186.84
21
-111.263
0
LINE
8
BLACK
6
CONTINUOUS
10
186.84
20
-111.263
11
187.317
21
-111.263
0
LINE
8
BLACK
6
CONTINUOUS
10
187.317
20
-111.263
11
187.507
21
-111.168
0
LINE
8
BLACK
6
CONTINUOUS
10
188.174
20
-110.692
11
188.936
21
-110.692
0
LINE
8
BLACK
6
CONTINUOUS
10
188.46
20
-110.025
11
188.46
21
-111.74
0
LINE
8
BLACK
6
CONTINUOUS
10
188.46
20
-111.74
11
188.555
21
-111.93
0
LINE
8
BLACK
6
CONTINUOUS
10
188.555
20
-111.93
11
188.745
21
-112.025
0
LINE
8
BLACK
6
CONTINUOUS
10
188.745
20
-112.025
11
188.936
21
-112.025
0
LINE
8
BLACK
6
CONTINUOUS
10
190.364
20
-111.93
11
190.174
21
-112.025
0
LINE
8
BLACK
6
CONTINUOUS
10
190.174
20
-112.025
11
189.793
21
-112.025
0
LINE
8
BLACK
6
CONTINUOUS
10
189.793
20
-112.025
11
189.602
21
-111.93
0
LINE
8
BLACK
6
CONTINUOUS
10
189.602
20
-111.93
11
189.507
21
-111.74
0
LINE
8
BLACK
6
CONTINUOUS
10
189.507
20
-111.74
11
189.507
21
-110.978
0
LINE
8
BLACK
6
CONTINUOUS
10
189.507
20
-110.978
11
189.602
21
-110.787
0
LINE
8
BLACK
6
CONTINUOUS
10
189.602
20
-110.787
11
189.793
21
-110.692
0
LINE
8
BLACK
6
CONTINUOUS
10
189.793
20
-110.692
11
190.174
21
-110.692
0
LINE
8
BLACK
6
CONTINUOUS
10
190.174
20
-110.692
11
190.364
21
-110.787
0
LINE
8
BLACK
6
CONTINUOUS
10
190.364
20
-110.787
11
190.46
21
-110.978
0
LINE
8
BLACK
6
CONTINUOUS
10
190.46
20
-110.978
11
190.46
21
-111.168
0
LINE
8
BLACK
6
CONTINUOUS
10
190.46
20
-111.168
11
189.507
21
-111.359
0
LINE
8
BLACK
6
CONTINUOUS
10
192.174
20
-112.025
11
192.174
21
-110.025
0
LINE
8
BLACK
6
CONTINUOUS
10
192.174
20
-111.93
11
191.983
21
-112.025
0
LINE
8
BLACK
6
CONTINUOUS
10
191.983
20
-112.025
11
191.602
21
-112.025
0
LINE
8
BLACK
6
CONTINUOUS
10
191.602
20
-112.025
11
191.412
21
-111.93
0
LINE
8
BLACK
6
CONTINUOUS
10
191.412
20
-111.93
11
191.317
21
-111.835
0
LINE
8
BLACK
6
CONTINUOUS
10
191.317
20
-111.835
11
191.221
21
-111.644
0
LINE
8
BLACK
6
CONTINUOUS
10
191.221
20
-111.644
11
191.221
21
-111.073
0
LINE
8
BLACK
6
CONTINUOUS
10
191.221
20
-111.073
11
191.317
21
-110.883
0
LINE
8
BLACK
6
CONTINUOUS
10
191.317
20
-110.883
11
191.412
21
-110.787
0
LINE
8
BLACK
6
CONTINUOUS
10
191.412
20
-110.787
11
191.602
21
-110.692
0
LINE
8
BLACK
6
CONTINUOUS
10
191.602
20
-110.692
11
191.983
21
-110.692
0
LINE
8
BLACK
6
CONTINUOUS
10
191.983
20
-110.692
11
192.174
21
-110.787
0
LINE
8
BLACK
6
CONTINUOUS
10
192.936
20
-112.787
11
193.031
21
-112.692
0
LINE
8
BLACK
6
CONTINUOUS
10
193.031
20
-112.692
11
193.221
21
-112.406
0
LINE
8
BLACK
6
CONTINUOUS
10
193.221
20
-112.406
11
193.317
21
-112.216
0
LINE
8
BLACK
6
CONTINUOUS
10
193.317
20
-112.216
11
193.412
21
-111.93
0
LINE
8
BLACK
6
CONTINUOUS
10
193.412
20
-111.93
11
193.507
21
-111.454
0
LINE
8
BLACK
6
CONTINUOUS
10
193.507
20
-111.454
11
193.507
21
-111.073
0
LINE
8
BLACK
6
CONTINUOUS
10
193.507
20
-111.073
11
193.412
21
-110.597
0
LINE
8
BLACK
6
CONTINUOUS
10
193.412
20
-110.597
11
193.317
21
-110.311
0
LINE
8
BLACK
6
CONTINUOUS
10
193.317
20
-110.311
11
193.221
21
-110.121
0
LINE
8
BLACK
6
CONTINUOUS
10
193.221
20
-110.121
11
193.031
21
-109.835
0
LINE
8
BLACK
6
CONTINUOUS
10
193.031
20
-109.835
11
192.936
21
-109.74
0
CIRCLE
8
BLACK
10
126.45
20
-114.491
40
1
0
LINE
8
BLACK
6
CONTINUOUS
10
129.736
20
-113.225
11
130.974
21
-113.225
0
LINE
8
BLACK
6
CONTINUOUS
10
130.974
20
-113.225
11
130.307
21
-113.987
0
LINE
8
BLACK
6
CONTINUOUS
10
130.307
20
-113.987
11
130.593
21
-113.987
0
LINE
8
BLACK
6
CONTINUOUS
10
130.593
20
-113.987
11
130.783
21
-114.083
0
LINE
8
BLACK
6
CONTINUOUS
10
130.783
20
-114.083
11
130.879
21
-114.178
0
LINE
8
BLACK
6
CONTINUOUS
10
130.879
20
-114.178
11
130.974
21
-114.368
0
LINE
8
BLACK
6
CONTINUOUS
10
130.974
20
-114.368
11
130.974
21
-114.844
0
LINE
8
BLACK
6
CONTINUOUS
10
130.974
20
-114.844
11
130.879
21
-115.035
0
LINE
8
BLACK
6
CONTINUOUS
10
130.879
20
-115.035
11
130.783
21
-115.13
0
LINE
8
BLACK
6
CONTINUOUS
10
130.783
20
-115.13
11
130.593
21
-115.225
0
LINE
8
BLACK
6
CONTINUOUS
10
130.593
20
-115.225
11
130.021
21
-115.225
0
LINE
8
BLACK
6
CONTINUOUS
10
130.021
20
-115.225
11
129.831
21
-115.13
0
LINE
8
BLACK
6
CONTINUOUS
10
129.831
20
-115.13
11
129.736
21
-115.035
0
LINE
8
BLACK
6
CONTINUOUS
10
131.831
20
-115.035
11
131.926
21
-115.13
0
LINE
8
BLACK
6
CONTINUOUS
10
131.926
20
-115.13
11
131.831
21
-115.225
0
LINE
8
BLACK
6
CONTINUOUS
10
131.831
20
-115.225
11
131.736
21
-115.13
0
LINE
8
BLACK
6
CONTINUOUS
10
131.736
20
-115.13
11
131.831
21
-115.035
0
LINE
8
BLACK
6
CONTINUOUS
10
131.831
20
-115.035
11
131.831
21
-115.225
0
LINE
8
BLACK
6
CONTINUOUS
10
133.164
20
-113.225
11
133.355
21
-113.225
0
LINE
8
BLACK
6
CONTINUOUS
10
133.355
20
-113.225
11
133.545
21
-113.321
0
LINE
8
BLACK
6
CONTINUOUS
10
133.545
20
-113.321
11
133.64
21
-113.416
0
LINE
8
BLACK
6
CONTINUOUS
10
133.64
20
-113.416
11
133.736
21
-113.606
0
LINE
8
BLACK
6
CONTINUOUS
10
133.736
20
-113.606
11
133.831
21
-113.987
0
LINE
8
BLACK
6
CONTINUOUS
10
133.831
20
-113.987
11
133.831
21
-114.463
0
LINE
8
BLACK
6
CONTINUOUS
10
133.831
20
-114.463
11
133.736
21
-114.844
0
LINE
8
BLACK
6
CONTINUOUS
10
133.736
20
-114.844
11
133.64
21
-115.035
0
LINE
8
BLACK
6
CONTINUOUS
10
133.64
20
-115.035
11
133.545
21
-115.13
0
LINE
8
BLACK
6
CONTINUOUS
10
133.545
20
-115.13
11
133.355
21
-115.225
0
LINE
8
BLACK
6
CONTINUOUS
10
133.355
20
-115.225
11
133.164
21
-115.225
0
LINE
8
BLACK
6
CONTINUOUS
10
133.164
20
-115.225
11
132.974
21
-115.13
0
LINE
8
BLACK
6
CONTINUOUS
10
132.974
20
-115.13
11
132.879
21
-115.035
0
LINE
8
BLACK
6
CONTINUOUS
10
132.879
20
-115.035
11
132.783
21
-114.844
0
LINE
8
BLACK
6
CONTINUOUS
10
132.783
20
-114.844
11
132.688
21
-114.463
0
LINE
8
BLACK
6
CONTINUOUS
10
132.688
20
-114.463
11
132.688
21
-113.987
0
LINE
8
BLACK
6
CONTINUOUS
10
132.688
20
-113.987
11
132.783
21
-113.606
0
LINE
8
BLACK
6
CONTINUOUS
10
132.783
20
-113.606
11
132.879
21
-113.416
0
LINE
8
BLACK
6
CONTINUOUS
10
132.879
20
-113.416
11
132.974
21
-113.321
0
LINE
8
BLACK
6
CONTINUOUS
10
132.974
20
-113.321
11
133.164
21
-113.225
0
LINE
8
BLACK
6
CONTINUOUS
10
135.069
20
-113.225
11
135.26
21
-113.225
0
LINE
8
BLACK
6
CONTINUOUS
10
135.26
20
-113.225
11
135.45
21
-113.321
0
LINE
8
BLACK
6
CONTINUOUS
10
135.45
20
-113.321
11
135.545
21
-113.416
0
LINE
8
BLACK
6
CONTINUOUS
10
135.545
20
-113.416
11
135.64
21
-113.606
0
LINE
8
BLACK
6
CONTINUOUS
10
135.64
20
-113.606
11
135.736
21
-113.987
0
LINE
8
BLACK
6
CONTINUOUS
10
135.736
20
-113.987
11
135.736
21
-114.463
0
LINE
8
BLACK
6
CONTINUOUS
10
135.736
20
-114.463
11
135.64
21
-114.844
0
LINE
8
BLACK
6
CONTINUOUS
10
135.64
20
-114.844
11
135.545
21
-115.035
0
LINE
8
BLACK
6
CONTINUOUS
10
135.545
20
-115.035
11
135.45
21
-115.13
0
LINE
8
BLACK
6
CONTINUOUS
10
135.45
20
-115.13
11
135.26
21
-115.225
0
LINE
8
BLACK
6
CONTINUOUS
10
135.26
20
-115.225
11
135.069
21
-115.225
0
LINE
8
BLACK
6
CONTINUOUS
10
135.069
20
-115.225
11
134.879
21
-115.13
0
LINE
8
BLACK
6
CONTINUOUS
10
134.879
20
-115.13
11
134.783
21
-115.035
0
LINE
8
BLACK
6
CONTINUOUS
10
134.783
20
-115.035
11
134.688
21
-114.844
0
LINE
8
BLACK
6
CONTINUOUS
10
134.688
20
-114.844
11
134.593
21
-114.463
0
LINE
8
BLACK
6
CONTINUOUS
10
134.593
20
-114.463
11
134.593
21
-113.987
0
LINE
8
BLACK
6
CONTINUOUS
10
134.593
20
-113.987
11
134.688
21
-113.606
0
LINE
8
BLACK
6
CONTINUOUS
10
134.688
20
-113.606
11
134.783
21
-113.416
0
LINE
8
BLACK
6
CONTINUOUS
10
134.783
20
-113.416
11
134.879
21
-113.321
0
LINE
8
BLACK
6
CONTINUOUS
10
134.879
20
-113.321
11
135.069
21
-113.225
0
LINE
8
BLACK
6
CONTINUOUS
10
136.974
20
-113.225
11
137.164
21
-113.225
0
LINE
8
BLACK
6
CONTINUOUS
10
137.164
20
-113.225
11
137.355
21
-113.321
0
LINE
8
BLACK
6
CONTINUOUS
10
137.355
20
-113.321
11
137.45
21
-113.416
0
LINE
8
BLACK
6
CONTINUOUS
10
137.45
20
-113.416
11
137.545
21
-113.606
0
LINE
8
BLACK
6
CONTINUOUS
10
137.545
20
-113.606
11
137.64
21
-113.987
0
LINE
8
BLACK
6
CONTINUOUS
10
137.64
20
-113.987
11
137.64
21
-114.463
0
LINE
8
BLACK
6
CONTINUOUS
10
137.64
20
-114.463
11
137.545
21
-114.844
0
LINE
8
BLACK
6
CONTINUOUS
10
137.545
20
-114.844
11
137.45
21
-115.035
0
LINE
8
BLACK
6
CONTINUOUS
10
137.45
20
-115.035
11
137.355
21
-115.13
0
LINE
8
BLACK
6
CONTINUOUS
10
137.355
20
-115.13
11
137.164
21
-115.225
0
LINE
8
BLACK
6
CONTINUOUS
10
137.164
20
-115.225
11
136.974
21
-115.225
0
LINE
8
BLACK
6
CONTINUOUS
10
136.974
20
-115.225
11
136.783
21
-115.13
0
LINE
8
BLACK
6
CONTINUOUS
10
136.783
20
-115.13
11
136.688
21
-115.035
0
LINE
8
BLACK
6
CONTINUOUS
10
136.688
20
-115.035
11
136.593
21
-114.844
0
LINE
8
BLACK
6
CONTINUOUS
10
136.593
20
-114.844
11
136.498
21
-114.463
0
LINE
8
BLACK
6
CONTINUOUS
10
136.498
20
-114.463
11
136.498
21
-113.987
0
LINE
8
BLACK
6
CONTINUOUS
10
136.498
20
-113.987
11
136.593
21
-113.606
0
LINE
8
BLACK
6
CONTINUOUS
10
136.593
20
-113.606
11
136.688
21
-113.416
0
LINE
8
BLACK
6
CONTINUOUS
10
136.688
20
-113.416
11
136.783
21
-113.321
0
LINE
8
BLACK
6
CONTINUOUS
10
136.783
20
-113.321
11
136.974
21
-113.225
0
LINE
8
BLACK
6
CONTINUOUS
10
138.498
20
-115.225
11
138.498
21
-113.892
0
LINE
8
BLACK
6
CONTINUOUS
10
138.498
20
-114.083
11
138.593
21
-113.987
0
LINE
8
BLACK
6
CONTINUOUS
10
138.593
20
-113.987
11
138.783
21
-113.892
0
LINE
8
BLACK
6
CONTINUOUS
10
138.783
20
-113.892
11
139.069
21
-113.892
0
LINE
8
BLACK
6
CONTINUOUS
10
139.069
20
-113.892
11
139.26
21
-113.987
0
LINE
8
BLACK
6
CONTINUOUS
10
139.26
20
-113.987
11
139.355
21
-114.178
0
LINE
8
BLACK
6
CONTINUOUS
10
139.355
20
-114.178
11
139.355
21
-115.225
0
LINE
8
BLACK
6
CONTINUOUS
10
139.355
20
-114.178
11
139.45
21
-113.987
0
LINE
8
BLACK
6
CONTINUOUS
10
139.45
20
-113.987
11
139.64
21
-113.892
0
LINE
8
BLACK
6
CONTINUOUS
10
139.64
20
-113.892
11
139.926
21
-113.892
0
LINE
8
BLACK
6
CONTINUOUS
10
139.926
20
-113.892
11
140.117
21
-113.987
0
LINE
8
BLACK
6
CONTINUOUS
10
140.117
20
-113.987
11
140.212
21
-114.178
0
LINE
8
BLACK
6
CONTINUOUS
10
140.212
20
-114.178
11
140.212
21
-115.225
0
LINE
8
BLACK
6
CONTINUOUS
10
141.164
20
-115.225
11
141.164
21
-113.892
0
LINE
8
BLACK
6
CONTINUOUS
10
141.164
20
-114.083
11
141.26
21
-113.987
0
LINE
8
BLACK
6
CONTINUOUS
10
141.26
20
-113.987
11
141.45
21
-113.892
0
LINE
8
BLACK
6
CONTINUOUS
10
141.45
20
-113.892
11
141.736
21
-113.892
0
LINE
8
BLACK
6
CONTINUOUS
10
141.736
20
-113.892
11
141.926
21
-113.987
0
LINE
8
BLACK
6
CONTINUOUS
10
141.926
20
-113.987
11
142.021
21
-114.178
0
LINE
8
BLACK
6
CONTINUOUS
10
142.021
20
-114.178
11
142.021
21
-115.225
0
LINE
8
BLACK
6
CONTINUOUS
10
142.021
20
-114.178
11
142.117
21
-113.987
0
LINE
8
BLACK
6
CONTINUOUS
10
142.117
20
-113.987
11
142.307
21
-113.892
0
LINE
8
BLACK
6
CONTINUOUS
10
142.307
20
-113.892
11
142.593
21
-113.892
0
LINE
8
BLACK
6
CONTINUOUS
10
142.593
20
-113.892
11
142.783
21
-113.987
0
LINE
8
BLACK
6
CONTINUOUS
10
142.783
20
-113.987
11
142.879
21
-114.178
0
LINE
8
BLACK
6
CONTINUOUS
10
142.879
20
-114.178
11
142.879
21
-115.225
0
LINE
8
BLACK
6
CONTINUOUS
10
146.46
20
-113.13
11
144.745
21
-115.702
0
LINE
8
BLACK
6
CONTINUOUS
10
148.707
20
-113.225
11
148.898
21
-113.225
0
LINE
8
BLACK
6
CONTINUOUS
10
148.898
20
-113.225
11
149.088
21
-113.321
0
LINE
8
BLACK
6
CONTINUOUS
10
149.088
20
-113.321
11
149.183
21
-113.416
0
LINE
8
BLACK
6
CONTINUOUS
10
149.183
20
-113.416
11
149.279
21
-113.606
0
LINE
8
BLACK
6
CONTINUOUS
10
149.279
20
-113.606
11
149.374
21
-113.987
0
LINE
8
BLACK
6
CONTINUOUS
10
149.374
20
-113.987
11
149.374
21
-114.463
0
LINE
8
BLACK
6
CONTINUOUS
10
149.374
20
-114.463
11
149.279
21
-114.844
0
LINE
8
BLACK
6
CONTINUOUS
10
149.279
20
-114.844
11
149.183
21
-115.035
0
LINE
8
BLACK
6
CONTINUOUS
10
149.183
20
-115.035
11
149.088
21
-115.13
0
LINE
8
BLACK
6
CONTINUOUS
10
149.088
20
-115.13
11
148.898
21
-115.225
0
LINE
8
BLACK
6
CONTINUOUS
10
148.898
20
-115.225
11
148.707
21
-115.225
0
LINE
8
BLACK
6
CONTINUOUS
10
148.707
20
-115.225
11
148.517
21
-115.13
0
LINE
8
BLACK
6
CONTINUOUS
10
148.517
20
-115.13
11
148.421
21
-115.035
0
LINE
8
BLACK
6
CONTINUOUS
10
148.421
20
-115.035
11
148.326
21
-114.844
0
LINE
8
BLACK
6
CONTINUOUS
10
148.326
20
-114.844
11
148.231
21
-114.463
0
LINE
8
BLACK
6
CONTINUOUS
10
148.231
20
-114.463
11
148.231
21
-113.987
0
LINE
8
BLACK
6
CONTINUOUS
10
148.231
20
-113.987
11
148.326
21
-113.606
0
LINE
8
BLACK
6
CONTINUOUS
10
148.326
20
-113.606
11
148.421
21
-113.416
0
LINE
8
BLACK
6
CONTINUOUS
10
148.421
20
-113.416
11
148.517
21
-113.321
0
LINE
8
BLACK
6
CONTINUOUS
10
148.517
20
-113.321
11
148.707
21
-113.225
0
LINE
8
BLACK
6
CONTINUOUS
10
150.231
20
-115.035
11
150.326
21
-115.13
0
LINE
8
BLACK
6
CONTINUOUS
10
150.326
20
-115.13
11
150.231
21
-115.225
0
LINE
8
BLACK
6
CONTINUOUS
10
150.231
20
-115.225
11
150.136
21
-115.13
0
LINE
8
BLACK
6
CONTINUOUS
10
150.136
20
-115.13
11
150.231
21
-115.035
0
LINE
8
BLACK
6
CONTINUOUS
10
150.231
20
-115.035
11
150.231
21
-115.225
0
LINE
8
BLACK
6
CONTINUOUS
10
152.231
20
-115.225
11
151.088
21
-115.225
0
LINE
8
BLACK
6
CONTINUOUS
10
151.66
20
-115.225
11
151.66
21
-113.225
0
LINE
8
BLACK
6
CONTINUOUS
10
151.66
20
-113.225
11
151.469
21
-113.511
0
LINE
8
BLACK
6
CONTINUOUS
10
151.469
20
-113.511
11
151.279
21
-113.702
0
LINE
8
BLACK
6
CONTINUOUS
10
151.279
20
-113.702
11
151.088
21
-113.797
0
LINE
8
BLACK
6
CONTINUOUS
10
154.136
20
-115.225
11
152.993
21
-115.225
0
LINE
8
BLACK
6
CONTINUOUS
10
153.564
20
-115.225
11
153.564
21
-113.225
0
LINE
8
BLACK
6
CONTINUOUS
10
153.564
20
-113.225
11
153.374
21
-113.511
0
LINE
8
BLACK
6
CONTINUOUS
10
153.374
20
-113.511
11
153.183
21
-113.702
0
LINE
8
BLACK
6
CONTINUOUS
10
153.183
20
-113.702
11
152.993
21
-113.797
0
LINE
8
BLACK
6
CONTINUOUS
10
155.279
20
-114.083
11
155.088
21
-113.987
0
LINE
8
BLACK
6
CONTINUOUS
10
155.088
20
-113.987
11
154.993
21
-113.892
0
LINE
8
BLACK
6
CONTINUOUS
10
154.993
20
-113.892
11
154.898
21
-113.702
0
LINE
8
BLACK
6
CONTINUOUS
10
154.898
20
-113.702
11
154.898
21
-113.606
0
LINE
8
BLACK
6
CONTINUOUS
10
154.898
20
-113.606
11
154.993
21
-113.416
0
LINE
8
BLACK
6
CONTINUOUS
10
154.993
20
-113.416
11
155.088
21
-113.321
0
LINE
8
BLACK
6
CONTINUOUS
10
155.088
20
-113.321
11
155.279
21
-113.225
0
LINE
8
BLACK
6
CONTINUOUS
10
155.279
20
-113.225
11
155.66
21
-113.225
0
LINE
8
BLACK
6
CONTINUOUS
10
155.66
20
-113.225
11
155.85
21
-113.321
0
LINE
8
BLACK
6
CONTINUOUS
10
155.85
20
-113.321
11
155.945
21
-113.416
0
LINE
8
BLACK
6
CONTINUOUS
10
155.945
20
-113.416
11
156.04
21
-113.606
0
LINE
8
BLACK
6
CONTINUOUS
10
156.04
20
-113.606
11
156.04
21
-113.702
0
LINE
8
BLACK
6
CONTINUOUS
10
156.04
20
-113.702
11
155.945
21
-113.892
0
LINE
8
BLACK
6
CONTINUOUS
10
155.945
20
-113.892
11
155.85
21
-113.987
0
LINE
8
BLACK
6
CONTINUOUS
10
155.85
20
-113.987
11
155.66
21
-114.083
0
LINE
8
BLACK
6
CONTINUOUS
10
155.66
20
-114.083
11
155.279
21
-114.083
0
LINE
8
BLACK
6
CONTINUOUS
10
155.279
20
-114.083
11
155.088
21
-114.178
0
LINE
8
BLACK
6
CONTINUOUS
10
155.088
20
-114.178
11
154.993
21
-114.273
0
LINE
8
BLACK
6
CONTINUOUS
10
154.993
20
-114.273
11
154.898
21
-114.463
0
LINE
8
BLACK
6
CONTINUOUS
10
154.898
20
-114.463
11
154.898
21
-114.844
0
LINE
8
BLACK
6
CONTINUOUS
10
154.898
20
-114.844
11
154.993
21
-115.035
0
LINE
8
BLACK
6
CONTINUOUS
10
154.993
20
-115.035
11
155.088
21
-115.13
0
LINE
8
BLACK
6
CONTINUOUS
10
155.088
20
-115.13
11
155.279
21
-115.225
0
LINE
8
BLACK
6
CONTINUOUS
10
155.279
20
-115.225
11
155.66
21
-115.225
0
LINE
8
BLACK
6
CONTINUOUS
10
155.66
20
-115.225
11
155.85
21
-115.13
0
LINE
8
BLACK
6
CONTINUOUS
10
155.85
20
-115.13
11
155.945
21
-115.035
0
LINE
8
BLACK
6
CONTINUOUS
10
155.945
20
-115.035
11
156.04
21
-114.844
0
LINE
8
BLACK
6
CONTINUOUS
10
156.04
20
-114.844
11
156.04
21
-114.463
0
LINE
8
BLACK
6
CONTINUOUS
10
156.04
20
-114.463
11
155.945
21
-114.273
0
LINE
8
BLACK
6
CONTINUOUS
10
155.945
20
-114.273
11
155.85
21
-114.178
0
LINE
8
BLACK
6
CONTINUOUS
10
155.85
20
-114.178
11
155.66
21
-114.083
0
LINE
8
BLACK
6
CONTINUOUS
10
157.945
20
-115.225
11
156.802
21
-115.225
0
LINE
8
BLACK
6
CONTINUOUS
10
157.374
20
-115.225
11
157.374
21
-113.225
0
LINE
8
BLACK
6
CONTINUOUS
10
157.374
20
-113.225
11
157.183
21
-113.511
0
LINE
8
BLACK
6
CONTINUOUS
10
157.183
20
-113.511
11
156.993
21
-113.702
0
LINE
8
BLACK
6
CONTINUOUS
10
156.993
20
-113.702
11
156.802
21
-113.797
0
LINE
8
BLACK
6
CONTINUOUS
10
158.707
20
-113.225
11
158.707
21
-113.606
0
LINE
8
BLACK
6
CONTINUOUS
10
159.469
20
-113.225
11
159.469
21
-113.606
0
LINE
8
BLACK
6
CONTINUOUS
10
162.098
20
-115.987
11
162.002
21
-115.892
0
LINE
8
BLACK
6
CONTINUOUS
10
162.002
20
-115.892
11
161.812
21
-115.606
0
LINE
8
BLACK
6
CONTINUOUS
10
161.812
20
-115.606
11
161.717
21
-115.416
0
LINE
8
BLACK
6
CONTINUOUS
10
161.717
20
-115.416
11
161.621
21
-115.13
0
LINE
8
BLACK
6
CONTINUOUS
10
161.621
20
-115.13
11
161.526
21
-114.654
0
LINE
8
BLACK
6
CONTINUOUS
10
161.526
20
-114.654
11
161.526
21
-114.273
0
LINE
8
BLACK
6
CONTINUOUS
10
161.526
20
-114.273
11
161.621
21
-113.797
0
LINE
8
BLACK
6
CONTINUOUS
10
161.621
20
-113.797
11
161.717
21
-113.511
0
LINE
8
BLACK
6
CONTINUOUS
10
161.717
20
-113.511
11
161.812
21
-113.321
0
LINE
8
BLACK
6
CONTINUOUS
10
161.812
20
-113.321
11
162.002
21
-113.035
0
LINE
8
BLACK
6
CONTINUOUS
10
162.002
20
-113.035
11
162.098
21
-112.94
0
LINE
8
BLACK
6
CONTINUOUS
10
162.764
20
-113.416
11
162.86
21
-113.321
0
LINE
8
BLACK
6
CONTINUOUS
10
162.86
20
-113.321
11
163.05
21
-113.225
0
LINE
8
BLACK
6
CONTINUOUS
10
163.05
20
-113.225
11
163.526
21
-113.225
0
LINE
8
BLACK
6
CONTINUOUS
10
163.526
20
-113.225
11
163.717
21
-113.321
0
LINE
8
BLACK
6
CONTINUOUS
10
163.717
20
-113.321
11
163.812
21
-113.416
0
LINE
8
BLACK
6
CONTINUOUS
10
163.812
20
-113.416
11
163.907
21
-113.606
0
LINE
8
BLACK
6
CONTINUOUS
10
163.907
20
-113.606
11
163.907
21
-113.797
0
LINE
8
BLACK
6
CONTINUOUS
10
163.907
20
-113.797
11
163.812
21
-114.083
0
LINE
8
BLACK
6
CONTINUOUS
10
163.812
20
-114.083
11
162.669
21
-115.225
0
LINE
8
BLACK
6
CONTINUOUS
10
162.669
20
-115.225
11
163.907
21
-115.225
0
LINE
8
BLACK
6
CONTINUOUS
10
165.964
20
-115.225
11
165.964
21
-113.225
0
LINE
8
BLACK
6
CONTINUOUS
10
166.821
20
-115.225
11
166.821
21
-114.178
0
LINE
8
BLACK
6
CONTINUOUS
10
166.821
20
-114.178
11
166.726
21
-113.987
0
LINE
8
BLACK
6
CONTINUOUS
10
166.726
20
-113.987
11
166.536
21
-113.892
0
LINE
8
BLACK
6
CONTINUOUS
10
166.536
20
-113.892
11
166.25
21
-113.892
0
LINE
8
BLACK
6
CONTINUOUS
10
166.25
20
-113.892
11
166.06
21
-113.987
0
LINE
8
BLACK
6
CONTINUOUS
10
166.06
20
-113.987
11
165.964
21
-114.083
0
LINE
8
BLACK
6
CONTINUOUS
10
168.06
20
-115.225
11
167.869
21
-115.13
0
LINE
8
BLACK
6
CONTINUOUS
10
167.869
20
-115.13
11
167.774
21
-115.035
0
LINE
8
BLACK
6
CONTINUOUS
10
167.774
20
-115.035
11
167.679
21
-114.844
0
LINE
8
BLACK
6
CONTINUOUS
10
167.679
20
-114.844
11
167.679
21
-114.273
0
LINE
8
BLACK
6
CONTINUOUS
10
167.679
20
-114.273
11
167.774
21
-114.083
0
LINE
8
BLACK
6
CONTINUOUS
10
167.774
20
-114.083
11
167.869
21
-113.987
0
LINE
8
BLACK
6
CONTINUOUS
10
167.869
20
-113.987
11
168.06
21
-113.892
0
LINE
8
BLACK
6
CONTINUOUS
10
168.06
20
-113.892
11
168.345
21
-113.892
0
LINE
8
BLACK
6
CONTINUOUS
10
168.345
20
-113.892
11
168.536
21
-113.987
0
LINE
8
BLACK
6
CONTINUOUS
10
168.536
20
-113.987
11
168.631
21
-114.083
0
LINE
8
BLACK
6
CONTINUOUS
10
168.631
20
-114.083
11
168.726
21
-114.273
0
LINE
8
BLACK
6
CONTINUOUS
10
168.726
20
-114.273
11
168.726
21
-114.844
0
LINE
8
BLACK
6
CONTINUOUS
10
168.726
20
-114.844
11
168.631
21
-115.035
0
LINE
8
BLACK
6
CONTINUOUS
10
168.631
20
-115.035
11
168.536
21
-115.13
0
LINE
8
BLACK
6
CONTINUOUS
10
168.536
20
-115.13
11
168.345
21
-115.225
0
LINE
8
BLACK
6
CONTINUOUS
10
168.345
20
-115.225
11
168.06
21
-115.225
0
LINE
8
BLACK
6
CONTINUOUS
10
169.869
20
-115.225
11
169.679
21
-115.13
0
LINE
8
BLACK
6
CONTINUOUS
10
169.679
20
-115.13
11
169.583
21
-114.94
0
LINE
8
BLACK
6
CONTINUOUS
10
169.583
20
-114.94
11
169.583
21
-113.225
0
LINE
8
BLACK
6
CONTINUOUS
10
171.393
20
-115.13
11
171.202
21
-115.225
0
LINE
8
BLACK
6
CONTINUOUS
10
171.202
20
-115.225
11
170.821
21
-115.225
0
LINE
8
BLACK
6
CONTINUOUS
10
170.821
20
-115.225
11
170.631
21
-115.13
0
LINE
8
BLACK
6
CONTINUOUS
10
170.631
20
-115.13
11
170.536
21
-114.94
0
LINE
8
BLACK
6
CONTINUOUS
10
170.536
20
-114.94
11
170.536
21
-114.178
0
LINE
8
BLACK
6
CONTINUOUS
10
170.536
20
-114.178
11
170.631
21
-113.987
0
LINE
8
BLACK
6
CONTINUOUS
10
170.631
20
-113.987
11
170.821
21
-113.892
0
LINE
8
BLACK
6
CONTINUOUS
10
170.821
20
-113.892
11
171.202
21
-113.892
0
LINE
8
BLACK
6
CONTINUOUS
10
171.202
20
-113.892
11
171.393
21
-113.987
0
LINE
8
BLACK
6
CONTINUOUS
10
171.393
20
-113.987
11
171.488
21
-114.178
0
LINE
8
BLACK
6
CONTINUOUS
10
171.488
20
-114.178
11
171.488
21
-114.368
0
LINE
8
BLACK
6
CONTINUOUS
10
171.488
20
-114.368
11
170.536
21
-114.559
0
LINE
8
BLACK
6
CONTINUOUS
10
172.25
20
-115.13
11
172.44
21
-115.225
0
LINE
8
BLACK
6
CONTINUOUS
10
172.44
20
-115.225
11
172.821
21
-115.225
0
LINE
8
BLACK
6
CONTINUOUS
10
172.821
20
-115.225
11
173.012
21
-115.13
0
LINE
8
BLACK
6
CONTINUOUS
10
173.012
20
-115.13
11
173.107
21
-114.94
0
LINE
8
BLACK
6
CONTINUOUS
10
173.107
20
-114.94
11
173.107
21
-114.844
0
LINE
8
BLACK
6
CONTINUOUS
10
173.107
20
-114.844
11
173.012
21
-114.654
0
LINE
8
BLACK
6
CONTINUOUS
10
173.012
20
-114.654
11
172.821
21
-114.559
0
LINE
8
BLACK
6
CONTINUOUS
10
172.821
20
-114.559
11
172.536
21
-114.559
0
LINE
8
BLACK
6
CONTINUOUS
10
172.536
20
-114.559
11
172.345
21
-114.463
0
LINE
8
BLACK
6
CONTINUOUS
10
172.345
20
-114.463
11
172.25
21
-114.273
0
LINE
8
BLACK
6
CONTINUOUS
10
172.25
20
-114.273
11
172.25
21
-114.178
0
LINE
8
BLACK
6
CONTINUOUS
10
172.25
20
-114.178
11
172.345
21
-113.987
0
LINE
8
BLACK
6
CONTINUOUS
10
172.345
20
-113.987
11
172.536
21
-113.892
0
LINE
8
BLACK
6
CONTINUOUS
10
172.536
20
-113.892
11
172.821
21
-113.892
0
LINE
8
BLACK
6
CONTINUOUS
10
172.821
20
-113.892
11
173.012
21
-113.987
0
LINE
8
BLACK
6
CONTINUOUS
10
173.774
20
-115.987
11
173.869
21
-115.892
0
LINE
8
BLACK
6
CONTINUOUS
10
173.869
20
-115.892
11
174.06
21
-115.606
0
LINE
8
BLACK
6
CONTINUOUS
10
174.06
20
-115.606
11
174.155
21
-115.416
0
LINE
8
BLACK
6
CONTINUOUS
10
174.155
20
-115.416
11
174.25
21
-115.13
0
LINE
8
BLACK
6
CONTINUOUS
10
174.25
20
-115.13
11
174.345
21
-114.654
0
LINE
8
BLACK
6
CONTINUOUS
10
174.345
20
-114.654
11
174.345
21
-114.273
0
LINE
8
BLACK
6
CONTINUOUS
10
174.345
20
-114.273
11
174.25
21
-113.797
0
LINE
8
BLACK
6
CONTINUOUS
10
174.25
20
-113.797
11
174.155
21
-113.511
0
LINE
8
BLACK
6
CONTINUOUS
10
174.155
20
-113.511
11
174.06
21
-113.321
0
LINE
8
BLACK
6
CONTINUOUS
10
174.06
20
-113.321
11
173.869
21
-113.035
0
LINE
8
BLACK
6
CONTINUOUS
10
173.869
20
-113.035
11
173.774
21
-112.94
0
LINE
8
BLACK
6
CONTINUOUS
10
177.069
20
-115.987
11
176.974
21
-115.892
0
LINE
8
BLACK
6
CONTINUOUS
10
176.974
20
-115.892
11
176.783
21
-115.606
0
LINE
8
BLACK
6
CONTINUOUS
10
176.783
20
-115.606
11
176.688
21
-115.416
0
LINE
8
BLACK
6
CONTINUOUS
10
176.688
20
-115.416
11
176.593
21
-115.13
0
LINE
8
BLACK
6
CONTINUOUS
10
176.593
20
-115.13
11
176.498
21
-114.654
0
LINE
8
BLACK
6
CONTINUOUS
10
176.498
20
-114.654
11
176.498
21
-114.273
0
LINE
8
BLACK
6
CONTINUOUS
10
176.498
20
-114.273
11
176.593
21
-113.797
0
LINE
8
BLACK
6
CONTINUOUS
10
176.593
20
-113.797
11
176.688
21
-113.511
0
LINE
8
BLACK
6
CONTINUOUS
10
176.688
20
-113.511
11
176.783
21
-113.321
0
LINE
8
BLACK
6
CONTINUOUS
10
176.783
20
-113.321
11
176.974
21
-113.035
0
LINE
8
BLACK
6
CONTINUOUS
10
176.974
20
-113.035
11
177.069
21
-112.94
0
LINE
8
BLACK
6
CONTINUOUS
10
177.831
20
-113.892
11
177.831
21
-115.225
0
LINE
8
BLACK
6
CONTINUOUS
10
177.831
20
-114.083
11
177.926
21
-113.987
0
LINE
8
BLACK
6
CONTINUOUS
10
177.926
20
-113.987
11
178.117
21
-113.892
0
LINE
8
BLACK
6
CONTINUOUS
10
178.117
20
-113.892
11
178.402
21
-113.892
0
LINE
8
BLACK
6
CONTINUOUS
10
178.402
20
-113.892
11
178.593
21
-113.987
0
LINE
8
BLACK
6
CONTINUOUS
10
178.593
20
-113.987
11
178.688
21
-114.178
0
LINE
8
BLACK
6
CONTINUOUS
10
178.688
20
-114.178
11
178.688
21
-115.225
0
LINE
8
BLACK
6
CONTINUOUS
10
179.926
20
-115.225
11
179.736
21
-115.13
0
LINE
8
BLACK
6
CONTINUOUS
10
179.736
20
-115.13
11
179.64
21
-115.035
0
LINE
8
BLACK
6
CONTINUOUS
10
179.64
20
-115.035
11
179.545
21
-114.844
0
LINE
8
BLACK
6
CONTINUOUS
10
179.545
20
-114.844
11
179.545
21
-114.273
0
LINE
8
BLACK
6
CONTINUOUS
10
179.545
20
-114.273
11
179.64
21
-114.083
0
LINE
8
BLACK
6
CONTINUOUS
10
179.64
20
-114.083
11
179.736
21
-113.987
0
LINE
8
BLACK
6
CONTINUOUS
10
179.736
20
-113.987
11
179.926
21
-113.892
0
LINE
8
BLACK
6
CONTINUOUS
10
179.926
20
-113.892
11
180.212
21
-113.892
0
LINE
8
BLACK
6
CONTINUOUS
10
180.212
20
-113.892
11
180.402
21
-113.987
0
LINE
8
BLACK
6
CONTINUOUS
10
180.402
20
-113.987
11
180.498
21
-114.083
0
LINE
8
BLACK
6
CONTINUOUS
10
180.498
20
-114.083
11
180.593
21
-114.273
0
LINE
8
BLACK
6
CONTINUOUS
10
180.593
20
-114.273
11
180.593
21
-114.844
0
LINE
8
BLACK
6
CONTINUOUS
10
180.593
20
-114.844
11
180.498
21
-115.035
0
LINE
8
BLACK
6
CONTINUOUS
10
180.498
20
-115.035
11
180.402
21
-115.13
0
LINE
8
BLACK
6
CONTINUOUS
10
180.402
20
-115.13
11
180.212
21
-115.225
0
LINE
8
BLACK
6
CONTINUOUS
10
180.212
20
-115.225
11
179.926
21
-115.225
0
LINE
8
BLACK
6
CONTINUOUS
10
181.164
20
-113.892
11
181.926
21
-113.892
0
LINE
8
BLACK
6
CONTINUOUS
10
181.45
20
-113.225
11
181.45
21
-114.94
0
LINE
8
BLACK
6
CONTINUOUS
10
181.45
20
-114.94
11
181.545
21
-115.13
0
LINE
8
BLACK
6
CONTINUOUS
10
181.545
20
-115.13
11
181.736
21
-115.225
0
LINE
8
BLACK
6
CONTINUOUS
10
181.736
20
-115.225
11
181.926
21
-115.225
0
LINE
8
BLACK
6
CONTINUOUS
10
183.793
20
-113.892
11
183.793
21
-115.892
0
LINE
8
BLACK
6
CONTINUOUS
10
183.793
20
-113.987
11
183.983
21
-113.892
0
LINE
8
BLACK
6
CONTINUOUS
10
183.983
20
-113.892
11
184.364
21
-113.892
0
LINE
8
BLACK
6
CONTINUOUS
10
184.364
20
-113.892
11
184.555
21
-113.987
0
LINE
8
BLACK
6
CONTINUOUS
10
184.555
20
-113.987
11
184.65
21
-114.083
0
LINE
8
BLACK
6
CONTINUOUS
10
184.65
20
-114.083
11
184.745
21
-114.273
0
LINE
8
BLACK
6
CONTINUOUS
10
184.745
20
-114.273
11
184.745
21
-114.844
0
LINE
8
BLACK
6
CONTINUOUS
10
184.745
20
-114.844
11
184.65
21
-115.035
0
LINE
8
BLACK
6
CONTINUOUS
10
184.65
20
-115.035
11
184.555
21
-115.13
0
LINE
8
BLACK
6
CONTINUOUS
10
184.555
20
-115.13
11
184.364
21
-115.225
0
LINE
8
BLACK
6
CONTINUOUS
10
184.364
20
-115.225
11
183.983
21
-115.225
0
LINE
8
BLACK
6
CONTINUOUS
10
183.983
20
-115.225
11
183.793
21
-115.13
0
LINE
8
BLACK
6
CONTINUOUS
10
185.888
20
-115.225
11
185.698
21
-115.13
0
LINE
8
BLACK
6
CONTINUOUS
10
185.698
20
-115.13
11
185.602
21
-114.94
0
LINE
8
BLACK
6
CONTINUOUS
10
185.602
20
-114.94
11
185.602
21
-113.225
0
LINE
8
BLACK
6
CONTINUOUS
10
187.507
20
-115.225
11
187.507
21
-114.178
0
LINE
8
BLACK
6
CONTINUOUS
10
187.507
20
-114.178
11
187.412
21
-113.987
0
LINE
8
BLACK
6
CONTINUOUS
10
187.412
20
-113.987
11
187.221
21
-113.892
0
LINE
8
BLACK
6
CONTINUOUS
10
187.221
20
-113.892
11
186.84
21
-113.892
0
LINE
8
BLACK
6
CONTINUOUS
10
186.84
20
-113.892
11
186.65
21
-113.987
0
LINE
8
BLACK
6
CONTINUOUS
10
187.507
20
-115.13
11
187.317
21
-115.225
0
LINE
8
BLACK
6
CONTINUOUS
10
187.317
20
-115.225
11
186.84
21
-115.225
0
LINE
8
BLACK
6
CONTINUOUS
10
186.84
20
-115.225
11
186.65
21
-115.13
0
LINE
8
BLACK
6
CONTINUOUS
10
186.65
20
-115.13
11
186.555
21
-114.94
0
LINE
8
BLACK
6
CONTINUOUS
10
186.555
20
-114.94
11
186.555
21
-114.749
0
LINE
8
BLACK
6
CONTINUOUS
10
186.555
20
-114.749
11
186.65
21
-114.559
0
LINE
8
BLACK
6
CONTINUOUS
10
186.65
20
-114.559
11
186.84
21
-114.463
0
LINE
8
BLACK
6
CONTINUOUS
10
186.84
20
-114.463
11
187.317
21
-114.463
0
LINE
8
BLACK
6
CONTINUOUS
10
187.317
20
-114.463
11
187.507
21
-114.368
0
LINE
8
BLACK
6
CONTINUOUS
10
188.174
20
-113.892
11
188.936
21
-113.892
0
LINE
8
BLACK
6
CONTINUOUS
10
188.46
20
-113.225
11
188.46
21
-114.94
0
LINE
8
BLACK
6
CONTINUOUS
10
188.46
20
-114.94
11
188.555
21
-115.13
0
LINE
8
BLACK
6
CONTINUOUS
10
188.555
20
-115.13
11
188.745
21
-115.225
0
LINE
8
BLACK
6
CONTINUOUS
10
188.745
20
-115.225
11
188.936
21
-115.225
0
LINE
8
BLACK
6
CONTINUOUS
10
190.364
20
-115.13
11
190.174
21
-115.225
0
LINE
8
BLACK
6
CONTINUOUS
10
190.174
20
-115.225
11
189.793
21
-115.225
0
LINE
8
BLACK
6
CONTINUOUS
10
189.793
20
-115.225
11
189.602
21
-115.13
0
LINE
8
BLACK
6
CONTINUOUS
10
189.602
20
-115.13
11
189.507
21
-114.94
0
LINE
8
BLACK
6
CONTINUOUS
10
189.507
20
-114.94
11
189.507
21
-114.178
0
LINE
8
BLACK
6
CONTINUOUS
10
189.507
20
-114.178
11
189.602
21
-113.987
0
LINE
8
BLACK
6
CONTINUOUS
10
189.602
20
-113.987
11
189.793
21
-113.892
0
LINE
8
BLACK
6
CONTINUOUS
10
189.793
20
-113.892
11
190.174
21
-113.892
0
LINE
8
BLACK
6
CONTINUOUS
10
190.174
20
-113.892
11
190.364
21
-113.987
0
LINE
8
BLACK
6
CONTINUOUS
10
190.364
20
-113.987
11
190.46
21
-114.178
0
LINE
8
BLACK
6
CONTINUOUS
10
190.46
20
-114.178
11
190.46
21
-114.368
0
LINE
8
BLACK
6
CONTINUOUS
10
190.46
20
-114.368
11
189.507
21
-114.559
0
LINE
8
BLACK
6
CONTINUOUS
10
192.174
20
-115.225
11
192.174
21
-113.225
0
LINE
8
BLACK
6
CONTINUOUS
10
192.174
20
-115.13
11
191.983
21
-115.225
0
LINE
8
BLACK
6
CONTINUOUS
10
191.983
20
-115.225
11
191.602
21
-115.225
0
LINE
8
BLACK
6
CONTINUOUS
10
191.602
20
-115.225
11
191.412
21
-115.13
0
LINE
8
BLACK
6
CONTINUOUS
10
191.412
20
-115.13
11
191.317
21
-115.035
0
LINE
8
BLACK
6
CONTINUOUS
10
191.317
20
-115.035
11
191.221
21
-114.844
0
LINE
8
BLACK
6
CONTINUOUS
10
191.221
20
-114.844
11
191.221
21
-114.273
0
LINE
8
BLACK
6
CONTINUOUS
10
191.221
20
-114.273
11
191.317
21
-114.083
0
LINE
8
BLACK
6
CONTINUOUS
10
191.317
20
-114.083
11
191.412
21
-113.987
0
LINE
8
BLACK
6
CONTINUOUS
10
191.412
20
-113.987
11
191.602
21
-113.892
0
LINE
8
BLACK
6
CONTINUOUS
10
191.602
20
-113.892
11
191.983
21
-113.892
0
LINE
8
BLACK
6
CONTINUOUS
10
191.983
20
-113.892
11
192.174
21
-113.987
0
LINE
8
BLACK
6
CONTINUOUS
10
192.936
20
-115.987
11
193.031
21
-115.892
0
LINE
8
BLACK
6
CONTINUOUS
10
193.031
20
-115.892
11
193.221
21
-115.606
0
LINE
8
BLACK
6
CONTINUOUS
10
193.221
20
-115.606
11
193.317
21
-115.416
0
LINE
8
BLACK
6
CONTINUOUS
10
193.317
20
-115.416
11
193.412
21
-115.13
0
LINE
8
BLACK
6
CONTINUOUS
10
193.412
20
-115.13
11
193.507
21
-114.654
0
LINE
8
BLACK
6
CONTINUOUS
10
193.507
20
-114.654
11
193.507
21
-114.273
0
LINE
8
BLACK
6
CONTINUOUS
10
193.507
20
-114.273
11
193.412
21
-113.797
0
LINE
8
BLACK
6
CONTINUOUS
10
193.412
20
-113.797
11
193.317
21
-113.511
0
LINE
8
BLACK
6
CONTINUOUS
10
193.317
20
-113.511
11
193.221
21
-113.321
0
LINE
8
BLACK
6
CONTINUOUS
10
193.221
20
-113.321
11
193.031
21
-113.035
0
LINE
8
BLACK
6
CONTINUOUS
10
193.031
20
-113.035
11
192.936
21
-112.94
0
LINE
8
BLACK
6
CONTINUOUS
10
126.45
20
-116.691
11
126.45
21
-118.691
0
LINE
8
BLACK
6
CONTINUOUS
10
125.45
20
-117.691
11
127.45
21
-117.691
0
LINE
8
BLACK
6
CONTINUOUS
10
129.736
20
-116.425
11
130.974
21
-116.425
0
LINE
8
BLACK
6
CONTINUOUS
10
130.974
20
-116.425
11
130.307
21
-117.187
0
LINE
8
BLACK
6
CONTINUOUS
10
130.307
20
-117.187
11
130.593
21
-117.187
0
LINE
8
BLACK
6
CONTINUOUS
10
130.593
20
-117.187
11
130.783
21
-117.283
0
LINE
8
BLACK
6
CONTINUOUS
10
130.783
20
-117.283
11
130.879
21
-117.378
0
LINE
8
BLACK
6
CONTINUOUS
10
130.879
20
-117.378
11
130.974
21
-117.568
0
LINE
8
BLACK
6
CONTINUOUS
10
130.974
20
-117.568
11
130.974
21
-118.044
0
LINE
8
BLACK
6
CONTINUOUS
10
130.974
20
-118.044
11
130.879
21
-118.235
0
LINE
8
BLACK
6
CONTINUOUS
10
130.879
20
-118.235
11
130.783
21
-118.33
0
LINE
8
BLACK
6
CONTINUOUS
10
130.783
20
-118.33
11
130.593
21
-118.425
0
LINE
8
BLACK
6
CONTINUOUS
10
130.593
20
-118.425
11
130.021
21
-118.425
0
LINE
8
BLACK
6
CONTINUOUS
10
130.021
20
-118.425
11
129.831
21
-118.33
0
LINE
8
BLACK
6
CONTINUOUS
10
129.831
20
-118.33
11
129.736
21
-118.235
0
LINE
8
BLACK
6
CONTINUOUS
10
131.831
20
-118.235
11
131.926
21
-118.33
0
LINE
8
BLACK
6
CONTINUOUS
10
131.926
20
-118.33
11
131.831
21
-118.425
0
LINE
8
BLACK
6
CONTINUOUS
10
131.831
20
-118.425
11
131.736
21
-118.33
0
LINE
8
BLACK
6
CONTINUOUS
10
131.736
20
-118.33
11
131.831
21
-118.235
0
LINE
8
BLACK
6
CONTINUOUS
10
131.831
20
-118.235
11
131.831
21
-118.425
0
LINE
8
BLACK
6
CONTINUOUS
10
132.688
20
-116.616
11
132.783
21
-116.521
0
LINE
8
BLACK
6
CONTINUOUS
10
132.783
20
-116.521
11
132.974
21
-116.425
0
LINE
8
BLACK
6
CONTINUOUS
10
132.974
20
-116.425
11
133.45
21
-116.425
0
LINE
8
BLACK
6
CONTINUOUS
10
133.45
20
-116.425
11
133.64
21
-116.521
0
LINE
8
BLACK
6
CONTINUOUS
10
133.64
20
-116.521
11
133.736
21
-116.616
0
LINE
8
BLACK
6
CONTINUOUS
10
133.736
20
-116.616
11
133.831
21
-116.806
0
LINE
8
BLACK
6
CONTINUOUS
10
133.831
20
-116.806
11
133.831
21
-116.997
0
LINE
8
BLACK
6
CONTINUOUS
10
133.831
20
-116.997
11
133.736
21
-117.283
0
LINE
8
BLACK
6
CONTINUOUS
10
133.736
20
-117.283
11
132.593
21
-118.425
0
LINE
8
BLACK
6
CONTINUOUS
10
132.593
20
-118.425
11
133.831
21
-118.425
0
LINE
8
BLACK
6
CONTINUOUS
10
135.64
20
-116.425
11
134.688
21
-116.425
0
LINE
8
BLACK
6
CONTINUOUS
10
134.688
20
-116.425
11
134.593
21
-117.378
0
LINE
8
BLACK
6
CONTINUOUS
10
134.593
20
-117.378
11
134.688
21
-117.283
0
LINE
8
BLACK
6
CONTINUOUS
10
134.688
20
-117.283
11
134.879
21
-117.187
0
LINE
8
BLACK
6
CONTINUOUS
10
134.879
20
-117.187
11
135.355
21
-117.187
0
LINE
8
BLACK
6
CONTINUOUS
10
135.355
20
-117.187
11
135.545
21
-117.283
0
LINE
8
BLACK
6
CONTINUOUS
10
135.545
20
-117.283
11
135.64
21
-117.378
0
LINE
8
BLACK
6
CONTINUOUS
10
135.64
20
-117.378
11
135.736
21
-117.568
0
LINE
8
BLACK
6
CONTINUOUS
10
135.736
20
-117.568
11
135.736
21
-118.044
0
LINE
8
BLACK
6
CONTINUOUS
10
135.736
20
-118.044
11
135.64
21
-118.235
0
LINE
8
BLACK
6
CONTINUOUS
10
135.64
20
-118.235
11
135.545
21
-118.33
0
LINE
8
BLACK
6
CONTINUOUS
10
135.545
20
-118.33
11
135.355
21
-118.425
0
LINE
8
BLACK
6
CONTINUOUS
10
135.355
20
-118.425
11
134.879
21
-118.425
0
LINE
8
BLACK
6
CONTINUOUS
10
134.879
20
-118.425
11
134.688
21
-118.33
0
LINE
8
BLACK
6
CONTINUOUS
10
134.688
20
-118.33
11
134.593
21
-118.235
0
LINE
8
BLACK
6
CONTINUOUS
10
136.974
20
-116.425
11
137.164
21
-116.425
0
LINE
8
BLACK
6
CONTINUOUS
10
137.164
20
-116.425
11
137.355
21
-116.521
0
LINE
8
BLACK
6
CONTINUOUS
10
137.355
20
-116.521
11
137.45
21
-116.616
0
LINE
8
BLACK
6
CONTINUOUS
10
137.45
20
-116.616
11
137.545
21
-116.806
0
LINE
8
BLACK
6
CONTINUOUS
10
137.545
20
-116.806
11
137.64
21
-117.187
0
LINE
8
BLACK
6
CONTINUOUS
10
137.64
20
-117.187
11
137.64
21
-117.663
0
LINE
8
BLACK
6
CONTINUOUS
10
137.64
20
-117.663
11
137.545
21
-118.044
0
LINE
8
BLACK
6
CONTINUOUS
10
137.545
20
-118.044
11
137.45
21
-118.235
0
LINE
8
BLACK
6
CONTINUOUS
10
137.45
20
-118.235
11
137.355
21
-118.33
0
LINE
8
BLACK
6
CONTINUOUS
10
137.355
20
-118.33
11
137.164
21
-118.425
0
LINE
8
BLACK
6
CONTINUOUS
10
137.164
20
-118.425
11
136.974
21
-118.425
0
LINE
8
BLACK
6
CONTINUOUS
10
136.974
20
-118.425
11
136.783
21
-118.33
0
LINE
8
BLACK
6
CONTINUOUS
10
136.783
20
-118.33
11
136.688
21
-118.235
0
LINE
8
BLACK
6
CONTINUOUS
10
136.688
20
-118.235
11
136.593
21
-118.044
0
LINE
8
BLACK
6
CONTINUOUS
10
136.593
20
-118.044
11
136.498
21
-117.663
0
LINE
8
BLACK
6
CONTINUOUS
10
136.498
20
-117.663
11
136.498
21
-117.187
0
LINE
8
BLACK
6
CONTINUOUS
10
136.498
20
-117.187
11
136.593
21
-116.806
0
LINE
8
BLACK
6
CONTINUOUS
10
136.593
20
-116.806
11
136.688
21
-116.616
0
LINE
8
BLACK
6
CONTINUOUS
10
136.688
20
-116.616
11
136.783
21
-116.521
0
LINE
8
BLACK
6
CONTINUOUS
10
136.783
20
-116.521
11
136.974
21
-116.425
0
LINE
8
BLACK
6
CONTINUOUS
10
138.498
20
-118.425
11
138.498
21
-117.092
0
LINE
8
BLACK
6
CONTINUOUS
10
138.498
20
-117.283
11
138.593
21
-117.187
0
LINE
8
BLACK
6
CONTINUOUS
10
138.593
20
-117.187
11
138.783
21
-117.092
0
LINE
8
BLACK
6
CONTINUOUS
10
138.783
20
-117.092
11
139.069
21
-117.092
0
LINE
8
BLACK
6
CONTINUOUS
10
139.069
20
-117.092
11
139.26
21
-117.187
0
LINE
8
BLACK
6
CONTINUOUS
10
139.26
20
-117.187
11
139.355
21
-117.378
0
LINE
8
BLACK
6
CONTINUOUS
10
139.355
20
-117.378
11
139.355
21
-118.425
0
LINE
8
BLACK
6
CONTINUOUS
10
139.355
20
-117.378
11
139.45
21
-117.187
0
LINE
8
BLACK
6
CONTINUOUS
10
139.45
20
-117.187
11
139.64
21
-117.092
0
LINE
8
BLACK
6
CONTINUOUS
10
139.64
20
-117.092
11
139.926
21
-117.092
0
LINE
8
BLACK
6
CONTINUOUS
10
139.926
20
-117.092
11
140.117
21
-117.187
0
LINE
8
BLACK
6
CONTINUOUS
10
140.117
20
-117.187
11
140.212
21
-117.378
0
LINE
8
BLACK
6
CONTINUOUS
10
140.212
20
-117.378
11
140.212
21
-118.425
0
LINE
8
BLACK
6
CONTINUOUS
10
141.164
20
-118.425
11
141.164
21
-117.092
0
LINE
8
BLACK
6
CONTINUOUS
10
141.164
20
-117.283
11
141.26
21
-117.187
0
LINE
8
BLACK
6
CONTINUOUS
10
141.26
20
-117.187
11
141.45
21
-117.092
0
LINE
8
BLACK
6
CONTINUOUS
10
141.45
20
-117.092
11
141.736
21
-117.092
0
LINE
8
BLACK
6
CONTINUOUS
10
141.736
20
-117.092
11
141.926
21
-117.187
0
LINE
8
BLACK
6
CONTINUOUS
10
141.926
20
-117.187
11
142.021
21
-117.378
0
LINE
8
BLACK
6
CONTINUOUS
10
142.021
20
-117.378
11
142.021
21
-118.425
0
LINE
8
BLACK
6
CONTINUOUS
10
142.021
20
-117.378
11
142.117
21
-117.187
0
LINE
8
BLACK
6
CONTINUOUS
10
142.117
20
-117.187
11
142.307
21
-117.092
0
LINE
8
BLACK
6
CONTINUOUS
10
142.307
20
-117.092
11
142.593
21
-117.092
0
LINE
8
BLACK
6
CONTINUOUS
10
142.593
20
-117.092
11
142.783
21
-117.187
0
LINE
8
BLACK
6
CONTINUOUS
10
142.783
20
-117.187
11
142.879
21
-117.378
0
LINE
8
BLACK
6
CONTINUOUS
10
142.879
20
-117.378
11
142.879
21
-118.425
0
LINE
8
BLACK
6
CONTINUOUS
10
146.46
20
-116.33
11
144.745
21
-118.902
0
LINE
8
BLACK
6
CONTINUOUS
10
148.707
20
-116.425
11
148.898
21
-116.425
0
LINE
8
BLACK
6
CONTINUOUS
10
148.898
20
-116.425
11
149.088
21
-116.521
0
LINE
8
BLACK
6
CONTINUOUS
10
149.088
20
-116.521
11
149.183
21
-116.616
0
LINE
8
BLACK
6
CONTINUOUS
10
149.183
20
-116.616
11
149.279
21
-116.806
0
LINE
8
BLACK
6
CONTINUOUS
10
149.279
20
-116.806
11
149.374
21
-117.187
0
LINE
8
BLACK
6
CONTINUOUS
10
149.374
20
-117.187
11
149.374
21
-117.663
0
LINE
8
BLACK
6
CONTINUOUS
10
149.374
20
-117.663
11
149.279
21
-118.044
0
LINE
8
BLACK
6
CONTINUOUS
10
149.279
20
-118.044
11
149.183
21
-118.235
0
LINE
8
BLACK
6
CONTINUOUS
10
149.183
20
-118.235
11
149.088
21
-118.33
0
LINE
8
BLACK
6
CONTINUOUS
10
149.088
20
-118.33
11
148.898
21
-118.425
0
LINE
8
BLACK
6
CONTINUOUS
10
148.898
20
-118.425
11
148.707
21
-118.425
0
LINE
8
BLACK
6
CONTINUOUS
10
148.707
20
-118.425
11
148.517
21
-118.33
0
LINE
8
BLACK
6
CONTINUOUS
10
148.517
20
-118.33
11
148.421
21
-118.235
0
LINE
8
BLACK
6
CONTINUOUS
10
148.421
20
-118.235
11
148.326
21
-118.044
0
LINE
8
BLACK
6
CONTINUOUS
10
148.326
20
-118.044
11
148.231
21
-117.663
0
LINE
8
BLACK
6
CONTINUOUS
10
148.231
20
-117.663
11
148.231
21
-117.187
0
LINE
8
BLACK
6
CONTINUOUS
10
148.231
20
-117.187
11
148.326
21
-116.806
0
LINE
8
BLACK
6
CONTINUOUS
10
148.326
20
-116.806
11
148.421
21
-116.616
0
LINE
8
BLACK
6
CONTINUOUS
10
148.421
20
-116.616
11
148.517
21
-116.521
0
LINE
8
BLACK
6
CONTINUOUS
10
148.517
20
-116.521
11
148.707
21
-116.425
0
LINE
8
BLACK
6
CONTINUOUS
10
150.231
20
-118.235
11
150.326
21
-118.33
0
LINE
8
BLACK
6
CONTINUOUS
10
150.326
20
-118.33
11
150.231
21
-118.425
0
LINE
8
BLACK
6
CONTINUOUS
10
150.231
20
-118.425
11
150.136
21
-118.33
0
LINE
8
BLACK
6
CONTINUOUS
10
150.136
20
-118.33
11
150.231
21
-118.235
0
LINE
8
BLACK
6
CONTINUOUS
10
150.231
20
-118.235
11
150.231
21
-118.425
0
LINE
8
BLACK
6
CONTINUOUS
10
152.231
20
-118.425
11
151.088
21
-118.425
0
LINE
8
BLACK
6
CONTINUOUS
10
151.66
20
-118.425
11
151.66
21
-116.425
0
LINE
8
BLACK
6
CONTINUOUS
10
151.66
20
-116.425
11
151.469
21
-116.711
0
LINE
8
BLACK
6
CONTINUOUS
10
151.469
20
-116.711
11
151.279
21
-116.902
0
LINE
8
BLACK
6
CONTINUOUS
10
151.279
20
-116.902
11
151.088
21
-116.997
0
LINE
8
BLACK
6
CONTINUOUS
10
152.993
20
-116.616
11
153.088
21
-116.521
0
LINE
8
BLACK
6
CONTINUOUS
10
153.088
20
-116.521
11
153.279
21
-116.425
0
LINE
8
BLACK
6
CONTINUOUS
10
153.279
20
-116.425
11
153.755
21
-116.425
0
LINE
8
BLACK
6
CONTINUOUS
10
153.755
20
-116.425
11
153.945
21
-116.521
0
LINE
8
BLACK
6
CONTINUOUS
10
153.945
20
-116.521
11
154.04
21
-116.616
0
LINE
8
BLACK
6
CONTINUOUS
10
154.04
20
-116.616
11
154.136
21
-116.806
0
LINE
8
BLACK
6
CONTINUOUS
10
154.136
20
-116.806
11
154.136
21
-116.997
0
LINE
8
BLACK
6
CONTINUOUS
10
154.136
20
-116.997
11
154.04
21
-117.283
0
LINE
8
BLACK
6
CONTINUOUS
10
154.04
20
-117.283
11
152.898
21
-118.425
0
LINE
8
BLACK
6
CONTINUOUS
10
152.898
20
-118.425
11
154.136
21
-118.425
0
LINE
8
BLACK
6
CONTINUOUS
10
155.279
20
-117.283
11
155.088
21
-117.187
0
LINE
8
BLACK
6
CONTINUOUS
10
155.088
20
-117.187
11
154.993
21
-117.092
0
LINE
8
BLACK
6
CONTINUOUS
10
154.993
20
-117.092
11
154.898
21
-116.902
0
LINE
8
BLACK
6
CONTINUOUS
10
154.898
20
-116.902
11
154.898
21
-116.806
0
LINE
8
BLACK
6
CONTINUOUS
10
154.898
20
-116.806
11
154.993
21
-116.616
0
LINE
8
BLACK
6
CONTINUOUS
10
154.993
20
-116.616
11
155.088
21
-116.521
0
LINE
8
BLACK
6
CONTINUOUS
10
155.088
20
-116.521
11
155.279
21
-116.425
0
LINE
8
BLACK
6
CONTINUOUS
10
155.279
20
-116.425
11
155.66
21
-116.425
0
LINE
8
BLACK
6
CONTINUOUS
10
155.66
20
-116.425
11
155.85
21
-116.521
0
LINE
8
BLACK
6
CONTINUOUS
10
155.85
20
-116.521
11
155.945
21
-116.616
0
LINE
8
BLACK
6
CONTINUOUS
10
155.945
20
-116.616
11
156.04
21
-116.806
0
LINE
8
BLACK
6
CONTINUOUS
10
156.04
20
-116.806
11
156.04
21
-116.902
0
LINE
8
BLACK
6
CONTINUOUS
10
156.04
20
-116.902
11
155.945
21
-117.092
0
LINE
8
BLACK
6
CONTINUOUS
10
155.945
20
-117.092
11
155.85
21
-117.187
0
LINE
8
BLACK
6
CONTINUOUS
10
155.85
20
-117.187
11
155.66
21
-117.283
0
LINE
8
BLACK
6
CONTINUOUS
10
155.66
20
-117.283
11
155.279
21
-117.283
0
LINE
8
BLACK
6
CONTINUOUS
10
155.279
20
-117.283
11
155.088
21
-117.378
0
LINE
8
BLACK
6
CONTINUOUS
10
155.088
20
-117.378
11
154.993
21
-117.473
0
LINE
8
BLACK
6
CONTINUOUS
10
154.993
20
-117.473
11
154.898
21
-117.663
0
LINE
8
BLACK
6
CONTINUOUS
10
154.898
20
-117.663
11
154.898
21
-118.044
0
LINE
8
BLACK
6
CONTINUOUS
10
154.898
20
-118.044
11
154.993
21
-118.235
0
LINE
8
BLACK
6
CONTINUOUS
10
154.993
20
-118.235
11
155.088
21
-118.33
0
LINE
8
BLACK
6
CONTINUOUS
10
155.088
20
-118.33
11
155.279
21
-118.425
0
LINE
8
BLACK
6
CONTINUOUS
10
155.279
20
-118.425
11
155.66
21
-118.425
0
LINE
8
BLACK
6
CONTINUOUS
10
155.66
20
-118.425
11
155.85
21
-118.33
0
LINE
8
BLACK
6
CONTINUOUS
10
155.85
20
-118.33
11
155.945
21
-118.235
0
LINE
8
BLACK
6
CONTINUOUS
10
155.945
20
-118.235
11
156.04
21
-118.044
0
LINE
8
BLACK
6
CONTINUOUS
10
156.04
20
-118.044
11
156.04
21
-117.663
0
LINE
8
BLACK
6
CONTINUOUS
10
156.04
20
-117.663
11
155.945
21
-117.473
0
LINE
8
BLACK
6
CONTINUOUS
10
155.945
20
-117.473
11
155.85
21
-117.378
0
LINE
8
BLACK
6
CONTINUOUS
10
155.85
20
-117.378
11
155.66
21
-117.283
0
LINE
8
BLACK
6
CONTINUOUS
10
157.279
20
-116.425
11
157.469
21
-116.425
0
LINE
8
BLACK
6
CONTINUOUS
10
157.469
20
-116.425
11
157.66
21
-116.521
0
LINE
8
BLACK
6
CONTINUOUS
10
157.66
20
-116.521
11
157.755
21
-116.616
0
LINE
8
BLACK
6
CONTINUOUS
10
157.755
20
-116.616
11
157.85
21
-116.806
0
LINE
8
BLACK
6
CONTINUOUS
10
157.85
20
-116.806
11
157.945
21
-117.187
0
LINE
8
BLACK
6
CONTINUOUS
10
157.945
20
-117.187
11
157.945
21
-117.663
0
LINE
8
BLACK
6
CONTINUOUS
10
157.945
20
-117.663
11
157.85
21
-118.044
0
LINE
8
BLACK
6
CONTINUOUS
10
157.85
20
-118.044
11
157.755
21
-118.235
0
LINE
8
BLACK
6
CONTINUOUS
10
157.755
20
-118.235
11
157.66
21
-118.33
0
LINE
8
BLACK
6
CONTINUOUS
10
157.66
20
-118.33
11
157.469
21
-118.425
0
LINE
8
BLACK
6
CONTINUOUS
10
157.469
20
-118.425
11
157.279
21
-118.425
0
LINE
8
BLACK
6
CONTINUOUS
10
157.279
20
-118.425
11
157.088
21
-118.33
0
LINE
8
BLACK
6
CONTINUOUS
10
157.088
20
-118.33
11
156.993
21
-118.235
0
LINE
8
BLACK
6
CONTINUOUS
10
156.993
20
-118.235
11
156.898
21
-118.044
0
LINE
8
BLACK
6
CONTINUOUS
10
156.898
20
-118.044
11
156.802
21
-117.663
0
LINE
8
BLACK
6
CONTINUOUS
10
156.802
20
-117.663
11
156.802
21
-117.187
0
LINE
8
BLACK
6
CONTINUOUS
10
156.802
20
-117.187
11
156.898
21
-116.806
0
LINE
8
BLACK
6
CONTINUOUS
10
156.898
20
-116.806
11
156.993
21
-116.616
0
LINE
8
BLACK
6
CONTINUOUS
10
156.993
20
-116.616
11
157.088
21
-116.521
0
LINE
8
BLACK
6
CONTINUOUS
10
157.088
20
-116.521
11
157.279
21
-116.425
0
LINE
8
BLACK
6
CONTINUOUS
10
158.707
20
-116.425
11
158.707
21
-116.806
0
LINE
8
BLACK
6
CONTINUOUS
10
159.469
20
-116.425
11
159.469
21
-116.806
0
LINE
8
BLACK
6
CONTINUOUS
10
162.098
20
-119.187
11
162.002
21
-119.092
0
LINE
8
BLACK
6
CONTINUOUS
10
162.002
20
-119.092
11
161.812
21
-118.806
0
LINE
8
BLACK
6
CONTINUOUS
10
161.812
20
-118.806
11
161.717
21
-118.616
0
LINE
8
BLACK
6
CONTINUOUS
10
161.717
20
-118.616
11
161.621
21
-118.33
0
LINE
8
BLACK
6
CONTINUOUS
10
161.621
20
-118.33
11
161.526
21
-117.854
0
LINE
8
BLACK
6
CONTINUOUS
10
161.526
20
-117.854
11
161.526
21
-117.473
0
LINE
8
BLACK
6
CONTINUOUS
10
161.526
20
-117.473
11
161.621
21
-116.997
0
LINE
8
BLACK
6
CONTINUOUS
10
161.621
20
-116.997
11
161.717
21
-116.711
0
LINE
8
BLACK
6
CONTINUOUS
10
161.717
20
-116.711
11
161.812
21
-116.521
0
LINE
8
BLACK
6
CONTINUOUS
10
161.812
20
-116.521
11
162.002
21
-116.235
0
LINE
8
BLACK
6
CONTINUOUS
10
162.002
20
-116.235
11
162.098
21
-116.14
0
LINE
8
BLACK
6
CONTINUOUS
10
162.764
20
-116.616
11
162.86
21
-116.521
0
LINE
8
BLACK
6
CONTINUOUS
10
162.86
20
-116.521
11
163.05
21
-116.425
0
LINE
8
BLACK
6
CONTINUOUS
10
163.05
20
-116.425
11
163.526
21
-116.425
0
LINE
8
BLACK
6
CONTINUOUS
10
163.526
20
-116.425
11
163.717
21
-116.521
0
LINE
8
BLACK
6
CONTINUOUS
10
163.717
20
-116.521
11
163.812
21
-116.616
0
LINE
8
BLACK
6
CONTINUOUS
10
163.812
20
-116.616
11
163.907
21
-116.806
0
LINE
8
BLACK
6
CONTINUOUS
10
163.907
20
-116.806
11
163.907
21
-116.997
0
LINE
8
BLACK
6
CONTINUOUS
10
163.907
20
-116.997
11
163.812
21
-117.283
0
LINE
8
BLACK
6
CONTINUOUS
10
163.812
20
-117.283
11
162.669
21
-118.425
0
LINE
8
BLACK
6
CONTINUOUS
10
162.669
20
-118.425
11
163.907
21
-118.425
0
LINE
8
BLACK
6
CONTINUOUS
10
165.964
20
-118.425
11
165.964
21
-116.425
0
LINE
8
BLACK
6
CONTINUOUS
10
166.821
20
-118.425
11
166.821
21
-117.378
0
LINE
8
BLACK
6
CONTINUOUS
10
166.821
20
-117.378
11
166.726
21
-117.187
0
LINE
8
BLACK
6
CONTINUOUS
10
166.726
20
-117.187
11
166.536
21
-117.092
0
LINE
8
BLACK
6
CONTINUOUS
10
166.536
20
-117.092
11
166.25
21
-117.092
0
LINE
8
BLACK
6
CONTINUOUS
10
166.25
20
-117.092
11
166.06
21
-117.187
0
LINE
8
BLACK
6
CONTINUOUS
10
166.06
20
-117.187
11
165.964
21
-117.283
0
LINE
8
BLACK
6
CONTINUOUS
10
168.06
20
-118.425
11
167.869
21
-118.33
0
LINE
8
BLACK
6
CONTINUOUS
10
167.869
20
-118.33
11
167.774
21
-118.235
0
LINE
8
BLACK
6
CONTINUOUS
10
167.774
20
-118.235
11
167.679
21
-118.044
0
LINE
8
BLACK
6
CONTINUOUS
10
167.679
20
-118.044
11
167.679
21
-117.473
0
LINE
8
BLACK
6
CONTINUOUS
10
167.679
20
-117.473
11
167.774
21
-117.283
0
LINE
8
BLACK
6
CONTINUOUS
10
167.774
20
-117.283
11
167.869
21
-117.187
0
LINE
8
BLACK
6
CONTINUOUS
10
167.869
20
-117.187
11
168.06
21
-117.092
0
LINE
8
BLACK
6
CONTINUOUS
10
168.06
20
-117.092
11
168.345
21
-117.092
0
LINE
8
BLACK
6
CONTINUOUS
10
168.345
20
-117.092
11
168.536
21
-117.187
0
LINE
8
BLACK
6
CONTINUOUS
10
168.536
20
-117.187
11
168.631
21
-117.283
0
LINE
8
BLACK
6
CONTINUOUS
10
168.631
20
-117.283
11
168.726
21
-117.473
0
LINE
8
BLACK
6
CONTINUOUS
10
168.726
20
-117.473
11
168.726
21
-118.044
0
LINE
8
BLACK
6
CONTINUOUS
10
168.726
20
-118.044
11
168.631
21
-118.235
0
LINE
8
BLACK
6
CONTINUOUS
10
168.631
20
-118.235
11
168.536
21
-118.33
0
LINE
8
BLACK
6
CONTINUOUS
10
168.536
20
-118.33
11
168.345
21
-118.425
0
LINE
8
BLACK
6
CONTINUOUS
10
168.345
20
-118.425
11
168.06
21
-118.425
0
LINE
8
BLACK
6
CONTINUOUS
10
169.869
20
-118.425
11
169.679
21
-118.33
0
LINE
8
BLACK
6
CONTINUOUS
10
169.679
20
-118.33
11
169.583
21
-118.14
0
LINE
8
BLACK
6
CONTINUOUS
10
169.583
20
-118.14
11
169.583
21
-116.425
0
LINE
8
BLACK
6
CONTINUOUS
10
171.393
20
-118.33
11
171.202
21
-118.425
0
LINE
8
BLACK
6
CONTINUOUS
10
171.202
20
-118.425
11
170.821
21
-118.425
0
LINE
8
BLACK
6
CONTINUOUS
10
170.821
20
-118.425
11
170.631
21
-118.33
0
LINE
8
BLACK
6
CONTINUOUS
10
170.631
20
-118.33
11
170.536
21
-118.14
0
LINE
8
BLACK
6
CONTINUOUS
10
170.536
20
-118.14
11
170.536
21
-117.378
0
LINE
8
BLACK
6
CONTINUOUS
10
170.536
20
-117.378
11
170.631
21
-117.187
0
LINE
8
BLACK
6
CONTINUOUS
10
170.631
20
-117.187
11
170.821
21
-117.092
0
LINE
8
BLACK
6
CONTINUOUS
10
170.821
20
-117.092
11
171.202
21
-117.092
0
LINE
8
BLACK
6
CONTINUOUS
10
171.202
20
-117.092
11
171.393
21
-117.187
0
LINE
8
BLACK
6
CONTINUOUS
10
171.393
20
-117.187
11
171.488
21
-117.378
0
LINE
8
BLACK
6
CONTINUOUS
10
171.488
20
-117.378
11
171.488
21
-117.568
0
LINE
8
BLACK
6
CONTINUOUS
10
171.488
20
-117.568
11
170.536
21
-117.759
0
LINE
8
BLACK
6
CONTINUOUS
10
172.25
20
-118.33
11
172.44
21
-118.425
0
LINE
8
BLACK
6
CONTINUOUS
10
172.44
20
-118.425
11
172.821
21
-118.425
0
LINE
8
BLACK
6
CONTINUOUS
10
172.821
20
-118.425
11
173.012
21
-118.33
0
LINE
8
BLACK
6
CONTINUOUS
10
173.012
20
-118.33
11
173.107
21
-118.14
0
LINE
8
BLACK
6
CONTINUOUS
10
173.107
20
-118.14
11
173.107
21
-118.044
0
LINE
8
BLACK
6
CONTINUOUS
10
173.107
20
-118.044
11
173.012
21
-117.854
0
LINE
8
BLACK
6
CONTINUOUS
10
173.012
20
-117.854
11
172.821
21
-117.759
0
LINE
8
BLACK
6
CONTINUOUS
10
172.821
20
-117.759
11
172.536
21
-117.759
0
LINE
8
BLACK
6
CONTINUOUS
10
172.536
20
-117.759
11
172.345
21
-117.663
0
LINE
8
BLACK
6
CONTINUOUS
10
172.345
20
-117.663
11
172.25
21
-117.473
0
LINE
8
BLACK
6
CONTINUOUS
10
172.25
20
-117.473
11
172.25
21
-117.378
0
LINE
8
BLACK
6
CONTINUOUS
10
172.25
20
-117.378
11
172.345
21
-117.187
0
LINE
8
BLACK
6
CONTINUOUS
10
172.345
20
-117.187
11
172.536
21
-117.092
0
LINE
8
BLACK
6
CONTINUOUS
10
172.536
20
-117.092
11
172.821
21
-117.092
0
LINE
8
BLACK
6
CONTINUOUS
10
172.821
20
-117.092
11
173.012
21
-117.187
0
LINE
8
BLACK
6
CONTINUOUS
10
173.774
20
-119.187
11
173.869
21
-119.092
0
LINE
8
BLACK
6
CONTINUOUS
10
173.869
20
-119.092
11
174.06
21
-118.806
0
LINE
8
BLACK
6
CONTINUOUS
10
174.06
20
-118.806
11
174.155
21
-118.616
0
LINE
8
BLACK
6
CONTINUOUS
10
174.155
20
-118.616
11
174.25
21
-118.33
0
LINE
8
BLACK
6
CONTINUOUS
10
174.25
20
-118.33
11
174.345
21
-117.854
0
LINE
8
BLACK
6
CONTINUOUS
10
174.345
20
-117.854
11
174.345
21
-117.473
0
LINE
8
BLACK
6
CONTINUOUS
10
174.345
20
-117.473
11
174.25
21
-116.997
0
LINE
8
BLACK
6
CONTINUOUS
10
174.25
20
-116.997
11
174.155
21
-116.711
0
LINE
8
BLACK
6
CONTINUOUS
10
174.155
20
-116.711
11
174.06
21
-116.521
0
LINE
8
BLACK
6
CONTINUOUS
10
174.06
20
-116.521
11
173.869
21
-116.235
0
LINE
8
BLACK
6
CONTINUOUS
10
173.869
20
-116.235
11
173.774
21
-116.14
0
LINE
8
BLACK
6
CONTINUOUS
10
177.069
20
-119.187
11
176.974
21
-119.092
0
LINE
8
BLACK
6
CONTINUOUS
10
176.974
20
-119.092
11
176.783
21
-118.806
0
LINE
8
BLACK
6
CONTINUOUS
10
176.783
20
-118.806
11
176.688
21
-118.616
0
LINE
8
BLACK
6
CONTINUOUS
10
176.688
20
-118.616
11
176.593
21
-118.33
0
LINE
8
BLACK
6
CONTINUOUS
10
176.593
20
-118.33
11
176.498
21
-117.854
0
LINE
8
BLACK
6
CONTINUOUS
10
176.498
20
-117.854
11
176.498
21
-117.473
0
LINE
8
BLACK
6
CONTINUOUS
10
176.498
20
-117.473
11
176.593
21
-116.997
0
LINE
8
BLACK
6
CONTINUOUS
10
176.593
20
-116.997
11
176.688
21
-116.711
0
LINE
8
BLACK
6
CONTINUOUS
10
176.688
20
-116.711
11
176.783
21
-116.521
0
LINE
8
BLACK
6
CONTINUOUS
10
176.783
20
-116.521
11
176.974
21
-116.235
0
LINE
8
BLACK
6
CONTINUOUS
10
176.974
20
-116.235
11
177.069
21
-116.14
0
LINE
8
BLACK
6
CONTINUOUS
10
177.831
20
-117.092
11
177.831
21
-118.425
0
LINE
8
BLACK
6
CONTINUOUS
10
177.831
20
-117.283
11
177.926
21
-117.187
0
LINE
8
BLACK
6
CONTINUOUS
10
177.926
20
-117.187
11
178.117
21
-117.092
0
LINE
8
BLACK
6
CONTINUOUS
10
178.117
20
-117.092
11
178.402
21
-117.092
0
LINE
8
BLACK
6
CONTINUOUS
10
178.402
20
-117.092
11
178.593
21
-117.187
0
LINE
8
BLACK
6
CONTINUOUS
10
178.593
20
-117.187
11
178.688
21
-117.378
0
LINE
8
BLACK
6
CONTINUOUS
10
178.688
20
-117.378
11
178.688
21
-118.425
0
LINE
8
BLACK
6
CONTINUOUS
10
179.926
20
-118.425
11
179.736
21
-118.33
0
LINE
8
BLACK
6
CONTINUOUS
10
179.736
20
-118.33
11
179.64
21
-118.235
0
LINE
8
BLACK
6
CONTINUOUS
10
179.64
20
-118.235
11
179.545
21
-118.044
0
LINE
8
BLACK
6
CONTINUOUS
10
179.545
20
-118.044
11
179.545
21
-117.473
0
LINE
8
BLACK
6
CONTINUOUS
10
179.545
20
-117.473
11
179.64
21
-117.283
0
LINE
8
BLACK
6
CONTINUOUS
10
179.64
20
-117.283
11
179.736
21
-117.187
0
LINE
8
BLACK
6
CONTINUOUS
10
179.736
20
-117.187
11
179.926
21
-117.092
0
LINE
8
BLACK
6
CONTINUOUS
10
179.926
20
-117.092
11
180.212
21
-117.092
0
LINE
8
BLACK
6
CONTINUOUS
10
180.212
20
-117.092
11
180.402
21
-117.187
0
LINE
8
BLACK
6
CONTINUOUS
10
180.402
20
-117.187
11
180.498
21
-117.283
0
LINE
8
BLACK
6
CONTINUOUS
10
180.498
20
-117.283
11
180.593
21
-117.473
0
LINE
8
BLACK
6
CONTINUOUS
10
180.593
20
-117.473
11
180.593
21
-118.044
0
LINE
8
BLACK
6
CONTINUOUS
10
180.593
20
-118.044
11
180.498
21
-118.235
0
LINE
8
BLACK
6
CONTINUOUS
10
180.498
20
-118.235
11
180.402
21
-118.33
0
LINE
8
BLACK
6
CONTINUOUS
10
180.402
20
-118.33
11
180.212
21
-118.425
0
LINE
8
BLACK
6
CONTINUOUS
10
180.212
20
-118.425
11
179.926
21
-118.425
0
LINE
8
BLACK
6
CONTINUOUS
10
181.164
20
-117.092
11
181.926
21
-117.092
0
LINE
8
BLACK
6
CONTINUOUS
10
181.45
20
-116.425
11
181.45
21
-118.14
0
LINE
8
BLACK
6
CONTINUOUS
10
181.45
20
-118.14
11
181.545
21
-118.33
0
LINE
8
BLACK
6
CONTINUOUS
10
181.545
20
-118.33
11
181.736
21
-118.425
0
LINE
8
BLACK
6
CONTINUOUS
10
181.736
20
-118.425
11
181.926
21
-118.425
0
LINE
8
BLACK
6
CONTINUOUS
10
183.793
20
-117.092
11
183.793
21
-119.092
0
LINE
8
BLACK
6
CONTINUOUS
10
183.793
20
-117.187
11
183.983
21
-117.092
0
LINE
8
BLACK
6
CONTINUOUS
10
183.983
20
-117.092
11
184.364
21
-117.092
0
LINE
8
BLACK
6
CONTINUOUS
10
184.364
20
-117.092
11
184.555
21
-117.187
0
LINE
8
BLACK
6
CONTINUOUS
10
184.555
20
-117.187
11
184.65
21
-117.283
0
LINE
8
BLACK
6
CONTINUOUS
10
184.65
20
-117.283
11
184.745
21
-117.473
0
LINE
8
BLACK
6
CONTINUOUS
10
184.745
20
-117.473
11
184.745
21
-118.044
0
LINE
8
BLACK
6
CONTINUOUS
10
184.745
20
-118.044
11
184.65
21
-118.235
0
LINE
8
BLACK
6
CONTINUOUS
10
184.65
20
-118.235
11
184.555
21
-118.33
0
LINE
8
BLACK
6
CONTINUOUS
10
184.555
20
-118.33
11
184.364
21
-118.425
0
LINE
8
BLACK
6
CONTINUOUS
10
184.364
20
-118.425
11
183.983
21
-118.425
0
LINE
8
BLACK
6
CONTINUOUS
10
183.983
20
-118.425
11
183.793
21
-118.33
0
LINE
8
BLACK
6
CONTINUOUS
10
185.888
20
-118.425
11
185.698
21
-118.33
0
LINE
8
BLACK
6
CONTINUOUS
10
185.698
20
-118.33
11
185.602
21
-118.14
0
LINE
8
BLACK
6
CONTINUOUS
10
185.602
20
-118.14
11
185.602
21
-116.425
0
LINE
8
BLACK
6
CONTINUOUS
10
187.507
20
-118.425
11
187.507
21
-117.378
0
LINE
8
BLACK
6
CONTINUOUS
10
187.507
20
-117.378
11
187.412
21
-117.187
0
LINE
8
BLACK
6
CONTINUOUS
10
187.412
20
-117.187
11
187.221
21
-117.092
0
LINE
8
BLACK
6
CONTINUOUS
10
187.221
20
-117.092
11
186.84
21
-117.092
0
LINE
8
BLACK
6
CONTINUOUS
10
186.84
20
-117.092
11
186.65
21
-117.187
0
LINE
8
BLACK
6
CONTINUOUS
10
187.507
20
-118.33
11
187.317
21
-118.425
0
LINE
8
BLACK
6
CONTINUOUS
10
187.317
20
-118.425
11
186.84
21
-118.425
0
LINE
8
BLACK
6
CONTINUOUS
10
186.84
20
-118.425
11
186.65
21
-118.33
0
LINE
8
BLACK
6
CONTINUOUS
10
186.65
20
-118.33
11
186.555
21
-118.14
0
LINE
8
BLACK
6
CONTINUOUS
10
186.555
20
-118.14
11
186.555
21
-117.949
0
LINE
8
BLACK
6
CONTINUOUS
10
186.555
20
-117.949
11
186.65
21
-117.759
0
LINE
8
BLACK
6
CONTINUOUS
10
186.65
20
-117.759
11
186.84
21
-117.663
0
LINE
8
BLACK
6
CONTINUOUS
10
186.84
20
-117.663
11
187.317
21
-117.663
0
LINE
8
BLACK
6
CONTINUOUS
10
187.317
20
-117.663
11
187.507
21
-117.568
0
LINE
8
BLACK
6
CONTINUOUS
10
188.174
20
-117.092
11
188.936
21
-117.092
0
LINE
8
BLACK
6
CONTINUOUS
10
188.46
20
-116.425
11
188.46
21
-118.14
0
LINE
8
BLACK
6
CONTINUOUS
10
188.46
20
-118.14
11
188.555
21
-118.33
0
LINE
8
BLACK
6
CONTINUOUS
10
188.555
20
-118.33
11
188.745
21
-118.425
0
LINE
8
BLACK
6
CONTINUOUS
10
188.745
20
-118.425
11
188.936
21
-118.425
0
LINE
8
BLACK
6
CONTINUOUS
10
190.364
20
-118.33
11
190.174
21
-118.425
0
LINE
8
BLACK
6
CONTINUOUS
10
190.174
20
-118.425
11
189.793
21
-118.425
0
LINE
8
BLACK
6
CONTINUOUS
10
189.793
20
-118.425
11
189.602
21
-118.33
0
LINE
8
BLACK
6
CONTINUOUS
10
189.602
20
-118.33
11
189.507
21
-118.14
0
LINE
8
BLACK
6
CONTINUOUS
10
189.507
20
-118.14
11
189.507
21
-117.378
0
LINE
8
BLACK
6
CONTINUOUS
10
189.507
20
-117.378
11
189.602
21
-117.187
0
LINE
8
BLACK
6
CONTINUOUS
10
189.602
20
-117.187
11
189.793
21
-117.092
0
LINE
8
BLACK
6
CONTINUOUS
10
189.793
20
-117.092
11
190.174
21
-117.092
0
LINE
8
BLACK
6
CONTINUOUS
10
190.174
20
-117.092
11
190.364
21
-117.187
0
LINE
8
BLACK
6
CONTINUOUS
10
190.364
20
-117.187
11
190.46
21
-117.378
0
LINE
8
BLACK
6
CONTINUOUS
10
190.46
20
-117.378
11
190.46
21
-117.568
0
LINE
8
BLACK
6
CONTINUOUS
10
190.46
20
-117.568
11
189.507
21
-117.759
0
LINE
8
BLACK
6
CONTINUOUS
10
192.174
20
-118.425
11
192.174
21
-116.425
0
LINE
8
BLACK
6
CONTINUOUS
10
192.174
20
-118.33
11
191.983
21
-118.425
0
LINE
8
BLACK
6
CONTINUOUS
10
191.983
20
-118.425
11
191.602
21
-118.425
0
LINE
8
BLACK
6
CONTINUOUS
10
191.602
20
-118.425
11
191.412
21
-118.33
0
LINE
8
BLACK
6
CONTINUOUS
10
191.412
20
-118.33
11
191.317
21
-118.235
0
LINE
8
BLACK
6
CONTINUOUS
10
191.317
20
-118.235
11
191.221
21
-118.044
0
LINE
8
BLACK
6
CONTINUOUS
10
191.221
20
-118.044
11
191.221
21
-117.473
0
LINE
8
BLACK
6
CONTINUOUS
10
191.221
20
-117.473
11
191.317
21
-117.283
0
LINE
8
BLACK
6
CONTINUOUS
10
191.317
20
-117.283
11
191.412
21
-117.187
0
LINE
8
BLACK
6
CONTINUOUS
10
191.412
20
-117.187
11
191.602
21
-117.092
0
LINE
8
BLACK
6
CONTINUOUS
10
191.602
20
-117.092
11
191.983
21
-117.092
0
LINE
8
BLACK
6
CONTINUOUS
10
191.983
20
-117.092
11
192.174
21
-117.187
0
LINE
8
BLACK
6
CONTINUOUS
10
192.936
20
-119.187
11
193.031
21
-119.092
0
LINE
8
BLACK
6
CONTINUOUS
10
193.031
20
-119.092
11
193.221
21
-118.806
0
LINE
8
BLACK
6
CONTINUOUS
10
193.221
20
-118.806
11
193.317
21
-118.616
0
LINE
8
BLACK
6
CONTINUOUS
10
193.317
20
-118.616
11
193.412
21
-118.33
0
LINE
8
BLACK
6
CONTINUOUS
10
193.412
20
-118.33
11
193.507
21
-117.854
0
LINE
8
BLACK
6
CONTINUOUS
10
193.507
20
-117.854
11
193.507
21
-117.473
0
LINE
8
BLACK
6
CONTINUOUS
10
193.507
20
-117.473
11
193.412
21
-116.997
0
LINE
8
BLACK
6
CONTINUOUS
10
193.412
20
-116.997
11
193.317
21
-116.711
0
LINE
8
BLACK
6
CONTINUOUS
10
193.317
20
-116.711
11
193.221
21
-116.521
0
LINE
8
BLACK
6
CONTINUOUS
10
193.221
20
-116.521
11
193.031
21
-116.235
0
LINE
8
BLACK
6
CONTINUOUS
10
193.031
20
-116.235
11
192.936
21
-116.14
  0
ENDSEC
  0
EOF
