  0
SECTION
  2
HEADER
  9
$ANGBASE
  50
0.0
  9
$ANGDIR
  70
1
  9
$MEASUREMENT
  70
1
  0
ENDSEC
  0
SECTION
  2
TABLES
  0
TABLE
  2
LTYPE
  70
4
  0
LTYPE
  5
40F
  2
CONTINUOUS
  70
0
  3
Solid line
  72
65
  73
0
  40
0.0
  0
LTYPE
  5
410
  2
DASHDOT
 70
0
  3
Dash Dot ____ _ ____ _
 72
65
 73
4
 40
2.0
 49
1.25
 49
-0.25
 49
0.25
 49
-0.25
  0
LTYPE
  5
411
  2
DASHED
 70
0
  3
Dashed __ __ __ __ __
 72
65
 73
2
 40
0.75
 49
0.5
 49
-0.25
  0
LTYPE
  5
43B
  2
DOTTED
 70
0
  3
Dotted .  .  .  .
 72
65
 73
2
 40
0.2
 49
0.0
 49
-0.2
  0
ENDTAB
  0
TABLE
  2
STYLE
  70
4
  0
STYLE
  2
KICAD
  70
0
  40
0
  41
1
  42
1
  50
0
  71
0
  3
isocp.shx
  0
STYLE
  2
KICADB
  70
0
  40
0
  41
1
  42
1
  50
0
  71
0
  3
isocp.shx
  0
STYLE
  2
KICADI
  70
0
  40
0
  41
1
  42
1
  50
15
  71
0
  3
isocp.shx
  0
STYLE
  2
KICADBI
  70
0
  40
0
  41
1
  42
1
  50
15
  71
0
  3
isocp.shx
  0
ENDTAB
  0
TABLE
  2
LAYER
  70
1
  0
LAYER
  2
BLACK
  70
0
  62
7
  6
CONTINUOUS
  0
ENDTAB
  0
ENDSEC
  0
SECTION
  2
ENTITIES
0
LINE
8
BLACK
6
CONTINUOUS
10
127.5
20
-70.8406
11
127.5
21
-104.841
0
LINE
8
BLACK
6
CONTINUOUS
10
127.5
20
-104.841
11
162
21
-104.841
0
LINE
8
BLACK
6
CONTINUOUS
10
162
20
-70.8406
11
162
21
-104.841
0
LINE
8
BLACK
6
CONTINUOUS
10
127.5
20
-70.8406
11
162
21
-70.8406
0
LINE
8
BLACK
6
CONTINUOUS
10
137.049
20
-83.1578
11
137.939
21
-84.0478
0
LINE
8
BLACK
6
CONTINUOUS
10
137.939
20
-83.1578
11
137.049
21
-84.0478
0
LINE
8
BLACK
6
CONTINUOUS
10
139.339
20
-83.1578
11
140.229
21
-84.0478
0
LINE
8
BLACK
6
CONTINUOUS
10
140.229
20
-83.1578
11
139.339
21
-84.0478
0
LINE
8
BLACK
6
CONTINUOUS
10
140.339
20
-76.5678
11
141.229
21
-77.4578
0
LINE
8
BLACK
6
CONTINUOUS
10
141.229
20
-76.5678
11
140.339
21
-77.4578
0
LINE
8
BLACK
6
CONTINUOUS
10
141.359
20
-78.3478
11
142.249
21
-79.2378
0
LINE
8
BLACK
6
CONTINUOUS
10
142.249
20
-78.3478
11
141.359
21
-79.2378
0
LINE
8
BLACK
6
CONTINUOUS
10
142.379
20
-76.5678
11
143.269
21
-77.4578
0
LINE
8
BLACK
6
CONTINUOUS
10
143.269
20
-76.5678
11
142.379
21
-77.4578
0
LINE
8
BLACK
6
CONTINUOUS
10
143.399
20
-78.3478
11
144.289
21
-79.2378
0
LINE
8
BLACK
6
CONTINUOUS
10
144.289
20
-78.3478
11
143.399
21
-79.2378
0
LINE
8
BLACK
6
CONTINUOUS
10
144.419
20
-76.5678
11
145.309
21
-77.4578
0
LINE
8
BLACK
6
CONTINUOUS
10
145.309
20
-76.5678
11
144.419
21
-77.4578
0
LINE
8
BLACK
6
CONTINUOUS
10
145.439
20
-78.3478
11
146.329
21
-79.2378
0
LINE
8
BLACK
6
CONTINUOUS
10
146.329
20
-78.3478
11
145.439
21
-79.2378
0
LINE
8
BLACK
6
CONTINUOUS
10
146.459
20
-76.5678
11
147.349
21
-77.4578
0
LINE
8
BLACK
6
CONTINUOUS
10
147.349
20
-76.5678
11
146.459
21
-77.4578
0
LINE
8
BLACK
6
CONTINUOUS
10
147.479
20
-78.3478
11
148.369
21
-79.2378
0
LINE
8
BLACK
6
CONTINUOUS
10
148.369
20
-78.3478
11
147.479
21
-79.2378
0
LINE
8
BLACK
6
CONTINUOUS
10
148.479
20
-83.1578
11
149.369
21
-84.0478
0
LINE
8
BLACK
6
CONTINUOUS
10
149.369
20
-83.1578
11
148.479
21
-84.0478
0
LINE
8
BLACK
6
CONTINUOUS
10
150.769
20
-83.1578
11
151.659
21
-84.0478
0
LINE
8
BLACK
6
CONTINUOUS
10
151.659
20
-83.1578
11
150.769
21
-84.0478
0
CIRCLE
8
BLACK
10
156.46
20
-91.96
40
0.5
0
CIRCLE
8
BLACK
10
156.46
20
-94.5
40
0.5
0
CIRCLE
8
BLACK
10
159
20
-91.96
40
0.5
0
CIRCLE
8
BLACK
10
159
20
-94.5
40
0.5
0
LINE
8
BLACK
6
CONTINUOUS
10
136.224
20
-77.1328
11
136.224
21
-78.9328
0
LINE
8
BLACK
6
CONTINUOUS
10
135.324
20
-78.0328
11
137.124
21
-78.0328
0
LINE
8
BLACK
6
CONTINUOUS
10
140.097
20
-88.3822
11
140.097
21
-90.1822
0
LINE
8
BLACK
6
CONTINUOUS
10
139.197
20
-89.2822
11
140.997
21
-89.2822
0
LINE
8
BLACK
6
CONTINUOUS
10
140.097
20
-92.5822
11
140.097
21
-94.3822
0
LINE
8
BLACK
6
CONTINUOUS
10
139.197
20
-93.4822
11
140.997
21
-93.4822
0
LINE
8
BLACK
6
CONTINUOUS
10
144.297
20
-88.3822
11
144.297
21
-90.1822
0
LINE
8
BLACK
6
CONTINUOUS
10
143.397
20
-89.2822
11
145.197
21
-89.2822
0
LINE
8
BLACK
6
CONTINUOUS
10
144.297
20
-92.5822
11
144.297
21
-94.3822
0
LINE
8
BLACK
6
CONTINUOUS
10
143.397
20
-93.4822
11
145.197
21
-93.4822
0
LINE
8
BLACK
6
CONTINUOUS
10
148.497
20
-88.3822
11
148.497
21
-90.1822
0
LINE
8
BLACK
6
CONTINUOUS
10
147.597
20
-89.2822
11
149.397
21
-89.2822
0
LINE
8
BLACK
6
CONTINUOUS
10
148.497
20
-92.5822
11
148.497
21
-94.3822
0
LINE
8
BLACK
6
CONTINUOUS
10
147.597
20
-93.4822
11
149.397
21
-93.4822
0
LINE
8
BLACK
6
CONTINUOUS
10
152.484
20
-77.1328
11
152.484
21
-78.9328
0
LINE
8
BLACK
6
CONTINUOUS
10
151.584
20
-78.0328
11
153.384
21
-78.0328
0
LINE
8
BLACK
6
CONTINUOUS
10
129.926
20
-107.825
11
129.926
21
-105.825
0
LINE
8
BLACK
6
CONTINUOUS
10
129.926
20
-105.825
11
130.402
21
-105.825
0
LINE
8
BLACK
6
CONTINUOUS
10
130.402
20
-105.825
11
130.688
21
-105.921
0
LINE
8
BLACK
6
CONTINUOUS
10
130.688
20
-105.921
11
130.879
21
-106.111
0
LINE
8
BLACK
6
CONTINUOUS
10
130.879
20
-106.111
11
130.974
21
-106.302
0
LINE
8
BLACK
6
CONTINUOUS
10
130.974
20
-106.302
11
131.069
21
-106.683
0
LINE
8
BLACK
6
CONTINUOUS
10
131.069
20
-106.683
11
131.069
21
-106.968
0
LINE
8
BLACK
6
CONTINUOUS
10
131.069
20
-106.968
11
130.974
21
-107.349
0
LINE
8
BLACK
6
CONTINUOUS
10
130.974
20
-107.349
11
130.879
21
-107.54
0
LINE
8
BLACK
6
CONTINUOUS
10
130.879
20
-107.54
11
130.688
21
-107.73
0
LINE
8
BLACK
6
CONTINUOUS
10
130.688
20
-107.73
11
130.402
21
-107.825
0
LINE
8
BLACK
6
CONTINUOUS
10
130.402
20
-107.825
11
129.926
21
-107.825
0
LINE
8
BLACK
6
CONTINUOUS
10
131.926
20
-107.825
11
131.926
21
-106.492
0
LINE
8
BLACK
6
CONTINUOUS
10
131.926
20
-106.873
11
132.021
21
-106.683
0
LINE
8
BLACK
6
CONTINUOUS
10
132.021
20
-106.683
11
132.117
21
-106.587
0
LINE
8
BLACK
6
CONTINUOUS
10
132.117
20
-106.587
11
132.307
21
-106.492
0
LINE
8
BLACK
6
CONTINUOUS
10
132.307
20
-106.492
11
132.498
21
-106.492
0
LINE
8
BLACK
6
CONTINUOUS
10
133.164
20
-107.825
11
133.164
21
-106.492
0
LINE
8
BLACK
6
CONTINUOUS
10
133.164
20
-105.825
11
133.069
21
-105.921
0
LINE
8
BLACK
6
CONTINUOUS
10
133.069
20
-105.921
11
133.164
21
-106.016
0
LINE
8
BLACK
6
CONTINUOUS
10
133.164
20
-106.016
11
133.26
21
-105.921
0
LINE
8
BLACK
6
CONTINUOUS
10
133.26
20
-105.921
11
133.164
21
-105.825
0
LINE
8
BLACK
6
CONTINUOUS
10
133.164
20
-105.825
11
133.164
21
-106.016
0
LINE
8
BLACK
6
CONTINUOUS
10
134.402
20
-107.825
11
134.212
21
-107.73
0
LINE
8
BLACK
6
CONTINUOUS
10
134.212
20
-107.73
11
134.117
21
-107.54
0
LINE
8
BLACK
6
CONTINUOUS
10
134.117
20
-107.54
11
134.117
21
-105.825
0
LINE
8
BLACK
6
CONTINUOUS
10
135.45
20
-107.825
11
135.26
21
-107.73
0
LINE
8
BLACK
6
CONTINUOUS
10
135.26
20
-107.73
11
135.164
21
-107.54
0
LINE
8
BLACK
6
CONTINUOUS
10
135.164
20
-107.54
11
135.164
21
-105.825
0
LINE
8
BLACK
6
CONTINUOUS
10
137.412
20
-107.825
11
137.412
21
-105.825
0
LINE
8
BLACK
6
CONTINUOUS
10
137.412
20
-105.825
11
138.079
21
-107.254
0
LINE
8
BLACK
6
CONTINUOUS
10
138.079
20
-107.254
11
138.745
21
-105.825
0
LINE
8
BLACK
6
CONTINUOUS
10
138.745
20
-105.825
11
138.745
21
-107.825
0
LINE
8
BLACK
6
CONTINUOUS
10
140.555
20
-107.825
11
140.555
21
-106.778
0
LINE
8
BLACK
6
CONTINUOUS
10
140.555
20
-106.778
11
140.46
21
-106.587
0
LINE
8
BLACK
6
CONTINUOUS
10
140.46
20
-106.587
11
140.269
21
-106.492
0
LINE
8
BLACK
6
CONTINUOUS
10
140.269
20
-106.492
11
139.888
21
-106.492
0
LINE
8
BLACK
6
CONTINUOUS
10
139.888
20
-106.492
11
139.698
21
-106.587
0
LINE
8
BLACK
6
CONTINUOUS
10
140.555
20
-107.73
11
140.364
21
-107.825
0
LINE
8
BLACK
6
CONTINUOUS
10
140.364
20
-107.825
11
139.888
21
-107.825
0
LINE
8
BLACK
6
CONTINUOUS
10
139.888
20
-107.825
11
139.698
21
-107.73
0
LINE
8
BLACK
6
CONTINUOUS
10
139.698
20
-107.73
11
139.602
21
-107.54
0
LINE
8
BLACK
6
CONTINUOUS
10
139.602
20
-107.54
11
139.602
21
-107.349
0
LINE
8
BLACK
6
CONTINUOUS
10
139.602
20
-107.349
11
139.698
21
-107.159
0
LINE
8
BLACK
6
CONTINUOUS
10
139.698
20
-107.159
11
139.888
21
-107.063
0
LINE
8
BLACK
6
CONTINUOUS
10
139.888
20
-107.063
11
140.364
21
-107.063
0
LINE
8
BLACK
6
CONTINUOUS
10
140.364
20
-107.063
11
140.555
21
-106.968
0
LINE
8
BLACK
6
CONTINUOUS
10
141.507
20
-106.492
11
141.507
21
-108.492
0
LINE
8
BLACK
6
CONTINUOUS
10
141.507
20
-106.587
11
141.698
21
-106.492
0
LINE
8
BLACK
6
CONTINUOUS
10
141.698
20
-106.492
11
142.079
21
-106.492
0
LINE
8
BLACK
6
CONTINUOUS
10
142.079
20
-106.492
11
142.269
21
-106.587
0
LINE
8
BLACK
6
CONTINUOUS
10
142.269
20
-106.587
11
142.364
21
-106.683
0
LINE
8
BLACK
6
CONTINUOUS
10
142.364
20
-106.683
11
142.46
21
-106.873
0
LINE
8
BLACK
6
CONTINUOUS
10
142.46
20
-106.873
11
142.46
21
-107.444
0
LINE
8
BLACK
6
CONTINUOUS
10
142.46
20
-107.444
11
142.364
21
-107.635
0
LINE
8
BLACK
6
CONTINUOUS
10
142.364
20
-107.635
11
142.269
21
-107.73
0
LINE
8
BLACK
6
CONTINUOUS
10
142.269
20
-107.73
11
142.079
21
-107.825
0
LINE
8
BLACK
6
CONTINUOUS
10
142.079
20
-107.825
11
141.698
21
-107.825
0
LINE
8
BLACK
6
CONTINUOUS
10
141.698
20
-107.825
11
141.507
21
-107.73
0
LINE
8
BLACK
6
CONTINUOUS
10
143.317
20
-107.635
11
143.412
21
-107.73
0
LINE
8
BLACK
6
CONTINUOUS
10
143.412
20
-107.73
11
143.317
21
-107.825
0
LINE
8
BLACK
6
CONTINUOUS
10
143.317
20
-107.825
11
143.221
21
-107.73
0
LINE
8
BLACK
6
CONTINUOUS
10
143.221
20
-107.73
11
143.317
21
-107.635
0
LINE
8
BLACK
6
CONTINUOUS
10
143.317
20
-107.635
11
143.317
21
-107.825
0
LINE
8
BLACK
6
CONTINUOUS
10
143.317
20
-106.587
11
143.412
21
-106.683
0
LINE
8
BLACK
6
CONTINUOUS
10
143.412
20
-106.683
11
143.317
21
-106.778
0
LINE
8
BLACK
6
CONTINUOUS
10
143.317
20
-106.778
11
143.221
21
-106.683
0
LINE
8
BLACK
6
CONTINUOUS
10
143.221
20
-106.683
11
143.317
21
-106.587
0
LINE
8
BLACK
6
CONTINUOUS
10
143.317
20
-106.587
11
143.317
21
-106.778
0
LINE
8
BLACK
6
CONTINUOUS
10
126.56
20
-110.846
11
127.45
21
-111.736
0
LINE
8
BLACK
6
CONTINUOUS
10
127.45
20
-110.846
11
126.56
21
-111.736
0
LINE
8
BLACK
6
CONTINUOUS
10
130.307
20
-110.025
11
130.498
21
-110.025
0
LINE
8
BLACK
6
CONTINUOUS
10
130.498
20
-110.025
11
130.688
21
-110.121
0
LINE
8
BLACK
6
CONTINUOUS
10
130.688
20
-110.121
11
130.783
21
-110.216
0
LINE
8
BLACK
6
CONTINUOUS
10
130.783
20
-110.216
11
130.879
21
-110.406
0
LINE
8
BLACK
6
CONTINUOUS
10
130.879
20
-110.406
11
130.974
21
-110.787
0
LINE
8
BLACK
6
CONTINUOUS
10
130.974
20
-110.787
11
130.974
21
-111.263
0
LINE
8
BLACK
6
CONTINUOUS
10
130.974
20
-111.263
11
130.879
21
-111.644
0
LINE
8
BLACK
6
CONTINUOUS
10
130.879
20
-111.644
11
130.783
21
-111.835
0
LINE
8
BLACK
6
CONTINUOUS
10
130.783
20
-111.835
11
130.688
21
-111.93
0
LINE
8
BLACK
6
CONTINUOUS
10
130.688
20
-111.93
11
130.498
21
-112.025
0
LINE
8
BLACK
6
CONTINUOUS
10
130.498
20
-112.025
11
130.307
21
-112.025
0
LINE
8
BLACK
6
CONTINUOUS
10
130.307
20
-112.025
11
130.117
21
-111.93
0
LINE
8
BLACK
6
CONTINUOUS
10
130.117
20
-111.93
11
130.021
21
-111.835
0
LINE
8
BLACK
6
CONTINUOUS
10
130.021
20
-111.835
11
129.926
21
-111.644
0
LINE
8
BLACK
6
CONTINUOUS
10
129.926
20
-111.644
11
129.831
21
-111.263
0
LINE
8
BLACK
6
CONTINUOUS
10
129.831
20
-111.263
11
129.831
21
-110.787
0
LINE
8
BLACK
6
CONTINUOUS
10
129.831
20
-110.787
11
129.926
21
-110.406
0
LINE
8
BLACK
6
CONTINUOUS
10
129.926
20
-110.406
11
130.021
21
-110.216
0
LINE
8
BLACK
6
CONTINUOUS
10
130.021
20
-110.216
11
130.117
21
-110.121
0
LINE
8
BLACK
6
CONTINUOUS
10
130.117
20
-110.121
11
130.307
21
-110.025
0
LINE
8
BLACK
6
CONTINUOUS
10
131.831
20
-111.835
11
131.926
21
-111.93
0
LINE
8
BLACK
6
CONTINUOUS
10
131.926
20
-111.93
11
131.831
21
-112.025
0
LINE
8
BLACK
6
CONTINUOUS
10
131.831
20
-112.025
11
131.736
21
-111.93
0
LINE
8
BLACK
6
CONTINUOUS
10
131.736
20
-111.93
11
131.831
21
-111.835
0
LINE
8
BLACK
6
CONTINUOUS
10
131.831
20
-111.835
11
131.831
21
-112.025
0
LINE
8
BLACK
6
CONTINUOUS
10
133.069
20
-110.883
11
132.879
21
-110.787
0
LINE
8
BLACK
6
CONTINUOUS
10
132.879
20
-110.787
11
132.783
21
-110.692
0
LINE
8
BLACK
6
CONTINUOUS
10
132.783
20
-110.692
11
132.688
21
-110.502
0
LINE
8
BLACK
6
CONTINUOUS
10
132.688
20
-110.502
11
132.688
21
-110.406
0
LINE
8
BLACK
6
CONTINUOUS
10
132.688
20
-110.406
11
132.783
21
-110.216
0
LINE
8
BLACK
6
CONTINUOUS
10
132.783
20
-110.216
11
132.879
21
-110.121
0
LINE
8
BLACK
6
CONTINUOUS
10
132.879
20
-110.121
11
133.069
21
-110.025
0
LINE
8
BLACK
6
CONTINUOUS
10
133.069
20
-110.025
11
133.45
21
-110.025
0
LINE
8
BLACK
6
CONTINUOUS
10
133.45
20
-110.025
11
133.64
21
-110.121
0
LINE
8
BLACK
6
CONTINUOUS
10
133.64
20
-110.121
11
133.736
21
-110.216
0
LINE
8
BLACK
6
CONTINUOUS
10
133.736
20
-110.216
11
133.831
21
-110.406
0
LINE
8
BLACK
6
CONTINUOUS
10
133.831
20
-110.406
11
133.831
21
-110.502
0
LINE
8
BLACK
6
CONTINUOUS
10
133.831
20
-110.502
11
133.736
21
-110.692
0
LINE
8
BLACK
6
CONTINUOUS
10
133.736
20
-110.692
11
133.64
21
-110.787
0
LINE
8
BLACK
6
CONTINUOUS
10
133.64
20
-110.787
11
133.45
21
-110.883
0
LINE
8
BLACK
6
CONTINUOUS
10
133.45
20
-110.883
11
133.069
21
-110.883
0
LINE
8
BLACK
6
CONTINUOUS
10
133.069
20
-110.883
11
132.879
21
-110.978
0
LINE
8
BLACK
6
CONTINUOUS
10
132.879
20
-110.978
11
132.783
21
-111.073
0
LINE
8
BLACK
6
CONTINUOUS
10
132.783
20
-111.073
11
132.688
21
-111.263
0
LINE
8
BLACK
6
CONTINUOUS
10
132.688
20
-111.263
11
132.688
21
-111.644
0
LINE
8
BLACK
6
CONTINUOUS
10
132.688
20
-111.644
11
132.783
21
-111.835
0
LINE
8
BLACK
6
CONTINUOUS
10
132.783
20
-111.835
11
132.879
21
-111.93
0
LINE
8
BLACK
6
CONTINUOUS
10
132.879
20
-111.93
11
133.069
21
-112.025
0
LINE
8
BLACK
6
CONTINUOUS
10
133.069
20
-112.025
11
133.45
21
-112.025
0
LINE
8
BLACK
6
CONTINUOUS
10
133.45
20
-112.025
11
133.64
21
-111.93
0
LINE
8
BLACK
6
CONTINUOUS
10
133.64
20
-111.93
11
133.736
21
-111.835
0
LINE
8
BLACK
6
CONTINUOUS
10
133.736
20
-111.835
11
133.831
21
-111.644
0
LINE
8
BLACK
6
CONTINUOUS
10
133.831
20
-111.644
11
133.831
21
-111.263
0
LINE
8
BLACK
6
CONTINUOUS
10
133.831
20
-111.263
11
133.736
21
-111.073
0
LINE
8
BLACK
6
CONTINUOUS
10
133.736
20
-111.073
11
133.64
21
-110.978
0
LINE
8
BLACK
6
CONTINUOUS
10
133.64
20
-110.978
11
133.45
21
-110.883
0
LINE
8
BLACK
6
CONTINUOUS
10
134.783
20
-112.025
11
135.164
21
-112.025
0
LINE
8
BLACK
6
CONTINUOUS
10
135.164
20
-112.025
11
135.355
21
-111.93
0
LINE
8
BLACK
6
CONTINUOUS
10
135.355
20
-111.93
11
135.45
21
-111.835
0
LINE
8
BLACK
6
CONTINUOUS
10
135.45
20
-111.835
11
135.64
21
-111.549
0
LINE
8
BLACK
6
CONTINUOUS
10
135.64
20
-111.549
11
135.736
21
-111.168
0
LINE
8
BLACK
6
CONTINUOUS
10
135.736
20
-111.168
11
135.736
21
-110.406
0
LINE
8
BLACK
6
CONTINUOUS
10
135.736
20
-110.406
11
135.64
21
-110.216
0
LINE
8
BLACK
6
CONTINUOUS
10
135.64
20
-110.216
11
135.545
21
-110.121
0
LINE
8
BLACK
6
CONTINUOUS
10
135.545
20
-110.121
11
135.355
21
-110.025
0
LINE
8
BLACK
6
CONTINUOUS
10
135.355
20
-110.025
11
134.974
21
-110.025
0
LINE
8
BLACK
6
CONTINUOUS
10
134.974
20
-110.025
11
134.783
21
-110.121
0
LINE
8
BLACK
6
CONTINUOUS
10
134.783
20
-110.121
11
134.688
21
-110.216
0
LINE
8
BLACK
6
CONTINUOUS
10
134.688
20
-110.216
11
134.593
21
-110.406
0
LINE
8
BLACK
6
CONTINUOUS
10
134.593
20
-110.406
11
134.593
21
-110.883
0
LINE
8
BLACK
6
CONTINUOUS
10
134.593
20
-110.883
11
134.688
21
-111.073
0
LINE
8
BLACK
6
CONTINUOUS
10
134.688
20
-111.073
11
134.783
21
-111.168
0
LINE
8
BLACK
6
CONTINUOUS
10
134.783
20
-111.168
11
134.974
21
-111.263
0
LINE
8
BLACK
6
CONTINUOUS
10
134.974
20
-111.263
11
135.355
21
-111.263
0
LINE
8
BLACK
6
CONTINUOUS
10
135.355
20
-111.263
11
135.545
21
-111.168
0
LINE
8
BLACK
6
CONTINUOUS
10
135.545
20
-111.168
11
135.64
21
-111.073
0
LINE
8
BLACK
6
CONTINUOUS
10
135.64
20
-111.073
11
135.736
21
-110.883
0
LINE
8
BLACK
6
CONTINUOUS
10
136.974
20
-110.025
11
137.164
21
-110.025
0
LINE
8
BLACK
6
CONTINUOUS
10
137.164
20
-110.025
11
137.355
21
-110.121
0
LINE
8
BLACK
6
CONTINUOUS
10
137.355
20
-110.121
11
137.45
21
-110.216
0
LINE
8
BLACK
6
CONTINUOUS
10
137.45
20
-110.216
11
137.545
21
-110.406
0
LINE
8
BLACK
6
CONTINUOUS
10
137.545
20
-110.406
11
137.64
21
-110.787
0
LINE
8
BLACK
6
CONTINUOUS
10
137.64
20
-110.787
11
137.64
21
-111.263
0
LINE
8
BLACK
6
CONTINUOUS
10
137.64
20
-111.263
11
137.545
21
-111.644
0
LINE
8
BLACK
6
CONTINUOUS
10
137.545
20
-111.644
11
137.45
21
-111.835
0
LINE
8
BLACK
6
CONTINUOUS
10
137.45
20
-111.835
11
137.355
21
-111.93
0
LINE
8
BLACK
6
CONTINUOUS
10
137.355
20
-111.93
11
137.164
21
-112.025
0
LINE
8
BLACK
6
CONTINUOUS
10
137.164
20
-112.025
11
136.974
21
-112.025
0
LINE
8
BLACK
6
CONTINUOUS
10
136.974
20
-112.025
11
136.783
21
-111.93
0
LINE
8
BLACK
6
CONTINUOUS
10
136.783
20
-111.93
11
136.688
21
-111.835
0
LINE
8
BLACK
6
CONTINUOUS
10
136.688
20
-111.835
11
136.593
21
-111.644
0
LINE
8
BLACK
6
CONTINUOUS
10
136.593
20
-111.644
11
136.498
21
-111.263
0
LINE
8
BLACK
6
CONTINUOUS
10
136.498
20
-111.263
11
136.498
21
-110.787
0
LINE
8
BLACK
6
CONTINUOUS
10
136.498
20
-110.787
11
136.593
21
-110.406
0
LINE
8
BLACK
6
CONTINUOUS
10
136.593
20
-110.406
11
136.688
21
-110.216
0
LINE
8
BLACK
6
CONTINUOUS
10
136.688
20
-110.216
11
136.783
21
-110.121
0
LINE
8
BLACK
6
CONTINUOUS
10
136.783
20
-110.121
11
136.974
21
-110.025
0
LINE
8
BLACK
6
CONTINUOUS
10
138.498
20
-112.025
11
138.498
21
-110.692
0
LINE
8
BLACK
6
CONTINUOUS
10
138.498
20
-110.883
11
138.593
21
-110.787
0
LINE
8
BLACK
6
CONTINUOUS
10
138.593
20
-110.787
11
138.783
21
-110.692
0
LINE
8
BLACK
6
CONTINUOUS
10
138.783
20
-110.692
11
139.069
21
-110.692
0
LINE
8
BLACK
6
CONTINUOUS
10
139.069
20
-110.692
11
139.26
21
-110.787
0
LINE
8
BLACK
6
CONTINUOUS
10
139.26
20
-110.787
11
139.355
21
-110.978
0
LINE
8
BLACK
6
CONTINUOUS
10
139.355
20
-110.978
11
139.355
21
-112.025
0
LINE
8
BLACK
6
CONTINUOUS
10
139.355
20
-110.978
11
139.45
21
-110.787
0
LINE
8
BLACK
6
CONTINUOUS
10
139.45
20
-110.787
11
139.64
21
-110.692
0
LINE
8
BLACK
6
CONTINUOUS
10
139.64
20
-110.692
11
139.926
21
-110.692
0
LINE
8
BLACK
6
CONTINUOUS
10
139.926
20
-110.692
11
140.117
21
-110.787
0
LINE
8
BLACK
6
CONTINUOUS
10
140.117
20
-110.787
11
140.212
21
-110.978
0
LINE
8
BLACK
6
CONTINUOUS
10
140.212
20
-110.978
11
140.212
21
-112.025
0
LINE
8
BLACK
6
CONTINUOUS
10
141.164
20
-112.025
11
141.164
21
-110.692
0
LINE
8
BLACK
6
CONTINUOUS
10
141.164
20
-110.883
11
141.26
21
-110.787
0
LINE
8
BLACK
6
CONTINUOUS
10
141.26
20
-110.787
11
141.45
21
-110.692
0
LINE
8
BLACK
6
CONTINUOUS
10
141.45
20
-110.692
11
141.736
21
-110.692
0
LINE
8
BLACK
6
CONTINUOUS
10
141.736
20
-110.692
11
141.926
21
-110.787
0
LINE
8
BLACK
6
CONTINUOUS
10
141.926
20
-110.787
11
142.021
21
-110.978
0
LINE
8
BLACK
6
CONTINUOUS
10
142.021
20
-110.978
11
142.021
21
-112.025
0
LINE
8
BLACK
6
CONTINUOUS
10
142.021
20
-110.978
11
142.117
21
-110.787
0
LINE
8
BLACK
6
CONTINUOUS
10
142.117
20
-110.787
11
142.307
21
-110.692
0
LINE
8
BLACK
6
CONTINUOUS
10
142.307
20
-110.692
11
142.593
21
-110.692
0
LINE
8
BLACK
6
CONTINUOUS
10
142.593
20
-110.692
11
142.783
21
-110.787
0
LINE
8
BLACK
6
CONTINUOUS
10
142.783
20
-110.787
11
142.879
21
-110.978
0
LINE
8
BLACK
6
CONTINUOUS
10
142.879
20
-110.978
11
142.879
21
-112.025
0
LINE
8
BLACK
6
CONTINUOUS
10
146.46
20
-109.93
11
144.745
21
-112.502
0
LINE
8
BLACK
6
CONTINUOUS
10
148.707
20
-110.025
11
148.898
21
-110.025
0
LINE
8
BLACK
6
CONTINUOUS
10
148.898
20
-110.025
11
149.088
21
-110.121
0
LINE
8
BLACK
6
CONTINUOUS
10
149.088
20
-110.121
11
149.183
21
-110.216
0
LINE
8
BLACK
6
CONTINUOUS
10
149.183
20
-110.216
11
149.279
21
-110.406
0
LINE
8
BLACK
6
CONTINUOUS
10
149.279
20
-110.406
11
149.374
21
-110.787
0
LINE
8
BLACK
6
CONTINUOUS
10
149.374
20
-110.787
11
149.374
21
-111.263
0
LINE
8
BLACK
6
CONTINUOUS
10
149.374
20
-111.263
11
149.279
21
-111.644
0
LINE
8
BLACK
6
CONTINUOUS
10
149.279
20
-111.644
11
149.183
21
-111.835
0
LINE
8
BLACK
6
CONTINUOUS
10
149.183
20
-111.835
11
149.088
21
-111.93
0
LINE
8
BLACK
6
CONTINUOUS
10
149.088
20
-111.93
11
148.898
21
-112.025
0
LINE
8
BLACK
6
CONTINUOUS
10
148.898
20
-112.025
11
148.707
21
-112.025
0
LINE
8
BLACK
6
CONTINUOUS
10
148.707
20
-112.025
11
148.517
21
-111.93
0
LINE
8
BLACK
6
CONTINUOUS
10
148.517
20
-111.93
11
148.421
21
-111.835
0
LINE
8
BLACK
6
CONTINUOUS
10
148.421
20
-111.835
11
148.326
21
-111.644
0
LINE
8
BLACK
6
CONTINUOUS
10
148.326
20
-111.644
11
148.231
21
-111.263
0
LINE
8
BLACK
6
CONTINUOUS
10
148.231
20
-111.263
11
148.231
21
-110.787
0
LINE
8
BLACK
6
CONTINUOUS
10
148.231
20
-110.787
11
148.326
21
-110.406
0
LINE
8
BLACK
6
CONTINUOUS
10
148.326
20
-110.406
11
148.421
21
-110.216
0
LINE
8
BLACK
6
CONTINUOUS
10
148.421
20
-110.216
11
148.517
21
-110.121
0
LINE
8
BLACK
6
CONTINUOUS
10
148.517
20
-110.121
11
148.707
21
-110.025
0
LINE
8
BLACK
6
CONTINUOUS
10
150.231
20
-111.835
11
150.326
21
-111.93
0
LINE
8
BLACK
6
CONTINUOUS
10
150.326
20
-111.93
11
150.231
21
-112.025
0
LINE
8
BLACK
6
CONTINUOUS
10
150.231
20
-112.025
11
150.136
21
-111.93
0
LINE
8
BLACK
6
CONTINUOUS
10
150.136
20
-111.93
11
150.231
21
-111.835
0
LINE
8
BLACK
6
CONTINUOUS
10
150.231
20
-111.835
11
150.231
21
-112.025
0
LINE
8
BLACK
6
CONTINUOUS
10
151.564
20
-110.025
11
151.755
21
-110.025
0
LINE
8
BLACK
6
CONTINUOUS
10
151.755
20
-110.025
11
151.945
21
-110.121
0
LINE
8
BLACK
6
CONTINUOUS
10
151.945
20
-110.121
11
152.04
21
-110.216
0
LINE
8
BLACK
6
CONTINUOUS
10
152.04
20
-110.216
11
152.136
21
-110.406
0
LINE
8
BLACK
6
CONTINUOUS
10
152.136
20
-110.406
11
152.231
21
-110.787
0
LINE
8
BLACK
6
CONTINUOUS
10
152.231
20
-110.787
11
152.231
21
-111.263
0
LINE
8
BLACK
6
CONTINUOUS
10
152.231
20
-111.263
11
152.136
21
-111.644
0
LINE
8
BLACK
6
CONTINUOUS
10
152.136
20
-111.644
11
152.04
21
-111.835
0
LINE
8
BLACK
6
CONTINUOUS
10
152.04
20
-111.835
11
151.945
21
-111.93
0
LINE
8
BLACK
6
CONTINUOUS
10
151.945
20
-111.93
11
151.755
21
-112.025
0
LINE
8
BLACK
6
CONTINUOUS
10
151.755
20
-112.025
11
151.564
21
-112.025
0
LINE
8
BLACK
6
CONTINUOUS
10
151.564
20
-112.025
11
151.374
21
-111.93
0
LINE
8
BLACK
6
CONTINUOUS
10
151.374
20
-111.93
11
151.279
21
-111.835
0
LINE
8
BLACK
6
CONTINUOUS
10
151.279
20
-111.835
11
151.183
21
-111.644
0
LINE
8
BLACK
6
CONTINUOUS
10
151.183
20
-111.644
11
151.088
21
-111.263
0
LINE
8
BLACK
6
CONTINUOUS
10
151.088
20
-111.263
11
151.088
21
-110.787
0
LINE
8
BLACK
6
CONTINUOUS
10
151.088
20
-110.787
11
151.183
21
-110.406
0
LINE
8
BLACK
6
CONTINUOUS
10
151.183
20
-110.406
11
151.279
21
-110.216
0
LINE
8
BLACK
6
CONTINUOUS
10
151.279
20
-110.216
11
151.374
21
-110.121
0
LINE
8
BLACK
6
CONTINUOUS
10
151.374
20
-110.121
11
151.564
21
-110.025
0
LINE
8
BLACK
6
CONTINUOUS
10
152.898
20
-110.025
11
154.136
21
-110.025
0
LINE
8
BLACK
6
CONTINUOUS
10
154.136
20
-110.025
11
153.469
21
-110.787
0
LINE
8
BLACK
6
CONTINUOUS
10
153.469
20
-110.787
11
153.755
21
-110.787
0
LINE
8
BLACK
6
CONTINUOUS
10
153.755
20
-110.787
11
153.945
21
-110.883
0
LINE
8
BLACK
6
CONTINUOUS
10
153.945
20
-110.883
11
154.04
21
-110.978
0
LINE
8
BLACK
6
CONTINUOUS
10
154.04
20
-110.978
11
154.136
21
-111.168
0
LINE
8
BLACK
6
CONTINUOUS
10
154.136
20
-111.168
11
154.136
21
-111.644
0
LINE
8
BLACK
6
CONTINUOUS
10
154.136
20
-111.644
11
154.04
21
-111.835
0
LINE
8
BLACK
6
CONTINUOUS
10
154.04
20
-111.835
11
153.945
21
-111.93
0
LINE
8
BLACK
6
CONTINUOUS
10
153.945
20
-111.93
11
153.755
21
-112.025
0
LINE
8
BLACK
6
CONTINUOUS
10
153.755
20
-112.025
11
153.183
21
-112.025
0
LINE
8
BLACK
6
CONTINUOUS
10
153.183
20
-112.025
11
152.993
21
-111.93
0
LINE
8
BLACK
6
CONTINUOUS
10
152.993
20
-111.93
11
152.898
21
-111.835
0
LINE
8
BLACK
6
CONTINUOUS
10
155.945
20
-110.025
11
154.993
21
-110.025
0
LINE
8
BLACK
6
CONTINUOUS
10
154.993
20
-110.025
11
154.898
21
-110.978
0
LINE
8
BLACK
6
CONTINUOUS
10
154.898
20
-110.978
11
154.993
21
-110.883
0
LINE
8
BLACK
6
CONTINUOUS
10
154.993
20
-110.883
11
155.183
21
-110.787
0
LINE
8
BLACK
6
CONTINUOUS
10
155.183
20
-110.787
11
155.66
21
-110.787
0
LINE
8
BLACK
6
CONTINUOUS
10
155.66
20
-110.787
11
155.85
21
-110.883
0
LINE
8
BLACK
6
CONTINUOUS
10
155.85
20
-110.883
11
155.945
21
-110.978
0
LINE
8
BLACK
6
CONTINUOUS
10
155.945
20
-110.978
11
156.04
21
-111.168
0
LINE
8
BLACK
6
CONTINUOUS
10
156.04
20
-111.168
11
156.04
21
-111.644
0
LINE
8
BLACK
6
CONTINUOUS
10
156.04
20
-111.644
11
155.945
21
-111.835
0
LINE
8
BLACK
6
CONTINUOUS
10
155.945
20
-111.835
11
155.85
21
-111.93
0
LINE
8
BLACK
6
CONTINUOUS
10
155.85
20
-111.93
11
155.66
21
-112.025
0
LINE
8
BLACK
6
CONTINUOUS
10
155.66
20
-112.025
11
155.183
21
-112.025
0
LINE
8
BLACK
6
CONTINUOUS
10
155.183
20
-112.025
11
154.993
21
-111.93
0
LINE
8
BLACK
6
CONTINUOUS
10
154.993
20
-111.93
11
154.898
21
-111.835
0
LINE
8
BLACK
6
CONTINUOUS
10
157.279
20
-110.025
11
157.469
21
-110.025
0
LINE
8
BLACK
6
CONTINUOUS
10
157.469
20
-110.025
11
157.66
21
-110.121
0
LINE
8
BLACK
6
CONTINUOUS
10
157.66
20
-110.121
11
157.755
21
-110.216
0
LINE
8
BLACK
6
CONTINUOUS
10
157.755
20
-110.216
11
157.85
21
-110.406
0
LINE
8
BLACK
6
CONTINUOUS
10
157.85
20
-110.406
11
157.945
21
-110.787
0
LINE
8
BLACK
6
CONTINUOUS
10
157.945
20
-110.787
11
157.945
21
-111.263
0
LINE
8
BLACK
6
CONTINUOUS
10
157.945
20
-111.263
11
157.85
21
-111.644
0
LINE
8
BLACK
6
CONTINUOUS
10
157.85
20
-111.644
11
157.755
21
-111.835
0
LINE
8
BLACK
6
CONTINUOUS
10
157.755
20
-111.835
11
157.66
21
-111.93
0
LINE
8
BLACK
6
CONTINUOUS
10
157.66
20
-111.93
11
157.469
21
-112.025
0
LINE
8
BLACK
6
CONTINUOUS
10
157.469
20
-112.025
11
157.279
21
-112.025
0
LINE
8
BLACK
6
CONTINUOUS
10
157.279
20
-112.025
11
157.088
21
-111.93
0
LINE
8
BLACK
6
CONTINUOUS
10
157.088
20
-111.93
11
156.993
21
-111.835
0
LINE
8
BLACK
6
CONTINUOUS
10
156.993
20
-111.835
11
156.898
21
-111.644
0
LINE
8
BLACK
6
CONTINUOUS
10
156.898
20
-111.644
11
156.802
21
-111.263
0
LINE
8
BLACK
6
CONTINUOUS
10
156.802
20
-111.263
11
156.802
21
-110.787
0
LINE
8
BLACK
6
CONTINUOUS
10
156.802
20
-110.787
11
156.898
21
-110.406
0
LINE
8
BLACK
6
CONTINUOUS
10
156.898
20
-110.406
11
156.993
21
-110.216
0
LINE
8
BLACK
6
CONTINUOUS
10
156.993
20
-110.216
11
157.088
21
-110.121
0
LINE
8
BLACK
6
CONTINUOUS
10
157.088
20
-110.121
11
157.279
21
-110.025
0
LINE
8
BLACK
6
CONTINUOUS
10
158.707
20
-110.025
11
158.707
21
-110.406
0
LINE
8
BLACK
6
CONTINUOUS
10
159.469
20
-110.025
11
159.469
21
-110.406
0
LINE
8
BLACK
6
CONTINUOUS
10
162.098
20
-112.787
11
162.002
21
-112.692
0
LINE
8
BLACK
6
CONTINUOUS
10
162.002
20
-112.692
11
161.812
21
-112.406
0
LINE
8
BLACK
6
CONTINUOUS
10
161.812
20
-112.406
11
161.717
21
-112.216
0
LINE
8
BLACK
6
CONTINUOUS
10
161.717
20
-112.216
11
161.621
21
-111.93
0
LINE
8
BLACK
6
CONTINUOUS
10
161.621
20
-111.93
11
161.526
21
-111.454
0
LINE
8
BLACK
6
CONTINUOUS
10
161.526
20
-111.454
11
161.526
21
-111.073
0
LINE
8
BLACK
6
CONTINUOUS
10
161.526
20
-111.073
11
161.621
21
-110.597
0
LINE
8
BLACK
6
CONTINUOUS
10
161.621
20
-110.597
11
161.717
21
-110.311
0
LINE
8
BLACK
6
CONTINUOUS
10
161.717
20
-110.311
11
161.812
21
-110.121
0
LINE
8
BLACK
6
CONTINUOUS
10
161.812
20
-110.121
11
162.002
21
-109.835
0
LINE
8
BLACK
6
CONTINUOUS
10
162.002
20
-109.835
11
162.098
21
-109.74
0
LINE
8
BLACK
6
CONTINUOUS
10
163.907
20
-112.025
11
162.764
21
-112.025
0
LINE
8
BLACK
6
CONTINUOUS
10
163.336
20
-112.025
11
163.336
21
-110.025
0
LINE
8
BLACK
6
CONTINUOUS
10
163.336
20
-110.025
11
163.145
21
-110.311
0
LINE
8
BLACK
6
CONTINUOUS
10
163.145
20
-110.311
11
162.955
21
-110.502
0
LINE
8
BLACK
6
CONTINUOUS
10
162.955
20
-110.502
11
162.764
21
-110.597
0
LINE
8
BLACK
6
CONTINUOUS
10
164.669
20
-110.216
11
164.764
21
-110.121
0
LINE
8
BLACK
6
CONTINUOUS
10
164.764
20
-110.121
11
164.955
21
-110.025
0
LINE
8
BLACK
6
CONTINUOUS
10
164.955
20
-110.025
11
165.431
21
-110.025
0
LINE
8
BLACK
6
CONTINUOUS
10
165.431
20
-110.025
11
165.621
21
-110.121
0
LINE
8
BLACK
6
CONTINUOUS
10
165.621
20
-110.121
11
165.717
21
-110.216
0
LINE
8
BLACK
6
CONTINUOUS
10
165.717
20
-110.216
11
165.812
21
-110.406
0
LINE
8
BLACK
6
CONTINUOUS
10
165.812
20
-110.406
11
165.812
21
-110.597
0
LINE
8
BLACK
6
CONTINUOUS
10
165.812
20
-110.597
11
165.717
21
-110.883
0
LINE
8
BLACK
6
CONTINUOUS
10
165.717
20
-110.883
11
164.574
21
-112.025
0
LINE
8
BLACK
6
CONTINUOUS
10
164.574
20
-112.025
11
165.812
21
-112.025
0
LINE
8
BLACK
6
CONTINUOUS
10
167.869
20
-112.025
11
167.869
21
-110.025
0
LINE
8
BLACK
6
CONTINUOUS
10
168.726
20
-112.025
11
168.726
21
-110.978
0
LINE
8
BLACK
6
CONTINUOUS
10
168.726
20
-110.978
11
168.631
21
-110.787
0
LINE
8
BLACK
6
CONTINUOUS
10
168.631
20
-110.787
11
168.44
21
-110.692
0
LINE
8
BLACK
6
CONTINUOUS
10
168.44
20
-110.692
11
168.155
21
-110.692
0
LINE
8
BLACK
6
CONTINUOUS
10
168.155
20
-110.692
11
167.964
21
-110.787
0
LINE
8
BLACK
6
CONTINUOUS
10
167.964
20
-110.787
11
167.869
21
-110.883
0
LINE
8
BLACK
6
CONTINUOUS
10
169.964
20
-112.025
11
169.774
21
-111.93
0
LINE
8
BLACK
6
CONTINUOUS
10
169.774
20
-111.93
11
169.679
21
-111.835
0
LINE
8
BLACK
6
CONTINUOUS
10
169.679
20
-111.835
11
169.583
21
-111.644
0
LINE
8
BLACK
6
CONTINUOUS
10
169.583
20
-111.644
11
169.583
21
-111.073
0
LINE
8
BLACK
6
CONTINUOUS
10
169.583
20
-111.073
11
169.679
21
-110.883
0
LINE
8
BLACK
6
CONTINUOUS
10
169.679
20
-110.883
11
169.774
21
-110.787
0
LINE
8
BLACK
6
CONTINUOUS
10
169.774
20
-110.787
11
169.964
21
-110.692
0
LINE
8
BLACK
6
CONTINUOUS
10
169.964
20
-110.692
11
170.25
21
-110.692
0
LINE
8
BLACK
6
CONTINUOUS
10
170.25
20
-110.692
11
170.44
21
-110.787
0
LINE
8
BLACK
6
CONTINUOUS
10
170.44
20
-110.787
11
170.536
21
-110.883
0
LINE
8
BLACK
6
CONTINUOUS
10
170.536
20
-110.883
11
170.631
21
-111.073
0
LINE
8
BLACK
6
CONTINUOUS
10
170.631
20
-111.073
11
170.631
21
-111.644
0
LINE
8
BLACK
6
CONTINUOUS
10
170.631
20
-111.644
11
170.536
21
-111.835
0
LINE
8
BLACK
6
CONTINUOUS
10
170.536
20
-111.835
11
170.44
21
-111.93
0
LINE
8
BLACK
6
CONTINUOUS
10
170.44
20
-111.93
11
170.25
21
-112.025
0
LINE
8
BLACK
6
CONTINUOUS
10
170.25
20
-112.025
11
169.964
21
-112.025
0
LINE
8
BLACK
6
CONTINUOUS
10
171.774
20
-112.025
11
171.583
21
-111.93
0
LINE
8
BLACK
6
CONTINUOUS
10
171.583
20
-111.93
11
171.488
21
-111.74
0
LINE
8
BLACK
6
CONTINUOUS
10
171.488
20
-111.74
11
171.488
21
-110.025
0
LINE
8
BLACK
6
CONTINUOUS
10
173.298
20
-111.93
11
173.107
21
-112.025
0
LINE
8
BLACK
6
CONTINUOUS
10
173.107
20
-112.025
11
172.726
21
-112.025
0
LINE
8
BLACK
6
CONTINUOUS
10
172.726
20
-112.025
11
172.536
21
-111.93
0
LINE
8
BLACK
6
CONTINUOUS
10
172.536
20
-111.93
11
172.44
21
-111.74
0
LINE
8
BLACK
6
CONTINUOUS
10
172.44
20
-111.74
11
172.44
21
-110.978
0
LINE
8
BLACK
6
CONTINUOUS
10
172.44
20
-110.978
11
172.536
21
-110.787
0
LINE
8
BLACK
6
CONTINUOUS
10
172.536
20
-110.787
11
172.726
21
-110.692
0
LINE
8
BLACK
6
CONTINUOUS
10
172.726
20
-110.692
11
173.107
21
-110.692
0
LINE
8
BLACK
6
CONTINUOUS
10
173.107
20
-110.692
11
173.298
21
-110.787
0
LINE
8
BLACK
6
CONTINUOUS
10
173.298
20
-110.787
11
173.393
21
-110.978
0
LINE
8
BLACK
6
CONTINUOUS
10
173.393
20
-110.978
11
173.393
21
-111.168
0
LINE
8
BLACK
6
CONTINUOUS
10
173.393
20
-111.168
11
172.44
21
-111.359
0
LINE
8
BLACK
6
CONTINUOUS
10
174.155
20
-111.93
11
174.345
21
-112.025
0
LINE
8
BLACK
6
CONTINUOUS
10
174.345
20
-112.025
11
174.726
21
-112.025
0
LINE
8
BLACK
6
CONTINUOUS
10
174.726
20
-112.025
11
174.917
21
-111.93
0
LINE
8
BLACK
6
CONTINUOUS
10
174.917
20
-111.93
11
175.012
21
-111.74
0
LINE
8
BLACK
6
CONTINUOUS
10
175.012
20
-111.74
11
175.012
21
-111.644
0
LINE
8
BLACK
6
CONTINUOUS
10
175.012
20
-111.644
11
174.917
21
-111.454
0
LINE
8
BLACK
6
CONTINUOUS
10
174.917
20
-111.454
11
174.726
21
-111.359
0
LINE
8
BLACK
6
CONTINUOUS
10
174.726
20
-111.359
11
174.44
21
-111.359
0
LINE
8
BLACK
6
CONTINUOUS
10
174.44
20
-111.359
11
174.25
21
-111.263
0
LINE
8
BLACK
6
CONTINUOUS
10
174.25
20
-111.263
11
174.155
21
-111.073
0
LINE
8
BLACK
6
CONTINUOUS
10
174.155
20
-111.073
11
174.155
21
-110.978
0
LINE
8
BLACK
6
CONTINUOUS
10
174.155
20
-110.978
11
174.25
21
-110.787
0
LINE
8
BLACK
6
CONTINUOUS
10
174.25
20
-110.787
11
174.44
21
-110.692
0
LINE
8
BLACK
6
CONTINUOUS
10
174.44
20
-110.692
11
174.726
21
-110.692
0
LINE
8
BLACK
6
CONTINUOUS
10
174.726
20
-110.692
11
174.917
21
-110.787
0
LINE
8
BLACK
6
CONTINUOUS
10
175.679
20
-112.787
11
175.774
21
-112.692
0
LINE
8
BLACK
6
CONTINUOUS
10
175.774
20
-112.692
11
175.964
21
-112.406
0
LINE
8
BLACK
6
CONTINUOUS
10
175.964
20
-112.406
11
176.06
21
-112.216
0
LINE
8
BLACK
6
CONTINUOUS
10
176.06
20
-112.216
11
176.155
21
-111.93
0
LINE
8
BLACK
6
CONTINUOUS
10
176.155
20
-111.93
11
176.25
21
-111.454
0
LINE
8
BLACK
6
CONTINUOUS
10
176.25
20
-111.454
11
176.25
21
-111.073
0
LINE
8
BLACK
6
CONTINUOUS
10
176.25
20
-111.073
11
176.155
21
-110.597
0
LINE
8
BLACK
6
CONTINUOUS
10
176.155
20
-110.597
11
176.06
21
-110.311
0
LINE
8
BLACK
6
CONTINUOUS
10
176.06
20
-110.311
11
175.964
21
-110.121
0
LINE
8
BLACK
6
CONTINUOUS
10
175.964
20
-110.121
11
175.774
21
-109.835
0
LINE
8
BLACK
6
CONTINUOUS
10
175.774
20
-109.835
11
175.679
21
-109.74
0
CIRCLE
8
BLACK
10
126.95
20
-113.931
40
0.5
0
LINE
8
BLACK
6
CONTINUOUS
10
130.974
20
-114.665
11
129.831
21
-114.665
0
LINE
8
BLACK
6
CONTINUOUS
10
130.402
20
-114.665
11
130.402
21
-112.665
0
LINE
8
BLACK
6
CONTINUOUS
10
130.402
20
-112.665
11
130.212
21
-112.951
0
LINE
8
BLACK
6
CONTINUOUS
10
130.212
20
-112.951
11
130.021
21
-113.142
0
LINE
8
BLACK
6
CONTINUOUS
10
130.021
20
-113.142
11
129.831
21
-113.237
0
LINE
8
BLACK
6
CONTINUOUS
10
131.831
20
-114.475
11
131.926
21
-114.57
0
LINE
8
BLACK
6
CONTINUOUS
10
131.926
20
-114.57
11
131.831
21
-114.665
0
LINE
8
BLACK
6
CONTINUOUS
10
131.831
20
-114.665
11
131.736
21
-114.57
0
LINE
8
BLACK
6
CONTINUOUS
10
131.736
20
-114.57
11
131.831
21
-114.475
0
LINE
8
BLACK
6
CONTINUOUS
10
131.831
20
-114.475
11
131.831
21
-114.665
0
LINE
8
BLACK
6
CONTINUOUS
10
133.164
20
-112.665
11
133.355
21
-112.665
0
LINE
8
BLACK
6
CONTINUOUS
10
133.355
20
-112.665
11
133.545
21
-112.761
0
LINE
8
BLACK
6
CONTINUOUS
10
133.545
20
-112.761
11
133.64
21
-112.856
0
LINE
8
BLACK
6
CONTINUOUS
10
133.64
20
-112.856
11
133.736
21
-113.046
0
LINE
8
BLACK
6
CONTINUOUS
10
133.736
20
-113.046
11
133.831
21
-113.427
0
LINE
8
BLACK
6
CONTINUOUS
10
133.831
20
-113.427
11
133.831
21
-113.903
0
LINE
8
BLACK
6
CONTINUOUS
10
133.831
20
-113.903
11
133.736
21
-114.284
0
LINE
8
BLACK
6
CONTINUOUS
10
133.736
20
-114.284
11
133.64
21
-114.475
0
LINE
8
BLACK
6
CONTINUOUS
10
133.64
20
-114.475
11
133.545
21
-114.57
0
LINE
8
BLACK
6
CONTINUOUS
10
133.545
20
-114.57
11
133.355
21
-114.665
0
LINE
8
BLACK
6
CONTINUOUS
10
133.355
20
-114.665
11
133.164
21
-114.665
0
LINE
8
BLACK
6
CONTINUOUS
10
133.164
20
-114.665
11
132.974
21
-114.57
0
LINE
8
BLACK
6
CONTINUOUS
10
132.974
20
-114.57
11
132.879
21
-114.475
0
LINE
8
BLACK
6
CONTINUOUS
10
132.879
20
-114.475
11
132.783
21
-114.284
0
LINE
8
BLACK
6
CONTINUOUS
10
132.783
20
-114.284
11
132.688
21
-113.903
0
LINE
8
BLACK
6
CONTINUOUS
10
132.688
20
-113.903
11
132.688
21
-113.427
0
LINE
8
BLACK
6
CONTINUOUS
10
132.688
20
-113.427
11
132.783
21
-113.046
0
LINE
8
BLACK
6
CONTINUOUS
10
132.783
20
-113.046
11
132.879
21
-112.856
0
LINE
8
BLACK
6
CONTINUOUS
10
132.879
20
-112.856
11
132.974
21
-112.761
0
LINE
8
BLACK
6
CONTINUOUS
10
132.974
20
-112.761
11
133.164
21
-112.665
0
LINE
8
BLACK
6
CONTINUOUS
10
135.069
20
-112.665
11
135.26
21
-112.665
0
LINE
8
BLACK
6
CONTINUOUS
10
135.26
20
-112.665
11
135.45
21
-112.761
0
LINE
8
BLACK
6
CONTINUOUS
10
135.45
20
-112.761
11
135.545
21
-112.856
0
LINE
8
BLACK
6
CONTINUOUS
10
135.545
20
-112.856
11
135.64
21
-113.046
0
LINE
8
BLACK
6
CONTINUOUS
10
135.64
20
-113.046
11
135.736
21
-113.427
0
LINE
8
BLACK
6
CONTINUOUS
10
135.736
20
-113.427
11
135.736
21
-113.903
0
LINE
8
BLACK
6
CONTINUOUS
10
135.736
20
-113.903
11
135.64
21
-114.284
0
LINE
8
BLACK
6
CONTINUOUS
10
135.64
20
-114.284
11
135.545
21
-114.475
0
LINE
8
BLACK
6
CONTINUOUS
10
135.545
20
-114.475
11
135.45
21
-114.57
0
LINE
8
BLACK
6
CONTINUOUS
10
135.45
20
-114.57
11
135.26
21
-114.665
0
LINE
8
BLACK
6
CONTINUOUS
10
135.26
20
-114.665
11
135.069
21
-114.665
0
LINE
8
BLACK
6
CONTINUOUS
10
135.069
20
-114.665
11
134.879
21
-114.57
0
LINE
8
BLACK
6
CONTINUOUS
10
134.879
20
-114.57
11
134.783
21
-114.475
0
LINE
8
BLACK
6
CONTINUOUS
10
134.783
20
-114.475
11
134.688
21
-114.284
0
LINE
8
BLACK
6
CONTINUOUS
10
134.688
20
-114.284
11
134.593
21
-113.903
0
LINE
8
BLACK
6
CONTINUOUS
10
134.593
20
-113.903
11
134.593
21
-113.427
0
LINE
8
BLACK
6
CONTINUOUS
10
134.593
20
-113.427
11
134.688
21
-113.046
0
LINE
8
BLACK
6
CONTINUOUS
10
134.688
20
-113.046
11
134.783
21
-112.856
0
LINE
8
BLACK
6
CONTINUOUS
10
134.783
20
-112.856
11
134.879
21
-112.761
0
LINE
8
BLACK
6
CONTINUOUS
10
134.879
20
-112.761
11
135.069
21
-112.665
0
LINE
8
BLACK
6
CONTINUOUS
10
136.974
20
-112.665
11
137.164
21
-112.665
0
LINE
8
BLACK
6
CONTINUOUS
10
137.164
20
-112.665
11
137.355
21
-112.761
0
LINE
8
BLACK
6
CONTINUOUS
10
137.355
20
-112.761
11
137.45
21
-112.856
0
LINE
8
BLACK
6
CONTINUOUS
10
137.45
20
-112.856
11
137.545
21
-113.046
0
LINE
8
BLACK
6
CONTINUOUS
10
137.545
20
-113.046
11
137.64
21
-113.427
0
LINE
8
BLACK
6
CONTINUOUS
10
137.64
20
-113.427
11
137.64
21
-113.903
0
LINE
8
BLACK
6
CONTINUOUS
10
137.64
20
-113.903
11
137.545
21
-114.284
0
LINE
8
BLACK
6
CONTINUOUS
10
137.545
20
-114.284
11
137.45
21
-114.475
0
LINE
8
BLACK
6
CONTINUOUS
10
137.45
20
-114.475
11
137.355
21
-114.57
0
LINE
8
BLACK
6
CONTINUOUS
10
137.355
20
-114.57
11
137.164
21
-114.665
0
LINE
8
BLACK
6
CONTINUOUS
10
137.164
20
-114.665
11
136.974
21
-114.665
0
LINE
8
BLACK
6
CONTINUOUS
10
136.974
20
-114.665
11
136.783
21
-114.57
0
LINE
8
BLACK
6
CONTINUOUS
10
136.783
20
-114.57
11
136.688
21
-114.475
0
LINE
8
BLACK
6
CONTINUOUS
10
136.688
20
-114.475
11
136.593
21
-114.284
0
LINE
8
BLACK
6
CONTINUOUS
10
136.593
20
-114.284
11
136.498
21
-113.903
0
LINE
8
BLACK
6
CONTINUOUS
10
136.498
20
-113.903
11
136.498
21
-113.427
0
LINE
8
BLACK
6
CONTINUOUS
10
136.498
20
-113.427
11
136.593
21
-113.046
0
LINE
8
BLACK
6
CONTINUOUS
10
136.593
20
-113.046
11
136.688
21
-112.856
0
LINE
8
BLACK
6
CONTINUOUS
10
136.688
20
-112.856
11
136.783
21
-112.761
0
LINE
8
BLACK
6
CONTINUOUS
10
136.783
20
-112.761
11
136.974
21
-112.665
0
LINE
8
BLACK
6
CONTINUOUS
10
138.498
20
-114.665
11
138.498
21
-113.332
0
LINE
8
BLACK
6
CONTINUOUS
10
138.498
20
-113.523
11
138.593
21
-113.427
0
LINE
8
BLACK
6
CONTINUOUS
10
138.593
20
-113.427
11
138.783
21
-113.332
0
LINE
8
BLACK
6
CONTINUOUS
10
138.783
20
-113.332
11
139.069
21
-113.332
0
LINE
8
BLACK
6
CONTINUOUS
10
139.069
20
-113.332
11
139.26
21
-113.427
0
LINE
8
BLACK
6
CONTINUOUS
10
139.26
20
-113.427
11
139.355
21
-113.618
0
LINE
8
BLACK
6
CONTINUOUS
10
139.355
20
-113.618
11
139.355
21
-114.665
0
LINE
8
BLACK
6
CONTINUOUS
10
139.355
20
-113.618
11
139.45
21
-113.427
0
LINE
8
BLACK
6
CONTINUOUS
10
139.45
20
-113.427
11
139.64
21
-113.332
0
LINE
8
BLACK
6
CONTINUOUS
10
139.64
20
-113.332
11
139.926
21
-113.332
0
LINE
8
BLACK
6
CONTINUOUS
10
139.926
20
-113.332
11
140.117
21
-113.427
0
LINE
8
BLACK
6
CONTINUOUS
10
140.117
20
-113.427
11
140.212
21
-113.618
0
LINE
8
BLACK
6
CONTINUOUS
10
140.212
20
-113.618
11
140.212
21
-114.665
0
LINE
8
BLACK
6
CONTINUOUS
10
141.164
20
-114.665
11
141.164
21
-113.332
0
LINE
8
BLACK
6
CONTINUOUS
10
141.164
20
-113.523
11
141.26
21
-113.427
0
LINE
8
BLACK
6
CONTINUOUS
10
141.26
20
-113.427
11
141.45
21
-113.332
0
LINE
8
BLACK
6
CONTINUOUS
10
141.45
20
-113.332
11
141.736
21
-113.332
0
LINE
8
BLACK
6
CONTINUOUS
10
141.736
20
-113.332
11
141.926
21
-113.427
0
LINE
8
BLACK
6
CONTINUOUS
10
141.926
20
-113.427
11
142.021
21
-113.618
0
LINE
8
BLACK
6
CONTINUOUS
10
142.021
20
-113.618
11
142.021
21
-114.665
0
LINE
8
BLACK
6
CONTINUOUS
10
142.021
20
-113.618
11
142.117
21
-113.427
0
LINE
8
BLACK
6
CONTINUOUS
10
142.117
20
-113.427
11
142.307
21
-113.332
0
LINE
8
BLACK
6
CONTINUOUS
10
142.307
20
-113.332
11
142.593
21
-113.332
0
LINE
8
BLACK
6
CONTINUOUS
10
142.593
20
-113.332
11
142.783
21
-113.427
0
LINE
8
BLACK
6
CONTINUOUS
10
142.783
20
-113.427
11
142.879
21
-113.618
0
LINE
8
BLACK
6
CONTINUOUS
10
142.879
20
-113.618
11
142.879
21
-114.665
0
LINE
8
BLACK
6
CONTINUOUS
10
146.46
20
-112.57
11
144.745
21
-115.142
0
LINE
8
BLACK
6
CONTINUOUS
10
148.707
20
-112.665
11
148.898
21
-112.665
0
LINE
8
BLACK
6
CONTINUOUS
10
148.898
20
-112.665
11
149.088
21
-112.761
0
LINE
8
BLACK
6
CONTINUOUS
10
149.088
20
-112.761
11
149.183
21
-112.856
0
LINE
8
BLACK
6
CONTINUOUS
10
149.183
20
-112.856
11
149.279
21
-113.046
0
LINE
8
BLACK
6
CONTINUOUS
10
149.279
20
-113.046
11
149.374
21
-113.427
0
LINE
8
BLACK
6
CONTINUOUS
10
149.374
20
-113.427
11
149.374
21
-113.903
0
LINE
8
BLACK
6
CONTINUOUS
10
149.374
20
-113.903
11
149.279
21
-114.284
0
LINE
8
BLACK
6
CONTINUOUS
10
149.279
20
-114.284
11
149.183
21
-114.475
0
LINE
8
BLACK
6
CONTINUOUS
10
149.183
20
-114.475
11
149.088
21
-114.57
0
LINE
8
BLACK
6
CONTINUOUS
10
149.088
20
-114.57
11
148.898
21
-114.665
0
LINE
8
BLACK
6
CONTINUOUS
10
148.898
20
-114.665
11
148.707
21
-114.665
0
LINE
8
BLACK
6
CONTINUOUS
10
148.707
20
-114.665
11
148.517
21
-114.57
0
LINE
8
BLACK
6
CONTINUOUS
10
148.517
20
-114.57
11
148.421
21
-114.475
0
LINE
8
BLACK
6
CONTINUOUS
10
148.421
20
-114.475
11
148.326
21
-114.284
0
LINE
8
BLACK
6
CONTINUOUS
10
148.326
20
-114.284
11
148.231
21
-113.903
0
LINE
8
BLACK
6
CONTINUOUS
10
148.231
20
-113.903
11
148.231
21
-113.427
0
LINE
8
BLACK
6
CONTINUOUS
10
148.231
20
-113.427
11
148.326
21
-113.046
0
LINE
8
BLACK
6
CONTINUOUS
10
148.326
20
-113.046
11
148.421
21
-112.856
0
LINE
8
BLACK
6
CONTINUOUS
10
148.421
20
-112.856
11
148.517
21
-112.761
0
LINE
8
BLACK
6
CONTINUOUS
10
148.517
20
-112.761
11
148.707
21
-112.665
0
LINE
8
BLACK
6
CONTINUOUS
10
150.231
20
-114.475
11
150.326
21
-114.57
0
LINE
8
BLACK
6
CONTINUOUS
10
150.326
20
-114.57
11
150.231
21
-114.665
0
LINE
8
BLACK
6
CONTINUOUS
10
150.231
20
-114.665
11
150.136
21
-114.57
0
LINE
8
BLACK
6
CONTINUOUS
10
150.136
20
-114.57
11
150.231
21
-114.475
0
LINE
8
BLACK
6
CONTINUOUS
10
150.231
20
-114.475
11
150.231
21
-114.665
0
LINE
8
BLACK
6
CONTINUOUS
10
151.564
20
-112.665
11
151.755
21
-112.665
0
LINE
8
BLACK
6
CONTINUOUS
10
151.755
20
-112.665
11
151.945
21
-112.761
0
LINE
8
BLACK
6
CONTINUOUS
10
151.945
20
-112.761
11
152.04
21
-112.856
0
LINE
8
BLACK
6
CONTINUOUS
10
152.04
20
-112.856
11
152.136
21
-113.046
0
LINE
8
BLACK
6
CONTINUOUS
10
152.136
20
-113.046
11
152.231
21
-113.427
0
LINE
8
BLACK
6
CONTINUOUS
10
152.231
20
-113.427
11
152.231
21
-113.903
0
LINE
8
BLACK
6
CONTINUOUS
10
152.231
20
-113.903
11
152.136
21
-114.284
0
LINE
8
BLACK
6
CONTINUOUS
10
152.136
20
-114.284
11
152.04
21
-114.475
0
LINE
8
BLACK
6
CONTINUOUS
10
152.04
20
-114.475
11
151.945
21
-114.57
0
LINE
8
BLACK
6
CONTINUOUS
10
151.945
20
-114.57
11
151.755
21
-114.665
0
LINE
8
BLACK
6
CONTINUOUS
10
151.755
20
-114.665
11
151.564
21
-114.665
0
LINE
8
BLACK
6
CONTINUOUS
10
151.564
20
-114.665
11
151.374
21
-114.57
0
LINE
8
BLACK
6
CONTINUOUS
10
151.374
20
-114.57
11
151.279
21
-114.475
0
LINE
8
BLACK
6
CONTINUOUS
10
151.279
20
-114.475
11
151.183
21
-114.284
0
LINE
8
BLACK
6
CONTINUOUS
10
151.183
20
-114.284
11
151.088
21
-113.903
0
LINE
8
BLACK
6
CONTINUOUS
10
151.088
20
-113.903
11
151.088
21
-113.427
0
LINE
8
BLACK
6
CONTINUOUS
10
151.088
20
-113.427
11
151.183
21
-113.046
0
LINE
8
BLACK
6
CONTINUOUS
10
151.183
20
-113.046
11
151.279
21
-112.856
0
LINE
8
BLACK
6
CONTINUOUS
10
151.279
20
-112.856
11
151.374
21
-112.761
0
LINE
8
BLACK
6
CONTINUOUS
10
151.374
20
-112.761
11
151.564
21
-112.665
0
LINE
8
BLACK
6
CONTINUOUS
10
152.898
20
-112.665
11
154.136
21
-112.665
0
LINE
8
BLACK
6
CONTINUOUS
10
154.136
20
-112.665
11
153.469
21
-113.427
0
LINE
8
BLACK
6
CONTINUOUS
10
153.469
20
-113.427
11
153.755
21
-113.427
0
LINE
8
BLACK
6
CONTINUOUS
10
153.755
20
-113.427
11
153.945
21
-113.523
0
LINE
8
BLACK
6
CONTINUOUS
10
153.945
20
-113.523
11
154.04
21
-113.618
0
LINE
8
BLACK
6
CONTINUOUS
10
154.04
20
-113.618
11
154.136
21
-113.808
0
LINE
8
BLACK
6
CONTINUOUS
10
154.136
20
-113.808
11
154.136
21
-114.284
0
LINE
8
BLACK
6
CONTINUOUS
10
154.136
20
-114.284
11
154.04
21
-114.475
0
LINE
8
BLACK
6
CONTINUOUS
10
154.04
20
-114.475
11
153.945
21
-114.57
0
LINE
8
BLACK
6
CONTINUOUS
10
153.945
20
-114.57
11
153.755
21
-114.665
0
LINE
8
BLACK
6
CONTINUOUS
10
153.755
20
-114.665
11
153.183
21
-114.665
0
LINE
8
BLACK
6
CONTINUOUS
10
153.183
20
-114.665
11
152.993
21
-114.57
0
LINE
8
BLACK
6
CONTINUOUS
10
152.993
20
-114.57
11
152.898
21
-114.475
0
LINE
8
BLACK
6
CONTINUOUS
10
155.088
20
-114.665
11
155.469
21
-114.665
0
LINE
8
BLACK
6
CONTINUOUS
10
155.469
20
-114.665
11
155.66
21
-114.57
0
LINE
8
BLACK
6
CONTINUOUS
10
155.66
20
-114.57
11
155.755
21
-114.475
0
LINE
8
BLACK
6
CONTINUOUS
10
155.755
20
-114.475
11
155.945
21
-114.189
0
LINE
8
BLACK
6
CONTINUOUS
10
155.945
20
-114.189
11
156.04
21
-113.808
0
LINE
8
BLACK
6
CONTINUOUS
10
156.04
20
-113.808
11
156.04
21
-113.046
0
LINE
8
BLACK
6
CONTINUOUS
10
156.04
20
-113.046
11
155.945
21
-112.856
0
LINE
8
BLACK
6
CONTINUOUS
10
155.945
20
-112.856
11
155.85
21
-112.761
0
LINE
8
BLACK
6
CONTINUOUS
10
155.85
20
-112.761
11
155.66
21
-112.665
0
LINE
8
BLACK
6
CONTINUOUS
10
155.66
20
-112.665
11
155.279
21
-112.665
0
LINE
8
BLACK
6
CONTINUOUS
10
155.279
20
-112.665
11
155.088
21
-112.761
0
LINE
8
BLACK
6
CONTINUOUS
10
155.088
20
-112.761
11
154.993
21
-112.856
0
LINE
8
BLACK
6
CONTINUOUS
10
154.993
20
-112.856
11
154.898
21
-113.046
0
LINE
8
BLACK
6
CONTINUOUS
10
154.898
20
-113.046
11
154.898
21
-113.523
0
LINE
8
BLACK
6
CONTINUOUS
10
154.898
20
-113.523
11
154.993
21
-113.713
0
LINE
8
BLACK
6
CONTINUOUS
10
154.993
20
-113.713
11
155.088
21
-113.808
0
LINE
8
BLACK
6
CONTINUOUS
10
155.088
20
-113.808
11
155.279
21
-113.903
0
LINE
8
BLACK
6
CONTINUOUS
10
155.279
20
-113.903
11
155.66
21
-113.903
0
LINE
8
BLACK
6
CONTINUOUS
10
155.66
20
-113.903
11
155.85
21
-113.808
0
LINE
8
BLACK
6
CONTINUOUS
10
155.85
20
-113.808
11
155.945
21
-113.713
0
LINE
8
BLACK
6
CONTINUOUS
10
155.945
20
-113.713
11
156.04
21
-113.523
0
LINE
8
BLACK
6
CONTINUOUS
10
157.755
20
-113.332
11
157.755
21
-114.665
0
LINE
8
BLACK
6
CONTINUOUS
10
157.279
20
-112.57
11
156.802
21
-113.999
0
LINE
8
BLACK
6
CONTINUOUS
10
156.802
20
-113.999
11
158.04
21
-113.999
0
LINE
8
BLACK
6
CONTINUOUS
10
158.707
20
-112.665
11
158.707
21
-113.046
0
LINE
8
BLACK
6
CONTINUOUS
10
159.469
20
-112.665
11
159.469
21
-113.046
0
LINE
8
BLACK
6
CONTINUOUS
10
162.098
20
-115.427
11
162.002
21
-115.332
0
LINE
8
BLACK
6
CONTINUOUS
10
162.002
20
-115.332
11
161.812
21
-115.046
0
LINE
8
BLACK
6
CONTINUOUS
10
161.812
20
-115.046
11
161.717
21
-114.856
0
LINE
8
BLACK
6
CONTINUOUS
10
161.717
20
-114.856
11
161.621
21
-114.57
0
LINE
8
BLACK
6
CONTINUOUS
10
161.621
20
-114.57
11
161.526
21
-114.094
0
LINE
8
BLACK
6
CONTINUOUS
10
161.526
20
-114.094
11
161.526
21
-113.713
0
LINE
8
BLACK
6
CONTINUOUS
10
161.526
20
-113.713
11
161.621
21
-113.237
0
LINE
8
BLACK
6
CONTINUOUS
10
161.621
20
-113.237
11
161.717
21
-112.951
0
LINE
8
BLACK
6
CONTINUOUS
10
161.717
20
-112.951
11
161.812
21
-112.761
0
LINE
8
BLACK
6
CONTINUOUS
10
161.812
20
-112.761
11
162.002
21
-112.475
0
LINE
8
BLACK
6
CONTINUOUS
10
162.002
20
-112.475
11
162.098
21
-112.38
0
LINE
8
BLACK
6
CONTINUOUS
10
163.717
20
-113.332
11
163.717
21
-114.665
0
LINE
8
BLACK
6
CONTINUOUS
10
163.24
20
-112.57
11
162.764
21
-113.999
0
LINE
8
BLACK
6
CONTINUOUS
10
162.764
20
-113.999
11
164.002
21
-113.999
0
LINE
8
BLACK
6
CONTINUOUS
10
165.964
20
-114.665
11
165.964
21
-112.665
0
LINE
8
BLACK
6
CONTINUOUS
10
166.821
20
-114.665
11
166.821
21
-113.618
0
LINE
8
BLACK
6
CONTINUOUS
10
166.821
20
-113.618
11
166.726
21
-113.427
0
LINE
8
BLACK
6
CONTINUOUS
10
166.726
20
-113.427
11
166.536
21
-113.332
0
LINE
8
BLACK
6
CONTINUOUS
10
166.536
20
-113.332
11
166.25
21
-113.332
0
LINE
8
BLACK
6
CONTINUOUS
10
166.25
20
-113.332
11
166.06
21
-113.427
0
LINE
8
BLACK
6
CONTINUOUS
10
166.06
20
-113.427
11
165.964
21
-113.523
0
LINE
8
BLACK
6
CONTINUOUS
10
168.06
20
-114.665
11
167.869
21
-114.57
0
LINE
8
BLACK
6
CONTINUOUS
10
167.869
20
-114.57
11
167.774
21
-114.475
0
LINE
8
BLACK
6
CONTINUOUS
10
167.774
20
-114.475
11
167.679
21
-114.284
0
LINE
8
BLACK
6
CONTINUOUS
10
167.679
20
-114.284
11
167.679
21
-113.713
0
LINE
8
BLACK
6
CONTINUOUS
10
167.679
20
-113.713
11
167.774
21
-113.523
0
LINE
8
BLACK
6
CONTINUOUS
10
167.774
20
-113.523
11
167.869
21
-113.427
0
LINE
8
BLACK
6
CONTINUOUS
10
167.869
20
-113.427
11
168.06
21
-113.332
0
LINE
8
BLACK
6
CONTINUOUS
10
168.06
20
-113.332
11
168.345
21
-113.332
0
LINE
8
BLACK
6
CONTINUOUS
10
168.345
20
-113.332
11
168.536
21
-113.427
0
LINE
8
BLACK
6
CONTINUOUS
10
168.536
20
-113.427
11
168.631
21
-113.523
0
LINE
8
BLACK
6
CONTINUOUS
10
168.631
20
-113.523
11
168.726
21
-113.713
0
LINE
8
BLACK
6
CONTINUOUS
10
168.726
20
-113.713
11
168.726
21
-114.284
0
LINE
8
BLACK
6
CONTINUOUS
10
168.726
20
-114.284
11
168.631
21
-114.475
0
LINE
8
BLACK
6
CONTINUOUS
10
168.631
20
-114.475
11
168.536
21
-114.57
0
LINE
8
BLACK
6
CONTINUOUS
10
168.536
20
-114.57
11
168.345
21
-114.665
0
LINE
8
BLACK
6
CONTINUOUS
10
168.345
20
-114.665
11
168.06
21
-114.665
0
LINE
8
BLACK
6
CONTINUOUS
10
169.869
20
-114.665
11
169.679
21
-114.57
0
LINE
8
BLACK
6
CONTINUOUS
10
169.679
20
-114.57
11
169.583
21
-114.38
0
LINE
8
BLACK
6
CONTINUOUS
10
169.583
20
-114.38
11
169.583
21
-112.665
0
LINE
8
BLACK
6
CONTINUOUS
10
171.393
20
-114.57
11
171.202
21
-114.665
0
LINE
8
BLACK
6
CONTINUOUS
10
171.202
20
-114.665
11
170.821
21
-114.665
0
LINE
8
BLACK
6
CONTINUOUS
10
170.821
20
-114.665
11
170.631
21
-114.57
0
LINE
8
BLACK
6
CONTINUOUS
10
170.631
20
-114.57
11
170.536
21
-114.38
0
LINE
8
BLACK
6
CONTINUOUS
10
170.536
20
-114.38
11
170.536
21
-113.618
0
LINE
8
BLACK
6
CONTINUOUS
10
170.536
20
-113.618
11
170.631
21
-113.427
0
LINE
8
BLACK
6
CONTINUOUS
10
170.631
20
-113.427
11
170.821
21
-113.332
0
LINE
8
BLACK
6
CONTINUOUS
10
170.821
20
-113.332
11
171.202
21
-113.332
0
LINE
8
BLACK
6
CONTINUOUS
10
171.202
20
-113.332
11
171.393
21
-113.427
0
LINE
8
BLACK
6
CONTINUOUS
10
171.393
20
-113.427
11
171.488
21
-113.618
0
LINE
8
BLACK
6
CONTINUOUS
10
171.488
20
-113.618
11
171.488
21
-113.808
0
LINE
8
BLACK
6
CONTINUOUS
10
171.488
20
-113.808
11
170.536
21
-113.999
0
LINE
8
BLACK
6
CONTINUOUS
10
172.25
20
-114.57
11
172.44
21
-114.665
0
LINE
8
BLACK
6
CONTINUOUS
10
172.44
20
-114.665
11
172.821
21
-114.665
0
LINE
8
BLACK
6
CONTINUOUS
10
172.821
20
-114.665
11
173.012
21
-114.57
0
LINE
8
BLACK
6
CONTINUOUS
10
173.012
20
-114.57
11
173.107
21
-114.38
0
LINE
8
BLACK
6
CONTINUOUS
10
173.107
20
-114.38
11
173.107
21
-114.284
0
LINE
8
BLACK
6
CONTINUOUS
10
173.107
20
-114.284
11
173.012
21
-114.094
0
LINE
8
BLACK
6
CONTINUOUS
10
173.012
20
-114.094
11
172.821
21
-113.999
0
LINE
8
BLACK
6
CONTINUOUS
10
172.821
20
-113.999
11
172.536
21
-113.999
0
LINE
8
BLACK
6
CONTINUOUS
10
172.536
20
-113.999
11
172.345
21
-113.903
0
LINE
8
BLACK
6
CONTINUOUS
10
172.345
20
-113.903
11
172.25
21
-113.713
0
LINE
8
BLACK
6
CONTINUOUS
10
172.25
20
-113.713
11
172.25
21
-113.618
0
LINE
8
BLACK
6
CONTINUOUS
10
172.25
20
-113.618
11
172.345
21
-113.427
0
LINE
8
BLACK
6
CONTINUOUS
10
172.345
20
-113.427
11
172.536
21
-113.332
0
LINE
8
BLACK
6
CONTINUOUS
10
172.536
20
-113.332
11
172.821
21
-113.332
0
LINE
8
BLACK
6
CONTINUOUS
10
172.821
20
-113.332
11
173.012
21
-113.427
0
LINE
8
BLACK
6
CONTINUOUS
10
173.774
20
-115.427
11
173.869
21
-115.332
0
LINE
8
BLACK
6
CONTINUOUS
10
173.869
20
-115.332
11
174.06
21
-115.046
0
LINE
8
BLACK
6
CONTINUOUS
10
174.06
20
-115.046
11
174.155
21
-114.856
0
LINE
8
BLACK
6
CONTINUOUS
10
174.155
20
-114.856
11
174.25
21
-114.57
0
LINE
8
BLACK
6
CONTINUOUS
10
174.25
20
-114.57
11
174.345
21
-114.094
0
LINE
8
BLACK
6
CONTINUOUS
10
174.345
20
-114.094
11
174.345
21
-113.713
0
LINE
8
BLACK
6
CONTINUOUS
10
174.345
20
-113.713
11
174.25
21
-113.237
0
LINE
8
BLACK
6
CONTINUOUS
10
174.25
20
-113.237
11
174.155
21
-112.951
0
LINE
8
BLACK
6
CONTINUOUS
10
174.155
20
-112.951
11
174.06
21
-112.761
0
LINE
8
BLACK
6
CONTINUOUS
10
174.06
20
-112.761
11
173.869
21
-112.475
0
LINE
8
BLACK
6
CONTINUOUS
10
173.869
20
-112.475
11
173.774
21
-112.38
0
LINE
8
BLACK
6
CONTINUOUS
10
126.55
20
-115.671
11
126.55
21
-117.471
0
LINE
8
BLACK
6
CONTINUOUS
10
125.65
20
-116.571
11
127.45
21
-116.571
0
LINE
8
BLACK
6
CONTINUOUS
10
130.974
20
-117.305
11
129.831
21
-117.305
0
LINE
8
BLACK
6
CONTINUOUS
10
130.402
20
-117.305
11
130.402
21
-115.305
0
LINE
8
BLACK
6
CONTINUOUS
10
130.402
20
-115.305
11
130.212
21
-115.591
0
LINE
8
BLACK
6
CONTINUOUS
10
130.212
20
-115.591
11
130.021
21
-115.782
0
LINE
8
BLACK
6
CONTINUOUS
10
130.021
20
-115.782
11
129.831
21
-115.877
0
LINE
8
BLACK
6
CONTINUOUS
10
131.831
20
-117.115
11
131.926
21
-117.21
0
LINE
8
BLACK
6
CONTINUOUS
10
131.926
20
-117.21
11
131.831
21
-117.305
0
LINE
8
BLACK
6
CONTINUOUS
10
131.831
20
-117.305
11
131.736
21
-117.21
0
LINE
8
BLACK
6
CONTINUOUS
10
131.736
20
-117.21
11
131.831
21
-117.115
0
LINE
8
BLACK
6
CONTINUOUS
10
131.831
20
-117.115
11
131.831
21
-117.305
0
LINE
8
BLACK
6
CONTINUOUS
10
133.069
20
-116.163
11
132.879
21
-116.067
0
LINE
8
BLACK
6
CONTINUOUS
10
132.879
20
-116.067
11
132.783
21
-115.972
0
LINE
8
BLACK
6
CONTINUOUS
10
132.783
20
-115.972
11
132.688
21
-115.782
0
LINE
8
BLACK
6
CONTINUOUS
10
132.688
20
-115.782
11
132.688
21
-115.686
0
LINE
8
BLACK
6
CONTINUOUS
10
132.688
20
-115.686
11
132.783
21
-115.496
0
LINE
8
BLACK
6
CONTINUOUS
10
132.783
20
-115.496
11
132.879
21
-115.401
0
LINE
8
BLACK
6
CONTINUOUS
10
132.879
20
-115.401
11
133.069
21
-115.305
0
LINE
8
BLACK
6
CONTINUOUS
10
133.069
20
-115.305
11
133.45
21
-115.305
0
LINE
8
BLACK
6
CONTINUOUS
10
133.45
20
-115.305
11
133.64
21
-115.401
0
LINE
8
BLACK
6
CONTINUOUS
10
133.64
20
-115.401
11
133.736
21
-115.496
0
LINE
8
BLACK
6
CONTINUOUS
10
133.736
20
-115.496
11
133.831
21
-115.686
0
LINE
8
BLACK
6
CONTINUOUS
10
133.831
20
-115.686
11
133.831
21
-115.782
0
LINE
8
BLACK
6
CONTINUOUS
10
133.831
20
-115.782
11
133.736
21
-115.972
0
LINE
8
BLACK
6
CONTINUOUS
10
133.736
20
-115.972
11
133.64
21
-116.067
0
LINE
8
BLACK
6
CONTINUOUS
10
133.64
20
-116.067
11
133.45
21
-116.163
0
LINE
8
BLACK
6
CONTINUOUS
10
133.45
20
-116.163
11
133.069
21
-116.163
0
LINE
8
BLACK
6
CONTINUOUS
10
133.069
20
-116.163
11
132.879
21
-116.258
0
LINE
8
BLACK
6
CONTINUOUS
10
132.879
20
-116.258
11
132.783
21
-116.353
0
LINE
8
BLACK
6
CONTINUOUS
10
132.783
20
-116.353
11
132.688
21
-116.543
0
LINE
8
BLACK
6
CONTINUOUS
10
132.688
20
-116.543
11
132.688
21
-116.924
0
LINE
8
BLACK
6
CONTINUOUS
10
132.688
20
-116.924
11
132.783
21
-117.115
0
LINE
8
BLACK
6
CONTINUOUS
10
132.783
20
-117.115
11
132.879
21
-117.21
0
LINE
8
BLACK
6
CONTINUOUS
10
132.879
20
-117.21
11
133.069
21
-117.305
0
LINE
8
BLACK
6
CONTINUOUS
10
133.069
20
-117.305
11
133.45
21
-117.305
0
LINE
8
BLACK
6
CONTINUOUS
10
133.45
20
-117.305
11
133.64
21
-117.21
0
LINE
8
BLACK
6
CONTINUOUS
10
133.64
20
-117.21
11
133.736
21
-117.115
0
LINE
8
BLACK
6
CONTINUOUS
10
133.736
20
-117.115
11
133.831
21
-116.924
0
LINE
8
BLACK
6
CONTINUOUS
10
133.831
20
-116.924
11
133.831
21
-116.543
0
LINE
8
BLACK
6
CONTINUOUS
10
133.831
20
-116.543
11
133.736
21
-116.353
0
LINE
8
BLACK
6
CONTINUOUS
10
133.736
20
-116.353
11
133.64
21
-116.258
0
LINE
8
BLACK
6
CONTINUOUS
10
133.64
20
-116.258
11
133.45
21
-116.163
0
LINE
8
BLACK
6
CONTINUOUS
10
135.069
20
-115.305
11
135.26
21
-115.305
0
LINE
8
BLACK
6
CONTINUOUS
10
135.26
20
-115.305
11
135.45
21
-115.401
0
LINE
8
BLACK
6
CONTINUOUS
10
135.45
20
-115.401
11
135.545
21
-115.496
0
LINE
8
BLACK
6
CONTINUOUS
10
135.545
20
-115.496
11
135.64
21
-115.686
0
LINE
8
BLACK
6
CONTINUOUS
10
135.64
20
-115.686
11
135.736
21
-116.067
0
LINE
8
BLACK
6
CONTINUOUS
10
135.736
20
-116.067
11
135.736
21
-116.543
0
LINE
8
BLACK
6
CONTINUOUS
10
135.736
20
-116.543
11
135.64
21
-116.924
0
LINE
8
BLACK
6
CONTINUOUS
10
135.64
20
-116.924
11
135.545
21
-117.115
0
LINE
8
BLACK
6
CONTINUOUS
10
135.545
20
-117.115
11
135.45
21
-117.21
0
LINE
8
BLACK
6
CONTINUOUS
10
135.45
20
-117.21
11
135.26
21
-117.305
0
LINE
8
BLACK
6
CONTINUOUS
10
135.26
20
-117.305
11
135.069
21
-117.305
0
LINE
8
BLACK
6
CONTINUOUS
10
135.069
20
-117.305
11
134.879
21
-117.21
0
LINE
8
BLACK
6
CONTINUOUS
10
134.879
20
-117.21
11
134.783
21
-117.115
0
LINE
8
BLACK
6
CONTINUOUS
10
134.783
20
-117.115
11
134.688
21
-116.924
0
LINE
8
BLACK
6
CONTINUOUS
10
134.688
20
-116.924
11
134.593
21
-116.543
0
LINE
8
BLACK
6
CONTINUOUS
10
134.593
20
-116.543
11
134.593
21
-116.067
0
LINE
8
BLACK
6
CONTINUOUS
10
134.593
20
-116.067
11
134.688
21
-115.686
0
LINE
8
BLACK
6
CONTINUOUS
10
134.688
20
-115.686
11
134.783
21
-115.496
0
LINE
8
BLACK
6
CONTINUOUS
10
134.783
20
-115.496
11
134.879
21
-115.401
0
LINE
8
BLACK
6
CONTINUOUS
10
134.879
20
-115.401
11
135.069
21
-115.305
0
LINE
8
BLACK
6
CONTINUOUS
10
136.974
20
-115.305
11
137.164
21
-115.305
0
LINE
8
BLACK
6
CONTINUOUS
10
137.164
20
-115.305
11
137.355
21
-115.401
0
LINE
8
BLACK
6
CONTINUOUS
10
137.355
20
-115.401
11
137.45
21
-115.496
0
LINE
8
BLACK
6
CONTINUOUS
10
137.45
20
-115.496
11
137.545
21
-115.686
0
LINE
8
BLACK
6
CONTINUOUS
10
137.545
20
-115.686
11
137.64
21
-116.067
0
LINE
8
BLACK
6
CONTINUOUS
10
137.64
20
-116.067
11
137.64
21
-116.543
0
LINE
8
BLACK
6
CONTINUOUS
10
137.64
20
-116.543
11
137.545
21
-116.924
0
LINE
8
BLACK
6
CONTINUOUS
10
137.545
20
-116.924
11
137.45
21
-117.115
0
LINE
8
BLACK
6
CONTINUOUS
10
137.45
20
-117.115
11
137.355
21
-117.21
0
LINE
8
BLACK
6
CONTINUOUS
10
137.355
20
-117.21
11
137.164
21
-117.305
0
LINE
8
BLACK
6
CONTINUOUS
10
137.164
20
-117.305
11
136.974
21
-117.305
0
LINE
8
BLACK
6
CONTINUOUS
10
136.974
20
-117.305
11
136.783
21
-117.21
0
LINE
8
BLACK
6
CONTINUOUS
10
136.783
20
-117.21
11
136.688
21
-117.115
0
LINE
8
BLACK
6
CONTINUOUS
10
136.688
20
-117.115
11
136.593
21
-116.924
0
LINE
8
BLACK
6
CONTINUOUS
10
136.593
20
-116.924
11
136.498
21
-116.543
0
LINE
8
BLACK
6
CONTINUOUS
10
136.498
20
-116.543
11
136.498
21
-116.067
0
LINE
8
BLACK
6
CONTINUOUS
10
136.498
20
-116.067
11
136.593
21
-115.686
0
LINE
8
BLACK
6
CONTINUOUS
10
136.593
20
-115.686
11
136.688
21
-115.496
0
LINE
8
BLACK
6
CONTINUOUS
10
136.688
20
-115.496
11
136.783
21
-115.401
0
LINE
8
BLACK
6
CONTINUOUS
10
136.783
20
-115.401
11
136.974
21
-115.305
0
LINE
8
BLACK
6
CONTINUOUS
10
138.498
20
-117.305
11
138.498
21
-115.972
0
LINE
8
BLACK
6
CONTINUOUS
10
138.498
20
-116.163
11
138.593
21
-116.067
0
LINE
8
BLACK
6
CONTINUOUS
10
138.593
20
-116.067
11
138.783
21
-115.972
0
LINE
8
BLACK
6
CONTINUOUS
10
138.783
20
-115.972
11
139.069
21
-115.972
0
LINE
8
BLACK
6
CONTINUOUS
10
139.069
20
-115.972
11
139.26
21
-116.067
0
LINE
8
BLACK
6
CONTINUOUS
10
139.26
20
-116.067
11
139.355
21
-116.258
0
LINE
8
BLACK
6
CONTINUOUS
10
139.355
20
-116.258
11
139.355
21
-117.305
0
LINE
8
BLACK
6
CONTINUOUS
10
139.355
20
-116.258
11
139.45
21
-116.067
0
LINE
8
BLACK
6
CONTINUOUS
10
139.45
20
-116.067
11
139.64
21
-115.972
0
LINE
8
BLACK
6
CONTINUOUS
10
139.64
20
-115.972
11
139.926
21
-115.972
0
LINE
8
BLACK
6
CONTINUOUS
10
139.926
20
-115.972
11
140.117
21
-116.067
0
LINE
8
BLACK
6
CONTINUOUS
10
140.117
20
-116.067
11
140.212
21
-116.258
0
LINE
8
BLACK
6
CONTINUOUS
10
140.212
20
-116.258
11
140.212
21
-117.305
0
LINE
8
BLACK
6
CONTINUOUS
10
141.164
20
-117.305
11
141.164
21
-115.972
0
LINE
8
BLACK
6
CONTINUOUS
10
141.164
20
-116.163
11
141.26
21
-116.067
0
LINE
8
BLACK
6
CONTINUOUS
10
141.26
20
-116.067
11
141.45
21
-115.972
0
LINE
8
BLACK
6
CONTINUOUS
10
141.45
20
-115.972
11
141.736
21
-115.972
0
LINE
8
BLACK
6
CONTINUOUS
10
141.736
20
-115.972
11
141.926
21
-116.067
0
LINE
8
BLACK
6
CONTINUOUS
10
141.926
20
-116.067
11
142.021
21
-116.258
0
LINE
8
BLACK
6
CONTINUOUS
10
142.021
20
-116.258
11
142.021
21
-117.305
0
LINE
8
BLACK
6
CONTINUOUS
10
142.021
20
-116.258
11
142.117
21
-116.067
0
LINE
8
BLACK
6
CONTINUOUS
10
142.117
20
-116.067
11
142.307
21
-115.972
0
LINE
8
BLACK
6
CONTINUOUS
10
142.307
20
-115.972
11
142.593
21
-115.972
0
LINE
8
BLACK
6
CONTINUOUS
10
142.593
20
-115.972
11
142.783
21
-116.067
0
LINE
8
BLACK
6
CONTINUOUS
10
142.783
20
-116.067
11
142.879
21
-116.258
0
LINE
8
BLACK
6
CONTINUOUS
10
142.879
20
-116.258
11
142.879
21
-117.305
0
LINE
8
BLACK
6
CONTINUOUS
10
146.46
20
-115.21
11
144.745
21
-117.782
0
LINE
8
BLACK
6
CONTINUOUS
10
148.707
20
-115.305
11
148.898
21
-115.305
0
LINE
8
BLACK
6
CONTINUOUS
10
148.898
20
-115.305
11
149.088
21
-115.401
0
LINE
8
BLACK
6
CONTINUOUS
10
149.088
20
-115.401
11
149.183
21
-115.496
0
LINE
8
BLACK
6
CONTINUOUS
10
149.183
20
-115.496
11
149.279
21
-115.686
0
LINE
8
BLACK
6
CONTINUOUS
10
149.279
20
-115.686
11
149.374
21
-116.067
0
LINE
8
BLACK
6
CONTINUOUS
10
149.374
20
-116.067
11
149.374
21
-116.543
0
LINE
8
BLACK
6
CONTINUOUS
10
149.374
20
-116.543
11
149.279
21
-116.924
0
LINE
8
BLACK
6
CONTINUOUS
10
149.279
20
-116.924
11
149.183
21
-117.115
0
LINE
8
BLACK
6
CONTINUOUS
10
149.183
20
-117.115
11
149.088
21
-117.21
0
LINE
8
BLACK
6
CONTINUOUS
10
149.088
20
-117.21
11
148.898
21
-117.305
0
LINE
8
BLACK
6
CONTINUOUS
10
148.898
20
-117.305
11
148.707
21
-117.305
0
LINE
8
BLACK
6
CONTINUOUS
10
148.707
20
-117.305
11
148.517
21
-117.21
0
LINE
8
BLACK
6
CONTINUOUS
10
148.517
20
-117.21
11
148.421
21
-117.115
0
LINE
8
BLACK
6
CONTINUOUS
10
148.421
20
-117.115
11
148.326
21
-116.924
0
LINE
8
BLACK
6
CONTINUOUS
10
148.326
20
-116.924
11
148.231
21
-116.543
0
LINE
8
BLACK
6
CONTINUOUS
10
148.231
20
-116.543
11
148.231
21
-116.067
0
LINE
8
BLACK
6
CONTINUOUS
10
148.231
20
-116.067
11
148.326
21
-115.686
0
LINE
8
BLACK
6
CONTINUOUS
10
148.326
20
-115.686
11
148.421
21
-115.496
0
LINE
8
BLACK
6
CONTINUOUS
10
148.421
20
-115.496
11
148.517
21
-115.401
0
LINE
8
BLACK
6
CONTINUOUS
10
148.517
20
-115.401
11
148.707
21
-115.305
0
LINE
8
BLACK
6
CONTINUOUS
10
150.231
20
-117.115
11
150.326
21
-117.21
0
LINE
8
BLACK
6
CONTINUOUS
10
150.326
20
-117.21
11
150.231
21
-117.305
0
LINE
8
BLACK
6
CONTINUOUS
10
150.231
20
-117.305
11
150.136
21
-117.21
0
LINE
8
BLACK
6
CONTINUOUS
10
150.136
20
-117.21
11
150.231
21
-117.115
0
LINE
8
BLACK
6
CONTINUOUS
10
150.231
20
-117.115
11
150.231
21
-117.305
0
LINE
8
BLACK
6
CONTINUOUS
10
151.564
20
-115.305
11
151.755
21
-115.305
0
LINE
8
BLACK
6
CONTINUOUS
10
151.755
20
-115.305
11
151.945
21
-115.401
0
LINE
8
BLACK
6
CONTINUOUS
10
151.945
20
-115.401
11
152.04
21
-115.496
0
LINE
8
BLACK
6
CONTINUOUS
10
152.04
20
-115.496
11
152.136
21
-115.686
0
LINE
8
BLACK
6
CONTINUOUS
10
152.136
20
-115.686
11
152.231
21
-116.067
0
LINE
8
BLACK
6
CONTINUOUS
10
152.231
20
-116.067
11
152.231
21
-116.543
0
LINE
8
BLACK
6
CONTINUOUS
10
152.231
20
-116.543
11
152.136
21
-116.924
0
LINE
8
BLACK
6
CONTINUOUS
10
152.136
20
-116.924
11
152.04
21
-117.115
0
LINE
8
BLACK
6
CONTINUOUS
10
152.04
20
-117.115
11
151.945
21
-117.21
0
LINE
8
BLACK
6
CONTINUOUS
10
151.945
20
-117.21
11
151.755
21
-117.305
0
LINE
8
BLACK
6
CONTINUOUS
10
151.755
20
-117.305
11
151.564
21
-117.305
0
LINE
8
BLACK
6
CONTINUOUS
10
151.564
20
-117.305
11
151.374
21
-117.21
0
LINE
8
BLACK
6
CONTINUOUS
10
151.374
20
-117.21
11
151.279
21
-117.115
0
LINE
8
BLACK
6
CONTINUOUS
10
151.279
20
-117.115
11
151.183
21
-116.924
0
LINE
8
BLACK
6
CONTINUOUS
10
151.183
20
-116.924
11
151.088
21
-116.543
0
LINE
8
BLACK
6
CONTINUOUS
10
151.088
20
-116.543
11
151.088
21
-116.067
0
LINE
8
BLACK
6
CONTINUOUS
10
151.088
20
-116.067
11
151.183
21
-115.686
0
LINE
8
BLACK
6
CONTINUOUS
10
151.183
20
-115.686
11
151.279
21
-115.496
0
LINE
8
BLACK
6
CONTINUOUS
10
151.279
20
-115.496
11
151.374
21
-115.401
0
LINE
8
BLACK
6
CONTINUOUS
10
151.374
20
-115.401
11
151.564
21
-115.305
0
LINE
8
BLACK
6
CONTINUOUS
10
152.898
20
-115.305
11
154.231
21
-115.305
0
LINE
8
BLACK
6
CONTINUOUS
10
154.231
20
-115.305
11
153.374
21
-117.305
0
LINE
8
BLACK
6
CONTINUOUS
10
155.374
20
-115.305
11
155.564
21
-115.305
0
LINE
8
BLACK
6
CONTINUOUS
10
155.564
20
-115.305
11
155.755
21
-115.401
0
LINE
8
BLACK
6
CONTINUOUS
10
155.755
20
-115.401
11
155.85
21
-115.496
0
LINE
8
BLACK
6
CONTINUOUS
10
155.85
20
-115.496
11
155.945
21
-115.686
0
LINE
8
BLACK
6
CONTINUOUS
10
155.945
20
-115.686
11
156.04
21
-116.067
0
LINE
8
BLACK
6
CONTINUOUS
10
156.04
20
-116.067
11
156.04
21
-116.543
0
LINE
8
BLACK
6
CONTINUOUS
10
156.04
20
-116.543
11
155.945
21
-116.924
0
LINE
8
BLACK
6
CONTINUOUS
10
155.945
20
-116.924
11
155.85
21
-117.115
0
LINE
8
BLACK
6
CONTINUOUS
10
155.85
20
-117.115
11
155.755
21
-117.21
0
LINE
8
BLACK
6
CONTINUOUS
10
155.755
20
-117.21
11
155.564
21
-117.305
0
LINE
8
BLACK
6
CONTINUOUS
10
155.564
20
-117.305
11
155.374
21
-117.305
0
LINE
8
BLACK
6
CONTINUOUS
10
155.374
20
-117.305
11
155.183
21
-117.21
0
LINE
8
BLACK
6
CONTINUOUS
10
155.183
20
-117.21
11
155.088
21
-117.115
0
LINE
8
BLACK
6
CONTINUOUS
10
155.088
20
-117.115
11
154.993
21
-116.924
0
LINE
8
BLACK
6
CONTINUOUS
10
154.993
20
-116.924
11
154.898
21
-116.543
0
LINE
8
BLACK
6
CONTINUOUS
10
154.898
20
-116.543
11
154.898
21
-116.067
0
LINE
8
BLACK
6
CONTINUOUS
10
154.898
20
-116.067
11
154.993
21
-115.686
0
LINE
8
BLACK
6
CONTINUOUS
10
154.993
20
-115.686
11
155.088
21
-115.496
0
LINE
8
BLACK
6
CONTINUOUS
10
155.088
20
-115.496
11
155.183
21
-115.401
0
LINE
8
BLACK
6
CONTINUOUS
10
155.183
20
-115.401
11
155.374
21
-115.305
0
LINE
8
BLACK
6
CONTINUOUS
10
156.993
20
-117.305
11
157.374
21
-117.305
0
LINE
8
BLACK
6
CONTINUOUS
10
157.374
20
-117.305
11
157.564
21
-117.21
0
LINE
8
BLACK
6
CONTINUOUS
10
157.564
20
-117.21
11
157.66
21
-117.115
0
LINE
8
BLACK
6
CONTINUOUS
10
157.66
20
-117.115
11
157.85
21
-116.829
0
LINE
8
BLACK
6
CONTINUOUS
10
157.85
20
-116.829
11
157.945
21
-116.448
0
LINE
8
BLACK
6
CONTINUOUS
10
157.945
20
-116.448
11
157.945
21
-115.686
0
LINE
8
BLACK
6
CONTINUOUS
10
157.945
20
-115.686
11
157.85
21
-115.496
0
LINE
8
BLACK
6
CONTINUOUS
10
157.85
20
-115.496
11
157.755
21
-115.401
0
LINE
8
BLACK
6
CONTINUOUS
10
157.755
20
-115.401
11
157.564
21
-115.305
0
LINE
8
BLACK
6
CONTINUOUS
10
157.564
20
-115.305
11
157.183
21
-115.305
0
LINE
8
BLACK
6
CONTINUOUS
10
157.183
20
-115.305
11
156.993
21
-115.401
0
LINE
8
BLACK
6
CONTINUOUS
10
156.993
20
-115.401
11
156.898
21
-115.496
0
LINE
8
BLACK
6
CONTINUOUS
10
156.898
20
-115.496
11
156.802
21
-115.686
0
LINE
8
BLACK
6
CONTINUOUS
10
156.802
20
-115.686
11
156.802
21
-116.163
0
LINE
8
BLACK
6
CONTINUOUS
10
156.802
20
-116.163
11
156.898
21
-116.353
0
LINE
8
BLACK
6
CONTINUOUS
10
156.898
20
-116.353
11
156.993
21
-116.448
0
LINE
8
BLACK
6
CONTINUOUS
10
156.993
20
-116.448
11
157.183
21
-116.543
0
LINE
8
BLACK
6
CONTINUOUS
10
157.183
20
-116.543
11
157.564
21
-116.543
0
LINE
8
BLACK
6
CONTINUOUS
10
157.564
20
-116.543
11
157.755
21
-116.448
0
LINE
8
BLACK
6
CONTINUOUS
10
157.755
20
-116.448
11
157.85
21
-116.353
0
LINE
8
BLACK
6
CONTINUOUS
10
157.85
20
-116.353
11
157.945
21
-116.163
0
LINE
8
BLACK
6
CONTINUOUS
10
158.707
20
-115.305
11
158.707
21
-115.686
0
LINE
8
BLACK
6
CONTINUOUS
10
159.469
20
-115.305
11
159.469
21
-115.686
0
LINE
8
BLACK
6
CONTINUOUS
10
162.098
20
-118.067
11
162.002
21
-117.972
0
LINE
8
BLACK
6
CONTINUOUS
10
162.002
20
-117.972
11
161.812
21
-117.686
0
LINE
8
BLACK
6
CONTINUOUS
10
161.812
20
-117.686
11
161.717
21
-117.496
0
LINE
8
BLACK
6
CONTINUOUS
10
161.717
20
-117.496
11
161.621
21
-117.21
0
LINE
8
BLACK
6
CONTINUOUS
10
161.621
20
-117.21
11
161.526
21
-116.734
0
LINE
8
BLACK
6
CONTINUOUS
10
161.526
20
-116.734
11
161.526
21
-116.353
0
LINE
8
BLACK
6
CONTINUOUS
10
161.526
20
-116.353
11
161.621
21
-115.877
0
LINE
8
BLACK
6
CONTINUOUS
10
161.621
20
-115.877
11
161.717
21
-115.591
0
LINE
8
BLACK
6
CONTINUOUS
10
161.717
20
-115.591
11
161.812
21
-115.401
0
LINE
8
BLACK
6
CONTINUOUS
10
161.812
20
-115.401
11
162.002
21
-115.115
0
LINE
8
BLACK
6
CONTINUOUS
10
162.002
20
-115.115
11
162.098
21
-115.02
0
LINE
8
BLACK
6
CONTINUOUS
10
163.145
20
-116.163
11
162.955
21
-116.067
0
LINE
8
BLACK
6
CONTINUOUS
10
162.955
20
-116.067
11
162.86
21
-115.972
0
LINE
8
BLACK
6
CONTINUOUS
10
162.86
20
-115.972
11
162.764
21
-115.782
0
LINE
8
BLACK
6
CONTINUOUS
10
162.764
20
-115.782
11
162.764
21
-115.686
0
LINE
8
BLACK
6
CONTINUOUS
10
162.764
20
-115.686
11
162.86
21
-115.496
0
LINE
8
BLACK
6
CONTINUOUS
10
162.86
20
-115.496
11
162.955
21
-115.401
0
LINE
8
BLACK
6
CONTINUOUS
10
162.955
20
-115.401
11
163.145
21
-115.305
0
LINE
8
BLACK
6
CONTINUOUS
10
163.145
20
-115.305
11
163.526
21
-115.305
0
LINE
8
BLACK
6
CONTINUOUS
10
163.526
20
-115.305
11
163.717
21
-115.401
0
LINE
8
BLACK
6
CONTINUOUS
10
163.717
20
-115.401
11
163.812
21
-115.496
0
LINE
8
BLACK
6
CONTINUOUS
10
163.812
20
-115.496
11
163.907
21
-115.686
0
LINE
8
BLACK
6
CONTINUOUS
10
163.907
20
-115.686
11
163.907
21
-115.782
0
LINE
8
BLACK
6
CONTINUOUS
10
163.907
20
-115.782
11
163.812
21
-115.972
0
LINE
8
BLACK
6
CONTINUOUS
10
163.812
20
-115.972
11
163.717
21
-116.067
0
LINE
8
BLACK
6
CONTINUOUS
10
163.717
20
-116.067
11
163.526
21
-116.163
0
LINE
8
BLACK
6
CONTINUOUS
10
163.526
20
-116.163
11
163.145
21
-116.163
0
LINE
8
BLACK
6
CONTINUOUS
10
163.145
20
-116.163
11
162.955
21
-116.258
0
LINE
8
BLACK
6
CONTINUOUS
10
162.955
20
-116.258
11
162.86
21
-116.353
0
LINE
8
BLACK
6
CONTINUOUS
10
162.86
20
-116.353
11
162.764
21
-116.543
0
LINE
8
BLACK
6
CONTINUOUS
10
162.764
20
-116.543
11
162.764
21
-116.924
0
LINE
8
BLACK
6
CONTINUOUS
10
162.764
20
-116.924
11
162.86
21
-117.115
0
LINE
8
BLACK
6
CONTINUOUS
10
162.86
20
-117.115
11
162.955
21
-117.21
0
LINE
8
BLACK
6
CONTINUOUS
10
162.955
20
-117.21
11
163.145
21
-117.305
0
LINE
8
BLACK
6
CONTINUOUS
10
163.145
20
-117.305
11
163.526
21
-117.305
0
LINE
8
BLACK
6
CONTINUOUS
10
163.526
20
-117.305
11
163.717
21
-117.21
0
LINE
8
BLACK
6
CONTINUOUS
10
163.717
20
-117.21
11
163.812
21
-117.115
0
LINE
8
BLACK
6
CONTINUOUS
10
163.812
20
-117.115
11
163.907
21
-116.924
0
LINE
8
BLACK
6
CONTINUOUS
10
163.907
20
-116.924
11
163.907
21
-116.543
0
LINE
8
BLACK
6
CONTINUOUS
10
163.907
20
-116.543
11
163.812
21
-116.353
0
LINE
8
BLACK
6
CONTINUOUS
10
163.812
20
-116.353
11
163.717
21
-116.258
0
LINE
8
BLACK
6
CONTINUOUS
10
163.717
20
-116.258
11
163.526
21
-116.163
0
LINE
8
BLACK
6
CONTINUOUS
10
165.964
20
-117.305
11
165.964
21
-115.305
0
LINE
8
BLACK
6
CONTINUOUS
10
166.821
20
-117.305
11
166.821
21
-116.258
0
LINE
8
BLACK
6
CONTINUOUS
10
166.821
20
-116.258
11
166.726
21
-116.067
0
LINE
8
BLACK
6
CONTINUOUS
10
166.726
20
-116.067
11
166.536
21
-115.972
0
LINE
8
BLACK
6
CONTINUOUS
10
166.536
20
-115.972
11
166.25
21
-115.972
0
LINE
8
BLACK
6
CONTINUOUS
10
166.25
20
-115.972
11
166.06
21
-116.067
0
LINE
8
BLACK
6
CONTINUOUS
10
166.06
20
-116.067
11
165.964
21
-116.163
0
LINE
8
BLACK
6
CONTINUOUS
10
168.06
20
-117.305
11
167.869
21
-117.21
0
LINE
8
BLACK
6
CONTINUOUS
10
167.869
20
-117.21
11
167.774
21
-117.115
0
LINE
8
BLACK
6
CONTINUOUS
10
167.774
20
-117.115
11
167.679
21
-116.924
0
LINE
8
BLACK
6
CONTINUOUS
10
167.679
20
-116.924
11
167.679
21
-116.353
0
LINE
8
BLACK
6
CONTINUOUS
10
167.679
20
-116.353
11
167.774
21
-116.163
0
LINE
8
BLACK
6
CONTINUOUS
10
167.774
20
-116.163
11
167.869
21
-116.067
0
LINE
8
BLACK
6
CONTINUOUS
10
167.869
20
-116.067
11
168.06
21
-115.972
0
LINE
8
BLACK
6
CONTINUOUS
10
168.06
20
-115.972
11
168.345
21
-115.972
0
LINE
8
BLACK
6
CONTINUOUS
10
168.345
20
-115.972
11
168.536
21
-116.067
0
LINE
8
BLACK
6
CONTINUOUS
10
168.536
20
-116.067
11
168.631
21
-116.163
0
LINE
8
BLACK
6
CONTINUOUS
10
168.631
20
-116.163
11
168.726
21
-116.353
0
LINE
8
BLACK
6
CONTINUOUS
10
168.726
20
-116.353
11
168.726
21
-116.924
0
LINE
8
BLACK
6
CONTINUOUS
10
168.726
20
-116.924
11
168.631
21
-117.115
0
LINE
8
BLACK
6
CONTINUOUS
10
168.631
20
-117.115
11
168.536
21
-117.21
0
LINE
8
BLACK
6
CONTINUOUS
10
168.536
20
-117.21
11
168.345
21
-117.305
0
LINE
8
BLACK
6
CONTINUOUS
10
168.345
20
-117.305
11
168.06
21
-117.305
0
LINE
8
BLACK
6
CONTINUOUS
10
169.869
20
-117.305
11
169.679
21
-117.21
0
LINE
8
BLACK
6
CONTINUOUS
10
169.679
20
-117.21
11
169.583
21
-117.02
0
LINE
8
BLACK
6
CONTINUOUS
10
169.583
20
-117.02
11
169.583
21
-115.305
0
LINE
8
BLACK
6
CONTINUOUS
10
171.393
20
-117.21
11
171.202
21
-117.305
0
LINE
8
BLACK
6
CONTINUOUS
10
171.202
20
-117.305
11
170.821
21
-117.305
0
LINE
8
BLACK
6
CONTINUOUS
10
170.821
20
-117.305
11
170.631
21
-117.21
0
LINE
8
BLACK
6
CONTINUOUS
10
170.631
20
-117.21
11
170.536
21
-117.02
0
LINE
8
BLACK
6
CONTINUOUS
10
170.536
20
-117.02
11
170.536
21
-116.258
0
LINE
8
BLACK
6
CONTINUOUS
10
170.536
20
-116.258
11
170.631
21
-116.067
0
LINE
8
BLACK
6
CONTINUOUS
10
170.631
20
-116.067
11
170.821
21
-115.972
0
LINE
8
BLACK
6
CONTINUOUS
10
170.821
20
-115.972
11
171.202
21
-115.972
0
LINE
8
BLACK
6
CONTINUOUS
10
171.202
20
-115.972
11
171.393
21
-116.067
0
LINE
8
BLACK
6
CONTINUOUS
10
171.393
20
-116.067
11
171.488
21
-116.258
0
LINE
8
BLACK
6
CONTINUOUS
10
171.488
20
-116.258
11
171.488
21
-116.448
0
LINE
8
BLACK
6
CONTINUOUS
10
171.488
20
-116.448
11
170.536
21
-116.639
0
LINE
8
BLACK
6
CONTINUOUS
10
172.25
20
-117.21
11
172.44
21
-117.305
0
LINE
8
BLACK
6
CONTINUOUS
10
172.44
20
-117.305
11
172.821
21
-117.305
0
LINE
8
BLACK
6
CONTINUOUS
10
172.821
20
-117.305
11
173.012
21
-117.21
0
LINE
8
BLACK
6
CONTINUOUS
10
173.012
20
-117.21
11
173.107
21
-117.02
0
LINE
8
BLACK
6
CONTINUOUS
10
173.107
20
-117.02
11
173.107
21
-116.924
0
LINE
8
BLACK
6
CONTINUOUS
10
173.107
20
-116.924
11
173.012
21
-116.734
0
LINE
8
BLACK
6
CONTINUOUS
10
173.012
20
-116.734
11
172.821
21
-116.639
0
LINE
8
BLACK
6
CONTINUOUS
10
172.821
20
-116.639
11
172.536
21
-116.639
0
LINE
8
BLACK
6
CONTINUOUS
10
172.536
20
-116.639
11
172.345
21
-116.543
0
LINE
8
BLACK
6
CONTINUOUS
10
172.345
20
-116.543
11
172.25
21
-116.353
0
LINE
8
BLACK
6
CONTINUOUS
10
172.25
20
-116.353
11
172.25
21
-116.258
0
LINE
8
BLACK
6
CONTINUOUS
10
172.25
20
-116.258
11
172.345
21
-116.067
0
LINE
8
BLACK
6
CONTINUOUS
10
172.345
20
-116.067
11
172.536
21
-115.972
0
LINE
8
BLACK
6
CONTINUOUS
10
172.536
20
-115.972
11
172.821
21
-115.972
0
LINE
8
BLACK
6
CONTINUOUS
10
172.821
20
-115.972
11
173.012
21
-116.067
0
LINE
8
BLACK
6
CONTINUOUS
10
173.774
20
-118.067
11
173.869
21
-117.972
0
LINE
8
BLACK
6
CONTINUOUS
10
173.869
20
-117.972
11
174.06
21
-117.686
0
LINE
8
BLACK
6
CONTINUOUS
10
174.06
20
-117.686
11
174.155
21
-117.496
0
LINE
8
BLACK
6
CONTINUOUS
10
174.155
20
-117.496
11
174.25
21
-117.21
0
LINE
8
BLACK
6
CONTINUOUS
10
174.25
20
-117.21
11
174.345
21
-116.734
0
LINE
8
BLACK
6
CONTINUOUS
10
174.345
20
-116.734
11
174.345
21
-116.353
0
LINE
8
BLACK
6
CONTINUOUS
10
174.345
20
-116.353
11
174.25
21
-115.877
0
LINE
8
BLACK
6
CONTINUOUS
10
174.25
20
-115.877
11
174.155
21
-115.591
0
LINE
8
BLACK
6
CONTINUOUS
10
174.155
20
-115.591
11
174.06
21
-115.401
0
LINE
8
BLACK
6
CONTINUOUS
10
174.06
20
-115.401
11
173.869
21
-115.115
0
LINE
8
BLACK
6
CONTINUOUS
10
173.869
20
-115.115
11
173.774
21
-115.02
  0
ENDSEC
  0
EOF
