G04 #@! TF.GenerationSoftware,KiCad,Pcbnew,(7.0.0-0)*
G04 #@! TF.CreationDate,2023-06-07T10:38:09+02:00*
G04 #@! TF.ProjectId,hru300 adapter pcn,68727533-3030-4206-9164-617074657220,rev?*
G04 #@! TF.SameCoordinates,Original*
G04 #@! TF.FileFunction,Copper,L2,Bot*
G04 #@! TF.FilePolarity,Positive*
%FSLAX46Y46*%
G04 Gerber Fmt 4.6, Leading zero omitted, Abs format (unit mm)*
G04 Created by KiCad (PCBNEW (7.0.0-0)) date 2023-06-07 10:38:09*
%MOMM*%
%LPD*%
G01*
G04 APERTURE LIST*
G04 #@! TA.AperFunction,ComponentPad*
%ADD10R,1.700000X1.700000*%
G04 #@! TD*
G04 #@! TA.AperFunction,ComponentPad*
%ADD11O,1.700000X1.700000*%
G04 #@! TD*
G04 #@! TA.AperFunction,ComponentPad*
%ADD12C,1.446000*%
G04 #@! TD*
G04 #@! TA.AperFunction,ComponentPad*
%ADD13C,2.700000*%
G04 #@! TD*
G04 #@! TA.AperFunction,ComponentPad*
%ADD14C,3.000000*%
G04 #@! TD*
G04 #@! TA.AperFunction,Conductor*
%ADD15C,0.250000*%
G04 #@! TD*
G04 #@! TA.AperFunction,Conductor*
%ADD16C,0.406400*%
G04 #@! TD*
G04 APERTURE END LIST*
D10*
X156459999Y-91959999D03*
D11*
X158999999Y-91959999D03*
X156459999Y-94499999D03*
X158999999Y-94499999D03*
D12*
X140784200Y-77012800D03*
X141804200Y-78792800D03*
X142824200Y-77012800D03*
X143844200Y-78792800D03*
X144864200Y-77012800D03*
X145884200Y-78792800D03*
X146904200Y-77012800D03*
X147924200Y-78792800D03*
X137494200Y-83602800D03*
X139784200Y-83602800D03*
X148924200Y-83602800D03*
X151214200Y-83602800D03*
D13*
X152484200Y-78032800D03*
X136224200Y-78032800D03*
D14*
X148497400Y-93482200D03*
X144297400Y-93482200D03*
X140097400Y-93482200D03*
X148497400Y-89282200D03*
X144297400Y-89282200D03*
X140097400Y-89282200D03*
D15*
X148497400Y-89282200D02*
X151282200Y-89282200D01*
X153960000Y-91960000D02*
X156460000Y-91960000D01*
X151282200Y-89282200D02*
X153960000Y-91960000D01*
D16*
X144864200Y-77012800D02*
X143060800Y-75209400D01*
X139395200Y-80746600D02*
X142214600Y-83566000D01*
X142214600Y-91399400D02*
X144297400Y-93482200D01*
X140538200Y-75209400D02*
X139395200Y-76352400D01*
X143060800Y-75209400D02*
X140538200Y-75209400D01*
X139395200Y-76352400D02*
X139395200Y-80746600D01*
X142214600Y-83566000D02*
X142214600Y-91399400D01*
D15*
X153500000Y-94500000D02*
X156460000Y-94500000D01*
X148497400Y-93482200D02*
X152482200Y-93482200D01*
X152482200Y-93482200D02*
X153500000Y-94500000D01*
G04 #@! TA.AperFunction,Conductor*
G36*
X142100721Y-75928386D02*
G01*
X142145659Y-75970474D01*
X142163618Y-75998664D01*
X143090072Y-76925118D01*
X143122166Y-76980705D01*
X143122166Y-77044892D01*
X143090072Y-77100480D01*
X142911881Y-77278672D01*
X142856294Y-77310766D01*
X142792107Y-77310766D01*
X142736519Y-77278672D01*
X141835116Y-76377269D01*
X141821222Y-76360712D01*
X141728141Y-76227779D01*
X141728139Y-76227776D01*
X141725036Y-76223345D01*
X141626472Y-76124781D01*
X141596222Y-76075418D01*
X141591680Y-76017702D01*
X141613835Y-75964215D01*
X141657858Y-75926615D01*
X141714153Y-75913100D01*
X142041079Y-75913100D01*
X142100721Y-75928386D01*
G37*
G04 #@! TD.AperFunction*
G04 #@! TA.AperFunction,Conductor*
G36*
X161937500Y-70857713D02*
G01*
X161982887Y-70903100D01*
X161999500Y-70965100D01*
X161999500Y-104676216D01*
X161982857Y-104738269D01*
X161937395Y-104783664D01*
X161875317Y-104800216D01*
X127624317Y-104749783D01*
X127562395Y-104733109D01*
X127517082Y-104687730D01*
X127500500Y-104625783D01*
X127500500Y-101624335D01*
X129499500Y-101624335D01*
X129500343Y-101629387D01*
X129500344Y-101629398D01*
X129522122Y-101759904D01*
X129540429Y-101869614D01*
X129542093Y-101874461D01*
X129542094Y-101874465D01*
X129619507Y-102099962D01*
X129619510Y-102099969D01*
X129621172Y-102104810D01*
X129623607Y-102109310D01*
X129623610Y-102109316D01*
X129688755Y-102229693D01*
X129739526Y-102323509D01*
X129742676Y-102327557D01*
X129742678Y-102327559D01*
X129770861Y-102363768D01*
X129892262Y-102519744D01*
X129896029Y-102523211D01*
X129896032Y-102523215D01*
X130014776Y-102632526D01*
X130075215Y-102688164D01*
X130174057Y-102752740D01*
X130279099Y-102821368D01*
X130279102Y-102821369D01*
X130283393Y-102824173D01*
X130511119Y-102924063D01*
X130752179Y-102985108D01*
X130937933Y-103000500D01*
X131059497Y-103000500D01*
X131062067Y-103000500D01*
X131247821Y-102985108D01*
X131488881Y-102924063D01*
X131716607Y-102824173D01*
X131924785Y-102688164D01*
X132107738Y-102519744D01*
X132260474Y-102323509D01*
X132378828Y-102104810D01*
X132459571Y-101869614D01*
X132500500Y-101624335D01*
X132500500Y-101375665D01*
X132459571Y-101130386D01*
X132385073Y-100913382D01*
X138346900Y-100913382D01*
X138347589Y-100917954D01*
X138347590Y-100917965D01*
X138385312Y-101168228D01*
X138385313Y-101168235D01*
X138386004Y-101172815D01*
X138387369Y-101177243D01*
X138387371Y-101177248D01*
X138461969Y-101419091D01*
X138461973Y-101419101D01*
X138463337Y-101423523D01*
X138577172Y-101659904D01*
X138724967Y-101876679D01*
X138903419Y-102069005D01*
X139108543Y-102232586D01*
X139335757Y-102363768D01*
X139579984Y-102459620D01*
X139835770Y-102518002D01*
X140031906Y-102532700D01*
X140160577Y-102532700D01*
X140162894Y-102532700D01*
X140359030Y-102518002D01*
X140614816Y-102459620D01*
X140859043Y-102363768D01*
X141086257Y-102232586D01*
X141291381Y-102069005D01*
X141469833Y-101876679D01*
X141617628Y-101659904D01*
X141731463Y-101423523D01*
X141808796Y-101172815D01*
X141832827Y-101013382D01*
X146846900Y-101013382D01*
X146847589Y-101017954D01*
X146847590Y-101017965D01*
X146885312Y-101268228D01*
X146885313Y-101268235D01*
X146886004Y-101272815D01*
X146887369Y-101277243D01*
X146887371Y-101277248D01*
X146961969Y-101519091D01*
X146961973Y-101519101D01*
X146963337Y-101523523D01*
X146965346Y-101527696D01*
X146965349Y-101527702D01*
X147030861Y-101663739D01*
X147077172Y-101759904D01*
X147224967Y-101976679D01*
X147403419Y-102169005D01*
X147608543Y-102332586D01*
X147835757Y-102463768D01*
X148079984Y-102559620D01*
X148335770Y-102618002D01*
X148531906Y-102632700D01*
X148660577Y-102632700D01*
X148662894Y-102632700D01*
X148859030Y-102618002D01*
X149114816Y-102559620D01*
X149359043Y-102463768D01*
X149586257Y-102332586D01*
X149791381Y-102169005D01*
X149969833Y-101976679D01*
X150117628Y-101759904D01*
X150182915Y-101624335D01*
X156868500Y-101624335D01*
X156869343Y-101629387D01*
X156869344Y-101629398D01*
X156891122Y-101759904D01*
X156909429Y-101869614D01*
X156911093Y-101874461D01*
X156911094Y-101874465D01*
X156988507Y-102099962D01*
X156988510Y-102099969D01*
X156990172Y-102104810D01*
X156992607Y-102109310D01*
X156992610Y-102109316D01*
X157057755Y-102229693D01*
X157108526Y-102323509D01*
X157111676Y-102327557D01*
X157111678Y-102327559D01*
X157139861Y-102363768D01*
X157261262Y-102519744D01*
X157265029Y-102523211D01*
X157265032Y-102523215D01*
X157383776Y-102632526D01*
X157444215Y-102688164D01*
X157543057Y-102752740D01*
X157648099Y-102821368D01*
X157648102Y-102821369D01*
X157652393Y-102824173D01*
X157880119Y-102924063D01*
X158121179Y-102985108D01*
X158306933Y-103000500D01*
X158428497Y-103000500D01*
X158431067Y-103000500D01*
X158616821Y-102985108D01*
X158857881Y-102924063D01*
X159085607Y-102824173D01*
X159293785Y-102688164D01*
X159476738Y-102519744D01*
X159629474Y-102323509D01*
X159747828Y-102104810D01*
X159828571Y-101869614D01*
X159869500Y-101624335D01*
X159869500Y-101375665D01*
X159828571Y-101130386D01*
X159747828Y-100895190D01*
X159629474Y-100676491D01*
X159476738Y-100480256D01*
X159472970Y-100476787D01*
X159472967Y-100476784D01*
X159297560Y-100315311D01*
X159297559Y-100315310D01*
X159293785Y-100311836D01*
X159285885Y-100306675D01*
X159089900Y-100178631D01*
X159089893Y-100178627D01*
X159085607Y-100175827D01*
X159080916Y-100173769D01*
X159080910Y-100173766D01*
X158862577Y-100077997D01*
X158862578Y-100077997D01*
X158857881Y-100075937D01*
X158852911Y-100074678D01*
X158852910Y-100074678D01*
X158621795Y-100016151D01*
X158621788Y-100016149D01*
X158616821Y-100014892D01*
X158611709Y-100014468D01*
X158611701Y-100014467D01*
X158433633Y-99999712D01*
X158433617Y-99999711D01*
X158431067Y-99999500D01*
X158306933Y-99999500D01*
X158304383Y-99999711D01*
X158304366Y-99999712D01*
X158126298Y-100014467D01*
X158126288Y-100014468D01*
X158121179Y-100014892D01*
X158116213Y-100016149D01*
X158116204Y-100016151D01*
X157885089Y-100074678D01*
X157885084Y-100074679D01*
X157880119Y-100075937D01*
X157875425Y-100077995D01*
X157875422Y-100077997D01*
X157657089Y-100173766D01*
X157657077Y-100173772D01*
X157652393Y-100175827D01*
X157648111Y-100178624D01*
X157648099Y-100178631D01*
X157448512Y-100309028D01*
X157448506Y-100309031D01*
X157444215Y-100311836D01*
X157440446Y-100315305D01*
X157440439Y-100315311D01*
X157265032Y-100476784D01*
X157265023Y-100476793D01*
X157261262Y-100480256D01*
X157258113Y-100484301D01*
X157258111Y-100484304D01*
X157111678Y-100672440D01*
X157111672Y-100672448D01*
X157108526Y-100676491D01*
X157106088Y-100680995D01*
X157106084Y-100681002D01*
X156992610Y-100890683D01*
X156992605Y-100890693D01*
X156990172Y-100895190D01*
X156988511Y-100900026D01*
X156988507Y-100900037D01*
X156911094Y-101125534D01*
X156911092Y-101125541D01*
X156909429Y-101130386D01*
X156908585Y-101135441D01*
X156908585Y-101135443D01*
X156869344Y-101370601D01*
X156869343Y-101370613D01*
X156868500Y-101375665D01*
X156868500Y-101624335D01*
X150182915Y-101624335D01*
X150231463Y-101523523D01*
X150308796Y-101272815D01*
X150347900Y-101013382D01*
X150347900Y-100751018D01*
X150308796Y-100491585D01*
X150231463Y-100240877D01*
X150117628Y-100004496D01*
X149969833Y-99787721D01*
X149791381Y-99595395D01*
X149586257Y-99431814D01*
X149413052Y-99331814D01*
X149363064Y-99302953D01*
X149363058Y-99302950D01*
X149359043Y-99300632D01*
X149354724Y-99298937D01*
X149354718Y-99298934D01*
X149119138Y-99206476D01*
X149119134Y-99206475D01*
X149114816Y-99204780D01*
X149110293Y-99203747D01*
X149110291Y-99203747D01*
X148863549Y-99147429D01*
X148863543Y-99147428D01*
X148859030Y-99146398D01*
X148854408Y-99146051D01*
X148854404Y-99146051D01*
X148665208Y-99131873D01*
X148665197Y-99131872D01*
X148662894Y-99131700D01*
X148531906Y-99131700D01*
X148529603Y-99131872D01*
X148529591Y-99131873D01*
X148340395Y-99146051D01*
X148340389Y-99146051D01*
X148335770Y-99146398D01*
X148331258Y-99147427D01*
X148331250Y-99147429D01*
X148084508Y-99203747D01*
X148084502Y-99203748D01*
X148079984Y-99204780D01*
X148075668Y-99206473D01*
X148075661Y-99206476D01*
X147840081Y-99298934D01*
X147840070Y-99298939D01*
X147835757Y-99300632D01*
X147831746Y-99302947D01*
X147831735Y-99302953D01*
X147612561Y-99429494D01*
X147608543Y-99431814D01*
X147604919Y-99434703D01*
X147604916Y-99434706D01*
X147407046Y-99592502D01*
X147407041Y-99592506D01*
X147403419Y-99595395D01*
X147400265Y-99598793D01*
X147400263Y-99598796D01*
X147228119Y-99784323D01*
X147228113Y-99784329D01*
X147224967Y-99787721D01*
X147222357Y-99791548D01*
X147222357Y-99791549D01*
X147080434Y-99999712D01*
X147077172Y-100004496D01*
X147075159Y-100008674D01*
X147075156Y-100008681D01*
X146965349Y-100236697D01*
X146965344Y-100236708D01*
X146963337Y-100240877D01*
X146961974Y-100245293D01*
X146961969Y-100245308D01*
X146887371Y-100487151D01*
X146887368Y-100487159D01*
X146886004Y-100491585D01*
X146885314Y-100496161D01*
X146885312Y-100496171D01*
X146847590Y-100746434D01*
X146847589Y-100746446D01*
X146846900Y-100751018D01*
X146846900Y-101013382D01*
X141832827Y-101013382D01*
X141847900Y-100913382D01*
X141847900Y-100651018D01*
X141808796Y-100391585D01*
X141762309Y-100240877D01*
X141732830Y-100145308D01*
X141732828Y-100145305D01*
X141731463Y-100140877D01*
X141617628Y-99904496D01*
X141469833Y-99687721D01*
X141291381Y-99495395D01*
X141086257Y-99331814D01*
X140991616Y-99277173D01*
X140863064Y-99202953D01*
X140863058Y-99202950D01*
X140859043Y-99200632D01*
X140854724Y-99198937D01*
X140854718Y-99198934D01*
X140619138Y-99106476D01*
X140619134Y-99106475D01*
X140614816Y-99104780D01*
X140610293Y-99103747D01*
X140610291Y-99103747D01*
X140363549Y-99047429D01*
X140363543Y-99047428D01*
X140359030Y-99046398D01*
X140354408Y-99046051D01*
X140354404Y-99046051D01*
X140165208Y-99031873D01*
X140165197Y-99031872D01*
X140162894Y-99031700D01*
X140031906Y-99031700D01*
X140029603Y-99031872D01*
X140029591Y-99031873D01*
X139840395Y-99046051D01*
X139840389Y-99046051D01*
X139835770Y-99046398D01*
X139831258Y-99047427D01*
X139831250Y-99047429D01*
X139584508Y-99103747D01*
X139584502Y-99103748D01*
X139579984Y-99104780D01*
X139575668Y-99106473D01*
X139575661Y-99106476D01*
X139340081Y-99198934D01*
X139340070Y-99198939D01*
X139335757Y-99200632D01*
X139331746Y-99202947D01*
X139331735Y-99202953D01*
X139112561Y-99329494D01*
X139108543Y-99331814D01*
X139104919Y-99334703D01*
X139104916Y-99334706D01*
X138907046Y-99492502D01*
X138907041Y-99492506D01*
X138903419Y-99495395D01*
X138900265Y-99498793D01*
X138900263Y-99498796D01*
X138728119Y-99684323D01*
X138728113Y-99684329D01*
X138724967Y-99687721D01*
X138577172Y-99904496D01*
X138575159Y-99908674D01*
X138575156Y-99908681D01*
X138465349Y-100136697D01*
X138465344Y-100136708D01*
X138463337Y-100140877D01*
X138461974Y-100145293D01*
X138461969Y-100145308D01*
X138387371Y-100387151D01*
X138387368Y-100387159D01*
X138386004Y-100391585D01*
X138385314Y-100396161D01*
X138385312Y-100396171D01*
X138347590Y-100646434D01*
X138347589Y-100646446D01*
X138346900Y-100651018D01*
X138346900Y-100913382D01*
X132385073Y-100913382D01*
X132378828Y-100895190D01*
X132260474Y-100676491D01*
X132107738Y-100480256D01*
X132103970Y-100476787D01*
X132103967Y-100476784D01*
X131928560Y-100315311D01*
X131928559Y-100315310D01*
X131924785Y-100311836D01*
X131916885Y-100306675D01*
X131720900Y-100178631D01*
X131720893Y-100178627D01*
X131716607Y-100175827D01*
X131711916Y-100173769D01*
X131711910Y-100173766D01*
X131493577Y-100077997D01*
X131493578Y-100077997D01*
X131488881Y-100075937D01*
X131483911Y-100074678D01*
X131483910Y-100074678D01*
X131252795Y-100016151D01*
X131252788Y-100016149D01*
X131247821Y-100014892D01*
X131242709Y-100014468D01*
X131242701Y-100014467D01*
X131064633Y-99999712D01*
X131064617Y-99999711D01*
X131062067Y-99999500D01*
X130937933Y-99999500D01*
X130935383Y-99999711D01*
X130935366Y-99999712D01*
X130757298Y-100014467D01*
X130757288Y-100014468D01*
X130752179Y-100014892D01*
X130747213Y-100016149D01*
X130747204Y-100016151D01*
X130516089Y-100074678D01*
X130516084Y-100074679D01*
X130511119Y-100075937D01*
X130506425Y-100077995D01*
X130506422Y-100077997D01*
X130288089Y-100173766D01*
X130288077Y-100173772D01*
X130283393Y-100175827D01*
X130279111Y-100178624D01*
X130279099Y-100178631D01*
X130079512Y-100309028D01*
X130079506Y-100309031D01*
X130075215Y-100311836D01*
X130071446Y-100315305D01*
X130071439Y-100315311D01*
X129896032Y-100476784D01*
X129896023Y-100476793D01*
X129892262Y-100480256D01*
X129889113Y-100484301D01*
X129889111Y-100484304D01*
X129742678Y-100672440D01*
X129742672Y-100672448D01*
X129739526Y-100676491D01*
X129737088Y-100680995D01*
X129737084Y-100681002D01*
X129623610Y-100890683D01*
X129623605Y-100890693D01*
X129621172Y-100895190D01*
X129619511Y-100900026D01*
X129619507Y-100900037D01*
X129542094Y-101125534D01*
X129542092Y-101125541D01*
X129540429Y-101130386D01*
X129539585Y-101135441D01*
X129539585Y-101135443D01*
X129500344Y-101370601D01*
X129500343Y-101370613D01*
X129499500Y-101375665D01*
X129499500Y-101624335D01*
X127500500Y-101624335D01*
X127500500Y-84626216D01*
X136827705Y-84626216D01*
X136835136Y-84634325D01*
X136875931Y-84662891D01*
X136885269Y-84668282D01*
X137069404Y-84754146D01*
X137079538Y-84757834D01*
X137275784Y-84810419D01*
X137286415Y-84812293D01*
X137488805Y-84830000D01*
X137499595Y-84830000D01*
X137701984Y-84812293D01*
X137712615Y-84810419D01*
X137908861Y-84757834D01*
X137918995Y-84754146D01*
X138103128Y-84668283D01*
X138112472Y-84662888D01*
X138153261Y-84634326D01*
X138160692Y-84626215D01*
X138154779Y-84616933D01*
X137505742Y-83967895D01*
X137494199Y-83961231D01*
X137482657Y-83967895D01*
X136833619Y-84616933D01*
X136827705Y-84626216D01*
X127500500Y-84626216D01*
X127500500Y-83608195D01*
X136267000Y-83608195D01*
X136284706Y-83810584D01*
X136286580Y-83821215D01*
X136339165Y-84017461D01*
X136342853Y-84027595D01*
X136428716Y-84211728D01*
X136434112Y-84221073D01*
X136462672Y-84261860D01*
X136470783Y-84269292D01*
X136480065Y-84263379D01*
X137129103Y-83614341D01*
X137135767Y-83602799D01*
X137129103Y-83591256D01*
X136480062Y-82942216D01*
X136470783Y-82936305D01*
X136462672Y-82943738D01*
X136434113Y-82984524D01*
X136428715Y-82993874D01*
X136342853Y-83178004D01*
X136339165Y-83188138D01*
X136286580Y-83384384D01*
X136284706Y-83395015D01*
X136267000Y-83597405D01*
X136267000Y-83608195D01*
X127500500Y-83608195D01*
X127500500Y-82579383D01*
X136827705Y-82579383D01*
X136833616Y-82588662D01*
X137482657Y-83237703D01*
X137494200Y-83244367D01*
X137505742Y-83237703D01*
X138154779Y-82588665D01*
X138160692Y-82579383D01*
X138153260Y-82571272D01*
X138112473Y-82542712D01*
X138103128Y-82537316D01*
X137918995Y-82451453D01*
X137908861Y-82447765D01*
X137712615Y-82395180D01*
X137701984Y-82393306D01*
X137499595Y-82375600D01*
X137488805Y-82375600D01*
X137286415Y-82393306D01*
X137275784Y-82395180D01*
X137079538Y-82447765D01*
X137069404Y-82451453D01*
X136885274Y-82537315D01*
X136875924Y-82542713D01*
X136835138Y-82571272D01*
X136827705Y-82579383D01*
X127500500Y-82579383D01*
X127500500Y-78032800D01*
X134368973Y-78032800D01*
X134369289Y-78037218D01*
X134387540Y-78292403D01*
X134387541Y-78292412D01*
X134387857Y-78296826D01*
X134388797Y-78301151D01*
X134388799Y-78301159D01*
X134437912Y-78526927D01*
X134444123Y-78555478D01*
X134445672Y-78559631D01*
X134535078Y-78799340D01*
X134535080Y-78799346D01*
X134536626Y-78803489D01*
X134663484Y-79035811D01*
X134822113Y-79247715D01*
X135009285Y-79434887D01*
X135221189Y-79593516D01*
X135453511Y-79720374D01*
X135701522Y-79812877D01*
X135960174Y-79869143D01*
X136224200Y-79888027D01*
X136488226Y-79869143D01*
X136746878Y-79812877D01*
X136994889Y-79720374D01*
X137227211Y-79593516D01*
X137439115Y-79434887D01*
X137626287Y-79247715D01*
X137784916Y-79035811D01*
X137911774Y-78803489D01*
X138004277Y-78555478D01*
X138060543Y-78296826D01*
X138079427Y-78032800D01*
X138060543Y-77768774D01*
X138004277Y-77510122D01*
X137911774Y-77262111D01*
X137784916Y-77029789D01*
X137626287Y-76817885D01*
X137439115Y-76630713D01*
X137227211Y-76472084D01*
X136994889Y-76345226D01*
X136990746Y-76343680D01*
X136990740Y-76343678D01*
X136751031Y-76254272D01*
X136746878Y-76252723D01*
X136742546Y-76251780D01*
X136742544Y-76251780D01*
X136492559Y-76197399D01*
X136492551Y-76197397D01*
X136488226Y-76196457D01*
X136483812Y-76196141D01*
X136483803Y-76196140D01*
X136228618Y-76177889D01*
X136224200Y-76177573D01*
X136219782Y-76177889D01*
X135964596Y-76196140D01*
X135964585Y-76196141D01*
X135960174Y-76196457D01*
X135955850Y-76197397D01*
X135955840Y-76197399D01*
X135705855Y-76251780D01*
X135705849Y-76251781D01*
X135701522Y-76252723D01*
X135697372Y-76254270D01*
X135697368Y-76254272D01*
X135457659Y-76343678D01*
X135457648Y-76343682D01*
X135453511Y-76345226D01*
X135449629Y-76347345D01*
X135449624Y-76347348D01*
X135225083Y-76469957D01*
X135225075Y-76469961D01*
X135221189Y-76472084D01*
X135217639Y-76474741D01*
X135217635Y-76474744D01*
X135012836Y-76628054D01*
X135012829Y-76628059D01*
X135009285Y-76630713D01*
X135006154Y-76633843D01*
X135006147Y-76633850D01*
X134825250Y-76814747D01*
X134825243Y-76814754D01*
X134822113Y-76817885D01*
X134819459Y-76821429D01*
X134819454Y-76821436D01*
X134672163Y-77018195D01*
X134663484Y-77029789D01*
X134661361Y-77033675D01*
X134661357Y-77033683D01*
X134553453Y-77231294D01*
X134536626Y-77262111D01*
X134535082Y-77266248D01*
X134535078Y-77266259D01*
X134472940Y-77432860D01*
X134444123Y-77510122D01*
X134443181Y-77514449D01*
X134443180Y-77514455D01*
X134388799Y-77764440D01*
X134388797Y-77764450D01*
X134387857Y-77768774D01*
X134387541Y-77773185D01*
X134387540Y-77773196D01*
X134369543Y-78024823D01*
X134368973Y-78032800D01*
X127500500Y-78032800D01*
X127500500Y-74124335D01*
X129499500Y-74124335D01*
X129500343Y-74129387D01*
X129500344Y-74129398D01*
X129522583Y-74262666D01*
X129540429Y-74369614D01*
X129542093Y-74374461D01*
X129542094Y-74374465D01*
X129619507Y-74599962D01*
X129619510Y-74599969D01*
X129621172Y-74604810D01*
X129623607Y-74609310D01*
X129623610Y-74609316D01*
X129737084Y-74818997D01*
X129739526Y-74823509D01*
X129892262Y-75019744D01*
X129896029Y-75023211D01*
X129896032Y-75023215D01*
X129952944Y-75075606D01*
X130075215Y-75188164D01*
X130174057Y-75252740D01*
X130279099Y-75321368D01*
X130279102Y-75321369D01*
X130283393Y-75324173D01*
X130288087Y-75326232D01*
X130288089Y-75326233D01*
X130324599Y-75342248D01*
X130511119Y-75424063D01*
X130752179Y-75485108D01*
X130937933Y-75500500D01*
X131059497Y-75500500D01*
X131062067Y-75500500D01*
X131247821Y-75485108D01*
X131488881Y-75424063D01*
X131716607Y-75324173D01*
X131924785Y-75188164D01*
X132107738Y-75019744D01*
X132260474Y-74823509D01*
X132378828Y-74604810D01*
X132400569Y-74541480D01*
X136124938Y-74541480D01*
X136125432Y-74545977D01*
X136125433Y-74545982D01*
X136154467Y-74809859D01*
X136154468Y-74809866D01*
X136154964Y-74814371D01*
X136156109Y-74818751D01*
X136156111Y-74818761D01*
X136207597Y-75015695D01*
X136224404Y-75079982D01*
X136226169Y-75084136D01*
X136226172Y-75084144D01*
X136329049Y-75326233D01*
X136331777Y-75332652D01*
X136334134Y-75336514D01*
X136424819Y-75485108D01*
X136474795Y-75566996D01*
X136477693Y-75570478D01*
X136477695Y-75570481D01*
X136567991Y-75678983D01*
X136650409Y-75778018D01*
X136854877Y-75961223D01*
X137083841Y-76112704D01*
X137087932Y-76114621D01*
X137087936Y-76114624D01*
X137328325Y-76227313D01*
X137332421Y-76229233D01*
X137595319Y-76308327D01*
X137866931Y-76348300D01*
X138070485Y-76348300D01*
X138072747Y-76348300D01*
X138278005Y-76333277D01*
X138540539Y-76274795D01*
X138595566Y-76275046D01*
X138645065Y-76299083D01*
X138679290Y-76342172D01*
X138691500Y-76395828D01*
X138691500Y-80721600D01*
X138691274Y-80729086D01*
X138688078Y-80781912D01*
X138688078Y-80781919D01*
X138687626Y-80789400D01*
X138688977Y-80796775D01*
X138688978Y-80796783D01*
X138698514Y-80848823D01*
X138699641Y-80856223D01*
X138706026Y-80908802D01*
X138706930Y-80916243D01*
X138709586Y-80923248D01*
X138709588Y-80923253D01*
X138710559Y-80925812D01*
X138716587Y-80947434D01*
X138717077Y-80950110D01*
X138717078Y-80950114D01*
X138718430Y-80957490D01*
X138743234Y-81012606D01*
X138746093Y-81019508D01*
X138767529Y-81076027D01*
X138771785Y-81082194D01*
X138771789Y-81082200D01*
X138773338Y-81084444D01*
X138784365Y-81103995D01*
X138788564Y-81113325D01*
X138793188Y-81119228D01*
X138793190Y-81119230D01*
X138825848Y-81160914D01*
X138830284Y-81166943D01*
X138864605Y-81216666D01*
X138909830Y-81256732D01*
X138915284Y-81261866D01*
X139820394Y-82166976D01*
X139853774Y-82227818D01*
X139849235Y-82297067D01*
X139808200Y-82353033D01*
X139743521Y-82378185D01*
X139576319Y-82392813D01*
X139576313Y-82392814D01*
X139570930Y-82393285D01*
X139565716Y-82394682D01*
X139565705Y-82394684D01*
X139369372Y-82447291D01*
X139369360Y-82447295D01*
X139364140Y-82448694D01*
X139359239Y-82450979D01*
X139359229Y-82450983D01*
X139175023Y-82536880D01*
X139175019Y-82536882D01*
X139170113Y-82539170D01*
X139165680Y-82542273D01*
X139165673Y-82542278D01*
X138999180Y-82658858D01*
X138999175Y-82658861D01*
X138994745Y-82661964D01*
X138990921Y-82665787D01*
X138990915Y-82665793D01*
X138847193Y-82809515D01*
X138847187Y-82809521D01*
X138843364Y-82813345D01*
X138840262Y-82817774D01*
X138840262Y-82817775D01*
X138740469Y-82960294D01*
X138696151Y-82999159D01*
X138638894Y-83013170D01*
X138581638Y-82999160D01*
X138537320Y-82960294D01*
X138525727Y-82943738D01*
X138517616Y-82936305D01*
X138508333Y-82942219D01*
X137859295Y-83591256D01*
X137852631Y-83602799D01*
X137859295Y-83614341D01*
X138508333Y-84263379D01*
X138517615Y-84269292D01*
X138525725Y-84261862D01*
X138537320Y-84245304D01*
X138581638Y-84206439D01*
X138638895Y-84192429D01*
X138696151Y-84206440D01*
X138740467Y-84245303D01*
X138843364Y-84392255D01*
X138994745Y-84543636D01*
X139170113Y-84666430D01*
X139364140Y-84756906D01*
X139570930Y-84812315D01*
X139784200Y-84830974D01*
X139997470Y-84812315D01*
X140204260Y-84756906D01*
X140398287Y-84666430D01*
X140573655Y-84543636D01*
X140725036Y-84392255D01*
X140847830Y-84216887D01*
X140938306Y-84022860D01*
X140993715Y-83816070D01*
X141008815Y-83643475D01*
X141033966Y-83578800D01*
X141089931Y-83537764D01*
X141159180Y-83533225D01*
X141220023Y-83566605D01*
X141474581Y-83821163D01*
X141501461Y-83861391D01*
X141510900Y-83908844D01*
X141510900Y-87593679D01*
X141492395Y-87658846D01*
X141442404Y-87704563D01*
X141375848Y-87717185D01*
X141312591Y-87692947D01*
X141181715Y-87594974D01*
X141177820Y-87592847D01*
X140934450Y-87459956D01*
X140934443Y-87459953D01*
X140930561Y-87457833D01*
X140926417Y-87456287D01*
X140926412Y-87456285D01*
X140666589Y-87359376D01*
X140666585Y-87359375D01*
X140662446Y-87357831D01*
X140632475Y-87351311D01*
X140387161Y-87297946D01*
X140387153Y-87297944D01*
X140382828Y-87297004D01*
X140378414Y-87296688D01*
X140378405Y-87296687D01*
X140101818Y-87276906D01*
X140097400Y-87276590D01*
X140092982Y-87276906D01*
X139816394Y-87296687D01*
X139816383Y-87296688D01*
X139811972Y-87297004D01*
X139807648Y-87297944D01*
X139807638Y-87297946D01*
X139536679Y-87356890D01*
X139536676Y-87356890D01*
X139532354Y-87357831D01*
X139528218Y-87359373D01*
X139528210Y-87359376D01*
X139268387Y-87456285D01*
X139268376Y-87456289D01*
X139264239Y-87457833D01*
X139260361Y-87459950D01*
X139260349Y-87459956D01*
X139016979Y-87592847D01*
X139016971Y-87592851D01*
X139013085Y-87594974D01*
X139009535Y-87597631D01*
X139009531Y-87597634D01*
X138787556Y-87763802D01*
X138787549Y-87763807D01*
X138784005Y-87766461D01*
X138780874Y-87769591D01*
X138780867Y-87769598D01*
X138584798Y-87965667D01*
X138584791Y-87965674D01*
X138581661Y-87968805D01*
X138579007Y-87972349D01*
X138579002Y-87972356D01*
X138412834Y-88194331D01*
X138410174Y-88197885D01*
X138408051Y-88201771D01*
X138408047Y-88201779D01*
X138275156Y-88445149D01*
X138275150Y-88445161D01*
X138273033Y-88449039D01*
X138271489Y-88453176D01*
X138271485Y-88453187D01*
X138174576Y-88713010D01*
X138174573Y-88713018D01*
X138173031Y-88717154D01*
X138172090Y-88721476D01*
X138172090Y-88721479D01*
X138113146Y-88992438D01*
X138113144Y-88992448D01*
X138112204Y-88996772D01*
X138111888Y-89001183D01*
X138111887Y-89001194D01*
X138098061Y-89194519D01*
X138091790Y-89282200D01*
X138092106Y-89286618D01*
X138111887Y-89563205D01*
X138111888Y-89563214D01*
X138112204Y-89567628D01*
X138113144Y-89571953D01*
X138113146Y-89571961D01*
X138118310Y-89595698D01*
X138173031Y-89847246D01*
X138174575Y-89851385D01*
X138174576Y-89851389D01*
X138271407Y-90111003D01*
X138273033Y-90115361D01*
X138275153Y-90119243D01*
X138275156Y-90119250D01*
X138407900Y-90362350D01*
X138410174Y-90366515D01*
X138581661Y-90595595D01*
X138784005Y-90797939D01*
X139013085Y-90969426D01*
X139264239Y-91106567D01*
X139532354Y-91206569D01*
X139782729Y-91261034D01*
X139841509Y-91292049D01*
X139875832Y-91348966D01*
X139875832Y-91415431D01*
X139841510Y-91472348D01*
X139782727Y-91503365D01*
X139536676Y-91556890D01*
X139536665Y-91556893D01*
X139532354Y-91557831D01*
X139528218Y-91559373D01*
X139528210Y-91559376D01*
X139268387Y-91656285D01*
X139268376Y-91656289D01*
X139264239Y-91657833D01*
X139260361Y-91659950D01*
X139260349Y-91659956D01*
X139016979Y-91792847D01*
X139016971Y-91792851D01*
X139013085Y-91794974D01*
X139009535Y-91797631D01*
X139009531Y-91797634D01*
X138787556Y-91963802D01*
X138787549Y-91963807D01*
X138784005Y-91966461D01*
X138780874Y-91969591D01*
X138780867Y-91969598D01*
X138584798Y-92165667D01*
X138584791Y-92165674D01*
X138581661Y-92168805D01*
X138579007Y-92172349D01*
X138579002Y-92172356D01*
X138412834Y-92394331D01*
X138410174Y-92397885D01*
X138408051Y-92401771D01*
X138408047Y-92401779D01*
X138275156Y-92645149D01*
X138275150Y-92645161D01*
X138273033Y-92649039D01*
X138271489Y-92653176D01*
X138271485Y-92653187D01*
X138174576Y-92913010D01*
X138174573Y-92913018D01*
X138173031Y-92917154D01*
X138172090Y-92921476D01*
X138172090Y-92921479D01*
X138113146Y-93192438D01*
X138113144Y-93192448D01*
X138112204Y-93196772D01*
X138111888Y-93201183D01*
X138111887Y-93201194D01*
X138105174Y-93295063D01*
X138091790Y-93482200D01*
X138092106Y-93486618D01*
X138111887Y-93763205D01*
X138111888Y-93763214D01*
X138112204Y-93767628D01*
X138113144Y-93771953D01*
X138113146Y-93771961D01*
X138166511Y-94017275D01*
X138173031Y-94047246D01*
X138174575Y-94051385D01*
X138174576Y-94051389D01*
X138254850Y-94266613D01*
X138273033Y-94315361D01*
X138275153Y-94319243D01*
X138275156Y-94319250D01*
X138305052Y-94374000D01*
X138410174Y-94566515D01*
X138581661Y-94795595D01*
X138784005Y-94997939D01*
X139013085Y-95169426D01*
X139264239Y-95306567D01*
X139532354Y-95406569D01*
X139811972Y-95467396D01*
X140097400Y-95487810D01*
X140382828Y-95467396D01*
X140662446Y-95406569D01*
X140930561Y-95306567D01*
X141181715Y-95169426D01*
X141410795Y-94997939D01*
X141613139Y-94795595D01*
X141784626Y-94566515D01*
X141921767Y-94315361D01*
X142021769Y-94047246D01*
X142076234Y-93796872D01*
X142107251Y-93738089D01*
X142164168Y-93703767D01*
X142230632Y-93703767D01*
X142287549Y-93738089D01*
X142318565Y-93796872D01*
X142373031Y-94047246D01*
X142374575Y-94051385D01*
X142374576Y-94051389D01*
X142454850Y-94266613D01*
X142473033Y-94315361D01*
X142475153Y-94319243D01*
X142475156Y-94319250D01*
X142505052Y-94374000D01*
X142610174Y-94566515D01*
X142781661Y-94795595D01*
X142984005Y-94997939D01*
X143213085Y-95169426D01*
X143464239Y-95306567D01*
X143732354Y-95406569D01*
X144011972Y-95467396D01*
X144297400Y-95487810D01*
X144582828Y-95467396D01*
X144862446Y-95406569D01*
X145130561Y-95306567D01*
X145381715Y-95169426D01*
X145610795Y-94997939D01*
X145813139Y-94795595D01*
X145984626Y-94566515D01*
X146121767Y-94315361D01*
X146221769Y-94047246D01*
X146276234Y-93796872D01*
X146307251Y-93738089D01*
X146364168Y-93703767D01*
X146430632Y-93703767D01*
X146487549Y-93738089D01*
X146518565Y-93796872D01*
X146573031Y-94047246D01*
X146574575Y-94051385D01*
X146574576Y-94051389D01*
X146654850Y-94266613D01*
X146673033Y-94315361D01*
X146675153Y-94319243D01*
X146675156Y-94319250D01*
X146705052Y-94374000D01*
X146810174Y-94566515D01*
X146981661Y-94795595D01*
X147184005Y-94997939D01*
X147413085Y-95169426D01*
X147664239Y-95306567D01*
X147932354Y-95406569D01*
X148211972Y-95467396D01*
X148497400Y-95487810D01*
X148782828Y-95467396D01*
X149062446Y-95406569D01*
X149330561Y-95306567D01*
X149581715Y-95169426D01*
X149810795Y-94997939D01*
X150013139Y-94795595D01*
X150184626Y-94566515D01*
X150321767Y-94315361D01*
X150369133Y-94188366D01*
X150395573Y-94146130D01*
X150436503Y-94117712D01*
X150485316Y-94107700D01*
X152171748Y-94107700D01*
X152219201Y-94117139D01*
X152259429Y-94144019D01*
X153002707Y-94887297D01*
X153010156Y-94895483D01*
X153014214Y-94901877D01*
X153019899Y-94907215D01*
X153019901Y-94907218D01*
X153063239Y-94947915D01*
X153066035Y-94950625D01*
X153085530Y-94970120D01*
X153088615Y-94972513D01*
X153088701Y-94972580D01*
X153097573Y-94980158D01*
X153129418Y-95010062D01*
X153136248Y-95013817D01*
X153136251Y-95013819D01*
X153146971Y-95019712D01*
X153163222Y-95030386D01*
X153179064Y-95042674D01*
X153186221Y-95045771D01*
X153186223Y-95045772D01*
X153219155Y-95060022D01*
X153229650Y-95065164D01*
X153267908Y-95086197D01*
X153287312Y-95091179D01*
X153305714Y-95097480D01*
X153316941Y-95102338D01*
X153324105Y-95105438D01*
X153361697Y-95111391D01*
X153367239Y-95112269D01*
X153378682Y-95114639D01*
X153413425Y-95123560D01*
X153413426Y-95123560D01*
X153420981Y-95125500D01*
X153441017Y-95125500D01*
X153460402Y-95127025D01*
X153480196Y-95130160D01*
X153518276Y-95126560D01*
X153523676Y-95126050D01*
X153535345Y-95125500D01*
X155184772Y-95125500D01*
X155242029Y-95139511D01*
X155286347Y-95178376D01*
X155418399Y-95366966D01*
X155418402Y-95366970D01*
X155421505Y-95371401D01*
X155588599Y-95538495D01*
X155782170Y-95674035D01*
X155996337Y-95773903D01*
X156224592Y-95835063D01*
X156460000Y-95855659D01*
X156695408Y-95835063D01*
X156923663Y-95773903D01*
X157137830Y-95674035D01*
X157331401Y-95538495D01*
X157498495Y-95371401D01*
X157628730Y-95185405D01*
X157673048Y-95146540D01*
X157730305Y-95132529D01*
X157787562Y-95146540D01*
X157831880Y-95185405D01*
X157958784Y-95366643D01*
X157965721Y-95374909D01*
X158125090Y-95534278D01*
X158133356Y-95541215D01*
X158317991Y-95670498D01*
X158327323Y-95675886D01*
X158531602Y-95771143D01*
X158541736Y-95774831D01*
X158736219Y-95826943D01*
X158747448Y-95827311D01*
X158750000Y-95816369D01*
X159250000Y-95816369D01*
X159252551Y-95827311D01*
X159263780Y-95826943D01*
X159458263Y-95774831D01*
X159468397Y-95771143D01*
X159672676Y-95675886D01*
X159682008Y-95670498D01*
X159866643Y-95541215D01*
X159874909Y-95534278D01*
X160034278Y-95374909D01*
X160041215Y-95366643D01*
X160170498Y-95182008D01*
X160175886Y-95172676D01*
X160271143Y-94968397D01*
X160274831Y-94958263D01*
X160326943Y-94763780D01*
X160327311Y-94752551D01*
X160316369Y-94750000D01*
X159266326Y-94750000D01*
X159253450Y-94753450D01*
X159250000Y-94766326D01*
X159250000Y-95816369D01*
X158750000Y-95816369D01*
X158750000Y-94374000D01*
X158766613Y-94312000D01*
X158812000Y-94266613D01*
X158874000Y-94250000D01*
X160316369Y-94250000D01*
X160327311Y-94247448D01*
X160326943Y-94236219D01*
X160274831Y-94041736D01*
X160271143Y-94031602D01*
X160175889Y-93827332D01*
X160170491Y-93817982D01*
X160041215Y-93633357D01*
X160034280Y-93625092D01*
X159874909Y-93465721D01*
X159866643Y-93458784D01*
X159685405Y-93331880D01*
X159646540Y-93287562D01*
X159632529Y-93230305D01*
X159646540Y-93173048D01*
X159685406Y-93128730D01*
X159733728Y-93094895D01*
X159871401Y-92998495D01*
X160038495Y-92831401D01*
X160174035Y-92637830D01*
X160273903Y-92423663D01*
X160335063Y-92195408D01*
X160355659Y-91960000D01*
X160335063Y-91724592D01*
X160273903Y-91496337D01*
X160174035Y-91282171D01*
X160038495Y-91088599D01*
X159871401Y-90921505D01*
X159866970Y-90918402D01*
X159866966Y-90918399D01*
X159682259Y-90789066D01*
X159682257Y-90789064D01*
X159677830Y-90785965D01*
X159672933Y-90783681D01*
X159672927Y-90783678D01*
X159468572Y-90688386D01*
X159468570Y-90688385D01*
X159463663Y-90686097D01*
X159458438Y-90684697D01*
X159458430Y-90684694D01*
X159240634Y-90626337D01*
X159240630Y-90626336D01*
X159235408Y-90624937D01*
X159230020Y-90624465D01*
X159230017Y-90624465D01*
X159005395Y-90604813D01*
X159000000Y-90604341D01*
X158994605Y-90604813D01*
X158769982Y-90624465D01*
X158769977Y-90624465D01*
X158764592Y-90624937D01*
X158759371Y-90626335D01*
X158759365Y-90626337D01*
X158541569Y-90684694D01*
X158541557Y-90684698D01*
X158536337Y-90686097D01*
X158531432Y-90688383D01*
X158531427Y-90688386D01*
X158327081Y-90783675D01*
X158327077Y-90783677D01*
X158322171Y-90785965D01*
X158317738Y-90789068D01*
X158317731Y-90789073D01*
X158133034Y-90918399D01*
X158133029Y-90918402D01*
X158128599Y-90921505D01*
X158124774Y-90925329D01*
X158124775Y-90925329D01*
X158006673Y-91043431D01*
X157953926Y-91074726D01*
X157892633Y-91076915D01*
X157837789Y-91049462D01*
X157802810Y-90999082D01*
X157775304Y-90925336D01*
X157753796Y-90867669D01*
X157667546Y-90752454D01*
X157577030Y-90684694D01*
X157559431Y-90671519D01*
X157559430Y-90671518D01*
X157552331Y-90666204D01*
X157445442Y-90626337D01*
X157424752Y-90618620D01*
X157424750Y-90618619D01*
X157417483Y-90615909D01*
X157409770Y-90615079D01*
X157409767Y-90615079D01*
X157361180Y-90609855D01*
X157361169Y-90609854D01*
X157357873Y-90609500D01*
X157354550Y-90609500D01*
X155565439Y-90609500D01*
X155565420Y-90609500D01*
X155562128Y-90609501D01*
X155558850Y-90609853D01*
X155558838Y-90609854D01*
X155510231Y-90615079D01*
X155510225Y-90615080D01*
X155502517Y-90615909D01*
X155495252Y-90618618D01*
X155495246Y-90618620D01*
X155375980Y-90663104D01*
X155375978Y-90663104D01*
X155367669Y-90666204D01*
X155360572Y-90671516D01*
X155360568Y-90671519D01*
X155259550Y-90747141D01*
X155259546Y-90747144D01*
X155252454Y-90752454D01*
X155247144Y-90759546D01*
X155247141Y-90759550D01*
X155171519Y-90860568D01*
X155171516Y-90860572D01*
X155166204Y-90867669D01*
X155163104Y-90875978D01*
X155163104Y-90875980D01*
X155118620Y-90995247D01*
X155118619Y-90995250D01*
X155115909Y-91002517D01*
X155115079Y-91010227D01*
X155115079Y-91010232D01*
X155109855Y-91058819D01*
X155109854Y-91058831D01*
X155109500Y-91062127D01*
X155109500Y-91065449D01*
X155109500Y-91210500D01*
X155092887Y-91272500D01*
X155047500Y-91317887D01*
X154985500Y-91334500D01*
X154270452Y-91334500D01*
X154222999Y-91325061D01*
X154182771Y-91298181D01*
X152995802Y-90111212D01*
X151779486Y-88894895D01*
X151772042Y-88886714D01*
X151767986Y-88880323D01*
X151718975Y-88834298D01*
X151716178Y-88831587D01*
X151699427Y-88814836D01*
X151699427Y-88814835D01*
X151696671Y-88812080D01*
X151693490Y-88809612D01*
X151684614Y-88802030D01*
X151658469Y-88777478D01*
X151658467Y-88777476D01*
X151652782Y-88772138D01*
X151645949Y-88768382D01*
X151645943Y-88768377D01*
X151635225Y-88762485D01*
X151618966Y-88751806D01*
X151609295Y-88744304D01*
X151609292Y-88744302D01*
X151603136Y-88739527D01*
X151595979Y-88736429D01*
X151595976Y-88736428D01*
X151563049Y-88722178D01*
X151552563Y-88717041D01*
X151521132Y-88699762D01*
X151521123Y-88699758D01*
X151514292Y-88696003D01*
X151506735Y-88694062D01*
X151506731Y-88694061D01*
X151494888Y-88691020D01*
X151476484Y-88684719D01*
X151465257Y-88679860D01*
X151465250Y-88679858D01*
X151458096Y-88676762D01*
X151450392Y-88675541D01*
X151450390Y-88675541D01*
X151414959Y-88669929D01*
X151403524Y-88667561D01*
X151368771Y-88658638D01*
X151368763Y-88658637D01*
X151361219Y-88656700D01*
X151353423Y-88656700D01*
X151341183Y-88656700D01*
X151321797Y-88655174D01*
X151302004Y-88652040D01*
X151294238Y-88652774D01*
X151294235Y-88652774D01*
X151258524Y-88656150D01*
X151246855Y-88656700D01*
X150485316Y-88656700D01*
X150436503Y-88646688D01*
X150395573Y-88618270D01*
X150369134Y-88576034D01*
X150323392Y-88453396D01*
X150321767Y-88449039D01*
X150184626Y-88197885D01*
X150013139Y-87968805D01*
X149810795Y-87766461D01*
X149581715Y-87594974D01*
X149577820Y-87592847D01*
X149334450Y-87459956D01*
X149334443Y-87459953D01*
X149330561Y-87457833D01*
X149326417Y-87456287D01*
X149326412Y-87456285D01*
X149066589Y-87359376D01*
X149066585Y-87359375D01*
X149062446Y-87357831D01*
X149032475Y-87351311D01*
X148787161Y-87297946D01*
X148787153Y-87297944D01*
X148782828Y-87297004D01*
X148778414Y-87296688D01*
X148778405Y-87296687D01*
X148501818Y-87276906D01*
X148497400Y-87276590D01*
X148492982Y-87276906D01*
X148216394Y-87296687D01*
X148216383Y-87296688D01*
X148211972Y-87297004D01*
X148207648Y-87297944D01*
X148207638Y-87297946D01*
X147936679Y-87356890D01*
X147936676Y-87356890D01*
X147932354Y-87357831D01*
X147928218Y-87359373D01*
X147928210Y-87359376D01*
X147668387Y-87456285D01*
X147668376Y-87456289D01*
X147664239Y-87457833D01*
X147660361Y-87459950D01*
X147660349Y-87459956D01*
X147416979Y-87592847D01*
X147416971Y-87592851D01*
X147413085Y-87594974D01*
X147409535Y-87597631D01*
X147409531Y-87597634D01*
X147187556Y-87763802D01*
X147187549Y-87763807D01*
X147184005Y-87766461D01*
X147180874Y-87769591D01*
X147180867Y-87769598D01*
X146984798Y-87965667D01*
X146984791Y-87965674D01*
X146981661Y-87968805D01*
X146979007Y-87972349D01*
X146979002Y-87972356D01*
X146812834Y-88194331D01*
X146810174Y-88197885D01*
X146808051Y-88201771D01*
X146808047Y-88201779D01*
X146675156Y-88445149D01*
X146675150Y-88445161D01*
X146673033Y-88449039D01*
X146671489Y-88453176D01*
X146671485Y-88453187D01*
X146574576Y-88713010D01*
X146574573Y-88713018D01*
X146573031Y-88717154D01*
X146572090Y-88721476D01*
X146572090Y-88721479D01*
X146518310Y-88968701D01*
X146487293Y-89027485D01*
X146430376Y-89061807D01*
X146363912Y-89061807D01*
X146306995Y-89027485D01*
X146275978Y-88968701D01*
X146222228Y-88721621D01*
X146219742Y-88713152D01*
X146122858Y-88453396D01*
X146119187Y-88445358D01*
X145986331Y-88202049D01*
X145981547Y-88194606D01*
X145888200Y-88069910D01*
X145877089Y-88061592D01*
X145864908Y-88068244D01*
X144662495Y-89270657D01*
X144655831Y-89282200D01*
X144662495Y-89293742D01*
X145864908Y-90496154D01*
X145877089Y-90502806D01*
X145888200Y-90494488D01*
X145981547Y-90369793D01*
X145986331Y-90362350D01*
X146119187Y-90119041D01*
X146122858Y-90111003D01*
X146219742Y-89851247D01*
X146222228Y-89842778D01*
X146275978Y-89595698D01*
X146306995Y-89536914D01*
X146363912Y-89502592D01*
X146430376Y-89502592D01*
X146487293Y-89536914D01*
X146518310Y-89595698D01*
X146573031Y-89847246D01*
X146574575Y-89851385D01*
X146574576Y-89851389D01*
X146671407Y-90111003D01*
X146673033Y-90115361D01*
X146675153Y-90119243D01*
X146675156Y-90119250D01*
X146807900Y-90362350D01*
X146810174Y-90366515D01*
X146981661Y-90595595D01*
X147184005Y-90797939D01*
X147413085Y-90969426D01*
X147664239Y-91106567D01*
X147932354Y-91206569D01*
X148182729Y-91261034D01*
X148241509Y-91292049D01*
X148275832Y-91348966D01*
X148275832Y-91415431D01*
X148241510Y-91472348D01*
X148182727Y-91503365D01*
X147936676Y-91556890D01*
X147936665Y-91556893D01*
X147932354Y-91557831D01*
X147928218Y-91559373D01*
X147928210Y-91559376D01*
X147668387Y-91656285D01*
X147668376Y-91656289D01*
X147664239Y-91657833D01*
X147660361Y-91659950D01*
X147660349Y-91659956D01*
X147416979Y-91792847D01*
X147416971Y-91792851D01*
X147413085Y-91794974D01*
X147409535Y-91797631D01*
X147409531Y-91797634D01*
X147187556Y-91963802D01*
X147187549Y-91963807D01*
X147184005Y-91966461D01*
X147180874Y-91969591D01*
X147180867Y-91969598D01*
X146984798Y-92165667D01*
X146984791Y-92165674D01*
X146981661Y-92168805D01*
X146979007Y-92172349D01*
X146979002Y-92172356D01*
X146812834Y-92394331D01*
X146810174Y-92397885D01*
X146808051Y-92401771D01*
X146808047Y-92401779D01*
X146675156Y-92645149D01*
X146675150Y-92645161D01*
X146673033Y-92649039D01*
X146671489Y-92653176D01*
X146671485Y-92653187D01*
X146574576Y-92913010D01*
X146574573Y-92913018D01*
X146573031Y-92917154D01*
X146572090Y-92921476D01*
X146572090Y-92921479D01*
X146518566Y-93167526D01*
X146487549Y-93226310D01*
X146430632Y-93260632D01*
X146364168Y-93260632D01*
X146307251Y-93226310D01*
X146276234Y-93167526D01*
X146251175Y-93052331D01*
X146221769Y-92917154D01*
X146121767Y-92649039D01*
X145984626Y-92397885D01*
X145813139Y-92168805D01*
X145610795Y-91966461D01*
X145381715Y-91794974D01*
X145377820Y-91792847D01*
X145134450Y-91659956D01*
X145134443Y-91659953D01*
X145130561Y-91657833D01*
X145126417Y-91656287D01*
X145126412Y-91656285D01*
X144866589Y-91559376D01*
X144866585Y-91559375D01*
X144862446Y-91557831D01*
X144807565Y-91545892D01*
X144610898Y-91503110D01*
X144552114Y-91472093D01*
X144517792Y-91415176D01*
X144517792Y-91348712D01*
X144552114Y-91291795D01*
X144610898Y-91260778D01*
X144857978Y-91207028D01*
X144866447Y-91204542D01*
X145126203Y-91107658D01*
X145134241Y-91103987D01*
X145377550Y-90971131D01*
X145384993Y-90966347D01*
X145509688Y-90873000D01*
X145518006Y-90861889D01*
X145511354Y-90849708D01*
X144031527Y-89369881D01*
X143999433Y-89314293D01*
X143999433Y-89250106D01*
X144031527Y-89194519D01*
X144297400Y-88928647D01*
X145511354Y-87714690D01*
X145518006Y-87702509D01*
X145509688Y-87691398D01*
X145384993Y-87598052D01*
X145377550Y-87593268D01*
X145134241Y-87460412D01*
X145126203Y-87456741D01*
X144866447Y-87359857D01*
X144857978Y-87357371D01*
X144587090Y-87298442D01*
X144578334Y-87297183D01*
X144301818Y-87277407D01*
X144292982Y-87277407D01*
X144016465Y-87297183D01*
X144007709Y-87298442D01*
X143736821Y-87357371D01*
X143728352Y-87359857D01*
X143468596Y-87456741D01*
X143460558Y-87460412D01*
X143217249Y-87593268D01*
X143209806Y-87598052D01*
X143116611Y-87667818D01*
X143053353Y-87692057D01*
X142986796Y-87679435D01*
X142936805Y-87633718D01*
X142918300Y-87568551D01*
X142918300Y-84626216D01*
X148257705Y-84626216D01*
X148265136Y-84634325D01*
X148305931Y-84662891D01*
X148315269Y-84668282D01*
X148499404Y-84754146D01*
X148509538Y-84757834D01*
X148705784Y-84810419D01*
X148716415Y-84812293D01*
X148918805Y-84830000D01*
X148929595Y-84830000D01*
X149131984Y-84812293D01*
X149142615Y-84810419D01*
X149338861Y-84757834D01*
X149348995Y-84754146D01*
X149533128Y-84668283D01*
X149542472Y-84662888D01*
X149583261Y-84634326D01*
X149590692Y-84626215D01*
X149584779Y-84616933D01*
X148935742Y-83967895D01*
X148924199Y-83961231D01*
X148912657Y-83967895D01*
X148263619Y-84616933D01*
X148257705Y-84626216D01*
X142918300Y-84626216D01*
X142918300Y-83608195D01*
X147697000Y-83608195D01*
X147714706Y-83810584D01*
X147716580Y-83821215D01*
X147769165Y-84017461D01*
X147772853Y-84027595D01*
X147858716Y-84211728D01*
X147864112Y-84221073D01*
X147892672Y-84261860D01*
X147900783Y-84269292D01*
X147910065Y-84263379D01*
X148559103Y-83614341D01*
X148565767Y-83602799D01*
X149282631Y-83602799D01*
X149289295Y-83614341D01*
X149938333Y-84263379D01*
X149947615Y-84269292D01*
X149955725Y-84261862D01*
X149967320Y-84245304D01*
X150011638Y-84206439D01*
X150068895Y-84192429D01*
X150126151Y-84206440D01*
X150170467Y-84245303D01*
X150273364Y-84392255D01*
X150424745Y-84543636D01*
X150600113Y-84666430D01*
X150794140Y-84756906D01*
X151000930Y-84812315D01*
X151214200Y-84830974D01*
X151427470Y-84812315D01*
X151634260Y-84756906D01*
X151828287Y-84666430D01*
X152003655Y-84543636D01*
X152155036Y-84392255D01*
X152277830Y-84216887D01*
X152368306Y-84022860D01*
X152423715Y-83816070D01*
X152442374Y-83602800D01*
X152423715Y-83389530D01*
X152383033Y-83237703D01*
X152369708Y-83187972D01*
X152369707Y-83187971D01*
X152368306Y-83182740D01*
X152277830Y-82988713D01*
X152155036Y-82813345D01*
X152003655Y-82661964D01*
X151885717Y-82579383D01*
X151832726Y-82542278D01*
X151832724Y-82542276D01*
X151828287Y-82539170D01*
X151814089Y-82532549D01*
X151639170Y-82450983D01*
X151639164Y-82450980D01*
X151634260Y-82448694D01*
X151629035Y-82447294D01*
X151629027Y-82447291D01*
X151432694Y-82394684D01*
X151432685Y-82394682D01*
X151427470Y-82393285D01*
X151422082Y-82392813D01*
X151422079Y-82392813D01*
X151219595Y-82375098D01*
X151214200Y-82374626D01*
X151208805Y-82375098D01*
X151006320Y-82392813D01*
X151006315Y-82392813D01*
X151000930Y-82393285D01*
X150995716Y-82394682D01*
X150995705Y-82394684D01*
X150799372Y-82447291D01*
X150799360Y-82447295D01*
X150794140Y-82448694D01*
X150789239Y-82450979D01*
X150789229Y-82450983D01*
X150605023Y-82536880D01*
X150605019Y-82536882D01*
X150600113Y-82539170D01*
X150595680Y-82542273D01*
X150595673Y-82542278D01*
X150429180Y-82658858D01*
X150429175Y-82658861D01*
X150424745Y-82661964D01*
X150420921Y-82665787D01*
X150420915Y-82665793D01*
X150277193Y-82809515D01*
X150277187Y-82809521D01*
X150273364Y-82813345D01*
X150270262Y-82817774D01*
X150270262Y-82817775D01*
X150170469Y-82960294D01*
X150126151Y-82999159D01*
X150068894Y-83013170D01*
X150011638Y-82999160D01*
X149967320Y-82960294D01*
X149955727Y-82943738D01*
X149947616Y-82936305D01*
X149938333Y-82942219D01*
X149289295Y-83591256D01*
X149282631Y-83602799D01*
X148565767Y-83602799D01*
X148559103Y-83591256D01*
X147910062Y-82942216D01*
X147900783Y-82936305D01*
X147892672Y-82943738D01*
X147864113Y-82984524D01*
X147858715Y-82993874D01*
X147772853Y-83178004D01*
X147769165Y-83188138D01*
X147716580Y-83384384D01*
X147714706Y-83395015D01*
X147697000Y-83597405D01*
X147697000Y-83608195D01*
X142918300Y-83608195D01*
X142918300Y-83591000D01*
X142918526Y-83583514D01*
X142921293Y-83537764D01*
X142922174Y-83523200D01*
X142911277Y-83463739D01*
X142910154Y-83456355D01*
X142903774Y-83403806D01*
X142902870Y-83396357D01*
X142899242Y-83386791D01*
X142893213Y-83365165D01*
X142891371Y-83355110D01*
X142866553Y-83299968D01*
X142863711Y-83293108D01*
X142842271Y-83236573D01*
X142836458Y-83228151D01*
X142825435Y-83208607D01*
X142821236Y-83199276D01*
X142783943Y-83151676D01*
X142779520Y-83145663D01*
X142778845Y-83144685D01*
X142745195Y-83095934D01*
X142699959Y-83055858D01*
X142694506Y-83050724D01*
X142223165Y-82579383D01*
X148257705Y-82579383D01*
X148263616Y-82588662D01*
X148912657Y-83237703D01*
X148924200Y-83244367D01*
X148935742Y-83237703D01*
X149584779Y-82588665D01*
X149590692Y-82579383D01*
X149583260Y-82571272D01*
X149542473Y-82542712D01*
X149533128Y-82537316D01*
X149348995Y-82451453D01*
X149338861Y-82447765D01*
X149142615Y-82395180D01*
X149131984Y-82393306D01*
X148929595Y-82375600D01*
X148918805Y-82375600D01*
X148716415Y-82393306D01*
X148705784Y-82395180D01*
X148509538Y-82447765D01*
X148499404Y-82451453D01*
X148315274Y-82537315D01*
X148305924Y-82542713D01*
X148265138Y-82571272D01*
X148257705Y-82579383D01*
X142223165Y-82579383D01*
X140135219Y-80491437D01*
X140108339Y-80451209D01*
X140098900Y-80403756D01*
X140098900Y-78237864D01*
X140114186Y-78178222D01*
X140156275Y-78133284D01*
X140214790Y-78114130D01*
X140275304Y-78125482D01*
X140349289Y-78159980D01*
X140364140Y-78166906D01*
X140369371Y-78168307D01*
X140369372Y-78168308D01*
X140562690Y-78220107D01*
X140620777Y-78254773D01*
X140652027Y-78314766D01*
X140647870Y-78372144D01*
X140650094Y-78372740D01*
X140596084Y-78574305D01*
X140596082Y-78574316D01*
X140594685Y-78579530D01*
X140576026Y-78792800D01*
X140594685Y-79006070D01*
X140596082Y-79011285D01*
X140596084Y-79011294D01*
X140648691Y-79207627D01*
X140648694Y-79207635D01*
X140650094Y-79212860D01*
X140652380Y-79217764D01*
X140652383Y-79217770D01*
X140733949Y-79392689D01*
X140740570Y-79406887D01*
X140743676Y-79411324D01*
X140743678Y-79411326D01*
X140760176Y-79434887D01*
X140863364Y-79582255D01*
X141014745Y-79733636D01*
X141190113Y-79856430D01*
X141384140Y-79946906D01*
X141590930Y-80002315D01*
X141804200Y-80020974D01*
X142017470Y-80002315D01*
X142224260Y-79946906D01*
X142418287Y-79856430D01*
X142475719Y-79816216D01*
X143177705Y-79816216D01*
X143185136Y-79824325D01*
X143225931Y-79852891D01*
X143235269Y-79858282D01*
X143419404Y-79944146D01*
X143429538Y-79947834D01*
X143625784Y-80000419D01*
X143636415Y-80002293D01*
X143838805Y-80020000D01*
X143849595Y-80020000D01*
X144051984Y-80002293D01*
X144062615Y-80000419D01*
X144258861Y-79947834D01*
X144268995Y-79944146D01*
X144453128Y-79858283D01*
X144462472Y-79852888D01*
X144503261Y-79824326D01*
X144510692Y-79816215D01*
X144504779Y-79806933D01*
X143855742Y-79157895D01*
X143844199Y-79151231D01*
X143832657Y-79157895D01*
X143183619Y-79806933D01*
X143177705Y-79816216D01*
X142475719Y-79816216D01*
X142593655Y-79733636D01*
X142745036Y-79582255D01*
X142841225Y-79444882D01*
X142855113Y-79428332D01*
X143756518Y-78526927D01*
X143812105Y-78494833D01*
X143876293Y-78494833D01*
X143931880Y-78526927D01*
X144833283Y-79428330D01*
X144847177Y-79444887D01*
X144940258Y-79577820D01*
X144940261Y-79577824D01*
X144943364Y-79582255D01*
X145094745Y-79733636D01*
X145270113Y-79856430D01*
X145464140Y-79946906D01*
X145670930Y-80002315D01*
X145884200Y-80020974D01*
X146097470Y-80002315D01*
X146304260Y-79946906D01*
X146498287Y-79856430D01*
X146673655Y-79733636D01*
X146816519Y-79590772D01*
X146872106Y-79558678D01*
X146936294Y-79558678D01*
X146991881Y-79590772D01*
X147134745Y-79733636D01*
X147310113Y-79856430D01*
X147504140Y-79946906D01*
X147710930Y-80002315D01*
X147924200Y-80020974D01*
X148137470Y-80002315D01*
X148344260Y-79946906D01*
X148538287Y-79856430D01*
X148713655Y-79733636D01*
X148865036Y-79582255D01*
X148987830Y-79406887D01*
X149078306Y-79212860D01*
X149133715Y-79006070D01*
X149152374Y-78792800D01*
X149133715Y-78579530D01*
X149078306Y-78372740D01*
X148987830Y-78178713D01*
X148885661Y-78032800D01*
X150628973Y-78032800D01*
X150629289Y-78037218D01*
X150647540Y-78292403D01*
X150647541Y-78292412D01*
X150647857Y-78296826D01*
X150648797Y-78301151D01*
X150648799Y-78301159D01*
X150697912Y-78526927D01*
X150704123Y-78555478D01*
X150705672Y-78559631D01*
X150795078Y-78799340D01*
X150795080Y-78799346D01*
X150796626Y-78803489D01*
X150923484Y-79035811D01*
X151082113Y-79247715D01*
X151269285Y-79434887D01*
X151481189Y-79593516D01*
X151713511Y-79720374D01*
X151961522Y-79812877D01*
X152220174Y-79869143D01*
X152484200Y-79888027D01*
X152748226Y-79869143D01*
X153006878Y-79812877D01*
X153254889Y-79720374D01*
X153487211Y-79593516D01*
X153699115Y-79434887D01*
X153886287Y-79247715D01*
X154044916Y-79035811D01*
X154171774Y-78803489D01*
X154264277Y-78555478D01*
X154320543Y-78296826D01*
X154339427Y-78032800D01*
X154320543Y-77768774D01*
X154264277Y-77510122D01*
X154171774Y-77262111D01*
X154044916Y-77029789D01*
X153886287Y-76817885D01*
X153699115Y-76630713D01*
X153487211Y-76472084D01*
X153254889Y-76345226D01*
X153250746Y-76343680D01*
X153250740Y-76343678D01*
X153011031Y-76254272D01*
X153006878Y-76252723D01*
X153002546Y-76251780D01*
X153002544Y-76251780D01*
X152752559Y-76197399D01*
X152752551Y-76197397D01*
X152748226Y-76196457D01*
X152743812Y-76196141D01*
X152743803Y-76196140D01*
X152488618Y-76177889D01*
X152484200Y-76177573D01*
X152479782Y-76177889D01*
X152224596Y-76196140D01*
X152224585Y-76196141D01*
X152220174Y-76196457D01*
X152215850Y-76197397D01*
X152215840Y-76197399D01*
X151965855Y-76251780D01*
X151965849Y-76251781D01*
X151961522Y-76252723D01*
X151957372Y-76254270D01*
X151957368Y-76254272D01*
X151717659Y-76343678D01*
X151717648Y-76343682D01*
X151713511Y-76345226D01*
X151709629Y-76347345D01*
X151709624Y-76347348D01*
X151485083Y-76469957D01*
X151485075Y-76469961D01*
X151481189Y-76472084D01*
X151477639Y-76474741D01*
X151477635Y-76474744D01*
X151272836Y-76628054D01*
X151272829Y-76628059D01*
X151269285Y-76630713D01*
X151266154Y-76633843D01*
X151266147Y-76633850D01*
X151085250Y-76814747D01*
X151085243Y-76814754D01*
X151082113Y-76817885D01*
X151079459Y-76821429D01*
X151079454Y-76821436D01*
X150932163Y-77018195D01*
X150923484Y-77029789D01*
X150921361Y-77033675D01*
X150921357Y-77033683D01*
X150813453Y-77231294D01*
X150796626Y-77262111D01*
X150795082Y-77266248D01*
X150795078Y-77266259D01*
X150732940Y-77432860D01*
X150704123Y-77510122D01*
X150703181Y-77514449D01*
X150703180Y-77514455D01*
X150648799Y-77764440D01*
X150648797Y-77764450D01*
X150647857Y-77768774D01*
X150647541Y-77773185D01*
X150647540Y-77773196D01*
X150629543Y-78024823D01*
X150628973Y-78032800D01*
X148885661Y-78032800D01*
X148865036Y-78003345D01*
X148713655Y-77851964D01*
X148601163Y-77773196D01*
X148542726Y-77732278D01*
X148542724Y-77732276D01*
X148538287Y-77729170D01*
X148524089Y-77722549D01*
X148349170Y-77640983D01*
X148349164Y-77640980D01*
X148344260Y-77638694D01*
X148339032Y-77637293D01*
X148339029Y-77637292D01*
X148145708Y-77585492D01*
X148087577Y-77550779D01*
X148056346Y-77490705D01*
X148060567Y-77433465D01*
X148058306Y-77432860D01*
X148112315Y-77231294D01*
X148113715Y-77226070D01*
X148132374Y-77012800D01*
X148113715Y-76799530D01*
X148058306Y-76592740D01*
X147967830Y-76398713D01*
X147845036Y-76223345D01*
X147693655Y-76071964D01*
X147588972Y-75998664D01*
X147522726Y-75952278D01*
X147522724Y-75952276D01*
X147518287Y-75949170D01*
X147504089Y-75942549D01*
X147329170Y-75860983D01*
X147329164Y-75860980D01*
X147324260Y-75858694D01*
X147319035Y-75857294D01*
X147319027Y-75857291D01*
X147122694Y-75804684D01*
X147122685Y-75804682D01*
X147117470Y-75803285D01*
X147112082Y-75802813D01*
X147112079Y-75802813D01*
X146909595Y-75785098D01*
X146904200Y-75784626D01*
X146898805Y-75785098D01*
X146696320Y-75802813D01*
X146696315Y-75802813D01*
X146690930Y-75803285D01*
X146685716Y-75804682D01*
X146685705Y-75804684D01*
X146489372Y-75857291D01*
X146489360Y-75857295D01*
X146484140Y-75858694D01*
X146479239Y-75860979D01*
X146479229Y-75860983D01*
X146295023Y-75946880D01*
X146295019Y-75946882D01*
X146290113Y-75949170D01*
X146285680Y-75952273D01*
X146285673Y-75952278D01*
X146119180Y-76068858D01*
X146119175Y-76068861D01*
X146114745Y-76071964D01*
X146110921Y-76075787D01*
X146110915Y-76075793D01*
X145971881Y-76214828D01*
X145916294Y-76246922D01*
X145852106Y-76246922D01*
X145796519Y-76214828D01*
X145657484Y-76075793D01*
X145653655Y-76071964D01*
X145548972Y-75998664D01*
X145482726Y-75952278D01*
X145482724Y-75952276D01*
X145478287Y-75949170D01*
X145464089Y-75942549D01*
X145289170Y-75860983D01*
X145289164Y-75860980D01*
X145284260Y-75858694D01*
X145279035Y-75857294D01*
X145279027Y-75857291D01*
X145082694Y-75804684D01*
X145082685Y-75804682D01*
X145077470Y-75803285D01*
X145072082Y-75802813D01*
X145072079Y-75802813D01*
X144869595Y-75785098D01*
X144864200Y-75784626D01*
X144858805Y-75785098D01*
X144707553Y-75798330D01*
X144654335Y-75791324D01*
X144609065Y-75762483D01*
X143576066Y-74729484D01*
X143570932Y-74724030D01*
X143530866Y-74678805D01*
X143481143Y-74644484D01*
X143475114Y-74640048D01*
X143433430Y-74607390D01*
X143433428Y-74607388D01*
X143427525Y-74602764D01*
X143420684Y-74599685D01*
X143420682Y-74599684D01*
X143418195Y-74598565D01*
X143398644Y-74587538D01*
X143396400Y-74585989D01*
X143396394Y-74585985D01*
X143390227Y-74581729D01*
X143383215Y-74579069D01*
X143383214Y-74579069D01*
X143333708Y-74560293D01*
X143326806Y-74557434D01*
X143291355Y-74541480D01*
X148824938Y-74541480D01*
X148825432Y-74545977D01*
X148825433Y-74545982D01*
X148854467Y-74809859D01*
X148854468Y-74809866D01*
X148854964Y-74814371D01*
X148856109Y-74818751D01*
X148856111Y-74818761D01*
X148907597Y-75015695D01*
X148924404Y-75079982D01*
X148926169Y-75084136D01*
X148926172Y-75084144D01*
X149029049Y-75326233D01*
X149031777Y-75332652D01*
X149034134Y-75336514D01*
X149124819Y-75485108D01*
X149174795Y-75566996D01*
X149177693Y-75570478D01*
X149177695Y-75570481D01*
X149267991Y-75678983D01*
X149350409Y-75778018D01*
X149554877Y-75961223D01*
X149783841Y-76112704D01*
X149787932Y-76114621D01*
X149787936Y-76114624D01*
X150028325Y-76227313D01*
X150032421Y-76229233D01*
X150295319Y-76308327D01*
X150566931Y-76348300D01*
X150770485Y-76348300D01*
X150772747Y-76348300D01*
X150978005Y-76333277D01*
X151245975Y-76273584D01*
X151502398Y-76175511D01*
X151741809Y-76041147D01*
X151959104Y-75873357D01*
X152149654Y-75675716D01*
X152309396Y-75452437D01*
X152434927Y-75208279D01*
X152523570Y-74948446D01*
X152573436Y-74678474D01*
X152583462Y-74404120D01*
X152553436Y-74131229D01*
X152551634Y-74124335D01*
X156868500Y-74124335D01*
X156869343Y-74129387D01*
X156869344Y-74129398D01*
X156891583Y-74262666D01*
X156909429Y-74369614D01*
X156911093Y-74374461D01*
X156911094Y-74374465D01*
X156988507Y-74599962D01*
X156988510Y-74599969D01*
X156990172Y-74604810D01*
X156992607Y-74609310D01*
X156992610Y-74609316D01*
X157106084Y-74818997D01*
X157108526Y-74823509D01*
X157261262Y-75019744D01*
X157265029Y-75023211D01*
X157265032Y-75023215D01*
X157321944Y-75075606D01*
X157444215Y-75188164D01*
X157543057Y-75252740D01*
X157648099Y-75321368D01*
X157648102Y-75321369D01*
X157652393Y-75324173D01*
X157657087Y-75326232D01*
X157657089Y-75326233D01*
X157693599Y-75342248D01*
X157880119Y-75424063D01*
X158121179Y-75485108D01*
X158306933Y-75500500D01*
X158428497Y-75500500D01*
X158431067Y-75500500D01*
X158616821Y-75485108D01*
X158857881Y-75424063D01*
X159085607Y-75324173D01*
X159293785Y-75188164D01*
X159476738Y-75019744D01*
X159629474Y-74823509D01*
X159747828Y-74604810D01*
X159828571Y-74369614D01*
X159869500Y-74124335D01*
X159869500Y-73875665D01*
X159828571Y-73630386D01*
X159747828Y-73395190D01*
X159629474Y-73176491D01*
X159476738Y-72980256D01*
X159472970Y-72976787D01*
X159472967Y-72976784D01*
X159297560Y-72815311D01*
X159297559Y-72815310D01*
X159293785Y-72811836D01*
X159233278Y-72772305D01*
X159089900Y-72678631D01*
X159089893Y-72678627D01*
X159085607Y-72675827D01*
X159080916Y-72673769D01*
X159080910Y-72673766D01*
X158862577Y-72577997D01*
X158862578Y-72577997D01*
X158857881Y-72575937D01*
X158852911Y-72574678D01*
X158852910Y-72574678D01*
X158621795Y-72516151D01*
X158621788Y-72516149D01*
X158616821Y-72514892D01*
X158611709Y-72514468D01*
X158611701Y-72514467D01*
X158433633Y-72499712D01*
X158433617Y-72499711D01*
X158431067Y-72499500D01*
X158306933Y-72499500D01*
X158304383Y-72499711D01*
X158304366Y-72499712D01*
X158126298Y-72514467D01*
X158126288Y-72514468D01*
X158121179Y-72514892D01*
X158116213Y-72516149D01*
X158116204Y-72516151D01*
X157885089Y-72574678D01*
X157885084Y-72574679D01*
X157880119Y-72575937D01*
X157875425Y-72577995D01*
X157875422Y-72577997D01*
X157657089Y-72673766D01*
X157657077Y-72673772D01*
X157652393Y-72675827D01*
X157648111Y-72678624D01*
X157648099Y-72678631D01*
X157448512Y-72809028D01*
X157448506Y-72809031D01*
X157444215Y-72811836D01*
X157440446Y-72815305D01*
X157440439Y-72815311D01*
X157265032Y-72976784D01*
X157265023Y-72976793D01*
X157261262Y-72980256D01*
X157258113Y-72984301D01*
X157258111Y-72984304D01*
X157111678Y-73172440D01*
X157111672Y-73172448D01*
X157108526Y-73176491D01*
X157106088Y-73180995D01*
X157106084Y-73181002D01*
X156992610Y-73390683D01*
X156992605Y-73390693D01*
X156990172Y-73395190D01*
X156988511Y-73400026D01*
X156988507Y-73400037D01*
X156911094Y-73625534D01*
X156911092Y-73625541D01*
X156909429Y-73630386D01*
X156908585Y-73635441D01*
X156908585Y-73635443D01*
X156869344Y-73870601D01*
X156869343Y-73870613D01*
X156868500Y-73875665D01*
X156868500Y-74124335D01*
X152551634Y-74124335D01*
X152483996Y-73865618D01*
X152376623Y-73612948D01*
X152233605Y-73378604D01*
X152057991Y-73167582D01*
X151853523Y-72984377D01*
X151791085Y-72943068D01*
X151628331Y-72835391D01*
X151628325Y-72835388D01*
X151624559Y-72832896D01*
X151620472Y-72830980D01*
X151620463Y-72830975D01*
X151380074Y-72718286D01*
X151380066Y-72718283D01*
X151375979Y-72716367D01*
X151371652Y-72715065D01*
X151371649Y-72715064D01*
X151117411Y-72638575D01*
X151117402Y-72638573D01*
X151113081Y-72637273D01*
X151108614Y-72636615D01*
X151108607Y-72636614D01*
X150845941Y-72597958D01*
X150845939Y-72597957D01*
X150841469Y-72597300D01*
X150635653Y-72597300D01*
X150633404Y-72597464D01*
X150633393Y-72597465D01*
X150434914Y-72611992D01*
X150434910Y-72611992D01*
X150430395Y-72612323D01*
X150425977Y-72613307D01*
X150425971Y-72613308D01*
X150166851Y-72671029D01*
X150166837Y-72671033D01*
X150162425Y-72672016D01*
X150158199Y-72673632D01*
X150158190Y-72673635D01*
X149910233Y-72768470D01*
X149910223Y-72768474D01*
X149906002Y-72770089D01*
X149902061Y-72772300D01*
X149902052Y-72772305D01*
X149670542Y-72902235D01*
X149670536Y-72902238D01*
X149666591Y-72904453D01*
X149663020Y-72907210D01*
X149663007Y-72907219D01*
X149452880Y-73069475D01*
X149452875Y-73069478D01*
X149449296Y-73072243D01*
X149446156Y-73075498D01*
X149446149Y-73075506D01*
X149261895Y-73266616D01*
X149261883Y-73266629D01*
X149258746Y-73269884D01*
X149256113Y-73273563D01*
X149256104Y-73273575D01*
X149101643Y-73489473D01*
X149101637Y-73489482D01*
X149099004Y-73493163D01*
X149096931Y-73497193D01*
X149096929Y-73497198D01*
X148975545Y-73733289D01*
X148975540Y-73733300D01*
X148973473Y-73737321D01*
X148972013Y-73741598D01*
X148972008Y-73741612D01*
X148886296Y-73992854D01*
X148886292Y-73992866D01*
X148884830Y-73997154D01*
X148884005Y-74001618D01*
X148884005Y-74001620D01*
X148835787Y-74262666D01*
X148835785Y-74262676D01*
X148834964Y-74267126D01*
X148834798Y-74271651D01*
X148834798Y-74271657D01*
X148825149Y-74535708D01*
X148824938Y-74541480D01*
X143291355Y-74541480D01*
X143271690Y-74532630D01*
X143264314Y-74531278D01*
X143264310Y-74531277D01*
X143261634Y-74530787D01*
X143240012Y-74524759D01*
X143237453Y-74523788D01*
X143237448Y-74523786D01*
X143230443Y-74521130D01*
X143223005Y-74520226D01*
X143223002Y-74520226D01*
X143170423Y-74513841D01*
X143163023Y-74512714D01*
X143110983Y-74503178D01*
X143110975Y-74503177D01*
X143103600Y-74501826D01*
X143096119Y-74502278D01*
X143096112Y-74502278D01*
X143043286Y-74505474D01*
X143035800Y-74505700D01*
X140563199Y-74505700D01*
X140555713Y-74505474D01*
X140502886Y-74502278D01*
X140502879Y-74502278D01*
X140495399Y-74501826D01*
X140488023Y-74503177D01*
X140488016Y-74503178D01*
X140435976Y-74512714D01*
X140428577Y-74513841D01*
X140375997Y-74520226D01*
X140375992Y-74520227D01*
X140368557Y-74521130D01*
X140361551Y-74523786D01*
X140361547Y-74523788D01*
X140358983Y-74524761D01*
X140337370Y-74530786D01*
X140336570Y-74530932D01*
X140334684Y-74531278D01*
X140334679Y-74531279D01*
X140327310Y-74532630D01*
X140320476Y-74535705D01*
X140320468Y-74535708D01*
X140272192Y-74557434D01*
X140265278Y-74560298D01*
X140215782Y-74579070D01*
X140215777Y-74579072D01*
X140208773Y-74581729D01*
X140202607Y-74585984D01*
X140202601Y-74585988D01*
X140200351Y-74587542D01*
X140180816Y-74598560D01*
X140178312Y-74599686D01*
X140178306Y-74599689D01*
X140171475Y-74602764D01*
X140165577Y-74607384D01*
X140165568Y-74607390D01*
X140123877Y-74640052D01*
X140117849Y-74644488D01*
X140071769Y-74676296D01*
X140007685Y-74698084D01*
X139941707Y-74682973D01*
X139893493Y-74635466D01*
X139877410Y-74569718D01*
X139883462Y-74404120D01*
X139853436Y-74131229D01*
X139783996Y-73865618D01*
X139676623Y-73612948D01*
X139533605Y-73378604D01*
X139357991Y-73167582D01*
X139153523Y-72984377D01*
X139091085Y-72943068D01*
X138928331Y-72835391D01*
X138928325Y-72835388D01*
X138924559Y-72832896D01*
X138920472Y-72830980D01*
X138920463Y-72830975D01*
X138680074Y-72718286D01*
X138680066Y-72718283D01*
X138675979Y-72716367D01*
X138671652Y-72715065D01*
X138671649Y-72715064D01*
X138417411Y-72638575D01*
X138417402Y-72638573D01*
X138413081Y-72637273D01*
X138408614Y-72636615D01*
X138408607Y-72636614D01*
X138145941Y-72597958D01*
X138145939Y-72597957D01*
X138141469Y-72597300D01*
X137935653Y-72597300D01*
X137933404Y-72597464D01*
X137933393Y-72597465D01*
X137734914Y-72611992D01*
X137734910Y-72611992D01*
X137730395Y-72612323D01*
X137725977Y-72613307D01*
X137725971Y-72613308D01*
X137466851Y-72671029D01*
X137466837Y-72671033D01*
X137462425Y-72672016D01*
X137458199Y-72673632D01*
X137458190Y-72673635D01*
X137210233Y-72768470D01*
X137210223Y-72768474D01*
X137206002Y-72770089D01*
X137202061Y-72772300D01*
X137202052Y-72772305D01*
X136970542Y-72902235D01*
X136970536Y-72902238D01*
X136966591Y-72904453D01*
X136963020Y-72907210D01*
X136963007Y-72907219D01*
X136752880Y-73069475D01*
X136752875Y-73069478D01*
X136749296Y-73072243D01*
X136746156Y-73075498D01*
X136746149Y-73075506D01*
X136561895Y-73266616D01*
X136561883Y-73266629D01*
X136558746Y-73269884D01*
X136556113Y-73273563D01*
X136556104Y-73273575D01*
X136401643Y-73489473D01*
X136401637Y-73489482D01*
X136399004Y-73493163D01*
X136396931Y-73497193D01*
X136396929Y-73497198D01*
X136275545Y-73733289D01*
X136275540Y-73733300D01*
X136273473Y-73737321D01*
X136272013Y-73741598D01*
X136272008Y-73741612D01*
X136186296Y-73992854D01*
X136186292Y-73992866D01*
X136184830Y-73997154D01*
X136184005Y-74001618D01*
X136184005Y-74001620D01*
X136135787Y-74262666D01*
X136135785Y-74262676D01*
X136134964Y-74267126D01*
X136134798Y-74271651D01*
X136134798Y-74271657D01*
X136125149Y-74535708D01*
X136124938Y-74541480D01*
X132400569Y-74541480D01*
X132459571Y-74369614D01*
X132500500Y-74124335D01*
X132500500Y-73875665D01*
X132459571Y-73630386D01*
X132378828Y-73395190D01*
X132260474Y-73176491D01*
X132107738Y-72980256D01*
X132103970Y-72976787D01*
X132103967Y-72976784D01*
X131928560Y-72815311D01*
X131928559Y-72815310D01*
X131924785Y-72811836D01*
X131864278Y-72772305D01*
X131720900Y-72678631D01*
X131720893Y-72678627D01*
X131716607Y-72675827D01*
X131711916Y-72673769D01*
X131711910Y-72673766D01*
X131493577Y-72577997D01*
X131493578Y-72577997D01*
X131488881Y-72575937D01*
X131483911Y-72574678D01*
X131483910Y-72574678D01*
X131252795Y-72516151D01*
X131252788Y-72516149D01*
X131247821Y-72514892D01*
X131242709Y-72514468D01*
X131242701Y-72514467D01*
X131064633Y-72499712D01*
X131064617Y-72499711D01*
X131062067Y-72499500D01*
X130937933Y-72499500D01*
X130935383Y-72499711D01*
X130935366Y-72499712D01*
X130757298Y-72514467D01*
X130757288Y-72514468D01*
X130752179Y-72514892D01*
X130747213Y-72516149D01*
X130747204Y-72516151D01*
X130516089Y-72574678D01*
X130516084Y-72574679D01*
X130511119Y-72575937D01*
X130506425Y-72577995D01*
X130506422Y-72577997D01*
X130288089Y-72673766D01*
X130288077Y-72673772D01*
X130283393Y-72675827D01*
X130279111Y-72678624D01*
X130279099Y-72678631D01*
X130079512Y-72809028D01*
X130079506Y-72809031D01*
X130075215Y-72811836D01*
X130071446Y-72815305D01*
X130071439Y-72815311D01*
X129896032Y-72976784D01*
X129896023Y-72976793D01*
X129892262Y-72980256D01*
X129889113Y-72984301D01*
X129889111Y-72984304D01*
X129742678Y-73172440D01*
X129742672Y-73172448D01*
X129739526Y-73176491D01*
X129737088Y-73180995D01*
X129737084Y-73181002D01*
X129623610Y-73390683D01*
X129623605Y-73390693D01*
X129621172Y-73395190D01*
X129619511Y-73400026D01*
X129619507Y-73400037D01*
X129542094Y-73625534D01*
X129542092Y-73625541D01*
X129540429Y-73630386D01*
X129539585Y-73635441D01*
X129539585Y-73635443D01*
X129500344Y-73870601D01*
X129500343Y-73870613D01*
X129499500Y-73875665D01*
X129499500Y-74124335D01*
X127500500Y-74124335D01*
X127500500Y-70965100D01*
X127517113Y-70903100D01*
X127562500Y-70857713D01*
X127624500Y-70841100D01*
X161875500Y-70841100D01*
X161937500Y-70857713D01*
G37*
G04 #@! TD.AperFunction*
M02*
