G04 #@! TF.GenerationSoftware,KiCad,Pcbnew,(7.0.0-0)*
G04 #@! TF.CreationDate,2023-06-07T10:38:09+02:00*
G04 #@! TF.ProjectId,hru300 adapter pcn,68727533-3030-4206-9164-617074657220,rev?*
G04 #@! TF.SameCoordinates,Original*
G04 #@! TF.FileFunction,Legend,Top*
G04 #@! TF.FilePolarity,Positive*
%FSLAX46Y46*%
G04 Gerber Fmt 4.6, Leading zero omitted, Abs format (unit mm)*
G04 Created by KiCad (PCBNEW (7.0.0-0)) date 2023-06-07 10:38:09*
%MOMM*%
%LPD*%
G01*
G04 APERTURE LIST*
%ADD10C,0.150000*%
%ADD11C,0.254000*%
%ADD12C,0.120000*%
%ADD13C,0.100000*%
%ADD14C,0.200000*%
G04 APERTURE END LIST*
D10*
X156819761Y-98690475D02*
X156867380Y-98547618D01*
X156867380Y-98547618D02*
X156867380Y-98309523D01*
X156867380Y-98309523D02*
X156819761Y-98214285D01*
X156819761Y-98214285D02*
X156772142Y-98166666D01*
X156772142Y-98166666D02*
X156676904Y-98119047D01*
X156676904Y-98119047D02*
X156581666Y-98119047D01*
X156581666Y-98119047D02*
X156486428Y-98166666D01*
X156486428Y-98166666D02*
X156438809Y-98214285D01*
X156438809Y-98214285D02*
X156391190Y-98309523D01*
X156391190Y-98309523D02*
X156343571Y-98499999D01*
X156343571Y-98499999D02*
X156295952Y-98595237D01*
X156295952Y-98595237D02*
X156248333Y-98642856D01*
X156248333Y-98642856D02*
X156153095Y-98690475D01*
X156153095Y-98690475D02*
X156057857Y-98690475D01*
X156057857Y-98690475D02*
X155962619Y-98642856D01*
X155962619Y-98642856D02*
X155915000Y-98595237D01*
X155915000Y-98595237D02*
X155867380Y-98499999D01*
X155867380Y-98499999D02*
X155867380Y-98261904D01*
X155867380Y-98261904D02*
X155915000Y-98119047D01*
X156772142Y-97119047D02*
X156819761Y-97166666D01*
X156819761Y-97166666D02*
X156867380Y-97309523D01*
X156867380Y-97309523D02*
X156867380Y-97404761D01*
X156867380Y-97404761D02*
X156819761Y-97547618D01*
X156819761Y-97547618D02*
X156724523Y-97642856D01*
X156724523Y-97642856D02*
X156629285Y-97690475D01*
X156629285Y-97690475D02*
X156438809Y-97738094D01*
X156438809Y-97738094D02*
X156295952Y-97738094D01*
X156295952Y-97738094D02*
X156105476Y-97690475D01*
X156105476Y-97690475D02*
X156010238Y-97642856D01*
X156010238Y-97642856D02*
X155915000Y-97547618D01*
X155915000Y-97547618D02*
X155867380Y-97404761D01*
X155867380Y-97404761D02*
X155867380Y-97309523D01*
X155867380Y-97309523D02*
X155915000Y-97166666D01*
X155915000Y-97166666D02*
X155962619Y-97119047D01*
X156867380Y-96214285D02*
X156867380Y-96690475D01*
X156867380Y-96690475D02*
X155867380Y-96690475D01*
X158415000Y-98261904D02*
X158367380Y-98357142D01*
X158367380Y-98357142D02*
X158367380Y-98499999D01*
X158367380Y-98499999D02*
X158415000Y-98642856D01*
X158415000Y-98642856D02*
X158510238Y-98738094D01*
X158510238Y-98738094D02*
X158605476Y-98785713D01*
X158605476Y-98785713D02*
X158795952Y-98833332D01*
X158795952Y-98833332D02*
X158938809Y-98833332D01*
X158938809Y-98833332D02*
X159129285Y-98785713D01*
X159129285Y-98785713D02*
X159224523Y-98738094D01*
X159224523Y-98738094D02*
X159319761Y-98642856D01*
X159319761Y-98642856D02*
X159367380Y-98499999D01*
X159367380Y-98499999D02*
X159367380Y-98404761D01*
X159367380Y-98404761D02*
X159319761Y-98261904D01*
X159319761Y-98261904D02*
X159272142Y-98214285D01*
X159272142Y-98214285D02*
X158938809Y-98214285D01*
X158938809Y-98214285D02*
X158938809Y-98404761D01*
X159367380Y-97785713D02*
X158367380Y-97785713D01*
X158367380Y-97785713D02*
X159367380Y-97214285D01*
X159367380Y-97214285D02*
X158367380Y-97214285D01*
X159367380Y-96738094D02*
X158367380Y-96738094D01*
X158367380Y-96738094D02*
X158367380Y-96499999D01*
X158367380Y-96499999D02*
X158415000Y-96357142D01*
X158415000Y-96357142D02*
X158510238Y-96261904D01*
X158510238Y-96261904D02*
X158605476Y-96214285D01*
X158605476Y-96214285D02*
X158795952Y-96166666D01*
X158795952Y-96166666D02*
X158938809Y-96166666D01*
X158938809Y-96166666D02*
X159129285Y-96214285D01*
X159129285Y-96214285D02*
X159224523Y-96261904D01*
X159224523Y-96261904D02*
X159319761Y-96357142D01*
X159319761Y-96357142D02*
X159367380Y-96499999D01*
X159367380Y-96499999D02*
X159367380Y-96738094D01*
X156819761Y-89714285D02*
X156867380Y-89571428D01*
X156867380Y-89571428D02*
X156867380Y-89333333D01*
X156867380Y-89333333D02*
X156819761Y-89238095D01*
X156819761Y-89238095D02*
X156772142Y-89190476D01*
X156772142Y-89190476D02*
X156676904Y-89142857D01*
X156676904Y-89142857D02*
X156581666Y-89142857D01*
X156581666Y-89142857D02*
X156486428Y-89190476D01*
X156486428Y-89190476D02*
X156438809Y-89238095D01*
X156438809Y-89238095D02*
X156391190Y-89333333D01*
X156391190Y-89333333D02*
X156343571Y-89523809D01*
X156343571Y-89523809D02*
X156295952Y-89619047D01*
X156295952Y-89619047D02*
X156248333Y-89666666D01*
X156248333Y-89666666D02*
X156153095Y-89714285D01*
X156153095Y-89714285D02*
X156057857Y-89714285D01*
X156057857Y-89714285D02*
X155962619Y-89666666D01*
X155962619Y-89666666D02*
X155915000Y-89619047D01*
X155915000Y-89619047D02*
X155867380Y-89523809D01*
X155867380Y-89523809D02*
X155867380Y-89285714D01*
X155867380Y-89285714D02*
X155915000Y-89142857D01*
X156867380Y-88714285D02*
X155867380Y-88714285D01*
X155867380Y-88714285D02*
X155867380Y-88476190D01*
X155867380Y-88476190D02*
X155915000Y-88333333D01*
X155915000Y-88333333D02*
X156010238Y-88238095D01*
X156010238Y-88238095D02*
X156105476Y-88190476D01*
X156105476Y-88190476D02*
X156295952Y-88142857D01*
X156295952Y-88142857D02*
X156438809Y-88142857D01*
X156438809Y-88142857D02*
X156629285Y-88190476D01*
X156629285Y-88190476D02*
X156724523Y-88238095D01*
X156724523Y-88238095D02*
X156819761Y-88333333D01*
X156819761Y-88333333D02*
X156867380Y-88476190D01*
X156867380Y-88476190D02*
X156867380Y-88714285D01*
X156581666Y-87761904D02*
X156581666Y-87285714D01*
X156867380Y-87857142D02*
X155867380Y-87523809D01*
X155867380Y-87523809D02*
X156867380Y-87190476D01*
X159367380Y-89071428D02*
X159367380Y-89642856D01*
X159367380Y-89357142D02*
X158367380Y-89357142D01*
X158367380Y-89357142D02*
X158510238Y-89452380D01*
X158510238Y-89452380D02*
X158605476Y-89547618D01*
X158605476Y-89547618D02*
X158653095Y-89642856D01*
X158367380Y-88166666D02*
X158367380Y-88642856D01*
X158367380Y-88642856D02*
X158843571Y-88690475D01*
X158843571Y-88690475D02*
X158795952Y-88642856D01*
X158795952Y-88642856D02*
X158748333Y-88547618D01*
X158748333Y-88547618D02*
X158748333Y-88309523D01*
X158748333Y-88309523D02*
X158795952Y-88214285D01*
X158795952Y-88214285D02*
X158843571Y-88166666D01*
X158843571Y-88166666D02*
X158938809Y-88119047D01*
X158938809Y-88119047D02*
X159176904Y-88119047D01*
X159176904Y-88119047D02*
X159272142Y-88166666D01*
X159272142Y-88166666D02*
X159319761Y-88214285D01*
X159319761Y-88214285D02*
X159367380Y-88309523D01*
X159367380Y-88309523D02*
X159367380Y-88547618D01*
X159367380Y-88547618D02*
X159319761Y-88642856D01*
X159319761Y-88642856D02*
X159272142Y-88690475D01*
X158700714Y-87785713D02*
X159367380Y-87547618D01*
X159367380Y-87547618D02*
X158700714Y-87309523D01*
X152030780Y-87974466D02*
X151554590Y-88307799D01*
X152030780Y-88545894D02*
X151030780Y-88545894D01*
X151030780Y-88545894D02*
X151030780Y-88164942D01*
X151030780Y-88164942D02*
X151078400Y-88069704D01*
X151078400Y-88069704D02*
X151126019Y-88022085D01*
X151126019Y-88022085D02*
X151221257Y-87974466D01*
X151221257Y-87974466D02*
X151364114Y-87974466D01*
X151364114Y-87974466D02*
X151459352Y-88022085D01*
X151459352Y-88022085D02*
X151506971Y-88069704D01*
X151506971Y-88069704D02*
X151554590Y-88164942D01*
X151554590Y-88164942D02*
X151554590Y-88545894D01*
X152030780Y-87022085D02*
X152030780Y-87593513D01*
X152030780Y-87307799D02*
X151030780Y-87307799D01*
X151030780Y-87307799D02*
X151173638Y-87403037D01*
X151173638Y-87403037D02*
X151268876Y-87498275D01*
X151268876Y-87498275D02*
X151316495Y-87593513D01*
X153666666Y-92867380D02*
X153666666Y-93581666D01*
X153666666Y-93581666D02*
X153619047Y-93724523D01*
X153619047Y-93724523D02*
X153523809Y-93819761D01*
X153523809Y-93819761D02*
X153380952Y-93867380D01*
X153380952Y-93867380D02*
X153285714Y-93867380D01*
X154047619Y-92867380D02*
X154666666Y-92867380D01*
X154666666Y-92867380D02*
X154333333Y-93248333D01*
X154333333Y-93248333D02*
X154476190Y-93248333D01*
X154476190Y-93248333D02*
X154571428Y-93295952D01*
X154571428Y-93295952D02*
X154619047Y-93343571D01*
X154619047Y-93343571D02*
X154666666Y-93438809D01*
X154666666Y-93438809D02*
X154666666Y-93676904D01*
X154666666Y-93676904D02*
X154619047Y-93772142D01*
X154619047Y-93772142D02*
X154571428Y-93819761D01*
X154571428Y-93819761D02*
X154476190Y-93867380D01*
X154476190Y-93867380D02*
X154190476Y-93867380D01*
X154190476Y-93867380D02*
X154095238Y-93819761D01*
X154095238Y-93819761D02*
X154047619Y-93772142D01*
X137857580Y-87999866D02*
X137381390Y-88333199D01*
X137857580Y-88571294D02*
X136857580Y-88571294D01*
X136857580Y-88571294D02*
X136857580Y-88190342D01*
X136857580Y-88190342D02*
X136905200Y-88095104D01*
X136905200Y-88095104D02*
X136952819Y-88047485D01*
X136952819Y-88047485D02*
X137048057Y-87999866D01*
X137048057Y-87999866D02*
X137190914Y-87999866D01*
X137190914Y-87999866D02*
X137286152Y-88047485D01*
X137286152Y-88047485D02*
X137333771Y-88095104D01*
X137333771Y-88095104D02*
X137381390Y-88190342D01*
X137381390Y-88190342D02*
X137381390Y-88571294D01*
X136952819Y-87618913D02*
X136905200Y-87571294D01*
X136905200Y-87571294D02*
X136857580Y-87476056D01*
X136857580Y-87476056D02*
X136857580Y-87237961D01*
X136857580Y-87237961D02*
X136905200Y-87142723D01*
X136905200Y-87142723D02*
X136952819Y-87095104D01*
X136952819Y-87095104D02*
X137048057Y-87047485D01*
X137048057Y-87047485D02*
X137143295Y-87047485D01*
X137143295Y-87047485D02*
X137286152Y-87095104D01*
X137286152Y-87095104D02*
X137857580Y-87666532D01*
X137857580Y-87666532D02*
X137857580Y-87047485D01*
D11*
X149004867Y-85302573D02*
X149004867Y-86209716D01*
X149004867Y-86209716D02*
X148944390Y-86391145D01*
X148944390Y-86391145D02*
X148823438Y-86512097D01*
X148823438Y-86512097D02*
X148642009Y-86572573D01*
X148642009Y-86572573D02*
X148521057Y-86572573D01*
X150274867Y-86572573D02*
X149549152Y-86572573D01*
X149912009Y-86572573D02*
X149912009Y-85302573D01*
X149912009Y-85302573D02*
X149791057Y-85484002D01*
X149791057Y-85484002D02*
X149670105Y-85604954D01*
X149670105Y-85604954D02*
X149549152Y-85665430D01*
D10*
X135666666Y-100149580D02*
X135666666Y-100863866D01*
X135666666Y-100863866D02*
X135619047Y-101006723D01*
X135619047Y-101006723D02*
X135523809Y-101101961D01*
X135523809Y-101101961D02*
X135380952Y-101149580D01*
X135380952Y-101149580D02*
X135285714Y-101149580D01*
X136095238Y-100244819D02*
X136142857Y-100197200D01*
X136142857Y-100197200D02*
X136238095Y-100149580D01*
X136238095Y-100149580D02*
X136476190Y-100149580D01*
X136476190Y-100149580D02*
X136571428Y-100197200D01*
X136571428Y-100197200D02*
X136619047Y-100244819D01*
X136619047Y-100244819D02*
X136666666Y-100340057D01*
X136666666Y-100340057D02*
X136666666Y-100435295D01*
X136666666Y-100435295D02*
X136619047Y-100578152D01*
X136619047Y-100578152D02*
X136047619Y-101149580D01*
X136047619Y-101149580D02*
X136666666Y-101149580D01*
D12*
X152757200Y-88032964D02*
X152757200Y-87578836D01*
X154227200Y-88032964D02*
X154227200Y-87578836D01*
X155130000Y-90630000D02*
X156460000Y-90630000D01*
X155130000Y-91960000D02*
X155130000Y-90630000D01*
X155130000Y-93230000D02*
X155130000Y-95830000D01*
X155130000Y-93230000D02*
X157730000Y-93230000D01*
X155130000Y-95830000D02*
X160330000Y-95830000D01*
X157730000Y-90630000D02*
X160330000Y-90630000D01*
X157730000Y-93230000D02*
X157730000Y-90630000D01*
X160330000Y-90630000D02*
X160330000Y-95830000D01*
X134570800Y-88032964D02*
X134570800Y-87578836D01*
X136040800Y-88032964D02*
X136040800Y-87578836D01*
D13*
X152504200Y-84822800D02*
X136224200Y-84822800D01*
X152504200Y-79972800D02*
X152504200Y-84822800D01*
X152484200Y-76472800D02*
X152484200Y-69072800D01*
X152484200Y-69072800D02*
X136224200Y-69072800D01*
X136224200Y-84822800D02*
X136224200Y-79972800D01*
X136224200Y-69072800D02*
X136224200Y-76472800D01*
D14*
X135784200Y-76012800D02*
X135784200Y-76012800D01*
X135584200Y-76012800D02*
X135584200Y-76012800D01*
X135584200Y-76012800D02*
G75*
G03*
X135784200Y-76012800I100000J0D01*
G01*
X135784200Y-76012800D02*
G75*
G03*
X135584200Y-76012800I-100000J0D01*
G01*
D10*
X151397400Y-94382200D02*
X151397400Y-104582200D01*
X150497400Y-94382200D02*
X151397400Y-94382200D01*
X138097400Y-94382200D02*
X137197400Y-94382200D01*
X137197400Y-94382200D02*
X137197400Y-104582200D01*
M02*
