M48
; DRILL file {KiCad (7.0.0-0)} date Wednesday, 07 June 2023 at 10:33:51
; FORMAT={-:-/ absolute / metric / decimal}
; #@! TF.CreationDate,2023-06-07T10:33:51+02:00
; #@! TF.GenerationSoftware,Kicad,Pcbnew,(7.0.0-0)
; #@! TF.FileFunction,Plated,1,2,PTH
FMAT,2
METRIC
; #@! TA.AperFunction,Plated,PTH,ComponentDrill
T1C0.890
; #@! TA.AperFunction,Plated,PTH,ComponentDrill
T2C1.000
; #@! TA.AperFunction,Plated,PTH,ComponentDrill
T3C1.800
%
G90
G05
T1
X137.494Y-83.603
X139.784Y-83.603
X140.784Y-77.013
X141.804Y-78.793
X142.824Y-77.013
X143.844Y-78.793
X144.864Y-77.013
X145.884Y-78.793
X146.904Y-77.013
X147.924Y-78.793
X148.924Y-83.603
X151.214Y-83.603
T2
X156.46Y-91.96
X156.46Y-94.5
X159.0Y-91.96
X159.0Y-94.5
T3
X136.224Y-78.033
X140.097Y-89.282
X140.097Y-93.482
X144.297Y-89.282
X144.297Y-93.482
X148.497Y-89.282
X148.497Y-93.482
X152.484Y-78.033
T0
M30
