  0
SECTION
  2
HEADER
  9
$ANGBASE
  50
0.0
  9
$ANGDIR
  70
1
  9
$MEASUREMENT
  70
1
  0
ENDSEC
  0
SECTION
  2
TABLES
  0
TABLE
  2
LTYPE
  70
4
  0
LTYPE
  5
40F
  2
CONTINUOUS
  70
0
  3
Solid line
  72
65
  73
0
  40
0.0
  0
LTYPE
  5
410
  2
DASHDOT
 70
0
  3
Dash Dot ____ _ ____ _
 72
65
 73
4
 40
2.0
 49
1.25
 49
-0.25
 49
0.25
 49
-0.25
  0
LTYPE
  5
411
  2
DASHED
 70
0
  3
Dashed __ __ __ __ __
 72
65
 73
2
 40
0.75
 49
0.5
 49
-0.25
  0
LTYPE
  5
43B
  2
DOTTED
 70
0
  3
Dotted .  .  .  .
 72
65
 73
2
 40
0.2
 49
0.0
 49
-0.2
  0
ENDTAB
  0
TABLE
  2
STYLE
  70
4
  0
STYLE
  2
KICAD
  70
0
  40
0
  41
1
  42
1
  50
0
  71
0
  3
isocp.shx
  0
STYLE
  2
KICADB
  70
0
  40
0
  41
1
  42
1
  50
0
  71
0
  3
isocp.shx
  0
STYLE
  2
KICADI
  70
0
  40
0
  41
1
  42
1
  50
15
  71
0
  3
isocp.shx
  0
STYLE
  2
KICADBI
  70
0
  40
0
  41
1
  42
1
  50
15
  71
0
  3
isocp.shx
  0
ENDTAB
  0
TABLE
  2
LAYER
  70
1
  0
LAYER
  2
BLACK
  70
0
  62
7
  6
CONTINUOUS
  0
ENDTAB
  0
ENDSEC
  0
SECTION
  2
ENTITIES
0
LINE
8
BLACK
6
CONTINUOUS
10
162
20
-70.8406
11
162
21
-104.841
0
LINE
8
BLACK
6
CONTINUOUS
10
127.5
20
-104.841
11
162
21
-104.841
0
LINE
8
BLACK
6
CONTINUOUS
10
127.5
20
-70.8406
11
127.5
21
-104.841
0
LINE
8
BLACK
6
CONTINUOUS
10
127.5
20
-70.8406
11
162
21
-70.8406
0
LINE
8
BLACK
6
CONTINUOUS
10
137.049
20
-83.1578
11
137.939
21
-84.0478
0
LINE
8
BLACK
6
CONTINUOUS
10
137.939
20
-83.1578
11
137.049
21
-84.0478
0
LINE
8
BLACK
6
CONTINUOUS
10
139.339
20
-83.1578
11
140.229
21
-84.0478
0
LINE
8
BLACK
6
CONTINUOUS
10
140.229
20
-83.1578
11
139.339
21
-84.0478
0
LINE
8
BLACK
6
CONTINUOUS
10
140.339
20
-76.5678
11
141.229
21
-77.4578
0
LINE
8
BLACK
6
CONTINUOUS
10
141.229
20
-76.5678
11
140.339
21
-77.4578
0
LINE
8
BLACK
6
CONTINUOUS
10
141.359
20
-78.3478
11
142.249
21
-79.2378
0
LINE
8
BLACK
6
CONTINUOUS
10
142.249
20
-78.3478
11
141.359
21
-79.2378
0
LINE
8
BLACK
6
CONTINUOUS
10
142.379
20
-76.5678
11
143.269
21
-77.4578
0
LINE
8
BLACK
6
CONTINUOUS
10
143.269
20
-76.5678
11
142.379
21
-77.4578
0
LINE
8
BLACK
6
CONTINUOUS
10
143.399
20
-78.3478
11
144.289
21
-79.2378
0
LINE
8
BLACK
6
CONTINUOUS
10
144.289
20
-78.3478
11
143.399
21
-79.2378
0
LINE
8
BLACK
6
CONTINUOUS
10
144.419
20
-76.5678
11
145.309
21
-77.4578
0
LINE
8
BLACK
6
CONTINUOUS
10
145.309
20
-76.5678
11
144.419
21
-77.4578
0
LINE
8
BLACK
6
CONTINUOUS
10
145.439
20
-78.3478
11
146.329
21
-79.2378
0
LINE
8
BLACK
6
CONTINUOUS
10
146.329
20
-78.3478
11
145.439
21
-79.2378
0
LINE
8
BLACK
6
CONTINUOUS
10
146.459
20
-76.5678
11
147.349
21
-77.4578
0
LINE
8
BLACK
6
CONTINUOUS
10
147.349
20
-76.5678
11
146.459
21
-77.4578
0
LINE
8
BLACK
6
CONTINUOUS
10
147.479
20
-78.3478
11
148.369
21
-79.2378
0
LINE
8
BLACK
6
CONTINUOUS
10
148.369
20
-78.3478
11
147.479
21
-79.2378
0
LINE
8
BLACK
6
CONTINUOUS
10
148.479
20
-83.1578
11
149.369
21
-84.0478
0
LINE
8
BLACK
6
CONTINUOUS
10
149.369
20
-83.1578
11
148.479
21
-84.0478
0
LINE
8
BLACK
6
CONTINUOUS
10
150.769
20
-83.1578
11
151.659
21
-84.0478
0
LINE
8
BLACK
6
CONTINUOUS
10
151.659
20
-83.1578
11
150.769
21
-84.0478
0
CIRCLE
8
BLACK
10
156.46
20
-91.96
40
0.5
0
CIRCLE
8
BLACK
10
156.46
20
-94.5
40
0.5
0
CIRCLE
8
BLACK
10
159
20
-91.96
40
0.5
0
CIRCLE
8
BLACK
10
159
20
-94.5
40
0.5
0
LINE
8
BLACK
6
CONTINUOUS
10
136.224
20
-77.1328
11
136.224
21
-78.9328
0
LINE
8
BLACK
6
CONTINUOUS
10
135.324
20
-78.0328
11
137.124
21
-78.0328
0
LINE
8
BLACK
6
CONTINUOUS
10
140.097
20
-88.3822
11
140.097
21
-90.1822
0
LINE
8
BLACK
6
CONTINUOUS
10
139.197
20
-89.2822
11
140.997
21
-89.2822
0
LINE
8
BLACK
6
CONTINUOUS
10
140.097
20
-92.5822
11
140.097
21
-94.3822
0
LINE
8
BLACK
6
CONTINUOUS
10
139.197
20
-93.4822
11
140.997
21
-93.4822
0
LINE
8
BLACK
6
CONTINUOUS
10
144.297
20
-88.3822
11
144.297
21
-90.1822
0
LINE
8
BLACK
6
CONTINUOUS
10
143.397
20
-89.2822
11
145.197
21
-89.2822
0
LINE
8
BLACK
6
CONTINUOUS
10
144.297
20
-92.5822
11
144.297
21
-94.3822
0
LINE
8
BLACK
6
CONTINUOUS
10
143.397
20
-93.4822
11
145.197
21
-93.4822
0
LINE
8
BLACK
6
CONTINUOUS
10
148.497
20
-88.3822
11
148.497
21
-90.1822
0
LINE
8
BLACK
6
CONTINUOUS
10
147.597
20
-89.2822
11
149.397
21
-89.2822
0
LINE
8
BLACK
6
CONTINUOUS
10
148.497
20
-92.5822
11
148.497
21
-94.3822
0
LINE
8
BLACK
6
CONTINUOUS
10
147.597
20
-93.4822
11
149.397
21
-93.4822
0
LINE
8
BLACK
6
CONTINUOUS
10
152.484
20
-77.1328
11
152.484
21
-78.9328
0
LINE
8
BLACK
6
CONTINUOUS
10
151.584
20
-78.0328
11
153.384
21
-78.0328
0
LINE
8
BLACK
6
CONTINUOUS
10
131.884
20
-74.8839
11
131.884
21
-73.1161
0
LINE
8
BLACK
6
CONTINUOUS
10
131.884
20
-73.1161
11
130.116
21
-73.1161
0
LINE
8
BLACK
6
CONTINUOUS
10
130.116
20
-73.1161
11
130.116
21
-74.8839
0
LINE
8
BLACK
6
CONTINUOUS
10
130.116
20
-74.8839
11
131.884
21
-74.8839
0
LINE
8
BLACK
6
CONTINUOUS
10
131.884
20
-102.384
11
131.884
21
-100.616
0
LINE
8
BLACK
6
CONTINUOUS
10
131.884
20
-100.616
11
130.116
21
-100.616
0
LINE
8
BLACK
6
CONTINUOUS
10
130.116
20
-100.616
11
130.116
21
-102.384
0
LINE
8
BLACK
6
CONTINUOUS
10
130.116
20
-102.384
11
131.884
21
-102.384
0
LINE
8
BLACK
6
CONTINUOUS
10
159.253
20
-74.8839
11
159.253
21
-73.1161
0
LINE
8
BLACK
6
CONTINUOUS
10
159.253
20
-73.1161
11
157.485
21
-73.1161
0
LINE
8
BLACK
6
CONTINUOUS
10
157.485
20
-73.1161
11
157.485
21
-74.8839
0
LINE
8
BLACK
6
CONTINUOUS
10
157.485
20
-74.8839
11
159.253
21
-74.8839
0
LINE
8
BLACK
6
CONTINUOUS
10
159.253
20
-102.384
11
159.253
21
-100.616
0
LINE
8
BLACK
6
CONTINUOUS
10
159.253
20
-100.616
11
157.485
21
-100.616
0
LINE
8
BLACK
6
CONTINUOUS
10
157.485
20
-100.616
11
157.485
21
-102.384
0
LINE
8
BLACK
6
CONTINUOUS
10
157.485
20
-102.384
11
159.253
21
-102.384
0
LINE
8
BLACK
6
CONTINUOUS
10
140.097
20
-102.282
11
141.597
21
-100.782
0
LINE
8
BLACK
6
CONTINUOUS
10
141.597
20
-100.782
11
140.097
21
-99.2822
0
LINE
8
BLACK
6
CONTINUOUS
10
140.097
20
-99.2822
11
138.597
21
-100.782
0
LINE
8
BLACK
6
CONTINUOUS
10
138.597
20
-100.782
11
140.097
21
-102.282
0
LINE
8
BLACK
6
CONTINUOUS
10
148.597
20
-102.382
11
150.097
21
-100.882
0
LINE
8
BLACK
6
CONTINUOUS
10
150.097
20
-100.882
11
148.597
21
-99.3822
0
LINE
8
BLACK
6
CONTINUOUS
10
148.597
20
-99.3822
11
147.097
21
-100.882
0
LINE
8
BLACK
6
CONTINUOUS
10
147.097
20
-100.882
11
148.597
21
-102.382
0
LINE
8
BLACK
6
CONTINUOUS
10
136.379
20
-72.8478
11
139.629
21
-76.0978
0
LINE
8
BLACK
6
CONTINUOUS
10
139.629
20
-72.8478
11
136.379
21
-76.0978
0
CIRCLE
8
BLACK
10
138.004
20
-74.4728
40
1.625
0
LINE
8
BLACK
6
CONTINUOUS
10
149.079
20
-72.8478
11
152.329
21
-76.0978
0
LINE
8
BLACK
6
CONTINUOUS
10
152.329
20
-72.8478
11
149.079
21
-76.0978
0
CIRCLE
8
BLACK
10
150.704
20
-74.4728
40
1.625
0
LINE
8
BLACK
6
CONTINUOUS
10
129.926
20
-107.825
11
129.926
21
-105.825
0
LINE
8
BLACK
6
CONTINUOUS
10
129.926
20
-105.825
11
130.402
21
-105.825
0
LINE
8
BLACK
6
CONTINUOUS
10
130.402
20
-105.825
11
130.688
21
-105.921
0
LINE
8
BLACK
6
CONTINUOUS
10
130.688
20
-105.921
11
130.879
21
-106.111
0
LINE
8
BLACK
6
CONTINUOUS
10
130.879
20
-106.111
11
130.974
21
-106.302
0
LINE
8
BLACK
6
CONTINUOUS
10
130.974
20
-106.302
11
131.069
21
-106.683
0
LINE
8
BLACK
6
CONTINUOUS
10
131.069
20
-106.683
11
131.069
21
-106.968
0
LINE
8
BLACK
6
CONTINUOUS
10
131.069
20
-106.968
11
130.974
21
-107.349
0
LINE
8
BLACK
6
CONTINUOUS
10
130.974
20
-107.349
11
130.879
21
-107.54
0
LINE
8
BLACK
6
CONTINUOUS
10
130.879
20
-107.54
11
130.688
21
-107.73
0
LINE
8
BLACK
6
CONTINUOUS
10
130.688
20
-107.73
11
130.402
21
-107.825
0
LINE
8
BLACK
6
CONTINUOUS
10
130.402
20
-107.825
11
129.926
21
-107.825
0
LINE
8
BLACK
6
CONTINUOUS
10
131.926
20
-107.825
11
131.926
21
-106.492
0
LINE
8
BLACK
6
CONTINUOUS
10
131.926
20
-106.873
11
132.021
21
-106.683
0
LINE
8
BLACK
6
CONTINUOUS
10
132.021
20
-106.683
11
132.117
21
-106.587
0
LINE
8
BLACK
6
CONTINUOUS
10
132.117
20
-106.587
11
132.307
21
-106.492
0
LINE
8
BLACK
6
CONTINUOUS
10
132.307
20
-106.492
11
132.498
21
-106.492
0
LINE
8
BLACK
6
CONTINUOUS
10
133.164
20
-107.825
11
133.164
21
-106.492
0
LINE
8
BLACK
6
CONTINUOUS
10
133.164
20
-105.825
11
133.069
21
-105.921
0
LINE
8
BLACK
6
CONTINUOUS
10
133.069
20
-105.921
11
133.164
21
-106.016
0
LINE
8
BLACK
6
CONTINUOUS
10
133.164
20
-106.016
11
133.26
21
-105.921
0
LINE
8
BLACK
6
CONTINUOUS
10
133.26
20
-105.921
11
133.164
21
-105.825
0
LINE
8
BLACK
6
CONTINUOUS
10
133.164
20
-105.825
11
133.164
21
-106.016
0
LINE
8
BLACK
6
CONTINUOUS
10
134.402
20
-107.825
11
134.212
21
-107.73
0
LINE
8
BLACK
6
CONTINUOUS
10
134.212
20
-107.73
11
134.117
21
-107.54
0
LINE
8
BLACK
6
CONTINUOUS
10
134.117
20
-107.54
11
134.117
21
-105.825
0
LINE
8
BLACK
6
CONTINUOUS
10
135.45
20
-107.825
11
135.26
21
-107.73
0
LINE
8
BLACK
6
CONTINUOUS
10
135.26
20
-107.73
11
135.164
21
-107.54
0
LINE
8
BLACK
6
CONTINUOUS
10
135.164
20
-107.54
11
135.164
21
-105.825
0
LINE
8
BLACK
6
CONTINUOUS
10
137.412
20
-107.825
11
137.412
21
-105.825
0
LINE
8
BLACK
6
CONTINUOUS
10
137.412
20
-105.825
11
138.079
21
-107.254
0
LINE
8
BLACK
6
CONTINUOUS
10
138.079
20
-107.254
11
138.745
21
-105.825
0
LINE
8
BLACK
6
CONTINUOUS
10
138.745
20
-105.825
11
138.745
21
-107.825
0
LINE
8
BLACK
6
CONTINUOUS
10
140.555
20
-107.825
11
140.555
21
-106.778
0
LINE
8
BLACK
6
CONTINUOUS
10
140.555
20
-106.778
11
140.46
21
-106.587
0
LINE
8
BLACK
6
CONTINUOUS
10
140.46
20
-106.587
11
140.269
21
-106.492
0
LINE
8
BLACK
6
CONTINUOUS
10
140.269
20
-106.492
11
139.888
21
-106.492
0
LINE
8
BLACK
6
CONTINUOUS
10
139.888
20
-106.492
11
139.698
21
-106.587
0
LINE
8
BLACK
6
CONTINUOUS
10
140.555
20
-107.73
11
140.364
21
-107.825
0
LINE
8
BLACK
6
CONTINUOUS
10
140.364
20
-107.825
11
139.888
21
-107.825
0
LINE
8
BLACK
6
CONTINUOUS
10
139.888
20
-107.825
11
139.698
21
-107.73
0
LINE
8
BLACK
6
CONTINUOUS
10
139.698
20
-107.73
11
139.602
21
-107.54
0
LINE
8
BLACK
6
CONTINUOUS
10
139.602
20
-107.54
11
139.602
21
-107.349
0
LINE
8
BLACK
6
CONTINUOUS
10
139.602
20
-107.349
11
139.698
21
-107.159
0
LINE
8
BLACK
6
CONTINUOUS
10
139.698
20
-107.159
11
139.888
21
-107.063
0
LINE
8
BLACK
6
CONTINUOUS
10
139.888
20
-107.063
11
140.364
21
-107.063
0
LINE
8
BLACK
6
CONTINUOUS
10
140.364
20
-107.063
11
140.555
21
-106.968
0
LINE
8
BLACK
6
CONTINUOUS
10
141.507
20
-106.492
11
141.507
21
-108.492
0
LINE
8
BLACK
6
CONTINUOUS
10
141.507
20
-106.587
11
141.698
21
-106.492
0
LINE
8
BLACK
6
CONTINUOUS
10
141.698
20
-106.492
11
142.079
21
-106.492
0
LINE
8
BLACK
6
CONTINUOUS
10
142.079
20
-106.492
11
142.269
21
-106.587
0
LINE
8
BLACK
6
CONTINUOUS
10
142.269
20
-106.587
11
142.364
21
-106.683
0
LINE
8
BLACK
6
CONTINUOUS
10
142.364
20
-106.683
11
142.46
21
-106.873
0
LINE
8
BLACK
6
CONTINUOUS
10
142.46
20
-106.873
11
142.46
21
-107.444
0
LINE
8
BLACK
6
CONTINUOUS
10
142.46
20
-107.444
11
142.364
21
-107.635
0
LINE
8
BLACK
6
CONTINUOUS
10
142.364
20
-107.635
11
142.269
21
-107.73
0
LINE
8
BLACK
6
CONTINUOUS
10
142.269
20
-107.73
11
142.079
21
-107.825
0
LINE
8
BLACK
6
CONTINUOUS
10
142.079
20
-107.825
11
141.698
21
-107.825
0
LINE
8
BLACK
6
CONTINUOUS
10
141.698
20
-107.825
11
141.507
21
-107.73
0
LINE
8
BLACK
6
CONTINUOUS
10
143.317
20
-107.635
11
143.412
21
-107.73
0
LINE
8
BLACK
6
CONTINUOUS
10
143.412
20
-107.73
11
143.317
21
-107.825
0
LINE
8
BLACK
6
CONTINUOUS
10
143.317
20
-107.825
11
143.221
21
-107.73
0
LINE
8
BLACK
6
CONTINUOUS
10
143.221
20
-107.73
11
143.317
21
-107.635
0
LINE
8
BLACK
6
CONTINUOUS
10
143.317
20
-107.635
11
143.317
21
-107.825
0
LINE
8
BLACK
6
CONTINUOUS
10
143.317
20
-106.587
11
143.412
21
-106.683
0
LINE
8
BLACK
6
CONTINUOUS
10
143.412
20
-106.683
11
143.317
21
-106.778
0
LINE
8
BLACK
6
CONTINUOUS
10
143.317
20
-106.778
11
143.221
21
-106.683
0
LINE
8
BLACK
6
CONTINUOUS
10
143.221
20
-106.683
11
143.317
21
-106.587
0
LINE
8
BLACK
6
CONTINUOUS
10
143.317
20
-106.587
11
143.317
21
-106.778
0
LINE
8
BLACK
6
CONTINUOUS
10
126.56
20
-110.846
11
127.45
21
-111.736
0
LINE
8
BLACK
6
CONTINUOUS
10
127.45
20
-110.846
11
126.56
21
-111.736
0
LINE
8
BLACK
6
CONTINUOUS
10
130.307
20
-110.025
11
130.498
21
-110.025
0
LINE
8
BLACK
6
CONTINUOUS
10
130.498
20
-110.025
11
130.688
21
-110.121
0
LINE
8
BLACK
6
CONTINUOUS
10
130.688
20
-110.121
11
130.783
21
-110.216
0
LINE
8
BLACK
6
CONTINUOUS
10
130.783
20
-110.216
11
130.879
21
-110.406
0
LINE
8
BLACK
6
CONTINUOUS
10
130.879
20
-110.406
11
130.974
21
-110.787
0
LINE
8
BLACK
6
CONTINUOUS
10
130.974
20
-110.787
11
130.974
21
-111.263
0
LINE
8
BLACK
6
CONTINUOUS
10
130.974
20
-111.263
11
130.879
21
-111.644
0
LINE
8
BLACK
6
CONTINUOUS
10
130.879
20
-111.644
11
130.783
21
-111.835
0
LINE
8
BLACK
6
CONTINUOUS
10
130.783
20
-111.835
11
130.688
21
-111.93
0
LINE
8
BLACK
6
CONTINUOUS
10
130.688
20
-111.93
11
130.498
21
-112.025
0
LINE
8
BLACK
6
CONTINUOUS
10
130.498
20
-112.025
11
130.307
21
-112.025
0
LINE
8
BLACK
6
CONTINUOUS
10
130.307
20
-112.025
11
130.117
21
-111.93
0
LINE
8
BLACK
6
CONTINUOUS
10
130.117
20
-111.93
11
130.021
21
-111.835
0
LINE
8
BLACK
6
CONTINUOUS
10
130.021
20
-111.835
11
129.926
21
-111.644
0
LINE
8
BLACK
6
CONTINUOUS
10
129.926
20
-111.644
11
129.831
21
-111.263
0
LINE
8
BLACK
6
CONTINUOUS
10
129.831
20
-111.263
11
129.831
21
-110.787
0
LINE
8
BLACK
6
CONTINUOUS
10
129.831
20
-110.787
11
129.926
21
-110.406
0
LINE
8
BLACK
6
CONTINUOUS
10
129.926
20
-110.406
11
130.021
21
-110.216
0
LINE
8
BLACK
6
CONTINUOUS
10
130.021
20
-110.216
11
130.117
21
-110.121
0
LINE
8
BLACK
6
CONTINUOUS
10
130.117
20
-110.121
11
130.307
21
-110.025
0
LINE
8
BLACK
6
CONTINUOUS
10
131.831
20
-111.835
11
131.926
21
-111.93
0
LINE
8
BLACK
6
CONTINUOUS
10
131.926
20
-111.93
11
131.831
21
-112.025
0
LINE
8
BLACK
6
CONTINUOUS
10
131.831
20
-112.025
11
131.736
21
-111.93
0
LINE
8
BLACK
6
CONTINUOUS
10
131.736
20
-111.93
11
131.831
21
-111.835
0
LINE
8
BLACK
6
CONTINUOUS
10
131.831
20
-111.835
11
131.831
21
-112.025
0
LINE
8
BLACK
6
CONTINUOUS
10
133.069
20
-110.883
11
132.879
21
-110.787
0
LINE
8
BLACK
6
CONTINUOUS
10
132.879
20
-110.787
11
132.783
21
-110.692
0
LINE
8
BLACK
6
CONTINUOUS
10
132.783
20
-110.692
11
132.688
21
-110.502
0
LINE
8
BLACK
6
CONTINUOUS
10
132.688
20
-110.502
11
132.688
21
-110.406
0
LINE
8
BLACK
6
CONTINUOUS
10
132.688
20
-110.406
11
132.783
21
-110.216
0
LINE
8
BLACK
6
CONTINUOUS
10
132.783
20
-110.216
11
132.879
21
-110.121
0
LINE
8
BLACK
6
CONTINUOUS
10
132.879
20
-110.121
11
133.069
21
-110.025
0
LINE
8
BLACK
6
CONTINUOUS
10
133.069
20
-110.025
11
133.45
21
-110.025
0
LINE
8
BLACK
6
CONTINUOUS
10
133.45
20
-110.025
11
133.64
21
-110.121
0
LINE
8
BLACK
6
CONTINUOUS
10
133.64
20
-110.121
11
133.736
21
-110.216
0
LINE
8
BLACK
6
CONTINUOUS
10
133.736
20
-110.216
11
133.831
21
-110.406
0
LINE
8
BLACK
6
CONTINUOUS
10
133.831
20
-110.406
11
133.831
21
-110.502
0
LINE
8
BLACK
6
CONTINUOUS
10
133.831
20
-110.502
11
133.736
21
-110.692
0
LINE
8
BLACK
6
CONTINUOUS
10
133.736
20
-110.692
11
133.64
21
-110.787
0
LINE
8
BLACK
6
CONTINUOUS
10
133.64
20
-110.787
11
133.45
21
-110.883
0
LINE
8
BLACK
6
CONTINUOUS
10
133.45
20
-110.883
11
133.069
21
-110.883
0
LINE
8
BLACK
6
CONTINUOUS
10
133.069
20
-110.883
11
132.879
21
-110.978
0
LINE
8
BLACK
6
CONTINUOUS
10
132.879
20
-110.978
11
132.783
21
-111.073
0
LINE
8
BLACK
6
CONTINUOUS
10
132.783
20
-111.073
11
132.688
21
-111.263
0
LINE
8
BLACK
6
CONTINUOUS
10
132.688
20
-111.263
11
132.688
21
-111.644
0
LINE
8
BLACK
6
CONTINUOUS
10
132.688
20
-111.644
11
132.783
21
-111.835
0
LINE
8
BLACK
6
CONTINUOUS
10
132.783
20
-111.835
11
132.879
21
-111.93
0
LINE
8
BLACK
6
CONTINUOUS
10
132.879
20
-111.93
11
133.069
21
-112.025
0
LINE
8
BLACK
6
CONTINUOUS
10
133.069
20
-112.025
11
133.45
21
-112.025
0
LINE
8
BLACK
6
CONTINUOUS
10
133.45
20
-112.025
11
133.64
21
-111.93
0
LINE
8
BLACK
6
CONTINUOUS
10
133.64
20
-111.93
11
133.736
21
-111.835
0
LINE
8
BLACK
6
CONTINUOUS
10
133.736
20
-111.835
11
133.831
21
-111.644
0
LINE
8
BLACK
6
CONTINUOUS
10
133.831
20
-111.644
11
133.831
21
-111.263
0
LINE
8
BLACK
6
CONTINUOUS
10
133.831
20
-111.263
11
133.736
21
-111.073
0
LINE
8
BLACK
6
CONTINUOUS
10
133.736
20
-111.073
11
133.64
21
-110.978
0
LINE
8
BLACK
6
CONTINUOUS
10
133.64
20
-110.978
11
133.45
21
-110.883
0
LINE
8
BLACK
6
CONTINUOUS
10
134.783
20
-112.025
11
135.164
21
-112.025
0
LINE
8
BLACK
6
CONTINUOUS
10
135.164
20
-112.025
11
135.355
21
-111.93
0
LINE
8
BLACK
6
CONTINUOUS
10
135.355
20
-111.93
11
135.45
21
-111.835
0
LINE
8
BLACK
6
CONTINUOUS
10
135.45
20
-111.835
11
135.64
21
-111.549
0
LINE
8
BLACK
6
CONTINUOUS
10
135.64
20
-111.549
11
135.736
21
-111.168
0
LINE
8
BLACK
6
CONTINUOUS
10
135.736
20
-111.168
11
135.736
21
-110.406
0
LINE
8
BLACK
6
CONTINUOUS
10
135.736
20
-110.406
11
135.64
21
-110.216
0
LINE
8
BLACK
6
CONTINUOUS
10
135.64
20
-110.216
11
135.545
21
-110.121
0
LINE
8
BLACK
6
CONTINUOUS
10
135.545
20
-110.121
11
135.355
21
-110.025
0
LINE
8
BLACK
6
CONTINUOUS
10
135.355
20
-110.025
11
134.974
21
-110.025
0
LINE
8
BLACK
6
CONTINUOUS
10
134.974
20
-110.025
11
134.783
21
-110.121
0
LINE
8
BLACK
6
CONTINUOUS
10
134.783
20
-110.121
11
134.688
21
-110.216
0
LINE
8
BLACK
6
CONTINUOUS
10
134.688
20
-110.216
11
134.593
21
-110.406
0
LINE
8
BLACK
6
CONTINUOUS
10
134.593
20
-110.406
11
134.593
21
-110.883
0
LINE
8
BLACK
6
CONTINUOUS
10
134.593
20
-110.883
11
134.688
21
-111.073
0
LINE
8
BLACK
6
CONTINUOUS
10
134.688
20
-111.073
11
134.783
21
-111.168
0
LINE
8
BLACK
6
CONTINUOUS
10
134.783
20
-111.168
11
134.974
21
-111.263
0
LINE
8
BLACK
6
CONTINUOUS
10
134.974
20
-111.263
11
135.355
21
-111.263
0
LINE
8
BLACK
6
CONTINUOUS
10
135.355
20
-111.263
11
135.545
21
-111.168
0
LINE
8
BLACK
6
CONTINUOUS
10
135.545
20
-111.168
11
135.64
21
-111.073
0
LINE
8
BLACK
6
CONTINUOUS
10
135.64
20
-111.073
11
135.736
21
-110.883
0
LINE
8
BLACK
6
CONTINUOUS
10
136.974
20
-110.025
11
137.164
21
-110.025
0
LINE
8
BLACK
6
CONTINUOUS
10
137.164
20
-110.025
11
137.355
21
-110.121
0
LINE
8
BLACK
6
CONTINUOUS
10
137.355
20
-110.121
11
137.45
21
-110.216
0
LINE
8
BLACK
6
CONTINUOUS
10
137.45
20
-110.216
11
137.545
21
-110.406
0
LINE
8
BLACK
6
CONTINUOUS
10
137.545
20
-110.406
11
137.64
21
-110.787
0
LINE
8
BLACK
6
CONTINUOUS
10
137.64
20
-110.787
11
137.64
21
-111.263
0
LINE
8
BLACK
6
CONTINUOUS
10
137.64
20
-111.263
11
137.545
21
-111.644
0
LINE
8
BLACK
6
CONTINUOUS
10
137.545
20
-111.644
11
137.45
21
-111.835
0
LINE
8
BLACK
6
CONTINUOUS
10
137.45
20
-111.835
11
137.355
21
-111.93
0
LINE
8
BLACK
6
CONTINUOUS
10
137.355
20
-111.93
11
137.164
21
-112.025
0
LINE
8
BLACK
6
CONTINUOUS
10
137.164
20
-112.025
11
136.974
21
-112.025
0
LINE
8
BLACK
6
CONTINUOUS
10
136.974
20
-112.025
11
136.783
21
-111.93
0
LINE
8
BLACK
6
CONTINUOUS
10
136.783
20
-111.93
11
136.688
21
-111.835
0
LINE
8
BLACK
6
CONTINUOUS
10
136.688
20
-111.835
11
136.593
21
-111.644
0
LINE
8
BLACK
6
CONTINUOUS
10
136.593
20
-111.644
11
136.498
21
-111.263
0
LINE
8
BLACK
6
CONTINUOUS
10
136.498
20
-111.263
11
136.498
21
-110.787
0
LINE
8
BLACK
6
CONTINUOUS
10
136.498
20
-110.787
11
136.593
21
-110.406
0
LINE
8
BLACK
6
CONTINUOUS
10
136.593
20
-110.406
11
136.688
21
-110.216
0
LINE
8
BLACK
6
CONTINUOUS
10
136.688
20
-110.216
11
136.783
21
-110.121
0
LINE
8
BLACK
6
CONTINUOUS
10
136.783
20
-110.121
11
136.974
21
-110.025
0
LINE
8
BLACK
6
CONTINUOUS
10
138.498
20
-112.025
11
138.498
21
-110.692
0
LINE
8
BLACK
6
CONTINUOUS
10
138.498
20
-110.883
11
138.593
21
-110.787
0
LINE
8
BLACK
6
CONTINUOUS
10
138.593
20
-110.787
11
138.783
21
-110.692
0
LINE
8
BLACK
6
CONTINUOUS
10
138.783
20
-110.692
11
139.069
21
-110.692
0
LINE
8
BLACK
6
CONTINUOUS
10
139.069
20
-110.692
11
139.26
21
-110.787
0
LINE
8
BLACK
6
CONTINUOUS
10
139.26
20
-110.787
11
139.355
21
-110.978
0
LINE
8
BLACK
6
CONTINUOUS
10
139.355
20
-110.978
11
139.355
21
-112.025
0
LINE
8
BLACK
6
CONTINUOUS
10
139.355
20
-110.978
11
139.45
21
-110.787
0
LINE
8
BLACK
6
CONTINUOUS
10
139.45
20
-110.787
11
139.64
21
-110.692
0
LINE
8
BLACK
6
CONTINUOUS
10
139.64
20
-110.692
11
139.926
21
-110.692
0
LINE
8
BLACK
6
CONTINUOUS
10
139.926
20
-110.692
11
140.117
21
-110.787
0
LINE
8
BLACK
6
CONTINUOUS
10
140.117
20
-110.787
11
140.212
21
-110.978
0
LINE
8
BLACK
6
CONTINUOUS
10
140.212
20
-110.978
11
140.212
21
-112.025
0
LINE
8
BLACK
6
CONTINUOUS
10
141.164
20
-112.025
11
141.164
21
-110.692
0
LINE
8
BLACK
6
CONTINUOUS
10
141.164
20
-110.883
11
141.26
21
-110.787
0
LINE
8
BLACK
6
CONTINUOUS
10
141.26
20
-110.787
11
141.45
21
-110.692
0
LINE
8
BLACK
6
CONTINUOUS
10
141.45
20
-110.692
11
141.736
21
-110.692
0
LINE
8
BLACK
6
CONTINUOUS
10
141.736
20
-110.692
11
141.926
21
-110.787
0
LINE
8
BLACK
6
CONTINUOUS
10
141.926
20
-110.787
11
142.021
21
-110.978
0
LINE
8
BLACK
6
CONTINUOUS
10
142.021
20
-110.978
11
142.021
21
-112.025
0
LINE
8
BLACK
6
CONTINUOUS
10
142.021
20
-110.978
11
142.117
21
-110.787
0
LINE
8
BLACK
6
CONTINUOUS
10
142.117
20
-110.787
11
142.307
21
-110.692
0
LINE
8
BLACK
6
CONTINUOUS
10
142.307
20
-110.692
11
142.593
21
-110.692
0
LINE
8
BLACK
6
CONTINUOUS
10
142.593
20
-110.692
11
142.783
21
-110.787
0
LINE
8
BLACK
6
CONTINUOUS
10
142.783
20
-110.787
11
142.879
21
-110.978
0
LINE
8
BLACK
6
CONTINUOUS
10
142.879
20
-110.978
11
142.879
21
-112.025
0
LINE
8
BLACK
6
CONTINUOUS
10
146.46
20
-109.93
11
144.745
21
-112.502
0
LINE
8
BLACK
6
CONTINUOUS
10
148.707
20
-110.025
11
148.898
21
-110.025
0
LINE
8
BLACK
6
CONTINUOUS
10
148.898
20
-110.025
11
149.088
21
-110.121
0
LINE
8
BLACK
6
CONTINUOUS
10
149.088
20
-110.121
11
149.183
21
-110.216
0
LINE
8
BLACK
6
CONTINUOUS
10
149.183
20
-110.216
11
149.279
21
-110.406
0
LINE
8
BLACK
6
CONTINUOUS
10
149.279
20
-110.406
11
149.374
21
-110.787
0
LINE
8
BLACK
6
CONTINUOUS
10
149.374
20
-110.787
11
149.374
21
-111.263
0
LINE
8
BLACK
6
CONTINUOUS
10
149.374
20
-111.263
11
149.279
21
-111.644
0
LINE
8
BLACK
6
CONTINUOUS
10
149.279
20
-111.644
11
149.183
21
-111.835
0
LINE
8
BLACK
6
CONTINUOUS
10
149.183
20
-111.835
11
149.088
21
-111.93
0
LINE
8
BLACK
6
CONTINUOUS
10
149.088
20
-111.93
11
148.898
21
-112.025
0
LINE
8
BLACK
6
CONTINUOUS
10
148.898
20
-112.025
11
148.707
21
-112.025
0
LINE
8
BLACK
6
CONTINUOUS
10
148.707
20
-112.025
11
148.517
21
-111.93
0
LINE
8
BLACK
6
CONTINUOUS
10
148.517
20
-111.93
11
148.421
21
-111.835
0
LINE
8
BLACK
6
CONTINUOUS
10
148.421
20
-111.835
11
148.326
21
-111.644
0
LINE
8
BLACK
6
CONTINUOUS
10
148.326
20
-111.644
11
148.231
21
-111.263
0
LINE
8
BLACK
6
CONTINUOUS
10
148.231
20
-111.263
11
148.231
21
-110.787
0
LINE
8
BLACK
6
CONTINUOUS
10
148.231
20
-110.787
11
148.326
21
-110.406
0
LINE
8
BLACK
6
CONTINUOUS
10
148.326
20
-110.406
11
148.421
21
-110.216
0
LINE
8
BLACK
6
CONTINUOUS
10
148.421
20
-110.216
11
148.517
21
-110.121
0
LINE
8
BLACK
6
CONTINUOUS
10
148.517
20
-110.121
11
148.707
21
-110.025
0
LINE
8
BLACK
6
CONTINUOUS
10
150.231
20
-111.835
11
150.326
21
-111.93
0
LINE
8
BLACK
6
CONTINUOUS
10
150.326
20
-111.93
11
150.231
21
-112.025
0
LINE
8
BLACK
6
CONTINUOUS
10
150.231
20
-112.025
11
150.136
21
-111.93
0
LINE
8
BLACK
6
CONTINUOUS
10
150.136
20
-111.93
11
150.231
21
-111.835
0
LINE
8
BLACK
6
CONTINUOUS
10
150.231
20
-111.835
11
150.231
21
-112.025
0
LINE
8
BLACK
6
CONTINUOUS
10
151.564
20
-110.025
11
151.755
21
-110.025
0
LINE
8
BLACK
6
CONTINUOUS
10
151.755
20
-110.025
11
151.945
21
-110.121
0
LINE
8
BLACK
6
CONTINUOUS
10
151.945
20
-110.121
11
152.04
21
-110.216
0
LINE
8
BLACK
6
CONTINUOUS
10
152.04
20
-110.216
11
152.136
21
-110.406
0
LINE
8
BLACK
6
CONTINUOUS
10
152.136
20
-110.406
11
152.231
21
-110.787
0
LINE
8
BLACK
6
CONTINUOUS
10
152.231
20
-110.787
11
152.231
21
-111.263
0
LINE
8
BLACK
6
CONTINUOUS
10
152.231
20
-111.263
11
152.136
21
-111.644
0
LINE
8
BLACK
6
CONTINUOUS
10
152.136
20
-111.644
11
152.04
21
-111.835
0
LINE
8
BLACK
6
CONTINUOUS
10
152.04
20
-111.835
11
151.945
21
-111.93
0
LINE
8
BLACK
6
CONTINUOUS
10
151.945
20
-111.93
11
151.755
21
-112.025
0
LINE
8
BLACK
6
CONTINUOUS
10
151.755
20
-112.025
11
151.564
21
-112.025
0
LINE
8
BLACK
6
CONTINUOUS
10
151.564
20
-112.025
11
151.374
21
-111.93
0
LINE
8
BLACK
6
CONTINUOUS
10
151.374
20
-111.93
11
151.279
21
-111.835
0
LINE
8
BLACK
6
CONTINUOUS
10
151.279
20
-111.835
11
151.183
21
-111.644
0
LINE
8
BLACK
6
CONTINUOUS
10
151.183
20
-111.644
11
151.088
21
-111.263
0
LINE
8
BLACK
6
CONTINUOUS
10
151.088
20
-111.263
11
151.088
21
-110.787
0
LINE
8
BLACK
6
CONTINUOUS
10
151.088
20
-110.787
11
151.183
21
-110.406
0
LINE
8
BLACK
6
CONTINUOUS
10
151.183
20
-110.406
11
151.279
21
-110.216
0
LINE
8
BLACK
6
CONTINUOUS
10
151.279
20
-110.216
11
151.374
21
-110.121
0
LINE
8
BLACK
6
CONTINUOUS
10
151.374
20
-110.121
11
151.564
21
-110.025
0
LINE
8
BLACK
6
CONTINUOUS
10
152.898
20
-110.025
11
154.136
21
-110.025
0
LINE
8
BLACK
6
CONTINUOUS
10
154.136
20
-110.025
11
153.469
21
-110.787
0
LINE
8
BLACK
6
CONTINUOUS
10
153.469
20
-110.787
11
153.755
21
-110.787
0
LINE
8
BLACK
6
CONTINUOUS
10
153.755
20
-110.787
11
153.945
21
-110.883
0
LINE
8
BLACK
6
CONTINUOUS
10
153.945
20
-110.883
11
154.04
21
-110.978
0
LINE
8
BLACK
6
CONTINUOUS
10
154.04
20
-110.978
11
154.136
21
-111.168
0
LINE
8
BLACK
6
CONTINUOUS
10
154.136
20
-111.168
11
154.136
21
-111.644
0
LINE
8
BLACK
6
CONTINUOUS
10
154.136
20
-111.644
11
154.04
21
-111.835
0
LINE
8
BLACK
6
CONTINUOUS
10
154.04
20
-111.835
11
153.945
21
-111.93
0
LINE
8
BLACK
6
CONTINUOUS
10
153.945
20
-111.93
11
153.755
21
-112.025
0
LINE
8
BLACK
6
CONTINUOUS
10
153.755
20
-112.025
11
153.183
21
-112.025
0
LINE
8
BLACK
6
CONTINUOUS
10
153.183
20
-112.025
11
152.993
21
-111.93
0
LINE
8
BLACK
6
CONTINUOUS
10
152.993
20
-111.93
11
152.898
21
-111.835
0
LINE
8
BLACK
6
CONTINUOUS
10
155.945
20
-110.025
11
154.993
21
-110.025
0
LINE
8
BLACK
6
CONTINUOUS
10
154.993
20
-110.025
11
154.898
21
-110.978
0
LINE
8
BLACK
6
CONTINUOUS
10
154.898
20
-110.978
11
154.993
21
-110.883
0
LINE
8
BLACK
6
CONTINUOUS
10
154.993
20
-110.883
11
155.183
21
-110.787
0
LINE
8
BLACK
6
CONTINUOUS
10
155.183
20
-110.787
11
155.66
21
-110.787
0
LINE
8
BLACK
6
CONTINUOUS
10
155.66
20
-110.787
11
155.85
21
-110.883
0
LINE
8
BLACK
6
CONTINUOUS
10
155.85
20
-110.883
11
155.945
21
-110.978
0
LINE
8
BLACK
6
CONTINUOUS
10
155.945
20
-110.978
11
156.04
21
-111.168
0
LINE
8
BLACK
6
CONTINUOUS
10
156.04
20
-111.168
11
156.04
21
-111.644
0
LINE
8
BLACK
6
CONTINUOUS
10
156.04
20
-111.644
11
155.945
21
-111.835
0
LINE
8
BLACK
6
CONTINUOUS
10
155.945
20
-111.835
11
155.85
21
-111.93
0
LINE
8
BLACK
6
CONTINUOUS
10
155.85
20
-111.93
11
155.66
21
-112.025
0
LINE
8
BLACK
6
CONTINUOUS
10
155.66
20
-112.025
11
155.183
21
-112.025
0
LINE
8
BLACK
6
CONTINUOUS
10
155.183
20
-112.025
11
154.993
21
-111.93
0
LINE
8
BLACK
6
CONTINUOUS
10
154.993
20
-111.93
11
154.898
21
-111.835
0
LINE
8
BLACK
6
CONTINUOUS
10
157.279
20
-110.025
11
157.469
21
-110.025
0
LINE
8
BLACK
6
CONTINUOUS
10
157.469
20
-110.025
11
157.66
21
-110.121
0
LINE
8
BLACK
6
CONTINUOUS
10
157.66
20
-110.121
11
157.755
21
-110.216
0
LINE
8
BLACK
6
CONTINUOUS
10
157.755
20
-110.216
11
157.85
21
-110.406
0
LINE
8
BLACK
6
CONTINUOUS
10
157.85
20
-110.406
11
157.945
21
-110.787
0
LINE
8
BLACK
6
CONTINUOUS
10
157.945
20
-110.787
11
157.945
21
-111.263
0
LINE
8
BLACK
6
CONTINUOUS
10
157.945
20
-111.263
11
157.85
21
-111.644
0
LINE
8
BLACK
6
CONTINUOUS
10
157.85
20
-111.644
11
157.755
21
-111.835
0
LINE
8
BLACK
6
CONTINUOUS
10
157.755
20
-111.835
11
157.66
21
-111.93
0
LINE
8
BLACK
6
CONTINUOUS
10
157.66
20
-111.93
11
157.469
21
-112.025
0
LINE
8
BLACK
6
CONTINUOUS
10
157.469
20
-112.025
11
157.279
21
-112.025
0
LINE
8
BLACK
6
CONTINUOUS
10
157.279
20
-112.025
11
157.088
21
-111.93
0
LINE
8
BLACK
6
CONTINUOUS
10
157.088
20
-111.93
11
156.993
21
-111.835
0
LINE
8
BLACK
6
CONTINUOUS
10
156.993
20
-111.835
11
156.898
21
-111.644
0
LINE
8
BLACK
6
CONTINUOUS
10
156.898
20
-111.644
11
156.802
21
-111.263
0
LINE
8
BLACK
6
CONTINUOUS
10
156.802
20
-111.263
11
156.802
21
-110.787
0
LINE
8
BLACK
6
CONTINUOUS
10
156.802
20
-110.787
11
156.898
21
-110.406
0
LINE
8
BLACK
6
CONTINUOUS
10
156.898
20
-110.406
11
156.993
21
-110.216
0
LINE
8
BLACK
6
CONTINUOUS
10
156.993
20
-110.216
11
157.088
21
-110.121
0
LINE
8
BLACK
6
CONTINUOUS
10
157.088
20
-110.121
11
157.279
21
-110.025
0
LINE
8
BLACK
6
CONTINUOUS
10
158.707
20
-110.025
11
158.707
21
-110.406
0
LINE
8
BLACK
6
CONTINUOUS
10
159.469
20
-110.025
11
159.469
21
-110.406
0
LINE
8
BLACK
6
CONTINUOUS
10
162.098
20
-112.787
11
162.002
21
-112.692
0
LINE
8
BLACK
6
CONTINUOUS
10
162.002
20
-112.692
11
161.812
21
-112.406
0
LINE
8
BLACK
6
CONTINUOUS
10
161.812
20
-112.406
11
161.717
21
-112.216
0
LINE
8
BLACK
6
CONTINUOUS
10
161.717
20
-112.216
11
161.621
21
-111.93
0
LINE
8
BLACK
6
CONTINUOUS
10
161.621
20
-111.93
11
161.526
21
-111.454
0
LINE
8
BLACK
6
CONTINUOUS
10
161.526
20
-111.454
11
161.526
21
-111.073
0
LINE
8
BLACK
6
CONTINUOUS
10
161.526
20
-111.073
11
161.621
21
-110.597
0
LINE
8
BLACK
6
CONTINUOUS
10
161.621
20
-110.597
11
161.717
21
-110.311
0
LINE
8
BLACK
6
CONTINUOUS
10
161.717
20
-110.311
11
161.812
21
-110.121
0
LINE
8
BLACK
6
CONTINUOUS
10
161.812
20
-110.121
11
162.002
21
-109.835
0
LINE
8
BLACK
6
CONTINUOUS
10
162.002
20
-109.835
11
162.098
21
-109.74
0
LINE
8
BLACK
6
CONTINUOUS
10
163.907
20
-112.025
11
162.764
21
-112.025
0
LINE
8
BLACK
6
CONTINUOUS
10
163.336
20
-112.025
11
163.336
21
-110.025
0
LINE
8
BLACK
6
CONTINUOUS
10
163.336
20
-110.025
11
163.145
21
-110.311
0
LINE
8
BLACK
6
CONTINUOUS
10
163.145
20
-110.311
11
162.955
21
-110.502
0
LINE
8
BLACK
6
CONTINUOUS
10
162.955
20
-110.502
11
162.764
21
-110.597
0
LINE
8
BLACK
6
CONTINUOUS
10
164.669
20
-110.216
11
164.764
21
-110.121
0
LINE
8
BLACK
6
CONTINUOUS
10
164.764
20
-110.121
11
164.955
21
-110.025
0
LINE
8
BLACK
6
CONTINUOUS
10
164.955
20
-110.025
11
165.431
21
-110.025
0
LINE
8
BLACK
6
CONTINUOUS
10
165.431
20
-110.025
11
165.621
21
-110.121
0
LINE
8
BLACK
6
CONTINUOUS
10
165.621
20
-110.121
11
165.717
21
-110.216
0
LINE
8
BLACK
6
CONTINUOUS
10
165.717
20
-110.216
11
165.812
21
-110.406
0
LINE
8
BLACK
6
CONTINUOUS
10
165.812
20
-110.406
11
165.812
21
-110.597
0
LINE
8
BLACK
6
CONTINUOUS
10
165.812
20
-110.597
11
165.717
21
-110.883
0
LINE
8
BLACK
6
CONTINUOUS
10
165.717
20
-110.883
11
164.574
21
-112.025
0
LINE
8
BLACK
6
CONTINUOUS
10
164.574
20
-112.025
11
165.812
21
-112.025
0
LINE
8
BLACK
6
CONTINUOUS
10
167.869
20
-112.025
11
167.869
21
-110.025
0
LINE
8
BLACK
6
CONTINUOUS
10
168.726
20
-112.025
11
168.726
21
-110.978
0
LINE
8
BLACK
6
CONTINUOUS
10
168.726
20
-110.978
11
168.631
21
-110.787
0
LINE
8
BLACK
6
CONTINUOUS
10
168.631
20
-110.787
11
168.44
21
-110.692
0
LINE
8
BLACK
6
CONTINUOUS
10
168.44
20
-110.692
11
168.155
21
-110.692
0
LINE
8
BLACK
6
CONTINUOUS
10
168.155
20
-110.692
11
167.964
21
-110.787
0
LINE
8
BLACK
6
CONTINUOUS
10
167.964
20
-110.787
11
167.869
21
-110.883
0
LINE
8
BLACK
6
CONTINUOUS
10
169.964
20
-112.025
11
169.774
21
-111.93
0
LINE
8
BLACK
6
CONTINUOUS
10
169.774
20
-111.93
11
169.679
21
-111.835
0
LINE
8
BLACK
6
CONTINUOUS
10
169.679
20
-111.835
11
169.583
21
-111.644
0
LINE
8
BLACK
6
CONTINUOUS
10
169.583
20
-111.644
11
169.583
21
-111.073
0
LINE
8
BLACK
6
CONTINUOUS
10
169.583
20
-111.073
11
169.679
21
-110.883
0
LINE
8
BLACK
6
CONTINUOUS
10
169.679
20
-110.883
11
169.774
21
-110.787
0
LINE
8
BLACK
6
CONTINUOUS
10
169.774
20
-110.787
11
169.964
21
-110.692
0
LINE
8
BLACK
6
CONTINUOUS
10
169.964
20
-110.692
11
170.25
21
-110.692
0
LINE
8
BLACK
6
CONTINUOUS
10
170.25
20
-110.692
11
170.44
21
-110.787
0
LINE
8
BLACK
6
CONTINUOUS
10
170.44
20
-110.787
11
170.536
21
-110.883
0
LINE
8
BLACK
6
CONTINUOUS
10
170.536
20
-110.883
11
170.631
21
-111.073
0
LINE
8
BLACK
6
CONTINUOUS
10
170.631
20
-111.073
11
170.631
21
-111.644
0
LINE
8
BLACK
6
CONTINUOUS
10
170.631
20
-111.644
11
170.536
21
-111.835
0
LINE
8
BLACK
6
CONTINUOUS
10
170.536
20
-111.835
11
170.44
21
-111.93
0
LINE
8
BLACK
6
CONTINUOUS
10
170.44
20
-111.93
11
170.25
21
-112.025
0
LINE
8
BLACK
6
CONTINUOUS
10
170.25
20
-112.025
11
169.964
21
-112.025
0
LINE
8
BLACK
6
CONTINUOUS
10
171.774
20
-112.025
11
171.583
21
-111.93
0
LINE
8
BLACK
6
CONTINUOUS
10
171.583
20
-111.93
11
171.488
21
-111.74
0
LINE
8
BLACK
6
CONTINUOUS
10
171.488
20
-111.74
11
171.488
21
-110.025
0
LINE
8
BLACK
6
CONTINUOUS
10
173.298
20
-111.93
11
173.107
21
-112.025
0
LINE
8
BLACK
6
CONTINUOUS
10
173.107
20
-112.025
11
172.726
21
-112.025
0
LINE
8
BLACK
6
CONTINUOUS
10
172.726
20
-112.025
11
172.536
21
-111.93
0
LINE
8
BLACK
6
CONTINUOUS
10
172.536
20
-111.93
11
172.44
21
-111.74
0
LINE
8
BLACK
6
CONTINUOUS
10
172.44
20
-111.74
11
172.44
21
-110.978
0
LINE
8
BLACK
6
CONTINUOUS
10
172.44
20
-110.978
11
172.536
21
-110.787
0
LINE
8
BLACK
6
CONTINUOUS
10
172.536
20
-110.787
11
172.726
21
-110.692
0
LINE
8
BLACK
6
CONTINUOUS
10
172.726
20
-110.692
11
173.107
21
-110.692
0
LINE
8
BLACK
6
CONTINUOUS
10
173.107
20
-110.692
11
173.298
21
-110.787
0
LINE
8
BLACK
6
CONTINUOUS
10
173.298
20
-110.787
11
173.393
21
-110.978
0
LINE
8
BLACK
6
CONTINUOUS
10
173.393
20
-110.978
11
173.393
21
-111.168
0
LINE
8
BLACK
6
CONTINUOUS
10
173.393
20
-111.168
11
172.44
21
-111.359
0
LINE
8
BLACK
6
CONTINUOUS
10
174.155
20
-111.93
11
174.345
21
-112.025
0
LINE
8
BLACK
6
CONTINUOUS
10
174.345
20
-112.025
11
174.726
21
-112.025
0
LINE
8
BLACK
6
CONTINUOUS
10
174.726
20
-112.025
11
174.917
21
-111.93
0
LINE
8
BLACK
6
CONTINUOUS
10
174.917
20
-111.93
11
175.012
21
-111.74
0
LINE
8
BLACK
6
CONTINUOUS
10
175.012
20
-111.74
11
175.012
21
-111.644
0
LINE
8
BLACK
6
CONTINUOUS
10
175.012
20
-111.644
11
174.917
21
-111.454
0
LINE
8
BLACK
6
CONTINUOUS
10
174.917
20
-111.454
11
174.726
21
-111.359
0
LINE
8
BLACK
6
CONTINUOUS
10
174.726
20
-111.359
11
174.44
21
-111.359
0
LINE
8
BLACK
6
CONTINUOUS
10
174.44
20
-111.359
11
174.25
21
-111.263
0
LINE
8
BLACK
6
CONTINUOUS
10
174.25
20
-111.263
11
174.155
21
-111.073
0
LINE
8
BLACK
6
CONTINUOUS
10
174.155
20
-111.073
11
174.155
21
-110.978
0
LINE
8
BLACK
6
CONTINUOUS
10
174.155
20
-110.978
11
174.25
21
-110.787
0
LINE
8
BLACK
6
CONTINUOUS
10
174.25
20
-110.787
11
174.44
21
-110.692
0
LINE
8
BLACK
6
CONTINUOUS
10
174.44
20
-110.692
11
174.726
21
-110.692
0
LINE
8
BLACK
6
CONTINUOUS
10
174.726
20
-110.692
11
174.917
21
-110.787
0
LINE
8
BLACK
6
CONTINUOUS
10
175.679
20
-112.787
11
175.774
21
-112.692
0
LINE
8
BLACK
6
CONTINUOUS
10
175.774
20
-112.692
11
175.964
21
-112.406
0
LINE
8
BLACK
6
CONTINUOUS
10
175.964
20
-112.406
11
176.06
21
-112.216
0
LINE
8
BLACK
6
CONTINUOUS
10
176.06
20
-112.216
11
176.155
21
-111.93
0
LINE
8
BLACK
6
CONTINUOUS
10
176.155
20
-111.93
11
176.25
21
-111.454
0
LINE
8
BLACK
6
CONTINUOUS
10
176.25
20
-111.454
11
176.25
21
-111.073
0
LINE
8
BLACK
6
CONTINUOUS
10
176.25
20
-111.073
11
176.155
21
-110.597
0
LINE
8
BLACK
6
CONTINUOUS
10
176.155
20
-110.597
11
176.06
21
-110.311
0
LINE
8
BLACK
6
CONTINUOUS
10
176.06
20
-110.311
11
175.964
21
-110.121
0
LINE
8
BLACK
6
CONTINUOUS
10
175.964
20
-110.121
11
175.774
21
-109.835
0
LINE
8
BLACK
6
CONTINUOUS
10
175.774
20
-109.835
11
175.679
21
-109.74
0
CIRCLE
8
BLACK
10
126.95
20
-113.931
40
0.5
0
LINE
8
BLACK
6
CONTINUOUS
10
130.974
20
-114.665
11
129.831
21
-114.665
0
LINE
8
BLACK
6
CONTINUOUS
10
130.402
20
-114.665
11
130.402
21
-112.665
0
LINE
8
BLACK
6
CONTINUOUS
10
130.402
20
-112.665
11
130.212
21
-112.951
0
LINE
8
BLACK
6
CONTINUOUS
10
130.212
20
-112.951
11
130.021
21
-113.142
0
LINE
8
BLACK
6
CONTINUOUS
10
130.021
20
-113.142
11
129.831
21
-113.237
0
LINE
8
BLACK
6
CONTINUOUS
10
131.831
20
-114.475
11
131.926
21
-114.57
0
LINE
8
BLACK
6
CONTINUOUS
10
131.926
20
-114.57
11
131.831
21
-114.665
0
LINE
8
BLACK
6
CONTINUOUS
10
131.831
20
-114.665
11
131.736
21
-114.57
0
LINE
8
BLACK
6
CONTINUOUS
10
131.736
20
-114.57
11
131.831
21
-114.475
0
LINE
8
BLACK
6
CONTINUOUS
10
131.831
20
-114.475
11
131.831
21
-114.665
0
LINE
8
BLACK
6
CONTINUOUS
10
133.164
20
-112.665
11
133.355
21
-112.665
0
LINE
8
BLACK
6
CONTINUOUS
10
133.355
20
-112.665
11
133.545
21
-112.761
0
LINE
8
BLACK
6
CONTINUOUS
10
133.545
20
-112.761
11
133.64
21
-112.856
0
LINE
8
BLACK
6
CONTINUOUS
10
133.64
20
-112.856
11
133.736
21
-113.046
0
LINE
8
BLACK
6
CONTINUOUS
10
133.736
20
-113.046
11
133.831
21
-113.427
0
LINE
8
BLACK
6
CONTINUOUS
10
133.831
20
-113.427
11
133.831
21
-113.903
0
LINE
8
BLACK
6
CONTINUOUS
10
133.831
20
-113.903
11
133.736
21
-114.284
0
LINE
8
BLACK
6
CONTINUOUS
10
133.736
20
-114.284
11
133.64
21
-114.475
0
LINE
8
BLACK
6
CONTINUOUS
10
133.64
20
-114.475
11
133.545
21
-114.57
0
LINE
8
BLACK
6
CONTINUOUS
10
133.545
20
-114.57
11
133.355
21
-114.665
0
LINE
8
BLACK
6
CONTINUOUS
10
133.355
20
-114.665
11
133.164
21
-114.665
0
LINE
8
BLACK
6
CONTINUOUS
10
133.164
20
-114.665
11
132.974
21
-114.57
0
LINE
8
BLACK
6
CONTINUOUS
10
132.974
20
-114.57
11
132.879
21
-114.475
0
LINE
8
BLACK
6
CONTINUOUS
10
132.879
20
-114.475
11
132.783
21
-114.284
0
LINE
8
BLACK
6
CONTINUOUS
10
132.783
20
-114.284
11
132.688
21
-113.903
0
LINE
8
BLACK
6
CONTINUOUS
10
132.688
20
-113.903
11
132.688
21
-113.427
0
LINE
8
BLACK
6
CONTINUOUS
10
132.688
20
-113.427
11
132.783
21
-113.046
0
LINE
8
BLACK
6
CONTINUOUS
10
132.783
20
-113.046
11
132.879
21
-112.856
0
LINE
8
BLACK
6
CONTINUOUS
10
132.879
20
-112.856
11
132.974
21
-112.761
0
LINE
8
BLACK
6
CONTINUOUS
10
132.974
20
-112.761
11
133.164
21
-112.665
0
LINE
8
BLACK
6
CONTINUOUS
10
135.069
20
-112.665
11
135.26
21
-112.665
0
LINE
8
BLACK
6
CONTINUOUS
10
135.26
20
-112.665
11
135.45
21
-112.761
0
LINE
8
BLACK
6
CONTINUOUS
10
135.45
20
-112.761
11
135.545
21
-112.856
0
LINE
8
BLACK
6
CONTINUOUS
10
135.545
20
-112.856
11
135.64
21
-113.046
0
LINE
8
BLACK
6
CONTINUOUS
10
135.64
20
-113.046
11
135.736
21
-113.427
0
LINE
8
BLACK
6
CONTINUOUS
10
135.736
20
-113.427
11
135.736
21
-113.903
0
LINE
8
BLACK
6
CONTINUOUS
10
135.736
20
-113.903
11
135.64
21
-114.284
0
LINE
8
BLACK
6
CONTINUOUS
10
135.64
20
-114.284
11
135.545
21
-114.475
0
LINE
8
BLACK
6
CONTINUOUS
10
135.545
20
-114.475
11
135.45
21
-114.57
0
LINE
8
BLACK
6
CONTINUOUS
10
135.45
20
-114.57
11
135.26
21
-114.665
0
LINE
8
BLACK
6
CONTINUOUS
10
135.26
20
-114.665
11
135.069
21
-114.665
0
LINE
8
BLACK
6
CONTINUOUS
10
135.069
20
-114.665
11
134.879
21
-114.57
0
LINE
8
BLACK
6
CONTINUOUS
10
134.879
20
-114.57
11
134.783
21
-114.475
0
LINE
8
BLACK
6
CONTINUOUS
10
134.783
20
-114.475
11
134.688
21
-114.284
0
LINE
8
BLACK
6
CONTINUOUS
10
134.688
20
-114.284
11
134.593
21
-113.903
0
LINE
8
BLACK
6
CONTINUOUS
10
134.593
20
-113.903
11
134.593
21
-113.427
0
LINE
8
BLACK
6
CONTINUOUS
10
134.593
20
-113.427
11
134.688
21
-113.046
0
LINE
8
BLACK
6
CONTINUOUS
10
134.688
20
-113.046
11
134.783
21
-112.856
0
LINE
8
BLACK
6
CONTINUOUS
10
134.783
20
-112.856
11
134.879
21
-112.761
0
LINE
8
BLACK
6
CONTINUOUS
10
134.879
20
-112.761
11
135.069
21
-112.665
0
LINE
8
BLACK
6
CONTINUOUS
10
136.974
20
-112.665
11
137.164
21
-112.665
0
LINE
8
BLACK
6
CONTINUOUS
10
137.164
20
-112.665
11
137.355
21
-112.761
0
LINE
8
BLACK
6
CONTINUOUS
10
137.355
20
-112.761
11
137.45
21
-112.856
0
LINE
8
BLACK
6
CONTINUOUS
10
137.45
20
-112.856
11
137.545
21
-113.046
0
LINE
8
BLACK
6
CONTINUOUS
10
137.545
20
-113.046
11
137.64
21
-113.427
0
LINE
8
BLACK
6
CONTINUOUS
10
137.64
20
-113.427
11
137.64
21
-113.903
0
LINE
8
BLACK
6
CONTINUOUS
10
137.64
20
-113.903
11
137.545
21
-114.284
0
LINE
8
BLACK
6
CONTINUOUS
10
137.545
20
-114.284
11
137.45
21
-114.475
0
LINE
8
BLACK
6
CONTINUOUS
10
137.45
20
-114.475
11
137.355
21
-114.57
0
LINE
8
BLACK
6
CONTINUOUS
10
137.355
20
-114.57
11
137.164
21
-114.665
0
LINE
8
BLACK
6
CONTINUOUS
10
137.164
20
-114.665
11
136.974
21
-114.665
0
LINE
8
BLACK
6
CONTINUOUS
10
136.974
20
-114.665
11
136.783
21
-114.57
0
LINE
8
BLACK
6
CONTINUOUS
10
136.783
20
-114.57
11
136.688
21
-114.475
0
LINE
8
BLACK
6
CONTINUOUS
10
136.688
20
-114.475
11
136.593
21
-114.284
0
LINE
8
BLACK
6
CONTINUOUS
10
136.593
20
-114.284
11
136.498
21
-113.903
0
LINE
8
BLACK
6
CONTINUOUS
10
136.498
20
-113.903
11
136.498
21
-113.427
0
LINE
8
BLACK
6
CONTINUOUS
10
136.498
20
-113.427
11
136.593
21
-113.046
0
LINE
8
BLACK
6
CONTINUOUS
10
136.593
20
-113.046
11
136.688
21
-112.856
0
LINE
8
BLACK
6
CONTINUOUS
10
136.688
20
-112.856
11
136.783
21
-112.761
0
LINE
8
BLACK
6
CONTINUOUS
10
136.783
20
-112.761
11
136.974
21
-112.665
0
LINE
8
BLACK
6
CONTINUOUS
10
138.498
20
-114.665
11
138.498
21
-113.332
0
LINE
8
BLACK
6
CONTINUOUS
10
138.498
20
-113.523
11
138.593
21
-113.427
0
LINE
8
BLACK
6
CONTINUOUS
10
138.593
20
-113.427
11
138.783
21
-113.332
0
LINE
8
BLACK
6
CONTINUOUS
10
138.783
20
-113.332
11
139.069
21
-113.332
0
LINE
8
BLACK
6
CONTINUOUS
10
139.069
20
-113.332
11
139.26
21
-113.427
0
LINE
8
BLACK
6
CONTINUOUS
10
139.26
20
-113.427
11
139.355
21
-113.618
0
LINE
8
BLACK
6
CONTINUOUS
10
139.355
20
-113.618
11
139.355
21
-114.665
0
LINE
8
BLACK
6
CONTINUOUS
10
139.355
20
-113.618
11
139.45
21
-113.427
0
LINE
8
BLACK
6
CONTINUOUS
10
139.45
20
-113.427
11
139.64
21
-113.332
0
LINE
8
BLACK
6
CONTINUOUS
10
139.64
20
-113.332
11
139.926
21
-113.332
0
LINE
8
BLACK
6
CONTINUOUS
10
139.926
20
-113.332
11
140.117
21
-113.427
0
LINE
8
BLACK
6
CONTINUOUS
10
140.117
20
-113.427
11
140.212
21
-113.618
0
LINE
8
BLACK
6
CONTINUOUS
10
140.212
20
-113.618
11
140.212
21
-114.665
0
LINE
8
BLACK
6
CONTINUOUS
10
141.164
20
-114.665
11
141.164
21
-113.332
0
LINE
8
BLACK
6
CONTINUOUS
10
141.164
20
-113.523
11
141.26
21
-113.427
0
LINE
8
BLACK
6
CONTINUOUS
10
141.26
20
-113.427
11
141.45
21
-113.332
0
LINE
8
BLACK
6
CONTINUOUS
10
141.45
20
-113.332
11
141.736
21
-113.332
0
LINE
8
BLACK
6
CONTINUOUS
10
141.736
20
-113.332
11
141.926
21
-113.427
0
LINE
8
BLACK
6
CONTINUOUS
10
141.926
20
-113.427
11
142.021
21
-113.618
0
LINE
8
BLACK
6
CONTINUOUS
10
142.021
20
-113.618
11
142.021
21
-114.665
0
LINE
8
BLACK
6
CONTINUOUS
10
142.021
20
-113.618
11
142.117
21
-113.427
0
LINE
8
BLACK
6
CONTINUOUS
10
142.117
20
-113.427
11
142.307
21
-113.332
0
LINE
8
BLACK
6
CONTINUOUS
10
142.307
20
-113.332
11
142.593
21
-113.332
0
LINE
8
BLACK
6
CONTINUOUS
10
142.593
20
-113.332
11
142.783
21
-113.427
0
LINE
8
BLACK
6
CONTINUOUS
10
142.783
20
-113.427
11
142.879
21
-113.618
0
LINE
8
BLACK
6
CONTINUOUS
10
142.879
20
-113.618
11
142.879
21
-114.665
0
LINE
8
BLACK
6
CONTINUOUS
10
146.46
20
-112.57
11
144.745
21
-115.142
0
LINE
8
BLACK
6
CONTINUOUS
10
148.707
20
-112.665
11
148.898
21
-112.665
0
LINE
8
BLACK
6
CONTINUOUS
10
148.898
20
-112.665
11
149.088
21
-112.761
0
LINE
8
BLACK
6
CONTINUOUS
10
149.088
20
-112.761
11
149.183
21
-112.856
0
LINE
8
BLACK
6
CONTINUOUS
10
149.183
20
-112.856
11
149.279
21
-113.046
0
LINE
8
BLACK
6
CONTINUOUS
10
149.279
20
-113.046
11
149.374
21
-113.427
0
LINE
8
BLACK
6
CONTINUOUS
10
149.374
20
-113.427
11
149.374
21
-113.903
0
LINE
8
BLACK
6
CONTINUOUS
10
149.374
20
-113.903
11
149.279
21
-114.284
0
LINE
8
BLACK
6
CONTINUOUS
10
149.279
20
-114.284
11
149.183
21
-114.475
0
LINE
8
BLACK
6
CONTINUOUS
10
149.183
20
-114.475
11
149.088
21
-114.57
0
LINE
8
BLACK
6
CONTINUOUS
10
149.088
20
-114.57
11
148.898
21
-114.665
0
LINE
8
BLACK
6
CONTINUOUS
10
148.898
20
-114.665
11
148.707
21
-114.665
0
LINE
8
BLACK
6
CONTINUOUS
10
148.707
20
-114.665
11
148.517
21
-114.57
0
LINE
8
BLACK
6
CONTINUOUS
10
148.517
20
-114.57
11
148.421
21
-114.475
0
LINE
8
BLACK
6
CONTINUOUS
10
148.421
20
-114.475
11
148.326
21
-114.284
0
LINE
8
BLACK
6
CONTINUOUS
10
148.326
20
-114.284
11
148.231
21
-113.903
0
LINE
8
BLACK
6
CONTINUOUS
10
148.231
20
-113.903
11
148.231
21
-113.427
0
LINE
8
BLACK
6
CONTINUOUS
10
148.231
20
-113.427
11
148.326
21
-113.046
0
LINE
8
BLACK
6
CONTINUOUS
10
148.326
20
-113.046
11
148.421
21
-112.856
0
LINE
8
BLACK
6
CONTINUOUS
10
148.421
20
-112.856
11
148.517
21
-112.761
0
LINE
8
BLACK
6
CONTINUOUS
10
148.517
20
-112.761
11
148.707
21
-112.665
0
LINE
8
BLACK
6
CONTINUOUS
10
150.231
20
-114.475
11
150.326
21
-114.57
0
LINE
8
BLACK
6
CONTINUOUS
10
150.326
20
-114.57
11
150.231
21
-114.665
0
LINE
8
BLACK
6
CONTINUOUS
10
150.231
20
-114.665
11
150.136
21
-114.57
0
LINE
8
BLACK
6
CONTINUOUS
10
150.136
20
-114.57
11
150.231
21
-114.475
0
LINE
8
BLACK
6
CONTINUOUS
10
150.231
20
-114.475
11
150.231
21
-114.665
0
LINE
8
BLACK
6
CONTINUOUS
10
151.564
20
-112.665
11
151.755
21
-112.665
0
LINE
8
BLACK
6
CONTINUOUS
10
151.755
20
-112.665
11
151.945
21
-112.761
0
LINE
8
BLACK
6
CONTINUOUS
10
151.945
20
-112.761
11
152.04
21
-112.856
0
LINE
8
BLACK
6
CONTINUOUS
10
152.04
20
-112.856
11
152.136
21
-113.046
0
LINE
8
BLACK
6
CONTINUOUS
10
152.136
20
-113.046
11
152.231
21
-113.427
0
LINE
8
BLACK
6
CONTINUOUS
10
152.231
20
-113.427
11
152.231
21
-113.903
0
LINE
8
BLACK
6
CONTINUOUS
10
152.231
20
-113.903
11
152.136
21
-114.284
0
LINE
8
BLACK
6
CONTINUOUS
10
152.136
20
-114.284
11
152.04
21
-114.475
0
LINE
8
BLACK
6
CONTINUOUS
10
152.04
20
-114.475
11
151.945
21
-114.57
0
LINE
8
BLACK
6
CONTINUOUS
10
151.945
20
-114.57
11
151.755
21
-114.665
0
LINE
8
BLACK
6
CONTINUOUS
10
151.755
20
-114.665
11
151.564
21
-114.665
0
LINE
8
BLACK
6
CONTINUOUS
10
151.564
20
-114.665
11
151.374
21
-114.57
0
LINE
8
BLACK
6
CONTINUOUS
10
151.374
20
-114.57
11
151.279
21
-114.475
0
LINE
8
BLACK
6
CONTINUOUS
10
151.279
20
-114.475
11
151.183
21
-114.284
0
LINE
8
BLACK
6
CONTINUOUS
10
151.183
20
-114.284
11
151.088
21
-113.903
0
LINE
8
BLACK
6
CONTINUOUS
10
151.088
20
-113.903
11
151.088
21
-113.427
0
LINE
8
BLACK
6
CONTINUOUS
10
151.088
20
-113.427
11
151.183
21
-113.046
0
LINE
8
BLACK
6
CONTINUOUS
10
151.183
20
-113.046
11
151.279
21
-112.856
0
LINE
8
BLACK
6
CONTINUOUS
10
151.279
20
-112.856
11
151.374
21
-112.761
0
LINE
8
BLACK
6
CONTINUOUS
10
151.374
20
-112.761
11
151.564
21
-112.665
0
LINE
8
BLACK
6
CONTINUOUS
10
152.898
20
-112.665
11
154.136
21
-112.665
0
LINE
8
BLACK
6
CONTINUOUS
10
154.136
20
-112.665
11
153.469
21
-113.427
0
LINE
8
BLACK
6
CONTINUOUS
10
153.469
20
-113.427
11
153.755
21
-113.427
0
LINE
8
BLACK
6
CONTINUOUS
10
153.755
20
-113.427
11
153.945
21
-113.523
0
LINE
8
BLACK
6
CONTINUOUS
10
153.945
20
-113.523
11
154.04
21
-113.618
0
LINE
8
BLACK
6
CONTINUOUS
10
154.04
20
-113.618
11
154.136
21
-113.808
0
LINE
8
BLACK
6
CONTINUOUS
10
154.136
20
-113.808
11
154.136
21
-114.284
0
LINE
8
BLACK
6
CONTINUOUS
10
154.136
20
-114.284
11
154.04
21
-114.475
0
LINE
8
BLACK
6
CONTINUOUS
10
154.04
20
-114.475
11
153.945
21
-114.57
0
LINE
8
BLACK
6
CONTINUOUS
10
153.945
20
-114.57
11
153.755
21
-114.665
0
LINE
8
BLACK
6
CONTINUOUS
10
153.755
20
-114.665
11
153.183
21
-114.665
0
LINE
8
BLACK
6
CONTINUOUS
10
153.183
20
-114.665
11
152.993
21
-114.57
0
LINE
8
BLACK
6
CONTINUOUS
10
152.993
20
-114.57
11
152.898
21
-114.475
0
LINE
8
BLACK
6
CONTINUOUS
10
155.088
20
-114.665
11
155.469
21
-114.665
0
LINE
8
BLACK
6
CONTINUOUS
10
155.469
20
-114.665
11
155.66
21
-114.57
0
LINE
8
BLACK
6
CONTINUOUS
10
155.66
20
-114.57
11
155.755
21
-114.475
0
LINE
8
BLACK
6
CONTINUOUS
10
155.755
20
-114.475
11
155.945
21
-114.189
0
LINE
8
BLACK
6
CONTINUOUS
10
155.945
20
-114.189
11
156.04
21
-113.808
0
LINE
8
BLACK
6
CONTINUOUS
10
156.04
20
-113.808
11
156.04
21
-113.046
0
LINE
8
BLACK
6
CONTINUOUS
10
156.04
20
-113.046
11
155.945
21
-112.856
0
LINE
8
BLACK
6
CONTINUOUS
10
155.945
20
-112.856
11
155.85
21
-112.761
0
LINE
8
BLACK
6
CONTINUOUS
10
155.85
20
-112.761
11
155.66
21
-112.665
0
LINE
8
BLACK
6
CONTINUOUS
10
155.66
20
-112.665
11
155.279
21
-112.665
0
LINE
8
BLACK
6
CONTINUOUS
10
155.279
20
-112.665
11
155.088
21
-112.761
0
LINE
8
BLACK
6
CONTINUOUS
10
155.088
20
-112.761
11
154.993
21
-112.856
0
LINE
8
BLACK
6
CONTINUOUS
10
154.993
20
-112.856
11
154.898
21
-113.046
0
LINE
8
BLACK
6
CONTINUOUS
10
154.898
20
-113.046
11
154.898
21
-113.523
0
LINE
8
BLACK
6
CONTINUOUS
10
154.898
20
-113.523
11
154.993
21
-113.713
0
LINE
8
BLACK
6
CONTINUOUS
10
154.993
20
-113.713
11
155.088
21
-113.808
0
LINE
8
BLACK
6
CONTINUOUS
10
155.088
20
-113.808
11
155.279
21
-113.903
0
LINE
8
BLACK
6
CONTINUOUS
10
155.279
20
-113.903
11
155.66
21
-113.903
0
LINE
8
BLACK
6
CONTINUOUS
10
155.66
20
-113.903
11
155.85
21
-113.808
0
LINE
8
BLACK
6
CONTINUOUS
10
155.85
20
-113.808
11
155.945
21
-113.713
0
LINE
8
BLACK
6
CONTINUOUS
10
155.945
20
-113.713
11
156.04
21
-113.523
0
LINE
8
BLACK
6
CONTINUOUS
10
157.755
20
-113.332
11
157.755
21
-114.665
0
LINE
8
BLACK
6
CONTINUOUS
10
157.279
20
-112.57
11
156.802
21
-113.999
0
LINE
8
BLACK
6
CONTINUOUS
10
156.802
20
-113.999
11
158.04
21
-113.999
0
LINE
8
BLACK
6
CONTINUOUS
10
158.707
20
-112.665
11
158.707
21
-113.046
0
LINE
8
BLACK
6
CONTINUOUS
10
159.469
20
-112.665
11
159.469
21
-113.046
0
LINE
8
BLACK
6
CONTINUOUS
10
162.098
20
-115.427
11
162.002
21
-115.332
0
LINE
8
BLACK
6
CONTINUOUS
10
162.002
20
-115.332
11
161.812
21
-115.046
0
LINE
8
BLACK
6
CONTINUOUS
10
161.812
20
-115.046
11
161.717
21
-114.856
0
LINE
8
BLACK
6
CONTINUOUS
10
161.717
20
-114.856
11
161.621
21
-114.57
0
LINE
8
BLACK
6
CONTINUOUS
10
161.621
20
-114.57
11
161.526
21
-114.094
0
LINE
8
BLACK
6
CONTINUOUS
10
161.526
20
-114.094
11
161.526
21
-113.713
0
LINE
8
BLACK
6
CONTINUOUS
10
161.526
20
-113.713
11
161.621
21
-113.237
0
LINE
8
BLACK
6
CONTINUOUS
10
161.621
20
-113.237
11
161.717
21
-112.951
0
LINE
8
BLACK
6
CONTINUOUS
10
161.717
20
-112.951
11
161.812
21
-112.761
0
LINE
8
BLACK
6
CONTINUOUS
10
161.812
20
-112.761
11
162.002
21
-112.475
0
LINE
8
BLACK
6
CONTINUOUS
10
162.002
20
-112.475
11
162.098
21
-112.38
0
LINE
8
BLACK
6
CONTINUOUS
10
163.717
20
-113.332
11
163.717
21
-114.665
0
LINE
8
BLACK
6
CONTINUOUS
10
163.24
20
-112.57
11
162.764
21
-113.999
0
LINE
8
BLACK
6
CONTINUOUS
10
162.764
20
-113.999
11
164.002
21
-113.999
0
LINE
8
BLACK
6
CONTINUOUS
10
165.964
20
-114.665
11
165.964
21
-112.665
0
LINE
8
BLACK
6
CONTINUOUS
10
166.821
20
-114.665
11
166.821
21
-113.618
0
LINE
8
BLACK
6
CONTINUOUS
10
166.821
20
-113.618
11
166.726
21
-113.427
0
LINE
8
BLACK
6
CONTINUOUS
10
166.726
20
-113.427
11
166.536
21
-113.332
0
LINE
8
BLACK
6
CONTINUOUS
10
166.536
20
-113.332
11
166.25
21
-113.332
0
LINE
8
BLACK
6
CONTINUOUS
10
166.25
20
-113.332
11
166.06
21
-113.427
0
LINE
8
BLACK
6
CONTINUOUS
10
166.06
20
-113.427
11
165.964
21
-113.523
0
LINE
8
BLACK
6
CONTINUOUS
10
168.06
20
-114.665
11
167.869
21
-114.57
0
LINE
8
BLACK
6
CONTINUOUS
10
167.869
20
-114.57
11
167.774
21
-114.475
0
LINE
8
BLACK
6
CONTINUOUS
10
167.774
20
-114.475
11
167.679
21
-114.284
0
LINE
8
BLACK
6
CONTINUOUS
10
167.679
20
-114.284
11
167.679
21
-113.713
0
LINE
8
BLACK
6
CONTINUOUS
10
167.679
20
-113.713
11
167.774
21
-113.523
0
LINE
8
BLACK
6
CONTINUOUS
10
167.774
20
-113.523
11
167.869
21
-113.427
0
LINE
8
BLACK
6
CONTINUOUS
10
167.869
20
-113.427
11
168.06
21
-113.332
0
LINE
8
BLACK
6
CONTINUOUS
10
168.06
20
-113.332
11
168.345
21
-113.332
0
LINE
8
BLACK
6
CONTINUOUS
10
168.345
20
-113.332
11
168.536
21
-113.427
0
LINE
8
BLACK
6
CONTINUOUS
10
168.536
20
-113.427
11
168.631
21
-113.523
0
LINE
8
BLACK
6
CONTINUOUS
10
168.631
20
-113.523
11
168.726
21
-113.713
0
LINE
8
BLACK
6
CONTINUOUS
10
168.726
20
-113.713
11
168.726
21
-114.284
0
LINE
8
BLACK
6
CONTINUOUS
10
168.726
20
-114.284
11
168.631
21
-114.475
0
LINE
8
BLACK
6
CONTINUOUS
10
168.631
20
-114.475
11
168.536
21
-114.57
0
LINE
8
BLACK
6
CONTINUOUS
10
168.536
20
-114.57
11
168.345
21
-114.665
0
LINE
8
BLACK
6
CONTINUOUS
10
168.345
20
-114.665
11
168.06
21
-114.665
0
LINE
8
BLACK
6
CONTINUOUS
10
169.869
20
-114.665
11
169.679
21
-114.57
0
LINE
8
BLACK
6
CONTINUOUS
10
169.679
20
-114.57
11
169.583
21
-114.38
0
LINE
8
BLACK
6
CONTINUOUS
10
169.583
20
-114.38
11
169.583
21
-112.665
0
LINE
8
BLACK
6
CONTINUOUS
10
171.393
20
-114.57
11
171.202
21
-114.665
0
LINE
8
BLACK
6
CONTINUOUS
10
171.202
20
-114.665
11
170.821
21
-114.665
0
LINE
8
BLACK
6
CONTINUOUS
10
170.821
20
-114.665
11
170.631
21
-114.57
0
LINE
8
BLACK
6
CONTINUOUS
10
170.631
20
-114.57
11
170.536
21
-114.38
0
LINE
8
BLACK
6
CONTINUOUS
10
170.536
20
-114.38
11
170.536
21
-113.618
0
LINE
8
BLACK
6
CONTINUOUS
10
170.536
20
-113.618
11
170.631
21
-113.427
0
LINE
8
BLACK
6
CONTINUOUS
10
170.631
20
-113.427
11
170.821
21
-113.332
0
LINE
8
BLACK
6
CONTINUOUS
10
170.821
20
-113.332
11
171.202
21
-113.332
0
LINE
8
BLACK
6
CONTINUOUS
10
171.202
20
-113.332
11
171.393
21
-113.427
0
LINE
8
BLACK
6
CONTINUOUS
10
171.393
20
-113.427
11
171.488
21
-113.618
0
LINE
8
BLACK
6
CONTINUOUS
10
171.488
20
-113.618
11
171.488
21
-113.808
0
LINE
8
BLACK
6
CONTINUOUS
10
171.488
20
-113.808
11
170.536
21
-113.999
0
LINE
8
BLACK
6
CONTINUOUS
10
172.25
20
-114.57
11
172.44
21
-114.665
0
LINE
8
BLACK
6
CONTINUOUS
10
172.44
20
-114.665
11
172.821
21
-114.665
0
LINE
8
BLACK
6
CONTINUOUS
10
172.821
20
-114.665
11
173.012
21
-114.57
0
LINE
8
BLACK
6
CONTINUOUS
10
173.012
20
-114.57
11
173.107
21
-114.38
0
LINE
8
BLACK
6
CONTINUOUS
10
173.107
20
-114.38
11
173.107
21
-114.284
0
LINE
8
BLACK
6
CONTINUOUS
10
173.107
20
-114.284
11
173.012
21
-114.094
0
LINE
8
BLACK
6
CONTINUOUS
10
173.012
20
-114.094
11
172.821
21
-113.999
0
LINE
8
BLACK
6
CONTINUOUS
10
172.821
20
-113.999
11
172.536
21
-113.999
0
LINE
8
BLACK
6
CONTINUOUS
10
172.536
20
-113.999
11
172.345
21
-113.903
0
LINE
8
BLACK
6
CONTINUOUS
10
172.345
20
-113.903
11
172.25
21
-113.713
0
LINE
8
BLACK
6
CONTINUOUS
10
172.25
20
-113.713
11
172.25
21
-113.618
0
LINE
8
BLACK
6
CONTINUOUS
10
172.25
20
-113.618
11
172.345
21
-113.427
0
LINE
8
BLACK
6
CONTINUOUS
10
172.345
20
-113.427
11
172.536
21
-113.332
0
LINE
8
BLACK
6
CONTINUOUS
10
172.536
20
-113.332
11
172.821
21
-113.332
0
LINE
8
BLACK
6
CONTINUOUS
10
172.821
20
-113.332
11
173.012
21
-113.427
0
LINE
8
BLACK
6
CONTINUOUS
10
173.774
20
-115.427
11
173.869
21
-115.332
0
LINE
8
BLACK
6
CONTINUOUS
10
173.869
20
-115.332
11
174.06
21
-115.046
0
LINE
8
BLACK
6
CONTINUOUS
10
174.06
20
-115.046
11
174.155
21
-114.856
0
LINE
8
BLACK
6
CONTINUOUS
10
174.155
20
-114.856
11
174.25
21
-114.57
0
LINE
8
BLACK
6
CONTINUOUS
10
174.25
20
-114.57
11
174.345
21
-114.094
0
LINE
8
BLACK
6
CONTINUOUS
10
174.345
20
-114.094
11
174.345
21
-113.713
0
LINE
8
BLACK
6
CONTINUOUS
10
174.345
20
-113.713
11
174.25
21
-113.237
0
LINE
8
BLACK
6
CONTINUOUS
10
174.25
20
-113.237
11
174.155
21
-112.951
0
LINE
8
BLACK
6
CONTINUOUS
10
174.155
20
-112.951
11
174.06
21
-112.761
0
LINE
8
BLACK
6
CONTINUOUS
10
174.06
20
-112.761
11
173.869
21
-112.475
0
LINE
8
BLACK
6
CONTINUOUS
10
173.869
20
-112.475
11
173.774
21
-112.38
0
LINE
8
BLACK
6
CONTINUOUS
10
126.55
20
-115.671
11
126.55
21
-117.471
0
LINE
8
BLACK
6
CONTINUOUS
10
125.65
20
-116.571
11
127.45
21
-116.571
0
LINE
8
BLACK
6
CONTINUOUS
10
130.974
20
-117.305
11
129.831
21
-117.305
0
LINE
8
BLACK
6
CONTINUOUS
10
130.402
20
-117.305
11
130.402
21
-115.305
0
LINE
8
BLACK
6
CONTINUOUS
10
130.402
20
-115.305
11
130.212
21
-115.591
0
LINE
8
BLACK
6
CONTINUOUS
10
130.212
20
-115.591
11
130.021
21
-115.782
0
LINE
8
BLACK
6
CONTINUOUS
10
130.021
20
-115.782
11
129.831
21
-115.877
0
LINE
8
BLACK
6
CONTINUOUS
10
131.831
20
-117.115
11
131.926
21
-117.21
0
LINE
8
BLACK
6
CONTINUOUS
10
131.926
20
-117.21
11
131.831
21
-117.305
0
LINE
8
BLACK
6
CONTINUOUS
10
131.831
20
-117.305
11
131.736
21
-117.21
0
LINE
8
BLACK
6
CONTINUOUS
10
131.736
20
-117.21
11
131.831
21
-117.115
0
LINE
8
BLACK
6
CONTINUOUS
10
131.831
20
-117.115
11
131.831
21
-117.305
0
LINE
8
BLACK
6
CONTINUOUS
10
133.069
20
-116.163
11
132.879
21
-116.067
0
LINE
8
BLACK
6
CONTINUOUS
10
132.879
20
-116.067
11
132.783
21
-115.972
0
LINE
8
BLACK
6
CONTINUOUS
10
132.783
20
-115.972
11
132.688
21
-115.782
0
LINE
8
BLACK
6
CONTINUOUS
10
132.688
20
-115.782
11
132.688
21
-115.686
0
LINE
8
BLACK
6
CONTINUOUS
10
132.688
20
-115.686
11
132.783
21
-115.496
0
LINE
8
BLACK
6
CONTINUOUS
10
132.783
20
-115.496
11
132.879
21
-115.401
0
LINE
8
BLACK
6
CONTINUOUS
10
132.879
20
-115.401
11
133.069
21
-115.305
0
LINE
8
BLACK
6
CONTINUOUS
10
133.069
20
-115.305
11
133.45
21
-115.305
0
LINE
8
BLACK
6
CONTINUOUS
10
133.45
20
-115.305
11
133.64
21
-115.401
0
LINE
8
BLACK
6
CONTINUOUS
10
133.64
20
-115.401
11
133.736
21
-115.496
0
LINE
8
BLACK
6
CONTINUOUS
10
133.736
20
-115.496
11
133.831
21
-115.686
0
LINE
8
BLACK
6
CONTINUOUS
10
133.831
20
-115.686
11
133.831
21
-115.782
0
LINE
8
BLACK
6
CONTINUOUS
10
133.831
20
-115.782
11
133.736
21
-115.972
0
LINE
8
BLACK
6
CONTINUOUS
10
133.736
20
-115.972
11
133.64
21
-116.067
0
LINE
8
BLACK
6
CONTINUOUS
10
133.64
20
-116.067
11
133.45
21
-116.163
0
LINE
8
BLACK
6
CONTINUOUS
10
133.45
20
-116.163
11
133.069
21
-116.163
0
LINE
8
BLACK
6
CONTINUOUS
10
133.069
20
-116.163
11
132.879
21
-116.258
0
LINE
8
BLACK
6
CONTINUOUS
10
132.879
20
-116.258
11
132.783
21
-116.353
0
LINE
8
BLACK
6
CONTINUOUS
10
132.783
20
-116.353
11
132.688
21
-116.543
0
LINE
8
BLACK
6
CONTINUOUS
10
132.688
20
-116.543
11
132.688
21
-116.924
0
LINE
8
BLACK
6
CONTINUOUS
10
132.688
20
-116.924
11
132.783
21
-117.115
0
LINE
8
BLACK
6
CONTINUOUS
10
132.783
20
-117.115
11
132.879
21
-117.21
0
LINE
8
BLACK
6
CONTINUOUS
10
132.879
20
-117.21
11
133.069
21
-117.305
0
LINE
8
BLACK
6
CONTINUOUS
10
133.069
20
-117.305
11
133.45
21
-117.305
0
LINE
8
BLACK
6
CONTINUOUS
10
133.45
20
-117.305
11
133.64
21
-117.21
0
LINE
8
BLACK
6
CONTINUOUS
10
133.64
20
-117.21
11
133.736
21
-117.115
0
LINE
8
BLACK
6
CONTINUOUS
10
133.736
20
-117.115
11
133.831
21
-116.924
0
LINE
8
BLACK
6
CONTINUOUS
10
133.831
20
-116.924
11
133.831
21
-116.543
0
LINE
8
BLACK
6
CONTINUOUS
10
133.831
20
-116.543
11
133.736
21
-116.353
0
LINE
8
BLACK
6
CONTINUOUS
10
133.736
20
-116.353
11
133.64
21
-116.258
0
LINE
8
BLACK
6
CONTINUOUS
10
133.64
20
-116.258
11
133.45
21
-116.163
0
LINE
8
BLACK
6
CONTINUOUS
10
135.069
20
-115.305
11
135.26
21
-115.305
0
LINE
8
BLACK
6
CONTINUOUS
10
135.26
20
-115.305
11
135.45
21
-115.401
0
LINE
8
BLACK
6
CONTINUOUS
10
135.45
20
-115.401
11
135.545
21
-115.496
0
LINE
8
BLACK
6
CONTINUOUS
10
135.545
20
-115.496
11
135.64
21
-115.686
0
LINE
8
BLACK
6
CONTINUOUS
10
135.64
20
-115.686
11
135.736
21
-116.067
0
LINE
8
BLACK
6
CONTINUOUS
10
135.736
20
-116.067
11
135.736
21
-116.543
0
LINE
8
BLACK
6
CONTINUOUS
10
135.736
20
-116.543
11
135.64
21
-116.924
0
LINE
8
BLACK
6
CONTINUOUS
10
135.64
20
-116.924
11
135.545
21
-117.115
0
LINE
8
BLACK
6
CONTINUOUS
10
135.545
20
-117.115
11
135.45
21
-117.21
0
LINE
8
BLACK
6
CONTINUOUS
10
135.45
20
-117.21
11
135.26
21
-117.305
0
LINE
8
BLACK
6
CONTINUOUS
10
135.26
20
-117.305
11
135.069
21
-117.305
0
LINE
8
BLACK
6
CONTINUOUS
10
135.069
20
-117.305
11
134.879
21
-117.21
0
LINE
8
BLACK
6
CONTINUOUS
10
134.879
20
-117.21
11
134.783
21
-117.115
0
LINE
8
BLACK
6
CONTINUOUS
10
134.783
20
-117.115
11
134.688
21
-116.924
0
LINE
8
BLACK
6
CONTINUOUS
10
134.688
20
-116.924
11
134.593
21
-116.543
0
LINE
8
BLACK
6
CONTINUOUS
10
134.593
20
-116.543
11
134.593
21
-116.067
0
LINE
8
BLACK
6
CONTINUOUS
10
134.593
20
-116.067
11
134.688
21
-115.686
0
LINE
8
BLACK
6
CONTINUOUS
10
134.688
20
-115.686
11
134.783
21
-115.496
0
LINE
8
BLACK
6
CONTINUOUS
10
134.783
20
-115.496
11
134.879
21
-115.401
0
LINE
8
BLACK
6
CONTINUOUS
10
134.879
20
-115.401
11
135.069
21
-115.305
0
LINE
8
BLACK
6
CONTINUOUS
10
136.974
20
-115.305
11
137.164
21
-115.305
0
LINE
8
BLACK
6
CONTINUOUS
10
137.164
20
-115.305
11
137.355
21
-115.401
0
LINE
8
BLACK
6
CONTINUOUS
10
137.355
20
-115.401
11
137.45
21
-115.496
0
LINE
8
BLACK
6
CONTINUOUS
10
137.45
20
-115.496
11
137.545
21
-115.686
0
LINE
8
BLACK
6
CONTINUOUS
10
137.545
20
-115.686
11
137.64
21
-116.067
0
LINE
8
BLACK
6
CONTINUOUS
10
137.64
20
-116.067
11
137.64
21
-116.543
0
LINE
8
BLACK
6
CONTINUOUS
10
137.64
20
-116.543
11
137.545
21
-116.924
0
LINE
8
BLACK
6
CONTINUOUS
10
137.545
20
-116.924
11
137.45
21
-117.115
0
LINE
8
BLACK
6
CONTINUOUS
10
137.45
20
-117.115
11
137.355
21
-117.21
0
LINE
8
BLACK
6
CONTINUOUS
10
137.355
20
-117.21
11
137.164
21
-117.305
0
LINE
8
BLACK
6
CONTINUOUS
10
137.164
20
-117.305
11
136.974
21
-117.305
0
LINE
8
BLACK
6
CONTINUOUS
10
136.974
20
-117.305
11
136.783
21
-117.21
0
LINE
8
BLACK
6
CONTINUOUS
10
136.783
20
-117.21
11
136.688
21
-117.115
0
LINE
8
BLACK
6
CONTINUOUS
10
136.688
20
-117.115
11
136.593
21
-116.924
0
LINE
8
BLACK
6
CONTINUOUS
10
136.593
20
-116.924
11
136.498
21
-116.543
0
LINE
8
BLACK
6
CONTINUOUS
10
136.498
20
-116.543
11
136.498
21
-116.067
0
LINE
8
BLACK
6
CONTINUOUS
10
136.498
20
-116.067
11
136.593
21
-115.686
0
LINE
8
BLACK
6
CONTINUOUS
10
136.593
20
-115.686
11
136.688
21
-115.496
0
LINE
8
BLACK
6
CONTINUOUS
10
136.688
20
-115.496
11
136.783
21
-115.401
0
LINE
8
BLACK
6
CONTINUOUS
10
136.783
20
-115.401
11
136.974
21
-115.305
0
LINE
8
BLACK
6
CONTINUOUS
10
138.498
20
-117.305
11
138.498
21
-115.972
0
LINE
8
BLACK
6
CONTINUOUS
10
138.498
20
-116.163
11
138.593
21
-116.067
0
LINE
8
BLACK
6
CONTINUOUS
10
138.593
20
-116.067
11
138.783
21
-115.972
0
LINE
8
BLACK
6
CONTINUOUS
10
138.783
20
-115.972
11
139.069
21
-115.972
0
LINE
8
BLACK
6
CONTINUOUS
10
139.069
20
-115.972
11
139.26
21
-116.067
0
LINE
8
BLACK
6
CONTINUOUS
10
139.26
20
-116.067
11
139.355
21
-116.258
0
LINE
8
BLACK
6
CONTINUOUS
10
139.355
20
-116.258
11
139.355
21
-117.305
0
LINE
8
BLACK
6
CONTINUOUS
10
139.355
20
-116.258
11
139.45
21
-116.067
0
LINE
8
BLACK
6
CONTINUOUS
10
139.45
20
-116.067
11
139.64
21
-115.972
0
LINE
8
BLACK
6
CONTINUOUS
10
139.64
20
-115.972
11
139.926
21
-115.972
0
LINE
8
BLACK
6
CONTINUOUS
10
139.926
20
-115.972
11
140.117
21
-116.067
0
LINE
8
BLACK
6
CONTINUOUS
10
140.117
20
-116.067
11
140.212
21
-116.258
0
LINE
8
BLACK
6
CONTINUOUS
10
140.212
20
-116.258
11
140.212
21
-117.305
0
LINE
8
BLACK
6
CONTINUOUS
10
141.164
20
-117.305
11
141.164
21
-115.972
0
LINE
8
BLACK
6
CONTINUOUS
10
141.164
20
-116.163
11
141.26
21
-116.067
0
LINE
8
BLACK
6
CONTINUOUS
10
141.26
20
-116.067
11
141.45
21
-115.972
0
LINE
8
BLACK
6
CONTINUOUS
10
141.45
20
-115.972
11
141.736
21
-115.972
0
LINE
8
BLACK
6
CONTINUOUS
10
141.736
20
-115.972
11
141.926
21
-116.067
0
LINE
8
BLACK
6
CONTINUOUS
10
141.926
20
-116.067
11
142.021
21
-116.258
0
LINE
8
BLACK
6
CONTINUOUS
10
142.021
20
-116.258
11
142.021
21
-117.305
0
LINE
8
BLACK
6
CONTINUOUS
10
142.021
20
-116.258
11
142.117
21
-116.067
0
LINE
8
BLACK
6
CONTINUOUS
10
142.117
20
-116.067
11
142.307
21
-115.972
0
LINE
8
BLACK
6
CONTINUOUS
10
142.307
20
-115.972
11
142.593
21
-115.972
0
LINE
8
BLACK
6
CONTINUOUS
10
142.593
20
-115.972
11
142.783
21
-116.067
0
LINE
8
BLACK
6
CONTINUOUS
10
142.783
20
-116.067
11
142.879
21
-116.258
0
LINE
8
BLACK
6
CONTINUOUS
10
142.879
20
-116.258
11
142.879
21
-117.305
0
LINE
8
BLACK
6
CONTINUOUS
10
146.46
20
-115.21
11
144.745
21
-117.782
0
LINE
8
BLACK
6
CONTINUOUS
10
148.707
20
-115.305
11
148.898
21
-115.305
0
LINE
8
BLACK
6
CONTINUOUS
10
148.898
20
-115.305
11
149.088
21
-115.401
0
LINE
8
BLACK
6
CONTINUOUS
10
149.088
20
-115.401
11
149.183
21
-115.496
0
LINE
8
BLACK
6
CONTINUOUS
10
149.183
20
-115.496
11
149.279
21
-115.686
0
LINE
8
BLACK
6
CONTINUOUS
10
149.279
20
-115.686
11
149.374
21
-116.067
0
LINE
8
BLACK
6
CONTINUOUS
10
149.374
20
-116.067
11
149.374
21
-116.543
0
LINE
8
BLACK
6
CONTINUOUS
10
149.374
20
-116.543
11
149.279
21
-116.924
0
LINE
8
BLACK
6
CONTINUOUS
10
149.279
20
-116.924
11
149.183
21
-117.115
0
LINE
8
BLACK
6
CONTINUOUS
10
149.183
20
-117.115
11
149.088
21
-117.21
0
LINE
8
BLACK
6
CONTINUOUS
10
149.088
20
-117.21
11
148.898
21
-117.305
0
LINE
8
BLACK
6
CONTINUOUS
10
148.898
20
-117.305
11
148.707
21
-117.305
0
LINE
8
BLACK
6
CONTINUOUS
10
148.707
20
-117.305
11
148.517
21
-117.21
0
LINE
8
BLACK
6
CONTINUOUS
10
148.517
20
-117.21
11
148.421
21
-117.115
0
LINE
8
BLACK
6
CONTINUOUS
10
148.421
20
-117.115
11
148.326
21
-116.924
0
LINE
8
BLACK
6
CONTINUOUS
10
148.326
20
-116.924
11
148.231
21
-116.543
0
LINE
8
BLACK
6
CONTINUOUS
10
148.231
20
-116.543
11
148.231
21
-116.067
0
LINE
8
BLACK
6
CONTINUOUS
10
148.231
20
-116.067
11
148.326
21
-115.686
0
LINE
8
BLACK
6
CONTINUOUS
10
148.326
20
-115.686
11
148.421
21
-115.496
0
LINE
8
BLACK
6
CONTINUOUS
10
148.421
20
-115.496
11
148.517
21
-115.401
0
LINE
8
BLACK
6
CONTINUOUS
10
148.517
20
-115.401
11
148.707
21
-115.305
0
LINE
8
BLACK
6
CONTINUOUS
10
150.231
20
-117.115
11
150.326
21
-117.21
0
LINE
8
BLACK
6
CONTINUOUS
10
150.326
20
-117.21
11
150.231
21
-117.305
0
LINE
8
BLACK
6
CONTINUOUS
10
150.231
20
-117.305
11
150.136
21
-117.21
0
LINE
8
BLACK
6
CONTINUOUS
10
150.136
20
-117.21
11
150.231
21
-117.115
0
LINE
8
BLACK
6
CONTINUOUS
10
150.231
20
-117.115
11
150.231
21
-117.305
0
LINE
8
BLACK
6
CONTINUOUS
10
151.564
20
-115.305
11
151.755
21
-115.305
0
LINE
8
BLACK
6
CONTINUOUS
10
151.755
20
-115.305
11
151.945
21
-115.401
0
LINE
8
BLACK
6
CONTINUOUS
10
151.945
20
-115.401
11
152.04
21
-115.496
0
LINE
8
BLACK
6
CONTINUOUS
10
152.04
20
-115.496
11
152.136
21
-115.686
0
LINE
8
BLACK
6
CONTINUOUS
10
152.136
20
-115.686
11
152.231
21
-116.067
0
LINE
8
BLACK
6
CONTINUOUS
10
152.231
20
-116.067
11
152.231
21
-116.543
0
LINE
8
BLACK
6
CONTINUOUS
10
152.231
20
-116.543
11
152.136
21
-116.924
0
LINE
8
BLACK
6
CONTINUOUS
10
152.136
20
-116.924
11
152.04
21
-117.115
0
LINE
8
BLACK
6
CONTINUOUS
10
152.04
20
-117.115
11
151.945
21
-117.21
0
LINE
8
BLACK
6
CONTINUOUS
10
151.945
20
-117.21
11
151.755
21
-117.305
0
LINE
8
BLACK
6
CONTINUOUS
10
151.755
20
-117.305
11
151.564
21
-117.305
0
LINE
8
BLACK
6
CONTINUOUS
10
151.564
20
-117.305
11
151.374
21
-117.21
0
LINE
8
BLACK
6
CONTINUOUS
10
151.374
20
-117.21
11
151.279
21
-117.115
0
LINE
8
BLACK
6
CONTINUOUS
10
151.279
20
-117.115
11
151.183
21
-116.924
0
LINE
8
BLACK
6
CONTINUOUS
10
151.183
20
-116.924
11
151.088
21
-116.543
0
LINE
8
BLACK
6
CONTINUOUS
10
151.088
20
-116.543
11
151.088
21
-116.067
0
LINE
8
BLACK
6
CONTINUOUS
10
151.088
20
-116.067
11
151.183
21
-115.686
0
LINE
8
BLACK
6
CONTINUOUS
10
151.183
20
-115.686
11
151.279
21
-115.496
0
LINE
8
BLACK
6
CONTINUOUS
10
151.279
20
-115.496
11
151.374
21
-115.401
0
LINE
8
BLACK
6
CONTINUOUS
10
151.374
20
-115.401
11
151.564
21
-115.305
0
LINE
8
BLACK
6
CONTINUOUS
10
152.898
20
-115.305
11
154.231
21
-115.305
0
LINE
8
BLACK
6
CONTINUOUS
10
154.231
20
-115.305
11
153.374
21
-117.305
0
LINE
8
BLACK
6
CONTINUOUS
10
155.374
20
-115.305
11
155.564
21
-115.305
0
LINE
8
BLACK
6
CONTINUOUS
10
155.564
20
-115.305
11
155.755
21
-115.401
0
LINE
8
BLACK
6
CONTINUOUS
10
155.755
20
-115.401
11
155.85
21
-115.496
0
LINE
8
BLACK
6
CONTINUOUS
10
155.85
20
-115.496
11
155.945
21
-115.686
0
LINE
8
BLACK
6
CONTINUOUS
10
155.945
20
-115.686
11
156.04
21
-116.067
0
LINE
8
BLACK
6
CONTINUOUS
10
156.04
20
-116.067
11
156.04
21
-116.543
0
LINE
8
BLACK
6
CONTINUOUS
10
156.04
20
-116.543
11
155.945
21
-116.924
0
LINE
8
BLACK
6
CONTINUOUS
10
155.945
20
-116.924
11
155.85
21
-117.115
0
LINE
8
BLACK
6
CONTINUOUS
10
155.85
20
-117.115
11
155.755
21
-117.21
0
LINE
8
BLACK
6
CONTINUOUS
10
155.755
20
-117.21
11
155.564
21
-117.305
0
LINE
8
BLACK
6
CONTINUOUS
10
155.564
20
-117.305
11
155.374
21
-117.305
0
LINE
8
BLACK
6
CONTINUOUS
10
155.374
20
-117.305
11
155.183
21
-117.21
0
LINE
8
BLACK
6
CONTINUOUS
10
155.183
20
-117.21
11
155.088
21
-117.115
0
LINE
8
BLACK
6
CONTINUOUS
10
155.088
20
-117.115
11
154.993
21
-116.924
0
LINE
8
BLACK
6
CONTINUOUS
10
154.993
20
-116.924
11
154.898
21
-116.543
0
LINE
8
BLACK
6
CONTINUOUS
10
154.898
20
-116.543
11
154.898
21
-116.067
0
LINE
8
BLACK
6
CONTINUOUS
10
154.898
20
-116.067
11
154.993
21
-115.686
0
LINE
8
BLACK
6
CONTINUOUS
10
154.993
20
-115.686
11
155.088
21
-115.496
0
LINE
8
BLACK
6
CONTINUOUS
10
155.088
20
-115.496
11
155.183
21
-115.401
0
LINE
8
BLACK
6
CONTINUOUS
10
155.183
20
-115.401
11
155.374
21
-115.305
0
LINE
8
BLACK
6
CONTINUOUS
10
156.993
20
-117.305
11
157.374
21
-117.305
0
LINE
8
BLACK
6
CONTINUOUS
10
157.374
20
-117.305
11
157.564
21
-117.21
0
LINE
8
BLACK
6
CONTINUOUS
10
157.564
20
-117.21
11
157.66
21
-117.115
0
LINE
8
BLACK
6
CONTINUOUS
10
157.66
20
-117.115
11
157.85
21
-116.829
0
LINE
8
BLACK
6
CONTINUOUS
10
157.85
20
-116.829
11
157.945
21
-116.448
0
LINE
8
BLACK
6
CONTINUOUS
10
157.945
20
-116.448
11
157.945
21
-115.686
0
LINE
8
BLACK
6
CONTINUOUS
10
157.945
20
-115.686
11
157.85
21
-115.496
0
LINE
8
BLACK
6
CONTINUOUS
10
157.85
20
-115.496
11
157.755
21
-115.401
0
LINE
8
BLACK
6
CONTINUOUS
10
157.755
20
-115.401
11
157.564
21
-115.305
0
LINE
8
BLACK
6
CONTINUOUS
10
157.564
20
-115.305
11
157.183
21
-115.305
0
LINE
8
BLACK
6
CONTINUOUS
10
157.183
20
-115.305
11
156.993
21
-115.401
0
LINE
8
BLACK
6
CONTINUOUS
10
156.993
20
-115.401
11
156.898
21
-115.496
0
LINE
8
BLACK
6
CONTINUOUS
10
156.898
20
-115.496
11
156.802
21
-115.686
0
LINE
8
BLACK
6
CONTINUOUS
10
156.802
20
-115.686
11
156.802
21
-116.163
0
LINE
8
BLACK
6
CONTINUOUS
10
156.802
20
-116.163
11
156.898
21
-116.353
0
LINE
8
BLACK
6
CONTINUOUS
10
156.898
20
-116.353
11
156.993
21
-116.448
0
LINE
8
BLACK
6
CONTINUOUS
10
156.993
20
-116.448
11
157.183
21
-116.543
0
LINE
8
BLACK
6
CONTINUOUS
10
157.183
20
-116.543
11
157.564
21
-116.543
0
LINE
8
BLACK
6
CONTINUOUS
10
157.564
20
-116.543
11
157.755
21
-116.448
0
LINE
8
BLACK
6
CONTINUOUS
10
157.755
20
-116.448
11
157.85
21
-116.353
0
LINE
8
BLACK
6
CONTINUOUS
10
157.85
20
-116.353
11
157.945
21
-116.163
0
LINE
8
BLACK
6
CONTINUOUS
10
158.707
20
-115.305
11
158.707
21
-115.686
0
LINE
8
BLACK
6
CONTINUOUS
10
159.469
20
-115.305
11
159.469
21
-115.686
0
LINE
8
BLACK
6
CONTINUOUS
10
162.098
20
-118.067
11
162.002
21
-117.972
0
LINE
8
BLACK
6
CONTINUOUS
10
162.002
20
-117.972
11
161.812
21
-117.686
0
LINE
8
BLACK
6
CONTINUOUS
10
161.812
20
-117.686
11
161.717
21
-117.496
0
LINE
8
BLACK
6
CONTINUOUS
10
161.717
20
-117.496
11
161.621
21
-117.21
0
LINE
8
BLACK
6
CONTINUOUS
10
161.621
20
-117.21
11
161.526
21
-116.734
0
LINE
8
BLACK
6
CONTINUOUS
10
161.526
20
-116.734
11
161.526
21
-116.353
0
LINE
8
BLACK
6
CONTINUOUS
10
161.526
20
-116.353
11
161.621
21
-115.877
0
LINE
8
BLACK
6
CONTINUOUS
10
161.621
20
-115.877
11
161.717
21
-115.591
0
LINE
8
BLACK
6
CONTINUOUS
10
161.717
20
-115.591
11
161.812
21
-115.401
0
LINE
8
BLACK
6
CONTINUOUS
10
161.812
20
-115.401
11
162.002
21
-115.115
0
LINE
8
BLACK
6
CONTINUOUS
10
162.002
20
-115.115
11
162.098
21
-115.02
0
LINE
8
BLACK
6
CONTINUOUS
10
163.145
20
-116.163
11
162.955
21
-116.067
0
LINE
8
BLACK
6
CONTINUOUS
10
162.955
20
-116.067
11
162.86
21
-115.972
0
LINE
8
BLACK
6
CONTINUOUS
10
162.86
20
-115.972
11
162.764
21
-115.782
0
LINE
8
BLACK
6
CONTINUOUS
10
162.764
20
-115.782
11
162.764
21
-115.686
0
LINE
8
BLACK
6
CONTINUOUS
10
162.764
20
-115.686
11
162.86
21
-115.496
0
LINE
8
BLACK
6
CONTINUOUS
10
162.86
20
-115.496
11
162.955
21
-115.401
0
LINE
8
BLACK
6
CONTINUOUS
10
162.955
20
-115.401
11
163.145
21
-115.305
0
LINE
8
BLACK
6
CONTINUOUS
10
163.145
20
-115.305
11
163.526
21
-115.305
0
LINE
8
BLACK
6
CONTINUOUS
10
163.526
20
-115.305
11
163.717
21
-115.401
0
LINE
8
BLACK
6
CONTINUOUS
10
163.717
20
-115.401
11
163.812
21
-115.496
0
LINE
8
BLACK
6
CONTINUOUS
10
163.812
20
-115.496
11
163.907
21
-115.686
0
LINE
8
BLACK
6
CONTINUOUS
10
163.907
20
-115.686
11
163.907
21
-115.782
0
LINE
8
BLACK
6
CONTINUOUS
10
163.907
20
-115.782
11
163.812
21
-115.972
0
LINE
8
BLACK
6
CONTINUOUS
10
163.812
20
-115.972
11
163.717
21
-116.067
0
LINE
8
BLACK
6
CONTINUOUS
10
163.717
20
-116.067
11
163.526
21
-116.163
0
LINE
8
BLACK
6
CONTINUOUS
10
163.526
20
-116.163
11
163.145
21
-116.163
0
LINE
8
BLACK
6
CONTINUOUS
10
163.145
20
-116.163
11
162.955
21
-116.258
0
LINE
8
BLACK
6
CONTINUOUS
10
162.955
20
-116.258
11
162.86
21
-116.353
0
LINE
8
BLACK
6
CONTINUOUS
10
162.86
20
-116.353
11
162.764
21
-116.543
0
LINE
8
BLACK
6
CONTINUOUS
10
162.764
20
-116.543
11
162.764
21
-116.924
0
LINE
8
BLACK
6
CONTINUOUS
10
162.764
20
-116.924
11
162.86
21
-117.115
0
LINE
8
BLACK
6
CONTINUOUS
10
162.86
20
-117.115
11
162.955
21
-117.21
0
LINE
8
BLACK
6
CONTINUOUS
10
162.955
20
-117.21
11
163.145
21
-117.305
0
LINE
8
BLACK
6
CONTINUOUS
10
163.145
20
-117.305
11
163.526
21
-117.305
0
LINE
8
BLACK
6
CONTINUOUS
10
163.526
20
-117.305
11
163.717
21
-117.21
0
LINE
8
BLACK
6
CONTINUOUS
10
163.717
20
-117.21
11
163.812
21
-117.115
0
LINE
8
BLACK
6
CONTINUOUS
10
163.812
20
-117.115
11
163.907
21
-116.924
0
LINE
8
BLACK
6
CONTINUOUS
10
163.907
20
-116.924
11
163.907
21
-116.543
0
LINE
8
BLACK
6
CONTINUOUS
10
163.907
20
-116.543
11
163.812
21
-116.353
0
LINE
8
BLACK
6
CONTINUOUS
10
163.812
20
-116.353
11
163.717
21
-116.258
0
LINE
8
BLACK
6
CONTINUOUS
10
163.717
20
-116.258
11
163.526
21
-116.163
0
LINE
8
BLACK
6
CONTINUOUS
10
165.964
20
-117.305
11
165.964
21
-115.305
0
LINE
8
BLACK
6
CONTINUOUS
10
166.821
20
-117.305
11
166.821
21
-116.258
0
LINE
8
BLACK
6
CONTINUOUS
10
166.821
20
-116.258
11
166.726
21
-116.067
0
LINE
8
BLACK
6
CONTINUOUS
10
166.726
20
-116.067
11
166.536
21
-115.972
0
LINE
8
BLACK
6
CONTINUOUS
10
166.536
20
-115.972
11
166.25
21
-115.972
0
LINE
8
BLACK
6
CONTINUOUS
10
166.25
20
-115.972
11
166.06
21
-116.067
0
LINE
8
BLACK
6
CONTINUOUS
10
166.06
20
-116.067
11
165.964
21
-116.163
0
LINE
8
BLACK
6
CONTINUOUS
10
168.06
20
-117.305
11
167.869
21
-117.21
0
LINE
8
BLACK
6
CONTINUOUS
10
167.869
20
-117.21
11
167.774
21
-117.115
0
LINE
8
BLACK
6
CONTINUOUS
10
167.774
20
-117.115
11
167.679
21
-116.924
0
LINE
8
BLACK
6
CONTINUOUS
10
167.679
20
-116.924
11
167.679
21
-116.353
0
LINE
8
BLACK
6
CONTINUOUS
10
167.679
20
-116.353
11
167.774
21
-116.163
0
LINE
8
BLACK
6
CONTINUOUS
10
167.774
20
-116.163
11
167.869
21
-116.067
0
LINE
8
BLACK
6
CONTINUOUS
10
167.869
20
-116.067
11
168.06
21
-115.972
0
LINE
8
BLACK
6
CONTINUOUS
10
168.06
20
-115.972
11
168.345
21
-115.972
0
LINE
8
BLACK
6
CONTINUOUS
10
168.345
20
-115.972
11
168.536
21
-116.067
0
LINE
8
BLACK
6
CONTINUOUS
10
168.536
20
-116.067
11
168.631
21
-116.163
0
LINE
8
BLACK
6
CONTINUOUS
10
168.631
20
-116.163
11
168.726
21
-116.353
0
LINE
8
BLACK
6
CONTINUOUS
10
168.726
20
-116.353
11
168.726
21
-116.924
0
LINE
8
BLACK
6
CONTINUOUS
10
168.726
20
-116.924
11
168.631
21
-117.115
0
LINE
8
BLACK
6
CONTINUOUS
10
168.631
20
-117.115
11
168.536
21
-117.21
0
LINE
8
BLACK
6
CONTINUOUS
10
168.536
20
-117.21
11
168.345
21
-117.305
0
LINE
8
BLACK
6
CONTINUOUS
10
168.345
20
-117.305
11
168.06
21
-117.305
0
LINE
8
BLACK
6
CONTINUOUS
10
169.869
20
-117.305
11
169.679
21
-117.21
0
LINE
8
BLACK
6
CONTINUOUS
10
169.679
20
-117.21
11
169.583
21
-117.02
0
LINE
8
BLACK
6
CONTINUOUS
10
169.583
20
-117.02
11
169.583
21
-115.305
0
LINE
8
BLACK
6
CONTINUOUS
10
171.393
20
-117.21
11
171.202
21
-117.305
0
LINE
8
BLACK
6
CONTINUOUS
10
171.202
20
-117.305
11
170.821
21
-117.305
0
LINE
8
BLACK
6
CONTINUOUS
10
170.821
20
-117.305
11
170.631
21
-117.21
0
LINE
8
BLACK
6
CONTINUOUS
10
170.631
20
-117.21
11
170.536
21
-117.02
0
LINE
8
BLACK
6
CONTINUOUS
10
170.536
20
-117.02
11
170.536
21
-116.258
0
LINE
8
BLACK
6
CONTINUOUS
10
170.536
20
-116.258
11
170.631
21
-116.067
0
LINE
8
BLACK
6
CONTINUOUS
10
170.631
20
-116.067
11
170.821
21
-115.972
0
LINE
8
BLACK
6
CONTINUOUS
10
170.821
20
-115.972
11
171.202
21
-115.972
0
LINE
8
BLACK
6
CONTINUOUS
10
171.202
20
-115.972
11
171.393
21
-116.067
0
LINE
8
BLACK
6
CONTINUOUS
10
171.393
20
-116.067
11
171.488
21
-116.258
0
LINE
8
BLACK
6
CONTINUOUS
10
171.488
20
-116.258
11
171.488
21
-116.448
0
LINE
8
BLACK
6
CONTINUOUS
10
171.488
20
-116.448
11
170.536
21
-116.639
0
LINE
8
BLACK
6
CONTINUOUS
10
172.25
20
-117.21
11
172.44
21
-117.305
0
LINE
8
BLACK
6
CONTINUOUS
10
172.44
20
-117.305
11
172.821
21
-117.305
0
LINE
8
BLACK
6
CONTINUOUS
10
172.821
20
-117.305
11
173.012
21
-117.21
0
LINE
8
BLACK
6
CONTINUOUS
10
173.012
20
-117.21
11
173.107
21
-117.02
0
LINE
8
BLACK
6
CONTINUOUS
10
173.107
20
-117.02
11
173.107
21
-116.924
0
LINE
8
BLACK
6
CONTINUOUS
10
173.107
20
-116.924
11
173.012
21
-116.734
0
LINE
8
BLACK
6
CONTINUOUS
10
173.012
20
-116.734
11
172.821
21
-116.639
0
LINE
8
BLACK
6
CONTINUOUS
10
172.821
20
-116.639
11
172.536
21
-116.639
0
LINE
8
BLACK
6
CONTINUOUS
10
172.536
20
-116.639
11
172.345
21
-116.543
0
LINE
8
BLACK
6
CONTINUOUS
10
172.345
20
-116.543
11
172.25
21
-116.353
0
LINE
8
BLACK
6
CONTINUOUS
10
172.25
20
-116.353
11
172.25
21
-116.258
0
LINE
8
BLACK
6
CONTINUOUS
10
172.25
20
-116.258
11
172.345
21
-116.067
0
LINE
8
BLACK
6
CONTINUOUS
10
172.345
20
-116.067
11
172.536
21
-115.972
0
LINE
8
BLACK
6
CONTINUOUS
10
172.536
20
-115.972
11
172.821
21
-115.972
0
LINE
8
BLACK
6
CONTINUOUS
10
172.821
20
-115.972
11
173.012
21
-116.067
0
LINE
8
BLACK
6
CONTINUOUS
10
173.774
20
-118.067
11
173.869
21
-117.972
0
LINE
8
BLACK
6
CONTINUOUS
10
173.869
20
-117.972
11
174.06
21
-117.686
0
LINE
8
BLACK
6
CONTINUOUS
10
174.06
20
-117.686
11
174.155
21
-117.496
0
LINE
8
BLACK
6
CONTINUOUS
10
174.155
20
-117.496
11
174.25
21
-117.21
0
LINE
8
BLACK
6
CONTINUOUS
10
174.25
20
-117.21
11
174.345
21
-116.734
0
LINE
8
BLACK
6
CONTINUOUS
10
174.345
20
-116.734
11
174.345
21
-116.353
0
LINE
8
BLACK
6
CONTINUOUS
10
174.345
20
-116.353
11
174.25
21
-115.877
0
LINE
8
BLACK
6
CONTINUOUS
10
174.25
20
-115.877
11
174.155
21
-115.591
0
LINE
8
BLACK
6
CONTINUOUS
10
174.155
20
-115.591
11
174.06
21
-115.401
0
LINE
8
BLACK
6
CONTINUOUS
10
174.06
20
-115.401
11
173.869
21
-115.115
0
LINE
8
BLACK
6
CONTINUOUS
10
173.869
20
-115.115
11
173.774
21
-115.02
0
LINE
8
BLACK
6
CONTINUOUS
10
127.157
20
-120.278
11
127.157
21
-118.863
0
LINE
8
BLACK
6
CONTINUOUS
10
127.157
20
-118.863
11
125.743
21
-118.863
0
LINE
8
BLACK
6
CONTINUOUS
10
125.743
20
-118.863
11
125.743
21
-120.278
0
LINE
8
BLACK
6
CONTINUOUS
10
125.743
20
-120.278
11
127.157
21
-120.278
0
LINE
8
BLACK
6
CONTINUOUS
10
129.831
20
-118.496
11
129.926
21
-118.401
0
LINE
8
BLACK
6
CONTINUOUS
10
129.926
20
-118.401
11
130.117
21
-118.305
0
LINE
8
BLACK
6
CONTINUOUS
10
130.117
20
-118.305
11
130.593
21
-118.305
0
LINE
8
BLACK
6
CONTINUOUS
10
130.593
20
-118.305
11
130.783
21
-118.401
0
LINE
8
BLACK
6
CONTINUOUS
10
130.783
20
-118.401
11
130.879
21
-118.496
0
LINE
8
BLACK
6
CONTINUOUS
10
130.879
20
-118.496
11
130.974
21
-118.686
0
LINE
8
BLACK
6
CONTINUOUS
10
130.974
20
-118.686
11
130.974
21
-118.877
0
LINE
8
BLACK
6
CONTINUOUS
10
130.974
20
-118.877
11
130.879
21
-119.163
0
LINE
8
BLACK
6
CONTINUOUS
10
130.879
20
-119.163
11
129.736
21
-120.305
0
LINE
8
BLACK
6
CONTINUOUS
10
129.736
20
-120.305
11
130.974
21
-120.305
0
LINE
8
BLACK
6
CONTINUOUS
10
131.831
20
-120.115
11
131.926
21
-120.21
0
LINE
8
BLACK
6
CONTINUOUS
10
131.926
20
-120.21
11
131.831
21
-120.305
0
LINE
8
BLACK
6
CONTINUOUS
10
131.831
20
-120.305
11
131.736
21
-120.21
0
LINE
8
BLACK
6
CONTINUOUS
10
131.736
20
-120.21
11
131.831
21
-120.115
0
LINE
8
BLACK
6
CONTINUOUS
10
131.831
20
-120.115
11
131.831
21
-120.305
0
LINE
8
BLACK
6
CONTINUOUS
10
133.736
20
-118.305
11
132.783
21
-118.305
0
LINE
8
BLACK
6
CONTINUOUS
10
132.783
20
-118.305
11
132.688
21
-119.258
0
LINE
8
BLACK
6
CONTINUOUS
10
132.688
20
-119.258
11
132.783
21
-119.163
0
LINE
8
BLACK
6
CONTINUOUS
10
132.783
20
-119.163
11
132.974
21
-119.067
0
LINE
8
BLACK
6
CONTINUOUS
10
132.974
20
-119.067
11
133.45
21
-119.067
0
LINE
8
BLACK
6
CONTINUOUS
10
133.45
20
-119.067
11
133.64
21
-119.163
0
LINE
8
BLACK
6
CONTINUOUS
10
133.64
20
-119.163
11
133.736
21
-119.258
0
LINE
8
BLACK
6
CONTINUOUS
10
133.736
20
-119.258
11
133.831
21
-119.448
0
LINE
8
BLACK
6
CONTINUOUS
10
133.831
20
-119.448
11
133.831
21
-119.924
0
LINE
8
BLACK
6
CONTINUOUS
10
133.831
20
-119.924
11
133.736
21
-120.115
0
LINE
8
BLACK
6
CONTINUOUS
10
133.736
20
-120.115
11
133.64
21
-120.21
0
LINE
8
BLACK
6
CONTINUOUS
10
133.64
20
-120.21
11
133.45
21
-120.305
0
LINE
8
BLACK
6
CONTINUOUS
10
133.45
20
-120.305
11
132.974
21
-120.305
0
LINE
8
BLACK
6
CONTINUOUS
10
132.974
20
-120.305
11
132.783
21
-120.21
0
LINE
8
BLACK
6
CONTINUOUS
10
132.783
20
-120.21
11
132.688
21
-120.115
0
LINE
8
BLACK
6
CONTINUOUS
10
135.069
20
-118.305
11
135.26
21
-118.305
0
LINE
8
BLACK
6
CONTINUOUS
10
135.26
20
-118.305
11
135.45
21
-118.401
0
LINE
8
BLACK
6
CONTINUOUS
10
135.45
20
-118.401
11
135.545
21
-118.496
0
LINE
8
BLACK
6
CONTINUOUS
10
135.545
20
-118.496
11
135.64
21
-118.686
0
LINE
8
BLACK
6
CONTINUOUS
10
135.64
20
-118.686
11
135.736
21
-119.067
0
LINE
8
BLACK
6
CONTINUOUS
10
135.736
20
-119.067
11
135.736
21
-119.543
0
LINE
8
BLACK
6
CONTINUOUS
10
135.736
20
-119.543
11
135.64
21
-119.924
0
LINE
8
BLACK
6
CONTINUOUS
10
135.64
20
-119.924
11
135.545
21
-120.115
0
LINE
8
BLACK
6
CONTINUOUS
10
135.545
20
-120.115
11
135.45
21
-120.21
0
LINE
8
BLACK
6
CONTINUOUS
10
135.45
20
-120.21
11
135.26
21
-120.305
0
LINE
8
BLACK
6
CONTINUOUS
10
135.26
20
-120.305
11
135.069
21
-120.305
0
LINE
8
BLACK
6
CONTINUOUS
10
135.069
20
-120.305
11
134.879
21
-120.21
0
LINE
8
BLACK
6
CONTINUOUS
10
134.879
20
-120.21
11
134.783
21
-120.115
0
LINE
8
BLACK
6
CONTINUOUS
10
134.783
20
-120.115
11
134.688
21
-119.924
0
LINE
8
BLACK
6
CONTINUOUS
10
134.688
20
-119.924
11
134.593
21
-119.543
0
LINE
8
BLACK
6
CONTINUOUS
10
134.593
20
-119.543
11
134.593
21
-119.067
0
LINE
8
BLACK
6
CONTINUOUS
10
134.593
20
-119.067
11
134.688
21
-118.686
0
LINE
8
BLACK
6
CONTINUOUS
10
134.688
20
-118.686
11
134.783
21
-118.496
0
LINE
8
BLACK
6
CONTINUOUS
10
134.783
20
-118.496
11
134.879
21
-118.401
0
LINE
8
BLACK
6
CONTINUOUS
10
134.879
20
-118.401
11
135.069
21
-118.305
0
LINE
8
BLACK
6
CONTINUOUS
10
136.974
20
-118.305
11
137.164
21
-118.305
0
LINE
8
BLACK
6
CONTINUOUS
10
137.164
20
-118.305
11
137.355
21
-118.401
0
LINE
8
BLACK
6
CONTINUOUS
10
137.355
20
-118.401
11
137.45
21
-118.496
0
LINE
8
BLACK
6
CONTINUOUS
10
137.45
20
-118.496
11
137.545
21
-118.686
0
LINE
8
BLACK
6
CONTINUOUS
10
137.545
20
-118.686
11
137.64
21
-119.067
0
LINE
8
BLACK
6
CONTINUOUS
10
137.64
20
-119.067
11
137.64
21
-119.543
0
LINE
8
BLACK
6
CONTINUOUS
10
137.64
20
-119.543
11
137.545
21
-119.924
0
LINE
8
BLACK
6
CONTINUOUS
10
137.545
20
-119.924
11
137.45
21
-120.115
0
LINE
8
BLACK
6
CONTINUOUS
10
137.45
20
-120.115
11
137.355
21
-120.21
0
LINE
8
BLACK
6
CONTINUOUS
10
137.355
20
-120.21
11
137.164
21
-120.305
0
LINE
8
BLACK
6
CONTINUOUS
10
137.164
20
-120.305
11
136.974
21
-120.305
0
LINE
8
BLACK
6
CONTINUOUS
10
136.974
20
-120.305
11
136.783
21
-120.21
0
LINE
8
BLACK
6
CONTINUOUS
10
136.783
20
-120.21
11
136.688
21
-120.115
0
LINE
8
BLACK
6
CONTINUOUS
10
136.688
20
-120.115
11
136.593
21
-119.924
0
LINE
8
BLACK
6
CONTINUOUS
10
136.593
20
-119.924
11
136.498
21
-119.543
0
LINE
8
BLACK
6
CONTINUOUS
10
136.498
20
-119.543
11
136.498
21
-119.067
0
LINE
8
BLACK
6
CONTINUOUS
10
136.498
20
-119.067
11
136.593
21
-118.686
0
LINE
8
BLACK
6
CONTINUOUS
10
136.593
20
-118.686
11
136.688
21
-118.496
0
LINE
8
BLACK
6
CONTINUOUS
10
136.688
20
-118.496
11
136.783
21
-118.401
0
LINE
8
BLACK
6
CONTINUOUS
10
136.783
20
-118.401
11
136.974
21
-118.305
0
LINE
8
BLACK
6
CONTINUOUS
10
138.498
20
-120.305
11
138.498
21
-118.972
0
LINE
8
BLACK
6
CONTINUOUS
10
138.498
20
-119.163
11
138.593
21
-119.067
0
LINE
8
BLACK
6
CONTINUOUS
10
138.593
20
-119.067
11
138.783
21
-118.972
0
LINE
8
BLACK
6
CONTINUOUS
10
138.783
20
-118.972
11
139.069
21
-118.972
0
LINE
8
BLACK
6
CONTINUOUS
10
139.069
20
-118.972
11
139.26
21
-119.067
0
LINE
8
BLACK
6
CONTINUOUS
10
139.26
20
-119.067
11
139.355
21
-119.258
0
LINE
8
BLACK
6
CONTINUOUS
10
139.355
20
-119.258
11
139.355
21
-120.305
0
LINE
8
BLACK
6
CONTINUOUS
10
139.355
20
-119.258
11
139.45
21
-119.067
0
LINE
8
BLACK
6
CONTINUOUS
10
139.45
20
-119.067
11
139.64
21
-118.972
0
LINE
8
BLACK
6
CONTINUOUS
10
139.64
20
-118.972
11
139.926
21
-118.972
0
LINE
8
BLACK
6
CONTINUOUS
10
139.926
20
-118.972
11
140.117
21
-119.067
0
LINE
8
BLACK
6
CONTINUOUS
10
140.117
20
-119.067
11
140.212
21
-119.258
0
LINE
8
BLACK
6
CONTINUOUS
10
140.212
20
-119.258
11
140.212
21
-120.305
0
LINE
8
BLACK
6
CONTINUOUS
10
141.164
20
-120.305
11
141.164
21
-118.972
0
LINE
8
BLACK
6
CONTINUOUS
10
141.164
20
-119.163
11
141.26
21
-119.067
0
LINE
8
BLACK
6
CONTINUOUS
10
141.26
20
-119.067
11
141.45
21
-118.972
0
LINE
8
BLACK
6
CONTINUOUS
10
141.45
20
-118.972
11
141.736
21
-118.972
0
LINE
8
BLACK
6
CONTINUOUS
10
141.736
20
-118.972
11
141.926
21
-119.067
0
LINE
8
BLACK
6
CONTINUOUS
10
141.926
20
-119.067
11
142.021
21
-119.258
0
LINE
8
BLACK
6
CONTINUOUS
10
142.021
20
-119.258
11
142.021
21
-120.305
0
LINE
8
BLACK
6
CONTINUOUS
10
142.021
20
-119.258
11
142.117
21
-119.067
0
LINE
8
BLACK
6
CONTINUOUS
10
142.117
20
-119.067
11
142.307
21
-118.972
0
LINE
8
BLACK
6
CONTINUOUS
10
142.307
20
-118.972
11
142.593
21
-118.972
0
LINE
8
BLACK
6
CONTINUOUS
10
142.593
20
-118.972
11
142.783
21
-119.067
0
LINE
8
BLACK
6
CONTINUOUS
10
142.783
20
-119.067
11
142.879
21
-119.258
0
LINE
8
BLACK
6
CONTINUOUS
10
142.879
20
-119.258
11
142.879
21
-120.305
0
LINE
8
BLACK
6
CONTINUOUS
10
146.46
20
-118.21
11
144.745
21
-120.782
0
LINE
8
BLACK
6
CONTINUOUS
10
148.707
20
-118.305
11
148.898
21
-118.305
0
LINE
8
BLACK
6
CONTINUOUS
10
148.898
20
-118.305
11
149.088
21
-118.401
0
LINE
8
BLACK
6
CONTINUOUS
10
149.088
20
-118.401
11
149.183
21
-118.496
0
LINE
8
BLACK
6
CONTINUOUS
10
149.183
20
-118.496
11
149.279
21
-118.686
0
LINE
8
BLACK
6
CONTINUOUS
10
149.279
20
-118.686
11
149.374
21
-119.067
0
LINE
8
BLACK
6
CONTINUOUS
10
149.374
20
-119.067
11
149.374
21
-119.543
0
LINE
8
BLACK
6
CONTINUOUS
10
149.374
20
-119.543
11
149.279
21
-119.924
0
LINE
8
BLACK
6
CONTINUOUS
10
149.279
20
-119.924
11
149.183
21
-120.115
0
LINE
8
BLACK
6
CONTINUOUS
10
149.183
20
-120.115
11
149.088
21
-120.21
0
LINE
8
BLACK
6
CONTINUOUS
10
149.088
20
-120.21
11
148.898
21
-120.305
0
LINE
8
BLACK
6
CONTINUOUS
10
148.898
20
-120.305
11
148.707
21
-120.305
0
LINE
8
BLACK
6
CONTINUOUS
10
148.707
20
-120.305
11
148.517
21
-120.21
0
LINE
8
BLACK
6
CONTINUOUS
10
148.517
20
-120.21
11
148.421
21
-120.115
0
LINE
8
BLACK
6
CONTINUOUS
10
148.421
20
-120.115
11
148.326
21
-119.924
0
LINE
8
BLACK
6
CONTINUOUS
10
148.326
20
-119.924
11
148.231
21
-119.543
0
LINE
8
BLACK
6
CONTINUOUS
10
148.231
20
-119.543
11
148.231
21
-119.067
0
LINE
8
BLACK
6
CONTINUOUS
10
148.231
20
-119.067
11
148.326
21
-118.686
0
LINE
8
BLACK
6
CONTINUOUS
10
148.326
20
-118.686
11
148.421
21
-118.496
0
LINE
8
BLACK
6
CONTINUOUS
10
148.421
20
-118.496
11
148.517
21
-118.401
0
LINE
8
BLACK
6
CONTINUOUS
10
148.517
20
-118.401
11
148.707
21
-118.305
0
LINE
8
BLACK
6
CONTINUOUS
10
150.231
20
-120.115
11
150.326
21
-120.21
0
LINE
8
BLACK
6
CONTINUOUS
10
150.326
20
-120.21
11
150.231
21
-120.305
0
LINE
8
BLACK
6
CONTINUOUS
10
150.231
20
-120.305
11
150.136
21
-120.21
0
LINE
8
BLACK
6
CONTINUOUS
10
150.136
20
-120.21
11
150.231
21
-120.115
0
LINE
8
BLACK
6
CONTINUOUS
10
150.231
20
-120.115
11
150.231
21
-120.305
0
LINE
8
BLACK
6
CONTINUOUS
10
151.564
20
-118.305
11
151.755
21
-118.305
0
LINE
8
BLACK
6
CONTINUOUS
10
151.755
20
-118.305
11
151.945
21
-118.401
0
LINE
8
BLACK
6
CONTINUOUS
10
151.945
20
-118.401
11
152.04
21
-118.496
0
LINE
8
BLACK
6
CONTINUOUS
10
152.04
20
-118.496
11
152.136
21
-118.686
0
LINE
8
BLACK
6
CONTINUOUS
10
152.136
20
-118.686
11
152.231
21
-119.067
0
LINE
8
BLACK
6
CONTINUOUS
10
152.231
20
-119.067
11
152.231
21
-119.543
0
LINE
8
BLACK
6
CONTINUOUS
10
152.231
20
-119.543
11
152.136
21
-119.924
0
LINE
8
BLACK
6
CONTINUOUS
10
152.136
20
-119.924
11
152.04
21
-120.115
0
LINE
8
BLACK
6
CONTINUOUS
10
152.04
20
-120.115
11
151.945
21
-120.21
0
LINE
8
BLACK
6
CONTINUOUS
10
151.945
20
-120.21
11
151.755
21
-120.305
0
LINE
8
BLACK
6
CONTINUOUS
10
151.755
20
-120.305
11
151.564
21
-120.305
0
LINE
8
BLACK
6
CONTINUOUS
10
151.564
20
-120.305
11
151.374
21
-120.21
0
LINE
8
BLACK
6
CONTINUOUS
10
151.374
20
-120.21
11
151.279
21
-120.115
0
LINE
8
BLACK
6
CONTINUOUS
10
151.279
20
-120.115
11
151.183
21
-119.924
0
LINE
8
BLACK
6
CONTINUOUS
10
151.183
20
-119.924
11
151.088
21
-119.543
0
LINE
8
BLACK
6
CONTINUOUS
10
151.088
20
-119.543
11
151.088
21
-119.067
0
LINE
8
BLACK
6
CONTINUOUS
10
151.088
20
-119.067
11
151.183
21
-118.686
0
LINE
8
BLACK
6
CONTINUOUS
10
151.183
20
-118.686
11
151.279
21
-118.496
0
LINE
8
BLACK
6
CONTINUOUS
10
151.279
20
-118.496
11
151.374
21
-118.401
0
LINE
8
BLACK
6
CONTINUOUS
10
151.374
20
-118.401
11
151.564
21
-118.305
0
LINE
8
BLACK
6
CONTINUOUS
10
153.183
20
-120.305
11
153.564
21
-120.305
0
LINE
8
BLACK
6
CONTINUOUS
10
153.564
20
-120.305
11
153.755
21
-120.21
0
LINE
8
BLACK
6
CONTINUOUS
10
153.755
20
-120.21
11
153.85
21
-120.115
0
LINE
8
BLACK
6
CONTINUOUS
10
153.85
20
-120.115
11
154.04
21
-119.829
0
LINE
8
BLACK
6
CONTINUOUS
10
154.04
20
-119.829
11
154.136
21
-119.448
0
LINE
8
BLACK
6
CONTINUOUS
10
154.136
20
-119.448
11
154.136
21
-118.686
0
LINE
8
BLACK
6
CONTINUOUS
10
154.136
20
-118.686
11
154.04
21
-118.496
0
LINE
8
BLACK
6
CONTINUOUS
10
154.04
20
-118.496
11
153.945
21
-118.401
0
LINE
8
BLACK
6
CONTINUOUS
10
153.945
20
-118.401
11
153.755
21
-118.305
0
LINE
8
BLACK
6
CONTINUOUS
10
153.755
20
-118.305
11
153.374
21
-118.305
0
LINE
8
BLACK
6
CONTINUOUS
10
153.374
20
-118.305
11
153.183
21
-118.401
0
LINE
8
BLACK
6
CONTINUOUS
10
153.183
20
-118.401
11
153.088
21
-118.496
0
LINE
8
BLACK
6
CONTINUOUS
10
153.088
20
-118.496
11
152.993
21
-118.686
0
LINE
8
BLACK
6
CONTINUOUS
10
152.993
20
-118.686
11
152.993
21
-119.163
0
LINE
8
BLACK
6
CONTINUOUS
10
152.993
20
-119.163
11
153.088
21
-119.353
0
LINE
8
BLACK
6
CONTINUOUS
10
153.088
20
-119.353
11
153.183
21
-119.448
0
LINE
8
BLACK
6
CONTINUOUS
10
153.183
20
-119.448
11
153.374
21
-119.543
0
LINE
8
BLACK
6
CONTINUOUS
10
153.374
20
-119.543
11
153.755
21
-119.543
0
LINE
8
BLACK
6
CONTINUOUS
10
153.755
20
-119.543
11
153.945
21
-119.448
0
LINE
8
BLACK
6
CONTINUOUS
10
153.945
20
-119.448
11
154.04
21
-119.353
0
LINE
8
BLACK
6
CONTINUOUS
10
154.04
20
-119.353
11
154.136
21
-119.163
0
LINE
8
BLACK
6
CONTINUOUS
10
155.279
20
-119.163
11
155.088
21
-119.067
0
LINE
8
BLACK
6
CONTINUOUS
10
155.088
20
-119.067
11
154.993
21
-118.972
0
LINE
8
BLACK
6
CONTINUOUS
10
154.993
20
-118.972
11
154.898
21
-118.782
0
LINE
8
BLACK
6
CONTINUOUS
10
154.898
20
-118.782
11
154.898
21
-118.686
0
LINE
8
BLACK
6
CONTINUOUS
10
154.898
20
-118.686
11
154.993
21
-118.496
0
LINE
8
BLACK
6
CONTINUOUS
10
154.993
20
-118.496
11
155.088
21
-118.401
0
LINE
8
BLACK
6
CONTINUOUS
10
155.088
20
-118.401
11
155.279
21
-118.305
0
LINE
8
BLACK
6
CONTINUOUS
10
155.279
20
-118.305
11
155.66
21
-118.305
0
LINE
8
BLACK
6
CONTINUOUS
10
155.66
20
-118.305
11
155.85
21
-118.401
0
LINE
8
BLACK
6
CONTINUOUS
10
155.85
20
-118.401
11
155.945
21
-118.496
0
LINE
8
BLACK
6
CONTINUOUS
10
155.945
20
-118.496
11
156.04
21
-118.686
0
LINE
8
BLACK
6
CONTINUOUS
10
156.04
20
-118.686
11
156.04
21
-118.782
0
LINE
8
BLACK
6
CONTINUOUS
10
156.04
20
-118.782
11
155.945
21
-118.972
0
LINE
8
BLACK
6
CONTINUOUS
10
155.945
20
-118.972
11
155.85
21
-119.067
0
LINE
8
BLACK
6
CONTINUOUS
10
155.85
20
-119.067
11
155.66
21
-119.163
0
LINE
8
BLACK
6
CONTINUOUS
10
155.66
20
-119.163
11
155.279
21
-119.163
0
LINE
8
BLACK
6
CONTINUOUS
10
155.279
20
-119.163
11
155.088
21
-119.258
0
LINE
8
BLACK
6
CONTINUOUS
10
155.088
20
-119.258
11
154.993
21
-119.353
0
LINE
8
BLACK
6
CONTINUOUS
10
154.993
20
-119.353
11
154.898
21
-119.543
0
LINE
8
BLACK
6
CONTINUOUS
10
154.898
20
-119.543
11
154.898
21
-119.924
0
LINE
8
BLACK
6
CONTINUOUS
10
154.898
20
-119.924
11
154.993
21
-120.115
0
LINE
8
BLACK
6
CONTINUOUS
10
154.993
20
-120.115
11
155.088
21
-120.21
0
LINE
8
BLACK
6
CONTINUOUS
10
155.088
20
-120.21
11
155.279
21
-120.305
0
LINE
8
BLACK
6
CONTINUOUS
10
155.279
20
-120.305
11
155.66
21
-120.305
0
LINE
8
BLACK
6
CONTINUOUS
10
155.66
20
-120.305
11
155.85
21
-120.21
0
LINE
8
BLACK
6
CONTINUOUS
10
155.85
20
-120.21
11
155.945
21
-120.115
0
LINE
8
BLACK
6
CONTINUOUS
10
155.945
20
-120.115
11
156.04
21
-119.924
0
LINE
8
BLACK
6
CONTINUOUS
10
156.04
20
-119.924
11
156.04
21
-119.543
0
LINE
8
BLACK
6
CONTINUOUS
10
156.04
20
-119.543
11
155.945
21
-119.353
0
LINE
8
BLACK
6
CONTINUOUS
10
155.945
20
-119.353
11
155.85
21
-119.258
0
LINE
8
BLACK
6
CONTINUOUS
10
155.85
20
-119.258
11
155.66
21
-119.163
0
LINE
8
BLACK
6
CONTINUOUS
10
157.755
20
-118.972
11
157.755
21
-120.305
0
LINE
8
BLACK
6
CONTINUOUS
10
157.279
20
-118.21
11
156.802
21
-119.639
0
LINE
8
BLACK
6
CONTINUOUS
10
156.802
20
-119.639
11
158.04
21
-119.639
0
LINE
8
BLACK
6
CONTINUOUS
10
158.707
20
-118.305
11
158.707
21
-118.686
0
LINE
8
BLACK
6
CONTINUOUS
10
159.469
20
-118.305
11
159.469
21
-118.686
0
LINE
8
BLACK
6
CONTINUOUS
10
162.098
20
-121.067
11
162.002
21
-120.972
0
LINE
8
BLACK
6
CONTINUOUS
10
162.002
20
-120.972
11
161.812
21
-120.686
0
LINE
8
BLACK
6
CONTINUOUS
10
161.812
20
-120.686
11
161.717
21
-120.496
0
LINE
8
BLACK
6
CONTINUOUS
10
161.717
20
-120.496
11
161.621
21
-120.21
0
LINE
8
BLACK
6
CONTINUOUS
10
161.621
20
-120.21
11
161.526
21
-119.734
0
LINE
8
BLACK
6
CONTINUOUS
10
161.526
20
-119.734
11
161.526
21
-119.353
0
LINE
8
BLACK
6
CONTINUOUS
10
161.526
20
-119.353
11
161.621
21
-118.877
0
LINE
8
BLACK
6
CONTINUOUS
10
161.621
20
-118.877
11
161.717
21
-118.591
0
LINE
8
BLACK
6
CONTINUOUS
10
161.717
20
-118.591
11
161.812
21
-118.401
0
LINE
8
BLACK
6
CONTINUOUS
10
161.812
20
-118.401
11
162.002
21
-118.115
0
LINE
8
BLACK
6
CONTINUOUS
10
162.002
20
-118.115
11
162.098
21
-118.02
0
LINE
8
BLACK
6
CONTINUOUS
10
163.717
20
-118.972
11
163.717
21
-120.305
0
LINE
8
BLACK
6
CONTINUOUS
10
163.24
20
-118.21
11
162.764
21
-119.639
0
LINE
8
BLACK
6
CONTINUOUS
10
162.764
20
-119.639
11
164.002
21
-119.639
0
LINE
8
BLACK
6
CONTINUOUS
10
165.964
20
-120.305
11
165.964
21
-118.305
0
LINE
8
BLACK
6
CONTINUOUS
10
166.821
20
-120.305
11
166.821
21
-119.258
0
LINE
8
BLACK
6
CONTINUOUS
10
166.821
20
-119.258
11
166.726
21
-119.067
0
LINE
8
BLACK
6
CONTINUOUS
10
166.726
20
-119.067
11
166.536
21
-118.972
0
LINE
8
BLACK
6
CONTINUOUS
10
166.536
20
-118.972
11
166.25
21
-118.972
0
LINE
8
BLACK
6
CONTINUOUS
10
166.25
20
-118.972
11
166.06
21
-119.067
0
LINE
8
BLACK
6
CONTINUOUS
10
166.06
20
-119.067
11
165.964
21
-119.163
0
LINE
8
BLACK
6
CONTINUOUS
10
168.06
20
-120.305
11
167.869
21
-120.21
0
LINE
8
BLACK
6
CONTINUOUS
10
167.869
20
-120.21
11
167.774
21
-120.115
0
LINE
8
BLACK
6
CONTINUOUS
10
167.774
20
-120.115
11
167.679
21
-119.924
0
LINE
8
BLACK
6
CONTINUOUS
10
167.679
20
-119.924
11
167.679
21
-119.353
0
LINE
8
BLACK
6
CONTINUOUS
10
167.679
20
-119.353
11
167.774
21
-119.163
0
LINE
8
BLACK
6
CONTINUOUS
10
167.774
20
-119.163
11
167.869
21
-119.067
0
LINE
8
BLACK
6
CONTINUOUS
10
167.869
20
-119.067
11
168.06
21
-118.972
0
LINE
8
BLACK
6
CONTINUOUS
10
168.06
20
-118.972
11
168.345
21
-118.972
0
LINE
8
BLACK
6
CONTINUOUS
10
168.345
20
-118.972
11
168.536
21
-119.067
0
LINE
8
BLACK
6
CONTINUOUS
10
168.536
20
-119.067
11
168.631
21
-119.163
0
LINE
8
BLACK
6
CONTINUOUS
10
168.631
20
-119.163
11
168.726
21
-119.353
0
LINE
8
BLACK
6
CONTINUOUS
10
168.726
20
-119.353
11
168.726
21
-119.924
0
LINE
8
BLACK
6
CONTINUOUS
10
168.726
20
-119.924
11
168.631
21
-120.115
0
LINE
8
BLACK
6
CONTINUOUS
10
168.631
20
-120.115
11
168.536
21
-120.21
0
LINE
8
BLACK
6
CONTINUOUS
10
168.536
20
-120.21
11
168.345
21
-120.305
0
LINE
8
BLACK
6
CONTINUOUS
10
168.345
20
-120.305
11
168.06
21
-120.305
0
LINE
8
BLACK
6
CONTINUOUS
10
169.869
20
-120.305
11
169.679
21
-120.21
0
LINE
8
BLACK
6
CONTINUOUS
10
169.679
20
-120.21
11
169.583
21
-120.02
0
LINE
8
BLACK
6
CONTINUOUS
10
169.583
20
-120.02
11
169.583
21
-118.305
0
LINE
8
BLACK
6
CONTINUOUS
10
171.393
20
-120.21
11
171.202
21
-120.305
0
LINE
8
BLACK
6
CONTINUOUS
10
171.202
20
-120.305
11
170.821
21
-120.305
0
LINE
8
BLACK
6
CONTINUOUS
10
170.821
20
-120.305
11
170.631
21
-120.21
0
LINE
8
BLACK
6
CONTINUOUS
10
170.631
20
-120.21
11
170.536
21
-120.02
0
LINE
8
BLACK
6
CONTINUOUS
10
170.536
20
-120.02
11
170.536
21
-119.258
0
LINE
8
BLACK
6
CONTINUOUS
10
170.536
20
-119.258
11
170.631
21
-119.067
0
LINE
8
BLACK
6
CONTINUOUS
10
170.631
20
-119.067
11
170.821
21
-118.972
0
LINE
8
BLACK
6
CONTINUOUS
10
170.821
20
-118.972
11
171.202
21
-118.972
0
LINE
8
BLACK
6
CONTINUOUS
10
171.202
20
-118.972
11
171.393
21
-119.067
0
LINE
8
BLACK
6
CONTINUOUS
10
171.393
20
-119.067
11
171.488
21
-119.258
0
LINE
8
BLACK
6
CONTINUOUS
10
171.488
20
-119.258
11
171.488
21
-119.448
0
LINE
8
BLACK
6
CONTINUOUS
10
171.488
20
-119.448
11
170.536
21
-119.639
0
LINE
8
BLACK
6
CONTINUOUS
10
172.25
20
-120.21
11
172.44
21
-120.305
0
LINE
8
BLACK
6
CONTINUOUS
10
172.44
20
-120.305
11
172.821
21
-120.305
0
LINE
8
BLACK
6
CONTINUOUS
10
172.821
20
-120.305
11
173.012
21
-120.21
0
LINE
8
BLACK
6
CONTINUOUS
10
173.012
20
-120.21
11
173.107
21
-120.02
0
LINE
8
BLACK
6
CONTINUOUS
10
173.107
20
-120.02
11
173.107
21
-119.924
0
LINE
8
BLACK
6
CONTINUOUS
10
173.107
20
-119.924
11
173.012
21
-119.734
0
LINE
8
BLACK
6
CONTINUOUS
10
173.012
20
-119.734
11
172.821
21
-119.639
0
LINE
8
BLACK
6
CONTINUOUS
10
172.821
20
-119.639
11
172.536
21
-119.639
0
LINE
8
BLACK
6
CONTINUOUS
10
172.536
20
-119.639
11
172.345
21
-119.543
0
LINE
8
BLACK
6
CONTINUOUS
10
172.345
20
-119.543
11
172.25
21
-119.353
0
LINE
8
BLACK
6
CONTINUOUS
10
172.25
20
-119.353
11
172.25
21
-119.258
0
LINE
8
BLACK
6
CONTINUOUS
10
172.25
20
-119.258
11
172.345
21
-119.067
0
LINE
8
BLACK
6
CONTINUOUS
10
172.345
20
-119.067
11
172.536
21
-118.972
0
LINE
8
BLACK
6
CONTINUOUS
10
172.536
20
-118.972
11
172.821
21
-118.972
0
LINE
8
BLACK
6
CONTINUOUS
10
172.821
20
-118.972
11
173.012
21
-119.067
0
LINE
8
BLACK
6
CONTINUOUS
10
173.774
20
-121.067
11
173.869
21
-120.972
0
LINE
8
BLACK
6
CONTINUOUS
10
173.869
20
-120.972
11
174.06
21
-120.686
0
LINE
8
BLACK
6
CONTINUOUS
10
174.06
20
-120.686
11
174.155
21
-120.496
0
LINE
8
BLACK
6
CONTINUOUS
10
174.155
20
-120.496
11
174.25
21
-120.21
0
LINE
8
BLACK
6
CONTINUOUS
10
174.25
20
-120.21
11
174.345
21
-119.734
0
LINE
8
BLACK
6
CONTINUOUS
10
174.345
20
-119.734
11
174.345
21
-119.353
0
LINE
8
BLACK
6
CONTINUOUS
10
174.345
20
-119.353
11
174.25
21
-118.877
0
LINE
8
BLACK
6
CONTINUOUS
10
174.25
20
-118.877
11
174.155
21
-118.591
0
LINE
8
BLACK
6
CONTINUOUS
10
174.155
20
-118.591
11
174.06
21
-118.401
0
LINE
8
BLACK
6
CONTINUOUS
10
174.06
20
-118.401
11
173.869
21
-118.115
0
LINE
8
BLACK
6
CONTINUOUS
10
173.869
20
-118.115
11
173.774
21
-118.02
0
LINE
8
BLACK
6
CONTINUOUS
10
177.069
20
-121.067
11
176.974
21
-120.972
0
LINE
8
BLACK
6
CONTINUOUS
10
176.974
20
-120.972
11
176.783
21
-120.686
0
LINE
8
BLACK
6
CONTINUOUS
10
176.783
20
-120.686
11
176.688
21
-120.496
0
LINE
8
BLACK
6
CONTINUOUS
10
176.688
20
-120.496
11
176.593
21
-120.21
0
LINE
8
BLACK
6
CONTINUOUS
10
176.593
20
-120.21
11
176.498
21
-119.734
0
LINE
8
BLACK
6
CONTINUOUS
10
176.498
20
-119.734
11
176.498
21
-119.353
0
LINE
8
BLACK
6
CONTINUOUS
10
176.498
20
-119.353
11
176.593
21
-118.877
0
LINE
8
BLACK
6
CONTINUOUS
10
176.593
20
-118.877
11
176.688
21
-118.591
0
LINE
8
BLACK
6
CONTINUOUS
10
176.688
20
-118.591
11
176.783
21
-118.401
0
LINE
8
BLACK
6
CONTINUOUS
10
176.783
20
-118.401
11
176.974
21
-118.115
0
LINE
8
BLACK
6
CONTINUOUS
10
176.974
20
-118.115
11
177.069
21
-118.02
0
LINE
8
BLACK
6
CONTINUOUS
10
177.831
20
-118.972
11
177.831
21
-120.305
0
LINE
8
BLACK
6
CONTINUOUS
10
177.831
20
-119.163
11
177.926
21
-119.067
0
LINE
8
BLACK
6
CONTINUOUS
10
177.926
20
-119.067
11
178.117
21
-118.972
0
LINE
8
BLACK
6
CONTINUOUS
10
178.117
20
-118.972
11
178.402
21
-118.972
0
LINE
8
BLACK
6
CONTINUOUS
10
178.402
20
-118.972
11
178.593
21
-119.067
0
LINE
8
BLACK
6
CONTINUOUS
10
178.593
20
-119.067
11
178.688
21
-119.258
0
LINE
8
BLACK
6
CONTINUOUS
10
178.688
20
-119.258
11
178.688
21
-120.305
0
LINE
8
BLACK
6
CONTINUOUS
10
179.926
20
-120.305
11
179.736
21
-120.21
0
LINE
8
BLACK
6
CONTINUOUS
10
179.736
20
-120.21
11
179.64
21
-120.115
0
LINE
8
BLACK
6
CONTINUOUS
10
179.64
20
-120.115
11
179.545
21
-119.924
0
LINE
8
BLACK
6
CONTINUOUS
10
179.545
20
-119.924
11
179.545
21
-119.353
0
LINE
8
BLACK
6
CONTINUOUS
10
179.545
20
-119.353
11
179.64
21
-119.163
0
LINE
8
BLACK
6
CONTINUOUS
10
179.64
20
-119.163
11
179.736
21
-119.067
0
LINE
8
BLACK
6
CONTINUOUS
10
179.736
20
-119.067
11
179.926
21
-118.972
0
LINE
8
BLACK
6
CONTINUOUS
10
179.926
20
-118.972
11
180.212
21
-118.972
0
LINE
8
BLACK
6
CONTINUOUS
10
180.212
20
-118.972
11
180.402
21
-119.067
0
LINE
8
BLACK
6
CONTINUOUS
10
180.402
20
-119.067
11
180.498
21
-119.163
0
LINE
8
BLACK
6
CONTINUOUS
10
180.498
20
-119.163
11
180.593
21
-119.353
0
LINE
8
BLACK
6
CONTINUOUS
10
180.593
20
-119.353
11
180.593
21
-119.924
0
LINE
8
BLACK
6
CONTINUOUS
10
180.593
20
-119.924
11
180.498
21
-120.115
0
LINE
8
BLACK
6
CONTINUOUS
10
180.498
20
-120.115
11
180.402
21
-120.21
0
LINE
8
BLACK
6
CONTINUOUS
10
180.402
20
-120.21
11
180.212
21
-120.305
0
LINE
8
BLACK
6
CONTINUOUS
10
180.212
20
-120.305
11
179.926
21
-120.305
0
LINE
8
BLACK
6
CONTINUOUS
10
181.164
20
-118.972
11
181.926
21
-118.972
0
LINE
8
BLACK
6
CONTINUOUS
10
181.45
20
-118.305
11
181.45
21
-120.02
0
LINE
8
BLACK
6
CONTINUOUS
10
181.45
20
-120.02
11
181.545
21
-120.21
0
LINE
8
BLACK
6
CONTINUOUS
10
181.545
20
-120.21
11
181.736
21
-120.305
0
LINE
8
BLACK
6
CONTINUOUS
10
181.736
20
-120.305
11
181.926
21
-120.305
0
LINE
8
BLACK
6
CONTINUOUS
10
183.793
20
-118.972
11
183.793
21
-120.972
0
LINE
8
BLACK
6
CONTINUOUS
10
183.793
20
-119.067
11
183.983
21
-118.972
0
LINE
8
BLACK
6
CONTINUOUS
10
183.983
20
-118.972
11
184.364
21
-118.972
0
LINE
8
BLACK
6
CONTINUOUS
10
184.364
20
-118.972
11
184.555
21
-119.067
0
LINE
8
BLACK
6
CONTINUOUS
10
184.555
20
-119.067
11
184.65
21
-119.163
0
LINE
8
BLACK
6
CONTINUOUS
10
184.65
20
-119.163
11
184.745
21
-119.353
0
LINE
8
BLACK
6
CONTINUOUS
10
184.745
20
-119.353
11
184.745
21
-119.924
0
LINE
8
BLACK
6
CONTINUOUS
10
184.745
20
-119.924
11
184.65
21
-120.115
0
LINE
8
BLACK
6
CONTINUOUS
10
184.65
20
-120.115
11
184.555
21
-120.21
0
LINE
8
BLACK
6
CONTINUOUS
10
184.555
20
-120.21
11
184.364
21
-120.305
0
LINE
8
BLACK
6
CONTINUOUS
10
184.364
20
-120.305
11
183.983
21
-120.305
0
LINE
8
BLACK
6
CONTINUOUS
10
183.983
20
-120.305
11
183.793
21
-120.21
0
LINE
8
BLACK
6
CONTINUOUS
10
185.888
20
-120.305
11
185.698
21
-120.21
0
LINE
8
BLACK
6
CONTINUOUS
10
185.698
20
-120.21
11
185.602
21
-120.02
0
LINE
8
BLACK
6
CONTINUOUS
10
185.602
20
-120.02
11
185.602
21
-118.305
0
LINE
8
BLACK
6
CONTINUOUS
10
187.507
20
-120.305
11
187.507
21
-119.258
0
LINE
8
BLACK
6
CONTINUOUS
10
187.507
20
-119.258
11
187.412
21
-119.067
0
LINE
8
BLACK
6
CONTINUOUS
10
187.412
20
-119.067
11
187.221
21
-118.972
0
LINE
8
BLACK
6
CONTINUOUS
10
187.221
20
-118.972
11
186.84
21
-118.972
0
LINE
8
BLACK
6
CONTINUOUS
10
186.84
20
-118.972
11
186.65
21
-119.067
0
LINE
8
BLACK
6
CONTINUOUS
10
187.507
20
-120.21
11
187.317
21
-120.305
0
LINE
8
BLACK
6
CONTINUOUS
10
187.317
20
-120.305
11
186.84
21
-120.305
0
LINE
8
BLACK
6
CONTINUOUS
10
186.84
20
-120.305
11
186.65
21
-120.21
0
LINE
8
BLACK
6
CONTINUOUS
10
186.65
20
-120.21
11
186.555
21
-120.02
0
LINE
8
BLACK
6
CONTINUOUS
10
186.555
20
-120.02
11
186.555
21
-119.829
0
LINE
8
BLACK
6
CONTINUOUS
10
186.555
20
-119.829
11
186.65
21
-119.639
0
LINE
8
BLACK
6
CONTINUOUS
10
186.65
20
-119.639
11
186.84
21
-119.543
0
LINE
8
BLACK
6
CONTINUOUS
10
186.84
20
-119.543
11
187.317
21
-119.543
0
LINE
8
BLACK
6
CONTINUOUS
10
187.317
20
-119.543
11
187.507
21
-119.448
0
LINE
8
BLACK
6
CONTINUOUS
10
188.174
20
-118.972
11
188.936
21
-118.972
0
LINE
8
BLACK
6
CONTINUOUS
10
188.46
20
-118.305
11
188.46
21
-120.02
0
LINE
8
BLACK
6
CONTINUOUS
10
188.46
20
-120.02
11
188.555
21
-120.21
0
LINE
8
BLACK
6
CONTINUOUS
10
188.555
20
-120.21
11
188.745
21
-120.305
0
LINE
8
BLACK
6
CONTINUOUS
10
188.745
20
-120.305
11
188.936
21
-120.305
0
LINE
8
BLACK
6
CONTINUOUS
10
190.364
20
-120.21
11
190.174
21
-120.305
0
LINE
8
BLACK
6
CONTINUOUS
10
190.174
20
-120.305
11
189.793
21
-120.305
0
LINE
8
BLACK
6
CONTINUOUS
10
189.793
20
-120.305
11
189.602
21
-120.21
0
LINE
8
BLACK
6
CONTINUOUS
10
189.602
20
-120.21
11
189.507
21
-120.02
0
LINE
8
BLACK
6
CONTINUOUS
10
189.507
20
-120.02
11
189.507
21
-119.258
0
LINE
8
BLACK
6
CONTINUOUS
10
189.507
20
-119.258
11
189.602
21
-119.067
0
LINE
8
BLACK
6
CONTINUOUS
10
189.602
20
-119.067
11
189.793
21
-118.972
0
LINE
8
BLACK
6
CONTINUOUS
10
189.793
20
-118.972
11
190.174
21
-118.972
0
LINE
8
BLACK
6
CONTINUOUS
10
190.174
20
-118.972
11
190.364
21
-119.067
0
LINE
8
BLACK
6
CONTINUOUS
10
190.364
20
-119.067
11
190.46
21
-119.258
0
LINE
8
BLACK
6
CONTINUOUS
10
190.46
20
-119.258
11
190.46
21
-119.448
0
LINE
8
BLACK
6
CONTINUOUS
10
190.46
20
-119.448
11
189.507
21
-119.639
0
LINE
8
BLACK
6
CONTINUOUS
10
192.174
20
-120.305
11
192.174
21
-118.305
0
LINE
8
BLACK
6
CONTINUOUS
10
192.174
20
-120.21
11
191.983
21
-120.305
0
LINE
8
BLACK
6
CONTINUOUS
10
191.983
20
-120.305
11
191.602
21
-120.305
0
LINE
8
BLACK
6
CONTINUOUS
10
191.602
20
-120.305
11
191.412
21
-120.21
0
LINE
8
BLACK
6
CONTINUOUS
10
191.412
20
-120.21
11
191.317
21
-120.115
0
LINE
8
BLACK
6
CONTINUOUS
10
191.317
20
-120.115
11
191.221
21
-119.924
0
LINE
8
BLACK
6
CONTINUOUS
10
191.221
20
-119.924
11
191.221
21
-119.353
0
LINE
8
BLACK
6
CONTINUOUS
10
191.221
20
-119.353
11
191.317
21
-119.163
0
LINE
8
BLACK
6
CONTINUOUS
10
191.317
20
-119.163
11
191.412
21
-119.067
0
LINE
8
BLACK
6
CONTINUOUS
10
191.412
20
-119.067
11
191.602
21
-118.972
0
LINE
8
BLACK
6
CONTINUOUS
10
191.602
20
-118.972
11
191.983
21
-118.972
0
LINE
8
BLACK
6
CONTINUOUS
10
191.983
20
-118.972
11
192.174
21
-119.067
0
LINE
8
BLACK
6
CONTINUOUS
10
192.936
20
-121.067
11
193.031
21
-120.972
0
LINE
8
BLACK
6
CONTINUOUS
10
193.031
20
-120.972
11
193.221
21
-120.686
0
LINE
8
BLACK
6
CONTINUOUS
10
193.221
20
-120.686
11
193.317
21
-120.496
0
LINE
8
BLACK
6
CONTINUOUS
10
193.317
20
-120.496
11
193.412
21
-120.21
0
LINE
8
BLACK
6
CONTINUOUS
10
193.412
20
-120.21
11
193.507
21
-119.734
0
LINE
8
BLACK
6
CONTINUOUS
10
193.507
20
-119.734
11
193.507
21
-119.353
0
LINE
8
BLACK
6
CONTINUOUS
10
193.507
20
-119.353
11
193.412
21
-118.877
0
LINE
8
BLACK
6
CONTINUOUS
10
193.412
20
-118.877
11
193.317
21
-118.591
0
LINE
8
BLACK
6
CONTINUOUS
10
193.317
20
-118.591
11
193.221
21
-118.401
0
LINE
8
BLACK
6
CONTINUOUS
10
193.221
20
-118.401
11
193.031
21
-118.115
0
LINE
8
BLACK
6
CONTINUOUS
10
193.031
20
-118.115
11
192.936
21
-118.02
0
LINE
8
BLACK
6
CONTINUOUS
10
126.45
20
-123.771
11
127.45
21
-122.771
0
LINE
8
BLACK
6
CONTINUOUS
10
127.45
20
-122.771
11
126.45
21
-121.771
0
LINE
8
BLACK
6
CONTINUOUS
10
126.45
20
-121.771
11
125.45
21
-122.771
0
LINE
8
BLACK
6
CONTINUOUS
10
125.45
20
-122.771
11
126.45
21
-123.771
0
LINE
8
BLACK
6
CONTINUOUS
10
129.736
20
-121.505
11
130.974
21
-121.505
0
LINE
8
BLACK
6
CONTINUOUS
10
130.974
20
-121.505
11
130.307
21
-122.267
0
LINE
8
BLACK
6
CONTINUOUS
10
130.307
20
-122.267
11
130.593
21
-122.267
0
LINE
8
BLACK
6
CONTINUOUS
10
130.593
20
-122.267
11
130.783
21
-122.363
0
LINE
8
BLACK
6
CONTINUOUS
10
130.783
20
-122.363
11
130.879
21
-122.458
0
LINE
8
BLACK
6
CONTINUOUS
10
130.879
20
-122.458
11
130.974
21
-122.648
0
LINE
8
BLACK
6
CONTINUOUS
10
130.974
20
-122.648
11
130.974
21
-123.124
0
LINE
8
BLACK
6
CONTINUOUS
10
130.974
20
-123.124
11
130.879
21
-123.315
0
LINE
8
BLACK
6
CONTINUOUS
10
130.879
20
-123.315
11
130.783
21
-123.41
0
LINE
8
BLACK
6
CONTINUOUS
10
130.783
20
-123.41
11
130.593
21
-123.505
0
LINE
8
BLACK
6
CONTINUOUS
10
130.593
20
-123.505
11
130.021
21
-123.505
0
LINE
8
BLACK
6
CONTINUOUS
10
130.021
20
-123.505
11
129.831
21
-123.41
0
LINE
8
BLACK
6
CONTINUOUS
10
129.831
20
-123.41
11
129.736
21
-123.315
0
LINE
8
BLACK
6
CONTINUOUS
10
131.831
20
-123.315
11
131.926
21
-123.41
0
LINE
8
BLACK
6
CONTINUOUS
10
131.926
20
-123.41
11
131.831
21
-123.505
0
LINE
8
BLACK
6
CONTINUOUS
10
131.831
20
-123.505
11
131.736
21
-123.41
0
LINE
8
BLACK
6
CONTINUOUS
10
131.736
20
-123.41
11
131.831
21
-123.315
0
LINE
8
BLACK
6
CONTINUOUS
10
131.831
20
-123.315
11
131.831
21
-123.505
0
LINE
8
BLACK
6
CONTINUOUS
10
133.164
20
-121.505
11
133.355
21
-121.505
0
LINE
8
BLACK
6
CONTINUOUS
10
133.355
20
-121.505
11
133.545
21
-121.601
0
LINE
8
BLACK
6
CONTINUOUS
10
133.545
20
-121.601
11
133.64
21
-121.696
0
LINE
8
BLACK
6
CONTINUOUS
10
133.64
20
-121.696
11
133.736
21
-121.886
0
LINE
8
BLACK
6
CONTINUOUS
10
133.736
20
-121.886
11
133.831
21
-122.267
0
LINE
8
BLACK
6
CONTINUOUS
10
133.831
20
-122.267
11
133.831
21
-122.743
0
LINE
8
BLACK
6
CONTINUOUS
10
133.831
20
-122.743
11
133.736
21
-123.124
0
LINE
8
BLACK
6
CONTINUOUS
10
133.736
20
-123.124
11
133.64
21
-123.315
0
LINE
8
BLACK
6
CONTINUOUS
10
133.64
20
-123.315
11
133.545
21
-123.41
0
LINE
8
BLACK
6
CONTINUOUS
10
133.545
20
-123.41
11
133.355
21
-123.505
0
LINE
8
BLACK
6
CONTINUOUS
10
133.355
20
-123.505
11
133.164
21
-123.505
0
LINE
8
BLACK
6
CONTINUOUS
10
133.164
20
-123.505
11
132.974
21
-123.41
0
LINE
8
BLACK
6
CONTINUOUS
10
132.974
20
-123.41
11
132.879
21
-123.315
0
LINE
8
BLACK
6
CONTINUOUS
10
132.879
20
-123.315
11
132.783
21
-123.124
0
LINE
8
BLACK
6
CONTINUOUS
10
132.783
20
-123.124
11
132.688
21
-122.743
0
LINE
8
BLACK
6
CONTINUOUS
10
132.688
20
-122.743
11
132.688
21
-122.267
0
LINE
8
BLACK
6
CONTINUOUS
10
132.688
20
-122.267
11
132.783
21
-121.886
0
LINE
8
BLACK
6
CONTINUOUS
10
132.783
20
-121.886
11
132.879
21
-121.696
0
LINE
8
BLACK
6
CONTINUOUS
10
132.879
20
-121.696
11
132.974
21
-121.601
0
LINE
8
BLACK
6
CONTINUOUS
10
132.974
20
-121.601
11
133.164
21
-121.505
0
LINE
8
BLACK
6
CONTINUOUS
10
135.069
20
-121.505
11
135.26
21
-121.505
0
LINE
8
BLACK
6
CONTINUOUS
10
135.26
20
-121.505
11
135.45
21
-121.601
0
LINE
8
BLACK
6
CONTINUOUS
10
135.45
20
-121.601
11
135.545
21
-121.696
0
LINE
8
BLACK
6
CONTINUOUS
10
135.545
20
-121.696
11
135.64
21
-121.886
0
LINE
8
BLACK
6
CONTINUOUS
10
135.64
20
-121.886
11
135.736
21
-122.267
0
LINE
8
BLACK
6
CONTINUOUS
10
135.736
20
-122.267
11
135.736
21
-122.743
0
LINE
8
BLACK
6
CONTINUOUS
10
135.736
20
-122.743
11
135.64
21
-123.124
0
LINE
8
BLACK
6
CONTINUOUS
10
135.64
20
-123.124
11
135.545
21
-123.315
0
LINE
8
BLACK
6
CONTINUOUS
10
135.545
20
-123.315
11
135.45
21
-123.41
0
LINE
8
BLACK
6
CONTINUOUS
10
135.45
20
-123.41
11
135.26
21
-123.505
0
LINE
8
BLACK
6
CONTINUOUS
10
135.26
20
-123.505
11
135.069
21
-123.505
0
LINE
8
BLACK
6
CONTINUOUS
10
135.069
20
-123.505
11
134.879
21
-123.41
0
LINE
8
BLACK
6
CONTINUOUS
10
134.879
20
-123.41
11
134.783
21
-123.315
0
LINE
8
BLACK
6
CONTINUOUS
10
134.783
20
-123.315
11
134.688
21
-123.124
0
LINE
8
BLACK
6
CONTINUOUS
10
134.688
20
-123.124
11
134.593
21
-122.743
0
LINE
8
BLACK
6
CONTINUOUS
10
134.593
20
-122.743
11
134.593
21
-122.267
0
LINE
8
BLACK
6
CONTINUOUS
10
134.593
20
-122.267
11
134.688
21
-121.886
0
LINE
8
BLACK
6
CONTINUOUS
10
134.688
20
-121.886
11
134.783
21
-121.696
0
LINE
8
BLACK
6
CONTINUOUS
10
134.783
20
-121.696
11
134.879
21
-121.601
0
LINE
8
BLACK
6
CONTINUOUS
10
134.879
20
-121.601
11
135.069
21
-121.505
0
LINE
8
BLACK
6
CONTINUOUS
10
136.974
20
-121.505
11
137.164
21
-121.505
0
LINE
8
BLACK
6
CONTINUOUS
10
137.164
20
-121.505
11
137.355
21
-121.601
0
LINE
8
BLACK
6
CONTINUOUS
10
137.355
20
-121.601
11
137.45
21
-121.696
0
LINE
8
BLACK
6
CONTINUOUS
10
137.45
20
-121.696
11
137.545
21
-121.886
0
LINE
8
BLACK
6
CONTINUOUS
10
137.545
20
-121.886
11
137.64
21
-122.267
0
LINE
8
BLACK
6
CONTINUOUS
10
137.64
20
-122.267
11
137.64
21
-122.743
0
LINE
8
BLACK
6
CONTINUOUS
10
137.64
20
-122.743
11
137.545
21
-123.124
0
LINE
8
BLACK
6
CONTINUOUS
10
137.545
20
-123.124
11
137.45
21
-123.315
0
LINE
8
BLACK
6
CONTINUOUS
10
137.45
20
-123.315
11
137.355
21
-123.41
0
LINE
8
BLACK
6
CONTINUOUS
10
137.355
20
-123.41
11
137.164
21
-123.505
0
LINE
8
BLACK
6
CONTINUOUS
10
137.164
20
-123.505
11
136.974
21
-123.505
0
LINE
8
BLACK
6
CONTINUOUS
10
136.974
20
-123.505
11
136.783
21
-123.41
0
LINE
8
BLACK
6
CONTINUOUS
10
136.783
20
-123.41
11
136.688
21
-123.315
0
LINE
8
BLACK
6
CONTINUOUS
10
136.688
20
-123.315
11
136.593
21
-123.124
0
LINE
8
BLACK
6
CONTINUOUS
10
136.593
20
-123.124
11
136.498
21
-122.743
0
LINE
8
BLACK
6
CONTINUOUS
10
136.498
20
-122.743
11
136.498
21
-122.267
0
LINE
8
BLACK
6
CONTINUOUS
10
136.498
20
-122.267
11
136.593
21
-121.886
0
LINE
8
BLACK
6
CONTINUOUS
10
136.593
20
-121.886
11
136.688
21
-121.696
0
LINE
8
BLACK
6
CONTINUOUS
10
136.688
20
-121.696
11
136.783
21
-121.601
0
LINE
8
BLACK
6
CONTINUOUS
10
136.783
20
-121.601
11
136.974
21
-121.505
0
LINE
8
BLACK
6
CONTINUOUS
10
138.498
20
-123.505
11
138.498
21
-122.172
0
LINE
8
BLACK
6
CONTINUOUS
10
138.498
20
-122.363
11
138.593
21
-122.267
0
LINE
8
BLACK
6
CONTINUOUS
10
138.593
20
-122.267
11
138.783
21
-122.172
0
LINE
8
BLACK
6
CONTINUOUS
10
138.783
20
-122.172
11
139.069
21
-122.172
0
LINE
8
BLACK
6
CONTINUOUS
10
139.069
20
-122.172
11
139.26
21
-122.267
0
LINE
8
BLACK
6
CONTINUOUS
10
139.26
20
-122.267
11
139.355
21
-122.458
0
LINE
8
BLACK
6
CONTINUOUS
10
139.355
20
-122.458
11
139.355
21
-123.505
0
LINE
8
BLACK
6
CONTINUOUS
10
139.355
20
-122.458
11
139.45
21
-122.267
0
LINE
8
BLACK
6
CONTINUOUS
10
139.45
20
-122.267
11
139.64
21
-122.172
0
LINE
8
BLACK
6
CONTINUOUS
10
139.64
20
-122.172
11
139.926
21
-122.172
0
LINE
8
BLACK
6
CONTINUOUS
10
139.926
20
-122.172
11
140.117
21
-122.267
0
LINE
8
BLACK
6
CONTINUOUS
10
140.117
20
-122.267
11
140.212
21
-122.458
0
LINE
8
BLACK
6
CONTINUOUS
10
140.212
20
-122.458
11
140.212
21
-123.505
0
LINE
8
BLACK
6
CONTINUOUS
10
141.164
20
-123.505
11
141.164
21
-122.172
0
LINE
8
BLACK
6
CONTINUOUS
10
141.164
20
-122.363
11
141.26
21
-122.267
0
LINE
8
BLACK
6
CONTINUOUS
10
141.26
20
-122.267
11
141.45
21
-122.172
0
LINE
8
BLACK
6
CONTINUOUS
10
141.45
20
-122.172
11
141.736
21
-122.172
0
LINE
8
BLACK
6
CONTINUOUS
10
141.736
20
-122.172
11
141.926
21
-122.267
0
LINE
8
BLACK
6
CONTINUOUS
10
141.926
20
-122.267
11
142.021
21
-122.458
0
LINE
8
BLACK
6
CONTINUOUS
10
142.021
20
-122.458
11
142.021
21
-123.505
0
LINE
8
BLACK
6
CONTINUOUS
10
142.021
20
-122.458
11
142.117
21
-122.267
0
LINE
8
BLACK
6
CONTINUOUS
10
142.117
20
-122.267
11
142.307
21
-122.172
0
LINE
8
BLACK
6
CONTINUOUS
10
142.307
20
-122.172
11
142.593
21
-122.172
0
LINE
8
BLACK
6
CONTINUOUS
10
142.593
20
-122.172
11
142.783
21
-122.267
0
LINE
8
BLACK
6
CONTINUOUS
10
142.783
20
-122.267
11
142.879
21
-122.458
0
LINE
8
BLACK
6
CONTINUOUS
10
142.879
20
-122.458
11
142.879
21
-123.505
0
LINE
8
BLACK
6
CONTINUOUS
10
146.46
20
-121.41
11
144.745
21
-123.982
0
LINE
8
BLACK
6
CONTINUOUS
10
148.707
20
-121.505
11
148.898
21
-121.505
0
LINE
8
BLACK
6
CONTINUOUS
10
148.898
20
-121.505
11
149.088
21
-121.601
0
LINE
8
BLACK
6
CONTINUOUS
10
149.088
20
-121.601
11
149.183
21
-121.696
0
LINE
8
BLACK
6
CONTINUOUS
10
149.183
20
-121.696
11
149.279
21
-121.886
0
LINE
8
BLACK
6
CONTINUOUS
10
149.279
20
-121.886
11
149.374
21
-122.267
0
LINE
8
BLACK
6
CONTINUOUS
10
149.374
20
-122.267
11
149.374
21
-122.743
0
LINE
8
BLACK
6
CONTINUOUS
10
149.374
20
-122.743
11
149.279
21
-123.124
0
LINE
8
BLACK
6
CONTINUOUS
10
149.279
20
-123.124
11
149.183
21
-123.315
0
LINE
8
BLACK
6
CONTINUOUS
10
149.183
20
-123.315
11
149.088
21
-123.41
0
LINE
8
BLACK
6
CONTINUOUS
10
149.088
20
-123.41
11
148.898
21
-123.505
0
LINE
8
BLACK
6
CONTINUOUS
10
148.898
20
-123.505
11
148.707
21
-123.505
0
LINE
8
BLACK
6
CONTINUOUS
10
148.707
20
-123.505
11
148.517
21
-123.41
0
LINE
8
BLACK
6
CONTINUOUS
10
148.517
20
-123.41
11
148.421
21
-123.315
0
LINE
8
BLACK
6
CONTINUOUS
10
148.421
20
-123.315
11
148.326
21
-123.124
0
LINE
8
BLACK
6
CONTINUOUS
10
148.326
20
-123.124
11
148.231
21
-122.743
0
LINE
8
BLACK
6
CONTINUOUS
10
148.231
20
-122.743
11
148.231
21
-122.267
0
LINE
8
BLACK
6
CONTINUOUS
10
148.231
20
-122.267
11
148.326
21
-121.886
0
LINE
8
BLACK
6
CONTINUOUS
10
148.326
20
-121.886
11
148.421
21
-121.696
0
LINE
8
BLACK
6
CONTINUOUS
10
148.421
20
-121.696
11
148.517
21
-121.601
0
LINE
8
BLACK
6
CONTINUOUS
10
148.517
20
-121.601
11
148.707
21
-121.505
0
LINE
8
BLACK
6
CONTINUOUS
10
150.231
20
-123.315
11
150.326
21
-123.41
0
LINE
8
BLACK
6
CONTINUOUS
10
150.326
20
-123.41
11
150.231
21
-123.505
0
LINE
8
BLACK
6
CONTINUOUS
10
150.231
20
-123.505
11
150.136
21
-123.41
0
LINE
8
BLACK
6
CONTINUOUS
10
150.136
20
-123.41
11
150.231
21
-123.315
0
LINE
8
BLACK
6
CONTINUOUS
10
150.231
20
-123.315
11
150.231
21
-123.505
0
LINE
8
BLACK
6
CONTINUOUS
10
152.231
20
-123.505
11
151.088
21
-123.505
0
LINE
8
BLACK
6
CONTINUOUS
10
151.66
20
-123.505
11
151.66
21
-121.505
0
LINE
8
BLACK
6
CONTINUOUS
10
151.66
20
-121.505
11
151.469
21
-121.791
0
LINE
8
BLACK
6
CONTINUOUS
10
151.469
20
-121.791
11
151.279
21
-121.982
0
LINE
8
BLACK
6
CONTINUOUS
10
151.279
20
-121.982
11
151.088
21
-122.077
0
LINE
8
BLACK
6
CONTINUOUS
10
154.136
20
-123.505
11
152.993
21
-123.505
0
LINE
8
BLACK
6
CONTINUOUS
10
153.564
20
-123.505
11
153.564
21
-121.505
0
LINE
8
BLACK
6
CONTINUOUS
10
153.564
20
-121.505
11
153.374
21
-121.791
0
LINE
8
BLACK
6
CONTINUOUS
10
153.374
20
-121.791
11
153.183
21
-121.982
0
LINE
8
BLACK
6
CONTINUOUS
10
153.183
20
-121.982
11
152.993
21
-122.077
0
LINE
8
BLACK
6
CONTINUOUS
10
155.279
20
-122.363
11
155.088
21
-122.267
0
LINE
8
BLACK
6
CONTINUOUS
10
155.088
20
-122.267
11
154.993
21
-122.172
0
LINE
8
BLACK
6
CONTINUOUS
10
154.993
20
-122.172
11
154.898
21
-121.982
0
LINE
8
BLACK
6
CONTINUOUS
10
154.898
20
-121.982
11
154.898
21
-121.886
0
LINE
8
BLACK
6
CONTINUOUS
10
154.898
20
-121.886
11
154.993
21
-121.696
0
LINE
8
BLACK
6
CONTINUOUS
10
154.993
20
-121.696
11
155.088
21
-121.601
0
LINE
8
BLACK
6
CONTINUOUS
10
155.088
20
-121.601
11
155.279
21
-121.505
0
LINE
8
BLACK
6
CONTINUOUS
10
155.279
20
-121.505
11
155.66
21
-121.505
0
LINE
8
BLACK
6
CONTINUOUS
10
155.66
20
-121.505
11
155.85
21
-121.601
0
LINE
8
BLACK
6
CONTINUOUS
10
155.85
20
-121.601
11
155.945
21
-121.696
0
LINE
8
BLACK
6
CONTINUOUS
10
155.945
20
-121.696
11
156.04
21
-121.886
0
LINE
8
BLACK
6
CONTINUOUS
10
156.04
20
-121.886
11
156.04
21
-121.982
0
LINE
8
BLACK
6
CONTINUOUS
10
156.04
20
-121.982
11
155.945
21
-122.172
0
LINE
8
BLACK
6
CONTINUOUS
10
155.945
20
-122.172
11
155.85
21
-122.267
0
LINE
8
BLACK
6
CONTINUOUS
10
155.85
20
-122.267
11
155.66
21
-122.363
0
LINE
8
BLACK
6
CONTINUOUS
10
155.66
20
-122.363
11
155.279
21
-122.363
0
LINE
8
BLACK
6
CONTINUOUS
10
155.279
20
-122.363
11
155.088
21
-122.458
0
LINE
8
BLACK
6
CONTINUOUS
10
155.088
20
-122.458
11
154.993
21
-122.553
0
LINE
8
BLACK
6
CONTINUOUS
10
154.993
20
-122.553
11
154.898
21
-122.743
0
LINE
8
BLACK
6
CONTINUOUS
10
154.898
20
-122.743
11
154.898
21
-123.124
0
LINE
8
BLACK
6
CONTINUOUS
10
154.898
20
-123.124
11
154.993
21
-123.315
0
LINE
8
BLACK
6
CONTINUOUS
10
154.993
20
-123.315
11
155.088
21
-123.41
0
LINE
8
BLACK
6
CONTINUOUS
10
155.088
20
-123.41
11
155.279
21
-123.505
0
LINE
8
BLACK
6
CONTINUOUS
10
155.279
20
-123.505
11
155.66
21
-123.505
0
LINE
8
BLACK
6
CONTINUOUS
10
155.66
20
-123.505
11
155.85
21
-123.41
0
LINE
8
BLACK
6
CONTINUOUS
10
155.85
20
-123.41
11
155.945
21
-123.315
0
LINE
8
BLACK
6
CONTINUOUS
10
155.945
20
-123.315
11
156.04
21
-123.124
0
LINE
8
BLACK
6
CONTINUOUS
10
156.04
20
-123.124
11
156.04
21
-122.743
0
LINE
8
BLACK
6
CONTINUOUS
10
156.04
20
-122.743
11
155.945
21
-122.553
0
LINE
8
BLACK
6
CONTINUOUS
10
155.945
20
-122.553
11
155.85
21
-122.458
0
LINE
8
BLACK
6
CONTINUOUS
10
155.85
20
-122.458
11
155.66
21
-122.363
0
LINE
8
BLACK
6
CONTINUOUS
10
157.945
20
-123.505
11
156.802
21
-123.505
0
LINE
8
BLACK
6
CONTINUOUS
10
157.374
20
-123.505
11
157.374
21
-121.505
0
LINE
8
BLACK
6
CONTINUOUS
10
157.374
20
-121.505
11
157.183
21
-121.791
0
LINE
8
BLACK
6
CONTINUOUS
10
157.183
20
-121.791
11
156.993
21
-121.982
0
LINE
8
BLACK
6
CONTINUOUS
10
156.993
20
-121.982
11
156.802
21
-122.077
0
LINE
8
BLACK
6
CONTINUOUS
10
158.707
20
-121.505
11
158.707
21
-121.886
0
LINE
8
BLACK
6
CONTINUOUS
10
159.469
20
-121.505
11
159.469
21
-121.886
0
LINE
8
BLACK
6
CONTINUOUS
10
162.098
20
-124.267
11
162.002
21
-124.172
0
LINE
8
BLACK
6
CONTINUOUS
10
162.002
20
-124.172
11
161.812
21
-123.886
0
LINE
8
BLACK
6
CONTINUOUS
10
161.812
20
-123.886
11
161.717
21
-123.696
0
LINE
8
BLACK
6
CONTINUOUS
10
161.717
20
-123.696
11
161.621
21
-123.41
0
LINE
8
BLACK
6
CONTINUOUS
10
161.621
20
-123.41
11
161.526
21
-122.934
0
LINE
8
BLACK
6
CONTINUOUS
10
161.526
20
-122.934
11
161.526
21
-122.553
0
LINE
8
BLACK
6
CONTINUOUS
10
161.526
20
-122.553
11
161.621
21
-122.077
0
LINE
8
BLACK
6
CONTINUOUS
10
161.621
20
-122.077
11
161.717
21
-121.791
0
LINE
8
BLACK
6
CONTINUOUS
10
161.717
20
-121.791
11
161.812
21
-121.601
0
LINE
8
BLACK
6
CONTINUOUS
10
161.812
20
-121.601
11
162.002
21
-121.315
0
LINE
8
BLACK
6
CONTINUOUS
10
162.002
20
-121.315
11
162.098
21
-121.22
0
LINE
8
BLACK
6
CONTINUOUS
10
162.764
20
-121.696
11
162.86
21
-121.601
0
LINE
8
BLACK
6
CONTINUOUS
10
162.86
20
-121.601
11
163.05
21
-121.505
0
LINE
8
BLACK
6
CONTINUOUS
10
163.05
20
-121.505
11
163.526
21
-121.505
0
LINE
8
BLACK
6
CONTINUOUS
10
163.526
20
-121.505
11
163.717
21
-121.601
0
LINE
8
BLACK
6
CONTINUOUS
10
163.717
20
-121.601
11
163.812
21
-121.696
0
LINE
8
BLACK
6
CONTINUOUS
10
163.812
20
-121.696
11
163.907
21
-121.886
0
LINE
8
BLACK
6
CONTINUOUS
10
163.907
20
-121.886
11
163.907
21
-122.077
0
LINE
8
BLACK
6
CONTINUOUS
10
163.907
20
-122.077
11
163.812
21
-122.363
0
LINE
8
BLACK
6
CONTINUOUS
10
163.812
20
-122.363
11
162.669
21
-123.505
0
LINE
8
BLACK
6
CONTINUOUS
10
162.669
20
-123.505
11
163.907
21
-123.505
0
LINE
8
BLACK
6
CONTINUOUS
10
165.964
20
-123.505
11
165.964
21
-121.505
0
LINE
8
BLACK
6
CONTINUOUS
10
166.821
20
-123.505
11
166.821
21
-122.458
0
LINE
8
BLACK
6
CONTINUOUS
10
166.821
20
-122.458
11
166.726
21
-122.267
0
LINE
8
BLACK
6
CONTINUOUS
10
166.726
20
-122.267
11
166.536
21
-122.172
0
LINE
8
BLACK
6
CONTINUOUS
10
166.536
20
-122.172
11
166.25
21
-122.172
0
LINE
8
BLACK
6
CONTINUOUS
10
166.25
20
-122.172
11
166.06
21
-122.267
0
LINE
8
BLACK
6
CONTINUOUS
10
166.06
20
-122.267
11
165.964
21
-122.363
0
LINE
8
BLACK
6
CONTINUOUS
10
168.06
20
-123.505
11
167.869
21
-123.41
0
LINE
8
BLACK
6
CONTINUOUS
10
167.869
20
-123.41
11
167.774
21
-123.315
0
LINE
8
BLACK
6
CONTINUOUS
10
167.774
20
-123.315
11
167.679
21
-123.124
0
LINE
8
BLACK
6
CONTINUOUS
10
167.679
20
-123.124
11
167.679
21
-122.553
0
LINE
8
BLACK
6
CONTINUOUS
10
167.679
20
-122.553
11
167.774
21
-122.363
0
LINE
8
BLACK
6
CONTINUOUS
10
167.774
20
-122.363
11
167.869
21
-122.267
0
LINE
8
BLACK
6
CONTINUOUS
10
167.869
20
-122.267
11
168.06
21
-122.172
0
LINE
8
BLACK
6
CONTINUOUS
10
168.06
20
-122.172
11
168.345
21
-122.172
0
LINE
8
BLACK
6
CONTINUOUS
10
168.345
20
-122.172
11
168.536
21
-122.267
0
LINE
8
BLACK
6
CONTINUOUS
10
168.536
20
-122.267
11
168.631
21
-122.363
0
LINE
8
BLACK
6
CONTINUOUS
10
168.631
20
-122.363
11
168.726
21
-122.553
0
LINE
8
BLACK
6
CONTINUOUS
10
168.726
20
-122.553
11
168.726
21
-123.124
0
LINE
8
BLACK
6
CONTINUOUS
10
168.726
20
-123.124
11
168.631
21
-123.315
0
LINE
8
BLACK
6
CONTINUOUS
10
168.631
20
-123.315
11
168.536
21
-123.41
0
LINE
8
BLACK
6
CONTINUOUS
10
168.536
20
-123.41
11
168.345
21
-123.505
0
LINE
8
BLACK
6
CONTINUOUS
10
168.345
20
-123.505
11
168.06
21
-123.505
0
LINE
8
BLACK
6
CONTINUOUS
10
169.869
20
-123.505
11
169.679
21
-123.41
0
LINE
8
BLACK
6
CONTINUOUS
10
169.679
20
-123.41
11
169.583
21
-123.22
0
LINE
8
BLACK
6
CONTINUOUS
10
169.583
20
-123.22
11
169.583
21
-121.505
0
LINE
8
BLACK
6
CONTINUOUS
10
171.393
20
-123.41
11
171.202
21
-123.505
0
LINE
8
BLACK
6
CONTINUOUS
10
171.202
20
-123.505
11
170.821
21
-123.505
0
LINE
8
BLACK
6
CONTINUOUS
10
170.821
20
-123.505
11
170.631
21
-123.41
0
LINE
8
BLACK
6
CONTINUOUS
10
170.631
20
-123.41
11
170.536
21
-123.22
0
LINE
8
BLACK
6
CONTINUOUS
10
170.536
20
-123.22
11
170.536
21
-122.458
0
LINE
8
BLACK
6
CONTINUOUS
10
170.536
20
-122.458
11
170.631
21
-122.267
0
LINE
8
BLACK
6
CONTINUOUS
10
170.631
20
-122.267
11
170.821
21
-122.172
0
LINE
8
BLACK
6
CONTINUOUS
10
170.821
20
-122.172
11
171.202
21
-122.172
0
LINE
8
BLACK
6
CONTINUOUS
10
171.202
20
-122.172
11
171.393
21
-122.267
0
LINE
8
BLACK
6
CONTINUOUS
10
171.393
20
-122.267
11
171.488
21
-122.458
0
LINE
8
BLACK
6
CONTINUOUS
10
171.488
20
-122.458
11
171.488
21
-122.648
0
LINE
8
BLACK
6
CONTINUOUS
10
171.488
20
-122.648
11
170.536
21
-122.839
0
LINE
8
BLACK
6
CONTINUOUS
10
172.25
20
-123.41
11
172.44
21
-123.505
0
LINE
8
BLACK
6
CONTINUOUS
10
172.44
20
-123.505
11
172.821
21
-123.505
0
LINE
8
BLACK
6
CONTINUOUS
10
172.821
20
-123.505
11
173.012
21
-123.41
0
LINE
8
BLACK
6
CONTINUOUS
10
173.012
20
-123.41
11
173.107
21
-123.22
0
LINE
8
BLACK
6
CONTINUOUS
10
173.107
20
-123.22
11
173.107
21
-123.124
0
LINE
8
BLACK
6
CONTINUOUS
10
173.107
20
-123.124
11
173.012
21
-122.934
0
LINE
8
BLACK
6
CONTINUOUS
10
173.012
20
-122.934
11
172.821
21
-122.839
0
LINE
8
BLACK
6
CONTINUOUS
10
172.821
20
-122.839
11
172.536
21
-122.839
0
LINE
8
BLACK
6
CONTINUOUS
10
172.536
20
-122.839
11
172.345
21
-122.743
0
LINE
8
BLACK
6
CONTINUOUS
10
172.345
20
-122.743
11
172.25
21
-122.553
0
LINE
8
BLACK
6
CONTINUOUS
10
172.25
20
-122.553
11
172.25
21
-122.458
0
LINE
8
BLACK
6
CONTINUOUS
10
172.25
20
-122.458
11
172.345
21
-122.267
0
LINE
8
BLACK
6
CONTINUOUS
10
172.345
20
-122.267
11
172.536
21
-122.172
0
LINE
8
BLACK
6
CONTINUOUS
10
172.536
20
-122.172
11
172.821
21
-122.172
0
LINE
8
BLACK
6
CONTINUOUS
10
172.821
20
-122.172
11
173.012
21
-122.267
0
LINE
8
BLACK
6
CONTINUOUS
10
173.774
20
-124.267
11
173.869
21
-124.172
0
LINE
8
BLACK
6
CONTINUOUS
10
173.869
20
-124.172
11
174.06
21
-123.886
0
LINE
8
BLACK
6
CONTINUOUS
10
174.06
20
-123.886
11
174.155
21
-123.696
0
LINE
8
BLACK
6
CONTINUOUS
10
174.155
20
-123.696
11
174.25
21
-123.41
0
LINE
8
BLACK
6
CONTINUOUS
10
174.25
20
-123.41
11
174.345
21
-122.934
0
LINE
8
BLACK
6
CONTINUOUS
10
174.345
20
-122.934
11
174.345
21
-122.553
0
LINE
8
BLACK
6
CONTINUOUS
10
174.345
20
-122.553
11
174.25
21
-122.077
0
LINE
8
BLACK
6
CONTINUOUS
10
174.25
20
-122.077
11
174.155
21
-121.791
0
LINE
8
BLACK
6
CONTINUOUS
10
174.155
20
-121.791
11
174.06
21
-121.601
0
LINE
8
BLACK
6
CONTINUOUS
10
174.06
20
-121.601
11
173.869
21
-121.315
0
LINE
8
BLACK
6
CONTINUOUS
10
173.869
20
-121.315
11
173.774
21
-121.22
0
LINE
8
BLACK
6
CONTINUOUS
10
177.069
20
-124.267
11
176.974
21
-124.172
0
LINE
8
BLACK
6
CONTINUOUS
10
176.974
20
-124.172
11
176.783
21
-123.886
0
LINE
8
BLACK
6
CONTINUOUS
10
176.783
20
-123.886
11
176.688
21
-123.696
0
LINE
8
BLACK
6
CONTINUOUS
10
176.688
20
-123.696
11
176.593
21
-123.41
0
LINE
8
BLACK
6
CONTINUOUS
10
176.593
20
-123.41
11
176.498
21
-122.934
0
LINE
8
BLACK
6
CONTINUOUS
10
176.498
20
-122.934
11
176.498
21
-122.553
0
LINE
8
BLACK
6
CONTINUOUS
10
176.498
20
-122.553
11
176.593
21
-122.077
0
LINE
8
BLACK
6
CONTINUOUS
10
176.593
20
-122.077
11
176.688
21
-121.791
0
LINE
8
BLACK
6
CONTINUOUS
10
176.688
20
-121.791
11
176.783
21
-121.601
0
LINE
8
BLACK
6
CONTINUOUS
10
176.783
20
-121.601
11
176.974
21
-121.315
0
LINE
8
BLACK
6
CONTINUOUS
10
176.974
20
-121.315
11
177.069
21
-121.22
0
LINE
8
BLACK
6
CONTINUOUS
10
177.831
20
-122.172
11
177.831
21
-123.505
0
LINE
8
BLACK
6
CONTINUOUS
10
177.831
20
-122.363
11
177.926
21
-122.267
0
LINE
8
BLACK
6
CONTINUOUS
10
177.926
20
-122.267
11
178.117
21
-122.172
0
LINE
8
BLACK
6
CONTINUOUS
10
178.117
20
-122.172
11
178.402
21
-122.172
0
LINE
8
BLACK
6
CONTINUOUS
10
178.402
20
-122.172
11
178.593
21
-122.267
0
LINE
8
BLACK
6
CONTINUOUS
10
178.593
20
-122.267
11
178.688
21
-122.458
0
LINE
8
BLACK
6
CONTINUOUS
10
178.688
20
-122.458
11
178.688
21
-123.505
0
LINE
8
BLACK
6
CONTINUOUS
10
179.926
20
-123.505
11
179.736
21
-123.41
0
LINE
8
BLACK
6
CONTINUOUS
10
179.736
20
-123.41
11
179.64
21
-123.315
0
LINE
8
BLACK
6
CONTINUOUS
10
179.64
20
-123.315
11
179.545
21
-123.124
0
LINE
8
BLACK
6
CONTINUOUS
10
179.545
20
-123.124
11
179.545
21
-122.553
0
LINE
8
BLACK
6
CONTINUOUS
10
179.545
20
-122.553
11
179.64
21
-122.363
0
LINE
8
BLACK
6
CONTINUOUS
10
179.64
20
-122.363
11
179.736
21
-122.267
0
LINE
8
BLACK
6
CONTINUOUS
10
179.736
20
-122.267
11
179.926
21
-122.172
0
LINE
8
BLACK
6
CONTINUOUS
10
179.926
20
-122.172
11
180.212
21
-122.172
0
LINE
8
BLACK
6
CONTINUOUS
10
180.212
20
-122.172
11
180.402
21
-122.267
0
LINE
8
BLACK
6
CONTINUOUS
10
180.402
20
-122.267
11
180.498
21
-122.363
0
LINE
8
BLACK
6
CONTINUOUS
10
180.498
20
-122.363
11
180.593
21
-122.553
0
LINE
8
BLACK
6
CONTINUOUS
10
180.593
20
-122.553
11
180.593
21
-123.124
0
LINE
8
BLACK
6
CONTINUOUS
10
180.593
20
-123.124
11
180.498
21
-123.315
0
LINE
8
BLACK
6
CONTINUOUS
10
180.498
20
-123.315
11
180.402
21
-123.41
0
LINE
8
BLACK
6
CONTINUOUS
10
180.402
20
-123.41
11
180.212
21
-123.505
0
LINE
8
BLACK
6
CONTINUOUS
10
180.212
20
-123.505
11
179.926
21
-123.505
0
LINE
8
BLACK
6
CONTINUOUS
10
181.164
20
-122.172
11
181.926
21
-122.172
0
LINE
8
BLACK
6
CONTINUOUS
10
181.45
20
-121.505
11
181.45
21
-123.22
0
LINE
8
BLACK
6
CONTINUOUS
10
181.45
20
-123.22
11
181.545
21
-123.41
0
LINE
8
BLACK
6
CONTINUOUS
10
181.545
20
-123.41
11
181.736
21
-123.505
0
LINE
8
BLACK
6
CONTINUOUS
10
181.736
20
-123.505
11
181.926
21
-123.505
0
LINE
8
BLACK
6
CONTINUOUS
10
183.793
20
-122.172
11
183.793
21
-124.172
0
LINE
8
BLACK
6
CONTINUOUS
10
183.793
20
-122.267
11
183.983
21
-122.172
0
LINE
8
BLACK
6
CONTINUOUS
10
183.983
20
-122.172
11
184.364
21
-122.172
0
LINE
8
BLACK
6
CONTINUOUS
10
184.364
20
-122.172
11
184.555
21
-122.267
0
LINE
8
BLACK
6
CONTINUOUS
10
184.555
20
-122.267
11
184.65
21
-122.363
0
LINE
8
BLACK
6
CONTINUOUS
10
184.65
20
-122.363
11
184.745
21
-122.553
0
LINE
8
BLACK
6
CONTINUOUS
10
184.745
20
-122.553
11
184.745
21
-123.124
0
LINE
8
BLACK
6
CONTINUOUS
10
184.745
20
-123.124
11
184.65
21
-123.315
0
LINE
8
BLACK
6
CONTINUOUS
10
184.65
20
-123.315
11
184.555
21
-123.41
0
LINE
8
BLACK
6
CONTINUOUS
10
184.555
20
-123.41
11
184.364
21
-123.505
0
LINE
8
BLACK
6
CONTINUOUS
10
184.364
20
-123.505
11
183.983
21
-123.505
0
LINE
8
BLACK
6
CONTINUOUS
10
183.983
20
-123.505
11
183.793
21
-123.41
0
LINE
8
BLACK
6
CONTINUOUS
10
185.888
20
-123.505
11
185.698
21
-123.41
0
LINE
8
BLACK
6
CONTINUOUS
10
185.698
20
-123.41
11
185.602
21
-123.22
0
LINE
8
BLACK
6
CONTINUOUS
10
185.602
20
-123.22
11
185.602
21
-121.505
0
LINE
8
BLACK
6
CONTINUOUS
10
187.507
20
-123.505
11
187.507
21
-122.458
0
LINE
8
BLACK
6
CONTINUOUS
10
187.507
20
-122.458
11
187.412
21
-122.267
0
LINE
8
BLACK
6
CONTINUOUS
10
187.412
20
-122.267
11
187.221
21
-122.172
0
LINE
8
BLACK
6
CONTINUOUS
10
187.221
20
-122.172
11
186.84
21
-122.172
0
LINE
8
BLACK
6
CONTINUOUS
10
186.84
20
-122.172
11
186.65
21
-122.267
0
LINE
8
BLACK
6
CONTINUOUS
10
187.507
20
-123.41
11
187.317
21
-123.505
0
LINE
8
BLACK
6
CONTINUOUS
10
187.317
20
-123.505
11
186.84
21
-123.505
0
LINE
8
BLACK
6
CONTINUOUS
10
186.84
20
-123.505
11
186.65
21
-123.41
0
LINE
8
BLACK
6
CONTINUOUS
10
186.65
20
-123.41
11
186.555
21
-123.22
0
LINE
8
BLACK
6
CONTINUOUS
10
186.555
20
-123.22
11
186.555
21
-123.029
0
LINE
8
BLACK
6
CONTINUOUS
10
186.555
20
-123.029
11
186.65
21
-122.839
0
LINE
8
BLACK
6
CONTINUOUS
10
186.65
20
-122.839
11
186.84
21
-122.743
0
LINE
8
BLACK
6
CONTINUOUS
10
186.84
20
-122.743
11
187.317
21
-122.743
0
LINE
8
BLACK
6
CONTINUOUS
10
187.317
20
-122.743
11
187.507
21
-122.648
0
LINE
8
BLACK
6
CONTINUOUS
10
188.174
20
-122.172
11
188.936
21
-122.172
0
LINE
8
BLACK
6
CONTINUOUS
10
188.46
20
-121.505
11
188.46
21
-123.22
0
LINE
8
BLACK
6
CONTINUOUS
10
188.46
20
-123.22
11
188.555
21
-123.41
0
LINE
8
BLACK
6
CONTINUOUS
10
188.555
20
-123.41
11
188.745
21
-123.505
0
LINE
8
BLACK
6
CONTINUOUS
10
188.745
20
-123.505
11
188.936
21
-123.505
0
LINE
8
BLACK
6
CONTINUOUS
10
190.364
20
-123.41
11
190.174
21
-123.505
0
LINE
8
BLACK
6
CONTINUOUS
10
190.174
20
-123.505
11
189.793
21
-123.505
0
LINE
8
BLACK
6
CONTINUOUS
10
189.793
20
-123.505
11
189.602
21
-123.41
0
LINE
8
BLACK
6
CONTINUOUS
10
189.602
20
-123.41
11
189.507
21
-123.22
0
LINE
8
BLACK
6
CONTINUOUS
10
189.507
20
-123.22
11
189.507
21
-122.458
0
LINE
8
BLACK
6
CONTINUOUS
10
189.507
20
-122.458
11
189.602
21
-122.267
0
LINE
8
BLACK
6
CONTINUOUS
10
189.602
20
-122.267
11
189.793
21
-122.172
0
LINE
8
BLACK
6
CONTINUOUS
10
189.793
20
-122.172
11
190.174
21
-122.172
0
LINE
8
BLACK
6
CONTINUOUS
10
190.174
20
-122.172
11
190.364
21
-122.267
0
LINE
8
BLACK
6
CONTINUOUS
10
190.364
20
-122.267
11
190.46
21
-122.458
0
LINE
8
BLACK
6
CONTINUOUS
10
190.46
20
-122.458
11
190.46
21
-122.648
0
LINE
8
BLACK
6
CONTINUOUS
10
190.46
20
-122.648
11
189.507
21
-122.839
0
LINE
8
BLACK
6
CONTINUOUS
10
192.174
20
-123.505
11
192.174
21
-121.505
0
LINE
8
BLACK
6
CONTINUOUS
10
192.174
20
-123.41
11
191.983
21
-123.505
0
LINE
8
BLACK
6
CONTINUOUS
10
191.983
20
-123.505
11
191.602
21
-123.505
0
LINE
8
BLACK
6
CONTINUOUS
10
191.602
20
-123.505
11
191.412
21
-123.41
0
LINE
8
BLACK
6
CONTINUOUS
10
191.412
20
-123.41
11
191.317
21
-123.315
0
LINE
8
BLACK
6
CONTINUOUS
10
191.317
20
-123.315
11
191.221
21
-123.124
0
LINE
8
BLACK
6
CONTINUOUS
10
191.221
20
-123.124
11
191.221
21
-122.553
0
LINE
8
BLACK
6
CONTINUOUS
10
191.221
20
-122.553
11
191.317
21
-122.363
0
LINE
8
BLACK
6
CONTINUOUS
10
191.317
20
-122.363
11
191.412
21
-122.267
0
LINE
8
BLACK
6
CONTINUOUS
10
191.412
20
-122.267
11
191.602
21
-122.172
0
LINE
8
BLACK
6
CONTINUOUS
10
191.602
20
-122.172
11
191.983
21
-122.172
0
LINE
8
BLACK
6
CONTINUOUS
10
191.983
20
-122.172
11
192.174
21
-122.267
0
LINE
8
BLACK
6
CONTINUOUS
10
192.936
20
-124.267
11
193.031
21
-124.172
0
LINE
8
BLACK
6
CONTINUOUS
10
193.031
20
-124.172
11
193.221
21
-123.886
0
LINE
8
BLACK
6
CONTINUOUS
10
193.221
20
-123.886
11
193.317
21
-123.696
0
LINE
8
BLACK
6
CONTINUOUS
10
193.317
20
-123.696
11
193.412
21
-123.41
0
LINE
8
BLACK
6
CONTINUOUS
10
193.412
20
-123.41
11
193.507
21
-122.934
0
LINE
8
BLACK
6
CONTINUOUS
10
193.507
20
-122.934
11
193.507
21
-122.553
0
LINE
8
BLACK
6
CONTINUOUS
10
193.507
20
-122.553
11
193.412
21
-122.077
0
LINE
8
BLACK
6
CONTINUOUS
10
193.412
20
-122.077
11
193.317
21
-121.791
0
LINE
8
BLACK
6
CONTINUOUS
10
193.317
20
-121.791
11
193.221
21
-121.601
0
LINE
8
BLACK
6
CONTINUOUS
10
193.221
20
-121.601
11
193.031
21
-121.315
0
LINE
8
BLACK
6
CONTINUOUS
10
193.031
20
-121.315
11
192.936
21
-121.22
0
LINE
8
BLACK
6
CONTINUOUS
10
125.45
20
-124.971
11
127.45
21
-126.971
0
LINE
8
BLACK
6
CONTINUOUS
10
127.45
20
-124.971
11
125.45
21
-126.971
0
CIRCLE
8
BLACK
10
126.45
20
-125.971
40
1
0
LINE
8
BLACK
6
CONTINUOUS
10
129.736
20
-124.705
11
130.974
21
-124.705
0
LINE
8
BLACK
6
CONTINUOUS
10
130.974
20
-124.705
11
130.307
21
-125.467
0
LINE
8
BLACK
6
CONTINUOUS
10
130.307
20
-125.467
11
130.593
21
-125.467
0
LINE
8
BLACK
6
CONTINUOUS
10
130.593
20
-125.467
11
130.783
21
-125.563
0
LINE
8
BLACK
6
CONTINUOUS
10
130.783
20
-125.563
11
130.879
21
-125.658
0
LINE
8
BLACK
6
CONTINUOUS
10
130.879
20
-125.658
11
130.974
21
-125.848
0
LINE
8
BLACK
6
CONTINUOUS
10
130.974
20
-125.848
11
130.974
21
-126.324
0
LINE
8
BLACK
6
CONTINUOUS
10
130.974
20
-126.324
11
130.879
21
-126.515
0
LINE
8
BLACK
6
CONTINUOUS
10
130.879
20
-126.515
11
130.783
21
-126.61
0
LINE
8
BLACK
6
CONTINUOUS
10
130.783
20
-126.61
11
130.593
21
-126.705
0
LINE
8
BLACK
6
CONTINUOUS
10
130.593
20
-126.705
11
130.021
21
-126.705
0
LINE
8
BLACK
6
CONTINUOUS
10
130.021
20
-126.705
11
129.831
21
-126.61
0
LINE
8
BLACK
6
CONTINUOUS
10
129.831
20
-126.61
11
129.736
21
-126.515
0
LINE
8
BLACK
6
CONTINUOUS
10
131.831
20
-126.515
11
131.926
21
-126.61
0
LINE
8
BLACK
6
CONTINUOUS
10
131.926
20
-126.61
11
131.831
21
-126.705
0
LINE
8
BLACK
6
CONTINUOUS
10
131.831
20
-126.705
11
131.736
21
-126.61
0
LINE
8
BLACK
6
CONTINUOUS
10
131.736
20
-126.61
11
131.831
21
-126.515
0
LINE
8
BLACK
6
CONTINUOUS
10
131.831
20
-126.515
11
131.831
21
-126.705
0
LINE
8
BLACK
6
CONTINUOUS
10
132.688
20
-124.896
11
132.783
21
-124.801
0
LINE
8
BLACK
6
CONTINUOUS
10
132.783
20
-124.801
11
132.974
21
-124.705
0
LINE
8
BLACK
6
CONTINUOUS
10
132.974
20
-124.705
11
133.45
21
-124.705
0
LINE
8
BLACK
6
CONTINUOUS
10
133.45
20
-124.705
11
133.64
21
-124.801
0
LINE
8
BLACK
6
CONTINUOUS
10
133.64
20
-124.801
11
133.736
21
-124.896
0
LINE
8
BLACK
6
CONTINUOUS
10
133.736
20
-124.896
11
133.831
21
-125.086
0
LINE
8
BLACK
6
CONTINUOUS
10
133.831
20
-125.086
11
133.831
21
-125.277
0
LINE
8
BLACK
6
CONTINUOUS
10
133.831
20
-125.277
11
133.736
21
-125.563
0
LINE
8
BLACK
6
CONTINUOUS
10
133.736
20
-125.563
11
132.593
21
-126.705
0
LINE
8
BLACK
6
CONTINUOUS
10
132.593
20
-126.705
11
133.831
21
-126.705
0
LINE
8
BLACK
6
CONTINUOUS
10
135.64
20
-124.705
11
134.688
21
-124.705
0
LINE
8
BLACK
6
CONTINUOUS
10
134.688
20
-124.705
11
134.593
21
-125.658
0
LINE
8
BLACK
6
CONTINUOUS
10
134.593
20
-125.658
11
134.688
21
-125.563
0
LINE
8
BLACK
6
CONTINUOUS
10
134.688
20
-125.563
11
134.879
21
-125.467
0
LINE
8
BLACK
6
CONTINUOUS
10
134.879
20
-125.467
11
135.355
21
-125.467
0
LINE
8
BLACK
6
CONTINUOUS
10
135.355
20
-125.467
11
135.545
21
-125.563
0
LINE
8
BLACK
6
CONTINUOUS
10
135.545
20
-125.563
11
135.64
21
-125.658
0
LINE
8
BLACK
6
CONTINUOUS
10
135.64
20
-125.658
11
135.736
21
-125.848
0
LINE
8
BLACK
6
CONTINUOUS
10
135.736
20
-125.848
11
135.736
21
-126.324
0
LINE
8
BLACK
6
CONTINUOUS
10
135.736
20
-126.324
11
135.64
21
-126.515
0
LINE
8
BLACK
6
CONTINUOUS
10
135.64
20
-126.515
11
135.545
21
-126.61
0
LINE
8
BLACK
6
CONTINUOUS
10
135.545
20
-126.61
11
135.355
21
-126.705
0
LINE
8
BLACK
6
CONTINUOUS
10
135.355
20
-126.705
11
134.879
21
-126.705
0
LINE
8
BLACK
6
CONTINUOUS
10
134.879
20
-126.705
11
134.688
21
-126.61
0
LINE
8
BLACK
6
CONTINUOUS
10
134.688
20
-126.61
11
134.593
21
-126.515
0
LINE
8
BLACK
6
CONTINUOUS
10
136.974
20
-124.705
11
137.164
21
-124.705
0
LINE
8
BLACK
6
CONTINUOUS
10
137.164
20
-124.705
11
137.355
21
-124.801
0
LINE
8
BLACK
6
CONTINUOUS
10
137.355
20
-124.801
11
137.45
21
-124.896
0
LINE
8
BLACK
6
CONTINUOUS
10
137.45
20
-124.896
11
137.545
21
-125.086
0
LINE
8
BLACK
6
CONTINUOUS
10
137.545
20
-125.086
11
137.64
21
-125.467
0
LINE
8
BLACK
6
CONTINUOUS
10
137.64
20
-125.467
11
137.64
21
-125.943
0
LINE
8
BLACK
6
CONTINUOUS
10
137.64
20
-125.943
11
137.545
21
-126.324
0
LINE
8
BLACK
6
CONTINUOUS
10
137.545
20
-126.324
11
137.45
21
-126.515
0
LINE
8
BLACK
6
CONTINUOUS
10
137.45
20
-126.515
11
137.355
21
-126.61
0
LINE
8
BLACK
6
CONTINUOUS
10
137.355
20
-126.61
11
137.164
21
-126.705
0
LINE
8
BLACK
6
CONTINUOUS
10
137.164
20
-126.705
11
136.974
21
-126.705
0
LINE
8
BLACK
6
CONTINUOUS
10
136.974
20
-126.705
11
136.783
21
-126.61
0
LINE
8
BLACK
6
CONTINUOUS
10
136.783
20
-126.61
11
136.688
21
-126.515
0
LINE
8
BLACK
6
CONTINUOUS
10
136.688
20
-126.515
11
136.593
21
-126.324
0
LINE
8
BLACK
6
CONTINUOUS
10
136.593
20
-126.324
11
136.498
21
-125.943
0
LINE
8
BLACK
6
CONTINUOUS
10
136.498
20
-125.943
11
136.498
21
-125.467
0
LINE
8
BLACK
6
CONTINUOUS
10
136.498
20
-125.467
11
136.593
21
-125.086
0
LINE
8
BLACK
6
CONTINUOUS
10
136.593
20
-125.086
11
136.688
21
-124.896
0
LINE
8
BLACK
6
CONTINUOUS
10
136.688
20
-124.896
11
136.783
21
-124.801
0
LINE
8
BLACK
6
CONTINUOUS
10
136.783
20
-124.801
11
136.974
21
-124.705
0
LINE
8
BLACK
6
CONTINUOUS
10
138.498
20
-126.705
11
138.498
21
-125.372
0
LINE
8
BLACK
6
CONTINUOUS
10
138.498
20
-125.563
11
138.593
21
-125.467
0
LINE
8
BLACK
6
CONTINUOUS
10
138.593
20
-125.467
11
138.783
21
-125.372
0
LINE
8
BLACK
6
CONTINUOUS
10
138.783
20
-125.372
11
139.069
21
-125.372
0
LINE
8
BLACK
6
CONTINUOUS
10
139.069
20
-125.372
11
139.26
21
-125.467
0
LINE
8
BLACK
6
CONTINUOUS
10
139.26
20
-125.467
11
139.355
21
-125.658
0
LINE
8
BLACK
6
CONTINUOUS
10
139.355
20
-125.658
11
139.355
21
-126.705
0
LINE
8
BLACK
6
CONTINUOUS
10
139.355
20
-125.658
11
139.45
21
-125.467
0
LINE
8
BLACK
6
CONTINUOUS
10
139.45
20
-125.467
11
139.64
21
-125.372
0
LINE
8
BLACK
6
CONTINUOUS
10
139.64
20
-125.372
11
139.926
21
-125.372
0
LINE
8
BLACK
6
CONTINUOUS
10
139.926
20
-125.372
11
140.117
21
-125.467
0
LINE
8
BLACK
6
CONTINUOUS
10
140.117
20
-125.467
11
140.212
21
-125.658
0
LINE
8
BLACK
6
CONTINUOUS
10
140.212
20
-125.658
11
140.212
21
-126.705
0
LINE
8
BLACK
6
CONTINUOUS
10
141.164
20
-126.705
11
141.164
21
-125.372
0
LINE
8
BLACK
6
CONTINUOUS
10
141.164
20
-125.563
11
141.26
21
-125.467
0
LINE
8
BLACK
6
CONTINUOUS
10
141.26
20
-125.467
11
141.45
21
-125.372
0
LINE
8
BLACK
6
CONTINUOUS
10
141.45
20
-125.372
11
141.736
21
-125.372
0
LINE
8
BLACK
6
CONTINUOUS
10
141.736
20
-125.372
11
141.926
21
-125.467
0
LINE
8
BLACK
6
CONTINUOUS
10
141.926
20
-125.467
11
142.021
21
-125.658
0
LINE
8
BLACK
6
CONTINUOUS
10
142.021
20
-125.658
11
142.021
21
-126.705
0
LINE
8
BLACK
6
CONTINUOUS
10
142.021
20
-125.658
11
142.117
21
-125.467
0
LINE
8
BLACK
6
CONTINUOUS
10
142.117
20
-125.467
11
142.307
21
-125.372
0
LINE
8
BLACK
6
CONTINUOUS
10
142.307
20
-125.372
11
142.593
21
-125.372
0
LINE
8
BLACK
6
CONTINUOUS
10
142.593
20
-125.372
11
142.783
21
-125.467
0
LINE
8
BLACK
6
CONTINUOUS
10
142.783
20
-125.467
11
142.879
21
-125.658
0
LINE
8
BLACK
6
CONTINUOUS
10
142.879
20
-125.658
11
142.879
21
-126.705
0
LINE
8
BLACK
6
CONTINUOUS
10
146.46
20
-124.61
11
144.745
21
-127.182
0
LINE
8
BLACK
6
CONTINUOUS
10
148.707
20
-124.705
11
148.898
21
-124.705
0
LINE
8
BLACK
6
CONTINUOUS
10
148.898
20
-124.705
11
149.088
21
-124.801
0
LINE
8
BLACK
6
CONTINUOUS
10
149.088
20
-124.801
11
149.183
21
-124.896
0
LINE
8
BLACK
6
CONTINUOUS
10
149.183
20
-124.896
11
149.279
21
-125.086
0
LINE
8
BLACK
6
CONTINUOUS
10
149.279
20
-125.086
11
149.374
21
-125.467
0
LINE
8
BLACK
6
CONTINUOUS
10
149.374
20
-125.467
11
149.374
21
-125.943
0
LINE
8
BLACK
6
CONTINUOUS
10
149.374
20
-125.943
11
149.279
21
-126.324
0
LINE
8
BLACK
6
CONTINUOUS
10
149.279
20
-126.324
11
149.183
21
-126.515
0
LINE
8
BLACK
6
CONTINUOUS
10
149.183
20
-126.515
11
149.088
21
-126.61
0
LINE
8
BLACK
6
CONTINUOUS
10
149.088
20
-126.61
11
148.898
21
-126.705
0
LINE
8
BLACK
6
CONTINUOUS
10
148.898
20
-126.705
11
148.707
21
-126.705
0
LINE
8
BLACK
6
CONTINUOUS
10
148.707
20
-126.705
11
148.517
21
-126.61
0
LINE
8
BLACK
6
CONTINUOUS
10
148.517
20
-126.61
11
148.421
21
-126.515
0
LINE
8
BLACK
6
CONTINUOUS
10
148.421
20
-126.515
11
148.326
21
-126.324
0
LINE
8
BLACK
6
CONTINUOUS
10
148.326
20
-126.324
11
148.231
21
-125.943
0
LINE
8
BLACK
6
CONTINUOUS
10
148.231
20
-125.943
11
148.231
21
-125.467
0
LINE
8
BLACK
6
CONTINUOUS
10
148.231
20
-125.467
11
148.326
21
-125.086
0
LINE
8
BLACK
6
CONTINUOUS
10
148.326
20
-125.086
11
148.421
21
-124.896
0
LINE
8
BLACK
6
CONTINUOUS
10
148.421
20
-124.896
11
148.517
21
-124.801
0
LINE
8
BLACK
6
CONTINUOUS
10
148.517
20
-124.801
11
148.707
21
-124.705
0
LINE
8
BLACK
6
CONTINUOUS
10
150.231
20
-126.515
11
150.326
21
-126.61
0
LINE
8
BLACK
6
CONTINUOUS
10
150.326
20
-126.61
11
150.231
21
-126.705
0
LINE
8
BLACK
6
CONTINUOUS
10
150.231
20
-126.705
11
150.136
21
-126.61
0
LINE
8
BLACK
6
CONTINUOUS
10
150.136
20
-126.61
11
150.231
21
-126.515
0
LINE
8
BLACK
6
CONTINUOUS
10
150.231
20
-126.515
11
150.231
21
-126.705
0
LINE
8
BLACK
6
CONTINUOUS
10
152.231
20
-126.705
11
151.088
21
-126.705
0
LINE
8
BLACK
6
CONTINUOUS
10
151.66
20
-126.705
11
151.66
21
-124.705
0
LINE
8
BLACK
6
CONTINUOUS
10
151.66
20
-124.705
11
151.469
21
-124.991
0
LINE
8
BLACK
6
CONTINUOUS
10
151.469
20
-124.991
11
151.279
21
-125.182
0
LINE
8
BLACK
6
CONTINUOUS
10
151.279
20
-125.182
11
151.088
21
-125.277
0
LINE
8
BLACK
6
CONTINUOUS
10
152.993
20
-124.896
11
153.088
21
-124.801
0
LINE
8
BLACK
6
CONTINUOUS
10
153.088
20
-124.801
11
153.279
21
-124.705
0
LINE
8
BLACK
6
CONTINUOUS
10
153.279
20
-124.705
11
153.755
21
-124.705
0
LINE
8
BLACK
6
CONTINUOUS
10
153.755
20
-124.705
11
153.945
21
-124.801
0
LINE
8
BLACK
6
CONTINUOUS
10
153.945
20
-124.801
11
154.04
21
-124.896
0
LINE
8
BLACK
6
CONTINUOUS
10
154.04
20
-124.896
11
154.136
21
-125.086
0
LINE
8
BLACK
6
CONTINUOUS
10
154.136
20
-125.086
11
154.136
21
-125.277
0
LINE
8
BLACK
6
CONTINUOUS
10
154.136
20
-125.277
11
154.04
21
-125.563
0
LINE
8
BLACK
6
CONTINUOUS
10
154.04
20
-125.563
11
152.898
21
-126.705
0
LINE
8
BLACK
6
CONTINUOUS
10
152.898
20
-126.705
11
154.136
21
-126.705
0
LINE
8
BLACK
6
CONTINUOUS
10
155.279
20
-125.563
11
155.088
21
-125.467
0
LINE
8
BLACK
6
CONTINUOUS
10
155.088
20
-125.467
11
154.993
21
-125.372
0
LINE
8
BLACK
6
CONTINUOUS
10
154.993
20
-125.372
11
154.898
21
-125.182
0
LINE
8
BLACK
6
CONTINUOUS
10
154.898
20
-125.182
11
154.898
21
-125.086
0
LINE
8
BLACK
6
CONTINUOUS
10
154.898
20
-125.086
11
154.993
21
-124.896
0
LINE
8
BLACK
6
CONTINUOUS
10
154.993
20
-124.896
11
155.088
21
-124.801
0
LINE
8
BLACK
6
CONTINUOUS
10
155.088
20
-124.801
11
155.279
21
-124.705
0
LINE
8
BLACK
6
CONTINUOUS
10
155.279
20
-124.705
11
155.66
21
-124.705
0
LINE
8
BLACK
6
CONTINUOUS
10
155.66
20
-124.705
11
155.85
21
-124.801
0
LINE
8
BLACK
6
CONTINUOUS
10
155.85
20
-124.801
11
155.945
21
-124.896
0
LINE
8
BLACK
6
CONTINUOUS
10
155.945
20
-124.896
11
156.04
21
-125.086
0
LINE
8
BLACK
6
CONTINUOUS
10
156.04
20
-125.086
11
156.04
21
-125.182
0
LINE
8
BLACK
6
CONTINUOUS
10
156.04
20
-125.182
11
155.945
21
-125.372
0
LINE
8
BLACK
6
CONTINUOUS
10
155.945
20
-125.372
11
155.85
21
-125.467
0
LINE
8
BLACK
6
CONTINUOUS
10
155.85
20
-125.467
11
155.66
21
-125.563
0
LINE
8
BLACK
6
CONTINUOUS
10
155.66
20
-125.563
11
155.279
21
-125.563
0
LINE
8
BLACK
6
CONTINUOUS
10
155.279
20
-125.563
11
155.088
21
-125.658
0
LINE
8
BLACK
6
CONTINUOUS
10
155.088
20
-125.658
11
154.993
21
-125.753
0
LINE
8
BLACK
6
CONTINUOUS
10
154.993
20
-125.753
11
154.898
21
-125.943
0
LINE
8
BLACK
6
CONTINUOUS
10
154.898
20
-125.943
11
154.898
21
-126.324
0
LINE
8
BLACK
6
CONTINUOUS
10
154.898
20
-126.324
11
154.993
21
-126.515
0
LINE
8
BLACK
6
CONTINUOUS
10
154.993
20
-126.515
11
155.088
21
-126.61
0
LINE
8
BLACK
6
CONTINUOUS
10
155.088
20
-126.61
11
155.279
21
-126.705
0
LINE
8
BLACK
6
CONTINUOUS
10
155.279
20
-126.705
11
155.66
21
-126.705
0
LINE
8
BLACK
6
CONTINUOUS
10
155.66
20
-126.705
11
155.85
21
-126.61
0
LINE
8
BLACK
6
CONTINUOUS
10
155.85
20
-126.61
11
155.945
21
-126.515
0
LINE
8
BLACK
6
CONTINUOUS
10
155.945
20
-126.515
11
156.04
21
-126.324
0
LINE
8
BLACK
6
CONTINUOUS
10
156.04
20
-126.324
11
156.04
21
-125.943
0
LINE
8
BLACK
6
CONTINUOUS
10
156.04
20
-125.943
11
155.945
21
-125.753
0
LINE
8
BLACK
6
CONTINUOUS
10
155.945
20
-125.753
11
155.85
21
-125.658
0
LINE
8
BLACK
6
CONTINUOUS
10
155.85
20
-125.658
11
155.66
21
-125.563
0
LINE
8
BLACK
6
CONTINUOUS
10
157.279
20
-124.705
11
157.469
21
-124.705
0
LINE
8
BLACK
6
CONTINUOUS
10
157.469
20
-124.705
11
157.66
21
-124.801
0
LINE
8
BLACK
6
CONTINUOUS
10
157.66
20
-124.801
11
157.755
21
-124.896
0
LINE
8
BLACK
6
CONTINUOUS
10
157.755
20
-124.896
11
157.85
21
-125.086
0
LINE
8
BLACK
6
CONTINUOUS
10
157.85
20
-125.086
11
157.945
21
-125.467
0
LINE
8
BLACK
6
CONTINUOUS
10
157.945
20
-125.467
11
157.945
21
-125.943
0
LINE
8
BLACK
6
CONTINUOUS
10
157.945
20
-125.943
11
157.85
21
-126.324
0
LINE
8
BLACK
6
CONTINUOUS
10
157.85
20
-126.324
11
157.755
21
-126.515
0
LINE
8
BLACK
6
CONTINUOUS
10
157.755
20
-126.515
11
157.66
21
-126.61
0
LINE
8
BLACK
6
CONTINUOUS
10
157.66
20
-126.61
11
157.469
21
-126.705
0
LINE
8
BLACK
6
CONTINUOUS
10
157.469
20
-126.705
11
157.279
21
-126.705
0
LINE
8
BLACK
6
CONTINUOUS
10
157.279
20
-126.705
11
157.088
21
-126.61
0
LINE
8
BLACK
6
CONTINUOUS
10
157.088
20
-126.61
11
156.993
21
-126.515
0
LINE
8
BLACK
6
CONTINUOUS
10
156.993
20
-126.515
11
156.898
21
-126.324
0
LINE
8
BLACK
6
CONTINUOUS
10
156.898
20
-126.324
11
156.802
21
-125.943
0
LINE
8
BLACK
6
CONTINUOUS
10
156.802
20
-125.943
11
156.802
21
-125.467
0
LINE
8
BLACK
6
CONTINUOUS
10
156.802
20
-125.467
11
156.898
21
-125.086
0
LINE
8
BLACK
6
CONTINUOUS
10
156.898
20
-125.086
11
156.993
21
-124.896
0
LINE
8
BLACK
6
CONTINUOUS
10
156.993
20
-124.896
11
157.088
21
-124.801
0
LINE
8
BLACK
6
CONTINUOUS
10
157.088
20
-124.801
11
157.279
21
-124.705
0
LINE
8
BLACK
6
CONTINUOUS
10
158.707
20
-124.705
11
158.707
21
-125.086
0
LINE
8
BLACK
6
CONTINUOUS
10
159.469
20
-124.705
11
159.469
21
-125.086
0
LINE
8
BLACK
6
CONTINUOUS
10
162.098
20
-127.467
11
162.002
21
-127.372
0
LINE
8
BLACK
6
CONTINUOUS
10
162.002
20
-127.372
11
161.812
21
-127.086
0
LINE
8
BLACK
6
CONTINUOUS
10
161.812
20
-127.086
11
161.717
21
-126.896
0
LINE
8
BLACK
6
CONTINUOUS
10
161.717
20
-126.896
11
161.621
21
-126.61
0
LINE
8
BLACK
6
CONTINUOUS
10
161.621
20
-126.61
11
161.526
21
-126.134
0
LINE
8
BLACK
6
CONTINUOUS
10
161.526
20
-126.134
11
161.526
21
-125.753
0
LINE
8
BLACK
6
CONTINUOUS
10
161.526
20
-125.753
11
161.621
21
-125.277
0
LINE
8
BLACK
6
CONTINUOUS
10
161.621
20
-125.277
11
161.717
21
-124.991
0
LINE
8
BLACK
6
CONTINUOUS
10
161.717
20
-124.991
11
161.812
21
-124.801
0
LINE
8
BLACK
6
CONTINUOUS
10
161.812
20
-124.801
11
162.002
21
-124.515
0
LINE
8
BLACK
6
CONTINUOUS
10
162.002
20
-124.515
11
162.098
21
-124.42
0
LINE
8
BLACK
6
CONTINUOUS
10
162.764
20
-124.896
11
162.86
21
-124.801
0
LINE
8
BLACK
6
CONTINUOUS
10
162.86
20
-124.801
11
163.05
21
-124.705
0
LINE
8
BLACK
6
CONTINUOUS
10
163.05
20
-124.705
11
163.526
21
-124.705
0
LINE
8
BLACK
6
CONTINUOUS
10
163.526
20
-124.705
11
163.717
21
-124.801
0
LINE
8
BLACK
6
CONTINUOUS
10
163.717
20
-124.801
11
163.812
21
-124.896
0
LINE
8
BLACK
6
CONTINUOUS
10
163.812
20
-124.896
11
163.907
21
-125.086
0
LINE
8
BLACK
6
CONTINUOUS
10
163.907
20
-125.086
11
163.907
21
-125.277
0
LINE
8
BLACK
6
CONTINUOUS
10
163.907
20
-125.277
11
163.812
21
-125.563
0
LINE
8
BLACK
6
CONTINUOUS
10
163.812
20
-125.563
11
162.669
21
-126.705
0
LINE
8
BLACK
6
CONTINUOUS
10
162.669
20
-126.705
11
163.907
21
-126.705
0
LINE
8
BLACK
6
CONTINUOUS
10
165.964
20
-126.705
11
165.964
21
-124.705
0
LINE
8
BLACK
6
CONTINUOUS
10
166.821
20
-126.705
11
166.821
21
-125.658
0
LINE
8
BLACK
6
CONTINUOUS
10
166.821
20
-125.658
11
166.726
21
-125.467
0
LINE
8
BLACK
6
CONTINUOUS
10
166.726
20
-125.467
11
166.536
21
-125.372
0
LINE
8
BLACK
6
CONTINUOUS
10
166.536
20
-125.372
11
166.25
21
-125.372
0
LINE
8
BLACK
6
CONTINUOUS
10
166.25
20
-125.372
11
166.06
21
-125.467
0
LINE
8
BLACK
6
CONTINUOUS
10
166.06
20
-125.467
11
165.964
21
-125.563
0
LINE
8
BLACK
6
CONTINUOUS
10
168.06
20
-126.705
11
167.869
21
-126.61
0
LINE
8
BLACK
6
CONTINUOUS
10
167.869
20
-126.61
11
167.774
21
-126.515
0
LINE
8
BLACK
6
CONTINUOUS
10
167.774
20
-126.515
11
167.679
21
-126.324
0
LINE
8
BLACK
6
CONTINUOUS
10
167.679
20
-126.324
11
167.679
21
-125.753
0
LINE
8
BLACK
6
CONTINUOUS
10
167.679
20
-125.753
11
167.774
21
-125.563
0
LINE
8
BLACK
6
CONTINUOUS
10
167.774
20
-125.563
11
167.869
21
-125.467
0
LINE
8
BLACK
6
CONTINUOUS
10
167.869
20
-125.467
11
168.06
21
-125.372
0
LINE
8
BLACK
6
CONTINUOUS
10
168.06
20
-125.372
11
168.345
21
-125.372
0
LINE
8
BLACK
6
CONTINUOUS
10
168.345
20
-125.372
11
168.536
21
-125.467
0
LINE
8
BLACK
6
CONTINUOUS
10
168.536
20
-125.467
11
168.631
21
-125.563
0
LINE
8
BLACK
6
CONTINUOUS
10
168.631
20
-125.563
11
168.726
21
-125.753
0
LINE
8
BLACK
6
CONTINUOUS
10
168.726
20
-125.753
11
168.726
21
-126.324
0
LINE
8
BLACK
6
CONTINUOUS
10
168.726
20
-126.324
11
168.631
21
-126.515
0
LINE
8
BLACK
6
CONTINUOUS
10
168.631
20
-126.515
11
168.536
21
-126.61
0
LINE
8
BLACK
6
CONTINUOUS
10
168.536
20
-126.61
11
168.345
21
-126.705
0
LINE
8
BLACK
6
CONTINUOUS
10
168.345
20
-126.705
11
168.06
21
-126.705
0
LINE
8
BLACK
6
CONTINUOUS
10
169.869
20
-126.705
11
169.679
21
-126.61
0
LINE
8
BLACK
6
CONTINUOUS
10
169.679
20
-126.61
11
169.583
21
-126.42
0
LINE
8
BLACK
6
CONTINUOUS
10
169.583
20
-126.42
11
169.583
21
-124.705
0
LINE
8
BLACK
6
CONTINUOUS
10
171.393
20
-126.61
11
171.202
21
-126.705
0
LINE
8
BLACK
6
CONTINUOUS
10
171.202
20
-126.705
11
170.821
21
-126.705
0
LINE
8
BLACK
6
CONTINUOUS
10
170.821
20
-126.705
11
170.631
21
-126.61
0
LINE
8
BLACK
6
CONTINUOUS
10
170.631
20
-126.61
11
170.536
21
-126.42
0
LINE
8
BLACK
6
CONTINUOUS
10
170.536
20
-126.42
11
170.536
21
-125.658
0
LINE
8
BLACK
6
CONTINUOUS
10
170.536
20
-125.658
11
170.631
21
-125.467
0
LINE
8
BLACK
6
CONTINUOUS
10
170.631
20
-125.467
11
170.821
21
-125.372
0
LINE
8
BLACK
6
CONTINUOUS
10
170.821
20
-125.372
11
171.202
21
-125.372
0
LINE
8
BLACK
6
CONTINUOUS
10
171.202
20
-125.372
11
171.393
21
-125.467
0
LINE
8
BLACK
6
CONTINUOUS
10
171.393
20
-125.467
11
171.488
21
-125.658
0
LINE
8
BLACK
6
CONTINUOUS
10
171.488
20
-125.658
11
171.488
21
-125.848
0
LINE
8
BLACK
6
CONTINUOUS
10
171.488
20
-125.848
11
170.536
21
-126.039
0
LINE
8
BLACK
6
CONTINUOUS
10
172.25
20
-126.61
11
172.44
21
-126.705
0
LINE
8
BLACK
6
CONTINUOUS
10
172.44
20
-126.705
11
172.821
21
-126.705
0
LINE
8
BLACK
6
CONTINUOUS
10
172.821
20
-126.705
11
173.012
21
-126.61
0
LINE
8
BLACK
6
CONTINUOUS
10
173.012
20
-126.61
11
173.107
21
-126.42
0
LINE
8
BLACK
6
CONTINUOUS
10
173.107
20
-126.42
11
173.107
21
-126.324
0
LINE
8
BLACK
6
CONTINUOUS
10
173.107
20
-126.324
11
173.012
21
-126.134
0
LINE
8
BLACK
6
CONTINUOUS
10
173.012
20
-126.134
11
172.821
21
-126.039
0
LINE
8
BLACK
6
CONTINUOUS
10
172.821
20
-126.039
11
172.536
21
-126.039
0
LINE
8
BLACK
6
CONTINUOUS
10
172.536
20
-126.039
11
172.345
21
-125.943
0
LINE
8
BLACK
6
CONTINUOUS
10
172.345
20
-125.943
11
172.25
21
-125.753
0
LINE
8
BLACK
6
CONTINUOUS
10
172.25
20
-125.753
11
172.25
21
-125.658
0
LINE
8
BLACK
6
CONTINUOUS
10
172.25
20
-125.658
11
172.345
21
-125.467
0
LINE
8
BLACK
6
CONTINUOUS
10
172.345
20
-125.467
11
172.536
21
-125.372
0
LINE
8
BLACK
6
CONTINUOUS
10
172.536
20
-125.372
11
172.821
21
-125.372
0
LINE
8
BLACK
6
CONTINUOUS
10
172.821
20
-125.372
11
173.012
21
-125.467
0
LINE
8
BLACK
6
CONTINUOUS
10
173.774
20
-127.467
11
173.869
21
-127.372
0
LINE
8
BLACK
6
CONTINUOUS
10
173.869
20
-127.372
11
174.06
21
-127.086
0
LINE
8
BLACK
6
CONTINUOUS
10
174.06
20
-127.086
11
174.155
21
-126.896
0
LINE
8
BLACK
6
CONTINUOUS
10
174.155
20
-126.896
11
174.25
21
-126.61
0
LINE
8
BLACK
6
CONTINUOUS
10
174.25
20
-126.61
11
174.345
21
-126.134
0
LINE
8
BLACK
6
CONTINUOUS
10
174.345
20
-126.134
11
174.345
21
-125.753
0
LINE
8
BLACK
6
CONTINUOUS
10
174.345
20
-125.753
11
174.25
21
-125.277
0
LINE
8
BLACK
6
CONTINUOUS
10
174.25
20
-125.277
11
174.155
21
-124.991
0
LINE
8
BLACK
6
CONTINUOUS
10
174.155
20
-124.991
11
174.06
21
-124.801
0
LINE
8
BLACK
6
CONTINUOUS
10
174.06
20
-124.801
11
173.869
21
-124.515
0
LINE
8
BLACK
6
CONTINUOUS
10
173.869
20
-124.515
11
173.774
21
-124.42
0
LINE
8
BLACK
6
CONTINUOUS
10
177.069
20
-127.467
11
176.974
21
-127.372
0
LINE
8
BLACK
6
CONTINUOUS
10
176.974
20
-127.372
11
176.783
21
-127.086
0
LINE
8
BLACK
6
CONTINUOUS
10
176.783
20
-127.086
11
176.688
21
-126.896
0
LINE
8
BLACK
6
CONTINUOUS
10
176.688
20
-126.896
11
176.593
21
-126.61
0
LINE
8
BLACK
6
CONTINUOUS
10
176.593
20
-126.61
11
176.498
21
-126.134
0
LINE
8
BLACK
6
CONTINUOUS
10
176.498
20
-126.134
11
176.498
21
-125.753
0
LINE
8
BLACK
6
CONTINUOUS
10
176.498
20
-125.753
11
176.593
21
-125.277
0
LINE
8
BLACK
6
CONTINUOUS
10
176.593
20
-125.277
11
176.688
21
-124.991
0
LINE
8
BLACK
6
CONTINUOUS
10
176.688
20
-124.991
11
176.783
21
-124.801
0
LINE
8
BLACK
6
CONTINUOUS
10
176.783
20
-124.801
11
176.974
21
-124.515
0
LINE
8
BLACK
6
CONTINUOUS
10
176.974
20
-124.515
11
177.069
21
-124.42
0
LINE
8
BLACK
6
CONTINUOUS
10
177.831
20
-125.372
11
177.831
21
-126.705
0
LINE
8
BLACK
6
CONTINUOUS
10
177.831
20
-125.563
11
177.926
21
-125.467
0
LINE
8
BLACK
6
CONTINUOUS
10
177.926
20
-125.467
11
178.117
21
-125.372
0
LINE
8
BLACK
6
CONTINUOUS
10
178.117
20
-125.372
11
178.402
21
-125.372
0
LINE
8
BLACK
6
CONTINUOUS
10
178.402
20
-125.372
11
178.593
21
-125.467
0
LINE
8
BLACK
6
CONTINUOUS
10
178.593
20
-125.467
11
178.688
21
-125.658
0
LINE
8
BLACK
6
CONTINUOUS
10
178.688
20
-125.658
11
178.688
21
-126.705
0
LINE
8
BLACK
6
CONTINUOUS
10
179.926
20
-126.705
11
179.736
21
-126.61
0
LINE
8
BLACK
6
CONTINUOUS
10
179.736
20
-126.61
11
179.64
21
-126.515
0
LINE
8
BLACK
6
CONTINUOUS
10
179.64
20
-126.515
11
179.545
21
-126.324
0
LINE
8
BLACK
6
CONTINUOUS
10
179.545
20
-126.324
11
179.545
21
-125.753
0
LINE
8
BLACK
6
CONTINUOUS
10
179.545
20
-125.753
11
179.64
21
-125.563
0
LINE
8
BLACK
6
CONTINUOUS
10
179.64
20
-125.563
11
179.736
21
-125.467
0
LINE
8
BLACK
6
CONTINUOUS
10
179.736
20
-125.467
11
179.926
21
-125.372
0
LINE
8
BLACK
6
CONTINUOUS
10
179.926
20
-125.372
11
180.212
21
-125.372
0
LINE
8
BLACK
6
CONTINUOUS
10
180.212
20
-125.372
11
180.402
21
-125.467
0
LINE
8
BLACK
6
CONTINUOUS
10
180.402
20
-125.467
11
180.498
21
-125.563
0
LINE
8
BLACK
6
CONTINUOUS
10
180.498
20
-125.563
11
180.593
21
-125.753
0
LINE
8
BLACK
6
CONTINUOUS
10
180.593
20
-125.753
11
180.593
21
-126.324
0
LINE
8
BLACK
6
CONTINUOUS
10
180.593
20
-126.324
11
180.498
21
-126.515
0
LINE
8
BLACK
6
CONTINUOUS
10
180.498
20
-126.515
11
180.402
21
-126.61
0
LINE
8
BLACK
6
CONTINUOUS
10
180.402
20
-126.61
11
180.212
21
-126.705
0
LINE
8
BLACK
6
CONTINUOUS
10
180.212
20
-126.705
11
179.926
21
-126.705
0
LINE
8
BLACK
6
CONTINUOUS
10
181.164
20
-125.372
11
181.926
21
-125.372
0
LINE
8
BLACK
6
CONTINUOUS
10
181.45
20
-124.705
11
181.45
21
-126.42
0
LINE
8
BLACK
6
CONTINUOUS
10
181.45
20
-126.42
11
181.545
21
-126.61
0
LINE
8
BLACK
6
CONTINUOUS
10
181.545
20
-126.61
11
181.736
21
-126.705
0
LINE
8
BLACK
6
CONTINUOUS
10
181.736
20
-126.705
11
181.926
21
-126.705
0
LINE
8
BLACK
6
CONTINUOUS
10
183.793
20
-125.372
11
183.793
21
-127.372
0
LINE
8
BLACK
6
CONTINUOUS
10
183.793
20
-125.467
11
183.983
21
-125.372
0
LINE
8
BLACK
6
CONTINUOUS
10
183.983
20
-125.372
11
184.364
21
-125.372
0
LINE
8
BLACK
6
CONTINUOUS
10
184.364
20
-125.372
11
184.555
21
-125.467
0
LINE
8
BLACK
6
CONTINUOUS
10
184.555
20
-125.467
11
184.65
21
-125.563
0
LINE
8
BLACK
6
CONTINUOUS
10
184.65
20
-125.563
11
184.745
21
-125.753
0
LINE
8
BLACK
6
CONTINUOUS
10
184.745
20
-125.753
11
184.745
21
-126.324
0
LINE
8
BLACK
6
CONTINUOUS
10
184.745
20
-126.324
11
184.65
21
-126.515
0
LINE
8
BLACK
6
CONTINUOUS
10
184.65
20
-126.515
11
184.555
21
-126.61
0
LINE
8
BLACK
6
CONTINUOUS
10
184.555
20
-126.61
11
184.364
21
-126.705
0
LINE
8
BLACK
6
CONTINUOUS
10
184.364
20
-126.705
11
183.983
21
-126.705
0
LINE
8
BLACK
6
CONTINUOUS
10
183.983
20
-126.705
11
183.793
21
-126.61
0
LINE
8
BLACK
6
CONTINUOUS
10
185.888
20
-126.705
11
185.698
21
-126.61
0
LINE
8
BLACK
6
CONTINUOUS
10
185.698
20
-126.61
11
185.602
21
-126.42
0
LINE
8
BLACK
6
CONTINUOUS
10
185.602
20
-126.42
11
185.602
21
-124.705
0
LINE
8
BLACK
6
CONTINUOUS
10
187.507
20
-126.705
11
187.507
21
-125.658
0
LINE
8
BLACK
6
CONTINUOUS
10
187.507
20
-125.658
11
187.412
21
-125.467
0
LINE
8
BLACK
6
CONTINUOUS
10
187.412
20
-125.467
11
187.221
21
-125.372
0
LINE
8
BLACK
6
CONTINUOUS
10
187.221
20
-125.372
11
186.84
21
-125.372
0
LINE
8
BLACK
6
CONTINUOUS
10
186.84
20
-125.372
11
186.65
21
-125.467
0
LINE
8
BLACK
6
CONTINUOUS
10
187.507
20
-126.61
11
187.317
21
-126.705
0
LINE
8
BLACK
6
CONTINUOUS
10
187.317
20
-126.705
11
186.84
21
-126.705
0
LINE
8
BLACK
6
CONTINUOUS
10
186.84
20
-126.705
11
186.65
21
-126.61
0
LINE
8
BLACK
6
CONTINUOUS
10
186.65
20
-126.61
11
186.555
21
-126.42
0
LINE
8
BLACK
6
CONTINUOUS
10
186.555
20
-126.42
11
186.555
21
-126.229
0
LINE
8
BLACK
6
CONTINUOUS
10
186.555
20
-126.229
11
186.65
21
-126.039
0
LINE
8
BLACK
6
CONTINUOUS
10
186.65
20
-126.039
11
186.84
21
-125.943
0
LINE
8
BLACK
6
CONTINUOUS
10
186.84
20
-125.943
11
187.317
21
-125.943
0
LINE
8
BLACK
6
CONTINUOUS
10
187.317
20
-125.943
11
187.507
21
-125.848
0
LINE
8
BLACK
6
CONTINUOUS
10
188.174
20
-125.372
11
188.936
21
-125.372
0
LINE
8
BLACK
6
CONTINUOUS
10
188.46
20
-124.705
11
188.46
21
-126.42
0
LINE
8
BLACK
6
CONTINUOUS
10
188.46
20
-126.42
11
188.555
21
-126.61
0
LINE
8
BLACK
6
CONTINUOUS
10
188.555
20
-126.61
11
188.745
21
-126.705
0
LINE
8
BLACK
6
CONTINUOUS
10
188.745
20
-126.705
11
188.936
21
-126.705
0
LINE
8
BLACK
6
CONTINUOUS
10
190.364
20
-126.61
11
190.174
21
-126.705
0
LINE
8
BLACK
6
CONTINUOUS
10
190.174
20
-126.705
11
189.793
21
-126.705
0
LINE
8
BLACK
6
CONTINUOUS
10
189.793
20
-126.705
11
189.602
21
-126.61
0
LINE
8
BLACK
6
CONTINUOUS
10
189.602
20
-126.61
11
189.507
21
-126.42
0
LINE
8
BLACK
6
CONTINUOUS
10
189.507
20
-126.42
11
189.507
21
-125.658
0
LINE
8
BLACK
6
CONTINUOUS
10
189.507
20
-125.658
11
189.602
21
-125.467
0
LINE
8
BLACK
6
CONTINUOUS
10
189.602
20
-125.467
11
189.793
21
-125.372
0
LINE
8
BLACK
6
CONTINUOUS
10
189.793
20
-125.372
11
190.174
21
-125.372
0
LINE
8
BLACK
6
CONTINUOUS
10
190.174
20
-125.372
11
190.364
21
-125.467
0
LINE
8
BLACK
6
CONTINUOUS
10
190.364
20
-125.467
11
190.46
21
-125.658
0
LINE
8
BLACK
6
CONTINUOUS
10
190.46
20
-125.658
11
190.46
21
-125.848
0
LINE
8
BLACK
6
CONTINUOUS
10
190.46
20
-125.848
11
189.507
21
-126.039
0
LINE
8
BLACK
6
CONTINUOUS
10
192.174
20
-126.705
11
192.174
21
-124.705
0
LINE
8
BLACK
6
CONTINUOUS
10
192.174
20
-126.61
11
191.983
21
-126.705
0
LINE
8
BLACK
6
CONTINUOUS
10
191.983
20
-126.705
11
191.602
21
-126.705
0
LINE
8
BLACK
6
CONTINUOUS
10
191.602
20
-126.705
11
191.412
21
-126.61
0
LINE
8
BLACK
6
CONTINUOUS
10
191.412
20
-126.61
11
191.317
21
-126.515
0
LINE
8
BLACK
6
CONTINUOUS
10
191.317
20
-126.515
11
191.221
21
-126.324
0
LINE
8
BLACK
6
CONTINUOUS
10
191.221
20
-126.324
11
191.221
21
-125.753
0
LINE
8
BLACK
6
CONTINUOUS
10
191.221
20
-125.753
11
191.317
21
-125.563
0
LINE
8
BLACK
6
CONTINUOUS
10
191.317
20
-125.563
11
191.412
21
-125.467
0
LINE
8
BLACK
6
CONTINUOUS
10
191.412
20
-125.467
11
191.602
21
-125.372
0
LINE
8
BLACK
6
CONTINUOUS
10
191.602
20
-125.372
11
191.983
21
-125.372
0
LINE
8
BLACK
6
CONTINUOUS
10
191.983
20
-125.372
11
192.174
21
-125.467
0
LINE
8
BLACK
6
CONTINUOUS
10
192.936
20
-127.467
11
193.031
21
-127.372
0
LINE
8
BLACK
6
CONTINUOUS
10
193.031
20
-127.372
11
193.221
21
-127.086
0
LINE
8
BLACK
6
CONTINUOUS
10
193.221
20
-127.086
11
193.317
21
-126.896
0
LINE
8
BLACK
6
CONTINUOUS
10
193.317
20
-126.896
11
193.412
21
-126.61
0
LINE
8
BLACK
6
CONTINUOUS
10
193.412
20
-126.61
11
193.507
21
-126.134
0
LINE
8
BLACK
6
CONTINUOUS
10
193.507
20
-126.134
11
193.507
21
-125.753
0
LINE
8
BLACK
6
CONTINUOUS
10
193.507
20
-125.753
11
193.412
21
-125.277
0
LINE
8
BLACK
6
CONTINUOUS
10
193.412
20
-125.277
11
193.317
21
-124.991
0
LINE
8
BLACK
6
CONTINUOUS
10
193.317
20
-124.991
11
193.221
21
-124.801
0
LINE
8
BLACK
6
CONTINUOUS
10
193.221
20
-124.801
11
193.031
21
-124.515
0
LINE
8
BLACK
6
CONTINUOUS
10
193.031
20
-124.515
11
192.936
21
-124.42
  0
ENDSEC
  0
EOF
