%FSLAX45Y45*%
G04 Gerber Fmt 4.5, Leading zero omitted, Abs format (unit mm)*
G04 Created by KiCad (PCBNEW (6.0.1-0)) date 2022-04-29 09:17:45*
%MOMM*%
%LPD*%
G01*
G04 APERTURE LIST*
%TA.AperFunction,Profile*%
%ADD10C,0.100000*%
%TD*%
%ADD11C,0.200000*%
%ADD12C,0.040000*%
%ADD13C,0.065000*%
%ADD14C,0.083000*%
%ADD15C,0.089000*%
%ADD16C,0.100000*%
%ADD17C,0.180000*%
G04 APERTURE END LIST*
D10*
X5273200Y-15596800D02*
G75*
G03*
X5323200Y-15646800I50000J0D01*
G01*
X9189925Y-10666800D02*
X5323200Y-10666800D01*
X8886055Y-15646800D02*
X5323200Y-15646800D01*
X11533200Y-15646800D02*
X10716055Y-15646800D01*
X10666055Y-15596800D02*
G75*
G03*
X10716055Y-15646800I50000J0D01*
G01*
X11533200Y-15646800D02*
G75*
G03*
X11583200Y-15596800I0J50000D01*
G01*
X11583200Y-15596800D02*
X11583200Y-10716800D01*
X10666055Y-14996800D02*
X8936055Y-14996800D01*
X5273200Y-15596800D02*
X5273200Y-10716800D01*
X11583200Y-10716800D02*
G75*
G03*
X11533200Y-10666800I-50000J0D01*
G01*
X11533200Y-10666800D02*
X11069326Y-10666800D01*
X11069326Y-10666800D02*
G75*
G03*
X11018520Y-10716800I0J-50813D01*
G01*
X9240520Y-11254740D02*
G75*
G03*
X9331960Y-11343045I86321J-2110D01*
G01*
X11018520Y-11292600D02*
X11018520Y-10716800D01*
X10666055Y-15596800D02*
X10666055Y-14996800D01*
X5323200Y-10666800D02*
G75*
G03*
X5273200Y-10716800I0J-50000D01*
G01*
X8886055Y-15646800D02*
G75*
G03*
X8936055Y-15596800I0J50000D01*
G01*
X10967322Y-11343130D02*
X9331960Y-11343045D01*
X8936055Y-14996800D02*
X8936055Y-15596800D01*
X9240715Y-10716800D02*
G75*
G03*
X9189925Y-10666800I-50791J-797D01*
G01*
X10967322Y-11343130D02*
G75*
G03*
X11018520Y-11292600I-2J51204D01*
G01*
X9240520Y-11254740D02*
X9240715Y-10716800D01*
D11*
D12*
X5831087Y-11959099D02*
X5871087Y-11999099D01*
X5871087Y-11959099D02*
X5831087Y-11999099D01*
X5831087Y-12668373D02*
X5871087Y-12708373D01*
X5871087Y-12668373D02*
X5831087Y-12708373D01*
X5987100Y-11956100D02*
X6027100Y-11996100D01*
X6027100Y-11956100D02*
X5987100Y-11996100D01*
X6291900Y-11956100D02*
X6331900Y-11996100D01*
X6331900Y-11956100D02*
X6291900Y-11996100D01*
X6457000Y-11702100D02*
X6497000Y-11742100D01*
X6497000Y-11702100D02*
X6457000Y-11742100D01*
X6592030Y-15226760D02*
X6632030Y-15266760D01*
X6632030Y-15226760D02*
X6592030Y-15266760D01*
X6901500Y-12502200D02*
X6941500Y-12542200D01*
X6941500Y-12502200D02*
X6901500Y-12542200D01*
X7053900Y-13759500D02*
X7093900Y-13799500D01*
X7093900Y-13759500D02*
X7053900Y-13799500D01*
X7130100Y-11224580D02*
X7170100Y-11264580D01*
X7170100Y-11224580D02*
X7130100Y-11264580D01*
X7231700Y-14153200D02*
X7271700Y-14193200D01*
X7271700Y-14153200D02*
X7231700Y-14193200D01*
X7244400Y-14546900D02*
X7284400Y-14586900D01*
X7284400Y-14546900D02*
X7244400Y-14586900D01*
X7371400Y-11575100D02*
X7411400Y-11615100D01*
X7411400Y-11575100D02*
X7371400Y-11615100D01*
X7371400Y-11765600D02*
X7411400Y-11805600D01*
X7411400Y-11765600D02*
X7371400Y-11805600D01*
X7469630Y-12133120D02*
X7509630Y-12173120D01*
X7509630Y-12133120D02*
X7469630Y-12173120D01*
X7469630Y-12243120D02*
X7509630Y-12283120D01*
X7509630Y-12243120D02*
X7469630Y-12283120D01*
X7469630Y-12353120D02*
X7509630Y-12393120D01*
X7509630Y-12353120D02*
X7469630Y-12393120D01*
X7564440Y-10825800D02*
X7604440Y-10865800D01*
X7604440Y-10825800D02*
X7564440Y-10865800D01*
X7564440Y-11009950D02*
X7604440Y-11049950D01*
X7604440Y-11009950D02*
X7564440Y-11049950D01*
X7602540Y-11422700D02*
X7642540Y-11462700D01*
X7642540Y-11422700D02*
X7602540Y-11462700D01*
X7729540Y-10825800D02*
X7769540Y-10865800D01*
X7769540Y-10825800D02*
X7729540Y-10865800D01*
X7772720Y-14489751D02*
X7812720Y-14529751D01*
X7812720Y-14489751D02*
X7772720Y-14529751D01*
X7772720Y-14889800D02*
X7812720Y-14929800D01*
X7812720Y-14889800D02*
X7772720Y-14929800D01*
X7913690Y-10825800D02*
X7953690Y-10865800D01*
X7953690Y-10825800D02*
X7913690Y-10865800D01*
X7930200Y-14432600D02*
X7970200Y-14472600D01*
X7970200Y-14432600D02*
X7930200Y-14472600D01*
X7930200Y-14585000D02*
X7970200Y-14625000D01*
X7970200Y-14585000D02*
X7930200Y-14625000D01*
X7968300Y-12438700D02*
X8008300Y-12478700D01*
X8008300Y-12438700D02*
X7968300Y-12478700D01*
X8104190Y-10825800D02*
X8144190Y-10865800D01*
X8144190Y-10825800D02*
X8104190Y-10865800D01*
X8104190Y-11003600D02*
X8144190Y-11043600D01*
X8144190Y-11003600D02*
X8104190Y-11043600D01*
X8108000Y-14165900D02*
X8148000Y-14205900D01*
X8148000Y-14165900D02*
X8108000Y-14205900D01*
X8311200Y-14712000D02*
X8351200Y-14752000D01*
X8351200Y-14712000D02*
X8311200Y-14752000D01*
X8400100Y-10724200D02*
X8440100Y-10764200D01*
X8440100Y-10724200D02*
X8400100Y-10764200D01*
X8400100Y-10876600D02*
X8440100Y-10916600D01*
X8440100Y-10876600D02*
X8400100Y-10916600D01*
X8400100Y-11029000D02*
X8440100Y-11069000D01*
X8440100Y-11029000D02*
X8400100Y-11069000D01*
X8400100Y-11168700D02*
X8440100Y-11208700D01*
X8440100Y-11168700D02*
X8400100Y-11208700D01*
X8479630Y-12133120D02*
X8519630Y-12173120D01*
X8519630Y-12133120D02*
X8479630Y-12173120D01*
X8479630Y-12243120D02*
X8519630Y-12283120D01*
X8519630Y-12243120D02*
X8479630Y-12283120D01*
X8479630Y-12353120D02*
X8519630Y-12393120D01*
X8519630Y-12353120D02*
X8479630Y-12393120D01*
X8539800Y-11168700D02*
X8579800Y-11208700D01*
X8579800Y-11168700D02*
X8539800Y-11208700D01*
X8552500Y-13442000D02*
X8592500Y-13482000D01*
X8592500Y-13442000D02*
X8552500Y-13482000D01*
X8552500Y-13569000D02*
X8592500Y-13609000D01*
X8592500Y-13569000D02*
X8552500Y-13609000D01*
X8628700Y-13696000D02*
X8668700Y-13736000D01*
X8668700Y-13696000D02*
X8628700Y-13736000D01*
X8679500Y-11168700D02*
X8719500Y-11208700D01*
X8719500Y-11168700D02*
X8679500Y-11208700D01*
X8717600Y-13315000D02*
X8757600Y-13355000D01*
X8757600Y-13315000D02*
X8717600Y-13355000D01*
X8717600Y-13950000D02*
X8757600Y-13990000D01*
X8757600Y-13950000D02*
X8717600Y-13990000D01*
X8743000Y-14839000D02*
X8783000Y-14879000D01*
X8783000Y-14839000D02*
X8743000Y-14879000D01*
X8806500Y-11168700D02*
X8846500Y-11208700D01*
X8846500Y-11168700D02*
X8806500Y-11208700D01*
X8819200Y-12616500D02*
X8859200Y-12656500D01*
X8859200Y-12616500D02*
X8819200Y-12656500D01*
X8882700Y-11257600D02*
X8922700Y-11297600D01*
X8922700Y-11257600D02*
X8882700Y-11297600D01*
X8984300Y-11371900D02*
X9024300Y-11411900D01*
X9024300Y-11371900D02*
X8984300Y-11411900D01*
X9035100Y-11168700D02*
X9075100Y-11208700D01*
X9075100Y-11168700D02*
X9035100Y-11208700D01*
X9085900Y-11473500D02*
X9125900Y-11513500D01*
X9125900Y-11473500D02*
X9085900Y-11513500D01*
X9136700Y-11270300D02*
X9176700Y-11310300D01*
X9176700Y-11270300D02*
X9136700Y-11310300D01*
X9149400Y-11168700D02*
X9189400Y-11208700D01*
X9189400Y-11168700D02*
X9149400Y-11208700D01*
X9200200Y-11587800D02*
X9240200Y-11627800D01*
X9240200Y-11587800D02*
X9200200Y-11627800D01*
X9200200Y-11714800D02*
X9240200Y-11754800D01*
X9240200Y-11714800D02*
X9200200Y-11754800D01*
X9251000Y-11384600D02*
X9291000Y-11424600D01*
X9291000Y-11384600D02*
X9251000Y-11424600D01*
X9251000Y-11854500D02*
X9291000Y-11894500D01*
X9291000Y-11854500D02*
X9251000Y-11894500D01*
X9339900Y-11473500D02*
X9379900Y-11513500D01*
X9379900Y-11473500D02*
X9339900Y-11513500D01*
X9378000Y-14026200D02*
X9418000Y-14066200D01*
X9418000Y-14026200D02*
X9378000Y-14066200D01*
X9416100Y-13823000D02*
X9456100Y-13863000D01*
X9456100Y-13823000D02*
X9416100Y-13863000D01*
X9428800Y-11587800D02*
X9468800Y-11627800D01*
X9468800Y-11587800D02*
X9428800Y-11627800D01*
X9428800Y-11854500D02*
X9468800Y-11894500D01*
X9468800Y-11854500D02*
X9428800Y-11894500D01*
X9441500Y-12362500D02*
X9481500Y-12402500D01*
X9481500Y-12362500D02*
X9441500Y-12402500D01*
X9466900Y-11714800D02*
X9506900Y-11754800D01*
X9506900Y-11714800D02*
X9466900Y-11754800D01*
X9467800Y-11397300D02*
X9507800Y-11437300D01*
X9507800Y-11397300D02*
X9467800Y-11437300D01*
X9637800Y-11397300D02*
X9677800Y-11437300D01*
X9677800Y-11397300D02*
X9637800Y-11437300D01*
X9695500Y-13952540D02*
X9735500Y-13992540D01*
X9735500Y-13952540D02*
X9695500Y-13992540D01*
X9695500Y-14107480D02*
X9735500Y-14147480D01*
X9735500Y-14107480D02*
X9695500Y-14147480D01*
X9695500Y-14259880D02*
X9735500Y-14299880D01*
X9735500Y-14259880D02*
X9695500Y-14299880D01*
X9784400Y-12222800D02*
X9824400Y-12262800D01*
X9824400Y-12222800D02*
X9784400Y-12262800D01*
X9807800Y-11397300D02*
X9847800Y-11437300D01*
X9847800Y-11397300D02*
X9807800Y-11437300D01*
X9847900Y-13955080D02*
X9887900Y-13995080D01*
X9887900Y-13955080D02*
X9847900Y-13995080D01*
X9847900Y-14110020D02*
X9887900Y-14150020D01*
X9887900Y-14110020D02*
X9847900Y-14150020D01*
X9847900Y-14262420D02*
X9887900Y-14302420D01*
X9887900Y-14262420D02*
X9847900Y-14302420D01*
X9977800Y-11397300D02*
X10017800Y-11437300D01*
X10017800Y-11397300D02*
X9977800Y-11437300D01*
X9997760Y-13955080D02*
X10037760Y-13995080D01*
X10037760Y-13955080D02*
X9997760Y-13995080D01*
X9997760Y-14110020D02*
X10037760Y-14150020D01*
X10037760Y-14110020D02*
X9997760Y-14150020D01*
X9997760Y-14262420D02*
X10037760Y-14302420D01*
X10037760Y-14262420D02*
X9997760Y-14302420D01*
X10140000Y-13759500D02*
X10180000Y-13799500D01*
X10180000Y-13759500D02*
X10140000Y-13799500D01*
X10147800Y-11397300D02*
X10187800Y-11437300D01*
X10187800Y-11397300D02*
X10147800Y-11437300D01*
X10317800Y-11397300D02*
X10357800Y-11437300D01*
X10357800Y-11397300D02*
X10317800Y-11437300D01*
X10353360Y-13317540D02*
X10393360Y-13357540D01*
X10393360Y-13317540D02*
X10353360Y-13357540D01*
X10482900Y-13696000D02*
X10522900Y-13736000D01*
X10522900Y-13696000D02*
X10482900Y-13736000D01*
X10483800Y-11397300D02*
X10523800Y-11437300D01*
X10523800Y-11397300D02*
X10483800Y-11437300D01*
X10500680Y-14717080D02*
X10540680Y-14757080D01*
X10540680Y-14717080D02*
X10500680Y-14757080D01*
X10510840Y-14844080D02*
X10550840Y-14884080D01*
X10550840Y-14844080D02*
X10510840Y-14884080D01*
X10653800Y-11397300D02*
X10693800Y-11437300D01*
X10693800Y-11397300D02*
X10653800Y-11437300D01*
X10823800Y-11397300D02*
X10863800Y-11437300D01*
X10863800Y-11397300D02*
X10823800Y-11437300D01*
X10907080Y-14864400D02*
X10947080Y-14904400D01*
X10947080Y-14864400D02*
X10907080Y-14904400D01*
X10993800Y-11397300D02*
X11033800Y-11437300D01*
X11033800Y-11397300D02*
X10993800Y-11437300D01*
X11092500Y-14585000D02*
X11132500Y-14625000D01*
X11132500Y-14585000D02*
X11092500Y-14625000D01*
X11163800Y-11397300D02*
X11203800Y-11437300D01*
X11203800Y-11397300D02*
X11163800Y-11437300D01*
X11283000Y-13337860D02*
X11323000Y-13377860D01*
X11323000Y-13337860D02*
X11283000Y-13377860D01*
X11333800Y-11397300D02*
X11373800Y-11437300D01*
X11373800Y-11397300D02*
X11333800Y-11437300D01*
X11486200Y-11397300D02*
X11526200Y-11437300D01*
X11526200Y-11397300D02*
X11486200Y-11437300D01*
D13*
X5740320Y-11874300D02*
G75*
G03*
X5740320Y-11874300I-32500J0D01*
G01*
D11*
X5717820Y-11851800D02*
X5697820Y-11851800D01*
X5717820Y-11896800D02*
X5697820Y-11896800D01*
X5697820Y-11851800D02*
G75*
G03*
X5697820Y-11896800I0J-22500D01*
G01*
X5717820Y-11896800D02*
G75*
G03*
X5717820Y-11851800I0J22500D01*
G01*
D13*
X5740320Y-12359300D02*
G75*
G03*
X5740320Y-12359300I-32500J0D01*
G01*
D11*
X5717820Y-12336800D02*
X5697820Y-12336800D01*
X5717820Y-12381800D02*
X5697820Y-12381800D01*
X5697820Y-12336800D02*
G75*
G03*
X5697820Y-12381800I0J-22500D01*
G01*
X5717820Y-12381800D02*
G75*
G03*
X5717820Y-12336800I0J22500D01*
G01*
D14*
X5417820Y-11715300D02*
X5417820Y-11798300D01*
X5376320Y-11756800D02*
X5459320Y-11756800D01*
D11*
X5451320Y-11725300D02*
X5384320Y-11725300D01*
X5451320Y-11788300D02*
X5384320Y-11788300D01*
X5384320Y-11725300D02*
G75*
G03*
X5384320Y-11788300I0J-31500D01*
G01*
X5451320Y-11788300D02*
G75*
G03*
X5451320Y-11725300I0J31500D01*
G01*
D14*
X5417820Y-12435300D02*
X5417820Y-12518300D01*
X5376320Y-12476800D02*
X5459320Y-12476800D01*
D11*
X5451320Y-12445300D02*
X5384320Y-12445300D01*
X5451320Y-12508300D02*
X5384320Y-12508300D01*
X5384320Y-12445300D02*
G75*
G03*
X5384320Y-12508300I0J-31500D01*
G01*
X5451320Y-12508300D02*
G75*
G03*
X5451320Y-12445300I0J31500D01*
G01*
D15*
X5968717Y-13637117D02*
X5968717Y-13574183D01*
X5905783Y-13574183D01*
X5905783Y-13637117D01*
X5968717Y-13637117D01*
X5968717Y-13841117D02*
X5968717Y-13778183D01*
X5905783Y-13778183D01*
X5905783Y-13841117D01*
X5968717Y-13841117D01*
X5968717Y-14045117D02*
X5968717Y-13982183D01*
X5905783Y-13982183D01*
X5905783Y-14045117D01*
X5968717Y-14045117D01*
X5968717Y-14249117D02*
X5968717Y-14186183D01*
X5905783Y-14186183D01*
X5905783Y-14249117D01*
X5968717Y-14249117D01*
X6146717Y-13535117D02*
X6146717Y-13472183D01*
X6083783Y-13472183D01*
X6083783Y-13535117D01*
X6146717Y-13535117D01*
X6146717Y-13739117D02*
X6146717Y-13676183D01*
X6083783Y-13676183D01*
X6083783Y-13739117D01*
X6146717Y-13739117D01*
X6146717Y-13943117D02*
X6146717Y-13880183D01*
X6083783Y-13880183D01*
X6083783Y-13943117D01*
X6146717Y-13943117D01*
X6146717Y-14147117D02*
X6146717Y-14084183D01*
X6083783Y-14084183D01*
X6083783Y-14147117D01*
X6146717Y-14147117D01*
X6627717Y-13206117D02*
X6627717Y-13143183D01*
X6564783Y-13143183D01*
X6564783Y-13206117D01*
X6627717Y-13206117D01*
X6627717Y-13435117D02*
X6627717Y-13372183D01*
X6564783Y-13372183D01*
X6564783Y-13435117D01*
X6627717Y-13435117D01*
X6627717Y-14349117D02*
X6627717Y-14286183D01*
X6564783Y-14286183D01*
X6564783Y-14349117D01*
X6627717Y-14349117D01*
X6627717Y-14578117D02*
X6627717Y-14515183D01*
X6564783Y-14515183D01*
X6564783Y-14578117D01*
X6627717Y-14578117D01*
D16*
X6070600Y-11226000D02*
X6120600Y-11176000D01*
X6070600Y-11126000D01*
X6020600Y-11176000D01*
X6070600Y-11226000D01*
X6070600Y-11480000D02*
X6120600Y-11430000D01*
X6070600Y-11380000D01*
X6020600Y-11430000D01*
X6070600Y-11480000D01*
X6324600Y-11226000D02*
X6374600Y-11176000D01*
X6324600Y-11126000D01*
X6274600Y-11176000D01*
X6324600Y-11226000D01*
X6324600Y-11480000D02*
X6374600Y-11430000D01*
X6324600Y-11380000D01*
X6274600Y-11430000D01*
X6324600Y-11480000D01*
X7312660Y-15198560D02*
X7362660Y-15148560D01*
X7312660Y-15098560D01*
X7262660Y-15148560D01*
X7312660Y-15198560D01*
X7312660Y-15452560D02*
X7362660Y-15402560D01*
X7312660Y-15352560D01*
X7262660Y-15402560D01*
X7312660Y-15452560D01*
X7566660Y-15198560D02*
X7616660Y-15148560D01*
X7566660Y-15098560D01*
X7516660Y-15148560D01*
X7566660Y-15198560D01*
X7566660Y-15452560D02*
X7616660Y-15402560D01*
X7566660Y-15352560D01*
X7516660Y-15402560D01*
X7566660Y-15452560D01*
X7665490Y-13210600D02*
X7715490Y-13160600D01*
X7665490Y-13110600D01*
X7615490Y-13160600D01*
X7665490Y-13210600D01*
X7665490Y-13464600D02*
X7715490Y-13414600D01*
X7665490Y-13364600D01*
X7615490Y-13414600D01*
X7665490Y-13464600D01*
X7665490Y-13718600D02*
X7715490Y-13668600D01*
X7665490Y-13618600D01*
X7615490Y-13668600D01*
X7665490Y-13718600D01*
X8905240Y-11053280D02*
X8955240Y-11003280D01*
X8905240Y-10953280D01*
X8855240Y-11003280D01*
X8905240Y-11053280D01*
D17*
X5949250Y-12957650D02*
X6129250Y-13137650D01*
X6129250Y-12957650D02*
X5949250Y-13137650D01*
X6129250Y-13047650D02*
G75*
G03*
X6129250Y-13047650I-90000J0D01*
G01*
X5949250Y-14583650D02*
X6129250Y-14763650D01*
X6129250Y-14583650D02*
X5949250Y-14763650D01*
X6129250Y-14673650D02*
G75*
G03*
X6129250Y-14673650I-90000J0D01*
G01*
D11*
X5525819Y-15962276D02*
X5525819Y-15762276D01*
X5573438Y-15762276D01*
X5602009Y-15771800D01*
X5621057Y-15790848D01*
X5630581Y-15809895D01*
X5640105Y-15847990D01*
X5640105Y-15876562D01*
X5630581Y-15914657D01*
X5621057Y-15933705D01*
X5602009Y-15952752D01*
X5573438Y-15962276D01*
X5525819Y-15962276D01*
X5725819Y-15962276D02*
X5725819Y-15828943D01*
X5725819Y-15867038D02*
X5735343Y-15847990D01*
X5744867Y-15838467D01*
X5763914Y-15828943D01*
X5782962Y-15828943D01*
X5849628Y-15962276D02*
X5849628Y-15828943D01*
X5849628Y-15762276D02*
X5840105Y-15771800D01*
X5849628Y-15781324D01*
X5859152Y-15771800D01*
X5849628Y-15762276D01*
X5849628Y-15781324D01*
X5973438Y-15962276D02*
X5954390Y-15952752D01*
X5944867Y-15933705D01*
X5944867Y-15762276D01*
X6078200Y-15962276D02*
X6059152Y-15952752D01*
X6049628Y-15933705D01*
X6049628Y-15762276D01*
X6306771Y-15962276D02*
X6306771Y-15762276D01*
X6373438Y-15905133D01*
X6440105Y-15762276D01*
X6440105Y-15962276D01*
X6621057Y-15962276D02*
X6621057Y-15857514D01*
X6611533Y-15838467D01*
X6592486Y-15828943D01*
X6554390Y-15828943D01*
X6535343Y-15838467D01*
X6621057Y-15952752D02*
X6602009Y-15962276D01*
X6554390Y-15962276D01*
X6535343Y-15952752D01*
X6525819Y-15933705D01*
X6525819Y-15914657D01*
X6535343Y-15895609D01*
X6554390Y-15886086D01*
X6602009Y-15886086D01*
X6621057Y-15876562D01*
X6716295Y-15828943D02*
X6716295Y-16028943D01*
X6716295Y-15838467D02*
X6735343Y-15828943D01*
X6773438Y-15828943D01*
X6792486Y-15838467D01*
X6802009Y-15847990D01*
X6811533Y-15867038D01*
X6811533Y-15924181D01*
X6802009Y-15943228D01*
X6792486Y-15952752D01*
X6773438Y-15962276D01*
X6735343Y-15962276D01*
X6716295Y-15952752D01*
X6897248Y-15943228D02*
X6906771Y-15952752D01*
X6897248Y-15962276D01*
X6887724Y-15952752D01*
X6897248Y-15943228D01*
X6897248Y-15962276D01*
X6897248Y-15838467D02*
X6906771Y-15847990D01*
X6897248Y-15857514D01*
X6887724Y-15847990D01*
X6897248Y-15838467D01*
X6897248Y-15857514D01*
D12*
X5228200Y-16271800D02*
X5268200Y-16311800D01*
X5268200Y-16271800D02*
X5228200Y-16311800D01*
D11*
X5563914Y-16182276D02*
X5582962Y-16182276D01*
X5602009Y-16191800D01*
X5611533Y-16201324D01*
X5621057Y-16220371D01*
X5630581Y-16258467D01*
X5630581Y-16306086D01*
X5621057Y-16344181D01*
X5611533Y-16363228D01*
X5602009Y-16372752D01*
X5582962Y-16382276D01*
X5563914Y-16382276D01*
X5544867Y-16372752D01*
X5535343Y-16363228D01*
X5525819Y-16344181D01*
X5516295Y-16306086D01*
X5516295Y-16258467D01*
X5525819Y-16220371D01*
X5535343Y-16201324D01*
X5544867Y-16191800D01*
X5563914Y-16182276D01*
X5716295Y-16363228D02*
X5725819Y-16372752D01*
X5716295Y-16382276D01*
X5706771Y-16372752D01*
X5716295Y-16363228D01*
X5716295Y-16382276D01*
X5897248Y-16248943D02*
X5897248Y-16382276D01*
X5849628Y-16172752D02*
X5802009Y-16315609D01*
X5925819Y-16315609D01*
X6040105Y-16182276D02*
X6059152Y-16182276D01*
X6078200Y-16191800D01*
X6087724Y-16201324D01*
X6097248Y-16220371D01*
X6106771Y-16258467D01*
X6106771Y-16306086D01*
X6097248Y-16344181D01*
X6087724Y-16363228D01*
X6078200Y-16372752D01*
X6059152Y-16382276D01*
X6040105Y-16382276D01*
X6021057Y-16372752D01*
X6011533Y-16363228D01*
X6002009Y-16344181D01*
X5992486Y-16306086D01*
X5992486Y-16258467D01*
X6002009Y-16220371D01*
X6011533Y-16201324D01*
X6021057Y-16191800D01*
X6040105Y-16182276D01*
X6230581Y-16182276D02*
X6249628Y-16182276D01*
X6268676Y-16191800D01*
X6278200Y-16201324D01*
X6287724Y-16220371D01*
X6297248Y-16258467D01*
X6297248Y-16306086D01*
X6287724Y-16344181D01*
X6278200Y-16363228D01*
X6268676Y-16372752D01*
X6249628Y-16382276D01*
X6230581Y-16382276D01*
X6211533Y-16372752D01*
X6202009Y-16363228D01*
X6192486Y-16344181D01*
X6182962Y-16306086D01*
X6182962Y-16258467D01*
X6192486Y-16220371D01*
X6202009Y-16201324D01*
X6211533Y-16191800D01*
X6230581Y-16182276D01*
X6382962Y-16382276D02*
X6382962Y-16248943D01*
X6382962Y-16267990D02*
X6392486Y-16258467D01*
X6411533Y-16248943D01*
X6440105Y-16248943D01*
X6459152Y-16258467D01*
X6468676Y-16277514D01*
X6468676Y-16382276D01*
X6468676Y-16277514D02*
X6478200Y-16258467D01*
X6497248Y-16248943D01*
X6525819Y-16248943D01*
X6544867Y-16258467D01*
X6554390Y-16277514D01*
X6554390Y-16382276D01*
X6649628Y-16382276D02*
X6649628Y-16248943D01*
X6649628Y-16267990D02*
X6659152Y-16258467D01*
X6678200Y-16248943D01*
X6706771Y-16248943D01*
X6725819Y-16258467D01*
X6735343Y-16277514D01*
X6735343Y-16382276D01*
X6735343Y-16277514D02*
X6744867Y-16258467D01*
X6763914Y-16248943D01*
X6792486Y-16248943D01*
X6811533Y-16258467D01*
X6821057Y-16277514D01*
X6821057Y-16382276D01*
X7211533Y-16172752D02*
X7040105Y-16429895D01*
X7468676Y-16182276D02*
X7487724Y-16182276D01*
X7506771Y-16191800D01*
X7516295Y-16201324D01*
X7525819Y-16220371D01*
X7535343Y-16258467D01*
X7535343Y-16306086D01*
X7525819Y-16344181D01*
X7516295Y-16363228D01*
X7506771Y-16372752D01*
X7487724Y-16382276D01*
X7468676Y-16382276D01*
X7449628Y-16372752D01*
X7440105Y-16363228D01*
X7430581Y-16344181D01*
X7421057Y-16306086D01*
X7421057Y-16258467D01*
X7430581Y-16220371D01*
X7440105Y-16201324D01*
X7449628Y-16191800D01*
X7468676Y-16182276D01*
X7621057Y-16363228D02*
X7630581Y-16372752D01*
X7621057Y-16382276D01*
X7611533Y-16372752D01*
X7621057Y-16363228D01*
X7621057Y-16382276D01*
X7754390Y-16182276D02*
X7773438Y-16182276D01*
X7792486Y-16191800D01*
X7802009Y-16201324D01*
X7811533Y-16220371D01*
X7821057Y-16258467D01*
X7821057Y-16306086D01*
X7811533Y-16344181D01*
X7802009Y-16363228D01*
X7792486Y-16372752D01*
X7773438Y-16382276D01*
X7754390Y-16382276D01*
X7735343Y-16372752D01*
X7725819Y-16363228D01*
X7716295Y-16344181D01*
X7706771Y-16306086D01*
X7706771Y-16258467D01*
X7716295Y-16220371D01*
X7725819Y-16201324D01*
X7735343Y-16191800D01*
X7754390Y-16182276D01*
X8011533Y-16382276D02*
X7897248Y-16382276D01*
X7954390Y-16382276D02*
X7954390Y-16182276D01*
X7935343Y-16210848D01*
X7916295Y-16229895D01*
X7897248Y-16239419D01*
X8192486Y-16182276D02*
X8097248Y-16182276D01*
X8087724Y-16277514D01*
X8097248Y-16267990D01*
X8116295Y-16258467D01*
X8163914Y-16258467D01*
X8182962Y-16267990D01*
X8192486Y-16277514D01*
X8202009Y-16296562D01*
X8202009Y-16344181D01*
X8192486Y-16363228D01*
X8182962Y-16372752D01*
X8163914Y-16382276D01*
X8116295Y-16382276D01*
X8097248Y-16372752D01*
X8087724Y-16363228D01*
X8268676Y-16182276D02*
X8402010Y-16182276D01*
X8316295Y-16382276D01*
X8468676Y-16182276D02*
X8468676Y-16220371D01*
X8544867Y-16182276D02*
X8544867Y-16220371D01*
X8840105Y-16458467D02*
X8830581Y-16448943D01*
X8811533Y-16420371D01*
X8802010Y-16401324D01*
X8792486Y-16372752D01*
X8782962Y-16325133D01*
X8782962Y-16287038D01*
X8792486Y-16239419D01*
X8802010Y-16210848D01*
X8811533Y-16191800D01*
X8830581Y-16163228D01*
X8840105Y-16153705D01*
X8925819Y-16382276D02*
X8963914Y-16382276D01*
X8982962Y-16372752D01*
X8992486Y-16363228D01*
X9011533Y-16334657D01*
X9021057Y-16296562D01*
X9021057Y-16220371D01*
X9011533Y-16201324D01*
X9002010Y-16191800D01*
X8982962Y-16182276D01*
X8944867Y-16182276D01*
X8925819Y-16191800D01*
X8916295Y-16201324D01*
X8906771Y-16220371D01*
X8906771Y-16267990D01*
X8916295Y-16287038D01*
X8925819Y-16296562D01*
X8944867Y-16306086D01*
X8982962Y-16306086D01*
X9002010Y-16296562D01*
X9011533Y-16287038D01*
X9021057Y-16267990D01*
X9202010Y-16182276D02*
X9106771Y-16182276D01*
X9097248Y-16277514D01*
X9106771Y-16267990D01*
X9125819Y-16258467D01*
X9173438Y-16258467D01*
X9192486Y-16267990D01*
X9202010Y-16277514D01*
X9211533Y-16296562D01*
X9211533Y-16344181D01*
X9202010Y-16363228D01*
X9192486Y-16372752D01*
X9173438Y-16382276D01*
X9125819Y-16382276D01*
X9106771Y-16372752D01*
X9097248Y-16363228D01*
X9449629Y-16382276D02*
X9449629Y-16182276D01*
X9535343Y-16382276D02*
X9535343Y-16277514D01*
X9525819Y-16258467D01*
X9506771Y-16248943D01*
X9478200Y-16248943D01*
X9459152Y-16258467D01*
X9449629Y-16267990D01*
X9659152Y-16382276D02*
X9640105Y-16372752D01*
X9630581Y-16363228D01*
X9621057Y-16344181D01*
X9621057Y-16287038D01*
X9630581Y-16267990D01*
X9640105Y-16258467D01*
X9659152Y-16248943D01*
X9687724Y-16248943D01*
X9706771Y-16258467D01*
X9716295Y-16267990D01*
X9725819Y-16287038D01*
X9725819Y-16344181D01*
X9716295Y-16363228D01*
X9706771Y-16372752D01*
X9687724Y-16382276D01*
X9659152Y-16382276D01*
X9840105Y-16382276D02*
X9821057Y-16372752D01*
X9811533Y-16353705D01*
X9811533Y-16182276D01*
X9992486Y-16372752D02*
X9973438Y-16382276D01*
X9935343Y-16382276D01*
X9916295Y-16372752D01*
X9906771Y-16353705D01*
X9906771Y-16277514D01*
X9916295Y-16258467D01*
X9935343Y-16248943D01*
X9973438Y-16248943D01*
X9992486Y-16258467D01*
X10002010Y-16277514D01*
X10002010Y-16296562D01*
X9906771Y-16315609D01*
X10078200Y-16372752D02*
X10097248Y-16382276D01*
X10135343Y-16382276D01*
X10154390Y-16372752D01*
X10163914Y-16353705D01*
X10163914Y-16344181D01*
X10154390Y-16325133D01*
X10135343Y-16315609D01*
X10106771Y-16315609D01*
X10087724Y-16306086D01*
X10078200Y-16287038D01*
X10078200Y-16277514D01*
X10087724Y-16258467D01*
X10106771Y-16248943D01*
X10135343Y-16248943D01*
X10154390Y-16258467D01*
X10230581Y-16458467D02*
X10240105Y-16448943D01*
X10259152Y-16420371D01*
X10268676Y-16401324D01*
X10278200Y-16372752D01*
X10287724Y-16325133D01*
X10287724Y-16287038D01*
X10278200Y-16239419D01*
X10268676Y-16210848D01*
X10259152Y-16191800D01*
X10240105Y-16163228D01*
X10230581Y-16153705D01*
D13*
X5268200Y-16555800D02*
G75*
G03*
X5268200Y-16555800I-32500J0D01*
G01*
D11*
X5563914Y-16446276D02*
X5582962Y-16446276D01*
X5602009Y-16455800D01*
X5611533Y-16465324D01*
X5621057Y-16484371D01*
X5630581Y-16522467D01*
X5630581Y-16570086D01*
X5621057Y-16608181D01*
X5611533Y-16627228D01*
X5602009Y-16636752D01*
X5582962Y-16646276D01*
X5563914Y-16646276D01*
X5544867Y-16636752D01*
X5535343Y-16627228D01*
X5525819Y-16608181D01*
X5516295Y-16570086D01*
X5516295Y-16522467D01*
X5525819Y-16484371D01*
X5535343Y-16465324D01*
X5544867Y-16455800D01*
X5563914Y-16446276D01*
X5716295Y-16627228D02*
X5725819Y-16636752D01*
X5716295Y-16646276D01*
X5706771Y-16636752D01*
X5716295Y-16627228D01*
X5716295Y-16646276D01*
X5897248Y-16446276D02*
X5859152Y-16446276D01*
X5840105Y-16455800D01*
X5830581Y-16465324D01*
X5811533Y-16493895D01*
X5802009Y-16531990D01*
X5802009Y-16608181D01*
X5811533Y-16627228D01*
X5821057Y-16636752D01*
X5840105Y-16646276D01*
X5878200Y-16646276D01*
X5897248Y-16636752D01*
X5906771Y-16627228D01*
X5916295Y-16608181D01*
X5916295Y-16560562D01*
X5906771Y-16541514D01*
X5897248Y-16531990D01*
X5878200Y-16522467D01*
X5840105Y-16522467D01*
X5821057Y-16531990D01*
X5811533Y-16541514D01*
X5802009Y-16560562D01*
X6097248Y-16446276D02*
X6002009Y-16446276D01*
X5992486Y-16541514D01*
X6002009Y-16531990D01*
X6021057Y-16522467D01*
X6068676Y-16522467D01*
X6087724Y-16531990D01*
X6097248Y-16541514D01*
X6106771Y-16560562D01*
X6106771Y-16608181D01*
X6097248Y-16627228D01*
X6087724Y-16636752D01*
X6068676Y-16646276D01*
X6021057Y-16646276D01*
X6002009Y-16636752D01*
X5992486Y-16627228D01*
X6230581Y-16446276D02*
X6249628Y-16446276D01*
X6268676Y-16455800D01*
X6278200Y-16465324D01*
X6287724Y-16484371D01*
X6297248Y-16522467D01*
X6297248Y-16570086D01*
X6287724Y-16608181D01*
X6278200Y-16627228D01*
X6268676Y-16636752D01*
X6249628Y-16646276D01*
X6230581Y-16646276D01*
X6211533Y-16636752D01*
X6202009Y-16627228D01*
X6192486Y-16608181D01*
X6182962Y-16570086D01*
X6182962Y-16522467D01*
X6192486Y-16484371D01*
X6202009Y-16465324D01*
X6211533Y-16455800D01*
X6230581Y-16446276D01*
X6382962Y-16646276D02*
X6382962Y-16512943D01*
X6382962Y-16531990D02*
X6392486Y-16522467D01*
X6411533Y-16512943D01*
X6440105Y-16512943D01*
X6459152Y-16522467D01*
X6468676Y-16541514D01*
X6468676Y-16646276D01*
X6468676Y-16541514D02*
X6478200Y-16522467D01*
X6497248Y-16512943D01*
X6525819Y-16512943D01*
X6544867Y-16522467D01*
X6554390Y-16541514D01*
X6554390Y-16646276D01*
X6649628Y-16646276D02*
X6649628Y-16512943D01*
X6649628Y-16531990D02*
X6659152Y-16522467D01*
X6678200Y-16512943D01*
X6706771Y-16512943D01*
X6725819Y-16522467D01*
X6735343Y-16541514D01*
X6735343Y-16646276D01*
X6735343Y-16541514D02*
X6744867Y-16522467D01*
X6763914Y-16512943D01*
X6792486Y-16512943D01*
X6811533Y-16522467D01*
X6821057Y-16541514D01*
X6821057Y-16646276D01*
X7211533Y-16436752D02*
X7040105Y-16693895D01*
X7468676Y-16446276D02*
X7487724Y-16446276D01*
X7506771Y-16455800D01*
X7516295Y-16465324D01*
X7525819Y-16484371D01*
X7535343Y-16522467D01*
X7535343Y-16570086D01*
X7525819Y-16608181D01*
X7516295Y-16627228D01*
X7506771Y-16636752D01*
X7487724Y-16646276D01*
X7468676Y-16646276D01*
X7449628Y-16636752D01*
X7440105Y-16627228D01*
X7430581Y-16608181D01*
X7421057Y-16570086D01*
X7421057Y-16522467D01*
X7430581Y-16484371D01*
X7440105Y-16465324D01*
X7449628Y-16455800D01*
X7468676Y-16446276D01*
X7621057Y-16627228D02*
X7630581Y-16636752D01*
X7621057Y-16646276D01*
X7611533Y-16636752D01*
X7621057Y-16627228D01*
X7621057Y-16646276D01*
X7754390Y-16446276D02*
X7773438Y-16446276D01*
X7792486Y-16455800D01*
X7802009Y-16465324D01*
X7811533Y-16484371D01*
X7821057Y-16522467D01*
X7821057Y-16570086D01*
X7811533Y-16608181D01*
X7802009Y-16627228D01*
X7792486Y-16636752D01*
X7773438Y-16646276D01*
X7754390Y-16646276D01*
X7735343Y-16636752D01*
X7725819Y-16627228D01*
X7716295Y-16608181D01*
X7706771Y-16570086D01*
X7706771Y-16522467D01*
X7716295Y-16484371D01*
X7725819Y-16465324D01*
X7735343Y-16455800D01*
X7754390Y-16446276D01*
X7897248Y-16465324D02*
X7906771Y-16455800D01*
X7925819Y-16446276D01*
X7973438Y-16446276D01*
X7992486Y-16455800D01*
X8002009Y-16465324D01*
X8011533Y-16484371D01*
X8011533Y-16503419D01*
X8002009Y-16531990D01*
X7887724Y-16646276D01*
X8011533Y-16646276D01*
X8192486Y-16446276D02*
X8097248Y-16446276D01*
X8087724Y-16541514D01*
X8097248Y-16531990D01*
X8116295Y-16522467D01*
X8163914Y-16522467D01*
X8182962Y-16531990D01*
X8192486Y-16541514D01*
X8202009Y-16560562D01*
X8202009Y-16608181D01*
X8192486Y-16627228D01*
X8182962Y-16636752D01*
X8163914Y-16646276D01*
X8116295Y-16646276D01*
X8097248Y-16636752D01*
X8087724Y-16627228D01*
X8373438Y-16446276D02*
X8335343Y-16446276D01*
X8316295Y-16455800D01*
X8306771Y-16465324D01*
X8287724Y-16493895D01*
X8278200Y-16531990D01*
X8278200Y-16608181D01*
X8287724Y-16627228D01*
X8297248Y-16636752D01*
X8316295Y-16646276D01*
X8354390Y-16646276D01*
X8373438Y-16636752D01*
X8382962Y-16627228D01*
X8392486Y-16608181D01*
X8392486Y-16560562D01*
X8382962Y-16541514D01*
X8373438Y-16531990D01*
X8354390Y-16522467D01*
X8316295Y-16522467D01*
X8297248Y-16531990D01*
X8287724Y-16541514D01*
X8278200Y-16560562D01*
X8468676Y-16446276D02*
X8468676Y-16484371D01*
X8544867Y-16446276D02*
X8544867Y-16484371D01*
X8840105Y-16722467D02*
X8830581Y-16712943D01*
X8811533Y-16684371D01*
X8802010Y-16665324D01*
X8792486Y-16636752D01*
X8782962Y-16589133D01*
X8782962Y-16551038D01*
X8792486Y-16503419D01*
X8802010Y-16474848D01*
X8811533Y-16455800D01*
X8830581Y-16427228D01*
X8840105Y-16417705D01*
X8954390Y-16446276D02*
X8973438Y-16446276D01*
X8992486Y-16455800D01*
X9002010Y-16465324D01*
X9011533Y-16484371D01*
X9021057Y-16522467D01*
X9021057Y-16570086D01*
X9011533Y-16608181D01*
X9002010Y-16627228D01*
X8992486Y-16636752D01*
X8973438Y-16646276D01*
X8954390Y-16646276D01*
X8935343Y-16636752D01*
X8925819Y-16627228D01*
X8916295Y-16608181D01*
X8906771Y-16570086D01*
X8906771Y-16522467D01*
X8916295Y-16484371D01*
X8925819Y-16465324D01*
X8935343Y-16455800D01*
X8954390Y-16446276D01*
X9259152Y-16646276D02*
X9259152Y-16446276D01*
X9344867Y-16646276D02*
X9344867Y-16541514D01*
X9335343Y-16522467D01*
X9316295Y-16512943D01*
X9287724Y-16512943D01*
X9268676Y-16522467D01*
X9259152Y-16531990D01*
X9468676Y-16646276D02*
X9449629Y-16636752D01*
X9440105Y-16627228D01*
X9430581Y-16608181D01*
X9430581Y-16551038D01*
X9440105Y-16531990D01*
X9449629Y-16522467D01*
X9468676Y-16512943D01*
X9497248Y-16512943D01*
X9516295Y-16522467D01*
X9525819Y-16531990D01*
X9535343Y-16551038D01*
X9535343Y-16608181D01*
X9525819Y-16627228D01*
X9516295Y-16636752D01*
X9497248Y-16646276D01*
X9468676Y-16646276D01*
X9649629Y-16646276D02*
X9630581Y-16636752D01*
X9621057Y-16617705D01*
X9621057Y-16446276D01*
X9802010Y-16636752D02*
X9782962Y-16646276D01*
X9744867Y-16646276D01*
X9725819Y-16636752D01*
X9716295Y-16617705D01*
X9716295Y-16541514D01*
X9725819Y-16522467D01*
X9744867Y-16512943D01*
X9782962Y-16512943D01*
X9802010Y-16522467D01*
X9811533Y-16541514D01*
X9811533Y-16560562D01*
X9716295Y-16579609D01*
X9887724Y-16636752D02*
X9906771Y-16646276D01*
X9944867Y-16646276D01*
X9963914Y-16636752D01*
X9973438Y-16617705D01*
X9973438Y-16608181D01*
X9963914Y-16589133D01*
X9944867Y-16579609D01*
X9916295Y-16579609D01*
X9897248Y-16570086D01*
X9887724Y-16551038D01*
X9887724Y-16541514D01*
X9897248Y-16522467D01*
X9916295Y-16512943D01*
X9944867Y-16512943D01*
X9963914Y-16522467D01*
X10211533Y-16570086D02*
X10363914Y-16570086D01*
X10287724Y-16646276D02*
X10287724Y-16493895D01*
X10602010Y-16465324D02*
X10611533Y-16455800D01*
X10630581Y-16446276D01*
X10678200Y-16446276D01*
X10697248Y-16455800D01*
X10706771Y-16465324D01*
X10716295Y-16484371D01*
X10716295Y-16503419D01*
X10706771Y-16531990D01*
X10592486Y-16646276D01*
X10716295Y-16646276D01*
X10944867Y-16636752D02*
X10963914Y-16646276D01*
X11002010Y-16646276D01*
X11021057Y-16636752D01*
X11030581Y-16617705D01*
X11030581Y-16608181D01*
X11021057Y-16589133D01*
X11002010Y-16579609D01*
X10973438Y-16579609D01*
X10954390Y-16570086D01*
X10944867Y-16551038D01*
X10944867Y-16541514D01*
X10954390Y-16522467D01*
X10973438Y-16512943D01*
X11002010Y-16512943D01*
X11021057Y-16522467D01*
X11144867Y-16646276D02*
X11125819Y-16636752D01*
X11116295Y-16617705D01*
X11116295Y-16446276D01*
X11249628Y-16646276D02*
X11230581Y-16636752D01*
X11221057Y-16627228D01*
X11211533Y-16608181D01*
X11211533Y-16551038D01*
X11221057Y-16531990D01*
X11230581Y-16522467D01*
X11249628Y-16512943D01*
X11278200Y-16512943D01*
X11297248Y-16522467D01*
X11306771Y-16531990D01*
X11316295Y-16551038D01*
X11316295Y-16608181D01*
X11306771Y-16627228D01*
X11297248Y-16636752D01*
X11278200Y-16646276D01*
X11249628Y-16646276D01*
X11373438Y-16512943D02*
X11449628Y-16512943D01*
X11402009Y-16446276D02*
X11402009Y-16617705D01*
X11411533Y-16636752D01*
X11430581Y-16646276D01*
X11449628Y-16646276D01*
X11506771Y-16636752D02*
X11525819Y-16646276D01*
X11563914Y-16646276D01*
X11582962Y-16636752D01*
X11592486Y-16617705D01*
X11592486Y-16608181D01*
X11582962Y-16589133D01*
X11563914Y-16579609D01*
X11535343Y-16579609D01*
X11516295Y-16570086D01*
X11506771Y-16551038D01*
X11506771Y-16541514D01*
X11516295Y-16522467D01*
X11535343Y-16512943D01*
X11563914Y-16512943D01*
X11582962Y-16522467D01*
X11659152Y-16722467D02*
X11668676Y-16712943D01*
X11687724Y-16684371D01*
X11697248Y-16665324D01*
X11706771Y-16636752D01*
X11716295Y-16589133D01*
X11716295Y-16551038D01*
X11706771Y-16503419D01*
X11697248Y-16474848D01*
X11687724Y-16455800D01*
X11668676Y-16427228D01*
X11659152Y-16417705D01*
D14*
X5226700Y-16778300D02*
X5226700Y-16861300D01*
X5185200Y-16819800D02*
X5268200Y-16819800D01*
D11*
X5563914Y-16710276D02*
X5582962Y-16710276D01*
X5602009Y-16719800D01*
X5611533Y-16729324D01*
X5621057Y-16748371D01*
X5630581Y-16786467D01*
X5630581Y-16834086D01*
X5621057Y-16872181D01*
X5611533Y-16891229D01*
X5602009Y-16900752D01*
X5582962Y-16910276D01*
X5563914Y-16910276D01*
X5544867Y-16900752D01*
X5535343Y-16891229D01*
X5525819Y-16872181D01*
X5516295Y-16834086D01*
X5516295Y-16786467D01*
X5525819Y-16748371D01*
X5535343Y-16729324D01*
X5544867Y-16719800D01*
X5563914Y-16710276D01*
X5716295Y-16891229D02*
X5725819Y-16900752D01*
X5716295Y-16910276D01*
X5706771Y-16900752D01*
X5716295Y-16891229D01*
X5716295Y-16910276D01*
X5840105Y-16795990D02*
X5821057Y-16786467D01*
X5811533Y-16776943D01*
X5802009Y-16757895D01*
X5802009Y-16748371D01*
X5811533Y-16729324D01*
X5821057Y-16719800D01*
X5840105Y-16710276D01*
X5878200Y-16710276D01*
X5897248Y-16719800D01*
X5906771Y-16729324D01*
X5916295Y-16748371D01*
X5916295Y-16757895D01*
X5906771Y-16776943D01*
X5897248Y-16786467D01*
X5878200Y-16795990D01*
X5840105Y-16795990D01*
X5821057Y-16805514D01*
X5811533Y-16815038D01*
X5802009Y-16834086D01*
X5802009Y-16872181D01*
X5811533Y-16891229D01*
X5821057Y-16900752D01*
X5840105Y-16910276D01*
X5878200Y-16910276D01*
X5897248Y-16900752D01*
X5906771Y-16891229D01*
X5916295Y-16872181D01*
X5916295Y-16834086D01*
X5906771Y-16815038D01*
X5897248Y-16805514D01*
X5878200Y-16795990D01*
X5982962Y-16710276D02*
X6106771Y-16710276D01*
X6040105Y-16786467D01*
X6068676Y-16786467D01*
X6087724Y-16795990D01*
X6097248Y-16805514D01*
X6106771Y-16824562D01*
X6106771Y-16872181D01*
X6097248Y-16891229D01*
X6087724Y-16900752D01*
X6068676Y-16910276D01*
X6011533Y-16910276D01*
X5992486Y-16900752D01*
X5982962Y-16891229D01*
X6230581Y-16710276D02*
X6249628Y-16710276D01*
X6268676Y-16719800D01*
X6278200Y-16729324D01*
X6287724Y-16748371D01*
X6297248Y-16786467D01*
X6297248Y-16834086D01*
X6287724Y-16872181D01*
X6278200Y-16891229D01*
X6268676Y-16900752D01*
X6249628Y-16910276D01*
X6230581Y-16910276D01*
X6211533Y-16900752D01*
X6202009Y-16891229D01*
X6192486Y-16872181D01*
X6182962Y-16834086D01*
X6182962Y-16786467D01*
X6192486Y-16748371D01*
X6202009Y-16729324D01*
X6211533Y-16719800D01*
X6230581Y-16710276D01*
X6382962Y-16910276D02*
X6382962Y-16776943D01*
X6382962Y-16795990D02*
X6392486Y-16786467D01*
X6411533Y-16776943D01*
X6440105Y-16776943D01*
X6459152Y-16786467D01*
X6468676Y-16805514D01*
X6468676Y-16910276D01*
X6468676Y-16805514D02*
X6478200Y-16786467D01*
X6497248Y-16776943D01*
X6525819Y-16776943D01*
X6544867Y-16786467D01*
X6554390Y-16805514D01*
X6554390Y-16910276D01*
X6649628Y-16910276D02*
X6649628Y-16776943D01*
X6649628Y-16795990D02*
X6659152Y-16786467D01*
X6678200Y-16776943D01*
X6706771Y-16776943D01*
X6725819Y-16786467D01*
X6735343Y-16805514D01*
X6735343Y-16910276D01*
X6735343Y-16805514D02*
X6744867Y-16786467D01*
X6763914Y-16776943D01*
X6792486Y-16776943D01*
X6811533Y-16786467D01*
X6821057Y-16805514D01*
X6821057Y-16910276D01*
X7211533Y-16700752D02*
X7040105Y-16957895D01*
X7468676Y-16710276D02*
X7487724Y-16710276D01*
X7506771Y-16719800D01*
X7516295Y-16729324D01*
X7525819Y-16748371D01*
X7535343Y-16786467D01*
X7535343Y-16834086D01*
X7525819Y-16872181D01*
X7516295Y-16891229D01*
X7506771Y-16900752D01*
X7487724Y-16910276D01*
X7468676Y-16910276D01*
X7449628Y-16900752D01*
X7440105Y-16891229D01*
X7430581Y-16872181D01*
X7421057Y-16834086D01*
X7421057Y-16786467D01*
X7430581Y-16748371D01*
X7440105Y-16729324D01*
X7449628Y-16719800D01*
X7468676Y-16710276D01*
X7621057Y-16891229D02*
X7630581Y-16900752D01*
X7621057Y-16910276D01*
X7611533Y-16900752D01*
X7621057Y-16891229D01*
X7621057Y-16910276D01*
X7754390Y-16710276D02*
X7773438Y-16710276D01*
X7792486Y-16719800D01*
X7802009Y-16729324D01*
X7811533Y-16748371D01*
X7821057Y-16786467D01*
X7821057Y-16834086D01*
X7811533Y-16872181D01*
X7802009Y-16891229D01*
X7792486Y-16900752D01*
X7773438Y-16910276D01*
X7754390Y-16910276D01*
X7735343Y-16900752D01*
X7725819Y-16891229D01*
X7716295Y-16872181D01*
X7706771Y-16834086D01*
X7706771Y-16786467D01*
X7716295Y-16748371D01*
X7725819Y-16729324D01*
X7735343Y-16719800D01*
X7754390Y-16710276D01*
X7887724Y-16710276D02*
X8011533Y-16710276D01*
X7944867Y-16786467D01*
X7973438Y-16786467D01*
X7992486Y-16795990D01*
X8002009Y-16805514D01*
X8011533Y-16824562D01*
X8011533Y-16872181D01*
X8002009Y-16891229D01*
X7992486Y-16900752D01*
X7973438Y-16910276D01*
X7916295Y-16910276D01*
X7897248Y-16900752D01*
X7887724Y-16891229D01*
X8087724Y-16729324D02*
X8097248Y-16719800D01*
X8116295Y-16710276D01*
X8163914Y-16710276D01*
X8182962Y-16719800D01*
X8192486Y-16729324D01*
X8202009Y-16748371D01*
X8202009Y-16767419D01*
X8192486Y-16795990D01*
X8078200Y-16910276D01*
X8202009Y-16910276D01*
X8268676Y-16710276D02*
X8402010Y-16710276D01*
X8316295Y-16910276D01*
X8468676Y-16710276D02*
X8468676Y-16748371D01*
X8544867Y-16710276D02*
X8544867Y-16748371D01*
X8840105Y-16986467D02*
X8830581Y-16976943D01*
X8811533Y-16948371D01*
X8802010Y-16929324D01*
X8792486Y-16900752D01*
X8782962Y-16853133D01*
X8782962Y-16815038D01*
X8792486Y-16767419D01*
X8802010Y-16738848D01*
X8811533Y-16719800D01*
X8830581Y-16691228D01*
X8840105Y-16681705D01*
X8954390Y-16710276D02*
X8973438Y-16710276D01*
X8992486Y-16719800D01*
X9002010Y-16729324D01*
X9011533Y-16748371D01*
X9021057Y-16786467D01*
X9021057Y-16834086D01*
X9011533Y-16872181D01*
X9002010Y-16891229D01*
X8992486Y-16900752D01*
X8973438Y-16910276D01*
X8954390Y-16910276D01*
X8935343Y-16900752D01*
X8925819Y-16891229D01*
X8916295Y-16872181D01*
X8906771Y-16834086D01*
X8906771Y-16786467D01*
X8916295Y-16748371D01*
X8925819Y-16729324D01*
X8935343Y-16719800D01*
X8954390Y-16710276D01*
X9259152Y-16910276D02*
X9259152Y-16710276D01*
X9344867Y-16910276D02*
X9344867Y-16805514D01*
X9335343Y-16786467D01*
X9316295Y-16776943D01*
X9287724Y-16776943D01*
X9268676Y-16786467D01*
X9259152Y-16795990D01*
X9468676Y-16910276D02*
X9449629Y-16900752D01*
X9440105Y-16891229D01*
X9430581Y-16872181D01*
X9430581Y-16815038D01*
X9440105Y-16795990D01*
X9449629Y-16786467D01*
X9468676Y-16776943D01*
X9497248Y-16776943D01*
X9516295Y-16786467D01*
X9525819Y-16795990D01*
X9535343Y-16815038D01*
X9535343Y-16872181D01*
X9525819Y-16891229D01*
X9516295Y-16900752D01*
X9497248Y-16910276D01*
X9468676Y-16910276D01*
X9649629Y-16910276D02*
X9630581Y-16900752D01*
X9621057Y-16881705D01*
X9621057Y-16710276D01*
X9802010Y-16900752D02*
X9782962Y-16910276D01*
X9744867Y-16910276D01*
X9725819Y-16900752D01*
X9716295Y-16881705D01*
X9716295Y-16805514D01*
X9725819Y-16786467D01*
X9744867Y-16776943D01*
X9782962Y-16776943D01*
X9802010Y-16786467D01*
X9811533Y-16805514D01*
X9811533Y-16824562D01*
X9716295Y-16843610D01*
X9887724Y-16900752D02*
X9906771Y-16910276D01*
X9944867Y-16910276D01*
X9963914Y-16900752D01*
X9973438Y-16881705D01*
X9973438Y-16872181D01*
X9963914Y-16853133D01*
X9944867Y-16843610D01*
X9916295Y-16843610D01*
X9897248Y-16834086D01*
X9887724Y-16815038D01*
X9887724Y-16805514D01*
X9897248Y-16786467D01*
X9916295Y-16776943D01*
X9944867Y-16776943D01*
X9963914Y-16786467D01*
X10211533Y-16834086D02*
X10363914Y-16834086D01*
X10287724Y-16910276D02*
X10287724Y-16757895D01*
X10602010Y-16729324D02*
X10611533Y-16719800D01*
X10630581Y-16710276D01*
X10678200Y-16710276D01*
X10697248Y-16719800D01*
X10706771Y-16729324D01*
X10716295Y-16748371D01*
X10716295Y-16767419D01*
X10706771Y-16795990D01*
X10592486Y-16910276D01*
X10716295Y-16910276D01*
X10944867Y-16900752D02*
X10963914Y-16910276D01*
X11002010Y-16910276D01*
X11021057Y-16900752D01*
X11030581Y-16881705D01*
X11030581Y-16872181D01*
X11021057Y-16853133D01*
X11002010Y-16843610D01*
X10973438Y-16843610D01*
X10954390Y-16834086D01*
X10944867Y-16815038D01*
X10944867Y-16805514D01*
X10954390Y-16786467D01*
X10973438Y-16776943D01*
X11002010Y-16776943D01*
X11021057Y-16786467D01*
X11144867Y-16910276D02*
X11125819Y-16900752D01*
X11116295Y-16881705D01*
X11116295Y-16710276D01*
X11249628Y-16910276D02*
X11230581Y-16900752D01*
X11221057Y-16891229D01*
X11211533Y-16872181D01*
X11211533Y-16815038D01*
X11221057Y-16795990D01*
X11230581Y-16786467D01*
X11249628Y-16776943D01*
X11278200Y-16776943D01*
X11297248Y-16786467D01*
X11306771Y-16795990D01*
X11316295Y-16815038D01*
X11316295Y-16872181D01*
X11306771Y-16891229D01*
X11297248Y-16900752D01*
X11278200Y-16910276D01*
X11249628Y-16910276D01*
X11373438Y-16776943D02*
X11449628Y-16776943D01*
X11402009Y-16710276D02*
X11402009Y-16881705D01*
X11411533Y-16900752D01*
X11430581Y-16910276D01*
X11449628Y-16910276D01*
X11506771Y-16900752D02*
X11525819Y-16910276D01*
X11563914Y-16910276D01*
X11582962Y-16900752D01*
X11592486Y-16881705D01*
X11592486Y-16872181D01*
X11582962Y-16853133D01*
X11563914Y-16843610D01*
X11535343Y-16843610D01*
X11516295Y-16834086D01*
X11506771Y-16815038D01*
X11506771Y-16805514D01*
X11516295Y-16786467D01*
X11535343Y-16776943D01*
X11563914Y-16776943D01*
X11582962Y-16786467D01*
X11659152Y-16986467D02*
X11668676Y-16976943D01*
X11687724Y-16948371D01*
X11697248Y-16929324D01*
X11706771Y-16900752D01*
X11716295Y-16853133D01*
X11716295Y-16815038D01*
X11706771Y-16767419D01*
X11697248Y-16738848D01*
X11687724Y-16719800D01*
X11668676Y-16691228D01*
X11659152Y-16681705D01*
D15*
X5255167Y-17115267D02*
X5255167Y-17052333D01*
X5192233Y-17052333D01*
X5192233Y-17115267D01*
X5255167Y-17115267D01*
D11*
X5563914Y-16974276D02*
X5582962Y-16974276D01*
X5602009Y-16983800D01*
X5611533Y-16993324D01*
X5621057Y-17012371D01*
X5630581Y-17050467D01*
X5630581Y-17098086D01*
X5621057Y-17136181D01*
X5611533Y-17155229D01*
X5602009Y-17164752D01*
X5582962Y-17174276D01*
X5563914Y-17174276D01*
X5544867Y-17164752D01*
X5535343Y-17155229D01*
X5525819Y-17136181D01*
X5516295Y-17098086D01*
X5516295Y-17050467D01*
X5525819Y-17012371D01*
X5535343Y-16993324D01*
X5544867Y-16983800D01*
X5563914Y-16974276D01*
X5716295Y-17155229D02*
X5725819Y-17164752D01*
X5716295Y-17174276D01*
X5706771Y-17164752D01*
X5716295Y-17155229D01*
X5716295Y-17174276D01*
X5840105Y-17059990D02*
X5821057Y-17050467D01*
X5811533Y-17040943D01*
X5802009Y-17021895D01*
X5802009Y-17012371D01*
X5811533Y-16993324D01*
X5821057Y-16983800D01*
X5840105Y-16974276D01*
X5878200Y-16974276D01*
X5897248Y-16983800D01*
X5906771Y-16993324D01*
X5916295Y-17012371D01*
X5916295Y-17021895D01*
X5906771Y-17040943D01*
X5897248Y-17050467D01*
X5878200Y-17059990D01*
X5840105Y-17059990D01*
X5821057Y-17069514D01*
X5811533Y-17079038D01*
X5802009Y-17098086D01*
X5802009Y-17136181D01*
X5811533Y-17155229D01*
X5821057Y-17164752D01*
X5840105Y-17174276D01*
X5878200Y-17174276D01*
X5897248Y-17164752D01*
X5906771Y-17155229D01*
X5916295Y-17136181D01*
X5916295Y-17098086D01*
X5906771Y-17079038D01*
X5897248Y-17069514D01*
X5878200Y-17059990D01*
X6011533Y-17174276D02*
X6049628Y-17174276D01*
X6068676Y-17164752D01*
X6078200Y-17155229D01*
X6097248Y-17126657D01*
X6106771Y-17088562D01*
X6106771Y-17012371D01*
X6097248Y-16993324D01*
X6087724Y-16983800D01*
X6068676Y-16974276D01*
X6030581Y-16974276D01*
X6011533Y-16983800D01*
X6002009Y-16993324D01*
X5992486Y-17012371D01*
X5992486Y-17059990D01*
X6002009Y-17079038D01*
X6011533Y-17088562D01*
X6030581Y-17098086D01*
X6068676Y-17098086D01*
X6087724Y-17088562D01*
X6097248Y-17079038D01*
X6106771Y-17059990D01*
X6230581Y-16974276D02*
X6249628Y-16974276D01*
X6268676Y-16983800D01*
X6278200Y-16993324D01*
X6287724Y-17012371D01*
X6297248Y-17050467D01*
X6297248Y-17098086D01*
X6287724Y-17136181D01*
X6278200Y-17155229D01*
X6268676Y-17164752D01*
X6249628Y-17174276D01*
X6230581Y-17174276D01*
X6211533Y-17164752D01*
X6202009Y-17155229D01*
X6192486Y-17136181D01*
X6182962Y-17098086D01*
X6182962Y-17050467D01*
X6192486Y-17012371D01*
X6202009Y-16993324D01*
X6211533Y-16983800D01*
X6230581Y-16974276D01*
X6382962Y-17174276D02*
X6382962Y-17040943D01*
X6382962Y-17059990D02*
X6392486Y-17050467D01*
X6411533Y-17040943D01*
X6440105Y-17040943D01*
X6459152Y-17050467D01*
X6468676Y-17069514D01*
X6468676Y-17174276D01*
X6468676Y-17069514D02*
X6478200Y-17050467D01*
X6497248Y-17040943D01*
X6525819Y-17040943D01*
X6544867Y-17050467D01*
X6554390Y-17069514D01*
X6554390Y-17174276D01*
X6649628Y-17174276D02*
X6649628Y-17040943D01*
X6649628Y-17059990D02*
X6659152Y-17050467D01*
X6678200Y-17040943D01*
X6706771Y-17040943D01*
X6725819Y-17050467D01*
X6735343Y-17069514D01*
X6735343Y-17174276D01*
X6735343Y-17069514D02*
X6744867Y-17050467D01*
X6763914Y-17040943D01*
X6792486Y-17040943D01*
X6811533Y-17050467D01*
X6821057Y-17069514D01*
X6821057Y-17174276D01*
X7211533Y-16964752D02*
X7040105Y-17221895D01*
X7468676Y-16974276D02*
X7487724Y-16974276D01*
X7506771Y-16983800D01*
X7516295Y-16993324D01*
X7525819Y-17012371D01*
X7535343Y-17050467D01*
X7535343Y-17098086D01*
X7525819Y-17136181D01*
X7516295Y-17155229D01*
X7506771Y-17164752D01*
X7487724Y-17174276D01*
X7468676Y-17174276D01*
X7449628Y-17164752D01*
X7440105Y-17155229D01*
X7430581Y-17136181D01*
X7421057Y-17098086D01*
X7421057Y-17050467D01*
X7430581Y-17012371D01*
X7440105Y-16993324D01*
X7449628Y-16983800D01*
X7468676Y-16974276D01*
X7621057Y-17155229D02*
X7630581Y-17164752D01*
X7621057Y-17174276D01*
X7611533Y-17164752D01*
X7621057Y-17155229D01*
X7621057Y-17174276D01*
X7754390Y-16974276D02*
X7773438Y-16974276D01*
X7792486Y-16983800D01*
X7802009Y-16993324D01*
X7811533Y-17012371D01*
X7821057Y-17050467D01*
X7821057Y-17098086D01*
X7811533Y-17136181D01*
X7802009Y-17155229D01*
X7792486Y-17164752D01*
X7773438Y-17174276D01*
X7754390Y-17174276D01*
X7735343Y-17164752D01*
X7725819Y-17155229D01*
X7716295Y-17136181D01*
X7706771Y-17098086D01*
X7706771Y-17050467D01*
X7716295Y-17012371D01*
X7725819Y-16993324D01*
X7735343Y-16983800D01*
X7754390Y-16974276D01*
X7887724Y-16974276D02*
X8011533Y-16974276D01*
X7944867Y-17050467D01*
X7973438Y-17050467D01*
X7992486Y-17059990D01*
X8002009Y-17069514D01*
X8011533Y-17088562D01*
X8011533Y-17136181D01*
X8002009Y-17155229D01*
X7992486Y-17164752D01*
X7973438Y-17174276D01*
X7916295Y-17174276D01*
X7897248Y-17164752D01*
X7887724Y-17155229D01*
X8192486Y-16974276D02*
X8097248Y-16974276D01*
X8087724Y-17069514D01*
X8097248Y-17059990D01*
X8116295Y-17050467D01*
X8163914Y-17050467D01*
X8182962Y-17059990D01*
X8192486Y-17069514D01*
X8202009Y-17088562D01*
X8202009Y-17136181D01*
X8192486Y-17155229D01*
X8182962Y-17164752D01*
X8163914Y-17174276D01*
X8116295Y-17174276D01*
X8097248Y-17164752D01*
X8087724Y-17155229D01*
X8325819Y-16974276D02*
X8344867Y-16974276D01*
X8363914Y-16983800D01*
X8373438Y-16993324D01*
X8382962Y-17012371D01*
X8392486Y-17050467D01*
X8392486Y-17098086D01*
X8382962Y-17136181D01*
X8373438Y-17155229D01*
X8363914Y-17164752D01*
X8344867Y-17174276D01*
X8325819Y-17174276D01*
X8306771Y-17164752D01*
X8297248Y-17155229D01*
X8287724Y-17136181D01*
X8278200Y-17098086D01*
X8278200Y-17050467D01*
X8287724Y-17012371D01*
X8297248Y-16993324D01*
X8306771Y-16983800D01*
X8325819Y-16974276D01*
X8468676Y-16974276D02*
X8468676Y-17012371D01*
X8544867Y-16974276D02*
X8544867Y-17012371D01*
X8840105Y-17250467D02*
X8830581Y-17240943D01*
X8811533Y-17212371D01*
X8802010Y-17193324D01*
X8792486Y-17164752D01*
X8782962Y-17117133D01*
X8782962Y-17079038D01*
X8792486Y-17031419D01*
X8802010Y-17002848D01*
X8811533Y-16983800D01*
X8830581Y-16955229D01*
X8840105Y-16945705D01*
X9021057Y-17174276D02*
X8906771Y-17174276D01*
X8963914Y-17174276D02*
X8963914Y-16974276D01*
X8944867Y-17002848D01*
X8925819Y-17021895D01*
X8906771Y-17031419D01*
X9097248Y-16993324D02*
X9106771Y-16983800D01*
X9125819Y-16974276D01*
X9173438Y-16974276D01*
X9192486Y-16983800D01*
X9202010Y-16993324D01*
X9211533Y-17012371D01*
X9211533Y-17031419D01*
X9202010Y-17059990D01*
X9087724Y-17174276D01*
X9211533Y-17174276D01*
X9449629Y-17174276D02*
X9449629Y-16974276D01*
X9535343Y-17174276D02*
X9535343Y-17069514D01*
X9525819Y-17050467D01*
X9506771Y-17040943D01*
X9478200Y-17040943D01*
X9459152Y-17050467D01*
X9449629Y-17059990D01*
X9659152Y-17174276D02*
X9640105Y-17164752D01*
X9630581Y-17155229D01*
X9621057Y-17136181D01*
X9621057Y-17079038D01*
X9630581Y-17059990D01*
X9640105Y-17050467D01*
X9659152Y-17040943D01*
X9687724Y-17040943D01*
X9706771Y-17050467D01*
X9716295Y-17059990D01*
X9725819Y-17079038D01*
X9725819Y-17136181D01*
X9716295Y-17155229D01*
X9706771Y-17164752D01*
X9687724Y-17174276D01*
X9659152Y-17174276D01*
X9840105Y-17174276D02*
X9821057Y-17164752D01*
X9811533Y-17145705D01*
X9811533Y-16974276D01*
X9992486Y-17164752D02*
X9973438Y-17174276D01*
X9935343Y-17174276D01*
X9916295Y-17164752D01*
X9906771Y-17145705D01*
X9906771Y-17069514D01*
X9916295Y-17050467D01*
X9935343Y-17040943D01*
X9973438Y-17040943D01*
X9992486Y-17050467D01*
X10002010Y-17069514D01*
X10002010Y-17088562D01*
X9906771Y-17107610D01*
X10078200Y-17164752D02*
X10097248Y-17174276D01*
X10135343Y-17174276D01*
X10154390Y-17164752D01*
X10163914Y-17145705D01*
X10163914Y-17136181D01*
X10154390Y-17117133D01*
X10135343Y-17107610D01*
X10106771Y-17107610D01*
X10087724Y-17098086D01*
X10078200Y-17079038D01*
X10078200Y-17069514D01*
X10087724Y-17050467D01*
X10106771Y-17040943D01*
X10135343Y-17040943D01*
X10154390Y-17050467D01*
X10230581Y-17250467D02*
X10240105Y-17240943D01*
X10259152Y-17212371D01*
X10268676Y-17193324D01*
X10278200Y-17164752D01*
X10287724Y-17117133D01*
X10287724Y-17079038D01*
X10278200Y-17031419D01*
X10268676Y-17002848D01*
X10259152Y-16983800D01*
X10240105Y-16955229D01*
X10230581Y-16945705D01*
D16*
X5218200Y-17397800D02*
X5268200Y-17347800D01*
X5218200Y-17297800D01*
X5168200Y-17347800D01*
X5218200Y-17397800D01*
D11*
X5630581Y-17438276D02*
X5516295Y-17438276D01*
X5573438Y-17438276D02*
X5573438Y-17238276D01*
X5554390Y-17266848D01*
X5535343Y-17285895D01*
X5516295Y-17295419D01*
X5716295Y-17419229D02*
X5725819Y-17428752D01*
X5716295Y-17438276D01*
X5706771Y-17428752D01*
X5716295Y-17419229D01*
X5716295Y-17438276D01*
X5849628Y-17238276D02*
X5868676Y-17238276D01*
X5887724Y-17247800D01*
X5897248Y-17257324D01*
X5906771Y-17276371D01*
X5916295Y-17314467D01*
X5916295Y-17362086D01*
X5906771Y-17400181D01*
X5897248Y-17419229D01*
X5887724Y-17428752D01*
X5868676Y-17438276D01*
X5849628Y-17438276D01*
X5830581Y-17428752D01*
X5821057Y-17419229D01*
X5811533Y-17400181D01*
X5802009Y-17362086D01*
X5802009Y-17314467D01*
X5811533Y-17276371D01*
X5821057Y-17257324D01*
X5830581Y-17247800D01*
X5849628Y-17238276D01*
X6040105Y-17238276D02*
X6059152Y-17238276D01*
X6078200Y-17247800D01*
X6087724Y-17257324D01*
X6097248Y-17276371D01*
X6106771Y-17314467D01*
X6106771Y-17362086D01*
X6097248Y-17400181D01*
X6087724Y-17419229D01*
X6078200Y-17428752D01*
X6059152Y-17438276D01*
X6040105Y-17438276D01*
X6021057Y-17428752D01*
X6011533Y-17419229D01*
X6002009Y-17400181D01*
X5992486Y-17362086D01*
X5992486Y-17314467D01*
X6002009Y-17276371D01*
X6011533Y-17257324D01*
X6021057Y-17247800D01*
X6040105Y-17238276D01*
X6230581Y-17238276D02*
X6249628Y-17238276D01*
X6268676Y-17247800D01*
X6278200Y-17257324D01*
X6287724Y-17276371D01*
X6297248Y-17314467D01*
X6297248Y-17362086D01*
X6287724Y-17400181D01*
X6278200Y-17419229D01*
X6268676Y-17428752D01*
X6249628Y-17438276D01*
X6230581Y-17438276D01*
X6211533Y-17428752D01*
X6202009Y-17419229D01*
X6192486Y-17400181D01*
X6182962Y-17362086D01*
X6182962Y-17314467D01*
X6192486Y-17276371D01*
X6202009Y-17257324D01*
X6211533Y-17247800D01*
X6230581Y-17238276D01*
X6382962Y-17438276D02*
X6382962Y-17304943D01*
X6382962Y-17323990D02*
X6392486Y-17314467D01*
X6411533Y-17304943D01*
X6440105Y-17304943D01*
X6459152Y-17314467D01*
X6468676Y-17333514D01*
X6468676Y-17438276D01*
X6468676Y-17333514D02*
X6478200Y-17314467D01*
X6497248Y-17304943D01*
X6525819Y-17304943D01*
X6544867Y-17314467D01*
X6554390Y-17333514D01*
X6554390Y-17438276D01*
X6649628Y-17438276D02*
X6649628Y-17304943D01*
X6649628Y-17323990D02*
X6659152Y-17314467D01*
X6678200Y-17304943D01*
X6706771Y-17304943D01*
X6725819Y-17314467D01*
X6735343Y-17333514D01*
X6735343Y-17438276D01*
X6735343Y-17333514D02*
X6744867Y-17314467D01*
X6763914Y-17304943D01*
X6792486Y-17304943D01*
X6811533Y-17314467D01*
X6821057Y-17333514D01*
X6821057Y-17438276D01*
X7211533Y-17228752D02*
X7040105Y-17485895D01*
X7468676Y-17238276D02*
X7487724Y-17238276D01*
X7506771Y-17247800D01*
X7516295Y-17257324D01*
X7525819Y-17276371D01*
X7535343Y-17314467D01*
X7535343Y-17362086D01*
X7525819Y-17400181D01*
X7516295Y-17419229D01*
X7506771Y-17428752D01*
X7487724Y-17438276D01*
X7468676Y-17438276D01*
X7449628Y-17428752D01*
X7440105Y-17419229D01*
X7430581Y-17400181D01*
X7421057Y-17362086D01*
X7421057Y-17314467D01*
X7430581Y-17276371D01*
X7440105Y-17257324D01*
X7449628Y-17247800D01*
X7468676Y-17238276D01*
X7621057Y-17419229D02*
X7630581Y-17428752D01*
X7621057Y-17438276D01*
X7611533Y-17428752D01*
X7621057Y-17419229D01*
X7621057Y-17438276D01*
X7754390Y-17238276D02*
X7773438Y-17238276D01*
X7792486Y-17247800D01*
X7802009Y-17257324D01*
X7811533Y-17276371D01*
X7821057Y-17314467D01*
X7821057Y-17362086D01*
X7811533Y-17400181D01*
X7802009Y-17419229D01*
X7792486Y-17428752D01*
X7773438Y-17438276D01*
X7754390Y-17438276D01*
X7735343Y-17428752D01*
X7725819Y-17419229D01*
X7716295Y-17400181D01*
X7706771Y-17362086D01*
X7706771Y-17314467D01*
X7716295Y-17276371D01*
X7725819Y-17257324D01*
X7735343Y-17247800D01*
X7754390Y-17238276D01*
X7887724Y-17238276D02*
X8011533Y-17238276D01*
X7944867Y-17314467D01*
X7973438Y-17314467D01*
X7992486Y-17323990D01*
X8002009Y-17333514D01*
X8011533Y-17352562D01*
X8011533Y-17400181D01*
X8002009Y-17419229D01*
X7992486Y-17428752D01*
X7973438Y-17438276D01*
X7916295Y-17438276D01*
X7897248Y-17428752D01*
X7887724Y-17419229D01*
X8106771Y-17438276D02*
X8144867Y-17438276D01*
X8163914Y-17428752D01*
X8173438Y-17419229D01*
X8192486Y-17390657D01*
X8202009Y-17352562D01*
X8202009Y-17276371D01*
X8192486Y-17257324D01*
X8182962Y-17247800D01*
X8163914Y-17238276D01*
X8125819Y-17238276D01*
X8106771Y-17247800D01*
X8097248Y-17257324D01*
X8087724Y-17276371D01*
X8087724Y-17323990D01*
X8097248Y-17343038D01*
X8106771Y-17352562D01*
X8125819Y-17362086D01*
X8163914Y-17362086D01*
X8182962Y-17352562D01*
X8192486Y-17343038D01*
X8202009Y-17323990D01*
X8373438Y-17304943D02*
X8373438Y-17438276D01*
X8325819Y-17228752D02*
X8278200Y-17371610D01*
X8402010Y-17371610D01*
X8468676Y-17238276D02*
X8468676Y-17276371D01*
X8544867Y-17238276D02*
X8544867Y-17276371D01*
X8840105Y-17514467D02*
X8830581Y-17504943D01*
X8811533Y-17476371D01*
X8802010Y-17457324D01*
X8792486Y-17428752D01*
X8782962Y-17381133D01*
X8782962Y-17343038D01*
X8792486Y-17295419D01*
X8802010Y-17266848D01*
X8811533Y-17247800D01*
X8830581Y-17219229D01*
X8840105Y-17209705D01*
X9021057Y-17438276D02*
X8906771Y-17438276D01*
X8963914Y-17438276D02*
X8963914Y-17238276D01*
X8944867Y-17266848D01*
X8925819Y-17285895D01*
X8906771Y-17295419D01*
X9097248Y-17257324D02*
X9106771Y-17247800D01*
X9125819Y-17238276D01*
X9173438Y-17238276D01*
X9192486Y-17247800D01*
X9202010Y-17257324D01*
X9211533Y-17276371D01*
X9211533Y-17295419D01*
X9202010Y-17323990D01*
X9087724Y-17438276D01*
X9211533Y-17438276D01*
X9449629Y-17438276D02*
X9449629Y-17238276D01*
X9535343Y-17438276D02*
X9535343Y-17333514D01*
X9525819Y-17314467D01*
X9506771Y-17304943D01*
X9478200Y-17304943D01*
X9459152Y-17314467D01*
X9449629Y-17323990D01*
X9659152Y-17438276D02*
X9640105Y-17428752D01*
X9630581Y-17419229D01*
X9621057Y-17400181D01*
X9621057Y-17343038D01*
X9630581Y-17323990D01*
X9640105Y-17314467D01*
X9659152Y-17304943D01*
X9687724Y-17304943D01*
X9706771Y-17314467D01*
X9716295Y-17323990D01*
X9725819Y-17343038D01*
X9725819Y-17400181D01*
X9716295Y-17419229D01*
X9706771Y-17428752D01*
X9687724Y-17438276D01*
X9659152Y-17438276D01*
X9840105Y-17438276D02*
X9821057Y-17428752D01*
X9811533Y-17409705D01*
X9811533Y-17238276D01*
X9992486Y-17428752D02*
X9973438Y-17438276D01*
X9935343Y-17438276D01*
X9916295Y-17428752D01*
X9906771Y-17409705D01*
X9906771Y-17333514D01*
X9916295Y-17314467D01*
X9935343Y-17304943D01*
X9973438Y-17304943D01*
X9992486Y-17314467D01*
X10002010Y-17333514D01*
X10002010Y-17352562D01*
X9906771Y-17371610D01*
X10078200Y-17428752D02*
X10097248Y-17438276D01*
X10135343Y-17438276D01*
X10154390Y-17428752D01*
X10163914Y-17409705D01*
X10163914Y-17400181D01*
X10154390Y-17381133D01*
X10135343Y-17371610D01*
X10106771Y-17371610D01*
X10087724Y-17362086D01*
X10078200Y-17343038D01*
X10078200Y-17333514D01*
X10087724Y-17314467D01*
X10106771Y-17304943D01*
X10135343Y-17304943D01*
X10154390Y-17314467D01*
X10230581Y-17514467D02*
X10240105Y-17504943D01*
X10259152Y-17476371D01*
X10268676Y-17457324D01*
X10278200Y-17428752D01*
X10287724Y-17381133D01*
X10287724Y-17343038D01*
X10278200Y-17295419D01*
X10268676Y-17266848D01*
X10259152Y-17247800D01*
X10240105Y-17219229D01*
X10230581Y-17209705D01*
D17*
X5088200Y-17521800D02*
X5268200Y-17701800D01*
X5268200Y-17521800D02*
X5088200Y-17701800D01*
X5268200Y-17611800D02*
G75*
G03*
X5268200Y-17611800I-90000J0D01*
G01*
D11*
X5630581Y-17702276D02*
X5516295Y-17702276D01*
X5573438Y-17702276D02*
X5573438Y-17502276D01*
X5554390Y-17530848D01*
X5535343Y-17549895D01*
X5516295Y-17559419D01*
X5716295Y-17683229D02*
X5725819Y-17692752D01*
X5716295Y-17702276D01*
X5706771Y-17692752D01*
X5716295Y-17683229D01*
X5716295Y-17702276D01*
X5840105Y-17587990D02*
X5821057Y-17578467D01*
X5811533Y-17568943D01*
X5802009Y-17549895D01*
X5802009Y-17540371D01*
X5811533Y-17521324D01*
X5821057Y-17511800D01*
X5840105Y-17502276D01*
X5878200Y-17502276D01*
X5897248Y-17511800D01*
X5906771Y-17521324D01*
X5916295Y-17540371D01*
X5916295Y-17549895D01*
X5906771Y-17568943D01*
X5897248Y-17578467D01*
X5878200Y-17587990D01*
X5840105Y-17587990D01*
X5821057Y-17597514D01*
X5811533Y-17607038D01*
X5802009Y-17626086D01*
X5802009Y-17664181D01*
X5811533Y-17683229D01*
X5821057Y-17692752D01*
X5840105Y-17702276D01*
X5878200Y-17702276D01*
X5897248Y-17692752D01*
X5906771Y-17683229D01*
X5916295Y-17664181D01*
X5916295Y-17626086D01*
X5906771Y-17607038D01*
X5897248Y-17597514D01*
X5878200Y-17587990D01*
X6040105Y-17502276D02*
X6059152Y-17502276D01*
X6078200Y-17511800D01*
X6087724Y-17521324D01*
X6097248Y-17540371D01*
X6106771Y-17578467D01*
X6106771Y-17626086D01*
X6097248Y-17664181D01*
X6087724Y-17683229D01*
X6078200Y-17692752D01*
X6059152Y-17702276D01*
X6040105Y-17702276D01*
X6021057Y-17692752D01*
X6011533Y-17683229D01*
X6002009Y-17664181D01*
X5992486Y-17626086D01*
X5992486Y-17578467D01*
X6002009Y-17540371D01*
X6011533Y-17521324D01*
X6021057Y-17511800D01*
X6040105Y-17502276D01*
X6230581Y-17502276D02*
X6249628Y-17502276D01*
X6268676Y-17511800D01*
X6278200Y-17521324D01*
X6287724Y-17540371D01*
X6297248Y-17578467D01*
X6297248Y-17626086D01*
X6287724Y-17664181D01*
X6278200Y-17683229D01*
X6268676Y-17692752D01*
X6249628Y-17702276D01*
X6230581Y-17702276D01*
X6211533Y-17692752D01*
X6202009Y-17683229D01*
X6192486Y-17664181D01*
X6182962Y-17626086D01*
X6182962Y-17578467D01*
X6192486Y-17540371D01*
X6202009Y-17521324D01*
X6211533Y-17511800D01*
X6230581Y-17502276D01*
X6382962Y-17702276D02*
X6382962Y-17568943D01*
X6382962Y-17587990D02*
X6392486Y-17578467D01*
X6411533Y-17568943D01*
X6440105Y-17568943D01*
X6459152Y-17578467D01*
X6468676Y-17597514D01*
X6468676Y-17702276D01*
X6468676Y-17597514D02*
X6478200Y-17578467D01*
X6497248Y-17568943D01*
X6525819Y-17568943D01*
X6544867Y-17578467D01*
X6554390Y-17597514D01*
X6554390Y-17702276D01*
X6649628Y-17702276D02*
X6649628Y-17568943D01*
X6649628Y-17587990D02*
X6659152Y-17578467D01*
X6678200Y-17568943D01*
X6706771Y-17568943D01*
X6725819Y-17578467D01*
X6735343Y-17597514D01*
X6735343Y-17702276D01*
X6735343Y-17597514D02*
X6744867Y-17578467D01*
X6763914Y-17568943D01*
X6792486Y-17568943D01*
X6811533Y-17578467D01*
X6821057Y-17597514D01*
X6821057Y-17702276D01*
X7211533Y-17492752D02*
X7040105Y-17749895D01*
X7468676Y-17502276D02*
X7487724Y-17502276D01*
X7506771Y-17511800D01*
X7516295Y-17521324D01*
X7525819Y-17540371D01*
X7535343Y-17578467D01*
X7535343Y-17626086D01*
X7525819Y-17664181D01*
X7516295Y-17683229D01*
X7506771Y-17692752D01*
X7487724Y-17702276D01*
X7468676Y-17702276D01*
X7449628Y-17692752D01*
X7440105Y-17683229D01*
X7430581Y-17664181D01*
X7421057Y-17626086D01*
X7421057Y-17578467D01*
X7430581Y-17540371D01*
X7440105Y-17521324D01*
X7449628Y-17511800D01*
X7468676Y-17502276D01*
X7621057Y-17683229D02*
X7630581Y-17692752D01*
X7621057Y-17702276D01*
X7611533Y-17692752D01*
X7621057Y-17683229D01*
X7621057Y-17702276D01*
X7754390Y-17502276D02*
X7773438Y-17502276D01*
X7792486Y-17511800D01*
X7802009Y-17521324D01*
X7811533Y-17540371D01*
X7821057Y-17578467D01*
X7821057Y-17626086D01*
X7811533Y-17664181D01*
X7802009Y-17683229D01*
X7792486Y-17692752D01*
X7773438Y-17702276D01*
X7754390Y-17702276D01*
X7735343Y-17692752D01*
X7725819Y-17683229D01*
X7716295Y-17664181D01*
X7706771Y-17626086D01*
X7706771Y-17578467D01*
X7716295Y-17540371D01*
X7725819Y-17521324D01*
X7735343Y-17511800D01*
X7754390Y-17502276D01*
X7887724Y-17502276D02*
X8021057Y-17502276D01*
X7935343Y-17702276D01*
X8135343Y-17502276D02*
X8154390Y-17502276D01*
X8173438Y-17511800D01*
X8182962Y-17521324D01*
X8192486Y-17540371D01*
X8202009Y-17578467D01*
X8202009Y-17626086D01*
X8192486Y-17664181D01*
X8182962Y-17683229D01*
X8173438Y-17692752D01*
X8154390Y-17702276D01*
X8135343Y-17702276D01*
X8116295Y-17692752D01*
X8106771Y-17683229D01*
X8097248Y-17664181D01*
X8087724Y-17626086D01*
X8087724Y-17578467D01*
X8097248Y-17540371D01*
X8106771Y-17521324D01*
X8116295Y-17511800D01*
X8135343Y-17502276D01*
X8297248Y-17702276D02*
X8335343Y-17702276D01*
X8354390Y-17692752D01*
X8363914Y-17683229D01*
X8382962Y-17654657D01*
X8392486Y-17616562D01*
X8392486Y-17540371D01*
X8382962Y-17521324D01*
X8373438Y-17511800D01*
X8354390Y-17502276D01*
X8316295Y-17502276D01*
X8297248Y-17511800D01*
X8287724Y-17521324D01*
X8278200Y-17540371D01*
X8278200Y-17587990D01*
X8287724Y-17607038D01*
X8297248Y-17616562D01*
X8316295Y-17626086D01*
X8354390Y-17626086D01*
X8373438Y-17616562D01*
X8382962Y-17607038D01*
X8392486Y-17587990D01*
X8468676Y-17502276D02*
X8468676Y-17540371D01*
X8544867Y-17502276D02*
X8544867Y-17540371D01*
X8840105Y-17778467D02*
X8830581Y-17768943D01*
X8811533Y-17740371D01*
X8802010Y-17721324D01*
X8792486Y-17692752D01*
X8782962Y-17645133D01*
X8782962Y-17607038D01*
X8792486Y-17559419D01*
X8802010Y-17530848D01*
X8811533Y-17511800D01*
X8830581Y-17483229D01*
X8840105Y-17473705D01*
X8906771Y-17521324D02*
X8916295Y-17511800D01*
X8935343Y-17502276D01*
X8982962Y-17502276D01*
X9002010Y-17511800D01*
X9011533Y-17521324D01*
X9021057Y-17540371D01*
X9021057Y-17559419D01*
X9011533Y-17587990D01*
X8897248Y-17702276D01*
X9021057Y-17702276D01*
X9259152Y-17702276D02*
X9259152Y-17502276D01*
X9344867Y-17702276D02*
X9344867Y-17597514D01*
X9335343Y-17578467D01*
X9316295Y-17568943D01*
X9287724Y-17568943D01*
X9268676Y-17578467D01*
X9259152Y-17587990D01*
X9468676Y-17702276D02*
X9449629Y-17692752D01*
X9440105Y-17683229D01*
X9430581Y-17664181D01*
X9430581Y-17607038D01*
X9440105Y-17587990D01*
X9449629Y-17578467D01*
X9468676Y-17568943D01*
X9497248Y-17568943D01*
X9516295Y-17578467D01*
X9525819Y-17587990D01*
X9535343Y-17607038D01*
X9535343Y-17664181D01*
X9525819Y-17683229D01*
X9516295Y-17692752D01*
X9497248Y-17702276D01*
X9468676Y-17702276D01*
X9649629Y-17702276D02*
X9630581Y-17692752D01*
X9621057Y-17673705D01*
X9621057Y-17502276D01*
X9802010Y-17692752D02*
X9782962Y-17702276D01*
X9744867Y-17702276D01*
X9725819Y-17692752D01*
X9716295Y-17673705D01*
X9716295Y-17597514D01*
X9725819Y-17578467D01*
X9744867Y-17568943D01*
X9782962Y-17568943D01*
X9802010Y-17578467D01*
X9811533Y-17597514D01*
X9811533Y-17616562D01*
X9716295Y-17635610D01*
X9887724Y-17692752D02*
X9906771Y-17702276D01*
X9944867Y-17702276D01*
X9963914Y-17692752D01*
X9973438Y-17673705D01*
X9973438Y-17664181D01*
X9963914Y-17645133D01*
X9944867Y-17635610D01*
X9916295Y-17635610D01*
X9897248Y-17626086D01*
X9887724Y-17607038D01*
X9887724Y-17597514D01*
X9897248Y-17578467D01*
X9916295Y-17568943D01*
X9944867Y-17568943D01*
X9963914Y-17578467D01*
X10040105Y-17778467D02*
X10049629Y-17768943D01*
X10068676Y-17740371D01*
X10078200Y-17721324D01*
X10087724Y-17692752D01*
X10097248Y-17645133D01*
X10097248Y-17607038D01*
X10087724Y-17559419D01*
X10078200Y-17530848D01*
X10068676Y-17511800D01*
X10049629Y-17483229D01*
X10040105Y-17473705D01*
M02*
