M48
; DRILL file {KiCad (5.1.9-0-10_14)} date Monday, June 21, 2021 at 08:57:12 AM
; FORMAT={-:-/ absolute / metric / decimal}
; #@! TF.CreationDate,2021-06-21T08:57:12+02:00
; #@! TF.GenerationSoftware,Kicad,Pcbnew,(5.1.9-0-10_14)
FMAT,2
METRIC
T1C0.400
T2C1.000
T3C0.991
T4C3.200
%
G90
G05
T1
X84.531Y-144.805
X85.039Y-143.561
X88.265Y-124.587
X89.027Y-137.16
X89.154Y-133.35
X89.154Y-138.43
X89.154Y-148.59
X89.309Y-147.345
X89.432Y-117.668
X90.132Y-116.068
X91.832Y-128.168
X91.932Y-111.068
X92.632Y-123.568
X92.932Y-120.568
X93.332Y-106.168
X94.234Y-123.571
X95.032Y-133.668
X95.25Y-139.7
X95.25Y-141.224
X95.25Y-142.748
X95.932Y-128.168
X97.028Y-139.7
X97.028Y-141.224
X97.028Y-142.748
X98.806Y-139.7
X98.806Y-141.224
X98.806Y-142.748
X99.187Y-105.918
X99.187Y-107.442
X99.187Y-109.093
X99.187Y-110.871
X99.187Y-112.522
X99.187Y-114.173
X99.248Y-120.142
X99.248Y-121.793
X100.965Y-114.173
X101.092Y-112.014
X101.727Y-132.715
X102.432Y-138.568
X102.489Y-114.173
X104.14Y-114.173
X105.918Y-114.173
X106.172Y-147.32
X106.172Y-148.59
X106.849Y-137.185
X107.569Y-114.173
X108.175Y-139.725
X108.632Y-122.668
X108.632Y-147.368
X109.132Y-127.668
X109.22Y-112.014
X109.22Y-114.173
X110.532Y-124.168
X110.532Y-134.268
X111.125Y-105.918
X111.125Y-107.442
X111.125Y-109.093
X111.125Y-110.871
X111.125Y-112.522
X111.125Y-114.173
X111.632Y-124.168
X111.632Y-134.268
X112.032Y-139.368
X112.732Y-124.168
X112.732Y-134.268
X113.132Y-132.568
X115.132Y-116.668
X115.232Y-121.368
X116.697Y-120.539
X118.618Y-127.698
X118.682Y-114.018
X120.532Y-120.468
X120.813Y-116.687
X122.682Y-119.761
X122.682Y-127.698
T2
X85.725Y-107.798
X85.725Y-110.338
X85.725Y-112.878
X85.725Y-115.418
X85.725Y-117.958
X85.725Y-120.498
X85.725Y-123.038
X105.181Y-109.474
X111.292Y-151.928
X111.292Y-154.468
X113.832Y-151.928
X113.832Y-154.468
X116.18Y-142.951
X118.72Y-142.951
X119.507Y-130.175
X119.507Y-132.715
X119.507Y-135.255
X119.507Y-137.795
X121.26Y-142.951
X122.047Y-130.175
X122.047Y-132.715
X122.047Y-135.255
X122.047Y-137.795
T3
X89.496Y-107.901
X94.576Y-106.885
X94.576Y-108.917
T4
X94.488Y-113.538
T0
M30
