M48
; DRILL file {KiCad (5.1.9-0-10_14)} date Thursday, November 18, 2021 at 03:02:36 PM
; FORMAT={-:-/ absolute / metric / decimal}
; #@! TF.CreationDate,2021-11-18T15:02:36+01:00
; #@! TF.GenerationSoftware,Kicad,Pcbnew,(5.1.9-0-10_14)
FMAT,2
METRIC
T1C0.400
T2C0.650
T3C0.830
T4C0.890
T5C1.000
T6C1.800
T7C2.500
T8C3.250
%
G90
G05
T1
X58.511Y-119.791
X58.511Y-126.884
X60.071Y-119.761
X63.119Y-119.761
X64.77Y-117.221
X68.072Y-151.892
X68.707Y-137.16
X69.964Y-125.362
X71.501Y-112.446
X71.691Y-147.383
X71.692Y-140.081
X77.11Y-110.126
X77.11Y-111.968
X77.491Y-120.159
X78.761Y-110.126
X78.85Y-143.481
X78.85Y-147.481
X80.391Y-140.144
X80.391Y-144.082
X80.603Y-110.126
X82.077Y-120.462
X82.233Y-140.335
X82.279Y-147.29
X82.508Y-110.126
X82.508Y-111.904
X87.613Y-125.7
X88.925Y-109.168
X88.925Y-112.368
X88.925Y-115.773
X88.932Y-107.468
X88.932Y-110.768
X88.932Y-114.068
X89.154Y-134.62
X89.154Y-148.59
X89.218Y-135.89
X90.424Y-134.429
X90.632Y-115.768
X91.296Y-135.907
X92.332Y-115.768
X92.883Y-134.654
X94.032Y-115.768
X94.852Y-134.654
X95.25Y-139.7
X95.25Y-141.224
X95.25Y-142.748
X95.732Y-115.768
X97.028Y-139.7
X97.028Y-141.224
X97.028Y-142.748
X97.432Y-115.768
X98.806Y-139.7
X98.806Y-141.224
X98.806Y-142.748
X98.852Y-134.654
X99.132Y-115.768
X100.457Y-134.683
X100.825Y-109.168
X100.825Y-112.368
X100.832Y-107.468
X100.832Y-110.768
X100.832Y-114.068
X100.832Y-115.768
X101.917Y-137.986
X102.281Y-134.654
X106.172Y-147.32
X106.172Y-148.59
X108.102Y-147.396
X108.707Y-115.926
X108.707Y-126.026
X109.807Y-115.926
X109.807Y-126.026
X110.907Y-115.926
X110.907Y-126.026
X111.171Y-146.075
X112.192Y-133.579
T4
X59.372Y-136.056
X59.372Y-138.096
X59.372Y-140.136
X59.372Y-142.177
X61.152Y-135.036
X61.152Y-137.076
X61.152Y-139.117
X61.152Y-141.156
X65.962Y-131.746
X65.962Y-134.036
X65.962Y-143.177
X65.962Y-145.466
T5
X60.706Y-111.76
X60.706Y-114.3
X63.246Y-111.76
X63.246Y-114.3
X74.532Y-150.91
X74.532Y-153.45
X76.073Y-121.793
X76.073Y-124.333
X77.072Y-150.91
X77.072Y-153.45
X77.58Y-129.828
X77.58Y-132.368
X77.58Y-134.908
X94.882Y-110.909
T6
X60.392Y-130.476
X60.392Y-146.737
T7
X55.482Y-109.381
X55.482Y-153.704
X113.013Y-109.508
X113.013Y-153.704
T8
X56.832Y-132.256
X56.832Y-144.957
T2
G00X57.178Y-118.743
M15
G01X56.978Y-118.743
M16
G05
G00X57.178Y-123.593
M15
G01X56.978Y-123.593
M16
G05
T3
G00X54.513Y-117.568
M15
G01X53.843Y-117.568
M16
G05
G00X54.513Y-124.768
M15
G01X53.843Y-124.768
M16
G05
T0
M30
