G04 #@! TF.GenerationSoftware,KiCad,Pcbnew,(5.1.9-0-10_14)*
G04 #@! TF.CreationDate,2021-11-18T15:02:34+01:00*
G04 #@! TF.ProjectId,ithowifi_4l,6974686f-7769-4666-995f-346c2e6b6963,rev?*
G04 #@! TF.SameCoordinates,Original*
G04 #@! TF.FileFunction,Copper,L4,Bot*
G04 #@! TF.FilePolarity,Positive*
%FSLAX46Y46*%
G04 Gerber Fmt 4.6, Leading zero omitted, Abs format (unit mm)*
G04 Created by KiCad (PCBNEW (5.1.9-0-10_14)) date 2021-11-18 15:02:34*
%MOMM*%
%LPD*%
G01*
G04 APERTURE LIST*
G04 #@! TA.AperFunction,ComponentPad*
%ADD10O,1.700000X1.700000*%
G04 #@! TD*
G04 #@! TA.AperFunction,ComponentPad*
%ADD11R,1.700000X1.700000*%
G04 #@! TD*
G04 #@! TA.AperFunction,ComponentPad*
%ADD12C,1.500000*%
G04 #@! TD*
G04 #@! TA.AperFunction,ComponentPad*
%ADD13O,1.250000X1.050000*%
G04 #@! TD*
G04 #@! TA.AperFunction,ComponentPad*
%ADD14O,2.300000X1.500000*%
G04 #@! TD*
G04 #@! TA.AperFunction,ComponentPad*
%ADD15R,2.300000X1.500000*%
G04 #@! TD*
G04 #@! TA.AperFunction,ComponentPad*
%ADD16C,1.446000*%
G04 #@! TD*
G04 #@! TA.AperFunction,ComponentPad*
%ADD17C,2.700000*%
G04 #@! TD*
G04 #@! TA.AperFunction,SMDPad,CuDef*
%ADD18O,1.300000X1.750000*%
G04 #@! TD*
G04 #@! TA.AperFunction,SMDPad,CuDef*
%ADD19R,1.500000X5.080000*%
G04 #@! TD*
G04 #@! TA.AperFunction,ViaPad*
%ADD20C,0.800000*%
G04 #@! TD*
G04 #@! TA.AperFunction,Conductor*
%ADD21C,0.406400*%
G04 #@! TD*
G04 #@! TA.AperFunction,Conductor*
%ADD22C,0.254000*%
G04 #@! TD*
G04 #@! TA.AperFunction,Conductor*
%ADD23C,0.250000*%
G04 #@! TD*
G04 #@! TA.AperFunction,Conductor*
%ADD24C,0.203200*%
G04 #@! TD*
G04 #@! TA.AperFunction,Conductor*
%ADD25C,0.100000*%
G04 #@! TD*
G04 APERTURE END LIST*
D10*
X76073000Y-121793000D03*
D11*
X76073000Y-124333000D03*
D12*
X94881700Y-110909100D03*
G04 #@! TA.AperFunction,ComponentPad*
G36*
G01*
X53501200Y-123858000D02*
X54855200Y-123858000D01*
G75*
G02*
X55128200Y-124131000I0J-273000D01*
G01*
X55128200Y-125405000D01*
G75*
G02*
X54855200Y-125678000I-273000J0D01*
G01*
X53501200Y-125678000D01*
G75*
G02*
X53228200Y-125405000I0J273000D01*
G01*
X53228200Y-124131000D01*
G75*
G02*
X53501200Y-123858000I273000J0D01*
G01*
G37*
G04 #@! TD.AperFunction*
D13*
X57078200Y-123593000D03*
X57078200Y-118743000D03*
G04 #@! TA.AperFunction,ComponentPad*
G36*
G01*
X53501200Y-116658000D02*
X54855200Y-116658000D01*
G75*
G02*
X55128200Y-116931000I0J-273000D01*
G01*
X55128200Y-118205000D01*
G75*
G02*
X54855200Y-118478000I-273000J0D01*
G01*
X53501200Y-118478000D01*
G75*
G02*
X53228200Y-118205000I0J273000D01*
G01*
X53228200Y-116931000D01*
G75*
G02*
X53501200Y-116658000I273000J0D01*
G01*
G37*
G04 #@! TD.AperFunction*
D10*
X60706000Y-111760000D03*
X63246000Y-111760000D03*
X60706000Y-114300000D03*
D11*
X63246000Y-114300000D03*
D14*
X77580000Y-129828000D03*
X77580000Y-132368000D03*
D15*
X77580000Y-134908000D03*
D16*
X59372500Y-142176500D03*
X61152500Y-141156500D03*
X59372500Y-140136500D03*
X61152500Y-139116500D03*
X59372500Y-138096500D03*
X61152500Y-137076500D03*
X59372500Y-136056500D03*
X61152500Y-135036500D03*
X65962500Y-145466500D03*
X65962500Y-143176500D03*
X65962500Y-134036500D03*
X65962500Y-131746500D03*
D17*
X60392500Y-130476500D03*
X60392500Y-146736500D03*
D18*
X96872000Y-113739000D03*
X94872000Y-113739000D03*
X92872000Y-113739000D03*
X88872000Y-132739000D03*
X90872000Y-132739000D03*
X92872000Y-132739000D03*
X94872000Y-132739000D03*
X96872000Y-132739000D03*
X98872000Y-132739000D03*
X100872000Y-132739000D03*
X102872000Y-132739000D03*
D10*
X74532000Y-150910000D03*
X77072000Y-150910000D03*
X74532000Y-153450000D03*
D11*
X77072000Y-153450000D03*
D19*
X90631400Y-109548400D03*
X99131400Y-109548400D03*
X94881400Y-109548400D03*
D20*
X95250000Y-139700000D03*
X98806000Y-139700000D03*
X97028000Y-139700000D03*
X98806000Y-142748000D03*
X97028000Y-142748000D03*
X95250000Y-142748000D03*
X95250000Y-141224000D03*
X98806000Y-141224000D03*
X97028000Y-141224000D03*
X89154000Y-148590000D03*
X106172000Y-148590000D03*
X109807000Y-115926500D03*
X110907000Y-115926500D03*
X108707000Y-115926500D03*
X88925000Y-115773000D03*
X90632000Y-115768000D03*
X92332000Y-115768000D03*
X94032000Y-115768000D03*
X95732000Y-115768000D03*
X97432000Y-115768000D03*
X100832000Y-115768000D03*
X99132000Y-115768000D03*
X88932000Y-114068000D03*
X88932000Y-110768000D03*
X88925000Y-112368000D03*
X88925000Y-109168000D03*
X88932000Y-107468000D03*
X100825000Y-112368000D03*
X100832000Y-110768000D03*
X100832000Y-114068000D03*
X100832000Y-107468000D03*
X100825000Y-109168000D03*
X108102400Y-147396200D03*
X77491300Y-120159000D03*
X82077300Y-120462500D03*
X71691500Y-147383500D03*
X71691504Y-140081000D03*
X58510873Y-119790990D03*
X58510873Y-126883727D03*
X106172000Y-147320000D03*
X109807000Y-126026500D03*
X110907000Y-126026500D03*
X108707000Y-126026500D03*
X78850000Y-147481000D03*
X78850000Y-143480506D03*
X77110300Y-111967500D03*
X77110300Y-110126000D03*
X78761300Y-110126000D03*
X80602800Y-110126000D03*
X82507800Y-110126000D03*
X82507800Y-111904000D03*
X112191800Y-133578600D03*
X102281500Y-134654000D03*
X87613000Y-125700498D03*
X82279000Y-147290500D03*
X68072000Y-151892000D03*
X82232500Y-140335000D03*
X111171500Y-146075400D03*
X64770000Y-117221000D03*
X71501000Y-112445800D03*
X69964300Y-125361700D03*
X98852500Y-134654000D03*
X94852000Y-134654000D03*
X91295998Y-135907002D03*
X90424000Y-134429500D03*
X92883500Y-134654000D03*
X100457000Y-134683500D03*
X80391000Y-140144500D03*
X80391000Y-144081500D03*
X101917500Y-137985500D03*
X89217502Y-135890000D03*
X63119000Y-119761000D03*
X60071000Y-119761000D03*
X68707000Y-137160000D03*
X89154000Y-134620000D03*
D21*
X92872000Y-115228000D02*
X92332000Y-115768000D01*
X92872000Y-113739000D02*
X92872000Y-115228000D01*
X96872000Y-115208000D02*
X97432000Y-115768000D01*
X96872000Y-113739000D02*
X96872000Y-115208000D01*
D22*
X90251000Y-109168000D02*
X90631400Y-109548400D01*
X88925000Y-109168000D02*
X90251000Y-109168000D01*
X99511800Y-109168000D02*
X99131400Y-109548400D01*
X100825000Y-109168000D02*
X99511800Y-109168000D01*
D21*
X71691500Y-147383500D02*
X71691500Y-140081004D01*
X71691500Y-140081004D02*
X71691504Y-140081000D01*
X58510873Y-126883727D02*
X58510873Y-119790990D01*
X58510873Y-127395673D02*
X58510873Y-126883727D01*
X64223900Y-128104900D02*
X59220100Y-128104900D01*
X59220100Y-128104900D02*
X58510873Y-127395673D01*
X65947000Y-129828000D02*
X64223900Y-128104900D01*
X77580000Y-129828000D02*
X65947000Y-129828000D01*
X77580000Y-129828000D02*
X77580000Y-127144000D01*
X82077300Y-122646700D02*
X82077300Y-120462500D01*
X77580000Y-127144000D02*
X82077300Y-122646700D01*
D22*
X102872000Y-132739000D02*
X102872000Y-134063500D01*
X102872000Y-134063500D02*
X102281500Y-134654000D01*
X98872000Y-134634500D02*
X98852500Y-134654000D01*
X98872000Y-132739000D02*
X98872000Y-134634500D01*
X94852000Y-132759000D02*
X94872000Y-132739000D01*
X94852000Y-134654000D02*
X94852000Y-132759000D01*
X96872000Y-132739000D02*
X96872000Y-135364500D01*
X96872000Y-135364500D02*
X96329498Y-135907002D01*
X96329498Y-135907002D02*
X91295998Y-135907002D01*
X88862000Y-132749000D02*
X88872000Y-132739000D01*
X90424000Y-134291000D02*
X90424000Y-134429500D01*
X88872000Y-132739000D02*
X90424000Y-134291000D01*
X92883500Y-132750500D02*
X92872000Y-132739000D01*
X92883500Y-134654000D02*
X92883500Y-132750500D01*
X81597500Y-138938000D02*
X80391000Y-140144500D01*
X91122500Y-138938000D02*
X81597500Y-138938000D01*
X93154500Y-136906000D02*
X91122500Y-138938000D01*
X98234500Y-136906000D02*
X93154500Y-136906000D01*
X100457000Y-134683500D02*
X98234500Y-136906000D01*
X93535500Y-137985500D02*
X101917500Y-137985500D01*
X87439500Y-144081500D02*
X93535500Y-137985500D01*
X80391000Y-144081500D02*
X87439500Y-144081500D01*
D21*
X57721500Y-137604500D02*
X58184000Y-138067000D01*
X57721500Y-135318500D02*
X57721500Y-137604500D01*
X65024000Y-135763000D02*
X62611000Y-133350000D01*
X59690000Y-133350000D02*
X57721500Y-135318500D01*
X62611000Y-133350000D02*
X59690000Y-133350000D01*
X73660000Y-135763000D02*
X65024000Y-135763000D01*
X58184000Y-138067000D02*
X59355500Y-138067000D01*
X74515000Y-134908000D02*
X73660000Y-135763000D01*
X77580000Y-134908000D02*
X74515000Y-134908000D01*
D22*
X80454500Y-138303000D02*
X82867500Y-135890000D01*
X65962500Y-145466500D02*
X67004500Y-145466500D01*
X70485000Y-138303000D02*
X80454500Y-138303000D01*
X69723000Y-139065000D02*
X70485000Y-138303000D01*
X69723000Y-142748000D02*
X69723000Y-139065000D01*
X82867500Y-135890000D02*
X89217502Y-135890000D01*
X67004500Y-145466500D02*
X69723000Y-142748000D01*
X63119000Y-119761000D02*
X60071000Y-119761000D01*
D23*
X94872000Y-109557800D02*
X94881400Y-109548400D01*
X94872000Y-113739000D02*
X94872000Y-109557800D01*
D22*
X85598000Y-134620000D02*
X81788000Y-134620000D01*
X81788000Y-134620000D02*
X79248000Y-137160000D01*
X79248000Y-137160000D02*
X68707000Y-137160000D01*
X89154000Y-134620000D02*
X81788000Y-134620000D01*
D24*
X89330400Y-115168000D02*
X89332352Y-115187821D01*
X89338134Y-115206881D01*
X89347523Y-115224446D01*
X89360158Y-115239842D01*
X89375554Y-115252477D01*
X89393119Y-115261866D01*
X89412179Y-115267648D01*
X89432000Y-115269600D01*
X100332000Y-115269600D01*
X100351821Y-115267648D01*
X100370881Y-115261866D01*
X100388446Y-115252477D01*
X100403842Y-115239842D01*
X100416477Y-115224446D01*
X100425866Y-115206881D01*
X100431648Y-115187821D01*
X100433600Y-115168000D01*
X100433600Y-109349862D01*
X111407400Y-109349862D01*
X111407400Y-109666138D01*
X111469102Y-109976336D01*
X111590136Y-110268537D01*
X111765849Y-110531510D01*
X111989490Y-110755151D01*
X112252463Y-110930864D01*
X112544664Y-111051898D01*
X112854862Y-111113600D01*
X113171138Y-111113600D01*
X113481336Y-111051898D01*
X113773537Y-110930864D01*
X114036510Y-110755151D01*
X114260151Y-110531510D01*
X114435864Y-110268537D01*
X114556898Y-109976336D01*
X114618600Y-109666138D01*
X114618600Y-109349862D01*
X114556898Y-109039664D01*
X114435864Y-108747463D01*
X114260151Y-108484490D01*
X114036510Y-108260849D01*
X113773537Y-108085136D01*
X113481336Y-107964102D01*
X113171138Y-107902400D01*
X112854862Y-107902400D01*
X112544664Y-107964102D01*
X112252463Y-108085136D01*
X111989490Y-108260849D01*
X111765849Y-108484490D01*
X111590136Y-108747463D01*
X111469102Y-109039664D01*
X111407400Y-109349862D01*
X100433600Y-109349862D01*
X100433600Y-107073600D01*
X115312168Y-107073600D01*
X115349957Y-107077305D01*
X115367228Y-107082520D01*
X115383166Y-107090994D01*
X115397144Y-107102394D01*
X115408651Y-107116303D01*
X115417232Y-107132173D01*
X115422567Y-107149410D01*
X115426401Y-107185888D01*
X115426400Y-149666400D01*
X104903850Y-149666400D01*
X104858429Y-149629125D01*
X104787967Y-149591462D01*
X104711511Y-149568269D01*
X104651921Y-149562400D01*
X104632000Y-149560438D01*
X104612079Y-149562400D01*
X87351921Y-149562400D01*
X87332000Y-149560438D01*
X87312079Y-149562400D01*
X87252489Y-149568269D01*
X87176033Y-149591462D01*
X87105571Y-149629125D01*
X87060150Y-149666400D01*
X81532000Y-149666400D01*
X81512179Y-149668352D01*
X81493119Y-149674134D01*
X81475554Y-149683523D01*
X81460158Y-149696158D01*
X81447523Y-149711554D01*
X81438134Y-149729119D01*
X81432352Y-149748179D01*
X81430400Y-149768000D01*
X81430400Y-156062400D01*
X53251832Y-156062400D01*
X53214043Y-156058695D01*
X53196772Y-156053480D01*
X53180834Y-156045006D01*
X53166856Y-156033606D01*
X53155348Y-156019695D01*
X53146769Y-156003829D01*
X53141433Y-155986590D01*
X53137600Y-155950122D01*
X53137600Y-153545862D01*
X53876400Y-153545862D01*
X53876400Y-153862138D01*
X53938102Y-154172336D01*
X54059136Y-154464537D01*
X54234849Y-154727510D01*
X54458490Y-154951151D01*
X54721463Y-155126864D01*
X55013664Y-155247898D01*
X55323862Y-155309600D01*
X55640138Y-155309600D01*
X55950336Y-155247898D01*
X56242537Y-155126864D01*
X56505510Y-154951151D01*
X56729151Y-154727510D01*
X56904864Y-154464537D01*
X57025898Y-154172336D01*
X57087600Y-153862138D01*
X57087600Y-153545862D01*
X57044913Y-153331259D01*
X73326400Y-153331259D01*
X73326400Y-153568741D01*
X73372731Y-153801660D01*
X73463611Y-154021066D01*
X73595550Y-154218525D01*
X73763475Y-154386450D01*
X73960934Y-154518389D01*
X74180340Y-154609269D01*
X74413259Y-154655600D01*
X74650741Y-154655600D01*
X74883660Y-154609269D01*
X75103066Y-154518389D01*
X75300525Y-154386450D01*
X75468450Y-154218525D01*
X75600389Y-154021066D01*
X75691269Y-153801660D01*
X75737600Y-153568741D01*
X75737600Y-153331259D01*
X75691269Y-153098340D01*
X75600389Y-152878934D01*
X75468450Y-152681475D01*
X75386975Y-152600000D01*
X75864680Y-152600000D01*
X75864680Y-154300000D01*
X75871546Y-154369710D01*
X75891879Y-154436740D01*
X75924899Y-154498516D01*
X75969337Y-154552663D01*
X76023484Y-154597101D01*
X76085260Y-154630121D01*
X76152290Y-154650454D01*
X76222000Y-154657320D01*
X77922000Y-154657320D01*
X77991710Y-154650454D01*
X78058740Y-154630121D01*
X78120516Y-154597101D01*
X78174663Y-154552663D01*
X78219101Y-154498516D01*
X78252121Y-154436740D01*
X78272454Y-154369710D01*
X78279320Y-154300000D01*
X78279320Y-152600000D01*
X78272454Y-152530290D01*
X78252121Y-152463260D01*
X78219101Y-152401484D01*
X78174663Y-152347337D01*
X78120516Y-152302899D01*
X78058740Y-152269879D01*
X77991710Y-152249546D01*
X77922000Y-152242680D01*
X76222000Y-152242680D01*
X76152290Y-152249546D01*
X76085260Y-152269879D01*
X76023484Y-152302899D01*
X75969337Y-152347337D01*
X75924899Y-152401484D01*
X75891879Y-152463260D01*
X75871546Y-152530290D01*
X75864680Y-152600000D01*
X75386975Y-152600000D01*
X75300525Y-152513550D01*
X75103066Y-152381611D01*
X74883660Y-152290731D01*
X74650741Y-152244400D01*
X74413259Y-152244400D01*
X74180340Y-152290731D01*
X73960934Y-152381611D01*
X73763475Y-152513550D01*
X73595550Y-152681475D01*
X73463611Y-152878934D01*
X73372731Y-153098340D01*
X73326400Y-153331259D01*
X57044913Y-153331259D01*
X57025898Y-153235664D01*
X56904864Y-152943463D01*
X56729151Y-152680490D01*
X56505510Y-152456849D01*
X56242537Y-152281136D01*
X55950336Y-152160102D01*
X55640138Y-152098400D01*
X55323862Y-152098400D01*
X55013664Y-152160102D01*
X54721463Y-152281136D01*
X54458490Y-152456849D01*
X54234849Y-152680490D01*
X54059136Y-152943463D01*
X53938102Y-153235664D01*
X53876400Y-153545862D01*
X53137600Y-153545862D01*
X53137600Y-151817580D01*
X67316400Y-151817580D01*
X67316400Y-151966420D01*
X67345437Y-152112400D01*
X67402396Y-152249911D01*
X67485087Y-152373667D01*
X67590333Y-152478913D01*
X67714089Y-152561604D01*
X67851600Y-152618563D01*
X67997580Y-152647600D01*
X68146420Y-152647600D01*
X68292400Y-152618563D01*
X68429911Y-152561604D01*
X68553667Y-152478913D01*
X68658913Y-152373667D01*
X68741604Y-152249911D01*
X68798563Y-152112400D01*
X68827600Y-151966420D01*
X68827600Y-151817580D01*
X68798563Y-151671600D01*
X68741604Y-151534089D01*
X68658913Y-151410333D01*
X68553667Y-151305087D01*
X68429911Y-151222396D01*
X68292400Y-151165437D01*
X68146420Y-151136400D01*
X67997580Y-151136400D01*
X67851600Y-151165437D01*
X67714089Y-151222396D01*
X67590333Y-151305087D01*
X67485087Y-151410333D01*
X67402396Y-151534089D01*
X67345437Y-151671600D01*
X67316400Y-151817580D01*
X53137600Y-151817580D01*
X53137600Y-151131591D01*
X73295296Y-151131591D01*
X73304634Y-151178544D01*
X73380608Y-151412831D01*
X73500829Y-151627795D01*
X73660677Y-151815174D01*
X73854010Y-151967768D01*
X74073398Y-152079712D01*
X74310409Y-152146705D01*
X74506600Y-152064544D01*
X74506600Y-150935400D01*
X74557400Y-150935400D01*
X74557400Y-152064544D01*
X74753591Y-152146705D01*
X74990602Y-152079712D01*
X75209990Y-151967768D01*
X75403323Y-151815174D01*
X75563171Y-151627795D01*
X75683392Y-151412831D01*
X75759366Y-151178544D01*
X75768704Y-151131591D01*
X75686521Y-150935400D01*
X74557400Y-150935400D01*
X74506600Y-150935400D01*
X73377479Y-150935400D01*
X73295296Y-151131591D01*
X53137600Y-151131591D01*
X53137600Y-150688409D01*
X73295296Y-150688409D01*
X73377479Y-150884600D01*
X74506600Y-150884600D01*
X74506600Y-149755456D01*
X74557400Y-149755456D01*
X74557400Y-150884600D01*
X75686521Y-150884600D01*
X75725620Y-150791259D01*
X75866400Y-150791259D01*
X75866400Y-151028741D01*
X75912731Y-151261660D01*
X76003611Y-151481066D01*
X76135550Y-151678525D01*
X76303475Y-151846450D01*
X76500934Y-151978389D01*
X76720340Y-152069269D01*
X76953259Y-152115600D01*
X77190741Y-152115600D01*
X77423660Y-152069269D01*
X77643066Y-151978389D01*
X77840525Y-151846450D01*
X78008450Y-151678525D01*
X78140389Y-151481066D01*
X78231269Y-151261660D01*
X78277600Y-151028741D01*
X78277600Y-150791259D01*
X78231269Y-150558340D01*
X78140389Y-150338934D01*
X78008450Y-150141475D01*
X77840525Y-149973550D01*
X77643066Y-149841611D01*
X77423660Y-149750731D01*
X77190741Y-149704400D01*
X76953259Y-149704400D01*
X76720340Y-149750731D01*
X76500934Y-149841611D01*
X76303475Y-149973550D01*
X76135550Y-150141475D01*
X76003611Y-150338934D01*
X75912731Y-150558340D01*
X75866400Y-150791259D01*
X75725620Y-150791259D01*
X75768704Y-150688409D01*
X75759366Y-150641456D01*
X75683392Y-150407169D01*
X75563171Y-150192205D01*
X75403323Y-150004826D01*
X75209990Y-149852232D01*
X74990602Y-149740288D01*
X74753591Y-149673295D01*
X74557400Y-149755456D01*
X74506600Y-149755456D01*
X74310409Y-149673295D01*
X74073398Y-149740288D01*
X73854010Y-149852232D01*
X73660677Y-150004826D01*
X73500829Y-150192205D01*
X73380608Y-150407169D01*
X73304634Y-150641456D01*
X73295296Y-150688409D01*
X53137600Y-150688409D01*
X53137600Y-144761428D01*
X54851900Y-144761428D01*
X54851900Y-145151572D01*
X54928014Y-145534220D01*
X55077315Y-145894666D01*
X55294068Y-146219059D01*
X55569941Y-146494932D01*
X55894334Y-146711685D01*
X56254780Y-146860986D01*
X56637428Y-146937100D01*
X57027572Y-146937100D01*
X57410220Y-146860986D01*
X57770666Y-146711685D01*
X57984937Y-146568513D01*
X58686900Y-146568513D01*
X58686900Y-146904487D01*
X58752445Y-147234005D01*
X58881017Y-147544405D01*
X59067674Y-147823757D01*
X59305243Y-148061326D01*
X59584595Y-148247983D01*
X59894995Y-148376555D01*
X60224513Y-148442100D01*
X60560487Y-148442100D01*
X60890005Y-148376555D01*
X61200405Y-148247983D01*
X61479757Y-148061326D01*
X61717326Y-147823757D01*
X61903983Y-147544405D01*
X62001457Y-147309080D01*
X70935900Y-147309080D01*
X70935900Y-147457920D01*
X70964937Y-147603900D01*
X71021896Y-147741411D01*
X71104587Y-147865167D01*
X71209833Y-147970413D01*
X71333589Y-148053104D01*
X71471100Y-148110063D01*
X71617080Y-148139100D01*
X71765920Y-148139100D01*
X71911900Y-148110063D01*
X72049411Y-148053104D01*
X72173167Y-147970413D01*
X72278413Y-147865167D01*
X72361104Y-147741411D01*
X72418063Y-147603900D01*
X72447100Y-147457920D01*
X72447100Y-147406580D01*
X78094400Y-147406580D01*
X78094400Y-147555420D01*
X78123437Y-147701400D01*
X78180396Y-147838911D01*
X78263087Y-147962667D01*
X78368333Y-148067913D01*
X78492089Y-148150604D01*
X78629600Y-148207563D01*
X78775580Y-148236600D01*
X78924420Y-148236600D01*
X79070400Y-148207563D01*
X79207911Y-148150604D01*
X79331667Y-148067913D01*
X79436913Y-147962667D01*
X79519604Y-147838911D01*
X79576563Y-147701400D01*
X79605600Y-147555420D01*
X79605600Y-147406580D01*
X79576563Y-147260600D01*
X79558123Y-147216080D01*
X81523400Y-147216080D01*
X81523400Y-147364920D01*
X81552437Y-147510900D01*
X81609396Y-147648411D01*
X81692087Y-147772167D01*
X81797333Y-147877413D01*
X81921089Y-147960104D01*
X82058600Y-148017063D01*
X82204580Y-148046100D01*
X82353420Y-148046100D01*
X82499400Y-148017063D01*
X82636911Y-147960104D01*
X82760667Y-147877413D01*
X82865913Y-147772167D01*
X82948604Y-147648411D01*
X83005563Y-147510900D01*
X83034600Y-147364920D01*
X83034600Y-147245580D01*
X105416400Y-147245580D01*
X105416400Y-147394420D01*
X105445437Y-147540400D01*
X105502396Y-147677911D01*
X105585087Y-147801667D01*
X105690333Y-147906913D01*
X105814089Y-147989604D01*
X105951600Y-148046563D01*
X106097580Y-148075600D01*
X106246420Y-148075600D01*
X106392400Y-148046563D01*
X106529911Y-147989604D01*
X106653667Y-147906913D01*
X106758913Y-147801667D01*
X106841604Y-147677911D01*
X106898563Y-147540400D01*
X106927600Y-147394420D01*
X106927600Y-147245580D01*
X106898563Y-147099600D01*
X106841604Y-146962089D01*
X106758913Y-146838333D01*
X106653667Y-146733087D01*
X106529911Y-146650396D01*
X106392400Y-146593437D01*
X106246420Y-146564400D01*
X106097580Y-146564400D01*
X105951600Y-146593437D01*
X105814089Y-146650396D01*
X105690333Y-146733087D01*
X105585087Y-146838333D01*
X105502396Y-146962089D01*
X105445437Y-147099600D01*
X105416400Y-147245580D01*
X83034600Y-147245580D01*
X83034600Y-147216080D01*
X83005563Y-147070100D01*
X82948604Y-146932589D01*
X82865913Y-146808833D01*
X82760667Y-146703587D01*
X82636911Y-146620896D01*
X82499400Y-146563937D01*
X82353420Y-146534900D01*
X82204580Y-146534900D01*
X82058600Y-146563937D01*
X81921089Y-146620896D01*
X81797333Y-146703587D01*
X81692087Y-146808833D01*
X81609396Y-146932589D01*
X81552437Y-147070100D01*
X81523400Y-147216080D01*
X79558123Y-147216080D01*
X79519604Y-147123089D01*
X79436913Y-146999333D01*
X79331667Y-146894087D01*
X79207911Y-146811396D01*
X79070400Y-146754437D01*
X78924420Y-146725400D01*
X78775580Y-146725400D01*
X78629600Y-146754437D01*
X78492089Y-146811396D01*
X78368333Y-146894087D01*
X78263087Y-146999333D01*
X78180396Y-147123089D01*
X78123437Y-147260600D01*
X78094400Y-147406580D01*
X72447100Y-147406580D01*
X72447100Y-147309080D01*
X72418063Y-147163100D01*
X72361104Y-147025589D01*
X72278413Y-146901833D01*
X72250300Y-146873720D01*
X72250300Y-146000980D01*
X110415900Y-146000980D01*
X110415900Y-146149820D01*
X110444937Y-146295800D01*
X110501896Y-146433311D01*
X110584587Y-146557067D01*
X110689833Y-146662313D01*
X110813589Y-146745004D01*
X110951100Y-146801963D01*
X111097080Y-146831000D01*
X111245920Y-146831000D01*
X111391900Y-146801963D01*
X111529411Y-146745004D01*
X111653167Y-146662313D01*
X111758413Y-146557067D01*
X111841104Y-146433311D01*
X111898063Y-146295800D01*
X111927100Y-146149820D01*
X111927100Y-146000980D01*
X111898063Y-145855000D01*
X111841104Y-145717489D01*
X111758413Y-145593733D01*
X111653167Y-145488487D01*
X111529411Y-145405796D01*
X111391900Y-145348837D01*
X111245920Y-145319800D01*
X111097080Y-145319800D01*
X110951100Y-145348837D01*
X110813589Y-145405796D01*
X110689833Y-145488487D01*
X110584587Y-145593733D01*
X110501896Y-145717489D01*
X110444937Y-145855000D01*
X110415900Y-146000980D01*
X72250300Y-146000980D01*
X72250300Y-143406086D01*
X78094400Y-143406086D01*
X78094400Y-143554926D01*
X78123437Y-143700906D01*
X78180396Y-143838417D01*
X78263087Y-143962173D01*
X78368333Y-144067419D01*
X78492089Y-144150110D01*
X78629600Y-144207069D01*
X78775580Y-144236106D01*
X78924420Y-144236106D01*
X79070400Y-144207069D01*
X79207911Y-144150110D01*
X79331667Y-144067419D01*
X79392006Y-144007080D01*
X79635400Y-144007080D01*
X79635400Y-144155920D01*
X79664437Y-144301900D01*
X79721396Y-144439411D01*
X79804087Y-144563167D01*
X79909333Y-144668413D01*
X80033089Y-144751104D01*
X80170600Y-144808063D01*
X80316580Y-144837100D01*
X80465420Y-144837100D01*
X80611400Y-144808063D01*
X80748911Y-144751104D01*
X80872667Y-144668413D01*
X80976980Y-144564100D01*
X87415795Y-144564100D01*
X87439500Y-144566435D01*
X87463205Y-144564100D01*
X87463207Y-144564100D01*
X87534106Y-144557117D01*
X87625077Y-144529522D01*
X87708915Y-144484709D01*
X87782401Y-144424401D01*
X87797517Y-144405982D01*
X93735400Y-138468100D01*
X101331520Y-138468100D01*
X101435833Y-138572413D01*
X101559589Y-138655104D01*
X101697100Y-138712063D01*
X101843080Y-138741100D01*
X101991920Y-138741100D01*
X102137900Y-138712063D01*
X102275411Y-138655104D01*
X102399167Y-138572413D01*
X102504413Y-138467167D01*
X102587104Y-138343411D01*
X102644063Y-138205900D01*
X102673100Y-138059920D01*
X102673100Y-137911080D01*
X102644063Y-137765100D01*
X102587104Y-137627589D01*
X102504413Y-137503833D01*
X102399167Y-137398587D01*
X102275411Y-137315896D01*
X102137900Y-137258937D01*
X101991920Y-137229900D01*
X101843080Y-137229900D01*
X101697100Y-137258937D01*
X101559589Y-137315896D01*
X101435833Y-137398587D01*
X101331520Y-137502900D01*
X93559207Y-137502900D01*
X93535500Y-137500565D01*
X93440893Y-137509883D01*
X93414092Y-137518013D01*
X93349923Y-137537478D01*
X93266085Y-137582291D01*
X93192599Y-137642599D01*
X93177488Y-137661012D01*
X87239601Y-143598900D01*
X80976980Y-143598900D01*
X80872667Y-143494587D01*
X80748911Y-143411896D01*
X80611400Y-143354937D01*
X80465420Y-143325900D01*
X80316580Y-143325900D01*
X80170600Y-143354937D01*
X80033089Y-143411896D01*
X79909333Y-143494587D01*
X79804087Y-143599833D01*
X79721396Y-143723589D01*
X79664437Y-143861100D01*
X79635400Y-144007080D01*
X79392006Y-144007080D01*
X79436913Y-143962173D01*
X79519604Y-143838417D01*
X79576563Y-143700906D01*
X79605600Y-143554926D01*
X79605600Y-143406086D01*
X79576563Y-143260106D01*
X79519604Y-143122595D01*
X79436913Y-142998839D01*
X79331667Y-142893593D01*
X79207911Y-142810902D01*
X79070400Y-142753943D01*
X78924420Y-142724906D01*
X78775580Y-142724906D01*
X78629600Y-142753943D01*
X78492089Y-142810902D01*
X78368333Y-142893593D01*
X78263087Y-142998839D01*
X78180396Y-143122595D01*
X78123437Y-143260106D01*
X78094400Y-143406086D01*
X72250300Y-143406086D01*
X72250300Y-140590784D01*
X72278417Y-140562667D01*
X72361108Y-140438911D01*
X72418067Y-140301400D01*
X72447104Y-140155420D01*
X72447104Y-140006580D01*
X72418067Y-139860600D01*
X72361108Y-139723089D01*
X72278417Y-139599333D01*
X72173171Y-139494087D01*
X72049415Y-139411396D01*
X71911904Y-139354437D01*
X71765924Y-139325400D01*
X71617084Y-139325400D01*
X71471104Y-139354437D01*
X71333593Y-139411396D01*
X71209837Y-139494087D01*
X71104591Y-139599333D01*
X71021900Y-139723089D01*
X70964941Y-139860600D01*
X70935904Y-140006580D01*
X70935904Y-140155420D01*
X70964941Y-140301400D01*
X71021900Y-140438911D01*
X71104591Y-140562667D01*
X71132701Y-140590777D01*
X71132700Y-146873720D01*
X71104587Y-146901833D01*
X71021896Y-147025589D01*
X70964937Y-147163100D01*
X70935900Y-147309080D01*
X62001457Y-147309080D01*
X62032555Y-147234005D01*
X62098100Y-146904487D01*
X62098100Y-146568513D01*
X62032555Y-146238995D01*
X61903983Y-145928595D01*
X61717326Y-145649243D01*
X61479757Y-145411674D01*
X61402821Y-145360267D01*
X64883900Y-145360267D01*
X64883900Y-145572733D01*
X64925350Y-145781116D01*
X65006657Y-145977409D01*
X65124697Y-146154067D01*
X65274933Y-146304303D01*
X65451591Y-146422343D01*
X65647884Y-146503650D01*
X65856267Y-146545100D01*
X66068733Y-146545100D01*
X66277116Y-146503650D01*
X66473409Y-146422343D01*
X66650067Y-146304303D01*
X66800303Y-146154067D01*
X66918343Y-145977409D01*
X66930069Y-145949100D01*
X66980795Y-145949100D01*
X67004500Y-145951435D01*
X67028205Y-145949100D01*
X67028207Y-145949100D01*
X67099106Y-145942117D01*
X67190077Y-145914522D01*
X67273915Y-145869709D01*
X67347401Y-145809401D01*
X67362517Y-145790982D01*
X70047488Y-143106012D01*
X70065901Y-143090901D01*
X70126209Y-143017415D01*
X70171022Y-142933577D01*
X70198617Y-142842606D01*
X70205600Y-142771707D01*
X70205600Y-142771706D01*
X70207935Y-142748000D01*
X70205600Y-142724293D01*
X70205600Y-139264899D01*
X70684900Y-138785600D01*
X80430795Y-138785600D01*
X80454500Y-138787935D01*
X80478205Y-138785600D01*
X80478207Y-138785600D01*
X80549106Y-138778617D01*
X80640077Y-138751022D01*
X80723915Y-138706209D01*
X80797401Y-138645901D01*
X80812517Y-138627482D01*
X83067399Y-136372600D01*
X88631522Y-136372600D01*
X88735835Y-136476913D01*
X88859591Y-136559604D01*
X88997102Y-136616563D01*
X89143082Y-136645600D01*
X89291922Y-136645600D01*
X89437902Y-136616563D01*
X89575413Y-136559604D01*
X89699169Y-136476913D01*
X89804415Y-136371667D01*
X89887106Y-136247911D01*
X89944065Y-136110400D01*
X89973102Y-135964420D01*
X89973102Y-135815580D01*
X89944065Y-135669600D01*
X89887106Y-135532089D01*
X89804415Y-135408333D01*
X89699169Y-135303087D01*
X89595451Y-135233785D01*
X89635667Y-135206913D01*
X89740913Y-135101667D01*
X89823604Y-134977911D01*
X89847102Y-134921182D01*
X89942333Y-135016413D01*
X90066089Y-135099104D01*
X90203600Y-135156063D01*
X90349580Y-135185100D01*
X90498420Y-135185100D01*
X90644400Y-135156063D01*
X90781911Y-135099104D01*
X90905667Y-135016413D01*
X91010913Y-134911167D01*
X91093604Y-134787411D01*
X91150563Y-134649900D01*
X91179600Y-134503920D01*
X91179600Y-134355080D01*
X91150563Y-134209100D01*
X91093604Y-134071589D01*
X91019032Y-133959983D01*
X91069132Y-133955049D01*
X91258688Y-133897548D01*
X91433384Y-133804171D01*
X91586507Y-133678507D01*
X91712171Y-133525384D01*
X91805548Y-133350688D01*
X91863049Y-133161131D01*
X91872000Y-133070252D01*
X91880951Y-133161132D01*
X91938452Y-133350688D01*
X92031830Y-133525384D01*
X92157494Y-133678507D01*
X92310617Y-133804171D01*
X92400900Y-133852429D01*
X92400900Y-134068020D01*
X92296587Y-134172333D01*
X92213896Y-134296089D01*
X92156937Y-134433600D01*
X92127900Y-134579580D01*
X92127900Y-134728420D01*
X92156937Y-134874400D01*
X92213896Y-135011911D01*
X92296587Y-135135667D01*
X92401833Y-135240913D01*
X92525589Y-135323604D01*
X92663100Y-135380563D01*
X92809080Y-135409600D01*
X92957920Y-135409600D01*
X93103900Y-135380563D01*
X93241411Y-135323604D01*
X93365167Y-135240913D01*
X93470413Y-135135667D01*
X93553104Y-135011911D01*
X93610063Y-134874400D01*
X93639100Y-134728420D01*
X93639100Y-134579580D01*
X93610063Y-134433600D01*
X93553104Y-134296089D01*
X93470413Y-134172333D01*
X93366100Y-134068020D01*
X93366100Y-133840135D01*
X93433384Y-133804171D01*
X93586507Y-133678507D01*
X93712171Y-133525384D01*
X93805548Y-133350688D01*
X93863049Y-133161131D01*
X93872000Y-133070252D01*
X93880951Y-133161132D01*
X93938452Y-133350688D01*
X94031830Y-133525384D01*
X94157494Y-133678507D01*
X94310617Y-133804171D01*
X94369400Y-133835591D01*
X94369400Y-134068020D01*
X94265087Y-134172333D01*
X94182396Y-134296089D01*
X94125437Y-134433600D01*
X94096400Y-134579580D01*
X94096400Y-134728420D01*
X94125437Y-134874400D01*
X94182396Y-135011911D01*
X94265087Y-135135667D01*
X94370333Y-135240913D01*
X94494089Y-135323604D01*
X94631600Y-135380563D01*
X94777580Y-135409600D01*
X94926420Y-135409600D01*
X95072400Y-135380563D01*
X95209911Y-135323604D01*
X95333667Y-135240913D01*
X95438913Y-135135667D01*
X95521604Y-135011911D01*
X95578563Y-134874400D01*
X95607600Y-134728420D01*
X95607600Y-134579580D01*
X95578563Y-134433600D01*
X95521604Y-134296089D01*
X95438913Y-134172333D01*
X95334600Y-134068020D01*
X95334600Y-133856972D01*
X95433384Y-133804171D01*
X95586507Y-133678507D01*
X95712171Y-133525384D01*
X95805548Y-133350688D01*
X95863049Y-133161131D01*
X95872000Y-133070252D01*
X95880951Y-133161132D01*
X95938452Y-133350688D01*
X96031830Y-133525384D01*
X96157494Y-133678507D01*
X96310617Y-133804171D01*
X96389400Y-133846282D01*
X96389401Y-135164599D01*
X96129599Y-135424402D01*
X91881978Y-135424402D01*
X91777665Y-135320089D01*
X91653909Y-135237398D01*
X91516398Y-135180439D01*
X91370418Y-135151402D01*
X91221578Y-135151402D01*
X91075598Y-135180439D01*
X90938087Y-135237398D01*
X90814331Y-135320089D01*
X90709085Y-135425335D01*
X90626394Y-135549091D01*
X90569435Y-135686602D01*
X90540398Y-135832582D01*
X90540398Y-135981422D01*
X90569435Y-136127402D01*
X90626394Y-136264913D01*
X90709085Y-136388669D01*
X90814331Y-136493915D01*
X90938087Y-136576606D01*
X91075598Y-136633565D01*
X91221578Y-136662602D01*
X91370418Y-136662602D01*
X91516398Y-136633565D01*
X91653909Y-136576606D01*
X91777665Y-136493915D01*
X91881978Y-136389602D01*
X96305793Y-136389602D01*
X96329498Y-136391937D01*
X96353203Y-136389602D01*
X96353205Y-136389602D01*
X96424104Y-136382619D01*
X96515075Y-136355024D01*
X96598913Y-136310211D01*
X96672399Y-136249903D01*
X96687515Y-136231484D01*
X97196487Y-135722513D01*
X97214901Y-135707401D01*
X97275209Y-135633915D01*
X97320022Y-135550077D01*
X97325088Y-135533377D01*
X97347617Y-135459107D01*
X97356935Y-135364500D01*
X97354600Y-135340793D01*
X97354600Y-133846282D01*
X97433384Y-133804171D01*
X97586507Y-133678507D01*
X97712171Y-133525384D01*
X97805548Y-133350688D01*
X97863049Y-133161131D01*
X97872000Y-133070252D01*
X97880951Y-133161132D01*
X97938452Y-133350688D01*
X98031830Y-133525384D01*
X98157494Y-133678507D01*
X98310617Y-133804171D01*
X98389401Y-133846282D01*
X98389401Y-134054680D01*
X98370833Y-134067087D01*
X98265587Y-134172333D01*
X98182896Y-134296089D01*
X98125937Y-134433600D01*
X98096900Y-134579580D01*
X98096900Y-134728420D01*
X98125937Y-134874400D01*
X98182896Y-135011911D01*
X98265587Y-135135667D01*
X98370833Y-135240913D01*
X98494589Y-135323604D01*
X98632100Y-135380563D01*
X98778080Y-135409600D01*
X98926920Y-135409600D01*
X99072900Y-135380563D01*
X99080646Y-135377355D01*
X98034601Y-136423400D01*
X93178207Y-136423400D01*
X93154500Y-136421065D01*
X93059893Y-136430383D01*
X92968923Y-136457978D01*
X92885085Y-136502791D01*
X92811599Y-136563099D01*
X92796488Y-136581512D01*
X90922601Y-138455400D01*
X81621207Y-138455400D01*
X81597500Y-138453065D01*
X81502893Y-138462383D01*
X81477259Y-138470159D01*
X81411923Y-138489978D01*
X81328085Y-138534791D01*
X81254599Y-138595099D01*
X81239488Y-138613512D01*
X80464101Y-139388900D01*
X80316580Y-139388900D01*
X80170600Y-139417937D01*
X80033089Y-139474896D01*
X79909333Y-139557587D01*
X79804087Y-139662833D01*
X79721396Y-139786589D01*
X79664437Y-139924100D01*
X79635400Y-140070080D01*
X79635400Y-140218920D01*
X79664437Y-140364900D01*
X79721396Y-140502411D01*
X79804087Y-140626167D01*
X79909333Y-140731413D01*
X80033089Y-140814104D01*
X80170600Y-140871063D01*
X80316580Y-140900100D01*
X80465420Y-140900100D01*
X80611400Y-140871063D01*
X80748911Y-140814104D01*
X80872667Y-140731413D01*
X80977913Y-140626167D01*
X81060604Y-140502411D01*
X81117563Y-140364900D01*
X81138313Y-140260580D01*
X81476900Y-140260580D01*
X81476900Y-140409420D01*
X81505937Y-140555400D01*
X81562896Y-140692911D01*
X81645587Y-140816667D01*
X81750833Y-140921913D01*
X81874589Y-141004604D01*
X82012100Y-141061563D01*
X82158080Y-141090600D01*
X82306920Y-141090600D01*
X82452900Y-141061563D01*
X82590411Y-141004604D01*
X82714167Y-140921913D01*
X82819413Y-140816667D01*
X82902104Y-140692911D01*
X82959063Y-140555400D01*
X82988100Y-140409420D01*
X82988100Y-140260580D01*
X82959063Y-140114600D01*
X82902104Y-139977089D01*
X82819413Y-139853333D01*
X82714167Y-139748087D01*
X82590411Y-139665396D01*
X82452900Y-139608437D01*
X82306920Y-139579400D01*
X82158080Y-139579400D01*
X82012100Y-139608437D01*
X81874589Y-139665396D01*
X81750833Y-139748087D01*
X81645587Y-139853333D01*
X81562896Y-139977089D01*
X81505937Y-140114600D01*
X81476900Y-140260580D01*
X81138313Y-140260580D01*
X81146600Y-140218920D01*
X81146600Y-140071399D01*
X81797400Y-139420600D01*
X91098795Y-139420600D01*
X91122500Y-139422935D01*
X91146205Y-139420600D01*
X91146207Y-139420600D01*
X91217106Y-139413617D01*
X91308077Y-139386022D01*
X91391915Y-139341209D01*
X91465401Y-139280901D01*
X91480517Y-139262482D01*
X93354400Y-137388600D01*
X98210795Y-137388600D01*
X98234500Y-137390935D01*
X98258205Y-137388600D01*
X98258207Y-137388600D01*
X98329106Y-137381617D01*
X98420077Y-137354022D01*
X98503915Y-137309209D01*
X98577401Y-137248901D01*
X98592517Y-137230482D01*
X100383900Y-135439100D01*
X100531420Y-135439100D01*
X100677400Y-135410063D01*
X100814911Y-135353104D01*
X100938667Y-135270413D01*
X101043913Y-135165167D01*
X101126604Y-135041411D01*
X101183563Y-134903900D01*
X101212600Y-134757920D01*
X101212600Y-134609080D01*
X101183563Y-134463100D01*
X101126604Y-134325589D01*
X101043913Y-134201833D01*
X100938667Y-134096587D01*
X100814911Y-134013896D01*
X100729568Y-133978546D01*
X100846600Y-133918462D01*
X100846600Y-132764400D01*
X100826600Y-132764400D01*
X100826600Y-132713600D01*
X100846600Y-132713600D01*
X100846600Y-131559538D01*
X100897400Y-131559538D01*
X100897400Y-132713600D01*
X100917400Y-132713600D01*
X100917400Y-132764400D01*
X100897400Y-132764400D01*
X100897400Y-133918462D01*
X101062297Y-134003119D01*
X101252800Y-133949706D01*
X101437785Y-133856475D01*
X101601027Y-133728947D01*
X101736253Y-133572023D01*
X101838266Y-133391733D01*
X101896937Y-133213831D01*
X101938452Y-133350688D01*
X102031830Y-133525384D01*
X102157494Y-133678507D01*
X102310617Y-133804171D01*
X102389401Y-133846282D01*
X102389401Y-133863599D01*
X102354600Y-133898400D01*
X102207080Y-133898400D01*
X102061100Y-133927437D01*
X101923589Y-133984396D01*
X101799833Y-134067087D01*
X101694587Y-134172333D01*
X101611896Y-134296089D01*
X101554937Y-134433600D01*
X101525900Y-134579580D01*
X101525900Y-134728420D01*
X101554937Y-134874400D01*
X101611896Y-135011911D01*
X101694587Y-135135667D01*
X101799833Y-135240913D01*
X101923589Y-135323604D01*
X102061100Y-135380563D01*
X102207080Y-135409600D01*
X102355920Y-135409600D01*
X102501900Y-135380563D01*
X102639411Y-135323604D01*
X102763167Y-135240913D01*
X102868413Y-135135667D01*
X102951104Y-135011911D01*
X103008063Y-134874400D01*
X103037100Y-134728420D01*
X103037100Y-134580900D01*
X103196487Y-134421513D01*
X103214901Y-134406401D01*
X103275209Y-134332915D01*
X103320022Y-134249077D01*
X103347617Y-134158106D01*
X103354600Y-134087207D01*
X103354600Y-134087206D01*
X103356935Y-134063501D01*
X103354600Y-134039796D01*
X103354600Y-133846282D01*
X103433384Y-133804171D01*
X103586507Y-133678507D01*
X103712171Y-133525384D01*
X103723504Y-133504180D01*
X111436200Y-133504180D01*
X111436200Y-133653020D01*
X111465237Y-133799000D01*
X111522196Y-133936511D01*
X111604887Y-134060267D01*
X111710133Y-134165513D01*
X111833889Y-134248204D01*
X111971400Y-134305163D01*
X112117380Y-134334200D01*
X112266220Y-134334200D01*
X112412200Y-134305163D01*
X112549711Y-134248204D01*
X112673467Y-134165513D01*
X112778713Y-134060267D01*
X112861404Y-133936511D01*
X112918363Y-133799000D01*
X112947400Y-133653020D01*
X112947400Y-133504180D01*
X112918363Y-133358200D01*
X112861404Y-133220689D01*
X112778713Y-133096933D01*
X112673467Y-132991687D01*
X112549711Y-132908996D01*
X112412200Y-132852037D01*
X112266220Y-132823000D01*
X112117380Y-132823000D01*
X111971400Y-132852037D01*
X111833889Y-132908996D01*
X111710133Y-132991687D01*
X111604887Y-133096933D01*
X111522196Y-133220689D01*
X111465237Y-133358200D01*
X111436200Y-133504180D01*
X103723504Y-133504180D01*
X103805548Y-133350688D01*
X103863049Y-133161131D01*
X103877600Y-133013394D01*
X103877600Y-132464605D01*
X103863049Y-132316868D01*
X103805548Y-132127312D01*
X103712171Y-131952616D01*
X103586507Y-131799493D01*
X103433384Y-131673829D01*
X103258687Y-131580452D01*
X103069131Y-131522951D01*
X102872000Y-131503535D01*
X102674868Y-131522951D01*
X102485312Y-131580452D01*
X102310616Y-131673829D01*
X102157493Y-131799493D01*
X102031829Y-131952616D01*
X101938452Y-132127313D01*
X101896937Y-132264169D01*
X101838266Y-132086267D01*
X101736253Y-131905977D01*
X101601027Y-131749053D01*
X101437785Y-131621525D01*
X101252800Y-131528294D01*
X101062297Y-131474881D01*
X100897400Y-131559538D01*
X100846600Y-131559538D01*
X100681703Y-131474881D01*
X100491200Y-131528294D01*
X100306215Y-131621525D01*
X100142973Y-131749053D01*
X100007747Y-131905977D01*
X99905734Y-132086267D01*
X99847063Y-132264169D01*
X99805548Y-132127312D01*
X99712171Y-131952616D01*
X99586507Y-131799493D01*
X99433384Y-131673829D01*
X99258687Y-131580452D01*
X99069131Y-131522951D01*
X98872000Y-131503535D01*
X98674868Y-131522951D01*
X98485312Y-131580452D01*
X98310616Y-131673829D01*
X98157493Y-131799493D01*
X98031829Y-131952616D01*
X97938452Y-132127313D01*
X97880951Y-132316869D01*
X97872000Y-132407748D01*
X97863049Y-132316868D01*
X97805548Y-132127312D01*
X97712171Y-131952616D01*
X97586507Y-131799493D01*
X97433384Y-131673829D01*
X97258687Y-131580452D01*
X97069131Y-131522951D01*
X96872000Y-131503535D01*
X96674868Y-131522951D01*
X96485312Y-131580452D01*
X96310616Y-131673829D01*
X96157493Y-131799493D01*
X96031829Y-131952616D01*
X95938452Y-132127313D01*
X95880951Y-132316869D01*
X95872000Y-132407748D01*
X95863049Y-132316868D01*
X95805548Y-132127312D01*
X95712171Y-131952616D01*
X95586507Y-131799493D01*
X95433384Y-131673829D01*
X95258687Y-131580452D01*
X95069131Y-131522951D01*
X94872000Y-131503535D01*
X94674868Y-131522951D01*
X94485312Y-131580452D01*
X94310616Y-131673829D01*
X94157493Y-131799493D01*
X94031829Y-131952616D01*
X93938452Y-132127313D01*
X93880951Y-132316869D01*
X93872000Y-132407748D01*
X93863049Y-132316868D01*
X93805548Y-132127312D01*
X93712171Y-131952616D01*
X93586507Y-131799493D01*
X93433384Y-131673829D01*
X93258687Y-131580452D01*
X93069131Y-131522951D01*
X92872000Y-131503535D01*
X92674868Y-131522951D01*
X92485312Y-131580452D01*
X92310616Y-131673829D01*
X92157493Y-131799493D01*
X92031829Y-131952616D01*
X91938452Y-132127313D01*
X91880951Y-132316869D01*
X91872000Y-132407748D01*
X91863049Y-132316868D01*
X91805548Y-132127312D01*
X91712171Y-131952616D01*
X91586507Y-131799493D01*
X91433384Y-131673829D01*
X91258687Y-131580452D01*
X91069131Y-131522951D01*
X90872000Y-131503535D01*
X90674868Y-131522951D01*
X90485312Y-131580452D01*
X90310616Y-131673829D01*
X90157493Y-131799493D01*
X90031829Y-131952616D01*
X89938452Y-132127313D01*
X89880951Y-132316869D01*
X89872000Y-132407748D01*
X89863049Y-132316868D01*
X89805548Y-132127312D01*
X89712171Y-131952616D01*
X89586507Y-131799493D01*
X89433384Y-131673829D01*
X89258687Y-131580452D01*
X89069131Y-131522951D01*
X88872000Y-131503535D01*
X88674868Y-131522951D01*
X88485312Y-131580452D01*
X88310616Y-131673829D01*
X88157493Y-131799493D01*
X88031829Y-131952616D01*
X87938452Y-132127313D01*
X87880951Y-132316869D01*
X87866400Y-132464606D01*
X87866400Y-133013395D01*
X87880951Y-133161132D01*
X87938452Y-133350688D01*
X88031830Y-133525384D01*
X88157494Y-133678507D01*
X88310617Y-133804171D01*
X88485313Y-133897548D01*
X88674869Y-133955049D01*
X88774447Y-133964857D01*
X88672333Y-134033087D01*
X88568020Y-134137400D01*
X81811696Y-134137400D01*
X81787999Y-134135066D01*
X81764302Y-134137400D01*
X81764293Y-134137400D01*
X81693394Y-134144383D01*
X81602423Y-134171978D01*
X81518585Y-134216791D01*
X81445099Y-134277099D01*
X81429983Y-134295518D01*
X79048101Y-136677400D01*
X69292980Y-136677400D01*
X69188667Y-136573087D01*
X69064911Y-136490396D01*
X68927400Y-136433437D01*
X68781420Y-136404400D01*
X68632580Y-136404400D01*
X68486600Y-136433437D01*
X68349089Y-136490396D01*
X68225333Y-136573087D01*
X68120087Y-136678333D01*
X68037396Y-136802089D01*
X67980437Y-136939600D01*
X67951400Y-137085580D01*
X67951400Y-137234420D01*
X67980437Y-137380400D01*
X68037396Y-137517911D01*
X68120087Y-137641667D01*
X68225333Y-137746913D01*
X68349089Y-137829604D01*
X68486600Y-137886563D01*
X68632580Y-137915600D01*
X68781420Y-137915600D01*
X68927400Y-137886563D01*
X69064911Y-137829604D01*
X69188667Y-137746913D01*
X69292980Y-137642600D01*
X79224295Y-137642600D01*
X79248000Y-137644935D01*
X79271705Y-137642600D01*
X79271707Y-137642600D01*
X79342606Y-137635617D01*
X79433577Y-137608022D01*
X79517415Y-137563209D01*
X79590901Y-137502901D01*
X79606017Y-137484482D01*
X81987899Y-135102600D01*
X88568020Y-135102600D01*
X88672333Y-135206913D01*
X88776051Y-135276215D01*
X88735835Y-135303087D01*
X88631522Y-135407400D01*
X82891204Y-135407400D01*
X82867499Y-135405065D01*
X82843794Y-135407400D01*
X82843793Y-135407400D01*
X82772894Y-135414383D01*
X82681923Y-135441978D01*
X82598085Y-135486791D01*
X82524599Y-135547099D01*
X82509483Y-135565518D01*
X80254601Y-137820400D01*
X70508707Y-137820400D01*
X70485000Y-137818065D01*
X70390393Y-137827383D01*
X70308838Y-137852122D01*
X70299423Y-137854978D01*
X70215585Y-137899791D01*
X70142099Y-137960099D01*
X70126987Y-137978513D01*
X69398513Y-138706988D01*
X69380100Y-138722099D01*
X69364989Y-138740512D01*
X69364987Y-138740514D01*
X69319792Y-138795585D01*
X69274978Y-138879424D01*
X69247384Y-138970394D01*
X69238065Y-139065000D01*
X69240401Y-139088715D01*
X69240400Y-142548100D01*
X66884123Y-144904378D01*
X66800303Y-144778933D01*
X66650067Y-144628697D01*
X66473409Y-144510657D01*
X66277116Y-144429350D01*
X66068733Y-144387900D01*
X65856267Y-144387900D01*
X65647884Y-144429350D01*
X65451591Y-144510657D01*
X65274933Y-144628697D01*
X65124697Y-144778933D01*
X65006657Y-144955591D01*
X64925350Y-145151884D01*
X64883900Y-145360267D01*
X61402821Y-145360267D01*
X61200405Y-145225017D01*
X60890005Y-145096445D01*
X60560487Y-145030900D01*
X60224513Y-145030900D01*
X59894995Y-145096445D01*
X59584595Y-145225017D01*
X59305243Y-145411674D01*
X59067674Y-145649243D01*
X58881017Y-145928595D01*
X58752445Y-146238995D01*
X58686900Y-146568513D01*
X57984937Y-146568513D01*
X58095059Y-146494932D01*
X58370932Y-146219059D01*
X58587685Y-145894666D01*
X58736986Y-145534220D01*
X58813100Y-145151572D01*
X58813100Y-144761428D01*
X58736986Y-144378780D01*
X58587685Y-144018334D01*
X58370932Y-143693941D01*
X58095059Y-143418068D01*
X57770666Y-143201315D01*
X57410220Y-143052014D01*
X57027572Y-142975900D01*
X56637428Y-142975900D01*
X56254780Y-143052014D01*
X55894334Y-143201315D01*
X55569941Y-143418068D01*
X55294068Y-143693941D01*
X55077315Y-144018334D01*
X54928014Y-144378780D01*
X54851900Y-144761428D01*
X53137600Y-144761428D01*
X53137600Y-140117337D01*
X58237797Y-140117337D01*
X58255861Y-140339075D01*
X58316837Y-140553028D01*
X58418382Y-140750974D01*
X58439675Y-140782841D01*
X58624131Y-140848948D01*
X59336579Y-140136500D01*
X58624131Y-139424052D01*
X58439675Y-139490159D01*
X58331504Y-139684563D01*
X58263338Y-139896335D01*
X58237797Y-140117337D01*
X53137600Y-140117337D01*
X53137600Y-135318500D01*
X57159997Y-135318500D01*
X57162700Y-135345942D01*
X57162701Y-137577048D01*
X57159997Y-137604500D01*
X57170787Y-137714044D01*
X57202739Y-137819377D01*
X57238651Y-137886563D01*
X57254628Y-137916454D01*
X57324458Y-138001543D01*
X57345776Y-138019038D01*
X57769461Y-138442724D01*
X57786957Y-138464043D01*
X57808274Y-138481537D01*
X57872045Y-138533873D01*
X57969122Y-138585761D01*
X58074455Y-138617714D01*
X58184000Y-138628503D01*
X58211444Y-138625800D01*
X58428946Y-138625800D01*
X58534697Y-138784067D01*
X58684933Y-138934303D01*
X58861591Y-139052343D01*
X58944540Y-139086702D01*
X58758026Y-139182382D01*
X58726159Y-139203675D01*
X58660052Y-139388131D01*
X59372500Y-140100579D01*
X59386643Y-140086437D01*
X59422564Y-140122358D01*
X59408421Y-140136500D01*
X59422564Y-140150643D01*
X59386643Y-140186564D01*
X59372500Y-140172421D01*
X58660052Y-140884869D01*
X58726159Y-141069325D01*
X58920563Y-141177496D01*
X58946014Y-141185688D01*
X58861591Y-141220657D01*
X58684933Y-141338697D01*
X58534697Y-141488933D01*
X58416657Y-141665591D01*
X58335350Y-141861884D01*
X58293900Y-142070267D01*
X58293900Y-142282733D01*
X58335350Y-142491116D01*
X58416657Y-142687409D01*
X58534697Y-142864067D01*
X58684933Y-143014303D01*
X58861591Y-143132343D01*
X59057884Y-143213650D01*
X59266267Y-143255100D01*
X59478733Y-143255100D01*
X59687116Y-143213650D01*
X59883409Y-143132343D01*
X59976311Y-143070267D01*
X64883900Y-143070267D01*
X64883900Y-143282733D01*
X64925350Y-143491116D01*
X65006657Y-143687409D01*
X65124697Y-143864067D01*
X65274933Y-144014303D01*
X65451591Y-144132343D01*
X65647884Y-144213650D01*
X65856267Y-144255100D01*
X66068733Y-144255100D01*
X66277116Y-144213650D01*
X66473409Y-144132343D01*
X66650067Y-144014303D01*
X66800303Y-143864067D01*
X66918343Y-143687409D01*
X66999650Y-143491116D01*
X67041100Y-143282733D01*
X67041100Y-143070267D01*
X66999650Y-142861884D01*
X66918343Y-142665591D01*
X66800303Y-142488933D01*
X66650067Y-142338697D01*
X66473409Y-142220657D01*
X66277116Y-142139350D01*
X66068733Y-142097900D01*
X65856267Y-142097900D01*
X65647884Y-142139350D01*
X65451591Y-142220657D01*
X65274933Y-142338697D01*
X65124697Y-142488933D01*
X65006657Y-142665591D01*
X64925350Y-142861884D01*
X64883900Y-143070267D01*
X59976311Y-143070267D01*
X60060067Y-143014303D01*
X60210303Y-142864067D01*
X60328343Y-142687409D01*
X60409650Y-142491116D01*
X60451100Y-142282733D01*
X60451100Y-142070267D01*
X60428803Y-141958173D01*
X60464933Y-141994303D01*
X60641591Y-142112343D01*
X60837884Y-142193650D01*
X61046267Y-142235100D01*
X61258733Y-142235100D01*
X61467116Y-142193650D01*
X61663409Y-142112343D01*
X61840067Y-141994303D01*
X61990303Y-141844067D01*
X62108343Y-141667409D01*
X62189650Y-141471116D01*
X62231100Y-141262733D01*
X62231100Y-141050267D01*
X62189650Y-140841884D01*
X62108343Y-140645591D01*
X61990303Y-140468933D01*
X61840067Y-140318697D01*
X61663409Y-140200657D01*
X61580460Y-140166298D01*
X61766974Y-140070618D01*
X61798841Y-140049325D01*
X61864948Y-139864869D01*
X61152500Y-139152421D01*
X61138358Y-139166564D01*
X61102437Y-139130643D01*
X61116579Y-139116500D01*
X61188421Y-139116500D01*
X61900869Y-139828948D01*
X62085325Y-139762841D01*
X62193496Y-139568437D01*
X62261662Y-139356665D01*
X62287203Y-139135663D01*
X62269139Y-138913925D01*
X62208163Y-138699972D01*
X62106618Y-138502026D01*
X62085325Y-138470159D01*
X61900869Y-138404052D01*
X61188421Y-139116500D01*
X61116579Y-139116500D01*
X61102437Y-139102358D01*
X61138358Y-139066437D01*
X61152500Y-139080579D01*
X61864948Y-138368131D01*
X61798841Y-138183675D01*
X61604437Y-138075504D01*
X61578986Y-138067312D01*
X61663409Y-138032343D01*
X61840067Y-137914303D01*
X61990303Y-137764067D01*
X62108343Y-137587409D01*
X62189650Y-137391116D01*
X62231100Y-137182733D01*
X62231100Y-136970267D01*
X62189650Y-136761884D01*
X62108343Y-136565591D01*
X61990303Y-136388933D01*
X61840067Y-136238697D01*
X61663409Y-136120657D01*
X61508520Y-136056500D01*
X61663409Y-135992343D01*
X61840067Y-135874303D01*
X61990303Y-135724067D01*
X62108343Y-135547409D01*
X62189650Y-135351116D01*
X62231100Y-135142733D01*
X62231100Y-134930267D01*
X62189650Y-134721884D01*
X62108343Y-134525591D01*
X61990303Y-134348933D01*
X61840067Y-134198697D01*
X61663409Y-134080657D01*
X61467116Y-133999350D01*
X61258733Y-133957900D01*
X61046267Y-133957900D01*
X60837884Y-133999350D01*
X60641591Y-134080657D01*
X60464933Y-134198697D01*
X60314697Y-134348933D01*
X60196657Y-134525591D01*
X60115350Y-134721884D01*
X60073900Y-134930267D01*
X60073900Y-135142733D01*
X60096197Y-135254827D01*
X60060067Y-135218697D01*
X59883409Y-135100657D01*
X59687116Y-135019350D01*
X59478733Y-134977900D01*
X59266267Y-134977900D01*
X59057884Y-135019350D01*
X58861591Y-135100657D01*
X58684933Y-135218697D01*
X58534697Y-135368933D01*
X58416657Y-135545591D01*
X58335350Y-135741884D01*
X58293900Y-135950267D01*
X58293900Y-136162733D01*
X58335350Y-136371116D01*
X58416657Y-136567409D01*
X58534697Y-136744067D01*
X58684933Y-136894303D01*
X58861591Y-137012343D01*
X59016480Y-137076500D01*
X58861591Y-137140657D01*
X58684933Y-137258697D01*
X58534697Y-137408933D01*
X58468368Y-137508200D01*
X58415463Y-137508200D01*
X58280300Y-137373038D01*
X58280300Y-135549962D01*
X59921462Y-133908800D01*
X62379538Y-133908800D01*
X64609457Y-136138719D01*
X64626957Y-136160043D01*
X64712046Y-136229873D01*
X64809122Y-136281761D01*
X64914456Y-136313714D01*
X64996556Y-136321800D01*
X64996557Y-136321800D01*
X65023999Y-136324503D01*
X65051441Y-136321800D01*
X73632558Y-136321800D01*
X73660000Y-136324503D01*
X73687442Y-136321800D01*
X73687444Y-136321800D01*
X73769544Y-136313714D01*
X73874878Y-136281761D01*
X73971954Y-136229873D01*
X74057043Y-136160043D01*
X74074543Y-136138719D01*
X74746463Y-135466800D01*
X76072680Y-135466800D01*
X76072680Y-135658000D01*
X76079546Y-135727710D01*
X76099879Y-135794740D01*
X76132899Y-135856516D01*
X76177337Y-135910663D01*
X76231484Y-135955101D01*
X76293260Y-135988121D01*
X76360290Y-136008454D01*
X76430000Y-136015320D01*
X78730000Y-136015320D01*
X78799710Y-136008454D01*
X78866740Y-135988121D01*
X78928516Y-135955101D01*
X78982663Y-135910663D01*
X79027101Y-135856516D01*
X79060121Y-135794740D01*
X79080454Y-135727710D01*
X79087320Y-135658000D01*
X79087320Y-134158000D01*
X79080454Y-134088290D01*
X79060121Y-134021260D01*
X79027101Y-133959484D01*
X78982663Y-133905337D01*
X78928516Y-133860899D01*
X78866740Y-133827879D01*
X78799710Y-133807546D01*
X78730000Y-133800680D01*
X76430000Y-133800680D01*
X76360290Y-133807546D01*
X76293260Y-133827879D01*
X76231484Y-133860899D01*
X76177337Y-133905337D01*
X76132899Y-133959484D01*
X76099879Y-134021260D01*
X76079546Y-134088290D01*
X76072680Y-134158000D01*
X76072680Y-134349200D01*
X74542444Y-134349200D01*
X74515000Y-134346497D01*
X74405456Y-134357286D01*
X74300122Y-134389239D01*
X74203045Y-134441127D01*
X74171874Y-134466709D01*
X74117957Y-134510957D01*
X74100462Y-134532275D01*
X73428538Y-135204200D01*
X65255462Y-135204200D01*
X63981529Y-133930267D01*
X64883900Y-133930267D01*
X64883900Y-134142733D01*
X64925350Y-134351116D01*
X65006657Y-134547409D01*
X65124697Y-134724067D01*
X65274933Y-134874303D01*
X65451591Y-134992343D01*
X65647884Y-135073650D01*
X65856267Y-135115100D01*
X66068733Y-135115100D01*
X66277116Y-135073650D01*
X66473409Y-134992343D01*
X66650067Y-134874303D01*
X66800303Y-134724067D01*
X66918343Y-134547409D01*
X66999650Y-134351116D01*
X67041100Y-134142733D01*
X67041100Y-133930267D01*
X66999650Y-133721884D01*
X66918343Y-133525591D01*
X66800303Y-133348933D01*
X66650067Y-133198697D01*
X66473409Y-133080657D01*
X66277116Y-132999350D01*
X66068733Y-132957900D01*
X65856267Y-132957900D01*
X65647884Y-132999350D01*
X65451591Y-133080657D01*
X65274933Y-133198697D01*
X65124697Y-133348933D01*
X65006657Y-133525591D01*
X64925350Y-133721884D01*
X64883900Y-133930267D01*
X63981529Y-133930267D01*
X63025543Y-132974281D01*
X63008043Y-132952957D01*
X62922954Y-132883127D01*
X62825878Y-132831239D01*
X62720544Y-132799286D01*
X62638444Y-132791200D01*
X62638442Y-132791200D01*
X62611000Y-132788497D01*
X62583558Y-132791200D01*
X59717441Y-132791200D01*
X59689999Y-132788497D01*
X59662557Y-132791200D01*
X59662556Y-132791200D01*
X59580456Y-132799286D01*
X59475122Y-132831239D01*
X59378046Y-132883127D01*
X59292957Y-132952957D01*
X59275457Y-132974281D01*
X57345781Y-134903957D01*
X57324457Y-134921457D01*
X57254627Y-135006546D01*
X57202739Y-135103623D01*
X57170786Y-135208957D01*
X57163422Y-135283726D01*
X57159997Y-135318500D01*
X53137600Y-135318500D01*
X53137600Y-132061428D01*
X54851900Y-132061428D01*
X54851900Y-132451572D01*
X54928014Y-132834220D01*
X55077315Y-133194666D01*
X55294068Y-133519059D01*
X55569941Y-133794932D01*
X55894334Y-134011685D01*
X56254780Y-134160986D01*
X56637428Y-134237100D01*
X57027572Y-134237100D01*
X57410220Y-134160986D01*
X57770666Y-134011685D01*
X58095059Y-133794932D01*
X58370932Y-133519059D01*
X58587685Y-133194666D01*
X58736986Y-132834220D01*
X58813100Y-132451572D01*
X58813100Y-132061428D01*
X58736986Y-131678780D01*
X58587685Y-131318334D01*
X58370932Y-130993941D01*
X58095059Y-130718068D01*
X57770666Y-130501315D01*
X57410220Y-130352014D01*
X57191528Y-130308513D01*
X58686900Y-130308513D01*
X58686900Y-130644487D01*
X58752445Y-130974005D01*
X58881017Y-131284405D01*
X59067674Y-131563757D01*
X59305243Y-131801326D01*
X59584595Y-131987983D01*
X59894995Y-132116555D01*
X60224513Y-132182100D01*
X60560487Y-132182100D01*
X60890005Y-132116555D01*
X61200405Y-131987983D01*
X61479757Y-131801326D01*
X61640816Y-131640267D01*
X64883900Y-131640267D01*
X64883900Y-131852733D01*
X64925350Y-132061116D01*
X65006657Y-132257409D01*
X65124697Y-132434067D01*
X65274933Y-132584303D01*
X65451591Y-132702343D01*
X65647884Y-132783650D01*
X65856267Y-132825100D01*
X66068733Y-132825100D01*
X66277116Y-132783650D01*
X66473409Y-132702343D01*
X66650067Y-132584303D01*
X66660426Y-132573944D01*
X76042086Y-132573944D01*
X76101906Y-132787069D01*
X76204378Y-132989342D01*
X76344342Y-133167738D01*
X76516420Y-133315400D01*
X76713999Y-133426654D01*
X76929486Y-133497225D01*
X77154600Y-133524400D01*
X77554600Y-133524400D01*
X77554600Y-132393400D01*
X77605400Y-132393400D01*
X77605400Y-133524400D01*
X78005400Y-133524400D01*
X78230514Y-133497225D01*
X78446001Y-133426654D01*
X78643580Y-133315400D01*
X78815658Y-133167738D01*
X78955622Y-132989342D01*
X79058094Y-132787069D01*
X79117914Y-132573944D01*
X79034494Y-132393400D01*
X77605400Y-132393400D01*
X77554600Y-132393400D01*
X76125506Y-132393400D01*
X76042086Y-132573944D01*
X66660426Y-132573944D01*
X66800303Y-132434067D01*
X66918343Y-132257409D01*
X66957839Y-132162056D01*
X76042086Y-132162056D01*
X76125506Y-132342600D01*
X77554600Y-132342600D01*
X77554600Y-131211600D01*
X77605400Y-131211600D01*
X77605400Y-132342600D01*
X79034494Y-132342600D01*
X79117914Y-132162056D01*
X79058094Y-131948931D01*
X78955622Y-131746658D01*
X78815658Y-131568262D01*
X78643580Y-131420600D01*
X78446001Y-131309346D01*
X78230514Y-131238775D01*
X78005400Y-131211600D01*
X77605400Y-131211600D01*
X77554600Y-131211600D01*
X77154600Y-131211600D01*
X76929486Y-131238775D01*
X76713999Y-131309346D01*
X76516420Y-131420600D01*
X76344342Y-131568262D01*
X76204378Y-131746658D01*
X76101906Y-131948931D01*
X76042086Y-132162056D01*
X66957839Y-132162056D01*
X66999650Y-132061116D01*
X67041100Y-131852733D01*
X67041100Y-131640267D01*
X66999650Y-131431884D01*
X66918343Y-131235591D01*
X66800303Y-131058933D01*
X66650067Y-130908697D01*
X66473409Y-130790657D01*
X66277116Y-130709350D01*
X66068733Y-130667900D01*
X65856267Y-130667900D01*
X65647884Y-130709350D01*
X65451591Y-130790657D01*
X65274933Y-130908697D01*
X65124697Y-131058933D01*
X65006657Y-131235591D01*
X64925350Y-131431884D01*
X64883900Y-131640267D01*
X61640816Y-131640267D01*
X61717326Y-131563757D01*
X61903983Y-131284405D01*
X62032555Y-130974005D01*
X62098100Y-130644487D01*
X62098100Y-130308513D01*
X62032555Y-129978995D01*
X61903983Y-129668595D01*
X61717326Y-129389243D01*
X61479757Y-129151674D01*
X61200405Y-128965017D01*
X60890005Y-128836445D01*
X60560487Y-128770900D01*
X60224513Y-128770900D01*
X59894995Y-128836445D01*
X59584595Y-128965017D01*
X59305243Y-129151674D01*
X59067674Y-129389243D01*
X58881017Y-129668595D01*
X58752445Y-129978995D01*
X58686900Y-130308513D01*
X57191528Y-130308513D01*
X57027572Y-130275900D01*
X56637428Y-130275900D01*
X56254780Y-130352014D01*
X55894334Y-130501315D01*
X55569941Y-130718068D01*
X55294068Y-130993941D01*
X55077315Y-131318334D01*
X54928014Y-131678780D01*
X54851900Y-132061428D01*
X53137600Y-132061428D01*
X53137600Y-125918084D01*
X53151013Y-125929092D01*
X53259987Y-125987340D01*
X53378231Y-126023209D01*
X53501200Y-126035320D01*
X54855200Y-126035320D01*
X54978169Y-126023209D01*
X55096413Y-125987340D01*
X55205387Y-125929092D01*
X55300904Y-125850704D01*
X55379292Y-125755187D01*
X55437540Y-125646213D01*
X55473409Y-125527969D01*
X55485520Y-125405000D01*
X55485520Y-124131000D01*
X55473409Y-124008031D01*
X55437540Y-123889787D01*
X55379292Y-123780813D01*
X55300904Y-123685296D01*
X55205387Y-123606908D01*
X55179368Y-123593000D01*
X56093340Y-123593000D01*
X56110342Y-123765628D01*
X56160696Y-123931621D01*
X56242466Y-124084602D01*
X56352509Y-124218691D01*
X56486598Y-124328734D01*
X56639579Y-124410504D01*
X56805572Y-124460858D01*
X56934947Y-124473600D01*
X57221453Y-124473600D01*
X57350828Y-124460858D01*
X57516821Y-124410504D01*
X57669802Y-124328734D01*
X57803891Y-124218691D01*
X57913934Y-124084602D01*
X57952073Y-124013248D01*
X57952073Y-126373947D01*
X57923960Y-126402060D01*
X57841269Y-126525816D01*
X57784310Y-126663327D01*
X57755273Y-126809307D01*
X57755273Y-126958147D01*
X57784310Y-127104127D01*
X57841269Y-127241638D01*
X57923960Y-127365394D01*
X57949807Y-127391241D01*
X57949370Y-127395673D01*
X57952073Y-127423115D01*
X57952073Y-127423116D01*
X57960159Y-127505216D01*
X57992112Y-127610550D01*
X58044000Y-127707627D01*
X58113830Y-127792716D01*
X58135154Y-127810216D01*
X58805557Y-128480619D01*
X58823057Y-128501943D01*
X58908146Y-128571773D01*
X59005222Y-128623661D01*
X59110556Y-128655614D01*
X59192656Y-128663700D01*
X59192657Y-128663700D01*
X59220099Y-128666403D01*
X59247541Y-128663700D01*
X63992438Y-128663700D01*
X65532457Y-130203719D01*
X65549957Y-130225043D01*
X65635046Y-130294873D01*
X65732122Y-130346761D01*
X65837456Y-130378714D01*
X65919556Y-130386800D01*
X65919557Y-130386800D01*
X65946999Y-130389503D01*
X65974441Y-130386800D01*
X76225059Y-130386800D01*
X76256280Y-130445210D01*
X76394440Y-130613560D01*
X76562790Y-130751720D01*
X76754858Y-130854383D01*
X76963265Y-130917602D01*
X77125692Y-130933600D01*
X78034308Y-130933600D01*
X78196735Y-130917602D01*
X78405142Y-130854383D01*
X78597210Y-130751720D01*
X78765560Y-130613560D01*
X78903720Y-130445210D01*
X79006383Y-130253142D01*
X79069602Y-130044735D01*
X79090949Y-129828000D01*
X79069602Y-129611265D01*
X79006383Y-129402858D01*
X78903720Y-129210790D01*
X78765560Y-129042440D01*
X78597210Y-128904280D01*
X78405142Y-128801617D01*
X78196735Y-128738398D01*
X78138800Y-128732692D01*
X78138800Y-127375462D01*
X79888184Y-125626078D01*
X86857400Y-125626078D01*
X86857400Y-125774918D01*
X86886437Y-125920898D01*
X86943396Y-126058409D01*
X87026087Y-126182165D01*
X87131333Y-126287411D01*
X87255089Y-126370102D01*
X87392600Y-126427061D01*
X87538580Y-126456098D01*
X87687420Y-126456098D01*
X87833400Y-126427061D01*
X87970911Y-126370102D01*
X88094667Y-126287411D01*
X88199913Y-126182165D01*
X88282604Y-126058409D01*
X88326646Y-125952080D01*
X107951400Y-125952080D01*
X107951400Y-126100920D01*
X107980437Y-126246900D01*
X108037396Y-126384411D01*
X108120087Y-126508167D01*
X108225333Y-126613413D01*
X108349089Y-126696104D01*
X108486600Y-126753063D01*
X108632580Y-126782100D01*
X108781420Y-126782100D01*
X108927400Y-126753063D01*
X109064911Y-126696104D01*
X109188667Y-126613413D01*
X109257000Y-126545080D01*
X109325333Y-126613413D01*
X109449089Y-126696104D01*
X109586600Y-126753063D01*
X109732580Y-126782100D01*
X109881420Y-126782100D01*
X110027400Y-126753063D01*
X110164911Y-126696104D01*
X110288667Y-126613413D01*
X110357000Y-126545080D01*
X110425333Y-126613413D01*
X110549089Y-126696104D01*
X110686600Y-126753063D01*
X110832580Y-126782100D01*
X110981420Y-126782100D01*
X111127400Y-126753063D01*
X111264911Y-126696104D01*
X111388667Y-126613413D01*
X111493913Y-126508167D01*
X111576604Y-126384411D01*
X111633563Y-126246900D01*
X111662600Y-126100920D01*
X111662600Y-125952080D01*
X111633563Y-125806100D01*
X111576604Y-125668589D01*
X111493913Y-125544833D01*
X111388667Y-125439587D01*
X111264911Y-125356896D01*
X111127400Y-125299937D01*
X110981420Y-125270900D01*
X110832580Y-125270900D01*
X110686600Y-125299937D01*
X110549089Y-125356896D01*
X110425333Y-125439587D01*
X110357000Y-125507920D01*
X110288667Y-125439587D01*
X110164911Y-125356896D01*
X110027400Y-125299937D01*
X109881420Y-125270900D01*
X109732580Y-125270900D01*
X109586600Y-125299937D01*
X109449089Y-125356896D01*
X109325333Y-125439587D01*
X109257000Y-125507920D01*
X109188667Y-125439587D01*
X109064911Y-125356896D01*
X108927400Y-125299937D01*
X108781420Y-125270900D01*
X108632580Y-125270900D01*
X108486600Y-125299937D01*
X108349089Y-125356896D01*
X108225333Y-125439587D01*
X108120087Y-125544833D01*
X108037396Y-125668589D01*
X107980437Y-125806100D01*
X107951400Y-125952080D01*
X88326646Y-125952080D01*
X88339563Y-125920898D01*
X88368600Y-125774918D01*
X88368600Y-125626078D01*
X88339563Y-125480098D01*
X88282604Y-125342587D01*
X88199913Y-125218831D01*
X88094667Y-125113585D01*
X87970911Y-125030894D01*
X87833400Y-124973935D01*
X87687420Y-124944898D01*
X87538580Y-124944898D01*
X87392600Y-124973935D01*
X87255089Y-125030894D01*
X87131333Y-125113585D01*
X87026087Y-125218831D01*
X86943396Y-125342587D01*
X86886437Y-125480098D01*
X86857400Y-125626078D01*
X79888184Y-125626078D01*
X82453025Y-123061238D01*
X82474343Y-123043743D01*
X82511391Y-122998600D01*
X82544173Y-122958655D01*
X82596061Y-122861578D01*
X82628014Y-122756245D01*
X82638803Y-122646700D01*
X82636100Y-122619256D01*
X82636100Y-120972280D01*
X82664213Y-120944167D01*
X82746904Y-120820411D01*
X82803863Y-120682900D01*
X82832900Y-120536920D01*
X82832900Y-120388080D01*
X82803863Y-120242100D01*
X82746904Y-120104589D01*
X82664213Y-119980833D01*
X82558967Y-119875587D01*
X82435211Y-119792896D01*
X82297700Y-119735937D01*
X82151720Y-119706900D01*
X82002880Y-119706900D01*
X81856900Y-119735937D01*
X81719389Y-119792896D01*
X81595633Y-119875587D01*
X81490387Y-119980833D01*
X81407696Y-120104589D01*
X81350737Y-120242100D01*
X81321700Y-120388080D01*
X81321700Y-120536920D01*
X81350737Y-120682900D01*
X81407696Y-120820411D01*
X81490387Y-120944167D01*
X81518501Y-120972281D01*
X81518500Y-122415237D01*
X77204276Y-126729462D01*
X77182958Y-126746957D01*
X77165463Y-126768275D01*
X77113128Y-126832046D01*
X77061239Y-126929123D01*
X77029287Y-127034456D01*
X77018497Y-127144000D01*
X77021201Y-127171452D01*
X77021200Y-128732692D01*
X76963265Y-128738398D01*
X76754858Y-128801617D01*
X76562790Y-128904280D01*
X76394440Y-129042440D01*
X76256280Y-129210790D01*
X76225059Y-129269200D01*
X66178462Y-129269200D01*
X64638443Y-127729181D01*
X64620943Y-127707857D01*
X64535854Y-127638027D01*
X64438778Y-127586139D01*
X64333444Y-127554186D01*
X64251344Y-127546100D01*
X64251342Y-127546100D01*
X64223900Y-127543397D01*
X64196458Y-127546100D01*
X59451562Y-127546100D01*
X59167108Y-127261646D01*
X59180477Y-127241638D01*
X59237436Y-127104127D01*
X59266473Y-126958147D01*
X59266473Y-126809307D01*
X59237436Y-126663327D01*
X59180477Y-126525816D01*
X59097786Y-126402060D01*
X59069673Y-126373947D01*
X59069673Y-125287280D01*
X69208700Y-125287280D01*
X69208700Y-125436120D01*
X69237737Y-125582100D01*
X69294696Y-125719611D01*
X69377387Y-125843367D01*
X69482633Y-125948613D01*
X69606389Y-126031304D01*
X69743900Y-126088263D01*
X69889880Y-126117300D01*
X70038720Y-126117300D01*
X70184700Y-126088263D01*
X70322211Y-126031304D01*
X70445967Y-125948613D01*
X70551213Y-125843367D01*
X70633904Y-125719611D01*
X70690863Y-125582100D01*
X70719900Y-125436120D01*
X70719900Y-125287280D01*
X70690863Y-125141300D01*
X70633904Y-125003789D01*
X70551213Y-124880033D01*
X70445967Y-124774787D01*
X70322211Y-124692096D01*
X70184700Y-124635137D01*
X70038720Y-124606100D01*
X69889880Y-124606100D01*
X69743900Y-124635137D01*
X69606389Y-124692096D01*
X69482633Y-124774787D01*
X69377387Y-124880033D01*
X69294696Y-125003789D01*
X69237737Y-125141300D01*
X69208700Y-125287280D01*
X59069673Y-125287280D01*
X59069673Y-123483000D01*
X74865680Y-123483000D01*
X74865680Y-125183000D01*
X74872546Y-125252710D01*
X74892879Y-125319740D01*
X74925899Y-125381516D01*
X74970337Y-125435663D01*
X75024484Y-125480101D01*
X75086260Y-125513121D01*
X75153290Y-125533454D01*
X75223000Y-125540320D01*
X76923000Y-125540320D01*
X76992710Y-125533454D01*
X77059740Y-125513121D01*
X77121516Y-125480101D01*
X77175663Y-125435663D01*
X77220101Y-125381516D01*
X77253121Y-125319740D01*
X77273454Y-125252710D01*
X77280320Y-125183000D01*
X77280320Y-123483000D01*
X77273454Y-123413290D01*
X77253121Y-123346260D01*
X77220101Y-123284484D01*
X77175663Y-123230337D01*
X77121516Y-123185899D01*
X77059740Y-123152879D01*
X76992710Y-123132546D01*
X76923000Y-123125680D01*
X75223000Y-123125680D01*
X75153290Y-123132546D01*
X75086260Y-123152879D01*
X75024484Y-123185899D01*
X74970337Y-123230337D01*
X74925899Y-123284484D01*
X74892879Y-123346260D01*
X74872546Y-123413290D01*
X74865680Y-123483000D01*
X59069673Y-123483000D01*
X59069673Y-121674259D01*
X74867400Y-121674259D01*
X74867400Y-121911741D01*
X74913731Y-122144660D01*
X75004611Y-122364066D01*
X75136550Y-122561525D01*
X75304475Y-122729450D01*
X75501934Y-122861389D01*
X75721340Y-122952269D01*
X75954259Y-122998600D01*
X76191741Y-122998600D01*
X76424660Y-122952269D01*
X76644066Y-122861389D01*
X76841525Y-122729450D01*
X77009450Y-122561525D01*
X77141389Y-122364066D01*
X77232269Y-122144660D01*
X77278600Y-121911741D01*
X77278600Y-121674259D01*
X77232269Y-121441340D01*
X77141389Y-121221934D01*
X77009450Y-121024475D01*
X76841525Y-120856550D01*
X76644066Y-120724611D01*
X76424660Y-120633731D01*
X76191741Y-120587400D01*
X75954259Y-120587400D01*
X75721340Y-120633731D01*
X75501934Y-120724611D01*
X75304475Y-120856550D01*
X75136550Y-121024475D01*
X75004611Y-121221934D01*
X74913731Y-121441340D01*
X74867400Y-121674259D01*
X59069673Y-121674259D01*
X59069673Y-120300770D01*
X59097786Y-120272657D01*
X59180477Y-120148901D01*
X59237436Y-120011390D01*
X59266473Y-119865410D01*
X59266473Y-119716570D01*
X59260508Y-119686580D01*
X59315400Y-119686580D01*
X59315400Y-119835420D01*
X59344437Y-119981400D01*
X59401396Y-120118911D01*
X59484087Y-120242667D01*
X59589333Y-120347913D01*
X59713089Y-120430604D01*
X59850600Y-120487563D01*
X59996580Y-120516600D01*
X60145420Y-120516600D01*
X60291400Y-120487563D01*
X60428911Y-120430604D01*
X60552667Y-120347913D01*
X60656980Y-120243600D01*
X62533020Y-120243600D01*
X62637333Y-120347913D01*
X62761089Y-120430604D01*
X62898600Y-120487563D01*
X63044580Y-120516600D01*
X63193420Y-120516600D01*
X63339400Y-120487563D01*
X63476911Y-120430604D01*
X63600667Y-120347913D01*
X63705913Y-120242667D01*
X63788604Y-120118911D01*
X63845563Y-119981400D01*
X63874600Y-119835420D01*
X63874600Y-119686580D01*
X63845563Y-119540600D01*
X63788604Y-119403089D01*
X63705913Y-119279333D01*
X63600667Y-119174087D01*
X63476911Y-119091396D01*
X63339400Y-119034437D01*
X63193420Y-119005400D01*
X63044580Y-119005400D01*
X62898600Y-119034437D01*
X62761089Y-119091396D01*
X62637333Y-119174087D01*
X62533020Y-119278400D01*
X60656980Y-119278400D01*
X60552667Y-119174087D01*
X60428911Y-119091396D01*
X60291400Y-119034437D01*
X60145420Y-119005400D01*
X59996580Y-119005400D01*
X59850600Y-119034437D01*
X59713089Y-119091396D01*
X59589333Y-119174087D01*
X59484087Y-119279333D01*
X59401396Y-119403089D01*
X59344437Y-119540600D01*
X59315400Y-119686580D01*
X59260508Y-119686580D01*
X59237436Y-119570590D01*
X59180477Y-119433079D01*
X59097786Y-119309323D01*
X58992540Y-119204077D01*
X58868784Y-119121386D01*
X58731273Y-119064427D01*
X58585293Y-119035390D01*
X58436453Y-119035390D01*
X58290473Y-119064427D01*
X58152962Y-119121386D01*
X58029206Y-119204077D01*
X57923960Y-119309323D01*
X57841269Y-119433079D01*
X57784310Y-119570590D01*
X57755273Y-119716570D01*
X57755273Y-119865410D01*
X57784310Y-120011390D01*
X57841269Y-120148901D01*
X57923960Y-120272657D01*
X57952074Y-120300771D01*
X57952074Y-123172752D01*
X57913934Y-123101398D01*
X57803891Y-122967309D01*
X57669802Y-122857266D01*
X57516821Y-122775496D01*
X57350828Y-122725142D01*
X57221453Y-122712400D01*
X56934947Y-122712400D01*
X56805572Y-122725142D01*
X56639579Y-122775496D01*
X56486598Y-122857266D01*
X56352509Y-122967309D01*
X56242466Y-123101398D01*
X56160696Y-123254379D01*
X56110342Y-123420372D01*
X56093340Y-123593000D01*
X55179368Y-123593000D01*
X55096413Y-123548660D01*
X54978169Y-123512791D01*
X54855200Y-123500680D01*
X53501200Y-123500680D01*
X53378231Y-123512791D01*
X53259987Y-123548660D01*
X53151013Y-123606908D01*
X53137600Y-123617916D01*
X53137600Y-118718084D01*
X53151013Y-118729092D01*
X53259987Y-118787340D01*
X53378231Y-118823209D01*
X53501200Y-118835320D01*
X54855200Y-118835320D01*
X54978169Y-118823209D01*
X55096413Y-118787340D01*
X55179367Y-118743000D01*
X56093340Y-118743000D01*
X56110342Y-118915628D01*
X56160696Y-119081621D01*
X56242466Y-119234602D01*
X56352509Y-119368691D01*
X56486598Y-119478734D01*
X56639579Y-119560504D01*
X56805572Y-119610858D01*
X56934947Y-119623600D01*
X57221453Y-119623600D01*
X57350828Y-119610858D01*
X57516821Y-119560504D01*
X57669802Y-119478734D01*
X57803891Y-119368691D01*
X57913934Y-119234602D01*
X57995704Y-119081621D01*
X58046058Y-118915628D01*
X58063060Y-118743000D01*
X58046058Y-118570372D01*
X57995704Y-118404379D01*
X57913934Y-118251398D01*
X57803891Y-118117309D01*
X57669802Y-118007266D01*
X57516821Y-117925496D01*
X57350828Y-117875142D01*
X57221453Y-117862400D01*
X56934947Y-117862400D01*
X56805572Y-117875142D01*
X56639579Y-117925496D01*
X56486598Y-118007266D01*
X56352509Y-118117309D01*
X56242466Y-118251398D01*
X56160696Y-118404379D01*
X56110342Y-118570372D01*
X56093340Y-118743000D01*
X55179367Y-118743000D01*
X55205387Y-118729092D01*
X55300904Y-118650704D01*
X55379292Y-118555187D01*
X55437540Y-118446213D01*
X55473409Y-118327969D01*
X55485520Y-118205000D01*
X55485520Y-117146580D01*
X64014400Y-117146580D01*
X64014400Y-117295420D01*
X64043437Y-117441400D01*
X64100396Y-117578911D01*
X64183087Y-117702667D01*
X64288333Y-117807913D01*
X64412089Y-117890604D01*
X64549600Y-117947563D01*
X64695580Y-117976600D01*
X64844420Y-117976600D01*
X64990400Y-117947563D01*
X65127911Y-117890604D01*
X65251667Y-117807913D01*
X65356913Y-117702667D01*
X65439604Y-117578911D01*
X65496563Y-117441400D01*
X65525600Y-117295420D01*
X65525600Y-117146580D01*
X65496563Y-117000600D01*
X65439604Y-116863089D01*
X65356913Y-116739333D01*
X65251667Y-116634087D01*
X65127911Y-116551396D01*
X64990400Y-116494437D01*
X64844420Y-116465400D01*
X64695580Y-116465400D01*
X64549600Y-116494437D01*
X64412089Y-116551396D01*
X64288333Y-116634087D01*
X64183087Y-116739333D01*
X64100396Y-116863089D01*
X64043437Y-117000600D01*
X64014400Y-117146580D01*
X55485520Y-117146580D01*
X55485520Y-116931000D01*
X55473409Y-116808031D01*
X55437540Y-116689787D01*
X55379292Y-116580813D01*
X55300904Y-116485296D01*
X55205387Y-116406908D01*
X55096413Y-116348660D01*
X54978169Y-116312791D01*
X54855200Y-116300680D01*
X53501200Y-116300680D01*
X53378231Y-116312791D01*
X53259987Y-116348660D01*
X53151013Y-116406908D01*
X53137600Y-116417916D01*
X53137600Y-114181259D01*
X59500400Y-114181259D01*
X59500400Y-114418741D01*
X59546731Y-114651660D01*
X59637611Y-114871066D01*
X59769550Y-115068525D01*
X59937475Y-115236450D01*
X60134934Y-115368389D01*
X60354340Y-115459269D01*
X60587259Y-115505600D01*
X60824741Y-115505600D01*
X61057660Y-115459269D01*
X61277066Y-115368389D01*
X61474525Y-115236450D01*
X61642450Y-115068525D01*
X61774389Y-114871066D01*
X61865269Y-114651660D01*
X61911600Y-114418741D01*
X61911600Y-114181259D01*
X61865269Y-113948340D01*
X61774389Y-113728934D01*
X61642450Y-113531475D01*
X61560975Y-113450000D01*
X62038680Y-113450000D01*
X62038680Y-115150000D01*
X62045546Y-115219710D01*
X62065879Y-115286740D01*
X62098899Y-115348516D01*
X62143337Y-115402663D01*
X62197484Y-115447101D01*
X62259260Y-115480121D01*
X62326290Y-115500454D01*
X62396000Y-115507320D01*
X64096000Y-115507320D01*
X64165710Y-115500454D01*
X64232740Y-115480121D01*
X64294516Y-115447101D01*
X64348663Y-115402663D01*
X64393101Y-115348516D01*
X64426121Y-115286740D01*
X64446454Y-115219710D01*
X64453320Y-115150000D01*
X64453320Y-113450000D01*
X64446454Y-113380290D01*
X64426121Y-113313260D01*
X64393101Y-113251484D01*
X64348663Y-113197337D01*
X64294516Y-113152899D01*
X64232740Y-113119879D01*
X64165710Y-113099546D01*
X64096000Y-113092680D01*
X62396000Y-113092680D01*
X62326290Y-113099546D01*
X62259260Y-113119879D01*
X62197484Y-113152899D01*
X62143337Y-113197337D01*
X62098899Y-113251484D01*
X62065879Y-113313260D01*
X62045546Y-113380290D01*
X62038680Y-113450000D01*
X61560975Y-113450000D01*
X61474525Y-113363550D01*
X61277066Y-113231611D01*
X61057660Y-113140731D01*
X60824741Y-113094400D01*
X60587259Y-113094400D01*
X60354340Y-113140731D01*
X60134934Y-113231611D01*
X59937475Y-113363550D01*
X59769550Y-113531475D01*
X59637611Y-113728934D01*
X59546731Y-113948340D01*
X59500400Y-114181259D01*
X53137600Y-114181259D01*
X53137600Y-111981591D01*
X59469296Y-111981591D01*
X59478634Y-112028544D01*
X59554608Y-112262831D01*
X59674829Y-112477795D01*
X59834677Y-112665174D01*
X60028010Y-112817768D01*
X60247398Y-112929712D01*
X60484409Y-112996705D01*
X60680600Y-112914544D01*
X60680600Y-111785400D01*
X60731400Y-111785400D01*
X60731400Y-112914544D01*
X60927591Y-112996705D01*
X61164602Y-112929712D01*
X61383990Y-112817768D01*
X61577323Y-112665174D01*
X61737171Y-112477795D01*
X61857392Y-112262831D01*
X61933366Y-112028544D01*
X61942704Y-111981591D01*
X61860521Y-111785400D01*
X60731400Y-111785400D01*
X60680600Y-111785400D01*
X59551479Y-111785400D01*
X59469296Y-111981591D01*
X53137600Y-111981591D01*
X53137600Y-111538409D01*
X59469296Y-111538409D01*
X59551479Y-111734600D01*
X60680600Y-111734600D01*
X60680600Y-110605456D01*
X60731400Y-110605456D01*
X60731400Y-111734600D01*
X61860521Y-111734600D01*
X61899620Y-111641259D01*
X62040400Y-111641259D01*
X62040400Y-111878741D01*
X62086731Y-112111660D01*
X62177611Y-112331066D01*
X62309550Y-112528525D01*
X62477475Y-112696450D01*
X62674934Y-112828389D01*
X62894340Y-112919269D01*
X63127259Y-112965600D01*
X63364741Y-112965600D01*
X63597660Y-112919269D01*
X63817066Y-112828389D01*
X64014525Y-112696450D01*
X64182450Y-112528525D01*
X64287451Y-112371380D01*
X70745400Y-112371380D01*
X70745400Y-112520220D01*
X70774437Y-112666200D01*
X70831396Y-112803711D01*
X70914087Y-112927467D01*
X71019333Y-113032713D01*
X71143089Y-113115404D01*
X71280600Y-113172363D01*
X71426580Y-113201400D01*
X71575420Y-113201400D01*
X71721400Y-113172363D01*
X71858911Y-113115404D01*
X71982667Y-113032713D01*
X72087913Y-112927467D01*
X72170604Y-112803711D01*
X72227563Y-112666200D01*
X72256600Y-112520220D01*
X72256600Y-112371380D01*
X72227563Y-112225400D01*
X72170604Y-112087889D01*
X72087913Y-111964133D01*
X72016860Y-111893080D01*
X76354700Y-111893080D01*
X76354700Y-112041920D01*
X76383737Y-112187900D01*
X76440696Y-112325411D01*
X76523387Y-112449167D01*
X76628633Y-112554413D01*
X76752389Y-112637104D01*
X76889900Y-112694063D01*
X77035880Y-112723100D01*
X77184720Y-112723100D01*
X77330700Y-112694063D01*
X77468211Y-112637104D01*
X77591967Y-112554413D01*
X77697213Y-112449167D01*
X77779904Y-112325411D01*
X77836863Y-112187900D01*
X77865900Y-112041920D01*
X77865900Y-111893080D01*
X77853270Y-111829580D01*
X81752200Y-111829580D01*
X81752200Y-111978420D01*
X81781237Y-112124400D01*
X81838196Y-112261911D01*
X81920887Y-112385667D01*
X82026133Y-112490913D01*
X82149889Y-112573604D01*
X82287400Y-112630563D01*
X82433380Y-112659600D01*
X82582220Y-112659600D01*
X82728200Y-112630563D01*
X82865711Y-112573604D01*
X82989467Y-112490913D01*
X83094713Y-112385667D01*
X83177404Y-112261911D01*
X83234363Y-112124400D01*
X83263400Y-111978420D01*
X83263400Y-111829580D01*
X83234363Y-111683600D01*
X83177404Y-111546089D01*
X83094713Y-111422333D01*
X82989467Y-111317087D01*
X82865711Y-111234396D01*
X82728200Y-111177437D01*
X82582220Y-111148400D01*
X82433380Y-111148400D01*
X82287400Y-111177437D01*
X82149889Y-111234396D01*
X82026133Y-111317087D01*
X81920887Y-111422333D01*
X81838196Y-111546089D01*
X81781237Y-111683600D01*
X81752200Y-111829580D01*
X77853270Y-111829580D01*
X77836863Y-111747100D01*
X77779904Y-111609589D01*
X77697213Y-111485833D01*
X77591967Y-111380587D01*
X77468211Y-111297896D01*
X77330700Y-111240937D01*
X77184720Y-111211900D01*
X77035880Y-111211900D01*
X76889900Y-111240937D01*
X76752389Y-111297896D01*
X76628633Y-111380587D01*
X76523387Y-111485833D01*
X76440696Y-111609589D01*
X76383737Y-111747100D01*
X76354700Y-111893080D01*
X72016860Y-111893080D01*
X71982667Y-111858887D01*
X71858911Y-111776196D01*
X71721400Y-111719237D01*
X71575420Y-111690200D01*
X71426580Y-111690200D01*
X71280600Y-111719237D01*
X71143089Y-111776196D01*
X71019333Y-111858887D01*
X70914087Y-111964133D01*
X70831396Y-112087889D01*
X70774437Y-112225400D01*
X70745400Y-112371380D01*
X64287451Y-112371380D01*
X64314389Y-112331066D01*
X64405269Y-112111660D01*
X64451600Y-111878741D01*
X64451600Y-111641259D01*
X64405269Y-111408340D01*
X64314389Y-111188934D01*
X64182450Y-110991475D01*
X64014525Y-110823550D01*
X63817066Y-110691611D01*
X63597660Y-110600731D01*
X63364741Y-110554400D01*
X63127259Y-110554400D01*
X62894340Y-110600731D01*
X62674934Y-110691611D01*
X62477475Y-110823550D01*
X62309550Y-110991475D01*
X62177611Y-111188934D01*
X62086731Y-111408340D01*
X62040400Y-111641259D01*
X61899620Y-111641259D01*
X61942704Y-111538409D01*
X61933366Y-111491456D01*
X61857392Y-111257169D01*
X61737171Y-111042205D01*
X61577323Y-110854826D01*
X61383990Y-110702232D01*
X61164602Y-110590288D01*
X60927591Y-110523295D01*
X60731400Y-110605456D01*
X60680600Y-110605456D01*
X60484409Y-110523295D01*
X60247398Y-110590288D01*
X60028010Y-110702232D01*
X59834677Y-110854826D01*
X59674829Y-111042205D01*
X59554608Y-111257169D01*
X59478634Y-111491456D01*
X59469296Y-111538409D01*
X53137600Y-111538409D01*
X53137600Y-109222862D01*
X53876400Y-109222862D01*
X53876400Y-109539138D01*
X53938102Y-109849336D01*
X54059136Y-110141537D01*
X54234849Y-110404510D01*
X54458490Y-110628151D01*
X54721463Y-110803864D01*
X55013664Y-110924898D01*
X55323862Y-110986600D01*
X55640138Y-110986600D01*
X55950336Y-110924898D01*
X56242537Y-110803864D01*
X56505510Y-110628151D01*
X56729151Y-110404510D01*
X56904864Y-110141537D01*
X56942125Y-110051580D01*
X76354700Y-110051580D01*
X76354700Y-110200420D01*
X76383737Y-110346400D01*
X76440696Y-110483911D01*
X76523387Y-110607667D01*
X76628633Y-110712913D01*
X76752389Y-110795604D01*
X76889900Y-110852563D01*
X77035880Y-110881600D01*
X77184720Y-110881600D01*
X77330700Y-110852563D01*
X77468211Y-110795604D01*
X77591967Y-110712913D01*
X77697213Y-110607667D01*
X77779904Y-110483911D01*
X77836863Y-110346400D01*
X77865900Y-110200420D01*
X77865900Y-110051580D01*
X78005700Y-110051580D01*
X78005700Y-110200420D01*
X78034737Y-110346400D01*
X78091696Y-110483911D01*
X78174387Y-110607667D01*
X78279633Y-110712913D01*
X78403389Y-110795604D01*
X78540900Y-110852563D01*
X78686880Y-110881600D01*
X78835720Y-110881600D01*
X78981700Y-110852563D01*
X79119211Y-110795604D01*
X79242967Y-110712913D01*
X79348213Y-110607667D01*
X79430904Y-110483911D01*
X79487863Y-110346400D01*
X79516900Y-110200420D01*
X79516900Y-110051580D01*
X79847200Y-110051580D01*
X79847200Y-110200420D01*
X79876237Y-110346400D01*
X79933196Y-110483911D01*
X80015887Y-110607667D01*
X80121133Y-110712913D01*
X80244889Y-110795604D01*
X80382400Y-110852563D01*
X80528380Y-110881600D01*
X80677220Y-110881600D01*
X80823200Y-110852563D01*
X80960711Y-110795604D01*
X81084467Y-110712913D01*
X81189713Y-110607667D01*
X81272404Y-110483911D01*
X81329363Y-110346400D01*
X81358400Y-110200420D01*
X81358400Y-110051580D01*
X81752200Y-110051580D01*
X81752200Y-110200420D01*
X81781237Y-110346400D01*
X81838196Y-110483911D01*
X81920887Y-110607667D01*
X82026133Y-110712913D01*
X82149889Y-110795604D01*
X82287400Y-110852563D01*
X82433380Y-110881600D01*
X82582220Y-110881600D01*
X82728200Y-110852563D01*
X82865711Y-110795604D01*
X82989467Y-110712913D01*
X83094713Y-110607667D01*
X83177404Y-110483911D01*
X83234363Y-110346400D01*
X83263400Y-110200420D01*
X83263400Y-110051580D01*
X83234363Y-109905600D01*
X83177404Y-109768089D01*
X83094713Y-109644333D01*
X82989467Y-109539087D01*
X82865711Y-109456396D01*
X82728200Y-109399437D01*
X82582220Y-109370400D01*
X82433380Y-109370400D01*
X82287400Y-109399437D01*
X82149889Y-109456396D01*
X82026133Y-109539087D01*
X81920887Y-109644333D01*
X81838196Y-109768089D01*
X81781237Y-109905600D01*
X81752200Y-110051580D01*
X81358400Y-110051580D01*
X81329363Y-109905600D01*
X81272404Y-109768089D01*
X81189713Y-109644333D01*
X81084467Y-109539087D01*
X80960711Y-109456396D01*
X80823200Y-109399437D01*
X80677220Y-109370400D01*
X80528380Y-109370400D01*
X80382400Y-109399437D01*
X80244889Y-109456396D01*
X80121133Y-109539087D01*
X80015887Y-109644333D01*
X79933196Y-109768089D01*
X79876237Y-109905600D01*
X79847200Y-110051580D01*
X79516900Y-110051580D01*
X79487863Y-109905600D01*
X79430904Y-109768089D01*
X79348213Y-109644333D01*
X79242967Y-109539087D01*
X79119211Y-109456396D01*
X78981700Y-109399437D01*
X78835720Y-109370400D01*
X78686880Y-109370400D01*
X78540900Y-109399437D01*
X78403389Y-109456396D01*
X78279633Y-109539087D01*
X78174387Y-109644333D01*
X78091696Y-109768089D01*
X78034737Y-109905600D01*
X78005700Y-110051580D01*
X77865900Y-110051580D01*
X77836863Y-109905600D01*
X77779904Y-109768089D01*
X77697213Y-109644333D01*
X77591967Y-109539087D01*
X77468211Y-109456396D01*
X77330700Y-109399437D01*
X77184720Y-109370400D01*
X77035880Y-109370400D01*
X76889900Y-109399437D01*
X76752389Y-109456396D01*
X76628633Y-109539087D01*
X76523387Y-109644333D01*
X76440696Y-109768089D01*
X76383737Y-109905600D01*
X76354700Y-110051580D01*
X56942125Y-110051580D01*
X57025898Y-109849336D01*
X57087600Y-109539138D01*
X57087600Y-109222862D01*
X57025898Y-108912664D01*
X56904864Y-108620463D01*
X56729151Y-108357490D01*
X56505510Y-108133849D01*
X56242537Y-107958136D01*
X55950336Y-107837102D01*
X55640138Y-107775400D01*
X55323862Y-107775400D01*
X55013664Y-107837102D01*
X54721463Y-107958136D01*
X54458490Y-108133849D01*
X54234849Y-108357490D01*
X54059136Y-108620463D01*
X53938102Y-108912664D01*
X53876400Y-109222862D01*
X53137600Y-109222862D01*
X53137600Y-107187832D01*
X53141305Y-107150043D01*
X53146520Y-107132772D01*
X53154994Y-107116834D01*
X53166394Y-107102856D01*
X53180303Y-107091349D01*
X53196173Y-107082768D01*
X53213410Y-107077433D01*
X53249879Y-107073600D01*
X89330400Y-107073600D01*
X89330400Y-115168000D01*
G04 #@! TA.AperFunction,Conductor*
D25*
G36*
X89330400Y-115168000D02*
G01*
X89332352Y-115187821D01*
X89338134Y-115206881D01*
X89347523Y-115224446D01*
X89360158Y-115239842D01*
X89375554Y-115252477D01*
X89393119Y-115261866D01*
X89412179Y-115267648D01*
X89432000Y-115269600D01*
X100332000Y-115269600D01*
X100351821Y-115267648D01*
X100370881Y-115261866D01*
X100388446Y-115252477D01*
X100403842Y-115239842D01*
X100416477Y-115224446D01*
X100425866Y-115206881D01*
X100431648Y-115187821D01*
X100433600Y-115168000D01*
X100433600Y-109349862D01*
X111407400Y-109349862D01*
X111407400Y-109666138D01*
X111469102Y-109976336D01*
X111590136Y-110268537D01*
X111765849Y-110531510D01*
X111989490Y-110755151D01*
X112252463Y-110930864D01*
X112544664Y-111051898D01*
X112854862Y-111113600D01*
X113171138Y-111113600D01*
X113481336Y-111051898D01*
X113773537Y-110930864D01*
X114036510Y-110755151D01*
X114260151Y-110531510D01*
X114435864Y-110268537D01*
X114556898Y-109976336D01*
X114618600Y-109666138D01*
X114618600Y-109349862D01*
X114556898Y-109039664D01*
X114435864Y-108747463D01*
X114260151Y-108484490D01*
X114036510Y-108260849D01*
X113773537Y-108085136D01*
X113481336Y-107964102D01*
X113171138Y-107902400D01*
X112854862Y-107902400D01*
X112544664Y-107964102D01*
X112252463Y-108085136D01*
X111989490Y-108260849D01*
X111765849Y-108484490D01*
X111590136Y-108747463D01*
X111469102Y-109039664D01*
X111407400Y-109349862D01*
X100433600Y-109349862D01*
X100433600Y-107073600D01*
X115312168Y-107073600D01*
X115349957Y-107077305D01*
X115367228Y-107082520D01*
X115383166Y-107090994D01*
X115397144Y-107102394D01*
X115408651Y-107116303D01*
X115417232Y-107132173D01*
X115422567Y-107149410D01*
X115426401Y-107185888D01*
X115426400Y-149666400D01*
X104903850Y-149666400D01*
X104858429Y-149629125D01*
X104787967Y-149591462D01*
X104711511Y-149568269D01*
X104651921Y-149562400D01*
X104632000Y-149560438D01*
X104612079Y-149562400D01*
X87351921Y-149562400D01*
X87332000Y-149560438D01*
X87312079Y-149562400D01*
X87252489Y-149568269D01*
X87176033Y-149591462D01*
X87105571Y-149629125D01*
X87060150Y-149666400D01*
X81532000Y-149666400D01*
X81512179Y-149668352D01*
X81493119Y-149674134D01*
X81475554Y-149683523D01*
X81460158Y-149696158D01*
X81447523Y-149711554D01*
X81438134Y-149729119D01*
X81432352Y-149748179D01*
X81430400Y-149768000D01*
X81430400Y-156062400D01*
X53251832Y-156062400D01*
X53214043Y-156058695D01*
X53196772Y-156053480D01*
X53180834Y-156045006D01*
X53166856Y-156033606D01*
X53155348Y-156019695D01*
X53146769Y-156003829D01*
X53141433Y-155986590D01*
X53137600Y-155950122D01*
X53137600Y-153545862D01*
X53876400Y-153545862D01*
X53876400Y-153862138D01*
X53938102Y-154172336D01*
X54059136Y-154464537D01*
X54234849Y-154727510D01*
X54458490Y-154951151D01*
X54721463Y-155126864D01*
X55013664Y-155247898D01*
X55323862Y-155309600D01*
X55640138Y-155309600D01*
X55950336Y-155247898D01*
X56242537Y-155126864D01*
X56505510Y-154951151D01*
X56729151Y-154727510D01*
X56904864Y-154464537D01*
X57025898Y-154172336D01*
X57087600Y-153862138D01*
X57087600Y-153545862D01*
X57044913Y-153331259D01*
X73326400Y-153331259D01*
X73326400Y-153568741D01*
X73372731Y-153801660D01*
X73463611Y-154021066D01*
X73595550Y-154218525D01*
X73763475Y-154386450D01*
X73960934Y-154518389D01*
X74180340Y-154609269D01*
X74413259Y-154655600D01*
X74650741Y-154655600D01*
X74883660Y-154609269D01*
X75103066Y-154518389D01*
X75300525Y-154386450D01*
X75468450Y-154218525D01*
X75600389Y-154021066D01*
X75691269Y-153801660D01*
X75737600Y-153568741D01*
X75737600Y-153331259D01*
X75691269Y-153098340D01*
X75600389Y-152878934D01*
X75468450Y-152681475D01*
X75386975Y-152600000D01*
X75864680Y-152600000D01*
X75864680Y-154300000D01*
X75871546Y-154369710D01*
X75891879Y-154436740D01*
X75924899Y-154498516D01*
X75969337Y-154552663D01*
X76023484Y-154597101D01*
X76085260Y-154630121D01*
X76152290Y-154650454D01*
X76222000Y-154657320D01*
X77922000Y-154657320D01*
X77991710Y-154650454D01*
X78058740Y-154630121D01*
X78120516Y-154597101D01*
X78174663Y-154552663D01*
X78219101Y-154498516D01*
X78252121Y-154436740D01*
X78272454Y-154369710D01*
X78279320Y-154300000D01*
X78279320Y-152600000D01*
X78272454Y-152530290D01*
X78252121Y-152463260D01*
X78219101Y-152401484D01*
X78174663Y-152347337D01*
X78120516Y-152302899D01*
X78058740Y-152269879D01*
X77991710Y-152249546D01*
X77922000Y-152242680D01*
X76222000Y-152242680D01*
X76152290Y-152249546D01*
X76085260Y-152269879D01*
X76023484Y-152302899D01*
X75969337Y-152347337D01*
X75924899Y-152401484D01*
X75891879Y-152463260D01*
X75871546Y-152530290D01*
X75864680Y-152600000D01*
X75386975Y-152600000D01*
X75300525Y-152513550D01*
X75103066Y-152381611D01*
X74883660Y-152290731D01*
X74650741Y-152244400D01*
X74413259Y-152244400D01*
X74180340Y-152290731D01*
X73960934Y-152381611D01*
X73763475Y-152513550D01*
X73595550Y-152681475D01*
X73463611Y-152878934D01*
X73372731Y-153098340D01*
X73326400Y-153331259D01*
X57044913Y-153331259D01*
X57025898Y-153235664D01*
X56904864Y-152943463D01*
X56729151Y-152680490D01*
X56505510Y-152456849D01*
X56242537Y-152281136D01*
X55950336Y-152160102D01*
X55640138Y-152098400D01*
X55323862Y-152098400D01*
X55013664Y-152160102D01*
X54721463Y-152281136D01*
X54458490Y-152456849D01*
X54234849Y-152680490D01*
X54059136Y-152943463D01*
X53938102Y-153235664D01*
X53876400Y-153545862D01*
X53137600Y-153545862D01*
X53137600Y-151817580D01*
X67316400Y-151817580D01*
X67316400Y-151966420D01*
X67345437Y-152112400D01*
X67402396Y-152249911D01*
X67485087Y-152373667D01*
X67590333Y-152478913D01*
X67714089Y-152561604D01*
X67851600Y-152618563D01*
X67997580Y-152647600D01*
X68146420Y-152647600D01*
X68292400Y-152618563D01*
X68429911Y-152561604D01*
X68553667Y-152478913D01*
X68658913Y-152373667D01*
X68741604Y-152249911D01*
X68798563Y-152112400D01*
X68827600Y-151966420D01*
X68827600Y-151817580D01*
X68798563Y-151671600D01*
X68741604Y-151534089D01*
X68658913Y-151410333D01*
X68553667Y-151305087D01*
X68429911Y-151222396D01*
X68292400Y-151165437D01*
X68146420Y-151136400D01*
X67997580Y-151136400D01*
X67851600Y-151165437D01*
X67714089Y-151222396D01*
X67590333Y-151305087D01*
X67485087Y-151410333D01*
X67402396Y-151534089D01*
X67345437Y-151671600D01*
X67316400Y-151817580D01*
X53137600Y-151817580D01*
X53137600Y-151131591D01*
X73295296Y-151131591D01*
X73304634Y-151178544D01*
X73380608Y-151412831D01*
X73500829Y-151627795D01*
X73660677Y-151815174D01*
X73854010Y-151967768D01*
X74073398Y-152079712D01*
X74310409Y-152146705D01*
X74506600Y-152064544D01*
X74506600Y-150935400D01*
X74557400Y-150935400D01*
X74557400Y-152064544D01*
X74753591Y-152146705D01*
X74990602Y-152079712D01*
X75209990Y-151967768D01*
X75403323Y-151815174D01*
X75563171Y-151627795D01*
X75683392Y-151412831D01*
X75759366Y-151178544D01*
X75768704Y-151131591D01*
X75686521Y-150935400D01*
X74557400Y-150935400D01*
X74506600Y-150935400D01*
X73377479Y-150935400D01*
X73295296Y-151131591D01*
X53137600Y-151131591D01*
X53137600Y-150688409D01*
X73295296Y-150688409D01*
X73377479Y-150884600D01*
X74506600Y-150884600D01*
X74506600Y-149755456D01*
X74557400Y-149755456D01*
X74557400Y-150884600D01*
X75686521Y-150884600D01*
X75725620Y-150791259D01*
X75866400Y-150791259D01*
X75866400Y-151028741D01*
X75912731Y-151261660D01*
X76003611Y-151481066D01*
X76135550Y-151678525D01*
X76303475Y-151846450D01*
X76500934Y-151978389D01*
X76720340Y-152069269D01*
X76953259Y-152115600D01*
X77190741Y-152115600D01*
X77423660Y-152069269D01*
X77643066Y-151978389D01*
X77840525Y-151846450D01*
X78008450Y-151678525D01*
X78140389Y-151481066D01*
X78231269Y-151261660D01*
X78277600Y-151028741D01*
X78277600Y-150791259D01*
X78231269Y-150558340D01*
X78140389Y-150338934D01*
X78008450Y-150141475D01*
X77840525Y-149973550D01*
X77643066Y-149841611D01*
X77423660Y-149750731D01*
X77190741Y-149704400D01*
X76953259Y-149704400D01*
X76720340Y-149750731D01*
X76500934Y-149841611D01*
X76303475Y-149973550D01*
X76135550Y-150141475D01*
X76003611Y-150338934D01*
X75912731Y-150558340D01*
X75866400Y-150791259D01*
X75725620Y-150791259D01*
X75768704Y-150688409D01*
X75759366Y-150641456D01*
X75683392Y-150407169D01*
X75563171Y-150192205D01*
X75403323Y-150004826D01*
X75209990Y-149852232D01*
X74990602Y-149740288D01*
X74753591Y-149673295D01*
X74557400Y-149755456D01*
X74506600Y-149755456D01*
X74310409Y-149673295D01*
X74073398Y-149740288D01*
X73854010Y-149852232D01*
X73660677Y-150004826D01*
X73500829Y-150192205D01*
X73380608Y-150407169D01*
X73304634Y-150641456D01*
X73295296Y-150688409D01*
X53137600Y-150688409D01*
X53137600Y-144761428D01*
X54851900Y-144761428D01*
X54851900Y-145151572D01*
X54928014Y-145534220D01*
X55077315Y-145894666D01*
X55294068Y-146219059D01*
X55569941Y-146494932D01*
X55894334Y-146711685D01*
X56254780Y-146860986D01*
X56637428Y-146937100D01*
X57027572Y-146937100D01*
X57410220Y-146860986D01*
X57770666Y-146711685D01*
X57984937Y-146568513D01*
X58686900Y-146568513D01*
X58686900Y-146904487D01*
X58752445Y-147234005D01*
X58881017Y-147544405D01*
X59067674Y-147823757D01*
X59305243Y-148061326D01*
X59584595Y-148247983D01*
X59894995Y-148376555D01*
X60224513Y-148442100D01*
X60560487Y-148442100D01*
X60890005Y-148376555D01*
X61200405Y-148247983D01*
X61479757Y-148061326D01*
X61717326Y-147823757D01*
X61903983Y-147544405D01*
X62001457Y-147309080D01*
X70935900Y-147309080D01*
X70935900Y-147457920D01*
X70964937Y-147603900D01*
X71021896Y-147741411D01*
X71104587Y-147865167D01*
X71209833Y-147970413D01*
X71333589Y-148053104D01*
X71471100Y-148110063D01*
X71617080Y-148139100D01*
X71765920Y-148139100D01*
X71911900Y-148110063D01*
X72049411Y-148053104D01*
X72173167Y-147970413D01*
X72278413Y-147865167D01*
X72361104Y-147741411D01*
X72418063Y-147603900D01*
X72447100Y-147457920D01*
X72447100Y-147406580D01*
X78094400Y-147406580D01*
X78094400Y-147555420D01*
X78123437Y-147701400D01*
X78180396Y-147838911D01*
X78263087Y-147962667D01*
X78368333Y-148067913D01*
X78492089Y-148150604D01*
X78629600Y-148207563D01*
X78775580Y-148236600D01*
X78924420Y-148236600D01*
X79070400Y-148207563D01*
X79207911Y-148150604D01*
X79331667Y-148067913D01*
X79436913Y-147962667D01*
X79519604Y-147838911D01*
X79576563Y-147701400D01*
X79605600Y-147555420D01*
X79605600Y-147406580D01*
X79576563Y-147260600D01*
X79558123Y-147216080D01*
X81523400Y-147216080D01*
X81523400Y-147364920D01*
X81552437Y-147510900D01*
X81609396Y-147648411D01*
X81692087Y-147772167D01*
X81797333Y-147877413D01*
X81921089Y-147960104D01*
X82058600Y-148017063D01*
X82204580Y-148046100D01*
X82353420Y-148046100D01*
X82499400Y-148017063D01*
X82636911Y-147960104D01*
X82760667Y-147877413D01*
X82865913Y-147772167D01*
X82948604Y-147648411D01*
X83005563Y-147510900D01*
X83034600Y-147364920D01*
X83034600Y-147245580D01*
X105416400Y-147245580D01*
X105416400Y-147394420D01*
X105445437Y-147540400D01*
X105502396Y-147677911D01*
X105585087Y-147801667D01*
X105690333Y-147906913D01*
X105814089Y-147989604D01*
X105951600Y-148046563D01*
X106097580Y-148075600D01*
X106246420Y-148075600D01*
X106392400Y-148046563D01*
X106529911Y-147989604D01*
X106653667Y-147906913D01*
X106758913Y-147801667D01*
X106841604Y-147677911D01*
X106898563Y-147540400D01*
X106927600Y-147394420D01*
X106927600Y-147245580D01*
X106898563Y-147099600D01*
X106841604Y-146962089D01*
X106758913Y-146838333D01*
X106653667Y-146733087D01*
X106529911Y-146650396D01*
X106392400Y-146593437D01*
X106246420Y-146564400D01*
X106097580Y-146564400D01*
X105951600Y-146593437D01*
X105814089Y-146650396D01*
X105690333Y-146733087D01*
X105585087Y-146838333D01*
X105502396Y-146962089D01*
X105445437Y-147099600D01*
X105416400Y-147245580D01*
X83034600Y-147245580D01*
X83034600Y-147216080D01*
X83005563Y-147070100D01*
X82948604Y-146932589D01*
X82865913Y-146808833D01*
X82760667Y-146703587D01*
X82636911Y-146620896D01*
X82499400Y-146563937D01*
X82353420Y-146534900D01*
X82204580Y-146534900D01*
X82058600Y-146563937D01*
X81921089Y-146620896D01*
X81797333Y-146703587D01*
X81692087Y-146808833D01*
X81609396Y-146932589D01*
X81552437Y-147070100D01*
X81523400Y-147216080D01*
X79558123Y-147216080D01*
X79519604Y-147123089D01*
X79436913Y-146999333D01*
X79331667Y-146894087D01*
X79207911Y-146811396D01*
X79070400Y-146754437D01*
X78924420Y-146725400D01*
X78775580Y-146725400D01*
X78629600Y-146754437D01*
X78492089Y-146811396D01*
X78368333Y-146894087D01*
X78263087Y-146999333D01*
X78180396Y-147123089D01*
X78123437Y-147260600D01*
X78094400Y-147406580D01*
X72447100Y-147406580D01*
X72447100Y-147309080D01*
X72418063Y-147163100D01*
X72361104Y-147025589D01*
X72278413Y-146901833D01*
X72250300Y-146873720D01*
X72250300Y-146000980D01*
X110415900Y-146000980D01*
X110415900Y-146149820D01*
X110444937Y-146295800D01*
X110501896Y-146433311D01*
X110584587Y-146557067D01*
X110689833Y-146662313D01*
X110813589Y-146745004D01*
X110951100Y-146801963D01*
X111097080Y-146831000D01*
X111245920Y-146831000D01*
X111391900Y-146801963D01*
X111529411Y-146745004D01*
X111653167Y-146662313D01*
X111758413Y-146557067D01*
X111841104Y-146433311D01*
X111898063Y-146295800D01*
X111927100Y-146149820D01*
X111927100Y-146000980D01*
X111898063Y-145855000D01*
X111841104Y-145717489D01*
X111758413Y-145593733D01*
X111653167Y-145488487D01*
X111529411Y-145405796D01*
X111391900Y-145348837D01*
X111245920Y-145319800D01*
X111097080Y-145319800D01*
X110951100Y-145348837D01*
X110813589Y-145405796D01*
X110689833Y-145488487D01*
X110584587Y-145593733D01*
X110501896Y-145717489D01*
X110444937Y-145855000D01*
X110415900Y-146000980D01*
X72250300Y-146000980D01*
X72250300Y-143406086D01*
X78094400Y-143406086D01*
X78094400Y-143554926D01*
X78123437Y-143700906D01*
X78180396Y-143838417D01*
X78263087Y-143962173D01*
X78368333Y-144067419D01*
X78492089Y-144150110D01*
X78629600Y-144207069D01*
X78775580Y-144236106D01*
X78924420Y-144236106D01*
X79070400Y-144207069D01*
X79207911Y-144150110D01*
X79331667Y-144067419D01*
X79392006Y-144007080D01*
X79635400Y-144007080D01*
X79635400Y-144155920D01*
X79664437Y-144301900D01*
X79721396Y-144439411D01*
X79804087Y-144563167D01*
X79909333Y-144668413D01*
X80033089Y-144751104D01*
X80170600Y-144808063D01*
X80316580Y-144837100D01*
X80465420Y-144837100D01*
X80611400Y-144808063D01*
X80748911Y-144751104D01*
X80872667Y-144668413D01*
X80976980Y-144564100D01*
X87415795Y-144564100D01*
X87439500Y-144566435D01*
X87463205Y-144564100D01*
X87463207Y-144564100D01*
X87534106Y-144557117D01*
X87625077Y-144529522D01*
X87708915Y-144484709D01*
X87782401Y-144424401D01*
X87797517Y-144405982D01*
X93735400Y-138468100D01*
X101331520Y-138468100D01*
X101435833Y-138572413D01*
X101559589Y-138655104D01*
X101697100Y-138712063D01*
X101843080Y-138741100D01*
X101991920Y-138741100D01*
X102137900Y-138712063D01*
X102275411Y-138655104D01*
X102399167Y-138572413D01*
X102504413Y-138467167D01*
X102587104Y-138343411D01*
X102644063Y-138205900D01*
X102673100Y-138059920D01*
X102673100Y-137911080D01*
X102644063Y-137765100D01*
X102587104Y-137627589D01*
X102504413Y-137503833D01*
X102399167Y-137398587D01*
X102275411Y-137315896D01*
X102137900Y-137258937D01*
X101991920Y-137229900D01*
X101843080Y-137229900D01*
X101697100Y-137258937D01*
X101559589Y-137315896D01*
X101435833Y-137398587D01*
X101331520Y-137502900D01*
X93559207Y-137502900D01*
X93535500Y-137500565D01*
X93440893Y-137509883D01*
X93414092Y-137518013D01*
X93349923Y-137537478D01*
X93266085Y-137582291D01*
X93192599Y-137642599D01*
X93177488Y-137661012D01*
X87239601Y-143598900D01*
X80976980Y-143598900D01*
X80872667Y-143494587D01*
X80748911Y-143411896D01*
X80611400Y-143354937D01*
X80465420Y-143325900D01*
X80316580Y-143325900D01*
X80170600Y-143354937D01*
X80033089Y-143411896D01*
X79909333Y-143494587D01*
X79804087Y-143599833D01*
X79721396Y-143723589D01*
X79664437Y-143861100D01*
X79635400Y-144007080D01*
X79392006Y-144007080D01*
X79436913Y-143962173D01*
X79519604Y-143838417D01*
X79576563Y-143700906D01*
X79605600Y-143554926D01*
X79605600Y-143406086D01*
X79576563Y-143260106D01*
X79519604Y-143122595D01*
X79436913Y-142998839D01*
X79331667Y-142893593D01*
X79207911Y-142810902D01*
X79070400Y-142753943D01*
X78924420Y-142724906D01*
X78775580Y-142724906D01*
X78629600Y-142753943D01*
X78492089Y-142810902D01*
X78368333Y-142893593D01*
X78263087Y-142998839D01*
X78180396Y-143122595D01*
X78123437Y-143260106D01*
X78094400Y-143406086D01*
X72250300Y-143406086D01*
X72250300Y-140590784D01*
X72278417Y-140562667D01*
X72361108Y-140438911D01*
X72418067Y-140301400D01*
X72447104Y-140155420D01*
X72447104Y-140006580D01*
X72418067Y-139860600D01*
X72361108Y-139723089D01*
X72278417Y-139599333D01*
X72173171Y-139494087D01*
X72049415Y-139411396D01*
X71911904Y-139354437D01*
X71765924Y-139325400D01*
X71617084Y-139325400D01*
X71471104Y-139354437D01*
X71333593Y-139411396D01*
X71209837Y-139494087D01*
X71104591Y-139599333D01*
X71021900Y-139723089D01*
X70964941Y-139860600D01*
X70935904Y-140006580D01*
X70935904Y-140155420D01*
X70964941Y-140301400D01*
X71021900Y-140438911D01*
X71104591Y-140562667D01*
X71132701Y-140590777D01*
X71132700Y-146873720D01*
X71104587Y-146901833D01*
X71021896Y-147025589D01*
X70964937Y-147163100D01*
X70935900Y-147309080D01*
X62001457Y-147309080D01*
X62032555Y-147234005D01*
X62098100Y-146904487D01*
X62098100Y-146568513D01*
X62032555Y-146238995D01*
X61903983Y-145928595D01*
X61717326Y-145649243D01*
X61479757Y-145411674D01*
X61402821Y-145360267D01*
X64883900Y-145360267D01*
X64883900Y-145572733D01*
X64925350Y-145781116D01*
X65006657Y-145977409D01*
X65124697Y-146154067D01*
X65274933Y-146304303D01*
X65451591Y-146422343D01*
X65647884Y-146503650D01*
X65856267Y-146545100D01*
X66068733Y-146545100D01*
X66277116Y-146503650D01*
X66473409Y-146422343D01*
X66650067Y-146304303D01*
X66800303Y-146154067D01*
X66918343Y-145977409D01*
X66930069Y-145949100D01*
X66980795Y-145949100D01*
X67004500Y-145951435D01*
X67028205Y-145949100D01*
X67028207Y-145949100D01*
X67099106Y-145942117D01*
X67190077Y-145914522D01*
X67273915Y-145869709D01*
X67347401Y-145809401D01*
X67362517Y-145790982D01*
X70047488Y-143106012D01*
X70065901Y-143090901D01*
X70126209Y-143017415D01*
X70171022Y-142933577D01*
X70198617Y-142842606D01*
X70205600Y-142771707D01*
X70205600Y-142771706D01*
X70207935Y-142748000D01*
X70205600Y-142724293D01*
X70205600Y-139264899D01*
X70684900Y-138785600D01*
X80430795Y-138785600D01*
X80454500Y-138787935D01*
X80478205Y-138785600D01*
X80478207Y-138785600D01*
X80549106Y-138778617D01*
X80640077Y-138751022D01*
X80723915Y-138706209D01*
X80797401Y-138645901D01*
X80812517Y-138627482D01*
X83067399Y-136372600D01*
X88631522Y-136372600D01*
X88735835Y-136476913D01*
X88859591Y-136559604D01*
X88997102Y-136616563D01*
X89143082Y-136645600D01*
X89291922Y-136645600D01*
X89437902Y-136616563D01*
X89575413Y-136559604D01*
X89699169Y-136476913D01*
X89804415Y-136371667D01*
X89887106Y-136247911D01*
X89944065Y-136110400D01*
X89973102Y-135964420D01*
X89973102Y-135815580D01*
X89944065Y-135669600D01*
X89887106Y-135532089D01*
X89804415Y-135408333D01*
X89699169Y-135303087D01*
X89595451Y-135233785D01*
X89635667Y-135206913D01*
X89740913Y-135101667D01*
X89823604Y-134977911D01*
X89847102Y-134921182D01*
X89942333Y-135016413D01*
X90066089Y-135099104D01*
X90203600Y-135156063D01*
X90349580Y-135185100D01*
X90498420Y-135185100D01*
X90644400Y-135156063D01*
X90781911Y-135099104D01*
X90905667Y-135016413D01*
X91010913Y-134911167D01*
X91093604Y-134787411D01*
X91150563Y-134649900D01*
X91179600Y-134503920D01*
X91179600Y-134355080D01*
X91150563Y-134209100D01*
X91093604Y-134071589D01*
X91019032Y-133959983D01*
X91069132Y-133955049D01*
X91258688Y-133897548D01*
X91433384Y-133804171D01*
X91586507Y-133678507D01*
X91712171Y-133525384D01*
X91805548Y-133350688D01*
X91863049Y-133161131D01*
X91872000Y-133070252D01*
X91880951Y-133161132D01*
X91938452Y-133350688D01*
X92031830Y-133525384D01*
X92157494Y-133678507D01*
X92310617Y-133804171D01*
X92400900Y-133852429D01*
X92400900Y-134068020D01*
X92296587Y-134172333D01*
X92213896Y-134296089D01*
X92156937Y-134433600D01*
X92127900Y-134579580D01*
X92127900Y-134728420D01*
X92156937Y-134874400D01*
X92213896Y-135011911D01*
X92296587Y-135135667D01*
X92401833Y-135240913D01*
X92525589Y-135323604D01*
X92663100Y-135380563D01*
X92809080Y-135409600D01*
X92957920Y-135409600D01*
X93103900Y-135380563D01*
X93241411Y-135323604D01*
X93365167Y-135240913D01*
X93470413Y-135135667D01*
X93553104Y-135011911D01*
X93610063Y-134874400D01*
X93639100Y-134728420D01*
X93639100Y-134579580D01*
X93610063Y-134433600D01*
X93553104Y-134296089D01*
X93470413Y-134172333D01*
X93366100Y-134068020D01*
X93366100Y-133840135D01*
X93433384Y-133804171D01*
X93586507Y-133678507D01*
X93712171Y-133525384D01*
X93805548Y-133350688D01*
X93863049Y-133161131D01*
X93872000Y-133070252D01*
X93880951Y-133161132D01*
X93938452Y-133350688D01*
X94031830Y-133525384D01*
X94157494Y-133678507D01*
X94310617Y-133804171D01*
X94369400Y-133835591D01*
X94369400Y-134068020D01*
X94265087Y-134172333D01*
X94182396Y-134296089D01*
X94125437Y-134433600D01*
X94096400Y-134579580D01*
X94096400Y-134728420D01*
X94125437Y-134874400D01*
X94182396Y-135011911D01*
X94265087Y-135135667D01*
X94370333Y-135240913D01*
X94494089Y-135323604D01*
X94631600Y-135380563D01*
X94777580Y-135409600D01*
X94926420Y-135409600D01*
X95072400Y-135380563D01*
X95209911Y-135323604D01*
X95333667Y-135240913D01*
X95438913Y-135135667D01*
X95521604Y-135011911D01*
X95578563Y-134874400D01*
X95607600Y-134728420D01*
X95607600Y-134579580D01*
X95578563Y-134433600D01*
X95521604Y-134296089D01*
X95438913Y-134172333D01*
X95334600Y-134068020D01*
X95334600Y-133856972D01*
X95433384Y-133804171D01*
X95586507Y-133678507D01*
X95712171Y-133525384D01*
X95805548Y-133350688D01*
X95863049Y-133161131D01*
X95872000Y-133070252D01*
X95880951Y-133161132D01*
X95938452Y-133350688D01*
X96031830Y-133525384D01*
X96157494Y-133678507D01*
X96310617Y-133804171D01*
X96389400Y-133846282D01*
X96389401Y-135164599D01*
X96129599Y-135424402D01*
X91881978Y-135424402D01*
X91777665Y-135320089D01*
X91653909Y-135237398D01*
X91516398Y-135180439D01*
X91370418Y-135151402D01*
X91221578Y-135151402D01*
X91075598Y-135180439D01*
X90938087Y-135237398D01*
X90814331Y-135320089D01*
X90709085Y-135425335D01*
X90626394Y-135549091D01*
X90569435Y-135686602D01*
X90540398Y-135832582D01*
X90540398Y-135981422D01*
X90569435Y-136127402D01*
X90626394Y-136264913D01*
X90709085Y-136388669D01*
X90814331Y-136493915D01*
X90938087Y-136576606D01*
X91075598Y-136633565D01*
X91221578Y-136662602D01*
X91370418Y-136662602D01*
X91516398Y-136633565D01*
X91653909Y-136576606D01*
X91777665Y-136493915D01*
X91881978Y-136389602D01*
X96305793Y-136389602D01*
X96329498Y-136391937D01*
X96353203Y-136389602D01*
X96353205Y-136389602D01*
X96424104Y-136382619D01*
X96515075Y-136355024D01*
X96598913Y-136310211D01*
X96672399Y-136249903D01*
X96687515Y-136231484D01*
X97196487Y-135722513D01*
X97214901Y-135707401D01*
X97275209Y-135633915D01*
X97320022Y-135550077D01*
X97325088Y-135533377D01*
X97347617Y-135459107D01*
X97356935Y-135364500D01*
X97354600Y-135340793D01*
X97354600Y-133846282D01*
X97433384Y-133804171D01*
X97586507Y-133678507D01*
X97712171Y-133525384D01*
X97805548Y-133350688D01*
X97863049Y-133161131D01*
X97872000Y-133070252D01*
X97880951Y-133161132D01*
X97938452Y-133350688D01*
X98031830Y-133525384D01*
X98157494Y-133678507D01*
X98310617Y-133804171D01*
X98389401Y-133846282D01*
X98389401Y-134054680D01*
X98370833Y-134067087D01*
X98265587Y-134172333D01*
X98182896Y-134296089D01*
X98125937Y-134433600D01*
X98096900Y-134579580D01*
X98096900Y-134728420D01*
X98125937Y-134874400D01*
X98182896Y-135011911D01*
X98265587Y-135135667D01*
X98370833Y-135240913D01*
X98494589Y-135323604D01*
X98632100Y-135380563D01*
X98778080Y-135409600D01*
X98926920Y-135409600D01*
X99072900Y-135380563D01*
X99080646Y-135377355D01*
X98034601Y-136423400D01*
X93178207Y-136423400D01*
X93154500Y-136421065D01*
X93059893Y-136430383D01*
X92968923Y-136457978D01*
X92885085Y-136502791D01*
X92811599Y-136563099D01*
X92796488Y-136581512D01*
X90922601Y-138455400D01*
X81621207Y-138455400D01*
X81597500Y-138453065D01*
X81502893Y-138462383D01*
X81477259Y-138470159D01*
X81411923Y-138489978D01*
X81328085Y-138534791D01*
X81254599Y-138595099D01*
X81239488Y-138613512D01*
X80464101Y-139388900D01*
X80316580Y-139388900D01*
X80170600Y-139417937D01*
X80033089Y-139474896D01*
X79909333Y-139557587D01*
X79804087Y-139662833D01*
X79721396Y-139786589D01*
X79664437Y-139924100D01*
X79635400Y-140070080D01*
X79635400Y-140218920D01*
X79664437Y-140364900D01*
X79721396Y-140502411D01*
X79804087Y-140626167D01*
X79909333Y-140731413D01*
X80033089Y-140814104D01*
X80170600Y-140871063D01*
X80316580Y-140900100D01*
X80465420Y-140900100D01*
X80611400Y-140871063D01*
X80748911Y-140814104D01*
X80872667Y-140731413D01*
X80977913Y-140626167D01*
X81060604Y-140502411D01*
X81117563Y-140364900D01*
X81138313Y-140260580D01*
X81476900Y-140260580D01*
X81476900Y-140409420D01*
X81505937Y-140555400D01*
X81562896Y-140692911D01*
X81645587Y-140816667D01*
X81750833Y-140921913D01*
X81874589Y-141004604D01*
X82012100Y-141061563D01*
X82158080Y-141090600D01*
X82306920Y-141090600D01*
X82452900Y-141061563D01*
X82590411Y-141004604D01*
X82714167Y-140921913D01*
X82819413Y-140816667D01*
X82902104Y-140692911D01*
X82959063Y-140555400D01*
X82988100Y-140409420D01*
X82988100Y-140260580D01*
X82959063Y-140114600D01*
X82902104Y-139977089D01*
X82819413Y-139853333D01*
X82714167Y-139748087D01*
X82590411Y-139665396D01*
X82452900Y-139608437D01*
X82306920Y-139579400D01*
X82158080Y-139579400D01*
X82012100Y-139608437D01*
X81874589Y-139665396D01*
X81750833Y-139748087D01*
X81645587Y-139853333D01*
X81562896Y-139977089D01*
X81505937Y-140114600D01*
X81476900Y-140260580D01*
X81138313Y-140260580D01*
X81146600Y-140218920D01*
X81146600Y-140071399D01*
X81797400Y-139420600D01*
X91098795Y-139420600D01*
X91122500Y-139422935D01*
X91146205Y-139420600D01*
X91146207Y-139420600D01*
X91217106Y-139413617D01*
X91308077Y-139386022D01*
X91391915Y-139341209D01*
X91465401Y-139280901D01*
X91480517Y-139262482D01*
X93354400Y-137388600D01*
X98210795Y-137388600D01*
X98234500Y-137390935D01*
X98258205Y-137388600D01*
X98258207Y-137388600D01*
X98329106Y-137381617D01*
X98420077Y-137354022D01*
X98503915Y-137309209D01*
X98577401Y-137248901D01*
X98592517Y-137230482D01*
X100383900Y-135439100D01*
X100531420Y-135439100D01*
X100677400Y-135410063D01*
X100814911Y-135353104D01*
X100938667Y-135270413D01*
X101043913Y-135165167D01*
X101126604Y-135041411D01*
X101183563Y-134903900D01*
X101212600Y-134757920D01*
X101212600Y-134609080D01*
X101183563Y-134463100D01*
X101126604Y-134325589D01*
X101043913Y-134201833D01*
X100938667Y-134096587D01*
X100814911Y-134013896D01*
X100729568Y-133978546D01*
X100846600Y-133918462D01*
X100846600Y-132764400D01*
X100826600Y-132764400D01*
X100826600Y-132713600D01*
X100846600Y-132713600D01*
X100846600Y-131559538D01*
X100897400Y-131559538D01*
X100897400Y-132713600D01*
X100917400Y-132713600D01*
X100917400Y-132764400D01*
X100897400Y-132764400D01*
X100897400Y-133918462D01*
X101062297Y-134003119D01*
X101252800Y-133949706D01*
X101437785Y-133856475D01*
X101601027Y-133728947D01*
X101736253Y-133572023D01*
X101838266Y-133391733D01*
X101896937Y-133213831D01*
X101938452Y-133350688D01*
X102031830Y-133525384D01*
X102157494Y-133678507D01*
X102310617Y-133804171D01*
X102389401Y-133846282D01*
X102389401Y-133863599D01*
X102354600Y-133898400D01*
X102207080Y-133898400D01*
X102061100Y-133927437D01*
X101923589Y-133984396D01*
X101799833Y-134067087D01*
X101694587Y-134172333D01*
X101611896Y-134296089D01*
X101554937Y-134433600D01*
X101525900Y-134579580D01*
X101525900Y-134728420D01*
X101554937Y-134874400D01*
X101611896Y-135011911D01*
X101694587Y-135135667D01*
X101799833Y-135240913D01*
X101923589Y-135323604D01*
X102061100Y-135380563D01*
X102207080Y-135409600D01*
X102355920Y-135409600D01*
X102501900Y-135380563D01*
X102639411Y-135323604D01*
X102763167Y-135240913D01*
X102868413Y-135135667D01*
X102951104Y-135011911D01*
X103008063Y-134874400D01*
X103037100Y-134728420D01*
X103037100Y-134580900D01*
X103196487Y-134421513D01*
X103214901Y-134406401D01*
X103275209Y-134332915D01*
X103320022Y-134249077D01*
X103347617Y-134158106D01*
X103354600Y-134087207D01*
X103354600Y-134087206D01*
X103356935Y-134063501D01*
X103354600Y-134039796D01*
X103354600Y-133846282D01*
X103433384Y-133804171D01*
X103586507Y-133678507D01*
X103712171Y-133525384D01*
X103723504Y-133504180D01*
X111436200Y-133504180D01*
X111436200Y-133653020D01*
X111465237Y-133799000D01*
X111522196Y-133936511D01*
X111604887Y-134060267D01*
X111710133Y-134165513D01*
X111833889Y-134248204D01*
X111971400Y-134305163D01*
X112117380Y-134334200D01*
X112266220Y-134334200D01*
X112412200Y-134305163D01*
X112549711Y-134248204D01*
X112673467Y-134165513D01*
X112778713Y-134060267D01*
X112861404Y-133936511D01*
X112918363Y-133799000D01*
X112947400Y-133653020D01*
X112947400Y-133504180D01*
X112918363Y-133358200D01*
X112861404Y-133220689D01*
X112778713Y-133096933D01*
X112673467Y-132991687D01*
X112549711Y-132908996D01*
X112412200Y-132852037D01*
X112266220Y-132823000D01*
X112117380Y-132823000D01*
X111971400Y-132852037D01*
X111833889Y-132908996D01*
X111710133Y-132991687D01*
X111604887Y-133096933D01*
X111522196Y-133220689D01*
X111465237Y-133358200D01*
X111436200Y-133504180D01*
X103723504Y-133504180D01*
X103805548Y-133350688D01*
X103863049Y-133161131D01*
X103877600Y-133013394D01*
X103877600Y-132464605D01*
X103863049Y-132316868D01*
X103805548Y-132127312D01*
X103712171Y-131952616D01*
X103586507Y-131799493D01*
X103433384Y-131673829D01*
X103258687Y-131580452D01*
X103069131Y-131522951D01*
X102872000Y-131503535D01*
X102674868Y-131522951D01*
X102485312Y-131580452D01*
X102310616Y-131673829D01*
X102157493Y-131799493D01*
X102031829Y-131952616D01*
X101938452Y-132127313D01*
X101896937Y-132264169D01*
X101838266Y-132086267D01*
X101736253Y-131905977D01*
X101601027Y-131749053D01*
X101437785Y-131621525D01*
X101252800Y-131528294D01*
X101062297Y-131474881D01*
X100897400Y-131559538D01*
X100846600Y-131559538D01*
X100681703Y-131474881D01*
X100491200Y-131528294D01*
X100306215Y-131621525D01*
X100142973Y-131749053D01*
X100007747Y-131905977D01*
X99905734Y-132086267D01*
X99847063Y-132264169D01*
X99805548Y-132127312D01*
X99712171Y-131952616D01*
X99586507Y-131799493D01*
X99433384Y-131673829D01*
X99258687Y-131580452D01*
X99069131Y-131522951D01*
X98872000Y-131503535D01*
X98674868Y-131522951D01*
X98485312Y-131580452D01*
X98310616Y-131673829D01*
X98157493Y-131799493D01*
X98031829Y-131952616D01*
X97938452Y-132127313D01*
X97880951Y-132316869D01*
X97872000Y-132407748D01*
X97863049Y-132316868D01*
X97805548Y-132127312D01*
X97712171Y-131952616D01*
X97586507Y-131799493D01*
X97433384Y-131673829D01*
X97258687Y-131580452D01*
X97069131Y-131522951D01*
X96872000Y-131503535D01*
X96674868Y-131522951D01*
X96485312Y-131580452D01*
X96310616Y-131673829D01*
X96157493Y-131799493D01*
X96031829Y-131952616D01*
X95938452Y-132127313D01*
X95880951Y-132316869D01*
X95872000Y-132407748D01*
X95863049Y-132316868D01*
X95805548Y-132127312D01*
X95712171Y-131952616D01*
X95586507Y-131799493D01*
X95433384Y-131673829D01*
X95258687Y-131580452D01*
X95069131Y-131522951D01*
X94872000Y-131503535D01*
X94674868Y-131522951D01*
X94485312Y-131580452D01*
X94310616Y-131673829D01*
X94157493Y-131799493D01*
X94031829Y-131952616D01*
X93938452Y-132127313D01*
X93880951Y-132316869D01*
X93872000Y-132407748D01*
X93863049Y-132316868D01*
X93805548Y-132127312D01*
X93712171Y-131952616D01*
X93586507Y-131799493D01*
X93433384Y-131673829D01*
X93258687Y-131580452D01*
X93069131Y-131522951D01*
X92872000Y-131503535D01*
X92674868Y-131522951D01*
X92485312Y-131580452D01*
X92310616Y-131673829D01*
X92157493Y-131799493D01*
X92031829Y-131952616D01*
X91938452Y-132127313D01*
X91880951Y-132316869D01*
X91872000Y-132407748D01*
X91863049Y-132316868D01*
X91805548Y-132127312D01*
X91712171Y-131952616D01*
X91586507Y-131799493D01*
X91433384Y-131673829D01*
X91258687Y-131580452D01*
X91069131Y-131522951D01*
X90872000Y-131503535D01*
X90674868Y-131522951D01*
X90485312Y-131580452D01*
X90310616Y-131673829D01*
X90157493Y-131799493D01*
X90031829Y-131952616D01*
X89938452Y-132127313D01*
X89880951Y-132316869D01*
X89872000Y-132407748D01*
X89863049Y-132316868D01*
X89805548Y-132127312D01*
X89712171Y-131952616D01*
X89586507Y-131799493D01*
X89433384Y-131673829D01*
X89258687Y-131580452D01*
X89069131Y-131522951D01*
X88872000Y-131503535D01*
X88674868Y-131522951D01*
X88485312Y-131580452D01*
X88310616Y-131673829D01*
X88157493Y-131799493D01*
X88031829Y-131952616D01*
X87938452Y-132127313D01*
X87880951Y-132316869D01*
X87866400Y-132464606D01*
X87866400Y-133013395D01*
X87880951Y-133161132D01*
X87938452Y-133350688D01*
X88031830Y-133525384D01*
X88157494Y-133678507D01*
X88310617Y-133804171D01*
X88485313Y-133897548D01*
X88674869Y-133955049D01*
X88774447Y-133964857D01*
X88672333Y-134033087D01*
X88568020Y-134137400D01*
X81811696Y-134137400D01*
X81787999Y-134135066D01*
X81764302Y-134137400D01*
X81764293Y-134137400D01*
X81693394Y-134144383D01*
X81602423Y-134171978D01*
X81518585Y-134216791D01*
X81445099Y-134277099D01*
X81429983Y-134295518D01*
X79048101Y-136677400D01*
X69292980Y-136677400D01*
X69188667Y-136573087D01*
X69064911Y-136490396D01*
X68927400Y-136433437D01*
X68781420Y-136404400D01*
X68632580Y-136404400D01*
X68486600Y-136433437D01*
X68349089Y-136490396D01*
X68225333Y-136573087D01*
X68120087Y-136678333D01*
X68037396Y-136802089D01*
X67980437Y-136939600D01*
X67951400Y-137085580D01*
X67951400Y-137234420D01*
X67980437Y-137380400D01*
X68037396Y-137517911D01*
X68120087Y-137641667D01*
X68225333Y-137746913D01*
X68349089Y-137829604D01*
X68486600Y-137886563D01*
X68632580Y-137915600D01*
X68781420Y-137915600D01*
X68927400Y-137886563D01*
X69064911Y-137829604D01*
X69188667Y-137746913D01*
X69292980Y-137642600D01*
X79224295Y-137642600D01*
X79248000Y-137644935D01*
X79271705Y-137642600D01*
X79271707Y-137642600D01*
X79342606Y-137635617D01*
X79433577Y-137608022D01*
X79517415Y-137563209D01*
X79590901Y-137502901D01*
X79606017Y-137484482D01*
X81987899Y-135102600D01*
X88568020Y-135102600D01*
X88672333Y-135206913D01*
X88776051Y-135276215D01*
X88735835Y-135303087D01*
X88631522Y-135407400D01*
X82891204Y-135407400D01*
X82867499Y-135405065D01*
X82843794Y-135407400D01*
X82843793Y-135407400D01*
X82772894Y-135414383D01*
X82681923Y-135441978D01*
X82598085Y-135486791D01*
X82524599Y-135547099D01*
X82509483Y-135565518D01*
X80254601Y-137820400D01*
X70508707Y-137820400D01*
X70485000Y-137818065D01*
X70390393Y-137827383D01*
X70308838Y-137852122D01*
X70299423Y-137854978D01*
X70215585Y-137899791D01*
X70142099Y-137960099D01*
X70126987Y-137978513D01*
X69398513Y-138706988D01*
X69380100Y-138722099D01*
X69364989Y-138740512D01*
X69364987Y-138740514D01*
X69319792Y-138795585D01*
X69274978Y-138879424D01*
X69247384Y-138970394D01*
X69238065Y-139065000D01*
X69240401Y-139088715D01*
X69240400Y-142548100D01*
X66884123Y-144904378D01*
X66800303Y-144778933D01*
X66650067Y-144628697D01*
X66473409Y-144510657D01*
X66277116Y-144429350D01*
X66068733Y-144387900D01*
X65856267Y-144387900D01*
X65647884Y-144429350D01*
X65451591Y-144510657D01*
X65274933Y-144628697D01*
X65124697Y-144778933D01*
X65006657Y-144955591D01*
X64925350Y-145151884D01*
X64883900Y-145360267D01*
X61402821Y-145360267D01*
X61200405Y-145225017D01*
X60890005Y-145096445D01*
X60560487Y-145030900D01*
X60224513Y-145030900D01*
X59894995Y-145096445D01*
X59584595Y-145225017D01*
X59305243Y-145411674D01*
X59067674Y-145649243D01*
X58881017Y-145928595D01*
X58752445Y-146238995D01*
X58686900Y-146568513D01*
X57984937Y-146568513D01*
X58095059Y-146494932D01*
X58370932Y-146219059D01*
X58587685Y-145894666D01*
X58736986Y-145534220D01*
X58813100Y-145151572D01*
X58813100Y-144761428D01*
X58736986Y-144378780D01*
X58587685Y-144018334D01*
X58370932Y-143693941D01*
X58095059Y-143418068D01*
X57770666Y-143201315D01*
X57410220Y-143052014D01*
X57027572Y-142975900D01*
X56637428Y-142975900D01*
X56254780Y-143052014D01*
X55894334Y-143201315D01*
X55569941Y-143418068D01*
X55294068Y-143693941D01*
X55077315Y-144018334D01*
X54928014Y-144378780D01*
X54851900Y-144761428D01*
X53137600Y-144761428D01*
X53137600Y-140117337D01*
X58237797Y-140117337D01*
X58255861Y-140339075D01*
X58316837Y-140553028D01*
X58418382Y-140750974D01*
X58439675Y-140782841D01*
X58624131Y-140848948D01*
X59336579Y-140136500D01*
X58624131Y-139424052D01*
X58439675Y-139490159D01*
X58331504Y-139684563D01*
X58263338Y-139896335D01*
X58237797Y-140117337D01*
X53137600Y-140117337D01*
X53137600Y-135318500D01*
X57159997Y-135318500D01*
X57162700Y-135345942D01*
X57162701Y-137577048D01*
X57159997Y-137604500D01*
X57170787Y-137714044D01*
X57202739Y-137819377D01*
X57238651Y-137886563D01*
X57254628Y-137916454D01*
X57324458Y-138001543D01*
X57345776Y-138019038D01*
X57769461Y-138442724D01*
X57786957Y-138464043D01*
X57808274Y-138481537D01*
X57872045Y-138533873D01*
X57969122Y-138585761D01*
X58074455Y-138617714D01*
X58184000Y-138628503D01*
X58211444Y-138625800D01*
X58428946Y-138625800D01*
X58534697Y-138784067D01*
X58684933Y-138934303D01*
X58861591Y-139052343D01*
X58944540Y-139086702D01*
X58758026Y-139182382D01*
X58726159Y-139203675D01*
X58660052Y-139388131D01*
X59372500Y-140100579D01*
X59386643Y-140086437D01*
X59422564Y-140122358D01*
X59408421Y-140136500D01*
X59422564Y-140150643D01*
X59386643Y-140186564D01*
X59372500Y-140172421D01*
X58660052Y-140884869D01*
X58726159Y-141069325D01*
X58920563Y-141177496D01*
X58946014Y-141185688D01*
X58861591Y-141220657D01*
X58684933Y-141338697D01*
X58534697Y-141488933D01*
X58416657Y-141665591D01*
X58335350Y-141861884D01*
X58293900Y-142070267D01*
X58293900Y-142282733D01*
X58335350Y-142491116D01*
X58416657Y-142687409D01*
X58534697Y-142864067D01*
X58684933Y-143014303D01*
X58861591Y-143132343D01*
X59057884Y-143213650D01*
X59266267Y-143255100D01*
X59478733Y-143255100D01*
X59687116Y-143213650D01*
X59883409Y-143132343D01*
X59976311Y-143070267D01*
X64883900Y-143070267D01*
X64883900Y-143282733D01*
X64925350Y-143491116D01*
X65006657Y-143687409D01*
X65124697Y-143864067D01*
X65274933Y-144014303D01*
X65451591Y-144132343D01*
X65647884Y-144213650D01*
X65856267Y-144255100D01*
X66068733Y-144255100D01*
X66277116Y-144213650D01*
X66473409Y-144132343D01*
X66650067Y-144014303D01*
X66800303Y-143864067D01*
X66918343Y-143687409D01*
X66999650Y-143491116D01*
X67041100Y-143282733D01*
X67041100Y-143070267D01*
X66999650Y-142861884D01*
X66918343Y-142665591D01*
X66800303Y-142488933D01*
X66650067Y-142338697D01*
X66473409Y-142220657D01*
X66277116Y-142139350D01*
X66068733Y-142097900D01*
X65856267Y-142097900D01*
X65647884Y-142139350D01*
X65451591Y-142220657D01*
X65274933Y-142338697D01*
X65124697Y-142488933D01*
X65006657Y-142665591D01*
X64925350Y-142861884D01*
X64883900Y-143070267D01*
X59976311Y-143070267D01*
X60060067Y-143014303D01*
X60210303Y-142864067D01*
X60328343Y-142687409D01*
X60409650Y-142491116D01*
X60451100Y-142282733D01*
X60451100Y-142070267D01*
X60428803Y-141958173D01*
X60464933Y-141994303D01*
X60641591Y-142112343D01*
X60837884Y-142193650D01*
X61046267Y-142235100D01*
X61258733Y-142235100D01*
X61467116Y-142193650D01*
X61663409Y-142112343D01*
X61840067Y-141994303D01*
X61990303Y-141844067D01*
X62108343Y-141667409D01*
X62189650Y-141471116D01*
X62231100Y-141262733D01*
X62231100Y-141050267D01*
X62189650Y-140841884D01*
X62108343Y-140645591D01*
X61990303Y-140468933D01*
X61840067Y-140318697D01*
X61663409Y-140200657D01*
X61580460Y-140166298D01*
X61766974Y-140070618D01*
X61798841Y-140049325D01*
X61864948Y-139864869D01*
X61152500Y-139152421D01*
X61138358Y-139166564D01*
X61102437Y-139130643D01*
X61116579Y-139116500D01*
X61188421Y-139116500D01*
X61900869Y-139828948D01*
X62085325Y-139762841D01*
X62193496Y-139568437D01*
X62261662Y-139356665D01*
X62287203Y-139135663D01*
X62269139Y-138913925D01*
X62208163Y-138699972D01*
X62106618Y-138502026D01*
X62085325Y-138470159D01*
X61900869Y-138404052D01*
X61188421Y-139116500D01*
X61116579Y-139116500D01*
X61102437Y-139102358D01*
X61138358Y-139066437D01*
X61152500Y-139080579D01*
X61864948Y-138368131D01*
X61798841Y-138183675D01*
X61604437Y-138075504D01*
X61578986Y-138067312D01*
X61663409Y-138032343D01*
X61840067Y-137914303D01*
X61990303Y-137764067D01*
X62108343Y-137587409D01*
X62189650Y-137391116D01*
X62231100Y-137182733D01*
X62231100Y-136970267D01*
X62189650Y-136761884D01*
X62108343Y-136565591D01*
X61990303Y-136388933D01*
X61840067Y-136238697D01*
X61663409Y-136120657D01*
X61508520Y-136056500D01*
X61663409Y-135992343D01*
X61840067Y-135874303D01*
X61990303Y-135724067D01*
X62108343Y-135547409D01*
X62189650Y-135351116D01*
X62231100Y-135142733D01*
X62231100Y-134930267D01*
X62189650Y-134721884D01*
X62108343Y-134525591D01*
X61990303Y-134348933D01*
X61840067Y-134198697D01*
X61663409Y-134080657D01*
X61467116Y-133999350D01*
X61258733Y-133957900D01*
X61046267Y-133957900D01*
X60837884Y-133999350D01*
X60641591Y-134080657D01*
X60464933Y-134198697D01*
X60314697Y-134348933D01*
X60196657Y-134525591D01*
X60115350Y-134721884D01*
X60073900Y-134930267D01*
X60073900Y-135142733D01*
X60096197Y-135254827D01*
X60060067Y-135218697D01*
X59883409Y-135100657D01*
X59687116Y-135019350D01*
X59478733Y-134977900D01*
X59266267Y-134977900D01*
X59057884Y-135019350D01*
X58861591Y-135100657D01*
X58684933Y-135218697D01*
X58534697Y-135368933D01*
X58416657Y-135545591D01*
X58335350Y-135741884D01*
X58293900Y-135950267D01*
X58293900Y-136162733D01*
X58335350Y-136371116D01*
X58416657Y-136567409D01*
X58534697Y-136744067D01*
X58684933Y-136894303D01*
X58861591Y-137012343D01*
X59016480Y-137076500D01*
X58861591Y-137140657D01*
X58684933Y-137258697D01*
X58534697Y-137408933D01*
X58468368Y-137508200D01*
X58415463Y-137508200D01*
X58280300Y-137373038D01*
X58280300Y-135549962D01*
X59921462Y-133908800D01*
X62379538Y-133908800D01*
X64609457Y-136138719D01*
X64626957Y-136160043D01*
X64712046Y-136229873D01*
X64809122Y-136281761D01*
X64914456Y-136313714D01*
X64996556Y-136321800D01*
X64996557Y-136321800D01*
X65023999Y-136324503D01*
X65051441Y-136321800D01*
X73632558Y-136321800D01*
X73660000Y-136324503D01*
X73687442Y-136321800D01*
X73687444Y-136321800D01*
X73769544Y-136313714D01*
X73874878Y-136281761D01*
X73971954Y-136229873D01*
X74057043Y-136160043D01*
X74074543Y-136138719D01*
X74746463Y-135466800D01*
X76072680Y-135466800D01*
X76072680Y-135658000D01*
X76079546Y-135727710D01*
X76099879Y-135794740D01*
X76132899Y-135856516D01*
X76177337Y-135910663D01*
X76231484Y-135955101D01*
X76293260Y-135988121D01*
X76360290Y-136008454D01*
X76430000Y-136015320D01*
X78730000Y-136015320D01*
X78799710Y-136008454D01*
X78866740Y-135988121D01*
X78928516Y-135955101D01*
X78982663Y-135910663D01*
X79027101Y-135856516D01*
X79060121Y-135794740D01*
X79080454Y-135727710D01*
X79087320Y-135658000D01*
X79087320Y-134158000D01*
X79080454Y-134088290D01*
X79060121Y-134021260D01*
X79027101Y-133959484D01*
X78982663Y-133905337D01*
X78928516Y-133860899D01*
X78866740Y-133827879D01*
X78799710Y-133807546D01*
X78730000Y-133800680D01*
X76430000Y-133800680D01*
X76360290Y-133807546D01*
X76293260Y-133827879D01*
X76231484Y-133860899D01*
X76177337Y-133905337D01*
X76132899Y-133959484D01*
X76099879Y-134021260D01*
X76079546Y-134088290D01*
X76072680Y-134158000D01*
X76072680Y-134349200D01*
X74542444Y-134349200D01*
X74515000Y-134346497D01*
X74405456Y-134357286D01*
X74300122Y-134389239D01*
X74203045Y-134441127D01*
X74171874Y-134466709D01*
X74117957Y-134510957D01*
X74100462Y-134532275D01*
X73428538Y-135204200D01*
X65255462Y-135204200D01*
X63981529Y-133930267D01*
X64883900Y-133930267D01*
X64883900Y-134142733D01*
X64925350Y-134351116D01*
X65006657Y-134547409D01*
X65124697Y-134724067D01*
X65274933Y-134874303D01*
X65451591Y-134992343D01*
X65647884Y-135073650D01*
X65856267Y-135115100D01*
X66068733Y-135115100D01*
X66277116Y-135073650D01*
X66473409Y-134992343D01*
X66650067Y-134874303D01*
X66800303Y-134724067D01*
X66918343Y-134547409D01*
X66999650Y-134351116D01*
X67041100Y-134142733D01*
X67041100Y-133930267D01*
X66999650Y-133721884D01*
X66918343Y-133525591D01*
X66800303Y-133348933D01*
X66650067Y-133198697D01*
X66473409Y-133080657D01*
X66277116Y-132999350D01*
X66068733Y-132957900D01*
X65856267Y-132957900D01*
X65647884Y-132999350D01*
X65451591Y-133080657D01*
X65274933Y-133198697D01*
X65124697Y-133348933D01*
X65006657Y-133525591D01*
X64925350Y-133721884D01*
X64883900Y-133930267D01*
X63981529Y-133930267D01*
X63025543Y-132974281D01*
X63008043Y-132952957D01*
X62922954Y-132883127D01*
X62825878Y-132831239D01*
X62720544Y-132799286D01*
X62638444Y-132791200D01*
X62638442Y-132791200D01*
X62611000Y-132788497D01*
X62583558Y-132791200D01*
X59717441Y-132791200D01*
X59689999Y-132788497D01*
X59662557Y-132791200D01*
X59662556Y-132791200D01*
X59580456Y-132799286D01*
X59475122Y-132831239D01*
X59378046Y-132883127D01*
X59292957Y-132952957D01*
X59275457Y-132974281D01*
X57345781Y-134903957D01*
X57324457Y-134921457D01*
X57254627Y-135006546D01*
X57202739Y-135103623D01*
X57170786Y-135208957D01*
X57163422Y-135283726D01*
X57159997Y-135318500D01*
X53137600Y-135318500D01*
X53137600Y-132061428D01*
X54851900Y-132061428D01*
X54851900Y-132451572D01*
X54928014Y-132834220D01*
X55077315Y-133194666D01*
X55294068Y-133519059D01*
X55569941Y-133794932D01*
X55894334Y-134011685D01*
X56254780Y-134160986D01*
X56637428Y-134237100D01*
X57027572Y-134237100D01*
X57410220Y-134160986D01*
X57770666Y-134011685D01*
X58095059Y-133794932D01*
X58370932Y-133519059D01*
X58587685Y-133194666D01*
X58736986Y-132834220D01*
X58813100Y-132451572D01*
X58813100Y-132061428D01*
X58736986Y-131678780D01*
X58587685Y-131318334D01*
X58370932Y-130993941D01*
X58095059Y-130718068D01*
X57770666Y-130501315D01*
X57410220Y-130352014D01*
X57191528Y-130308513D01*
X58686900Y-130308513D01*
X58686900Y-130644487D01*
X58752445Y-130974005D01*
X58881017Y-131284405D01*
X59067674Y-131563757D01*
X59305243Y-131801326D01*
X59584595Y-131987983D01*
X59894995Y-132116555D01*
X60224513Y-132182100D01*
X60560487Y-132182100D01*
X60890005Y-132116555D01*
X61200405Y-131987983D01*
X61479757Y-131801326D01*
X61640816Y-131640267D01*
X64883900Y-131640267D01*
X64883900Y-131852733D01*
X64925350Y-132061116D01*
X65006657Y-132257409D01*
X65124697Y-132434067D01*
X65274933Y-132584303D01*
X65451591Y-132702343D01*
X65647884Y-132783650D01*
X65856267Y-132825100D01*
X66068733Y-132825100D01*
X66277116Y-132783650D01*
X66473409Y-132702343D01*
X66650067Y-132584303D01*
X66660426Y-132573944D01*
X76042086Y-132573944D01*
X76101906Y-132787069D01*
X76204378Y-132989342D01*
X76344342Y-133167738D01*
X76516420Y-133315400D01*
X76713999Y-133426654D01*
X76929486Y-133497225D01*
X77154600Y-133524400D01*
X77554600Y-133524400D01*
X77554600Y-132393400D01*
X77605400Y-132393400D01*
X77605400Y-133524400D01*
X78005400Y-133524400D01*
X78230514Y-133497225D01*
X78446001Y-133426654D01*
X78643580Y-133315400D01*
X78815658Y-133167738D01*
X78955622Y-132989342D01*
X79058094Y-132787069D01*
X79117914Y-132573944D01*
X79034494Y-132393400D01*
X77605400Y-132393400D01*
X77554600Y-132393400D01*
X76125506Y-132393400D01*
X76042086Y-132573944D01*
X66660426Y-132573944D01*
X66800303Y-132434067D01*
X66918343Y-132257409D01*
X66957839Y-132162056D01*
X76042086Y-132162056D01*
X76125506Y-132342600D01*
X77554600Y-132342600D01*
X77554600Y-131211600D01*
X77605400Y-131211600D01*
X77605400Y-132342600D01*
X79034494Y-132342600D01*
X79117914Y-132162056D01*
X79058094Y-131948931D01*
X78955622Y-131746658D01*
X78815658Y-131568262D01*
X78643580Y-131420600D01*
X78446001Y-131309346D01*
X78230514Y-131238775D01*
X78005400Y-131211600D01*
X77605400Y-131211600D01*
X77554600Y-131211600D01*
X77154600Y-131211600D01*
X76929486Y-131238775D01*
X76713999Y-131309346D01*
X76516420Y-131420600D01*
X76344342Y-131568262D01*
X76204378Y-131746658D01*
X76101906Y-131948931D01*
X76042086Y-132162056D01*
X66957839Y-132162056D01*
X66999650Y-132061116D01*
X67041100Y-131852733D01*
X67041100Y-131640267D01*
X66999650Y-131431884D01*
X66918343Y-131235591D01*
X66800303Y-131058933D01*
X66650067Y-130908697D01*
X66473409Y-130790657D01*
X66277116Y-130709350D01*
X66068733Y-130667900D01*
X65856267Y-130667900D01*
X65647884Y-130709350D01*
X65451591Y-130790657D01*
X65274933Y-130908697D01*
X65124697Y-131058933D01*
X65006657Y-131235591D01*
X64925350Y-131431884D01*
X64883900Y-131640267D01*
X61640816Y-131640267D01*
X61717326Y-131563757D01*
X61903983Y-131284405D01*
X62032555Y-130974005D01*
X62098100Y-130644487D01*
X62098100Y-130308513D01*
X62032555Y-129978995D01*
X61903983Y-129668595D01*
X61717326Y-129389243D01*
X61479757Y-129151674D01*
X61200405Y-128965017D01*
X60890005Y-128836445D01*
X60560487Y-128770900D01*
X60224513Y-128770900D01*
X59894995Y-128836445D01*
X59584595Y-128965017D01*
X59305243Y-129151674D01*
X59067674Y-129389243D01*
X58881017Y-129668595D01*
X58752445Y-129978995D01*
X58686900Y-130308513D01*
X57191528Y-130308513D01*
X57027572Y-130275900D01*
X56637428Y-130275900D01*
X56254780Y-130352014D01*
X55894334Y-130501315D01*
X55569941Y-130718068D01*
X55294068Y-130993941D01*
X55077315Y-131318334D01*
X54928014Y-131678780D01*
X54851900Y-132061428D01*
X53137600Y-132061428D01*
X53137600Y-125918084D01*
X53151013Y-125929092D01*
X53259987Y-125987340D01*
X53378231Y-126023209D01*
X53501200Y-126035320D01*
X54855200Y-126035320D01*
X54978169Y-126023209D01*
X55096413Y-125987340D01*
X55205387Y-125929092D01*
X55300904Y-125850704D01*
X55379292Y-125755187D01*
X55437540Y-125646213D01*
X55473409Y-125527969D01*
X55485520Y-125405000D01*
X55485520Y-124131000D01*
X55473409Y-124008031D01*
X55437540Y-123889787D01*
X55379292Y-123780813D01*
X55300904Y-123685296D01*
X55205387Y-123606908D01*
X55179368Y-123593000D01*
X56093340Y-123593000D01*
X56110342Y-123765628D01*
X56160696Y-123931621D01*
X56242466Y-124084602D01*
X56352509Y-124218691D01*
X56486598Y-124328734D01*
X56639579Y-124410504D01*
X56805572Y-124460858D01*
X56934947Y-124473600D01*
X57221453Y-124473600D01*
X57350828Y-124460858D01*
X57516821Y-124410504D01*
X57669802Y-124328734D01*
X57803891Y-124218691D01*
X57913934Y-124084602D01*
X57952073Y-124013248D01*
X57952073Y-126373947D01*
X57923960Y-126402060D01*
X57841269Y-126525816D01*
X57784310Y-126663327D01*
X57755273Y-126809307D01*
X57755273Y-126958147D01*
X57784310Y-127104127D01*
X57841269Y-127241638D01*
X57923960Y-127365394D01*
X57949807Y-127391241D01*
X57949370Y-127395673D01*
X57952073Y-127423115D01*
X57952073Y-127423116D01*
X57960159Y-127505216D01*
X57992112Y-127610550D01*
X58044000Y-127707627D01*
X58113830Y-127792716D01*
X58135154Y-127810216D01*
X58805557Y-128480619D01*
X58823057Y-128501943D01*
X58908146Y-128571773D01*
X59005222Y-128623661D01*
X59110556Y-128655614D01*
X59192656Y-128663700D01*
X59192657Y-128663700D01*
X59220099Y-128666403D01*
X59247541Y-128663700D01*
X63992438Y-128663700D01*
X65532457Y-130203719D01*
X65549957Y-130225043D01*
X65635046Y-130294873D01*
X65732122Y-130346761D01*
X65837456Y-130378714D01*
X65919556Y-130386800D01*
X65919557Y-130386800D01*
X65946999Y-130389503D01*
X65974441Y-130386800D01*
X76225059Y-130386800D01*
X76256280Y-130445210D01*
X76394440Y-130613560D01*
X76562790Y-130751720D01*
X76754858Y-130854383D01*
X76963265Y-130917602D01*
X77125692Y-130933600D01*
X78034308Y-130933600D01*
X78196735Y-130917602D01*
X78405142Y-130854383D01*
X78597210Y-130751720D01*
X78765560Y-130613560D01*
X78903720Y-130445210D01*
X79006383Y-130253142D01*
X79069602Y-130044735D01*
X79090949Y-129828000D01*
X79069602Y-129611265D01*
X79006383Y-129402858D01*
X78903720Y-129210790D01*
X78765560Y-129042440D01*
X78597210Y-128904280D01*
X78405142Y-128801617D01*
X78196735Y-128738398D01*
X78138800Y-128732692D01*
X78138800Y-127375462D01*
X79888184Y-125626078D01*
X86857400Y-125626078D01*
X86857400Y-125774918D01*
X86886437Y-125920898D01*
X86943396Y-126058409D01*
X87026087Y-126182165D01*
X87131333Y-126287411D01*
X87255089Y-126370102D01*
X87392600Y-126427061D01*
X87538580Y-126456098D01*
X87687420Y-126456098D01*
X87833400Y-126427061D01*
X87970911Y-126370102D01*
X88094667Y-126287411D01*
X88199913Y-126182165D01*
X88282604Y-126058409D01*
X88326646Y-125952080D01*
X107951400Y-125952080D01*
X107951400Y-126100920D01*
X107980437Y-126246900D01*
X108037396Y-126384411D01*
X108120087Y-126508167D01*
X108225333Y-126613413D01*
X108349089Y-126696104D01*
X108486600Y-126753063D01*
X108632580Y-126782100D01*
X108781420Y-126782100D01*
X108927400Y-126753063D01*
X109064911Y-126696104D01*
X109188667Y-126613413D01*
X109257000Y-126545080D01*
X109325333Y-126613413D01*
X109449089Y-126696104D01*
X109586600Y-126753063D01*
X109732580Y-126782100D01*
X109881420Y-126782100D01*
X110027400Y-126753063D01*
X110164911Y-126696104D01*
X110288667Y-126613413D01*
X110357000Y-126545080D01*
X110425333Y-126613413D01*
X110549089Y-126696104D01*
X110686600Y-126753063D01*
X110832580Y-126782100D01*
X110981420Y-126782100D01*
X111127400Y-126753063D01*
X111264911Y-126696104D01*
X111388667Y-126613413D01*
X111493913Y-126508167D01*
X111576604Y-126384411D01*
X111633563Y-126246900D01*
X111662600Y-126100920D01*
X111662600Y-125952080D01*
X111633563Y-125806100D01*
X111576604Y-125668589D01*
X111493913Y-125544833D01*
X111388667Y-125439587D01*
X111264911Y-125356896D01*
X111127400Y-125299937D01*
X110981420Y-125270900D01*
X110832580Y-125270900D01*
X110686600Y-125299937D01*
X110549089Y-125356896D01*
X110425333Y-125439587D01*
X110357000Y-125507920D01*
X110288667Y-125439587D01*
X110164911Y-125356896D01*
X110027400Y-125299937D01*
X109881420Y-125270900D01*
X109732580Y-125270900D01*
X109586600Y-125299937D01*
X109449089Y-125356896D01*
X109325333Y-125439587D01*
X109257000Y-125507920D01*
X109188667Y-125439587D01*
X109064911Y-125356896D01*
X108927400Y-125299937D01*
X108781420Y-125270900D01*
X108632580Y-125270900D01*
X108486600Y-125299937D01*
X108349089Y-125356896D01*
X108225333Y-125439587D01*
X108120087Y-125544833D01*
X108037396Y-125668589D01*
X107980437Y-125806100D01*
X107951400Y-125952080D01*
X88326646Y-125952080D01*
X88339563Y-125920898D01*
X88368600Y-125774918D01*
X88368600Y-125626078D01*
X88339563Y-125480098D01*
X88282604Y-125342587D01*
X88199913Y-125218831D01*
X88094667Y-125113585D01*
X87970911Y-125030894D01*
X87833400Y-124973935D01*
X87687420Y-124944898D01*
X87538580Y-124944898D01*
X87392600Y-124973935D01*
X87255089Y-125030894D01*
X87131333Y-125113585D01*
X87026087Y-125218831D01*
X86943396Y-125342587D01*
X86886437Y-125480098D01*
X86857400Y-125626078D01*
X79888184Y-125626078D01*
X82453025Y-123061238D01*
X82474343Y-123043743D01*
X82511391Y-122998600D01*
X82544173Y-122958655D01*
X82596061Y-122861578D01*
X82628014Y-122756245D01*
X82638803Y-122646700D01*
X82636100Y-122619256D01*
X82636100Y-120972280D01*
X82664213Y-120944167D01*
X82746904Y-120820411D01*
X82803863Y-120682900D01*
X82832900Y-120536920D01*
X82832900Y-120388080D01*
X82803863Y-120242100D01*
X82746904Y-120104589D01*
X82664213Y-119980833D01*
X82558967Y-119875587D01*
X82435211Y-119792896D01*
X82297700Y-119735937D01*
X82151720Y-119706900D01*
X82002880Y-119706900D01*
X81856900Y-119735937D01*
X81719389Y-119792896D01*
X81595633Y-119875587D01*
X81490387Y-119980833D01*
X81407696Y-120104589D01*
X81350737Y-120242100D01*
X81321700Y-120388080D01*
X81321700Y-120536920D01*
X81350737Y-120682900D01*
X81407696Y-120820411D01*
X81490387Y-120944167D01*
X81518501Y-120972281D01*
X81518500Y-122415237D01*
X77204276Y-126729462D01*
X77182958Y-126746957D01*
X77165463Y-126768275D01*
X77113128Y-126832046D01*
X77061239Y-126929123D01*
X77029287Y-127034456D01*
X77018497Y-127144000D01*
X77021201Y-127171452D01*
X77021200Y-128732692D01*
X76963265Y-128738398D01*
X76754858Y-128801617D01*
X76562790Y-128904280D01*
X76394440Y-129042440D01*
X76256280Y-129210790D01*
X76225059Y-129269200D01*
X66178462Y-129269200D01*
X64638443Y-127729181D01*
X64620943Y-127707857D01*
X64535854Y-127638027D01*
X64438778Y-127586139D01*
X64333444Y-127554186D01*
X64251344Y-127546100D01*
X64251342Y-127546100D01*
X64223900Y-127543397D01*
X64196458Y-127546100D01*
X59451562Y-127546100D01*
X59167108Y-127261646D01*
X59180477Y-127241638D01*
X59237436Y-127104127D01*
X59266473Y-126958147D01*
X59266473Y-126809307D01*
X59237436Y-126663327D01*
X59180477Y-126525816D01*
X59097786Y-126402060D01*
X59069673Y-126373947D01*
X59069673Y-125287280D01*
X69208700Y-125287280D01*
X69208700Y-125436120D01*
X69237737Y-125582100D01*
X69294696Y-125719611D01*
X69377387Y-125843367D01*
X69482633Y-125948613D01*
X69606389Y-126031304D01*
X69743900Y-126088263D01*
X69889880Y-126117300D01*
X70038720Y-126117300D01*
X70184700Y-126088263D01*
X70322211Y-126031304D01*
X70445967Y-125948613D01*
X70551213Y-125843367D01*
X70633904Y-125719611D01*
X70690863Y-125582100D01*
X70719900Y-125436120D01*
X70719900Y-125287280D01*
X70690863Y-125141300D01*
X70633904Y-125003789D01*
X70551213Y-124880033D01*
X70445967Y-124774787D01*
X70322211Y-124692096D01*
X70184700Y-124635137D01*
X70038720Y-124606100D01*
X69889880Y-124606100D01*
X69743900Y-124635137D01*
X69606389Y-124692096D01*
X69482633Y-124774787D01*
X69377387Y-124880033D01*
X69294696Y-125003789D01*
X69237737Y-125141300D01*
X69208700Y-125287280D01*
X59069673Y-125287280D01*
X59069673Y-123483000D01*
X74865680Y-123483000D01*
X74865680Y-125183000D01*
X74872546Y-125252710D01*
X74892879Y-125319740D01*
X74925899Y-125381516D01*
X74970337Y-125435663D01*
X75024484Y-125480101D01*
X75086260Y-125513121D01*
X75153290Y-125533454D01*
X75223000Y-125540320D01*
X76923000Y-125540320D01*
X76992710Y-125533454D01*
X77059740Y-125513121D01*
X77121516Y-125480101D01*
X77175663Y-125435663D01*
X77220101Y-125381516D01*
X77253121Y-125319740D01*
X77273454Y-125252710D01*
X77280320Y-125183000D01*
X77280320Y-123483000D01*
X77273454Y-123413290D01*
X77253121Y-123346260D01*
X77220101Y-123284484D01*
X77175663Y-123230337D01*
X77121516Y-123185899D01*
X77059740Y-123152879D01*
X76992710Y-123132546D01*
X76923000Y-123125680D01*
X75223000Y-123125680D01*
X75153290Y-123132546D01*
X75086260Y-123152879D01*
X75024484Y-123185899D01*
X74970337Y-123230337D01*
X74925899Y-123284484D01*
X74892879Y-123346260D01*
X74872546Y-123413290D01*
X74865680Y-123483000D01*
X59069673Y-123483000D01*
X59069673Y-121674259D01*
X74867400Y-121674259D01*
X74867400Y-121911741D01*
X74913731Y-122144660D01*
X75004611Y-122364066D01*
X75136550Y-122561525D01*
X75304475Y-122729450D01*
X75501934Y-122861389D01*
X75721340Y-122952269D01*
X75954259Y-122998600D01*
X76191741Y-122998600D01*
X76424660Y-122952269D01*
X76644066Y-122861389D01*
X76841525Y-122729450D01*
X77009450Y-122561525D01*
X77141389Y-122364066D01*
X77232269Y-122144660D01*
X77278600Y-121911741D01*
X77278600Y-121674259D01*
X77232269Y-121441340D01*
X77141389Y-121221934D01*
X77009450Y-121024475D01*
X76841525Y-120856550D01*
X76644066Y-120724611D01*
X76424660Y-120633731D01*
X76191741Y-120587400D01*
X75954259Y-120587400D01*
X75721340Y-120633731D01*
X75501934Y-120724611D01*
X75304475Y-120856550D01*
X75136550Y-121024475D01*
X75004611Y-121221934D01*
X74913731Y-121441340D01*
X74867400Y-121674259D01*
X59069673Y-121674259D01*
X59069673Y-120300770D01*
X59097786Y-120272657D01*
X59180477Y-120148901D01*
X59237436Y-120011390D01*
X59266473Y-119865410D01*
X59266473Y-119716570D01*
X59260508Y-119686580D01*
X59315400Y-119686580D01*
X59315400Y-119835420D01*
X59344437Y-119981400D01*
X59401396Y-120118911D01*
X59484087Y-120242667D01*
X59589333Y-120347913D01*
X59713089Y-120430604D01*
X59850600Y-120487563D01*
X59996580Y-120516600D01*
X60145420Y-120516600D01*
X60291400Y-120487563D01*
X60428911Y-120430604D01*
X60552667Y-120347913D01*
X60656980Y-120243600D01*
X62533020Y-120243600D01*
X62637333Y-120347913D01*
X62761089Y-120430604D01*
X62898600Y-120487563D01*
X63044580Y-120516600D01*
X63193420Y-120516600D01*
X63339400Y-120487563D01*
X63476911Y-120430604D01*
X63600667Y-120347913D01*
X63705913Y-120242667D01*
X63788604Y-120118911D01*
X63845563Y-119981400D01*
X63874600Y-119835420D01*
X63874600Y-119686580D01*
X63845563Y-119540600D01*
X63788604Y-119403089D01*
X63705913Y-119279333D01*
X63600667Y-119174087D01*
X63476911Y-119091396D01*
X63339400Y-119034437D01*
X63193420Y-119005400D01*
X63044580Y-119005400D01*
X62898600Y-119034437D01*
X62761089Y-119091396D01*
X62637333Y-119174087D01*
X62533020Y-119278400D01*
X60656980Y-119278400D01*
X60552667Y-119174087D01*
X60428911Y-119091396D01*
X60291400Y-119034437D01*
X60145420Y-119005400D01*
X59996580Y-119005400D01*
X59850600Y-119034437D01*
X59713089Y-119091396D01*
X59589333Y-119174087D01*
X59484087Y-119279333D01*
X59401396Y-119403089D01*
X59344437Y-119540600D01*
X59315400Y-119686580D01*
X59260508Y-119686580D01*
X59237436Y-119570590D01*
X59180477Y-119433079D01*
X59097786Y-119309323D01*
X58992540Y-119204077D01*
X58868784Y-119121386D01*
X58731273Y-119064427D01*
X58585293Y-119035390D01*
X58436453Y-119035390D01*
X58290473Y-119064427D01*
X58152962Y-119121386D01*
X58029206Y-119204077D01*
X57923960Y-119309323D01*
X57841269Y-119433079D01*
X57784310Y-119570590D01*
X57755273Y-119716570D01*
X57755273Y-119865410D01*
X57784310Y-120011390D01*
X57841269Y-120148901D01*
X57923960Y-120272657D01*
X57952074Y-120300771D01*
X57952074Y-123172752D01*
X57913934Y-123101398D01*
X57803891Y-122967309D01*
X57669802Y-122857266D01*
X57516821Y-122775496D01*
X57350828Y-122725142D01*
X57221453Y-122712400D01*
X56934947Y-122712400D01*
X56805572Y-122725142D01*
X56639579Y-122775496D01*
X56486598Y-122857266D01*
X56352509Y-122967309D01*
X56242466Y-123101398D01*
X56160696Y-123254379D01*
X56110342Y-123420372D01*
X56093340Y-123593000D01*
X55179368Y-123593000D01*
X55096413Y-123548660D01*
X54978169Y-123512791D01*
X54855200Y-123500680D01*
X53501200Y-123500680D01*
X53378231Y-123512791D01*
X53259987Y-123548660D01*
X53151013Y-123606908D01*
X53137600Y-123617916D01*
X53137600Y-118718084D01*
X53151013Y-118729092D01*
X53259987Y-118787340D01*
X53378231Y-118823209D01*
X53501200Y-118835320D01*
X54855200Y-118835320D01*
X54978169Y-118823209D01*
X55096413Y-118787340D01*
X55179367Y-118743000D01*
X56093340Y-118743000D01*
X56110342Y-118915628D01*
X56160696Y-119081621D01*
X56242466Y-119234602D01*
X56352509Y-119368691D01*
X56486598Y-119478734D01*
X56639579Y-119560504D01*
X56805572Y-119610858D01*
X56934947Y-119623600D01*
X57221453Y-119623600D01*
X57350828Y-119610858D01*
X57516821Y-119560504D01*
X57669802Y-119478734D01*
X57803891Y-119368691D01*
X57913934Y-119234602D01*
X57995704Y-119081621D01*
X58046058Y-118915628D01*
X58063060Y-118743000D01*
X58046058Y-118570372D01*
X57995704Y-118404379D01*
X57913934Y-118251398D01*
X57803891Y-118117309D01*
X57669802Y-118007266D01*
X57516821Y-117925496D01*
X57350828Y-117875142D01*
X57221453Y-117862400D01*
X56934947Y-117862400D01*
X56805572Y-117875142D01*
X56639579Y-117925496D01*
X56486598Y-118007266D01*
X56352509Y-118117309D01*
X56242466Y-118251398D01*
X56160696Y-118404379D01*
X56110342Y-118570372D01*
X56093340Y-118743000D01*
X55179367Y-118743000D01*
X55205387Y-118729092D01*
X55300904Y-118650704D01*
X55379292Y-118555187D01*
X55437540Y-118446213D01*
X55473409Y-118327969D01*
X55485520Y-118205000D01*
X55485520Y-117146580D01*
X64014400Y-117146580D01*
X64014400Y-117295420D01*
X64043437Y-117441400D01*
X64100396Y-117578911D01*
X64183087Y-117702667D01*
X64288333Y-117807913D01*
X64412089Y-117890604D01*
X64549600Y-117947563D01*
X64695580Y-117976600D01*
X64844420Y-117976600D01*
X64990400Y-117947563D01*
X65127911Y-117890604D01*
X65251667Y-117807913D01*
X65356913Y-117702667D01*
X65439604Y-117578911D01*
X65496563Y-117441400D01*
X65525600Y-117295420D01*
X65525600Y-117146580D01*
X65496563Y-117000600D01*
X65439604Y-116863089D01*
X65356913Y-116739333D01*
X65251667Y-116634087D01*
X65127911Y-116551396D01*
X64990400Y-116494437D01*
X64844420Y-116465400D01*
X64695580Y-116465400D01*
X64549600Y-116494437D01*
X64412089Y-116551396D01*
X64288333Y-116634087D01*
X64183087Y-116739333D01*
X64100396Y-116863089D01*
X64043437Y-117000600D01*
X64014400Y-117146580D01*
X55485520Y-117146580D01*
X55485520Y-116931000D01*
X55473409Y-116808031D01*
X55437540Y-116689787D01*
X55379292Y-116580813D01*
X55300904Y-116485296D01*
X55205387Y-116406908D01*
X55096413Y-116348660D01*
X54978169Y-116312791D01*
X54855200Y-116300680D01*
X53501200Y-116300680D01*
X53378231Y-116312791D01*
X53259987Y-116348660D01*
X53151013Y-116406908D01*
X53137600Y-116417916D01*
X53137600Y-114181259D01*
X59500400Y-114181259D01*
X59500400Y-114418741D01*
X59546731Y-114651660D01*
X59637611Y-114871066D01*
X59769550Y-115068525D01*
X59937475Y-115236450D01*
X60134934Y-115368389D01*
X60354340Y-115459269D01*
X60587259Y-115505600D01*
X60824741Y-115505600D01*
X61057660Y-115459269D01*
X61277066Y-115368389D01*
X61474525Y-115236450D01*
X61642450Y-115068525D01*
X61774389Y-114871066D01*
X61865269Y-114651660D01*
X61911600Y-114418741D01*
X61911600Y-114181259D01*
X61865269Y-113948340D01*
X61774389Y-113728934D01*
X61642450Y-113531475D01*
X61560975Y-113450000D01*
X62038680Y-113450000D01*
X62038680Y-115150000D01*
X62045546Y-115219710D01*
X62065879Y-115286740D01*
X62098899Y-115348516D01*
X62143337Y-115402663D01*
X62197484Y-115447101D01*
X62259260Y-115480121D01*
X62326290Y-115500454D01*
X62396000Y-115507320D01*
X64096000Y-115507320D01*
X64165710Y-115500454D01*
X64232740Y-115480121D01*
X64294516Y-115447101D01*
X64348663Y-115402663D01*
X64393101Y-115348516D01*
X64426121Y-115286740D01*
X64446454Y-115219710D01*
X64453320Y-115150000D01*
X64453320Y-113450000D01*
X64446454Y-113380290D01*
X64426121Y-113313260D01*
X64393101Y-113251484D01*
X64348663Y-113197337D01*
X64294516Y-113152899D01*
X64232740Y-113119879D01*
X64165710Y-113099546D01*
X64096000Y-113092680D01*
X62396000Y-113092680D01*
X62326290Y-113099546D01*
X62259260Y-113119879D01*
X62197484Y-113152899D01*
X62143337Y-113197337D01*
X62098899Y-113251484D01*
X62065879Y-113313260D01*
X62045546Y-113380290D01*
X62038680Y-113450000D01*
X61560975Y-113450000D01*
X61474525Y-113363550D01*
X61277066Y-113231611D01*
X61057660Y-113140731D01*
X60824741Y-113094400D01*
X60587259Y-113094400D01*
X60354340Y-113140731D01*
X60134934Y-113231611D01*
X59937475Y-113363550D01*
X59769550Y-113531475D01*
X59637611Y-113728934D01*
X59546731Y-113948340D01*
X59500400Y-114181259D01*
X53137600Y-114181259D01*
X53137600Y-111981591D01*
X59469296Y-111981591D01*
X59478634Y-112028544D01*
X59554608Y-112262831D01*
X59674829Y-112477795D01*
X59834677Y-112665174D01*
X60028010Y-112817768D01*
X60247398Y-112929712D01*
X60484409Y-112996705D01*
X60680600Y-112914544D01*
X60680600Y-111785400D01*
X60731400Y-111785400D01*
X60731400Y-112914544D01*
X60927591Y-112996705D01*
X61164602Y-112929712D01*
X61383990Y-112817768D01*
X61577323Y-112665174D01*
X61737171Y-112477795D01*
X61857392Y-112262831D01*
X61933366Y-112028544D01*
X61942704Y-111981591D01*
X61860521Y-111785400D01*
X60731400Y-111785400D01*
X60680600Y-111785400D01*
X59551479Y-111785400D01*
X59469296Y-111981591D01*
X53137600Y-111981591D01*
X53137600Y-111538409D01*
X59469296Y-111538409D01*
X59551479Y-111734600D01*
X60680600Y-111734600D01*
X60680600Y-110605456D01*
X60731400Y-110605456D01*
X60731400Y-111734600D01*
X61860521Y-111734600D01*
X61899620Y-111641259D01*
X62040400Y-111641259D01*
X62040400Y-111878741D01*
X62086731Y-112111660D01*
X62177611Y-112331066D01*
X62309550Y-112528525D01*
X62477475Y-112696450D01*
X62674934Y-112828389D01*
X62894340Y-112919269D01*
X63127259Y-112965600D01*
X63364741Y-112965600D01*
X63597660Y-112919269D01*
X63817066Y-112828389D01*
X64014525Y-112696450D01*
X64182450Y-112528525D01*
X64287451Y-112371380D01*
X70745400Y-112371380D01*
X70745400Y-112520220D01*
X70774437Y-112666200D01*
X70831396Y-112803711D01*
X70914087Y-112927467D01*
X71019333Y-113032713D01*
X71143089Y-113115404D01*
X71280600Y-113172363D01*
X71426580Y-113201400D01*
X71575420Y-113201400D01*
X71721400Y-113172363D01*
X71858911Y-113115404D01*
X71982667Y-113032713D01*
X72087913Y-112927467D01*
X72170604Y-112803711D01*
X72227563Y-112666200D01*
X72256600Y-112520220D01*
X72256600Y-112371380D01*
X72227563Y-112225400D01*
X72170604Y-112087889D01*
X72087913Y-111964133D01*
X72016860Y-111893080D01*
X76354700Y-111893080D01*
X76354700Y-112041920D01*
X76383737Y-112187900D01*
X76440696Y-112325411D01*
X76523387Y-112449167D01*
X76628633Y-112554413D01*
X76752389Y-112637104D01*
X76889900Y-112694063D01*
X77035880Y-112723100D01*
X77184720Y-112723100D01*
X77330700Y-112694063D01*
X77468211Y-112637104D01*
X77591967Y-112554413D01*
X77697213Y-112449167D01*
X77779904Y-112325411D01*
X77836863Y-112187900D01*
X77865900Y-112041920D01*
X77865900Y-111893080D01*
X77853270Y-111829580D01*
X81752200Y-111829580D01*
X81752200Y-111978420D01*
X81781237Y-112124400D01*
X81838196Y-112261911D01*
X81920887Y-112385667D01*
X82026133Y-112490913D01*
X82149889Y-112573604D01*
X82287400Y-112630563D01*
X82433380Y-112659600D01*
X82582220Y-112659600D01*
X82728200Y-112630563D01*
X82865711Y-112573604D01*
X82989467Y-112490913D01*
X83094713Y-112385667D01*
X83177404Y-112261911D01*
X83234363Y-112124400D01*
X83263400Y-111978420D01*
X83263400Y-111829580D01*
X83234363Y-111683600D01*
X83177404Y-111546089D01*
X83094713Y-111422333D01*
X82989467Y-111317087D01*
X82865711Y-111234396D01*
X82728200Y-111177437D01*
X82582220Y-111148400D01*
X82433380Y-111148400D01*
X82287400Y-111177437D01*
X82149889Y-111234396D01*
X82026133Y-111317087D01*
X81920887Y-111422333D01*
X81838196Y-111546089D01*
X81781237Y-111683600D01*
X81752200Y-111829580D01*
X77853270Y-111829580D01*
X77836863Y-111747100D01*
X77779904Y-111609589D01*
X77697213Y-111485833D01*
X77591967Y-111380587D01*
X77468211Y-111297896D01*
X77330700Y-111240937D01*
X77184720Y-111211900D01*
X77035880Y-111211900D01*
X76889900Y-111240937D01*
X76752389Y-111297896D01*
X76628633Y-111380587D01*
X76523387Y-111485833D01*
X76440696Y-111609589D01*
X76383737Y-111747100D01*
X76354700Y-111893080D01*
X72016860Y-111893080D01*
X71982667Y-111858887D01*
X71858911Y-111776196D01*
X71721400Y-111719237D01*
X71575420Y-111690200D01*
X71426580Y-111690200D01*
X71280600Y-111719237D01*
X71143089Y-111776196D01*
X71019333Y-111858887D01*
X70914087Y-111964133D01*
X70831396Y-112087889D01*
X70774437Y-112225400D01*
X70745400Y-112371380D01*
X64287451Y-112371380D01*
X64314389Y-112331066D01*
X64405269Y-112111660D01*
X64451600Y-111878741D01*
X64451600Y-111641259D01*
X64405269Y-111408340D01*
X64314389Y-111188934D01*
X64182450Y-110991475D01*
X64014525Y-110823550D01*
X63817066Y-110691611D01*
X63597660Y-110600731D01*
X63364741Y-110554400D01*
X63127259Y-110554400D01*
X62894340Y-110600731D01*
X62674934Y-110691611D01*
X62477475Y-110823550D01*
X62309550Y-110991475D01*
X62177611Y-111188934D01*
X62086731Y-111408340D01*
X62040400Y-111641259D01*
X61899620Y-111641259D01*
X61942704Y-111538409D01*
X61933366Y-111491456D01*
X61857392Y-111257169D01*
X61737171Y-111042205D01*
X61577323Y-110854826D01*
X61383990Y-110702232D01*
X61164602Y-110590288D01*
X60927591Y-110523295D01*
X60731400Y-110605456D01*
X60680600Y-110605456D01*
X60484409Y-110523295D01*
X60247398Y-110590288D01*
X60028010Y-110702232D01*
X59834677Y-110854826D01*
X59674829Y-111042205D01*
X59554608Y-111257169D01*
X59478634Y-111491456D01*
X59469296Y-111538409D01*
X53137600Y-111538409D01*
X53137600Y-109222862D01*
X53876400Y-109222862D01*
X53876400Y-109539138D01*
X53938102Y-109849336D01*
X54059136Y-110141537D01*
X54234849Y-110404510D01*
X54458490Y-110628151D01*
X54721463Y-110803864D01*
X55013664Y-110924898D01*
X55323862Y-110986600D01*
X55640138Y-110986600D01*
X55950336Y-110924898D01*
X56242537Y-110803864D01*
X56505510Y-110628151D01*
X56729151Y-110404510D01*
X56904864Y-110141537D01*
X56942125Y-110051580D01*
X76354700Y-110051580D01*
X76354700Y-110200420D01*
X76383737Y-110346400D01*
X76440696Y-110483911D01*
X76523387Y-110607667D01*
X76628633Y-110712913D01*
X76752389Y-110795604D01*
X76889900Y-110852563D01*
X77035880Y-110881600D01*
X77184720Y-110881600D01*
X77330700Y-110852563D01*
X77468211Y-110795604D01*
X77591967Y-110712913D01*
X77697213Y-110607667D01*
X77779904Y-110483911D01*
X77836863Y-110346400D01*
X77865900Y-110200420D01*
X77865900Y-110051580D01*
X78005700Y-110051580D01*
X78005700Y-110200420D01*
X78034737Y-110346400D01*
X78091696Y-110483911D01*
X78174387Y-110607667D01*
X78279633Y-110712913D01*
X78403389Y-110795604D01*
X78540900Y-110852563D01*
X78686880Y-110881600D01*
X78835720Y-110881600D01*
X78981700Y-110852563D01*
X79119211Y-110795604D01*
X79242967Y-110712913D01*
X79348213Y-110607667D01*
X79430904Y-110483911D01*
X79487863Y-110346400D01*
X79516900Y-110200420D01*
X79516900Y-110051580D01*
X79847200Y-110051580D01*
X79847200Y-110200420D01*
X79876237Y-110346400D01*
X79933196Y-110483911D01*
X80015887Y-110607667D01*
X80121133Y-110712913D01*
X80244889Y-110795604D01*
X80382400Y-110852563D01*
X80528380Y-110881600D01*
X80677220Y-110881600D01*
X80823200Y-110852563D01*
X80960711Y-110795604D01*
X81084467Y-110712913D01*
X81189713Y-110607667D01*
X81272404Y-110483911D01*
X81329363Y-110346400D01*
X81358400Y-110200420D01*
X81358400Y-110051580D01*
X81752200Y-110051580D01*
X81752200Y-110200420D01*
X81781237Y-110346400D01*
X81838196Y-110483911D01*
X81920887Y-110607667D01*
X82026133Y-110712913D01*
X82149889Y-110795604D01*
X82287400Y-110852563D01*
X82433380Y-110881600D01*
X82582220Y-110881600D01*
X82728200Y-110852563D01*
X82865711Y-110795604D01*
X82989467Y-110712913D01*
X83094713Y-110607667D01*
X83177404Y-110483911D01*
X83234363Y-110346400D01*
X83263400Y-110200420D01*
X83263400Y-110051580D01*
X83234363Y-109905600D01*
X83177404Y-109768089D01*
X83094713Y-109644333D01*
X82989467Y-109539087D01*
X82865711Y-109456396D01*
X82728200Y-109399437D01*
X82582220Y-109370400D01*
X82433380Y-109370400D01*
X82287400Y-109399437D01*
X82149889Y-109456396D01*
X82026133Y-109539087D01*
X81920887Y-109644333D01*
X81838196Y-109768089D01*
X81781237Y-109905600D01*
X81752200Y-110051580D01*
X81358400Y-110051580D01*
X81329363Y-109905600D01*
X81272404Y-109768089D01*
X81189713Y-109644333D01*
X81084467Y-109539087D01*
X80960711Y-109456396D01*
X80823200Y-109399437D01*
X80677220Y-109370400D01*
X80528380Y-109370400D01*
X80382400Y-109399437D01*
X80244889Y-109456396D01*
X80121133Y-109539087D01*
X80015887Y-109644333D01*
X79933196Y-109768089D01*
X79876237Y-109905600D01*
X79847200Y-110051580D01*
X79516900Y-110051580D01*
X79487863Y-109905600D01*
X79430904Y-109768089D01*
X79348213Y-109644333D01*
X79242967Y-109539087D01*
X79119211Y-109456396D01*
X78981700Y-109399437D01*
X78835720Y-109370400D01*
X78686880Y-109370400D01*
X78540900Y-109399437D01*
X78403389Y-109456396D01*
X78279633Y-109539087D01*
X78174387Y-109644333D01*
X78091696Y-109768089D01*
X78034737Y-109905600D01*
X78005700Y-110051580D01*
X77865900Y-110051580D01*
X77836863Y-109905600D01*
X77779904Y-109768089D01*
X77697213Y-109644333D01*
X77591967Y-109539087D01*
X77468211Y-109456396D01*
X77330700Y-109399437D01*
X77184720Y-109370400D01*
X77035880Y-109370400D01*
X76889900Y-109399437D01*
X76752389Y-109456396D01*
X76628633Y-109539087D01*
X76523387Y-109644333D01*
X76440696Y-109768089D01*
X76383737Y-109905600D01*
X76354700Y-110051580D01*
X56942125Y-110051580D01*
X57025898Y-109849336D01*
X57087600Y-109539138D01*
X57087600Y-109222862D01*
X57025898Y-108912664D01*
X56904864Y-108620463D01*
X56729151Y-108357490D01*
X56505510Y-108133849D01*
X56242537Y-107958136D01*
X55950336Y-107837102D01*
X55640138Y-107775400D01*
X55323862Y-107775400D01*
X55013664Y-107837102D01*
X54721463Y-107958136D01*
X54458490Y-108133849D01*
X54234849Y-108357490D01*
X54059136Y-108620463D01*
X53938102Y-108912664D01*
X53876400Y-109222862D01*
X53137600Y-109222862D01*
X53137600Y-107187832D01*
X53141305Y-107150043D01*
X53146520Y-107132772D01*
X53154994Y-107116834D01*
X53166394Y-107102856D01*
X53180303Y-107091349D01*
X53196173Y-107082768D01*
X53213410Y-107077433D01*
X53249879Y-107073600D01*
X89330400Y-107073600D01*
X89330400Y-115168000D01*
G37*
G04 #@! TD.AperFunction*
M02*
