  0
SECTION
  2
HEADER
  9
$ANGBASE
  50
0.0
  9
$ANGDIR
  70
1
  9
$MEASUREMENT
  70
1
  0
ENDSEC
  0
SECTION
  2
TABLES
  0
TABLE
  2
LTYPE
  70
4
  0
LTYPE
  5
40F
  2
CONTINUOUS
  70
0
  3
Solid line
  72
65
  73
0
  40
0.0
  0
LTYPE
  5
410
  2
DASHDOT
 70
0
  3
Dash Dot ____ _ ____ _
 72
65
 73
4
 40
2.0
 49
1.25
 49
-0.25
 49
0.25
 49
-0.25
  0
LTYPE
  5
411
  2
DASHED
 70
0
  3
Dashed __ __ __ __ __
 72
65
 73
2
 40
0.75
 49
0.5
 49
-0.25
  0
LTYPE
  5
43B
  2
DOTTED
 70
0
  3
Dotted .  .  .  .
 72
65
 73
2
 40
0.2
 49
0.0
 49
-0.2
  0
ENDTAB
  0
TABLE
  2
STYLE
  70
4
  0
STYLE
  2
KICAD
  70
0
  40
0
  41
1
  42
1
  50
0
  71
0
  3
isocp.shx
  0
STYLE
  2
KICADB
  70
0
  40
0
  41
1
  42
1
  50
0
  71
0
  3
isocp.shx
  0
STYLE
  2
KICADI
  70
0
  40
0
  41
1
  42
1
  50
15
  71
0
  3
isocp.shx
  0
STYLE
  2
KICADBI
  70
0
  40
0
  41
1
  42
1
  50
15
  71
0
  3
isocp.shx
  0
ENDTAB
  0
TABLE
  2
LAYER
  70
1
  0
LAYER
  2
BLACK
  70
0
  62
7
  6
CONTINUOUS
  0
ENDTAB
  0
ENDSEC
  0
SECTION
  2
ENTITIES
0
ARC
8
BLACK
10
53.232
20
-155.968
40
0.5
50
-180
51
-90
0
LINE
8
BLACK
6
CONTINUOUS
10
91.8992
20
-106.668
11
53.232
21
-106.668
0
LINE
8
BLACK
6
CONTINUOUS
10
88.8606
20
-156.468
11
53.232
21
-156.468
0
LINE
8
BLACK
6
CONTINUOUS
10
115.332
20
-156.468
11
107.161
21
-156.468
0
ARC
8
BLACK
10
107.161
20
-155.968
40
0.5
50
-180
51
-90.0054
0
ARC
8
BLACK
10
115.332
20
-155.968
40
0.5
50
-90
51
-0
0
LINE
8
BLACK
6
CONTINUOUS
10
115.832
20
-155.968
11
115.832
21
-107.168
0
LINE
8
BLACK
6
CONTINUOUS
10
106.661
20
-149.968
11
89.3606
21
-149.968
0
LINE
8
BLACK
6
CONTINUOUS
10
52.732
20
-155.968
11
52.732
21
-107.168
0
ARC
8
BLACK
10
115.332
20
-107.168
40
0.5
50
-0
51
90
0
LINE
8
BLACK
6
CONTINUOUS
10
115.332
20
-106.668
11
110.693
21
-106.668
0
ARC
8
BLACK
10
110.693
20
-107.176
40
0.508165
50
90.0041
51
179.087
0
ARC
8
BLACK
10
93.2684
20
-112.569
40
0.863466
50
-181.4
51
-86.6006
0
LINE
8
BLACK
6
CONTINUOUS
10
110.185
20
-112.926
11
110.185
21
-107.168
0
LINE
8
BLACK
6
CONTINUOUS
10
106.661
20
-155.968
11
106.661
21
-149.968
0
ARC
8
BLACK
10
53.232
20
-107.168
40
0.5
50
90
51
180
0
ARC
8
BLACK
10
88.8606
20
-155.968
40
0.499953
50
-90.0054
51
-0
0
LINE
8
BLACK
6
CONTINUOUS
10
109.673
20
-113.431
11
93.3196
21
-113.43
0
LINE
8
BLACK
6
CONTINUOUS
10
89.3606
20
-149.968
11
89.3606
21
-155.968
0
ARC
8
BLACK
10
91.8992
20
-107.176
40
0.508
50
0.902315
51
89.9947
0
ARC
8
BLACK
10
109.673
20
-112.919
40
0.512044
50
-89.9983
51
-0.749726
0
LINE
8
BLACK
6
CONTINUOUS
10
92.4052
20
-112.547
11
92.4071
21
-107.168
0
LINE
8
BLACK
6
CONTINUOUS
10
54.232
20
-108.131
11
56.732
21
-110.631
0
LINE
8
BLACK
6
CONTINUOUS
10
56.732
20
-108.131
11
54.232
21
-110.631
0
LINE
8
BLACK
6
CONTINUOUS
10
54.232
20
-152.454
11
56.732
21
-154.954
0
LINE
8
BLACK
6
CONTINUOUS
10
56.732
20
-152.454
11
54.232
21
-154.954
0
LINE
8
BLACK
6
CONTINUOUS
10
111.763
20
-108.258
11
114.263
21
-110.758
0
LINE
8
BLACK
6
CONTINUOUS
10
114.263
20
-108.258
11
111.763
21
-110.758
0
LINE
8
BLACK
6
CONTINUOUS
10
111.763
20
-152.454
11
114.263
21
-154.954
0
LINE
8
BLACK
6
CONTINUOUS
10
114.263
20
-152.454
11
111.763
21
-154.954
0
CIRCLE
8
BLACK
10
56.8325
20
-132.256
40
1.625
0
CIRCLE
8
BLACK
10
56.8325
20
-144.957
40
1.625
0
LINE
8
BLACK
6
CONTINUOUS
10
55.2582
20
-159.623
11
55.2582
21
-157.623
0
LINE
8
BLACK
6
CONTINUOUS
10
55.2582
20
-157.623
11
55.7344
21
-157.623
0
LINE
8
BLACK
6
CONTINUOUS
10
55.7344
20
-157.623
11
56.0201
21
-157.718
0
LINE
8
BLACK
6
CONTINUOUS
10
56.0201
20
-157.718
11
56.2106
21
-157.908
0
LINE
8
BLACK
6
CONTINUOUS
10
56.2106
20
-157.908
11
56.3058
21
-158.099
0
LINE
8
BLACK
6
CONTINUOUS
10
56.3058
20
-158.099
11
56.401
21
-158.48
0
LINE
8
BLACK
6
CONTINUOUS
10
56.401
20
-158.48
11
56.401
21
-158.766
0
LINE
8
BLACK
6
CONTINUOUS
10
56.401
20
-158.766
11
56.3058
21
-159.147
0
LINE
8
BLACK
6
CONTINUOUS
10
56.3058
20
-159.147
11
56.2106
21
-159.337
0
LINE
8
BLACK
6
CONTINUOUS
10
56.2106
20
-159.337
11
56.0201
21
-159.528
0
LINE
8
BLACK
6
CONTINUOUS
10
56.0201
20
-159.528
11
55.7344
21
-159.623
0
LINE
8
BLACK
6
CONTINUOUS
10
55.7344
20
-159.623
11
55.2582
21
-159.623
0
LINE
8
BLACK
6
CONTINUOUS
10
57.2582
20
-159.623
11
57.2582
21
-158.289
0
LINE
8
BLACK
6
CONTINUOUS
10
57.2582
20
-158.67
11
57.3534
21
-158.48
0
LINE
8
BLACK
6
CONTINUOUS
10
57.3534
20
-158.48
11
57.4487
21
-158.385
0
LINE
8
BLACK
6
CONTINUOUS
10
57.4487
20
-158.385
11
57.6391
21
-158.289
0
LINE
8
BLACK
6
CONTINUOUS
10
57.6391
20
-158.289
11
57.8296
21
-158.289
0
LINE
8
BLACK
6
CONTINUOUS
10
58.4963
20
-159.623
11
58.4963
21
-158.289
0
LINE
8
BLACK
6
CONTINUOUS
10
58.4963
20
-157.623
11
58.401
21
-157.718
0
LINE
8
BLACK
6
CONTINUOUS
10
58.401
20
-157.718
11
58.4963
21
-157.813
0
LINE
8
BLACK
6
CONTINUOUS
10
58.4963
20
-157.813
11
58.5915
21
-157.718
0
LINE
8
BLACK
6
CONTINUOUS
10
58.5915
20
-157.718
11
58.4963
21
-157.623
0
LINE
8
BLACK
6
CONTINUOUS
10
58.4963
20
-157.623
11
58.4963
21
-157.813
0
LINE
8
BLACK
6
CONTINUOUS
10
59.7344
20
-159.623
11
59.5439
21
-159.528
0
LINE
8
BLACK
6
CONTINUOUS
10
59.5439
20
-159.528
11
59.4487
21
-159.337
0
LINE
8
BLACK
6
CONTINUOUS
10
59.4487
20
-159.337
11
59.4487
21
-157.623
0
LINE
8
BLACK
6
CONTINUOUS
10
60.782
20
-159.623
11
60.5915
21
-159.528
0
LINE
8
BLACK
6
CONTINUOUS
10
60.5915
20
-159.528
11
60.4963
21
-159.337
0
LINE
8
BLACK
6
CONTINUOUS
10
60.4963
20
-159.337
11
60.4963
21
-157.623
0
LINE
8
BLACK
6
CONTINUOUS
10
63.0677
20
-159.623
11
63.0677
21
-157.623
0
LINE
8
BLACK
6
CONTINUOUS
10
63.0677
20
-157.623
11
63.7344
21
-159.051
0
LINE
8
BLACK
6
CONTINUOUS
10
63.7344
20
-159.051
11
64.401
21
-157.623
0
LINE
8
BLACK
6
CONTINUOUS
10
64.401
20
-157.623
11
64.401
21
-159.623
0
LINE
8
BLACK
6
CONTINUOUS
10
66.2106
20
-159.623
11
66.2106
21
-158.575
0
LINE
8
BLACK
6
CONTINUOUS
10
66.2106
20
-158.575
11
66.1153
21
-158.385
0
LINE
8
BLACK
6
CONTINUOUS
10
66.1153
20
-158.385
11
65.9249
21
-158.289
0
LINE
8
BLACK
6
CONTINUOUS
10
65.9249
20
-158.289
11
65.5439
21
-158.289
0
LINE
8
BLACK
6
CONTINUOUS
10
65.5439
20
-158.289
11
65.3534
21
-158.385
0
LINE
8
BLACK
6
CONTINUOUS
10
66.2106
20
-159.528
11
66.0201
21
-159.623
0
LINE
8
BLACK
6
CONTINUOUS
10
66.0201
20
-159.623
11
65.5439
21
-159.623
0
LINE
8
BLACK
6
CONTINUOUS
10
65.5439
20
-159.623
11
65.3534
21
-159.528
0
LINE
8
BLACK
6
CONTINUOUS
10
65.3534
20
-159.528
11
65.2582
21
-159.337
0
LINE
8
BLACK
6
CONTINUOUS
10
65.2582
20
-159.337
11
65.2582
21
-159.147
0
LINE
8
BLACK
6
CONTINUOUS
10
65.2582
20
-159.147
11
65.3534
21
-158.956
0
LINE
8
BLACK
6
CONTINUOUS
10
65.3534
20
-158.956
11
65.5439
21
-158.861
0
LINE
8
BLACK
6
CONTINUOUS
10
65.5439
20
-158.861
11
66.0201
21
-158.861
0
LINE
8
BLACK
6
CONTINUOUS
10
66.0201
20
-158.861
11
66.2106
21
-158.766
0
LINE
8
BLACK
6
CONTINUOUS
10
67.163
20
-158.289
11
67.163
21
-160.289
0
LINE
8
BLACK
6
CONTINUOUS
10
67.163
20
-158.385
11
67.3534
21
-158.289
0
LINE
8
BLACK
6
CONTINUOUS
10
67.3534
20
-158.289
11
67.7344
21
-158.289
0
LINE
8
BLACK
6
CONTINUOUS
10
67.7344
20
-158.289
11
67.9249
21
-158.385
0
LINE
8
BLACK
6
CONTINUOUS
10
67.9249
20
-158.385
11
68.0201
21
-158.48
0
LINE
8
BLACK
6
CONTINUOUS
10
68.0201
20
-158.48
11
68.1153
21
-158.67
0
LINE
8
BLACK
6
CONTINUOUS
10
68.1153
20
-158.67
11
68.1153
21
-159.242
0
LINE
8
BLACK
6
CONTINUOUS
10
68.1153
20
-159.242
11
68.0201
21
-159.432
0
LINE
8
BLACK
6
CONTINUOUS
10
68.0201
20
-159.432
11
67.9249
21
-159.528
0
LINE
8
BLACK
6
CONTINUOUS
10
67.9249
20
-159.528
11
67.7344
21
-159.623
0
LINE
8
BLACK
6
CONTINUOUS
10
67.7344
20
-159.623
11
67.3534
21
-159.623
0
LINE
8
BLACK
6
CONTINUOUS
10
67.3534
20
-159.623
11
67.163
21
-159.528
0
LINE
8
BLACK
6
CONTINUOUS
10
68.9725
20
-159.432
11
69.0677
21
-159.528
0
LINE
8
BLACK
6
CONTINUOUS
10
69.0677
20
-159.528
11
68.9725
21
-159.623
0
LINE
8
BLACK
6
CONTINUOUS
10
68.9725
20
-159.623
11
68.8772
21
-159.528
0
LINE
8
BLACK
6
CONTINUOUS
10
68.8772
20
-159.528
11
68.9725
21
-159.432
0
LINE
8
BLACK
6
CONTINUOUS
10
68.9725
20
-159.432
11
68.9725
21
-159.623
0
LINE
8
BLACK
6
CONTINUOUS
10
68.9725
20
-158.385
11
69.0677
21
-158.48
0
LINE
8
BLACK
6
CONTINUOUS
10
69.0677
20
-158.48
11
68.9725
21
-158.575
0
LINE
8
BLACK
6
CONTINUOUS
10
68.9725
20
-158.575
11
68.8772
21
-158.48
0
LINE
8
BLACK
6
CONTINUOUS
10
68.8772
20
-158.48
11
68.9725
21
-158.385
0
LINE
8
BLACK
6
CONTINUOUS
10
68.9725
20
-158.385
11
68.9725
21
-158.575
0
LINE
8
BLACK
6
CONTINUOUS
10
50.682
20
-161.918
11
52.682
21
-163.918
0
LINE
8
BLACK
6
CONTINUOUS
10
52.682
20
-161.918
11
50.682
21
-163.918
0
LINE
8
BLACK
6
CONTINUOUS
10
55.163
20
-162.013
11
55.2582
21
-161.918
0
LINE
8
BLACK
6
CONTINUOUS
10
55.2582
20
-161.918
11
55.4487
21
-161.823
0
LINE
8
BLACK
6
CONTINUOUS
10
55.4487
20
-161.823
11
55.9249
21
-161.823
0
LINE
8
BLACK
6
CONTINUOUS
10
55.9249
20
-161.823
11
56.1153
21
-161.918
0
LINE
8
BLACK
6
CONTINUOUS
10
56.1153
20
-161.918
11
56.2106
21
-162.013
0
LINE
8
BLACK
6
CONTINUOUS
10
56.2106
20
-162.013
11
56.3058
21
-162.204
0
LINE
8
BLACK
6
CONTINUOUS
10
56.3058
20
-162.204
11
56.3058
21
-162.394
0
LINE
8
BLACK
6
CONTINUOUS
10
56.3058
20
-162.394
11
56.2106
21
-162.68
0
LINE
8
BLACK
6
CONTINUOUS
10
56.2106
20
-162.68
11
55.0677
21
-163.823
0
LINE
8
BLACK
6
CONTINUOUS
10
55.0677
20
-163.823
11
56.3058
21
-163.823
0
LINE
8
BLACK
6
CONTINUOUS
10
57.163
20
-163.632
11
57.2582
21
-163.728
0
LINE
8
BLACK
6
CONTINUOUS
10
57.2582
20
-163.728
11
57.163
21
-163.823
0
LINE
8
BLACK
6
CONTINUOUS
10
57.163
20
-163.823
11
57.0677
21
-163.728
0
LINE
8
BLACK
6
CONTINUOUS
10
57.0677
20
-163.728
11
57.163
21
-163.632
0
LINE
8
BLACK
6
CONTINUOUS
10
57.163
20
-163.632
11
57.163
21
-163.823
0
LINE
8
BLACK
6
CONTINUOUS
10
59.0677
20
-161.823
11
58.1153
21
-161.823
0
LINE
8
BLACK
6
CONTINUOUS
10
58.1153
20
-161.823
11
58.0201
21
-162.775
0
LINE
8
BLACK
6
CONTINUOUS
10
58.0201
20
-162.775
11
58.1153
21
-162.68
0
LINE
8
BLACK
6
CONTINUOUS
10
58.1153
20
-162.68
11
58.3058
21
-162.585
0
LINE
8
BLACK
6
CONTINUOUS
10
58.3058
20
-162.585
11
58.782
21
-162.585
0
LINE
8
BLACK
6
CONTINUOUS
10
58.782
20
-162.585
11
58.9725
21
-162.68
0
LINE
8
BLACK
6
CONTINUOUS
10
58.9725
20
-162.68
11
59.0677
21
-162.775
0
LINE
8
BLACK
6
CONTINUOUS
10
59.0677
20
-162.775
11
59.163
21
-162.966
0
LINE
8
BLACK
6
CONTINUOUS
10
59.163
20
-162.966
11
59.163
21
-163.442
0
LINE
8
BLACK
6
CONTINUOUS
10
59.163
20
-163.442
11
59.0677
21
-163.632
0
LINE
8
BLACK
6
CONTINUOUS
10
59.0677
20
-163.632
11
58.9725
21
-163.728
0
LINE
8
BLACK
6
CONTINUOUS
10
58.9725
20
-163.728
11
58.782
21
-163.823
0
LINE
8
BLACK
6
CONTINUOUS
10
58.782
20
-163.823
11
58.3058
21
-163.823
0
LINE
8
BLACK
6
CONTINUOUS
10
58.3058
20
-163.823
11
58.1153
21
-163.728
0
LINE
8
BLACK
6
CONTINUOUS
10
58.1153
20
-163.728
11
58.0201
21
-163.632
0
LINE
8
BLACK
6
CONTINUOUS
10
60.401
20
-161.823
11
60.5915
21
-161.823
0
LINE
8
BLACK
6
CONTINUOUS
10
60.5915
20
-161.823
11
60.782
21
-161.918
0
LINE
8
BLACK
6
CONTINUOUS
10
60.782
20
-161.918
11
60.8772
21
-162.013
0
LINE
8
BLACK
6
CONTINUOUS
10
60.8772
20
-162.013
11
60.9725
21
-162.204
0
LINE
8
BLACK
6
CONTINUOUS
10
60.9725
20
-162.204
11
61.0677
21
-162.585
0
LINE
8
BLACK
6
CONTINUOUS
10
61.0677
20
-162.585
11
61.0677
21
-163.061
0
LINE
8
BLACK
6
CONTINUOUS
10
61.0677
20
-163.061
11
60.9725
21
-163.442
0
LINE
8
BLACK
6
CONTINUOUS
10
60.9725
20
-163.442
11
60.8772
21
-163.632
0
LINE
8
BLACK
6
CONTINUOUS
10
60.8772
20
-163.632
11
60.782
21
-163.728
0
LINE
8
BLACK
6
CONTINUOUS
10
60.782
20
-163.728
11
60.5915
21
-163.823
0
LINE
8
BLACK
6
CONTINUOUS
10
60.5915
20
-163.823
11
60.401
21
-163.823
0
LINE
8
BLACK
6
CONTINUOUS
10
60.401
20
-163.823
11
60.2106
21
-163.728
0
LINE
8
BLACK
6
CONTINUOUS
10
60.2106
20
-163.728
11
60.1153
21
-163.632
0
LINE
8
BLACK
6
CONTINUOUS
10
60.1153
20
-163.632
11
60.0201
21
-163.442
0
LINE
8
BLACK
6
CONTINUOUS
10
60.0201
20
-163.442
11
59.9249
21
-163.061
0
LINE
8
BLACK
6
CONTINUOUS
10
59.9249
20
-163.061
11
59.9249
21
-162.585
0
LINE
8
BLACK
6
CONTINUOUS
10
59.9249
20
-162.585
11
60.0201
21
-162.204
0
LINE
8
BLACK
6
CONTINUOUS
10
60.0201
20
-162.204
11
60.1153
21
-162.013
0
LINE
8
BLACK
6
CONTINUOUS
10
60.1153
20
-162.013
11
60.2106
21
-161.918
0
LINE
8
BLACK
6
CONTINUOUS
10
60.2106
20
-161.918
11
60.401
21
-161.823
0
LINE
8
BLACK
6
CONTINUOUS
10
62.3058
20
-161.823
11
62.4963
21
-161.823
0
LINE
8
BLACK
6
CONTINUOUS
10
62.4963
20
-161.823
11
62.6868
21
-161.918
0
LINE
8
BLACK
6
CONTINUOUS
10
62.6868
20
-161.918
11
62.782
21
-162.013
0
LINE
8
BLACK
6
CONTINUOUS
10
62.782
20
-162.013
11
62.8772
21
-162.204
0
LINE
8
BLACK
6
CONTINUOUS
10
62.8772
20
-162.204
11
62.9725
21
-162.585
0
LINE
8
BLACK
6
CONTINUOUS
10
62.9725
20
-162.585
11
62.9725
21
-163.061
0
LINE
8
BLACK
6
CONTINUOUS
10
62.9725
20
-163.061
11
62.8772
21
-163.442
0
LINE
8
BLACK
6
CONTINUOUS
10
62.8772
20
-163.442
11
62.782
21
-163.632
0
LINE
8
BLACK
6
CONTINUOUS
10
62.782
20
-163.632
11
62.6868
21
-163.728
0
LINE
8
BLACK
6
CONTINUOUS
10
62.6868
20
-163.728
11
62.4963
21
-163.823
0
LINE
8
BLACK
6
CONTINUOUS
10
62.4963
20
-163.823
11
62.3058
21
-163.823
0
LINE
8
BLACK
6
CONTINUOUS
10
62.3058
20
-163.823
11
62.1153
21
-163.728
0
LINE
8
BLACK
6
CONTINUOUS
10
62.1153
20
-163.728
11
62.0201
21
-163.632
0
LINE
8
BLACK
6
CONTINUOUS
10
62.0201
20
-163.632
11
61.9249
21
-163.442
0
LINE
8
BLACK
6
CONTINUOUS
10
61.9249
20
-163.442
11
61.8296
21
-163.061
0
LINE
8
BLACK
6
CONTINUOUS
10
61.8296
20
-163.061
11
61.8296
21
-162.585
0
LINE
8
BLACK
6
CONTINUOUS
10
61.8296
20
-162.585
11
61.9249
21
-162.204
0
LINE
8
BLACK
6
CONTINUOUS
10
61.9249
20
-162.204
11
62.0201
21
-162.013
0
LINE
8
BLACK
6
CONTINUOUS
10
62.0201
20
-162.013
11
62.1153
21
-161.918
0
LINE
8
BLACK
6
CONTINUOUS
10
62.1153
20
-161.918
11
62.3058
21
-161.823
0
LINE
8
BLACK
6
CONTINUOUS
10
63.8296
20
-163.823
11
63.8296
21
-162.489
0
LINE
8
BLACK
6
CONTINUOUS
10
63.8296
20
-162.68
11
63.9249
21
-162.585
0
LINE
8
BLACK
6
CONTINUOUS
10
63.9249
20
-162.585
11
64.1153
21
-162.489
0
LINE
8
BLACK
6
CONTINUOUS
10
64.1153
20
-162.489
11
64.401
21
-162.489
0
LINE
8
BLACK
6
CONTINUOUS
10
64.401
20
-162.489
11
64.5915
21
-162.585
0
LINE
8
BLACK
6
CONTINUOUS
10
64.5915
20
-162.585
11
64.6868
21
-162.775
0
LINE
8
BLACK
6
CONTINUOUS
10
64.6868
20
-162.775
11
64.6868
21
-163.823
0
LINE
8
BLACK
6
CONTINUOUS
10
64.6868
20
-162.775
11
64.782
21
-162.585
0
LINE
8
BLACK
6
CONTINUOUS
10
64.782
20
-162.585
11
64.9725
21
-162.489
0
LINE
8
BLACK
6
CONTINUOUS
10
64.9725
20
-162.489
11
65.2582
21
-162.489
0
LINE
8
BLACK
6
CONTINUOUS
10
65.2582
20
-162.489
11
65.4487
21
-162.585
0
LINE
8
BLACK
6
CONTINUOUS
10
65.4487
20
-162.585
11
65.5439
21
-162.775
0
LINE
8
BLACK
6
CONTINUOUS
10
65.5439
20
-162.775
11
65.5439
21
-163.823
0
LINE
8
BLACK
6
CONTINUOUS
10
66.4963
20
-163.823
11
66.4963
21
-162.489
0
LINE
8
BLACK
6
CONTINUOUS
10
66.4963
20
-162.68
11
66.5915
21
-162.585
0
LINE
8
BLACK
6
CONTINUOUS
10
66.5915
20
-162.585
11
66.782
21
-162.489
0
LINE
8
BLACK
6
CONTINUOUS
10
66.782
20
-162.489
11
67.0677
21
-162.489
0
LINE
8
BLACK
6
CONTINUOUS
10
67.0677
20
-162.489
11
67.2582
21
-162.585
0
LINE
8
BLACK
6
CONTINUOUS
10
67.2582
20
-162.585
11
67.3534
21
-162.775
0
LINE
8
BLACK
6
CONTINUOUS
10
67.3534
20
-162.775
11
67.3534
21
-163.823
0
LINE
8
BLACK
6
CONTINUOUS
10
67.3534
20
-162.775
11
67.4487
21
-162.585
0
LINE
8
BLACK
6
CONTINUOUS
10
67.4487
20
-162.585
11
67.6391
21
-162.489
0
LINE
8
BLACK
6
CONTINUOUS
10
67.6391
20
-162.489
11
67.9249
21
-162.489
0
LINE
8
BLACK
6
CONTINUOUS
10
67.9249
20
-162.489
11
68.1153
21
-162.585
0
LINE
8
BLACK
6
CONTINUOUS
10
68.1153
20
-162.585
11
68.2106
21
-162.775
0
LINE
8
BLACK
6
CONTINUOUS
10
68.2106
20
-162.775
11
68.2106
21
-163.823
0
LINE
8
BLACK
6
CONTINUOUS
10
72.1153
20
-161.728
11
70.401
21
-164.299
0
LINE
8
BLACK
6
CONTINUOUS
10
74.6868
20
-161.823
11
74.8772
21
-161.823
0
LINE
8
BLACK
6
CONTINUOUS
10
74.8772
20
-161.823
11
75.0677
21
-161.918
0
LINE
8
BLACK
6
CONTINUOUS
10
75.0677
20
-161.918
11
75.163
21
-162.013
0
LINE
8
BLACK
6
CONTINUOUS
10
75.163
20
-162.013
11
75.2582
21
-162.204
0
LINE
8
BLACK
6
CONTINUOUS
10
75.2582
20
-162.204
11
75.3534
21
-162.585
0
LINE
8
BLACK
6
CONTINUOUS
10
75.3534
20
-162.585
11
75.3534
21
-163.061
0
LINE
8
BLACK
6
CONTINUOUS
10
75.3534
20
-163.061
11
75.2582
21
-163.442
0
LINE
8
BLACK
6
CONTINUOUS
10
75.2582
20
-163.442
11
75.163
21
-163.632
0
LINE
8
BLACK
6
CONTINUOUS
10
75.163
20
-163.632
11
75.0677
21
-163.728
0
LINE
8
BLACK
6
CONTINUOUS
10
75.0677
20
-163.728
11
74.8772
21
-163.823
0
LINE
8
BLACK
6
CONTINUOUS
10
74.8772
20
-163.823
11
74.6868
21
-163.823
0
LINE
8
BLACK
6
CONTINUOUS
10
74.6868
20
-163.823
11
74.4963
21
-163.728
0
LINE
8
BLACK
6
CONTINUOUS
10
74.4963
20
-163.728
11
74.401
21
-163.632
0
LINE
8
BLACK
6
CONTINUOUS
10
74.401
20
-163.632
11
74.3058
21
-163.442
0
LINE
8
BLACK
6
CONTINUOUS
10
74.3058
20
-163.442
11
74.2106
21
-163.061
0
LINE
8
BLACK
6
CONTINUOUS
10
74.2106
20
-163.061
11
74.2106
21
-162.585
0
LINE
8
BLACK
6
CONTINUOUS
10
74.2106
20
-162.585
11
74.3058
21
-162.204
0
LINE
8
BLACK
6
CONTINUOUS
10
74.3058
20
-162.204
11
74.401
21
-162.013
0
LINE
8
BLACK
6
CONTINUOUS
10
74.401
20
-162.013
11
74.4963
21
-161.918
0
LINE
8
BLACK
6
CONTINUOUS
10
74.4963
20
-161.918
11
74.6868
21
-161.823
0
LINE
8
BLACK
6
CONTINUOUS
10
76.2106
20
-163.632
11
76.3058
21
-163.728
0
LINE
8
BLACK
6
CONTINUOUS
10
76.3058
20
-163.728
11
76.2106
21
-163.823
0
LINE
8
BLACK
6
CONTINUOUS
10
76.2106
20
-163.823
11
76.1153
21
-163.728
0
LINE
8
BLACK
6
CONTINUOUS
10
76.1153
20
-163.728
11
76.2106
21
-163.632
0
LINE
8
BLACK
6
CONTINUOUS
10
76.2106
20
-163.632
11
76.2106
21
-163.823
0
LINE
8
BLACK
6
CONTINUOUS
10
77.5439
20
-161.823
11
77.7344
21
-161.823
0
LINE
8
BLACK
6
CONTINUOUS
10
77.7344
20
-161.823
11
77.9249
21
-161.918
0
LINE
8
BLACK
6
CONTINUOUS
10
77.9249
20
-161.918
11
78.0201
21
-162.013
0
LINE
8
BLACK
6
CONTINUOUS
10
78.0201
20
-162.013
11
78.1153
21
-162.204
0
LINE
8
BLACK
6
CONTINUOUS
10
78.1153
20
-162.204
11
78.2106
21
-162.585
0
LINE
8
BLACK
6
CONTINUOUS
10
78.2106
20
-162.585
11
78.2106
21
-163.061
0
LINE
8
BLACK
6
CONTINUOUS
10
78.2106
20
-163.061
11
78.1153
21
-163.442
0
LINE
8
BLACK
6
CONTINUOUS
10
78.1153
20
-163.442
11
78.0201
21
-163.632
0
LINE
8
BLACK
6
CONTINUOUS
10
78.0201
20
-163.632
11
77.9249
21
-163.728
0
LINE
8
BLACK
6
CONTINUOUS
10
77.9249
20
-163.728
11
77.7344
21
-163.823
0
LINE
8
BLACK
6
CONTINUOUS
10
77.7344
20
-163.823
11
77.5439
21
-163.823
0
LINE
8
BLACK
6
CONTINUOUS
10
77.5439
20
-163.823
11
77.3534
21
-163.728
0
LINE
8
BLACK
6
CONTINUOUS
10
77.3534
20
-163.728
11
77.2582
21
-163.632
0
LINE
8
BLACK
6
CONTINUOUS
10
77.2582
20
-163.632
11
77.163
21
-163.442
0
LINE
8
BLACK
6
CONTINUOUS
10
77.163
20
-163.442
11
77.0677
21
-163.061
0
LINE
8
BLACK
6
CONTINUOUS
10
77.0677
20
-163.061
11
77.0677
21
-162.585
0
LINE
8
BLACK
6
CONTINUOUS
10
77.0677
20
-162.585
11
77.163
21
-162.204
0
LINE
8
BLACK
6
CONTINUOUS
10
77.163
20
-162.204
11
77.2582
21
-162.013
0
LINE
8
BLACK
6
CONTINUOUS
10
77.2582
20
-162.013
11
77.3534
21
-161.918
0
LINE
8
BLACK
6
CONTINUOUS
10
77.3534
20
-161.918
11
77.5439
21
-161.823
0
LINE
8
BLACK
6
CONTINUOUS
10
79.163
20
-163.823
11
79.5439
21
-163.823
0
LINE
8
BLACK
6
CONTINUOUS
10
79.5439
20
-163.823
11
79.7344
21
-163.728
0
LINE
8
BLACK
6
CONTINUOUS
10
79.7344
20
-163.728
11
79.8296
21
-163.632
0
LINE
8
BLACK
6
CONTINUOUS
10
79.8296
20
-163.632
11
80.0201
21
-163.347
0
LINE
8
BLACK
6
CONTINUOUS
10
80.0201
20
-163.347
11
80.1153
21
-162.966
0
LINE
8
BLACK
6
CONTINUOUS
10
80.1153
20
-162.966
11
80.1153
21
-162.204
0
LINE
8
BLACK
6
CONTINUOUS
10
80.1153
20
-162.204
11
80.0201
21
-162.013
0
LINE
8
BLACK
6
CONTINUOUS
10
80.0201
20
-162.013
11
79.9249
21
-161.918
0
LINE
8
BLACK
6
CONTINUOUS
10
79.9249
20
-161.918
11
79.7344
21
-161.823
0
LINE
8
BLACK
6
CONTINUOUS
10
79.7344
20
-161.823
11
79.3534
21
-161.823
0
LINE
8
BLACK
6
CONTINUOUS
10
79.3534
20
-161.823
11
79.163
21
-161.918
0
LINE
8
BLACK
6
CONTINUOUS
10
79.163
20
-161.918
11
79.0677
21
-162.013
0
LINE
8
BLACK
6
CONTINUOUS
10
79.0677
20
-162.013
11
78.9725
21
-162.204
0
LINE
8
BLACK
6
CONTINUOUS
10
78.9725
20
-162.204
11
78.9725
21
-162.68
0
LINE
8
BLACK
6
CONTINUOUS
10
78.9725
20
-162.68
11
79.0677
21
-162.87
0
LINE
8
BLACK
6
CONTINUOUS
10
79.0677
20
-162.87
11
79.163
21
-162.966
0
LINE
8
BLACK
6
CONTINUOUS
10
79.163
20
-162.966
11
79.3534
21
-163.061
0
LINE
8
BLACK
6
CONTINUOUS
10
79.3534
20
-163.061
11
79.7344
21
-163.061
0
LINE
8
BLACK
6
CONTINUOUS
10
79.7344
20
-163.061
11
79.9249
21
-162.966
0
LINE
8
BLACK
6
CONTINUOUS
10
79.9249
20
-162.966
11
80.0201
21
-162.87
0
LINE
8
BLACK
6
CONTINUOUS
10
80.0201
20
-162.87
11
80.1153
21
-162.68
0
LINE
8
BLACK
6
CONTINUOUS
10
81.2582
20
-162.68
11
81.0677
21
-162.585
0
LINE
8
BLACK
6
CONTINUOUS
10
81.0677
20
-162.585
11
80.9725
21
-162.489
0
LINE
8
BLACK
6
CONTINUOUS
10
80.9725
20
-162.489
11
80.8772
21
-162.299
0
LINE
8
BLACK
6
CONTINUOUS
10
80.8772
20
-162.299
11
80.8772
21
-162.204
0
LINE
8
BLACK
6
CONTINUOUS
10
80.8772
20
-162.204
11
80.9725
21
-162.013
0
LINE
8
BLACK
6
CONTINUOUS
10
80.9725
20
-162.013
11
81.0677
21
-161.918
0
LINE
8
BLACK
6
CONTINUOUS
10
81.0677
20
-161.918
11
81.2582
21
-161.823
0
LINE
8
BLACK
6
CONTINUOUS
10
81.2582
20
-161.823
11
81.6391
21
-161.823
0
LINE
8
BLACK
6
CONTINUOUS
10
81.6391
20
-161.823
11
81.8296
21
-161.918
0
LINE
8
BLACK
6
CONTINUOUS
10
81.8296
20
-161.918
11
81.9249
21
-162.013
0
LINE
8
BLACK
6
CONTINUOUS
10
81.9249
20
-162.013
11
82.0201
21
-162.204
0
LINE
8
BLACK
6
CONTINUOUS
10
82.0201
20
-162.204
11
82.0201
21
-162.299
0
LINE
8
BLACK
6
CONTINUOUS
10
82.0201
20
-162.299
11
81.9249
21
-162.489
0
LINE
8
BLACK
6
CONTINUOUS
10
81.9249
20
-162.489
11
81.8296
21
-162.585
0
LINE
8
BLACK
6
CONTINUOUS
10
81.8296
20
-162.585
11
81.6391
21
-162.68
0
LINE
8
BLACK
6
CONTINUOUS
10
81.6391
20
-162.68
11
81.2582
21
-162.68
0
LINE
8
BLACK
6
CONTINUOUS
10
81.2582
20
-162.68
11
81.0677
21
-162.775
0
LINE
8
BLACK
6
CONTINUOUS
10
81.0677
20
-162.775
11
80.9725
21
-162.87
0
LINE
8
BLACK
6
CONTINUOUS
10
80.9725
20
-162.87
11
80.8772
21
-163.061
0
LINE
8
BLACK
6
CONTINUOUS
10
80.8772
20
-163.061
11
80.8772
21
-163.442
0
LINE
8
BLACK
6
CONTINUOUS
10
80.8772
20
-163.442
11
80.9725
21
-163.632
0
LINE
8
BLACK
6
CONTINUOUS
10
80.9725
20
-163.632
11
81.0677
21
-163.728
0
LINE
8
BLACK
6
CONTINUOUS
10
81.0677
20
-163.728
11
81.2582
21
-163.823
0
LINE
8
BLACK
6
CONTINUOUS
10
81.2582
20
-163.823
11
81.6391
21
-163.823
0
LINE
8
BLACK
6
CONTINUOUS
10
81.6391
20
-163.823
11
81.8296
21
-163.728
0
LINE
8
BLACK
6
CONTINUOUS
10
81.8296
20
-163.728
11
81.9249
21
-163.632
0
LINE
8
BLACK
6
CONTINUOUS
10
81.9249
20
-163.632
11
82.0201
21
-163.442
0
LINE
8
BLACK
6
CONTINUOUS
10
82.0201
20
-163.442
11
82.0201
21
-163.061
0
LINE
8
BLACK
6
CONTINUOUS
10
82.0201
20
-163.061
11
81.9249
21
-162.87
0
LINE
8
BLACK
6
CONTINUOUS
10
81.9249
20
-162.87
11
81.8296
21
-162.775
0
LINE
8
BLACK
6
CONTINUOUS
10
81.8296
20
-162.775
11
81.6391
21
-162.68
0
LINE
8
BLACK
6
CONTINUOUS
10
83.7344
20
-162.489
11
83.7344
21
-163.823
0
LINE
8
BLACK
6
CONTINUOUS
10
83.2582
20
-161.728
11
82.782
21
-163.156
0
LINE
8
BLACK
6
CONTINUOUS
10
82.782
20
-163.156
11
84.0201
21
-163.156
0
LINE
8
BLACK
6
CONTINUOUS
10
84.6868
20
-161.823
11
84.6868
21
-162.204
0
LINE
8
BLACK
6
CONTINUOUS
10
85.4487
20
-161.823
11
85.4487
21
-162.204
0
LINE
8
BLACK
6
CONTINUOUS
10
88.401
20
-164.585
11
88.3058
21
-164.489
0
LINE
8
BLACK
6
CONTINUOUS
10
88.3058
20
-164.489
11
88.1153
21
-164.204
0
LINE
8
BLACK
6
CONTINUOUS
10
88.1153
20
-164.204
11
88.0201
21
-164.013
0
LINE
8
BLACK
6
CONTINUOUS
10
88.0201
20
-164.013
11
87.9249
21
-163.728
0
LINE
8
BLACK
6
CONTINUOUS
10
87.9249
20
-163.728
11
87.8296
21
-163.251
0
LINE
8
BLACK
6
CONTINUOUS
10
87.8296
20
-163.251
11
87.8296
21
-162.87
0
LINE
8
BLACK
6
CONTINUOUS
10
87.8296
20
-162.87
11
87.9249
21
-162.394
0
LINE
8
BLACK
6
CONTINUOUS
10
87.9249
20
-162.394
11
88.0201
21
-162.108
0
LINE
8
BLACK
6
CONTINUOUS
10
88.0201
20
-162.108
11
88.1153
21
-161.918
0
LINE
8
BLACK
6
CONTINUOUS
10
88.1153
20
-161.918
11
88.3058
21
-161.632
0
LINE
8
BLACK
6
CONTINUOUS
10
88.3058
20
-161.632
11
88.401
21
-161.537
0
LINE
8
BLACK
6
CONTINUOUS
10
90.0201
20
-162.489
11
90.0201
21
-163.823
0
LINE
8
BLACK
6
CONTINUOUS
10
89.5439
20
-161.728
11
89.0677
21
-163.156
0
LINE
8
BLACK
6
CONTINUOUS
10
89.0677
20
-163.156
11
90.3058
21
-163.156
0
LINE
8
BLACK
6
CONTINUOUS
10
92.5915
20
-163.823
11
92.5915
21
-161.823
0
LINE
8
BLACK
6
CONTINUOUS
10
93.4487
20
-163.823
11
93.4487
21
-162.775
0
LINE
8
BLACK
6
CONTINUOUS
10
93.4487
20
-162.775
11
93.3534
21
-162.585
0
LINE
8
BLACK
6
CONTINUOUS
10
93.3534
20
-162.585
11
93.163
21
-162.489
0
LINE
8
BLACK
6
CONTINUOUS
10
93.163
20
-162.489
11
92.8772
21
-162.489
0
LINE
8
BLACK
6
CONTINUOUS
10
92.8772
20
-162.489
11
92.6868
21
-162.585
0
LINE
8
BLACK
6
CONTINUOUS
10
92.6868
20
-162.585
11
92.5915
21
-162.68
0
LINE
8
BLACK
6
CONTINUOUS
10
94.6868
20
-163.823
11
94.4963
21
-163.728
0
LINE
8
BLACK
6
CONTINUOUS
10
94.4963
20
-163.728
11
94.401
21
-163.632
0
LINE
8
BLACK
6
CONTINUOUS
10
94.401
20
-163.632
11
94.3058
21
-163.442
0
LINE
8
BLACK
6
CONTINUOUS
10
94.3058
20
-163.442
11
94.3058
21
-162.87
0
LINE
8
BLACK
6
CONTINUOUS
10
94.3058
20
-162.87
11
94.401
21
-162.68
0
LINE
8
BLACK
6
CONTINUOUS
10
94.401
20
-162.68
11
94.4963
21
-162.585
0
LINE
8
BLACK
6
CONTINUOUS
10
94.4963
20
-162.585
11
94.6868
21
-162.489
0
LINE
8
BLACK
6
CONTINUOUS
10
94.6868
20
-162.489
11
94.9725
21
-162.489
0
LINE
8
BLACK
6
CONTINUOUS
10
94.9725
20
-162.489
11
95.163
21
-162.585
0
LINE
8
BLACK
6
CONTINUOUS
10
95.163
20
-162.585
11
95.2582
21
-162.68
0
LINE
8
BLACK
6
CONTINUOUS
10
95.2582
20
-162.68
11
95.3534
21
-162.87
0
LINE
8
BLACK
6
CONTINUOUS
10
95.3534
20
-162.87
11
95.3534
21
-163.442
0
LINE
8
BLACK
6
CONTINUOUS
10
95.3534
20
-163.442
11
95.2582
21
-163.632
0
LINE
8
BLACK
6
CONTINUOUS
10
95.2582
20
-163.632
11
95.163
21
-163.728
0
LINE
8
BLACK
6
CONTINUOUS
10
95.163
20
-163.728
11
94.9725
21
-163.823
0
LINE
8
BLACK
6
CONTINUOUS
10
94.9725
20
-163.823
11
94.6868
21
-163.823
0
LINE
8
BLACK
6
CONTINUOUS
10
96.4963
20
-163.823
11
96.3058
21
-163.728
0
LINE
8
BLACK
6
CONTINUOUS
10
96.3058
20
-163.728
11
96.2106
21
-163.537
0
LINE
8
BLACK
6
CONTINUOUS
10
96.2106
20
-163.537
11
96.2106
21
-161.823
0
LINE
8
BLACK
6
CONTINUOUS
10
98.0201
20
-163.728
11
97.8296
21
-163.823
0
LINE
8
BLACK
6
CONTINUOUS
10
97.8296
20
-163.823
11
97.4487
21
-163.823
0
LINE
8
BLACK
6
CONTINUOUS
10
97.4487
20
-163.823
11
97.2582
21
-163.728
0
LINE
8
BLACK
6
CONTINUOUS
10
97.2582
20
-163.728
11
97.163
21
-163.537
0
LINE
8
BLACK
6
CONTINUOUS
10
97.163
20
-163.537
11
97.163
21
-162.775
0
LINE
8
BLACK
6
CONTINUOUS
10
97.163
20
-162.775
11
97.2582
21
-162.585
0
LINE
8
BLACK
6
CONTINUOUS
10
97.2582
20
-162.585
11
97.4487
21
-162.489
0
LINE
8
BLACK
6
CONTINUOUS
10
97.4487
20
-162.489
11
97.8296
21
-162.489
0
LINE
8
BLACK
6
CONTINUOUS
10
97.8296
20
-162.489
11
98.0201
21
-162.585
0
LINE
8
BLACK
6
CONTINUOUS
10
98.0201
20
-162.585
11
98.1153
21
-162.775
0
LINE
8
BLACK
6
CONTINUOUS
10
98.1153
20
-162.775
11
98.1153
21
-162.966
0
LINE
8
BLACK
6
CONTINUOUS
10
98.1153
20
-162.966
11
97.163
21
-163.156
0
LINE
8
BLACK
6
CONTINUOUS
10
98.8772
20
-163.728
11
99.0677
21
-163.823
0
LINE
8
BLACK
6
CONTINUOUS
10
99.0677
20
-163.823
11
99.4487
21
-163.823
0
LINE
8
BLACK
6
CONTINUOUS
10
99.4487
20
-163.823
11
99.6391
21
-163.728
0
LINE
8
BLACK
6
CONTINUOUS
10
99.6391
20
-163.728
11
99.7344
21
-163.537
0
LINE
8
BLACK
6
CONTINUOUS
10
99.7344
20
-163.537
11
99.7344
21
-163.442
0
LINE
8
BLACK
6
CONTINUOUS
10
99.7344
20
-163.442
11
99.6391
21
-163.251
0
LINE
8
BLACK
6
CONTINUOUS
10
99.6391
20
-163.251
11
99.4487
21
-163.156
0
LINE
8
BLACK
6
CONTINUOUS
10
99.4487
20
-163.156
11
99.163
21
-163.156
0
LINE
8
BLACK
6
CONTINUOUS
10
99.163
20
-163.156
11
98.9725
21
-163.061
0
LINE
8
BLACK
6
CONTINUOUS
10
98.9725
20
-163.061
11
98.8772
21
-162.87
0
LINE
8
BLACK
6
CONTINUOUS
10
98.8772
20
-162.87
11
98.8772
21
-162.775
0
LINE
8
BLACK
6
CONTINUOUS
10
98.8772
20
-162.775
11
98.9725
21
-162.585
0
LINE
8
BLACK
6
CONTINUOUS
10
98.9725
20
-162.585
11
99.163
21
-162.489
0
LINE
8
BLACK
6
CONTINUOUS
10
99.163
20
-162.489
11
99.4487
21
-162.489
0
LINE
8
BLACK
6
CONTINUOUS
10
99.4487
20
-162.489
11
99.6391
21
-162.585
0
LINE
8
BLACK
6
CONTINUOUS
10
100.401
20
-164.585
11
100.496
21
-164.489
0
LINE
8
BLACK
6
CONTINUOUS
10
100.496
20
-164.489
11
100.687
21
-164.204
0
LINE
8
BLACK
6
CONTINUOUS
10
100.687
20
-164.204
11
100.782
21
-164.013
0
LINE
8
BLACK
6
CONTINUOUS
10
100.782
20
-164.013
11
100.877
21
-163.728
0
LINE
8
BLACK
6
CONTINUOUS
10
100.877
20
-163.728
11
100.972
21
-163.251
0
LINE
8
BLACK
6
CONTINUOUS
10
100.972
20
-163.251
11
100.972
21
-162.87
0
LINE
8
BLACK
6
CONTINUOUS
10
100.972
20
-162.87
11
100.877
21
-162.394
0
LINE
8
BLACK
6
CONTINUOUS
10
100.877
20
-162.394
11
100.782
21
-162.108
0
LINE
8
BLACK
6
CONTINUOUS
10
100.782
20
-162.108
11
100.687
21
-161.918
0
LINE
8
BLACK
6
CONTINUOUS
10
100.687
20
-161.918
11
100.496
21
-161.632
0
LINE
8
BLACK
6
CONTINUOUS
10
100.496
20
-161.632
11
100.401
21
-161.537
0
LINE
8
BLACK
6
CONTINUOUS
10
104.02
20
-164.585
11
103.925
21
-164.489
0
LINE
8
BLACK
6
CONTINUOUS
10
103.925
20
-164.489
11
103.734
21
-164.204
0
LINE
8
BLACK
6
CONTINUOUS
10
103.734
20
-164.204
11
103.639
21
-164.013
0
LINE
8
BLACK
6
CONTINUOUS
10
103.639
20
-164.013
11
103.544
21
-163.728
0
LINE
8
BLACK
6
CONTINUOUS
10
103.544
20
-163.728
11
103.449
21
-163.251
0
LINE
8
BLACK
6
CONTINUOUS
10
103.449
20
-163.251
11
103.449
21
-162.87
0
LINE
8
BLACK
6
CONTINUOUS
10
103.449
20
-162.87
11
103.544
21
-162.394
0
LINE
8
BLACK
6
CONTINUOUS
10
103.544
20
-162.394
11
103.639
21
-162.108
0
LINE
8
BLACK
6
CONTINUOUS
10
103.639
20
-162.108
11
103.734
21
-161.918
0
LINE
8
BLACK
6
CONTINUOUS
10
103.734
20
-161.918
11
103.925
21
-161.632
0
LINE
8
BLACK
6
CONTINUOUS
10
103.925
20
-161.632
11
104.02
21
-161.537
0
LINE
8
BLACK
6
CONTINUOUS
10
104.782
20
-162.489
11
104.782
21
-163.823
0
LINE
8
BLACK
6
CONTINUOUS
10
104.782
20
-162.68
11
104.877
21
-162.585
0
LINE
8
BLACK
6
CONTINUOUS
10
104.877
20
-162.585
11
105.068
21
-162.489
0
LINE
8
BLACK
6
CONTINUOUS
10
105.068
20
-162.489
11
105.353
21
-162.489
0
LINE
8
BLACK
6
CONTINUOUS
10
105.353
20
-162.489
11
105.544
21
-162.585
0
LINE
8
BLACK
6
CONTINUOUS
10
105.544
20
-162.585
11
105.639
21
-162.775
0
LINE
8
BLACK
6
CONTINUOUS
10
105.639
20
-162.775
11
105.639
21
-163.823
0
LINE
8
BLACK
6
CONTINUOUS
10
106.877
20
-163.823
11
106.687
21
-163.728
0
LINE
8
BLACK
6
CONTINUOUS
10
106.687
20
-163.728
11
106.592
21
-163.632
0
LINE
8
BLACK
6
CONTINUOUS
10
106.592
20
-163.632
11
106.496
21
-163.442
0
LINE
8
BLACK
6
CONTINUOUS
10
106.496
20
-163.442
11
106.496
21
-162.87
0
LINE
8
BLACK
6
CONTINUOUS
10
106.496
20
-162.87
11
106.592
21
-162.68
0
LINE
8
BLACK
6
CONTINUOUS
10
106.592
20
-162.68
11
106.687
21
-162.585
0
LINE
8
BLACK
6
CONTINUOUS
10
106.687
20
-162.585
11
106.877
21
-162.489
0
LINE
8
BLACK
6
CONTINUOUS
10
106.877
20
-162.489
11
107.163
21
-162.489
0
LINE
8
BLACK
6
CONTINUOUS
10
107.163
20
-162.489
11
107.353
21
-162.585
0
LINE
8
BLACK
6
CONTINUOUS
10
107.353
20
-162.585
11
107.449
21
-162.68
0
LINE
8
BLACK
6
CONTINUOUS
10
107.449
20
-162.68
11
107.544
21
-162.87
0
LINE
8
BLACK
6
CONTINUOUS
10
107.544
20
-162.87
11
107.544
21
-163.442
0
LINE
8
BLACK
6
CONTINUOUS
10
107.544
20
-163.442
11
107.449
21
-163.632
0
LINE
8
BLACK
6
CONTINUOUS
10
107.449
20
-163.632
11
107.353
21
-163.728
0
LINE
8
BLACK
6
CONTINUOUS
10
107.353
20
-163.728
11
107.163
21
-163.823
0
LINE
8
BLACK
6
CONTINUOUS
10
107.163
20
-163.823
11
106.877
21
-163.823
0
LINE
8
BLACK
6
CONTINUOUS
10
108.115
20
-162.489
11
108.877
21
-162.489
0
LINE
8
BLACK
6
CONTINUOUS
10
108.401
20
-161.823
11
108.401
21
-163.537
0
LINE
8
BLACK
6
CONTINUOUS
10
108.401
20
-163.537
11
108.496
21
-163.728
0
LINE
8
BLACK
6
CONTINUOUS
10
108.496
20
-163.728
11
108.687
21
-163.823
0
LINE
8
BLACK
6
CONTINUOUS
10
108.687
20
-163.823
11
108.877
21
-163.823
0
LINE
8
BLACK
6
CONTINUOUS
10
111.068
20
-162.489
11
111.068
21
-164.489
0
LINE
8
BLACK
6
CONTINUOUS
10
111.068
20
-162.585
11
111.258
21
-162.489
0
LINE
8
BLACK
6
CONTINUOUS
10
111.258
20
-162.489
11
111.639
21
-162.489
0
LINE
8
BLACK
6
CONTINUOUS
10
111.639
20
-162.489
11
111.83
21
-162.585
0
LINE
8
BLACK
6
CONTINUOUS
10
111.83
20
-162.585
11
111.925
21
-162.68
0
LINE
8
BLACK
6
CONTINUOUS
10
111.925
20
-162.68
11
112.02
21
-162.87
0
LINE
8
BLACK
6
CONTINUOUS
10
112.02
20
-162.87
11
112.02
21
-163.442
0
LINE
8
BLACK
6
CONTINUOUS
10
112.02
20
-163.442
11
111.925
21
-163.632
0
LINE
8
BLACK
6
CONTINUOUS
10
111.925
20
-163.632
11
111.83
21
-163.728
0
LINE
8
BLACK
6
CONTINUOUS
10
111.83
20
-163.728
11
111.639
21
-163.823
0
LINE
8
BLACK
6
CONTINUOUS
10
111.639
20
-163.823
11
111.258
21
-163.823
0
LINE
8
BLACK
6
CONTINUOUS
10
111.258
20
-163.823
11
111.068
21
-163.728
0
LINE
8
BLACK
6
CONTINUOUS
10
113.163
20
-163.823
11
112.972
21
-163.728
0
LINE
8
BLACK
6
CONTINUOUS
10
112.972
20
-163.728
11
112.877
21
-163.537
0
LINE
8
BLACK
6
CONTINUOUS
10
112.877
20
-163.537
11
112.877
21
-161.823
0
LINE
8
BLACK
6
CONTINUOUS
10
114.782
20
-163.823
11
114.782
21
-162.775
0
LINE
8
BLACK
6
CONTINUOUS
10
114.782
20
-162.775
11
114.687
21
-162.585
0
LINE
8
BLACK
6
CONTINUOUS
10
114.687
20
-162.585
11
114.496
21
-162.489
0
LINE
8
BLACK
6
CONTINUOUS
10
114.496
20
-162.489
11
114.115
21
-162.489
0
LINE
8
BLACK
6
CONTINUOUS
10
114.115
20
-162.489
11
113.925
21
-162.585
0
LINE
8
BLACK
6
CONTINUOUS
10
114.782
20
-163.728
11
114.592
21
-163.823
0
LINE
8
BLACK
6
CONTINUOUS
10
114.592
20
-163.823
11
114.115
21
-163.823
0
LINE
8
BLACK
6
CONTINUOUS
10
114.115
20
-163.823
11
113.925
21
-163.728
0
LINE
8
BLACK
6
CONTINUOUS
10
113.925
20
-163.728
11
113.83
21
-163.537
0
LINE
8
BLACK
6
CONTINUOUS
10
113.83
20
-163.537
11
113.83
21
-163.347
0
LINE
8
BLACK
6
CONTINUOUS
10
113.83
20
-163.347
11
113.925
21
-163.156
0
LINE
8
BLACK
6
CONTINUOUS
10
113.925
20
-163.156
11
114.115
21
-163.061
0
LINE
8
BLACK
6
CONTINUOUS
10
114.115
20
-163.061
11
114.592
21
-163.061
0
LINE
8
BLACK
6
CONTINUOUS
10
114.592
20
-163.061
11
114.782
21
-162.966
0
LINE
8
BLACK
6
CONTINUOUS
10
115.449
20
-162.489
11
116.211
21
-162.489
0
LINE
8
BLACK
6
CONTINUOUS
10
115.734
20
-161.823
11
115.734
21
-163.537
0
LINE
8
BLACK
6
CONTINUOUS
10
115.734
20
-163.537
11
115.83
21
-163.728
0
LINE
8
BLACK
6
CONTINUOUS
10
115.83
20
-163.728
11
116.02
21
-163.823
0
LINE
8
BLACK
6
CONTINUOUS
10
116.02
20
-163.823
11
116.211
21
-163.823
0
LINE
8
BLACK
6
CONTINUOUS
10
117.639
20
-163.728
11
117.449
21
-163.823
0
LINE
8
BLACK
6
CONTINUOUS
10
117.449
20
-163.823
11
117.068
21
-163.823
0
LINE
8
BLACK
6
CONTINUOUS
10
117.068
20
-163.823
11
116.877
21
-163.728
0
LINE
8
BLACK
6
CONTINUOUS
10
116.877
20
-163.728
11
116.782
21
-163.537
0
LINE
8
BLACK
6
CONTINUOUS
10
116.782
20
-163.537
11
116.782
21
-162.775
0
LINE
8
BLACK
6
CONTINUOUS
10
116.782
20
-162.775
11
116.877
21
-162.585
0
LINE
8
BLACK
6
CONTINUOUS
10
116.877
20
-162.585
11
117.068
21
-162.489
0
LINE
8
BLACK
6
CONTINUOUS
10
117.068
20
-162.489
11
117.449
21
-162.489
0
LINE
8
BLACK
6
CONTINUOUS
10
117.449
20
-162.489
11
117.639
21
-162.585
0
LINE
8
BLACK
6
CONTINUOUS
10
117.639
20
-162.585
11
117.734
21
-162.775
0
LINE
8
BLACK
6
CONTINUOUS
10
117.734
20
-162.775
11
117.734
21
-162.966
0
LINE
8
BLACK
6
CONTINUOUS
10
117.734
20
-162.966
11
116.782
21
-163.156
0
LINE
8
BLACK
6
CONTINUOUS
10
119.449
20
-163.823
11
119.449
21
-161.823
0
LINE
8
BLACK
6
CONTINUOUS
10
119.449
20
-163.728
11
119.258
21
-163.823
0
LINE
8
BLACK
6
CONTINUOUS
10
119.258
20
-163.823
11
118.877
21
-163.823
0
LINE
8
BLACK
6
CONTINUOUS
10
118.877
20
-163.823
11
118.687
21
-163.728
0
LINE
8
BLACK
6
CONTINUOUS
10
118.687
20
-163.728
11
118.592
21
-163.632
0
LINE
8
BLACK
6
CONTINUOUS
10
118.592
20
-163.632
11
118.496
21
-163.442
0
LINE
8
BLACK
6
CONTINUOUS
10
118.496
20
-163.442
11
118.496
21
-162.87
0
LINE
8
BLACK
6
CONTINUOUS
10
118.496
20
-162.87
11
118.592
21
-162.68
0
LINE
8
BLACK
6
CONTINUOUS
10
118.592
20
-162.68
11
118.687
21
-162.585
0
LINE
8
BLACK
6
CONTINUOUS
10
118.687
20
-162.585
11
118.877
21
-162.489
0
LINE
8
BLACK
6
CONTINUOUS
10
118.877
20
-162.489
11
119.258
21
-162.489
0
LINE
8
BLACK
6
CONTINUOUS
10
119.258
20
-162.489
11
119.449
21
-162.585
0
LINE
8
BLACK
6
CONTINUOUS
10
120.211
20
-164.585
11
120.306
21
-164.489
0
LINE
8
BLACK
6
CONTINUOUS
10
120.306
20
-164.489
11
120.496
21
-164.204
0
LINE
8
BLACK
6
CONTINUOUS
10
120.496
20
-164.204
11
120.592
21
-164.013
0
LINE
8
BLACK
6
CONTINUOUS
10
120.592
20
-164.013
11
120.687
21
-163.728
0
LINE
8
BLACK
6
CONTINUOUS
10
120.687
20
-163.728
11
120.782
21
-163.251
0
LINE
8
BLACK
6
CONTINUOUS
10
120.782
20
-163.251
11
120.782
21
-162.87
0
LINE
8
BLACK
6
CONTINUOUS
10
120.782
20
-162.87
11
120.687
21
-162.394
0
LINE
8
BLACK
6
CONTINUOUS
10
120.687
20
-162.394
11
120.592
21
-162.108
0
LINE
8
BLACK
6
CONTINUOUS
10
120.592
20
-162.108
11
120.496
21
-161.918
0
LINE
8
BLACK
6
CONTINUOUS
10
120.496
20
-161.918
11
120.306
21
-161.632
0
LINE
8
BLACK
6
CONTINUOUS
10
120.306
20
-161.632
11
120.211
21
-161.537
0
CIRCLE
8
BLACK
10
51.682
20
-166.118
40
1
0
LINE
8
BLACK
6
CONTINUOUS
10
55.0677
20
-165.023
11
56.3058
21
-165.023
0
LINE
8
BLACK
6
CONTINUOUS
10
56.3058
20
-165.023
11
55.6391
21
-165.785
0
LINE
8
BLACK
6
CONTINUOUS
10
55.6391
20
-165.785
11
55.9249
21
-165.785
0
LINE
8
BLACK
6
CONTINUOUS
10
55.9249
20
-165.785
11
56.1153
21
-165.88
0
LINE
8
BLACK
6
CONTINUOUS
10
56.1153
20
-165.88
11
56.2106
21
-165.975
0
LINE
8
BLACK
6
CONTINUOUS
10
56.2106
20
-165.975
11
56.3058
21
-166.166
0
LINE
8
BLACK
6
CONTINUOUS
10
56.3058
20
-166.166
11
56.3058
21
-166.642
0
LINE
8
BLACK
6
CONTINUOUS
10
56.3058
20
-166.642
11
56.2106
21
-166.832
0
LINE
8
BLACK
6
CONTINUOUS
10
56.2106
20
-166.832
11
56.1153
21
-166.928
0
LINE
8
BLACK
6
CONTINUOUS
10
56.1153
20
-166.928
11
55.9249
21
-167.023
0
LINE
8
BLACK
6
CONTINUOUS
10
55.9249
20
-167.023
11
55.3534
21
-167.023
0
LINE
8
BLACK
6
CONTINUOUS
10
55.3534
20
-167.023
11
55.163
21
-166.928
0
LINE
8
BLACK
6
CONTINUOUS
10
55.163
20
-166.928
11
55.0677
21
-166.832
0
LINE
8
BLACK
6
CONTINUOUS
10
57.163
20
-166.832
11
57.2582
21
-166.928
0
LINE
8
BLACK
6
CONTINUOUS
10
57.2582
20
-166.928
11
57.163
21
-167.023
0
LINE
8
BLACK
6
CONTINUOUS
10
57.163
20
-167.023
11
57.0677
21
-166.928
0
LINE
8
BLACK
6
CONTINUOUS
10
57.0677
20
-166.928
11
57.163
21
-166.832
0
LINE
8
BLACK
6
CONTINUOUS
10
57.163
20
-166.832
11
57.163
21
-167.023
0
LINE
8
BLACK
6
CONTINUOUS
10
58.0201
20
-165.213
11
58.1153
21
-165.118
0
LINE
8
BLACK
6
CONTINUOUS
10
58.1153
20
-165.118
11
58.3058
21
-165.023
0
LINE
8
BLACK
6
CONTINUOUS
10
58.3058
20
-165.023
11
58.782
21
-165.023
0
LINE
8
BLACK
6
CONTINUOUS
10
58.782
20
-165.023
11
58.9725
21
-165.118
0
LINE
8
BLACK
6
CONTINUOUS
10
58.9725
20
-165.118
11
59.0677
21
-165.213
0
LINE
8
BLACK
6
CONTINUOUS
10
59.0677
20
-165.213
11
59.163
21
-165.404
0
LINE
8
BLACK
6
CONTINUOUS
10
59.163
20
-165.404
11
59.163
21
-165.594
0
LINE
8
BLACK
6
CONTINUOUS
10
59.163
20
-165.594
11
59.0677
21
-165.88
0
LINE
8
BLACK
6
CONTINUOUS
10
59.0677
20
-165.88
11
57.9249
21
-167.023
0
LINE
8
BLACK
6
CONTINUOUS
10
57.9249
20
-167.023
11
59.163
21
-167.023
0
LINE
8
BLACK
6
CONTINUOUS
10
60.9725
20
-165.023
11
60.0201
21
-165.023
0
LINE
8
BLACK
6
CONTINUOUS
10
60.0201
20
-165.023
11
59.9249
21
-165.975
0
LINE
8
BLACK
6
CONTINUOUS
10
59.9249
20
-165.975
11
60.0201
21
-165.88
0
LINE
8
BLACK
6
CONTINUOUS
10
60.0201
20
-165.88
11
60.2106
21
-165.785
0
LINE
8
BLACK
6
CONTINUOUS
10
60.2106
20
-165.785
11
60.6868
21
-165.785
0
LINE
8
BLACK
6
CONTINUOUS
10
60.6868
20
-165.785
11
60.8772
21
-165.88
0
LINE
8
BLACK
6
CONTINUOUS
10
60.8772
20
-165.88
11
60.9725
21
-165.975
0
LINE
8
BLACK
6
CONTINUOUS
10
60.9725
20
-165.975
11
61.0677
21
-166.166
0
LINE
8
BLACK
6
CONTINUOUS
10
61.0677
20
-166.166
11
61.0677
21
-166.642
0
LINE
8
BLACK
6
CONTINUOUS
10
61.0677
20
-166.642
11
60.9725
21
-166.832
0
LINE
8
BLACK
6
CONTINUOUS
10
60.9725
20
-166.832
11
60.8772
21
-166.928
0
LINE
8
BLACK
6
CONTINUOUS
10
60.8772
20
-166.928
11
60.6868
21
-167.023
0
LINE
8
BLACK
6
CONTINUOUS
10
60.6868
20
-167.023
11
60.2106
21
-167.023
0
LINE
8
BLACK
6
CONTINUOUS
10
60.2106
20
-167.023
11
60.0201
21
-166.928
0
LINE
8
BLACK
6
CONTINUOUS
10
60.0201
20
-166.928
11
59.9249
21
-166.832
0
LINE
8
BLACK
6
CONTINUOUS
10
62.3058
20
-165.023
11
62.4963
21
-165.023
0
LINE
8
BLACK
6
CONTINUOUS
10
62.4963
20
-165.023
11
62.6868
21
-165.118
0
LINE
8
BLACK
6
CONTINUOUS
10
62.6868
20
-165.118
11
62.782
21
-165.213
0
LINE
8
BLACK
6
CONTINUOUS
10
62.782
20
-165.213
11
62.8772
21
-165.404
0
LINE
8
BLACK
6
CONTINUOUS
10
62.8772
20
-165.404
11
62.9725
21
-165.785
0
LINE
8
BLACK
6
CONTINUOUS
10
62.9725
20
-165.785
11
62.9725
21
-166.261
0
LINE
8
BLACK
6
CONTINUOUS
10
62.9725
20
-166.261
11
62.8772
21
-166.642
0
LINE
8
BLACK
6
CONTINUOUS
10
62.8772
20
-166.642
11
62.782
21
-166.832
0
LINE
8
BLACK
6
CONTINUOUS
10
62.782
20
-166.832
11
62.6868
21
-166.928
0
LINE
8
BLACK
6
CONTINUOUS
10
62.6868
20
-166.928
11
62.4963
21
-167.023
0
LINE
8
BLACK
6
CONTINUOUS
10
62.4963
20
-167.023
11
62.3058
21
-167.023
0
LINE
8
BLACK
6
CONTINUOUS
10
62.3058
20
-167.023
11
62.1153
21
-166.928
0
LINE
8
BLACK
6
CONTINUOUS
10
62.1153
20
-166.928
11
62.0201
21
-166.832
0
LINE
8
BLACK
6
CONTINUOUS
10
62.0201
20
-166.832
11
61.9249
21
-166.642
0
LINE
8
BLACK
6
CONTINUOUS
10
61.9249
20
-166.642
11
61.8296
21
-166.261
0
LINE
8
BLACK
6
CONTINUOUS
10
61.8296
20
-166.261
11
61.8296
21
-165.785
0
LINE
8
BLACK
6
CONTINUOUS
10
61.8296
20
-165.785
11
61.9249
21
-165.404
0
LINE
8
BLACK
6
CONTINUOUS
10
61.9249
20
-165.404
11
62.0201
21
-165.213
0
LINE
8
BLACK
6
CONTINUOUS
10
62.0201
20
-165.213
11
62.1153
21
-165.118
0
LINE
8
BLACK
6
CONTINUOUS
10
62.1153
20
-165.118
11
62.3058
21
-165.023
0
LINE
8
BLACK
6
CONTINUOUS
10
63.8296
20
-167.023
11
63.8296
21
-165.689
0
LINE
8
BLACK
6
CONTINUOUS
10
63.8296
20
-165.88
11
63.9249
21
-165.785
0
LINE
8
BLACK
6
CONTINUOUS
10
63.9249
20
-165.785
11
64.1153
21
-165.689
0
LINE
8
BLACK
6
CONTINUOUS
10
64.1153
20
-165.689
11
64.401
21
-165.689
0
LINE
8
BLACK
6
CONTINUOUS
10
64.401
20
-165.689
11
64.5915
21
-165.785
0
LINE
8
BLACK
6
CONTINUOUS
10
64.5915
20
-165.785
11
64.6868
21
-165.975
0
LINE
8
BLACK
6
CONTINUOUS
10
64.6868
20
-165.975
11
64.6868
21
-167.023
0
LINE
8
BLACK
6
CONTINUOUS
10
64.6868
20
-165.975
11
64.782
21
-165.785
0
LINE
8
BLACK
6
CONTINUOUS
10
64.782
20
-165.785
11
64.9725
21
-165.689
0
LINE
8
BLACK
6
CONTINUOUS
10
64.9725
20
-165.689
11
65.2582
21
-165.689
0
LINE
8
BLACK
6
CONTINUOUS
10
65.2582
20
-165.689
11
65.4487
21
-165.785
0
LINE
8
BLACK
6
CONTINUOUS
10
65.4487
20
-165.785
11
65.5439
21
-165.975
0
LINE
8
BLACK
6
CONTINUOUS
10
65.5439
20
-165.975
11
65.5439
21
-167.023
0
LINE
8
BLACK
6
CONTINUOUS
10
66.4963
20
-167.023
11
66.4963
21
-165.689
0
LINE
8
BLACK
6
CONTINUOUS
10
66.4963
20
-165.88
11
66.5915
21
-165.785
0
LINE
8
BLACK
6
CONTINUOUS
10
66.5915
20
-165.785
11
66.782
21
-165.689
0
LINE
8
BLACK
6
CONTINUOUS
10
66.782
20
-165.689
11
67.0677
21
-165.689
0
LINE
8
BLACK
6
CONTINUOUS
10
67.0677
20
-165.689
11
67.2582
21
-165.785
0
LINE
8
BLACK
6
CONTINUOUS
10
67.2582
20
-165.785
11
67.3534
21
-165.975
0
LINE
8
BLACK
6
CONTINUOUS
10
67.3534
20
-165.975
11
67.3534
21
-167.023
0
LINE
8
BLACK
6
CONTINUOUS
10
67.3534
20
-165.975
11
67.4487
21
-165.785
0
LINE
8
BLACK
6
CONTINUOUS
10
67.4487
20
-165.785
11
67.6391
21
-165.689
0
LINE
8
BLACK
6
CONTINUOUS
10
67.6391
20
-165.689
11
67.9249
21
-165.689
0
LINE
8
BLACK
6
CONTINUOUS
10
67.9249
20
-165.689
11
68.1153
21
-165.785
0
LINE
8
BLACK
6
CONTINUOUS
10
68.1153
20
-165.785
11
68.2106
21
-165.975
0
LINE
8
BLACK
6
CONTINUOUS
10
68.2106
20
-165.975
11
68.2106
21
-167.023
0
LINE
8
BLACK
6
CONTINUOUS
10
72.1153
20
-164.928
11
70.401
21
-167.499
0
LINE
8
BLACK
6
CONTINUOUS
10
74.6868
20
-165.023
11
74.8772
21
-165.023
0
LINE
8
BLACK
6
CONTINUOUS
10
74.8772
20
-165.023
11
75.0677
21
-165.118
0
LINE
8
BLACK
6
CONTINUOUS
10
75.0677
20
-165.118
11
75.163
21
-165.213
0
LINE
8
BLACK
6
CONTINUOUS
10
75.163
20
-165.213
11
75.2582
21
-165.404
0
LINE
8
BLACK
6
CONTINUOUS
10
75.2582
20
-165.404
11
75.3534
21
-165.785
0
LINE
8
BLACK
6
CONTINUOUS
10
75.3534
20
-165.785
11
75.3534
21
-166.261
0
LINE
8
BLACK
6
CONTINUOUS
10
75.3534
20
-166.261
11
75.2582
21
-166.642
0
LINE
8
BLACK
6
CONTINUOUS
10
75.2582
20
-166.642
11
75.163
21
-166.832
0
LINE
8
BLACK
6
CONTINUOUS
10
75.163
20
-166.832
11
75.0677
21
-166.928
0
LINE
8
BLACK
6
CONTINUOUS
10
75.0677
20
-166.928
11
74.8772
21
-167.023
0
LINE
8
BLACK
6
CONTINUOUS
10
74.8772
20
-167.023
11
74.6868
21
-167.023
0
LINE
8
BLACK
6
CONTINUOUS
10
74.6868
20
-167.023
11
74.4963
21
-166.928
0
LINE
8
BLACK
6
CONTINUOUS
10
74.4963
20
-166.928
11
74.401
21
-166.832
0
LINE
8
BLACK
6
CONTINUOUS
10
74.401
20
-166.832
11
74.3058
21
-166.642
0
LINE
8
BLACK
6
CONTINUOUS
10
74.3058
20
-166.642
11
74.2106
21
-166.261
0
LINE
8
BLACK
6
CONTINUOUS
10
74.2106
20
-166.261
11
74.2106
21
-165.785
0
LINE
8
BLACK
6
CONTINUOUS
10
74.2106
20
-165.785
11
74.3058
21
-165.404
0
LINE
8
BLACK
6
CONTINUOUS
10
74.3058
20
-165.404
11
74.401
21
-165.213
0
LINE
8
BLACK
6
CONTINUOUS
10
74.401
20
-165.213
11
74.4963
21
-165.118
0
LINE
8
BLACK
6
CONTINUOUS
10
74.4963
20
-165.118
11
74.6868
21
-165.023
0
LINE
8
BLACK
6
CONTINUOUS
10
76.2106
20
-166.832
11
76.3058
21
-166.928
0
LINE
8
BLACK
6
CONTINUOUS
10
76.3058
20
-166.928
11
76.2106
21
-167.023
0
LINE
8
BLACK
6
CONTINUOUS
10
76.2106
20
-167.023
11
76.1153
21
-166.928
0
LINE
8
BLACK
6
CONTINUOUS
10
76.1153
20
-166.928
11
76.2106
21
-166.832
0
LINE
8
BLACK
6
CONTINUOUS
10
76.2106
20
-166.832
11
76.2106
21
-167.023
0
LINE
8
BLACK
6
CONTINUOUS
10
78.2106
20
-167.023
11
77.0677
21
-167.023
0
LINE
8
BLACK
6
CONTINUOUS
10
77.6391
20
-167.023
11
77.6391
21
-165.023
0
LINE
8
BLACK
6
CONTINUOUS
10
77.6391
20
-165.023
11
77.4487
21
-165.308
0
LINE
8
BLACK
6
CONTINUOUS
10
77.4487
20
-165.308
11
77.2582
21
-165.499
0
LINE
8
BLACK
6
CONTINUOUS
10
77.2582
20
-165.499
11
77.0677
21
-165.594
0
LINE
8
BLACK
6
CONTINUOUS
10
78.9725
20
-165.213
11
79.0677
21
-165.118
0
LINE
8
BLACK
6
CONTINUOUS
10
79.0677
20
-165.118
11
79.2582
21
-165.023
0
LINE
8
BLACK
6
CONTINUOUS
10
79.2582
20
-165.023
11
79.7344
21
-165.023
0
LINE
8
BLACK
6
CONTINUOUS
10
79.7344
20
-165.023
11
79.9249
21
-165.118
0
LINE
8
BLACK
6
CONTINUOUS
10
79.9249
20
-165.118
11
80.0201
21
-165.213
0
LINE
8
BLACK
6
CONTINUOUS
10
80.0201
20
-165.213
11
80.1153
21
-165.404
0
LINE
8
BLACK
6
CONTINUOUS
10
80.1153
20
-165.404
11
80.1153
21
-165.594
0
LINE
8
BLACK
6
CONTINUOUS
10
80.1153
20
-165.594
11
80.0201
21
-165.88
0
LINE
8
BLACK
6
CONTINUOUS
10
80.0201
20
-165.88
11
78.8772
21
-167.023
0
LINE
8
BLACK
6
CONTINUOUS
10
78.8772
20
-167.023
11
80.1153
21
-167.023
0
LINE
8
BLACK
6
CONTINUOUS
10
81.2582
20
-165.88
11
81.0677
21
-165.785
0
LINE
8
BLACK
6
CONTINUOUS
10
81.0677
20
-165.785
11
80.9725
21
-165.689
0
LINE
8
BLACK
6
CONTINUOUS
10
80.9725
20
-165.689
11
80.8772
21
-165.499
0
LINE
8
BLACK
6
CONTINUOUS
10
80.8772
20
-165.499
11
80.8772
21
-165.404
0
LINE
8
BLACK
6
CONTINUOUS
10
80.8772
20
-165.404
11
80.9725
21
-165.213
0
LINE
8
BLACK
6
CONTINUOUS
10
80.9725
20
-165.213
11
81.0677
21
-165.118
0
LINE
8
BLACK
6
CONTINUOUS
10
81.0677
20
-165.118
11
81.2582
21
-165.023
0
LINE
8
BLACK
6
CONTINUOUS
10
81.2582
20
-165.023
11
81.6391
21
-165.023
0
LINE
8
BLACK
6
CONTINUOUS
10
81.6391
20
-165.023
11
81.8296
21
-165.118
0
LINE
8
BLACK
6
CONTINUOUS
10
81.8296
20
-165.118
11
81.9249
21
-165.213
0
LINE
8
BLACK
6
CONTINUOUS
10
81.9249
20
-165.213
11
82.0201
21
-165.404
0
LINE
8
BLACK
6
CONTINUOUS
10
82.0201
20
-165.404
11
82.0201
21
-165.499
0
LINE
8
BLACK
6
CONTINUOUS
10
82.0201
20
-165.499
11
81.9249
21
-165.689
0
LINE
8
BLACK
6
CONTINUOUS
10
81.9249
20
-165.689
11
81.8296
21
-165.785
0
LINE
8
BLACK
6
CONTINUOUS
10
81.8296
20
-165.785
11
81.6391
21
-165.88
0
LINE
8
BLACK
6
CONTINUOUS
10
81.6391
20
-165.88
11
81.2582
21
-165.88
0
LINE
8
BLACK
6
CONTINUOUS
10
81.2582
20
-165.88
11
81.0677
21
-165.975
0
LINE
8
BLACK
6
CONTINUOUS
10
81.0677
20
-165.975
11
80.9725
21
-166.07
0
LINE
8
BLACK
6
CONTINUOUS
10
80.9725
20
-166.07
11
80.8772
21
-166.261
0
LINE
8
BLACK
6
CONTINUOUS
10
80.8772
20
-166.261
11
80.8772
21
-166.642
0
LINE
8
BLACK
6
CONTINUOUS
10
80.8772
20
-166.642
11
80.9725
21
-166.832
0
LINE
8
BLACK
6
CONTINUOUS
10
80.9725
20
-166.832
11
81.0677
21
-166.928
0
LINE
8
BLACK
6
CONTINUOUS
10
81.0677
20
-166.928
11
81.2582
21
-167.023
0
LINE
8
BLACK
6
CONTINUOUS
10
81.2582
20
-167.023
11
81.6391
21
-167.023
0
LINE
8
BLACK
6
CONTINUOUS
10
81.6391
20
-167.023
11
81.8296
21
-166.928
0
LINE
8
BLACK
6
CONTINUOUS
10
81.8296
20
-166.928
11
81.9249
21
-166.832
0
LINE
8
BLACK
6
CONTINUOUS
10
81.9249
20
-166.832
11
82.0201
21
-166.642
0
LINE
8
BLACK
6
CONTINUOUS
10
82.0201
20
-166.642
11
82.0201
21
-166.261
0
LINE
8
BLACK
6
CONTINUOUS
10
82.0201
20
-166.261
11
81.9249
21
-166.07
0
LINE
8
BLACK
6
CONTINUOUS
10
81.9249
20
-166.07
11
81.8296
21
-165.975
0
LINE
8
BLACK
6
CONTINUOUS
10
81.8296
20
-165.975
11
81.6391
21
-165.88
0
LINE
8
BLACK
6
CONTINUOUS
10
83.2582
20
-165.023
11
83.4487
21
-165.023
0
LINE
8
BLACK
6
CONTINUOUS
10
83.4487
20
-165.023
11
83.6391
21
-165.118
0
LINE
8
BLACK
6
CONTINUOUS
10
83.6391
20
-165.118
11
83.7344
21
-165.213
0
LINE
8
BLACK
6
CONTINUOUS
10
83.7344
20
-165.213
11
83.8296
21
-165.404
0
LINE
8
BLACK
6
CONTINUOUS
10
83.8296
20
-165.404
11
83.9249
21
-165.785
0
LINE
8
BLACK
6
CONTINUOUS
10
83.9249
20
-165.785
11
83.9249
21
-166.261
0
LINE
8
BLACK
6
CONTINUOUS
10
83.9249
20
-166.261
11
83.8296
21
-166.642
0
LINE
8
BLACK
6
CONTINUOUS
10
83.8296
20
-166.642
11
83.7344
21
-166.832
0
LINE
8
BLACK
6
CONTINUOUS
10
83.7344
20
-166.832
11
83.6391
21
-166.928
0
LINE
8
BLACK
6
CONTINUOUS
10
83.6391
20
-166.928
11
83.4487
21
-167.023
0
LINE
8
BLACK
6
CONTINUOUS
10
83.4487
20
-167.023
11
83.2582
21
-167.023
0
LINE
8
BLACK
6
CONTINUOUS
10
83.2582
20
-167.023
11
83.0677
21
-166.928
0
LINE
8
BLACK
6
CONTINUOUS
10
83.0677
20
-166.928
11
82.9725
21
-166.832
0
LINE
8
BLACK
6
CONTINUOUS
10
82.9725
20
-166.832
11
82.8772
21
-166.642
0
LINE
8
BLACK
6
CONTINUOUS
10
82.8772
20
-166.642
11
82.782
21
-166.261
0
LINE
8
BLACK
6
CONTINUOUS
10
82.782
20
-166.261
11
82.782
21
-165.785
0
LINE
8
BLACK
6
CONTINUOUS
10
82.782
20
-165.785
11
82.8772
21
-165.404
0
LINE
8
BLACK
6
CONTINUOUS
10
82.8772
20
-165.404
11
82.9725
21
-165.213
0
LINE
8
BLACK
6
CONTINUOUS
10
82.9725
20
-165.213
11
83.0677
21
-165.118
0
LINE
8
BLACK
6
CONTINUOUS
10
83.0677
20
-165.118
11
83.2582
21
-165.023
0
LINE
8
BLACK
6
CONTINUOUS
10
84.6868
20
-165.023
11
84.6868
21
-165.404
0
LINE
8
BLACK
6
CONTINUOUS
10
85.4487
20
-165.023
11
85.4487
21
-165.404
0
LINE
8
BLACK
6
CONTINUOUS
10
88.401
20
-167.785
11
88.3058
21
-167.689
0
LINE
8
BLACK
6
CONTINUOUS
10
88.3058
20
-167.689
11
88.1153
21
-167.404
0
LINE
8
BLACK
6
CONTINUOUS
10
88.1153
20
-167.404
11
88.0201
21
-167.213
0
LINE
8
BLACK
6
CONTINUOUS
10
88.0201
20
-167.213
11
87.9249
21
-166.928
0
LINE
8
BLACK
6
CONTINUOUS
10
87.9249
20
-166.928
11
87.8296
21
-166.451
0
LINE
8
BLACK
6
CONTINUOUS
10
87.8296
20
-166.451
11
87.8296
21
-166.07
0
LINE
8
BLACK
6
CONTINUOUS
10
87.8296
20
-166.07
11
87.9249
21
-165.594
0
LINE
8
BLACK
6
CONTINUOUS
10
87.9249
20
-165.594
11
88.0201
21
-165.308
0
LINE
8
BLACK
6
CONTINUOUS
10
88.0201
20
-165.308
11
88.1153
21
-165.118
0
LINE
8
BLACK
6
CONTINUOUS
10
88.1153
20
-165.118
11
88.3058
21
-164.832
0
LINE
8
BLACK
6
CONTINUOUS
10
88.3058
20
-164.832
11
88.401
21
-164.737
0
LINE
8
BLACK
6
CONTINUOUS
10
89.0677
20
-165.213
11
89.163
21
-165.118
0
LINE
8
BLACK
6
CONTINUOUS
10
89.163
20
-165.118
11
89.3534
21
-165.023
0
LINE
8
BLACK
6
CONTINUOUS
10
89.3534
20
-165.023
11
89.8296
21
-165.023
0
LINE
8
BLACK
6
CONTINUOUS
10
89.8296
20
-165.023
11
90.0201
21
-165.118
0
LINE
8
BLACK
6
CONTINUOUS
10
90.0201
20
-165.118
11
90.1153
21
-165.213
0
LINE
8
BLACK
6
CONTINUOUS
10
90.1153
20
-165.213
11
90.2106
21
-165.404
0
LINE
8
BLACK
6
CONTINUOUS
10
90.2106
20
-165.404
11
90.2106
21
-165.594
0
LINE
8
BLACK
6
CONTINUOUS
10
90.2106
20
-165.594
11
90.1153
21
-165.88
0
LINE
8
BLACK
6
CONTINUOUS
10
90.1153
20
-165.88
11
88.9725
21
-167.023
0
LINE
8
BLACK
6
CONTINUOUS
10
88.9725
20
-167.023
11
90.2106
21
-167.023
0
LINE
8
BLACK
6
CONTINUOUS
10
92.5915
20
-167.023
11
92.5915
21
-165.023
0
LINE
8
BLACK
6
CONTINUOUS
10
93.4487
20
-167.023
11
93.4487
21
-165.975
0
LINE
8
BLACK
6
CONTINUOUS
10
93.4487
20
-165.975
11
93.3534
21
-165.785
0
LINE
8
BLACK
6
CONTINUOUS
10
93.3534
20
-165.785
11
93.163
21
-165.689
0
LINE
8
BLACK
6
CONTINUOUS
10
93.163
20
-165.689
11
92.8772
21
-165.689
0
LINE
8
BLACK
6
CONTINUOUS
10
92.8772
20
-165.689
11
92.6868
21
-165.785
0
LINE
8
BLACK
6
CONTINUOUS
10
92.6868
20
-165.785
11
92.5915
21
-165.88
0
LINE
8
BLACK
6
CONTINUOUS
10
94.6868
20
-167.023
11
94.4963
21
-166.928
0
LINE
8
BLACK
6
CONTINUOUS
10
94.4963
20
-166.928
11
94.401
21
-166.832
0
LINE
8
BLACK
6
CONTINUOUS
10
94.401
20
-166.832
11
94.3058
21
-166.642
0
LINE
8
BLACK
6
CONTINUOUS
10
94.3058
20
-166.642
11
94.3058
21
-166.07
0
LINE
8
BLACK
6
CONTINUOUS
10
94.3058
20
-166.07
11
94.401
21
-165.88
0
LINE
8
BLACK
6
CONTINUOUS
10
94.401
20
-165.88
11
94.4963
21
-165.785
0
LINE
8
BLACK
6
CONTINUOUS
10
94.4963
20
-165.785
11
94.6868
21
-165.689
0
LINE
8
BLACK
6
CONTINUOUS
10
94.6868
20
-165.689
11
94.9725
21
-165.689
0
LINE
8
BLACK
6
CONTINUOUS
10
94.9725
20
-165.689
11
95.163
21
-165.785
0
LINE
8
BLACK
6
CONTINUOUS
10
95.163
20
-165.785
11
95.2582
21
-165.88
0
LINE
8
BLACK
6
CONTINUOUS
10
95.2582
20
-165.88
11
95.3534
21
-166.07
0
LINE
8
BLACK
6
CONTINUOUS
10
95.3534
20
-166.07
11
95.3534
21
-166.642
0
LINE
8
BLACK
6
CONTINUOUS
10
95.3534
20
-166.642
11
95.2582
21
-166.832
0
LINE
8
BLACK
6
CONTINUOUS
10
95.2582
20
-166.832
11
95.163
21
-166.928
0
LINE
8
BLACK
6
CONTINUOUS
10
95.163
20
-166.928
11
94.9725
21
-167.023
0
LINE
8
BLACK
6
CONTINUOUS
10
94.9725
20
-167.023
11
94.6868
21
-167.023
0
LINE
8
BLACK
6
CONTINUOUS
10
96.4963
20
-167.023
11
96.3058
21
-166.928
0
LINE
8
BLACK
6
CONTINUOUS
10
96.3058
20
-166.928
11
96.2106
21
-166.737
0
LINE
8
BLACK
6
CONTINUOUS
10
96.2106
20
-166.737
11
96.2106
21
-165.023
0
LINE
8
BLACK
6
CONTINUOUS
10
98.0201
20
-166.928
11
97.8296
21
-167.023
0
LINE
8
BLACK
6
CONTINUOUS
10
97.8296
20
-167.023
11
97.4487
21
-167.023
0
LINE
8
BLACK
6
CONTINUOUS
10
97.4487
20
-167.023
11
97.2582
21
-166.928
0
LINE
8
BLACK
6
CONTINUOUS
10
97.2582
20
-166.928
11
97.163
21
-166.737
0
LINE
8
BLACK
6
CONTINUOUS
10
97.163
20
-166.737
11
97.163
21
-165.975
0
LINE
8
BLACK
6
CONTINUOUS
10
97.163
20
-165.975
11
97.2582
21
-165.785
0
LINE
8
BLACK
6
CONTINUOUS
10
97.2582
20
-165.785
11
97.4487
21
-165.689
0
LINE
8
BLACK
6
CONTINUOUS
10
97.4487
20
-165.689
11
97.8296
21
-165.689
0
LINE
8
BLACK
6
CONTINUOUS
10
97.8296
20
-165.689
11
98.0201
21
-165.785
0
LINE
8
BLACK
6
CONTINUOUS
10
98.0201
20
-165.785
11
98.1153
21
-165.975
0
LINE
8
BLACK
6
CONTINUOUS
10
98.1153
20
-165.975
11
98.1153
21
-166.166
0
LINE
8
BLACK
6
CONTINUOUS
10
98.1153
20
-166.166
11
97.163
21
-166.356
0
LINE
8
BLACK
6
CONTINUOUS
10
98.8772
20
-166.928
11
99.0677
21
-167.023
0
LINE
8
BLACK
6
CONTINUOUS
10
99.0677
20
-167.023
11
99.4487
21
-167.023
0
LINE
8
BLACK
6
CONTINUOUS
10
99.4487
20
-167.023
11
99.6391
21
-166.928
0
LINE
8
BLACK
6
CONTINUOUS
10
99.6391
20
-166.928
11
99.7344
21
-166.737
0
LINE
8
BLACK
6
CONTINUOUS
10
99.7344
20
-166.737
11
99.7344
21
-166.642
0
LINE
8
BLACK
6
CONTINUOUS
10
99.7344
20
-166.642
11
99.6391
21
-166.451
0
LINE
8
BLACK
6
CONTINUOUS
10
99.6391
20
-166.451
11
99.4487
21
-166.356
0
LINE
8
BLACK
6
CONTINUOUS
10
99.4487
20
-166.356
11
99.163
21
-166.356
0
LINE
8
BLACK
6
CONTINUOUS
10
99.163
20
-166.356
11
98.9725
21
-166.261
0
LINE
8
BLACK
6
CONTINUOUS
10
98.9725
20
-166.261
11
98.8772
21
-166.07
0
LINE
8
BLACK
6
CONTINUOUS
10
98.8772
20
-166.07
11
98.8772
21
-165.975
0
LINE
8
BLACK
6
CONTINUOUS
10
98.8772
20
-165.975
11
98.9725
21
-165.785
0
LINE
8
BLACK
6
CONTINUOUS
10
98.9725
20
-165.785
11
99.163
21
-165.689
0
LINE
8
BLACK
6
CONTINUOUS
10
99.163
20
-165.689
11
99.4487
21
-165.689
0
LINE
8
BLACK
6
CONTINUOUS
10
99.4487
20
-165.689
11
99.6391
21
-165.785
0
LINE
8
BLACK
6
CONTINUOUS
10
100.401
20
-167.785
11
100.496
21
-167.689
0
LINE
8
BLACK
6
CONTINUOUS
10
100.496
20
-167.689
11
100.687
21
-167.404
0
LINE
8
BLACK
6
CONTINUOUS
10
100.687
20
-167.404
11
100.782
21
-167.213
0
LINE
8
BLACK
6
CONTINUOUS
10
100.782
20
-167.213
11
100.877
21
-166.928
0
LINE
8
BLACK
6
CONTINUOUS
10
100.877
20
-166.928
11
100.972
21
-166.451
0
LINE
8
BLACK
6
CONTINUOUS
10
100.972
20
-166.451
11
100.972
21
-166.07
0
LINE
8
BLACK
6
CONTINUOUS
10
100.972
20
-166.07
11
100.877
21
-165.594
0
LINE
8
BLACK
6
CONTINUOUS
10
100.877
20
-165.594
11
100.782
21
-165.308
0
LINE
8
BLACK
6
CONTINUOUS
10
100.782
20
-165.308
11
100.687
21
-165.118
0
LINE
8
BLACK
6
CONTINUOUS
10
100.687
20
-165.118
11
100.496
21
-164.832
0
LINE
8
BLACK
6
CONTINUOUS
10
100.496
20
-164.832
11
100.401
21
-164.737
0
LINE
8
BLACK
6
CONTINUOUS
10
104.02
20
-167.785
11
103.925
21
-167.689
0
LINE
8
BLACK
6
CONTINUOUS
10
103.925
20
-167.689
11
103.734
21
-167.404
0
LINE
8
BLACK
6
CONTINUOUS
10
103.734
20
-167.404
11
103.639
21
-167.213
0
LINE
8
BLACK
6
CONTINUOUS
10
103.639
20
-167.213
11
103.544
21
-166.928
0
LINE
8
BLACK
6
CONTINUOUS
10
103.544
20
-166.928
11
103.449
21
-166.451
0
LINE
8
BLACK
6
CONTINUOUS
10
103.449
20
-166.451
11
103.449
21
-166.07
0
LINE
8
BLACK
6
CONTINUOUS
10
103.449
20
-166.07
11
103.544
21
-165.594
0
LINE
8
BLACK
6
CONTINUOUS
10
103.544
20
-165.594
11
103.639
21
-165.308
0
LINE
8
BLACK
6
CONTINUOUS
10
103.639
20
-165.308
11
103.734
21
-165.118
0
LINE
8
BLACK
6
CONTINUOUS
10
103.734
20
-165.118
11
103.925
21
-164.832
0
LINE
8
BLACK
6
CONTINUOUS
10
103.925
20
-164.832
11
104.02
21
-164.737
0
LINE
8
BLACK
6
CONTINUOUS
10
104.782
20
-165.689
11
104.782
21
-167.023
0
LINE
8
BLACK
6
CONTINUOUS
10
104.782
20
-165.88
11
104.877
21
-165.785
0
LINE
8
BLACK
6
CONTINUOUS
10
104.877
20
-165.785
11
105.068
21
-165.689
0
LINE
8
BLACK
6
CONTINUOUS
10
105.068
20
-165.689
11
105.353
21
-165.689
0
LINE
8
BLACK
6
CONTINUOUS
10
105.353
20
-165.689
11
105.544
21
-165.785
0
LINE
8
BLACK
6
CONTINUOUS
10
105.544
20
-165.785
11
105.639
21
-165.975
0
LINE
8
BLACK
6
CONTINUOUS
10
105.639
20
-165.975
11
105.639
21
-167.023
0
LINE
8
BLACK
6
CONTINUOUS
10
106.877
20
-167.023
11
106.687
21
-166.928
0
LINE
8
BLACK
6
CONTINUOUS
10
106.687
20
-166.928
11
106.592
21
-166.832
0
LINE
8
BLACK
6
CONTINUOUS
10
106.592
20
-166.832
11
106.496
21
-166.642
0
LINE
8
BLACK
6
CONTINUOUS
10
106.496
20
-166.642
11
106.496
21
-166.07
0
LINE
8
BLACK
6
CONTINUOUS
10
106.496
20
-166.07
11
106.592
21
-165.88
0
LINE
8
BLACK
6
CONTINUOUS
10
106.592
20
-165.88
11
106.687
21
-165.785
0
LINE
8
BLACK
6
CONTINUOUS
10
106.687
20
-165.785
11
106.877
21
-165.689
0
LINE
8
BLACK
6
CONTINUOUS
10
106.877
20
-165.689
11
107.163
21
-165.689
0
LINE
8
BLACK
6
CONTINUOUS
10
107.163
20
-165.689
11
107.353
21
-165.785
0
LINE
8
BLACK
6
CONTINUOUS
10
107.353
20
-165.785
11
107.449
21
-165.88
0
LINE
8
BLACK
6
CONTINUOUS
10
107.449
20
-165.88
11
107.544
21
-166.07
0
LINE
8
BLACK
6
CONTINUOUS
10
107.544
20
-166.07
11
107.544
21
-166.642
0
LINE
8
BLACK
6
CONTINUOUS
10
107.544
20
-166.642
11
107.449
21
-166.832
0
LINE
8
BLACK
6
CONTINUOUS
10
107.449
20
-166.832
11
107.353
21
-166.928
0
LINE
8
BLACK
6
CONTINUOUS
10
107.353
20
-166.928
11
107.163
21
-167.023
0
LINE
8
BLACK
6
CONTINUOUS
10
107.163
20
-167.023
11
106.877
21
-167.023
0
LINE
8
BLACK
6
CONTINUOUS
10
108.115
20
-165.689
11
108.877
21
-165.689
0
LINE
8
BLACK
6
CONTINUOUS
10
108.401
20
-165.023
11
108.401
21
-166.737
0
LINE
8
BLACK
6
CONTINUOUS
10
108.401
20
-166.737
11
108.496
21
-166.928
0
LINE
8
BLACK
6
CONTINUOUS
10
108.496
20
-166.928
11
108.687
21
-167.023
0
LINE
8
BLACK
6
CONTINUOUS
10
108.687
20
-167.023
11
108.877
21
-167.023
0
LINE
8
BLACK
6
CONTINUOUS
10
111.068
20
-165.689
11
111.068
21
-167.689
0
LINE
8
BLACK
6
CONTINUOUS
10
111.068
20
-165.785
11
111.258
21
-165.689
0
LINE
8
BLACK
6
CONTINUOUS
10
111.258
20
-165.689
11
111.639
21
-165.689
0
LINE
8
BLACK
6
CONTINUOUS
10
111.639
20
-165.689
11
111.83
21
-165.785
0
LINE
8
BLACK
6
CONTINUOUS
10
111.83
20
-165.785
11
111.925
21
-165.88
0
LINE
8
BLACK
6
CONTINUOUS
10
111.925
20
-165.88
11
112.02
21
-166.07
0
LINE
8
BLACK
6
CONTINUOUS
10
112.02
20
-166.07
11
112.02
21
-166.642
0
LINE
8
BLACK
6
CONTINUOUS
10
112.02
20
-166.642
11
111.925
21
-166.832
0
LINE
8
BLACK
6
CONTINUOUS
10
111.925
20
-166.832
11
111.83
21
-166.928
0
LINE
8
BLACK
6
CONTINUOUS
10
111.83
20
-166.928
11
111.639
21
-167.023
0
LINE
8
BLACK
6
CONTINUOUS
10
111.639
20
-167.023
11
111.258
21
-167.023
0
LINE
8
BLACK
6
CONTINUOUS
10
111.258
20
-167.023
11
111.068
21
-166.928
0
LINE
8
BLACK
6
CONTINUOUS
10
113.163
20
-167.023
11
112.972
21
-166.928
0
LINE
8
BLACK
6
CONTINUOUS
10
112.972
20
-166.928
11
112.877
21
-166.737
0
LINE
8
BLACK
6
CONTINUOUS
10
112.877
20
-166.737
11
112.877
21
-165.023
0
LINE
8
BLACK
6
CONTINUOUS
10
114.782
20
-167.023
11
114.782
21
-165.975
0
LINE
8
BLACK
6
CONTINUOUS
10
114.782
20
-165.975
11
114.687
21
-165.785
0
LINE
8
BLACK
6
CONTINUOUS
10
114.687
20
-165.785
11
114.496
21
-165.689
0
LINE
8
BLACK
6
CONTINUOUS
10
114.496
20
-165.689
11
114.115
21
-165.689
0
LINE
8
BLACK
6
CONTINUOUS
10
114.115
20
-165.689
11
113.925
21
-165.785
0
LINE
8
BLACK
6
CONTINUOUS
10
114.782
20
-166.928
11
114.592
21
-167.023
0
LINE
8
BLACK
6
CONTINUOUS
10
114.592
20
-167.023
11
114.115
21
-167.023
0
LINE
8
BLACK
6
CONTINUOUS
10
114.115
20
-167.023
11
113.925
21
-166.928
0
LINE
8
BLACK
6
CONTINUOUS
10
113.925
20
-166.928
11
113.83
21
-166.737
0
LINE
8
BLACK
6
CONTINUOUS
10
113.83
20
-166.737
11
113.83
21
-166.547
0
LINE
8
BLACK
6
CONTINUOUS
10
113.83
20
-166.547
11
113.925
21
-166.356
0
LINE
8
BLACK
6
CONTINUOUS
10
113.925
20
-166.356
11
114.115
21
-166.261
0
LINE
8
BLACK
6
CONTINUOUS
10
114.115
20
-166.261
11
114.592
21
-166.261
0
LINE
8
BLACK
6
CONTINUOUS
10
114.592
20
-166.261
11
114.782
21
-166.166
0
LINE
8
BLACK
6
CONTINUOUS
10
115.449
20
-165.689
11
116.211
21
-165.689
0
LINE
8
BLACK
6
CONTINUOUS
10
115.734
20
-165.023
11
115.734
21
-166.737
0
LINE
8
BLACK
6
CONTINUOUS
10
115.734
20
-166.737
11
115.83
21
-166.928
0
LINE
8
BLACK
6
CONTINUOUS
10
115.83
20
-166.928
11
116.02
21
-167.023
0
LINE
8
BLACK
6
CONTINUOUS
10
116.02
20
-167.023
11
116.211
21
-167.023
0
LINE
8
BLACK
6
CONTINUOUS
10
117.639
20
-166.928
11
117.449
21
-167.023
0
LINE
8
BLACK
6
CONTINUOUS
10
117.449
20
-167.023
11
117.068
21
-167.023
0
LINE
8
BLACK
6
CONTINUOUS
10
117.068
20
-167.023
11
116.877
21
-166.928
0
LINE
8
BLACK
6
CONTINUOUS
10
116.877
20
-166.928
11
116.782
21
-166.737
0
LINE
8
BLACK
6
CONTINUOUS
10
116.782
20
-166.737
11
116.782
21
-165.975
0
LINE
8
BLACK
6
CONTINUOUS
10
116.782
20
-165.975
11
116.877
21
-165.785
0
LINE
8
BLACK
6
CONTINUOUS
10
116.877
20
-165.785
11
117.068
21
-165.689
0
LINE
8
BLACK
6
CONTINUOUS
10
117.068
20
-165.689
11
117.449
21
-165.689
0
LINE
8
BLACK
6
CONTINUOUS
10
117.449
20
-165.689
11
117.639
21
-165.785
0
LINE
8
BLACK
6
CONTINUOUS
10
117.639
20
-165.785
11
117.734
21
-165.975
0
LINE
8
BLACK
6
CONTINUOUS
10
117.734
20
-165.975
11
117.734
21
-166.166
0
LINE
8
BLACK
6
CONTINUOUS
10
117.734
20
-166.166
11
116.782
21
-166.356
0
LINE
8
BLACK
6
CONTINUOUS
10
119.449
20
-167.023
11
119.449
21
-165.023
0
LINE
8
BLACK
6
CONTINUOUS
10
119.449
20
-166.928
11
119.258
21
-167.023
0
LINE
8
BLACK
6
CONTINUOUS
10
119.258
20
-167.023
11
118.877
21
-167.023
0
LINE
8
BLACK
6
CONTINUOUS
10
118.877
20
-167.023
11
118.687
21
-166.928
0
LINE
8
BLACK
6
CONTINUOUS
10
118.687
20
-166.928
11
118.592
21
-166.832
0
LINE
8
BLACK
6
CONTINUOUS
10
118.592
20
-166.832
11
118.496
21
-166.642
0
LINE
8
BLACK
6
CONTINUOUS
10
118.496
20
-166.642
11
118.496
21
-166.07
0
LINE
8
BLACK
6
CONTINUOUS
10
118.496
20
-166.07
11
118.592
21
-165.88
0
LINE
8
BLACK
6
CONTINUOUS
10
118.592
20
-165.88
11
118.687
21
-165.785
0
LINE
8
BLACK
6
CONTINUOUS
10
118.687
20
-165.785
11
118.877
21
-165.689
0
LINE
8
BLACK
6
CONTINUOUS
10
118.877
20
-165.689
11
119.258
21
-165.689
0
LINE
8
BLACK
6
CONTINUOUS
10
119.258
20
-165.689
11
119.449
21
-165.785
0
LINE
8
BLACK
6
CONTINUOUS
10
120.211
20
-167.785
11
120.306
21
-167.689
0
LINE
8
BLACK
6
CONTINUOUS
10
120.306
20
-167.689
11
120.496
21
-167.404
0
LINE
8
BLACK
6
CONTINUOUS
10
120.496
20
-167.404
11
120.592
21
-167.213
0
LINE
8
BLACK
6
CONTINUOUS
10
120.592
20
-167.213
11
120.687
21
-166.928
0
LINE
8
BLACK
6
CONTINUOUS
10
120.687
20
-166.928
11
120.782
21
-166.451
0
LINE
8
BLACK
6
CONTINUOUS
10
120.782
20
-166.451
11
120.782
21
-166.07
0
LINE
8
BLACK
6
CONTINUOUS
10
120.782
20
-166.07
11
120.687
21
-165.594
0
LINE
8
BLACK
6
CONTINUOUS
10
120.687
20
-165.594
11
120.592
21
-165.308
0
LINE
8
BLACK
6
CONTINUOUS
10
120.592
20
-165.308
11
120.496
21
-165.118
0
LINE
8
BLACK
6
CONTINUOUS
10
120.496
20
-165.118
11
120.306
21
-164.832
0
LINE
8
BLACK
6
CONTINUOUS
10
120.306
20
-164.832
11
120.211
21
-164.737
  0
ENDSEC
  0
EOF
