G04 #@! TF.GenerationSoftware,KiCad,Pcbnew,(5.1.9-0-10_14)*
G04 #@! TF.CreationDate,2022-01-17T21:12:23+01:00*
G04 #@! TF.ProjectId,ithowifi_4l,6974686f-7769-4666-995f-346c2e6b6963,rev?*
G04 #@! TF.SameCoordinates,Original*
G04 #@! TF.FileFunction,Legend,Bot*
G04 #@! TF.FilePolarity,Positive*
%FSLAX46Y46*%
G04 Gerber Fmt 4.6, Leading zero omitted, Abs format (unit mm)*
G04 Created by KiCad (PCBNEW (5.1.9-0-10_14)) date 2022-01-17 21:12:23*
%MOMM*%
%LPD*%
G01*
G04 APERTURE LIST*
%ADD10C,0.200000*%
%ADD11C,0.100000*%
%ADD12C,0.150000*%
%ADD13C,0.120000*%
G04 APERTURE END LIST*
D10*
X90208428Y-124153714D02*
X91708428Y-124153714D01*
X90994142Y-124153714D02*
X90994142Y-123296571D01*
X90208428Y-123296571D02*
X91708428Y-123296571D01*
X91708428Y-122725142D02*
X90208428Y-122368000D01*
X91279857Y-122082285D01*
X90208428Y-121796571D01*
X91708428Y-121439428D01*
X90208428Y-119725142D02*
X91208428Y-119725142D01*
X90922714Y-119725142D02*
X91065571Y-119653714D01*
X91137000Y-119582285D01*
X91208428Y-119439428D01*
X91208428Y-119296571D01*
X90279857Y-118225142D02*
X90208428Y-118368000D01*
X90208428Y-118653714D01*
X90279857Y-118796571D01*
X90422714Y-118868000D01*
X90994142Y-118868000D01*
X91137000Y-118796571D01*
X91208428Y-118653714D01*
X91208428Y-118368000D01*
X91137000Y-118225142D01*
X90994142Y-118153714D01*
X90851285Y-118153714D01*
X90708428Y-118868000D01*
X91208428Y-117653714D02*
X90208428Y-117296571D01*
X91208428Y-116939428D01*
X90351285Y-116368000D02*
X90279857Y-116296571D01*
X90208428Y-116368000D01*
X90279857Y-116439428D01*
X90351285Y-116368000D01*
X90208428Y-116368000D01*
X90351285Y-115653714D02*
X90279857Y-115582285D01*
X90208428Y-115653714D01*
X90279857Y-115725142D01*
X90351285Y-115653714D01*
X90208428Y-115653714D01*
X91137000Y-115653714D02*
X91065571Y-115582285D01*
X90994142Y-115653714D01*
X91065571Y-115725142D01*
X91137000Y-115653714D01*
X90994142Y-115653714D01*
X91565571Y-113868000D02*
X91637000Y-113796571D01*
X91708428Y-113653714D01*
X91708428Y-113296571D01*
X91637000Y-113153714D01*
X91565571Y-113082285D01*
X91422714Y-113010857D01*
X91279857Y-113010857D01*
X91065571Y-113082285D01*
X90208428Y-113939428D01*
X90208428Y-113010857D01*
X88544142Y-127082285D02*
X88472714Y-126868000D01*
X88401285Y-126796571D01*
X88258428Y-126725142D01*
X88044142Y-126725142D01*
X87901285Y-126796571D01*
X87829857Y-126868000D01*
X87758428Y-127010857D01*
X87758428Y-127582285D01*
X89258428Y-127582285D01*
X89258428Y-127082285D01*
X89187000Y-126939428D01*
X89115571Y-126868000D01*
X88972714Y-126796571D01*
X88829857Y-126796571D01*
X88687000Y-126868000D01*
X88615571Y-126939428D01*
X88544142Y-127082285D01*
X88544142Y-127582285D01*
X87758428Y-125439428D02*
X88544142Y-125439428D01*
X88687000Y-125510857D01*
X88758428Y-125653714D01*
X88758428Y-125939428D01*
X88687000Y-126082285D01*
X87829857Y-125439428D02*
X87758428Y-125582285D01*
X87758428Y-125939428D01*
X87829857Y-126082285D01*
X87972714Y-126153714D01*
X88115571Y-126153714D01*
X88258428Y-126082285D01*
X88329857Y-125939428D01*
X88329857Y-125582285D01*
X88401285Y-125439428D01*
X88758428Y-124939428D02*
X88758428Y-124368000D01*
X89258428Y-124725142D02*
X87972714Y-124725142D01*
X87829857Y-124653714D01*
X87758428Y-124510857D01*
X87758428Y-124368000D01*
X87829857Y-123225142D02*
X87758428Y-123368000D01*
X87758428Y-123653714D01*
X87829857Y-123796571D01*
X87901285Y-123868000D01*
X88044142Y-123939428D01*
X88472714Y-123939428D01*
X88615571Y-123868000D01*
X88687000Y-123796571D01*
X88758428Y-123653714D01*
X88758428Y-123368000D01*
X88687000Y-123225142D01*
X87758428Y-122582285D02*
X89258428Y-122582285D01*
X87758428Y-121939428D02*
X88544142Y-121939428D01*
X88687000Y-122010857D01*
X88758428Y-122153714D01*
X88758428Y-122368000D01*
X88687000Y-122510857D01*
X88615571Y-122582285D01*
X87901285Y-121225142D02*
X87829857Y-121153714D01*
X87758428Y-121225142D01*
X87829857Y-121296571D01*
X87901285Y-121225142D01*
X87758428Y-121225142D01*
X88687000Y-121225142D02*
X88615571Y-121153714D01*
X88544142Y-121225142D01*
X88615571Y-121296571D01*
X88687000Y-121225142D01*
X88544142Y-121225142D01*
X87758428Y-118582285D02*
X87758428Y-119439428D01*
X87758428Y-119010857D02*
X89258428Y-119010857D01*
X89044142Y-119153714D01*
X88901285Y-119296571D01*
X88829857Y-119439428D01*
X89115571Y-118010857D02*
X89187000Y-117939428D01*
X89258428Y-117796571D01*
X89258428Y-117439428D01*
X89187000Y-117296571D01*
X89115571Y-117225142D01*
X88972714Y-117153714D01*
X88829857Y-117153714D01*
X88615571Y-117225142D01*
X87758428Y-118082285D01*
X87758428Y-117153714D01*
X88329857Y-116510857D02*
X88329857Y-115368000D01*
X89258428Y-114368000D02*
X89258428Y-114225142D01*
X89187000Y-114082285D01*
X89115571Y-114010857D01*
X88972714Y-113939428D01*
X88687000Y-113868000D01*
X88329857Y-113868000D01*
X88044142Y-113939428D01*
X87901285Y-114010857D01*
X87829857Y-114082285D01*
X87758428Y-114225142D01*
X87758428Y-114368000D01*
X87829857Y-114510857D01*
X87901285Y-114582285D01*
X88044142Y-114653714D01*
X88329857Y-114725142D01*
X88687000Y-114725142D01*
X88972714Y-114653714D01*
X89115571Y-114582285D01*
X89187000Y-114510857D01*
X89258428Y-114368000D01*
X88758428Y-112582285D02*
X87758428Y-112582285D01*
X89329857Y-112939428D02*
X88258428Y-113296571D01*
X88258428Y-112368000D01*
X89115571Y-111868000D02*
X89187000Y-111796571D01*
X89258428Y-111653714D01*
X89258428Y-111296571D01*
X89187000Y-111153714D01*
X89115571Y-111082285D01*
X88972714Y-111010857D01*
X88829857Y-111010857D01*
X88615571Y-111082285D01*
X87758428Y-111939428D01*
X87758428Y-111010857D01*
X89115571Y-110439428D02*
X89187000Y-110368000D01*
X89258428Y-110225142D01*
X89258428Y-109868000D01*
X89187000Y-109725142D01*
X89115571Y-109653714D01*
X88972714Y-109582285D01*
X88829857Y-109582285D01*
X88615571Y-109653714D01*
X87758428Y-110510857D01*
X87758428Y-109582285D01*
D11*
G36*
X114808000Y-129997200D02*
G01*
X97561400Y-129997200D01*
X97536000Y-113030000D01*
X114808000Y-113030000D01*
X114808000Y-129997200D01*
G37*
X114808000Y-129997200D02*
X97561400Y-129997200D01*
X97536000Y-113030000D01*
X114808000Y-113030000D01*
X114808000Y-129997200D01*
D10*
X83859000Y-135764666D02*
X83859000Y-137164666D01*
X84309000Y-135764666D02*
X84309000Y-136498000D01*
X84259000Y-136631333D01*
X84159000Y-136698000D01*
X84009000Y-136698000D01*
X83909000Y-136631333D01*
X83859000Y-136564666D01*
X84659000Y-136698000D02*
X85059000Y-136698000D01*
X84809000Y-137164666D02*
X84809000Y-135964666D01*
X84859000Y-135831333D01*
X84959000Y-135764666D01*
X85059000Y-135764666D01*
X85259000Y-136698000D02*
X85659000Y-136698000D01*
X85409000Y-137164666D02*
X85409000Y-135964666D01*
X85459000Y-135831333D01*
X85559000Y-135764666D01*
X85659000Y-135764666D01*
X86009000Y-136698000D02*
X86009000Y-135298000D01*
X86009000Y-136631333D02*
X86109000Y-136698000D01*
X86309000Y-136698000D01*
X86409000Y-136631333D01*
X86459000Y-136564666D01*
X86509000Y-136431333D01*
X86509000Y-136031333D01*
X86459000Y-135898000D01*
X86409000Y-135831333D01*
X86309000Y-135764666D01*
X86109000Y-135764666D01*
X86009000Y-135831333D01*
X86909000Y-135831333D02*
X87009000Y-135764666D01*
X87209000Y-135764666D01*
X87309000Y-135831333D01*
X87359000Y-135964666D01*
X87359000Y-136031333D01*
X87309000Y-136164666D01*
X87209000Y-136231333D01*
X87059000Y-136231333D01*
X86959000Y-136298000D01*
X86909000Y-136431333D01*
X86909000Y-136498000D01*
X86959000Y-136631333D01*
X87059000Y-136698000D01*
X87209000Y-136698000D01*
X87309000Y-136631333D01*
X87809000Y-135898000D02*
X87859000Y-135831333D01*
X87809000Y-135764666D01*
X87759000Y-135831333D01*
X87809000Y-135898000D01*
X87809000Y-135764666D01*
X87809000Y-136631333D02*
X87859000Y-136564666D01*
X87809000Y-136498000D01*
X87759000Y-136564666D01*
X87809000Y-136631333D01*
X87809000Y-136498000D01*
X89059000Y-137231333D02*
X88159000Y-135431333D01*
X90159000Y-137231333D02*
X89259000Y-135431333D01*
X90959000Y-136698000D02*
X90959000Y-135564666D01*
X90909000Y-135431333D01*
X90859000Y-135364666D01*
X90759000Y-135298000D01*
X90609000Y-135298000D01*
X90509000Y-135364666D01*
X90959000Y-135831333D02*
X90859000Y-135764666D01*
X90659000Y-135764666D01*
X90559000Y-135831333D01*
X90509000Y-135898000D01*
X90459000Y-136031333D01*
X90459000Y-136431333D01*
X90509000Y-136564666D01*
X90559000Y-136631333D01*
X90659000Y-136698000D01*
X90859000Y-136698000D01*
X90959000Y-136631333D01*
X91459000Y-135764666D02*
X91459000Y-136698000D01*
X91459000Y-137164666D02*
X91409000Y-137098000D01*
X91459000Y-137031333D01*
X91509000Y-137098000D01*
X91459000Y-137164666D01*
X91459000Y-137031333D01*
X91809000Y-136698000D02*
X92209000Y-136698000D01*
X91959000Y-137164666D02*
X91959000Y-135964666D01*
X92009000Y-135831333D01*
X92109000Y-135764666D01*
X92209000Y-135764666D01*
X92559000Y-135764666D02*
X92559000Y-137164666D01*
X93009000Y-135764666D02*
X93009000Y-136498000D01*
X92959000Y-136631333D01*
X92859000Y-136698000D01*
X92709000Y-136698000D01*
X92609000Y-136631333D01*
X92559000Y-136564666D01*
X93959000Y-136698000D02*
X93959000Y-135764666D01*
X93509000Y-136698000D02*
X93509000Y-135964666D01*
X93559000Y-135831333D01*
X93659000Y-135764666D01*
X93809000Y-135764666D01*
X93909000Y-135831333D01*
X93959000Y-135898000D01*
X94459000Y-135764666D02*
X94459000Y-137164666D01*
X94459000Y-136631333D02*
X94559000Y-136698000D01*
X94759000Y-136698000D01*
X94859000Y-136631333D01*
X94909000Y-136564666D01*
X94959000Y-136431333D01*
X94959000Y-136031333D01*
X94909000Y-135898000D01*
X94859000Y-135831333D01*
X94759000Y-135764666D01*
X94559000Y-135764666D01*
X94459000Y-135831333D01*
X95409000Y-135898000D02*
X95459000Y-135831333D01*
X95409000Y-135764666D01*
X95359000Y-135831333D01*
X95409000Y-135898000D01*
X95409000Y-135764666D01*
X96359000Y-135831333D02*
X96259000Y-135764666D01*
X96059000Y-135764666D01*
X95959000Y-135831333D01*
X95909000Y-135898000D01*
X95859000Y-136031333D01*
X95859000Y-136431333D01*
X95909000Y-136564666D01*
X95959000Y-136631333D01*
X96059000Y-136698000D01*
X96259000Y-136698000D01*
X96359000Y-136631333D01*
X96959000Y-135764666D02*
X96859000Y-135831333D01*
X96809000Y-135898000D01*
X96759000Y-136031333D01*
X96759000Y-136431333D01*
X96809000Y-136564666D01*
X96859000Y-136631333D01*
X96959000Y-136698000D01*
X97109000Y-136698000D01*
X97209000Y-136631333D01*
X97259000Y-136564666D01*
X97309000Y-136431333D01*
X97309000Y-136031333D01*
X97259000Y-135898000D01*
X97209000Y-135831333D01*
X97109000Y-135764666D01*
X96959000Y-135764666D01*
X97759000Y-135764666D02*
X97759000Y-136698000D01*
X97759000Y-136564666D02*
X97809000Y-136631333D01*
X97909000Y-136698000D01*
X98059000Y-136698000D01*
X98159000Y-136631333D01*
X98209000Y-136498000D01*
X98209000Y-135764666D01*
X98209000Y-136498000D02*
X98259000Y-136631333D01*
X98359000Y-136698000D01*
X98509000Y-136698000D01*
X98609000Y-136631333D01*
X98659000Y-136498000D01*
X98659000Y-135764666D01*
X99909000Y-137231333D02*
X99009000Y-135431333D01*
X100709000Y-135764666D02*
X100709000Y-136498000D01*
X100659000Y-136631333D01*
X100559000Y-136698000D01*
X100359000Y-136698000D01*
X100259000Y-136631333D01*
X100709000Y-135831333D02*
X100609000Y-135764666D01*
X100359000Y-135764666D01*
X100259000Y-135831333D01*
X100209000Y-135964666D01*
X100209000Y-136098000D01*
X100259000Y-136231333D01*
X100359000Y-136298000D01*
X100609000Y-136298000D01*
X100709000Y-136364666D01*
X101209000Y-135764666D02*
X101209000Y-136698000D01*
X101209000Y-136431333D02*
X101259000Y-136564666D01*
X101309000Y-136631333D01*
X101409000Y-136698000D01*
X101509000Y-136698000D01*
X101859000Y-136698000D02*
X101859000Y-135498000D01*
X101809000Y-135364666D01*
X101709000Y-135298000D01*
X101659000Y-135298000D01*
X101859000Y-137164666D02*
X101809000Y-137098000D01*
X101859000Y-137031333D01*
X101909000Y-137098000D01*
X101859000Y-137164666D01*
X101859000Y-137031333D01*
X102759000Y-135831333D02*
X102659000Y-135764666D01*
X102459000Y-135764666D01*
X102359000Y-135831333D01*
X102309000Y-135964666D01*
X102309000Y-136498000D01*
X102359000Y-136631333D01*
X102459000Y-136698000D01*
X102659000Y-136698000D01*
X102759000Y-136631333D01*
X102809000Y-136498000D01*
X102809000Y-136364666D01*
X102309000Y-136231333D01*
X103259000Y-136698000D02*
X103259000Y-135764666D01*
X103259000Y-136564666D02*
X103309000Y-136631333D01*
X103409000Y-136698000D01*
X103559000Y-136698000D01*
X103659000Y-136631333D01*
X103709000Y-136498000D01*
X103709000Y-135764666D01*
X104209000Y-135764666D02*
X104209000Y-137164666D01*
X104659000Y-135764666D02*
X104659000Y-136498000D01*
X104609000Y-136631333D01*
X104509000Y-136698000D01*
X104359000Y-136698000D01*
X104259000Y-136631333D01*
X104209000Y-136564666D01*
X105159000Y-135764666D02*
X105159000Y-136698000D01*
X105159000Y-137164666D02*
X105109000Y-137098000D01*
X105159000Y-137031333D01*
X105209000Y-137098000D01*
X105159000Y-137164666D01*
X105159000Y-137031333D01*
X106059000Y-135831333D02*
X105959000Y-135764666D01*
X105759000Y-135764666D01*
X105659000Y-135831333D01*
X105609000Y-135964666D01*
X105609000Y-136498000D01*
X105659000Y-136631333D01*
X105759000Y-136698000D01*
X105959000Y-136698000D01*
X106059000Y-136631333D01*
X106109000Y-136498000D01*
X106109000Y-136364666D01*
X105609000Y-136231333D01*
X106559000Y-135764666D02*
X106559000Y-136698000D01*
X106559000Y-136564666D02*
X106609000Y-136631333D01*
X106709000Y-136698000D01*
X106859000Y-136698000D01*
X106959000Y-136631333D01*
X107009000Y-136498000D01*
X107009000Y-135764666D01*
X107009000Y-136498000D02*
X107059000Y-136631333D01*
X107159000Y-136698000D01*
X107309000Y-136698000D01*
X107409000Y-136631333D01*
X107459000Y-136498000D01*
X107459000Y-135764666D01*
X107909000Y-135831333D02*
X108009000Y-135764666D01*
X108209000Y-135764666D01*
X108309000Y-135831333D01*
X108359000Y-135964666D01*
X108359000Y-136031333D01*
X108309000Y-136164666D01*
X108209000Y-136231333D01*
X108059000Y-136231333D01*
X107959000Y-136298000D01*
X107909000Y-136431333D01*
X107909000Y-136498000D01*
X107959000Y-136631333D01*
X108059000Y-136698000D01*
X108209000Y-136698000D01*
X108309000Y-136631333D01*
X108659000Y-136698000D02*
X109059000Y-136698000D01*
X108809000Y-137164666D02*
X108809000Y-135964666D01*
X108859000Y-135831333D01*
X108959000Y-135764666D01*
X109059000Y-135764666D01*
X109409000Y-135764666D02*
X109409000Y-136698000D01*
X109409000Y-136431333D02*
X109459000Y-136564666D01*
X109509000Y-136631333D01*
X109609000Y-136698000D01*
X109709000Y-136698000D01*
X110509000Y-135764666D02*
X110509000Y-136498000D01*
X110459000Y-136631333D01*
X110359000Y-136698000D01*
X110159000Y-136698000D01*
X110059000Y-136631333D01*
X110509000Y-135831333D02*
X110409000Y-135764666D01*
X110159000Y-135764666D01*
X110059000Y-135831333D01*
X110009000Y-135964666D01*
X110009000Y-136098000D01*
X110059000Y-136231333D01*
X110159000Y-136298000D01*
X110409000Y-136298000D01*
X110509000Y-136364666D01*
X111759000Y-137231333D02*
X110859000Y-135431333D01*
X112109000Y-135764666D02*
X112109000Y-136698000D01*
X112109000Y-137164666D02*
X112059000Y-137098000D01*
X112109000Y-137031333D01*
X112159000Y-137098000D01*
X112109000Y-137164666D01*
X112109000Y-137031333D01*
X112459000Y-136698000D02*
X112859000Y-136698000D01*
X112609000Y-137164666D02*
X112609000Y-135964666D01*
X112659000Y-135831333D01*
X112759000Y-135764666D01*
X112859000Y-135764666D01*
X113209000Y-135764666D02*
X113209000Y-137164666D01*
X113659000Y-135764666D02*
X113659000Y-136498000D01*
X113609000Y-136631333D01*
X113509000Y-136698000D01*
X113359000Y-136698000D01*
X113259000Y-136631333D01*
X113209000Y-136564666D01*
X114309000Y-135764666D02*
X114209000Y-135831333D01*
X114159000Y-135898000D01*
X114109000Y-136031333D01*
X114109000Y-136431333D01*
X114159000Y-136564666D01*
X114209000Y-136631333D01*
X114309000Y-136698000D01*
X114459000Y-136698000D01*
X114559000Y-136631333D01*
X114609000Y-136564666D01*
X114659000Y-136431333D01*
X114659000Y-136031333D01*
X114609000Y-135898000D01*
X114559000Y-135831333D01*
X114459000Y-135764666D01*
X114309000Y-135764666D01*
X115009000Y-136698000D02*
X115209000Y-135764666D01*
X115409000Y-136431333D01*
X115609000Y-135764666D01*
X115809000Y-136698000D01*
X116209000Y-135764666D02*
X116209000Y-136698000D01*
X116209000Y-137164666D02*
X116159000Y-137098000D01*
X116209000Y-137031333D01*
X116259000Y-137098000D01*
X116209000Y-137164666D01*
X116209000Y-137031333D01*
X116559000Y-136698000D02*
X116959000Y-136698000D01*
X116709000Y-135764666D02*
X116709000Y-136964666D01*
X116759000Y-137098000D01*
X116859000Y-137164666D01*
X116959000Y-137164666D01*
X117309000Y-135764666D02*
X117309000Y-136698000D01*
X117309000Y-137164666D02*
X117259000Y-137098000D01*
X117309000Y-137031333D01*
X117359000Y-137098000D01*
X117309000Y-137164666D01*
X117309000Y-137031333D01*
X90681257Y-147510828D02*
X90681257Y-149010828D01*
X91181257Y-148510828D02*
X91752685Y-148510828D01*
X91395542Y-149010828D02*
X91395542Y-147725114D01*
X91466971Y-147582257D01*
X91609828Y-147510828D01*
X91752685Y-147510828D01*
X92252685Y-147510828D02*
X92252685Y-149010828D01*
X92895542Y-147510828D02*
X92895542Y-148296542D01*
X92824114Y-148439400D01*
X92681257Y-148510828D01*
X92466971Y-148510828D01*
X92324114Y-148439400D01*
X92252685Y-148367971D01*
X93824114Y-147510828D02*
X93681257Y-147582257D01*
X93609828Y-147653685D01*
X93538400Y-147796542D01*
X93538400Y-148225114D01*
X93609828Y-148367971D01*
X93681257Y-148439400D01*
X93824114Y-148510828D01*
X94038400Y-148510828D01*
X94181257Y-148439400D01*
X94252685Y-148367971D01*
X94324114Y-148225114D01*
X94324114Y-147796542D01*
X94252685Y-147653685D01*
X94181257Y-147582257D01*
X94038400Y-147510828D01*
X93824114Y-147510828D01*
X96966971Y-147653685D02*
X96895542Y-147582257D01*
X96681257Y-147510828D01*
X96538400Y-147510828D01*
X96324114Y-147582257D01*
X96181257Y-147725114D01*
X96109828Y-147867971D01*
X96038400Y-148153685D01*
X96038400Y-148367971D01*
X96109828Y-148653685D01*
X96181257Y-148796542D01*
X96324114Y-148939400D01*
X96538400Y-149010828D01*
X96681257Y-149010828D01*
X96895542Y-148939400D01*
X96966971Y-148867971D01*
X97395542Y-149010828D02*
X97895542Y-147510828D01*
X98395542Y-149010828D01*
X98895542Y-148296542D02*
X99395542Y-148296542D01*
X99609828Y-147510828D02*
X98895542Y-147510828D01*
X98895542Y-149010828D01*
X99609828Y-149010828D01*
X101252685Y-149010828D02*
X101609828Y-147510828D01*
X101895542Y-148582257D01*
X102181257Y-147510828D01*
X102538400Y-149010828D01*
X103109828Y-147510828D02*
X103109828Y-148510828D01*
X103109828Y-149010828D02*
X103038400Y-148939400D01*
X103109828Y-148867971D01*
X103181257Y-148939400D01*
X103109828Y-149010828D01*
X103109828Y-148867971D01*
X104324114Y-148296542D02*
X103824114Y-148296542D01*
X103824114Y-147510828D02*
X103824114Y-149010828D01*
X104538400Y-149010828D01*
X105109828Y-147510828D02*
X105109828Y-148510828D01*
X105109828Y-149010828D02*
X105038400Y-148939400D01*
X105109828Y-148867971D01*
X105181257Y-148939400D01*
X105109828Y-149010828D01*
X105109828Y-148867971D01*
X107824114Y-147653685D02*
X107752685Y-147582257D01*
X107538400Y-147510828D01*
X107395542Y-147510828D01*
X107181257Y-147582257D01*
X107038400Y-147725114D01*
X106966971Y-147867971D01*
X106895542Y-148153685D01*
X106895542Y-148367971D01*
X106966971Y-148653685D01*
X107038400Y-148796542D01*
X107181257Y-148939400D01*
X107395542Y-149010828D01*
X107538400Y-149010828D01*
X107752685Y-148939400D01*
X107824114Y-148867971D01*
X108681257Y-147510828D02*
X108538400Y-147582257D01*
X108466971Y-147653685D01*
X108395542Y-147796542D01*
X108395542Y-148225114D01*
X108466971Y-148367971D01*
X108538400Y-148439400D01*
X108681257Y-148510828D01*
X108895542Y-148510828D01*
X109038400Y-148439400D01*
X109109828Y-148367971D01*
X109181257Y-148225114D01*
X109181257Y-147796542D01*
X109109828Y-147653685D01*
X109038400Y-147582257D01*
X108895542Y-147510828D01*
X108681257Y-147510828D01*
X109824114Y-148510828D02*
X109824114Y-147510828D01*
X109824114Y-148367971D02*
X109895542Y-148439400D01*
X110038400Y-148510828D01*
X110252685Y-148510828D01*
X110395542Y-148439400D01*
X110466971Y-148296542D01*
X110466971Y-147510828D01*
X110966971Y-148510828D02*
X111538400Y-148510828D01*
X111181257Y-149010828D02*
X111181257Y-147725114D01*
X111252685Y-147582257D01*
X111395542Y-147510828D01*
X111538400Y-147510828D01*
X112038400Y-147510828D02*
X112038400Y-148510828D01*
X112038400Y-148225114D02*
X112109828Y-148367971D01*
X112181257Y-148439400D01*
X112324114Y-148510828D01*
X112466971Y-148510828D01*
X113181257Y-147510828D02*
X113038400Y-147582257D01*
X112966971Y-147653685D01*
X112895542Y-147796542D01*
X112895542Y-148225114D01*
X112966971Y-148367971D01*
X113038400Y-148439400D01*
X113181257Y-148510828D01*
X113395542Y-148510828D01*
X113538400Y-148439400D01*
X113609828Y-148367971D01*
X113681257Y-148225114D01*
X113681257Y-147796542D01*
X113609828Y-147653685D01*
X113538400Y-147582257D01*
X113395542Y-147510828D01*
X113181257Y-147510828D01*
X114538400Y-147510828D02*
X114395542Y-147582257D01*
X114324114Y-147725114D01*
X114324114Y-149010828D01*
X115324114Y-147510828D02*
X115181257Y-147582257D01*
X115109828Y-147725114D01*
X115109828Y-149010828D01*
X116466971Y-147582257D02*
X116324114Y-147510828D01*
X116038400Y-147510828D01*
X115895542Y-147582257D01*
X115824114Y-147725114D01*
X115824114Y-148296542D01*
X115895542Y-148439400D01*
X116038400Y-148510828D01*
X116324114Y-148510828D01*
X116466971Y-148439400D01*
X116538400Y-148296542D01*
X116538400Y-148153685D01*
X115824114Y-148010828D01*
X117181257Y-147510828D02*
X117181257Y-148510828D01*
X117181257Y-148225114D02*
X117252685Y-148367971D01*
X117324114Y-148439400D01*
X117466971Y-148510828D01*
X117609828Y-148510828D01*
X86574114Y-145489400D02*
X87288400Y-145489400D01*
X86431257Y-145060828D02*
X86931257Y-146560828D01*
X87431257Y-145060828D01*
X87931257Y-145060828D02*
X87931257Y-146060828D01*
X87931257Y-145775114D02*
X88002685Y-145917971D01*
X88074114Y-145989400D01*
X88216971Y-146060828D01*
X88359828Y-146060828D01*
X88859828Y-146060828D02*
X88859828Y-144775114D01*
X88788400Y-144632257D01*
X88645542Y-144560828D01*
X88574114Y-144560828D01*
X88859828Y-146560828D02*
X88788400Y-146489400D01*
X88859828Y-146417971D01*
X88931257Y-146489400D01*
X88859828Y-146560828D01*
X88859828Y-146417971D01*
X90145542Y-145132257D02*
X90002685Y-145060828D01*
X89716971Y-145060828D01*
X89574114Y-145132257D01*
X89502685Y-145275114D01*
X89502685Y-145846542D01*
X89574114Y-145989400D01*
X89716971Y-146060828D01*
X90002685Y-146060828D01*
X90145542Y-145989400D01*
X90216971Y-145846542D01*
X90216971Y-145703685D01*
X89502685Y-145560828D01*
X90859828Y-146060828D02*
X90859828Y-145060828D01*
X90859828Y-145917971D02*
X90931257Y-145989400D01*
X91074114Y-146060828D01*
X91288400Y-146060828D01*
X91431257Y-145989400D01*
X91502685Y-145846542D01*
X91502685Y-145060828D01*
X93359828Y-145060828D02*
X93359828Y-146560828D01*
X93359828Y-145846542D02*
X94216971Y-145846542D01*
X94216971Y-145060828D02*
X94216971Y-146560828D01*
X94931257Y-145060828D02*
X94931257Y-146060828D01*
X94931257Y-146560828D02*
X94859828Y-146489400D01*
X94931257Y-146417971D01*
X95002685Y-146489400D01*
X94931257Y-146560828D01*
X94931257Y-146417971D01*
X96216971Y-145132257D02*
X96074114Y-145060828D01*
X95788400Y-145060828D01*
X95645542Y-145132257D01*
X95574114Y-145275114D01*
X95574114Y-145846542D01*
X95645542Y-145989400D01*
X95788400Y-146060828D01*
X96074114Y-146060828D01*
X96216971Y-145989400D01*
X96288400Y-145846542D01*
X96288400Y-145703685D01*
X95574114Y-145560828D01*
X96931257Y-145060828D02*
X96931257Y-146060828D01*
X96931257Y-145917971D02*
X97002685Y-145989400D01*
X97145542Y-146060828D01*
X97359828Y-146060828D01*
X97502685Y-145989400D01*
X97574114Y-145846542D01*
X97574114Y-145060828D01*
X97574114Y-145846542D02*
X97645542Y-145989400D01*
X97788400Y-146060828D01*
X98002685Y-146060828D01*
X98145542Y-145989400D01*
X98216971Y-145846542D01*
X98216971Y-145060828D01*
X98859828Y-145132257D02*
X99002685Y-145060828D01*
X99288400Y-145060828D01*
X99431257Y-145132257D01*
X99502685Y-145275114D01*
X99502685Y-145346542D01*
X99431257Y-145489400D01*
X99288400Y-145560828D01*
X99074114Y-145560828D01*
X98931257Y-145632257D01*
X98859828Y-145775114D01*
X98859828Y-145846542D01*
X98931257Y-145989400D01*
X99074114Y-146060828D01*
X99288400Y-146060828D01*
X99431257Y-145989400D01*
X99931257Y-146060828D02*
X100502685Y-146060828D01*
X100145542Y-146560828D02*
X100145542Y-145275114D01*
X100216971Y-145132257D01*
X100359828Y-145060828D01*
X100502685Y-145060828D01*
X101002685Y-145060828D02*
X101002685Y-146060828D01*
X101002685Y-145775114D02*
X101074114Y-145917971D01*
X101145542Y-145989400D01*
X101288400Y-146060828D01*
X101431257Y-146060828D01*
X102574114Y-145060828D02*
X102574114Y-145846542D01*
X102502685Y-145989400D01*
X102359828Y-146060828D01*
X102074114Y-146060828D01*
X101931257Y-145989400D01*
X102574114Y-145132257D02*
X102431257Y-145060828D01*
X102074114Y-145060828D01*
X101931257Y-145132257D01*
X101859828Y-145275114D01*
X101859828Y-145417971D01*
X101931257Y-145560828D01*
X102074114Y-145632257D01*
X102431257Y-145632257D01*
X102574114Y-145703685D01*
X104431257Y-145632257D02*
X105574114Y-145632257D01*
X108216971Y-146489400D02*
X108074114Y-146560828D01*
X107859828Y-146560828D01*
X107645542Y-146489400D01*
X107502685Y-146346542D01*
X107431257Y-146203685D01*
X107359828Y-145917971D01*
X107359828Y-145703685D01*
X107431257Y-145417971D01*
X107502685Y-145275114D01*
X107645542Y-145132257D01*
X107859828Y-145060828D01*
X108002685Y-145060828D01*
X108216971Y-145132257D01*
X108288400Y-145203685D01*
X108288400Y-145703685D01*
X108002685Y-145703685D01*
X108931257Y-145060828D02*
X108931257Y-146560828D01*
X109788400Y-145060828D01*
X109788400Y-146560828D01*
X110502685Y-146560828D02*
X110502685Y-145346542D01*
X110574114Y-145203685D01*
X110645542Y-145132257D01*
X110788400Y-145060828D01*
X111074114Y-145060828D01*
X111216971Y-145132257D01*
X111288400Y-145203685D01*
X111359828Y-145346542D01*
X111359828Y-146560828D01*
X114002685Y-146489400D02*
X113859828Y-146560828D01*
X113645542Y-146560828D01*
X113431257Y-146489400D01*
X113288400Y-146346542D01*
X113216971Y-146203685D01*
X113145542Y-145917971D01*
X113145542Y-145703685D01*
X113216971Y-145417971D01*
X113288400Y-145275114D01*
X113431257Y-145132257D01*
X113645542Y-145060828D01*
X113788400Y-145060828D01*
X114002685Y-145132257D01*
X114074114Y-145203685D01*
X114074114Y-145703685D01*
X113788400Y-145703685D01*
X114716971Y-145060828D02*
X114716971Y-146560828D01*
X115288400Y-146560828D01*
X115431257Y-146489400D01*
X115502685Y-146417971D01*
X115574114Y-146275114D01*
X115574114Y-146060828D01*
X115502685Y-145917971D01*
X115431257Y-145846542D01*
X115288400Y-145775114D01*
X114716971Y-145775114D01*
X116931257Y-145060828D02*
X116216971Y-145060828D01*
X116216971Y-146560828D01*
X118431257Y-146560828D02*
X119359828Y-146560828D01*
X118859828Y-145989400D01*
X119074114Y-145989400D01*
X119216971Y-145917971D01*
X119288400Y-145846542D01*
X119359828Y-145703685D01*
X119359828Y-145346542D01*
X119288400Y-145203685D01*
X119216971Y-145132257D01*
X119074114Y-145060828D01*
X118645542Y-145060828D01*
X118502685Y-145132257D01*
X118431257Y-145203685D01*
X120002685Y-145203685D02*
X120074114Y-145132257D01*
X120002685Y-145060828D01*
X119931257Y-145132257D01*
X120002685Y-145203685D01*
X120002685Y-145060828D01*
X121002685Y-146560828D02*
X121145542Y-146560828D01*
X121288400Y-146489400D01*
X121359828Y-146417971D01*
X121431257Y-146275114D01*
X121502685Y-145989400D01*
X121502685Y-145632257D01*
X121431257Y-145346542D01*
X121359828Y-145203685D01*
X121288400Y-145132257D01*
X121145542Y-145060828D01*
X121002685Y-145060828D01*
X120859828Y-145132257D01*
X120788400Y-145203685D01*
X120716971Y-145346542D01*
X120645542Y-145632257D01*
X120645542Y-145989400D01*
X120716971Y-146275114D01*
X120788400Y-146417971D01*
X120859828Y-146489400D01*
X121002685Y-146560828D01*
D12*
X114822000Y-131189000D02*
X114822000Y-111889000D01*
X114822000Y-111889000D02*
X108797000Y-111889000D01*
X101547000Y-111889000D02*
X97522000Y-111889000D01*
X97522000Y-111889000D02*
X97522000Y-131189000D01*
X97522000Y-131189000D02*
X98272000Y-131189000D01*
X114072000Y-131189000D02*
X114822000Y-131189000D01*
D13*
X104931400Y-111558400D02*
X105181400Y-111058400D01*
X105431400Y-111558400D02*
X104931400Y-111558400D01*
X105181400Y-111058400D02*
X105431400Y-111558400D01*
X118177000Y-139125000D02*
X120777000Y-139125000D01*
X118177000Y-139125000D02*
X118177000Y-128845000D01*
X118177000Y-128845000D02*
X123377000Y-128845000D01*
X123377000Y-136525000D02*
X123377000Y-128845000D01*
X120777000Y-136525000D02*
X123377000Y-136525000D01*
X120777000Y-139125000D02*
X120777000Y-136525000D01*
X123377000Y-139125000D02*
X123377000Y-137795000D01*
X122047000Y-139125000D02*
X123377000Y-139125000D01*
D12*
X115720857Y-130165952D02*
X115673238Y-130213571D01*
X115625619Y-130356428D01*
X115625619Y-130451666D01*
X115673238Y-130594523D01*
X115768476Y-130689761D01*
X115863714Y-130737380D01*
X116054190Y-130785000D01*
X116197047Y-130785000D01*
X116387523Y-130737380D01*
X116482761Y-130689761D01*
X116578000Y-130594523D01*
X116625619Y-130451666D01*
X116625619Y-130356428D01*
X116578000Y-130213571D01*
X116530380Y-130165952D01*
X115720857Y-129165952D02*
X115673238Y-129213571D01*
X115625619Y-129356428D01*
X115625619Y-129451666D01*
X115673238Y-129594523D01*
X115768476Y-129689761D01*
X115863714Y-129737380D01*
X116054190Y-129785000D01*
X116197047Y-129785000D01*
X116387523Y-129737380D01*
X116482761Y-129689761D01*
X116578000Y-129594523D01*
X116625619Y-129451666D01*
X116625619Y-129356428D01*
X116578000Y-129213571D01*
X116530380Y-129165952D01*
X115625619Y-128213571D02*
X115625619Y-128785000D01*
X115625619Y-128499285D02*
X116625619Y-128499285D01*
X116482761Y-128594523D01*
X116387523Y-128689761D01*
X116339904Y-128785000D01*
X115625619Y-127261190D02*
X115625619Y-127832619D01*
X115625619Y-127546904D02*
X116625619Y-127546904D01*
X116482761Y-127642142D01*
X116387523Y-127737380D01*
X116339904Y-127832619D01*
X116625619Y-126642142D02*
X116625619Y-126546904D01*
X116578000Y-126451666D01*
X116530380Y-126404047D01*
X116435142Y-126356428D01*
X116244666Y-126308809D01*
X116006571Y-126308809D01*
X115816095Y-126356428D01*
X115720857Y-126404047D01*
X115673238Y-126451666D01*
X115625619Y-126546904D01*
X115625619Y-126642142D01*
X115673238Y-126737380D01*
X115720857Y-126785000D01*
X115816095Y-126832619D01*
X116006571Y-126880238D01*
X116244666Y-126880238D01*
X116435142Y-126832619D01*
X116530380Y-126785000D01*
X116578000Y-126737380D01*
X116625619Y-126642142D01*
X115625619Y-125356428D02*
X115625619Y-125927857D01*
X115625619Y-125642142D02*
X116625619Y-125642142D01*
X116482761Y-125737380D01*
X116387523Y-125832619D01*
X116339904Y-125927857D01*
X116006571Y-124927857D02*
X116006571Y-124165952D01*
X116197047Y-123546904D02*
X116244666Y-123642142D01*
X116292285Y-123689761D01*
X116387523Y-123737380D01*
X116435142Y-123737380D01*
X116530380Y-123689761D01*
X116578000Y-123642142D01*
X116625619Y-123546904D01*
X116625619Y-123356428D01*
X116578000Y-123261190D01*
X116530380Y-123213571D01*
X116435142Y-123165952D01*
X116387523Y-123165952D01*
X116292285Y-123213571D01*
X116244666Y-123261190D01*
X116197047Y-123356428D01*
X116197047Y-123546904D01*
X116149428Y-123642142D01*
X116101809Y-123689761D01*
X116006571Y-123737380D01*
X115816095Y-123737380D01*
X115720857Y-123689761D01*
X115673238Y-123642142D01*
X115625619Y-123546904D01*
X115625619Y-123356428D01*
X115673238Y-123261190D01*
X115720857Y-123213571D01*
X115816095Y-123165952D01*
X116006571Y-123165952D01*
X116101809Y-123213571D01*
X116149428Y-123261190D01*
X116197047Y-123356428D01*
X116625619Y-122308809D02*
X116625619Y-122499285D01*
X116578000Y-122594523D01*
X116530380Y-122642142D01*
X116387523Y-122737380D01*
X116197047Y-122785000D01*
X115816095Y-122785000D01*
X115720857Y-122737380D01*
X115673238Y-122689761D01*
X115625619Y-122594523D01*
X115625619Y-122404047D01*
X115673238Y-122308809D01*
X115720857Y-122261190D01*
X115816095Y-122213571D01*
X116054190Y-122213571D01*
X116149428Y-122261190D01*
X116197047Y-122308809D01*
X116244666Y-122404047D01*
X116244666Y-122594523D01*
X116197047Y-122689761D01*
X116149428Y-122737380D01*
X116054190Y-122785000D01*
X116197047Y-121642142D02*
X116244666Y-121737380D01*
X116292285Y-121785000D01*
X116387523Y-121832619D01*
X116435142Y-121832619D01*
X116530380Y-121785000D01*
X116578000Y-121737380D01*
X116625619Y-121642142D01*
X116625619Y-121451666D01*
X116578000Y-121356428D01*
X116530380Y-121308809D01*
X116435142Y-121261190D01*
X116387523Y-121261190D01*
X116292285Y-121308809D01*
X116244666Y-121356428D01*
X116197047Y-121451666D01*
X116197047Y-121642142D01*
X116149428Y-121737380D01*
X116101809Y-121785000D01*
X116006571Y-121832619D01*
X115816095Y-121832619D01*
X115720857Y-121785000D01*
X115673238Y-121737380D01*
X115625619Y-121642142D01*
X115625619Y-121451666D01*
X115673238Y-121356428D01*
X115720857Y-121308809D01*
X115816095Y-121261190D01*
X116006571Y-121261190D01*
X116101809Y-121308809D01*
X116149428Y-121356428D01*
X116197047Y-121451666D01*
X115625619Y-120832619D02*
X116625619Y-120832619D01*
X115911333Y-120499285D01*
X116625619Y-120165952D01*
X115625619Y-120165952D01*
X115625619Y-119689761D02*
X116625619Y-119689761D01*
X116149428Y-119689761D02*
X116149428Y-119118333D01*
X115625619Y-119118333D02*
X116625619Y-119118333D01*
X116292285Y-118737380D02*
X116292285Y-118213571D01*
X115625619Y-118737380D01*
X115625619Y-118213571D01*
X116006571Y-117832619D02*
X116006571Y-117070714D01*
X115625619Y-116594523D02*
X116625619Y-116594523D01*
X115911333Y-116261190D01*
X116625619Y-115927857D01*
X115625619Y-115927857D01*
X115625619Y-115308809D02*
X115673238Y-115404047D01*
X115720857Y-115451666D01*
X115816095Y-115499285D01*
X116101809Y-115499285D01*
X116197047Y-115451666D01*
X116244666Y-115404047D01*
X116292285Y-115308809D01*
X116292285Y-115165952D01*
X116244666Y-115070714D01*
X116197047Y-115023095D01*
X116101809Y-114975476D01*
X115816095Y-114975476D01*
X115720857Y-115023095D01*
X115673238Y-115070714D01*
X115625619Y-115165952D01*
X115625619Y-115308809D01*
X115625619Y-114118333D02*
X116625619Y-114118333D01*
X115673238Y-114118333D02*
X115625619Y-114213571D01*
X115625619Y-114404047D01*
X115673238Y-114499285D01*
X115720857Y-114546904D01*
X115816095Y-114594523D01*
X116101809Y-114594523D01*
X116197047Y-114546904D01*
X116244666Y-114499285D01*
X116292285Y-114404047D01*
X116292285Y-114213571D01*
X116244666Y-114118333D01*
X116292285Y-113213571D02*
X115625619Y-113213571D01*
X116292285Y-113642142D02*
X115768476Y-113642142D01*
X115673238Y-113594523D01*
X115625619Y-113499285D01*
X115625619Y-113356428D01*
X115673238Y-113261190D01*
X115720857Y-113213571D01*
X115625619Y-112594523D02*
X115673238Y-112689761D01*
X115768476Y-112737380D01*
X116625619Y-112737380D01*
X115673238Y-111832619D02*
X115625619Y-111927857D01*
X115625619Y-112118333D01*
X115673238Y-112213571D01*
X115768476Y-112261190D01*
X116149428Y-112261190D01*
X116244666Y-112213571D01*
X116292285Y-112118333D01*
X116292285Y-111927857D01*
X116244666Y-111832619D01*
X116149428Y-111785000D01*
X116054190Y-111785000D01*
X115958952Y-112261190D01*
X121110333Y-140017380D02*
X121110333Y-140731666D01*
X121157952Y-140874523D01*
X121253190Y-140969761D01*
X121396047Y-141017380D01*
X121491285Y-141017380D01*
X120681761Y-140112619D02*
X120634142Y-140065000D01*
X120538904Y-140017380D01*
X120300809Y-140017380D01*
X120205571Y-140065000D01*
X120157952Y-140112619D01*
X120110333Y-140207857D01*
X120110333Y-140303095D01*
X120157952Y-140445952D01*
X120729380Y-141017380D01*
X120110333Y-141017380D01*
M02*
